<?xml version="1.0" encoding="utf-8" standalone="no"?>
<!DOCTYPE svg PUBLIC "-//W3C//DTD SVG 1.1//EN"
  "http://www.w3.org/Graphics/SVG/1.1/DTD/svg11.dtd">
<svg xmlns:xlink="http://www.w3.org/1999/xlink" width="1404pt" height="72pt" viewBox="0 0 1404 72" xmlns="http://www.w3.org/2000/svg" version="1.1">
 <metadata>
  <rdf:RDF xmlns:dc="http://purl.org/dc/elements/1.1/" xmlns:cc="http://creativecommons.org/ns#" xmlns:rdf="http://www.w3.org/1999/02/22-rdf-syntax-ns#">
   <cc:Work>
    <dc:type rdf:resource="http://purl.org/dc/dcmitype/StillImage"/>
    <dc:date>2023-01-02T13:38:06.135885</dc:date>
    <dc:format>image/svg+xml</dc:format>
    <dc:creator>
     <cc:Agent>
      <dc:title>Matplotlib v3.6.1, https://matplotlib.org/</dc:title>
     </cc:Agent>
    </dc:creator>
   </cc:Work>
  </rdf:RDF>
 </metadata>
 <defs>
  <style type="text/css">*{stroke-linejoin: round; stroke-linecap: butt}</style>
 </defs>
 <g id="figure_1">
  <g id="patch_1">
   <path d="M 0 72 
L 1404 72 
L 1404 0 
L 0 0 
L 0 72 
z
" style="fill: none"/>
  </g>
  <g id="axes_1">
   <g id="patch_2">
    <path d="M 1.716102 36.437797 
L 2.951695 44.778051 
Q 3.054661 45.567458 3.054661 45.60178 
Q 3.054661 45.704746 3.363559 45.704746 
Q 4.22161 45.704746 4.942373 44.778051 
Q 5.663136 43.851356 6.075 42.718729 
Q 6.486864 41.586102 7.001695 40.659407 
Q 7.516525 39.732712 7.997034 39.732712 
Q 8.614831 39.732712 9.249788 40.607924 
Q 9.884746 41.483136 10.348093 42.512797 
Q 10.811441 43.542458 11.48072 44.417669 
Q 12.15 45.292881 12.836441 45.292881 
Q 13.111017 43.782712 13.540042 39.69839 
Q 13.969068 35.614068 14.483898 33.554746 
" clip-path="url(#pcfe01ec8cb)" style="fill: none; stroke: #000000; stroke-linejoin: miter"/>
   </g>
  </g>
  <g id="axes_2">
   <g id="patch_3">
    <path d="M 20.813462 35.932469 
Q 21.413297 35.257655 22.406772 34.826524 
Q 23.400248 34.395393 24.3 34.470372 
Q 24.937324 34.470372 25.42469 34.639076 
Q 25.912055 34.807779 26.230717 34.995228 
Q 26.549379 35.182676 26.774317 35.670041 
Q 26.999255 36.157407 27.111724 36.419834 
Q 27.224193 36.682262 27.280428 37.375821 
Q 27.336662 38.069379 27.355407 38.331807 
Q 27.374152 38.594234 27.355407 39.419007 
Q 27.336662 40.243779 27.336662 40.431228 
Q 27.336662 41.368469 27.167959 43.242952 
Q 26.999255 45.117434 26.999255 46.054676 
Q 26.999255 46.467062 27.05549 46.823214 
Q 27.111724 47.179366 27.205448 47.610497 
Q 27.299172 48.041628 27.336662 48.304055 
L 27.786538 48.528993 
M 21.263338 23.111007 
Q 21.488276 24.798041 21.488276 29.971614 
L 21.488276 42.3432 
L 21.150869 46.841959 
L 20.925931 47.74171 
" clip-path="url(#p517b763875)" style="fill: none; stroke: #000000; stroke-linejoin: miter"/>
   </g>
  </g>
  <g id="axes_3">
   <g id="patch_4">
    <path d="M 41.118579 29.071862 
Q 40.743683 29.146841 40.612469 29.577972 
Q 40.481255 30.009103 40.556234 30.42149 
Q 40.556234 30.571448 40.593724 30.702662 
Q 40.631214 30.833876 40.687448 30.89011 
Q 40.743683 30.946345 40.799917 31.040069 
Q 40.856152 31.133793 40.893641 31.208772 
L 41.00611 29.859145 
M 41.00611 34.020497 
Q 40.106359 39.006621 39.881421 42.793076 
L 40.331297 45.379862 
L 40.668703 46.054676 
" clip-path="url(#p3232140783)" style="fill: none; stroke: #000000; stroke-linejoin: miter"/>
   </g>
  </g>
  <g id="axes_4">
   <g id="patch_5">
    <path d="M 56.306359 28.621986 
Q 56.531297 30.34651 56.606276 32.146014 
Q 56.681255 33.945517 56.66251 36.551048 
Q 56.643766 39.156579 56.643766 40.093821 
Q 56.643766 40.13131 56.868703 45.829738 
L 57.093641 46.841959 
" clip-path="url(#p5e47a15c72)" style="fill: none; stroke: #000000; stroke-linejoin: miter"/>
   </g>
  </g>
  <g id="axes_5">
   <g id="patch_6">
    <path d="M 66.657798 38.160826 
Q 69.630275 39.535596 74.349083 39.721376 
Q 75.872477 39.721376 76.559862 38.550963 
Q 77.247248 37.38055 77.247248 35.82 
Q 77.247248 35.299817 77.154358 34.909679 
Q 77.061468 34.519541 76.819954 34.296606 
Q 76.57844 34.07367 76.411239 33.943624 
Q 76.244037 33.813578 75.798165 33.757844 
Q 75.352294 33.70211 75.147936 33.683532 
Q 74.943578 33.664954 74.367661 33.683532 
Q 73.791743 33.70211 73.568807 33.70211 
Q 71.525229 33.70211 70.038991 35.578486 
Q 68.552752 37.454862 68.552752 39.609908 
Q 68.552752 42.619541 70.484862 44.570229 
Q 72.416972 46.520917 75.463761 46.520917 
Q 77.618807 46.818165 79.142202 44.29156 
" clip-path="url(#p997bdbc48c)" style="fill: none; stroke: #000000; stroke-linejoin: miter"/>
   </g>
  </g>
  <g id="axes_6"/>
  <g id="axes_7">
   <g id="patch_7">
    <path d="M 108.5616 35.032717 
Q 107.51189 34.582841 106.537159 34.69531 
Q 103.500497 35.032717 101.588524 36.701007 
Q 99.676552 38.369297 99.676552 41.330979 
Q 99.676552 43.917766 101.682248 45.6048 
Q 103.687945 47.291834 106.312221 47.291834 
Q 108.674069 47.291834 109.798759 45.361117 
Q 110.923448 43.4304 110.923448 40.881103 
Q 110.923448 39.643945 110.511062 38.706703 
Q 110.098676 37.769462 109.573821 37.300841 
Q 109.048966 36.832221 108.299172 36.119917 
Q 107.549379 35.407614 107.099503 34.69531 
L 105.862345 34.245434 
" clip-path="url(#p777fdae288)" style="fill: none; stroke: #000000; stroke-linejoin: miter"/>
   </g>
  </g>
  <g id="axes_8">
   <g id="patch_8">
    <path d="M 116.663834 37.95691 
L 117.338648 37.95691 
Q 118.050952 37.95691 118.838234 37.881931 
Q 119.625517 37.806952 120.581503 37.675738 
Q 121.53749 37.544524 122.062345 37.507034 
L 126.336166 35.82 
M 122.287283 30.42149 
L 122.287283 31.43371 
Q 122.287283 33.383172 121.612469 37.207117 
Q 120.937655 41.031062 120.937655 43.018014 
Q 120.937655 43.805297 120.937655 44.105214 
Q 120.937655 44.405131 121.031379 45.042455 
Q 121.125103 45.679779 121.312552 45.960952 
Q 121.5 46.242124 121.893641 46.485807 
Q 122.287283 46.72949 122.849628 46.72949 
Q 122.962097 46.692 123.280759 46.72949 
Q 123.599421 46.766979 123.786869 46.710745 
Q 123.974317 46.65451 123.974317 46.392083 
" clip-path="url(#p6f8db01d72)" style="fill: none; stroke: #000000; stroke-linejoin: miter"/>
   </g>
  </g>
  <g id="axes_9">
   <g id="patch_9">
    <path d="M 134.213462 35.932469 
Q 134.813297 35.257655 135.806772 34.826524 
Q 136.800248 34.395393 137.7 34.470372 
Q 138.337324 34.470372 138.82469 34.639076 
Q 139.312055 34.807779 139.630717 34.995228 
Q 139.949379 35.182676 140.174317 35.670041 
Q 140.399255 36.157407 140.511724 36.419834 
Q 140.624193 36.682262 140.680428 37.375821 
Q 140.736662 38.069379 140.755407 38.331807 
Q 140.774152 38.594234 140.755407 39.419007 
Q 140.736662 40.243779 140.736662 40.431228 
Q 140.736662 41.368469 140.567959 43.242952 
Q 140.399255 45.117434 140.399255 46.054676 
Q 140.399255 46.467062 140.45549 46.823214 
Q 140.511724 47.179366 140.605448 47.610497 
Q 140.699172 48.041628 140.736662 48.304055 
L 141.186538 48.528993 
M 134.663338 23.111007 
Q 134.888276 24.798041 134.888276 29.971614 
L 134.888276 42.3432 
L 134.550869 46.841959 
L 134.325931 47.74171 
" clip-path="url(#p7e540040bd)" style="fill: none; stroke: #000000; stroke-linejoin: miter"/>
   </g>
  </g>
  <g id="axes_10">
   <g id="patch_10">
    <path d="M 147.657798 38.160826 
Q 150.630275 39.535596 155.349083 39.721376 
Q 156.872477 39.721376 157.559862 38.550963 
Q 158.247248 37.38055 158.247248 35.82 
Q 158.247248 35.299817 158.154358 34.909679 
Q 158.061468 34.519541 157.819954 34.296606 
Q 157.57844 34.07367 157.411239 33.943624 
Q 157.244037 33.813578 156.798165 33.757844 
Q 156.352294 33.70211 156.147936 33.683532 
Q 155.943578 33.664954 155.367661 33.683532 
Q 154.791743 33.70211 154.568807 33.70211 
Q 152.525229 33.70211 151.038991 35.578486 
Q 149.552752 37.454862 149.552752 39.609908 
Q 149.552752 42.619541 151.484862 44.570229 
Q 153.416972 46.520917 156.463761 46.520917 
Q 158.618807 46.818165 160.142202 44.29156 
" clip-path="url(#p28cbc0a47d)" style="fill: none; stroke: #000000; stroke-linejoin: miter"/>
   </g>
  </g>
  <g id="axes_11">
   <g id="patch_11">
    <path d="M 166.613462 32.783338 
Q 167.138317 34.507862 167.269531 36.457324 
Q 167.400745 38.406786 167.325766 40.956083 
Q 167.250786 43.505379 167.288276 44.705048 
L 167.400745 46.054676 
L 167.400745 45.829738 
Q 167.400745 44.667559 167.119572 42.30571 
Q 166.8384 39.943862 166.8384 38.744193 
Q 166.8384 36.419834 167.850621 34.882759 
Q 168.862841 33.345683 170.887283 33.345683 
Q 171.599586 33.345683 171.936993 33.626855 
Q 172.2744 33.908028 172.536828 34.432883 
Q 172.799255 34.957738 173.136662 35.257655 
L 173.586538 36.832221 
" clip-path="url(#p0385b1f104)" style="fill: none; stroke: #000000; stroke-linejoin: miter"/>
   </g>
  </g>
  <g id="axes_12">
   <g id="patch_12">
    <path d="M 181.857476 43.917766 
Q 182.157393 44.180193 183.169614 45.154924 
Q 184.181834 46.129655 184.744179 46.560786 
Q 185.306524 46.991917 186.33749 47.385559 
Q 187.368455 47.7792 188.380676 47.629241 
Q 189.05549 47.629241 189.52411 47.404303 
Q 189.992731 47.179366 190.217669 46.879448 
Q 190.442607 46.579531 190.573821 45.979697 
Q 190.705034 45.379862 190.723779 44.967476 
Q 190.742524 44.55509 190.742524 43.805297 
Q 190.742524 42.718097 189.842772 42.043283 
Q 188.943021 41.368469 187.649628 41.031062 
Q 186.356234 40.693655 185.062841 40.300014 
Q 183.769448 39.906372 182.869697 38.987876 
Q 181.969945 38.069379 181.969945 36.607283 
Q 181.969945 36.082428 182.138648 35.726276 
Q 182.307352 35.370124 182.700993 35.145186 
Q 183.094634 34.920248 183.375807 34.807779 
Q 183.656979 34.69531 184.313048 34.639076 
Q 184.969117 34.582841 185.156566 34.582841 
Q 185.344014 34.582841 186.018828 34.582841 
Q 187.218497 34.582841 187.799586 34.995228 
Q 188.380676 35.407614 188.699338 36.026193 
Q 189.018 36.644772 189.280428 36.832221 
" clip-path="url(#p9d620e7d2c)" style="fill: none; stroke: #000000; stroke-linejoin: miter"/>
   </g>
  </g>
  <g id="axes_13"/>
  <g id="axes_14">
   <g id="patch_13">
    <path d="M 215.157228 36.494814 
Q 216.206938 36.457324 216.394386 36.382345 
Q 219.805945 36.382345 221.586703 38.463021 
Q 223.367462 40.543697 223.367462 44.030234 
Q 223.367462 46.954428 218.756234 46.954428 
Q 218.11891 46.954428 217.57531 46.841959 
Q 217.03171 46.72949 216.394386 46.504552 
Q 215.757062 46.279614 215.269697 46.167145 
L 214.032538 44.929986 
M 215.044759 24.685572 
L 215.044759 25.810262 
Q 215.044759 28.659476 215.157228 32.258483 
Q 215.269697 35.85749 215.457145 40.150055 
Q 215.644593 44.442621 215.719572 46.392083 
" clip-path="url(#p7406fa5eb2)" style="fill: none; stroke: #000000; stroke-linejoin: miter"/>
   </g>
  </g>
  <g id="axes_15">
   <g id="patch_14">
    <path d="M 228.657798 38.160826 
Q 231.630275 39.535596 236.349083 39.721376 
Q 237.872477 39.721376 238.559862 38.550963 
Q 239.247248 37.38055 239.247248 35.82 
Q 239.247248 35.299817 239.154358 34.909679 
Q 239.061468 34.519541 238.819954 34.296606 
Q 238.57844 34.07367 238.411239 33.943624 
Q 238.244037 33.813578 237.798165 33.757844 
Q 237.352294 33.70211 237.147936 33.683532 
Q 236.943578 33.664954 236.367661 33.683532 
Q 235.791743 33.70211 235.568807 33.70211 
Q 233.525229 33.70211 232.038991 35.578486 
Q 230.552752 37.454862 230.552752 39.609908 
Q 230.552752 42.619541 232.484862 44.570229 
Q 234.416972 46.520917 237.463761 46.520917 
Q 239.618807 46.818165 241.142202 44.29156 
" clip-path="url(#paa27c5c2b6)" style="fill: none; stroke: #000000; stroke-linejoin: miter"/>
   </g>
  </g>
  <g id="axes_16">
   <g id="patch_15">
    <path d="M 250.706359 28.621986 
Q 250.931297 30.34651 251.006276 32.146014 
Q 251.081255 33.945517 251.06251 36.551048 
Q 251.043766 39.156579 251.043766 40.093821 
Q 251.043766 40.13131 251.268703 45.829738 
L 251.493641 46.841959 
" clip-path="url(#p5cdf0c624f)" style="fill: none; stroke: #000000; stroke-linejoin: miter"/>
   </g>
  </g>
  <g id="axes_17">
   <g id="patch_16">
    <path d="M 267.918579 29.071862 
Q 267.543683 29.146841 267.412469 29.577972 
Q 267.281255 30.009103 267.356234 30.42149 
Q 267.356234 30.571448 267.393724 30.702662 
Q 267.431214 30.833876 267.487448 30.89011 
Q 267.543683 30.946345 267.599917 31.040069 
Q 267.656152 31.133793 267.693641 31.208772 
L 267.80611 29.859145 
M 267.80611 34.020497 
Q 266.906359 39.006621 266.681421 42.793076 
L 267.131297 45.379862 
L 267.468703 46.054676 
" clip-path="url(#p98168e33e6)" style="fill: none; stroke: #000000; stroke-linejoin: miter"/>
   </g>
  </g>
  <g id="axes_18">
   <g id="patch_17">
    <path d="M 277.257798 38.160826 
Q 280.230275 39.535596 284.949083 39.721376 
Q 286.472477 39.721376 287.159862 38.550963 
Q 287.847248 37.38055 287.847248 35.82 
Q 287.847248 35.299817 287.754358 34.909679 
Q 287.661468 34.519541 287.419954 34.296606 
Q 287.17844 34.07367 287.011239 33.943624 
Q 286.844037 33.813578 286.398165 33.757844 
Q 285.952294 33.70211 285.747936 33.683532 
Q 285.543578 33.664954 284.967661 33.683532 
Q 284.391743 33.70211 284.168807 33.70211 
Q 282.125229 33.70211 280.638991 35.578486 
Q 279.152752 37.454862 279.152752 39.609908 
Q 279.152752 42.619541 281.084862 44.570229 
Q 283.016972 46.520917 286.063761 46.520917 
Q 288.218807 46.818165 289.742202 44.29156 
" clip-path="url(#p82388d4c4d)" style="fill: none; stroke: #000000; stroke-linejoin: miter"/>
   </g>
  </g>
  <g id="axes_19">
   <g id="patch_18">
    <path d="M 295.426179 34.807779 
Q 297.038234 36.719752 298.331628 39.6252 
Q 299.625021 42.530648 299.924938 45.154924 
Q 300.974648 43.655338 301.893145 38.819172 
Q 302.811641 33.983007 303.973821 32.108524 
" clip-path="url(#pc7bf2809f9)" style="fill: none; stroke: #000000; stroke-linejoin: miter"/>
   </g>
  </g>
  <g id="axes_20">
   <g id="patch_19">
    <path d="M 309.657798 38.160826 
Q 312.630275 39.535596 317.349083 39.721376 
Q 318.872477 39.721376 319.559862 38.550963 
Q 320.247248 37.38055 320.247248 35.82 
Q 320.247248 35.299817 320.154358 34.909679 
Q 320.061468 34.519541 319.819954 34.296606 
Q 319.57844 34.07367 319.411239 33.943624 
Q 319.244037 33.813578 318.798165 33.757844 
Q 318.352294 33.70211 318.147936 33.683532 
Q 317.943578 33.664954 317.367661 33.683532 
Q 316.791743 33.70211 316.568807 33.70211 
Q 314.525229 33.70211 313.038991 35.578486 
Q 311.552752 37.454862 311.552752 39.609908 
Q 311.552752 42.619541 313.484862 44.570229 
Q 315.416972 46.520917 318.463761 46.520917 
Q 320.618807 46.818165 322.142202 44.29156 
" clip-path="url(#p965e6dba75)" style="fill: none; stroke: #000000; stroke-linejoin: miter"/>
   </g>
  </g>
  <g id="axes_21"/>
  <g id="axes_22">
   <g id="patch_20">
    <path d="M 343.463834 37.95691 
L 344.138648 37.95691 
Q 344.850952 37.95691 345.638234 37.881931 
Q 346.425517 37.806952 347.381503 37.675738 
Q 348.33749 37.544524 348.862345 37.507034 
L 353.136166 35.82 
M 349.087283 30.42149 
L 349.087283 31.43371 
Q 349.087283 33.383172 348.412469 37.207117 
Q 347.737655 41.031062 347.737655 43.018014 
Q 347.737655 43.805297 347.737655 44.105214 
Q 347.737655 44.405131 347.831379 45.042455 
Q 347.925103 45.679779 348.112552 45.960952 
Q 348.3 46.242124 348.693641 46.485807 
Q 349.087283 46.72949 349.649628 46.72949 
Q 349.762097 46.692 350.080759 46.72949 
Q 350.399421 46.766979 350.586869 46.710745 
Q 350.774317 46.65451 350.774317 46.392083 
" clip-path="url(#pfb76edc313)" style="fill: none; stroke: #000000; stroke-linejoin: miter"/>
   </g>
  </g>
  <g id="axes_23">
   <g id="patch_21">
    <path d="M 361.013462 35.932469 
Q 361.613297 35.257655 362.606772 34.826524 
Q 363.600248 34.395393 364.5 34.470372 
Q 365.137324 34.470372 365.62469 34.639076 
Q 366.112055 34.807779 366.430717 34.995228 
Q 366.749379 35.182676 366.974317 35.670041 
Q 367.199255 36.157407 367.311724 36.419834 
Q 367.424193 36.682262 367.480428 37.375821 
Q 367.536662 38.069379 367.555407 38.331807 
Q 367.574152 38.594234 367.555407 39.419007 
Q 367.536662 40.243779 367.536662 40.431228 
Q 367.536662 41.368469 367.367959 43.242952 
Q 367.199255 45.117434 367.199255 46.054676 
Q 367.199255 46.467062 367.25549 46.823214 
Q 367.311724 47.179366 367.405448 47.610497 
Q 367.499172 48.041628 367.536662 48.304055 
L 367.986538 48.528993 
M 361.463338 23.111007 
Q 361.688276 24.798041 361.688276 29.971614 
L 361.688276 42.3432 
L 361.350869 46.841959 
L 361.125931 47.74171 
" clip-path="url(#p2581619137)" style="fill: none; stroke: #000000; stroke-linejoin: miter"/>
   </g>
  </g>
  <g id="axes_24">
   <g id="patch_22">
    <path d="M 384.696408 36.371229 
Q 383.624575 35.1769 380.102836 35.1769 
Q 378.755388 35.1769 378.066352 35.222836 
Q 377.377316 35.268771 376.489225 35.483138 
Q 375.601134 35.697505 375.172401 36.14155 
Q 374.743667 36.585595 374.437429 37.412439 
Q 374.131191 38.239282 374.131191 39.494858 
Q 374.131191 41.332287 375.386767 42.434745 
Q 376.642344 43.537202 378.357278 43.537202 
Q 380.715312 43.537202 383.165217 38.392401 
Q 384.359546 35.850624 384.359546 35.82 
Q 384.665784 35.605633 384.696408 36.371229 
Q 384.696408 37.320567 385.063894 39.847032 
Q 385.43138 42.373497 385.43138 43.537202 
M 387.268809 44.731531 
" clip-path="url(#p4597ec70d9)" style="fill: none; stroke: #000000; stroke-linejoin: miter"/>
   </g>
  </g>
  <g id="axes_25">
   <g id="patch_23">
    <path d="M 392.063834 37.95691 
L 392.738648 37.95691 
Q 393.450952 37.95691 394.238234 37.881931 
Q 395.025517 37.806952 395.981503 37.675738 
Q 396.93749 37.544524 397.462345 37.507034 
L 401.736166 35.82 
M 397.687283 30.42149 
L 397.687283 31.43371 
Q 397.687283 33.383172 397.012469 37.207117 
Q 396.337655 41.031062 396.337655 43.018014 
Q 396.337655 43.805297 396.337655 44.105214 
Q 396.337655 44.405131 396.431379 45.042455 
Q 396.525103 45.679779 396.712552 45.960952 
Q 396.9 46.242124 397.293641 46.485807 
Q 397.687283 46.72949 398.249628 46.72949 
Q 398.362097 46.692 398.680759 46.72949 
Q 398.999421 46.766979 399.186869 46.710745 
Q 399.374317 46.65451 399.374317 46.392083 
" clip-path="url(#p4af82fdcb4)" style="fill: none; stroke: #000000; stroke-linejoin: miter"/>
   </g>
  </g>
  <g id="axes_26"/>
  <g id="axes_27">
   <g id="patch_24">
    <path d="M 433.296408 36.371229 
Q 432.224575 35.1769 428.702836 35.1769 
Q 427.355388 35.1769 426.666352 35.222836 
Q 425.977316 35.268771 425.089225 35.483138 
Q 424.201134 35.697505 423.772401 36.14155 
Q 423.343667 36.585595 423.037429 37.412439 
Q 422.731191 38.239282 422.731191 39.494858 
Q 422.731191 41.332287 423.986767 42.434745 
Q 425.242344 43.537202 426.957278 43.537202 
Q 429.315312 43.537202 431.765217 38.392401 
Q 432.959546 35.850624 432.959546 35.82 
Q 433.265784 35.605633 433.296408 36.371229 
Q 433.296408 37.320567 433.663894 39.847032 
Q 434.03138 42.373497 434.03138 43.537202 
M 435.868809 44.731531 
" clip-path="url(#p7cf0657f0c)" style="fill: none; stroke: #000000; stroke-linejoin: miter"/>
   </g>
  </g>
  <g id="axes_28"/>
  <g id="axes_29">
   <g id="patch_25">
    <path d="M 456.920069 39.868883 
L 456.920069 39.419007 
Q 456.920069 37.769462 458.663338 36.682262 
Q 460.406607 35.595062 462.093641 35.595062 
Q 464.305531 35.595062 465.673903 36.794731 
Q 467.042276 37.9944 467.042276 40.20629 
Q 467.042276 42.30571 465.224028 43.336676 
Q 463.405779 44.367641 461.19389 44.367641 
Q 460.519076 44.367641 460.012966 44.255172 
Q 459.506855 44.142703 458.888276 43.917766 
Q 458.269697 43.692828 457.819821 43.580359 
L 456.695131 42.568138 
M 456.357724 36.832221 
Q 456.8076 38.444276 457.070028 40.262524 
Q 457.332455 42.080772 457.38869 43.749062 
Q 457.444924 45.417352 457.482414 47.27309 
Q 457.519903 49.128828 457.482414 50.778372 
L 457.369945 57.863917 
" clip-path="url(#p04307002e2)" style="fill: none; stroke: #000000; stroke-linejoin: miter"/>
   </g>
  </g>
  <g id="axes_30">
   <g id="patch_26">
    <path d="M 471.657798 38.160826 
Q 474.630275 39.535596 479.349083 39.721376 
Q 480.872477 39.721376 481.559862 38.550963 
Q 482.247248 37.38055 482.247248 35.82 
Q 482.247248 35.299817 482.154358 34.909679 
Q 482.061468 34.519541 481.819954 34.296606 
Q 481.57844 34.07367 481.411239 33.943624 
Q 481.244037 33.813578 480.798165 33.757844 
Q 480.352294 33.70211 480.147936 33.683532 
Q 479.943578 33.664954 479.367661 33.683532 
Q 478.791743 33.70211 478.568807 33.70211 
Q 476.525229 33.70211 475.038991 35.578486 
Q 473.552752 37.454862 473.552752 39.609908 
Q 473.552752 42.619541 475.484862 44.570229 
Q 477.416972 46.520917 480.463761 46.520917 
Q 482.618807 46.818165 484.142202 44.29156 
" clip-path="url(#p3eb85d9d2b)" style="fill: none; stroke: #000000; stroke-linejoin: miter"/>
   </g>
  </g>
  <g id="axes_31">
   <g id="patch_27">
    <path d="M 490.613462 32.783338 
Q 491.138317 34.507862 491.269531 36.457324 
Q 491.400745 38.406786 491.325766 40.956083 
Q 491.250786 43.505379 491.288276 44.705048 
L 491.400745 46.054676 
L 491.400745 45.829738 
Q 491.400745 44.667559 491.119572 42.30571 
Q 490.8384 39.943862 490.8384 38.744193 
Q 490.8384 36.419834 491.850621 34.882759 
Q 492.862841 33.345683 494.887283 33.345683 
Q 495.599586 33.345683 495.936993 33.626855 
Q 496.2744 33.908028 496.536828 34.432883 
Q 496.799255 34.957738 497.136662 35.257655 
L 497.586538 36.832221 
" clip-path="url(#p43b557e33d)" style="fill: none; stroke: #000000; stroke-linejoin: miter"/>
   </g>
  </g>
  <g id="axes_32">
   <g id="patch_28">
    <path d="M 505.857476 43.917766 
Q 506.157393 44.180193 507.169614 45.154924 
Q 508.181834 46.129655 508.744179 46.560786 
Q 509.306524 46.991917 510.33749 47.385559 
Q 511.368455 47.7792 512.380676 47.629241 
Q 513.05549 47.629241 513.52411 47.404303 
Q 513.992731 47.179366 514.217669 46.879448 
Q 514.442607 46.579531 514.573821 45.979697 
Q 514.705034 45.379862 514.723779 44.967476 
Q 514.742524 44.55509 514.742524 43.805297 
Q 514.742524 42.718097 513.842772 42.043283 
Q 512.943021 41.368469 511.649628 41.031062 
Q 510.356234 40.693655 509.062841 40.300014 
Q 507.769448 39.906372 506.869697 38.987876 
Q 505.969945 38.069379 505.969945 36.607283 
Q 505.969945 36.082428 506.138648 35.726276 
Q 506.307352 35.370124 506.700993 35.145186 
Q 507.094634 34.920248 507.375807 34.807779 
Q 507.656979 34.69531 508.313048 34.639076 
Q 508.969117 34.582841 509.156566 34.582841 
Q 509.344014 34.582841 510.018828 34.582841 
Q 511.218497 34.582841 511.799586 34.995228 
Q 512.380676 35.407614 512.699338 36.026193 
Q 513.018 36.644772 513.280428 36.832221 
" clip-path="url(#pcb213cfc86)" style="fill: none; stroke: #000000; stroke-linejoin: miter"/>
   </g>
  </g>
  <g id="axes_33">
   <g id="patch_29">
    <path d="M 529.7616 35.032717 
Q 528.71189 34.582841 527.737159 34.69531 
Q 524.700497 35.032717 522.788524 36.701007 
Q 520.876552 38.369297 520.876552 41.330979 
Q 520.876552 43.917766 522.882248 45.6048 
Q 524.887945 47.291834 527.512221 47.291834 
Q 529.874069 47.291834 530.998759 45.361117 
Q 532.123448 43.4304 532.123448 40.881103 
Q 532.123448 39.643945 531.711062 38.706703 
Q 531.298676 37.769462 530.773821 37.300841 
Q 530.248966 36.832221 529.499172 36.119917 
Q 528.749379 35.407614 528.299503 34.69531 
L 527.062345 34.245434 
" clip-path="url(#p929bfd2032)" style="fill: none; stroke: #000000; stroke-linejoin: miter"/>
   </g>
  </g>
  <g id="axes_34">
   <g id="patch_30">
    <path d="M 537.863834 32.783338 
L 537.863834 33.345683 
Q 538.726097 39.718924 538.763586 47.066897 
Q 538.763586 47.81669 538.688607 47.029407 
Q 538.238731 42.080772 538.088772 35.82 
L 538.088772 35.145186 
Q 538.088772 33.6456 539.682083 33.008276 
Q 541.275393 32.370952 542.7 32.783338 
Q 544.237076 33.233214 545.211807 34.414138 
Q 546.186538 35.595062 546.561434 37.282097 
Q 546.936331 38.969131 547.067545 40.543697 
Q 547.198759 42.118262 547.273738 44.067724 
Q 547.348717 46.017186 547.536166 47.066897 
" clip-path="url(#p7fb195fb3d)" style="fill: none; stroke: #000000; stroke-linejoin: miter"/>
   </g>
  </g>
  <g id="axes_35"/>
  <g id="axes_36">
   <g id="patch_31">
    <path d="M 568.857798 38.160826 
Q 571.830275 39.535596 576.549083 39.721376 
Q 578.072477 39.721376 578.759862 38.550963 
Q 579.447248 37.38055 579.447248 35.82 
Q 579.447248 35.299817 579.354358 34.909679 
Q 579.261468 34.519541 579.019954 34.296606 
Q 578.77844 34.07367 578.611239 33.943624 
Q 578.444037 33.813578 577.998165 33.757844 
Q 577.552294 33.70211 577.347936 33.683532 
Q 577.143578 33.664954 576.567661 33.683532 
Q 575.991743 33.70211 575.768807 33.70211 
Q 573.725229 33.70211 572.238991 35.578486 
Q 570.752752 37.454862 570.752752 39.609908 
Q 570.752752 42.619541 572.684862 44.570229 
Q 574.616972 46.520917 577.663761 46.520917 
Q 579.818807 46.818165 581.342202 44.29156 
" clip-path="url(#p0ffbfd19ab)" style="fill: none; stroke: #000000; stroke-linejoin: miter"/>
   </g>
  </g>
  <g id="axes_37">
   <g id="patch_32">
    <path d="M 594.899007 34.920248 
Q 594.036745 36.007448 590.925103 40.018841 
Q 587.813462 44.030234 586.126428 46.054676 
M 587.026179 36.044938 
Q 588.900662 37.319586 591.393724 40.843614 
Q 593.886786 44.367641 595.461352 45.6048 
L 596.473572 45.942207 
" clip-path="url(#p32fbc30998)" style="fill: none; stroke: #000000; stroke-linejoin: miter"/>
   </g>
  </g>
  <g id="axes_38">
   <g id="patch_33">
    <path d="M 608.118579 29.071862 
Q 607.743683 29.146841 607.612469 29.577972 
Q 607.481255 30.009103 607.556234 30.42149 
Q 607.556234 30.571448 607.593724 30.702662 
Q 607.631214 30.833876 607.687448 30.89011 
Q 607.743683 30.946345 607.799917 31.040069 
Q 607.856152 31.133793 607.893641 31.208772 
L 608.00611 29.859145 
M 608.00611 34.020497 
Q 607.106359 39.006621 606.881421 42.793076 
L 607.331297 45.379862 
L 607.668703 46.054676 
" clip-path="url(#pb4b556f9f2)" style="fill: none; stroke: #000000; stroke-linejoin: miter"/>
   </g>
  </g>
  <g id="axes_39">
   <g id="patch_34">
    <path d="M 619.257476 43.917766 
Q 619.557393 44.180193 620.569614 45.154924 
Q 621.581834 46.129655 622.144179 46.560786 
Q 622.706524 46.991917 623.73749 47.385559 
Q 624.768455 47.7792 625.780676 47.629241 
Q 626.45549 47.629241 626.92411 47.404303 
Q 627.392731 47.179366 627.617669 46.879448 
Q 627.842607 46.579531 627.973821 45.979697 
Q 628.105034 45.379862 628.123779 44.967476 
Q 628.142524 44.55509 628.142524 43.805297 
Q 628.142524 42.718097 627.242772 42.043283 
Q 626.343021 41.368469 625.049628 41.031062 
Q 623.756234 40.693655 622.462841 40.300014 
Q 621.169448 39.906372 620.269697 38.987876 
Q 619.369945 38.069379 619.369945 36.607283 
Q 619.369945 36.082428 619.538648 35.726276 
Q 619.707352 35.370124 620.100993 35.145186 
Q 620.494634 34.920248 620.775807 34.807779 
Q 621.056979 34.69531 621.713048 34.639076 
Q 622.369117 34.582841 622.556566 34.582841 
Q 622.744014 34.582841 623.418828 34.582841 
Q 624.618497 34.582841 625.199586 34.995228 
Q 625.780676 35.407614 626.099338 36.026193 
Q 626.418 36.644772 626.680428 36.832221 
" clip-path="url(#p1eb3c5e6d8)" style="fill: none; stroke: #000000; stroke-linejoin: miter"/>
   </g>
  </g>
  <g id="axes_40">
   <g id="patch_35">
    <path d="M 635.063834 37.95691 
L 635.738648 37.95691 
Q 636.450952 37.95691 637.238234 37.881931 
Q 638.025517 37.806952 638.981503 37.675738 
Q 639.93749 37.544524 640.462345 37.507034 
L 644.736166 35.82 
M 640.687283 30.42149 
L 640.687283 31.43371 
Q 640.687283 33.383172 640.012469 37.207117 
Q 639.337655 41.031062 639.337655 43.018014 
Q 639.337655 43.805297 639.337655 44.105214 
Q 639.337655 44.405131 639.431379 45.042455 
Q 639.525103 45.679779 639.712552 45.960952 
Q 639.9 46.242124 640.293641 46.485807 
Q 640.687283 46.72949 641.249628 46.72949 
Q 641.362097 46.692 641.680759 46.72949 
Q 641.999421 46.766979 642.186869 46.710745 
Q 642.374317 46.65451 642.374317 46.392083 
" clip-path="url(#p70909748f8)" style="fill: none; stroke: #000000; stroke-linejoin: miter"/>
   </g>
  </g>
  <g id="axes_41">
   <g id="patch_36">
    <path d="M 651.657476 43.917766 
Q 651.957393 44.180193 652.969614 45.154924 
Q 653.981834 46.129655 654.544179 46.560786 
Q 655.106524 46.991917 656.13749 47.385559 
Q 657.168455 47.7792 658.180676 47.629241 
Q 658.85549 47.629241 659.32411 47.404303 
Q 659.792731 47.179366 660.017669 46.879448 
Q 660.242607 46.579531 660.373821 45.979697 
Q 660.505034 45.379862 660.523779 44.967476 
Q 660.542524 44.55509 660.542524 43.805297 
Q 660.542524 42.718097 659.642772 42.043283 
Q 658.743021 41.368469 657.449628 41.031062 
Q 656.156234 40.693655 654.862841 40.300014 
Q 653.569448 39.906372 652.669697 38.987876 
Q 651.769945 38.069379 651.769945 36.607283 
Q 651.769945 36.082428 651.938648 35.726276 
Q 652.107352 35.370124 652.500993 35.145186 
Q 652.894634 34.920248 653.175807 34.807779 
Q 653.456979 34.69531 654.113048 34.639076 
Q 654.769117 34.582841 654.956566 34.582841 
Q 655.144014 34.582841 655.818828 34.582841 
Q 657.018497 34.582841 657.599586 34.995228 
Q 658.180676 35.407614 658.499338 36.026193 
Q 658.818 36.644772 659.080428 36.832221 
" clip-path="url(#pfa82ecd7a1)" style="fill: none; stroke: #000000; stroke-linejoin: miter"/>
   </g>
  </g>
  <g id="axes_42"/>
  <g id="axes_43">
   <g id="patch_37">
    <path d="M 684.957228 36.494814 
Q 686.006938 36.457324 686.194386 36.382345 
Q 689.605945 36.382345 691.386703 38.463021 
Q 693.167462 40.543697 693.167462 44.030234 
Q 693.167462 46.954428 688.556234 46.954428 
Q 687.91891 46.954428 687.37531 46.841959 
Q 686.83171 46.72949 686.194386 46.504552 
Q 685.557062 46.279614 685.069697 46.167145 
L 683.832538 44.929986 
M 684.844759 24.685572 
L 684.844759 25.810262 
Q 684.844759 28.659476 684.957228 32.258483 
Q 685.069697 35.85749 685.257145 40.150055 
Q 685.444593 44.442621 685.519572 46.392083 
" clip-path="url(#pf8bb10bd30)" style="fill: none; stroke: #000000; stroke-linejoin: miter"/>
   </g>
  </g>
  <g id="axes_44">
   <g id="patch_38">
    <path d="M 698.457798 38.160826 
Q 701.430275 39.535596 706.149083 39.721376 
Q 707.672477 39.721376 708.359862 38.550963 
Q 709.047248 37.38055 709.047248 35.82 
Q 709.047248 35.299817 708.954358 34.909679 
Q 708.861468 34.519541 708.619954 34.296606 
Q 708.37844 34.07367 708.211239 33.943624 
Q 708.044037 33.813578 707.598165 33.757844 
Q 707.152294 33.70211 706.947936 33.683532 
Q 706.743578 33.664954 706.167661 33.683532 
Q 705.591743 33.70211 705.368807 33.70211 
Q 703.325229 33.70211 701.838991 35.578486 
Q 700.352752 37.454862 700.352752 39.609908 
Q 700.352752 42.619541 702.284862 44.570229 
Q 704.216972 46.520917 707.263761 46.520917 
Q 709.418807 46.818165 710.942202 44.29156 
" clip-path="url(#pe8324b2d8a)" style="fill: none; stroke: #000000; stroke-linejoin: miter"/>
   </g>
  </g>
  <g id="axes_45">
   <g id="patch_39">
    <path d="M 726.156735 34.365306 
Q 726.156735 34.365306 725.660816 34.365306 
Q 724.867347 34.365306 723.379592 34.067755 
Q 721.891837 33.770204 721.098367 33.770204 
Q 718.321224 33.770204 716.387143 35.224898 
Q 714.453061 36.679592 714.453061 39.423673 
Q 714.453061 40.94449 715.940816 42.399184 
Q 717.428571 43.853878 719.362653 44.663878 
Q 721.296735 45.473878 722.78449 45.473878 
Q 723.710204 45.473878 724.40449 45.110204 
Q 725.098776 44.746531 725.842653 44.118367 
Q 726.586531 43.490204 727.148571 43.192653 
L 727.346939 42.696735 
" clip-path="url(#p0ac378e7d3)" style="fill: none; stroke: #000000; stroke-linejoin: miter"/>
   </g>
  </g>
  <g id="axes_46">
   <g id="patch_40">
    <path d="M 741.096408 36.371229 
Q 740.024575 35.1769 736.502836 35.1769 
Q 735.155388 35.1769 734.466352 35.222836 
Q 733.777316 35.268771 732.889225 35.483138 
Q 732.001134 35.697505 731.572401 36.14155 
Q 731.143667 36.585595 730.837429 37.412439 
Q 730.531191 38.239282 730.531191 39.494858 
Q 730.531191 41.332287 731.786767 42.434745 
Q 733.042344 43.537202 734.757278 43.537202 
Q 737.115312 43.537202 739.565217 38.392401 
Q 740.759546 35.850624 740.759546 35.82 
Q 741.065784 35.605633 741.096408 36.371229 
Q 741.096408 37.320567 741.463894 39.847032 
Q 741.83138 42.373497 741.83138 43.537202 
M 743.668809 44.731531 
" clip-path="url(#p6e6e4135f0)" style="fill: none; stroke: #000000; stroke-linejoin: miter"/>
   </g>
  </g>
  <g id="axes_47">
   <g id="patch_41">
    <path d="M 748.688772 35.145186 
Q 748.688772 35.145186 748.688772 35.595062 
Q 748.688772 36.269876 748.576303 37.619503 
Q 748.463834 38.969131 748.463834 39.643945 
Q 748.463834 41.930814 749.700993 43.599103 
Q 750.938152 45.267393 753.075062 45.267393 
Q 754.462179 45.154924 755.230717 43.917766 
Q 755.999255 42.680607 756.149214 41.237255 
Q 756.299172 39.793903 756.5616 37.9944 
Q 756.824028 36.194897 757.236414 35.370124 
Q 757.386372 35.070207 757.386372 35.670041 
Q 757.386372 36.269876 757.123945 38.706703 
Q 756.899007 41.031062 756.899007 41.555917 
Q 756.749048 42.643117 757.086455 43.767807 
Q 757.423862 44.892497 758.136166 45.6048 
" clip-path="url(#p7a067edccc)" style="fill: none; stroke: #000000; stroke-linejoin: miter"/>
   </g>
  </g>
  <g id="axes_48">
   <g id="patch_42">
    <path d="M 765.057476 43.917766 
Q 765.357393 44.180193 766.369614 45.154924 
Q 767.381834 46.129655 767.944179 46.560786 
Q 768.506524 46.991917 769.53749 47.385559 
Q 770.568455 47.7792 771.580676 47.629241 
Q 772.25549 47.629241 772.72411 47.404303 
Q 773.192731 47.179366 773.417669 46.879448 
Q 773.642607 46.579531 773.773821 45.979697 
Q 773.905034 45.379862 773.923779 44.967476 
Q 773.942524 44.55509 773.942524 43.805297 
Q 773.942524 42.718097 773.042772 42.043283 
Q 772.143021 41.368469 770.849628 41.031062 
Q 769.556234 40.693655 768.262841 40.300014 
Q 766.969448 39.906372 766.069697 38.987876 
Q 765.169945 38.069379 765.169945 36.607283 
Q 765.169945 36.082428 765.338648 35.726276 
Q 765.507352 35.370124 765.900993 35.145186 
Q 766.294634 34.920248 766.575807 34.807779 
Q 766.856979 34.69531 767.513048 34.639076 
Q 768.169117 34.582841 768.356566 34.582841 
Q 768.544014 34.582841 769.218828 34.582841 
Q 770.418497 34.582841 770.999586 34.995228 
Q 771.580676 35.407614 771.899338 36.026193 
Q 772.218 36.644772 772.480428 36.832221 
" clip-path="url(#p29290bda82)" style="fill: none; stroke: #000000; stroke-linejoin: miter"/>
   </g>
  </g>
  <g id="axes_49">
   <g id="patch_43">
    <path d="M 779.457798 38.160826 
Q 782.430275 39.535596 787.149083 39.721376 
Q 788.672477 39.721376 789.359862 38.550963 
Q 790.047248 37.38055 790.047248 35.82 
Q 790.047248 35.299817 789.954358 34.909679 
Q 789.861468 34.519541 789.619954 34.296606 
Q 789.37844 34.07367 789.211239 33.943624 
Q 789.044037 33.813578 788.598165 33.757844 
Q 788.152294 33.70211 787.947936 33.683532 
Q 787.743578 33.664954 787.167661 33.683532 
Q 786.591743 33.70211 786.368807 33.70211 
Q 784.325229 33.70211 782.838991 35.578486 
Q 781.352752 37.454862 781.352752 39.609908 
Q 781.352752 42.619541 783.284862 44.570229 
Q 785.216972 46.520917 788.263761 46.520917 
Q 790.418807 46.818165 791.942202 44.29156 
" clip-path="url(#pa05a18efbb)" style="fill: none; stroke: #000000; stroke-linejoin: miter"/>
   </g>
  </g>
  <g id="axes_50"/>
  <g id="axes_51">
   <g id="patch_44">
    <path d="M 818.718579 29.071862 
Q 818.343683 29.146841 818.212469 29.577972 
Q 818.081255 30.009103 818.156234 30.42149 
Q 818.156234 30.571448 818.193724 30.702662 
Q 818.231214 30.833876 818.287448 30.89011 
Q 818.343683 30.946345 818.399917 31.040069 
Q 818.456152 31.133793 818.493641 31.208772 
L 818.60611 29.859145 
M 818.60611 34.020497 
Q 817.706359 39.006621 817.481421 42.793076 
L 817.931297 45.379862 
L 818.268703 46.054676 
" clip-path="url(#p2b5ab2299f)" style="fill: none; stroke: #000000; stroke-linejoin: miter"/>
   </g>
  </g>
  <g id="axes_52">
   <g id="patch_45">
    <path d="M 829.463834 37.95691 
L 830.138648 37.95691 
Q 830.850952 37.95691 831.638234 37.881931 
Q 832.425517 37.806952 833.381503 37.675738 
Q 834.33749 37.544524 834.862345 37.507034 
L 839.136166 35.82 
M 835.087283 30.42149 
L 835.087283 31.43371 
Q 835.087283 33.383172 834.412469 37.207117 
Q 833.737655 41.031062 833.737655 43.018014 
Q 833.737655 43.805297 833.737655 44.105214 
Q 833.737655 44.405131 833.831379 45.042455 
Q 833.925103 45.679779 834.112552 45.960952 
Q 834.3 46.242124 834.693641 46.485807 
Q 835.087283 46.72949 835.649628 46.72949 
Q 835.762097 46.692 836.080759 46.72949 
Q 836.399421 46.766979 836.586869 46.710745 
Q 836.774317 46.65451 836.774317 46.392083 
" clip-path="url(#pfae51dcf3a)" style="fill: none; stroke: #000000; stroke-linejoin: miter"/>
   </g>
  </g>
  <g id="axes_53"/>
  <g id="axes_54">
   <g id="patch_46">
    <path d="M 867.318579 29.071862 
Q 866.943683 29.146841 866.812469 29.577972 
Q 866.681255 30.009103 866.756234 30.42149 
Q 866.756234 30.571448 866.793724 30.702662 
Q 866.831214 30.833876 866.887448 30.89011 
Q 866.943683 30.946345 866.999917 31.040069 
Q 867.056152 31.133793 867.093641 31.208772 
L 867.20611 29.859145 
M 867.20611 34.020497 
Q 866.306359 39.006621 866.081421 42.793076 
L 866.531297 45.379862 
L 866.868703 46.054676 
" clip-path="url(#pa618e7ded0)" style="fill: none; stroke: #000000; stroke-linejoin: miter"/>
   </g>
  </g>
  <g id="axes_55">
   <g id="patch_47">
    <path d="M 878.457476 43.917766 
Q 878.757393 44.180193 879.769614 45.154924 
Q 880.781834 46.129655 881.344179 46.560786 
Q 881.906524 46.991917 882.93749 47.385559 
Q 883.968455 47.7792 884.980676 47.629241 
Q 885.65549 47.629241 886.12411 47.404303 
Q 886.592731 47.179366 886.817669 46.879448 
Q 887.042607 46.579531 887.173821 45.979697 
Q 887.305034 45.379862 887.323779 44.967476 
Q 887.342524 44.55509 887.342524 43.805297 
Q 887.342524 42.718097 886.442772 42.043283 
Q 885.543021 41.368469 884.249628 41.031062 
Q 882.956234 40.693655 881.662841 40.300014 
Q 880.369448 39.906372 879.469697 38.987876 
Q 878.569945 38.069379 878.569945 36.607283 
Q 878.569945 36.082428 878.738648 35.726276 
Q 878.907352 35.370124 879.300993 35.145186 
Q 879.694634 34.920248 879.975807 34.807779 
Q 880.256979 34.69531 880.913048 34.639076 
Q 881.569117 34.582841 881.756566 34.582841 
Q 881.944014 34.582841 882.618828 34.582841 
Q 883.818497 34.582841 884.399586 34.995228 
Q 884.980676 35.407614 885.299338 36.026193 
Q 885.618 36.644772 885.880428 36.832221 
" clip-path="url(#p682bc5aaa1)" style="fill: none; stroke: #000000; stroke-linejoin: miter"/>
   </g>
  </g>
  <g id="axes_56"/>
  <g id="axes_57">
   <g id="patch_48">
    <path d="M 919.296408 36.371229 
Q 918.224575 35.1769 914.702836 35.1769 
Q 913.355388 35.1769 912.666352 35.222836 
Q 911.977316 35.268771 911.089225 35.483138 
Q 910.201134 35.697505 909.772401 36.14155 
Q 909.343667 36.585595 909.037429 37.412439 
Q 908.731191 38.239282 908.731191 39.494858 
Q 908.731191 41.332287 909.986767 42.434745 
Q 911.242344 43.537202 912.957278 43.537202 
Q 915.315312 43.537202 917.765217 38.392401 
Q 918.959546 35.850624 918.959546 35.82 
Q 919.265784 35.605633 919.296408 36.371229 
Q 919.296408 37.320567 919.663894 39.847032 
Q 920.03138 42.373497 920.03138 43.537202 
M 921.868809 44.731531 
" clip-path="url(#pbd8041dafa)" style="fill: none; stroke: #000000; stroke-linejoin: miter"/>
   </g>
  </g>
  <g id="axes_58"/>
  <g id="axes_59">
   <g id="patch_49">
    <path d="M 947.306359 28.621986 
Q 947.531297 30.34651 947.606276 32.146014 
Q 947.681255 33.945517 947.66251 36.551048 
Q 947.643766 39.156579 947.643766 40.093821 
Q 947.643766 40.13131 947.868703 45.829738 
L 948.093641 46.841959 
" clip-path="url(#pbcc053f315)" style="fill: none; stroke: #000000; stroke-linejoin: miter"/>
   </g>
  </g>
  <g id="axes_60">
   <g id="patch_50">
    <path d="M 967.896408 36.371229 
Q 966.824575 35.1769 963.302836 35.1769 
Q 961.955388 35.1769 961.266352 35.222836 
Q 960.577316 35.268771 959.689225 35.483138 
Q 958.801134 35.697505 958.372401 36.14155 
Q 957.943667 36.585595 957.637429 37.412439 
Q 957.331191 38.239282 957.331191 39.494858 
Q 957.331191 41.332287 958.586767 42.434745 
Q 959.842344 43.537202 961.557278 43.537202 
Q 963.915312 43.537202 966.365217 38.392401 
Q 967.559546 35.850624 967.559546 35.82 
Q 967.865784 35.605633 967.896408 36.371229 
Q 967.896408 37.320567 968.263894 39.847032 
Q 968.63138 42.373497 968.63138 43.537202 
M 970.468809 44.731531 
" clip-path="url(#paf16f3d4af)" style="fill: none; stroke: #000000; stroke-linejoin: miter"/>
   </g>
  </g>
  <g id="axes_61">
   <g id="patch_51">
    <path d="M 973.716102 36.437797 
L 974.951695 44.778051 
Q 975.054661 45.567458 975.054661 45.60178 
Q 975.054661 45.704746 975.363559 45.704746 
Q 976.22161 45.704746 976.942373 44.778051 
Q 977.663136 43.851356 978.075 42.718729 
Q 978.486864 41.586102 979.001695 40.659407 
Q 979.516525 39.732712 979.997034 39.732712 
Q 980.614831 39.732712 981.249788 40.607924 
Q 981.884746 41.483136 982.348093 42.512797 
Q 982.811441 43.542458 983.48072 44.417669 
Q 984.15 45.292881 984.836441 45.292881 
Q 985.111017 43.782712 985.540042 39.69839 
Q 985.969068 35.614068 986.483898 33.554746 
" clip-path="url(#p523a5f07b7)" style="fill: none; stroke: #000000; stroke-linejoin: miter"/>
   </g>
  </g>
  <g id="axes_62"/>
  <g id="axes_63">
   <g id="patch_52">
    <path d="M 1015.7616 35.032717 
Q 1014.71189 34.582841 1013.737159 34.69531 
Q 1010.700497 35.032717 1008.788524 36.701007 
Q 1006.876552 38.369297 1006.876552 41.330979 
Q 1006.876552 43.917766 1008.882248 45.6048 
Q 1010.887945 47.291834 1013.512221 47.291834 
Q 1015.874069 47.291834 1016.998759 45.361117 
Q 1018.123448 43.4304 1018.123448 40.881103 
Q 1018.123448 39.643945 1017.711062 38.706703 
Q 1017.298676 37.769462 1016.773821 37.300841 
Q 1016.248966 36.832221 1015.499172 36.119917 
Q 1014.749379 35.407614 1014.299503 34.69531 
L 1013.062345 34.245434 
" clip-path="url(#p51e3f40b59)" style="fill: none; stroke: #000000; stroke-linejoin: miter"/>
   </g>
  </g>
  <g id="axes_64">
   <g id="patch_53">
    <path d="M 1022.384141 38.85304 
L 1022.812335 38.85304 
Q 1023.63304 38.85304 1024.596476 38.745991 
Q 1025.559912 38.638943 1026.719604 38.460529 
Q 1027.879295 38.282115 1028.485903 38.210749 
L 1035.015859 35.427489 
M 1034.694714 25.793128 
Q 1034.409251 25.721762 1033.374449 25.275727 
Q 1032.339648 24.829692 1031.697357 24.93674 
Q 1031.055066 24.93674 1030.537665 25.150837 
Q 1030.020264 25.364934 1029.681278 25.793128 
Q 1029.342291 26.221322 1029.07467 26.685198 
Q 1028.807048 27.149075 1028.664317 27.862731 
Q 1028.521586 28.576388 1028.414537 29.129471 
Q 1028.307489 29.682555 1028.289648 30.50326 
Q 1028.271806 31.323965 1028.253965 31.77 
Q 1028.236123 32.216035 1028.253965 32.965374 
Q 1028.271806 33.714714 1028.271806 33.928811 
Q 1028.271806 36.605022 1028.967621 41.850396 
Q 1029.663436 47.095771 1029.663436 49.771982 
Q 1029.59207 50.057445 1029.556388 50.681894 
Q 1029.520705 51.306344 1029.413656 51.805903 
Q 1029.306608 52.305463 1029.021145 52.555242 
" clip-path="url(#p6c6c1c32e7)" style="fill: none; stroke: #000000; stroke-linejoin: miter"/>
   </g>
  </g>
  <g id="axes_65"/>
  <g id="axes_66">
   <g id="patch_54">
    <path d="M 1056.263834 37.95691 
L 1056.938648 37.95691 
Q 1057.650952 37.95691 1058.438234 37.881931 
Q 1059.225517 37.806952 1060.181503 37.675738 
Q 1061.13749 37.544524 1061.662345 37.507034 
L 1065.936166 35.82 
M 1061.887283 30.42149 
L 1061.887283 31.43371 
Q 1061.887283 33.383172 1061.212469 37.207117 
Q 1060.537655 41.031062 1060.537655 43.018014 
Q 1060.537655 43.805297 1060.537655 44.105214 
Q 1060.537655 44.405131 1060.631379 45.042455 
Q 1060.725103 45.679779 1060.912552 45.960952 
Q 1061.1 46.242124 1061.493641 46.485807 
Q 1061.887283 46.72949 1062.449628 46.72949 
Q 1062.562097 46.692 1062.880759 46.72949 
Q 1063.199421 46.766979 1063.386869 46.710745 
Q 1063.574317 46.65451 1063.574317 46.392083 
" clip-path="url(#p981836ffe7)" style="fill: none; stroke: #000000; stroke-linejoin: miter"/>
   </g>
  </g>
  <g id="axes_67">
   <g id="patch_55">
    <path d="M 1073.813462 35.932469 
Q 1074.413297 35.257655 1075.406772 34.826524 
Q 1076.400248 34.395393 1077.3 34.470372 
Q 1077.937324 34.470372 1078.42469 34.639076 
Q 1078.912055 34.807779 1079.230717 34.995228 
Q 1079.549379 35.182676 1079.774317 35.670041 
Q 1079.999255 36.157407 1080.111724 36.419834 
Q 1080.224193 36.682262 1080.280428 37.375821 
Q 1080.336662 38.069379 1080.355407 38.331807 
Q 1080.374152 38.594234 1080.355407 39.419007 
Q 1080.336662 40.243779 1080.336662 40.431228 
Q 1080.336662 41.368469 1080.167959 43.242952 
Q 1079.999255 45.117434 1079.999255 46.054676 
Q 1079.999255 46.467062 1080.05549 46.823214 
Q 1080.111724 47.179366 1080.205448 47.610497 
Q 1080.299172 48.041628 1080.336662 48.304055 
L 1080.786538 48.528993 
M 1074.263338 23.111007 
Q 1074.488276 24.798041 1074.488276 29.971614 
L 1074.488276 42.3432 
L 1074.150869 46.841959 
L 1073.925931 47.74171 
" clip-path="url(#p28146c24c1)" style="fill: none; stroke: #000000; stroke-linejoin: miter"/>
   </g>
  </g>
  <g id="axes_68">
   <g id="patch_56">
    <path d="M 1087.257798 38.160826 
Q 1090.230275 39.535596 1094.949083 39.721376 
Q 1096.472477 39.721376 1097.159862 38.550963 
Q 1097.847248 37.38055 1097.847248 35.82 
Q 1097.847248 35.299817 1097.754358 34.909679 
Q 1097.661468 34.519541 1097.419954 34.296606 
Q 1097.17844 34.07367 1097.011239 33.943624 
Q 1096.844037 33.813578 1096.398165 33.757844 
Q 1095.952294 33.70211 1095.747936 33.683532 
Q 1095.543578 33.664954 1094.967661 33.683532 
Q 1094.391743 33.70211 1094.168807 33.70211 
Q 1092.125229 33.70211 1090.638991 35.578486 
Q 1089.152752 37.454862 1089.152752 39.609908 
Q 1089.152752 42.619541 1091.084862 44.570229 
Q 1093.016972 46.520917 1096.063761 46.520917 
Q 1098.218807 46.818165 1099.742202 44.29156 
" clip-path="url(#p3d658f0e81)" style="fill: none; stroke: #000000; stroke-linejoin: miter"/>
   </g>
  </g>
  <g id="axes_69"/>
  <g id="axes_70">
   <g id="patch_57">
    <path d="M 1121.288772 35.145186 
Q 1121.288772 35.145186 1121.288772 35.595062 
Q 1121.288772 36.269876 1121.176303 37.619503 
Q 1121.063834 38.969131 1121.063834 39.643945 
Q 1121.063834 41.930814 1122.300993 43.599103 
Q 1123.538152 45.267393 1125.675062 45.267393 
Q 1127.062179 45.154924 1127.830717 43.917766 
Q 1128.599255 42.680607 1128.749214 41.237255 
Q 1128.899172 39.793903 1129.1616 37.9944 
Q 1129.424028 36.194897 1129.836414 35.370124 
Q 1129.986372 35.070207 1129.986372 35.670041 
Q 1129.986372 36.269876 1129.723945 38.706703 
Q 1129.499007 41.031062 1129.499007 41.555917 
Q 1129.349048 42.643117 1129.686455 43.767807 
Q 1130.023862 44.892497 1130.736166 45.6048 
" clip-path="url(#p632d331d1f)" style="fill: none; stroke: #000000; stroke-linejoin: miter"/>
   </g>
  </g>
  <g id="axes_71">
   <g id="patch_58">
    <path d="M 1137.263834 32.783338 
L 1137.263834 33.345683 
Q 1138.126097 39.718924 1138.163586 47.066897 
Q 1138.163586 47.81669 1138.088607 47.029407 
Q 1137.638731 42.080772 1137.488772 35.82 
L 1137.488772 35.145186 
Q 1137.488772 33.6456 1139.082083 33.008276 
Q 1140.675393 32.370952 1142.1 32.783338 
Q 1143.637076 33.233214 1144.611807 34.414138 
Q 1145.586538 35.595062 1145.961434 37.282097 
Q 1146.336331 38.969131 1146.467545 40.543697 
Q 1146.598759 42.118262 1146.673738 44.067724 
Q 1146.748717 46.017186 1146.936166 47.066897 
" clip-path="url(#p4ed2d4d723)" style="fill: none; stroke: #000000; stroke-linejoin: miter"/>
   </g>
  </g>
  <g id="axes_72">
   <g id="patch_59">
    <path d="M 1158.918579 29.071862 
Q 1158.543683 29.146841 1158.412469 29.577972 
Q 1158.281255 30.009103 1158.356234 30.42149 
Q 1158.356234 30.571448 1158.393724 30.702662 
Q 1158.431214 30.833876 1158.487448 30.89011 
Q 1158.543683 30.946345 1158.599917 31.040069 
Q 1158.656152 31.133793 1158.693641 31.208772 
L 1158.80611 29.859145 
M 1158.80611 34.020497 
Q 1157.906359 39.006621 1157.681421 42.793076 
L 1158.131297 45.379862 
L 1158.468703 46.054676 
" clip-path="url(#pd215c79b65)" style="fill: none; stroke: #000000; stroke-linejoin: miter"/>
   </g>
  </g>
  <g id="axes_73">
   <g id="patch_60">
    <path d="M 1170.226179 34.807779 
Q 1171.838234 36.719752 1173.131628 39.6252 
Q 1174.425021 42.530648 1174.724938 45.154924 
Q 1175.774648 43.655338 1176.693145 38.819172 
Q 1177.611641 33.983007 1178.773821 32.108524 
" clip-path="url(#pfb0f6d3b50)" style="fill: none; stroke: #000000; stroke-linejoin: miter"/>
   </g>
  </g>
  <g id="axes_74">
   <g id="patch_61">
    <path d="M 1184.457798 38.160826 
Q 1187.430275 39.535596 1192.149083 39.721376 
Q 1193.672477 39.721376 1194.359862 38.550963 
Q 1195.047248 37.38055 1195.047248 35.82 
Q 1195.047248 35.299817 1194.954358 34.909679 
Q 1194.861468 34.519541 1194.619954 34.296606 
Q 1194.37844 34.07367 1194.211239 33.943624 
Q 1194.044037 33.813578 1193.598165 33.757844 
Q 1193.152294 33.70211 1192.947936 33.683532 
Q 1192.743578 33.664954 1192.167661 33.683532 
Q 1191.591743 33.70211 1191.368807 33.70211 
Q 1189.325229 33.70211 1187.838991 35.578486 
Q 1186.352752 37.454862 1186.352752 39.609908 
Q 1186.352752 42.619541 1188.284862 44.570229 
Q 1190.216972 46.520917 1193.263761 46.520917 
Q 1195.418807 46.818165 1196.942202 44.29156 
" clip-path="url(#pae6951c8d4)" style="fill: none; stroke: #000000; stroke-linejoin: miter"/>
   </g>
  </g>
  <g id="axes_75">
   <g id="patch_62">
    <path d="M 1203.413462 32.783338 
Q 1203.938317 34.507862 1204.069531 36.457324 
Q 1204.200745 38.406786 1204.125766 40.956083 
Q 1204.050786 43.505379 1204.088276 44.705048 
L 1204.200745 46.054676 
L 1204.200745 45.829738 
Q 1204.200745 44.667559 1203.919572 42.30571 
Q 1203.6384 39.943862 1203.6384 38.744193 
Q 1203.6384 36.419834 1204.650621 34.882759 
Q 1205.662841 33.345683 1207.687283 33.345683 
Q 1208.399586 33.345683 1208.736993 33.626855 
Q 1209.0744 33.908028 1209.336828 34.432883 
Q 1209.599255 34.957738 1209.936662 35.257655 
L 1210.386538 36.832221 
" clip-path="url(#p4541bc52ad)" style="fill: none; stroke: #000000; stroke-linejoin: miter"/>
   </g>
  </g>
  <g id="axes_76">
   <g id="patch_63">
    <path d="M 1218.657476 43.917766 
Q 1218.957393 44.180193 1219.969614 45.154924 
Q 1220.981834 46.129655 1221.544179 46.560786 
Q 1222.106524 46.991917 1223.13749 47.385559 
Q 1224.168455 47.7792 1225.180676 47.629241 
Q 1225.85549 47.629241 1226.32411 47.404303 
Q 1226.792731 47.179366 1227.017669 46.879448 
Q 1227.242607 46.579531 1227.373821 45.979697 
Q 1227.505034 45.379862 1227.523779 44.967476 
Q 1227.542524 44.55509 1227.542524 43.805297 
Q 1227.542524 42.718097 1226.642772 42.043283 
Q 1225.743021 41.368469 1224.449628 41.031062 
Q 1223.156234 40.693655 1221.862841 40.300014 
Q 1220.569448 39.906372 1219.669697 38.987876 
Q 1218.769945 38.069379 1218.769945 36.607283 
Q 1218.769945 36.082428 1218.938648 35.726276 
Q 1219.107352 35.370124 1219.500993 35.145186 
Q 1219.894634 34.920248 1220.175807 34.807779 
Q 1220.456979 34.69531 1221.113048 34.639076 
Q 1221.769117 34.582841 1221.956566 34.582841 
Q 1222.144014 34.582841 1222.818828 34.582841 
Q 1224.018497 34.582841 1224.599586 34.995228 
Q 1225.180676 35.407614 1225.499338 36.026193 
Q 1225.818 36.644772 1226.080428 36.832221 
" clip-path="url(#pa91fe37629)" style="fill: none; stroke: #000000; stroke-linejoin: miter"/>
   </g>
  </g>
  <g id="axes_77">
   <g id="patch_64">
    <path d="M 1233.057798 38.160826 
Q 1236.030275 39.535596 1240.749083 39.721376 
Q 1242.272477 39.721376 1242.959862 38.550963 
Q 1243.647248 37.38055 1243.647248 35.82 
Q 1243.647248 35.299817 1243.554358 34.909679 
Q 1243.461468 34.519541 1243.219954 34.296606 
Q 1242.97844 34.07367 1242.811239 33.943624 
Q 1242.644037 33.813578 1242.198165 33.757844 
Q 1241.752294 33.70211 1241.547936 33.683532 
Q 1241.343578 33.664954 1240.767661 33.683532 
Q 1240.191743 33.70211 1239.968807 33.70211 
Q 1237.925229 33.70211 1236.438991 35.578486 
Q 1234.952752 37.454862 1234.952752 39.609908 
Q 1234.952752 42.619541 1236.884862 44.570229 
Q 1238.816972 46.520917 1241.863761 46.520917 
Q 1244.018807 46.818165 1245.542202 44.29156 
" clip-path="url(#pee6a3407ed)" style="fill: none; stroke: #000000; stroke-linejoin: miter"/>
   </g>
  </g>
  <g id="axes_78">
   <g id="patch_65">
    <path d="M 1255.425021 46.054676 
Q 1255.425021 46.092166 1255.350041 46.092166 
Q 1255.275062 46.129655 1255.275062 46.167145 
Q 1255.275062 46.392083 1255.5 46.392083 
Q 1255.687448 46.392083 1255.687448 46.129655 
Q 1255.724938 46.017186 1255.574979 45.942207 
Q 1255.425021 45.867228 1255.312552 45.942207 
" clip-path="url(#pb4396c846e)" style="fill: none; stroke: #000000; stroke-linejoin: miter"/>
   </g>
  </g>
 </g>
 <defs>
  <clipPath id="pcfe01ec8cb">
   <rect x="0" y="10.936525" width="16.2" height="49.766949"/>
  </clipPath>
  <clipPath id="p517b763875">
   <rect x="18.938979" y="8.64" width="10.722041" height="54.36"/>
  </clipPath>
  <clipPath id="p3232140783">
   <rect x="38.006938" y="8.64" width="4.986124" height="54.36"/>
  </clipPath>
  <clipPath id="p5e47a15c72">
   <rect x="54.431876" y="8.64" width="4.536248" height="54.36"/>
  </clipPath>
  <clipPath id="p997bdbc48c">
   <rect x="64.8" y="8.881927" width="16.2" height="53.876147"/>
  </clipPath>
  <clipPath id="p777fdae288">
   <rect x="97.802069" y="8.64" width="14.995862" height="54.36"/>
  </clipPath>
  <clipPath id="p6f8db01d72">
   <rect x="114.789352" y="8.64" width="13.421297" height="54.36"/>
  </clipPath>
  <clipPath id="p7e540040bd">
   <rect x="132.338979" y="8.64" width="10.722041" height="54.36"/>
  </clipPath>
  <clipPath id="p28cbc0a47d">
   <rect x="145.8" y="8.881927" width="16.2" height="53.876147"/>
  </clipPath>
  <clipPath id="p0385b1f104">
   <rect x="164.738979" y="8.64" width="10.722041" height="54.36"/>
  </clipPath>
  <clipPath id="p9d620e7d2c">
   <rect x="179.982993" y="8.64" width="12.634014" height="54.36"/>
  </clipPath>
  <clipPath id="p7406fa5eb2">
   <rect x="212.158055" y="8.64" width="13.08389" height="54.36"/>
  </clipPath>
  <clipPath id="paa27c5c2b6">
   <rect x="226.8" y="8.881927" width="16.2" height="53.876147"/>
  </clipPath>
  <clipPath id="p5cdf0c624f">
   <rect x="248.831876" y="8.64" width="4.536248" height="54.36"/>
  </clipPath>
  <clipPath id="p98168e33e6">
   <rect x="264.806938" y="8.64" width="4.986124" height="54.36"/>
  </clipPath>
  <clipPath id="p82388d4c4d">
   <rect x="275.4" y="8.881927" width="16.2" height="53.876147"/>
  </clipPath>
  <clipPath id="pc7bf2809f9">
   <rect x="293.551697" y="8.64" width="12.296607" height="54.36"/>
  </clipPath>
  <clipPath id="p965e6dba75">
   <rect x="307.8" y="8.881927" width="16.2" height="53.876147"/>
  </clipPath>
  <clipPath id="pfb76edc313">
   <rect x="341.589352" y="8.64" width="13.421297" height="54.36"/>
  </clipPath>
  <clipPath id="p2581619137">
   <rect x="359.138979" y="8.64" width="10.722041" height="54.36"/>
  </clipPath>
  <clipPath id="p4597ec70d9">
   <rect x="372.6" y="13.617732" width="16.2" height="44.404537"/>
  </clipPath>
  <clipPath id="p4af82fdcb4">
   <rect x="390.189352" y="8.64" width="13.421297" height="54.36"/>
  </clipPath>
  <clipPath id="p7cf0657f0c">
   <rect x="421.2" y="13.617732" width="16.2" height="44.404537"/>
  </clipPath>
  <clipPath id="p04307002e2">
   <rect x="454.483241" y="8.64" width="14.433517" height="54.36"/>
  </clipPath>
  <clipPath id="p3eb85d9d2b">
   <rect x="469.8" y="8.881927" width="16.2" height="53.876147"/>
  </clipPath>
  <clipPath id="p43b557e33d">
   <rect x="488.738979" y="8.64" width="10.722041" height="54.36"/>
  </clipPath>
  <clipPath id="pcb213cfc86">
   <rect x="503.982993" y="8.64" width="12.634014" height="54.36"/>
  </clipPath>
  <clipPath id="p929bfd2032">
   <rect x="519.002069" y="8.64" width="14.995862" height="54.36"/>
  </clipPath>
  <clipPath id="p7fb195fb3d">
   <rect x="535.989352" y="8.64" width="13.421297" height="54.36"/>
  </clipPath>
  <clipPath id="p0ffbfd19ab">
   <rect x="567" y="8.881927" width="16.2" height="53.876147"/>
  </clipPath>
  <clipPath id="p32fbc30998">
   <rect x="584.251945" y="8.64" width="14.09611" height="54.36"/>
  </clipPath>
  <clipPath id="pb4b556f9f2">
   <rect x="605.006938" y="8.64" width="4.986124" height="54.36"/>
  </clipPath>
  <clipPath id="p1eb3c5e6d8">
   <rect x="617.382993" y="8.64" width="12.634014" height="54.36"/>
  </clipPath>
  <clipPath id="p70909748f8">
   <rect x="633.189352" y="8.64" width="13.421297" height="54.36"/>
  </clipPath>
  <clipPath id="pfa82ecd7a1">
   <rect x="649.782993" y="8.64" width="12.634014" height="54.36"/>
  </clipPath>
  <clipPath id="pf8bb10bd30">
   <rect x="681.958055" y="8.64" width="13.08389" height="54.36"/>
  </clipPath>
  <clipPath id="pe8324b2d8a">
   <rect x="696.6" y="8.881927" width="16.2" height="53.876147"/>
  </clipPath>
  <clipPath id="p0ac378e7d3">
   <rect x="712.8" y="11.850612" width="16.2" height="47.938776"/>
  </clipPath>
  <clipPath id="p6e6e4135f0">
   <rect x="729" y="13.617732" width="16.2" height="44.404537"/>
  </clipPath>
  <clipPath id="p7a067edccc">
   <rect x="746.589352" y="8.64" width="13.421297" height="54.36"/>
  </clipPath>
  <clipPath id="p29290bda82">
   <rect x="763.182993" y="8.64" width="12.634014" height="54.36"/>
  </clipPath>
  <clipPath id="pa05a18efbb">
   <rect x="777.6" y="8.881927" width="16.2" height="53.876147"/>
  </clipPath>
  <clipPath id="p2b5ab2299f">
   <rect x="815.606938" y="8.64" width="4.986124" height="54.36"/>
  </clipPath>
  <clipPath id="pfae51dcf3a">
   <rect x="827.589352" y="8.64" width="13.421297" height="54.36"/>
  </clipPath>
  <clipPath id="pa618e7ded0">
   <rect x="864.206938" y="8.64" width="4.986124" height="54.36"/>
  </clipPath>
  <clipPath id="p682bc5aaa1">
   <rect x="876.582993" y="8.64" width="12.634014" height="54.36"/>
  </clipPath>
  <clipPath id="pbd8041dafa">
   <rect x="907.2" y="13.617732" width="16.2" height="44.404537"/>
  </clipPath>
  <clipPath id="pbcc053f315">
   <rect x="945.431876" y="8.64" width="4.536248" height="54.36"/>
  </clipPath>
  <clipPath id="paf16f3d4af">
   <rect x="955.8" y="13.617732" width="16.2" height="44.404537"/>
  </clipPath>
  <clipPath id="p523a5f07b7">
   <rect x="972" y="10.936525" width="16.2" height="49.766949"/>
  </clipPath>
  <clipPath id="p51e3f40b59">
   <rect x="1005.002069" y="8.64" width="14.995862" height="54.36"/>
  </clipPath>
  <clipPath id="p6c6c1c32e7">
   <rect x="1020.6" y="9.949956" width="16.2" height="51.740088"/>
  </clipPath>
  <clipPath id="p981836ffe7">
   <rect x="1054.389352" y="8.64" width="13.421297" height="54.36"/>
  </clipPath>
  <clipPath id="p28146c24c1">
   <rect x="1071.938979" y="8.64" width="10.722041" height="54.36"/>
  </clipPath>
  <clipPath id="p3d658f0e81">
   <rect x="1085.4" y="8.881927" width="16.2" height="53.876147"/>
  </clipPath>
  <clipPath id="p632d331d1f">
   <rect x="1119.189352" y="8.64" width="13.421297" height="54.36"/>
  </clipPath>
  <clipPath id="p4ed2d4d723">
   <rect x="1135.389352" y="8.64" width="13.421297" height="54.36"/>
  </clipPath>
  <clipPath id="pd215c79b65">
   <rect x="1155.806938" y="8.64" width="4.986124" height="54.36"/>
  </clipPath>
  <clipPath id="pfb0f6d3b50">
   <rect x="1168.351697" y="8.64" width="12.296607" height="54.36"/>
  </clipPath>
  <clipPath id="pae6951c8d4">
   <rect x="1182.6" y="8.881927" width="16.2" height="53.876147"/>
  </clipPath>
  <clipPath id="p4541bc52ad">
   <rect x="1201.538979" y="8.64" width="10.722041" height="54.36"/>
  </clipPath>
  <clipPath id="pa91fe37629">
   <rect x="1216.782993" y="8.64" width="12.634014" height="54.36"/>
  </clipPath>
  <clipPath id="pee6a3407ed">
   <rect x="1231.2" y="8.881927" width="16.2" height="53.876147"/>
  </clipPath>
  <clipPath id="pb4396c846e">
   <rect x="1253.400579" y="8.64" width="4.198841" height="54.36"/>
  </clipPath>
 </defs>
</svg>
