<?xml version="1.0" encoding="utf-8" standalone="no"?>
<!DOCTYPE svg PUBLIC "-//W3C//DTD SVG 1.1//EN"
  "http://www.w3.org/Graphics/SVG/1.1/DTD/svg11.dtd">
<svg xmlns:xlink="http://www.w3.org/1999/xlink" width="162pt" height="72pt" viewBox="0 0 162 72" xmlns="http://www.w3.org/2000/svg" version="1.1">
 <metadata>
  <rdf:RDF xmlns:dc="http://purl.org/dc/elements/1.1/" xmlns:cc="http://creativecommons.org/ns#" xmlns:rdf="http://www.w3.org/1999/02/22-rdf-syntax-ns#">
   <cc:Work>
    <dc:type rdf:resource="http://purl.org/dc/dcmitype/StillImage"/>
    <dc:date>2023-01-02T13:25:31.697961</dc:date>
    <dc:format>image/svg+xml</dc:format>
    <dc:creator>
     <cc:Agent>
      <dc:title>Matplotlib v3.6.1, https://matplotlib.org/</dc:title>
     </cc:Agent>
    </dc:creator>
   </cc:Work>
  </rdf:RDF>
 </metadata>
 <defs>
  <style type="text/css">*{stroke-linejoin: round; stroke-linecap: butt}</style>
 </defs>
 <g id="figure_1">
  <g id="patch_1">
   <path d="M 0 72 
L 162 72 
L 162 0 
L 0 0 
L 0 72 
z
" style="fill: none"/>
  </g>
  <g id="axes_1">
   <g id="patch_2">
    <path d="M 7.537655 40.656166 
Q 7.650124 40.806124 8.006276 41.031062 
Q 8.362428 41.256 8.512386 41.499683 
Q 8.662345 41.743366 8.549876 42.118262 
Q 8.587366 42.3432 8.568621 42.624372 
Q 8.549876 42.905545 8.512386 43.149228 
Q 8.474897 43.39291 8.287448 43.542869 
Q 8.1 43.692828 7.762593 43.692828 
" clip-path="url(#p56ff371e83)" style="fill: none; stroke: #000000; stroke-linejoin: miter"/>
   </g>
  </g>
  <g id="axes_2"/>
  <g id="axes_3">
   <g id="patch_3">
    <path d="M 34.448638 33.897432 
L 34.637743 33.897432 
Q 35.520233 33.897432 37.285214 33.802879 
Q 39.050195 33.708327 39.932685 33.708327 
Q 41.477043 33.708327 42.674708 33.944708 
Q 43.872374 34.181089 44.896693 34.764163 
Q 45.921012 35.347237 46.472568 36.466109 
Q 47.024125 37.584981 47.024125 39.192374 
Q 47.024125 44.67642 36.907004 44.67642 
Q 36.875486 44.67642 35.015953 44.392763 
L 34.448638 44.109105 
M 34.448638 25.671362 
Q 36.087549 24.788872 38.041634 24.820389 
Q 40.310895 24.820389 42.343774 26.144125 
Q 44.376654 27.46786 44.376654 29.642568 
Q 44.376654 30.934786 43.825097 31.691206 
Q 43.273541 32.447626 42.548638 32.636732 
Q 41.823735 32.825837 40.830934 33.172529 
Q 39.838132 33.519222 39.270817 33.991984 
L 34.448638 33.897432 
M 33.975875 25.765914 
Q 34.196498 27.058132 34.133463 30.603852 
Q 34.070428 34.149572 34.637743 35.410272 
Q 34.637743 36.418833 34.590467 38.467471 
Q 34.543191 40.516109 34.543191 41.556187 
L 34.543191 43.352685 
L 34.354086 44.109105 
" clip-path="url(#pefc5c44d03)" style="fill: none; stroke: #000000; stroke-linejoin: miter"/>
   </g>
  </g>
  <g id="axes_4">
   <g id="patch_4">
    <path d="M 51.638897 27.609766 
Q 52.163752 27.872193 52.557393 28.734455 
Q 52.951034 29.596717 53.40091 30.234041 
Q 53.850786 30.871366 54.675559 30.758897 
Q 55.762759 30.983834 56.550041 30.458979 
Q 57.337324 29.934124 57.693476 29.165586 
Q 58.049628 28.397048 58.518248 27.309848 
Q 58.986869 26.222648 59.399255 25.697793 
M 59.9616 35.032717 
L 59.624193 35.032717 
Q 59.099338 35.032717 57.974648 34.751545 
Q 56.849959 34.470372 56.250124 34.470372 
Q 54.338152 34.470372 52.876055 35.613807 
Q 51.413959 36.757241 51.413959 38.519255 
Q 51.413959 40.093821 53.026014 41.555917 
Q 54.638069 43.018014 56.250124 43.018014 
Q 58.124607 43.018014 59.324276 40.449972 
Q 60.523945 37.881931 60.523945 35.595062 
L 60.411476 35.257655 
L 60.411476 35.595062 
L 60.411476 36.719752 
Q 60.411476 37.544524 60.805117 39.306538 
Q 61.198759 41.068552 61.611145 42.455669 
L 61.986041 43.805297 
" clip-path="url(#pde172549b7)" style="fill: none; stroke: #000000; stroke-linejoin: miter"/>
   </g>
  </g>
  <g id="axes_5">
   <g id="patch_5">
    <path d="M 76.1616 35.032717 
Q 75.11189 34.582841 74.137159 34.69531 
Q 71.100497 35.032717 69.188524 36.701007 
Q 67.276552 38.369297 67.276552 41.330979 
Q 67.276552 43.917766 69.282248 45.6048 
Q 71.287945 47.291834 73.912221 47.291834 
Q 76.274069 47.291834 77.398759 45.361117 
Q 78.523448 43.4304 78.523448 40.881103 
Q 78.523448 39.643945 78.111062 38.706703 
Q 77.698676 37.769462 77.173821 37.300841 
Q 76.648966 36.832221 75.899172 36.119917 
Q 75.149379 35.407614 74.699503 34.69531 
L 73.462345 34.245434 
" clip-path="url(#pca93f0531c)" style="fill: none; stroke: #000000; stroke-linejoin: miter"/>
   </g>
  </g>
  <g id="axes_6">
   <g id="patch_6">
    <path d="M 85.613462 35.932469 
Q 86.213297 35.257655 87.206772 34.826524 
Q 88.200248 34.395393 89.1 34.470372 
Q 89.737324 34.470372 90.22469 34.639076 
Q 90.712055 34.807779 91.030717 34.995228 
Q 91.349379 35.182676 91.574317 35.670041 
Q 91.799255 36.157407 91.911724 36.419834 
Q 92.024193 36.682262 92.080428 37.375821 
Q 92.136662 38.069379 92.155407 38.331807 
Q 92.174152 38.594234 92.155407 39.419007 
Q 92.136662 40.243779 92.136662 40.431228 
Q 92.136662 41.368469 91.967959 43.242952 
Q 91.799255 45.117434 91.799255 46.054676 
Q 91.799255 46.467062 91.85549 46.823214 
Q 91.911724 47.179366 92.005448 47.610497 
Q 92.099172 48.041628 92.136662 48.304055 
L 92.586538 48.528993 
M 86.063338 23.111007 
Q 86.288276 24.798041 86.288276 29.971614 
L 86.288276 42.3432 
L 85.950869 46.841959 
L 85.725931 47.74171 
" clip-path="url(#p9f48dc55ff)" style="fill: none; stroke: #000000; stroke-linejoin: miter"/>
   </g>
  </g>
  <g id="axes_7">
   <g id="patch_7">
    <path d="M 100.688772 35.145186 
Q 100.688772 35.145186 100.688772 35.595062 
Q 100.688772 36.269876 100.576303 37.619503 
Q 100.463834 38.969131 100.463834 39.643945 
Q 100.463834 41.930814 101.700993 43.599103 
Q 102.938152 45.267393 105.075062 45.267393 
Q 106.462179 45.154924 107.230717 43.917766 
Q 107.999255 42.680607 108.149214 41.237255 
Q 108.299172 39.793903 108.5616 37.9944 
Q 108.824028 36.194897 109.236414 35.370124 
Q 109.386372 35.070207 109.386372 35.670041 
Q 109.386372 36.269876 109.123945 38.706703 
Q 108.899007 41.031062 108.899007 41.555917 
Q 108.749048 42.643117 109.086455 43.767807 
Q 109.423862 44.892497 110.136166 45.6048 
" clip-path="url(#p9de61ec391)" style="fill: none; stroke: #000000; stroke-linejoin: miter"/>
   </g>
  </g>
  <g id="axes_8">
   <g id="patch_8">
    <path d="M 118.519572 31.546179 
L 118.519572 31.321241 
Q 118.519572 31.133793 118.575807 31.040069 
Q 118.632041 30.946345 118.707021 30.89011 
Q 118.782 30.833876 118.931959 30.740152 
Q 119.081917 30.646428 119.194386 30.533959 
L 123.355738 25.810262 
M 125.26771 35.370124 
L 122.118579 35.370124 
Q 122.00611 35.407614 121.743683 35.482593 
Q 118.519572 36.419834 117.619821 37.132138 
Q 116.082745 38.481766 116.045255 41.893324 
Q 116.045255 43.018014 116.907517 43.917766 
Q 117.769779 44.817517 118.856979 44.817517 
Q 119.719241 44.705048 120.506524 44.236428 
Q 121.293807 43.767807 121.799917 43.224207 
Q 122.306028 42.680607 122.849628 41.687131 
Q 123.393228 40.693655 123.6744 40.075076 
Q 123.955572 39.456497 124.405448 38.294317 
Q 124.855324 37.132138 125.042772 36.719752 
Q 125.380179 35.894979 125.492648 35.951214 
Q 125.605117 36.007448 125.492648 37.207117 
L 125.380179 38.744193 
Q 125.380179 38.781683 125.717586 42.455669 
L 126.954745 44.817517 
" clip-path="url(#p637fa0a047)" style="fill: none; stroke: #000000; stroke-linejoin: miter"/>
   </g>
  </g>
  <g id="axes_9">
   <g id="patch_9">
    <path d="M 137.568786 38.969131 
Q 137.531297 38.969131 137.531297 39.11909 
Q 137.531297 39.344028 137.943683 39.344028 
Q 138.018662 39.344028 138.018662 39.006621 
L 138.018662 38.819172 
L 137.531297 38.706703 
M 137.681255 34.807779 
L 137.606276 34.807779 
Q 137.418828 34.807779 137.418828 35.295145 
Q 137.418828 35.295145 137.418828 35.332634 
Q 137.418828 35.482593 137.456317 35.520083 
Q 137.493807 35.557572 137.681255 35.557572 
Q 137.906193 35.557572 137.906193 35.070207 
Q 137.756234 34.245434 137.381338 34.132966 
" clip-path="url(#p9f278f1881)" style="fill: none; stroke: #000000; stroke-linejoin: miter"/>
   </g>
  </g>
 </g>
 <defs>
  <clipPath id="p56ff371e83">
   <rect x="5.663172" y="8.64" width="4.873655" height="54.36"/>
  </clipPath>
  <clipPath id="pefc5c44d03">
   <rect x="32.4" y="12.969805" width="16.2" height="45.700389"/>
  </clipPath>
  <clipPath id="pde172549b7">
   <rect x="49.539476" y="8.64" width="14.321048" height="54.36"/>
  </clipPath>
  <clipPath id="pca93f0531c">
   <rect x="65.402069" y="8.64" width="14.995862" height="54.36"/>
  </clipPath>
  <clipPath id="p9f48dc55ff">
   <rect x="83.738979" y="8.64" width="10.722041" height="54.36"/>
  </clipPath>
  <clipPath id="p9de61ec391">
   <rect x="98.589352" y="8.64" width="13.421297" height="54.36"/>
  </clipPath>
  <clipPath id="p637fa0a047">
   <rect x="114.170772" y="8.64" width="14.658455" height="54.36"/>
  </clipPath>
  <clipPath id="p9f278f1881">
   <rect x="135.506855" y="8.64" width="4.38629" height="54.36"/>
  </clipPath>
 </defs>
</svg>
