<?xml version="1.0" encoding="utf-8" standalone="no"?>
<!DOCTYPE svg PUBLIC "-//W3C//DTD SVG 1.1//EN"
  "http://www.w3.org/Graphics/SVG/1.1/DTD/svg11.dtd">
<svg xmlns:xlink="http://www.w3.org/1999/xlink" width="720pt" height="72pt" viewBox="0 0 720 72" xmlns="http://www.w3.org/2000/svg" version="1.1">
 <metadata>
  <rdf:RDF xmlns:dc="http://purl.org/dc/elements/1.1/" xmlns:cc="http://creativecommons.org/ns#" xmlns:rdf="http://www.w3.org/1999/02/22-rdf-syntax-ns#">
   <cc:Work>
    <dc:type rdf:resource="http://purl.org/dc/dcmitype/StillImage"/>
    <dc:date>2023-01-02T13:25:35.997149</dc:date>
    <dc:format>image/svg+xml</dc:format>
    <dc:creator>
     <cc:Agent>
      <dc:title>Matplotlib v3.6.1, https://matplotlib.org/</dc:title>
     </cc:Agent>
    </dc:creator>
   </cc:Work>
  </rdf:RDF>
 </metadata>
 <defs>
  <style type="text/css">*{stroke-linejoin: round; stroke-linecap: butt}</style>
 </defs>
 <g id="figure_1">
  <g id="patch_1">
   <path d="M 0 72 
L 720 72 
L 720 0 
L 0 0 
L 0 72 
z
" style="fill: none"/>
  </g>
  <g id="axes_1">
   <g id="patch_2">
    <path d="M 1.539924 40.439772 
Q 6.436882 46.999848 11.980608 46.168289 
Q 13.304943 46.168289 13.98251 45.382928 
Q 14.660076 44.597567 14.660076 43.30403 
Q 14.660076 41.979696 14.028707 40.947947 
Q 13.397338 39.916198 12.396388 39.238631 
Q 11.395437 38.561065 10.194297 37.975894 
Q 8.993156 37.390722 7.776616 36.820951 
Q 6.560076 36.251179 5.559125 35.589011 
Q 4.558175 34.926844 3.926806 33.895095 
Q 3.295437 32.863346 3.295437 31.56981 
Q 3.295437 29.906692 5.774715 28.382167 
Q 8.253992 26.857643 10.040304 26.857643 
Q 11.118251 26.796046 11.672624 27.627605 
Q 12.226996 28.459163 12.211597 29.490913 
Q 12.196198 30.522662 12.165399 31.385019 
" clip-path="url(#pd02bb1db91)" style="fill: none; stroke: #000000; stroke-linejoin: miter"/>
   </g>
  </g>
  <g id="axes_2">
   <g id="patch_3">
    <path d="M 20.813462 35.932469 
Q 21.413297 35.257655 22.406772 34.826524 
Q 23.400248 34.395393 24.3 34.470372 
Q 24.937324 34.470372 25.42469 34.639076 
Q 25.912055 34.807779 26.230717 34.995228 
Q 26.549379 35.182676 26.774317 35.670041 
Q 26.999255 36.157407 27.111724 36.419834 
Q 27.224193 36.682262 27.280428 37.375821 
Q 27.336662 38.069379 27.355407 38.331807 
Q 27.374152 38.594234 27.355407 39.419007 
Q 27.336662 40.243779 27.336662 40.431228 
Q 27.336662 41.368469 27.167959 43.242952 
Q 26.999255 45.117434 26.999255 46.054676 
Q 26.999255 46.467062 27.05549 46.823214 
Q 27.111724 47.179366 27.205448 47.610497 
Q 27.299172 48.041628 27.336662 48.304055 
L 27.786538 48.528993 
M 21.263338 23.111007 
Q 21.488276 24.798041 21.488276 29.971614 
L 21.488276 42.3432 
L 21.150869 46.841959 
L 20.925931 47.74171 
" clip-path="url(#pb90a059222)" style="fill: none; stroke: #000000; stroke-linejoin: miter"/>
   </g>
  </g>
  <g id="axes_3">
   <g id="patch_4">
    <path d="M 38.025683 27.384828 
L 41.287283 31.658648 
M 40.949876 34.020497 
L 41.062345 38.744193 
Q 41.174814 39.269048 41.306028 40.74989 
Q 41.437241 42.230731 41.774648 43.149228 
Q 42.112055 44.067724 42.974317 44.592579 
" clip-path="url(#pef03da57ac)" style="fill: none; stroke: #000000; stroke-linejoin: miter"/>
   </g>
  </g>
  <g id="axes_4">
   <g id="patch_5">
    <path d="M 57.056152 30.309021 
Q 56.568786 30.42149 56.981172 30.833876 
Q 57.356069 31.208772 57.431048 30.946345 
Q 57.468538 30.871366 57.393559 30.646428 
Q 57.393559 30.458979 57.318579 30.42149 
Q 57.2436 30.384 57.112386 30.42149 
Q 56.981172 30.458979 56.831214 30.42149 
L 56.718745 30.646428 
M 57.618497 33.345683 
Q 58.668207 37.731972 59.193062 40.13131 
Q 59.717917 42.530648 60.167793 46.317103 
Q 60.617669 50.103559 60.430221 53.25269 
Q 60.430221 53.440138 60.430221 54.021228 
Q 60.430221 54.602317 60.430221 54.902234 
Q 60.430221 55.202152 60.411476 55.783241 
Q 60.392731 56.364331 60.317752 56.701738 
Q 60.242772 57.039145 60.130303 57.52651 
Q 60.017834 58.013876 59.811641 58.313793 
Q 59.605448 58.61371 59.343021 58.894883 
Q 59.080593 59.176055 58.705697 59.307269 
Q 58.3308 59.438483 57.843434 59.438483 
Q 56.868703 59.438483 56.11891 59.251034 
Q 55.369117 59.063586 54.506855 58.707434 
Q 53.644593 58.351283 53.007269 58.201324 
L 52.782331 57.751448 
" clip-path="url(#p5a7fbf4b59)" style="fill: none; stroke: #000000; stroke-linejoin: miter"/>
   </g>
  </g>
  <g id="axes_5">
   <g id="patch_6">
    <path d="M 73.518579 29.071862 
Q 73.143683 29.146841 73.012469 29.577972 
Q 72.881255 30.009103 72.956234 30.42149 
Q 72.956234 30.571448 72.993724 30.702662 
Q 73.031214 30.833876 73.087448 30.89011 
Q 73.143683 30.946345 73.199917 31.040069 
Q 73.256152 31.133793 73.293641 31.208772 
L 73.40611 29.859145 
M 73.40611 34.020497 
Q 72.506359 39.006621 72.281421 42.793076 
L 72.731297 45.379862 
L 73.068703 46.054676 
" clip-path="url(#paafc33503d)" style="fill: none; stroke: #000000; stroke-linejoin: miter"/>
   </g>
  </g>
  <g id="axes_6">
   <g id="patch_7">
    <path d="M 85.669697 27.047421 
Q 86.531959 27.647255 87.356731 28.547007 
Q 88.181503 29.446759 89.13749 30.646428 
Q 90.093476 31.846097 90.618331 32.445931 
M 86.007103 39.0816 
L 86.232041 39.0816 
Q 86.494469 39.04411 87.019324 39.137834 
Q 87.544179 39.231559 87.806607 39.194069 
Q 88.406441 39.11909 88.987531 39.156579 
Q 89.568621 39.194069 90.130966 39.11909 
Q 90.69331 39.04411 91.124441 38.819172 
Q 91.555572 38.594234 91.818 38.013145 
Q 92.080428 37.432055 92.080428 36.494814 
Q 91.967959 35.257655 91.049462 34.69531 
Q 90.130966 34.132966 88.931297 34.245434 
Q 87.581669 34.357903 86.681917 35.370124 
Q 85.782166 36.382345 85.782166 37.731972 
Q 85.782166 46.204634 92.530303 44.142703 
" clip-path="url(#p5cbb0e5856)" style="fill: none; stroke: #000000; stroke-linejoin: miter"/>
   </g>
  </g>
  <g id="axes_7"/>
  <g id="axes_8">
   <g id="patch_8">
    <path d="M 117.057476 43.917766 
Q 117.357393 44.180193 118.369614 45.154924 
Q 119.381834 46.129655 119.944179 46.560786 
Q 120.506524 46.991917 121.53749 47.385559 
Q 122.568455 47.7792 123.580676 47.629241 
Q 124.25549 47.629241 124.72411 47.404303 
Q 125.192731 47.179366 125.417669 46.879448 
Q 125.642607 46.579531 125.773821 45.979697 
Q 125.905034 45.379862 125.923779 44.967476 
Q 125.942524 44.55509 125.942524 43.805297 
Q 125.942524 42.718097 125.042772 42.043283 
Q 124.143021 41.368469 122.849628 41.031062 
Q 121.556234 40.693655 120.262841 40.300014 
Q 118.969448 39.906372 118.069697 38.987876 
Q 117.169945 38.069379 117.169945 36.607283 
Q 117.169945 36.082428 117.338648 35.726276 
Q 117.507352 35.370124 117.900993 35.145186 
Q 118.294634 34.920248 118.575807 34.807779 
Q 118.856979 34.69531 119.513048 34.639076 
Q 120.169117 34.582841 120.356566 34.582841 
Q 120.544014 34.582841 121.218828 34.582841 
Q 122.418497 34.582841 122.999586 34.995228 
Q 123.580676 35.407614 123.899338 36.026193 
Q 124.218 36.644772 124.480428 36.832221 
" clip-path="url(#p310c30d0a1)" style="fill: none; stroke: #000000; stroke-linejoin: miter"/>
   </g>
  </g>
  <g id="axes_9">
   <g id="patch_9">
    <path d="M 134.213462 35.932469 
Q 134.813297 35.257655 135.806772 34.826524 
Q 136.800248 34.395393 137.7 34.470372 
Q 138.337324 34.470372 138.82469 34.639076 
Q 139.312055 34.807779 139.630717 34.995228 
Q 139.949379 35.182676 140.174317 35.670041 
Q 140.399255 36.157407 140.511724 36.419834 
Q 140.624193 36.682262 140.680428 37.375821 
Q 140.736662 38.069379 140.755407 38.331807 
Q 140.774152 38.594234 140.755407 39.419007 
Q 140.736662 40.243779 140.736662 40.431228 
Q 140.736662 41.368469 140.567959 43.242952 
Q 140.399255 45.117434 140.399255 46.054676 
Q 140.399255 46.467062 140.45549 46.823214 
Q 140.511724 47.179366 140.605448 47.610497 
Q 140.699172 48.041628 140.736662 48.304055 
L 141.186538 48.528993 
M 134.663338 23.111007 
Q 134.888276 24.798041 134.888276 29.971614 
L 134.888276 42.3432 
L 134.550869 46.841959 
L 134.325931 47.74171 
" clip-path="url(#p44674b1932)" style="fill: none; stroke: #000000; stroke-linejoin: miter"/>
   </g>
  </g>
  <g id="axes_10">
   <g id="patch_10">
    <path d="M 151.425683 27.384828 
L 154.687283 31.658648 
M 154.349876 34.020497 
L 154.462345 38.744193 
Q 154.574814 39.269048 154.706028 40.74989 
Q 154.837241 42.230731 155.174648 43.149228 
Q 155.512055 44.067724 156.374317 44.592579 
" clip-path="url(#p0b241c4d44)" style="fill: none; stroke: #000000; stroke-linejoin: miter"/>
   </g>
  </g>
  <g id="axes_11"/>
  <g id="axes_12">
   <g id="patch_11">
    <path d="M 179.916102 36.437797 
L 181.151695 44.778051 
Q 181.254661 45.567458 181.254661 45.60178 
Q 181.254661 45.704746 181.563559 45.704746 
Q 182.42161 45.704746 183.142373 44.778051 
Q 183.863136 43.851356 184.275 42.718729 
Q 184.686864 41.586102 185.201695 40.659407 
Q 185.716525 39.732712 186.197034 39.732712 
Q 186.814831 39.732712 187.449788 40.607924 
Q 188.084746 41.483136 188.548093 42.512797 
Q 189.011441 43.542458 189.68072 44.417669 
Q 190.35 45.292881 191.036441 45.292881 
Q 191.311017 43.782712 191.740042 39.69839 
Q 192.169068 35.614068 192.683898 33.554746 
" clip-path="url(#p48d19ea875)" style="fill: none; stroke: #000000; stroke-linejoin: miter"/>
   </g>
  </g>
  <g id="axes_13">
   <g id="patch_12">
    <path d="M 198.582331 26.597545 
Q 200.456814 30.496469 203.193559 30.42149 
Q 203.605945 30.458979 203.962097 30.234041 
Q 204.318248 30.009103 204.524441 29.746676 
Q 204.730634 29.484248 204.899338 28.978138 
Q 205.068041 28.472028 205.143021 28.190855 
Q 205.218 27.909683 205.330469 27.347338 
Q 205.442938 26.784993 205.442938 26.710014 
M 205.218 35.145186 
Q 204.055821 34.77029 201.618993 34.807779 
Q 199.519572 34.807779 198.207434 35.969959 
Q 196.895297 37.132138 196.895297 39.194069 
Q 196.895297 41.743366 198.957228 43.39291 
Q 201.019159 45.042455 203.643434 45.042455 
Q 205.555407 45.042455 206.623862 43.917766 
Q 207.692317 42.793076 207.692317 40.881103 
Q 208.104703 38.781683 206.942524 36.94469 
Q 205.780345 35.107697 203.755903 34.470372 
" clip-path="url(#p78dfc811c7)" style="fill: none; stroke: #000000; stroke-linejoin: miter"/>
   </g>
  </g>
  <g id="axes_14">
   <g id="patch_13">
    <path d="M 212.408036 34.879821 
Q 212.914286 36.109286 213.167411 42.256607 
Q 213.348214 46.632054 213.6375 46.632054 
L 213.709821 46.595893 
Q 214.216071 46.017321 214.270313 44.588973 
Q 214.324554 43.160625 214.107589 41.750357 
Q 213.890625 40.340089 213.6375 38.712857 
Q 213.384375 37.085625 213.384375 36.398571 
Q 213.384375 35.169107 213.764062 33.939643 
Q 214.14375 32.710179 215.120089 32.710179 
Q 216.349554 32.710179 217.072768 34.355491 
Q 217.795982 36.000804 217.958705 37.971563 
Q 218.121429 39.942321 218.229911 41.587634 
Q 218.338393 43.232946 218.483036 43.232946 
Q 218.627679 43.232946 218.71808 41.497232 
Q 218.808482 39.761518 218.935045 37.700357 
Q 219.061607 35.639196 219.784821 33.903482 
Q 220.508036 32.167768 221.7375 32.167768 
Q 223.292411 33.035625 223.961384 34.771339 
Q 224.630357 36.507054 224.594196 38.188527 
Q 224.558036 39.87 224.576116 42.057723 
Q 224.594196 44.245446 224.991964 45.511071 
" clip-path="url(#p2b2081868a)" style="fill: none; stroke: #000000; stroke-linejoin: miter"/>
   </g>
  </g>
  <g id="axes_15">
   <g id="patch_14">
    <path d="M 228.657798 38.160826 
Q 231.630275 39.535596 236.349083 39.721376 
Q 237.872477 39.721376 238.559862 38.550963 
Q 239.247248 37.38055 239.247248 35.82 
Q 239.247248 35.299817 239.154358 34.909679 
Q 239.061468 34.519541 238.819954 34.296606 
Q 238.57844 34.07367 238.411239 33.943624 
Q 238.244037 33.813578 237.798165 33.757844 
Q 237.352294 33.70211 237.147936 33.683532 
Q 236.943578 33.664954 236.367661 33.683532 
Q 235.791743 33.70211 235.568807 33.70211 
Q 233.525229 33.70211 232.038991 35.578486 
Q 230.552752 37.454862 230.552752 39.609908 
Q 230.552752 42.619541 232.484862 44.570229 
Q 234.416972 46.520917 237.463761 46.520917 
Q 239.618807 46.818165 241.142202 44.29156 
" clip-path="url(#p6138727438)" style="fill: none; stroke: #000000; stroke-linejoin: miter"/>
   </g>
  </g>
  <g id="axes_16">
   <g id="patch_15">
    <path d="M 246.263834 32.783338 
L 246.263834 33.345683 
Q 247.126097 39.718924 247.163586 47.066897 
Q 247.163586 47.81669 247.088607 47.029407 
Q 246.638731 42.080772 246.488772 35.82 
L 246.488772 35.145186 
Q 246.488772 33.6456 248.082083 33.008276 
Q 249.675393 32.370952 251.1 32.783338 
Q 252.637076 33.233214 253.611807 34.414138 
Q 254.586538 35.595062 254.961434 37.282097 
Q 255.336331 38.969131 255.467545 40.543697 
Q 255.598759 42.118262 255.673738 44.067724 
Q 255.748717 46.017186 255.936166 47.066897 
" clip-path="url(#p0330c00b7e)" style="fill: none; stroke: #000000; stroke-linejoin: miter"/>
   </g>
  </g>
  <g id="axes_17"/>
  <g id="axes_18">
   <g id="patch_16">
    <path d="M 279.057476 43.917766 
Q 279.357393 44.180193 280.369614 45.154924 
Q 281.381834 46.129655 281.944179 46.560786 
Q 282.506524 46.991917 283.53749 47.385559 
Q 284.568455 47.7792 285.580676 47.629241 
Q 286.25549 47.629241 286.72411 47.404303 
Q 287.192731 47.179366 287.417669 46.879448 
Q 287.642607 46.579531 287.773821 45.979697 
Q 287.905034 45.379862 287.923779 44.967476 
Q 287.942524 44.55509 287.942524 43.805297 
Q 287.942524 42.718097 287.042772 42.043283 
Q 286.143021 41.368469 284.849628 41.031062 
Q 283.556234 40.693655 282.262841 40.300014 
Q 280.969448 39.906372 280.069697 38.987876 
Q 279.169945 38.069379 279.169945 36.607283 
Q 279.169945 36.082428 279.338648 35.726276 
Q 279.507352 35.370124 279.900993 35.145186 
Q 280.294634 34.920248 280.575807 34.807779 
Q 280.856979 34.69531 281.513048 34.639076 
Q 282.169117 34.582841 282.356566 34.582841 
Q 282.544014 34.582841 283.218828 34.582841 
Q 284.418497 34.582841 284.999586 34.995228 
Q 285.580676 35.407614 285.899338 36.026193 
Q 286.218 36.644772 286.480428 36.832221 
" clip-path="url(#pda74b46319)" style="fill: none; stroke: #000000; stroke-linejoin: miter"/>
   </g>
  </g>
  <g id="axes_19">
   <g id="patch_17">
    <path d="M 295.088772 35.145186 
Q 295.088772 35.145186 295.088772 35.595062 
Q 295.088772 36.269876 294.976303 37.619503 
Q 294.863834 38.969131 294.863834 39.643945 
Q 294.863834 41.930814 296.100993 43.599103 
Q 297.338152 45.267393 299.475062 45.267393 
Q 300.862179 45.154924 301.630717 43.917766 
Q 302.399255 42.680607 302.549214 41.237255 
Q 302.699172 39.793903 302.9616 37.9944 
Q 303.224028 36.194897 303.636414 35.370124 
Q 303.786372 35.070207 303.786372 35.670041 
Q 303.786372 36.269876 303.523945 38.706703 
Q 303.299007 41.031062 303.299007 41.555917 
Q 303.149048 42.643117 303.486455 43.767807 
Q 303.823862 44.892497 304.536166 45.6048 
" clip-path="url(#pdc52b4282f)" style="fill: none; stroke: #000000; stroke-linejoin: miter"/>
   </g>
  </g>
  <g id="axes_20">
   <g id="patch_18">
    <path d="M 311.982331 26.597545 
Q 313.856814 30.496469 316.593559 30.42149 
Q 317.005945 30.458979 317.362097 30.234041 
Q 317.718248 30.009103 317.924441 29.746676 
Q 318.130634 29.484248 318.299338 28.978138 
Q 318.468041 28.472028 318.543021 28.190855 
Q 318.618 27.909683 318.730469 27.347338 
Q 318.842938 26.784993 318.842938 26.710014 
M 318.618 35.145186 
Q 317.455821 34.77029 315.018993 34.807779 
Q 312.919572 34.807779 311.607434 35.969959 
Q 310.295297 37.132138 310.295297 39.194069 
Q 310.295297 41.743366 312.357228 43.39291 
Q 314.419159 45.042455 317.043434 45.042455 
Q 318.955407 45.042455 320.023862 43.917766 
Q 321.092317 42.793076 321.092317 40.881103 
Q 321.504703 38.781683 320.342524 36.94469 
Q 319.180345 35.107697 317.155903 34.470372 
" clip-path="url(#pf831414c2f)" style="fill: none; stroke: #000000; stroke-linejoin: miter"/>
   </g>
  </g>
  <g id="axes_21"/>
  <g id="axes_22">
   <g id="patch_19">
    <path d="M 343.857476 43.917766 
Q 344.157393 44.180193 345.169614 45.154924 
Q 346.181834 46.129655 346.744179 46.560786 
Q 347.306524 46.991917 348.33749 47.385559 
Q 349.368455 47.7792 350.380676 47.629241 
Q 351.05549 47.629241 351.52411 47.404303 
Q 351.992731 47.179366 352.217669 46.879448 
Q 352.442607 46.579531 352.573821 45.979697 
Q 352.705034 45.379862 352.723779 44.967476 
Q 352.742524 44.55509 352.742524 43.805297 
Q 352.742524 42.718097 351.842772 42.043283 
Q 350.943021 41.368469 349.649628 41.031062 
Q 348.356234 40.693655 347.062841 40.300014 
Q 345.769448 39.906372 344.869697 38.987876 
Q 343.969945 38.069379 343.969945 36.607283 
Q 343.969945 36.082428 344.138648 35.726276 
Q 344.307352 35.370124 344.700993 35.145186 
Q 345.094634 34.920248 345.375807 34.807779 
Q 345.656979 34.69531 346.313048 34.639076 
Q 346.969117 34.582841 347.156566 34.582841 
Q 347.344014 34.582841 348.018828 34.582841 
Q 349.218497 34.582841 349.799586 34.995228 
Q 350.380676 35.407614 350.699338 36.026193 
Q 351.018 36.644772 351.280428 36.832221 
" clip-path="url(#p1e0b64940a)" style="fill: none; stroke: #000000; stroke-linejoin: miter"/>
   </g>
  </g>
  <g id="axes_23">
   <g id="patch_20">
    <path d="M 361.013462 35.932469 
Q 361.613297 35.257655 362.606772 34.826524 
Q 363.600248 34.395393 364.5 34.470372 
Q 365.137324 34.470372 365.62469 34.639076 
Q 366.112055 34.807779 366.430717 34.995228 
Q 366.749379 35.182676 366.974317 35.670041 
Q 367.199255 36.157407 367.311724 36.419834 
Q 367.424193 36.682262 367.480428 37.375821 
Q 367.536662 38.069379 367.555407 38.331807 
Q 367.574152 38.594234 367.555407 39.419007 
Q 367.536662 40.243779 367.536662 40.431228 
Q 367.536662 41.368469 367.367959 43.242952 
Q 367.199255 45.117434 367.199255 46.054676 
Q 367.199255 46.467062 367.25549 46.823214 
Q 367.311724 47.179366 367.405448 47.610497 
Q 367.499172 48.041628 367.536662 48.304055 
L 367.986538 48.528993 
M 361.463338 23.111007 
Q 361.688276 24.798041 361.688276 29.971614 
L 361.688276 42.3432 
L 361.350869 46.841959 
L 361.125931 47.74171 
" clip-path="url(#p984b077cad)" style="fill: none; stroke: #000000; stroke-linejoin: miter"/>
   </g>
  </g>
  <g id="axes_24">
   <g id="patch_21">
    <path d="M 376.988524 28.734455 
L 383.849131 29.071862 
M 377.775807 37.394566 
Q 379.012966 37.95691 379.912717 37.95691 
Q 380.287614 37.95691 381.393559 38.181848 
Q 382.499503 38.406786 383.061848 38.406786 
Q 384.748883 38.406786 384.748883 35.145186 
Q 384.748883 33.983007 383.268041 33.439407 
Q 381.7872 32.895807 380.362593 32.895807 
Q 376.538648 32.895807 376.538648 38.969131 
Q 376.538648 40.506207 377.082248 41.499683 
Q 377.625848 42.493159 378.731793 42.905545 
Q 379.837738 43.317931 380.831214 43.449145 
Q 381.82469 43.580359 383.399255 43.580359 
Q 383.811641 43.880276 384.186538 43.4304 
Q 384.561434 42.980524 384.861352 43.018014 
" clip-path="url(#pd5a0468569)" style="fill: none; stroke: #000000; stroke-linejoin: miter"/>
   </g>
  </g>
  <g id="axes_25">
   <g id="patch_22">
    <path d="M 392.063834 32.783338 
L 392.063834 33.345683 
Q 392.926097 39.718924 392.963586 47.066897 
Q 392.963586 47.81669 392.888607 47.029407 
Q 392.438731 42.080772 392.288772 35.82 
L 392.288772 35.145186 
Q 392.288772 33.6456 393.882083 33.008276 
Q 395.475393 32.370952 396.9 32.783338 
Q 398.437076 33.233214 399.411807 34.414138 
Q 400.386538 35.595062 400.761434 37.282097 
Q 401.136331 38.969131 401.267545 40.543697 
Q 401.398759 42.118262 401.473738 44.067724 
Q 401.548717 46.017186 401.736166 47.066897 
" clip-path="url(#p16444f3b44)" style="fill: none; stroke: #000000; stroke-linejoin: miter"/>
   </g>
  </g>
  <g id="axes_26">
   <g id="patch_23">
    <path d="M 418.71018 35.173293 
Q 418.483832 35.108623 417.626946 34.752934 
Q 416.77006 34.397246 416.188024 34.267904 
Q 415.605988 34.138563 415.023952 34.203234 
Q 412.695808 34.203234 411.240719 36.321198 
Q 409.785629 38.439162 409.785629 40.799641 
Q 409.785629 42.254731 414.441916 42.254731 
Q 415.832335 42.254731 417.012575 40.912814 
Q 418.192814 39.570898 418.791018 37.905629 
Q 419.389222 36.240359 419.389222 34.882275 
Q 419.389222 33.556527 419.356886 33.297844 
L 419.292216 34.267904 
Q 419.292216 34.688263 419.292216 35.076287 
Q 419.583234 42.287066 419.25988 45.64994 
Q 418.160479 57.969701 410.076647 57.969701 
Q 408.621557 57.969701 407.651497 57.306826 
Q 406.681437 56.643952 406.681437 55.253533 
Q 406.616766 55.059521 406.649102 55.059521 
Q 406.681437 55.059521 406.778443 55.059521 
Q 406.875449 55.059521 406.875449 54.962515 
" clip-path="url(#pac67b1aac1)" style="fill: none; stroke: #000000; stroke-linejoin: miter"/>
   </g>
  </g>
  <g id="axes_27">
   <g id="patch_24">
    <path d="M 425.813462 35.932469 
Q 426.413297 35.257655 427.406772 34.826524 
Q 428.400248 34.395393 429.3 34.470372 
Q 429.937324 34.470372 430.42469 34.639076 
Q 430.912055 34.807779 431.230717 34.995228 
Q 431.549379 35.182676 431.774317 35.670041 
Q 431.999255 36.157407 432.111724 36.419834 
Q 432.224193 36.682262 432.280428 37.375821 
Q 432.336662 38.069379 432.355407 38.331807 
Q 432.374152 38.594234 432.355407 39.419007 
Q 432.336662 40.243779 432.336662 40.431228 
Q 432.336662 41.368469 432.167959 43.242952 
Q 431.999255 45.117434 431.999255 46.054676 
Q 431.999255 46.467062 432.05549 46.823214 
Q 432.111724 47.179366 432.205448 47.610497 
Q 432.299172 48.041628 432.336662 48.304055 
L 432.786538 48.528993 
M 426.263338 23.111007 
Q 426.488276 24.798041 426.488276 29.971614 
L 426.488276 42.3432 
L 426.150869 46.841959 
L 425.925931 47.74171 
" clip-path="url(#pdc44b38052)" style="fill: none; stroke: #000000; stroke-linejoin: miter"/>
   </g>
  </g>
  <g id="axes_28">
   <g id="patch_25">
    <path d="M 440.888772 35.145186 
Q 440.888772 35.145186 440.888772 35.595062 
Q 440.888772 36.269876 440.776303 37.619503 
Q 440.663834 38.969131 440.663834 39.643945 
Q 440.663834 41.930814 441.900993 43.599103 
Q 443.138152 45.267393 445.275062 45.267393 
Q 446.662179 45.154924 447.430717 43.917766 
Q 448.199255 42.680607 448.349214 41.237255 
Q 448.499172 39.793903 448.7616 37.9944 
Q 449.024028 36.194897 449.436414 35.370124 
Q 449.586372 35.070207 449.586372 35.670041 
Q 449.586372 36.269876 449.323945 38.706703 
Q 449.099007 41.031062 449.099007 41.555917 
Q 448.949048 42.643117 449.286455 43.767807 
Q 449.623862 44.892497 450.336166 45.6048 
" clip-path="url(#pfa516bafa8)" style="fill: none; stroke: #000000; stroke-linejoin: miter"/>
   </g>
  </g>
  <g id="axes_29">
   <g id="patch_26">
    <path d="M 458.550869 31.43371 
Q 458.963255 30.946345 459.937986 30.102828 
Q 460.912717 29.25931 461.587531 28.472028 
Q 462.262345 27.684745 462.487283 26.710014 
L 463.724441 25.247917 
M 462.82469 34.470372 
Q 461.212634 33.908028 460.57531 34.020497 
Q 458.588359 34.020497 457.38869 35.332634 
Q 456.189021 36.644772 456.189021 38.744193 
Q 456.189021 41.705876 458.344676 43.374166 
Q 460.500331 45.042455 463.611972 45.042455 
Q 465.336497 45.042455 466.273738 43.524124 
Q 467.210979 42.005793 467.210979 40.093821 
Q 467.210979 39.006621 466.836083 38.088124 
Q 466.461186 37.169628 465.842607 36.138662 
Q 465.224028 35.107697 464.9616 34.470372 
L 462.037407 33.795559 
" clip-path="url(#p3356cec768)" style="fill: none; stroke: #000000; stroke-linejoin: miter"/>
   </g>
  </g>
  <g id="axes_30"/>
  <g id="axes_31">
   <g id="patch_27">
    <path d="M 497.699007 38.444276 
Q 496.349379 37.057159 494.1 37.319586 
Q 491.250786 37.319586 490.088607 38.669214 
Q 488.926428 40.018841 488.926428 42.943034 
Q 488.926428 44.442621 490.219821 45.154924 
Q 491.513214 45.867228 493.087779 45.867228 
Q 494.399917 45.867228 495.412138 44.611324 
Q 496.424359 43.355421 497.005448 41.181021 
Q 497.586538 39.006621 497.961434 36.813476 
Q 498.336331 34.620331 498.48629 31.921076 
Q 498.636248 29.221821 498.673738 27.853448 
Q 498.711228 26.485076 498.711228 25.060469 
Q 498.48629 25.135448 498.48629 28.771945 
L 498.48629 43.167972 
L 499.273572 47.104386 
" clip-path="url(#p12af031d6d)" style="fill: none; stroke: #000000; stroke-linejoin: miter"/>
   </g>
  </g>
  <g id="axes_32">
   <g id="patch_28">
    <path d="M 504.057798 38.160826 
Q 507.030275 39.535596 511.749083 39.721376 
Q 513.272477 39.721376 513.959862 38.550963 
Q 514.647248 37.38055 514.647248 35.82 
Q 514.647248 35.299817 514.554358 34.909679 
Q 514.461468 34.519541 514.219954 34.296606 
Q 513.97844 34.07367 513.811239 33.943624 
Q 513.644037 33.813578 513.198165 33.757844 
Q 512.752294 33.70211 512.547936 33.683532 
Q 512.343578 33.664954 511.767661 33.683532 
Q 511.191743 33.70211 510.968807 33.70211 
Q 508.925229 33.70211 507.438991 35.578486 
Q 505.952752 37.454862 505.952752 39.609908 
Q 505.952752 42.619541 507.884862 44.570229 
Q 509.816972 46.520917 512.863761 46.520917 
Q 515.018807 46.818165 516.542202 44.29156 
" clip-path="url(#p59370fc6f7)" style="fill: none; stroke: #000000; stroke-linejoin: miter"/>
   </g>
  </g>
  <g id="axes_33"/>
  <g id="axes_34">
   <g id="patch_29">
    <path d="M 546.299007 38.444276 
Q 544.949379 37.057159 542.7 37.319586 
Q 539.850786 37.319586 538.688607 38.669214 
Q 537.526428 40.018841 537.526428 42.943034 
Q 537.526428 44.442621 538.819821 45.154924 
Q 540.113214 45.867228 541.687779 45.867228 
Q 542.999917 45.867228 544.012138 44.611324 
Q 545.024359 43.355421 545.605448 41.181021 
Q 546.186538 39.006621 546.561434 36.813476 
Q 546.936331 34.620331 547.08629 31.921076 
Q 547.236248 29.221821 547.273738 27.853448 
Q 547.311228 26.485076 547.311228 25.060469 
Q 547.08629 25.135448 547.08629 28.771945 
L 547.08629 43.167972 
L 547.873572 47.104386 
" clip-path="url(#p44bb59d5b6)" style="fill: none; stroke: #000000; stroke-linejoin: miter"/>
   </g>
  </g>
  <g id="axes_35">
   <g id="patch_30">
    <path d="M 556.425683 27.384828 
L 559.687283 31.658648 
M 559.349876 34.020497 
L 559.462345 38.744193 
Q 559.574814 39.269048 559.706028 40.74989 
Q 559.837241 42.230731 560.174648 43.149228 
Q 560.512055 44.067724 561.374317 44.592579 
" clip-path="url(#p53dfe7f1ac)" style="fill: none; stroke: #000000; stroke-linejoin: miter"/>
   </g>
  </g>
  <g id="axes_36">
   <g id="patch_31">
    <path d="M 568.784141 38.85304 
L 569.212335 38.85304 
Q 570.03304 38.85304 570.996476 38.745991 
Q 571.959912 38.638943 573.119604 38.460529 
Q 574.279295 38.282115 574.885903 38.210749 
L 581.415859 35.427489 
M 581.094714 25.793128 
Q 580.809251 25.721762 579.774449 25.275727 
Q 578.739648 24.829692 578.097357 24.93674 
Q 577.455066 24.93674 576.937665 25.150837 
Q 576.420264 25.364934 576.081278 25.793128 
Q 575.742291 26.221322 575.47467 26.685198 
Q 575.207048 27.149075 575.064317 27.862731 
Q 574.921586 28.576388 574.814537 29.129471 
Q 574.707489 29.682555 574.689648 30.50326 
Q 574.671806 31.323965 574.653965 31.77 
Q 574.636123 32.216035 574.653965 32.965374 
Q 574.671806 33.714714 574.671806 33.928811 
Q 574.671806 36.605022 575.367621 41.850396 
Q 576.063436 47.095771 576.063436 49.771982 
Q 575.99207 50.057445 575.956388 50.681894 
Q 575.920705 51.306344 575.813656 51.805903 
Q 575.706608 52.305463 575.421145 52.555242 
" clip-path="url(#p0bec486ef1)" style="fill: none; stroke: #000000; stroke-linejoin: miter"/>
   </g>
  </g>
  <g id="axes_37">
   <g id="patch_32">
    <path d="M 585.377221 29.066925 
L 595.562187 29.066925 
M 594.787244 33.384465 
Q 594.787244 33.384465 591.908884 33.384465 
Q 588.919818 33.384465 586.98246 35.026606 
Q 585.045103 36.668747 585.045103 39.584009 
Q 585.045103 41.318405 586.779499 42.222506 
Q 588.513895 43.126606 590.469704 43.126606 
Q 591.982688 42.83139 592.849886 41.650524 
Q 593.717084 40.469658 593.938497 39.251891 
Q 594.159909 38.034123 594.36287 36.115216 
Q 594.565831 34.19631 594.787244 33.384465 
Q 597.333485 42.978998 597.444191 43.901549 
L 597.554897 45.00861 
" clip-path="url(#p2692f199de)" style="fill: none; stroke: #000000; stroke-linejoin: miter"/>
   </g>
  </g>
  <g id="axes_38">
   <g id="patch_33">
    <path d="M 602.663834 32.783338 
L 602.663834 33.345683 
Q 603.526097 39.718924 603.563586 47.066897 
Q 603.563586 47.81669 603.488607 47.029407 
Q 603.038731 42.080772 602.888772 35.82 
L 602.888772 35.145186 
Q 602.888772 33.6456 604.482083 33.008276 
Q 606.075393 32.370952 607.5 32.783338 
Q 609.037076 33.233214 610.011807 34.414138 
Q 610.986538 35.595062 611.361434 37.282097 
Q 611.736331 38.969131 611.867545 40.543697 
Q 611.998759 42.118262 612.073738 44.067724 
Q 612.148717 46.017186 612.336166 47.066897 
" clip-path="url(#p74ed63fe23)" style="fill: none; stroke: #000000; stroke-linejoin: miter"/>
   </g>
  </g>
  <g id="axes_39">
   <g id="patch_34">
    <path d="M 629.31018 35.173293 
Q 629.083832 35.108623 628.226946 34.752934 
Q 627.37006 34.397246 626.788024 34.267904 
Q 626.205988 34.138563 625.623952 34.203234 
Q 623.295808 34.203234 621.840719 36.321198 
Q 620.385629 38.439162 620.385629 40.799641 
Q 620.385629 42.254731 625.041916 42.254731 
Q 626.432335 42.254731 627.612575 40.912814 
Q 628.792814 39.570898 629.391018 37.905629 
Q 629.989222 36.240359 629.989222 34.882275 
Q 629.989222 33.556527 629.956886 33.297844 
L 629.892216 34.267904 
Q 629.892216 34.688263 629.892216 35.076287 
Q 630.183234 42.287066 629.85988 45.64994 
Q 628.760479 57.969701 620.676647 57.969701 
Q 619.221557 57.969701 618.251497 57.306826 
Q 617.281437 56.643952 617.281437 55.253533 
Q 617.216766 55.059521 617.249102 55.059521 
Q 617.281437 55.059521 617.378443 55.059521 
Q 617.475449 55.059521 617.475449 54.962515 
" clip-path="url(#pe17e09259b)" style="fill: none; stroke: #000000; stroke-linejoin: miter"/>
   </g>
  </g>
  <g id="axes_40">
   <g id="patch_35">
    <path d="M 639.825021 46.054676 
Q 639.825021 46.092166 639.750041 46.092166 
Q 639.675062 46.129655 639.675062 46.167145 
Q 639.675062 46.392083 639.9 46.392083 
Q 640.087448 46.392083 640.087448 46.129655 
Q 640.124938 46.017186 639.974979 45.942207 
Q 639.825021 45.867228 639.712552 45.942207 
" clip-path="url(#p787c96e072)" style="fill: none; stroke: #000000; stroke-linejoin: miter"/>
   </g>
  </g>
 </g>
 <defs>
  <clipPath id="pd02bb1db91">
   <rect x="0" y="13.491103" width="16.2" height="44.657795"/>
  </clipPath>
  <clipPath id="pb90a059222">
   <rect x="18.938979" y="8.64" width="10.722041" height="54.36"/>
  </clipPath>
  <clipPath id="pef03da57ac">
   <rect x="36.1512" y="8.64" width="8.6976" height="54.36"/>
  </clipPath>
  <clipPath id="p5a7fbf4b59">
   <rect x="50.907848" y="8.64" width="11.584303" height="54.36"/>
  </clipPath>
  <clipPath id="paafc33503d">
   <rect x="70.406938" y="8.64" width="4.986124" height="54.36"/>
  </clipPath>
  <clipPath id="p5cbb0e5856">
   <rect x="83.795214" y="8.64" width="10.609572" height="54.36"/>
  </clipPath>
  <clipPath id="p310c30d0a1">
   <rect x="115.182993" y="8.64" width="12.634014" height="54.36"/>
  </clipPath>
  <clipPath id="p44674b1932">
   <rect x="132.338979" y="8.64" width="10.722041" height="54.36"/>
  </clipPath>
  <clipPath id="p0b241c4d44">
   <rect x="149.5512" y="8.64" width="8.6976" height="54.36"/>
  </clipPath>
  <clipPath id="p48d19ea875">
   <rect x="178.2" y="10.936525" width="16.2" height="49.766949"/>
  </clipPath>
  <clipPath id="p78dfc811c7">
   <rect x="195.020814" y="8.64" width="14.958372" height="54.36"/>
  </clipPath>
  <clipPath id="p2b2081868a">
   <rect x="210.6" y="9.603482" width="16.2" height="52.433036"/>
  </clipPath>
  <clipPath id="p6138727438">
   <rect x="226.8" y="8.881927" width="16.2" height="53.876147"/>
  </clipPath>
  <clipPath id="p0330c00b7e">
   <rect x="244.389352" y="8.64" width="13.421297" height="54.36"/>
  </clipPath>
  <clipPath id="pda74b46319">
   <rect x="277.182993" y="8.64" width="12.634014" height="54.36"/>
  </clipPath>
  <clipPath id="pdc52b4282f">
   <rect x="292.989352" y="8.64" width="13.421297" height="54.36"/>
  </clipPath>
  <clipPath id="pf831414c2f">
   <rect x="308.420814" y="8.64" width="14.958372" height="54.36"/>
  </clipPath>
  <clipPath id="p1e0b64940a">
   <rect x="341.982993" y="8.64" width="12.634014" height="54.36"/>
  </clipPath>
  <clipPath id="p984b077cad">
   <rect x="359.138979" y="8.64" width="10.722041" height="54.36"/>
  </clipPath>
  <clipPath id="pd5a0468569">
   <rect x="374.664166" y="8.64" width="12.071669" height="54.36"/>
  </clipPath>
  <clipPath id="p16444f3b44">
   <rect x="390.189352" y="8.64" width="13.421297" height="54.36"/>
  </clipPath>
  <clipPath id="pac67b1aac1">
   <rect x="405" y="12.376886" width="16.2" height="46.886228"/>
  </clipPath>
  <clipPath id="pdc44b38052">
   <rect x="423.938979" y="8.64" width="10.722041" height="54.36"/>
  </clipPath>
  <clipPath id="pfa516bafa8">
   <rect x="438.789352" y="8.64" width="13.421297" height="54.36"/>
  </clipPath>
  <clipPath id="p3356cec768">
   <rect x="454.314538" y="8.64" width="14.770924" height="54.36"/>
  </clipPath>
  <clipPath id="p12af031d6d">
   <rect x="487.051945" y="8.64" width="14.09611" height="54.36"/>
  </clipPath>
  <clipPath id="p59370fc6f7">
   <rect x="502.2" y="8.881927" width="16.2" height="53.876147"/>
  </clipPath>
  <clipPath id="p44bb59d5b6">
   <rect x="535.651945" y="8.64" width="14.09611" height="54.36"/>
  </clipPath>
  <clipPath id="p53dfe7f1ac">
   <rect x="554.5512" y="8.64" width="8.6976" height="54.36"/>
  </clipPath>
  <clipPath id="p0bec486ef1">
   <rect x="567" y="9.949956" width="16.2" height="51.740088"/>
  </clipPath>
  <clipPath id="p2692f199de">
   <rect x="583.2" y="9.066014" width="16.2" height="53.507973"/>
  </clipPath>
  <clipPath id="p74ed63fe23">
   <rect x="600.789352" y="8.64" width="13.421297" height="54.36"/>
  </clipPath>
  <clipPath id="pe17e09259b">
   <rect x="615.6" y="12.376886" width="16.2" height="46.886228"/>
  </clipPath>
  <clipPath id="p787c96e072">
   <rect x="637.800579" y="8.64" width="4.198841" height="54.36"/>
  </clipPath>
 </defs>
</svg>
