<?xml version="1.0" standalone="no"?>
<svg id="SvgjsSvg1001" width="600" height="600" xmlns="http://www.w3.org/2000/svg" version="1.1" xmlns:xlink="http://www.w3.org/1999/xlink" xmlns:svgjs="http://svgjs.com/svgjs" class="svg-paper" viewBox="0 0 600 600"><title id="SvgjsTitle10413">x=(y+x)|y=y/y|dTest=0.0|sd=0.3|sm=0.7|ts=0.72 | generated with FlowLines</title><g id="SvgjsG10414"><polyline id="SvgjsPolyline10415" points="425.01,595.25 383.41,583.63 341.43,573.45 256.73,556.39 128.68,536.53 0,521.08" fill="none" stroke="#000000" stroke-width="1"/><polyline id="SvgjsPolyline10416" points="471.28,593.89 390.39,563.56 349.27,550.34 307.65,538.76 265.68,528.54 223.45,519.46 138.45,503.97 10.18,485.54" fill="none" stroke="#000000" stroke-width="1"/><polyline id="SvgjsPolyline10417" points="379.21,599.8 294.88,581.02 209.97,565.05 124.58,551.91 38.89,540.82" fill="none" stroke="#000000" stroke-width="1"/><polyline id="SvgjsPolyline10418" points="467.16,596.38 426.49,581.84 385.15,569.32 301.23,548.82 258.88,540.29 173.72,525.72 2.5,502.48" fill="none" stroke="#000000" stroke-width="1"/><polyline id="SvgjsPolyline10419" points="516.65,599.29 441.31,557.03 402.35,538.38 362.35,522.09 321.55,507.9 280.17,495.5 196.26,474.97 111.42,458.63 26.07,445.21" fill="none" stroke="#000000" stroke-width="1"/><polyline id="SvgjsPolyline10420" points="512.67,598.17 474.66,577.68 435.16,560.19 394.63,545.26 353.38,532.42 311.65,521.26 227.51,501.66 185.2,492.92 100.11,477.97 14.61,465.55" fill="none" stroke="#000000" stroke-width="1"/><polyline id="SvgjsPolyline10421" points="291.28,598.16 248.8,590.29 163.49,576.68 34.95,560.15" fill="none" stroke="#000000" stroke-width="1"/><polyline id="SvgjsPolyline10422" points="526.95,585.11 467.57,522.35 438.94,490 411.96,456.28 388.67,419.95 375.8,379.1 389.33,339.23 423.36,313.05 462.9,295.77 504.15,282.96 546.12,272.75 588.47,264.23" fill="none" stroke="#000000" stroke-width="1"/><polyline id="SvgjsPolyline10423" points="521.15,589.4 486.31,563.88 412.45,519.07 374.14,499.13 334.64,481.64 294.23,466.39 253.13,453.1 211.53,441.46 127.34,422.08 42.36,406.53" fill="none" stroke="#000000" stroke-width="1"/><polyline id="SvgjsPolyline10424" points="517.76,586.54 482.76,561.23 445.68,539.07 406.89,520.08 366.84,503.89 325.93,490.03 284.43,478.05 200.6,457.13 158.41,447.84 116.02,439.53 30.82,425.23" fill="none" stroke="#000000" stroke-width="1"/><polyline id="SvgjsPolyline10425" points="203.79,599.71 32.35,578.17" fill="none" stroke="#000000" stroke-width="1"/><polyline id="SvgjsPolyline10426" points="539.53,572.92 524.67,532.66 534.5,491.74 567.17,463.99" fill="none" stroke="#000000" stroke-width="1"/><polyline id="SvgjsPolyline10427" points="523.44,582.51 496.04,501.27 508.1,460.95 541.6,434.15 581.02,416.57" fill="none" stroke="#000000" stroke-width="1"/><polyline id="SvgjsPolyline10428" points="492.17,551.7 468.85,469.38 484.35,430.21 519.03,404.84 558.75,387.95" fill="none" stroke="#000000" stroke-width="1"/><polyline id="SvgjsPolyline10429" points="524.2,585.24 492.75,555.63 460.11,527.33 391.09,475.38 355.17,451.39 317.79,429.75 279.08,410.59 239.27,393.82 198.62,379.22 157.35,366.48 115.62,355.3 31.27,336.61" fill="none" stroke="#000000" stroke-width="1"/><polyline id="SvgjsPolyline10430" points="460.26,520.5 444.31,436.8 464.79,399.82 500.93,376.45 541.06,360.53 582.53,348.47" fill="none" stroke="#000000" stroke-width="1"/><polyline id="SvgjsPolyline10431" points="519.35,579.38 427.3,488.15 424.8,403.58 451.49,370.46 489.22,349.61 529.83,334.94 571.51,323.61" fill="none" stroke="#000000" stroke-width="1"/><polyline id="SvgjsPolyline10432" points="462.25,522.09 401.81,460.35 344.46,395.74 317.37,362.1 293.82,325.94 280.14,285.31 292.24,245 325.76,218.22 365.18,200.66 406.37,187.69 448.32,177.38 490.66,168.79 575.93,154.94" fill="none" stroke="#000000" stroke-width="1"/><polyline id="SvgjsPolyline10433" points="515.59,575.57 394.1,452.69 414.32,371.01 447.09,343.37 486.31,325.39 527.44,312.2 569.35,301.75" fill="none" stroke="#000000" stroke-width="1"/><polyline id="SvgjsPolyline10434" points="361.54,422.32 355.08,337.8 380.23,303.58 417.57,282.1 458.07,267.1 499.69,255.58 541.85,246.18 584.31,238.23" fill="none" stroke="#000000" stroke-width="1"/><polyline id="SvgjsPolyline10435" points="512.94,572.91 421.7,480.88 392.07,449.44 369.05,412.95 417.54,343.33 454.66,321.47 495.08,306.29 536.68,294.66 578.82,285.19" fill="none" stroke="#000000" stroke-width="1"/><polyline id="SvgjsPolyline10436" points="397.4,457.41 336.29,396.33 342.24,354.65 409.52,301.36 448.97,283.86 490.17,270.92 532.13,260.63 574.47,252.06" fill="none" stroke="#000000" stroke-width="1"/><polyline id="SvgjsPolyline10437" points="538.51,598.51 355.02,415.43 359.22,373.5 392.53,346.47 470.93,310.41 512.04,297.19 553.95,286.73 596.27,278.04" fill="none" stroke="#000000" stroke-width="1"/><polyline id="SvgjsPolyline10438" points="520.83,582.98 488.6,554.21 454.68,527.47 418.67,503.62 380.71,483.01 301.82,447.82 261.43,432.49 220.36,419.12 178.77,407.42 94.61,387.94 9.64,372.33" fill="none" stroke="#000000" stroke-width="1"/><polyline id="SvgjsPolyline10439" points="73.41,600 30.43,595.58" fill="none" stroke="#000000" stroke-width="1"/><polyline id="SvgjsPolyline10440" points="554.83,564.4 563.32,523.18 595.42,494.83" fill="none" stroke="#000000" stroke-width="1"/><polyline id="SvgjsPolyline10441" points="519.4,566.13 564.69,494.56" fill="none" stroke="#000000" stroke-width="1"/><polyline id="SvgjsPolyline10442" points="488.46,510.27 552.01,452.88 590.99,434.38" fill="none" stroke="#000000" stroke-width="1"/><polyline id="SvgjsPolyline10443" points="510.34,570.6 515.32,528.77 582.23,475.05" fill="none" stroke="#000000" stroke-width="1"/><polyline id="SvgjsPolyline10444" points="489.88,534.96 537.11,464.54 574.07,442.42" fill="none" stroke="#000000" stroke-width="1"/><polyline id="SvgjsPolyline10445" points="461.37,477.56 527.27,422.69 566.54,404.8" fill="none" stroke="#000000" stroke-width="1"/><polyline id="SvgjsPolyline10446" points="461.27,503.48 511.46,434.97 548.79,413.46 589.27,398.46" fill="none" stroke="#000000" stroke-width="1"/><polyline id="SvgjsPolyline10447" points="426.41,484.85 436.86,444.09 505.83,392.85 545.49,375.84 586.78,363.18" fill="none" stroke="#000000" stroke-width="1"/><polyline id="SvgjsPolyline10448" points="429.41,492.08 396.88,463.65 362.53,437.46 289.61,391.15 251.72,370.41 212.58,352.15 172.43,336.21 131.53,322.32 90.07,310.19 6.06,290.05" fill="none" stroke="#000000" stroke-width="1"/><polyline id="SvgjsPolyline10449" points="355.4,454.17 316.19,436.05 275.85,420.6 234.74,407.34 151.46,384.35 109.47,374.21 24.78,357.1" fill="none" stroke="#000000" stroke-width="1"/><polyline id="SvgjsPolyline10450" points="393.4,460.78 358.83,434.88 322.17,412.05 283.69,392.42 243.87,375.69 203.11,361.39 161.71,349.05 78.03,327.55 35.9,318.03" fill="none" stroke="#000000" stroke-width="1"/><polyline id="SvgjsPolyline10451" points="434.46,471.69 488.93,406.26 526.78,385.65 567.44,371.09" fill="none" stroke="#000000" stroke-width="1"/><polyline id="SvgjsPolyline10452" points="411.23,439.75 471.41,379.1 509.96,359.77 550.85,345.87 592.65,334.99" fill="none" stroke="#000000" stroke-width="1"/><polyline id="SvgjsPolyline10453" points="399.19,459.69 336.46,400.28 270.18,344.87 235.88,318.62 200.18,294.29 163.03,272.27 124.51,252.72 84.86,235.59 44.32,220.67 3.13,207.66" fill="none" stroke="#000000" stroke-width="1"/><polyline id="SvgjsPolyline10454" points="329.96,389.59 299.79,358.67 318.73,276.67 351.25,248.76 390.4,230.64 431.5,217.38 473.41,206.88 558.26,190.71" fill="none" stroke="#000000" stroke-width="1"/><polyline id="SvgjsPolyline10455" points="268.37,328.93 257,244.71 279.94,209.09 316.72,186.7 357.04,171.26 398.59,159.47 440.72,149.91 483.16,141.84 568.54,128.66" fill="none" stroke="#000000" stroke-width="1"/><polyline id="SvgjsPolyline10456" points="479.64,539.64 357.59,417.32 297.7,355.05 273.96,319 321.23,248.61 358.19,226.5 398.56,211.2 440.14,199.5 482.28,189.99 567.36,174.98" fill="none" stroke="#000000" stroke-width="1"/><polyline id="SvgjsPolyline10457" points="304.41,364.49 243.03,303.69 245.5,261.58 311.44,206.75 350.72,188.88 391.86,175.75 433.78,165.33 476.1,156.68 561.36,142.74" fill="none" stroke="#000000" stroke-width="1"/><polyline id="SvgjsPolyline10458" points="536.18,596.18 260.88,321.63 262.45,279.45 295.24,251.84 373.36,215.21 414.43,201.84 456.31,191.29 498.62,182.53 583.86,168.47" fill="none" stroke="#000000" stroke-width="1"/><polyline id="SvgjsPolyline10459" points="394.99,408.04 462.05,354.48 501.47,336.92 542.66,323.96 584.61,313.64" fill="none" stroke="#000000" stroke-width="1"/><polyline id="SvgjsPolyline10460" points="528.43,588.43 376.03,435.36 346.22,404.09 319.02,370.55 357.47,295.35 393.25,271.48 433.28,255.31 474.71,243.12 516.78,233.29 559.18,225.04" fill="none" stroke="#000000" stroke-width="1"/><polyline id="SvgjsPolyline10461" points="391.03,317.38 428.09,295.43 468.5,280.21 510.09,268.55 552.23,259.07 594.68,251.06" fill="none" stroke="#000000" stroke-width="1"/><polyline id="SvgjsPolyline10462" points="464.81,524.81 312.22,371.93 301.46,330.57 331.38,300.09 369.74,280.39 451.22,251.77 492.96,240.64 577.67,223.74" fill="none" stroke="#000000" stroke-width="1"/><polyline id="SvgjsPolyline10463" points="365.11,422.62 343.72,385.18 369.17,351.16 443.89,308.24 484.38,293.26 526.01,281.74 568.18,272.35" fill="none" stroke="#000000" stroke-width="1"/><polyline id="SvgjsPolyline10464" points="428.56,356.95 465.42,334.68 505.76,319.3 547.32,307.55 589.45,298.01" fill="none" stroke="#000000" stroke-width="1"/><polyline id="SvgjsPolyline10465" points="329.06,344.31 395.31,289.84 434.63,272.05 475.79,258.96 517.71,248.58 560.04,239.94" fill="none" stroke="#000000" stroke-width="1"/><polyline id="SvgjsPolyline10466" points="501.01,573.68 429.03,525.92 391.58,504.4 352.81,485.36 312.96,468.7 272.27,454.2 230.97,441.54 189.23,430.43 104.86,411.84 19.77,396.85" fill="none" stroke="#000000" stroke-width="1"/><polyline id="SvgjsPolyline10467" points="473.81,539.37 439.91,512.61 367.91,464.86 330.46,443.35 291.69,424.32 251.83,407.67 211.14,393.18 169.84,380.52 128.09,369.42 86.02,359.6 1.24,342.98" fill="none" stroke="#000000" stroke-width="1"/><polyline id="SvgjsPolyline10468" points="412.67,478.36 378.72,451.65 306.62,404.07 269.12,382.64 230.31,363.69 190.41,347.13 149.7,332.7 108.38,320.11 24.54,299.27" fill="none" stroke="#000000" stroke-width="1"/><polyline id="SvgjsPolyline10469" points="550.08,597.77 594.19,525.51" fill="none" stroke="#000000" stroke-width="1"/><polyline id="SvgjsPolyline10470" points="544.78,560.19 577.88,532.92" fill="none" stroke="#000000" stroke-width="1"/><polyline id="SvgjsPolyline10471" points="493.15,538.88 516.39,503.44 590.2,459.04" fill="none" stroke="#000000" stroke-width="1"/><polyline id="SvgjsPolyline10472" points="539.57,530.69 576.08,507.87" fill="none" stroke="#000000" stroke-width="1"/><polyline id="SvgjsPolyline10473" points="464.16,507.37 488.76,472.79 563.13,429.29" fill="none" stroke="#000000" stroke-width="1"/><polyline id="SvgjsPolyline10474" points="475.6,493.4 476.38,451.17 504.46,419.12 542.53,398.88 583.25,384.52" fill="none" stroke="#000000" stroke-width="1"/><polyline id="SvgjsPolyline10475" points="364.49,428.64 331.2,401.12 295.87,376.26 258.51,354.59 180.49,317.51 140.44,301.32 99.61,287.22 58.21,274.9 16.39,264.07" fill="none" stroke="#000000" stroke-width="1"/><polyline id="SvgjsPolyline10476" points="252.43,373.78 212.03,358.49 170.88,345.35 129.22,333.96 87.19,323.97 2.44,307.19" fill="none" stroke="#000000" stroke-width="1"/><polyline id="SvgjsPolyline10477" points="242.9,307.04 176.31,252 141.81,226.01 105.9,202 68.53,180.33 29.84,161.15" fill="none" stroke="#000000" stroke-width="1"/><polyline id="SvgjsPolyline10478" points="233.02,323.7 194.47,304.22 114.72,271.02 74.01,256.56 32.7,243.94" fill="none" stroke="#000000" stroke-width="1"/><polyline id="SvgjsPolyline10479" points="239.79,306.25 205.55,279.91 169.21,256.58 130.98,236.47 51.7,202.16 11.17,187.22" fill="none" stroke="#000000" stroke-width="1"/><polyline id="SvgjsPolyline10480" points="289.54,311.44 321.3,282.73 398.9,245.03 439.87,231.38 481.71,220.65 566.52,204.21" fill="none" stroke="#000000" stroke-width="1"/><polyline id="SvgjsPolyline10481" points="314.4,374.27 253.88,312.61 224.9,280.57 254.78,201.81 289.27,176.2 328.95,159.21 370.24,146.55 412.23,136.43 454.59,127.98 497.18,120.7 582.72,108.59" fill="none" stroke="#000000" stroke-width="1"/><polyline id="SvgjsPolyline10482" points="371.41,431.4 219.47,277.89 202.94,238.21 230.89,206.06 268.8,185.53 349.96,156.04 391.63,144.66 433.81,135.35 476.28,127.47 561.71,114.53" fill="none" stroke="#000000" stroke-width="1"/><polyline id="SvgjsPolyline10483" points="270.8,328.19 248.26,291.42 272.88,256.85 347.26,213.36 387.7,198.24 429.31,186.64 471.46,177.2 513.91,169.21 599.31,156.14" fill="none" stroke="#000000" stroke-width="1"/><polyline id="SvgjsPolyline10484" points="332.39,262.12 369.11,239.63 409.41,224.15 450.96,212.34 493.08,202.76 578.14,187.67" fill="none" stroke="#000000" stroke-width="1"/><polyline id="SvgjsPolyline10485" points="294.9,355 233.44,294.29 232.17,252 296.59,195.52 335.67,177.24 376.74,163.89 418.63,153.35 503.48,137.11 588.98,124.71" fill="none" stroke="#000000" stroke-width="1"/><polyline id="SvgjsPolyline10486" points="349.27,414.9 315.34,388.17 243.28,340.52 205.8,319.05 167,300.07 127.13,283.47 86.42,269.02 45.11,256.4 3.36,245.32" fill="none" stroke="#000000" stroke-width="1"/><polyline id="SvgjsPolyline10487" points="532.51,592.5 349.52,408.93 319.61,377.76 291.68,344.81 309.45,306.55 381.13,258.95 421.18,242.83 462.62,230.65 504.68,220.84 589.7,205.47" fill="none" stroke="#000000" stroke-width="1"/><polyline id="SvgjsPolyline10488" points="496.8,579.83 459.08,558.79 380.53,522.85 340.28,507.17 299.3,493.52 257.79,481.57 173.71,461.72 88.78,445.85 3.38,432.77" fill="none" stroke="#000000" stroke-width="1"/><polyline id="SvgjsPolyline10489" points="391.93,508.02 351.75,492.17 310.75,478.58 269.18,466.81 227.23,456.53 100.34,430.18 15.1,416.13" fill="none" stroke="#000000" stroke-width="1"/><polyline id="SvgjsPolyline10490" points="403.21,491.65 364.88,471.75 325.16,454.78 243.78,425.78 202.48,413.12 160.73,402.02 118.66,392.19 33.88,375.57" fill="none" stroke="#000000" stroke-width="1"/><polyline id="SvgjsPolyline10491" points="440.13,503.25 407.35,475.11 372.66,449.37 335.88,426.73 297.31,407.29 257.43,390.71 175.82,362.36 134.43,349.98 92.63,339.1 8.18,320.87" fill="none" stroke="#000000" stroke-width="1"/><polyline id="SvgjsPolyline10492" points="378.98,442.21 346.15,414.14 311.39,388.5 274.54,365.97 235.91,346.64 195.99,330.16 114.33,301.95 72.92,289.64 31.1,278.81" fill="none" stroke="#000000" stroke-width="1"/><polyline id="SvgjsPolyline10493" points="563.8,586.87 559.21,544.67 583.18,509.69" fill="none" stroke="#000000" stroke-width="1"/><polyline id="SvgjsPolyline10494" points="561.47,596.84 589.39,564.66" fill="none" stroke="#000000" stroke-width="1"/><polyline id="SvgjsPolyline10495" points="558.15,569.95 591.9,543.43" fill="none" stroke="#000000" stroke-width="1"/><polyline id="SvgjsPolyline10496" points="212.96,272.94 91.09,150.43 0.68,57.59" fill="none" stroke="#000000" stroke-width="1"/><polyline id="SvgjsPolyline10497" points="147.59,214.3 113.26,188.09 40.38,141.71 2.51,120.93" fill="none" stroke="#000000" stroke-width="1"/><polyline id="SvgjsPolyline10498" points="289.34,349.31 198.19,257.18 207.4,216.12 275.89,164.3 315.5,147.16 356.77,134.42 398.75,124.25 441.1,115.76 483.68,108.45 569.22,96.3" fill="none" stroke="#000000" stroke-width="1"/><polyline id="SvgjsPolyline10499" points="190.38,234.12 239.03,164.61 276.17,142.78 316.6,127.62 358.2,116 400.34,106.54 485.43,91.6 571.04,79.95" fill="none" stroke="#000000" stroke-width="1"/><polyline id="SvgjsPolyline10500" points="203.95,263.21 191.07,222.36 220.35,191.31 296.76,151.33 337.53,137.1 379.28,126.02 421.5,116.91 506.67,102.41 592.31,91.02" fill="none" stroke="#000000" stroke-width="1"/><polyline id="SvgjsPolyline10501" points="530.38,590.38 316.68,376.43 256.68,314.26 235.87,276.52 261.68,242.76 336.56,200.1 377.08,185.18 418.72,173.7 460.89,164.34 503.35,156.4 588.76,143.41" fill="none" stroke="#000000" stroke-width="1"/><polyline id="SvgjsPolyline10502" points="323.54,385.79 291.26,357.09 257.24,330.46 185.02,283.06 147.46,261.73 108.6,242.89 68.67,226.42 27.92,212.08" fill="none" stroke="#000000" stroke-width="1"/><polyline id="SvgjsPolyline10503" points="315.58,378.76 282.77,350.67 248.04,324.98 211.22,302.41 172.62,283.03 132.71,266.51 51.07,238.24 9.68,225.9" fill="none" stroke="#000000" stroke-width="1"/><polyline id="SvgjsPolyline10504" points="489.48,591.44 410.62,556.16 370.26,540.79 329.19,527.38 287.62,515.65 245.68,505.31 161.06,487.9 33.07,467.57" fill="none" stroke="#000000" stroke-width="1"/><polyline id="SvgjsPolyline10505" points="381.42,526.85 340.29,513.64 298.64,502.18 214.36,483.25 129.3,468.12 0.96,450.12" fill="none" stroke="#000000" stroke-width="1"/><polyline id="SvgjsPolyline10506" points="580.15,580.58 595.73,541.44" fill="none" stroke="#000000" stroke-width="1"/><polyline id="SvgjsPolyline10507" points="332.64,392.63 180.67,239.14 148.11,159.61 154.89,118.06 186.24,88.94 225.1,70.22 266.09,56.64 307.95,45.95 392.76,29.55 478.25,17.05 564.05,6.92" fill="none" stroke="#000000" stroke-width="1"/><polyline id="SvgjsPolyline10508" points="149.51,209.05 119.45,178.01 87.64,98.21 95.24,56.82 126.97,28.07 165.93,9.54" fill="none" stroke="#000000" stroke-width="1"/><polyline id="SvgjsPolyline10509" points="87.38,152.32 53.73,125.23 18.01,100.95" fill="none" stroke="#000000" stroke-width="1"/><polyline id="SvgjsPolyline10510" points="88.16,147.77 58.02,116.82 28.33,36.29" fill="none" stroke="#000000" stroke-width="1"/><polyline id="SvgjsPolyline10511" points="27.08,86.15 13.39,45.53" fill="none" stroke="#000000" stroke-width="1"/><polyline id="SvgjsPolyline10512" points="237.98,297.4 208.06,266.24 180.08,233.33 215.38,156.71 250.71,132.21 290.61,115.74 332,103.38 374.04,93.44 459.02,77.93 587.48,60.82" fill="none" stroke="#000000" stroke-width="1"/><polyline id="SvgjsPolyline10513" points="173.98,233.19 160.9,192.4 190.11,161.29 228.3,141.27 309.67,112.33 351.38,101.1 393.58,91.91 436.07,84.09 478.73,77.29 564.36,65.83" fill="none" stroke="#000000" stroke-width="1"/><polyline id="SvgjsPolyline10514" points="226.09,294.22 191.29,268.63 154.4,246.17 77.09,207.62 37.33,190.75" fill="none" stroke="#000000" stroke-width="1"/><polyline id="SvgjsPolyline10515" points="488.97,596.65 449.21,579.78 408.49,565.37 367.12,552.95 325.29,542.12 198.67,514.56 113.52,499.95 27.98,487.78" fill="none" stroke="#000000" stroke-width="1"/><polyline id="SvgjsPolyline10516" points="179.52,190.55 186.72,149.08 218.26,120.15 257.18,101.52 298.19,88 340.05,77.34 382.33,68.52 467.56,54.37 596.16,38.37" fill="none" stroke="#000000" stroke-width="1"/><polyline id="SvgjsPolyline10517" points="144.46,203.56 117.35,122.25 129.66,82 163.26,55.31 202.69,37.78 243.9,24.84 285.85,14.54 328.18,5.97" fill="none" stroke="#000000" stroke-width="1"/><polyline id="SvgjsPolyline10518" points="169.91,227.43 144.03,192.86 186.6,119.76 222.96,96.71 263.15,80.94 304.65,68.97 346.74,59.29 431.78,44.08 560.27,27.21" fill="none" stroke="#000000" stroke-width="1"/><polyline id="SvgjsPolyline10519" points="110.1,139.43 169.81,78.36 208.31,58.92 249.18,44.97 290.97,34.05 375.73,17.39 461.2,4.75" fill="none" stroke="#000000" stroke-width="1"/><polyline id="SvgjsPolyline10520" points="167.25,227.53 136.44,197.24 137.19,155.02 202.44,99.43 241.63,81.37 282.74,68.14 324.65,57.66 366.96,48.97 452.21,34.98 580.83,19.11" fill="none" stroke="#000000" stroke-width="1"/><polyline id="SvgjsPolyline10521" points="113.19,172.97 82.86,142.21 57.92,60.3 72.12,20.65" fill="none" stroke="#000000" stroke-width="1"/><polyline id="SvgjsPolyline10522" points="108.82,166.3 83.24,131.52 126.56,58.82 163.01,35.92 203.23,20.23 244.74,8.3" fill="none" stroke="#000000" stroke-width="1"/><polyline id="SvgjsPolyline10523" points="50.07,77.39 110.91,17.35" fill="none" stroke="#000000" stroke-width="1"/><polyline id="SvgjsPolyline10524" points="106.02,166.27 75.24,135.96 77.14,93.81 142.86,38.73 182.1,20.79 223.23,7.62" fill="none" stroke="#000000" stroke-width="1"/><polyline id="SvgjsPolyline10525" points="47.77,105.16 23.04,69.77 45.69,33.99" fill="none" stroke="#000000" stroke-width="1"/><polyline id="SvgjsPolyline10526" points="202.61,132.34 282.99,100.81 324.49,88.84 366.59,79.16 451.63,63.95 580.12,47.08" fill="none" stroke="#000000" stroke-width="1"/><polyline id="SvgjsPolyline10527" points="184.4,190.47 219.06,165.07 298.2,130.61 339.45,117.83 381.43,107.63 466.35,91.8 594.77,74.45" fill="none" stroke="#000000" stroke-width="1"/><polyline id="SvgjsPolyline10528" points="194.67,261.13 160.42,234.81 87.72,188.15 49.93,167.23 10.87,148.79" fill="none" stroke="#000000" stroke-width="1"/><polyline id="SvgjsPolyline10529" points="443.48,594.54 360.98,568.92 277.22,547.76 234.94,538.91 149.88,523.79 21.55,505.73" fill="none" stroke="#000000" stroke-width="1"/><polyline id="SvgjsPolyline10530" points="143.13,200.67 117.2,166.15 138.4,129.55 211.4,83.89 251.64,68.24 293.15,56.33 335.26,46.69 377.69,38.56 463.06,25.31 591.75,10.07" fill="none" stroke="#000000" stroke-width="1"/><polyline id="SvgjsPolyline10531" points="96.87,133.33 151.92,68.35 189.85,47.86 230.52,33.37 272.23,22.14 314.44,12.94 356.92,5.12" fill="none" stroke="#000000" stroke-width="1"/><polyline id="SvgjsPolyline10532" points="139.34,199.34 17.36,76.95 24.88,35.54 58.82,9.25" fill="none" stroke="#000000" stroke-width="1"/><polyline id="SvgjsPolyline10533" points="111.7,170.91 82.03,139.5 56.54,104.65 78.32,68.37 151.55,23.05 191.82,7.49" fill="none" stroke="#000000" stroke-width="1"/><polyline id="SvgjsPolyline10534" points="52.08,110.77 36.74,70.68 93.57,7.13" fill="none" stroke="#000000" stroke-width="1"/><polyline id="SvgjsPolyline10535" points="133.01,198.8 99.02,172.15 26.83,124.7" fill="none" stroke="#000000" stroke-width="1"/><polyline id="SvgjsPolyline10536" points="160.13,237.27 123.27,214.75 84.64,195.42 44.71,178.95 3.88,164.85" fill="none" stroke="#000000" stroke-width="1"/><polyline id="SvgjsPolyline10537" points="396.67,598.35 355.05,586.8 313.07,576.61 228.4,559.43 143.15,545.43 14.66,528.5" fill="none" stroke="#000000" stroke-width="1"/><polyline id="SvgjsPolyline10538" points="460.83,7.26 503.75,2.36" fill="none" stroke="#000000" stroke-width="1"/><polyline id="SvgjsPolyline10539" points="183.98,24.5 225.85,13.92 268.14,5.1" fill="none" stroke="#000000" stroke-width="1"/><polyline id="SvgjsPolyline10540" points="74.7,140.11 40.86,113.26 4.92,89.3" fill="none" stroke="#000000" stroke-width="1"/><polyline id="SvgjsPolyline10541" points="177.7,237.68 56.46,114.56 38.5,75.46 65.84,42.82 103.6,22.05 144.14,7.18" fill="none" stroke="#000000" stroke-width="1"/><polyline id="SvgjsPolyline10542" points="309.18,593.69 266.81,585.25 181.64,570.75 96.1,558.66 10.32,548.35" fill="none" stroke="#000000" stroke-width="1"/><polyline id="SvgjsPolyline10543" points="221.36,594.92 135.88,582.37 7.2,566.95" fill="none" stroke="#000000" stroke-width="1"/><polyline id="SvgjsPolyline10544" points="133.54,599.74 4.8,584.9" fill="none" stroke="#000000" stroke-width="1"/></g></svg>