<?xml version="1.0" encoding="utf-8" standalone="no"?>
<!DOCTYPE svg PUBLIC "-//W3C//DTD SVG 1.1//EN"
  "http://www.w3.org/Graphics/SVG/1.1/DTD/svg11.dtd">
<svg xmlns:xlink="http://www.w3.org/1999/xlink" width="108pt" height="72pt" viewBox="0 0 108 72" xmlns="http://www.w3.org/2000/svg" version="1.1">
 <metadata>
  <rdf:RDF xmlns:dc="http://purl.org/dc/elements/1.1/" xmlns:cc="http://creativecommons.org/ns#" xmlns:rdf="http://www.w3.org/1999/02/22-rdf-syntax-ns#">
   <cc:Work>
    <dc:type rdf:resource="http://purl.org/dc/dcmitype/StillImage"/>
    <dc:date>2023-01-26T21:10:20.282393</dc:date>
    <dc:format>image/svg+xml</dc:format>
    <dc:creator>
     <cc:Agent>
      <dc:title>Matplotlib v3.6.1, https://matplotlib.org/</dc:title>
     </cc:Agent>
    </dc:creator>
   </cc:Work>
  </rdf:RDF>
 </metadata>
 <defs>
  <style type="text/css">*{stroke-linejoin: round; stroke-linecap: butt}</style>
 </defs>
 <g id="figure_1">
  <g id="patch_1">
   <path d="M 0 72 
L 108 72 
L 108 0 
L 0 0 
z
" style="fill: #8fff9f"/>
  </g>
  <g id="axes_1">
   <g id="patch_2">
    <path d="M 1.653061 44.713469 
Q 5.752653 44.779592 12.761633 45.209388 
Q 13.191429 45.242449 13.373265 45.225918 
Q 13.555102 45.209388 13.951837 45.126735 
Q 14.348571 45.044082 14.546939 45.01102 
M 3.24 26.860408 
L 3.24 28.744898 
Q 3.24 30.926939 3.025102 33.323878 
Q 2.810204 35.720816 2.446531 38.630204 
Q 2.082857 41.539592 1.950612 43.126531 
L 1.653061 44.713469 
" clip-path="url(#p3f62b55d89)" style="fill: none; stroke: #000000; stroke-linejoin: miter"/>
   </g>
  </g>
  <g id="axes_2">
   <g id="patch_3">
    <path d="M 24.918579 29.071862 
Q 24.543683 29.146841 24.412469 29.577972 
Q 24.281255 30.009103 24.356234 30.42149 
Q 24.356234 30.571448 24.393724 30.702662 
Q 24.431214 30.833876 24.487448 30.89011 
Q 24.543683 30.946345 24.599917 31.040069 
Q 24.656152 31.133793 24.693641 31.208772 
L 24.80611 29.859145 
M 24.80611 34.020497 
Q 23.906359 39.006621 23.681421 42.793076 
L 24.131297 45.379862 
L 24.468703 46.054676 
" clip-path="url(#pa310f6f9d7)" style="fill: none; stroke: #000000; stroke-linejoin: miter"/>
   </g>
  </g>
  <g id="axes_3"/>
  <g id="axes_4">
   <g id="patch_4">
    <path d="M 62.494615 25.944231 
Q 61.746923 28.062692 60.282692 30.336923 
Q 58.818462 32.611154 57.400962 34.293462 
Q 55.983462 35.975769 54.456923 38.218846 
Q 52.930385 40.461923 52.120385 42.486923 
L 51.559615 44.356154 
M 50.157692 26.505 
Q 51.777692 28.685769 55.126731 33.841731 
Q 58.475769 38.997692 60.531923 41.552308 
L 63.242308 45.197308 
" clip-path="url(#pf0006ea970)" style="fill: none; stroke: #000000; stroke-linejoin: miter"/>
   </g>
  </g>
  <g id="axes_5">
   <g id="patch_5">
    <path d="M 68.288772 35.145186 
Q 68.288772 35.145186 68.288772 35.595062 
Q 68.288772 36.269876 68.176303 37.619503 
Q 68.063834 38.969131 68.063834 39.643945 
Q 68.063834 41.930814 69.300993 43.599103 
Q 70.538152 45.267393 72.675062 45.267393 
Q 74.062179 45.154924 74.830717 43.917766 
Q 75.599255 42.680607 75.749214 41.237255 
Q 75.899172 39.793903 76.1616 37.9944 
Q 76.424028 36.194897 76.836414 35.370124 
Q 76.986372 35.070207 76.986372 35.670041 
Q 76.986372 36.269876 76.723945 38.706703 
Q 76.499007 41.031062 76.499007 41.555917 
Q 76.349048 42.643117 76.686455 43.767807 
Q 77.023862 44.892497 77.736166 45.6048 
" clip-path="url(#p9c888f6575)" style="fill: none; stroke: #000000; stroke-linejoin: miter"/>
   </g>
  </g>
  <g id="axes_6">
   <g id="patch_6">
    <path d="M 82.857798 38.160826 
Q 85.830275 39.535596 90.549083 39.721376 
Q 92.072477 39.721376 92.759862 38.550963 
Q 93.447248 37.38055 93.447248 35.82 
Q 93.447248 35.299817 93.354358 34.909679 
Q 93.261468 34.519541 93.019954 34.296606 
Q 92.77844 34.07367 92.611239 33.943624 
Q 92.444037 33.813578 91.998165 33.757844 
Q 91.552294 33.70211 91.347936 33.683532 
Q 91.143578 33.664954 90.567661 33.683532 
Q 89.991743 33.70211 89.768807 33.70211 
Q 87.725229 33.70211 86.238991 35.578486 
Q 84.752752 37.454862 84.752752 39.609908 
Q 84.752752 42.619541 86.684862 44.570229 
Q 88.616972 46.520917 91.663761 46.520917 
Q 93.818807 46.818165 95.342202 44.29156 
" clip-path="url(#p13287e86e5)" style="fill: none; stroke: #000000; stroke-linejoin: miter"/>
   </g>
  </g>
 </g>
 <defs>
  <clipPath id="p3f62b55d89">
   <rect x="0" y="11.850612" width="16.2" height="47.938776"/>
  </clipPath>
  <clipPath id="pa310f6f9d7">
   <rect x="21.806938" y="8.64" width="4.986124" height="54.36"/>
  </clipPath>
  <clipPath id="pf0006ea970">
   <rect x="48.6" y="13.233462" width="16.2" height="45.173077"/>
  </clipPath>
  <clipPath id="p9c888f6575">
   <rect x="66.189352" y="8.64" width="13.421297" height="54.36"/>
  </clipPath>
  <clipPath id="p13287e86e5">
   <rect x="81" y="8.881927" width="16.2" height="53.876147"/>
  </clipPath>
 </defs>
</svg>
