<?xml version="1.0" encoding="utf-8" standalone="no"?>
<!DOCTYPE svg PUBLIC "-//W3C//DTD SVG 1.1//EN"
  "http://www.w3.org/Graphics/SVG/1.1/DTD/svg11.dtd">
<svg xmlns:xlink="http://www.w3.org/1999/xlink" width="202.5pt" height="162pt" viewBox="0 0 202.5 162" xmlns="http://www.w3.org/2000/svg" version="1.1">
 <metadata>
  <rdf:RDF xmlns:dc="http://purl.org/dc/elements/1.1/" xmlns:cc="http://creativecommons.org/ns#" xmlns:rdf="http://www.w3.org/1999/02/22-rdf-syntax-ns#">
   <cc:Work>
    <dc:type rdf:resource="http://purl.org/dc/dcmitype/StillImage"/>
    <dc:date>2023-02-15T22:52:50.740017</dc:date>
    <dc:format>image/svg+xml</dc:format>
    <dc:creator>
     <cc:Agent>
      <dc:title>Matplotlib v3.6.1, https://matplotlib.org/</dc:title>
     </cc:Agent>
    </dc:creator>
   </cc:Work>
  </rdf:RDF>
 </metadata>
 <defs>
  <style type="text/css">*{stroke-linejoin: round; stroke-linecap: butt}</style>
 </defs>
 <g id="figure_1">
  <g id="patch_1">
   <path d="M 0 162 
L 202.5 162 
L 202.5 0 
L 0 0 
z
" style="fill: #8fff9f"/>
  </g>
  <g id="axes_1">
   <g id="patch_2">
    <path d="M 12.188328 70.591372 
L 23.571767 69.556514 
M 2.874606 87.66653 
L 33.575394 86.631672 
" clip-path="url(#p1abfb83673)" style="fill: none; stroke: #000000; stroke-linejoin: miter"/>
   </g>
  </g>
  <g id="axes_2">
   <g id="patch_3">
    <path d="M 53.839559 75.582351 
L 54.210866 75.582351 
Q 54.644058 75.582351 58.171477 78.521868 
Q 61.698896 81.461384 65.721392 84.988803 
Q 69.743888 88.516222 69.805772 88.578107 
M 49.940832 88.392453 
L 60.337436 97.118175 
M 50.312139 85.421995 
Q 51.178523 85.421995 55.170076 85.174457 
Q 59.16163 84.926919 60.337436 85.050688 
L 54.95348 90.620297 
M 52.539983 80.409346 
L 53.282598 80.409346 
L 56.253056 82.822844 
M 54.39652 74.654083 
L 54.39652 75.211044 
Q 52.849406 78.490925 48.517487 82.111171 
Q 44.185569 85.731418 39.544228 88.578107 
M 58.109593 72.426239 
L 58.666553 72.426239 
L 59.594822 72.426239 
L 62.193973 72.9832 
M 58.109593 70.012742 
L 62.56528 70.012742 
M 46.78472 72.797547 
Q 47.774873 73.106969 49.940832 73.354508 
M 47.156027 70.012742 
Q 47.898642 70.384049 49.352929 70.724414 
Q 50.807216 71.064779 51.054754 71.126664 
M 42.329032 67.599244 
Q 42.452801 67.846783 42.793166 68.527513 
Q 43.133531 69.208243 43.442954 69.641435 
Q 43.752377 70.074626 44.185569 70.384049 
M 42.514686 67.599244 
L 54.210866 67.599244 
Q 54.520289 67.599244 56.067402 67.475475 
Q 57.614516 67.351706 59.316341 67.289822 
Q 61.018166 67.227937 62.781876 67.227937 
Q 64.545586 67.227937 65.69045 67.444533 
Q 66.835314 67.661129 66.835314 68.156205 
Q 66.835314 68.21809 66.64966 69.455781 
L 65.721392 71.312317 
M 56.067402 63.329211 
L 55.139134 74.097122 
M 51.240407 62.586596 
L 52.354329 62.586596 
L 55.139134 62.586596 
L 60.337436 62.215289 
" clip-path="url(#pa822a04bd6)" style="fill: none; stroke: #000000; stroke-linejoin: miter"/>
   </g>
  </g>
  <g id="axes_3">
   <g id="patch_4">
    <path d="M 85.088328 70.591372 
L 96.471767 69.556514 
M 75.774606 87.66653 
L 106.475394 86.631672 
" clip-path="url(#p8f8afc097a)" style="fill: none; stroke: #000000; stroke-linejoin: miter"/>
   </g>
  </g>
  <g id="axes_4">
   <g id="patch_5">
    <path d="M 112.367384 90.371325 
L 142.782616 89.104023 
M 121.298841 78.362136 
Q 122.264404 77.879354 124.678311 77.637964 
Q 127.092219 77.396573 127.997434 77.094834 
L 130.532036 77.094834 
L 132.704553 76.732748 
M 120.635017 69.370331 
Q 120.635017 69.068593 121.600579 69.159114 
Q 122.566142 69.249636 122.807533 69.189288 
L 134.575331 67.378858 
" clip-path="url(#p8a4c871ccc)" style="fill: none; stroke: #000000; stroke-linejoin: miter"/>
   </g>
  </g>
  <g id="axes_5">
   <g id="patch_6">
    <path d="M 162.619283 68.757382 
Q 162.619283 68.757382 162.619283 77.882212 
L 162.619283 89.473214 
L 162.175372 93.46841 
M 148.266171 80.101766 
L 148.858051 80.101766 
Q 153.297158 80.101766 158.52544 79.58387 
Q 163.753721 79.065974 170.141103 78.202815 
Q 176.528484 77.339655 179.783829 76.994391 
M 156.700474 75.366719 
L 156.700474 78.918004 
M 156.996414 75.218748 
L 165.726658 73.887016 
M 156.552503 69.053322 
L 156.848444 69.053322 
L 158.476116 69.053322 
L 166.762449 67.72159 
M 157.292355 65.650007 
L 157.292355 66.537828 
L 155.368742 72.456637 
" clip-path="url(#p3aa2257ef5)" style="fill: none; stroke: #000000; stroke-linejoin: miter"/>
   </g>
  </g>
 </g>
 <defs>
  <clipPath id="p1abfb83673">
   <rect x="0" y="38.913218" width="36.45" height="83.363565"/>
  </clipPath>
  <clipPath id="pa822a04bd6">
   <rect x="36.45" y="35.728701" width="36.45" height="89.732598"/>
  </clipPath>
  <clipPath id="p8f8afc097a">
   <rect x="72.9" y="38.913218" width="36.45" height="83.363565"/>
  </clipPath>
  <clipPath id="p8a4c871ccc">
   <rect x="109.35" y="36.84293" width="36.45" height="87.504139"/>
  </clipPath>
  <clipPath id="p3aa2257ef5">
   <rect x="145.8" y="44.835528" width="36.45" height="71.518945"/>
  </clipPath>
 </defs>
</svg>
