<?xml version="1.0" encoding="utf-8" standalone="no"?>
<!DOCTYPE svg PUBLIC "-//W3C//DTD SVG 1.1//EN"
  "http://www.w3.org/Graphics/SVG/1.1/DTD/svg11.dtd">
<svg xmlns:xlink="http://www.w3.org/1999/xlink" width="630pt" height="72pt" viewBox="0 0 630 72" xmlns="http://www.w3.org/2000/svg" version="1.1">
 <metadata>
  <rdf:RDF xmlns:dc="http://purl.org/dc/elements/1.1/" xmlns:cc="http://creativecommons.org/ns#" xmlns:rdf="http://www.w3.org/1999/02/22-rdf-syntax-ns#">
   <cc:Work>
    <dc:type rdf:resource="http://purl.org/dc/dcmitype/StillImage"/>
    <dc:date>2023-01-27T20:28:05.765897</dc:date>
    <dc:format>image/svg+xml</dc:format>
    <dc:creator>
     <cc:Agent>
      <dc:title>Matplotlib v3.6.1, https://matplotlib.org/</dc:title>
     </cc:Agent>
    </dc:creator>
   </cc:Work>
  </rdf:RDF>
 </metadata>
 <defs>
  <style type="text/css">*{stroke-linejoin: round; stroke-linecap: butt}</style>
 </defs>
 <g id="figure_1">
  <g id="patch_1">
   <path d="M 0 72 
L 630 72 
L 630 0 
L 0 0 
z
" style="fill: #8fff9f"/>
  </g>
  <g id="axes_1">
   <g id="patch_2">
    <path d="M 3.657476 43.917766 
Q 3.957393 44.180193 4.969614 45.154924 
Q 5.981834 46.129655 6.544179 46.560786 
Q 7.106524 46.991917 8.13749 47.385559 
Q 9.168455 47.7792 10.180676 47.629241 
Q 10.85549 47.629241 11.32411 47.404303 
Q 11.792731 47.179366 12.017669 46.879448 
Q 12.242607 46.579531 12.373821 45.979697 
Q 12.505034 45.379862 12.523779 44.967476 
Q 12.542524 44.55509 12.542524 43.805297 
Q 12.542524 42.718097 11.642772 42.043283 
Q 10.743021 41.368469 9.449628 41.031062 
Q 8.156234 40.693655 6.862841 40.300014 
Q 5.569448 39.906372 4.669697 38.987876 
Q 3.769945 38.069379 3.769945 36.607283 
Q 3.769945 36.082428 3.938648 35.726276 
Q 4.107352 35.370124 4.500993 35.145186 
Q 4.894634 34.920248 5.175807 34.807779 
Q 5.456979 34.69531 6.113048 34.639076 
Q 6.769117 34.582841 6.956566 34.582841 
Q 7.144014 34.582841 7.818828 34.582841 
Q 9.018497 34.582841 9.599586 34.995228 
Q 10.180676 35.407614 10.499338 36.026193 
Q 10.818 36.644772 11.080428 36.832221 
" clip-path="url(#pb0318b351f)" style="fill: none; stroke: #000000; stroke-linejoin: miter"/>
   </g>
  </g>
  <g id="axes_2">
   <g id="patch_3">
    <path d="M 20.813462 35.932469 
Q 21.413297 35.257655 22.406772 34.826524 
Q 23.400248 34.395393 24.3 34.470372 
Q 24.937324 34.470372 25.42469 34.639076 
Q 25.912055 34.807779 26.230717 34.995228 
Q 26.549379 35.182676 26.774317 35.670041 
Q 26.999255 36.157407 27.111724 36.419834 
Q 27.224193 36.682262 27.280428 37.375821 
Q 27.336662 38.069379 27.355407 38.331807 
Q 27.374152 38.594234 27.355407 39.419007 
Q 27.336662 40.243779 27.336662 40.431228 
Q 27.336662 41.368469 27.167959 43.242952 
Q 26.999255 45.117434 26.999255 46.054676 
Q 26.999255 46.467062 27.05549 46.823214 
Q 27.111724 47.179366 27.205448 47.610497 
Q 27.299172 48.041628 27.336662 48.304055 
L 27.786538 48.528993 
M 21.263338 23.111007 
Q 21.488276 24.798041 21.488276 29.971614 
L 21.488276 42.3432 
L 21.150869 46.841959 
L 20.925931 47.74171 
" clip-path="url(#p6a2428b306)" style="fill: none; stroke: #000000; stroke-linejoin: miter"/>
   </g>
  </g>
  <g id="axes_3">
   <g id="patch_4">
    <path d="M 34.257798 38.160826 
Q 37.230275 39.535596 41.949083 39.721376 
Q 43.472477 39.721376 44.159862 38.550963 
Q 44.847248 37.38055 44.847248 35.82 
Q 44.847248 35.299817 44.754358 34.909679 
Q 44.661468 34.519541 44.419954 34.296606 
Q 44.17844 34.07367 44.011239 33.943624 
Q 43.844037 33.813578 43.398165 33.757844 
Q 42.952294 33.70211 42.747936 33.683532 
Q 42.543578 33.664954 41.967661 33.683532 
Q 41.391743 33.70211 41.168807 33.70211 
Q 39.125229 33.70211 37.638991 35.578486 
Q 36.152752 37.454862 36.152752 39.609908 
Q 36.152752 42.619541 38.084862 44.570229 
Q 40.016972 46.520917 43.063761 46.520917 
Q 45.218807 46.818165 46.742202 44.29156 
" clip-path="url(#p331a3545f6)" style="fill: none; stroke: #000000; stroke-linejoin: miter"/>
   </g>
  </g>
  <g id="axes_4"/>
  <g id="axes_5">
   <g id="patch_5">
    <path d="M 73.518579 29.071862 
Q 73.143683 29.146841 73.012469 29.577972 
Q 72.881255 30.009103 72.956234 30.42149 
Q 72.956234 30.571448 72.993724 30.702662 
Q 73.031214 30.833876 73.087448 30.89011 
Q 73.143683 30.946345 73.199917 31.040069 
Q 73.256152 31.133793 73.293641 31.208772 
L 73.40611 29.859145 
M 73.40611 34.020497 
Q 72.506359 39.006621 72.281421 42.793076 
L 72.731297 45.379862 
L 73.068703 46.054676 
" clip-path="url(#p3592cbfd3a)" style="fill: none; stroke: #000000; stroke-linejoin: miter"/>
   </g>
  </g>
  <g id="axes_6">
   <g id="patch_6">
    <path d="M 84.657476 43.917766 
Q 84.957393 44.180193 85.969614 45.154924 
Q 86.981834 46.129655 87.544179 46.560786 
Q 88.106524 46.991917 89.13749 47.385559 
Q 90.168455 47.7792 91.180676 47.629241 
Q 91.85549 47.629241 92.32411 47.404303 
Q 92.792731 47.179366 93.017669 46.879448 
Q 93.242607 46.579531 93.373821 45.979697 
Q 93.505034 45.379862 93.523779 44.967476 
Q 93.542524 44.55509 93.542524 43.805297 
Q 93.542524 42.718097 92.642772 42.043283 
Q 91.743021 41.368469 90.449628 41.031062 
Q 89.156234 40.693655 87.862841 40.300014 
Q 86.569448 39.906372 85.669697 38.987876 
Q 84.769945 38.069379 84.769945 36.607283 
Q 84.769945 36.082428 84.938648 35.726276 
Q 85.107352 35.370124 85.500993 35.145186 
Q 85.894634 34.920248 86.175807 34.807779 
Q 86.456979 34.69531 87.113048 34.639076 
Q 87.769117 34.582841 87.956566 34.582841 
Q 88.144014 34.582841 88.818828 34.582841 
Q 90.018497 34.582841 90.599586 34.995228 
Q 91.180676 35.407614 91.499338 36.026193 
Q 91.818 36.644772 92.080428 36.832221 
" clip-path="url(#pb402b48d43)" style="fill: none; stroke: #000000; stroke-linejoin: miter"/>
   </g>
  </g>
  <g id="axes_7"/>
  <g id="axes_8">
   <g id="patch_7">
    <path d="M 117.226179 34.807779 
Q 118.838234 36.719752 120.131628 39.6252 
Q 121.425021 42.530648 121.724938 45.154924 
Q 122.774648 43.655338 123.693145 38.819172 
Q 124.611641 33.983007 125.773821 32.108524 
" clip-path="url(#pca2ca7a544)" style="fill: none; stroke: #000000; stroke-linejoin: miter"/>
   </g>
  </g>
  <g id="axes_9">
   <g id="patch_8">
    <path d="M 131.457798 38.160826 
Q 134.430275 39.535596 139.149083 39.721376 
Q 140.672477 39.721376 141.359862 38.550963 
Q 142.047248 37.38055 142.047248 35.82 
Q 142.047248 35.299817 141.954358 34.909679 
Q 141.861468 34.519541 141.619954 34.296606 
Q 141.37844 34.07367 141.211239 33.943624 
Q 141.044037 33.813578 140.598165 33.757844 
Q 140.152294 33.70211 139.947936 33.683532 
Q 139.743578 33.664954 139.167661 33.683532 
Q 138.591743 33.70211 138.368807 33.70211 
Q 136.325229 33.70211 134.838991 35.578486 
Q 133.352752 37.454862 133.352752 39.609908 
Q 133.352752 42.619541 135.284862 44.570229 
Q 137.216972 46.520917 140.263761 46.520917 
Q 142.418807 46.818165 143.942202 44.29156 
" clip-path="url(#pa9a8975828)" style="fill: none; stroke: #000000; stroke-linejoin: miter"/>
   </g>
  </g>
  <g id="axes_10">
   <g id="patch_9">
    <path d="M 150.413462 32.783338 
Q 150.938317 34.507862 151.069531 36.457324 
Q 151.200745 38.406786 151.125766 40.956083 
Q 151.050786 43.505379 151.088276 44.705048 
L 151.200745 46.054676 
L 151.200745 45.829738 
Q 151.200745 44.667559 150.919572 42.30571 
Q 150.6384 39.943862 150.6384 38.744193 
Q 150.6384 36.419834 151.650621 34.882759 
Q 152.662841 33.345683 154.687283 33.345683 
Q 155.399586 33.345683 155.736993 33.626855 
Q 156.0744 33.908028 156.336828 34.432883 
Q 156.599255 34.957738 156.936662 35.257655 
L 157.386538 36.832221 
" clip-path="url(#p2a98abf22c)" style="fill: none; stroke: #000000; stroke-linejoin: miter"/>
   </g>
  </g>
  <g id="axes_11">
   <g id="patch_10">
    <path d="M 164.963917 36.382345 
Q 164.926428 36.494814 165.057641 36.701007 
Q 165.188855 36.9072 165.076386 37.057159 
L 165.076386 39.306538 
Q 165.076386 40.506207 165.413793 41.724621 
Q 165.7512 42.943034 166.613462 43.93651 
Q 167.475724 44.929986 168.675393 44.929986 
Q 169.912552 44.929986 170.587366 43.861531 
Q 171.262179 42.793076 171.712055 41.143531 
Q 172.161931 39.493986 172.499338 38.969131 
L 173.286621 36.382345 
L 173.061683 42.680607 
L 173.061683 45.154924 
Q 173.061683 47.066897 173.792731 51.00331 
Q 174.523779 54.939724 174.523779 56.964166 
Q 175.273572 59.213545 174.186372 60.188276 
Q 173.099172 61.163007 171.037241 60.78811 
Q 169.237738 60.488193 168.319241 60.169531 
Q 167.400745 59.850869 165.413793 58.988607 
L 165.301324 58.426262 
" clip-path="url(#p66dae967f9)" style="fill: none; stroke: #000000; stroke-linejoin: miter"/>
   </g>
  </g>
  <g id="axes_12"/>
  <g id="axes_13">
   <g id="patch_11">
    <path d="M 203.118579 29.071862 
Q 202.743683 29.146841 202.612469 29.577972 
Q 202.481255 30.009103 202.556234 30.42149 
Q 202.556234 30.571448 202.593724 30.702662 
Q 202.631214 30.833876 202.687448 30.89011 
Q 202.743683 30.946345 202.799917 31.040069 
Q 202.856152 31.133793 202.893641 31.208772 
L 203.00611 29.859145 
M 203.00611 34.020497 
Q 202.106359 39.006621 201.881421 42.793076 
L 202.331297 45.379862 
L 202.668703 46.054676 
" clip-path="url(#p737c923e04)" style="fill: none; stroke: #000000; stroke-linejoin: miter"/>
   </g>
  </g>
  <g id="axes_14">
   <g id="patch_12">
    <path d="M 213.863834 32.783338 
L 213.863834 33.345683 
Q 214.726097 39.718924 214.763586 47.066897 
Q 214.763586 47.81669 214.688607 47.029407 
Q 214.238731 42.080772 214.088772 35.82 
L 214.088772 35.145186 
Q 214.088772 33.6456 215.682083 33.008276 
Q 217.275393 32.370952 218.7 32.783338 
Q 220.237076 33.233214 221.211807 34.414138 
Q 222.186538 35.595062 222.561434 37.282097 
Q 222.936331 38.969131 223.067545 40.543697 
Q 223.198759 42.118262 223.273738 44.067724 
Q 223.348717 46.017186 223.536166 47.066897 
" clip-path="url(#pef68588734)" style="fill: none; stroke: #000000; stroke-linejoin: miter"/>
   </g>
  </g>
  <g id="axes_15">
   <g id="patch_13">
    <path d="M 230.063834 37.95691 
L 230.738648 37.95691 
Q 231.450952 37.95691 232.238234 37.881931 
Q 233.025517 37.806952 233.981503 37.675738 
Q 234.93749 37.544524 235.462345 37.507034 
L 239.736166 35.82 
M 235.687283 30.42149 
L 235.687283 31.43371 
Q 235.687283 33.383172 235.012469 37.207117 
Q 234.337655 41.031062 234.337655 43.018014 
Q 234.337655 43.805297 234.337655 44.105214 
Q 234.337655 44.405131 234.431379 45.042455 
Q 234.525103 45.679779 234.712552 45.960952 
Q 234.9 46.242124 235.293641 46.485807 
Q 235.687283 46.72949 236.249628 46.72949 
Q 236.362097 46.692 236.680759 46.72949 
Q 236.999421 46.766979 237.186869 46.710745 
Q 237.374317 46.65451 237.374317 46.392083 
" clip-path="url(#p2d1e384455)" style="fill: none; stroke: #000000; stroke-linejoin: miter"/>
   </g>
  </g>
  <g id="axes_16">
   <g id="patch_14">
    <path d="M 244.857798 38.160826 
Q 247.830275 39.535596 252.549083 39.721376 
Q 254.072477 39.721376 254.759862 38.550963 
Q 255.447248 37.38055 255.447248 35.82 
Q 255.447248 35.299817 255.354358 34.909679 
Q 255.261468 34.519541 255.019954 34.296606 
Q 254.77844 34.07367 254.611239 33.943624 
Q 254.444037 33.813578 253.998165 33.757844 
Q 253.552294 33.70211 253.347936 33.683532 
Q 253.143578 33.664954 252.567661 33.683532 
Q 251.991743 33.70211 251.768807 33.70211 
Q 249.725229 33.70211 248.238991 35.578486 
Q 246.752752 37.454862 246.752752 39.609908 
Q 246.752752 42.619541 248.684862 44.570229 
Q 250.616972 46.520917 253.663761 46.520917 
Q 255.818807 46.818165 257.342202 44.29156 
" clip-path="url(#p9ed993cced)" style="fill: none; stroke: #000000; stroke-linejoin: miter"/>
   </g>
  </g>
  <g id="axes_17">
   <g id="patch_15">
    <path d="M 263.813462 32.783338 
Q 264.338317 34.507862 264.469531 36.457324 
Q 264.600745 38.406786 264.525766 40.956083 
Q 264.450786 43.505379 264.488276 44.705048 
L 264.600745 46.054676 
L 264.600745 45.829738 
Q 264.600745 44.667559 264.319572 42.30571 
Q 264.0384 39.943862 264.0384 38.744193 
Q 264.0384 36.419834 265.050621 34.882759 
Q 266.062841 33.345683 268.087283 33.345683 
Q 268.799586 33.345683 269.136993 33.626855 
Q 269.4744 33.908028 269.736828 34.432883 
Q 269.999255 34.957738 270.336662 35.257655 
L 270.786538 36.832221 
" clip-path="url(#p42b3201db9)" style="fill: none; stroke: #000000; stroke-linejoin: miter"/>
   </g>
  </g>
  <g id="axes_18">
   <g id="patch_16">
    <path d="M 277.257798 38.160826 
Q 280.230275 39.535596 284.949083 39.721376 
Q 286.472477 39.721376 287.159862 38.550963 
Q 287.847248 37.38055 287.847248 35.82 
Q 287.847248 35.299817 287.754358 34.909679 
Q 287.661468 34.519541 287.419954 34.296606 
Q 287.17844 34.07367 287.011239 33.943624 
Q 286.844037 33.813578 286.398165 33.757844 
Q 285.952294 33.70211 285.747936 33.683532 
Q 285.543578 33.664954 284.967661 33.683532 
Q 284.391743 33.70211 284.168807 33.70211 
Q 282.125229 33.70211 280.638991 35.578486 
Q 279.152752 37.454862 279.152752 39.609908 
Q 279.152752 42.619541 281.084862 44.570229 
Q 283.016972 46.520917 286.063761 46.520917 
Q 288.218807 46.818165 289.742202 44.29156 
" clip-path="url(#p6049ca8558)" style="fill: none; stroke: #000000; stroke-linejoin: miter"/>
   </g>
  </g>
  <g id="axes_19">
   <g id="patch_17">
    <path d="M 295.257476 43.917766 
Q 295.557393 44.180193 296.569614 45.154924 
Q 297.581834 46.129655 298.144179 46.560786 
Q 298.706524 46.991917 299.73749 47.385559 
Q 300.768455 47.7792 301.780676 47.629241 
Q 302.45549 47.629241 302.92411 47.404303 
Q 303.392731 47.179366 303.617669 46.879448 
Q 303.842607 46.579531 303.973821 45.979697 
Q 304.105034 45.379862 304.123779 44.967476 
Q 304.142524 44.55509 304.142524 43.805297 
Q 304.142524 42.718097 303.242772 42.043283 
Q 302.343021 41.368469 301.049628 41.031062 
Q 299.756234 40.693655 298.462841 40.300014 
Q 297.169448 39.906372 296.269697 38.987876 
Q 295.369945 38.069379 295.369945 36.607283 
Q 295.369945 36.082428 295.538648 35.726276 
Q 295.707352 35.370124 296.100993 35.145186 
Q 296.494634 34.920248 296.775807 34.807779 
Q 297.056979 34.69531 297.713048 34.639076 
Q 298.369117 34.582841 298.556566 34.582841 
Q 298.744014 34.582841 299.418828 34.582841 
Q 300.618497 34.582841 301.199586 34.995228 
Q 301.780676 35.407614 302.099338 36.026193 
Q 302.418 36.644772 302.680428 36.832221 
" clip-path="url(#p23f0d3db7a)" style="fill: none; stroke: #000000; stroke-linejoin: miter"/>
   </g>
  </g>
  <g id="axes_20">
   <g id="patch_18">
    <path d="M 311.063834 37.95691 
L 311.738648 37.95691 
Q 312.450952 37.95691 313.238234 37.881931 
Q 314.025517 37.806952 314.981503 37.675738 
Q 315.93749 37.544524 316.462345 37.507034 
L 320.736166 35.82 
M 316.687283 30.42149 
L 316.687283 31.43371 
Q 316.687283 33.383172 316.012469 37.207117 
Q 315.337655 41.031062 315.337655 43.018014 
Q 315.337655 43.805297 315.337655 44.105214 
Q 315.337655 44.405131 315.431379 45.042455 
Q 315.525103 45.679779 315.712552 45.960952 
Q 315.9 46.242124 316.293641 46.485807 
Q 316.687283 46.72949 317.249628 46.72949 
Q 317.362097 46.692 317.680759 46.72949 
Q 317.999421 46.766979 318.186869 46.710745 
Q 318.374317 46.65451 318.374317 46.392083 
" clip-path="url(#pe1aa91d5e2)" style="fill: none; stroke: #000000; stroke-linejoin: miter"/>
   </g>
  </g>
  <g id="axes_21">
   <g id="patch_19">
    <path d="M 325.857798 38.160826 
Q 328.830275 39.535596 333.549083 39.721376 
Q 335.072477 39.721376 335.759862 38.550963 
Q 336.447248 37.38055 336.447248 35.82 
Q 336.447248 35.299817 336.354358 34.909679 
Q 336.261468 34.519541 336.019954 34.296606 
Q 335.77844 34.07367 335.611239 33.943624 
Q 335.444037 33.813578 334.998165 33.757844 
Q 334.552294 33.70211 334.347936 33.683532 
Q 334.143578 33.664954 333.567661 33.683532 
Q 332.991743 33.70211 332.768807 33.70211 
Q 330.725229 33.70211 329.238991 35.578486 
Q 327.752752 37.454862 327.752752 39.609908 
Q 327.752752 42.619541 329.684862 44.570229 
Q 331.616972 46.520917 334.663761 46.520917 
Q 336.818807 46.818165 338.342202 44.29156 
" clip-path="url(#pd6b586bb47)" style="fill: none; stroke: #000000; stroke-linejoin: miter"/>
   </g>
  </g>
  <g id="axes_22">
   <g id="patch_20">
    <path d="M 351.899007 38.444276 
Q 350.549379 37.057159 348.3 37.319586 
Q 345.450786 37.319586 344.288607 38.669214 
Q 343.126428 40.018841 343.126428 42.943034 
Q 343.126428 44.442621 344.419821 45.154924 
Q 345.713214 45.867228 347.287779 45.867228 
Q 348.599917 45.867228 349.612138 44.611324 
Q 350.624359 43.355421 351.205448 41.181021 
Q 351.786538 39.006621 352.161434 36.813476 
Q 352.536331 34.620331 352.68629 31.921076 
Q 352.836248 29.221821 352.873738 27.853448 
Q 352.911228 26.485076 352.911228 25.060469 
Q 352.68629 25.135448 352.68629 28.771945 
L 352.68629 43.167972 
L 353.473572 47.104386 
" clip-path="url(#p11a5a4555b)" style="fill: none; stroke: #000000; stroke-linejoin: miter"/>
   </g>
  </g>
  <g id="axes_23"/>
  <g id="axes_24">
   <g id="patch_21">
    <path d="M 381.318579 29.071862 
Q 380.943683 29.146841 380.812469 29.577972 
Q 380.681255 30.009103 380.756234 30.42149 
Q 380.756234 30.571448 380.793724 30.702662 
Q 380.831214 30.833876 380.887448 30.89011 
Q 380.943683 30.946345 380.999917 31.040069 
Q 381.056152 31.133793 381.093641 31.208772 
L 381.20611 29.859145 
M 381.20611 34.020497 
Q 380.306359 39.006621 380.081421 42.793076 
L 380.531297 45.379862 
L 380.868703 46.054676 
" clip-path="url(#p70218dc45e)" style="fill: none; stroke: #000000; stroke-linejoin: miter"/>
   </g>
  </g>
  <g id="axes_25">
   <g id="patch_22">
    <path d="M 392.063834 32.783338 
L 392.063834 33.345683 
Q 392.926097 39.718924 392.963586 47.066897 
Q 392.963586 47.81669 392.888607 47.029407 
Q 392.438731 42.080772 392.288772 35.82 
L 392.288772 35.145186 
Q 392.288772 33.6456 393.882083 33.008276 
Q 395.475393 32.370952 396.9 32.783338 
Q 398.437076 33.233214 399.411807 34.414138 
Q 400.386538 35.595062 400.761434 37.282097 
Q 401.136331 38.969131 401.267545 40.543697 
Q 401.398759 42.118262 401.473738 44.067724 
Q 401.548717 46.017186 401.736166 47.066897 
" clip-path="url(#pb6b6b21e6b)" style="fill: none; stroke: #000000; stroke-linejoin: miter"/>
   </g>
  </g>
  <g id="axes_26"/>
  <g id="axes_27">
   <g id="patch_23">
    <path d="M 434.91018 35.173293 
Q 434.683832 35.108623 433.826946 34.752934 
Q 432.97006 34.397246 432.388024 34.267904 
Q 431.805988 34.138563 431.223952 34.203234 
Q 428.895808 34.203234 427.440719 36.321198 
Q 425.985629 38.439162 425.985629 40.799641 
Q 425.985629 42.254731 430.641916 42.254731 
Q 432.032335 42.254731 433.212575 40.912814 
Q 434.392814 39.570898 434.991018 37.905629 
Q 435.589222 36.240359 435.589222 34.882275 
Q 435.589222 33.556527 435.556886 33.297844 
L 435.492216 34.267904 
Q 435.492216 34.688263 435.492216 35.076287 
Q 435.783234 42.287066 435.45988 45.64994 
Q 434.360479 57.969701 426.276647 57.969701 
Q 424.821557 57.969701 423.851497 57.306826 
Q 422.881437 56.643952 422.881437 55.253533 
Q 422.816766 55.059521 422.849102 55.059521 
Q 422.881437 55.059521 422.978443 55.059521 
Q 423.075449 55.059521 423.075449 54.962515 
" clip-path="url(#pa285fa65f6)" style="fill: none; stroke: #000000; stroke-linejoin: miter"/>
   </g>
  </g>
  <g id="axes_28">
   <g id="patch_24">
    <path d="M 439.257798 38.160826 
Q 442.230275 39.535596 446.949083 39.721376 
Q 448.472477 39.721376 449.159862 38.550963 
Q 449.847248 37.38055 449.847248 35.82 
Q 449.847248 35.299817 449.754358 34.909679 
Q 449.661468 34.519541 449.419954 34.296606 
Q 449.17844 34.07367 449.011239 33.943624 
Q 448.844037 33.813578 448.398165 33.757844 
Q 447.952294 33.70211 447.747936 33.683532 
Q 447.543578 33.664954 446.967661 33.683532 
Q 446.391743 33.70211 446.168807 33.70211 
Q 444.125229 33.70211 442.638991 35.578486 
Q 441.152752 37.454862 441.152752 39.609908 
Q 441.152752 42.619541 443.084862 44.570229 
Q 445.016972 46.520917 448.063761 46.520917 
Q 450.218807 46.818165 451.742202 44.29156 
" clip-path="url(#p0542a9a81f)" style="fill: none; stroke: #000000; stroke-linejoin: miter"/>
   </g>
  </g>
  <g id="axes_29">
   <g id="patch_25">
    <path d="M 456.863834 32.783338 
L 456.863834 33.345683 
Q 457.726097 39.718924 457.763586 47.066897 
Q 457.763586 47.81669 457.688607 47.029407 
Q 457.238731 42.080772 457.088772 35.82 
L 457.088772 35.145186 
Q 457.088772 33.6456 458.682083 33.008276 
Q 460.275393 32.370952 461.7 32.783338 
Q 463.237076 33.233214 464.211807 34.414138 
Q 465.186538 35.595062 465.561434 37.282097 
Q 465.936331 38.969131 466.067545 40.543697 
Q 466.198759 42.118262 466.273738 44.067724 
Q 466.348717 46.017186 466.536166 47.066897 
" clip-path="url(#p9d49a1f4a0)" style="fill: none; stroke: #000000; stroke-linejoin: miter"/>
   </g>
  </g>
  <g id="axes_30">
   <g id="patch_26">
    <path d="M 471.657798 38.160826 
Q 474.630275 39.535596 479.349083 39.721376 
Q 480.872477 39.721376 481.559862 38.550963 
Q 482.247248 37.38055 482.247248 35.82 
Q 482.247248 35.299817 482.154358 34.909679 
Q 482.061468 34.519541 481.819954 34.296606 
Q 481.57844 34.07367 481.411239 33.943624 
Q 481.244037 33.813578 480.798165 33.757844 
Q 480.352294 33.70211 480.147936 33.683532 
Q 479.943578 33.664954 479.367661 33.683532 
Q 478.791743 33.70211 478.568807 33.70211 
Q 476.525229 33.70211 475.038991 35.578486 
Q 473.552752 37.454862 473.552752 39.609908 
Q 473.552752 42.619541 475.484862 44.570229 
Q 477.416972 46.520917 480.463761 46.520917 
Q 482.618807 46.818165 484.142202 44.29156 
" clip-path="url(#p21070bd9d8)" style="fill: none; stroke: #000000; stroke-linejoin: miter"/>
   </g>
  </g>
  <g id="axes_31">
   <g id="patch_27">
    <path d="M 489.263834 37.95691 
L 489.938648 37.95691 
Q 490.650952 37.95691 491.438234 37.881931 
Q 492.225517 37.806952 493.181503 37.675738 
Q 494.13749 37.544524 494.662345 37.507034 
L 498.936166 35.82 
M 494.887283 30.42149 
L 494.887283 31.43371 
Q 494.887283 33.383172 494.212469 37.207117 
Q 493.537655 41.031062 493.537655 43.018014 
Q 493.537655 43.805297 493.537655 44.105214 
Q 493.537655 44.405131 493.631379 45.042455 
Q 493.725103 45.679779 493.912552 45.960952 
Q 494.1 46.242124 494.493641 46.485807 
Q 494.887283 46.72949 495.449628 46.72949 
Q 495.562097 46.692 495.880759 46.72949 
Q 496.199421 46.766979 496.386869 46.710745 
Q 496.574317 46.65451 496.574317 46.392083 
" clip-path="url(#pa085e85240)" style="fill: none; stroke: #000000; stroke-linejoin: miter"/>
   </g>
  </g>
  <g id="axes_32">
   <g id="patch_28">
    <path d="M 510.918579 29.071862 
Q 510.543683 29.146841 510.412469 29.577972 
Q 510.281255 30.009103 510.356234 30.42149 
Q 510.356234 30.571448 510.393724 30.702662 
Q 510.431214 30.833876 510.487448 30.89011 
Q 510.543683 30.946345 510.599917 31.040069 
Q 510.656152 31.133793 510.693641 31.208772 
L 510.80611 29.859145 
M 510.80611 34.020497 
Q 509.906359 39.006621 509.681421 42.793076 
L 510.131297 45.379862 
L 510.468703 46.054676 
" clip-path="url(#pc03be19726)" style="fill: none; stroke: #000000; stroke-linejoin: miter"/>
   </g>
  </g>
  <g id="axes_33">
   <g id="patch_29">
    <path d="M 531.756735 34.365306 
Q 531.756735 34.365306 531.260816 34.365306 
Q 530.467347 34.365306 528.979592 34.067755 
Q 527.491837 33.770204 526.698367 33.770204 
Q 523.921224 33.770204 521.987143 35.224898 
Q 520.053061 36.679592 520.053061 39.423673 
Q 520.053061 40.94449 521.540816 42.399184 
Q 523.028571 43.853878 524.962653 44.663878 
Q 526.896735 45.473878 528.38449 45.473878 
Q 529.310204 45.473878 530.00449 45.110204 
Q 530.698776 44.746531 531.442653 44.118367 
Q 532.186531 43.490204 532.748571 43.192653 
L 532.946939 42.696735 
" clip-path="url(#p5c24a3e815)" style="fill: none; stroke: #000000; stroke-linejoin: miter"/>
   </g>
  </g>
  <g id="axes_34">
   <g id="patch_30">
    <path d="M 538.257476 43.917766 
Q 538.557393 44.180193 539.569614 45.154924 
Q 540.581834 46.129655 541.144179 46.560786 
Q 541.706524 46.991917 542.73749 47.385559 
Q 543.768455 47.7792 544.780676 47.629241 
Q 545.45549 47.629241 545.92411 47.404303 
Q 546.392731 47.179366 546.617669 46.879448 
Q 546.842607 46.579531 546.973821 45.979697 
Q 547.105034 45.379862 547.123779 44.967476 
Q 547.142524 44.55509 547.142524 43.805297 
Q 547.142524 42.718097 546.242772 42.043283 
Q 545.343021 41.368469 544.049628 41.031062 
Q 542.756234 40.693655 541.462841 40.300014 
Q 540.169448 39.906372 539.269697 38.987876 
Q 538.369945 38.069379 538.369945 36.607283 
Q 538.369945 36.082428 538.538648 35.726276 
Q 538.707352 35.370124 539.100993 35.145186 
Q 539.494634 34.920248 539.775807 34.807779 
Q 540.056979 34.69531 540.713048 34.639076 
Q 541.369117 34.582841 541.556566 34.582841 
Q 541.744014 34.582841 542.418828 34.582841 
Q 543.618497 34.582841 544.199586 34.995228 
Q 544.780676 35.407614 545.099338 36.026193 
Q 545.418 36.644772 545.680428 36.832221 
" clip-path="url(#p628ddcd631)" style="fill: none; stroke: #000000; stroke-linejoin: miter"/>
   </g>
  </g>
  <g id="axes_35">
   <g id="patch_31">
    <path d="M 558.825021 46.054676 
Q 558.825021 46.092166 558.750041 46.092166 
Q 558.675062 46.129655 558.675062 46.167145 
Q 558.675062 46.392083 558.9 46.392083 
Q 559.087448 46.392083 559.087448 46.129655 
Q 559.124938 46.017186 558.974979 45.942207 
Q 558.825021 45.867228 558.712552 45.942207 
" clip-path="url(#pdf8733edd2)" style="fill: none; stroke: #000000; stroke-linejoin: miter"/>
   </g>
  </g>
 </g>
 <defs>
  <clipPath id="pb0318b351f">
   <rect x="1.782993" y="8.64" width="12.634014" height="54.36"/>
  </clipPath>
  <clipPath id="p6a2428b306">
   <rect x="18.938979" y="8.64" width="10.722041" height="54.36"/>
  </clipPath>
  <clipPath id="p331a3545f6">
   <rect x="32.4" y="8.881927" width="16.2" height="53.876147"/>
  </clipPath>
  <clipPath id="p3592cbfd3a">
   <rect x="70.406938" y="8.64" width="4.986124" height="54.36"/>
  </clipPath>
  <clipPath id="pb402b48d43">
   <rect x="82.782993" y="8.64" width="12.634014" height="54.36"/>
  </clipPath>
  <clipPath id="pca2ca7a544">
   <rect x="115.351697" y="8.64" width="12.296607" height="54.36"/>
  </clipPath>
  <clipPath id="pa9a8975828">
   <rect x="129.6" y="8.881927" width="16.2" height="53.876147"/>
  </clipPath>
  <clipPath id="p2a98abf22c">
   <rect x="148.538979" y="8.64" width="10.722041" height="54.36"/>
  </clipPath>
  <clipPath id="p66dae967f9">
   <rect x="163.051945" y="8.64" width="14.09611" height="54.36"/>
  </clipPath>
  <clipPath id="p737c923e04">
   <rect x="200.006938" y="8.64" width="4.986124" height="54.36"/>
  </clipPath>
  <clipPath id="pef68588734">
   <rect x="211.989352" y="8.64" width="13.421297" height="54.36"/>
  </clipPath>
  <clipPath id="p2d1e384455">
   <rect x="228.189352" y="8.64" width="13.421297" height="54.36"/>
  </clipPath>
  <clipPath id="p9ed993cced">
   <rect x="243" y="8.881927" width="16.2" height="53.876147"/>
  </clipPath>
  <clipPath id="p42b3201db9">
   <rect x="261.938979" y="8.64" width="10.722041" height="54.36"/>
  </clipPath>
  <clipPath id="p6049ca8558">
   <rect x="275.4" y="8.881927" width="16.2" height="53.876147"/>
  </clipPath>
  <clipPath id="p23f0d3db7a">
   <rect x="293.382993" y="8.64" width="12.634014" height="54.36"/>
  </clipPath>
  <clipPath id="pe1aa91d5e2">
   <rect x="309.189352" y="8.64" width="13.421297" height="54.36"/>
  </clipPath>
  <clipPath id="pd6b586bb47">
   <rect x="324" y="8.881927" width="16.2" height="53.876147"/>
  </clipPath>
  <clipPath id="p11a5a4555b">
   <rect x="341.251945" y="8.64" width="14.09611" height="54.36"/>
  </clipPath>
  <clipPath id="p70218dc45e">
   <rect x="378.206938" y="8.64" width="4.986124" height="54.36"/>
  </clipPath>
  <clipPath id="pb6b6b21e6b">
   <rect x="390.189352" y="8.64" width="13.421297" height="54.36"/>
  </clipPath>
  <clipPath id="pa285fa65f6">
   <rect x="421.2" y="12.376886" width="16.2" height="46.886228"/>
  </clipPath>
  <clipPath id="p0542a9a81f">
   <rect x="437.4" y="8.881927" width="16.2" height="53.876147"/>
  </clipPath>
  <clipPath id="p9d49a1f4a0">
   <rect x="454.989352" y="8.64" width="13.421297" height="54.36"/>
  </clipPath>
  <clipPath id="p21070bd9d8">
   <rect x="469.8" y="8.881927" width="16.2" height="53.876147"/>
  </clipPath>
  <clipPath id="pa085e85240">
   <rect x="487.389352" y="8.64" width="13.421297" height="54.36"/>
  </clipPath>
  <clipPath id="pc03be19726">
   <rect x="507.806938" y="8.64" width="4.986124" height="54.36"/>
  </clipPath>
  <clipPath id="p5c24a3e815">
   <rect x="518.4" y="11.850612" width="16.2" height="47.938776"/>
  </clipPath>
  <clipPath id="p628ddcd631">
   <rect x="536.382993" y="8.64" width="12.634014" height="54.36"/>
  </clipPath>
  <clipPath id="pdf8733edd2">
   <rect x="556.800579" y="8.64" width="4.198841" height="54.36"/>
  </clipPath>
 </defs>
</svg>
