<?xml version="1.0" encoding="utf-8" standalone="no"?>
<!DOCTYPE svg PUBLIC "-//W3C//DTD SVG 1.1//EN"
  "http://www.w3.org/Graphics/SVG/1.1/DTD/svg11.dtd">
<svg xmlns:xlink="http://www.w3.org/1999/xlink" width="432pt" height="72pt" viewBox="0 0 432 72" xmlns="http://www.w3.org/2000/svg" version="1.1">
 <metadata>
  <rdf:RDF xmlns:dc="http://purl.org/dc/elements/1.1/" xmlns:cc="http://creativecommons.org/ns#" xmlns:rdf="http://www.w3.org/1999/02/22-rdf-syntax-ns#">
   <cc:Work>
    <dc:type rdf:resource="http://purl.org/dc/dcmitype/StillImage"/>
    <dc:date>2023-01-27T20:28:09.725512</dc:date>
    <dc:format>image/svg+xml</dc:format>
    <dc:creator>
     <cc:Agent>
      <dc:title>Matplotlib v3.6.1, https://matplotlib.org/</dc:title>
     </cc:Agent>
    </dc:creator>
   </cc:Work>
  </rdf:RDF>
 </metadata>
 <defs>
  <style type="text/css">*{stroke-linejoin: round; stroke-linecap: butt}</style>
 </defs>
 <g id="figure_1">
  <g id="patch_1">
   <path d="M 0 72 
L 432 72 
L 432 0 
L 0 0 
z
" style="fill: #8fff9f"/>
  </g>
  <g id="axes_1">
   <g id="patch_2">
    <path d="M 1.653061 44.713469 
Q 5.752653 44.779592 12.761633 45.209388 
Q 13.191429 45.242449 13.373265 45.225918 
Q 13.555102 45.209388 13.951837 45.126735 
Q 14.348571 45.044082 14.546939 45.01102 
M 3.24 26.860408 
L 3.24 28.744898 
Q 3.24 30.926939 3.025102 33.323878 
Q 2.810204 35.720816 2.446531 38.630204 
Q 2.082857 41.539592 1.950612 43.126531 
L 1.653061 44.713469 
" clip-path="url(#pa7ad0b8095)" style="fill: none; stroke: #000000; stroke-linejoin: miter"/>
   </g>
  </g>
  <g id="axes_2">
   <g id="patch_3">
    <path d="M 21.600745 30.34651 
L 21.600745 30.571448 
Q 21.600745 31.546179 22.575476 32.970786 
Q 23.550207 34.395393 24.524938 34.395393 
Q 24.899834 34.395393 25.255986 33.908028 
Q 25.612138 33.420662 25.9308 32.727103 
Q 26.249462 32.033545 26.324441 31.921076 
L 26.999255 28.771945 
M 25.312221 36.419834 
L 24.862345 44.292662 
L 24.524938 44.742538 
" clip-path="url(#pe5fad5f76f)" style="fill: none; stroke: #000000; stroke-linejoin: miter"/>
   </g>
  </g>
  <g id="axes_3"/>
  <g id="axes_4">
   <g id="patch_4">
    <path d="M 62.494615 25.944231 
Q 61.746923 28.062692 60.282692 30.336923 
Q 58.818462 32.611154 57.400962 34.293462 
Q 55.983462 35.975769 54.456923 38.218846 
Q 52.930385 40.461923 52.120385 42.486923 
L 51.559615 44.356154 
M 50.157692 26.505 
Q 51.777692 28.685769 55.126731 33.841731 
Q 58.475769 38.997692 60.531923 41.552308 
L 63.242308 45.197308 
" clip-path="url(#pbb4f8bba5e)" style="fill: none; stroke: #000000; stroke-linejoin: miter"/>
   </g>
  </g>
  <g id="axes_5">
   <g id="patch_5">
    <path d="M 68.288772 35.145186 
Q 68.288772 35.145186 68.288772 35.595062 
Q 68.288772 36.269876 68.176303 37.619503 
Q 68.063834 38.969131 68.063834 39.643945 
Q 68.063834 41.930814 69.300993 43.599103 
Q 70.538152 45.267393 72.675062 45.267393 
Q 74.062179 45.154924 74.830717 43.917766 
Q 75.599255 42.680607 75.749214 41.237255 
Q 75.899172 39.793903 76.1616 37.9944 
Q 76.424028 36.194897 76.836414 35.370124 
Q 76.986372 35.070207 76.986372 35.670041 
Q 76.986372 36.269876 76.723945 38.706703 
Q 76.499007 41.031062 76.499007 41.555917 
Q 76.349048 42.643117 76.686455 43.767807 
Q 77.023862 44.892497 77.736166 45.6048 
" clip-path="url(#pa6bccc4489)" style="fill: none; stroke: #000000; stroke-linejoin: miter"/>
   </g>
  </g>
  <g id="axes_6">
   <g id="patch_6">
    <path d="M 86.288276 28.359559 
Q 86.400745 28.621986 86.663172 29.353034 
Q 86.9256 30.084083 87.131793 30.533959 
Q 87.337986 30.983834 87.675393 31.50869 
Q 88.0128 32.033545 88.51891 32.258483 
Q 89.025021 32.483421 89.662345 32.408441 
Q 92.474069 32.408441 92.811476 27.009931 
M 83.926428 39.718924 
L 84.376303 39.718924 
Q 84.938648 39.718924 86.400745 40.225034 
Q 87.862841 40.731145 88.650124 40.731145 
Q 91.011972 40.731145 92.305366 39.962607 
Q 93.598759 39.194069 93.598759 37.019669 
Q 93.598759 34.882759 88.312717 34.882759 
Q 87.225517 34.882759 86.456979 35.445103 
Q 85.688441 36.007448 85.313545 36.94469 
Q 84.938648 37.881931 84.769945 38.800428 
Q 84.601241 39.718924 84.601241 40.731145 
Q 84.338814 41.855834 84.71371 42.718097 
Q 85.088607 43.580359 86.025848 44.086469 
Q 86.96309 44.592579 87.806607 44.873752 
Q 88.650124 45.154924 89.774814 45.342372 
Q 90.374648 45.454841 92.3616 45.454841 
Q 92.811476 45.56731 93.148883 45.323628 
Q 93.48629 45.079945 93.823697 44.498855 
Q 94.161103 43.917766 94.273572 43.767807 
" clip-path="url(#p8a905bc061)" style="fill: none; stroke: #000000; stroke-linejoin: miter"/>
   </g>
  </g>
  <g id="axes_7"/>
  <g id="axes_8">
   <g id="patch_7">
    <path d="M 116.6076 35.032717 
Q 116.6076 35.032717 119.981669 35.032717 
Q 120.094138 35.032717 121.837407 34.826524 
Q 123.580676 34.620331 124.592897 34.789034 
Q 125.605117 34.957738 125.605117 35.707531 
Q 125.605117 36.86971 124.592897 38.144359 
Q 123.580676 39.419007 122.118579 40.506207 
Q 120.656483 41.593407 119.194386 42.605628 
Q 117.73229 43.617848 116.720069 44.573834 
Q 115.707848 45.529821 115.707848 46.279614 
L 116.832538 46.279614 
Q 116.870028 46.279614 119.081917 46.054676 
L 127.292152 45.942207 
" clip-path="url(#p432a3a32c5)" style="fill: none; stroke: #000000; stroke-linejoin: miter"/>
   </g>
  </g>
  <g id="axes_9">
   <g id="patch_8">
    <path d="M 134.213462 28.284579 
Q 135.188193 28.771945 136.481586 30.327766 
Q 137.774979 31.883586 138.262345 32.333462 
L 138.937159 33.008276 
M 141.973821 35.932469 
Q 140.661683 35.445103 139.611972 35.482593 
Q 139.349545 35.482593 138.449793 35.501338 
Q 137.550041 35.520083 137.11891 35.538828 
Q 136.687779 35.557572 135.825517 35.670041 
Q 134.963255 35.78251 134.494634 35.913724 
Q 134.026014 36.044938 133.38869 36.344855 
Q 132.751366 36.644772 132.432703 37.038414 
Q 132.114041 37.432055 131.870359 38.050634 
Q 131.626676 38.669214 131.626676 39.419007 
Q 131.626676 41.330979 133.238731 42.84931 
Q 134.850786 44.367641 136.800248 44.367641 
Q 138.149876 44.367641 139.012138 43.824041 
Q 139.8744 43.280441 140.286786 42.3432 
Q 140.699172 41.405959 140.92411 40.412483 
Q 141.149048 39.419007 141.486455 38.256828 
Q 141.823862 37.094648 142.311228 36.382345 
L 142.761103 42.3432 
L 143.773324 45.492331 
" clip-path="url(#p7aa498d020)" style="fill: none; stroke: #000000; stroke-linejoin: miter"/>
   </g>
  </g>
  <g id="axes_10">
   <g id="patch_9">
    <path d="M 154.518579 29.071862 
Q 154.143683 29.146841 154.012469 29.577972 
Q 153.881255 30.009103 153.956234 30.42149 
Q 153.956234 30.571448 153.993724 30.702662 
Q 154.031214 30.833876 154.087448 30.89011 
Q 154.143683 30.946345 154.199917 31.040069 
Q 154.256152 31.133793 154.293641 31.208772 
L 154.40611 29.859145 
M 154.40611 34.020497 
Q 153.506359 39.006621 153.281421 42.793076 
L 153.731297 45.379862 
L 154.068703 46.054676 
" clip-path="url(#p6e2dc5b842)" style="fill: none; stroke: #000000; stroke-linejoin: miter"/>
   </g>
  </g>
  <g id="axes_11"/>
  <g id="axes_12">
   <g id="patch_10">
    <path d="M 189.899007 38.444276 
Q 188.549379 37.057159 186.3 37.319586 
Q 183.450786 37.319586 182.288607 38.669214 
Q 181.126428 40.018841 181.126428 42.943034 
Q 181.126428 44.442621 182.419821 45.154924 
Q 183.713214 45.867228 185.287779 45.867228 
Q 186.599917 45.867228 187.612138 44.611324 
Q 188.624359 43.355421 189.205448 41.181021 
Q 189.786538 39.006621 190.161434 36.813476 
Q 190.536331 34.620331 190.68629 31.921076 
Q 190.836248 29.221821 190.873738 27.853448 
Q 190.911228 26.485076 190.911228 25.060469 
Q 190.68629 25.135448 190.68629 28.771945 
L 190.68629 43.167972 
L 191.473572 47.104386 
" clip-path="url(#p96eee8ab3c)" style="fill: none; stroke: #000000; stroke-linejoin: miter"/>
   </g>
  </g>
  <g id="axes_13">
   <g id="patch_11">
    <path d="M 199.013462 28.284579 
Q 199.988193 28.771945 201.281586 30.327766 
Q 202.574979 31.883586 203.062345 32.333462 
L 203.737159 33.008276 
M 206.773821 35.932469 
Q 205.461683 35.445103 204.411972 35.482593 
Q 204.149545 35.482593 203.249793 35.501338 
Q 202.350041 35.520083 201.91891 35.538828 
Q 201.487779 35.557572 200.625517 35.670041 
Q 199.763255 35.78251 199.294634 35.913724 
Q 198.826014 36.044938 198.18869 36.344855 
Q 197.551366 36.644772 197.232703 37.038414 
Q 196.914041 37.432055 196.670359 38.050634 
Q 196.426676 38.669214 196.426676 39.419007 
Q 196.426676 41.330979 198.038731 42.84931 
Q 199.650786 44.367641 201.600248 44.367641 
Q 202.949876 44.367641 203.812138 43.824041 
Q 204.6744 43.280441 205.086786 42.3432 
Q 205.499172 41.405959 205.72411 40.412483 
Q 205.949048 39.419007 206.286455 38.256828 
Q 206.623862 37.094648 207.111228 36.382345 
L 207.561103 42.3432 
L 208.573324 45.492331 
" clip-path="url(#p9f9d81d13b)" style="fill: none; stroke: #000000; stroke-linejoin: miter"/>
   </g>
  </g>
  <g id="axes_14">
   <g id="patch_12">
    <path d="M 222.299007 34.920248 
Q 221.436745 36.007448 218.325103 40.018841 
Q 215.213462 44.030234 213.526428 46.054676 
M 214.426179 36.044938 
Q 216.300662 37.319586 218.793724 40.843614 
Q 221.286786 44.367641 222.861352 45.6048 
L 223.873572 45.942207 
" clip-path="url(#p199717f385)" style="fill: none; stroke: #000000; stroke-linejoin: miter"/>
   </g>
  </g>
  <g id="axes_15">
   <g id="patch_13">
    <path d="M 230.288772 35.145186 
Q 230.288772 35.145186 230.288772 35.595062 
Q 230.288772 36.269876 230.176303 37.619503 
Q 230.063834 38.969131 230.063834 39.643945 
Q 230.063834 41.930814 231.300993 43.599103 
Q 232.538152 45.267393 234.675062 45.267393 
Q 236.062179 45.154924 236.830717 43.917766 
Q 237.599255 42.680607 237.749214 41.237255 
Q 237.899172 39.793903 238.1616 37.9944 
Q 238.424028 36.194897 238.836414 35.370124 
Q 238.986372 35.070207 238.986372 35.670041 
Q 238.986372 36.269876 238.723945 38.706703 
Q 238.499007 41.031062 238.499007 41.555917 
Q 238.349048 42.643117 238.686455 43.767807 
Q 239.023862 44.892497 239.736166 45.6048 
" clip-path="url(#pddf961c647)" style="fill: none; stroke: #000000; stroke-linejoin: miter"/>
   </g>
  </g>
  <g id="axes_16">
   <g id="patch_14">
    <path d="M 247.8384 29.859145 
Q 248.100828 29.896634 248.438234 29.2968 
Q 248.775641 28.696966 249.300497 28.846924 
L 253.799255 24.798041 
M 246.938648 36.157407 
L 247.163586 36.157407 
Q 247.87589 36.157407 249.43171 36.832221 
Q 250.987531 37.507034 251.887283 37.507034 
Q 254.586538 37.507034 254.586538 34.245434 
Q 254.586538 32.108524 251.212469 32.108524 
Q 249.337986 32.108524 248.250786 33.251959 
Q 247.163586 34.395393 247.163586 36.269876 
Q 247.163586 39.11909 248.494469 40.956083 
Q 249.825352 42.793076 252.562097 42.793076 
Q 254.024193 43.092993 255.261352 41.106041 
" clip-path="url(#p541fbc6824)" style="fill: none; stroke: #000000; stroke-linejoin: miter"/>
   </g>
  </g>
  <g id="axes_17"/>
  <g id="axes_18">
   <g id="patch_15">
    <path d="M 283.544917 36.269168 
Q 281.927911 35.520555 280.490573 35.550499 
Q 278.723845 35.550499 277.810536 37.062699 
Q 276.897227 38.574898 276.897227 40.491349 
Q 276.897227 41.838854 277.615896 42.692274 
Q 278.334566 43.545693 279.68207 43.545693 
Q 280.640296 43.545693 281.65841 41.449575 
Q 282.676525 39.353457 283.245471 37.107616 
Q 283.814418 34.861774 283.814418 33.933494 
L 283.814418 36.718336 
Q 284.742699 41.898743 284.622921 51.810388 
Q 284.533087 59.715749 284.802588 59.715749 
Q 285.281701 59.715749 286.404621 57.589686 
Q 287.527542 55.463623 288.725323 52.67878 
Q 289.923105 49.893937 290.012939 49.744214 
L 290.102773 49.38488 
" clip-path="url(#p1a88c3caad)" style="fill: none; stroke: #000000; stroke-linejoin: miter"/>
   </g>
  </g>
  <g id="axes_19">
   <g id="patch_16">
    <path d="M 297.675559 33.68309 
Q 298.125434 33.270703 299.606276 32.183503 
Q 301.087117 31.096303 301.724441 30.309021 
M 298.012966 36.157407 
Q 297.975476 36.269876 297.994221 37.338331 
Q 298.012966 38.406786 298.012966 38.519255 
Q 298.012966 39.643945 298.275393 40.693655 
Q 298.537821 41.743366 298.968952 43.018014 
Q 299.400083 44.292662 299.587531 45.042455 
L 300.037407 45.492331 
" clip-path="url(#pe8b56abd1a)" style="fill: none; stroke: #000000; stroke-linejoin: miter"/>
   </g>
  </g>
  <g id="axes_20">
   <g id="patch_17">
    <path d="M 316.256152 30.309021 
Q 315.768786 30.42149 316.181172 30.833876 
Q 316.556069 31.208772 316.631048 30.946345 
Q 316.668538 30.871366 316.593559 30.646428 
Q 316.593559 30.458979 316.518579 30.42149 
Q 316.4436 30.384 316.312386 30.42149 
Q 316.181172 30.458979 316.031214 30.42149 
L 315.918745 30.646428 
M 316.818497 33.345683 
Q 317.868207 37.731972 318.393062 40.13131 
Q 318.917917 42.530648 319.367793 46.317103 
Q 319.817669 50.103559 319.630221 53.25269 
Q 319.630221 53.440138 319.630221 54.021228 
Q 319.630221 54.602317 319.630221 54.902234 
Q 319.630221 55.202152 319.611476 55.783241 
Q 319.592731 56.364331 319.517752 56.701738 
Q 319.442772 57.039145 319.330303 57.52651 
Q 319.217834 58.013876 319.011641 58.313793 
Q 318.805448 58.61371 318.543021 58.894883 
Q 318.280593 59.176055 317.905697 59.307269 
Q 317.5308 59.438483 317.043434 59.438483 
Q 316.068703 59.438483 315.31891 59.251034 
Q 314.569117 59.063586 313.706855 58.707434 
Q 312.844593 58.351283 312.207269 58.201324 
L 311.982331 57.751448 
" clip-path="url(#p77a4b5b117)" style="fill: none; stroke: #000000; stroke-linejoin: miter"/>
   </g>
  </g>
  <g id="axes_21">
   <g id="patch_18">
    <path d="M 332.718579 29.071862 
Q 332.343683 29.146841 332.212469 29.577972 
Q 332.081255 30.009103 332.156234 30.42149 
Q 332.156234 30.571448 332.193724 30.702662 
Q 332.231214 30.833876 332.287448 30.89011 
Q 332.343683 30.946345 332.399917 31.040069 
Q 332.456152 31.133793 332.493641 31.208772 
L 332.60611 29.859145 
M 332.60611 34.020497 
Q 331.706359 39.006621 331.481421 42.793076 
L 331.931297 45.379862 
L 332.268703 46.054676 
" clip-path="url(#pf996856622)" style="fill: none; stroke: #000000; stroke-linejoin: miter"/>
   </g>
  </g>
  <g id="axes_22">
   <g id="patch_19">
    <path d="M 342.377221 29.066925 
L 352.562187 29.066925 
M 351.787244 33.384465 
Q 351.787244 33.384465 348.908884 33.384465 
Q 345.919818 33.384465 343.98246 35.026606 
Q 342.045103 36.668747 342.045103 39.584009 
Q 342.045103 41.318405 343.779499 42.222506 
Q 345.513895 43.126606 347.469704 43.126606 
Q 348.982688 42.83139 349.849886 41.650524 
Q 350.717084 40.469658 350.938497 39.251891 
Q 351.159909 38.034123 351.36287 36.115216 
Q 351.565831 34.19631 351.787244 33.384465 
Q 354.333485 42.978998 354.444191 43.901549 
L 354.554897 45.00861 
" clip-path="url(#p57f5abcdb4)" style="fill: none; stroke: #000000; stroke-linejoin: miter"/>
   </g>
  </g>
  <g id="axes_23">
   <g id="patch_20">
    <path d="M 359.663834 32.783338 
L 359.663834 33.345683 
Q 360.526097 39.718924 360.563586 47.066897 
Q 360.563586 47.81669 360.488607 47.029407 
Q 360.038731 42.080772 359.888772 35.82 
L 359.888772 35.145186 
Q 359.888772 33.6456 361.482083 33.008276 
Q 363.075393 32.370952 364.5 32.783338 
Q 366.037076 33.233214 367.011807 34.414138 
Q 367.986538 35.595062 368.361434 37.282097 
Q 368.736331 38.969131 368.867545 40.543697 
Q 368.998759 42.118262 369.073738 44.067724 
Q 369.148717 46.017186 369.336166 47.066897 
" clip-path="url(#pd897dd2fa2)" style="fill: none; stroke: #000000; stroke-linejoin: miter"/>
   </g>
  </g>
  <g id="axes_24">
   <g id="patch_21">
    <path d="M 380.137655 40.656166 
Q 380.250124 40.806124 380.606276 41.031062 
Q 380.962428 41.256 381.112386 41.499683 
Q 381.262345 41.743366 381.149876 42.118262 
Q 381.187366 42.3432 381.168621 42.624372 
Q 381.149876 42.905545 381.112386 43.149228 
Q 381.074897 43.39291 380.887448 43.542869 
Q 380.7 43.692828 380.362593 43.692828 
" clip-path="url(#p648c6d9e61)" style="fill: none; stroke: #000000; stroke-linejoin: miter"/>
   </g>
  </g>
 </g>
 <defs>
  <clipPath id="pa7ad0b8095">
   <rect x="0" y="11.850612" width="16.2" height="47.938776"/>
  </clipPath>
  <clipPath id="pe5fad5f76f">
   <rect x="19.726262" y="8.64" width="9.147476" height="54.36"/>
  </clipPath>
  <clipPath id="pbb4f8bba5e">
   <rect x="48.6" y="13.233462" width="16.2" height="45.173077"/>
  </clipPath>
  <clipPath id="pa6bccc4489">
   <rect x="66.189352" y="8.64" width="13.421297" height="54.36"/>
  </clipPath>
  <clipPath id="p8a905bc061">
   <rect x="82.051945" y="8.64" width="14.09611" height="54.36"/>
  </clipPath>
  <clipPath id="p432a3a32c5">
   <rect x="113.833366" y="8.64" width="15.333269" height="54.36"/>
  </clipPath>
  <clipPath id="p7aa498d020">
   <rect x="129.752193" y="8.64" width="15.895614" height="54.36"/>
  </clipPath>
  <clipPath id="p6e2dc5b842">
   <rect x="151.406938" y="8.64" width="4.986124" height="54.36"/>
  </clipPath>
  <clipPath id="p96eee8ab3c">
   <rect x="179.251945" y="8.64" width="14.09611" height="54.36"/>
  </clipPath>
  <clipPath id="p9f9d81d13b">
   <rect x="194.552193" y="8.64" width="15.895614" height="54.36"/>
  </clipPath>
  <clipPath id="p199717f385">
   <rect x="211.651945" y="8.64" width="14.09611" height="54.36"/>
  </clipPath>
  <clipPath id="pddf961c647">
   <rect x="228.189352" y="8.64" width="13.421297" height="54.36"/>
  </clipPath>
  <clipPath id="p541fbc6824">
   <rect x="245.064166" y="8.64" width="12.071669" height="54.36"/>
  </clipPath>
  <clipPath id="p1a88c3caad">
   <rect x="275.4" y="14.110203" width="16.2" height="43.419593"/>
  </clipPath>
  <clipPath id="pe8b56abd1a">
   <rect x="295.801076" y="8.64" width="7.797848" height="54.36"/>
  </clipPath>
  <clipPath id="p77a4b5b117">
   <rect x="310.107848" y="8.64" width="11.584303" height="54.36"/>
  </clipPath>
  <clipPath id="pf996856622">
   <rect x="329.606938" y="8.64" width="4.986124" height="54.36"/>
  </clipPath>
  <clipPath id="p57f5abcdb4">
   <rect x="340.2" y="9.066014" width="16.2" height="53.507973"/>
  </clipPath>
  <clipPath id="pd897dd2fa2">
   <rect x="357.789352" y="8.64" width="13.421297" height="54.36"/>
  </clipPath>
  <clipPath id="p648c6d9e61">
   <rect x="378.263172" y="8.64" width="4.873655" height="54.36"/>
  </clipPath>
 </defs>
</svg>
