<?xml version="1.0" encoding="utf-8" standalone="no"?>
<!DOCTYPE svg PUBLIC "-//W3C//DTD SVG 1.1//EN"
  "http://www.w3.org/Graphics/SVG/1.1/DTD/svg11.dtd">
<svg xmlns:xlink="http://www.w3.org/1999/xlink" width="504pt" height="72pt" viewBox="0 0 504 72" xmlns="http://www.w3.org/2000/svg" version="1.1">
 <metadata>
  <rdf:RDF xmlns:dc="http://purl.org/dc/elements/1.1/" xmlns:cc="http://creativecommons.org/ns#" xmlns:rdf="http://www.w3.org/1999/02/22-rdf-syntax-ns#">
   <cc:Work>
    <dc:type rdf:resource="http://purl.org/dc/dcmitype/StillImage"/>
    <dc:date>2023-01-27T20:28:20.159988</dc:date>
    <dc:format>image/svg+xml</dc:format>
    <dc:creator>
     <cc:Agent>
      <dc:title>Matplotlib v3.6.1, https://matplotlib.org/</dc:title>
     </cc:Agent>
    </dc:creator>
   </cc:Work>
  </rdf:RDF>
 </metadata>
 <defs>
  <style type="text/css">*{stroke-linejoin: round; stroke-linecap: butt}</style>
 </defs>
 <g id="figure_1">
  <g id="patch_1">
   <path d="M 0 72 
L 504 72 
L 504 0 
L 0 0 
z
" style="fill: #8fff9f"/>
  </g>
  <g id="axes_1">
   <g id="patch_2">
    <path d="M 3.657476 43.917766 
Q 3.957393 44.180193 4.969614 45.154924 
Q 5.981834 46.129655 6.544179 46.560786 
Q 7.106524 46.991917 8.13749 47.385559 
Q 9.168455 47.7792 10.180676 47.629241 
Q 10.85549 47.629241 11.32411 47.404303 
Q 11.792731 47.179366 12.017669 46.879448 
Q 12.242607 46.579531 12.373821 45.979697 
Q 12.505034 45.379862 12.523779 44.967476 
Q 12.542524 44.55509 12.542524 43.805297 
Q 12.542524 42.718097 11.642772 42.043283 
Q 10.743021 41.368469 9.449628 41.031062 
Q 8.156234 40.693655 6.862841 40.300014 
Q 5.569448 39.906372 4.669697 38.987876 
Q 3.769945 38.069379 3.769945 36.607283 
Q 3.769945 36.082428 3.938648 35.726276 
Q 4.107352 35.370124 4.500993 35.145186 
Q 4.894634 34.920248 5.175807 34.807779 
Q 5.456979 34.69531 6.113048 34.639076 
Q 6.769117 34.582841 6.956566 34.582841 
Q 7.144014 34.582841 7.818828 34.582841 
Q 9.018497 34.582841 9.599586 34.995228 
Q 10.180676 35.407614 10.499338 36.026193 
Q 10.818 36.644772 11.080428 36.832221 
" clip-path="url(#pa6786c5293)" style="fill: none; stroke: #000000; stroke-linejoin: miter"/>
   </g>
  </g>
  <g id="axes_2">
   <g id="patch_3">
    <path d="M 20.813462 35.932469 
Q 21.413297 35.257655 22.406772 34.826524 
Q 23.400248 34.395393 24.3 34.470372 
Q 24.937324 34.470372 25.42469 34.639076 
Q 25.912055 34.807779 26.230717 34.995228 
Q 26.549379 35.182676 26.774317 35.670041 
Q 26.999255 36.157407 27.111724 36.419834 
Q 27.224193 36.682262 27.280428 37.375821 
Q 27.336662 38.069379 27.355407 38.331807 
Q 27.374152 38.594234 27.355407 39.419007 
Q 27.336662 40.243779 27.336662 40.431228 
Q 27.336662 41.368469 27.167959 43.242952 
Q 26.999255 45.117434 26.999255 46.054676 
Q 26.999255 46.467062 27.05549 46.823214 
Q 27.111724 47.179366 27.205448 47.610497 
Q 27.299172 48.041628 27.336662 48.304055 
L 27.786538 48.528993 
M 21.263338 23.111007 
Q 21.488276 24.798041 21.488276 29.971614 
L 21.488276 42.3432 
L 21.150869 46.841959 
L 20.925931 47.74171 
" clip-path="url(#pfee9403738)" style="fill: none; stroke: #000000; stroke-linejoin: miter"/>
   </g>
  </g>
  <g id="axes_3">
   <g id="patch_4">
    <path d="M 34.257798 38.160826 
Q 37.230275 39.535596 41.949083 39.721376 
Q 43.472477 39.721376 44.159862 38.550963 
Q 44.847248 37.38055 44.847248 35.82 
Q 44.847248 35.299817 44.754358 34.909679 
Q 44.661468 34.519541 44.419954 34.296606 
Q 44.17844 34.07367 44.011239 33.943624 
Q 43.844037 33.813578 43.398165 33.757844 
Q 42.952294 33.70211 42.747936 33.683532 
Q 42.543578 33.664954 41.967661 33.683532 
Q 41.391743 33.70211 41.168807 33.70211 
Q 39.125229 33.70211 37.638991 35.578486 
Q 36.152752 37.454862 36.152752 39.609908 
Q 36.152752 42.619541 38.084862 44.570229 
Q 40.016972 46.520917 43.063761 46.520917 
Q 45.218807 46.818165 46.742202 44.29156 
" clip-path="url(#p37a2b604ff)" style="fill: none; stroke: #000000; stroke-linejoin: miter"/>
   </g>
  </g>
  <g id="axes_4"/>
  <g id="axes_5">
   <g id="patch_5">
    <path d="M 69.357228 36.494814 
Q 70.406938 36.457324 70.594386 36.382345 
Q 74.005945 36.382345 75.786703 38.463021 
Q 77.567462 40.543697 77.567462 44.030234 
Q 77.567462 46.954428 72.956234 46.954428 
Q 72.31891 46.954428 71.77531 46.841959 
Q 71.23171 46.72949 70.594386 46.504552 
Q 69.957062 46.279614 69.469697 46.167145 
L 68.232538 44.929986 
M 69.244759 24.685572 
L 69.244759 25.810262 
Q 69.244759 28.659476 69.357228 32.258483 
Q 69.469697 35.85749 69.657145 40.150055 
Q 69.844593 44.442621 69.919572 46.392083 
" clip-path="url(#p4f0ddab0f5)" style="fill: none; stroke: #000000; stroke-linejoin: miter"/>
   </g>
  </g>
  <g id="axes_6">
   <g id="patch_6">
    <path d="M 82.857798 38.160826 
Q 85.830275 39.535596 90.549083 39.721376 
Q 92.072477 39.721376 92.759862 38.550963 
Q 93.447248 37.38055 93.447248 35.82 
Q 93.447248 35.299817 93.354358 34.909679 
Q 93.261468 34.519541 93.019954 34.296606 
Q 92.77844 34.07367 92.611239 33.943624 
Q 92.444037 33.813578 91.998165 33.757844 
Q 91.552294 33.70211 91.347936 33.683532 
Q 91.143578 33.664954 90.567661 33.683532 
Q 89.991743 33.70211 89.768807 33.70211 
Q 87.725229 33.70211 86.238991 35.578486 
Q 84.752752 37.454862 84.752752 39.609908 
Q 84.752752 42.619541 86.684862 44.570229 
Q 88.616972 46.520917 91.663761 46.520917 
Q 93.818807 46.818165 95.342202 44.29156 
" clip-path="url(#pc3c671a889)" style="fill: none; stroke: #000000; stroke-linejoin: miter"/>
   </g>
  </g>
  <g id="axes_7">
   <g id="patch_7">
    <path d="M 110.91018 35.173293 
Q 110.683832 35.108623 109.826946 34.752934 
Q 108.97006 34.397246 108.388024 34.267904 
Q 107.805988 34.138563 107.223952 34.203234 
Q 104.895808 34.203234 103.440719 36.321198 
Q 101.985629 38.439162 101.985629 40.799641 
Q 101.985629 42.254731 106.641916 42.254731 
Q 108.032335 42.254731 109.212575 40.912814 
Q 110.392814 39.570898 110.991018 37.905629 
Q 111.589222 36.240359 111.589222 34.882275 
Q 111.589222 33.556527 111.556886 33.297844 
L 111.492216 34.267904 
Q 111.492216 34.688263 111.492216 35.076287 
Q 111.783234 42.287066 111.45988 45.64994 
Q 110.360479 57.969701 102.276647 57.969701 
Q 100.821557 57.969701 99.851497 57.306826 
Q 98.881437 56.643952 98.881437 55.253533 
Q 98.816766 55.059521 98.849102 55.059521 
Q 98.881437 55.059521 98.978443 55.059521 
Q 99.075449 55.059521 99.075449 54.962515 
" clip-path="url(#pac81c633bf)" style="fill: none; stroke: #000000; stroke-linejoin: miter"/>
   </g>
  </g>
  <g id="axes_8">
   <g id="patch_8">
    <path d="M 125.496408 36.371229 
Q 124.424575 35.1769 120.902836 35.1769 
Q 119.555388 35.1769 118.866352 35.222836 
Q 118.177316 35.268771 117.289225 35.483138 
Q 116.401134 35.697505 115.972401 36.14155 
Q 115.543667 36.585595 115.237429 37.412439 
Q 114.931191 38.239282 114.931191 39.494858 
Q 114.931191 41.332287 116.186767 42.434745 
Q 117.442344 43.537202 119.157278 43.537202 
Q 121.515312 43.537202 123.965217 38.392401 
Q 125.159546 35.850624 125.159546 35.82 
Q 125.465784 35.605633 125.496408 36.371229 
Q 125.496408 37.320567 125.863894 39.847032 
Q 126.23138 42.373497 126.23138 43.537202 
M 128.068809 44.731531 
" clip-path="url(#p1c9527f514)" style="fill: none; stroke: #000000; stroke-linejoin: miter"/>
   </g>
  </g>
  <g id="axes_9">
   <g id="patch_9">
    <path d="M 132.863834 32.783338 
L 132.863834 33.345683 
Q 133.726097 39.718924 133.763586 47.066897 
Q 133.763586 47.81669 133.688607 47.029407 
Q 133.238731 42.080772 133.088772 35.82 
L 133.088772 35.145186 
Q 133.088772 33.6456 134.682083 33.008276 
Q 136.275393 32.370952 137.7 32.783338 
Q 139.237076 33.233214 140.211807 34.414138 
Q 141.186538 35.595062 141.561434 37.282097 
Q 141.936331 38.969131 142.067545 40.543697 
Q 142.198759 42.118262 142.273738 44.067724 
Q 142.348717 46.017186 142.536166 47.066897 
" clip-path="url(#pbccbd42af1)" style="fill: none; stroke: #000000; stroke-linejoin: miter"/>
   </g>
  </g>
  <g id="axes_10"/>
  <g id="axes_11">
   <g id="patch_10">
    <path d="M 165.657476 43.917766 
Q 165.957393 44.180193 166.969614 45.154924 
Q 167.981834 46.129655 168.544179 46.560786 
Q 169.106524 46.991917 170.13749 47.385559 
Q 171.168455 47.7792 172.180676 47.629241 
Q 172.85549 47.629241 173.32411 47.404303 
Q 173.792731 47.179366 174.017669 46.879448 
Q 174.242607 46.579531 174.373821 45.979697 
Q 174.505034 45.379862 174.523779 44.967476 
Q 174.542524 44.55509 174.542524 43.805297 
Q 174.542524 42.718097 173.642772 42.043283 
Q 172.743021 41.368469 171.449628 41.031062 
Q 170.156234 40.693655 168.862841 40.300014 
Q 167.569448 39.906372 166.669697 38.987876 
Q 165.769945 38.069379 165.769945 36.607283 
Q 165.769945 36.082428 165.938648 35.726276 
Q 166.107352 35.370124 166.500993 35.145186 
Q 166.894634 34.920248 167.175807 34.807779 
Q 167.456979 34.69531 168.113048 34.639076 
Q 168.769117 34.582841 168.956566 34.582841 
Q 169.144014 34.582841 169.818828 34.582841 
Q 171.018497 34.582841 171.599586 34.995228 
Q 172.180676 35.407614 172.499338 36.026193 
Q 172.818 36.644772 173.080428 36.832221 
" clip-path="url(#pa7aafba453)" style="fill: none; stroke: #000000; stroke-linejoin: miter"/>
   </g>
  </g>
  <g id="axes_12">
   <g id="patch_11">
    <path d="M 181.463834 37.95691 
L 182.138648 37.95691 
Q 182.850952 37.95691 183.638234 37.881931 
Q 184.425517 37.806952 185.381503 37.675738 
Q 186.33749 37.544524 186.862345 37.507034 
L 191.136166 35.82 
M 187.087283 30.42149 
L 187.087283 31.43371 
Q 187.087283 33.383172 186.412469 37.207117 
Q 185.737655 41.031062 185.737655 43.018014 
Q 185.737655 43.805297 185.737655 44.105214 
Q 185.737655 44.405131 185.831379 45.042455 
Q 185.925103 45.679779 186.112552 45.960952 
Q 186.3 46.242124 186.693641 46.485807 
Q 187.087283 46.72949 187.649628 46.72949 
Q 187.762097 46.692 188.080759 46.72949 
Q 188.399421 46.766979 188.586869 46.710745 
Q 188.774317 46.65451 188.774317 46.392083 
" clip-path="url(#p3a026a4654)" style="fill: none; stroke: #000000; stroke-linejoin: miter"/>
   </g>
  </g>
  <g id="axes_13">
   <g id="patch_12">
    <path d="M 197.888772 35.145186 
Q 197.888772 35.145186 197.888772 35.595062 
Q 197.888772 36.269876 197.776303 37.619503 
Q 197.663834 38.969131 197.663834 39.643945 
Q 197.663834 41.930814 198.900993 43.599103 
Q 200.138152 45.267393 202.275062 45.267393 
Q 203.662179 45.154924 204.430717 43.917766 
Q 205.199255 42.680607 205.349214 41.237255 
Q 205.499172 39.793903 205.7616 37.9944 
Q 206.024028 36.194897 206.436414 35.370124 
Q 206.586372 35.070207 206.586372 35.670041 
Q 206.586372 36.269876 206.323945 38.706703 
Q 206.099007 41.031062 206.099007 41.555917 
Q 205.949048 42.643117 206.286455 43.767807 
Q 206.623862 44.892497 207.336166 45.6048 
" clip-path="url(#pa14de62cfa)" style="fill: none; stroke: #000000; stroke-linejoin: miter"/>
   </g>
  </g>
  <g id="axes_14">
   <g id="patch_13">
    <path d="M 222.299007 38.444276 
Q 220.949379 37.057159 218.7 37.319586 
Q 215.850786 37.319586 214.688607 38.669214 
Q 213.526428 40.018841 213.526428 42.943034 
Q 213.526428 44.442621 214.819821 45.154924 
Q 216.113214 45.867228 217.687779 45.867228 
Q 218.999917 45.867228 220.012138 44.611324 
Q 221.024359 43.355421 221.605448 41.181021 
Q 222.186538 39.006621 222.561434 36.813476 
Q 222.936331 34.620331 223.08629 31.921076 
Q 223.236248 29.221821 223.273738 27.853448 
Q 223.311228 26.485076 223.311228 25.060469 
Q 223.08629 25.135448 223.08629 28.771945 
L 223.08629 43.167972 
L 223.873572 47.104386 
" clip-path="url(#p4ee5eb1911)" style="fill: none; stroke: #000000; stroke-linejoin: miter"/>
   </g>
  </g>
  <g id="axes_15">
   <g id="patch_14">
    <path d="M 229.763917 36.382345 
Q 229.726428 36.494814 229.857641 36.701007 
Q 229.988855 36.9072 229.876386 37.057159 
L 229.876386 39.306538 
Q 229.876386 40.506207 230.213793 41.724621 
Q 230.5512 42.943034 231.413462 43.93651 
Q 232.275724 44.929986 233.475393 44.929986 
Q 234.712552 44.929986 235.387366 43.861531 
Q 236.062179 42.793076 236.512055 41.143531 
Q 236.961931 39.493986 237.299338 38.969131 
L 238.086621 36.382345 
L 237.861683 42.680607 
L 237.861683 45.154924 
Q 237.861683 47.066897 238.592731 51.00331 
Q 239.323779 54.939724 239.323779 56.964166 
Q 240.073572 59.213545 238.986372 60.188276 
Q 237.899172 61.163007 235.837241 60.78811 
Q 234.037738 60.488193 233.119241 60.169531 
Q 232.200745 59.850869 230.213793 58.988607 
L 230.101324 58.426262 
" clip-path="url(#pa04087e516)" style="fill: none; stroke: #000000; stroke-linejoin: miter"/>
   </g>
  </g>
  <g id="axes_16">
   <g id="patch_15">
    <path d="M 251.718579 29.071862 
Q 251.343683 29.146841 251.212469 29.577972 
Q 251.081255 30.009103 251.156234 30.42149 
Q 251.156234 30.571448 251.193724 30.702662 
Q 251.231214 30.833876 251.287448 30.89011 
Q 251.343683 30.946345 251.399917 31.040069 
Q 251.456152 31.133793 251.493641 31.208772 
L 251.60611 29.859145 
M 251.60611 34.020497 
Q 250.706359 39.006621 250.481421 42.793076 
L 250.931297 45.379862 
L 251.268703 46.054676 
" clip-path="url(#p7bd91195df)" style="fill: none; stroke: #000000; stroke-linejoin: miter"/>
   </g>
  </g>
  <g id="axes_17">
   <g id="patch_16">
    <path d="M 262.463834 32.783338 
L 262.463834 33.345683 
Q 263.326097 39.718924 263.363586 47.066897 
Q 263.363586 47.81669 263.288607 47.029407 
Q 262.838731 42.080772 262.688772 35.82 
L 262.688772 35.145186 
Q 262.688772 33.6456 264.282083 33.008276 
Q 265.875393 32.370952 267.3 32.783338 
Q 268.837076 33.233214 269.811807 34.414138 
Q 270.786538 35.595062 271.161434 37.282097 
Q 271.536331 38.969131 271.667545 40.543697 
Q 271.798759 42.118262 271.873738 44.067724 
Q 271.948717 46.017186 272.136166 47.066897 
" clip-path="url(#p4cdd1eafe7)" style="fill: none; stroke: #000000; stroke-linejoin: miter"/>
   </g>
  </g>
  <g id="axes_18">
   <g id="patch_17">
    <path d="M 289.11018 35.173293 
Q 288.883832 35.108623 288.026946 34.752934 
Q 287.17006 34.397246 286.588024 34.267904 
Q 286.005988 34.138563 285.423952 34.203234 
Q 283.095808 34.203234 281.640719 36.321198 
Q 280.185629 38.439162 280.185629 40.799641 
Q 280.185629 42.254731 284.841916 42.254731 
Q 286.232335 42.254731 287.412575 40.912814 
Q 288.592814 39.570898 289.191018 37.905629 
Q 289.789222 36.240359 289.789222 34.882275 
Q 289.789222 33.556527 289.756886 33.297844 
L 289.692216 34.267904 
Q 289.692216 34.688263 289.692216 35.076287 
Q 289.983234 42.287066 289.65988 45.64994 
Q 288.560479 57.969701 280.476647 57.969701 
Q 279.021557 57.969701 278.051497 57.306826 
Q 277.081437 56.643952 277.081437 55.253533 
Q 277.016766 55.059521 277.049102 55.059521 
Q 277.081437 55.059521 277.178443 55.059521 
Q 277.275449 55.059521 277.275449 54.962515 
" clip-path="url(#p588e8103ae)" style="fill: none; stroke: #000000; stroke-linejoin: miter"/>
   </g>
  </g>
  <g id="axes_19"/>
  <g id="axes_20">
   <g id="patch_18">
    <path d="M 321.51018 35.173293 
Q 321.283832 35.108623 320.426946 34.752934 
Q 319.57006 34.397246 318.988024 34.267904 
Q 318.405988 34.138563 317.823952 34.203234 
Q 315.495808 34.203234 314.040719 36.321198 
Q 312.585629 38.439162 312.585629 40.799641 
Q 312.585629 42.254731 317.241916 42.254731 
Q 318.632335 42.254731 319.812575 40.912814 
Q 320.992814 39.570898 321.591018 37.905629 
Q 322.189222 36.240359 322.189222 34.882275 
Q 322.189222 33.556527 322.156886 33.297844 
L 322.092216 34.267904 
Q 322.092216 34.688263 322.092216 35.076287 
Q 322.383234 42.287066 322.05988 45.64994 
Q 320.960479 57.969701 312.876647 57.969701 
Q 311.421557 57.969701 310.451497 57.306826 
Q 309.481437 56.643952 309.481437 55.253533 
Q 309.416766 55.059521 309.449102 55.059521 
Q 309.481437 55.059521 309.578443 55.059521 
Q 309.675449 55.059521 309.675449 54.962515 
" clip-path="url(#p4dd5b41481)" style="fill: none; stroke: #000000; stroke-linejoin: miter"/>
   </g>
  </g>
  <g id="axes_21">
   <g id="patch_19">
    <path d="M 325.857798 38.160826 
Q 328.830275 39.535596 333.549083 39.721376 
Q 335.072477 39.721376 335.759862 38.550963 
Q 336.447248 37.38055 336.447248 35.82 
Q 336.447248 35.299817 336.354358 34.909679 
Q 336.261468 34.519541 336.019954 34.296606 
Q 335.77844 34.07367 335.611239 33.943624 
Q 335.444037 33.813578 334.998165 33.757844 
Q 334.552294 33.70211 334.347936 33.683532 
Q 334.143578 33.664954 333.567661 33.683532 
Q 332.991743 33.70211 332.768807 33.70211 
Q 330.725229 33.70211 329.238991 35.578486 
Q 327.752752 37.454862 327.752752 39.609908 
Q 327.752752 42.619541 329.684862 44.570229 
Q 331.616972 46.520917 334.663761 46.520917 
Q 336.818807 46.818165 338.342202 44.29156 
" clip-path="url(#p2ac2189cbb)" style="fill: none; stroke: #000000; stroke-linejoin: miter"/>
   </g>
  </g>
  <g id="axes_22">
   <g id="patch_20">
    <path d="M 343.463834 32.783338 
L 343.463834 33.345683 
Q 344.326097 39.718924 344.363586 47.066897 
Q 344.363586 47.81669 344.288607 47.029407 
Q 343.838731 42.080772 343.688772 35.82 
L 343.688772 35.145186 
Q 343.688772 33.6456 345.282083 33.008276 
Q 346.875393 32.370952 348.3 32.783338 
Q 349.837076 33.233214 350.811807 34.414138 
Q 351.786538 35.595062 352.161434 37.282097 
Q 352.536331 38.969131 352.667545 40.543697 
Q 352.798759 42.118262 352.873738 44.067724 
Q 352.948717 46.017186 353.136166 47.066897 
" clip-path="url(#peefb4d8d26)" style="fill: none; stroke: #000000; stroke-linejoin: miter"/>
   </g>
  </g>
  <g id="axes_23">
   <g id="patch_21">
    <path d="M 358.257798 38.160826 
Q 361.230275 39.535596 365.949083 39.721376 
Q 367.472477 39.721376 368.159862 38.550963 
Q 368.847248 37.38055 368.847248 35.82 
Q 368.847248 35.299817 368.754358 34.909679 
Q 368.661468 34.519541 368.419954 34.296606 
Q 368.17844 34.07367 368.011239 33.943624 
Q 367.844037 33.813578 367.398165 33.757844 
Q 366.952294 33.70211 366.747936 33.683532 
Q 366.543578 33.664954 365.967661 33.683532 
Q 365.391743 33.70211 365.168807 33.70211 
Q 363.125229 33.70211 361.638991 35.578486 
Q 360.152752 37.454862 360.152752 39.609908 
Q 360.152752 42.619541 362.084862 44.570229 
Q 364.016972 46.520917 367.063761 46.520917 
Q 369.218807 46.818165 370.742202 44.29156 
" clip-path="url(#p17adb91624)" style="fill: none; stroke: #000000; stroke-linejoin: miter"/>
   </g>
  </g>
  <g id="axes_24">
   <g id="patch_22">
    <path d="M 375.863834 37.95691 
L 376.538648 37.95691 
Q 377.250952 37.95691 378.038234 37.881931 
Q 378.825517 37.806952 379.781503 37.675738 
Q 380.73749 37.544524 381.262345 37.507034 
L 385.536166 35.82 
M 381.487283 30.42149 
L 381.487283 31.43371 
Q 381.487283 33.383172 380.812469 37.207117 
Q 380.137655 41.031062 380.137655 43.018014 
Q 380.137655 43.805297 380.137655 44.105214 
Q 380.137655 44.405131 380.231379 45.042455 
Q 380.325103 45.679779 380.512552 45.960952 
Q 380.7 46.242124 381.093641 46.485807 
Q 381.487283 46.72949 382.049628 46.72949 
Q 382.162097 46.692 382.480759 46.72949 
Q 382.799421 46.766979 382.986869 46.710745 
Q 383.174317 46.65451 383.174317 46.392083 
" clip-path="url(#p6016aeaf09)" style="fill: none; stroke: #000000; stroke-linejoin: miter"/>
   </g>
  </g>
  <g id="axes_25">
   <g id="patch_23">
    <path d="M 397.518579 29.071862 
Q 397.143683 29.146841 397.012469 29.577972 
Q 396.881255 30.009103 396.956234 30.42149 
Q 396.956234 30.571448 396.993724 30.702662 
Q 397.031214 30.833876 397.087448 30.89011 
Q 397.143683 30.946345 397.199917 31.040069 
Q 397.256152 31.133793 397.293641 31.208772 
L 397.40611 29.859145 
M 397.40611 34.020497 
Q 396.506359 39.006621 396.281421 42.793076 
L 396.731297 45.379862 
L 397.068703 46.054676 
" clip-path="url(#p3f0d53468d)" style="fill: none; stroke: #000000; stroke-linejoin: miter"/>
   </g>
  </g>
  <g id="axes_26">
   <g id="patch_24">
    <path d="M 418.356735 34.365306 
Q 418.356735 34.365306 417.860816 34.365306 
Q 417.067347 34.365306 415.579592 34.067755 
Q 414.091837 33.770204 413.298367 33.770204 
Q 410.521224 33.770204 408.587143 35.224898 
Q 406.653061 36.679592 406.653061 39.423673 
Q 406.653061 40.94449 408.140816 42.399184 
Q 409.628571 43.853878 411.562653 44.663878 
Q 413.496735 45.473878 414.98449 45.473878 
Q 415.910204 45.473878 416.60449 45.110204 
Q 417.298776 44.746531 418.042653 44.118367 
Q 418.786531 43.490204 419.348571 43.192653 
L 419.546939 42.696735 
" clip-path="url(#pdb23fa2548)" style="fill: none; stroke: #000000; stroke-linejoin: miter"/>
   </g>
  </g>
  <g id="axes_27">
   <g id="patch_25">
    <path d="M 424.857476 43.917766 
Q 425.157393 44.180193 426.169614 45.154924 
Q 427.181834 46.129655 427.744179 46.560786 
Q 428.306524 46.991917 429.33749 47.385559 
Q 430.368455 47.7792 431.380676 47.629241 
Q 432.05549 47.629241 432.52411 47.404303 
Q 432.992731 47.179366 433.217669 46.879448 
Q 433.442607 46.579531 433.573821 45.979697 
Q 433.705034 45.379862 433.723779 44.967476 
Q 433.742524 44.55509 433.742524 43.805297 
Q 433.742524 42.718097 432.842772 42.043283 
Q 431.943021 41.368469 430.649628 41.031062 
Q 429.356234 40.693655 428.062841 40.300014 
Q 426.769448 39.906372 425.869697 38.987876 
Q 424.969945 38.069379 424.969945 36.607283 
Q 424.969945 36.082428 425.138648 35.726276 
Q 425.307352 35.370124 425.700993 35.145186 
Q 426.094634 34.920248 426.375807 34.807779 
Q 426.656979 34.69531 427.313048 34.639076 
Q 427.969117 34.582841 428.156566 34.582841 
Q 428.344014 34.582841 429.018828 34.582841 
Q 430.218497 34.582841 430.799586 34.995228 
Q 431.380676 35.407614 431.699338 36.026193 
Q 432.018 36.644772 432.280428 36.832221 
" clip-path="url(#p7362e6c4cc)" style="fill: none; stroke: #000000; stroke-linejoin: miter"/>
   </g>
  </g>
  <g id="axes_28">
   <g id="patch_26">
    <path d="M 445.425021 46.054676 
Q 445.425021 46.092166 445.350041 46.092166 
Q 445.275062 46.129655 445.275062 46.167145 
Q 445.275062 46.392083 445.5 46.392083 
Q 445.687448 46.392083 445.687448 46.129655 
Q 445.724938 46.017186 445.574979 45.942207 
Q 445.425021 45.867228 445.312552 45.942207 
" clip-path="url(#pe0fc8e2f26)" style="fill: none; stroke: #000000; stroke-linejoin: miter"/>
   </g>
  </g>
 </g>
 <defs>
  <clipPath id="pa6786c5293">
   <rect x="1.782993" y="8.64" width="12.634014" height="54.36"/>
  </clipPath>
  <clipPath id="pfee9403738">
   <rect x="18.938979" y="8.64" width="10.722041" height="54.36"/>
  </clipPath>
  <clipPath id="p37a2b604ff">
   <rect x="32.4" y="8.881927" width="16.2" height="53.876147"/>
  </clipPath>
  <clipPath id="p4f0ddab0f5">
   <rect x="66.358055" y="8.64" width="13.08389" height="54.36"/>
  </clipPath>
  <clipPath id="pc3c671a889">
   <rect x="81" y="8.881927" width="16.2" height="53.876147"/>
  </clipPath>
  <clipPath id="pac81c633bf">
   <rect x="97.2" y="12.376886" width="16.2" height="46.886228"/>
  </clipPath>
  <clipPath id="p1c9527f514">
   <rect x="113.4" y="13.617732" width="16.2" height="44.404537"/>
  </clipPath>
  <clipPath id="pbccbd42af1">
   <rect x="130.989352" y="8.64" width="13.421297" height="54.36"/>
  </clipPath>
  <clipPath id="pa7aafba453">
   <rect x="163.782993" y="8.64" width="12.634014" height="54.36"/>
  </clipPath>
  <clipPath id="p3a026a4654">
   <rect x="179.589352" y="8.64" width="13.421297" height="54.36"/>
  </clipPath>
  <clipPath id="pa14de62cfa">
   <rect x="195.789352" y="8.64" width="13.421297" height="54.36"/>
  </clipPath>
  <clipPath id="p4ee5eb1911">
   <rect x="211.651945" y="8.64" width="14.09611" height="54.36"/>
  </clipPath>
  <clipPath id="pa04087e516">
   <rect x="227.851945" y="8.64" width="14.09611" height="54.36"/>
  </clipPath>
  <clipPath id="p7bd91195df">
   <rect x="248.606938" y="8.64" width="4.986124" height="54.36"/>
  </clipPath>
  <clipPath id="p4cdd1eafe7">
   <rect x="260.589352" y="8.64" width="13.421297" height="54.36"/>
  </clipPath>
  <clipPath id="p588e8103ae">
   <rect x="275.4" y="12.376886" width="16.2" height="46.886228"/>
  </clipPath>
  <clipPath id="p4dd5b41481">
   <rect x="307.8" y="12.376886" width="16.2" height="46.886228"/>
  </clipPath>
  <clipPath id="p2ac2189cbb">
   <rect x="324" y="8.881927" width="16.2" height="53.876147"/>
  </clipPath>
  <clipPath id="peefb4d8d26">
   <rect x="341.589352" y="8.64" width="13.421297" height="54.36"/>
  </clipPath>
  <clipPath id="p17adb91624">
   <rect x="356.4" y="8.881927" width="16.2" height="53.876147"/>
  </clipPath>
  <clipPath id="p6016aeaf09">
   <rect x="373.989352" y="8.64" width="13.421297" height="54.36"/>
  </clipPath>
  <clipPath id="p3f0d53468d">
   <rect x="394.406938" y="8.64" width="4.986124" height="54.36"/>
  </clipPath>
  <clipPath id="pdb23fa2548">
   <rect x="405" y="11.850612" width="16.2" height="47.938776"/>
  </clipPath>
  <clipPath id="p7362e6c4cc">
   <rect x="422.982993" y="8.64" width="12.634014" height="54.36"/>
  </clipPath>
  <clipPath id="pe0fc8e2f26">
   <rect x="443.400579" y="8.64" width="4.198841" height="54.36"/>
  </clipPath>
 </defs>
</svg>
