<?xml version="1.0" encoding="utf-8" standalone="no"?>
<!DOCTYPE svg PUBLIC "-//W3C//DTD SVG 1.1//EN"
  "http://www.w3.org/Graphics/SVG/1.1/DTD/svg11.dtd">
<svg xmlns:xlink="http://www.w3.org/1999/xlink" width="324pt" height="162pt" viewBox="0 0 324 162" xmlns="http://www.w3.org/2000/svg" version="1.1">
 <metadata>
  <rdf:RDF xmlns:dc="http://purl.org/dc/elements/1.1/" xmlns:cc="http://creativecommons.org/ns#" xmlns:rdf="http://www.w3.org/1999/02/22-rdf-syntax-ns#">
   <cc:Work>
    <dc:type rdf:resource="http://purl.org/dc/dcmitype/StillImage"/>
    <dc:date>2023-02-15T22:53:16.906258</dc:date>
    <dc:format>image/svg+xml</dc:format>
    <dc:creator>
     <cc:Agent>
      <dc:title>Matplotlib v3.6.1, https://matplotlib.org/</dc:title>
     </cc:Agent>
    </dc:creator>
   </cc:Work>
  </rdf:RDF>
 </metadata>
 <defs>
  <style type="text/css">*{stroke-linejoin: round; stroke-linecap: butt}</style>
 </defs>
 <g id="figure_1">
  <g id="patch_1">
   <path d="M 0 162 
L 324 162 
L 324 0 
L 0 0 
z
" style="fill: #8fff9f"/>
  </g>
  <g id="axes_1">
   <g id="patch_2">
    <path d="M 3.057886 92.214966 
L 33.392114 89.585185 
M 16.87953 84.87604 
Q 18.897735 90.441393 18.530789 100.287785 
Q 18.347315 102.244832 17.735738 102.244832 
Q 17.246477 102.244832 15.595218 100.104312 
Q 13.821644 97.596846 12.843121 97.352215 
M 12.659648 80.839631 
L 13.39354 80.839631 
Q 14.066275 80.839631 16.390268 80.442106 
Q 18.714262 80.044581 20.732466 79.616477 
L 22.750671 79.188372 
Q 22.750671 79.983423 22.077936 81.175998 
Q 21.405201 82.368574 20.36552 83.775201 
Q 19.325839 85.181829 19.081208 85.609933 
L 18.163842 86.894245 
M 16.390268 66.773356 
Q 18.041527 67.751879 21.313465 71.176711 
Q 24.585403 74.601544 27.031711 75.580067 
L 31.435067 77.414799 
M 16.573742 66.956829 
L 16.206795 66.956829 
Q 15.53406 67.629564 13.638171 69.953557 
Q 11.742282 72.27755 10.243918 73.500705 
Q 8.745554 74.723859 6.849664 75.213121 
L 4.464513 76.680906 
L 3.180201 77.047852 
M 8.133977 68.057668 
Q 12.904279 66.956829 21.894463 66.222936 
Q 22.811829 66.039463 24.64656 65.733674 
Q 26.481292 65.427886 27.215185 65.30557 
M 16.940688 62.920419 
L 16.940688 77.047852 
" clip-path="url(#pd088f89170)" style="fill: none; stroke: #000000; stroke-linejoin: miter"/>
   </g>
  </g>
  <g id="axes_2">
   <g id="patch_3">
    <path d="M 43.065707 100.060445 
Q 43.829058 99.869607 45.514791 99.869607 
Q 47.200524 99.869607 48.027487 99.67877 
L 65.393717 99.297094 
M 44.210733 93.190288 
L 44.592408 93.190288 
Q 46.62801 93.190288 49.140707 92.872225 
Q 51.653403 92.554162 54.802225 92.013455 
Q 57.951047 91.472749 59.477749 91.281911 
L 62.531152 91.091073 
M 44.783246 88.801021 
Q 47.136911 87.910445 52.289529 87.369738 
Q 57.442147 86.829031 59.859424 85.938455 
Q 60.113874 85.938455 60.813613 85.843037 
Q 61.513351 85.747618 61.767801 85.747618 
L 63.294503 85.747618 
Q 63.421728 85.747618 63.580759 85.461361 
Q 63.739791 85.175105 63.994241 85.175105 
Q 64.185079 85.175105 64.185079 86.892644 
Q 64.185079 86.956257 63.803403 93.571963 
L 62.849215 98.533743 
M 58.141885 80.086099 
Q 58.650785 80.276937 59.63678 80.913063 
Q 60.622775 81.549188 61.195288 81.803639 
L 62.72199 83.139503 
M 57.760209 75.760445 
L 58.52356 75.760445 
Q 58.905236 75.760445 59.700393 76.110314 
Q 60.49555 76.460183 61.417932 77.00089 
Q 62.340314 77.541597 62.531152 77.668822 
L 63.867016 79.195524 
M 45.164921 81.231126 
Q 45.419372 81.358351 46.437173 81.70822 
Q 47.454974 82.058089 48.027487 82.503377 
L 50.699215 83.839241 
M 45.546597 76.778246 
L 46.309948 76.778246 
L 50.508377 78.686623 
M 54.325131 66.091335 
L 54.515969 84.602592 
M 50.126702 66.663848 
L 59.096073 65.137147 
M 40.203141 74.297356 
Q 44.337958 73.279555 52.734817 72.516204 
Q 61.131675 71.752853 65.012042 70.862277 
Q 66.284293 70.544215 67.333901 70.576021 
Q 68.383508 70.607827 69.05144 70.92589 
Q 69.719372 71.243953 69.464921 72.229948 
Q 69.210471 73.215942 67.874607 74.679031 
L 67.111257 76.969084 
M 40.393979 71.18034 
L 39.630628 79.068298 
" clip-path="url(#p0a7821d698)" style="fill: none; stroke: #000000; stroke-linejoin: miter"/>
   </g>
  </g>
  <g id="axes_3">
   <g id="patch_4">
    <path d="M 95.150153 72.768313 
Q 95.150153 72.768313 95.150153 75.954893 
Q 95.150153 78.191089 95.289916 80.70681 
Q 95.429678 83.222531 95.653298 86.297301 
Q 95.876917 89.372071 95.988727 91.049218 
L 95.653298 92.726365 
M 83.577837 93.397224 
L 106.554755 93.061794 
M 88.106135 78.973758 
L 91.292715 78.973758 
Q 91.34862 78.973758 98.504448 78.638328 
L 102.697316 78.135184 
M 80.614877 76.234417 
L 80.614877 79.756426 
Q 80.614877 79.812331 80.950307 84.117009 
L 81.118021 95.353896 
M 82.515644 69.525828 
Q 83.633742 69.358113 90.118712 69.190399 
Q 96.603681 69.022684 98.839877 67.960491 
L 100.684739 67.625061 
M 90.230521 63.488098 
Q 89.671472 68.799064 86.009701 74.305698 
Q 82.347929 79.812331 77.540107 82.719387 
L 75.695245 83.55796 
" clip-path="url(#p40bec59344)" style="fill: none; stroke: #000000; stroke-linejoin: miter"/>
   </g>
  </g>
  <g id="axes_4">
   <g id="patch_5">
    <path d="M 123.063357 81.359685 
Q 130.506294 90.943741 140.192308 94.818147 
L 143.251049 96.041643 
M 127.03972 64.689545 
Q 126.988741 64.842483 127.014231 65.377762 
Q 127.03972 65.913042 127.03972 66.065979 
Q 127.192657 67.748287 126.912273 69.430594 
Q 126.631888 71.112902 125.943671 73.559895 
Q 125.255455 76.006888 125.051538 76.771573 
Q 124.184895 80.595 122.604545 83.22042 
Q 121.024196 85.845839 118.016434 89.057517 
Q 115.008671 92.269196 113.887133 93.747587 
L 111.898951 94.512273 
M 112.816573 76.516678 
L 113.887133 76.516678 
L 139.733497 74.681434 
" clip-path="url(#pac1093da43)" style="fill: none; stroke: #000000; stroke-linejoin: miter"/>
   </g>
  </g>
  <g id="axes_5">
   <g id="patch_6">
    <path d="M 151.729925 87.612985 
Q 155.157313 86.524925 158.911119 86.089701 
Q 162.664925 85.654478 168.023619 85.491269 
Q 173.382313 85.32806 175.395224 85.164851 
M 163.154552 81.247836 
L 163.154552 81.900672 
Q 163.317761 83.478358 163.671381 86.416119 
Q 164.025 89.353881 164.242612 91.666007 
Q 164.460224 93.978134 164.514627 96.208657 
Q 164.56903 99.853657 163.970597 99.90806 
Q 163.426567 99.90806 162.39291 98.058358 
L 160.869627 96.045448 
M 156.136567 77.167612 
Q 156.408582 77.222015 156.789403 76.841194 
L 160.053582 76.841194 
Q 160.107985 76.841194 164.133806 76.514776 
L 171.042985 75.372313 
Q 170.716567 75.535522 170.145336 75.889142 
Q 169.574104 76.242761 169.410896 76.351567 
L 163.644179 81.084627 
M 149.662612 71.074478 
L 166.146716 70.74806 
Q 168.105224 70.639254 171.831828 70.095224 
Q 175.558433 69.551194 177.408134 69.442388 
Q 179.529851 69.333582 179.529851 69.605597 
Q 179.529851 69.66 179.040224 70.911269 
L 175.939254 74.501866 
M 148.520149 70.911269 
Q 150.805075 72.108134 151.947537 74.338657 
L 152.273955 75.154701 
M 172.185448 63.893284 
Q 171.315 64.872537 171.042985 66.667836 
L 169.574104 69.932015 
M 160.271194 65.362164 
Q 160.38 65.47097 160.597612 65.933396 
Q 160.815224 66.395821 161.087239 66.504627 
L 162.556119 68.952761 
M 154.069254 66.015 
L 155.538134 70.095224 
" clip-path="url(#p3200a7b85e)" style="fill: none; stroke: #000000; stroke-linejoin: miter"/>
   </g>
  </g>
  <g id="axes_6">
   <g id="patch_7">
    <path d="M 206.912402 83.513289 
Q 207.656279 83.513289 210.030965 82.740801 
Q 212.405651 81.968312 213.550078 82.082755 
M 207.427394 75.960071 
L 213.893407 75.387857 
M 207.25573 69.780165 
L 215.838932 68.406852 
L 215.32394 100.164702 
L 211.718995 97.074749 
M 206.912402 69.093509 
Q 206.855181 69.322394 206.912402 70.466821 
Q 206.912402 71.611248 207.169898 74.014545 
Q 207.427394 76.417841 207.427394 77.676711 
Q 207.427394 81.624984 206.340188 85.029655 
Q 205.252983 88.434325 203.336068 92.439819 
Q 201.419152 96.445314 200.560832 99.134717 
L 198.844192 101.194686 
M 195.582575 89.693195 
L 199.530848 91.238171 
M 189.917661 89.521531 
Q 189.745997 90.036523 188.887677 91.095118 
Q 188.029356 92.153713 187.857692 92.439819 
L 185.111068 94.499788 
M 188.887677 81.796648 
L 189.231005 81.796648 
Q 191.920408 81.739427 192.492622 81.45332 
L 194.895918 81.45332 
M 189.231005 77.161719 
L 194.380926 76.475063 
M 197.470879 63.371374 
L 197.299215 87.461562 
M 189.059341 66.690212 
L 189.231005 87.118234 
M 185.282732 87.289898 
L 194.895918 86.08825 
L 199.015856 85.516036 
L 201.76248 84.82938 
M 187.514364 71.840133 
L 198.672527 70.123493 
L 201.533595 69.379615 
" clip-path="url(#p0d64415e88)" style="fill: none; stroke: #000000; stroke-linejoin: miter"/>
   </g>
  </g>
  <g id="axes_7">
   <g id="patch_8">
    <path d="M 230.150855 83.599432 
L 242.452022 83.032558 
M 231.511353 91.762418 
L 242.452022 90.85542 
M 230.49098 75.096322 
L 243.245645 73.905886 
L 242.848834 93.236291 
M 230.661042 74.075949 
Q 231.171229 76.400132 231.171229 81.076843 
Q 231.171229 85.753554 231.171229 88.191112 
L 231.511353 93.633103 
M 234.289036 67.50021 
L 250.955132 67.160086 
Q 251.975505 67.160086 251.975505 81.615373 
Q 251.975505 84.222994 252.145568 88.814673 
Q 252.31563 93.406353 252.31563 95.957286 
Q 252.31563 98.394844 251.947162 98.990062 
Q 251.578694 99.58528 251.01182 99.04675 
Q 250.444946 98.508219 249.311198 97.799627 
Q 248.177449 97.091034 247.157076 97.204409 
M 223.575117 65.119339 
Q 225.445801 66.366462 226.12605 67.670272 
L 226.976361 69.540956 
M 221.53437 69.881081 
L 221.53437 70.56133 
Q 221.53437 71.468328 221.704432 72.517045 
Q 221.874495 73.565762 222.157932 74.897916 
Q 222.441369 76.23007 222.554743 76.853631 
L 222.724806 96.580848 
" clip-path="url(#p3b137f0621)" style="fill: none; stroke: #000000; stroke-linejoin: miter"/>
   </g>
  </g>
  <g id="axes_8">
   <g id="patch_9">
    <path d="M 270.085283 83.125552 
Q 270.169634 83.294255 270.760097 83.842541 
Q 271.350559 84.390828 271.603614 84.643883 
Q 271.856669 84.896938 272.404955 85.529576 
Q 272.953241 86.162214 273.290648 86.541797 
Q 273.628055 86.921379 274.134166 87.596193 
Q 274.640276 88.271007 274.935507 88.734941 
Q 275.230738 89.198876 275.568145 89.87369 
Q 275.905552 90.548503 276.116431 91.09679 
Q 276.32731 91.645076 276.496014 92.277714 
Q 276.664717 92.910352 276.664717 93.500814 
Q 276.664717 94.76609 276.32731 95.862662 
Q 275.989903 96.959234 275.357266 98.182334 
Q 274.724628 99.405434 274.387221 100.333303 
L 271.856669 102.863855 
" clip-path="url(#p81cb608517)" style="fill: none; stroke: #000000; stroke-linejoin: miter"/>
   </g>
  </g>
 </g>
 <defs>
  <clipPath id="pd088f89170">
   <rect x="0" y="36.255654" width="36.45" height="88.678691"/>
  </clipPath>
  <clipPath id="p0a7821d698">
   <rect x="36.45" y="34.47589" width="36.45" height="92.23822"/>
  </clipPath>
  <clipPath id="p40bec59344">
   <rect x="72.9" y="40.063942" width="36.45" height="81.062117"/>
  </clipPath>
  <clipPath id="pac1093da43">
   <rect x="109.35" y="43.63521" width="36.45" height="73.91958"/>
  </clipPath>
  <clipPath id="p3200a7b85e">
   <rect x="145.8" y="41.152836" width="36.45" height="78.884328"/>
  </clipPath>
  <clipPath id="p0d64415e88">
   <rect x="182.25" y="39.109521" width="36.45" height="82.970958"/>
  </clipPath>
  <clipPath id="p3b137f0621">
   <rect x="218.7" y="39.496633" width="36.45" height="82.196734"/>
  </clipPath>
  <clipPath id="p81cb608517">
   <rect x="265.867697" y="19.44" width="15.014607" height="122.31"/>
  </clipPath>
 </defs>
</svg>
