<?xml version="1.0" encoding="utf-8" standalone="no"?>
<!DOCTYPE svg PUBLIC "-//W3C//DTD SVG 1.1//EN"
  "http://www.w3.org/Graphics/SVG/1.1/DTD/svg11.dtd">
<svg xmlns:xlink="http://www.w3.org/1999/xlink" width="252pt" height="72pt" viewBox="0 0 252 72" xmlns="http://www.w3.org/2000/svg" version="1.1">
 <metadata>
  <rdf:RDF xmlns:dc="http://purl.org/dc/elements/1.1/" xmlns:cc="http://creativecommons.org/ns#" xmlns:rdf="http://www.w3.org/1999/02/22-rdf-syntax-ns#">
   <cc:Work>
    <dc:type rdf:resource="http://purl.org/dc/dcmitype/StillImage"/>
    <dc:date>2023-01-27T20:27:51.765406</dc:date>
    <dc:format>image/svg+xml</dc:format>
    <dc:creator>
     <cc:Agent>
      <dc:title>Matplotlib v3.6.1, https://matplotlib.org/</dc:title>
     </cc:Agent>
    </dc:creator>
   </cc:Work>
  </rdf:RDF>
 </metadata>
 <defs>
  <style type="text/css">*{stroke-linejoin: round; stroke-linecap: butt}</style>
 </defs>
 <g id="figure_1">
  <g id="patch_1">
   <path d="M 0 72 
L 252 72 
L 252 0 
L 0 0 
z
" style="fill: #8fff9f"/>
  </g>
  <g id="axes_1">
   <g id="patch_2">
    <path d="M 19.011166 36.269876 
Q 19.198614 36.569793 19.798448 36.888455 
Q 20.398283 37.207117 20.585731 37.507034 
L 21.373014 38.294317 
M 11.025869 35.82 
Q 10.800931 36.007448 10.219841 36.288621 
Q 9.638752 36.569793 9.563772 36.607283 
L 6.976986 39.194069 
M 14.849814 29.409269 
L 14.849814 29.859145 
Q 14.849814 32.071034 14.399938 36.438579 
Q 13.950062 40.806124 13.950062 43.018014 
L 13.950062 45.942207 
L 13.500186 45.829738 
L 11.588214 43.580359 
" clip-path="url(#p3cf7d9a916)" style="fill: none; stroke: #000000; stroke-linejoin: miter"/>
   </g>
  </g>
  <g id="axes_2">
   <g id="patch_3">
    <path d="M 43.930862 29.746676 
Q 44.11831 30.084083 45.449193 30.608938 
Q 46.780076 31.133793 47.079993 31.771117 
M 44.043331 35.032717 
L 45.055552 35.257655 
L 47.079993 36.269876 
M 42.918641 40.20629 
Q 44.605676 39.643945 47.811041 38.950386 
Q 51.016407 38.256828 51.80369 38.069379 
L 53.9406 37.844441 
M 48.991966 26.710014 
L 48.991966 47.629241 
M 36.845317 35.032717 
Q 38.494862 35.145186 40.106917 37.507034 
L 40.556793 37.731972 
M 36.50791 34.132966 
Q 36.357952 34.507862 36.0018 35.538828 
Q 35.645648 36.569793 35.476945 37.057159 
Q 35.308241 37.544524 34.95209 38.425531 
Q 34.595938 39.306538 34.33351 39.887628 
Q 34.071083 40.468717 33.696186 41.199766 
Q 33.32129 41.930814 32.908903 42.568138 
L 31.446807 44.030234 
M 31.1094 34.69531 
L 31.559276 34.69531 
Q 32.608986 34.69531 33.939869 34.432883 
Q 35.270752 34.170455 36.901552 33.720579 
Q 38.532352 33.270703 39.319634 33.120745 
L 42.581234 33.008276 
M 36.282972 28.509517 
L 36.282972 28.959393 
Q 36.282972 29.446759 36.376697 29.8404 
Q 36.470421 30.234041 36.620379 30.721407 
Q 36.770338 31.208772 36.845317 31.546179 
L 36.620379 47.291834 
M 38.082476 26.260138 
Q 35.645648 28.696966 34.708407 29.409269 
L 33.696186 29.859145 
" clip-path="url(#pa5c6a4902b)" style="fill: none; stroke: #000000; stroke-linejoin: miter"/>
   </g>
  </g>
  <g id="axes_3">
   <g id="patch_4">
    <path d="M 62.777234 37.656993 
Q 65.139083 36.9072 67.725869 36.607283 
Q 70.312655 36.307366 74.005386 36.194897 
Q 77.698117 36.082428 79.085234 35.969959 
M 70.650062 33.270703 
L 70.650062 33.720579 
Q 70.762531 34.807779 71.006214 36.832221 
Q 71.249897 38.856662 71.399855 40.449972 
Q 71.549814 42.043283 71.587303 43.580359 
Q 71.624793 46.092166 71.212407 46.129655 
Q 70.83751 46.129655 70.125207 44.855007 
L 69.075497 43.46789 
M 65.813897 30.458979 
Q 66.001345 30.496469 66.263772 30.234041 
L 68.513152 30.234041 
Q 68.550641 30.234041 71.324876 30.009103 
L 76.086062 29.221821 
Q 75.861124 29.33429 75.467483 29.577972 
Q 75.073841 29.821655 74.961372 29.896634 
L 70.987469 33.158234 
M 60.977731 27.759724 
L 72.337097 27.534786 
Q 73.686724 27.459807 76.254766 27.08491 
Q 78.822807 26.710014 80.097455 26.635034 
Q 81.559552 26.560055 81.559552 26.747503 
Q 81.559552 26.784993 81.222145 27.647255 
L 79.085234 30.121572 
M 60.190448 27.647255 
Q 61.765014 28.472028 62.552297 30.009103 
L 62.777234 30.571448 
M 76.498448 22.81109 
Q 75.898614 23.485903 75.711166 24.723062 
L 74.698945 26.972441 
M 68.288214 23.82331 
Q 68.363193 23.89829 68.513152 24.216952 
Q 68.66311 24.535614 68.850559 24.610593 
L 69.862779 26.297628 
M 64.014393 24.273186 
L 65.026614 27.08491 
" clip-path="url(#p612e341c07)" style="fill: none; stroke: #000000; stroke-linejoin: miter"/>
   </g>
  </g>
  <g id="axes_4">
   <g id="patch_5">
    <path d="M 100.293455 36.044938 
L 102.767772 34.357903 
M 97.481731 35.595062 
Q 97.55671 35.595062 97.987841 35.520083 
Q 98.418972 35.445103 98.71889 35.482593 
Q 99.993538 35.78251 101.474379 36.9072 
Q 102.955221 38.03189 104.061166 39.100345 
Q 105.16711 40.1688 106.760421 40.862359 
Q 108.353731 41.555917 109.965786 41.21851 
M 98.156545 37.282097 
L 98.269014 37.619503 
Q 98.269014 38.819172 97.388007 39.700179 
Q 96.507 40.581186 95.119883 41.368469 
Q 93.732766 42.155752 93.320379 42.568138 
L 89.046559 43.46789 
M 96.806917 35.145186 
Q 95.494779 37.282097 93.770255 38.519255 
L 92.420628 38.856662 
M 94.3326 33.120745 
L 94.557538 33.120745 
Q 94.782476 33.083255 94.988669 33.233214 
Q 95.194862 33.383172 95.4198 33.60811 
Q 95.644738 33.833048 95.794697 33.908028 
Q 96.956876 34.620331 97.687924 35.894979 
Q 98.418972 37.169628 98.6814 39.062855 
Q 98.943828 40.956083 99.000062 42.080772 
Q 99.056297 43.205462 99.056297 45.192414 
Q 99.056297 45.717269 99.056297 45.942207 
Q 99.393703 47.479283 98.775124 47.404303 
Q 98.156545 47.329324 97.55671 46.017186 
Q 97.519221 45.942207 97.481731 45.829738 
M 96.46951 30.758897 
Q 96.207083 30.946345 95.044903 32.333462 
Q 93.882724 33.720579 93.095441 34.020497 
L 90.733593 34.920248 
M 93.20791 30.533959 
L 94.3326 30.533959 
Q 94.37009 30.533959 98.044076 30.42149 
L 101.530614 29.859145 
M 95.794697 25.360386 
Q 95.944655 25.397876 96.413276 25.735283 
Q 96.881897 26.07269 97.256793 26.0352 
L 98.493952 27.047421 
M 88.821621 28.284579 
L 92.19569 28.284579 
Q 100.368434 28.359559 103.892462 27.609766 
L 105.916903 27.272359 
L 105.467028 29.521738 
M 88.93409 26.372607 
L 88.93409 26.934952 
L 88.93409 28.509517 
L 88.484214 30.758897 
" clip-path="url(#pbfa5a77d55)" style="fill: none; stroke: #000000; stroke-linejoin: miter"/>
   </g>
  </g>
  <g id="axes_5">
   <g id="patch_6">
    <path d="M 134.510586 26.372607 
L 134.960462 47.516772 
L 135.072931 46.279614 
M 128.774669 29.184331 
L 129.78689 31.096303 
Q 129.78689 31.883586 129.505717 33.420662 
Q 129.224545 34.957738 129.224545 35.707531 
Q 129.224545 35.969959 129.16831 36.176152 
Q 129.112076 36.382345 129.018352 36.644772 
Q 128.924628 36.9072 128.887138 37.057159 
L 137.434779 35.032717 
M 118.727441 37.432055 
L 119.064848 37.432055 
Q 119.439745 37.432055 119.514724 37.394566 
Q 119.664683 37.319586 120.189538 37.207117 
L 125.4006 36.644772 
M 117.715221 31.583669 
Q 118.689952 31.096303 121.370462 31.133793 
Q 124.050972 31.171283 125.250641 30.571448 
Q 125.36311 30.571448 125.36311 30.796386 
Q 125.36311 33.720579 124.725786 35.182676 
L 124.388379 37.094648 
M 118.052628 30.458979 
Q 118.015138 30.758897 118.052628 32.146014 
Q 118.052628 32.183503 118.165097 35.85749 
L 118.502503 37.544524 
" clip-path="url(#p9a85bc7198)" style="fill: none; stroke: #000000; stroke-linejoin: miter"/>
   </g>
  </g>
  <g id="axes_6">
   <g id="patch_7">
    <path d="M 146.777524 42.193241 
L 165.372393 40.581186 
M 155.250186 38.444276 
Q 156.487345 41.855834 156.262407 47.891669 
Q 156.149938 48.90389 155.999979 48.941379 
Q 155.925 48.941379 155.325166 47.254345 
Q 154.612862 45.154924 153.900559 44.967476 
M 152.6634 35.969959 
L 153.113276 35.969959 
Q 153.525662 35.969959 154.950269 35.726276 
Q 156.374876 35.482593 157.612034 35.220166 
L 158.849193 34.957738 
Q 158.849193 35.445103 158.436807 36.176152 
Q 158.024421 36.9072 157.387097 37.769462 
Q 156.749772 38.631724 156.599814 38.894152 
L 156.037469 39.681434 
M 154.575372 28.097131 
Q 155.587593 28.696966 157.59329 30.796386 
Q 159.598986 32.895807 161.098572 33.495641 
L 163.797828 34.620331 
M 154.687841 28.2096 
L 154.462903 28.2096 
Q 154.050517 28.621986 152.888338 30.046593 
Q 151.726159 31.4712 150.807662 32.220993 
Q 149.889166 32.970786 148.726986 33.270703 
L 147.26489 34.170455 
L 146.477607 34.395393 
M 149.514269 28.884414 
Q 152.438462 28.2096 157.949441 27.759724 
Q 158.511786 27.647255 159.636476 27.459807 
Q 160.761166 27.272359 161.211041 27.197379 
M 154.912779 25.735283 
L 154.912779 34.395393 
" clip-path="url(#pb76eaa7058)" style="fill: none; stroke: #000000; stroke-linejoin: miter"/>
   </g>
  </g>
  <g id="axes_7">
   <g id="patch_8">
    <path d="M 177.433138 47.291834 
Q 177.883014 47.179366 178.87649 47.179366 
Q 179.869966 47.179366 180.357331 47.066897 
L 190.592007 46.841959 
M 178.107952 43.242952 
L 178.33289 43.242952 
Q 179.532559 43.242952 181.0134 43.055503 
Q 182.494241 42.868055 184.349979 42.549393 
Q 186.205717 42.230731 187.105469 42.118262 
L 188.904972 42.005793 
M 178.445359 40.656166 
Q 179.832476 40.13131 182.869138 39.812648 
Q 185.9058 39.493986 187.330407 38.969131 
Q 187.480366 38.969131 187.892752 38.912897 
Q 188.305138 38.856662 188.455097 38.856662 
L 189.354848 38.856662 
Q 189.429828 38.856662 189.523552 38.687959 
Q 189.617276 38.519255 189.767234 38.519255 
Q 189.879703 38.519255 189.879703 39.531476 
Q 189.879703 39.568966 189.654766 43.46789 
L 189.092421 46.392083 
M 186.318186 35.145186 
Q 186.618103 35.257655 187.199193 35.632552 
Q 187.780283 36.007448 188.11769 36.157407 
L 189.017441 36.94469 
M 186.093248 32.220993 
L 186.543124 32.220993 
Q 186.768062 32.220993 187.236683 32.427186 
Q 187.705303 32.633379 188.248903 32.952041 
Q 188.792503 33.270703 188.904972 33.345683 
L 189.692255 34.245434 
M 178.670297 34.69531 
Q 179.232641 34.995228 180.357331 35.82 
L 181.931897 36.607283 
M 178.895234 32.445931 
L 179.34511 32.445931 
L 181.819428 33.570621 
M 184.068807 27.272359 
L 184.181276 38.181848 
M 181.59449 27.609766 
L 186.880531 26.710014 
M 175.746103 32.108524 
Q 178.182931 31.50869 183.131566 31.058814 
Q 188.0802 30.608938 190.367069 30.084083 
Q 191.116862 29.896634 191.735441 29.915379 
Q 192.354021 29.934124 192.747662 30.121572 
Q 193.141303 30.309021 192.991345 30.89011 
Q 192.841386 31.4712 192.054103 32.333462 
L 191.604228 33.68309 
M 175.858572 30.271531 
L 175.408697 34.920248 
" clip-path="url(#p5b8dbbc98e)" style="fill: none; stroke: #000000; stroke-linejoin: miter"/>
   </g>
  </g>
  <g id="axes_8">
   <g id="patch_9">
    <path d="M 211.162903 36.94469 
Q 211.200393 37.019669 211.462821 37.263352 
Q 211.725248 37.507034 211.837717 37.619503 
Q 211.950186 37.731972 212.193869 38.013145 
Q 212.437552 38.294317 212.58751 38.463021 
Q 212.737469 38.631724 212.962407 38.931641 
Q 213.187345 39.231559 213.318559 39.437752 
Q 213.449772 39.643945 213.599731 39.943862 
Q 213.74969 40.243779 213.843414 40.487462 
Q 213.937138 40.731145 214.012117 41.012317 
Q 214.087097 41.29349 214.087097 41.555917 
Q 214.087097 42.118262 213.937138 42.605628 
Q 213.787179 43.092993 213.506007 43.636593 
Q 213.224834 44.180193 213.074876 44.592579 
L 211.950186 45.717269 
" clip-path="url(#paca8a9ef0b)" style="fill: none; stroke: #000000; stroke-linejoin: miter"/>
   </g>
  </g>
 </g>
 <defs>
  <clipPath id="p3cf7d9a916">
   <rect x="5.102503" y="8.64" width="18.144993" height="54.36"/>
  </clipPath>
  <clipPath id="pa5c6a4902b">
   <rect x="29.234917" y="8.64" width="26.580166" height="54.36"/>
  </clipPath>
  <clipPath id="p612e341c07">
   <rect x="58.315966" y="8.64" width="25.118069" height="54.36"/>
  </clipPath>
  <clipPath id="pbfa5a77d55">
   <rect x="86.609731" y="8.64" width="25.230538" height="54.36"/>
  </clipPath>
  <clipPath id="p9a85bc7198">
   <rect x="115.840738" y="8.64" width="23.468524" height="54.36"/>
  </clipPath>
  <clipPath id="pb76eaa7058">
   <rect x="144.603124" y="8.64" width="22.643752" height="54.36"/>
  </clipPath>
  <clipPath id="p5b8dbbc98e">
   <rect x="173.534214" y="8.64" width="21.481572" height="54.36"/>
  </clipPath>
  <clipPath id="paca8a9ef0b">
   <rect x="209.288421" y="8.64" width="6.673159" height="54.36"/>
  </clipPath>
 </defs>
</svg>
