<?xml version="1.0" encoding="utf-8" standalone="no"?>
<!DOCTYPE svg PUBLIC "-//W3C//DTD SVG 1.1//EN"
  "http://www.w3.org/Graphics/SVG/1.1/DTD/svg11.dtd">
<svg xmlns:xlink="http://www.w3.org/1999/xlink" width="702pt" height="72pt" viewBox="0 0 702 72" xmlns="http://www.w3.org/2000/svg" version="1.1">
 <metadata>
  <rdf:RDF xmlns:dc="http://purl.org/dc/elements/1.1/" xmlns:cc="http://creativecommons.org/ns#" xmlns:rdf="http://www.w3.org/1999/02/22-rdf-syntax-ns#">
   <cc:Work>
    <dc:type rdf:resource="http://purl.org/dc/dcmitype/StillImage"/>
    <dc:date>2023-01-27T20:27:58.816410</dc:date>
    <dc:format>image/svg+xml</dc:format>
    <dc:creator>
     <cc:Agent>
      <dc:title>Matplotlib v3.6.1, https://matplotlib.org/</dc:title>
     </cc:Agent>
    </dc:creator>
   </cc:Work>
  </rdf:RDF>
 </metadata>
 <defs>
  <style type="text/css">*{stroke-linejoin: round; stroke-linecap: butt}</style>
 </defs>
 <g id="figure_1">
  <g id="patch_1">
   <path d="M 0 72 
L 702 72 
L 702 0 
L 0 0 
z
" style="fill: #8fff9f"/>
  </g>
  <g id="axes_1">
   <g id="patch_2">
    <path d="M 3.263834 37.95691 
L 3.938648 37.95691 
Q 4.650952 37.95691 5.438234 37.881931 
Q 6.225517 37.806952 7.181503 37.675738 
Q 8.13749 37.544524 8.662345 37.507034 
L 12.936166 35.82 
M 8.887283 30.42149 
L 8.887283 31.43371 
Q 8.887283 33.383172 8.212469 37.207117 
Q 7.537655 41.031062 7.537655 43.018014 
Q 7.537655 43.805297 7.537655 44.105214 
Q 7.537655 44.405131 7.631379 45.042455 
Q 7.725103 45.679779 7.912552 45.960952 
Q 8.1 46.242124 8.493641 46.485807 
Q 8.887283 46.72949 9.449628 46.72949 
Q 9.562097 46.692 9.880759 46.72949 
Q 10.199421 46.766979 10.386869 46.710745 
Q 10.574317 46.65451 10.574317 46.392083 
" clip-path="url(#p786b619ec2)" style="fill: none; stroke: #000000; stroke-linejoin: miter"/>
   </g>
  </g>
  <g id="axes_2">
   <g id="patch_3">
    <path d="M 18.377221 29.066925 
L 28.562187 29.066925 
M 27.787244 33.384465 
Q 27.787244 33.384465 24.908884 33.384465 
Q 21.919818 33.384465 19.98246 35.026606 
Q 18.045103 36.668747 18.045103 39.584009 
Q 18.045103 41.318405 19.779499 42.222506 
Q 21.513895 43.126606 23.469704 43.126606 
Q 24.982688 42.83139 25.849886 41.650524 
Q 26.717084 40.469658 26.938497 39.251891 
Q 27.159909 38.034123 27.36287 36.115216 
Q 27.565831 34.19631 27.787244 33.384465 
Q 30.333485 42.978998 30.444191 43.901549 
L 30.554897 45.00861 
" clip-path="url(#pc366e496b0)" style="fill: none; stroke: #000000; stroke-linejoin: miter"/>
   </g>
  </g>
  <g id="axes_3"/>
  <g id="axes_4">
   <g id="patch_4">
    <path d="M 60.299007 38.444276 
Q 58.949379 37.057159 56.7 37.319586 
Q 53.850786 37.319586 52.688607 38.669214 
Q 51.526428 40.018841 51.526428 42.943034 
Q 51.526428 44.442621 52.819821 45.154924 
Q 54.113214 45.867228 55.687779 45.867228 
Q 56.999917 45.867228 58.012138 44.611324 
Q 59.024359 43.355421 59.605448 41.181021 
Q 60.186538 39.006621 60.561434 36.813476 
Q 60.936331 34.620331 61.08629 31.921076 
Q 61.236248 29.221821 61.273738 27.853448 
Q 61.311228 26.485076 61.311228 25.060469 
Q 61.08629 25.135448 61.08629 28.771945 
L 61.08629 43.167972 
L 61.873572 47.104386 
" clip-path="url(#p3b03ccc63f)" style="fill: none; stroke: #000000; stroke-linejoin: miter"/>
   </g>
  </g>
  <g id="axes_5">
   <g id="patch_5">
    <path d="M 68.288772 35.145186 
Q 68.288772 35.145186 68.288772 35.595062 
Q 68.288772 36.269876 68.176303 37.619503 
Q 68.063834 38.969131 68.063834 39.643945 
Q 68.063834 41.930814 69.300993 43.599103 
Q 70.538152 45.267393 72.675062 45.267393 
Q 74.062179 45.154924 74.830717 43.917766 
Q 75.599255 42.680607 75.749214 41.237255 
Q 75.899172 39.793903 76.1616 37.9944 
Q 76.424028 36.194897 76.836414 35.370124 
Q 76.986372 35.070207 76.986372 35.670041 
Q 76.986372 36.269876 76.723945 38.706703 
Q 76.499007 41.031062 76.499007 41.555917 
Q 76.349048 42.643117 76.686455 43.767807 
Q 77.023862 44.892497 77.736166 45.6048 
" clip-path="url(#pca7b1a0cc3)" style="fill: none; stroke: #000000; stroke-linejoin: miter"/>
   </g>
  </g>
  <g id="axes_6">
   <g id="patch_6">
    <path d="M 86.625683 27.384828 
L 89.887283 31.658648 
M 89.549876 34.020497 
L 89.662345 38.744193 
Q 89.774814 39.269048 89.906028 40.74989 
Q 90.037241 42.230731 90.374648 43.149228 
Q 90.712055 44.067724 91.574317 44.592579 
" clip-path="url(#p0ea7ab877d)" style="fill: none; stroke: #000000; stroke-linejoin: miter"/>
   </g>
  </g>
  <g id="axes_7"/>
  <g id="axes_8">
   <g id="patch_7">
    <path d="M 116.363917 36.382345 
Q 116.326428 36.494814 116.457641 36.701007 
Q 116.588855 36.9072 116.476386 37.057159 
L 116.476386 39.306538 
Q 116.476386 40.506207 116.813793 41.724621 
Q 117.1512 42.943034 118.013462 43.93651 
Q 118.875724 44.929986 120.075393 44.929986 
Q 121.312552 44.929986 121.987366 43.861531 
Q 122.662179 42.793076 123.112055 41.143531 
Q 123.561931 39.493986 123.899338 38.969131 
L 124.686621 36.382345 
L 124.461683 42.680607 
L 124.461683 45.154924 
Q 124.461683 47.066897 125.192731 51.00331 
Q 125.923779 54.939724 125.923779 56.964166 
Q 126.673572 59.213545 125.586372 60.188276 
Q 124.499172 61.163007 122.437241 60.78811 
Q 120.637738 60.488193 119.719241 60.169531 
Q 118.800745 59.850869 116.813793 58.988607 
L 116.701324 58.426262 
" clip-path="url(#p37f1cc2d4f)" style="fill: none; stroke: #000000; stroke-linejoin: miter"/>
   </g>
  </g>
  <g id="axes_9">
   <g id="patch_8">
    <path d="M 135.675559 33.68309 
Q 136.125434 33.270703 137.606276 32.183503 
Q 139.087117 31.096303 139.724441 30.309021 
M 136.012966 36.157407 
Q 135.975476 36.269876 135.994221 37.338331 
Q 136.012966 38.406786 136.012966 38.519255 
Q 136.012966 39.643945 136.275393 40.693655 
Q 136.537821 41.743366 136.968952 43.018014 
Q 137.400083 44.292662 137.587531 45.042455 
L 138.037407 45.492331 
" clip-path="url(#pbebf59c0ac)" style="fill: none; stroke: #000000; stroke-linejoin: miter"/>
   </g>
  </g>
  <g id="axes_10">
   <g id="patch_9">
    <path d="M 159.156735 34.365306 
Q 159.156735 34.365306 158.660816 34.365306 
Q 157.867347 34.365306 156.379592 34.067755 
Q 154.891837 33.770204 154.098367 33.770204 
Q 151.321224 33.770204 149.387143 35.224898 
Q 147.453061 36.679592 147.453061 39.423673 
Q 147.453061 40.94449 148.940816 42.399184 
Q 150.428571 43.853878 152.362653 44.663878 
Q 154.296735 45.473878 155.78449 45.473878 
Q 156.710204 45.473878 157.40449 45.110204 
Q 158.098776 44.746531 158.842653 44.118367 
Q 159.586531 43.490204 160.148571 43.192653 
L 160.346939 42.696735 
" clip-path="url(#p8b2bbb89ef)" style="fill: none; stroke: #000000; stroke-linejoin: miter"/>
   </g>
  </g>
  <g id="axes_11">
   <g id="patch_10">
    <path d="M 166.613462 35.932469 
Q 167.213297 35.257655 168.206772 34.826524 
Q 169.200248 34.395393 170.1 34.470372 
Q 170.737324 34.470372 171.22469 34.639076 
Q 171.712055 34.807779 172.030717 34.995228 
Q 172.349379 35.182676 172.574317 35.670041 
Q 172.799255 36.157407 172.911724 36.419834 
Q 173.024193 36.682262 173.080428 37.375821 
Q 173.136662 38.069379 173.155407 38.331807 
Q 173.174152 38.594234 173.155407 39.419007 
Q 173.136662 40.243779 173.136662 40.431228 
Q 173.136662 41.368469 172.967959 43.242952 
Q 172.799255 45.117434 172.799255 46.054676 
Q 172.799255 46.467062 172.85549 46.823214 
Q 172.911724 47.179366 173.005448 47.610497 
Q 173.099172 48.041628 173.136662 48.304055 
L 173.586538 48.528993 
M 167.063338 23.111007 
Q 167.288276 24.798041 167.288276 29.971614 
L 167.288276 42.3432 
L 166.950869 46.841959 
L 166.725931 47.74171 
" clip-path="url(#paf7a8fc1a1)" style="fill: none; stroke: #000000; stroke-linejoin: miter"/>
   </g>
  </g>
  <g id="axes_12">
   <g id="patch_11">
    <path d="M 181.688772 35.145186 
Q 181.688772 35.145186 181.688772 35.595062 
Q 181.688772 36.269876 181.576303 37.619503 
Q 181.463834 38.969131 181.463834 39.643945 
Q 181.463834 41.930814 182.700993 43.599103 
Q 183.938152 45.267393 186.075062 45.267393 
Q 187.462179 45.154924 188.230717 43.917766 
Q 188.999255 42.680607 189.149214 41.237255 
Q 189.299172 39.793903 189.5616 37.9944 
Q 189.824028 36.194897 190.236414 35.370124 
Q 190.386372 35.070207 190.386372 35.670041 
Q 190.386372 36.269876 190.123945 38.706703 
Q 189.899007 41.031062 189.899007 41.555917 
Q 189.749048 42.643117 190.086455 43.767807 
Q 190.423862 44.892497 191.136166 45.6048 
" clip-path="url(#pe9e517c5be)" style="fill: none; stroke: #000000; stroke-linejoin: miter"/>
   </g>
  </g>
  <g id="axes_13">
   <g id="patch_12">
    <path d="M 199.519572 31.546179 
L 199.519572 31.321241 
Q 199.519572 31.133793 199.575807 31.040069 
Q 199.632041 30.946345 199.707021 30.89011 
Q 199.782 30.833876 199.931959 30.740152 
Q 200.081917 30.646428 200.194386 30.533959 
L 204.355738 25.810262 
M 206.26771 35.370124 
L 203.118579 35.370124 
Q 203.00611 35.407614 202.743683 35.482593 
Q 199.519572 36.419834 198.619821 37.132138 
Q 197.082745 38.481766 197.045255 41.893324 
Q 197.045255 43.018014 197.907517 43.917766 
Q 198.769779 44.817517 199.856979 44.817517 
Q 200.719241 44.705048 201.506524 44.236428 
Q 202.293807 43.767807 202.799917 43.224207 
Q 203.306028 42.680607 203.849628 41.687131 
Q 204.393228 40.693655 204.6744 40.075076 
Q 204.955572 39.456497 205.405448 38.294317 
Q 205.855324 37.132138 206.042772 36.719752 
Q 206.380179 35.894979 206.492648 35.951214 
Q 206.605117 36.007448 206.492648 37.207117 
L 206.380179 38.744193 
Q 206.380179 38.781683 206.717586 42.455669 
L 207.954745 44.817517 
" clip-path="url(#p1e40795468)" style="fill: none; stroke: #000000; stroke-linejoin: miter"/>
   </g>
  </g>
  <g id="axes_14">
   <g id="patch_13">
    <path d="M 213.863834 32.783338 
L 213.863834 33.345683 
Q 214.726097 39.718924 214.763586 47.066897 
Q 214.763586 47.81669 214.688607 47.029407 
Q 214.238731 42.080772 214.088772 35.82 
L 214.088772 35.145186 
Q 214.088772 33.6456 215.682083 33.008276 
Q 217.275393 32.370952 218.7 32.783338 
Q 220.237076 33.233214 221.211807 34.414138 
Q 222.186538 35.595062 222.561434 37.282097 
Q 222.936331 38.969131 223.067545 40.543697 
Q 223.198759 42.118262 223.273738 44.067724 
Q 223.348717 46.017186 223.536166 47.066897 
" clip-path="url(#pae294cd38f)" style="fill: none; stroke: #000000; stroke-linejoin: miter"/>
   </g>
  </g>
  <g id="axes_15"/>
  <g id="axes_16">
   <g id="patch_14">
    <path d="M 254.699007 34.920248 
Q 253.836745 36.007448 250.725103 40.018841 
Q 247.613462 44.030234 245.926428 46.054676 
M 246.826179 36.044938 
Q 248.700662 37.319586 251.193724 40.843614 
Q 253.686786 44.367641 255.261352 45.6048 
L 256.273572 45.942207 
" clip-path="url(#p9283dbd683)" style="fill: none; stroke: #000000; stroke-linejoin: miter"/>
   </g>
  </g>
  <g id="axes_17">
   <g id="patch_15">
    <path d="M 262.688772 35.145186 
Q 262.688772 35.145186 262.688772 35.595062 
Q 262.688772 36.269876 262.576303 37.619503 
Q 262.463834 38.969131 262.463834 39.643945 
Q 262.463834 41.930814 263.700993 43.599103 
Q 264.938152 45.267393 267.075062 45.267393 
Q 268.462179 45.154924 269.230717 43.917766 
Q 269.999255 42.680607 270.149214 41.237255 
Q 270.299172 39.793903 270.5616 37.9944 
Q 270.824028 36.194897 271.236414 35.370124 
Q 271.386372 35.070207 271.386372 35.670041 
Q 271.386372 36.269876 271.123945 38.706703 
Q 270.899007 41.031062 270.899007 41.555917 
Q 270.749048 42.643117 271.086455 43.767807 
Q 271.423862 44.892497 272.136166 45.6048 
" clip-path="url(#p943fd18865)" style="fill: none; stroke: #000000; stroke-linejoin: miter"/>
   </g>
  </g>
  <g id="axes_18">
   <g id="patch_16">
    <path d="M 280.2384 29.859145 
Q 280.500828 29.896634 280.838234 29.2968 
Q 281.175641 28.696966 281.700497 28.846924 
L 286.199255 24.798041 
M 279.338648 36.157407 
L 279.563586 36.157407 
Q 280.27589 36.157407 281.83171 36.832221 
Q 283.387531 37.507034 284.287283 37.507034 
Q 286.986538 37.507034 286.986538 34.245434 
Q 286.986538 32.108524 283.612469 32.108524 
Q 281.737986 32.108524 280.650786 33.251959 
Q 279.563586 34.395393 279.563586 36.269876 
Q 279.563586 39.11909 280.894469 40.956083 
Q 282.225352 42.793076 284.962097 42.793076 
Q 286.424193 43.092993 287.661352 41.106041 
" clip-path="url(#p5453c996df)" style="fill: none; stroke: #000000; stroke-linejoin: miter"/>
   </g>
  </g>
  <g id="axes_19"/>
  <g id="axes_20">
   <g id="patch_17">
    <path d="M 309.584141 38.85304 
L 310.012335 38.85304 
Q 310.83304 38.85304 311.796476 38.745991 
Q 312.759912 38.638943 313.919604 38.460529 
Q 315.079295 38.282115 315.685903 38.210749 
L 322.215859 35.427489 
M 321.894714 25.793128 
Q 321.609251 25.721762 320.574449 25.275727 
Q 319.539648 24.829692 318.897357 24.93674 
Q 318.255066 24.93674 317.737665 25.150837 
Q 317.220264 25.364934 316.881278 25.793128 
Q 316.542291 26.221322 316.27467 26.685198 
Q 316.007048 27.149075 315.864317 27.862731 
Q 315.721586 28.576388 315.614537 29.129471 
Q 315.507489 29.682555 315.489648 30.50326 
Q 315.471806 31.323965 315.453965 31.77 
Q 315.436123 32.216035 315.453965 32.965374 
Q 315.471806 33.714714 315.471806 33.928811 
Q 315.471806 36.605022 316.167621 41.850396 
Q 316.863436 47.095771 316.863436 49.771982 
Q 316.79207 50.057445 316.756388 50.681894 
Q 316.720705 51.306344 316.613656 51.805903 
Q 316.506608 52.305463 316.221145 52.555242 
" clip-path="url(#p212048316f)" style="fill: none; stroke: #000000; stroke-linejoin: miter"/>
   </g>
  </g>
  <g id="axes_21">
   <g id="patch_18">
    <path d="M 328.388524 28.734455 
L 335.249131 29.071862 
M 329.175807 37.394566 
Q 330.412966 37.95691 331.312717 37.95691 
Q 331.687614 37.95691 332.793559 38.181848 
Q 333.899503 38.406786 334.461848 38.406786 
Q 336.148883 38.406786 336.148883 35.145186 
Q 336.148883 33.983007 334.668041 33.439407 
Q 333.1872 32.895807 331.762593 32.895807 
Q 327.938648 32.895807 327.938648 38.969131 
Q 327.938648 40.506207 328.482248 41.499683 
Q 329.025848 42.493159 330.131793 42.905545 
Q 331.237738 43.317931 332.231214 43.449145 
Q 333.22469 43.580359 334.799255 43.580359 
Q 335.211641 43.880276 335.586538 43.4304 
Q 335.961434 42.980524 336.261352 43.018014 
" clip-path="url(#p2309ecf348)" style="fill: none; stroke: #000000; stroke-linejoin: miter"/>
   </g>
  </g>
  <g id="axes_22">
   <g id="patch_19">
    <path d="M 348.918579 29.071862 
Q 348.543683 29.146841 348.412469 29.577972 
Q 348.281255 30.009103 348.356234 30.42149 
Q 348.356234 30.571448 348.393724 30.702662 
Q 348.431214 30.833876 348.487448 30.89011 
Q 348.543683 30.946345 348.599917 31.040069 
Q 348.656152 31.133793 348.693641 31.208772 
L 348.80611 29.859145 
M 348.80611 34.020497 
Q 347.906359 39.006621 347.681421 42.793076 
L 348.131297 45.379862 
L 348.468703 46.054676 
" clip-path="url(#pc43d392aac)" style="fill: none; stroke: #000000; stroke-linejoin: miter"/>
   </g>
  </g>
  <g id="axes_23">
   <g id="patch_20">
    <path d="M 369.756735 34.365306 
Q 369.756735 34.365306 369.260816 34.365306 
Q 368.467347 34.365306 366.979592 34.067755 
Q 365.491837 33.770204 364.698367 33.770204 
Q 361.921224 33.770204 359.987143 35.224898 
Q 358.053061 36.679592 358.053061 39.423673 
Q 358.053061 40.94449 359.540816 42.399184 
Q 361.028571 43.853878 362.962653 44.663878 
Q 364.896735 45.473878 366.38449 45.473878 
Q 367.310204 45.473878 368.00449 45.110204 
Q 368.698776 44.746531 369.442653 44.118367 
Q 370.186531 43.490204 370.748571 43.192653 
L 370.946939 42.696735 
" clip-path="url(#pd60f1cf94d)" style="fill: none; stroke: #000000; stroke-linejoin: miter"/>
   </g>
  </g>
  <g id="axes_24">
   <g id="patch_21">
    <path d="M 377.213462 35.932469 
Q 377.813297 35.257655 378.806772 34.826524 
Q 379.800248 34.395393 380.7 34.470372 
Q 381.337324 34.470372 381.82469 34.639076 
Q 382.312055 34.807779 382.630717 34.995228 
Q 382.949379 35.182676 383.174317 35.670041 
Q 383.399255 36.157407 383.511724 36.419834 
Q 383.624193 36.682262 383.680428 37.375821 
Q 383.736662 38.069379 383.755407 38.331807 
Q 383.774152 38.594234 383.755407 39.419007 
Q 383.736662 40.243779 383.736662 40.431228 
Q 383.736662 41.368469 383.567959 43.242952 
Q 383.399255 45.117434 383.399255 46.054676 
Q 383.399255 46.467062 383.45549 46.823214 
Q 383.511724 47.179366 383.605448 47.610497 
Q 383.699172 48.041628 383.736662 48.304055 
L 384.186538 48.528993 
M 377.663338 23.111007 
Q 377.888276 24.798041 377.888276 29.971614 
L 377.888276 42.3432 
L 377.550869 46.841959 
L 377.325931 47.74171 
" clip-path="url(#p4f9f601bd8)" style="fill: none; stroke: #000000; stroke-linejoin: miter"/>
   </g>
  </g>
  <g id="axes_25">
   <g id="patch_22">
    <path d="M 393.919572 31.546179 
L 393.919572 31.321241 
Q 393.919572 31.133793 393.975807 31.040069 
Q 394.032041 30.946345 394.107021 30.89011 
Q 394.182 30.833876 394.331959 30.740152 
Q 394.481917 30.646428 394.594386 30.533959 
L 398.755738 25.810262 
M 400.66771 35.370124 
L 397.518579 35.370124 
Q 397.40611 35.407614 397.143683 35.482593 
Q 393.919572 36.419834 393.019821 37.132138 
Q 391.482745 38.481766 391.445255 41.893324 
Q 391.445255 43.018014 392.307517 43.917766 
Q 393.169779 44.817517 394.256979 44.817517 
Q 395.119241 44.705048 395.906524 44.236428 
Q 396.693807 43.767807 397.199917 43.224207 
Q 397.706028 42.680607 398.249628 41.687131 
Q 398.793228 40.693655 399.0744 40.075076 
Q 399.355572 39.456497 399.805448 38.294317 
Q 400.255324 37.132138 400.442772 36.719752 
Q 400.780179 35.894979 400.892648 35.951214 
Q 401.005117 36.007448 400.892648 37.207117 
L 400.780179 38.744193 
Q 400.780179 38.781683 401.117586 42.455669 
L 402.354745 44.817517 
" clip-path="url(#pe7275511b4)" style="fill: none; stroke: #000000; stroke-linejoin: miter"/>
   </g>
  </g>
  <g id="axes_26">
   <g id="patch_23">
    <path d="M 408.263834 32.783338 
L 408.263834 33.345683 
Q 409.126097 39.718924 409.163586 47.066897 
Q 409.163586 47.81669 409.088607 47.029407 
Q 408.638731 42.080772 408.488772 35.82 
L 408.488772 35.145186 
Q 408.488772 33.6456 410.082083 33.008276 
Q 411.675393 32.370952 413.1 32.783338 
Q 414.637076 33.233214 415.611807 34.414138 
Q 416.586538 35.595062 416.961434 37.282097 
Q 417.336331 38.969131 417.467545 40.543697 
Q 417.598759 42.118262 417.673738 44.067724 
Q 417.748717 46.017186 417.936166 47.066897 
" clip-path="url(#pe1fe4f1973)" style="fill: none; stroke: #000000; stroke-linejoin: miter"/>
   </g>
  </g>
  <g id="axes_27">
   <g id="patch_24">
    <path d="M 434.91018 35.173293 
Q 434.683832 35.108623 433.826946 34.752934 
Q 432.97006 34.397246 432.388024 34.267904 
Q 431.805988 34.138563 431.223952 34.203234 
Q 428.895808 34.203234 427.440719 36.321198 
Q 425.985629 38.439162 425.985629 40.799641 
Q 425.985629 42.254731 430.641916 42.254731 
Q 432.032335 42.254731 433.212575 40.912814 
Q 434.392814 39.570898 434.991018 37.905629 
Q 435.589222 36.240359 435.589222 34.882275 
Q 435.589222 33.556527 435.556886 33.297844 
L 435.492216 34.267904 
Q 435.492216 34.688263 435.492216 35.076287 
Q 435.783234 42.287066 435.45988 45.64994 
Q 434.360479 57.969701 426.276647 57.969701 
Q 424.821557 57.969701 423.851497 57.306826 
Q 422.881437 56.643952 422.881437 55.253533 
Q 422.816766 55.059521 422.849102 55.059521 
Q 422.881437 55.059521 422.978443 55.059521 
Q 423.075449 55.059521 423.075449 54.962515 
" clip-path="url(#p6e734de1d1)" style="fill: none; stroke: #000000; stroke-linejoin: miter"/>
   </g>
  </g>
  <g id="axes_28"/>
  <g id="axes_29">
   <g id="patch_25">
    <path d="M 467.31018 35.173293 
Q 467.083832 35.108623 466.226946 34.752934 
Q 465.37006 34.397246 464.788024 34.267904 
Q 464.205988 34.138563 463.623952 34.203234 
Q 461.295808 34.203234 459.840719 36.321198 
Q 458.385629 38.439162 458.385629 40.799641 
Q 458.385629 42.254731 463.041916 42.254731 
Q 464.432335 42.254731 465.612575 40.912814 
Q 466.792814 39.570898 467.391018 37.905629 
Q 467.989222 36.240359 467.989222 34.882275 
Q 467.989222 33.556527 467.956886 33.297844 
L 467.892216 34.267904 
Q 467.892216 34.688263 467.892216 35.076287 
Q 468.183234 42.287066 467.85988 45.64994 
Q 466.760479 57.969701 458.676647 57.969701 
Q 457.221557 57.969701 456.251497 57.306826 
Q 455.281437 56.643952 455.281437 55.253533 
Q 455.216766 55.059521 455.249102 55.059521 
Q 455.281437 55.059521 455.378443 55.059521 
Q 455.475449 55.059521 455.475449 54.962515 
" clip-path="url(#p8b7f0eb446)" style="fill: none; stroke: #000000; stroke-linejoin: miter"/>
   </g>
  </g>
  <g id="axes_30">
   <g id="patch_26">
    <path d="M 472.838897 27.609766 
Q 473.363752 27.872193 473.757393 28.734455 
Q 474.151034 29.596717 474.60091 30.234041 
Q 475.050786 30.871366 475.875559 30.758897 
Q 476.962759 30.983834 477.750041 30.458979 
Q 478.537324 29.934124 478.893476 29.165586 
Q 479.249628 28.397048 479.718248 27.309848 
Q 480.186869 26.222648 480.599255 25.697793 
M 481.1616 35.032717 
L 480.824193 35.032717 
Q 480.299338 35.032717 479.174648 34.751545 
Q 478.049959 34.470372 477.450124 34.470372 
Q 475.538152 34.470372 474.076055 35.613807 
Q 472.613959 36.757241 472.613959 38.519255 
Q 472.613959 40.093821 474.226014 41.555917 
Q 475.838069 43.018014 477.450124 43.018014 
Q 479.324607 43.018014 480.524276 40.449972 
Q 481.723945 37.881931 481.723945 35.595062 
L 481.611476 35.257655 
L 481.611476 35.595062 
L 481.611476 36.719752 
Q 481.611476 37.544524 482.005117 39.306538 
Q 482.398759 41.068552 482.811145 42.455669 
L 483.186041 43.805297 
" clip-path="url(#pcd79db50c5)" style="fill: none; stroke: #000000; stroke-linejoin: miter"/>
   </g>
  </g>
  <g id="axes_31">
   <g id="patch_27">
    <path d="M 489.263834 32.783338 
L 489.263834 33.345683 
Q 490.126097 39.718924 490.163586 47.066897 
Q 490.163586 47.81669 490.088607 47.029407 
Q 489.638731 42.080772 489.488772 35.82 
L 489.488772 35.145186 
Q 489.488772 33.6456 491.082083 33.008276 
Q 492.675393 32.370952 494.1 32.783338 
Q 495.637076 33.233214 496.611807 34.414138 
Q 497.586538 35.595062 497.961434 37.282097 
Q 498.336331 38.969131 498.467545 40.543697 
Q 498.598759 42.118262 498.673738 44.067724 
Q 498.748717 46.017186 498.936166 47.066897 
" clip-path="url(#p62b1b3a613)" style="fill: none; stroke: #000000; stroke-linejoin: miter"/>
   </g>
  </g>
  <g id="axes_32"/>
  <g id="axes_33">
   <g id="patch_28">
    <path d="M 530.099007 34.920248 
Q 529.236745 36.007448 526.125103 40.018841 
Q 523.013462 44.030234 521.326428 46.054676 
M 522.226179 36.044938 
Q 524.100662 37.319586 526.593724 40.843614 
Q 529.086786 44.367641 530.661352 45.6048 
L 531.673572 45.942207 
" clip-path="url(#p8c9b7694c5)" style="fill: none; stroke: #000000; stroke-linejoin: miter"/>
   </g>
  </g>
  <g id="axes_34">
   <g id="patch_29">
    <path d="M 540.225683 27.384828 
L 543.487283 31.658648 
M 543.149876 34.020497 
L 543.262345 38.744193 
Q 543.374814 39.269048 543.506028 40.74989 
Q 543.637241 42.230731 543.974648 43.149228 
Q 544.312055 44.067724 545.174317 44.592579 
" clip-path="url(#pc97b7c7eab)" style="fill: none; stroke: #000000; stroke-linejoin: miter"/>
   </g>
  </g>
  <g id="axes_35">
   <g id="patch_30">
    <path d="M 554.063834 32.783338 
L 554.063834 33.345683 
Q 554.926097 39.718924 554.963586 47.066897 
Q 554.963586 47.81669 554.888607 47.029407 
Q 554.438731 42.080772 554.288772 35.82 
L 554.288772 35.145186 
Q 554.288772 33.6456 555.882083 33.008276 
Q 557.475393 32.370952 558.9 32.783338 
Q 560.437076 33.233214 561.411807 34.414138 
Q 562.386538 35.595062 562.761434 37.282097 
Q 563.136331 38.969131 563.267545 40.543697 
Q 563.398759 42.118262 563.473738 44.067724 
Q 563.548717 46.017186 563.736166 47.066897 
" clip-path="url(#pf32894c0cc)" style="fill: none; stroke: #000000; stroke-linejoin: miter"/>
   </g>
  </g>
  <g id="axes_36">
   <g id="patch_31">
    <path d="M 580.71018 35.173293 
Q 580.483832 35.108623 579.626946 34.752934 
Q 578.77006 34.397246 578.188024 34.267904 
Q 577.605988 34.138563 577.023952 34.203234 
Q 574.695808 34.203234 573.240719 36.321198 
Q 571.785629 38.439162 571.785629 40.799641 
Q 571.785629 42.254731 576.441916 42.254731 
Q 577.832335 42.254731 579.012575 40.912814 
Q 580.192814 39.570898 580.791018 37.905629 
Q 581.389222 36.240359 581.389222 34.882275 
Q 581.389222 33.556527 581.356886 33.297844 
L 581.292216 34.267904 
Q 581.292216 34.688263 581.292216 35.076287 
Q 581.583234 42.287066 581.25988 45.64994 
Q 580.160479 57.969701 572.076647 57.969701 
Q 570.621557 57.969701 569.651497 57.306826 
Q 568.681437 56.643952 568.681437 55.253533 
Q 568.616766 55.059521 568.649102 55.059521 
Q 568.681437 55.059521 568.778443 55.059521 
Q 568.875449 55.059521 568.875449 54.962515 
" clip-path="url(#pe882e9aa28)" style="fill: none; stroke: #000000; stroke-linejoin: miter"/>
   </g>
  </g>
  <g id="axes_37">
   <g id="patch_32">
    <path d="M 591.344917 36.269168 
Q 589.727911 35.520555 588.290573 35.550499 
Q 586.523845 35.550499 585.610536 37.062699 
Q 584.697227 38.574898 584.697227 40.491349 
Q 584.697227 41.838854 585.415896 42.692274 
Q 586.134566 43.545693 587.48207 43.545693 
Q 588.440296 43.545693 589.45841 41.449575 
Q 590.476525 39.353457 591.045471 37.107616 
Q 591.614418 34.861774 591.614418 33.933494 
L 591.614418 36.718336 
Q 592.542699 41.898743 592.422921 51.810388 
Q 592.333087 59.715749 592.602588 59.715749 
Q 593.081701 59.715749 594.204621 57.589686 
Q 595.327542 55.463623 596.525323 52.67878 
Q 597.723105 49.893937 597.812939 49.744214 
L 597.902773 49.38488 
" clip-path="url(#p52a11b5e69)" style="fill: none; stroke: #000000; stroke-linejoin: miter"/>
   </g>
  </g>
  <g id="axes_38">
   <g id="patch_33">
    <path d="M 603.826014 25.360386 
Q 604.950703 25.847752 606.37531 27.740979 
Q 607.799917 29.634207 608.324772 30.084083 
M 603.376138 34.582841 
Q 603.226179 34.69531 603.207434 34.901503 
Q 603.18869 35.107697 603.226179 35.351379 
Q 603.263669 35.595062 603.263669 35.707531 
Q 603.263669 36.86971 603.413628 38.03189 
Q 603.563586 39.194069 603.938483 40.618676 
Q 604.313379 42.043283 605.175641 42.92429 
Q 606.037903 43.805297 607.312552 43.805297 
Q 608.699669 43.280441 609.318248 41.724621 
Q 609.936828 40.1688 610.18051 37.525779 
Q 610.424193 34.882759 610.574152 34.245434 
Q 611.436414 41.893324 611.473903 43.018014 
L 611.81131 44.705048 
" clip-path="url(#pe1d9deab17)" style="fill: none; stroke: #000000; stroke-linejoin: miter"/>
   </g>
  </g>
  <g id="axes_39">
   <g id="patch_34">
    <path d="M 623.625021 46.054676 
Q 623.625021 46.092166 623.550041 46.092166 
Q 623.475062 46.129655 623.475062 46.167145 
Q 623.475062 46.392083 623.7 46.392083 
Q 623.887448 46.392083 623.887448 46.129655 
Q 623.924938 46.017186 623.774979 45.942207 
Q 623.625021 45.867228 623.512552 45.942207 
" clip-path="url(#p296c44fcdc)" style="fill: none; stroke: #000000; stroke-linejoin: miter"/>
   </g>
  </g>
 </g>
 <defs>
  <clipPath id="p786b619ec2">
   <rect x="1.389352" y="8.64" width="13.421297" height="54.36"/>
  </clipPath>
  <clipPath id="pc366e496b0">
   <rect x="16.2" y="9.066014" width="16.2" height="53.507973"/>
  </clipPath>
  <clipPath id="p3b03ccc63f">
   <rect x="49.651945" y="8.64" width="14.09611" height="54.36"/>
  </clipPath>
  <clipPath id="pca7b1a0cc3">
   <rect x="66.189352" y="8.64" width="13.421297" height="54.36"/>
  </clipPath>
  <clipPath id="p0ea7ab877d">
   <rect x="84.7512" y="8.64" width="8.6976" height="54.36"/>
  </clipPath>
  <clipPath id="p37f1cc2d4f">
   <rect x="114.451945" y="8.64" width="14.09611" height="54.36"/>
  </clipPath>
  <clipPath id="pbebf59c0ac">
   <rect x="133.801076" y="8.64" width="7.797848" height="54.36"/>
  </clipPath>
  <clipPath id="p8b2bbb89ef">
   <rect x="145.8" y="11.850612" width="16.2" height="47.938776"/>
  </clipPath>
  <clipPath id="paf7a8fc1a1">
   <rect x="164.738979" y="8.64" width="10.722041" height="54.36"/>
  </clipPath>
  <clipPath id="pe9e517c5be">
   <rect x="179.589352" y="8.64" width="13.421297" height="54.36"/>
  </clipPath>
  <clipPath id="p1e40795468">
   <rect x="195.170772" y="8.64" width="14.658455" height="54.36"/>
  </clipPath>
  <clipPath id="pae294cd38f">
   <rect x="211.989352" y="8.64" width="13.421297" height="54.36"/>
  </clipPath>
  <clipPath id="p9283dbd683">
   <rect x="244.051945" y="8.64" width="14.09611" height="54.36"/>
  </clipPath>
  <clipPath id="p943fd18865">
   <rect x="260.589352" y="8.64" width="13.421297" height="54.36"/>
  </clipPath>
  <clipPath id="p5453c996df">
   <rect x="277.464166" y="8.64" width="12.071669" height="54.36"/>
  </clipPath>
  <clipPath id="p212048316f">
   <rect x="307.8" y="9.949956" width="16.2" height="51.740088"/>
  </clipPath>
  <clipPath id="p2309ecf348">
   <rect x="326.064166" y="8.64" width="12.071669" height="54.36"/>
  </clipPath>
  <clipPath id="pc43d392aac">
   <rect x="345.806938" y="8.64" width="4.986124" height="54.36"/>
  </clipPath>
  <clipPath id="pd60f1cf94d">
   <rect x="356.4" y="11.850612" width="16.2" height="47.938776"/>
  </clipPath>
  <clipPath id="p4f9f601bd8">
   <rect x="375.338979" y="8.64" width="10.722041" height="54.36"/>
  </clipPath>
  <clipPath id="pe7275511b4">
   <rect x="389.570772" y="8.64" width="14.658455" height="54.36"/>
  </clipPath>
  <clipPath id="pe1fe4f1973">
   <rect x="406.389352" y="8.64" width="13.421297" height="54.36"/>
  </clipPath>
  <clipPath id="p6e734de1d1">
   <rect x="421.2" y="12.376886" width="16.2" height="46.886228"/>
  </clipPath>
  <clipPath id="p8b7f0eb446">
   <rect x="453.6" y="12.376886" width="16.2" height="46.886228"/>
  </clipPath>
  <clipPath id="pcd79db50c5">
   <rect x="470.739476" y="8.64" width="14.321048" height="54.36"/>
  </clipPath>
  <clipPath id="p62b1b3a613">
   <rect x="487.389352" y="8.64" width="13.421297" height="54.36"/>
  </clipPath>
  <clipPath id="p8c9b7694c5">
   <rect x="519.451945" y="8.64" width="14.09611" height="54.36"/>
  </clipPath>
  <clipPath id="pc97b7c7eab">
   <rect x="538.3512" y="8.64" width="8.6976" height="54.36"/>
  </clipPath>
  <clipPath id="pf32894c0cc">
   <rect x="552.189352" y="8.64" width="13.421297" height="54.36"/>
  </clipPath>
  <clipPath id="pe882e9aa28">
   <rect x="567" y="12.376886" width="16.2" height="46.886228"/>
  </clipPath>
  <clipPath id="p52a11b5e69">
   <rect x="583.2" y="14.110203" width="16.2" height="43.419593"/>
  </clipPath>
  <clipPath id="pe1d9deab17">
   <rect x="601.314207" y="8.64" width="12.371586" height="54.36"/>
  </clipPath>
  <clipPath id="p296c44fcdc">
   <rect x="621.600579" y="8.64" width="4.198841" height="54.36"/>
  </clipPath>
 </defs>
</svg>
