<?xml version="1.0" encoding="utf-8" standalone="no"?>
<!DOCTYPE svg PUBLIC "-//W3C//DTD SVG 1.1//EN"
  "http://www.w3.org/Graphics/SVG/1.1/DTD/svg11.dtd">
<svg xmlns:xlink="http://www.w3.org/1999/xlink" width="364.5pt" height="162pt" viewBox="0 0 364.5 162" xmlns="http://www.w3.org/2000/svg" version="1.1">
 <metadata>
  <rdf:RDF xmlns:dc="http://purl.org/dc/elements/1.1/" xmlns:cc="http://creativecommons.org/ns#" xmlns:rdf="http://www.w3.org/1999/02/22-rdf-syntax-ns#">
   <cc:Work>
    <dc:type rdf:resource="http://purl.org/dc/dcmitype/StillImage"/>
    <dc:date>2023-02-15T22:53:20.543869</dc:date>
    <dc:format>image/svg+xml</dc:format>
    <dc:creator>
     <cc:Agent>
      <dc:title>Matplotlib v3.6.1, https://matplotlib.org/</dc:title>
     </cc:Agent>
    </dc:creator>
   </cc:Work>
  </rdf:RDF>
 </metadata>
 <defs>
  <style type="text/css">*{stroke-linejoin: round; stroke-linecap: butt}</style>
 </defs>
 <g id="figure_1">
  <g id="patch_1">
   <path d="M 0 162 
L 364.5 162 
L 364.5 0 
L 0 0 
z
" style="fill: #8fff9f"/>
  </g>
  <g id="axes_1">
   <g id="patch_2">
    <path d="M 27.248162 70.276434 
L 30.464338 72.018529 
M 24.880699 77.155478 
L 24.880699 77.5575 
Q 24.880699 79.344265 24.210662 83.185809 
Q 23.540625 87.027353 23.540625 88.948125 
Q 23.540625 90.422206 24.076654 92.030294 
Q 24.612684 93.638382 25.684743 93.638382 
Q 26.265441 93.638382 27.3375 93.660717 
Q 28.409559 93.683051 29.079596 93.683051 
Q 29.749632 93.683051 30.643015 93.593713 
Q 31.536397 93.504375 32.295772 93.281029 
L 33.367831 92.879007 
L 34.216544 89.930846 
M 18.850368 77.110809 
Q 18.939706 77.110809 19.408732 76.954467 
Q 19.877757 76.798125 20.011765 76.976801 
L 29.928309 74.832684 
M 24.434007 68.668346 
Q 23.80864 76.440772 22.356893 81.198033 
Q 20.905147 85.955294 18.046324 91.851618 
Q 17.331618 93.370368 17.108272 94.129743 
M 12.775368 84.972574 
Q 13.266728 85.329926 13.869761 86.535993 
Q 14.472794 87.742059 15.1875 88.054743 
M 5.985662 85.285257 
Q 5.806985 85.463934 5.605974 86.111636 
Q 5.404963 86.759338 4.913603 86.893346 
L 3.171507 88.903456 
M 10.13989 81.131029 
L 9.737868 93.593713 
L 9.469853 93.057684 
L 6.923713 90.109522 
M 6.119669 81.667059 
Q 6.343015 81.62239 8.397794 81.354375 
Q 10.452574 81.08636 11.479963 80.729007 
L 12.954044 80.863015 
M 4.243566 76.976801 
L 14.874816 75.234706 
Q 13.981434 76.664118 13.802757 76.976801 
L 12.954044 81.265037 
M 4.779596 77.378824 
Q 5.04761 77.914853 5.449632 79.522941 
Q 5.851654 81.131029 6.387684 81.801066 
M 10.541912 69.740404 
Q 10.586581 69.96375 10.854596 70.343438 
Q 11.12261 70.723125 11.211949 70.946471 
L 12.284007 72.152537 
M 2.233456 74.832684 
L 3.171507 74.832684 
Q 4.55625 74.832684 6.231342 74.698676 
Q 7.906434 74.564669 9.961213 74.341324 
Q 12.015993 74.117978 13.088051 74.02864 
L 16.70625 73.358603 
" clip-path="url(#p4cb676ba9c)" style="fill: none; stroke: #000000; stroke-linejoin: miter"/>
   </g>
  </g>
  <g id="axes_2">
   <g id="patch_3">
    <path d="M 38.946575 80.595 
Q 42.192123 79.396644 46.361404 78.922295 
Q 50.530685 78.447945 55.873356 78.248219 
Q 61.216027 78.048493 63.812466 77.748904 
L 70.403425 76.550548 
M 57.521096 68.211986 
L 57.521096 68.811164 
Q 57.521096 71.357671 57.820685 95.874041 
M 50.330959 70.408973 
Q 50.281027 70.558767 50.305993 71.157945 
Q 50.330959 71.757123 50.330959 71.906918 
Q 50.330959 72.006781 50.330959 74.12887 
Q 50.330959 76.250959 50.330959 76.600479 
Q 50.330959 76.95 50.281027 78.847397 
Q 50.231096 80.744795 50.081301 81.368938 
Q 49.931507 81.993082 49.731781 83.59089 
Q 49.532055 85.188699 49.182534 85.987603 
Q 48.833014 86.786507 48.38363 88.009829 
Q 47.934247 89.233151 47.260171 90.131918 
Q 46.586096 91.030685 45.787192 91.879521 
L 44.289247 93.377466 
M 43.889795 70.408973 
L 63.662671 68.761233 
" clip-path="url(#p402b968075)" style="fill: none; stroke: #000000; stroke-linejoin: miter"/>
   </g>
  </g>
  <g id="axes_3">
   <g id="patch_4">
    <path d="M 95.22801 92.760903 
Q 98.901636 91.949843 105.962631 92.045262 
M 95.084882 84.030079 
Q 95.084882 84.030079 95.657395 84.030079 
Q 97.136387 84.030079 100.046662 83.457565 
Q 102.956937 82.885052 104.531348 82.885052 
Q 105.008442 82.885052 105.366263 82.813488 
Q 105.724084 82.741924 106.177323 82.622651 
Q 106.630563 82.503377 106.964529 82.455668 
L 105.533246 92.617775 
M 95.084882 83.600694 
L 95.084882 84.030079 
Q 95.084882 84.650301 95.323429 85.485216 
Q 95.561976 86.320131 95.919797 87.322029 
Q 96.277618 88.323927 96.373037 88.753312 
L 97.088678 92.904031 
M 102.241296 74.154228 
L 102.527552 74.154228 
Q 102.622971 74.297356 103.863416 76.205733 
Q 105.103861 78.11411 105.962631 78.734332 
M 100.094372 69.144738 
Q 96.993259 74.535903 96.373037 75.871767 
L 94.798626 79.593102 
Q 95.848233 79.402264 97.923593 78.805897 
Q 99.998953 78.209529 100.953141 78.018691 
L 102.050458 77.732435 
L 103.100065 77.446178 
L 104.38822 77.016793 
M 90.600196 74.011099 
Q 90.409359 78.352657 88.930366 82.360249 
Q 87.451374 86.36784 84.397971 89.922192 
Q 81.344568 93.476545 77.146139 95.575759 
L 75.285471 96.005144 
M 76.001113 78.448076 
L 76.430497 78.448076 
Q 76.764463 78.495785 77.313122 78.400366 
Q 77.86178 78.304948 78.004908 78.304948 
Q 79.197644 78.209529 80.533508 78.042546 
Q 81.869372 77.875563 83.610766 77.565452 
Q 85.35216 77.25534 86.16322 77.159921 
L 90.457068 76.873665 
M 82.87127 69.00161 
L 81.726243 75.728639 
Q 81.583115 76.873665 81.082166 79.426119 
Q 80.581217 81.978573 80.438089 83.314437 
Q 80.39038 83.600694 80.127978 84.29248 
Q 79.865576 84.984267 79.865576 85.175105 
Q 79.913285 85.365942 80.080268 85.55678 
Q 80.247251 85.747618 80.509653 85.96231 
Q 80.772055 86.177003 80.867474 86.320131 
Q 81.344568 86.844935 81.964791 87.393593 
Q 82.585013 87.942251 83.491492 88.634038 
Q 84.397971 89.325825 84.731937 89.612081 
L 91.458966 95.050955 
" clip-path="url(#p42992d8bee)" style="fill: none; stroke: #000000; stroke-linejoin: miter"/>
   </g>
  </g>
  <g id="axes_4">
   <g id="patch_5">
    <path d="M 126.476005 79.358631 
Q 128.445038 78.580176 132.520477 78.328323 
Q 136.595917 78.07647 138.427575 77.526972 
L 143.510427 76.748518 
M 135.680088 70.017173 
Q 135.863254 70.704045 135.794567 72.879139 
Q 135.725879 75.054234 136.229585 75.786897 
L 136.36696 94.057688 
M 131.284108 71.116168 
Q 131.238317 71.574083 131.284108 72.077789 
Q 131.284108 74.687902 131.192525 76.290603 
Q 131.100942 77.893304 130.711715 80.045503 
Q 130.322487 82.197701 129.360867 83.960672 
Q 128.399246 85.723643 126.888128 87.18897 
L 125.37701 88.287965 
M 128.673995 71.390917 
L 129.223492 71.390917 
Q 130.368279 71.390917 131.65044 71.207751 
Q 132.932601 71.024585 134.512406 70.726941 
Q 136.092211 70.429296 136.916457 70.291922 
L 139.663945 70.017173 
M 115.62343 82.976156 
L 122.950063 82.701407 
L 123.911683 82.564033 
M 115.486055 76.611143 
L 122.125817 76.061646 
L 123.636935 75.786897 
L 122.950063 83.11353 
M 114.936558 77.023266 
Q 115.440264 77.252224 115.737908 78.030678 
Q 116.035553 78.809133 116.287406 79.95392 
Q 116.539259 81.098706 116.722425 81.602412 
M 118.096168 71.528291 
Q 115.440264 77.114849 113.150691 80.045503 
Q 112.921734 80.503417 112.34934 81.258976 
Q 111.776947 82.014535 111.639573 82.243492 
M 113.974937 71.665666 
L 116.035553 71.665666 
Q 120.294158 71.711457 123.865892 70.978794 
" clip-path="url(#p3bacf5484e)" style="fill: none; stroke: #000000; stroke-linejoin: miter"/>
   </g>
  </g>
  <g id="axes_5">
   <g id="patch_6">
    <path d="M 152.904198 84.201747 
Q 154.215742 84.201747 156.729535 83.409355 
Q 159.243328 82.616964 160.445577 82.562316 
L 167.877661 80.758943 
Q 167.877661 82.562316 166.702736 86.742864 
Q 165.527811 90.923411 165.527811 93.000022 
Q 165.527811 93.76509 165.910345 94.311567 
Q 166.292879 94.858043 167.003298 95.18593 
Q 167.713718 95.513816 168.451462 95.705082 
Q 169.189205 95.896349 170.282159 95.950997 
Q 171.375112 96.005645 172.085532 96.005645 
Q 172.795952 96.005645 173.834258 95.978321 
Q 174.872564 95.950997 175.20045 95.950997 
Q 177.167766 96.333531 178.342691 94.420862 
Q 179.517616 92.508193 179.135082 90.540877 
M 160.60952 76.988253 
L 160.60952 77.644025 
Q 160.60952 79.829933 159.407271 82.780907 
Q 158.205022 85.731882 156.483621 89.038066 
Q 154.762219 92.34425 154.215742 93.819738 
L 152.740255 95.295225 
M 166.183583 74.693051 
Q 166.074288 74.47446 166.347526 74.529108 
Q 166.620765 74.529108 166.675412 74.529108 
Q 167.276537 74.802346 167.331184 74.856994 
L 170.773988 78.791627 
M 157.494603 74.201222 
Q 157.166717 74.583756 156.374325 75.321499 
Q 155.581934 76.059243 155.1994 76.496424 
L 152.412369 77.807969 
M 159.461919 66.168013 
Q 159.789805 66.058718 160.281634 66.386604 
Q 160.773463 66.71449 161.401912 67.260967 
Q 162.03036 67.807444 162.248951 67.971387 
Q 162.576837 67.916739 162.549513 68.189978 
Q 162.522189 68.463216 162.74078 68.627159 
M 149.188156 72.069963 
L 162.412894 71.742076 
L 173.233133 70.594475 
Q 173.834258 70.430532 173.888906 70.430532 
Q 174.162144 70.430532 174.189468 70.539828 
Q 174.216792 70.649123 174.216792 71.086304 
L 174.052849 72.069963 
L 173.06919 74.201222 
M 150.335757 69.282931 
L 148.532384 75.840652 
" clip-path="url(#p13a1ef6623)" style="fill: none; stroke: #000000; stroke-linejoin: miter"/>
   </g>
  </g>
  <g id="axes_6">
   <g id="patch_7">
    <path d="M 186.406579 70.317744 
Q 190.152068 73.423759 190.791541 74.017556 
M 184.533835 93.43015 
L 184.533835 93.01906 
Q 184.533835 92.33391 186.018327 91.808628 
Q 187.50282 91.283346 188.46203 91.283346 
Q 188.87312 91.237669 188.987312 91.306184 
Q 189.101504 91.374699 189.261372 91.511729 
Q 189.421241 91.648759 189.832331 91.694436 
Q 193.98891 93.338797 199.287406 94.298008 
Q 200.20094 94.480714 201.731109 94.777613 
Q 203.261278 95.074511 203.969267 95.188703 
Q 204.677256 95.302895 205.933365 95.417086 
Q 207.189474 95.531278 208.605451 95.531278 
Q 209.701692 95.531278 210.752256 95.302895 
Q 211.80282 95.074511 213.058929 94.709098 
Q 214.315038 94.343684 215.045865 94.160977 
L 216.416165 93.338797 
M 185.127632 78.722256 
L 185.675752 78.722256 
Q 186.863346 78.904962 190.380451 77.443308 
Q 191.979135 76.803835 192.024812 77.077895 
Q 192.070489 77.443308 190.380451 79.224699 
Q 188.87312 80.823383 188.87312 82.513421 
Q 188.87312 83.061541 189.307049 83.472632 
Q 189.740977 83.883722 190.243421 84.089267 
Q 190.745865 84.294812 191.179793 84.774417 
Q 191.613722 85.254023 191.613722 85.939173 
Q 191.613722 86.030526 191.750752 86.304586 
Q 191.887782 86.578647 191.887782 86.761353 
L 191.887782 87.172444 
L 190.106391 91.694436 
M 202.302068 87.400827 
Q 202.895865 87.766241 203.763722 88.497068 
Q 204.631579 89.227895 204.859962 89.684662 
L 207.600564 90.917932 
M 202.987218 83.152895 
Q 202.941541 83.701015 202.987218 84.660226 
Q 202.987218 86.39594 202.461936 87.446504 
Q 201.936654 88.497068 200.977444 89.547632 
Q 200.018233 90.598195 199.561466 91.511729 
L 198.739286 91.648759 
M 199.972556 81.645564 
L 204.905639 81.599887 
Q 205.042669 81.554211 205.339568 81.440019 
Q 205.636466 81.325827 205.887688 81.257312 
Q 206.13891 81.188797 206.41297 81.188797 
Q 206.458647 81.188797 206.504323 81.188797 
Q 206.82406 81.188797 206.892575 81.257312 
Q 206.96109 81.325827 206.96109 81.736917 
Q 206.96109 81.782594 206.55 85.710789 
L 206.00188 87.21812 
M 199.424436 81.508534 
Q 199.378759 82.193684 199.698496 82.330714 
L 200.109586 87.537857 
M 196.135714 80.001203 
Q 197.825752 79.270376 201.548402 79.041992 
Q 205.271053 78.813609 206.82406 78.356842 
L 211.346053 78.219812 
M 202.621805 68.673383 
Q 202.804511 68.58203 202.804511 68.764737 
Q 202.804511 68.901767 202.667481 69.312857 
Q 202.347744 70.546128 202.713158 70.637481 
L 202.850188 79.453083 
M 199.698496 77.351955 
Q 199.92688 77.260602 200.543515 77.214925 
Q 201.16015 77.169248 201.479887 76.940865 
L 208.194361 76.529774 
M 198.602256 73.058346 
L 199.287406 73.058346 
Q 199.972556 73.058346 200.771898 72.944154 
Q 201.571241 72.829962 202.553289 72.647256 
Q 203.535338 72.464549 204.083459 72.373195 
L 207.37218 72.647256 
L 206.82406 76.392744 
L 206.41297 76.940865 
M 198.739286 73.058346 
L 198.739286 73.469436 
Q 198.784962 75.113797 199.150376 75.661917 
Q 199.333083 76.301391 199.561466 76.484098 
Q 199.65282 76.529774 199.835526 76.666805 
" clip-path="url(#p0b98e9ab70)" style="fill: none; stroke: #000000; stroke-linejoin: miter"/>
   </g>
  </g>
  <g id="axes_7">
   <g id="patch_8">
    <path d="M 232.291525 79.24708 
Q 236.391448 77.89916 245.096764 77.2252 
L 252.341834 75.70879 
M 233.976425 72.507481 
Q 233.976425 72.507481 234.818875 72.507481 
Q 235.998305 72.507481 237.318143 72.254746 
Q 238.637982 72.002011 240.238636 71.580786 
Q 241.839291 71.159561 242.737904 70.991071 
L 245.770724 70.654091 
M 238.806471 91.939992 
L 239.143451 91.939992 
Q 240.379045 92.726279 243.187211 95.057057 
Q 245.995378 97.387835 248.410401 98.511102 
M 235.324345 88.177049 
L 236.166795 88.177049 
Q 241.783128 87.615416 246.837827 86.267496 
Q 248.129584 85.81819 248.550809 85.930516 
Q 248.972034 86.042843 248.803544 86.464068 
Q 248.635054 86.885293 247.680277 88.120886 
L 243.917334 93.568729 
L 243.074884 94.579669 
M 240.884515 65.599391 
L 239.199615 79.24708 
Q 238.694145 83.066186 238.694145 83.12235 
L 237.570878 87.222273 
L 237.233898 89.244153 
M 226.731356 74.697851 
Q 226.675193 74.866341 226.703274 75.624545 
Q 226.731356 76.38275 226.731356 76.55124 
Q 226.731356 79.41557 226.927928 82.78537 
Q 227.124499 86.155169 227.461479 90.170847 
Q 227.798459 94.186525 227.910786 96.096079 
L 227.742296 97.949468 
M 230.943606 66.778821 
Q 229.090216 71.440378 225.551926 76.04577 
L 221.508166 78.9101 
" clip-path="url(#p2174e72591)" style="fill: none; stroke: #000000; stroke-linejoin: miter"/>
   </g>
  </g>
  <g id="axes_8">
   <g id="patch_9">
    <path d="M 261.079925 87.612985 
Q 264.507313 86.524925 268.261119 86.089701 
Q 272.014925 85.654478 277.373619 85.491269 
Q 282.732313 85.32806 284.745224 85.164851 
M 272.504552 81.247836 
L 272.504552 81.900672 
Q 272.667761 83.478358 273.021381 86.416119 
Q 273.375 89.353881 273.592612 91.666007 
Q 273.810224 93.978134 273.864627 96.208657 
Q 273.91903 99.853657 273.320597 99.90806 
Q 272.776567 99.90806 271.74291 98.058358 
L 270.219627 96.045448 
M 265.486567 77.167612 
Q 265.758582 77.222015 266.139403 76.841194 
L 269.403582 76.841194 
Q 269.457985 76.841194 273.483806 76.514776 
L 280.392985 75.372313 
Q 280.066567 75.535522 279.495336 75.889142 
Q 278.924104 76.242761 278.760896 76.351567 
L 272.994179 81.084627 
M 259.012612 71.074478 
L 275.496716 70.74806 
Q 277.455224 70.639254 281.181828 70.095224 
Q 284.908433 69.551194 286.758134 69.442388 
Q 288.879851 69.333582 288.879851 69.605597 
Q 288.879851 69.66 288.390224 70.911269 
L 285.289254 74.501866 
M 257.870149 70.911269 
Q 260.155075 72.108134 261.297537 74.338657 
L 261.623955 75.154701 
M 281.535448 63.893284 
Q 280.665 64.872537 280.392985 66.667836 
L 278.924104 69.932015 
M 269.621194 65.362164 
Q 269.73 65.47097 269.947612 65.933396 
Q 270.165224 66.395821 270.437239 66.504627 
L 271.906119 68.952761 
M 263.419254 66.015 
L 264.888134 70.095224 
" clip-path="url(#p9a67cdcddf)" style="fill: none; stroke: #000000; stroke-linejoin: miter"/>
   </g>
  </g>
  <g id="axes_9">
   <g id="patch_10">
    <path d="M 310.879397 94.597386 
Q 310.879397 94.597386 309.10801 94.597386 
Q 306.830514 94.597386 305.43871 96.326597 
Q 304.046907 98.055807 304.046907 100.417655 
Q 303.962555 102.779503 305.607414 104.086955 
Q 307.252272 105.394407 309.614121 104.972648 
Q 310.288934 104.888297 311.385507 104.803945 
Q 312.482079 104.719593 313.072541 104.635241 
Q 313.663003 104.55089 314.379993 104.213483 
Q 315.096983 103.876076 315.392214 103.074734 
Q 315.687445 102.273393 315.687445 100.923766 
Q 315.687445 100.333303 315.43439 99.742841 
Q 315.181334 99.152379 314.759576 98.43539 
Q 314.337817 97.7184 314.169114 97.380993 
L 311.638562 95.862662 
" clip-path="url(#pd8987f8d83)" style="fill: none; stroke: #000000; stroke-linejoin: miter"/>
   </g>
  </g>
 </g>
 <defs>
  <clipPath id="p4cb676ba9c">
   <rect x="0" y="48.20989" width="36.45" height="64.770221"/>
  </clipPath>
  <clipPath id="p402b968075">
   <rect x="36.45" y="44.394658" width="36.45" height="72.400685"/>
  </clipPath>
  <clipPath id="p42992d8bee">
   <rect x="72.9" y="46.005668" width="36.45" height="69.178665"/>
  </clipPath>
  <clipPath id="p3bacf5484e">
   <rect x="109.35" y="47.396193" width="36.45" height="66.397613"/>
  </clipPath>
  <clipPath id="p13a1ef6623">
   <rect x="145.8" y="40.975435" width="36.45" height="79.23913"/>
  </clipPath>
  <clipPath id="p0b98e9ab70">
   <rect x="182.25" y="47.479398" width="36.45" height="66.231203"/>
  </clipPath>
  <clipPath id="p2174e72591">
   <rect x="218.7" y="39.876587" width="36.45" height="81.436826"/>
  </clipPath>
  <clipPath id="p9a67cdcddf">
   <rect x="255.15" y="41.152836" width="36.45" height="78.884328"/>
  </clipPath>
  <clipPath id="pd8987f8d83">
   <rect x="299.744969" y="19.44" width="20.160062" height="122.31"/>
  </clipPath>
 </defs>
</svg>
