<?xml version="1.0" encoding="utf-8" standalone="no"?>
<!DOCTYPE svg PUBLIC "-//W3C//DTD SVG 1.1//EN"
  "http://www.w3.org/Graphics/SVG/1.1/DTD/svg11.dtd">
<svg xmlns:xlink="http://www.w3.org/1999/xlink" width="283.5pt" height="72pt" viewBox="0 0 283.5 72" xmlns="http://www.w3.org/2000/svg" version="1.1">
 <metadata>
  <rdf:RDF xmlns:dc="http://purl.org/dc/elements/1.1/" xmlns:cc="http://creativecommons.org/ns#" xmlns:rdf="http://www.w3.org/1999/02/22-rdf-syntax-ns#">
   <cc:Work>
    <dc:type rdf:resource="http://purl.org/dc/dcmitype/StillImage"/>
    <dc:date>2023-01-27T21:57:38.381653</dc:date>
    <dc:format>image/svg+xml</dc:format>
    <dc:creator>
     <cc:Agent>
      <dc:title>Matplotlib v3.6.1, https://matplotlib.org/</dc:title>
     </cc:Agent>
    </dc:creator>
   </cc:Work>
  </rdf:RDF>
 </metadata>
 <defs>
  <style type="text/css">*{stroke-linejoin: round; stroke-linecap: butt}</style>
 </defs>
 <g id="figure_1">
  <g id="patch_1">
   <path d="M 0 72 
L 283.5 72 
L 283.5 0 
L 0 0 
z
" style="fill: #8fff9f"/>
  </g>
  <g id="axes_1">
   <g id="patch_2">
    <path d="M 12.656669 24.798041 
L 12.769138 48.191586 
M 2.421993 48.191586 
Q 2.79689 47.966648 3.752876 47.985393 
Q 4.708862 48.004138 5.121248 47.966648 
L 11.756917 47.966648 
Q 12.844117 47.966648 14.043786 47.81669 
Q 15.243455 47.666731 16.686807 47.423048 
Q 18.130159 47.179366 18.954931 47.066897 
L 25.928007 46.954428 
M 8.270379 40.543697 
L 17.755262 40.1688 
M 7.370628 32.745848 
L 19.0674 32.146014 
M 8.270379 29.371779 
Q 8.23289 29.596717 8.270379 29.821655 
Q 8.345359 30.196552 8.026697 30.702662 
Q 7.708034 31.208772 7.708034 31.50869 
Q 7.708034 31.846097 7.464352 32.352207 
Q 7.220669 32.858317 7.014476 33.195724 
Q 6.808283 33.533131 6.377152 34.132966 
Q 5.946021 34.7328 5.908531 34.77029 
L 5.458655 35.107697 
" clip-path="url(#p8d78044ba3)" style="fill: none; stroke: #000000; stroke-linejoin: miter"/>
   </g>
  </g>
  <g id="axes_2">
   <g id="patch_3">
    <path d="M 42.693703 34.995228 
L 46.630117 34.545352 
L 47.079993 34.545352 
Q 47.867276 34.170455 48.073469 34.657821 
Q 48.279662 35.145186 48.110959 36.288621 
Q 47.942255 37.432055 47.979745 37.694483 
Q 48.092214 38.856662 47.99849 39.512731 
Q 47.904766 40.1688 47.736062 40.449972 
Q 47.567359 40.731145 47.304931 40.768634 
Q 47.042503 40.806124 46.817566 40.7124 
Q 46.592628 40.618676 46.405179 40.543697 
Q 46.217731 40.468717 46.180241 40.506207 
L 45.168021 40.1688 
M 42.918641 34.432883 
Q 42.881152 34.470372 42.899897 34.77029 
Q 42.918641 35.070207 42.918641 35.107697 
Q 42.918641 36.457324 42.974876 39.344028 
Q 43.03111 42.230731 43.012366 44.367641 
Q 42.993621 46.504552 42.806172 48.566483 
M 35.045814 40.1688 
L 35.720628 40.1688 
L 36.957786 40.1688 
L 40.556793 39.606455 
M 34.033593 35.220166 
L 34.595938 35.220166 
Q 35.533179 35.220166 37.463897 34.882759 
Q 39.394614 34.545352 40.331855 34.545352 
L 40.781731 34.545352 
L 40.556793 39.269048 
M 34.033593 35.670041 
Q 34.108572 35.932469 34.389745 37.057159 
Q 34.670917 38.181848 34.933345 38.706703 
L 35.045814 40.056331 
M 37.520131 32.220993 
L 44.493207 32.108524 
M 41.569014 26.0352 
Q 42.206338 27.497297 43.462241 28.547007 
Q 44.718145 29.596717 46.798821 30.683917 
Q 48.879497 31.771117 49.666779 32.333462 
L 53.603193 33.908028 
M 41.94391 24.460634 
Q 39.319634 29.184331 34.820876 32.5584 
L 31.446807 33.908028 
" clip-path="url(#p827fe472a3)" style="fill: none; stroke: #000000; stroke-linejoin: miter"/>
   </g>
  </g>
  <g id="axes_3">
   <g id="patch_4">
    <path d="M 73.836683 33.420662 
Q 74.961372 33.720579 77.210752 35.332634 
M 72.149648 28.584497 
Q 73.649234 28.696966 75.973593 28.115876 
Q 78.297952 27.534786 79.122724 27.459807 
Q 79.53511 27.459807 79.760048 27.553531 
Q 79.984986 27.647255 80.059966 27.890938 
Q 80.134945 28.134621 80.1162 28.378303 
Q 80.097455 28.621986 80.059966 29.146841 
Q 80.022476 29.671697 80.022476 30.046593 
Q 80.247414 34.320414 79.460131 43.4304 
Q 79.460131 43.805297 79.460131 44.105214 
Q 79.460131 44.405131 79.441386 44.630069 
Q 79.422641 44.855007 79.253938 44.986221 
Q 79.085234 45.117434 78.672848 45.117434 
L 77.998034 45.117434 
L 75.636186 43.542869 
M 73.949152 23.8608 
L 73.949152 24.198207 
Q 73.949152 25.022979 73.574255 26.110179 
Q 73.199359 27.197379 72.599524 28.472028 
Q 71.99969 29.746676 71.812241 30.271531 
L 71.137428 31.396221 
M 62.552297 43.767807 
L 63.564517 43.767807 
L 69.412903 43.4304 
M 62.552297 35.894979 
L 68.175745 35.670041 
M 61.502586 29.971614 
L 63.414559 29.971614 
Q 63.901924 29.971614 65.439 29.634207 
Q 66.976076 29.2968 68.250724 28.959393 
Q 69.525372 28.621986 69.525372 28.584497 
Q 69.525372 39.493986 69.300434 42.868055 
L 68.963028 45.342372 
M 61.952462 28.846924 
L 61.952462 29.184331 
Q 61.952462 30.908855 62.364848 34.15171 
Q 62.777234 37.394566 62.777234 39.156579 
L 62.777234 42.868055 
L 62.327359 43.992745 
M 68.063276 24.760552 
Q 67.6134 25.060469 67.088545 25.99771 
Q 66.56369 26.934952 66.151303 27.234869 
L 65.251552 29.25931 
" clip-path="url(#p010161b01b)" style="fill: none; stroke: #000000; stroke-linejoin: miter"/>
   </g>
  </g>
  <g id="axes_4">
   <g id="patch_5">
    <path d="M 104.52424 32.412008 
L 104.52424 38.703686 
Q 105.085997 38.778587 106.153336 38.965839 
Q 107.220674 39.153091 108.13821 39.265443 
Q 109.055746 39.377794 109.917107 39.377794 
Q 110.216711 39.377794 110.478864 39.321618 
Q 110.741017 39.265443 111.021896 39.171816 
Q 111.302774 39.07819 111.490026 39.04074 
L 111.265324 36.906063 
M 104.52424 31.850251 
L 110.478864 31.7379 
M 103.288375 29.153818 
Q 103.999934 28.891664 106.509115 28.685687 
Q 109.018296 28.479709 109.917107 28.255007 
L 110.254161 28.255007 
L 108.231836 31.400845 
M 91.52893 37.767424 
L 91.52893 38.21683 
Q 96.697094 45.482219 111.527477 44.396156 
M 91.52893 37.093316 
L 91.52893 37.43037 
Q 91.52893 38.778587 90.817371 39.86465 
Q 90.105812 40.950713 88.944848 42.018052 
Q 87.783884 43.08539 87.371929 43.722048 
L 86.922523 44.059102 
M 95.57358 36.868613 
L 100.517041 36.756262 
M 95.236526 34.396882 
L 95.348877 39.452695 
L 95.57358 39.789749 
M 87.821334 34.509234 
Q 90.405416 33.984927 92.390291 34.228355 
Q 94.375165 34.471783 96.940522 34.453058 
Q 99.505878 34.434333 101.340951 33.572972 
M 95.236526 23.611149 
Q 95.873184 27.168943 95.910634 29.453421 
Q 95.910634 29.490872 95.798283 31.363395 
L 95.57358 33.273369 
M 91.641281 29.565773 
L 98.157662 29.565773 
" clip-path="url(#p35e812f343)" style="fill: none; stroke: #000000; stroke-linejoin: miter"/>
   </g>
  </g>
  <g id="axes_5">
   <g id="patch_6">
    <path d="M 124.632062 25.322897 
L 124.632062 25.622814 
Q 124.632062 25.960221 124.688297 26.897462 
Q 124.744531 27.834703 124.707041 28.322069 
Q 124.669552 29.2968 124.594572 31.115048 
Q 124.519593 32.933297 124.463359 33.776814 
Q 124.407124 34.620331 124.294655 36.157407 
Q 124.182186 37.694483 123.975993 38.519255 
Q 123.7698 39.344028 123.451138 40.637421 
Q 123.132476 41.930814 122.663855 42.830566 
Q 122.195234 43.730317 121.539166 44.855007 
Q 120.883097 45.979697 119.983345 47.029407 
Q 119.083593 48.079117 117.958903 49.166317 
M 135.016697 39.831393 
L 135.241634 39.831393 
Q 135.916448 40.318759 136.834945 41.780855 
Q 137.753441 43.242952 138.690683 43.617848 
M 129.843124 40.056331 
Q 129.505717 41.29349 128.437262 42.399434 
Q 127.368807 43.505379 126.094159 44.180193 
M 132.542379 37.132138 
L 132.542379 37.357076 
Q 132.542379 38.706703 132.804807 41.349724 
Q 133.067234 43.992745 133.067234 45.417352 
Q 133.067234 47.891669 132.729828 47.891669 
Q 132.542379 47.891669 132.129993 47.591752 
Q 131.717607 47.291834 131.248986 46.879448 
Q 130.780366 46.467062 130.705386 46.429572 
L 129.805634 45.417352 
M 127.818683 33.195724 
L 128.381028 33.195724 
L 132.317441 33.195724 
L 134.941717 32.895807 
M 128.605966 36.569793 
L 128.943372 36.569793 
L 129.955593 36.569793 
L 135.729 36.382345 
M 127.143869 30.271531 
L 127.818683 30.271531 
Q 129.618186 30.271531 132.617359 29.765421 
Q 135.616531 29.25931 137.228586 29.25931 
Q 136.8162 31.846097 136.628752 32.220993 
L 135.279124 37.057159 
M 126.656503 30.271531 
L 126.656503 30.608938 
L 128.268559 35.557572 
M 131.980034 26.335117 
Q 131.980034 26.747503 131.717607 27.384828 
Q 131.455179 28.022152 131.41769 28.359559 
L 130.517938 29.934124 
M 124.144697 26.260138 
Q 126.356586 26.260138 131.267731 25.829007 
Q 136.178876 25.397876 137.491014 25.322897 
L 138.278297 24.98549 
M 121.070545 37.019669 
L 121.070545 37.469545 
Q 121.070545 38.894152 118.989869 42.155752 
Q 116.909193 45.417352 116.759234 45.754759 
L 116.534297 46.204634 
M 116.459317 32.071034 
L 116.684255 32.071034 
L 120.283262 33.6456 
M 118.37129 26.447586 
Q 119.720917 27.15989 121.520421 28.696966 
L 122.082766 29.25931 
" clip-path="url(#p33cd0657ee)" style="fill: none; stroke: #000000; stroke-linejoin: miter"/>
   </g>
  </g>
  <g id="axes_6">
   <g id="patch_7">
    <path d="M 157.351529 43.151274 
Q 158.507197 42.826242 160.872707 42.826242 
Q 163.238217 42.826242 164.393885 42.50121 
L 167.427516 42.392866 
M 157.784904 34.80879 
L 158.326624 34.80879 
Q 159.626752 34.80879 163.96051 34.574045 
Q 168.294268 34.339299 168.294268 34.158726 
Q 168.294268 34.736561 167.987293 35.874172 
Q 167.680318 37.011783 167.228885 38.402197 
Q 166.777452 39.792611 166.669108 40.225987 
L 166.560764 43.04293 
M 157.676561 34.158726 
Q 158.29051 36.939554 158.21828 42.934586 
M 150.814777 36.722866 
Q 151.573185 37.192357 153.234459 37.84242 
Q 154.895732 38.492484 155.581911 38.889745 
M 150.489745 33.039172 
L 150.489745 33.472548 
Q 150.489745 34.664331 149.641051 35.964459 
Q 148.792357 37.264586 147.474172 38.727229 
Q 146.155987 40.189873 145.722611 40.839936 
L 144.639172 41.706688 
M 143.555732 35.097707 
L 143.77242 35.097707 
Q 145.469809 34.411529 147.600573 33.887866 
Q 149.731338 33.364204 151.248153 33.129459 
Q 152.764968 32.894713 155.365223 32.569682 
Q 157.965478 32.24465 159.157261 32.064076 
M 150.236943 27.910892 
L 150.453631 47.846178 
M 145.794841 28.560955 
L 146.011529 28.560955 
Q 147.239427 28.560955 148.810414 28.181752 
Q 150.381401 27.802548 152.27742 27.206656 
Q 154.173439 26.610764 155.004076 26.394076 
L 155.979172 25.960701 
" clip-path="url(#pe72efb2e83)" style="fill: none; stroke: #000000; stroke-linejoin: miter"/>
   </g>
  </g>
  <g id="axes_7">
   <g id="patch_8">
    <path d="M 183.543952 38.144359 
Q 183.618931 38.256828 183.881359 38.03189 
Q 184.068807 37.844441 184.106297 38.106869 
L 189.242379 38.144359 
M 187.03049 33.420662 
Q 187.03049 33.533131 187.03049 33.776814 
Q 187.03049 34.020497 187.03049 34.132966 
Q 187.03049 34.545352 186.730572 38.594234 
L 186.468145 41.106041 
M 187.667814 43.130483 
Q 187.892752 43.317931 189.242379 45.042455 
Q 190.592007 46.766979 191.716697 47.179366 
M 184.068807 43.018014 
L 184.068807 43.242952 
Q 184.068807 43.46789 183.843869 43.861531 
Q 183.618931 44.255172 183.300269 44.667559 
Q 182.981607 45.079945 182.944117 45.154924 
L 181.706959 46.392083 
M 183.506462 40.993572 
L 184.181276 40.993572 
Q 184.218766 40.993572 188.342628 41.106041 
L 189.917193 41.443448 
M 182.494241 36.044938 
Q 182.756669 35.745021 184.368724 35.82 
Q 185.980779 35.894979 186.318186 35.85749 
Q 189.804724 35.407614 190.479538 35.407614 
Q 190.816945 35.407614 190.816945 35.520083 
Q 190.666986 36.044938 190.310834 37.375821 
Q 189.954683 38.706703 189.654766 39.6252 
Q 189.354848 40.543697 189.017441 41.21851 
M 182.381772 36.607283 
Q 182.756669 37.057159 182.981607 37.806952 
Q 183.206545 38.556745 183.506462 39.006621 
Q 183.506462 39.0816 183.468972 39.531476 
Q 183.431483 39.981352 183.487717 40.337503 
Q 183.543952 40.693655 183.7314 40.768634 
M 183.956338 33.720579 
Q 183.956338 33.420662 183.993828 33.383172 
Q 184.031317 33.345683 184.218766 33.60811 
Q 184.481193 34.057986 184.518683 33.720579 
Q 185.193497 33.720579 185.999524 33.589366 
Q 186.805552 33.458152 187.817772 33.233214 
Q 188.829993 33.008276 189.354848 32.933297 
M 186.393166 27.347338 
Q 186.543124 27.309848 186.824297 27.478552 
Q 187.105469 27.647255 187.292917 27.684745 
L 188.417607 28.809434 
M 179.869966 31.396221 
Q 184.106297 30.009103 192.803897 30.159062 
Q 193.141303 30.159062 193.853607 30.102828 
Q 194.56591 30.046593 194.940807 30.046593 
L 194.978297 30.046593 
L 195.053276 30.084083 
Q 195.015786 30.196552 195.053276 30.384 
L 194.041055 32.633379 
M 180.319841 29.484248 
Q 180.282352 29.709186 180.319841 30.159062 
L 179.195152 33.533131 
M 178.107952 38.481766 
Q 177.358159 39.718924 175.802338 41.874579 
Q 174.246517 44.030234 173.834131 44.667559 
L 173.496724 45.679779 
M 173.721662 33.083255 
L 174.059069 33.083255 
Q 174.321497 33.083255 174.696393 33.233214 
Q 175.07129 33.383172 175.53991 33.6456 
Q 176.008531 33.908028 176.195979 33.983007 
L 177.433138 35.107697 
M 174.846352 28.022152 
L 175.07129 28.022152 
L 177.658076 30.721407 
" clip-path="url(#pdd16cabf53)" style="fill: none; stroke: #000000; stroke-linejoin: miter"/>
   </g>
  </g>
  <g id="axes_8">
   <g id="patch_9">
    <path d="M 204.808407 41.21851 
Q 207.545152 41.818345 213.562241 44.498855 
Q 219.579331 47.179366 222.803441 47.629241 
L 223.365786 47.966648 
M 206.832848 39.306538 
Q 208.519883 38.819172 212.006421 38.819172 
Q 215.492959 38.819172 217.179993 38.631724 
Q 220.704021 38.03189 211.444076 46.392083 
Q 211.181648 46.65451 211.106669 46.72949 
L 204.845897 49.203807 
M 217.179993 32.333462 
Q 217.817317 32.820828 220.216655 34.807779 
L 220.554062 35.145186 
M 206.382972 32.220993 
Q 205.933097 32.333462 205.5582 33.195724 
Q 205.183303 34.057986 204.808407 34.357903 
L 203.008903 36.494814 
M 210.656793 24.798041 
L 212.793703 27.384828 
M 214.930614 29.2968 
L 214.930614 29.859145 
Q 214.930614 30.796386 214.83689 31.921076 
Q 214.743166 33.045766 214.593207 34.451628 
Q 214.443248 35.85749 214.368269 36.607283 
M 208.85729 29.071862 
Q 208.894779 29.709186 208.85729 30.309021 
Q 208.85729 30.721407 209.138462 31.43371 
Q 209.419634 32.146014 209.419634 32.5584 
Q 209.419634 32.933297 209.475869 33.758069 
Q 209.532103 34.582841 209.532103 34.807779 
L 209.532103 35.707531 
L 209.757041 36.044938 
M 201.884214 29.634207 
Q 202.221621 29.409269 203.42129 29.521738 
Q 204.620959 29.634207 205.033345 29.521738 
Q 206.307993 29.521738 209.025993 29.2968 
Q 211.743993 29.071862 213.018641 29.071862 
L 218.417152 29.071862 
Q 218.454641 29.071862 219.316903 28.734455 
L 222.241097 29.071862 
" clip-path="url(#peec3d2c4ca)" style="fill: none; stroke: #000000; stroke-linejoin: miter"/>
   </g>
  </g>
  <g id="axes_9">
   <g id="patch_10">
    <path d="M 241.443621 42.043283 
Q 241.443621 42.043283 240.656338 42.043283 
Q 239.644117 42.043283 239.025538 42.811821 
Q 238.406959 43.580359 238.406959 44.630069 
Q 238.369469 45.679779 239.100517 46.260869 
Q 239.831566 46.841959 240.881276 46.65451 
Q 241.181193 46.617021 241.668559 46.579531 
Q 242.155924 46.542041 242.418352 46.504552 
Q 242.680779 46.467062 242.999441 46.317103 
Q 243.318103 46.167145 243.449317 45.810993 
Q 243.580531 45.454841 243.580531 44.855007 
Q 243.580531 44.592579 243.468062 44.330152 
Q 243.355593 44.067724 243.168145 43.749062 
Q 242.980697 43.4304 242.905717 43.280441 
L 241.781028 42.605628 
" clip-path="url(#p049c8c9d55)" style="fill: none; stroke: #000000; stroke-linejoin: miter"/>
   </g>
  </g>
 </g>
 <defs>
  <clipPath id="p8d78044ba3">
   <rect x="0.54751" y="8.64" width="27.254979" height="54.36"/>
  </clipPath>
  <clipPath id="p827fe472a3">
   <rect x="29.572324" y="8.64" width="25.905352" height="54.36"/>
  </clipPath>
  <clipPath id="p010161b01b">
   <rect x="59.628103" y="8.64" width="22.493793" height="54.36"/>
  </clipPath>
  <clipPath id="p35e812f343">
   <rect x="85.05" y="8.668415" width="28.35" height="54.30317"/>
  </clipPath>
  <clipPath id="p33cd0657ee">
   <rect x="114.584834" y="8.64" width="25.980331" height="54.36"/>
  </clipPath>
  <clipPath id="pe72efb2e83">
   <rect x="141.75" y="9.636879" width="28.35" height="52.366242"/>
  </clipPath>
  <clipPath id="pdd16cabf53">
   <rect x="171.622241" y="8.64" width="25.305517" height="54.36"/>
  </clipPath>
  <clipPath id="peec3d2c4ca">
   <rect x="200.009731" y="8.64" width="25.230538" height="54.36"/>
  </clipPath>
  <clipPath id="p049c8c9d55">
   <rect x="236.494986" y="8.64" width="8.960028" height="54.36"/>
  </clipPath>
 </defs>
</svg>
