<?xml version="1.0" encoding="utf-8" standalone="no"?>
<!DOCTYPE svg PUBLIC "-//W3C//DTD SVG 1.1//EN"
  "http://www.w3.org/Graphics/SVG/1.1/DTD/svg11.dtd">
<svg xmlns:xlink="http://www.w3.org/1999/xlink" width="630pt" height="72pt" viewBox="0 0 630 72" xmlns="http://www.w3.org/2000/svg" version="1.1">
 <metadata>
  <rdf:RDF xmlns:dc="http://purl.org/dc/elements/1.1/" xmlns:cc="http://creativecommons.org/ns#" xmlns:rdf="http://www.w3.org/1999/02/22-rdf-syntax-ns#">
   <cc:Work>
    <dc:type rdf:resource="http://purl.org/dc/dcmitype/StillImage"/>
    <dc:date>2023-02-15T22:53:44.647966</dc:date>
    <dc:format>image/svg+xml</dc:format>
    <dc:creator>
     <cc:Agent>
      <dc:title>Matplotlib v3.6.1, https://matplotlib.org/</dc:title>
     </cc:Agent>
    </dc:creator>
   </cc:Work>
  </rdf:RDF>
 </metadata>
 <defs>
  <style type="text/css">*{stroke-linejoin: round; stroke-linecap: butt}</style>
 </defs>
 <g id="figure_1">
  <g id="patch_1">
   <path d="M 0 72 
L 630 72 
L 630 0 
L 0 0 
z
" style="fill: #8fff9f"/>
  </g>
  <g id="axes_1">
   <g id="patch_2">
    <path d="M 3.657476 43.917766 
Q 3.957393 44.180193 4.969614 45.154924 
Q 5.981834 46.129655 6.544179 46.560786 
Q 7.106524 46.991917 8.13749 47.385559 
Q 9.168455 47.7792 10.180676 47.629241 
Q 10.85549 47.629241 11.32411 47.404303 
Q 11.792731 47.179366 12.017669 46.879448 
Q 12.242607 46.579531 12.373821 45.979697 
Q 12.505034 45.379862 12.523779 44.967476 
Q 12.542524 44.55509 12.542524 43.805297 
Q 12.542524 42.718097 11.642772 42.043283 
Q 10.743021 41.368469 9.449628 41.031062 
Q 8.156234 40.693655 6.862841 40.300014 
Q 5.569448 39.906372 4.669697 38.987876 
Q 3.769945 38.069379 3.769945 36.607283 
Q 3.769945 36.082428 3.938648 35.726276 
Q 4.107352 35.370124 4.500993 35.145186 
Q 4.894634 34.920248 5.175807 34.807779 
Q 5.456979 34.69531 6.113048 34.639076 
Q 6.769117 34.582841 6.956566 34.582841 
Q 7.144014 34.582841 7.818828 34.582841 
Q 9.018497 34.582841 9.599586 34.995228 
Q 10.180676 35.407614 10.499338 36.026193 
Q 10.818 36.644772 11.080428 36.832221 
" clip-path="url(#pdeed87ce64)" style="fill: none; stroke: #000000; stroke-linejoin: miter"/>
   </g>
  </g>
  <g id="axes_2">
   <g id="patch_3">
    <path d="M 20.813462 35.932469 
Q 21.413297 35.257655 22.406772 34.826524 
Q 23.400248 34.395393 24.3 34.470372 
Q 24.937324 34.470372 25.42469 34.639076 
Q 25.912055 34.807779 26.230717 34.995228 
Q 26.549379 35.182676 26.774317 35.670041 
Q 26.999255 36.157407 27.111724 36.419834 
Q 27.224193 36.682262 27.280428 37.375821 
Q 27.336662 38.069379 27.355407 38.331807 
Q 27.374152 38.594234 27.355407 39.419007 
Q 27.336662 40.243779 27.336662 40.431228 
Q 27.336662 41.368469 27.167959 43.242952 
Q 26.999255 45.117434 26.999255 46.054676 
Q 26.999255 46.467062 27.05549 46.823214 
Q 27.111724 47.179366 27.205448 47.610497 
Q 27.299172 48.041628 27.336662 48.304055 
L 27.786538 48.528993 
M 21.263338 23.111007 
Q 21.488276 24.798041 21.488276 29.971614 
L 21.488276 42.3432 
L 21.150869 46.841959 
L 20.925931 47.74171 
" clip-path="url(#pe11a77224d)" style="fill: none; stroke: #000000; stroke-linejoin: miter"/>
   </g>
  </g>
  <g id="axes_3">
   <g id="patch_4">
    <path d="M 34.257798 38.160826 
Q 37.230275 39.535596 41.949083 39.721376 
Q 43.472477 39.721376 44.159862 38.550963 
Q 44.847248 37.38055 44.847248 35.82 
Q 44.847248 35.299817 44.754358 34.909679 
Q 44.661468 34.519541 44.419954 34.296606 
Q 44.17844 34.07367 44.011239 33.943624 
Q 43.844037 33.813578 43.398165 33.757844 
Q 42.952294 33.70211 42.747936 33.683532 
Q 42.543578 33.664954 41.967661 33.683532 
Q 41.391743 33.70211 41.168807 33.70211 
Q 39.125229 33.70211 37.638991 35.578486 
Q 36.152752 37.454862 36.152752 39.609908 
Q 36.152752 42.619541 38.084862 44.570229 
Q 40.016972 46.520917 43.063761 46.520917 
Q 45.218807 46.818165 46.742202 44.29156 
" clip-path="url(#p7857c7b6e8)" style="fill: none; stroke: #000000; stroke-linejoin: miter"/>
   </g>
  </g>
  <g id="axes_4"/>
  <g id="axes_5">
   <g id="patch_5">
    <path d="M 66.516102 36.437797 
L 67.751695 44.778051 
Q 67.854661 45.567458 67.854661 45.60178 
Q 67.854661 45.704746 68.163559 45.704746 
Q 69.02161 45.704746 69.742373 44.778051 
Q 70.463136 43.851356 70.875 42.718729 
Q 71.286864 41.586102 71.801695 40.659407 
Q 72.316525 39.732712 72.797034 39.732712 
Q 73.414831 39.732712 74.049788 40.607924 
Q 74.684746 41.483136 75.148093 42.512797 
Q 75.611441 43.542458 76.28072 44.417669 
Q 76.95 45.292881 77.636441 45.292881 
Q 77.911017 43.782712 78.340042 39.69839 
Q 78.769068 35.614068 79.283898 33.554746 
" clip-path="url(#pe7f4f55b16)" style="fill: none; stroke: #000000; stroke-linejoin: miter"/>
   </g>
  </g>
  <g id="axes_6">
   <g id="patch_6">
    <path d="M 92.3616 35.032717 
Q 91.31189 34.582841 90.337159 34.69531 
Q 87.300497 35.032717 85.388524 36.701007 
Q 83.476552 38.369297 83.476552 41.330979 
Q 83.476552 43.917766 85.482248 45.6048 
Q 87.487945 47.291834 90.112221 47.291834 
Q 92.474069 47.291834 93.598759 45.361117 
Q 94.723448 43.4304 94.723448 40.881103 
Q 94.723448 39.643945 94.311062 38.706703 
Q 93.898676 37.769462 93.373821 37.300841 
Q 92.848966 36.832221 92.099172 36.119917 
Q 91.349379 35.407614 90.899503 34.69531 
L 89.662345 34.245434 
" clip-path="url(#pe27aae8992)" style="fill: none; stroke: #000000; stroke-linejoin: miter"/>
   </g>
  </g>
  <g id="axes_7">
   <g id="patch_7">
    <path d="M 101.813462 32.783338 
Q 102.338317 34.507862 102.469531 36.457324 
Q 102.600745 38.406786 102.525766 40.956083 
Q 102.450786 43.505379 102.488276 44.705048 
L 102.600745 46.054676 
L 102.600745 45.829738 
Q 102.600745 44.667559 102.319572 42.30571 
Q 102.0384 39.943862 102.0384 38.744193 
Q 102.0384 36.419834 103.050621 34.882759 
Q 104.062841 33.345683 106.087283 33.345683 
Q 106.799586 33.345683 107.136993 33.626855 
Q 107.4744 33.908028 107.736828 34.432883 
Q 107.999255 34.957738 108.336662 35.257655 
L 108.786538 36.832221 
" clip-path="url(#pf1ca3ab08e)" style="fill: none; stroke: #000000; stroke-linejoin: miter"/>
   </g>
  </g>
  <g id="axes_8">
   <g id="patch_8">
    <path d="M 119.531793 37.169628 
Q 121.556234 39.194069 123.318248 41.76211 
Q 125.080262 44.330152 125.942524 46.72949 
M 122.568455 31.321241 
L 122.568455 31.546179 
Q 122.568455 32.333462 121.931131 33.514386 
Q 121.293807 34.69531 120.319076 36.101172 
Q 119.344345 37.507034 119.081917 37.95691 
L 117.844759 39.643945 
M 117.057476 26.710014 
Q 118.894469 36.269876 119.081917 48.641462 
" clip-path="url(#p4884fb2433)" style="fill: none; stroke: #000000; stroke-linejoin: miter"/>
   </g>
  </g>
  <g id="axes_9">
   <g id="patch_9">
    <path d="M 131.457798 38.160826 
Q 134.430275 39.535596 139.149083 39.721376 
Q 140.672477 39.721376 141.359862 38.550963 
Q 142.047248 37.38055 142.047248 35.82 
Q 142.047248 35.299817 141.954358 34.909679 
Q 141.861468 34.519541 141.619954 34.296606 
Q 141.37844 34.07367 141.211239 33.943624 
Q 141.044037 33.813578 140.598165 33.757844 
Q 140.152294 33.70211 139.947936 33.683532 
Q 139.743578 33.664954 139.167661 33.683532 
Q 138.591743 33.70211 138.368807 33.70211 
Q 136.325229 33.70211 134.838991 35.578486 
Q 133.352752 37.454862 133.352752 39.609908 
Q 133.352752 42.619541 135.284862 44.570229 
Q 137.216972 46.520917 140.263761 46.520917 
Q 142.418807 46.818165 143.942202 44.29156 
" clip-path="url(#p838c14b849)" style="fill: none; stroke: #000000; stroke-linejoin: miter"/>
   </g>
  </g>
  <g id="axes_10">
   <g id="patch_10">
    <path d="M 157.499007 39.568966 
Q 156.149379 38.181848 153.9 38.444276 
Q 151.050786 38.444276 149.888607 39.793903 
Q 148.726428 41.143531 148.726428 44.067724 
Q 148.726428 45.56731 150.019821 46.279614 
Q 151.313214 46.991917 152.887779 46.991917 
Q 154.199917 46.991917 155.212138 45.736014 
Q 156.224359 44.48011 156.805448 42.30571 
Q 157.386538 40.13131 157.761434 37.938166 
Q 158.136331 35.745021 158.28629 33.045766 
Q 158.436248 30.34651 158.473738 28.978138 
Q 158.511228 27.609766 158.511228 26.185159 
Q 158.28629 26.260138 158.28629 29.896634 
L 158.28629 44.292662 
L 159.073572 48.229076 
" clip-path="url(#p8aa072a8aa)" style="fill: none; stroke: #000000; stroke-linejoin: miter"/>
   </g>
  </g>
  <g id="axes_11"/>
  <g id="axes_12">
   <g id="patch_11">
    <path d="M 191.843923 36.441748 
Q 190.634968 35.094627 186.662687 35.094627 
Q 185.142857 35.094627 184.365672 35.146439 
Q 183.588486 35.198252 182.58678 35.440043 
Q 181.585075 35.681834 181.101493 36.182687 
Q 180.61791 36.683539 180.272495 37.616162 
Q 179.927079 38.548785 179.927079 39.964989 
Q 179.927079 42.037484 181.343284 43.280981 
Q 182.759488 44.524478 184.693817 44.524478 
Q 187.353518 44.524478 190.116844 38.721493 
Q 191.463966 35.854542 191.463966 35.82 
Q 191.809382 35.578209 191.843923 36.441748 
Q 191.843923 37.512537 192.258422 40.362217 
Q 192.672921 43.211898 192.672921 44.524478 
" clip-path="url(#p40e019184e)" style="fill: none; stroke: #000000; stroke-linejoin: miter"/>
   </g>
  </g>
  <g id="axes_13">
   <g id="patch_12">
    <path d="M 197.663834 37.95691 
L 198.338648 37.95691 
Q 199.050952 37.95691 199.838234 37.881931 
Q 200.625517 37.806952 201.581503 37.675738 
Q 202.53749 37.544524 203.062345 37.507034 
L 207.336166 35.82 
M 203.287283 30.42149 
L 203.287283 31.43371 
Q 203.287283 33.383172 202.612469 37.207117 
Q 201.937655 41.031062 201.937655 43.018014 
Q 201.937655 43.805297 201.937655 44.105214 
Q 201.937655 44.405131 202.031379 45.042455 
Q 202.125103 45.679779 202.312552 45.960952 
Q 202.5 46.242124 202.893641 46.485807 
Q 203.287283 46.72949 203.849628 46.72949 
Q 203.962097 46.692 204.280759 46.72949 
Q 204.599421 46.766979 204.786869 46.710745 
Q 204.974317 46.65451 204.974317 46.392083 
" clip-path="url(#pde9e41d41d)" style="fill: none; stroke: #000000; stroke-linejoin: miter"/>
   </g>
  </g>
  <g id="axes_14"/>
  <g id="axes_15">
   <g id="patch_13">
    <path d="M 240.443923 36.441748 
Q 239.234968 35.094627 235.262687 35.094627 
Q 233.742857 35.094627 232.965672 35.146439 
Q 232.188486 35.198252 231.18678 35.440043 
Q 230.185075 35.681834 229.701493 36.182687 
Q 229.21791 36.683539 228.872495 37.616162 
Q 228.527079 38.548785 228.527079 39.964989 
Q 228.527079 42.037484 229.943284 43.280981 
Q 231.359488 44.524478 233.293817 44.524478 
Q 235.953518 44.524478 238.716844 38.721493 
Q 240.063966 35.854542 240.063966 35.82 
Q 240.409382 35.578209 240.443923 36.441748 
Q 240.443923 37.512537 240.858422 40.362217 
Q 241.272921 43.211898 241.272921 44.524478 
" clip-path="url(#pa30eefaa19)" style="fill: none; stroke: #000000; stroke-linejoin: miter"/>
   </g>
  </g>
  <g id="axes_16"/>
  <g id="axes_17">
   <g id="patch_14">
    <path d="M 263.813462 32.783338 
Q 264.338317 34.507862 264.469531 36.457324 
Q 264.600745 38.406786 264.525766 40.956083 
Q 264.450786 43.505379 264.488276 44.705048 
L 264.600745 46.054676 
L 264.600745 45.829738 
Q 264.600745 44.667559 264.319572 42.30571 
Q 264.0384 39.943862 264.0384 38.744193 
Q 264.0384 36.419834 265.050621 34.882759 
Q 266.062841 33.345683 268.087283 33.345683 
Q 268.799586 33.345683 269.136993 33.626855 
Q 269.4744 33.908028 269.736828 34.432883 
Q 269.999255 34.957738 270.336662 35.257655 
L 270.786538 36.832221 
" clip-path="url(#pb8131ce516)" style="fill: none; stroke: #000000; stroke-linejoin: miter"/>
   </g>
  </g>
  <g id="axes_18">
   <g id="patch_15">
    <path d="M 277.257798 38.160826 
Q 280.230275 39.535596 284.949083 39.721376 
Q 286.472477 39.721376 287.159862 38.550963 
Q 287.847248 37.38055 287.847248 35.82 
Q 287.847248 35.299817 287.754358 34.909679 
Q 287.661468 34.519541 287.419954 34.296606 
Q 287.17844 34.07367 287.011239 33.943624 
Q 286.844037 33.813578 286.398165 33.757844 
Q 285.952294 33.70211 285.747936 33.683532 
Q 285.543578 33.664954 284.967661 33.683532 
Q 284.391743 33.70211 284.168807 33.70211 
Q 282.125229 33.70211 280.638991 35.578486 
Q 279.152752 37.454862 279.152752 39.609908 
Q 279.152752 42.619541 281.084862 44.570229 
Q 283.016972 46.520917 286.063761 46.520917 
Q 288.218807 46.818165 289.742202 44.29156 
" clip-path="url(#pe688070125)" style="fill: none; stroke: #000000; stroke-linejoin: miter"/>
   </g>
  </g>
  <g id="axes_19">
   <g id="patch_16">
    <path d="M 295.257476 43.917766 
Q 295.557393 44.180193 296.569614 45.154924 
Q 297.581834 46.129655 298.144179 46.560786 
Q 298.706524 46.991917 299.73749 47.385559 
Q 300.768455 47.7792 301.780676 47.629241 
Q 302.45549 47.629241 302.92411 47.404303 
Q 303.392731 47.179366 303.617669 46.879448 
Q 303.842607 46.579531 303.973821 45.979697 
Q 304.105034 45.379862 304.123779 44.967476 
Q 304.142524 44.55509 304.142524 43.805297 
Q 304.142524 42.718097 303.242772 42.043283 
Q 302.343021 41.368469 301.049628 41.031062 
Q 299.756234 40.693655 298.462841 40.300014 
Q 297.169448 39.906372 296.269697 38.987876 
Q 295.369945 38.069379 295.369945 36.607283 
Q 295.369945 36.082428 295.538648 35.726276 
Q 295.707352 35.370124 296.100993 35.145186 
Q 296.494634 34.920248 296.775807 34.807779 
Q 297.056979 34.69531 297.713048 34.639076 
Q 298.369117 34.582841 298.556566 34.582841 
Q 298.744014 34.582841 299.418828 34.582841 
Q 300.618497 34.582841 301.199586 34.995228 
Q 301.780676 35.407614 302.099338 36.026193 
Q 302.418 36.644772 302.680428 36.832221 
" clip-path="url(#p5e5d02e2e4)" style="fill: none; stroke: #000000; stroke-linejoin: miter"/>
   </g>
  </g>
  <g id="axes_20">
   <g id="patch_17">
    <path d="M 309.657798 38.160826 
Q 312.630275 39.535596 317.349083 39.721376 
Q 318.872477 39.721376 319.559862 38.550963 
Q 320.247248 37.38055 320.247248 35.82 
Q 320.247248 35.299817 320.154358 34.909679 
Q 320.061468 34.519541 319.819954 34.296606 
Q 319.57844 34.07367 319.411239 33.943624 
Q 319.244037 33.813578 318.798165 33.757844 
Q 318.352294 33.70211 318.147936 33.683532 
Q 317.943578 33.664954 317.367661 33.683532 
Q 316.791743 33.70211 316.568807 33.70211 
Q 314.525229 33.70211 313.038991 35.578486 
Q 311.552752 37.454862 311.552752 39.609908 
Q 311.552752 42.619541 313.484862 44.570229 
Q 315.416972 46.520917 318.463761 46.520917 
Q 320.618807 46.818165 322.142202 44.29156 
" clip-path="url(#pb574a3a341)" style="fill: none; stroke: #000000; stroke-linejoin: miter"/>
   </g>
  </g>
  <g id="axes_21">
   <g id="patch_18">
    <path d="M 337.643923 36.441748 
Q 336.434968 35.094627 332.462687 35.094627 
Q 330.942857 35.094627 330.165672 35.146439 
Q 329.388486 35.198252 328.38678 35.440043 
Q 327.385075 35.681834 326.901493 36.182687 
Q 326.41791 36.683539 326.072495 37.616162 
Q 325.727079 38.548785 325.727079 39.964989 
Q 325.727079 42.037484 327.143284 43.280981 
Q 328.559488 44.524478 330.493817 44.524478 
Q 333.153518 44.524478 335.916844 38.721493 
Q 337.263966 35.854542 337.263966 35.82 
Q 337.609382 35.578209 337.643923 36.441748 
Q 337.643923 37.512537 338.058422 40.362217 
Q 338.472921 43.211898 338.472921 44.524478 
" clip-path="url(#p0fd8fe7013)" style="fill: none; stroke: #000000; stroke-linejoin: miter"/>
   </g>
  </g>
  <g id="axes_22">
   <g id="patch_19">
    <path d="M 344.813462 32.783338 
Q 345.338317 34.507862 345.469531 36.457324 
Q 345.600745 38.406786 345.525766 40.956083 
Q 345.450786 43.505379 345.488276 44.705048 
L 345.600745 46.054676 
L 345.600745 45.829738 
Q 345.600745 44.667559 345.319572 42.30571 
Q 345.0384 39.943862 345.0384 38.744193 
Q 345.0384 36.419834 346.050621 34.882759 
Q 347.062841 33.345683 349.087283 33.345683 
Q 349.799586 33.345683 350.136993 33.626855 
Q 350.4744 33.908028 350.736828 34.432883 
Q 350.999255 34.957738 351.336662 35.257655 
L 351.786538 36.832221 
" clip-path="url(#p3c337073fc)" style="fill: none; stroke: #000000; stroke-linejoin: miter"/>
   </g>
  </g>
  <g id="axes_23">
   <g id="patch_20">
    <path d="M 369.756735 34.365306 
Q 369.756735 34.365306 369.260816 34.365306 
Q 368.467347 34.365306 366.979592 34.067755 
Q 365.491837 33.770204 364.698367 33.770204 
Q 361.921224 33.770204 359.987143 35.224898 
Q 358.053061 36.679592 358.053061 39.423673 
Q 358.053061 40.94449 359.540816 42.399184 
Q 361.028571 43.853878 362.962653 44.663878 
Q 364.896735 45.473878 366.38449 45.473878 
Q 367.310204 45.473878 368.00449 45.110204 
Q 368.698776 44.746531 369.442653 44.118367 
Q 370.186531 43.490204 370.748571 43.192653 
L 370.946939 42.696735 
" clip-path="url(#p7e3566c95a)" style="fill: none; stroke: #000000; stroke-linejoin: miter"/>
   </g>
  </g>
  <g id="axes_24">
   <g id="patch_21">
    <path d="M 377.213462 35.932469 
Q 377.813297 35.257655 378.806772 34.826524 
Q 379.800248 34.395393 380.7 34.470372 
Q 381.337324 34.470372 381.82469 34.639076 
Q 382.312055 34.807779 382.630717 34.995228 
Q 382.949379 35.182676 383.174317 35.670041 
Q 383.399255 36.157407 383.511724 36.419834 
Q 383.624193 36.682262 383.680428 37.375821 
Q 383.736662 38.069379 383.755407 38.331807 
Q 383.774152 38.594234 383.755407 39.419007 
Q 383.736662 40.243779 383.736662 40.431228 
Q 383.736662 41.368469 383.567959 43.242952 
Q 383.399255 45.117434 383.399255 46.054676 
Q 383.399255 46.467062 383.45549 46.823214 
Q 383.511724 47.179366 383.605448 47.610497 
Q 383.699172 48.041628 383.736662 48.304055 
L 384.186538 48.528993 
M 377.663338 23.111007 
Q 377.888276 24.798041 377.888276 29.971614 
L 377.888276 42.3432 
L 377.550869 46.841959 
L 377.325931 47.74171 
" clip-path="url(#p9e88587541)" style="fill: none; stroke: #000000; stroke-linejoin: miter"/>
   </g>
  </g>
  <g id="axes_25"/>
  <g id="axes_26">
   <g id="patch_22">
    <path d="M 413.718579 29.071862 
Q 413.343683 29.146841 413.212469 29.577972 
Q 413.081255 30.009103 413.156234 30.42149 
Q 413.156234 30.571448 413.193724 30.702662 
Q 413.231214 30.833876 413.287448 30.89011 
Q 413.343683 30.946345 413.399917 31.040069 
Q 413.456152 31.133793 413.493641 31.208772 
L 413.60611 29.859145 
M 413.60611 34.020497 
Q 412.706359 39.006621 412.481421 42.793076 
L 412.931297 45.379862 
L 413.268703 46.054676 
" clip-path="url(#p79134fdd06)" style="fill: none; stroke: #000000; stroke-linejoin: miter"/>
   </g>
  </g>
  <g id="axes_27">
   <g id="patch_23">
    <path d="M 424.838731 37.282097 
L 424.838731 37.844441 
Q 425.101159 39.868883 425.138648 41.312234 
Q 425.176138 42.755586 425.082414 44.667559 
Q 424.98869 46.579531 424.98869 48.191586 
L 425.063669 39.643945 
Q 425.063669 38.144359 426.656979 37.507034 
Q 428.25029 36.86971 429.674897 37.282097 
Q 431.586869 37.844441 432.505366 39.04411 
Q 433.423862 40.243779 433.480097 41.668386 
Q 433.536331 43.092993 433.573821 44.817517 
Q 433.61131 46.542041 433.761269 48.191586 
" clip-path="url(#pffaca886c1)" style="fill: none; stroke: #000000; stroke-linejoin: miter"/>
   </g>
  </g>
  <g id="axes_28">
   <g id="patch_24">
    <path d="M 441.057476 43.917766 
Q 441.357393 44.180193 442.369614 45.154924 
Q 443.381834 46.129655 443.944179 46.560786 
Q 444.506524 46.991917 445.53749 47.385559 
Q 446.568455 47.7792 447.580676 47.629241 
Q 448.25549 47.629241 448.72411 47.404303 
Q 449.192731 47.179366 449.417669 46.879448 
Q 449.642607 46.579531 449.773821 45.979697 
Q 449.905034 45.379862 449.923779 44.967476 
Q 449.942524 44.55509 449.942524 43.805297 
Q 449.942524 42.718097 449.042772 42.043283 
Q 448.143021 41.368469 446.849628 41.031062 
Q 445.556234 40.693655 444.262841 40.300014 
Q 442.969448 39.906372 442.069697 38.987876 
Q 441.169945 38.069379 441.169945 36.607283 
Q 441.169945 36.082428 441.338648 35.726276 
Q 441.507352 35.370124 441.900993 35.145186 
Q 442.294634 34.920248 442.575807 34.807779 
Q 442.856979 34.69531 443.513048 34.639076 
Q 444.169117 34.582841 444.356566 34.582841 
Q 444.544014 34.582841 445.218828 34.582841 
Q 446.418497 34.582841 446.999586 34.995228 
Q 447.580676 35.407614 447.899338 36.026193 
Q 448.218 36.644772 448.480428 36.832221 
" clip-path="url(#p428241d030)" style="fill: none; stroke: #000000; stroke-linejoin: miter"/>
   </g>
  </g>
  <g id="axes_29">
   <g id="patch_25">
    <path d="M 456.863834 37.95691 
L 457.538648 37.95691 
Q 458.250952 37.95691 459.038234 37.881931 
Q 459.825517 37.806952 460.781503 37.675738 
Q 461.73749 37.544524 462.262345 37.507034 
L 466.536166 35.82 
M 462.487283 30.42149 
L 462.487283 31.43371 
Q 462.487283 33.383172 461.812469 37.207117 
Q 461.137655 41.031062 461.137655 43.018014 
Q 461.137655 43.805297 461.137655 44.105214 
Q 461.137655 44.405131 461.231379 45.042455 
Q 461.325103 45.679779 461.512552 45.960952 
Q 461.7 46.242124 462.093641 46.485807 
Q 462.487283 46.72949 463.049628 46.72949 
Q 463.162097 46.692 463.480759 46.72949 
Q 463.799421 46.766979 463.986869 46.710745 
Q 464.174317 46.65451 464.174317 46.392083 
" clip-path="url(#p48d17be805)" style="fill: none; stroke: #000000; stroke-linejoin: miter"/>
   </g>
  </g>
  <g id="axes_30">
   <g id="patch_26">
    <path d="M 478.518579 29.071862 
Q 478.143683 29.146841 478.012469 29.577972 
Q 477.881255 30.009103 477.956234 30.42149 
Q 477.956234 30.571448 477.993724 30.702662 
Q 478.031214 30.833876 478.087448 30.89011 
Q 478.143683 30.946345 478.199917 31.040069 
Q 478.256152 31.133793 478.293641 31.208772 
L 478.40611 29.859145 
M 478.40611 34.020497 
Q 477.506359 39.006621 477.281421 42.793076 
L 477.731297 45.379862 
L 478.068703 46.054676 
" clip-path="url(#p353bec9494)" style="fill: none; stroke: #000000; stroke-linejoin: miter"/>
   </g>
  </g>
  <g id="axes_31">
   <g id="patch_27">
    <path d="M 489.263834 37.95691 
L 489.938648 37.95691 
Q 490.650952 37.95691 491.438234 37.881931 
Q 492.225517 37.806952 493.181503 37.675738 
Q 494.13749 37.544524 494.662345 37.507034 
L 498.936166 35.82 
M 494.887283 30.42149 
L 494.887283 31.43371 
Q 494.887283 33.383172 494.212469 37.207117 
Q 493.537655 41.031062 493.537655 43.018014 
Q 493.537655 43.805297 493.537655 44.105214 
Q 493.537655 44.405131 493.631379 45.042455 
Q 493.725103 45.679779 493.912552 45.960952 
Q 494.1 46.242124 494.493641 46.485807 
Q 494.887283 46.72949 495.449628 46.72949 
Q 495.562097 46.692 495.880759 46.72949 
Q 496.199421 46.766979 496.386869 46.710745 
Q 496.574317 46.65451 496.574317 46.392083 
" clip-path="url(#pac6feb6361)" style="fill: none; stroke: #000000; stroke-linejoin: miter"/>
   </g>
  </g>
  <g id="axes_32">
   <g id="patch_28">
    <path d="M 505.688772 35.145186 
Q 505.688772 35.145186 505.688772 35.595062 
Q 505.688772 36.269876 505.576303 37.619503 
Q 505.463834 38.969131 505.463834 39.643945 
Q 505.463834 41.930814 506.700993 43.599103 
Q 507.938152 45.267393 510.075062 45.267393 
Q 511.462179 45.154924 512.230717 43.917766 
Q 512.999255 42.680607 513.149214 41.237255 
Q 513.299172 39.793903 513.5616 37.9944 
Q 513.824028 36.194897 514.236414 35.370124 
Q 514.386372 35.070207 514.386372 35.670041 
Q 514.386372 36.269876 514.123945 38.706703 
Q 513.899007 41.031062 513.899007 41.555917 
Q 513.749048 42.643117 514.086455 43.767807 
Q 514.423862 44.892497 515.136166 45.6048 
" clip-path="url(#pf27103e818)" style="fill: none; stroke: #000000; stroke-linejoin: miter"/>
   </g>
  </g>
  <g id="axes_33">
   <g id="patch_29">
    <path d="M 521.663834 37.95691 
L 522.338648 37.95691 
Q 523.050952 37.95691 523.838234 37.881931 
Q 524.625517 37.806952 525.581503 37.675738 
Q 526.53749 37.544524 527.062345 37.507034 
L 531.336166 35.82 
M 527.287283 30.42149 
L 527.287283 31.43371 
Q 527.287283 33.383172 526.612469 37.207117 
Q 525.937655 41.031062 525.937655 43.018014 
Q 525.937655 43.805297 525.937655 44.105214 
Q 525.937655 44.405131 526.031379 45.042455 
Q 526.125103 45.679779 526.312552 45.960952 
Q 526.5 46.242124 526.893641 46.485807 
Q 527.287283 46.72949 527.849628 46.72949 
Q 527.962097 46.692 528.280759 46.72949 
Q 528.599421 46.766979 528.786869 46.710745 
Q 528.974317 46.65451 528.974317 46.392083 
" clip-path="url(#p46f4ccab6a)" style="fill: none; stroke: #000000; stroke-linejoin: miter"/>
   </g>
  </g>
  <g id="axes_34">
   <g id="patch_30">
    <path d="M 536.457798 38.160826 
Q 539.430275 39.535596 544.149083 39.721376 
Q 545.672477 39.721376 546.359862 38.550963 
Q 547.047248 37.38055 547.047248 35.82 
Q 547.047248 35.299817 546.954358 34.909679 
Q 546.861468 34.519541 546.619954 34.296606 
Q 546.37844 34.07367 546.211239 33.943624 
Q 546.044037 33.813578 545.598165 33.757844 
Q 545.152294 33.70211 544.947936 33.683532 
Q 544.743578 33.664954 544.167661 33.683532 
Q 543.591743 33.70211 543.368807 33.70211 
Q 541.325229 33.70211 539.838991 35.578486 
Q 538.352752 37.454862 538.352752 39.609908 
Q 538.352752 42.619541 540.284862 44.570229 
Q 542.216972 46.520917 545.263761 46.520917 
Q 547.418807 46.818165 548.942202 44.29156 
" clip-path="url(#p0e7e0e73f2)" style="fill: none; stroke: #000000; stroke-linejoin: miter"/>
   </g>
  </g>
  <g id="axes_35">
   <g id="patch_31">
    <path d="M 558.187697 39.981352 
Q 559.199917 40.956083 559.537324 42.905545 
Q 559.724772 43.955255 559.312386 46.167145 
L 558.075228 47.629241 
" clip-path="url(#p52f4ac6ea6)" style="fill: none; stroke: #000000; stroke-linejoin: miter"/>
   </g>
  </g>
 </g>
 <defs>
  <clipPath id="pdeed87ce64">
   <rect x="1.782993" y="8.64" width="12.634014" height="54.36"/>
  </clipPath>
  <clipPath id="pe11a77224d">
   <rect x="18.938979" y="8.64" width="10.722041" height="54.36"/>
  </clipPath>
  <clipPath id="p7857c7b6e8">
   <rect x="32.4" y="8.881927" width="16.2" height="53.876147"/>
  </clipPath>
  <clipPath id="pe7f4f55b16">
   <rect x="64.8" y="10.936525" width="16.2" height="49.766949"/>
  </clipPath>
  <clipPath id="pe27aae8992">
   <rect x="81.602069" y="8.64" width="14.995862" height="54.36"/>
  </clipPath>
  <clipPath id="pf1ca3ab08e">
   <rect x="99.938979" y="8.64" width="10.722041" height="54.36"/>
  </clipPath>
  <clipPath id="p4884fb2433">
   <rect x="115.182993" y="8.64" width="12.634014" height="54.36"/>
  </clipPath>
  <clipPath id="p838c14b849">
   <rect x="129.6" y="8.881927" width="16.2" height="53.876147"/>
  </clipPath>
  <clipPath id="p8aa072a8aa">
   <rect x="146.851945" y="8.64" width="14.09611" height="54.36"/>
  </clipPath>
  <clipPath id="p40e019184e">
   <rect x="178.2" y="10.777356" width="16.2" height="50.085288"/>
  </clipPath>
  <clipPath id="pde9e41d41d">
   <rect x="195.789352" y="8.64" width="13.421297" height="54.36"/>
  </clipPath>
  <clipPath id="pa30eefaa19">
   <rect x="226.8" y="10.777356" width="16.2" height="50.085288"/>
  </clipPath>
  <clipPath id="pb8131ce516">
   <rect x="261.938979" y="8.64" width="10.722041" height="54.36"/>
  </clipPath>
  <clipPath id="pe688070125">
   <rect x="275.4" y="8.881927" width="16.2" height="53.876147"/>
  </clipPath>
  <clipPath id="p5e5d02e2e4">
   <rect x="293.382993" y="8.64" width="12.634014" height="54.36"/>
  </clipPath>
  <clipPath id="pb574a3a341">
   <rect x="307.8" y="8.881927" width="16.2" height="53.876147"/>
  </clipPath>
  <clipPath id="p0fd8fe7013">
   <rect x="324" y="10.777356" width="16.2" height="50.085288"/>
  </clipPath>
  <clipPath id="p3c337073fc">
   <rect x="342.938979" y="8.64" width="10.722041" height="54.36"/>
  </clipPath>
  <clipPath id="p7e3566c95a">
   <rect x="356.4" y="11.850612" width="16.2" height="47.938776"/>
  </clipPath>
  <clipPath id="p9e88587541">
   <rect x="375.338979" y="8.64" width="10.722041" height="54.36"/>
  </clipPath>
  <clipPath id="p79134fdd06">
   <rect x="410.606938" y="8.64" width="4.986124" height="54.36"/>
  </clipPath>
  <clipPath id="pffaca886c1">
   <rect x="422.964248" y="8.64" width="12.671503" height="54.36"/>
  </clipPath>
  <clipPath id="p428241d030">
   <rect x="439.182993" y="8.64" width="12.634014" height="54.36"/>
  </clipPath>
  <clipPath id="p48d17be805">
   <rect x="454.989352" y="8.64" width="13.421297" height="54.36"/>
  </clipPath>
  <clipPath id="p353bec9494">
   <rect x="475.406938" y="8.64" width="4.986124" height="54.36"/>
  </clipPath>
  <clipPath id="pac6feb6361">
   <rect x="487.389352" y="8.64" width="13.421297" height="54.36"/>
  </clipPath>
  <clipPath id="pf27103e818">
   <rect x="503.589352" y="8.64" width="13.421297" height="54.36"/>
  </clipPath>
  <clipPath id="p46f4ccab6a">
   <rect x="519.789352" y="8.64" width="13.421297" height="54.36"/>
  </clipPath>
  <clipPath id="p0e7e0e73f2">
   <rect x="534.6" y="8.881927" width="16.2" height="53.876147"/>
  </clipPath>
  <clipPath id="p52f4ac6ea6">
   <rect x="556.200745" y="8.64" width="5.39851" height="54.36"/>
  </clipPath>
 </defs>
</svg>
