<?xml version="1.0" encoding="utf-8" standalone="no"?>
<!DOCTYPE svg PUBLIC "-//W3C//DTD SVG 1.1//EN"
  "http://www.w3.org/Graphics/SVG/1.1/DTD/svg11.dtd">
<svg xmlns:xlink="http://www.w3.org/1999/xlink" width="202.5pt" height="162pt" viewBox="0 0 202.5 162" xmlns="http://www.w3.org/2000/svg" version="1.1">
 <metadata>
  <rdf:RDF xmlns:dc="http://purl.org/dc/elements/1.1/" xmlns:cc="http://creativecommons.org/ns#" xmlns:rdf="http://www.w3.org/1999/02/22-rdf-syntax-ns#">
   <cc:Work>
    <dc:type rdf:resource="http://purl.org/dc/dcmitype/StillImage"/>
    <dc:date>2023-02-15T22:53:29.914783</dc:date>
    <dc:format>image/svg+xml</dc:format>
    <dc:creator>
     <cc:Agent>
      <dc:title>Matplotlib v3.6.1, https://matplotlib.org/</dc:title>
     </cc:Agent>
    </dc:creator>
   </cc:Work>
  </rdf:RDF>
 </metadata>
 <defs>
  <style type="text/css">*{stroke-linejoin: round; stroke-linecap: butt}</style>
 </defs>
 <g id="figure_1">
  <g id="patch_1">
   <path d="M 0 162 
L 202.5 162 
L 202.5 0 
L 0 0 
z
" style="fill: #8fff9f"/>
  </g>
  <g id="axes_1">
   <g id="patch_2">
    <path d="M 23.768088 68.836935 
Q 23.726094 68.962915 23.768088 69.466832 
Q 23.768088 70.810611 24.146025 75.49284 
Q 24.523963 80.175069 24.230012 82.610668 
L 23.852074 86.138088 
M 16.839228 80.469021 
L 17.469124 80.343041 
L 31.200864 76.689643 
L 30.19303 83.870461 
L 29.437154 85.256233 
L 27.967396 82.90462 
M 18.854896 75.051912 
L 19.106855 78.201394 
L 19.736751 82.736647 
L 19.98871 88.741659 
Q 20.072696 90.211417 20.744585 91.072275 
Q 21.416475 91.933134 22.613278 92.185092 
Q 23.810081 92.437051 24.922897 92.479044 
Q 26.035714 92.521037 27.589459 92.437051 
Q 29.143203 92.353065 29.941071 92.395058 
Q 30.319009 92.437051 31.074885 92.374061 
Q 31.83076 92.311071 32.586636 92.01712 
Q 33.342512 91.723168 33.216532 91.261244 
L 34.350346 87.145922 
M 13.05985 77.571498 
L 13.05985 77.823456 
Q 13.05985 82.022765 11.653082 84.773312 
Q 10.246313 87.523859 7.012846 90.169424 
L 2.099654 93.906809 
M 2.603571 80.427028 
L 3.233468 80.427028 
Q 4.157316 80.427028 6.361953 79.902114 
Q 8.56659 79.3772 9.532431 79.335207 
L 13.311809 78.705311 
M 9.154493 71.020576 
L 9.154493 71.776452 
Q 8.776555 73.078237 8.56659 76.773629 
Q 8.356624 80.469021 7.768721 81.854793 
Q 7.726728 81.980772 7.369787 82.631665 
Q 7.012846 83.282558 6.844873 83.786475 
Q 6.676901 84.290392 6.844873 84.54235 
Q 7.684735 86.054101 10.624251 88.468704 
Q 13.563767 90.883306 14.067684 91.429217 
L 15.579435 92.185092 
" clip-path="url(#p7c53ac8b77)" style="fill: none; stroke: #000000; stroke-linejoin: miter"/>
   </g>
  </g>
  <g id="axes_2">
   <g id="patch_3">
    <path d="M 52.354576 79.869867 
L 53.079708 88.136379 
Q 53.369761 91.7137 53.369761 91.762042 
L 53.369761 93.93744 
L 52.934682 97.27305 
M 38.867109 85.670928 
Q 38.867109 85.429218 39.060477 85.380875 
Q 39.253846 85.332533 39.56807 85.380875 
Q 39.882294 85.429218 40.027321 85.380875 
Q 42.976194 84.945796 46.529344 84.631572 
Q 50.082493 84.317347 52.644629 84.196492 
Q 55.206764 84.075637 59.388362 83.906439 
Q 63.56996 83.737241 65.697016 83.640557 
L 70.482891 83.640557 
M 54.723342 73.585385 
L 55.158422 73.585385 
Q 55.206764 73.585385 57.33382 72.860252 
L 63.860013 69.959721 
M 55.013395 69.089562 
L 55.158422 77.066021 
Q 55.448475 77.452759 55.762699 77.718641 
Q 56.076923 77.984523 56.294463 78.15372 
Q 56.512003 78.322918 56.971253 78.467944 
Q 57.430504 78.612971 57.648044 78.661313 
Q 57.865584 78.709655 58.518203 78.854682 
Q 59.170822 78.999708 59.509218 79.096393 
Q 61.926326 79.676499 62.119695 79.676499 
Q 62.844828 79.676499 63.328249 79.458959 
Q 63.811671 79.241419 64.343435 78.830511 
Q 64.875199 78.419602 65.310279 78.226233 
L 65.600332 76.340889 
M 46.553515 73.4887 
Q 47.375332 73.246989 48.00378 72.618541 
L 50.034151 71.748382 
M 44.66817 70.15309 
L 44.958223 73.343674 
L 44.958223 80.740027 
L 46.843568 78.709655 
L 49.889125 77.114363 
L 50.469231 76.82431 
" clip-path="url(#pd1e37dc3a1)" style="fill: none; stroke: #000000; stroke-linejoin: miter"/>
   </g>
  </g>
  <g id="axes_3">
   <g id="patch_4">
    <path d="M 102.471815 76.564471 
Q 97.302224 83.836947 95.374579 88.787488 
L 94.848858 89.83893 
M 78.945793 76.03875 
Q 79.821995 77.090192 80.522957 78.38259 
Q 81.223918 79.674988 81.990595 81.536917 
Q 82.757272 83.398846 83.151562 84.187428 
L 84.597296 89.181779 
M 75.090505 94.43899 
L 75.484796 94.43899 
Q 78.595312 94.43899 90.511659 93.256118 
L 107.159495 93.387548 
M 94.585998 69.160565 
Q 94.585998 71.920601 94.717428 72.446322 
Q 94.717428 75.556839 93.665986 88.656058 
L 93.403125 94.35137 
M 87.357332 70.080577 
L 87.225901 93.518978 
" clip-path="url(#pa5e0dc935d)" style="fill: none; stroke: #000000; stroke-linejoin: miter"/>
   </g>
  </g>
  <g id="axes_4">
   <g id="patch_5">
    <path d="M 121.381049 95.888706 
Q 129.282797 94.410315 135.91007 94.512273 
M 121.075175 84.418427 
Q 121.075175 84.418427 122.757483 84.418427 
Q 125.153497 84.418427 129.843566 83.500804 
Q 134.533636 82.583182 136.980629 82.583182 
Q 134.074825 90.688846 133.463077 92.524091 
L 132.392517 96.347517 
M 121.075175 83.806678 
Q 121.024196 84.112552 121.075175 84.418427 
Q 121.075175 85.539965 121.202622 86.86542 
Q 121.33007 88.190874 121.533986 89.796713 
Q 121.737902 91.402552 121.83986 92.218217 
L 122.145734 95.582832 
M 118.628182 81.053811 
Q 122.043776 80.289126 125.841713 79.651888 
Q 129.63965 79.01465 134.584615 78.300944 
Q 139.52958 77.587238 141.874615 77.230385 
L 143.251049 77.077448 
M 117.863497 70.959965 
L 117.863497 71.571713 
Q 117.863497 72.948147 118.092902 75.751993 
Q 118.322308 78.555839 118.322308 79.983252 
Q 118.322308 83.245909 117.430175 85.998776 
Q 116.538042 88.751643 114.957692 91.912343 
Q 113.377343 95.073042 112.663636 97.26514 
L 111.898951 97.723951 
M 118.322308 72.948147 
Q 118.271329 73.101084 118.347797 73.126573 
Q 118.424266 73.152063 118.628182 73.126573 
Q 118.832098 73.101084 118.934056 73.101084 
Q 120.973217 73.101084 123.445699 72.489336 
Q 125.918182 71.877587 128.925944 70.858007 
Q 131.933706 69.838427 133.463077 69.430594 
L 135.604196 68.360035 
" clip-path="url(#p67088461e4)" style="fill: none; stroke: #000000; stroke-linejoin: miter"/>
   </g>
  </g>
  <g id="axes_5">
   <g id="patch_6">
    <path d="M 160.735283 83.125552 
Q 160.819634 83.294255 161.410097 83.842541 
Q 162.000559 84.390828 162.253614 84.643883 
Q 162.506669 84.896938 163.054955 85.529576 
Q 163.603241 86.162214 163.940648 86.541797 
Q 164.278055 86.921379 164.784166 87.596193 
Q 165.290276 88.271007 165.585507 88.734941 
Q 165.880738 89.198876 166.218145 89.87369 
Q 166.555552 90.548503 166.766431 91.09679 
Q 166.97731 91.645076 167.146014 92.277714 
Q 167.314717 92.910352 167.314717 93.500814 
Q 167.314717 94.76609 166.97731 95.862662 
Q 166.639903 96.959234 166.007266 98.182334 
Q 165.374628 99.405434 165.037221 100.333303 
L 162.506669 102.863855 
" clip-path="url(#p6d30a0fc0e)" style="fill: none; stroke: #000000; stroke-linejoin: miter"/>
   </g>
  </g>
 </g>
 <defs>
  <clipPath id="p7c53ac8b77">
   <rect x="0" y="50.150012" width="36.45" height="60.889977"/>
  </clipPath>
  <clipPath id="pd1e37dc3a1">
   <rect x="36.45" y="45.546923" width="36.45" height="70.096154"/>
  </clipPath>
  <clipPath id="pa5e0dc935d">
   <rect x="72.9" y="48.83268" width="36.45" height="63.524639"/>
  </clipPath>
  <clipPath id="p67088461e4">
   <rect x="109.35" y="43.63521" width="36.45" height="73.91958"/>
  </clipPath>
  <clipPath id="p6d30a0fc0e">
   <rect x="156.517697" y="19.44" width="15.014607" height="122.31"/>
  </clipPath>
 </defs>
</svg>
