<?xml version="1.0" encoding="utf-8" standalone="no"?>
<!DOCTYPE svg PUBLIC "-//W3C//DTD SVG 1.1//EN"
  "http://www.w3.org/Graphics/SVG/1.1/DTD/svg11.dtd">
<svg xmlns:xlink="http://www.w3.org/1999/xlink" width="684pt" height="72pt" viewBox="0 0 684 72" xmlns="http://www.w3.org/2000/svg" version="1.1">
 <metadata>
  <rdf:RDF xmlns:dc="http://purl.org/dc/elements/1.1/" xmlns:cc="http://creativecommons.org/ns#" xmlns:rdf="http://www.w3.org/1999/02/22-rdf-syntax-ns#">
   <cc:Work>
    <dc:type rdf:resource="http://purl.org/dc/dcmitype/StillImage"/>
    <dc:date>2023-02-15T22:53:58.198304</dc:date>
    <dc:format>image/svg+xml</dc:format>
    <dc:creator>
     <cc:Agent>
      <dc:title>Matplotlib v3.6.1, https://matplotlib.org/</dc:title>
     </cc:Agent>
    </dc:creator>
   </cc:Work>
  </rdf:RDF>
 </metadata>
 <defs>
  <style type="text/css">*{stroke-linejoin: round; stroke-linecap: butt}</style>
 </defs>
 <g id="figure_1">
  <g id="patch_1">
   <path d="M 0 72 
L 684 72 
L 684 0 
L 0 0 
z
" style="fill: #8fff9f"/>
  </g>
  <g id="axes_1">
   <g id="patch_2">
    <path d="M 3.657476 43.917766 
Q 3.957393 44.180193 4.969614 45.154924 
Q 5.981834 46.129655 6.544179 46.560786 
Q 7.106524 46.991917 8.13749 47.385559 
Q 9.168455 47.7792 10.180676 47.629241 
Q 10.85549 47.629241 11.32411 47.404303 
Q 11.792731 47.179366 12.017669 46.879448 
Q 12.242607 46.579531 12.373821 45.979697 
Q 12.505034 45.379862 12.523779 44.967476 
Q 12.542524 44.55509 12.542524 43.805297 
Q 12.542524 42.718097 11.642772 42.043283 
Q 10.743021 41.368469 9.449628 41.031062 
Q 8.156234 40.693655 6.862841 40.300014 
Q 5.569448 39.906372 4.669697 38.987876 
Q 3.769945 38.069379 3.769945 36.607283 
Q 3.769945 36.082428 3.938648 35.726276 
Q 4.107352 35.370124 4.500993 35.145186 
Q 4.894634 34.920248 5.175807 34.807779 
Q 5.456979 34.69531 6.113048 34.639076 
Q 6.769117 34.582841 6.956566 34.582841 
Q 7.144014 34.582841 7.818828 34.582841 
Q 9.018497 34.582841 9.599586 34.995228 
Q 10.180676 35.407614 10.499338 36.026193 
Q 10.818 36.644772 11.080428 36.832221 
" clip-path="url(#p8441b42801)" style="fill: none; stroke: #000000; stroke-linejoin: miter"/>
   </g>
  </g>
  <g id="axes_2">
   <g id="patch_3">
    <path d="M 20.813462 35.932469 
Q 21.413297 35.257655 22.406772 34.826524 
Q 23.400248 34.395393 24.3 34.470372 
Q 24.937324 34.470372 25.42469 34.639076 
Q 25.912055 34.807779 26.230717 34.995228 
Q 26.549379 35.182676 26.774317 35.670041 
Q 26.999255 36.157407 27.111724 36.419834 
Q 27.224193 36.682262 27.280428 37.375821 
Q 27.336662 38.069379 27.355407 38.331807 
Q 27.374152 38.594234 27.355407 39.419007 
Q 27.336662 40.243779 27.336662 40.431228 
Q 27.336662 41.368469 27.167959 43.242952 
Q 26.999255 45.117434 26.999255 46.054676 
Q 26.999255 46.467062 27.05549 46.823214 
Q 27.111724 47.179366 27.205448 47.610497 
Q 27.299172 48.041628 27.336662 48.304055 
L 27.786538 48.528993 
M 21.263338 23.111007 
Q 21.488276 24.798041 21.488276 29.971614 
L 21.488276 42.3432 
L 21.150869 46.841959 
L 20.925931 47.74171 
" clip-path="url(#p5bca8f46a6)" style="fill: none; stroke: #000000; stroke-linejoin: miter"/>
   </g>
  </g>
  <g id="axes_3">
   <g id="patch_4">
    <path d="M 36.788524 34.357903 
L 43.649131 34.69531 
M 37.575807 42.643117 
Q 38.812966 43.205462 39.712717 43.205462 
Q 40.050124 43.205462 41.343517 43.242952 
Q 42.63691 43.280441 43.236745 43.280441 
Q 43.574152 43.280441 43.817834 43.167972 
Q 44.061517 43.055503 44.211476 42.830566 
Q 44.361434 42.605628 44.436414 42.38069 
Q 44.511393 42.155752 44.548883 41.7996 
Q 44.586372 41.443448 44.586372 41.199766 
Q 44.586372 40.956083 44.567628 40.562441 
Q 44.548883 40.1688 44.548883 40.018841 
Q 44.548883 38.819172 42.955572 38.331807 
Q 41.362262 37.844441 40.162593 38.144359 
Q 37.838234 38.744193 37.088441 40.281269 
Q 36.338648 41.818345 36.338648 44.217683 
Q 36.338648 44.929986 36.432372 45.492331 
Q 36.526097 46.054676 36.807269 46.448317 
Q 37.088441 46.841959 37.332124 47.141876 
Q 37.575807 47.441793 38.081917 47.610497 
Q 38.588028 47.7792 38.887945 47.891669 
Q 39.187862 48.004138 39.900166 48.041628 
Q 40.612469 48.079117 40.912386 48.097862 
Q 41.212303 48.116607 42.074566 48.097862 
Q 42.936828 48.079117 43.199255 48.079117 
Q 43.611641 48.379034 43.986538 47.929159 
Q 44.361434 47.479283 44.661352 47.516772 
" clip-path="url(#p3021d1578e)" style="fill: none; stroke: #000000; stroke-linejoin: miter"/>
   </g>
  </g>
  <g id="axes_4">
   <g id="patch_5">
    <path d="M 52.238731 37.282097 
L 52.238731 37.844441 
Q 52.501159 39.868883 52.538648 41.312234 
Q 52.576138 42.755586 52.482414 44.667559 
Q 52.38869 46.579531 52.38869 48.191586 
L 52.463669 39.643945 
Q 52.463669 38.144359 54.056979 37.507034 
Q 55.65029 36.86971 57.074897 37.282097 
Q 58.986869 37.844441 59.905366 39.04411 
Q 60.823862 40.243779 60.880097 41.668386 
Q 60.936331 43.092993 60.973821 44.817517 
Q 61.01131 46.542041 61.161269 48.191586 
" clip-path="url(#p4f47312869)" style="fill: none; stroke: #000000; stroke-linejoin: miter"/>
   </g>
  </g>
  <g id="axes_5">
   <g id="patch_6">
    <path d="M 77.687191 39.096404 
Q 77.43236 39.023596 76.46764 38.623146 
Q 75.502921 38.222697 74.84764 38.077079 
Q 74.19236 37.931461 73.537079 38.00427 
Q 70.915955 38.00427 69.277753 40.388764 
Q 67.639551 42.773258 67.639551 45.430787 
Q 67.639551 47.068989 72.881798 47.068989 
Q 74.447191 47.068989 75.775955 45.558202 
Q 77.104719 44.047416 77.778202 42.172584 
Q 78.451685 40.297753 78.451685 38.768764 
Q 78.451685 37.27618 78.415281 36.984944 
L 78.342472 38.077079 
Q 78.342472 38.550337 78.342472 38.987191 
Q 78.378876 40.188539 78.579101 42.281798 
Q 78.779326 44.375056 78.943146 46.049663 
Q 79.106966 47.72427 79.143371 49.872135 
Q 79.179775 52.02 79.015955 53.658202 
Q 78.852135 55.296404 78.287865 56.971011 
Q 77.723596 58.645618 76.795281 59.737753 
Q 75.866966 60.829888 74.265169 61.521573 
Q 72.663371 62.213258 70.515506 62.213258 
Q 68.877303 62.213258 67.785169 61.466966 
Q 66.693034 60.720674 66.693034 59.155281 
Q 66.620225 58.936854 66.656629 58.936854 
Q 66.693034 58.936854 66.802247 58.936854 
Q 66.911461 58.936854 66.911461 58.82764 
" clip-path="url(#pc45040b680)" style="fill: none; stroke: #000000; stroke-linejoin: miter"/>
   </g>
  </g>
  <g id="axes_6">
   <g id="patch_7">
    <path d="M 82.716102 36.437797 
L 83.951695 44.778051 
Q 84.054661 45.567458 84.054661 45.60178 
Q 84.054661 45.704746 84.363559 45.704746 
Q 85.22161 45.704746 85.942373 44.778051 
Q 86.663136 43.851356 87.075 42.718729 
Q 87.486864 41.586102 88.001695 40.659407 
Q 88.516525 39.732712 88.997034 39.732712 
Q 89.614831 39.732712 90.249788 40.607924 
Q 90.884746 41.483136 91.348093 42.512797 
Q 91.811441 43.542458 92.48072 44.417669 
Q 93.15 45.292881 93.836441 45.292881 
Q 94.111017 43.782712 94.540042 39.69839 
Q 94.969068 35.614068 95.483898 33.554746 
" clip-path="url(#p22eb626be9)" style="fill: none; stroke: #000000; stroke-linejoin: miter"/>
   </g>
  </g>
  <g id="axes_7">
   <g id="patch_8">
    <path d="M 102.563255 30.608938 
Q 103.687945 31.096303 105.112552 32.989531 
Q 106.537159 34.882759 107.062014 35.332634 
M 101.363586 38.706703 
Q 101.213628 38.819172 101.194883 39.025366 
Q 101.176138 39.231559 101.213628 39.475241 
Q 101.251117 39.718924 101.251117 39.831393 
Q 101.251117 40.993572 101.401076 42.155752 
Q 101.551034 43.317931 101.925931 44.742538 
Q 102.300828 46.167145 103.16309 47.048152 
Q 104.025352 47.929159 105.3 47.929159 
Q 106.687117 47.404303 107.305697 45.848483 
Q 107.924276 44.292662 108.167959 41.649641 
Q 108.411641 39.006621 108.5616 38.369297 
Q 109.048966 45.267393 109.086455 46.392083 
L 109.423862 48.079117 
" clip-path="url(#p6d973203a4)" style="fill: none; stroke: #000000; stroke-linejoin: miter"/>
   </g>
  </g>
  <g id="axes_8"/>
  <g id="axes_9">
   <g id="patch_9">
    <path d="M 141.299007 34.920248 
Q 140.436745 36.007448 137.325103 40.018841 
Q 134.213462 44.030234 132.526428 46.054676 
M 133.426179 36.044938 
Q 135.300662 37.319586 137.793724 40.843614 
Q 140.286786 44.367641 141.861352 45.6048 
L 142.873572 45.942207 
" clip-path="url(#p47a1513ae5)" style="fill: none; stroke: #000000; stroke-linejoin: miter"/>
   </g>
  </g>
  <g id="axes_10">
   <g id="patch_10">
    <path d="M 149.288772 35.145186 
Q 149.288772 35.145186 149.288772 35.595062 
Q 149.288772 36.269876 149.176303 37.619503 
Q 149.063834 38.969131 149.063834 39.643945 
Q 149.063834 41.930814 150.300993 43.599103 
Q 151.538152 45.267393 153.675062 45.267393 
Q 155.062179 45.154924 155.830717 43.917766 
Q 156.599255 42.680607 156.749214 41.237255 
Q 156.899172 39.793903 157.1616 37.9944 
Q 157.424028 36.194897 157.836414 35.370124 
Q 157.986372 35.070207 157.986372 35.670041 
Q 157.986372 36.269876 157.723945 38.706703 
Q 157.499007 41.031062 157.499007 41.555917 
Q 157.349048 42.643117 157.686455 43.767807 
Q 158.023862 44.892497 158.736166 45.6048 
" clip-path="url(#p4f026903db)" style="fill: none; stroke: #000000; stroke-linejoin: miter"/>
   </g>
  </g>
  <g id="axes_11">
   <g id="patch_11">
    <path d="M 166.8384 34.357903 
Q 167.100828 34.395393 167.438234 33.795559 
Q 167.775641 33.195724 168.300497 33.345683 
L 172.799255 29.2968 
M 165.938648 40.656166 
L 166.163586 40.656166 
Q 166.87589 40.656166 168.43171 41.330979 
Q 169.987531 42.005793 170.887283 42.005793 
Q 173.586538 42.005793 173.586538 38.744193 
Q 173.586538 36.607283 170.212469 36.607283 
Q 168.337986 36.607283 167.250786 37.750717 
Q 166.163586 38.894152 166.163586 40.768634 
Q 166.163586 43.617848 167.494469 45.454841 
Q 168.825352 47.291834 171.562097 47.291834 
Q 173.024193 47.591752 174.261352 45.6048 
" clip-path="url(#p64f5ecca81)" style="fill: none; stroke: #000000; stroke-linejoin: miter"/>
   </g>
  </g>
  <g id="axes_12"/>
  <g id="axes_13">
   <g id="patch_12">
    <path d="M 206.099007 39.568966 
Q 204.749379 38.181848 202.5 38.444276 
Q 199.650786 38.444276 198.488607 39.793903 
Q 197.326428 41.143531 197.326428 44.067724 
Q 197.326428 45.56731 198.619821 46.279614 
Q 199.913214 46.991917 201.487779 46.991917 
Q 202.799917 46.991917 203.812138 45.736014 
Q 204.824359 44.48011 205.405448 42.30571 
Q 205.986538 40.13131 206.361434 37.938166 
Q 206.736331 35.745021 206.88629 33.045766 
Q 207.036248 30.34651 207.073738 28.978138 
Q 207.111228 27.609766 207.111228 26.185159 
Q 206.88629 26.260138 206.88629 29.896634 
L 206.88629 44.292662 
L 207.673572 48.229076 
" clip-path="url(#p3f7256d203)" style="fill: none; stroke: #000000; stroke-linejoin: miter"/>
   </g>
  </g>
  <g id="axes_14">
   <g id="patch_13">
    <path d="M 212.457798 38.160826 
Q 215.430275 39.535596 220.149083 39.721376 
Q 221.672477 39.721376 222.359862 38.550963 
Q 223.047248 37.38055 223.047248 35.82 
Q 223.047248 35.299817 222.954358 34.909679 
Q 222.861468 34.519541 222.619954 34.296606 
Q 222.37844 34.07367 222.211239 33.943624 
Q 222.044037 33.813578 221.598165 33.757844 
Q 221.152294 33.70211 220.947936 33.683532 
Q 220.743578 33.664954 220.167661 33.683532 
Q 219.591743 33.70211 219.368807 33.70211 
Q 217.325229 33.70211 215.838991 35.578486 
Q 214.352752 37.454862 214.352752 39.609908 
Q 214.352752 42.619541 216.284862 44.570229 
Q 218.216972 46.520917 221.263761 46.520917 
Q 223.418807 46.818165 224.942202 44.29156 
" clip-path="url(#pb83a712452)" style="fill: none; stroke: #000000; stroke-linejoin: miter"/>
   </g>
  </g>
  <g id="axes_15"/>
  <g id="axes_16">
   <g id="patch_14">
    <path d="M 246.2076 35.032717 
Q 246.2076 35.032717 249.581669 35.032717 
Q 249.694138 35.032717 251.437407 34.826524 
Q 253.180676 34.620331 254.192897 34.789034 
Q 255.205117 34.957738 255.205117 35.707531 
Q 255.205117 36.86971 254.192897 38.144359 
Q 253.180676 39.419007 251.718579 40.506207 
Q 250.256483 41.593407 248.794386 42.605628 
Q 247.33229 43.617848 246.320069 44.573834 
Q 245.307848 45.529821 245.307848 46.279614 
L 246.432538 46.279614 
Q 246.470028 46.279614 248.681917 46.054676 
L 256.892152 45.942207 
" clip-path="url(#pa2ce48cb5c)" style="fill: none; stroke: #000000; stroke-linejoin: miter"/>
   </g>
  </g>
  <g id="axes_17">
   <g id="patch_15">
    <path d="M 263.813462 35.932469 
Q 264.413297 35.257655 265.406772 34.826524 
Q 266.400248 34.395393 267.3 34.470372 
Q 267.937324 34.470372 268.42469 34.639076 
Q 268.912055 34.807779 269.230717 34.995228 
Q 269.549379 35.182676 269.774317 35.670041 
Q 269.999255 36.157407 270.111724 36.419834 
Q 270.224193 36.682262 270.280428 37.375821 
Q 270.336662 38.069379 270.355407 38.331807 
Q 270.374152 38.594234 270.355407 39.419007 
Q 270.336662 40.243779 270.336662 40.431228 
Q 270.336662 41.368469 270.167959 43.242952 
Q 269.999255 45.117434 269.999255 46.054676 
Q 269.999255 46.467062 270.05549 46.823214 
Q 270.111724 47.179366 270.205448 47.610497 
Q 270.299172 48.041628 270.336662 48.304055 
L 270.786538 48.528993 
M 264.263338 23.111007 
Q 264.488276 24.798041 264.488276 29.971614 
L 264.488276 42.3432 
L 264.150869 46.841959 
L 263.925931 47.74171 
" clip-path="url(#p0dcac60991)" style="fill: none; stroke: #000000; stroke-linejoin: miter"/>
   </g>
  </g>
  <g id="axes_18">
   <g id="patch_16">
    <path d="M 279.73229 29.671697 
Q 280.407103 30.159062 281.812966 31.283752 
Q 283.218828 32.408441 283.331297 32.483421 
L 285.1308 33.60811 
M 284.00611 36.982179 
L 283.331297 36.982179 
Q 280.332124 36.982179 279.18869 38.781683 
Q 278.045255 40.581186 278.045255 43.842786 
Q 278.045255 45.229903 279.319903 46.373338 
Q 280.594552 47.516772 282.206607 48.097862 
Q 283.818662 48.678952 285.1308 48.678952 
Q 288.954745 48.678952 288.954745 42.718097 
Q 288.954745 41.518428 288.073738 40.431228 
Q 287.192731 39.344028 285.824359 38.219338 
Q 284.455986 37.094648 284.00611 36.532303 
L 283.331297 36.194897 
" clip-path="url(#pb24defd1a0)" style="fill: none; stroke: #000000; stroke-linejoin: miter"/>
   </g>
  </g>
  <g id="axes_19">
   <g id="patch_17">
    <path d="M 295.238731 37.282097 
L 295.238731 37.844441 
Q 295.501159 39.868883 295.538648 41.312234 
Q 295.576138 42.755586 295.482414 44.667559 
Q 295.38869 46.579531 295.38869 48.191586 
L 295.463669 39.643945 
Q 295.463669 38.144359 297.056979 37.507034 
Q 298.65029 36.86971 300.074897 37.282097 
Q 301.986869 37.844441 302.905366 39.04411 
Q 303.823862 40.243779 303.880097 41.668386 
Q 303.936331 43.092993 303.973821 44.817517 
Q 304.01131 46.542041 304.161269 48.191586 
" clip-path="url(#pe598dc9fe8)" style="fill: none; stroke: #000000; stroke-linejoin: miter"/>
   </g>
  </g>
  <g id="axes_20">
   <g id="patch_18">
    <path d="M 320.687191 39.096404 
Q 320.43236 39.023596 319.46764 38.623146 
Q 318.502921 38.222697 317.84764 38.077079 
Q 317.19236 37.931461 316.537079 38.00427 
Q 313.915955 38.00427 312.277753 40.388764 
Q 310.639551 42.773258 310.639551 45.430787 
Q 310.639551 47.068989 315.881798 47.068989 
Q 317.447191 47.068989 318.775955 45.558202 
Q 320.104719 44.047416 320.778202 42.172584 
Q 321.451685 40.297753 321.451685 38.768764 
Q 321.451685 37.27618 321.415281 36.984944 
L 321.342472 38.077079 
Q 321.342472 38.550337 321.342472 38.987191 
Q 321.378876 40.188539 321.579101 42.281798 
Q 321.779326 44.375056 321.943146 46.049663 
Q 322.106966 47.72427 322.143371 49.872135 
Q 322.179775 52.02 322.015955 53.658202 
Q 321.852135 55.296404 321.287865 56.971011 
Q 320.723596 58.645618 319.795281 59.737753 
Q 318.866966 60.829888 317.265169 61.521573 
Q 315.663371 62.213258 313.515506 62.213258 
Q 311.877303 62.213258 310.785169 61.466966 
Q 309.693034 60.720674 309.693034 59.155281 
Q 309.620225 58.936854 309.656629 58.936854 
Q 309.693034 58.936854 309.802247 58.936854 
Q 309.911461 58.936854 309.911461 58.82764 
" clip-path="url(#p7c8aeccd9f)" style="fill: none; stroke: #000000; stroke-linejoin: miter"/>
   </g>
  </g>
  <g id="axes_21">
   <g id="patch_19">
    <path d="M 326.963917 36.382345 
Q 326.926428 36.494814 327.057641 36.701007 
Q 327.188855 36.9072 327.076386 37.057159 
L 327.076386 39.306538 
Q 327.076386 40.506207 327.413793 41.724621 
Q 327.7512 42.943034 328.613462 43.93651 
Q 329.475724 44.929986 330.675393 44.929986 
Q 331.912552 44.929986 332.587366 43.861531 
Q 333.262179 42.793076 333.712055 41.143531 
Q 334.161931 39.493986 334.499338 38.969131 
L 335.286621 36.382345 
L 335.061683 42.680607 
L 335.061683 45.154924 
Q 335.061683 47.066897 335.792731 51.00331 
Q 336.523779 54.939724 336.523779 56.964166 
Q 337.273572 59.213545 336.186372 60.188276 
Q 335.099172 61.163007 333.037241 60.78811 
Q 331.237738 60.488193 330.319241 60.169531 
Q 329.400745 59.850869 327.413793 58.988607 
L 327.301324 58.426262 
" clip-path="url(#p58149a7d10)" style="fill: none; stroke: #000000; stroke-linejoin: miter"/>
   </g>
  </g>
  <g id="axes_22">
   <g id="patch_20">
    <path d="M 344.813462 29.784166 
Q 345.788193 30.271531 347.081586 31.827352 
Q 348.374979 33.383172 348.862345 33.833048 
L 349.537159 34.507862 
M 352.573821 37.432055 
Q 351.261683 36.94469 350.211972 36.982179 
Q 349.949545 36.982179 349.049793 37.000924 
Q 348.150041 37.019669 347.71891 37.038414 
Q 347.287779 37.057159 346.425517 37.169628 
Q 345.563255 37.282097 345.094634 37.41331 
Q 344.626014 37.544524 343.98869 37.844441 
Q 343.351366 38.144359 343.032703 38.538 
Q 342.714041 38.931641 342.470359 39.550221 
Q 342.226676 40.1688 342.226676 40.918593 
Q 342.226676 42.830566 343.838731 44.348897 
Q 345.450786 45.867228 347.400248 45.867228 
Q 348.749876 45.867228 349.612138 45.323628 
Q 350.4744 44.780028 350.886786 43.842786 
Q 351.299172 42.905545 351.52411 41.912069 
Q 351.749048 40.918593 352.086455 39.756414 
Q 352.423862 38.594234 352.911228 37.881931 
L 353.361103 43.842786 
L 354.373324 46.991917 
" clip-path="url(#p1a2612a813)" style="fill: none; stroke: #000000; stroke-linejoin: miter"/>
   </g>
  </g>
  <g id="axes_23">
   <g id="patch_21">
    <path d="M 367.7616 35.032717 
Q 366.71189 34.582841 365.737159 34.69531 
Q 362.700497 35.032717 360.788524 36.701007 
Q 358.876552 38.369297 358.876552 41.330979 
Q 358.876552 43.917766 360.882248 45.6048 
Q 362.887945 47.291834 365.512221 47.291834 
Q 367.874069 47.291834 368.998759 45.361117 
Q 370.123448 43.4304 370.123448 40.881103 
Q 370.123448 39.643945 369.711062 38.706703 
Q 369.298676 37.769462 368.773821 37.300841 
Q 368.248966 36.832221 367.499172 36.119917 
Q 366.749379 35.407614 366.299503 34.69531 
L 365.062345 34.245434 
" clip-path="url(#pf464397501)" style="fill: none; stroke: #000000; stroke-linejoin: miter"/>
   </g>
  </g>
  <g id="axes_24"/>
  <g id="axes_25">
   <g id="patch_22">
    <path d="M 392.0076 35.032717 
Q 392.0076 35.032717 395.381669 35.032717 
Q 395.494138 35.032717 397.237407 34.826524 
Q 398.980676 34.620331 399.992897 34.789034 
Q 401.005117 34.957738 401.005117 35.707531 
Q 401.005117 36.86971 399.992897 38.144359 
Q 398.980676 39.419007 397.518579 40.506207 
Q 396.056483 41.593407 394.594386 42.605628 
Q 393.13229 43.617848 392.120069 44.573834 
Q 391.107848 45.529821 391.107848 46.279614 
L 392.232538 46.279614 
Q 392.270028 46.279614 394.481917 46.054676 
L 402.692152 45.942207 
" clip-path="url(#p136066b0c4)" style="fill: none; stroke: #000000; stroke-linejoin: miter"/>
   </g>
  </g>
  <g id="axes_26">
   <g id="patch_23">
    <path d="M 409.351034 31.283752 
Q 409.388524 31.396221 409.688441 32.164759 
Q 409.988359 32.933297 410.194552 33.270703 
Q 410.400745 33.60811 410.775641 34.15171 
Q 411.150538 34.69531 411.637903 34.920248 
Q 412.125269 35.145186 412.725103 35.107697 
Q 413.287448 35.107697 413.662345 34.620331 
Q 414.037241 34.132966 414.355903 33.383172 
Q 414.674566 32.633379 414.862014 32.408441 
L 415.761766 29.821655 
M 408.338814 37.881931 
L 408.338814 38.219338 
Q 408.338814 39.156579 408.24509 40.693655 
Q 408.151366 42.230731 408.151366 43.205462 
Q 408.151366 44.967476 409.33229 46.335848 
Q 410.513214 47.704221 412.200248 47.704221 
Q 413.587366 47.704221 414.580841 45.267393 
Q 415.574317 42.830566 415.874234 40.431228 
L 416.174152 37.9944 
Q 416.174152 39.156579 416.32411 41.668386 
Q 416.474069 44.180193 416.474069 45.342372 
Q 416.474069 45.492331 416.605283 45.773503 
Q 416.736497 46.054676 416.923945 46.354593 
Q 417.111393 46.65451 417.148883 46.692 
L 418.048634 47.81669 
" clip-path="url(#p49389dd1c1)" style="fill: none; stroke: #000000; stroke-linejoin: miter"/>
   </g>
  </g>
  <g id="axes_27">
   <g id="patch_24">
    <path d="M 434.556735 34.365306 
Q 434.556735 34.365306 434.060816 34.365306 
Q 433.267347 34.365306 431.779592 34.067755 
Q 430.291837 33.770204 429.498367 33.770204 
Q 426.721224 33.770204 424.787143 35.224898 
Q 422.853061 36.679592 422.853061 39.423673 
Q 422.853061 40.94449 424.340816 42.399184 
Q 425.828571 43.853878 427.762653 44.663878 
Q 429.696735 45.473878 431.18449 45.473878 
Q 432.110204 45.473878 432.80449 45.110204 
Q 433.498776 44.746531 434.242653 44.118367 
Q 434.986531 43.490204 435.548571 43.192653 
L 435.746939 42.696735 
" clip-path="url(#pf228a2bf2d)" style="fill: none; stroke: #000000; stroke-linejoin: miter"/>
   </g>
  </g>
  <g id="axes_28">
   <g id="patch_25">
    <path d="M 442.013462 35.932469 
Q 442.613297 35.257655 443.606772 34.826524 
Q 444.600248 34.395393 445.5 34.470372 
Q 446.137324 34.470372 446.62469 34.639076 
Q 447.112055 34.807779 447.430717 34.995228 
Q 447.749379 35.182676 447.974317 35.670041 
Q 448.199255 36.157407 448.311724 36.419834 
Q 448.424193 36.682262 448.480428 37.375821 
Q 448.536662 38.069379 448.555407 38.331807 
Q 448.574152 38.594234 448.555407 39.419007 
Q 448.536662 40.243779 448.536662 40.431228 
Q 448.536662 41.368469 448.367959 43.242952 
Q 448.199255 45.117434 448.199255 46.054676 
Q 448.199255 46.467062 448.25549 46.823214 
Q 448.311724 47.179366 448.405448 47.610497 
Q 448.499172 48.041628 448.536662 48.304055 
L 448.986538 48.528993 
M 442.463338 23.111007 
Q 442.688276 24.798041 442.688276 29.971614 
L 442.688276 42.3432 
L 442.350869 46.841959 
L 442.125931 47.74171 
" clip-path="url(#pffa2851bff)" style="fill: none; stroke: #000000; stroke-linejoin: miter"/>
   </g>
  </g>
  <g id="axes_29">
   <g id="patch_26">
    <path d="M 458.4384 34.357903 
Q 458.700828 34.395393 459.038234 33.795559 
Q 459.375641 33.195724 459.900497 33.345683 
L 464.399255 29.2968 
M 457.538648 40.656166 
L 457.763586 40.656166 
Q 458.47589 40.656166 460.03171 41.330979 
Q 461.587531 42.005793 462.487283 42.005793 
Q 465.186538 42.005793 465.186538 38.744193 
Q 465.186538 36.607283 461.812469 36.607283 
Q 459.937986 36.607283 458.850786 37.750717 
Q 457.763586 38.894152 457.763586 40.768634 
Q 457.763586 43.617848 459.094469 45.454841 
Q 460.425352 47.291834 463.162097 47.291834 
Q 464.624193 47.591752 465.861352 45.6048 
" clip-path="url(#pe8590a4069)" style="fill: none; stroke: #000000; stroke-linejoin: miter"/>
   </g>
  </g>
  <g id="axes_30">
   <g id="patch_27">
    <path d="M 473.438731 37.282097 
L 473.438731 37.844441 
Q 473.701159 39.868883 473.738648 41.312234 
Q 473.776138 42.755586 473.682414 44.667559 
Q 473.58869 46.579531 473.58869 48.191586 
L 473.663669 39.643945 
Q 473.663669 38.144359 475.256979 37.507034 
Q 476.85029 36.86971 478.274897 37.282097 
Q 480.186869 37.844441 481.105366 39.04411 
Q 482.023862 40.243779 482.080097 41.668386 
Q 482.136331 43.092993 482.173821 44.817517 
Q 482.21131 46.542041 482.361269 48.191586 
" clip-path="url(#p65dd4e471d)" style="fill: none; stroke: #000000; stroke-linejoin: miter"/>
   </g>
  </g>
  <g id="axes_31">
   <g id="patch_28">
    <path d="M 498.887191 39.096404 
Q 498.63236 39.023596 497.66764 38.623146 
Q 496.702921 38.222697 496.04764 38.077079 
Q 495.39236 37.931461 494.737079 38.00427 
Q 492.115955 38.00427 490.477753 40.388764 
Q 488.839551 42.773258 488.839551 45.430787 
Q 488.839551 47.068989 494.081798 47.068989 
Q 495.647191 47.068989 496.975955 45.558202 
Q 498.304719 44.047416 498.978202 42.172584 
Q 499.651685 40.297753 499.651685 38.768764 
Q 499.651685 37.27618 499.615281 36.984944 
L 499.542472 38.077079 
Q 499.542472 38.550337 499.542472 38.987191 
Q 499.578876 40.188539 499.779101 42.281798 
Q 499.979326 44.375056 500.143146 46.049663 
Q 500.306966 47.72427 500.343371 49.872135 
Q 500.379775 52.02 500.215955 53.658202 
Q 500.052135 55.296404 499.487865 56.971011 
Q 498.923596 58.645618 497.995281 59.737753 
Q 497.066966 60.829888 495.465169 61.521573 
Q 493.863371 62.213258 491.715506 62.213258 
Q 490.077303 62.213258 488.985169 61.466966 
Q 487.893034 60.720674 487.893034 59.155281 
Q 487.820225 58.936854 487.856629 58.936854 
Q 487.893034 58.936854 488.002247 58.936854 
Q 488.111461 58.936854 488.111461 58.82764 
" clip-path="url(#p10d0e5eef4)" style="fill: none; stroke: #000000; stroke-linejoin: miter"/>
   </g>
  </g>
  <g id="axes_32"/>
  <g id="axes_33">
   <g id="patch_29">
    <path d="M 522.957228 37.244607 
Q 524.006938 37.207117 524.194386 37.132138 
Q 527.605945 37.132138 529.386703 39.212814 
Q 531.167462 41.29349 531.167462 44.780028 
Q 531.167462 47.704221 526.556234 47.704221 
Q 525.91891 47.704221 525.37531 47.591752 
Q 524.83171 47.479283 524.194386 47.254345 
Q 523.557062 47.029407 523.069697 46.916938 
L 521.832538 45.679779 
M 522.844759 25.435366 
L 522.844759 26.560055 
Q 522.844759 29.409269 522.957228 33.008276 
Q 523.069697 36.607283 523.257145 40.899848 
Q 523.444593 45.192414 523.519572 47.141876 
" clip-path="url(#p658ac72123)" style="fill: none; stroke: #000000; stroke-linejoin: miter"/>
   </g>
  </g>
  <g id="axes_34">
   <g id="patch_30">
    <path d="M 539.963255 30.608938 
Q 541.087945 31.096303 542.512552 32.989531 
Q 543.937159 34.882759 544.462014 35.332634 
M 538.763586 38.706703 
Q 538.613628 38.819172 538.594883 39.025366 
Q 538.576138 39.231559 538.613628 39.475241 
Q 538.651117 39.718924 538.651117 39.831393 
Q 538.651117 40.993572 538.801076 42.155752 
Q 538.951034 43.317931 539.325931 44.742538 
Q 539.700828 46.167145 540.56309 47.048152 
Q 541.425352 47.929159 542.7 47.929159 
Q 544.087117 47.404303 544.705697 45.848483 
Q 545.324276 44.292662 545.567959 41.649641 
Q 545.811641 39.006621 545.9616 38.369297 
Q 546.448966 45.267393 546.486455 46.392083 
L 546.823862 48.079117 
" clip-path="url(#pa3420ed536)" style="fill: none; stroke: #000000; stroke-linejoin: miter"/>
   </g>
  </g>
  <g id="axes_35">
   <g id="patch_31">
    <path d="M 552.584141 38.85304 
L 553.012335 38.85304 
Q 553.83304 38.85304 554.796476 38.745991 
Q 555.759912 38.638943 556.919604 38.460529 
Q 558.079295 38.282115 558.685903 38.210749 
L 565.215859 35.427489 
M 564.894714 25.793128 
Q 564.609251 25.721762 563.574449 25.275727 
Q 562.539648 24.829692 561.897357 24.93674 
Q 561.255066 24.93674 560.737665 25.150837 
Q 560.220264 25.364934 559.881278 25.793128 
Q 559.542291 26.221322 559.27467 26.685198 
Q 559.007048 27.149075 558.864317 27.862731 
Q 558.721586 28.576388 558.614537 29.129471 
Q 558.507489 29.682555 558.489648 30.50326 
Q 558.471806 31.323965 558.453965 31.77 
Q 558.436123 32.216035 558.453965 32.965374 
Q 558.471806 33.714714 558.471806 33.928811 
Q 558.471806 36.605022 559.167621 41.850396 
Q 559.863436 47.095771 559.863436 49.771982 
Q 559.79207 50.057445 559.756388 50.681894 
Q 559.720705 51.306344 559.613656 51.805903 
Q 559.506608 52.305463 559.221145 52.555242 
" clip-path="url(#p37f612ef94)" style="fill: none; stroke: #000000; stroke-linejoin: miter"/>
   </g>
  </g>
  <g id="axes_36">
   <g id="patch_32">
    <path d="M 573.113048 29.671697 
Q 573.97531 30.271531 574.800083 31.171283 
Q 575.624855 32.071034 576.580841 33.270703 
Q 577.536828 34.470372 578.061683 35.070207 
M 571.950869 41.705876 
L 572.175807 41.705876 
Q 572.438234 41.668386 572.96309 41.76211 
Q 573.487945 41.855834 573.750372 41.818345 
Q 574.350207 41.743366 574.931297 41.780855 
Q 575.512386 41.818345 576.074731 41.743366 
Q 576.637076 41.668386 577.068207 41.443448 
Q 577.499338 41.21851 577.761766 40.637421 
Q 578.024193 40.056331 578.024193 39.11909 
Q 577.911724 37.881931 576.993228 37.319586 
Q 576.074731 36.757241 574.875062 36.86971 
Q 573.525434 36.982179 572.625683 37.9944 
Q 571.725931 39.006621 571.725931 40.356248 
Q 571.725931 48.82891 578.474069 46.766979 
" clip-path="url(#pf13c3e0e34)" style="fill: none; stroke: #000000; stroke-linejoin: miter"/>
   </g>
  </g>
  <g id="axes_37">
   <g id="patch_33">
    <path d="M 586.838731 37.282097 
L 586.838731 37.844441 
Q 587.101159 39.868883 587.138648 41.312234 
Q 587.176138 42.755586 587.082414 44.667559 
Q 586.98869 46.579531 586.98869 48.191586 
L 587.063669 39.643945 
Q 587.063669 38.144359 588.656979 37.507034 
Q 590.25029 36.86971 591.674897 37.282097 
Q 593.586869 37.844441 594.505366 39.04411 
Q 595.423862 40.243779 595.480097 41.668386 
Q 595.536331 43.092993 595.573821 44.817517 
Q 595.61131 46.542041 595.761269 48.191586 
" clip-path="url(#pebc168f1e1)" style="fill: none; stroke: #000000; stroke-linejoin: miter"/>
   </g>
  </g>
  <g id="axes_38">
   <g id="patch_34">
    <path d="M 606.787697 39.981352 
Q 607.799917 40.956083 608.137324 42.905545 
Q 608.324772 43.955255 607.912386 46.167145 
L 606.675228 47.629241 
" clip-path="url(#pa1f980d02e)" style="fill: none; stroke: #000000; stroke-linejoin: miter"/>
   </g>
  </g>
 </g>
 <defs>
  <clipPath id="p8441b42801">
   <rect x="1.782993" y="8.64" width="12.634014" height="54.36"/>
  </clipPath>
  <clipPath id="p5bca8f46a6">
   <rect x="18.938979" y="8.64" width="10.722041" height="54.36"/>
  </clipPath>
  <clipPath id="p3021d1578e">
   <rect x="34.464166" y="8.64" width="12.071669" height="54.36"/>
  </clipPath>
  <clipPath id="p4f47312869">
   <rect x="50.364248" y="8.64" width="12.671503" height="54.36"/>
  </clipPath>
  <clipPath id="pc45040b680">
   <rect x="64.8" y="9.426742" width="16.2" height="52.786517"/>
  </clipPath>
  <clipPath id="p22eb626be9">
   <rect x="81" y="10.936525" width="16.2" height="49.766949"/>
  </clipPath>
  <clipPath id="p6d973203a4">
   <rect x="99.301655" y="8.64" width="11.99669" height="54.36"/>
  </clipPath>
  <clipPath id="p47a1513ae5">
   <rect x="130.651945" y="8.64" width="14.09611" height="54.36"/>
  </clipPath>
  <clipPath id="p4f026903db">
   <rect x="147.189352" y="8.64" width="13.421297" height="54.36"/>
  </clipPath>
  <clipPath id="p64f5ecca81">
   <rect x="164.064166" y="8.64" width="12.071669" height="54.36"/>
  </clipPath>
  <clipPath id="p3f7256d203">
   <rect x="195.451945" y="8.64" width="14.09611" height="54.36"/>
  </clipPath>
  <clipPath id="pb83a712452">
   <rect x="210.6" y="8.881927" width="16.2" height="53.876147"/>
  </clipPath>
  <clipPath id="pa2ce48cb5c">
   <rect x="243.433366" y="8.64" width="15.333269" height="54.36"/>
  </clipPath>
  <clipPath id="p0dcac60991">
   <rect x="261.938979" y="8.64" width="10.722041" height="54.36"/>
  </clipPath>
  <clipPath id="pb24defd1a0">
   <rect x="276.170772" y="8.64" width="14.658455" height="54.36"/>
  </clipPath>
  <clipPath id="pe598dc9fe8">
   <rect x="293.364248" y="8.64" width="12.671503" height="54.36"/>
  </clipPath>
  <clipPath id="p7c8aeccd9f">
   <rect x="307.8" y="9.426742" width="16.2" height="52.786517"/>
  </clipPath>
  <clipPath id="p58149a7d10">
   <rect x="325.051945" y="8.64" width="14.09611" height="54.36"/>
  </clipPath>
  <clipPath id="p1a2612a813">
   <rect x="340.352193" y="8.64" width="15.895614" height="54.36"/>
  </clipPath>
  <clipPath id="pf464397501">
   <rect x="357.002069" y="8.64" width="14.995862" height="54.36"/>
  </clipPath>
  <clipPath id="p136066b0c4">
   <rect x="389.233366" y="8.64" width="15.333269" height="54.36"/>
  </clipPath>
  <clipPath id="p49389dd1c1">
   <rect x="406.276883" y="8.64" width="13.646234" height="54.36"/>
  </clipPath>
  <clipPath id="pf228a2bf2d">
   <rect x="421.2" y="11.850612" width="16.2" height="47.938776"/>
  </clipPath>
  <clipPath id="pffa2851bff">
   <rect x="440.138979" y="8.64" width="10.722041" height="54.36"/>
  </clipPath>
  <clipPath id="pe8590a4069">
   <rect x="455.664166" y="8.64" width="12.071669" height="54.36"/>
  </clipPath>
  <clipPath id="p65dd4e471d">
   <rect x="471.564248" y="8.64" width="12.671503" height="54.36"/>
  </clipPath>
  <clipPath id="p10d0e5eef4">
   <rect x="486" y="9.426742" width="16.2" height="52.786517"/>
  </clipPath>
  <clipPath id="p658ac72123">
   <rect x="519.958055" y="8.64" width="13.08389" height="54.36"/>
  </clipPath>
  <clipPath id="pa3420ed536">
   <rect x="536.701655" y="8.64" width="11.99669" height="54.36"/>
  </clipPath>
  <clipPath id="p37f612ef94">
   <rect x="550.8" y="9.949956" width="16.2" height="51.740088"/>
  </clipPath>
  <clipPath id="pf13c3e0e34">
   <rect x="569.851448" y="8.64" width="10.497103" height="54.36"/>
  </clipPath>
  <clipPath id="pebc168f1e1">
   <rect x="584.964248" y="8.64" width="12.671503" height="54.36"/>
  </clipPath>
  <clipPath id="pa1f980d02e">
   <rect x="604.800745" y="8.64" width="5.39851" height="54.36"/>
  </clipPath>
 </defs>
</svg>
