<?xml version="1.0" encoding="utf-8" standalone="no"?>
<!DOCTYPE svg PUBLIC "-//W3C//DTD SVG 1.1//EN"
  "http://www.w3.org/Graphics/SVG/1.1/DTD/svg11.dtd">
<svg xmlns:xlink="http://www.w3.org/1999/xlink" width="126pt" height="72pt" viewBox="0 0 126 72" xmlns="http://www.w3.org/2000/svg" version="1.1">
 <metadata>
  <rdf:RDF xmlns:dc="http://purl.org/dc/elements/1.1/" xmlns:cc="http://creativecommons.org/ns#" xmlns:rdf="http://www.w3.org/1999/02/22-rdf-syntax-ns#">
   <cc:Work>
    <dc:type rdf:resource="http://purl.org/dc/dcmitype/StillImage"/>
    <dc:date>2023-01-27T21:57:26.526830</dc:date>
    <dc:format>image/svg+xml</dc:format>
    <dc:creator>
     <cc:Agent>
      <dc:title>Matplotlib v3.6.1, https://matplotlib.org/</dc:title>
     </cc:Agent>
    </dc:creator>
   </cc:Work>
  </rdf:RDF>
 </metadata>
 <defs>
  <style type="text/css">*{stroke-linejoin: round; stroke-linecap: butt}</style>
 </defs>
 <g id="figure_1">
  <g id="patch_1">
   <path d="M 0 72 
L 126 72 
L 126 0 
L 0 0 
z
" style="fill: #8fff9f"/>
  </g>
  <g id="axes_1">
   <g id="patch_2">
    <path d="M 3.232895 27.826579 
Q 6.146053 30.242368 6.643421 30.704211 
M 1.776316 45.802895 
L 1.776316 45.483158 
Q 1.776316 44.950263 2.930921 44.541711 
Q 4.085526 44.133158 4.831579 44.133158 
Q 5.151316 44.097632 5.240132 44.150921 
Q 5.328947 44.204211 5.453289 44.310789 
Q 5.577632 44.417368 5.897368 44.452895 
Q 9.130263 45.731842 13.251316 46.477895 
Q 13.961842 46.62 15.151974 46.850921 
Q 16.342105 47.081842 16.892763 47.170658 
Q 17.443421 47.259474 18.420395 47.348289 
Q 19.397368 47.437105 20.498684 47.437105 
Q 21.351316 47.437105 22.168421 47.259474 
Q 22.985526 47.081842 23.9625 46.797632 
Q 24.939474 46.513421 25.507895 46.371316 
L 26.573684 45.731842 
M 2.238158 34.363421 
L 2.664474 34.363421 
Q 3.588158 34.505526 6.323684 33.368684 
Q 7.567105 32.871316 7.602632 33.084474 
Q 7.638158 33.368684 6.323684 34.754211 
Q 5.151316 35.997632 5.151316 37.312105 
Q 5.151316 37.738421 5.488816 38.058158 
Q 5.826316 38.377895 6.217105 38.537763 
Q 6.607895 38.697632 6.945395 39.070658 
Q 7.282895 39.443684 7.282895 39.976579 
Q 7.282895 40.047632 7.389474 40.260789 
Q 7.496053 40.473947 7.496053 40.616053 
L 7.496053 40.935789 
L 6.110526 44.452895 
M 15.596053 41.113421 
Q 16.057895 41.397632 16.732895 41.966053 
Q 17.407895 42.534474 17.585526 42.889737 
L 19.717105 43.848947 
M 16.128947 37.809474 
Q 16.093421 38.235789 16.128947 38.981842 
Q 16.128947 40.331842 15.720395 41.148947 
Q 15.311842 41.966053 14.565789 42.783158 
Q 13.819737 43.600263 13.464474 44.310789 
L 12.825 44.417368 
M 13.784211 36.637105 
L 17.621053 36.601579 
Q 17.727632 36.566053 17.958553 36.477237 
Q 18.189474 36.388421 18.384868 36.335132 
Q 18.580263 36.281842 18.793421 36.281842 
Q 18.828947 36.281842 18.864474 36.281842 
Q 19.113158 36.281842 19.166447 36.335132 
Q 19.219737 36.388421 19.219737 36.708158 
Q 19.219737 36.743684 18.9 39.798947 
L 18.473684 40.971316 
M 13.357895 36.530526 
Q 13.322368 37.063421 13.571053 37.17 
L 13.890789 41.22 
M 10.8 35.358158 
Q 12.114474 34.789737 15.009868 34.612105 
Q 17.905263 34.434474 19.113158 34.079211 
L 22.630263 33.972632 
M 15.844737 26.547632 
Q 15.986842 26.476579 15.986842 26.618684 
Q 15.986842 26.725263 15.880263 27.045 
Q 15.631579 28.004211 15.915789 28.075263 
L 16.022368 34.931842 
M 13.571053 33.297632 
Q 13.748684 33.226579 14.228289 33.191053 
Q 14.707895 33.155526 14.956579 32.977895 
L 20.178947 32.658158 
M 12.718421 29.958158 
L 13.251316 29.958158 
Q 13.784211 29.958158 14.405921 29.869342 
Q 15.027632 29.780526 15.791447 29.638421 
Q 16.555263 29.496316 16.981579 29.425263 
L 19.539474 29.638421 
L 19.113158 32.551579 
L 18.793421 32.977895 
M 12.825 29.958158 
L 12.825 30.277895 
Q 12.860526 31.556842 13.144737 31.983158 
Q 13.286842 32.480526 13.464474 32.622632 
Q 13.535526 32.658158 13.677632 32.764737 
" clip-path="url(#p209f350933)" style="fill: none; stroke: #000000; stroke-linejoin: miter"/>
   </g>
  </g>
  <g id="axes_2">
   <g id="patch_3">
    <path d="M 39.432103 34.920248 
Q 42.168848 34.020497 47.979745 33.570621 
L 52.81591 32.5584 
M 40.556793 30.42149 
Q 40.556793 30.42149 41.119138 30.42149 
Q 41.906421 30.42149 42.787428 30.252786 
Q 43.668434 30.084083 44.73689 29.80291 
Q 45.805345 29.521738 46.405179 29.409269 
L 48.429621 29.184331 
M 43.780903 43.39291 
L 44.005841 43.39291 
Q 44.830614 43.917766 46.705097 45.473586 
Q 48.579579 47.029407 50.191634 47.7792 
M 41.456545 40.881103 
L 42.01889 40.881103 
Q 45.767855 40.506207 49.141924 39.606455 
Q 50.004186 39.306538 50.285359 39.381517 
Q 50.566531 39.456497 50.454062 39.737669 
Q 50.341593 40.018841 49.704269 40.843614 
L 47.192462 44.48011 
L 46.630117 45.154924 
M 45.168021 25.810262 
L 44.043331 34.920248 
Q 43.705924 37.469545 43.705924 37.507034 
L 42.956131 40.243779 
L 42.731193 41.593407 
M 35.720628 31.883586 
Q 35.683138 31.996055 35.701883 32.502166 
Q 35.720628 33.008276 35.720628 33.120745 
Q 35.720628 35.032717 35.851841 37.282097 
Q 35.983055 39.531476 36.207993 42.211986 
Q 36.432931 44.892497 36.50791 46.167145 
L 36.395441 47.404303 
M 38.532352 26.597545 
Q 37.295193 29.709186 34.933345 32.783338 
L 32.23409 34.69531 
" clip-path="url(#p061ec51de2)" style="fill: none; stroke: #000000; stroke-linejoin: miter"/>
   </g>
  </g>
  <g id="axes_3">
   <g id="patch_4">
    <path d="M 62.777234 37.656993 
Q 65.139083 36.9072 67.725869 36.607283 
Q 70.312655 36.307366 74.005386 36.194897 
Q 77.698117 36.082428 79.085234 35.969959 
M 70.650062 33.270703 
L 70.650062 33.720579 
Q 70.762531 34.807779 71.006214 36.832221 
Q 71.249897 38.856662 71.399855 40.449972 
Q 71.549814 42.043283 71.587303 43.580359 
Q 71.624793 46.092166 71.212407 46.129655 
Q 70.83751 46.129655 70.125207 44.855007 
L 69.075497 43.46789 
M 65.813897 30.458979 
Q 66.001345 30.496469 66.263772 30.234041 
L 68.513152 30.234041 
Q 68.550641 30.234041 71.324876 30.009103 
L 76.086062 29.221821 
Q 75.861124 29.33429 75.467483 29.577972 
Q 75.073841 29.821655 74.961372 29.896634 
L 70.987469 33.158234 
M 60.977731 27.759724 
L 72.337097 27.534786 
Q 73.686724 27.459807 76.254766 27.08491 
Q 78.822807 26.710014 80.097455 26.635034 
Q 81.559552 26.560055 81.559552 26.747503 
Q 81.559552 26.784993 81.222145 27.647255 
L 79.085234 30.121572 
M 60.190448 27.647255 
Q 61.765014 28.472028 62.552297 30.009103 
L 62.777234 30.571448 
M 76.498448 22.81109 
Q 75.898614 23.485903 75.711166 24.723062 
L 74.698945 26.972441 
M 68.288214 23.82331 
Q 68.363193 23.89829 68.513152 24.216952 
Q 68.66311 24.535614 68.850559 24.610593 
L 69.862779 26.297628 
M 64.014393 24.273186 
L 65.026614 27.08491 
" clip-path="url(#p4076bd2c80)" style="fill: none; stroke: #000000; stroke-linejoin: miter"/>
   </g>
  </g>
  <g id="axes_4">
   <g id="patch_5">
    <path d="M 92.805097 36.844258 
Q 95.329161 39.295161 98.767742 40.831548 
Q 102.206323 42.367935 105.864387 42.770323 
L 109.376129 42.697161 
M 93.57329 35.454194 
L 93.57329 35.783419 
Q 93.463548 36.076065 92.96971 37.374677 
Q 92.475871 38.67329 92.274677 39.130548 
Q 92.073484 39.587806 91.561355 40.648645 
Q 91.049226 41.709484 90.628548 42.239903 
Q 90.207871 42.770323 89.531129 43.447065 
Q 88.854387 44.123806 88.086194 44.562774 
M 98.401935 36.551613 
L 98.621419 36.551613 
Q 99.023806 36.551613 99.499355 36.40529 
Q 99.974903 36.258968 100.578484 36.021194 
Q 101.182065 35.783419 101.47471 35.673677 
L 102.462387 35.563935 
M 98.292194 33.588581 
L 98.401935 39.734129 
M 86.879032 34.247032 
L 87.647226 34.247032 
Q 89.256774 34.247032 91.030935 34.045839 
Q 92.805097 33.844645 94.999935 33.515419 
Q 97.194774 33.186194 98.401935 33.039871 
L 111.570968 32.052194 
M 92.914839 32.088774 
Q 98.438516 31.137677 98.950645 31.064516 
L 102.462387 30.625548 
M 92.256387 29.016 
L 102.316065 28.284387 
M 92.366129 26.601677 
Q 93.353806 26.601677 96.865548 26.235871 
Q 100.37729 25.870065 101.438129 25.870065 
Q 102.06 25.870065 102.444097 25.998097 
Q 102.828194 26.126129 103.065968 26.309032 
Q 103.303742 26.491935 103.413484 26.528516 
L 102.974516 31.137677 
M 91.817419 26.382194 
L 91.817419 26.821161 
Q 92.073484 27.479613 92.110065 29.308645 
Q 92.146645 31.137677 92.695355 31.979032 
" clip-path="url(#p141f6e3d81)" style="fill: none; stroke: #000000; stroke-linejoin: miter"/>
   </g>
  </g>
 </g>
 <defs>
  <clipPath id="p209f350933">
   <rect x="0" y="10.063421" width="28.35" height="51.513158"/>
  </clipPath>
  <clipPath id="p061ec51de2">
   <rect x="30.359607" y="8.64" width="24.330786" height="54.36"/>
  </clipPath>
  <clipPath id="p4076bd2c80">
   <rect x="58.315966" y="8.64" width="25.118069" height="54.36"/>
  </clipPath>
  <clipPath id="p141f6e3d81">
   <rect x="85.05" y="9.299032" width="28.35" height="53.041935"/>
  </clipPath>
 </defs>
</svg>
