<?xml version="1.0" encoding="utf-8" standalone="no"?>
<!DOCTYPE svg PUBLIC "-//W3C//DTD SVG 1.1//EN"
  "http://www.w3.org/Graphics/SVG/1.1/DTD/svg11.dtd">
<svg xmlns:xlink="http://www.w3.org/1999/xlink" width="157.5pt" height="72pt" viewBox="0 0 157.5 72" xmlns="http://www.w3.org/2000/svg" version="1.1">
 <metadata>
  <rdf:RDF xmlns:dc="http://purl.org/dc/elements/1.1/" xmlns:cc="http://creativecommons.org/ns#" xmlns:rdf="http://www.w3.org/1999/02/22-rdf-syntax-ns#">
   <cc:Work>
    <dc:type rdf:resource="http://purl.org/dc/dcmitype/StillImage"/>
    <dc:date>2023-01-27T21:57:23.999035</dc:date>
    <dc:format>image/svg+xml</dc:format>
    <dc:creator>
     <cc:Agent>
      <dc:title>Matplotlib v3.6.1, https://matplotlib.org/</dc:title>
     </cc:Agent>
    </dc:creator>
   </cc:Work>
  </rdf:RDF>
 </metadata>
 <defs>
  <style type="text/css">*{stroke-linejoin: round; stroke-linecap: butt}</style>
 </defs>
 <g id="figure_1">
  <g id="patch_1">
   <path d="M 0 72 
L 157.5 72 
L 157.5 0 
L 0 0 
z
" style="fill: #8fff9f"/>
  </g>
  <g id="axes_1">
   <g id="patch_2">
    <path d="M 5.027524 42.193241 
L 23.622393 40.581186 
M 13.500186 38.444276 
Q 14.737345 41.855834 14.512407 47.891669 
Q 14.399938 48.90389 14.249979 48.941379 
Q 14.175 48.941379 13.575166 47.254345 
Q 12.862862 45.154924 12.150559 44.967476 
M 10.9134 35.969959 
L 11.363276 35.969959 
Q 11.775662 35.969959 13.200269 35.726276 
Q 14.624876 35.482593 15.862034 35.220166 
L 17.099193 34.957738 
Q 17.099193 35.445103 16.686807 36.176152 
Q 16.274421 36.9072 15.637097 37.769462 
Q 14.999772 38.631724 14.849814 38.894152 
L 14.287469 39.681434 
M 12.825372 28.097131 
Q 13.837593 28.696966 15.84329 30.796386 
Q 17.848986 32.895807 19.348572 33.495641 
L 22.047828 34.620331 
M 12.937841 28.2096 
L 12.712903 28.2096 
Q 12.300517 28.621986 11.138338 30.046593 
Q 9.976159 31.4712 9.057662 32.220993 
Q 8.139166 32.970786 6.976986 33.270703 
L 5.51489 34.170455 
L 4.727607 34.395393 
M 7.764269 28.884414 
Q 10.688462 28.2096 16.199441 27.759724 
Q 16.761786 27.647255 17.886476 27.459807 
Q 19.011166 27.272359 19.461041 27.197379 
M 13.162779 25.735283 
L 13.162779 34.395393 
" clip-path="url(#pf8ad93006f)" style="fill: none; stroke: #000000; stroke-linejoin: miter"/>
   </g>
  </g>
  <g id="axes_2">
   <g id="patch_3">
    <path d="M 35.683138 47.291834 
Q 36.133014 47.179366 37.12649 47.179366 
Q 38.119966 47.179366 38.607331 47.066897 
L 48.842007 46.841959 
M 36.357952 43.242952 
L 36.58289 43.242952 
Q 37.782559 43.242952 39.2634 43.055503 
Q 40.744241 42.868055 42.599979 42.549393 
Q 44.455717 42.230731 45.355469 42.118262 
L 47.154972 42.005793 
M 36.695359 40.656166 
Q 38.082476 40.13131 41.119138 39.812648 
Q 44.1558 39.493986 45.580407 38.969131 
Q 45.730366 38.969131 46.142752 38.912897 
Q 46.555138 38.856662 46.705097 38.856662 
L 47.604848 38.856662 
Q 47.679828 38.856662 47.773552 38.687959 
Q 47.867276 38.519255 48.017234 38.519255 
Q 48.129703 38.519255 48.129703 39.531476 
Q 48.129703 39.568966 47.904766 43.46789 
L 47.342421 46.392083 
M 44.568186 35.145186 
Q 44.868103 35.257655 45.449193 35.632552 
Q 46.030283 36.007448 46.36769 36.157407 
L 47.267441 36.94469 
M 44.343248 32.220993 
L 44.793124 32.220993 
Q 45.018062 32.220993 45.486683 32.427186 
Q 45.955303 32.633379 46.498903 32.952041 
Q 47.042503 33.270703 47.154972 33.345683 
L 47.942255 34.245434 
M 36.920297 34.69531 
Q 37.482641 34.995228 38.607331 35.82 
L 40.181897 36.607283 
M 37.145234 32.445931 
L 37.59511 32.445931 
L 40.069428 33.570621 
M 42.318807 27.272359 
L 42.431276 38.181848 
M 39.84449 27.609766 
L 45.130531 26.710014 
M 33.996103 32.108524 
Q 36.432931 31.50869 41.381566 31.058814 
Q 46.3302 30.608938 48.617069 30.084083 
Q 49.366862 29.896634 49.985441 29.915379 
Q 50.604021 29.934124 50.997662 30.121572 
Q 51.391303 30.309021 51.241345 30.89011 
Q 51.091386 31.4712 50.304103 32.333462 
L 49.854228 33.68309 
M 34.108572 30.271531 
L 33.658697 34.920248 
" clip-path="url(#p0ba21451b9)" style="fill: none; stroke: #000000; stroke-linejoin: miter"/>
   </g>
  </g>
  <g id="axes_3">
   <g id="patch_4">
    <path d="M 72.725431 35.296293 
Q 73.074569 35.924741 73.825216 37.426034 
Q 74.575862 38.927328 74.977371 39.712888 
Q 75.378879 40.498448 76.199353 41.720431 
Q 77.019828 42.942414 77.770474 43.64069 
Q 78.521121 44.338966 79.638362 45.002328 
Q 80.755603 45.66569 82.047414 45.979914 
L 83.30431 46.294138 
M 73.668103 25.380776 
L 73.668103 26.323448 
Q 73.668103 29.675172 72.882543 32.50319 
Q 72.096983 35.331207 70.246552 39.293922 
Q 68.396121 43.256638 67.907328 44.513534 
L 66.859914 45.560948 
M 61.134052 24.298448 
Q 61.657759 24.368276 62.111638 24.6825 
Q 62.565517 24.996724 63.159052 25.607716 
Q 63.752586 26.218707 63.962069 26.393276 
L 64.381034 26.498017 
M 58.44569 32.7825 
Q 58.690086 32.747586 59.440733 32.450819 
Q 60.191379 32.154052 60.645259 32.154052 
L 63.089224 30.897155 
L 62.809914 40.219138 
L 62.705172 43.885086 
Q 62.879741 43.885086 63.176509 43.710517 
Q 63.473276 43.535948 63.839871 43.256638 
Q 64.206466 42.977328 64.276293 42.942414 
L 65.218966 41.895 
" clip-path="url(#p5ebce91835)" style="fill: none; stroke: #000000; stroke-linejoin: miter"/>
   </g>
  </g>
  <g id="axes_4">
   <g id="patch_5">
    <path d="M 99.862324 34.807779 
L 103.011455 38.406786 
M 90.414931 32.108524 
L 106.647952 31.321241 
Q 107.510214 31.208772 107.547703 31.208772 
Q 108.447455 30.908855 108.578669 31.452455 
Q 108.709883 31.996055 108.559924 32.670869 
Q 107.772641 39.606455 104.960917 43.580359 
Q 104.848448 43.730317 104.492297 44.498855 
Q 104.136145 45.267393 103.779993 45.829738 
Q 103.423841 46.392083 103.048945 46.392083 
Q 102.936476 46.392083 102.861497 46.392083 
L 102.824007 46.392083 
Q 102.861497 46.317103 102.599069 46.167145 
L 100.462159 44.367641 
M 98.587676 23.89829 
Q 98.812614 24.948 98.793869 25.52909 
Q 98.775124 26.110179 98.64391 27.234869 
Q 98.512697 28.359559 98.512697 28.959393 
Q 98.512697 30.946345 97.388007 33.401917 
Q 96.263317 35.85749 94.426324 38.762938 
Q 92.589331 41.668386 92.101966 42.643117 
L 89.740117 44.780028 
M 91.089745 26.372607 
Q 91.464641 26.485076 91.933262 27.08491 
Q 92.401883 27.684745 92.66431 27.834703 
L 93.564062 29.409269 
" clip-path="url(#p6e19109732)" style="fill: none; stroke: #000000; stroke-linejoin: miter"/>
   </g>
  </g>
  <g id="axes_5">
   <g id="patch_6">
    <path d="M 126.112903 36.94469 
Q 126.150393 37.019669 126.412821 37.263352 
Q 126.675248 37.507034 126.787717 37.619503 
Q 126.900186 37.731972 127.143869 38.013145 
Q 127.387552 38.294317 127.53751 38.463021 
Q 127.687469 38.631724 127.912407 38.931641 
Q 128.137345 39.231559 128.268559 39.437752 
Q 128.399772 39.643945 128.549731 39.943862 
Q 128.69969 40.243779 128.793414 40.487462 
Q 128.887138 40.731145 128.962117 41.012317 
Q 129.037097 41.29349 129.037097 41.555917 
Q 129.037097 42.118262 128.887138 42.605628 
Q 128.737179 43.092993 128.456007 43.636593 
Q 128.174834 44.180193 128.024876 44.592579 
L 126.900186 45.717269 
" clip-path="url(#p7a39c2da01)" style="fill: none; stroke: #000000; stroke-linejoin: miter"/>
   </g>
  </g>
 </g>
 <defs>
  <clipPath id="pf8ad93006f">
   <rect x="2.853124" y="8.64" width="22.643752" height="54.36"/>
  </clipPath>
  <clipPath id="p0ba21451b9">
   <rect x="31.784214" y="8.64" width="21.481572" height="54.36"/>
  </clipPath>
  <clipPath id="p5ebce91835">
   <rect x="56.7" y="10.5075" width="28.35" height="50.625"/>
  </clipPath>
  <clipPath id="p6e19109732">
   <rect x="87.865634" y="8.64" width="22.718731" height="54.36"/>
  </clipPath>
  <clipPath id="p7a39c2da01">
   <rect x="124.238421" y="8.64" width="6.673159" height="54.36"/>
  </clipPath>
 </defs>
</svg>
