<?xml version="1.0" encoding="utf-8" standalone="no"?>
<!DOCTYPE svg PUBLIC "-//W3C//DTD SVG 1.1//EN"
  "http://www.w3.org/Graphics/SVG/1.1/DTD/svg11.dtd">
<svg xmlns:xlink="http://www.w3.org/1999/xlink" width="684pt" height="72pt" viewBox="0 0 684 72" xmlns="http://www.w3.org/2000/svg" version="1.1">
 <metadata>
  <rdf:RDF xmlns:dc="http://purl.org/dc/elements/1.1/" xmlns:cc="http://creativecommons.org/ns#" xmlns:rdf="http://www.w3.org/1999/02/22-rdf-syntax-ns#">
   <cc:Work>
    <dc:type rdf:resource="http://purl.org/dc/dcmitype/StillImage"/>
    <dc:date>2023-01-27T21:57:33.002390</dc:date>
    <dc:format>image/svg+xml</dc:format>
    <dc:creator>
     <cc:Agent>
      <dc:title>Matplotlib v3.6.1, https://matplotlib.org/</dc:title>
     </cc:Agent>
    </dc:creator>
   </cc:Work>
  </rdf:RDF>
 </metadata>
 <defs>
  <style type="text/css">*{stroke-linejoin: round; stroke-linecap: butt}</style>
 </defs>
 <g id="figure_1">
  <g id="patch_1">
   <path d="M 0 72 
L 684 72 
L 684 0 
L 0 0 
z
" style="fill: #8fff9f"/>
  </g>
  <g id="axes_1">
   <g id="patch_2">
    <path d="M 3.657476 43.917766 
Q 3.957393 44.180193 4.969614 45.154924 
Q 5.981834 46.129655 6.544179 46.560786 
Q 7.106524 46.991917 8.13749 47.385559 
Q 9.168455 47.7792 10.180676 47.629241 
Q 10.85549 47.629241 11.32411 47.404303 
Q 11.792731 47.179366 12.017669 46.879448 
Q 12.242607 46.579531 12.373821 45.979697 
Q 12.505034 45.379862 12.523779 44.967476 
Q 12.542524 44.55509 12.542524 43.805297 
Q 12.542524 42.718097 11.642772 42.043283 
Q 10.743021 41.368469 9.449628 41.031062 
Q 8.156234 40.693655 6.862841 40.300014 
Q 5.569448 39.906372 4.669697 38.987876 
Q 3.769945 38.069379 3.769945 36.607283 
Q 3.769945 36.082428 3.938648 35.726276 
Q 4.107352 35.370124 4.500993 35.145186 
Q 4.894634 34.920248 5.175807 34.807779 
Q 5.456979 34.69531 6.113048 34.639076 
Q 6.769117 34.582841 6.956566 34.582841 
Q 7.144014 34.582841 7.818828 34.582841 
Q 9.018497 34.582841 9.599586 34.995228 
Q 10.180676 35.407614 10.499338 36.026193 
Q 10.818 36.644772 11.080428 36.832221 
" clip-path="url(#p16a2550fa1)" style="fill: none; stroke: #000000; stroke-linejoin: miter"/>
   </g>
  </g>
  <g id="axes_2">
   <g id="patch_3">
    <path d="M 20.813462 35.932469 
Q 21.413297 35.257655 22.406772 34.826524 
Q 23.400248 34.395393 24.3 34.470372 
Q 24.937324 34.470372 25.42469 34.639076 
Q 25.912055 34.807779 26.230717 34.995228 
Q 26.549379 35.182676 26.774317 35.670041 
Q 26.999255 36.157407 27.111724 36.419834 
Q 27.224193 36.682262 27.280428 37.375821 
Q 27.336662 38.069379 27.355407 38.331807 
Q 27.374152 38.594234 27.355407 39.419007 
Q 27.336662 40.243779 27.336662 40.431228 
Q 27.336662 41.368469 27.167959 43.242952 
Q 26.999255 45.117434 26.999255 46.054676 
Q 26.999255 46.467062 27.05549 46.823214 
Q 27.111724 47.179366 27.205448 47.610497 
Q 27.299172 48.041628 27.336662 48.304055 
L 27.786538 48.528993 
M 21.263338 23.111007 
Q 21.488276 24.798041 21.488276 29.971614 
L 21.488276 42.3432 
L 21.150869 46.841959 
L 20.925931 47.74171 
" clip-path="url(#p838203673e)" style="fill: none; stroke: #000000; stroke-linejoin: miter"/>
   </g>
  </g>
  <g id="axes_3">
   <g id="patch_4">
    <path d="M 36.788524 28.734455 
L 43.649131 29.071862 
M 37.575807 37.394566 
Q 38.812966 37.95691 39.712717 37.95691 
Q 40.087614 37.95691 41.193559 38.181848 
Q 42.299503 38.406786 42.861848 38.406786 
Q 44.548883 38.406786 44.548883 35.145186 
Q 44.548883 33.983007 43.068041 33.439407 
Q 41.5872 32.895807 40.162593 32.895807 
Q 36.338648 32.895807 36.338648 38.969131 
Q 36.338648 40.506207 36.882248 41.499683 
Q 37.425848 42.493159 38.531793 42.905545 
Q 39.637738 43.317931 40.631214 43.449145 
Q 41.62469 43.580359 43.199255 43.580359 
Q 43.611641 43.880276 43.986538 43.4304 
Q 44.361434 42.980524 44.661352 43.018014 
" clip-path="url(#pa2272e33c2)" style="fill: none; stroke: #000000; stroke-linejoin: miter"/>
   </g>
  </g>
  <g id="axes_4">
   <g id="patch_5">
    <path d="M 51.863834 32.783338 
L 51.863834 33.345683 
Q 52.726097 39.718924 52.763586 47.066897 
Q 52.763586 47.81669 52.688607 47.029407 
Q 52.238731 42.080772 52.088772 35.82 
L 52.088772 35.145186 
Q 52.088772 33.6456 53.682083 33.008276 
Q 55.275393 32.370952 56.7 32.783338 
Q 58.237076 33.233214 59.211807 34.414138 
Q 60.186538 35.595062 60.561434 37.282097 
Q 60.936331 38.969131 61.067545 40.543697 
Q 61.198759 42.118262 61.273738 44.067724 
Q 61.348717 46.017186 61.536166 47.066897 
" clip-path="url(#p7e77be293e)" style="fill: none; stroke: #000000; stroke-linejoin: miter"/>
   </g>
  </g>
  <g id="axes_5">
   <g id="patch_6">
    <path d="M 78.51018 35.173293 
Q 78.283832 35.108623 77.426946 34.752934 
Q 76.57006 34.397246 75.988024 34.267904 
Q 75.405988 34.138563 74.823952 34.203234 
Q 72.495808 34.203234 71.040719 36.321198 
Q 69.585629 38.439162 69.585629 40.799641 
Q 69.585629 42.254731 74.241916 42.254731 
Q 75.632335 42.254731 76.812575 40.912814 
Q 77.992814 39.570898 78.591018 37.905629 
Q 79.189222 36.240359 79.189222 34.882275 
Q 79.189222 33.556527 79.156886 33.297844 
L 79.092216 34.267904 
Q 79.092216 34.688263 79.092216 35.076287 
Q 79.383234 42.287066 79.05988 45.64994 
Q 77.960479 57.969701 69.876647 57.969701 
Q 68.421557 57.969701 67.451497 57.306826 
Q 66.481437 56.643952 66.481437 55.253533 
Q 66.416766 55.059521 66.449102 55.059521 
Q 66.481437 55.059521 66.578443 55.059521 
Q 66.675449 55.059521 66.675449 54.962515 
" clip-path="url(#pc61414ca24)" style="fill: none; stroke: #000000; stroke-linejoin: miter"/>
   </g>
  </g>
  <g id="axes_6">
   <g id="patch_7">
    <path d="M 82.716102 36.437797 
L 83.951695 44.778051 
Q 84.054661 45.567458 84.054661 45.60178 
Q 84.054661 45.704746 84.363559 45.704746 
Q 85.22161 45.704746 85.942373 44.778051 
Q 86.663136 43.851356 87.075 42.718729 
Q 87.486864 41.586102 88.001695 40.659407 
Q 88.516525 39.732712 88.997034 39.732712 
Q 89.614831 39.732712 90.249788 40.607924 
Q 90.884746 41.483136 91.348093 42.512797 
Q 91.811441 43.542458 92.48072 44.417669 
Q 93.15 45.292881 93.836441 45.292881 
Q 94.111017 43.782712 94.540042 39.69839 
Q 94.969068 35.614068 95.483898 33.554746 
" clip-path="url(#p5f8a4fe5b5)" style="fill: none; stroke: #000000; stroke-linejoin: miter"/>
   </g>
  </g>
  <g id="axes_7">
   <g id="patch_8">
    <path d="M 101.626014 25.360386 
Q 102.750703 25.847752 104.17531 27.740979 
Q 105.599917 29.634207 106.124772 30.084083 
M 101.176138 34.582841 
Q 101.026179 34.69531 101.007434 34.901503 
Q 100.98869 35.107697 101.026179 35.351379 
Q 101.063669 35.595062 101.063669 35.707531 
Q 101.063669 36.86971 101.213628 38.03189 
Q 101.363586 39.194069 101.738483 40.618676 
Q 102.113379 42.043283 102.975641 42.92429 
Q 103.837903 43.805297 105.112552 43.805297 
Q 106.499669 43.280441 107.118248 41.724621 
Q 107.736828 40.1688 107.98051 37.525779 
Q 108.224193 34.882759 108.374152 34.245434 
Q 109.236414 41.893324 109.273903 43.018014 
L 109.61131 44.705048 
" clip-path="url(#p9736706eee)" style="fill: none; stroke: #000000; stroke-linejoin: miter"/>
   </g>
  </g>
  <g id="axes_8"/>
  <g id="axes_9">
   <g id="patch_9">
    <path d="M 141.299007 34.920248 
Q 140.436745 36.007448 137.325103 40.018841 
Q 134.213462 44.030234 132.526428 46.054676 
M 133.426179 36.044938 
Q 135.300662 37.319586 137.793724 40.843614 
Q 140.286786 44.367641 141.861352 45.6048 
L 142.873572 45.942207 
" clip-path="url(#p13aef3fbca)" style="fill: none; stroke: #000000; stroke-linejoin: miter"/>
   </g>
  </g>
  <g id="axes_10">
   <g id="patch_10">
    <path d="M 149.288772 35.145186 
Q 149.288772 35.145186 149.288772 35.595062 
Q 149.288772 36.269876 149.176303 37.619503 
Q 149.063834 38.969131 149.063834 39.643945 
Q 149.063834 41.930814 150.300993 43.599103 
Q 151.538152 45.267393 153.675062 45.267393 
Q 155.062179 45.154924 155.830717 43.917766 
Q 156.599255 42.680607 156.749214 41.237255 
Q 156.899172 39.793903 157.1616 37.9944 
Q 157.424028 36.194897 157.836414 35.370124 
Q 157.986372 35.070207 157.986372 35.670041 
Q 157.986372 36.269876 157.723945 38.706703 
Q 157.499007 41.031062 157.499007 41.555917 
Q 157.349048 42.643117 157.686455 43.767807 
Q 158.023862 44.892497 158.736166 45.6048 
" clip-path="url(#p972b7e8ada)" style="fill: none; stroke: #000000; stroke-linejoin: miter"/>
   </g>
  </g>
  <g id="axes_11">
   <g id="patch_11">
    <path d="M 166.8384 29.859145 
Q 167.100828 29.896634 167.438234 29.2968 
Q 167.775641 28.696966 168.300497 28.846924 
L 172.799255 24.798041 
M 165.938648 36.157407 
L 166.163586 36.157407 
Q 166.87589 36.157407 168.43171 36.832221 
Q 169.987531 37.507034 170.887283 37.507034 
Q 173.586538 37.507034 173.586538 34.245434 
Q 173.586538 32.108524 170.212469 32.108524 
Q 168.337986 32.108524 167.250786 33.251959 
Q 166.163586 34.395393 166.163586 36.269876 
Q 166.163586 39.11909 167.494469 40.956083 
Q 168.825352 42.793076 171.562097 42.793076 
Q 173.024193 43.092993 174.261352 41.106041 
" clip-path="url(#p4602d9b44a)" style="fill: none; stroke: #000000; stroke-linejoin: miter"/>
   </g>
  </g>
  <g id="axes_12"/>
  <g id="axes_13">
   <g id="patch_12">
    <path d="M 206.099007 38.444276 
Q 204.749379 37.057159 202.5 37.319586 
Q 199.650786 37.319586 198.488607 38.669214 
Q 197.326428 40.018841 197.326428 42.943034 
Q 197.326428 44.442621 198.619821 45.154924 
Q 199.913214 45.867228 201.487779 45.867228 
Q 202.799917 45.867228 203.812138 44.611324 
Q 204.824359 43.355421 205.405448 41.181021 
Q 205.986538 39.006621 206.361434 36.813476 
Q 206.736331 34.620331 206.88629 31.921076 
Q 207.036248 29.221821 207.073738 27.853448 
Q 207.111228 26.485076 207.111228 25.060469 
Q 206.88629 25.135448 206.88629 28.771945 
L 206.88629 43.167972 
L 207.673572 47.104386 
" clip-path="url(#p30907cad7b)" style="fill: none; stroke: #000000; stroke-linejoin: miter"/>
   </g>
  </g>
  <g id="axes_14">
   <g id="patch_13">
    <path d="M 212.457798 38.160826 
Q 215.430275 39.535596 220.149083 39.721376 
Q 221.672477 39.721376 222.359862 38.550963 
Q 223.047248 37.38055 223.047248 35.82 
Q 223.047248 35.299817 222.954358 34.909679 
Q 222.861468 34.519541 222.619954 34.296606 
Q 222.37844 34.07367 222.211239 33.943624 
Q 222.044037 33.813578 221.598165 33.757844 
Q 221.152294 33.70211 220.947936 33.683532 
Q 220.743578 33.664954 220.167661 33.683532 
Q 219.591743 33.70211 219.368807 33.70211 
Q 217.325229 33.70211 215.838991 35.578486 
Q 214.352752 37.454862 214.352752 39.609908 
Q 214.352752 42.619541 216.284862 44.570229 
Q 218.216972 46.520917 221.263761 46.520917 
Q 223.418807 46.818165 224.942202 44.29156 
" clip-path="url(#p349e8dec86)" style="fill: none; stroke: #000000; stroke-linejoin: miter"/>
   </g>
  </g>
  <g id="axes_15"/>
  <g id="axes_16">
   <g id="patch_14">
    <path d="M 246.2076 35.032717 
Q 246.2076 35.032717 249.581669 35.032717 
Q 249.694138 35.032717 251.437407 34.826524 
Q 253.180676 34.620331 254.192897 34.789034 
Q 255.205117 34.957738 255.205117 35.707531 
Q 255.205117 36.86971 254.192897 38.144359 
Q 253.180676 39.419007 251.718579 40.506207 
Q 250.256483 41.593407 248.794386 42.605628 
Q 247.33229 43.617848 246.320069 44.573834 
Q 245.307848 45.529821 245.307848 46.279614 
L 246.432538 46.279614 
Q 246.470028 46.279614 248.681917 46.054676 
L 256.892152 45.942207 
" clip-path="url(#p4815b0cbcb)" style="fill: none; stroke: #000000; stroke-linejoin: miter"/>
   </g>
  </g>
  <g id="axes_17">
   <g id="patch_15">
    <path d="M 263.813462 35.932469 
Q 264.413297 35.257655 265.406772 34.826524 
Q 266.400248 34.395393 267.3 34.470372 
Q 267.937324 34.470372 268.42469 34.639076 
Q 268.912055 34.807779 269.230717 34.995228 
Q 269.549379 35.182676 269.774317 35.670041 
Q 269.999255 36.157407 270.111724 36.419834 
Q 270.224193 36.682262 270.280428 37.375821 
Q 270.336662 38.069379 270.355407 38.331807 
Q 270.374152 38.594234 270.355407 39.419007 
Q 270.336662 40.243779 270.336662 40.431228 
Q 270.336662 41.368469 270.167959 43.242952 
Q 269.999255 45.117434 269.999255 46.054676 
Q 269.999255 46.467062 270.05549 46.823214 
Q 270.111724 47.179366 270.205448 47.610497 
Q 270.299172 48.041628 270.336662 48.304055 
L 270.786538 48.528993 
M 264.263338 23.111007 
Q 264.488276 24.798041 264.488276 29.971614 
L 264.488276 42.3432 
L 264.150869 46.841959 
L 263.925931 47.74171 
" clip-path="url(#peccb74693c)" style="fill: none; stroke: #000000; stroke-linejoin: miter"/>
   </g>
  </g>
  <g id="axes_18">
   <g id="patch_16">
    <path d="M 279.73229 25.922731 
Q 280.407103 26.410097 281.812966 27.534786 
Q 283.218828 28.659476 283.331297 28.734455 
L 285.1308 29.859145 
M 284.00611 33.233214 
L 283.331297 33.233214 
Q 280.332124 33.233214 279.18869 35.032717 
Q 278.045255 36.832221 278.045255 40.093821 
Q 278.045255 41.480938 279.319903 42.624372 
Q 280.594552 43.767807 282.206607 44.348897 
Q 283.818662 44.929986 285.1308 44.929986 
Q 288.954745 44.929986 288.954745 38.969131 
Q 288.954745 37.769462 288.073738 36.682262 
Q 287.192731 35.595062 285.824359 34.470372 
Q 284.455986 33.345683 284.00611 32.783338 
L 283.331297 32.445931 
" clip-path="url(#p4ccaece9fb)" style="fill: none; stroke: #000000; stroke-linejoin: miter"/>
   </g>
  </g>
  <g id="axes_19">
   <g id="patch_17">
    <path d="M 294.863834 32.783338 
L 294.863834 33.345683 
Q 295.726097 39.718924 295.763586 47.066897 
Q 295.763586 47.81669 295.688607 47.029407 
Q 295.238731 42.080772 295.088772 35.82 
L 295.088772 35.145186 
Q 295.088772 33.6456 296.682083 33.008276 
Q 298.275393 32.370952 299.7 32.783338 
Q 301.237076 33.233214 302.211807 34.414138 
Q 303.186538 35.595062 303.561434 37.282097 
Q 303.936331 38.969131 304.067545 40.543697 
Q 304.198759 42.118262 304.273738 44.067724 
Q 304.348717 46.017186 304.536166 47.066897 
" clip-path="url(#p4a6620e7c6)" style="fill: none; stroke: #000000; stroke-linejoin: miter"/>
   </g>
  </g>
  <g id="axes_20">
   <g id="patch_18">
    <path d="M 321.51018 35.173293 
Q 321.283832 35.108623 320.426946 34.752934 
Q 319.57006 34.397246 318.988024 34.267904 
Q 318.405988 34.138563 317.823952 34.203234 
Q 315.495808 34.203234 314.040719 36.321198 
Q 312.585629 38.439162 312.585629 40.799641 
Q 312.585629 42.254731 317.241916 42.254731 
Q 318.632335 42.254731 319.812575 40.912814 
Q 320.992814 39.570898 321.591018 37.905629 
Q 322.189222 36.240359 322.189222 34.882275 
Q 322.189222 33.556527 322.156886 33.297844 
L 322.092216 34.267904 
Q 322.092216 34.688263 322.092216 35.076287 
Q 322.383234 42.287066 322.05988 45.64994 
Q 320.960479 57.969701 312.876647 57.969701 
Q 311.421557 57.969701 310.451497 57.306826 
Q 309.481437 56.643952 309.481437 55.253533 
Q 309.416766 55.059521 309.449102 55.059521 
Q 309.481437 55.059521 309.578443 55.059521 
Q 309.675449 55.059521 309.675449 54.962515 
" clip-path="url(#p53b226b4b1)" style="fill: none; stroke: #000000; stroke-linejoin: miter"/>
   </g>
  </g>
  <g id="axes_21">
   <g id="patch_19">
    <path d="M 326.963917 36.382345 
Q 326.926428 36.494814 327.057641 36.701007 
Q 327.188855 36.9072 327.076386 37.057159 
L 327.076386 39.306538 
Q 327.076386 40.506207 327.413793 41.724621 
Q 327.7512 42.943034 328.613462 43.93651 
Q 329.475724 44.929986 330.675393 44.929986 
Q 331.912552 44.929986 332.587366 43.861531 
Q 333.262179 42.793076 333.712055 41.143531 
Q 334.161931 39.493986 334.499338 38.969131 
L 335.286621 36.382345 
L 335.061683 42.680607 
L 335.061683 45.154924 
Q 335.061683 47.066897 335.792731 51.00331 
Q 336.523779 54.939724 336.523779 56.964166 
Q 337.273572 59.213545 336.186372 60.188276 
Q 335.099172 61.163007 333.037241 60.78811 
Q 331.237738 60.488193 330.319241 60.169531 
Q 329.400745 59.850869 327.413793 58.988607 
L 327.301324 58.426262 
" clip-path="url(#p5db8a3bd89)" style="fill: none; stroke: #000000; stroke-linejoin: miter"/>
   </g>
  </g>
  <g id="axes_22">
   <g id="patch_20">
    <path d="M 344.813462 28.284579 
Q 345.788193 28.771945 347.081586 30.327766 
Q 348.374979 31.883586 348.862345 32.333462 
L 349.537159 33.008276 
M 352.573821 35.932469 
Q 351.261683 35.445103 350.211972 35.482593 
Q 349.949545 35.482593 349.049793 35.501338 
Q 348.150041 35.520083 347.71891 35.538828 
Q 347.287779 35.557572 346.425517 35.670041 
Q 345.563255 35.78251 345.094634 35.913724 
Q 344.626014 36.044938 343.98869 36.344855 
Q 343.351366 36.644772 343.032703 37.038414 
Q 342.714041 37.432055 342.470359 38.050634 
Q 342.226676 38.669214 342.226676 39.419007 
Q 342.226676 41.330979 343.838731 42.84931 
Q 345.450786 44.367641 347.400248 44.367641 
Q 348.749876 44.367641 349.612138 43.824041 
Q 350.4744 43.280441 350.886786 42.3432 
Q 351.299172 41.405959 351.52411 40.412483 
Q 351.749048 39.419007 352.086455 38.256828 
Q 352.423862 37.094648 352.911228 36.382345 
L 353.361103 42.3432 
L 354.373324 45.492331 
" clip-path="url(#p53ec0c7efa)" style="fill: none; stroke: #000000; stroke-linejoin: miter"/>
   </g>
  </g>
  <g id="axes_23">
   <g id="patch_21">
    <path d="M 367.7616 35.032717 
Q 366.71189 34.582841 365.737159 34.69531 
Q 362.700497 35.032717 360.788524 36.701007 
Q 358.876552 38.369297 358.876552 41.330979 
Q 358.876552 43.917766 360.882248 45.6048 
Q 362.887945 47.291834 365.512221 47.291834 
Q 367.874069 47.291834 368.998759 45.361117 
Q 370.123448 43.4304 370.123448 40.881103 
Q 370.123448 39.643945 369.711062 38.706703 
Q 369.298676 37.769462 368.773821 37.300841 
Q 368.248966 36.832221 367.499172 36.119917 
Q 366.749379 35.407614 366.299503 34.69531 
L 365.062345 34.245434 
" clip-path="url(#p0ad87ed462)" style="fill: none; stroke: #000000; stroke-linejoin: miter"/>
   </g>
  </g>
  <g id="axes_24"/>
  <g id="axes_25">
   <g id="patch_22">
    <path d="M 392.0076 35.032717 
Q 392.0076 35.032717 395.381669 35.032717 
Q 395.494138 35.032717 397.237407 34.826524 
Q 398.980676 34.620331 399.992897 34.789034 
Q 401.005117 34.957738 401.005117 35.707531 
Q 401.005117 36.86971 399.992897 38.144359 
Q 398.980676 39.419007 397.518579 40.506207 
Q 396.056483 41.593407 394.594386 42.605628 
Q 393.13229 43.617848 392.120069 44.573834 
Q 391.107848 45.529821 391.107848 46.279614 
L 392.232538 46.279614 
Q 392.270028 46.279614 394.481917 46.054676 
L 402.692152 45.942207 
" clip-path="url(#p0b314ec0ed)" style="fill: none; stroke: #000000; stroke-linejoin: miter"/>
   </g>
  </g>
  <g id="axes_26">
   <g id="patch_23">
    <path d="M 409.725931 27.909683 
Q 409.763421 28.022152 410.063338 28.79069 
Q 410.363255 29.559228 410.569448 29.896634 
Q 410.775641 30.234041 411.150538 30.777641 
Q 411.525434 31.321241 412.0128 31.546179 
Q 412.500166 31.771117 413.1 31.733628 
Q 413.662345 31.733628 414.037241 31.246262 
Q 414.412138 30.758897 414.7308 30.009103 
Q 415.049462 29.25931 415.23691 29.034372 
L 416.136662 26.447586 
M 408.71371 34.882759 
L 408.71371 35.220166 
Q 408.71371 36.157407 408.432538 38.069379 
Q 408.151366 39.981352 408.151366 40.956083 
Q 408.151366 42.718097 409.33229 44.086469 
Q 410.513214 45.454841 412.200248 45.454841 
Q 413.06251 45.454841 413.868538 44.498855 
Q 414.674566 43.542869 415.218166 42.174497 
Q 415.761766 40.806124 416.155407 39.419007 
Q 416.549048 38.03189 416.736497 37.057159 
L 416.923945 36.119917 
Q 416.923945 37.282097 416.699007 39.606455 
Q 416.474069 41.930814 416.474069 43.092993 
Q 416.474069 43.242952 416.605283 43.524124 
Q 416.736497 43.805297 416.923945 44.105214 
Q 417.111393 44.405131 417.148883 44.442621 
L 418.048634 45.56731 
" clip-path="url(#pd8c036709a)" style="fill: none; stroke: #000000; stroke-linejoin: miter"/>
   </g>
  </g>
  <g id="axes_27">
   <g id="patch_24">
    <path d="M 434.556735 34.365306 
Q 434.556735 34.365306 434.060816 34.365306 
Q 433.267347 34.365306 431.779592 34.067755 
Q 430.291837 33.770204 429.498367 33.770204 
Q 426.721224 33.770204 424.787143 35.224898 
Q 422.853061 36.679592 422.853061 39.423673 
Q 422.853061 40.94449 424.340816 42.399184 
Q 425.828571 43.853878 427.762653 44.663878 
Q 429.696735 45.473878 431.18449 45.473878 
Q 432.110204 45.473878 432.80449 45.110204 
Q 433.498776 44.746531 434.242653 44.118367 
Q 434.986531 43.490204 435.548571 43.192653 
L 435.746939 42.696735 
" clip-path="url(#p72d4f25bb2)" style="fill: none; stroke: #000000; stroke-linejoin: miter"/>
   </g>
  </g>
  <g id="axes_28">
   <g id="patch_25">
    <path d="M 442.013462 35.932469 
Q 442.613297 35.257655 443.606772 34.826524 
Q 444.600248 34.395393 445.5 34.470372 
Q 446.137324 34.470372 446.62469 34.639076 
Q 447.112055 34.807779 447.430717 34.995228 
Q 447.749379 35.182676 447.974317 35.670041 
Q 448.199255 36.157407 448.311724 36.419834 
Q 448.424193 36.682262 448.480428 37.375821 
Q 448.536662 38.069379 448.555407 38.331807 
Q 448.574152 38.594234 448.555407 39.419007 
Q 448.536662 40.243779 448.536662 40.431228 
Q 448.536662 41.368469 448.367959 43.242952 
Q 448.199255 45.117434 448.199255 46.054676 
Q 448.199255 46.467062 448.25549 46.823214 
Q 448.311724 47.179366 448.405448 47.610497 
Q 448.499172 48.041628 448.536662 48.304055 
L 448.986538 48.528993 
M 442.463338 23.111007 
Q 442.688276 24.798041 442.688276 29.971614 
L 442.688276 42.3432 
L 442.350869 46.841959 
L 442.125931 47.74171 
" clip-path="url(#p848812027d)" style="fill: none; stroke: #000000; stroke-linejoin: miter"/>
   </g>
  </g>
  <g id="axes_29">
   <g id="patch_26">
    <path d="M 458.4384 29.859145 
Q 458.700828 29.896634 459.038234 29.2968 
Q 459.375641 28.696966 459.900497 28.846924 
L 464.399255 24.798041 
M 457.538648 36.157407 
L 457.763586 36.157407 
Q 458.47589 36.157407 460.03171 36.832221 
Q 461.587531 37.507034 462.487283 37.507034 
Q 465.186538 37.507034 465.186538 34.245434 
Q 465.186538 32.108524 461.812469 32.108524 
Q 459.937986 32.108524 458.850786 33.251959 
Q 457.763586 34.395393 457.763586 36.269876 
Q 457.763586 39.11909 459.094469 40.956083 
Q 460.425352 42.793076 463.162097 42.793076 
Q 464.624193 43.092993 465.861352 41.106041 
" clip-path="url(#p098b91f146)" style="fill: none; stroke: #000000; stroke-linejoin: miter"/>
   </g>
  </g>
  <g id="axes_30">
   <g id="patch_27">
    <path d="M 473.063834 32.783338 
L 473.063834 33.345683 
Q 473.926097 39.718924 473.963586 47.066897 
Q 473.963586 47.81669 473.888607 47.029407 
Q 473.438731 42.080772 473.288772 35.82 
L 473.288772 35.145186 
Q 473.288772 33.6456 474.882083 33.008276 
Q 476.475393 32.370952 477.9 32.783338 
Q 479.437076 33.233214 480.411807 34.414138 
Q 481.386538 35.595062 481.761434 37.282097 
Q 482.136331 38.969131 482.267545 40.543697 
Q 482.398759 42.118262 482.473738 44.067724 
Q 482.548717 46.017186 482.736166 47.066897 
" clip-path="url(#pe2767b5122)" style="fill: none; stroke: #000000; stroke-linejoin: miter"/>
   </g>
  </g>
  <g id="axes_31">
   <g id="patch_28">
    <path d="M 499.71018 35.173293 
Q 499.483832 35.108623 498.626946 34.752934 
Q 497.77006 34.397246 497.188024 34.267904 
Q 496.605988 34.138563 496.023952 34.203234 
Q 493.695808 34.203234 492.240719 36.321198 
Q 490.785629 38.439162 490.785629 40.799641 
Q 490.785629 42.254731 495.441916 42.254731 
Q 496.832335 42.254731 498.012575 40.912814 
Q 499.192814 39.570898 499.791018 37.905629 
Q 500.389222 36.240359 500.389222 34.882275 
Q 500.389222 33.556527 500.356886 33.297844 
L 500.292216 34.267904 
Q 500.292216 34.688263 500.292216 35.076287 
Q 500.583234 42.287066 500.25988 45.64994 
Q 499.160479 57.969701 491.076647 57.969701 
Q 489.621557 57.969701 488.651497 57.306826 
Q 487.681437 56.643952 487.681437 55.253533 
Q 487.616766 55.059521 487.649102 55.059521 
Q 487.681437 55.059521 487.778443 55.059521 
Q 487.875449 55.059521 487.875449 54.962515 
" clip-path="url(#p6cbebb939e)" style="fill: none; stroke: #000000; stroke-linejoin: miter"/>
   </g>
  </g>
  <g id="axes_32"/>
  <g id="axes_33">
   <g id="patch_29">
    <path d="M 522.957228 36.494814 
Q 524.006938 36.457324 524.194386 36.382345 
Q 527.605945 36.382345 529.386703 38.463021 
Q 531.167462 40.543697 531.167462 44.030234 
Q 531.167462 46.954428 526.556234 46.954428 
Q 525.91891 46.954428 525.37531 46.841959 
Q 524.83171 46.72949 524.194386 46.504552 
Q 523.557062 46.279614 523.069697 46.167145 
L 521.832538 44.929986 
M 522.844759 24.685572 
L 522.844759 25.810262 
Q 522.844759 28.659476 522.957228 32.258483 
Q 523.069697 35.85749 523.257145 40.150055 
Q 523.444593 44.442621 523.519572 46.392083 
" clip-path="url(#p82a07e03c5)" style="fill: none; stroke: #000000; stroke-linejoin: miter"/>
   </g>
  </g>
  <g id="axes_34">
   <g id="patch_30">
    <path d="M 539.026014 25.360386 
Q 540.150703 25.847752 541.57531 27.740979 
Q 542.999917 29.634207 543.524772 30.084083 
M 538.576138 34.582841 
Q 538.426179 34.69531 538.407434 34.901503 
Q 538.38869 35.107697 538.426179 35.351379 
Q 538.463669 35.595062 538.463669 35.707531 
Q 538.463669 36.86971 538.613628 38.03189 
Q 538.763586 39.194069 539.138483 40.618676 
Q 539.513379 42.043283 540.375641 42.92429 
Q 541.237903 43.805297 542.512552 43.805297 
Q 543.899669 43.280441 544.518248 41.724621 
Q 545.136828 40.1688 545.38051 37.525779 
Q 545.624193 34.882759 545.774152 34.245434 
Q 546.636414 41.893324 546.673903 43.018014 
L 547.01131 44.705048 
" clip-path="url(#pae08c1d173)" style="fill: none; stroke: #000000; stroke-linejoin: miter"/>
   </g>
  </g>
  <g id="axes_35">
   <g id="patch_31">
    <path d="M 552.584141 38.85304 
L 553.012335 38.85304 
Q 553.83304 38.85304 554.796476 38.745991 
Q 555.759912 38.638943 556.919604 38.460529 
Q 558.079295 38.282115 558.685903 38.210749 
L 565.215859 35.427489 
M 564.894714 25.793128 
Q 564.609251 25.721762 563.574449 25.275727 
Q 562.539648 24.829692 561.897357 24.93674 
Q 561.255066 24.93674 560.737665 25.150837 
Q 560.220264 25.364934 559.881278 25.793128 
Q 559.542291 26.221322 559.27467 26.685198 
Q 559.007048 27.149075 558.864317 27.862731 
Q 558.721586 28.576388 558.614537 29.129471 
Q 558.507489 29.682555 558.489648 30.50326 
Q 558.471806 31.323965 558.453965 31.77 
Q 558.436123 32.216035 558.453965 32.965374 
Q 558.471806 33.714714 558.471806 33.928811 
Q 558.471806 36.605022 559.167621 41.850396 
Q 559.863436 47.095771 559.863436 49.771982 
Q 559.79207 50.057445 559.756388 50.681894 
Q 559.720705 51.306344 559.613656 51.805903 
Q 559.506608 52.305463 559.221145 52.555242 
" clip-path="url(#pb891340483)" style="fill: none; stroke: #000000; stroke-linejoin: miter"/>
   </g>
  </g>
  <g id="axes_36">
   <g id="patch_32">
    <path d="M 571.669697 27.047421 
Q 572.531959 27.647255 573.356731 28.547007 
Q 574.181503 29.446759 575.13749 30.646428 
Q 576.093476 31.846097 576.618331 32.445931 
M 572.007103 39.0816 
L 572.232041 39.0816 
Q 572.494469 39.04411 573.019324 39.137834 
Q 573.544179 39.231559 573.806607 39.194069 
Q 574.406441 39.11909 574.987531 39.156579 
Q 575.568621 39.194069 576.130966 39.11909 
Q 576.69331 39.04411 577.124441 38.819172 
Q 577.555572 38.594234 577.818 38.013145 
Q 578.080428 37.432055 578.080428 36.494814 
Q 577.967959 35.257655 577.049462 34.69531 
Q 576.130966 34.132966 574.931297 34.245434 
Q 573.581669 34.357903 572.681917 35.370124 
Q 571.782166 36.382345 571.782166 37.731972 
Q 571.782166 46.204634 578.530303 44.142703 
" clip-path="url(#p6eb0eda1a2)" style="fill: none; stroke: #000000; stroke-linejoin: miter"/>
   </g>
  </g>
  <g id="axes_37">
   <g id="patch_33">
    <path d="M 586.463834 32.783338 
L 586.463834 33.345683 
Q 587.326097 39.718924 587.363586 47.066897 
Q 587.363586 47.81669 587.288607 47.029407 
Q 586.838731 42.080772 586.688772 35.82 
L 586.688772 35.145186 
Q 586.688772 33.6456 588.282083 33.008276 
Q 589.875393 32.370952 591.3 32.783338 
Q 592.837076 33.233214 593.811807 34.414138 
Q 594.786538 35.595062 595.161434 37.282097 
Q 595.536331 38.969131 595.667545 40.543697 
Q 595.798759 42.118262 595.873738 44.067724 
Q 595.948717 46.017186 596.136166 47.066897 
" clip-path="url(#pf93379ab79)" style="fill: none; stroke: #000000; stroke-linejoin: miter"/>
   </g>
  </g>
  <g id="axes_38">
   <g id="patch_34">
    <path d="M 606.787697 39.981352 
Q 607.799917 40.956083 608.137324 42.905545 
Q 608.324772 43.955255 607.912386 46.167145 
L 606.675228 47.629241 
" clip-path="url(#p4108a91e98)" style="fill: none; stroke: #000000; stroke-linejoin: miter"/>
   </g>
  </g>
 </g>
 <defs>
  <clipPath id="p16a2550fa1">
   <rect x="1.782993" y="8.64" width="12.634014" height="54.36"/>
  </clipPath>
  <clipPath id="p838203673e">
   <rect x="18.938979" y="8.64" width="10.722041" height="54.36"/>
  </clipPath>
  <clipPath id="pa2272e33c2">
   <rect x="34.464166" y="8.64" width="12.071669" height="54.36"/>
  </clipPath>
  <clipPath id="p7e77be293e">
   <rect x="49.989352" y="8.64" width="13.421297" height="54.36"/>
  </clipPath>
  <clipPath id="pc61414ca24">
   <rect x="64.8" y="12.376886" width="16.2" height="46.886228"/>
  </clipPath>
  <clipPath id="p5f8a4fe5b5">
   <rect x="81" y="10.936525" width="16.2" height="49.766949"/>
  </clipPath>
  <clipPath id="p9736706eee">
   <rect x="99.114207" y="8.64" width="12.371586" height="54.36"/>
  </clipPath>
  <clipPath id="p13aef3fbca">
   <rect x="130.651945" y="8.64" width="14.09611" height="54.36"/>
  </clipPath>
  <clipPath id="p972b7e8ada">
   <rect x="147.189352" y="8.64" width="13.421297" height="54.36"/>
  </clipPath>
  <clipPath id="p4602d9b44a">
   <rect x="164.064166" y="8.64" width="12.071669" height="54.36"/>
  </clipPath>
  <clipPath id="p30907cad7b">
   <rect x="195.451945" y="8.64" width="14.09611" height="54.36"/>
  </clipPath>
  <clipPath id="p349e8dec86">
   <rect x="210.6" y="8.881927" width="16.2" height="53.876147"/>
  </clipPath>
  <clipPath id="p4815b0cbcb">
   <rect x="243.433366" y="8.64" width="15.333269" height="54.36"/>
  </clipPath>
  <clipPath id="peccb74693c">
   <rect x="261.938979" y="8.64" width="10.722041" height="54.36"/>
  </clipPath>
  <clipPath id="p4ccaece9fb">
   <rect x="276.170772" y="8.64" width="14.658455" height="54.36"/>
  </clipPath>
  <clipPath id="p4a6620e7c6">
   <rect x="292.989352" y="8.64" width="13.421297" height="54.36"/>
  </clipPath>
  <clipPath id="p53b226b4b1">
   <rect x="307.8" y="12.376886" width="16.2" height="46.886228"/>
  </clipPath>
  <clipPath id="p5db8a3bd89">
   <rect x="325.051945" y="8.64" width="14.09611" height="54.36"/>
  </clipPath>
  <clipPath id="p53ec0c7efa">
   <rect x="340.352193" y="8.64" width="15.895614" height="54.36"/>
  </clipPath>
  <clipPath id="p0ad87ed462">
   <rect x="357.002069" y="8.64" width="14.995862" height="54.36"/>
  </clipPath>
  <clipPath id="p0b314ec0ed">
   <rect x="389.233366" y="8.64" width="15.333269" height="54.36"/>
  </clipPath>
  <clipPath id="pd8c036709a">
   <rect x="406.276883" y="8.64" width="13.646234" height="54.36"/>
  </clipPath>
  <clipPath id="p72d4f25bb2">
   <rect x="421.2" y="11.850612" width="16.2" height="47.938776"/>
  </clipPath>
  <clipPath id="p848812027d">
   <rect x="440.138979" y="8.64" width="10.722041" height="54.36"/>
  </clipPath>
  <clipPath id="p098b91f146">
   <rect x="455.664166" y="8.64" width="12.071669" height="54.36"/>
  </clipPath>
  <clipPath id="pe2767b5122">
   <rect x="471.189352" y="8.64" width="13.421297" height="54.36"/>
  </clipPath>
  <clipPath id="p6cbebb939e">
   <rect x="486" y="12.376886" width="16.2" height="46.886228"/>
  </clipPath>
  <clipPath id="p82a07e03c5">
   <rect x="519.958055" y="8.64" width="13.08389" height="54.36"/>
  </clipPath>
  <clipPath id="pae08c1d173">
   <rect x="536.514207" y="8.64" width="12.371586" height="54.36"/>
  </clipPath>
  <clipPath id="pb891340483">
   <rect x="550.8" y="9.949956" width="16.2" height="51.740088"/>
  </clipPath>
  <clipPath id="p6eb0eda1a2">
   <rect x="569.795214" y="8.64" width="10.609572" height="54.36"/>
  </clipPath>
  <clipPath id="pf93379ab79">
   <rect x="584.589352" y="8.64" width="13.421297" height="54.36"/>
  </clipPath>
  <clipPath id="p4108a91e98">
   <rect x="604.800745" y="8.64" width="5.39851" height="54.36"/>
  </clipPath>
 </defs>
</svg>
