<?xml version="1.0" encoding="utf-8" standalone="no"?>
<!DOCTYPE svg PUBLIC "-//W3C//DTD SVG 1.1//EN"
  "http://www.w3.org/Graphics/SVG/1.1/DTD/svg11.dtd">
<svg xmlns:xlink="http://www.w3.org/1999/xlink" width="594pt" height="72pt" viewBox="0 0 594 72" xmlns="http://www.w3.org/2000/svg" version="1.1">
 <metadata>
  <rdf:RDF xmlns:dc="http://purl.org/dc/elements/1.1/" xmlns:cc="http://creativecommons.org/ns#" xmlns:rdf="http://www.w3.org/1999/02/22-rdf-syntax-ns#">
   <cc:Work>
    <dc:type rdf:resource="http://purl.org/dc/dcmitype/StillImage"/>
    <dc:date>2023-01-28T11:20:13.889011</dc:date>
    <dc:format>image/svg+xml</dc:format>
    <dc:creator>
     <cc:Agent>
      <dc:title>Matplotlib v3.6.1, https://matplotlib.org/</dc:title>
     </cc:Agent>
    </dc:creator>
   </cc:Work>
  </rdf:RDF>
 </metadata>
 <defs>
  <style type="text/css">*{stroke-linejoin: round; stroke-linecap: butt}</style>
 </defs>
 <g id="figure_1">
  <g id="patch_1">
   <path d="M 0 72 
L 594 72 
L 594 0 
L 0 0 
z
" style="fill: #8fff9f"/>
  </g>
  <g id="axes_1">
   <g id="patch_2">
    <path d="M 1.087248 30.470738 
L 2.261477 30.601208 
Q 4.088054 30.601208 5.925503 30.709933 
Q 7.762953 30.818658 10.002685 30.992617 
Q 12.242416 31.166577 13.677584 31.253557 
L 15.112752 31.123087 
M 7.871678 31.057852 
Q 7.936913 31.405772 7.675973 32.177718 
Q 7.415034 32.949664 7.610738 33.406309 
Q 7.610738 34.711007 7.752081 36.363624 
Q 7.893423 38.016242 8.110872 39.973289 
Q 8.328322 41.930336 8.393557 42.800134 
" clip-path="url(#p22cc89a71d)" style="fill: none; stroke: #000000; stroke-linejoin: miter"/>
   </g>
  </g>
  <g id="axes_2">
   <g id="patch_3">
    <path d="M 18.377221 29.066925 
L 28.562187 29.066925 
M 27.787244 33.384465 
Q 27.787244 33.384465 24.908884 33.384465 
Q 21.919818 33.384465 19.98246 35.026606 
Q 18.045103 36.668747 18.045103 39.584009 
Q 18.045103 41.318405 19.779499 42.222506 
Q 21.513895 43.126606 23.469704 43.126606 
Q 24.982688 42.83139 25.849886 41.650524 
Q 26.717084 40.469658 26.938497 39.251891 
Q 27.159909 38.034123 27.36287 36.115216 
Q 27.565831 34.19631 27.787244 33.384465 
Q 30.333485 42.978998 30.444191 43.901549 
L 30.554897 45.00861 
" clip-path="url(#pd2fad6c899)" style="fill: none; stroke: #000000; stroke-linejoin: miter"/>
   </g>
  </g>
  <g id="axes_3"/>
  <g id="axes_4">
   <g id="patch_4">
    <path d="M 60.299007 34.920248 
Q 59.436745 36.007448 56.325103 40.018841 
Q 53.213462 44.030234 51.526428 46.054676 
M 52.426179 36.044938 
Q 54.300662 37.319586 56.793724 40.843614 
Q 59.286786 44.367641 60.861352 45.6048 
L 61.873572 45.942207 
" clip-path="url(#p4cae76ef5e)" style="fill: none; stroke: #000000; stroke-linejoin: miter"/>
   </g>
  </g>
  <g id="axes_5">
   <g id="patch_5">
    <path d="M 69.357228 33.158234 
L 76.442772 33.158234 
M 72.843766 36.307366 
L 72.843766 44.5176 
" clip-path="url(#pe1cf327fdb)" style="fill: none; stroke: #000000; stroke-linejoin: miter"/>
   </g>
  </g>
  <g id="axes_6">
   <g id="patch_6">
    <path d="M 82.716102 36.437797 
L 83.951695 44.778051 
Q 84.054661 45.567458 84.054661 45.60178 
Q 84.054661 45.704746 84.363559 45.704746 
Q 85.22161 45.704746 85.942373 44.778051 
Q 86.663136 43.851356 87.075 42.718729 
Q 87.486864 41.586102 88.001695 40.659407 
Q 88.516525 39.732712 88.997034 39.732712 
Q 89.614831 39.732712 90.249788 40.607924 
Q 90.884746 41.483136 91.348093 42.512797 
Q 91.811441 43.542458 92.48072 44.417669 
Q 93.15 45.292881 93.836441 45.292881 
Q 94.111017 43.782712 94.540042 39.69839 
Q 94.969068 35.614068 95.483898 33.554746 
" clip-path="url(#pf25c171757)" style="fill: none; stroke: #000000; stroke-linejoin: miter"/>
   </g>
  </g>
  <g id="axes_7">
   <g id="patch_7">
    <path d="M 101.813462 28.284579 
Q 102.788193 28.771945 104.081586 30.327766 
Q 105.374979 31.883586 105.862345 32.333462 
L 106.537159 33.008276 
M 109.573821 35.932469 
Q 108.261683 35.445103 107.211972 35.482593 
Q 106.949545 35.482593 106.049793 35.501338 
Q 105.150041 35.520083 104.71891 35.538828 
Q 104.287779 35.557572 103.425517 35.670041 
Q 102.563255 35.78251 102.094634 35.913724 
Q 101.626014 36.044938 100.98869 36.344855 
Q 100.351366 36.644772 100.032703 37.038414 
Q 99.714041 37.432055 99.470359 38.050634 
Q 99.226676 38.669214 99.226676 39.419007 
Q 99.226676 41.330979 100.838731 42.84931 
Q 102.450786 44.367641 104.400248 44.367641 
Q 105.749876 44.367641 106.612138 43.824041 
Q 107.4744 43.280441 107.886786 42.3432 
Q 108.299172 41.405959 108.52411 40.412483 
Q 108.749048 39.419007 109.086455 38.256828 
Q 109.423862 37.094648 109.911228 36.382345 
L 110.361103 42.3432 
L 111.373324 45.492331 
" clip-path="url(#p50e0891e77)" style="fill: none; stroke: #000000; stroke-linejoin: miter"/>
   </g>
  </g>
  <g id="axes_8">
   <g id="patch_8">
    <path d="M 116.663834 32.783338 
L 116.663834 33.345683 
Q 117.526097 39.718924 117.563586 47.066897 
Q 117.563586 47.81669 117.488607 47.029407 
Q 117.038731 42.080772 116.888772 35.82 
L 116.888772 35.145186 
Q 116.888772 33.6456 118.482083 33.008276 
Q 120.075393 32.370952 121.5 32.783338 
Q 123.037076 33.233214 124.011807 34.414138 
Q 124.986538 35.595062 125.361434 37.282097 
Q 125.736331 38.969131 125.867545 40.543697 
Q 125.998759 42.118262 126.073738 44.067724 
Q 126.148717 46.017186 126.336166 47.066897 
" clip-path="url(#p21c8904e4f)" style="fill: none; stroke: #000000; stroke-linejoin: miter"/>
   </g>
  </g>
  <g id="axes_9">
   <g id="patch_9">
    <path d="M 143.31018 35.173293 
Q 143.083832 35.108623 142.226946 34.752934 
Q 141.37006 34.397246 140.788024 34.267904 
Q 140.205988 34.138563 139.623952 34.203234 
Q 137.295808 34.203234 135.840719 36.321198 
Q 134.385629 38.439162 134.385629 40.799641 
Q 134.385629 42.254731 139.041916 42.254731 
Q 140.432335 42.254731 141.612575 40.912814 
Q 142.792814 39.570898 143.391018 37.905629 
Q 143.989222 36.240359 143.989222 34.882275 
Q 143.989222 33.556527 143.956886 33.297844 
L 143.892216 34.267904 
Q 143.892216 34.688263 143.892216 35.076287 
Q 144.183234 42.287066 143.85988 45.64994 
Q 142.760479 57.969701 134.676647 57.969701 
Q 133.221557 57.969701 132.251497 57.306826 
Q 131.281437 56.643952 131.281437 55.253533 
Q 131.216766 55.059521 131.249102 55.059521 
Q 131.281437 55.059521 131.378443 55.059521 
Q 131.475449 55.059521 131.475449 54.962515 
" clip-path="url(#p324a2d2cfa)" style="fill: none; stroke: #000000; stroke-linejoin: miter"/>
   </g>
  </g>
  <g id="axes_10"/>
  <g id="axes_11">
   <g id="patch_10">
    <path d="M 165.263834 32.783338 
L 165.263834 33.345683 
Q 166.126097 39.718924 166.163586 47.066897 
Q 166.163586 47.81669 166.088607 47.029407 
Q 165.638731 42.080772 165.488772 35.82 
L 165.488772 35.145186 
Q 165.488772 33.6456 167.082083 33.008276 
Q 168.675393 32.370952 170.1 32.783338 
Q 171.637076 33.233214 172.611807 34.414138 
Q 173.586538 35.595062 173.961434 37.282097 
Q 174.336331 38.969131 174.467545 40.543697 
Q 174.598759 42.118262 174.673738 44.067724 
Q 174.748717 46.017186 174.936166 47.066897 
" clip-path="url(#p31ebf2f444)" style="fill: none; stroke: #000000; stroke-linejoin: miter"/>
   </g>
  </g>
  <g id="axes_12">
   <g id="patch_11">
    <path d="M 183.0384 29.859145 
Q 183.300828 29.896634 183.638234 29.2968 
Q 183.975641 28.696966 184.500497 28.846924 
L 188.999255 24.798041 
M 182.138648 36.157407 
L 182.363586 36.157407 
Q 183.07589 36.157407 184.63171 36.832221 
Q 186.187531 37.507034 187.087283 37.507034 
Q 189.786538 37.507034 189.786538 34.245434 
Q 189.786538 32.108524 186.412469 32.108524 
Q 184.537986 32.108524 183.450786 33.251959 
Q 182.363586 34.395393 182.363586 36.269876 
Q 182.363586 39.11909 183.694469 40.956083 
Q 185.025352 42.793076 187.762097 42.793076 
Q 189.224193 43.092993 190.461352 41.106041 
" clip-path="url(#p448939314e)" style="fill: none; stroke: #000000; stroke-linejoin: miter"/>
   </g>
  </g>
  <g id="axes_13">
   <g id="patch_12">
    <path d="M 197.663834 32.783338 
L 197.663834 33.345683 
Q 198.526097 39.718924 198.563586 47.066897 
Q 198.563586 47.81669 198.488607 47.029407 
Q 198.038731 42.080772 197.888772 35.82 
L 197.888772 35.145186 
Q 197.888772 33.6456 199.482083 33.008276 
Q 201.075393 32.370952 202.5 32.783338 
Q 204.037076 33.233214 205.011807 34.414138 
Q 205.986538 35.595062 206.361434 37.282097 
Q 206.736331 38.969131 206.867545 40.543697 
Q 206.998759 42.118262 207.073738 44.067724 
Q 207.148717 46.017186 207.336166 47.066897 
" clip-path="url(#pec478d4ce5)" style="fill: none; stroke: #000000; stroke-linejoin: miter"/>
   </g>
  </g>
  <g id="axes_14">
   <g id="patch_13">
    <path d="M 224.31018 35.173293 
Q 224.083832 35.108623 223.226946 34.752934 
Q 222.37006 34.397246 221.788024 34.267904 
Q 221.205988 34.138563 220.623952 34.203234 
Q 218.295808 34.203234 216.840719 36.321198 
Q 215.385629 38.439162 215.385629 40.799641 
Q 215.385629 42.254731 220.041916 42.254731 
Q 221.432335 42.254731 222.612575 40.912814 
Q 223.792814 39.570898 224.391018 37.905629 
Q 224.989222 36.240359 224.989222 34.882275 
Q 224.989222 33.556527 224.956886 33.297844 
L 224.892216 34.267904 
Q 224.892216 34.688263 224.892216 35.076287 
Q 225.183234 42.287066 224.85988 45.64994 
Q 223.760479 57.969701 215.676647 57.969701 
Q 214.221557 57.969701 213.251497 57.306826 
Q 212.281437 56.643952 212.281437 55.253533 
Q 212.216766 55.059521 212.249102 55.059521 
Q 212.281437 55.059521 212.378443 55.059521 
Q 212.475449 55.059521 212.475449 54.962515 
" clip-path="url(#p2c77b70993)" style="fill: none; stroke: #000000; stroke-linejoin: miter"/>
   </g>
  </g>
  <g id="axes_15">
   <g id="patch_14">
    <path d="M 240.51018 35.173293 
Q 240.283832 35.108623 239.426946 34.752934 
Q 238.57006 34.397246 237.988024 34.267904 
Q 237.405988 34.138563 236.823952 34.203234 
Q 234.495808 34.203234 233.040719 36.321198 
Q 231.585629 38.439162 231.585629 40.799641 
Q 231.585629 42.254731 236.241916 42.254731 
Q 237.632335 42.254731 238.812575 40.912814 
Q 239.992814 39.570898 240.591018 37.905629 
Q 241.189222 36.240359 241.189222 34.882275 
Q 241.189222 33.556527 241.156886 33.297844 
L 241.092216 34.267904 
Q 241.092216 34.688263 241.092216 35.076287 
Q 241.383234 42.287066 241.05988 45.64994 
Q 239.960479 57.969701 231.876647 57.969701 
Q 230.421557 57.969701 229.451497 57.306826 
Q 228.481437 56.643952 228.481437 55.253533 
Q 228.416766 55.059521 228.449102 55.059521 
Q 228.481437 55.059521 228.578443 55.059521 
Q 228.675449 55.059521 228.675449 54.962515 
" clip-path="url(#pa24536a591)" style="fill: none; stroke: #000000; stroke-linejoin: miter"/>
   </g>
  </g>
  <g id="axes_16">
   <g id="patch_15">
    <path d="M 247.33229 25.922731 
Q 248.007103 26.410097 249.412966 27.534786 
Q 250.818828 28.659476 250.931297 28.734455 
L 252.7308 29.859145 
M 251.60611 33.233214 
L 250.931297 33.233214 
Q 247.932124 33.233214 246.78869 35.032717 
Q 245.645255 36.832221 245.645255 40.093821 
Q 245.645255 41.480938 246.919903 42.624372 
Q 248.194552 43.767807 249.806607 44.348897 
Q 251.418662 44.929986 252.7308 44.929986 
Q 256.554745 44.929986 256.554745 38.969131 
Q 256.554745 37.769462 255.673738 36.682262 
Q 254.792731 35.595062 253.424359 34.470372 
Q 252.055986 33.345683 251.60611 32.783338 
L 250.931297 32.445931 
" clip-path="url(#pbd006d78fb)" style="fill: none; stroke: #000000; stroke-linejoin: miter"/>
   </g>
  </g>
  <g id="axes_17">
   <g id="patch_16">
    <path d="M 262.688772 35.145186 
Q 262.688772 35.145186 262.688772 35.595062 
Q 262.688772 36.269876 262.576303 37.619503 
Q 262.463834 38.969131 262.463834 39.643945 
Q 262.463834 41.930814 263.700993 43.599103 
Q 264.938152 45.267393 267.075062 45.267393 
Q 268.462179 45.154924 269.230717 43.917766 
Q 269.999255 42.680607 270.149214 41.237255 
Q 270.299172 39.793903 270.5616 37.9944 
Q 270.824028 36.194897 271.236414 35.370124 
Q 271.386372 35.070207 271.386372 35.670041 
Q 271.386372 36.269876 271.123945 38.706703 
Q 270.899007 41.031062 270.899007 41.555917 
Q 270.749048 42.643117 271.086455 43.767807 
Q 271.423862 44.892497 272.136166 45.6048 
" clip-path="url(#pa004d46c57)" style="fill: none; stroke: #000000; stroke-linejoin: miter"/>
   </g>
  </g>
  <g id="axes_18"/>
  <g id="axes_19">
   <g id="patch_17">
    <path d="M 294.863834 37.95691 
L 295.538648 37.95691 
Q 296.250952 37.95691 297.038234 37.881931 
Q 297.825517 37.806952 298.781503 37.675738 
Q 299.73749 37.544524 300.262345 37.507034 
L 304.536166 35.82 
M 300.487283 30.42149 
L 300.487283 31.43371 
Q 300.487283 33.383172 299.812469 37.207117 
Q 299.137655 41.031062 299.137655 43.018014 
Q 299.137655 43.805297 299.137655 44.105214 
Q 299.137655 44.405131 299.231379 45.042455 
Q 299.325103 45.679779 299.512552 45.960952 
Q 299.7 46.242124 300.093641 46.485807 
Q 300.487283 46.72949 301.049628 46.72949 
Q 301.162097 46.692 301.480759 46.72949 
Q 301.799421 46.766979 301.986869 46.710745 
Q 302.174317 46.65451 302.174317 46.392083 
" clip-path="url(#p6d9ac4b22a)" style="fill: none; stroke: #000000; stroke-linejoin: miter"/>
   </g>
  </g>
  <g id="axes_20">
   <g id="patch_18">
    <path d="M 311.682414 31.021324 
L 319.217834 31.358731 
M 318.055655 35.107697 
Q 318.018166 34.957738 317.437076 34.976483 
Q 316.855986 34.995228 316.818497 34.995228 
Q 313.931793 34.995228 312.844593 36.288621 
Q 311.757393 37.582014 311.757393 40.618676 
Q 311.757393 42.268221 312.919572 43.524124 
Q 314.081752 44.780028 315.806276 44.780028 
Q 317.380841 44.780028 318.618 43.599103 
Q 319.855159 42.418179 319.855159 40.843614 
Q 320.117586 39.04411 319.12411 37.319586 
Q 318.130634 35.595062 316.48109 34.882759 
" clip-path="url(#paa1845b9fb)" style="fill: none; stroke: #000000; stroke-linejoin: miter"/>
   </g>
  </g>
  <g id="axes_21">
   <g id="patch_19">
    <path d="M 327.263834 32.783338 
L 327.263834 33.345683 
Q 328.126097 39.718924 328.163586 47.066897 
Q 328.163586 47.81669 328.088607 47.029407 
Q 327.638731 42.080772 327.488772 35.82 
L 327.488772 35.145186 
Q 327.488772 33.6456 329.082083 33.008276 
Q 330.675393 32.370952 332.1 32.783338 
Q 333.637076 33.233214 334.611807 34.414138 
Q 335.586538 35.595062 335.961434 37.282097 
Q 336.336331 38.969131 336.467545 40.543697 
Q 336.598759 42.118262 336.673738 44.067724 
Q 336.748717 46.017186 336.936166 47.066897 
" clip-path="url(#p82dbfe28ca)" style="fill: none; stroke: #000000; stroke-linejoin: miter"/>
   </g>
  </g>
  <g id="axes_22">
   <g id="patch_20">
    <path d="M 353.91018 35.173293 
Q 353.683832 35.108623 352.826946 34.752934 
Q 351.97006 34.397246 351.388024 34.267904 
Q 350.805988 34.138563 350.223952 34.203234 
Q 347.895808 34.203234 346.440719 36.321198 
Q 344.985629 38.439162 344.985629 40.799641 
Q 344.985629 42.254731 349.641916 42.254731 
Q 351.032335 42.254731 352.212575 40.912814 
Q 353.392814 39.570898 353.991018 37.905629 
Q 354.589222 36.240359 354.589222 34.882275 
Q 354.589222 33.556527 354.556886 33.297844 
L 354.492216 34.267904 
Q 354.492216 34.688263 354.492216 35.076287 
Q 354.783234 42.287066 354.45988 45.64994 
Q 353.360479 57.969701 345.276647 57.969701 
Q 343.821557 57.969701 342.851497 57.306826 
Q 341.881437 56.643952 341.881437 55.253533 
Q 341.816766 55.059521 341.849102 55.059521 
Q 341.881437 55.059521 341.978443 55.059521 
Q 342.075449 55.059521 342.075449 54.962515 
" clip-path="url(#p6d618a34a1)" style="fill: none; stroke: #000000; stroke-linejoin: miter"/>
   </g>
  </g>
  <g id="axes_23">
   <g id="patch_21">
    <path d="M 370.11018 35.173293 
Q 369.883832 35.108623 369.026946 34.752934 
Q 368.17006 34.397246 367.588024 34.267904 
Q 367.005988 34.138563 366.423952 34.203234 
Q 364.095808 34.203234 362.640719 36.321198 
Q 361.185629 38.439162 361.185629 40.799641 
Q 361.185629 42.254731 365.841916 42.254731 
Q 367.232335 42.254731 368.412575 40.912814 
Q 369.592814 39.570898 370.191018 37.905629 
Q 370.789222 36.240359 370.789222 34.882275 
Q 370.789222 33.556527 370.756886 33.297844 
L 370.692216 34.267904 
Q 370.692216 34.688263 370.692216 35.076287 
Q 370.983234 42.287066 370.65988 45.64994 
Q 369.560479 57.969701 361.476647 57.969701 
Q 360.021557 57.969701 359.051497 57.306826 
Q 358.081437 56.643952 358.081437 55.253533 
Q 358.016766 55.059521 358.049102 55.059521 
Q 358.081437 55.059521 358.178443 55.059521 
Q 358.275449 55.059521 358.275449 54.962515 
" clip-path="url(#pb1da59a819)" style="fill: none; stroke: #000000; stroke-linejoin: miter"/>
   </g>
  </g>
  <g id="axes_24">
   <g id="patch_22">
    <path d="M 376.088772 35.145186 
Q 376.088772 35.145186 376.088772 35.595062 
Q 376.088772 36.269876 375.976303 37.619503 
Q 375.863834 38.969131 375.863834 39.643945 
Q 375.863834 41.930814 377.100993 43.599103 
Q 378.338152 45.267393 380.475062 45.267393 
Q 381.862179 45.154924 382.630717 43.917766 
Q 383.399255 42.680607 383.549214 41.237255 
Q 383.699172 39.793903 383.9616 37.9944 
Q 384.224028 36.194897 384.636414 35.370124 
Q 384.786372 35.070207 384.786372 35.670041 
Q 384.786372 36.269876 384.523945 38.706703 
Q 384.299007 41.031062 384.299007 41.555917 
Q 384.149048 42.643117 384.486455 43.767807 
Q 384.823862 44.892497 385.536166 45.6048 
" clip-path="url(#pb4e76c3719)" style="fill: none; stroke: #000000; stroke-linejoin: miter"/>
   </g>
  </g>
  <g id="axes_25">
   <g id="patch_23">
    <path d="M 393.13229 25.922731 
Q 393.807103 26.410097 395.212966 27.534786 
Q 396.618828 28.659476 396.731297 28.734455 
L 398.5308 29.859145 
M 397.40611 33.233214 
L 396.731297 33.233214 
Q 393.732124 33.233214 392.58869 35.032717 
Q 391.445255 36.832221 391.445255 40.093821 
Q 391.445255 41.480938 392.719903 42.624372 
Q 393.994552 43.767807 395.606607 44.348897 
Q 397.218662 44.929986 398.5308 44.929986 
Q 402.354745 44.929986 402.354745 38.969131 
Q 402.354745 37.769462 401.473738 36.682262 
Q 400.592731 35.595062 399.224359 34.470372 
Q 397.855986 33.345683 397.40611 32.783338 
L 396.731297 32.445931 
" clip-path="url(#p24b976209a)" style="fill: none; stroke: #000000; stroke-linejoin: miter"/>
   </g>
  </g>
  <g id="axes_26"/>
  <g id="axes_27">
   <g id="patch_24">
    <path d="M 424.857476 43.917766 
Q 425.157393 44.180193 426.169614 45.154924 
Q 427.181834 46.129655 427.744179 46.560786 
Q 428.306524 46.991917 429.33749 47.385559 
Q 430.368455 47.7792 431.380676 47.629241 
Q 432.05549 47.629241 432.52411 47.404303 
Q 432.992731 47.179366 433.217669 46.879448 
Q 433.442607 46.579531 433.573821 45.979697 
Q 433.705034 45.379862 433.723779 44.967476 
Q 433.742524 44.55509 433.742524 43.805297 
Q 433.742524 42.718097 432.842772 42.043283 
Q 431.943021 41.368469 430.649628 41.031062 
Q 429.356234 40.693655 428.062841 40.300014 
Q 426.769448 39.906372 425.869697 38.987876 
Q 424.969945 38.069379 424.969945 36.607283 
Q 424.969945 36.082428 425.138648 35.726276 
Q 425.307352 35.370124 425.700993 35.145186 
Q 426.094634 34.920248 426.375807 34.807779 
Q 426.656979 34.69531 427.313048 34.639076 
Q 427.969117 34.582841 428.156566 34.582841 
Q 428.344014 34.582841 429.018828 34.582841 
Q 430.218497 34.582841 430.799586 34.995228 
Q 431.380676 35.407614 431.699338 36.026193 
Q 432.018 36.644772 432.280428 36.832221 
" clip-path="url(#p89bd804425)" style="fill: none; stroke: #000000; stroke-linejoin: miter"/>
   </g>
  </g>
  <g id="axes_28">
   <g id="patch_25">
    <path d="M 442.013462 35.932469 
Q 442.613297 35.257655 443.606772 34.826524 
Q 444.600248 34.395393 445.5 34.470372 
Q 446.137324 34.470372 446.62469 34.639076 
Q 447.112055 34.807779 447.430717 34.995228 
Q 447.749379 35.182676 447.974317 35.670041 
Q 448.199255 36.157407 448.311724 36.419834 
Q 448.424193 36.682262 448.480428 37.375821 
Q 448.536662 38.069379 448.555407 38.331807 
Q 448.574152 38.594234 448.555407 39.419007 
Q 448.536662 40.243779 448.536662 40.431228 
Q 448.536662 41.368469 448.367959 43.242952 
Q 448.199255 45.117434 448.199255 46.054676 
Q 448.199255 46.467062 448.25549 46.823214 
Q 448.311724 47.179366 448.405448 47.610497 
Q 448.499172 48.041628 448.536662 48.304055 
L 448.986538 48.528993 
M 442.463338 23.111007 
Q 442.688276 24.798041 442.688276 29.971614 
L 442.688276 42.3432 
L 442.350869 46.841959 
L 442.125931 47.74171 
" clip-path="url(#p619cdff0bc)" style="fill: none; stroke: #000000; stroke-linejoin: miter"/>
   </g>
  </g>
  <g id="axes_29">
   <g id="patch_26">
    <path d="M 459.675559 33.68309 
Q 460.125434 33.270703 461.606276 32.183503 
Q 463.087117 31.096303 463.724441 30.309021 
M 460.012966 36.157407 
Q 459.975476 36.269876 459.994221 37.338331 
Q 460.012966 38.406786 460.012966 38.519255 
Q 460.012966 39.643945 460.275393 40.693655 
Q 460.537821 41.743366 460.968952 43.018014 
Q 461.400083 44.292662 461.587531 45.042455 
L 462.037407 45.492331 
" clip-path="url(#pd1d28b919c)" style="fill: none; stroke: #000000; stroke-linejoin: miter"/>
   </g>
  </g>
  <g id="axes_30">
   <g id="patch_27">
    <path d="M 472.763917 36.382345 
Q 472.726428 36.494814 472.857641 36.701007 
Q 472.988855 36.9072 472.876386 37.057159 
L 472.876386 39.306538 
Q 472.876386 40.506207 473.213793 41.724621 
Q 473.5512 42.943034 474.413462 43.93651 
Q 475.275724 44.929986 476.475393 44.929986 
Q 477.712552 44.929986 478.387366 43.861531 
Q 479.062179 42.793076 479.512055 41.143531 
Q 479.961931 39.493986 480.299338 38.969131 
L 481.086621 36.382345 
L 480.861683 42.680607 
L 480.861683 45.154924 
Q 480.861683 47.066897 481.592731 51.00331 
Q 482.323779 54.939724 482.323779 56.964166 
Q 483.073572 59.213545 481.986372 60.188276 
Q 480.899172 61.163007 478.837241 60.78811 
Q 477.037738 60.488193 476.119241 60.169531 
Q 475.200745 59.850869 473.213793 58.988607 
L 473.101324 58.426262 
" clip-path="url(#p9a9bd7784a)" style="fill: none; stroke: #000000; stroke-linejoin: miter"/>
   </g>
  </g>
  <g id="axes_31">
   <g id="patch_28">
    <path d="M 490.613462 28.284579 
Q 491.588193 28.771945 492.881586 30.327766 
Q 494.174979 31.883586 494.662345 32.333462 
L 495.337159 33.008276 
M 498.373821 35.932469 
Q 497.061683 35.445103 496.011972 35.482593 
Q 495.749545 35.482593 494.849793 35.501338 
Q 493.950041 35.520083 493.51891 35.538828 
Q 493.087779 35.557572 492.225517 35.670041 
Q 491.363255 35.78251 490.894634 35.913724 
Q 490.426014 36.044938 489.78869 36.344855 
Q 489.151366 36.644772 488.832703 37.038414 
Q 488.514041 37.432055 488.270359 38.050634 
Q 488.026676 38.669214 488.026676 39.419007 
Q 488.026676 41.330979 489.638731 42.84931 
Q 491.250786 44.367641 493.200248 44.367641 
Q 494.549876 44.367641 495.412138 43.824041 
Q 496.2744 43.280441 496.686786 42.3432 
Q 497.099172 41.405959 497.32411 40.412483 
Q 497.549048 39.419007 497.886455 38.256828 
Q 498.223862 37.094648 498.711228 36.382345 
L 499.161103 42.3432 
L 500.173324 45.492331 
" clip-path="url(#p5030df35fd)" style="fill: none; stroke: #000000; stroke-linejoin: miter"/>
   </g>
  </g>
  <g id="axes_32">
   <g id="patch_29">
    <path d="M 505.463834 32.783338 
L 505.463834 33.345683 
Q 506.326097 39.718924 506.363586 47.066897 
Q 506.363586 47.81669 506.288607 47.029407 
Q 505.838731 42.080772 505.688772 35.82 
L 505.688772 35.145186 
Q 505.688772 33.6456 507.282083 33.008276 
Q 508.875393 32.370952 510.3 32.783338 
Q 511.837076 33.233214 512.811807 34.414138 
Q 513.786538 35.595062 514.161434 37.282097 
Q 514.536331 38.969131 514.667545 40.543697 
Q 514.798759 42.118262 514.873738 44.067724 
Q 514.948717 46.017186 515.136166 47.066897 
" clip-path="url(#p56d59733d3)" style="fill: none; stroke: #000000; stroke-linejoin: miter"/>
   </g>
  </g>
  <g id="axes_33">
   <g id="patch_30">
    <path d="M 525.787697 39.981352 
Q 526.799917 40.956083 527.137324 42.905545 
Q 527.324772 43.955255 526.912386 46.167145 
L 525.675228 47.629241 
" clip-path="url(#pe115977639)" style="fill: none; stroke: #000000; stroke-linejoin: miter"/>
   </g>
  </g>
 </g>
 <defs>
  <clipPath id="p22cc89a71d">
   <rect x="0" y="20.054899" width="16.2" height="31.530201"/>
  </clipPath>
  <clipPath id="pd2fad6c899">
   <rect x="16.2" y="9.066014" width="16.2" height="53.507973"/>
  </clipPath>
  <clipPath id="p4cae76ef5e">
   <rect x="49.651945" y="8.64" width="14.09611" height="54.36"/>
  </clipPath>
  <clipPath id="pe1cf327fdb">
   <rect x="67.482745" y="8.64" width="10.83451" height="54.36"/>
  </clipPath>
  <clipPath id="pf25c171757">
   <rect x="81" y="10.936525" width="16.2" height="49.766949"/>
  </clipPath>
  <clipPath id="p50e0891e77">
   <rect x="97.352193" y="8.64" width="15.895614" height="54.36"/>
  </clipPath>
  <clipPath id="p21c8904e4f">
   <rect x="114.789352" y="8.64" width="13.421297" height="54.36"/>
  </clipPath>
  <clipPath id="p324a2d2cfa">
   <rect x="129.6" y="12.376886" width="16.2" height="46.886228"/>
  </clipPath>
  <clipPath id="p31ebf2f444">
   <rect x="163.389352" y="8.64" width="13.421297" height="54.36"/>
  </clipPath>
  <clipPath id="p448939314e">
   <rect x="180.264166" y="8.64" width="12.071669" height="54.36"/>
  </clipPath>
  <clipPath id="pec478d4ce5">
   <rect x="195.789352" y="8.64" width="13.421297" height="54.36"/>
  </clipPath>
  <clipPath id="p2c77b70993">
   <rect x="210.6" y="12.376886" width="16.2" height="46.886228"/>
  </clipPath>
  <clipPath id="pa24536a591">
   <rect x="226.8" y="12.376886" width="16.2" height="46.886228"/>
  </clipPath>
  <clipPath id="pbd006d78fb">
   <rect x="243.770772" y="8.64" width="14.658455" height="54.36"/>
  </clipPath>
  <clipPath id="pa004d46c57">
   <rect x="260.589352" y="8.64" width="13.421297" height="54.36"/>
  </clipPath>
  <clipPath id="p6d9ac4b22a">
   <rect x="292.989352" y="8.64" width="13.421297" height="54.36"/>
  </clipPath>
  <clipPath id="paa1845b9fb">
   <rect x="309.807931" y="8.64" width="12.184138" height="54.36"/>
  </clipPath>
  <clipPath id="p82dbfe28ca">
   <rect x="325.389352" y="8.64" width="13.421297" height="54.36"/>
  </clipPath>
  <clipPath id="p6d618a34a1">
   <rect x="340.2" y="12.376886" width="16.2" height="46.886228"/>
  </clipPath>
  <clipPath id="pb1da59a819">
   <rect x="356.4" y="12.376886" width="16.2" height="46.886228"/>
  </clipPath>
  <clipPath id="pb4e76c3719">
   <rect x="373.989352" y="8.64" width="13.421297" height="54.36"/>
  </clipPath>
  <clipPath id="p24b976209a">
   <rect x="389.570772" y="8.64" width="14.658455" height="54.36"/>
  </clipPath>
  <clipPath id="p89bd804425">
   <rect x="422.982993" y="8.64" width="12.634014" height="54.36"/>
  </clipPath>
  <clipPath id="p619cdff0bc">
   <rect x="440.138979" y="8.64" width="10.722041" height="54.36"/>
  </clipPath>
  <clipPath id="pd1d28b919c">
   <rect x="457.801076" y="8.64" width="7.797848" height="54.36"/>
  </clipPath>
  <clipPath id="p9a9bd7784a">
   <rect x="470.851945" y="8.64" width="14.09611" height="54.36"/>
  </clipPath>
  <clipPath id="p5030df35fd">
   <rect x="486.152193" y="8.64" width="15.895614" height="54.36"/>
  </clipPath>
  <clipPath id="p56d59733d3">
   <rect x="503.589352" y="8.64" width="13.421297" height="54.36"/>
  </clipPath>
  <clipPath id="pe115977639">
   <rect x="523.800745" y="8.64" width="5.39851" height="54.36"/>
  </clipPath>
 </defs>
</svg>
