<?xml version="1.0" encoding="utf-8" standalone="no"?>
<!DOCTYPE svg PUBLIC "-//W3C//DTD SVG 1.1//EN"
  "http://www.w3.org/Graphics/SVG/1.1/DTD/svg11.dtd">
<svg xmlns:xlink="http://www.w3.org/1999/xlink" width="540pt" height="72pt" viewBox="0 0 540 72" xmlns="http://www.w3.org/2000/svg" version="1.1">
 <metadata>
  <rdf:RDF xmlns:dc="http://purl.org/dc/elements/1.1/" xmlns:cc="http://creativecommons.org/ns#" xmlns:rdf="http://www.w3.org/1999/02/22-rdf-syntax-ns#">
   <cc:Work>
    <dc:type rdf:resource="http://purl.org/dc/dcmitype/StillImage"/>
    <dc:date>2023-01-28T14:26:04.477438</dc:date>
    <dc:format>image/svg+xml</dc:format>
    <dc:creator>
     <cc:Agent>
      <dc:title>Matplotlib v3.6.1, https://matplotlib.org/</dc:title>
     </cc:Agent>
    </dc:creator>
   </cc:Work>
  </rdf:RDF>
 </metadata>
 <defs>
  <style type="text/css">*{stroke-linejoin: round; stroke-linecap: butt}</style>
 </defs>
 <g id="figure_1">
  <g id="patch_1">
   <path d="M 0 72 
L 540 72 
L 540 0 
L 0 0 
z
" style="fill: #8fff9f"/>
  </g>
  <g id="axes_1">
   <g id="patch_2">
    <path d="M 11.699007 39.568966 
Q 10.349379 38.181848 8.1 38.444276 
Q 5.250786 38.444276 4.088607 39.793903 
Q 2.926428 41.143531 2.926428 44.067724 
Q 2.926428 45.56731 4.219821 46.279614 
Q 5.513214 46.991917 7.087779 46.991917 
Q 8.399917 46.991917 9.412138 45.736014 
Q 10.424359 44.48011 11.005448 42.30571 
Q 11.586538 40.13131 11.961434 37.938166 
Q 12.336331 35.745021 12.48629 33.045766 
Q 12.636248 30.34651 12.673738 28.978138 
Q 12.711228 27.609766 12.711228 26.185159 
Q 12.48629 26.260138 12.48629 29.896634 
L 12.48629 44.292662 
L 13.273572 48.229076 
" clip-path="url(#pa5e7e8eebd)" style="fill: none; stroke: #000000; stroke-linejoin: miter"/>
   </g>
  </g>
  <g id="axes_2">
   <g id="patch_3">
    <path d="M 18.057798 38.160826 
Q 21.030275 39.535596 25.749083 39.721376 
Q 27.272477 39.721376 27.959862 38.550963 
Q 28.647248 37.38055 28.647248 35.82 
Q 28.647248 35.299817 28.554358 34.909679 
Q 28.461468 34.519541 28.219954 34.296606 
Q 27.97844 34.07367 27.811239 33.943624 
Q 27.644037 33.813578 27.198165 33.757844 
Q 26.752294 33.70211 26.547936 33.683532 
Q 26.343578 33.664954 25.767661 33.683532 
Q 25.191743 33.70211 24.968807 33.70211 
Q 22.925229 33.70211 21.438991 35.578486 
Q 19.952752 37.454862 19.952752 39.609908 
Q 19.952752 42.619541 21.884862 44.570229 
Q 23.816972 46.520917 26.863761 46.520917 
Q 29.018807 46.818165 30.542202 44.29156 
" clip-path="url(#p53d30cbb5d)" style="fill: none; stroke: #000000; stroke-linejoin: miter"/>
   </g>
  </g>
  <g id="axes_3"/>
  <g id="axes_4">
   <g id="patch_4">
    <path d="M 57.056152 30.309021 
Q 56.568786 30.42149 56.981172 30.833876 
Q 57.356069 31.208772 57.431048 30.946345 
Q 57.468538 30.871366 57.393559 30.646428 
Q 57.393559 30.458979 57.318579 30.42149 
Q 57.2436 30.384 57.112386 30.42149 
Q 56.981172 30.458979 56.831214 30.42149 
L 56.718745 30.646428 
M 57.618497 33.345683 
Q 58.668207 37.731972 59.193062 40.13131 
Q 59.717917 42.530648 60.167793 46.317103 
Q 60.617669 50.103559 60.430221 53.25269 
Q 60.430221 53.440138 60.430221 54.021228 
Q 60.430221 54.602317 60.430221 54.902234 
Q 60.430221 55.202152 60.411476 55.783241 
Q 60.392731 56.364331 60.317752 56.701738 
Q 60.242772 57.039145 60.130303 57.52651 
Q 60.017834 58.013876 59.811641 58.313793 
Q 59.605448 58.61371 59.343021 58.894883 
Q 59.080593 59.176055 58.705697 59.307269 
Q 58.3308 59.438483 57.843434 59.438483 
Q 56.868703 59.438483 56.11891 59.251034 
Q 55.369117 59.063586 54.506855 58.707434 
Q 53.644593 58.351283 53.007269 58.201324 
L 52.782331 57.751448 
" clip-path="url(#pfaf9bfb564)" style="fill: none; stroke: #000000; stroke-linejoin: miter"/>
   </g>
  </g>
  <g id="axes_5">
   <g id="patch_5">
    <path d="M 70.613131 30.384 
L 73.874731 34.657821 
M 73.537324 37.019669 
L 73.274897 41.743366 
Q 73.387366 42.268221 73.518579 43.749062 
Q 73.649793 45.229903 73.9872 46.1484 
Q 74.324607 47.066897 75.186869 47.591752 
" clip-path="url(#p818451f3b8)" style="fill: none; stroke: #000000; stroke-linejoin: miter"/>
   </g>
  </g>
  <g id="axes_6">
   <g id="patch_6">
    <path d="M 84.263834 32.783338 
L 84.263834 33.345683 
Q 85.126097 39.718924 85.163586 47.066897 
Q 85.163586 47.81669 85.088607 47.029407 
Q 84.638731 42.080772 84.488772 35.82 
L 84.488772 35.145186 
Q 84.488772 33.6456 86.082083 33.008276 
Q 87.675393 32.370952 89.1 32.783338 
Q 90.637076 33.233214 91.611807 34.414138 
Q 92.586538 35.595062 92.961434 37.282097 
Q 93.336331 38.969131 93.467545 40.543697 
Q 93.598759 42.118262 93.673738 44.067724 
Q 93.748717 46.017186 93.936166 47.066897 
" clip-path="url(#pea0efc9230)" style="fill: none; stroke: #000000; stroke-linejoin: miter"/>
   </g>
  </g>
  <g id="axes_7">
   <g id="patch_7">
    <path d="M 108.899007 34.920248 
Q 108.036745 36.007448 104.925103 40.018841 
Q 101.813462 44.030234 100.126428 46.054676 
M 101.026179 36.044938 
Q 102.900662 37.319586 105.393724 40.843614 
Q 107.886786 44.367641 109.461352 45.6048 
L 110.473572 45.942207 
" clip-path="url(#pcff8c5523e)" style="fill: none; stroke: #000000; stroke-linejoin: miter"/>
   </g>
  </g>
  <g id="axes_8">
   <g id="patch_8">
    <path d="M 119.475559 35.557572 
Q 119.925434 35.145186 121.406276 34.057986 
Q 122.887117 32.970786 123.524441 32.183503 
M 119.812966 38.03189 
Q 119.775476 38.144359 119.794221 39.212814 
Q 119.812966 40.281269 119.812966 40.393738 
Q 119.812966 41.518428 120.075393 42.568138 
Q 120.337821 43.617848 120.768952 44.892497 
Q 121.200083 46.167145 121.387531 46.916938 
L 121.837407 47.366814 
" clip-path="url(#p1d4bef96c8)" style="fill: none; stroke: #000000; stroke-linejoin: miter"/>
   </g>
  </g>
  <g id="axes_9">
   <g id="patch_9">
    <path d="M 132.863834 32.783338 
L 132.863834 33.345683 
Q 133.726097 39.718924 133.763586 47.066897 
Q 133.763586 47.81669 133.688607 47.029407 
Q 133.238731 42.080772 133.088772 35.82 
L 133.088772 35.145186 
Q 133.088772 33.6456 134.682083 33.008276 
Q 136.275393 32.370952 137.7 32.783338 
Q 139.237076 33.233214 140.211807 34.414138 
Q 141.186538 35.595062 141.561434 37.282097 
Q 141.936331 38.969131 142.067545 40.543697 
Q 142.198759 42.118262 142.273738 44.067724 
Q 142.348717 46.017186 142.536166 47.066897 
" clip-path="url(#p1afaffb0b3)" style="fill: none; stroke: #000000; stroke-linejoin: miter"/>
   </g>
  </g>
  <g id="axes_10">
   <g id="patch_10">
    <path d="M 159.51018 35.173293 
Q 159.283832 35.108623 158.426946 34.752934 
Q 157.57006 34.397246 156.988024 34.267904 
Q 156.405988 34.138563 155.823952 34.203234 
Q 153.495808 34.203234 152.040719 36.321198 
Q 150.585629 38.439162 150.585629 40.799641 
Q 150.585629 42.254731 155.241916 42.254731 
Q 156.632335 42.254731 157.812575 40.912814 
Q 158.992814 39.570898 159.591018 37.905629 
Q 160.189222 36.240359 160.189222 34.882275 
Q 160.189222 33.556527 160.156886 33.297844 
L 160.092216 34.267904 
Q 160.092216 34.688263 160.092216 35.076287 
Q 160.383234 42.287066 160.05988 45.64994 
Q 158.960479 57.969701 150.876647 57.969701 
Q 149.421557 57.969701 148.451497 57.306826 
Q 147.481437 56.643952 147.481437 55.253533 
Q 147.416766 55.059521 147.449102 55.059521 
Q 147.481437 55.059521 147.578443 55.059521 
Q 147.675449 55.059521 147.675449 54.962515 
" clip-path="url(#p33ecf83ff9)" style="fill: none; stroke: #000000; stroke-linejoin: miter"/>
   </g>
  </g>
  <g id="axes_11">
   <g id="patch_11">
    <path d="M 165.2076 35.032717 
Q 165.2076 35.032717 168.581669 35.032717 
Q 168.694138 35.032717 170.437407 34.826524 
Q 172.180676 34.620331 173.192897 34.789034 
Q 174.205117 34.957738 174.205117 35.707531 
Q 174.205117 36.86971 173.192897 38.144359 
Q 172.180676 39.419007 170.718579 40.506207 
Q 169.256483 41.593407 167.794386 42.605628 
Q 166.33229 43.617848 165.320069 44.573834 
Q 164.307848 45.529821 164.307848 46.279614 
L 165.432538 46.279614 
Q 165.470028 46.279614 167.681917 46.054676 
L 175.892152 45.942207 
" clip-path="url(#p91f169696d)" style="fill: none; stroke: #000000; stroke-linejoin: miter"/>
   </g>
  </g>
  <g id="axes_12">
   <g id="patch_12">
    <path d="M 182.813462 35.932469 
Q 183.413297 35.257655 184.406772 34.826524 
Q 185.400248 34.395393 186.3 34.470372 
Q 186.937324 34.470372 187.42469 34.639076 
Q 187.912055 34.807779 188.230717 34.995228 
Q 188.549379 35.182676 188.774317 35.670041 
Q 188.999255 36.157407 189.111724 36.419834 
Q 189.224193 36.682262 189.280428 37.375821 
Q 189.336662 38.069379 189.355407 38.331807 
Q 189.374152 38.594234 189.355407 39.419007 
Q 189.336662 40.243779 189.336662 40.431228 
Q 189.336662 41.368469 189.167959 43.242952 
Q 188.999255 45.117434 188.999255 46.054676 
Q 188.999255 46.467062 189.05549 46.823214 
Q 189.111724 47.179366 189.205448 47.610497 
Q 189.299172 48.041628 189.336662 48.304055 
L 189.786538 48.528993 
M 183.263338 23.111007 
Q 183.488276 24.798041 183.488276 29.971614 
L 183.488276 42.3432 
L 183.150869 46.841959 
L 182.925931 47.74171 
" clip-path="url(#p20a72699ea)" style="fill: none; stroke: #000000; stroke-linejoin: miter"/>
   </g>
  </g>
  <g id="axes_13">
   <g id="patch_13">
    <path d="M 196.257798 38.160826 
Q 199.230275 39.535596 203.949083 39.721376 
Q 205.472477 39.721376 206.159862 38.550963 
Q 206.847248 37.38055 206.847248 35.82 
Q 206.847248 35.299817 206.754358 34.909679 
Q 206.661468 34.519541 206.419954 34.296606 
Q 206.17844 34.07367 206.011239 33.943624 
Q 205.844037 33.813578 205.398165 33.757844 
Q 204.952294 33.70211 204.747936 33.683532 
Q 204.543578 33.664954 203.967661 33.683532 
Q 203.391743 33.70211 203.168807 33.70211 
Q 201.125229 33.70211 199.638991 35.578486 
Q 198.152752 37.454862 198.152752 39.609908 
Q 198.152752 42.619541 200.084862 44.570229 
Q 202.016972 46.520917 205.063761 46.520917 
Q 207.218807 46.818165 208.742202 44.29156 
" clip-path="url(#p7f926c83b2)" style="fill: none; stroke: #000000; stroke-linejoin: miter"/>
   </g>
  </g>
  <g id="axes_14"/>
  <g id="axes_15">
   <g id="patch_14">
    <path d="M 240.51018 35.173293 
Q 240.283832 35.108623 239.426946 34.752934 
Q 238.57006 34.397246 237.988024 34.267904 
Q 237.405988 34.138563 236.823952 34.203234 
Q 234.495808 34.203234 233.040719 36.321198 
Q 231.585629 38.439162 231.585629 40.799641 
Q 231.585629 42.254731 236.241916 42.254731 
Q 237.632335 42.254731 238.812575 40.912814 
Q 239.992814 39.570898 240.591018 37.905629 
Q 241.189222 36.240359 241.189222 34.882275 
Q 241.189222 33.556527 241.156886 33.297844 
L 241.092216 34.267904 
Q 241.092216 34.688263 241.092216 35.076287 
Q 241.383234 42.287066 241.05988 45.64994 
Q 239.960479 57.969701 231.876647 57.969701 
Q 230.421557 57.969701 229.451497 57.306826 
Q 228.481437 56.643952 228.481437 55.253533 
Q 228.416766 55.059521 228.449102 55.059521 
Q 228.481437 55.059521 228.578443 55.059521 
Q 228.675449 55.059521 228.675449 54.962515 
" clip-path="url(#pc02a5635dc)" style="fill: none; stroke: #000000; stroke-linejoin: miter"/>
   </g>
  </g>
  <g id="axes_16">
   <g id="patch_15">
    <path d="M 249.113048 29.671697 
Q 249.97531 30.271531 250.800083 31.171283 
Q 251.624855 32.071034 252.580841 33.270703 
Q 253.536828 34.470372 254.061683 35.070207 
M 247.950869 41.705876 
L 248.175807 41.705876 
Q 248.438234 41.668386 248.96309 41.76211 
Q 249.487945 41.855834 249.750372 41.818345 
Q 250.350207 41.743366 250.931297 41.780855 
Q 251.512386 41.818345 252.074731 41.743366 
Q 252.637076 41.668386 253.068207 41.443448 
Q 253.499338 41.21851 253.761766 40.637421 
Q 254.024193 40.056331 254.024193 39.11909 
Q 253.911724 37.881931 252.993228 37.319586 
Q 252.074731 36.757241 250.875062 36.86971 
Q 249.525434 36.982179 248.625683 37.9944 
Q 247.725931 39.006621 247.725931 40.356248 
Q 247.725931 48.82891 254.474069 46.766979 
" clip-path="url(#pbccf6bc0ff)" style="fill: none; stroke: #000000; stroke-linejoin: miter"/>
   </g>
  </g>
  <g id="axes_17"/>
  <g id="axes_18">
   <g id="patch_16">
    <path d="M 278.6076 35.032717 
Q 278.6076 35.032717 281.981669 35.032717 
Q 282.094138 35.032717 283.837407 34.826524 
Q 285.580676 34.620331 286.592897 34.789034 
Q 287.605117 34.957738 287.605117 35.707531 
Q 287.605117 36.86971 286.592897 38.144359 
Q 285.580676 39.419007 284.118579 40.506207 
Q 282.656483 41.593407 281.194386 42.605628 
Q 279.73229 43.617848 278.720069 44.573834 
Q 277.707848 45.529821 277.707848 46.279614 
L 278.832538 46.279614 
Q 278.870028 46.279614 281.081917 46.054676 
L 289.292152 45.942207 
" clip-path="url(#p38e5be39b7)" style="fill: none; stroke: #000000; stroke-linejoin: miter"/>
   </g>
  </g>
  <g id="axes_19">
   <g id="patch_17">
    <path d="M 296.213462 35.932469 
Q 296.813297 35.257655 297.806772 34.826524 
Q 298.800248 34.395393 299.7 34.470372 
Q 300.337324 34.470372 300.82469 34.639076 
Q 301.312055 34.807779 301.630717 34.995228 
Q 301.949379 35.182676 302.174317 35.670041 
Q 302.399255 36.157407 302.511724 36.419834 
Q 302.624193 36.682262 302.680428 37.375821 
Q 302.736662 38.069379 302.755407 38.331807 
Q 302.774152 38.594234 302.755407 39.419007 
Q 302.736662 40.243779 302.736662 40.431228 
Q 302.736662 41.368469 302.567959 43.242952 
Q 302.399255 45.117434 302.399255 46.054676 
Q 302.399255 46.467062 302.45549 46.823214 
Q 302.511724 47.179366 302.605448 47.610497 
Q 302.699172 48.041628 302.736662 48.304055 
L 303.186538 48.528993 
M 296.663338 23.111007 
Q 296.888276 24.798041 296.888276 29.971614 
L 296.888276 42.3432 
L 296.550869 46.841959 
L 296.325931 47.74171 
" clip-path="url(#p94f27cfabb)" style="fill: none; stroke: #000000; stroke-linejoin: miter"/>
   </g>
  </g>
  <g id="axes_20">
   <g id="patch_18">
    <path d="M 311.232538 32.220993 
Q 313.107021 36.119917 315.843766 36.044938 
Q 316.256152 36.082428 316.612303 35.85749 
Q 316.968455 35.632552 317.174648 35.370124 
Q 317.380841 35.107697 317.549545 34.601586 
Q 317.718248 34.095476 317.793228 33.814303 
Q 317.868207 33.533131 317.980676 32.970786 
Q 318.093145 32.408441 318.093145 32.333462 
M 318.618 38.519255 
Q 317.455821 38.144359 315.018993 38.181848 
Q 312.919572 38.181848 311.607434 39.344028 
Q 310.295297 40.506207 310.295297 42.568138 
Q 310.295297 45.117434 312.357228 46.766979 
Q 314.419159 48.416524 317.043434 48.416524 
Q 318.955407 48.416524 320.023862 47.291834 
Q 321.092317 46.167145 321.092317 44.255172 
Q 321.504703 42.155752 320.342524 40.318759 
Q 319.180345 38.481766 317.155903 37.844441 
" clip-path="url(#p7037072bd5)" style="fill: none; stroke: #000000; stroke-linejoin: miter"/>
   </g>
  </g>
  <g id="axes_21">
   <g id="patch_19">
    <path d="M 327.263834 32.783338 
L 327.263834 33.345683 
Q 328.126097 39.718924 328.163586 47.066897 
Q 328.163586 47.81669 328.088607 47.029407 
Q 327.638731 42.080772 327.488772 35.82 
L 327.488772 35.145186 
Q 327.488772 33.6456 329.082083 33.008276 
Q 330.675393 32.370952 332.1 32.783338 
Q 333.637076 33.233214 334.611807 34.414138 
Q 335.586538 35.595062 335.961434 37.282097 
Q 336.336331 38.969131 336.467545 40.543697 
Q 336.598759 42.118262 336.673738 44.067724 
Q 336.748717 46.017186 336.936166 47.066897 
" clip-path="url(#p9a2dc8beb8)" style="fill: none; stroke: #000000; stroke-linejoin: miter"/>
   </g>
  </g>
  <g id="axes_22">
   <g id="patch_20">
    <path d="M 353.91018 35.173293 
Q 353.683832 35.108623 352.826946 34.752934 
Q 351.97006 34.397246 351.388024 34.267904 
Q 350.805988 34.138563 350.223952 34.203234 
Q 347.895808 34.203234 346.440719 36.321198 
Q 344.985629 38.439162 344.985629 40.799641 
Q 344.985629 42.254731 349.641916 42.254731 
Q 351.032335 42.254731 352.212575 40.912814 
Q 353.392814 39.570898 353.991018 37.905629 
Q 354.589222 36.240359 354.589222 34.882275 
Q 354.589222 33.556527 354.556886 33.297844 
L 354.492216 34.267904 
Q 354.492216 34.688263 354.492216 35.076287 
Q 354.783234 42.287066 354.45988 45.64994 
Q 353.360479 57.969701 345.276647 57.969701 
Q 343.821557 57.969701 342.851497 57.306826 
Q 341.881437 56.643952 341.881437 55.253533 
Q 341.816766 55.059521 341.849102 55.059521 
Q 341.881437 55.059521 341.978443 55.059521 
Q 342.075449 55.059521 342.075449 54.962515 
" clip-path="url(#p4df8cb31db)" style="fill: none; stroke: #000000; stroke-linejoin: miter"/>
   </g>
  </g>
  <g id="axes_23"/>
  <g id="axes_24">
   <g id="patch_21">
    <path d="M 376.257476 43.917766 
Q 376.557393 44.180193 377.569614 45.154924 
Q 378.581834 46.129655 379.144179 46.560786 
Q 379.706524 46.991917 380.73749 47.385559 
Q 381.768455 47.7792 382.780676 47.629241 
Q 383.45549 47.629241 383.92411 47.404303 
Q 384.392731 47.179366 384.617669 46.879448 
Q 384.842607 46.579531 384.973821 45.979697 
Q 385.105034 45.379862 385.123779 44.967476 
Q 385.142524 44.55509 385.142524 43.805297 
Q 385.142524 42.718097 384.242772 42.043283 
Q 383.343021 41.368469 382.049628 41.031062 
Q 380.756234 40.693655 379.462841 40.300014 
Q 378.169448 39.906372 377.269697 38.987876 
Q 376.369945 38.069379 376.369945 36.607283 
Q 376.369945 36.082428 376.538648 35.726276 
Q 376.707352 35.370124 377.100993 35.145186 
Q 377.494634 34.920248 377.775807 34.807779 
Q 378.056979 34.69531 378.713048 34.639076 
Q 379.369117 34.582841 379.556566 34.582841 
Q 379.744014 34.582841 380.418828 34.582841 
Q 381.618497 34.582841 382.199586 34.995228 
Q 382.780676 35.407614 383.099338 36.026193 
Q 383.418 36.644772 383.680428 36.832221 
" clip-path="url(#p2095fe5200)" style="fill: none; stroke: #000000; stroke-linejoin: miter"/>
   </g>
  </g>
  <g id="axes_25">
   <g id="patch_22">
    <path d="M 393.413462 35.932469 
Q 394.013297 35.257655 395.006772 34.826524 
Q 396.000248 34.395393 396.9 34.470372 
Q 397.537324 34.470372 398.02469 34.639076 
Q 398.512055 34.807779 398.830717 34.995228 
Q 399.149379 35.182676 399.374317 35.670041 
Q 399.599255 36.157407 399.711724 36.419834 
Q 399.824193 36.682262 399.880428 37.375821 
Q 399.936662 38.069379 399.955407 38.331807 
Q 399.974152 38.594234 399.955407 39.419007 
Q 399.936662 40.243779 399.936662 40.431228 
Q 399.936662 41.368469 399.767959 43.242952 
Q 399.599255 45.117434 399.599255 46.054676 
Q 399.599255 46.467062 399.65549 46.823214 
Q 399.711724 47.179366 399.805448 47.610497 
Q 399.899172 48.041628 399.936662 48.304055 
L 400.386538 48.528993 
M 393.863338 23.111007 
Q 394.088276 24.798041 394.088276 29.971614 
L 394.088276 42.3432 
L 393.750869 46.841959 
L 393.525931 47.74171 
" clip-path="url(#p5912250beb)" style="fill: none; stroke: #000000; stroke-linejoin: miter"/>
   </g>
  </g>
  <g id="axes_26">
   <g id="patch_23">
    <path d="M 411.075559 35.557572 
Q 411.525434 35.145186 413.006276 34.057986 
Q 414.487117 32.970786 415.124441 32.183503 
M 411.412966 38.03189 
Q 411.375476 38.144359 411.394221 39.212814 
Q 411.412966 40.281269 411.412966 40.393738 
Q 411.412966 41.518428 411.675393 42.568138 
Q 411.937821 43.617848 412.368952 44.892497 
Q 412.800083 46.167145 412.987531 46.916938 
L 413.437407 47.366814 
" clip-path="url(#p358c514f99)" style="fill: none; stroke: #000000; stroke-linejoin: miter"/>
   </g>
  </g>
  <g id="axes_27">
   <g id="patch_24">
    <path d="M 424.163917 36.382345 
Q 424.126428 36.494814 424.257641 36.701007 
Q 424.388855 36.9072 424.276386 37.057159 
L 424.276386 39.306538 
Q 424.276386 40.506207 424.613793 41.724621 
Q 424.9512 42.943034 425.813462 43.93651 
Q 426.675724 44.929986 427.875393 44.929986 
Q 429.112552 44.929986 429.787366 43.861531 
Q 430.462179 42.793076 430.912055 41.143531 
Q 431.361931 39.493986 431.699338 38.969131 
L 432.486621 36.382345 
L 432.261683 42.680607 
L 432.261683 45.154924 
Q 432.261683 47.066897 432.992731 51.00331 
Q 433.723779 54.939724 433.723779 56.964166 
Q 434.473572 59.213545 433.386372 60.188276 
Q 432.299172 61.163007 430.237241 60.78811 
Q 428.437738 60.488193 427.519241 60.169531 
Q 426.600745 59.850869 424.613793 58.988607 
L 424.501324 58.426262 
" clip-path="url(#p93977b3293)" style="fill: none; stroke: #000000; stroke-linejoin: miter"/>
   </g>
  </g>
  <g id="axes_28">
   <g id="patch_25">
    <path d="M 442.013462 29.784166 
Q 442.988193 30.271531 444.281586 31.827352 
Q 445.574979 33.383172 446.062345 33.833048 
L 446.737159 34.507862 
M 449.773821 37.432055 
Q 448.461683 36.94469 447.411972 36.982179 
Q 447.149545 36.982179 446.249793 37.000924 
Q 445.350041 37.019669 444.91891 37.038414 
Q 444.487779 37.057159 443.625517 37.169628 
Q 442.763255 37.282097 442.294634 37.41331 
Q 441.826014 37.544524 441.18869 37.844441 
Q 440.551366 38.144359 440.232703 38.538 
Q 439.914041 38.931641 439.670359 39.550221 
Q 439.426676 40.1688 439.426676 40.918593 
Q 439.426676 42.830566 441.038731 44.348897 
Q 442.650786 45.867228 444.600248 45.867228 
Q 445.949876 45.867228 446.812138 45.323628 
Q 447.6744 44.780028 448.086786 43.842786 
Q 448.499172 42.905545 448.72411 41.912069 
Q 448.949048 40.918593 449.286455 39.756414 
Q 449.623862 38.594234 450.111228 37.881931 
L 450.561103 43.842786 
L 451.573324 46.991917 
" clip-path="url(#p5a4cd8f37a)" style="fill: none; stroke: #000000; stroke-linejoin: miter"/>
   </g>
  </g>
  <g id="axes_29">
   <g id="patch_26">
    <path d="M 456.863834 32.783338 
L 456.863834 33.345683 
Q 457.726097 39.718924 457.763586 47.066897 
Q 457.763586 47.81669 457.688607 47.029407 
Q 457.238731 42.080772 457.088772 35.82 
L 457.088772 35.145186 
Q 457.088772 33.6456 458.682083 33.008276 
Q 460.275393 32.370952 461.7 32.783338 
Q 463.237076 33.233214 464.211807 34.414138 
Q 465.186538 35.595062 465.561434 37.282097 
Q 465.936331 38.969131 466.067545 40.543697 
Q 466.198759 42.118262 466.273738 44.067724 
Q 466.348717 46.017186 466.536166 47.066897 
" clip-path="url(#pdc86ba38c2)" style="fill: none; stroke: #000000; stroke-linejoin: miter"/>
   </g>
  </g>
  <g id="axes_30">
   <g id="patch_27">
    <path d="M 477.825021 46.017186 
Q 477.787531 46.054676 477.712552 46.092166 
Q 477.637572 46.129655 477.637572 46.167145 
Q 477.637572 46.429572 477.9 46.429572 
Q 478.124938 46.429572 478.124938 46.129655 
Q 478.162428 45.979697 477.974979 45.904717 
Q 477.787531 45.829738 477.675062 45.904717 
" clip-path="url(#pb1a4dc2f1a)" style="fill: none; stroke: #000000; stroke-linejoin: miter"/>
   </g>
  </g>
 </g>
 <defs>
  <clipPath id="pa5e7e8eebd">
   <rect x="1.051945" y="8.64" width="14.09611" height="54.36"/>
  </clipPath>
  <clipPath id="p53d30cbb5d">
   <rect x="16.2" y="8.881927" width="16.2" height="53.876147"/>
  </clipPath>
  <clipPath id="pfaf9bfb564">
   <rect x="50.907848" y="8.64" width="11.584303" height="54.36"/>
  </clipPath>
  <clipPath id="p818451f3b8">
   <rect x="68.738648" y="8.64" width="8.322703" height="54.36"/>
  </clipPath>
  <clipPath id="pea0efc9230">
   <rect x="82.389352" y="8.64" width="13.421297" height="54.36"/>
  </clipPath>
  <clipPath id="pcff8c5523e">
   <rect x="98.251945" y="8.64" width="14.09611" height="54.36"/>
  </clipPath>
  <clipPath id="p1d4bef96c8">
   <rect x="117.601076" y="8.64" width="7.797848" height="54.36"/>
  </clipPath>
  <clipPath id="p1afaffb0b3">
   <rect x="130.989352" y="8.64" width="13.421297" height="54.36"/>
  </clipPath>
  <clipPath id="p33ecf83ff9">
   <rect x="145.8" y="12.376886" width="16.2" height="46.886228"/>
  </clipPath>
  <clipPath id="p91f169696d">
   <rect x="162.433366" y="8.64" width="15.333269" height="54.36"/>
  </clipPath>
  <clipPath id="p20a72699ea">
   <rect x="180.938979" y="8.64" width="10.722041" height="54.36"/>
  </clipPath>
  <clipPath id="p7f926c83b2">
   <rect x="194.4" y="8.881927" width="16.2" height="53.876147"/>
  </clipPath>
  <clipPath id="pc02a5635dc">
   <rect x="226.8" y="12.376886" width="16.2" height="46.886228"/>
  </clipPath>
  <clipPath id="pbccf6bc0ff">
   <rect x="245.851448" y="8.64" width="10.497103" height="54.36"/>
  </clipPath>
  <clipPath id="p38e5be39b7">
   <rect x="275.833366" y="8.64" width="15.333269" height="54.36"/>
  </clipPath>
  <clipPath id="p94f27cfabb">
   <rect x="294.338979" y="8.64" width="10.722041" height="54.36"/>
  </clipPath>
  <clipPath id="p7037072bd5">
   <rect x="308.420814" y="8.64" width="14.958372" height="54.36"/>
  </clipPath>
  <clipPath id="p9a2dc8beb8">
   <rect x="325.389352" y="8.64" width="13.421297" height="54.36"/>
  </clipPath>
  <clipPath id="p4df8cb31db">
   <rect x="340.2" y="12.376886" width="16.2" height="46.886228"/>
  </clipPath>
  <clipPath id="p2095fe5200">
   <rect x="374.382993" y="8.64" width="12.634014" height="54.36"/>
  </clipPath>
  <clipPath id="p5912250beb">
   <rect x="391.538979" y="8.64" width="10.722041" height="54.36"/>
  </clipPath>
  <clipPath id="p358c514f99">
   <rect x="409.201076" y="8.64" width="7.797848" height="54.36"/>
  </clipPath>
  <clipPath id="p93977b3293">
   <rect x="422.251945" y="8.64" width="14.09611" height="54.36"/>
  </clipPath>
  <clipPath id="p5a4cd8f37a">
   <rect x="437.552193" y="8.64" width="15.895614" height="54.36"/>
  </clipPath>
  <clipPath id="pdc86ba38c2">
   <rect x="454.989352" y="8.64" width="13.421297" height="54.36"/>
  </clipPath>
  <clipPath id="pb1a4dc2f1a">
   <rect x="475.76309" y="8.64" width="4.273821" height="54.36"/>
  </clipPath>
 </defs>
</svg>
