<?xml version="1.0" encoding="utf-8" standalone="no"?>
<!DOCTYPE svg PUBLIC "-//W3C//DTD SVG 1.1//EN"
  "http://www.w3.org/Graphics/SVG/1.1/DTD/svg11.dtd">
<svg xmlns:xlink="http://www.w3.org/1999/xlink" width="445.5pt" height="162pt" viewBox="0 0 445.5 162" xmlns="http://www.w3.org/2000/svg" version="1.1">
 <metadata>
  <rdf:RDF xmlns:dc="http://purl.org/dc/elements/1.1/" xmlns:cc="http://creativecommons.org/ns#" xmlns:rdf="http://www.w3.org/1999/02/22-rdf-syntax-ns#">
   <cc:Work>
    <dc:type rdf:resource="http://purl.org/dc/dcmitype/StillImage"/>
    <dc:date>2023-02-15T22:54:46.092314</dc:date>
    <dc:format>image/svg+xml</dc:format>
    <dc:creator>
     <cc:Agent>
      <dc:title>Matplotlib v3.6.1, https://matplotlib.org/</dc:title>
     </cc:Agent>
    </dc:creator>
   </cc:Work>
  </rdf:RDF>
 </metadata>
 <defs>
  <style type="text/css">*{stroke-linejoin: round; stroke-linecap: butt}</style>
 </defs>
 <g id="figure_1">
  <g id="patch_1">
   <path d="M 0 162 
L 445.5 162 
L 445.5 0 
L 0 0 
z
" style="fill: #8fff9f"/>
  </g>
  <g id="axes_1">
   <g id="patch_2">
    <path d="M 22.250153 72.768313 
Q 22.250153 72.768313 22.250153 75.954893 
Q 22.250153 78.191089 22.389916 80.70681 
Q 22.529678 83.222531 22.753298 86.297301 
Q 22.976917 89.372071 23.088727 91.049218 
L 22.753298 92.726365 
M 10.677837 93.397224 
L 33.654755 93.061794 
M 15.206135 78.973758 
L 18.392715 78.973758 
Q 18.44862 78.973758 25.604448 78.638328 
L 29.797316 78.135184 
M 7.714877 76.234417 
L 7.714877 79.756426 
Q 7.714877 79.812331 8.050307 84.117009 
L 8.218021 95.353896 
M 9.615644 69.525828 
Q 10.733742 69.358113 17.218712 69.190399 
Q 23.703681 69.022684 25.939877 67.960491 
L 27.784739 67.625061 
M 17.330521 63.488098 
Q 16.771472 68.799064 13.109701 74.305698 
Q 9.447929 79.812331 4.640107 82.719387 
L 2.795245 83.55796 
" clip-path="url(#pb566b1c4b5)" style="fill: none; stroke: #000000; stroke-linejoin: miter"/>
   </g>
  </g>
  <g id="axes_2">
   <g id="patch_3">
    <path d="M 40.606579 70.317744 
Q 44.352068 73.423759 44.991541 74.017556 
M 38.733835 93.43015 
L 38.733835 93.01906 
Q 38.733835 92.33391 40.218327 91.808628 
Q 41.70282 91.283346 42.66203 91.283346 
Q 43.07312 91.237669 43.187312 91.306184 
Q 43.301504 91.374699 43.461372 91.511729 
Q 43.621241 91.648759 44.032331 91.694436 
Q 48.18891 93.338797 53.487406 94.298008 
Q 54.40094 94.480714 55.931109 94.777613 
Q 57.461278 95.074511 58.169267 95.188703 
Q 58.877256 95.302895 60.133365 95.417086 
Q 61.389474 95.531278 62.805451 95.531278 
Q 63.901692 95.531278 64.952256 95.302895 
Q 66.00282 95.074511 67.258929 94.709098 
Q 68.515038 94.343684 69.245865 94.160977 
L 70.616165 93.338797 
M 39.327632 78.722256 
L 39.875752 78.722256 
Q 41.063346 78.904962 44.580451 77.443308 
Q 46.179135 76.803835 46.224812 77.077895 
Q 46.270489 77.443308 44.580451 79.224699 
Q 43.07312 80.823383 43.07312 82.513421 
Q 43.07312 83.061541 43.507049 83.472632 
Q 43.940977 83.883722 44.443421 84.089267 
Q 44.945865 84.294812 45.379793 84.774417 
Q 45.813722 85.254023 45.813722 85.939173 
Q 45.813722 86.030526 45.950752 86.304586 
Q 46.087782 86.578647 46.087782 86.761353 
L 46.087782 87.172444 
L 44.306391 91.694436 
M 56.502068 87.400827 
Q 57.095865 87.766241 57.963722 88.497068 
Q 58.831579 89.227895 59.059962 89.684662 
L 61.800564 90.917932 
M 57.187218 83.152895 
Q 57.141541 83.701015 57.187218 84.660226 
Q 57.187218 86.39594 56.661936 87.446504 
Q 56.136654 88.497068 55.177444 89.547632 
Q 54.218233 90.598195 53.761466 91.511729 
L 52.939286 91.648759 
M 54.172556 81.645564 
L 59.105639 81.599887 
Q 59.242669 81.554211 59.539568 81.440019 
Q 59.836466 81.325827 60.087688 81.257312 
Q 60.33891 81.188797 60.61297 81.188797 
Q 60.658647 81.188797 60.704323 81.188797 
Q 61.02406 81.188797 61.092575 81.257312 
Q 61.16109 81.325827 61.16109 81.736917 
Q 61.16109 81.782594 60.75 85.710789 
L 60.20188 87.21812 
M 53.624436 81.508534 
Q 53.578759 82.193684 53.898496 82.330714 
L 54.309586 87.537857 
M 50.335714 80.001203 
Q 52.025752 79.270376 55.748402 79.041992 
Q 59.471053 78.813609 61.02406 78.356842 
L 65.546053 78.219812 
M 56.821805 68.673383 
Q 57.004511 68.58203 57.004511 68.764737 
Q 57.004511 68.901767 56.867481 69.312857 
Q 56.547744 70.546128 56.913158 70.637481 
L 57.050188 79.453083 
M 53.898496 77.351955 
Q 54.12688 77.260602 54.743515 77.214925 
Q 55.36015 77.169248 55.679887 76.940865 
L 62.394361 76.529774 
M 52.802256 73.058346 
L 53.487406 73.058346 
Q 54.172556 73.058346 54.971898 72.944154 
Q 55.771241 72.829962 56.753289 72.647256 
Q 57.735338 72.464549 58.283459 72.373195 
L 61.57218 72.647256 
L 61.02406 76.392744 
L 60.61297 76.940865 
M 52.939286 73.058346 
L 52.939286 73.469436 
Q 52.984962 75.113797 53.350376 75.661917 
Q 53.533083 76.301391 53.761466 76.484098 
Q 53.85282 76.529774 54.035526 76.666805 
" clip-path="url(#p0e149ac06f)" style="fill: none; stroke: #000000; stroke-linejoin: miter"/>
   </g>
  </g>
  <g id="axes_3">
   <g id="patch_4">
    <path d="M 86.491525 79.24708 
Q 90.591448 77.89916 99.296764 77.2252 
L 106.541834 75.70879 
M 88.176425 72.507481 
Q 88.176425 72.507481 89.018875 72.507481 
Q 90.198305 72.507481 91.518143 72.254746 
Q 92.837982 72.002011 94.438636 71.580786 
Q 96.039291 71.159561 96.937904 70.991071 
L 99.970724 70.654091 
M 93.006471 91.939992 
L 93.343451 91.939992 
Q 94.579045 92.726279 97.387211 95.057057 
Q 100.195378 97.387835 102.610401 98.511102 
M 89.524345 88.177049 
L 90.366795 88.177049 
Q 95.983128 87.615416 101.037827 86.267496 
Q 102.329584 85.81819 102.750809 85.930516 
Q 103.172034 86.042843 103.003544 86.464068 
Q 102.835054 86.885293 101.880277 88.120886 
L 98.117334 93.568729 
L 97.274884 94.579669 
M 95.084515 65.599391 
L 93.399615 79.24708 
Q 92.894145 83.066186 92.894145 83.12235 
L 91.770878 87.222273 
L 91.433898 89.244153 
M 80.931356 74.697851 
Q 80.875193 74.866341 80.903274 75.624545 
Q 80.931356 76.38275 80.931356 76.55124 
Q 80.931356 79.41557 81.127928 82.78537 
Q 81.324499 86.155169 81.661479 90.170847 
Q 81.998459 94.186525 82.110786 96.096079 
L 81.942296 97.949468 
M 85.143606 66.778821 
Q 83.290216 71.440378 79.751926 76.04577 
L 75.708166 78.9101 
" clip-path="url(#peb16b4e72c)" style="fill: none; stroke: #000000; stroke-linejoin: miter"/>
   </g>
  </g>
  <g id="axes_4">
   <g id="patch_5">
    <path d="M 115.279925 87.612985 
Q 118.707313 86.524925 122.461119 86.089701 
Q 126.214925 85.654478 131.573619 85.491269 
Q 136.932313 85.32806 138.945224 85.164851 
M 126.704552 81.247836 
L 126.704552 81.900672 
Q 126.867761 83.478358 127.221381 86.416119 
Q 127.575 89.353881 127.792612 91.666007 
Q 128.010224 93.978134 128.064627 96.208657 
Q 128.11903 99.853657 127.520597 99.90806 
Q 126.976567 99.90806 125.94291 98.058358 
L 124.419627 96.045448 
M 119.686567 77.167612 
Q 119.958582 77.222015 120.339403 76.841194 
L 123.603582 76.841194 
Q 123.657985 76.841194 127.683806 76.514776 
L 134.592985 75.372313 
Q 134.266567 75.535522 133.695336 75.889142 
Q 133.124104 76.242761 132.960896 76.351567 
L 127.194179 81.084627 
M 113.212612 71.074478 
L 129.696716 70.74806 
Q 131.655224 70.639254 135.381828 70.095224 
Q 139.108433 69.551194 140.958134 69.442388 
Q 143.079851 69.333582 143.079851 69.605597 
Q 143.079851 69.66 142.590224 70.911269 
L 139.489254 74.501866 
M 112.070149 70.911269 
Q 114.355075 72.108134 115.497537 74.338657 
L 115.823955 75.154701 
M 135.735448 63.893284 
Q 134.865 64.872537 134.592985 66.667836 
L 133.124104 69.932015 
M 123.821194 65.362164 
Q 123.93 65.47097 124.147612 65.933396 
Q 124.365224 66.395821 124.637239 66.504627 
L 126.106119 68.952761 
M 117.619254 66.015 
L 119.088134 70.095224 
" clip-path="url(#pcd72ddb0fb)" style="fill: none; stroke: #000000; stroke-linejoin: miter"/>
   </g>
  </g>
  <g id="axes_5">
   <g id="patch_6">
    <path d="M 167.013666 91.787846 
Q 167.423875 92.198055 168.420096 92.930571 
Q 169.416318 93.663087 169.826527 94.073296 
L 176.682878 98.644196 
M 153.476768 74.559068 
L 153.828376 74.559068 
Q 154.121383 74.559068 154.560892 74.764172 
Q 155.000402 74.969277 155.557114 75.262283 
Q 156.113826 75.555289 156.28963 75.613891 
L 160.508923 78.426752 
M 152.597749 79.833183 
Q 153.300965 80.360595 154.971101 81.005209 
Q 156.641238 81.649823 157.344453 82.118633 
L 158.223473 82.997653 
M 148.730064 86.689534 
L 150.663907 86.689534 
Q 154.648794 86.689534 159.190394 86.396527 
Q 163.731994 86.103521 169.328416 85.60541 
Q 174.924839 85.107299 177.913505 84.931495 
M 165.255627 73.680048 
Q 165.197026 74.090257 165.255627 75.789695 
Q 165.255627 80.008987 164.083601 83.290659 
Q 162.911576 86.572331 160.83123 90.381415 
Q 158.750884 94.190498 157.696061 97.061961 
L 154.531592 100.578039 
M 160.860531 63.659228 
Q 160.977733 63.71783 163.145981 64.714051 
L 164.200804 66.120482 
M 150.488103 71.570402 
L 155.586415 71.218794 
Q 157.989068 70.925788 162.970177 70.076069 
Q 167.951286 69.22635 171.994775 68.72824 
Q 176.038264 68.230129 179.319936 68.230129 
Q 178.558119 69.636559 178.089309 70.691383 
L 176.858682 73.504244 
M 151.191318 67.878521 
Q 150.722508 68.523135 150.839711 70.339775 
Q 150.898312 71.160193 150.312299 72.449421 
L 149.257476 76.317106 
" clip-path="url(#p3c5f5fff2a)" style="fill: none; stroke: #000000; stroke-linejoin: miter"/>
   </g>
  </g>
  <g id="axes_6">
   <g id="patch_7">
    <path d="M 199.631684 94.228612 
Q 200.475 93.994357 202.606716 93.853805 
Q 204.738432 93.713252 205.816003 93.385296 
L 216.357455 93.244743 
M 214.389717 82.14108 
Q 214.389717 82.187931 212.585958 86.427937 
Q 210.782198 90.667943 210.735347 92.823085 
L 210.313689 93.666401 
M 206.799871 83.406054 
Q 206.940424 83.640308 207.47921 84.553901 
Q 208.017995 85.467494 208.345951 85.936003 
L 209.892031 87.622635 
M 203.567159 86.217108 
L 203.988817 86.217108 
Q 204.457326 86.217108 204.996112 86.709042 
Q 205.534897 87.200977 206.073683 87.90374 
Q 206.612468 88.606504 206.799871 88.747057 
L 207.643188 89.871478 
M 203.286054 79.751684 
L 211.157005 79.611131 
M 206.378213 71.037416 
Q 207.174679 71.787031 208.533355 73.333111 
Q 209.892031 74.87919 210.688496 75.675656 
Q 211.484961 76.472121 212.913914 77.245161 
Q 214.342866 78.018201 216.029499 78.205604 
M 207.362082 69.350784 
Q 207.034126 69.819293 206.143959 71.201395 
Q 205.253792 72.583496 204.715006 73.28626 
Q 204.176221 73.989023 203.309479 75.019743 
Q 202.442738 76.050463 201.50572 76.68295 
Q 200.568702 77.315437 199.491131 77.643393 
L 198.085604 78.346157 
M 184.592545 90.386838 
Q 185.623265 89.96518 187.567577 89.075013 
Q 189.511889 88.184846 190.800289 87.669486 
Q 192.088689 87.154126 193.775321 86.638766 
L 193.259961 86.217108 
M 187.684704 72.958303 
L 187.684704 73.520514 
Q 187.731555 74.410681 187.637853 75.39455 
Q 187.544152 76.378419 187.356748 77.596542 
Q 187.169344 78.814666 187.122494 79.423728 
Q 187.075643 79.704833 186.888239 80.431022 
Q 186.700835 81.157211 186.700835 81.532018 
Q 186.607134 82.094229 187.122494 81.906825 
Q 187.263046 81.906825 187.591003 81.766272 
Q 188.200064 81.485167 188.387468 81.532018 
Q 189.183933 81.719422 191.596754 81.36804 
Q 194.009576 81.016658 196.024165 80.595 
L 198.085604 80.173342 
Q 198.085604 81.719422 197.265713 88.606504 
Q 196.445823 95.493586 196.024165 95.493586 
Q 195.555656 95.493586 194.899743 94.90795 
Q 194.24383 94.322314 194.009576 94.228612 
L 192.510347 93.10419 
M 185.716967 71.271671 
L 194.946594 70.053548 
L 194.056427 75.39455 
L 193.072558 79.470578 
" clip-path="url(#pf09cd97a74)" style="fill: none; stroke: #000000; stroke-linejoin: miter"/>
   </g>
  </g>
  <g id="axes_7">
   <g id="patch_8">
    <path d="M 235.78401 85.65236 
L 235.78401 100.454391 
M 222.277157 99.590939 
Q 222.277157 99.590939 226.16269 99.590939 
Q 233.687056 99.899315 249.475888 98.665812 
Q 249.475888 98.665812 252.066244 98.665812 
M 229.308122 90.709721 
Q 229.308122 90.709721 230.418274 90.709721 
Q 230.479949 90.709721 236.524112 90.33967 
L 243.555076 89.229518 
M 239.114467 81.088401 
Q 239.731218 81.458452 240.070431 82.568604 
Q 240.409645 83.678756 240.964721 84.048807 
L 242.259898 86.639162 
M 235.228934 76.647792 
Q 234.118782 77.94297 232.391878 81.057563 
Q 230.664975 84.172157 229.493147 85.52901 
L 232.083503 85.52901 
L 241.149746 83.863782 
M 228.938071 76.277741 
L 234.488832 76.277741 
Q 235.228934 76.216066 238.466878 76.308579 
Q 241.704822 76.401091 242.444924 75.90769 
M 235.66066 64.436117 
Q 236.462437 64.991193 237.140863 65.91632 
L 238.621066 68.691701 
M 223.448985 72.207183 
Q 226.841117 71.590431 235.78401 71.189543 
Q 244.726904 70.788655 249.352538 69.431802 
Q 250.709391 68.938401 250.709391 69.555152 
Q 250.647716 69.986878 248.859137 72.392208 
Q 248.365736 73.008959 248.242386 73.317335 
M 224.559137 68.136624 
L 222.338832 73.687386 
L 221.783756 74.612513 
" clip-path="url(#p0c837d8c3a)" style="fill: none; stroke: #000000; stroke-linejoin: miter"/>
   </g>
  </g>
  <g id="axes_8">
   <g id="patch_9">
    <path d="M 257.510751 91.926606 
Q 258.927202 92.021036 261.665674 91.572494 
Q 264.404145 91.123951 265.442876 91.076736 
Q 268.039702 90.982306 289.239249 90.226865 
M 271.108679 67.516438 
L 271.391969 87.016244 
L 271.533614 90.651801 
M 266.576036 85.033212 
L 276.066256 85.033212 
M 265.726166 78.706399 
Q 265.867811 78.706399 266.906541 78.635576 
Q 267.945272 78.564754 268.134132 78.564754 
L 269.692228 78.564754 
L 277.199417 78.564754 
Q 277.152202 78.328679 277.199417 78.116211 
Q 277.246632 77.903744 277.36467 77.644061 
Q 277.482707 77.384378 277.482707 77.289948 
Q 278.096503 74.551477 281.165479 67.941373 
Q 280.787759 67.658083 280.740544 67.658083 
Q 278.096503 67.658083 272.784812 67.799728 
Q 267.473122 67.941373 264.876295 67.941373 
L 263.318199 67.941373 
M 267.425907 72.898951 
L 275.074741 72.898951 
M 263.743135 68.507953 
L 264.876295 78.139819 
" clip-path="url(#pb8a6bc324b)" style="fill: none; stroke: #000000; stroke-linejoin: miter"/>
   </g>
  </g>
  <g id="axes_9">
   <g id="patch_10">
    <path d="M 293.790505 94.39518 
L 294.579087 94.39518 
Q 295.849579 94.39518 296.462921 94.39518 
L 296.506731 94.39518 
Q 295.718149 94.35137 297.076262 94.21994 
Q 297.601983 94.17613 298.390565 94.13232 
L 324.939483 94.000889 
L 325.859495 93.738029 
M 309.167849 71.4825 
L 309.036418 94.000889 
M 299.573437 71.52631 
L 320.207993 70.518678 
" clip-path="url(#p6ba953b8ef)" style="fill: none; stroke: #000000; stroke-linejoin: miter"/>
   </g>
  </g>
  <g id="axes_10">
   <g id="patch_11">
    <path d="M 347.981055 87.690022 
L 358.217385 86.985936 
M 347.818574 80.432519 
L 348.306018 80.432519 
L 356.755052 79.186828 
L 357.242496 79.024346 
M 347.818574 72.958373 
L 347.656092 74.583187 
L 347.656092 89.856441 
L 347.276969 98.955401 
M 346.031278 72.958373 
Q 346.031278 72.958373 346.843685 72.958373 
Q 346.897845 72.958373 349.930832 72.470929 
L 361.791976 70.521152 
M 352.043091 65.484227 
Q 349.118425 71.550201 344.02734 77.453692 
L 341.319316 79.945074 
M 337.419762 75.287273 
L 337.419762 75.937199 
Q 337.419762 75.99136 337.094799 78.699383 
L 337.257281 96.084896 
L 337.094799 97.70971 
M 341.481798 69.112979 
Q 341.048514 69.762905 340.209027 71.198158 
Q 339.369539 72.63341 338.800854 73.472897 
Q 338.232169 74.312385 337.284361 75.341434 
Q 336.336553 76.370483 335.307504 76.912088 
L 333.032764 78.753544 
L 330.758024 80.64916 
" clip-path="url(#p466773b946)" style="fill: none; stroke: #000000; stroke-linejoin: miter"/>
   </g>
  </g>
  <g id="axes_11">
   <g id="patch_12">
    <path d="M 383.779397 94.597386 
Q 383.779397 94.597386 382.00801 94.597386 
Q 379.730514 94.597386 378.33871 96.326597 
Q 376.946907 98.055807 376.946907 100.417655 
Q 376.862555 102.779503 378.507414 104.086955 
Q 380.152272 105.394407 382.514121 104.972648 
Q 383.188934 104.888297 384.285507 104.803945 
Q 385.382079 104.719593 385.972541 104.635241 
Q 386.563003 104.55089 387.279993 104.213483 
Q 387.996983 103.876076 388.292214 103.074734 
Q 388.587445 102.273393 388.587445 100.923766 
Q 388.587445 100.333303 388.33439 99.742841 
Q 388.081334 99.152379 387.659576 98.43539 
Q 387.237817 97.7184 387.069114 97.380993 
L 384.538562 95.862662 
" clip-path="url(#pa8a74a15d6)" style="fill: none; stroke: #000000; stroke-linejoin: miter"/>
   </g>
  </g>
 </g>
 <defs>
  <clipPath id="pb566b1c4b5">
   <rect x="0" y="40.063942" width="36.45" height="81.062117"/>
  </clipPath>
  <clipPath id="p0e149ac06f">
   <rect x="36.45" y="47.479398" width="36.45" height="66.231203"/>
  </clipPath>
  <clipPath id="peb16b4e72c">
   <rect x="72.9" y="39.876587" width="36.45" height="81.436826"/>
  </clipPath>
  <clipPath id="pcd72ddb0fb">
   <rect x="109.35" y="41.152836" width="36.45" height="78.884328"/>
  </clipPath>
  <clipPath id="p3c5f5fff2a">
   <rect x="145.8" y="38.109068" width="36.45" height="84.971865"/>
  </clipPath>
  <clipPath id="pf09cd97a74">
   <rect x="182.25" y="46.628098" width="36.45" height="67.933805"/>
  </clipPath>
  <clipPath id="p0c837d8c3a">
   <rect x="218.7" y="35.880533" width="36.45" height="89.428934"/>
  </clipPath>
  <clipPath id="pb8a6bc324b">
   <rect x="255.15" y="46.364106" width="36.45" height="68.461788"/>
  </clipPath>
  <clipPath id="p6ba953b8ef">
   <rect x="291.6" y="48.83268" width="36.45" height="63.524639"/>
  </clipPath>
  <clipPath id="p466773b946">
   <rect x="328.05" y="41.328655" width="36.45" height="78.532689"/>
  </clipPath>
  <clipPath id="pa8a74a15d6">
   <rect x="372.644969" y="19.44" width="20.160062" height="122.31"/>
  </clipPath>
 </defs>
</svg>
