<?xml version="1.0" encoding="utf-8" standalone="no"?>
<!DOCTYPE svg PUBLIC "-//W3C//DTD SVG 1.1//EN"
  "http://www.w3.org/Graphics/SVG/1.1/DTD/svg11.dtd">
<svg xmlns:xlink="http://www.w3.org/1999/xlink" width="346.5pt" height="72pt" viewBox="0 0 346.5 72" xmlns="http://www.w3.org/2000/svg" version="1.1">
 <metadata>
  <rdf:RDF xmlns:dc="http://purl.org/dc/elements/1.1/" xmlns:cc="http://creativecommons.org/ns#" xmlns:rdf="http://www.w3.org/1999/02/22-rdf-syntax-ns#">
   <cc:Work>
    <dc:type rdf:resource="http://purl.org/dc/dcmitype/StillImage"/>
    <dc:date>2023-01-28T14:25:46.147113</dc:date>
    <dc:format>image/svg+xml</dc:format>
    <dc:creator>
     <cc:Agent>
      <dc:title>Matplotlib v3.6.1, https://matplotlib.org/</dc:title>
     </cc:Agent>
    </dc:creator>
   </cc:Work>
  </rdf:RDF>
 </metadata>
 <defs>
  <style type="text/css">*{stroke-linejoin: round; stroke-linecap: butt}</style>
 </defs>
 <g id="figure_1">
  <g id="patch_1">
   <path d="M 0 72 
L 346.5 72 
L 346.5 0 
L 0 0 
z
" style="fill: #8fff9f"/>
  </g>
  <g id="axes_1">
   <g id="patch_2">
    <path d="M 16.874255 30.571448 
Q 16.874255 30.571448 16.874255 32.708359 
Q 16.874255 34.207945 16.967979 35.894979 
Q 17.061703 37.582014 17.211662 39.643945 
Q 17.361621 41.705876 17.4366 42.830566 
L 17.211662 43.955255 
M 9.113897 44.405131 
L 24.522145 44.180193 
M 12.150559 34.7328 
L 14.287469 34.7328 
Q 14.324959 34.7328 19.123634 34.507862 
L 21.935359 34.170455 
M 7.126945 32.895807 
L 7.126945 35.257655 
Q 7.126945 35.295145 7.351883 38.181848 
L 7.464352 45.717269 
M 8.401593 28.397048 
Q 9.151386 28.284579 13.500186 28.17211 
Q 17.848986 28.059641 19.348572 27.347338 
L 20.585731 27.1224 
M 13.575166 24.348166 
Q 13.200269 27.909683 10.744697 31.602414 
Q 8.289124 35.295145 5.065014 37.244607 
L 3.827855 37.806952 
" clip-path="url(#pf906f05ead)" style="fill: none; stroke: #000000; stroke-linejoin: miter"/>
   </g>
  </g>
  <g id="axes_2">
   <g id="patch_3">
    <path d="M 31.582895 27.826579 
Q 34.496053 30.242368 34.993421 30.704211 
M 30.126316 45.802895 
L 30.126316 45.483158 
Q 30.126316 44.950263 31.280921 44.541711 
Q 32.435526 44.133158 33.181579 44.133158 
Q 33.501316 44.097632 33.590132 44.150921 
Q 33.678947 44.204211 33.803289 44.310789 
Q 33.927632 44.417368 34.247368 44.452895 
Q 37.480263 45.731842 41.601316 46.477895 
Q 42.311842 46.62 43.501974 46.850921 
Q 44.692105 47.081842 45.242763 47.170658 
Q 45.793421 47.259474 46.770395 47.348289 
Q 47.747368 47.437105 48.848684 47.437105 
Q 49.701316 47.437105 50.518421 47.259474 
Q 51.335526 47.081842 52.3125 46.797632 
Q 53.289474 46.513421 53.857895 46.371316 
L 54.923684 45.731842 
M 30.588158 34.363421 
L 31.014474 34.363421 
Q 31.938158 34.505526 34.673684 33.368684 
Q 35.917105 32.871316 35.952632 33.084474 
Q 35.988158 33.368684 34.673684 34.754211 
Q 33.501316 35.997632 33.501316 37.312105 
Q 33.501316 37.738421 33.838816 38.058158 
Q 34.176316 38.377895 34.567105 38.537763 
Q 34.957895 38.697632 35.295395 39.070658 
Q 35.632895 39.443684 35.632895 39.976579 
Q 35.632895 40.047632 35.739474 40.260789 
Q 35.846053 40.473947 35.846053 40.616053 
L 35.846053 40.935789 
L 34.460526 44.452895 
M 43.946053 41.113421 
Q 44.407895 41.397632 45.082895 41.966053 
Q 45.757895 42.534474 45.935526 42.889737 
L 48.067105 43.848947 
M 44.478947 37.809474 
Q 44.443421 38.235789 44.478947 38.981842 
Q 44.478947 40.331842 44.070395 41.148947 
Q 43.661842 41.966053 42.915789 42.783158 
Q 42.169737 43.600263 41.814474 44.310789 
L 41.175 44.417368 
M 42.134211 36.637105 
L 45.971053 36.601579 
Q 46.077632 36.566053 46.308553 36.477237 
Q 46.539474 36.388421 46.734868 36.335132 
Q 46.930263 36.281842 47.143421 36.281842 
Q 47.178947 36.281842 47.214474 36.281842 
Q 47.463158 36.281842 47.516447 36.335132 
Q 47.569737 36.388421 47.569737 36.708158 
Q 47.569737 36.743684 47.25 39.798947 
L 46.823684 40.971316 
M 41.707895 36.530526 
Q 41.672368 37.063421 41.921053 37.17 
L 42.240789 41.22 
M 39.15 35.358158 
Q 40.464474 34.789737 43.359868 34.612105 
Q 46.255263 34.434474 47.463158 34.079211 
L 50.980263 33.972632 
M 44.194737 26.547632 
Q 44.336842 26.476579 44.336842 26.618684 
Q 44.336842 26.725263 44.230263 27.045 
Q 43.981579 28.004211 44.265789 28.075263 
L 44.372368 34.931842 
M 41.921053 33.297632 
Q 42.098684 33.226579 42.578289 33.191053 
Q 43.057895 33.155526 43.306579 32.977895 
L 48.528947 32.658158 
M 41.068421 29.958158 
L 41.601316 29.958158 
Q 42.134211 29.958158 42.755921 29.869342 
Q 43.377632 29.780526 44.141447 29.638421 
Q 44.905263 29.496316 45.331579 29.425263 
L 47.889474 29.638421 
L 47.463158 32.551579 
L 47.143421 32.977895 
M 41.175 29.958158 
L 41.175 30.277895 
Q 41.210526 31.556842 41.494737 31.983158 
Q 41.636842 32.480526 41.814474 32.622632 
Q 41.885526 32.658158 42.027632 32.764737 
" clip-path="url(#pb0e08d5dc2)" style="fill: none; stroke: #000000; stroke-linejoin: miter"/>
   </g>
  </g>
  <g id="axes_3">
   <g id="patch_4">
    <path d="M 67.782103 34.920248 
Q 70.518848 34.020497 76.329745 33.570621 
L 81.16591 32.5584 
M 68.906793 30.42149 
Q 68.906793 30.42149 69.469138 30.42149 
Q 70.256421 30.42149 71.137428 30.252786 
Q 72.018434 30.084083 73.08689 29.80291 
Q 74.155345 29.521738 74.755179 29.409269 
L 76.779621 29.184331 
M 72.130903 43.39291 
L 72.355841 43.39291 
Q 73.180614 43.917766 75.055097 45.473586 
Q 76.929579 47.029407 78.541634 47.7792 
M 69.806545 40.881103 
L 70.36889 40.881103 
Q 74.117855 40.506207 77.491924 39.606455 
Q 78.354186 39.306538 78.635359 39.381517 
Q 78.916531 39.456497 78.804062 39.737669 
Q 78.691593 40.018841 78.054269 40.843614 
L 75.542462 44.48011 
L 74.980117 45.154924 
M 73.518021 25.810262 
L 72.393331 34.920248 
Q 72.055924 37.469545 72.055924 37.507034 
L 71.306131 40.243779 
L 71.081193 41.593407 
M 64.070628 31.883586 
Q 64.033138 31.996055 64.051883 32.502166 
Q 64.070628 33.008276 64.070628 33.120745 
Q 64.070628 35.032717 64.201841 37.282097 
Q 64.333055 39.531476 64.557993 42.211986 
Q 64.782931 44.892497 64.85791 46.167145 
L 64.745441 47.404303 
M 66.882352 26.597545 
Q 65.645193 29.709186 63.283345 32.783338 
L 60.58409 34.69531 
" clip-path="url(#p70862b561f)" style="fill: none; stroke: #000000; stroke-linejoin: miter"/>
   </g>
  </g>
  <g id="axes_4">
   <g id="patch_5">
    <path d="M 91.127234 37.656993 
Q 93.489083 36.9072 96.075869 36.607283 
Q 98.662655 36.307366 102.355386 36.194897 
Q 106.048117 36.082428 107.435234 35.969959 
M 99.000062 33.270703 
L 99.000062 33.720579 
Q 99.112531 34.807779 99.356214 36.832221 
Q 99.599897 38.856662 99.749855 40.449972 
Q 99.899814 42.043283 99.937303 43.580359 
Q 99.974793 46.092166 99.562407 46.129655 
Q 99.18751 46.129655 98.475207 44.855007 
L 97.425497 43.46789 
M 94.163897 30.458979 
Q 94.351345 30.496469 94.613772 30.234041 
L 96.863152 30.234041 
Q 96.900641 30.234041 99.674876 30.009103 
L 104.436062 29.221821 
Q 104.211124 29.33429 103.817483 29.577972 
Q 103.423841 29.821655 103.311372 29.896634 
L 99.337469 33.158234 
M 89.327731 27.759724 
L 100.687097 27.534786 
Q 102.036724 27.459807 104.604766 27.08491 
Q 107.172807 26.710014 108.447455 26.635034 
Q 109.909552 26.560055 109.909552 26.747503 
Q 109.909552 26.784993 109.572145 27.647255 
L 107.435234 30.121572 
M 88.540448 27.647255 
Q 90.115014 28.472028 90.902297 30.009103 
L 91.127234 30.571448 
M 104.848448 22.81109 
Q 104.248614 23.485903 104.061166 24.723062 
L 103.048945 26.972441 
M 96.638214 23.82331 
Q 96.713193 23.89829 96.863152 24.216952 
Q 97.01311 24.535614 97.200559 24.610593 
L 98.212779 26.297628 
M 92.364393 24.273186 
L 93.376614 27.08491 
" clip-path="url(#p80feb3ef68)" style="fill: none; stroke: #000000; stroke-linejoin: miter"/>
   </g>
  </g>
  <g id="axes_5">
   <g id="patch_6">
    <path d="M 129.486972 42.980524 
Q 129.7494 43.242952 130.386724 43.711572 
Q 131.024048 44.180193 131.286476 44.442621 
L 135.672766 47.366814 
M 120.826862 31.958566 
L 121.0518 31.958566 
Q 121.239248 31.958566 121.520421 32.089779 
Q 121.801593 32.220993 122.157745 32.408441 
Q 122.513897 32.59589 122.626366 32.633379 
L 125.325621 34.432883 
M 120.264517 35.332634 
Q 120.714393 35.670041 121.782848 36.082428 
Q 122.851303 36.494814 123.301179 36.794731 
L 123.863524 37.357076 
M 117.7902 39.718924 
L 119.027359 39.718924 
Q 121.576655 39.718924 124.482103 39.531476 
Q 127.387552 39.344028 130.967814 39.025366 
Q 134.548076 38.706703 136.460048 38.594234 
M 128.362283 31.396221 
Q 128.324793 31.658648 128.362283 32.745848 
Q 128.362283 35.445103 127.61249 37.544524 
Q 126.862697 39.643945 125.531814 42.080772 
Q 124.200931 44.5176 123.526117 46.354593 
L 121.501676 48.603972 
M 125.550559 24.98549 
Q 125.625538 25.022979 127.012655 25.660303 
L 127.687469 26.560055 
M 118.91489 30.046593 
L 122.17649 29.821655 
Q 123.713566 29.634207 126.900186 29.090607 
Q 130.086807 28.547007 132.673593 28.228345 
Q 135.260379 27.909683 137.3598 27.909683 
Q 136.872434 28.809434 136.572517 29.484248 
L 135.785234 31.283752 
M 119.364766 27.684745 
Q 119.064848 28.097131 119.139828 29.25931 
Q 119.177317 29.784166 118.802421 30.608938 
L 118.127607 33.083255 
" clip-path="url(#p40ff38ad46)" style="fill: none; stroke: #000000; stroke-linejoin: miter"/>
   </g>
  </g>
  <g id="axes_6">
   <g id="patch_7">
    <path d="M 155.269087 46.42392 
Q 155.925 46.241722 157.583001 46.132404 
Q 159.241003 46.023085 160.079113 45.768008 
L 168.278021 45.658689 
M 166.747558 37.022506 
Q 166.747558 37.058946 165.344634 40.356729 
Q 163.94171 43.654512 163.90527 45.330733 
L 163.577314 45.986645 
M 160.844344 38.006375 
Q 160.953663 38.188573 161.372719 38.899145 
Q 161.791774 39.609717 162.046851 39.974113 
L 163.249357 41.285938 
M 158.330013 40.192751 
L 158.657969 40.192751 
Q 159.022365 40.192751 159.44142 40.575366 
Q 159.860476 40.957982 160.279531 41.504576 
Q 160.698586 42.05117 160.844344 42.160488 
L 161.500257 43.035039 
M 158.111375 35.164087 
L 164.233226 35.054769 
M 160.516388 28.386324 
Q 161.135861 28.969357 162.192609 30.171864 
Q 163.249357 31.37437 163.86883 31.993843 
Q 164.488303 32.613316 165.599711 33.214569 
Q 166.711118 33.815823 168.022943 33.961581 
M 161.28162 27.074499 
Q 161.026542 27.438895 160.33419 28.513862 
Q 159.641838 29.58883 159.222783 30.135424 
Q 158.803728 30.682018 158.129595 31.483689 
Q 157.455463 32.28536 156.726671 32.777294 
Q 155.997879 33.269229 155.159769 33.524306 
L 154.066581 34.0709 
M 143.571979 43.435874 
Q 144.37365 43.107918 145.885893 42.415566 
Q 147.398136 41.723213 148.400225 41.322378 
Q 149.402314 40.921542 150.714139 40.520707 
L 150.313303 40.192751 
M 145.976992 29.880347 
L 145.976992 30.317622 
Q 146.013432 31.009974 145.940553 31.775206 
Q 145.867674 32.540437 145.721915 33.487866 
Q 145.576157 34.435296 145.539717 34.90901 
Q 145.503278 35.127648 145.357519 35.692461 
Q 145.211761 36.257275 145.211761 36.548792 
Q 145.138882 36.986067 145.539717 36.840308 
Q 145.649036 36.840308 145.904113 36.73099 
Q 146.377828 36.512352 146.523586 36.548792 
Q 147.143059 36.69455 149.019698 36.421253 
Q 150.896337 36.147956 152.463239 35.82 
L 154.066581 35.492044 
Q 154.066581 36.69455 153.428888 42.05117 
Q 152.791195 47.407789 152.463239 47.407789 
Q 152.098843 47.407789 151.588689 46.952294 
Q 151.078535 46.496799 150.896337 46.42392 
L 149.73027 45.54937 
M 144.44653 28.568522 
L 151.625129 27.621093 
L 150.932776 31.775206 
L 150.167545 34.94545 
" clip-path="url(#p90b6c2db84)" style="fill: none; stroke: #000000; stroke-linejoin: miter"/>
   </g>
  </g>
  <g id="axes_7">
   <g id="patch_8">
    <path d="M 183.581441 38.894152 
L 183.581441 47.891669 
M 175.371207 47.366814 
L 177.733055 47.366814 
Q 182.306793 47.554262 191.904145 46.804469 
L 193.47871 46.804469 
M 179.645028 41.968303 
L 180.319841 41.968303 
Q 180.357331 41.968303 184.031317 41.743366 
L 188.305138 41.068552 
M 185.605883 36.119917 
Q 185.980779 36.344855 186.186972 37.019669 
Q 186.393166 37.694483 186.730572 37.919421 
L 187.517855 39.493986 
M 183.244034 33.420662 
Q 182.569221 34.207945 181.51951 36.101172 
Q 180.4698 37.9944 179.757497 38.819172 
L 181.332062 38.819172 
L 186.843041 37.806952 
M 179.42009 33.195724 
L 182.794159 33.195724 
Q 183.244034 33.158234 185.212241 33.214469 
Q 187.180448 33.270703 187.630324 32.970786 
M 183.506462 25.99771 
Q 183.993828 26.335117 184.406214 26.897462 
L 185.305966 28.584497 
M 176.08351 30.721407 
Q 178.145441 30.34651 183.581441 30.102828 
Q 189.017441 29.859145 191.829166 29.034372 
Q 192.691428 28.734455 192.653938 29.109352 
Q 192.616448 29.409269 191.791676 30.496469 
Q 191.266821 31.171283 191.154352 31.396221 
M 176.758324 28.24709 
L 175.408697 31.621159 
L 175.07129 32.183503 
" clip-path="url(#pd87fd7bce0)" style="fill: none; stroke: #000000; stroke-linejoin: miter"/>
   </g>
  </g>
  <g id="axes_8">
   <g id="patch_9">
    <path d="M 200.28614 44.633472 
Q 201.387824 44.706917 203.517746 44.358051 
Q 205.647668 44.009184 206.45557 43.972461 
Q 208.475324 43.899016 224.96386 43.311451 
M 210.862306 25.647785 
L 211.082642 40.814301 
L 211.192811 43.641956 
M 207.336917 39.271943 
L 214.718199 39.271943 
M 206.675907 34.351088 
Q 206.786075 34.351088 207.593977 34.296004 
Q 208.401878 34.24092 208.548769 34.24092 
L 209.760622 34.24092 
L 215.599547 34.24092 
Q 215.562824 34.057306 215.599547 33.892053 
Q 215.636269 33.726801 215.728076 33.524825 
Q 215.819883 33.32285 215.819883 33.249404 
Q 216.29728 31.119482 218.684262 25.97829 
Q 218.390479 25.757953 218.353756 25.757953 
Q 216.29728 25.757953 212.165965 25.868122 
Q 208.03465 25.97829 206.014896 25.97829 
L 204.803044 25.97829 
M 207.997927 29.834184 
L 213.947021 29.834184 
M 205.133549 26.418964 
L 206.014896 33.910415 
" clip-path="url(#p1084de468c)" style="fill: none; stroke: #000000; stroke-linejoin: miter"/>
   </g>
  </g>
  <g id="axes_9">
   <g id="patch_10">
    <path d="M 228.503726 46.553474 
L 229.117067 46.553474 
Q 230.105228 46.553474 230.582272 46.553474 
L 230.616346 46.553474 
Q 230.003005 46.519399 231.059315 46.417175 
Q 231.468209 46.383101 232.08155 46.349026 
L 252.730709 46.246803 
L 253.446274 46.042356 
M 240.463882 28.7325 
L 240.361659 46.246803 
M 233.001562 28.766575 
L 249.050661 27.982861 
" clip-path="url(#p969fd4856b)" style="fill: none; stroke: #000000; stroke-linejoin: miter"/>
   </g>
  </g>
  <g id="axes_10">
   <g id="patch_11">
    <path d="M 270.505924 40.731145 
L 277.591469 40.243779 
M 270.393455 35.707531 
L 270.730862 35.707531 
L 276.579248 34.845269 
L 276.916655 34.7328 
M 270.393455 30.533959 
L 270.280986 31.658648 
L 270.280986 42.230731 
L 270.018559 48.528993 
M 269.156297 30.533959 
Q 269.156297 30.533959 269.718641 30.533959 
Q 269.756131 30.533959 271.855552 30.196552 
L 280.065786 28.846924 
M 273.317648 25.360386 
Q 271.293207 29.559228 267.769179 33.6456 
L 265.894697 35.370124 
M 263.195441 32.146014 
L 263.195441 32.59589 
Q 263.195441 32.633379 262.970503 34.507862 
L 263.082972 46.542041 
L 262.970503 47.666731 
M 266.007166 27.872193 
Q 265.707248 28.322069 265.126159 29.315545 
Q 264.545069 30.309021 264.151428 30.89011 
Q 263.757786 31.4712 263.101717 32.183503 
Q 262.445648 32.895807 261.733345 33.270703 
L 260.158779 34.545352 
L 258.584214 35.85749 
" clip-path="url(#p14a1157468)" style="fill: none; stroke: #000000; stroke-linejoin: miter"/>
   </g>
  </g>
  <g id="axes_11">
   <g id="patch_12">
    <path d="M 298.143621 42.043283 
Q 298.143621 42.043283 297.356338 42.043283 
Q 296.344117 42.043283 295.725538 42.811821 
Q 295.106959 43.580359 295.106959 44.630069 
Q 295.069469 45.679779 295.800517 46.260869 
Q 296.531566 46.841959 297.581276 46.65451 
Q 297.881193 46.617021 298.368559 46.579531 
Q 298.855924 46.542041 299.118352 46.504552 
Q 299.380779 46.467062 299.699441 46.317103 
Q 300.018103 46.167145 300.149317 45.810993 
Q 300.280531 45.454841 300.280531 44.855007 
Q 300.280531 44.592579 300.168062 44.330152 
Q 300.055593 44.067724 299.868145 43.749062 
Q 299.680697 43.4304 299.605717 43.280441 
L 298.481028 42.605628 
" clip-path="url(#p4dd1a9472c)" style="fill: none; stroke: #000000; stroke-linejoin: miter"/>
   </g>
  </g>
 </g>
 <defs>
  <clipPath id="pf906f05ead">
   <rect x="1.953372" y="8.64" width="24.443255" height="54.36"/>
  </clipPath>
  <clipPath id="pb0e08d5dc2">
   <rect x="28.35" y="10.063421" width="28.35" height="51.513158"/>
  </clipPath>
  <clipPath id="p70862b561f">
   <rect x="58.709607" y="8.64" width="24.330786" height="54.36"/>
  </clipPath>
  <clipPath id="p80feb3ef68">
   <rect x="86.665966" y="8.64" width="25.118069" height="54.36"/>
  </clipPath>
  <clipPath id="p40ff38ad46">
   <rect x="115.915717" y="8.64" width="23.318566" height="54.36"/>
  </clipPath>
  <clipPath id="p90b6c2db84">
   <rect x="141.75" y="9.401298" width="28.35" height="52.837404"/>
  </clipPath>
  <clipPath id="pd87fd7bce0">
   <rect x="173.196807" y="8.64" width="22.156386" height="54.36"/>
  </clipPath>
  <clipPath id="p1084de468c">
   <rect x="198.45" y="9.195972" width="28.35" height="53.248057"/>
  </clipPath>
  <clipPath id="p969fd4856b">
   <rect x="226.8" y="11.115974" width="28.35" height="49.408053"/>
  </clipPath>
  <clipPath id="p14a1157468">
   <rect x="256.709731" y="8.64" width="25.230538" height="54.36"/>
  </clipPath>
  <clipPath id="p4dd1a9472c">
   <rect x="293.194986" y="8.64" width="8.960028" height="54.36"/>
  </clipPath>
 </defs>
</svg>
