<?xml version="1.0" encoding="utf-8" standalone="no"?>
<!DOCTYPE svg PUBLIC "-//W3C//DTD SVG 1.1//EN"
  "http://www.w3.org/Graphics/SVG/1.1/DTD/svg11.dtd">
<svg xmlns:xlink="http://www.w3.org/1999/xlink" width="558pt" height="72pt" viewBox="0 0 558 72" xmlns="http://www.w3.org/2000/svg" version="1.1">
 <metadata>
  <rdf:RDF xmlns:dc="http://purl.org/dc/elements/1.1/" xmlns:cc="http://creativecommons.org/ns#" xmlns:rdf="http://www.w3.org/1999/02/22-rdf-syntax-ns#">
   <cc:Work>
    <dc:type rdf:resource="http://purl.org/dc/dcmitype/StillImage"/>
    <dc:date>2023-02-15T22:55:11.650323</dc:date>
    <dc:format>image/svg+xml</dc:format>
    <dc:creator>
     <cc:Agent>
      <dc:title>Matplotlib v3.6.1, https://matplotlib.org/</dc:title>
     </cc:Agent>
    </dc:creator>
   </cc:Work>
  </rdf:RDF>
 </metadata>
 <defs>
  <style type="text/css">*{stroke-linejoin: round; stroke-linecap: butt}</style>
 </defs>
 <g id="figure_1">
  <g id="patch_1">
   <path d="M 0 72 
L 558 72 
L 558 0 
L 0 0 
z
" style="fill: #8fff9f"/>
  </g>
  <g id="axes_1">
   <g id="patch_2">
    <path d="M 13.356735 34.365306 
Q 13.356735 34.365306 12.860816 34.365306 
Q 12.067347 34.365306 10.579592 34.067755 
Q 9.091837 33.770204 8.298367 33.770204 
Q 5.521224 33.770204 3.587143 35.224898 
Q 1.653061 36.679592 1.653061 39.423673 
Q 1.653061 40.94449 3.140816 42.399184 
Q 4.628571 43.853878 6.562653 44.663878 
Q 8.496735 45.473878 9.98449 45.473878 
Q 10.910204 45.473878 11.60449 45.110204 
Q 12.298776 44.746531 13.042653 44.118367 
Q 13.786531 43.490204 14.348571 43.192653 
L 14.546939 42.696735 
" clip-path="url(#p0fbd935171)" style="fill: none; stroke: #000000; stroke-linejoin: miter"/>
   </g>
  </g>
  <g id="axes_2">
   <g id="patch_3">
    <path d="M 27.5616 35.032717 
Q 26.51189 34.582841 25.537159 34.69531 
Q 22.500497 35.032717 20.588524 36.701007 
Q 18.676552 38.369297 18.676552 41.330979 
Q 18.676552 43.917766 20.682248 45.6048 
Q 22.687945 47.291834 25.312221 47.291834 
Q 27.674069 47.291834 28.798759 45.361117 
Q 29.923448 43.4304 29.923448 40.881103 
Q 29.923448 39.643945 29.511062 38.706703 
Q 29.098676 37.769462 28.573821 37.300841 
Q 28.048966 36.832221 27.299172 36.119917 
Q 26.549379 35.407614 26.099503 34.69531 
L 24.862345 34.245434 
" clip-path="url(#p7045f1a5d1)" style="fill: none; stroke: #000000; stroke-linejoin: miter"/>
   </g>
  </g>
  <g id="axes_3">
   <g id="patch_4">
    <path d="M 36.038731 37.282097 
L 36.038731 37.844441 
Q 36.301159 39.868883 36.338648 41.312234 
Q 36.376138 42.755586 36.282414 44.667559 
Q 36.18869 46.579531 36.18869 48.191586 
L 36.263669 39.643945 
Q 36.263669 38.144359 37.856979 37.507034 
Q 39.45029 36.86971 40.874897 37.282097 
Q 42.786869 37.844441 43.705366 39.04411 
Q 44.623862 40.243779 44.680097 41.668386 
Q 44.736331 43.092993 44.773821 44.817517 
Q 44.81131 46.542041 44.961269 48.191586 
" clip-path="url(#p5f17789ff9)" style="fill: none; stroke: #000000; stroke-linejoin: miter"/>
   </g>
  </g>
  <g id="axes_4">
   <g id="patch_5">
    <path d="M 60.299007 39.568966 
Q 58.949379 38.181848 56.7 38.444276 
Q 53.850786 38.444276 52.688607 39.793903 
Q 51.526428 41.143531 51.526428 44.067724 
Q 51.526428 45.56731 52.819821 46.279614 
Q 54.113214 46.991917 55.687779 46.991917 
Q 56.999917 46.991917 58.012138 45.736014 
Q 59.024359 44.48011 59.605448 42.30571 
Q 60.186538 40.13131 60.561434 37.938166 
Q 60.936331 35.745021 61.08629 33.045766 
Q 61.236248 30.34651 61.273738 28.978138 
Q 61.311228 27.609766 61.311228 26.185159 
Q 61.08629 26.260138 61.08629 29.896634 
L 61.08629 44.292662 
L 61.873572 48.229076 
" clip-path="url(#p0ec13651a3)" style="fill: none; stroke: #000000; stroke-linejoin: miter"/>
   </g>
  </g>
  <g id="axes_5">
   <g id="patch_6">
    <path d="M 68.288772 35.145186 
Q 68.288772 35.145186 68.288772 35.595062 
Q 68.288772 36.269876 68.176303 37.619503 
Q 68.063834 38.969131 68.063834 39.643945 
Q 68.063834 41.930814 69.300993 43.599103 
Q 70.538152 45.267393 72.675062 45.267393 
Q 74.062179 45.154924 74.830717 43.917766 
Q 75.599255 42.680607 75.749214 41.237255 
Q 75.899172 39.793903 76.1616 37.9944 
Q 76.424028 36.194897 76.836414 35.370124 
Q 76.986372 35.070207 76.986372 35.670041 
Q 76.986372 36.269876 76.723945 38.706703 
Q 76.499007 41.031062 76.499007 41.555917 
Q 76.349048 42.643117 76.686455 43.767807 
Q 77.023862 44.892497 77.736166 45.6048 
" clip-path="url(#p9bf12116a9)" style="fill: none; stroke: #000000; stroke-linejoin: miter"/>
   </g>
  </g>
  <g id="axes_6">
   <g id="patch_7">
    <path d="M 94.356735 34.365306 
Q 94.356735 34.365306 93.860816 34.365306 
Q 93.067347 34.365306 91.579592 34.067755 
Q 90.091837 33.770204 89.298367 33.770204 
Q 86.521224 33.770204 84.587143 35.224898 
Q 82.653061 36.679592 82.653061 39.423673 
Q 82.653061 40.94449 84.140816 42.399184 
Q 85.628571 43.853878 87.562653 44.663878 
Q 89.496735 45.473878 90.98449 45.473878 
Q 91.910204 45.473878 92.60449 45.110204 
Q 93.298776 44.746531 94.042653 44.118367 
Q 94.786531 43.490204 95.348571 43.192653 
L 95.546939 42.696735 
" clip-path="url(#p901bbceb74)" style="fill: none; stroke: #000000; stroke-linejoin: miter"/>
   </g>
  </g>
  <g id="axes_7">
   <g id="patch_8">
    <path d="M 100.463834 37.95691 
L 101.138648 37.95691 
Q 101.850952 37.95691 102.638234 37.881931 
Q 103.425517 37.806952 104.381503 37.675738 
Q 105.33749 37.544524 105.862345 37.507034 
L 110.136166 35.82 
M 106.087283 30.42149 
L 106.087283 31.43371 
Q 106.087283 33.383172 105.412469 37.207117 
Q 104.737655 41.031062 104.737655 43.018014 
Q 104.737655 43.805297 104.737655 44.105214 
Q 104.737655 44.405131 104.831379 45.042455 
Q 104.925103 45.679779 105.112552 45.960952 
Q 105.3 46.242124 105.693641 46.485807 
Q 106.087283 46.72949 106.649628 46.72949 
Q 106.762097 46.692 107.080759 46.72949 
Q 107.399421 46.766979 107.586869 46.710745 
Q 107.774317 46.65451 107.774317 46.392083 
" clip-path="url(#p805aa73305)" style="fill: none; stroke: #000000; stroke-linejoin: miter"/>
   </g>
  </g>
  <g id="axes_8">
   <g id="patch_9">
    <path d="M 122.118579 29.071862 
Q 121.743683 29.146841 121.612469 29.577972 
Q 121.481255 30.009103 121.556234 30.42149 
Q 121.556234 30.571448 121.593724 30.702662 
Q 121.631214 30.833876 121.687448 30.89011 
Q 121.743683 30.946345 121.799917 31.040069 
Q 121.856152 31.133793 121.893641 31.208772 
L 122.00611 29.859145 
M 122.00611 34.020497 
Q 121.106359 39.006621 120.881421 42.793076 
L 121.331297 45.379862 
L 121.668703 46.054676 
" clip-path="url(#pccdda13787)" style="fill: none; stroke: #000000; stroke-linejoin: miter"/>
   </g>
  </g>
  <g id="axes_9">
   <g id="patch_10">
    <path d="M 133.238731 37.282097 
L 133.238731 37.844441 
Q 133.501159 39.868883 133.538648 41.312234 
Q 133.576138 42.755586 133.482414 44.667559 
Q 133.38869 46.579531 133.38869 48.191586 
L 133.463669 39.643945 
Q 133.463669 38.144359 135.056979 37.507034 
Q 136.65029 36.86971 138.074897 37.282097 
Q 139.986869 37.844441 140.905366 39.04411 
Q 141.823862 40.243779 141.880097 41.668386 
Q 141.936331 43.092993 141.973821 44.817517 
Q 142.01131 46.542041 142.161269 48.191586 
" clip-path="url(#p5d6632183d)" style="fill: none; stroke: #000000; stroke-linejoin: miter"/>
   </g>
  </g>
  <g id="axes_10">
   <g id="patch_11">
    <path d="M 158.687191 39.096404 
Q 158.43236 39.023596 157.46764 38.623146 
Q 156.502921 38.222697 155.84764 38.077079 
Q 155.19236 37.931461 154.537079 38.00427 
Q 151.915955 38.00427 150.277753 40.388764 
Q 148.639551 42.773258 148.639551 45.430787 
Q 148.639551 47.068989 153.881798 47.068989 
Q 155.447191 47.068989 156.775955 45.558202 
Q 158.104719 44.047416 158.778202 42.172584 
Q 159.451685 40.297753 159.451685 38.768764 
Q 159.451685 37.27618 159.415281 36.984944 
L 159.342472 38.077079 
Q 159.342472 38.550337 159.342472 38.987191 
Q 159.378876 40.188539 159.579101 42.281798 
Q 159.779326 44.375056 159.943146 46.049663 
Q 160.106966 47.72427 160.143371 49.872135 
Q 160.179775 52.02 160.015955 53.658202 
Q 159.852135 55.296404 159.287865 56.971011 
Q 158.723596 58.645618 157.795281 59.737753 
Q 156.866966 60.829888 155.265169 61.521573 
Q 153.663371 62.213258 151.515506 62.213258 
Q 149.877303 62.213258 148.785169 61.466966 
Q 147.693034 60.720674 147.693034 59.155281 
Q 147.620225 58.936854 147.656629 58.936854 
Q 147.693034 58.936854 147.802247 58.936854 
Q 147.911461 58.936854 147.911461 58.82764 
" clip-path="url(#pf6aa5670b4)" style="fill: none; stroke: #000000; stroke-linejoin: miter"/>
   </g>
  </g>
  <g id="axes_11"/>
  <g id="axes_12">
   <g id="patch_12">
    <path d="M 182.026179 34.807779 
Q 183.638234 36.719752 184.931628 39.6252 
Q 186.225021 42.530648 186.524938 45.154924 
Q 187.574648 43.655338 188.493145 38.819172 
Q 189.411641 33.983007 190.573821 32.108524 
" clip-path="url(#p6e7edf03b0)" style="fill: none; stroke: #000000; stroke-linejoin: miter"/>
   </g>
  </g>
  <g id="axes_13">
   <g id="patch_13">
    <path d="M 208.043923 36.441748 
Q 206.834968 35.094627 202.862687 35.094627 
Q 201.342857 35.094627 200.565672 35.146439 
Q 199.788486 35.198252 198.78678 35.440043 
Q 197.785075 35.681834 197.301493 36.182687 
Q 196.81791 36.683539 196.472495 37.616162 
Q 196.127079 38.548785 196.127079 39.964989 
Q 196.127079 42.037484 197.543284 43.280981 
Q 198.959488 44.524478 200.893817 44.524478 
Q 203.553518 44.524478 206.316844 38.721493 
Q 207.663966 35.854542 207.663966 35.82 
Q 208.009382 35.578209 208.043923 36.441748 
Q 208.043923 37.512537 208.458422 40.362217 
Q 208.872921 43.211898 208.872921 44.524478 
" clip-path="url(#pfddb2d4693)" style="fill: none; stroke: #000000; stroke-linejoin: miter"/>
   </g>
  </g>
  <g id="axes_14">
   <g id="patch_14">
    <path d="M 215.213462 32.783338 
Q 215.738317 34.507862 215.869531 36.457324 
Q 216.000745 38.406786 215.925766 40.956083 
Q 215.850786 43.505379 215.888276 44.705048 
L 216.000745 46.054676 
L 216.000745 45.829738 
Q 216.000745 44.667559 215.719572 42.30571 
Q 215.4384 39.943862 215.4384 38.744193 
Q 215.4384 36.419834 216.450621 34.882759 
Q 217.462841 33.345683 219.487283 33.345683 
Q 220.199586 33.345683 220.536993 33.626855 
Q 220.8744 33.908028 221.136828 34.432883 
Q 221.399255 34.957738 221.736662 35.257655 
L 222.186538 36.832221 
" clip-path="url(#p3b7ba78a4d)" style="fill: none; stroke: #000000; stroke-linejoin: miter"/>
   </g>
  </g>
  <g id="axes_15">
   <g id="patch_15">
    <path d="M 235.518579 29.071862 
Q 235.143683 29.146841 235.012469 29.577972 
Q 234.881255 30.009103 234.956234 30.42149 
Q 234.956234 30.571448 234.993724 30.702662 
Q 235.031214 30.833876 235.087448 30.89011 
Q 235.143683 30.946345 235.199917 31.040069 
Q 235.256152 31.133793 235.293641 31.208772 
L 235.40611 29.859145 
M 235.40611 34.020497 
Q 234.506359 39.006621 234.281421 42.793076 
L 234.731297 45.379862 
L 235.068703 46.054676 
" clip-path="url(#pdb5cc1a5b1)" style="fill: none; stroke: #000000; stroke-linejoin: miter"/>
   </g>
  </g>
  <g id="axes_16">
   <g id="patch_16">
    <path d="M 254.3616 35.032717 
Q 253.31189 34.582841 252.337159 34.69531 
Q 249.300497 35.032717 247.388524 36.701007 
Q 245.476552 38.369297 245.476552 41.330979 
Q 245.476552 43.917766 247.482248 45.6048 
Q 249.487945 47.291834 252.112221 47.291834 
Q 254.474069 47.291834 255.598759 45.361117 
Q 256.723448 43.4304 256.723448 40.881103 
Q 256.723448 39.643945 256.311062 38.706703 
Q 255.898676 37.769462 255.373821 37.300841 
Q 254.848966 36.832221 254.099172 36.119917 
Q 253.349379 35.407614 252.899503 34.69531 
L 251.662345 34.245434 
" clip-path="url(#pb23d0daa89)" style="fill: none; stroke: #000000; stroke-linejoin: miter"/>
   </g>
  </g>
  <g id="axes_17">
   <g id="patch_17">
    <path d="M 262.688772 35.145186 
Q 262.688772 35.145186 262.688772 35.595062 
Q 262.688772 36.269876 262.576303 37.619503 
Q 262.463834 38.969131 262.463834 39.643945 
Q 262.463834 41.930814 263.700993 43.599103 
Q 264.938152 45.267393 267.075062 45.267393 
Q 268.462179 45.154924 269.230717 43.917766 
Q 269.999255 42.680607 270.149214 41.237255 
Q 270.299172 39.793903 270.5616 37.9944 
Q 270.824028 36.194897 271.236414 35.370124 
Q 271.386372 35.070207 271.386372 35.670041 
Q 271.386372 36.269876 271.123945 38.706703 
Q 270.899007 41.031062 270.899007 41.555917 
Q 270.749048 42.643117 271.086455 43.767807 
Q 271.423862 44.892497 272.136166 45.6048 
" clip-path="url(#pe6aa2b369c)" style="fill: none; stroke: #000000; stroke-linejoin: miter"/>
   </g>
  </g>
  <g id="axes_18">
   <g id="patch_18">
    <path d="M 279.057476 43.917766 
Q 279.357393 44.180193 280.369614 45.154924 
Q 281.381834 46.129655 281.944179 46.560786 
Q 282.506524 46.991917 283.53749 47.385559 
Q 284.568455 47.7792 285.580676 47.629241 
Q 286.25549 47.629241 286.72411 47.404303 
Q 287.192731 47.179366 287.417669 46.879448 
Q 287.642607 46.579531 287.773821 45.979697 
Q 287.905034 45.379862 287.923779 44.967476 
Q 287.942524 44.55509 287.942524 43.805297 
Q 287.942524 42.718097 287.042772 42.043283 
Q 286.143021 41.368469 284.849628 41.031062 
Q 283.556234 40.693655 282.262841 40.300014 
Q 280.969448 39.906372 280.069697 38.987876 
Q 279.169945 38.069379 279.169945 36.607283 
Q 279.169945 36.082428 279.338648 35.726276 
Q 279.507352 35.370124 279.900993 35.145186 
Q 280.294634 34.920248 280.575807 34.807779 
Q 280.856979 34.69531 281.513048 34.639076 
Q 282.169117 34.582841 282.356566 34.582841 
Q 282.544014 34.582841 283.218828 34.582841 
Q 284.418497 34.582841 284.999586 34.995228 
Q 285.580676 35.407614 285.899338 36.026193 
Q 286.218 36.644772 286.480428 36.832221 
" clip-path="url(#pac891c88f7)" style="fill: none; stroke: #000000; stroke-linejoin: miter"/>
   </g>
  </g>
  <g id="axes_19"/>
  <g id="axes_20">
   <g id="patch_19">
    <path d="M 309.657798 38.160826 
Q 312.630275 39.535596 317.349083 39.721376 
Q 318.872477 39.721376 319.559862 38.550963 
Q 320.247248 37.38055 320.247248 35.82 
Q 320.247248 35.299817 320.154358 34.909679 
Q 320.061468 34.519541 319.819954 34.296606 
Q 319.57844 34.07367 319.411239 33.943624 
Q 319.244037 33.813578 318.798165 33.757844 
Q 318.352294 33.70211 318.147936 33.683532 
Q 317.943578 33.664954 317.367661 33.683532 
Q 316.791743 33.70211 316.568807 33.70211 
Q 314.525229 33.70211 313.038991 35.578486 
Q 311.552752 37.454862 311.552752 39.609908 
Q 311.552752 42.619541 313.484862 44.570229 
Q 315.416972 46.520917 318.463761 46.520917 
Q 320.618807 46.818165 322.142202 44.29156 
" clip-path="url(#pe51897a5ba)" style="fill: none; stroke: #000000; stroke-linejoin: miter"/>
   </g>
  </g>
  <g id="axes_21">
   <g id="patch_20">
    <path d="M 335.699007 34.920248 
Q 334.836745 36.007448 331.725103 40.018841 
Q 328.613462 44.030234 326.926428 46.054676 
M 327.826179 36.044938 
Q 329.700662 37.319586 332.193724 40.843614 
Q 334.686786 44.367641 336.261352 45.6048 
L 337.273572 45.942207 
" clip-path="url(#p00c9978e6d)" style="fill: none; stroke: #000000; stroke-linejoin: miter"/>
   </g>
  </g>
  <g id="axes_22">
   <g id="patch_21">
    <path d="M 343.520069 39.868883 
L 343.520069 39.419007 
Q 343.520069 37.769462 345.263338 36.682262 
Q 347.006607 35.595062 348.693641 35.595062 
Q 350.905531 35.595062 352.273903 36.794731 
Q 353.642276 37.9944 353.642276 40.20629 
Q 353.642276 42.30571 351.824028 43.336676 
Q 350.005779 44.367641 347.79389 44.367641 
Q 347.119076 44.367641 346.612966 44.255172 
Q 346.106855 44.142703 345.488276 43.917766 
Q 344.869697 43.692828 344.419821 43.580359 
L 343.295131 42.568138 
M 342.957724 36.832221 
Q 343.4076 38.444276 343.670028 40.262524 
Q 343.932455 42.080772 343.98869 43.749062 
Q 344.044924 45.417352 344.082414 47.27309 
Q 344.119903 49.128828 344.082414 50.778372 
L 343.969945 57.863917 
" clip-path="url(#pc40136b893)" style="fill: none; stroke: #000000; stroke-linejoin: miter"/>
   </g>
  </g>
  <g id="axes_23">
   <g id="patch_22">
    <path d="M 358.257798 38.160826 
Q 361.230275 39.535596 365.949083 39.721376 
Q 367.472477 39.721376 368.159862 38.550963 
Q 368.847248 37.38055 368.847248 35.82 
Q 368.847248 35.299817 368.754358 34.909679 
Q 368.661468 34.519541 368.419954 34.296606 
Q 368.17844 34.07367 368.011239 33.943624 
Q 367.844037 33.813578 367.398165 33.757844 
Q 366.952294 33.70211 366.747936 33.683532 
Q 366.543578 33.664954 365.967661 33.683532 
Q 365.391743 33.70211 365.168807 33.70211 
Q 363.125229 33.70211 361.638991 35.578486 
Q 360.152752 37.454862 360.152752 39.609908 
Q 360.152752 42.619541 362.084862 44.570229 
Q 364.016972 46.520917 367.063761 46.520917 
Q 369.218807 46.818165 370.742202 44.29156 
" clip-path="url(#p5e2abaab74)" style="fill: none; stroke: #000000; stroke-linejoin: miter"/>
   </g>
  </g>
  <g id="axes_24">
   <g id="patch_23">
    <path d="M 377.213462 32.783338 
Q 377.738317 34.507862 377.869531 36.457324 
Q 378.000745 38.406786 377.925766 40.956083 
Q 377.850786 43.505379 377.888276 44.705048 
L 378.000745 46.054676 
L 378.000745 45.829738 
Q 378.000745 44.667559 377.719572 42.30571 
Q 377.4384 39.943862 377.4384 38.744193 
Q 377.4384 36.419834 378.450621 34.882759 
Q 379.462841 33.345683 381.487283 33.345683 
Q 382.199586 33.345683 382.536993 33.626855 
Q 382.8744 33.908028 383.136828 34.432883 
Q 383.399255 34.957738 383.736662 35.257655 
L 384.186538 36.832221 
" clip-path="url(#p0d83686295)" style="fill: none; stroke: #000000; stroke-linejoin: miter"/>
   </g>
  </g>
  <g id="axes_25">
   <g id="patch_24">
    <path d="M 397.518579 29.071862 
Q 397.143683 29.146841 397.012469 29.577972 
Q 396.881255 30.009103 396.956234 30.42149 
Q 396.956234 30.571448 396.993724 30.702662 
Q 397.031214 30.833876 397.087448 30.89011 
Q 397.143683 30.946345 397.199917 31.040069 
Q 397.256152 31.133793 397.293641 31.208772 
L 397.40611 29.859145 
M 397.40611 34.020497 
Q 396.506359 39.006621 396.281421 42.793076 
L 396.731297 45.379862 
L 397.068703 46.054676 
" clip-path="url(#pbddc3e1775)" style="fill: none; stroke: #000000; stroke-linejoin: miter"/>
   </g>
  </g>
  <g id="axes_26">
   <g id="patch_25">
    <path d="M 406.808036 34.879821 
Q 407.314286 36.073125 407.603571 42.871339 
Q 407.748214 46.632054 408.0375 46.632054 
Q 408.073661 46.632054 408.109821 46.595893 
Q 408.616071 46.017321 408.670313 44.588973 
Q 408.724554 43.160625 408.507589 41.750357 
Q 408.290625 40.340089 408.0375 38.712857 
Q 407.784375 37.085625 407.784375 36.398571 
Q 407.784375 35.169107 408.164063 33.939643 
Q 408.54375 32.710179 409.520089 32.710179 
Q 410.749554 32.710179 411.472768 34.355491 
Q 412.195982 36.000804 412.358705 37.971563 
Q 412.521429 39.942321 412.629911 41.587634 
Q 412.738393 43.232946 412.883036 43.232946 
Q 413.027679 43.232946 413.11808 41.497232 
Q 413.208482 39.761518 413.335045 37.700357 
Q 413.461607 35.639196 414.184821 33.903482 
Q 414.908036 32.167768 416.1375 32.167768 
Q 417.692411 33.035625 418.361384 34.771339 
Q 419.030357 36.507054 418.994196 38.188527 
Q 418.958036 39.87 418.976116 42.057723 
Q 418.994196 44.245446 419.391964 45.511071 
" clip-path="url(#paf31d1e852)" style="fill: none; stroke: #000000; stroke-linejoin: miter"/>
   </g>
  </g>
  <g id="axes_27">
   <g id="patch_26">
    <path d="M 423.057798 38.160826 
Q 426.030275 39.535596 430.749083 39.721376 
Q 432.272477 39.721376 432.959862 38.550963 
Q 433.647248 37.38055 433.647248 35.82 
Q 433.647248 35.299817 433.554358 34.909679 
Q 433.461468 34.519541 433.219954 34.296606 
Q 432.97844 34.07367 432.811239 33.943624 
Q 432.644037 33.813578 432.198165 33.757844 
Q 431.752294 33.70211 431.547936 33.683532 
Q 431.343578 33.664954 430.767661 33.683532 
Q 430.191743 33.70211 429.968807 33.70211 
Q 427.925229 33.70211 426.438991 35.578486 
Q 424.952752 37.454862 424.952752 39.609908 
Q 424.952752 42.619541 426.884862 44.570229 
Q 428.816972 46.520917 431.863761 46.520917 
Q 434.018807 46.818165 435.542202 44.29156 
" clip-path="url(#pa042151f44)" style="fill: none; stroke: #000000; stroke-linejoin: miter"/>
   </g>
  </g>
  <g id="axes_28">
   <g id="patch_27">
    <path d="M 441.038731 37.282097 
L 441.038731 37.844441 
Q 441.301159 39.868883 441.338648 41.312234 
Q 441.376138 42.755586 441.282414 44.667559 
Q 441.18869 46.579531 441.18869 48.191586 
L 441.263669 39.643945 
Q 441.263669 38.144359 442.856979 37.507034 
Q 444.45029 36.86971 445.874897 37.282097 
Q 447.786869 37.844441 448.705366 39.04411 
Q 449.623862 40.243779 449.680097 41.668386 
Q 449.736331 43.092993 449.773821 44.817517 
Q 449.81131 46.542041 449.961269 48.191586 
" clip-path="url(#p21e37bd3a8)" style="fill: none; stroke: #000000; stroke-linejoin: miter"/>
   </g>
  </g>
  <g id="axes_29">
   <g id="patch_28">
    <path d="M 456.863834 37.95691 
L 457.538648 37.95691 
Q 458.250952 37.95691 459.038234 37.881931 
Q 459.825517 37.806952 460.781503 37.675738 
Q 461.73749 37.544524 462.262345 37.507034 
L 466.536166 35.82 
M 462.487283 30.42149 
L 462.487283 31.43371 
Q 462.487283 33.383172 461.812469 37.207117 
Q 461.137655 41.031062 461.137655 43.018014 
Q 461.137655 43.805297 461.137655 44.105214 
Q 461.137655 44.405131 461.231379 45.042455 
Q 461.325103 45.679779 461.512552 45.960952 
Q 461.7 46.242124 462.093641 46.485807 
Q 462.487283 46.72949 463.049628 46.72949 
Q 463.162097 46.692 463.480759 46.72949 
Q 463.799421 46.766979 463.986869 46.710745 
Q 464.174317 46.65451 464.174317 46.392083 
" clip-path="url(#p121b53fa3f)" style="fill: none; stroke: #000000; stroke-linejoin: miter"/>
   </g>
  </g>
  <g id="axes_30">
   <g id="patch_29">
    <path d="M 473.457476 43.917766 
Q 473.757393 44.180193 474.769614 45.154924 
Q 475.781834 46.129655 476.344179 46.560786 
Q 476.906524 46.991917 477.93749 47.385559 
Q 478.968455 47.7792 479.980676 47.629241 
Q 480.65549 47.629241 481.12411 47.404303 
Q 481.592731 47.179366 481.817669 46.879448 
Q 482.042607 46.579531 482.173821 45.979697 
Q 482.305034 45.379862 482.323779 44.967476 
Q 482.342524 44.55509 482.342524 43.805297 
Q 482.342524 42.718097 481.442772 42.043283 
Q 480.543021 41.368469 479.249628 41.031062 
Q 477.956234 40.693655 476.662841 40.300014 
Q 475.369448 39.906372 474.469697 38.987876 
Q 473.569945 38.069379 473.569945 36.607283 
Q 473.569945 36.082428 473.738648 35.726276 
Q 473.907352 35.370124 474.300993 35.145186 
Q 474.694634 34.920248 474.975807 34.807779 
Q 475.256979 34.69531 475.913048 34.639076 
Q 476.569117 34.582841 476.756566 34.582841 
Q 476.944014 34.582841 477.618828 34.582841 
Q 478.818497 34.582841 479.399586 34.995228 
Q 479.980676 35.407614 480.299338 36.026193 
Q 480.618 36.644772 480.880428 36.832221 
" clip-path="url(#p8c1c816da0)" style="fill: none; stroke: #000000; stroke-linejoin: miter"/>
   </g>
  </g>
  <g id="axes_31">
   <g id="patch_30">
    <path d="M 493.987531 45.979697 
Q 493.950041 46.017186 493.818828 46.054676 
Q 493.687614 46.092166 493.725103 46.167145 
Q 493.725103 46.579531 494.1 46.579531 
Q 494.437407 46.579531 494.437407 46.092166 
Q 494.512386 45.867228 494.231214 45.754759 
Q 493.950041 45.64229 493.762593 45.754759 
" clip-path="url(#p896e516258)" style="fill: none; stroke: #000000; stroke-linejoin: miter"/>
   </g>
  </g>
 </g>
 <defs>
  <clipPath id="p0fbd935171">
   <rect x="0" y="11.850612" width="16.2" height="47.938776"/>
  </clipPath>
  <clipPath id="p7045f1a5d1">
   <rect x="16.802069" y="8.64" width="14.995862" height="54.36"/>
  </clipPath>
  <clipPath id="p5f17789ff9">
   <rect x="34.164248" y="8.64" width="12.671503" height="54.36"/>
  </clipPath>
  <clipPath id="p0ec13651a3">
   <rect x="49.651945" y="8.64" width="14.09611" height="54.36"/>
  </clipPath>
  <clipPath id="p9bf12116a9">
   <rect x="66.189352" y="8.64" width="13.421297" height="54.36"/>
  </clipPath>
  <clipPath id="p901bbceb74">
   <rect x="81" y="11.850612" width="16.2" height="47.938776"/>
  </clipPath>
  <clipPath id="p805aa73305">
   <rect x="98.589352" y="8.64" width="13.421297" height="54.36"/>
  </clipPath>
  <clipPath id="pccdda13787">
   <rect x="119.006938" y="8.64" width="4.986124" height="54.36"/>
  </clipPath>
  <clipPath id="p5d6632183d">
   <rect x="131.364248" y="8.64" width="12.671503" height="54.36"/>
  </clipPath>
  <clipPath id="pf6aa5670b4">
   <rect x="145.8" y="9.426742" width="16.2" height="52.786517"/>
  </clipPath>
  <clipPath id="p6e7edf03b0">
   <rect x="180.151697" y="8.64" width="12.296607" height="54.36"/>
  </clipPath>
  <clipPath id="pfddb2d4693">
   <rect x="194.4" y="10.777356" width="16.2" height="50.085288"/>
  </clipPath>
  <clipPath id="p3b7ba78a4d">
   <rect x="213.338979" y="8.64" width="10.722041" height="54.36"/>
  </clipPath>
  <clipPath id="pdb5cc1a5b1">
   <rect x="232.406938" y="8.64" width="4.986124" height="54.36"/>
  </clipPath>
  <clipPath id="pb23d0daa89">
   <rect x="243.602069" y="8.64" width="14.995862" height="54.36"/>
  </clipPath>
  <clipPath id="pe6aa2b369c">
   <rect x="260.589352" y="8.64" width="13.421297" height="54.36"/>
  </clipPath>
  <clipPath id="pac891c88f7">
   <rect x="277.182993" y="8.64" width="12.634014" height="54.36"/>
  </clipPath>
  <clipPath id="pe51897a5ba">
   <rect x="307.8" y="8.881927" width="16.2" height="53.876147"/>
  </clipPath>
  <clipPath id="p00c9978e6d">
   <rect x="325.051945" y="8.64" width="14.09611" height="54.36"/>
  </clipPath>
  <clipPath id="pc40136b893">
   <rect x="341.083241" y="8.64" width="14.433517" height="54.36"/>
  </clipPath>
  <clipPath id="p5e2abaab74">
   <rect x="356.4" y="8.881927" width="16.2" height="53.876147"/>
  </clipPath>
  <clipPath id="p0d83686295">
   <rect x="375.338979" y="8.64" width="10.722041" height="54.36"/>
  </clipPath>
  <clipPath id="pbddc3e1775">
   <rect x="394.406938" y="8.64" width="4.986124" height="54.36"/>
  </clipPath>
  <clipPath id="paf31d1e852">
   <rect x="405" y="9.603482" width="16.2" height="52.433036"/>
  </clipPath>
  <clipPath id="pa042151f44">
   <rect x="421.2" y="8.881927" width="16.2" height="53.876147"/>
  </clipPath>
  <clipPath id="p21e37bd3a8">
   <rect x="439.164248" y="8.64" width="12.671503" height="54.36"/>
  </clipPath>
  <clipPath id="p121b53fa3f">
   <rect x="454.989352" y="8.64" width="13.421297" height="54.36"/>
  </clipPath>
  <clipPath id="p8c1c816da0">
   <rect x="471.582993" y="8.64" width="12.634014" height="54.36"/>
  </clipPath>
  <clipPath id="p896e516258">
   <rect x="491.813131" y="8.64" width="4.573738" height="54.36"/>
  </clipPath>
 </defs>
</svg>
