<?xml version="1.0" encoding="utf-8" standalone="no"?>
<!DOCTYPE svg PUBLIC "-//W3C//DTD SVG 1.1//EN"
  "http://www.w3.org/Graphics/SVG/1.1/DTD/svg11.dtd">
<svg xmlns:xlink="http://www.w3.org/1999/xlink" width="364.5pt" height="162pt" viewBox="0 0 364.5 162" xmlns="http://www.w3.org/2000/svg" version="1.1">
 <metadata>
  <rdf:RDF xmlns:dc="http://purl.org/dc/elements/1.1/" xmlns:cc="http://creativecommons.org/ns#" xmlns:rdf="http://www.w3.org/1999/02/22-rdf-syntax-ns#">
   <cc:Work>
    <dc:type rdf:resource="http://purl.org/dc/dcmitype/StillImage"/>
    <dc:date>2023-02-15T22:55:02.584613</dc:date>
    <dc:format>image/svg+xml</dc:format>
    <dc:creator>
     <cc:Agent>
      <dc:title>Matplotlib v3.6.1, https://matplotlib.org/</dc:title>
     </cc:Agent>
    </dc:creator>
   </cc:Work>
  </rdf:RDF>
 </metadata>
 <defs>
  <style type="text/css">*{stroke-linejoin: round; stroke-linecap: butt}</style>
 </defs>
 <g id="figure_1">
  <g id="patch_1">
   <path d="M 0 162 
L 364.5 162 
L 364.5 0 
L 0 0 
z
" style="fill: #8fff9f"/>
  </g>
  <g id="axes_1">
   <g id="patch_2">
    <path d="M 22.142523 69.395993 
Q 22.099942 69.651484 22.142523 69.906974 
Q 22.142523 69.949556 22.525759 73.100607 
L 22.270269 87.024848 
M 13.072605 81.446636 
Q 13.072605 81.446636 13.711332 81.446636 
Q 15.58493 81.446636 17.905637 80.637582 
Q 20.226343 79.828528 22.036069 78.870438 
Q 23.845794 77.912348 26.060047 77.103294 
Q 28.274299 76.294241 30.020152 76.294241 
Q 28.742699 82.468598 28.742699 84.342196 
Q 28.870444 85.193832 28.316881 85.193832 
Q 27.933645 85.15125 26.826519 84.512523 
Q 25.847138 84.001542 25.549065 83.95896 
M 16.77722 76.03875 
L 17.03271 84.725432 
L 17.884346 88.770701 
Q 18.012091 88.941028 18.267582 89.409428 
Q 18.523072 89.877827 18.799854 90.218481 
Q 19.076636 90.559136 19.41729 90.729463 
Q 20.311507 91.325607 21.461215 91.602389 
Q 22.610923 91.879171 24.143867 92.006916 
Q 25.676811 92.134661 26.485864 92.304988 
Q 27.720736 92.560479 29.125935 92.475315 
Q 30.531133 92.390152 31.680841 92.092079 
Q 32.830549 91.794007 33.57573 90.835917 
Q 34.320911 89.877827 34.278329 88.344883 
M 2.129089 89.111355 
L 2.64007 89.111355 
Q 4.045269 89.111355 5.535631 88.706828 
Q 7.025993 88.302301 8.771846 87.620993 
Q 10.517699 86.939685 11.454498 86.684194 
L 13.498423 85.917722 
M 3.236215 81.191145 
Q 4.130432 81.020818 6.855666 79.977564 
Q 9.5809 78.934311 11.156425 78.891729 
M 8.090537 72.887699 
L 8.090537 87.450666 
" clip-path="url(#pfd0aac5288)" style="fill: none; stroke: #000000; stroke-linejoin: miter"/>
   </g>
  </g>
  <g id="axes_2">
   <g id="patch_3">
    <path d="M 42.450612 69.040102 
Q 42.500204 69.387245 43.268878 69.53602 
Q 44.037551 69.684796 44.087143 70.230306 
L 47.50898 73.057041 
M 48.748776 84.11602 
L 49.492653 84.11602 
Q 50.732449 84.11602 52.145816 83.917653 
Q 53.559184 83.719286 55.294898 83.396939 
Q 57.030612 83.074592 57.972857 82.925816 
L 67.147347 82.033163 
M 51.57551 76.578061 
L 62.684082 75.536633 
L 65.659592 74.941531 
M 60.948367 71.222143 
L 60.898776 90.562959 
L 61.047551 91.455612 
M 54.55102 73.602551 
L 55.146122 77.024388 
L 54.997347 82.033163 
Q 53.608776 87.587449 50.534082 89.670306 
M 38.929592 94.728673 
L 41.756327 93.240918 
Q 42.252245 92.992959 42.723367 92.819388 
Q 43.19449 92.645816 43.492041 92.546633 
Q 43.789592 92.447449 44.310306 92.422653 
Q 44.83102 92.397857 45.07898 92.373061 
Q 45.326939 92.348265 46.04602 92.348265 
Q 46.765102 92.348265 47.112245 92.348265 
Q 48.500816 92.100306 49.790204 92.298673 
Q 51.079592 92.497041 52.964082 93.166531 
Q 54.848571 93.83602 55.443673 93.984796 
Q 58.171224 94.728673 61.692245 94.728673 
Q 61.741837 94.728673 65.857959 94.282347 
L 70.420408 91.901939 
M 38.929592 78.71051 
Q 39.871837 78.412959 41.929898 78.016224 
Q 43.987959 77.61949 44.583061 77.470714 
L 48.004898 77.173163 
L 45.475714 80.595 
L 43.244082 82.826633 
Q 42.946531 83.520918 42.946531 83.57051 
L 42.946531 83.868061 
L 45.922041 92.19949 
" clip-path="url(#p8fdd4e8f36)" style="fill: none; stroke: #000000; stroke-linejoin: miter"/>
   </g>
  </g>
  <g id="axes_3">
   <g id="patch_4">
    <path d="M 95.066186 77.298735 
Q 94.68401 77.871999 94.731782 79.329043 
Q 94.779554 80.786088 94.68401 81.598211 
L 94.68401 87.474161 
Q 94.68401 88.811776 94.469037 91.487005 
Q 94.254063 94.162235 94.254063 95.499849 
L 91.961009 95.069902 
L 90.384535 94.353322 
M 85.177392 79.018526 
Q 87.518218 78.015315 92.486501 77.370393 
Q 97.454784 76.725472 98.219135 76.582156 
Q 102.566383 75.674489 105.67156 75.435629 
L 106.961402 75.483401 
M 89.381324 72.664856 
Q 90.241219 72.473768 92.080439 71.996048 
Q 93.919659 71.518329 95.28116 71.279469 
Q 96.642661 71.040609 98.219135 70.992837 
L 99.938925 70.56289 
M 80.304653 80.451684 
Q 80.256881 80.690544 80.280767 80.881632 
Q 80.304653 81.07272 80.256881 81.263807 
Q 80.209109 81.454895 80.018021 81.598211 
L 79.588073 94.926586 
M 82.311075 75.148997 
Q 80.161337 82.171474 75.718545 83.174685 
L 75.288598 83.604633 
M 80.877916 68.699784 
Q 80.304653 70.515118 78.441547 72.99926 
L 77.008388 74.145786 
" clip-path="url(#p0ad6dfa036)" style="fill: none; stroke: #000000; stroke-linejoin: miter"/>
   </g>
  </g>
  <g id="axes_4">
   <g id="patch_5">
    <path d="M 121.81114 90.629251 
Q 123.444622 90.349225 127.411652 90.162542 
Q 131.378681 89.975858 133.572215 89.555819 
L 134.972343 89.275794 
M 122.464533 85.495448 
L 123.304609 85.495448 
L 134.225608 85.215423 
M 121.204417 94.316255 
Q 121.204417 94.316255 121.904481 94.316255 
L 131.145327 94.316255 
L 133.385531 94.642951 
M 121.34443 80.828355 
Q 121.34443 80.828355 122.184507 80.828355 
Q 124.564725 80.828355 129.395166 80.198297 
Q 134.225608 79.568239 136.605826 79.568239 
Q 136.885851 79.568239 136.885851 79.988278 
Q 136.372471 84.328675 136.302465 86.428867 
Q 136.232458 88.529059 136.3258 92.916127 
Q 136.3258 93.149481 136.372471 93.756204 
Q 136.652497 96.929827 135.765749 96.976498 
Q 135.29904 97.023169 134.505634 96.323105 
L 133.665557 95.763054 
M 121.904481 81.668431 
Q 121.904481 81.715102 122.207843 82.34516 
Q 122.511204 82.975218 122.464533 83.348585 
L 122.32452 94.316255 
L 122.184507 95.57637 
M 125.404802 71.58751 
Q 125.358131 72.007548 125.404802 72.427586 
Q 125.404802 75.274513 123.958003 78.098105 
Q 122.511204 80.921697 120.691037 82.835205 
Q 118.870871 84.748713 116.490653 87.292279 
Q 114.110435 89.835845 112.943662 91.609341 
L 111.683547 92.309405 
M 114.017093 77.981428 
L 133.33886 76.5813 
L 143.466453 76.11459 
M 119.244238 74.807804 
L 120.084315 74.807804 
Q 121.717798 74.807804 123.654641 74.62112 
Q 125.591485 74.434437 127.948367 74.131076 
Q 130.30525 73.827714 131.565365 73.687702 
L 133.665557 73.267663 
M 117.004033 72.707612 
L 117.564085 72.707612 
Q 119.057554 72.707612 121.181082 72.334245 
Q 123.304609 71.960877 125.918182 71.37749 
Q 128.531754 70.794104 129.605186 70.60742 
L 136.045775 70.187382 
M 130.165237 67.153771 
Q 129.885211 67.387125 129.418502 67.87717 
Q 128.951793 68.367215 128.905122 68.413886 
L 127.271639 69.814014 
M 119.85096 67.340455 
L 123.024584 70.187382 
" clip-path="url(#p0a1d99e18e)" style="fill: none; stroke: #000000; stroke-linejoin: miter"/>
   </g>
  </g>
  <g id="axes_5">
   <g id="patch_6">
    <path d="M 156.745627 97.491647 
Q 158.658455 96.960306 161.447996 96.907172 
Q 164.237536 96.854038 166.54887 97.01344 
Q 168.860204 97.172843 171.570044 97.01344 
M 156.905029 88.193178 
L 158.499052 88.193178 
Q 160.571283 88.193178 164.556341 87.316465 
Q 168.541399 86.439752 170.61363 86.439752 
Q 170.347959 94.303601 170.294825 97.172843 
M 156.586224 88.99019 
Q 156.692493 89.999738 157.223834 91.646895 
Q 157.755175 93.294052 157.861443 94.463003 
L 158.499052 95.738222 
M 153.876385 73.368761 
Q 156.26742 75.334723 156.905029 75.600394 
Q 159.614869 76.822478 162.590379 78.629038 
Q 165.565889 80.435598 169.179009 82.8532 
Q 172.792128 85.270802 174.651822 86.386618 
L 179.593294 87.661837 
M 154.354592 71.137128 
L 169.444679 69.330569 
Q 169.125875 71.190262 169.125875 71.243397 
Q 169.125875 73.156224 168.063192 75.255022 
Q 167.00051 77.353819 165.592456 78.97441 
Q 164.184402 80.595 162.005904 82.428127 
Q 159.827405 84.261254 158.392784 85.270802 
Q 156.958163 86.28035 154.992201 87.555569 
L 148.456706 90.584213 
M 157.064431 66.992668 
Q 155.151603 72.518615 152.919971 75.122187 
L 150.210131 77.832026 
" clip-path="url(#p1537ae5605)" style="fill: none; stroke: #000000; stroke-linejoin: miter"/>
   </g>
  </g>
  <g id="axes_6">
   <g id="patch_7">
    <path d="M 208.156984 67.168424 
Q 208.427318 68.790426 208.630068 70.344845 
Q 208.832818 71.899265 208.967985 73.791601 
Q 209.103152 75.683937 209.193263 76.7878 
Q 209.283375 77.891663 209.32843 80.166972 
Q 209.373486 82.442281 209.373486 83.118115 
Q 209.373486 83.793949 209.396014 86.519815 
Q 209.418541 89.24568 209.418541 89.606125 
Q 209.418541 89.96657 209.418541 91.453405 
Q 209.418541 92.940241 209.508653 93.863881 
Q 209.598764 94.787522 209.824042 95.688634 
M 200.903028 82.442281 
Q 201.353585 82.262058 202.953059 82.329642 
Q 204.552534 82.397225 204.958035 81.901613 
L 212.887824 81.901613 
L 216.447219 81.631279 
M 202.11953 72.9806 
L 203.8767 72.9806 
Q 206.895426 73.115766 213.338381 72.034431 
Q 213.428492 72.034431 213.901576 71.899265 
Q 214.37466 71.764098 214.554883 71.764098 
Q 214.780161 71.764098 214.802689 73.453684 
Q 214.825216 75.143269 214.735105 77.148245 
Q 214.644994 79.15322 214.644994 79.333443 
L 214.915328 82.171947 
M 202.660198 73.3861 
Q 202.705253 73.701489 202.885476 75.143269 
Q 203.065698 76.585049 203.245921 77.463634 
Q 203.426143 78.342219 203.741533 79.198276 
L 203.8767 81.631279 
M 193.694129 81.631279 
L 198.154635 83.793949 
M 192.477627 77.035606 
Q 192.387515 77.305939 192.004543 78.409802 
Q 191.62157 79.513665 191.486403 79.896638 
Q 191.351236 80.279611 190.968263 81.270834 
Q 190.58529 82.262058 190.314957 82.712614 
Q 190.044623 83.163171 189.594067 83.974172 
Q 189.143511 84.785173 188.692954 85.280785 
Q 188.242398 85.776397 187.656675 86.339592 
Q 187.070952 86.902787 186.395117 87.308288 
L 185.043449 88.254456 
M 184.502781 79.198276 
Q 184.728059 79.15322 185.246199 78.927942 
Q 185.764339 78.702664 185.989617 78.657608 
L 199.776638 74.602602 
L 200.317305 74.467435 
M 192.162237 71.358597 
L 192.162237 96.094135 
M 185.809394 72.575099 
Q 187.656675 71.358597 192.072126 70.998152 
Q 196.487577 70.637707 197.704079 70.277262 
L 200.27225 69.601428 
" clip-path="url(#pae0bd1ac1f)" style="fill: none; stroke: #000000; stroke-linejoin: miter"/>
   </g>
  </g>
  <g id="axes_7">
   <g id="patch_8">
    <path d="M 239.913666 91.787846 
Q 240.323875 92.198055 241.320096 92.930571 
Q 242.316318 93.663087 242.726527 94.073296 
L 249.582878 98.644196 
M 226.376768 74.559068 
L 226.728376 74.559068 
Q 227.021383 74.559068 227.460892 74.764172 
Q 227.900402 74.969277 228.457114 75.262283 
Q 229.013826 75.555289 229.18963 75.613891 
L 233.408923 78.426752 
M 225.497749 79.833183 
Q 226.200965 80.360595 227.871101 81.005209 
Q 229.541238 81.649823 230.244453 82.118633 
L 231.123473 82.997653 
M 221.630064 86.689534 
L 223.563907 86.689534 
Q 227.548794 86.689534 232.090394 86.396527 
Q 236.631994 86.103521 242.228416 85.60541 
Q 247.824839 85.107299 250.813505 84.931495 
M 238.155627 73.680048 
Q 238.097026 74.090257 238.155627 75.789695 
Q 238.155627 80.008987 236.983601 83.290659 
Q 235.811576 86.572331 233.73123 90.381415 
Q 231.650884 94.190498 230.596061 97.061961 
L 227.431592 100.578039 
M 233.760531 63.659228 
Q 233.877733 63.71783 236.045981 64.714051 
L 237.100804 66.120482 
M 223.388103 71.570402 
L 228.486415 71.218794 
Q 230.889068 70.925788 235.870177 70.076069 
Q 240.851286 69.22635 244.894775 68.72824 
Q 248.938264 68.230129 252.219936 68.230129 
Q 251.458119 69.636559 250.989309 70.691383 
L 249.758682 73.504244 
M 224.091318 67.878521 
Q 223.622508 68.523135 223.739711 70.339775 
Q 223.798312 71.160193 223.212299 72.449421 
L 222.157476 76.317106 
" clip-path="url(#p8d6516c083)" style="fill: none; stroke: #000000; stroke-linejoin: miter"/>
   </g>
  </g>
  <g id="axes_8">
   <g id="patch_9">
    <path d="M 272.531684 94.228612 
Q 273.375 93.994357 275.506716 93.853805 
Q 277.638432 93.713252 278.716003 93.385296 
L 289.257455 93.244743 
M 287.289717 82.14108 
Q 287.289717 82.187931 285.485958 86.427937 
Q 283.682198 90.667943 283.635347 92.823085 
L 283.213689 93.666401 
M 279.699871 83.406054 
Q 279.840424 83.640308 280.37921 84.553901 
Q 280.917995 85.467494 281.245951 85.936003 
L 282.792031 87.622635 
M 276.467159 86.217108 
L 276.888817 86.217108 
Q 277.357326 86.217108 277.896112 86.709042 
Q 278.434897 87.200977 278.973683 87.90374 
Q 279.512468 88.606504 279.699871 88.747057 
L 280.543188 89.871478 
M 276.186054 79.751684 
L 284.057005 79.611131 
M 279.278213 71.037416 
Q 280.074679 71.787031 281.433355 73.333111 
Q 282.792031 74.87919 283.588496 75.675656 
Q 284.384961 76.472121 285.813914 77.245161 
Q 287.242866 78.018201 288.929499 78.205604 
M 280.262082 69.350784 
Q 279.934126 69.819293 279.043959 71.201395 
Q 278.153792 72.583496 277.615006 73.28626 
Q 277.076221 73.989023 276.209479 75.019743 
Q 275.342738 76.050463 274.40572 76.68295 
Q 273.468702 77.315437 272.391131 77.643393 
L 270.985604 78.346157 
M 257.492545 90.386838 
Q 258.523265 89.96518 260.467577 89.075013 
Q 262.411889 88.184846 263.700289 87.669486 
Q 264.988689 87.154126 266.675321 86.638766 
L 266.159961 86.217108 
M 260.584704 72.958303 
L 260.584704 73.520514 
Q 260.631555 74.410681 260.537853 75.39455 
Q 260.444152 76.378419 260.256748 77.596542 
Q 260.069344 78.814666 260.022494 79.423728 
Q 259.975643 79.704833 259.788239 80.431022 
Q 259.600835 81.157211 259.600835 81.532018 
Q 259.507134 82.094229 260.022494 81.906825 
Q 260.163046 81.906825 260.491003 81.766272 
Q 261.100064 81.485167 261.287468 81.532018 
Q 262.083933 81.719422 264.496754 81.36804 
Q 266.909576 81.016658 268.924165 80.595 
L 270.985604 80.173342 
Q 270.985604 81.719422 270.165713 88.606504 
Q 269.345823 95.493586 268.924165 95.493586 
Q 268.455656 95.493586 267.799743 94.90795 
Q 267.14383 94.322314 266.909576 94.228612 
L 265.410347 93.10419 
M 258.616967 71.271671 
L 267.846594 70.053548 
L 266.956427 75.39455 
L 265.972558 79.470578 
" clip-path="url(#p0544221b80)" style="fill: none; stroke: #000000; stroke-linejoin: miter"/>
   </g>
  </g>
  <g id="axes_9">
   <g id="patch_10">
    <path d="M 310.879397 94.597386 
Q 310.879397 94.597386 309.10801 94.597386 
Q 306.830514 94.597386 305.43871 96.326597 
Q 304.046907 98.055807 304.046907 100.417655 
Q 303.962555 102.779503 305.607414 104.086955 
Q 307.252272 105.394407 309.614121 104.972648 
Q 310.288934 104.888297 311.385507 104.803945 
Q 312.482079 104.719593 313.072541 104.635241 
Q 313.663003 104.55089 314.379993 104.213483 
Q 315.096983 103.876076 315.392214 103.074734 
Q 315.687445 102.273393 315.687445 100.923766 
Q 315.687445 100.333303 315.43439 99.742841 
Q 315.181334 99.152379 314.759576 98.43539 
Q 314.337817 97.7184 314.169114 97.380993 
L 311.638562 95.862662 
" clip-path="url(#pe569fa0c8c)" style="fill: none; stroke: #000000; stroke-linejoin: miter"/>
   </g>
  </g>
 </g>
 <defs>
  <clipPath id="pfd0aac5288">
   <rect x="0" y="49.723213" width="36.45" height="61.743575"/>
  </clipPath>
  <clipPath id="p8fdd4e8f36">
   <rect x="36.45" y="44.640918" width="36.45" height="71.908163"/>
  </clipPath>
  <clipPath id="p0ad6dfa036">
   <rect x="72.9" y="45.960334" width="36.45" height="69.269332"/>
  </clipPath>
  <clipPath id="p0a1d99e18e">
   <rect x="109.35" y="46.758572" width="36.45" height="67.672855"/>
  </clipPath>
  <clipPath id="p1537ae5605">
   <rect x="145.8" y="42.07277" width="36.45" height="77.044461"/>
  </clipPath>
  <clipPath id="pae0bd1ac1f">
   <rect x="182.25" y="47.929672" width="36.45" height="65.330655"/>
  </clipPath>
  <clipPath id="p8d6516c083">
   <rect x="218.7" y="38.109068" width="36.45" height="84.971865"/>
  </clipPath>
  <clipPath id="p0544221b80">
   <rect x="255.15" y="46.628098" width="36.45" height="67.933805"/>
  </clipPath>
  <clipPath id="pe569fa0c8c">
   <rect x="299.744969" y="19.44" width="20.160062" height="122.31"/>
  </clipPath>
 </defs>
</svg>
