<?xml version="1.0" encoding="utf-8" standalone="no"?>
<!DOCTYPE svg PUBLIC "-//W3C//DTD SVG 1.1//EN"
  "http://www.w3.org/Graphics/SVG/1.1/DTD/svg11.dtd">
<svg xmlns:xlink="http://www.w3.org/1999/xlink" width="198pt" height="72pt" viewBox="0 0 198 72" xmlns="http://www.w3.org/2000/svg" version="1.1">
 <metadata>
  <rdf:RDF xmlns:dc="http://purl.org/dc/elements/1.1/" xmlns:cc="http://creativecommons.org/ns#" xmlns:rdf="http://www.w3.org/1999/02/22-rdf-syntax-ns#">
   <cc:Work>
    <dc:type rdf:resource="http://purl.org/dc/dcmitype/StillImage"/>
    <dc:date>2023-02-15T22:55:01.125621</dc:date>
    <dc:format>image/svg+xml</dc:format>
    <dc:creator>
     <cc:Agent>
      <dc:title>Matplotlib v3.6.1, https://matplotlib.org/</dc:title>
     </cc:Agent>
    </dc:creator>
   </cc:Work>
  </rdf:RDF>
 </metadata>
 <defs>
  <style type="text/css">*{stroke-linejoin: round; stroke-linecap: butt}</style>
 </defs>
 <g id="figure_1">
  <g id="patch_1">
   <path d="M 0 72 
L 198 72 
L 198 0 
L 0 0 
z
" style="fill: #8fff9f"/>
  </g>
  <g id="axes_1">
   <g id="patch_2">
    <path d="M 13.894615 26.878846 
Q 13.146923 28.997308 11.682692 31.271538 
Q 10.218462 33.545769 8.800962 35.228077 
Q 7.383462 36.910385 5.856923 39.153462 
Q 4.330385 41.396538 3.520385 43.421538 
L 2.959615 45.290769 
M 1.557692 27.439615 
Q 3.177692 29.620385 6.526731 34.776346 
Q 9.875769 39.932308 11.931923 42.486923 
L 14.642308 46.131923 
" clip-path="url(#pd602a66497)" style="fill: none; stroke: #000000; stroke-linejoin: miter"/>
   </g>
  </g>
  <g id="axes_2">
   <g id="patch_3">
    <path d="M 24.918579 29.071862 
Q 24.543683 29.146841 24.412469 29.577972 
Q 24.281255 30.009103 24.356234 30.42149 
Q 24.356234 30.571448 24.393724 30.702662 
Q 24.431214 30.833876 24.487448 30.89011 
Q 24.543683 30.946345 24.599917 31.040069 
Q 24.656152 31.133793 24.693641 31.208772 
L 24.80611 29.859145 
M 24.80611 34.020497 
Q 23.906359 39.006621 23.681421 42.793076 
L 24.131297 45.379862 
L 24.468703 46.054676 
" clip-path="url(#p2ddee592cd)" style="fill: none; stroke: #000000; stroke-linejoin: miter"/>
   </g>
  </g>
  <g id="axes_3">
   <g id="patch_4">
    <path d="M 36.376138 33.983007 
Q 36.900993 34.245434 37.294634 35.107697 
Q 37.688276 35.969959 38.138152 36.607283 
Q 38.588028 37.244607 39.4128 37.132138 
Q 40.5 37.357076 41.287283 36.832221 
Q 42.074566 36.307366 42.430717 35.538828 
Q 42.786869 34.77029 43.25549 33.68309 
Q 43.72411 32.59589 44.136497 32.071034 
M 43.949048 40.281269 
L 43.611641 40.281269 
Q 43.086786 40.281269 41.962097 40.374993 
Q 40.837407 40.468717 40.237572 40.468717 
Q 38.3256 40.468717 36.863503 41.612152 
Q 35.401407 42.755586 35.401407 44.5176 
Q 35.401407 46.017186 36.975972 47.141876 
Q 38.550538 48.266566 40.237572 48.266566 
Q 42.112055 48.266566 43.311724 45.698524 
Q 44.511393 43.130483 44.511393 40.843614 
L 44.398924 40.506207 
L 44.398924 40.843614 
L 44.398924 41.968303 
Q 44.398924 42.793076 44.698841 44.367641 
Q 44.998759 45.942207 45.298676 47.104386 
L 45.598593 48.304055 
" clip-path="url(#p35e43d5d47)" style="fill: none; stroke: #000000; stroke-linejoin: miter"/>
   </g>
  </g>
  <g id="axes_4">
   <g id="patch_5">
    <path d="M 59.9616 35.032717 
Q 58.91189 34.582841 57.937159 34.69531 
Q 54.900497 35.032717 52.988524 36.701007 
Q 51.076552 38.369297 51.076552 41.330979 
Q 51.076552 43.917766 53.082248 45.6048 
Q 55.087945 47.291834 57.712221 47.291834 
Q 60.074069 47.291834 61.198759 45.361117 
Q 62.323448 43.4304 62.323448 40.881103 
Q 62.323448 39.643945 61.911062 38.706703 
Q 61.498676 37.769462 60.973821 37.300841 
Q 60.448966 36.832221 59.699172 36.119917 
Q 58.949379 35.407614 58.499503 34.69531 
L 57.262345 34.245434 
" clip-path="url(#p1e9d518bd8)" style="fill: none; stroke: #000000; stroke-linejoin: miter"/>
   </g>
  </g>
  <g id="axes_5">
   <g id="patch_6">
    <path d="M 76.499007 34.920248 
Q 75.636745 36.007448 72.525103 40.018841 
Q 69.413462 44.030234 67.726428 46.054676 
M 68.626179 36.044938 
Q 70.500662 37.319586 72.993724 40.843614 
Q 75.486786 44.367641 77.061352 45.6048 
L 78.073572 45.942207 
" clip-path="url(#pc1d6a132a5)" style="fill: none; stroke: #000000; stroke-linejoin: miter"/>
   </g>
  </g>
  <g id="axes_6">
   <g id="patch_7">
    <path d="M 85.557228 36.157407 
L 92.642772 36.157407 
M 89.043766 39.306538 
L 89.043766 47.516772 
" clip-path="url(#p4d1d3dbaf9)" style="fill: none; stroke: #000000; stroke-linejoin: miter"/>
   </g>
  </g>
  <g id="axes_7">
   <g id="patch_8">
    <path d="M 100.838731 37.282097 
L 100.838731 37.844441 
Q 101.101159 39.868883 101.138648 41.312234 
Q 101.176138 42.755586 101.082414 44.667559 
Q 100.98869 46.579531 100.98869 48.191586 
L 101.063669 39.643945 
Q 101.063669 38.144359 102.656979 37.507034 
Q 104.25029 36.86971 105.674897 37.282097 
Q 107.586869 37.844441 108.505366 39.04411 
Q 109.423862 40.243779 109.480097 41.668386 
Q 109.536331 43.092993 109.573821 44.817517 
Q 109.61131 46.542041 109.761269 48.191586 
" clip-path="url(#p548f3bc9f2)" style="fill: none; stroke: #000000; stroke-linejoin: miter"/>
   </g>
  </g>
  <g id="axes_8">
   <g id="patch_9">
    <path d="M 116.363917 36.382345 
Q 116.326428 36.494814 116.457641 36.701007 
Q 116.588855 36.9072 116.476386 37.057159 
L 116.476386 39.306538 
Q 116.476386 40.506207 116.813793 41.724621 
Q 117.1512 42.943034 118.013462 43.93651 
Q 118.875724 44.929986 120.075393 44.929986 
Q 121.312552 44.929986 121.987366 43.861531 
Q 122.662179 42.793076 123.112055 41.143531 
Q 123.561931 39.493986 123.899338 38.969131 
L 124.686621 36.382345 
L 124.461683 42.680607 
L 124.461683 45.154924 
Q 124.461683 47.066897 125.192731 51.00331 
Q 125.923779 54.939724 125.923779 56.964166 
Q 126.673572 59.213545 125.586372 60.188276 
Q 124.499172 61.163007 122.437241 60.78811 
Q 120.637738 60.488193 119.719241 60.169531 
Q 118.800745 59.850869 116.813793 58.988607 
L 116.701324 58.426262 
" clip-path="url(#pd32ce6ba72)" style="fill: none; stroke: #000000; stroke-linejoin: miter"/>
   </g>
  </g>
  <g id="axes_9">
   <g id="patch_10">
    <path d="M 135.413131 30.384 
L 138.674731 34.657821 
M 138.337324 37.019669 
L 138.074897 41.743366 
Q 138.187366 42.268221 138.318579 43.749062 
Q 138.449793 45.229903 138.7872 46.1484 
Q 139.124607 47.066897 139.986869 47.591752 
" clip-path="url(#pc7d19bf862)" style="fill: none; stroke: #000000; stroke-linejoin: miter"/>
   </g>
  </g>
  <g id="axes_10">
   <g id="patch_11">
    <path d="M 148.763917 36.382345 
Q 148.726428 36.494814 148.857641 36.701007 
Q 148.988855 36.9072 148.876386 37.057159 
L 148.876386 39.306538 
Q 148.876386 40.506207 149.213793 41.724621 
Q 149.5512 42.943034 150.413462 43.93651 
Q 151.275724 44.929986 152.475393 44.929986 
Q 153.712552 44.929986 154.387366 43.861531 
Q 155.062179 42.793076 155.512055 41.143531 
Q 155.961931 39.493986 156.299338 38.969131 
L 157.086621 36.382345 
L 156.861683 42.680607 
L 156.861683 45.154924 
Q 156.861683 47.066897 157.592731 51.00331 
Q 158.323779 54.939724 158.323779 56.964166 
Q 159.073572 59.213545 157.986372 60.188276 
Q 156.899172 61.163007 154.837241 60.78811 
Q 153.037738 60.488193 152.119241 60.169531 
Q 151.200745 59.850869 149.213793 58.988607 
L 149.101324 58.426262 
" clip-path="url(#p6490309e95)" style="fill: none; stroke: #000000; stroke-linejoin: miter"/>
   </g>
  </g>
  <g id="axes_11">
   <g id="patch_12">
    <path d="M 167.813131 30.384 
L 171.074731 34.657821 
M 170.737324 37.019669 
L 170.474897 41.743366 
Q 170.587366 42.268221 170.718579 43.749062 
Q 170.849793 45.229903 171.1872 46.1484 
Q 171.524607 47.066897 172.386869 47.591752 
" clip-path="url(#p98464ad902)" style="fill: none; stroke: #000000; stroke-linejoin: miter"/>
   </g>
  </g>
 </g>
 <defs>
  <clipPath id="pd602a66497">
   <rect x="0" y="13.233462" width="16.2" height="45.173077"/>
  </clipPath>
  <clipPath id="p2ddee592cd">
   <rect x="21.806938" y="8.64" width="4.986124" height="54.36"/>
  </clipPath>
  <clipPath id="p35e43d5d47">
   <rect x="33.526924" y="8.64" width="13.946152" height="54.36"/>
  </clipPath>
  <clipPath id="p1e9d518bd8">
   <rect x="49.202069" y="8.64" width="14.995862" height="54.36"/>
  </clipPath>
  <clipPath id="pc1d6a132a5">
   <rect x="65.851945" y="8.64" width="14.09611" height="54.36"/>
  </clipPath>
  <clipPath id="p4d1d3dbaf9">
   <rect x="83.682745" y="8.64" width="10.83451" height="54.36"/>
  </clipPath>
  <clipPath id="p548f3bc9f2">
   <rect x="98.964248" y="8.64" width="12.671503" height="54.36"/>
  </clipPath>
  <clipPath id="pd32ce6ba72">
   <rect x="114.451945" y="8.64" width="14.09611" height="54.36"/>
  </clipPath>
  <clipPath id="pc7d19bf862">
   <rect x="133.538648" y="8.64" width="8.322703" height="54.36"/>
  </clipPath>
  <clipPath id="p6490309e95">
   <rect x="146.851945" y="8.64" width="14.09611" height="54.36"/>
  </clipPath>
  <clipPath id="p98464ad902">
   <rect x="165.938648" y="8.64" width="8.322703" height="54.36"/>
  </clipPath>
 </defs>
</svg>
