<?xml version="1.0" encoding="utf-8" standalone="no"?>
<!DOCTYPE svg PUBLIC "-//W3C//DTD SVG 1.1//EN"
  "http://www.w3.org/Graphics/SVG/1.1/DTD/svg11.dtd">
<svg xmlns:xlink="http://www.w3.org/1999/xlink" width="540pt" height="72pt" viewBox="0 0 540 72" xmlns="http://www.w3.org/2000/svg" version="1.1">
 <metadata>
  <rdf:RDF xmlns:dc="http://purl.org/dc/elements/1.1/" xmlns:cc="http://creativecommons.org/ns#" xmlns:rdf="http://www.w3.org/1999/02/22-rdf-syntax-ns#">
   <cc:Work>
    <dc:type rdf:resource="http://purl.org/dc/dcmitype/StillImage"/>
    <dc:date>2023-02-15T22:55:41.871518</dc:date>
    <dc:format>image/svg+xml</dc:format>
    <dc:creator>
     <cc:Agent>
      <dc:title>Matplotlib v3.6.1, https://matplotlib.org/</dc:title>
     </cc:Agent>
    </dc:creator>
   </cc:Work>
  </rdf:RDF>
 </metadata>
 <defs>
  <style type="text/css">*{stroke-linejoin: round; stroke-linecap: butt}</style>
 </defs>
 <g id="figure_1">
  <g id="patch_1">
   <path d="M 0 72 
L 540 72 
L 540 0 
L 0 0 
z
" style="fill: #8fff9f"/>
  </g>
  <g id="axes_1">
   <g id="patch_2">
    <path d="M 3.263834 37.95691 
L 3.938648 37.95691 
Q 4.650952 37.95691 5.438234 37.881931 
Q 6.225517 37.806952 7.181503 37.675738 
Q 8.13749 37.544524 8.662345 37.507034 
L 12.936166 35.82 
M 8.887283 30.42149 
L 8.887283 31.43371 
Q 8.887283 33.383172 8.212469 37.207117 
Q 7.537655 41.031062 7.537655 43.018014 
Q 7.537655 43.805297 7.537655 44.105214 
Q 7.537655 44.405131 7.631379 45.042455 
Q 7.725103 45.679779 7.912552 45.960952 
Q 8.1 46.242124 8.493641 46.485807 
Q 8.887283 46.72949 9.449628 46.72949 
Q 9.562097 46.692 9.880759 46.72949 
Q 10.199421 46.766979 10.386869 46.710745 
Q 10.574317 46.65451 10.574317 46.392083 
" clip-path="url(#pae15442cd0)" style="fill: none; stroke: #000000; stroke-linejoin: miter"/>
   </g>
  </g>
  <g id="axes_2">
   <g id="patch_3">
    <path d="M 20.813462 35.932469 
Q 21.413297 35.257655 22.406772 34.826524 
Q 23.400248 34.395393 24.3 34.470372 
Q 24.937324 34.470372 25.42469 34.639076 
Q 25.912055 34.807779 26.230717 34.995228 
Q 26.549379 35.182676 26.774317 35.670041 
Q 26.999255 36.157407 27.111724 36.419834 
Q 27.224193 36.682262 27.280428 37.375821 
Q 27.336662 38.069379 27.355407 38.331807 
Q 27.374152 38.594234 27.355407 39.419007 
Q 27.336662 40.243779 27.336662 40.431228 
Q 27.336662 41.368469 27.167959 43.242952 
Q 26.999255 45.117434 26.999255 46.054676 
Q 26.999255 46.467062 27.05549 46.823214 
Q 27.111724 47.179366 27.205448 47.610497 
Q 27.299172 48.041628 27.336662 48.304055 
L 27.786538 48.528993 
M 21.263338 23.111007 
Q 21.488276 24.798041 21.488276 29.971614 
L 21.488276 42.3432 
L 21.150869 46.841959 
L 20.925931 47.74171 
" clip-path="url(#p2dc560e757)" style="fill: none; stroke: #000000; stroke-linejoin: miter"/>
   </g>
  </g>
  <g id="axes_3">
   <g id="patch_4">
    <path d="M 46.043923 36.441748 
Q 44.834968 35.094627 40.862687 35.094627 
Q 39.342857 35.094627 38.565672 35.146439 
Q 37.788486 35.198252 36.78678 35.440043 
Q 35.785075 35.681834 35.301493 36.182687 
Q 34.81791 36.683539 34.472495 37.616162 
Q 34.127079 38.548785 34.127079 39.964989 
Q 34.127079 42.037484 35.543284 43.280981 
Q 36.959488 44.524478 38.893817 44.524478 
Q 41.553518 44.524478 44.316844 38.721493 
Q 45.663966 35.854542 45.663966 35.82 
Q 46.009382 35.578209 46.043923 36.441748 
Q 46.043923 37.512537 46.458422 40.362217 
Q 46.872921 43.211898 46.872921 44.524478 
" clip-path="url(#pda39e77077)" style="fill: none; stroke: #000000; stroke-linejoin: miter"/>
   </g>
  </g>
  <g id="axes_4">
   <g id="patch_5">
    <path d="M 51.863834 37.95691 
L 52.538648 37.95691 
Q 53.250952 37.95691 54.038234 37.881931 
Q 54.825517 37.806952 55.781503 37.675738 
Q 56.73749 37.544524 57.262345 37.507034 
L 61.536166 35.82 
M 57.487283 30.42149 
L 57.487283 31.43371 
Q 57.487283 33.383172 56.812469 37.207117 
Q 56.137655 41.031062 56.137655 43.018014 
Q 56.137655 43.805297 56.137655 44.105214 
Q 56.137655 44.405131 56.231379 45.042455 
Q 56.325103 45.679779 56.512552 45.960952 
Q 56.7 46.242124 57.093641 46.485807 
Q 57.487283 46.72949 58.049628 46.72949 
Q 58.162097 46.692 58.480759 46.72949 
Q 58.799421 46.766979 58.986869 46.710745 
Q 59.174317 46.65451 59.174317 46.392083 
" clip-path="url(#p422d8832b0)" style="fill: none; stroke: #000000; stroke-linejoin: miter"/>
   </g>
  </g>
  <g id="axes_5"/>
  <g id="axes_6">
   <g id="patch_6">
    <path d="M 94.356735 34.365306 
Q 94.356735 34.365306 93.860816 34.365306 
Q 93.067347 34.365306 91.579592 34.067755 
Q 90.091837 33.770204 89.298367 33.770204 
Q 86.521224 33.770204 84.587143 35.224898 
Q 82.653061 36.679592 82.653061 39.423673 
Q 82.653061 40.94449 84.140816 42.399184 
Q 85.628571 43.853878 87.562653 44.663878 
Q 89.496735 45.473878 90.98449 45.473878 
Q 91.910204 45.473878 92.60449 45.110204 
Q 93.298776 44.746531 94.042653 44.118367 
Q 94.786531 43.490204 95.348571 43.192653 
L 95.546939 42.696735 
" clip-path="url(#p0ca739b835)" style="fill: none; stroke: #000000; stroke-linejoin: miter"/>
   </g>
  </g>
  <g id="axes_7">
   <g id="patch_7">
    <path d="M 110.843923 36.441748 
Q 109.634968 35.094627 105.662687 35.094627 
Q 104.142857 35.094627 103.365672 35.146439 
Q 102.588486 35.198252 101.58678 35.440043 
Q 100.585075 35.681834 100.101493 36.182687 
Q 99.61791 36.683539 99.272495 37.616162 
Q 98.927079 38.548785 98.927079 39.964989 
Q 98.927079 42.037484 100.343284 43.280981 
Q 101.759488 44.524478 103.693817 44.524478 
Q 106.353518 44.524478 109.116844 38.721493 
Q 110.463966 35.854542 110.463966 35.82 
Q 110.809382 35.578209 110.843923 36.441748 
Q 110.843923 37.512537 111.258422 40.362217 
Q 111.672921 43.211898 111.672921 44.524478 
" clip-path="url(#pa3fe6ef7d0)" style="fill: none; stroke: #000000; stroke-linejoin: miter"/>
   </g>
  </g>
  <g id="axes_8">
   <g id="patch_8">
    <path d="M 117.038731 37.282097 
L 117.038731 37.844441 
Q 117.301159 39.868883 117.338648 41.312234 
Q 117.376138 42.755586 117.282414 44.667559 
Q 117.18869 46.579531 117.18869 48.191586 
L 117.263669 39.643945 
Q 117.263669 38.144359 118.856979 37.507034 
Q 120.45029 36.86971 121.874897 37.282097 
Q 123.786869 37.844441 124.705366 39.04411 
Q 125.623862 40.243779 125.680097 41.668386 
Q 125.736331 43.092993 125.773821 44.817517 
Q 125.81131 46.542041 125.961269 48.191586 
" clip-path="url(#p152619e6cd)" style="fill: none; stroke: #000000; stroke-linejoin: miter"/>
   </g>
  </g>
  <g id="axes_9"/>
  <g id="axes_10">
   <g id="patch_9">
    <path d="M 150.357228 37.244607 
Q 151.406938 37.207117 151.594386 37.132138 
Q 155.005945 37.132138 156.786703 39.212814 
Q 158.567462 41.29349 158.567462 44.780028 
Q 158.567462 47.704221 153.956234 47.704221 
Q 153.31891 47.704221 152.77531 47.591752 
Q 152.23171 47.479283 151.594386 47.254345 
Q 150.957062 47.029407 150.469697 46.916938 
L 149.232538 45.679779 
M 150.244759 25.435366 
L 150.244759 26.560055 
Q 150.244759 29.409269 150.357228 33.008276 
Q 150.469697 36.607283 150.657145 40.899848 
Q 150.844593 45.192414 150.919572 47.141876 
" clip-path="url(#p4f13705995)" style="fill: none; stroke: #000000; stroke-linejoin: miter"/>
   </g>
  </g>
  <g id="axes_11">
   <g id="patch_10">
    <path d="M 163.857798 38.160826 
Q 166.830275 39.535596 171.549083 39.721376 
Q 173.072477 39.721376 173.759862 38.550963 
Q 174.447248 37.38055 174.447248 35.82 
Q 174.447248 35.299817 174.354358 34.909679 
Q 174.261468 34.519541 174.019954 34.296606 
Q 173.77844 34.07367 173.611239 33.943624 
Q 173.444037 33.813578 172.998165 33.757844 
Q 172.552294 33.70211 172.347936 33.683532 
Q 172.143578 33.664954 171.567661 33.683532 
Q 170.991743 33.70211 170.768807 33.70211 
Q 168.725229 33.70211 167.238991 35.578486 
Q 165.752752 37.454862 165.752752 39.609908 
Q 165.752752 42.619541 167.684862 44.570229 
Q 169.616972 46.520917 172.663761 46.520917 
Q 174.818807 46.818165 176.342202 44.29156 
" clip-path="url(#p8980b45223)" style="fill: none; stroke: #000000; stroke-linejoin: miter"/>
   </g>
  </g>
  <g id="axes_12"/>
  <g id="axes_13">
   <g id="patch_11">
    <path d="M 197.888772 35.145186 
Q 197.888772 35.145186 197.888772 35.595062 
Q 197.888772 36.269876 197.776303 37.619503 
Q 197.663834 38.969131 197.663834 39.643945 
Q 197.663834 41.930814 198.900993 43.599103 
Q 200.138152 45.267393 202.275062 45.267393 
Q 203.662179 45.154924 204.430717 43.917766 
Q 205.199255 42.680607 205.349214 41.237255 
Q 205.499172 39.793903 205.7616 37.9944 
Q 206.024028 36.194897 206.436414 35.370124 
Q 206.586372 35.070207 206.586372 35.670041 
Q 206.586372 36.269876 206.323945 38.706703 
Q 206.099007 41.031062 206.099007 41.555917 
Q 205.949048 42.643117 206.286455 43.767807 
Q 206.623862 44.892497 207.336166 45.6048 
" clip-path="url(#p2c0bd9f54b)" style="fill: none; stroke: #000000; stroke-linejoin: miter"/>
   </g>
  </g>
  <g id="axes_14">
   <g id="patch_12">
    <path d="M 214.257476 43.917766 
Q 214.557393 44.180193 215.569614 45.154924 
Q 216.581834 46.129655 217.144179 46.560786 
Q 217.706524 46.991917 218.73749 47.385559 
Q 219.768455 47.7792 220.780676 47.629241 
Q 221.45549 47.629241 221.92411 47.404303 
Q 222.392731 47.179366 222.617669 46.879448 
Q 222.842607 46.579531 222.973821 45.979697 
Q 223.105034 45.379862 223.123779 44.967476 
Q 223.142524 44.55509 223.142524 43.805297 
Q 223.142524 42.718097 222.242772 42.043283 
Q 221.343021 41.368469 220.049628 41.031062 
Q 218.756234 40.693655 217.462841 40.300014 
Q 216.169448 39.906372 215.269697 38.987876 
Q 214.369945 38.069379 214.369945 36.607283 
Q 214.369945 36.082428 214.538648 35.726276 
Q 214.707352 35.370124 215.100993 35.145186 
Q 215.494634 34.920248 215.775807 34.807779 
Q 216.056979 34.69531 216.713048 34.639076 
Q 217.369117 34.582841 217.556566 34.582841 
Q 217.744014 34.582841 218.418828 34.582841 
Q 219.618497 34.582841 220.199586 34.995228 
Q 220.780676 35.407614 221.099338 36.026193 
Q 221.418 36.644772 221.680428 36.832221 
" clip-path="url(#p88a04102ec)" style="fill: none; stroke: #000000; stroke-linejoin: miter"/>
   </g>
  </g>
  <g id="axes_15">
   <g id="patch_13">
    <path d="M 228.657798 38.160826 
Q 231.630275 39.535596 236.349083 39.721376 
Q 237.872477 39.721376 238.559862 38.550963 
Q 239.247248 37.38055 239.247248 35.82 
Q 239.247248 35.299817 239.154358 34.909679 
Q 239.061468 34.519541 238.819954 34.296606 
Q 238.57844 34.07367 238.411239 33.943624 
Q 238.244037 33.813578 237.798165 33.757844 
Q 237.352294 33.70211 237.147936 33.683532 
Q 236.943578 33.664954 236.367661 33.683532 
Q 235.791743 33.70211 235.568807 33.70211 
Q 233.525229 33.70211 232.038991 35.578486 
Q 230.552752 37.454862 230.552752 39.609908 
Q 230.552752 42.619541 232.484862 44.570229 
Q 234.416972 46.520917 237.463761 46.520917 
Q 239.618807 46.818165 241.142202 44.29156 
" clip-path="url(#pe49a886282)" style="fill: none; stroke: #000000; stroke-linejoin: miter"/>
   </g>
  </g>
  <g id="axes_16">
   <g id="patch_14">
    <path d="M 254.699007 39.568966 
Q 253.349379 38.181848 251.1 38.444276 
Q 248.250786 38.444276 247.088607 39.793903 
Q 245.926428 41.143531 245.926428 44.067724 
Q 245.926428 45.56731 247.219821 46.279614 
Q 248.513214 46.991917 250.087779 46.991917 
Q 251.399917 46.991917 252.412138 45.736014 
Q 253.424359 44.48011 254.005448 42.30571 
Q 254.586538 40.13131 254.961434 37.938166 
Q 255.336331 35.745021 255.48629 33.045766 
Q 255.636248 30.34651 255.673738 28.978138 
Q 255.711228 27.609766 255.711228 26.185159 
Q 255.48629 26.260138 255.48629 29.896634 
L 255.48629 44.292662 
L 256.273572 48.229076 
" clip-path="url(#p2507ecee37)" style="fill: none; stroke: #000000; stroke-linejoin: miter"/>
   </g>
  </g>
  <g id="axes_17"/>
  <g id="axes_18">
   <g id="patch_15">
    <path d="M 277.184141 38.85304 
L 277.612335 38.85304 
Q 278.43304 38.85304 279.396476 38.745991 
Q 280.359912 38.638943 281.519604 38.460529 
Q 282.679295 38.282115 283.285903 38.210749 
L 289.815859 35.427489 
M 289.494714 25.793128 
Q 289.209251 25.721762 288.174449 25.275727 
Q 287.139648 24.829692 286.497357 24.93674 
Q 285.855066 24.93674 285.337665 25.150837 
Q 284.820264 25.364934 284.481278 25.793128 
Q 284.142291 26.221322 283.87467 26.685198 
Q 283.607048 27.149075 283.464317 27.862731 
Q 283.321586 28.576388 283.214537 29.129471 
Q 283.107489 29.682555 283.089648 30.50326 
Q 283.071806 31.323965 283.053965 31.77 
Q 283.036123 32.216035 283.053965 32.965374 
Q 283.071806 33.714714 283.071806 33.928811 
Q 283.071806 36.605022 283.767621 41.850396 
Q 284.463436 47.095771 284.463436 49.771982 
Q 284.39207 50.057445 284.356388 50.681894 
Q 284.320705 51.306344 284.213656 51.805903 
Q 284.106608 52.305463 283.821145 52.555242 
" clip-path="url(#pbfdaf95446)" style="fill: none; stroke: #000000; stroke-linejoin: miter"/>
   </g>
  </g>
  <g id="axes_19">
   <g id="patch_16">
    <path d="M 302.9616 35.032717 
Q 301.91189 34.582841 300.937159 34.69531 
Q 297.900497 35.032717 295.988524 36.701007 
Q 294.076552 38.369297 294.076552 41.330979 
Q 294.076552 43.917766 296.082248 45.6048 
Q 298.087945 47.291834 300.712221 47.291834 
Q 303.074069 47.291834 304.198759 45.361117 
Q 305.323448 43.4304 305.323448 40.881103 
Q 305.323448 39.643945 304.911062 38.706703 
Q 304.498676 37.769462 303.973821 37.300841 
Q 303.448966 36.832221 302.699172 36.119917 
Q 301.949379 35.407614 301.499503 34.69531 
L 300.262345 34.245434 
" clip-path="url(#p15d1cca3fd)" style="fill: none; stroke: #000000; stroke-linejoin: miter"/>
   </g>
  </g>
  <g id="axes_20">
   <g id="patch_17">
    <path d="M 312.413462 32.783338 
Q 312.938317 34.507862 313.069531 36.457324 
Q 313.200745 38.406786 313.125766 40.956083 
Q 313.050786 43.505379 313.088276 44.705048 
L 313.200745 46.054676 
L 313.200745 45.829738 
Q 313.200745 44.667559 312.919572 42.30571 
Q 312.6384 39.943862 312.6384 38.744193 
Q 312.6384 36.419834 313.650621 34.882759 
Q 314.662841 33.345683 316.687283 33.345683 
Q 317.399586 33.345683 317.736993 33.626855 
Q 318.0744 33.908028 318.336828 34.432883 
Q 318.599255 34.957738 318.936662 35.257655 
L 319.386538 36.832221 
" clip-path="url(#p69393387bc)" style="fill: none; stroke: #000000; stroke-linejoin: miter"/>
   </g>
  </g>
  <g id="axes_21"/>
  <g id="axes_22">
   <g id="patch_18">
    <path d="M 344.813462 32.783338 
Q 345.338317 34.507862 345.469531 36.457324 
Q 345.600745 38.406786 345.525766 40.956083 
Q 345.450786 43.505379 345.488276 44.705048 
L 345.600745 46.054676 
L 345.600745 45.829738 
Q 345.600745 44.667559 345.319572 42.30571 
Q 345.0384 39.943862 345.0384 38.744193 
Q 345.0384 36.419834 346.050621 34.882759 
Q 347.062841 33.345683 349.087283 33.345683 
Q 349.799586 33.345683 350.136993 33.626855 
Q 350.4744 33.908028 350.736828 34.432883 
Q 350.999255 34.957738 351.336662 35.257655 
L 351.786538 36.832221 
" clip-path="url(#pdee2cec684)" style="fill: none; stroke: #000000; stroke-linejoin: miter"/>
   </g>
  </g>
  <g id="axes_23">
   <g id="patch_19">
    <path d="M 358.257798 38.160826 
Q 361.230275 39.535596 365.949083 39.721376 
Q 367.472477 39.721376 368.159862 38.550963 
Q 368.847248 37.38055 368.847248 35.82 
Q 368.847248 35.299817 368.754358 34.909679 
Q 368.661468 34.519541 368.419954 34.296606 
Q 368.17844 34.07367 368.011239 33.943624 
Q 367.844037 33.813578 367.398165 33.757844 
Q 366.952294 33.70211 366.747936 33.683532 
Q 366.543578 33.664954 365.967661 33.683532 
Q 365.391743 33.70211 365.168807 33.70211 
Q 363.125229 33.70211 361.638991 35.578486 
Q 360.152752 37.454862 360.152752 39.609908 
Q 360.152752 42.619541 362.084862 44.570229 
Q 364.016972 46.520917 367.063761 46.520917 
Q 369.218807 46.818165 370.742202 44.29156 
" clip-path="url(#p64c034376e)" style="fill: none; stroke: #000000; stroke-linejoin: miter"/>
   </g>
  </g>
  <g id="axes_24">
   <g id="patch_20">
    <path d="M 376.257476 43.917766 
Q 376.557393 44.180193 377.569614 45.154924 
Q 378.581834 46.129655 379.144179 46.560786 
Q 379.706524 46.991917 380.73749 47.385559 
Q 381.768455 47.7792 382.780676 47.629241 
Q 383.45549 47.629241 383.92411 47.404303 
Q 384.392731 47.179366 384.617669 46.879448 
Q 384.842607 46.579531 384.973821 45.979697 
Q 385.105034 45.379862 385.123779 44.967476 
Q 385.142524 44.55509 385.142524 43.805297 
Q 385.142524 42.718097 384.242772 42.043283 
Q 383.343021 41.368469 382.049628 41.031062 
Q 380.756234 40.693655 379.462841 40.300014 
Q 378.169448 39.906372 377.269697 38.987876 
Q 376.369945 38.069379 376.369945 36.607283 
Q 376.369945 36.082428 376.538648 35.726276 
Q 376.707352 35.370124 377.100993 35.145186 
Q 377.494634 34.920248 377.775807 34.807779 
Q 378.056979 34.69531 378.713048 34.639076 
Q 379.369117 34.582841 379.556566 34.582841 
Q 379.744014 34.582841 380.418828 34.582841 
Q 381.618497 34.582841 382.199586 34.995228 
Q 382.780676 35.407614 383.099338 36.026193 
Q 383.418 36.644772 383.680428 36.832221 
" clip-path="url(#pda848327f3)" style="fill: none; stroke: #000000; stroke-linejoin: miter"/>
   </g>
  </g>
  <g id="axes_25">
   <g id="patch_21">
    <path d="M 390.657798 38.160826 
Q 393.630275 39.535596 398.349083 39.721376 
Q 399.872477 39.721376 400.559862 38.550963 
Q 401.247248 37.38055 401.247248 35.82 
Q 401.247248 35.299817 401.154358 34.909679 
Q 401.061468 34.519541 400.819954 34.296606 
Q 400.57844 34.07367 400.411239 33.943624 
Q 400.244037 33.813578 399.798165 33.757844 
Q 399.352294 33.70211 399.147936 33.683532 
Q 398.943578 33.664954 398.367661 33.683532 
Q 397.791743 33.70211 397.568807 33.70211 
Q 395.525229 33.70211 394.038991 35.578486 
Q 392.552752 37.454862 392.552752 39.609908 
Q 392.552752 42.619541 394.484862 44.570229 
Q 396.416972 46.520917 399.463761 46.520917 
Q 401.618807 46.818165 403.142202 44.29156 
" clip-path="url(#p164eb93b70)" style="fill: none; stroke: #000000; stroke-linejoin: miter"/>
   </g>
  </g>
  <g id="axes_26">
   <g id="patch_22">
    <path d="M 418.643923 36.441748 
Q 417.434968 35.094627 413.462687 35.094627 
Q 411.942857 35.094627 411.165672 35.146439 
Q 410.388486 35.198252 409.38678 35.440043 
Q 408.385075 35.681834 407.901493 36.182687 
Q 407.41791 36.683539 407.072495 37.616162 
Q 406.727079 38.548785 406.727079 39.964989 
Q 406.727079 42.037484 408.143284 43.280981 
Q 409.559488 44.524478 411.493817 44.524478 
Q 414.153518 44.524478 416.916844 38.721493 
Q 418.263966 35.854542 418.263966 35.82 
Q 418.609382 35.578209 418.643923 36.441748 
Q 418.643923 37.512537 419.058422 40.362217 
Q 419.472921 43.211898 419.472921 44.524478 
" clip-path="url(#pb0a29e8271)" style="fill: none; stroke: #000000; stroke-linejoin: miter"/>
   </g>
  </g>
  <g id="axes_27">
   <g id="patch_23">
    <path d="M 425.813462 32.783338 
Q 426.338317 34.507862 426.469531 36.457324 
Q 426.600745 38.406786 426.525766 40.956083 
Q 426.450786 43.505379 426.488276 44.705048 
L 426.600745 46.054676 
L 426.600745 45.829738 
Q 426.600745 44.667559 426.319572 42.30571 
Q 426.0384 39.943862 426.0384 38.744193 
Q 426.0384 36.419834 427.050621 34.882759 
Q 428.062841 33.345683 430.087283 33.345683 
Q 430.799586 33.345683 431.136993 33.626855 
Q 431.4744 33.908028 431.736828 34.432883 
Q 431.999255 34.957738 432.336662 35.257655 
L 432.786538 36.832221 
" clip-path="url(#p1173c37ae8)" style="fill: none; stroke: #000000; stroke-linejoin: miter"/>
   </g>
  </g>
  <g id="axes_28">
   <g id="patch_24">
    <path d="M 450.756735 34.365306 
Q 450.756735 34.365306 450.260816 34.365306 
Q 449.467347 34.365306 447.979592 34.067755 
Q 446.491837 33.770204 445.698367 33.770204 
Q 442.921224 33.770204 440.987143 35.224898 
Q 439.053061 36.679592 439.053061 39.423673 
Q 439.053061 40.94449 440.540816 42.399184 
Q 442.028571 43.853878 443.962653 44.663878 
Q 445.896735 45.473878 447.38449 45.473878 
Q 448.310204 45.473878 449.00449 45.110204 
Q 449.698776 44.746531 450.442653 44.118367 
Q 451.186531 43.490204 451.748571 43.192653 
L 451.946939 42.696735 
" clip-path="url(#p7685441ef1)" style="fill: none; stroke: #000000; stroke-linejoin: miter"/>
   </g>
  </g>
  <g id="axes_29">
   <g id="patch_25">
    <path d="M 458.213462 35.932469 
Q 458.813297 35.257655 459.806772 34.826524 
Q 460.800248 34.395393 461.7 34.470372 
Q 462.337324 34.470372 462.82469 34.639076 
Q 463.312055 34.807779 463.630717 34.995228 
Q 463.949379 35.182676 464.174317 35.670041 
Q 464.399255 36.157407 464.511724 36.419834 
Q 464.624193 36.682262 464.680428 37.375821 
Q 464.736662 38.069379 464.755407 38.331807 
Q 464.774152 38.594234 464.755407 39.419007 
Q 464.736662 40.243779 464.736662 40.431228 
Q 464.736662 41.368469 464.567959 43.242952 
Q 464.399255 45.117434 464.399255 46.054676 
Q 464.399255 46.467062 464.45549 46.823214 
Q 464.511724 47.179366 464.605448 47.610497 
Q 464.699172 48.041628 464.736662 48.304055 
L 465.186538 48.528993 
M 458.663338 23.111007 
Q 458.888276 24.798041 458.888276 29.971614 
L 458.888276 42.3432 
L 458.550869 46.841959 
L 458.325931 47.74171 
" clip-path="url(#p041f9c0b5f)" style="fill: none; stroke: #000000; stroke-linejoin: miter"/>
   </g>
  </g>
  <g id="axes_30">
   <g id="patch_26">
    <path d="M 477.787531 45.979697 
Q 477.750041 46.017186 477.618828 46.054676 
Q 477.487614 46.092166 477.525103 46.167145 
Q 477.525103 46.579531 477.9 46.579531 
Q 478.237407 46.579531 478.237407 46.092166 
Q 478.312386 45.867228 478.031214 45.754759 
Q 477.750041 45.64229 477.562593 45.754759 
" clip-path="url(#pc5bf68c367)" style="fill: none; stroke: #000000; stroke-linejoin: miter"/>
   </g>
  </g>
 </g>
 <defs>
  <clipPath id="pae15442cd0">
   <rect x="1.389352" y="8.64" width="13.421297" height="54.36"/>
  </clipPath>
  <clipPath id="p2dc560e757">
   <rect x="18.938979" y="8.64" width="10.722041" height="54.36"/>
  </clipPath>
  <clipPath id="pda39e77077">
   <rect x="32.4" y="10.777356" width="16.2" height="50.085288"/>
  </clipPath>
  <clipPath id="p422d8832b0">
   <rect x="49.989352" y="8.64" width="13.421297" height="54.36"/>
  </clipPath>
  <clipPath id="p0ca739b835">
   <rect x="81" y="11.850612" width="16.2" height="47.938776"/>
  </clipPath>
  <clipPath id="pa3fe6ef7d0">
   <rect x="97.2" y="10.777356" width="16.2" height="50.085288"/>
  </clipPath>
  <clipPath id="p152619e6cd">
   <rect x="115.164248" y="8.64" width="12.671503" height="54.36"/>
  </clipPath>
  <clipPath id="p4f13705995">
   <rect x="147.358055" y="8.64" width="13.08389" height="54.36"/>
  </clipPath>
  <clipPath id="p8980b45223">
   <rect x="162" y="8.881927" width="16.2" height="53.876147"/>
  </clipPath>
  <clipPath id="p2c0bd9f54b">
   <rect x="195.789352" y="8.64" width="13.421297" height="54.36"/>
  </clipPath>
  <clipPath id="p88a04102ec">
   <rect x="212.382993" y="8.64" width="12.634014" height="54.36"/>
  </clipPath>
  <clipPath id="pe49a886282">
   <rect x="226.8" y="8.881927" width="16.2" height="53.876147"/>
  </clipPath>
  <clipPath id="p2507ecee37">
   <rect x="244.051945" y="8.64" width="14.09611" height="54.36"/>
  </clipPath>
  <clipPath id="pbfdaf95446">
   <rect x="275.4" y="9.949956" width="16.2" height="51.740088"/>
  </clipPath>
  <clipPath id="p15d1cca3fd">
   <rect x="292.202069" y="8.64" width="14.995862" height="54.36"/>
  </clipPath>
  <clipPath id="p69393387bc">
   <rect x="310.538979" y="8.64" width="10.722041" height="54.36"/>
  </clipPath>
  <clipPath id="pdee2cec684">
   <rect x="342.938979" y="8.64" width="10.722041" height="54.36"/>
  </clipPath>
  <clipPath id="p64c034376e">
   <rect x="356.4" y="8.881927" width="16.2" height="53.876147"/>
  </clipPath>
  <clipPath id="pda848327f3">
   <rect x="374.382993" y="8.64" width="12.634014" height="54.36"/>
  </clipPath>
  <clipPath id="p164eb93b70">
   <rect x="388.8" y="8.881927" width="16.2" height="53.876147"/>
  </clipPath>
  <clipPath id="pb0a29e8271">
   <rect x="405" y="10.777356" width="16.2" height="50.085288"/>
  </clipPath>
  <clipPath id="p1173c37ae8">
   <rect x="423.938979" y="8.64" width="10.722041" height="54.36"/>
  </clipPath>
  <clipPath id="p7685441ef1">
   <rect x="437.4" y="11.850612" width="16.2" height="47.938776"/>
  </clipPath>
  <clipPath id="p041f9c0b5f">
   <rect x="456.338979" y="8.64" width="10.722041" height="54.36"/>
  </clipPath>
  <clipPath id="pc5bf68c367">
   <rect x="475.613131" y="8.64" width="4.573738" height="54.36"/>
  </clipPath>
 </defs>
</svg>
