<?xml version="1.0" encoding="utf-8" standalone="no"?>
<!DOCTYPE svg PUBLIC "-//W3C//DTD SVG 1.1//EN"
  "http://www.w3.org/Graphics/SVG/1.1/DTD/svg11.dtd">
<svg xmlns:xlink="http://www.w3.org/1999/xlink" width="405pt" height="162pt" viewBox="0 0 405 162" xmlns="http://www.w3.org/2000/svg" version="1.1">
 <metadata>
  <rdf:RDF xmlns:dc="http://purl.org/dc/elements/1.1/" xmlns:cc="http://creativecommons.org/ns#" xmlns:rdf="http://www.w3.org/1999/02/22-rdf-syntax-ns#">
   <cc:Work>
    <dc:type rdf:resource="http://purl.org/dc/dcmitype/StillImage"/>
    <dc:date>2023-02-15T22:55:49.700167</dc:date>
    <dc:format>image/svg+xml</dc:format>
    <dc:creator>
     <cc:Agent>
      <dc:title>Matplotlib v3.6.1, https://matplotlib.org/</dc:title>
     </cc:Agent>
    </dc:creator>
   </cc:Work>
  </rdf:RDF>
 </metadata>
 <defs>
  <style type="text/css">*{stroke-linejoin: round; stroke-linecap: butt}</style>
 </defs>
 <g id="figure_1">
  <g id="patch_1">
   <path d="M 0 162 
L 405 162 
L 405 0 
L 0 0 
z
" style="fill: #8fff9f"/>
  </g>
  <g id="axes_1">
   <g id="patch_2">
    <path d="M 2.206416 79.138765 
L 2.868341 79.138765 
Q 8.207869 78.697482 18.533898 78.763674 
Q 28.859927 78.829867 34.243584 78.47684 
" clip-path="url(#p7e63aef935)" style="fill: none; stroke: #000000; stroke-linejoin: miter"/>
   </g>
  </g>
  <g id="axes_2">
   <g id="patch_3">
    <path d="M 50.500814 76.489243 
Q 57.389362 75.485613 63.000563 74.117028 
Q 63.228661 74.071408 63.525188 73.957359 
Q 63.821715 73.84331 63.981383 73.774881 
Q 64.141051 73.706452 64.323529 73.706452 
Q 64.506008 73.706452 64.574437 73.88893 
Q 64.642866 74.071408 64.642866 74.390745 
Q 64.642866 75.80495 63.890144 78.747409 
Q 63.137422 81.689869 63.091802 83.058454 
Q 63.046183 84.609518 62.110982 87.825695 
Q 61.175782 91.041871 61.175782 92.501696 
Q 61.175782 92.638554 60.628348 92.638554 
L 60.217772 92.638554 
L 58.028035 90.722534 
M 55.883917 68.688304 
L 55.792678 74.162647 
L 52.827409 85.521909 
L 50.911389 90.448817 
M 41.878723 69.509456 
L 42.152441 69.509456 
Q 42.426158 69.509456 42.745494 69.691934 
Q 43.064831 69.874412 43.406977 70.193748 
Q 43.749124 70.513085 43.931602 70.604324 
L 45.300188 72.246627 
M 38.730976 94.782672 
L 41.741865 93.550945 
Q 42.289299 93.459706 43.110451 93.300038 
Q 43.931602 93.140369 44.319368 93.07194 
Q 44.707134 93.003511 45.391427 92.957891 
Q 46.07572 92.912272 46.942491 92.912272 
Q 48.037359 93.003511 48.972559 92.935081 
Q 49.90776 92.866652 51.025438 93.003511 
Q 52.143116 93.140369 52.964268 93.596564 
Q 53.785419 94.05276 55.815488 94.645814 
Q 57.845557 95.238867 58.712328 95.238867 
L 59.807196 95.238867 
Q 59.944055 95.238867 60.628348 95.649443 
L 70.619024 95.786302 
M 39.871464 77.72097 
Q 40.190801 77.72097 40.715426 77.584111 
Q 41.24005 77.447253 41.513767 77.447253 
Q 42.973592 77.082297 44.205319 76.76296 
Q 46.166959 76.215526 46.805632 76.215526 
Q 46.760013 76.352384 46.623154 76.603292 
Q 46.486295 76.854199 46.281008 77.196345 
Q 46.07572 77.538492 45.984481 77.72097 
Q 43.885982 80.093185 44.068461 82.51102 
Q 44.205319 84.335801 44.752753 85.521909 
L 45.437046 88.669656 
L 45.300188 92.364837 
" clip-path="url(#p209273ecc5)" style="fill: none; stroke: #000000; stroke-linejoin: miter"/>
   </g>
  </g>
  <g id="axes_3">
   <g id="patch_4">
    <path d="M 96.139055 87.00427 
Q 97.229067 90.797512 99.801495 92.47613 
Q 102.373923 94.154749 107.169976 94.459952 
M 95.223445 87.135072 
L 95.223445 87.396675 
Q 92.999821 92.105526 85.151734 93.936746 
M 85.805742 87.135072 
Q 86.416148 87.00427 87.179157 86.98247 
Q 87.942165 86.96067 88.901376 86.98247 
Q 89.860586 87.00427 90.383792 87.00427 
Q 92.607416 87.00427 95.049043 86.829868 
Q 97.49067 86.655467 100.499103 86.372063 
Q 103.507536 86.08866 105.164354 85.957859 
L 105.556758 85.696256 
M 95.746651 83.734234 
L 95.615849 94.067548 
Q 95.223445 94.24195 95.354246 94.721555 
M 97.708672 82.687823 
L 100.324701 82.687823 
Q 100.935108 82.818624 102.722727 82.687823 
Q 104.510347 82.557022 105.164354 82.949426 
M 97.316268 77.324964 
Q 98.537081 77.150562 101.196711 77.128762 
Q 103.85634 77.106962 105.164354 76.93256 
Q 105.164354 76.97616 103.594737 80.856603 
L 103.463935 82.818624 
M 97.185467 77.717368 
L 97.185467 82.164617 
M 88.683373 82.949426 
L 94.307835 82.949426 
M 87.113756 78.371376 
Q 88.334569 78.414976 90.863397 77.82637 
Q 93.392225 77.237763 94.569438 77.324964 
L 93.915431 82.557022 
M 86.721352 78.371376 
L 86.721352 78.76378 
Q 86.721352 78.80738 87.50616 79.940993 
L 88.290969 82.818624 
M 93.087022 74.796136 
L 99.627093 74.796136 
M 92.476615 69.171675 
L 99.278289 68.910072 
L 98.973086 75.580945 
M 92.215012 68.77927 
L 92.563816 74.142129 
M 75.167225 85.303852 
Q 75.080024 85.478254 75.298026 85.434653 
Q 75.516029 85.434653 75.559629 85.434653 
Q 76.082835 85.434653 77.194647 84.802446 
Q 78.306459 84.170239 79.592673 83.276429 
Q 80.878888 82.38262 81.053289 82.295419 
L 84.454127 79.286986 
M 75.690431 76.540156 
L 76.606041 76.540156 
Q 77.042045 76.540156 77.43445 76.452955 
Q 77.826854 76.365754 78.32826 76.234952 
Q 78.829665 76.104151 79.222069 76.01695 
L 82.753708 75.624545 
L 84.977333 75.232141 
M 79.091268 68.822871 
Q 79.047667 69.128074 79.091268 69.738481 
L 79.091268 70.784892 
L 80.268481 82.295419 
L 80.006878 95.113959 
L 76.998445 90.928313 
" clip-path="url(#p4836198e63)" style="fill: none; stroke: #000000; stroke-linejoin: miter"/>
   </g>
  </g>
  <g id="axes_4">
   <g id="patch_5">
    <path d="M 129.281055 87.690022 
L 139.517385 86.985936 
M 129.118574 80.432519 
L 129.606018 80.432519 
L 138.055052 79.186828 
L 138.542496 79.024346 
M 129.118574 72.958373 
L 128.956092 74.583187 
L 128.956092 89.856441 
L 128.576969 98.955401 
M 127.331278 72.958373 
Q 127.331278 72.958373 128.143685 72.958373 
Q 128.197845 72.958373 131.230832 72.470929 
L 143.091976 70.521152 
M 133.343091 65.484227 
Q 130.418425 71.550201 125.32734 77.453692 
L 122.619316 79.945074 
M 118.719762 75.287273 
L 118.719762 75.937199 
Q 118.719762 75.99136 118.394799 78.699383 
L 118.557281 96.084896 
L 118.394799 97.70971 
M 122.781798 69.112979 
Q 122.348514 69.762905 121.509027 71.198158 
Q 120.669539 72.63341 120.100854 73.472897 
Q 119.532169 74.312385 118.584361 75.341434 
Q 117.636553 76.370483 116.607504 76.912088 
L 114.332764 78.753544 
L 112.058024 80.64916 
" clip-path="url(#pc9c9a1aa7a)" style="fill: none; stroke: #000000; stroke-linejoin: miter"/>
   </g>
  </g>
  <g id="axes_5">
   <g id="patch_6">
    <path d="M 158.26114 90.629251 
Q 159.894622 90.349225 163.861652 90.162542 
Q 167.828681 89.975858 170.022215 89.555819 
L 171.422343 89.275794 
M 158.914533 85.495448 
L 159.754609 85.495448 
L 170.675608 85.215423 
M 157.654417 94.316255 
Q 157.654417 94.316255 158.354481 94.316255 
L 167.595327 94.316255 
L 169.835531 94.642951 
M 157.79443 80.828355 
Q 157.79443 80.828355 158.634507 80.828355 
Q 161.014725 80.828355 165.845166 80.198297 
Q 170.675608 79.568239 173.055826 79.568239 
Q 173.335851 79.568239 173.335851 79.988278 
Q 172.822471 84.328675 172.752465 86.428867 
Q 172.682458 88.529059 172.7758 92.916127 
Q 172.7758 93.149481 172.822471 93.756204 
Q 173.102497 96.929827 172.215749 96.976498 
Q 171.74904 97.023169 170.955634 96.323105 
L 170.115557 95.763054 
M 158.354481 81.668431 
Q 158.354481 81.715102 158.657843 82.34516 
Q 158.961204 82.975218 158.914533 83.348585 
L 158.77452 94.316255 
L 158.634507 95.57637 
M 161.854802 71.58751 
Q 161.808131 72.007548 161.854802 72.427586 
Q 161.854802 75.274513 160.408003 78.098105 
Q 158.961204 80.921697 157.141037 82.835205 
Q 155.320871 84.748713 152.940653 87.292279 
Q 150.560435 89.835845 149.393662 91.609341 
L 148.133547 92.309405 
M 150.467093 77.981428 
L 169.78886 76.5813 
L 179.916453 76.11459 
M 155.694238 74.807804 
L 156.534315 74.807804 
Q 158.167798 74.807804 160.104641 74.62112 
Q 162.041485 74.434437 164.398367 74.131076 
Q 166.75525 73.827714 168.015365 73.687702 
L 170.115557 73.267663 
M 153.454033 72.707612 
L 154.014085 72.707612 
Q 155.507554 72.707612 157.631082 72.334245 
Q 159.754609 71.960877 162.368182 71.37749 
Q 164.981754 70.794104 166.055186 70.60742 
L 172.495775 70.187382 
M 166.615237 67.153771 
Q 166.335211 67.387125 165.868502 67.87717 
Q 165.401793 68.367215 165.355122 68.413886 
L 163.721639 69.814014 
M 156.30096 67.340455 
L 159.474584 70.187382 
" clip-path="url(#pbf90990f5f)" style="fill: none; stroke: #000000; stroke-linejoin: miter"/>
   </g>
  </g>
  <g id="axes_6">
   <g id="patch_7">
    <path d="M 203.463666 91.787846 
Q 203.873875 92.198055 204.870096 92.930571 
Q 205.866318 93.663087 206.276527 94.073296 
L 213.132878 98.644196 
M 189.926768 74.559068 
L 190.278376 74.559068 
Q 190.571383 74.559068 191.010892 74.764172 
Q 191.450402 74.969277 192.007114 75.262283 
Q 192.563826 75.555289 192.73963 75.613891 
L 196.958923 78.426752 
M 189.047749 79.833183 
Q 189.750965 80.360595 191.421101 81.005209 
Q 193.091238 81.649823 193.794453 82.118633 
L 194.673473 82.997653 
M 185.180064 86.689534 
L 187.113907 86.689534 
Q 191.098794 86.689534 195.640394 86.396527 
Q 200.181994 86.103521 205.778416 85.60541 
Q 211.374839 85.107299 214.363505 84.931495 
M 201.705627 73.680048 
Q 201.647026 74.090257 201.705627 75.789695 
Q 201.705627 80.008987 200.533601 83.290659 
Q 199.361576 86.572331 197.28123 90.381415 
Q 195.200884 94.190498 194.146061 97.061961 
L 190.981592 100.578039 
M 197.310531 63.659228 
Q 197.427733 63.71783 199.595981 64.714051 
L 200.650804 66.120482 
M 186.938103 71.570402 
L 192.036415 71.218794 
Q 194.439068 70.925788 199.420177 70.076069 
Q 204.401286 69.22635 208.444775 68.72824 
Q 212.488264 68.230129 215.769936 68.230129 
Q 215.008119 69.636559 214.539309 70.691383 
L 213.308682 73.504244 
M 187.641318 67.878521 
Q 187.172508 68.523135 187.289711 70.339775 
Q 187.348312 71.160193 186.762299 72.449421 
L 185.707476 76.317106 
" clip-path="url(#pf2e40be8f8)" style="fill: none; stroke: #000000; stroke-linejoin: miter"/>
   </g>
  </g>
  <g id="axes_7">
   <g id="patch_8">
    <path d="M 236.081684 94.228612 
Q 236.925 93.994357 239.056716 93.853805 
Q 241.188432 93.713252 242.266003 93.385296 
L 252.807455 93.244743 
M 250.839717 82.14108 
Q 250.839717 82.187931 249.035958 86.427937 
Q 247.232198 90.667943 247.185347 92.823085 
L 246.763689 93.666401 
M 243.249871 83.406054 
Q 243.390424 83.640308 243.92921 84.553901 
Q 244.467995 85.467494 244.795951 85.936003 
L 246.342031 87.622635 
M 240.017159 86.217108 
L 240.438817 86.217108 
Q 240.907326 86.217108 241.446112 86.709042 
Q 241.984897 87.200977 242.523683 87.90374 
Q 243.062468 88.606504 243.249871 88.747057 
L 244.093188 89.871478 
M 239.736054 79.751684 
L 247.607005 79.611131 
M 242.828213 71.037416 
Q 243.624679 71.787031 244.983355 73.333111 
Q 246.342031 74.87919 247.138496 75.675656 
Q 247.934961 76.472121 249.363914 77.245161 
Q 250.792866 78.018201 252.479499 78.205604 
M 243.812082 69.350784 
Q 243.484126 69.819293 242.593959 71.201395 
Q 241.703792 72.583496 241.165006 73.28626 
Q 240.626221 73.989023 239.759479 75.019743 
Q 238.892738 76.050463 237.95572 76.68295 
Q 237.018702 77.315437 235.941131 77.643393 
L 234.535604 78.346157 
M 221.042545 90.386838 
Q 222.073265 89.96518 224.017577 89.075013 
Q 225.961889 88.184846 227.250289 87.669486 
Q 228.538689 87.154126 230.225321 86.638766 
L 229.709961 86.217108 
M 224.134704 72.958303 
L 224.134704 73.520514 
Q 224.181555 74.410681 224.087853 75.39455 
Q 223.994152 76.378419 223.806748 77.596542 
Q 223.619344 78.814666 223.572494 79.423728 
Q 223.525643 79.704833 223.338239 80.431022 
Q 223.150835 81.157211 223.150835 81.532018 
Q 223.057134 82.094229 223.572494 81.906825 
Q 223.713046 81.906825 224.041003 81.766272 
Q 224.650064 81.485167 224.837468 81.532018 
Q 225.633933 81.719422 228.046754 81.36804 
Q 230.459576 81.016658 232.474165 80.595 
L 234.535604 80.173342 
Q 234.535604 81.719422 233.715713 88.606504 
Q 232.895823 95.493586 232.474165 95.493586 
Q 232.005656 95.493586 231.349743 94.90795 
Q 230.69383 94.322314 230.459576 94.228612 
L 228.960347 93.10419 
M 222.166967 71.271671 
L 231.396594 70.053548 
L 230.506427 75.39455 
L 229.522558 79.470578 
" clip-path="url(#p29051ebcb1)" style="fill: none; stroke: #000000; stroke-linejoin: miter"/>
   </g>
  </g>
  <g id="axes_8">
   <g id="patch_9">
    <path d="M 270.590311 83.130652 
Q 272.582609 84.443758 275.050342 86.843571 
Q 277.518075 89.243385 279.351894 91.145124 
Q 281.185714 93.046863 283.857205 94.790124 
Q 286.528696 96.533385 289.336025 97.122019 
M 273.171242 81.093075 
Q 274.076832 80.821398 276.635124 80.57236 
Q 279.193416 80.323323 280.823478 79.598851 
Q 281.140435 79.598851 281.140435 79.68941 
Q 281.140435 79.68941 281.140435 79.779969 
L 281.095155 80.006366 
Q 281.095155 82.723137 280.393323 84.964472 
Q 279.691491 87.205807 278.287826 88.949068 
Q 276.884161 90.692329 275.367298 91.914876 
Q 273.850435 93.137422 271.677019 94.541087 
L 269.277205 95.763634 
M 272.627888 68.324255 
L 273.171242 68.324255 
Q 274.665466 68.324255 276.838882 67.712981 
Q 279.012298 67.101708 280.189565 67.101708 
Q 280.325404 67.101708 280.348043 67.146988 
Q 280.370683 67.192267 280.348043 67.328106 
Q 280.325404 67.463944 280.325404 67.509224 
Q 280.325404 68.460093 280.008447 70.407112 
Q 279.691491 72.35413 279.691491 73.440839 
Q 279.691491 74.663385 281.253634 75.342578 
Q 282.815776 76.02177 284.174161 76.02177 
Q 284.445839 76.112329 284.649596 75.908571 
Q 284.853354 75.704814 284.717516 75.478416 
M 273.171242 68.324255 
Q 272.899565 69.501522 273.216522 72.625807 
Q 273.533478 75.750093 272.673168 76.836801 
L 271.314783 78.602702 
M 261.48913 70.950466 
Q 261.806087 70.905186 262.123043 71.290062 
Q 262.44 71.674938 262.711677 71.629658 
L 264.341739 73.667236 
M 257.413975 80.957236 
L 257.821491 80.957236 
Q 259.134596 80.957236 261.624969 79.395093 
Q 264.115342 77.83295 265.292609 77.83295 
Q 265.428447 77.83295 265.428447 78.376304 
Q 265.428447 81.54587 263.934224 85.756863 
Q 262.44 89.967857 262.44 93.182702 
Q 264.885093 92.186553 265.15677 92.095994 
L 267.692422 90.420652 
" clip-path="url(#pe49efa6a31)" style="fill: none; stroke: #000000; stroke-linejoin: miter"/>
   </g>
  </g>
  <g id="axes_9">
   <g id="patch_10">
    <path d="M 309.477857 83.111786 
L 309.477857 83.502321 
Q 309.477857 87.754821 309.694821 90.531964 
L 310.085357 92.745 
M 304.834821 89.013214 
L 315.466071 88.449107 
M 302.665179 94.307143 
Q 302.665179 94.307143 303.185893 94.307143 
Q 304.183929 94.307143 305.247054 94.198661 
Q 306.310179 94.090179 307.590268 93.916607 
Q 308.870357 93.743036 309.564643 93.65625 
L 314.251071 93.395893 
M 303.229286 83.892857 
L 315.075536 82.200536 
Q 315.379286 82.200536 315.9 82.135446 
Q 316.420714 82.070357 316.637679 82.070357 
Q 316.941429 82.070357 316.984821 82.092054 
Q 317.028214 82.11375 317.028214 82.330714 
Q 317.028214 82.504286 317.028214 82.591071 
Q 317.028214 83.719286 316.854643 84.999375 
Q 316.681071 86.279464 316.399018 87.863304 
Q 316.116964 89.447143 315.986786 90.271607 
L 315.162321 95.869286 
L 313.339821 94.176964 
M 303.099107 84.283393 
L 303.706607 94.5675 
M 304.010357 73.869107 
Q 306.310179 75.995357 309.456161 77.579196 
Q 312.602143 79.163036 316.724464 80.768571 
Q 320.846786 82.374107 322.88625 83.372143 
L 325.880357 83.6325 
M 303.619821 71.78625 
L 306.48375 71.78625 
Q 307.09125 71.78625 308.241161 71.742857 
Q 309.391071 71.699464 311.105089 71.569286 
Q 312.819107 71.439107 314.012411 71.157054 
Q 315.205714 70.875 315.205714 70.484464 
Q 313.817143 73.261607 311.994643 75.539732 
Q 310.172143 77.817857 308.371339 79.401696 
Q 306.570536 80.985536 303.945268 82.504286 
Q 301.32 84.023036 299.19375 84.999375 
Q 297.0675 85.975714 293.769643 87.320893 
M 304.921607 68.401607 
L 304.921607 68.792143 
Q 304.921607 70.137321 304.3575 71.439107 
Q 303.793393 72.740893 302.83875 74.21625 
Q 301.884107 75.691607 301.536964 76.472679 
L 300.365357 77.25375 
" clip-path="url(#p21b4ff7c1b)" style="fill: none; stroke: #000000; stroke-linejoin: miter"/>
   </g>
  </g>
  <g id="axes_10">
   <g id="patch_11">
    <path d="M 342.985283 83.125552 
Q 343.069634 83.294255 343.660097 83.842541 
Q 344.250559 84.390828 344.503614 84.643883 
Q 344.756669 84.896938 345.304955 85.529576 
Q 345.853241 86.162214 346.190648 86.541797 
Q 346.528055 86.921379 347.034166 87.596193 
Q 347.540276 88.271007 347.835507 88.734941 
Q 348.130738 89.198876 348.468145 89.87369 
Q 348.805552 90.548503 349.016431 91.09679 
Q 349.22731 91.645076 349.396014 92.277714 
Q 349.564717 92.910352 349.564717 93.500814 
Q 349.564717 94.76609 349.22731 95.862662 
Q 348.889903 96.959234 348.257266 98.182334 
Q 347.624628 99.405434 347.287221 100.333303 
L 344.756669 102.863855 
" clip-path="url(#p2d3bf1e609)" style="fill: none; stroke: #000000; stroke-linejoin: miter"/>
   </g>
  </g>
 </g>
 <defs>
  <clipPath id="p7e63aef935">
   <rect x="0" y="48.601961" width="36.45" height="63.986077"/>
  </clipPath>
  <clipPath id="p209273ecc5">
   <rect x="36.45" y="47.520845" width="36.45" height="66.14831"/>
  </clipPath>
  <clipPath id="p4836198e63">
   <rect x="72.9" y="48.984653" width="36.45" height="63.220694"/>
  </clipPath>
  <clipPath id="pc9c9a1aa7a">
   <rect x="109.35" y="41.328655" width="36.45" height="78.532689"/>
  </clipPath>
  <clipPath id="pbf90990f5f">
   <rect x="145.8" y="46.758572" width="36.45" height="67.672855"/>
  </clipPath>
  <clipPath id="pf2e40be8f8">
   <rect x="182.25" y="38.109068" width="36.45" height="84.971865"/>
  </clipPath>
  <clipPath id="p29051ebcb1">
   <rect x="218.7" y="46.628098" width="36.45" height="67.933805"/>
  </clipPath>
  <clipPath id="pe49efa6a31">
   <rect x="255.15" y="47.76736" width="36.45" height="65.65528"/>
  </clipPath>
  <clipPath id="p21b4ff7c1b">
   <rect x="291.6" y="49.135179" width="36.45" height="62.919643"/>
  </clipPath>
  <clipPath id="p2d3bf1e609">
   <rect x="338.767697" y="19.44" width="15.014607" height="122.31"/>
  </clipPath>
 </defs>
</svg>
