<?xml version="1.0" encoding="utf-8" standalone="no"?>
<!DOCTYPE svg PUBLIC "-//W3C//DTD SVG 1.1//EN"
  "http://www.w3.org/Graphics/SVG/1.1/DTD/svg11.dtd">
<svg xmlns:xlink="http://www.w3.org/1999/xlink" width="414pt" height="72pt" viewBox="0 0 414 72" xmlns="http://www.w3.org/2000/svg" version="1.1">
 <metadata>
  <rdf:RDF xmlns:dc="http://purl.org/dc/elements/1.1/" xmlns:cc="http://creativecommons.org/ns#" xmlns:rdf="http://www.w3.org/1999/02/22-rdf-syntax-ns#">
   <cc:Work>
    <dc:type rdf:resource="http://purl.org/dc/dcmitype/StillImage"/>
    <dc:date>2023-01-29T11:13:26.819667</dc:date>
    <dc:format>image/svg+xml</dc:format>
    <dc:creator>
     <cc:Agent>
      <dc:title>Matplotlib v3.6.1, https://matplotlib.org/</dc:title>
     </cc:Agent>
    </dc:creator>
   </cc:Work>
  </rdf:RDF>
 </metadata>
 <defs>
  <style type="text/css">*{stroke-linejoin: round; stroke-linecap: butt}</style>
 </defs>
 <g id="figure_1">
  <g id="patch_1">
   <path d="M 0 72 
L 414 72 
L 414 0 
L 0 0 
z
" style="fill: #8fff9f"/>
  </g>
  <g id="axes_1">
   <g id="patch_2">
    <path d="M 1.716102 36.437797 
L 2.951695 44.778051 
Q 3.054661 45.567458 3.054661 45.60178 
Q 3.054661 45.704746 3.363559 45.704746 
Q 4.22161 45.704746 4.942373 44.778051 
Q 5.663136 43.851356 6.075 42.718729 
Q 6.486864 41.586102 7.001695 40.659407 
Q 7.516525 39.732712 7.997034 39.732712 
Q 8.614831 39.732712 9.249788 40.607924 
Q 9.884746 41.483136 10.348093 42.512797 
Q 10.811441 43.542458 11.48072 44.417669 
Q 12.15 45.292881 12.836441 45.292881 
Q 13.111017 43.782712 13.540042 39.69839 
Q 13.969068 35.614068 14.483898 33.554746 
" clip-path="url(#p80fa5a2386)" style="fill: none; stroke: #000000; stroke-linejoin: miter"/>
   </g>
  </g>
  <g id="axes_2">
   <g id="patch_3">
    <path d="M 24.918579 29.071862 
Q 24.543683 29.146841 24.412469 29.577972 
Q 24.281255 30.009103 24.356234 30.42149 
Q 24.356234 30.571448 24.393724 30.702662 
Q 24.431214 30.833876 24.487448 30.89011 
Q 24.543683 30.946345 24.599917 31.040069 
Q 24.656152 31.133793 24.693641 31.208772 
L 24.80611 29.859145 
M 24.80611 34.020497 
Q 23.906359 39.006621 23.681421 42.793076 
L 24.131297 45.379862 
L 24.468703 46.054676 
" clip-path="url(#peed1038170)" style="fill: none; stroke: #000000; stroke-linejoin: miter"/>
   </g>
  </g>
  <g id="axes_3">
   <g id="patch_4">
    <path d="M 35.663834 37.95691 
L 36.338648 37.95691 
Q 37.050952 37.95691 37.838234 37.881931 
Q 38.625517 37.806952 39.581503 37.675738 
Q 40.53749 37.544524 41.062345 37.507034 
L 45.336166 35.82 
M 41.287283 30.42149 
L 41.287283 31.43371 
Q 41.287283 33.383172 40.612469 37.207117 
Q 39.937655 41.031062 39.937655 43.018014 
Q 39.937655 43.805297 39.937655 44.105214 
Q 39.937655 44.405131 40.031379 45.042455 
Q 40.125103 45.679779 40.312552 45.960952 
Q 40.5 46.242124 40.893641 46.485807 
Q 41.287283 46.72949 41.849628 46.72949 
Q 41.962097 46.692 42.280759 46.72949 
Q 42.599421 46.766979 42.786869 46.710745 
Q 42.974317 46.65451 42.974317 46.392083 
" clip-path="url(#pd468e9ce01)" style="fill: none; stroke: #000000; stroke-linejoin: miter"/>
   </g>
  </g>
  <g id="axes_4">
   <g id="patch_5">
    <path d="M 53.213462 35.932469 
Q 53.813297 35.257655 54.806772 34.826524 
Q 55.800248 34.395393 56.7 34.470372 
Q 57.337324 34.470372 57.82469 34.639076 
Q 58.312055 34.807779 58.630717 34.995228 
Q 58.949379 35.182676 59.174317 35.670041 
Q 59.399255 36.157407 59.511724 36.419834 
Q 59.624193 36.682262 59.680428 37.375821 
Q 59.736662 38.069379 59.755407 38.331807 
Q 59.774152 38.594234 59.755407 39.419007 
Q 59.736662 40.243779 59.736662 40.431228 
Q 59.736662 41.368469 59.567959 43.242952 
Q 59.399255 45.117434 59.399255 46.054676 
Q 59.399255 46.467062 59.45549 46.823214 
Q 59.511724 47.179366 59.605448 47.610497 
Q 59.699172 48.041628 59.736662 48.304055 
L 60.186538 48.528993 
M 53.663338 23.111007 
Q 53.888276 24.798041 53.888276 29.971614 
L 53.888276 42.3432 
L 53.550869 46.841959 
L 53.325931 47.74171 
" clip-path="url(#pfd5fc9bf30)" style="fill: none; stroke: #000000; stroke-linejoin: miter"/>
   </g>
  </g>
  <g id="axes_5"/>
  <g id="axes_6">
   <g id="patch_6">
    <path d="M 84.657476 43.917766 
Q 84.957393 44.180193 85.969614 45.154924 
Q 86.981834 46.129655 87.544179 46.560786 
Q 88.106524 46.991917 89.13749 47.385559 
Q 90.168455 47.7792 91.180676 47.629241 
Q 91.85549 47.629241 92.32411 47.404303 
Q 92.792731 47.179366 93.017669 46.879448 
Q 93.242607 46.579531 93.373821 45.979697 
Q 93.505034 45.379862 93.523779 44.967476 
Q 93.542524 44.55509 93.542524 43.805297 
Q 93.542524 42.718097 92.642772 42.043283 
Q 91.743021 41.368469 90.449628 41.031062 
Q 89.156234 40.693655 87.862841 40.300014 
Q 86.569448 39.906372 85.669697 38.987876 
Q 84.769945 38.069379 84.769945 36.607283 
Q 84.769945 36.082428 84.938648 35.726276 
Q 85.107352 35.370124 85.500993 35.145186 
Q 85.894634 34.920248 86.175807 34.807779 
Q 86.456979 34.69531 87.113048 34.639076 
Q 87.769117 34.582841 87.956566 34.582841 
Q 88.144014 34.582841 88.818828 34.582841 
Q 90.018497 34.582841 90.599586 34.995228 
Q 91.180676 35.407614 91.499338 36.026193 
Q 91.818 36.644772 92.080428 36.832221 
" clip-path="url(#p71cfe9cca0)" style="fill: none; stroke: #000000; stroke-linejoin: miter"/>
   </g>
  </g>
  <g id="axes_7">
   <g id="patch_7">
    <path d="M 110.843923 36.441748 
Q 109.634968 35.094627 105.662687 35.094627 
Q 104.142857 35.094627 103.365672 35.146439 
Q 102.588486 35.198252 101.58678 35.440043 
Q 100.585075 35.681834 100.101493 36.182687 
Q 99.61791 36.683539 99.272495 37.616162 
Q 98.927079 38.548785 98.927079 39.964989 
Q 98.927079 42.037484 100.343284 43.280981 
Q 101.759488 44.524478 103.693817 44.524478 
Q 106.353518 44.524478 109.116844 38.721493 
Q 110.463966 35.854542 110.463966 35.82 
Q 110.809382 35.578209 110.843923 36.441748 
Q 110.843923 37.512537 111.258422 40.362217 
Q 111.672921 43.211898 111.672921 44.524478 
" clip-path="url(#p96d85e1b55)" style="fill: none; stroke: #000000; stroke-linejoin: miter"/>
   </g>
  </g>
  <g id="axes_8">
   <g id="patch_8">
    <path d="M 115.184141 38.85304 
L 115.612335 38.85304 
Q 116.43304 38.85304 117.396476 38.745991 
Q 118.359912 38.638943 119.519604 38.460529 
Q 120.679295 38.282115 121.285903 38.210749 
L 127.815859 35.427489 
M 127.494714 25.793128 
Q 127.209251 25.721762 126.174449 25.275727 
Q 125.139648 24.829692 124.497357 24.93674 
Q 123.855066 24.93674 123.337665 25.150837 
Q 122.820264 25.364934 122.481278 25.793128 
Q 122.142291 26.221322 121.87467 26.685198 
Q 121.607048 27.149075 121.464317 27.862731 
Q 121.321586 28.576388 121.214537 29.129471 
Q 121.107489 29.682555 121.089648 30.50326 
Q 121.071806 31.323965 121.053965 31.77 
Q 121.036123 32.216035 121.053965 32.965374 
Q 121.071806 33.714714 121.071806 33.928811 
Q 121.071806 36.605022 121.767621 41.850396 
Q 122.463436 47.095771 122.463436 49.771982 
Q 122.39207 50.057445 122.356388 50.681894 
Q 122.320705 51.306344 122.213656 51.805903 
Q 122.106608 52.305463 121.821145 52.555242 
" clip-path="url(#p5052c4faa6)" style="fill: none; stroke: #000000; stroke-linejoin: miter"/>
   </g>
  </g>
  <g id="axes_9">
   <g id="patch_9">
    <path d="M 131.457798 38.160826 
Q 134.430275 39.535596 139.149083 39.721376 
Q 140.672477 39.721376 141.359862 38.550963 
Q 142.047248 37.38055 142.047248 35.82 
Q 142.047248 35.299817 141.954358 34.909679 
Q 141.861468 34.519541 141.619954 34.296606 
Q 141.37844 34.07367 141.211239 33.943624 
Q 141.044037 33.813578 140.598165 33.757844 
Q 140.152294 33.70211 139.947936 33.683532 
Q 139.743578 33.664954 139.167661 33.683532 
Q 138.591743 33.70211 138.368807 33.70211 
Q 136.325229 33.70211 134.838991 35.578486 
Q 133.352752 37.454862 133.352752 39.609908 
Q 133.352752 42.619541 135.284862 44.570229 
Q 137.216972 46.520917 140.263761 46.520917 
Q 142.418807 46.818165 143.942202 44.29156 
" clip-path="url(#p5cee405950)" style="fill: none; stroke: #000000; stroke-linejoin: miter"/>
   </g>
  </g>
  <g id="axes_10">
   <g id="patch_10">
    <path d="M 149.063834 37.95691 
L 149.738648 37.95691 
Q 150.450952 37.95691 151.238234 37.881931 
Q 152.025517 37.806952 152.981503 37.675738 
Q 153.93749 37.544524 154.462345 37.507034 
L 158.736166 35.82 
M 154.687283 30.42149 
L 154.687283 31.43371 
Q 154.687283 33.383172 154.012469 37.207117 
Q 153.337655 41.031062 153.337655 43.018014 
Q 153.337655 43.805297 153.337655 44.105214 
Q 153.337655 44.405131 153.431379 45.042455 
Q 153.525103 45.679779 153.712552 45.960952 
Q 153.9 46.242124 154.293641 46.485807 
Q 154.687283 46.72949 155.249628 46.72949 
Q 155.362097 46.692 155.680759 46.72949 
Q 155.999421 46.766979 156.186869 46.710745 
Q 156.374317 46.65451 156.374317 46.392083 
" clip-path="url(#p7d6e280796)" style="fill: none; stroke: #000000; stroke-linejoin: miter"/>
   </g>
  </g>
  <g id="axes_11">
   <g id="patch_11">
    <path d="M 164.963917 36.382345 
Q 164.926428 36.494814 165.057641 36.701007 
Q 165.188855 36.9072 165.076386 37.057159 
L 165.076386 39.306538 
Q 165.076386 40.506207 165.413793 41.724621 
Q 165.7512 42.943034 166.613462 43.93651 
Q 167.475724 44.929986 168.675393 44.929986 
Q 169.912552 44.929986 170.587366 43.861531 
Q 171.262179 42.793076 171.712055 41.143531 
Q 172.161931 39.493986 172.499338 38.969131 
L 173.286621 36.382345 
L 173.061683 42.680607 
L 173.061683 45.154924 
Q 173.061683 47.066897 173.792731 51.00331 
Q 174.523779 54.939724 174.523779 56.964166 
Q 175.273572 59.213545 174.186372 60.188276 
Q 173.099172 61.163007 171.037241 60.78811 
Q 169.237738 60.488193 168.319241 60.169531 
Q 167.400745 59.850869 165.413793 58.988607 
L 165.301324 58.426262 
" clip-path="url(#paceee97a59)" style="fill: none; stroke: #000000; stroke-linejoin: miter"/>
   </g>
  </g>
  <g id="axes_12"/>
  <g id="axes_13">
   <g id="patch_12">
    <path d="M 207.287191 39.096404 
Q 207.03236 39.023596 206.06764 38.623146 
Q 205.102921 38.222697 204.44764 38.077079 
Q 203.79236 37.931461 203.137079 38.00427 
Q 200.515955 38.00427 198.877753 40.388764 
Q 197.239551 42.773258 197.239551 45.430787 
Q 197.239551 47.068989 202.481798 47.068989 
Q 204.047191 47.068989 205.375955 45.558202 
Q 206.704719 44.047416 207.378202 42.172584 
Q 208.051685 40.297753 208.051685 38.768764 
Q 208.051685 37.27618 208.015281 36.984944 
L 207.942472 38.077079 
Q 207.942472 38.550337 207.942472 38.987191 
Q 207.978876 40.188539 208.179101 42.281798 
Q 208.379326 44.375056 208.543146 46.049663 
Q 208.706966 47.72427 208.743371 49.872135 
Q 208.779775 52.02 208.615955 53.658202 
Q 208.452135 55.296404 207.887865 56.971011 
Q 207.323596 58.645618 206.395281 59.737753 
Q 205.466966 60.829888 203.865169 61.521573 
Q 202.263371 62.213258 200.115506 62.213258 
Q 198.477303 62.213258 197.385169 61.466966 
Q 196.293034 60.720674 196.293034 59.155281 
Q 196.220225 58.936854 196.256629 58.936854 
Q 196.293034 58.936854 196.402247 58.936854 
Q 196.511461 58.936854 196.511461 58.82764 
" clip-path="url(#pdd72d50670)" style="fill: none; stroke: #000000; stroke-linejoin: miter"/>
   </g>
  </g>
  <g id="axes_14">
   <g id="patch_13">
    <path d="M 218.306359 28.621986 
Q 218.531297 30.34651 218.606276 32.146014 
Q 218.681255 33.945517 218.66251 36.551048 
Q 218.643766 39.156579 218.643766 40.093821 
Q 218.643766 40.13131 218.868703 45.829738 
L 219.093641 46.841959 
" clip-path="url(#p8af4c801c0)" style="fill: none; stroke: #000000; stroke-linejoin: miter"/>
   </g>
  </g>
  <g id="axes_15">
   <g id="patch_14">
    <path d="M 240.443923 36.441748 
Q 239.234968 35.094627 235.262687 35.094627 
Q 233.742857 35.094627 232.965672 35.146439 
Q 232.188486 35.198252 231.18678 35.440043 
Q 230.185075 35.681834 229.701493 36.182687 
Q 229.21791 36.683539 228.872495 37.616162 
Q 228.527079 38.548785 228.527079 39.964989 
Q 228.527079 42.037484 229.943284 43.280981 
Q 231.359488 44.524478 233.293817 44.524478 
Q 235.953518 44.524478 238.716844 38.721493 
Q 240.063966 35.854542 240.063966 35.82 
Q 240.409382 35.578209 240.443923 36.441748 
Q 240.443923 37.512537 240.858422 40.362217 
Q 241.272921 43.211898 241.272921 44.524478 
" clip-path="url(#peb21eeb942)" style="fill: none; stroke: #000000; stroke-linejoin: miter"/>
   </g>
  </g>
  <g id="axes_16">
   <g id="patch_15">
    <path d="M 246.657476 43.917766 
Q 246.957393 44.180193 247.969614 45.154924 
Q 248.981834 46.129655 249.544179 46.560786 
Q 250.106524 46.991917 251.13749 47.385559 
Q 252.168455 47.7792 253.180676 47.629241 
Q 253.85549 47.629241 254.32411 47.404303 
Q 254.792731 47.179366 255.017669 46.879448 
Q 255.242607 46.579531 255.373821 45.979697 
Q 255.505034 45.379862 255.523779 44.967476 
Q 255.542524 44.55509 255.542524 43.805297 
Q 255.542524 42.718097 254.642772 42.043283 
Q 253.743021 41.368469 252.449628 41.031062 
Q 251.156234 40.693655 249.862841 40.300014 
Q 248.569448 39.906372 247.669697 38.987876 
Q 246.769945 38.069379 246.769945 36.607283 
Q 246.769945 36.082428 246.938648 35.726276 
Q 247.107352 35.370124 247.500993 35.145186 
Q 247.894634 34.920248 248.175807 34.807779 
Q 248.456979 34.69531 249.113048 34.639076 
Q 249.769117 34.582841 249.956566 34.582841 
Q 250.144014 34.582841 250.818828 34.582841 
Q 252.018497 34.582841 252.599586 34.995228 
Q 253.180676 35.407614 253.499338 36.026193 
Q 253.818 36.644772 254.080428 36.832221 
" clip-path="url(#p85949c69f2)" style="fill: none; stroke: #000000; stroke-linejoin: miter"/>
   </g>
  </g>
  <g id="axes_17">
   <g id="patch_16">
    <path d="M 262.857476 43.917766 
Q 263.157393 44.180193 264.169614 45.154924 
Q 265.181834 46.129655 265.744179 46.560786 
Q 266.306524 46.991917 267.33749 47.385559 
Q 268.368455 47.7792 269.380676 47.629241 
Q 270.05549 47.629241 270.52411 47.404303 
Q 270.992731 47.179366 271.217669 46.879448 
Q 271.442607 46.579531 271.573821 45.979697 
Q 271.705034 45.379862 271.723779 44.967476 
Q 271.742524 44.55509 271.742524 43.805297 
Q 271.742524 42.718097 270.842772 42.043283 
Q 269.943021 41.368469 268.649628 41.031062 
Q 267.356234 40.693655 266.062841 40.300014 
Q 264.769448 39.906372 263.869697 38.987876 
Q 262.969945 38.069379 262.969945 36.607283 
Q 262.969945 36.082428 263.138648 35.726276 
Q 263.307352 35.370124 263.700993 35.145186 
Q 264.094634 34.920248 264.375807 34.807779 
Q 264.656979 34.69531 265.313048 34.639076 
Q 265.969117 34.582841 266.156566 34.582841 
Q 266.344014 34.582841 267.018828 34.582841 
Q 268.218497 34.582841 268.799586 34.995228 
Q 269.380676 35.407614 269.699338 36.026193 
Q 270.018 36.644772 270.280428 36.832221 
" clip-path="url(#p9a7ae28b14)" style="fill: none; stroke: #000000; stroke-linejoin: miter"/>
   </g>
  </g>
  <g id="axes_18">
   <g id="patch_17">
    <path d="M 277.257798 38.160826 
Q 280.230275 39.535596 284.949083 39.721376 
Q 286.472477 39.721376 287.159862 38.550963 
Q 287.847248 37.38055 287.847248 35.82 
Q 287.847248 35.299817 287.754358 34.909679 
Q 287.661468 34.519541 287.419954 34.296606 
Q 287.17844 34.07367 287.011239 33.943624 
Q 286.844037 33.813578 286.398165 33.757844 
Q 285.952294 33.70211 285.747936 33.683532 
Q 285.543578 33.664954 284.967661 33.683532 
Q 284.391743 33.70211 284.168807 33.70211 
Q 282.125229 33.70211 280.638991 35.578486 
Q 279.152752 37.454862 279.152752 39.609908 
Q 279.152752 42.619541 281.084862 44.570229 
Q 283.016972 46.520917 286.063761 46.520917 
Q 288.218807 46.818165 289.742202 44.29156 
" clip-path="url(#p877924ac87)" style="fill: none; stroke: #000000; stroke-linejoin: miter"/>
   </g>
  </g>
  <g id="axes_19">
   <g id="patch_18">
    <path d="M 295.257476 43.917766 
Q 295.557393 44.180193 296.569614 45.154924 
Q 297.581834 46.129655 298.144179 46.560786 
Q 298.706524 46.991917 299.73749 47.385559 
Q 300.768455 47.7792 301.780676 47.629241 
Q 302.45549 47.629241 302.92411 47.404303 
Q 303.392731 47.179366 303.617669 46.879448 
Q 303.842607 46.579531 303.973821 45.979697 
Q 304.105034 45.379862 304.123779 44.967476 
Q 304.142524 44.55509 304.142524 43.805297 
Q 304.142524 42.718097 303.242772 42.043283 
Q 302.343021 41.368469 301.049628 41.031062 
Q 299.756234 40.693655 298.462841 40.300014 
Q 297.169448 39.906372 296.269697 38.987876 
Q 295.369945 38.069379 295.369945 36.607283 
Q 295.369945 36.082428 295.538648 35.726276 
Q 295.707352 35.370124 296.100993 35.145186 
Q 296.494634 34.920248 296.775807 34.807779 
Q 297.056979 34.69531 297.713048 34.639076 
Q 298.369117 34.582841 298.556566 34.582841 
Q 298.744014 34.582841 299.418828 34.582841 
Q 300.618497 34.582841 301.199586 34.995228 
Q 301.780676 35.407614 302.099338 36.026193 
Q 302.418 36.644772 302.680428 36.832221 
" clip-path="url(#pdeba716808)" style="fill: none; stroke: #000000; stroke-linejoin: miter"/>
   </g>
  </g>
  <g id="axes_20"/>
  <g id="axes_21">
   <g id="patch_19">
    <path d="M 335.3616 35.032717 
Q 334.31189 34.582841 333.337159 34.69531 
Q 330.300497 35.032717 328.388524 36.701007 
Q 326.476552 38.369297 326.476552 41.330979 
Q 326.476552 43.917766 328.482248 45.6048 
Q 330.487945 47.291834 333.112221 47.291834 
Q 335.474069 47.291834 336.598759 45.361117 
Q 337.723448 43.4304 337.723448 40.881103 
Q 337.723448 39.643945 337.311062 38.706703 
Q 336.898676 37.769462 336.373821 37.300841 
Q 335.848966 36.832221 335.099172 36.119917 
Q 334.349379 35.407614 333.899503 34.69531 
L 332.662345 34.245434 
" clip-path="url(#pe72e36c0d3)" style="fill: none; stroke: #000000; stroke-linejoin: miter"/>
   </g>
  </g>
  <g id="axes_22">
   <g id="patch_20">
    <path d="M 343.838731 37.282097 
L 343.838731 37.844441 
Q 344.101159 39.868883 344.138648 41.312234 
Q 344.176138 42.755586 344.082414 44.667559 
Q 343.98869 46.579531 343.98869 48.191586 
L 344.063669 39.643945 
Q 344.063669 38.144359 345.656979 37.507034 
Q 347.25029 36.86971 348.674897 37.282097 
Q 350.586869 37.844441 351.505366 39.04411 
Q 352.423862 40.243779 352.480097 41.668386 
Q 352.536331 43.092993 352.573821 44.817517 
Q 352.61131 46.542041 352.761269 48.191586 
" clip-path="url(#p48cc6ef3fe)" style="fill: none; stroke: #000000; stroke-linejoin: miter"/>
   </g>
  </g>
  <g id="axes_23">
   <g id="patch_21">
    <path d="M 363.787697 39.981352 
Q 364.799917 40.956083 365.137324 42.905545 
Q 365.324772 43.955255 364.912386 46.167145 
L 363.675228 47.629241 
" clip-path="url(#p4a476dbfae)" style="fill: none; stroke: #000000; stroke-linejoin: miter"/>
   </g>
  </g>
 </g>
 <defs>
  <clipPath id="p80fa5a2386">
   <rect x="0" y="10.936525" width="16.2" height="49.766949"/>
  </clipPath>
  <clipPath id="peed1038170">
   <rect x="21.806938" y="8.64" width="4.986124" height="54.36"/>
  </clipPath>
  <clipPath id="pd468e9ce01">
   <rect x="33.789352" y="8.64" width="13.421297" height="54.36"/>
  </clipPath>
  <clipPath id="pfd5fc9bf30">
   <rect x="51.338979" y="8.64" width="10.722041" height="54.36"/>
  </clipPath>
  <clipPath id="p71cfe9cca0">
   <rect x="82.782993" y="8.64" width="12.634014" height="54.36"/>
  </clipPath>
  <clipPath id="p96d85e1b55">
   <rect x="97.2" y="10.777356" width="16.2" height="50.085288"/>
  </clipPath>
  <clipPath id="p5052c4faa6">
   <rect x="113.4" y="9.949956" width="16.2" height="51.740088"/>
  </clipPath>
  <clipPath id="p5cee405950">
   <rect x="129.6" y="8.881927" width="16.2" height="53.876147"/>
  </clipPath>
  <clipPath id="p7d6e280796">
   <rect x="147.189352" y="8.64" width="13.421297" height="54.36"/>
  </clipPath>
  <clipPath id="paceee97a59">
   <rect x="163.051945" y="8.64" width="14.09611" height="54.36"/>
  </clipPath>
  <clipPath id="pdd72d50670">
   <rect x="194.4" y="9.426742" width="16.2" height="52.786517"/>
  </clipPath>
  <clipPath id="p8af4c801c0">
   <rect x="216.431876" y="8.64" width="4.536248" height="54.36"/>
  </clipPath>
  <clipPath id="peb21eeb942">
   <rect x="226.8" y="10.777356" width="16.2" height="50.085288"/>
  </clipPath>
  <clipPath id="p85949c69f2">
   <rect x="244.782993" y="8.64" width="12.634014" height="54.36"/>
  </clipPath>
  <clipPath id="p9a7ae28b14">
   <rect x="260.982993" y="8.64" width="12.634014" height="54.36"/>
  </clipPath>
  <clipPath id="p877924ac87">
   <rect x="275.4" y="8.881927" width="16.2" height="53.876147"/>
  </clipPath>
  <clipPath id="pdeba716808">
   <rect x="293.382993" y="8.64" width="12.634014" height="54.36"/>
  </clipPath>
  <clipPath id="pe72e36c0d3">
   <rect x="324.602069" y="8.64" width="14.995862" height="54.36"/>
  </clipPath>
  <clipPath id="p48cc6ef3fe">
   <rect x="341.964248" y="8.64" width="12.671503" height="54.36"/>
  </clipPath>
  <clipPath id="p4a476dbfae">
   <rect x="361.800745" y="8.64" width="5.39851" height="54.36"/>
  </clipPath>
 </defs>
</svg>
