<?xml version="1.0" encoding="utf-8" standalone="no"?>
<!DOCTYPE svg PUBLIC "-//W3C//DTD SVG 1.1//EN"
  "http://www.w3.org/Graphics/SVG/1.1/DTD/svg11.dtd">
<svg xmlns:xlink="http://www.w3.org/1999/xlink" width="432pt" height="72pt" viewBox="0 0 432 72" xmlns="http://www.w3.org/2000/svg" version="1.1">
 <metadata>
  <rdf:RDF xmlns:dc="http://purl.org/dc/elements/1.1/" xmlns:cc="http://creativecommons.org/ns#" xmlns:rdf="http://www.w3.org/1999/02/22-rdf-syntax-ns#">
   <cc:Work>
    <dc:type rdf:resource="http://purl.org/dc/dcmitype/StillImage"/>
    <dc:date>2023-02-15T22:55:19.154137</dc:date>
    <dc:format>image/svg+xml</dc:format>
    <dc:creator>
     <cc:Agent>
      <dc:title>Matplotlib v3.6.1, https://matplotlib.org/</dc:title>
     </cc:Agent>
    </dc:creator>
   </cc:Work>
  </rdf:RDF>
 </metadata>
 <defs>
  <style type="text/css">*{stroke-linejoin: round; stroke-linecap: butt}</style>
 </defs>
 <g id="figure_1">
  <g id="patch_1">
   <path d="M 0 72 
L 432 72 
L 432 0 
L 0 0 
z
" style="fill: #8fff9f"/>
  </g>
  <g id="axes_1">
   <g id="patch_2">
    <path d="M 4.613462 35.932469 
Q 5.213297 35.257655 6.206772 34.826524 
Q 7.200248 34.395393 8.1 34.470372 
Q 8.737324 34.470372 9.22469 34.639076 
Q 9.712055 34.807779 10.030717 34.995228 
Q 10.349379 35.182676 10.574317 35.670041 
Q 10.799255 36.157407 10.911724 36.419834 
Q 11.024193 36.682262 11.080428 37.375821 
Q 11.136662 38.069379 11.155407 38.331807 
Q 11.174152 38.594234 11.155407 39.419007 
Q 11.136662 40.243779 11.136662 40.431228 
Q 11.136662 41.368469 10.967959 43.242952 
Q 10.799255 45.117434 10.799255 46.054676 
Q 10.799255 46.467062 10.85549 46.823214 
Q 10.911724 47.179366 11.005448 47.610497 
Q 11.099172 48.041628 11.136662 48.304055 
L 11.586538 48.528993 
M 5.063338 23.111007 
Q 5.288276 24.798041 5.288276 29.971614 
L 5.288276 42.3432 
L 4.950869 46.841959 
L 4.725931 47.74171 
" clip-path="url(#pd21898e5c7)" style="fill: none; stroke: #000000; stroke-linejoin: miter"/>
   </g>
  </g>
  <g id="axes_2">
   <g id="patch_3">
    <path d="M 21.0384 34.357903 
Q 21.300828 34.395393 21.638234 33.795559 
Q 21.975641 33.195724 22.500497 33.345683 
L 26.999255 29.2968 
M 20.138648 40.656166 
L 20.363586 40.656166 
Q 21.07589 40.656166 22.63171 41.330979 
Q 24.187531 42.005793 25.087283 42.005793 
Q 27.786538 42.005793 27.786538 38.744193 
Q 27.786538 36.607283 24.412469 36.607283 
Q 22.537986 36.607283 21.450786 37.750717 
Q 20.363586 38.894152 20.363586 40.768634 
Q 20.363586 43.617848 21.694469 45.454841 
Q 23.025352 47.291834 25.762097 47.291834 
Q 27.224193 47.591752 28.461352 45.6048 
" clip-path="url(#pb7da675ac2)" style="fill: none; stroke: #000000; stroke-linejoin: miter"/>
   </g>
  </g>
  <g id="axes_3"/>
  <g id="axes_4">
   <g id="patch_4">
    <path d="M 61.487191 39.096404 
Q 61.23236 39.023596 60.26764 38.623146 
Q 59.302921 38.222697 58.64764 38.077079 
Q 57.99236 37.931461 57.337079 38.00427 
Q 54.715955 38.00427 53.077753 40.388764 
Q 51.439551 42.773258 51.439551 45.430787 
Q 51.439551 47.068989 56.681798 47.068989 
Q 58.247191 47.068989 59.575955 45.558202 
Q 60.904719 44.047416 61.578202 42.172584 
Q 62.251685 40.297753 62.251685 38.768764 
Q 62.251685 37.27618 62.215281 36.984944 
L 62.142472 38.077079 
Q 62.142472 38.550337 62.142472 38.987191 
Q 62.178876 40.188539 62.379101 42.281798 
Q 62.579326 44.375056 62.743146 46.049663 
Q 62.906966 47.72427 62.943371 49.872135 
Q 62.979775 52.02 62.815955 53.658202 
Q 62.652135 55.296404 62.087865 56.971011 
Q 61.523596 58.645618 60.595281 59.737753 
Q 59.666966 60.829888 58.065169 61.521573 
Q 56.463371 62.213258 54.315506 62.213258 
Q 52.677303 62.213258 51.585169 61.466966 
Q 50.493034 60.720674 50.493034 59.155281 
Q 50.420225 58.936854 50.456629 58.936854 
Q 50.493034 58.936854 50.602247 58.936854 
Q 50.711461 58.936854 50.711461 58.82764 
" clip-path="url(#pfa9222eec2)" style="fill: none; stroke: #000000; stroke-linejoin: miter"/>
   </g>
  </g>
  <g id="axes_5">
   <g id="patch_5">
    <path d="M 67.632703 35.332634 
L 77.979848 35.332634 
M 77.192566 39.344028 
Q 77.192566 39.344028 74.268372 39.344028 
Q 67.295297 39.344028 67.295297 44.5176 
Q 67.295297 46.279614 69.05731 47.19811 
Q 70.819324 48.116607 72.806276 48.116607 
Q 74.043434 47.891669 74.849462 47.2356 
Q 75.65549 46.579531 76.011641 45.586055 
Q 76.367793 44.592579 76.536497 43.674083 
Q 76.7052 42.755586 76.855159 41.443448 
Q 77.005117 40.13131 77.192566 39.344028 
Q 78.279766 46.092166 78.392234 47.029407 
L 78.504703 48.154097 
" clip-path="url(#p1290cec231)" style="fill: none; stroke: #000000; stroke-linejoin: miter"/>
   </g>
  </g>
  <g id="axes_6">
   <g id="patch_6">
    <path d="M 92.3616 35.032717 
Q 91.31189 34.582841 90.337159 34.69531 
Q 87.300497 35.032717 85.388524 36.701007 
Q 83.476552 38.369297 83.476552 41.330979 
Q 83.476552 43.917766 85.482248 45.6048 
Q 87.487945 47.291834 90.112221 47.291834 
Q 92.474069 47.291834 93.598759 45.361117 
Q 94.723448 43.4304 94.723448 40.881103 
Q 94.723448 39.643945 94.311062 38.706703 
Q 93.898676 37.769462 93.373821 37.300841 
Q 92.848966 36.832221 92.099172 36.119917 
Q 91.349379 35.407614 90.899503 34.69531 
L 89.662345 34.245434 
" clip-path="url(#p3828924a6c)" style="fill: none; stroke: #000000; stroke-linejoin: miter"/>
   </g>
  </g>
  <g id="axes_7"/>
  <g id="axes_8">
   <g id="patch_7">
    <path d="M 119.531793 37.169628 
Q 121.556234 39.194069 123.318248 41.76211 
Q 125.080262 44.330152 125.942524 46.72949 
M 122.568455 31.321241 
L 122.568455 31.546179 
Q 122.568455 32.333462 121.931131 33.514386 
Q 121.293807 34.69531 120.319076 36.101172 
Q 119.344345 37.507034 119.081917 37.95691 
L 117.844759 39.643945 
M 117.057476 26.710014 
Q 118.894469 36.269876 119.081917 48.641462 
" clip-path="url(#p8799dde55d)" style="fill: none; stroke: #000000; stroke-linejoin: miter"/>
   </g>
  </g>
  <g id="axes_9">
   <g id="patch_8">
    <path d="M 133.988524 34.357903 
L 140.849131 34.69531 
M 134.775807 42.643117 
Q 136.012966 43.205462 136.912717 43.205462 
Q 137.250124 43.205462 138.543517 43.242952 
Q 139.83691 43.280441 140.436745 43.280441 
Q 140.774152 43.280441 141.017834 43.167972 
Q 141.261517 43.055503 141.411476 42.830566 
Q 141.561434 42.605628 141.636414 42.38069 
Q 141.711393 42.155752 141.748883 41.7996 
Q 141.786372 41.443448 141.786372 41.199766 
Q 141.786372 40.956083 141.767628 40.562441 
Q 141.748883 40.1688 141.748883 40.018841 
Q 141.748883 38.819172 140.155572 38.331807 
Q 138.562262 37.844441 137.362593 38.144359 
Q 135.038234 38.744193 134.288441 40.281269 
Q 133.538648 41.818345 133.538648 44.217683 
Q 133.538648 44.929986 133.632372 45.492331 
Q 133.726097 46.054676 134.007269 46.448317 
Q 134.288441 46.841959 134.532124 47.141876 
Q 134.775807 47.441793 135.281917 47.610497 
Q 135.788028 47.7792 136.087945 47.891669 
Q 136.387862 48.004138 137.100166 48.041628 
Q 137.812469 48.079117 138.112386 48.097862 
Q 138.412303 48.116607 139.274566 48.097862 
Q 140.136828 48.079117 140.399255 48.079117 
Q 140.811641 48.379034 141.186538 47.929159 
Q 141.561434 47.479283 141.861352 47.516772 
" clip-path="url(#p23b66cc94b)" style="fill: none; stroke: #000000; stroke-linejoin: miter"/>
   </g>
  </g>
  <g id="axes_10">
   <g id="patch_9">
    <path d="M 154.256152 30.309021 
Q 153.768786 30.42149 154.181172 30.833876 
Q 154.556069 31.208772 154.631048 30.946345 
Q 154.668538 30.871366 154.593559 30.646428 
Q 154.593559 30.458979 154.518579 30.42149 
Q 154.4436 30.384 154.312386 30.42149 
Q 154.181172 30.458979 154.031214 30.42149 
L 153.918745 30.646428 
M 154.818497 33.345683 
Q 155.868207 37.731972 156.393062 40.13131 
Q 156.917917 42.530648 157.367793 46.317103 
Q 157.817669 50.103559 157.630221 53.25269 
Q 157.630221 53.440138 157.630221 54.021228 
Q 157.630221 54.602317 157.630221 54.902234 
Q 157.630221 55.202152 157.611476 55.783241 
Q 157.592731 56.364331 157.517752 56.701738 
Q 157.442772 57.039145 157.330303 57.52651 
Q 157.217834 58.013876 157.011641 58.313793 
Q 156.805448 58.61371 156.543021 58.894883 
Q 156.280593 59.176055 155.905697 59.307269 
Q 155.5308 59.438483 155.043434 59.438483 
Q 154.068703 59.438483 153.31891 59.251034 
Q 152.569117 59.063586 151.706855 58.707434 
Q 150.844593 58.351283 150.207269 58.201324 
L 149.982331 57.751448 
" clip-path="url(#p47aef994a2)" style="fill: none; stroke: #000000; stroke-linejoin: miter"/>
   </g>
  </g>
  <g id="axes_11">
   <g id="patch_10">
    <path d="M 167.813131 30.384 
L 171.074731 34.657821 
M 170.737324 37.019669 
L 170.474897 41.743366 
Q 170.587366 42.268221 170.718579 43.749062 
Q 170.849793 45.229903 171.1872 46.1484 
Q 171.524607 47.066897 172.386869 47.591752 
" clip-path="url(#p9e9e3dcbfe)" style="fill: none; stroke: #000000; stroke-linejoin: miter"/>
   </g>
  </g>
  <g id="axes_12"/>
  <g id="axes_13">
   <g id="patch_11">
    <path d="M 206.099007 39.568966 
Q 204.749379 38.181848 202.5 38.444276 
Q 199.650786 38.444276 198.488607 39.793903 
Q 197.326428 41.143531 197.326428 44.067724 
Q 197.326428 45.56731 198.619821 46.279614 
Q 199.913214 46.991917 201.487779 46.991917 
Q 202.799917 46.991917 203.812138 45.736014 
Q 204.824359 44.48011 205.405448 42.30571 
Q 205.986538 40.13131 206.361434 37.938166 
Q 206.736331 35.745021 206.88629 33.045766 
Q 207.036248 30.34651 207.073738 28.978138 
Q 207.111228 27.609766 207.111228 26.185159 
Q 206.88629 26.260138 206.88629 29.896634 
L 206.88629 44.292662 
L 207.673572 48.229076 
" clip-path="url(#p3a336dd9ca)" style="fill: none; stroke: #000000; stroke-linejoin: miter"/>
   </g>
  </g>
  <g id="axes_14">
   <g id="patch_12">
    <path d="M 212.457798 38.160826 
Q 215.430275 39.535596 220.149083 39.721376 
Q 221.672477 39.721376 222.359862 38.550963 
Q 223.047248 37.38055 223.047248 35.82 
Q 223.047248 35.299817 222.954358 34.909679 
Q 222.861468 34.519541 222.619954 34.296606 
Q 222.37844 34.07367 222.211239 33.943624 
Q 222.044037 33.813578 221.598165 33.757844 
Q 221.152294 33.70211 220.947936 33.683532 
Q 220.743578 33.664954 220.167661 33.683532 
Q 219.591743 33.70211 219.368807 33.70211 
Q 217.325229 33.70211 215.838991 35.578486 
Q 214.352752 37.454862 214.352752 39.609908 
Q 214.352752 42.619541 216.284862 44.570229 
Q 218.216972 46.520917 221.263761 46.520917 
Q 223.418807 46.818165 224.942202 44.29156 
" clip-path="url(#p44455edbe3)" style="fill: none; stroke: #000000; stroke-linejoin: miter"/>
   </g>
  </g>
  <g id="axes_15"/>
  <g id="axes_16">
   <g id="patch_13">
    <path d="M 256.356735 34.365306 
Q 256.356735 34.365306 255.860816 34.365306 
Q 255.067347 34.365306 253.579592 34.067755 
Q 252.091837 33.770204 251.298367 33.770204 
Q 248.521224 33.770204 246.587143 35.224898 
Q 244.653061 36.679592 244.653061 39.423673 
Q 244.653061 40.94449 246.140816 42.399184 
Q 247.628571 43.853878 249.562653 44.663878 
Q 251.496735 45.473878 252.98449 45.473878 
Q 253.910204 45.473878 254.60449 45.110204 
Q 255.298776 44.746531 256.042653 44.118367 
Q 256.786531 43.490204 257.348571 43.192653 
L 257.546939 42.696735 
" clip-path="url(#p92799f7bba)" style="fill: none; stroke: #000000; stroke-linejoin: miter"/>
   </g>
  </g>
  <g id="axes_17">
   <g id="patch_14">
    <path d="M 263.813462 35.932469 
Q 264.413297 35.257655 265.406772 34.826524 
Q 266.400248 34.395393 267.3 34.470372 
Q 267.937324 34.470372 268.42469 34.639076 
Q 268.912055 34.807779 269.230717 34.995228 
Q 269.549379 35.182676 269.774317 35.670041 
Q 269.999255 36.157407 270.111724 36.419834 
Q 270.224193 36.682262 270.280428 37.375821 
Q 270.336662 38.069379 270.355407 38.331807 
Q 270.374152 38.594234 270.355407 39.419007 
Q 270.336662 40.243779 270.336662 40.431228 
Q 270.336662 41.368469 270.167959 43.242952 
Q 269.999255 45.117434 269.999255 46.054676 
Q 269.999255 46.467062 270.05549 46.823214 
Q 270.111724 47.179366 270.205448 47.610497 
Q 270.299172 48.041628 270.336662 48.304055 
L 270.786538 48.528993 
M 264.263338 23.111007 
Q 264.488276 24.798041 264.488276 29.971614 
L 264.488276 42.3432 
L 264.150869 46.841959 
L 263.925931 47.74171 
" clip-path="url(#pe729e76b27)" style="fill: none; stroke: #000000; stroke-linejoin: miter"/>
   </g>
  </g>
  <g id="axes_18">
   <g id="patch_15">
    <path d="M 279.376138 33.983007 
Q 279.900993 34.245434 280.294634 35.107697 
Q 280.688276 35.969959 281.138152 36.607283 
Q 281.588028 37.244607 282.4128 37.132138 
Q 283.5 37.357076 284.287283 36.832221 
Q 285.074566 36.307366 285.430717 35.538828 
Q 285.786869 34.77029 286.25549 33.68309 
Q 286.72411 32.59589 287.136497 32.071034 
M 286.949048 40.281269 
L 286.611641 40.281269 
Q 286.086786 40.281269 284.962097 40.374993 
Q 283.837407 40.468717 283.237572 40.468717 
Q 281.3256 40.468717 279.863503 41.612152 
Q 278.401407 42.755586 278.401407 44.5176 
Q 278.401407 46.017186 279.975972 47.141876 
Q 281.550538 48.266566 283.237572 48.266566 
Q 285.112055 48.266566 286.311724 45.698524 
Q 287.511393 43.130483 287.511393 40.843614 
L 287.398924 40.506207 
L 287.398924 40.843614 
L 287.398924 41.968303 
Q 287.398924 42.793076 287.698841 44.367641 
Q 287.998759 45.942207 288.298676 47.104386 
L 288.598593 48.304055 
" clip-path="url(#p088a3fd9aa)" style="fill: none; stroke: #000000; stroke-linejoin: miter"/>
   </g>
  </g>
  <g id="axes_19">
   <g id="patch_16">
    <path d="M 295.238731 37.282097 
L 295.238731 37.844441 
Q 295.501159 39.868883 295.538648 41.312234 
Q 295.576138 42.755586 295.482414 44.667559 
Q 295.38869 46.579531 295.38869 48.191586 
L 295.463669 39.643945 
Q 295.463669 38.144359 297.056979 37.507034 
Q 298.65029 36.86971 300.074897 37.282097 
Q 301.986869 37.844441 302.905366 39.04411 
Q 303.823862 40.243779 303.880097 41.668386 
Q 303.936331 43.092993 303.973821 44.817517 
Q 304.01131 46.542041 304.161269 48.191586 
" clip-path="url(#pecb6b9bf4c)" style="fill: none; stroke: #000000; stroke-linejoin: miter"/>
   </g>
  </g>
  <g id="axes_20">
   <g id="patch_17">
    <path d="M 320.687191 39.096404 
Q 320.43236 39.023596 319.46764 38.623146 
Q 318.502921 38.222697 317.84764 38.077079 
Q 317.19236 37.931461 316.537079 38.00427 
Q 313.915955 38.00427 312.277753 40.388764 
Q 310.639551 42.773258 310.639551 45.430787 
Q 310.639551 47.068989 315.881798 47.068989 
Q 317.447191 47.068989 318.775955 45.558202 
Q 320.104719 44.047416 320.778202 42.172584 
Q 321.451685 40.297753 321.451685 38.768764 
Q 321.451685 37.27618 321.415281 36.984944 
L 321.342472 38.077079 
Q 321.342472 38.550337 321.342472 38.987191 
Q 321.378876 40.188539 321.579101 42.281798 
Q 321.779326 44.375056 321.943146 46.049663 
Q 322.106966 47.72427 322.143371 49.872135 
Q 322.179775 52.02 322.015955 53.658202 
Q 321.852135 55.296404 321.287865 56.971011 
Q 320.723596 58.645618 319.795281 59.737753 
Q 318.866966 60.829888 317.265169 61.521573 
Q 315.663371 62.213258 313.515506 62.213258 
Q 311.877303 62.213258 310.785169 61.466966 
Q 309.693034 60.720674 309.693034 59.155281 
Q 309.620225 58.936854 309.656629 58.936854 
Q 309.693034 58.936854 309.802247 58.936854 
Q 309.911461 58.936854 309.911461 58.82764 
" clip-path="url(#pee99de0cec)" style="fill: none; stroke: #000000; stroke-linejoin: miter"/>
   </g>
  </g>
  <g id="axes_21">
   <g id="patch_18">
    <path d="M 327.657476 43.917766 
Q 327.957393 44.180193 328.969614 45.154924 
Q 329.981834 46.129655 330.544179 46.560786 
Q 331.106524 46.991917 332.13749 47.385559 
Q 333.168455 47.7792 334.180676 47.629241 
Q 334.85549 47.629241 335.32411 47.404303 
Q 335.792731 47.179366 336.017669 46.879448 
Q 336.242607 46.579531 336.373821 45.979697 
Q 336.505034 45.379862 336.523779 44.967476 
Q 336.542524 44.55509 336.542524 43.805297 
Q 336.542524 42.718097 335.642772 42.043283 
Q 334.743021 41.368469 333.449628 41.031062 
Q 332.156234 40.693655 330.862841 40.300014 
Q 329.569448 39.906372 328.669697 38.987876 
Q 327.769945 38.069379 327.769945 36.607283 
Q 327.769945 36.082428 327.938648 35.726276 
Q 328.107352 35.370124 328.500993 35.145186 
Q 328.894634 34.920248 329.175807 34.807779 
Q 329.456979 34.69531 330.113048 34.639076 
Q 330.769117 34.582841 330.956566 34.582841 
Q 331.144014 34.582841 331.818828 34.582841 
Q 333.018497 34.582841 333.599586 34.995228 
Q 334.180676 35.407614 334.499338 36.026193 
Q 334.818 36.644772 335.080428 36.832221 
" clip-path="url(#p43329f558b)" style="fill: none; stroke: #000000; stroke-linejoin: miter"/>
   </g>
  </g>
  <g id="axes_22">
   <g id="patch_19">
    <path d="M 343.688772 35.145186 
Q 343.688772 35.145186 343.688772 35.595062 
Q 343.688772 36.269876 343.576303 37.619503 
Q 343.463834 38.969131 343.463834 39.643945 
Q 343.463834 41.930814 344.700993 43.599103 
Q 345.938152 45.267393 348.075062 45.267393 
Q 349.462179 45.154924 350.230717 43.917766 
Q 350.999255 42.680607 351.149214 41.237255 
Q 351.299172 39.793903 351.5616 37.9944 
Q 351.824028 36.194897 352.236414 35.370124 
Q 352.386372 35.070207 352.386372 35.670041 
Q 352.386372 36.269876 352.123945 38.706703 
Q 351.899007 41.031062 351.899007 41.555917 
Q 351.749048 42.643117 352.086455 43.767807 
Q 352.423862 44.892497 353.136166 45.6048 
" clip-path="url(#p2198a89820)" style="fill: none; stroke: #000000; stroke-linejoin: miter"/>
   </g>
  </g>
  <g id="axes_23">
   <g id="patch_20">
    <path d="M 359.832538 32.220993 
Q 361.707021 36.119917 364.443766 36.044938 
Q 364.856152 36.082428 365.212303 35.85749 
Q 365.568455 35.632552 365.774648 35.370124 
Q 365.980841 35.107697 366.149545 34.601586 
Q 366.318248 34.095476 366.393228 33.814303 
Q 366.468207 33.533131 366.580676 32.970786 
Q 366.693145 32.408441 366.693145 32.333462 
M 367.218 38.519255 
Q 366.055821 38.144359 363.618993 38.181848 
Q 361.519572 38.181848 360.207434 39.344028 
Q 358.895297 40.506207 358.895297 42.568138 
Q 358.895297 45.117434 360.957228 46.766979 
Q 363.019159 48.416524 365.643434 48.416524 
Q 367.555407 48.416524 368.623862 47.291834 
Q 369.692317 46.167145 369.692317 44.255172 
Q 370.104703 42.155752 368.942524 40.318759 
Q 367.780345 38.481766 365.755903 37.844441 
" clip-path="url(#p78afe68971)" style="fill: none; stroke: #000000; stroke-linejoin: miter"/>
   </g>
  </g>
  <g id="axes_24">
   <g id="patch_21">
    <path d="M 380.587531 45.979697 
Q 380.550041 46.017186 380.418828 46.054676 
Q 380.287614 46.092166 380.325103 46.167145 
Q 380.325103 46.579531 380.7 46.579531 
Q 381.037407 46.579531 381.037407 46.092166 
Q 381.112386 45.867228 380.831214 45.754759 
Q 380.550041 45.64229 380.362593 45.754759 
" clip-path="url(#p3f966cab94)" style="fill: none; stroke: #000000; stroke-linejoin: miter"/>
   </g>
  </g>
 </g>
 <defs>
  <clipPath id="pd21898e5c7">
   <rect x="2.738979" y="8.64" width="10.722041" height="54.36"/>
  </clipPath>
  <clipPath id="pb7da675ac2">
   <rect x="18.264166" y="8.64" width="12.071669" height="54.36"/>
  </clipPath>
  <clipPath id="pfa9222eec2">
   <rect x="48.6" y="9.426742" width="16.2" height="52.786517"/>
  </clipPath>
  <clipPath id="p1290cec231">
   <rect x="65.420814" y="8.64" width="14.958372" height="54.36"/>
  </clipPath>
  <clipPath id="p3828924a6c">
   <rect x="81.602069" y="8.64" width="14.995862" height="54.36"/>
  </clipPath>
  <clipPath id="p8799dde55d">
   <rect x="115.182993" y="8.64" width="12.634014" height="54.36"/>
  </clipPath>
  <clipPath id="p23b66cc94b">
   <rect x="131.664166" y="8.64" width="12.071669" height="54.36"/>
  </clipPath>
  <clipPath id="p47aef994a2">
   <rect x="148.107848" y="8.64" width="11.584303" height="54.36"/>
  </clipPath>
  <clipPath id="p9e9e3dcbfe">
   <rect x="165.938648" y="8.64" width="8.322703" height="54.36"/>
  </clipPath>
  <clipPath id="p3a336dd9ca">
   <rect x="195.451945" y="8.64" width="14.09611" height="54.36"/>
  </clipPath>
  <clipPath id="p44455edbe3">
   <rect x="210.6" y="8.881927" width="16.2" height="53.876147"/>
  </clipPath>
  <clipPath id="p92799f7bba">
   <rect x="243" y="11.850612" width="16.2" height="47.938776"/>
  </clipPath>
  <clipPath id="pe729e76b27">
   <rect x="261.938979" y="8.64" width="10.722041" height="54.36"/>
  </clipPath>
  <clipPath id="p088a3fd9aa">
   <rect x="276.526924" y="8.64" width="13.946152" height="54.36"/>
  </clipPath>
  <clipPath id="pecb6b9bf4c">
   <rect x="293.364248" y="8.64" width="12.671503" height="54.36"/>
  </clipPath>
  <clipPath id="pee99de0cec">
   <rect x="307.8" y="9.426742" width="16.2" height="52.786517"/>
  </clipPath>
  <clipPath id="p43329f558b">
   <rect x="325.782993" y="8.64" width="12.634014" height="54.36"/>
  </clipPath>
  <clipPath id="p2198a89820">
   <rect x="341.589352" y="8.64" width="13.421297" height="54.36"/>
  </clipPath>
  <clipPath id="p78afe68971">
   <rect x="357.020814" y="8.64" width="14.958372" height="54.36"/>
  </clipPath>
  <clipPath id="p3f966cab94">
   <rect x="378.413131" y="8.64" width="4.573738" height="54.36"/>
  </clipPath>
 </defs>
</svg>
