<?xml version="1.0" encoding="utf-8" standalone="no"?>
<!DOCTYPE svg PUBLIC "-//W3C//DTD SVG 1.1//EN"
  "http://www.w3.org/Graphics/SVG/1.1/DTD/svg11.dtd">
<svg xmlns:xlink="http://www.w3.org/1999/xlink" width="243pt" height="162pt" viewBox="0 0 243 162" xmlns="http://www.w3.org/2000/svg" version="1.1">
 <metadata>
  <rdf:RDF xmlns:dc="http://purl.org/dc/elements/1.1/" xmlns:cc="http://creativecommons.org/ns#" xmlns:rdf="http://www.w3.org/1999/02/22-rdf-syntax-ns#">
   <cc:Work>
    <dc:type rdf:resource="http://purl.org/dc/dcmitype/StillImage"/>
    <dc:date>2023-02-15T22:55:30.095863</dc:date>
    <dc:format>image/svg+xml</dc:format>
    <dc:creator>
     <cc:Agent>
      <dc:title>Matplotlib v3.6.1, https://matplotlib.org/</dc:title>
     </cc:Agent>
    </dc:creator>
   </cc:Work>
  </rdf:RDF>
 </metadata>
 <defs>
  <style type="text/css">*{stroke-linejoin: round; stroke-linecap: butt}</style>
 </defs>
 <g id="figure_1">
  <g id="patch_1">
   <path d="M 0 162 
L 243 162 
L 243 0 
L 0 0 
z
" style="fill: #8fff9f"/>
  </g>
  <g id="axes_1">
   <g id="patch_2">
    <path d="M 17.11313 72.086777 
Q 17.354841 72.473515 17.838263 73.537042 
Q 18.321684 74.60057 18.756764 75.325703 
Q 19.191844 76.050836 19.723607 76.582599 
M 12.713992 78.854682 
Q 13.584151 78.467944 14.599337 80.014894 
Q 17.016446 83.688899 22.406598 88.112208 
Q 27.796751 92.535517 32.437599 94.904284 
L 34.032891 95.194337 
M 25.282958 71.941751 
L 25.282958 72.521857 
Q 25.282958 72.763568 25.210444 73.246989 
Q 25.137931 73.730411 25.137931 73.972122 
Q 24.944562 76.14752 23.542639 79.04805 
Q 22.430769 81.368475 19.675265 85.380875 
Q 16.919761 89.393276 15.904576 91.326963 
L 13.439125 93.647387 
L 11.698806 94.517546 
M 7.78309 73.778753 
Q 7.831432 74.068806 7.78309 74.358859 
L 7.493037 96.402891 
M 11.698806 68.557798 
Q 9.136671 74.310517 3.287268 77.984523 
L 2.417109 78.274576 
" clip-path="url(#p95fa37078f)" style="fill: none; stroke: #000000; stroke-linejoin: miter"/>
   </g>
  </g>
  <g id="axes_2">
   <g id="patch_3">
    <path d="M 57.690264 98.526479 
L 66.816105 98.686581 
M 56.889751 90.521354 
Q 56.889751 90.521354 58.650878 90.521354 
Q 59.985066 90.521354 62.600073 90.361252 
Q 65.215081 90.201149 66.4959 90.201149 
Q 66.70937 90.201149 66.736054 90.708141 
Q 66.762738 91.215132 66.70937 91.748807 
L 66.656003 92.282482 
Q 66.656003 92.335849 66.175695 99.326991 
M 57.049854 91.001662 
L 57.049854 91.802174 
Q 57.049854 92.442584 57.183272 93.109678 
Q 57.316691 93.776772 57.530161 94.5506 
Q 57.743631 95.324429 57.850366 95.804736 
L 58.010469 97.725966 
M 43.441142 98.366376 
L 53.687701 98.366376 
M 41.519912 91.642072 
L 41.840117 91.642072 
Q 43.654612 91.642072 47.230234 90.841559 
Q 50.805857 90.041047 52.566984 90.041047 
Q 52.780454 90.041047 52.913873 90.094414 
Q 53.047291 90.147782 53.073975 90.307884 
Q 53.100659 90.467987 53.100659 90.574722 
Q 53.100659 90.681457 53.073975 90.921611 
Q 53.047291 91.161764 53.047291 91.321867 
Q 53.047291 92.175747 52.860505 93.029627 
Q 52.673719 93.883507 52.353514 94.950857 
Q 52.033309 96.018206 51.926574 96.605249 
L 51.766471 99.807299 
M 41.519912 92.282482 
Q 41.893485 93.403199 42.480527 93.883507 
L 43.921449 97.565864 
M 65.908858 76.859275 
Q 66.389165 76.912643 67.13631 77.39295 
Q 67.883455 77.873258 68.310395 77.979993 
L 70.231625 79.420915 
M 41.35981 80.755102 
L 41.840117 80.755102 
Q 42.587262 80.755102 43.868082 80.514949 
Q 45.148902 80.274795 45.842679 80.274795 
L 54.648316 80.274795 
L 66.389165 79.420915 
M 52.727086 81.23541 
Q 52.673719 81.128675 52.75377 81.075307 
Q 52.833821 81.02194 52.940556 81.075307 
L 53.047291 81.075307 
Q 53.474231 81.075307 55.342094 82.569597 
Q 57.209956 84.063887 59.15787 85.744963 
Q 61.105783 87.42604 61.372621 87.586142 
L 66.816105 88.386654 
M 54.808419 73.710593 
Q 54.808419 79.31418 50.885908 83.903785 
Q 46.963397 88.493389 41.35981 89.827577 
L 39.918887 89.987679 
M 59.077818 74.137533 
L 68.043558 74.137533 
M 57.370059 65.065059 
L 69.377745 65.225161 
Q 69.377745 66.612716 68.6306 68.213741 
Q 67.883455 69.814766 67.723353 70.935483 
L 67.883455 74.137533 
M 57.530161 65.225161 
Q 58.170571 67.253126 58.73093 70.028236 
Q 59.291288 72.803346 59.558126 73.97743 
M 39.118375 74.030798 
L 51.766471 74.030798 
M 40.07899 66.185776 
L 50.752489 64.691486 
L 49.845242 73.55049 
L 50.005344 74.671208 
M 40.239092 66.025673 
L 40.239092 72.749978 
" clip-path="url(#p9d83b41eb9)" style="fill: none; stroke: #000000; stroke-linejoin: miter"/>
   </g>
  </g>
  <g id="axes_3">
   <g id="patch_4">
    <path d="M 92.959108 90.020924 
Q 94.444968 89.603025 97.486338 89.603025 
Q 100.527707 89.603025 102.013567 89.185127 
L 105.913949 89.045828 
M 93.516306 79.294873 
L 94.212803 79.294873 
Q 95.884395 79.294873 101.456369 78.993057 
Q 107.028344 78.691242 107.028344 78.459076 
Q 107.028344 79.202006 106.633662 80.66465 
Q 106.238981 82.127293 105.658567 83.914968 
Q 105.078153 85.702643 104.938854 86.259841 
L 104.799554 89.881624 
M 93.377006 78.459076 
Q 94.166369 82.034427 94.073503 89.742325 
M 84.554713 81.755828 
Q 85.529809 82.359459 87.665732 83.195255 
Q 89.801656 84.031051 90.683885 84.541815 
M 84.136815 77.01965 
L 84.136815 77.576847 
Q 84.136815 79.10914 83.045637 80.780732 
Q 81.954459 82.452325 80.25965 84.332866 
Q 78.564841 86.213408 78.007643 87.049204 
L 76.61465 88.163599 
M 75.221656 79.666338 
L 75.500255 79.666338 
Q 77.682611 78.784108 80.422166 78.110828 
Q 83.16172 77.437548 85.111911 77.135732 
Q 87.062102 76.833917 90.405287 76.416019 
Q 93.748471 75.998121 95.280764 75.765955 
M 83.811783 70.426146 
L 84.090382 96.057229 
M 78.10051 71.261943 
L 78.379108 71.261943 
Q 79.957834 71.261943 81.977675 70.774395 
Q 83.997516 70.286847 86.435255 69.520701 
Q 88.872994 68.754554 89.940955 68.475955 
L 91.19465 67.918758 
" clip-path="url(#pe212b94077)" style="fill: none; stroke: #000000; stroke-linejoin: miter"/>
   </g>
  </g>
  <g id="axes_4">
   <g id="patch_5">
    <path d="M 124.790311 83.130652 
Q 126.782609 84.443758 129.250342 86.843571 
Q 131.718075 89.243385 133.551894 91.145124 
Q 135.385714 93.046863 138.057205 94.790124 
Q 140.728696 96.533385 143.536025 97.122019 
M 127.371242 81.093075 
Q 128.276832 80.821398 130.835124 80.57236 
Q 133.393416 80.323323 135.023478 79.598851 
Q 135.340435 79.598851 135.340435 79.68941 
Q 135.340435 79.68941 135.340435 79.779969 
L 135.295155 80.006366 
Q 135.295155 82.723137 134.593323 84.964472 
Q 133.891491 87.205807 132.487826 88.949068 
Q 131.084161 90.692329 129.567298 91.914876 
Q 128.050435 93.137422 125.877019 94.541087 
L 123.477205 95.763634 
M 126.827888 68.324255 
L 127.371242 68.324255 
Q 128.865466 68.324255 131.038882 67.712981 
Q 133.212298 67.101708 134.389565 67.101708 
Q 134.525404 67.101708 134.548043 67.146988 
Q 134.570683 67.192267 134.548043 67.328106 
Q 134.525404 67.463944 134.525404 67.509224 
Q 134.525404 68.460093 134.208447 70.407112 
Q 133.891491 72.35413 133.891491 73.440839 
Q 133.891491 74.663385 135.453634 75.342578 
Q 137.015776 76.02177 138.374161 76.02177 
Q 138.645839 76.112329 138.849596 75.908571 
Q 139.053354 75.704814 138.917516 75.478416 
M 127.371242 68.324255 
Q 127.099565 69.501522 127.416522 72.625807 
Q 127.733478 75.750093 126.873168 76.836801 
L 125.514783 78.602702 
M 115.68913 70.950466 
Q 116.006087 70.905186 116.323043 71.290062 
Q 116.64 71.674938 116.911677 71.629658 
L 118.541739 73.667236 
M 111.613975 80.957236 
L 112.021491 80.957236 
Q 113.334596 80.957236 115.824969 79.395093 
Q 118.315342 77.83295 119.492609 77.83295 
Q 119.628447 77.83295 119.628447 78.376304 
Q 119.628447 81.54587 118.134224 85.756863 
Q 116.64 89.967857 116.64 93.182702 
Q 119.085093 92.186553 119.35677 92.095994 
L 121.892422 90.420652 
" clip-path="url(#p1e49478c94)" style="fill: none; stroke: #000000; stroke-linejoin: miter"/>
   </g>
  </g>
  <g id="axes_5">
   <g id="patch_6">
    <path d="M 163.677857 83.111786 
L 163.677857 83.502321 
Q 163.677857 87.754821 163.894821 90.531964 
L 164.285357 92.745 
M 159.034821 89.013214 
L 169.666071 88.449107 
M 156.865179 94.307143 
Q 156.865179 94.307143 157.385893 94.307143 
Q 158.383929 94.307143 159.447054 94.198661 
Q 160.510179 94.090179 161.790268 93.916607 
Q 163.070357 93.743036 163.764643 93.65625 
L 168.451071 93.395893 
M 157.429286 83.892857 
L 169.275536 82.200536 
Q 169.579286 82.200536 170.1 82.135446 
Q 170.620714 82.070357 170.837679 82.070357 
Q 171.141429 82.070357 171.184821 82.092054 
Q 171.228214 82.11375 171.228214 82.330714 
Q 171.228214 82.504286 171.228214 82.591071 
Q 171.228214 83.719286 171.054643 84.999375 
Q 170.881071 86.279464 170.599018 87.863304 
Q 170.316964 89.447143 170.186786 90.271607 
L 169.362321 95.869286 
L 167.539821 94.176964 
M 157.299107 84.283393 
L 157.906607 94.5675 
M 158.210357 73.869107 
Q 160.510179 75.995357 163.656161 77.579196 
Q 166.802143 79.163036 170.924464 80.768571 
Q 175.046786 82.374107 177.08625 83.372143 
L 180.080357 83.6325 
M 157.819821 71.78625 
L 160.68375 71.78625 
Q 161.29125 71.78625 162.441161 71.742857 
Q 163.591071 71.699464 165.305089 71.569286 
Q 167.019107 71.439107 168.212411 71.157054 
Q 169.405714 70.875 169.405714 70.484464 
Q 168.017143 73.261607 166.194643 75.539732 
Q 164.372143 77.817857 162.571339 79.401696 
Q 160.770536 80.985536 158.145268 82.504286 
Q 155.52 84.023036 153.39375 84.999375 
Q 151.2675 85.975714 147.969643 87.320893 
M 159.121607 68.401607 
L 159.121607 68.792143 
Q 159.121607 70.137321 158.5575 71.439107 
Q 157.993393 72.740893 157.03875 74.21625 
Q 156.084107 75.691607 155.736964 76.472679 
L 154.565357 77.25375 
" clip-path="url(#p89b51902ac)" style="fill: none; stroke: #000000; stroke-linejoin: miter"/>
   </g>
  </g>
  <g id="axes_6">
   <g id="patch_7">
    <path d="M 197.185283 83.125552 
Q 197.269634 83.294255 197.860097 83.842541 
Q 198.450559 84.390828 198.703614 84.643883 
Q 198.956669 84.896938 199.504955 85.529576 
Q 200.053241 86.162214 200.390648 86.541797 
Q 200.728055 86.921379 201.234166 87.596193 
Q 201.740276 88.271007 202.035507 88.734941 
Q 202.330738 89.198876 202.668145 89.87369 
Q 203.005552 90.548503 203.216431 91.09679 
Q 203.42731 91.645076 203.596014 92.277714 
Q 203.764717 92.910352 203.764717 93.500814 
Q 203.764717 94.76609 203.42731 95.862662 
Q 203.089903 96.959234 202.457266 98.182334 
Q 201.824628 99.405434 201.487221 100.333303 
L 198.956669 102.863855 
" clip-path="url(#p8fe90effc6)" style="fill: none; stroke: #000000; stroke-linejoin: miter"/>
   </g>
  </g>
 </g>
 <defs>
  <clipPath id="p95fa37078f">
   <rect x="0" y="45.546923" width="36.45" height="70.096154"/>
  </clipPath>
  <clipPath id="p9d83b41eb9">
   <rect x="36.45" y="41.903565" width="36.45" height="77.38287"/>
  </clipPath>
  <clipPath id="pe212b94077">
   <rect x="72.9" y="46.930987" width="36.45" height="67.328025"/>
  </clipPath>
  <clipPath id="p1e49478c94">
   <rect x="109.35" y="47.76736" width="36.45" height="65.65528"/>
  </clipPath>
  <clipPath id="p89b51902ac">
   <rect x="145.8" y="49.135179" width="36.45" height="62.919643"/>
  </clipPath>
  <clipPath id="p8fe90effc6">
   <rect x="192.967697" y="19.44" width="15.014607" height="122.31"/>
  </clipPath>
 </defs>
</svg>
