<?xml version="1.0" encoding="utf-8" standalone="no"?>
<!DOCTYPE svg PUBLIC "-//W3C//DTD SVG 1.1//EN"
  "http://www.w3.org/Graphics/SVG/1.1/DTD/svg11.dtd">
<svg xmlns:xlink="http://www.w3.org/1999/xlink" width="189pt" height="72pt" viewBox="0 0 189 72" xmlns="http://www.w3.org/2000/svg" version="1.1">
 <metadata>
  <rdf:RDF xmlns:dc="http://purl.org/dc/elements/1.1/" xmlns:cc="http://creativecommons.org/ns#" xmlns:rdf="http://www.w3.org/1999/02/22-rdf-syntax-ns#">
   <cc:Work>
    <dc:type rdf:resource="http://purl.org/dc/dcmitype/StillImage"/>
    <dc:date>2023-01-29T11:12:45.208346</dc:date>
    <dc:format>image/svg+xml</dc:format>
    <dc:creator>
     <cc:Agent>
      <dc:title>Matplotlib v3.6.1, https://matplotlib.org/</dc:title>
     </cc:Agent>
    </dc:creator>
   </cc:Work>
  </rdf:RDF>
 </metadata>
 <defs>
  <style type="text/css">*{stroke-linejoin: round; stroke-linecap: butt}</style>
 </defs>
 <g id="figure_1">
  <g id="patch_1">
   <path d="M 0 72 
L 189 72 
L 189 0 
L 0 0 
z
" style="fill: #8fff9f"/>
  </g>
  <g id="axes_1">
   <g id="patch_2">
    <path d="M 9.488793 40.918593 
L 20.173345 40.918593 
M 10.613483 35.520083 
L 18.823717 35.520083 
M 11.513234 30.683917 
Q 13.12529 30.496469 15.430903 30.477724 
Q 17.736517 30.458979 19.123634 30.34651 
Q 19.685979 30.309021 19.985897 30.646428 
Q 20.285814 30.983834 20.342048 31.602414 
Q 20.398283 32.220993 20.360793 32.820828 
Q 20.323303 33.420662 20.229579 34.15171 
Q 20.135855 34.882759 20.135855 35.182676 
Q 20.135855 37.132138 20.417028 41.031062 
Q 20.6982 44.929986 20.6982 46.879448 
Q 20.6982 47.404303 20.585731 47.591752 
Q 20.473262 47.7792 20.267069 47.704221 
Q 20.060876 47.629241 19.817193 47.460538 
Q 19.57351 47.291834 19.217359 47.141876 
Q 18.861207 46.991917 18.56129 46.991917 
L 15.412159 44.967476 
M 11.288297 31.133793 
Q 11.250807 31.208772 11.269552 31.414966 
Q 11.288297 31.621159 11.288297 31.696138 
Q 11.288297 33.68309 10.894655 35.726276 
Q 10.501014 37.769462 9.844945 40.20629 
Q 9.188876 42.643117 8.926448 44.067724 
L 8.026697 45.529821 
M 13.725124 21.798869 
Q 12.600434 27.572276 7.989207 33.158234 
L 3.377979 37.094648 
M 3.602917 26.972441 
Q 5.777317 26.522566 8.401593 26.297628 
Q 11.025869 26.07269 12.881607 26.053945 
Q 14.737345 26.0352 17.867731 26.053945 
Q 20.998117 26.07269 22.497703 26.07269 
Q 23.284986 26.07269 24.972021 25.847752 
" clip-path="url(#pa27a7b3f9c)" style="fill: none; stroke: #000000; stroke-linejoin: miter"/>
   </g>
  </g>
  <g id="axes_2">
   <g id="patch_3">
    <path d="M 37.388917 47.74171 
Q 38.738545 47.366814 40.706752 47.329324 
Q 42.674959 47.291834 44.305759 47.404303 
Q 45.936559 47.516772 47.848531 47.404303 
M 37.501386 41.181021 
L 38.626076 41.181021 
Q 40.088172 41.181021 42.899897 40.562441 
Q 45.711621 39.943862 47.173717 39.943862 
Q 46.986269 45.492331 46.948779 47.516772 
M 37.276448 41.743366 
Q 37.351428 42.455669 37.726324 43.617848 
Q 38.101221 44.780028 38.1762 45.6048 
L 38.626076 46.504552 
M 35.364476 30.721407 
Q 37.05151 32.108524 37.501386 32.295972 
Q 39.413359 33.158234 41.512779 34.432883 
Q 43.6122 35.707531 46.161497 37.41331 
Q 48.710793 39.11909 50.022931 39.906372 
L 53.509469 40.806124 
M 35.701883 29.146841 
L 46.348945 27.872193 
Q 46.124007 29.184331 46.124007 29.221821 
Q 46.124007 30.571448 45.374214 32.05229 
Q 44.624421 33.533131 43.630945 34.676566 
Q 42.637469 35.82 41.100393 37.113393 
Q 39.563317 38.406786 38.551097 39.11909 
Q 37.538876 39.831393 36.151759 40.731145 
L 31.540531 42.868055 
M 37.613855 26.222648 
Q 36.264228 30.121572 34.689662 31.958566 
L 32.77769 33.870538 
" clip-path="url(#pf93e7e7ea4)" style="fill: none; stroke: #000000; stroke-linejoin: miter"/>
   </g>
  </g>
  <g id="axes_3">
   <g id="patch_4">
    <path d="M 76.849876 25.377108 
Q 77.060136 26.638665 77.217831 27.847658 
Q 77.375525 29.05665 77.480655 30.528467 
Q 77.585785 32.000284 77.655871 32.858844 
Q 77.725958 33.717404 77.761001 35.487089 
Q 77.796044 37.256774 77.796044 37.782423 
Q 77.796044 38.308072 77.813566 40.428189 
Q 77.831088 42.548307 77.831088 42.828653 
Q 77.831088 43.108999 77.831088 44.265426 
Q 77.831088 45.421854 77.901174 46.140241 
Q 77.971261 46.858628 78.146477 47.559493 
M 71.207911 37.256774 
Q 71.558344 37.116601 72.802379 37.169166 
Q 74.046415 37.221731 74.361805 36.836255 
L 80.529419 36.836255 
L 83.297837 36.625995 
M 72.154079 29.897689 
L 73.520766 29.897689 
Q 75.868665 30.002818 80.879852 29.16178 
Q 80.949938 29.16178 81.317892 29.05665 
Q 81.685847 28.95152 81.82602 28.95152 
Q 82.001236 28.95152 82.018758 30.265643 
Q 82.036279 31.579765 81.966193 33.13919 
Q 81.896106 34.698616 81.896106 34.838789 
L 82.106366 37.046514 
M 72.574598 30.213078 
Q 72.609642 30.458381 72.749815 31.579765 
Q 72.889988 32.70115 73.030161 33.384493 
Q 73.170334 34.067837 73.415637 34.733659 
L 73.520766 36.625995 
M 65.600989 36.625995 
L 69.070272 38.308072 
M 64.654821 33.051582 
Q 64.584734 33.261842 64.286867 34.120402 
Q 63.988999 34.978962 63.883869 35.276829 
Q 63.778739 35.574697 63.480871 36.345649 
Q 63.183004 37.116601 62.972744 37.467033 
Q 62.762485 37.817466 62.412052 38.448245 
Q 62.061619 39.079023 61.711187 39.464499 
Q 61.360754 39.849975 60.905192 40.288016 
Q 60.449629 40.726057 59.92398 41.041446 
L 58.872682 41.777355 
M 58.452163 34.733659 
Q 58.627379 34.698616 59.030377 34.523399 
Q 59.433375 34.348183 59.608591 34.31314 
L 70.331829 31.159246 
L 70.752349 31.054116 
M 64.409518 28.636131 
L 64.409518 47.874883 
M 59.468418 29.582299 
Q 60.905192 28.636131 64.339431 28.355785 
Q 67.773671 28.075439 68.719839 27.795093 
L 70.717305 27.269444 
" clip-path="url(#pdde995d7dd)" style="fill: none; stroke: #000000; stroke-linejoin: miter"/>
   </g>
  </g>
  <g id="axes_4">
   <g id="patch_5">
    <path d="M 94.088917 47.74171 
Q 95.438545 47.366814 97.406752 47.329324 
Q 99.374959 47.291834 101.005759 47.404303 
Q 102.636559 47.516772 104.548531 47.404303 
M 94.201386 41.181021 
L 95.326076 41.181021 
Q 96.788172 41.181021 99.599897 40.562441 
Q 102.411621 39.943862 103.873717 39.943862 
Q 103.686269 45.492331 103.648779 47.516772 
M 93.976448 41.743366 
Q 94.051428 42.455669 94.426324 43.617848 
Q 94.801221 44.780028 94.8762 45.6048 
L 95.326076 46.504552 
M 92.064476 30.721407 
Q 93.75151 32.108524 94.201386 32.295972 
Q 96.113359 33.158234 98.212779 34.432883 
Q 100.3122 35.707531 102.861497 37.41331 
Q 105.410793 39.11909 106.722931 39.906372 
L 110.209469 40.806124 
M 92.401883 29.146841 
L 103.048945 27.872193 
Q 102.824007 29.184331 102.824007 29.221821 
Q 102.824007 30.571448 102.074214 32.05229 
Q 101.324421 33.533131 100.330945 34.676566 
Q 99.337469 35.82 97.800393 37.113393 
Q 96.263317 38.406786 95.251097 39.11909 
Q 94.238876 39.831393 92.851759 40.731145 
L 88.240531 42.868055 
M 94.313855 26.222648 
Q 92.964228 30.121572 91.389662 31.958566 
L 89.47769 33.870538 
" clip-path="url(#p1b3d214851)" style="fill: none; stroke: #000000; stroke-linejoin: miter"/>
   </g>
  </g>
  <g id="axes_5">
   <g id="patch_6">
    <path d="M 131.538626 30.714313 
L 131.437855 45.191623 
L 131.337085 47.408566 
M 124.988566 37.365142 
L 125.290877 37.365142 
Q 128.750652 37.365142 134.72968 36.525391 
L 140.070498 36.424621 
M 128.918602 33.838187 
L 129.321682 33.838187 
Q 129.355273 33.838187 131.840936 33.535877 
L 135.166351 33.334336 
M 126.097038 31.218164 
L 126.399348 31.218164 
Q 128.078851 31.218164 130.614899 30.949443 
Q 133.150948 30.680723 133.856339 30.613543 
L 135.569431 30.210462 
M 135.166351 26.515557 
L 134.96481 26.515557 
Q 134.79686 26.515557 133.957109 28.49737 
L 133.352488 29.605841 
M 128.179621 26.918637 
Q 128.851422 27.422488 129.019372 27.590438 
L 130.430154 29.00122 
M 120.42032 34.913069 
Q 121.058531 35.282559 121.528791 35.316149 
L 123.040344 35.92077 
M 120.118009 31.688424 
L 119.815699 33.905367 
Q 119.714929 34.476398 119.211078 35.467305 
Q 118.707227 36.458211 118.606457 36.726931 
Q 118.472097 37.096422 118.253762 37.449117 
Q 118.035427 37.801813 117.716321 38.171303 
Q 117.397216 38.540794 117.195675 38.759129 
Q 116.994135 38.977464 116.557464 39.39734 
Q 116.120794 39.817216 115.986434 39.951576 
L 115.079502 40.556197 
M 115.482583 31.990735 
L 115.986434 31.990735 
Q 116.725415 31.990735 117.497986 31.805989 
Q 118.270557 31.621244 119.194283 31.318934 
Q 120.118009 31.016623 120.62186 30.882263 
L 124.652666 29.975332 
M 120.118009 26.246836 
L 120.21878 45.191623 
" clip-path="url(#pff91b8b481)" style="fill: none; stroke: #000000; stroke-linejoin: miter"/>
   </g>
  </g>
  <g id="axes_6">
   <g id="patch_7">
    <path d="M 158.886683 33.420662 
Q 160.011372 33.720579 162.260752 35.332634 
M 157.199648 28.584497 
Q 158.699234 28.696966 161.023593 28.115876 
Q 163.347952 27.534786 164.172724 27.459807 
Q 164.58511 27.459807 164.810048 27.553531 
Q 165.034986 27.647255 165.109966 27.890938 
Q 165.184945 28.134621 165.1662 28.378303 
Q 165.147455 28.621986 165.109966 29.146841 
Q 165.072476 29.671697 165.072476 30.046593 
Q 165.297414 34.320414 164.510131 43.4304 
Q 164.510131 43.805297 164.510131 44.105214 
Q 164.510131 44.405131 164.491386 44.630069 
Q 164.472641 44.855007 164.303938 44.986221 
Q 164.135234 45.117434 163.722848 45.117434 
L 163.048034 45.117434 
L 160.686186 43.542869 
M 158.999152 23.8608 
L 158.999152 24.198207 
Q 158.999152 25.022979 158.624255 26.110179 
Q 158.249359 27.197379 157.649524 28.472028 
Q 157.04969 29.746676 156.862241 30.271531 
L 156.187428 31.396221 
M 147.602297 43.767807 
L 148.614517 43.767807 
L 154.462903 43.4304 
M 147.602297 35.894979 
L 153.225745 35.670041 
M 146.552586 29.971614 
L 148.464559 29.971614 
Q 148.951924 29.971614 150.489 29.634207 
Q 152.026076 29.2968 153.300724 28.959393 
Q 154.575372 28.621986 154.575372 28.584497 
Q 154.575372 39.493986 154.350434 42.868055 
L 154.013028 45.342372 
M 147.002462 28.846924 
L 147.002462 29.184331 
Q 147.002462 30.908855 147.414848 34.15171 
Q 147.827234 37.394566 147.827234 39.156579 
L 147.827234 42.868055 
L 147.377359 43.992745 
M 153.113276 24.760552 
Q 152.6634 25.060469 152.138545 25.99771 
Q 151.61369 26.934952 151.201303 27.234869 
L 150.301552 29.25931 
" clip-path="url(#p82bd0806bd)" style="fill: none; stroke: #000000; stroke-linejoin: miter"/>
   </g>
  </g>
 </g>
 <defs>
  <clipPath id="pa27a7b3f9c">
   <rect x="1.503497" y="8.64" width="25.343007" height="54.36"/>
  </clipPath>
  <clipPath id="pf93e7e7ea4">
   <rect x="29.666048" y="8.64" width="25.717903" height="54.36"/>
  </clipPath>
  <clipPath id="pdde995d7dd">
   <rect x="56.7" y="10.413634" width="28.35" height="50.812732"/>
  </clipPath>
  <clipPath id="p1b3d214851">
   <rect x="86.366048" y="8.64" width="25.717903" height="54.36"/>
  </clipPath>
  <clipPath id="pff91b8b481">
   <rect x="113.4" y="11.467216" width="28.35" height="48.705569"/>
  </clipPath>
  <clipPath id="p82bd0806bd">
   <rect x="144.678103" y="8.64" width="22.493793" height="54.36"/>
  </clipPath>
 </defs>
</svg>
