<?xml version="1.0" encoding="utf-8" standalone="no"?>
<!DOCTYPE svg PUBLIC "-//W3C//DTD SVG 1.1//EN"
  "http://www.w3.org/Graphics/SVG/1.1/DTD/svg11.dtd">
<svg xmlns:xlink="http://www.w3.org/1999/xlink" width="220.5pt" height="72pt" viewBox="0 0 220.5 72" xmlns="http://www.w3.org/2000/svg" version="1.1">
 <metadata>
  <rdf:RDF xmlns:dc="http://purl.org/dc/elements/1.1/" xmlns:cc="http://creativecommons.org/ns#" xmlns:rdf="http://www.w3.org/1999/02/22-rdf-syntax-ns#">
   <cc:Work>
    <dc:type rdf:resource="http://purl.org/dc/dcmitype/StillImage"/>
    <dc:date>2023-01-29T11:13:01.983533</dc:date>
    <dc:format>image/svg+xml</dc:format>
    <dc:creator>
     <cc:Agent>
      <dc:title>Matplotlib v3.6.1, https://matplotlib.org/</dc:title>
     </cc:Agent>
    </dc:creator>
   </cc:Work>
  </rdf:RDF>
 </metadata>
 <defs>
  <style type="text/css">*{stroke-linejoin: round; stroke-linecap: butt}</style>
 </defs>
 <g id="figure_1">
  <g id="patch_1">
   <path d="M 0 72 
L 220.5 72 
L 220.5 0 
L 0 0 
z
" style="fill: #8fff9f"/>
  </g>
  <g id="axes_1">
   <g id="patch_2">
    <path d="M 18.48629 26.674839 
Q 18.453629 26.772823 18.48629 27.164758 
Q 18.48629 28.209919 18.780242 31.851653 
Q 19.074194 35.493387 18.845565 37.387742 
L 18.551613 40.13129 
M 13.097177 35.722016 
L 13.587097 35.624032 
L 24.267339 32.7825 
L 23.483468 38.367581 
L 22.895565 39.445403 
L 21.752419 37.616371 
M 14.664919 31.50871 
L 14.860887 33.958306 
L 15.350806 37.485726 
L 15.546774 42.15629 
Q 15.612097 43.299435 16.134677 43.968992 
Q 16.657258 44.638548 17.588105 44.834516 
Q 18.518952 45.030484 19.384476 45.063145 
Q 20.25 45.095806 21.458468 45.030484 
Q 22.666935 44.965161 23.2875 44.997823 
Q 23.581452 45.030484 24.169355 44.981492 
Q 24.757258 44.9325 25.345161 44.703871 
Q 25.933065 44.475242 25.835081 44.115968 
L 26.716935 40.915161 
M 10.157661 33.468387 
L 10.157661 33.664355 
Q 10.157661 36.930484 9.063508 39.069798 
Q 7.969355 41.209113 5.454435 43.266774 
L 1.633065 46.173629 
M 2.025 35.689355 
L 2.514919 35.689355 
Q 3.233468 35.689355 4.948185 35.281089 
Q 6.662903 34.872823 7.414113 34.840161 
L 10.353629 34.350242 
M 7.120161 28.373226 
L 7.120161 28.961129 
Q 6.82621 29.973629 6.662903 32.847823 
Q 6.499597 35.722016 6.042339 36.799839 
Q 6.009677 36.897823 5.732056 37.404073 
Q 5.454435 37.910323 5.32379 38.302258 
Q 5.193145 38.694194 5.32379 38.890161 
Q 5.977016 40.065968 8.263306 41.943992 
Q 10.549597 43.822016 10.941532 44.246613 
L 12.117339 44.834516 
" clip-path="url(#pb9cbe540a0)" style="fill: none; stroke: #000000; stroke-linejoin: miter"/>
   </g>
  </g>
  <g id="axes_2">
   <g id="patch_3">
    <path d="M 42.899897 38.294317 
Q 40.538048 41.368469 39.375869 42.38069 
Q 37.12649 44.330152 34.802131 44.405131 
L 32.440283 44.817517 
M 35.814352 36.044938 
Q 35.551924 36.457324 34.802131 38.181848 
L 50.735234 37.319586 
L 51.747455 37.207117 
M 43.124834 33.345683 
L 43.012366 48.528993 
Q 42.712448 49.091338 42.674959 49.091338 
Q 42.412531 49.091338 42.093869 48.960124 
Q 41.775207 48.82891 41.4378 48.641462 
Q 41.100393 48.454014 40.987924 48.416524 
L 39.975703 47.966648 
M 38.363648 33.495641 
L 46.348945 33.008276 
M 45.636641 29.821655 
Q 45.936559 30.009103 46.667607 30.402745 
Q 47.398655 30.796386 47.961 31.171283 
Q 48.523345 31.546179 48.898241 31.958566 
L 49.235648 32.295972 
M 40.013193 29.371779 
L 39.675786 29.371779 
Q 39.600807 29.371779 39.282145 29.577972 
Q 38.963483 29.784166 38.663566 30.009103 
Q 38.363648 30.234041 38.063731 30.458979 
L 37.763814 30.721407 
L 36.864062 31.621159 
M 42.037634 24.873021 
Q 42.300062 25.172938 43.499731 25.547834 
L 44.624421 26.672524 
M 34.164807 27.909683 
L 51.372559 27.459807 
Q 52.459759 27.1224 52.497248 27.1224 
Q 52.609717 27.1224 52.609717 27.347338 
Q 52.609717 27.384828 52.384779 28.134621 
L 51.747455 29.634207 
L 51.297579 30.871366 
M 34.389745 25.99771 
Q 34.502214 25.960221 34.502214 26.053945 
Q 34.502214 26.147669 34.464724 26.278883 
Q 34.427234 26.410097 34.502214 26.447586 
Q 34.502214 26.485076 34.052338 28.696966 
L 33.489993 29.821655 
" clip-path="url(#p3780d1d618)" style="fill: none; stroke: #000000; stroke-linejoin: miter"/>
   </g>
  </g>
  <g id="axes_3">
   <g id="patch_4">
    <path d="M 66.391997 43.624417 
Q 67.662484 43.40662 70.747951 43.261421 
Q 73.833419 43.116223 75.539501 42.789526 
L 76.628489 42.571729 
M 66.900192 39.63146 
L 67.553585 39.63146 
L 76.047695 39.413662 
M 65.920102 46.492087 
L 66.464597 46.492087 
L 73.651921 46.492087 
L 75.394302 46.746184 
M 66.029001 36.001498 
L 66.682394 36.001498 
Q 68.533675 36.001498 72.290685 35.511453 
Q 76.047695 35.021408 77.898976 35.021408 
Q 78.116773 35.021408 78.116773 35.348105 
Q 77.717478 38.723969 77.663028 40.357452 
Q 77.608579 41.990935 77.681178 45.403099 
Q 77.681178 45.584597 77.717478 46.056492 
Q 77.935275 48.524866 77.245583 48.561165 
Q 76.846287 48.561165 76.265493 48.052971 
L 75.6121 47.617375 
M 66.464597 36.654891 
Q 66.464597 36.691191 66.700544 37.181236 
Q 66.936492 37.67128 66.900192 37.961677 
L 66.791293 46.492087 
L 66.682394 47.472177 
M 69.187068 28.814174 
Q 69.150768 29.140871 69.187068 29.467567 
Q 69.187068 31.681844 68.06178 33.877971 
Q 66.936492 36.074097 65.520807 37.562382 
Q 64.105122 39.050666 62.253841 41.028995 
Q 60.402561 43.007324 59.49507 44.386709 
L 58.514981 44.931204 
M 60.329962 33.787222 
L 75.358003 32.698233 
L 83.235019 32.335237 
M 64.395519 31.318848 
L 65.048912 31.318848 
Q 66.319398 31.318848 67.825832 31.173649 
Q 69.332266 31.028451 71.165397 30.792503 
Q 72.998528 30.556556 73.978617 30.447657 
L 75.6121 30.12096 
M 62.653137 29.685365 
L 63.088732 29.685365 
Q 64.25032 29.685365 65.901953 29.394968 
Q 67.553585 29.104571 69.586364 28.650826 
Q 71.619142 28.197081 72.454033 28.051882 
L 77.46338 27.725186 
M 72.889629 25.365711 
Q 72.671831 25.547209 72.308835 25.928355 
Q 71.945839 26.309501 71.909539 26.3458 
L 70.639052 27.434789 
M 64.867414 25.510909 
L 67.335787 27.725186 
" clip-path="url(#p4e220ce1b4)" style="fill: none; stroke: #000000; stroke-linejoin: miter"/>
   </g>
  </g>
  <g id="axes_4">
   <g id="patch_5">
    <path d="M 100.8558 25.022979 
Q 98.906338 26.972441 95.907166 29.859145 
L 94.894945 30.646428 
M 91.520876 40.318759 
L 91.970752 40.318759 
Q 93.020462 40.318759 94.276366 40.225034 
Q 95.532269 40.13131 97.069345 39.981352 
Q 98.606421 39.831393 99.393703 39.756414 
L 104.004931 39.643945 
M 90.283717 48.079117 
L 90.846062 48.079117 
Q 91.820793 48.079117 92.889248 47.947903 
Q 93.957703 47.81669 95.288586 47.591752 
Q 96.619469 47.366814 97.369262 47.291834 
L 104.454807 47.066897 
L 106.366779 46.954428 
M 90.283717 31.208772 
Q 90.433676 31.208772 90.508655 31.096303 
L 91.858283 31.096303 
Q 94.257621 31.096303 99.131276 30.590193 
Q 104.004931 30.084083 106.366779 30.084083 
L 107.154062 30.084083 
L 107.379 29.934124 
Q 107.603938 29.746676 108.166283 29.746676 
Q 108.091303 30.496469 107.847621 32.333462 
Q 107.603938 34.170455 107.491469 35.070207 
Q 107.379 35.969959 107.172807 37.919421 
Q 106.966614 39.868883 106.947869 40.806124 
Q 106.929124 41.743366 106.854145 43.674083 
Q 106.779166 45.6048 106.929124 46.504552 
Q 107.079083 48.753931 106.591717 48.753931 
Q 106.554228 48.753931 105.916903 48.304055 
L 105.467028 48.079117 
M 90.508655 31.658648 
Q 92.1582 41.405959 92.19569 47.74171 
" clip-path="url(#p926d11bfe5)" style="fill: none; stroke: #000000; stroke-linejoin: miter"/>
   </g>
  </g>
  <g id="axes_5">
   <g id="patch_6">
    <path d="M 124.257166 36.382345 
Q 129.730655 43.4304 136.85369 46.279614 
L 139.103069 47.179366 
M 127.181359 24.123228 
Q 127.143869 24.235697 127.162614 24.629338 
Q 127.181359 25.022979 127.181359 25.135448 
Q 127.293828 26.372607 127.087634 27.609766 
Q 126.881441 28.846924 126.375331 30.646428 
Q 125.869221 32.445931 125.719262 33.008276 
Q 125.081938 35.82 123.919759 37.750717 
Q 122.757579 39.681434 120.54569 42.043283 
Q 118.3338 44.405131 117.509028 45.492331 
L 116.046931 46.054676 
M 116.721745 32.820828 
L 117.509028 32.820828 
L 136.516283 31.4712 
" clip-path="url(#p7fb12e148c)" style="fill: none; stroke: #000000; stroke-linejoin: miter"/>
   </g>
  </g>
  <g id="axes_6">
   <g id="patch_7">
    <path d="M 163.822993 33.164343 
L 164.133394 33.164343 
Q 164.167883 33.164343 165.271533 33.681679 
L 168.375547 36.371825 
M 163.788504 25.749197 
Q 163.754015 25.921642 163.771259 26.37 
Q 163.788504 26.818358 163.788504 26.990803 
Q 163.788504 27.922007 163.857482 29.094635 
Q 163.92646 30.267263 163.92646 31.198467 
Q 163.92646 31.232956 164.236861 36.785693 
L 164.65073 47.270365 
L 164.754197 48.201569 
M 156.856204 37.99281 
Q 156.890693 38.234234 156.994161 39.199927 
Q 157.097628 40.16562 157.270073 40.682956 
L 157.477007 46.580584 
M 152.614051 46.37365 
Q 154.235036 45.959781 156.028467 46.063248 
L 162.650365 44.925109 
M 154.269526 41.924562 
L 154.890328 41.924562 
L 156.545803 41.924562 
L 159.442883 41.614161 
M 157.580474 26.473467 
L 157.580474 26.783869 
L 157.614964 26.921825 
Q 157.649453 27.059781 157.683942 27.249471 
Q 157.718431 27.439161 157.75292 27.577117 
L 157.787409 27.715073 
L 157.890876 37.061606 
M 153.234854 37.26854 
L 154.579927 37.26854 
Q 155.304197 37.26854 156.131934 37.199562 
Q 156.959672 37.130584 157.959854 37.009872 
Q 158.960036 36.889161 159.54635 36.854672 
L 161.615693 36.440803 
M 154.166058 32.19865 
L 155.407664 32.19865 
Q 155.442153 32.19865 158.304745 32.095182 
L 160.167153 31.681314 
M 147.958029 25.714708 
Q 148.337409 25.783686 148.613321 25.904398 
Q 148.889234 26.025109 149.02719 26.128577 
Q 149.165146 26.232044 149.458303 26.490712 
Q 149.75146 26.74938 150.027372 26.921825 
L 150.958577 28.059964 
M 151.544891 34.647372 
L 151.544891 34.854307 
L 150.510219 37.337518 
M 148.027007 35.475109 
L 151.544891 39.82073 
M 148.027007 35.371642 
Q 147.958029 35.647555 148.044252 36.251113 
Q 148.130474 36.854672 148.027007 37.130584 
L 148.027007 39.924197 
L 147.820073 47.994635 
M 143.888321 32.060693 
L 151.337956 30.922555 
Q 151.613869 30.71562 151.648358 30.71562 
Q 144.957482 39.372372 144.30219 40.062153 
L 143.474453 40.372555 
" clip-path="url(#peddfb9161f)" style="fill: none; stroke: #000000; stroke-linejoin: miter"/>
   </g>
  </g>
  <g id="axes_7">
   <g id="patch_8">
    <path d="M 182.812903 36.94469 
Q 182.850393 37.019669 183.112821 37.263352 
Q 183.375248 37.507034 183.487717 37.619503 
Q 183.600186 37.731972 183.843869 38.013145 
Q 184.087552 38.294317 184.23751 38.463021 
Q 184.387469 38.631724 184.612407 38.931641 
Q 184.837345 39.231559 184.968559 39.437752 
Q 185.099772 39.643945 185.249731 39.943862 
Q 185.39969 40.243779 185.493414 40.487462 
Q 185.587138 40.731145 185.662117 41.012317 
Q 185.737097 41.29349 185.737097 41.555917 
Q 185.737097 42.118262 185.587138 42.605628 
Q 185.437179 43.092993 185.156007 43.636593 
Q 184.874834 44.180193 184.724876 44.592579 
L 183.600186 45.717269 
" clip-path="url(#pfa65b16bb8)" style="fill: none; stroke: #000000; stroke-linejoin: miter"/>
   </g>
  </g>
 </g>
 <defs>
  <clipPath id="pb9cbe540a0">
   <rect x="0" y="12.140565" width="28.35" height="47.358871"/>
  </clipPath>
  <clipPath id="p3780d1d618">
   <rect x="30.5658" y="8.64" width="23.9184" height="54.36"/>
  </clipPath>
  <clipPath id="p4e220ce1b4">
   <rect x="56.7" y="9.502778" width="28.35" height="52.634443"/>
  </clipPath>
  <clipPath id="p926d11bfe5">
   <rect x="88.409234" y="8.64" width="21.631531" height="54.36"/>
  </clipPath>
  <clipPath id="p7fb12e148c">
   <rect x="114.172448" y="8.64" width="26.805103" height="54.36"/>
  </clipPath>
  <clipPath id="peddfb9161f">
   <rect x="141.75" y="10.815438" width="28.35" height="50.009124"/>
  </clipPath>
  <clipPath id="pfa65b16bb8">
   <rect x="180.938421" y="8.64" width="6.673159" height="54.36"/>
  </clipPath>
 </defs>
</svg>
