<?xml version="1.0" encoding="utf-8" standalone="no"?>
<!DOCTYPE svg PUBLIC "-//W3C//DTD SVG 1.1//EN"
  "http://www.w3.org/Graphics/SVG/1.1/DTD/svg11.dtd">
<svg xmlns:xlink="http://www.w3.org/1999/xlink" width="220.5pt" height="72pt" viewBox="0 0 220.5 72" xmlns="http://www.w3.org/2000/svg" version="1.1">
 <metadata>
  <rdf:RDF xmlns:dc="http://purl.org/dc/elements/1.1/" xmlns:cc="http://creativecommons.org/ns#" xmlns:rdf="http://www.w3.org/1999/02/22-rdf-syntax-ns#">
   <cc:Work>
    <dc:type rdf:resource="http://purl.org/dc/dcmitype/StillImage"/>
    <dc:date>2023-01-29T20:25:30.478383</dc:date>
    <dc:format>image/svg+xml</dc:format>
    <dc:creator>
     <cc:Agent>
      <dc:title>Matplotlib v3.6.1, https://matplotlib.org/</dc:title>
     </cc:Agent>
    </dc:creator>
   </cc:Work>
  </rdf:RDF>
 </metadata>
 <defs>
  <style type="text/css">*{stroke-linejoin: round; stroke-linecap: butt}</style>
 </defs>
 <g id="figure_1">
  <g id="patch_1">
   <path d="M 0 72 
L 220.5 72 
L 220.5 0 
L 0 0 
z
" style="fill: #8fff9f"/>
  </g>
  <g id="axes_1">
   <g id="patch_2">
    <path d="M 18.936186 33.983007 
L 19.161124 33.983007 
Q 19.985897 33.983007 20.923138 34.22669 
Q 21.860379 34.470372 23.022559 34.882759 
Q 24.184738 35.295145 24.784572 35.445103 
L 26.246669 36.232386 
M 19.161124 24.648083 
L 19.198614 43.130483 
L 18.861207 49.091338 
M 7.051966 34.132966 
L 7.389372 34.132966 
L 8.851469 35.032717 
L 10.088628 36.044938 
M 7.389372 30.34651 
Q 8.064186 30.384 9.507538 30.102828 
Q 10.95089 29.821655 11.775662 29.896634 
Q 12.450476 29.971614 13.66889 29.577972 
Q 14.887303 29.184331 15.374669 29.184331 
Q 15.449648 29.184331 15.468393 29.2968 
Q 15.487138 29.409269 15.487138 29.521738 
L 15.487138 29.634207 
Q 12.450476 35.595062 10.107372 38.800428 
Q 7.764269 42.005793 3.790366 45.042455 
L 2.103331 46.054676 
M 8.176655 27.534786 
Q 8.064186 28.2096 7.820503 28.903159 
Q 7.576821 29.596717 7.220669 30.477724 
Q 6.864517 31.358731 6.714559 31.808607 
L 4.915055 34.395393 
" clip-path="url(#p3452a9822a)" style="fill: none; stroke: #000000; stroke-linejoin: miter"/>
   </g>
  </g>
  <g id="axes_2">
   <g id="patch_3">
    <path d="M 37.912055 41.198656 
Q 41.946047 40.750435 43.178656 40.750435 
L 45.083597 40.302213 
M 37.351779 36.604387 
Q 37.687945 36.753794 38.11749 36.828498 
Q 38.547036 36.903202 38.883202 36.921877 
Q 39.219368 36.940553 39.79832 36.940553 
Q 40.377273 36.940553 40.601383 36.940553 
Q 40.862846 36.940553 41.423123 36.884526 
Q 41.983399 36.828498 42.282213 36.828498 
Q 42.319565 36.828498 43.850988 36.380277 
L 45.307708 36.156166 
M 45.307708 31.449842 
Q 45.531818 31.898063 45.718577 32.402312 
Q 45.905336 32.906561 46.036067 33.522866 
Q 46.166798 34.13917 46.260178 34.624743 
Q 46.353557 35.110316 46.428261 35.857352 
Q 46.502964 36.604387 46.540316 37.033933 
Q 46.577668 37.463478 46.596344 38.322569 
Q 46.61502 39.18166 46.633696 39.49915 
Q 46.652372 39.81664 46.652372 40.750435 
Q 46.652372 41.684229 46.652372 41.870988 
L 46.652372 44.112095 
L 46.316206 46.129091 
M 37.687945 31.113676 
Q 37.650593 31.225731 37.669269 31.50587 
Q 37.687945 31.786008 37.687945 31.898063 
Q 37.687945 32.943913 37.912055 34.942233 
Q 38.136166 36.940553 38.136166 37.949051 
L 38.136166 42.095099 
Q 38.136166 42.655375 38.21087 43.290356 
Q 38.285573 43.925336 38.416304 44.709723 
Q 38.547036 45.494111 38.584387 45.90498 
M 32.010474 45.120593 
L 53.151581 45.867628 
M 30.217589 31.001621 
L 40.041107 31.001621 
L 53.711858 30.030474 
L 53.935968 39.069605 
L 54.6083 47.58581 
Q 54.832411 48.893123 54.832411 48.930474 
Q 54.832411 49.154585 54.272134 49.154585 
Q 54.010672 49.154585 53.805237 48.986502 
Q 53.599802 48.818419 53.413043 48.575632 
Q 53.226285 48.332846 53.151581 48.258142 
L 51.134585 47.025534 
M 30.777866 31.001621 
Q 30.740514 31.113676 30.75919 31.50587 
Q 30.777866 31.898063 30.777866 32.010119 
Q 30.777866 32.682451 30.927273 33.354783 
Q 31.07668 34.027115 31.319466 34.848854 
Q 31.562253 35.670593 31.674308 36.156166 
L 31.898419 47.174941 
M 41.311067 26.407352 
Q 41.16166 26.519407 40.956225 26.743518 
Q 40.750791 26.967628 40.638735 27.079684 
L 38.584387 30.77751 
M 35.7083 26.295296 
L 41.199012 26.183241 
L 43.103953 25.847075 
L 48.818775 24.950632 
" clip-path="url(#p499d5a2ff7)" style="fill: none; stroke: #000000; stroke-linejoin: miter"/>
   </g>
  </g>
  <g id="axes_3">
   <g id="patch_4">
    <path d="M 70.612572 35.82 
Q 70.725041 35.632552 70.949979 35.482593 
L 78.035524 35.257655 
M 71.249897 41.630897 
L 77.210752 41.518428 
L 79.347662 41.405959 
M 70.012738 28.322069 
L 75.523717 28.322069 
Q 75.898614 28.2096 76.592172 28.003407 
Q 77.285731 27.797214 77.679372 27.684745 
Q 78.073014 27.572276 78.616614 27.478552 
Q 79.160214 27.384828 79.422641 27.497297 
Q 79.685069 27.609766 79.891262 27.872193 
Q 80.097455 28.134621 80.059966 28.696966 
Q 80.022476 29.25931 79.797538 30.121572 
Q 78.747828 33.870538 80.922228 43.542869 
L 79.685069 42.755586 
M 70.012738 27.309848 
Q 69.82529 28.134621 70.012738 28.659476 
Q 70.612572 30.309021 70.818766 32.0148 
Q 71.024959 33.720579 71.062448 35.78251 
Q 71.099938 37.844441 71.249897 39.006621 
L 70.987469 42.755586 
M 60.827772 28.059641 
L 61.165179 28.059641 
Q 61.839993 28.022152 62.908448 27.422317 
Q 63.976903 26.822483 64.426779 26.710014 
Q 64.839166 26.597545 66.207538 25.922731 
Q 67.57591 25.247917 68.400683 25.247917 
Q 68.513152 25.247917 68.513152 25.585324 
Q 68.213234 26.07269 67.725869 27.08491 
Q 67.238503 28.097131 66.769883 28.846924 
Q 66.301262 29.596717 65.701428 30.196552 
Q 64.914145 30.983834 64.914145 31.208772 
Q 65.588959 32.071034 66.263772 33.120745 
Q 66.56369 33.795559 67.03231 34.601586 
Q 67.500931 35.407614 67.744614 36.007448 
Q 67.988297 36.607283 68.213234 37.656993 
Q 68.363193 38.03189 68.269469 39.025366 
Q 68.175745 40.018841 67.763359 40.018841 
Q 67.6134 40.018841 67.444697 39.981352 
Q 67.275993 39.943862 67.163524 39.906372 
Q 67.051055 39.868883 66.901097 39.756414 
Q 66.751138 39.643945 66.676159 39.606455 
Q 66.601179 39.568966 66.451221 39.419007 
Q 66.301262 39.269048 66.263772 39.212814 
Q 66.226283 39.156579 66.057579 38.987876 
Q 65.888876 38.819172 65.851386 38.781683 
Q 65.326531 38.219338 64.501759 37.656993 
L 62.814724 36.569793 
L 62.13991 36.344855 
M 60.827772 25.922731 
L 60.827772 26.147669 
Q 60.827772 27.1224 60.958986 28.265834 
Q 61.0902 29.409269 61.315138 30.796386 
Q 61.540076 32.183503 61.615055 32.895807 
L 61.727524 48.8664 
" clip-path="url(#pa73ef03d64)" style="fill: none; stroke: #000000; stroke-linejoin: miter"/>
   </g>
  </g>
  <g id="axes_4">
   <g id="patch_5">
    <path d="M 98.512697 36.569793 
Q 98.400228 36.569793 98.362738 36.663517 
Q 98.325248 36.757241 98.400228 36.9072 
Q 98.437717 37.094648 98.400228 37.132138 
L 98.062821 39.718924 
L 97.837883 42.418179 
L 98.325248 45.454841 
Q 98.775124 46.916938 101.586848 47.479283 
Q 102.411621 47.74171 103.798738 47.685476 
Q 105.185855 47.629241 105.991883 47.516772 
Q 106.79791 47.404303 108.072559 47.19811 
Q 109.347207 46.991917 109.984531 46.916938 
L 110.546876 44.442621 
L 110.884283 43.542869 
M 94.91369 36.9072 
Q 94.801221 37.132138 93.938959 38.837917 
Q 93.076697 40.543697 92.608076 41.312234 
Q 92.139455 42.080772 91.295938 43.411655 
Q 90.452421 44.742538 89.608903 45.548566 
Q 88.765386 46.354593 87.903124 46.804469 
L 87.565717 47.141876 
M 103.5738 27.684745 
Q 103.161414 27.834703 102.786517 28.509517 
Q 102.411621 29.184331 102.111703 29.371779 
L 99.974793 32.071034 
L 99.412448 32.858317 
M 90.189993 29.25931 
Q 90.302462 29.371779 91.014766 29.80291 
Q 91.727069 30.234041 91.989497 30.608938 
L 93.451593 32.295972 
M 88.165552 35.78251 
L 95.813441 35.632552 
L 106.722931 34.995228 
M 97.163069 25.772772 
L 96.938131 35.220166 
" clip-path="url(#pa4d49aac0e)" style="fill: none; stroke: #000000; stroke-linejoin: miter"/>
   </g>
  </g>
  <g id="axes_5">
   <g id="patch_6">
    <path d="M 127.912407 37.769462 
Q 127.987386 37.582014 128.437262 37.675738 
Q 128.887138 37.769462 129.037097 37.544524 
L 134.023221 37.432055 
M 129.374503 32.258483 
Q 129.561952 32.146014 130.124297 32.146014 
Q 130.686641 32.146014 130.949069 31.921076 
L 135.485317 31.358731 
M 129.374503 26.522566 
L 135.035441 26.297628 
Q 136.797455 25.960221 136.834945 25.960221 
Q 137.059883 25.960221 137.059883 26.222648 
Q 137.059883 26.335117 137.059883 26.410097 
Q 137.059883 28.959393 136.610007 34.1892 
Q 136.160131 39.419007 136.160131 42.043283 
Q 136.160131 43.055503 136.441303 45.136179 
Q 136.722476 47.216855 136.722476 48.116607 
Q 136.722476 48.079117 134.922972 46.766979 
L 133.123469 46.092166 
M 129.374503 26.522566 
Q 129.337014 26.710014 129.374503 26.859972 
Q 129.374503 27.347338 129.543207 28.397048 
Q 129.71191 29.446759 129.71191 30.009103 
Q 129.71191 32.820828 128.999607 35.520083 
Q 128.287303 38.219338 127.106379 41.349724 
Q 125.925455 44.48011 125.43809 46.317103 
L 124.3134 47.891669 
M 118.427524 33.495641 
L 121.576655 33.383172 
L 123.601097 33.045766 
M 118.090117 37.881931 
L 124.163441 37.769462 
M 118.652462 29.671697 
Q 118.577483 29.559228 118.689952 29.559228 
Q 118.8774 29.559228 118.8774 29.446759 
L 119.889621 29.446759 
Q 121.839083 28.771945 123.526117 28.547007 
Q 124.425869 28.434538 125.100683 28.434538 
Q 125.175662 28.434538 125.231897 28.453283 
Q 125.288131 28.472028 125.306876 28.547007 
Q 125.325621 28.621986 125.325621 28.659476 
Q 125.325621 28.696966 125.325621 28.809434 
Q 125.325621 28.921903 125.325621 28.996883 
Q 125.325621 32.5584 124.725786 35.407614 
L 124.500848 41.031062 
M 118.764931 29.446759 
L 118.652462 34.282924 
L 118.427524 39.11909 
" clip-path="url(#p27e58cec34)" style="fill: none; stroke: #000000; stroke-linejoin: miter"/>
   </g>
  </g>
  <g id="axes_6">
   <g id="patch_7">
    <path d="M 159.504188 43.013813 
L 166.024687 42.76575 
M 159.220687 39.292875 
L 160.071188 39.292875 
Q 160.106625 39.292875 164.536313 39.399188 
L 166.27275 39.328313 
M 157.803188 46.8765 
L 158.33475 46.8765 
Q 159.964875 46.8765 162.817594 46.486688 
Q 165.670312 46.096875 166.237313 46.026 
M 159.6105 36.068063 
L 168.328125 35.67825 
Q 168.25725 36.847687 168.026906 39.044812 
Q 167.796562 41.241937 167.672531 43.066969 
Q 167.5485 44.892 167.619375 46.45125 
Q 167.619375 46.73475 167.725687 47.425781 
Q 167.832 48.116813 167.832 48.471187 
Q 166.4145 47.797875 166.024687 47.620688 
L 165.493125 47.089125 
M 159.504188 36.493313 
Q 159.291562 36.705938 159.380156 37.166625 
Q 159.46875 37.627313 159.397875 37.839938 
L 159.397875 43.33275 
L 159.078937 46.557563 
M 162.162 29.370375 
L 162.162 34.119 
M 158.228438 34.012687 
L 165.882937 33.197625 
L 166.520813 33.091313 
M 157.9095 29.583 
L 160.673625 29.370375 
L 166.946063 27.775688 
L 166.308188 31.496625 
L 166.4145 32.347125 
M 158.33475 29.689313 
L 158.33475 34.225313 
Q 158.228438 34.792313 157.927219 36.617344 
Q 157.626 38.442375 157.466531 39.292875 
Q 157.307063 40.143375 156.899531 41.49 
Q 156.492 42.836625 155.960438 43.89975 
Q 155.606063 44.325 154.93275 45.565312 
Q 154.259437 46.805625 153.727875 47.30175 
M 152.593875 31.673813 
L 152.38125 35.926313 
Q 151.140938 41.738062 144.44325 47.833312 
M 143.521875 35.040375 
L 152.274937 34.331625 
M 150.255 26.216438 
Q 149.085563 32.772375 146.392313 37.733625 
Q 148.589438 39.186563 150.379031 41.472281 
Q 152.168625 43.758 153.550688 44.998312 
" clip-path="url(#p985998bd5b)" style="fill: none; stroke: #000000; stroke-linejoin: miter"/>
   </g>
  </g>
  <g id="axes_7">
   <g id="patch_8">
    <path d="M 182.812903 36.94469 
Q 182.850393 37.019669 183.112821 37.263352 
Q 183.375248 37.507034 183.487717 37.619503 
Q 183.600186 37.731972 183.843869 38.013145 
Q 184.087552 38.294317 184.23751 38.463021 
Q 184.387469 38.631724 184.612407 38.931641 
Q 184.837345 39.231559 184.968559 39.437752 
Q 185.099772 39.643945 185.249731 39.943862 
Q 185.39969 40.243779 185.493414 40.487462 
Q 185.587138 40.731145 185.662117 41.012317 
Q 185.737097 41.29349 185.737097 41.555917 
Q 185.737097 42.118262 185.587138 42.605628 
Q 185.437179 43.092993 185.156007 43.636593 
Q 184.874834 44.180193 184.724876 44.592579 
L 183.600186 45.717269 
" clip-path="url(#p52ee981e5a)" style="fill: none; stroke: #000000; stroke-linejoin: miter"/>
   </g>
  </g>
 </g>
 <defs>
  <clipPath id="p3452a9822a">
   <rect x="0.228848" y="8.64" width="27.892303" height="54.36"/>
  </clipPath>
  <clipPath id="p499d5a2ff7">
   <rect x="28.35" y="8.73996" width="28.35" height="54.160079"/>
  </clipPath>
  <clipPath id="pa73ef03d64">
   <rect x="58.95329" y="8.64" width="23.843421" height="54.36"/>
  </clipPath>
  <clipPath id="pa4d49aac0e">
   <rect x="85.691234" y="8.64" width="27.067531" height="54.36"/>
  </clipPath>
  <clipPath id="p27e58cec34">
   <rect x="116.215634" y="8.64" width="22.718731" height="54.36"/>
  </clipPath>
  <clipPath id="p985998bd5b">
   <rect x="141.75" y="10.127812" width="28.35" height="51.384375"/>
  </clipPath>
  <clipPath id="p52ee981e5a">
   <rect x="180.938421" y="8.64" width="6.673159" height="54.36"/>
  </clipPath>
 </defs>
</svg>
