<?xml version="1.0" encoding="utf-8" standalone="no"?>
<!DOCTYPE svg PUBLIC "-//W3C//DTD SVG 1.1//EN"
  "http://www.w3.org/Graphics/SVG/1.1/DTD/svg11.dtd">
<svg xmlns:xlink="http://www.w3.org/1999/xlink" width="324pt" height="162pt" viewBox="0 0 324 162" xmlns="http://www.w3.org/2000/svg" version="1.1">
 <metadata>
  <rdf:RDF xmlns:dc="http://purl.org/dc/elements/1.1/" xmlns:cc="http://creativecommons.org/ns#" xmlns:rdf="http://www.w3.org/1999/02/22-rdf-syntax-ns#">
   <cc:Work>
    <dc:type rdf:resource="http://purl.org/dc/dcmitype/StillImage"/>
    <dc:date>2023-02-15T22:56:37.262402</dc:date>
    <dc:format>image/svg+xml</dc:format>
    <dc:creator>
     <cc:Agent>
      <dc:title>Matplotlib v3.6.1, https://matplotlib.org/</dc:title>
     </cc:Agent>
    </dc:creator>
   </cc:Work>
  </rdf:RDF>
 </metadata>
 <defs>
  <style type="text/css">*{stroke-linejoin: round; stroke-linecap: butt}</style>
 </defs>
 <g id="figure_1">
  <g id="patch_1">
   <path d="M 0 162 
L 324 162 
L 324 0 
L 0 0 
z
" style="fill: #8fff9f"/>
  </g>
  <g id="axes_1">
   <g id="patch_2">
    <path d="M 11.694179 92.100563 
Q 13.438875 91.581869 17.352652 91.369677 
Q 21.266429 91.157484 22.869664 90.827406 
L 34.092303 91.11033 
M 16.645343 80.170614 
L 25.981824 79.368997 
M 17.352652 86.442089 
L 28.669599 86.159166 
M 16.220957 74.087755 
Q 15.843726 73.66337 15.938034 73.66337 
Q 15.985188 73.66337 16.268111 73.757678 
Q 16.503881 73.851986 16.503881 73.804832 
L 17.918499 73.804832 
Q 19.710349 73.804832 23.671281 73.097523 
Q 27.632212 72.390213 29.376908 72.390213 
Q 29.612678 72.390213 29.636255 72.460944 
Q 29.659832 72.531675 29.659832 72.814599 
Q 29.659832 73.66337 29.51837 74.67718 
Q 29.376908 75.69099 29.141138 76.916992 
Q 28.905369 78.142995 28.811061 78.755996 
L 28.669599 84.886009 
L 28.386675 86.442089 
M 16.220957 73.804832 
L 16.220957 74.512141 
L 16.220957 76.77553 
L 17.069728 86.300627 
M 7.025938 75.408066 
Q 7.214554 76.351145 7.497477 78.355188 
Q 7.780401 80.35923 8.016171 81.349463 
L 7.780401 95.920032 
M 11.128331 69.183745 
L 11.128331 69.608131 
Q 11.128331 71.117057 9.855175 72.908907 
Q 8.582018 74.700757 6.601552 76.704799 
Q 4.621087 78.708842 4.055239 79.510459 
L 2.357697 80.783616 
" clip-path="url(#pa9ac2cd3fc)" style="fill: none; stroke: #000000; stroke-linejoin: miter"/>
   </g>
  </g>
  <g id="axes_2">
   <g id="patch_3">
    <path d="M 39.507886 92.214966 
L 69.842114 89.585185 
M 53.32953 84.87604 
Q 55.347735 90.441393 54.980789 100.287785 
Q 54.797315 102.244832 54.185738 102.244832 
Q 53.696477 102.244832 52.045218 100.104312 
Q 50.271644 97.596846 49.293121 97.352215 
M 49.109648 80.839631 
L 49.84354 80.839631 
Q 50.516275 80.839631 52.840268 80.442106 
Q 55.164262 80.044581 57.182466 79.616477 
L 59.200671 79.188372 
Q 59.200671 79.983423 58.527936 81.175998 
Q 57.855201 82.368574 56.81552 83.775201 
Q 55.775839 85.181829 55.531208 85.609933 
L 54.613842 86.894245 
M 52.840268 66.773356 
Q 54.491527 67.751879 57.763465 71.176711 
Q 61.035403 74.601544 63.481711 75.580067 
L 67.885067 77.414799 
M 53.023742 66.956829 
L 52.656795 66.956829 
Q 51.98406 67.629564 50.088171 69.953557 
Q 48.192282 72.27755 46.693918 73.500705 
Q 45.195554 74.723859 43.299664 75.213121 
L 40.914513 76.680906 
L 39.630201 77.047852 
M 44.583977 68.057668 
Q 49.354279 66.956829 58.344463 66.222936 
Q 59.261829 66.039463 61.09656 65.733674 
Q 62.931292 65.427886 63.665185 65.30557 
M 53.390688 62.920419 
L 53.390688 77.047852 
" clip-path="url(#p84964c64d5)" style="fill: none; stroke: #000000; stroke-linejoin: miter"/>
   </g>
  </g>
  <g id="axes_3">
   <g id="patch_4">
    <path d="M 79.515707 100.060445 
Q 80.279058 99.869607 81.964791 99.869607 
Q 83.650524 99.869607 84.477487 99.67877 
L 101.843717 99.297094 
M 80.660733 93.190288 
L 81.042408 93.190288 
Q 83.07801 93.190288 85.590707 92.872225 
Q 88.103403 92.554162 91.252225 92.013455 
Q 94.401047 91.472749 95.927749 91.281911 
L 98.981152 91.091073 
M 81.233246 88.801021 
Q 83.586911 87.910445 88.739529 87.369738 
Q 93.892147 86.829031 96.309424 85.938455 
Q 96.563874 85.938455 97.263613 85.843037 
Q 97.963351 85.747618 98.217801 85.747618 
L 99.744503 85.747618 
Q 99.871728 85.747618 100.030759 85.461361 
Q 100.189791 85.175105 100.444241 85.175105 
Q 100.635079 85.175105 100.635079 86.892644 
Q 100.635079 86.956257 100.253403 93.571963 
L 99.299215 98.533743 
M 94.591885 80.086099 
Q 95.100785 80.276937 96.08678 80.913063 
Q 97.072775 81.549188 97.645288 81.803639 
L 99.17199 83.139503 
M 94.210209 75.760445 
L 94.97356 75.760445 
Q 95.355236 75.760445 96.150393 76.110314 
Q 96.94555 76.460183 97.867932 77.00089 
Q 98.790314 77.541597 98.981152 77.668822 
L 100.317016 79.195524 
M 81.614921 81.231126 
Q 81.869372 81.358351 82.887173 81.70822 
Q 83.904974 82.058089 84.477487 82.503377 
L 87.149215 83.839241 
M 81.996597 76.778246 
L 82.759948 76.778246 
L 86.958377 78.686623 
M 90.775131 66.091335 
L 90.965969 84.602592 
M 86.576702 66.663848 
L 95.546073 65.137147 
M 76.653141 74.297356 
Q 80.787958 73.279555 89.184817 72.516204 
Q 97.581675 71.752853 101.462042 70.862277 
Q 102.734293 70.544215 103.783901 70.576021 
Q 104.833508 70.607827 105.50144 70.92589 
Q 106.169372 71.243953 105.914921 72.229948 
Q 105.660471 73.215942 104.324607 74.679031 
L 103.561257 76.969084 
M 76.843979 71.18034 
L 76.080628 79.068298 
" clip-path="url(#pef4d99ec2a)" style="fill: none; stroke: #000000; stroke-linejoin: miter"/>
   </g>
  </g>
  <g id="axes_4">
   <g id="patch_5">
    <path d="M 111.377253 82.622253 
Q 124.311123 81.324811 133.879755 81.608626 
Q 134.690656 81.608626 135.68401 81.608626 
Q 136.677364 81.608626 137.042269 81.608626 
Q 137.407175 81.608626 138.177531 81.669444 
Q 138.947887 81.730261 140.123693 81.851897 
Q 140.448053 81.932987 141.78604 82.034349 
Q 143.124027 82.135712 143.772747 82.460072 
M 130.838877 74.715968 
L 130.838877 92.839605 
L 130.595606 94.907403 
M 122.932592 75.202508 
Q 122.892047 75.324143 122.912319 75.810684 
Q 122.932592 76.297225 122.932592 76.41886 
Q 122.932592 81.973532 121.63515 85.054956 
Q 120.337709 88.136379 116.850834 91.744889 
L 115.512848 92.4747 
M 132.825584 68.79639 
Q 132.257953 70.539828 130.595606 71.512909 
L 129.379255 72.72926 
M 118.553726 70.539828 
Q 118.675362 70.661463 119.526808 71.391274 
Q 120.378254 72.121085 120.743159 72.4049 
Q 121.108065 72.688715 121.837875 73.134711 
Q 122.567686 73.580706 123.175862 73.823977 
M 117.45901 74.797058 
L 127.554727 74.310517 
L 136.069188 74.432152 
" clip-path="url(#pd98e0eac87)" style="fill: none; stroke: #000000; stroke-linejoin: miter"/>
   </g>
  </g>
  <g id="axes_5">
   <g id="patch_6">
    <path d="M 166.679126 72.556789 
Q 169.156311 74.629535 171.532386 75.893405 
L 173.959015 76.803391 
M 163.190846 72.405125 
Q 163.746949 75.135083 163.848058 78.673918 
Q 163.949168 82.212753 163.797503 85.018544 
Q 163.645839 87.824334 163.797503 91.363169 
L 164.252497 94.396456 
M 166.375798 66.035222 
Q 165.213037 68.360742 164.631657 69.44767 
Q 164.050277 70.534598 162.786408 72.632621 
Q 161.522538 74.730645 160.486165 75.918682 
Q 159.449792 77.10672 157.907871 78.395867 
Q 156.36595 79.685014 154.697642 80.443336 
M 148.327739 67.70353 
Q 149.996047 67.400201 151.664355 67.147427 
Q 153.332663 66.894653 155.228467 66.692434 
Q 157.124272 66.490215 158.590361 66.313273 
Q 160.056449 66.136331 162.230305 65.984667 
Q 164.404161 65.833003 165.617476 65.731893 
Q 166.830791 65.630784 169.282698 65.504397 
Q 171.734605 65.37801 172.644591 65.327455 
Q 173.554577 65.2769 176.284535 65.150513 
Q 179.014494 65.024126 179.722261 64.973571 
" clip-path="url(#pcbb9ba798b)" style="fill: none; stroke: #000000; stroke-linejoin: miter"/>
   </g>
  </g>
  <g id="axes_6">
   <g id="patch_7">
    <path d="M 204.500153 72.768313 
Q 204.500153 72.768313 204.500153 75.954893 
Q 204.500153 78.191089 204.639916 80.70681 
Q 204.779678 83.222531 205.003298 86.297301 
Q 205.226917 89.372071 205.338727 91.049218 
L 205.003298 92.726365 
M 192.927837 93.397224 
L 215.904755 93.061794 
M 197.456135 78.973758 
L 200.642715 78.973758 
Q 200.69862 78.973758 207.854448 78.638328 
L 212.047316 78.135184 
M 189.964877 76.234417 
L 189.964877 79.756426 
Q 189.964877 79.812331 190.300307 84.117009 
L 190.468021 95.353896 
M 191.865644 69.525828 
Q 192.983742 69.358113 199.468712 69.190399 
Q 205.953681 69.022684 208.189877 67.960491 
L 210.034739 67.625061 
M 199.580521 63.488098 
Q 199.021472 68.799064 195.359701 74.305698 
Q 191.697929 79.812331 186.890107 82.719387 
L 185.045245 83.55796 
" clip-path="url(#p73d9e2fbe4)" style="fill: none; stroke: #000000; stroke-linejoin: miter"/>
   </g>
  </g>
  <g id="axes_7">
   <g id="patch_8">
    <path d="M 243.116687 87.07111 
L 243.379232 87.07111 
Q 246.179712 89.171471 247.317407 91.403103 
M 235.109064 88.777653 
Q 235.721669 88.777653 236.57494 89.609046 
Q 237.428211 90.440438 237.865786 90.615468 
L 238.390876 91.271831 
M 227.495258 88.908926 
Q 231.783493 94.334856 241.803962 94.641158 
Q 242.197779 94.641158 242.482203 94.553643 
Q 242.766627 94.466128 243.072929 94.334856 
Q 243.379232 94.203583 243.641777 94.116068 
L 241.628932 91.578133 
M 225.394898 88.777653 
Q 225.394898 88.821411 225.394898 88.974562 
Q 225.394898 89.127713 225.263625 89.171471 
L 222.90072 92.715828 
M 231.170888 83.92057 
L 231.170888 83.658025 
Q 231.170888 83.526753 231.477191 83.417359 
Q 231.783493 83.307965 232.242947 83.242329 
Q 232.702401 83.176693 233.139976 83.132935 
Q 233.577551 83.089178 233.927611 83.04542 
Q 234.277671 83.001663 234.321429 83.001663 
L 239.703601 82.87039 
M 229.726891 86.939838 
L 240.359964 86.939838 
M 229.726891 80.113667 
L 230.383253 80.113667 
Q 230.995858 80.113667 233.883854 79.89488 
Q 236.771849 79.676092 239.419178 79.435426 
Q 242.066507 79.19476 242.066507 79.151002 
Q 242.066507 82.52033 240.885054 85.102023 
L 240.228691 87.202383 
M 229.726891 79.71985 
Q 230.820828 81.776453 230.777071 84.44566 
L 231.170888 86.283475 
M 220.887875 77.925792 
L 222.463145 77.925792 
Q 225.919988 77.925792 229.836285 77.663247 
Q 233.752581 77.400702 238.544028 76.963127 
Q 243.335474 76.525552 245.960924 76.350522 
L 252.962125 76.21925 
M 238.740936 72.893679 
Q 238.784694 73.41877 238.456513 73.921981 
Q 238.128331 74.425192 238.084574 74.906525 
Q 238.172089 75.256585 237.997059 75.628523 
Q 237.822029 76.000462 237.822029 76.087977 
M 229.945678 72.893679 
L 230.208223 72.893679 
Q 230.908343 72.893679 232.308583 74.775252 
L 233.358764 76.481795 
M 234.802761 69.393079 
L 237.428211 70.968349 
L 237.690756 71.230894 
M 227.714046 72.762407 
L 231.914766 72.368589 
L 243.072929 72.106044 
" clip-path="url(#p6b3a82a07b)" style="fill: none; stroke: #000000; stroke-linejoin: miter"/>
   </g>
  </g>
  <g id="axes_8">
   <g id="patch_9">
    <path d="M 274.429397 94.597386 
Q 274.429397 94.597386 272.65801 94.597386 
Q 270.380514 94.597386 268.98871 96.326597 
Q 267.596907 98.055807 267.596907 100.417655 
Q 267.512555 102.779503 269.157414 104.086955 
Q 270.802272 105.394407 273.164121 104.972648 
Q 273.838934 104.888297 274.935507 104.803945 
Q 276.032079 104.719593 276.622541 104.635241 
Q 277.213003 104.55089 277.929993 104.213483 
Q 278.646983 103.876076 278.942214 103.074734 
Q 279.237445 102.273393 279.237445 100.923766 
Q 279.237445 100.333303 278.98439 99.742841 
Q 278.731334 99.152379 278.309576 98.43539 
Q 277.887817 97.7184 277.719114 97.380993 
L 275.188562 95.862662 
" clip-path="url(#pf05cfd1454)" style="fill: none; stroke: #000000; stroke-linejoin: miter"/>
   </g>
  </g>
 </g>
 <defs>
  <clipPath id="pa9ac2cd3fc">
   <rect x="0" y="46.408389" width="36.45" height="68.373221"/>
  </clipPath>
  <clipPath id="p84964c64d5">
   <rect x="36.45" y="36.255654" width="36.45" height="88.678691"/>
  </clipPath>
  <clipPath id="pef4d99ec2a">
   <rect x="72.9" y="34.47589" width="36.45" height="92.23822"/>
  </clipPath>
  <clipPath id="pd98e0eac87">
   <rect x="109.35" y="51.199839" width="36.45" height="58.790323"/>
  </clipPath>
  <clipPath id="pcbb9ba798b">
   <rect x="145.8" y="43.942781" width="36.45" height="73.304438"/>
  </clipPath>
  <clipPath id="p73d9e2fbe4">
   <rect x="182.25" y="40.063942" width="36.45" height="81.062117"/>
  </clipPath>
  <clipPath id="p6b3a82a07b">
   <rect x="218.7" y="48.87081" width="36.45" height="63.448379"/>
  </clipPath>
  <clipPath id="pf05cfd1454">
   <rect x="263.294969" y="19.44" width="20.160062" height="122.31"/>
  </clipPath>
 </defs>
</svg>
