<?xml version="1.0" encoding="utf-8" standalone="no"?>
<!DOCTYPE svg PUBLIC "-//W3C//DTD SVG 1.1//EN"
  "http://www.w3.org/Graphics/SVG/1.1/DTD/svg11.dtd">
<svg xmlns:xlink="http://www.w3.org/1999/xlink" width="252pt" height="72pt" viewBox="0 0 252 72" xmlns="http://www.w3.org/2000/svg" version="1.1">
 <metadata>
  <rdf:RDF xmlns:dc="http://purl.org/dc/elements/1.1/" xmlns:cc="http://creativecommons.org/ns#" xmlns:rdf="http://www.w3.org/1999/02/22-rdf-syntax-ns#">
   <cc:Work>
    <dc:type rdf:resource="http://purl.org/dc/dcmitype/StillImage"/>
    <dc:date>2023-01-29T20:25:16.925310</dc:date>
    <dc:format>image/svg+xml</dc:format>
    <dc:creator>
     <cc:Agent>
      <dc:title>Matplotlib v3.6.1, https://matplotlib.org/</dc:title>
     </cc:Agent>
    </dc:creator>
   </cc:Work>
  </rdf:RDF>
 </metadata>
 <defs>
  <style type="text/css">*{stroke-linejoin: round; stroke-linecap: butt}</style>
 </defs>
 <g id="figure_1">
  <g id="patch_1">
   <path d="M 0 72 
L 252 72 
L 252 0 
L 0 0 
z
" style="fill: #8fff9f"/>
  </g>
  <g id="axes_1">
   <g id="patch_2">
    <path d="M 13.12529 42.230731 
L 16.686807 45.042455 
L 20.6982 47.179366 
L 24.447166 48.079117 
M 13.05031 40.281269 
L 16.3494 40.1688 
Q 16.686807 40.093821 17.249152 39.962607 
Q 17.811497 39.831393 18.242628 39.718924 
Q 18.673759 39.606455 19.217359 39.531476 
Q 19.760959 39.456497 20.210834 39.456497 
Q 20.360793 39.456497 20.285814 39.718924 
Q 19.948407 40.993572 19.217359 42.118262 
Q 18.48631 43.242952 17.792752 43.917766 
Q 17.099193 44.592579 16.068228 45.529821 
Q 15.037262 46.467062 14.549897 47.029407 
L 10.763441 48.716441 
M 10.238586 34.395393 
L 13.275248 34.395393 
Q 14.249979 34.245434 14.249979 34.170455 
Q 14.249979 34.170455 14.437428 34.170455 
Q 14.662366 34.170455 14.849814 34.170455 
L 16.761786 34.170455 
L 24.409676 33.495641 
M 13.387717 37.319586 
L 16.199441 37.094648 
L 19.910917 36.86971 
L 20.473262 36.757241 
M 19.798448 30.871366 
L 19.461041 36.082428 
M 12.375497 31.546179 
L 12.375497 31.771117 
Q 12.375497 31.808607 12.600434 32.220993 
L 13.837593 35.745021 
L 13.950062 36.532303 
M 14.624876 25.022979 
Q 14.887303 25.397876 15.8058 25.960221 
Q 16.724297 26.522566 17.024214 26.972441 
M 9.038917 29.33429 
L 9.263855 29.33429 
Q 10.238586 28.996883 12.225538 28.996883 
Q 12.862862 28.996883 14.306214 28.884414 
Q 15.749566 28.771945 16.499359 28.771945 
Q 16.986724 28.771945 18.317607 28.79069 
Q 19.64849 28.809434 20.585731 28.734455 
Q 21.522972 28.659476 22.347745 28.434538 
Q 22.610172 28.509517 23.003814 28.359559 
Q 23.397455 28.2096 23.584903 28.2096 
M 9.038917 29.671697 
Q 9.001428 30.121572 9.038917 32.820828 
Q 9.038917 35.332634 8.607786 37.188372 
Q 8.176655 39.04411 7.426862 41.162276 
Q 6.677069 43.280441 6.264683 45.229903 
L 3.902834 48.603972 
" clip-path="url(#p77649fb3d5)" style="fill: none; stroke: #000000; stroke-linejoin: miter"/>
   </g>
  </g>
  <g id="axes_2">
   <g id="patch_3">
    <path d="M 34.849756 28.07561 
Q 34.815183 27.97189 34.849756 27.954604 
Q 34.884329 27.937317 35.005335 27.954604 
Q 35.126341 27.97189 35.160915 27.97189 
Q 35.4375 27.97189 35.714085 28.179329 
Q 35.990671 28.386768 36.267256 28.7325 
Q 36.543841 29.078232 36.716707 29.216524 
L 37.408171 30.288293 
M 30.078659 45.569634 
L 32.567927 44.325 
L 34.538598 43.598963 
L 36.19811 43.253232 
Q 37.235305 43.633537 39.326982 44.497866 
Q 41.418659 45.362195 42.334848 45.673354 
Q 43.251037 45.984512 45.014268 46.295671 
Q 46.7775 46.606829 48.748171 46.606829 
Q 49.6125 46.606829 50.32125 46.364817 
Q 51.03 46.122805 51.894329 45.69064 
Q 52.758659 45.258476 53.415549 45.051037 
L 54.971341 44.013841 
M 31.185 34.229634 
L 31.599878 34.229634 
Q 32.153049 34.4025 34.711463 33.572744 
Q 36.440122 33.019573 36.440122 33.399878 
Q 36.440122 33.64189 36.059817 34.125915 
Q 35.022622 35.439695 35.022622 36.926341 
Q 35.022622 37.514085 35.074482 38.101829 
Q 35.126341 38.689573 35.143628 39.035305 
Q 35.160915 39.381037 35.316494 40.107073 
Q 35.472073 40.83311 35.506646 41.005976 
Q 35.54122 41.178841 35.748659 42.09503 
Q 35.956098 43.01122 35.990671 43.149512 
M 41.453232 34.437073 
Q 41.937256 34.713659 42.334848 35.024817 
Q 42.732439 35.335976 42.957165 35.577988 
Q 43.18189 35.82 43.596768 36.286738 
Q 44.011646 36.753476 44.288232 37.064634 
M 46.950366 26.485244 
L 46.950366 27.003841 
Q 47.261524 28.559634 47.468963 30.305579 
Q 47.676402 32.051524 47.745549 33.175152 
Q 47.814695 34.29878 47.901128 36.494177 
Q 47.987561 38.689573 48.056707 39.657622 
Q 48.195 42.043171 47.503537 43.080366 
Q 46.88122 44.013841 45.913171 42.458049 
L 45.429146 41.524573 
M 40.761768 32.708415 
L 52.862378 31.360061 
" clip-path="url(#pd8fa5858b4)" style="fill: none; stroke: #000000; stroke-linejoin: miter"/>
   </g>
  </g>
  <g id="axes_3">
   <g id="patch_4">
    <path d="M 70.987469 31.921076 
L 70.987469 32.258483 
Q 70.987469 32.633379 70.875 33.420662 
Q 70.762531 34.207945 70.762531 34.620331 
Q 70.687552 36.794731 71.399855 40.74989 
Q 72.112159 44.705048 72.224628 45.64229 
Q 72.449566 47.74171 72.449566 47.7792 
Q 72.449566 48.004138 72.393331 48.060372 
Q 72.337097 48.116607 72.112159 48.116607 
Q 71.737262 48.116607 71.081193 47.704221 
Q 70.425124 47.291834 69.675331 46.692 
Q 68.925538 46.092166 68.73809 45.979697 
L 67.163524 45.192414 
M 62.664766 29.446759 
L 64.576738 29.446759 
Q 67.051055 29.446759 71.849731 28.547007 
Q 76.648407 27.647255 79.085234 27.647255 
Q 78.335441 28.322069 75.467483 30.159062 
Q 72.599524 31.996055 71.437345 33.270703 
" clip-path="url(#p525045c9fb)" style="fill: none; stroke: #000000; stroke-linejoin: miter"/>
   </g>
  </g>
  <g id="axes_4">
   <g id="patch_5">
    <path d="M 104.682654 41.482549 
Q 104.645401 41.59431 104.664028 41.59431 
Q 104.682654 41.59431 104.775788 41.59431 
Q 104.868922 41.59431 104.906176 41.59431 
Q 105.129698 41.59431 105.502234 40.793357 
Q 105.87477 39.992405 106.247306 39.023811 
Q 106.619842 38.055217 106.731603 37.906202 
L 108.408016 34.88866 
M 97.641721 37.459159 
Q 97.790736 37.719934 98.312286 38.055217 
Q 98.833837 38.390499 99.541656 38.781662 
Q 100.249474 39.172825 100.547503 39.359093 
Q 102.931735 40.998252 106.061038 42.600158 
L 111.537319 46.064744 
M 97.194678 32.653443 
L 97.4182 32.653443 
Q 98.088765 32.653443 98.908344 32.355414 
Q 99.727924 32.057385 100.286728 31.982878 
L 102.186662 31.424074 
M 97.4182 37.16113 
Q 102.484691 36.080775 102.745466 36.043522 
Q 103.974836 35.82 104.198357 35.708239 
M 97.082917 27.512444 
Q 97.977004 27.586951 99.113239 26.972267 
Q 100.249474 26.357582 101.180815 26.357582 
Q 101.665112 26.357582 102.093528 26.301702 
Q 102.521945 26.245821 103.024869 26.152687 
Q 103.527792 26.059553 103.863075 26.0223 
L 103.863075 34.553377 
L 103.751314 36.118029 
M 96.747635 26.95364 
L 96.747635 27.400683 
Q 97.231932 29.039842 97.194678 31.908371 
Q 97.157424 34.776899 97.306439 36.453311 
Q 97.492707 37.608173 97.492707 39.005184 
Q 97.492707 40.402194 97.399573 42.134488 
Q 97.306439 43.866781 97.306439 44.723614 
Q 97.343693 45.766715 97.082917 47.629396 
Q 96.896649 48.337214 97.194678 48.523482 
Q 97.492707 48.70975 97.977004 48.076439 
Q 98.647569 47.182352 100.994547 45.729461 
L 101.44159 45.50594 
M 91.047832 36.22979 
L 91.047832 47.629396 
M 93.618331 30.641748 
Q 93.581078 30.790762 93.618331 30.97703 
Q 93.618331 32.355414 92.649737 33.864185 
Q 91.681143 35.372957 90.190999 37.067996 
Q 88.700854 38.763035 88.253811 39.470854 
L 86.912681 40.25318 
M 93.059527 26.730118 
Q 91.122339 29.486886 89.706702 31.088791 
L 88.477332 31.759356 
" clip-path="url(#p2fc6c083ce)" style="fill: none; stroke: #000000; stroke-linejoin: miter"/>
   </g>
  </g>
  <g id="axes_5">
   <g id="patch_6">
    <path d="M 124.463359 39.156579 
Q 125.025703 39.493986 125.962945 40.468717 
Q 126.900186 41.443448 127.237593 41.705876 
M 128.512241 34.995228 
L 129.861869 34.995228 
Q 129.861869 34.995228 134.473097 34.882759 
Q 134.473097 36.682262 132.786062 38.481766 
Q 131.099028 40.281269 129.037097 41.480938 
Q 126.975166 42.680607 124.519593 44.048979 
Q 122.064021 45.417352 121.239248 46.092166 
L 120.676903 46.204634 
M 130.761621 33.420662 
Q 129.074586 35.595062 124.800766 37.919421 
L 122.663855 38.594234 
M 124.650807 29.971614 
Q 125.063193 30.121572 125.43809 30.440234 
Q 125.812986 30.758897 126.225372 31.208772 
Q 126.637759 31.658648 126.900186 31.883586 
L 127.237593 32.5584 
M 127.799938 24.91051 
L 128.924628 24.91051 
Q 129.674421 24.91051 131.211497 24.741807 
Q 132.748572 24.573103 133.535855 24.573103 
Q 134.13569 24.460634 133.385897 25.510345 
Q 133.310917 25.585324 133.198448 25.735283 
Q 133.123469 25.885241 133.085979 25.922731 
Q 131.398945 28.472028 129.674421 30.046593 
Q 127.949897 31.621159 126.094159 32.783338 
Q 124.238421 33.945517 123.526117 34.582841 
L 122.963772 34.920248 
M 129.71191 23.223476 
L 127.237593 25.472855 
L 123.076241 28.846924 
L 122.401428 29.184331 
" clip-path="url(#pd587a28aaa)" style="fill: none; stroke: #000000; stroke-linejoin: miter"/>
   </g>
  </g>
  <g id="axes_6">
   <g id="patch_7">
    <path d="M 155.400145 34.432883 
Q 155.700062 34.395393 156.281152 34.751545 
Q 156.862241 35.107697 157.087179 35.107697 
L 159.898903 37.244607 
M 161.923345 25.547834 
L 161.923345 26.222648 
Q 161.923345 29.671697 162.48569 36.607283 
Q 163.048034 43.542869 163.048034 47.029407 
Q 163.048034 48.191586 162.785607 48.191586 
Q 162.748117 48.191586 162.635648 48.154097 
Q 162.523179 48.116607 162.48569 48.154097 
L 159.861414 45.492331 
M 154.425414 30.721407 
L 154.987759 30.721407 
Q 156.674793 30.721407 160.986103 30.102828 
Q 165.297414 29.484248 166.572062 29.409269 
M 145.502876 35.894979 
L 145.952752 35.894979 
Q 146.665055 35.894979 148.764476 35.651297 
Q 150.863897 35.407614 151.838628 35.482593 
M 146.402628 43.655338 
L 152.475952 43.655338 
M 145.277938 28.584497 
L 146.515097 28.584497 
Q 147.489828 28.584497 149.383055 28.359559 
Q 151.276283 28.134621 152.251014 28.134621 
Q 152.888338 28.134621 153.019552 31.50869 
Q 153.150766 34.882759 153.038297 39.6252 
Q 152.925828 44.367641 152.925828 44.967476 
M 145.840283 28.134621 
Q 145.840283 28.17211 145.840283 33.758069 
L 145.840283 38.144359 
L 146.065221 41.968303 
L 146.290159 43.542869 
" clip-path="url(#pa9cfd05d77)" style="fill: none; stroke: #000000; stroke-linejoin: miter"/>
   </g>
  </g>
  <g id="axes_7">
   <g id="patch_8">
    <path d="M 183.562697 36.569793 
Q 183.450228 36.569793 183.412738 36.663517 
Q 183.375248 36.757241 183.450228 36.9072 
Q 183.487717 37.094648 183.450228 37.132138 
L 183.112821 39.718924 
L 182.887883 42.418179 
L 183.375248 45.454841 
Q 183.825124 46.916938 186.636848 47.479283 
Q 187.461621 47.74171 188.848738 47.685476 
Q 190.235855 47.629241 191.041883 47.516772 
Q 191.84791 47.404303 193.122559 47.19811 
Q 194.397207 46.991917 195.034531 46.916938 
L 195.596876 44.442621 
L 195.934283 43.542869 
M 179.96369 36.9072 
Q 179.851221 37.132138 178.988959 38.837917 
Q 178.126697 40.543697 177.658076 41.312234 
Q 177.189455 42.080772 176.345938 43.411655 
Q 175.502421 44.742538 174.658903 45.548566 
Q 173.815386 46.354593 172.953124 46.804469 
L 172.615717 47.141876 
M 188.6238 27.684745 
Q 188.211414 27.834703 187.836517 28.509517 
Q 187.461621 29.184331 187.161703 29.371779 
L 185.024793 32.071034 
L 184.462448 32.858317 
M 175.239993 29.25931 
Q 175.352462 29.371779 176.064766 29.80291 
Q 176.777069 30.234041 177.039497 30.608938 
L 178.501593 32.295972 
M 173.215552 35.78251 
L 180.863441 35.632552 
L 191.772931 34.995228 
M 182.213069 25.772772 
L 181.988131 35.220166 
" clip-path="url(#p21e38d7b16)" style="fill: none; stroke: #000000; stroke-linejoin: miter"/>
   </g>
  </g>
  <g id="axes_8">
   <g id="patch_9">
    <path d="M 213.093621 42.043283 
Q 213.093621 42.043283 212.306338 42.043283 
Q 211.294117 42.043283 210.675538 42.811821 
Q 210.056959 43.580359 210.056959 44.630069 
Q 210.019469 45.679779 210.750517 46.260869 
Q 211.481566 46.841959 212.531276 46.65451 
Q 212.831193 46.617021 213.318559 46.579531 
Q 213.805924 46.542041 214.068352 46.504552 
Q 214.330779 46.467062 214.649441 46.317103 
Q 214.968103 46.167145 215.099317 45.810993 
Q 215.230531 45.454841 215.230531 44.855007 
Q 215.230531 44.592579 215.118062 44.330152 
Q 215.005593 44.067724 214.818145 43.749062 
Q 214.630697 43.4304 214.555717 43.280441 
L 213.431028 42.605628 
" clip-path="url(#p7025d27621)" style="fill: none; stroke: #000000; stroke-linejoin: miter"/>
   </g>
  </g>
 </g>
 <defs>
  <clipPath id="p77649fb3d5">
   <rect x="2.028352" y="8.64" width="24.293297" height="54.36"/>
  </clipPath>
  <clipPath id="pd8fa5858b4">
   <rect x="28.35" y="10.754451" width="28.35" height="50.131098"/>
  </clipPath>
  <clipPath id="p525045c9fb">
   <rect x="60.790283" y="8.64" width="20.169434" height="54.36"/>
  </clipPath>
  <clipPath id="p2fc6c083ce">
   <rect x="85.05" y="8.81113" width="28.35" height="54.01774"/>
  </clipPath>
  <clipPath id="pd587a28aaa">
   <rect x="118.802421" y="8.64" width="17.545159" height="54.36"/>
  </clipPath>
  <clipPath id="pa9cfd05d77">
   <rect x="143.403455" y="8.64" width="25.04309" height="54.36"/>
  </clipPath>
  <clipPath id="p21e38d7b16">
   <rect x="170.741234" y="8.64" width="27.067531" height="54.36"/>
  </clipPath>
  <clipPath id="p7025d27621">
   <rect x="208.144986" y="8.64" width="8.960028" height="54.36"/>
  </clipPath>
 </defs>
</svg>
