<?xml version="1.0" encoding="utf-8" standalone="no"?>
<!DOCTYPE svg PUBLIC "-//W3C//DTD SVG 1.1//EN"
  "http://www.w3.org/Graphics/SVG/1.1/DTD/svg11.dtd">
<svg xmlns:xlink="http://www.w3.org/1999/xlink" width="157.5pt" height="72pt" viewBox="0 0 157.5 72" xmlns="http://www.w3.org/2000/svg" version="1.1">
 <metadata>
  <rdf:RDF xmlns:dc="http://purl.org/dc/elements/1.1/" xmlns:cc="http://creativecommons.org/ns#" xmlns:rdf="http://www.w3.org/1999/02/22-rdf-syntax-ns#">
   <cc:Work>
    <dc:type rdf:resource="http://purl.org/dc/dcmitype/StillImage"/>
    <dc:date>2023-01-29T20:25:14.494373</dc:date>
    <dc:format>image/svg+xml</dc:format>
    <dc:creator>
     <cc:Agent>
      <dc:title>Matplotlib v3.6.1, https://matplotlib.org/</dc:title>
     </cc:Agent>
    </dc:creator>
   </cc:Work>
  </rdf:RDF>
 </metadata>
 <defs>
  <style type="text/css">*{stroke-linejoin: round; stroke-linecap: butt}</style>
 </defs>
 <g id="figure_1">
  <g id="patch_1">
   <path d="M 0 72 
L 157.5 72 
L 157.5 0 
L 0 0 
z
" style="fill: #8fff9f"/>
  </g>
  <g id="axes_1">
   <g id="patch_2">
    <path d="M 16.874255 30.571448 
Q 16.874255 30.571448 16.874255 32.708359 
Q 16.874255 34.207945 16.967979 35.894979 
Q 17.061703 37.582014 17.211662 39.643945 
Q 17.361621 41.705876 17.4366 42.830566 
L 17.211662 43.955255 
M 9.113897 44.405131 
L 24.522145 44.180193 
M 12.150559 34.7328 
L 14.287469 34.7328 
Q 14.324959 34.7328 19.123634 34.507862 
L 21.935359 34.170455 
M 7.126945 32.895807 
L 7.126945 35.257655 
Q 7.126945 35.295145 7.351883 38.181848 
L 7.464352 45.717269 
M 8.401593 28.397048 
Q 9.151386 28.284579 13.500186 28.17211 
Q 17.848986 28.059641 19.348572 27.347338 
L 20.585731 27.1224 
M 13.575166 24.348166 
Q 13.200269 27.909683 10.744697 31.602414 
Q 8.289124 35.295145 5.065014 37.244607 
L 3.827855 37.806952 
" clip-path="url(#pd9bae9ec0f)" style="fill: none; stroke: #000000; stroke-linejoin: miter"/>
   </g>
  </g>
  <g id="axes_2">
   <g id="patch_3">
    <path d="M 44.436972 42.980524 
Q 44.6994 43.242952 45.336724 43.711572 
Q 45.974048 44.180193 46.236476 44.442621 
L 50.622766 47.366814 
M 35.776862 31.958566 
L 36.0018 31.958566 
Q 36.189248 31.958566 36.470421 32.089779 
Q 36.751593 32.220993 37.107745 32.408441 
Q 37.463897 32.59589 37.576366 32.633379 
L 40.275621 34.432883 
M 35.214517 35.332634 
Q 35.664393 35.670041 36.732848 36.082428 
Q 37.801303 36.494814 38.251179 36.794731 
L 38.813524 37.357076 
M 32.7402 39.718924 
L 33.977359 39.718924 
Q 36.526655 39.718924 39.432103 39.531476 
Q 42.337552 39.344028 45.917814 39.025366 
Q 49.498076 38.706703 51.410048 38.594234 
M 43.312283 31.396221 
Q 43.274793 31.658648 43.312283 32.745848 
Q 43.312283 35.445103 42.56249 37.544524 
Q 41.812697 39.643945 40.481814 42.080772 
Q 39.150931 44.5176 38.476117 46.354593 
L 36.451676 48.603972 
M 40.500559 24.98549 
Q 40.575538 25.022979 41.962655 25.660303 
L 42.637469 26.560055 
M 33.86489 30.046593 
L 37.12649 29.821655 
Q 38.663566 29.634207 41.850186 29.090607 
Q 45.036807 28.547007 47.623593 28.228345 
Q 50.210379 27.909683 52.3098 27.909683 
Q 51.822434 28.809434 51.522517 29.484248 
L 50.735234 31.283752 
M 34.314766 27.684745 
Q 34.014848 28.097131 34.089828 29.25931 
Q 34.127317 29.784166 33.752421 30.608938 
L 33.077607 33.083255 
" clip-path="url(#p413ecd4d01)" style="fill: none; stroke: #000000; stroke-linejoin: miter"/>
   </g>
  </g>
  <g id="axes_3">
   <g id="patch_4">
    <path d="M 70.219087 46.42392 
Q 70.875 46.241722 72.533001 46.132404 
Q 74.191003 46.023085 75.029113 45.768008 
L 83.228021 45.658689 
M 81.697558 37.022506 
Q 81.697558 37.058946 80.294634 40.356729 
Q 78.89171 43.654512 78.85527 45.330733 
L 78.527314 45.986645 
M 75.794344 38.006375 
Q 75.903663 38.188573 76.322719 38.899145 
Q 76.741774 39.609717 76.996851 39.974113 
L 78.199357 41.285938 
M 73.280013 40.192751 
L 73.607969 40.192751 
Q 73.972365 40.192751 74.39142 40.575366 
Q 74.810476 40.957982 75.229531 41.504576 
Q 75.648586 42.05117 75.794344 42.160488 
L 76.450257 43.035039 
M 73.061375 35.164087 
L 79.183226 35.054769 
M 75.466388 28.386324 
Q 76.085861 28.969357 77.142609 30.171864 
Q 78.199357 31.37437 78.81883 31.993843 
Q 79.438303 32.613316 80.549711 33.214569 
Q 81.661118 33.815823 82.972943 33.961581 
M 76.23162 27.074499 
Q 75.976542 27.438895 75.28419 28.513862 
Q 74.591838 29.58883 74.172783 30.135424 
Q 73.753728 30.682018 73.079595 31.483689 
Q 72.405463 32.28536 71.676671 32.777294 
Q 70.947879 33.269229 70.109769 33.524306 
L 69.016581 34.0709 
M 58.521979 43.435874 
Q 59.32365 43.107918 60.835893 42.415566 
Q 62.348136 41.723213 63.350225 41.322378 
Q 64.352314 40.921542 65.664139 40.520707 
L 65.263303 40.192751 
M 60.926992 29.880347 
L 60.926992 30.317622 
Q 60.963432 31.009974 60.890553 31.775206 
Q 60.817674 32.540437 60.671915 33.487866 
Q 60.526157 34.435296 60.489717 34.90901 
Q 60.453278 35.127648 60.307519 35.692461 
Q 60.161761 36.257275 60.161761 36.548792 
Q 60.088882 36.986067 60.489717 36.840308 
Q 60.599036 36.840308 60.854113 36.73099 
Q 61.327828 36.512352 61.473586 36.548792 
Q 62.093059 36.69455 63.969698 36.421253 
Q 65.846337 36.147956 67.413239 35.82 
L 69.016581 35.492044 
Q 69.016581 36.69455 68.378888 42.05117 
Q 67.741195 47.407789 67.413239 47.407789 
Q 67.048843 47.407789 66.538689 46.952294 
Q 66.028535 46.496799 65.846337 46.42392 
L 64.68027 45.54937 
M 59.39653 28.568522 
L 66.575129 27.621093 
L 65.882776 31.775206 
L 65.117545 34.94545 
" clip-path="url(#pe083c7915f)" style="fill: none; stroke: #000000; stroke-linejoin: miter"/>
   </g>
  </g>
  <g id="axes_4">
   <g id="patch_5">
    <path d="M 98.531441 38.894152 
L 98.531441 47.891669 
M 90.321207 47.366814 
Q 90.321207 47.366814 92.683055 47.366814 
Q 97.256793 47.554262 106.854145 46.804469 
Q 106.854145 46.804469 108.42871 46.804469 
M 94.595028 41.968303 
Q 94.595028 41.968303 95.269841 41.968303 
Q 95.307331 41.968303 98.981317 41.743366 
L 103.255138 41.068552 
M 100.555883 36.119917 
Q 100.930779 36.344855 101.136972 37.019669 
Q 101.343166 37.694483 101.680572 37.919421 
L 102.467855 39.493986 
M 98.194034 33.420662 
Q 97.519221 34.207945 96.46951 36.101172 
Q 95.4198 37.9944 94.707497 38.819172 
L 96.282062 38.819172 
L 101.793041 37.806952 
M 94.37009 33.195724 
L 97.744159 33.195724 
Q 98.194034 33.158234 100.162241 33.214469 
Q 102.130448 33.270703 102.580324 32.970786 
M 98.456462 25.99771 
Q 98.943828 26.335117 99.356214 26.897462 
L 100.255966 28.584497 
M 91.03351 30.721407 
Q 93.095441 30.34651 98.531441 30.102828 
Q 103.967441 29.859145 106.779166 29.034372 
Q 107.603938 28.734455 107.603938 29.109352 
Q 107.566448 29.371779 106.479248 30.833876 
Q 106.179331 31.208772 106.104352 31.396221 
M 91.708324 28.24709 
L 90.358697 31.621159 
L 90.02129 32.183503 
" clip-path="url(#p40c24114b4)" style="fill: none; stroke: #000000; stroke-linejoin: miter"/>
   </g>
  </g>
  <g id="axes_5">
   <g id="patch_6">
    <path d="M 115.23614 44.633472 
Q 116.337824 44.706917 118.467746 44.358051 
Q 120.597668 44.009184 121.40557 43.972461 
Q 123.425324 43.899016 139.91386 43.311451 
M 125.812306 25.647785 
L 126.032642 40.814301 
L 126.142811 43.641956 
M 122.286917 39.271943 
L 129.668199 39.271943 
M 121.625907 34.351088 
Q 121.736075 34.351088 122.543977 34.296004 
Q 123.351878 34.24092 123.498769 34.24092 
L 124.710622 34.24092 
L 130.549547 34.24092 
Q 130.512824 34.057306 130.549547 33.892053 
Q 130.586269 33.726801 130.678076 33.524825 
Q 130.769883 33.32285 130.769883 33.249404 
Q 131.24728 31.119482 133.634262 25.97829 
Q 133.340479 25.757953 133.303756 25.757953 
Q 131.24728 25.757953 127.115965 25.868122 
Q 122.98465 25.97829 120.964896 25.97829 
L 119.753044 25.97829 
M 122.947927 29.834184 
L 128.897021 29.834184 
M 120.083549 26.418964 
L 120.964896 33.910415 
" clip-path="url(#p1a83a99b57)" style="fill: none; stroke: #000000; stroke-linejoin: miter"/>
   </g>
  </g>
 </g>
 <defs>
  <clipPath id="pd9bae9ec0f">
   <rect x="1.953372" y="8.64" width="24.443255" height="54.36"/>
  </clipPath>
  <clipPath id="p413ecd4d01">
   <rect x="30.865717" y="8.64" width="23.318566" height="54.36"/>
  </clipPath>
  <clipPath id="pe083c7915f">
   <rect x="56.7" y="9.401298" width="28.35" height="52.837404"/>
  </clipPath>
  <clipPath id="p40c24114b4">
   <rect x="88.146807" y="8.64" width="22.156386" height="54.36"/>
  </clipPath>
  <clipPath id="p1a83a99b57">
   <rect x="113.4" y="9.195972" width="28.35" height="53.248057"/>
  </clipPath>
 </defs>
</svg>
