<?xml version="1.0" encoding="utf-8" standalone="no"?>
<!DOCTYPE svg PUBLIC "-//W3C//DTD SVG 1.1//EN"
  "http://www.w3.org/Graphics/SVG/1.1/DTD/svg11.dtd">
<svg xmlns:xlink="http://www.w3.org/1999/xlink" width="558pt" height="72pt" viewBox="0 0 558 72" xmlns="http://www.w3.org/2000/svg" version="1.1">
 <metadata>
  <rdf:RDF xmlns:dc="http://purl.org/dc/elements/1.1/" xmlns:cc="http://creativecommons.org/ns#" xmlns:rdf="http://www.w3.org/1999/02/22-rdf-syntax-ns#">
   <cc:Work>
    <dc:type rdf:resource="http://purl.org/dc/dcmitype/StillImage"/>
    <dc:date>2023-01-31T21:05:35.225508</dc:date>
    <dc:format>image/svg+xml</dc:format>
    <dc:creator>
     <cc:Agent>
      <dc:title>Matplotlib v3.6.1, https://matplotlib.org/</dc:title>
     </cc:Agent>
    </dc:creator>
   </cc:Work>
  </rdf:RDF>
 </metadata>
 <defs>
  <style type="text/css">*{stroke-linejoin: round; stroke-linecap: butt}</style>
 </defs>
 <g id="figure_1">
  <g id="patch_1">
   <path d="M 0 72 
L 558 72 
L 558 0 
L 0 0 
z
" style="fill: #8fff9f"/>
  </g>
  <g id="axes_1">
   <g id="patch_2">
    <path d="M 3.263834 37.95691 
L 3.938648 37.95691 
Q 4.650952 37.95691 5.438234 37.881931 
Q 6.225517 37.806952 7.181503 37.675738 
Q 8.13749 37.544524 8.662345 37.507034 
L 12.936166 35.82 
M 8.887283 30.42149 
L 8.887283 31.43371 
Q 8.887283 33.383172 8.212469 37.207117 
Q 7.537655 41.031062 7.537655 43.018014 
Q 7.537655 43.805297 7.537655 44.105214 
Q 7.537655 44.405131 7.631379 45.042455 
Q 7.725103 45.679779 7.912552 45.960952 
Q 8.1 46.242124 8.493641 46.485807 
Q 8.887283 46.72949 9.449628 46.72949 
Q 9.562097 46.692 9.880759 46.72949 
Q 10.199421 46.766979 10.386869 46.710745 
Q 10.574317 46.65451 10.574317 46.392083 
" clip-path="url(#p66a35bf7b2)" style="fill: none; stroke: #000000; stroke-linejoin: miter"/>
   </g>
  </g>
  <g id="axes_2">
   <g id="patch_3">
    <path d="M 20.813462 35.932469 
Q 21.413297 35.257655 22.406772 34.826524 
Q 23.400248 34.395393 24.3 34.470372 
Q 24.937324 34.470372 25.42469 34.639076 
Q 25.912055 34.807779 26.230717 34.995228 
Q 26.549379 35.182676 26.774317 35.670041 
Q 26.999255 36.157407 27.111724 36.419834 
Q 27.224193 36.682262 27.280428 37.375821 
Q 27.336662 38.069379 27.355407 38.331807 
Q 27.374152 38.594234 27.355407 39.419007 
Q 27.336662 40.243779 27.336662 40.431228 
Q 27.336662 41.368469 27.167959 43.242952 
Q 26.999255 45.117434 26.999255 46.054676 
Q 26.999255 46.467062 27.05549 46.823214 
Q 27.111724 47.179366 27.205448 47.610497 
Q 27.299172 48.041628 27.336662 48.304055 
L 27.786538 48.528993 
M 21.263338 23.111007 
Q 21.488276 24.798041 21.488276 29.971614 
L 21.488276 42.3432 
L 21.150869 46.841959 
L 20.925931 47.74171 
" clip-path="url(#p6a4ce949f4)" style="fill: none; stroke: #000000; stroke-linejoin: miter"/>
   </g>
  </g>
  <g id="axes_3">
   <g id="patch_4">
    <path d="M 34.257798 38.160826 
Q 37.230275 39.535596 41.949083 39.721376 
Q 43.472477 39.721376 44.159862 38.550963 
Q 44.847248 37.38055 44.847248 35.82 
Q 44.847248 35.299817 44.754358 34.909679 
Q 44.661468 34.519541 44.419954 34.296606 
Q 44.17844 34.07367 44.011239 33.943624 
Q 43.844037 33.813578 43.398165 33.757844 
Q 42.952294 33.70211 42.747936 33.683532 
Q 42.543578 33.664954 41.967661 33.683532 
Q 41.391743 33.70211 41.168807 33.70211 
Q 39.125229 33.70211 37.638991 35.578486 
Q 36.152752 37.454862 36.152752 39.609908 
Q 36.152752 42.619541 38.084862 44.570229 
Q 40.016972 46.520917 43.063761 46.520917 
Q 45.218807 46.818165 46.742202 44.29156 
" clip-path="url(#p80b3acaeca)" style="fill: none; stroke: #000000; stroke-linejoin: miter"/>
   </g>
  </g>
  <g id="axes_4"/>
  <g id="axes_5">
   <g id="patch_5">
    <path d="M 70.931793 37.169628 
Q 72.956234 39.194069 74.718248 41.76211 
Q 76.480262 44.330152 77.342524 46.72949 
M 73.968455 31.321241 
L 73.968455 31.546179 
Q 73.968455 32.333462 73.331131 33.514386 
Q 72.693807 34.69531 71.719076 36.101172 
Q 70.744345 37.507034 70.481917 37.95691 
L 69.244759 39.643945 
M 68.457476 26.710014 
Q 70.294469 36.269876 70.481917 48.641462 
" clip-path="url(#pfd8c81567a)" style="fill: none; stroke: #000000; stroke-linejoin: miter"/>
   </g>
  </g>
  <g id="axes_6">
   <g id="patch_6">
    <path d="M 82.857798 38.160826 
Q 85.830275 39.535596 90.549083 39.721376 
Q 92.072477 39.721376 92.759862 38.550963 
Q 93.447248 37.38055 93.447248 35.82 
Q 93.447248 35.299817 93.354358 34.909679 
Q 93.261468 34.519541 93.019954 34.296606 
Q 92.77844 34.07367 92.611239 33.943624 
Q 92.444037 33.813578 91.998165 33.757844 
Q 91.552294 33.70211 91.347936 33.683532 
Q 91.143578 33.664954 90.567661 33.683532 
Q 89.991743 33.70211 89.768807 33.70211 
Q 87.725229 33.70211 86.238991 35.578486 
Q 84.752752 37.454862 84.752752 39.609908 
Q 84.752752 42.619541 86.684862 44.570229 
Q 88.616972 46.520917 91.663761 46.520917 
Q 93.818807 46.818165 95.342202 44.29156 
" clip-path="url(#p4082da10bb)" style="fill: none; stroke: #000000; stroke-linejoin: miter"/>
   </g>
  </g>
  <g id="axes_7">
   <g id="patch_7">
    <path d="M 100.163917 36.382345 
Q 100.126428 36.494814 100.257641 36.701007 
Q 100.388855 36.9072 100.276386 37.057159 
L 100.276386 39.306538 
Q 100.276386 40.506207 100.613793 41.724621 
Q 100.9512 42.943034 101.813462 43.93651 
Q 102.675724 44.929986 103.875393 44.929986 
Q 105.112552 44.929986 105.787366 43.861531 
Q 106.462179 42.793076 106.912055 41.143531 
Q 107.361931 39.493986 107.699338 38.969131 
L 108.486621 36.382345 
L 108.261683 42.680607 
L 108.261683 45.154924 
Q 108.261683 47.066897 108.992731 51.00331 
Q 109.723779 54.939724 109.723779 56.964166 
Q 110.473572 59.213545 109.386372 60.188276 
Q 108.299172 61.163007 106.237241 60.78811 
Q 104.437738 60.488193 103.519241 60.169531 
Q 102.600745 59.850869 100.613793 58.988607 
L 100.501324 58.426262 
" clip-path="url(#p0852971b9b)" style="fill: none; stroke: #000000; stroke-linejoin: miter"/>
   </g>
  </g>
  <g id="axes_8"/>
  <g id="axes_9">
   <g id="patch_8">
    <path d="M 132.863834 37.95691 
L 133.538648 37.95691 
Q 134.250952 37.95691 135.038234 37.881931 
Q 135.825517 37.806952 136.781503 37.675738 
Q 137.73749 37.544524 138.262345 37.507034 
L 142.536166 35.82 
M 138.487283 30.42149 
L 138.487283 31.43371 
Q 138.487283 33.383172 137.812469 37.207117 
Q 137.137655 41.031062 137.137655 43.018014 
Q 137.137655 43.805297 137.137655 44.105214 
Q 137.137655 44.405131 137.231379 45.042455 
Q 137.325103 45.679779 137.512552 45.960952 
Q 137.7 46.242124 138.093641 46.485807 
Q 138.487283 46.72949 139.049628 46.72949 
Q 139.162097 46.692 139.480759 46.72949 
Q 139.799421 46.766979 139.986869 46.710745 
Q 140.174317 46.65451 140.174317 46.392083 
" clip-path="url(#p859086a950)" style="fill: none; stroke: #000000; stroke-linejoin: miter"/>
   </g>
  </g>
  <g id="axes_10">
   <g id="patch_9">
    <path d="M 157.1616 35.032717 
Q 156.11189 34.582841 155.137159 34.69531 
Q 152.100497 35.032717 150.188524 36.701007 
Q 148.276552 38.369297 148.276552 41.330979 
Q 148.276552 43.917766 150.282248 45.6048 
Q 152.287945 47.291834 154.912221 47.291834 
Q 157.274069 47.291834 158.398759 45.361117 
Q 159.523448 43.4304 159.523448 40.881103 
Q 159.523448 39.643945 159.111062 38.706703 
Q 158.698676 37.769462 158.173821 37.300841 
Q 157.648966 36.832221 156.899172 36.119917 
Q 156.149379 35.407614 155.699503 34.69531 
L 154.462345 34.245434 
" clip-path="url(#pe659c2e979)" style="fill: none; stroke: #000000; stroke-linejoin: miter"/>
   </g>
  </g>
  <g id="axes_11"/>
  <g id="axes_12">
   <g id="patch_10">
    <path d="M 181.857476 43.917766 
Q 182.157393 44.180193 183.169614 45.154924 
Q 184.181834 46.129655 184.744179 46.560786 
Q 185.306524 46.991917 186.33749 47.385559 
Q 187.368455 47.7792 188.380676 47.629241 
Q 189.05549 47.629241 189.52411 47.404303 
Q 189.992731 47.179366 190.217669 46.879448 
Q 190.442607 46.579531 190.573821 45.979697 
Q 190.705034 45.379862 190.723779 44.967476 
Q 190.742524 44.55509 190.742524 43.805297 
Q 190.742524 42.718097 189.842772 42.043283 
Q 188.943021 41.368469 187.649628 41.031062 
Q 186.356234 40.693655 185.062841 40.300014 
Q 183.769448 39.906372 182.869697 38.987876 
Q 181.969945 38.069379 181.969945 36.607283 
Q 181.969945 36.082428 182.138648 35.726276 
Q 182.307352 35.370124 182.700993 35.145186 
Q 183.094634 34.920248 183.375807 34.807779 
Q 183.656979 34.69531 184.313048 34.639076 
Q 184.969117 34.582841 185.156566 34.582841 
Q 185.344014 34.582841 186.018828 34.582841 
Q 187.218497 34.582841 187.799586 34.995228 
Q 188.380676 35.407614 188.699338 36.026193 
Q 189.018 36.644772 189.280428 36.832221 
" clip-path="url(#p471b6b57bb)" style="fill: none; stroke: #000000; stroke-linejoin: miter"/>
   </g>
  </g>
  <g id="axes_13">
   <g id="patch_11">
    <path d="M 197.888772 35.145186 
Q 197.888772 35.145186 197.888772 35.595062 
Q 197.888772 36.269876 197.776303 37.619503 
Q 197.663834 38.969131 197.663834 39.643945 
Q 197.663834 41.930814 198.900993 43.599103 
Q 200.138152 45.267393 202.275062 45.267393 
Q 203.662179 45.154924 204.430717 43.917766 
Q 205.199255 42.680607 205.349214 41.237255 
Q 205.499172 39.793903 205.7616 37.9944 
Q 206.024028 36.194897 206.436414 35.370124 
Q 206.586372 35.070207 206.586372 35.670041 
Q 206.586372 36.269876 206.323945 38.706703 
Q 206.099007 41.031062 206.099007 41.555917 
Q 205.949048 42.643117 206.286455 43.767807 
Q 206.623862 44.892497 207.336166 45.6048 
" clip-path="url(#p8052785f8a)" style="fill: none; stroke: #000000; stroke-linejoin: miter"/>
   </g>
  </g>
  <g id="axes_14">
   <g id="patch_12">
    <path d="M 223.956735 34.365306 
Q 223.956735 34.365306 223.460816 34.365306 
Q 222.667347 34.365306 221.179592 34.067755 
Q 219.691837 33.770204 218.898367 33.770204 
Q 216.121224 33.770204 214.187143 35.224898 
Q 212.253061 36.679592 212.253061 39.423673 
Q 212.253061 40.94449 213.740816 42.399184 
Q 215.228571 43.853878 217.162653 44.663878 
Q 219.096735 45.473878 220.58449 45.473878 
Q 221.510204 45.473878 222.20449 45.110204 
Q 222.898776 44.746531 223.642653 44.118367 
Q 224.386531 43.490204 224.948571 43.192653 
L 225.146939 42.696735 
" clip-path="url(#p45ea0e5db7)" style="fill: none; stroke: #000000; stroke-linejoin: miter"/>
   </g>
  </g>
  <g id="axes_15">
   <g id="patch_13">
    <path d="M 240.156735 34.365306 
Q 240.156735 34.365306 239.660816 34.365306 
Q 238.867347 34.365306 237.379592 34.067755 
Q 235.891837 33.770204 235.098367 33.770204 
Q 232.321224 33.770204 230.387143 35.224898 
Q 228.453061 36.679592 228.453061 39.423673 
Q 228.453061 40.94449 229.940816 42.399184 
Q 231.428571 43.853878 233.362653 44.663878 
Q 235.296735 45.473878 236.78449 45.473878 
Q 237.710204 45.473878 238.40449 45.110204 
Q 239.098776 44.746531 239.842653 44.118367 
Q 240.586531 43.490204 241.148571 43.192653 
L 241.346939 42.696735 
" clip-path="url(#p728cadefe3)" style="fill: none; stroke: #000000; stroke-linejoin: miter"/>
   </g>
  </g>
  <g id="axes_16">
   <g id="patch_14">
    <path d="M 244.857798 38.160826 
Q 247.830275 39.535596 252.549083 39.721376 
Q 254.072477 39.721376 254.759862 38.550963 
Q 255.447248 37.38055 255.447248 35.82 
Q 255.447248 35.299817 255.354358 34.909679 
Q 255.261468 34.519541 255.019954 34.296606 
Q 254.77844 34.07367 254.611239 33.943624 
Q 254.444037 33.813578 253.998165 33.757844 
Q 253.552294 33.70211 253.347936 33.683532 
Q 253.143578 33.664954 252.567661 33.683532 
Q 251.991743 33.70211 251.768807 33.70211 
Q 249.725229 33.70211 248.238991 35.578486 
Q 246.752752 37.454862 246.752752 39.609908 
Q 246.752752 42.619541 248.684862 44.570229 
Q 250.616972 46.520917 253.663761 46.520917 
Q 255.818807 46.818165 257.342202 44.29156 
" clip-path="url(#pcddd5ae83a)" style="fill: none; stroke: #000000; stroke-linejoin: miter"/>
   </g>
  </g>
  <g id="axes_17">
   <g id="patch_15">
    <path d="M 262.857476 43.917766 
Q 263.157393 44.180193 264.169614 45.154924 
Q 265.181834 46.129655 265.744179 46.560786 
Q 266.306524 46.991917 267.33749 47.385559 
Q 268.368455 47.7792 269.380676 47.629241 
Q 270.05549 47.629241 270.52411 47.404303 
Q 270.992731 47.179366 271.217669 46.879448 
Q 271.442607 46.579531 271.573821 45.979697 
Q 271.705034 45.379862 271.723779 44.967476 
Q 271.742524 44.55509 271.742524 43.805297 
Q 271.742524 42.718097 270.842772 42.043283 
Q 269.943021 41.368469 268.649628 41.031062 
Q 267.356234 40.693655 266.062841 40.300014 
Q 264.769448 39.906372 263.869697 38.987876 
Q 262.969945 38.069379 262.969945 36.607283 
Q 262.969945 36.082428 263.138648 35.726276 
Q 263.307352 35.370124 263.700993 35.145186 
Q 264.094634 34.920248 264.375807 34.807779 
Q 264.656979 34.69531 265.313048 34.639076 
Q 265.969117 34.582841 266.156566 34.582841 
Q 266.344014 34.582841 267.018828 34.582841 
Q 268.218497 34.582841 268.799586 34.995228 
Q 269.380676 35.407614 269.699338 36.026193 
Q 270.018 36.644772 270.280428 36.832221 
" clip-path="url(#pc45a22c7ac)" style="fill: none; stroke: #000000; stroke-linejoin: miter"/>
   </g>
  </g>
  <g id="axes_18">
   <g id="patch_16">
    <path d="M 279.057476 43.917766 
Q 279.357393 44.180193 280.369614 45.154924 
Q 281.381834 46.129655 281.944179 46.560786 
Q 282.506524 46.991917 283.53749 47.385559 
Q 284.568455 47.7792 285.580676 47.629241 
Q 286.25549 47.629241 286.72411 47.404303 
Q 287.192731 47.179366 287.417669 46.879448 
Q 287.642607 46.579531 287.773821 45.979697 
Q 287.905034 45.379862 287.923779 44.967476 
Q 287.942524 44.55509 287.942524 43.805297 
Q 287.942524 42.718097 287.042772 42.043283 
Q 286.143021 41.368469 284.849628 41.031062 
Q 283.556234 40.693655 282.262841 40.300014 
Q 280.969448 39.906372 280.069697 38.987876 
Q 279.169945 38.069379 279.169945 36.607283 
Q 279.169945 36.082428 279.338648 35.726276 
Q 279.507352 35.370124 279.900993 35.145186 
Q 280.294634 34.920248 280.575807 34.807779 
Q 280.856979 34.69531 281.513048 34.639076 
Q 282.169117 34.582841 282.356566 34.582841 
Q 282.544014 34.582841 283.218828 34.582841 
Q 284.418497 34.582841 284.999586 34.995228 
Q 285.580676 35.407614 285.899338 36.026193 
Q 286.218 36.644772 286.480428 36.832221 
" clip-path="url(#pecf4612fed)" style="fill: none; stroke: #000000; stroke-linejoin: miter"/>
   </g>
  </g>
  <g id="axes_19">
   <g id="patch_17">
    <path d="M 293.384141 38.85304 
L 293.812335 38.85304 
Q 294.63304 38.85304 295.596476 38.745991 
Q 296.559912 38.638943 297.719604 38.460529 
Q 298.879295 38.282115 299.485903 38.210749 
L 306.015859 35.427489 
M 305.694714 25.793128 
Q 305.409251 25.721762 304.374449 25.275727 
Q 303.339648 24.829692 302.697357 24.93674 
Q 302.055066 24.93674 301.537665 25.150837 
Q 301.020264 25.364934 300.681278 25.793128 
Q 300.342291 26.221322 300.07467 26.685198 
Q 299.807048 27.149075 299.664317 27.862731 
Q 299.521586 28.576388 299.414537 29.129471 
Q 299.307489 29.682555 299.289648 30.50326 
Q 299.271806 31.323965 299.253965 31.77 
Q 299.236123 32.216035 299.253965 32.965374 
Q 299.271806 33.714714 299.271806 33.928811 
Q 299.271806 36.605022 299.967621 41.850396 
Q 300.663436 47.095771 300.663436 49.771982 
Q 300.59207 50.057445 300.556388 50.681894 
Q 300.520705 51.306344 300.413656 51.805903 
Q 300.306608 52.305463 300.021145 52.555242 
" clip-path="url(#p67a8acbf2e)" style="fill: none; stroke: #000000; stroke-linejoin: miter"/>
   </g>
  </g>
  <g id="axes_20">
   <g id="patch_18">
    <path d="M 311.288772 35.145186 
Q 311.288772 35.145186 311.288772 35.595062 
Q 311.288772 36.269876 311.176303 37.619503 
Q 311.063834 38.969131 311.063834 39.643945 
Q 311.063834 41.930814 312.300993 43.599103 
Q 313.538152 45.267393 315.675062 45.267393 
Q 317.062179 45.154924 317.830717 43.917766 
Q 318.599255 42.680607 318.749214 41.237255 
Q 318.899172 39.793903 319.1616 37.9944 
Q 319.424028 36.194897 319.836414 35.370124 
Q 319.986372 35.070207 319.986372 35.670041 
Q 319.986372 36.269876 319.723945 38.706703 
Q 319.499007 41.031062 319.499007 41.555917 
Q 319.349048 42.643117 319.686455 43.767807 
Q 320.023862 44.892497 320.736166 45.6048 
" clip-path="url(#p56cb4a165e)" style="fill: none; stroke: #000000; stroke-linejoin: miter"/>
   </g>
  </g>
  <g id="axes_21">
   <g id="patch_19">
    <path d="M 331.706359 28.621986 
Q 331.931297 30.34651 332.006276 32.146014 
Q 332.081255 33.945517 332.06251 36.551048 
Q 332.043766 39.156579 332.043766 40.093821 
Q 332.043766 40.13131 332.268703 45.829738 
L 332.493641 46.841959 
" clip-path="url(#p9a35a09229)" style="fill: none; stroke: #000000; stroke-linejoin: miter"/>
   </g>
  </g>
  <g id="axes_22"/>
  <g id="axes_23">
   <g id="patch_20">
    <path d="M 361.013462 32.783338 
Q 361.538317 34.507862 361.669531 36.457324 
Q 361.800745 38.406786 361.725766 40.956083 
Q 361.650786 43.505379 361.688276 44.705048 
L 361.800745 46.054676 
L 361.800745 45.829738 
Q 361.800745 44.667559 361.519572 42.30571 
Q 361.2384 39.943862 361.2384 38.744193 
Q 361.2384 36.419834 362.250621 34.882759 
Q 363.262841 33.345683 365.287283 33.345683 
Q 365.999586 33.345683 366.336993 33.626855 
Q 366.6744 33.908028 366.936828 34.432883 
Q 367.199255 34.957738 367.536662 35.257655 
L 367.986538 36.832221 
" clip-path="url(#pd910c4d4ef)" style="fill: none; stroke: #000000; stroke-linejoin: miter"/>
   </g>
  </g>
  <g id="axes_24">
   <g id="patch_21">
    <path d="M 374.457798 38.160826 
Q 377.430275 39.535596 382.149083 39.721376 
Q 383.672477 39.721376 384.359862 38.550963 
Q 385.047248 37.38055 385.047248 35.82 
Q 385.047248 35.299817 384.954358 34.909679 
Q 384.861468 34.519541 384.619954 34.296606 
Q 384.37844 34.07367 384.211239 33.943624 
Q 384.044037 33.813578 383.598165 33.757844 
Q 383.152294 33.70211 382.947936 33.683532 
Q 382.743578 33.664954 382.167661 33.683532 
Q 381.591743 33.70211 381.368807 33.70211 
Q 379.325229 33.70211 377.838991 35.578486 
Q 376.352752 37.454862 376.352752 39.609908 
Q 376.352752 42.619541 378.284862 44.570229 
Q 380.216972 46.520917 383.263761 46.520917 
Q 385.418807 46.818165 386.942202 44.29156 
" clip-path="url(#p03a1d0753d)" style="fill: none; stroke: #000000; stroke-linejoin: miter"/>
   </g>
  </g>
  <g id="axes_25">
   <g id="patch_22">
    <path d="M 392.457476 43.917766 
Q 392.757393 44.180193 393.769614 45.154924 
Q 394.781834 46.129655 395.344179 46.560786 
Q 395.906524 46.991917 396.93749 47.385559 
Q 397.968455 47.7792 398.980676 47.629241 
Q 399.65549 47.629241 400.12411 47.404303 
Q 400.592731 47.179366 400.817669 46.879448 
Q 401.042607 46.579531 401.173821 45.979697 
Q 401.305034 45.379862 401.323779 44.967476 
Q 401.342524 44.55509 401.342524 43.805297 
Q 401.342524 42.718097 400.442772 42.043283 
Q 399.543021 41.368469 398.249628 41.031062 
Q 396.956234 40.693655 395.662841 40.300014 
Q 394.369448 39.906372 393.469697 38.987876 
Q 392.569945 38.069379 392.569945 36.607283 
Q 392.569945 36.082428 392.738648 35.726276 
Q 392.907352 35.370124 393.300993 35.145186 
Q 393.694634 34.920248 393.975807 34.807779 
Q 394.256979 34.69531 394.913048 34.639076 
Q 395.569117 34.582841 395.756566 34.582841 
Q 395.944014 34.582841 396.618828 34.582841 
Q 397.818497 34.582841 398.399586 34.995228 
Q 398.980676 35.407614 399.299338 36.026193 
Q 399.618 36.644772 399.880428 36.832221 
" clip-path="url(#pd40175b6ba)" style="fill: none; stroke: #000000; stroke-linejoin: miter"/>
   </g>
  </g>
  <g id="axes_26">
   <g id="patch_23">
    <path d="M 406.857798 38.160826 
Q 409.830275 39.535596 414.549083 39.721376 
Q 416.072477 39.721376 416.759862 38.550963 
Q 417.447248 37.38055 417.447248 35.82 
Q 417.447248 35.299817 417.354358 34.909679 
Q 417.261468 34.519541 417.019954 34.296606 
Q 416.77844 34.07367 416.611239 33.943624 
Q 416.444037 33.813578 415.998165 33.757844 
Q 415.552294 33.70211 415.347936 33.683532 
Q 415.143578 33.664954 414.567661 33.683532 
Q 413.991743 33.70211 413.768807 33.70211 
Q 411.725229 33.70211 410.238991 35.578486 
Q 408.752752 37.454862 408.752752 39.609908 
Q 408.752752 42.619541 410.684862 44.570229 
Q 412.616972 46.520917 415.663761 46.520917 
Q 417.818807 46.818165 419.342202 44.29156 
" clip-path="url(#p144fe2b737)" style="fill: none; stroke: #000000; stroke-linejoin: miter"/>
   </g>
  </g>
  <g id="axes_27">
   <g id="patch_24">
    <path d="M 434.843923 36.441748 
Q 433.634968 35.094627 429.662687 35.094627 
Q 428.142857 35.094627 427.365672 35.146439 
Q 426.588486 35.198252 425.58678 35.440043 
Q 424.585075 35.681834 424.101493 36.182687 
Q 423.61791 36.683539 423.272495 37.616162 
Q 422.927079 38.548785 422.927079 39.964989 
Q 422.927079 42.037484 424.343284 43.280981 
Q 425.759488 44.524478 427.693817 44.524478 
Q 430.353518 44.524478 433.116844 38.721493 
Q 434.463966 35.854542 434.463966 35.82 
Q 434.809382 35.578209 434.843923 36.441748 
Q 434.843923 37.512537 435.258422 40.362217 
Q 435.672921 43.211898 435.672921 44.524478 
" clip-path="url(#pf3da6ae273)" style="fill: none; stroke: #000000; stroke-linejoin: miter"/>
   </g>
  </g>
  <g id="axes_28">
   <g id="patch_25">
    <path d="M 442.013462 32.783338 
Q 442.538317 34.507862 442.669531 36.457324 
Q 442.800745 38.406786 442.725766 40.956083 
Q 442.650786 43.505379 442.688276 44.705048 
L 442.800745 46.054676 
L 442.800745 45.829738 
Q 442.800745 44.667559 442.519572 42.30571 
Q 442.2384 39.943862 442.2384 38.744193 
Q 442.2384 36.419834 443.250621 34.882759 
Q 444.262841 33.345683 446.287283 33.345683 
Q 446.999586 33.345683 447.336993 33.626855 
Q 447.6744 33.908028 447.936828 34.432883 
Q 448.199255 34.957738 448.536662 35.257655 
L 448.986538 36.832221 
" clip-path="url(#p421c3e8310)" style="fill: none; stroke: #000000; stroke-linejoin: miter"/>
   </g>
  </g>
  <g id="axes_29">
   <g id="patch_26">
    <path d="M 466.956735 34.365306 
Q 466.956735 34.365306 466.460816 34.365306 
Q 465.667347 34.365306 464.179592 34.067755 
Q 462.691837 33.770204 461.898367 33.770204 
Q 459.121224 33.770204 457.187143 35.224898 
Q 455.253061 36.679592 455.253061 39.423673 
Q 455.253061 40.94449 456.740816 42.399184 
Q 458.228571 43.853878 460.162653 44.663878 
Q 462.096735 45.473878 463.58449 45.473878 
Q 464.510204 45.473878 465.20449 45.110204 
Q 465.898776 44.746531 466.642653 44.118367 
Q 467.386531 43.490204 467.948571 43.192653 
L 468.146939 42.696735 
" clip-path="url(#p8f6b6e25c0)" style="fill: none; stroke: #000000; stroke-linejoin: miter"/>
   </g>
  </g>
  <g id="axes_30">
   <g id="patch_27">
    <path d="M 474.413462 35.932469 
Q 475.013297 35.257655 476.006772 34.826524 
Q 477.000248 34.395393 477.9 34.470372 
Q 478.537324 34.470372 479.02469 34.639076 
Q 479.512055 34.807779 479.830717 34.995228 
Q 480.149379 35.182676 480.374317 35.670041 
Q 480.599255 36.157407 480.711724 36.419834 
Q 480.824193 36.682262 480.880428 37.375821 
Q 480.936662 38.069379 480.955407 38.331807 
Q 480.974152 38.594234 480.955407 39.419007 
Q 480.936662 40.243779 480.936662 40.431228 
Q 480.936662 41.368469 480.767959 43.242952 
Q 480.599255 45.117434 480.599255 46.054676 
Q 480.599255 46.467062 480.65549 46.823214 
Q 480.711724 47.179366 480.805448 47.610497 
Q 480.899172 48.041628 480.936662 48.304055 
L 481.386538 48.528993 
M 474.863338 23.111007 
Q 475.088276 24.798041 475.088276 29.971614 
L 475.088276 42.3432 
L 474.750869 46.841959 
L 474.525931 47.74171 
" clip-path="url(#p1959c4362f)" style="fill: none; stroke: #000000; stroke-linejoin: miter"/>
   </g>
  </g>
  <g id="axes_31">
   <g id="patch_28">
    <path d="M 494.025021 46.017186 
Q 493.987531 46.054676 493.912552 46.092166 
Q 493.837572 46.129655 493.837572 46.167145 
Q 493.837572 46.429572 494.1 46.429572 
Q 494.324938 46.429572 494.324938 46.129655 
Q 494.362428 45.979697 494.174979 45.904717 
Q 493.987531 45.829738 493.875062 45.904717 
" clip-path="url(#p10658b7936)" style="fill: none; stroke: #000000; stroke-linejoin: miter"/>
   </g>
  </g>
 </g>
 <defs>
  <clipPath id="p66a35bf7b2">
   <rect x="1.389352" y="8.64" width="13.421297" height="54.36"/>
  </clipPath>
  <clipPath id="p6a4ce949f4">
   <rect x="18.938979" y="8.64" width="10.722041" height="54.36"/>
  </clipPath>
  <clipPath id="p80b3acaeca">
   <rect x="32.4" y="8.881927" width="16.2" height="53.876147"/>
  </clipPath>
  <clipPath id="pfd8c81567a">
   <rect x="66.582993" y="8.64" width="12.634014" height="54.36"/>
  </clipPath>
  <clipPath id="p4082da10bb">
   <rect x="81" y="8.881927" width="16.2" height="53.876147"/>
  </clipPath>
  <clipPath id="p0852971b9b">
   <rect x="98.251945" y="8.64" width="14.09611" height="54.36"/>
  </clipPath>
  <clipPath id="p859086a950">
   <rect x="130.989352" y="8.64" width="13.421297" height="54.36"/>
  </clipPath>
  <clipPath id="pe659c2e979">
   <rect x="146.402069" y="8.64" width="14.995862" height="54.36"/>
  </clipPath>
  <clipPath id="p471b6b57bb">
   <rect x="179.982993" y="8.64" width="12.634014" height="54.36"/>
  </clipPath>
  <clipPath id="p8052785f8a">
   <rect x="195.789352" y="8.64" width="13.421297" height="54.36"/>
  </clipPath>
  <clipPath id="p45ea0e5db7">
   <rect x="210.6" y="11.850612" width="16.2" height="47.938776"/>
  </clipPath>
  <clipPath id="p728cadefe3">
   <rect x="226.8" y="11.850612" width="16.2" height="47.938776"/>
  </clipPath>
  <clipPath id="pcddd5ae83a">
   <rect x="243" y="8.881927" width="16.2" height="53.876147"/>
  </clipPath>
  <clipPath id="pc45a22c7ac">
   <rect x="260.982993" y="8.64" width="12.634014" height="54.36"/>
  </clipPath>
  <clipPath id="pecf4612fed">
   <rect x="277.182993" y="8.64" width="12.634014" height="54.36"/>
  </clipPath>
  <clipPath id="p67a8acbf2e">
   <rect x="291.6" y="9.949956" width="16.2" height="51.740088"/>
  </clipPath>
  <clipPath id="p56cb4a165e">
   <rect x="309.189352" y="8.64" width="13.421297" height="54.36"/>
  </clipPath>
  <clipPath id="p9a35a09229">
   <rect x="329.831876" y="8.64" width="4.536248" height="54.36"/>
  </clipPath>
  <clipPath id="pd910c4d4ef">
   <rect x="359.138979" y="8.64" width="10.722041" height="54.36"/>
  </clipPath>
  <clipPath id="p03a1d0753d">
   <rect x="372.6" y="8.881927" width="16.2" height="53.876147"/>
  </clipPath>
  <clipPath id="pd40175b6ba">
   <rect x="390.582993" y="8.64" width="12.634014" height="54.36"/>
  </clipPath>
  <clipPath id="p144fe2b737">
   <rect x="405" y="8.881927" width="16.2" height="53.876147"/>
  </clipPath>
  <clipPath id="pf3da6ae273">
   <rect x="421.2" y="10.777356" width="16.2" height="50.085288"/>
  </clipPath>
  <clipPath id="p421c3e8310">
   <rect x="440.138979" y="8.64" width="10.722041" height="54.36"/>
  </clipPath>
  <clipPath id="p8f6b6e25c0">
   <rect x="453.6" y="11.850612" width="16.2" height="47.938776"/>
  </clipPath>
  <clipPath id="p1959c4362f">
   <rect x="472.538979" y="8.64" width="10.722041" height="54.36"/>
  </clipPath>
  <clipPath id="p10658b7936">
   <rect x="491.96309" y="8.64" width="4.273821" height="54.36"/>
  </clipPath>
 </defs>
</svg>
