<?xml version="1.0" encoding="utf-8" standalone="no"?>
<!DOCTYPE svg PUBLIC "-//W3C//DTD SVG 1.1//EN"
  "http://www.w3.org/Graphics/SVG/1.1/DTD/svg11.dtd">
<svg xmlns:xlink="http://www.w3.org/1999/xlink" width="283.5pt" height="72pt" viewBox="0 0 283.5 72" xmlns="http://www.w3.org/2000/svg" version="1.1">
 <metadata>
  <rdf:RDF xmlns:dc="http://purl.org/dc/elements/1.1/" xmlns:cc="http://creativecommons.org/ns#" xmlns:rdf="http://www.w3.org/1999/02/22-rdf-syntax-ns#">
   <cc:Work>
    <dc:type rdf:resource="http://purl.org/dc/dcmitype/StillImage"/>
    <dc:date>2023-01-31T21:05:01.309531</dc:date>
    <dc:format>image/svg+xml</dc:format>
    <dc:creator>
     <cc:Agent>
      <dc:title>Matplotlib v3.6.1, https://matplotlib.org/</dc:title>
     </cc:Agent>
    </dc:creator>
   </cc:Work>
  </rdf:RDF>
 </metadata>
 <defs>
  <style type="text/css">*{stroke-linejoin: round; stroke-linecap: butt}</style>
 </defs>
 <g id="figure_1">
  <g id="patch_1">
   <path d="M 0 72 
L 283.5 72 
L 283.5 0 
L 0 0 
z
" style="fill: #8fff9f"/>
  </g>
  <g id="axes_1">
   <g id="patch_2">
    <path d="M 22.899355 38.146495 
Q 22.86612 38.17973 21.736108 39.392831 
Q 20.606096 40.605932 20.107562 40.971524 
L 17.216061 43.065369 
M 4.220926 40.572696 
Q 4.719461 41.00476 4.95211 41.337116 
Q 5.18476 41.669472 5.317702 41.785797 
Q 5.450645 41.902122 5.982415 42.035064 
L 7.677433 44.029203 
M 1.661782 47.153353 
Q 8.175967 46.156284 13.992204 46.006723 
Q 19.808441 45.857163 26.688218 46.023341 
M 16.418406 35.587351 
Q 16.518113 35.753529 16.501495 36.617655 
Q 16.484877 37.481782 16.518113 37.681196 
L 16.518113 40.373283 
L 16.252227 45.026272 
M 10.735111 36.684127 
L 10.735111 36.88354 
Q 10.735111 40.406518 11.167175 42.666542 
L 11.366589 45.524807 
M 8.375381 31.167011 
Q 8.674502 31.034068 9.438921 31.000832 
Q 10.203341 30.967597 10.568933 30.768183 
L 17.016647 30.33612 
M 8.175967 34.856166 
L 18.911079 34.424103 
M 8.175967 27.477855 
L 19.409613 27.245205 
L 19.409613 27.943154 
L 18.21313 34.324396 
M 7.976553 27.976389 
Q 7.943318 28.076096 7.976553 28.474924 
L 7.976553 31.765252 
L 8.375381 33.958804 
" clip-path="url(#p027e324bf7)" style="fill: none; stroke: #000000; stroke-linejoin: miter"/>
   </g>
  </g>
  <g id="axes_2">
   <g id="patch_3">
    <path d="M 45.981544 38.483758 
L 45.981544 38.769161 
Q 47.186577 40.545 49.755201 42.669664 
Q 52.323826 44.794329 54.638758 46.316477 
L 55.11443 46.792148 
M 52.19698 34.805235 
L 52.19698 35.185772 
Q 52.19698 40.608423 48.201342 44.794329 
L 45.505872 46.792148 
M 47.91594 35.185772 
L 48.296477 35.185772 
Q 49.27953 35.217483 50.421141 34.900369 
Q 51.562752 34.583255 52.355537 34.519832 
Q 53.338591 34.519832 53.78255 34.23443 
M 50.38943 28.462953 
Q 48.708725 33.631913 47.440268 36.137114 
L 45.632718 38.356913 
M 39.353859 38.991141 
Q 39.892953 38.578893 40.352768 38.51547 
Q 40.812584 38.452047 41.193121 38.531326 
Q 41.573658 38.610604 42.366443 38.388624 
Q 42.461577 38.356913 42.588423 38.309346 
Q 42.715268 38.261779 42.794547 38.245923 
Q 42.873826 38.230067 42.96896 38.198356 
Q 43.064094 38.166644 43.111661 38.198356 
Q 43.159228 38.230067 43.222651 38.277634 
Q 43.286074 38.325201 43.30193 38.452047 
Q 43.317785 38.578893 43.317785 38.769161 
Q 43.317785 42.003725 42.715268 46.950705 
L 44.586242 43.557584 
M 39.068456 38.388624 
L 39.068456 38.769161 
Q 39.068456 39.688792 38.529362 41.401208 
Q 37.990268 43.113624 37.895134 43.621007 
L 36.372987 46.189631 
M 38.117114 37.056745 
Q 38.783054 36.803054 40.289346 36.644497 
Q 41.795638 36.48594 42.493289 36.232248 
L 44.744799 35.502886 
M 41.193121 26.623691 
Q 41.161409 26.655403 41.177265 27.051795 
Q 41.193121 27.448188 41.193121 27.479899 
L 41.510235 31.190134 
L 41.256544 34.139295 
M 45.252181 29.382584 
L 44.744799 34.107584 
M 38.053691 30.714463 
Q 38.02198 31.158423 38.053691 32.90255 
Q 38.053691 32.965973 37.990268 33.187953 
Q 37.926846 33.409933 37.863423 33.631913 
Q 37.8 33.853893 37.768289 34.091728 
Q 37.736577 34.329564 37.8 34.472265 
Q 37.863423 34.614966 38.02198 34.614966 
Q 39.100168 34.614966 41.541946 33.885604 
L 44.491107 33.505067 
M 33.170134 36.105403 
Q 33.709228 41.464631 32.789597 47.236107 
M 35.738758 32.395168 
Q 33.74094 35.090638 33.265268 35.82 
L 29.93557 39.530235 
M 35.263087 27.448188 
Q 34.819128 29.192315 34.105621 30.397349 
Q 33.392114 31.602383 32.218792 32.870839 
L 31.552852 33.34651 
" clip-path="url(#pc5a314180b)" style="fill: none; stroke: #000000; stroke-linejoin: miter"/>
   </g>
  </g>
  <g id="axes_3">
   <g id="patch_4">
    <path d="M 75.779786 39.730345 
L 75.982045 42.865363 
Q 75.847206 44.651986 77.246165 45.393603 
Q 78.645125 46.13522 80.532878 46.00038 
Q 80.768847 46.00038 81.325059 45.899251 
Q 81.881272 45.798121 82.150951 45.798121 
L 82.959988 45.798121 
Q 83.094828 45.798121 83.229667 45.376748 
Q 83.364507 44.955375 83.364507 44.685696 
Q 83.364507 44.651986 83.263377 43.977788 
L 83.195957 43.269881 
M 74.431391 40.404542 
Q 74.128002 40.87648 73.53808 41.972051 
Q 72.948157 43.067622 72.594203 43.64069 
Q 72.24025 44.213757 71.481778 44.921665 
Q 70.723306 45.629572 69.813139 46.00038 
L 69.206361 46.20264 
M 72.442509 37.303234 
L 77.1956 36.797586 
Q 77.22931 36.797586 77.39786 36.814441 
Q 77.566409 36.831296 77.600119 36.696457 
M 73.251546 39.426956 
L 78.409156 39.426956 
M 71.734602 35.82 
Q 72.307669 35.651451 75.678656 35.213222 
Q 76.319144 35.213222 77.633829 34.994108 
Q 78.948514 34.774994 79.622711 34.774994 
Q 78.881094 36.797586 78.611415 37.505493 
L 78.308026 39.224697 
M 71.431213 35.617741 
L 73.251546 38.719049 
M 69.105232 34.370476 
L 69.50975 34.370476 
Q 70.015398 34.370476 70.605321 34.269346 
Q 71.195244 34.168216 71.936861 33.999667 
Q 72.678478 33.831118 73.049287 33.763698 
L 81.881272 32.786112 
M 76.791082 30.932069 
Q 76.588823 30.932069 76.521403 31.218603 
Q 76.453983 31.505137 76.285434 31.538847 
L 75.779786 33.561439 
M 72.543639 31.033199 
L 73.757194 32.954661 
M 71.026694 31.168038 
L 78.375446 30.291581 
L 79.184483 30.089322 
M 74.262842 27.898181 
L 76.285434 29.448835 
M 64.52069 34.404185 
L 64.621819 45.225054 
Q 64.722949 45.225054 65.110612 44.854245 
Q 65.498276 44.483436 65.835375 44.078918 
L 66.138763 43.708109 
L 67.756837 41.786647 
M 60.441795 39.022438 
Q 61.689061 38.247111 64.082461 37.808882 
Q 66.475862 37.370654 67.352319 37.033555 
Q 67.487158 37.033555 67.773692 36.98299 
Q 68.060226 36.932426 68.161356 36.932426 
Q 68.363615 36.865006 68.549019 36.915571 
Q 68.734423 36.966136 68.953537 36.932426 
Q 69.172652 36.898716 69.273781 36.730166 
M 61.89132 35.010963 
Q 62.160999 34.977253 62.818341 34.707574 
Q 63.475684 34.437895 63.913912 34.505315 
L 65.633115 34.100797 
L 66.846671 33.999667 
M 61.89132 31.235458 
L 66.678121 30.898359 
M 63.307134 28.10044 
L 62.093579 31.033199 
L 59.801308 34.774994 
L 58.385493 36.291938 
" clip-path="url(#p14ec575018)" style="fill: none; stroke: #000000; stroke-linejoin: miter"/>
   </g>
  </g>
  <g id="axes_4">
   <g id="patch_5">
    <path d="M 98.793869 34.807779 
L 99.018807 34.807779 
Q 99.056297 34.807779 99.693621 35.145186 
L 105.092131 37.282097 
L 105.429538 37.394566 
M 99.131276 27.722234 
L 99.131276 48.079117 
M 88.8966 27.834703 
Q 89.496434 27.797214 89.571414 27.722234 
L 109.5534 26.822483 
" clip-path="url(#p80d1ddd14d)" style="fill: none; stroke: #000000; stroke-linejoin: miter"/>
   </g>
  </g>
  <g id="axes_5">
   <g id="patch_6">
    <path d="M 131.458129 38.345612 
L 131.363419 43.175846 
Q 131.521269 43.680969 131.836971 44.059811 
Q 132.152673 44.438653 132.452589 44.691214 
Q 132.752506 44.943775 133.273413 45.117411 
Q 133.794321 45.291047 134.125807 45.385757 
Q 134.457294 45.480468 135.120267 45.512038 
Q 135.783241 45.543608 136.083157 45.559393 
Q 136.383073 45.575178 137.093402 45.559393 
Q 137.803731 45.543608 137.993151 45.543608 
Q 138.687695 45.669889 139.113892 45.306832 
Q 139.540089 44.943775 139.650585 44.454438 
Q 139.76108 43.9651 139.903146 43.223202 
Q 140.045212 42.481303 140.171492 42.134031 
M 131.363419 31.242327 
Q 131.205568 31.558029 131.173998 31.936871 
Q 131.142428 32.315713 131.173998 32.83662 
Q 131.205568 33.357528 131.173998 33.610089 
Q 130.984577 36.261982 130.605735 37.87206 
Q 130.226893 39.482138 129.279788 40.681804 
Q 128.332684 41.88147 127.196158 42.607584 
Q 126.059633 43.333697 123.881292 44.312372 
L 121.134688 44.975345 
M 126.249053 28.969276 
Q 126.627895 28.937706 127.701281 28.70093 
Q 128.774666 28.464154 129.374499 28.495724 
L 134.299443 28.495724 
Q 135.467539 28.495724 135.988447 29.316548 
Q 136.509354 30.137372 136.493569 31.510674 
Q 136.477784 32.883976 136.304148 34.304633 
Q 136.130512 35.72529 135.956876 37.335367 
Q 135.783241 38.945445 135.909521 39.82941 
M 126.533185 29.348118 
L 126.533185 32.094722 
Q 126.533185 32.757695 126.817316 37.177517 
L 127.006737 38.977016 
M 116.399165 33.79951 
Q 116.998998 34.841325 118.230234 36.056776 
Q 119.46147 37.272227 120.58221 38.471893 
Q 121.702951 39.671559 122.176503 40.776514 
L 122.934187 42.007751 
M 114.978508 30.389933 
L 115.925612 30.389933 
Q 118.103953 30.484644 120.755846 30.011091 
Q 120.787416 30.011091 121.48196 29.916381 
Q 122.176503 29.82167 122.697411 29.72696 
Q 123.218318 29.632249 123.218318 29.537539 
Q 123.249889 29.75853 123.202533 29.979521 
Q 123.155178 30.200512 123.013112 30.484644 
Q 122.871047 30.768775 122.839477 30.863486 
Q 121.987082 33.231247 120.787416 35.204382 
Q 119.587751 37.177517 117.914532 39.450568 
Q 116.241314 41.723619 115.35735 43.175846 
L 114.978508 43.554688 
" clip-path="url(#p85f9527e2f)" style="fill: none; stroke: #000000; stroke-linejoin: miter"/>
   </g>
  </g>
  <g id="axes_6">
   <g id="patch_7">
    <path d="M 158.619421 41.10843 
Q 159.389256 41.342727 160.075413 42.664835 
Q 160.76157 43.986942 161.230165 44.321653 
L 161.933058 45.024545 
M 151.690909 41.275785 
Q 151.523554 41.643967 150.93781 41.978678 
Q 150.352066 42.313388 150.184711 42.815455 
L 148.243388 44.522479 
M 155.707438 39.401405 
L 155.707438 39.602231 
Q 155.841322 40.238182 155.925 41.024752 
Q 156.008678 41.811322 156.008678 42.380331 
Q 156.008678 42.949339 156.008678 43.92 
Q 156.008678 44.890661 156.008678 45.325785 
Q 156.07562 45.827851 156.008678 46.112355 
Q 155.941736 46.39686 155.991942 46.647893 
Q 156.042149 46.898926 155.925 46.949132 
Q 155.807851 46.999339 155.791116 47.03281 
Q 155.77438 47.066281 155.556818 46.949132 
Q 155.339256 46.831983 155.188636 46.73157 
Q 155.038017 46.631157 154.669835 46.380124 
Q 154.301653 46.129091 154.000413 45.928264 
L 152.092562 45.325785 
M 149.582231 39.200579 
L 150.686777 39.200579 
L 155.607025 39.200579 
L 161.765702 38.731983 
M 152.460744 36.522893 
Q 152.628099 36.723719 153.431405 36.640041 
Q 154.234711 36.556364 154.469008 36.623306 
Q 154.803719 36.556364 155.958471 36.656777 
Q 157.113223 36.75719 157.380992 36.422479 
M 157.380992 31.77 
Q 157.581818 31.602645 158.368388 31.853678 
Q 159.154959 32.104711 159.489669 31.970826 
Q 159.958264 31.77 162.401653 31.77 
Q 162.569008 31.77 162.886983 31.719793 
Q 163.204959 31.669587 163.305372 31.669587 
Q 163.271901 31.669587 160.493802 34.079504 
L 159.790909 34.983223 
M 156.276446 32.807603 
Q 156.37686 32.941488 156.56095 33.075372 
Q 156.745041 33.209256 157.01281 33.376612 
Q 157.280579 33.543967 157.380992 33.610909 
Q 157.749174 33.878678 167.823967 40.740248 
L 168.426446 41.041488 
M 147.942149 34.213388 
Q 147.875207 34.347273 147.958884 34.43095 
Q 148.042562 34.514628 148.176446 34.598306 
Q 148.310331 34.681983 148.343802 34.715455 
L 149.347934 36.020826 
M 144.327273 36.522893 
Q 144.628512 36.556364 145.063636 36.958017 
Q 145.49876 37.359669 145.632645 37.426612 
L 146.536364 38.330331 
M 149.54876 32.506364 
L 154.268182 32.506364 
L 145.230992 40.639835 
L 143.423554 41.44314 
M 150.352066 30.397686 
L 150.352066 30.698926 
Q 150.017355 31.334876 149.39814 31.820207 
Q 148.778926 32.305537 148.544628 32.70719 
L 146.938017 33.912149 
M 154.83719 26.347686 
L 155.841322 27.117521 
Q 155.941736 27.41876 156.393595 27.636322 
Q 156.845455 27.853884 156.945868 28.02124 
M 147.03843 28.858017 
L 165.715289 28.289008 
L 164.610744 29.59438 
M 147.741322 27.217934 
L 147.741322 27.519174 
L 147.741322 27.820413 
L 146.636777 30.966694 
" clip-path="url(#p0ceaa02578)" style="fill: none; stroke: #000000; stroke-linejoin: miter"/>
   </g>
  </g>
  <g id="axes_7">
   <g id="patch_8">
    <path d="M 184.483968 45.537015 
L 192.633722 44.701143 
L 194.932371 44.492174 
M 189.499201 31.048563 
L 189.499201 43.133882 
L 189.394717 44.074238 
L 189.081265 45.328047 
M 184.483968 37.840025 
L 184.901904 37.840025 
Q 186.399509 37.840025 189.307647 37.47433 
Q 192.215786 37.108636 193.678563 37.108636 
Q 193.887531 36.760356 194.671161 37.004152 
Q 195.454791 37.247948 195.663759 36.899668 
M 183.648096 30.735111 
L 183.961548 30.735111 
L 184.692936 30.526143 
Q 184.727764 30.526143 189.185749 30.21269 
L 196.7086 30.21269 
L 196.7086 34.0786 
Q 196.673771 35.47172 196.482217 38.536585 
Q 196.290663 41.60145 196.290663 43.969754 
Q 196.290663 44.004582 196.395147 47.208759 
L 193.678563 45.954951 
M 183.961548 30.944079 
L 183.648096 43.238366 
L 183.75258 45.537015 
M 171.8414 44.596658 
L 172.363821 44.596658 
Q 173.478317 44.596658 174.801781 44.335448 
Q 176.125246 44.074238 177.70992 43.638888 
Q 179.294595 43.203538 180.095639 43.029398 
L 181.140479 42.715946 
M 180.931511 30.769939 
Q 180.304607 31.292359 179.364251 33.277555 
L 177.79699 35.193096 
Q 177.657678 35.332408 176.438698 36.499146 
Q 175.219717 37.665885 174.314189 38.658483 
Q 173.408661 39.651081 173.408661 39.999361 
Q 173.408661 39.964533 176.125246 39.267973 
L 179.782187 39.059005 
L 180.513575 38.850037 
M 178.110442 27.147826 
Q 177.518366 27.635418 176.699908 28.90664 
Q 175.88145 30.177862 175.602826 30.491314 
Q 174.732125 31.536155 174.349017 32.163059 
L 173.199693 34.043771 
L 175.498342 33.834803 
L 179.468735 33.312383 
" clip-path="url(#pc9ce9c2628)" style="fill: none; stroke: #000000; stroke-linejoin: miter"/>
   </g>
  </g>
  <g id="axes_8">
   <g id="patch_9">
    <path d="M 212.640698 30.953721 
L 213.017442 30.953721 
Q 214.336047 30.953721 215.827326 30.718256 
Q 217.318605 30.482791 219.233721 30.074651 
Q 221.148837 29.666512 221.933721 29.54093 
L 221.211628 40.937442 
L 218.574419 38.771163 
M 215.089535 26.526977 
L 215.089535 26.809535 
Q 215.089535 27.72 214.493023 28.614767 
Q 213.896512 29.509535 212.954651 30.467093 
Q 212.012791 31.424651 211.698837 31.895581 
L 210.380233 32.554884 
M 210.568605 38.363023 
L 211.039535 38.363023 
L 213.017442 38.363023 
L 216.313953 38.174651 
M 210.568605 34.156047 
L 210.851163 34.156047 
Q 211.636047 34.156047 213.158721 33.59093 
Q 214.681395 33.025814 215.466279 33.025814 
Q 215.52907 33.025814 215.59186 33.025814 
Q 215.717442 33.025814 215.764535 33.025814 
Q 215.811628 33.025814 215.827326 33.088605 
Q 215.843023 33.151395 215.843023 33.308372 
L 215.843023 34.344419 
L 215.560465 37.986279 
M 210.474419 34.156047 
L 210.474419 35.286279 
Q 210.474419 36.322326 210.709884 38.363023 
Q 210.945349 40.403721 210.945349 41.408372 
L 210.945349 42.413023 
Q 211.227907 44.704884 212.468023 45.835116 
Q 213.70814 46.965349 216.094186 47.02814 
Q 216.156977 47.02814 217.428488 47.106628 
Q 218.7 47.185116 219.814535 47.216512 
Q 220.92907 47.247907 222.247674 47.185116 
Q 223.566279 47.122326 224.351163 46.82407 
Q 225.136047 46.525814 225.136047 45.992093 
Q 225.073256 45.74093 225.151744 44.924651 
Q 225.230233 44.108372 224.97907 43.92 
M 202.280233 38.080465 
L 203.222093 38.080465 
L 206.236047 37.609535 
M 202.280233 33.182791 
L 202.845349 33.182791 
Q 202.876744 33.182791 206.612791 32.900233 
M 201.809302 28.567674 
L 208.590698 27.531628 
L 208.496512 29.792093 
L 208.30814 32.617674 
Q 207.962791 33.873488 207.915698 35.34907 
Q 207.868605 36.824651 207.931395 38.598488 
Q 207.994186 40.372326 207.931395 41.376977 
Q 207.931395 41.471163 208.009884 43.103721 
Q 208.088372 44.736279 208.009884 45.976395 
Q 207.931395 47.216512 207.554651 47.216512 
Q 207.523256 47.216512 206.895349 46.651395 
L 206.330233 46.368837 
M 202.09186 28.567674 
L 202.280233 37.232791 
L 202.09186 43.260698 
L 201.244186 45.238605 
L 200.584884 45.992093 
L 200.019767 46.557209 
" clip-path="url(#p01d2ea9a64)" style="fill: none; stroke: #000000; stroke-linejoin: miter"/>
   </g>
  </g>
  <g id="axes_9">
   <g id="patch_10">
    <path d="M 241.443621 42.043283 
Q 241.443621 42.043283 240.656338 42.043283 
Q 239.644117 42.043283 239.025538 42.811821 
Q 238.406959 43.580359 238.406959 44.630069 
Q 238.369469 45.679779 239.100517 46.260869 
Q 239.831566 46.841959 240.881276 46.65451 
Q 241.181193 46.617021 241.668559 46.579531 
Q 242.155924 46.542041 242.418352 46.504552 
Q 242.680779 46.467062 242.999441 46.317103 
Q 243.318103 46.167145 243.449317 45.810993 
Q 243.580531 45.454841 243.580531 44.855007 
Q 243.580531 44.592579 243.468062 44.330152 
Q 243.355593 44.067724 243.168145 43.749062 
Q 242.980697 43.4304 242.905717 43.280441 
L 241.781028 42.605628 
" clip-path="url(#p8ed38c8c54)" style="fill: none; stroke: #000000; stroke-linejoin: miter"/>
   </g>
  </g>
 </g>
 <defs>
  <clipPath id="p027e324bf7">
   <rect x="0" y="11.724162" width="28.35" height="48.191676"/>
  </clipPath>
  <clipPath id="pc5a314180b">
   <rect x="28.35" y="12.829228" width="28.35" height="45.981544"/>
  </clipPath>
  <clipPath id="p14ec575018">
   <rect x="56.7" y="11.380345" width="28.35" height="48.87931"/>
  </clipPath>
  <clipPath id="p80d1ddd14d">
   <rect x="87.022117" y="8.64" width="24.405766" height="54.36"/>
  </clipPath>
  <clipPath id="p85f9527e2f">
   <rect x="113.4" y="12.931637" width="28.35" height="45.776726"/>
  </clipPath>
  <clipPath id="p0ceaa02578">
   <rect x="141.75" y="11.553471" width="28.35" height="48.533058"/>
  </clipPath>
  <clipPath id="pc9ce9c2628">
   <rect x="170.1" y="10.569693" width="28.35" height="50.500614"/>
  </clipPath>
  <clipPath id="p01d2ea9a64">
   <rect x="198.45" y="13.058372" width="28.35" height="45.523256"/>
  </clipPath>
  <clipPath id="p8ed38c8c54">
   <rect x="236.494986" y="8.64" width="8.960028" height="54.36"/>
  </clipPath>
 </defs>
</svg>
