<?xml version="1.0" encoding="utf-8" standalone="no"?>
<!DOCTYPE svg PUBLIC "-//W3C//DTD SVG 1.1//EN"
  "http://www.w3.org/Graphics/SVG/1.1/DTD/svg11.dtd">
<svg xmlns:xlink="http://www.w3.org/1999/xlink" width="216pt" height="72pt" viewBox="0 0 216 72" xmlns="http://www.w3.org/2000/svg" version="1.1">
 <metadata>
  <rdf:RDF xmlns:dc="http://purl.org/dc/elements/1.1/" xmlns:cc="http://creativecommons.org/ns#" xmlns:rdf="http://www.w3.org/1999/02/22-rdf-syntax-ns#">
   <cc:Work>
    <dc:type rdf:resource="http://purl.org/dc/dcmitype/StillImage"/>
    <dc:date>2023-02-15T22:57:11.307187</dc:date>
    <dc:format>image/svg+xml</dc:format>
    <dc:creator>
     <cc:Agent>
      <dc:title>Matplotlib v3.6.1, https://matplotlib.org/</dc:title>
     </cc:Agent>
    </dc:creator>
   </cc:Work>
  </rdf:RDF>
 </metadata>
 <defs>
  <style type="text/css">*{stroke-linejoin: round; stroke-linecap: butt}</style>
 </defs>
 <g id="figure_1">
  <g id="patch_1">
   <path d="M 0 72 
L 216 72 
L 216 0 
L 0 0 
z
" style="fill: #8fff9f"/>
  </g>
  <g id="axes_1">
   <g id="patch_2">
    <path d="M 1.653061 45.374694 
Q 5.752653 45.440816 12.761633 45.870612 
Q 13.191429 45.903673 13.373265 45.887143 
Q 13.555102 45.870612 13.951837 45.787959 
Q 14.348571 45.705306 14.546939 45.672245 
M 3.24 27.521633 
L 3.24 29.406122 
Q 3.24 31.588163 3.025102 33.985102 
Q 2.810204 36.382041 2.446531 39.291429 
Q 2.082857 42.200816 1.950612 43.787755 
L 1.653061 45.374694 
" clip-path="url(#pc5cbe80ef9)" style="fill: none; stroke: #000000; stroke-linejoin: miter"/>
   </g>
  </g>
  <g id="axes_2">
   <g id="patch_3">
    <path d="M 24.918579 29.071862 
Q 24.543683 29.146841 24.412469 29.577972 
Q 24.281255 30.009103 24.356234 30.42149 
Q 24.356234 30.571448 24.393724 30.702662 
Q 24.431214 30.833876 24.487448 30.89011 
Q 24.543683 30.946345 24.599917 31.040069 
Q 24.656152 31.133793 24.693641 31.208772 
L 24.80611 29.859145 
M 24.80611 34.020497 
Q 23.906359 39.006621 23.681421 42.793076 
L 24.131297 45.379862 
L 24.468703 46.054676 
" clip-path="url(#pc05e60172b)" style="fill: none; stroke: #000000; stroke-linejoin: miter"/>
   </g>
  </g>
  <g id="axes_3"/>
  <g id="axes_4">
   <g id="patch_4">
    <path d="M 62.494615 26.878846 
Q 61.746923 28.997308 60.282692 31.271538 
Q 58.818462 33.545769 57.400962 35.228077 
Q 55.983462 36.910385 54.456923 39.153462 
Q 52.930385 41.396538 52.120385 43.421538 
L 51.559615 45.290769 
M 50.157692 27.439615 
Q 51.777692 29.620385 55.126731 34.776346 
Q 58.475769 39.932308 60.531923 42.486923 
L 63.242308 46.131923 
" clip-path="url(#pe404a24d66)" style="fill: none; stroke: #000000; stroke-linejoin: miter"/>
   </g>
  </g>
  <g id="axes_5">
   <g id="patch_5">
    <path d="M 68.288772 35.145186 
Q 68.288772 35.145186 68.288772 35.595062 
Q 68.288772 36.269876 68.176303 37.619503 
Q 68.063834 38.969131 68.063834 39.643945 
Q 68.063834 41.930814 69.300993 43.599103 
Q 70.538152 45.267393 72.675062 45.267393 
Q 74.062179 45.154924 74.830717 43.917766 
Q 75.599255 42.680607 75.749214 41.237255 
Q 75.899172 39.793903 76.1616 37.9944 
Q 76.424028 36.194897 76.836414 35.370124 
Q 76.986372 35.070207 76.986372 35.670041 
Q 76.986372 36.269876 76.723945 38.706703 
Q 76.499007 41.031062 76.499007 41.555917 
Q 76.349048 42.643117 76.686455 43.767807 
Q 77.023862 44.892497 77.736166 45.6048 
" clip-path="url(#pdd58606300)" style="fill: none; stroke: #000000; stroke-linejoin: miter"/>
   </g>
  </g>
  <g id="axes_6">
   <g id="patch_6">
    <path d="M 82.857798 38.160826 
Q 85.830275 39.535596 90.549083 39.721376 
Q 92.072477 39.721376 92.759862 38.550963 
Q 93.447248 37.38055 93.447248 35.82 
Q 93.447248 35.299817 93.354358 34.909679 
Q 93.261468 34.519541 93.019954 34.296606 
Q 92.77844 34.07367 92.611239 33.943624 
Q 92.444037 33.813578 91.998165 33.757844 
Q 91.552294 33.70211 91.347936 33.683532 
Q 91.143578 33.664954 90.567661 33.683532 
Q 89.991743 33.70211 89.768807 33.70211 
Q 87.725229 33.70211 86.238991 35.578486 
Q 84.752752 37.454862 84.752752 39.609908 
Q 84.752752 42.619541 86.684862 44.570229 
Q 88.616972 46.520917 91.663761 46.520917 
Q 93.818807 46.818165 95.342202 44.29156 
" clip-path="url(#p31758587fd)" style="fill: none; stroke: #000000; stroke-linejoin: miter"/>
   </g>
  </g>
  <g id="axes_7"/>
  <g id="axes_8">
   <g id="patch_7">
    <path d="M 119.531793 37.169628 
Q 121.556234 39.194069 123.318248 41.76211 
Q 125.080262 44.330152 125.942524 46.72949 
M 122.568455 31.321241 
L 122.568455 31.546179 
Q 122.568455 32.333462 121.931131 33.514386 
Q 121.293807 34.69531 120.319076 36.101172 
Q 119.344345 37.507034 119.081917 37.95691 
L 117.844759 39.643945 
M 117.057476 26.710014 
Q 118.894469 36.269876 119.081917 48.641462 
" clip-path="url(#p2d02b36316)" style="fill: none; stroke: #000000; stroke-linejoin: miter"/>
   </g>
  </g>
  <g id="axes_9">
   <g id="patch_8">
    <path d="M 133.238731 37.282097 
L 133.238731 37.844441 
Q 133.501159 39.868883 133.538648 41.312234 
Q 133.576138 42.755586 133.482414 44.667559 
Q 133.38869 46.579531 133.38869 48.191586 
L 133.463669 39.643945 
Q 133.463669 38.144359 135.056979 37.507034 
Q 136.65029 36.86971 138.074897 37.282097 
Q 139.986869 37.844441 140.905366 39.04411 
Q 141.823862 40.243779 141.880097 41.668386 
Q 141.936331 43.092993 141.973821 44.817517 
Q 142.01131 46.542041 142.161269 48.191586 
" clip-path="url(#pc3da44cfd6)" style="fill: none; stroke: #000000; stroke-linejoin: miter"/>
   </g>
  </g>
  <g id="axes_10">
   <g id="patch_9">
    <path d="M 157.1616 35.032717 
Q 156.11189 34.582841 155.137159 34.69531 
Q 152.100497 35.032717 150.188524 36.701007 
Q 148.276552 38.369297 148.276552 41.330979 
Q 148.276552 43.917766 150.282248 45.6048 
Q 152.287945 47.291834 154.912221 47.291834 
Q 157.274069 47.291834 158.398759 45.361117 
Q 159.523448 43.4304 159.523448 40.881103 
Q 159.523448 39.643945 159.111062 38.706703 
Q 158.698676 37.769462 158.173821 37.300841 
Q 157.648966 36.832221 156.899172 36.119917 
Q 156.149379 35.407614 155.699503 34.69531 
L 154.462345 34.245434 
" clip-path="url(#p95b502018c)" style="fill: none; stroke: #000000; stroke-linejoin: miter"/>
   </g>
  </g>
  <g id="axes_11">
   <g id="patch_10">
    <path d="M 163.716102 36.437797 
L 164.951695 44.778051 
Q 165.054661 45.567458 165.054661 45.60178 
Q 165.054661 45.704746 165.363559 45.704746 
Q 166.22161 45.704746 166.942373 44.778051 
Q 167.663136 43.851356 168.075 42.718729 
Q 168.486864 41.586102 169.001695 40.659407 
Q 169.516525 39.732712 169.997034 39.732712 
Q 170.614831 39.732712 171.249788 40.607924 
Q 171.884746 41.483136 172.348093 42.512797 
Q 172.811441 43.542458 173.48072 44.417669 
Q 174.15 45.292881 174.836441 45.292881 
Q 175.111017 43.782712 175.540042 39.69839 
Q 175.969068 35.614068 176.483898 33.554746 
" clip-path="url(#p6159407ae3)" style="fill: none; stroke: #000000; stroke-linejoin: miter"/>
   </g>
  </g>
  <g id="axes_12">
   <g id="patch_11">
    <path d="M 181.857476 43.917766 
Q 182.157393 44.180193 183.169614 45.154924 
Q 184.181834 46.129655 184.744179 46.560786 
Q 185.306524 46.991917 186.33749 47.385559 
Q 187.368455 47.7792 188.380676 47.629241 
Q 189.05549 47.629241 189.52411 47.404303 
Q 189.992731 47.179366 190.217669 46.879448 
Q 190.442607 46.579531 190.573821 45.979697 
Q 190.705034 45.379862 190.723779 44.967476 
Q 190.742524 44.55509 190.742524 43.805297 
Q 190.742524 42.718097 189.842772 42.043283 
Q 188.943021 41.368469 187.649628 41.031062 
Q 186.356234 40.693655 185.062841 40.300014 
Q 183.769448 39.906372 182.869697 38.987876 
Q 181.969945 38.069379 181.969945 36.607283 
Q 181.969945 36.082428 182.138648 35.726276 
Q 182.307352 35.370124 182.700993 35.145186 
Q 183.094634 34.920248 183.375807 34.807779 
Q 183.656979 34.69531 184.313048 34.639076 
Q 184.969117 34.582841 185.156566 34.582841 
Q 185.344014 34.582841 186.018828 34.582841 
Q 187.218497 34.582841 187.799586 34.995228 
Q 188.380676 35.407614 188.699338 36.026193 
Q 189.018 36.644772 189.280428 36.832221 
" clip-path="url(#paa7b15621d)" style="fill: none; stroke: #000000; stroke-linejoin: miter"/>
   </g>
  </g>
 </g>
 <defs>
  <clipPath id="pc5cbe80ef9">
   <rect x="0" y="11.850612" width="16.2" height="47.938776"/>
  </clipPath>
  <clipPath id="pc05e60172b">
   <rect x="21.806938" y="8.64" width="4.986124" height="54.36"/>
  </clipPath>
  <clipPath id="pe404a24d66">
   <rect x="48.6" y="13.233462" width="16.2" height="45.173077"/>
  </clipPath>
  <clipPath id="pdd58606300">
   <rect x="66.189352" y="8.64" width="13.421297" height="54.36"/>
  </clipPath>
  <clipPath id="p31758587fd">
   <rect x="81" y="8.881927" width="16.2" height="53.876147"/>
  </clipPath>
  <clipPath id="p2d02b36316">
   <rect x="115.182993" y="8.64" width="12.634014" height="54.36"/>
  </clipPath>
  <clipPath id="pc3da44cfd6">
   <rect x="131.364248" y="8.64" width="12.671503" height="54.36"/>
  </clipPath>
  <clipPath id="p95b502018c">
   <rect x="146.402069" y="8.64" width="14.995862" height="54.36"/>
  </clipPath>
  <clipPath id="p6159407ae3">
   <rect x="162" y="10.936525" width="16.2" height="49.766949"/>
  </clipPath>
  <clipPath id="paa7b15621d">
   <rect x="179.982993" y="8.64" width="12.634014" height="54.36"/>
  </clipPath>
 </defs>
</svg>
