<?xml version="1.0" encoding="utf-8" standalone="no"?>
<!DOCTYPE svg PUBLIC "-//W3C//DTD SVG 1.1//EN"
  "http://www.w3.org/Graphics/SVG/1.1/DTD/svg11.dtd">
<svg xmlns:xlink="http://www.w3.org/1999/xlink" width="283.5pt" height="72pt" viewBox="0 0 283.5 72" xmlns="http://www.w3.org/2000/svg" version="1.1">
 <metadata>
  <rdf:RDF xmlns:dc="http://purl.org/dc/elements/1.1/" xmlns:cc="http://creativecommons.org/ns#" xmlns:rdf="http://www.w3.org/1999/02/22-rdf-syntax-ns#">
   <cc:Work>
    <dc:type rdf:resource="http://purl.org/dc/dcmitype/StillImage"/>
    <dc:date>2023-02-03T21:02:18.957307</dc:date>
    <dc:format>image/svg+xml</dc:format>
    <dc:creator>
     <cc:Agent>
      <dc:title>Matplotlib v3.6.1, https://matplotlib.org/</dc:title>
     </cc:Agent>
    </dc:creator>
   </cc:Work>
  </rdf:RDF>
 </metadata>
 <defs>
  <style type="text/css">*{stroke-linejoin: round; stroke-linecap: butt}</style>
 </defs>
 <g id="figure_1">
  <g id="patch_1">
   <path d="M 0 72 
L 283.5 72 
L 283.5 0 
L 0 0 
z
" style="fill: #8fff9f"/>
  </g>
  <g id="axes_1">
   <g id="patch_2">
    <path d="M 18.48629 26.674839 
Q 18.453629 26.772823 18.48629 27.164758 
Q 18.48629 28.209919 18.780242 31.851653 
Q 19.074194 35.493387 18.845565 37.387742 
L 18.551613 40.13129 
M 13.097177 35.722016 
L 13.587097 35.624032 
L 24.267339 32.7825 
L 23.483468 38.367581 
L 22.895565 39.445403 
L 21.752419 37.616371 
M 14.664919 31.50871 
L 14.860887 33.958306 
L 15.350806 37.485726 
L 15.546774 42.15629 
Q 15.612097 43.299435 16.134677 43.968992 
Q 16.657258 44.638548 17.588105 44.834516 
Q 18.518952 45.030484 19.384476 45.063145 
Q 20.25 45.095806 21.458468 45.030484 
Q 22.666935 44.965161 23.2875 44.997823 
Q 23.581452 45.030484 24.169355 44.981492 
Q 24.757258 44.9325 25.345161 44.703871 
Q 25.933065 44.475242 25.835081 44.115968 
L 26.716935 40.915161 
M 10.157661 33.468387 
L 10.157661 33.664355 
Q 10.157661 36.930484 9.063508 39.069798 
Q 7.969355 41.209113 5.454435 43.266774 
L 1.633065 46.173629 
M 2.025 35.689355 
L 2.514919 35.689355 
Q 3.233468 35.689355 4.948185 35.281089 
Q 6.662903 34.872823 7.414113 34.840161 
L 10.353629 34.350242 
M 7.120161 28.373226 
L 7.120161 28.961129 
Q 6.82621 29.973629 6.662903 32.847823 
Q 6.499597 35.722016 6.042339 36.799839 
Q 6.009677 36.897823 5.732056 37.404073 
Q 5.454435 37.910323 5.32379 38.302258 
Q 5.193145 38.694194 5.32379 38.890161 
Q 5.977016 40.065968 8.263306 41.943992 
Q 10.549597 43.822016 10.941532 44.246613 
L 12.117339 44.834516 
" clip-path="url(#p804d0e6bf1)" style="fill: none; stroke: #000000; stroke-linejoin: miter"/>
   </g>
  </g>
  <g id="axes_2">
   <g id="patch_3">
    <path d="M 45.224255 30.571448 
Q 45.224255 30.571448 45.224255 32.708359 
Q 45.224255 34.207945 45.317979 35.894979 
Q 45.411703 37.582014 45.561662 39.643945 
Q 45.711621 41.705876 45.7866 42.830566 
L 45.561662 43.955255 
M 37.463897 44.405131 
L 52.872145 44.180193 
M 40.500559 34.7328 
L 42.637469 34.7328 
Q 42.674959 34.7328 47.473634 34.507862 
L 50.285359 34.170455 
M 35.476945 32.895807 
L 35.476945 35.257655 
Q 35.476945 35.295145 35.701883 38.181848 
L 35.814352 45.717269 
M 36.751593 28.397048 
Q 37.501386 28.284579 41.850186 28.17211 
Q 46.198986 28.059641 47.698572 27.347338 
L 48.935731 27.1224 
M 41.925166 24.348166 
Q 41.550269 27.909683 39.094697 31.602414 
Q 36.639124 35.295145 33.415014 37.244607 
L 32.177855 37.806952 
" clip-path="url(#p0a0a162ba1)" style="fill: none; stroke: #000000; stroke-linejoin: miter"/>
   </g>
  </g>
  <g id="axes_3">
   <g id="patch_4">
    <path d="M 72.786972 42.980524 
Q 73.0494 43.242952 73.686724 43.711572 
Q 74.324048 44.180193 74.586476 44.442621 
L 78.972766 47.366814 
M 64.126862 31.958566 
L 64.3518 31.958566 
Q 64.539248 31.958566 64.820421 32.089779 
Q 65.101593 32.220993 65.457745 32.408441 
Q 65.813897 32.59589 65.926366 32.633379 
L 68.625621 34.432883 
M 63.564517 35.332634 
Q 64.014393 35.670041 65.082848 36.082428 
Q 66.151303 36.494814 66.601179 36.794731 
L 67.163524 37.357076 
M 61.0902 39.718924 
L 62.327359 39.718924 
Q 64.876655 39.718924 67.782103 39.531476 
Q 70.687552 39.344028 74.267814 39.025366 
Q 77.848076 38.706703 79.760048 38.594234 
M 71.662283 31.396221 
Q 71.624793 31.658648 71.662283 32.745848 
Q 71.662283 35.445103 70.91249 37.544524 
Q 70.162697 39.643945 68.831814 42.080772 
Q 67.500931 44.5176 66.826117 46.354593 
L 64.801676 48.603972 
M 68.850559 24.98549 
Q 68.925538 25.022979 70.312655 25.660303 
L 70.987469 26.560055 
M 62.21489 30.046593 
L 65.47649 29.821655 
Q 67.013566 29.634207 70.200186 29.090607 
Q 73.386807 28.547007 75.973593 28.228345 
Q 78.560379 27.909683 80.6598 27.909683 
Q 80.172434 28.809434 79.872517 29.484248 
L 79.085234 31.283752 
M 62.664766 27.684745 
Q 62.364848 28.097131 62.439828 29.25931 
Q 62.477317 29.784166 62.102421 30.608938 
L 61.427607 33.083255 
" clip-path="url(#pbf20e4a7fb)" style="fill: none; stroke: #000000; stroke-linejoin: miter"/>
   </g>
  </g>
  <g id="axes_4">
   <g id="patch_5">
    <path d="M 98.569087 46.42392 
Q 99.225 46.241722 100.883001 46.132404 
Q 102.541003 46.023085 103.379113 45.768008 
L 111.578021 45.658689 
M 110.047558 37.022506 
Q 110.047558 37.058946 108.644634 40.356729 
Q 107.24171 43.654512 107.20527 45.330733 
L 106.877314 45.986645 
M 104.144344 38.006375 
Q 104.253663 38.188573 104.672719 38.899145 
Q 105.091774 39.609717 105.346851 39.974113 
L 106.549357 41.285938 
M 101.630013 40.192751 
L 101.957969 40.192751 
Q 102.322365 40.192751 102.74142 40.575366 
Q 103.160476 40.957982 103.579531 41.504576 
Q 103.998586 42.05117 104.144344 42.160488 
L 104.800257 43.035039 
M 101.411375 35.164087 
L 107.533226 35.054769 
M 103.816388 28.386324 
Q 104.435861 28.969357 105.492609 30.171864 
Q 106.549357 31.37437 107.16883 31.993843 
Q 107.788303 32.613316 108.899711 33.214569 
Q 110.011118 33.815823 111.322943 33.961581 
M 104.58162 27.074499 
Q 104.326542 27.438895 103.63419 28.513862 
Q 102.941838 29.58883 102.522783 30.135424 
Q 102.103728 30.682018 101.429595 31.483689 
Q 100.755463 32.28536 100.026671 32.777294 
Q 99.297879 33.269229 98.459769 33.524306 
L 97.366581 34.0709 
M 86.871979 43.435874 
Q 87.67365 43.107918 89.185893 42.415566 
Q 90.698136 41.723213 91.700225 41.322378 
Q 92.702314 40.921542 94.014139 40.520707 
L 93.613303 40.192751 
M 89.276992 29.880347 
L 89.276992 30.317622 
Q 89.313432 31.009974 89.240553 31.775206 
Q 89.167674 32.540437 89.021915 33.487866 
Q 88.876157 34.435296 88.839717 34.90901 
Q 88.803278 35.127648 88.657519 35.692461 
Q 88.511761 36.257275 88.511761 36.548792 
Q 88.438882 36.986067 88.839717 36.840308 
Q 88.949036 36.840308 89.204113 36.73099 
Q 89.677828 36.512352 89.823586 36.548792 
Q 90.443059 36.69455 92.319698 36.421253 
Q 94.196337 36.147956 95.763239 35.82 
L 97.366581 35.492044 
Q 97.366581 36.69455 96.728888 42.05117 
Q 96.091195 47.407789 95.763239 47.407789 
Q 95.398843 47.407789 94.888689 46.952294 
Q 94.378535 46.496799 94.196337 46.42392 
L 93.03027 45.54937 
M 87.74653 28.568522 
L 94.925129 27.621093 
L 94.232776 31.775206 
L 93.467545 34.94545 
" clip-path="url(#p200bd20170)" style="fill: none; stroke: #000000; stroke-linejoin: miter"/>
   </g>
  </g>
  <g id="axes_5">
   <g id="patch_6">
    <path d="M 126.881441 38.894152 
L 126.881441 47.891669 
M 118.671207 47.366814 
Q 118.671207 47.366814 121.033055 47.366814 
Q 125.606793 47.554262 135.204145 46.804469 
Q 135.204145 46.804469 136.77871 46.804469 
M 122.945028 41.968303 
Q 122.945028 41.968303 123.619841 41.968303 
Q 123.657331 41.968303 127.331317 41.743366 
L 131.605138 41.068552 
M 128.905883 36.119917 
Q 129.280779 36.344855 129.486972 37.019669 
Q 129.693166 37.694483 130.030572 37.919421 
L 130.817855 39.493986 
M 126.544034 33.420662 
Q 125.869221 34.207945 124.81951 36.101172 
Q 123.7698 37.9944 123.057497 38.819172 
L 124.632062 38.819172 
L 130.143041 37.806952 
M 122.72009 33.195724 
L 126.094159 33.195724 
Q 126.544034 33.158234 128.512241 33.214469 
Q 130.480448 33.270703 130.930324 32.970786 
M 126.806462 25.99771 
Q 127.293828 26.335117 127.706214 26.897462 
L 128.605966 28.584497 
M 119.38351 30.721407 
Q 121.445441 30.34651 126.881441 30.102828 
Q 132.317441 29.859145 135.129166 29.034372 
Q 135.953938 28.734455 135.953938 29.109352 
Q 135.916448 29.371779 134.829248 30.833876 
Q 134.529331 31.208772 134.454352 31.396221 
M 120.058324 28.24709 
L 118.708697 31.621159 
L 118.37129 32.183503 
" clip-path="url(#p29929ac851)" style="fill: none; stroke: #000000; stroke-linejoin: miter"/>
   </g>
  </g>
  <g id="axes_6">
   <g id="patch_7">
    <path d="M 143.58614 44.633472 
Q 144.687824 44.706917 146.817746 44.358051 
Q 148.947668 44.009184 149.75557 43.972461 
Q 151.775324 43.899016 168.26386 43.311451 
M 154.162306 25.647785 
L 154.382642 40.814301 
L 154.492811 43.641956 
M 150.636917 39.271943 
L 158.018199 39.271943 
M 149.975907 34.351088 
Q 150.086075 34.351088 150.893977 34.296004 
Q 151.701878 34.24092 151.848769 34.24092 
L 153.060622 34.24092 
L 158.899547 34.24092 
Q 158.862824 34.057306 158.899547 33.892053 
Q 158.936269 33.726801 159.028076 33.524825 
Q 159.119883 33.32285 159.119883 33.249404 
Q 159.59728 31.119482 161.984262 25.97829 
Q 161.690479 25.757953 161.653756 25.757953 
Q 159.59728 25.757953 155.465965 25.868122 
Q 151.33465 25.97829 149.314896 25.97829 
L 148.103044 25.97829 
M 151.297927 29.834184 
L 157.247021 29.834184 
M 148.433549 26.418964 
L 149.314896 33.910415 
" clip-path="url(#p2d57f21679)" style="fill: none; stroke: #000000; stroke-linejoin: miter"/>
   </g>
  </g>
  <g id="axes_7">
   <g id="patch_8">
    <path d="M 175.0338 27.08491 
Q 175.07129 27.347338 175.652379 27.459807 
Q 176.233469 27.572276 176.270959 27.984662 
L 178.857745 30.121572 
M 179.794986 38.481766 
L 180.357331 38.481766 
Q 181.294572 38.481766 182.363028 38.331807 
Q 183.431483 38.181848 184.743621 37.938166 
Q 186.055759 37.694483 186.768062 37.582014 
L 193.703648 36.9072 
M 181.931897 32.783338 
L 190.329579 31.996055 
L 192.578959 31.546179 
M 189.017441 28.734455 
L 188.979952 43.355421 
L 189.092421 44.030234 
M 184.181276 30.533959 
L 184.631152 33.120745 
L 184.518683 36.9072 
Q 183.468972 41.106041 181.144614 42.680607 
M 172.372034 46.504552 
L 174.508945 45.379862 
Q 174.883841 45.192414 175.239993 45.0612 
Q 175.596145 44.929986 175.821083 44.855007 
Q 176.046021 44.780028 176.439662 44.761283 
Q 176.833303 44.742538 177.020752 44.723793 
Q 177.2082 44.705048 177.7518 44.705048 
Q 178.2954 44.705048 178.557828 44.705048 
Q 179.607538 44.5176 180.582269 44.667559 
Q 181.557 44.817517 182.981607 45.323628 
Q 184.406214 45.829738 184.85609 45.942207 
Q 186.918021 46.504552 189.579786 46.504552 
Q 189.617276 46.504552 192.728917 46.167145 
L 196.177966 44.367641 
M 172.372034 34.395393 
Q 173.084338 34.170455 174.640159 33.870538 
Q 176.195979 33.570621 176.645855 33.458152 
L 179.232641 33.233214 
L 177.320669 35.82 
L 175.633634 37.507034 
Q 175.408697 38.03189 175.408697 38.069379 
L 175.408697 38.294317 
L 177.658076 44.592579 
" clip-path="url(#p0558f55dd5)" style="fill: none; stroke: #000000; stroke-linejoin: miter"/>
   </g>
  </g>
  <g id="axes_8">
   <g id="patch_9">
    <path d="M 215.690367 33.256239 
Q 215.393119 33.70211 215.430275 34.835367 
Q 215.467431 35.968624 215.393119 36.600275 
L 215.393119 41.170459 
Q 215.393119 42.210826 215.225917 44.29156 
Q 215.058716 46.372294 215.058716 47.412661 
L 213.275229 47.078257 
L 212.049083 46.520917 
M 207.999083 34.593853 
Q 209.819725 33.813578 213.683945 33.311972 
Q 217.548165 32.810367 218.142661 32.698899 
Q 221.523853 31.992936 223.938991 31.807156 
L 224.942202 31.844312 
M 211.268807 29.65211 
Q 211.937615 29.503486 213.368119 29.131927 
Q 214.798624 28.760367 215.857569 28.574587 
Q 216.916514 28.388807 218.142661 28.351651 
L 219.480275 28.017248 
M 204.209174 35.708532 
Q 204.172018 35.894312 204.190596 36.042936 
Q 204.209174 36.19156 204.172018 36.340183 
Q 204.134862 36.488807 203.986239 36.600275 
L 203.651835 46.966789 
M 205.769725 31.58422 
Q 204.097706 37.046147 200.642202 37.826422 
L 200.307798 38.160826 
M 204.655046 26.568165 
Q 204.209174 27.980092 202.760092 29.912202 
L 201.645413 30.803945 
" clip-path="url(#pd67985d92b)" style="fill: none; stroke: #000000; stroke-linejoin: miter"/>
   </g>
  </g>
  <g id="axes_9">
   <g id="patch_10">
    <path d="M 236.491997 43.624417 
Q 237.762484 43.40662 240.847951 43.261421 
Q 243.933419 43.116223 245.639501 42.789526 
L 246.728489 42.571729 
M 237.000192 39.63146 
L 237.653585 39.63146 
L 246.147695 39.413662 
M 236.020102 46.492087 
Q 236.020102 46.492087 236.564597 46.492087 
L 243.751921 46.492087 
L 245.494302 46.746184 
M 236.129001 36.001498 
Q 236.129001 36.001498 236.782394 36.001498 
Q 238.633675 36.001498 242.390685 35.511453 
Q 246.147695 35.021408 247.998976 35.021408 
Q 248.216773 35.021408 248.216773 35.348105 
Q 247.817478 38.723969 247.763028 40.357452 
Q 247.708579 41.990935 247.781178 45.403099 
Q 247.781178 45.584597 247.817478 46.056492 
Q 248.035275 48.524866 247.345583 48.561165 
Q 246.982586 48.597465 246.365493 48.052971 
L 245.7121 47.617375 
M 236.564597 36.654891 
Q 236.564597 36.691191 236.800544 37.181236 
Q 237.036492 37.67128 237.000192 37.961677 
L 236.891293 46.492087 
L 236.782394 47.472177 
M 239.287068 28.814174 
Q 239.250768 29.140871 239.287068 29.467567 
Q 239.287068 31.681844 238.16178 33.877971 
Q 237.036492 36.074097 235.620807 37.562382 
Q 234.205122 39.050666 232.353841 41.028995 
Q 230.502561 43.007324 229.59507 44.386709 
L 228.614981 44.931204 
M 230.429962 33.787222 
L 245.458003 32.698233 
L 253.335019 32.335237 
M 234.495519 31.318848 
L 235.148912 31.318848 
Q 236.419398 31.318848 237.925832 31.173649 
Q 239.432266 31.028451 241.265397 30.792503 
Q 243.098528 30.556556 244.078617 30.447657 
L 245.7121 30.12096 
M 232.753137 29.685365 
L 233.188732 29.685365 
Q 234.35032 29.685365 236.001953 29.394968 
Q 237.653585 29.104571 239.686364 28.650826 
Q 241.719142 28.197081 242.554033 28.051882 
L 247.56338 27.725186 
M 242.989629 25.365711 
Q 242.771831 25.547209 242.408835 25.928355 
Q 242.045839 26.309501 242.009539 26.3458 
L 240.739052 27.434789 
M 234.967414 25.510909 
L 237.435787 27.725186 
" clip-path="url(#pa9a11c4b67)" style="fill: none; stroke: #000000; stroke-linejoin: miter"/>
   </g>
  </g>
 </g>
 <defs>
  <clipPath id="p804d0e6bf1">
   <rect x="0" y="12.140565" width="28.35" height="47.358871"/>
  </clipPath>
  <clipPath id="p0a0a162ba1">
   <rect x="30.303372" y="8.64" width="24.443255" height="54.36"/>
  </clipPath>
  <clipPath id="pbf20e4a7fb">
   <rect x="59.215717" y="8.64" width="23.318566" height="54.36"/>
  </clipPath>
  <clipPath id="p200bd20170">
   <rect x="85.05" y="9.401298" width="28.35" height="52.837404"/>
  </clipPath>
  <clipPath id="p29929ac851">
   <rect x="116.496807" y="8.64" width="22.156386" height="54.36"/>
  </clipPath>
  <clipPath id="p2d57f21679">
   <rect x="141.75" y="9.195972" width="28.35" height="53.248057"/>
  </clipPath>
  <clipPath id="p0558f55dd5">
   <rect x="170.497552" y="8.64" width="27.554897" height="54.36"/>
  </clipPath>
  <clipPath id="pd67985d92b">
   <rect x="198.45" y="8.881927" width="28.35" height="53.876147"/>
  </clipPath>
  <clipPath id="pa9a11c4b67">
   <rect x="226.8" y="9.502778" width="28.35" height="52.634443"/>
  </clipPath>
 </defs>
</svg>
