<?xml version="1.0" encoding="utf-8" standalone="no"?>
<!DOCTYPE svg PUBLIC "-//W3C//DTD SVG 1.1//EN"
  "http://www.w3.org/Graphics/SVG/1.1/DTD/svg11.dtd">
<svg xmlns:xlink="http://www.w3.org/1999/xlink" width="405pt" height="162pt" viewBox="0 0 405 162" xmlns="http://www.w3.org/2000/svg" version="1.1">
 <metadata>
  <rdf:RDF xmlns:dc="http://purl.org/dc/elements/1.1/" xmlns:cc="http://creativecommons.org/ns#" xmlns:rdf="http://www.w3.org/1999/02/22-rdf-syntax-ns#">
   <cc:Work>
    <dc:type rdf:resource="http://purl.org/dc/dcmitype/StillImage"/>
    <dc:date>2023-02-15T22:57:26.474097</dc:date>
    <dc:format>image/svg+xml</dc:format>
    <dc:creator>
     <cc:Agent>
      <dc:title>Matplotlib v3.6.1, https://matplotlib.org/</dc:title>
     </cc:Agent>
    </dc:creator>
   </cc:Work>
  </rdf:RDF>
 </metadata>
 <defs>
  <style type="text/css">*{stroke-linejoin: round; stroke-linecap: butt}</style>
 </defs>
 <g id="figure_1">
  <g id="patch_1">
   <path d="M 0 162 
L 405 162 
L 405 0 
L 0 0 
z
" style="fill: #8fff9f"/>
  </g>
  <g id="axes_1">
   <g id="patch_2">
    <path d="M 20.651405 77.521553 
L 25.180695 81.080281 
M 28.415902 64.095444 
L 28.415902 65.874808 
Q 28.415902 70.296257 29.143824 79.193077 
Q 29.871746 88.089896 29.871746 92.565266 
Q 29.871746 93.104467 29.817825 93.158388 
Q 29.763905 93.212308 29.224704 93.212308 
Q 28.361982 93.212308 27.040939 92.592226 
Q 25.719896 91.972145 24.183173 91.028543 
Q 22.64645 90.084941 22.107249 89.81534 
L 19.519083 88.197737 
M 18.38676 73.315784 
L 19.033802 73.315784 
L 21.460207 73.315784 
L 33.753994 72.506982 
M 3.019527 74.609867 
Q 5.068491 76.712751 8.869859 82.266524 
Q 12.671228 87.820296 15.313314 90.138861 
M 2.696006 68.462973 
L 6.416494 68.462973 
Q 7.818417 68.355133 9.16642 68.436013 
Q 10.514423 68.516893 12.078107 68.355133 
Q 13.64179 68.193373 14.666272 67.654172 
Q 16.229956 69.325695 15.475074 72.587862 
Q 14.720192 75.85003 12.725148 79.408757 
Q 10.730104 82.967485 8.114978 86.121812 
Q 5.499852 89.276139 3.343047 90.785902 
" clip-path="url(#p937451971f)" style="fill: none; stroke: #000000; stroke-linejoin: miter"/>
   </g>
  </g>
  <g id="axes_2">
   <g id="patch_3">
    <path d="M 49.664353 95.577817 
L 49.959097 95.577817 
Q 53.299528 95.577817 59.489151 95.086577 
Q 65.678774 94.595337 66.513881 94.546213 
M 48.632749 85.851267 
Q 56.689084 84.672291 64.450674 84.230175 
Q 64.89279 84.131927 65.408592 84.181051 
Q 65.924394 84.230175 65.924394 84.672291 
Q 65.924394 85.900391 65.605088 87.226739 
Q 65.285782 88.553086 64.745418 90.174178 
Q 64.205054 91.79527 64.008558 92.630377 
L 63.861186 94.988329 
M 48.927493 86.146011 
L 48.927493 86.735499 
Q 48.927493 87.423235 49.025741 88.209218 
Q 49.123989 88.995202 49.295923 89.977682 
Q 49.467857 90.960162 49.516981 91.451402 
L 49.664353 95.430445 
M 47.895889 80.251132 
L 48.485377 80.251132 
Q 50.990701 80.251132 53.839892 79.784454 
Q 56.689084 79.317776 60.152325 78.531792 
Q 63.615566 77.745809 65.433154 77.451065 
L 70.443801 76.861577 
M 56.738208 72.58779 
L 56.738208 74.798369 
L 56.738208 81.430108 
L 56.14872 85.261779 
M 49.811725 75.093113 
Q 51.580189 74.208881 55.878538 72.95622 
Q 60.176887 71.703558 62.19097 70.671954 
L 62.633086 70.671954 
L 64.548922 69.787722 
M 44.653706 86.293383 
Q 44.260714 86.784623 43.84316 87.914474 
Q 43.425606 89.044326 43.032615 89.535566 
L 40.674663 95.135701 
M 38.906199 77.745809 
L 39.790431 77.745809 
L 43.769474 80.398504 
L 44.21159 80.545876 
M 40.379919 69.050863 
L 44.358962 71.998302 
L 44.94845 72.58779 
" clip-path="url(#pd4d35576ee)" style="fill: none; stroke: #000000; stroke-linejoin: miter"/>
   </g>
  </g>
  <g id="axes_3">
   <g id="patch_4">
    <path d="M 91.393673 93.088305 
L 101.871929 92.013612 
L 104.827334 91.744939 
M 97.84183 74.460295 
L 97.84183 89.998563 
L 97.707494 91.207592 
L 97.304484 92.819631 
M 91.393673 83.192174 
L 91.93102 83.192174 
Q 93.856511 83.192174 97.595547 82.721996 
Q 101.334582 82.251818 103.215295 82.251818 
Q 103.483968 81.804029 104.491493 82.117482 
Q 105.499017 82.430934 105.76769 81.983145 
M 90.31898 74.057285 
L 90.72199 74.057285 
L 91.662346 73.788612 
Q 91.707125 73.788612 97.438821 73.385602 
L 107.111057 73.385602 
L 107.111057 78.356057 
Q 107.066278 80.147211 106.819994 84.087752 
Q 106.57371 88.028292 106.57371 91.073256 
Q 106.57371 91.118034 106.708047 95.23769 
L 103.215295 93.625651 
M 90.72199 74.325958 
L 90.31898 90.132899 
L 90.453317 93.088305 
M 75.138943 91.879275 
L 75.810627 91.879275 
Q 77.24355 91.879275 78.945147 91.543434 
Q 80.646744 91.207592 82.684183 90.647856 
Q 84.721622 90.08812 85.751536 89.864226 
L 87.094902 89.461216 
M 86.826229 74.102064 
Q 86.020209 74.773747 84.811179 77.326143 
L 82.79613 79.78898 
Q 82.617015 79.968096 81.049754 81.468188 
Q 79.482494 82.96828 78.318243 84.244478 
Q 77.153993 85.520676 77.153993 85.968464 
Q 77.153993 85.923686 80.646744 85.028108 
L 85.348526 84.759435 
L 86.288882 84.490762 
M 83.19914 69.445061 
Q 82.437899 70.071966 81.385596 71.706394 
Q 80.333292 73.340823 79.975061 73.743833 
Q 78.85559 75.087199 78.363022 75.893219 
L 76.885319 78.311278 
L 79.840725 78.042604 
L 84.945516 77.370921 
" clip-path="url(#p4ee1d892d1)" style="fill: none; stroke: #000000; stroke-linejoin: miter"/>
   </g>
  </g>
  <g id="axes_4">
   <g id="patch_5">
    <path d="M 127.595183 74.338355 
Q 127.595183 74.338355 128.079568 74.338355 
Q 129.774917 74.338355 131.692276 74.035615 
Q 133.609635 73.732874 136.071927 73.208123 
Q 138.534219 72.683372 139.543355 72.52191 
L 138.61495 87.174568 
L 135.224252 84.389352 
M 130.743688 68.646827 
L 130.743688 69.010116 
Q 130.743688 70.180714 129.976744 71.33113 
Q 129.209801 72.481545 127.998837 73.712691 
Q 126.787874 74.943837 126.384219 75.549319 
L 124.68887 76.396993 
M 124.931063 83.864601 
L 125.536545 83.864601 
L 128.079568 83.864601 
L 132.31794 83.622409 
M 124.931063 78.455631 
L 125.294352 78.455631 
Q 126.303488 78.455631 128.261213 77.729053 
Q 130.218937 77.002475 131.228073 77.002475 
Q 131.308804 77.002475 131.389535 77.002475 
Q 131.550997 77.002475 131.611545 77.002475 
Q 131.672093 77.002475 131.692276 77.083206 
Q 131.712458 77.163937 131.712458 77.365764 
L 131.712458 78.697824 
L 131.349169 83.380216 
M 124.809967 78.455631 
L 124.809967 79.908787 
Q 124.809967 81.240847 125.112708 83.864601 
Q 125.415449 86.488355 125.415449 87.78005 
L 125.415449 89.071744 
Q 125.778738 92.018422 127.373173 93.471578 
Q 128.967608 94.924734 132.035382 95.005465 
Q 132.116113 95.005465 133.750914 95.106379 
Q 135.385714 95.207292 136.818688 95.247658 
Q 138.251661 95.288023 139.94701 95.207292 
Q 141.642359 95.126561 142.651495 94.74309 
Q 143.660631 94.359618 143.660631 93.673405 
Q 143.5799 93.350482 143.680814 92.30098 
Q 143.781728 91.251478 143.458804 91.009286 
M 114.274585 83.501312 
L 115.485548 83.501312 
L 119.360631 82.895831 
M 114.274585 77.204302 
L 115.001163 77.204302 
Q 115.041528 77.204302 119.845017 76.841013 
M 113.669103 71.270581 
L 122.38804 69.938522 
L 122.266944 72.844834 
L 122.024751 76.477724 
Q 121.580731 78.092342 121.520183 79.989518 
Q 121.459635 81.886694 121.540365 84.167342 
Q 121.621096 86.44799 121.540365 87.739684 
Q 121.540365 87.860781 121.641279 89.959784 
Q 121.742193 92.058787 121.641279 93.653223 
Q 121.540365 95.247658 121.05598 95.247658 
Q 121.015615 95.247658 120.208306 94.52108 
L 119.481728 94.157791 
M 114.032392 71.270581 
L 114.274585 82.411445 
L 114.032392 90.161611 
L 112.942525 92.704635 
L 112.09485 93.673405 
L 111.368272 94.399983 
" clip-path="url(#pcfe7840575)" style="fill: none; stroke: #000000; stroke-linejoin: miter"/>
   </g>
  </g>
  <g id="axes_5">
   <g id="patch_6">
    <path d="M 168.82425 76.707 
Q 170.64675 77.193 174.29175 79.80525 
M 166.0905 68.87025 
Q 168.5205 69.0525 172.287 68.110875 
Q 176.0535 67.16925 177.39 67.04775 
Q 178.05825 67.04775 178.42275 67.199625 
Q 178.78725 67.3515 178.90875 67.746375 
Q 179.03025 68.14125 178.999875 68.536125 
Q 178.9695 68.931 178.90875 69.7815 
Q 178.848 70.632 178.848 71.2395 
Q 179.2125 78.165 177.93675 92.92725 
Q 177.93675 93.53475 177.93675 94.02075 
Q 177.93675 94.50675 177.906375 94.87125 
Q 177.876 95.23575 177.602625 95.448375 
Q 177.32925 95.661 176.661 95.661 
L 175.5675 95.661 
L 171.74025 93.1095 
M 169.0065 61.21575 
L 169.0065 61.7625 
Q 169.0065 63.099 168.399 64.86075 
Q 167.7915 66.6225 166.8195 68.688 
Q 165.8475 70.7535 165.54375 71.604 
L 164.45025 73.4265 
M 150.5385 93.474 
L 152.17875 93.474 
L 161.65575 92.92725 
M 150.5385 80.7165 
L 159.651 80.352 
M 148.8375 71.118 
L 151.93575 71.118 
Q 152.7255 71.118 155.21625 70.57125 
Q 157.707 70.0245 159.7725 69.47775 
Q 161.838 68.931 161.838 68.87025 
Q 161.838 86.5485 161.4735 92.016 
L 160.92675 96.0255 
M 149.5665 69.2955 
L 149.5665 69.84225 
Q 149.5665 72.63675 150.23475 77.891625 
Q 150.903 83.1465 150.903 86.00175 
L 150.903 92.016 
L 150.174 93.8385 
M 159.46875 62.67375 
Q 158.73975 63.15975 157.88925 64.6785 
Q 157.03875 66.19725 156.3705 66.68325 
L 154.9125 69.96375 
" clip-path="url(#p4d1a335b1b)" style="fill: none; stroke: #000000; stroke-linejoin: miter"/>
   </g>
  </g>
  <g id="axes_6">
   <g id="patch_7">
    <path d="M 186.406579 70.317744 
Q 190.152068 73.423759 190.791541 74.017556 
M 184.533835 93.43015 
L 184.533835 93.01906 
Q 184.533835 92.33391 186.018327 91.808628 
Q 187.50282 91.283346 188.46203 91.283346 
Q 188.87312 91.237669 188.987312 91.306184 
Q 189.101504 91.374699 189.261372 91.511729 
Q 189.421241 91.648759 189.832331 91.694436 
Q 193.98891 93.338797 199.287406 94.298008 
Q 200.20094 94.480714 201.731109 94.777613 
Q 203.261278 95.074511 203.969267 95.188703 
Q 204.677256 95.302895 205.933365 95.417086 
Q 207.189474 95.531278 208.605451 95.531278 
Q 209.701692 95.531278 210.752256 95.302895 
Q 211.80282 95.074511 213.058929 94.709098 
Q 214.315038 94.343684 215.045865 94.160977 
L 216.416165 93.338797 
M 185.127632 78.722256 
L 185.675752 78.722256 
Q 186.863346 78.904962 190.380451 77.443308 
Q 191.979135 76.803835 192.024812 77.077895 
Q 192.070489 77.443308 190.380451 79.224699 
Q 188.87312 80.823383 188.87312 82.513421 
Q 188.87312 83.061541 189.307049 83.472632 
Q 189.740977 83.883722 190.243421 84.089267 
Q 190.745865 84.294812 191.179793 84.774417 
Q 191.613722 85.254023 191.613722 85.939173 
Q 191.613722 86.030526 191.750752 86.304586 
Q 191.887782 86.578647 191.887782 86.761353 
L 191.887782 87.172444 
L 190.106391 91.694436 
M 202.302068 87.400827 
Q 202.895865 87.766241 203.763722 88.497068 
Q 204.631579 89.227895 204.859962 89.684662 
L 207.600564 90.917932 
M 202.987218 83.152895 
Q 202.941541 83.701015 202.987218 84.660226 
Q 202.987218 86.39594 202.461936 87.446504 
Q 201.936654 88.497068 200.977444 89.547632 
Q 200.018233 90.598195 199.561466 91.511729 
L 198.739286 91.648759 
M 199.972556 81.645564 
L 204.905639 81.599887 
Q 205.042669 81.554211 205.339568 81.440019 
Q 205.636466 81.325827 205.887688 81.257312 
Q 206.13891 81.188797 206.41297 81.188797 
Q 206.458647 81.188797 206.504323 81.188797 
Q 206.82406 81.188797 206.892575 81.257312 
Q 206.96109 81.325827 206.96109 81.736917 
Q 206.96109 81.782594 206.55 85.710789 
L 206.00188 87.21812 
M 199.424436 81.508534 
Q 199.378759 82.193684 199.698496 82.330714 
L 200.109586 87.537857 
M 196.135714 80.001203 
Q 197.825752 79.270376 201.548402 79.041992 
Q 205.271053 78.813609 206.82406 78.356842 
L 211.346053 78.219812 
M 202.621805 68.673383 
Q 202.804511 68.58203 202.804511 68.764737 
Q 202.804511 68.901767 202.667481 69.312857 
Q 202.347744 70.546128 202.713158 70.637481 
L 202.850188 79.453083 
M 199.698496 77.351955 
Q 199.92688 77.260602 200.543515 77.214925 
Q 201.16015 77.169248 201.479887 76.940865 
L 208.194361 76.529774 
M 198.602256 73.058346 
L 199.287406 73.058346 
Q 199.972556 73.058346 200.771898 72.944154 
Q 201.571241 72.829962 202.553289 72.647256 
Q 203.535338 72.464549 204.083459 72.373195 
L 207.37218 72.647256 
L 206.82406 76.392744 
L 206.41297 76.940865 
M 198.739286 73.058346 
L 198.739286 73.469436 
Q 198.784962 75.113797 199.150376 75.661917 
Q 199.333083 76.301391 199.561466 76.484098 
Q 199.65282 76.529774 199.835526 76.666805 
" clip-path="url(#pe7f6cb17c8)" style="fill: none; stroke: #000000; stroke-linejoin: miter"/>
   </g>
  </g>
  <g id="axes_7">
   <g id="patch_8">
    <path d="M 232.291525 79.24708 
Q 236.391448 77.89916 245.096764 77.2252 
L 252.341834 75.70879 
M 233.976425 72.507481 
Q 233.976425 72.507481 234.818875 72.507481 
Q 235.998305 72.507481 237.318143 72.254746 
Q 238.637982 72.002011 240.238636 71.580786 
Q 241.839291 71.159561 242.737904 70.991071 
L 245.770724 70.654091 
M 238.806471 91.939992 
L 239.143451 91.939992 
Q 240.379045 92.726279 243.187211 95.057057 
Q 245.995378 97.387835 248.410401 98.511102 
M 235.324345 88.177049 
L 236.166795 88.177049 
Q 241.783128 87.615416 246.837827 86.267496 
Q 248.129584 85.81819 248.550809 85.930516 
Q 248.972034 86.042843 248.803544 86.464068 
Q 248.635054 86.885293 247.680277 88.120886 
L 243.917334 93.568729 
L 243.074884 94.579669 
M 240.884515 65.599391 
L 239.199615 79.24708 
Q 238.694145 83.066186 238.694145 83.12235 
L 237.570878 87.222273 
L 237.233898 89.244153 
M 226.731356 74.697851 
Q 226.675193 74.866341 226.703274 75.624545 
Q 226.731356 76.38275 226.731356 76.55124 
Q 226.731356 79.41557 226.927928 82.78537 
Q 227.124499 86.155169 227.461479 90.170847 
Q 227.798459 94.186525 227.910786 96.096079 
L 227.742296 97.949468 
M 230.943606 66.778821 
Q 229.090216 71.440378 225.551926 76.04577 
L 221.508166 78.9101 
" clip-path="url(#p27ca30f1ed)" style="fill: none; stroke: #000000; stroke-linejoin: miter"/>
   </g>
  </g>
  <g id="axes_8">
   <g id="patch_9">
    <path d="M 278.389055 87.00427 
Q 279.479067 90.797512 282.051495 92.47613 
Q 284.623923 94.154749 289.419976 94.459952 
M 277.473445 87.135072 
L 277.473445 87.396675 
Q 275.249821 92.105526 267.401734 93.936746 
M 268.055742 87.135072 
Q 268.666148 87.00427 269.429157 86.98247 
Q 270.192165 86.96067 271.151376 86.98247 
Q 272.110586 87.00427 272.633792 87.00427 
Q 274.857416 87.00427 277.299043 86.829868 
Q 279.74067 86.655467 282.749103 86.372063 
Q 285.757536 86.08866 287.414354 85.957859 
L 287.806758 85.696256 
M 277.996651 83.734234 
L 277.865849 94.067548 
Q 277.473445 94.24195 277.604246 94.721555 
M 279.958672 82.687823 
L 282.574701 82.687823 
Q 283.185108 82.818624 284.972727 82.687823 
Q 286.760347 82.557022 287.414354 82.949426 
M 279.566268 77.324964 
Q 280.787081 77.150562 283.446711 77.128762 
Q 286.10634 77.106962 287.414354 76.93256 
Q 287.414354 76.97616 285.844737 80.856603 
L 285.713935 82.818624 
M 279.435467 77.717368 
L 279.435467 82.164617 
M 270.933373 82.949426 
L 276.557835 82.949426 
M 269.363756 78.371376 
Q 270.584569 78.414976 273.113397 77.82637 
Q 275.642225 77.237763 276.819438 77.324964 
L 276.165431 82.557022 
M 268.971352 78.371376 
L 268.971352 78.76378 
Q 268.971352 78.80738 269.75616 79.940993 
L 270.540969 82.818624 
M 275.337022 74.796136 
L 281.877093 74.796136 
M 274.726615 69.171675 
L 281.528289 68.910072 
L 281.223086 75.580945 
M 274.465012 68.77927 
L 274.813816 74.142129 
M 257.417225 85.303852 
Q 257.330024 85.478254 257.548026 85.434653 
Q 257.766029 85.434653 257.809629 85.434653 
Q 258.332835 85.434653 259.444647 84.802446 
Q 260.556459 84.170239 261.842673 83.276429 
Q 263.128888 82.38262 263.303289 82.295419 
L 266.704127 79.286986 
M 257.940431 76.540156 
L 258.856041 76.540156 
Q 259.292045 76.540156 259.68445 76.452955 
Q 260.076854 76.365754 260.57826 76.234952 
Q 261.079665 76.104151 261.472069 76.01695 
L 265.003708 75.624545 
L 267.227333 75.232141 
M 261.341268 68.822871 
Q 261.297667 69.128074 261.341268 69.738481 
L 261.341268 70.784892 
L 262.518481 82.295419 
L 262.256878 95.113959 
L 259.248445 90.928313 
" clip-path="url(#p15c18afc18)" style="fill: none; stroke: #000000; stroke-linejoin: miter"/>
   </g>
  </g>
  <g id="axes_9">
   <g id="patch_10">
    <path d="M 311.531055 87.690022 
L 321.767385 86.985936 
M 311.368574 80.432519 
L 311.856018 80.432519 
L 320.305052 79.186828 
L 320.792496 79.024346 
M 311.368574 72.958373 
L 311.206092 74.583187 
L 311.206092 89.856441 
L 310.826969 98.955401 
M 309.581278 72.958373 
Q 309.581278 72.958373 310.393685 72.958373 
Q 310.447845 72.958373 313.480832 72.470929 
L 325.341976 70.521152 
M 315.593091 65.484227 
Q 312.668425 71.550201 307.57734 77.453692 
L 304.869316 79.945074 
M 300.969762 75.287273 
L 300.969762 75.937199 
Q 300.969762 75.99136 300.644799 78.699383 
L 300.807281 96.084896 
L 300.644799 97.70971 
M 305.031798 69.112979 
Q 304.598514 69.762905 303.759027 71.198158 
Q 302.919539 72.63341 302.350854 73.472897 
Q 301.782169 74.312385 300.834361 75.341434 
Q 299.886553 76.370483 298.857504 76.912088 
L 296.582764 78.753544 
L 294.308024 80.64916 
" clip-path="url(#peadb743d5b)" style="fill: none; stroke: #000000; stroke-linejoin: miter"/>
   </g>
  </g>
  <g id="axes_10">
   <g id="patch_11">
    <path d="M 347.329397 94.597386 
Q 347.329397 94.597386 345.55801 94.597386 
Q 343.280514 94.597386 341.88871 96.326597 
Q 340.496907 98.055807 340.496907 100.417655 
Q 340.412555 102.779503 342.057414 104.086955 
Q 343.702272 105.394407 346.064121 104.972648 
Q 346.738934 104.888297 347.835507 104.803945 
Q 348.932079 104.719593 349.522541 104.635241 
Q 350.113003 104.55089 350.829993 104.213483 
Q 351.546983 103.876076 351.842214 103.074734 
Q 352.137445 102.273393 352.137445 100.923766 
Q 352.137445 100.333303 351.88439 99.742841 
Q 351.631334 99.152379 351.209576 98.43539 
Q 350.787817 97.7184 350.619114 97.380993 
L 348.088562 95.862662 
" clip-path="url(#p6f6528144d)" style="fill: none; stroke: #000000; stroke-linejoin: miter"/>
   </g>
  </g>
 </g>
 <defs>
  <clipPath id="p937451971f">
   <rect x="0" y="41.502914" width="36.45" height="78.184172"/>
  </clipPath>
  <clipPath id="pd4d35576ee">
   <rect x="36.45" y="44.980108" width="36.45" height="71.229784"/>
  </clipPath>
  <clipPath id="p4ee1d892d1">
   <rect x="72.9" y="48.130319" width="36.45" height="64.929361"/>
  </clipPath>
  <clipPath id="pcfe7840575">
   <rect x="109.35" y="51.33005" width="36.45" height="58.5299"/>
  </clipPath>
  <clipPath id="p4d1a335b1b">
   <rect x="145.8" y="36.55125" width="36.45" height="88.0875"/>
  </clipPath>
  <clipPath id="pe7f6cb17c8">
   <rect x="182.25" y="47.479398" width="36.45" height="66.231203"/>
  </clipPath>
  <clipPath id="p27ca30f1ed">
   <rect x="218.7" y="39.876587" width="36.45" height="81.436826"/>
  </clipPath>
  <clipPath id="p15c18afc18">
   <rect x="255.15" y="48.984653" width="36.45" height="63.220694"/>
  </clipPath>
  <clipPath id="peadb743d5b">
   <rect x="291.6" y="41.328655" width="36.45" height="78.532689"/>
  </clipPath>
  <clipPath id="p6f6528144d">
   <rect x="336.194969" y="19.44" width="20.160062" height="122.31"/>
  </clipPath>
 </defs>
</svg>
