<?xml version="1.0" encoding="utf-8" standalone="no"?>
<!DOCTYPE svg PUBLIC "-//W3C//DTD SVG 1.1//EN"
  "http://www.w3.org/Graphics/SVG/1.1/DTD/svg11.dtd">
<svg xmlns:xlink="http://www.w3.org/1999/xlink" width="252pt" height="72pt" viewBox="0 0 252 72" xmlns="http://www.w3.org/2000/svg" version="1.1">
 <metadata>
  <rdf:RDF xmlns:dc="http://purl.org/dc/elements/1.1/" xmlns:cc="http://creativecommons.org/ns#" xmlns:rdf="http://www.w3.org/1999/02/22-rdf-syntax-ns#">
   <cc:Work>
    <dc:type rdf:resource="http://purl.org/dc/dcmitype/StillImage"/>
    <dc:date>2023-02-03T21:02:42.669474</dc:date>
    <dc:format>image/svg+xml</dc:format>
    <dc:creator>
     <cc:Agent>
      <dc:title>Matplotlib v3.6.1, https://matplotlib.org/</dc:title>
     </cc:Agent>
    </dc:creator>
   </cc:Work>
  </rdf:RDF>
 </metadata>
 <defs>
  <style type="text/css">*{stroke-linejoin: round; stroke-linecap: butt}</style>
 </defs>
 <g id="figure_1">
  <g id="patch_1">
   <path d="M 0 72 
L 252 72 
L 252 0 
L 0 0 
z
" style="fill: #8fff9f"/>
  </g>
  <g id="axes_1">
   <g id="patch_2">
    <path d="M 22.899355 38.146495 
Q 22.86612 38.17973 21.736108 39.392831 
Q 20.606096 40.605932 20.107562 40.971524 
L 17.216061 43.065369 
M 4.220926 40.572696 
Q 4.719461 41.00476 4.95211 41.337116 
Q 5.18476 41.669472 5.317702 41.785797 
Q 5.450645 41.902122 5.982415 42.035064 
L 7.677433 44.029203 
M 1.661782 47.153353 
Q 8.175967 46.156284 13.992204 46.006723 
Q 19.808441 45.857163 26.688218 46.023341 
M 16.418406 35.587351 
Q 16.518113 35.753529 16.501495 36.617655 
Q 16.484877 37.481782 16.518113 37.681196 
L 16.518113 40.373283 
L 16.252227 45.026272 
M 10.735111 36.684127 
L 10.735111 36.88354 
Q 10.735111 40.406518 11.167175 42.666542 
L 11.366589 45.524807 
M 8.375381 31.167011 
Q 8.674502 31.034068 9.438921 31.000832 
Q 10.203341 30.967597 10.568933 30.768183 
L 17.016647 30.33612 
M 8.175967 34.856166 
L 18.911079 34.424103 
M 8.175967 27.477855 
L 19.409613 27.245205 
L 19.409613 27.943154 
L 18.21313 34.324396 
M 7.976553 27.976389 
Q 7.943318 28.076096 7.976553 28.474924 
L 7.976553 31.765252 
L 8.375381 33.958804 
" clip-path="url(#pd25f1206e3)" style="fill: none; stroke: #000000; stroke-linejoin: miter"/>
   </g>
  </g>
  <g id="axes_2">
   <g id="patch_3">
    <path d="M 45.981544 38.483758 
L 45.981544 38.769161 
Q 47.186577 40.545 49.755201 42.669664 
Q 52.323826 44.794329 54.638758 46.316477 
L 55.11443 46.792148 
M 52.19698 34.805235 
L 52.19698 35.185772 
Q 52.19698 40.608423 48.201342 44.794329 
L 45.505872 46.792148 
M 47.91594 35.185772 
L 48.296477 35.185772 
Q 49.27953 35.217483 50.421141 34.900369 
Q 51.562752 34.583255 52.355537 34.519832 
Q 53.338591 34.519832 53.78255 34.23443 
M 50.38943 28.462953 
Q 48.708725 33.631913 47.440268 36.137114 
L 45.632718 38.356913 
M 39.353859 38.991141 
Q 39.892953 38.578893 40.352768 38.51547 
Q 40.812584 38.452047 41.193121 38.531326 
Q 41.573658 38.610604 42.366443 38.388624 
Q 42.461577 38.356913 42.588423 38.309346 
Q 42.715268 38.261779 42.794547 38.245923 
Q 42.873826 38.230067 42.96896 38.198356 
Q 43.064094 38.166644 43.111661 38.198356 
Q 43.159228 38.230067 43.222651 38.277634 
Q 43.286074 38.325201 43.30193 38.452047 
Q 43.317785 38.578893 43.317785 38.769161 
Q 43.317785 42.003725 42.715268 46.950705 
L 44.586242 43.557584 
M 39.068456 38.388624 
L 39.068456 38.769161 
Q 39.068456 39.688792 38.529362 41.401208 
Q 37.990268 43.113624 37.895134 43.621007 
L 36.372987 46.189631 
M 38.117114 37.056745 
Q 38.783054 36.803054 40.289346 36.644497 
Q 41.795638 36.48594 42.493289 36.232248 
L 44.744799 35.502886 
M 41.193121 26.623691 
Q 41.161409 26.655403 41.177265 27.051795 
Q 41.193121 27.448188 41.193121 27.479899 
L 41.510235 31.190134 
L 41.256544 34.139295 
M 45.252181 29.382584 
L 44.744799 34.107584 
M 38.053691 30.714463 
Q 38.02198 31.158423 38.053691 32.90255 
Q 38.053691 32.965973 37.990268 33.187953 
Q 37.926846 33.409933 37.863423 33.631913 
Q 37.8 33.853893 37.768289 34.091728 
Q 37.736577 34.329564 37.8 34.472265 
Q 37.863423 34.614966 38.02198 34.614966 
Q 39.100168 34.614966 41.541946 33.885604 
L 44.491107 33.505067 
M 33.170134 36.105403 
Q 33.709228 41.464631 32.789597 47.236107 
M 35.738758 32.395168 
Q 33.74094 35.090638 33.265268 35.82 
L 29.93557 39.530235 
M 35.263087 27.448188 
Q 34.819128 29.192315 34.105621 30.397349 
Q 33.392114 31.602383 32.218792 32.870839 
L 31.552852 33.34651 
" clip-path="url(#p1ec4a420e1)" style="fill: none; stroke: #000000; stroke-linejoin: miter"/>
   </g>
  </g>
  <g id="axes_3">
   <g id="patch_4">
    <path d="M 75.779786 39.730345 
L 75.982045 42.865363 
Q 75.847206 44.651986 77.246165 45.393603 
Q 78.645125 46.13522 80.532878 46.00038 
Q 80.768847 46.00038 81.325059 45.899251 
Q 81.881272 45.798121 82.150951 45.798121 
L 82.959988 45.798121 
Q 83.094828 45.798121 83.229667 45.376748 
Q 83.364507 44.955375 83.364507 44.685696 
Q 83.364507 44.651986 83.263377 43.977788 
L 83.195957 43.269881 
M 74.431391 40.404542 
Q 74.128002 40.87648 73.53808 41.972051 
Q 72.948157 43.067622 72.594203 43.64069 
Q 72.24025 44.213757 71.481778 44.921665 
Q 70.723306 45.629572 69.813139 46.00038 
L 69.206361 46.20264 
M 72.442509 37.303234 
L 77.1956 36.797586 
Q 77.22931 36.797586 77.39786 36.814441 
Q 77.566409 36.831296 77.600119 36.696457 
M 73.251546 39.426956 
L 78.409156 39.426956 
M 71.734602 35.82 
Q 72.307669 35.651451 75.678656 35.213222 
Q 76.319144 35.213222 77.633829 34.994108 
Q 78.948514 34.774994 79.622711 34.774994 
Q 78.881094 36.797586 78.611415 37.505493 
L 78.308026 39.224697 
M 71.431213 35.617741 
L 73.251546 38.719049 
M 69.105232 34.370476 
L 69.50975 34.370476 
Q 70.015398 34.370476 70.605321 34.269346 
Q 71.195244 34.168216 71.936861 33.999667 
Q 72.678478 33.831118 73.049287 33.763698 
L 81.881272 32.786112 
M 76.791082 30.932069 
Q 76.588823 30.932069 76.521403 31.218603 
Q 76.453983 31.505137 76.285434 31.538847 
L 75.779786 33.561439 
M 72.543639 31.033199 
L 73.757194 32.954661 
M 71.026694 31.168038 
L 78.375446 30.291581 
L 79.184483 30.089322 
M 74.262842 27.898181 
L 76.285434 29.448835 
M 64.52069 34.404185 
L 64.621819 45.225054 
Q 64.722949 45.225054 65.110612 44.854245 
Q 65.498276 44.483436 65.835375 44.078918 
L 66.138763 43.708109 
L 67.756837 41.786647 
M 60.441795 39.022438 
Q 61.689061 38.247111 64.082461 37.808882 
Q 66.475862 37.370654 67.352319 37.033555 
Q 67.487158 37.033555 67.773692 36.98299 
Q 68.060226 36.932426 68.161356 36.932426 
Q 68.363615 36.865006 68.549019 36.915571 
Q 68.734423 36.966136 68.953537 36.932426 
Q 69.172652 36.898716 69.273781 36.730166 
M 61.89132 35.010963 
Q 62.160999 34.977253 62.818341 34.707574 
Q 63.475684 34.437895 63.913912 34.505315 
L 65.633115 34.100797 
L 66.846671 33.999667 
M 61.89132 31.235458 
L 66.678121 30.898359 
M 63.307134 28.10044 
L 62.093579 31.033199 
L 59.801308 34.774994 
L 58.385493 36.291938 
" clip-path="url(#p1737fcd616)" style="fill: none; stroke: #000000; stroke-linejoin: miter"/>
   </g>
  </g>
  <g id="axes_4">
   <g id="patch_5">
    <path d="M 103.108129 38.345612 
L 103.013419 43.175846 
Q 103.171269 43.680969 103.486971 44.059811 
Q 103.802673 44.438653 104.102589 44.691214 
Q 104.402506 44.943775 104.923413 45.117411 
Q 105.444321 45.291047 105.775807 45.385757 
Q 106.107294 45.480468 106.770267 45.512038 
Q 107.433241 45.543608 107.733157 45.559393 
Q 108.033073 45.575178 108.743402 45.559393 
Q 109.453731 45.543608 109.643151 45.543608 
Q 110.337695 45.669889 110.763892 45.306832 
Q 111.190089 44.943775 111.300585 44.454438 
Q 111.41108 43.9651 111.553146 43.223202 
Q 111.695212 42.481303 111.821492 42.134031 
M 103.013419 31.242327 
Q 102.855568 31.558029 102.823998 31.936871 
Q 102.792428 32.315713 102.823998 32.83662 
Q 102.855568 33.357528 102.823998 33.610089 
Q 102.634577 36.261982 102.255735 37.87206 
Q 101.876893 39.482138 100.929788 40.681804 
Q 99.982684 41.88147 98.846158 42.607584 
Q 97.709633 43.333697 95.531292 44.312372 
L 92.784688 44.975345 
M 97.899053 28.969276 
Q 98.277895 28.937706 99.351281 28.70093 
Q 100.424666 28.464154 101.024499 28.495724 
L 105.949443 28.495724 
Q 107.117539 28.495724 107.638447 29.316548 
Q 108.159354 30.137372 108.143569 31.510674 
Q 108.127784 32.883976 107.954148 34.304633 
Q 107.780512 35.72529 107.606876 37.335367 
Q 107.433241 38.945445 107.559521 39.82941 
M 98.183185 29.348118 
L 98.183185 32.094722 
Q 98.183185 32.757695 98.467316 37.177517 
L 98.656737 38.977016 
M 88.049165 33.79951 
Q 88.648998 34.841325 89.880234 36.056776 
Q 91.11147 37.272227 92.23221 38.471893 
Q 93.352951 39.671559 93.826503 40.776514 
L 94.584187 42.007751 
M 86.628508 30.389933 
L 87.575612 30.389933 
Q 89.753953 30.484644 92.405846 30.011091 
Q 92.437416 30.011091 93.13196 29.916381 
Q 93.826503 29.82167 94.347411 29.72696 
Q 94.868318 29.632249 94.868318 29.537539 
Q 94.899889 29.75853 94.852533 29.979521 
Q 94.805178 30.200512 94.663112 30.484644 
Q 94.521047 30.768775 94.489477 30.863486 
Q 93.637082 33.231247 92.437416 35.204382 
Q 91.237751 37.177517 89.564532 39.450568 
Q 87.891314 41.723619 87.00735 43.175846 
L 86.628508 43.554688 
" clip-path="url(#pe57be59315)" style="fill: none; stroke: #000000; stroke-linejoin: miter"/>
   </g>
  </g>
  <g id="axes_5">
   <g id="patch_6">
    <path d="M 130.269421 41.10843 
Q 131.039256 41.342727 131.725413 42.664835 
Q 132.41157 43.986942 132.880165 44.321653 
L 133.583058 45.024545 
M 123.340909 41.275785 
Q 123.173554 41.643967 122.58781 41.978678 
Q 122.002066 42.313388 121.834711 42.815455 
L 119.893388 44.522479 
M 127.357438 39.401405 
L 127.357438 39.602231 
Q 127.491322 40.238182 127.575 41.024752 
Q 127.658678 41.811322 127.658678 42.380331 
Q 127.658678 42.949339 127.658678 43.92 
Q 127.658678 44.890661 127.658678 45.325785 
Q 127.72562 45.827851 127.658678 46.112355 
Q 127.591736 46.39686 127.641942 46.647893 
Q 127.692149 46.898926 127.575 46.949132 
Q 127.457851 46.999339 127.441116 47.03281 
Q 127.42438 47.066281 127.206818 46.949132 
Q 126.989256 46.831983 126.838636 46.73157 
Q 126.688017 46.631157 126.319835 46.380124 
Q 125.951653 46.129091 125.650413 45.928264 
L 123.742562 45.325785 
M 121.232231 39.200579 
L 122.336777 39.200579 
L 127.257025 39.200579 
L 133.415702 38.731983 
M 124.110744 36.522893 
Q 124.278099 36.723719 125.081405 36.640041 
Q 125.884711 36.556364 126.119008 36.623306 
Q 126.453719 36.556364 127.608471 36.656777 
Q 128.763223 36.75719 129.030992 36.422479 
M 129.030992 31.77 
Q 129.231818 31.602645 130.018388 31.853678 
Q 130.804959 32.104711 131.139669 31.970826 
Q 131.608264 31.77 134.051653 31.77 
Q 134.219008 31.77 134.536983 31.719793 
Q 134.854959 31.669587 134.955372 31.669587 
Q 134.921901 31.669587 132.143802 34.079504 
L 131.440909 34.983223 
M 127.926446 32.807603 
Q 128.02686 32.941488 128.21095 33.075372 
Q 128.395041 33.209256 128.66281 33.376612 
Q 128.930579 33.543967 129.030992 33.610909 
Q 129.399174 33.878678 139.473967 40.740248 
L 140.076446 41.041488 
M 119.592149 34.213388 
Q 119.525207 34.347273 119.608884 34.43095 
Q 119.692562 34.514628 119.826446 34.598306 
Q 119.960331 34.681983 119.993802 34.715455 
L 120.997934 36.020826 
M 115.977273 36.522893 
Q 116.278512 36.556364 116.713636 36.958017 
Q 117.14876 37.359669 117.282645 37.426612 
L 118.186364 38.330331 
M 121.19876 32.506364 
L 125.918182 32.506364 
L 116.880992 40.639835 
L 115.073554 41.44314 
M 122.002066 30.397686 
L 122.002066 30.698926 
Q 121.667355 31.334876 121.04814 31.820207 
Q 120.428926 32.305537 120.194628 32.70719 
L 118.588017 33.912149 
M 126.48719 26.347686 
L 127.491322 27.117521 
Q 127.591736 27.41876 128.043595 27.636322 
Q 128.495455 27.853884 128.595868 28.02124 
M 118.68843 28.858017 
L 137.365289 28.289008 
L 136.260744 29.59438 
M 119.391322 27.217934 
L 119.391322 27.519174 
L 119.391322 27.820413 
L 118.286777 30.966694 
" clip-path="url(#p38ae8abb5f)" style="fill: none; stroke: #000000; stroke-linejoin: miter"/>
   </g>
  </g>
  <g id="axes_6">
   <g id="patch_7">
    <path d="M 156.133968 45.537015 
L 164.283722 44.701143 
L 166.582371 44.492174 
M 161.149201 31.048563 
L 161.149201 43.133882 
L 161.044717 44.074238 
L 160.731265 45.328047 
M 156.133968 37.840025 
L 156.551904 37.840025 
Q 158.049509 37.840025 160.957647 37.47433 
Q 163.865786 37.108636 165.328563 37.108636 
Q 165.537531 36.760356 166.321161 37.004152 
Q 167.104791 37.247948 167.313759 36.899668 
M 155.298096 30.735111 
L 155.611548 30.735111 
L 156.342936 30.526143 
Q 156.377764 30.526143 160.835749 30.21269 
L 168.3586 30.21269 
L 168.3586 34.0786 
Q 168.323771 35.47172 168.132217 38.536585 
Q 167.940663 41.60145 167.940663 43.969754 
Q 167.940663 44.004582 168.045147 47.208759 
L 165.328563 45.954951 
M 155.611548 30.944079 
L 155.298096 43.238366 
L 155.40258 45.537015 
M 143.4914 44.596658 
L 144.013821 44.596658 
Q 145.128317 44.596658 146.451781 44.335448 
Q 147.775246 44.074238 149.35992 43.638888 
Q 150.944595 43.203538 151.745639 43.029398 
L 152.790479 42.715946 
M 152.581511 30.769939 
Q 151.954607 31.292359 151.014251 33.277555 
L 149.44699 35.193096 
Q 149.307678 35.332408 148.088698 36.499146 
Q 146.869717 37.665885 145.964189 38.658483 
Q 145.058661 39.651081 145.058661 39.999361 
Q 145.058661 39.964533 147.775246 39.267973 
L 151.432187 39.059005 
L 152.163575 38.850037 
M 149.760442 27.147826 
Q 149.168366 27.635418 148.349908 28.90664 
Q 147.53145 30.177862 147.252826 30.491314 
Q 146.382125 31.536155 145.999017 32.163059 
L 144.849693 34.043771 
L 147.148342 33.834803 
L 151.118735 33.312383 
" clip-path="url(#pceec75c33a)" style="fill: none; stroke: #000000; stroke-linejoin: miter"/>
   </g>
  </g>
  <g id="axes_7">
   <g id="patch_8">
    <path d="M 184.290698 30.953721 
Q 184.290698 30.953721 184.667442 30.953721 
Q 185.986047 30.953721 187.477326 30.718256 
Q 188.968605 30.482791 190.883721 30.074651 
Q 192.798837 29.666512 193.583721 29.54093 
L 192.861628 40.937442 
L 190.224419 38.771163 
M 186.739535 26.526977 
L 186.739535 26.809535 
Q 186.739535 27.72 186.143023 28.614767 
Q 185.546512 29.509535 184.604651 30.467093 
Q 183.662791 31.424651 183.348837 31.895581 
L 182.030233 32.554884 
M 182.218605 38.363023 
L 182.689535 38.363023 
L 184.667442 38.363023 
L 187.963953 38.174651 
M 182.218605 34.156047 
L 182.501163 34.156047 
Q 183.286047 34.156047 184.808721 33.59093 
Q 186.331395 33.025814 187.116279 33.025814 
Q 187.17907 33.025814 187.24186 33.025814 
Q 187.367442 33.025814 187.414535 33.025814 
Q 187.461628 33.025814 187.477326 33.088605 
Q 187.493023 33.151395 187.493023 33.308372 
L 187.493023 34.344419 
L 187.210465 37.986279 
M 182.124419 34.156047 
L 182.124419 35.286279 
Q 182.124419 36.322326 182.359884 38.363023 
Q 182.595349 40.403721 182.595349 41.408372 
L 182.595349 42.413023 
Q 182.877907 44.704884 184.118023 45.835116 
Q 185.35814 46.965349 187.744186 47.02814 
Q 187.806977 47.02814 189.078488 47.106628 
Q 190.35 47.185116 191.464535 47.216512 
Q 192.57907 47.247907 193.897674 47.185116 
Q 195.216279 47.122326 196.001163 46.82407 
Q 196.786047 46.525814 196.786047 45.992093 
Q 196.723256 45.74093 196.801744 44.924651 
Q 196.880233 44.108372 196.62907 43.92 
M 173.930233 38.080465 
L 174.872093 38.080465 
L 177.886047 37.609535 
M 173.930233 33.182791 
L 174.495349 33.182791 
Q 174.526744 33.182791 178.262791 32.900233 
M 173.459302 28.567674 
L 180.240698 27.531628 
L 180.146512 29.792093 
L 179.95814 32.617674 
Q 179.612791 33.873488 179.565698 35.34907 
Q 179.518605 36.824651 179.581395 38.598488 
Q 179.644186 40.372326 179.581395 41.376977 
Q 179.581395 41.471163 179.659884 43.103721 
Q 179.738372 44.736279 179.659884 45.976395 
Q 179.581395 47.216512 179.204651 47.216512 
Q 179.173256 47.216512 178.545349 46.651395 
L 177.980233 46.368837 
M 173.74186 28.567674 
L 173.930233 37.232791 
L 173.74186 43.260698 
L 172.894186 45.238605 
L 172.234884 45.992093 
L 171.669767 46.557209 
" clip-path="url(#p0540337cbf)" style="fill: none; stroke: #000000; stroke-linejoin: miter"/>
   </g>
  </g>
  <g id="axes_8">
   <g id="patch_9">
    <path d="M 211.162903 36.94469 
Q 211.200393 37.019669 211.462821 37.263352 
Q 211.725248 37.507034 211.837717 37.619503 
Q 211.950186 37.731972 212.193869 38.013145 
Q 212.437552 38.294317 212.58751 38.463021 
Q 212.737469 38.631724 212.962407 38.931641 
Q 213.187345 39.231559 213.318559 39.437752 
Q 213.449772 39.643945 213.599731 39.943862 
Q 213.74969 40.243779 213.843414 40.487462 
Q 213.937138 40.731145 214.012117 41.012317 
Q 214.087097 41.29349 214.087097 41.555917 
Q 214.087097 42.118262 213.937138 42.605628 
Q 213.787179 43.092993 213.506007 43.636593 
Q 213.224834 44.180193 213.074876 44.592579 
L 211.950186 45.717269 
" clip-path="url(#p8cfdad9fbe)" style="fill: none; stroke: #000000; stroke-linejoin: miter"/>
   </g>
  </g>
 </g>
 <defs>
  <clipPath id="pd25f1206e3">
   <rect x="0" y="11.724162" width="28.35" height="48.191676"/>
  </clipPath>
  <clipPath id="p1ec4a420e1">
   <rect x="28.35" y="12.829228" width="28.35" height="45.981544"/>
  </clipPath>
  <clipPath id="p1737fcd616">
   <rect x="56.7" y="11.380345" width="28.35" height="48.87931"/>
  </clipPath>
  <clipPath id="pe57be59315">
   <rect x="85.05" y="12.931637" width="28.35" height="45.776726"/>
  </clipPath>
  <clipPath id="p38ae8abb5f">
   <rect x="113.4" y="11.553471" width="28.35" height="48.533058"/>
  </clipPath>
  <clipPath id="pceec75c33a">
   <rect x="141.75" y="10.569693" width="28.35" height="50.500614"/>
  </clipPath>
  <clipPath id="p0540337cbf">
   <rect x="170.1" y="13.058372" width="28.35" height="45.523256"/>
  </clipPath>
  <clipPath id="p8cfdad9fbe">
   <rect x="209.288421" y="8.64" width="6.673159" height="54.36"/>
  </clipPath>
 </defs>
</svg>
