<?xml version="1.0" encoding="utf-8" standalone="no"?>
<!DOCTYPE svg PUBLIC "-//W3C//DTD SVG 1.1//EN"
  "http://www.w3.org/Graphics/SVG/1.1/DTD/svg11.dtd">
<svg xmlns:xlink="http://www.w3.org/1999/xlink" width="189pt" height="72pt" viewBox="0 0 189 72" xmlns="http://www.w3.org/2000/svg" version="1.1">
 <metadata>
  <rdf:RDF xmlns:dc="http://purl.org/dc/elements/1.1/" xmlns:cc="http://creativecommons.org/ns#" xmlns:rdf="http://www.w3.org/1999/02/22-rdf-syntax-ns#">
   <cc:Work>
    <dc:type rdf:resource="http://purl.org/dc/dcmitype/StillImage"/>
    <dc:date>2023-02-03T21:30:49.563387</dc:date>
    <dc:format>image/svg+xml</dc:format>
    <dc:creator>
     <cc:Agent>
      <dc:title>Matplotlib v3.6.1, https://matplotlib.org/</dc:title>
     </cc:Agent>
    </dc:creator>
   </cc:Work>
  </rdf:RDF>
 </metadata>
 <defs>
  <style type="text/css">*{stroke-linejoin: round; stroke-linecap: butt}</style>
 </defs>
 <g id="figure_1">
  <g id="patch_1">
   <path d="M 0 72 
L 189 72 
L 189 0 
L 0 0 
z
" style="fill: #8fff9f"/>
  </g>
  <g id="axes_1">
   <g id="patch_2">
    <path d="M 19.18706 36.956756 
Q 18.94593 38.506877 18.773694 41.400437 
Q 18.773694 44.707363 20.358262 45.947461 
Q 21.942831 47.187558 25.387546 47.187558 
Q 26.076488 47.256452 26.352066 46.670851 
Q 26.627643 46.085249 26.558748 45.258518 
Q 26.489854 44.431786 26.489854 43.656725 
Q 26.489854 42.881665 26.627643 42.537193 
M 17.120231 36.54339 
L 17.120231 36.750073 
Q 17.120231 37.783487 15.794016 41.383214 
Q 14.467801 44.98294 13.847752 45.947461 
L 12.917679 46.670851 
M 21.460571 25.520304 
L 19.393742 27.793815 
M 14.226671 26.243694 
Q 14.846719 26.760401 15.776792 28.413864 
M 15.156744 36.130024 
Q 16.259052 36.54339 18.549787 36.526166 
Q 20.840522 36.508943 21.977278 36.853414 
M 13.813305 31.307424 
Q 14.433354 31.23853 15.949028 30.945729 
Q 17.464702 30.652928 18.256987 30.584034 
L 22.287303 30.584034 
Q 22.528433 30.584034 23.09681 30.377351 
Q 23.665188 30.170668 23.837424 30.170668 
Q 24.044107 30.239563 24.044107 30.27401 
Q 24.044107 31.066294 23.182928 32.461403 
Q 22.32175 33.856513 22.183961 34.269878 
L 21.770595 36.54339 
M 13.709964 31.204083 
L 15.260085 35.716659 
M 3.37582 39.023584 
Q 3.823633 38.71356 4.839824 38.592995 
Q 5.856015 38.47243 6.26938 38.300194 
L 9.025152 38.334642 
M 3.37582 31.893026 
L 9.88633 31.893026 
M 3.582503 26.725954 
L 10.334143 26.725954 
Q 10.093013 29.102807 9.989672 31.910249 
Q 9.88633 34.717691 9.903554 36.750073 
Q 9.920778 38.782454 9.955225 42.072157 
Q 9.989672 45.361859 9.989672 47.084216 
L 9.989672 47.807606 
Q 9.989672 47.842053 9.989672 47.910948 
Q 9.955225 47.979842 9.920778 47.979842 
Q 9.714095 47.876501 9.369623 47.910948 
L 7.819502 45.947461 
M 3.169137 26.725954 
L 3.169137 27.035978 
Q 3.61695 28.689441 3.703068 30.635705 
Q 3.789186 32.581968 3.703068 34.941598 
Q 3.61695 37.301227 3.685844 38.610219 
Q 3.892527 42.433852 2.755772 46.774192 
L 1.722357 47.807606 
" clip-path="url(#p960b53e261)" style="fill: none; stroke: #000000; stroke-linejoin: miter"/>
   </g>
  </g>
  <g id="axes_2">
   <g id="patch_3">
    <path d="M 36.020545 39.493986 
L 43.10609 39.493986 
M 32.871414 41.855834 
L 44.680655 41.518428 
L 45.805345 41.743366 
M 39.507083 37.357076 
L 39.507083 39.831393 
Q 39.507083 41.21851 39.450848 42.699352 
Q 39.394614 44.180193 39.30089 45.942207 
Q 39.207166 47.704221 39.169676 48.791421 
M 35.4582 37.132138 
L 44.11831 37.132138 
M 43.668434 32.745848 
L 43.668434 32.970786 
Q 43.555966 33.158234 43.293538 33.514386 
Q 43.03111 33.870538 42.862407 34.170455 
Q 42.693703 34.470372 42.656214 34.77029 
Q 42.506255 35.107697 41.531524 36.682262 
M 35.570669 33.308193 
Q 35.945566 33.60811 36.864062 34.620331 
Q 37.782559 35.632552 38.382393 36.007448 
M 34.108572 32.295972 
L 41.531524 31.696138 
L 44.455717 31.171283 
L 47.042503 30.833876 
L 46.817566 36.119917 
L 46.817566 39.606455 
Q 46.817566 40.918593 47.229952 42.493159 
Q 47.642338 44.067724 48.692048 45.417352 
Q 49.741759 46.766979 51.166366 46.766979 
Q 51.80369 45.979697 52.178586 43.842786 
M 38.457372 29.409269 
L 43.0686 29.034372 
L 44.530697 28.809434 
M 36.882807 26.522566 
L 46.217731 25.922731 
M 37.782559 24.723062 
L 37.782559 25.060469 
Q 37.782559 26.297628 37.145234 27.066166 
Q 36.50791 27.834703 36.320462 28.584497 
L 35.308241 29.709186 
" clip-path="url(#p84dcad8985)" style="fill: none; stroke: #000000; stroke-linejoin: miter"/>
   </g>
  </g>
  <g id="axes_3">
   <g id="patch_4">
    <path d="M 77.364981 43.909494 
Q 78.284241 44.791984 81.667121 47.329144 
L 82.218677 48.321946 
M 79.681518 39.27642 
L 79.681518 39.717665 
Q 79.681518 40.784008 79.148346 41.758424 
Q 78.615175 42.73284 77.934922 43.357938 
Q 77.254669 43.983035 76.372179 44.81037 
Q 75.489689 45.637704 75.048444 46.226031 
L 71.739105 47.660078 
M 80.343385 31.775253 
Q 77.401751 38.614553 72.290661 42.365136 
L 70.41537 43.027004 
M 75.489689 30.341206 
Q 75.232296 30.892763 74.625584 31.885564 
Q 74.018872 32.878366 73.835019 33.319611 
Q 73.614397 33.797626 72.676751 35.084591 
Q 71.739105 36.371556 71.29786 36.886342 
L 78.247471 35.305214 
M 74.938132 25.928755 
L 76.923735 27.804047 
M 71.628794 30.451518 
L 79.129961 29.458716 
Q 79.791829 29.201323 81.20749 29.072626 
Q 82.623152 28.94393 83.211479 28.686537 
M 63.61284 34.716887 
Q 63.723152 34.863969 64.146012 35.102977 
Q 64.568872 35.341984 64.715953 35.489066 
L 66.922179 37.915914 
M 63.281907 30.855992 
L 63.281907 31.738482 
Q 63.281907 32.878366 62.987743 33.963093 
Q 62.69358 35.047821 62.160409 36.298016 
Q 61.627237 37.54821 61.406615 38.35716 
L 59.3107 41.114942 
L 58.869455 41.335564 
M 58.538521 31.186926 
L 67.363424 30.966304 
L 69.128405 30.525058 
M 63.61284 25.119805 
L 63.502529 45.858327 
L 63.392218 47.84393 
" clip-path="url(#p9e0c9fa8ad)" style="fill: none; stroke: #000000; stroke-linejoin: miter"/>
   </g>
  </g>
  <g id="axes_4">
   <g id="patch_5">
    <path d="M 101.672364 46.693523 
L 101.968019 46.693523 
Q 104.103302 46.693523 106.402839 46.332167 
L 107.388355 46.463569 
M 101.179606 42.258702 
L 101.475261 42.258702 
L 108.702375 41.963048 
Q 108.702375 41.995898 108.308169 42.554357 
L 107.684009 46.167914 
M 100.686848 42.652908 
L 101.179606 46.200765 
M 104.56321 30.892422 
Q 104.727462 31.056674 104.678187 31.516582 
Q 104.628911 31.976489 104.760313 32.173592 
L 104.530359 40.057717 
M 101.015353 35.590046 
L 101.902317 35.590046 
L 106.632793 35.590046 
L 111.757474 35.524345 
M 101.311008 38.34949 
L 107.421205 38.119537 
L 108.308169 38.218088 
M 100.916802 33.060556 
L 108.111066 32.764902 
L 108.111066 32.962005 
L 108.111066 33.454762 
L 107.913963 38.218088 
M 101.705214 26.654705 
L 104.858864 28.132978 
M 99.241425 30.399664 
L 99.438528 30.399664 
Q 100.292642 30.399664 101.393134 30.333963 
Q 102.493627 30.268262 103.807648 30.153285 
Q 105.121669 30.038308 105.745829 30.005458 
L 108.702375 29.808355 
M 99.142874 29.906906 
L 99.044322 37.199722 
L 97.073291 44.755342 
L 95.299363 47.022028 
M 94.773754 27.935875 
Q 94.4781 28.592885 94.4781 28.724287 
L 93.394032 30.892422 
M 87.57949 28.23153 
Q 87.743743 28.362932 87.957271 28.675012 
Q 88.1708 28.987092 88.269351 29.118494 
L 89.846176 31.089525 
M 92.408517 37.10117 
L 92.704171 37.396825 
L 94.773754 40.057717 
M 91.817207 33.94752 
Q 90.634589 38.645145 87.875145 41.437439 
L 86.692526 42.324403 
M 86.889629 33.94752 
Q 92.868424 33.94752 95.463615 33.651866 
L 97.04044 33.553314 
M 91.32445 26.654705 
L 91.32445 26.851808 
Q 91.32445 27.673071 91.439426 28.642161 
Q 91.554403 29.611251 91.751506 30.777445 
Q 91.94861 31.943638 92.014311 32.567798 
L 92.112862 46.365017 
" clip-path="url(#p5e5d824a0d)" style="fill: none; stroke: #000000; stroke-linejoin: miter"/>
   </g>
  </g>
  <g id="axes_5">
   <g id="patch_6">
    <path d="M 134.064981 43.909494 
Q 134.984241 44.791984 138.367121 47.329144 
L 138.918677 48.321946 
M 136.381518 39.27642 
L 136.381518 39.717665 
Q 136.381518 40.784008 135.848346 41.758424 
Q 135.315175 42.73284 134.634922 43.357938 
Q 133.954669 43.983035 133.072179 44.81037 
Q 132.189689 45.637704 131.748444 46.226031 
L 128.439105 47.660078 
M 137.043385 31.775253 
Q 134.101751 38.614553 128.990661 42.365136 
L 127.11537 43.027004 
M 132.189689 30.341206 
Q 131.932296 30.892763 131.325584 31.885564 
Q 130.718872 32.878366 130.535019 33.319611 
Q 130.314397 33.797626 129.376751 35.084591 
Q 128.439105 36.371556 127.99786 36.886342 
L 134.947471 35.305214 
M 131.638132 25.928755 
L 133.623735 27.804047 
M 128.328794 30.451518 
L 135.829961 29.458716 
Q 136.491829 29.201323 137.90749 29.072626 
Q 139.323152 28.94393 139.911479 28.686537 
M 120.31284 34.716887 
Q 120.423152 34.863969 120.846012 35.102977 
Q 121.268872 35.341984 121.415953 35.489066 
L 123.622179 37.915914 
M 119.981907 30.855992 
L 119.981907 31.738482 
Q 119.981907 32.878366 119.687743 33.963093 
Q 119.39358 35.047821 118.860409 36.298016 
Q 118.327237 37.54821 118.106615 38.35716 
L 116.0107 41.114942 
L 115.569455 41.335564 
M 115.238521 31.186926 
L 124.063424 30.966304 
L 125.828405 30.525058 
M 120.31284 25.119805 
L 120.202529 45.858327 
L 120.092218 47.84393 
" clip-path="url(#p6030aec57d)" style="fill: none; stroke: #000000; stroke-linejoin: miter"/>
   </g>
  </g>
  <g id="axes_6">
   <g id="patch_7">
    <path d="M 158.947491 38.438415 
Q 161.630559 42.382201 168.483694 47.263444 
M 160.014253 37.080718 
L 165.251083 36.692805 
Q 165.44504 36.692805 165.348062 36.98374 
Q 164.087343 40.959852 162.632668 42.931745 
Q 161.177993 44.903637 158.430274 46.196682 
L 157.654447 46.29366 
M 159.917275 35.723022 
Q 160.014253 35.690696 160.095068 35.803837 
Q 160.175884 35.916978 160.111231 36.013957 
Q 160.111231 36.498848 159.78797 37.032229 
Q 159.464709 37.56561 158.947491 38.163643 
Q 158.430274 38.761676 158.268643 39.020285 
L 157.104903 39.89309 
M 163.11756 33.298563 
L 165.735975 35.044173 
M 158.365621 32.425758 
Q 158.300969 32.684367 158.026197 33.217748 
Q 157.751425 33.751129 157.686773 34.07439 
L 156.523033 35.82 
M 162.438712 28.546625 
Q 162.471038 28.902212 162.988255 29.387104 
Q 163.505473 29.871995 163.602452 30.0013 
L 164.766192 31.16504 
M 161.662885 26.219145 
Q 161.145667 26.833341 160.386003 27.512189 
Q 159.62634 28.191038 159.238426 28.498136 
Q 158.850513 28.805234 157.702936 29.645713 
Q 156.555359 30.486192 156.426055 30.58317 
Q 156.426055 30.680148 156.668501 30.696311 
Q 156.910946 30.712474 157.137229 30.680148 
L 157.395838 30.680148 
Q 158.04236 30.680148 158.397948 30.680148 
Q 158.04236 30.680148 158.656556 30.615496 
Q 158.947491 30.615496 159.432383 30.58317 
L 163.505473 30.098278 
M 147.116135 39.569829 
L 152.159008 39.666807 
M 144.530046 43.96618 
L 144.724002 43.96618 
Q 146.534265 43.96618 149.346636 43.707571 
Q 152.159008 43.448962 153.031813 43.38431 
M 143.657241 32.070171 
L 144.142132 32.070171 
Q 144.174458 32.070171 144.820981 31.973193 
L 154.486488 31.973193 
L 154.486488 46.29366 
L 153.80764 45.420855 
L 152.6439 44.645029 
M 143.366306 31.682258 
L 143.366306 32.070171 
Q 143.689567 33.49252 143.754219 35.011847 
Q 143.818871 36.531174 143.770382 38.470741 
Q 143.721893 40.410308 143.754219 41.444743 
Q 143.754219 41.541722 143.754219 41.945798 
Q 143.754219 42.349875 143.770382 42.559994 
Q 143.786545 42.770114 143.835034 43.093375 
Q 143.883523 43.416636 143.980502 43.59443 
Q 144.07748 43.772223 144.239111 43.869202 
M 150.057811 28.158712 
L 149.831528 35.011847 
L 152.6439 37.048392 
M 147.924287 28.449647 
L 147.924287 29.031517 
Q 147.924287 30.615496 147.229276 33.621824 
Q 146.534265 36.628153 146.437286 37.145371 
L 145.855416 37.339327 
M 144.627024 28.643603 
L 145.014937 28.643603 
L 145.984721 28.643603 
Q 146.792873 28.643603 147.77882 28.498136 
Q 148.764766 28.352668 150.009322 28.110222 
Q 151.253877 27.867777 151.803421 27.770798 
L 153.742987 27.479863 
" clip-path="url(#p246af0fa63)" style="fill: none; stroke: #000000; stroke-linejoin: miter"/>
   </g>
  </g>
 </g>
 <defs>
  <clipPath id="p960b53e261">
   <rect x="0" y="10.84582" width="28.35" height="49.94836"/>
  </clipPath>
  <clipPath id="p84dcad8985">
   <rect x="30.996931" y="8.64" width="23.056138" height="54.36"/>
  </clipPath>
  <clipPath id="p9e0c9fa8ad">
   <rect x="56.7" y="9.16144" width="28.35" height="53.317121"/>
  </clipPath>
  <clipPath id="p5e5d824a0d">
   <rect x="85.05" y="12.003372" width="28.35" height="47.633256"/>
  </clipPath>
  <clipPath id="p6030aec57d">
   <rect x="113.4" y="9.16144" width="28.35" height="53.317121"/>
  </clipPath>
  <clipPath id="p246af0fa63">
   <rect x="141.75" y="12.383569" width="28.35" height="46.872862"/>
  </clipPath>
 </defs>
</svg>
