<?xml version="1.0" encoding="utf-8" standalone="no"?>
<!DOCTYPE svg PUBLIC "-//W3C//DTD SVG 1.1//EN"
  "http://www.w3.org/Graphics/SVG/1.1/DTD/svg11.dtd">
<svg xmlns:xlink="http://www.w3.org/1999/xlink" width="315pt" height="72pt" viewBox="0 0 315 72" xmlns="http://www.w3.org/2000/svg" version="1.1">
 <metadata>
  <rdf:RDF xmlns:dc="http://purl.org/dc/elements/1.1/" xmlns:cc="http://creativecommons.org/ns#" xmlns:rdf="http://www.w3.org/1999/02/22-rdf-syntax-ns#">
   <cc:Work>
    <dc:type rdf:resource="http://purl.org/dc/dcmitype/StillImage"/>
    <dc:date>2023-02-03T21:30:43.282336</dc:date>
    <dc:format>image/svg+xml</dc:format>
    <dc:creator>
     <cc:Agent>
      <dc:title>Matplotlib v3.6.1, https://matplotlib.org/</dc:title>
     </cc:Agent>
    </dc:creator>
   </cc:Work>
  </rdf:RDF>
 </metadata>
 <defs>
  <style type="text/css">*{stroke-linejoin: round; stroke-linecap: butt}</style>
 </defs>
 <g id="figure_1">
  <g id="patch_1">
   <path d="M 0 72 
L 315 72 
L 315 0 
L 0 0 
z
" style="fill: #8fff9f"/>
  </g>
  <g id="axes_1">
   <g id="patch_2">
    <path d="M 18.48629 26.674839 
Q 18.453629 26.772823 18.48629 27.164758 
Q 18.48629 28.209919 18.780242 31.851653 
Q 19.074194 35.493387 18.845565 37.387742 
L 18.551613 40.13129 
M 13.097177 35.722016 
L 13.587097 35.624032 
L 24.267339 32.7825 
L 23.483468 38.367581 
L 22.895565 39.445403 
L 21.752419 37.616371 
M 14.664919 31.50871 
L 14.860887 33.958306 
L 15.350806 37.485726 
L 15.546774 42.15629 
Q 15.612097 43.299435 16.134677 43.968992 
Q 16.657258 44.638548 17.588105 44.834516 
Q 18.518952 45.030484 19.384476 45.063145 
Q 20.25 45.095806 21.458468 45.030484 
Q 22.666935 44.965161 23.2875 44.997823 
Q 23.581452 45.030484 24.169355 44.981492 
Q 24.757258 44.9325 25.345161 44.703871 
Q 25.933065 44.475242 25.835081 44.115968 
L 26.716935 40.915161 
M 10.157661 33.468387 
L 10.157661 33.664355 
Q 10.157661 36.930484 9.063508 39.069798 
Q 7.969355 41.209113 5.454435 43.266774 
L 1.633065 46.173629 
M 2.025 35.689355 
L 2.514919 35.689355 
Q 3.233468 35.689355 4.948185 35.281089 
Q 6.662903 34.872823 7.414113 34.840161 
L 10.353629 34.350242 
M 7.120161 28.373226 
L 7.120161 28.961129 
Q 6.82621 29.973629 6.662903 32.847823 
Q 6.499597 35.722016 6.042339 36.799839 
Q 6.009677 36.897823 5.732056 37.404073 
Q 5.454435 37.910323 5.32379 38.302258 
Q 5.193145 38.694194 5.32379 38.890161 
Q 5.977016 40.065968 8.263306 41.943992 
Q 10.549597 43.822016 10.941532 44.246613 
L 12.117339 44.834516 
" clip-path="url(#pba48728ccc)" style="fill: none; stroke: #000000; stroke-linejoin: miter"/>
   </g>
  </g>
  <g id="axes_2">
   <g id="patch_3">
    <path d="M 37.124168 40.434303 
L 37.333909 40.434303 
Q 43.171702 41.727707 47.40148 44.524254 
Q 50.442725 46.551751 54.008323 47.565499 
L 54.952158 47.460629 
M 40.165413 38.162109 
Q 40.549938 38.127152 40.584895 37.952367 
L 50.862207 37.637756 
L 51.281689 37.532885 
M 39.745931 33.722589 
Q 40.095499 33.687633 40.165413 33.617719 
L 51.49143 32.813711 
L 51.071948 37.532885 
M 39.850801 33.82746 
Q 40.130456 34.142072 40.112978 34.526597 
Q 40.095499 34.911122 40.165413 35.330604 
L 40.480025 37.218274 
M 38.592355 31.240654 
L 48.555055 30.191948 
L 51.910912 29.562725 
M 45.199199 25.577645 
L 45.40894 28.304279 
L 45.618681 31.450395 
Q 45.828422 34.142072 45.828422 34.177028 
Q 45.793465 36.379309 45.339026 38.529155 
Q 44.884587 40.679001 43.958231 42.741455 
Q 43.031874 44.803909 41.318989 46.167226 
Q 39.606104 47.530543 37.333909 47.67037 
Q 37.194081 47.740284 36.722164 47.77524 
Q 36.250247 47.810197 36.075462 48.089852 
M 33.66344 30.891085 
L 33.453699 43.02111 
L 33.348829 48.054895 
M 36.809556 25.96217 
L 36.809556 26.171911 
Q 36.809556 27.18566 35.935635 28.409149 
Q 35.061714 29.632639 33.715875 30.94352 
Q 32.370037 32.254402 31.985512 32.778755 
L 30.097842 34.037201 
" clip-path="url(#pa52567b9c1)" style="fill: none; stroke: #000000; stroke-linejoin: miter"/>
   </g>
  </g>
  <g id="axes_3">
   <g id="patch_4">
    <path d="M 71.568559 26.822483 
Q 71.531069 26.972441 71.549814 27.778469 
Q 71.568559 28.584497 71.568559 28.734455 
Q 71.568559 30.084083 71.699772 31.527434 
Q 71.830986 32.970786 72.055924 34.7328 
Q 72.280862 36.494814 72.355841 37.507034 
L 72.580779 45.829738 
L 72.130903 48.753931 
M 67.557166 39.006621 
L 74.267814 38.519255 
L 74.71769 38.294317 
L 77.866821 37.95691 
M 67.969552 32.295972 
L 76.629662 31.43371 
L 76.8546 31.208772 
M 65.682683 26.0352 
L 72.580779 25.922731 
Q 74.605221 25.210428 77.641883 25.247917 
Q 77.9418 25.247917 78.372931 25.210428 
Q 78.804062 25.172938 78.954021 25.191683 
Q 79.103979 25.210428 79.291428 25.285407 
Q 79.478876 25.360386 79.516366 25.604069 
Q 79.553855 25.847752 79.553855 26.260138 
Q 79.553855 27.459807 79.328917 29.80291 
Q 79.103979 32.146014 79.103979 33.345683 
Q 79.103979 35.145186 79.403897 38.969131 
Q 79.703814 42.793076 79.666324 44.817517 
Q 80.003731 46.092166 79.910007 46.72949 
Q 79.816283 47.366814 79.591345 47.591752 
Q 79.366407 47.81669 78.860297 47.610497 
Q 78.354186 47.404303 77.829331 47.029407 
Q 77.304476 46.65451 76.629662 46.054676 
M 65.570214 26.0352 
L 65.795152 29.634207 
L 65.795152 40.431228 
Q 65.570214 40.843614 64.839166 42.774331 
Q 64.108117 44.705048 63.320834 45.492331 
Q 63.283345 45.529821 62.908448 46.073421 
Q 62.533552 46.617021 62.289869 46.879448 
Q 62.046186 47.141876 61.746269 47.291834 
" clip-path="url(#p4598165523)" style="fill: none; stroke: #000000; stroke-linejoin: miter"/>
   </g>
  </g>
  <g id="axes_4">
   <g id="patch_5">
    <path d="M 88.282895 27.826579 
Q 91.196053 30.242368 91.693421 30.704211 
M 86.826316 45.802895 
L 86.826316 45.483158 
Q 86.826316 44.950263 87.980921 44.541711 
Q 89.135526 44.133158 89.881579 44.133158 
Q 90.201316 44.097632 90.290132 44.150921 
Q 90.378947 44.204211 90.503289 44.310789 
Q 90.627632 44.417368 90.947368 44.452895 
Q 94.180263 45.731842 98.301316 46.477895 
Q 99.011842 46.62 100.201974 46.850921 
Q 101.392105 47.081842 101.942763 47.170658 
Q 102.493421 47.259474 103.470395 47.348289 
Q 104.447368 47.437105 105.548684 47.437105 
Q 106.401316 47.437105 107.218421 47.259474 
Q 108.035526 47.081842 109.0125 46.797632 
Q 109.989474 46.513421 110.557895 46.371316 
L 111.623684 45.731842 
M 87.288158 34.363421 
L 87.714474 34.363421 
Q 88.638158 34.505526 91.373684 33.368684 
Q 92.617105 32.871316 92.652632 33.084474 
Q 92.688158 33.368684 91.373684 34.754211 
Q 90.201316 35.997632 90.201316 37.312105 
Q 90.201316 37.738421 90.538816 38.058158 
Q 90.876316 38.377895 91.267105 38.537763 
Q 91.657895 38.697632 91.995395 39.070658 
Q 92.332895 39.443684 92.332895 39.976579 
Q 92.332895 40.047632 92.439474 40.260789 
Q 92.546053 40.473947 92.546053 40.616053 
L 92.546053 40.935789 
L 91.160526 44.452895 
M 100.646053 41.113421 
Q 101.107895 41.397632 101.782895 41.966053 
Q 102.457895 42.534474 102.635526 42.889737 
L 104.767105 43.848947 
M 101.178947 37.809474 
Q 101.143421 38.235789 101.178947 38.981842 
Q 101.178947 40.331842 100.770395 41.148947 
Q 100.361842 41.966053 99.615789 42.783158 
Q 98.869737 43.600263 98.514474 44.310789 
L 97.875 44.417368 
M 98.834211 36.637105 
L 102.671053 36.601579 
Q 102.777632 36.566053 103.008553 36.477237 
Q 103.239474 36.388421 103.434868 36.335132 
Q 103.630263 36.281842 103.843421 36.281842 
Q 103.878947 36.281842 103.914474 36.281842 
Q 104.163158 36.281842 104.216447 36.335132 
Q 104.269737 36.388421 104.269737 36.708158 
Q 104.269737 36.743684 103.95 39.798947 
L 103.523684 40.971316 
M 98.407895 36.530526 
Q 98.372368 37.063421 98.621053 37.17 
L 98.940789 41.22 
M 95.85 35.358158 
Q 97.164474 34.789737 100.059868 34.612105 
Q 102.955263 34.434474 104.163158 34.079211 
L 107.680263 33.972632 
M 100.894737 26.547632 
Q 101.036842 26.476579 101.036842 26.618684 
Q 101.036842 26.725263 100.930263 27.045 
Q 100.681579 28.004211 100.965789 28.075263 
L 101.072368 34.931842 
M 98.621053 33.297632 
Q 98.798684 33.226579 99.278289 33.191053 
Q 99.757895 33.155526 100.006579 32.977895 
L 105.228947 32.658158 
M 97.768421 29.958158 
L 98.301316 29.958158 
Q 98.834211 29.958158 99.455921 29.869342 
Q 100.077632 29.780526 100.841447 29.638421 
Q 101.605263 29.496316 102.031579 29.425263 
L 104.589474 29.638421 
L 104.163158 32.551579 
L 103.843421 32.977895 
M 97.875 29.958158 
L 97.875 30.277895 
Q 97.910526 31.556842 98.194737 31.983158 
Q 98.336842 32.480526 98.514474 32.622632 
Q 98.585526 32.658158 98.727632 32.764737 
" clip-path="url(#p275b853a96)" style="fill: none; stroke: #000000; stroke-linejoin: miter"/>
   </g>
  </g>
  <g id="axes_5">
   <g id="patch_6">
    <path d="M 124.482103 34.920248 
Q 127.218848 34.020497 133.029745 33.570621 
L 137.86591 32.5584 
M 125.606793 30.42149 
Q 125.606793 30.42149 126.169138 30.42149 
Q 126.956421 30.42149 127.837428 30.252786 
Q 128.718434 30.084083 129.78689 29.80291 
Q 130.855345 29.521738 131.455179 29.409269 
L 133.479621 29.184331 
M 128.830903 43.39291 
L 129.055841 43.39291 
Q 129.880614 43.917766 131.755097 45.473586 
Q 133.629579 47.029407 135.241634 47.7792 
M 126.506545 40.881103 
L 127.06889 40.881103 
Q 130.817855 40.506207 134.191924 39.606455 
Q 135.054186 39.306538 135.335359 39.381517 
Q 135.616531 39.456497 135.504062 39.737669 
Q 135.391593 40.018841 134.754269 40.843614 
L 132.242462 44.48011 
L 131.680117 45.154924 
M 130.218021 25.810262 
L 129.093331 34.920248 
Q 128.755924 37.469545 128.755924 37.507034 
L 128.006131 40.243779 
L 127.781193 41.593407 
M 120.770628 31.883586 
Q 120.733138 31.996055 120.751883 32.502166 
Q 120.770628 33.008276 120.770628 33.120745 
Q 120.770628 35.032717 120.901841 37.282097 
Q 121.033055 39.531476 121.257993 42.211986 
Q 121.482931 44.892497 121.55791 46.167145 
L 121.445441 47.404303 
M 123.582352 26.597545 
Q 122.345193 29.709186 119.983345 32.783338 
L 117.28409 34.69531 
" clip-path="url(#p88e8241541)" style="fill: none; stroke: #000000; stroke-linejoin: miter"/>
   </g>
  </g>
  <g id="axes_6">
   <g id="patch_7">
    <path d="M 143.453726 46.553474 
L 144.067067 46.553474 
Q 145.055228 46.553474 145.532272 46.553474 
L 145.566346 46.553474 
Q 144.953005 46.519399 146.009315 46.417175 
Q 146.418209 46.383101 147.03155 46.349026 
L 167.680709 46.246803 
L 168.396274 46.042356 
M 155.413882 28.7325 
L 155.311659 46.246803 
M 147.951562 28.766575 
L 164.000661 27.982861 
" clip-path="url(#p4931f7a1c4)" style="fill: none; stroke: #000000; stroke-linejoin: miter"/>
   </g>
  </g>
  <g id="axes_7">
   <g id="patch_8">
    <path d="M 184.257034 41.209734 
Q 184.903802 40.850418 186.610551 40.904316 
Q 188.3173 40.958213 189 40.562966 
L 194.928707 40.239582 
M 181.669962 47.35403 
L 196.653422 47.246236 
M 189.646768 35.281027 
L 189.646768 36.466768 
Q 189.646768 37.580646 189.538973 38.802319 
Q 189.431179 40.023992 189.251521 41.497186 
Q 189.071863 42.97038 189 43.796806 
L 188.892205 46.491673 
M 185.658365 35.82 
Q 185.802091 35.640342 186.430894 35.712205 
Q 187.059696 35.784068 187.275285 35.712205 
Q 188.3173 35.712205 189.521008 35.622376 
Q 190.724715 35.532548 192.161977 35.388821 
Q 193.59924 35.245095 194.389734 35.173232 
M 185.873954 32.047186 
Q 186.880038 32.047186 187.16749 31.939392 
L 192.341635 31.90346 
L 192.880608 32.226844 
M 186.089544 26.980837 
L 187.059696 26.980837 
Q 188.137643 26.980837 190.329468 26.71135 
Q 192.521293 26.441863 193.419582 26.441863 
Q 193.527376 26.441863 193.527376 26.980837 
Q 193.527376 27.699468 193.437548 28.489962 
Q 193.347719 29.280456 193.203992 30.232643 
Q 193.060266 31.184829 192.988403 31.723802 
L 192.880608 33.268859 
M 185.981749 26.980837 
L 186.628517 32.262776 
M 178.112738 36.897947 
Q 178.651711 37.293194 179.136787 37.77827 
Q 179.621863 38.263346 180.268631 39.071806 
Q 180.915399 39.880266 181.130989 40.131787 
L 181.669962 40.455171 
M 177.573764 33.98749 
L 176.711407 36.574563 
L 173.154183 41.533118 
L 171.896578 42.97038 
M 172.291825 34.20308 
L 173.154183 34.20308 
Q 174.411787 34.20308 175.867015 34.077319 
Q 177.322243 33.951559 179.08289 33.73597 
Q 180.843536 33.52038 181.777757 33.448517 
L 182.208935 33.232928 
M 177.897148 26.765247 
Q 177.753422 26.765247 177.789354 27.070665 
Q 177.825285 27.376084 177.573764 27.412015 
L 177.46597 48.03673 
M 173.046388 27.735399 
Q 173.441635 27.555741 174.339924 27.304221 
Q 175.238213 27.0527 175.63346 26.873042 
L 182.963498 25.6873 
" clip-path="url(#pdd1e32a2ad)" style="fill: none; stroke: #000000; stroke-linejoin: miter"/>
   </g>
  </g>
  <g id="axes_8">
   <g id="patch_9">
    <path d="M 211.856462 38.294317 
Q 213.243579 39.156579 216.317731 42.30571 
Q 219.391883 45.454841 221.603772 46.392083 
L 224.865372 47.179366 
M 212.0814 35.82 
L 212.418807 35.82 
Q 213.318559 35.82 215.417979 35.576317 
Q 217.5174 35.332634 219.204434 35.070207 
L 220.853979 34.807779 
Q 221.003938 38.706703 217.611124 42.30571 
Q 214.21831 45.904717 210.056959 46.766979 
M 215.905345 25.472855 
L 215.792876 32.783338 
L 215.455469 35.145186 
M 212.756214 31.096303 
L 219.954228 29.521738 
M 200.384628 40.20629 
Q 204.396021 38.369297 207.357703 37.507034 
L 209.157207 36.607283 
M 201.546807 33.045766 
L 202.559028 33.045766 
L 205.220793 32.670869 
L 208.707331 32.333462 
M 205.670669 26.372607 
L 205.333262 47.74171 
Q 205.145814 47.74171 205.033345 47.610497 
Q 204.920876 47.479283 204.808407 47.254345 
Q 204.695938 47.029407 204.658448 46.954428 
L 203.196352 45.154924 
" clip-path="url(#p4f89301be6)" style="fill: none; stroke: #000000; stroke-linejoin: miter"/>
   </g>
  </g>
  <g id="axes_9">
   <g id="patch_10">
    <path d="M 246.654683 25.135448 
Q 246.91711 25.285407 247.648159 25.735283 
Q 248.379207 26.185159 248.791593 26.372607 
L 251.153441 28.734455 
M 239.906545 32.108524 
L 239.794076 32.445931 
Q 240.993745 37.169628 244.105386 41.012317 
Q 247.217028 44.855007 251.490848 45.829738 
M 239.3442 31.996055 
L 239.456669 32.333462 
Q 239.456669 34.207945 238.8006 35.932469 
Q 238.144531 37.656993 236.926117 39.11909 
Q 235.707703 40.581186 234.620503 41.574662 
Q 233.533303 42.568138 232.033717 43.692828 
L 230.459152 44.367641 
M 230.68409 32.895807 
L 231.133966 32.895807 
Q 233.420834 32.895807 236.176324 32.577145 
Q 238.931814 32.258483 242.287138 31.714883 
Q 245.642462 31.171283 247.329497 30.983834 
L 250.028752 30.42149 
M 239.794076 24.91051 
L 239.794076 48.8664 
" clip-path="url(#pa6ee8e4eb8)" style="fill: none; stroke: #000000; stroke-linejoin: miter"/>
   </g>
  </g>
  <g id="axes_10">
   <g id="patch_11">
    <path d="M 267.862903 36.94469 
Q 267.900393 37.019669 268.162821 37.263352 
Q 268.425248 37.507034 268.537717 37.619503 
Q 268.650186 37.731972 268.893869 38.013145 
Q 269.137552 38.294317 269.28751 38.463021 
Q 269.437469 38.631724 269.662407 38.931641 
Q 269.887345 39.231559 270.018559 39.437752 
Q 270.149772 39.643945 270.299731 39.943862 
Q 270.44969 40.243779 270.543414 40.487462 
Q 270.637138 40.731145 270.712117 41.012317 
Q 270.787097 41.29349 270.787097 41.555917 
Q 270.787097 42.118262 270.637138 42.605628 
Q 270.487179 43.092993 270.206007 43.636593 
Q 269.924834 44.180193 269.774876 44.592579 
L 268.650186 45.717269 
" clip-path="url(#pc99aefbdd7)" style="fill: none; stroke: #000000; stroke-linejoin: miter"/>
   </g>
  </g>
 </g>
 <defs>
  <clipPath id="pba48728ccc">
   <rect x="0" y="12.140565" width="28.35" height="47.358871"/>
  </clipPath>
  <clipPath id="pa52567b9c1">
   <rect x="28.35" y="10.476289" width="28.35" height="50.687423"/>
  </clipPath>
  <clipPath id="p4598165523">
   <rect x="59.871786" y="8.64" width="22.006428" height="54.36"/>
  </clipPath>
  <clipPath id="p275b853a96">
   <rect x="85.05" y="10.063421" width="28.35" height="51.513158"/>
  </clipPath>
  <clipPath id="p88e8241541">
   <rect x="115.409607" y="8.64" width="24.330786" height="54.36"/>
  </clipPath>
  <clipPath id="p4931f7a1c4">
   <rect x="141.75" y="11.115974" width="28.35" height="49.408053"/>
  </clipPath>
  <clipPath id="pdd1e32a2ad">
   <rect x="170.1" y="9.76962" width="28.35" height="52.10076"/>
  </clipPath>
  <clipPath id="p4f89301be6">
   <rect x="198.510145" y="8.64" width="28.22971" height="54.36"/>
  </clipPath>
  <clipPath id="pa6ee8e4eb8">
   <rect x="228.584669" y="8.64" width="24.780662" height="54.36"/>
  </clipPath>
  <clipPath id="pc99aefbdd7">
   <rect x="265.988421" y="8.64" width="6.673159" height="54.36"/>
  </clipPath>
 </defs>
</svg>
