<?xml version="1.0" encoding="utf-8" standalone="no"?>
<!DOCTYPE svg PUBLIC "-//W3C//DTD SVG 1.1//EN"
  "http://www.w3.org/Graphics/SVG/1.1/DTD/svg11.dtd">
<svg xmlns:xlink="http://www.w3.org/1999/xlink" width="90pt" height="72pt" viewBox="0 0 90 72" xmlns="http://www.w3.org/2000/svg" version="1.1">
 <metadata>
  <rdf:RDF xmlns:dc="http://purl.org/dc/elements/1.1/" xmlns:cc="http://creativecommons.org/ns#" xmlns:rdf="http://www.w3.org/1999/02/22-rdf-syntax-ns#">
   <cc:Work>
    <dc:type rdf:resource="http://purl.org/dc/dcmitype/StillImage"/>
    <dc:date>2023-02-03T21:30:56.458016</dc:date>
    <dc:format>image/svg+xml</dc:format>
    <dc:creator>
     <cc:Agent>
      <dc:title>Matplotlib v3.6.1, https://matplotlib.org/</dc:title>
     </cc:Agent>
    </dc:creator>
   </cc:Work>
  </rdf:RDF>
 </metadata>
 <defs>
  <style type="text/css">*{stroke-linejoin: round; stroke-linecap: butt}</style>
 </defs>
 <g id="figure_1">
  <g id="patch_1">
   <path d="M 0 72 
L 90 72 
L 90 0 
L 0 0 
z
" style="fill: #8fff9f"/>
  </g>
  <g id="axes_1">
   <g id="patch_2">
    <path d="M 1.087248 30.470738 
L 2.261477 30.601208 
Q 4.088054 30.601208 5.925503 30.709933 
Q 7.762953 30.818658 10.002685 30.992617 
Q 12.242416 31.166577 13.677584 31.253557 
L 15.112752 31.123087 
M 7.871678 31.057852 
Q 7.936913 31.405772 7.675973 32.177718 
Q 7.415034 32.949664 7.610738 33.406309 
Q 7.610738 34.711007 7.752081 36.363624 
Q 7.893423 38.016242 8.110872 39.973289 
Q 8.328322 41.930336 8.393557 42.800134 
" clip-path="url(#p368a5a1530)" style="fill: none; stroke: #000000; stroke-linejoin: miter"/>
   </g>
  </g>
  <g id="axes_2">
   <g id="patch_3">
    <path d="M 20.813462 35.932469 
Q 21.413297 35.257655 22.406772 34.826524 
Q 23.400248 34.395393 24.3 34.470372 
Q 24.937324 34.470372 25.42469 34.639076 
Q 25.912055 34.807779 26.230717 34.995228 
Q 26.549379 35.182676 26.774317 35.670041 
Q 26.999255 36.157407 27.111724 36.419834 
Q 27.224193 36.682262 27.280428 37.375821 
Q 27.336662 38.069379 27.355407 38.331807 
Q 27.374152 38.594234 27.355407 39.419007 
Q 27.336662 40.243779 27.336662 40.431228 
Q 27.336662 41.368469 27.167959 43.242952 
Q 26.999255 45.117434 26.999255 46.054676 
Q 26.999255 46.467062 27.05549 46.823214 
Q 27.111724 47.179366 27.205448 47.610497 
Q 27.299172 48.041628 27.336662 48.304055 
L 27.786538 48.528993 
M 21.263338 23.111007 
Q 21.488276 24.798041 21.488276 29.971614 
L 21.488276 42.3432 
L 21.150869 46.841959 
L 20.925931 47.74171 
" clip-path="url(#p60603672f0)" style="fill: none; stroke: #000000; stroke-linejoin: miter"/>
   </g>
  </g>
  <g id="axes_3">
   <g id="patch_4">
    <path d="M 34.257798 38.160826 
Q 37.230275 39.535596 41.949083 39.721376 
Q 43.472477 39.721376 44.159862 38.550963 
Q 44.847248 37.38055 44.847248 35.82 
Q 44.847248 35.299817 44.754358 34.909679 
Q 44.661468 34.519541 44.419954 34.296606 
Q 44.17844 34.07367 44.011239 33.943624 
Q 43.844037 33.813578 43.398165 33.757844 
Q 42.952294 33.70211 42.747936 33.683532 
Q 42.543578 33.664954 41.967661 33.683532 
Q 41.391743 33.70211 41.168807 33.70211 
Q 39.125229 33.70211 37.638991 35.578486 
Q 36.152752 37.454862 36.152752 39.609908 
Q 36.152752 42.619541 38.084862 44.570229 
Q 40.016972 46.520917 43.063761 46.520917 
Q 45.218807 46.818165 46.742202 44.29156 
" clip-path="url(#pb3589a23a6)" style="fill: none; stroke: #000000; stroke-linejoin: miter"/>
   </g>
  </g>
  <g id="axes_4">
   <g id="patch_5">
    <path d="M 52.238731 37.282097 
L 52.238731 37.844441 
Q 52.501159 39.868883 52.538648 41.312234 
Q 52.576138 42.755586 52.482414 44.667559 
Q 52.38869 46.579531 52.38869 48.191586 
L 52.463669 39.643945 
Q 52.463669 38.144359 54.056979 37.507034 
Q 55.65029 36.86971 57.074897 37.282097 
Q 58.986869 37.844441 59.905366 39.04411 
Q 60.823862 40.243779 60.880097 41.668386 
Q 60.936331 43.092993 60.973821 44.817517 
Q 61.01131 46.542041 61.161269 48.191586 
" clip-path="url(#pd20203a91a)" style="fill: none; stroke: #000000; stroke-linejoin: miter"/>
   </g>
  </g>
  <g id="axes_5">
   <g id="patch_6">
    <path d="M 72.187697 39.981352 
Q 73.199917 40.956083 73.537324 42.905545 
Q 73.724772 43.955255 73.312386 46.167145 
L 72.075228 47.629241 
" clip-path="url(#pe8e28fcf25)" style="fill: none; stroke: #000000; stroke-linejoin: miter"/>
   </g>
  </g>
 </g>
 <defs>
  <clipPath id="p368a5a1530">
   <rect x="0" y="20.054899" width="16.2" height="31.530201"/>
  </clipPath>
  <clipPath id="p60603672f0">
   <rect x="18.938979" y="8.64" width="10.722041" height="54.36"/>
  </clipPath>
  <clipPath id="pb3589a23a6">
   <rect x="32.4" y="8.881927" width="16.2" height="53.876147"/>
  </clipPath>
  <clipPath id="pd20203a91a">
   <rect x="50.364248" y="8.64" width="12.671503" height="54.36"/>
  </clipPath>
  <clipPath id="pe8e28fcf25">
   <rect x="70.200745" y="8.64" width="5.39851" height="54.36"/>
  </clipPath>
 </defs>
</svg>
