<?xml version="1.0" encoding="utf-8" standalone="no"?>
<!DOCTYPE svg PUBLIC "-//W3C//DTD SVG 1.1//EN"
  "http://www.w3.org/Graphics/SVG/1.1/DTD/svg11.dtd">
<svg xmlns:xlink="http://www.w3.org/1999/xlink" width="630pt" height="72pt" viewBox="0 0 630 72" xmlns="http://www.w3.org/2000/svg" version="1.1">
 <metadata>
  <rdf:RDF xmlns:dc="http://purl.org/dc/elements/1.1/" xmlns:cc="http://creativecommons.org/ns#" xmlns:rdf="http://www.w3.org/1999/02/22-rdf-syntax-ns#">
   <cc:Work>
    <dc:type rdf:resource="http://purl.org/dc/dcmitype/StillImage"/>
    <dc:date>2023-02-03T21:30:46.218662</dc:date>
    <dc:format>image/svg+xml</dc:format>
    <dc:creator>
     <cc:Agent>
      <dc:title>Matplotlib v3.6.1, https://matplotlib.org/</dc:title>
     </cc:Agent>
    </dc:creator>
   </cc:Work>
  </rdf:RDF>
 </metadata>
 <defs>
  <style type="text/css">*{stroke-linejoin: round; stroke-linecap: butt}</style>
 </defs>
 <g id="figure_1">
  <g id="patch_1">
   <path d="M 0 72 
L 630 72 
L 630 0 
L 0 0 
z
" style="fill: #8fff9f"/>
  </g>
  <g id="axes_1">
   <g id="patch_2">
    <path d="M 3.263834 37.95691 
L 3.938648 37.95691 
Q 4.650952 37.95691 5.438234 37.881931 
Q 6.225517 37.806952 7.181503 37.675738 
Q 8.13749 37.544524 8.662345 37.507034 
L 12.936166 35.82 
M 8.887283 30.42149 
L 8.887283 31.43371 
Q 8.887283 33.383172 8.212469 37.207117 
Q 7.537655 41.031062 7.537655 43.018014 
Q 7.537655 43.805297 7.537655 44.105214 
Q 7.537655 44.405131 7.631379 45.042455 
Q 7.725103 45.679779 7.912552 45.960952 
Q 8.1 46.242124 8.493641 46.485807 
Q 8.887283 46.72949 9.449628 46.72949 
Q 9.562097 46.692 9.880759 46.72949 
Q 10.199421 46.766979 10.386869 46.710745 
Q 10.574317 46.65451 10.574317 46.392083 
" clip-path="url(#p834fe8ec28)" style="fill: none; stroke: #000000; stroke-linejoin: miter"/>
   </g>
  </g>
  <g id="axes_2">
   <g id="patch_3">
    <path d="M 19.032703 35.332634 
L 29.379848 35.332634 
M 28.592566 39.344028 
Q 28.592566 39.344028 25.668372 39.344028 
Q 18.695297 39.344028 18.695297 44.5176 
Q 18.695297 46.279614 20.45731 47.19811 
Q 22.219324 48.116607 24.206276 48.116607 
Q 25.443434 47.891669 26.249462 47.2356 
Q 27.05549 46.579531 27.411641 45.586055 
Q 27.767793 44.592579 27.936497 43.674083 
Q 28.1052 42.755586 28.255159 41.443448 
Q 28.405117 40.13131 28.592566 39.344028 
Q 29.679766 46.092166 29.792234 47.029407 
L 29.904703 48.154097 
" clip-path="url(#p45b2af4d6d)" style="fill: none; stroke: #000000; stroke-linejoin: miter"/>
   </g>
  </g>
  <g id="axes_3"/>
  <g id="axes_4">
   <g id="patch_4">
    <path d="M 52.257476 43.917766 
Q 52.557393 44.180193 53.569614 45.154924 
Q 54.581834 46.129655 55.144179 46.560786 
Q 55.706524 46.991917 56.73749 47.385559 
Q 57.768455 47.7792 58.780676 47.629241 
Q 59.45549 47.629241 59.92411 47.404303 
Q 60.392731 47.179366 60.617669 46.879448 
Q 60.842607 46.579531 60.973821 45.979697 
Q 61.105034 45.379862 61.123779 44.967476 
Q 61.142524 44.55509 61.142524 43.805297 
Q 61.142524 42.718097 60.242772 42.043283 
Q 59.343021 41.368469 58.049628 41.031062 
Q 56.756234 40.693655 55.462841 40.300014 
Q 54.169448 39.906372 53.269697 38.987876 
Q 52.369945 38.069379 52.369945 36.607283 
Q 52.369945 36.082428 52.538648 35.726276 
Q 52.707352 35.370124 53.100993 35.145186 
Q 53.494634 34.920248 53.775807 34.807779 
Q 54.056979 34.69531 54.713048 34.639076 
Q 55.369117 34.582841 55.556566 34.582841 
Q 55.744014 34.582841 56.418828 34.582841 
Q 57.618497 34.582841 58.199586 34.995228 
Q 58.780676 35.407614 59.099338 36.026193 
Q 59.418 36.644772 59.680428 36.832221 
" clip-path="url(#pa97886a312)" style="fill: none; stroke: #000000; stroke-linejoin: miter"/>
   </g>
  </g>
  <g id="axes_5">
   <g id="patch_5">
    <path d="M 69.413462 35.932469 
Q 70.013297 35.257655 71.006772 34.826524 
Q 72.000248 34.395393 72.9 34.470372 
Q 73.537324 34.470372 74.02469 34.639076 
Q 74.512055 34.807779 74.830717 34.995228 
Q 75.149379 35.182676 75.374317 35.670041 
Q 75.599255 36.157407 75.711724 36.419834 
Q 75.824193 36.682262 75.880428 37.375821 
Q 75.936662 38.069379 75.955407 38.331807 
Q 75.974152 38.594234 75.955407 39.419007 
Q 75.936662 40.243779 75.936662 40.431228 
Q 75.936662 41.368469 75.767959 43.242952 
Q 75.599255 45.117434 75.599255 46.054676 
Q 75.599255 46.467062 75.65549 46.823214 
Q 75.711724 47.179366 75.805448 47.610497 
Q 75.899172 48.041628 75.936662 48.304055 
L 76.386538 48.528993 
M 69.863338 23.111007 
Q 70.088276 24.798041 70.088276 29.971614 
L 70.088276 42.3432 
L 69.750869 46.841959 
L 69.525931 47.74171 
" clip-path="url(#p9d1ecdb806)" style="fill: none; stroke: #000000; stroke-linejoin: miter"/>
   </g>
  </g>
  <g id="axes_6">
   <g id="patch_6">
    <path d="M 86.400745 33.345683 
L 86.400745 33.570621 
Q 86.400745 34.545352 87.375476 35.969959 
Q 88.350207 37.394566 89.324938 37.394566 
Q 89.699834 37.394566 90.055986 36.9072 
Q 90.412138 36.419834 90.7308 35.726276 
Q 91.049462 35.032717 91.124441 34.920248 
L 91.799255 31.771117 
M 89.362428 39.419007 
L 88.912552 47.291834 
L 88.575145 47.74171 
" clip-path="url(#p662e9939ce)" style="fill: none; stroke: #000000; stroke-linejoin: miter"/>
   </g>
  </g>
  <g id="axes_7">
   <g id="patch_7">
    <path d="M 100.163917 36.382345 
Q 100.126428 36.494814 100.257641 36.701007 
Q 100.388855 36.9072 100.276386 37.057159 
L 100.276386 39.306538 
Q 100.276386 40.506207 100.613793 41.724621 
Q 100.9512 42.943034 101.813462 43.93651 
Q 102.675724 44.929986 103.875393 44.929986 
Q 105.112552 44.929986 105.787366 43.861531 
Q 106.462179 42.793076 106.912055 41.143531 
Q 107.361931 39.493986 107.699338 38.969131 
L 108.486621 36.382345 
L 108.261683 42.680607 
L 108.261683 45.154924 
Q 108.261683 47.066897 108.992731 51.00331 
Q 109.723779 54.939724 109.723779 56.964166 
Q 110.473572 59.213545 109.386372 60.188276 
Q 108.299172 61.163007 106.237241 60.78811 
Q 104.437738 60.488193 103.519241 60.169531 
Q 102.600745 59.850869 100.613793 58.988607 
L 100.501324 58.426262 
" clip-path="url(#pb8a3a9c371)" style="fill: none; stroke: #000000; stroke-linejoin: miter"/>
   </g>
  </g>
  <g id="axes_8">
   <g id="patch_8">
    <path d="M 117.73229 29.671697 
Q 118.407103 30.159062 119.812966 31.283752 
Q 121.218828 32.408441 121.331297 32.483421 
L 123.1308 33.60811 
M 122.00611 36.982179 
L 121.331297 36.982179 
Q 118.332124 36.982179 117.18869 38.781683 
Q 116.045255 40.581186 116.045255 43.842786 
Q 116.045255 45.229903 117.319903 46.373338 
Q 118.594552 47.516772 120.206607 48.097862 
Q 121.818662 48.678952 123.1308 48.678952 
Q 126.954745 48.678952 126.954745 42.718097 
Q 126.954745 41.518428 126.073738 40.431228 
Q 125.192731 39.344028 123.824359 38.219338 
Q 122.455986 37.094648 122.00611 36.532303 
L 121.331297 36.194897 
" clip-path="url(#pa0d1104482)" style="fill: none; stroke: #000000; stroke-linejoin: miter"/>
   </g>
  </g>
  <g id="axes_9">
   <g id="patch_9">
    <path d="M 133.238731 37.282097 
L 133.238731 37.844441 
Q 133.501159 39.868883 133.538648 41.312234 
Q 133.576138 42.755586 133.482414 44.667559 
Q 133.38869 46.579531 133.38869 48.191586 
L 133.463669 39.643945 
Q 133.463669 38.144359 135.056979 37.507034 
Q 136.65029 36.86971 138.074897 37.282097 
Q 139.986869 37.844441 140.905366 39.04411 
Q 141.823862 40.243779 141.880097 41.668386 
Q 141.936331 43.092993 141.973821 44.817517 
Q 142.01131 46.542041 142.161269 48.191586 
" clip-path="url(#pd5858f0138)" style="fill: none; stroke: #000000; stroke-linejoin: miter"/>
   </g>
  </g>
  <g id="axes_10">
   <g id="patch_10">
    <path d="M 158.687191 39.096404 
Q 158.43236 39.023596 157.46764 38.623146 
Q 156.502921 38.222697 155.84764 38.077079 
Q 155.19236 37.931461 154.537079 38.00427 
Q 151.915955 38.00427 150.277753 40.388764 
Q 148.639551 42.773258 148.639551 45.430787 
Q 148.639551 47.068989 153.881798 47.068989 
Q 155.447191 47.068989 156.775955 45.558202 
Q 158.104719 44.047416 158.778202 42.172584 
Q 159.451685 40.297753 159.451685 38.768764 
Q 159.451685 37.27618 159.415281 36.984944 
L 159.342472 38.077079 
Q 159.342472 38.550337 159.342472 38.987191 
Q 159.378876 40.188539 159.579101 42.281798 
Q 159.779326 44.375056 159.943146 46.049663 
Q 160.106966 47.72427 160.143371 49.872135 
Q 160.179775 52.02 160.015955 53.658202 
Q 159.852135 55.296404 159.287865 56.971011 
Q 158.723596 58.645618 157.795281 59.737753 
Q 156.866966 60.829888 155.265169 61.521573 
Q 153.663371 62.213258 151.515506 62.213258 
Q 149.877303 62.213258 148.785169 61.466966 
Q 147.693034 60.720674 147.693034 59.155281 
Q 147.620225 58.936854 147.656629 58.936854 
Q 147.693034 58.936854 147.802247 58.936854 
Q 147.911461 58.936854 147.911461 58.82764 
" clip-path="url(#p8737cc9552)" style="fill: none; stroke: #000000; stroke-linejoin: miter"/>
   </g>
  </g>
  <g id="axes_11"/>
  <g id="axes_12">
   <g id="patch_11">
    <path d="M 181.163917 36.382345 
Q 181.126428 36.494814 181.257641 36.701007 
Q 181.388855 36.9072 181.276386 37.057159 
L 181.276386 39.306538 
Q 181.276386 40.506207 181.613793 41.724621 
Q 181.9512 42.943034 182.813462 43.93651 
Q 183.675724 44.929986 184.875393 44.929986 
Q 186.112552 44.929986 186.787366 43.861531 
Q 187.462179 42.793076 187.912055 41.143531 
Q 188.361931 39.493986 188.699338 38.969131 
L 189.486621 36.382345 
L 189.261683 42.680607 
L 189.261683 45.154924 
Q 189.261683 47.066897 189.992731 51.00331 
Q 190.723779 54.939724 190.723779 56.964166 
Q 191.473572 59.213545 190.386372 60.188276 
Q 189.299172 61.163007 187.237241 60.78811 
Q 185.437738 60.488193 184.519241 60.169531 
Q 183.600745 59.850869 181.613793 58.988607 
L 181.501324 58.426262 
" clip-path="url(#p88b2b89679)" style="fill: none; stroke: #000000; stroke-linejoin: miter"/>
   </g>
  </g>
  <g id="axes_13">
   <g id="patch_12">
    <path d="M 200.475559 35.557572 
Q 200.925434 35.145186 202.406276 34.057986 
Q 203.887117 32.970786 204.524441 32.183503 
M 200.812966 38.03189 
Q 200.775476 38.144359 200.794221 39.212814 
Q 200.812966 40.281269 200.812966 40.393738 
Q 200.812966 41.518428 201.075393 42.568138 
Q 201.337821 43.617848 201.768952 44.892497 
Q 202.200083 46.167145 202.387531 46.916938 
L 202.837407 47.366814 
" clip-path="url(#pe9ef36c2e5)" style="fill: none; stroke: #000000; stroke-linejoin: miter"/>
   </g>
  </g>
  <g id="axes_14">
   <g id="patch_13">
    <path d="M 223.956735 34.365306 
Q 223.956735 34.365306 223.460816 34.365306 
Q 222.667347 34.365306 221.179592 34.067755 
Q 219.691837 33.770204 218.898367 33.770204 
Q 216.121224 33.770204 214.187143 35.224898 
Q 212.253061 36.679592 212.253061 39.423673 
Q 212.253061 40.94449 213.740816 42.399184 
Q 215.228571 43.853878 217.162653 44.663878 
Q 219.096735 45.473878 220.58449 45.473878 
Q 221.510204 45.473878 222.20449 45.110204 
Q 222.898776 44.746531 223.642653 44.118367 
Q 224.386531 43.490204 224.948571 43.192653 
L 225.146939 42.696735 
" clip-path="url(#pdfc3633995)" style="fill: none; stroke: #000000; stroke-linejoin: miter"/>
   </g>
  </g>
  <g id="axes_15">
   <g id="patch_14">
    <path d="M 231.413462 35.932469 
Q 232.013297 35.257655 233.006772 34.826524 
Q 234.000248 34.395393 234.9 34.470372 
Q 235.537324 34.470372 236.02469 34.639076 
Q 236.512055 34.807779 236.830717 34.995228 
Q 237.149379 35.182676 237.374317 35.670041 
Q 237.599255 36.157407 237.711724 36.419834 
Q 237.824193 36.682262 237.880428 37.375821 
Q 237.936662 38.069379 237.955407 38.331807 
Q 237.974152 38.594234 237.955407 39.419007 
Q 237.936662 40.243779 237.936662 40.431228 
Q 237.936662 41.368469 237.767959 43.242952 
Q 237.599255 45.117434 237.599255 46.054676 
Q 237.599255 46.467062 237.65549 46.823214 
Q 237.711724 47.179366 237.805448 47.610497 
Q 237.899172 48.041628 237.936662 48.304055 
L 238.386538 48.528993 
M 231.863338 23.111007 
Q 232.088276 24.798041 232.088276 29.971614 
L 232.088276 42.3432 
L 231.750869 46.841959 
L 231.525931 47.74171 
" clip-path="url(#p308b8ce6c3)" style="fill: none; stroke: #000000; stroke-linejoin: miter"/>
   </g>
  </g>
  <g id="axes_16">
   <g id="patch_15">
    <path d="M 246.488772 35.145186 
Q 246.488772 35.145186 246.488772 35.595062 
Q 246.488772 36.269876 246.376303 37.619503 
Q 246.263834 38.969131 246.263834 39.643945 
Q 246.263834 41.930814 247.500993 43.599103 
Q 248.738152 45.267393 250.875062 45.267393 
Q 252.262179 45.154924 253.030717 43.917766 
Q 253.799255 42.680607 253.949214 41.237255 
Q 254.099172 39.793903 254.3616 37.9944 
Q 254.624028 36.194897 255.036414 35.370124 
Q 255.186372 35.070207 255.186372 35.670041 
Q 255.186372 36.269876 254.923945 38.706703 
Q 254.699007 41.031062 254.699007 41.555917 
Q 254.549048 42.643117 254.886455 43.767807 
Q 255.223862 44.892497 255.936166 45.6048 
" clip-path="url(#p49cf44004f)" style="fill: none; stroke: #000000; stroke-linejoin: miter"/>
   </g>
  </g>
  <g id="axes_17">
   <g id="patch_16">
    <path d="M 264.319572 33.795559 
L 264.319572 33.570621 
Q 264.319572 33.383172 264.375807 33.289448 
Q 264.432041 33.195724 264.507021 33.13949 
Q 264.582 33.083255 264.731959 32.989531 
Q 264.881917 32.895807 264.994386 32.783338 
L 269.155738 28.059641 
M 271.06771 37.619503 
L 267.918579 37.619503 
Q 264.54451 38.594234 263.644759 39.231559 
Q 261.995214 40.356248 261.882745 43.317931 
Q 261.845255 43.692828 261.845255 44.142703 
Q 261.845255 45.267393 262.707517 46.167145 
Q 263.569779 47.066897 264.656979 47.066897 
Q 265.519241 46.954428 266.306524 46.485807 
Q 267.093807 46.017186 267.599917 45.473586 
Q 268.106028 44.929986 268.649628 43.93651 
Q 269.193228 42.943034 269.4744 42.324455 
Q 269.755572 41.705876 270.205448 40.543697 
Q 270.655324 39.381517 270.842772 38.969131 
Q 271.180179 38.144359 271.292648 38.200593 
Q 271.405117 38.256828 271.292648 39.456497 
L 271.180179 40.993572 
Q 271.180179 41.031062 271.517586 44.705048 
L 272.754745 47.066897 
" clip-path="url(#pdafe4b3b87)" style="fill: none; stroke: #000000; stroke-linejoin: miter"/>
   </g>
  </g>
  <g id="axes_18">
   <g id="patch_17">
    <path d="M 279.038731 37.282097 
L 279.038731 37.844441 
Q 279.301159 39.868883 279.338648 41.312234 
Q 279.376138 42.755586 279.282414 44.667559 
Q 279.18869 46.579531 279.18869 48.191586 
L 279.263669 39.643945 
Q 279.263669 38.144359 280.856979 37.507034 
Q 282.45029 36.86971 283.874897 37.282097 
Q 285.786869 37.844441 286.705366 39.04411 
Q 287.623862 40.243779 287.680097 41.668386 
Q 287.736331 43.092993 287.773821 44.817517 
Q 287.81131 46.542041 287.961269 48.191586 
" clip-path="url(#p6e59759d2b)" style="fill: none; stroke: #000000; stroke-linejoin: miter"/>
   </g>
  </g>
  <g id="axes_19"/>
  <g id="axes_20">
   <g id="patch_18">
    <path d="M 320.687191 39.096404 
Q 320.43236 39.023596 319.46764 38.623146 
Q 318.502921 38.222697 317.84764 38.077079 
Q 317.19236 37.931461 316.537079 38.00427 
Q 313.915955 38.00427 312.277753 40.388764 
Q 310.639551 42.773258 310.639551 45.430787 
Q 310.639551 47.068989 315.881798 47.068989 
Q 317.447191 47.068989 318.775955 45.558202 
Q 320.104719 44.047416 320.778202 42.172584 
Q 321.451685 40.297753 321.451685 38.768764 
Q 321.451685 37.27618 321.415281 36.984944 
L 321.342472 38.077079 
Q 321.342472 38.550337 321.342472 38.987191 
Q 321.378876 40.188539 321.579101 42.281798 
Q 321.779326 44.375056 321.943146 46.049663 
Q 322.106966 47.72427 322.143371 49.872135 
Q 322.179775 52.02 322.015955 53.658202 
Q 321.852135 55.296404 321.287865 56.971011 
Q 320.723596 58.645618 319.795281 59.737753 
Q 318.866966 60.829888 317.265169 61.521573 
Q 315.663371 62.213258 313.515506 62.213258 
Q 311.877303 62.213258 310.785169 61.466966 
Q 309.693034 60.720674 309.693034 59.155281 
Q 309.620225 58.936854 309.656629 58.936854 
Q 309.693034 58.936854 309.802247 58.936854 
Q 309.911461 58.936854 309.911461 58.82764 
" clip-path="url(#p6b1fa491c4)" style="fill: none; stroke: #000000; stroke-linejoin: miter"/>
   </g>
  </g>
  <g id="axes_21">
   <g id="patch_19">
    <path d="M 327.882414 34.020497 
L 335.417834 34.357903 
M 334.255655 38.106869 
Q 334.218166 37.95691 333.637076 37.975655 
Q 333.055986 37.9944 333.018497 37.9944 
Q 330.131793 37.9944 329.044593 39.287793 
Q 327.957393 40.581186 327.957393 43.617848 
Q 327.957393 45.267393 329.119572 46.523297 
Q 330.281752 47.7792 332.006276 47.7792 
Q 333.580841 47.7792 334.818 46.598276 
Q 336.055159 45.417352 336.055159 43.842786 
Q 336.317586 42.043283 335.32411 40.318759 
Q 334.330634 38.594234 332.68109 37.881931 
" clip-path="url(#pc761d918fd)" style="fill: none; stroke: #000000; stroke-linejoin: miter"/>
   </g>
  </g>
  <g id="axes_22">
   <g id="patch_20">
    <path d="M 343.838731 37.282097 
L 343.838731 37.844441 
Q 344.101159 39.868883 344.138648 41.312234 
Q 344.176138 42.755586 344.082414 44.667559 
Q 343.98869 46.579531 343.98869 48.191586 
L 344.063669 39.643945 
Q 344.063669 38.144359 345.656979 37.507034 
Q 347.25029 36.86971 348.674897 37.282097 
Q 350.586869 37.844441 351.505366 39.04411 
Q 352.423862 40.243779 352.480097 41.668386 
Q 352.536331 43.092993 352.573821 44.817517 
Q 352.61131 46.542041 352.761269 48.191586 
" clip-path="url(#pe0caf1062a)" style="fill: none; stroke: #000000; stroke-linejoin: miter"/>
   </g>
  </g>
  <g id="axes_23">
   <g id="patch_21">
    <path d="M 369.287191 39.096404 
Q 369.03236 39.023596 368.06764 38.623146 
Q 367.102921 38.222697 366.44764 38.077079 
Q 365.79236 37.931461 365.137079 38.00427 
Q 362.515955 38.00427 360.877753 40.388764 
Q 359.239551 42.773258 359.239551 45.430787 
Q 359.239551 47.068989 364.481798 47.068989 
Q 366.047191 47.068989 367.375955 45.558202 
Q 368.704719 44.047416 369.378202 42.172584 
Q 370.051685 40.297753 370.051685 38.768764 
Q 370.051685 37.27618 370.015281 36.984944 
L 369.942472 38.077079 
Q 369.942472 38.550337 369.942472 38.987191 
Q 369.978876 40.188539 370.179101 42.281798 
Q 370.379326 44.375056 370.543146 46.049663 
Q 370.706966 47.72427 370.743371 49.872135 
Q 370.779775 52.02 370.615955 53.658202 
Q 370.452135 55.296404 369.887865 56.971011 
Q 369.323596 58.645618 368.395281 59.737753 
Q 367.466966 60.829888 365.865169 61.521573 
Q 364.263371 62.213258 362.115506 62.213258 
Q 360.477303 62.213258 359.385169 61.466966 
Q 358.293034 60.720674 358.293034 59.155281 
Q 358.220225 58.936854 358.256629 58.936854 
Q 358.293034 58.936854 358.402247 58.936854 
Q 358.511461 58.936854 358.511461 58.82764 
" clip-path="url(#p168ed975bf)" style="fill: none; stroke: #000000; stroke-linejoin: miter"/>
   </g>
  </g>
  <g id="axes_24">
   <g id="patch_22">
    <path d="M 385.956735 34.365306 
Q 385.956735 34.365306 385.460816 34.365306 
Q 384.667347 34.365306 383.179592 34.067755 
Q 381.691837 33.770204 380.898367 33.770204 
Q 378.121224 33.770204 376.187143 35.224898 
Q 374.253061 36.679592 374.253061 39.423673 
Q 374.253061 40.94449 375.740816 42.399184 
Q 377.228571 43.853878 379.162653 44.663878 
Q 381.096735 45.473878 382.58449 45.473878 
Q 383.510204 45.473878 384.20449 45.110204 
Q 384.898776 44.746531 385.642653 44.118367 
Q 386.386531 43.490204 386.948571 43.192653 
L 387.146939 42.696735 
" clip-path="url(#p7a312cbb5c)" style="fill: none; stroke: #000000; stroke-linejoin: miter"/>
   </g>
  </g>
  <g id="axes_25">
   <g id="patch_23">
    <path d="M 393.413462 35.932469 
Q 394.013297 35.257655 395.006772 34.826524 
Q 396.000248 34.395393 396.9 34.470372 
Q 397.537324 34.470372 398.02469 34.639076 
Q 398.512055 34.807779 398.830717 34.995228 
Q 399.149379 35.182676 399.374317 35.670041 
Q 399.599255 36.157407 399.711724 36.419834 
Q 399.824193 36.682262 399.880428 37.375821 
Q 399.936662 38.069379 399.955407 38.331807 
Q 399.974152 38.594234 399.955407 39.419007 
Q 399.936662 40.243779 399.936662 40.431228 
Q 399.936662 41.368469 399.767959 43.242952 
Q 399.599255 45.117434 399.599255 46.054676 
Q 399.599255 46.467062 399.65549 46.823214 
Q 399.711724 47.179366 399.805448 47.610497 
Q 399.899172 48.041628 399.936662 48.304055 
L 400.386538 48.528993 
M 393.863338 23.111007 
Q 394.088276 24.798041 394.088276 29.971614 
L 394.088276 42.3432 
L 393.750869 46.841959 
L 393.525931 47.74171 
" clip-path="url(#p5bc157b71c)" style="fill: none; stroke: #000000; stroke-linejoin: miter"/>
   </g>
  </g>
  <g id="axes_26">
   <g id="patch_24">
    <path d="M 409.8384 34.357903 
Q 410.100828 34.395393 410.438234 33.795559 
Q 410.775641 33.195724 411.300497 33.345683 
L 415.799255 29.2968 
M 408.938648 40.656166 
L 409.163586 40.656166 
Q 409.87589 40.656166 411.43171 41.330979 
Q 412.987531 42.005793 413.887283 42.005793 
Q 416.586538 42.005793 416.586538 38.744193 
Q 416.586538 36.607283 413.212469 36.607283 
Q 411.337986 36.607283 410.250786 37.750717 
Q 409.163586 38.894152 409.163586 40.768634 
Q 409.163586 43.617848 410.494469 45.454841 
Q 411.825352 47.291834 414.562097 47.291834 
Q 416.024193 47.591752 417.261352 45.6048 
" clip-path="url(#p8dfbfa81e3)" style="fill: none; stroke: #000000; stroke-linejoin: miter"/>
   </g>
  </g>
  <g id="axes_27">
   <g id="patch_25">
    <path d="M 424.838731 37.282097 
L 424.838731 37.844441 
Q 425.101159 39.868883 425.138648 41.312234 
Q 425.176138 42.755586 425.082414 44.667559 
Q 424.98869 46.579531 424.98869 48.191586 
L 425.063669 39.643945 
Q 425.063669 38.144359 426.656979 37.507034 
Q 428.25029 36.86971 429.674897 37.282097 
Q 431.586869 37.844441 432.505366 39.04411 
Q 433.423862 40.243779 433.480097 41.668386 
Q 433.536331 43.092993 433.573821 44.817517 
Q 433.61131 46.542041 433.761269 48.191586 
" clip-path="url(#p2b1ced683d)" style="fill: none; stroke: #000000; stroke-linejoin: miter"/>
   </g>
  </g>
  <g id="axes_28">
   <g id="patch_26">
    <path d="M 450.287191 39.096404 
Q 450.03236 39.023596 449.06764 38.623146 
Q 448.102921 38.222697 447.44764 38.077079 
Q 446.79236 37.931461 446.137079 38.00427 
Q 443.515955 38.00427 441.877753 40.388764 
Q 440.239551 42.773258 440.239551 45.430787 
Q 440.239551 47.068989 445.481798 47.068989 
Q 447.047191 47.068989 448.375955 45.558202 
Q 449.704719 44.047416 450.378202 42.172584 
Q 451.051685 40.297753 451.051685 38.768764 
Q 451.051685 37.27618 451.015281 36.984944 
L 450.942472 38.077079 
Q 450.942472 38.550337 450.942472 38.987191 
Q 450.978876 40.188539 451.179101 42.281798 
Q 451.379326 44.375056 451.543146 46.049663 
Q 451.706966 47.72427 451.743371 49.872135 
Q 451.779775 52.02 451.615955 53.658202 
Q 451.452135 55.296404 450.887865 56.971011 
Q 450.323596 58.645618 449.395281 59.737753 
Q 448.466966 60.829888 446.865169 61.521573 
Q 445.263371 62.213258 443.115506 62.213258 
Q 441.477303 62.213258 440.385169 61.466966 
Q 439.293034 60.720674 439.293034 59.155281 
Q 439.220225 58.936854 439.256629 58.936854 
Q 439.293034 58.936854 439.402247 58.936854 
Q 439.511461 58.936854 439.511461 58.82764 
" clip-path="url(#p62fb929a9b)" style="fill: none; stroke: #000000; stroke-linejoin: miter"/>
   </g>
  </g>
  <g id="axes_29"/>
  <g id="axes_30">
   <g id="patch_27">
    <path d="M 478.256152 30.309021 
Q 477.768786 30.42149 478.181172 30.833876 
Q 478.556069 31.208772 478.631048 30.946345 
Q 478.668538 30.871366 478.593559 30.646428 
Q 478.593559 30.458979 478.518579 30.42149 
Q 478.4436 30.384 478.312386 30.42149 
Q 478.181172 30.458979 478.031214 30.42149 
L 477.918745 30.646428 
M 478.818497 33.345683 
Q 479.868207 37.731972 480.393062 40.13131 
Q 480.917917 42.530648 481.367793 46.317103 
Q 481.817669 50.103559 481.630221 53.25269 
Q 481.630221 53.440138 481.630221 54.021228 
Q 481.630221 54.602317 481.630221 54.902234 
Q 481.630221 55.202152 481.611476 55.783241 
Q 481.592731 56.364331 481.517752 56.701738 
Q 481.442772 57.039145 481.330303 57.52651 
Q 481.217834 58.013876 481.011641 58.313793 
Q 480.805448 58.61371 480.543021 58.894883 
Q 480.280593 59.176055 479.905697 59.307269 
Q 479.5308 59.438483 479.043434 59.438483 
Q 478.068703 59.438483 477.31891 59.251034 
Q 476.569117 59.063586 475.706855 58.707434 
Q 474.844593 58.351283 474.207269 58.201324 
L 473.982331 57.751448 
" clip-path="url(#p837ade2276)" style="fill: none; stroke: #000000; stroke-linejoin: miter"/>
   </g>
  </g>
  <g id="axes_31">
   <g id="patch_28">
    <path d="M 491.813131 30.384 
L 495.074731 34.657821 
M 494.737324 37.019669 
L 494.474897 41.743366 
Q 494.587366 42.268221 494.718579 43.749062 
Q 494.849793 45.229903 495.1872 46.1484 
Q 495.524607 47.066897 496.386869 47.591752 
" clip-path="url(#p792baf98f1)" style="fill: none; stroke: #000000; stroke-linejoin: miter"/>
   </g>
  </g>
  <g id="axes_32">
   <g id="patch_29">
    <path d="M 505.857476 43.917766 
Q 506.157393 44.180193 507.169614 45.154924 
Q 508.181834 46.129655 508.744179 46.560786 
Q 509.306524 46.991917 510.33749 47.385559 
Q 511.368455 47.7792 512.380676 47.629241 
Q 513.05549 47.629241 513.52411 47.404303 
Q 513.992731 47.179366 514.217669 46.879448 
Q 514.442607 46.579531 514.573821 45.979697 
Q 514.705034 45.379862 514.723779 44.967476 
Q 514.742524 44.55509 514.742524 43.805297 
Q 514.742524 42.718097 513.842772 42.043283 
Q 512.943021 41.368469 511.649628 41.031062 
Q 510.356234 40.693655 509.062841 40.300014 
Q 507.769448 39.906372 506.869697 38.987876 
Q 505.969945 38.069379 505.969945 36.607283 
Q 505.969945 36.082428 506.138648 35.726276 
Q 506.307352 35.370124 506.700993 35.145186 
Q 507.094634 34.920248 507.375807 34.807779 
Q 507.656979 34.69531 508.313048 34.639076 
Q 508.969117 34.582841 509.156566 34.582841 
Q 509.344014 34.582841 510.018828 34.582841 
Q 511.218497 34.582841 511.799586 34.995228 
Q 512.380676 35.407614 512.699338 36.026193 
Q 513.018 36.644772 513.280428 36.832221 
" clip-path="url(#pede047ebab)" style="fill: none; stroke: #000000; stroke-linejoin: miter"/>
   </g>
  </g>
  <g id="axes_33">
   <g id="patch_30">
    <path d="M 523.013462 35.932469 
Q 523.613297 35.257655 524.606772 34.826524 
Q 525.600248 34.395393 526.5 34.470372 
Q 527.137324 34.470372 527.62469 34.639076 
Q 528.112055 34.807779 528.430717 34.995228 
Q 528.749379 35.182676 528.974317 35.670041 
Q 529.199255 36.157407 529.311724 36.419834 
Q 529.424193 36.682262 529.480428 37.375821 
Q 529.536662 38.069379 529.555407 38.331807 
Q 529.574152 38.594234 529.555407 39.419007 
Q 529.536662 40.243779 529.536662 40.431228 
Q 529.536662 41.368469 529.367959 43.242952 
Q 529.199255 45.117434 529.199255 46.054676 
Q 529.199255 46.467062 529.25549 46.823214 
Q 529.311724 47.179366 529.405448 47.610497 
Q 529.499172 48.041628 529.536662 48.304055 
L 529.986538 48.528993 
M 523.463338 23.111007 
Q 523.688276 24.798041 523.688276 29.971614 
L 523.688276 42.3432 
L 523.350869 46.841959 
L 523.125931 47.74171 
" clip-path="url(#p402ff63a1f)" style="fill: none; stroke: #000000; stroke-linejoin: miter"/>
   </g>
  </g>
  <g id="axes_34">
   <g id="patch_31">
    <path d="M 539.963255 30.608938 
Q 541.087945 31.096303 542.512552 32.989531 
Q 543.937159 34.882759 544.462014 35.332634 
M 538.763586 38.706703 
Q 538.613628 38.819172 538.594883 39.025366 
Q 538.576138 39.231559 538.613628 39.475241 
Q 538.651117 39.718924 538.651117 39.831393 
Q 538.651117 40.993572 538.801076 42.155752 
Q 538.951034 43.317931 539.325931 44.742538 
Q 539.700828 46.167145 540.56309 47.048152 
Q 541.425352 47.929159 542.7 47.929159 
Q 544.087117 47.404303 544.705697 45.848483 
Q 545.324276 44.292662 545.567959 41.649641 
Q 545.811641 39.006621 545.9616 38.369297 
Q 546.448966 45.267393 546.486455 46.392083 
L 546.823862 48.079117 
" clip-path="url(#p0a7b4e9831)" style="fill: none; stroke: #000000; stroke-linejoin: miter"/>
   </g>
  </g>
  <g id="axes_35">
   <g id="patch_32">
    <path d="M 558.187697 39.981352 
Q 559.199917 40.956083 559.537324 42.905545 
Q 559.724772 43.955255 559.312386 46.167145 
L 558.075228 47.629241 
" clip-path="url(#p2ab3273d1e)" style="fill: none; stroke: #000000; stroke-linejoin: miter"/>
   </g>
  </g>
 </g>
 <defs>
  <clipPath id="p834fe8ec28">
   <rect x="1.389352" y="8.64" width="13.421297" height="54.36"/>
  </clipPath>
  <clipPath id="p45b2af4d6d">
   <rect x="16.820814" y="8.64" width="14.958372" height="54.36"/>
  </clipPath>
  <clipPath id="pa97886a312">
   <rect x="50.382993" y="8.64" width="12.634014" height="54.36"/>
  </clipPath>
  <clipPath id="p9d1ecdb806">
   <rect x="67.538979" y="8.64" width="10.722041" height="54.36"/>
  </clipPath>
  <clipPath id="p662e9939ce">
   <rect x="84.526262" y="8.64" width="9.147476" height="54.36"/>
  </clipPath>
  <clipPath id="pb8a3a9c371">
   <rect x="98.251945" y="8.64" width="14.09611" height="54.36"/>
  </clipPath>
  <clipPath id="pa0d1104482">
   <rect x="114.170772" y="8.64" width="14.658455" height="54.36"/>
  </clipPath>
  <clipPath id="pd5858f0138">
   <rect x="131.364248" y="8.64" width="12.671503" height="54.36"/>
  </clipPath>
  <clipPath id="p8737cc9552">
   <rect x="145.8" y="9.426742" width="16.2" height="52.786517"/>
  </clipPath>
  <clipPath id="p88b2b89679">
   <rect x="179.251945" y="8.64" width="14.09611" height="54.36"/>
  </clipPath>
  <clipPath id="pe9ef36c2e5">
   <rect x="198.601076" y="8.64" width="7.797848" height="54.36"/>
  </clipPath>
  <clipPath id="pdfc3633995">
   <rect x="210.6" y="11.850612" width="16.2" height="47.938776"/>
  </clipPath>
  <clipPath id="p308b8ce6c3">
   <rect x="229.538979" y="8.64" width="10.722041" height="54.36"/>
  </clipPath>
  <clipPath id="p49cf44004f">
   <rect x="244.389352" y="8.64" width="13.421297" height="54.36"/>
  </clipPath>
  <clipPath id="pdafe4b3b87">
   <rect x="259.970772" y="8.64" width="14.658455" height="54.36"/>
  </clipPath>
  <clipPath id="p6e59759d2b">
   <rect x="277.164248" y="8.64" width="12.671503" height="54.36"/>
  </clipPath>
  <clipPath id="p6b1fa491c4">
   <rect x="307.8" y="9.426742" width="16.2" height="52.786517"/>
  </clipPath>
  <clipPath id="pc761d918fd">
   <rect x="326.007931" y="8.64" width="12.184138" height="54.36"/>
  </clipPath>
  <clipPath id="pe0caf1062a">
   <rect x="341.964248" y="8.64" width="12.671503" height="54.36"/>
  </clipPath>
  <clipPath id="p168ed975bf">
   <rect x="356.4" y="9.426742" width="16.2" height="52.786517"/>
  </clipPath>
  <clipPath id="p7a312cbb5c">
   <rect x="372.6" y="11.850612" width="16.2" height="47.938776"/>
  </clipPath>
  <clipPath id="p5bc157b71c">
   <rect x="391.538979" y="8.64" width="10.722041" height="54.36"/>
  </clipPath>
  <clipPath id="p8dfbfa81e3">
   <rect x="407.064166" y="8.64" width="12.071669" height="54.36"/>
  </clipPath>
  <clipPath id="p2b1ced683d">
   <rect x="422.964248" y="8.64" width="12.671503" height="54.36"/>
  </clipPath>
  <clipPath id="p62fb929a9b">
   <rect x="437.4" y="9.426742" width="16.2" height="52.786517"/>
  </clipPath>
  <clipPath id="p837ade2276">
   <rect x="472.107848" y="8.64" width="11.584303" height="54.36"/>
  </clipPath>
  <clipPath id="p792baf98f1">
   <rect x="489.938648" y="8.64" width="8.322703" height="54.36"/>
  </clipPath>
  <clipPath id="pede047ebab">
   <rect x="503.982993" y="8.64" width="12.634014" height="54.36"/>
  </clipPath>
  <clipPath id="p402ff63a1f">
   <rect x="521.138979" y="8.64" width="10.722041" height="54.36"/>
  </clipPath>
  <clipPath id="p0a7b4e9831">
   <rect x="536.701655" y="8.64" width="11.99669" height="54.36"/>
  </clipPath>
  <clipPath id="p2ab3273d1e">
   <rect x="556.200745" y="8.64" width="5.39851" height="54.36"/>
  </clipPath>
 </defs>
</svg>
