<?xml version="1.0" encoding="utf-8" standalone="no"?>
<!DOCTYPE svg PUBLIC "-//W3C//DTD SVG 1.1//EN"
  "http://www.w3.org/Graphics/SVG/1.1/DTD/svg11.dtd">
<svg xmlns:xlink="http://www.w3.org/1999/xlink" width="243pt" height="162pt" viewBox="0 0 243 162" xmlns="http://www.w3.org/2000/svg" version="1.1">
 <metadata>
  <rdf:RDF xmlns:dc="http://purl.org/dc/elements/1.1/" xmlns:cc="http://creativecommons.org/ns#" xmlns:rdf="http://www.w3.org/1999/02/22-rdf-syntax-ns#">
   <cc:Work>
    <dc:type rdf:resource="http://purl.org/dc/dcmitype/StillImage"/>
    <dc:date>2023-02-15T22:58:05.659362</dc:date>
    <dc:format>image/svg+xml</dc:format>
    <dc:creator>
     <cc:Agent>
      <dc:title>Matplotlib v3.6.1, https://matplotlib.org/</dc:title>
     </cc:Agent>
    </dc:creator>
   </cc:Work>
  </rdf:RDF>
 </metadata>
 <defs>
  <style type="text/css">*{stroke-linejoin: round; stroke-linecap: butt}</style>
 </defs>
 <g id="figure_1">
  <g id="patch_1">
   <path d="M 0 162 
L 243 162 
L 243 0 
L 0 0 
z
" style="fill: #8fff9f"/>
  </g>
  <g id="axes_1">
   <g id="patch_2">
    <path d="M 24.669077 82.056543 
Q 24.359052 84.049557 24.137606 87.769848 
Q 24.137606 92.02161 26.174909 93.616021 
Q 28.212211 95.210431 32.64113 95.210431 
Q 33.526914 95.29901 33.881227 94.546094 
Q 34.235541 93.793177 34.146962 92.730237 
Q 34.058384 91.667296 34.058384 90.67079 
Q 34.058384 89.674283 34.235541 89.231391 
M 22.011725 81.525073 
L 22.011725 81.790808 
Q 22.011725 83.119484 20.306592 87.747704 
Q 18.601458 92.375923 17.804253 93.616021 
L 16.608445 94.546094 
M 27.592163 67.352533 
L 24.934812 70.27562 
M 18.291434 68.282606 
Q 19.088639 68.946944 20.284447 71.072825 
M 19.487242 80.993603 
Q 20.904496 81.525073 23.849727 81.502928 
Q 26.794957 81.480784 28.256501 81.923676 
M 17.759964 74.793117 
Q 18.557169 74.704538 20.505893 74.32808 
Q 22.454617 73.951622 23.473269 73.863044 
L 28.655103 73.863044 
Q 28.965128 73.863044 29.695899 73.597309 
Q 30.426671 73.331574 30.648117 73.331574 
Q 30.913852 73.420152 30.913852 73.464441 
Q 30.913852 74.483092 29.806622 76.276804 
Q 28.699392 78.070516 28.522236 78.601987 
L 27.990765 81.525073 
M 17.627096 74.660249 
L 19.620109 80.462132 
M 4.34034 84.713894 
Q 4.9161 84.315292 6.222631 84.160279 
Q 7.529162 84.005267 8.060632 83.783821 
L 11.603767 83.828111 
M 4.34034 75.546033 
L 12.710996 75.546033 
M 4.606075 68.902655 
L 13.286756 68.902655 
Q 12.976731 71.958609 12.843864 75.568177 
Q 12.710996 79.177746 12.733141 81.790808 
Q 12.755286 84.40387 12.799575 88.633487 
Q 12.843864 92.863104 12.843864 95.077564 
L 12.843864 96.007637 
Q 12.843864 96.051926 12.843864 96.140504 
Q 12.799575 96.229083 12.755286 96.229083 
Q 12.48955 96.096215 12.046659 96.140504 
L 10.053645 93.616021 
M 4.074605 68.902655 
L 4.074605 69.301258 
Q 4.650365 71.427139 4.761087 73.929478 
Q 4.87181 76.431817 4.761087 79.465626 
Q 4.650365 82.499435 4.738943 84.182424 
Q 5.004678 89.098524 3.543135 94.678961 
L 2.214459 96.007637 
" clip-path="url(#pb66e86d6df)" style="fill: none; stroke: #000000; stroke-linejoin: miter"/>
   </g>
  </g>
  <g id="axes_2">
   <g id="patch_3">
    <path d="M 44.391951 86.403293 
L 55.593659 86.403293 
M 39.413415 90.137195 
L 58.082927 89.60378 
L 59.860976 89.95939 
M 49.903902 83.025 
Q 49.903902 83.025 49.903902 86.936707 
Q 49.903902 89.129634 49.815 91.470732 
Q 49.726098 93.811829 49.577927 96.597439 
Q 49.429756 99.383049 49.370488 101.101829 
M 43.502927 82.66939 
L 57.193902 82.66939 
M 56.482683 75.735 
L 56.482683 76.09061 
Q 56.304878 76.386951 55.89 76.95 
Q 55.475122 77.513049 55.208415 77.987195 
Q 54.941707 78.461341 54.882439 78.935488 
Q 54.645366 79.468902 53.10439 81.958171 
M 43.680732 76.624024 
Q 44.273415 77.098171 45.725488 78.698415 
Q 47.177561 80.298659 48.125854 80.891341 
M 41.369268 75.02378 
L 53.10439 74.075488 
L 57.727317 73.245732 
L 61.816829 72.712317 
L 61.46122 81.069146 
L 61.46122 86.581098 
Q 61.46122 88.655488 62.113171 91.144756 
Q 62.765122 93.634024 64.424634 95.767683 
Q 66.084146 97.901341 68.336341 97.901341 
Q 69.343902 96.656707 69.936585 93.278415 
M 48.24439 70.460122 
L 55.53439 69.867439 
L 57.845854 69.511829 
M 45.755122 65.896463 
L 60.512927 64.948171 
M 47.177561 63.051585 
L 47.177561 63.585 
Q 47.177561 65.540854 46.17 66.755854 
Q 45.162439 67.970854 44.866098 69.15622 
L 43.265854 70.934268 
" clip-path="url(#p281d23c29d)" style="fill: none; stroke: #000000; stroke-linejoin: miter"/>
   </g>
  </g>
  <g id="axes_3">
   <g id="patch_4">
    <path d="M 99.469261 90.995778 
Q 100.651167 92.130409 105.000584 95.392471 
L 105.709728 96.66893 
M 102.447665 85.038969 
Q 102.447665 85.038969 102.447665 85.606284 
Q 102.447665 86.977296 101.76216 88.230117 
Q 101.076654 89.482938 100.202043 90.286634 
Q 99.327432 91.090331 98.192802 92.154047 
Q 97.058171 93.217763 96.490856 93.974183 
L 92.235992 95.817957 
M 103.298638 75.394611 
Q 99.516537 84.187996 92.945136 89.010175 
L 90.534047 89.861148 
M 97.058171 73.550837 
Q 96.727237 74.259981 95.947179 75.53644 
Q 95.167121 76.812899 94.930739 77.380214 
Q 94.647082 77.994805 93.441537 79.649475 
Q 92.235992 81.304144 91.668677 81.966012 
L 100.603891 79.933132 
M 96.349027 67.877685 
L 98.901946 70.288774 
M 92.094163 73.692665 
L 101.738521 72.416206 
Q 102.589494 72.085272 104.40963 71.919805 
Q 106.229767 71.754339 106.986187 71.423405 
M 81.787938 79.176712 
Q 81.929767 79.365817 82.473444 79.673113 
Q 83.017121 79.980409 83.206226 80.169514 
L 86.042802 83.289747 
M 81.362451 74.212704 
L 81.362451 75.347335 
Q 81.362451 76.812899 80.984241 78.207549 
Q 80.606031 79.602198 79.920525 81.209591 
Q 79.235019 82.816984 78.951362 83.857062 
L 76.256615 87.402782 
L 75.6893 87.68644 
M 75.263813 74.638191 
L 86.610117 74.354533 
L 88.879377 73.787218 
M 81.787938 66.837607 
L 81.646109 93.50142 
L 81.50428 96.054339 
" clip-path="url(#pca9d33f51d)" style="fill: none; stroke: #000000; stroke-linejoin: miter"/>
   </g>
  </g>
  <g id="axes_4">
   <g id="patch_5">
    <path d="M 130.721611 94.575243 
L 131.101738 94.575243 
Q 133.847103 94.575243 136.80365 94.110643 
L 138.070742 94.279589 
M 130.088065 88.873331 
Q 130.088065 88.873331 130.468192 88.873331 
Q 130.468192 88.873331 139.760197 88.493204 
Q 139.760197 88.53544 139.25336 89.253459 
L 138.450869 93.899461 
M 129.454519 89.380168 
L 130.088065 93.941698 
M 134.438413 74.259542 
Q 134.649594 74.470724 134.58624 75.062034 
Q 134.522885 75.653343 134.691831 75.906761 
L 134.396176 86.043494 
M 129.876883 80.299345 
L 131.017265 80.299345 
L 137.099305 80.299345 
L 143.688181 80.214873 
M 130.25701 83.847202 
L 138.112978 83.551547 
L 139.25336 83.678256 
M 129.750174 77.047144 
L 138.999942 76.667016 
L 138.999942 76.920435 
L 138.999942 77.55398 
L 138.746524 83.678256 
M 130.763847 68.811049 
L 134.81854 70.711686 
M 127.596118 73.625997 
L 127.849537 73.625997 
Q 128.947683 73.625997 130.362601 73.541524 
Q 131.77752 73.457051 133.466976 73.309224 
Q 135.156431 73.161396 135.958922 73.11916 
L 139.760197 72.865742 
M 127.469409 72.992451 
L 127.3427 82.368928 
L 124.808517 92.083297 
L 122.527752 94.997607 
M 121.85197 70.458268 
Q 121.471842 71.302995 121.471842 71.471941 
L 120.078042 74.259542 
M 112.602202 70.838395 
Q 112.813384 71.007341 113.08792 71.408586 
Q 113.362457 71.809832 113.489166 71.978778 
L 115.516512 74.512961 
M 118.81095 82.242219 
L 119.191078 82.622346 
L 121.85197 86.043494 
M 118.050695 78.187526 
Q 116.530185 84.227329 112.982329 87.817422 
L 111.461819 88.957804 
M 111.715238 78.187526 
Q 119.40226 78.187526 122.738934 77.807399 
L 124.76628 77.680689 
M 117.417149 68.811049 
L 117.417149 69.064467 
Q 117.417149 70.120377 117.564977 71.36635 
Q 117.712804 72.612323 117.966222 74.111715 
Q 118.219641 75.611107 118.304114 76.413598 
L 118.430823 94.152879 
" clip-path="url(#pad2ed81855)" style="fill: none; stroke: #000000; stroke-linejoin: miter"/>
   </g>
  </g>
  <g id="axes_5">
   <g id="patch_6">
    <path d="M 172.369261 90.995778 
Q 173.551167 92.130409 177.900584 95.392471 
L 178.609728 96.66893 
M 175.347665 85.038969 
Q 175.347665 85.038969 175.347665 85.606284 
Q 175.347665 86.977296 174.66216 88.230117 
Q 173.976654 89.482938 173.102043 90.286634 
Q 172.227432 91.090331 171.092802 92.154047 
Q 169.958171 93.217763 169.390856 93.974183 
L 165.135992 95.817957 
M 176.198638 75.394611 
Q 172.416537 84.187996 165.845136 89.010175 
L 163.434047 89.861148 
M 169.958171 73.550837 
Q 169.627237 74.259981 168.847179 75.53644 
Q 168.067121 76.812899 167.830739 77.380214 
Q 167.547082 77.994805 166.341537 79.649475 
Q 165.135992 81.304144 164.568677 81.966012 
L 173.503891 79.933132 
M 169.249027 67.877685 
L 171.801946 70.288774 
M 164.994163 73.692665 
L 174.638521 72.416206 
Q 175.489494 72.085272 177.30963 71.919805 
Q 179.129767 71.754339 179.886187 71.423405 
M 154.687938 79.176712 
Q 154.829767 79.365817 155.373444 79.673113 
Q 155.917121 79.980409 156.106226 80.169514 
L 158.942802 83.289747 
M 154.262451 74.212704 
L 154.262451 75.347335 
Q 154.262451 76.812899 153.884241 78.207549 
Q 153.506031 79.602198 152.820525 81.209591 
Q 152.135019 82.816984 151.851362 83.857062 
L 149.156615 87.402782 
L 148.5893 87.68644 
M 148.163813 74.638191 
L 159.510117 74.354533 
L 161.779377 73.787218 
M 154.687938 66.837607 
L 154.546109 93.50142 
L 154.40428 96.054339 
" clip-path="url(#p109e66b152)" style="fill: none; stroke: #000000; stroke-linejoin: miter"/>
   </g>
  </g>
  <g id="axes_6">
   <g id="patch_7">
    <path d="M 204.36106 83.961534 
Q 207.810718 89.032115 216.621893 95.307999 
M 205.732611 82.215924 
L 212.465678 81.717178 
Q 212.715051 81.717178 212.590365 82.091237 
Q 210.969441 87.203381 209.099145 89.738672 
Q 207.228848 92.273962 203.696066 93.936448 
L 202.698575 94.061135 
M 205.607925 80.470314 
Q 205.732611 80.428751 205.836517 80.574219 
Q 205.940422 80.719686 205.857298 80.844373 
Q 205.857298 81.467805 205.441676 82.15358 
Q 205.026055 82.839356 204.36106 83.608255 
Q 203.696066 84.377155 203.488255 84.709652 
L 201.992018 85.83183 
M 209.722577 77.353153 
L 213.089111 79.597509 
M 203.612942 76.230975 
Q 203.529818 76.563472 203.176539 77.249247 
Q 202.823261 77.935023 202.740137 78.350644 
L 201.2439 80.595 
M 208.849772 71.243518 
Q 208.891334 71.700701 209.556328 72.324133 
Q 210.221323 72.947566 210.346009 73.113814 
L 211.842246 74.610051 
M 207.852281 68.251043 
Q 207.187286 69.040724 206.210576 69.913529 
Q 205.233865 70.786334 204.73512 71.181174 
Q 204.236374 71.576015 202.760918 72.656631 
Q 201.285462 73.737246 201.119213 73.861933 
Q 201.119213 73.986619 201.430929 74.0074 
Q 201.742645 74.028181 202.03358 73.986619 
L 202.366078 73.986619 
Q 203.19732 73.986619 203.654504 73.986619 
Q 203.19732 73.986619 203.987001 73.903495 
Q 204.36106 73.903495 204.984493 73.861933 
L 210.221323 73.238501 
M 189.149316 85.416209 
L 195.63301 85.540895 
M 185.824344 91.06866 
L 186.073717 91.06866 
Q 188.401197 91.06866 192.017104 90.736163 
Q 195.63301 90.403666 196.755188 90.320542 
M 184.702166 75.773791 
L 185.325599 75.773791 
Q 185.367161 75.773791 186.198404 75.649105 
L 198.625485 75.649105 
L 198.625485 94.061135 
L 197.75268 92.938957 
L 196.256442 91.941465 
M 184.328107 75.275046 
L 184.328107 75.773791 
Q 184.743729 77.602526 184.826853 79.555946 
Q 184.909977 81.509367 184.847634 84.003096 
Q 184.785291 86.496824 184.826853 87.826813 
Q 184.826853 87.951499 184.826853 88.471026 
Q 184.826853 88.990553 184.847634 89.260707 
Q 184.868415 89.530861 184.930758 89.946482 
Q 184.993101 90.362104 185.117788 90.590696 
Q 185.242474 90.819287 185.450285 90.943974 
M 192.931471 70.744772 
L 192.640536 79.555946 
L 196.256442 82.174361 
M 190.188369 71.118831 
L 190.188369 71.86695 
Q 190.188369 73.903495 189.294783 77.768774 
Q 188.401197 81.634054 188.276511 82.299048 
L 187.528392 82.548421 
M 185.949031 71.368204 
L 186.447777 71.368204 
L 187.694641 71.368204 
Q 188.733694 71.368204 190.00134 71.181174 
Q 191.268985 70.994145 192.869128 70.682429 
Q 194.46927 70.370713 195.175827 70.246026 
L 197.669555 69.871967 
" clip-path="url(#p9c7e5ce973)" style="fill: none; stroke: #000000; stroke-linejoin: miter"/>
   </g>
  </g>
 </g>
 <defs>
  <clipPath id="pb66e86d6df">
   <rect x="0" y="48.48534" width="36.45" height="64.21932"/>
  </clipPath>
  <clipPath id="p281d23c29d">
   <rect x="36.45" y="37.625488" width="36.45" height="85.939024"/>
  </clipPath>
  <clipPath id="pca9d33f51d">
   <rect x="72.9" y="46.319708" width="36.45" height="68.550584"/>
  </clipPath>
  <clipPath id="pad2ed81855">
   <rect x="109.35" y="49.973621" width="36.45" height="61.242758"/>
  </clipPath>
  <clipPath id="p109e66b152">
   <rect x="145.8" y="46.319708" width="36.45" height="68.550584"/>
  </clipPath>
  <clipPath id="p9c7e5ce973">
   <rect x="182.25" y="50.462446" width="36.45" height="60.265108"/>
  </clipPath>
 </defs>
</svg>
