<?xml version="1.0" encoding="utf-8" standalone="no"?>
<!DOCTYPE svg PUBLIC "-//W3C//DTD SVG 1.1//EN"
  "http://www.w3.org/Graphics/SVG/1.1/DTD/svg11.dtd">
<svg xmlns:xlink="http://www.w3.org/1999/xlink" width="252pt" height="72pt" viewBox="0 0 252 72" xmlns="http://www.w3.org/2000/svg" version="1.1">
 <metadata>
  <rdf:RDF xmlns:dc="http://purl.org/dc/elements/1.1/" xmlns:cc="http://creativecommons.org/ns#" xmlns:rdf="http://www.w3.org/1999/02/22-rdf-syntax-ns#">
   <cc:Work>
    <dc:type rdf:resource="http://purl.org/dc/dcmitype/StillImage"/>
    <dc:date>2023-02-03T21:36:23.844079</dc:date>
    <dc:format>image/svg+xml</dc:format>
    <dc:creator>
     <cc:Agent>
      <dc:title>Matplotlib v3.6.1, https://matplotlib.org/</dc:title>
     </cc:Agent>
    </dc:creator>
   </cc:Work>
  </rdf:RDF>
 </metadata>
 <defs>
  <style type="text/css">*{stroke-linejoin: round; stroke-linecap: butt}</style>
 </defs>
 <g id="figure_1">
  <g id="patch_1">
   <path d="M 0 72 
L 252 72 
L 252 0 
L 0 0 
z
" style="fill: #8fff9f"/>
  </g>
  <g id="axes_1">
   <g id="patch_2">
    <path d="M 13.259927 33.713605 
L 13.467113 37.650146 
L 13.6743 41.483094 
Q 13.708831 41.621218 13.812424 42.00106 
Q 13.916017 42.380901 14.01961 42.65715 
Q 14.123203 42.933398 14.295859 43.140585 
Q 14.468514 43.762144 14.762028 44.262844 
Q 15.055542 44.763544 15.538977 45.108855 
Q 16.022412 45.454166 16.436784 45.695883 
Q 16.851157 45.9376 17.61084 46.058459 
Q 18.370524 46.179318 18.802162 46.265646 
Q 19.2338 46.351973 20.166139 46.351973 
Q 21.098477 46.351973 21.443788 46.334708 
Q 21.789099 46.317442 22.807765 46.265646 
Q 23.826431 46.213849 24.033618 46.213849 
Q 25.276736 46.593691 25.673843 45.954866 
Q 26.07095 45.316041 26.157278 44.038392 
Q 26.243605 42.760743 26.623447 42.242777 
M 13.570706 35.405627 
Q 18.128806 35.129379 19.958952 34.645944 
L 21.305664 34.542351 
M 13.156334 29.259099 
L 19.337393 29.155505 
Q 20.545981 28.741133 20.580512 28.741133 
Q 20.684105 28.741133 20.684105 29.259099 
Q 20.684105 29.777065 20.545981 30.381358 
Q 20.407856 30.985652 20.183404 31.693538 
Q 19.958952 32.401425 19.855359 32.781267 
L 19.958952 34.749537 
M 4.523569 27.221766 
Q 5.594032 28.395822 6.699026 29.086443 
L 7.527771 29.397223 
M 1.726553 35.060317 
Q 2.313581 34.887661 3.470371 34.456023 
Q 4.627162 34.024385 5.248721 33.85173 
L 6.18106 33.506419 
Q 6.560901 33.299233 6.819884 33.247436 
Q 7.078867 33.195639 7.216991 33.299233 
Q 7.355116 33.402826 7.406912 33.558216 
Q 7.458709 33.713605 7.441443 33.989854 
Q 7.424178 34.266102 7.406912 34.525085 
Q 7.389647 34.784068 7.355116 35.112113 
Q 7.320585 35.440158 7.320585 35.681876 
Q 7.355116 37.581084 6.664495 41.224111 
Q 5.973873 44.867138 5.973873 46.662753 
Q 7.251523 45.834007 7.838551 45.108855 
Q 8.287454 44.521827 9.910414 43.244178 
L 10.531973 42.415432 
" clip-path="url(#pbe760cae93)" style="fill: none; stroke: #000000; stroke-linejoin: miter"/>
   </g>
  </g>
  <g id="axes_2">
   <g id="patch_3">
    <path d="M 45.173864 40.902955 
L 45.496023 40.902955 
L 49.361932 38.325682 
M 42.274432 37.359205 
Q 42.847159 37.681364 43.670455 38.862614 
Q 47.035227 43.838182 51.509659 46.379659 
Q 51.724432 46.379659 52.118182 46.701818 
Q 52.511932 47.023977 52.798295 47.023977 
M 38.515909 41.3325 
Q 38.014773 41.690455 36.010227 43.06858 
Q 34.005682 44.446705 33.039205 45.305795 
L 32.717045 46.0575 
M 34.542614 37.144432 
L 37.119886 38.218295 
L 37.871591 38.755227 
M 42.059659 34.066023 
L 42.167045 48.312614 
L 41.7375 48.205227 
L 39.589773 46.487045 
M 30.139773 34.495568 
L 32.609659 34.495568 
Q 34.220455 34.495568 36.046023 34.370284 
Q 37.871591 34.245 40.108807 34.030227 
Q 42.346023 33.815455 43.563068 33.743864 
L 52.476136 32.777386 
L 54.910227 32.562614 
M 37.191477 30.235909 
L 43.885227 29.877955 
M 38.122159 27.1575 
L 47.25 26.656364 
L 47.25 27.085909 
Q 47.25 27.694432 46.820455 28.947273 
Q 46.390909 30.200114 46.032955 30.70125 
L 44.636932 33.206932 
" clip-path="url(#p2c5801ad44)" style="fill: none; stroke: #000000; stroke-linejoin: miter"/>
   </g>
  </g>
  <g id="axes_3">
   <g id="patch_4">
    <path d="M 71.083968 45.537015 
L 79.233722 44.701143 
L 81.532371 44.492174 
M 76.099201 31.048563 
L 76.099201 43.133882 
L 75.994717 44.074238 
L 75.681265 45.328047 
M 71.083968 37.840025 
L 71.501904 37.840025 
Q 72.999509 37.840025 75.907647 37.47433 
Q 78.815786 37.108636 80.278563 37.108636 
Q 80.487531 36.760356 81.271161 37.004152 
Q 82.054791 37.247948 82.263759 36.899668 
M 70.248096 30.735111 
L 70.561548 30.735111 
L 71.292936 30.526143 
Q 71.327764 30.526143 75.785749 30.21269 
L 83.3086 30.21269 
L 83.3086 34.0786 
Q 83.273771 35.47172 83.082217 38.536585 
Q 82.890663 41.60145 82.890663 43.969754 
Q 82.890663 44.004582 82.995147 47.208759 
L 80.278563 45.954951 
M 70.561548 30.944079 
L 70.248096 43.238366 
L 70.35258 45.537015 
M 58.4414 44.596658 
L 58.963821 44.596658 
Q 60.078317 44.596658 61.401781 44.335448 
Q 62.725246 44.074238 64.30992 43.638888 
Q 65.894595 43.203538 66.695639 43.029398 
L 67.740479 42.715946 
M 67.531511 30.769939 
Q 66.904607 31.292359 65.964251 33.277555 
L 64.39699 35.193096 
Q 64.257678 35.332408 63.038698 36.499146 
Q 61.819717 37.665885 60.914189 38.658483 
Q 60.008661 39.651081 60.008661 39.999361 
Q 60.008661 39.964533 62.725246 39.267973 
L 66.382187 39.059005 
L 67.113575 38.850037 
M 64.710442 27.147826 
Q 64.118366 27.635418 63.299908 28.90664 
Q 62.48145 30.177862 62.202826 30.491314 
Q 61.332125 31.536155 60.949017 32.163059 
L 59.799693 34.043771 
L 62.098342 33.834803 
L 66.068735 33.312383 
" clip-path="url(#p5658563951)" style="fill: none; stroke: #000000; stroke-linejoin: miter"/>
   </g>
  </g>
  <g id="axes_4">
   <g id="patch_5">
    <path d="M 99.240698 30.953721 
Q 99.240698 30.953721 99.617442 30.953721 
Q 100.936047 30.953721 102.427326 30.718256 
Q 103.918605 30.482791 105.833721 30.074651 
Q 107.748837 29.666512 108.533721 29.54093 
L 107.811628 40.937442 
L 105.174419 38.771163 
M 101.689535 26.526977 
L 101.689535 26.809535 
Q 101.689535 27.72 101.093023 28.614767 
Q 100.496512 29.509535 99.554651 30.467093 
Q 98.612791 31.424651 98.298837 31.895581 
L 96.980233 32.554884 
M 97.168605 38.363023 
L 97.639535 38.363023 
L 99.617442 38.363023 
L 102.913953 38.174651 
M 97.168605 34.156047 
L 97.451163 34.156047 
Q 98.236047 34.156047 99.758721 33.59093 
Q 101.281395 33.025814 102.066279 33.025814 
Q 102.12907 33.025814 102.19186 33.025814 
Q 102.317442 33.025814 102.364535 33.025814 
Q 102.411628 33.025814 102.427326 33.088605 
Q 102.443023 33.151395 102.443023 33.308372 
L 102.443023 34.344419 
L 102.160465 37.986279 
M 97.074419 34.156047 
L 97.074419 35.286279 
Q 97.074419 36.322326 97.309884 38.363023 
Q 97.545349 40.403721 97.545349 41.408372 
L 97.545349 42.413023 
Q 97.827907 44.704884 99.068023 45.835116 
Q 100.30814 46.965349 102.694186 47.02814 
Q 102.756977 47.02814 104.028488 47.106628 
Q 105.3 47.185116 106.414535 47.216512 
Q 107.52907 47.247907 108.847674 47.185116 
Q 110.166279 47.122326 110.951163 46.82407 
Q 111.736047 46.525814 111.736047 45.992093 
Q 111.673256 45.74093 111.751744 44.924651 
Q 111.830233 44.108372 111.57907 43.92 
M 88.880233 38.080465 
L 89.822093 38.080465 
L 92.836047 37.609535 
M 88.880233 33.182791 
L 89.445349 33.182791 
Q 89.476744 33.182791 93.212791 32.900233 
M 88.409302 28.567674 
L 95.190698 27.531628 
L 95.096512 29.792093 
L 94.90814 32.617674 
Q 94.562791 33.873488 94.515698 35.34907 
Q 94.468605 36.824651 94.531395 38.598488 
Q 94.594186 40.372326 94.531395 41.376977 
Q 94.531395 41.471163 94.609884 43.103721 
Q 94.688372 44.736279 94.609884 45.976395 
Q 94.531395 47.216512 94.154651 47.216512 
Q 94.123256 47.216512 93.495349 46.651395 
L 92.930233 46.368837 
M 88.69186 28.567674 
L 88.880233 37.232791 
L 88.69186 43.260698 
L 87.844186 45.238605 
L 87.184884 45.992093 
L 86.619767 46.557209 
" clip-path="url(#pc569ee5f49)" style="fill: none; stroke: #000000; stroke-linejoin: miter"/>
   </g>
  </g>
  <g id="axes_5">
   <g id="patch_6">
    <path d="M 130.536683 33.420662 
Q 131.661372 33.720579 133.910752 35.332634 
M 128.849648 28.584497 
Q 130.349234 28.696966 132.673593 28.115876 
Q 134.997952 27.534786 135.822724 27.459807 
Q 136.23511 27.459807 136.460048 27.553531 
Q 136.684986 27.647255 136.759966 27.890938 
Q 136.834945 28.134621 136.8162 28.378303 
Q 136.797455 28.621986 136.759966 29.146841 
Q 136.722476 29.671697 136.722476 30.046593 
Q 136.947414 34.320414 136.160131 43.4304 
Q 136.160131 43.805297 136.160131 44.105214 
Q 136.160131 44.405131 136.141386 44.630069 
Q 136.122641 44.855007 135.953938 44.986221 
Q 135.785234 45.117434 135.372848 45.117434 
L 134.698034 45.117434 
L 132.336186 43.542869 
M 130.649152 23.8608 
L 130.649152 24.198207 
Q 130.649152 25.022979 130.274255 26.110179 
Q 129.899359 27.197379 129.299524 28.472028 
Q 128.69969 29.746676 128.512241 30.271531 
L 127.837428 31.396221 
M 119.252297 43.767807 
L 120.264517 43.767807 
L 126.112903 43.4304 
M 119.252297 35.894979 
L 124.875745 35.670041 
M 118.202586 29.971614 
L 120.114559 29.971614 
Q 120.601924 29.971614 122.139 29.634207 
Q 123.676076 29.2968 124.950724 28.959393 
Q 126.225372 28.621986 126.225372 28.584497 
Q 126.225372 39.493986 126.000434 42.868055 
L 125.663028 45.342372 
M 118.652462 28.846924 
L 118.652462 29.184331 
Q 118.652462 30.908855 119.064848 34.15171 
Q 119.477234 37.394566 119.477234 39.156579 
L 119.477234 42.868055 
L 119.027359 43.992745 
M 124.763276 24.760552 
Q 124.3134 25.060469 123.788545 25.99771 
Q 123.26369 26.934952 122.851303 27.234869 
L 121.951552 29.25931 
" clip-path="url(#p85b0f1cabc)" style="fill: none; stroke: #000000; stroke-linejoin: miter"/>
   </g>
  </g>
  <g id="axes_6">
   <g id="patch_7">
    <path d="M 148.108407 41.21851 
Q 150.845152 41.818345 156.862241 44.498855 
Q 162.879331 47.179366 166.103441 47.629241 
L 166.665786 47.966648 
M 150.132848 39.306538 
Q 151.819883 38.819172 155.306421 38.819172 
Q 158.792959 38.819172 160.479993 38.631724 
Q 164.004021 38.03189 154.744076 46.392083 
Q 154.481648 46.65451 154.406669 46.72949 
L 148.145897 49.203807 
M 160.479993 32.333462 
Q 161.117317 32.820828 163.516655 34.807779 
L 163.854062 35.145186 
M 149.682972 32.220993 
Q 149.233097 32.333462 148.8582 33.195724 
Q 148.483303 34.057986 148.108407 34.357903 
L 146.308903 36.494814 
M 153.956793 24.798041 
L 156.093703 27.384828 
M 158.230614 29.2968 
L 158.230614 29.859145 
Q 158.230614 30.796386 158.13689 31.921076 
Q 158.043166 33.045766 157.893207 34.451628 
Q 157.743248 35.85749 157.668269 36.607283 
M 152.15729 29.071862 
Q 152.194779 29.709186 152.15729 30.309021 
Q 152.15729 30.721407 152.438462 31.43371 
Q 152.719634 32.146014 152.719634 32.5584 
Q 152.719634 32.933297 152.775869 33.758069 
Q 152.832103 34.582841 152.832103 34.807779 
L 152.832103 35.707531 
L 153.057041 36.044938 
M 145.184214 29.634207 
Q 145.521621 29.409269 146.72129 29.521738 
Q 147.920959 29.634207 148.333345 29.521738 
Q 149.607993 29.521738 152.325993 29.2968 
Q 155.043993 29.071862 156.318641 29.071862 
L 161.717152 29.071862 
Q 161.754641 29.071862 162.616903 28.734455 
L 165.541097 29.071862 
" clip-path="url(#p5ffd94ac45)" style="fill: none; stroke: #000000; stroke-linejoin: miter"/>
   </g>
  </g>
  <g id="axes_7">
   <g id="patch_8">
    <path d="M 180.338586 39.981352 
Q 180.338586 39.981352 180.788462 39.981352 
Q 182.025621 39.981352 183.637676 38.875407 
Q 185.249731 37.769462 187.049234 36.157407 
Q 188.848738 34.545352 189.448572 34.132966 
L 192.147828 30.533959 
M 183.937593 26.372607 
L 183.825124 31.321241 
Q 183.487717 34.432883 183.487717 34.470372 
Q 183.412738 37.806952 183.712655 40.656166 
Q 184.200021 45.342372 186.618103 47.029407 
Q 189.036186 48.716441 193.160048 48.191586 
Q 193.497455 48.154097 193.759883 48.097862 
Q 194.02231 48.041628 194.228503 47.891669 
Q 194.434697 47.74171 194.56591 47.647986 
Q 194.697124 47.554262 194.828338 47.27309 
Q 194.959552 46.991917 195.034531 46.841959 
Q 195.10951 46.692 195.203234 46.242124 
Q 195.296959 45.792248 195.334448 45.548566 
Q 195.371938 45.304883 195.465662 44.686303 
Q 195.559386 44.067724 195.634366 43.692828 
M 177.976738 31.321241 
Q 177.976738 32.820828 177.901759 35.595062 
Q 177.826779 38.369297 177.826779 40.656166 
Q 177.826779 42.943034 177.976738 44.929986 
Q 177.976738 45.004966 177.995483 46.598276 
Q 178.014228 48.191586 177.864269 48.191586 
M 180.675993 26.485076 
Q 179.663772 30.533959 176.62711 32.670869 
L 173.590448 34.357903 
L 172.915634 34.582841 
" clip-path="url(#p00b5c90694)" style="fill: none; stroke: #000000; stroke-linejoin: miter"/>
   </g>
  </g>
  <g id="axes_8">
   <g id="patch_9">
    <path d="M 211.162903 36.94469 
Q 211.200393 37.019669 211.462821 37.263352 
Q 211.725248 37.507034 211.837717 37.619503 
Q 211.950186 37.731972 212.193869 38.013145 
Q 212.437552 38.294317 212.58751 38.463021 
Q 212.737469 38.631724 212.962407 38.931641 
Q 213.187345 39.231559 213.318559 39.437752 
Q 213.449772 39.643945 213.599731 39.943862 
Q 213.74969 40.243779 213.843414 40.487462 
Q 213.937138 40.731145 214.012117 41.012317 
Q 214.087097 41.29349 214.087097 41.555917 
Q 214.087097 42.118262 213.937138 42.605628 
Q 213.787179 43.092993 213.506007 43.636593 
Q 213.224834 44.180193 213.074876 44.592579 
L 211.950186 45.717269 
" clip-path="url(#p4e054d26eb)" style="fill: none; stroke: #000000; stroke-linejoin: miter"/>
   </g>
  </g>
 </g>
 <defs>
  <clipPath id="pbe760cae93">
   <rect x="0" y="10.784982" width="28.35" height="50.070037"/>
  </clipPath>
  <clipPath id="p2c5801ad44">
   <rect x="28.35" y="9.868295" width="28.35" height="51.903409"/>
  </clipPath>
  <clipPath id="p5658563951">
   <rect x="56.7" y="10.569693" width="28.35" height="50.500614"/>
  </clipPath>
  <clipPath id="pc569ee5f49">
   <rect x="85.05" y="13.058372" width="28.35" height="45.523256"/>
  </clipPath>
  <clipPath id="p85b0f1cabc">
   <rect x="116.328103" y="8.64" width="22.493793" height="54.36"/>
  </clipPath>
  <clipPath id="p5ffd94ac45">
   <rect x="143.309731" y="8.64" width="25.230538" height="54.36"/>
  </clipPath>
  <clipPath id="p00b5c90694">
   <rect x="171.041152" y="8.64" width="26.467697" height="54.36"/>
  </clipPath>
  <clipPath id="p4e054d26eb">
   <rect x="209.288421" y="8.64" width="6.673159" height="54.36"/>
  </clipPath>
 </defs>
</svg>
