<?xml version="1.0" encoding="utf-8" standalone="no"?>
<!DOCTYPE svg PUBLIC "-//W3C//DTD SVG 1.1//EN"
  "http://www.w3.org/Graphics/SVG/1.1/DTD/svg11.dtd">
<svg xmlns:xlink="http://www.w3.org/1999/xlink" width="162pt" height="162pt" viewBox="0 0 162 162" xmlns="http://www.w3.org/2000/svg" version="1.1">
 <metadata>
  <rdf:RDF xmlns:dc="http://purl.org/dc/elements/1.1/" xmlns:cc="http://creativecommons.org/ns#" xmlns:rdf="http://www.w3.org/1999/02/22-rdf-syntax-ns#">
   <cc:Work>
    <dc:type rdf:resource="http://purl.org/dc/dcmitype/StillImage"/>
    <dc:date>2023-02-15T22:58:39.175936</dc:date>
    <dc:format>image/svg+xml</dc:format>
    <dc:creator>
     <cc:Agent>
      <dc:title>Matplotlib v3.6.1, https://matplotlib.org/</dc:title>
     </cc:Agent>
    </dc:creator>
   </cc:Work>
  </rdf:RDF>
 </metadata>
 <defs>
  <style type="text/css">*{stroke-linejoin: round; stroke-linecap: butt}</style>
 </defs>
 <g id="figure_1">
  <g id="patch_1">
   <path d="M 0 162 
L 162 162 
L 162 0 
L 0 0 
z
" style="fill: #8fff9f"/>
  </g>
  <g id="axes_1">
   <g id="patch_2">
    <path d="M 23.768088 68.836935 
Q 23.726094 68.962915 23.768088 69.466832 
Q 23.768088 70.810611 24.146025 75.49284 
Q 24.523963 80.175069 24.230012 82.610668 
L 23.852074 86.138088 
M 16.839228 80.469021 
L 17.469124 80.343041 
L 31.200864 76.689643 
L 30.19303 83.870461 
L 29.437154 85.256233 
L 27.967396 82.90462 
M 18.854896 75.051912 
L 19.106855 78.201394 
L 19.736751 82.736647 
L 19.98871 88.741659 
Q 20.072696 90.211417 20.744585 91.072275 
Q 21.416475 91.933134 22.613278 92.185092 
Q 23.810081 92.437051 24.922897 92.479044 
Q 26.035714 92.521037 27.589459 92.437051 
Q 29.143203 92.353065 29.941071 92.395058 
Q 30.319009 92.437051 31.074885 92.374061 
Q 31.83076 92.311071 32.586636 92.01712 
Q 33.342512 91.723168 33.216532 91.261244 
L 34.350346 87.145922 
M 13.05985 77.571498 
L 13.05985 77.823456 
Q 13.05985 82.022765 11.653082 84.773312 
Q 10.246313 87.523859 7.012846 90.169424 
L 2.099654 93.906809 
M 2.603571 80.427028 
L 3.233468 80.427028 
Q 4.157316 80.427028 6.361953 79.902114 
Q 8.56659 79.3772 9.532431 79.335207 
L 13.311809 78.705311 
M 9.154493 71.020576 
L 9.154493 71.776452 
Q 8.776555 73.078237 8.56659 76.773629 
Q 8.356624 80.469021 7.768721 81.854793 
Q 7.726728 81.980772 7.369787 82.631665 
Q 7.012846 83.282558 6.844873 83.786475 
Q 6.676901 84.290392 6.844873 84.54235 
Q 7.684735 86.054101 10.624251 88.468704 
Q 13.563767 90.883306 14.067684 91.429217 
L 15.579435 92.185092 
" clip-path="url(#p104fb8b063)" style="fill: none; stroke: #000000; stroke-linejoin: miter"/>
   </g>
  </g>
  <g id="axes_2">
   <g id="patch_3">
    <path d="M 54.943673 93.088305 
L 65.421929 92.013612 
L 68.377334 91.744939 
M 61.39183 74.460295 
L 61.39183 89.998563 
L 61.257494 91.207592 
L 60.854484 92.819631 
M 54.943673 83.192174 
L 55.48102 83.192174 
Q 57.406511 83.192174 61.145547 82.721996 
Q 64.884582 82.251818 66.765295 82.251818 
Q 67.033968 81.804029 68.041493 82.117482 
Q 69.049017 82.430934 69.31769 81.983145 
M 53.86898 74.057285 
L 54.27199 74.057285 
L 55.212346 73.788612 
Q 55.257125 73.788612 60.988821 73.385602 
L 70.661057 73.385602 
L 70.661057 78.356057 
Q 70.616278 80.147211 70.369994 84.087752 
Q 70.12371 88.028292 70.12371 91.073256 
Q 70.12371 91.118034 70.258047 95.23769 
L 66.765295 93.625651 
M 54.27199 74.325958 
L 53.86898 90.132899 
L 54.003317 93.088305 
M 38.688943 91.879275 
L 39.360627 91.879275 
Q 40.79355 91.879275 42.495147 91.543434 
Q 44.196744 91.207592 46.234183 90.647856 
Q 48.271622 90.08812 49.301536 89.864226 
L 50.644902 89.461216 
M 50.376229 74.102064 
Q 49.570209 74.773747 48.361179 77.326143 
L 46.34613 79.78898 
Q 46.167015 79.968096 44.599754 81.468188 
Q 43.032494 82.96828 41.868243 84.244478 
Q 40.703993 85.520676 40.703993 85.968464 
Q 40.703993 85.923686 44.196744 85.028108 
L 48.898526 84.759435 
L 49.838882 84.490762 
M 46.74914 69.445061 
Q 45.987899 70.071966 44.935596 71.706394 
Q 43.883292 73.340823 43.525061 73.743833 
Q 42.40559 75.087199 41.913022 75.893219 
L 40.435319 78.311278 
L 43.390725 78.042604 
L 48.495516 77.370921 
" clip-path="url(#pf7f8f681d9)" style="fill: none; stroke: #000000; stroke-linejoin: miter"/>
   </g>
  </g>
  <g id="axes_3">
   <g id="patch_4">
    <path d="M 103.342313 77.868823 
Q 103.847161 78.424155 104.57919 79.635789 
Q 105.311219 80.847424 105.765582 81.352271 
L 106.825762 83.77554 
M 85.521191 69.740776 
Q 86.985249 70.296108 88.47455 72.290256 
Q 89.96385 74.284404 90.670637 76.25331 
M 81.38144 73.325194 
Q 82.088227 76.404765 82.340651 80.039668 
Q 82.593075 83.674571 82.618317 86.072597 
Q 82.64356 88.470623 82.996953 90.666711 
Q 83.350346 92.862798 84.587223 93.94822 
Q 85.8241 95.033643 88.247368 95.134612 
Q 89.660942 95.185097 97.814231 94.957916 
Q 105.967521 94.730734 105.715097 94.377341 
Q 104.402493 92.660859 103.897645 91.676406 
Q 103.392798 90.691953 102.585042 88.268684 
M 77.24169 79.736759 
Q 77.443629 79.736759 77.418386 80.014425 
Q 77.393144 80.292091 77.393144 80.342576 
L 75.727147 91.095831 
L 75.424238 91.550194 
" clip-path="url(#p748a65fced)" style="fill: none; stroke: #000000; stroke-linejoin: miter"/>
   </g>
  </g>
  <g id="axes_4">
   <g id="patch_5">
    <path d="M 131.492523 69.395993 
Q 131.449942 69.651484 131.492523 69.906974 
Q 131.492523 69.949556 131.875759 73.100607 
L 131.620269 87.024848 
M 122.422605 81.446636 
Q 122.422605 81.446636 123.061332 81.446636 
Q 124.93493 81.446636 127.255637 80.637582 
Q 129.576343 79.828528 131.386069 78.870438 
Q 133.195794 77.912348 135.410047 77.103294 
Q 137.624299 76.294241 139.370152 76.294241 
Q 138.092699 82.468598 138.092699 84.342196 
Q 138.220444 85.193832 137.666881 85.193832 
Q 137.283645 85.15125 136.176519 84.512523 
Q 135.197138 84.001542 134.899065 83.95896 
M 126.12722 76.03875 
L 126.38271 84.725432 
L 127.234346 88.770701 
Q 127.362091 88.941028 127.617582 89.409428 
Q 127.873072 89.877827 128.149854 90.218481 
Q 128.426636 90.559136 128.76729 90.729463 
Q 129.661507 91.325607 130.811215 91.602389 
Q 131.960923 91.879171 133.493867 92.006916 
Q 135.026811 92.134661 135.835864 92.304988 
Q 137.070736 92.560479 138.475935 92.475315 
Q 139.881133 92.390152 141.030841 92.092079 
Q 142.180549 91.794007 142.92573 90.835917 
Q 143.670911 89.877827 143.628329 88.344883 
M 111.479089 89.111355 
L 111.99007 89.111355 
Q 113.395269 89.111355 114.885631 88.706828 
Q 116.375993 88.302301 118.121846 87.620993 
Q 119.867699 86.939685 120.804498 86.684194 
L 122.848423 85.917722 
M 112.586215 81.191145 
Q 113.480432 81.020818 116.205666 79.977564 
Q 118.9309 78.934311 120.506425 78.891729 
M 117.440537 72.887699 
L 117.440537 87.450666 
" clip-path="url(#pfec3988b8c)" style="fill: none; stroke: #000000; stroke-linejoin: miter"/>
   </g>
  </g>
 </g>
 <defs>
  <clipPath id="p104fb8b063">
   <rect x="0" y="50.150012" width="36.45" height="60.889977"/>
  </clipPath>
  <clipPath id="pf7f8f681d9">
   <rect x="36.45" y="48.130319" width="36.45" height="64.929361"/>
  </clipPath>
  <clipPath id="p748a65fced">
   <rect x="72.9" y="43.993546" width="36.45" height="73.202909"/>
  </clipPath>
  <clipPath id="pfec3988b8c">
   <rect x="109.35" y="49.723213" width="36.45" height="61.743575"/>
  </clipPath>
 </defs>
</svg>
