<?xml version="1.0" encoding="utf-8" standalone="no"?>
<!DOCTYPE svg PUBLIC "-//W3C//DTD SVG 1.1//EN"
  "http://www.w3.org/Graphics/SVG/1.1/DTD/svg11.dtd">
<svg xmlns:xlink="http://www.w3.org/1999/xlink" width="189pt" height="72pt" viewBox="0 0 189 72" xmlns="http://www.w3.org/2000/svg" version="1.1">
 <metadata>
  <rdf:RDF xmlns:dc="http://purl.org/dc/elements/1.1/" xmlns:cc="http://creativecommons.org/ns#" xmlns:rdf="http://www.w3.org/1999/02/22-rdf-syntax-ns#">
   <cc:Work>
    <dc:type rdf:resource="http://purl.org/dc/dcmitype/StillImage"/>
    <dc:date>2023-02-03T21:36:28.801160</dc:date>
    <dc:format>image/svg+xml</dc:format>
    <dc:creator>
     <cc:Agent>
      <dc:title>Matplotlib v3.6.1, https://matplotlib.org/</dc:title>
     </cc:Agent>
    </dc:creator>
   </cc:Work>
  </rdf:RDF>
 </metadata>
 <defs>
  <style type="text/css">*{stroke-linejoin: round; stroke-linecap: butt}</style>
 </defs>
 <g id="figure_1">
  <g id="patch_1">
   <path d="M 0 72 
L 189 72 
L 189 0 
L 0 0 
z
" style="fill: #8fff9f"/>
  </g>
  <g id="axes_1">
   <g id="patch_2">
    <path d="M 1.576752 37.396752 
Q 11.636429 36.387631 19.078699 36.608376 
Q 19.709399 36.608376 20.482008 36.608376 
Q 21.254616 36.608376 21.538432 36.608376 
Q 21.822247 36.608376 22.421413 36.655679 
Q 23.020578 36.702981 23.935095 36.797586 
Q 24.187375 36.860656 25.228031 36.939494 
Q 26.268687 37.018331 26.773248 37.270612 
M 16.713571 31.247419 
L 16.713571 45.343582 
L 16.52436 46.951869 
M 10.564238 31.62584 
Q 10.532703 31.720445 10.548471 32.098865 
Q 10.564238 32.477286 10.564238 32.571891 
Q 10.564238 36.892191 9.555117 39.288854 
Q 8.545996 41.685517 5.833982 44.492136 
L 4.793326 45.059766 
M 18.258788 26.643304 
Q 17.817297 27.99931 16.52436 28.756151 
L 15.578309 29.702202 
M 7.158454 27.99931 
Q 7.253059 28.093915 7.915295 28.661546 
Q 8.577531 29.229177 8.861346 29.449922 
Q 9.145161 29.670667 9.712792 30.017553 
Q 10.280423 30.364438 10.753448 30.553648 
M 6.307008 31.310489 
L 14.159232 30.932069 
L 20.781591 31.026674 
" clip-path="url(#pa5b7b8659a)" style="fill: none; stroke: #000000; stroke-linejoin: miter"/>
   </g>
  </g>
  <g id="axes_2">
   <g id="patch_3">
    <path d="M 33.2838 27.08491 
Q 33.32129 27.347338 33.902379 27.459807 
Q 34.483469 27.572276 34.520959 27.984662 
L 37.107745 30.121572 
M 38.044986 38.481766 
L 38.607331 38.481766 
Q 39.544572 38.481766 40.613028 38.331807 
Q 41.681483 38.181848 42.993621 37.938166 
Q 44.305759 37.694483 45.018062 37.582014 
L 51.953648 36.9072 
M 40.181897 32.783338 
L 48.579579 31.996055 
L 50.828959 31.546179 
M 47.267441 28.734455 
L 47.229952 43.355421 
L 47.342421 44.030234 
M 42.431276 30.533959 
L 42.881152 33.120745 
L 42.768683 36.9072 
Q 41.718972 41.106041 39.394614 42.680607 
M 30.622034 46.504552 
L 32.758945 45.379862 
Q 33.133841 45.192414 33.489993 45.0612 
Q 33.846145 44.929986 34.071083 44.855007 
Q 34.296021 44.780028 34.689662 44.761283 
Q 35.083303 44.742538 35.270752 44.723793 
Q 35.4582 44.705048 36.0018 44.705048 
Q 36.5454 44.705048 36.807828 44.705048 
Q 37.857538 44.5176 38.832269 44.667559 
Q 39.807 44.817517 41.231607 45.323628 
Q 42.656214 45.829738 43.10609 45.942207 
Q 45.168021 46.504552 47.829786 46.504552 
Q 47.867276 46.504552 50.978917 46.167145 
L 54.427966 44.367641 
M 30.622034 34.395393 
Q 31.334338 34.170455 32.890159 33.870538 
Q 34.445979 33.570621 34.895855 33.458152 
L 37.482641 33.233214 
L 35.570669 35.82 
L 33.883634 37.507034 
Q 33.658697 38.03189 33.658697 38.069379 
L 33.658697 38.294317 
L 35.908076 44.592579 
" clip-path="url(#pce7f857b39)" style="fill: none; stroke: #000000; stroke-linejoin: miter"/>
   </g>
  </g>
  <g id="axes_3">
   <g id="patch_4">
    <path d="M 73.940367 33.256239 
Q 73.643119 33.70211 73.680275 34.835367 
Q 73.717431 35.968624 73.643119 36.600275 
L 73.643119 41.170459 
Q 73.643119 42.210826 73.475917 44.29156 
Q 73.308716 46.372294 73.308716 47.412661 
L 71.525229 47.078257 
L 70.299083 46.520917 
M 66.249083 34.593853 
Q 68.069725 33.813578 71.933945 33.311972 
Q 75.798165 32.810367 76.392661 32.698899 
Q 79.773853 31.992936 82.188991 31.807156 
L 83.192202 31.844312 
M 69.518807 29.65211 
Q 70.187615 29.503486 71.618119 29.131927 
Q 73.048624 28.760367 74.107569 28.574587 
Q 75.166514 28.388807 76.392661 28.351651 
L 77.730275 28.017248 
M 62.459174 35.708532 
Q 62.422018 35.894312 62.440596 36.042936 
Q 62.459174 36.19156 62.422018 36.340183 
Q 62.384862 36.488807 62.236239 36.600275 
L 61.901835 46.966789 
M 64.019725 31.58422 
Q 62.347706 37.046147 58.892202 37.826422 
L 58.557798 38.160826 
M 62.905046 26.568165 
Q 62.459174 27.980092 61.010092 29.912202 
L 59.895413 30.803945 
" clip-path="url(#p9eb88896b3)" style="fill: none; stroke: #000000; stroke-linejoin: miter"/>
   </g>
  </g>
  <g id="axes_4">
   <g id="patch_5">
    <path d="M 97.144324 35.670041 
L 97.144324 36.007448 
Q 97.144324 40.993572 90.058779 46.242124 
L 89.383966 46.467062 
M 93.320379 35.78251 
L 93.545317 35.78251 
Q 95.157372 35.78251 99.18751 35.013972 
Q 103.217648 34.245434 104.829703 34.245434 
Q 105.392048 34.245434 105.448283 35.595062 
Q 105.504517 36.94469 105.185855 38.800428 
Q 104.867193 40.656166 104.586021 42.024538 
Q 104.304848 43.39291 104.15489 43.992745 
Q 103.854972 45.154924 103.498821 45.848483 
Q 103.142669 46.542041 102.880241 46.766979 
Q 102.617814 46.991917 102.242917 47.348069 
Q 101.868021 47.704221 101.568103 48.154097 
L 99.80609 46.167145 
M 97.406752 26.07269 
Q 97.63169 25.922731 97.762903 26.0352 
Q 97.894117 26.147669 98.1378 26.466331 
Q 98.381483 26.784993 98.531441 26.859972 
Q 100.068517 27.609766 103.367607 30.102828 
Q 106.666697 32.59589 108.50369 34.207945 
L 110.303193 34.882759 
M 94.29511 28.547007 
L 94.29511 28.996883 
Q 94.29511 30.084083 93.545317 31.283752 
Q 92.795524 32.483421 91.764559 33.739324 
Q 90.733593 34.995228 90.396186 35.745021 
L 88.146807 37.319586 
" clip-path="url(#pfa47b1bc28)" style="fill: none; stroke: #000000; stroke-linejoin: miter"/>
   </g>
  </g>
  <g id="axes_5">
   <g id="patch_6">
    <path d="M 134.407807 33.817584 
L 134.407807 35.398439 
L 134.407807 38.349368 
L 134.337546 45.937472 
L 134.232156 46.780595 
M 129.313941 34.274275 
L 130.157063 34.274275 
Q 131.808178 34.274275 134.495632 33.958104 
Q 137.183086 33.641933 138.51803 33.606803 
L 139.993494 33.290632 
M 129.24368 29.039888 
Q 129.454461 29.145279 130.069238 28.741283 
Q 130.684015 28.337286 130.929926 28.407546 
L 136.550743 26.44026 
M 129.770632 28.829108 
L 129.770632 29.67223 
Q 129.770632 34.766097 128.470818 38.823625 
Q 127.171004 42.881152 124.465985 46.569814 
L 124.044424 46.780595 
M 121.690706 34.660706 
Q 123.271561 36.452342 124.325465 36.979294 
L 125.168587 38.033197 
M 121.058364 31.920558 
L 121.058364 32.342119 
Q 121.058364 33.536543 120.320632 34.836357 
Q 119.5829 36.136171 118.406041 37.594071 
Q 117.229182 39.05197 116.842751 39.719442 
L 115.156506 41.089517 
M 115.788848 32.5529 
L 115.999628 32.5529 
Q 117.158922 32.5529 118.757342 32.201599 
Q 120.355762 31.850297 122.305483 31.288216 
Q 124.255204 30.726134 125.063197 30.550483 
L 126.749442 30.128922 
M 121.796097 25.562007 
L 121.585316 45.515911 
L 121.269145 48.256059 
" clip-path="url(#p12462984cd)" style="fill: none; stroke: #000000; stroke-linejoin: miter"/>
   </g>
  </g>
  <g id="axes_6">
   <g id="patch_7">
    <path d="M 156.393621 42.043283 
Q 156.393621 42.043283 155.606338 42.043283 
Q 154.594117 42.043283 153.975538 42.811821 
Q 153.356959 43.580359 153.356959 44.630069 
Q 153.319469 45.679779 154.050517 46.260869 
Q 154.781566 46.841959 155.831276 46.65451 
Q 156.131193 46.617021 156.618559 46.579531 
Q 157.105924 46.542041 157.368352 46.504552 
Q 157.630779 46.467062 157.949441 46.317103 
Q 158.268103 46.167145 158.399317 45.810993 
Q 158.530531 45.454841 158.530531 44.855007 
Q 158.530531 44.592579 158.418062 44.330152 
Q 158.305593 44.067724 158.118145 43.749062 
Q 157.930697 43.4304 157.855717 43.280441 
L 156.731028 42.605628 
" clip-path="url(#pfc2abb4173)" style="fill: none; stroke: #000000; stroke-linejoin: miter"/>
   </g>
  </g>
 </g>
 <defs>
  <clipPath id="pa5b7b8659a">
   <rect x="0" y="12.957097" width="28.35" height="45.725806"/>
  </clipPath>
  <clipPath id="pce7f857b39">
   <rect x="28.747552" y="8.64" width="27.554897" height="54.36"/>
  </clipPath>
  <clipPath id="p9eb88896b3">
   <rect x="56.7" y="8.881927" width="28.35" height="53.876147"/>
  </clipPath>
  <clipPath id="pfa47b1bc28">
   <rect x="86.272324" y="8.64" width="25.905352" height="54.36"/>
  </clipPath>
  <clipPath id="p12462984cd">
   <rect x="113.4" y="10.350669" width="28.35" height="50.938662"/>
  </clipPath>
  <clipPath id="pfc2abb4173">
   <rect x="151.444986" y="8.64" width="8.960028" height="54.36"/>
  </clipPath>
 </defs>
</svg>
