<?xml version="1.0" encoding="utf-8" standalone="no"?>
<!DOCTYPE svg PUBLIC "-//W3C//DTD SVG 1.1//EN"
  "http://www.w3.org/Graphics/SVG/1.1/DTD/svg11.dtd">
<svg xmlns:xlink="http://www.w3.org/1999/xlink" width="198pt" height="72pt" viewBox="0 0 198 72" xmlns="http://www.w3.org/2000/svg" version="1.1">
 <metadata>
  <rdf:RDF xmlns:dc="http://purl.org/dc/elements/1.1/" xmlns:cc="http://creativecommons.org/ns#" xmlns:rdf="http://www.w3.org/1999/02/22-rdf-syntax-ns#">
   <cc:Work>
    <dc:type rdf:resource="http://purl.org/dc/dcmitype/StillImage"/>
    <dc:date>2023-02-03T21:36:21.129699</dc:date>
    <dc:format>image/svg+xml</dc:format>
    <dc:creator>
     <cc:Agent>
      <dc:title>Matplotlib v3.6.1, https://matplotlib.org/</dc:title>
     </cc:Agent>
    </dc:creator>
   </cc:Work>
  </rdf:RDF>
 </metadata>
 <defs>
  <style type="text/css">*{stroke-linejoin: round; stroke-linecap: butt}</style>
 </defs>
 <g id="figure_1">
  <g id="patch_1">
   <path d="M 0 72 
L 198 72 
L 198 0 
L 0 0 
z
" style="fill: #8fff9f"/>
  </g>
  <g id="axes_1">
   <g id="patch_2">
    <path d="M 1.087248 30.470738 
L 2.261477 30.601208 
Q 4.088054 30.601208 5.925503 30.709933 
Q 7.762953 30.818658 10.002685 30.992617 
Q 12.242416 31.166577 13.677584 31.253557 
L 15.112752 31.123087 
M 7.871678 31.057852 
Q 7.936913 31.405772 7.675973 32.177718 
Q 7.415034 32.949664 7.610738 33.406309 
Q 7.610738 34.711007 7.752081 36.363624 
Q 7.893423 38.016242 8.110872 39.973289 
Q 8.328322 41.930336 8.393557 42.800134 
" clip-path="url(#p341a63f41c)" style="fill: none; stroke: #000000; stroke-linejoin: miter"/>
   </g>
  </g>
  <g id="axes_2">
   <g id="patch_3">
    <path d="M 19.032703 35.332634 
L 29.379848 35.332634 
M 28.592566 39.344028 
Q 28.592566 39.344028 25.668372 39.344028 
Q 18.695297 39.344028 18.695297 44.5176 
Q 18.695297 46.279614 20.45731 47.19811 
Q 22.219324 48.116607 24.206276 48.116607 
Q 25.443434 47.891669 26.249462 47.2356 
Q 27.05549 46.579531 27.411641 45.586055 
Q 27.767793 44.592579 27.936497 43.674083 
Q 28.1052 42.755586 28.255159 41.443448 
Q 28.405117 40.13131 28.592566 39.344028 
Q 29.679766 46.092166 29.792234 47.029407 
L 29.904703 48.154097 
" clip-path="url(#p57ce1cd267)" style="fill: none; stroke: #000000; stroke-linejoin: miter"/>
   </g>
  </g>
  <g id="axes_3"/>
  <g id="axes_4">
   <g id="patch_4">
    <path d="M 60.299007 34.920248 
Q 59.436745 36.007448 56.325103 40.018841 
Q 53.213462 44.030234 51.526428 46.054676 
M 52.426179 36.044938 
Q 54.300662 37.319586 56.793724 40.843614 
Q 59.286786 44.367641 60.861352 45.6048 
L 61.873572 45.942207 
" clip-path="url(#pb0702490d4)" style="fill: none; stroke: #000000; stroke-linejoin: miter"/>
   </g>
  </g>
  <g id="axes_5">
   <g id="patch_5">
    <path d="M 70.613131 30.384 
L 73.874731 34.657821 
M 73.537324 37.019669 
L 73.274897 41.743366 
Q 73.387366 42.268221 73.518579 43.749062 
Q 73.649793 45.229903 73.9872 46.1484 
Q 74.324607 47.066897 75.186869 47.591752 
" clip-path="url(#p557b8e20f7)" style="fill: none; stroke: #000000; stroke-linejoin: miter"/>
   </g>
  </g>
  <g id="axes_6">
   <g id="patch_6">
    <path d="M 92.699007 34.920248 
Q 91.836745 36.007448 88.725103 40.018841 
Q 85.613462 44.030234 83.926428 46.054676 
M 84.826179 36.044938 
Q 86.700662 37.319586 89.193724 40.843614 
Q 91.686786 44.367641 93.261352 45.6048 
L 94.273572 45.942207 
" clip-path="url(#p7e1113dbe3)" style="fill: none; stroke: #000000; stroke-linejoin: miter"/>
   </g>
  </g>
  <g id="axes_7">
   <g id="patch_7">
    <path d="M 101.757228 36.157407 
L 108.842772 36.157407 
M 105.243766 39.306538 
L 105.243766 47.516772 
" clip-path="url(#pa05c3288ba)" style="fill: none; stroke: #000000; stroke-linejoin: miter"/>
   </g>
  </g>
  <g id="axes_8">
   <g id="patch_8">
    <path d="M 117.038731 37.282097 
L 117.038731 37.844441 
Q 117.301159 39.868883 117.338648 41.312234 
Q 117.376138 42.755586 117.282414 44.667559 
Q 117.18869 46.579531 117.18869 48.191586 
L 117.263669 39.643945 
Q 117.263669 38.144359 118.856979 37.507034 
Q 120.45029 36.86971 121.874897 37.282097 
Q 123.786869 37.844441 124.705366 39.04411 
Q 125.623862 40.243779 125.680097 41.668386 
Q 125.736331 43.092993 125.773821 44.817517 
Q 125.81131 46.542041 125.961269 48.191586 
" clip-path="url(#pd304b3fe59)" style="fill: none; stroke: #000000; stroke-linejoin: miter"/>
   </g>
  </g>
  <g id="axes_9"/>
  <g id="axes_10">
   <g id="patch_9">
    <path d="M 157.499007 39.568966 
Q 156.149379 38.181848 153.9 38.444276 
Q 151.050786 38.444276 149.888607 39.793903 
Q 148.726428 41.143531 148.726428 44.067724 
Q 148.726428 45.56731 150.019821 46.279614 
Q 151.313214 46.991917 152.887779 46.991917 
Q 154.199917 46.991917 155.212138 45.736014 
Q 156.224359 44.48011 156.805448 42.30571 
Q 157.386538 40.13131 157.761434 37.938166 
Q 158.136331 35.745021 158.28629 33.045766 
Q 158.436248 30.34651 158.473738 28.978138 
Q 158.511228 27.609766 158.511228 26.185159 
Q 158.28629 26.260138 158.28629 29.896634 
L 158.28629 44.292662 
L 159.073572 48.229076 
" clip-path="url(#pe3e2ebd54c)" style="fill: none; stroke: #000000; stroke-linejoin: miter"/>
   </g>
  </g>
  <g id="axes_11">
   <g id="patch_10">
    <path d="M 167.813131 30.384 
L 171.074731 34.657821 
M 170.737324 37.019669 
L 170.474897 41.743366 
Q 170.587366 42.268221 170.718579 43.749062 
Q 170.849793 45.229903 171.1872 46.1484 
Q 171.524607 47.066897 172.386869 47.591752 
" clip-path="url(#pdb6c15ba6a)" style="fill: none; stroke: #000000; stroke-linejoin: miter"/>
   </g>
  </g>
 </g>
 <defs>
  <clipPath id="p341a63f41c">
   <rect x="0" y="20.054899" width="16.2" height="31.530201"/>
  </clipPath>
  <clipPath id="p57ce1cd267">
   <rect x="16.820814" y="8.64" width="14.958372" height="54.36"/>
  </clipPath>
  <clipPath id="pb0702490d4">
   <rect x="49.651945" y="8.64" width="14.09611" height="54.36"/>
  </clipPath>
  <clipPath id="p557b8e20f7">
   <rect x="68.738648" y="8.64" width="8.322703" height="54.36"/>
  </clipPath>
  <clipPath id="p7e1113dbe3">
   <rect x="82.051945" y="8.64" width="14.09611" height="54.36"/>
  </clipPath>
  <clipPath id="pa05c3288ba">
   <rect x="99.882745" y="8.64" width="10.83451" height="54.36"/>
  </clipPath>
  <clipPath id="pd304b3fe59">
   <rect x="115.164248" y="8.64" width="12.671503" height="54.36"/>
  </clipPath>
  <clipPath id="pe3e2ebd54c">
   <rect x="146.851945" y="8.64" width="14.09611" height="54.36"/>
  </clipPath>
  <clipPath id="pdb6c15ba6a">
   <rect x="165.938648" y="8.64" width="8.322703" height="54.36"/>
  </clipPath>
 </defs>
</svg>
