<?xml version="1.0" encoding="utf-8" standalone="no"?>
<!DOCTYPE svg PUBLIC "-//W3C//DTD SVG 1.1//EN"
  "http://www.w3.org/Graphics/SVG/1.1/DTD/svg11.dtd">
<svg xmlns:xlink="http://www.w3.org/1999/xlink" width="360pt" height="72pt" viewBox="0 0 360 72" xmlns="http://www.w3.org/2000/svg" version="1.1">
 <metadata>
  <rdf:RDF xmlns:dc="http://purl.org/dc/elements/1.1/" xmlns:cc="http://creativecommons.org/ns#" xmlns:rdf="http://www.w3.org/1999/02/22-rdf-syntax-ns#">
   <cc:Work>
    <dc:type rdf:resource="http://purl.org/dc/dcmitype/StillImage"/>
    <dc:date>2023-02-15T22:58:45.578599</dc:date>
    <dc:format>image/svg+xml</dc:format>
    <dc:creator>
     <cc:Agent>
      <dc:title>Matplotlib v3.6.1, https://matplotlib.org/</dc:title>
     </cc:Agent>
    </dc:creator>
   </cc:Work>
  </rdf:RDF>
 </metadata>
 <defs>
  <style type="text/css">*{stroke-linejoin: round; stroke-linecap: butt}</style>
 </defs>
 <g id="figure_1">
  <g id="patch_1">
   <path d="M 0 72 
L 360 72 
L 360 0 
L 0 0 
z
" style="fill: #8fff9f"/>
  </g>
  <g id="axes_1">
   <g id="patch_2">
    <path d="M 4.557228 37.244607 
Q 5.606938 37.207117 5.794386 37.132138 
Q 9.205945 37.132138 10.986703 39.212814 
Q 12.767462 41.29349 12.767462 44.780028 
Q 12.767462 47.704221 8.156234 47.704221 
Q 7.51891 47.704221 6.97531 47.591752 
Q 6.43171 47.479283 5.794386 47.254345 
Q 5.157062 47.029407 4.669697 46.916938 
L 3.432538 45.679779 
M 4.444759 25.435366 
L 4.444759 26.560055 
Q 4.444759 29.409269 4.557228 33.008276 
Q 4.669697 36.607283 4.857145 40.899848 
Q 5.044593 45.192414 5.119572 47.141876 
" clip-path="url(#p932e5df8d9)" style="fill: none; stroke: #000000; stroke-linejoin: miter"/>
   </g>
  </g>
  <g id="axes_2">
   <g id="patch_3">
    <path d="M 22.013131 30.384 
L 25.274731 34.657821 
M 24.937324 37.019669 
L 24.674897 41.743366 
Q 24.787366 42.268221 24.918579 43.749062 
Q 25.049793 45.229903 25.3872 46.1484 
Q 25.724607 47.066897 26.586869 47.591752 
" clip-path="url(#p9a460d53ce)" style="fill: none; stroke: #000000; stroke-linejoin: miter"/>
   </g>
  </g>
  <g id="axes_3">
   <g id="patch_4">
    <path d="M 36.038731 37.282097 
L 36.038731 37.844441 
Q 36.301159 39.868883 36.338648 41.312234 
Q 36.376138 42.755586 36.282414 44.667559 
Q 36.18869 46.579531 36.18869 48.191586 
L 36.263669 39.643945 
Q 36.263669 38.144359 37.856979 37.507034 
Q 39.45029 36.86971 40.874897 37.282097 
Q 42.786869 37.844441 43.705366 39.04411 
Q 44.623862 40.243779 44.680097 41.668386 
Q 44.736331 43.092993 44.773821 44.817517 
Q 44.81131 46.542041 44.961269 48.191586 
" clip-path="url(#p297a718fa9)" style="fill: none; stroke: #000000; stroke-linejoin: miter"/>
   </g>
  </g>
  <g id="axes_4">
   <g id="patch_5">
    <path d="M 61.487191 39.096404 
Q 61.23236 39.023596 60.26764 38.623146 
Q 59.302921 38.222697 58.64764 38.077079 
Q 57.99236 37.931461 57.337079 38.00427 
Q 54.715955 38.00427 53.077753 40.388764 
Q 51.439551 42.773258 51.439551 45.430787 
Q 51.439551 47.068989 56.681798 47.068989 
Q 58.247191 47.068989 59.575955 45.558202 
Q 60.904719 44.047416 61.578202 42.172584 
Q 62.251685 40.297753 62.251685 38.768764 
Q 62.251685 37.27618 62.215281 36.984944 
L 62.142472 38.077079 
Q 62.142472 38.550337 62.142472 38.987191 
Q 62.178876 40.188539 62.379101 42.281798 
Q 62.579326 44.375056 62.743146 46.049663 
Q 62.906966 47.72427 62.943371 49.872135 
Q 62.979775 52.02 62.815955 53.658202 
Q 62.652135 55.296404 62.087865 56.971011 
Q 61.523596 58.645618 60.595281 59.737753 
Q 59.666966 60.829888 58.065169 61.521573 
Q 56.463371 62.213258 54.315506 62.213258 
Q 52.677303 62.213258 51.585169 61.466966 
Q 50.493034 60.720674 50.493034 59.155281 
Q 50.420225 58.936854 50.456629 58.936854 
Q 50.493034 58.936854 50.602247 58.936854 
Q 50.711461 58.936854 50.711461 58.82764 
" clip-path="url(#p4f0462974a)" style="fill: none; stroke: #000000; stroke-linejoin: miter"/>
   </g>
  </g>
  <g id="axes_5"/>
  <g id="axes_6">
   <g id="patch_6">
    <path d="M 89.456152 30.309021 
Q 88.968786 30.42149 89.381172 30.833876 
Q 89.756069 31.208772 89.831048 30.946345 
Q 89.868538 30.871366 89.793559 30.646428 
Q 89.793559 30.458979 89.718579 30.42149 
Q 89.6436 30.384 89.512386 30.42149 
Q 89.381172 30.458979 89.231214 30.42149 
L 89.118745 30.646428 
M 90.018497 33.345683 
Q 91.068207 37.731972 91.593062 40.13131 
Q 92.117917 42.530648 92.567793 46.317103 
Q 93.017669 50.103559 92.830221 53.25269 
Q 92.830221 53.440138 92.830221 54.021228 
Q 92.830221 54.602317 92.830221 54.902234 
Q 92.830221 55.202152 92.811476 55.783241 
Q 92.792731 56.364331 92.717752 56.701738 
Q 92.642772 57.039145 92.530303 57.52651 
Q 92.417834 58.013876 92.211641 58.313793 
Q 92.005448 58.61371 91.743021 58.894883 
Q 91.480593 59.176055 91.105697 59.307269 
Q 90.7308 59.438483 90.243434 59.438483 
Q 89.268703 59.438483 88.51891 59.251034 
Q 87.769117 59.063586 86.906855 58.707434 
Q 86.044593 58.351283 85.407269 58.201324 
L 85.182331 57.751448 
" clip-path="url(#p9303753128)" style="fill: none; stroke: #000000; stroke-linejoin: miter"/>
   </g>
  </g>
  <g id="axes_7">
   <g id="patch_7">
    <path d="M 103.013131 30.384 
L 106.274731 34.657821 
M 105.937324 37.019669 
L 105.674897 41.743366 
Q 105.787366 42.268221 105.918579 43.749062 
Q 106.049793 45.229903 106.3872 46.1484 
Q 106.724607 47.066897 107.586869 47.591752 
" clip-path="url(#p38b00406c7)" style="fill: none; stroke: #000000; stroke-linejoin: miter"/>
   </g>
  </g>
  <g id="axes_8">
   <g id="patch_8">
    <path d="M 117.038731 37.282097 
L 117.038731 37.844441 
Q 117.301159 39.868883 117.338648 41.312234 
Q 117.376138 42.755586 117.282414 44.667559 
Q 117.18869 46.579531 117.18869 48.191586 
L 117.263669 39.643945 
Q 117.263669 38.144359 118.856979 37.507034 
Q 120.45029 36.86971 121.874897 37.282097 
Q 123.786869 37.844441 124.705366 39.04411 
Q 125.623862 40.243779 125.680097 41.668386 
Q 125.736331 43.092993 125.773821 44.817517 
Q 125.81131 46.542041 125.961269 48.191586 
" clip-path="url(#pffacb4b39e)" style="fill: none; stroke: #000000; stroke-linejoin: miter"/>
   </g>
  </g>
  <g id="axes_9"/>
  <g id="axes_10">
   <g id="patch_9">
    <path d="M 150.413462 35.932469 
Q 151.013297 35.257655 152.006772 34.826524 
Q 153.000248 34.395393 153.9 34.470372 
Q 154.537324 34.470372 155.02469 34.639076 
Q 155.512055 34.807779 155.830717 34.995228 
Q 156.149379 35.182676 156.374317 35.670041 
Q 156.599255 36.157407 156.711724 36.419834 
Q 156.824193 36.682262 156.880428 37.375821 
Q 156.936662 38.069379 156.955407 38.331807 
Q 156.974152 38.594234 156.955407 39.419007 
Q 156.936662 40.243779 156.936662 40.431228 
Q 156.936662 41.368469 156.767959 43.242952 
Q 156.599255 45.117434 156.599255 46.054676 
Q 156.599255 46.467062 156.65549 46.823214 
Q 156.711724 47.179366 156.805448 47.610497 
Q 156.899172 48.041628 156.936662 48.304055 
L 157.386538 48.528993 
M 150.863338 23.111007 
Q 151.088276 24.798041 151.088276 29.971614 
L 151.088276 42.3432 
L 150.750869 46.841959 
L 150.525931 47.74171 
" clip-path="url(#pe1c7d0a5c1)" style="fill: none; stroke: #000000; stroke-linejoin: miter"/>
   </g>
  </g>
  <g id="axes_11">
   <g id="patch_10">
    <path d="M 167.119572 33.795559 
L 167.119572 33.570621 
Q 167.119572 33.383172 167.175807 33.289448 
Q 167.232041 33.195724 167.307021 33.13949 
Q 167.382 33.083255 167.531959 32.989531 
Q 167.681917 32.895807 167.794386 32.783338 
L 171.955738 28.059641 
M 173.86771 37.619503 
L 170.718579 37.619503 
Q 170.60611 37.656993 170.343683 37.731972 
Q 167.119572 38.669214 166.219821 39.381517 
Q 164.682745 40.731145 164.645255 44.142703 
Q 164.645255 45.267393 165.507517 46.167145 
Q 166.369779 47.066897 167.456979 47.066897 
Q 168.319241 46.954428 169.106524 46.485807 
Q 169.893807 46.017186 170.399917 45.473586 
Q 170.906028 44.929986 171.449628 43.93651 
Q 171.993228 42.943034 172.2744 42.324455 
Q 172.555572 41.705876 173.005448 40.543697 
Q 173.455324 39.381517 173.642772 38.969131 
Q 173.980179 38.144359 174.092648 38.200593 
Q 174.205117 38.256828 174.092648 39.456497 
L 173.980179 40.993572 
Q 173.980179 41.031062 174.317586 44.705048 
L 175.554745 47.066897 
" clip-path="url(#pb2c182fcf7)" style="fill: none; stroke: #000000; stroke-linejoin: miter"/>
   </g>
  </g>
  <g id="axes_12">
   <g id="patch_11">
    <path d="M 181.838731 37.282097 
L 181.838731 37.844441 
Q 182.101159 39.868883 182.138648 41.312234 
Q 182.176138 42.755586 182.082414 44.667559 
Q 181.98869 46.579531 181.98869 48.191586 
L 182.063669 39.643945 
Q 182.063669 38.144359 183.656979 37.507034 
Q 185.25029 36.86971 186.674897 37.282097 
Q 188.586869 37.844441 189.505366 39.04411 
Q 190.423862 40.243779 190.480097 41.668386 
Q 190.536331 43.092993 190.573821 44.817517 
Q 190.61131 46.542041 190.761269 48.191586 
" clip-path="url(#p54fdc4d82f)" style="fill: none; stroke: #000000; stroke-linejoin: miter"/>
   </g>
  </g>
  <g id="axes_13">
   <g id="patch_12">
    <path d="M 207.287191 39.096404 
Q 207.03236 39.023596 206.06764 38.623146 
Q 205.102921 38.222697 204.44764 38.077079 
Q 203.79236 37.931461 203.137079 38.00427 
Q 200.515955 38.00427 198.877753 40.388764 
Q 197.239551 42.773258 197.239551 45.430787 
Q 197.239551 47.068989 202.481798 47.068989 
Q 204.047191 47.068989 205.375955 45.558202 
Q 206.704719 44.047416 207.378202 42.172584 
Q 208.051685 40.297753 208.051685 38.768764 
Q 208.051685 37.27618 208.015281 36.984944 
L 207.942472 38.077079 
Q 207.942472 38.550337 207.942472 38.987191 
Q 207.978876 40.188539 208.179101 42.281798 
Q 208.379326 44.375056 208.543146 46.049663 
Q 208.706966 47.72427 208.743371 49.872135 
Q 208.779775 52.02 208.615955 53.658202 
Q 208.452135 55.296404 207.887865 56.971011 
Q 207.323596 58.645618 206.395281 59.737753 
Q 205.466966 60.829888 203.865169 61.521573 
Q 202.263371 62.213258 200.115506 62.213258 
Q 198.477303 62.213258 197.385169 61.466966 
Q 196.293034 60.720674 196.293034 59.155281 
Q 196.220225 58.936854 196.256629 58.936854 
Q 196.293034 58.936854 196.402247 58.936854 
Q 196.511461 58.936854 196.511461 58.82764 
" clip-path="url(#pc2ea2f8c88)" style="fill: none; stroke: #000000; stroke-linejoin: miter"/>
   </g>
  </g>
  <g id="axes_14"/>
  <g id="axes_15">
   <g id="patch_13">
    <path d="M 228.584141 38.85304 
L 229.012335 38.85304 
Q 229.83304 38.85304 230.796476 38.745991 
Q 231.759912 38.638943 232.919604 38.460529 
Q 234.079295 38.282115 234.685903 38.210749 
L 241.215859 35.427489 
M 240.894714 25.793128 
Q 240.609251 25.721762 239.574449 25.275727 
Q 238.539648 24.829692 237.897357 24.93674 
Q 237.255066 24.93674 236.737665 25.150837 
Q 236.220264 25.364934 235.881278 25.793128 
Q 235.542291 26.221322 235.27467 26.685198 
Q 235.007048 27.149075 234.864317 27.862731 
Q 234.721586 28.576388 234.614537 29.129471 
Q 234.507489 29.682555 234.489648 30.50326 
Q 234.471806 31.323965 234.453965 31.77 
Q 234.436123 32.216035 234.453965 32.965374 
Q 234.471806 33.714714 234.471806 33.928811 
Q 234.471806 36.605022 235.167621 41.850396 
Q 235.863436 47.095771 235.863436 49.771982 
Q 235.79207 50.057445 235.756388 50.681894 
Q 235.720705 51.306344 235.613656 51.805903 
Q 235.506608 52.305463 235.221145 52.555242 
" clip-path="url(#p27485d379b)" style="fill: none; stroke: #000000; stroke-linejoin: miter"/>
   </g>
  </g>
  <g id="axes_16">
   <g id="patch_14">
    <path d="M 247.388524 34.357903 
L 254.249131 34.69531 
M 248.175807 42.643117 
Q 249.412966 43.205462 250.312717 43.205462 
Q 250.650124 43.205462 251.943517 43.242952 
Q 253.23691 43.280441 253.836745 43.280441 
Q 254.174152 43.280441 254.417834 43.167972 
Q 254.661517 43.055503 254.811476 42.830566 
Q 254.961434 42.605628 255.036414 42.38069 
Q 255.111393 42.155752 255.148883 41.7996 
Q 255.186372 41.443448 255.186372 41.199766 
Q 255.186372 40.956083 255.167628 40.562441 
Q 255.148883 40.1688 255.148883 40.018841 
Q 255.148883 38.819172 253.555572 38.331807 
Q 251.962262 37.844441 250.762593 38.144359 
Q 248.438234 38.744193 247.688441 40.281269 
Q 246.938648 41.818345 246.938648 44.217683 
Q 246.938648 44.929986 247.032372 45.492331 
Q 247.126097 46.054676 247.407269 46.448317 
Q 247.688441 46.841959 247.932124 47.141876 
Q 248.175807 47.441793 248.681917 47.610497 
Q 249.188028 47.7792 249.487945 47.891669 
Q 249.787862 48.004138 250.500166 48.041628 
Q 251.212469 48.079117 251.512386 48.097862 
Q 251.812303 48.116607 252.674566 48.097862 
Q 253.536828 48.079117 253.799255 48.079117 
Q 254.211641 48.379034 254.586538 47.929159 
Q 254.961434 47.479283 255.261352 47.516772 
" clip-path="url(#pc1dda1ad0b)" style="fill: none; stroke: #000000; stroke-linejoin: miter"/>
   </g>
  </g>
  <g id="axes_17">
   <g id="patch_15">
    <path d="M 262.838731 37.282097 
L 262.838731 37.844441 
Q 263.101159 39.868883 263.138648 41.312234 
Q 263.176138 42.755586 263.082414 44.667559 
Q 262.98869 46.579531 262.98869 48.191586 
L 263.063669 39.643945 
Q 263.063669 38.144359 264.656979 37.507034 
Q 266.25029 36.86971 267.674897 37.282097 
Q 269.586869 37.844441 270.505366 39.04411 
Q 271.423862 40.243779 271.480097 41.668386 
Q 271.536331 43.092993 271.573821 44.817517 
Q 271.61131 46.542041 271.761269 48.191586 
" clip-path="url(#p0b0413afcb)" style="fill: none; stroke: #000000; stroke-linejoin: miter"/>
   </g>
  </g>
  <g id="axes_18">
   <g id="patch_16">
    <path d="M 287.099007 34.920248 
Q 286.236745 36.007448 283.125103 40.018841 
Q 280.013462 44.030234 278.326428 46.054676 
M 279.226179 36.044938 
Q 281.100662 37.319586 283.593724 40.843614 
Q 286.086786 44.367641 287.661352 45.6048 
L 288.673572 45.942207 
" clip-path="url(#p1b560372c8)" style="fill: none; stroke: #000000; stroke-linejoin: miter"/>
   </g>
  </g>
  <g id="axes_19">
   <g id="patch_17">
    <path d="M 296.157228 36.157407 
L 303.242772 36.157407 
M 299.643766 39.306538 
L 299.643766 47.516772 
" clip-path="url(#pdee9eaaea4)" style="fill: none; stroke: #000000; stroke-linejoin: miter"/>
   </g>
  </g>
  <g id="axes_20">
   <g id="patch_18">
    <path d="M 315.787531 45.979697 
Q 315.750041 46.017186 315.618828 46.054676 
Q 315.487614 46.092166 315.525103 46.167145 
Q 315.525103 46.579531 315.9 46.579531 
Q 316.237407 46.579531 316.237407 46.092166 
Q 316.312386 45.867228 316.031214 45.754759 
Q 315.750041 45.64229 315.562593 45.754759 
" clip-path="url(#pb05491b3e1)" style="fill: none; stroke: #000000; stroke-linejoin: miter"/>
   </g>
  </g>
 </g>
 <defs>
  <clipPath id="p932e5df8d9">
   <rect x="1.558055" y="8.64" width="13.08389" height="54.36"/>
  </clipPath>
  <clipPath id="p9a460d53ce">
   <rect x="20.138648" y="8.64" width="8.322703" height="54.36"/>
  </clipPath>
  <clipPath id="p297a718fa9">
   <rect x="34.164248" y="8.64" width="12.671503" height="54.36"/>
  </clipPath>
  <clipPath id="p4f0462974a">
   <rect x="48.6" y="9.426742" width="16.2" height="52.786517"/>
  </clipPath>
  <clipPath id="p9303753128">
   <rect x="83.307848" y="8.64" width="11.584303" height="54.36"/>
  </clipPath>
  <clipPath id="p38b00406c7">
   <rect x="101.138648" y="8.64" width="8.322703" height="54.36"/>
  </clipPath>
  <clipPath id="pffacb4b39e">
   <rect x="115.164248" y="8.64" width="12.671503" height="54.36"/>
  </clipPath>
  <clipPath id="pe1c7d0a5c1">
   <rect x="148.538979" y="8.64" width="10.722041" height="54.36"/>
  </clipPath>
  <clipPath id="pb2c182fcf7">
   <rect x="162.770772" y="8.64" width="14.658455" height="54.36"/>
  </clipPath>
  <clipPath id="p54fdc4d82f">
   <rect x="179.964248" y="8.64" width="12.671503" height="54.36"/>
  </clipPath>
  <clipPath id="pc2ea2f8c88">
   <rect x="194.4" y="9.426742" width="16.2" height="52.786517"/>
  </clipPath>
  <clipPath id="p27485d379b">
   <rect x="226.8" y="9.949956" width="16.2" height="51.740088"/>
  </clipPath>
  <clipPath id="pc1dda1ad0b">
   <rect x="245.064166" y="8.64" width="12.071669" height="54.36"/>
  </clipPath>
  <clipPath id="p0b0413afcb">
   <rect x="260.964248" y="8.64" width="12.671503" height="54.36"/>
  </clipPath>
  <clipPath id="p1b560372c8">
   <rect x="276.451945" y="8.64" width="14.09611" height="54.36"/>
  </clipPath>
  <clipPath id="pdee9eaaea4">
   <rect x="294.282745" y="8.64" width="10.83451" height="54.36"/>
  </clipPath>
  <clipPath id="pb05491b3e1">
   <rect x="313.613131" y="8.64" width="4.573738" height="54.36"/>
  </clipPath>
 </defs>
</svg>
