<?xml version="1.0" encoding="utf-8" standalone="no"?>
<!DOCTYPE svg PUBLIC "-//W3C//DTD SVG 1.1//EN"
  "http://www.w3.org/Graphics/SVG/1.1/DTD/svg11.dtd">
<svg xmlns:xlink="http://www.w3.org/1999/xlink" width="342pt" height="72pt" viewBox="0 0 342 72" xmlns="http://www.w3.org/2000/svg" version="1.1">
 <metadata>
  <rdf:RDF xmlns:dc="http://purl.org/dc/elements/1.1/" xmlns:cc="http://creativecommons.org/ns#" xmlns:rdf="http://www.w3.org/1999/02/22-rdf-syntax-ns#">
   <cc:Work>
    <dc:type rdf:resource="http://purl.org/dc/dcmitype/StillImage"/>
    <dc:date>2023-02-15T22:59:13.463493</dc:date>
    <dc:format>image/svg+xml</dc:format>
    <dc:creator>
     <cc:Agent>
      <dc:title>Matplotlib v3.6.1, https://matplotlib.org/</dc:title>
     </cc:Agent>
    </dc:creator>
   </cc:Work>
  </rdf:RDF>
 </metadata>
 <defs>
  <style type="text/css">*{stroke-linejoin: round; stroke-linecap: butt}</style>
 </defs>
 <g id="figure_1">
  <g id="patch_1">
   <path d="M 0 72 
L 342 72 
L 342 0 
L 0 0 
z
" style="fill: #8fff9f"/>
  </g>
  <g id="axes_1">
   <g id="patch_2">
    <path d="M 3.263834 37.95691 
L 3.938648 37.95691 
Q 4.650952 37.95691 5.438234 37.881931 
Q 6.225517 37.806952 7.181503 37.675738 
Q 8.13749 37.544524 8.662345 37.507034 
L 12.936166 35.82 
M 8.887283 30.42149 
L 8.887283 31.43371 
Q 8.887283 33.383172 8.212469 37.207117 
Q 7.537655 41.031062 7.537655 43.018014 
Q 7.537655 43.805297 7.537655 44.105214 
Q 7.537655 44.405131 7.631379 45.042455 
Q 7.725103 45.679779 7.912552 45.960952 
Q 8.1 46.242124 8.493641 46.485807 
Q 8.887283 46.72949 9.449628 46.72949 
Q 9.562097 46.692 9.880759 46.72949 
Q 10.199421 46.766979 10.386869 46.710745 
Q 10.574317 46.65451 10.574317 46.392083 
" clip-path="url(#p83e9048500)" style="fill: none; stroke: #000000; stroke-linejoin: miter"/>
   </g>
  </g>
  <g id="axes_2">
   <g id="patch_3">
    <path d="M 20.813462 35.932469 
Q 21.413297 35.257655 22.406772 34.826524 
Q 23.400248 34.395393 24.3 34.470372 
Q 24.937324 34.470372 25.42469 34.639076 
Q 25.912055 34.807779 26.230717 34.995228 
Q 26.549379 35.182676 26.774317 35.670041 
Q 26.999255 36.157407 27.111724 36.419834 
Q 27.224193 36.682262 27.280428 37.375821 
Q 27.336662 38.069379 27.355407 38.331807 
Q 27.374152 38.594234 27.355407 39.419007 
Q 27.336662 40.243779 27.336662 40.431228 
Q 27.336662 41.368469 27.167959 43.242952 
Q 26.999255 45.117434 26.999255 46.054676 
Q 26.999255 46.467062 27.05549 46.823214 
Q 27.111724 47.179366 27.205448 47.610497 
Q 27.299172 48.041628 27.336662 48.304055 
L 27.786538 48.528993 
M 21.263338 23.111007 
Q 21.488276 24.798041 21.488276 29.971614 
L 21.488276 42.3432 
L 21.150869 46.841959 
L 20.925931 47.74171 
" clip-path="url(#p676f4e7686)" style="fill: none; stroke: #000000; stroke-linejoin: miter"/>
   </g>
  </g>
  <g id="axes_3">
   <g id="patch_4">
    <path d="M 34.257798 38.160826 
Q 37.230275 39.535596 41.949083 39.721376 
Q 43.472477 39.721376 44.159862 38.550963 
Q 44.847248 37.38055 44.847248 35.82 
Q 44.847248 35.299817 44.754358 34.909679 
Q 44.661468 34.519541 44.419954 34.296606 
Q 44.17844 34.07367 44.011239 33.943624 
Q 43.844037 33.813578 43.398165 33.757844 
Q 42.952294 33.70211 42.747936 33.683532 
Q 42.543578 33.664954 41.967661 33.683532 
Q 41.391743 33.70211 41.168807 33.70211 
Q 39.125229 33.70211 37.638991 35.578486 
Q 36.152752 37.454862 36.152752 39.609908 
Q 36.152752 42.619541 38.084862 44.570229 
Q 40.016972 46.520917 43.063761 46.520917 
Q 45.218807 46.818165 46.742202 44.29156 
" clip-path="url(#pef680833fa)" style="fill: none; stroke: #000000; stroke-linejoin: miter"/>
   </g>
  </g>
  <g id="axes_4"/>
  <g id="axes_5">
   <g id="patch_5">
    <path d="M 78.156735 34.365306 
Q 78.156735 34.365306 77.660816 34.365306 
Q 76.867347 34.365306 75.379592 34.067755 
Q 73.891837 33.770204 73.098367 33.770204 
Q 70.321224 33.770204 68.387143 35.224898 
Q 66.453061 36.679592 66.453061 39.423673 
Q 66.453061 40.94449 67.940816 42.399184 
Q 69.428571 43.853878 71.362653 44.663878 
Q 73.296735 45.473878 74.78449 45.473878 
Q 75.710204 45.473878 76.40449 45.110204 
Q 77.098776 44.746531 77.842653 44.118367 
Q 78.586531 43.490204 79.148571 43.192653 
L 79.346939 42.696735 
" clip-path="url(#p1b966ecce7)" style="fill: none; stroke: #000000; stroke-linejoin: miter"/>
   </g>
  </g>
  <g id="axes_6">
   <g id="patch_6">
    <path d="M 82.857798 38.160826 
Q 85.830275 39.535596 90.549083 39.721376 
Q 92.072477 39.721376 92.759862 38.550963 
Q 93.447248 37.38055 93.447248 35.82 
Q 93.447248 35.299817 93.354358 34.909679 
Q 93.261468 34.519541 93.019954 34.296606 
Q 92.77844 34.07367 92.611239 33.943624 
Q 92.444037 33.813578 91.998165 33.757844 
Q 91.552294 33.70211 91.347936 33.683532 
Q 91.143578 33.664954 90.567661 33.683532 
Q 89.991743 33.70211 89.768807 33.70211 
Q 87.725229 33.70211 86.238991 35.578486 
Q 84.752752 37.454862 84.752752 39.609908 
Q 84.752752 42.619541 86.684862 44.570229 
Q 88.616972 46.520917 91.663761 46.520917 
Q 93.818807 46.818165 95.342202 44.29156 
" clip-path="url(#p3bb0cffd06)" style="fill: none; stroke: #000000; stroke-linejoin: miter"/>
   </g>
  </g>
  <g id="axes_7">
   <g id="patch_7">
    <path d="M 104.906359 28.621986 
Q 105.131297 30.34651 105.206276 32.146014 
Q 105.281255 33.945517 105.26251 36.551048 
Q 105.243766 39.156579 105.243766 40.093821 
Q 105.243766 40.13131 105.468703 45.829738 
L 105.693641 46.841959 
" clip-path="url(#p46dd33a43a)" style="fill: none; stroke: #000000; stroke-linejoin: miter"/>
   </g>
  </g>
  <g id="axes_8">
   <g id="patch_8">
    <path d="M 121.106359 28.621986 
Q 121.331297 30.34651 121.406276 32.146014 
Q 121.481255 33.945517 121.46251 36.551048 
Q 121.443766 39.156579 121.443766 40.093821 
Q 121.443766 40.13131 121.668703 45.829738 
L 121.893641 46.841959 
" clip-path="url(#p6513bebc45)" style="fill: none; stroke: #000000; stroke-linejoin: miter"/>
   </g>
  </g>
  <g id="axes_9">
   <g id="patch_9">
    <path d="M 133.257476 43.917766 
Q 133.557393 44.180193 134.569614 45.154924 
Q 135.581834 46.129655 136.144179 46.560786 
Q 136.706524 46.991917 137.73749 47.385559 
Q 138.768455 47.7792 139.780676 47.629241 
Q 140.45549 47.629241 140.92411 47.404303 
Q 141.392731 47.179366 141.617669 46.879448 
Q 141.842607 46.579531 141.973821 45.979697 
Q 142.105034 45.379862 142.123779 44.967476 
Q 142.142524 44.55509 142.142524 43.805297 
Q 142.142524 42.718097 141.242772 42.043283 
Q 140.343021 41.368469 139.049628 41.031062 
Q 137.756234 40.693655 136.462841 40.300014 
Q 135.169448 39.906372 134.269697 38.987876 
Q 133.369945 38.069379 133.369945 36.607283 
Q 133.369945 36.082428 133.538648 35.726276 
Q 133.707352 35.370124 134.100993 35.145186 
Q 134.494634 34.920248 134.775807 34.807779 
Q 135.056979 34.69531 135.713048 34.639076 
Q 136.369117 34.582841 136.556566 34.582841 
Q 136.744014 34.582841 137.418828 34.582841 
Q 138.618497 34.582841 139.199586 34.995228 
Q 139.780676 35.407614 140.099338 36.026193 
Q 140.418 36.644772 140.680428 36.832221 
" clip-path="url(#p5a40a20bee)" style="fill: none; stroke: #000000; stroke-linejoin: miter"/>
   </g>
  </g>
  <g id="axes_10"/>
  <g id="axes_11">
   <g id="patch_10">
    <path d="M 165.488772 35.145186 
Q 165.488772 35.145186 165.488772 35.595062 
Q 165.488772 36.269876 165.376303 37.619503 
Q 165.263834 38.969131 165.263834 39.643945 
Q 165.263834 41.930814 166.500993 43.599103 
Q 167.738152 45.267393 169.875062 45.267393 
Q 171.262179 45.154924 172.030717 43.917766 
Q 172.799255 42.680607 172.949214 41.237255 
Q 173.099172 39.793903 173.3616 37.9944 
Q 173.624028 36.194897 174.036414 35.370124 
Q 174.186372 35.070207 174.186372 35.670041 
Q 174.186372 36.269876 173.923945 38.706703 
Q 173.699007 41.031062 173.699007 41.555917 
Q 173.549048 42.643117 173.886455 43.767807 
Q 174.223862 44.892497 174.936166 45.6048 
" clip-path="url(#pdd10a006df)" style="fill: none; stroke: #000000; stroke-linejoin: miter"/>
   </g>
  </g>
  <g id="axes_12">
   <g id="patch_11">
    <path d="M 181.838731 37.282097 
L 181.838731 37.844441 
Q 182.101159 39.868883 182.138648 41.312234 
Q 182.176138 42.755586 182.082414 44.667559 
Q 181.98869 46.579531 181.98869 48.191586 
L 182.063669 39.643945 
Q 182.063669 38.144359 183.656979 37.507034 
Q 185.25029 36.86971 186.674897 37.282097 
Q 188.586869 37.844441 189.505366 39.04411 
Q 190.423862 40.243779 190.480097 41.668386 
Q 190.536331 43.092993 190.573821 44.817517 
Q 190.61131 46.542041 190.761269 48.191586 
" clip-path="url(#pf28a4453e1)" style="fill: none; stroke: #000000; stroke-linejoin: miter"/>
   </g>
  </g>
  <g id="axes_13">
   <g id="patch_12">
    <path d="M 206.099007 39.568966 
Q 204.749379 38.181848 202.5 38.444276 
Q 199.650786 38.444276 198.488607 39.793903 
Q 197.326428 41.143531 197.326428 44.067724 
Q 197.326428 45.56731 198.619821 46.279614 
Q 199.913214 46.991917 201.487779 46.991917 
Q 202.799917 46.991917 203.812138 45.736014 
Q 204.824359 44.48011 205.405448 42.30571 
Q 205.986538 40.13131 206.361434 37.938166 
Q 206.736331 35.745021 206.88629 33.045766 
Q 207.036248 30.34651 207.073738 28.978138 
Q 207.111228 27.609766 207.111228 26.185159 
Q 206.88629 26.260138 206.88629 29.896634 
L 206.88629 44.292662 
L 207.673572 48.229076 
" clip-path="url(#pbb6e1cc2fc)" style="fill: none; stroke: #000000; stroke-linejoin: miter"/>
   </g>
  </g>
  <g id="axes_14">
   <g id="patch_13">
    <path d="M 212.457798 38.160826 
Q 215.430275 39.535596 220.149083 39.721376 
Q 221.672477 39.721376 222.359862 38.550963 
Q 223.047248 37.38055 223.047248 35.82 
Q 223.047248 35.299817 222.954358 34.909679 
Q 222.861468 34.519541 222.619954 34.296606 
Q 222.37844 34.07367 222.211239 33.943624 
Q 222.044037 33.813578 221.598165 33.757844 
Q 221.152294 33.70211 220.947936 33.683532 
Q 220.743578 33.664954 220.167661 33.683532 
Q 219.591743 33.70211 219.368807 33.70211 
Q 217.325229 33.70211 215.838991 35.578486 
Q 214.352752 37.454862 214.352752 39.609908 
Q 214.352752 42.619541 216.284862 44.570229 
Q 218.216972 46.520917 221.263761 46.520917 
Q 223.418807 46.818165 224.942202 44.29156 
" clip-path="url(#pb67aedbda7)" style="fill: none; stroke: #000000; stroke-linejoin: miter"/>
   </g>
  </g>
  <g id="axes_15">
   <g id="patch_14">
    <path d="M 231.413462 32.783338 
Q 231.938317 34.507862 232.069531 36.457324 
Q 232.200745 38.406786 232.125766 40.956083 
Q 232.050786 43.505379 232.088276 44.705048 
L 232.200745 46.054676 
L 232.200745 45.829738 
Q 232.200745 44.667559 231.919572 42.30571 
Q 231.6384 39.943862 231.6384 38.744193 
Q 231.6384 36.419834 232.650621 34.882759 
Q 233.662841 33.345683 235.687283 33.345683 
Q 236.399586 33.345683 236.736993 33.626855 
Q 237.0744 33.908028 237.336828 34.432883 
Q 237.599255 34.957738 237.936662 35.257655 
L 238.386538 36.832221 
" clip-path="url(#p40a4e8f896)" style="fill: none; stroke: #000000; stroke-linejoin: miter"/>
   </g>
  </g>
  <g id="axes_16">
   <g id="patch_15">
    <path d="M 244.716102 36.437797 
L 245.951695 44.778051 
Q 246.054661 45.567458 246.054661 45.60178 
Q 246.054661 45.704746 246.363559 45.704746 
Q 247.22161 45.704746 247.942373 44.778051 
Q 248.663136 43.851356 249.075 42.718729 
Q 249.486864 41.586102 250.001695 40.659407 
Q 250.516525 39.732712 250.997034 39.732712 
Q 251.614831 39.732712 252.249788 40.607924 
Q 252.884746 41.483136 253.348093 42.512797 
Q 253.811441 43.542458 254.48072 44.417669 
Q 255.15 45.292881 255.836441 45.292881 
Q 256.111017 43.782712 256.540042 39.69839 
Q 256.969068 35.614068 257.483898 33.554746 
" clip-path="url(#p871e401143)" style="fill: none; stroke: #000000; stroke-linejoin: miter"/>
   </g>
  </g>
  <g id="axes_17">
   <g id="patch_16">
    <path d="M 261.057798 38.160826 
Q 264.030275 39.535596 268.749083 39.721376 
Q 270.272477 39.721376 270.959862 38.550963 
Q 271.647248 37.38055 271.647248 35.82 
Q 271.647248 35.299817 271.554358 34.909679 
Q 271.461468 34.519541 271.219954 34.296606 
Q 270.97844 34.07367 270.811239 33.943624 
Q 270.644037 33.813578 270.198165 33.757844 
Q 269.752294 33.70211 269.547936 33.683532 
Q 269.343578 33.664954 268.767661 33.683532 
Q 268.191743 33.70211 267.968807 33.70211 
Q 265.925229 33.70211 264.438991 35.578486 
Q 262.952752 37.454862 262.952752 39.609908 
Q 262.952752 42.619541 264.884862 44.570229 
Q 266.816972 46.520917 269.863761 46.520917 
Q 272.018807 46.818165 273.542202 44.29156 
" clip-path="url(#pcf2df35af2)" style="fill: none; stroke: #000000; stroke-linejoin: miter"/>
   </g>
  </g>
  <g id="axes_18">
   <g id="patch_17">
    <path d="M 279.038731 37.282097 
L 279.038731 37.844441 
Q 279.301159 39.868883 279.338648 41.312234 
Q 279.376138 42.755586 279.282414 44.667559 
Q 279.18869 46.579531 279.18869 48.191586 
L 279.263669 39.643945 
Q 279.263669 38.144359 280.856979 37.507034 
Q 282.45029 36.86971 283.874897 37.282097 
Q 285.786869 37.844441 286.705366 39.04411 
Q 287.623862 40.243779 287.680097 41.668386 
Q 287.736331 43.092993 287.773821 44.817517 
Q 287.81131 46.542041 287.961269 48.191586 
" clip-path="url(#pc52decdc71)" style="fill: none; stroke: #000000; stroke-linejoin: miter"/>
   </g>
  </g>
  <g id="axes_19">
   <g id="patch_18">
    <path d="M 294.863834 37.95691 
L 295.538648 37.95691 
Q 296.250952 37.95691 297.038234 37.881931 
Q 297.825517 37.806952 298.781503 37.675738 
Q 299.73749 37.544524 300.262345 37.507034 
L 304.536166 35.82 
M 300.487283 30.42149 
L 300.487283 31.43371 
Q 300.487283 33.383172 299.812469 37.207117 
Q 299.137655 41.031062 299.137655 43.018014 
Q 299.137655 43.805297 299.137655 44.105214 
Q 299.137655 44.405131 299.231379 45.042455 
Q 299.325103 45.679779 299.512552 45.960952 
Q 299.7 46.242124 300.093641 46.485807 
Q 300.487283 46.72949 301.049628 46.72949 
Q 301.162097 46.692 301.480759 46.72949 
Q 301.799421 46.766979 301.986869 46.710745 
Q 302.174317 46.65451 302.174317 46.392083 
" clip-path="url(#p97890dde59)" style="fill: none; stroke: #000000; stroke-linejoin: miter"/>
   </g>
  </g>
 </g>
 <defs>
  <clipPath id="p83e9048500">
   <rect x="1.389352" y="8.64" width="13.421297" height="54.36"/>
  </clipPath>
  <clipPath id="p676f4e7686">
   <rect x="18.938979" y="8.64" width="10.722041" height="54.36"/>
  </clipPath>
  <clipPath id="pef680833fa">
   <rect x="32.4" y="8.881927" width="16.2" height="53.876147"/>
  </clipPath>
  <clipPath id="p1b966ecce7">
   <rect x="64.8" y="11.850612" width="16.2" height="47.938776"/>
  </clipPath>
  <clipPath id="p3bb0cffd06">
   <rect x="81" y="8.881927" width="16.2" height="53.876147"/>
  </clipPath>
  <clipPath id="p46dd33a43a">
   <rect x="103.031876" y="8.64" width="4.536248" height="54.36"/>
  </clipPath>
  <clipPath id="p6513bebc45">
   <rect x="119.231876" y="8.64" width="4.536248" height="54.36"/>
  </clipPath>
  <clipPath id="p5a40a20bee">
   <rect x="131.382993" y="8.64" width="12.634014" height="54.36"/>
  </clipPath>
  <clipPath id="pdd10a006df">
   <rect x="163.389352" y="8.64" width="13.421297" height="54.36"/>
  </clipPath>
  <clipPath id="pf28a4453e1">
   <rect x="179.964248" y="8.64" width="12.671503" height="54.36"/>
  </clipPath>
  <clipPath id="pbb6e1cc2fc">
   <rect x="195.451945" y="8.64" width="14.09611" height="54.36"/>
  </clipPath>
  <clipPath id="pb67aedbda7">
   <rect x="210.6" y="8.881927" width="16.2" height="53.876147"/>
  </clipPath>
  <clipPath id="p40a4e8f896">
   <rect x="229.538979" y="8.64" width="10.722041" height="54.36"/>
  </clipPath>
  <clipPath id="p871e401143">
   <rect x="243" y="10.936525" width="16.2" height="49.766949"/>
  </clipPath>
  <clipPath id="pcf2df35af2">
   <rect x="259.2" y="8.881927" width="16.2" height="53.876147"/>
  </clipPath>
  <clipPath id="pc52decdc71">
   <rect x="277.164248" y="8.64" width="12.671503" height="54.36"/>
  </clipPath>
  <clipPath id="p97890dde59">
   <rect x="292.989352" y="8.64" width="13.421297" height="54.36"/>
  </clipPath>
 </defs>
</svg>
