<?xml version="1.0" encoding="utf-8" standalone="no"?>
<!DOCTYPE svg PUBLIC "-//W3C//DTD SVG 1.1//EN"
  "http://www.w3.org/Graphics/SVG/1.1/DTD/svg11.dtd">
<svg xmlns:xlink="http://www.w3.org/1999/xlink" width="126pt" height="72pt" viewBox="0 0 126 72" xmlns="http://www.w3.org/2000/svg" version="1.1">
 <metadata>
  <rdf:RDF xmlns:dc="http://purl.org/dc/elements/1.1/" xmlns:cc="http://creativecommons.org/ns#" xmlns:rdf="http://www.w3.org/1999/02/22-rdf-syntax-ns#">
   <cc:Work>
    <dc:type rdf:resource="http://purl.org/dc/dcmitype/StillImage"/>
    <dc:date>2023-02-03T21:36:42.710831</dc:date>
    <dc:format>image/svg+xml</dc:format>
    <dc:creator>
     <cc:Agent>
      <dc:title>Matplotlib v3.6.1, https://matplotlib.org/</dc:title>
     </cc:Agent>
    </dc:creator>
   </cc:Work>
  </rdf:RDF>
 </metadata>
 <defs>
  <style type="text/css">*{stroke-linejoin: round; stroke-linecap: butt}</style>
 </defs>
 <g id="figure_1">
  <g id="patch_1">
   <path d="M 0 72 
L 126 72 
L 126 0 
L 0 0 
z
" style="fill: #8fff9f"/>
  </g>
  <g id="axes_1">
   <g id="patch_2">
    <path d="M 18.48629 26.674839 
Q 18.453629 26.772823 18.48629 27.164758 
Q 18.48629 28.209919 18.780242 31.851653 
Q 19.074194 35.493387 18.845565 37.387742 
L 18.551613 40.13129 
M 13.097177 35.722016 
L 13.587097 35.624032 
L 24.267339 32.7825 
L 23.483468 38.367581 
L 22.895565 39.445403 
L 21.752419 37.616371 
M 14.664919 31.50871 
L 14.860887 33.958306 
L 15.350806 37.485726 
L 15.546774 42.15629 
Q 15.612097 43.299435 16.134677 43.968992 
Q 16.657258 44.638548 17.588105 44.834516 
Q 18.518952 45.030484 19.384476 45.063145 
Q 20.25 45.095806 21.458468 45.030484 
Q 22.666935 44.965161 23.2875 44.997823 
Q 23.581452 45.030484 24.169355 44.981492 
Q 24.757258 44.9325 25.345161 44.703871 
Q 25.933065 44.475242 25.835081 44.115968 
L 26.716935 40.915161 
M 10.157661 33.468387 
L 10.157661 33.664355 
Q 10.157661 36.930484 9.063508 39.069798 
Q 7.969355 41.209113 5.454435 43.266774 
L 1.633065 46.173629 
M 2.025 35.689355 
L 2.514919 35.689355 
Q 3.233468 35.689355 4.948185 35.281089 
Q 6.662903 34.872823 7.414113 34.840161 
L 10.353629 34.350242 
M 7.120161 28.373226 
L 7.120161 28.961129 
Q 6.82621 29.973629 6.662903 32.847823 
Q 6.499597 35.722016 6.042339 36.799839 
Q 6.009677 36.897823 5.732056 37.404073 
Q 5.454435 37.910323 5.32379 38.302258 
Q 5.193145 38.694194 5.32379 38.890161 
Q 5.977016 40.065968 8.263306 41.943992 
Q 10.549597 43.822016 10.941532 44.246613 
L 12.117339 44.834516 
" clip-path="url(#pce6fa45b2d)" style="fill: none; stroke: #000000; stroke-linejoin: miter"/>
   </g>
  </g>
  <g id="axes_2">
   <g id="patch_3">
    <path d="M 38.456422 39.052569 
Q 40.351376 40.390183 42.469266 42.229404 
Q 44.587156 44.068624 46.314908 45.331927 
Q 48.042661 46.595229 50.272018 47.524128 
L 54.842202 48.304404 
M 39.348165 37.269083 
L 48.711468 35.374128 
Q 48.042661 37.529174 46.94656 39.238349 
Q 45.850459 40.947523 44.55 42.155092 
Q 43.249541 43.362661 41.967661 44.310138 
Q 40.68578 45.257615 39.255275 46.372294 
Q 37.824771 47.486972 36.895872 48.527339 
L 35.558257 48.973211 
M 45.144495 26.233761 
L 49.268807 29.020459 
M 41.466055 25.007615 
L 41.466055 25.23055 
Q 41.466055 28.537431 40.5 31.695688 
Q 39.533945 34.853945 38.28922 36.990413 
Q 37.044495 39.126881 35.372477 42.155092 
Q 33.700459 45.183303 32.77156 47.524128 
L 30.207798 49.196147 
M 34.88945 26.233761 
L 34.88945 26.456697 
Q 34.88945 27.459908 33.663303 29.113349 
Q 32.437156 30.766789 32.437156 31.732844 
L 34.33211 31.732844 
Q 36.004128 31.732844 37.861927 31.639954 
Q 39.719725 31.547064 41.967661 31.39844 
Q 44.215596 31.249817 45.478899 31.175505 
L 47.150917 30.841101 
" clip-path="url(#p942d6fdda2)" style="fill: none; stroke: #000000; stroke-linejoin: miter"/>
   </g>
  </g>
  <g id="axes_3">
   <g id="patch_4">
    <path d="M 74.882864 37.902007 
L 74.986965 42.898825 
Q 75.264565 44.182729 76.340269 44.946132 
Q 77.415973 45.709535 78.630477 45.952436 
Q 79.844982 46.195337 81.232987 46.125936 
Q 81.337087 46.125936 81.562638 46.143286 
Q 81.788188 46.160636 81.979039 46.160636 
Q 82.16989 46.160636 82.360741 46.143286 
Q 82.551591 46.125936 82.673042 46.004486 
Q 82.794492 45.883035 82.794492 45.709535 
L 82.794492 45.397234 
L 83.314994 41.927222 
M 75.611567 30.510881 
Q 75.507466 31.204884 75.351316 32.696989 
Q 75.195165 34.189094 75.073715 35.091297 
Q 74.952264 35.993501 74.692013 37.450906 
Q 74.431763 38.908311 74.136812 39.862564 
Q 73.84186 40.816818 73.304009 41.979272 
Q 72.766157 43.141726 72.106854 43.922479 
Q 71.447552 44.703231 70.475949 45.397234 
Q 69.504345 46.091236 68.324541 46.438237 
L 66.242534 47.06284 
M 71.655753 28.637075 
L 71.968054 28.637075 
L 72.245655 28.567674 
Q 72.488556 28.498274 72.731457 28.428874 
L 73.009058 28.324774 
L 79.46328 27.17967 
L 79.567381 38.006108 
M 71.343452 28.637075 
L 71.343452 29.157576 
Q 71.343452 29.192277 71.551652 31.031383 
L 71.655753 37.589706 
M 63.015422 28.949376 
L 63.015422 29.261677 
L 63.223623 42.794725 
M 58.435006 44.980832 
L 58.851408 44.980832 
Q 59.823011 44.980832 61.037515 44.40828 
Q 62.25202 43.835728 63.657375 42.933525 
Q 65.062729 42.031322 65.617931 41.753721 
L 69.990147 39.671714 
M 60.621114 35.7159 
L 60.933415 35.82 
Q 60.968115 35.82 63.015422 35.611799 
L 65.722032 34.987197 
M 59.788311 29.886279 
Q 60.621114 29.678078 62.963372 29.001426 
Q 65.30563 28.324774 66.554835 28.012472 
" clip-path="url(#pc61ad05192)" style="fill: none; stroke: #000000; stroke-linejoin: miter"/>
   </g>
  </g>
  <g id="axes_4">
   <g id="patch_5">
    <path d="M 97.762903 36.94469 
Q 97.800393 37.019669 98.062821 37.263352 
Q 98.325248 37.507034 98.437717 37.619503 
Q 98.550186 37.731972 98.793869 38.013145 
Q 99.037552 38.294317 99.18751 38.463021 
Q 99.337469 38.631724 99.562407 38.931641 
Q 99.787345 39.231559 99.918559 39.437752 
Q 100.049772 39.643945 100.199731 39.943862 
Q 100.34969 40.243779 100.443414 40.487462 
Q 100.537138 40.731145 100.612117 41.012317 
Q 100.687097 41.29349 100.687097 41.555917 
Q 100.687097 42.118262 100.537138 42.605628 
Q 100.387179 43.092993 100.106007 43.636593 
Q 99.824834 44.180193 99.674876 44.592579 
L 98.550186 45.717269 
" clip-path="url(#p939fba05eb)" style="fill: none; stroke: #000000; stroke-linejoin: miter"/>
   </g>
  </g>
 </g>
 <defs>
  <clipPath id="pce6fa45b2d">
   <rect x="0" y="12.140565" width="28.35" height="47.358871"/>
  </clipPath>
  <clipPath id="p942d6fdda2">
   <rect x="28.35" y="8.881927" width="28.35" height="53.876147"/>
  </clipPath>
  <clipPath id="pc61ad05192">
   <rect x="56.7" y="10.662411" width="28.35" height="50.315177"/>
  </clipPath>
  <clipPath id="p939fba05eb">
   <rect x="95.888421" y="8.64" width="6.673159" height="54.36"/>
  </clipPath>
 </defs>
</svg>
