<?xml version="1.0" encoding="utf-8" standalone="no"?>
<!DOCTYPE svg PUBLIC "-//W3C//DTD SVG 1.1//EN"
  "http://www.w3.org/Graphics/SVG/1.1/DTD/svg11.dtd">
<svg xmlns:xlink="http://www.w3.org/1999/xlink" width="558pt" height="72pt" viewBox="0 0 558 72" xmlns="http://www.w3.org/2000/svg" version="1.1">
 <metadata>
  <rdf:RDF xmlns:dc="http://purl.org/dc/elements/1.1/" xmlns:cc="http://creativecommons.org/ns#" xmlns:rdf="http://www.w3.org/1999/02/22-rdf-syntax-ns#">
   <cc:Work>
    <dc:type rdf:resource="http://purl.org/dc/dcmitype/StillImage"/>
    <dc:date>2023-02-04T09:44:34.130207</dc:date>
    <dc:format>image/svg+xml</dc:format>
    <dc:creator>
     <cc:Agent>
      <dc:title>Matplotlib v3.6.1, https://matplotlib.org/</dc:title>
     </cc:Agent>
    </dc:creator>
   </cc:Work>
  </rdf:RDF>
 </metadata>
 <defs>
  <style type="text/css">*{stroke-linejoin: round; stroke-linecap: butt}</style>
 </defs>
 <g id="figure_1">
  <g id="patch_1">
   <path d="M 0 72 
L 558 72 
L 558 0 
L 0 0 
z
" style="fill: #8fff9f"/>
  </g>
  <g id="axes_1">
   <g id="patch_2">
    <path d="M 3.638731 37.282097 
L 3.638731 37.844441 
Q 3.901159 39.868883 3.938648 41.312234 
Q 3.976138 42.755586 3.882414 44.667559 
Q 3.78869 46.579531 3.78869 48.191586 
L 3.863669 39.643945 
Q 3.863669 38.144359 5.456979 37.507034 
Q 7.05029 36.86971 8.474897 37.282097 
Q 10.386869 37.844441 11.305366 39.04411 
Q 12.223862 40.243779 12.280097 41.668386 
Q 12.336331 43.092993 12.373821 44.817517 
Q 12.41131 46.542041 12.561269 48.191586 
" clip-path="url(#p0ae64bd7dd)" style="fill: none; stroke: #000000; stroke-linejoin: miter"/>
   </g>
  </g>
  <g id="axes_2">
   <g id="patch_3">
    <path d="M 18.057798 38.160826 
Q 21.030275 39.535596 25.749083 39.721376 
Q 27.272477 39.721376 27.959862 38.550963 
Q 28.647248 37.38055 28.647248 35.82 
Q 28.647248 35.299817 28.554358 34.909679 
Q 28.461468 34.519541 28.219954 34.296606 
Q 27.97844 34.07367 27.811239 33.943624 
Q 27.644037 33.813578 27.198165 33.757844 
Q 26.752294 33.70211 26.547936 33.683532 
Q 26.343578 33.664954 25.767661 33.683532 
Q 25.191743 33.70211 24.968807 33.70211 
Q 22.925229 33.70211 21.438991 35.578486 
Q 19.952752 37.454862 19.952752 39.609908 
Q 19.952752 42.619541 21.884862 44.570229 
Q 23.816972 46.520917 26.863761 46.520917 
Q 29.018807 46.818165 30.542202 44.29156 
" clip-path="url(#p648acf628d)" style="fill: none; stroke: #000000; stroke-linejoin: miter"/>
   </g>
  </g>
  <g id="axes_3">
   <g id="patch_4">
    <path d="M 34.116102 36.437797 
L 35.351695 44.778051 
Q 35.454661 45.567458 35.454661 45.60178 
Q 35.454661 45.704746 35.763559 45.704746 
Q 36.62161 45.704746 37.342373 44.778051 
Q 38.063136 43.851356 38.475 42.718729 
Q 38.886864 41.586102 39.401695 40.659407 
Q 39.916525 39.732712 40.397034 39.732712 
Q 41.014831 39.732712 41.649788 40.607924 
Q 42.284746 41.483136 42.748093 42.512797 
Q 43.211441 43.542458 43.88072 44.417669 
Q 44.55 45.292881 45.236441 45.292881 
Q 45.511017 43.782712 45.940042 39.69839 
Q 46.369068 35.614068 46.883898 33.554746 
" clip-path="url(#pfe4c8be747)" style="fill: none; stroke: #000000; stroke-linejoin: miter"/>
   </g>
  </g>
  <g id="axes_4"/>
  <g id="axes_5">
   <g id="patch_5">
    <path d="M 69.357228 37.244607 
Q 70.406938 37.207117 70.594386 37.132138 
Q 74.005945 37.132138 75.786703 39.212814 
Q 77.567462 41.29349 77.567462 44.780028 
Q 77.567462 47.704221 72.956234 47.704221 
Q 72.31891 47.704221 71.77531 47.591752 
Q 71.23171 47.479283 70.594386 47.254345 
Q 69.957062 47.029407 69.469697 46.916938 
L 68.232538 45.679779 
M 69.244759 25.435366 
L 69.244759 26.560055 
Q 69.244759 29.409269 69.357228 33.008276 
Q 69.469697 36.607283 69.657145 40.899848 
Q 69.844593 45.192414 69.919572 47.141876 
" clip-path="url(#p777fabcf2a)" style="fill: none; stroke: #000000; stroke-linejoin: miter"/>
   </g>
  </g>
  <g id="axes_6">
   <g id="patch_6">
    <path d="M 89.718579 29.071862 
Q 89.343683 29.146841 89.212469 29.577972 
Q 89.081255 30.009103 89.156234 30.42149 
Q 89.156234 30.571448 89.193724 30.702662 
Q 89.231214 30.833876 89.287448 30.89011 
Q 89.343683 30.946345 89.399917 31.040069 
Q 89.456152 31.133793 89.493641 31.208772 
L 89.60611 29.859145 
M 89.60611 34.020497 
Q 88.706359 39.006621 88.481421 42.793076 
L 88.931297 45.379862 
L 89.268703 46.054676 
" clip-path="url(#p9f8e7b7c8a)" style="fill: none; stroke: #000000; stroke-linejoin: miter"/>
   </g>
  </g>
  <g id="axes_7">
   <g id="patch_7">
    <path d="M 108.5616 35.032717 
Q 107.51189 34.582841 106.537159 34.69531 
Q 103.500497 35.032717 101.588524 36.701007 
Q 99.676552 38.369297 99.676552 41.330979 
Q 99.676552 43.917766 101.682248 45.6048 
Q 103.687945 47.291834 106.312221 47.291834 
Q 108.674069 47.291834 109.798759 45.361117 
Q 110.923448 43.4304 110.923448 40.881103 
Q 110.923448 39.643945 110.511062 38.706703 
Q 110.098676 37.769462 109.573821 37.300841 
Q 109.048966 36.832221 108.299172 36.119917 
Q 107.549379 35.407614 107.099503 34.69531 
L 105.862345 34.245434 
" clip-path="url(#p0e7a0831a7)" style="fill: none; stroke: #000000; stroke-linejoin: miter"/>
   </g>
  </g>
  <g id="axes_8">
   <g id="patch_8">
    <path d="M 121.106359 28.621986 
Q 121.331297 30.34651 121.406276 32.146014 
Q 121.481255 33.945517 121.46251 36.551048 
Q 121.443766 39.156579 121.443766 40.093821 
Q 121.443766 40.13131 121.668703 45.829738 
L 121.893641 46.841959 
" clip-path="url(#pbaf0293cf2)" style="fill: none; stroke: #000000; stroke-linejoin: miter"/>
   </g>
  </g>
  <g id="axes_9">
   <g id="patch_9">
    <path d="M 140.9616 35.032717 
Q 139.91189 34.582841 138.937159 34.69531 
Q 135.900497 35.032717 133.988524 36.701007 
Q 132.076552 38.369297 132.076552 41.330979 
Q 132.076552 43.917766 134.082248 45.6048 
Q 136.087945 47.291834 138.712221 47.291834 
Q 141.074069 47.291834 142.198759 45.361117 
Q 143.323448 43.4304 143.323448 40.881103 
Q 143.323448 39.643945 142.911062 38.706703 
Q 142.498676 37.769462 141.973821 37.300841 
Q 141.448966 36.832221 140.699172 36.119917 
Q 139.949379 35.407614 139.499503 34.69531 
L 138.262345 34.245434 
" clip-path="url(#pa3c0cc12ca)" style="fill: none; stroke: #000000; stroke-linejoin: miter"/>
   </g>
  </g>
  <g id="axes_10">
   <g id="patch_10">
    <path d="M 158.687191 39.096404 
Q 158.43236 39.023596 157.46764 38.623146 
Q 156.502921 38.222697 155.84764 38.077079 
Q 155.19236 37.931461 154.537079 38.00427 
Q 151.915955 38.00427 150.277753 40.388764 
Q 148.639551 42.773258 148.639551 45.430787 
Q 148.639551 47.068989 153.881798 47.068989 
Q 155.447191 47.068989 156.775955 45.558202 
Q 158.104719 44.047416 158.778202 42.172584 
Q 159.451685 40.297753 159.451685 38.768764 
Q 159.451685 37.27618 159.415281 36.984944 
L 159.342472 38.077079 
Q 159.342472 38.550337 159.342472 38.987191 
Q 159.378876 40.188539 159.579101 42.281798 
Q 159.779326 44.375056 159.943146 46.049663 
Q 160.106966 47.72427 160.143371 49.872135 
Q 160.179775 52.02 160.015955 53.658202 
Q 159.852135 55.296404 159.287865 56.971011 
Q 158.723596 58.645618 157.795281 59.737753 
Q 156.866966 60.829888 155.265169 61.521573 
Q 153.663371 62.213258 151.515506 62.213258 
Q 149.877303 62.213258 148.785169 61.466966 
Q 147.693034 60.720674 147.693034 59.155281 
Q 147.620225 58.936854 147.656629 58.936854 
Q 147.693034 58.936854 147.802247 58.936854 
Q 147.911461 58.936854 147.911461 58.82764 
" clip-path="url(#p0d967f1fb2)" style="fill: none; stroke: #000000; stroke-linejoin: miter"/>
   </g>
  </g>
  <g id="axes_11">
   <g id="patch_11">
    <path d="M 170.718579 29.071862 
Q 170.343683 29.146841 170.212469 29.577972 
Q 170.081255 30.009103 170.156234 30.42149 
Q 170.156234 30.571448 170.193724 30.702662 
Q 170.231214 30.833876 170.287448 30.89011 
Q 170.343683 30.946345 170.399917 31.040069 
Q 170.456152 31.133793 170.493641 31.208772 
L 170.60611 29.859145 
M 170.60611 34.020497 
Q 169.706359 39.006621 169.481421 42.793076 
L 169.931297 45.379862 
L 170.268703 46.054676 
" clip-path="url(#pb33f7e330e)" style="fill: none; stroke: #000000; stroke-linejoin: miter"/>
   </g>
  </g>
  <g id="axes_12">
   <g id="patch_12">
    <path d="M 191.556735 34.365306 
Q 191.556735 34.365306 191.060816 34.365306 
Q 190.267347 34.365306 188.779592 34.067755 
Q 187.291837 33.770204 186.498367 33.770204 
Q 183.721224 33.770204 181.787143 35.224898 
Q 179.853061 36.679592 179.853061 39.423673 
Q 179.853061 40.94449 181.340816 42.399184 
Q 182.828571 43.853878 184.762653 44.663878 
Q 186.696735 45.473878 188.18449 45.473878 
Q 189.110204 45.473878 189.80449 45.110204 
Q 190.498776 44.746531 191.242653 44.118367 
Q 191.986531 43.490204 192.548571 43.192653 
L 192.746939 42.696735 
" clip-path="url(#pd33e461e5e)" style="fill: none; stroke: #000000; stroke-linejoin: miter"/>
   </g>
  </g>
  <g id="axes_13">
   <g id="patch_13">
    <path d="M 208.043923 36.441748 
Q 206.834968 35.094627 202.862687 35.094627 
Q 201.342857 35.094627 200.565672 35.146439 
Q 199.788486 35.198252 198.78678 35.440043 
Q 197.785075 35.681834 197.301493 36.182687 
Q 196.81791 36.683539 196.472495 37.616162 
Q 196.127079 38.548785 196.127079 39.964989 
Q 196.127079 42.037484 197.543284 43.280981 
Q 198.959488 44.524478 200.893817 44.524478 
Q 203.553518 44.524478 206.316844 38.721493 
Q 207.663966 35.854542 207.663966 35.82 
Q 208.009382 35.578209 208.043923 36.441748 
Q 208.043923 37.512537 208.458422 40.362217 
Q 208.872921 43.211898 208.872921 44.524478 
" clip-path="url(#p83508949f6)" style="fill: none; stroke: #000000; stroke-linejoin: miter"/>
   </g>
  </g>
  <g id="axes_14">
   <g id="patch_14">
    <path d="M 218.306359 28.621986 
Q 218.531297 30.34651 218.606276 32.146014 
Q 218.681255 33.945517 218.66251 36.551048 
Q 218.643766 39.156579 218.643766 40.093821 
Q 218.643766 40.13131 218.868703 45.829738 
L 219.093641 46.841959 
" clip-path="url(#p5f46eead66)" style="fill: none; stroke: #000000; stroke-linejoin: miter"/>
   </g>
  </g>
  <g id="axes_15"/>
  <g id="axes_16">
   <g id="patch_15">
    <path d="M 256.356735 34.365306 
Q 256.356735 34.365306 255.860816 34.365306 
Q 255.067347 34.365306 253.579592 34.067755 
Q 252.091837 33.770204 251.298367 33.770204 
Q 248.521224 33.770204 246.587143 35.224898 
Q 244.653061 36.679592 244.653061 39.423673 
Q 244.653061 40.94449 246.140816 42.399184 
Q 247.628571 43.853878 249.562653 44.663878 
Q 251.496735 45.473878 252.98449 45.473878 
Q 253.910204 45.473878 254.60449 45.110204 
Q 255.298776 44.746531 256.042653 44.118367 
Q 256.786531 43.490204 257.348571 43.192653 
L 257.546939 42.696735 
" clip-path="url(#pe04953badf)" style="fill: none; stroke: #000000; stroke-linejoin: miter"/>
   </g>
  </g>
  <g id="axes_17">
   <g id="patch_16">
    <path d="M 263.813462 35.932469 
Q 264.413297 35.257655 265.406772 34.826524 
Q 266.400248 34.395393 267.3 34.470372 
Q 267.937324 34.470372 268.42469 34.639076 
Q 268.912055 34.807779 269.230717 34.995228 
Q 269.549379 35.182676 269.774317 35.670041 
Q 269.999255 36.157407 270.111724 36.419834 
Q 270.224193 36.682262 270.280428 37.375821 
Q 270.336662 38.069379 270.355407 38.331807 
Q 270.374152 38.594234 270.355407 39.419007 
Q 270.336662 40.243779 270.336662 40.431228 
Q 270.336662 41.368469 270.167959 43.242952 
Q 269.999255 45.117434 269.999255 46.054676 
Q 269.999255 46.467062 270.05549 46.823214 
Q 270.111724 47.179366 270.205448 47.610497 
Q 270.299172 48.041628 270.336662 48.304055 
L 270.786538 48.528993 
M 264.263338 23.111007 
Q 264.488276 24.798041 264.488276 29.971614 
L 264.488276 42.3432 
L 264.150869 46.841959 
L 263.925931 47.74171 
" clip-path="url(#pe71e9b2df0)" style="fill: none; stroke: #000000; stroke-linejoin: miter"/>
   </g>
  </g>
  <g id="axes_18">
   <g id="patch_17">
    <path d="M 289.043923 36.441748 
Q 287.834968 35.094627 283.862687 35.094627 
Q 282.342857 35.094627 281.565672 35.146439 
Q 280.788486 35.198252 279.78678 35.440043 
Q 278.785075 35.681834 278.301493 36.182687 
Q 277.81791 36.683539 277.472495 37.616162 
Q 277.127079 38.548785 277.127079 39.964989 
Q 277.127079 42.037484 278.543284 43.280981 
Q 279.959488 44.524478 281.893817 44.524478 
Q 284.553518 44.524478 287.316844 38.721493 
Q 288.663966 35.854542 288.663966 35.82 
Q 289.009382 35.578209 289.043923 36.441748 
Q 289.043923 37.512537 289.458422 40.362217 
Q 289.872921 43.211898 289.872921 44.524478 
" clip-path="url(#p8b095197b8)" style="fill: none; stroke: #000000; stroke-linejoin: miter"/>
   </g>
  </g>
  <g id="axes_19">
   <g id="patch_18">
    <path d="M 296.213462 32.783338 
Q 296.738317 34.507862 296.869531 36.457324 
Q 297.000745 38.406786 296.925766 40.956083 
Q 296.850786 43.505379 296.888276 44.705048 
L 297.000745 46.054676 
L 297.000745 45.829738 
Q 297.000745 44.667559 296.719572 42.30571 
Q 296.4384 39.943862 296.4384 38.744193 
Q 296.4384 36.419834 297.450621 34.882759 
Q 298.462841 33.345683 300.487283 33.345683 
Q 301.199586 33.345683 301.536993 33.626855 
Q 301.8744 33.908028 302.136828 34.432883 
Q 302.399255 34.957738 302.736662 35.257655 
L 303.186538 36.832221 
" clip-path="url(#p3a063856ae)" style="fill: none; stroke: #000000; stroke-linejoin: miter"/>
   </g>
  </g>
  <g id="axes_20">
   <g id="patch_19">
    <path d="M 321.443923 36.441748 
Q 320.234968 35.094627 316.262687 35.094627 
Q 314.742857 35.094627 313.965672 35.146439 
Q 313.188486 35.198252 312.18678 35.440043 
Q 311.185075 35.681834 310.701493 36.182687 
Q 310.21791 36.683539 309.872495 37.616162 
Q 309.527079 38.548785 309.527079 39.964989 
Q 309.527079 42.037484 310.943284 43.280981 
Q 312.359488 44.524478 314.293817 44.524478 
Q 316.953518 44.524478 319.716844 38.721493 
Q 321.063966 35.854542 321.063966 35.82 
Q 321.409382 35.578209 321.443923 36.441748 
Q 321.443923 37.512537 321.858422 40.362217 
Q 322.272921 43.211898 322.272921 44.524478 
" clip-path="url(#pd040a7f64c)" style="fill: none; stroke: #000000; stroke-linejoin: miter"/>
   </g>
  </g>
  <g id="axes_21">
   <g id="patch_20">
    <path d="M 337.356735 34.365306 
Q 337.356735 34.365306 336.860816 34.365306 
Q 336.067347 34.365306 334.579592 34.067755 
Q 333.091837 33.770204 332.298367 33.770204 
Q 329.521224 33.770204 327.587143 35.224898 
Q 325.653061 36.679592 325.653061 39.423673 
Q 325.653061 40.94449 327.140816 42.399184 
Q 328.628571 43.853878 330.562653 44.663878 
Q 332.496735 45.473878 333.98449 45.473878 
Q 334.910204 45.473878 335.60449 45.110204 
Q 336.298776 44.746531 337.042653 44.118367 
Q 337.786531 43.490204 338.348571 43.192653 
L 338.546939 42.696735 
" clip-path="url(#pa8db7c1bd6)" style="fill: none; stroke: #000000; stroke-linejoin: miter"/>
   </g>
  </g>
  <g id="axes_22">
   <g id="patch_21">
    <path d="M 343.463834 37.95691 
L 344.138648 37.95691 
Q 344.850952 37.95691 345.638234 37.881931 
Q 346.425517 37.806952 347.381503 37.675738 
Q 348.33749 37.544524 348.862345 37.507034 
L 353.136166 35.82 
M 349.087283 30.42149 
L 349.087283 31.43371 
Q 349.087283 33.383172 348.412469 37.207117 
Q 347.737655 41.031062 347.737655 43.018014 
Q 347.737655 43.805297 347.737655 44.105214 
Q 347.737655 44.405131 347.831379 45.042455 
Q 347.925103 45.679779 348.112552 45.960952 
Q 348.3 46.242124 348.693641 46.485807 
Q 349.087283 46.72949 349.649628 46.72949 
Q 349.762097 46.692 350.080759 46.72949 
Q 350.399421 46.766979 350.586869 46.710745 
Q 350.774317 46.65451 350.774317 46.392083 
" clip-path="url(#p5ba8508874)" style="fill: none; stroke: #000000; stroke-linejoin: miter"/>
   </g>
  </g>
  <g id="axes_23">
   <g id="patch_22">
    <path d="M 358.257798 38.160826 
Q 361.230275 39.535596 365.949083 39.721376 
Q 367.472477 39.721376 368.159862 38.550963 
Q 368.847248 37.38055 368.847248 35.82 
Q 368.847248 35.299817 368.754358 34.909679 
Q 368.661468 34.519541 368.419954 34.296606 
Q 368.17844 34.07367 368.011239 33.943624 
Q 367.844037 33.813578 367.398165 33.757844 
Q 366.952294 33.70211 366.747936 33.683532 
Q 366.543578 33.664954 365.967661 33.683532 
Q 365.391743 33.70211 365.168807 33.70211 
Q 363.125229 33.70211 361.638991 35.578486 
Q 360.152752 37.454862 360.152752 39.609908 
Q 360.152752 42.619541 362.084862 44.570229 
Q 364.016972 46.520917 367.063761 46.520917 
Q 369.218807 46.818165 370.742202 44.29156 
" clip-path="url(#p8e8c85276a)" style="fill: none; stroke: #000000; stroke-linejoin: miter"/>
   </g>
  </g>
  <g id="axes_24">
   <g id="patch_23">
    <path d="M 377.213462 32.783338 
Q 377.738317 34.507862 377.869531 36.457324 
Q 378.000745 38.406786 377.925766 40.956083 
Q 377.850786 43.505379 377.888276 44.705048 
L 378.000745 46.054676 
L 378.000745 45.829738 
Q 378.000745 44.667559 377.719572 42.30571 
Q 377.4384 39.943862 377.4384 38.744193 
Q 377.4384 36.419834 378.450621 34.882759 
Q 379.462841 33.345683 381.487283 33.345683 
Q 382.199586 33.345683 382.536993 33.626855 
Q 382.8744 33.908028 383.136828 34.432883 
Q 383.399255 34.957738 383.736662 35.257655 
L 384.186538 36.832221 
" clip-path="url(#p3faa2c20e2)" style="fill: none; stroke: #000000; stroke-linejoin: miter"/>
   </g>
  </g>
  <g id="axes_25">
   <g id="patch_24">
    <path d="M 397.518579 29.071862 
Q 397.143683 29.146841 397.012469 29.577972 
Q 396.881255 30.009103 396.956234 30.42149 
Q 396.956234 30.571448 396.993724 30.702662 
Q 397.031214 30.833876 397.087448 30.89011 
Q 397.143683 30.946345 397.199917 31.040069 
Q 397.256152 31.133793 397.293641 31.208772 
L 397.40611 29.859145 
M 397.40611 34.020497 
Q 396.506359 39.006621 396.281421 42.793076 
L 396.731297 45.379862 
L 397.068703 46.054676 
" clip-path="url(#p56a73f82b4)" style="fill: none; stroke: #000000; stroke-linejoin: miter"/>
   </g>
  </g>
  <g id="axes_26">
   <g id="patch_25">
    <path d="M 408.657476 43.917766 
Q 408.957393 44.180193 409.969614 45.154924 
Q 410.981834 46.129655 411.544179 46.560786 
Q 412.106524 46.991917 413.13749 47.385559 
Q 414.168455 47.7792 415.180676 47.629241 
Q 415.85549 47.629241 416.32411 47.404303 
Q 416.792731 47.179366 417.017669 46.879448 
Q 417.242607 46.579531 417.373821 45.979697 
Q 417.505034 45.379862 417.523779 44.967476 
Q 417.542524 44.55509 417.542524 43.805297 
Q 417.542524 42.718097 416.642772 42.043283 
Q 415.743021 41.368469 414.449628 41.031062 
Q 413.156234 40.693655 411.862841 40.300014 
Q 410.569448 39.906372 409.669697 38.987876 
Q 408.769945 38.069379 408.769945 36.607283 
Q 408.769945 36.082428 408.938648 35.726276 
Q 409.107352 35.370124 409.500993 35.145186 
Q 409.894634 34.920248 410.175807 34.807779 
Q 410.456979 34.69531 411.113048 34.639076 
Q 411.769117 34.582841 411.956566 34.582841 
Q 412.144014 34.582841 412.818828 34.582841 
Q 414.018497 34.582841 414.599586 34.995228 
Q 415.180676 35.407614 415.499338 36.026193 
Q 415.818 36.644772 416.080428 36.832221 
" clip-path="url(#p799c35ccbc)" style="fill: none; stroke: #000000; stroke-linejoin: miter"/>
   </g>
  </g>
  <g id="axes_27">
   <g id="patch_26">
    <path d="M 424.463834 37.95691 
L 425.138648 37.95691 
Q 425.850952 37.95691 426.638234 37.881931 
Q 427.425517 37.806952 428.381503 37.675738 
Q 429.33749 37.544524 429.862345 37.507034 
L 434.136166 35.82 
M 430.087283 30.42149 
L 430.087283 31.43371 
Q 430.087283 33.383172 429.412469 37.207117 
Q 428.737655 41.031062 428.737655 43.018014 
Q 428.737655 43.805297 428.737655 44.105214 
Q 428.737655 44.405131 428.831379 45.042455 
Q 428.925103 45.679779 429.112552 45.960952 
Q 429.3 46.242124 429.693641 46.485807 
Q 430.087283 46.72949 430.649628 46.72949 
Q 430.762097 46.692 431.080759 46.72949 
Q 431.399421 46.766979 431.586869 46.710745 
Q 431.774317 46.65451 431.774317 46.392083 
" clip-path="url(#p86070d91d5)" style="fill: none; stroke: #000000; stroke-linejoin: miter"/>
   </g>
  </g>
  <g id="axes_28">
   <g id="patch_27">
    <path d="M 446.118579 29.071862 
Q 445.743683 29.146841 445.612469 29.577972 
Q 445.481255 30.009103 445.556234 30.42149 
Q 445.556234 30.571448 445.593724 30.702662 
Q 445.631214 30.833876 445.687448 30.89011 
Q 445.743683 30.946345 445.799917 31.040069 
Q 445.856152 31.133793 445.893641 31.208772 
L 446.00611 29.859145 
M 446.00611 34.020497 
Q 445.106359 39.006621 444.881421 42.793076 
L 445.331297 45.379862 
L 445.668703 46.054676 
" clip-path="url(#pb7690e40c5)" style="fill: none; stroke: #000000; stroke-linejoin: miter"/>
   </g>
  </g>
  <g id="axes_29">
   <g id="patch_28">
    <path d="M 466.956735 34.365306 
Q 466.956735 34.365306 466.460816 34.365306 
Q 465.667347 34.365306 464.179592 34.067755 
Q 462.691837 33.770204 461.898367 33.770204 
Q 459.121224 33.770204 457.187143 35.224898 
Q 455.253061 36.679592 455.253061 39.423673 
Q 455.253061 40.94449 456.740816 42.399184 
Q 458.228571 43.853878 460.162653 44.663878 
Q 462.096735 45.473878 463.58449 45.473878 
Q 464.510204 45.473878 465.20449 45.110204 
Q 465.898776 44.746531 466.642653 44.118367 
Q 467.386531 43.490204 467.948571 43.192653 
L 468.146939 42.696735 
" clip-path="url(#pef92b9ad2d)" style="fill: none; stroke: #000000; stroke-linejoin: miter"/>
   </g>
  </g>
  <g id="axes_30">
   <g id="patch_29">
    <path d="M 473.457476 43.917766 
Q 473.757393 44.180193 474.769614 45.154924 
Q 475.781834 46.129655 476.344179 46.560786 
Q 476.906524 46.991917 477.93749 47.385559 
Q 478.968455 47.7792 479.980676 47.629241 
Q 480.65549 47.629241 481.12411 47.404303 
Q 481.592731 47.179366 481.817669 46.879448 
Q 482.042607 46.579531 482.173821 45.979697 
Q 482.305034 45.379862 482.323779 44.967476 
Q 482.342524 44.55509 482.342524 43.805297 
Q 482.342524 42.718097 481.442772 42.043283 
Q 480.543021 41.368469 479.249628 41.031062 
Q 477.956234 40.693655 476.662841 40.300014 
Q 475.369448 39.906372 474.469697 38.987876 
Q 473.569945 38.069379 473.569945 36.607283 
Q 473.569945 36.082428 473.738648 35.726276 
Q 473.907352 35.370124 474.300993 35.145186 
Q 474.694634 34.920248 474.975807 34.807779 
Q 475.256979 34.69531 475.913048 34.639076 
Q 476.569117 34.582841 476.756566 34.582841 
Q 476.944014 34.582841 477.618828 34.582841 
Q 478.818497 34.582841 479.399586 34.995228 
Q 479.980676 35.407614 480.299338 36.026193 
Q 480.618 36.644772 480.880428 36.832221 
" clip-path="url(#paf5d6f086d)" style="fill: none; stroke: #000000; stroke-linejoin: miter"/>
   </g>
  </g>
  <g id="axes_31">
   <g id="patch_30">
    <path d="M 493.987531 45.979697 
Q 493.950041 46.017186 493.818828 46.054676 
Q 493.687614 46.092166 493.725103 46.167145 
Q 493.725103 46.579531 494.1 46.579531 
Q 494.437407 46.579531 494.437407 46.092166 
Q 494.512386 45.867228 494.231214 45.754759 
Q 493.950041 45.64229 493.762593 45.754759 
" clip-path="url(#pac85a596ea)" style="fill: none; stroke: #000000; stroke-linejoin: miter"/>
   </g>
  </g>
 </g>
 <defs>
  <clipPath id="p0ae64bd7dd">
   <rect x="1.764248" y="8.64" width="12.671503" height="54.36"/>
  </clipPath>
  <clipPath id="p648acf628d">
   <rect x="16.2" y="8.881927" width="16.2" height="53.876147"/>
  </clipPath>
  <clipPath id="pfe4c8be747">
   <rect x="32.4" y="10.936525" width="16.2" height="49.766949"/>
  </clipPath>
  <clipPath id="p777fabcf2a">
   <rect x="66.358055" y="8.64" width="13.08389" height="54.36"/>
  </clipPath>
  <clipPath id="p9f8e7b7c8a">
   <rect x="86.606938" y="8.64" width="4.986124" height="54.36"/>
  </clipPath>
  <clipPath id="p0e7a0831a7">
   <rect x="97.802069" y="8.64" width="14.995862" height="54.36"/>
  </clipPath>
  <clipPath id="pbaf0293cf2">
   <rect x="119.231876" y="8.64" width="4.536248" height="54.36"/>
  </clipPath>
  <clipPath id="pa3c0cc12ca">
   <rect x="130.202069" y="8.64" width="14.995862" height="54.36"/>
  </clipPath>
  <clipPath id="p0d967f1fb2">
   <rect x="145.8" y="9.426742" width="16.2" height="52.786517"/>
  </clipPath>
  <clipPath id="pb33f7e330e">
   <rect x="167.606938" y="8.64" width="4.986124" height="54.36"/>
  </clipPath>
  <clipPath id="pd33e461e5e">
   <rect x="178.2" y="11.850612" width="16.2" height="47.938776"/>
  </clipPath>
  <clipPath id="p83508949f6">
   <rect x="194.4" y="10.777356" width="16.2" height="50.085288"/>
  </clipPath>
  <clipPath id="p5f46eead66">
   <rect x="216.431876" y="8.64" width="4.536248" height="54.36"/>
  </clipPath>
  <clipPath id="pe04953badf">
   <rect x="243" y="11.850612" width="16.2" height="47.938776"/>
  </clipPath>
  <clipPath id="pe71e9b2df0">
   <rect x="261.938979" y="8.64" width="10.722041" height="54.36"/>
  </clipPath>
  <clipPath id="p8b095197b8">
   <rect x="275.4" y="10.777356" width="16.2" height="50.085288"/>
  </clipPath>
  <clipPath id="p3a063856ae">
   <rect x="294.338979" y="8.64" width="10.722041" height="54.36"/>
  </clipPath>
  <clipPath id="pd040a7f64c">
   <rect x="307.8" y="10.777356" width="16.2" height="50.085288"/>
  </clipPath>
  <clipPath id="pa8db7c1bd6">
   <rect x="324" y="11.850612" width="16.2" height="47.938776"/>
  </clipPath>
  <clipPath id="p5ba8508874">
   <rect x="341.589352" y="8.64" width="13.421297" height="54.36"/>
  </clipPath>
  <clipPath id="p8e8c85276a">
   <rect x="356.4" y="8.881927" width="16.2" height="53.876147"/>
  </clipPath>
  <clipPath id="p3faa2c20e2">
   <rect x="375.338979" y="8.64" width="10.722041" height="54.36"/>
  </clipPath>
  <clipPath id="p56a73f82b4">
   <rect x="394.406938" y="8.64" width="4.986124" height="54.36"/>
  </clipPath>
  <clipPath id="p799c35ccbc">
   <rect x="406.782993" y="8.64" width="12.634014" height="54.36"/>
  </clipPath>
  <clipPath id="p86070d91d5">
   <rect x="422.589352" y="8.64" width="13.421297" height="54.36"/>
  </clipPath>
  <clipPath id="pb7690e40c5">
   <rect x="443.006938" y="8.64" width="4.986124" height="54.36"/>
  </clipPath>
  <clipPath id="pef92b9ad2d">
   <rect x="453.6" y="11.850612" width="16.2" height="47.938776"/>
  </clipPath>
  <clipPath id="paf5d6f086d">
   <rect x="471.582993" y="8.64" width="12.634014" height="54.36"/>
  </clipPath>
  <clipPath id="pac85a596ea">
   <rect x="491.813131" y="8.64" width="4.573738" height="54.36"/>
  </clipPath>
 </defs>
</svg>
