<?xml version="1.0" encoding="utf-8" standalone="no"?>
<!DOCTYPE svg PUBLIC "-//W3C//DTD SVG 1.1//EN"
  "http://www.w3.org/Graphics/SVG/1.1/DTD/svg11.dtd">
<svg xmlns:xlink="http://www.w3.org/1999/xlink" width="63pt" height="72pt" viewBox="0 0 63 72" xmlns="http://www.w3.org/2000/svg" version="1.1">
 <metadata>
  <rdf:RDF xmlns:dc="http://purl.org/dc/elements/1.1/" xmlns:cc="http://creativecommons.org/ns#" xmlns:rdf="http://www.w3.org/1999/02/22-rdf-syntax-ns#">
   <cc:Work>
    <dc:type rdf:resource="http://purl.org/dc/dcmitype/StillImage"/>
    <dc:date>2023-02-04T09:44:37.072217</dc:date>
    <dc:format>image/svg+xml</dc:format>
    <dc:creator>
     <cc:Agent>
      <dc:title>Matplotlib v3.6.1, https://matplotlib.org/</dc:title>
     </cc:Agent>
    </dc:creator>
   </cc:Work>
  </rdf:RDF>
 </metadata>
 <defs>
  <style type="text/css">*{stroke-linejoin: round; stroke-linecap: butt}</style>
 </defs>
 <g id="figure_1">
  <g id="patch_1">
   <path d="M 0 72 
L 63 72 
L 63 0 
L 0 0 
z
" style="fill: #8fff9f"/>
  </g>
  <g id="axes_1">
   <g id="patch_2">
    <path d="M 2.365759 35.82 
Q 4.802586 34.920248 7.932972 34.564097 
Q 11.063359 34.207945 15.074752 34.057986 
Q 19.086145 33.908028 21.035607 33.68309 
L 25.984241 32.783338 
M 16.31191 26.522566 
L 16.31191 26.972441 
Q 16.31191 28.884414 16.536848 47.291834 
M 10.9134 28.17211 
Q 10.87591 28.284579 10.894655 28.734455 
Q 10.9134 29.184331 10.9134 29.2968 
Q 10.9134 29.371779 10.9134 30.96509 
Q 10.9134 32.5584 10.9134 32.820828 
Q 10.9134 33.083255 10.87591 34.507862 
Q 10.838421 35.932469 10.725952 36.40109 
Q 10.613483 36.86971 10.463524 38.069379 
Q 10.313566 39.269048 10.051138 39.868883 
Q 9.78871 40.468717 9.451303 41.387214 
Q 9.113897 42.30571 8.607786 42.980524 
Q 8.101676 43.655338 7.501841 44.292662 
L 6.377152 45.417352 
M 6.077234 28.17211 
L 20.923138 26.934952 
" clip-path="url(#p393c829cbb)" style="fill: none; stroke: #000000; stroke-linejoin: miter"/>
   </g>
  </g>
  <g id="axes_2">
   <g id="patch_3">
    <path d="M 45.71623 45.282369 
Q 48.573495 44.651545 54.06538 44.725759 
M 45.604908 38.491728 
Q 45.604908 38.491728 46.050196 38.491728 
Q 47.200524 38.491728 49.464071 38.04644 
Q 51.727618 37.601152 52.95216 37.601152 
Q 53.323233 37.601152 53.601538 37.545491 
Q 53.879843 37.48983 54.232363 37.397062 
Q 54.584882 37.304293 54.844634 37.267186 
L 53.731414 45.171047 
M 45.604908 38.157762 
L 45.604908 38.491728 
Q 45.604908 38.974123 45.790445 39.623501 
Q 45.975982 40.27288 46.254287 41.052134 
Q 46.532592 41.831387 46.606806 42.165353 
L 47.163416 45.393691 
M 51.171008 30.81051 
L 51.393652 30.81051 
Q 51.467866 30.921832 52.432657 32.406126 
Q 53.397448 33.890419 54.06538 34.372814 
M 49.501178 26.914241 
Q 47.089202 31.107369 46.606806 32.146374 
L 45.382264 35.040746 
Q 46.198626 34.892317 47.812795 34.428475 
Q 49.426963 33.964634 50.16911 33.816204 
L 51.022579 33.59356 
L 51.83894 33.370916 
L 52.840838 33.03695 
M 42.116819 30.699188 
Q 41.96839 34.075955 40.818063 37.192971 
Q 39.667736 40.309987 37.292866 43.074483 
Q 34.917997 45.838979 31.652552 47.471702 
L 30.205366 47.805668 
M 30.761976 34.15017 
L 31.095942 34.15017 
Q 31.355694 34.187277 31.782428 34.113063 
Q 32.209162 34.038848 32.320484 34.038848 
Q 33.248168 33.964634 34.287173 33.834758 
Q 35.326178 33.704882 36.680596 33.463685 
Q 38.035013 33.222487 38.665838 33.148272 
L 42.005497 32.925628 
M 36.105432 26.802919 
L 35.214856 32.035052 
Q 35.103534 32.925628 34.713907 34.91087 
Q 34.32428 36.896113 34.212958 37.935118 
Q 34.175851 38.157762 33.97176 38.695818 
Q 33.76767 39.233874 33.76767 39.382304 
Q 33.804777 39.530733 33.934653 39.679162 
Q 34.064529 39.827592 34.268619 39.994575 
Q 34.472709 40.161558 34.546924 40.27288 
Q 34.917997 40.68106 35.400393 41.107795 
Q 35.882788 41.534529 36.587827 42.072585 
Q 37.292866 42.610641 37.552618 42.833285 
L 42.784751 47.063521 
" clip-path="url(#p3df9df9ff2)" style="fill: none; stroke: #000000; stroke-linejoin: miter"/>
   </g>
  </g>
 </g>
 <defs>
  <clipPath id="p393c829cbb">
   <rect x="0.491276" y="8.64" width="27.367448" height="54.36"/>
  </clipPath>
  <clipPath id="p3df9df9ff2">
   <rect x="28.35" y="8.917186" width="28.35" height="53.805628"/>
  </clipPath>
 </defs>
</svg>
