<?xml version="1.0" encoding="utf-8" standalone="no"?>
<!DOCTYPE svg PUBLIC "-//W3C//DTD SVG 1.1//EN"
  "http://www.w3.org/Graphics/SVG/1.1/DTD/svg11.dtd">
<svg xmlns:xlink="http://www.w3.org/1999/xlink" width="162pt" height="162pt" viewBox="0 0 162 162" xmlns="http://www.w3.org/2000/svg" version="1.1">
 <metadata>
  <rdf:RDF xmlns:dc="http://purl.org/dc/elements/1.1/" xmlns:cc="http://creativecommons.org/ns#" xmlns:rdf="http://www.w3.org/1999/02/22-rdf-syntax-ns#">
   <cc:Work>
    <dc:type rdf:resource="http://purl.org/dc/dcmitype/StillImage"/>
    <dc:date>2023-02-15T22:59:38.681606</dc:date>
    <dc:format>image/svg+xml</dc:format>
    <dc:creator>
     <cc:Agent>
      <dc:title>Matplotlib v3.6.1, https://matplotlib.org/</dc:title>
     </cc:Agent>
    </dc:creator>
   </cc:Work>
  </rdf:RDF>
 </metadata>
 <defs>
  <style type="text/css">*{stroke-linejoin: round; stroke-linecap: butt}</style>
 </defs>
 <g id="figure_1">
  <g id="patch_1">
   <path d="M 0 162 
L 162 162 
L 162 0 
L 0 0 
z
" style="fill: #8fff9f"/>
  </g>
  <g id="axes_1">
   <g id="patch_2">
    <path d="M 16.071614 78.914308 
Q 16.491787 80.017262 16.623091 82.433256 
Q 16.754395 84.849251 17.174568 86.004726 
L 17.489697 99.082608 
M 9.926585 82.380735 
L 19.380476 82.065605 
L 23.792291 80.489957 
L 24.107421 84.586643 
L 23.949856 91.729582 
L 21.901513 89.681239 
M 10.08415 82.380735 
L 10.241715 88.42072 
M 17.542219 65.101124 
Q 17.227089 65.31121 16.91196 65.94147 
Q 16.59683 66.571729 16.334222 66.781816 
Q 15.493876 67.517118 14.706052 68.331203 
Q 13.918228 69.145288 12.894056 70.248242 
Q 11.869885 71.351196 11.344669 71.876412 
L 7.720677 73.557104 
M 9.138761 66.93938 
Q 9.401369 66.93938 10.031628 67.385814 
Q 10.661888 67.832248 10.766931 67.884769 
Q 11.292147 68.147378 14.96866 70.090677 
L 19.85317 72.086499 
L 20.588473 72.45415 
M 3.203818 78.179006 
L 7.300504 78.179006 
Q 10.241715 78.179006 13.550576 77.890137 
Q 16.859438 77.601268 20.903602 77.128573 
Q 24.947767 76.655879 27.153674 76.445793 
L 33.823919 75.500403 
M 12.972839 72.506671 
Q 12.815274 72.979366 12.605187 74.029798 
Q 12.395101 75.080231 12.185014 75.657968 
Q 11.449712 77.65379 8.954935 81.015173 
Q 6.460159 84.376556 6.092507 84.954294 
L 2.626081 87.790461 
" clip-path="url(#p4fb8e35f67)" style="fill: none; stroke: #000000; stroke-linejoin: miter"/>
   </g>
  </g>
  <g id="axes_2">
   <g id="patch_3">
    <path d="M 53.96901 85.876851 
L 53.812123 96.545143 
Q 53.341463 96.806621 53.49835 97.486463 
M 48.634864 92.152317 
L 49.419297 92.152317 
L 57.73429 90.426564 
L 59.460043 90.112791 
M 40.319871 98.58467 
L 40.947418 98.58467 
Q 46.543042 98.58467 61.02891 97.224986 
L 70.285222 97.17269 
M 46.438451 86.818171 
Q 46.490746 86.818171 47.432066 86.47825 
Q 48.373386 86.138329 48.948637 86.347511 
L 59.773816 84.778644 
M 57.106743 78.189405 
L 64.637303 78.189405 
M 57.420516 73.482805 
L 64.323529 73.482805 
M 58.361836 68.462432 
L 65.212554 67.991772 
Q 67.042898 67.677999 67.095194 67.677999 
Q 67.408967 67.887181 67.330524 68.148659 
Q 67.25208 68.410136 67.121341 68.854648 
Q 66.990603 69.299161 67.095194 69.560638 
Q 65.787805 76.568242 66.206169 83.837324 
Q 66.258465 84.517166 66.180022 84.726349 
Q 66.101578 84.935531 65.578623 84.935531 
L 65.212554 84.83094 
L 64.794189 84.778644 
L 62.127116 83.209778 
M 58.361836 67.991772 
Q 58.309541 68.462432 58.361836 69.246865 
Q 58.361836 71.600165 57.995768 73.744283 
Q 57.629699 75.8884 57.289778 77.038902 
Q 56.949857 78.189405 56.008537 81.013364 
L 53.341463 83.837324 
M 47.275179 66.266019 
Q 47.536657 66.632088 48.687159 67.050452 
L 51.354232 68.776205 
M 45.026471 72.175416 
Q 44.974175 72.59378 45.026471 72.959849 
Q 45.078766 74.267238 44.608106 76.149878 
Q 44.137446 78.032518 44.085151 78.973838 
Q 44.085151 79.078429 44.006707 79.836714 
Q 43.928264 80.595 43.928264 81.013364 
Q 43.928264 81.274842 43.692934 81.77165 
Q 43.457604 82.268458 43.457604 82.582231 
L 43.771377 82.582231 
Q 44.242037 82.582231 45.209505 81.823945 
Q 46.176973 81.06566 47.327475 80.019749 
Q 48.477977 78.973838 48.634864 78.816951 
L 49.889957 78.032518 
M 39.064778 72.018529 
L 40.162984 72.018529 
L 43.771377 72.018529 
L 53.812123 69.822116 
L 55.694763 69.66523 
" clip-path="url(#pb98e4b291e)" style="fill: none; stroke: #000000; stroke-linejoin: miter"/>
   </g>
  </g>
  <g id="axes_3">
   <g id="patch_4">
    <path d="M 95.926487 86.583952 
L 103.361048 82.247125 
Q 103.567564 82.298754 103.825708 82.092238 
M 95.152054 78.994504 
Q 95.100425 79.149391 95.126239 79.691494 
Q 95.152054 80.233598 95.152054 80.388484 
Q 95.152054 82.9183 95.229497 84.467167 
Q 95.306941 86.016034 95.642528 87.797231 
Q 95.978116 89.578428 96.675106 90.585191 
Q 97.372096 91.591955 98.533746 92.49546 
Q 99.695397 93.398966 101.528222 93.786183 
Q 103.361048 94.173399 105.839235 94.173399 
Q 105.890864 94.173399 106.613669 94.018513 
L 106.768555 90.146346 
M 77.494972 88.597479 
L 78.114518 88.597479 
Q 78.166147 88.597479 81.057365 87.977932 
L 85.239306 87.668159 
M 77.804745 84.415538 
Q 79.715014 84.415538 80.128045 84.105765 
L 86.323513 83.641105 
M 77.804745 79.459164 
Q 78.579178 79.407535 80.102231 79.278463 
Q 81.625283 79.149391 82.580418 79.071948 
Q 83.535552 78.994504 84.852089 78.813803 
Q 86.168626 78.633102 87.252833 78.374958 
Q 87.562606 78.374958 87.87238 84.880198 
Q 88.182153 91.385439 88.182153 94.018513 
Q 88.182153 94.070142 88.027266 95.412493 
L 86.478399 94.173399 
M 77.030312 78.839618 
L 77.340085 91.075666 
M 96.081374 68.46221 
Q 96.236261 68.410581 97.810942 68.074993 
Q 99.385623 67.739405 99.953541 67.558704 
Q 100.521459 67.378003 101.554037 66.861714 
Q 102.586615 66.345425 103.206161 65.674249 
M 95.306941 64.435156 
Q 95.978116 65.777507 95.694157 67.584518 
Q 95.410198 69.39153 95.694157 71.095283 
Q 95.978116 72.799037 97.475354 72.953924 
Q 98.094901 73.005552 99.617953 73.676728 
Q 101.141006 74.347904 102.121955 74.347904 
Q 103.206161 74.606048 103.748265 73.521841 
Q 104.290368 72.437635 104.445255 71.095283 
M 85.703966 68.92687 
Q 87.665864 70.011076 88.827514 72.205305 
Q 89.989164 74.399533 89.73102 76.671204 
M 82.451346 65.674249 
Q 81.625283 68.100807 79.869901 70.036891 
Q 78.114518 71.972975 75.481445 74.03813 
Q 75.481445 74.193017 78.269405 74.193017 
Q 79.508499 74.193017 80.747592 73.934873 
Q 81.986686 73.676728 83.535552 73.263697 
Q 85.084419 72.850666 86.013739 72.64415 
L 87.87238 72.024603 
" clip-path="url(#p909f20c8d5)" style="fill: none; stroke: #000000; stroke-linejoin: miter"/>
   </g>
  </g>
  <g id="axes_4">
   <g id="patch_5">
    <path d="M 142.088526 68.40807 
Q 141.70076 71.122432 140.398974 73.587515 
Q 139.097188 76.052599 136.992173 77.382082 
L 130.012386 80.927371 
M 134.388602 87.685578 
L 135.5519 92.006398 
M 142.365502 85.026611 
Q 141.091413 91.175471 132.228191 94.997736 
L 128.073556 96.161033 
M 133.72386 85.192796 
L 143.030243 85.026611 
M 134.388602 82.53383 
L 134.388602 83.032386 
Q 134.388602 84.140289 133.83465 85.054309 
Q 133.280699 85.968328 132.338982 86.882348 
Q 131.397264 87.796368 131.064894 88.350319 
L 130.566337 88.848875 
M 133.72386 71.233222 
L 134.056231 71.233222 
Q 134.333207 71.233222 134.582485 71.510198 
Q 134.831763 71.787173 135.081041 72.202637 
Q 135.330319 72.6181 135.385714 72.728891 
L 136.715198 74.889301 
M 132.560562 69.737553 
L 138.044681 69.571368 
L 142.033131 69.238997 
M 133.391489 66.746216 
Q 133.446884 67.133982 133.197606 67.854119 
Q 132.948328 68.574255 132.892933 68.740441 
Q 132.505167 70.900851 131.56345 72.39652 
M 114.501748 84.860426 
L 115.000304 84.860426 
L 116.662158 84.860426 
L 123.808131 84.195684 
M 115.831231 77.215897 
L 117.3269 77.215897 
L 123.752736 76.551155 
L 123.58655 85.026611 
M 115.831231 76.883526 
L 115.831231 85.192796 
M 115.775836 71.731778 
L 119.431915 71.731778 
Q 120.595213 71.731778 122.949506 71.316315 
Q 125.303799 70.900851 126.245517 70.900851 
Q 126.522492 70.900851 126.993351 70.734666 
Q 127.46421 70.56848 127.575 70.56848 
Q 128.018161 71.620988 127.796581 75.055486 
Q 127.796581 76.440365 127.851976 79.099331 
Q 127.907371 81.758298 127.879673 83.863313 
Q 127.851976 85.968328 127.575 87.851763 
Q 127.519605 88.738085 127.159536 90.344544 
Q 126.799468 91.951003 126.744073 92.837325 
Q 126.688678 94.111413 125.913146 95.717872 
Q 125.137614 97.324331 124.085106 97.324331 
Q 123.36497 97.324331 122.838716 97.075053 
Q 122.312462 96.825775 121.758511 96.354916 
Q 121.204559 95.884058 120.761398 95.662477 
L 120.429027 94.83155 
M 117.770061 66.58003 
Q 117.43769 67.300167 116.662158 69.017416 
Q 115.886626 70.734666 115.194187 72.008754 
Q 114.501748 73.282842 113.781611 74.390745 
L 112.119757 76.883526 
" clip-path="url(#p10cebe103a)" style="fill: none; stroke: #000000; stroke-linejoin: miter"/>
   </g>
  </g>
 </g>
 <defs>
  <clipPath id="p4fb8e35f67">
   <rect x="0" y="42.51683" width="36.45" height="76.15634"/>
  </clipPath>
  <clipPath id="pb98e4b291e">
   <rect x="36.45" y="42.680725" width="36.45" height="75.828551"/>
  </clipPath>
  <clipPath id="p909f20c8d5">
   <rect x="72.9" y="43.164051" width="36.45" height="74.861898"/>
  </clipPath>
  <clipPath id="p10cebe103a">
   <rect x="109.35" y="40.433526" width="36.45" height="80.322948"/>
  </clipPath>
 </defs>
</svg>
