<?xml version="1.0" encoding="utf-8" standalone="no"?>
<!DOCTYPE svg PUBLIC "-//W3C//DTD SVG 1.1//EN"
  "http://www.w3.org/Graphics/SVG/1.1/DTD/svg11.dtd">
<svg xmlns:xlink="http://www.w3.org/1999/xlink" width="234pt" height="72pt" viewBox="0 0 234 72" xmlns="http://www.w3.org/2000/svg" version="1.1">
 <metadata>
  <rdf:RDF xmlns:dc="http://purl.org/dc/elements/1.1/" xmlns:cc="http://creativecommons.org/ns#" xmlns:rdf="http://www.w3.org/1999/02/22-rdf-syntax-ns#">
   <cc:Work>
    <dc:type rdf:resource="http://purl.org/dc/dcmitype/StillImage"/>
    <dc:date>2023-02-15T22:59:20.993404</dc:date>
    <dc:format>image/svg+xml</dc:format>
    <dc:creator>
     <cc:Agent>
      <dc:title>Matplotlib v3.6.1, https://matplotlib.org/</dc:title>
     </cc:Agent>
    </dc:creator>
   </cc:Work>
  </rdf:RDF>
 </metadata>
 <defs>
  <style type="text/css">*{stroke-linejoin: round; stroke-linecap: butt}</style>
 </defs>
 <g id="figure_1">
  <g id="patch_1">
   <path d="M 0 72 
L 234 72 
L 234 0 
L 0 0 
z
" style="fill: #8fff9f"/>
  </g>
  <g id="axes_1">
   <g id="patch_2">
    <path d="M 11.699007 34.920248 
Q 10.836745 36.007448 7.725103 40.018841 
Q 4.613462 44.030234 2.926428 46.054676 
M 3.826179 36.044938 
Q 5.700662 37.319586 8.193724 40.843614 
Q 10.686786 44.367641 12.261352 45.6048 
L 13.273572 45.942207 
" clip-path="url(#p5034ae4f64)" style="fill: none; stroke: #000000; stroke-linejoin: miter"/>
   </g>
  </g>
  <g id="axes_2">
   <g id="patch_3">
    <path d="M 22.013131 30.384 
L 25.274731 34.657821 
M 24.937324 37.019669 
L 24.674897 41.743366 
Q 24.787366 42.268221 24.918579 43.749062 
Q 25.049793 45.229903 25.3872 46.1484 
Q 25.724607 47.066897 26.586869 47.591752 
" clip-path="url(#p45fa0c7c9a)" style="fill: none; stroke: #000000; stroke-linejoin: miter"/>
   </g>
  </g>
  <g id="axes_3">
   <g id="patch_4">
    <path d="M 36.957228 37.244607 
Q 38.006938 37.207117 38.194386 37.132138 
Q 41.605945 37.132138 43.386703 39.212814 
Q 45.167462 41.29349 45.167462 44.780028 
Q 45.167462 47.704221 40.556234 47.704221 
Q 39.91891 47.704221 39.37531 47.591752 
Q 38.83171 47.479283 38.194386 47.254345 
Q 37.557062 47.029407 37.069697 46.916938 
L 35.832538 45.679779 
M 36.844759 25.435366 
L 36.844759 26.560055 
Q 36.844759 29.409269 36.957228 33.008276 
Q 37.069697 36.607283 37.257145 40.899848 
Q 37.444593 45.192414 37.519572 47.141876 
" clip-path="url(#paf7f5734a4)" style="fill: none; stroke: #000000; stroke-linejoin: miter"/>
   </g>
  </g>
  <g id="axes_4">
   <g id="patch_5">
    <path d="M 51.432703 35.332634 
L 61.779848 35.332634 
M 60.992566 39.344028 
Q 60.992566 39.344028 58.068372 39.344028 
Q 51.095297 39.344028 51.095297 44.5176 
Q 51.095297 46.279614 52.85731 47.19811 
Q 54.619324 48.116607 56.606276 48.116607 
Q 57.843434 47.891669 58.649462 47.2356 
Q 59.45549 46.579531 59.811641 45.586055 
Q 60.167793 44.592579 60.336497 43.674083 
Q 60.5052 42.755586 60.655159 41.443448 
Q 60.805117 40.13131 60.992566 39.344028 
Q 62.079766 46.092166 62.192234 47.029407 
L 62.304703 48.154097 
" clip-path="url(#p9baa0093a8)" style="fill: none; stroke: #000000; stroke-linejoin: miter"/>
   </g>
  </g>
  <g id="axes_5">
   <g id="patch_6">
    <path d="M 76.1616 35.032717 
Q 75.11189 34.582841 74.137159 34.69531 
Q 71.100497 35.032717 69.188524 36.701007 
Q 67.276552 38.369297 67.276552 41.330979 
Q 67.276552 43.917766 69.282248 45.6048 
Q 71.287945 47.291834 73.912221 47.291834 
Q 76.274069 47.291834 77.398759 45.361117 
Q 78.523448 43.4304 78.523448 40.881103 
Q 78.523448 39.643945 78.111062 38.706703 
Q 77.698676 37.769462 77.173821 37.300841 
Q 76.648966 36.832221 75.899172 36.119917 
Q 75.149379 35.407614 74.699503 34.69531 
L 73.462345 34.245434 
" clip-path="url(#p6f6b7dc1be)" style="fill: none; stroke: #000000; stroke-linejoin: miter"/>
   </g>
  </g>
  <g id="axes_6"/>
  <g id="axes_7">
   <g id="patch_7">
    <path d="M 105.656152 30.309021 
Q 105.168786 30.42149 105.581172 30.833876 
Q 105.956069 31.208772 106.031048 30.946345 
Q 106.068538 30.871366 105.993559 30.646428 
Q 105.993559 30.458979 105.918579 30.42149 
Q 105.8436 30.384 105.712386 30.42149 
Q 105.581172 30.458979 105.431214 30.42149 
L 105.318745 30.646428 
M 106.218497 33.345683 
Q 107.268207 37.731972 107.793062 40.13131 
Q 108.317917 42.530648 108.767793 46.317103 
Q 109.217669 50.103559 109.030221 53.25269 
Q 109.030221 53.440138 109.030221 54.021228 
Q 109.030221 54.602317 109.030221 54.902234 
Q 109.030221 55.202152 109.011476 55.783241 
Q 108.992731 56.364331 108.917752 56.701738 
Q 108.842772 57.039145 108.730303 57.52651 
Q 108.617834 58.013876 108.411641 58.313793 
Q 108.205448 58.61371 107.943021 58.894883 
Q 107.680593 59.176055 107.305697 59.307269 
Q 106.9308 59.438483 106.443434 59.438483 
Q 105.468703 59.438483 104.71891 59.251034 
Q 103.969117 59.063586 103.106855 58.707434 
Q 102.244593 58.351283 101.607269 58.201324 
L 101.382331 57.751448 
" clip-path="url(#pbd662c70e6)" style="fill: none; stroke: #000000; stroke-linejoin: miter"/>
   </g>
  </g>
  <g id="axes_8">
   <g id="patch_8">
    <path d="M 118.763255 30.608938 
Q 119.887945 31.096303 121.312552 32.989531 
Q 122.737159 34.882759 123.262014 35.332634 
M 117.563586 38.706703 
Q 117.413628 38.819172 117.394883 39.025366 
Q 117.376138 39.231559 117.413628 39.475241 
Q 117.451117 39.718924 117.451117 39.831393 
Q 117.451117 40.993572 117.601076 42.155752 
Q 117.751034 43.317931 118.125931 44.742538 
Q 118.500828 46.167145 119.36309 47.048152 
Q 120.225352 47.929159 121.5 47.929159 
Q 122.887117 47.404303 123.505697 45.848483 
Q 124.124276 44.292662 124.367959 41.649641 
Q 124.611641 39.006621 124.7616 38.369297 
Q 125.248966 45.267393 125.286455 46.392083 
L 125.623862 48.079117 
" clip-path="url(#pdcfe50333e)" style="fill: none; stroke: #000000; stroke-linejoin: miter"/>
   </g>
  </g>
  <g id="axes_9">
   <g id="patch_9">
    <path d="M 132.563917 36.382345 
Q 132.526428 36.494814 132.657641 36.701007 
Q 132.788855 36.9072 132.676386 37.057159 
L 132.676386 39.306538 
Q 132.676386 40.506207 133.013793 41.724621 
Q 133.3512 42.943034 134.213462 43.93651 
Q 135.075724 44.929986 136.275393 44.929986 
Q 137.512552 44.929986 138.187366 43.861531 
Q 138.862179 42.793076 139.312055 41.143531 
Q 139.761931 39.493986 140.099338 38.969131 
L 140.886621 36.382345 
L 140.661683 42.680607 
L 140.661683 45.154924 
Q 140.661683 47.066897 141.392731 51.00331 
Q 142.123779 54.939724 142.123779 56.964166 
Q 142.873572 59.213545 141.786372 60.188276 
Q 140.699172 61.163007 138.637241 60.78811 
Q 136.837738 60.488193 135.919241 60.169531 
Q 135.000745 59.850869 133.013793 58.988607 
L 132.901324 58.426262 
" clip-path="url(#p52064bd6b0)" style="fill: none; stroke: #000000; stroke-linejoin: miter"/>
   </g>
  </g>
  <g id="axes_10">
   <g id="patch_10">
    <path d="M 149.232538 32.220993 
Q 151.107021 36.119917 153.843766 36.044938 
Q 154.256152 36.082428 154.612303 35.85749 
Q 154.968455 35.632552 155.174648 35.370124 
Q 155.380841 35.107697 155.549545 34.601586 
Q 155.718248 34.095476 155.793228 33.814303 
Q 155.868207 33.533131 155.980676 32.970786 
Q 156.093145 32.408441 156.093145 32.333462 
M 156.618 38.519255 
Q 155.455821 38.144359 153.018993 38.181848 
Q 150.919572 38.181848 149.607434 39.344028 
Q 148.295297 40.506207 148.295297 42.568138 
Q 148.295297 45.117434 150.357228 46.766979 
Q 152.419159 48.416524 155.043434 48.416524 
Q 156.955407 48.416524 158.023862 47.291834 
Q 159.092317 46.167145 159.092317 44.255172 
Q 159.504703 42.155752 158.342524 40.318759 
Q 157.180345 38.481766 155.155903 37.844441 
" clip-path="url(#p27d5b65c88)" style="fill: none; stroke: #000000; stroke-linejoin: miter"/>
   </g>
  </g>
  <g id="axes_11">
   <g id="patch_11">
    <path d="M 165.488772 35.145186 
Q 165.488772 35.145186 165.488772 35.595062 
Q 165.488772 36.269876 165.376303 37.619503 
Q 165.263834 38.969131 165.263834 39.643945 
Q 165.263834 41.930814 166.500993 43.599103 
Q 167.738152 45.267393 169.875062 45.267393 
Q 171.262179 45.154924 172.030717 43.917766 
Q 172.799255 42.680607 172.949214 41.237255 
Q 173.099172 39.793903 173.3616 37.9944 
Q 173.624028 36.194897 174.036414 35.370124 
Q 174.186372 35.070207 174.186372 35.670041 
Q 174.186372 36.269876 173.923945 38.706703 
Q 173.699007 41.031062 173.699007 41.555917 
Q 173.549048 42.643117 173.886455 43.767807 
Q 174.223862 44.892497 174.936166 45.6048 
" clip-path="url(#pda03120bbe)" style="fill: none; stroke: #000000; stroke-linejoin: miter"/>
   </g>
  </g>
  <g id="axes_12">
   <g id="patch_12">
    <path d="M 185.906359 28.621986 
Q 186.131297 30.34651 186.206276 32.146014 
Q 186.281255 33.945517 186.26251 36.551048 
Q 186.243766 39.156579 186.243766 40.093821 
Q 186.243766 40.13131 186.468703 45.829738 
L 186.693641 46.841959 
" clip-path="url(#pce1a233c25)" style="fill: none; stroke: #000000; stroke-linejoin: miter"/>
   </g>
  </g>
  <g id="axes_13">
   <g id="patch_13">
    <path d="M 196.257798 38.160826 
Q 199.230275 39.535596 203.949083 39.721376 
Q 205.472477 39.721376 206.159862 38.550963 
Q 206.847248 37.38055 206.847248 35.82 
Q 206.847248 35.299817 206.754358 34.909679 
Q 206.661468 34.519541 206.419954 34.296606 
Q 206.17844 34.07367 206.011239 33.943624 
Q 205.844037 33.813578 205.398165 33.757844 
Q 204.952294 33.70211 204.747936 33.683532 
Q 204.543578 33.664954 203.967661 33.683532 
Q 203.391743 33.70211 203.168807 33.70211 
Q 201.125229 33.70211 199.638991 35.578486 
Q 198.152752 37.454862 198.152752 39.609908 
Q 198.152752 42.619541 200.084862 44.570229 
Q 202.016972 46.520917 205.063761 46.520917 
Q 207.218807 46.818165 208.742202 44.29156 
" clip-path="url(#p1abc9b7709)" style="fill: none; stroke: #000000; stroke-linejoin: miter"/>
   </g>
  </g>
 </g>
 <defs>
  <clipPath id="p5034ae4f64">
   <rect x="1.051945" y="8.64" width="14.09611" height="54.36"/>
  </clipPath>
  <clipPath id="p45fa0c7c9a">
   <rect x="20.138648" y="8.64" width="8.322703" height="54.36"/>
  </clipPath>
  <clipPath id="paf7f5734a4">
   <rect x="33.958055" y="8.64" width="13.08389" height="54.36"/>
  </clipPath>
  <clipPath id="p9baa0093a8">
   <rect x="49.220814" y="8.64" width="14.958372" height="54.36"/>
  </clipPath>
  <clipPath id="p6f6b7dc1be">
   <rect x="65.402069" y="8.64" width="14.995862" height="54.36"/>
  </clipPath>
  <clipPath id="pbd662c70e6">
   <rect x="99.507848" y="8.64" width="11.584303" height="54.36"/>
  </clipPath>
  <clipPath id="pdcfe50333e">
   <rect x="115.501655" y="8.64" width="11.99669" height="54.36"/>
  </clipPath>
  <clipPath id="p52064bd6b0">
   <rect x="130.651945" y="8.64" width="14.09611" height="54.36"/>
  </clipPath>
  <clipPath id="p27d5b65c88">
   <rect x="146.420814" y="8.64" width="14.958372" height="54.36"/>
  </clipPath>
  <clipPath id="pda03120bbe">
   <rect x="163.389352" y="8.64" width="13.421297" height="54.36"/>
  </clipPath>
  <clipPath id="pce1a233c25">
   <rect x="184.031876" y="8.64" width="4.536248" height="54.36"/>
  </clipPath>
  <clipPath id="p1abc9b7709">
   <rect x="194.4" y="8.881927" width="16.2" height="53.876147"/>
  </clipPath>
 </defs>
</svg>
