<?xml version="1.0" encoding="utf-8" standalone="no"?>
<!DOCTYPE svg PUBLIC "-//W3C//DTD SVG 1.1//EN"
  "http://www.w3.org/Graphics/SVG/1.1/DTD/svg11.dtd">
<svg xmlns:xlink="http://www.w3.org/1999/xlink" width="108pt" height="72pt" viewBox="0 0 108 72" xmlns="http://www.w3.org/2000/svg" version="1.1">
 <metadata>
  <rdf:RDF xmlns:dc="http://purl.org/dc/elements/1.1/" xmlns:cc="http://creativecommons.org/ns#" xmlns:rdf="http://www.w3.org/1999/02/22-rdf-syntax-ns#">
   <cc:Work>
    <dc:type rdf:resource="http://purl.org/dc/dcmitype/StillImage"/>
    <dc:date>2023-02-15T22:59:34.152519</dc:date>
    <dc:format>image/svg+xml</dc:format>
    <dc:creator>
     <cc:Agent>
      <dc:title>Matplotlib v3.6.1, https://matplotlib.org/</dc:title>
     </cc:Agent>
    </dc:creator>
   </cc:Work>
  </rdf:RDF>
 </metadata>
 <defs>
  <style type="text/css">*{stroke-linejoin: round; stroke-linecap: butt}</style>
 </defs>
 <g id="figure_1">
  <g id="patch_1">
   <path d="M 0 72 
L 108 72 
L 108 0 
L 0 0 
z
" style="fill: #8fff9f"/>
  </g>
  <g id="axes_1">
   <g id="patch_2">
    <path d="M 6.131793 37.169628 
Q 8.156234 39.194069 9.918248 41.76211 
Q 11.680262 44.330152 12.542524 46.72949 
M 9.168455 31.321241 
L 9.168455 31.546179 
Q 9.168455 32.333462 8.531131 33.514386 
Q 7.893807 34.69531 6.919076 36.101172 
Q 5.944345 37.507034 5.681917 37.95691 
L 4.444759 39.643945 
M 3.657476 26.710014 
Q 5.494469 36.269876 5.681917 48.641462 
" clip-path="url(#p811236074d)" style="fill: none; stroke: #000000; stroke-linejoin: miter"/>
   </g>
  </g>
  <g id="axes_2">
   <g id="patch_3">
    <path d="M 19.032703 35.332634 
L 29.379848 35.332634 
M 28.592566 39.344028 
Q 28.592566 39.344028 25.668372 39.344028 
Q 18.695297 39.344028 18.695297 44.5176 
Q 18.695297 46.279614 20.45731 47.19811 
Q 22.219324 48.116607 24.206276 48.116607 
Q 25.443434 47.891669 26.249462 47.2356 
Q 27.05549 46.579531 27.411641 45.586055 
Q 27.767793 44.592579 27.936497 43.674083 
Q 28.1052 42.755586 28.255159 41.443448 
Q 28.405117 40.13131 28.592566 39.344028 
Q 29.679766 46.092166 29.792234 47.029407 
L 29.904703 48.154097 
" clip-path="url(#p8d16446e13)" style="fill: none; stroke: #000000; stroke-linejoin: miter"/>
   </g>
  </g>
  <g id="axes_3">
   <g id="patch_4">
    <path d="M 41.118579 29.071862 
Q 40.743683 29.146841 40.612469 29.577972 
Q 40.481255 30.009103 40.556234 30.42149 
Q 40.556234 30.571448 40.593724 30.702662 
Q 40.631214 30.833876 40.687448 30.89011 
Q 40.743683 30.946345 40.799917 31.040069 
Q 40.856152 31.133793 40.893641 31.208772 
L 41.00611 29.859145 
M 41.00611 34.020497 
Q 40.106359 39.006621 39.881421 42.793076 
L 40.331297 45.379862 
L 40.668703 46.054676 
" clip-path="url(#p4b70aaf9cd)" style="fill: none; stroke: #000000; stroke-linejoin: miter"/>
   </g>
  </g>
  <g id="axes_4">
   <g id="patch_5">
    <path d="M 52.257476 43.917766 
Q 52.557393 44.180193 53.569614 45.154924 
Q 54.581834 46.129655 55.144179 46.560786 
Q 55.706524 46.991917 56.73749 47.385559 
Q 57.768455 47.7792 58.780676 47.629241 
Q 59.45549 47.629241 59.92411 47.404303 
Q 60.392731 47.179366 60.617669 46.879448 
Q 60.842607 46.579531 60.973821 45.979697 
Q 61.105034 45.379862 61.123779 44.967476 
Q 61.142524 44.55509 61.142524 43.805297 
Q 61.142524 42.718097 60.242772 42.043283 
Q 59.343021 41.368469 58.049628 41.031062 
Q 56.756234 40.693655 55.462841 40.300014 
Q 54.169448 39.906372 53.269697 38.987876 
Q 52.369945 38.069379 52.369945 36.607283 
Q 52.369945 36.082428 52.538648 35.726276 
Q 52.707352 35.370124 53.100993 35.145186 
Q 53.494634 34.920248 53.775807 34.807779 
Q 54.056979 34.69531 54.713048 34.639076 
Q 55.369117 34.582841 55.556566 34.582841 
Q 55.744014 34.582841 56.418828 34.582841 
Q 57.618497 34.582841 58.199586 34.995228 
Q 58.780676 35.407614 59.099338 36.026193 
Q 59.418 36.644772 59.680428 36.832221 
" clip-path="url(#p2701415f09)" style="fill: none; stroke: #000000; stroke-linejoin: miter"/>
   </g>
  </g>
  <g id="axes_5">
   <g id="patch_6">
    <path d="M 69.413462 35.932469 
Q 70.013297 35.257655 71.006772 34.826524 
Q 72.000248 34.395393 72.9 34.470372 
Q 73.537324 34.470372 74.02469 34.639076 
Q 74.512055 34.807779 74.830717 34.995228 
Q 75.149379 35.182676 75.374317 35.670041 
Q 75.599255 36.157407 75.711724 36.419834 
Q 75.824193 36.682262 75.880428 37.375821 
Q 75.936662 38.069379 75.955407 38.331807 
Q 75.974152 38.594234 75.955407 39.419007 
Q 75.936662 40.243779 75.936662 40.431228 
Q 75.936662 41.368469 75.767959 43.242952 
Q 75.599255 45.117434 75.599255 46.054676 
Q 75.599255 46.467062 75.65549 46.823214 
Q 75.711724 47.179366 75.805448 47.610497 
Q 75.899172 48.041628 75.936662 48.304055 
L 76.386538 48.528993 
M 69.863338 23.111007 
Q 70.088276 24.798041 70.088276 29.971614 
L 70.088276 42.3432 
L 69.750869 46.841959 
L 69.525931 47.74171 
" clip-path="url(#p630865a768)" style="fill: none; stroke: #000000; stroke-linejoin: miter"/>
   </g>
  </g>
  <g id="axes_6">
   <g id="patch_7">
    <path d="M 86.400745 33.345683 
L 86.400745 33.570621 
Q 86.400745 34.545352 87.375476 35.969959 
Q 88.350207 37.394566 89.324938 37.394566 
Q 89.699834 37.394566 90.055986 36.9072 
Q 90.412138 36.419834 90.7308 35.726276 
Q 91.049462 35.032717 91.124441 34.920248 
L 91.799255 31.771117 
M 89.362428 39.419007 
L 88.912552 47.291834 
L 88.575145 47.74171 
" clip-path="url(#pe098badb7d)" style="fill: none; stroke: #000000; stroke-linejoin: miter"/>
   </g>
  </g>
 </g>
 <defs>
  <clipPath id="p811236074d">
   <rect x="1.782993" y="8.64" width="12.634014" height="54.36"/>
  </clipPath>
  <clipPath id="p8d16446e13">
   <rect x="16.820814" y="8.64" width="14.958372" height="54.36"/>
  </clipPath>
  <clipPath id="p4b70aaf9cd">
   <rect x="38.006938" y="8.64" width="4.986124" height="54.36"/>
  </clipPath>
  <clipPath id="p2701415f09">
   <rect x="50.382993" y="8.64" width="12.634014" height="54.36"/>
  </clipPath>
  <clipPath id="p630865a768">
   <rect x="67.538979" y="8.64" width="10.722041" height="54.36"/>
  </clipPath>
  <clipPath id="pe098badb7d">
   <rect x="84.526262" y="8.64" width="9.147476" height="54.36"/>
  </clipPath>
 </defs>
</svg>
