<?xml version="1.0" encoding="utf-8" standalone="no"?>
<!DOCTYPE svg PUBLIC "-//W3C//DTD SVG 1.1//EN"
  "http://www.w3.org/Graphics/SVG/1.1/DTD/svg11.dtd">
<svg xmlns:xlink="http://www.w3.org/1999/xlink" width="283.5pt" height="72pt" viewBox="0 0 283.5 72" xmlns="http://www.w3.org/2000/svg" version="1.1">
 <metadata>
  <rdf:RDF xmlns:dc="http://purl.org/dc/elements/1.1/" xmlns:cc="http://creativecommons.org/ns#" xmlns:rdf="http://www.w3.org/1999/02/22-rdf-syntax-ns#">
   <cc:Work>
    <dc:type rdf:resource="http://purl.org/dc/dcmitype/StillImage"/>
    <dc:date>2023-02-05T10:36:40.388674</dc:date>
    <dc:format>image/svg+xml</dc:format>
    <dc:creator>
     <cc:Agent>
      <dc:title>Matplotlib v3.6.1, https://matplotlib.org/</dc:title>
     </cc:Agent>
    </dc:creator>
   </cc:Work>
  </rdf:RDF>
 </metadata>
 <defs>
  <style type="text/css">*{stroke-linejoin: round; stroke-linecap: butt}</style>
 </defs>
 <g id="figure_1">
  <g id="patch_1">
   <path d="M 0 72 
L 283.5 72 
L 283.5 0 
L 0 0 
z
" style="fill: #8fff9f"/>
  </g>
  <g id="axes_1">
   <g id="patch_2">
    <path d="M 18.312837 41.104467 
Q 19.044021 41.237409 20.80551 41.187556 
Q 22.566999 41.137702 23.298183 41.403587 
L 26.688218 41.30388 
M 17.914009 34.257925 
Q 20.406682 33.659683 26.222919 33.22762 
Q 26.322626 33.22762 26.355862 33.22762 
Q 26.355862 33.393798 26.422333 33.526741 
L 26.089977 40.406518 
L 25.890563 41.204174 
M 17.914009 33.46027 
L 17.914009 34.457339 
Q 17.914009 35.354701 18.080188 36.318535 
Q 18.246366 37.282368 18.312837 37.913845 
L 18.21313 42.001829 
M 14.823095 30.86789 
Q 14.823095 30.934361 14.823095 31.034068 
Q 14.823095 31.133775 14.823095 31.216864 
Q 14.823095 31.299953 14.823095 31.366424 
Q 14.424267 33.260856 13.842644 34.806313 
Q 13.26102 36.35177 12.679396 37.332222 
Q 12.097773 38.312673 11.133939 39.293124 
Q 10.170106 40.273576 9.488775 40.821964 
Q 8.807444 41.370352 7.561108 42.317567 
Q 6.314771 43.264783 5.550352 43.89626 
L 1.661782 45.757456 
M 1.960903 33.958804 
L 2.35973 33.958804 
Q 3.257093 33.958804 4.237544 33.892333 
Q 5.217995 33.825862 6.39786 33.709537 
Q 7.577726 33.593212 8.242438 33.559977 
L 14.623681 33.028206 
M 11.034232 26.846377 
Q 10.435991 27.943154 9.422304 30.10347 
Q 8.408617 32.263787 7.478019 33.99204 
Q 6.547421 35.720293 5.583587 37.082954 
Q 5.583587 37.88061 8.524941 40.040926 
Q 11.466295 42.201243 13.393962 43.331254 
L 15.919871 45.558042 
" clip-path="url(#pb5a409e2f7)" style="fill: none; stroke: #000000; stroke-linejoin: miter"/>
   </g>
  </g>
  <g id="axes_2">
   <g id="patch_3">
    <path d="M 48.916986 29.371779 
L 49.029455 47.81669 
Q 49.366862 49.016359 49.366862 49.053848 
L 48.129703 48.491503 
L 45.430448 47.254345 
M 38.007497 30.384 
Q 42.243828 29.221821 45.20551 29.484248 
L 54.090559 28.584497 
M 37.67009 41.405959 
Q 37.970007 41.368469 38.551097 41.124786 
Q 39.132186 40.881103 39.469593 40.843614 
L 44.980572 39.831393 
M 37.67009 34.77029 
Q 37.707579 34.69531 37.782559 34.639076 
Q 37.857538 34.582841 37.988752 34.564097 
Q 38.119966 34.545352 38.21369 34.545352 
Q 38.307414 34.545352 38.457372 34.545352 
Q 38.607331 34.545352 38.68231 34.545352 
Q 38.832269 34.545352 39.094697 34.545352 
Q 39.357124 34.545352 39.525828 34.545352 
Q 39.694531 34.545352 39.900724 34.489117 
Q 40.106917 34.432883 40.256876 34.320414 
Q 40.556793 34.095476 42.037634 33.926772 
Q 43.518476 33.758069 44.1558 33.758069 
Q 44.343248 33.758069 44.436972 33.776814 
Q 44.530697 33.795559 44.549441 33.833048 
Q 44.568186 33.870538 44.605676 33.908028 
Q 44.643166 33.945517 44.718145 33.983007 
L 44.11831 39.943862 
M 37.67009 34.207945 
L 37.67009 41.068552 
M 34.33351 31.321241 
Q 34.371 31.396221 34.33351 31.452455 
Q 34.296021 31.50869 34.221041 31.564924 
Q 34.146062 31.621159 34.108572 31.658648 
L 33.996103 48.8664 
M 35.908076 26.147669 
Q 34.371 29.934124 33.32129 32.220993 
Q 33.096352 32.708359 32.758945 33.176979 
Q 32.421538 33.6456 31.971662 34.1892 
Q 31.521786 34.7328 31.296848 35.032717 
L 30.959441 35.370124 
" clip-path="url(#p3fd65d8aca)" style="fill: none; stroke: #000000; stroke-linejoin: miter"/>
   </g>
  </g>
  <g id="axes_3">
   <g id="patch_4">
    <path d="M 61.220089 37.917321 
Q 63.172768 38.134286 65.071205 39.038304 
Q 66.969643 39.942321 68.36183 41.135625 
Q 69.754018 42.328929 71.345089 43.666875 
Q 72.936161 45.004821 74.364509 46.071563 
Q 75.792857 47.138304 77.691295 47.789196 
Q 79.589732 48.440089 81.614732 48.295446 
Q 82.699554 48.367768 83.241964 47.861518 
M 65.053125 33.433393 
L 66.246429 33.433393 
L 71.815179 32.710179 
L 73.550893 32.746339 
M 63.389732 37.121786 
L 70.224107 36.579375 
L 75.322768 36.470893 
M 60.894643 30.178929 
L 62.196429 30.178929 
Q 64.691518 30.178929 69.464732 29.311071 
Q 74.237946 28.443214 76.516071 28.443214 
Q 76.479911 28.443214 74.997321 34.192768 
L 74.780357 36.362411 
M 61.654018 30.178929 
Q 61.726339 30.612857 61.870982 31.028705 
Q 62.015625 31.444554 62.341071 32.113527 
Q 62.666518 32.7825 62.738839 32.890982 
L 63.498214 36.036964 
L 63.606696 37.230268 
M 62.630357 26.743661 
Q 67.475893 26.128929 71.417411 26.20125 
L 74.780357 25.658839 
M 68.705357 26.526696 
Q 69.464732 28.334732 69.35625 35.928482 
Q 69.717857 38.965982 68.235268 41.732277 
Q 66.752679 44.498571 64.131027 46.198125 
Q 61.509375 47.897679 58.508036 48.186964 
" clip-path="url(#pd5d74340cf)" style="fill: none; stroke: #000000; stroke-linejoin: miter"/>
   </g>
  </g>
  <g id="axes_4">
   <g id="patch_5">
    <path d="M 97.850269 37.194731 
L 98.125216 37.194731 
Q 99.774892 37.194731 101.653691 36.965609 
Q 103.532489 36.736487 105.808432 36.354617 
Q 108.084375 35.972748 109.306358 35.82 
L 111.872522 35.728351 
M 103.165894 31.420862 
L 103.165894 31.879106 
Q 104.021282 33.742629 104.265679 36.094946 
Q 104.510075 38.447263 104.494801 41.273098 
Q 104.479526 44.098933 104.693373 45.656961 
Q 104.815571 46.512349 104.326778 46.4207 
Q 103.929634 46.298502 102.463254 44.923772 
Q 102.06611 44.557177 101.943912 44.496078 
M 100.141487 28.02986 
L 108.114925 27.235571 
Q 108.267672 27.174472 108.542619 27.052274 
Q 108.817565 26.930075 109.046686 26.853702 
Q 109.275808 26.777328 109.489655 26.777328 
Q 109.12306 27.754914 108.038551 28.686676 
Q 106.954041 29.618438 105.57931 30.534925 
Q 104.20458 31.451412 103.624138 32.062403 
M 97.11708 30.962619 
Q 96.750485 34.536918 95.29938 37.805722 
Q 93.848276 41.074526 91.159914 43.243545 
L 87.86056 45.259817 
M 86.577478 33.620431 
L 89.051994 33.620431 
Q 90.243427 33.620431 91.541783 33.544057 
Q 92.84014 33.467683 94.413443 33.345485 
Q 95.986746 33.223287 96.842134 33.162188 
M 93.909375 27.479968 
L 93.084537 29.587888 
Q 92.595744 30.626573 91.587608 32.902516 
Q 90.579472 35.178459 89.968481 36.369892 
Q 89.510237 37.25583 89.510237 37.469677 
Q 93.237284 40.616282 99.591595 44.709925 
" clip-path="url(#p1f050d617f)" style="fill: none; stroke: #000000; stroke-linejoin: miter"/>
   </g>
  </g>
  <g id="axes_5">
   <g id="patch_6">
    <path d="M 130.621963 27.109661 
Q 130.588843 27.308376 130.621963 27.507091 
Q 130.621963 27.54021 130.920035 29.991028 
L 130.72132 40.820993 
M 123.567582 36.482383 
Q 123.567582 36.482383 124.064369 36.482383 
Q 125.521612 36.482383 127.326606 35.853119 
Q 129.1316 35.223855 130.539165 34.478674 
Q 131.946729 33.733493 133.668925 33.104229 
Q 135.391121 32.474965 136.749007 32.474965 
Q 135.755432 37.277243 135.755432 38.734486 
Q 135.85479 39.396869 135.424241 39.396869 
Q 135.126168 39.36375 134.26507 38.866963 
Q 133.503329 38.469533 133.271495 38.436414 
M 126.448949 32.27625 
L 126.647664 39.032558 
L 127.310047 42.178879 
Q 127.409404 42.311355 127.608119 42.675666 
Q 127.806834 43.039977 128.022109 43.30493 
Q 128.237383 43.569883 128.502336 43.70236 
Q 129.197839 44.166028 130.092056 44.381303 
Q 130.986273 44.596577 132.178563 44.695935 
Q 133.370853 44.795292 134.000117 44.927769 
Q 134.960572 45.126484 136.053505 45.060245 
Q 137.146437 44.994007 138.040654 44.762173 
Q 138.934871 44.530339 139.514457 43.785158 
Q 140.094042 43.039977 140.060923 41.847687 
M 115.055958 42.443832 
L 115.453388 42.443832 
Q 116.54632 42.443832 117.705491 42.1292 
Q 118.864661 41.814568 120.222547 41.284661 
Q 121.580432 40.754755 122.309054 40.55604 
L 123.898773 39.959895 
M 115.917056 36.283668 
Q 116.612558 36.151192 118.732185 35.339772 
Q 120.851811 34.528353 122.07722 34.495234 
M 119.69264 29.825432 
L 119.69264 41.152185 
" clip-path="url(#p7d645ff5f3)" style="fill: none; stroke: #000000; stroke-linejoin: miter"/>
   </g>
  </g>
  <g id="axes_6">
   <g id="patch_7">
    <path d="M 155.070226 34.858379 
Q 156.601696 34.252915 159.771482 34.057029 
Q 162.941269 33.861143 164.365892 33.433756 
L 168.319221 32.828291 
M 162.228957 27.592802 
Q 162.37142 28.127035 162.317996 29.818775 
Q 162.264573 31.510515 162.656344 32.080364 
L 162.763191 46.29098 
M 158.809862 28.447575 
Q 158.774246 28.803731 158.809862 29.195503 
Q 158.809862 31.22559 158.738631 32.472136 
Q 158.667399 33.718681 158.364667 35.392613 
Q 158.061935 37.066545 157.314008 38.437745 
Q 156.56608 39.808945 155.390766 40.948643 
L 154.215452 41.803417 
M 156.779774 28.661269 
L 157.207161 28.661269 
Q 158.09755 28.661269 159.094786 28.518807 
Q 160.092023 28.376344 161.32076 28.144843 
Q 162.549497 27.913342 163.190578 27.806495 
L 165.327513 27.592802 
M 146.629334 37.67201 
L 152.327827 37.458317 
L 153.075754 37.35147 
M 146.522487 32.721445 
L 151.686746 32.294058 
L 152.86206 32.080364 
L 152.327827 37.778857 
M 146.095101 33.041985 
Q 146.486872 33.220063 146.718373 33.825528 
Q 146.949874 34.430992 147.14576 35.321382 
Q 147.341646 36.211771 147.484108 36.603543 
M 148.552575 28.768116 
Q 146.486872 33.113216 144.706093 35.392613 
Q 144.528015 35.748769 144.08282 36.336426 
Q 143.637626 36.924083 143.530779 37.102161 
M 145.347173 28.874962 
L 146.949874 28.874962 
Q 150.262123 28.910578 153.040138 28.340729 
" clip-path="url(#p784f094bf3)" style="fill: none; stroke: #000000; stroke-linejoin: miter"/>
   </g>
  </g>
  <g id="axes_7">
   <g id="patch_8">
    <path d="M 176.645855 38.294317 
Q 177.545607 38.294317 179.270131 37.750717 
Q 180.994655 37.207117 181.819428 37.169628 
L 186.918021 35.932469 
Q 186.918021 37.169628 186.111993 40.037586 
Q 185.305966 42.905545 185.305966 44.330152 
Q 185.305966 44.855007 185.568393 45.229903 
Q 185.830821 45.6048 186.318186 45.829738 
Q 186.805552 46.054676 187.311662 46.18589 
Q 187.817772 46.317103 188.567566 46.354593 
Q 189.317359 46.392083 189.804724 46.392083 
Q 190.29209 46.392083 191.004393 46.373338 
Q 191.716697 46.354593 191.941634 46.354593 
Q 193.291262 46.617021 194.09729 45.304883 
Q 194.903317 43.992745 194.64089 42.643117 
M 181.931897 33.345683 
L 181.931897 33.795559 
Q 181.931897 35.295145 181.107124 37.319586 
Q 180.282352 39.344028 179.101428 41.612152 
Q 177.920503 43.880276 177.545607 44.892497 
L 176.533386 45.904717 
M 185.755841 31.771117 
Q 185.680862 31.621159 185.86831 31.658648 
Q 186.055759 31.658648 186.093248 31.658648 
Q 186.505634 31.846097 186.543124 31.883586 
L 188.904972 34.582841 
M 179.794986 31.43371 
Q 179.570048 31.696138 179.026448 32.202248 
Q 178.482848 32.708359 178.220421 33.008276 
L 176.308448 33.908028 
M 181.144614 25.922731 
Q 181.369552 25.847752 181.706959 26.07269 
Q 182.044366 26.297628 182.475497 26.672524 
Q 182.906628 27.047421 183.056586 27.15989 
Q 183.281524 27.1224 183.262779 27.309848 
Q 183.244034 27.497297 183.393993 27.609766 
M 174.096559 29.971614 
L 183.169055 29.746676 
L 190.592007 28.959393 
Q 191.004393 28.846924 191.041883 28.846924 
Q 191.229331 28.846924 191.248076 28.921903 
Q 191.266821 28.996883 191.266821 29.2968 
L 191.154352 29.971614 
L 190.479538 31.43371 
M 174.883841 28.059641 
L 173.646683 32.5584 
" clip-path="url(#p8fcd0065f2)" style="fill: none; stroke: #000000; stroke-linejoin: miter"/>
   </g>
  </g>
  <g id="axes_8">
   <g id="patch_9">
    <path d="M 200.166102 34.687373 
L 200.680932 34.687373 
Q 204.833898 34.344153 212.865254 34.395636 
Q 220.89661 34.447119 225.083898 34.172542 
" clip-path="url(#pd9f3fc46de)" style="fill: none; stroke: #000000; stroke-linejoin: miter"/>
   </g>
  </g>
  <g id="axes_9">
   <g id="patch_10">
    <path d="M 246.949876 25.377108 
Q 247.160136 26.638665 247.317831 27.847658 
Q 247.475525 29.05665 247.580655 30.528467 
Q 247.685785 32.000284 247.755871 32.858844 
Q 247.825958 33.717404 247.861001 35.487089 
Q 247.896044 37.256774 247.896044 37.782423 
Q 247.896044 38.308072 247.913566 40.428189 
Q 247.931088 42.548307 247.931088 42.828653 
Q 247.931088 43.108999 247.931088 44.265426 
Q 247.931088 45.421854 248.001174 46.140241 
Q 248.071261 46.858628 248.246477 47.559493 
M 241.307911 37.256774 
Q 241.658344 37.116601 242.902379 37.169166 
Q 244.146415 37.221731 244.461805 36.836255 
L 250.629419 36.836255 
L 253.397837 36.625995 
M 242.254079 29.897689 
L 243.620766 29.897689 
Q 245.968665 30.002818 250.979852 29.16178 
Q 251.049938 29.16178 251.417892 29.05665 
Q 251.785847 28.95152 251.92602 28.95152 
Q 252.101236 28.95152 252.118758 30.265643 
Q 252.136279 31.579765 252.066193 33.13919 
Q 251.996106 34.698616 251.996106 34.838789 
L 252.206366 37.046514 
M 242.674598 30.213078 
Q 242.709642 30.458381 242.849815 31.579765 
Q 242.989988 32.70115 243.130161 33.384493 
Q 243.270334 34.067837 243.515637 34.733659 
L 243.620766 36.625995 
M 235.700989 36.625995 
L 239.170272 38.308072 
M 234.754821 33.051582 
Q 234.684734 33.261842 234.386867 34.120402 
Q 234.088999 34.978962 233.983869 35.276829 
Q 233.878739 35.574697 233.580871 36.345649 
Q 233.283004 37.116601 233.072744 37.467033 
Q 232.862485 37.817466 232.512052 38.448245 
Q 232.161619 39.079023 231.811187 39.464499 
Q 231.460754 39.849975 231.005192 40.288016 
Q 230.549629 40.726057 230.02398 41.041446 
L 228.972682 41.777355 
M 228.552163 34.733659 
Q 228.727379 34.698616 229.130377 34.523399 
Q 229.533375 34.348183 229.708591 34.31314 
L 240.431829 31.159246 
L 240.852349 31.054116 
M 234.509518 28.636131 
L 234.509518 47.874883 
M 229.568418 29.582299 
Q 231.005192 28.636131 234.439431 28.355785 
Q 237.873671 28.075439 238.819839 27.795093 
L 240.817305 27.269444 
" clip-path="url(#p8ed54e0a4d)" style="fill: none; stroke: #000000; stroke-linejoin: miter"/>
   </g>
  </g>
 </g>
 <defs>
  <clipPath id="pb5a409e2f7">
   <rect x="0" y="11.724162" width="28.35" height="48.191676"/>
  </clipPath>
  <clipPath id="p3fd65d8aca">
   <rect x="29.084959" y="8.64" width="26.880083" height="54.36"/>
  </clipPath>
  <clipPath id="pd5d74340cf">
   <rect x="56.7" y="9.603482" width="28.35" height="52.433036"/>
  </clipPath>
  <clipPath id="p1f050d617f">
   <rect x="85.05" y="13.671563" width="28.35" height="44.296875"/>
  </clipPath>
  <clipPath id="p7d645ff5f3">
   <rect x="113.4" y="11.80861" width="28.35" height="48.02278"/>
  </clipPath>
  <clipPath id="p784f094bf3">
   <rect x="141.75" y="9.998706" width="28.35" height="51.642588"/>
  </clipPath>
  <clipPath id="p8fcd0065f2">
   <rect x="171.7722" y="8.64" width="25.0056" height="54.36"/>
  </clipPath>
  <clipPath id="pd9f3fc46de">
   <rect x="198.45" y="10.936525" width="28.35" height="49.766949"/>
  </clipPath>
  <clipPath id="p8ed54e0a4d">
   <rect x="226.8" y="10.413634" width="28.35" height="50.812732"/>
  </clipPath>
 </defs>
</svg>
