<?xml version="1.0" encoding="utf-8" standalone="no"?>
<!DOCTYPE svg PUBLIC "-//W3C//DTD SVG 1.1//EN"
  "http://www.w3.org/Graphics/SVG/1.1/DTD/svg11.dtd">
<svg xmlns:xlink="http://www.w3.org/1999/xlink" width="378pt" height="72pt" viewBox="0 0 378 72" xmlns="http://www.w3.org/2000/svg" version="1.1">
 <metadata>
  <rdf:RDF xmlns:dc="http://purl.org/dc/elements/1.1/" xmlns:cc="http://creativecommons.org/ns#" xmlns:rdf="http://www.w3.org/1999/02/22-rdf-syntax-ns#">
   <cc:Work>
    <dc:type rdf:resource="http://purl.org/dc/dcmitype/StillImage"/>
    <dc:date>2023-02-05T10:36:49.881814</dc:date>
    <dc:format>image/svg+xml</dc:format>
    <dc:creator>
     <cc:Agent>
      <dc:title>Matplotlib v3.6.1, https://matplotlib.org/</dc:title>
     </cc:Agent>
    </dc:creator>
   </cc:Work>
  </rdf:RDF>
 </metadata>
 <defs>
  <style type="text/css">*{stroke-linejoin: round; stroke-linecap: butt}</style>
 </defs>
 <g id="figure_1">
  <g id="patch_1">
   <path d="M 0 72 
L 378 72 
L 378 0 
L 0 0 
z
" style="fill: #8fff9f"/>
  </g>
  <g id="axes_1">
   <g id="patch_2">
    <path d="M 4.613462 35.932469 
Q 5.213297 35.257655 6.206772 34.826524 
Q 7.200248 34.395393 8.1 34.470372 
Q 8.737324 34.470372 9.22469 34.639076 
Q 9.712055 34.807779 10.030717 34.995228 
Q 10.349379 35.182676 10.574317 35.670041 
Q 10.799255 36.157407 10.911724 36.419834 
Q 11.024193 36.682262 11.080428 37.375821 
Q 11.136662 38.069379 11.155407 38.331807 
Q 11.174152 38.594234 11.155407 39.419007 
Q 11.136662 40.243779 11.136662 40.431228 
Q 11.136662 41.368469 10.967959 43.242952 
Q 10.799255 45.117434 10.799255 46.054676 
Q 10.799255 46.467062 10.85549 46.823214 
Q 10.911724 47.179366 11.005448 47.610497 
Q 11.099172 48.041628 11.136662 48.304055 
L 11.586538 48.528993 
M 5.063338 23.111007 
Q 5.288276 24.798041 5.288276 29.971614 
L 5.288276 42.3432 
L 4.950869 46.841959 
L 4.725931 47.74171 
" clip-path="url(#pa0f5d938ca)" style="fill: none; stroke: #000000; stroke-linejoin: miter"/>
   </g>
  </g>
  <g id="axes_2">
   <g id="patch_3">
    <path d="M 27.5616 35.032717 
Q 26.51189 34.582841 25.537159 34.69531 
Q 22.500497 35.032717 20.588524 36.701007 
Q 18.676552 38.369297 18.676552 41.330979 
Q 18.676552 43.917766 20.682248 45.6048 
Q 22.687945 47.291834 25.312221 47.291834 
Q 27.674069 47.291834 28.798759 45.361117 
Q 29.923448 43.4304 29.923448 40.881103 
Q 29.923448 39.643945 29.511062 38.706703 
Q 29.098676 37.769462 28.573821 37.300841 
Q 28.048966 36.832221 27.299172 36.119917 
Q 26.549379 35.407614 26.099503 34.69531 
L 24.862345 34.245434 
" clip-path="url(#p327f97c3e1)" style="fill: none; stroke: #000000; stroke-linejoin: miter"/>
   </g>
  </g>
  <g id="axes_3">
   <g id="patch_4">
    <path d="M 34.116102 36.437797 
L 35.351695 44.778051 
Q 35.454661 45.567458 35.454661 45.60178 
Q 35.454661 45.704746 35.763559 45.704746 
Q 36.62161 45.704746 37.342373 44.778051 
Q 38.063136 43.851356 38.475 42.718729 
Q 38.886864 41.586102 39.401695 40.659407 
Q 39.916525 39.732712 40.397034 39.732712 
Q 41.014831 39.732712 41.649788 40.607924 
Q 42.284746 41.483136 42.748093 42.512797 
Q 43.211441 43.542458 43.88072 44.417669 
Q 44.55 45.292881 45.236441 45.292881 
Q 45.511017 43.782712 45.940042 39.69839 
Q 46.369068 35.614068 46.883898 33.554746 
" clip-path="url(#p46bd0fb335)" style="fill: none; stroke: #000000; stroke-linejoin: miter"/>
   </g>
  </g>
  <g id="axes_4"/>
  <g id="axes_5">
   <g id="patch_5">
    <path d="M 68.063834 37.95691 
L 68.738648 37.95691 
Q 69.450952 37.95691 70.238234 37.881931 
Q 71.025517 37.806952 71.981503 37.675738 
Q 72.93749 37.544524 73.462345 37.507034 
L 77.736166 35.82 
M 73.687283 30.42149 
L 73.687283 31.43371 
Q 73.687283 33.383172 73.012469 37.207117 
Q 72.337655 41.031062 72.337655 43.018014 
Q 72.337655 43.805297 72.337655 44.105214 
Q 72.337655 44.405131 72.431379 45.042455 
Q 72.525103 45.679779 72.712552 45.960952 
Q 72.9 46.242124 73.293641 46.485807 
Q 73.687283 46.72949 74.249628 46.72949 
Q 74.362097 46.692 74.680759 46.72949 
Q 74.999421 46.766979 75.186869 46.710745 
Q 75.374317 46.65451 75.374317 46.392083 
" clip-path="url(#p08f5b15043)" style="fill: none; stroke: #000000; stroke-linejoin: miter"/>
   </g>
  </g>
  <g id="axes_6">
   <g id="patch_6">
    <path d="M 92.3616 35.032717 
Q 91.31189 34.582841 90.337159 34.69531 
Q 87.300497 35.032717 85.388524 36.701007 
Q 83.476552 38.369297 83.476552 41.330979 
Q 83.476552 43.917766 85.482248 45.6048 
Q 87.487945 47.291834 90.112221 47.291834 
Q 92.474069 47.291834 93.598759 45.361117 
Q 94.723448 43.4304 94.723448 40.881103 
Q 94.723448 39.643945 94.311062 38.706703 
Q 93.898676 37.769462 93.373821 37.300841 
Q 92.848966 36.832221 92.099172 36.119917 
Q 91.349379 35.407614 90.899503 34.69531 
L 89.662345 34.245434 
" clip-path="url(#p3a6e644cd2)" style="fill: none; stroke: #000000; stroke-linejoin: miter"/>
   </g>
  </g>
  <g id="axes_7"/>
  <g id="axes_8">
   <g id="patch_7">
    <path d="M 117.957228 37.244607 
Q 119.006938 37.207117 119.194386 37.132138 
Q 122.605945 37.132138 124.386703 39.212814 
Q 126.167462 41.29349 126.167462 44.780028 
Q 126.167462 47.704221 121.556234 47.704221 
Q 120.91891 47.704221 120.37531 47.591752 
Q 119.83171 47.479283 119.194386 47.254345 
Q 118.557062 47.029407 118.069697 46.916938 
L 116.832538 45.679779 
M 117.844759 25.435366 
L 117.844759 26.560055 
Q 117.844759 29.409269 117.957228 33.008276 
Q 118.069697 36.607283 118.257145 40.899848 
Q 118.444593 45.192414 118.519572 47.141876 
" clip-path="url(#pae319c953a)" style="fill: none; stroke: #000000; stroke-linejoin: miter"/>
   </g>
  </g>
  <g id="axes_9">
   <g id="patch_8">
    <path d="M 131.457798 38.160826 
Q 134.430275 39.535596 139.149083 39.721376 
Q 140.672477 39.721376 141.359862 38.550963 
Q 142.047248 37.38055 142.047248 35.82 
Q 142.047248 35.299817 141.954358 34.909679 
Q 141.861468 34.519541 141.619954 34.296606 
Q 141.37844 34.07367 141.211239 33.943624 
Q 141.044037 33.813578 140.598165 33.757844 
Q 140.152294 33.70211 139.947936 33.683532 
Q 139.743578 33.664954 139.167661 33.683532 
Q 138.591743 33.70211 138.368807 33.70211 
Q 136.325229 33.70211 134.838991 35.578486 
Q 133.352752 37.454862 133.352752 39.609908 
Q 133.352752 42.619541 135.284862 44.570229 
Q 137.216972 46.520917 140.263761 46.520917 
Q 142.418807 46.818165 143.942202 44.29156 
" clip-path="url(#pf503d04e57)" style="fill: none; stroke: #000000; stroke-linejoin: miter"/>
   </g>
  </g>
  <g id="axes_10">
   <g id="patch_9">
    <path d="M 149.063834 37.95691 
L 149.738648 37.95691 
Q 150.450952 37.95691 151.238234 37.881931 
Q 152.025517 37.806952 152.981503 37.675738 
Q 153.93749 37.544524 154.462345 37.507034 
L 158.736166 35.82 
M 154.687283 30.42149 
L 154.687283 31.43371 
Q 154.687283 33.383172 154.012469 37.207117 
Q 153.337655 41.031062 153.337655 43.018014 
Q 153.337655 43.805297 153.337655 44.105214 
Q 153.337655 44.405131 153.431379 45.042455 
Q 153.525103 45.679779 153.712552 45.960952 
Q 153.9 46.242124 154.293641 46.485807 
Q 154.687283 46.72949 155.249628 46.72949 
Q 155.362097 46.692 155.680759 46.72949 
Q 155.999421 46.766979 156.186869 46.710745 
Q 156.374317 46.65451 156.374317 46.392083 
" clip-path="url(#pd04e1c774d)" style="fill: none; stroke: #000000; stroke-linejoin: miter"/>
   </g>
  </g>
  <g id="axes_11">
   <g id="patch_10">
    <path d="M 165.263834 37.95691 
L 165.938648 37.95691 
Q 166.650952 37.95691 167.438234 37.881931 
Q 168.225517 37.806952 169.181503 37.675738 
Q 170.13749 37.544524 170.662345 37.507034 
L 174.936166 35.82 
M 170.887283 30.42149 
L 170.887283 31.43371 
Q 170.887283 33.383172 170.212469 37.207117 
Q 169.537655 41.031062 169.537655 43.018014 
Q 169.537655 43.805297 169.537655 44.105214 
Q 169.537655 44.405131 169.631379 45.042455 
Q 169.725103 45.679779 169.912552 45.960952 
Q 170.1 46.242124 170.493641 46.485807 
Q 170.887283 46.72949 171.449628 46.72949 
Q 171.562097 46.692 171.880759 46.72949 
Q 172.199421 46.766979 172.386869 46.710745 
Q 172.574317 46.65451 172.574317 46.392083 
" clip-path="url(#p33a731b3f2)" style="fill: none; stroke: #000000; stroke-linejoin: miter"/>
   </g>
  </g>
  <g id="axes_12">
   <g id="patch_11">
    <path d="M 180.057798 38.160826 
Q 183.030275 39.535596 187.749083 39.721376 
Q 189.272477 39.721376 189.959862 38.550963 
Q 190.647248 37.38055 190.647248 35.82 
Q 190.647248 35.299817 190.554358 34.909679 
Q 190.461468 34.519541 190.219954 34.296606 
Q 189.97844 34.07367 189.811239 33.943624 
Q 189.644037 33.813578 189.198165 33.757844 
Q 188.752294 33.70211 188.547936 33.683532 
Q 188.343578 33.664954 187.767661 33.683532 
Q 187.191743 33.70211 186.968807 33.70211 
Q 184.925229 33.70211 183.438991 35.578486 
Q 181.952752 37.454862 181.952752 39.609908 
Q 181.952752 42.619541 183.884862 44.570229 
Q 185.816972 46.520917 188.863761 46.520917 
Q 191.018807 46.818165 192.542202 44.29156 
" clip-path="url(#p7d64df00fe)" style="fill: none; stroke: #000000; stroke-linejoin: miter"/>
   </g>
  </g>
  <g id="axes_13">
   <g id="patch_12">
    <path d="M 199.013462 32.783338 
Q 199.538317 34.507862 199.669531 36.457324 
Q 199.800745 38.406786 199.725766 40.956083 
Q 199.650786 43.505379 199.688276 44.705048 
L 199.800745 46.054676 
L 199.800745 45.829738 
Q 199.800745 44.667559 199.519572 42.30571 
Q 199.2384 39.943862 199.2384 38.744193 
Q 199.2384 36.419834 200.250621 34.882759 
Q 201.262841 33.345683 203.287283 33.345683 
Q 203.999586 33.345683 204.336993 33.626855 
Q 204.6744 33.908028 204.936828 34.432883 
Q 205.199255 34.957738 205.536662 35.257655 
L 205.986538 36.832221 
" clip-path="url(#pc43989bd9f)" style="fill: none; stroke: #000000; stroke-linejoin: miter"/>
   </g>
  </g>
  <g id="axes_14"/>
  <g id="axes_15">
   <g id="patch_13">
    <path d="M 230.457476 43.917766 
Q 230.757393 44.180193 231.769614 45.154924 
Q 232.781834 46.129655 233.344179 46.560786 
Q 233.906524 46.991917 234.93749 47.385559 
Q 235.968455 47.7792 236.980676 47.629241 
Q 237.65549 47.629241 238.12411 47.404303 
Q 238.592731 47.179366 238.817669 46.879448 
Q 239.042607 46.579531 239.173821 45.979697 
Q 239.305034 45.379862 239.323779 44.967476 
Q 239.342524 44.55509 239.342524 43.805297 
Q 239.342524 42.718097 238.442772 42.043283 
Q 237.543021 41.368469 236.249628 41.031062 
Q 234.956234 40.693655 233.662841 40.300014 
Q 232.369448 39.906372 231.469697 38.987876 
Q 230.569945 38.069379 230.569945 36.607283 
Q 230.569945 36.082428 230.738648 35.726276 
Q 230.907352 35.370124 231.300993 35.145186 
Q 231.694634 34.920248 231.975807 34.807779 
Q 232.256979 34.69531 232.913048 34.639076 
Q 233.569117 34.582841 233.756566 34.582841 
Q 233.944014 34.582841 234.618828 34.582841 
Q 235.818497 34.582841 236.399586 34.995228 
Q 236.980676 35.407614 237.299338 36.026193 
Q 237.618 36.644772 237.880428 36.832221 
" clip-path="url(#pae9cedcc73)" style="fill: none; stroke: #000000; stroke-linejoin: miter"/>
   </g>
  </g>
  <g id="axes_16">
   <g id="patch_14">
    <path d="M 246.263834 37.95691 
L 246.938648 37.95691 
Q 247.650952 37.95691 248.438234 37.881931 
Q 249.225517 37.806952 250.181503 37.675738 
Q 251.13749 37.544524 251.662345 37.507034 
L 255.936166 35.82 
M 251.887283 30.42149 
L 251.887283 31.43371 
Q 251.887283 33.383172 251.212469 37.207117 
Q 250.537655 41.031062 250.537655 43.018014 
Q 250.537655 43.805297 250.537655 44.105214 
Q 250.537655 44.405131 250.631379 45.042455 
Q 250.725103 45.679779 250.912552 45.960952 
Q 251.1 46.242124 251.493641 46.485807 
Q 251.887283 46.72949 252.449628 46.72949 
Q 252.562097 46.692 252.880759 46.72949 
Q 253.199421 46.766979 253.386869 46.710745 
Q 253.574317 46.65451 253.574317 46.392083 
" clip-path="url(#pa81c37ac8e)" style="fill: none; stroke: #000000; stroke-linejoin: miter"/>
   </g>
  </g>
  <g id="axes_17">
   <g id="patch_15">
    <path d="M 262.688772 35.145186 
Q 262.688772 35.145186 262.688772 35.595062 
Q 262.688772 36.269876 262.576303 37.619503 
Q 262.463834 38.969131 262.463834 39.643945 
Q 262.463834 41.930814 263.700993 43.599103 
Q 264.938152 45.267393 267.075062 45.267393 
Q 268.462179 45.154924 269.230717 43.917766 
Q 269.999255 42.680607 270.149214 41.237255 
Q 270.299172 39.793903 270.5616 37.9944 
Q 270.824028 36.194897 271.236414 35.370124 
Q 271.386372 35.070207 271.386372 35.670041 
Q 271.386372 36.269876 271.123945 38.706703 
Q 270.899007 41.031062 270.899007 41.555917 
Q 270.749048 42.643117 271.086455 43.767807 
Q 271.423862 44.892497 272.136166 45.6048 
" clip-path="url(#p3ebcc55192)" style="fill: none; stroke: #000000; stroke-linejoin: miter"/>
   </g>
  </g>
  <g id="axes_18">
   <g id="patch_16">
    <path d="M 287.099007 39.568966 
Q 285.749379 38.181848 283.5 38.444276 
Q 280.650786 38.444276 279.488607 39.793903 
Q 278.326428 41.143531 278.326428 44.067724 
Q 278.326428 45.56731 279.619821 46.279614 
Q 280.913214 46.991917 282.487779 46.991917 
Q 283.799917 46.991917 284.812138 45.736014 
Q 285.824359 44.48011 286.405448 42.30571 
Q 286.986538 40.13131 287.361434 37.938166 
Q 287.736331 35.745021 287.88629 33.045766 
Q 288.036248 30.34651 288.073738 28.978138 
Q 288.111228 27.609766 288.111228 26.185159 
Q 287.88629 26.260138 287.88629 29.896634 
L 287.88629 44.292662 
L 288.673572 48.229076 
" clip-path="url(#p28519edaa5)" style="fill: none; stroke: #000000; stroke-linejoin: miter"/>
   </g>
  </g>
  <g id="axes_19">
   <g id="patch_17">
    <path d="M 294.563917 36.382345 
Q 294.526428 36.494814 294.657641 36.701007 
Q 294.788855 36.9072 294.676386 37.057159 
L 294.676386 39.306538 
Q 294.676386 40.506207 295.013793 41.724621 
Q 295.3512 42.943034 296.213462 43.93651 
Q 297.075724 44.929986 298.275393 44.929986 
Q 299.512552 44.929986 300.187366 43.861531 
Q 300.862179 42.793076 301.312055 41.143531 
Q 301.761931 39.493986 302.099338 38.969131 
L 302.886621 36.382345 
L 302.661683 42.680607 
L 302.661683 45.154924 
Q 302.661683 47.066897 303.392731 51.00331 
Q 304.123779 54.939724 304.123779 56.964166 
Q 304.873572 59.213545 303.786372 60.188276 
Q 302.699172 61.163007 300.637241 60.78811 
Q 298.837738 60.488193 297.919241 60.169531 
Q 297.000745 59.850869 295.013793 58.988607 
L 294.901324 58.426262 
" clip-path="url(#p7b5636834f)" style="fill: none; stroke: #000000; stroke-linejoin: miter"/>
   </g>
  </g>
  <g id="axes_20"/>
  <g id="axes_21">
   <g id="patch_18">
    <path d="M 337.643923 36.441748 
Q 336.434968 35.094627 332.462687 35.094627 
Q 330.942857 35.094627 330.165672 35.146439 
Q 329.388486 35.198252 328.38678 35.440043 
Q 327.385075 35.681834 326.901493 36.182687 
Q 326.41791 36.683539 326.072495 37.616162 
Q 325.727079 38.548785 325.727079 39.964989 
Q 325.727079 42.037484 327.143284 43.280981 
Q 328.559488 44.524478 330.493817 44.524478 
Q 333.153518 44.524478 335.916844 38.721493 
Q 337.263966 35.854542 337.263966 35.82 
Q 337.609382 35.578209 337.643923 36.441748 
Q 337.643923 37.512537 338.058422 40.362217 
Q 338.472921 43.211898 338.472921 44.524478 
" clip-path="url(#pb5e7f3ff0a)" style="fill: none; stroke: #000000; stroke-linejoin: miter"/>
   </g>
  </g>
 </g>
 <defs>
  <clipPath id="pa0f5d938ca">
   <rect x="2.738979" y="8.64" width="10.722041" height="54.36"/>
  </clipPath>
  <clipPath id="p327f97c3e1">
   <rect x="16.802069" y="8.64" width="14.995862" height="54.36"/>
  </clipPath>
  <clipPath id="p46bd0fb335">
   <rect x="32.4" y="10.936525" width="16.2" height="49.766949"/>
  </clipPath>
  <clipPath id="p08f5b15043">
   <rect x="66.189352" y="8.64" width="13.421297" height="54.36"/>
  </clipPath>
  <clipPath id="p3a6e644cd2">
   <rect x="81.602069" y="8.64" width="14.995862" height="54.36"/>
  </clipPath>
  <clipPath id="pae319c953a">
   <rect x="114.958055" y="8.64" width="13.08389" height="54.36"/>
  </clipPath>
  <clipPath id="pf503d04e57">
   <rect x="129.6" y="8.881927" width="16.2" height="53.876147"/>
  </clipPath>
  <clipPath id="pd04e1c774d">
   <rect x="147.189352" y="8.64" width="13.421297" height="54.36"/>
  </clipPath>
  <clipPath id="p33a731b3f2">
   <rect x="163.389352" y="8.64" width="13.421297" height="54.36"/>
  </clipPath>
  <clipPath id="p7d64df00fe">
   <rect x="178.2" y="8.881927" width="16.2" height="53.876147"/>
  </clipPath>
  <clipPath id="pc43989bd9f">
   <rect x="197.138979" y="8.64" width="10.722041" height="54.36"/>
  </clipPath>
  <clipPath id="pae9cedcc73">
   <rect x="228.582993" y="8.64" width="12.634014" height="54.36"/>
  </clipPath>
  <clipPath id="pa81c37ac8e">
   <rect x="244.389352" y="8.64" width="13.421297" height="54.36"/>
  </clipPath>
  <clipPath id="p3ebcc55192">
   <rect x="260.589352" y="8.64" width="13.421297" height="54.36"/>
  </clipPath>
  <clipPath id="p28519edaa5">
   <rect x="276.451945" y="8.64" width="14.09611" height="54.36"/>
  </clipPath>
  <clipPath id="p7b5636834f">
   <rect x="292.651945" y="8.64" width="14.09611" height="54.36"/>
  </clipPath>
  <clipPath id="pb5e7f3ff0a">
   <rect x="324" y="10.777356" width="16.2" height="50.085288"/>
  </clipPath>
 </defs>
</svg>
