<?xml version="1.0" encoding="utf-8" standalone="no"?>
<!DOCTYPE svg PUBLIC "-//W3C//DTD SVG 1.1//EN"
  "http://www.w3.org/Graphics/SVG/1.1/DTD/svg11.dtd">
<svg xmlns:xlink="http://www.w3.org/1999/xlink" width="346.5pt" height="72pt" viewBox="0 0 346.5 72" xmlns="http://www.w3.org/2000/svg" version="1.1">
 <metadata>
  <rdf:RDF xmlns:dc="http://purl.org/dc/elements/1.1/" xmlns:cc="http://creativecommons.org/ns#" xmlns:rdf="http://www.w3.org/1999/02/22-rdf-syntax-ns#">
   <cc:Work>
    <dc:type rdf:resource="http://purl.org/dc/dcmitype/StillImage"/>
    <dc:date>2023-02-05T11:02:34.982764</dc:date>
    <dc:format>image/svg+xml</dc:format>
    <dc:creator>
     <cc:Agent>
      <dc:title>Matplotlib v3.6.1, https://matplotlib.org/</dc:title>
     </cc:Agent>
    </dc:creator>
   </cc:Work>
  </rdf:RDF>
 </metadata>
 <defs>
  <style type="text/css">*{stroke-linejoin: round; stroke-linecap: butt}</style>
 </defs>
 <g id="figure_1">
  <g id="patch_1">
   <path d="M 0 72 
L 346.5 72 
L 346.5 0 
L 0 0 
z
" style="fill: #8fff9f"/>
  </g>
  <g id="axes_1">
   <g id="patch_2">
    <path d="M 13.950062 39.269048 
Q 13.875083 39.531476 14.118766 39.700179 
Q 14.362448 39.868883 14.7186 39.943862 
Q 15.074752 40.018841 15.449648 40.150055 
Q 15.824545 40.281269 15.974503 40.506207 
L 16.874255 41.181021 
M 10.575993 39.156579 
Q 12.562945 38.894152 17.361621 38.106869 
Q 22.160297 37.319586 24.747083 37.019669 
L 26.09671 36.9072 
M 18.336352 34.995228 
L 18.336352 35.445103 
Q 18.411331 37.357076 19.198614 41.199766 
Q 19.985897 45.042455 19.760959 46.841959 
Q 19.57351 48.154097 17.4366 45.829738 
Q 15.937014 44.217683 15.824545 44.105214 
M 13.950062 35.445103 
Q 14.324959 35.332634 15.749566 35.23891 
Q 17.174172 35.145186 17.886476 34.77029 
L 21.073097 33.795559 
M 13.800103 29.934124 
L 21.560462 29.2968 
M 13.987552 32.708359 
L 14.437428 32.708359 
Q 14.962283 32.708359 15.562117 32.633379 
Q 16.161952 32.5584 16.893 32.427186 
Q 17.624048 32.295972 18.036434 32.258483 
L 22.085317 31.358731 
M 12.787883 27.047421 
L 13.350228 27.047421 
Q 13.687634 27.047421 14.849814 26.953697 
Q 16.011993 26.859972 17.324131 26.766248 
Q 18.636269 26.672524 19.929662 26.597545 
Q 21.223055 26.522566 22.066572 26.560055 
Q 22.91009 26.597545 22.91009 26.822483 
L 22.91009 27.834703 
L 21.7854 31.396221 
M 12.450476 27.384828 
Q 13.012821 28.24709 13.200269 28.921903 
Q 13.387717 29.596717 13.481441 30.496469 
Q 13.575166 31.396221 13.762614 32.146014 
M 6.789538 35.295145 
L 7.089455 46.429572 
M 9.488793 30.121572 
L 9.488793 30.34651 
Q 8.739 31.808607 7.745524 33.289448 
Q 6.752048 34.77029 5.589869 36.344855 
Q 4.42769 37.919421 3.977814 38.556745 
L 2.25329 40.13131 
M 10.013648 26.597545 
L 6.752048 30.309021 
L 5.964766 30.871366 
" clip-path="url(#pa57f94e6d3)" style="fill: none; stroke: #000000; stroke-linejoin: miter"/>
   </g>
  </g>
  <g id="axes_2">
   <g id="patch_3">
    <path d="M 48.973221 41.593407 
L 49.08569 47.179366 
M 35.776862 41.668386 
Q 36.03929 42.118262 36.151759 44.01149 
Q 36.264228 45.904717 36.826572 46.204634 
Q 45.111786 46.204634 47.736062 45.829738 
L 49.273138 45.492331 
M 42.375041 26.485076 
L 42.375041 27.15989 
Q 42.375041 37.881931 42.749938 46.317103 
M 49.235648 30.758897 
L 49.0482 36.9072 
M 36.03929 31.396221 
L 36.03929 35.745021 
L 37.576366 35.745021 
L 42.000145 35.745021 
L 47.548614 35.332634 
L 48.785772 35.107697 
" clip-path="url(#p331b4513e7)" style="fill: none; stroke: #000000; stroke-linejoin: miter"/>
   </g>
  </g>
  <g id="axes_3">
   <g id="patch_4">
    <path d="M 70.987469 31.921076 
L 70.987469 32.258483 
Q 70.987469 32.633379 70.875 33.420662 
Q 70.762531 34.207945 70.762531 34.620331 
Q 70.687552 36.794731 71.399855 40.74989 
Q 72.112159 44.705048 72.224628 45.64229 
Q 72.449566 47.74171 72.449566 47.7792 
Q 72.449566 48.004138 72.393331 48.060372 
Q 72.337097 48.116607 72.112159 48.116607 
Q 71.737262 48.116607 71.081193 47.704221 
Q 70.425124 47.291834 69.675331 46.692 
Q 68.925538 46.092166 68.73809 45.979697 
L 67.163524 45.192414 
M 62.664766 29.446759 
L 64.576738 29.446759 
Q 67.051055 29.446759 71.849731 28.547007 
Q 76.648407 27.647255 79.085234 27.647255 
Q 78.335441 28.322069 75.467483 30.159062 
Q 72.599524 31.996055 71.437345 33.270703 
" clip-path="url(#p137cb52d2a)" style="fill: none; stroke: #000000; stroke-linejoin: miter"/>
   </g>
  </g>
  <g id="axes_4">
   <g id="patch_5">
    <path d="M 96.638214 44.292662 
Q 98.287759 45.229903 99.112531 46.766979 
L 100.574628 48.229076 
M 95.063648 39.793903 
L 95.288586 39.793903 
Q 95.775952 39.531476 97.08809 39.568966 
Q 97.950352 39.568966 101.3994 39.025366 
Q 104.848448 38.481766 104.848448 38.219338 
Q 104.848448 39.493986 103.61129 41.537172 
Q 102.374131 43.580359 101.136972 44.967476 
L 99.225 46.542041 
M 97.200559 33.045766 
L 97.537966 33.045766 
Q 97.800393 33.045766 98.1378 33.270703 
Q 98.475207 33.495641 98.831359 33.833048 
Q 99.18751 34.170455 99.337469 34.282924 
L 99.787345 35.632552 
M 97.537966 27.647255 
Q 98.775124 28.059641 101.136972 30.121572 
Q 101.3994 30.34651 102.355386 31.246262 
Q 103.311372 32.146014 103.986186 32.689614 
Q 104.661 33.233214 105.616986 33.964262 
Q 106.572972 34.69531 107.435234 35.051462 
Q 108.297497 35.407614 109.0098 35.407614 
L 109.684614 35.407614 
L 110.359428 35.85749 
M 98.887593 25.060469 
Q 98.887593 25.247917 98.831359 25.435366 
Q 98.775124 25.622814 98.6814 25.829007 
Q 98.587676 26.0352 98.550186 26.185159 
Q 98.437717 26.372607 98.250269 26.747503 
Q 97.238048 28.659476 96.600724 29.727931 
Q 95.9634 30.796386 94.801221 32.370952 
Q 93.639041 33.945517 92.326903 34.938993 
Q 91.014766 35.932469 89.4402 36.419834 
Q 89.177772 36.419834 88.746641 36.626028 
Q 88.31551 36.832221 88.090572 36.86971 
" clip-path="url(#pf2a3ec9964)" style="fill: none; stroke: #000000; stroke-linejoin: miter"/>
   </g>
  </g>
  <g id="axes_5">
   <g id="patch_6">
    <path d="M 125.063193 31.996055 
Q 126.037924 34.282924 126.843952 35.85749 
Q 127.649979 37.432055 128.887138 39.212814 
Q 130.124297 40.993572 131.511414 42.174497 
Q 132.898531 43.355421 134.904228 44.423876 
Q 136.909924 45.492331 139.421731 46.167145 
M 126.975166 25.022979 
Q 126.562779 28.284579 125.306876 32.033545 
Q 124.050972 35.78251 121.482931 39.850138 
Q 118.91489 43.917766 115.728269 46.054676 
" clip-path="url(#pd6ef115c43)" style="fill: none; stroke: #000000; stroke-linejoin: miter"/>
   </g>
  </g>
  <g id="axes_6">
   <g id="patch_7">
    <path d="M 157.780738 40.393738 
Q 158.493041 40.843614 159.580241 42.024538 
Q 160.667441 43.205462 161.042338 43.542869 
L 161.94209 45.229903 
M 153.16951 39.943862 
Q 152.457207 42.943034 151.0326 44.667559 
L 150.245317 45.117434 
M 161.829621 27.459807 
Q 161.679662 27.797214 161.267276 28.921903 
Q 160.85489 30.046593 160.479993 30.608938 
Q 159.805179 31.583669 156.880986 35.670041 
L 156.318641 36.569793 
M 152.832103 28.921903 
L 153.16951 29.25931 
L 155.41889 33.308193 
M 149.570503 30.833876 
L 151.932352 34.432883 
M 146.871248 37.019669 
L 164.978752 36.307366 
" clip-path="url(#p9450a531df)" style="fill: none; stroke: #000000; stroke-linejoin: miter"/>
   </g>
  </g>
  <g id="axes_7">
   <g id="patch_8">
    <path d="M 179.561992 43.015431 
L 179.993718 43.015431 
Q 180.029695 43.015431 180.98309 42.943477 
Q 181.936485 42.871523 182.044416 42.871523 
L 189.203871 42.008071 
M 184.52684 38.266447 
L 184.52684 38.806104 
Q 184.52684 39.417716 184.508852 40.676916 
Q 184.490863 41.936117 184.490863 42.727614 
Q 184.490863 43.519112 184.52684 44.616415 
Q 184.562817 45.713718 184.670749 46.57717 
M 179.238198 47.33269 
L 189.815482 47.224759 
M 177.1875 38.158515 
Q 178.770495 38.050584 183.429537 37.888687 
Q 188.088579 37.726789 190.822843 37.367018 
Q 191.038706 37.367018 191.038706 37.474949 
Q 191.038706 40.640939 189.815482 47.224759 
M 177.1875 37.510926 
L 177.1875 38.050584 
Q 177.1875 39.021967 177.493306 40.11927 
Q 177.799112 41.216574 178.32078 42.52974 
Q 178.842449 43.842906 179.022335 44.526472 
L 179.238198 48.340051 
M 187.117195 29.631929 
Q 188.016624 33.301599 190.588991 36.431612 
Q 193.161358 39.561624 196.651142 40.712893 
M 175.892322 31.14297 
L 176.647843 31.14297 
Q 177.403363 31.14297 178.266815 31.053027 
Q 179.130266 30.963084 180.191593 30.819175 
Q 181.252919 30.675266 181.828553 30.603312 
L 195.319987 29.416066 
M 182.799937 25.638464 
L 182.799937 25.854327 
Q 182.799937 26.861688 182.674016 27.815082 
Q 182.548096 28.768477 182.170336 29.703883 
Q 181.792576 30.639289 181.540736 31.304867 
Q 181.288896 31.970444 180.587341 32.90585 
Q 179.885787 33.841256 179.579981 34.308959 
Q 179.274175 34.776662 178.338769 35.748046 
Q 177.403363 36.719429 177.133534 36.989258 
Q 176.863706 37.259086 175.766402 38.320412 
Q 174.669099 39.381739 174.489213 39.561624 
L 171.898858 41.180596 
" clip-path="url(#pf2f7862d30)" style="fill: none; stroke: #000000; stroke-linejoin: miter"/>
   </g>
  </g>
  <g id="axes_8">
   <g id="patch_9">
    <path d="M 215.586683 33.420662 
Q 216.711372 33.720579 218.960752 35.332634 
M 213.899648 28.584497 
Q 215.399234 28.696966 217.723593 28.115876 
Q 220.047952 27.534786 220.872724 27.459807 
Q 221.28511 27.459807 221.510048 27.553531 
Q 221.734986 27.647255 221.809966 27.890938 
Q 221.884945 28.134621 221.8662 28.378303 
Q 221.847455 28.621986 221.809966 29.146841 
Q 221.772476 29.671697 221.772476 30.046593 
Q 221.997414 34.320414 221.210131 43.4304 
Q 221.210131 43.805297 221.210131 44.105214 
Q 221.210131 44.405131 221.191386 44.630069 
Q 221.172641 44.855007 221.003938 44.986221 
Q 220.835234 45.117434 220.422848 45.117434 
L 219.748034 45.117434 
L 217.386186 43.542869 
M 215.699152 23.8608 
L 215.699152 24.198207 
Q 215.699152 25.022979 215.324255 26.110179 
Q 214.949359 27.197379 214.349524 28.472028 
Q 213.74969 29.746676 213.562241 30.271531 
L 212.887428 31.396221 
M 204.302297 43.767807 
L 205.314517 43.767807 
L 211.162903 43.4304 
M 204.302297 35.894979 
L 209.925745 35.670041 
M 203.252586 29.971614 
L 205.164559 29.971614 
Q 205.651924 29.971614 207.189 29.634207 
Q 208.726076 29.2968 210.000724 28.959393 
Q 211.275372 28.621986 211.275372 28.584497 
Q 211.275372 39.493986 211.050434 42.868055 
L 210.713028 45.342372 
M 203.702462 28.846924 
L 203.702462 29.184331 
Q 203.702462 30.908855 204.114848 34.15171 
Q 204.527234 37.394566 204.527234 39.156579 
L 204.527234 42.868055 
L 204.077359 43.992745 
M 209.813276 24.760552 
Q 209.3634 25.060469 208.838545 25.99771 
Q 208.31369 26.934952 207.901303 27.234869 
L 207.001552 29.25931 
" clip-path="url(#pf3ed12cb4a)" style="fill: none; stroke: #000000; stroke-linejoin: miter"/>
   </g>
  </g>
  <g id="axes_9">
   <g id="patch_10">
    <path d="M 241.666896 46.961302 
L 251.459887 46.961302 
M 241.418523 40.929387 
Q 242.199124 40.893905 244.434481 40.8052 
Q 246.669837 40.716496 248.24878 40.592309 
Q 249.827722 40.468123 251.140551 40.255232 
L 251.31796 40.290713 
Q 251.282478 40.361677 251.353442 40.468123 
L 250.182541 46.109737 
L 249.96965 46.535519 
M 241.312078 41.461615 
L 241.773342 47.174193 
M 246.13761 25.956045 
L 246.13761 37.310238 
M 240.708886 38.481139 
Q 241.489487 37.913429 244.203849 37.682797 
Q 246.91821 37.452165 247.414956 37.310238 
L 253.375907 37.097347 
M 239.396058 33.584643 
L 239.82184 33.584643 
Q 241.524969 33.584643 245.481195 33.016934 
Q 249.437422 32.449224 250.182541 32.37826 
L 252.950125 31.846033 
M 228.574093 47.422566 
Q 229.141802 47.138711 230.649781 46.216183 
Q 232.15776 45.293655 233.044806 44.867872 
L 238.260638 42.738961 
M 237.409074 31.668623 
Q 233.50607 39.08433 230.596558 42.419625 
L 235.918836 40.184268 
L 236.238173 40.077822 
M 234.535044 26.346345 
L 233.683479 28.688148 
Q 233.399625 29.326821 231.128786 33.265307 
Q 231.057822 33.371752 230.738486 33.850757 
Q 230.419149 34.329762 230.188517 34.737804 
Q 229.957885 35.145845 229.957885 35.394218 
L 230.419149 35.394218 
Q 230.880413 35.394218 231.02234 35.394218 
L 235.173717 35.074881 
" clip-path="url(#p66c0e35df2)" style="fill: none; stroke: #000000; stroke-linejoin: miter"/>
   </g>
  </g>
  <g id="axes_10">
   <g id="patch_11">
    <path d="M 268.7814 39.943862 
L 269.118807 39.943862 
Q 270.355966 39.943862 271.743083 39.493986 
Q 273.1302 39.04411 274.761 38.275572 
Q 276.3918 37.507034 277.216572 37.244607 
L 278.5662 36.344855 
M 269.456214 33.6456 
L 269.456214 34.207945 
Q 269.456214 34.395393 269.456214 35.201421 
Q 269.456214 36.007448 269.418724 36.494814 
Q 269.381234 36.982179 269.231276 37.469545 
Q 269.118807 37.881931 269.081317 38.350552 
Q 269.043828 38.819172 269.081317 39.512731 
Q 269.118807 40.20629 269.118807 40.393738 
Q 269.118807 40.806124 269.28751 41.537172 
Q 269.456214 42.268221 269.456214 42.643117 
L 269.456214 45.004966 
Q 269.381234 45.979697 269.812366 46.635766 
Q 270.243497 47.291834 271.012034 47.573007 
Q 271.780572 47.854179 272.530366 47.929159 
Q 273.280159 48.004138 274.17991 47.929159 
Q 276.241841 47.7792 279.803359 47.254345 
L 279.915828 44.217683 
M 272.680324 27.909683 
Q 274.554807 28.921903 276.541759 30.908855 
Q 277.179083 31.546179 278.303772 32.577145 
Q 279.428462 33.60811 280.065786 34.245434 
L 281.190476 34.69531 
M 272.792793 25.322897 
L 271.780572 28.472028 
L 266.494531 34.432883 
L 265.032434 35.107697 
M 260.608655 28.959393 
L 264.207662 30.871366 
M 257.459524 35.707531 
L 257.796931 35.707531 
Q 257.834421 35.707531 258.471745 35.595062 
L 260.721124 34.69531 
L 263.195441 33.795559 
L 262.520628 36.157407 
Q 262.483138 36.86971 261.958283 40.656166 
Q 261.883303 41.330979 261.602131 42.943034 
Q 261.320959 44.55509 261.189745 45.736014 
Q 261.058531 46.916938 261.058531 47.966648 
Q 260.983552 48.566483 261.171 48.566483 
Q 261.320959 48.566483 262.333179 47.629241 
Q 262.970503 46.991917 263.30791 46.954428 
Q 263.457869 46.766979 263.907745 46.504552 
Q 264.357621 46.242124 264.563814 45.960952 
Q 264.770007 45.679779 264.657538 45.267393 
" clip-path="url(#pe0071153cf)" style="fill: none; stroke: #000000; stroke-linejoin: miter"/>
   </g>
  </g>
  <g id="axes_11">
   <g id="patch_12">
    <path d="M 296.212903 36.94469 
Q 296.250393 37.019669 296.512821 37.263352 
Q 296.775248 37.507034 296.887717 37.619503 
Q 297.000186 37.731972 297.243869 38.013145 
Q 297.487552 38.294317 297.63751 38.463021 
Q 297.787469 38.631724 298.012407 38.931641 
Q 298.237345 39.231559 298.368559 39.437752 
Q 298.499772 39.643945 298.649731 39.943862 
Q 298.79969 40.243779 298.893414 40.487462 
Q 298.987138 40.731145 299.062117 41.012317 
Q 299.137097 41.29349 299.137097 41.555917 
Q 299.137097 42.118262 298.987138 42.605628 
Q 298.837179 43.092993 298.556007 43.636593 
Q 298.274834 44.180193 298.124876 44.592579 
L 297.000186 45.717269 
" clip-path="url(#pc540ff2c9a)" style="fill: none; stroke: #000000; stroke-linejoin: miter"/>
   </g>
  </g>
 </g>
 <defs>
  <clipPath id="pa57f94e6d3">
   <rect x="0.378807" y="8.64" width="27.592386" height="54.36"/>
  </clipPath>
  <clipPath id="p331b4513e7">
   <rect x="33.902379" y="8.64" width="17.245241" height="54.36"/>
  </clipPath>
  <clipPath id="p137cb52d2a">
   <rect x="60.790283" y="8.64" width="20.169434" height="54.36"/>
  </clipPath>
  <clipPath id="pf2a3ec9964">
   <rect x="86.21609" y="8.64" width="26.017821" height="54.36"/>
  </clipPath>
  <clipPath id="pd6ef115c43">
   <rect x="113.853786" y="8.64" width="27.442428" height="54.36"/>
  </clipPath>
  <clipPath id="p9450a531df">
   <rect x="144.996766" y="8.64" width="21.856469" height="54.36"/>
  </clipPath>
  <clipPath id="pf2f7862d30">
   <rect x="170.1" y="9.736561" width="28.35" height="52.166878"/>
  </clipPath>
  <clipPath id="pf3ed12cb4a">
   <rect x="201.378103" y="8.64" width="22.493793" height="54.36"/>
  </clipPath>
  <clipPath id="p66c0e35df2">
   <rect x="226.8" y="10.095657" width="28.35" height="51.448686"/>
  </clipPath>
  <clipPath id="pe0071153cf">
   <rect x="255.585041" y="8.64" width="27.479917" height="54.36"/>
  </clipPath>
  <clipPath id="pc540ff2c9a">
   <rect x="294.338421" y="8.64" width="6.673159" height="54.36"/>
  </clipPath>
 </defs>
</svg>
