<?xml version="1.0" encoding="utf-8" standalone="no"?>
<!DOCTYPE svg PUBLIC "-//W3C//DTD SVG 1.1//EN"
  "http://www.w3.org/Graphics/SVG/1.1/DTD/svg11.dtd">
<svg xmlns:xlink="http://www.w3.org/1999/xlink" width="445.5pt" height="162pt" viewBox="0 0 445.5 162" xmlns="http://www.w3.org/2000/svg" version="1.1">
 <metadata>
  <rdf:RDF xmlns:dc="http://purl.org/dc/elements/1.1/" xmlns:cc="http://creativecommons.org/ns#" xmlns:rdf="http://www.w3.org/1999/02/22-rdf-syntax-ns#">
   <cc:Work>
    <dc:type rdf:resource="http://purl.org/dc/dcmitype/StillImage"/>
    <dc:date>2023-02-15T23:00:44.873466</dc:date>
    <dc:format>image/svg+xml</dc:format>
    <dc:creator>
     <cc:Agent>
      <dc:title>Matplotlib v3.6.1, https://matplotlib.org/</dc:title>
     </cc:Agent>
    </dc:creator>
   </cc:Work>
  </rdf:RDF>
 </metadata>
 <defs>
  <style type="text/css">*{stroke-linejoin: round; stroke-linecap: butt}</style>
 </defs>
 <g id="figure_1">
  <g id="patch_1">
   <path d="M 0 162 
L 445.5 162 
L 445.5 0 
L 0 0 
z
" style="fill: #8fff9f"/>
  </g>
  <g id="axes_1">
   <g id="patch_2">
    <path d="M 17.927853 85.15125 
Q 17.828804 85.497921 18.150713 85.720781 
Q 18.472622 85.943641 18.943105 86.04269 
Q 19.413587 86.141739 19.908832 86.315075 
Q 20.404076 86.48841 20.602174 86.785557 
L 21.790761 87.676997 
M 13.470652 85.002677 
Q 16.095448 84.656005 22.434579 83.615992 
Q 28.773709 82.575978 32.190897 82.179783 
L 33.973777 82.031209 
M 23.722215 79.505462 
L 23.722215 80.099755 
Q 23.821264 82.625503 24.861277 87.70176 
Q 25.901291 92.778016 25.604144 95.15519 
Q 25.356522 96.888546 22.533628 93.81803 
Q 20.552649 91.688478 20.404076 91.539905 
M 17.927853 80.099755 
Q 18.423098 79.951182 20.305027 79.827371 
Q 22.186957 79.70356 23.127921 79.208315 
L 27.3375 77.920679 
M 17.729755 72.81966 
L 27.981318 71.977745 
M 17.977378 76.48447 
L 18.571671 76.48447 
Q 19.265014 76.48447 20.057405 76.385421 
Q 20.849796 76.286372 21.815523 76.113037 
Q 22.78125 75.939701 23.326019 75.890177 
L 28.67466 74.70159 
M 16.392595 69.006277 
L 17.135462 69.006277 
Q 17.581182 69.006277 19.11644 68.882466 
Q 20.651698 68.758655 22.385054 68.634844 
Q 24.11841 68.511033 25.827004 68.411984 
Q 27.535598 68.312935 28.649898 68.362459 
Q 29.764198 68.411984 29.764198 68.70913 
L 29.764198 70.046291 
L 28.278465 74.751114 
M 15.946875 69.451997 
Q 16.689742 70.59106 16.937364 71.4825 
Q 17.184986 72.37394 17.308798 73.562527 
Q 17.432609 74.751114 17.680231 75.741603 
M 8.468682 79.901658 
L 8.864878 94.610421 
M 12.034443 73.067283 
L 12.034443 73.364429 
Q 11.043954 75.295883 9.731556 77.252099 
Q 8.419158 79.208315 6.883899 81.288342 
Q 5.348641 83.36837 4.754348 84.210285 
L 2.476223 86.290312 
M 12.727785 68.411984 
L 8.419158 73.314905 
L 7.379144 74.057772 
" clip-path="url(#p3bbd4bea89)" style="fill: none; stroke: #000000; stroke-linejoin: miter"/>
   </g>
  </g>
  <g id="axes_2">
   <g id="patch_3">
    <path d="M 68.30413 92.797826 
L 68.541848 104.604457 
M 40.411957 92.956304 
Q 40.96663 93.907174 41.204348 97.90875 
Q 41.442065 101.910326 42.630652 102.544239 
Q 60.1425 102.544239 65.689239 101.751848 
L 68.938043 101.038696 
M 54.358043 60.864457 
L 54.358043 62.290761 
Q 54.358043 84.953152 55.150435 102.781957 
M 68.858804 69.897717 
L 68.462609 82.892935 
M 40.96663 71.244783 
L 40.96663 80.436522 
L 44.215435 80.436522 
L 53.565652 80.436522 
L 65.293043 79.564891 
L 67.907935 79.089457 
" clip-path="url(#p22050ed77d)" style="fill: none; stroke: #000000; stroke-linejoin: miter"/>
   </g>
  </g>
  <g id="axes_3">
   <g id="patch_4">
    <path d="M 91.328253 73.548903 
L 91.328253 74.158662 
Q 91.328253 74.836171 91.125 76.258941 
Q 90.921747 77.68171 90.921747 78.42697 
Q 90.786245 82.356524 92.073513 89.504247 
Q 93.360781 96.65197 93.564033 98.345743 
Q 93.970539 102.139796 93.970539 102.207546 
Q 93.970539 102.614052 93.868913 102.715678 
Q 93.767286 102.817305 93.360781 102.817305 
Q 92.683271 102.817305 91.49763 102.072045 
Q 90.311989 101.326784 88.95697 100.24277 
Q 87.601952 99.158755 87.263197 98.955502 
L 84.417658 97.532732 
M 76.287546 69.077342 
L 79.742844 69.077342 
Q 84.214405 69.077342 92.886524 67.45132 
Q 101.558643 65.825297 105.962454 65.825297 
Q 104.607435 67.044814 99.424489 70.36461 
Q 94.241543 73.684405 92.141264 75.987937 
" clip-path="url(#p30e30c2c42)" style="fill: none; stroke: #000000; stroke-linejoin: miter"/>
   </g>
  </g>
  <g id="axes_4">
   <g id="patch_5">
    <path d="M 123.951009 92.464885 
Q 126.26196 93.777925 127.417435 95.931311 
L 129.465778 97.979654 
M 121.745101 86.162291 
L 122.060231 86.162291 
Q 122.743012 85.79464 124.581268 85.847161 
Q 125.789265 85.847161 130.621254 85.085598 
Q 135.453242 84.324035 135.453242 83.956383 
Q 135.453242 85.742118 133.720029 88.604546 
Q 131.986816 91.466974 130.253602 93.410274 
L 127.575 95.616182 
M 124.738833 76.708401 
L 125.211527 76.708401 
Q 125.579179 76.708401 126.051873 77.02353 
Q 126.524568 77.33866 127.023523 77.811354 
Q 127.522478 78.284049 127.732565 78.441614 
L 128.362824 80.332392 
M 125.211527 69.145288 
Q 126.944741 69.723026 130.253602 72.611715 
Q 130.621254 72.926844 131.960555 74.187363 
Q 133.299856 75.447882 134.245245 76.209445 
Q 135.190634 76.971009 136.529935 77.99518 
Q 137.869236 79.019352 139.077233 79.518307 
Q 140.285231 80.017262 141.283141 80.017262 
L 142.22853 80.017262 
L 143.173919 80.647522 
M 127.102305 65.521297 
Q 127.102305 65.783905 127.023523 66.046513 
Q 126.944741 66.309121 126.813437 66.59799 
Q 126.682133 66.886859 126.629611 67.096945 
Q 126.472046 67.359553 126.209438 67.884769 
Q 124.791354 70.563372 123.898487 72.060238 
Q 123.00562 73.557104 121.37745 75.763012 
Q 119.74928 77.968919 117.911023 79.360742 
Q 116.072767 80.752565 113.866859 81.435346 
Q 113.499207 81.435346 112.895209 81.724215 
Q 112.29121 82.013084 111.976081 82.065605 
" clip-path="url(#p7147a4ad66)" style="fill: none; stroke: #000000; stroke-linejoin: miter"/>
   </g>
  </g>
  <g id="axes_5">
   <g id="patch_6">
    <path d="M 160.68873 75.515902 
Q 161.983402 78.553402 163.053996 80.644795 
Q 164.12459 82.736189 165.767828 85.101455 
Q 167.411066 87.466721 169.253484 89.035266 
Q 171.095902 90.603811 173.759939 92.022971 
Q 176.423975 93.442131 179.760246 94.338443 
M 163.228279 66.254016 
Q 162.680533 70.586189 161.012398 75.565697 
Q 159.344262 80.545205 155.933299 85.947971 
Q 152.522336 91.350738 148.289754 94.189057 
" clip-path="url(#p23983f9b7c)" style="fill: none; stroke: #000000; stroke-linejoin: miter"/>
   </g>
  </g>
  <g id="axes_6">
   <g id="patch_7">
    <path d="M 203.569811 88.222616 
Q 204.757719 88.972873 206.57084 90.942298 
Q 208.383962 92.911724 209.009177 93.474417 
L 210.509691 96.287882 
M 195.879674 87.472358 
Q 194.691767 92.474074 192.315952 95.35006 
L 191.003002 96.100317 
M 210.322127 66.652719 
Q 210.072041 67.215412 209.384305 69.091055 
Q 208.696569 70.966698 208.071355 71.90452 
Q 206.945969 73.530077 202.069297 80.344914 
L 201.131475 81.845429 
M 195.316981 69.091055 
L 195.879674 69.653748 
L 199.630961 76.406063 
M 189.877616 72.279648 
L 193.816467 78.281707 
M 185.376072 82.595686 
L 215.573928 81.407779 
" clip-path="url(#pa5268703aa)" style="fill: none; stroke: #000000; stroke-linejoin: miter"/>
   </g>
  </g>
  <g id="axes_7">
   <g id="patch_8">
    <path d="M 230.865419 89.846269 
L 231.420495 89.846269 
Q 231.466751 89.846269 232.692544 89.753756 
Q 233.918338 89.661244 234.057107 89.661244 
L 243.262119 88.551091 
M 237.248794 83.740431 
L 237.248794 84.434277 
Q 237.248794 85.220635 237.225666 86.839607 
Q 237.202538 88.458579 237.202538 89.476218 
Q 237.202538 90.493858 237.248794 91.904676 
Q 237.295051 93.315495 237.43382 94.425647 
M 230.449112 95.39703 
L 244.048477 95.258261 
M 227.8125 83.601662 
Q 229.847779 83.462893 235.837976 83.25474 
Q 241.828173 83.046586 245.343655 82.584023 
Q 245.621193 82.584023 245.621193 82.722792 
Q 245.621193 86.79335 244.048477 95.258261 
M 227.8125 82.769048 
L 227.8125 83.462893 
Q 227.8125 84.711815 228.205679 86.122633 
Q 228.598858 87.533452 229.269575 89.221808 
Q 229.940292 90.910165 230.171574 91.789036 
L 230.449112 96.692208 
M 240.579251 72.638909 
Q 241.73566 77.357056 245.042989 81.381358 
Q 248.350317 85.40566 252.837183 86.885863 
M 226.147272 74.581675 
L 227.118655 74.581675 
Q 228.090038 74.581675 229.20019 74.466034 
Q 230.310343 74.350393 231.674905 74.165368 
Q 233.039467 73.980343 233.779569 73.88783 
L 251.125698 72.361371 
M 235.02849 67.504454 
L 235.02849 67.781992 
Q 235.02849 69.07717 234.866593 70.302963 
Q 234.704695 71.528756 234.219004 72.731421 
Q 233.733312 73.934086 233.409518 74.789829 
Q 233.085723 75.645571 232.183725 76.848236 
Q 231.281726 78.050901 230.888547 78.652234 
Q 230.495368 79.253566 229.292703 80.502487 
Q 228.090038 81.751409 227.743115 82.098331 
Q 227.396193 82.445254 225.985374 83.809816 
Q 224.574556 85.174378 224.343274 85.40566 
L 221.012817 87.487195 
" clip-path="url(#p320bff3b1a)" style="fill: none; stroke: #000000; stroke-linejoin: miter"/>
   </g>
  </g>
  <g id="axes_8">
   <g id="patch_9">
    <path d="M 278.17425 76.707 
Q 279.99675 77.193 283.64175 79.80525 
M 275.4405 68.87025 
Q 277.8705 69.0525 281.637 68.110875 
Q 285.4035 67.16925 286.74 67.04775 
Q 287.40825 67.04775 287.77275 67.199625 
Q 288.13725 67.3515 288.25875 67.746375 
Q 288.38025 68.14125 288.349875 68.536125 
Q 288.3195 68.931 288.25875 69.7815 
Q 288.198 70.632 288.198 71.2395 
Q 288.5625 78.165 287.28675 92.92725 
Q 287.28675 93.53475 287.28675 94.02075 
Q 287.28675 94.50675 287.256375 94.87125 
Q 287.226 95.23575 286.952625 95.448375 
Q 286.67925 95.661 286.011 95.661 
L 284.9175 95.661 
L 281.09025 93.1095 
M 278.3565 61.21575 
L 278.3565 61.7625 
Q 278.3565 63.099 277.749 64.86075 
Q 277.1415 66.6225 276.1695 68.688 
Q 275.1975 70.7535 274.89375 71.604 
L 273.80025 73.4265 
M 259.8885 93.474 
L 261.52875 93.474 
L 271.00575 92.92725 
M 259.8885 80.7165 
L 269.001 80.352 
M 258.1875 71.118 
L 261.28575 71.118 
Q 262.0755 71.118 264.56625 70.57125 
Q 267.057 70.0245 269.1225 69.47775 
Q 271.188 68.931 271.188 68.87025 
Q 271.188 86.5485 270.8235 92.016 
L 270.27675 96.0255 
M 258.9165 69.2955 
L 258.9165 69.84225 
Q 258.9165 72.63675 259.58475 77.891625 
Q 260.253 83.1465 260.253 86.00175 
L 260.253 92.016 
L 259.524 93.8385 
M 268.81875 62.67375 
Q 268.08975 63.15975 267.23925 64.6785 
Q 266.38875 66.19725 265.7205 66.68325 
L 264.2625 69.96375 
" clip-path="url(#p5091d65fa9)" style="fill: none; stroke: #000000; stroke-linejoin: miter"/>
   </g>
  </g>
  <g id="axes_9">
   <g id="patch_10">
    <path d="M 310.714581 94.919531 
L 323.305569 94.919531 
M 310.395244 87.164212 
Q 311.398874 87.118592 314.272904 87.004543 
Q 317.146934 86.890494 319.177003 86.730826 
Q 321.207071 86.571158 322.894994 86.297441 
L 323.123091 86.34306 
Q 323.077472 86.434299 323.168711 86.571158 
L 321.663267 93.824662 
L 321.389549 94.372096 
M 310.258385 87.848504 
L 310.851439 95.193248 
M 316.462641 67.912772 
L 316.462641 82.51102 
M 309.482854 84.016464 
Q 310.486483 83.286552 313.976377 82.990025 
Q 317.46627 82.693498 318.104944 82.51102 
L 325.769024 82.237303 
M 307.794931 77.72097 
L 308.342365 77.72097 
Q 310.532103 77.72097 315.61868 76.991058 
Q 320.705257 76.261145 321.663267 76.169906 
L 325.221589 75.485613 
M 293.880976 95.512584 
Q 294.610889 95.147628 296.549718 93.961521 
Q 298.488548 92.775413 299.629036 92.227979 
L 306.335106 89.490807 
M 305.240238 75.257516 
Q 300.22209 84.791996 296.481289 89.080232 
L 303.324218 86.206202 
L 303.734793 86.069343 
M 301.545056 68.414587 
L 300.450188 71.425476 
Q 300.085232 72.246627 297.165582 77.310394 
Q 297.074343 77.447253 296.663767 78.063116 
Q 296.253191 78.67898 295.956665 79.203605 
Q 295.660138 79.728229 295.660138 80.047566 
L 296.253191 80.047566 
Q 296.846245 80.047566 297.028723 80.047566 
L 302.366208 79.63699 
" clip-path="url(#p8ca5d49bd6)" style="fill: none; stroke: #000000; stroke-linejoin: miter"/>
   </g>
  </g>
  <g id="axes_10">
   <g id="patch_11">
    <path d="M 345.553956 86.064986 
L 346.001501 86.064986 
Q 347.642497 86.064986 349.482401 85.468261 
Q 351.322306 84.871535 353.485437 83.852128 
Q 355.648568 82.832722 356.742565 82.484632 
L 358.532742 81.29118 
M 346.449045 77.710825 
L 346.449045 78.456733 
Q 346.449045 78.705368 346.449045 79.774502 
Q 346.449045 80.843636 346.399318 81.490089 
Q 346.349591 82.136542 346.150682 82.782995 
Q 346.001501 83.329993 345.951774 83.951583 
Q 345.902046 84.573172 345.951774 85.493124 
Q 346.001501 86.413076 346.001501 86.661712 
Q 346.001501 87.208711 346.225273 88.17839 
Q 346.449045 89.14807 346.449045 89.645341 
L 346.449045 92.778151 
Q 346.349591 94.071057 346.921453 94.941282 
Q 347.493315 95.811508 348.512722 96.184461 
Q 349.532128 96.557415 350.526671 96.656869 
Q 351.521214 96.756323 352.714666 96.656869 
Q 355.449659 96.45796 360.173738 95.76178 
L 360.32292 91.733881 
M 350.72558 70.102572 
Q 353.211937 71.445205 355.847476 74.080744 
Q 356.692838 74.926105 358.184652 76.293602 
Q 359.676467 77.661098 360.521828 78.50646 
L 362.013643 79.103186 
M 350.874761 66.671398 
L 349.532128 70.848479 
L 342.5206 78.755095 
L 340.581241 79.650184 
M 334.713438 71.494932 
L 339.487244 74.031016 
M 330.536357 80.445819 
L 330.983902 80.445819 
Q 331.033629 80.445819 331.87899 80.296637 
L 334.862619 79.103186 
L 338.144611 77.909734 
L 337.249523 81.042544 
Q 337.199795 81.98736 336.503615 87.009802 
Q 336.404161 87.904891 336.031207 90.043158 
Q 335.658254 92.181426 335.484209 93.747831 
Q 335.310164 95.314236 335.310164 96.706596 
Q 335.210709 97.502231 335.459345 97.502231 
Q 335.658254 97.502231 337.000887 96.259052 
Q 337.846248 95.41369 338.293793 95.363963 
Q 338.492701 95.115327 339.089427 94.767237 
Q 339.686153 94.419147 339.959652 94.046194 
Q 340.233151 93.67324 340.08397 93.126241 
" clip-path="url(#p6dc5cab441)" style="fill: none; stroke: #000000; stroke-linejoin: miter"/>
   </g>
  </g>
  <g id="axes_11">
   <g id="patch_12">
    <path d="M 379.435283 83.125552 
Q 379.519634 83.294255 380.110097 83.842541 
Q 380.700559 84.390828 380.953614 84.643883 
Q 381.206669 84.896938 381.754955 85.529576 
Q 382.303241 86.162214 382.640648 86.541797 
Q 382.978055 86.921379 383.484166 87.596193 
Q 383.990276 88.271007 384.285507 88.734941 
Q 384.580738 89.198876 384.918145 89.87369 
Q 385.255552 90.548503 385.466431 91.09679 
Q 385.67731 91.645076 385.846014 92.277714 
Q 386.014717 92.910352 386.014717 93.500814 
Q 386.014717 94.76609 385.67731 95.862662 
Q 385.339903 96.959234 384.707266 98.182334 
Q 384.074628 99.405434 383.737221 100.333303 
L 381.206669 102.863855 
" clip-path="url(#p61ee8fd666)" style="fill: none; stroke: #000000; stroke-linejoin: miter"/>
   </g>
  </g>
 </g>
 <defs>
  <clipPath id="p3bbd4bea89">
   <rect x="0" y="44.689769" width="36.45" height="71.810462"/>
  </clipPath>
  <clipPath id="p22050ed77d">
   <rect x="36.45" y="23.14663" width="36.45" height="114.896739"/>
  </clipPath>
  <clipPath id="p30e30c2c42">
   <rect x="72.9" y="31.475576" width="36.45" height="98.238848"/>
  </clipPath>
  <clipPath id="p7147a4ad66">
   <rect x="109.35" y="42.51683" width="36.45" height="76.15634"/>
  </clipPath>
  <clipPath id="p23983f9b7c">
   <rect x="145.8" y="44.493566" width="36.45" height="72.202869"/>
  </clipPath>
  <clipPath id="pa5268703aa">
   <rect x="182.25" y="35.266955" width="36.45" height="90.656089"/>
  </clipPath>
  <clipPath id="p320bff3b1a">
   <rect x="218.7" y="47.05915" width="36.45" height="67.071701"/>
  </clipPath>
  <clipPath id="p5091d65fa9">
   <rect x="255.15" y="36.55125" width="36.45" height="88.0875"/>
  </clipPath>
  <clipPath id="p8ca5d49bd6">
   <rect x="291.6" y="47.520845" width="36.45" height="66.14831"/>
  </clipPath>
  <clipPath id="p6dc5cab441">
   <rect x="328.05" y="44.542817" width="36.45" height="72.104366"/>
  </clipPath>
  <clipPath id="p61ee8fd666">
   <rect x="375.217697" y="19.44" width="15.014607" height="122.31"/>
  </clipPath>
 </defs>
</svg>
