<?xml version="1.0" encoding="utf-8" standalone="no"?>
<!DOCTYPE svg PUBLIC "-//W3C//DTD SVG 1.1//EN"
  "http://www.w3.org/Graphics/SVG/1.1/DTD/svg11.dtd">
<svg xmlns:xlink="http://www.w3.org/1999/xlink" width="468pt" height="72pt" viewBox="0 0 468 72" xmlns="http://www.w3.org/2000/svg" version="1.1">
 <metadata>
  <rdf:RDF xmlns:dc="http://purl.org/dc/elements/1.1/" xmlns:cc="http://creativecommons.org/ns#" xmlns:rdf="http://www.w3.org/1999/02/22-rdf-syntax-ns#">
   <cc:Work>
    <dc:type rdf:resource="http://purl.org/dc/dcmitype/StillImage"/>
    <dc:date>2023-02-15T23:00:54.858196</dc:date>
    <dc:format>image/svg+xml</dc:format>
    <dc:creator>
     <cc:Agent>
      <dc:title>Matplotlib v3.6.1, https://matplotlib.org/</dc:title>
     </cc:Agent>
    </dc:creator>
   </cc:Work>
  </rdf:RDF>
 </metadata>
 <defs>
  <style type="text/css">*{stroke-linejoin: round; stroke-linecap: butt}</style>
 </defs>
 <g id="figure_1">
  <g id="patch_1">
   <path d="M 0 72 
L 468 72 
L 468 0 
L 0 0 
z
" style="fill: #8fff9f"/>
  </g>
  <g id="axes_1">
   <g id="patch_2">
    <path d="M 2.963917 36.382345 
Q 2.926428 36.494814 3.057641 36.701007 
Q 3.188855 36.9072 3.076386 37.057159 
L 3.076386 39.306538 
Q 3.076386 40.506207 3.413793 41.724621 
Q 3.7512 42.943034 4.613462 43.93651 
Q 5.475724 44.929986 6.675393 44.929986 
Q 7.912552 44.929986 8.587366 43.861531 
Q 9.262179 42.793076 9.712055 41.143531 
Q 10.161931 39.493986 10.499338 38.969131 
L 11.286621 36.382345 
L 11.061683 42.680607 
L 11.061683 45.154924 
Q 11.061683 47.066897 11.792731 51.00331 
Q 12.523779 54.939724 12.523779 56.964166 
Q 13.273572 59.213545 12.186372 60.188276 
Q 11.099172 61.163007 9.037241 60.78811 
Q 7.237738 60.488193 6.319241 60.169531 
Q 5.400745 59.850869 3.413793 58.988607 
L 3.301324 58.426262 
" clip-path="url(#pda626e97eb)" style="fill: none; stroke: #000000; stroke-linejoin: miter"/>
   </g>
  </g>
  <g id="axes_2">
   <g id="patch_3">
    <path d="M 20.53229 29.671697 
Q 21.207103 30.159062 22.612966 31.283752 
Q 24.018828 32.408441 24.131297 32.483421 
L 25.9308 33.60811 
M 24.80611 36.982179 
L 24.131297 36.982179 
Q 21.132124 36.982179 19.98869 38.781683 
Q 18.845255 40.581186 18.845255 43.842786 
Q 18.845255 45.229903 20.119903 46.373338 
Q 21.394552 47.516772 23.006607 48.097862 
Q 24.618662 48.678952 25.9308 48.678952 
Q 29.754745 48.678952 29.754745 42.718097 
Q 29.754745 41.518428 28.873738 40.431228 
Q 27.992731 39.344028 26.624359 38.219338 
Q 25.255986 37.094648 24.80611 36.532303 
L 24.131297 36.194897 
" clip-path="url(#p2715f2ec96)" style="fill: none; stroke: #000000; stroke-linejoin: miter"/>
   </g>
  </g>
  <g id="axes_3">
   <g id="patch_4">
    <path d="M 36.038731 37.282097 
L 36.038731 37.844441 
Q 36.301159 39.868883 36.338648 41.312234 
Q 36.376138 42.755586 36.282414 44.667559 
Q 36.18869 46.579531 36.18869 48.191586 
L 36.263669 39.643945 
Q 36.263669 38.144359 37.856979 37.507034 
Q 39.45029 36.86971 40.874897 37.282097 
Q 42.786869 37.844441 43.705366 39.04411 
Q 44.623862 40.243779 44.680097 41.668386 
Q 44.736331 43.092993 44.773821 44.817517 
Q 44.81131 46.542041 44.961269 48.191586 
" clip-path="url(#p008e52583d)" style="fill: none; stroke: #000000; stroke-linejoin: miter"/>
   </g>
  </g>
  <g id="axes_4">
   <g id="patch_5">
    <path d="M 61.487191 39.096404 
Q 61.23236 39.023596 60.26764 38.623146 
Q 59.302921 38.222697 58.64764 38.077079 
Q 57.99236 37.931461 57.337079 38.00427 
Q 54.715955 38.00427 53.077753 40.388764 
Q 51.439551 42.773258 51.439551 45.430787 
Q 51.439551 47.068989 56.681798 47.068989 
Q 58.247191 47.068989 59.575955 45.558202 
Q 60.904719 44.047416 61.578202 42.172584 
Q 62.251685 40.297753 62.251685 38.768764 
Q 62.251685 37.27618 62.215281 36.984944 
L 62.142472 38.077079 
Q 62.142472 38.550337 62.142472 38.987191 
Q 62.178876 40.188539 62.379101 42.281798 
Q 62.579326 44.375056 62.743146 46.049663 
Q 62.906966 47.72427 62.943371 49.872135 
Q 62.979775 52.02 62.815955 53.658202 
Q 62.652135 55.296404 62.087865 56.971011 
Q 61.523596 58.645618 60.595281 59.737753 
Q 59.666966 60.829888 58.065169 61.521573 
Q 56.463371 62.213258 54.315506 62.213258 
Q 52.677303 62.213258 51.585169 61.466966 
Q 50.493034 60.720674 50.493034 59.155281 
Q 50.420225 58.936854 50.456629 58.936854 
Q 50.493034 58.936854 50.602247 58.936854 
Q 50.711461 58.936854 50.711461 58.82764 
" clip-path="url(#p25ffca091c)" style="fill: none; stroke: #000000; stroke-linejoin: miter"/>
   </g>
  </g>
  <g id="axes_5"/>
  <g id="axes_6">
   <g id="patch_6">
    <path d="M 83.963917 36.382345 
Q 83.926428 36.494814 84.057641 36.701007 
Q 84.188855 36.9072 84.076386 37.057159 
L 84.076386 39.306538 
Q 84.076386 40.506207 84.413793 41.724621 
Q 84.7512 42.943034 85.613462 43.93651 
Q 86.475724 44.929986 87.675393 44.929986 
Q 88.912552 44.929986 89.587366 43.861531 
Q 90.262179 42.793076 90.712055 41.143531 
Q 91.161931 39.493986 91.499338 38.969131 
L 92.286621 36.382345 
L 92.061683 42.680607 
L 92.061683 45.154924 
Q 92.061683 47.066897 92.792731 51.00331 
Q 93.523779 54.939724 93.523779 56.964166 
Q 94.273572 59.213545 93.186372 60.188276 
Q 92.099172 61.163007 90.037241 60.78811 
Q 88.237738 60.488193 87.319241 60.169531 
Q 86.400745 59.850869 84.413793 58.988607 
L 84.301324 58.426262 
" clip-path="url(#p122946154d)" style="fill: none; stroke: #000000; stroke-linejoin: miter"/>
   </g>
  </g>
  <g id="axes_7">
   <g id="patch_7">
    <path d="M 101.551034 31.283752 
Q 101.588524 31.396221 101.888441 32.164759 
Q 102.188359 32.933297 102.394552 33.270703 
Q 102.600745 33.60811 102.975641 34.15171 
Q 103.350538 34.69531 103.837903 34.920248 
Q 104.325269 35.145186 104.925103 35.107697 
Q 105.487448 35.107697 105.862345 34.620331 
Q 106.237241 34.132966 106.555903 33.383172 
Q 106.874566 32.633379 107.062014 32.408441 
L 107.961766 29.821655 
M 100.538814 37.881931 
L 100.538814 38.219338 
Q 100.538814 39.156579 100.44509 40.693655 
Q 100.351366 42.230731 100.351366 43.205462 
Q 100.351366 44.967476 101.53229 46.335848 
Q 102.713214 47.704221 104.400248 47.704221 
Q 105.787366 47.704221 106.780841 45.267393 
Q 107.774317 42.830566 108.074234 40.431228 
L 108.374152 37.9944 
Q 108.374152 39.156579 108.52411 41.668386 
Q 108.674069 44.180193 108.674069 45.342372 
Q 108.674069 45.492331 108.805283 45.773503 
Q 108.936497 46.054676 109.123945 46.354593 
Q 109.311393 46.65451 109.348883 46.692 
L 110.248634 47.81669 
" clip-path="url(#p99955b96c8)" style="fill: none; stroke: #000000; stroke-linejoin: miter"/>
   </g>
  </g>
  <g id="axes_8">
   <g id="patch_8">
    <path d="M 116.363917 36.382345 
Q 116.326428 36.494814 116.457641 36.701007 
Q 116.588855 36.9072 116.476386 37.057159 
L 116.476386 39.306538 
Q 116.476386 40.506207 116.813793 41.724621 
Q 117.1512 42.943034 118.013462 43.93651 
Q 118.875724 44.929986 120.075393 44.929986 
Q 121.312552 44.929986 121.987366 43.861531 
Q 122.662179 42.793076 123.112055 41.143531 
Q 123.561931 39.493986 123.899338 38.969131 
L 124.686621 36.382345 
L 124.461683 42.680607 
L 124.461683 45.154924 
Q 124.461683 47.066897 125.192731 51.00331 
Q 125.923779 54.939724 125.923779 56.964166 
Q 126.673572 59.213545 125.586372 60.188276 
Q 124.499172 61.163007 122.437241 60.78811 
Q 120.637738 60.488193 119.719241 60.169531 
Q 118.800745 59.850869 116.813793 58.988607 
L 116.701324 58.426262 
" clip-path="url(#p52f564b41b)" style="fill: none; stroke: #000000; stroke-linejoin: miter"/>
   </g>
  </g>
  <g id="axes_9">
   <g id="patch_9">
    <path d="M 134.719572 33.795559 
L 134.719572 33.570621 
Q 134.719572 33.383172 134.775807 33.289448 
Q 134.832041 33.195724 134.907021 33.13949 
Q 134.982 33.083255 135.131959 32.989531 
Q 135.281917 32.895807 135.394386 32.783338 
L 139.555738 28.059641 
M 141.46771 37.619503 
L 138.318579 37.619503 
Q 138.20611 37.656993 137.943683 37.731972 
Q 134.719572 38.669214 133.819821 39.381517 
Q 132.282745 40.731145 132.245255 44.142703 
Q 132.245255 45.267393 133.107517 46.167145 
Q 133.969779 47.066897 135.056979 47.066897 
Q 135.919241 46.954428 136.706524 46.485807 
Q 137.493807 46.017186 137.999917 45.473586 
Q 138.506028 44.929986 139.049628 43.93651 
Q 139.593228 42.943034 139.8744 42.324455 
Q 140.155572 41.705876 140.605448 40.543697 
Q 141.055324 39.381517 141.242772 38.969131 
Q 141.580179 38.144359 141.692648 38.200593 
Q 141.805117 38.256828 141.692648 39.456497 
L 141.580179 40.993572 
Q 141.580179 41.031062 141.917586 44.705048 
L 143.154745 47.066897 
" clip-path="url(#pe3d67addcd)" style="fill: none; stroke: #000000; stroke-linejoin: miter"/>
   </g>
  </g>
  <g id="axes_10">
   <g id="patch_10">
    <path d="M 149.438731 37.282097 
L 149.438731 37.844441 
Q 149.701159 39.868883 149.738648 41.312234 
Q 149.776138 42.755586 149.682414 44.667559 
Q 149.58869 46.579531 149.58869 48.191586 
L 149.663669 39.643945 
Q 149.663669 38.144359 151.256979 37.507034 
Q 152.85029 36.86971 154.274897 37.282097 
Q 156.186869 37.844441 157.105366 39.04411 
Q 158.023862 40.243779 158.080097 41.668386 
Q 158.136331 43.092993 158.173821 44.817517 
Q 158.21131 46.542041 158.361269 48.191586 
" clip-path="url(#pf36c17cd77)" style="fill: none; stroke: #000000; stroke-linejoin: miter"/>
   </g>
  </g>
  <g id="axes_11"/>
  <g id="axes_12">
   <g id="patch_11">
    <path d="M 185.906359 28.621986 
Q 186.131297 30.34651 186.206276 32.146014 
Q 186.281255 33.945517 186.26251 36.551048 
Q 186.243766 39.156579 186.243766 40.093821 
Q 186.243766 40.13131 186.468703 45.829738 
L 186.693641 46.841959 
" clip-path="url(#p8fb658b22e)" style="fill: none; stroke: #000000; stroke-linejoin: miter"/>
   </g>
  </g>
  <g id="axes_13">
   <g id="patch_12">
    <path d="M 199.519572 33.795559 
L 199.519572 33.570621 
Q 199.519572 33.383172 199.575807 33.289448 
Q 199.632041 33.195724 199.707021 33.13949 
Q 199.782 33.083255 199.931959 32.989531 
Q 200.081917 32.895807 200.194386 32.783338 
L 204.355738 28.059641 
M 206.26771 37.619503 
L 203.118579 37.619503 
Q 203.00611 37.656993 202.743683 37.731972 
Q 199.519572 38.669214 198.619821 39.381517 
Q 197.082745 40.731145 197.045255 44.142703 
Q 197.045255 45.267393 197.907517 46.167145 
Q 198.769779 47.066897 199.856979 47.066897 
Q 200.719241 46.954428 201.506524 46.485807 
Q 202.293807 46.017186 202.799917 45.473586 
Q 203.306028 44.929986 203.849628 43.93651 
Q 204.393228 42.943034 204.6744 42.324455 
Q 204.955572 41.705876 205.405448 40.543697 
Q 205.855324 39.381517 206.042772 38.969131 
Q 206.380179 38.144359 206.492648 38.200593 
Q 206.605117 38.256828 206.492648 39.456497 
L 206.380179 40.993572 
Q 206.380179 41.031062 206.717586 44.705048 
L 207.954745 47.066897 
" clip-path="url(#pa07bda82b0)" style="fill: none; stroke: #000000; stroke-linejoin: miter"/>
   </g>
  </g>
  <g id="axes_14">
   <g id="patch_13">
    <path d="M 219.318579 29.071862 
Q 218.943683 29.146841 218.812469 29.577972 
Q 218.681255 30.009103 218.756234 30.42149 
Q 218.756234 30.571448 218.793724 30.702662 
Q 218.831214 30.833876 218.887448 30.89011 
Q 218.943683 30.946345 218.999917 31.040069 
Q 219.056152 31.133793 219.093641 31.208772 
L 219.20611 29.859145 
M 219.20611 34.020497 
Q 218.306359 39.006621 218.081421 42.793076 
L 218.531297 45.379862 
L 218.868703 46.054676 
" clip-path="url(#pc3a5a8b45d)" style="fill: none; stroke: #000000; stroke-linejoin: miter"/>
   </g>
  </g>
  <g id="axes_15"/>
  <g id="axes_16">
   <g id="patch_14">
    <path d="M 244.808036 34.879821 
Q 245.314286 36.073125 245.603571 42.871339 
Q 245.748214 46.632054 246.0375 46.632054 
Q 246.073661 46.632054 246.109821 46.595893 
Q 246.616071 46.017321 246.670312 44.588973 
Q 246.724554 43.160625 246.507589 41.750357 
Q 246.290625 40.340089 246.0375 38.712857 
Q 245.784375 37.085625 245.784375 36.398571 
Q 245.784375 35.169107 246.164062 33.939643 
Q 246.54375 32.710179 247.520089 32.710179 
Q 248.749554 32.710179 249.472768 34.355491 
Q 250.195982 36.000804 250.358705 37.971563 
Q 250.521429 39.942321 250.629911 41.587634 
Q 250.738393 43.232946 250.883036 43.232946 
Q 251.027679 43.232946 251.11808 41.497232 
Q 251.208482 39.761518 251.335045 37.700357 
Q 251.461607 35.639196 252.184821 33.903482 
Q 252.908036 32.167768 254.1375 32.167768 
Q 255.692411 33.035625 256.361384 34.771339 
Q 257.030357 36.507054 256.994196 38.188527 
Q 256.958036 39.87 256.976116 42.057723 
Q 256.994196 44.245446 257.391964 45.511071 
" clip-path="url(#p7692750ef6)" style="fill: none; stroke: #000000; stroke-linejoin: miter"/>
   </g>
  </g>
  <g id="axes_17">
   <g id="patch_15">
    <path d="M 267.918579 29.071862 
Q 267.543683 29.146841 267.412469 29.577972 
Q 267.281255 30.009103 267.356234 30.42149 
Q 267.356234 30.571448 267.393724 30.702662 
Q 267.431214 30.833876 267.487448 30.89011 
Q 267.543683 30.946345 267.599917 31.040069 
Q 267.656152 31.133793 267.693641 31.208772 
L 267.80611 29.859145 
M 267.80611 34.020497 
Q 266.906359 39.006621 266.681421 42.793076 
L 267.131297 45.379862 
L 267.468703 46.054676 
" clip-path="url(#pa946d1bac7)" style="fill: none; stroke: #000000; stroke-linejoin: miter"/>
   </g>
  </g>
  <g id="axes_18">
   <g id="patch_16">
    <path d="M 280.519572 33.795559 
L 280.519572 33.570621 
Q 280.519572 33.383172 280.575807 33.289448 
Q 280.632041 33.195724 280.707021 33.13949 
Q 280.782 33.083255 280.931959 32.989531 
Q 281.081917 32.895807 281.194386 32.783338 
L 285.355738 28.059641 
M 287.26771 37.619503 
L 284.118579 37.619503 
Q 284.00611 37.656993 283.743683 37.731972 
Q 280.519572 38.669214 279.619821 39.381517 
Q 278.082745 40.731145 278.045255 44.142703 
Q 278.045255 45.267393 278.907517 46.167145 
Q 279.769779 47.066897 280.856979 47.066897 
Q 281.719241 46.954428 282.506524 46.485807 
Q 283.293807 46.017186 283.799917 45.473586 
Q 284.306028 44.929986 284.849628 43.93651 
Q 285.393228 42.943034 285.6744 42.324455 
Q 285.955572 41.705876 286.405448 40.543697 
Q 286.855324 39.381517 287.042772 38.969131 
Q 287.380179 38.144359 287.492648 38.200593 
Q 287.605117 38.256828 287.492648 39.456497 
L 287.380179 40.993572 
Q 287.380179 41.031062 287.717586 44.705048 
L 288.954745 47.066897 
" clip-path="url(#pc45cef13b2)" style="fill: none; stroke: #000000; stroke-linejoin: miter"/>
   </g>
  </g>
  <g id="axes_19">
   <g id="patch_17">
    <path d="M 302.9616 35.032717 
Q 301.91189 34.582841 300.937159 34.69531 
Q 297.900497 35.032717 295.988524 36.701007 
Q 294.076552 38.369297 294.076552 41.330979 
Q 294.076552 43.917766 296.082248 45.6048 
Q 298.087945 47.291834 300.712221 47.291834 
Q 303.074069 47.291834 304.198759 45.361117 
Q 305.323448 43.4304 305.323448 40.881103 
Q 305.323448 39.643945 304.911062 38.706703 
Q 304.498676 37.769462 303.973821 37.300841 
Q 303.448966 36.832221 302.699172 36.119917 
Q 301.949379 35.407614 301.499503 34.69531 
L 300.262345 34.245434 
" clip-path="url(#pe98c6692e1)" style="fill: none; stroke: #000000; stroke-linejoin: miter"/>
   </g>
  </g>
  <g id="axes_20">
   <g id="patch_18">
    <path d="M 311.457476 43.917766 
Q 311.757393 44.180193 312.769614 45.154924 
Q 313.781834 46.129655 314.344179 46.560786 
Q 314.906524 46.991917 315.93749 47.385559 
Q 316.968455 47.7792 317.980676 47.629241 
Q 318.65549 47.629241 319.12411 47.404303 
Q 319.592731 47.179366 319.817669 46.879448 
Q 320.042607 46.579531 320.173821 45.979697 
Q 320.305034 45.379862 320.323779 44.967476 
Q 320.342524 44.55509 320.342524 43.805297 
Q 320.342524 42.718097 319.442772 42.043283 
Q 318.543021 41.368469 317.249628 41.031062 
Q 315.956234 40.693655 314.662841 40.300014 
Q 313.369448 39.906372 312.469697 38.987876 
Q 311.569945 38.069379 311.569945 36.607283 
Q 311.569945 36.082428 311.738648 35.726276 
Q 311.907352 35.370124 312.300993 35.145186 
Q 312.694634 34.920248 312.975807 34.807779 
Q 313.256979 34.69531 313.913048 34.639076 
Q 314.569117 34.582841 314.756566 34.582841 
Q 314.944014 34.582841 315.618828 34.582841 
Q 316.818497 34.582841 317.399586 34.995228 
Q 317.980676 35.407614 318.299338 36.026193 
Q 318.618 36.644772 318.880428 36.832221 
" clip-path="url(#pd00e457aa3)" style="fill: none; stroke: #000000; stroke-linejoin: miter"/>
   </g>
  </g>
  <g id="axes_21">
   <g id="patch_19">
    <path d="M 328.613462 35.932469 
Q 329.213297 35.257655 330.206772 34.826524 
Q 331.200248 34.395393 332.1 34.470372 
Q 332.737324 34.470372 333.22469 34.639076 
Q 333.712055 34.807779 334.030717 34.995228 
Q 334.349379 35.182676 334.574317 35.670041 
Q 334.799255 36.157407 334.911724 36.419834 
Q 335.024193 36.682262 335.080428 37.375821 
Q 335.136662 38.069379 335.155407 38.331807 
Q 335.174152 38.594234 335.155407 39.419007 
Q 335.136662 40.243779 335.136662 40.431228 
Q 335.136662 41.368469 334.967959 43.242952 
Q 334.799255 45.117434 334.799255 46.054676 
Q 334.799255 46.467062 334.85549 46.823214 
Q 334.911724 47.179366 335.005448 47.610497 
Q 335.099172 48.041628 335.136662 48.304055 
L 335.586538 48.528993 
M 329.063338 23.111007 
Q 329.288276 24.798041 329.288276 29.971614 
L 329.288276 42.3432 
L 328.950869 46.841959 
L 328.725931 47.74171 
" clip-path="url(#p67e39e4907)" style="fill: none; stroke: #000000; stroke-linejoin: miter"/>
   </g>
  </g>
  <g id="axes_22">
   <g id="patch_20">
    <path d="M 345.563255 30.608938 
Q 346.687945 31.096303 348.112552 32.989531 
Q 349.537159 34.882759 350.062014 35.332634 
M 344.363586 38.706703 
Q 344.213628 38.819172 344.194883 39.025366 
Q 344.176138 39.231559 344.213628 39.475241 
Q 344.251117 39.718924 344.251117 39.831393 
Q 344.251117 40.993572 344.401076 42.155752 
Q 344.551034 43.317931 344.925931 44.742538 
Q 345.300828 46.167145 346.16309 47.048152 
Q 347.025352 47.929159 348.3 47.929159 
Q 349.687117 47.404303 350.305697 45.848483 
Q 350.924276 44.292662 351.167959 41.649641 
Q 351.411641 39.006621 351.5616 38.369297 
Q 352.048966 45.267393 352.086455 46.392083 
L 352.423862 48.079117 
" clip-path="url(#pe43ab182a1)" style="fill: none; stroke: #000000; stroke-linejoin: miter"/>
   </g>
  </g>
  <g id="axes_23"/>
  <g id="axes_24">
   <g id="patch_21">
    <path d="M 375.863834 37.95691 
L 376.538648 37.95691 
Q 377.250952 37.95691 378.038234 37.881931 
Q 378.825517 37.806952 379.781503 37.675738 
Q 380.73749 37.544524 381.262345 37.507034 
L 385.536166 35.82 
M 381.487283 30.42149 
L 381.487283 31.43371 
Q 381.487283 33.383172 380.812469 37.207117 
Q 380.137655 41.031062 380.137655 43.018014 
Q 380.137655 43.805297 380.137655 44.105214 
Q 380.137655 44.405131 380.231379 45.042455 
Q 380.325103 45.679779 380.512552 45.960952 
Q 380.7 46.242124 381.093641 46.485807 
Q 381.487283 46.72949 382.049628 46.72949 
Q 382.162097 46.692 382.480759 46.72949 
Q 382.799421 46.766979 382.986869 46.710745 
Q 383.174317 46.65451 383.174317 46.392083 
" clip-path="url(#pd398099089)" style="fill: none; stroke: #000000; stroke-linejoin: miter"/>
   </g>
  </g>
  <g id="axes_25">
   <g id="patch_22">
    <path d="M 391.632703 35.332634 
L 401.979848 35.332634 
M 401.192566 39.344028 
Q 401.192566 39.344028 398.268372 39.344028 
Q 391.295297 39.344028 391.295297 44.5176 
Q 391.295297 46.279614 393.05731 47.19811 
Q 394.819324 48.116607 396.806276 48.116607 
Q 398.043434 47.891669 398.849462 47.2356 
Q 399.65549 46.579531 400.011641 45.586055 
Q 400.367793 44.592579 400.536497 43.674083 
Q 400.7052 42.755586 400.855159 41.443448 
Q 401.005117 40.13131 401.192566 39.344028 
Q 402.279766 46.092166 402.392234 47.029407 
L 402.504703 48.154097 
" clip-path="url(#p7defa3b91f)" style="fill: none; stroke: #000000; stroke-linejoin: miter"/>
   </g>
  </g>
  <g id="axes_26">
   <g id="patch_23">
    <path d="M 412.987531 45.979697 
Q 412.950041 46.017186 412.818828 46.054676 
Q 412.687614 46.092166 412.725103 46.167145 
Q 412.725103 46.579531 413.1 46.579531 
Q 413.437407 46.579531 413.437407 46.092166 
Q 413.512386 45.867228 413.231214 45.754759 
Q 412.950041 45.64229 412.762593 45.754759 
" clip-path="url(#pcc03ce1826)" style="fill: none; stroke: #000000; stroke-linejoin: miter"/>
   </g>
  </g>
 </g>
 <defs>
  <clipPath id="pda626e97eb">
   <rect x="1.051945" y="8.64" width="14.09611" height="54.36"/>
  </clipPath>
  <clipPath id="p2715f2ec96">
   <rect x="16.970772" y="8.64" width="14.658455" height="54.36"/>
  </clipPath>
  <clipPath id="p008e52583d">
   <rect x="34.164248" y="8.64" width="12.671503" height="54.36"/>
  </clipPath>
  <clipPath id="p25ffca091c">
   <rect x="48.6" y="9.426742" width="16.2" height="52.786517"/>
  </clipPath>
  <clipPath id="p122946154d">
   <rect x="82.051945" y="8.64" width="14.09611" height="54.36"/>
  </clipPath>
  <clipPath id="p99955b96c8">
   <rect x="98.476883" y="8.64" width="13.646234" height="54.36"/>
  </clipPath>
  <clipPath id="p52f564b41b">
   <rect x="114.451945" y="8.64" width="14.09611" height="54.36"/>
  </clipPath>
  <clipPath id="pe3d67addcd">
   <rect x="130.370772" y="8.64" width="14.658455" height="54.36"/>
  </clipPath>
  <clipPath id="pf36c17cd77">
   <rect x="147.564248" y="8.64" width="12.671503" height="54.36"/>
  </clipPath>
  <clipPath id="p8fb658b22e">
   <rect x="184.031876" y="8.64" width="4.536248" height="54.36"/>
  </clipPath>
  <clipPath id="pa07bda82b0">
   <rect x="195.170772" y="8.64" width="14.658455" height="54.36"/>
  </clipPath>
  <clipPath id="pc3a5a8b45d">
   <rect x="216.206938" y="8.64" width="4.986124" height="54.36"/>
  </clipPath>
  <clipPath id="p7692750ef6">
   <rect x="243" y="9.603482" width="16.2" height="52.433036"/>
  </clipPath>
  <clipPath id="pa946d1bac7">
   <rect x="264.806938" y="8.64" width="4.986124" height="54.36"/>
  </clipPath>
  <clipPath id="pc45cef13b2">
   <rect x="276.170772" y="8.64" width="14.658455" height="54.36"/>
  </clipPath>
  <clipPath id="pe98c6692e1">
   <rect x="292.202069" y="8.64" width="14.995862" height="54.36"/>
  </clipPath>
  <clipPath id="pd00e457aa3">
   <rect x="309.582993" y="8.64" width="12.634014" height="54.36"/>
  </clipPath>
  <clipPath id="p67e39e4907">
   <rect x="326.738979" y="8.64" width="10.722041" height="54.36"/>
  </clipPath>
  <clipPath id="pe43ab182a1">
   <rect x="342.301655" y="8.64" width="11.99669" height="54.36"/>
  </clipPath>
  <clipPath id="pd398099089">
   <rect x="373.989352" y="8.64" width="13.421297" height="54.36"/>
  </clipPath>
  <clipPath id="p7defa3b91f">
   <rect x="389.420814" y="8.64" width="14.958372" height="54.36"/>
  </clipPath>
  <clipPath id="pcc03ce1826">
   <rect x="410.813131" y="8.64" width="4.573738" height="54.36"/>
  </clipPath>
 </defs>
</svg>
