<?xml version="1.0" encoding="utf-8" standalone="no"?>
<!DOCTYPE svg PUBLIC "-//W3C//DTD SVG 1.1//EN"
  "http://www.w3.org/Graphics/SVG/1.1/DTD/svg11.dtd">
<svg xmlns:xlink="http://www.w3.org/1999/xlink" width="522pt" height="72pt" viewBox="0 0 522 72" xmlns="http://www.w3.org/2000/svg" version="1.1">
 <metadata>
  <rdf:RDF xmlns:dc="http://purl.org/dc/elements/1.1/" xmlns:cc="http://creativecommons.org/ns#" xmlns:rdf="http://www.w3.org/1999/02/22-rdf-syntax-ns#">
   <cc:Work>
    <dc:type rdf:resource="http://purl.org/dc/dcmitype/StillImage"/>
    <dc:date>2023-02-15T23:00:37.225360</dc:date>
    <dc:format>image/svg+xml</dc:format>
    <dc:creator>
     <cc:Agent>
      <dc:title>Matplotlib v3.6.1, https://matplotlib.org/</dc:title>
     </cc:Agent>
    </dc:creator>
   </cc:Work>
  </rdf:RDF>
 </metadata>
 <defs>
  <style type="text/css">*{stroke-linejoin: round; stroke-linecap: butt}</style>
 </defs>
 <g id="figure_1">
  <g id="patch_1">
   <path d="M 0 72 
L 522 72 
L 522 0 
L 0 0 
z
" style="fill: #8fff9f"/>
  </g>
  <g id="axes_1">
   <g id="patch_2">
    <path d="M 1.539924 40.439772 
Q 6.436882 46.999848 11.980608 46.168289 
Q 13.304943 46.168289 13.98251 45.382928 
Q 14.660076 44.597567 14.660076 43.30403 
Q 14.660076 41.979696 14.028707 40.947947 
Q 13.397338 39.916198 12.396388 39.238631 
Q 11.395437 38.561065 10.194297 37.975894 
Q 8.993156 37.390722 7.776616 36.820951 
Q 6.560076 36.251179 5.559125 35.589011 
Q 4.558175 34.926844 3.926806 33.895095 
Q 3.295437 32.863346 3.295437 31.56981 
Q 3.295437 29.906692 5.774715 28.382167 
Q 8.253992 26.857643 10.040304 26.857643 
Q 11.118251 26.796046 11.672624 27.627605 
Q 12.226996 28.459163 12.211597 29.490913 
Q 12.196198 30.522662 12.165399 31.385019 
" clip-path="url(#p7f0f0cd29c)" style="fill: none; stroke: #000000; stroke-linejoin: miter"/>
   </g>
  </g>
  <g id="axes_2">
   <g id="patch_3">
    <path d="M 20.813462 35.932469 
Q 21.413297 35.257655 22.406772 34.826524 
Q 23.400248 34.395393 24.3 34.470372 
Q 24.937324 34.470372 25.42469 34.639076 
Q 25.912055 34.807779 26.230717 34.995228 
Q 26.549379 35.182676 26.774317 35.670041 
Q 26.999255 36.157407 27.111724 36.419834 
Q 27.224193 36.682262 27.280428 37.375821 
Q 27.336662 38.069379 27.355407 38.331807 
Q 27.374152 38.594234 27.355407 39.419007 
Q 27.336662 40.243779 27.336662 40.431228 
Q 27.336662 41.368469 27.167959 43.242952 
Q 26.999255 45.117434 26.999255 46.054676 
Q 26.999255 46.467062 27.05549 46.823214 
Q 27.111724 47.179366 27.205448 47.610497 
Q 27.299172 48.041628 27.336662 48.304055 
L 27.786538 48.528993 
M 21.263338 23.111007 
Q 21.488276 24.798041 21.488276 29.971614 
L 21.488276 42.3432 
L 21.150869 46.841959 
L 20.925931 47.74171 
" clip-path="url(#p8cb4eb6c29)" style="fill: none; stroke: #000000; stroke-linejoin: miter"/>
   </g>
  </g>
  <g id="axes_3">
   <g id="patch_4">
    <path d="M 34.257798 38.160826 
Q 37.230275 39.535596 41.949083 39.721376 
Q 43.472477 39.721376 44.159862 38.550963 
Q 44.847248 37.38055 44.847248 35.82 
Q 44.847248 35.299817 44.754358 34.909679 
Q 44.661468 34.519541 44.419954 34.296606 
Q 44.17844 34.07367 44.011239 33.943624 
Q 43.844037 33.813578 43.398165 33.757844 
Q 42.952294 33.70211 42.747936 33.683532 
Q 42.543578 33.664954 41.967661 33.683532 
Q 41.391743 33.70211 41.168807 33.70211 
Q 39.125229 33.70211 37.638991 35.578486 
Q 36.152752 37.454862 36.152752 39.609908 
Q 36.152752 42.619541 38.084862 44.570229 
Q 40.016972 46.520917 43.063761 46.520917 
Q 45.218807 46.818165 46.742202 44.29156 
" clip-path="url(#p1fe0f2ac3c)" style="fill: none; stroke: #000000; stroke-linejoin: miter"/>
   </g>
  </g>
  <g id="axes_4"/>
  <g id="axes_5">
   <g id="patch_5">
    <path d="M 70.931793 37.169628 
Q 72.956234 39.194069 74.718248 41.76211 
Q 76.480262 44.330152 77.342524 46.72949 
M 73.968455 31.321241 
L 73.968455 31.546179 
Q 73.968455 32.333462 73.331131 33.514386 
Q 72.693807 34.69531 71.719076 36.101172 
Q 70.744345 37.507034 70.481917 37.95691 
L 69.244759 39.643945 
M 68.457476 26.710014 
Q 70.294469 36.269876 70.481917 48.641462 
" clip-path="url(#p8ddf37e055)" style="fill: none; stroke: #000000; stroke-linejoin: miter"/>
   </g>
  </g>
  <g id="axes_6">
   <g id="patch_6">
    <path d="M 84.638731 37.282097 
L 84.638731 37.844441 
Q 84.901159 39.868883 84.938648 41.312234 
Q 84.976138 42.755586 84.882414 44.667559 
Q 84.78869 46.579531 84.78869 48.191586 
L 84.863669 39.643945 
Q 84.863669 38.144359 86.456979 37.507034 
Q 88.05029 36.86971 89.474897 37.282097 
Q 91.386869 37.844441 92.305366 39.04411 
Q 93.223862 40.243779 93.280097 41.668386 
Q 93.336331 43.092993 93.373821 44.817517 
Q 93.41131 46.542041 93.561269 48.191586 
" clip-path="url(#p9a694fbecf)" style="fill: none; stroke: #000000; stroke-linejoin: miter"/>
   </g>
  </g>
  <g id="axes_7">
   <g id="patch_7">
    <path d="M 108.5616 35.032717 
Q 107.51189 34.582841 106.537159 34.69531 
Q 103.500497 35.032717 101.588524 36.701007 
Q 99.676552 38.369297 99.676552 41.330979 
Q 99.676552 43.917766 101.682248 45.6048 
Q 103.687945 47.291834 106.312221 47.291834 
Q 108.674069 47.291834 109.798759 45.361117 
Q 110.923448 43.4304 110.923448 40.881103 
Q 110.923448 39.643945 110.511062 38.706703 
Q 110.098676 37.769462 109.573821 37.300841 
Q 109.048966 36.832221 108.299172 36.119917 
Q 107.549379 35.407614 107.099503 34.69531 
L 105.862345 34.245434 
" clip-path="url(#p4e573cf8b8)" style="fill: none; stroke: #000000; stroke-linejoin: miter"/>
   </g>
  </g>
  <g id="axes_8">
   <g id="patch_8">
    <path d="M 115.116102 36.437797 
L 116.351695 44.778051 
Q 116.454661 45.567458 116.454661 45.60178 
Q 116.454661 45.704746 116.763559 45.704746 
Q 117.62161 45.704746 118.342373 44.778051 
Q 119.063136 43.851356 119.475 42.718729 
Q 119.886864 41.586102 120.401695 40.659407 
Q 120.916525 39.732712 121.397034 39.732712 
Q 122.014831 39.732712 122.649788 40.607924 
Q 123.284746 41.483136 123.748093 42.512797 
Q 124.211441 43.542458 124.88072 44.417669 
Q 125.55 45.292881 126.236441 45.292881 
Q 126.511017 43.782712 126.940042 39.69839 
Q 127.369068 35.614068 127.883898 33.554746 
" clip-path="url(#pa7c6be811d)" style="fill: none; stroke: #000000; stroke-linejoin: miter"/>
   </g>
  </g>
  <g id="axes_9">
   <g id="patch_9">
    <path d="M 133.257476 43.917766 
Q 133.557393 44.180193 134.569614 45.154924 
Q 135.581834 46.129655 136.144179 46.560786 
Q 136.706524 46.991917 137.73749 47.385559 
Q 138.768455 47.7792 139.780676 47.629241 
Q 140.45549 47.629241 140.92411 47.404303 
Q 141.392731 47.179366 141.617669 46.879448 
Q 141.842607 46.579531 141.973821 45.979697 
Q 142.105034 45.379862 142.123779 44.967476 
Q 142.142524 44.55509 142.142524 43.805297 
Q 142.142524 42.718097 141.242772 42.043283 
Q 140.343021 41.368469 139.049628 41.031062 
Q 137.756234 40.693655 136.462841 40.300014 
Q 135.169448 39.906372 134.269697 38.987876 
Q 133.369945 38.069379 133.369945 36.607283 
Q 133.369945 36.082428 133.538648 35.726276 
Q 133.707352 35.370124 134.100993 35.145186 
Q 134.494634 34.920248 134.775807 34.807779 
Q 135.056979 34.69531 135.713048 34.639076 
Q 136.369117 34.582841 136.556566 34.582841 
Q 136.744014 34.582841 137.418828 34.582841 
Q 138.618497 34.582841 139.199586 34.995228 
Q 139.780676 35.407614 140.099338 36.026193 
Q 140.418 36.644772 140.680428 36.832221 
" clip-path="url(#p1e619f305c)" style="fill: none; stroke: #000000; stroke-linejoin: miter"/>
   </g>
  </g>
  <g id="axes_10"/>
  <g id="axes_11">
   <g id="patch_10">
    <path d="M 165.263834 37.95691 
L 165.938648 37.95691 
Q 166.650952 37.95691 167.438234 37.881931 
Q 168.225517 37.806952 169.181503 37.675738 
Q 170.13749 37.544524 170.662345 37.507034 
L 174.936166 35.82 
M 170.887283 30.42149 
L 170.887283 31.43371 
Q 170.887283 33.383172 170.212469 37.207117 
Q 169.537655 41.031062 169.537655 43.018014 
Q 169.537655 43.805297 169.537655 44.105214 
Q 169.537655 44.405131 169.631379 45.042455 
Q 169.725103 45.679779 169.912552 45.960952 
Q 170.1 46.242124 170.493641 46.485807 
Q 170.887283 46.72949 171.449628 46.72949 
Q 171.562097 46.692 171.880759 46.72949 
Q 172.199421 46.766979 172.386869 46.710745 
Q 172.574317 46.65451 172.574317 46.392083 
" clip-path="url(#p819cf7bb96)" style="fill: none; stroke: #000000; stroke-linejoin: miter"/>
   </g>
  </g>
  <g id="axes_12">
   <g id="patch_11">
    <path d="M 182.813462 35.932469 
Q 183.413297 35.257655 184.406772 34.826524 
Q 185.400248 34.395393 186.3 34.470372 
Q 186.937324 34.470372 187.42469 34.639076 
Q 187.912055 34.807779 188.230717 34.995228 
Q 188.549379 35.182676 188.774317 35.670041 
Q 188.999255 36.157407 189.111724 36.419834 
Q 189.224193 36.682262 189.280428 37.375821 
Q 189.336662 38.069379 189.355407 38.331807 
Q 189.374152 38.594234 189.355407 39.419007 
Q 189.336662 40.243779 189.336662 40.431228 
Q 189.336662 41.368469 189.167959 43.242952 
Q 188.999255 45.117434 188.999255 46.054676 
Q 188.999255 46.467062 189.05549 46.823214 
Q 189.111724 47.179366 189.205448 47.610497 
Q 189.299172 48.041628 189.336662 48.304055 
L 189.786538 48.528993 
M 183.263338 23.111007 
Q 183.488276 24.798041 183.488276 29.971614 
L 183.488276 42.3432 
L 183.150869 46.841959 
L 182.925931 47.74171 
" clip-path="url(#p307d5c2a13)" style="fill: none; stroke: #000000; stroke-linejoin: miter"/>
   </g>
  </g>
  <g id="axes_13">
   <g id="patch_12">
    <path d="M 208.043923 36.441748 
Q 206.834968 35.094627 202.862687 35.094627 
Q 201.342857 35.094627 200.565672 35.146439 
Q 199.788486 35.198252 198.78678 35.440043 
Q 197.785075 35.681834 197.301493 36.182687 
Q 196.81791 36.683539 196.472495 37.616162 
Q 196.127079 38.548785 196.127079 39.964989 
Q 196.127079 42.037484 197.543284 43.280981 
Q 198.959488 44.524478 200.893817 44.524478 
Q 203.553518 44.524478 206.316844 38.721493 
Q 207.663966 35.854542 207.663966 35.82 
Q 208.009382 35.578209 208.043923 36.441748 
Q 208.043923 37.512537 208.458422 40.362217 
Q 208.872921 43.211898 208.872921 44.524478 
" clip-path="url(#p2cb9a72510)" style="fill: none; stroke: #000000; stroke-linejoin: miter"/>
   </g>
  </g>
  <g id="axes_14">
   <g id="patch_13">
    <path d="M 213.863834 37.95691 
L 214.538648 37.95691 
Q 215.250952 37.95691 216.038234 37.881931 
Q 216.825517 37.806952 217.781503 37.675738 
Q 218.73749 37.544524 219.262345 37.507034 
L 223.536166 35.82 
M 219.487283 30.42149 
L 219.487283 31.43371 
Q 219.487283 33.383172 218.812469 37.207117 
Q 218.137655 41.031062 218.137655 43.018014 
Q 218.137655 43.805297 218.137655 44.105214 
Q 218.137655 44.405131 218.231379 45.042455 
Q 218.325103 45.679779 218.512552 45.960952 
Q 218.7 46.242124 219.093641 46.485807 
Q 219.487283 46.72949 220.049628 46.72949 
Q 220.162097 46.692 220.480759 46.72949 
Q 220.799421 46.766979 220.986869 46.710745 
Q 221.174317 46.65451 221.174317 46.392083 
" clip-path="url(#p376197cfeb)" style="fill: none; stroke: #000000; stroke-linejoin: miter"/>
   </g>
  </g>
  <g id="axes_15"/>
  <g id="axes_16">
   <g id="patch_14">
    <path d="M 246.657476 43.917766 
Q 246.957393 44.180193 247.969614 45.154924 
Q 248.981834 46.129655 249.544179 46.560786 
Q 250.106524 46.991917 251.13749 47.385559 
Q 252.168455 47.7792 253.180676 47.629241 
Q 253.85549 47.629241 254.32411 47.404303 
Q 254.792731 47.179366 255.017669 46.879448 
Q 255.242607 46.579531 255.373821 45.979697 
Q 255.505034 45.379862 255.523779 44.967476 
Q 255.542524 44.55509 255.542524 43.805297 
Q 255.542524 42.718097 254.642772 42.043283 
Q 253.743021 41.368469 252.449628 41.031062 
Q 251.156234 40.693655 249.862841 40.300014 
Q 248.569448 39.906372 247.669697 38.987876 
Q 246.769945 38.069379 246.769945 36.607283 
Q 246.769945 36.082428 246.938648 35.726276 
Q 247.107352 35.370124 247.500993 35.145186 
Q 247.894634 34.920248 248.175807 34.807779 
Q 248.456979 34.69531 249.113048 34.639076 
Q 249.769117 34.582841 249.956566 34.582841 
Q 250.144014 34.582841 250.818828 34.582841 
Q 252.018497 34.582841 252.599586 34.995228 
Q 253.180676 35.407614 253.499338 36.026193 
Q 253.818 36.644772 254.080428 36.832221 
" clip-path="url(#p34911b1aff)" style="fill: none; stroke: #000000; stroke-linejoin: miter"/>
   </g>
  </g>
  <g id="axes_17">
   <g id="patch_15">
    <path d="M 263.813462 35.932469 
Q 264.413297 35.257655 265.406772 34.826524 
Q 266.400248 34.395393 267.3 34.470372 
Q 267.937324 34.470372 268.42469 34.639076 
Q 268.912055 34.807779 269.230717 34.995228 
Q 269.549379 35.182676 269.774317 35.670041 
Q 269.999255 36.157407 270.111724 36.419834 
Q 270.224193 36.682262 270.280428 37.375821 
Q 270.336662 38.069379 270.355407 38.331807 
Q 270.374152 38.594234 270.355407 39.419007 
Q 270.336662 40.243779 270.336662 40.431228 
Q 270.336662 41.368469 270.167959 43.242952 
Q 269.999255 45.117434 269.999255 46.054676 
Q 269.999255 46.467062 270.05549 46.823214 
Q 270.111724 47.179366 270.205448 47.610497 
Q 270.299172 48.041628 270.336662 48.304055 
L 270.786538 48.528993 
M 264.263338 23.111007 
Q 264.488276 24.798041 264.488276 29.971614 
L 264.488276 42.3432 
L 264.150869 46.841959 
L 263.925931 47.74171 
" clip-path="url(#pb39fd40873)" style="fill: none; stroke: #000000; stroke-linejoin: miter"/>
   </g>
  </g>
  <g id="axes_18">
   <g id="patch_16">
    <path d="M 277.257798 38.160826 
Q 280.230275 39.535596 284.949083 39.721376 
Q 286.472477 39.721376 287.159862 38.550963 
Q 287.847248 37.38055 287.847248 35.82 
Q 287.847248 35.299817 287.754358 34.909679 
Q 287.661468 34.519541 287.419954 34.296606 
Q 287.17844 34.07367 287.011239 33.943624 
Q 286.844037 33.813578 286.398165 33.757844 
Q 285.952294 33.70211 285.747936 33.683532 
Q 285.543578 33.664954 284.967661 33.683532 
Q 284.391743 33.70211 284.168807 33.70211 
Q 282.125229 33.70211 280.638991 35.578486 
Q 279.152752 37.454862 279.152752 39.609908 
Q 279.152752 42.619541 281.084862 44.570229 
Q 283.016972 46.520917 286.063761 46.520917 
Q 288.218807 46.818165 289.742202 44.29156 
" clip-path="url(#pcc6176868b)" style="fill: none; stroke: #000000; stroke-linejoin: miter"/>
   </g>
  </g>
  <g id="axes_19"/>
  <g id="axes_20">
   <g id="patch_17">
    <path d="M 311.438731 37.282097 
L 311.438731 37.844441 
Q 311.701159 39.868883 311.738648 41.312234 
Q 311.776138 42.755586 311.682414 44.667559 
Q 311.58869 46.579531 311.58869 48.191586 
L 311.663669 39.643945 
Q 311.663669 38.144359 313.256979 37.507034 
Q 314.85029 36.86971 316.274897 37.282097 
Q 318.186869 37.844441 319.105366 39.04411 
Q 320.023862 40.243779 320.080097 41.668386 
Q 320.136331 43.092993 320.173821 44.817517 
Q 320.21131 46.542041 320.361269 48.191586 
" clip-path="url(#pc68193d8bf)" style="fill: none; stroke: #000000; stroke-linejoin: miter"/>
   </g>
  </g>
  <g id="axes_21">
   <g id="patch_18">
    <path d="M 325.857798 38.160826 
Q 328.830275 39.535596 333.549083 39.721376 
Q 335.072477 39.721376 335.759862 38.550963 
Q 336.447248 37.38055 336.447248 35.82 
Q 336.447248 35.299817 336.354358 34.909679 
Q 336.261468 34.519541 336.019954 34.296606 
Q 335.77844 34.07367 335.611239 33.943624 
Q 335.444037 33.813578 334.998165 33.757844 
Q 334.552294 33.70211 334.347936 33.683532 
Q 334.143578 33.664954 333.567661 33.683532 
Q 332.991743 33.70211 332.768807 33.70211 
Q 330.725229 33.70211 329.238991 35.578486 
Q 327.752752 37.454862 327.752752 39.609908 
Q 327.752752 42.619541 329.684862 44.570229 
Q 331.616972 46.520917 334.663761 46.520917 
Q 336.818807 46.818165 338.342202 44.29156 
" clip-path="url(#p06db5456ac)" style="fill: none; stroke: #000000; stroke-linejoin: miter"/>
   </g>
  </g>
  <g id="axes_22">
   <g id="patch_19">
    <path d="M 342.057798 38.160826 
Q 345.030275 39.535596 349.749083 39.721376 
Q 351.272477 39.721376 351.959862 38.550963 
Q 352.647248 37.38055 352.647248 35.82 
Q 352.647248 35.299817 352.554358 34.909679 
Q 352.461468 34.519541 352.219954 34.296606 
Q 351.97844 34.07367 351.811239 33.943624 
Q 351.644037 33.813578 351.198165 33.757844 
Q 350.752294 33.70211 350.547936 33.683532 
Q 350.343578 33.664954 349.767661 33.683532 
Q 349.191743 33.70211 348.968807 33.70211 
Q 346.925229 33.70211 345.438991 35.578486 
Q 343.952752 37.454862 343.952752 39.609908 
Q 343.952752 42.619541 345.884862 44.570229 
Q 347.816972 46.520917 350.863761 46.520917 
Q 353.018807 46.818165 354.542202 44.29156 
" clip-path="url(#p57b6dc64b0)" style="fill: none; stroke: #000000; stroke-linejoin: miter"/>
   </g>
  </g>
  <g id="axes_23">
   <g id="patch_20">
    <path d="M 368.099007 39.568966 
Q 366.749379 38.181848 364.5 38.444276 
Q 361.650786 38.444276 360.488607 39.793903 
Q 359.326428 41.143531 359.326428 44.067724 
Q 359.326428 45.56731 360.619821 46.279614 
Q 361.913214 46.991917 363.487779 46.991917 
Q 364.799917 46.991917 365.812138 45.736014 
Q 366.824359 44.48011 367.405448 42.30571 
Q 367.986538 40.13131 368.361434 37.938166 
Q 368.736331 35.745021 368.88629 33.045766 
Q 369.036248 30.34651 369.073738 28.978138 
Q 369.111228 27.609766 369.111228 26.185159 
Q 368.88629 26.260138 368.88629 29.896634 
L 368.88629 44.292662 
L 369.673572 48.229076 
" clip-path="url(#pd819dc35d1)" style="fill: none; stroke: #000000; stroke-linejoin: miter"/>
   </g>
  </g>
  <g id="axes_24">
   <g id="patch_21">
    <path d="M 376.257476 43.917766 
Q 376.557393 44.180193 377.569614 45.154924 
Q 378.581834 46.129655 379.144179 46.560786 
Q 379.706524 46.991917 380.73749 47.385559 
Q 381.768455 47.7792 382.780676 47.629241 
Q 383.45549 47.629241 383.92411 47.404303 
Q 384.392731 47.179366 384.617669 46.879448 
Q 384.842607 46.579531 384.973821 45.979697 
Q 385.105034 45.379862 385.123779 44.967476 
Q 385.142524 44.55509 385.142524 43.805297 
Q 385.142524 42.718097 384.242772 42.043283 
Q 383.343021 41.368469 382.049628 41.031062 
Q 380.756234 40.693655 379.462841 40.300014 
Q 378.169448 39.906372 377.269697 38.987876 
Q 376.369945 38.069379 376.369945 36.607283 
Q 376.369945 36.082428 376.538648 35.726276 
Q 376.707352 35.370124 377.100993 35.145186 
Q 377.494634 34.920248 377.775807 34.807779 
Q 378.056979 34.69531 378.713048 34.639076 
Q 379.369117 34.582841 379.556566 34.582841 
Q 379.744014 34.582841 380.418828 34.582841 
Q 381.618497 34.582841 382.199586 34.995228 
Q 382.780676 35.407614 383.099338 36.026193 
Q 383.418 36.644772 383.680428 36.832221 
" clip-path="url(#pdefac4f4fa)" style="fill: none; stroke: #000000; stroke-linejoin: miter"/>
   </g>
  </g>
  <g id="axes_25"/>
  <g id="axes_26">
   <g id="patch_22">
    <path d="M 406.808036 34.879821 
Q 407.314286 36.073125 407.603571 42.871339 
Q 407.748214 46.632054 408.0375 46.632054 
Q 408.073661 46.632054 408.109821 46.595893 
Q 408.616071 46.017321 408.670312 44.588973 
Q 408.724554 43.160625 408.507589 41.750357 
Q 408.290625 40.340089 408.0375 38.712857 
Q 407.784375 37.085625 407.784375 36.398571 
Q 407.784375 35.169107 408.164062 33.939643 
Q 408.54375 32.710179 409.520089 32.710179 
Q 410.749554 32.710179 411.472768 34.355491 
Q 412.195982 36.000804 412.358705 37.971562 
Q 412.521429 39.942321 412.629911 41.587634 
Q 412.738393 43.232946 412.883036 43.232946 
Q 413.027679 43.232946 413.11808 41.497232 
Q 413.208482 39.761518 413.335045 37.700357 
Q 413.461607 35.639196 414.184821 33.903482 
Q 414.908036 32.167768 416.1375 32.167768 
Q 417.692411 33.035625 418.361384 34.771339 
Q 419.030357 36.507054 418.994196 38.188527 
Q 418.958036 39.87 418.976116 42.057723 
Q 418.994196 44.245446 419.391964 45.511071 
" clip-path="url(#p2be66d040a)" style="fill: none; stroke: #000000; stroke-linejoin: miter"/>
   </g>
  </g>
  <g id="axes_27">
   <g id="patch_23">
    <path d="M 432.5616 35.032717 
Q 431.51189 34.582841 430.537159 34.69531 
Q 427.500497 35.032717 425.588524 36.701007 
Q 423.676552 38.369297 423.676552 41.330979 
Q 423.676552 43.917766 425.682248 45.6048 
Q 427.687945 47.291834 430.312221 47.291834 
Q 432.674069 47.291834 433.798759 45.361117 
Q 434.923448 43.4304 434.923448 40.881103 
Q 434.923448 39.643945 434.511062 38.706703 
Q 434.098676 37.769462 433.573821 37.300841 
Q 433.048966 36.832221 432.299172 36.119917 
Q 431.549379 35.407614 431.099503 34.69531 
L 429.862345 34.245434 
" clip-path="url(#pfa27d3256d)" style="fill: none; stroke: #000000; stroke-linejoin: miter"/>
   </g>
  </g>
  <g id="axes_28">
   <g id="patch_24">
    <path d="M 442.013462 32.783338 
Q 442.538317 34.507862 442.669531 36.457324 
Q 442.800745 38.406786 442.725766 40.956083 
Q 442.650786 43.505379 442.688276 44.705048 
L 442.800745 46.054676 
L 442.800745 45.829738 
Q 442.800745 44.667559 442.519572 42.30571 
Q 442.2384 39.943862 442.2384 38.744193 
Q 442.2384 36.419834 443.250621 34.882759 
Q 444.262841 33.345683 446.287283 33.345683 
Q 446.999586 33.345683 447.336993 33.626855 
Q 447.6744 33.908028 447.936828 34.432883 
Q 448.199255 34.957738 448.536662 35.257655 
L 448.986538 36.832221 
" clip-path="url(#paabd4f3f6f)" style="fill: none; stroke: #000000; stroke-linejoin: miter"/>
   </g>
  </g>
  <g id="axes_29">
   <g id="patch_25">
    <path d="M 455.457798 38.160826 
Q 458.430275 39.535596 463.149083 39.721376 
Q 464.672477 39.721376 465.359862 38.550963 
Q 466.047248 37.38055 466.047248 35.82 
Q 466.047248 35.299817 465.954358 34.909679 
Q 465.861468 34.519541 465.619954 34.296606 
Q 465.37844 34.07367 465.211239 33.943624 
Q 465.044037 33.813578 464.598165 33.757844 
Q 464.152294 33.70211 463.947936 33.683532 
Q 463.743578 33.664954 463.167661 33.683532 
Q 462.591743 33.70211 462.368807 33.70211 
Q 460.325229 33.70211 458.838991 35.578486 
Q 457.352752 37.454862 457.352752 39.609908 
Q 457.352752 42.619541 459.284862 44.570229 
Q 461.216972 46.520917 464.263761 46.520917 
Q 466.418807 46.818165 467.942202 44.29156 
" clip-path="url(#pb339550052)" style="fill: none; stroke: #000000; stroke-linejoin: miter"/>
   </g>
  </g>
 </g>
 <defs>
  <clipPath id="p7f0f0cd29c">
   <rect x="0" y="13.491103" width="16.2" height="44.657795"/>
  </clipPath>
  <clipPath id="p8cb4eb6c29">
   <rect x="18.938979" y="8.64" width="10.722041" height="54.36"/>
  </clipPath>
  <clipPath id="p1fe0f2ac3c">
   <rect x="32.4" y="8.881927" width="16.2" height="53.876147"/>
  </clipPath>
  <clipPath id="p8ddf37e055">
   <rect x="66.582993" y="8.64" width="12.634014" height="54.36"/>
  </clipPath>
  <clipPath id="p9a694fbecf">
   <rect x="82.764248" y="8.64" width="12.671503" height="54.36"/>
  </clipPath>
  <clipPath id="p4e573cf8b8">
   <rect x="97.802069" y="8.64" width="14.995862" height="54.36"/>
  </clipPath>
  <clipPath id="pa7c6be811d">
   <rect x="113.4" y="10.936525" width="16.2" height="49.766949"/>
  </clipPath>
  <clipPath id="p1e619f305c">
   <rect x="131.382993" y="8.64" width="12.634014" height="54.36"/>
  </clipPath>
  <clipPath id="p819cf7bb96">
   <rect x="163.389352" y="8.64" width="13.421297" height="54.36"/>
  </clipPath>
  <clipPath id="p307d5c2a13">
   <rect x="180.938979" y="8.64" width="10.722041" height="54.36"/>
  </clipPath>
  <clipPath id="p2cb9a72510">
   <rect x="194.4" y="10.777356" width="16.2" height="50.085288"/>
  </clipPath>
  <clipPath id="p376197cfeb">
   <rect x="211.989352" y="8.64" width="13.421297" height="54.36"/>
  </clipPath>
  <clipPath id="p34911b1aff">
   <rect x="244.782993" y="8.64" width="12.634014" height="54.36"/>
  </clipPath>
  <clipPath id="pb39fd40873">
   <rect x="261.938979" y="8.64" width="10.722041" height="54.36"/>
  </clipPath>
  <clipPath id="pcc6176868b">
   <rect x="275.4" y="8.881927" width="16.2" height="53.876147"/>
  </clipPath>
  <clipPath id="pc68193d8bf">
   <rect x="309.564248" y="8.64" width="12.671503" height="54.36"/>
  </clipPath>
  <clipPath id="p06db5456ac">
   <rect x="324" y="8.881927" width="16.2" height="53.876147"/>
  </clipPath>
  <clipPath id="p57b6dc64b0">
   <rect x="340.2" y="8.881927" width="16.2" height="53.876147"/>
  </clipPath>
  <clipPath id="pd819dc35d1">
   <rect x="357.451945" y="8.64" width="14.09611" height="54.36"/>
  </clipPath>
  <clipPath id="pdefac4f4fa">
   <rect x="374.382993" y="8.64" width="12.634014" height="54.36"/>
  </clipPath>
  <clipPath id="p2be66d040a">
   <rect x="405" y="9.603482" width="16.2" height="52.433036"/>
  </clipPath>
  <clipPath id="pfa27d3256d">
   <rect x="421.802069" y="8.64" width="14.995862" height="54.36"/>
  </clipPath>
  <clipPath id="paabd4f3f6f">
   <rect x="440.138979" y="8.64" width="10.722041" height="54.36"/>
  </clipPath>
  <clipPath id="pb339550052">
   <rect x="453.6" y="8.881927" width="16.2" height="53.876147"/>
  </clipPath>
 </defs>
</svg>
