<?xml version="1.0" encoding="utf-8" standalone="no"?>
<!DOCTYPE svg PUBLIC "-//W3C//DTD SVG 1.1//EN"
  "http://www.w3.org/Graphics/SVG/1.1/DTD/svg11.dtd">
<svg xmlns:xlink="http://www.w3.org/1999/xlink" width="450pt" height="72pt" viewBox="0 0 450 72" xmlns="http://www.w3.org/2000/svg" version="1.1">
 <metadata>
  <rdf:RDF xmlns:dc="http://purl.org/dc/elements/1.1/" xmlns:cc="http://creativecommons.org/ns#" xmlns:rdf="http://www.w3.org/1999/02/22-rdf-syntax-ns#">
   <cc:Work>
    <dc:type rdf:resource="http://purl.org/dc/dcmitype/StillImage"/>
    <dc:date>2023-02-05T11:02:42.114045</dc:date>
    <dc:format>image/svg+xml</dc:format>
    <dc:creator>
     <cc:Agent>
      <dc:title>Matplotlib v3.6.1, https://matplotlib.org/</dc:title>
     </cc:Agent>
    </dc:creator>
   </cc:Work>
  </rdf:RDF>
 </metadata>
 <defs>
  <style type="text/css">*{stroke-linejoin: round; stroke-linecap: butt}</style>
 </defs>
 <g id="figure_1">
  <g id="patch_1">
   <path d="M 0 72 
L 450 72 
L 450 0 
L 0 0 
z
" style="fill: #8fff9f"/>
  </g>
  <g id="axes_1">
   <g id="patch_2">
    <path d="M 11.699007 39.568966 
Q 10.349379 38.181848 8.1 38.444276 
Q 5.250786 38.444276 4.088607 39.793903 
Q 2.926428 41.143531 2.926428 44.067724 
Q 2.926428 45.56731 4.219821 46.279614 
Q 5.513214 46.991917 7.087779 46.991917 
Q 8.399917 46.991917 9.412138 45.736014 
Q 10.424359 44.48011 11.005448 42.30571 
Q 11.586538 40.13131 11.961434 37.938166 
Q 12.336331 35.745021 12.48629 33.045766 
Q 12.636248 30.34651 12.673738 28.978138 
Q 12.711228 27.609766 12.711228 26.185159 
Q 12.48629 26.260138 12.48629 29.896634 
L 12.48629 44.292662 
L 13.273572 48.229076 
" clip-path="url(#pfcd197f10b)" style="fill: none; stroke: #000000; stroke-linejoin: miter"/>
   </g>
  </g>
  <g id="axes_2">
   <g id="patch_3">
    <path d="M 20.813462 29.784166 
Q 21.788193 30.271531 23.081586 31.827352 
Q 24.374979 33.383172 24.862345 33.833048 
L 25.537159 34.507862 
M 28.573821 37.432055 
Q 27.261683 36.94469 26.211972 36.982179 
Q 25.949545 36.982179 25.049793 37.000924 
Q 24.150041 37.019669 23.71891 37.038414 
Q 23.287779 37.057159 22.425517 37.169628 
Q 21.563255 37.282097 21.094634 37.41331 
Q 20.626014 37.544524 19.98869 37.844441 
Q 19.351366 38.144359 19.032703 38.538 
Q 18.714041 38.931641 18.470359 39.550221 
Q 18.226676 40.1688 18.226676 40.918593 
Q 18.226676 42.830566 19.838731 44.348897 
Q 21.450786 45.867228 23.400248 45.867228 
Q 24.749876 45.867228 25.612138 45.323628 
Q 26.4744 44.780028 26.886786 43.842786 
Q 27.299172 42.905545 27.52411 41.912069 
Q 27.749048 40.918593 28.086455 39.756414 
Q 28.423862 38.594234 28.911228 37.881931 
L 29.361103 43.842786 
L 30.373324 46.991917 
" clip-path="url(#pccf724f732)" style="fill: none; stroke: #000000; stroke-linejoin: miter"/>
   </g>
  </g>
  <g id="axes_3">
   <g id="patch_4">
    <path d="M 36.038731 37.282097 
L 36.038731 37.844441 
Q 36.301159 39.868883 36.338648 41.312234 
Q 36.376138 42.755586 36.282414 44.667559 
Q 36.18869 46.579531 36.18869 48.191586 
L 36.263669 39.643945 
Q 36.263669 38.144359 37.856979 37.507034 
Q 39.45029 36.86971 40.874897 37.282097 
Q 42.786869 37.844441 43.705366 39.04411 
Q 44.623862 40.243779 44.680097 41.668386 
Q 44.736331 43.092993 44.773821 44.817517 
Q 44.81131 46.542041 44.961269 48.191586 
" clip-path="url(#pa42e172493)" style="fill: none; stroke: #000000; stroke-linejoin: miter"/>
   </g>
  </g>
  <g id="axes_4">
   <g id="patch_5">
    <path d="M 52.257476 43.917766 
Q 52.557393 44.180193 53.569614 45.154924 
Q 54.581834 46.129655 55.144179 46.560786 
Q 55.706524 46.991917 56.73749 47.385559 
Q 57.768455 47.7792 58.780676 47.629241 
Q 59.45549 47.629241 59.92411 47.404303 
Q 60.392731 47.179366 60.617669 46.879448 
Q 60.842607 46.579531 60.973821 45.979697 
Q 61.105034 45.379862 61.123779 44.967476 
Q 61.142524 44.55509 61.142524 43.805297 
Q 61.142524 42.718097 60.242772 42.043283 
Q 59.343021 41.368469 58.049628 41.031062 
Q 56.756234 40.693655 55.462841 40.300014 
Q 54.169448 39.906372 53.269697 38.987876 
Q 52.369945 38.069379 52.369945 36.607283 
Q 52.369945 36.082428 52.538648 35.726276 
Q 52.707352 35.370124 53.100993 35.145186 
Q 53.494634 34.920248 53.775807 34.807779 
Q 54.056979 34.69531 54.713048 34.639076 
Q 55.369117 34.582841 55.556566 34.582841 
Q 55.744014 34.582841 56.418828 34.582841 
Q 57.618497 34.582841 58.199586 34.995228 
Q 58.780676 35.407614 59.099338 36.026193 
Q 59.418 36.644772 59.680428 36.832221 
" clip-path="url(#p371c595006)" style="fill: none; stroke: #000000; stroke-linejoin: miter"/>
   </g>
  </g>
  <g id="axes_5">
   <g id="patch_6">
    <path d="M 69.413462 35.932469 
Q 70.013297 35.257655 71.006772 34.826524 
Q 72.000248 34.395393 72.9 34.470372 
Q 73.537324 34.470372 74.02469 34.639076 
Q 74.512055 34.807779 74.830717 34.995228 
Q 75.149379 35.182676 75.374317 35.670041 
Q 75.599255 36.157407 75.711724 36.419834 
Q 75.824193 36.682262 75.880428 37.375821 
Q 75.936662 38.069379 75.955407 38.331807 
Q 75.974152 38.594234 75.955407 39.419007 
Q 75.936662 40.243779 75.936662 40.431228 
Q 75.936662 41.368469 75.767959 43.242952 
Q 75.599255 45.117434 75.599255 46.054676 
Q 75.599255 46.467062 75.65549 46.823214 
Q 75.711724 47.179366 75.805448 47.610497 
Q 75.899172 48.041628 75.936662 48.304055 
L 76.386538 48.528993 
M 69.863338 23.111007 
Q 70.088276 24.798041 70.088276 29.971614 
L 70.088276 42.3432 
L 69.750869 46.841959 
L 69.525931 47.74171 
" clip-path="url(#p7d23bee8f0)" style="fill: none; stroke: #000000; stroke-linejoin: miter"/>
   </g>
  </g>
  <g id="axes_6">
   <g id="patch_7">
    <path d="M 86.813131 30.384 
L 90.074731 34.657821 
M 89.737324 37.019669 
L 89.474897 41.743366 
Q 89.587366 42.268221 89.718579 43.749062 
Q 89.849793 45.229903 90.1872 46.1484 
Q 90.524607 47.066897 91.386869 47.591752 
" clip-path="url(#pa01cc01b8e)" style="fill: none; stroke: #000000; stroke-linejoin: miter"/>
   </g>
  </g>
  <g id="axes_7"/>
  <g id="axes_8">
   <g id="patch_8">
    <path d="M 116.663834 37.95691 
L 117.338648 37.95691 
Q 118.050952 37.95691 118.838234 37.881931 
Q 119.625517 37.806952 120.581503 37.675738 
Q 121.53749 37.544524 122.062345 37.507034 
L 126.336166 35.82 
M 122.287283 30.42149 
L 122.287283 31.43371 
Q 122.287283 33.383172 121.612469 37.207117 
Q 120.937655 41.031062 120.937655 43.018014 
Q 120.937655 43.805297 120.937655 44.105214 
Q 120.937655 44.405131 121.031379 45.042455 
Q 121.125103 45.679779 121.312552 45.960952 
Q 121.5 46.242124 121.893641 46.485807 
Q 122.287283 46.72949 122.849628 46.72949 
Q 122.962097 46.692 123.280759 46.72949 
Q 123.599421 46.766979 123.786869 46.710745 
Q 123.974317 46.65451 123.974317 46.392083 
" clip-path="url(#p7f6cdc7e08)" style="fill: none; stroke: #000000; stroke-linejoin: miter"/>
   </g>
  </g>
  <g id="axes_9">
   <g id="patch_9">
    <path d="M 132.432703 35.332634 
L 142.779848 35.332634 
M 141.992566 39.344028 
Q 141.992566 39.344028 139.068372 39.344028 
Q 132.095297 39.344028 132.095297 44.5176 
Q 132.095297 46.279614 133.85731 47.19811 
Q 135.619324 48.116607 137.606276 48.116607 
Q 138.843434 47.891669 139.649462 47.2356 
Q 140.45549 46.579531 140.811641 45.586055 
Q 141.167793 44.592579 141.336497 43.674083 
Q 141.5052 42.755586 141.655159 41.443448 
Q 141.805117 40.13131 141.992566 39.344028 
Q 143.079766 46.092166 143.192234 47.029407 
L 143.304703 48.154097 
" clip-path="url(#p44184171d3)" style="fill: none; stroke: #000000; stroke-linejoin: miter"/>
   </g>
  </g>
  <g id="axes_10"/>
  <g id="axes_11">
   <g id="patch_10">
    <path d="M 173.699007 34.920248 
Q 172.836745 36.007448 169.725103 40.018841 
Q 166.613462 44.030234 164.926428 46.054676 
M 165.826179 36.044938 
Q 167.700662 37.319586 170.193724 40.843614 
Q 172.686786 44.367641 174.261352 45.6048 
L 175.273572 45.942207 
" clip-path="url(#p22d6488b8c)" style="fill: none; stroke: #000000; stroke-linejoin: miter"/>
   </g>
  </g>
  <g id="axes_12">
   <g id="patch_11">
    <path d="M 186.918579 29.071862 
Q 186.543683 29.146841 186.412469 29.577972 
Q 186.281255 30.009103 186.356234 30.42149 
Q 186.356234 30.571448 186.393724 30.702662 
Q 186.431214 30.833876 186.487448 30.89011 
Q 186.543683 30.946345 186.599917 31.040069 
Q 186.656152 31.133793 186.693641 31.208772 
L 186.80611 29.859145 
M 186.80611 34.020497 
Q 185.906359 39.006621 185.681421 42.793076 
L 186.131297 45.379862 
L 186.468703 46.054676 
" clip-path="url(#pf0a283b0eb)" style="fill: none; stroke: #000000; stroke-linejoin: miter"/>
   </g>
  </g>
  <g id="axes_13">
   <g id="patch_12">
    <path d="M 199.013462 29.784166 
Q 199.988193 30.271531 201.281586 31.827352 
Q 202.574979 33.383172 203.062345 33.833048 
L 203.737159 34.507862 
M 206.773821 37.432055 
Q 205.461683 36.94469 204.411972 36.982179 
Q 204.149545 36.982179 203.249793 37.000924 
Q 202.350041 37.019669 201.91891 37.038414 
Q 201.487779 37.057159 200.625517 37.169628 
Q 199.763255 37.282097 199.294634 37.41331 
Q 198.826014 37.544524 198.18869 37.844441 
Q 197.551366 38.144359 197.232703 38.538 
Q 196.914041 38.931641 196.670359 39.550221 
Q 196.426676 40.1688 196.426676 40.918593 
Q 196.426676 42.830566 198.038731 44.348897 
Q 199.650786 45.867228 201.600248 45.867228 
Q 202.949876 45.867228 203.812138 45.323628 
Q 204.6744 44.780028 205.086786 43.842786 
Q 205.499172 42.905545 205.72411 41.912069 
Q 205.949048 40.918593 206.286455 39.756414 
Q 206.623862 38.594234 207.111228 37.881931 
L 207.561103 43.842786 
L 208.573324 46.991917 
" clip-path="url(#pa865ada82a)" style="fill: none; stroke: #000000; stroke-linejoin: miter"/>
   </g>
  </g>
  <g id="axes_14">
   <g id="patch_13">
    <path d="M 214.238731 37.282097 
L 214.238731 37.844441 
Q 214.501159 39.868883 214.538648 41.312234 
Q 214.576138 42.755586 214.482414 44.667559 
Q 214.38869 46.579531 214.38869 48.191586 
L 214.463669 39.643945 
Q 214.463669 38.144359 216.056979 37.507034 
Q 217.65029 36.86971 219.074897 37.282097 
Q 220.986869 37.844441 221.905366 39.04411 
Q 222.823862 40.243779 222.880097 41.668386 
Q 222.936331 43.092993 222.973821 44.817517 
Q 223.01131 46.542041 223.161269 48.191586 
" clip-path="url(#p71b2cf94f4)" style="fill: none; stroke: #000000; stroke-linejoin: miter"/>
   </g>
  </g>
  <g id="axes_15">
   <g id="patch_14">
    <path d="M 230.0076 35.032717 
Q 230.0076 35.032717 233.381669 35.032717 
Q 233.494138 35.032717 235.237407 34.826524 
Q 236.980676 34.620331 237.992897 34.789034 
Q 239.005117 34.957738 239.005117 35.707531 
Q 239.005117 36.86971 237.992897 38.144359 
Q 236.980676 39.419007 235.518579 40.506207 
Q 234.056483 41.593407 232.594386 42.605628 
Q 231.13229 43.617848 230.120069 44.573834 
Q 229.107848 45.529821 229.107848 46.279614 
L 230.232538 46.279614 
Q 230.270028 46.279614 232.481917 46.054676 
L 240.692152 45.942207 
" clip-path="url(#p9ad5ab446d)" style="fill: none; stroke: #000000; stroke-linejoin: miter"/>
   </g>
  </g>
  <g id="axes_16">
   <g id="patch_15">
    <path d="M 247.613462 29.784166 
Q 248.588193 30.271531 249.881586 31.827352 
Q 251.174979 33.383172 251.662345 33.833048 
L 252.337159 34.507862 
M 255.373821 37.432055 
Q 254.061683 36.94469 253.011972 36.982179 
Q 252.749545 36.982179 251.849793 37.000924 
Q 250.950041 37.019669 250.51891 37.038414 
Q 250.087779 37.057159 249.225517 37.169628 
Q 248.363255 37.282097 247.894634 37.41331 
Q 247.426014 37.544524 246.78869 37.844441 
Q 246.151366 38.144359 245.832703 38.538 
Q 245.514041 38.931641 245.270359 39.550221 
Q 245.026676 40.1688 245.026676 40.918593 
Q 245.026676 42.830566 246.638731 44.348897 
Q 248.250786 45.867228 250.200248 45.867228 
Q 251.549876 45.867228 252.412138 45.323628 
Q 253.2744 44.780028 253.686786 43.842786 
Q 254.099172 42.905545 254.32411 41.912069 
Q 254.549048 40.918593 254.886455 39.756414 
Q 255.223862 38.594234 255.711228 37.881931 
L 256.161103 43.842786 
L 257.173324 46.991917 
" clip-path="url(#pd99118bde8)" style="fill: none; stroke: #000000; stroke-linejoin: miter"/>
   </g>
  </g>
  <g id="axes_17">
   <g id="patch_16">
    <path d="M 267.918579 29.071862 
Q 267.543683 29.146841 267.412469 29.577972 
Q 267.281255 30.009103 267.356234 30.42149 
Q 267.356234 30.571448 267.393724 30.702662 
Q 267.431214 30.833876 267.487448 30.89011 
Q 267.543683 30.946345 267.599917 31.040069 
Q 267.656152 31.133793 267.693641 31.208772 
L 267.80611 29.859145 
M 267.80611 34.020497 
Q 266.906359 39.006621 266.681421 42.793076 
L 267.131297 45.379862 
L 267.468703 46.054676 
" clip-path="url(#pe813183b5b)" style="fill: none; stroke: #000000; stroke-linejoin: miter"/>
   </g>
  </g>
  <g id="axes_18"/>
  <g id="axes_19">
   <g id="patch_17">
    <path d="M 296.213462 35.932469 
Q 296.813297 35.257655 297.806772 34.826524 
Q 298.800248 34.395393 299.7 34.470372 
Q 300.337324 34.470372 300.82469 34.639076 
Q 301.312055 34.807779 301.630717 34.995228 
Q 301.949379 35.182676 302.174317 35.670041 
Q 302.399255 36.157407 302.511724 36.419834 
Q 302.624193 36.682262 302.680428 37.375821 
Q 302.736662 38.069379 302.755407 38.331807 
Q 302.774152 38.594234 302.755407 39.419007 
Q 302.736662 40.243779 302.736662 40.431228 
Q 302.736662 41.368469 302.567959 43.242952 
Q 302.399255 45.117434 302.399255 46.054676 
Q 302.399255 46.467062 302.45549 46.823214 
Q 302.511724 47.179366 302.605448 47.610497 
Q 302.699172 48.041628 302.736662 48.304055 
L 303.186538 48.528993 
M 296.663338 23.111007 
Q 296.888276 24.798041 296.888276 29.971614 
L 296.888276 42.3432 
L 296.550869 46.841959 
L 296.325931 47.74171 
" clip-path="url(#pb75301e410)" style="fill: none; stroke: #000000; stroke-linejoin: miter"/>
   </g>
  </g>
  <g id="axes_20">
   <g id="patch_18">
    <path d="M 313.088276 30.608938 
Q 313.200745 30.871366 313.463172 31.602414 
Q 313.7256 32.333462 313.931793 32.783338 
Q 314.137986 33.233214 314.475393 33.758069 
Q 314.8128 34.282924 315.31891 34.507862 
Q 315.825021 34.7328 316.462345 34.657821 
Q 319.274069 34.657821 319.611476 29.25931 
M 310.726428 41.968303 
L 311.176303 41.968303 
Q 311.738648 41.968303 313.200745 42.474414 
Q 314.662841 42.980524 315.450124 42.980524 
Q 317.811972 42.980524 319.105366 42.211986 
Q 320.398759 41.443448 320.398759 39.269048 
Q 320.398759 37.132138 315.112717 37.132138 
Q 314.025517 37.132138 313.256979 37.694483 
Q 312.488441 38.256828 312.113545 39.194069 
Q 311.738648 40.13131 311.569945 41.049807 
Q 311.401241 41.968303 311.401241 42.980524 
Q 311.138814 44.105214 311.51371 44.967476 
Q 311.888607 45.829738 312.825848 46.335848 
Q 313.76309 46.841959 314.606607 47.123131 
Q 315.450124 47.404303 316.574814 47.591752 
Q 317.174648 47.704221 319.1616 47.704221 
Q 319.611476 47.81669 319.948883 47.573007 
Q 320.28629 47.329324 320.623697 46.748234 
Q 320.961103 46.167145 321.073572 46.017186 
" clip-path="url(#p6113d60f59)" style="fill: none; stroke: #000000; stroke-linejoin: miter"/>
   </g>
  </g>
  <g id="axes_21">
   <g id="patch_19">
    <path d="M 327.638731 37.282097 
L 327.638731 37.844441 
Q 327.901159 39.868883 327.938648 41.312234 
Q 327.976138 42.755586 327.882414 44.667559 
Q 327.78869 46.579531 327.78869 48.191586 
L 327.863669 39.643945 
Q 327.863669 38.144359 329.456979 37.507034 
Q 331.05029 36.86971 332.474897 37.282097 
Q 334.386869 37.844441 335.305366 39.04411 
Q 336.223862 40.243779 336.280097 41.668386 
Q 336.336331 43.092993 336.373821 44.817517 
Q 336.41131 46.542041 336.561269 48.191586 
" clip-path="url(#pceafb539dc)" style="fill: none; stroke: #000000; stroke-linejoin: miter"/>
   </g>
  </g>
  <g id="axes_22"/>
  <g id="axes_23">
   <g id="patch_20">
    <path d="M 360.038731 37.282097 
L 360.038731 37.844441 
Q 360.301159 39.868883 360.338648 41.312234 
Q 360.376138 42.755586 360.282414 44.667559 
Q 360.18869 46.579531 360.18869 48.191586 
L 360.263669 39.643945 
Q 360.263669 38.144359 361.856979 37.507034 
Q 363.45029 36.86971 364.874897 37.282097 
Q 366.786869 37.844441 367.705366 39.04411 
Q 368.623862 40.243779 368.680097 41.668386 
Q 368.736331 43.092993 368.773821 44.817517 
Q 368.81131 46.542041 368.961269 48.191586 
" clip-path="url(#p815c2c306a)" style="fill: none; stroke: #000000; stroke-linejoin: miter"/>
   </g>
  </g>
  <g id="axes_24">
   <g id="patch_21">
    <path d="M 377.719572 33.795559 
L 377.719572 33.570621 
Q 377.719572 33.383172 377.775807 33.289448 
Q 377.832041 33.195724 377.907021 33.13949 
Q 377.982 33.083255 378.131959 32.989531 
Q 378.281917 32.895807 378.394386 32.783338 
L 382.555738 28.059641 
M 384.46771 37.619503 
L 381.318579 37.619503 
Q 377.94451 38.594234 377.044759 39.231559 
Q 375.395214 40.356248 375.282745 43.317931 
Q 375.245255 43.692828 375.245255 44.142703 
Q 375.245255 45.267393 376.107517 46.167145 
Q 376.969779 47.066897 378.056979 47.066897 
Q 378.919241 46.954428 379.706524 46.485807 
Q 380.493807 46.017186 380.999917 45.473586 
Q 381.506028 44.929986 382.049628 43.93651 
Q 382.593228 42.943034 382.8744 42.324455 
Q 383.155572 41.705876 383.605448 40.543697 
Q 384.055324 39.381517 384.242772 38.969131 
Q 384.580179 38.144359 384.692648 38.200593 
Q 384.805117 38.256828 384.692648 39.456497 
L 384.580179 40.993572 
Q 384.580179 41.031062 384.917586 44.705048 
L 386.154745 47.066897 
" clip-path="url(#p30a55b6521)" style="fill: none; stroke: #000000; stroke-linejoin: miter"/>
   </g>
  </g>
  <g id="axes_25">
   <g id="patch_22">
    <path d="M 392.438731 37.282097 
L 392.438731 37.844441 
Q 392.701159 39.868883 392.738648 41.312234 
Q 392.776138 42.755586 392.682414 44.667559 
Q 392.58869 46.579531 392.58869 48.191586 
L 392.663669 39.643945 
Q 392.663669 38.144359 394.256979 37.507034 
Q 395.85029 36.86971 397.274897 37.282097 
Q 399.186869 37.844441 400.105366 39.04411 
Q 401.023862 40.243779 401.080097 41.668386 
Q 401.136331 43.092993 401.173821 44.817517 
Q 401.21131 46.542041 401.361269 48.191586 
" clip-path="url(#p96dd6cd606)" style="fill: none; stroke: #000000; stroke-linejoin: miter"/>
   </g>
  </g>
 </g>
 <defs>
  <clipPath id="pfcd197f10b">
   <rect x="1.051945" y="8.64" width="14.09611" height="54.36"/>
  </clipPath>
  <clipPath id="pccf724f732">
   <rect x="16.352193" y="8.64" width="15.895614" height="54.36"/>
  </clipPath>
  <clipPath id="pa42e172493">
   <rect x="34.164248" y="8.64" width="12.671503" height="54.36"/>
  </clipPath>
  <clipPath id="p371c595006">
   <rect x="50.382993" y="8.64" width="12.634014" height="54.36"/>
  </clipPath>
  <clipPath id="p7d23bee8f0">
   <rect x="67.538979" y="8.64" width="10.722041" height="54.36"/>
  </clipPath>
  <clipPath id="pa01cc01b8e">
   <rect x="84.938648" y="8.64" width="8.322703" height="54.36"/>
  </clipPath>
  <clipPath id="p7f6cdc7e08">
   <rect x="114.789352" y="8.64" width="13.421297" height="54.36"/>
  </clipPath>
  <clipPath id="p44184171d3">
   <rect x="130.220814" y="8.64" width="14.958372" height="54.36"/>
  </clipPath>
  <clipPath id="p22d6488b8c">
   <rect x="163.051945" y="8.64" width="14.09611" height="54.36"/>
  </clipPath>
  <clipPath id="pf0a283b0eb">
   <rect x="183.806938" y="8.64" width="4.986124" height="54.36"/>
  </clipPath>
  <clipPath id="pa865ada82a">
   <rect x="194.552193" y="8.64" width="15.895614" height="54.36"/>
  </clipPath>
  <clipPath id="p71b2cf94f4">
   <rect x="212.364248" y="8.64" width="12.671503" height="54.36"/>
  </clipPath>
  <clipPath id="p9ad5ab446d">
   <rect x="227.233366" y="8.64" width="15.333269" height="54.36"/>
  </clipPath>
  <clipPath id="pd99118bde8">
   <rect x="243.152193" y="8.64" width="15.895614" height="54.36"/>
  </clipPath>
  <clipPath id="pe813183b5b">
   <rect x="264.806938" y="8.64" width="4.986124" height="54.36"/>
  </clipPath>
  <clipPath id="pb75301e410">
   <rect x="294.338979" y="8.64" width="10.722041" height="54.36"/>
  </clipPath>
  <clipPath id="p6113d60f59">
   <rect x="308.851945" y="8.64" width="14.09611" height="54.36"/>
  </clipPath>
  <clipPath id="pceafb539dc">
   <rect x="325.764248" y="8.64" width="12.671503" height="54.36"/>
  </clipPath>
  <clipPath id="p815c2c306a">
   <rect x="358.164248" y="8.64" width="12.671503" height="54.36"/>
  </clipPath>
  <clipPath id="p30a55b6521">
   <rect x="373.370772" y="8.64" width="14.658455" height="54.36"/>
  </clipPath>
  <clipPath id="p96dd6cd606">
   <rect x="390.564248" y="8.64" width="12.671503" height="54.36"/>
  </clipPath>
 </defs>
</svg>
