<?xml version="1.0" encoding="utf-8" standalone="no"?>
<!DOCTYPE svg PUBLIC "-//W3C//DTD SVG 1.1//EN"
  "http://www.w3.org/Graphics/SVG/1.1/DTD/svg11.dtd">
<svg xmlns:xlink="http://www.w3.org/1999/xlink" width="576pt" height="72pt" viewBox="0 0 576 72" xmlns="http://www.w3.org/2000/svg" version="1.1">
 <metadata>
  <rdf:RDF xmlns:dc="http://purl.org/dc/elements/1.1/" xmlns:cc="http://creativecommons.org/ns#" xmlns:rdf="http://www.w3.org/1999/02/22-rdf-syntax-ns#">
   <cc:Work>
    <dc:type rdf:resource="http://purl.org/dc/dcmitype/StillImage"/>
    <dc:date>2023-02-05T11:02:15.125649</dc:date>
    <dc:format>image/svg+xml</dc:format>
    <dc:creator>
     <cc:Agent>
      <dc:title>Matplotlib v3.6.1, https://matplotlib.org/</dc:title>
     </cc:Agent>
    </dc:creator>
   </cc:Work>
  </rdf:RDF>
 </metadata>
 <defs>
  <style type="text/css">*{stroke-linejoin: round; stroke-linecap: butt}</style>
 </defs>
 <g id="figure_1">
  <g id="patch_1">
   <path d="M 0 72 
L 576 72 
L 576 0 
L 0 0 
z
" style="fill: #8fff9f"/>
  </g>
  <g id="axes_1">
   <g id="patch_2">
    <path d="M 1.087248 30.470738 
L 2.261477 30.601208 
Q 4.088054 30.601208 5.925503 30.709933 
Q 7.762953 30.818658 10.002685 30.992617 
Q 12.242416 31.166577 13.677584 31.253557 
L 15.112752 31.123087 
M 7.871678 31.057852 
Q 7.936913 31.405772 7.675973 32.177718 
Q 7.415034 32.949664 7.610738 33.406309 
Q 7.610738 34.711007 7.752081 36.363624 
Q 7.893423 38.016242 8.110872 39.973289 
Q 8.328322 41.930336 8.393557 42.800134 
" clip-path="url(#pddafafd291)" style="fill: none; stroke: #000000; stroke-linejoin: miter"/>
   </g>
  </g>
  <g id="axes_2">
   <g id="patch_3">
    <path d="M 19.032703 35.332634 
L 29.379848 35.332634 
M 28.592566 39.344028 
Q 28.592566 39.344028 25.668372 39.344028 
Q 18.695297 39.344028 18.695297 44.5176 
Q 18.695297 46.279614 20.45731 47.19811 
Q 22.219324 48.116607 24.206276 48.116607 
Q 25.443434 47.891669 26.249462 47.2356 
Q 27.05549 46.579531 27.411641 45.586055 
Q 27.767793 44.592579 27.936497 43.674083 
Q 28.1052 42.755586 28.255159 41.443448 
Q 28.405117 40.13131 28.592566 39.344028 
Q 29.679766 46.092166 29.792234 47.029407 
L 29.904703 48.154097 
" clip-path="url(#p31768218d1)" style="fill: none; stroke: #000000; stroke-linejoin: miter"/>
   </g>
  </g>
  <g id="axes_3"/>
  <g id="axes_4">
   <g id="patch_4">
    <path d="M 51.8076 35.032717 
Q 51.8076 35.032717 55.181669 35.032717 
Q 55.294138 35.032717 57.037407 34.826524 
Q 58.780676 34.620331 59.792897 34.789034 
Q 60.805117 34.957738 60.805117 35.707531 
Q 60.805117 36.86971 59.792897 38.144359 
Q 58.780676 39.419007 57.318579 40.506207 
Q 55.856483 41.593407 54.394386 42.605628 
Q 52.93229 43.617848 51.920069 44.573834 
Q 50.907848 45.529821 50.907848 46.279614 
L 52.032538 46.279614 
Q 52.070028 46.279614 54.281917 46.054676 
L 62.492152 45.942207 
" clip-path="url(#pfb8ef8666e)" style="fill: none; stroke: #000000; stroke-linejoin: miter"/>
   </g>
  </g>
  <g id="axes_5">
   <g id="patch_5">
    <path d="M 69.413462 35.932469 
Q 70.013297 35.257655 71.006772 34.826524 
Q 72.000248 34.395393 72.9 34.470372 
Q 73.537324 34.470372 74.02469 34.639076 
Q 74.512055 34.807779 74.830717 34.995228 
Q 75.149379 35.182676 75.374317 35.670041 
Q 75.599255 36.157407 75.711724 36.419834 
Q 75.824193 36.682262 75.880428 37.375821 
Q 75.936662 38.069379 75.955407 38.331807 
Q 75.974152 38.594234 75.955407 39.419007 
Q 75.936662 40.243779 75.936662 40.431228 
Q 75.936662 41.368469 75.767959 43.242952 
Q 75.599255 45.117434 75.599255 46.054676 
Q 75.599255 46.467062 75.65549 46.823214 
Q 75.711724 47.179366 75.805448 47.610497 
Q 75.899172 48.041628 75.936662 48.304055 
L 76.386538 48.528993 
M 69.863338 23.111007 
Q 70.088276 24.798041 70.088276 29.971614 
L 70.088276 42.3432 
L 69.750869 46.841959 
L 69.525931 47.74171 
" clip-path="url(#pfd92658fe5)" style="fill: none; stroke: #000000; stroke-linejoin: miter"/>
   </g>
  </g>
  <g id="axes_6">
   <g id="patch_6">
    <path d="M 85.557228 36.157407 
L 92.642772 36.157407 
M 89.043766 39.306538 
L 89.043766 47.516772 
" clip-path="url(#p8c2c2d63c9)" style="fill: none; stroke: #000000; stroke-linejoin: miter"/>
   </g>
  </g>
  <g id="axes_7">
   <g id="patch_7">
    <path d="M 108.899007 39.568966 
Q 107.549379 38.181848 105.3 38.444276 
Q 102.450786 38.444276 101.288607 39.793903 
Q 100.126428 41.143531 100.126428 44.067724 
Q 100.126428 45.56731 101.419821 46.279614 
Q 102.713214 46.991917 104.287779 46.991917 
Q 105.599917 46.991917 106.612138 45.736014 
Q 107.624359 44.48011 108.205448 42.30571 
Q 108.786538 40.13131 109.161434 37.938166 
Q 109.536331 35.745021 109.68629 33.045766 
Q 109.836248 30.34651 109.873738 28.978138 
Q 109.911228 27.609766 109.911228 26.185159 
Q 109.68629 26.260138 109.68629 29.896634 
L 109.68629 44.292662 
L 110.473572 48.229076 
" clip-path="url(#p3021a95a85)" style="fill: none; stroke: #000000; stroke-linejoin: miter"/>
   </g>
  </g>
  <g id="axes_8">
   <g id="patch_8">
    <path d="M 118.013462 29.784166 
Q 118.988193 30.271531 120.281586 31.827352 
Q 121.574979 33.383172 122.062345 33.833048 
L 122.737159 34.507862 
M 125.773821 37.432055 
Q 124.461683 36.94469 123.411972 36.982179 
Q 123.149545 36.982179 122.249793 37.000924 
Q 121.350041 37.019669 120.91891 37.038414 
Q 120.487779 37.057159 119.625517 37.169628 
Q 118.763255 37.282097 118.294634 37.41331 
Q 117.826014 37.544524 117.18869 37.844441 
Q 116.551366 38.144359 116.232703 38.538 
Q 115.914041 38.931641 115.670359 39.550221 
Q 115.426676 40.1688 115.426676 40.918593 
Q 115.426676 42.830566 117.038731 44.348897 
Q 118.650786 45.867228 120.600248 45.867228 
Q 121.949876 45.867228 122.812138 45.323628 
Q 123.6744 44.780028 124.086786 43.842786 
Q 124.499172 42.905545 124.72411 41.912069 
Q 124.949048 40.918593 125.286455 39.756414 
Q 125.623862 38.594234 126.111228 37.881931 
L 126.561103 43.842786 
L 127.573324 46.991917 
" clip-path="url(#pd0b4a76ffc)" style="fill: none; stroke: #000000; stroke-linejoin: miter"/>
   </g>
  </g>
  <g id="axes_9">
   <g id="patch_9">
    <path d="M 140.9616 35.032717 
Q 139.91189 34.582841 138.937159 34.69531 
Q 135.900497 35.032717 133.988524 36.701007 
Q 132.076552 38.369297 132.076552 41.330979 
Q 132.076552 43.917766 134.082248 45.6048 
Q 136.087945 47.291834 138.712221 47.291834 
Q 141.074069 47.291834 142.198759 45.361117 
Q 143.323448 43.4304 143.323448 40.881103 
Q 143.323448 39.643945 142.911062 38.706703 
Q 142.498676 37.769462 141.973821 37.300841 
Q 141.448966 36.832221 140.699172 36.119917 
Q 139.949379 35.407614 139.499503 34.69531 
L 138.262345 34.245434 
" clip-path="url(#pe846be2669)" style="fill: none; stroke: #000000; stroke-linejoin: miter"/>
   </g>
  </g>
  <g id="axes_10"/>
  <g id="axes_11">
   <g id="patch_10">
    <path d="M 165.2076 35.032717 
Q 165.2076 35.032717 168.581669 35.032717 
Q 168.694138 35.032717 170.437407 34.826524 
Q 172.180676 34.620331 173.192897 34.789034 
Q 174.205117 34.957738 174.205117 35.707531 
Q 174.205117 36.86971 173.192897 38.144359 
Q 172.180676 39.419007 170.718579 40.506207 
Q 169.256483 41.593407 167.794386 42.605628 
Q 166.33229 43.617848 165.320069 44.573834 
Q 164.307848 45.529821 164.307848 46.279614 
L 165.432538 46.279614 
Q 165.470028 46.279614 167.681917 46.054676 
L 175.892152 45.942207 
" clip-path="url(#p9c283bbfcb)" style="fill: none; stroke: #000000; stroke-linejoin: miter"/>
   </g>
  </g>
  <g id="axes_12">
   <g id="patch_11">
    <path d="M 184.013131 30.384 
L 187.274731 34.657821 
M 186.937324 37.019669 
L 186.674897 41.743366 
Q 186.787366 42.268221 186.918579 43.749062 
Q 187.049793 45.229903 187.3872 46.1484 
Q 187.724607 47.066897 188.586869 47.591752 
" clip-path="url(#pad13cab4ef)" style="fill: none; stroke: #000000; stroke-linejoin: miter"/>
   </g>
  </g>
  <g id="axes_13">
   <g id="patch_12">
    <path d="M 202.856152 30.309021 
Q 202.368786 30.42149 202.781172 30.833876 
Q 203.156069 31.208772 203.231048 30.946345 
Q 203.268538 30.871366 203.193559 30.646428 
Q 203.193559 30.458979 203.118579 30.42149 
Q 203.0436 30.384 202.912386 30.42149 
Q 202.781172 30.458979 202.631214 30.42149 
L 202.518745 30.646428 
M 203.418497 33.345683 
Q 204.468207 37.731972 204.993062 40.13131 
Q 205.517917 42.530648 205.967793 46.317103 
Q 206.417669 50.103559 206.230221 53.25269 
Q 206.230221 53.440138 206.230221 54.021228 
Q 206.230221 54.602317 206.230221 54.902234 
Q 206.230221 55.202152 206.211476 55.783241 
Q 206.192731 56.364331 206.117752 56.701738 
Q 206.042772 57.039145 205.930303 57.52651 
Q 205.817834 58.013876 205.611641 58.313793 
Q 205.405448 58.61371 205.143021 58.894883 
Q 204.880593 59.176055 204.505697 59.307269 
Q 204.1308 59.438483 203.643434 59.438483 
Q 202.668703 59.438483 201.91891 59.251034 
Q 201.169117 59.063586 200.306855 58.707434 
Q 199.444593 58.351283 198.807269 58.201324 
L 198.582331 57.751448 
" clip-path="url(#p584c7f13e7)" style="fill: none; stroke: #000000; stroke-linejoin: miter"/>
   </g>
  </g>
  <g id="axes_14">
   <g id="patch_13">
    <path d="M 216.000745 33.345683 
L 216.000745 33.570621 
Q 216.000745 34.545352 216.975476 35.969959 
Q 217.950207 37.394566 218.924938 37.394566 
Q 219.299834 37.394566 219.655986 36.9072 
Q 220.012138 36.419834 220.3308 35.726276 
Q 220.649462 35.032717 220.724441 34.920248 
L 221.399255 31.771117 
M 218.962428 39.419007 
L 218.512552 47.291834 
L 218.175145 47.74171 
" clip-path="url(#pdc07b4c0f5)" style="fill: none; stroke: #000000; stroke-linejoin: miter"/>
   </g>
  </g>
  <g id="axes_15"/>
  <g id="axes_16">
   <g id="patch_14">
    <path d="M 254.699007 34.920248 
Q 253.836745 36.007448 250.725103 40.018841 
Q 247.613462 44.030234 245.926428 46.054676 
M 246.826179 36.044938 
Q 248.700662 37.319586 251.193724 40.843614 
Q 253.686786 44.367641 255.261352 45.6048 
L 256.273572 45.942207 
" clip-path="url(#p3ae7e93d5b)" style="fill: none; stroke: #000000; stroke-linejoin: miter"/>
   </g>
  </g>
  <g id="axes_17">
   <g id="patch_15">
    <path d="M 262.932455 35.182676 
L 270.242938 35.182676 
M 262.145172 39.456497 
Q 262.107683 39.943862 262.145172 41.143531 
Q 262.145172 42.30571 262.145172 42.755586 
Q 262.145172 43.205462 262.238897 44.198938 
Q 262.332621 45.192414 262.482579 45.6048 
Q 262.632538 46.017186 262.969945 46.692 
Q 263.307352 47.366814 263.794717 47.647986 
Q 264.282083 47.929159 265.031876 48.172841 
Q 265.781669 48.416524 266.7564 48.416524 
Q 270.992731 48.416524 270.992731 39.681434 
Q 270.992731 43.655338 271.817503 48.004138 
L 272.492317 48.229076 
" clip-path="url(#pf9c51181ac)" style="fill: none; stroke: #000000; stroke-linejoin: miter"/>
   </g>
  </g>
  <g id="axes_18">
   <g id="patch_16">
    <path d="M 278.363917 36.382345 
Q 278.326428 36.494814 278.457641 36.701007 
Q 278.588855 36.9072 278.476386 37.057159 
L 278.476386 39.306538 
Q 278.476386 40.506207 278.813793 41.724621 
Q 279.1512 42.943034 280.013462 43.93651 
Q 280.875724 44.929986 282.075393 44.929986 
Q 283.312552 44.929986 283.987366 43.861531 
Q 284.662179 42.793076 285.112055 41.143531 
Q 285.561931 39.493986 285.899338 38.969131 
L 286.686621 36.382345 
L 286.461683 42.680607 
L 286.461683 45.154924 
Q 286.461683 47.066897 287.192731 51.00331 
Q 287.923779 54.939724 287.923779 56.964166 
Q 288.673572 59.213545 287.586372 60.188276 
Q 286.499172 61.163007 284.437241 60.78811 
Q 282.637738 60.488193 281.719241 60.169531 
Q 280.800745 59.850869 278.813793 58.988607 
L 278.701324 58.426262 
" clip-path="url(#pae68eee127)" style="fill: none; stroke: #000000; stroke-linejoin: miter"/>
   </g>
  </g>
  <g id="axes_19">
   <g id="patch_17">
    <path d="M 296.213462 29.784166 
Q 297.188193 30.271531 298.481586 31.827352 
Q 299.774979 33.383172 300.262345 33.833048 
L 300.937159 34.507862 
M 303.973821 37.432055 
Q 302.661683 36.94469 301.611972 36.982179 
Q 301.349545 36.982179 300.449793 37.000924 
Q 299.550041 37.019669 299.11891 37.038414 
Q 298.687779 37.057159 297.825517 37.169628 
Q 296.963255 37.282097 296.494634 37.41331 
Q 296.026014 37.544524 295.38869 37.844441 
Q 294.751366 38.144359 294.432703 38.538 
Q 294.114041 38.931641 293.870359 39.550221 
Q 293.626676 40.1688 293.626676 40.918593 
Q 293.626676 42.830566 295.238731 44.348897 
Q 296.850786 45.867228 298.800248 45.867228 
Q 300.149876 45.867228 301.012138 45.323628 
Q 301.8744 44.780028 302.286786 43.842786 
Q 302.699172 42.905545 302.92411 41.912069 
Q 303.149048 40.918593 303.486455 39.756414 
Q 303.823862 38.594234 304.311228 37.881931 
L 304.761103 43.842786 
L 305.773324 46.991917 
" clip-path="url(#p4da40bd3c9)" style="fill: none; stroke: #000000; stroke-linejoin: miter"/>
   </g>
  </g>
  <g id="axes_20">
   <g id="patch_18">
    <path d="M 319.1616 35.032717 
Q 318.11189 34.582841 317.137159 34.69531 
Q 314.100497 35.032717 312.188524 36.701007 
Q 310.276552 38.369297 310.276552 41.330979 
Q 310.276552 43.917766 312.282248 45.6048 
Q 314.287945 47.291834 316.912221 47.291834 
Q 319.274069 47.291834 320.398759 45.361117 
Q 321.523448 43.4304 321.523448 40.881103 
Q 321.523448 39.643945 321.111062 38.706703 
Q 320.698676 37.769462 320.173821 37.300841 
Q 319.648966 36.832221 318.899172 36.119917 
Q 318.149379 35.407614 317.699503 34.69531 
L 316.462345 34.245434 
" clip-path="url(#p27d0c99257)" style="fill: none; stroke: #000000; stroke-linejoin: miter"/>
   </g>
  </g>
  <g id="axes_21"/>
  <g id="axes_22">
   <g id="patch_19">
    <path d="M 353.087191 39.096404 
Q 352.83236 39.023596 351.86764 38.623146 
Q 350.902921 38.222697 350.24764 38.077079 
Q 349.59236 37.931461 348.937079 38.00427 
Q 346.315955 38.00427 344.677753 40.388764 
Q 343.039551 42.773258 343.039551 45.430787 
Q 343.039551 47.068989 348.281798 47.068989 
Q 349.847191 47.068989 351.175955 45.558202 
Q 352.504719 44.047416 353.178202 42.172584 
Q 353.851685 40.297753 353.851685 38.768764 
Q 353.851685 37.27618 353.815281 36.984944 
L 353.742472 38.077079 
Q 353.742472 38.550337 353.742472 38.987191 
Q 353.778876 40.188539 353.979101 42.281798 
Q 354.179326 44.375056 354.343146 46.049663 
Q 354.506966 47.72427 354.543371 49.872135 
Q 354.579775 52.02 354.415955 53.658202 
Q 354.252135 55.296404 353.687865 56.971011 
Q 353.123596 58.645618 352.195281 59.737753 
Q 351.266966 60.829888 349.665169 61.521573 
Q 348.063371 62.213258 345.915506 62.213258 
Q 344.277303 62.213258 343.185169 61.466966 
Q 342.093034 60.720674 342.093034 59.155281 
Q 342.020225 58.936854 342.056629 58.936854 
Q 342.093034 58.936854 342.202247 58.936854 
Q 342.311461 58.936854 342.311461 58.82764 
" clip-path="url(#p3219715b5a)" style="fill: none; stroke: #000000; stroke-linejoin: miter"/>
   </g>
  </g>
  <g id="axes_23">
   <g id="patch_20">
    <path d="M 362.513048 29.671697 
Q 363.37531 30.271531 364.200083 31.171283 
Q 365.024855 32.071034 365.980841 33.270703 
Q 366.936828 34.470372 367.461683 35.070207 
M 361.350869 41.705876 
L 361.575807 41.705876 
Q 361.838234 41.668386 362.36309 41.76211 
Q 362.887945 41.855834 363.150372 41.818345 
Q 363.750207 41.743366 364.331297 41.780855 
Q 364.912386 41.818345 365.474731 41.743366 
Q 366.037076 41.668386 366.468207 41.443448 
Q 366.899338 41.21851 367.161766 40.637421 
Q 367.424193 40.056331 367.424193 39.11909 
Q 367.311724 37.881931 366.393228 37.319586 
Q 365.474731 36.757241 364.275062 36.86971 
Q 362.925434 36.982179 362.025683 37.9944 
Q 361.125931 39.006621 361.125931 40.356248 
Q 361.125931 48.82891 367.874069 46.766979 
" clip-path="url(#pa1548b7ea1)" style="fill: none; stroke: #000000; stroke-linejoin: miter"/>
   </g>
  </g>
  <g id="axes_24">
   <g id="patch_21">
    <path d="M 376.238731 37.282097 
L 376.238731 37.844441 
Q 376.501159 39.868883 376.538648 41.312234 
Q 376.576138 42.755586 376.482414 44.667559 
Q 376.38869 46.579531 376.38869 48.191586 
L 376.463669 39.643945 
Q 376.463669 38.144359 378.056979 37.507034 
Q 379.65029 36.86971 381.074897 37.282097 
Q 382.986869 37.844441 383.905366 39.04411 
Q 384.823862 40.243779 384.880097 41.668386 
Q 384.936331 43.092993 384.973821 44.817517 
Q 385.01131 46.542041 385.161269 48.191586 
" clip-path="url(#padf26508e9)" style="fill: none; stroke: #000000; stroke-linejoin: miter"/>
   </g>
  </g>
  <g id="axes_25">
   <g id="patch_22">
    <path d="M 401.687191 39.096404 
Q 401.43236 39.023596 400.46764 38.623146 
Q 399.502921 38.222697 398.84764 38.077079 
Q 398.19236 37.931461 397.537079 38.00427 
Q 394.915955 38.00427 393.277753 40.388764 
Q 391.639551 42.773258 391.639551 45.430787 
Q 391.639551 47.068989 396.881798 47.068989 
Q 398.447191 47.068989 399.775955 45.558202 
Q 401.104719 44.047416 401.778202 42.172584 
Q 402.451685 40.297753 402.451685 38.768764 
Q 402.451685 37.27618 402.415281 36.984944 
L 402.342472 38.077079 
Q 402.342472 38.550337 402.342472 38.987191 
Q 402.378876 40.188539 402.579101 42.281798 
Q 402.779326 44.375056 402.943146 46.049663 
Q 403.106966 47.72427 403.143371 49.872135 
Q 403.179775 52.02 403.015955 53.658202 
Q 402.852135 55.296404 402.287865 56.971011 
Q 401.723596 58.645618 400.795281 59.737753 
Q 399.866966 60.829888 398.265169 61.521573 
Q 396.663371 62.213258 394.515506 62.213258 
Q 392.877303 62.213258 391.785169 61.466966 
Q 390.693034 60.720674 390.693034 59.155281 
Q 390.620225 58.936854 390.656629 58.936854 
Q 390.693034 58.936854 390.802247 58.936854 
Q 390.911461 58.936854 390.911461 58.82764 
" clip-path="url(#p021ab36d5d)" style="fill: none; stroke: #000000; stroke-linejoin: miter"/>
   </g>
  </g>
  <g id="axes_26"/>
  <g id="axes_27">
   <g id="patch_23">
    <path d="M 432.899007 39.568966 
Q 431.549379 38.181848 429.3 38.444276 
Q 426.450786 38.444276 425.288607 39.793903 
Q 424.126428 41.143531 424.126428 44.067724 
Q 424.126428 45.56731 425.419821 46.279614 
Q 426.713214 46.991917 428.287779 46.991917 
Q 429.599917 46.991917 430.612138 45.736014 
Q 431.624359 44.48011 432.205448 42.30571 
Q 432.786538 40.13131 433.161434 37.938166 
Q 433.536331 35.745021 433.68629 33.045766 
Q 433.836248 30.34651 433.873738 28.978138 
Q 433.911228 27.609766 433.911228 26.185159 
Q 433.68629 26.260138 433.68629 29.896634 
L 433.68629 44.292662 
L 434.473572 48.229076 
" clip-path="url(#p280304de94)" style="fill: none; stroke: #000000; stroke-linejoin: miter"/>
   </g>
  </g>
  <g id="axes_28">
   <g id="patch_24">
    <path d="M 440.888772 35.145186 
Q 440.888772 35.145186 440.888772 35.595062 
Q 440.888772 36.269876 440.776303 37.619503 
Q 440.663834 38.969131 440.663834 39.643945 
Q 440.663834 41.930814 441.900993 43.599103 
Q 443.138152 45.267393 445.275062 45.267393 
Q 446.662179 45.154924 447.430717 43.917766 
Q 448.199255 42.680607 448.349214 41.237255 
Q 448.499172 39.793903 448.7616 37.9944 
Q 449.024028 36.194897 449.436414 35.370124 
Q 449.586372 35.070207 449.586372 35.670041 
Q 449.586372 36.269876 449.323945 38.706703 
Q 449.099007 41.031062 449.099007 41.555917 
Q 448.949048 42.643117 449.286455 43.767807 
Q 449.623862 44.892497 450.336166 45.6048 
" clip-path="url(#pca4d59a1e2)" style="fill: none; stroke: #000000; stroke-linejoin: miter"/>
   </g>
  </g>
  <g id="axes_29">
   <g id="patch_25">
    <path d="M 457.482414 34.020497 
L 465.017834 34.357903 
M 463.855655 38.106869 
Q 463.818166 37.95691 463.237076 37.975655 
Q 462.655986 37.9944 462.618497 37.9944 
Q 459.731793 37.9944 458.644593 39.287793 
Q 457.557393 40.581186 457.557393 43.617848 
Q 457.557393 45.267393 458.719572 46.523297 
Q 459.881752 47.7792 461.606276 47.7792 
Q 463.180841 47.7792 464.418 46.598276 
Q 465.655159 45.417352 465.655159 43.842786 
Q 465.917586 42.043283 464.92411 40.318759 
Q 463.930634 38.594234 462.28109 37.881931 
" clip-path="url(#pfd9e08f19e)" style="fill: none; stroke: #000000; stroke-linejoin: miter"/>
   </g>
  </g>
  <g id="axes_30"/>
  <g id="axes_31">
   <g id="patch_26">
    <path d="M 497.699007 39.568966 
Q 496.349379 38.181848 494.1 38.444276 
Q 491.250786 38.444276 490.088607 39.793903 
Q 488.926428 41.143531 488.926428 44.067724 
Q 488.926428 45.56731 490.219821 46.279614 
Q 491.513214 46.991917 493.087779 46.991917 
Q 494.399917 46.991917 495.412138 45.736014 
Q 496.424359 44.48011 497.005448 42.30571 
Q 497.586538 40.13131 497.961434 37.938166 
Q 498.336331 35.745021 498.48629 33.045766 
Q 498.636248 30.34651 498.673738 28.978138 
Q 498.711228 27.609766 498.711228 26.185159 
Q 498.48629 26.260138 498.48629 29.896634 
L 498.48629 44.292662 
L 499.273572 48.229076 
" clip-path="url(#p8b8e31b52a)" style="fill: none; stroke: #000000; stroke-linejoin: miter"/>
   </g>
  </g>
  <g id="axes_32">
   <g id="patch_27">
    <path d="M 504.057798 38.160826 
Q 507.030275 39.535596 511.749083 39.721376 
Q 513.272477 39.721376 513.959862 38.550963 
Q 514.647248 37.38055 514.647248 35.82 
Q 514.647248 35.299817 514.554358 34.909679 
Q 514.461468 34.519541 514.219954 34.296606 
Q 513.97844 34.07367 513.811239 33.943624 
Q 513.644037 33.813578 513.198165 33.757844 
Q 512.752294 33.70211 512.547936 33.683532 
Q 512.343578 33.664954 511.767661 33.683532 
Q 511.191743 33.70211 510.968807 33.70211 
Q 508.925229 33.70211 507.438991 35.578486 
Q 505.952752 37.454862 505.952752 39.609908 
Q 505.952752 42.619541 507.884862 44.570229 
Q 509.816972 46.520917 512.863761 46.520917 
Q 515.018807 46.818165 516.542202 44.29156 
" clip-path="url(#pc5200b412c)" style="fill: none; stroke: #000000; stroke-linejoin: miter"/>
   </g>
  </g>
 </g>
 <defs>
  <clipPath id="pddafafd291">
   <rect x="0" y="20.054899" width="16.2" height="31.530201"/>
  </clipPath>
  <clipPath id="p31768218d1">
   <rect x="16.820814" y="8.64" width="14.958372" height="54.36"/>
  </clipPath>
  <clipPath id="pfb8ef8666e">
   <rect x="49.033366" y="8.64" width="15.333269" height="54.36"/>
  </clipPath>
  <clipPath id="pfd92658fe5">
   <rect x="67.538979" y="8.64" width="10.722041" height="54.36"/>
  </clipPath>
  <clipPath id="p8c2c2d63c9">
   <rect x="83.682745" y="8.64" width="10.83451" height="54.36"/>
  </clipPath>
  <clipPath id="p3021a95a85">
   <rect x="98.251945" y="8.64" width="14.09611" height="54.36"/>
  </clipPath>
  <clipPath id="pd0b4a76ffc">
   <rect x="113.552193" y="8.64" width="15.895614" height="54.36"/>
  </clipPath>
  <clipPath id="pe846be2669">
   <rect x="130.202069" y="8.64" width="14.995862" height="54.36"/>
  </clipPath>
  <clipPath id="p9c283bbfcb">
   <rect x="162.433366" y="8.64" width="15.333269" height="54.36"/>
  </clipPath>
  <clipPath id="pad13cab4ef">
   <rect x="182.138648" y="8.64" width="8.322703" height="54.36"/>
  </clipPath>
  <clipPath id="p584c7f13e7">
   <rect x="196.707848" y="8.64" width="11.584303" height="54.36"/>
  </clipPath>
  <clipPath id="pdc07b4c0f5">
   <rect x="214.126262" y="8.64" width="9.147476" height="54.36"/>
  </clipPath>
  <clipPath id="p3ae7e93d5b">
   <rect x="244.051945" y="8.64" width="14.09611" height="54.36"/>
  </clipPath>
  <clipPath id="pf9c51181ac">
   <rect x="260.2332" y="8.64" width="14.1336" height="54.36"/>
  </clipPath>
  <clipPath id="pae68eee127">
   <rect x="276.451945" y="8.64" width="14.09611" height="54.36"/>
  </clipPath>
  <clipPath id="p4da40bd3c9">
   <rect x="291.752193" y="8.64" width="15.895614" height="54.36"/>
  </clipPath>
  <clipPath id="p27d0c99257">
   <rect x="308.402069" y="8.64" width="14.995862" height="54.36"/>
  </clipPath>
  <clipPath id="p3219715b5a">
   <rect x="340.2" y="9.426742" width="16.2" height="52.786517"/>
  </clipPath>
  <clipPath id="pa1548b7ea1">
   <rect x="359.251448" y="8.64" width="10.497103" height="54.36"/>
  </clipPath>
  <clipPath id="padf26508e9">
   <rect x="374.364248" y="8.64" width="12.671503" height="54.36"/>
  </clipPath>
  <clipPath id="p021ab36d5d">
   <rect x="388.8" y="9.426742" width="16.2" height="52.786517"/>
  </clipPath>
  <clipPath id="p280304de94">
   <rect x="422.251945" y="8.64" width="14.09611" height="54.36"/>
  </clipPath>
  <clipPath id="pca4d59a1e2">
   <rect x="438.789352" y="8.64" width="13.421297" height="54.36"/>
  </clipPath>
  <clipPath id="pfd9e08f19e">
   <rect x="455.607931" y="8.64" width="12.184138" height="54.36"/>
  </clipPath>
  <clipPath id="p8b8e31b52a">
   <rect x="487.051945" y="8.64" width="14.09611" height="54.36"/>
  </clipPath>
  <clipPath id="pc5200b412c">
   <rect x="502.2" y="8.881927" width="16.2" height="53.876147"/>
  </clipPath>
 </defs>
</svg>
