<?xml version="1.0" encoding="utf-8" standalone="no"?>
<!DOCTYPE svg PUBLIC "-//W3C//DTD SVG 1.1//EN"
  "http://www.w3.org/Graphics/SVG/1.1/DTD/svg11.dtd">
<svg xmlns:xlink="http://www.w3.org/1999/xlink" width="576pt" height="72pt" viewBox="0 0 576 72" xmlns="http://www.w3.org/2000/svg" version="1.1">
 <metadata>
  <rdf:RDF xmlns:dc="http://purl.org/dc/elements/1.1/" xmlns:cc="http://creativecommons.org/ns#" xmlns:rdf="http://www.w3.org/1999/02/22-rdf-syntax-ns#">
   <cc:Work>
    <dc:type rdf:resource="http://purl.org/dc/dcmitype/StillImage"/>
    <dc:date>2023-02-05T22:22:40.025963</dc:date>
    <dc:format>image/svg+xml</dc:format>
    <dc:creator>
     <cc:Agent>
      <dc:title>Matplotlib v3.6.1, https://matplotlib.org/</dc:title>
     </cc:Agent>
    </dc:creator>
   </cc:Work>
  </rdf:RDF>
 </metadata>
 <defs>
  <style type="text/css">*{stroke-linejoin: round; stroke-linecap: butt}</style>
 </defs>
 <g id="figure_1">
  <g id="patch_1">
   <path d="M 0 72 
L 576 72 
L 576 0 
L 0 0 
z
" style="fill: #8fff9f"/>
  </g>
  <g id="axes_1">
   <g id="patch_2">
    <path d="M 1.716102 36.437797 
L 2.951695 44.778051 
Q 3.054661 45.567458 3.054661 45.60178 
Q 3.054661 45.704746 3.363559 45.704746 
Q 4.22161 45.704746 4.942373 44.778051 
Q 5.663136 43.851356 6.075 42.718729 
Q 6.486864 41.586102 7.001695 40.659407 
Q 7.516525 39.732712 7.997034 39.732712 
Q 8.614831 39.732712 9.249788 40.607924 
Q 9.884746 41.483136 10.348093 42.512797 
Q 10.811441 43.542458 11.48072 44.417669 
Q 12.15 45.292881 12.836441 45.292881 
Q 13.111017 43.782712 13.540042 39.69839 
Q 13.969068 35.614068 14.483898 33.554746 
" clip-path="url(#p6be42ec423)" style="fill: none; stroke: #000000; stroke-linejoin: miter"/>
   </g>
  </g>
  <g id="axes_2">
   <g id="patch_3">
    <path d="M 20.813462 29.784166 
Q 21.788193 30.271531 23.081586 31.827352 
Q 24.374979 33.383172 24.862345 33.833048 
L 25.537159 34.507862 
M 28.573821 37.432055 
Q 27.261683 36.94469 26.211972 36.982179 
Q 25.949545 36.982179 25.049793 37.000924 
Q 24.150041 37.019669 23.71891 37.038414 
Q 23.287779 37.057159 22.425517 37.169628 
Q 21.563255 37.282097 21.094634 37.41331 
Q 20.626014 37.544524 19.98869 37.844441 
Q 19.351366 38.144359 19.032703 38.538 
Q 18.714041 38.931641 18.470359 39.550221 
Q 18.226676 40.1688 18.226676 40.918593 
Q 18.226676 42.830566 19.838731 44.348897 
Q 21.450786 45.867228 23.400248 45.867228 
Q 24.749876 45.867228 25.612138 45.323628 
Q 26.4744 44.780028 26.886786 43.842786 
Q 27.299172 42.905545 27.52411 41.912069 
Q 27.749048 40.918593 28.086455 39.756414 
Q 28.423862 38.594234 28.911228 37.881931 
L 29.361103 43.842786 
L 30.373324 46.991917 
" clip-path="url(#pb9f9c8efb7)" style="fill: none; stroke: #000000; stroke-linejoin: miter"/>
   </g>
  </g>
  <g id="axes_3">
   <g id="patch_4">
    <path d="M 41.118579 29.071862 
Q 40.743683 29.146841 40.612469 29.577972 
Q 40.481255 30.009103 40.556234 30.42149 
Q 40.556234 30.571448 40.593724 30.702662 
Q 40.631214 30.833876 40.687448 30.89011 
Q 40.743683 30.946345 40.799917 31.040069 
Q 40.856152 31.133793 40.893641 31.208772 
L 41.00611 29.859145 
M 41.00611 34.020497 
Q 40.106359 39.006621 39.881421 42.793076 
L 40.331297 45.379862 
L 40.668703 46.054676 
" clip-path="url(#p61ea199cd2)" style="fill: none; stroke: #000000; stroke-linejoin: miter"/>
   </g>
  </g>
  <g id="axes_4">
   <g id="patch_5">
    <path d="M 50.408036 34.879821 
Q 50.914286 36.073125 51.203571 42.871339 
Q 51.348214 46.632054 51.6375 46.632054 
Q 51.673661 46.632054 51.709821 46.595893 
Q 52.216071 46.017321 52.270313 44.588973 
Q 52.324554 43.160625 52.107589 41.750357 
Q 51.890625 40.340089 51.6375 38.712857 
Q 51.384375 37.085625 51.384375 36.398571 
Q 51.384375 35.169107 51.764063 33.939643 
Q 52.14375 32.710179 53.120089 32.710179 
Q 54.349554 32.710179 55.072768 34.355491 
Q 55.795982 36.000804 55.958705 37.971562 
Q 56.121429 39.942321 56.229911 41.587634 
Q 56.338393 43.232946 56.483036 43.232946 
Q 56.627679 43.232946 56.71808 41.497232 
Q 56.808482 39.761518 56.935045 37.700357 
Q 57.061607 35.639196 57.784821 33.903482 
Q 58.508036 32.167768 59.7375 32.167768 
Q 61.292411 33.035625 61.961384 34.771339 
Q 62.630357 36.507054 62.594196 38.188527 
Q 62.558036 39.87 62.576116 42.057723 
Q 62.594196 44.245446 62.991964 45.511071 
" clip-path="url(#p7b99c1997d)" style="fill: none; stroke: #000000; stroke-linejoin: miter"/>
   </g>
  </g>
  <g id="axes_5">
   <g id="patch_6">
    <path d="M 73.518579 29.071862 
Q 73.143683 29.146841 73.012469 29.577972 
Q 72.881255 30.009103 72.956234 30.42149 
Q 72.956234 30.571448 72.993724 30.702662 
Q 73.031214 30.833876 73.087448 30.89011 
Q 73.143683 30.946345 73.199917 31.040069 
Q 73.256152 31.133793 73.293641 31.208772 
L 73.40611 29.859145 
M 73.40611 34.020497 
Q 72.506359 39.006621 72.281421 42.793076 
L 72.731297 45.379862 
L 73.068703 46.054676 
" clip-path="url(#pf71c520788)" style="fill: none; stroke: #000000; stroke-linejoin: miter"/>
   </g>
  </g>
  <g id="axes_6">
   <g id="patch_7">
    <path d="M 85.613462 29.784166 
Q 86.588193 30.271531 87.881586 31.827352 
Q 89.174979 33.383172 89.662345 33.833048 
L 90.337159 34.507862 
M 93.373821 37.432055 
Q 92.061683 36.94469 91.011972 36.982179 
Q 90.749545 36.982179 89.849793 37.000924 
Q 88.950041 37.019669 88.51891 37.038414 
Q 88.087779 37.057159 87.225517 37.169628 
Q 86.363255 37.282097 85.894634 37.41331 
Q 85.426014 37.544524 84.78869 37.844441 
Q 84.151366 38.144359 83.832703 38.538 
Q 83.514041 38.931641 83.270359 39.550221 
Q 83.026676 40.1688 83.026676 40.918593 
Q 83.026676 42.830566 84.638731 44.348897 
Q 86.250786 45.867228 88.200248 45.867228 
Q 89.549876 45.867228 90.412138 45.323628 
Q 91.2744 44.780028 91.686786 43.842786 
Q 92.099172 42.905545 92.32411 41.912069 
Q 92.549048 40.918593 92.886455 39.756414 
Q 93.223862 38.594234 93.711228 37.881931 
L 94.161103 43.842786 
L 95.173324 46.991917 
" clip-path="url(#p7cf5d0e2f2)" style="fill: none; stroke: #000000; stroke-linejoin: miter"/>
   </g>
  </g>
  <g id="axes_7">
   <g id="patch_8">
    <path d="M 100.838731 37.282097 
L 100.838731 37.844441 
Q 101.101159 39.868883 101.138648 41.312234 
Q 101.176138 42.755586 101.082414 44.667559 
Q 100.98869 46.579531 100.98869 48.191586 
L 101.063669 39.643945 
Q 101.063669 38.144359 102.656979 37.507034 
Q 104.25029 36.86971 105.674897 37.282097 
Q 107.586869 37.844441 108.505366 39.04411 
Q 109.423862 40.243779 109.480097 41.668386 
Q 109.536331 43.092993 109.573821 44.817517 
Q 109.61131 46.542041 109.761269 48.191586 
" clip-path="url(#p55b065fc20)" style="fill: none; stroke: #000000; stroke-linejoin: miter"/>
   </g>
  </g>
  <g id="axes_8"/>
  <g id="axes_9">
   <g id="patch_9">
    <path d="M 141.299007 39.568966 
Q 139.949379 38.181848 137.7 38.444276 
Q 134.850786 38.444276 133.688607 39.793903 
Q 132.526428 41.143531 132.526428 44.067724 
Q 132.526428 45.56731 133.819821 46.279614 
Q 135.113214 46.991917 136.687779 46.991917 
Q 137.999917 46.991917 139.012138 45.736014 
Q 140.024359 44.48011 140.605448 42.30571 
Q 141.186538 40.13131 141.561434 37.938166 
Q 141.936331 35.745021 142.08629 33.045766 
Q 142.236248 30.34651 142.273738 28.978138 
Q 142.311228 27.609766 142.311228 26.185159 
Q 142.08629 26.260138 142.08629 29.896634 
L 142.08629 44.292662 
L 142.873572 48.229076 
" clip-path="url(#p3c89c2c9dc)" style="fill: none; stroke: #000000; stroke-linejoin: miter"/>
   </g>
  </g>
  <g id="axes_10">
   <g id="patch_10">
    <path d="M 147.657798 38.160826 
Q 150.630275 39.535596 155.349083 39.721376 
Q 156.872477 39.721376 157.559862 38.550963 
Q 158.247248 37.38055 158.247248 35.82 
Q 158.247248 35.299817 158.154358 34.909679 
Q 158.061468 34.519541 157.819954 34.296606 
Q 157.57844 34.07367 157.411239 33.943624 
Q 157.244037 33.813578 156.798165 33.757844 
Q 156.352294 33.70211 156.147936 33.683532 
Q 155.943578 33.664954 155.367661 33.683532 
Q 154.791743 33.70211 154.568807 33.70211 
Q 152.525229 33.70211 151.038991 35.578486 
Q 149.552752 37.454862 149.552752 39.609908 
Q 149.552752 42.619541 151.484862 44.570229 
Q 153.416972 46.520917 156.463761 46.520917 
Q 158.618807 46.818165 160.142202 44.29156 
" clip-path="url(#pdefee663cf)" style="fill: none; stroke: #000000; stroke-linejoin: miter"/>
   </g>
  </g>
  <g id="axes_11"/>
  <g id="axes_12">
   <g id="patch_11">
    <path d="M 186.656152 30.309021 
Q 186.168786 30.42149 186.581172 30.833876 
Q 186.956069 31.208772 187.031048 30.946345 
Q 187.068538 30.871366 186.993559 30.646428 
Q 186.993559 30.458979 186.918579 30.42149 
Q 186.8436 30.384 186.712386 30.42149 
Q 186.581172 30.458979 186.431214 30.42149 
L 186.318745 30.646428 
M 187.218497 33.345683 
Q 188.268207 37.731972 188.793062 40.13131 
Q 189.317917 42.530648 189.767793 46.317103 
Q 190.217669 50.103559 190.030221 53.25269 
Q 190.030221 53.440138 190.030221 54.021228 
Q 190.030221 54.602317 190.030221 54.902234 
Q 190.030221 55.202152 190.011476 55.783241 
Q 189.992731 56.364331 189.917752 56.701738 
Q 189.842772 57.039145 189.730303 57.52651 
Q 189.617834 58.013876 189.411641 58.313793 
Q 189.205448 58.61371 188.943021 58.894883 
Q 188.680593 59.176055 188.305697 59.307269 
Q 187.9308 59.438483 187.443434 59.438483 
Q 186.468703 59.438483 185.71891 59.251034 
Q 184.969117 59.063586 184.106855 58.707434 
Q 183.244593 58.351283 182.607269 58.201324 
L 182.382331 57.751448 
" clip-path="url(#pdce307d76a)" style="fill: none; stroke: #000000; stroke-linejoin: miter"/>
   </g>
  </g>
  <g id="axes_13">
   <g id="patch_12">
    <path d="M 203.118579 29.071862 
Q 202.743683 29.146841 202.612469 29.577972 
Q 202.481255 30.009103 202.556234 30.42149 
Q 202.556234 30.571448 202.593724 30.702662 
Q 202.631214 30.833876 202.687448 30.89011 
Q 202.743683 30.946345 202.799917 31.040069 
Q 202.856152 31.133793 202.893641 31.208772 
L 203.00611 29.859145 
M 203.00611 34.020497 
Q 202.106359 39.006621 201.881421 42.793076 
L 202.331297 45.379862 
L 202.668703 46.054676 
" clip-path="url(#p10e2cfb46e)" style="fill: none; stroke: #000000; stroke-linejoin: miter"/>
   </g>
  </g>
  <g id="axes_14">
   <g id="patch_13">
    <path d="M 215.213462 29.784166 
Q 216.188193 30.271531 217.481586 31.827352 
Q 218.774979 33.383172 219.262345 33.833048 
L 219.937159 34.507862 
M 222.973821 37.432055 
Q 221.661683 36.94469 220.611972 36.982179 
Q 220.349545 36.982179 219.449793 37.000924 
Q 218.550041 37.019669 218.11891 37.038414 
Q 217.687779 37.057159 216.825517 37.169628 
Q 215.963255 37.282097 215.494634 37.41331 
Q 215.026014 37.544524 214.38869 37.844441 
Q 213.751366 38.144359 213.432703 38.538 
Q 213.114041 38.931641 212.870359 39.550221 
Q 212.626676 40.1688 212.626676 40.918593 
Q 212.626676 42.830566 214.238731 44.348897 
Q 215.850786 45.867228 217.800248 45.867228 
Q 219.149876 45.867228 220.012138 45.323628 
Q 220.8744 44.780028 221.286786 43.842786 
Q 221.699172 42.905545 221.92411 41.912069 
Q 222.149048 40.918593 222.486455 39.756414 
Q 222.823862 38.594234 223.311228 37.881931 
L 223.761103 43.842786 
L 224.773324 46.991917 
" clip-path="url(#pb7daec8c4e)" style="fill: none; stroke: #000000; stroke-linejoin: miter"/>
   </g>
  </g>
  <g id="axes_15">
   <g id="patch_14">
    <path d="M 230.438731 37.282097 
L 230.438731 37.844441 
Q 230.701159 39.868883 230.738648 41.312234 
Q 230.776138 42.755586 230.682414 44.667559 
Q 230.58869 46.579531 230.58869 48.191586 
L 230.663669 39.643945 
Q 230.663669 38.144359 232.256979 37.507034 
Q 233.85029 36.86971 235.274897 37.282097 
Q 237.186869 37.844441 238.105366 39.04411 
Q 239.023862 40.243779 239.080097 41.668386 
Q 239.136331 43.092993 239.173821 44.817517 
Q 239.21131 46.542041 239.361269 48.191586 
" clip-path="url(#p7d5acb0d24)" style="fill: none; stroke: #000000; stroke-linejoin: miter"/>
   </g>
  </g>
  <g id="axes_16">
   <g id="patch_15">
    <path d="M 246.2076 35.032717 
Q 246.2076 35.032717 249.581669 35.032717 
Q 249.694138 35.032717 251.437407 34.826524 
Q 253.180676 34.620331 254.192897 34.789034 
Q 255.205117 34.957738 255.205117 35.707531 
Q 255.205117 36.86971 254.192897 38.144359 
Q 253.180676 39.419007 251.718579 40.506207 
Q 250.256483 41.593407 248.794386 42.605628 
Q 247.33229 43.617848 246.320069 44.573834 
Q 245.307848 45.529821 245.307848 46.279614 
L 246.432538 46.279614 
Q 246.470028 46.279614 248.681917 46.054676 
L 256.892152 45.942207 
" clip-path="url(#p7f0b1e0a95)" style="fill: none; stroke: #000000; stroke-linejoin: miter"/>
   </g>
  </g>
  <g id="axes_17">
   <g id="patch_16">
    <path d="M 263.813462 35.932469 
Q 264.413297 35.257655 265.406772 34.826524 
Q 266.400248 34.395393 267.3 34.470372 
Q 267.937324 34.470372 268.42469 34.639076 
Q 268.912055 34.807779 269.230717 34.995228 
Q 269.549379 35.182676 269.774317 35.670041 
Q 269.999255 36.157407 270.111724 36.419834 
Q 270.224193 36.682262 270.280428 37.375821 
Q 270.336662 38.069379 270.355407 38.331807 
Q 270.374152 38.594234 270.355407 39.419007 
Q 270.336662 40.243779 270.336662 40.431228 
Q 270.336662 41.368469 270.167959 43.242952 
Q 269.999255 45.117434 269.999255 46.054676 
Q 269.999255 46.467062 270.05549 46.823214 
Q 270.111724 47.179366 270.205448 47.610497 
Q 270.299172 48.041628 270.336662 48.304055 
L 270.786538 48.528993 
M 264.263338 23.111007 
Q 264.488276 24.798041 264.488276 29.971614 
L 264.488276 42.3432 
L 264.150869 46.841959 
L 263.925931 47.74171 
" clip-path="url(#p63746e88ce)" style="fill: none; stroke: #000000; stroke-linejoin: miter"/>
   </g>
  </g>
  <g id="axes_18">
   <g id="patch_17">
    <path d="M 280.032207 35.295145 
Q 281.006938 34.995228 282.337821 34.020497 
Q 283.668703 33.045766 284.212303 32.52091 
Q 284.755903 31.996055 286.218 30.571448 
M 278.495131 38.106869 
L 278.495131 38.556745 
Q 278.495131 39.531476 278.495131 39.981352 
Q 278.495131 40.431228 278.57011 41.612152 
Q 278.64509 42.793076 278.776303 43.486634 
Q 278.907517 44.180193 279.207434 45.154924 
Q 279.507352 46.129655 279.919738 46.673255 
Q 280.332124 47.216855 281.006938 47.629241 
Q 281.681752 48.041628 282.544014 48.041628 
Q 283.893641 48.041628 284.830883 46.860703 
Q 285.768124 45.679779 286.18051 43.861531 
Q 286.592897 42.043283 286.7616 40.618676 
Q 286.930303 39.194069 286.930303 37.9944 
Q 286.930303 40.1688 287.380179 43.280441 
Q 287.830055 46.392083 287.942524 47.404303 
L 288.504869 47.966648 
" clip-path="url(#p540197b635)" style="fill: none; stroke: #000000; stroke-linejoin: miter"/>
   </g>
  </g>
  <g id="axes_19"/>
  <g id="axes_20">
   <g id="patch_18">
    <path d="M 320.687191 39.096404 
Q 320.43236 39.023596 319.46764 38.623146 
Q 318.502921 38.222697 317.84764 38.077079 
Q 317.19236 37.931461 316.537079 38.00427 
Q 313.915955 38.00427 312.277753 40.388764 
Q 310.639551 42.773258 310.639551 45.430787 
Q 310.639551 47.068989 315.881798 47.068989 
Q 317.447191 47.068989 318.775955 45.558202 
Q 320.104719 44.047416 320.778202 42.172584 
Q 321.451685 40.297753 321.451685 38.768764 
Q 321.451685 37.27618 321.415281 36.984944 
L 321.342472 38.077079 
Q 321.342472 38.550337 321.342472 38.987191 
Q 321.378876 40.188539 321.579101 42.281798 
Q 321.779326 44.375056 321.943146 46.049663 
Q 322.106966 47.72427 322.143371 49.872135 
Q 322.179775 52.02 322.015955 53.658202 
Q 321.852135 55.296404 321.287865 56.971011 
Q 320.723596 58.645618 319.795281 59.737753 
Q 318.866966 60.829888 317.265169 61.521573 
Q 315.663371 62.213258 313.515506 62.213258 
Q 311.877303 62.213258 310.785169 61.466966 
Q 309.693034 60.720674 309.693034 59.155281 
Q 309.620225 58.936854 309.656629 58.936854 
Q 309.693034 58.936854 309.802247 58.936854 
Q 309.911461 58.936854 309.911461 58.82764 
" clip-path="url(#pd14bb5b476)" style="fill: none; stroke: #000000; stroke-linejoin: miter"/>
   </g>
  </g>
  <g id="axes_21">
   <g id="patch_19">
    <path d="M 327.882414 34.020497 
L 335.417834 34.357903 
M 334.255655 38.106869 
Q 334.218166 37.95691 333.637076 37.975655 
Q 333.055986 37.9944 333.018497 37.9944 
Q 330.131793 37.9944 329.044593 39.287793 
Q 327.957393 40.581186 327.957393 43.617848 
Q 327.957393 45.267393 329.119572 46.523297 
Q 330.281752 47.7792 332.006276 47.7792 
Q 333.580841 47.7792 334.818 46.598276 
Q 336.055159 45.417352 336.055159 43.842786 
Q 336.317586 42.043283 335.32411 40.318759 
Q 334.330634 38.594234 332.68109 37.881931 
" clip-path="url(#pdc65fe8c31)" style="fill: none; stroke: #000000; stroke-linejoin: miter"/>
   </g>
  </g>
  <g id="axes_22">
   <g id="patch_20">
    <path d="M 343.838731 37.282097 
L 343.838731 37.844441 
Q 344.101159 39.868883 344.138648 41.312234 
Q 344.176138 42.755586 344.082414 44.667559 
Q 343.98869 46.579531 343.98869 48.191586 
L 344.063669 39.643945 
Q 344.063669 38.144359 345.656979 37.507034 
Q 347.25029 36.86971 348.674897 37.282097 
Q 350.586869 37.844441 351.505366 39.04411 
Q 352.423862 40.243779 352.480097 41.668386 
Q 352.536331 43.092993 352.573821 44.817517 
Q 352.61131 46.542041 352.761269 48.191586 
" clip-path="url(#p0a4e57538c)" style="fill: none; stroke: #000000; stroke-linejoin: miter"/>
   </g>
  </g>
  <g id="axes_23">
   <g id="patch_21">
    <path d="M 369.287191 39.096404 
Q 369.03236 39.023596 368.06764 38.623146 
Q 367.102921 38.222697 366.44764 38.077079 
Q 365.79236 37.931461 365.137079 38.00427 
Q 362.515955 38.00427 360.877753 40.388764 
Q 359.239551 42.773258 359.239551 45.430787 
Q 359.239551 47.068989 364.481798 47.068989 
Q 366.047191 47.068989 367.375955 45.558202 
Q 368.704719 44.047416 369.378202 42.172584 
Q 370.051685 40.297753 370.051685 38.768764 
Q 370.051685 37.27618 370.015281 36.984944 
L 369.942472 38.077079 
Q 369.942472 38.550337 369.942472 38.987191 
Q 369.978876 40.188539 370.179101 42.281798 
Q 370.379326 44.375056 370.543146 46.049663 
Q 370.706966 47.72427 370.743371 49.872135 
Q 370.779775 52.02 370.615955 53.658202 
Q 370.452135 55.296404 369.887865 56.971011 
Q 369.323596 58.645618 368.395281 59.737753 
Q 367.466966 60.829888 365.865169 61.521573 
Q 364.263371 62.213258 362.115506 62.213258 
Q 360.477303 62.213258 359.385169 61.466966 
Q 358.293034 60.720674 358.293034 59.155281 
Q 358.220225 58.936854 358.256629 58.936854 
Q 358.293034 58.936854 358.402247 58.936854 
Q 358.511461 58.936854 358.511461 58.82764 
" clip-path="url(#p284f5bf849)" style="fill: none; stroke: #000000; stroke-linejoin: miter"/>
   </g>
  </g>
  <g id="axes_24">
   <g id="patch_22">
    <path d="M 384.299007 39.568966 
Q 382.949379 38.181848 380.7 38.444276 
Q 377.850786 38.444276 376.688607 39.793903 
Q 375.526428 41.143531 375.526428 44.067724 
Q 375.526428 45.56731 376.819821 46.279614 
Q 378.113214 46.991917 379.687779 46.991917 
Q 380.999917 46.991917 382.012138 45.736014 
Q 383.024359 44.48011 383.605448 42.30571 
Q 384.186538 40.13131 384.561434 37.938166 
Q 384.936331 35.745021 385.08629 33.045766 
Q 385.236248 30.34651 385.273738 28.978138 
Q 385.311228 27.609766 385.311228 26.185159 
Q 385.08629 26.260138 385.08629 29.896634 
L 385.08629 44.292662 
L 385.873572 48.229076 
" clip-path="url(#p49614cc470)" style="fill: none; stroke: #000000; stroke-linejoin: miter"/>
   </g>
  </g>
  <g id="axes_25">
   <g id="patch_23">
    <path d="M 394.613131 30.384 
L 397.874731 34.657821 
M 397.537324 37.019669 
L 397.274897 41.743366 
Q 397.387366 42.268221 397.518579 43.749062 
Q 397.649793 45.229903 397.9872 46.1484 
Q 398.324607 47.066897 399.186869 47.591752 
" clip-path="url(#p65e23f17bc)" style="fill: none; stroke: #000000; stroke-linejoin: miter"/>
   </g>
  </g>
  <g id="axes_26"/>
  <g id="axes_27">
   <g id="patch_24">
    <path d="M 424.4076 35.032717 
Q 424.4076 35.032717 427.781669 35.032717 
Q 427.894138 35.032717 429.637407 34.826524 
Q 431.380676 34.620331 432.392897 34.789034 
Q 433.405117 34.957738 433.405117 35.707531 
Q 433.405117 36.86971 432.392897 38.144359 
Q 431.380676 39.419007 429.918579 40.506207 
Q 428.456483 41.593407 426.994386 42.605628 
Q 425.53229 43.617848 424.520069 44.573834 
Q 423.507848 45.529821 423.507848 46.279614 
L 424.632538 46.279614 
Q 424.670028 46.279614 426.881917 46.054676 
L 435.092152 45.942207 
" clip-path="url(#pf7570707df)" style="fill: none; stroke: #000000; stroke-linejoin: miter"/>
   </g>
  </g>
  <g id="axes_28">
   <g id="patch_25">
    <path d="M 442.013462 29.784166 
Q 442.988193 30.271531 444.281586 31.827352 
Q 445.574979 33.383172 446.062345 33.833048 
L 446.737159 34.507862 
M 449.773821 37.432055 
Q 448.461683 36.94469 447.411972 36.982179 
Q 447.149545 36.982179 446.249793 37.000924 
Q 445.350041 37.019669 444.91891 37.038414 
Q 444.487779 37.057159 443.625517 37.169628 
Q 442.763255 37.282097 442.294634 37.41331 
Q 441.826014 37.544524 441.18869 37.844441 
Q 440.551366 38.144359 440.232703 38.538 
Q 439.914041 38.931641 439.670359 39.550221 
Q 439.426676 40.1688 439.426676 40.918593 
Q 439.426676 42.830566 441.038731 44.348897 
Q 442.650786 45.867228 444.600248 45.867228 
Q 445.949876 45.867228 446.812138 45.323628 
Q 447.6744 44.780028 448.086786 43.842786 
Q 448.499172 42.905545 448.72411 41.912069 
Q 448.949048 40.918593 449.286455 39.756414 
Q 449.623862 38.594234 450.111228 37.881931 
L 450.561103 43.842786 
L 451.573324 46.991917 
" clip-path="url(#pd80f8b11c7)" style="fill: none; stroke: #000000; stroke-linejoin: miter"/>
   </g>
  </g>
  <g id="axes_29">
   <g id="patch_26">
    <path d="M 464.9616 35.032717 
Q 463.91189 34.582841 462.937159 34.69531 
Q 459.900497 35.032717 457.988524 36.701007 
Q 456.076552 38.369297 456.076552 41.330979 
Q 456.076552 43.917766 458.082248 45.6048 
Q 460.087945 47.291834 462.712221 47.291834 
Q 465.074069 47.291834 466.198759 45.361117 
Q 467.323448 43.4304 467.323448 40.881103 
Q 467.323448 39.643945 466.911062 38.706703 
Q 466.498676 37.769462 465.973821 37.300841 
Q 465.448966 36.832221 464.699172 36.119917 
Q 463.949379 35.407614 463.499503 34.69531 
L 462.262345 34.245434 
" clip-path="url(#pf77b1457ce)" style="fill: none; stroke: #000000; stroke-linejoin: miter"/>
   </g>
  </g>
  <g id="axes_30">
   <g id="patch_27">
    <path d="M 472.763917 36.382345 
Q 472.726428 36.494814 472.857641 36.701007 
Q 472.988855 36.9072 472.876386 37.057159 
L 472.876386 39.306538 
Q 472.876386 40.506207 473.213793 41.724621 
Q 473.5512 42.943034 474.413462 43.93651 
Q 475.275724 44.929986 476.475393 44.929986 
Q 477.712552 44.929986 478.387366 43.861531 
Q 479.062179 42.793076 479.512055 41.143531 
Q 479.961931 39.493986 480.299338 38.969131 
L 481.086621 36.382345 
L 480.861683 42.680607 
L 480.861683 45.154924 
Q 480.861683 47.066897 481.592731 51.00331 
Q 482.323779 54.939724 482.323779 56.964166 
Q 483.073572 59.213545 481.986372 60.188276 
Q 480.899172 61.163007 478.837241 60.78811 
Q 477.037738 60.488193 476.119241 60.169531 
Q 475.200745 59.850869 473.213793 58.988607 
L 473.101324 58.426262 
" clip-path="url(#p4a3efa588c)" style="fill: none; stroke: #000000; stroke-linejoin: miter"/>
   </g>
  </g>
  <g id="axes_31">
   <g id="patch_28">
    <path d="M 490.557228 36.157407 
L 497.642772 36.157407 
M 494.043766 39.306538 
L 494.043766 47.516772 
" clip-path="url(#p549556c5c7)" style="fill: none; stroke: #000000; stroke-linejoin: miter"/>
   </g>
  </g>
  <g id="axes_32">
   <g id="patch_29">
    <path d="M 505.838731 37.282097 
L 505.838731 37.844441 
Q 506.101159 39.868883 506.138648 41.312234 
Q 506.176138 42.755586 506.082414 44.667559 
Q 505.98869 46.579531 505.98869 48.191586 
L 506.063669 39.643945 
Q 506.063669 38.144359 507.656979 37.507034 
Q 509.25029 36.86971 510.674897 37.282097 
Q 512.586869 37.844441 513.505366 39.04411 
Q 514.423862 40.243779 514.480097 41.668386 
Q 514.536331 43.092993 514.573821 44.817517 
Q 514.61131 46.542041 514.761269 48.191586 
" clip-path="url(#p9ee354a171)" style="fill: none; stroke: #000000; stroke-linejoin: miter"/>
   </g>
  </g>
 </g>
 <defs>
  <clipPath id="p6be42ec423">
   <rect x="0" y="10.936525" width="16.2" height="49.766949"/>
  </clipPath>
  <clipPath id="pb9f9c8efb7">
   <rect x="16.352193" y="8.64" width="15.895614" height="54.36"/>
  </clipPath>
  <clipPath id="p61ea199cd2">
   <rect x="38.006938" y="8.64" width="4.986124" height="54.36"/>
  </clipPath>
  <clipPath id="p7b99c1997d">
   <rect x="48.6" y="9.603482" width="16.2" height="52.433036"/>
  </clipPath>
  <clipPath id="pf71c520788">
   <rect x="70.406938" y="8.64" width="4.986124" height="54.36"/>
  </clipPath>
  <clipPath id="p7cf5d0e2f2">
   <rect x="81.152193" y="8.64" width="15.895614" height="54.36"/>
  </clipPath>
  <clipPath id="p55b065fc20">
   <rect x="98.964248" y="8.64" width="12.671503" height="54.36"/>
  </clipPath>
  <clipPath id="p3c89c2c9dc">
   <rect x="130.651945" y="8.64" width="14.09611" height="54.36"/>
  </clipPath>
  <clipPath id="pdefee663cf">
   <rect x="145.8" y="8.881927" width="16.2" height="53.876147"/>
  </clipPath>
  <clipPath id="pdce307d76a">
   <rect x="180.507848" y="8.64" width="11.584303" height="54.36"/>
  </clipPath>
  <clipPath id="p10e2cfb46e">
   <rect x="200.006938" y="8.64" width="4.986124" height="54.36"/>
  </clipPath>
  <clipPath id="pb7daec8c4e">
   <rect x="210.752193" y="8.64" width="15.895614" height="54.36"/>
  </clipPath>
  <clipPath id="p7d5acb0d24">
   <rect x="228.564248" y="8.64" width="12.671503" height="54.36"/>
  </clipPath>
  <clipPath id="p7f0b1e0a95">
   <rect x="243.433366" y="8.64" width="15.333269" height="54.36"/>
  </clipPath>
  <clipPath id="p63746e88ce">
   <rect x="261.938979" y="8.64" width="10.722041" height="54.36"/>
  </clipPath>
  <clipPath id="p540197b635">
   <rect x="276.620648" y="8.64" width="13.758703" height="54.36"/>
  </clipPath>
  <clipPath id="pd14bb5b476">
   <rect x="307.8" y="9.426742" width="16.2" height="52.786517"/>
  </clipPath>
  <clipPath id="pdc65fe8c31">
   <rect x="326.007931" y="8.64" width="12.184138" height="54.36"/>
  </clipPath>
  <clipPath id="p0a4e57538c">
   <rect x="341.964248" y="8.64" width="12.671503" height="54.36"/>
  </clipPath>
  <clipPath id="p284f5bf849">
   <rect x="356.4" y="9.426742" width="16.2" height="52.786517"/>
  </clipPath>
  <clipPath id="p49614cc470">
   <rect x="373.651945" y="8.64" width="14.09611" height="54.36"/>
  </clipPath>
  <clipPath id="p65e23f17bc">
   <rect x="392.738648" y="8.64" width="8.322703" height="54.36"/>
  </clipPath>
  <clipPath id="pf7570707df">
   <rect x="421.633366" y="8.64" width="15.333269" height="54.36"/>
  </clipPath>
  <clipPath id="pd80f8b11c7">
   <rect x="437.552193" y="8.64" width="15.895614" height="54.36"/>
  </clipPath>
  <clipPath id="pf77b1457ce">
   <rect x="454.202069" y="8.64" width="14.995862" height="54.36"/>
  </clipPath>
  <clipPath id="p4a3efa588c">
   <rect x="470.851945" y="8.64" width="14.09611" height="54.36"/>
  </clipPath>
  <clipPath id="p549556c5c7">
   <rect x="488.682745" y="8.64" width="10.83451" height="54.36"/>
  </clipPath>
  <clipPath id="p9ee354a171">
   <rect x="503.964248" y="8.64" width="12.671503" height="54.36"/>
  </clipPath>
 </defs>
</svg>
