<?xml version="1.0" encoding="utf-8" standalone="no"?>
<!DOCTYPE svg PUBLIC "-//W3C//DTD SVG 1.1//EN"
  "http://www.w3.org/Graphics/SVG/1.1/DTD/svg11.dtd">
<svg xmlns:xlink="http://www.w3.org/1999/xlink" width="202.5pt" height="162pt" viewBox="0 0 202.5 162" xmlns="http://www.w3.org/2000/svg" version="1.1">
 <metadata>
  <rdf:RDF xmlns:dc="http://purl.org/dc/elements/1.1/" xmlns:cc="http://creativecommons.org/ns#" xmlns:rdf="http://www.w3.org/1999/02/22-rdf-syntax-ns#">
   <cc:Work>
    <dc:type rdf:resource="http://purl.org/dc/dcmitype/StillImage"/>
    <dc:date>2023-02-15T23:01:05.332147</dc:date>
    <dc:format>image/svg+xml</dc:format>
    <dc:creator>
     <cc:Agent>
      <dc:title>Matplotlib v3.6.1, https://matplotlib.org/</dc:title>
     </cc:Agent>
    </dc:creator>
   </cc:Work>
  </rdf:RDF>
 </metadata>
 <defs>
  <style type="text/css">*{stroke-linejoin: round; stroke-linecap: butt}</style>
 </defs>
 <g id="figure_1">
  <g id="patch_1">
   <path d="M 0 162 
L 202.5 162 
L 202.5 0 
L 0 0 
z
" style="fill: #8fff9f"/>
  </g>
  <g id="axes_1">
   <g id="patch_2">
    <path d="M 23.768088 68.836935 
Q 23.726094 68.962915 23.768088 69.466832 
Q 23.768088 70.810611 24.146025 75.49284 
Q 24.523963 80.175069 24.230012 82.610668 
L 23.852074 86.138088 
M 16.839228 80.469021 
L 17.469124 80.343041 
L 31.200864 76.689643 
L 30.19303 83.870461 
L 29.437154 85.256233 
L 27.967396 82.90462 
M 18.854896 75.051912 
L 19.106855 78.201394 
L 19.736751 82.736647 
L 19.98871 88.741659 
Q 20.072696 90.211417 20.744585 91.072275 
Q 21.416475 91.933134 22.613278 92.185092 
Q 23.810081 92.437051 24.922897 92.479044 
Q 26.035714 92.521037 27.589459 92.437051 
Q 29.143203 92.353065 29.941071 92.395058 
Q 30.319009 92.437051 31.074885 92.374061 
Q 31.83076 92.311071 32.586636 92.01712 
Q 33.342512 91.723168 33.216532 91.261244 
L 34.350346 87.145922 
M 13.05985 77.571498 
L 13.05985 77.823456 
Q 13.05985 82.022765 11.653082 84.773312 
Q 10.246313 87.523859 7.012846 90.169424 
L 2.099654 93.906809 
M 2.603571 80.427028 
L 3.233468 80.427028 
Q 4.157316 80.427028 6.361953 79.902114 
Q 8.56659 79.3772 9.532431 79.335207 
L 13.311809 78.705311 
M 9.154493 71.020576 
L 9.154493 71.776452 
Q 8.776555 73.078237 8.56659 76.773629 
Q 8.356624 80.469021 7.768721 81.854793 
Q 7.726728 81.980772 7.369787 82.631665 
Q 7.012846 83.282558 6.844873 83.786475 
Q 6.676901 84.290392 6.844873 84.54235 
Q 7.684735 86.054101 10.624251 88.468704 
Q 13.563767 90.883306 14.067684 91.429217 
L 15.579435 92.185092 
" clip-path="url(#pa2e294952e)" style="fill: none; stroke: #000000; stroke-linejoin: miter"/>
   </g>
  </g>
  <g id="axes_2">
   <g id="patch_3">
    <path d="M 57.99779 81.752942 
Q 57.846754 82.558467 57.99779 82.810193 
Q 61.270235 88.549558 67.210981 91.872348 
L 68.117196 91.872348 
L 70.382735 92.17442 
M 57.393646 81.601906 
Q 56.940539 82.508122 56.160186 84.446416 
Q 55.379834 86.38471 54.800863 87.542652 
Q 54.221892 88.700594 53.240159 90.08509 
Q 52.258425 91.469586 50.924275 92.249938 
Q 49.590124 93.03029 47.878384 93.231671 
L 46.821133 93.986851 
M 57.041229 75.157707 
L 57.544682 97.913785 
M 49.690815 81.148798 
L 54.675 81.148798 
L 62.478522 79.638439 
L 67.311671 78.430152 
M 61.622652 72.992859 
Q 62.478522 73.19424 62.906457 73.345276 
Q 63.334392 73.496312 63.460256 73.597003 
Q 63.586119 73.697693 64.039227 73.924247 
Q 64.492334 74.150801 65.247514 74.452873 
L 67.059945 75.208052 
M 55.379834 73.748039 
L 55.077762 73.748039 
Q 54.675 73.748039 54.171547 74.276664 
Q 53.668094 74.80529 53.164641 75.56047 
Q 52.661188 76.315649 52.510152 76.466685 
L 51.301865 77.674972 
M 49.539779 71.331464 
Q 50.999793 70.979047 53.06395 70.651802 
Q 55.128108 70.324558 56.28605 70.198695 
Q 57.443992 70.072831 60.414365 69.821105 
Q 63.384738 69.569378 63.888191 69.519033 
Q 65.750967 69.619724 68.72134 68.612818 
Q 69.979972 68.15971 69.929627 68.663163 
Q 69.929627 68.965235 68.519959 70.777666 
Q 68.368923 71.029392 68.268232 71.180428 
L 67.412362 71.734227 
M 50.59703 68.461782 
Q 50.093577 69.367997 49.590124 71.532845 
Q 49.086671 73.697693 48.482528 74.654254 
M 44.70663 80.544655 
L 44.70663 80.997762 
Q 44.70663 82.759848 43.649378 85.377804 
Q 42.592127 87.99576 41.00625 91.066823 
Q 39.420373 94.137887 38.967265 95.195138 
M 39.420373 75.862541 
Q 39.621754 76.466685 40.52797 76.944965 
Q 41.434185 77.423246 41.685912 77.674972 
L 42.743163 77.826008 
M 41.685912 68.008674 
L 45.008702 71.633536 
L 45.763881 72.23768 
" clip-path="url(#p90ba0fb7e7)" style="fill: none; stroke: #000000; stroke-linejoin: miter"/>
   </g>
  </g>
  <g id="axes_3">
   <g id="patch_4">
    <path d="M 99.672574 67.822763 
Q 99.62345 67.724515 99.574326 67.699953 
Q 99.525202 67.675391 99.402392 67.675391 
Q 99.279582 67.675391 99.230458 67.675391 
Q 98.935714 67.675391 98.665532 67.798201 
Q 98.39535 67.921011 98.076044 68.117507 
Q 97.756739 68.314003 97.609367 68.412251 
L 92.59872 70.62283 
M 103.356873 73.128154 
Q 103.258625 73.373774 102.841071 73.889575 
Q 102.423518 74.405377 102.32527 74.749245 
L 100.409434 76.812453 
M 88.767049 73.128154 
Q 88.91442 73.472022 89.602156 74.429939 
Q 90.289892 75.387857 90.38814 76.075593 
L 91.125 76.959825 
M 85.966981 80.742372 
Q 86.016105 80.987992 87.047709 80.889744 
Q 88.079313 80.791496 88.324933 80.889744 
L 89.995148 80.889744 
Q 89.40566 80.84062 90.14252 80.644124 
Q 90.584636 80.545876 91.419744 80.447628 
L 106.893801 80.152884 
M 95.988275 69.738598 
L 96.135647 97.002412 
L 91.419744 93.170741 
M 75.650943 79.170404 
L 75.945687 78.87566 
L 85.082749 78.286173 
M 75.798315 70.524582 
L 85.573989 69.836846 
L 84.935377 78.580916 
M 75.356199 70.524582 
L 75.356199 78.87566 
" clip-path="url(#pad9a6fd2c8)" style="fill: none; stroke: #000000; stroke-linejoin: miter"/>
   </g>
  </g>
  <g id="axes_4">
   <g id="patch_5">
    <path d="M 132.932657 77.277288 
Q 132.932657 77.277288 134.681181 77.277288 
Q 135.488192 77.277288 137.012546 76.67203 
Q 138.5369 76.066771 139.254244 76.066771 
Q 139.299077 76.335775 138.962823 77.008284 
Q 138.626568 77.680793 138.581734 77.949797 
Q 138.312731 80.729502 136.945295 83.285037 
Q 135.57786 85.840572 133.336162 88.732362 
Q 131.094465 91.624151 130.24262 93.148506 
L 126.61107 95.031531 
M 124.055535 69.386513 
L 135.622694 68.803672 
Q 135.936531 68.714004 136.609041 68.534668 
Q 137.28155 68.355332 137.819557 68.243247 
Q 138.357565 68.131162 138.850738 68.131162 
L 139.254244 68.131162 
L 135.757196 73.511236 
L 134.277675 76.201273 
L 133.739668 76.873782 
M 127.821587 79.294815 
L 128.225092 79.294815 
Q 129.256273 79.294815 132.103229 82.836697 
Q 134.950185 86.378579 137.954059 90.59297 
Q 140.957934 94.807362 141.675277 95.479871 
L 143.558303 96.017878 
M 129.435609 69.565849 
Q 129.211439 70.417694 129.166605 72.973229 
Q 128.807934 74.721753 127.821587 78.66714 
Q 126.83524 82.612528 126.476568 84.674889 
Q 125.804059 88.575443 119.751476 93.148506 
L 117.86845 93.955517 
M 112.264207 82.657362 
L 113.071218 82.657362 
Q 114.550738 82.657362 116.299262 82.545277 
Q 118.047786 82.433192 120.177399 82.253856 
Q 122.307011 82.07452 123.517528 81.984852 
M 111.860701 75.214926 
Q 112.667712 74.811421 114.281734 74.699336 
Q 115.895756 74.587251 116.433764 74.452749 
Q 119.123801 73.78024 121.769004 73.78024 
L 122.038007 73.78024 
L 122.038007 81.446845 
L 121.903506 82.52286 
M 111.591697 74.273413 
L 111.726199 78.66714 
L 111.995203 83.060867 
" clip-path="url(#p769c34193f)" style="fill: none; stroke: #000000; stroke-linejoin: miter"/>
   </g>
  </g>
  <g id="axes_5">
   <g id="patch_6">
    <path d="M 160.735283 83.125552 
Q 160.819634 83.294255 161.410097 83.842541 
Q 162.000559 84.390828 162.253614 84.643883 
Q 162.506669 84.896938 163.054955 85.529576 
Q 163.603241 86.162214 163.940648 86.541797 
Q 164.278055 86.921379 164.784166 87.596193 
Q 165.290276 88.271007 165.585507 88.734941 
Q 165.880738 89.198876 166.218145 89.87369 
Q 166.555552 90.548503 166.766431 91.09679 
Q 166.97731 91.645076 167.146014 92.277714 
Q 167.314717 92.910352 167.314717 93.500814 
Q 167.314717 94.76609 166.97731 95.862662 
Q 166.639903 96.959234 166.007266 98.182334 
Q 165.374628 99.405434 165.037221 100.333303 
L 162.506669 102.863855 
" clip-path="url(#p410a85b43c)" style="fill: none; stroke: #000000; stroke-linejoin: miter"/>
   </g>
  </g>
 </g>
 <defs>
  <clipPath id="pa2e294952e">
   <rect x="0" y="50.150012" width="36.45" height="60.889977"/>
  </clipPath>
  <clipPath id="p90ba0fb7e7">
   <rect x="36.45" y="44.094655" width="36.45" height="73.000691"/>
  </clipPath>
  <clipPath id="pad9a6fd2c8">
   <rect x="72.9" y="44.980108" width="36.45" height="71.229784"/>
  </clipPath>
  <clipPath id="p769c34193f">
   <rect x="109.35" y="48.090387" width="36.45" height="65.009225"/>
  </clipPath>
  <clipPath id="p410a85b43c">
   <rect x="156.517697" y="19.44" width="15.014607" height="122.31"/>
  </clipPath>
 </defs>
</svg>
