<?xml version="1.0" encoding="utf-8" standalone="no"?>
<!DOCTYPE svg PUBLIC "-//W3C//DTD SVG 1.1//EN"
  "http://www.w3.org/Graphics/SVG/1.1/DTD/svg11.dtd">
<svg xmlns:xlink="http://www.w3.org/1999/xlink" width="414pt" height="72pt" viewBox="0 0 414 72" xmlns="http://www.w3.org/2000/svg" version="1.1">
 <metadata>
  <rdf:RDF xmlns:dc="http://purl.org/dc/elements/1.1/" xmlns:cc="http://creativecommons.org/ns#" xmlns:rdf="http://www.w3.org/1999/02/22-rdf-syntax-ns#">
   <cc:Work>
    <dc:type rdf:resource="http://purl.org/dc/dcmitype/StillImage"/>
    <dc:date>2023-02-15T23:01:16.515632</dc:date>
    <dc:format>image/svg+xml</dc:format>
    <dc:creator>
     <cc:Agent>
      <dc:title>Matplotlib v3.6.1, https://matplotlib.org/</dc:title>
     </cc:Agent>
    </dc:creator>
   </cc:Work>
  </rdf:RDF>
 </metadata>
 <defs>
  <style type="text/css">*{stroke-linejoin: round; stroke-linecap: butt}</style>
 </defs>
 <g id="figure_1">
  <g id="patch_1">
   <path d="M 0 72 
L 414 72 
L 414 0 
L 0 0 
z
" style="fill: #8fff9f"/>
  </g>
  <g id="axes_1">
   <g id="patch_2">
    <path d="M 1.539924 40.439772 
Q 6.436882 46.999848 11.980608 46.168289 
Q 13.304943 46.168289 13.98251 45.382928 
Q 14.660076 44.597567 14.660076 43.30403 
Q 14.660076 41.979696 14.028707 40.947947 
Q 13.397338 39.916198 12.396388 39.238631 
Q 11.395437 38.561065 10.194297 37.975894 
Q 8.993156 37.390722 7.776616 36.820951 
Q 6.560076 36.251179 5.559125 35.589011 
Q 4.558175 34.926844 3.926806 33.895095 
Q 3.295437 32.863346 3.295437 31.56981 
Q 3.295437 29.906692 5.774715 28.382167 
Q 8.253992 26.857643 10.040304 26.857643 
Q 11.118251 26.796046 11.672624 27.627605 
Q 12.226996 28.459163 12.211597 29.490913 
Q 12.196198 30.522662 12.165399 31.385019 
" clip-path="url(#p6cde7f96b8)" style="fill: none; stroke: #000000; stroke-linejoin: miter"/>
   </g>
  </g>
  <g id="axes_2">
   <g id="patch_3">
    <path d="M 20.813462 35.932469 
Q 21.413297 35.257655 22.406772 34.826524 
Q 23.400248 34.395393 24.3 34.470372 
Q 24.937324 34.470372 25.42469 34.639076 
Q 25.912055 34.807779 26.230717 34.995228 
Q 26.549379 35.182676 26.774317 35.670041 
Q 26.999255 36.157407 27.111724 36.419834 
Q 27.224193 36.682262 27.280428 37.375821 
Q 27.336662 38.069379 27.355407 38.331807 
Q 27.374152 38.594234 27.355407 39.419007 
Q 27.336662 40.243779 27.336662 40.431228 
Q 27.336662 41.368469 27.167959 43.242952 
Q 26.999255 45.117434 26.999255 46.054676 
Q 26.999255 46.467062 27.05549 46.823214 
Q 27.111724 47.179366 27.205448 47.610497 
Q 27.299172 48.041628 27.336662 48.304055 
L 27.786538 48.528993 
M 21.263338 23.111007 
Q 21.488276 24.798041 21.488276 29.971614 
L 21.488276 42.3432 
L 21.150869 46.841959 
L 20.925931 47.74171 
" clip-path="url(#p53c575aa8b)" style="fill: none; stroke: #000000; stroke-linejoin: miter"/>
   </g>
  </g>
  <g id="axes_3">
   <g id="patch_4">
    <path d="M 34.257798 38.160826 
Q 37.230275 39.535596 41.949083 39.721376 
Q 43.472477 39.721376 44.159862 38.550963 
Q 44.847248 37.38055 44.847248 35.82 
Q 44.847248 35.299817 44.754358 34.909679 
Q 44.661468 34.519541 44.419954 34.296606 
Q 44.17844 34.07367 44.011239 33.943624 
Q 43.844037 33.813578 43.398165 33.757844 
Q 42.952294 33.70211 42.747936 33.683532 
Q 42.543578 33.664954 41.967661 33.683532 
Q 41.391743 33.70211 41.168807 33.70211 
Q 39.125229 33.70211 37.638991 35.578486 
Q 36.152752 37.454862 36.152752 39.609908 
Q 36.152752 42.619541 38.084862 44.570229 
Q 40.016972 46.520917 43.063761 46.520917 
Q 45.218807 46.818165 46.742202 44.29156 
" clip-path="url(#p72d5f6b6bc)" style="fill: none; stroke: #000000; stroke-linejoin: miter"/>
   </g>
  </g>
  <g id="axes_4"/>
  <g id="axes_5">
   <g id="patch_5">
    <path d="M 68.063834 37.95691 
L 68.738648 37.95691 
Q 69.450952 37.95691 70.238234 37.881931 
Q 71.025517 37.806952 71.981503 37.675738 
Q 72.93749 37.544524 73.462345 37.507034 
L 77.736166 35.82 
M 73.687283 30.42149 
L 73.687283 31.43371 
Q 73.687283 33.383172 73.012469 37.207117 
Q 72.337655 41.031062 72.337655 43.018014 
Q 72.337655 43.805297 72.337655 44.105214 
Q 72.337655 44.405131 72.431379 45.042455 
Q 72.525103 45.679779 72.712552 45.960952 
Q 72.9 46.242124 73.293641 46.485807 
Q 73.687283 46.72949 74.249628 46.72949 
Q 74.362097 46.692 74.680759 46.72949 
Q 74.999421 46.766979 75.186869 46.710745 
Q 75.374317 46.65451 75.374317 46.392083 
" clip-path="url(#pac339027b1)" style="fill: none; stroke: #000000; stroke-linejoin: miter"/>
   </g>
  </g>
  <g id="axes_6">
   <g id="patch_6">
    <path d="M 92.3616 35.032717 
Q 91.31189 34.582841 90.337159 34.69531 
Q 87.300497 35.032717 85.388524 36.701007 
Q 83.476552 38.369297 83.476552 41.330979 
Q 83.476552 43.917766 85.482248 45.6048 
Q 87.487945 47.291834 90.112221 47.291834 
Q 92.474069 47.291834 93.598759 45.361117 
Q 94.723448 43.4304 94.723448 40.881103 
Q 94.723448 39.643945 94.311062 38.706703 
Q 93.898676 37.769462 93.373821 37.300841 
Q 92.848966 36.832221 92.099172 36.119917 
Q 91.349379 35.407614 90.899503 34.69531 
L 89.662345 34.245434 
" clip-path="url(#p11e2593c29)" style="fill: none; stroke: #000000; stroke-linejoin: miter"/>
   </g>
  </g>
  <g id="axes_7">
   <g id="patch_7">
    <path d="M 108.5616 35.032717 
Q 107.51189 34.582841 106.537159 34.69531 
Q 103.500497 35.032717 101.588524 36.701007 
Q 99.676552 38.369297 99.676552 41.330979 
Q 99.676552 43.917766 101.682248 45.6048 
Q 103.687945 47.291834 106.312221 47.291834 
Q 108.674069 47.291834 109.798759 45.361117 
Q 110.923448 43.4304 110.923448 40.881103 
Q 110.923448 39.643945 110.511062 38.706703 
Q 110.098676 37.769462 109.573821 37.300841 
Q 109.048966 36.832221 108.299172 36.119917 
Q 107.549379 35.407614 107.099503 34.69531 
L 105.862345 34.245434 
" clip-path="url(#pac83724ac0)" style="fill: none; stroke: #000000; stroke-linejoin: miter"/>
   </g>
  </g>
  <g id="axes_8">
   <g id="patch_8">
    <path d="M 119.531793 37.169628 
Q 121.556234 39.194069 123.318248 41.76211 
Q 125.080262 44.330152 125.942524 46.72949 
M 122.568455 31.321241 
L 122.568455 31.546179 
Q 122.568455 32.333462 121.931131 33.514386 
Q 121.293807 34.69531 120.319076 36.101172 
Q 119.344345 37.507034 119.081917 37.95691 
L 117.844759 39.643945 
M 117.057476 26.710014 
Q 118.894469 36.269876 119.081917 48.641462 
" clip-path="url(#pdd3a4cd2e8)" style="fill: none; stroke: #000000; stroke-linejoin: miter"/>
   </g>
  </g>
  <g id="axes_9"/>
  <g id="axes_10">
   <g id="patch_9">
    <path d="M 159.443923 36.441748 
Q 158.234968 35.094627 154.262687 35.094627 
Q 152.742857 35.094627 151.965672 35.146439 
Q 151.188486 35.198252 150.18678 35.440043 
Q 149.185075 35.681834 148.701493 36.182687 
Q 148.21791 36.683539 147.872495 37.616162 
Q 147.527079 38.548785 147.527079 39.964989 
Q 147.527079 42.037484 148.943284 43.280981 
Q 150.359488 44.524478 152.293817 44.524478 
Q 154.953518 44.524478 157.716844 38.721493 
Q 159.063966 35.854542 159.063966 35.82 
Q 159.409382 35.578209 159.443923 36.441748 
Q 159.443923 37.512537 159.858422 40.362217 
Q 160.272921 43.211898 160.272921 44.524478 
" clip-path="url(#p6eb0660375)" style="fill: none; stroke: #000000; stroke-linejoin: miter"/>
   </g>
  </g>
  <g id="axes_11"/>
  <g id="axes_12">
   <g id="patch_10">
    <path d="M 189.899007 39.568966 
Q 188.549379 38.181848 186.3 38.444276 
Q 183.450786 38.444276 182.288607 39.793903 
Q 181.126428 41.143531 181.126428 44.067724 
Q 181.126428 45.56731 182.419821 46.279614 
Q 183.713214 46.991917 185.287779 46.991917 
Q 186.599917 46.991917 187.612138 45.736014 
Q 188.624359 44.48011 189.205448 42.30571 
Q 189.786538 40.13131 190.161434 37.938166 
Q 190.536331 35.745021 190.68629 33.045766 
Q 190.836248 30.34651 190.873738 28.978138 
Q 190.911228 27.609766 190.911228 26.185159 
Q 190.68629 26.260138 190.68629 29.896634 
L 190.68629 44.292662 
L 191.473572 48.229076 
" clip-path="url(#p6049cc9fbd)" style="fill: none; stroke: #000000; stroke-linejoin: miter"/>
   </g>
  </g>
  <g id="axes_13">
   <g id="patch_11">
    <path d="M 196.257798 38.160826 
Q 199.230275 39.535596 203.949083 39.721376 
Q 205.472477 39.721376 206.159862 38.550963 
Q 206.847248 37.38055 206.847248 35.82 
Q 206.847248 35.299817 206.754358 34.909679 
Q 206.661468 34.519541 206.419954 34.296606 
Q 206.17844 34.07367 206.011239 33.943624 
Q 205.844037 33.813578 205.398165 33.757844 
Q 204.952294 33.70211 204.747936 33.683532 
Q 204.543578 33.664954 203.967661 33.683532 
Q 203.391743 33.70211 203.168807 33.70211 
Q 201.125229 33.70211 199.638991 35.578486 
Q 198.152752 37.454862 198.152752 39.609908 
Q 198.152752 42.619541 200.084862 44.570229 
Q 202.016972 46.520917 205.063761 46.520917 
Q 207.218807 46.818165 208.742202 44.29156 
" clip-path="url(#p1eb5d14c5a)" style="fill: none; stroke: #000000; stroke-linejoin: miter"/>
   </g>
  </g>
  <g id="axes_14">
   <g id="patch_12">
    <path d="M 212.457798 38.160826 
Q 215.430275 39.535596 220.149083 39.721376 
Q 221.672477 39.721376 222.359862 38.550963 
Q 223.047248 37.38055 223.047248 35.82 
Q 223.047248 35.299817 222.954358 34.909679 
Q 222.861468 34.519541 222.619954 34.296606 
Q 222.37844 34.07367 222.211239 33.943624 
Q 222.044037 33.813578 221.598165 33.757844 
Q 221.152294 33.70211 220.947936 33.683532 
Q 220.743578 33.664954 220.167661 33.683532 
Q 219.591743 33.70211 219.368807 33.70211 
Q 217.325229 33.70211 215.838991 35.578486 
Q 214.352752 37.454862 214.352752 39.609908 
Q 214.352752 42.619541 216.284862 44.570229 
Q 218.216972 46.520917 221.263761 46.520917 
Q 223.418807 46.818165 224.942202 44.29156 
" clip-path="url(#pe393bb4a2d)" style="fill: none; stroke: #000000; stroke-linejoin: miter"/>
   </g>
  </g>
  <g id="axes_15">
   <g id="patch_13">
    <path d="M 230.120069 39.868883 
L 230.120069 39.419007 
Q 230.120069 37.769462 231.863338 36.682262 
Q 233.606607 35.595062 235.293641 35.595062 
Q 237.505531 35.595062 238.873903 36.794731 
Q 240.242276 37.9944 240.242276 40.20629 
Q 240.242276 42.30571 238.424028 43.336676 
Q 236.605779 44.367641 234.39389 44.367641 
Q 233.719076 44.367641 233.212966 44.255172 
Q 232.706855 44.142703 232.088276 43.917766 
Q 231.469697 43.692828 231.019821 43.580359 
L 229.895131 42.568138 
M 229.557724 36.832221 
Q 230.0076 38.444276 230.270028 40.262524 
Q 230.532455 42.080772 230.58869 43.749062 
Q 230.644924 45.417352 230.682414 47.27309 
Q 230.719903 49.128828 230.682414 50.778372 
L 230.569945 57.863917 
" clip-path="url(#pa8a8c80093)" style="fill: none; stroke: #000000; stroke-linejoin: miter"/>
   </g>
  </g>
  <g id="axes_16"/>
  <g id="axes_17">
   <g id="patch_14">
    <path d="M 263.757228 37.244607 
Q 264.806938 37.207117 264.994386 37.132138 
Q 268.405945 37.132138 270.186703 39.212814 
Q 271.967462 41.29349 271.967462 44.780028 
Q 271.967462 47.704221 267.356234 47.704221 
Q 266.71891 47.704221 266.17531 47.591752 
Q 265.63171 47.479283 264.994386 47.254345 
Q 264.357062 47.029407 263.869697 46.916938 
L 262.632538 45.679779 
M 263.644759 25.435366 
L 263.644759 26.560055 
Q 263.644759 29.409269 263.757228 33.008276 
Q 263.869697 36.607283 264.057145 40.899848 
Q 264.244593 45.192414 264.319572 47.141876 
" clip-path="url(#pfc4c1bf24b)" style="fill: none; stroke: #000000; stroke-linejoin: miter"/>
   </g>
  </g>
  <g id="axes_18">
   <g id="patch_15">
    <path d="M 280.013462 32.783338 
Q 280.538317 34.507862 280.669531 36.457324 
Q 280.800745 38.406786 280.725766 40.956083 
Q 280.650786 43.505379 280.688276 44.705048 
L 280.800745 46.054676 
L 280.800745 45.829738 
Q 280.800745 44.667559 280.519572 42.30571 
Q 280.2384 39.943862 280.2384 38.744193 
Q 280.2384 36.419834 281.250621 34.882759 
Q 282.262841 33.345683 284.287283 33.345683 
Q 284.999586 33.345683 285.336993 33.626855 
Q 285.6744 33.908028 285.936828 34.432883 
Q 286.199255 34.957738 286.536662 35.257655 
L 286.986538 36.832221 
" clip-path="url(#pb52e90de08)" style="fill: none; stroke: #000000; stroke-linejoin: miter"/>
   </g>
  </g>
  <g id="axes_19">
   <g id="patch_16">
    <path d="M 293.457798 38.160826 
Q 296.430275 39.535596 301.149083 39.721376 
Q 302.672477 39.721376 303.359862 38.550963 
Q 304.047248 37.38055 304.047248 35.82 
Q 304.047248 35.299817 303.954358 34.909679 
Q 303.861468 34.519541 303.619954 34.296606 
Q 303.37844 34.07367 303.211239 33.943624 
Q 303.044037 33.813578 302.598165 33.757844 
Q 302.152294 33.70211 301.947936 33.683532 
Q 301.743578 33.664954 301.167661 33.683532 
Q 300.591743 33.70211 300.368807 33.70211 
Q 298.325229 33.70211 296.838991 35.578486 
Q 295.352752 37.454862 295.352752 39.609908 
Q 295.352752 42.619541 297.284862 44.570229 
Q 299.216972 46.520917 302.263761 46.520917 
Q 304.418807 46.818165 305.942202 44.29156 
" clip-path="url(#pf23db4f354)" style="fill: none; stroke: #000000; stroke-linejoin: miter"/>
   </g>
  </g>
  <g id="axes_20">
   <g id="patch_17">
    <path d="M 321.443923 36.441748 
Q 320.234968 35.094627 316.262687 35.094627 
Q 314.742857 35.094627 313.965672 35.146439 
Q 313.188486 35.198252 312.18678 35.440043 
Q 311.185075 35.681834 310.701493 36.182687 
Q 310.21791 36.683539 309.872495 37.616162 
Q 309.527079 38.548785 309.527079 39.964989 
Q 309.527079 42.037484 310.943284 43.280981 
Q 312.359488 44.524478 314.293817 44.524478 
Q 316.953518 44.524478 319.716844 38.721493 
Q 321.063966 35.854542 321.063966 35.82 
Q 321.409382 35.578209 321.443923 36.441748 
Q 321.443923 37.512537 321.858422 40.362217 
Q 322.272921 43.211898 322.272921 44.524478 
" clip-path="url(#pe286629ee1)" style="fill: none; stroke: #000000; stroke-linejoin: miter"/>
   </g>
  </g>
  <g id="axes_21">
   <g id="patch_18">
    <path d="M 327.263834 37.95691 
L 327.938648 37.95691 
Q 328.650952 37.95691 329.438234 37.881931 
Q 330.225517 37.806952 331.181503 37.675738 
Q 332.13749 37.544524 332.662345 37.507034 
L 336.936166 35.82 
M 332.887283 30.42149 
L 332.887283 31.43371 
Q 332.887283 33.383172 332.212469 37.207117 
Q 331.537655 41.031062 331.537655 43.018014 
Q 331.537655 43.805297 331.537655 44.105214 
Q 331.537655 44.405131 331.631379 45.042455 
Q 331.725103 45.679779 331.912552 45.960952 
Q 332.1 46.242124 332.493641 46.485807 
Q 332.887283 46.72949 333.449628 46.72949 
Q 333.562097 46.692 333.880759 46.72949 
Q 334.199421 46.766979 334.386869 46.710745 
Q 334.574317 46.65451 334.574317 46.392083 
" clip-path="url(#p3ddbb3ab9b)" style="fill: none; stroke: #000000; stroke-linejoin: miter"/>
   </g>
  </g>
  <g id="axes_22">
   <g id="patch_19">
    <path d="M 344.813462 35.932469 
Q 345.413297 35.257655 346.406772 34.826524 
Q 347.400248 34.395393 348.3 34.470372 
Q 348.937324 34.470372 349.42469 34.639076 
Q 349.912055 34.807779 350.230717 34.995228 
Q 350.549379 35.182676 350.774317 35.670041 
Q 350.999255 36.157407 351.111724 36.419834 
Q 351.224193 36.682262 351.280428 37.375821 
Q 351.336662 38.069379 351.355407 38.331807 
Q 351.374152 38.594234 351.355407 39.419007 
Q 351.336662 40.243779 351.336662 40.431228 
Q 351.336662 41.368469 351.167959 43.242952 
Q 350.999255 45.117434 350.999255 46.054676 
Q 350.999255 46.467062 351.05549 46.823214 
Q 351.111724 47.179366 351.205448 47.610497 
Q 351.299172 48.041628 351.336662 48.304055 
L 351.786538 48.528993 
M 345.263338 23.111007 
Q 345.488276 24.798041 345.488276 29.971614 
L 345.488276 42.3432 
L 345.150869 46.841959 
L 344.925931 47.74171 
" clip-path="url(#p7525f8244a)" style="fill: none; stroke: #000000; stroke-linejoin: miter"/>
   </g>
  </g>
  <g id="axes_23">
   <g id="patch_20">
    <path d="M 363.787697 39.981352 
Q 364.799917 40.956083 365.137324 42.905545 
Q 365.324772 43.955255 364.912386 46.167145 
L 363.675228 47.629241 
" clip-path="url(#p50f59d47cc)" style="fill: none; stroke: #000000; stroke-linejoin: miter"/>
   </g>
  </g>
 </g>
 <defs>
  <clipPath id="p6cde7f96b8">
   <rect x="0" y="13.491103" width="16.2" height="44.657795"/>
  </clipPath>
  <clipPath id="p53c575aa8b">
   <rect x="18.938979" y="8.64" width="10.722041" height="54.36"/>
  </clipPath>
  <clipPath id="p72d5f6b6bc">
   <rect x="32.4" y="8.881927" width="16.2" height="53.876147"/>
  </clipPath>
  <clipPath id="pac339027b1">
   <rect x="66.189352" y="8.64" width="13.421297" height="54.36"/>
  </clipPath>
  <clipPath id="p11e2593c29">
   <rect x="81.602069" y="8.64" width="14.995862" height="54.36"/>
  </clipPath>
  <clipPath id="pac83724ac0">
   <rect x="97.802069" y="8.64" width="14.995862" height="54.36"/>
  </clipPath>
  <clipPath id="pdd3a4cd2e8">
   <rect x="115.182993" y="8.64" width="12.634014" height="54.36"/>
  </clipPath>
  <clipPath id="p6eb0660375">
   <rect x="145.8" y="10.777356" width="16.2" height="50.085288"/>
  </clipPath>
  <clipPath id="p6049cc9fbd">
   <rect x="179.251945" y="8.64" width="14.09611" height="54.36"/>
  </clipPath>
  <clipPath id="p1eb5d14c5a">
   <rect x="194.4" y="8.881927" width="16.2" height="53.876147"/>
  </clipPath>
  <clipPath id="pe393bb4a2d">
   <rect x="210.6" y="8.881927" width="16.2" height="53.876147"/>
  </clipPath>
  <clipPath id="pa8a8c80093">
   <rect x="227.683241" y="8.64" width="14.433517" height="54.36"/>
  </clipPath>
  <clipPath id="pfc4c1bf24b">
   <rect x="260.758055" y="8.64" width="13.08389" height="54.36"/>
  </clipPath>
  <clipPath id="pb52e90de08">
   <rect x="278.138979" y="8.64" width="10.722041" height="54.36"/>
  </clipPath>
  <clipPath id="pf23db4f354">
   <rect x="291.6" y="8.881927" width="16.2" height="53.876147"/>
  </clipPath>
  <clipPath id="pe286629ee1">
   <rect x="307.8" y="10.777356" width="16.2" height="50.085288"/>
  </clipPath>
  <clipPath id="p3ddbb3ab9b">
   <rect x="325.389352" y="8.64" width="13.421297" height="54.36"/>
  </clipPath>
  <clipPath id="p7525f8244a">
   <rect x="342.938979" y="8.64" width="10.722041" height="54.36"/>
  </clipPath>
  <clipPath id="p50f59d47cc">
   <rect x="361.800745" y="8.64" width="5.39851" height="54.36"/>
  </clipPath>
 </defs>
</svg>
