<?xml version="1.0" encoding="utf-8" standalone="no"?>
<!DOCTYPE svg PUBLIC "-//W3C//DTD SVG 1.1//EN"
  "http://www.w3.org/Graphics/SVG/1.1/DTD/svg11.dtd">
<svg xmlns:xlink="http://www.w3.org/1999/xlink" width="283.5pt" height="162pt" viewBox="0 0 283.5 162" xmlns="http://www.w3.org/2000/svg" version="1.1">
 <metadata>
  <rdf:RDF xmlns:dc="http://purl.org/dc/elements/1.1/" xmlns:cc="http://creativecommons.org/ns#" xmlns:rdf="http://www.w3.org/1999/02/22-rdf-syntax-ns#">
   <cc:Work>
    <dc:type rdf:resource="http://purl.org/dc/dcmitype/StillImage"/>
    <dc:date>2023-02-15T23:01:12.700819</dc:date>
    <dc:format>image/svg+xml</dc:format>
    <dc:creator>
     <cc:Agent>
      <dc:title>Matplotlib v3.6.1, https://matplotlib.org/</dc:title>
     </cc:Agent>
    </dc:creator>
   </cc:Work>
  </rdf:RDF>
 </metadata>
 <defs>
  <style type="text/css">*{stroke-linejoin: round; stroke-linecap: butt}</style>
 </defs>
 <g id="figure_1">
  <g id="patch_1">
   <path d="M 0 162 
L 283.5 162 
L 283.5 0 
L 0 0 
z
" style="fill: #8fff9f"/>
  </g>
  <g id="axes_1">
   <g id="patch_2">
    <path d="M 7.654033 76.767983 
Q 7.560691 77.701402 7.840717 79.381556 
Q 8.120743 81.061709 8.074072 81.948457 
Q 8.074072 83.06856 8.027401 84.001978 
Q 7.98073 84.935397 7.934059 85.682132 
Q 7.887388 86.428867 7.677369 87.245608 
Q 7.46735 88.06235 7.420679 88.505723 
Q 7.374008 88.949097 7.00064 89.765839 
Q 6.627273 90.58258 6.510595 90.885941 
Q 6.393918 91.189302 5.857202 92.099385 
Q 5.320487 93.009469 5.157138 93.266159 
Q 4.99379 93.522849 4.270391 94.689622 
Q 3.546991 95.856396 3.313636 96.229763 
L 2.333547 97.349866 
M 19.881818 69.207292 
L 20.441869 69.207292 
Q 20.95525 69.207292 21.328617 69.440647 
Q 21.701985 69.674001 22.168694 70.09404 
Q 22.635403 70.514078 22.9621 70.747433 
L 24.45557 71.867535 
M 28.189245 79.988278 
Q 28.142574 80.548329 28.025896 81.10838 
Q 27.909219 81.668431 27.6992 82.275154 
Q 27.489181 82.881876 27.325832 83.348585 
Q 27.162484 83.815294 26.835787 84.492023 
Q 26.509091 85.168752 26.345743 85.518784 
Q 26.182394 85.868816 25.762356 86.592215 
Q 25.342318 87.315615 25.202305 87.59564 
Q 25.062292 87.875666 24.572247 88.669072 
Q 24.082202 89.462478 23.98886 89.649161 
L 21.46863 92.169392 
M 16.568182 66.967087 
L 18.248335 73.267663 
Q 18.48169 73.827714 19.765141 77.60806 
Q 21.048592 81.388406 22.122023 83.11523 
Q 22.588732 83.815294 24.268886 87.642311 
Q 25.94904 91.469328 27.675864 93.639526 
Q 29.402689 95.809725 31.549552 95.809725 
Q 32.762996 94.876306 33.113028 94.33959 
Q 33.46306 93.802875 34.116453 92.122721 
M 8.307426 84.888726 
L 11.387708 84.6087 
Q 11.807746 84.468688 13.044526 83.931972 
Q 14.281306 83.395256 15.354738 83.021889 
Q 16.428169 82.648521 17.128233 82.648521 
Q 17.501601 82.928547 17.198239 84.655371 
Q 16.894878 86.382196 17.128233 86.988918 
Q 17.641613 88.10902 17.431594 92.029379 
Q 17.221575 95.949738 16.288156 95.949738 
Q 16.101472 95.949738 16.008131 95.949738 
L 15.96146 95.949738 
Q 16.101472 95.903067 15.728105 95.809725 
L 13.207875 94.129571 
M 8.307426 76.347945 
Q 11.387708 75.321184 17.338252 74.737798 
Q 23.288796 74.154411 26.135723 73.314334 
" clip-path="url(#p5f575c281f)" style="fill: none; stroke: #000000; stroke-linejoin: miter"/>
   </g>
  </g>
  <g id="axes_2">
   <g id="patch_3">
    <path d="M 52.501829 91.312683 
L 53.094512 91.312683 
Q 53.143902 91.312683 55.465244 91.016341 
L 62.034146 90.868171 
M 52.501829 86.274878 
L 61.589634 86.126707 
M 52.65 82.71878 
L 64.404878 82.866951 
Q 64.553049 83.607805 64.553049 84.521524 
Q 64.553049 85.435244 64.503659 86.62061 
Q 64.454268 87.805976 64.454268 88.349268 
Q 64.404878 90.374268 64.429573 91.213902 
Q 64.454268 92.053537 64.651829 94.078537 
Q 64.84939 96.103537 64.89878 96.943171 
Q 64.948171 97.930976 64.281402 98.054451 
Q 63.614634 98.177927 62.972561 97.387683 
L 61.490854 95.905976 
M 52.65 83.015122 
L 52.65 96.350488 
M 58.033537 65.481585 
L 58.181707 79.705976 
M 47.760366 80.298659 
Q 48.254268 80.051707 49.217378 79.952927 
Q 50.180488 79.854146 51.390549 79.804756 
Q 52.60061 79.755366 53.143902 79.705976 
L 70.430488 79.557805 
M 53.736585 75.705366 
L 65.145732 75.557195 
M 52.55122 71.803537 
L 53.440244 71.803537 
Q 54.526829 71.803537 56.7 71.729451 
Q 58.873171 71.655366 59.959756 71.655366 
Q 60.70061 71.309634 62.72561 71.210854 
Q 64.75061 71.112073 65.442073 70.618171 
M 44.846341 84.891951 
Q 44.698171 85.484634 44.154878 86.398354 
Q 43.611585 87.312073 43.512805 87.559024 
Q 43.117683 88.497439 39.956707 94.374878 
L 38.919512 95.856585 
M 39.215854 78.66878 
L 43.660976 80.595 
M 40.697561 68.39561 
L 40.993902 68.39561 
Q 41.191463 68.39561 41.660671 68.741341 
Q 42.129878 69.087073 42.525 69.383415 
L 42.920122 69.729146 
L 45.587195 72.692561 
" clip-path="url(#paf8b7ac715)" style="fill: none; stroke: #000000; stroke-linejoin: miter"/>
   </g>
  </g>
  <g id="axes_3">
   <g id="patch_4">
    <path d="M 101.927878 78.885192 
L 102.044456 94.079168 
M 97.497921 79.00177 
L 97.731077 79.00177 
Q 97.769936 79.00177 103.793124 78.768614 
L 107.407036 78.302303 
M 97.964232 73.911205 
Q 98.62484 73.367175 100.723241 72.823145 
Q 102.821642 72.279115 103.559968 71.812804 
M 97.731077 73.211738 
L 97.731077 75.310139 
Q 97.731077 76.786791 97.517351 78.282873 
Q 97.303625 79.778955 96.953891 81.566482 
Q 96.604158 83.354009 96.448721 84.403209 
L 94.700053 87.317655 
M 89.998081 81.877356 
L 93.495416 83.27629 
M 89.182036 78.030288 
L 89.182036 78.496599 
Q 89.182036 79.701237 88.657436 80.808726 
Q 88.132836 81.916215 87.239072 83.140283 
Q 86.345309 84.36435 86.034435 85.024957 
L 85.101812 85.607846 
M 84.635501 77.680554 
L 94.078305 77.680554 
M 89.998081 69.520107 
L 89.648348 78.380021 
L 89.53177 94.118028 
M 74.842964 81.760778 
L 79.156343 81.411045 
L 80.205544 81.411045 
L 81.021588 81.411045 
L 81.604478 81.6442 
M 74.842964 90.737271 
L 83.003412 90.620693 
M 75.192697 72.434552 
L 76.008742 72.434552 
Q 76.397335 72.395693 77.563113 72.181967 
Q 78.728891 71.968241 79.525506 71.890522 
Q 80.322122 71.812804 81.138166 71.851663 
Q 81.371322 71.851663 81.837633 71.832233 
Q 82.303945 71.812804 82.459382 71.851663 
Q 82.614819 71.890522 82.809115 72.123678 
Q 83.003412 72.356834 83.119989 72.900864 
L 83.236567 93.068827 
M 75.076119 72.434552 
L 74.959542 92.019627 
" clip-path="url(#pef85a5f450)" style="fill: none; stroke: #000000; stroke-linejoin: miter"/>
   </g>
  </g>
  <g id="axes_4">
   <g id="patch_5">
    <path d="M 132.37425 76.707 
Q 134.19675 77.193 137.84175 79.80525 
M 129.6405 68.87025 
Q 132.0705 69.0525 135.837 68.110875 
Q 139.6035 67.16925 140.94 67.04775 
Q 141.60825 67.04775 141.97275 67.199625 
Q 142.33725 67.3515 142.45875 67.746375 
Q 142.58025 68.14125 142.549875 68.536125 
Q 142.5195 68.931 142.45875 69.7815 
Q 142.398 70.632 142.398 71.2395 
Q 142.7625 78.165 141.48675 92.92725 
Q 141.48675 93.53475 141.48675 94.02075 
Q 141.48675 94.50675 141.456375 94.87125 
Q 141.426 95.23575 141.152625 95.448375 
Q 140.87925 95.661 140.211 95.661 
L 139.1175 95.661 
L 135.29025 93.1095 
M 132.5565 61.21575 
L 132.5565 61.7625 
Q 132.5565 63.099 131.949 64.86075 
Q 131.3415 66.6225 130.3695 68.688 
Q 129.3975 70.7535 129.09375 71.604 
L 128.00025 73.4265 
M 114.0885 93.474 
L 115.72875 93.474 
L 125.20575 92.92725 
M 114.0885 80.7165 
L 123.201 80.352 
M 112.3875 71.118 
L 115.48575 71.118 
Q 116.2755 71.118 118.76625 70.57125 
Q 121.257 70.0245 123.3225 69.47775 
Q 125.388 68.931 125.388 68.87025 
Q 125.388 86.5485 125.0235 92.016 
L 124.47675 96.0255 
M 113.1165 69.2955 
L 113.1165 69.84225 
Q 113.1165 72.63675 113.78475 77.891625 
Q 114.453 83.1465 114.453 86.00175 
L 114.453 92.016 
L 113.724 93.8385 
M 123.01875 62.67375 
Q 122.28975 63.15975 121.43925 64.6785 
Q 120.58875 66.19725 119.9205 66.68325 
L 118.4625 69.96375 
" clip-path="url(#p89c09a0148)" style="fill: none; stroke: #000000; stroke-linejoin: miter"/>
   </g>
  </g>
  <g id="axes_5">
   <g id="patch_6">
    <path d="M 175.54361 84.997669 
Q 175.95316 85.356025 176.721067 86.482289 
Q 177.488975 87.608553 178.154494 88.069298 
L 179.690309 90.833764 
M 163.564256 86.22632 
Q 164.383357 86.584677 164.997683 87.2246 
Q 165.612008 87.864522 166.456706 89.144368 
Q 167.301404 90.424213 167.403792 90.526601 
M 154.810112 88.837205 
L 154.810112 89.297949 
Q 157.472191 92.676742 162.028441 94.801285 
Q 166.584691 96.925829 171.294522 97.591348 
Q 171.908848 97.693736 173.291081 97.437767 
Q 174.673315 97.181798 174.673315 96.823441 
Q 174.673315 96.772247 174.519733 95.134045 
L 174.21257 94.673301 
M 151.738483 85.304831 
Q 151.687289 85.970351 151.405723 86.661468 
Q 151.124157 87.352584 150.68901 88.171685 
Q 150.253862 88.990787 150.049087 89.451531 
L 148.359691 91.908834 
M 162.796348 69.946685 
Q 162.386798 70.151461 162.310007 70.612205 
Q 162.233216 71.072949 162.335604 71.508097 
Q 162.437992 71.943244 162.335604 72.403989 
Q 162.130829 73.22309 162.079635 74.426145 
Q 162.028441 75.629199 162.054038 76.627479 
Q 162.079635 77.625758 162.028441 78.700829 
L 161.567697 80.390225 
M 156.192346 75.782781 
L 156.960253 75.782781 
Q 157.011447 75.782781 160.031882 75.475618 
L 169.093188 75.322037 
M 153.120716 82.079621 
L 170.168258 81.926039 
M 152.659972 69.025197 
L 162.94993 68.564452 
L 170.629003 68.410871 
Q 173.035112 68.103708 173.086306 68.103708 
Q 173.239888 68.103708 173.239888 68.410871 
Q 172.523174 69.485941 172.190414 70.944965 
Q 171.857654 72.403989 171.652879 74.246966 
Q 171.448104 76.089944 171.243329 77.011433 
Q 170.577809 79.827093 170.475421 81.465295 
L 170.32184 82.540365 
M 152.50639 68.871615 
L 152.50639 69.178778 
Q 152.50639 69.844298 152.685569 70.612205 
Q 152.864747 71.380112 153.17191 72.327198 
Q 153.479073 73.274284 153.581461 73.786222 
L 153.735042 81.158132 
" clip-path="url(#pae0f0688c4)" style="fill: none; stroke: #000000; stroke-linejoin: miter"/>
   </g>
  </g>
  <g id="axes_6">
   <g id="patch_7">
    <path d="M 205.49939 93.461887 
L 214.287436 93.461887 
M 203.830773 86.861582 
L 204.053255 86.861582 
Q 204.683622 86.787421 206.370778 86.527859 
Q 208.057935 86.268296 208.706841 86.194135 
Q 209.355748 86.119975 211.042904 85.971653 
Q 212.730061 85.823332 213.397508 85.971653 
Q 213.545829 85.971653 213.731231 85.971653 
Q 213.916633 85.971653 213.972253 85.990193 
Q 214.027874 86.008733 214.139115 86.008733 
Q 214.250356 86.008733 214.250356 86.064354 
Q 214.250356 86.119975 214.287436 86.157055 
Q 214.324517 86.194135 214.305977 86.323917 
Q 214.287436 86.453698 214.305977 86.583479 
Q 214.324517 86.71326 214.305977 86.954283 
Q 214.287436 87.195305 214.287436 87.417787 
Q 214.213276 87.899832 213.898093 90.235895 
Q 213.582909 92.571958 213.175025 93.906851 
M 204.053255 86.972823 
Q 204.794863 87.566109 204.869023 89.790931 
Q 204.943184 92.015753 205.721872 92.79444 
M 202.607121 76.961124 
L 202.829603 76.961124 
Q 204.386979 76.961124 206.018515 77.832513 
Q 207.650051 78.703901 208.781002 79.797772 
Q 209.911953 80.891643 211.413708 82.300697 
Q 212.915463 83.709751 213.953713 84.414278 
L 216.845982 85.415448 
M 204.609461 74.958784 
Q 205.610631 74.5509 208.280417 74.235717 
Q 210.950203 73.920534 212.173856 73.290168 
Q 211.691811 74.365498 210.876043 76.034115 
Q 210.060275 77.702731 207.965234 81.002884 
Q 205.870193 84.303037 204.275738 85.415448 
L 201.605951 86.972823 
M 205.610631 70.397899 
L 205.610631 70.620381 
Q 205.610631 71.51031 205.313988 72.437319 
Q 205.017345 73.364329 204.51676 74.47674 
Q 204.016175 75.589151 203.830773 76.182436 
L 201.49471 79.297187 
M 192.706663 84.080554 
L 193.040387 84.080554 
Q 193.781994 83.932233 196.247838 83.765371 
Q 198.713683 83.59851 199.937335 83.190626 
M 184.104018 94.092253 
Q 184.845626 93.498967 185.883876 93.128164 
Q 186.922126 92.75736 188.516582 92.405097 
Q 190.111038 92.052833 190.778484 91.867431 
L 197.934995 89.531368 
L 198.824924 89.086404 
M 187.774975 85.415448 
L 187.774975 86.194135 
Q 187.774975 86.305376 187.774975 86.416617 
Q 187.774975 86.527859 187.774975 86.564939 
Q 187.849135 86.602019 187.997457 87.195305 
L 188.108698 92.646119 
M 192.929145 80.075875 
L 193.151628 80.520839 
L 193.37411 90.532538 
M 189.591913 80.075875 
L 196.155137 80.075875 
M 188.36826 74.625061 
L 188.924466 74.625061 
Q 189.925636 74.587981 192.002136 74.180097 
Q 194.078637 73.772213 195.153967 73.735132 
Q 195.41353 73.735132 195.951195 73.568271 
Q 196.488861 73.401409 196.822584 73.401409 
Q 197.007986 73.401409 197.026526 73.419949 
Q 197.045066 73.438489 197.045066 73.623891 
Q 197.045066 74.217177 196.711343 74.773383 
Q 196.37762 75.329588 196.266378 75.737472 
L 196.043896 80.187116 
M 188.479502 74.625061 
Q 188.442421 74.773383 188.627823 75.014405 
Q 188.813225 75.255427 188.813225 75.403749 
L 189.703154 79.297187 
" clip-path="url(#p8840801dce)" style="fill: none; stroke: #000000; stroke-linejoin: miter"/>
   </g>
  </g>
  <g id="axes_7">
   <g id="patch_8">
    <path d="M 237.979397 94.597386 
Q 237.979397 94.597386 236.20801 94.597386 
Q 233.930514 94.597386 232.53871 96.326597 
Q 231.146907 98.055807 231.146907 100.417655 
Q 231.062555 102.779503 232.707414 104.086955 
Q 234.352272 105.394407 236.714121 104.972648 
Q 237.388934 104.888297 238.485507 104.803945 
Q 239.582079 104.719593 240.172541 104.635241 
Q 240.763003 104.55089 241.479993 104.213483 
Q 242.196983 103.876076 242.492214 103.074734 
Q 242.787445 102.273393 242.787445 100.923766 
Q 242.787445 100.333303 242.53439 99.742841 
Q 242.281334 99.152379 241.859576 98.43539 
Q 241.437817 97.7184 241.269114 97.380993 
L 238.738562 95.862662 
" clip-path="url(#p24adccae7e)" style="fill: none; stroke: #000000; stroke-linejoin: miter"/>
   </g>
  </g>
 </g>
 <defs>
  <clipPath id="p5f575c281f">
   <rect x="0" y="46.758572" width="36.45" height="67.672855"/>
  </clipPath>
  <clipPath id="paf8b7ac715">
   <rect x="36.45" y="44.787073" width="36.45" height="71.615854"/>
  </clipPath>
  <clipPath id="pef85a5f450">
   <rect x="72.9" y="52.422026" width="36.45" height="56.345949"/>
  </clipPath>
  <clipPath id="p89c09a0148">
   <rect x="109.35" y="36.55125" width="36.45" height="88.0875"/>
  </clipPath>
  <clipPath id="pae0f0688c4">
   <rect x="145.8" y="43.47948" width="36.45" height="74.231039"/>
  </clipPath>
  <clipPath id="p8840801dce">
   <rect x="182.25" y="53.711734" width="36.45" height="53.766531"/>
  </clipPath>
  <clipPath id="p24adccae7e">
   <rect x="226.844969" y="19.44" width="20.160062" height="122.31"/>
  </clipPath>
 </defs>
</svg>
