<?xml version="1.0" encoding="utf-8" standalone="no"?>
<!DOCTYPE svg PUBLIC "-//W3C//DTD SVG 1.1//EN"
  "http://www.w3.org/Graphics/SVG/1.1/DTD/svg11.dtd">
<svg xmlns:xlink="http://www.w3.org/1999/xlink" width="558pt" height="72pt" viewBox="0 0 558 72" xmlns="http://www.w3.org/2000/svg" version="1.1">
 <metadata>
  <rdf:RDF xmlns:dc="http://purl.org/dc/elements/1.1/" xmlns:cc="http://creativecommons.org/ns#" xmlns:rdf="http://www.w3.org/1999/02/22-rdf-syntax-ns#">
   <cc:Work>
    <dc:type rdf:resource="http://purl.org/dc/dcmitype/StillImage"/>
    <dc:date>2023-02-05T22:22:33.964280</dc:date>
    <dc:format>image/svg+xml</dc:format>
    <dc:creator>
     <cc:Agent>
      <dc:title>Matplotlib v3.6.1, https://matplotlib.org/</dc:title>
     </cc:Agent>
    </dc:creator>
   </cc:Work>
  </rdf:RDF>
 </metadata>
 <defs>
  <style type="text/css">*{stroke-linejoin: round; stroke-linecap: butt}</style>
 </defs>
 <g id="figure_1">
  <g id="patch_1">
   <path d="M 0 72 
L 558 72 
L 558 0 
L 0 0 
z
" style="fill: #8fff9f"/>
  </g>
  <g id="axes_1">
   <g id="patch_2">
    <path d="M 8.718579 29.071862 
Q 8.343683 29.146841 8.212469 29.577972 
Q 8.081255 30.009103 8.156234 30.42149 
Q 8.156234 30.571448 8.193724 30.702662 
Q 8.231214 30.833876 8.287448 30.89011 
Q 8.343683 30.946345 8.399917 31.040069 
Q 8.456152 31.133793 8.493641 31.208772 
L 8.60611 29.859145 
M 8.60611 34.020497 
Q 7.706359 39.006621 7.481421 42.793076 
L 7.931297 45.379862 
L 8.268703 46.054676 
" clip-path="url(#p8fa3004644)" style="fill: none; stroke: #000000; stroke-linejoin: miter"/>
   </g>
  </g>
  <g id="axes_2">
   <g id="patch_3">
    <path d="M 19.838731 37.282097 
L 19.838731 37.844441 
Q 20.101159 39.868883 20.138648 41.312234 
Q 20.176138 42.755586 20.082414 44.667559 
Q 19.98869 46.579531 19.98869 48.191586 
L 20.063669 39.643945 
Q 20.063669 38.144359 21.656979 37.507034 
Q 23.25029 36.86971 24.674897 37.282097 
Q 26.586869 37.844441 27.505366 39.04411 
Q 28.423862 40.243779 28.480097 41.668386 
Q 28.536331 43.092993 28.573821 44.817517 
Q 28.61131 46.542041 28.761269 48.191586 
" clip-path="url(#ped3b27631e)" style="fill: none; stroke: #000000; stroke-linejoin: miter"/>
   </g>
  </g>
  <g id="axes_3">
   <g id="patch_4">
    <path d="M 35.663834 37.95691 
L 36.338648 37.95691 
Q 37.050952 37.95691 37.838234 37.881931 
Q 38.625517 37.806952 39.581503 37.675738 
Q 40.53749 37.544524 41.062345 37.507034 
L 45.336166 35.82 
M 41.287283 30.42149 
L 41.287283 31.43371 
Q 41.287283 33.383172 40.612469 37.207117 
Q 39.937655 41.031062 39.937655 43.018014 
Q 39.937655 43.805297 39.937655 44.105214 
Q 39.937655 44.405131 40.031379 45.042455 
Q 40.125103 45.679779 40.312552 45.960952 
Q 40.5 46.242124 40.893641 46.485807 
Q 41.287283 46.72949 41.849628 46.72949 
Q 41.962097 46.692 42.280759 46.72949 
Q 42.599421 46.766979 42.786869 46.710745 
Q 42.974317 46.65451 42.974317 46.392083 
" clip-path="url(#p74cccd4c4c)" style="fill: none; stroke: #000000; stroke-linejoin: miter"/>
   </g>
  </g>
  <g id="axes_4">
   <g id="patch_5">
    <path d="M 59.9616 35.032717 
Q 58.91189 34.582841 57.937159 34.69531 
Q 54.900497 35.032717 52.988524 36.701007 
Q 51.076552 38.369297 51.076552 41.330979 
Q 51.076552 43.917766 53.082248 45.6048 
Q 55.087945 47.291834 57.712221 47.291834 
Q 60.074069 47.291834 61.198759 45.361117 
Q 62.323448 43.4304 62.323448 40.881103 
Q 62.323448 39.643945 61.911062 38.706703 
Q 61.498676 37.769462 60.973821 37.300841 
Q 60.448966 36.832221 59.699172 36.119917 
Q 58.949379 35.407614 58.499503 34.69531 
L 57.262345 34.245434 
" clip-path="url(#pd54cffc9aa)" style="fill: none; stroke: #000000; stroke-linejoin: miter"/>
   </g>
  </g>
  <g id="axes_5"/>
  <g id="axes_6">
   <g id="patch_6">
    <path d="M 94.643923 36.441748 
Q 93.434968 35.094627 89.462687 35.094627 
Q 87.942857 35.094627 87.165672 35.146439 
Q 86.388486 35.198252 85.38678 35.440043 
Q 84.385075 35.681834 83.901493 36.182687 
Q 83.41791 36.683539 83.072495 37.616162 
Q 82.727079 38.548785 82.727079 39.964989 
Q 82.727079 42.037484 84.143284 43.280981 
Q 85.559488 44.524478 87.493817 44.524478 
Q 90.153518 44.524478 92.916844 38.721493 
Q 94.263966 35.854542 94.263966 35.82 
Q 94.609382 35.578209 94.643923 36.441748 
Q 94.643923 37.512537 95.058422 40.362217 
Q 95.472921 43.211898 95.472921 44.524478 
" clip-path="url(#p70f4c7d698)" style="fill: none; stroke: #000000; stroke-linejoin: miter"/>
   </g>
  </g>
  <g id="axes_7"/>
  <g id="axes_8">
   <g id="patch_7">
    <path d="M 126.756735 34.365306 
Q 126.756735 34.365306 126.260816 34.365306 
Q 125.467347 34.365306 123.979592 34.067755 
Q 122.491837 33.770204 121.698367 33.770204 
Q 118.921224 33.770204 116.987143 35.224898 
Q 115.053061 36.679592 115.053061 39.423673 
Q 115.053061 40.94449 116.540816 42.399184 
Q 118.028571 43.853878 119.962653 44.663878 
Q 121.896735 45.473878 123.38449 45.473878 
Q 124.310204 45.473878 125.00449 45.110204 
Q 125.698776 44.746531 126.442653 44.118367 
Q 127.186531 43.490204 127.748571 43.192653 
L 127.946939 42.696735 
" clip-path="url(#pbee2621aae)" style="fill: none; stroke: #000000; stroke-linejoin: miter"/>
   </g>
  </g>
  <g id="axes_9">
   <g id="patch_8">
    <path d="M 137.306359 28.621986 
Q 137.531297 30.34651 137.606276 32.146014 
Q 137.681255 33.945517 137.66251 36.551048 
Q 137.643766 39.156579 137.643766 40.093821 
Q 137.643766 40.13131 137.868703 45.829738 
L 138.093641 46.841959 
" clip-path="url(#p0d46e8dbce)" style="fill: none; stroke: #000000; stroke-linejoin: miter"/>
   </g>
  </g>
  <g id="axes_10">
   <g id="patch_9">
    <path d="M 147.657798 38.160826 
Q 150.630275 39.535596 155.349083 39.721376 
Q 156.872477 39.721376 157.559862 38.550963 
Q 158.247248 37.38055 158.247248 35.82 
Q 158.247248 35.299817 158.154358 34.909679 
Q 158.061468 34.519541 157.819954 34.296606 
Q 157.57844 34.07367 157.411239 33.943624 
Q 157.244037 33.813578 156.798165 33.757844 
Q 156.352294 33.70211 156.147936 33.683532 
Q 155.943578 33.664954 155.367661 33.683532 
Q 154.791743 33.70211 154.568807 33.70211 
Q 152.525229 33.70211 151.038991 35.578486 
Q 149.552752 37.454862 149.552752 39.609908 
Q 149.552752 42.619541 151.484862 44.570229 
Q 153.416972 46.520917 156.463761 46.520917 
Q 158.618807 46.818165 160.142202 44.29156 
" clip-path="url(#pfdf2125ce7)" style="fill: none; stroke: #000000; stroke-linejoin: miter"/>
   </g>
  </g>
  <g id="axes_11">
   <g id="patch_10">
    <path d="M 175.643923 36.441748 
Q 174.434968 35.094627 170.462687 35.094627 
Q 168.942857 35.094627 168.165672 35.146439 
Q 167.388486 35.198252 166.38678 35.440043 
Q 165.385075 35.681834 164.901493 36.182687 
Q 164.41791 36.683539 164.072495 37.616162 
Q 163.727079 38.548785 163.727079 39.964989 
Q 163.727079 42.037484 165.143284 43.280981 
Q 166.559488 44.524478 168.493817 44.524478 
Q 171.153518 44.524478 173.916844 38.721493 
Q 175.263966 35.854542 175.263966 35.82 
Q 175.609382 35.578209 175.643923 36.441748 
Q 175.643923 37.512537 176.058422 40.362217 
Q 176.472921 43.211898 176.472921 44.524478 
" clip-path="url(#p451d9d6f96)" style="fill: none; stroke: #000000; stroke-linejoin: miter"/>
   </g>
  </g>
  <g id="axes_12">
   <g id="patch_11">
    <path d="M 182.813462 32.783338 
Q 183.338317 34.507862 183.469531 36.457324 
Q 183.600745 38.406786 183.525766 40.956083 
Q 183.450786 43.505379 183.488276 44.705048 
L 183.600745 46.054676 
L 183.600745 45.829738 
Q 183.600745 44.667559 183.319572 42.30571 
Q 183.0384 39.943862 183.0384 38.744193 
Q 183.0384 36.419834 184.050621 34.882759 
Q 185.062841 33.345683 187.087283 33.345683 
Q 187.799586 33.345683 188.136993 33.626855 
Q 188.4744 33.908028 188.736828 34.432883 
Q 188.999255 34.957738 189.336662 35.257655 
L 189.786538 36.832221 
" clip-path="url(#p39b972efc1)" style="fill: none; stroke: #000000; stroke-linejoin: miter"/>
   </g>
  </g>
  <g id="axes_13"/>
  <g id="axes_14">
   <g id="patch_12">
    <path d="M 218.306359 28.621986 
Q 218.531297 30.34651 218.606276 32.146014 
Q 218.681255 33.945517 218.66251 36.551048 
Q 218.643766 39.156579 218.643766 40.093821 
Q 218.643766 40.13131 218.868703 45.829738 
L 219.093641 46.841959 
" clip-path="url(#pb727b75e6a)" style="fill: none; stroke: #000000; stroke-linejoin: miter"/>
   </g>
  </g>
  <g id="axes_15">
   <g id="patch_13">
    <path d="M 235.518579 29.071862 
Q 235.143683 29.146841 235.012469 29.577972 
Q 234.881255 30.009103 234.956234 30.42149 
Q 234.956234 30.571448 234.993724 30.702662 
Q 235.031214 30.833876 235.087448 30.89011 
Q 235.143683 30.946345 235.199917 31.040069 
Q 235.256152 31.133793 235.293641 31.208772 
L 235.40611 29.859145 
M 235.40611 34.020497 
Q 234.506359 39.006621 234.281421 42.793076 
L 234.731297 45.379862 
L 235.068703 46.054676 
" clip-path="url(#pfef4ad56ea)" style="fill: none; stroke: #000000; stroke-linejoin: miter"/>
   </g>
  </g>
  <g id="axes_16">
   <g id="patch_14">
    <path d="M 246.638731 37.282097 
L 246.638731 37.844441 
Q 246.901159 39.868883 246.938648 41.312234 
Q 246.976138 42.755586 246.882414 44.667559 
Q 246.78869 46.579531 246.78869 48.191586 
L 246.863669 39.643945 
Q 246.863669 38.144359 248.456979 37.507034 
Q 250.05029 36.86971 251.474897 37.282097 
Q 253.386869 37.844441 254.305366 39.04411 
Q 255.223862 40.243779 255.280097 41.668386 
Q 255.336331 43.092993 255.373821 44.817517 
Q 255.41131 46.542041 255.561269 48.191586 
" clip-path="url(#p7f2614d5c1)" style="fill: none; stroke: #000000; stroke-linejoin: miter"/>
   </g>
  </g>
  <g id="axes_17">
   <g id="patch_15">
    <path d="M 261.057798 38.160826 
Q 264.030275 39.535596 268.749083 39.721376 
Q 270.272477 39.721376 270.959862 38.550963 
Q 271.647248 37.38055 271.647248 35.82 
Q 271.647248 35.299817 271.554358 34.909679 
Q 271.461468 34.519541 271.219954 34.296606 
Q 270.97844 34.07367 270.811239 33.943624 
Q 270.644037 33.813578 270.198165 33.757844 
Q 269.752294 33.70211 269.547936 33.683532 
Q 269.343578 33.664954 268.767661 33.683532 
Q 268.191743 33.70211 267.968807 33.70211 
Q 265.925229 33.70211 264.438991 35.578486 
Q 262.952752 37.454862 262.952752 39.609908 
Q 262.952752 42.619541 264.884862 44.570229 
Q 266.816972 46.520917 269.863761 46.520917 
Q 272.018807 46.818165 273.542202 44.29156 
" clip-path="url(#p928f68f1e8)" style="fill: none; stroke: #000000; stroke-linejoin: miter"/>
   </g>
  </g>
  <g id="axes_18"/>
  <g id="axes_19">
   <g id="patch_16">
    <path d="M 302.9616 35.032717 
Q 301.91189 34.582841 300.937159 34.69531 
Q 297.900497 35.032717 295.988524 36.701007 
Q 294.076552 38.369297 294.076552 41.330979 
Q 294.076552 43.917766 296.082248 45.6048 
Q 298.087945 47.291834 300.712221 47.291834 
Q 303.074069 47.291834 304.198759 45.361117 
Q 305.323448 43.4304 305.323448 40.881103 
Q 305.323448 39.643945 304.911062 38.706703 
Q 304.498676 37.769462 303.973821 37.300841 
Q 303.448966 36.832221 302.699172 36.119917 
Q 301.949379 35.407614 301.499503 34.69531 
L 300.262345 34.245434 
" clip-path="url(#pe5c420b309)" style="fill: none; stroke: #000000; stroke-linejoin: miter"/>
   </g>
  </g>
  <g id="axes_20">
   <g id="patch_17">
    <path d="M 309.584141 38.85304 
L 310.012335 38.85304 
Q 310.83304 38.85304 311.796476 38.745991 
Q 312.759912 38.638943 313.919604 38.460529 
Q 315.079295 38.282115 315.685903 38.210749 
L 322.215859 35.427489 
M 321.894714 25.793128 
Q 321.609251 25.721762 320.574449 25.275727 
Q 319.539648 24.829692 318.897357 24.93674 
Q 318.255066 24.93674 317.737665 25.150837 
Q 317.220264 25.364934 316.881278 25.793128 
Q 316.542291 26.221322 316.27467 26.685198 
Q 316.007048 27.149075 315.864317 27.862731 
Q 315.721586 28.576388 315.614537 29.129471 
Q 315.507489 29.682555 315.489648 30.50326 
Q 315.471806 31.323965 315.453965 31.77 
Q 315.436123 32.216035 315.453965 32.965374 
Q 315.471806 33.714714 315.471806 33.928811 
Q 315.471806 36.605022 316.167621 41.850396 
Q 316.863436 47.095771 316.863436 49.771982 
Q 316.79207 50.057445 316.756388 50.681894 
Q 316.720705 51.306344 316.613656 51.805903 
Q 316.506608 52.305463 316.221145 52.555242 
" clip-path="url(#pfbca20e85f)" style="fill: none; stroke: #000000; stroke-linejoin: miter"/>
   </g>
  </g>
  <g id="axes_21"/>
  <g id="axes_22">
   <g id="patch_18">
    <path d="M 344.813462 32.783338 
Q 345.338317 34.507862 345.469531 36.457324 
Q 345.600745 38.406786 345.525766 40.956083 
Q 345.450786 43.505379 345.488276 44.705048 
L 345.600745 46.054676 
L 345.600745 45.829738 
Q 345.600745 44.667559 345.319572 42.30571 
Q 345.0384 39.943862 345.0384 38.744193 
Q 345.0384 36.419834 346.050621 34.882759 
Q 347.062841 33.345683 349.087283 33.345683 
Q 349.799586 33.345683 350.136993 33.626855 
Q 350.4744 33.908028 350.736828 34.432883 
Q 350.999255 34.957738 351.336662 35.257655 
L 351.786538 36.832221 
" clip-path="url(#p0d0efc691a)" style="fill: none; stroke: #000000; stroke-linejoin: miter"/>
   </g>
  </g>
  <g id="axes_23">
   <g id="patch_19">
    <path d="M 358.257798 38.160826 
Q 361.230275 39.535596 365.949083 39.721376 
Q 367.472477 39.721376 368.159862 38.550963 
Q 368.847248 37.38055 368.847248 35.82 
Q 368.847248 35.299817 368.754358 34.909679 
Q 368.661468 34.519541 368.419954 34.296606 
Q 368.17844 34.07367 368.011239 33.943624 
Q 367.844037 33.813578 367.398165 33.757844 
Q 366.952294 33.70211 366.747936 33.683532 
Q 366.543578 33.664954 365.967661 33.683532 
Q 365.391743 33.70211 365.168807 33.70211 
Q 363.125229 33.70211 361.638991 35.578486 
Q 360.152752 37.454862 360.152752 39.609908 
Q 360.152752 42.619541 362.084862 44.570229 
Q 364.016972 46.520917 367.063761 46.520917 
Q 369.218807 46.818165 370.742202 44.29156 
" clip-path="url(#p405a065c05)" style="fill: none; stroke: #000000; stroke-linejoin: miter"/>
   </g>
  </g>
  <g id="axes_24">
   <g id="patch_20">
    <path d="M 386.243923 36.441748 
Q 385.034968 35.094627 381.062687 35.094627 
Q 379.542857 35.094627 378.765672 35.146439 
Q 377.988486 35.198252 376.98678 35.440043 
Q 375.985075 35.681834 375.501493 36.182687 
Q 375.01791 36.683539 374.672495 37.616162 
Q 374.327079 38.548785 374.327079 39.964989 
Q 374.327079 42.037484 375.743284 43.280981 
Q 377.159488 44.524478 379.093817 44.524478 
Q 381.753518 44.524478 384.516844 38.721493 
Q 385.863966 35.854542 385.863966 35.82 
Q 386.209382 35.578209 386.243923 36.441748 
Q 386.243923 37.512537 386.658422 40.362217 
Q 387.072921 43.211898 387.072921 44.524478 
" clip-path="url(#pea94e745e2)" style="fill: none; stroke: #000000; stroke-linejoin: miter"/>
   </g>
  </g>
  <g id="axes_25">
   <g id="patch_21">
    <path d="M 392.457476 43.917766 
Q 392.757393 44.180193 393.769614 45.154924 
Q 394.781834 46.129655 395.344179 46.560786 
Q 395.906524 46.991917 396.93749 47.385559 
Q 397.968455 47.7792 398.980676 47.629241 
Q 399.65549 47.629241 400.12411 47.404303 
Q 400.592731 47.179366 400.817669 46.879448 
Q 401.042607 46.579531 401.173821 45.979697 
Q 401.305034 45.379862 401.323779 44.967476 
Q 401.342524 44.55509 401.342524 43.805297 
Q 401.342524 42.718097 400.442772 42.043283 
Q 399.543021 41.368469 398.249628 41.031062 
Q 396.956234 40.693655 395.662841 40.300014 
Q 394.369448 39.906372 393.469697 38.987876 
Q 392.569945 38.069379 392.569945 36.607283 
Q 392.569945 36.082428 392.738648 35.726276 
Q 392.907352 35.370124 393.300993 35.145186 
Q 393.694634 34.920248 393.975807 34.807779 
Q 394.256979 34.69531 394.913048 34.639076 
Q 395.569117 34.582841 395.756566 34.582841 
Q 395.944014 34.582841 396.618828 34.582841 
Q 397.818497 34.582841 398.399586 34.995228 
Q 398.980676 35.407614 399.299338 36.026193 
Q 399.618 36.644772 399.880428 36.832221 
" clip-path="url(#p1ea34fadbf)" style="fill: none; stroke: #000000; stroke-linejoin: miter"/>
   </g>
  </g>
  <g id="axes_26">
   <g id="patch_22">
    <path d="M 416.3616 35.032717 
Q 415.31189 34.582841 414.337159 34.69531 
Q 411.300497 35.032717 409.388524 36.701007 
Q 407.476552 38.369297 407.476552 41.330979 
Q 407.476552 43.917766 409.482248 45.6048 
Q 411.487945 47.291834 414.112221 47.291834 
Q 416.474069 47.291834 417.598759 45.361117 
Q 418.723448 43.4304 418.723448 40.881103 
Q 418.723448 39.643945 418.311062 38.706703 
Q 417.898676 37.769462 417.373821 37.300841 
Q 416.848966 36.832221 416.099172 36.119917 
Q 415.349379 35.407614 414.899503 34.69531 
L 413.662345 34.245434 
" clip-path="url(#p2c05499789)" style="fill: none; stroke: #000000; stroke-linejoin: miter"/>
   </g>
  </g>
  <g id="axes_27">
   <g id="patch_23">
    <path d="M 424.838731 37.282097 
L 424.838731 37.844441 
Q 425.101159 39.868883 425.138648 41.312234 
Q 425.176138 42.755586 425.082414 44.667559 
Q 424.98869 46.579531 424.98869 48.191586 
L 425.063669 39.643945 
Q 425.063669 38.144359 426.656979 37.507034 
Q 428.25029 36.86971 429.674897 37.282097 
Q 431.586869 37.844441 432.505366 39.04411 
Q 433.423862 40.243779 433.480097 41.668386 
Q 433.536331 43.092993 433.573821 44.817517 
Q 433.61131 46.542041 433.761269 48.191586 
" clip-path="url(#p0e461e76a6)" style="fill: none; stroke: #000000; stroke-linejoin: miter"/>
   </g>
  </g>
  <g id="axes_28">
   <g id="patch_24">
    <path d="M 446.118579 29.071862 
Q 445.743683 29.146841 445.612469 29.577972 
Q 445.481255 30.009103 445.556234 30.42149 
Q 445.556234 30.571448 445.593724 30.702662 
Q 445.631214 30.833876 445.687448 30.89011 
Q 445.743683 30.946345 445.799917 31.040069 
Q 445.856152 31.133793 445.893641 31.208772 
L 446.00611 29.859145 
M 446.00611 34.020497 
Q 445.106359 39.006621 444.881421 42.793076 
L 445.331297 45.379862 
L 445.668703 46.054676 
" clip-path="url(#p7717b24602)" style="fill: none; stroke: #000000; stroke-linejoin: miter"/>
   </g>
  </g>
  <g id="axes_29">
   <g id="patch_25">
    <path d="M 457.238731 37.282097 
L 457.238731 37.844441 
Q 457.501159 39.868883 457.538648 41.312234 
Q 457.576138 42.755586 457.482414 44.667559 
Q 457.38869 46.579531 457.38869 48.191586 
L 457.463669 39.643945 
Q 457.463669 38.144359 459.056979 37.507034 
Q 460.65029 36.86971 462.074897 37.282097 
Q 463.986869 37.844441 464.905366 39.04411 
Q 465.823862 40.243779 465.880097 41.668386 
Q 465.936331 43.092993 465.973821 44.817517 
Q 466.01131 46.542041 466.161269 48.191586 
" clip-path="url(#pe6b6c71f4e)" style="fill: none; stroke: #000000; stroke-linejoin: miter"/>
   </g>
  </g>
  <g id="axes_30">
   <g id="patch_26">
    <path d="M 482.687191 39.096404 
Q 482.43236 39.023596 481.46764 38.623146 
Q 480.502921 38.222697 479.84764 38.077079 
Q 479.19236 37.931461 478.537079 38.00427 
Q 475.915955 38.00427 474.277753 40.388764 
Q 472.639551 42.773258 472.639551 45.430787 
Q 472.639551 47.068989 477.881798 47.068989 
Q 479.447191 47.068989 480.775955 45.558202 
Q 482.104719 44.047416 482.778202 42.172584 
Q 483.451685 40.297753 483.451685 38.768764 
Q 483.451685 37.27618 483.415281 36.984944 
L 483.342472 38.077079 
Q 483.342472 38.550337 483.342472 38.987191 
Q 483.378876 40.188539 483.579101 42.281798 
Q 483.779326 44.375056 483.943146 46.049663 
Q 484.106966 47.72427 484.143371 49.872135 
Q 484.179775 52.02 484.015955 53.658202 
Q 483.852135 55.296404 483.287865 56.971011 
Q 482.723596 58.645618 481.795281 59.737753 
Q 480.866966 60.829888 479.265169 61.521573 
Q 477.663371 62.213258 475.515506 62.213258 
Q 473.877303 62.213258 472.785169 61.466966 
Q 471.693034 60.720674 471.693034 59.155281 
Q 471.620225 58.936854 471.656629 58.936854 
Q 471.693034 58.936854 471.802247 58.936854 
Q 471.911461 58.936854 471.911461 58.82764 
" clip-path="url(#p8100fef3f9)" style="fill: none; stroke: #000000; stroke-linejoin: miter"/>
   </g>
  </g>
  <g id="axes_31">
   <g id="patch_27">
    <path d="M 493.987531 45.979697 
Q 493.950041 46.017186 493.818828 46.054676 
Q 493.687614 46.092166 493.725103 46.167145 
Q 493.725103 46.579531 494.1 46.579531 
Q 494.437407 46.579531 494.437407 46.092166 
Q 494.512386 45.867228 494.231214 45.754759 
Q 493.950041 45.64229 493.762593 45.754759 
" clip-path="url(#p39fc2cdd2e)" style="fill: none; stroke: #000000; stroke-linejoin: miter"/>
   </g>
  </g>
 </g>
 <defs>
  <clipPath id="p8fa3004644">
   <rect x="5.606938" y="8.64" width="4.986124" height="54.36"/>
  </clipPath>
  <clipPath id="ped3b27631e">
   <rect x="17.964248" y="8.64" width="12.671503" height="54.36"/>
  </clipPath>
  <clipPath id="p74cccd4c4c">
   <rect x="33.789352" y="8.64" width="13.421297" height="54.36"/>
  </clipPath>
  <clipPath id="pd54cffc9aa">
   <rect x="49.202069" y="8.64" width="14.995862" height="54.36"/>
  </clipPath>
  <clipPath id="p70f4c7d698">
   <rect x="81" y="10.777356" width="16.2" height="50.085288"/>
  </clipPath>
  <clipPath id="pbee2621aae">
   <rect x="113.4" y="11.850612" width="16.2" height="47.938776"/>
  </clipPath>
  <clipPath id="p0d46e8dbce">
   <rect x="135.431876" y="8.64" width="4.536248" height="54.36"/>
  </clipPath>
  <clipPath id="pfdf2125ce7">
   <rect x="145.8" y="8.881927" width="16.2" height="53.876147"/>
  </clipPath>
  <clipPath id="p451d9d6f96">
   <rect x="162" y="10.777356" width="16.2" height="50.085288"/>
  </clipPath>
  <clipPath id="p39b972efc1">
   <rect x="180.938979" y="8.64" width="10.722041" height="54.36"/>
  </clipPath>
  <clipPath id="pb727b75e6a">
   <rect x="216.431876" y="8.64" width="4.536248" height="54.36"/>
  </clipPath>
  <clipPath id="pfef4ad56ea">
   <rect x="232.406938" y="8.64" width="4.986124" height="54.36"/>
  </clipPath>
  <clipPath id="p7f2614d5c1">
   <rect x="244.764248" y="8.64" width="12.671503" height="54.36"/>
  </clipPath>
  <clipPath id="p928f68f1e8">
   <rect x="259.2" y="8.881927" width="16.2" height="53.876147"/>
  </clipPath>
  <clipPath id="pe5c420b309">
   <rect x="292.202069" y="8.64" width="14.995862" height="54.36"/>
  </clipPath>
  <clipPath id="pfbca20e85f">
   <rect x="307.8" y="9.949956" width="16.2" height="51.740088"/>
  </clipPath>
  <clipPath id="p0d0efc691a">
   <rect x="342.938979" y="8.64" width="10.722041" height="54.36"/>
  </clipPath>
  <clipPath id="p405a065c05">
   <rect x="356.4" y="8.881927" width="16.2" height="53.876147"/>
  </clipPath>
  <clipPath id="pea94e745e2">
   <rect x="372.6" y="10.777356" width="16.2" height="50.085288"/>
  </clipPath>
  <clipPath id="p1ea34fadbf">
   <rect x="390.582993" y="8.64" width="12.634014" height="54.36"/>
  </clipPath>
  <clipPath id="p2c05499789">
   <rect x="405.602069" y="8.64" width="14.995862" height="54.36"/>
  </clipPath>
  <clipPath id="p0e461e76a6">
   <rect x="422.964248" y="8.64" width="12.671503" height="54.36"/>
  </clipPath>
  <clipPath id="p7717b24602">
   <rect x="443.006938" y="8.64" width="4.986124" height="54.36"/>
  </clipPath>
  <clipPath id="pe6b6c71f4e">
   <rect x="455.364248" y="8.64" width="12.671503" height="54.36"/>
  </clipPath>
  <clipPath id="p8100fef3f9">
   <rect x="469.8" y="9.426742" width="16.2" height="52.786517"/>
  </clipPath>
  <clipPath id="p39fc2cdd2e">
   <rect x="491.813131" y="8.64" width="4.573738" height="54.36"/>
  </clipPath>
 </defs>
</svg>
