<?xml version="1.0" encoding="utf-8" standalone="no"?>
<!DOCTYPE svg PUBLIC "-//W3C//DTD SVG 1.1//EN"
  "http://www.w3.org/Graphics/SVG/1.1/DTD/svg11.dtd">
<svg xmlns:xlink="http://www.w3.org/1999/xlink" width="378pt" height="72pt" viewBox="0 0 378 72" xmlns="http://www.w3.org/2000/svg" version="1.1">
 <metadata>
  <rdf:RDF xmlns:dc="http://purl.org/dc/elements/1.1/" xmlns:cc="http://creativecommons.org/ns#" xmlns:rdf="http://www.w3.org/1999/02/22-rdf-syntax-ns#">
   <cc:Work>
    <dc:type rdf:resource="http://purl.org/dc/dcmitype/StillImage"/>
    <dc:date>2023-02-05T22:22:24.200428</dc:date>
    <dc:format>image/svg+xml</dc:format>
    <dc:creator>
     <cc:Agent>
      <dc:title>Matplotlib v3.6.1, https://matplotlib.org/</dc:title>
     </cc:Agent>
    </dc:creator>
   </cc:Work>
  </rdf:RDF>
 </metadata>
 <defs>
  <style type="text/css">*{stroke-linejoin: round; stroke-linecap: butt}</style>
 </defs>
 <g id="figure_1">
  <g id="patch_1">
   <path d="M 0 72 
L 378 72 
L 378 0 
L 0 0 
z
" style="fill: #8fff9f"/>
  </g>
  <g id="axes_1">
   <g id="patch_2">
    <path d="M 13.356735 34.365306 
Q 13.356735 34.365306 12.860816 34.365306 
Q 12.067347 34.365306 10.579592 34.067755 
Q 9.091837 33.770204 8.298367 33.770204 
Q 5.521224 33.770204 3.587143 35.224898 
Q 1.653061 36.679592 1.653061 39.423673 
Q 1.653061 40.94449 3.140816 42.399184 
Q 4.628571 43.853878 6.562653 44.663878 
Q 8.496735 45.473878 9.98449 45.473878 
Q 10.910204 45.473878 11.60449 45.110204 
Q 12.298776 44.746531 13.042653 44.118367 
Q 13.786531 43.490204 14.348571 43.192653 
L 14.546939 42.696735 
" clip-path="url(#p1d3ef9de8a)" style="fill: none; stroke: #000000; stroke-linejoin: miter"/>
   </g>
  </g>
  <g id="axes_2">
   <g id="patch_3">
    <path d="M 20.813462 35.932469 
Q 21.413297 35.257655 22.406772 34.826524 
Q 23.400248 34.395393 24.3 34.470372 
Q 24.937324 34.470372 25.42469 34.639076 
Q 25.912055 34.807779 26.230717 34.995228 
Q 26.549379 35.182676 26.774317 35.670041 
Q 26.999255 36.157407 27.111724 36.419834 
Q 27.224193 36.682262 27.280428 37.375821 
Q 27.336662 38.069379 27.355407 38.331807 
Q 27.374152 38.594234 27.355407 39.419007 
Q 27.336662 40.243779 27.336662 40.431228 
Q 27.336662 41.368469 27.167959 43.242952 
Q 26.999255 45.117434 26.999255 46.054676 
Q 26.999255 46.467062 27.05549 46.823214 
Q 27.111724 47.179366 27.205448 47.610497 
Q 27.299172 48.041628 27.336662 48.304055 
L 27.786538 48.528993 
M 21.263338 23.111007 
Q 21.488276 24.798041 21.488276 29.971614 
L 21.488276 42.3432 
L 21.150869 46.841959 
L 20.925931 47.74171 
" clip-path="url(#p6807fdd4a9)" style="fill: none; stroke: #000000; stroke-linejoin: miter"/>
   </g>
  </g>
  <g id="axes_3">
   <g id="patch_4">
    <path d="M 37.2384 34.357903 
Q 37.500828 34.395393 37.838234 33.795559 
Q 38.175641 33.195724 38.700497 33.345683 
L 43.199255 29.2968 
M 36.338648 40.656166 
L 36.563586 40.656166 
Q 37.27589 40.656166 38.83171 41.330979 
Q 40.387531 42.005793 41.287283 42.005793 
Q 43.986538 42.005793 43.986538 38.744193 
Q 43.986538 36.607283 40.612469 36.607283 
Q 38.737986 36.607283 37.650786 37.750717 
Q 36.563586 38.894152 36.563586 40.768634 
Q 36.563586 43.617848 37.894469 45.454841 
Q 39.225352 47.291834 41.962097 47.291834 
Q 43.424193 47.591752 44.661352 45.6048 
" clip-path="url(#p36dba14aa5)" style="fill: none; stroke: #000000; stroke-linejoin: miter"/>
   </g>
  </g>
  <g id="axes_4">
   <g id="patch_5">
    <path d="M 52.238731 37.282097 
L 52.238731 37.844441 
Q 52.501159 39.868883 52.538648 41.312234 
Q 52.576138 42.755586 52.482414 44.667559 
Q 52.38869 46.579531 52.38869 48.191586 
L 52.463669 39.643945 
Q 52.463669 38.144359 54.056979 37.507034 
Q 55.65029 36.86971 57.074897 37.282097 
Q 58.986869 37.844441 59.905366 39.04411 
Q 60.823862 40.243779 60.880097 41.668386 
Q 60.936331 43.092993 60.973821 44.817517 
Q 61.01131 46.542041 61.161269 48.191586 
" clip-path="url(#p6ed42f8287)" style="fill: none; stroke: #000000; stroke-linejoin: miter"/>
   </g>
  </g>
  <g id="axes_5">
   <g id="patch_6">
    <path d="M 77.687191 39.096404 
Q 77.43236 39.023596 76.46764 38.623146 
Q 75.502921 38.222697 74.84764 38.077079 
Q 74.19236 37.931461 73.537079 38.00427 
Q 70.915955 38.00427 69.277753 40.388764 
Q 67.639551 42.773258 67.639551 45.430787 
Q 67.639551 47.068989 72.881798 47.068989 
Q 74.447191 47.068989 75.775955 45.558202 
Q 77.104719 44.047416 77.778202 42.172584 
Q 78.451685 40.297753 78.451685 38.768764 
Q 78.451685 37.27618 78.415281 36.984944 
L 78.342472 38.077079 
Q 78.342472 38.550337 78.342472 38.987191 
Q 78.378876 40.188539 78.579101 42.281798 
Q 78.779326 44.375056 78.943146 46.049663 
Q 79.106966 47.72427 79.143371 49.872135 
Q 79.179775 52.02 79.015955 53.658202 
Q 78.852135 55.296404 78.287865 56.971011 
Q 77.723596 58.645618 76.795281 59.737753 
Q 75.866966 60.829888 74.265169 61.521573 
Q 72.663371 62.213258 70.515506 62.213258 
Q 68.877303 62.213258 67.785169 61.466966 
Q 66.693034 60.720674 66.693034 59.155281 
Q 66.620225 58.936854 66.656629 58.936854 
Q 66.693034 58.936854 66.802247 58.936854 
Q 66.911461 58.936854 66.911461 58.82764 
" clip-path="url(#pc633fbc9fd)" style="fill: none; stroke: #000000; stroke-linejoin: miter"/>
   </g>
  </g>
  <g id="axes_6"/>
  <g id="axes_7">
   <g id="patch_7">
    <path d="M 105.344917 36.269168 
Q 103.727911 35.520555 102.290573 35.550499 
Q 100.523845 35.550499 99.610536 37.062699 
Q 98.697227 38.574898 98.697227 40.491349 
Q 98.697227 41.838854 99.415896 42.692274 
Q 100.134566 43.545693 101.48207 43.545693 
Q 102.440296 43.545693 103.45841 41.449575 
Q 104.476525 39.353457 105.045471 37.107616 
Q 105.614418 34.861774 105.614418 33.933494 
L 105.614418 36.718336 
Q 106.542699 41.898743 106.422921 51.810388 
Q 106.333087 59.715749 106.602588 59.715749 
Q 107.081701 59.715749 108.204621 57.589686 
Q 109.327542 55.463623 110.525323 52.67878 
Q 111.723105 49.893937 111.812939 49.744214 
L 111.902773 49.38488 
" clip-path="url(#pe9972eb3bb)" style="fill: none; stroke: #000000; stroke-linejoin: miter"/>
   </g>
  </g>
  <g id="axes_8">
   <g id="patch_8">
    <path d="M 117.957228 36.157407 
L 125.042772 36.157407 
M 121.443766 39.306538 
L 121.443766 47.516772 
" clip-path="url(#p6def4fc006)" style="fill: none; stroke: #000000; stroke-linejoin: miter"/>
   </g>
  </g>
  <g id="axes_9">
   <g id="patch_9">
    <path d="M 133.238731 37.282097 
L 133.238731 37.844441 
Q 133.501159 39.868883 133.538648 41.312234 
Q 133.576138 42.755586 133.482414 44.667559 
Q 133.38869 46.579531 133.38869 48.191586 
L 133.463669 39.643945 
Q 133.463669 38.144359 135.056979 37.507034 
Q 136.65029 36.86971 138.074897 37.282097 
Q 139.986869 37.844441 140.905366 39.04411 
Q 141.823862 40.243779 141.880097 41.668386 
Q 141.936331 43.092993 141.973821 44.817517 
Q 142.01131 46.542041 142.161269 48.191586 
" clip-path="url(#p610068c02a)" style="fill: none; stroke: #000000; stroke-linejoin: miter"/>
   </g>
  </g>
  <g id="axes_10">
   <g id="patch_10">
    <path d="M 158.687191 39.096404 
Q 158.43236 39.023596 157.46764 38.623146 
Q 156.502921 38.222697 155.84764 38.077079 
Q 155.19236 37.931461 154.537079 38.00427 
Q 151.915955 38.00427 150.277753 40.388764 
Q 148.639551 42.773258 148.639551 45.430787 
Q 148.639551 47.068989 153.881798 47.068989 
Q 155.447191 47.068989 156.775955 45.558202 
Q 158.104719 44.047416 158.778202 42.172584 
Q 159.451685 40.297753 159.451685 38.768764 
Q 159.451685 37.27618 159.415281 36.984944 
L 159.342472 38.077079 
Q 159.342472 38.550337 159.342472 38.987191 
Q 159.378876 40.188539 159.579101 42.281798 
Q 159.779326 44.375056 159.943146 46.049663 
Q 160.106966 47.72427 160.143371 49.872135 
Q 160.179775 52.02 160.015955 53.658202 
Q 159.852135 55.296404 159.287865 56.971011 
Q 158.723596 58.645618 157.795281 59.737753 
Q 156.866966 60.829888 155.265169 61.521573 
Q 153.663371 62.213258 151.515506 62.213258 
Q 149.877303 62.213258 148.785169 61.466966 
Q 147.693034 60.720674 147.693034 59.155281 
Q 147.620225 58.936854 147.656629 58.936854 
Q 147.693034 58.936854 147.802247 58.936854 
Q 147.911461 58.936854 147.911461 58.82764 
" clip-path="url(#p9ca2ebf6f6)" style="fill: none; stroke: #000000; stroke-linejoin: miter"/>
   </g>
  </g>
  <g id="axes_11">
   <g id="patch_11">
    <path d="M 173.699007 34.920248 
Q 172.836745 36.007448 169.725103 40.018841 
Q 166.613462 44.030234 164.926428 46.054676 
M 165.826179 36.044938 
Q 167.700662 37.319586 170.193724 40.843614 
Q 172.686786 44.367641 174.261352 45.6048 
L 175.273572 45.942207 
" clip-path="url(#p67a92630df)" style="fill: none; stroke: #000000; stroke-linejoin: miter"/>
   </g>
  </g>
  <g id="axes_12">
   <g id="patch_12">
    <path d="M 182.757228 36.157407 
L 189.842772 36.157407 
M 186.243766 39.306538 
L 186.243766 47.516772 
" clip-path="url(#pf5c04843aa)" style="fill: none; stroke: #000000; stroke-linejoin: miter"/>
   </g>
  </g>
  <g id="axes_13"/>
  <g id="axes_14">
   <g id="patch_13">
    <path d="M 222.299007 39.568966 
Q 220.949379 38.181848 218.7 38.444276 
Q 215.850786 38.444276 214.688607 39.793903 
Q 213.526428 41.143531 213.526428 44.067724 
Q 213.526428 45.56731 214.819821 46.279614 
Q 216.113214 46.991917 217.687779 46.991917 
Q 218.999917 46.991917 220.012138 45.736014 
Q 221.024359 44.48011 221.605448 42.30571 
Q 222.186538 40.13131 222.561434 37.938166 
Q 222.936331 35.745021 223.08629 33.045766 
Q 223.236248 30.34651 223.273738 28.978138 
Q 223.311228 27.609766 223.311228 26.185159 
Q 223.08629 26.260138 223.08629 29.896634 
L 223.08629 44.292662 
L 223.873572 48.229076 
" clip-path="url(#p85c4519bbd)" style="fill: none; stroke: #000000; stroke-linejoin: miter"/>
   </g>
  </g>
  <g id="axes_15">
   <g id="patch_14">
    <path d="M 228.657798 38.160826 
Q 231.630275 39.535596 236.349083 39.721376 
Q 237.872477 39.721376 238.559862 38.550963 
Q 239.247248 37.38055 239.247248 35.82 
Q 239.247248 35.299817 239.154358 34.909679 
Q 239.061468 34.519541 238.819954 34.296606 
Q 238.57844 34.07367 238.411239 33.943624 
Q 238.244037 33.813578 237.798165 33.757844 
Q 237.352294 33.70211 237.147936 33.683532 
Q 236.943578 33.664954 236.367661 33.683532 
Q 235.791743 33.70211 235.568807 33.70211 
Q 233.525229 33.70211 232.038991 35.578486 
Q 230.552752 37.454862 230.552752 39.609908 
Q 230.552752 42.619541 232.484862 44.570229 
Q 234.416972 46.520917 237.463761 46.520917 
Q 239.618807 46.818165 241.142202 44.29156 
" clip-path="url(#pe052683f63)" style="fill: none; stroke: #000000; stroke-linejoin: miter"/>
   </g>
  </g>
  <g id="axes_16"/>
  <g id="axes_17">
   <g id="patch_15">
    <path d="M 262.857476 43.917766 
Q 263.157393 44.180193 264.169614 45.154924 
Q 265.181834 46.129655 265.744179 46.560786 
Q 266.306524 46.991917 267.33749 47.385559 
Q 268.368455 47.7792 269.380676 47.629241 
Q 270.05549 47.629241 270.52411 47.404303 
Q 270.992731 47.179366 271.217669 46.879448 
Q 271.442607 46.579531 271.573821 45.979697 
Q 271.705034 45.379862 271.723779 44.967476 
Q 271.742524 44.55509 271.742524 43.805297 
Q 271.742524 42.718097 270.842772 42.043283 
Q 269.943021 41.368469 268.649628 41.031062 
Q 267.356234 40.693655 266.062841 40.300014 
Q 264.769448 39.906372 263.869697 38.987876 
Q 262.969945 38.069379 262.969945 36.607283 
Q 262.969945 36.082428 263.138648 35.726276 
Q 263.307352 35.370124 263.700993 35.145186 
Q 264.094634 34.920248 264.375807 34.807779 
Q 264.656979 34.69531 265.313048 34.639076 
Q 265.969117 34.582841 266.156566 34.582841 
Q 266.344014 34.582841 267.018828 34.582841 
Q 268.218497 34.582841 268.799586 34.995228 
Q 269.380676 35.407614 269.699338 36.026193 
Q 270.018 36.644772 270.280428 36.832221 
" clip-path="url(#p0527ec0410)" style="fill: none; stroke: #000000; stroke-linejoin: miter"/>
   </g>
  </g>
  <g id="axes_18">
   <g id="patch_16">
    <path d="M 279.957228 36.157407 
L 287.042772 36.157407 
M 283.443766 39.306538 
L 283.443766 47.516772 
" clip-path="url(#p6bbc168d65)" style="fill: none; stroke: #000000; stroke-linejoin: miter"/>
   </g>
  </g>
  <g id="axes_19">
   <g id="patch_17">
    <path d="M 299.306359 28.621986 
Q 299.531297 30.34651 299.606276 32.146014 
Q 299.681255 33.945517 299.66251 36.551048 
Q 299.643766 39.156579 299.643766 40.093821 
Q 299.643766 40.13131 299.868703 45.829738 
L 300.093641 46.841959 
" clip-path="url(#p2b0f76df37)" style="fill: none; stroke: #000000; stroke-linejoin: miter"/>
   </g>
  </g>
  <g id="axes_20">
   <g id="patch_18">
    <path d="M 313.163255 30.608938 
Q 314.287945 31.096303 315.712552 32.989531 
Q 317.137159 34.882759 317.662014 35.332634 
M 311.963586 38.706703 
Q 311.813628 38.819172 311.794883 39.025366 
Q 311.776138 39.231559 311.813628 39.475241 
Q 311.851117 39.718924 311.851117 39.831393 
Q 311.851117 40.993572 312.001076 42.155752 
Q 312.151034 43.317931 312.525931 44.742538 
Q 312.900828 46.167145 313.76309 47.048152 
Q 314.625352 47.929159 315.9 47.929159 
Q 317.287117 47.404303 317.905697 45.848483 
Q 318.524276 44.292662 318.767959 41.649641 
Q 319.011641 39.006621 319.1616 38.369297 
Q 319.648966 45.267393 319.686455 46.392083 
L 320.023862 48.079117 
" clip-path="url(#paa8332b435)" style="fill: none; stroke: #000000; stroke-linejoin: miter"/>
   </g>
  </g>
  <g id="axes_21">
   <g id="patch_19">
    <path d="M 331.987531 45.979697 
Q 331.950041 46.017186 331.818828 46.054676 
Q 331.687614 46.092166 331.725103 46.167145 
Q 331.725103 46.579531 332.1 46.579531 
Q 332.437407 46.579531 332.437407 46.092166 
Q 332.512386 45.867228 332.231214 45.754759 
Q 331.950041 45.64229 331.762593 45.754759 
" clip-path="url(#p5b70717a06)" style="fill: none; stroke: #000000; stroke-linejoin: miter"/>
   </g>
  </g>
 </g>
 <defs>
  <clipPath id="p1d3ef9de8a">
   <rect x="0" y="11.850612" width="16.2" height="47.938776"/>
  </clipPath>
  <clipPath id="p6807fdd4a9">
   <rect x="18.938979" y="8.64" width="10.722041" height="54.36"/>
  </clipPath>
  <clipPath id="p36dba14aa5">
   <rect x="34.464166" y="8.64" width="12.071669" height="54.36"/>
  </clipPath>
  <clipPath id="p6ed42f8287">
   <rect x="50.364248" y="8.64" width="12.671503" height="54.36"/>
  </clipPath>
  <clipPath id="pc633fbc9fd">
   <rect x="64.8" y="9.426742" width="16.2" height="52.786517"/>
  </clipPath>
  <clipPath id="pe9972eb3bb">
   <rect x="97.2" y="14.110203" width="16.2" height="43.419593"/>
  </clipPath>
  <clipPath id="p6def4fc006">
   <rect x="116.082745" y="8.64" width="10.83451" height="54.36"/>
  </clipPath>
  <clipPath id="p610068c02a">
   <rect x="131.364248" y="8.64" width="12.671503" height="54.36"/>
  </clipPath>
  <clipPath id="p9ca2ebf6f6">
   <rect x="145.8" y="9.426742" width="16.2" height="52.786517"/>
  </clipPath>
  <clipPath id="p67a92630df">
   <rect x="163.051945" y="8.64" width="14.09611" height="54.36"/>
  </clipPath>
  <clipPath id="pf5c04843aa">
   <rect x="180.882745" y="8.64" width="10.83451" height="54.36"/>
  </clipPath>
  <clipPath id="p85c4519bbd">
   <rect x="211.651945" y="8.64" width="14.09611" height="54.36"/>
  </clipPath>
  <clipPath id="pe052683f63">
   <rect x="226.8" y="8.881927" width="16.2" height="53.876147"/>
  </clipPath>
  <clipPath id="p0527ec0410">
   <rect x="260.982993" y="8.64" width="12.634014" height="54.36"/>
  </clipPath>
  <clipPath id="p6bbc168d65">
   <rect x="278.082745" y="8.64" width="10.83451" height="54.36"/>
  </clipPath>
  <clipPath id="p2b0f76df37">
   <rect x="297.431876" y="8.64" width="4.536248" height="54.36"/>
  </clipPath>
  <clipPath id="paa8332b435">
   <rect x="309.901655" y="8.64" width="11.99669" height="54.36"/>
  </clipPath>
  <clipPath id="p5b70717a06">
   <rect x="329.813131" y="8.64" width="4.573738" height="54.36"/>
  </clipPath>
 </defs>
</svg>
