<?xml version="1.0" encoding="utf-8" standalone="no"?>
<!DOCTYPE svg PUBLIC "-//W3C//DTD SVG 1.1//EN"
  "http://www.w3.org/Graphics/SVG/1.1/DTD/svg11.dtd">
<svg xmlns:xlink="http://www.w3.org/1999/xlink" width="220.5pt" height="72pt" viewBox="0 0 220.5 72" xmlns="http://www.w3.org/2000/svg" version="1.1">
 <metadata>
  <rdf:RDF xmlns:dc="http://purl.org/dc/elements/1.1/" xmlns:cc="http://creativecommons.org/ns#" xmlns:rdf="http://www.w3.org/1999/02/22-rdf-syntax-ns#">
   <cc:Work>
    <dc:type rdf:resource="http://purl.org/dc/dcmitype/StillImage"/>
    <dc:date>2023-02-06T22:06:07.727921</dc:date>
    <dc:format>image/svg+xml</dc:format>
    <dc:creator>
     <cc:Agent>
      <dc:title>Matplotlib v3.6.1, https://matplotlib.org/</dc:title>
     </cc:Agent>
    </dc:creator>
   </cc:Work>
  </rdf:RDF>
 </metadata>
 <defs>
  <style type="text/css">*{stroke-linejoin: round; stroke-linecap: butt}</style>
 </defs>
 <g id="figure_1">
  <g id="patch_1">
   <path d="M 0 72 
L 220.5 72 
L 220.5 0 
L 0 0 
z
" style="fill: #8fff9f"/>
  </g>
  <g id="axes_1">
   <g id="patch_2">
    <path d="M 9.025417 34.873787 
L 16.522336 34.873787 
M 8.697882 30.615828 
L 16.413158 30.50665 
M 1.819641 39.422888 
L 2.147176 39.422888 
Q 3.966816 39.56846 7.606098 39.131746 
L 23.473363 38.658639 
L 26.530359 38.913389 
M 18.669512 26.612619 
L 18.669512 48.302734 
M 9.243774 27.66801 
L 9.243774 39.131746 
M 5.859243 27.231297 
Q 6.98742 27.158511 9.189185 27.085725 
Q 11.39095 27.01294 13.046823 26.903761 
Q 14.702696 26.794583 16.922657 26.50344 
L 22.054044 26.285083 
" clip-path="url(#p090a2d2662)" style="fill: none; stroke: #000000; stroke-linejoin: miter"/>
   </g>
  </g>
  <g id="axes_2">
   <g id="patch_3">
    <path d="M 41.566233 38.888054 
Q 41.743236 39.596067 41.890739 43.401634 
L 41.97924 46.351686 
M 34.987617 46.440187 
Q 36.521644 46.233684 38.54243 46.174683 
Q 40.563215 46.115682 42.185744 46.174683 
Q 43.808273 46.233684 45.784807 46.174683 
L 49.236368 45.820676 
M 38.970187 42.693621 
L 45.076795 42.60512 
M 45.135796 37.590031 
Q 46.758325 40.33358 49.265869 41.970858 
Q 51.773413 43.608137 55.224974 44.581655 
M 37.701665 38.032539 
Q 36.433143 40.569584 34.427107 42.354365 
Q 32.421072 44.139147 29.825026 44.31615 
M 31.683559 37.855536 
Q 33.660094 37.442529 36.84615 37.457279 
Q 40.032206 37.472029 42.038241 37.413028 
L 47.61384 37.413028 
L 51.684912 36.882019 
M 34.958117 35.141488 
Q 36.049636 34.993985 40.976223 34.964485 
L 43.218262 34.964485 
L 47.200832 34.69898 
M 35.223621 32.545442 
L 36.905151 32.545442 
Q 37.701665 32.545442 39.220942 32.368439 
Q 40.740219 32.191436 41.507232 32.191436 
L 42.598751 32.191436 
L 47.731842 31.925931 
M 44.280281 30.480406 
L 44.280281 30.834412 
Q 44.280281 31.158918 44.545786 33.076452 
L 44.634287 36.764017 
M 38.144173 30.686909 
L 38.321176 37.059022 
M 40.091207 27.264849 
L 40.356712 27.264849 
Q 40.946722 27.264849 41.610484 27.943361 
Q 42.274246 28.621873 42.480749 28.739875 
L 43.011759 29.00538 
M 32.657076 30.1559 
L 40.179709 29.683892 
Q 41.005723 29.831394 42.584001 29.787144 
Q 44.162279 29.742893 44.973543 29.683892 
Q 45.784807 29.624891 47.348335 29.477388 
Q 48.911863 29.329886 49.737877 29.270884 
Q 50.062383 29.241384 50.873647 29.123382 
Q 51.684912 29.00538 52.127419 29.00538 
Q 51.891415 29.772393 51.861915 29.890395 
L 50.976899 31.099917 
M 33.276587 28.090864 
Q 33.306087 28.238366 33.291337 28.282617 
Q 33.276587 28.326868 33.173335 28.45962 
Q 33.070083 28.592373 33.011082 28.739875 
Q 32.834079 29.093881 32.568574 30.1559 
L 31.418054 32.102934 
L 31.152549 32.545442 
" clip-path="url(#p84ca3f1a1f)" style="fill: none; stroke: #000000; stroke-linejoin: miter"/>
   </g>
  </g>
  <g id="axes_3">
   <g id="patch_4">
    <path d="M 69.844034 43.317931 
Q 70.3314 43.167972 71.268641 43.111738 
Q 72.205883 43.055503 72.54329 42.980524 
L 78.729083 42.118262 
M 70.181441 38.781683 
L 70.518848 38.781683 
L 71.980945 38.781683 
L 77.716862 38.256828 
M 70.181441 34.920248 
L 70.406379 34.920248 
Q 71.643538 34.620331 74.061621 34.564097 
Q 76.479703 34.507862 77.491924 34.357903 
Q 80.678545 33.833048 81.728255 33.833048 
Q 81.653276 35.482593 81.840724 40.1688 
Q 82.028172 44.855007 81.878214 46.991917 
Q 81.803234 48.004138 81.690766 48.566483 
Q 81.578297 49.128828 81.428338 49.278786 
Q 81.278379 49.428745 81.015952 49.297531 
Q 80.753524 49.166317 80.509841 48.90389 
Q 80.266159 48.641462 79.853772 48.247821 
Q 79.441386 47.854179 79.06649 47.629241 
M 70.068972 34.245434 
L 70.068972 38.781683 
Q 70.068972 39.906372 70.012738 41.930814 
Q 69.956503 43.955255 69.956503 44.255172 
L 68.494407 49.428745 
M 81.615786 27.08491 
L 79.141469 30.458979 
M 75.355014 24.798041 
L 75.355014 28.059641 
L 75.355014 31.658648 
L 75.130076 33.795559 
M 68.044531 28.097131 
Q 69.506628 29.409269 69.881524 29.896634 
L 71.156172 31.208772 
M 65.345276 38.706703 
Q 65.195317 38.969131 64.632972 39.981352 
Q 64.070628 40.993572 63.864434 41.387214 
Q 63.658241 41.780855 63.208366 42.661862 
Q 62.75849 43.542869 62.552297 44.123959 
Q 62.346103 44.705048 62.102421 45.492331 
Q 61.858738 46.279614 61.746269 47.029407 
L 61.408862 48.154097 
M 59.721828 34.77029 
Q 59.834297 34.7328 59.96551 34.920248 
Q 60.096724 35.107697 60.171703 35.107697 
L 62.646021 36.344855 
M 61.746269 26.784993 
Q 64.8954 28.509517 65.682683 30.159062 
" clip-path="url(#pae43d550ab)" style="fill: none; stroke: #000000; stroke-linejoin: miter"/>
   </g>
  </g>
  <g id="axes_4">
   <g id="patch_5">
    <path d="M 106.579779 41.792302 
Q 107.464564 42.124096 109.012939 43.506573 
Q 110.561313 44.889051 111.556697 45.220845 
M 99.206567 43.30381 
L 95.446229 47.174746 
M 95.335631 40.059597 
L 95.778023 40.059597 
Q 98.542978 40.059597 103.446164 39.580338 
Q 108.34935 39.101079 110.229519 39.027347 
L 111.556697 38.916749 
M 102.819441 34.050429 
Q 102.930039 34.087295 103.003771 34.474389 
Q 103.077503 34.861482 103.151235 34.935215 
L 103.151235 38.916749 
Q 103.151235 40.50199 103.372432 43.672471 
Q 103.593628 46.842952 103.593628 48.428192 
Q 103.593628 48.870585 103.538329 48.925884 
Q 103.48303 48.981183 103.040637 48.981183 
Q 102.08212 48.759987 101.713459 48.520358 
Q 101.344798 48.280728 100.607477 47.506541 
M 99.132835 34.78775 
L 106.469181 33.681769 
M 102.229584 26.456021 
Q 103.114369 27.783199 104.146619 28.76015 
Q 105.178869 29.7371 106.653511 30.879948 
Q 108.128153 32.022796 109.049805 32.870715 
L 110.819376 33.57117 
M 102.524512 24.612718 
Q 100.791808 30.068895 95.888622 33.976697 
M 90.506177 33.497438 
Q 90.690507 33.755501 91.483127 34.769317 
Q 92.275748 35.783134 92.71814 36.42829 
Q 93.160533 37.073446 93.547627 38.031964 
Q 93.93472 38.990481 93.860988 39.690936 
Q 93.860988 40.465124 93.492328 40.723186 
Q 93.123667 40.981248 92.275748 40.981248 
L 90.94857 40.612588 
L 88.736606 39.543472 
M 86.893303 26.529753 
L 93.639792 26.271691 
Q 93.75039 26.787815 93.197399 27.709467 
Q 92.091417 29.55277 90.727373 32.391456 
L 90.616775 33.497438 
M 86.893303 26.972146 
Q 87.151365 27.193342 87.151365 28.041261 
Q 87.151365 28.889181 87.188231 29.257841 
Q 87.851821 31.801599 87.943986 35.230143 
Q 88.036151 38.658687 87.833388 42.972016 
Q 87.630624 47.285345 87.630624 48.833719 
" clip-path="url(#p508ea1489b)" style="fill: none; stroke: #000000; stroke-linejoin: miter"/>
   </g>
  </g>
  <g id="axes_5">
   <g id="patch_6">
    <path d="M 131.88 41.67 
Q 132.21 42.39 132.87 42.96 
Q 133.53 43.53 134.685 44.025 
Q 135.84 44.52 136.425 44.73 
Q 137.01 44.94 138.36 45.36 
L 140.25 45.81 
M 131.07 40.95 
Q 129.57 43.11 127.275 44.505 
Q 124.98 45.9 122.43 45.99 
M 124.32 41.31 
L 125.67 41.31 
Q 126.81 41.31 129.09 41.265 
Q 131.37 41.22 132.51 41.22 
Q 133.38 41.22 134.355 41.16 
Q 135.33 41.1 136.515 40.995 
Q 137.7 40.89 138.36 40.86 
M 131.37 37.68 
L 131.43 38.61 
Q 131.43 38.64 131.61 46.8 
M 133.2 36.93 
L 133.53 36.93 
L 134.67 36.93 
L 137.19 37.08 
M 132.39 33.12 
L 137.01 33.12 
L 137.01 33.36 
L 136.77 34.5 
L 136.53 37.41 
M 132.39 33.6 
Q 132.42 33.66 132.705 34.08 
Q 132.99 34.5 132.81 34.83 
L 133.05 37.02 
M 125.49 36.96 
L 130.02 36.87 
M 124.92 33.72 
L 125.07 33.72 
Q 125.61 33.66 128.31 33.63 
Q 128.4 33.63 128.865 33.525 
Q 129.33 33.42 129.63 33.435 
Q 129.93 33.45 129.93 33.72 
L 129.93 34.77 
L 129.78 36.87 
M 124.41 33.63 
Q 124.92 34.08 125.07 34.68 
L 125.64 37.11 
M 128.73 30.96 
L 129.45 30.96 
L 131.16 30.96 
L 133.83 31.11 
M 127.98 27.63 
Q 127.98 27.54 128.205 27.555 
Q 128.43 27.57 128.49 27.54 
Q 129.3 27.6 132.36 27.39 
Q 132.42 27.39 132.54 27.375 
Q 132.66 27.36 132.705 27.36 
Q 132.75 27.36 132.855 27.36 
Q 132.96 27.36 132.99 27.375 
Q 133.02 27.39 133.08 27.405 
Q 133.14 27.42 133.17 27.45 
Q 133.2 27.48 133.245 27.525 
Q 133.29 27.57 133.305 27.63 
Q 133.32 27.69 133.335 27.765 
Q 133.35 27.84 133.35 27.96 
Q 133.35 28.29 133.245 28.635 
Q 133.14 28.98 132.99 29.415 
Q 132.84 29.85 132.78 30.06 
L 132.6 30.63 
M 127.98 27.87 
L 129.03 30.3 
L 129.03 30.63 
M 115.26 36.21 
L 121.5 36.21 
L 122.4 36.3 
M 114.9 30.93 
Q 115.14 31.11 116.1 31.005 
Q 117.06 30.9 117.42 30.96 
Q 117.78 31.02 118.845 30.81 
Q 119.91 30.6 120.24 30.6 
Q 120.39 30.57 120.675 30.495 
Q 120.96 30.42 121.11 30.39 
Q 121.26 30.36 121.5 30.36 
Q 121.74 30.36 121.785 30.48 
Q 121.83 30.6 121.89 30.81 
Q 121.95 31.02 121.77 31.41 
Q 121.26 32.97 121.23 36.39 
M 115.08 31.11 
L 115.08 31.47 
L 115.08 32.01 
L 115.35 35.22 
L 115.44 36.3 
" clip-path="url(#p74ca656d5e)" style="fill: none; stroke: #000000; stroke-linejoin: miter"/>
   </g>
  </g>
  <g id="axes_6">
   <g id="patch_7">
    <path d="M 148.779744 42.189674 
L 157.492666 41.892643 
M 149.274796 45.952072 
L 149.670838 45.952072 
Q 150.297905 45.952072 150.990978 45.869563 
Q 151.684051 45.787055 152.52564 45.655041 
Q 153.367229 45.523027 153.829278 45.45702 
L 158.086729 45.358009 
M 149.076775 37.338161 
L 152.839173 37.338161 
Q 154.027299 37.338161 156.453056 37.14014 
Q 158.878813 36.942119 159.967928 36.942119 
Q 160.198952 36.942119 160.231956 37.008126 
Q 160.264959 37.074133 160.264959 37.305157 
Q 160.264959 37.371164 160.264959 37.437171 
Q 160.264959 38.625297 160.165949 41.034552 
Q 160.066938 43.443807 160.066938 44.664936 
Q 160.066938 44.79695 160.215454 45.473522 
Q 160.36397 46.150093 160.297963 46.546135 
Q 160.231956 46.942177 159.769907 46.942177 
Q 159.604889 46.942177 159.390367 46.826665 
Q 159.175844 46.711153 158.928318 46.546135 
Q 158.680792 46.381118 158.581781 46.348114 
L 158.185739 45.952072 
M 148.878754 37.338161 
L 149.076775 47.074191 
M 143.400175 35.15993 
L 143.796217 35.15993 
Q 158.449767 33.674773 168.449825 33.707776 
M 158.548778 28.295204 
Q 158.28475 28.526228 158.053725 28.806758 
Q 157.822701 29.087288 157.608178 29.483329 
Q 157.393655 29.879371 157.261641 30.126898 
Q 157.129627 30.374424 156.882101 30.885978 
Q 156.634575 31.397532 156.568568 31.562549 
Q 156.007509 32.684668 155.776484 33.344738 
L 155.578463 33.74078 
M 148.845751 29.68135 
L 149.142782 29.68135 
Q 149.175786 29.68135 150.429919 30.770466 
L 151.816065 32.354633 
M 145.974447 29.384319 
Q 146.172468 29.549336 146.717026 29.417322 
Q 147.261583 29.285308 147.459604 29.483329 
Q 148.581723 29.483329 149.78635 29.367817 
Q 150.990978 29.252305 152.476135 29.054284 
Q 153.961292 28.856263 154.78638 28.790256 
L 160.528987 28.394214 
L 162.212165 28.295204 
M 152.212107 26.414005 
L 154.390338 28.394214 
" clip-path="url(#p0ea67ab2fc)" style="fill: none; stroke: #000000; stroke-linejoin: miter"/>
   </g>
  </g>
  <g id="axes_7">
   <g id="patch_8">
    <path d="M 182.812903 36.94469 
Q 182.850393 37.019669 183.112821 37.263352 
Q 183.375248 37.507034 183.487717 37.619503 
Q 183.600186 37.731972 183.843869 38.013145 
Q 184.087552 38.294317 184.23751 38.463021 
Q 184.387469 38.631724 184.612407 38.931641 
Q 184.837345 39.231559 184.968559 39.437752 
Q 185.099772 39.643945 185.249731 39.943862 
Q 185.39969 40.243779 185.493414 40.487462 
Q 185.587138 40.731145 185.662117 41.012317 
Q 185.737097 41.29349 185.737097 41.555917 
Q 185.737097 42.118262 185.587138 42.605628 
Q 185.437179 43.092993 185.156007 43.636593 
Q 184.874834 44.180193 184.724876 44.592579 
L 183.600186 45.717269 
" clip-path="url(#p027436ca5a)" style="fill: none; stroke: #000000; stroke-linejoin: miter"/>
   </g>
  </g>
 </g>
 <defs>
  <clipPath id="p090a2d2662">
   <rect x="0" y="9.435212" width="28.35" height="52.769576"/>
  </clipPath>
  <clipPath id="p84ca3f1a1f">
   <rect x="28.35" y="14.432123" width="28.35" height="42.775754"/>
  </clipPath>
  <clipPath id="pae43d550ab">
   <rect x="57.847345" y="8.64" width="26.05531" height="54.36"/>
  </clipPath>
  <clipPath id="p508ea1489b">
   <rect x="85.05" y="9.092107" width="28.35" height="53.455787"/>
  </clipPath>
  <clipPath id="p74ca656d5e">
   <rect x="113.4" y="14.07" width="28.35" height="43.5"/>
  </clipPath>
  <clipPath id="p0ea67ab2fc">
   <rect x="141.75" y="11.892468" width="28.35" height="47.855064"/>
  </clipPath>
  <clipPath id="p027436ca5a">
   <rect x="180.938421" y="8.64" width="6.673159" height="54.36"/>
  </clipPath>
 </defs>
</svg>
