<?xml version="1.0" encoding="utf-8" standalone="no"?>
<!DOCTYPE svg PUBLIC "-//W3C//DTD SVG 1.1//EN"
  "http://www.w3.org/Graphics/SVG/1.1/DTD/svg11.dtd">
<svg xmlns:xlink="http://www.w3.org/1999/xlink" width="252pt" height="72pt" viewBox="0 0 252 72" xmlns="http://www.w3.org/2000/svg" version="1.1">
 <metadata>
  <rdf:RDF xmlns:dc="http://purl.org/dc/elements/1.1/" xmlns:cc="http://creativecommons.org/ns#" xmlns:rdf="http://www.w3.org/1999/02/22-rdf-syntax-ns#">
   <cc:Work>
    <dc:type rdf:resource="http://purl.org/dc/dcmitype/StillImage"/>
    <dc:date>2023-02-06T22:06:25.655603</dc:date>
    <dc:format>image/svg+xml</dc:format>
    <dc:creator>
     <cc:Agent>
      <dc:title>Matplotlib v3.6.1, https://matplotlib.org/</dc:title>
     </cc:Agent>
    </dc:creator>
   </cc:Work>
  </rdf:RDF>
 </metadata>
 <defs>
  <style type="text/css">*{stroke-linejoin: round; stroke-linecap: butt}</style>
 </defs>
 <g id="figure_1">
  <g id="patch_1">
   <path d="M 0 72 
L 252 72 
L 252 0 
L 0 0 
z
" style="fill: #8fff9f"/>
  </g>
  <g id="axes_1">
   <g id="patch_2">
    <path d="M 14.905284 38.628785 
L 14.905284 38.965839 
Q 15.804095 41.549921 18.2571 44.040376 
Q 20.710106 46.530832 23.106935 47.392193 
L 24.679855 47.841598 
M 8.239102 38.21683 
L 8.463804 38.21683 
Q 12.695707 38.21683 17.695343 37.561446 
Q 22.69498 36.906063 26.477477 36.793712 
M 10.411229 33.161017 
L 20.859908 32.187305 
L 19.174637 37.243118 
M 15.242338 25.633474 
L 15.35469 25.970528 
Q 15.541942 34.584135 13.856671 40.220429 
Q 12.1714 45.856724 7.752246 48.515707 
M 6.141876 35.370594 
Q 4.606407 40.239155 2.209577 43.684597 
L 1.872523 44.358705 
M 2.658983 28.51716 
L 6.366579 31.438296 
L 6.591281 31.550647 
" clip-path="url(#p7fc32a13b8)" style="fill: none; stroke: #000000; stroke-linejoin: miter"/>
   </g>
  </g>
  <g id="axes_2">
   <g id="patch_3">
    <path d="M 34.618696 39.72913 
Q 44.902174 48.603913 54.93913 48.286957 
M 35.393478 36.841304 
Q 34.935652 38.989565 33.597391 41.736522 
Q 32.25913 44.483478 30.850435 46.173913 
L 30.11087 46.596522 
M 40.993043 38.778261 
L 45.007826 38.25 
M 40.993043 33.706957 
L 40.993043 44.06087 
M 36.555652 34.023913 
L 36.872609 34.023913 
Q 38.140435 34.023913 39.637174 33.830217 
Q 41.133913 33.636522 42.982826 33.301957 
Q 44.831739 32.967391 45.747391 32.861739 
M 39.83087 25.43087 
Q 40.394348 25.606957 41.327609 26.328913 
Q 42.26087 27.05087 42.683478 27.226957 
M 32.329565 29.727391 
L 36.344348 29.727391 
Q 37.893913 29.797826 39.760435 29.621739 
Q 41.626957 29.445652 42.894783 29.234348 
Q 44.162609 29.023043 46.381304 28.582826 
Q 48.6 28.142609 49.55087 27.966522 
Q 52.262609 27.05087 52.156957 28.107391 
Q 52.156957 28.459565 51.769565 29.023043 
Q 51.69913 29.163913 51.558261 29.48087 
Q 51.417391 29.797826 51.329348 30.026739 
Q 51.241304 30.255652 51.241304 30.502174 
M 32.963478 28.036957 
Q 31.906957 30.220435 31.801304 30.678261 
L 30.850435 32.157391 
" clip-path="url(#p4d108ee543)" style="fill: none; stroke: #000000; stroke-linejoin: miter"/>
   </g>
  </g>
  <g id="axes_3">
   <g id="patch_4">
    <path d="M 73.293083 34.020497 
L 73.293083 34.357903 
Q 73.293083 37.881931 75.148821 39.981352 
Q 77.004559 42.080772 80.603566 43.355421 
L 81.728255 43.46789 
M 72.843207 33.68309 
Q 72.393331 35.670041 71.512324 37.544524 
Q 70.631317 39.419007 69.094241 40.974828 
Q 67.557166 42.530648 65.757662 42.793076 
M 73.180614 24.91051 
L 72.730738 48.416524 
M 65.9826 33.908028 
L 77.679372 33.795559 
L 79.591345 33.458152 
L 82.065662 33.008276 
M 64.295566 31.546179 
L 63.958159 35.707531 
L 63.733221 45.379862 
L 63.620752 46.392083 
L 63.283345 48.191586 
M 66.544945 25.135448 
L 65.645193 28.397048 
L 65.082848 29.746676 
L 63.620752 31.996055 
L 60.921497 34.582841 
L 59.684338 35.370124 
" clip-path="url(#pf3e50fafe3)" style="fill: none; stroke: #000000; stroke-linejoin: miter"/>
   </g>
  </g>
  <g id="axes_4">
   <g id="patch_5">
    <path d="M 108.728628 42.568138 
L 111.352903 44.592579 
M 99.168766 44.105214 
Q 99.356214 44.067724 99.618641 44.536345 
Q 99.881069 45.004966 100.293455 44.667559 
L 101.755552 46.129655 
M 91.595855 43.767807 
Q 97.63169 49.766152 107.678917 49.053848 
Q 107.941345 49.053848 108.241262 48.960124 
Q 108.541179 48.8664 108.766117 48.735186 
Q 108.991055 48.603972 109.178503 48.491503 
L 109.365952 48.379034 
L 107.903855 46.804469 
M 89.796352 43.655338 
L 89.796352 43.992745 
Q 89.796352 44.48011 89.515179 45.0612 
Q 89.234007 45.64229 88.802876 46.354593 
Q 88.371745 47.066897 88.221786 47.366814 
L 87.097097 48.491503 
M 99.206255 24.685572 
Q 98.906338 25.172938 98.493952 25.604069 
Q 98.081566 26.0352 97.875372 26.203903 
Q 97.669179 26.372607 96.956876 26.897462 
Q 96.244572 27.422317 96.094614 27.534786 
Q 96.019634 27.647255 95.588503 28.022152 
Q 95.157372 28.397048 95.082393 28.659476 
M 93.057952 37.9944 
L 100.143497 37.769462 
L 101.718062 37.544524 
M 93.507828 33.495641 
L 94.070172 33.495641 
Q 94.894945 33.495641 96.638214 33.401917 
Q 98.381483 33.308193 99.243745 33.308193 
L 100.705841 33.308193 
L 101.380655 32.970786 
M 93.620297 42.080772 
L 94.070172 42.080772 
Q 94.3326 42.118262 94.857455 42.024538 
Q 95.38231 41.930814 95.644738 41.968303 
Q 96.207083 42.043283 97.781648 41.630897 
L 102.580324 41.968303 
M 93.170421 28.884414 
Q 98.981317 28.322069 104.417317 28.659476 
L 104.15489 43.205462 
Q 104.267359 43.39291 104.267359 43.4304 
Q 104.267359 43.39291 103.817483 43.317931 
L 102.242917 42.080772 
M 93.620297 28.771945 
L 93.620297 29.109352 
Q 93.620297 29.146841 93.732766 30.34651 
L 93.620297 43.542869 
" clip-path="url(#pa95d42f762)" style="fill: none; stroke: #000000; stroke-linejoin: miter"/>
   </g>
  </g>
  <g id="axes_5">
   <g id="patch_6">
    <path d="M 115.116102 34.687373 
L 115.630932 34.687373 
Q 119.783898 34.344153 127.815254 34.395636 
Q 135.84661 34.447119 140.033898 34.172542 
" clip-path="url(#p7a0637c8c2)" style="fill: none; stroke: #000000; stroke-linejoin: miter"/>
   </g>
  </g>
  <g id="axes_6">
   <g id="patch_7">
    <path d="M 160.423759 43.242952 
Q 160.536228 43.46789 160.77991 43.974 
Q 161.023593 44.48011 161.173552 44.780028 
Q 161.32351 45.079945 161.473469 45.529821 
Q 161.623428 45.979697 161.660917 46.392083 
L 162.4482 48.304055 
M 154.350434 38.969131 
L 154.350434 39.194069 
Q 153.7506 40.393738 152.307248 42.436924 
Q 150.863897 44.48011 150.638959 44.817517 
Q 149.43929 46.692 149.289331 46.841959 
L 157.949441 45.829738 
L 161.435979 45.379862 
M 148.502048 39.868883 
Q 151.013855 39.0816 156.243662 38.912897 
Q 161.473469 38.744193 162.4482 38.631724 
L 163.347952 38.294317 
M 152.775869 35.707531 
Q 152.888338 35.670041 153.24449 35.613807 
Q 153.600641 35.557572 153.78809 35.482593 
L 157.612034 35.032717 
M 154.575372 26.859972 
Q 159.711455 33.045766 164.247703 34.807779 
L 165.147455 35.482593 
M 155.062738 25.022979 
Q 154.762821 25.660303 153.881814 27.62851 
Q 153.000807 29.596717 152.288503 30.852621 
Q 151.5762 32.108524 150.638959 33.233214 
L 148.052172 35.707531 
L 146.702545 36.269876 
" clip-path="url(#p68a8fde3e6)" style="fill: none; stroke: #000000; stroke-linejoin: miter"/>
   </g>
  </g>
  <g id="axes_7">
   <g id="patch_8">
    <path d="M 181.54157 27.784015 
L 181.631191 39.4347 
Q 181.690938 40.898504 182.079294 41.884331 
Q 182.46765 42.870158 183.423604 43.55725 
Q 183.901581 44.214468 184.499052 44.513203 
Q 185.096523 44.811939 186.067413 44.99118 
Q 187.038303 45.170421 187.456533 45.319789 
Q 189.78667 45.708145 191.847945 45.439283 
Q 193.939094 45.648398 195.447708 44.617761 
Q 196.956322 43.587123 196.777081 41.495975 
M 177.150158 29.038704 
L 177.239779 34.505564 
Q 177.150158 38.060516 175.746101 41.24205 
Q 174.342044 44.423583 171.593678 45.947134 
" clip-path="url(#pef2734f8da)" style="fill: none; stroke: #000000; stroke-linejoin: miter"/>
   </g>
  </g>
  <g id="axes_8">
   <g id="patch_9">
    <path d="M 213.093621 42.043283 
Q 213.093621 42.043283 212.306338 42.043283 
Q 211.294117 42.043283 210.675538 42.811821 
Q 210.056959 43.580359 210.056959 44.630069 
Q 210.019469 45.679779 210.750517 46.260869 
Q 211.481566 46.841959 212.531276 46.65451 
Q 212.831193 46.617021 213.318559 46.579531 
Q 213.805924 46.542041 214.068352 46.504552 
Q 214.330779 46.467062 214.649441 46.317103 
Q 214.968103 46.167145 215.099317 45.810993 
Q 215.230531 45.454841 215.230531 44.855007 
Q 215.230531 44.592579 215.118062 44.330152 
Q 215.005593 44.067724 214.818145 43.749062 
Q 214.630697 43.4304 214.555717 43.280441 
L 213.431028 42.605628 
" clip-path="url(#pae8fdaae89)" style="fill: none; stroke: #000000; stroke-linejoin: miter"/>
   </g>
  </g>
 </g>
 <defs>
  <clipPath id="p7fc32a13b8">
   <rect x="0" y="8.668415" width="28.35" height="54.30317"/>
  </clipPath>
  <clipPath id="p4d108ee543">
   <rect x="28.35" y="10.287391" width="28.35" height="51.065217"/>
  </clipPath>
  <clipPath id="pf3e50fafe3">
   <rect x="57.809855" y="8.64" width="26.13029" height="54.36"/>
  </clipPath>
  <clipPath id="pa95d42f762">
   <rect x="85.222614" y="8.64" width="28.004772" height="54.36"/>
  </clipPath>
  <clipPath id="p7a0637c8c2">
   <rect x="113.4" y="10.936525" width="28.35" height="49.766949"/>
  </clipPath>
  <clipPath id="p68a8fde3e6">
   <rect x="144.828062" y="8.64" width="22.193876" height="54.36"/>
  </clipPath>
  <clipPath id="pef2734f8da">
   <rect x="170.1" y="14.161675" width="28.35" height="43.316649"/>
  </clipPath>
  <clipPath id="pae8fdaae89">
   <rect x="208.144986" y="8.64" width="8.960028" height="54.36"/>
  </clipPath>
 </defs>
</svg>
