<?xml version="1.0" encoding="utf-8" standalone="no"?>
<!DOCTYPE svg PUBLIC "-//W3C//DTD SVG 1.1//EN"
  "http://www.w3.org/Graphics/SVG/1.1/DTD/svg11.dtd">
<svg xmlns:xlink="http://www.w3.org/1999/xlink" width="283.5pt" height="72pt" viewBox="0 0 283.5 72" xmlns="http://www.w3.org/2000/svg" version="1.1">
 <metadata>
  <rdf:RDF xmlns:dc="http://purl.org/dc/elements/1.1/" xmlns:cc="http://creativecommons.org/ns#" xmlns:rdf="http://www.w3.org/1999/02/22-rdf-syntax-ns#">
   <cc:Work>
    <dc:type rdf:resource="http://purl.org/dc/dcmitype/StillImage"/>
    <dc:date>2023-02-06T22:06:10.920360</dc:date>
    <dc:format>image/svg+xml</dc:format>
    <dc:creator>
     <cc:Agent>
      <dc:title>Matplotlib v3.6.1, https://matplotlib.org/</dc:title>
     </cc:Agent>
    </dc:creator>
   </cc:Work>
  </rdf:RDF>
 </metadata>
 <defs>
  <style type="text/css">*{stroke-linejoin: round; stroke-linecap: butt}</style>
 </defs>
 <g id="figure_1">
  <g id="patch_1">
   <path d="M 0 72 
L 283.5 72 
L 283.5 0 
L 0 0 
z
" style="fill: #8fff9f"/>
  </g>
  <g id="axes_1">
   <g id="patch_2">
    <path d="M 9.095472 44.768771 
Q 10.452458 44.365343 13.496507 44.200304 
Q 16.540556 44.035265 17.787516 43.778538 
L 26.516235 43.99859 
M 12.946378 35.489922 
L 20.208085 34.866442 
M 13.496507 40.367736 
L 22.298577 40.147684 
M 12.6163 30.75881 
Q 12.322898 30.428732 12.396248 30.428732 
Q 12.432924 30.428732 12.652975 30.502083 
Q 12.836352 30.575433 12.836352 30.538758 
L 13.936611 30.538758 
Q 15.330272 30.538758 18.410996 29.988629 
Q 21.491721 29.438499 22.848706 29.438499 
Q 23.032083 29.438499 23.05042 29.493512 
Q 23.068758 29.548525 23.068758 29.768577 
Q 23.068758 30.428732 22.958732 31.217251 
Q 22.848706 32.00577 22.66533 32.959327 
Q 22.481953 33.912885 22.408603 34.389664 
L 22.298577 39.157451 
L 22.078525 40.367736 
M 12.6163 30.538758 
L 12.6163 31.088887 
L 12.6163 32.849301 
L 13.276455 40.25771 
M 5.464618 31.785718 
Q 5.61132 32.519224 5.831371 34.077924 
Q 6.051423 35.636624 6.234799 36.406805 
L 6.051423 47.73947 
M 8.655369 26.94458 
L 8.655369 27.274657 
Q 8.655369 28.448266 7.665136 29.841928 
Q 6.674903 31.235589 5.134541 32.794288 
Q 3.594179 34.352988 3.154075 34.976468 
L 1.833765 35.966701 
" clip-path="url(#p1663ecd658)" style="fill: none; stroke: #000000; stroke-linejoin: miter"/>
   </g>
  </g>
  <g id="axes_2">
   <g id="patch_3">
    <path d="M 36.50791 39.868883 
Q 39.094697 42.38069 42.618724 43.955255 
Q 46.142752 45.529821 49.891717 45.942207 
L 53.490724 45.867228 
M 37.295193 38.444276 
L 37.295193 38.781683 
Q 37.182724 39.0816 36.676614 40.412483 
Q 36.170503 41.743366 35.96431 42.211986 
Q 35.758117 42.680607 35.233262 43.767807 
Q 34.708407 44.855007 34.277276 45.398607 
Q 33.846145 45.942207 33.152586 46.635766 
Q 32.459028 47.329324 31.671745 47.7792 
M 42.243828 39.568966 
L 42.468766 39.568966 
Q 48.279662 39.568966 48.767028 39.419007 
L 49.779248 39.306538 
M 42.131359 36.532303 
L 42.243828 42.830566 
M 30.434586 37.207117 
L 31.221869 37.207117 
Q 32.871414 37.207117 34.689662 37.000924 
Q 36.50791 36.794731 38.75729 36.457324 
Q 41.006669 36.119917 42.243828 35.969959 
L 54.615414 34.957738 
M 34.745897 33.495641 
Q 40.406834 32.52091 40.93169 32.445931 
L 44.530697 31.996055 
M 34.071083 30.34651 
L 44.380738 29.596717 
M 34.183552 27.872193 
Q 35.195772 27.872193 38.794779 27.497297 
Q 42.393786 27.1224 43.480986 27.1224 
Q 44.11831 27.1224 44.511952 27.253614 
Q 44.905593 27.384828 45.149276 27.572276 
Q 45.392959 27.759724 45.505428 27.797214 
L 45.055552 32.52091 
M 33.621207 27.647255 
L 33.621207 28.097131 
Q 33.883634 28.771945 33.921124 30.646428 
Q 33.958614 32.52091 34.520959 33.383172 
" clip-path="url(#pb5a1e6fb5e)" style="fill: none; stroke: #000000; stroke-linejoin: miter"/>
   </g>
  </g>
  <g id="axes_3">
   <g id="patch_4">
    <path d="M 72.873644 37.572657 
Q 74.134328 38.495108 75.471882 40.017153 
Q 76.809436 41.539197 77.716513 42.692261 
Q 78.62359 43.845325 80.145634 44.829273 
Q 81.667679 45.813221 83.512581 46.059208 
M 77.885629 32.499176 
Q 77.639642 34.128839 77.209165 35.835374 
Q 76.778688 37.541909 76.071475 39.432934 
Q 75.364262 41.323959 74.226573 42.799881 
Q 73.088883 44.275803 71.735954 44.860022 
M 74.810792 32.960401 
Q 75.518004 32.775911 76.901681 32.51455 
Q 78.285358 32.253189 79.392299 31.961079 
Q 80.499241 31.66897 81.360195 31.238492 
M 76.009978 27.056714 
L 76.009978 27.425694 
Q 76.009978 28.532636 75.656372 29.608829 
Q 75.302766 30.685022 74.718547 31.945705 
Q 74.134328 33.206388 73.888341 33.975098 
L 72.043438 36.373471 
M 63.556887 38.433612 
L 63.833623 38.433612 
Q 64.44859 38.433612 65.10968 38.925586 
Q 65.77077 39.41756 66.493357 40.155521 
Q 67.215944 40.893482 67.523427 41.10872 
L 68.353633 42.400152 
M 67.892408 37.603406 
Q 66.846963 39.386811 65.063557 41.431578 
Q 63.280152 43.476345 61.80423 44.368048 
L 61.435249 44.644783 
M 67.707918 34.49782 
Q 67.861659 34.651562 68.292137 35.035916 
Q 68.722614 35.420271 68.953227 35.63551 
Q 69.183839 35.850748 69.475949 36.173606 
Q 69.768059 36.496464 69.9218 36.803948 
M 62.94192 35.051291 
L 62.94192 35.328026 
Q 61.865727 38.218373 59.805586 39.017831 
M 58.237419 33.944349 
L 59.067625 33.944349 
Q 60.051573 33.944349 61.173888 33.882852 
Q 62.296204 33.821356 63.679881 33.713736 
Q 65.063557 33.606117 65.801518 33.575369 
L 71.705206 32.652918 
M 65.432538 29.608829 
Q 65.58628 29.824067 65.878389 30.208422 
Q 66.170499 30.592777 66.416486 30.915634 
Q 66.662473 31.238492 66.90846 31.453731 
" clip-path="url(#pd6397e8cb9)" style="fill: none; stroke: #000000; stroke-linejoin: miter"/>
   </g>
  </g>
  <g id="axes_4">
   <g id="patch_5">
    <path d="M 98.500459 37.417706 
Q 101.993119 41.579174 104.092431 42.898211 
Q 106.191743 44.217248 111.059174 45.331927 
M 98.054587 37.194771 
Q 96.754128 39.68422 95.063532 41.374817 
Q 93.372936 43.065413 89.991743 45.071835 
L 87.427982 46.372294 
M 86.907798 37.306239 
L 87.242202 37.306239 
Q 90.772018 37.306239 94.840596 37.139037 
Q 98.909174 36.971835 103.906651 36.693165 
Q 108.904128 36.414495 111.542202 36.303028 
M 98.054587 32.958991 
L 98.054587 49.010367 
M 98.054587 26.531009 
L 98.054587 31.992936 
M 93.930275 29.317706 
L 101.733028 29.206239 
M 93.112844 32.513119 
L 103.070642 32.290183 
M 91.738073 25.60211 
Q 92.592661 25.564954 94.580505 25.490642 
Q 96.568349 25.41633 97.850229 25.360596 
Q 99.13211 25.304862 100.822706 25.137661 
Q 102.513303 24.970459 103.73945 24.747523 
Q 103.813761 24.747523 103.850917 24.951881 
Q 103.888073 25.156239 103.850917 25.342018 
L 103.850917 25.527798 
Q 103.850917 25.564954 103.516514 28.425963 
L 102.959174 33.51633 
M 91.626606 24.933303 
L 91.626606 26.15945 
L 92.369725 28.537431 
L 92.889908 33.850734 
" clip-path="url(#pb9ba9a6fe3)" style="fill: none; stroke: #000000; stroke-linejoin: miter"/>
   </g>
  </g>
  <g id="axes_5">
   <g id="patch_6">
    <path d="M 114.976752 37.396752 
Q 125.036429 36.387631 132.478699 36.608376 
Q 133.109399 36.608376 133.882008 36.608376 
Q 134.654616 36.608376 134.938432 36.608376 
Q 135.222247 36.608376 135.821413 36.655679 
Q 136.420578 36.702981 137.335095 36.797586 
Q 137.587375 36.860656 138.628031 36.939494 
Q 139.668687 37.018331 140.173248 37.270612 
M 130.113571 31.247419 
L 130.113571 45.343582 
L 129.92436 46.951869 
M 123.964238 31.62584 
Q 123.932703 31.720445 123.948471 32.098865 
Q 123.964238 32.477286 123.964238 32.571891 
Q 123.964238 36.892191 122.955117 39.288854 
Q 121.945996 41.685517 119.233982 44.492136 
L 118.193326 45.059766 
M 131.658788 26.643304 
Q 131.217297 27.99931 129.92436 28.756151 
L 128.978309 29.702202 
M 120.558454 27.99931 
Q 120.653059 28.093915 121.315295 28.661546 
Q 121.977531 29.229177 122.261346 29.449922 
Q 122.545161 29.670667 123.112792 30.017553 
Q 123.680423 30.364438 124.153448 30.553648 
M 119.707008 31.310489 
L 127.559232 30.932069 
L 134.181591 31.026674 
" clip-path="url(#pff6e8debd4)" style="fill: none; stroke: #000000; stroke-linejoin: miter"/>
   </g>
  </g>
  <g id="axes_6">
   <g id="patch_7">
    <path d="M 157.893207 29.859145 
Q 159.7302 31.396221 161.492214 32.333462 
L 163.291717 33.008276 
M 155.306421 29.746676 
Q 155.718807 31.771117 155.793786 34.395393 
Q 155.868766 37.019669 155.756297 39.100345 
Q 155.643828 41.181021 155.756297 43.805297 
L 156.093703 46.054676 
M 157.668269 25.022979 
Q 156.806007 26.747503 156.374876 27.553531 
Q 155.943745 28.359559 155.006503 29.915379 
Q 154.069262 31.4712 153.300724 32.352207 
Q 152.532186 33.233214 151.388752 34.1892 
Q 150.245317 35.145186 149.008159 35.707531 
M 144.284462 26.260138 
Q 145.521621 26.0352 146.758779 25.847752 
Q 147.995938 25.660303 149.4018 25.510345 
Q 150.807662 25.360386 151.894862 25.229172 
Q 152.982062 25.097959 154.594117 24.98549 
Q 156.206172 24.873021 157.105924 24.798041 
Q 158.005676 24.723062 159.823924 24.629338 
Q 161.642172 24.535614 162.316986 24.498124 
Q 162.9918 24.460634 165.016241 24.36691 
Q 167.040683 24.273186 167.565538 24.235697 
" clip-path="url(#p9105033faa)" style="fill: none; stroke: #000000; stroke-linejoin: miter"/>
   </g>
  </g>
  <g id="axes_7">
   <g id="patch_8">
    <path d="M 180.067055 47.140198 
Q 181.91525 46.513132 185.496129 45.820058 
Q 189.077008 45.126985 190.166123 44.862957 
L 196.799825 44.169884 
M 184.126484 40.407485 
L 184.324505 40.407485 
Q 184.819558 40.407485 185.545634 40.242468 
Q 186.271711 40.077451 187.179307 39.796921 
Q 188.086903 39.516391 188.482945 39.417381 
L 193.235448 39.120349 
M 188.482945 28.427218 
L 188.680966 44.565925 
M 186.007683 32.189616 
L 189.47305 31.694563 
L 191.750291 31.496542 
M 183.829453 35.853003 
L 192.938417 35.06092 
M 182.641327 28.82326 
L 183.13638 28.82326 
Q 184.423516 28.92227 186.783265 28.625239 
Q 189.143015 28.328207 190.166123 28.328207 
Q 190.595169 28.328207 191.403754 28.130186 
Q 192.21234 27.932165 192.641385 27.932165 
L 193.136438 27.932165 
Q 193.235448 27.932165 193.416967 27.88266 
Q 193.598487 27.833155 193.730501 27.833155 
Q 193.928522 27.833155 193.928522 28.097183 
L 193.928522 28.130186 
Q 193.928522 28.394214 193.747002 28.872765 
Q 193.565483 29.351315 193.284953 29.945378 
Q 193.004424 30.539441 192.938417 30.704459 
L 192.542375 35.06092 
M 182.542317 28.724249 
Q 182.674331 28.889267 182.905355 29.483329 
Q 183.13638 30.077392 183.433411 30.308417 
L 184.819558 34.466857 
M 175.611583 29.912375 
Q 175.611583 30.044389 175.611583 31.694563 
Q 175.611583 33.509756 175.545576 35.605477 
Q 175.479569 37.701199 175.364057 40.25897 
Q 175.248545 42.81674 175.215541 44.169884 
M 171.750175 45.622037 
Q 172.410244 45.225995 174.786496 44.433912 
Q 177.162747 43.641828 177.987835 42.585716 
L 180.463097 41.001548 
M 172.83929 37.041129 
Q 173.664377 37.107136 174.324447 36.645087 
Q 174.786496 36.315052 176.106636 36.150035 
L 178.581898 35.555972 
L 179.17596 35.15993 
M 172.9383 30.704459 
L 173.235332 30.704459 
Q 173.928405 30.704459 174.786496 30.506438 
Q 175.644587 30.308417 176.700698 29.978382 
Q 177.75681 29.648347 178.284866 29.516333 
L 179.07695 29.417322 
" clip-path="url(#p1162cbfa6d)" style="fill: none; stroke: #000000; stroke-linejoin: miter"/>
   </g>
  </g>
  <g id="axes_8">
   <g id="patch_9">
    <path d="M 222.175307 41.426648 
Q 222.650447 41.458324 223.188939 42.076006 
Q 223.72743 42.693687 224.075866 42.820391 
L 225.216201 43.707318 
M 211.247095 40.286313 
Q 211.310447 40.666425 211.896453 41.141564 
Q 212.482458 41.616704 212.577486 41.996816 
L 213.432737 42.566983 
M 205.165307 41.521676 
Q 207.287598 44.499218 210.898659 45.687067 
Q 214.509721 46.874916 218.659274 46.558156 
Q 219.007709 46.558156 219.704581 46.463128 
Q 220.401453 46.368101 220.749888 46.368101 
Q 219.387821 44.847654 219.229441 44.657598 
L 217.994078 42.662011 
M 203.359777 41.616704 
Q 202.821285 41.838436 201.855168 43.216341 
Q 200.88905 44.594246 200.508939 44.942682 
L 200.033799 45.227765 
M 214.287989 35.534916 
L 219.641229 35.218156 
M 213.717821 31.353687 
L 218.84933 31.131955 
L 219.704581 31.036927 
M 214.002905 38.57581 
L 222.080279 38.385754 
M 213.527765 27.55257 
Q 216.758715 27.425866 220.464804 26.982402 
Q 220.844916 26.950726 221.05081 27.061592 
Q 221.256704 27.172458 221.304218 27.47338 
Q 221.351732 27.774302 221.335894 28.059385 
Q 221.320056 28.344469 221.272542 28.803771 
Q 221.225028 29.263073 221.225028 29.548156 
L 221.225028 34.679665 
L 221.700168 39.05095 
M 213.242682 27.647598 
Q 213.496089 28.629553 213.749497 30.54595 
Q 214.002905 32.462346 214.192961 33.349274 
L 214.383017 38.480782 
M 207.129218 33.159218 
Q 207.35095 33.475978 208.031983 33.776899 
Q 208.713017 34.077821 208.934749 34.394581 
L 209.980056 35.154804 
M 206.55905 30.403408 
Q 206.432346 32.937486 205.387039 34.473771 
Q 204.341732 36.010056 202.282793 37.435475 
L 200.382235 38.860894 
M 200.572291 30.403408 
L 211.975642 29.801564 
M 206.844134 26.507263 
L 206.654078 36.010056 
L 206.368994 38.765866 
Q 206.242291 38.385754 206.178939 38.89257 
Q 206.178939 39.019274 206.178939 39.20933 
Q 206.178939 39.177654 206.178939 39.145978 
" clip-path="url(#p940b4ac85d)" style="fill: none; stroke: #000000; stroke-linejoin: miter"/>
   </g>
  </g>
  <g id="axes_9">
   <g id="patch_10">
    <path d="M 241.443621 42.043283 
Q 241.443621 42.043283 240.656338 42.043283 
Q 239.644117 42.043283 239.025538 42.811821 
Q 238.406959 43.580359 238.406959 44.630069 
Q 238.369469 45.679779 239.100517 46.260869 
Q 239.831566 46.841959 240.881276 46.65451 
Q 241.181193 46.617021 241.668559 46.579531 
Q 242.155924 46.542041 242.418352 46.504552 
Q 242.680779 46.467062 242.999441 46.317103 
Q 243.318103 46.167145 243.449317 45.810993 
Q 243.580531 45.454841 243.580531 44.855007 
Q 243.580531 44.592579 243.468062 44.330152 
Q 243.355593 44.067724 243.168145 43.749062 
Q 242.980697 43.4304 242.905717 43.280441 
L 241.781028 42.605628 
" clip-path="url(#pfbc60b8cc3)" style="fill: none; stroke: #000000; stroke-linejoin: miter"/>
   </g>
  </g>
 </g>
 <defs>
  <clipPath id="p1663ecd658">
   <rect x="0" y="9.230414" width="28.35" height="53.179172"/>
  </clipPath>
  <clipPath id="pb5a1e6fb5e">
   <rect x="28.560103" y="8.64" width="27.929793" height="54.36"/>
  </clipPath>
  <clipPath id="pd6397e8cb9">
   <rect x="56.7" y="13.52743" width="28.35" height="44.585141"/>
  </clipPath>
  <clipPath id="pb9ba9a6fe3">
   <rect x="85.05" y="8.881927" width="28.35" height="53.876147"/>
  </clipPath>
  <clipPath id="pff6e8debd4">
   <rect x="113.4" y="12.957097" width="28.35" height="45.725806"/>
  </clipPath>
  <clipPath id="p9105033faa">
   <rect x="142.409979" y="8.64" width="27.030041" height="54.36"/>
  </clipPath>
  <clipPath id="p1162cbfa6d">
   <rect x="170.1" y="11.892468" width="28.35" height="47.855064"/>
  </clipPath>
  <clipPath id="p940b4ac85d">
   <rect x="198.45" y="12.854916" width="28.35" height="45.930168"/>
  </clipPath>
  <clipPath id="pfbc60b8cc3">
   <rect x="236.494986" y="8.64" width="8.960028" height="54.36"/>
  </clipPath>
 </defs>
</svg>
