<?xml version="1.0" encoding="utf-8" standalone="no"?>
<!DOCTYPE svg PUBLIC "-//W3C//DTD SVG 1.1//EN"
  "http://www.w3.org/Graphics/SVG/1.1/DTD/svg11.dtd">
<svg xmlns:xlink="http://www.w3.org/1999/xlink" width="364.5pt" height="162pt" viewBox="0 0 364.5 162" xmlns="http://www.w3.org/2000/svg" version="1.1">
 <metadata>
  <rdf:RDF xmlns:dc="http://purl.org/dc/elements/1.1/" xmlns:cc="http://creativecommons.org/ns#" xmlns:rdf="http://www.w3.org/1999/02/22-rdf-syntax-ns#">
   <cc:Work>
    <dc:type rdf:resource="http://purl.org/dc/dcmitype/StillImage"/>
    <dc:date>2023-02-15T23:01:47.181213</dc:date>
    <dc:format>image/svg+xml</dc:format>
    <dc:creator>
     <cc:Agent>
      <dc:title>Matplotlib v3.6.1, https://matplotlib.org/</dc:title>
     </cc:Agent>
    </dc:creator>
   </cc:Work>
  </rdf:RDF>
 </metadata>
 <defs>
  <style type="text/css">*{stroke-linejoin: round; stroke-linecap: butt}</style>
 </defs>
 <g id="figure_1">
  <g id="patch_1">
   <path d="M 0 162 
L 364.5 162 
L 364.5 0 
L 0 0 
z
" style="fill: #8fff9f"/>
  </g>
  <g id="axes_1">
   <g id="patch_2">
    <path d="M 11.694179 92.100563 
Q 13.438875 91.581869 17.352652 91.369677 
Q 21.266429 91.157484 22.869664 90.827406 
L 34.092303 91.11033 
M 16.645343 80.170614 
L 25.981824 79.368997 
M 17.352652 86.442089 
L 28.669599 86.159166 
M 16.220957 74.087755 
Q 15.843726 73.66337 15.938034 73.66337 
Q 15.985188 73.66337 16.268111 73.757678 
Q 16.503881 73.851986 16.503881 73.804832 
L 17.918499 73.804832 
Q 19.710349 73.804832 23.671281 73.097523 
Q 27.632212 72.390213 29.376908 72.390213 
Q 29.612678 72.390213 29.636255 72.460944 
Q 29.659832 72.531675 29.659832 72.814599 
Q 29.659832 73.66337 29.51837 74.67718 
Q 29.376908 75.69099 29.141138 76.916992 
Q 28.905369 78.142995 28.811061 78.755996 
L 28.669599 84.886009 
L 28.386675 86.442089 
M 16.220957 73.804832 
L 16.220957 74.512141 
L 16.220957 76.77553 
L 17.069728 86.300627 
M 7.025938 75.408066 
Q 7.214554 76.351145 7.497477 78.355188 
Q 7.780401 80.35923 8.016171 81.349463 
L 7.780401 95.920032 
M 11.128331 69.183745 
L 11.128331 69.608131 
Q 11.128331 71.117057 9.855175 72.908907 
Q 8.582018 74.700757 6.601552 76.704799 
Q 4.621087 78.708842 4.055239 79.510459 
L 2.357697 80.783616 
" clip-path="url(#pd92171ef8a)" style="fill: none; stroke: #000000; stroke-linejoin: miter"/>
   </g>
  </g>
  <g id="axes_2">
   <g id="patch_3">
    <path d="M 46.822349 85.879027 
Q 50.198255 89.157081 54.797315 91.21198 
Q 59.396376 93.266879 64.288993 93.805067 
L 68.985906 93.707215 
M 47.849799 84.019832 
L 47.849799 84.460168 
Q 47.70302 84.851577 47.042517 86.588456 
Q 46.382013 88.325336 46.112919 88.936913 
Q 45.843826 89.54849 45.158859 90.967349 
Q 44.473893 92.386208 43.911242 93.095638 
Q 43.348591 93.805067 42.443456 94.710201 
Q 41.538322 95.615336 40.510872 96.20245 
M 54.308054 85.487617 
L 54.601611 85.487617 
Q 62.185168 85.487617 62.821208 85.291913 
L 64.142215 85.145134 
M 54.161275 81.524597 
L 54.308054 89.744195 
M 38.896309 82.405268 
L 39.923758 82.405268 
Q 42.07651 82.405268 44.44943 82.136174 
Q 46.822349 81.867081 49.757919 81.426745 
Q 52.69349 80.986409 54.308054 80.790705 
L 70.453691 79.469698 
M 44.522819 77.561577 
Q 51.910671 76.289497 52.595638 76.191644 
L 57.29255 75.60453 
M 43.642148 73.451779 
L 57.096846 72.473255 
M 43.788926 70.222651 
Q 45.109933 70.222651 49.806846 69.733389 
Q 54.503758 69.244128 55.922617 69.244128 
Q 56.754362 69.244128 57.268087 69.415369 
Q 57.781812 69.586611 58.099832 69.831242 
Q 58.417852 70.075872 58.564631 70.124799 
L 57.977517 76.289497 
M 43.055034 69.929094 
L 43.055034 70.516208 
Q 43.397517 71.396879 43.446443 73.843188 
Q 43.495369 76.289497 44.229262 77.414799 
" clip-path="url(#p8c5fb2b695)" style="fill: none; stroke: #000000; stroke-linejoin: miter"/>
   </g>
  </g>
  <g id="axes_3">
   <g id="patch_4">
    <path d="M 93.694685 82.848416 
Q 95.315564 84.034425 97.035277 85.991339 
Q 98.754989 87.948254 99.921231 89.430765 
Q 101.087473 90.913275 103.044387 92.178351 
Q 105.001302 93.443427 107.373319 93.759696 
M 100.138666 76.325369 
Q 99.822397 78.420651 99.268926 80.614767 
Q 98.715456 82.808883 97.806182 85.240201 
Q 96.896909 87.671518 95.434165 89.569132 
Q 93.971421 91.466746 92.231941 92.217885 
M 96.185304 76.918373 
Q 97.094577 76.681171 98.87359 76.345136 
Q 100.652603 76.0091 102.075813 75.63353 
Q 103.499024 75.257961 104.605965 74.70449 
M 97.727115 69.327918 
L 97.727115 69.802321 
Q 97.727115 71.225531 97.272478 72.609208 
Q 96.817842 73.992885 96.066703 75.613764 
Q 95.315564 77.234642 94.999295 78.222983 
L 92.627278 81.306605 
M 81.715998 83.955358 
L 82.0718 83.955358 
Q 82.862473 83.955358 83.712446 84.587896 
Q 84.562419 85.220434 85.491459 86.169241 
Q 86.420499 87.118048 86.815835 87.394783 
L 87.883243 89.055195 
M 87.290239 82.88795 
Q 85.946095 85.1809 83.653145 87.809886 
Q 81.360195 90.438872 79.462581 91.585347 
L 78.988178 91.94115 
M 87.053037 78.895054 
Q 87.250705 79.092722 87.804176 79.586893 
Q 88.357646 80.081063 88.654149 80.357798 
Q 88.950651 80.634534 89.32622 81.049637 
Q 89.70179 81.46474 89.899458 81.860076 
M 80.925325 79.606659 
L 80.925325 79.962462 
Q 79.541649 83.678623 76.892896 84.706497 
M 74.876681 78.183449 
L 75.944089 78.183449 
Q 77.209165 78.183449 78.652142 78.104382 
Q 80.095119 78.025315 81.874132 77.886947 
Q 83.653145 77.748579 84.601952 77.709046 
L 92.192408 76.523037 
M 84.127549 72.609208 
Q 84.325217 72.885944 84.700786 73.380114 
Q 85.076356 73.874284 85.392625 74.289387 
Q 85.708894 74.70449 86.025163 74.981226 
" clip-path="url(#pecc17c92de)" style="fill: none; stroke: #000000; stroke-linejoin: miter"/>
   </g>
  </g>
  <g id="axes_4">
   <g id="patch_5">
    <path d="M 126.643447 82.649194 
Q 131.13401 87.999653 133.833126 89.695557 
Q 136.532241 91.391461 142.790367 92.82462 
M 126.070183 82.362562 
Q 124.398165 85.563283 122.224541 87.736907 
Q 120.050917 89.910531 115.70367 92.490216 
L 112.407405 94.162235 
M 111.738598 82.505878 
L 112.168545 82.505878 
Q 116.706881 82.505878 121.93791 82.290904 
Q 127.168938 82.075931 133.594266 81.717641 
Q 140.019594 81.359351 143.411402 81.216035 
M 126.070183 76.91656 
L 126.070183 97.554043 
M 126.070183 68.652012 
L 126.070183 75.674489 
M 120.767497 72.234908 
L 130.799607 72.091592 
M 119.716514 76.343296 
L 132.519397 76.056664 
M 117.948952 67.457713 
Q 119.047706 67.409941 121.603506 67.314397 
Q 124.159305 67.218853 125.807438 67.147195 
Q 127.45557 67.075537 129.629194 66.860564 
Q 131.802818 66.64559 133.379292 66.358958 
Q 133.474836 66.358958 133.522608 66.621704 
Q 133.57038 66.88445 133.522608 67.123309 
L 133.522608 67.362169 
Q 133.522608 67.409941 133.092661 71.088381 
L 132.376081 77.633139 
M 117.805636 66.597818 
L 117.805636 68.174292 
L 118.761075 71.231697 
L 119.429882 78.063087 
" clip-path="url(#p5571dce5db)" style="fill: none; stroke: #000000; stroke-linejoin: miter"/>
   </g>
  </g>
  <g id="axes_5">
   <g id="patch_6">
    <path d="M 147.827253 82.622253 
Q 160.761123 81.324811 170.329755 81.608626 
Q 171.140656 81.608626 172.13401 81.608626 
Q 173.127364 81.608626 173.492269 81.608626 
Q 173.857175 81.608626 174.627531 81.669444 
Q 175.397887 81.730261 176.573693 81.851897 
Q 176.898053 81.932987 178.23604 82.034349 
Q 179.574027 82.135712 180.222747 82.460072 
M 167.288877 74.715968 
L 167.288877 92.839605 
L 167.045606 94.907403 
M 159.382592 75.202508 
Q 159.342047 75.324143 159.362319 75.810684 
Q 159.382592 76.297225 159.382592 76.41886 
Q 159.382592 81.973532 158.08515 85.054956 
Q 156.787709 88.136379 153.300834 91.744889 
L 151.962848 92.4747 
M 169.275584 68.79639 
Q 168.707953 70.539828 167.045606 71.512909 
L 165.829255 72.72926 
M 155.003726 70.539828 
Q 155.125362 70.661463 155.976808 71.391274 
Q 156.828254 72.121085 157.193159 72.4049 
Q 157.558065 72.688715 158.287875 73.134711 
Q 159.017686 73.580706 159.625862 73.823977 
M 153.90901 74.797058 
L 164.004727 74.310517 
L 172.519188 74.432152 
" clip-path="url(#pcc1a17578e)" style="fill: none; stroke: #000000; stroke-linejoin: miter"/>
   </g>
  </g>
  <g id="axes_6">
   <g id="patch_7">
    <path d="M 203.129126 72.556789 
Q 205.606311 74.629535 207.982386 75.893405 
L 210.409015 76.803391 
M 199.640846 72.405125 
Q 200.196949 75.135083 200.298058 78.673918 
Q 200.399168 82.212753 200.247503 85.018544 
Q 200.095839 87.824334 200.247503 91.363169 
L 200.702497 94.396456 
M 202.825798 66.035222 
Q 201.663037 68.360742 201.081657 69.44767 
Q 200.500277 70.534598 199.236408 72.632621 
Q 197.972538 74.730645 196.936165 75.918682 
Q 195.899792 77.10672 194.357871 78.395867 
Q 192.81595 79.685014 191.147642 80.443336 
M 184.777739 67.70353 
Q 186.446047 67.400201 188.114355 67.147427 
Q 189.782663 66.894653 191.678467 66.692434 
Q 193.574272 66.490215 195.040361 66.313273 
Q 196.506449 66.136331 198.680305 65.984667 
Q 200.854161 65.833003 202.067476 65.731893 
Q 203.280791 65.630784 205.732698 65.504397 
Q 208.184605 65.37801 209.094591 65.327455 
Q 210.004577 65.2769 212.734535 65.150513 
Q 215.464494 65.024126 216.172261 64.973571 
" clip-path="url(#pcfe0a9e8c5)" style="fill: none; stroke: #000000; stroke-linejoin: miter"/>
   </g>
  </g>
  <g id="axes_7">
   <g id="patch_8">
    <path d="M 231.514785 95.14954 
Q 233.891036 94.343312 238.495023 93.452218 
Q 243.09901 92.561123 244.499302 92.221659 
L 253.028347 91.330565 
M 236.734051 86.493196 
L 236.98865 86.493196 
Q 237.625146 86.493196 238.558673 86.28103 
Q 239.4922 86.068865 240.659109 85.708184 
Q 241.826019 85.347503 242.335215 85.220204 
L 248.445576 84.838306 
M 242.335215 71.089994 
L 242.589814 91.839761 
M 239.152736 75.927363 
L 243.608207 75.290867 
L 246.536088 75.036269 
M 236.352154 80.637433 
L 248.063679 79.61904 
M 234.824563 71.599191 
L 235.461059 71.599191 
Q 237.115949 71.72649 240.149913 71.344593 
Q 243.183877 70.962695 244.499302 70.962695 
Q 245.050931 70.962695 246.090541 70.708097 
Q 247.130151 70.453498 247.681781 70.453498 
L 248.318277 70.453498 
Q 248.445576 70.453498 248.678958 70.389849 
Q 248.91234 70.326199 249.082072 70.326199 
Q 249.336671 70.326199 249.336671 70.665664 
L 249.336671 70.708097 
Q 249.336671 71.047561 249.103289 71.662841 
Q 248.869907 72.27812 248.509226 73.041915 
Q 248.148545 73.80571 248.063679 74.017875 
L 247.554482 79.61904 
M 234.697264 71.471892 
Q 234.866997 71.684057 235.164028 72.447852 
Q 235.461059 73.211647 235.842957 73.508679 
L 237.625146 78.855244 
M 225.786321 72.999482 
Q 225.786321 73.169214 225.786321 75.290867 
Q 225.786321 77.624686 225.701455 80.319185 
Q 225.616589 83.013685 225.468073 86.302247 
Q 225.319558 89.590809 225.277125 91.330565 
M 220.821653 93.197619 
Q 221.670314 92.688423 224.725495 91.670029 
Q 227.780675 90.651636 228.841502 89.293778 
L 232.023981 87.256991 
M 222.221944 82.165023 
Q 223.282771 82.249889 224.131432 81.655827 
Q 224.725495 81.231496 226.422817 81.019331 
L 229.605297 80.255536 
L 230.369092 79.746339 
M 222.349243 74.017875 
L 222.731141 74.017875 
Q 223.622235 74.017875 224.725495 73.763277 
Q 225.828754 73.508679 227.186612 73.084348 
Q 228.54447 72.660017 229.223399 72.490285 
L 230.241793 72.362986 
" clip-path="url(#p2d5108a619)" style="fill: none; stroke: #000000; stroke-linejoin: miter"/>
   </g>
  </g>
  <g id="axes_8">
   <g id="patch_9">
    <path d="M 285.653966 87.803547 
Q 286.26486 87.844274 286.957207 88.638436 
Q 287.649553 89.432598 288.097542 89.595503 
L 289.563687 90.735838 
M 271.603408 86.337402 
Q 271.68486 86.826117 272.438296 87.437011 
Q 273.191732 88.047905 273.313911 88.53662 
L 274.41352 89.269693 
M 263.783966 87.925726 
Q 266.512626 91.753994 271.155419 93.281229 
Q 275.798212 94.808464 281.133352 94.401201 
Q 281.581341 94.401201 282.477318 94.279022 
Q 283.373296 94.156844 283.821285 94.156844 
Q 282.070056 92.201983 281.866425 91.957626 
L 280.278101 89.391872 
M 261.46257 88.047905 
Q 260.770223 88.332989 259.528073 90.104581 
Q 258.285922 91.876173 257.797207 92.324162 
L 257.186313 92.690698 
M 275.513128 80.228464 
L 282.395866 79.821201 
M 274.780056 74.852598 
L 281.377709 74.567514 
L 282.477318 74.445335 
M 275.146592 84.138184 
L 285.531788 83.893827 
M 274.535698 69.965447 
Q 278.689777 69.802542 283.454749 69.232374 
Q 283.943464 69.191648 284.208184 69.33419 
Q 284.472905 69.476732 284.533994 69.863631 
Q 284.595084 70.250531 284.574721 70.617067 
Q 284.554358 70.983603 284.493268 71.574134 
Q 284.432179 72.164665 284.432179 72.531201 
L 284.432179 79.128855 
L 285.043073 84.749078 
M 274.169162 70.087626 
Q 274.494972 71.35014 274.820782 73.814078 
Q 275.146592 76.278017 275.39095 77.418352 
L 275.635307 84.016006 
M 266.308994 77.173994 
Q 266.594078 77.581257 267.469693 77.968156 
Q 268.345307 78.355056 268.630391 78.762318 
L 269.974358 79.739749 
M 265.575922 73.63081 
Q 265.413017 76.888911 264.06905 78.864134 
Q 262.725084 80.839358 260.077877 82.672039 
L 257.634302 84.504721 
M 257.878659 73.63081 
L 272.540112 72.857011 
M 265.942458 68.62148 
L 265.698101 80.839358 
L 265.331564 84.382542 
Q 265.168659 83.893827 265.087207 84.545447 
Q 265.087207 84.708352 265.087207 84.952709 
Q 265.087207 84.911983 265.087207 84.871257 
" clip-path="url(#pe32adc8bdc)" style="fill: none; stroke: #000000; stroke-linejoin: miter"/>
   </g>
  </g>
  <g id="axes_9">
   <g id="patch_10">
    <path d="M 310.879397 94.597386 
Q 310.879397 94.597386 309.10801 94.597386 
Q 306.830514 94.597386 305.43871 96.326597 
Q 304.046907 98.055807 304.046907 100.417655 
Q 303.962555 102.779503 305.607414 104.086955 
Q 307.252272 105.394407 309.614121 104.972648 
Q 310.288934 104.888297 311.385507 104.803945 
Q 312.482079 104.719593 313.072541 104.635241 
Q 313.663003 104.55089 314.379993 104.213483 
Q 315.096983 103.876076 315.392214 103.074734 
Q 315.687445 102.273393 315.687445 100.923766 
Q 315.687445 100.333303 315.43439 99.742841 
Q 315.181334 99.152379 314.759576 98.43539 
Q 314.337817 97.7184 314.169114 97.380993 
L 311.638562 95.862662 
" clip-path="url(#pc327531bbb)" style="fill: none; stroke: #000000; stroke-linejoin: miter"/>
   </g>
  </g>
 </g>
 <defs>
  <clipPath id="pd92171ef8a">
   <rect x="0" y="46.408389" width="36.45" height="68.373221"/>
  </clipPath>
  <clipPath id="p8c5fb2b695">
   <rect x="36.45" y="45.123523" width="36.45" height="70.942953"/>
  </clipPath>
  <clipPath id="pecc17c92de">
   <rect x="72.9" y="51.933124" width="36.45" height="57.323753"/>
  </clipPath>
  <clipPath id="p5571dce5db">
   <rect x="109.35" y="45.960334" width="36.45" height="69.269332"/>
  </clipPath>
  <clipPath id="pcc1a17578e">
   <rect x="145.8" y="51.199839" width="36.45" height="58.790323"/>
  </clipPath>
  <clipPath id="pcfe0a9e8c5">
   <rect x="182.25" y="43.942781" width="36.45" height="73.304438"/>
  </clipPath>
  <clipPath id="p2d5108a619">
   <rect x="218.7" y="49.83103" width="36.45" height="61.527939"/>
  </clipPath>
  <clipPath id="pe32adc8bdc">
   <rect x="255.15" y="51.068464" width="36.45" height="59.053073"/>
  </clipPath>
  <clipPath id="pc327531bbb">
   <rect x="299.744969" y="19.44" width="20.160062" height="122.31"/>
  </clipPath>
 </defs>
</svg>
