<?xml version="1.0" encoding="utf-8" standalone="no"?>
<!DOCTYPE svg PUBLIC "-//W3C//DTD SVG 1.1//EN"
  "http://www.w3.org/Graphics/SVG/1.1/DTD/svg11.dtd">
<svg xmlns:xlink="http://www.w3.org/1999/xlink" width="450pt" height="72pt" viewBox="0 0 450 72" xmlns="http://www.w3.org/2000/svg" version="1.1">
 <metadata>
  <rdf:RDF xmlns:dc="http://purl.org/dc/elements/1.1/" xmlns:cc="http://creativecommons.org/ns#" xmlns:rdf="http://www.w3.org/1999/02/22-rdf-syntax-ns#">
   <cc:Work>
    <dc:type rdf:resource="http://purl.org/dc/dcmitype/StillImage"/>
    <dc:date>2023-02-15T23:01:54.023679</dc:date>
    <dc:format>image/svg+xml</dc:format>
    <dc:creator>
     <cc:Agent>
      <dc:title>Matplotlib v3.6.1, https://matplotlib.org/</dc:title>
     </cc:Agent>
    </dc:creator>
   </cc:Work>
  </rdf:RDF>
 </metadata>
 <defs>
  <style type="text/css">*{stroke-linejoin: round; stroke-linecap: butt}</style>
 </defs>
 <g id="figure_1">
  <g id="patch_1">
   <path d="M 0 72 
L 450 72 
L 450 0 
L 0 0 
z
" style="fill: #8fff9f"/>
  </g>
  <g id="axes_1">
   <g id="patch_2">
    <path d="M 3.638731 37.282097 
L 3.638731 37.844441 
Q 3.901159 39.868883 3.938648 41.312234 
Q 3.976138 42.755586 3.882414 44.667559 
Q 3.78869 46.579531 3.78869 48.191586 
L 3.863669 39.643945 
Q 3.863669 38.144359 5.456979 37.507034 
Q 7.05029 36.86971 8.474897 37.282097 
Q 10.386869 37.844441 11.305366 39.04411 
Q 12.223862 40.243779 12.280097 41.668386 
Q 12.336331 43.092993 12.373821 44.817517 
Q 12.41131 46.542041 12.561269 48.191586 
" clip-path="url(#pc66fb88c01)" style="fill: none; stroke: #000000; stroke-linejoin: miter"/>
   </g>
  </g>
  <g id="axes_2">
   <g id="patch_3">
    <path d="M 27.5616 35.032717 
Q 26.51189 34.582841 25.537159 34.69531 
Q 22.500497 35.032717 20.588524 36.701007 
Q 18.676552 38.369297 18.676552 41.330979 
Q 18.676552 43.917766 20.682248 45.6048 
Q 22.687945 47.291834 25.312221 47.291834 
Q 27.674069 47.291834 28.798759 45.361117 
Q 29.923448 43.4304 29.923448 40.881103 
Q 29.923448 39.643945 29.511062 38.706703 
Q 29.098676 37.769462 28.573821 37.300841 
Q 28.048966 36.832221 27.299172 36.119917 
Q 26.549379 35.407614 26.099503 34.69531 
L 24.862345 34.245434 
" clip-path="url(#pa392c1c723)" style="fill: none; stroke: #000000; stroke-linejoin: miter"/>
   </g>
  </g>
  <g id="axes_3">
   <g id="patch_4">
    <path d="M 41.118579 29.071862 
Q 40.743683 29.146841 40.612469 29.577972 
Q 40.481255 30.009103 40.556234 30.42149 
Q 40.556234 30.571448 40.593724 30.702662 
Q 40.631214 30.833876 40.687448 30.89011 
Q 40.743683 30.946345 40.799917 31.040069 
Q 40.856152 31.133793 40.893641 31.208772 
L 41.00611 29.859145 
M 41.00611 34.020497 
Q 40.106359 39.006621 39.881421 42.793076 
L 40.331297 45.379862 
L 40.668703 46.054676 
" clip-path="url(#p95e7de5b5d)" style="fill: none; stroke: #000000; stroke-linejoin: miter"/>
   </g>
  </g>
  <g id="axes_4">
   <g id="patch_5">
    <path d="M 52.257476 43.917766 
Q 52.557393 44.180193 53.569614 45.154924 
Q 54.581834 46.129655 55.144179 46.560786 
Q 55.706524 46.991917 56.73749 47.385559 
Q 57.768455 47.7792 58.780676 47.629241 
Q 59.45549 47.629241 59.92411 47.404303 
Q 60.392731 47.179366 60.617669 46.879448 
Q 60.842607 46.579531 60.973821 45.979697 
Q 61.105034 45.379862 61.123779 44.967476 
Q 61.142524 44.55509 61.142524 43.805297 
Q 61.142524 42.718097 60.242772 42.043283 
Q 59.343021 41.368469 58.049628 41.031062 
Q 56.756234 40.693655 55.462841 40.300014 
Q 54.169448 39.906372 53.269697 38.987876 
Q 52.369945 38.069379 52.369945 36.607283 
Q 52.369945 36.082428 52.538648 35.726276 
Q 52.707352 35.370124 53.100993 35.145186 
Q 53.494634 34.920248 53.775807 34.807779 
Q 54.056979 34.69531 54.713048 34.639076 
Q 55.369117 34.582841 55.556566 34.582841 
Q 55.744014 34.582841 56.418828 34.582841 
Q 57.618497 34.582841 58.199586 34.995228 
Q 58.780676 35.407614 59.099338 36.026193 
Q 59.418 36.644772 59.680428 36.832221 
" clip-path="url(#pa646541cc8)" style="fill: none; stroke: #000000; stroke-linejoin: miter"/>
   </g>
  </g>
  <g id="axes_5">
   <g id="patch_6">
    <path d="M 66.657798 38.160826 
Q 69.630275 39.535596 74.349083 39.721376 
Q 75.872477 39.721376 76.559862 38.550963 
Q 77.247248 37.38055 77.247248 35.82 
Q 77.247248 35.299817 77.154358 34.909679 
Q 77.061468 34.519541 76.819954 34.296606 
Q 76.57844 34.07367 76.411239 33.943624 
Q 76.244037 33.813578 75.798165 33.757844 
Q 75.352294 33.70211 75.147936 33.683532 
Q 74.943578 33.664954 74.367661 33.683532 
Q 73.791743 33.70211 73.568807 33.70211 
Q 71.525229 33.70211 70.038991 35.578486 
Q 68.552752 37.454862 68.552752 39.609908 
Q 68.552752 42.619541 70.484862 44.570229 
Q 72.416972 46.520917 75.463761 46.520917 
Q 77.618807 46.818165 79.142202 44.29156 
" clip-path="url(#pd31c8bb9aa)" style="fill: none; stroke: #000000; stroke-linejoin: miter"/>
   </g>
  </g>
  <g id="axes_6"/>
  <g id="axes_7">
   <g id="patch_7">
    <path d="M 110.556735 34.365306 
Q 110.556735 34.365306 110.060816 34.365306 
Q 109.267347 34.365306 107.779592 34.067755 
Q 106.291837 33.770204 105.498367 33.770204 
Q 102.721224 33.770204 100.787143 35.224898 
Q 98.853061 36.679592 98.853061 39.423673 
Q 98.853061 40.94449 100.340816 42.399184 
Q 101.828571 43.853878 103.762653 44.663878 
Q 105.696735 45.473878 107.18449 45.473878 
Q 108.110204 45.473878 108.80449 45.110204 
Q 109.498776 44.746531 110.242653 44.118367 
Q 110.986531 43.490204 111.548571 43.192653 
L 111.746939 42.696735 
" clip-path="url(#pb6a79e10fb)" style="fill: none; stroke: #000000; stroke-linejoin: miter"/>
   </g>
  </g>
  <g id="axes_8">
   <g id="patch_8">
    <path d="M 127.043923 36.441748 
Q 125.834968 35.094627 121.862687 35.094627 
Q 120.342857 35.094627 119.565672 35.146439 
Q 118.788486 35.198252 117.78678 35.440043 
Q 116.785075 35.681834 116.301493 36.182687 
Q 115.81791 36.683539 115.472495 37.616162 
Q 115.127079 38.548785 115.127079 39.964989 
Q 115.127079 42.037484 116.543284 43.280981 
Q 117.959488 44.524478 119.893817 44.524478 
Q 122.553518 44.524478 125.316844 38.721493 
Q 126.663966 35.854542 126.663966 35.82 
Q 127.009382 35.578209 127.043923 36.441748 
Q 127.043923 37.512537 127.458422 40.362217 
Q 127.872921 43.211898 127.872921 44.524478 
" clip-path="url(#p394b490cdf)" style="fill: none; stroke: #000000; stroke-linejoin: miter"/>
   </g>
  </g>
  <g id="axes_9">
   <g id="patch_9">
    <path d="M 133.238731 37.282097 
L 133.238731 37.844441 
Q 133.501159 39.868883 133.538648 41.312234 
Q 133.576138 42.755586 133.482414 44.667559 
Q 133.38869 46.579531 133.38869 48.191586 
L 133.463669 39.643945 
Q 133.463669 38.144359 135.056979 37.507034 
Q 136.65029 36.86971 138.074897 37.282097 
Q 139.986869 37.844441 140.905366 39.04411 
Q 141.823862 40.243779 141.880097 41.668386 
Q 141.936331 43.092993 141.973821 44.817517 
Q 142.01131 46.542041 142.161269 48.191586 
" clip-path="url(#p735cdaa03c)" style="fill: none; stroke: #000000; stroke-linejoin: miter"/>
   </g>
  </g>
  <g id="axes_10">
   <g id="patch_10">
    <path d="M 159.156735 34.365306 
Q 159.156735 34.365306 158.660816 34.365306 
Q 157.867347 34.365306 156.379592 34.067755 
Q 154.891837 33.770204 154.098367 33.770204 
Q 151.321224 33.770204 149.387143 35.224898 
Q 147.453061 36.679592 147.453061 39.423673 
Q 147.453061 40.94449 148.940816 42.399184 
Q 150.428571 43.853878 152.362653 44.663878 
Q 154.296735 45.473878 155.78449 45.473878 
Q 156.710204 45.473878 157.40449 45.110204 
Q 158.098776 44.746531 158.842653 44.118367 
Q 159.586531 43.490204 160.148571 43.192653 
L 160.346939 42.696735 
" clip-path="url(#p7b9f15019b)" style="fill: none; stroke: #000000; stroke-linejoin: miter"/>
   </g>
  </g>
  <g id="axes_11">
   <g id="patch_11">
    <path d="M 163.857798 38.160826 
Q 166.830275 39.535596 171.549083 39.721376 
Q 173.072477 39.721376 173.759862 38.550963 
Q 174.447248 37.38055 174.447248 35.82 
Q 174.447248 35.299817 174.354358 34.909679 
Q 174.261468 34.519541 174.019954 34.296606 
Q 173.77844 34.07367 173.611239 33.943624 
Q 173.444037 33.813578 172.998165 33.757844 
Q 172.552294 33.70211 172.347936 33.683532 
Q 172.143578 33.664954 171.567661 33.683532 
Q 170.991743 33.70211 170.768807 33.70211 
Q 168.725229 33.70211 167.238991 35.578486 
Q 165.752752 37.454862 165.752752 39.609908 
Q 165.752752 42.619541 167.684862 44.570229 
Q 169.616972 46.520917 172.663761 46.520917 
Q 174.818807 46.818165 176.342202 44.29156 
" clip-path="url(#pb680bf670b)" style="fill: none; stroke: #000000; stroke-linejoin: miter"/>
   </g>
  </g>
  <g id="axes_12">
   <g id="patch_12">
    <path d="M 185.906359 28.621986 
Q 186.131297 30.34651 186.206276 32.146014 
Q 186.281255 33.945517 186.26251 36.551048 
Q 186.243766 39.156579 186.243766 40.093821 
Q 186.243766 40.13131 186.468703 45.829738 
L 186.693641 46.841959 
" clip-path="url(#p30bd7615b9)" style="fill: none; stroke: #000000; stroke-linejoin: miter"/>
   </g>
  </g>
  <g id="axes_13">
   <g id="patch_13">
    <path d="M 203.118579 29.071862 
Q 202.743683 29.146841 202.612469 29.577972 
Q 202.481255 30.009103 202.556234 30.42149 
Q 202.556234 30.571448 202.593724 30.702662 
Q 202.631214 30.833876 202.687448 30.89011 
Q 202.743683 30.946345 202.799917 31.040069 
Q 202.856152 31.133793 202.893641 31.208772 
L 203.00611 29.859145 
M 203.00611 34.020497 
Q 202.106359 39.006621 201.881421 42.793076 
L 202.331297 45.379862 
L 202.668703 46.054676 
" clip-path="url(#p4d1f38a61d)" style="fill: none; stroke: #000000; stroke-linejoin: miter"/>
   </g>
  </g>
  <g id="axes_14">
   <g id="patch_14">
    <path d="M 214.238731 37.282097 
L 214.238731 37.844441 
Q 214.501159 39.868883 214.538648 41.312234 
Q 214.576138 42.755586 214.482414 44.667559 
Q 214.38869 46.579531 214.38869 48.191586 
L 214.463669 39.643945 
Q 214.463669 38.144359 216.056979 37.507034 
Q 217.65029 36.86971 219.074897 37.282097 
Q 220.986869 37.844441 221.905366 39.04411 
Q 222.823862 40.243779 222.880097 41.668386 
Q 222.936331 43.092993 222.973821 44.817517 
Q 223.01131 46.542041 223.161269 48.191586 
" clip-path="url(#p3be06e860c)" style="fill: none; stroke: #000000; stroke-linejoin: miter"/>
   </g>
  </g>
  <g id="axes_15">
   <g id="patch_15">
    <path d="M 239.687191 39.096404 
Q 239.43236 39.023596 238.46764 38.623146 
Q 237.502921 38.222697 236.84764 38.077079 
Q 236.19236 37.931461 235.537079 38.00427 
Q 232.915955 38.00427 231.277753 40.388764 
Q 229.639551 42.773258 229.639551 45.430787 
Q 229.639551 47.068989 234.881798 47.068989 
Q 236.447191 47.068989 237.775955 45.558202 
Q 239.104719 44.047416 239.778202 42.172584 
Q 240.451685 40.297753 240.451685 38.768764 
Q 240.451685 37.27618 240.415281 36.984944 
L 240.342472 38.077079 
Q 240.342472 38.550337 240.342472 38.987191 
Q 240.378876 40.188539 240.579101 42.281798 
Q 240.779326 44.375056 240.943146 46.049663 
Q 241.106966 47.72427 241.143371 49.872135 
Q 241.179775 52.02 241.015955 53.658202 
Q 240.852135 55.296404 240.287865 56.971011 
Q 239.723596 58.645618 238.795281 59.737753 
Q 237.866966 60.829888 236.265169 61.521573 
Q 234.663371 62.213258 232.515506 62.213258 
Q 230.877303 62.213258 229.785169 61.466966 
Q 228.693034 60.720674 228.693034 59.155281 
Q 228.620225 58.936854 228.656629 58.936854 
Q 228.693034 58.936854 228.802247 58.936854 
Q 228.911461 58.936854 228.911461 58.82764 
" clip-path="url(#pfa1f2ee195)" style="fill: none; stroke: #000000; stroke-linejoin: miter"/>
   </g>
  </g>
  <g id="axes_16"/>
  <g id="axes_17">
   <g id="patch_16">
    <path d="M 261.057798 38.160826 
Q 264.030275 39.535596 268.749083 39.721376 
Q 270.272477 39.721376 270.959862 38.550963 
Q 271.647248 37.38055 271.647248 35.82 
Q 271.647248 35.299817 271.554358 34.909679 
Q 271.461468 34.519541 271.219954 34.296606 
Q 270.97844 34.07367 270.811239 33.943624 
Q 270.644037 33.813578 270.198165 33.757844 
Q 269.752294 33.70211 269.547936 33.683532 
Q 269.343578 33.664954 268.767661 33.683532 
Q 268.191743 33.70211 267.968807 33.70211 
Q 265.925229 33.70211 264.438991 35.578486 
Q 262.952752 37.454862 262.952752 39.609908 
Q 262.952752 42.619541 264.884862 44.570229 
Q 266.816972 46.520917 269.863761 46.520917 
Q 272.018807 46.818165 273.542202 44.29156 
" clip-path="url(#p67fe4b5cf4)" style="fill: none; stroke: #000000; stroke-linejoin: miter"/>
   </g>
  </g>
  <g id="axes_18">
   <g id="patch_17">
    <path d="M 289.043923 36.441748 
Q 287.834968 35.094627 283.862687 35.094627 
Q 282.342857 35.094627 281.565672 35.146439 
Q 280.788486 35.198252 279.78678 35.440043 
Q 278.785075 35.681834 278.301493 36.182687 
Q 277.81791 36.683539 277.472495 37.616162 
Q 277.127079 38.548785 277.127079 39.964989 
Q 277.127079 42.037484 278.543284 43.280981 
Q 279.959488 44.524478 281.893817 44.524478 
Q 284.553518 44.524478 287.316844 38.721493 
Q 288.663966 35.854542 288.663966 35.82 
Q 289.009382 35.578209 289.043923 36.441748 
Q 289.043923 37.512537 289.458422 40.362217 
Q 289.872921 43.211898 289.872921 44.524478 
" clip-path="url(#pcaef9700bf)" style="fill: none; stroke: #000000; stroke-linejoin: miter"/>
   </g>
  </g>
  <g id="axes_19">
   <g id="patch_18">
    <path d="M 296.213462 32.783338 
Q 296.738317 34.507862 296.869531 36.457324 
Q 297.000745 38.406786 296.925766 40.956083 
Q 296.850786 43.505379 296.888276 44.705048 
L 297.000745 46.054676 
L 297.000745 45.829738 
Q 297.000745 44.667559 296.719572 42.30571 
Q 296.4384 39.943862 296.4384 38.744193 
Q 296.4384 36.419834 297.450621 34.882759 
Q 298.462841 33.345683 300.487283 33.345683 
Q 301.199586 33.345683 301.536993 33.626855 
Q 301.8744 33.908028 302.136828 34.432883 
Q 302.399255 34.957738 302.736662 35.257655 
L 303.186538 36.832221 
" clip-path="url(#p6e7b339c63)" style="fill: none; stroke: #000000; stroke-linejoin: miter"/>
   </g>
  </g>
  <g id="axes_20">
   <g id="patch_19">
    <path d="M 311.120069 39.868883 
L 311.120069 39.419007 
Q 311.120069 37.769462 312.863338 36.682262 
Q 314.606607 35.595062 316.293641 35.595062 
Q 318.505531 35.595062 319.873903 36.794731 
Q 321.242276 37.9944 321.242276 40.20629 
Q 321.242276 42.30571 319.424028 43.336676 
Q 317.605779 44.367641 315.39389 44.367641 
Q 314.719076 44.367641 314.212966 44.255172 
Q 313.706855 44.142703 313.088276 43.917766 
Q 312.469697 43.692828 312.019821 43.580359 
L 310.895131 42.568138 
M 310.557724 36.832221 
Q 311.0076 38.444276 311.270028 40.262524 
Q 311.532455 42.080772 311.58869 43.749062 
Q 311.644924 45.417352 311.682414 47.27309 
Q 311.719903 49.128828 311.682414 50.778372 
L 311.569945 57.863917 
" clip-path="url(#p86c5d4e9be)" style="fill: none; stroke: #000000; stroke-linejoin: miter"/>
   </g>
  </g>
  <g id="axes_21">
   <g id="patch_20">
    <path d="M 331.706359 28.621986 
Q 331.931297 30.34651 332.006276 32.146014 
Q 332.081255 33.945517 332.06251 36.551048 
Q 332.043766 39.156579 332.043766 40.093821 
Q 332.043766 40.13131 332.268703 45.829738 
L 332.493641 46.841959 
" clip-path="url(#pc08537682e)" style="fill: none; stroke: #000000; stroke-linejoin: miter"/>
   </g>
  </g>
  <g id="axes_22">
   <g id="patch_21">
    <path d="M 343.688772 35.145186 
Q 343.688772 35.145186 343.688772 35.595062 
Q 343.688772 36.269876 343.576303 37.619503 
Q 343.463834 38.969131 343.463834 39.643945 
Q 343.463834 41.930814 344.700993 43.599103 
Q 345.938152 45.267393 348.075062 45.267393 
Q 349.462179 45.154924 350.230717 43.917766 
Q 350.999255 42.680607 351.149214 41.237255 
Q 351.299172 39.793903 351.5616 37.9944 
Q 351.824028 36.194897 352.236414 35.370124 
Q 352.386372 35.070207 352.386372 35.670041 
Q 352.386372 36.269876 352.123945 38.706703 
Q 351.899007 41.031062 351.899007 41.555917 
Q 351.749048 42.643117 352.086455 43.767807 
Q 352.423862 44.892497 353.136166 45.6048 
" clip-path="url(#p295aeed061)" style="fill: none; stroke: #000000; stroke-linejoin: miter"/>
   </g>
  </g>
  <g id="axes_23">
   <g id="patch_22">
    <path d="M 369.287191 39.096404 
Q 369.03236 39.023596 368.06764 38.623146 
Q 367.102921 38.222697 366.44764 38.077079 
Q 365.79236 37.931461 365.137079 38.00427 
Q 362.515955 38.00427 360.877753 40.388764 
Q 359.239551 42.773258 359.239551 45.430787 
Q 359.239551 47.068989 364.481798 47.068989 
Q 366.047191 47.068989 367.375955 45.558202 
Q 368.704719 44.047416 369.378202 42.172584 
Q 370.051685 40.297753 370.051685 38.768764 
Q 370.051685 37.27618 370.015281 36.984944 
L 369.942472 38.077079 
Q 369.942472 38.550337 369.942472 38.987191 
Q 369.978876 40.188539 370.179101 42.281798 
Q 370.379326 44.375056 370.543146 46.049663 
Q 370.706966 47.72427 370.743371 49.872135 
Q 370.779775 52.02 370.615955 53.658202 
Q 370.452135 55.296404 369.887865 56.971011 
Q 369.323596 58.645618 368.395281 59.737753 
Q 367.466966 60.829888 365.865169 61.521573 
Q 364.263371 62.213258 362.115506 62.213258 
Q 360.477303 62.213258 359.385169 61.466966 
Q 358.293034 60.720674 358.293034 59.155281 
Q 358.220225 58.936854 358.256629 58.936854 
Q 358.293034 58.936854 358.402247 58.936854 
Q 358.511461 58.936854 358.511461 58.82764 
" clip-path="url(#pa00ab50243)" style="fill: none; stroke: #000000; stroke-linejoin: miter"/>
   </g>
  </g>
  <g id="axes_24">
   <g id="patch_23">
    <path d="M 376.257476 43.917766 
Q 376.557393 44.180193 377.569614 45.154924 
Q 378.581834 46.129655 379.144179 46.560786 
Q 379.706524 46.991917 380.73749 47.385559 
Q 381.768455 47.7792 382.780676 47.629241 
Q 383.45549 47.629241 383.92411 47.404303 
Q 384.392731 47.179366 384.617669 46.879448 
Q 384.842607 46.579531 384.973821 45.979697 
Q 385.105034 45.379862 385.123779 44.967476 
Q 385.142524 44.55509 385.142524 43.805297 
Q 385.142524 42.718097 384.242772 42.043283 
Q 383.343021 41.368469 382.049628 41.031062 
Q 380.756234 40.693655 379.462841 40.300014 
Q 378.169448 39.906372 377.269697 38.987876 
Q 376.369945 38.069379 376.369945 36.607283 
Q 376.369945 36.082428 376.538648 35.726276 
Q 376.707352 35.370124 377.100993 35.145186 
Q 377.494634 34.920248 377.775807 34.807779 
Q 378.056979 34.69531 378.713048 34.639076 
Q 379.369117 34.582841 379.556566 34.582841 
Q 379.744014 34.582841 380.418828 34.582841 
Q 381.618497 34.582841 382.199586 34.995228 
Q 382.780676 35.407614 383.099338 36.026193 
Q 383.418 36.644772 383.680428 36.832221 
" clip-path="url(#p93e5663e0e)" style="fill: none; stroke: #000000; stroke-linejoin: miter"/>
   </g>
  </g>
  <g id="axes_25">
   <g id="patch_24">
    <path d="M 396.187697 39.981352 
Q 397.199917 40.956083 397.537324 42.905545 
Q 397.724772 43.955255 397.312386 46.167145 
L 396.075228 47.629241 
" clip-path="url(#p49fb0701a5)" style="fill: none; stroke: #000000; stroke-linejoin: miter"/>
   </g>
  </g>
 </g>
 <defs>
  <clipPath id="pc66fb88c01">
   <rect x="1.764248" y="8.64" width="12.671503" height="54.36"/>
  </clipPath>
  <clipPath id="pa392c1c723">
   <rect x="16.802069" y="8.64" width="14.995862" height="54.36"/>
  </clipPath>
  <clipPath id="p95e7de5b5d">
   <rect x="38.006938" y="8.64" width="4.986124" height="54.36"/>
  </clipPath>
  <clipPath id="pa646541cc8">
   <rect x="50.382993" y="8.64" width="12.634014" height="54.36"/>
  </clipPath>
  <clipPath id="pd31c8bb9aa">
   <rect x="64.8" y="8.881927" width="16.2" height="53.876147"/>
  </clipPath>
  <clipPath id="pb6a79e10fb">
   <rect x="97.2" y="11.850612" width="16.2" height="47.938776"/>
  </clipPath>
  <clipPath id="p394b490cdf">
   <rect x="113.4" y="10.777356" width="16.2" height="50.085288"/>
  </clipPath>
  <clipPath id="p735cdaa03c">
   <rect x="131.364248" y="8.64" width="12.671503" height="54.36"/>
  </clipPath>
  <clipPath id="p7b9f15019b">
   <rect x="145.8" y="11.850612" width="16.2" height="47.938776"/>
  </clipPath>
  <clipPath id="pb680bf670b">
   <rect x="162" y="8.881927" width="16.2" height="53.876147"/>
  </clipPath>
  <clipPath id="p30bd7615b9">
   <rect x="184.031876" y="8.64" width="4.536248" height="54.36"/>
  </clipPath>
  <clipPath id="p4d1f38a61d">
   <rect x="200.006938" y="8.64" width="4.986124" height="54.36"/>
  </clipPath>
  <clipPath id="p3be06e860c">
   <rect x="212.364248" y="8.64" width="12.671503" height="54.36"/>
  </clipPath>
  <clipPath id="pfa1f2ee195">
   <rect x="226.8" y="9.426742" width="16.2" height="52.786517"/>
  </clipPath>
  <clipPath id="p67fe4b5cf4">
   <rect x="259.2" y="8.881927" width="16.2" height="53.876147"/>
  </clipPath>
  <clipPath id="pcaef9700bf">
   <rect x="275.4" y="10.777356" width="16.2" height="50.085288"/>
  </clipPath>
  <clipPath id="p6e7b339c63">
   <rect x="294.338979" y="8.64" width="10.722041" height="54.36"/>
  </clipPath>
  <clipPath id="p86c5d4e9be">
   <rect x="308.683241" y="8.64" width="14.433517" height="54.36"/>
  </clipPath>
  <clipPath id="pc08537682e">
   <rect x="329.831876" y="8.64" width="4.536248" height="54.36"/>
  </clipPath>
  <clipPath id="p295aeed061">
   <rect x="341.589352" y="8.64" width="13.421297" height="54.36"/>
  </clipPath>
  <clipPath id="pa00ab50243">
   <rect x="356.4" y="9.426742" width="16.2" height="52.786517"/>
  </clipPath>
  <clipPath id="p93e5663e0e">
   <rect x="374.382993" y="8.64" width="12.634014" height="54.36"/>
  </clipPath>
  <clipPath id="p49fb0701a5">
   <rect x="394.200745" y="8.64" width="5.39851" height="54.36"/>
  </clipPath>
 </defs>
</svg>
