<?xml version="1.0" encoding="utf-8" standalone="no"?>
<!DOCTYPE svg PUBLIC "-//W3C//DTD SVG 1.1//EN"
  "http://www.w3.org/Graphics/SVG/1.1/DTD/svg11.dtd">
<svg xmlns:xlink="http://www.w3.org/1999/xlink" width="666pt" height="72pt" viewBox="0 0 666 72" xmlns="http://www.w3.org/2000/svg" version="1.1">
 <metadata>
  <rdf:RDF xmlns:dc="http://purl.org/dc/elements/1.1/" xmlns:cc="http://creativecommons.org/ns#" xmlns:rdf="http://www.w3.org/1999/02/22-rdf-syntax-ns#">
   <cc:Work>
    <dc:type rdf:resource="http://purl.org/dc/dcmitype/StillImage"/>
    <dc:date>2023-02-15T23:02:40.504936</dc:date>
    <dc:format>image/svg+xml</dc:format>
    <dc:creator>
     <cc:Agent>
      <dc:title>Matplotlib v3.6.1, https://matplotlib.org/</dc:title>
     </cc:Agent>
    </dc:creator>
   </cc:Work>
  </rdf:RDF>
 </metadata>
 <defs>
  <style type="text/css">*{stroke-linejoin: round; stroke-linecap: butt}</style>
 </defs>
 <g id="figure_1">
  <g id="patch_1">
   <path d="M 0 72 
L 666 72 
L 666 0 
L 0 0 
z
" style="fill: #8fff9f"/>
  </g>
  <g id="axes_1">
   <g id="patch_2">
    <path d="M 1.087248 30.470738 
L 2.261477 30.601208 
Q 4.088054 30.601208 5.925503 30.709933 
Q 7.762953 30.818658 10.002685 30.992617 
Q 12.242416 31.166577 13.677584 31.253557 
L 15.112752 31.123087 
M 7.871678 31.057852 
Q 7.936913 31.405772 7.675973 32.177718 
Q 7.415034 32.949664 7.610738 33.406309 
Q 7.610738 34.711007 7.752081 36.363624 
Q 7.893423 38.016242 8.110872 39.973289 
Q 8.328322 41.930336 8.393557 42.800134 
" clip-path="url(#p3bf9c71d1c)" style="fill: none; stroke: #000000; stroke-linejoin: miter"/>
   </g>
  </g>
  <g id="axes_2">
   <g id="patch_3">
    <path d="M 19.032703 35.332634 
L 29.379848 35.332634 
M 28.592566 39.344028 
Q 28.592566 39.344028 25.668372 39.344028 
Q 18.695297 39.344028 18.695297 44.5176 
Q 18.695297 46.279614 20.45731 47.19811 
Q 22.219324 48.116607 24.206276 48.116607 
Q 25.443434 47.891669 26.249462 47.2356 
Q 27.05549 46.579531 27.411641 45.586055 
Q 27.767793 44.592579 27.936497 43.674083 
Q 28.1052 42.755586 28.255159 41.443448 
Q 28.405117 40.13131 28.592566 39.344028 
Q 29.679766 46.092166 29.792234 47.029407 
L 29.904703 48.154097 
" clip-path="url(#p846a4879d7)" style="fill: none; stroke: #000000; stroke-linejoin: miter"/>
   </g>
  </g>
  <g id="axes_3"/>
  <g id="axes_4">
   <g id="patch_4">
    <path d="M 53.213462 35.932469 
Q 53.813297 35.257655 54.806772 34.826524 
Q 55.800248 34.395393 56.7 34.470372 
Q 57.337324 34.470372 57.82469 34.639076 
Q 58.312055 34.807779 58.630717 34.995228 
Q 58.949379 35.182676 59.174317 35.670041 
Q 59.399255 36.157407 59.511724 36.419834 
Q 59.624193 36.682262 59.680428 37.375821 
Q 59.736662 38.069379 59.755407 38.331807 
Q 59.774152 38.594234 59.755407 39.419007 
Q 59.736662 40.243779 59.736662 40.431228 
Q 59.736662 41.368469 59.567959 43.242952 
Q 59.399255 45.117434 59.399255 46.054676 
Q 59.399255 46.467062 59.45549 46.823214 
Q 59.511724 47.179366 59.605448 47.610497 
Q 59.699172 48.041628 59.736662 48.304055 
L 60.186538 48.528993 
M 53.663338 23.111007 
Q 53.888276 24.798041 53.888276 29.971614 
L 53.888276 42.3432 
L 53.550869 46.841959 
L 53.325931 47.74171 
" clip-path="url(#pa3e9124630)" style="fill: none; stroke: #000000; stroke-linejoin: miter"/>
   </g>
  </g>
  <g id="axes_5">
   <g id="patch_5">
    <path d="M 69.6384 34.357903 
Q 69.900828 34.395393 70.238234 33.795559 
Q 70.575641 33.195724 71.100497 33.345683 
L 75.599255 29.2968 
M 68.738648 40.656166 
L 68.963586 40.656166 
Q 69.67589 40.656166 71.23171 41.330979 
Q 72.787531 42.005793 73.687283 42.005793 
Q 76.386538 42.005793 76.386538 38.744193 
Q 76.386538 36.607283 73.012469 36.607283 
Q 71.137986 36.607283 70.050786 37.750717 
Q 68.963586 38.894152 68.963586 40.768634 
Q 68.963586 43.617848 70.294469 45.454841 
Q 71.625352 47.291834 74.362097 47.291834 
Q 75.824193 47.591752 77.061352 45.6048 
" clip-path="url(#p99c1039b22)" style="fill: none; stroke: #000000; stroke-linejoin: miter"/>
   </g>
  </g>
  <g id="axes_6"/>
  <g id="axes_7">
   <g id="patch_6">
    <path d="M 100.463834 37.95691 
L 101.138648 37.95691 
Q 101.850952 37.95691 102.638234 37.881931 
Q 103.425517 37.806952 104.381503 37.675738 
Q 105.33749 37.544524 105.862345 37.507034 
L 110.136166 35.82 
M 106.087283 30.42149 
L 106.087283 31.43371 
Q 106.087283 33.383172 105.412469 37.207117 
Q 104.737655 41.031062 104.737655 43.018014 
Q 104.737655 43.805297 104.737655 44.105214 
Q 104.737655 44.405131 104.831379 45.042455 
Q 104.925103 45.679779 105.112552 45.960952 
Q 105.3 46.242124 105.693641 46.485807 
Q 106.087283 46.72949 106.649628 46.72949 
Q 106.762097 46.692 107.080759 46.72949 
Q 107.399421 46.766979 107.586869 46.710745 
Q 107.774317 46.65451 107.774317 46.392083 
" clip-path="url(#pf28a4d4ddf)" style="fill: none; stroke: #000000; stroke-linejoin: miter"/>
   </g>
  </g>
  <g id="axes_8">
   <g id="patch_7">
    <path d="M 118.350869 35.182676 
Q 118.763255 34.69531 119.737986 33.851793 
Q 120.712717 33.008276 121.387531 32.220993 
Q 122.062345 31.43371 122.287283 30.458979 
L 123.524441 28.996883 
M 122.62469 38.219338 
Q 121.012634 37.656993 120.37531 37.769462 
Q 118.388359 37.769462 117.18869 39.0816 
Q 115.989021 40.393738 115.989021 42.493159 
Q 115.989021 45.454841 118.144676 47.123131 
Q 120.300331 48.791421 123.411972 48.791421 
Q 125.136497 48.791421 126.073738 47.27309 
Q 127.010979 45.754759 127.010979 43.842786 
Q 127.010979 42.755586 126.636083 41.83709 
Q 126.261186 40.918593 125.642607 39.887628 
Q 125.024028 38.856662 124.7616 38.219338 
L 121.837407 37.544524 
" clip-path="url(#pa798464e21)" style="fill: none; stroke: #000000; stroke-linejoin: miter"/>
   </g>
  </g>
  <g id="axes_9">
   <g id="patch_8">
    <path d="M 133.238731 37.282097 
L 133.238731 37.844441 
Q 133.501159 39.868883 133.538648 41.312234 
Q 133.576138 42.755586 133.482414 44.667559 
Q 133.38869 46.579531 133.38869 48.191586 
L 133.463669 39.643945 
Q 133.463669 38.144359 135.056979 37.507034 
Q 136.65029 36.86971 138.074897 37.282097 
Q 139.986869 37.844441 140.905366 39.04411 
Q 141.823862 40.243779 141.880097 41.668386 
Q 141.936331 43.092993 141.973821 44.817517 
Q 142.01131 46.542041 142.161269 48.191586 
" clip-path="url(#pf9b39df3cc)" style="fill: none; stroke: #000000; stroke-linejoin: miter"/>
   </g>
  </g>
  <g id="axes_10">
   <g id="patch_9">
    <path d="M 158.687191 39.096404 
Q 158.43236 39.023596 157.46764 38.623146 
Q 156.502921 38.222697 155.84764 38.077079 
Q 155.19236 37.931461 154.537079 38.00427 
Q 151.915955 38.00427 150.277753 40.388764 
Q 148.639551 42.773258 148.639551 45.430787 
Q 148.639551 47.068989 153.881798 47.068989 
Q 155.447191 47.068989 156.775955 45.558202 
Q 158.104719 44.047416 158.778202 42.172584 
Q 159.451685 40.297753 159.451685 38.768764 
Q 159.451685 37.27618 159.415281 36.984944 
L 159.342472 38.077079 
Q 159.342472 38.550337 159.342472 38.987191 
Q 159.378876 40.188539 159.579101 42.281798 
Q 159.779326 44.375056 159.943146 46.049663 
Q 160.106966 47.72427 160.143371 49.872135 
Q 160.179775 52.02 160.015955 53.658202 
Q 159.852135 55.296404 159.287865 56.971011 
Q 158.723596 58.645618 157.795281 59.737753 
Q 156.866966 60.829888 155.265169 61.521573 
Q 153.663371 62.213258 151.515506 62.213258 
Q 149.877303 62.213258 148.785169 61.466966 
Q 147.693034 60.720674 147.693034 59.155281 
Q 147.620225 58.936854 147.656629 58.936854 
Q 147.693034 58.936854 147.802247 58.936854 
Q 147.911461 58.936854 147.911461 58.82764 
" clip-path="url(#pd3a9688d3f)" style="fill: none; stroke: #000000; stroke-linejoin: miter"/>
   </g>
  </g>
  <g id="axes_11">
   <g id="patch_10">
    <path d="M 165.657476 43.917766 
Q 165.957393 44.180193 166.969614 45.154924 
Q 167.981834 46.129655 168.544179 46.560786 
Q 169.106524 46.991917 170.13749 47.385559 
Q 171.168455 47.7792 172.180676 47.629241 
Q 172.85549 47.629241 173.32411 47.404303 
Q 173.792731 47.179366 174.017669 46.879448 
Q 174.242607 46.579531 174.373821 45.979697 
Q 174.505034 45.379862 174.523779 44.967476 
Q 174.542524 44.55509 174.542524 43.805297 
Q 174.542524 42.718097 173.642772 42.043283 
Q 172.743021 41.368469 171.449628 41.031062 
Q 170.156234 40.693655 168.862841 40.300014 
Q 167.569448 39.906372 166.669697 38.987876 
Q 165.769945 38.069379 165.769945 36.607283 
Q 165.769945 36.082428 165.938648 35.726276 
Q 166.107352 35.370124 166.500993 35.145186 
Q 166.894634 34.920248 167.175807 34.807779 
Q 167.456979 34.69531 168.113048 34.639076 
Q 168.769117 34.582841 168.956566 34.582841 
Q 169.144014 34.582841 169.818828 34.582841 
Q 171.018497 34.582841 171.599586 34.995228 
Q 172.180676 35.407614 172.499338 36.026193 
Q 172.818 36.644772 173.080428 36.832221 
" clip-path="url(#pc676af3180)" style="fill: none; stroke: #000000; stroke-linejoin: miter"/>
   </g>
  </g>
  <g id="axes_12">
   <g id="patch_11">
    <path d="M 182.813462 35.932469 
Q 183.413297 35.257655 184.406772 34.826524 
Q 185.400248 34.395393 186.3 34.470372 
Q 186.937324 34.470372 187.42469 34.639076 
Q 187.912055 34.807779 188.230717 34.995228 
Q 188.549379 35.182676 188.774317 35.670041 
Q 188.999255 36.157407 189.111724 36.419834 
Q 189.224193 36.682262 189.280428 37.375821 
Q 189.336662 38.069379 189.355407 38.331807 
Q 189.374152 38.594234 189.355407 39.419007 
Q 189.336662 40.243779 189.336662 40.431228 
Q 189.336662 41.368469 189.167959 43.242952 
Q 188.999255 45.117434 188.999255 46.054676 
Q 188.999255 46.467062 189.05549 46.823214 
Q 189.111724 47.179366 189.205448 47.610497 
Q 189.299172 48.041628 189.336662 48.304055 
L 189.786538 48.528993 
M 183.263338 23.111007 
Q 183.488276 24.798041 183.488276 29.971614 
L 183.488276 42.3432 
L 183.150869 46.841959 
L 182.925931 47.74171 
" clip-path="url(#p9dcbb7b786)" style="fill: none; stroke: #000000; stroke-linejoin: miter"/>
   </g>
  </g>
  <g id="axes_13">
   <g id="patch_12">
    <path d="M 200.213131 30.384 
L 203.474731 34.657821 
M 203.137324 37.019669 
L 202.874897 41.743366 
Q 202.987366 42.268221 203.118579 43.749062 
Q 203.249793 45.229903 203.5872 46.1484 
Q 203.924607 47.066897 204.786869 47.591752 
" clip-path="url(#pa322e70625)" style="fill: none; stroke: #000000; stroke-linejoin: miter"/>
   </g>
  </g>
  <g id="axes_14"/>
  <g id="axes_15">
   <g id="patch_13">
    <path d="M 234.506359 28.621986 
Q 234.731297 30.34651 234.806276 32.146014 
Q 234.881255 33.945517 234.86251 36.551048 
Q 234.843766 39.156579 234.843766 40.093821 
Q 234.843766 40.13131 235.068703 45.829738 
L 235.293641 46.841959 
" clip-path="url(#p2ab6df7945)" style="fill: none; stroke: #000000; stroke-linejoin: miter"/>
   </g>
  </g>
  <g id="axes_16">
   <g id="patch_14">
    <path d="M 251.718579 29.071862 
Q 251.343683 29.146841 251.212469 29.577972 
Q 251.081255 30.009103 251.156234 30.42149 
Q 251.156234 30.571448 251.193724 30.702662 
Q 251.231214 30.833876 251.287448 30.89011 
Q 251.343683 30.946345 251.399917 31.040069 
Q 251.456152 31.133793 251.493641 31.208772 
L 251.60611 29.859145 
M 251.60611 34.020497 
Q 250.706359 39.006621 250.481421 42.793076 
L 250.931297 45.379862 
L 251.268703 46.054676 
" clip-path="url(#pd5f56614f6)" style="fill: none; stroke: #000000; stroke-linejoin: miter"/>
   </g>
  </g>
  <g id="axes_17">
   <g id="patch_15">
    <path d="M 264.319572 33.795559 
L 264.319572 33.570621 
Q 264.319572 33.383172 264.375807 33.289448 
Q 264.432041 33.195724 264.507021 33.13949 
Q 264.582 33.083255 264.731959 32.989531 
Q 264.881917 32.895807 264.994386 32.783338 
L 269.155738 28.059641 
M 271.06771 37.619503 
L 267.918579 37.619503 
Q 267.80611 37.656993 267.543683 37.731972 
Q 264.319572 38.669214 263.419821 39.381517 
Q 261.882745 40.731145 261.845255 44.142703 
Q 261.845255 45.267393 262.707517 46.167145 
Q 263.569779 47.066897 264.656979 47.066897 
Q 265.519241 46.954428 266.306524 46.485807 
Q 267.093807 46.017186 267.599917 45.473586 
Q 268.106028 44.929986 268.649628 43.93651 
Q 269.193228 42.943034 269.4744 42.324455 
Q 269.755572 41.705876 270.205448 40.543697 
Q 270.655324 39.381517 270.842772 38.969131 
Q 271.180179 38.144359 271.292648 38.200593 
Q 271.405117 38.256828 271.292648 39.456497 
L 271.180179 40.993572 
Q 271.180179 41.031062 271.517586 44.705048 
L 272.754745 47.066897 
" clip-path="url(#p1ee85bbb0e)" style="fill: none; stroke: #000000; stroke-linejoin: miter"/>
   </g>
  </g>
  <g id="axes_18">
   <g id="patch_16">
    <path d="M 286.7616 35.032717 
Q 285.71189 34.582841 284.737159 34.69531 
Q 281.700497 35.032717 279.788524 36.701007 
Q 277.876552 38.369297 277.876552 41.330979 
Q 277.876552 43.917766 279.882248 45.6048 
Q 281.887945 47.291834 284.512221 47.291834 
Q 286.874069 47.291834 287.998759 45.361117 
Q 289.123448 43.4304 289.123448 40.881103 
Q 289.123448 39.643945 288.711062 38.706703 
Q 288.298676 37.769462 287.773821 37.300841 
Q 287.248966 36.832221 286.499172 36.119917 
Q 285.749379 35.407614 285.299503 34.69531 
L 284.062345 34.245434 
" clip-path="url(#pbe04e2c3e6)" style="fill: none; stroke: #000000; stroke-linejoin: miter"/>
   </g>
  </g>
  <g id="axes_19">
   <g id="patch_17">
    <path d="M 294.8076 35.032717 
Q 294.8076 35.032717 298.181669 35.032717 
Q 298.294138 35.032717 300.037407 34.826524 
Q 301.780676 34.620331 302.792897 34.789034 
Q 303.805117 34.957738 303.805117 35.707531 
Q 303.805117 36.86971 302.792897 38.144359 
Q 301.780676 39.419007 300.318579 40.506207 
Q 298.856483 41.593407 297.394386 42.605628 
Q 295.93229 43.617848 294.920069 44.573834 
Q 293.907848 45.529821 293.907848 46.279614 
L 295.032538 46.279614 
Q 295.070028 46.279614 297.281917 46.054676 
L 305.492152 45.942207 
" clip-path="url(#p4b892adcc2)" style="fill: none; stroke: #000000; stroke-linejoin: miter"/>
   </g>
  </g>
  <g id="axes_20">
   <g id="patch_18">
    <path d="M 312.413462 35.932469 
Q 313.013297 35.257655 314.006772 34.826524 
Q 315.000248 34.395393 315.9 34.470372 
Q 316.537324 34.470372 317.02469 34.639076 
Q 317.512055 34.807779 317.830717 34.995228 
Q 318.149379 35.182676 318.374317 35.670041 
Q 318.599255 36.157407 318.711724 36.419834 
Q 318.824193 36.682262 318.880428 37.375821 
Q 318.936662 38.069379 318.955407 38.331807 
Q 318.974152 38.594234 318.955407 39.419007 
Q 318.936662 40.243779 318.936662 40.431228 
Q 318.936662 41.368469 318.767959 43.242952 
Q 318.599255 45.117434 318.599255 46.054676 
Q 318.599255 46.467062 318.65549 46.823214 
Q 318.711724 47.179366 318.805448 47.610497 
Q 318.899172 48.041628 318.936662 48.304055 
L 319.386538 48.528993 
M 312.863338 23.111007 
Q 313.088276 24.798041 313.088276 29.971614 
L 313.088276 42.3432 
L 312.750869 46.841959 
L 312.525931 47.74171 
" clip-path="url(#p153749ef47)" style="fill: none; stroke: #000000; stroke-linejoin: miter"/>
   </g>
  </g>
  <g id="axes_21">
   <g id="patch_19">
    <path d="M 325.857798 38.160826 
Q 328.830275 39.535596 333.549083 39.721376 
Q 335.072477 39.721376 335.759862 38.550963 
Q 336.447248 37.38055 336.447248 35.82 
Q 336.447248 35.299817 336.354358 34.909679 
Q 336.261468 34.519541 336.019954 34.296606 
Q 335.77844 34.07367 335.611239 33.943624 
Q 335.444037 33.813578 334.998165 33.757844 
Q 334.552294 33.70211 334.347936 33.683532 
Q 334.143578 33.664954 333.567661 33.683532 
Q 332.991743 33.70211 332.768807 33.70211 
Q 330.725229 33.70211 329.238991 35.578486 
Q 327.752752 37.454862 327.752752 39.609908 
Q 327.752752 42.619541 329.684862 44.570229 
Q 331.616972 46.520917 334.663761 46.520917 
Q 336.818807 46.818165 338.342202 44.29156 
" clip-path="url(#pde68bce104)" style="fill: none; stroke: #000000; stroke-linejoin: miter"/>
   </g>
  </g>
  <g id="axes_22"/>
  <g id="axes_23">
   <g id="patch_20">
    <path d="M 359.663834 37.95691 
L 360.338648 37.95691 
Q 361.050952 37.95691 361.838234 37.881931 
Q 362.625517 37.806952 363.581503 37.675738 
Q 364.53749 37.544524 365.062345 37.507034 
L 369.336166 35.82 
M 365.287283 30.42149 
L 365.287283 31.43371 
Q 365.287283 33.383172 364.612469 37.207117 
Q 363.937655 41.031062 363.937655 43.018014 
Q 363.937655 43.805297 363.937655 44.105214 
Q 363.937655 44.405131 364.031379 45.042455 
Q 364.125103 45.679779 364.312552 45.960952 
Q 364.5 46.242124 364.893641 46.485807 
Q 365.287283 46.72949 365.849628 46.72949 
Q 365.962097 46.692 366.280759 46.72949 
Q 366.599421 46.766979 366.786869 46.710745 
Q 366.974317 46.65451 366.974317 46.392083 
" clip-path="url(#pe5979947e4)" style="fill: none; stroke: #000000; stroke-linejoin: miter"/>
   </g>
  </g>
  <g id="axes_24">
   <g id="patch_21">
    <path d="M 375.432703 35.332634 
L 385.779848 35.332634 
M 384.992566 39.344028 
Q 384.992566 39.344028 382.068372 39.344028 
Q 375.095297 39.344028 375.095297 44.5176 
Q 375.095297 46.279614 376.85731 47.19811 
Q 378.619324 48.116607 380.606276 48.116607 
Q 381.843434 47.891669 382.649462 47.2356 
Q 383.45549 46.579531 383.811641 45.586055 
Q 384.167793 44.592579 384.336497 43.674083 
Q 384.5052 42.755586 384.655159 41.443448 
Q 384.805117 40.13131 384.992566 39.344028 
Q 386.079766 46.092166 386.192234 47.029407 
L 386.304703 48.154097 
" clip-path="url(#pc1f35133ee)" style="fill: none; stroke: #000000; stroke-linejoin: miter"/>
   </g>
  </g>
  <g id="axes_25">
   <g id="patch_22">
    <path d="M 390.608036 34.879821 
Q 391.114286 36.073125 391.403571 42.871339 
Q 391.548214 46.632054 391.8375 46.632054 
Q 391.873661 46.632054 391.909821 46.595893 
Q 392.416071 46.017321 392.470312 44.588973 
Q 392.524554 43.160625 392.307589 41.750357 
Q 392.090625 40.340089 391.8375 38.712857 
Q 391.584375 37.085625 391.584375 36.398571 
Q 391.584375 35.169107 391.964062 33.939643 
Q 392.34375 32.710179 393.320089 32.710179 
Q 394.549554 32.710179 395.272768 34.355491 
Q 395.995982 36.000804 396.158705 37.971562 
Q 396.321429 39.942321 396.429911 41.587634 
Q 396.538393 43.232946 396.683036 43.232946 
Q 396.827679 43.232946 396.91808 41.497232 
Q 397.008482 39.761518 397.135045 37.700357 
Q 397.261607 35.639196 397.984821 33.903482 
Q 398.708036 32.167768 399.9375 32.167768 
Q 401.492411 33.035625 402.161384 34.771339 
Q 402.830357 36.507054 402.794196 38.188527 
Q 402.758036 39.87 402.776116 42.057723 
Q 402.794196 44.245446 403.191964 45.511071 
" clip-path="url(#p3bb0325bd6)" style="fill: none; stroke: #000000; stroke-linejoin: miter"/>
   </g>
  </g>
  <g id="axes_26">
   <g id="patch_23">
    <path d="M 406.857798 38.160826 
Q 409.830275 39.535596 414.549083 39.721376 
Q 416.072477 39.721376 416.759862 38.550963 
Q 417.447248 37.38055 417.447248 35.82 
Q 417.447248 35.299817 417.354358 34.909679 
Q 417.261468 34.519541 417.019954 34.296606 
Q 416.77844 34.07367 416.611239 33.943624 
Q 416.444037 33.813578 415.998165 33.757844 
Q 415.552294 33.70211 415.347936 33.683532 
Q 415.143578 33.664954 414.567661 33.683532 
Q 413.991743 33.70211 413.768807 33.70211 
Q 411.725229 33.70211 410.238991 35.578486 
Q 408.752752 37.454862 408.752752 39.609908 
Q 408.752752 42.619541 410.684862 44.570229 
Q 412.616972 46.520917 415.663761 46.520917 
Q 417.818807 46.818165 419.342202 44.29156 
" clip-path="url(#p8609c6ac32)" style="fill: none; stroke: #000000; stroke-linejoin: miter"/>
   </g>
  </g>
  <g id="axes_27">
   <g id="patch_24">
    <path d="M 424.838731 37.282097 
L 424.838731 37.844441 
Q 425.101159 39.868883 425.138648 41.312234 
Q 425.176138 42.755586 425.082414 44.667559 
Q 424.98869 46.579531 424.98869 48.191586 
L 425.063669 39.643945 
Q 425.063669 38.144359 426.656979 37.507034 
Q 428.25029 36.86971 429.674897 37.282097 
Q 431.586869 37.844441 432.505366 39.04411 
Q 433.423862 40.243779 433.480097 41.668386 
Q 433.536331 43.092993 433.573821 44.817517 
Q 433.61131 46.542041 433.761269 48.191586 
" clip-path="url(#p318539e7a4)" style="fill: none; stroke: #000000; stroke-linejoin: miter"/>
   </g>
  </g>
  <g id="axes_28"/>
  <g id="axes_29">
   <g id="patch_25">
    <path d="M 456.8076 35.032717 
Q 456.8076 35.032717 460.181669 35.032717 
Q 460.294138 35.032717 462.037407 34.826524 
Q 463.780676 34.620331 464.792897 34.789034 
Q 465.805117 34.957738 465.805117 35.707531 
Q 465.805117 36.86971 464.792897 38.144359 
Q 463.780676 39.419007 462.318579 40.506207 
Q 460.856483 41.593407 459.394386 42.605628 
Q 457.93229 43.617848 456.920069 44.573834 
Q 455.907848 45.529821 455.907848 46.279614 
L 457.032538 46.279614 
Q 457.070028 46.279614 459.281917 46.054676 
L 467.492152 45.942207 
" clip-path="url(#pbcf80b6b14)" style="fill: none; stroke: #000000; stroke-linejoin: miter"/>
   </g>
  </g>
  <g id="axes_30">
   <g id="patch_26">
    <path d="M 473.288772 35.145186 
Q 473.288772 35.145186 473.288772 35.595062 
Q 473.288772 36.269876 473.176303 37.619503 
Q 473.063834 38.969131 473.063834 39.643945 
Q 473.063834 41.930814 474.300993 43.599103 
Q 475.538152 45.267393 477.675062 45.267393 
Q 479.062179 45.154924 479.830717 43.917766 
Q 480.599255 42.680607 480.749214 41.237255 
Q 480.899172 39.793903 481.1616 37.9944 
Q 481.424028 36.194897 481.836414 35.370124 
Q 481.986372 35.070207 481.986372 35.670041 
Q 481.986372 36.269876 481.723945 38.706703 
Q 481.499007 41.031062 481.499007 41.555917 
Q 481.349048 42.643117 481.686455 43.767807 
Q 482.023862 44.892497 482.736166 45.6048 
" clip-path="url(#pdd8ecd3b07)" style="fill: none; stroke: #000000; stroke-linejoin: miter"/>
   </g>
  </g>
  <g id="axes_31">
   <g id="patch_27">
    <path d="M 491.813131 30.384 
L 495.074731 34.657821 
M 494.737324 37.019669 
L 494.474897 41.743366 
Q 494.587366 42.268221 494.718579 43.749062 
Q 494.849793 45.229903 495.1872 46.1484 
Q 495.524607 47.066897 496.386869 47.591752 
" clip-path="url(#p0c1dc8a500)" style="fill: none; stroke: #000000; stroke-linejoin: miter"/>
   </g>
  </g>
  <g id="axes_32">
   <g id="patch_28">
    <path d="M 510.656152 30.309021 
Q 510.168786 30.42149 510.581172 30.833876 
Q 510.956069 31.208772 511.031048 30.946345 
Q 511.068538 30.871366 510.993559 30.646428 
Q 510.993559 30.458979 510.918579 30.42149 
Q 510.8436 30.384 510.712386 30.42149 
Q 510.581172 30.458979 510.431214 30.42149 
L 510.318745 30.646428 
M 511.218497 33.345683 
Q 512.268207 37.731972 512.793062 40.13131 
Q 513.317917 42.530648 513.767793 46.317103 
Q 514.217669 50.103559 514.030221 53.25269 
Q 514.030221 53.440138 514.030221 54.021228 
Q 514.030221 54.602317 514.030221 54.902234 
Q 514.030221 55.202152 514.011476 55.783241 
Q 513.992731 56.364331 513.917752 56.701738 
Q 513.842772 57.039145 513.730303 57.52651 
Q 513.617834 58.013876 513.411641 58.313793 
Q 513.205448 58.61371 512.943021 58.894883 
Q 512.680593 59.176055 512.305697 59.307269 
Q 511.9308 59.438483 511.443434 59.438483 
Q 510.468703 59.438483 509.71891 59.251034 
Q 508.969117 59.063586 508.106855 58.707434 
Q 507.244593 58.351283 506.607269 58.201324 
L 506.382331 57.751448 
" clip-path="url(#pd54a00c69f)" style="fill: none; stroke: #000000; stroke-linejoin: miter"/>
   </g>
  </g>
  <g id="axes_33">
   <g id="patch_29">
    <path d="M 524.213131 30.384 
L 527.474731 34.657821 
M 527.137324 37.019669 
L 526.874897 41.743366 
Q 526.987366 42.268221 527.118579 43.749062 
Q 527.249793 45.229903 527.5872 46.1484 
Q 527.924607 47.066897 528.786869 47.591752 
" clip-path="url(#p971f8582eb)" style="fill: none; stroke: #000000; stroke-linejoin: miter"/>
   </g>
  </g>
  <g id="axes_34">
   <g id="patch_30">
    <path d="M 538.238731 37.282097 
L 538.238731 37.844441 
Q 538.501159 39.868883 538.538648 41.312234 
Q 538.576138 42.755586 538.482414 44.667559 
Q 538.38869 46.579531 538.38869 48.191586 
L 538.463669 39.643945 
Q 538.463669 38.144359 540.056979 37.507034 
Q 541.65029 36.86971 543.074897 37.282097 
Q 544.986869 37.844441 545.905366 39.04411 
Q 546.823862 40.243779 546.880097 41.668386 
Q 546.936331 43.092993 546.973821 44.817517 
Q 547.01131 46.542041 547.161269 48.191586 
" clip-path="url(#p2d186f1356)" style="fill: none; stroke: #000000; stroke-linejoin: miter"/>
   </g>
  </g>
  <g id="axes_35"/>
  <g id="axes_36">
   <g id="patch_31">
    <path d="M 578.699007 39.568966 
Q 577.349379 38.181848 575.1 38.444276 
Q 572.250786 38.444276 571.088607 39.793903 
Q 569.926428 41.143531 569.926428 44.067724 
Q 569.926428 45.56731 571.219821 46.279614 
Q 572.513214 46.991917 574.087779 46.991917 
Q 575.399917 46.991917 576.412138 45.736014 
Q 577.424359 44.48011 578.005448 42.30571 
Q 578.586538 40.13131 578.961434 37.938166 
Q 579.336331 35.745021 579.48629 33.045766 
Q 579.636248 30.34651 579.673738 28.978138 
Q 579.711228 27.609766 579.711228 26.185159 
Q 579.48629 26.260138 579.48629 29.896634 
L 579.48629 44.292662 
L 580.273572 48.229076 
" clip-path="url(#pf0a83ea23f)" style="fill: none; stroke: #000000; stroke-linejoin: miter"/>
   </g>
  </g>
  <g id="axes_37">
   <g id="patch_32">
    <path d="M 585.057798 38.160826 
Q 588.030275 39.535596 592.749083 39.721376 
Q 594.272477 39.721376 594.959862 38.550963 
Q 595.647248 37.38055 595.647248 35.82 
Q 595.647248 35.299817 595.554358 34.909679 
Q 595.461468 34.519541 595.219954 34.296606 
Q 594.97844 34.07367 594.811239 33.943624 
Q 594.644037 33.813578 594.198165 33.757844 
Q 593.752294 33.70211 593.547936 33.683532 
Q 593.343578 33.664954 592.767661 33.683532 
Q 592.191743 33.70211 591.968807 33.70211 
Q 589.925229 33.70211 588.438991 35.578486 
Q 586.952752 37.454862 586.952752 39.609908 
Q 586.952752 42.619541 588.884862 44.570229 
Q 590.816972 46.520917 593.863761 46.520917 
Q 596.018807 46.818165 597.542202 44.29156 
" clip-path="url(#p491df7ea09)" style="fill: none; stroke: #000000; stroke-linejoin: miter"/>
   </g>
  </g>
 </g>
 <defs>
  <clipPath id="p3bf9c71d1c">
   <rect x="0" y="20.054899" width="16.2" height="31.530201"/>
  </clipPath>
  <clipPath id="p846a4879d7">
   <rect x="16.820814" y="8.64" width="14.958372" height="54.36"/>
  </clipPath>
  <clipPath id="pa3e9124630">
   <rect x="51.338979" y="8.64" width="10.722041" height="54.36"/>
  </clipPath>
  <clipPath id="p99c1039b22">
   <rect x="66.864166" y="8.64" width="12.071669" height="54.36"/>
  </clipPath>
  <clipPath id="pf28a4d4ddf">
   <rect x="98.589352" y="8.64" width="13.421297" height="54.36"/>
  </clipPath>
  <clipPath id="pa798464e21">
   <rect x="114.114538" y="8.64" width="14.770924" height="54.36"/>
  </clipPath>
  <clipPath id="pf9b39df3cc">
   <rect x="131.364248" y="8.64" width="12.671503" height="54.36"/>
  </clipPath>
  <clipPath id="pd3a9688d3f">
   <rect x="145.8" y="9.426742" width="16.2" height="52.786517"/>
  </clipPath>
  <clipPath id="pc676af3180">
   <rect x="163.782993" y="8.64" width="12.634014" height="54.36"/>
  </clipPath>
  <clipPath id="p9dcbb7b786">
   <rect x="180.938979" y="8.64" width="10.722041" height="54.36"/>
  </clipPath>
  <clipPath id="pa322e70625">
   <rect x="198.338648" y="8.64" width="8.322703" height="54.36"/>
  </clipPath>
  <clipPath id="p2ab6df7945">
   <rect x="232.631876" y="8.64" width="4.536248" height="54.36"/>
  </clipPath>
  <clipPath id="pd5f56614f6">
   <rect x="248.606938" y="8.64" width="4.986124" height="54.36"/>
  </clipPath>
  <clipPath id="p1ee85bbb0e">
   <rect x="259.970772" y="8.64" width="14.658455" height="54.36"/>
  </clipPath>
  <clipPath id="pbe04e2c3e6">
   <rect x="276.002069" y="8.64" width="14.995862" height="54.36"/>
  </clipPath>
  <clipPath id="p4b892adcc2">
   <rect x="292.033366" y="8.64" width="15.333269" height="54.36"/>
  </clipPath>
  <clipPath id="p153749ef47">
   <rect x="310.538979" y="8.64" width="10.722041" height="54.36"/>
  </clipPath>
  <clipPath id="pde68bce104">
   <rect x="324" y="8.881927" width="16.2" height="53.876147"/>
  </clipPath>
  <clipPath id="pe5979947e4">
   <rect x="357.789352" y="8.64" width="13.421297" height="54.36"/>
  </clipPath>
  <clipPath id="pc1f35133ee">
   <rect x="373.220814" y="8.64" width="14.958372" height="54.36"/>
  </clipPath>
  <clipPath id="p3bb0325bd6">
   <rect x="388.8" y="9.603482" width="16.2" height="52.433036"/>
  </clipPath>
  <clipPath id="p8609c6ac32">
   <rect x="405" y="8.881927" width="16.2" height="53.876147"/>
  </clipPath>
  <clipPath id="p318539e7a4">
   <rect x="422.964248" y="8.64" width="12.671503" height="54.36"/>
  </clipPath>
  <clipPath id="pbcf80b6b14">
   <rect x="454.033366" y="8.64" width="15.333269" height="54.36"/>
  </clipPath>
  <clipPath id="pdd8ecd3b07">
   <rect x="471.189352" y="8.64" width="13.421297" height="54.36"/>
  </clipPath>
  <clipPath id="p0c1dc8a500">
   <rect x="489.938648" y="8.64" width="8.322703" height="54.36"/>
  </clipPath>
  <clipPath id="pd54a00c69f">
   <rect x="504.507848" y="8.64" width="11.584303" height="54.36"/>
  </clipPath>
  <clipPath id="p971f8582eb">
   <rect x="522.338648" y="8.64" width="8.322703" height="54.36"/>
  </clipPath>
  <clipPath id="p2d186f1356">
   <rect x="536.364248" y="8.64" width="12.671503" height="54.36"/>
  </clipPath>
  <clipPath id="pf0a83ea23f">
   <rect x="568.051945" y="8.64" width="14.09611" height="54.36"/>
  </clipPath>
  <clipPath id="p491df7ea09">
   <rect x="583.2" y="8.881927" width="16.2" height="53.876147"/>
  </clipPath>
 </defs>
</svg>
