<?xml version="1.0" encoding="utf-8" standalone="no"?>
<!DOCTYPE svg PUBLIC "-//W3C//DTD SVG 1.1//EN"
  "http://www.w3.org/Graphics/SVG/1.1/DTD/svg11.dtd">
<svg xmlns:xlink="http://www.w3.org/1999/xlink" width="202.5pt" height="162pt" viewBox="0 0 202.5 162" xmlns="http://www.w3.org/2000/svg" version="1.1">
 <metadata>
  <rdf:RDF xmlns:dc="http://purl.org/dc/elements/1.1/" xmlns:cc="http://creativecommons.org/ns#" xmlns:rdf="http://www.w3.org/1999/02/22-rdf-syntax-ns#">
   <cc:Work>
    <dc:type rdf:resource="http://purl.org/dc/dcmitype/StillImage"/>
    <dc:date>2023-02-15T23:02:41.760617</dc:date>
    <dc:format>image/svg+xml</dc:format>
    <dc:creator>
     <cc:Agent>
      <dc:title>Matplotlib v3.6.1, https://matplotlib.org/</dc:title>
     </cc:Agent>
    </dc:creator>
   </cc:Work>
  </rdf:RDF>
 </metadata>
 <defs>
  <style type="text/css">*{stroke-linejoin: round; stroke-linecap: butt}</style>
 </defs>
 <g id="figure_1">
  <g id="patch_1">
   <path d="M 0 162 
L 202.5 162 
L 202.5 0 
L 0 0 
z
" style="fill: #8fff9f"/>
  </g>
  <g id="axes_1">
   <g id="patch_2">
    <path d="M 17.126005 79.358631 
Q 19.095038 78.580176 23.170477 78.328323 
Q 27.245917 78.07647 29.077575 77.526972 
L 34.160427 76.748518 
M 26.330088 70.017173 
Q 26.513254 70.704045 26.444567 72.879139 
Q 26.375879 75.054234 26.879585 75.786897 
L 27.01696 94.057688 
M 21.934108 71.116168 
Q 21.888317 71.574083 21.934108 72.077789 
Q 21.934108 74.687902 21.842525 76.290603 
Q 21.750942 77.893304 21.361715 80.045503 
Q 20.972487 82.197701 20.010867 83.960672 
Q 19.049246 85.723643 17.538128 87.18897 
L 16.02701 88.287965 
M 19.323995 71.390917 
L 19.873492 71.390917 
Q 21.018279 71.390917 22.30044 71.207751 
Q 23.582601 71.024585 25.162406 70.726941 
Q 26.742211 70.429296 27.566457 70.291922 
L 30.313945 70.017173 
M 6.27343 82.976156 
L 13.600063 82.701407 
L 14.561683 82.564033 
M 6.136055 76.611143 
L 12.775817 76.061646 
L 14.286935 75.786897 
L 13.600063 83.11353 
M 5.586558 77.023266 
Q 6.090264 77.252224 6.387908 78.030678 
Q 6.685553 78.809133 6.937406 79.95392 
Q 7.189259 81.098706 7.372425 81.602412 
M 8.746168 71.528291 
Q 6.090264 77.114849 3.800691 80.045503 
Q 3.571734 80.503417 2.99934 81.258976 
Q 2.426947 82.014535 2.289573 82.243492 
M 4.624937 71.665666 
L 6.685553 71.665666 
Q 10.944158 71.711457 14.515892 70.978794 
" clip-path="url(#p57acc459b8)" style="fill: none; stroke: #000000; stroke-linejoin: miter"/>
   </g>
  </g>
  <g id="axes_2">
   <g id="patch_3">
    <path d="M 43.554198 84.201747 
Q 44.865742 84.201747 47.379535 83.409355 
Q 49.893328 82.616964 51.095577 82.562316 
L 58.527661 80.758943 
Q 58.527661 82.562316 57.352736 86.742864 
Q 56.177811 90.923411 56.177811 93.000022 
Q 56.177811 93.76509 56.560345 94.311567 
Q 56.942879 94.858043 57.653298 95.18593 
Q 58.363718 95.513816 59.101462 95.705082 
Q 59.839205 95.896349 60.932159 95.950997 
Q 62.025112 96.005645 62.735532 96.005645 
Q 63.445952 96.005645 64.484258 95.978321 
Q 65.522564 95.950997 65.85045 95.950997 
Q 67.817766 96.333531 68.992691 94.420862 
Q 70.167616 92.508193 69.785082 90.540877 
M 51.25952 76.988253 
L 51.25952 77.644025 
Q 51.25952 79.829933 50.057271 82.780907 
Q 48.855022 85.731882 47.133621 89.038066 
Q 45.412219 92.34425 44.865742 93.819738 
L 43.390255 95.295225 
M 56.833583 74.693051 
Q 56.724288 74.47446 56.997526 74.529108 
Q 57.270765 74.529108 57.325412 74.529108 
Q 57.926537 74.802346 57.981184 74.856994 
L 61.423988 78.791627 
M 48.144603 74.201222 
Q 47.816717 74.583756 47.024325 75.321499 
Q 46.231934 76.059243 45.8494 76.496424 
L 43.062369 77.807969 
M 50.111919 66.168013 
Q 50.439805 66.058718 50.931634 66.386604 
Q 51.423463 66.71449 52.051912 67.260967 
Q 52.68036 67.807444 52.898951 67.971387 
Q 53.226837 67.916739 53.199513 68.189978 
Q 53.172189 68.463216 53.39078 68.627159 
M 39.838156 72.069963 
L 53.062894 71.742076 
L 63.883133 70.594475 
Q 64.484258 70.430532 64.538906 70.430532 
Q 64.812144 70.430532 64.839468 70.539828 
Q 64.866792 70.649123 64.866792 71.086304 
L 64.702849 72.069963 
L 63.71919 74.201222 
M 40.985757 69.282931 
L 39.182384 75.840652 
" clip-path="url(#p1ed1a12687)" style="fill: none; stroke: #000000; stroke-linejoin: miter"/>
   </g>
  </g>
  <g id="axes_3">
   <g id="patch_4">
    <path d="M 78.900612 69.040102 
Q 78.950204 69.387245 79.718878 69.53602 
Q 80.487551 69.684796 80.537143 70.230306 
L 83.95898 73.057041 
M 85.198776 84.11602 
L 85.942653 84.11602 
Q 87.182449 84.11602 88.595816 83.917653 
Q 90.009184 83.719286 91.744898 83.396939 
Q 93.480612 83.074592 94.422857 82.925816 
L 103.597347 82.033163 
M 88.02551 76.578061 
L 99.134082 75.536633 
L 102.109592 74.941531 
M 97.398367 71.222143 
L 97.348776 90.562959 
L 97.497551 91.455612 
M 91.00102 73.602551 
L 91.596122 77.024388 
L 91.447347 82.033163 
Q 90.058776 87.587449 86.984082 89.670306 
M 75.379592 94.728673 
L 78.206327 93.240918 
Q 78.702245 92.992959 79.173367 92.819388 
Q 79.64449 92.645816 79.942041 92.546633 
Q 80.239592 92.447449 80.760306 92.422653 
Q 81.28102 92.397857 81.52898 92.373061 
Q 81.776939 92.348265 82.49602 92.348265 
Q 83.215102 92.348265 83.562245 92.348265 
Q 84.950816 92.100306 86.240204 92.298673 
Q 87.529592 92.497041 89.414082 93.166531 
Q 91.298571 93.83602 91.893673 93.984796 
Q 94.621224 94.728673 98.142245 94.728673 
Q 98.191837 94.728673 102.307959 94.282347 
L 106.870408 91.901939 
M 75.379592 78.71051 
Q 76.321837 78.412959 78.379898 78.016224 
Q 80.437959 77.61949 81.033061 77.470714 
L 84.454898 77.173163 
L 81.925714 80.595 
L 79.694082 82.826633 
Q 79.396531 83.520918 79.396531 83.57051 
L 79.396531 83.868061 
L 82.372041 92.19949 
" clip-path="url(#p3229344a67)" style="fill: none; stroke: #000000; stroke-linejoin: miter"/>
   </g>
  </g>
  <g id="axes_4">
   <g id="patch_5">
    <path d="M 133.35037 90.842349 
L 133.889704 90.842349 
Q 134.114427 90.842349 134.9459 90.527737 
Q 135.777374 90.213126 137.058292 89.494014 
Q 138.339211 88.774901 139.193157 87.920956 
M 127.642417 85.044507 
Q 129.035697 85.718674 130.294143 87.089482 
Q 131.552589 88.46029 132.541369 89.85357 
Q 133.530148 91.24685 134.653761 92.595185 
Q 135.777374 93.94352 137.395376 94.887355 
Q 139.013379 95.83119 141.035882 95.966023 
M 124.451356 85.718674 
L 124.451356 87.201843 
Q 124.451356 88.685012 124.046856 91.65135 
Q 123.642355 94.617688 123.642355 96.100857 
Q 123.642355 95.966023 124.0918 95.606467 
Q 124.541245 95.246911 125.237885 94.774994 
Q 125.934525 94.303076 126.069359 94.213187 
L 129.035697 92.864852 
M 119.597349 85.718674 
Q 132.002035 84.370339 143.552774 83.965838 
M 122.923243 80.595 
L 140.811159 79.246665 
M 134.653761 75.740993 
Q 134.24926 77.179217 133.979593 80.752306 
Q 133.709926 84.325395 133.664982 84.505173 
M 127.013194 77.224162 
Q 127.058138 78.212941 127.148027 78.437663 
L 127.282861 84.370339 
M 120.676017 75.02188 
Q 122.114242 75.02188 122.563687 74.887047 
L 138.968434 73.403878 
M 121.350185 69.134149 
L 122.024353 69.134149 
Q 123.552466 69.134149 126.653637 68.729649 
Q 129.754809 68.325148 131.327867 68.325148 
L 132.676202 68.325148 
Q 133.440259 68.010536 133.530148 68.055481 
Q 133.664982 68.14537 134.384094 68.055481 
Q 134.74365 68.010536 135.597596 67.830758 
Q 138.024599 67.24648 138.294266 67.830758 
Q 138.474044 68.280203 137.889766 69.268983 
L 137.889766 70.482485 
L 137.350432 73.538711 
M 121.485018 68.190314 
Q 121.170407 72.774655 120.69849 76.167965 
Q 120.226572 79.561276 119.215321 83.606282 
Q 118.204069 87.651289 116.293927 90.909766 
Q 114.383785 94.168243 111.597226 96.505358 
" clip-path="url(#p25f256d09c)" style="fill: none; stroke: #000000; stroke-linejoin: miter"/>
   </g>
  </g>
  <g id="axes_5">
   <g id="patch_6">
    <path d="M 160.735283 83.125552 
Q 160.819634 83.294255 161.410097 83.842541 
Q 162.000559 84.390828 162.253614 84.643883 
Q 162.506669 84.896938 163.054955 85.529576 
Q 163.603241 86.162214 163.940648 86.541797 
Q 164.278055 86.921379 164.784166 87.596193 
Q 165.290276 88.271007 165.585507 88.734941 
Q 165.880738 89.198876 166.218145 89.87369 
Q 166.555552 90.548503 166.766431 91.09679 
Q 166.97731 91.645076 167.146014 92.277714 
Q 167.314717 92.910352 167.314717 93.500814 
Q 167.314717 94.76609 166.97731 95.862662 
Q 166.639903 96.959234 166.007266 98.182334 
Q 165.374628 99.405434 165.037221 100.333303 
L 162.506669 102.863855 
" clip-path="url(#pa72dd3d4e6)" style="fill: none; stroke: #000000; stroke-linejoin: miter"/>
   </g>
  </g>
 </g>
 <defs>
  <clipPath id="p57acc459b8">
   <rect x="0" y="47.396193" width="36.45" height="66.397613"/>
  </clipPath>
  <clipPath id="p1ed1a12687">
   <rect x="36.45" y="40.975435" width="36.45" height="79.23913"/>
  </clipPath>
  <clipPath id="p3229344a67">
   <rect x="72.9" y="44.640918" width="36.45" height="71.908163"/>
  </clipPath>
  <clipPath id="p25f256d09c">
   <rect x="109.35" y="48.010228" width="36.45" height="65.169544"/>
  </clipPath>
  <clipPath id="pa72dd3d4e6">
   <rect x="156.517697" y="19.44" width="15.014607" height="122.31"/>
  </clipPath>
 </defs>
</svg>
