<?xml version="1.0" encoding="utf-8" standalone="no"?>
<!DOCTYPE svg PUBLIC "-//W3C//DTD SVG 1.1//EN"
  "http://www.w3.org/Graphics/SVG/1.1/DTD/svg11.dtd">
<svg xmlns:xlink="http://www.w3.org/1999/xlink" width="189pt" height="72pt" viewBox="0 0 189 72" xmlns="http://www.w3.org/2000/svg" version="1.1">
 <metadata>
  <rdf:RDF xmlns:dc="http://purl.org/dc/elements/1.1/" xmlns:cc="http://creativecommons.org/ns#" xmlns:rdf="http://www.w3.org/1999/02/22-rdf-syntax-ns#">
   <cc:Work>
    <dc:type rdf:resource="http://purl.org/dc/dcmitype/StillImage"/>
    <dc:date>2023-02-07T22:08:09.785858</dc:date>
    <dc:format>image/svg+xml</dc:format>
    <dc:creator>
     <cc:Agent>
      <dc:title>Matplotlib v3.6.1, https://matplotlib.org/</dc:title>
     </cc:Agent>
    </dc:creator>
   </cc:Work>
  </rdf:RDF>
 </metadata>
 <defs>
  <style type="text/css">*{stroke-linejoin: round; stroke-linecap: butt}</style>
 </defs>
 <g id="figure_1">
  <g id="patch_1">
   <path d="M 0 72 
L 189 72 
L 189 0 
L 0 0 
z
" style="fill: #8fff9f"/>
  </g>
  <g id="axes_1">
   <g id="patch_2">
    <path d="M 18.48629 26.674839 
Q 18.453629 26.772823 18.48629 27.164758 
Q 18.48629 28.209919 18.780242 31.851653 
Q 19.074194 35.493387 18.845565 37.387742 
L 18.551613 40.13129 
M 13.097177 35.722016 
L 13.587097 35.624032 
L 24.267339 32.7825 
L 23.483468 38.367581 
L 22.895565 39.445403 
L 21.752419 37.616371 
M 14.664919 31.50871 
L 14.860887 33.958306 
L 15.350806 37.485726 
L 15.546774 42.15629 
Q 15.612097 43.299435 16.134677 43.968992 
Q 16.657258 44.638548 17.588105 44.834516 
Q 18.518952 45.030484 19.384476 45.063145 
Q 20.25 45.095806 21.458468 45.030484 
Q 22.666935 44.965161 23.2875 44.997823 
Q 23.581452 45.030484 24.169355 44.981492 
Q 24.757258 44.9325 25.345161 44.703871 
Q 25.933065 44.475242 25.835081 44.115968 
L 26.716935 40.915161 
M 10.157661 33.468387 
L 10.157661 33.664355 
Q 10.157661 36.930484 9.063508 39.069798 
Q 7.969355 41.209113 5.454435 43.266774 
L 1.633065 46.173629 
M 2.025 35.689355 
L 2.514919 35.689355 
Q 3.233468 35.689355 4.948185 35.281089 
Q 6.662903 34.872823 7.414113 34.840161 
L 10.353629 34.350242 
M 7.120161 28.373226 
L 7.120161 28.961129 
Q 6.82621 29.973629 6.662903 32.847823 
Q 6.499597 35.722016 6.042339 36.799839 
Q 6.009677 36.897823 5.732056 37.404073 
Q 5.454435 37.910323 5.32379 38.302258 
Q 5.193145 38.694194 5.32379 38.890161 
Q 5.977016 40.065968 8.263306 41.943992 
Q 10.549597 43.822016 10.941532 44.246613 
L 12.117339 44.834516 
" clip-path="url(#p2b9852603a)" style="fill: none; stroke: #000000; stroke-linejoin: miter"/>
   </g>
  </g>
  <g id="axes_2">
   <g id="patch_3">
    <path d="M 43.704939 40.319501 
L 49.683296 39.595805 
M 43.704939 36.669556 
L 43.704939 43.466004 
M 37.191676 38.651853 
Q 40.495505 41.735427 44.806215 43.922248 
Q 49.116926 46.109068 53.522031 46.864229 
Q 54.591842 46.958624 55.126748 46.297858 
M 37.380466 37.613507 
Q 36.908491 39.186759 36.420782 40.366698 
Q 35.933074 41.546637 34.910461 42.883901 
Q 33.887847 44.221165 32.566315 44.881931 
L 29.923252 46.769834 
M 42.414872 26.758069 
L 42.414872 27.70202 
Q 42.414872 32.044195 42.477802 33.082542 
L 42.666593 35.914395 
M 31.370644 36.732486 
L 54.277192 34.750189 
M 37.915372 32.232986 
Q 38.418812 32.201521 38.481743 32.13859 
L 48.45616 31.100244 
" clip-path="url(#p4f6298c8af)" style="fill: none; stroke: #000000; stroke-linejoin: miter"/>
   </g>
  </g>
  <g id="axes_3">
   <g id="patch_4">
    <path d="M 81.334614 26.147669 
L 81.222145 36.607283 
L 80.884738 47.74171 
L 76.948324 46.054676 
M 77.285731 30.196552 
L 77.3982 34.69531 
L 77.623138 37.619503 
M 67.57591 32.670869 
L 66.826117 41.593407 
L 66.826117 42.043283 
M 60.415386 42.943034 
L 60.865262 42.943034 
L 61.765014 42.943034 
L 73.349317 41.143531 
L 75.486228 40.918593 
M 63.901924 38.219338 
L 64.239331 38.219338 
Q 64.726697 38.219338 65.307786 38.088124 
Q 65.888876 37.95691 66.619924 37.731972 
Q 67.350972 37.507034 67.725869 37.432055 
L 71.662283 37.094648 
M 69.712821 30.309021 
Q 71.062448 31.283752 71.737262 33.120745 
L 72.637014 34.132966 
M 65.101593 27.947172 
Q 65.101593 28.584497 64.483014 29.559228 
Q 63.864434 30.533959 63.751966 30.758897 
Q 63.639497 31.058814 63.077152 31.696138 
Q 62.514807 32.333462 62.008697 32.895807 
Q 61.502586 33.458152 61.502586 33.570621 
Q 61.502586 33.68309 62.064931 33.68309 
Q 62.364848 33.68309 62.739745 33.551876 
Q 63.114641 33.420662 63.564517 33.195724 
Q 64.014393 32.970786 64.201841 32.895807 
L 69.82529 32.108524 
L 70.725041 31.996055 
M 61.315138 28.921903 
L 68.363193 27.834703 
L 70.162697 27.384828 
" clip-path="url(#p57b11bd8be)" style="fill: none; stroke: #000000; stroke-linejoin: miter"/>
   </g>
  </g>
  <g id="axes_4">
   <g id="patch_5">
    <path d="M 100.831738 44.782028 
Q 100.760327 44.674912 100.831738 44.674912 
Q 100.903149 44.674912 101.010264 44.710617 
Q 101.11738 44.746322 101.188791 44.710617 
Q 101.260202 44.674912 101.188791 44.496385 
L 104.473678 43.139584 
M 96.761335 42.853942 
Q 98.153841 43.496637 100.903149 45.728218 
Q 103.652456 47.959798 105.259194 48.566788 
M 94.868955 39.854698 
L 100.403275 39.497645 
M 95.261713 42.175542 
Q 95.404534 42.211247 95.58306 42.03272 
Q 95.761587 41.854194 95.868703 41.69352 
Q 95.975819 41.532846 96.19005 41.479288 
Q 96.404282 41.42573 96.689924 41.711373 
L 101.403023 41.604257 
M 94.261965 38.212254 
Q 95.047481 38.140844 96.279314 37.944465 
Q 97.511146 37.748086 98.296662 37.64097 
Q 99.082179 37.533854 100.17119 37.462443 
Q 101.260202 37.391033 102.25995 37.462443 
L 101.867191 41.782783 
M 94.583312 38.140844 
Q 94.583312 38.355076 94.761839 38.819244 
Q 94.940365 39.283413 94.958218 39.515497 
Q 94.976071 39.747582 94.868955 40.247456 
Q 94.868955 40.890151 94.851102 42.621858 
Q 94.833249 44.353564 94.868955 45.763923 
Q 94.90466 47.174282 95.154597 48.031209 
Q 95.654471 50.030705 97.653967 48.138325 
L 97.93961 47.745567 
M 95.904408 35.141599 
L 96.19005 35.141599 
Q 96.689924 35.320126 97.350472 36.177053 
Q 98.01102 37.03398 98.153841 37.212506 
M 97.903904 31.214018 
Q 98.653715 31.785302 100.403275 33.284924 
Q 102.152834 34.784547 103.170435 35.570063 
Q 104.188035 36.355579 105.866184 37.212506 
Q 107.544332 38.069433 109.115365 38.31937 
L 111.614736 38.426486 
M 97.546851 31.214018 
L 97.546851 31.49966 
Q 96.654219 33.499156 94.90466 35.248715 
Q 93.155101 36.998275 91.119899 38.212254 
Q 89.084698 39.426234 86.835264 40.247456 
M 101.224496 29.214521 
L 101.72437 29.214521 
Q 102.581297 29.357343 103.170435 29.660838 
Q 103.759572 29.964332 104.098772 30.339238 
Q 104.437972 30.714144 104.723615 31.089049 
Q 105.009257 31.463955 105.509131 31.945976 
Q 106.009005 32.427997 106.687406 32.78505 
L 107.080164 32.892166 
M 101.04597 27.286436 
L 101.510139 27.286436 
Q 102.545592 27.286436 103.616751 27.090057 
Q 104.687909 26.893678 105.651952 26.893678 
Q 105.830479 27.072204 105.830479 27.072204 
Q 105.830479 27.286436 105.759068 27.554225 
Q 105.687657 27.822015 105.580542 28.071952 
Q 105.473426 28.321889 105.259194 28.643237 
Q 105.044962 28.964584 104.884288 29.178816 
Q 104.723615 29.393048 104.437972 29.732248 
Q 104.15233 30.071448 103.991656 30.249975 
Q 103.830982 30.428501 103.509635 30.749849 
Q 103.188287 31.071196 103.081171 31.178312 
Q 102.974055 31.285428 102.67056 31.571071 
Q 102.367065 31.856713 102.33136 31.892418 
L 100.546096 32.677935 
M 91.048489 32.17806 
L 91.334131 32.17806 
L 91.691184 32.17806 
L 93.262217 33.32063 
M 91.762594 29.67869 
L 95.475945 29.393048 
Q 95.547355 30.000038 95.190302 30.571322 
Q 93.726385 32.642229 92.423142 33.909767 
Q 91.119899 35.177305 89.191814 36.069937 
L 88.549118 36.391285 
M 91.655479 29.285932 
Q 91.655479 29.393048 91.637626 29.500164 
Q 91.619773 29.60728 91.548363 29.732248 
Q 91.476952 29.857217 91.441247 29.964332 
Q 91.369836 30.249975 91.209162 30.678438 
Q 91.048489 31.106902 90.977078 31.392544 
Q 90.298678 32.285176 90.013035 32.570819 
M 93.69068 27.215025 
L 96.368577 27.215025 
M 93.762091 25.35835 
L 93.762091 29.571574 
" clip-path="url(#p61f18a00ed)" style="fill: none; stroke: #000000; stroke-linejoin: miter"/>
   </g>
  </g>
  <g id="axes_5">
   <g id="patch_6">
    <path d="M 131.219004 33.518524 
L 131.219004 36.447675 
Q 131.219004 36.482546 131.236439 37.249705 
Q 131.253875 38.016863 131.27131 39.028118 
Q 131.288745 40.039373 131.306181 41.312159 
Q 131.323616 42.584945 131.288745 43.787989 
Q 131.253875 44.991033 131.184133 46.019723 
Q 131.114391 47.048413 130.957472 47.658653 
Q 130.800554 48.268893 130.591328 48.268893 
Q 130.347232 48.268893 130.120572 48.12941 
Q 129.893911 47.989926 129.63238 47.763266 
Q 129.370849 47.536605 129.231365 47.431993 
L 127.871402 46.90893 
M 123.163838 33.413911 
L 140.006458 32.716494 
M 121.908487 27.241771 
L 124.209963 27.241771 
Q 128.882657 27.17203 137.983948 25.846937 
M 122.326937 27.555609 
Q 122.222325 28.462251 122.030535 30.798598 
Q 121.838745 33.134945 121.716697 34.442601 
Q 121.594649 35.750258 121.21107 37.825074 
Q 120.827491 39.899889 120.304428 41.259852 
Q 119.781365 42.619815 118.857288 44.04952 
Q 117.93321 45.479225 116.712731 46.420738 
L 115.143542 47.257638 
" clip-path="url(#p3e2d325b6d)" style="fill: none; stroke: #000000; stroke-linejoin: miter"/>
   </g>
  </g>
  <g id="axes_6">
   <g id="patch_7">
    <path d="M 154.462903 36.94469 
Q 154.500393 37.019669 154.762821 37.263352 
Q 155.025248 37.507034 155.137717 37.619503 
Q 155.250186 37.731972 155.493869 38.013145 
Q 155.737552 38.294317 155.88751 38.463021 
Q 156.037469 38.631724 156.262407 38.931641 
Q 156.487345 39.231559 156.618559 39.437752 
Q 156.749772 39.643945 156.899731 39.943862 
Q 157.04969 40.243779 157.143414 40.487462 
Q 157.237138 40.731145 157.312117 41.012317 
Q 157.387097 41.29349 157.387097 41.555917 
Q 157.387097 42.118262 157.237138 42.605628 
Q 157.087179 43.092993 156.806007 43.636593 
Q 156.524834 44.180193 156.374876 44.592579 
L 155.250186 45.717269 
" clip-path="url(#pff3486498d)" style="fill: none; stroke: #000000; stroke-linejoin: miter"/>
   </g>
  </g>
 </g>
 <defs>
  <clipPath id="p2b9852603a">
   <rect x="0" y="12.140565" width="28.35" height="47.358871"/>
  </clipPath>
  <clipPath id="p4f6298c8af">
   <rect x="28.35" y="13.007847" width="28.35" height="45.624306"/>
  </clipPath>
  <clipPath id="p57b11bd8be">
   <rect x="58.540903" y="8.64" width="24.668193" height="54.36"/>
  </clipPath>
  <clipPath id="p61f18a00ed">
   <rect x="85.05" y="9.933665" width="28.35" height="51.77267"/>
  </clipPath>
  <clipPath id="p3e2d325b6d">
   <rect x="113.4" y="10.538635" width="28.35" height="50.562731"/>
  </clipPath>
  <clipPath id="pff3486498d">
   <rect x="152.588421" y="8.64" width="6.673159" height="54.36"/>
  </clipPath>
 </defs>
</svg>
