<?xml version="1.0" encoding="utf-8" standalone="no"?>
<!DOCTYPE svg PUBLIC "-//W3C//DTD SVG 1.1//EN"
  "http://www.w3.org/Graphics/SVG/1.1/DTD/svg11.dtd">
<svg xmlns:xlink="http://www.w3.org/1999/xlink" width="306pt" height="72pt" viewBox="0 0 306 72" xmlns="http://www.w3.org/2000/svg" version="1.1">
 <metadata>
  <rdf:RDF xmlns:dc="http://purl.org/dc/elements/1.1/" xmlns:cc="http://creativecommons.org/ns#" xmlns:rdf="http://www.w3.org/1999/02/22-rdf-syntax-ns#">
   <cc:Work>
    <dc:type rdf:resource="http://purl.org/dc/dcmitype/StillImage"/>
    <dc:date>2023-02-07T22:08:45.921269</dc:date>
    <dc:format>image/svg+xml</dc:format>
    <dc:creator>
     <cc:Agent>
      <dc:title>Matplotlib v3.6.1, https://matplotlib.org/</dc:title>
     </cc:Agent>
    </dc:creator>
   </cc:Work>
  </rdf:RDF>
 </metadata>
 <defs>
  <style type="text/css">*{stroke-linejoin: round; stroke-linecap: butt}</style>
 </defs>
 <g id="figure_1">
  <g id="patch_1">
   <path d="M 0 72 
L 306 72 
L 306 0 
L 0 0 
z
" style="fill: #8fff9f"/>
  </g>
  <g id="axes_1">
   <g id="patch_2">
    <path d="M 4.613462 32.783338 
Q 5.138317 34.507862 5.269531 36.457324 
Q 5.400745 38.406786 5.325766 40.956083 
Q 5.250786 43.505379 5.288276 44.705048 
L 5.400745 46.054676 
L 5.400745 45.829738 
Q 5.400745 44.667559 5.119572 42.30571 
Q 4.8384 39.943862 4.8384 38.744193 
Q 4.8384 36.419834 5.850621 34.882759 
Q 6.862841 33.345683 8.887283 33.345683 
Q 9.599586 33.345683 9.936993 33.626855 
Q 10.2744 33.908028 10.536828 34.432883 
Q 10.799255 34.957738 11.136662 35.257655 
L 11.586538 36.832221 
" clip-path="url(#p6c09992dde)" style="fill: none; stroke: #000000; stroke-linejoin: miter"/>
   </g>
  </g>
  <g id="axes_2">
   <g id="patch_3">
    <path d="M 18.057798 38.160826 
Q 21.030275 39.535596 25.749083 39.721376 
Q 27.272477 39.721376 27.959862 38.550963 
Q 28.647248 37.38055 28.647248 35.82 
Q 28.647248 35.299817 28.554358 34.909679 
Q 28.461468 34.519541 28.219954 34.296606 
Q 27.97844 34.07367 27.811239 33.943624 
Q 27.644037 33.813578 27.198165 33.757844 
Q 26.752294 33.70211 26.547936 33.683532 
Q 26.343578 33.664954 25.767661 33.683532 
Q 25.191743 33.70211 24.968807 33.70211 
Q 22.925229 33.70211 21.438991 35.578486 
Q 19.952752 37.454862 19.952752 39.609908 
Q 19.952752 42.619541 21.884862 44.570229 
Q 23.816972 46.520917 26.863761 46.520917 
Q 29.018807 46.818165 30.542202 44.29156 
" clip-path="url(#pf887d65c6c)" style="fill: none; stroke: #000000; stroke-linejoin: miter"/>
   </g>
  </g>
  <g id="axes_3">
   <g id="patch_4">
    <path d="M 36.057476 43.917766 
Q 36.357393 44.180193 37.369614 45.154924 
Q 38.381834 46.129655 38.944179 46.560786 
Q 39.506524 46.991917 40.53749 47.385559 
Q 41.568455 47.7792 42.580676 47.629241 
Q 43.25549 47.629241 43.72411 47.404303 
Q 44.192731 47.179366 44.417669 46.879448 
Q 44.642607 46.579531 44.773821 45.979697 
Q 44.905034 45.379862 44.923779 44.967476 
Q 44.942524 44.55509 44.942524 43.805297 
Q 44.942524 42.718097 44.042772 42.043283 
Q 43.143021 41.368469 41.849628 41.031062 
Q 40.556234 40.693655 39.262841 40.300014 
Q 37.969448 39.906372 37.069697 38.987876 
Q 36.169945 38.069379 36.169945 36.607283 
Q 36.169945 36.082428 36.338648 35.726276 
Q 36.507352 35.370124 36.900993 35.145186 
Q 37.294634 34.920248 37.575807 34.807779 
Q 37.856979 34.69531 38.513048 34.639076 
Q 39.169117 34.582841 39.356566 34.582841 
Q 39.544014 34.582841 40.218828 34.582841 
Q 41.418497 34.582841 41.999586 34.995228 
Q 42.580676 35.407614 42.899338 36.026193 
Q 43.218 36.644772 43.480428 36.832221 
" clip-path="url(#p9418fbbcce)" style="fill: none; stroke: #000000; stroke-linejoin: miter"/>
   </g>
  </g>
  <g id="axes_4">
   <g id="patch_5">
    <path d="M 50.457798 38.160826 
Q 53.430275 39.535596 58.149083 39.721376 
Q 59.672477 39.721376 60.359862 38.550963 
Q 61.047248 37.38055 61.047248 35.82 
Q 61.047248 35.299817 60.954358 34.909679 
Q 60.861468 34.519541 60.619954 34.296606 
Q 60.37844 34.07367 60.211239 33.943624 
Q 60.044037 33.813578 59.598165 33.757844 
Q 59.152294 33.70211 58.947936 33.683532 
Q 58.743578 33.664954 58.167661 33.683532 
Q 57.591743 33.70211 57.368807 33.70211 
Q 55.325229 33.70211 53.838991 35.578486 
Q 52.352752 37.454862 52.352752 39.609908 
Q 52.352752 42.619541 54.284862 44.570229 
Q 56.216972 46.520917 59.263761 46.520917 
Q 61.418807 46.818165 62.942202 44.29156 
" clip-path="url(#pcfd6ae41f9)" style="fill: none; stroke: #000000; stroke-linejoin: miter"/>
   </g>
  </g>
  <g id="axes_5">
   <g id="patch_6">
    <path d="M 78.443923 36.441748 
Q 77.234968 35.094627 73.262687 35.094627 
Q 71.742857 35.094627 70.965672 35.146439 
Q 70.188486 35.198252 69.18678 35.440043 
Q 68.185075 35.681834 67.701493 36.182687 
Q 67.21791 36.683539 66.872495 37.616162 
Q 66.527079 38.548785 66.527079 39.964989 
Q 66.527079 42.037484 67.943284 43.280981 
Q 69.359488 44.524478 71.293817 44.524478 
Q 73.953518 44.524478 76.716844 38.721493 
Q 78.063966 35.854542 78.063966 35.82 
Q 78.409382 35.578209 78.443923 36.441748 
Q 78.443923 37.512537 78.858422 40.362217 
Q 79.272921 43.211898 79.272921 44.524478 
" clip-path="url(#p56e129af80)" style="fill: none; stroke: #000000; stroke-linejoin: miter"/>
   </g>
  </g>
  <g id="axes_6">
   <g id="patch_7">
    <path d="M 85.613462 32.783338 
Q 86.138317 34.507862 86.269531 36.457324 
Q 86.400745 38.406786 86.325766 40.956083 
Q 86.250786 43.505379 86.288276 44.705048 
L 86.400745 46.054676 
L 86.400745 45.829738 
Q 86.400745 44.667559 86.119572 42.30571 
Q 85.8384 39.943862 85.8384 38.744193 
Q 85.8384 36.419834 86.850621 34.882759 
Q 87.862841 33.345683 89.887283 33.345683 
Q 90.599586 33.345683 90.936993 33.626855 
Q 91.2744 33.908028 91.536828 34.432883 
Q 91.799255 34.957738 92.136662 35.257655 
L 92.586538 36.832221 
" clip-path="url(#pc089ecf027)" style="fill: none; stroke: #000000; stroke-linejoin: miter"/>
   </g>
  </g>
  <g id="axes_7">
   <g id="patch_8">
    <path d="M 110.556735 34.365306 
Q 110.556735 34.365306 110.060816 34.365306 
Q 109.267347 34.365306 107.779592 34.067755 
Q 106.291837 33.770204 105.498367 33.770204 
Q 102.721224 33.770204 100.787143 35.224898 
Q 98.853061 36.679592 98.853061 39.423673 
Q 98.853061 40.94449 100.340816 42.399184 
Q 101.828571 43.853878 103.762653 44.663878 
Q 105.696735 45.473878 107.18449 45.473878 
Q 108.110204 45.473878 108.80449 45.110204 
Q 109.498776 44.746531 110.242653 44.118367 
Q 110.986531 43.490204 111.548571 43.192653 
L 111.746939 42.696735 
" clip-path="url(#p84dabadd12)" style="fill: none; stroke: #000000; stroke-linejoin: miter"/>
   </g>
  </g>
  <g id="axes_8">
   <g id="patch_9">
    <path d="M 118.013462 35.932469 
Q 118.613297 35.257655 119.606772 34.826524 
Q 120.600248 34.395393 121.5 34.470372 
Q 122.137324 34.470372 122.62469 34.639076 
Q 123.112055 34.807779 123.430717 34.995228 
Q 123.749379 35.182676 123.974317 35.670041 
Q 124.199255 36.157407 124.311724 36.419834 
Q 124.424193 36.682262 124.480428 37.375821 
Q 124.536662 38.069379 124.555407 38.331807 
Q 124.574152 38.594234 124.555407 39.419007 
Q 124.536662 40.243779 124.536662 40.431228 
Q 124.536662 41.368469 124.367959 43.242952 
Q 124.199255 45.117434 124.199255 46.054676 
Q 124.199255 46.467062 124.25549 46.823214 
Q 124.311724 47.179366 124.405448 47.610497 
Q 124.499172 48.041628 124.536662 48.304055 
L 124.986538 48.528993 
M 118.463338 23.111007 
Q 118.688276 24.798041 118.688276 29.971614 
L 118.688276 42.3432 
L 118.350869 46.841959 
L 118.125931 47.74171 
" clip-path="url(#p04c1a071e8)" style="fill: none; stroke: #000000; stroke-linejoin: miter"/>
   </g>
  </g>
  <g id="axes_9"/>
  <g id="axes_10">
   <g id="patch_10">
    <path d="M 149.120069 39.868883 
L 149.120069 39.419007 
Q 149.120069 37.769462 150.863338 36.682262 
Q 152.606607 35.595062 154.293641 35.595062 
Q 156.505531 35.595062 157.873903 36.794731 
Q 159.242276 37.9944 159.242276 40.20629 
Q 159.242276 42.30571 157.424028 43.336676 
Q 155.605779 44.367641 153.39389 44.367641 
Q 152.719076 44.367641 152.212966 44.255172 
Q 151.706855 44.142703 151.088276 43.917766 
Q 150.469697 43.692828 150.019821 43.580359 
L 148.895131 42.568138 
M 148.557724 36.832221 
Q 149.0076 38.444276 149.270028 40.262524 
Q 149.532455 42.080772 149.58869 43.749062 
Q 149.644924 45.417352 149.682414 47.27309 
Q 149.719903 49.128828 149.682414 50.778372 
L 149.569945 57.863917 
" clip-path="url(#pf0fa14df8e)" style="fill: none; stroke: #000000; stroke-linejoin: miter"/>
   </g>
  </g>
  <g id="axes_11">
   <g id="patch_11">
    <path d="M 166.613462 32.783338 
Q 167.138317 34.507862 167.269531 36.457324 
Q 167.400745 38.406786 167.325766 40.956083 
Q 167.250786 43.505379 167.288276 44.705048 
L 167.400745 46.054676 
L 167.400745 45.829738 
Q 167.400745 44.667559 167.119572 42.30571 
Q 166.8384 39.943862 166.8384 38.744193 
Q 166.8384 36.419834 167.850621 34.882759 
Q 168.862841 33.345683 170.887283 33.345683 
Q 171.599586 33.345683 171.936993 33.626855 
Q 172.2744 33.908028 172.536828 34.432883 
Q 172.799255 34.957738 173.136662 35.257655 
L 173.586538 36.832221 
" clip-path="url(#p6d18b54a53)" style="fill: none; stroke: #000000; stroke-linejoin: miter"/>
   </g>
  </g>
  <g id="axes_12">
   <g id="patch_12">
    <path d="M 189.5616 35.032717 
Q 188.51189 34.582841 187.537159 34.69531 
Q 184.500497 35.032717 182.588524 36.701007 
Q 180.676552 38.369297 180.676552 41.330979 
Q 180.676552 43.917766 182.682248 45.6048 
Q 184.687945 47.291834 187.312221 47.291834 
Q 189.674069 47.291834 190.798759 45.361117 
Q 191.923448 43.4304 191.923448 40.881103 
Q 191.923448 39.643945 191.511062 38.706703 
Q 191.098676 37.769462 190.573821 37.300841 
Q 190.048966 36.832221 189.299172 36.119917 
Q 188.549379 35.407614 188.099503 34.69531 
L 186.862345 34.245434 
" clip-path="url(#p57f99286bd)" style="fill: none; stroke: #000000; stroke-linejoin: miter"/>
   </g>
  </g>
  <g id="axes_13">
   <g id="patch_13">
    <path d="M 207.287191 39.096404 
Q 207.03236 39.023596 206.06764 38.623146 
Q 205.102921 38.222697 204.44764 38.077079 
Q 203.79236 37.931461 203.137079 38.00427 
Q 200.515955 38.00427 198.877753 40.388764 
Q 197.239551 42.773258 197.239551 45.430787 
Q 197.239551 47.068989 202.481798 47.068989 
Q 204.047191 47.068989 205.375955 45.558202 
Q 206.704719 44.047416 207.378202 42.172584 
Q 208.051685 40.297753 208.051685 38.768764 
Q 208.051685 37.27618 208.015281 36.984944 
L 207.942472 38.077079 
Q 207.942472 38.550337 207.942472 38.987191 
Q 207.978876 40.188539 208.179101 42.281798 
Q 208.379326 44.375056 208.543146 46.049663 
Q 208.706966 47.72427 208.743371 49.872135 
Q 208.779775 52.02 208.615955 53.658202 
Q 208.452135 55.296404 207.887865 56.971011 
Q 207.323596 58.645618 206.395281 59.737753 
Q 205.466966 60.829888 203.865169 61.521573 
Q 202.263371 62.213258 200.115506 62.213258 
Q 198.477303 62.213258 197.385169 61.466966 
Q 196.293034 60.720674 196.293034 59.155281 
Q 196.220225 58.936854 196.256629 58.936854 
Q 196.293034 58.936854 196.402247 58.936854 
Q 196.511461 58.936854 196.511461 58.82764 
" clip-path="url(#pad33ab9d63)" style="fill: none; stroke: #000000; stroke-linejoin: miter"/>
   </g>
  </g>
  <g id="axes_14">
   <g id="patch_14">
    <path d="M 215.213462 32.783338 
Q 215.738317 34.507862 215.869531 36.457324 
Q 216.000745 38.406786 215.925766 40.956083 
Q 215.850786 43.505379 215.888276 44.705048 
L 216.000745 46.054676 
L 216.000745 45.829738 
Q 216.000745 44.667559 215.719572 42.30571 
Q 215.4384 39.943862 215.4384 38.744193 
Q 215.4384 36.419834 216.450621 34.882759 
Q 217.462841 33.345683 219.487283 33.345683 
Q 220.199586 33.345683 220.536993 33.626855 
Q 220.8744 33.908028 221.136828 34.432883 
Q 221.399255 34.957738 221.736662 35.257655 
L 222.186538 36.832221 
" clip-path="url(#pb408f791cb)" style="fill: none; stroke: #000000; stroke-linejoin: miter"/>
   </g>
  </g>
  <g id="axes_15">
   <g id="patch_15">
    <path d="M 228.657798 38.160826 
Q 231.630275 39.535596 236.349083 39.721376 
Q 237.872477 39.721376 238.559862 38.550963 
Q 239.247248 37.38055 239.247248 35.82 
Q 239.247248 35.299817 239.154358 34.909679 
Q 239.061468 34.519541 238.819954 34.296606 
Q 238.57844 34.07367 238.411239 33.943624 
Q 238.244037 33.813578 237.798165 33.757844 
Q 237.352294 33.70211 237.147936 33.683532 
Q 236.943578 33.664954 236.367661 33.683532 
Q 235.791743 33.70211 235.568807 33.70211 
Q 233.525229 33.70211 232.038991 35.578486 
Q 230.552752 37.454862 230.552752 39.609908 
Q 230.552752 42.619541 232.484862 44.570229 
Q 234.416972 46.520917 237.463761 46.520917 
Q 239.618807 46.818165 241.142202 44.29156 
" clip-path="url(#pf5347108f5)" style="fill: none; stroke: #000000; stroke-linejoin: miter"/>
   </g>
  </g>
  <g id="axes_16">
   <g id="patch_16">
    <path d="M 246.657476 43.917766 
Q 246.957393 44.180193 247.969614 45.154924 
Q 248.981834 46.129655 249.544179 46.560786 
Q 250.106524 46.991917 251.13749 47.385559 
Q 252.168455 47.7792 253.180676 47.629241 
Q 253.85549 47.629241 254.32411 47.404303 
Q 254.792731 47.179366 255.017669 46.879448 
Q 255.242607 46.579531 255.373821 45.979697 
Q 255.505034 45.379862 255.523779 44.967476 
Q 255.542524 44.55509 255.542524 43.805297 
Q 255.542524 42.718097 254.642772 42.043283 
Q 253.743021 41.368469 252.449628 41.031062 
Q 251.156234 40.693655 249.862841 40.300014 
Q 248.569448 39.906372 247.669697 38.987876 
Q 246.769945 38.069379 246.769945 36.607283 
Q 246.769945 36.082428 246.938648 35.726276 
Q 247.107352 35.370124 247.500993 35.145186 
Q 247.894634 34.920248 248.175807 34.807779 
Q 248.456979 34.69531 249.113048 34.639076 
Q 249.769117 34.582841 249.956566 34.582841 
Q 250.144014 34.582841 250.818828 34.582841 
Q 252.018497 34.582841 252.599586 34.995228 
Q 253.180676 35.407614 253.499338 36.026193 
Q 253.818 36.644772 254.080428 36.832221 
" clip-path="url(#pdc19d89796)" style="fill: none; stroke: #000000; stroke-linejoin: miter"/>
   </g>
  </g>
  <g id="axes_17">
   <g id="patch_17">
    <path d="M 262.857476 43.917766 
Q 263.157393 44.180193 264.169614 45.154924 
Q 265.181834 46.129655 265.744179 46.560786 
Q 266.306524 46.991917 267.33749 47.385559 
Q 268.368455 47.7792 269.380676 47.629241 
Q 270.05549 47.629241 270.52411 47.404303 
Q 270.992731 47.179366 271.217669 46.879448 
Q 271.442607 46.579531 271.573821 45.979697 
Q 271.705034 45.379862 271.723779 44.967476 
Q 271.742524 44.55509 271.742524 43.805297 
Q 271.742524 42.718097 270.842772 42.043283 
Q 269.943021 41.368469 268.649628 41.031062 
Q 267.356234 40.693655 266.062841 40.300014 
Q 264.769448 39.906372 263.869697 38.987876 
Q 262.969945 38.069379 262.969945 36.607283 
Q 262.969945 36.082428 263.138648 35.726276 
Q 263.307352 35.370124 263.700993 35.145186 
Q 264.094634 34.920248 264.375807 34.807779 
Q 264.656979 34.69531 265.313048 34.639076 
Q 265.969117 34.582841 266.156566 34.582841 
Q 266.344014 34.582841 267.018828 34.582841 
Q 268.218497 34.582841 268.799586 34.995228 
Q 269.380676 35.407614 269.699338 36.026193 
Q 270.018 36.644772 270.280428 36.832221 
" clip-path="url(#p41d6b1c0d0)" style="fill: none; stroke: #000000; stroke-linejoin: miter"/>
   </g>
  </g>
 </g>
 <defs>
  <clipPath id="p6c09992dde">
   <rect x="2.738979" y="8.64" width="10.722041" height="54.36"/>
  </clipPath>
  <clipPath id="pf887d65c6c">
   <rect x="16.2" y="8.881927" width="16.2" height="53.876147"/>
  </clipPath>
  <clipPath id="p9418fbbcce">
   <rect x="34.182993" y="8.64" width="12.634014" height="54.36"/>
  </clipPath>
  <clipPath id="pcfd6ae41f9">
   <rect x="48.6" y="8.881927" width="16.2" height="53.876147"/>
  </clipPath>
  <clipPath id="p56e129af80">
   <rect x="64.8" y="10.777356" width="16.2" height="50.085288"/>
  </clipPath>
  <clipPath id="pc089ecf027">
   <rect x="83.738979" y="8.64" width="10.722041" height="54.36"/>
  </clipPath>
  <clipPath id="p84dabadd12">
   <rect x="97.2" y="11.850612" width="16.2" height="47.938776"/>
  </clipPath>
  <clipPath id="p04c1a071e8">
   <rect x="116.138979" y="8.64" width="10.722041" height="54.36"/>
  </clipPath>
  <clipPath id="pf0fa14df8e">
   <rect x="146.683241" y="8.64" width="14.433517" height="54.36"/>
  </clipPath>
  <clipPath id="p6d18b54a53">
   <rect x="164.738979" y="8.64" width="10.722041" height="54.36"/>
  </clipPath>
  <clipPath id="p57f99286bd">
   <rect x="178.802069" y="8.64" width="14.995862" height="54.36"/>
  </clipPath>
  <clipPath id="pad33ab9d63">
   <rect x="194.4" y="9.426742" width="16.2" height="52.786517"/>
  </clipPath>
  <clipPath id="pb408f791cb">
   <rect x="213.338979" y="8.64" width="10.722041" height="54.36"/>
  </clipPath>
  <clipPath id="pf5347108f5">
   <rect x="226.8" y="8.881927" width="16.2" height="53.876147"/>
  </clipPath>
  <clipPath id="pdc19d89796">
   <rect x="244.782993" y="8.64" width="12.634014" height="54.36"/>
  </clipPath>
  <clipPath id="p41d6b1c0d0">
   <rect x="260.982993" y="8.64" width="12.634014" height="54.36"/>
  </clipPath>
 </defs>
</svg>
