<?xml version="1.0" encoding="utf-8" standalone="no"?>
<!DOCTYPE svg PUBLIC "-//W3C//DTD SVG 1.1//EN"
  "http://www.w3.org/Graphics/SVG/1.1/DTD/svg11.dtd">
<svg xmlns:xlink="http://www.w3.org/1999/xlink" width="445.5pt" height="162pt" viewBox="0 0 445.5 162" xmlns="http://www.w3.org/2000/svg" version="1.1">
 <metadata>
  <rdf:RDF xmlns:dc="http://purl.org/dc/elements/1.1/" xmlns:cc="http://creativecommons.org/ns#" xmlns:rdf="http://www.w3.org/1999/02/22-rdf-syntax-ns#">
   <cc:Work>
    <dc:type rdf:resource="http://purl.org/dc/dcmitype/StillImage"/>
    <dc:date>2023-02-15T23:02:37.387537</dc:date>
    <dc:format>image/svg+xml</dc:format>
    <dc:creator>
     <cc:Agent>
      <dc:title>Matplotlib v3.6.1, https://matplotlib.org/</dc:title>
     </cc:Agent>
    </dc:creator>
   </cc:Work>
  </rdf:RDF>
 </metadata>
 <defs>
  <style type="text/css">*{stroke-linejoin: round; stroke-linecap: butt}</style>
 </defs>
 <g id="figure_1">
  <g id="patch_1">
   <path d="M 0 162 
L 445.5 162 
L 445.5 0 
L 0 0 
z
" style="fill: #8fff9f"/>
  </g>
  <g id="axes_1">
   <g id="patch_2">
    <path d="M 23.768088 68.836935 
Q 23.726094 68.962915 23.768088 69.466832 
Q 23.768088 70.810611 24.146025 75.49284 
Q 24.523963 80.175069 24.230012 82.610668 
L 23.852074 86.138088 
M 16.839228 80.469021 
L 17.469124 80.343041 
L 31.200864 76.689643 
L 30.19303 83.870461 
L 29.437154 85.256233 
L 27.967396 82.90462 
M 18.854896 75.051912 
L 19.106855 78.201394 
L 19.736751 82.736647 
L 19.98871 88.741659 
Q 20.072696 90.211417 20.744585 91.072275 
Q 21.416475 91.933134 22.613278 92.185092 
Q 23.810081 92.437051 24.922897 92.479044 
Q 26.035714 92.521037 27.589459 92.437051 
Q 29.143203 92.353065 29.941071 92.395058 
Q 30.319009 92.437051 31.074885 92.374061 
Q 31.83076 92.311071 32.586636 92.01712 
Q 33.342512 91.723168 33.216532 91.261244 
L 34.350346 87.145922 
M 13.05985 77.571498 
L 13.05985 77.823456 
Q 13.05985 82.022765 11.653082 84.773312 
Q 10.246313 87.523859 7.012846 90.169424 
L 2.099654 93.906809 
M 2.603571 80.427028 
L 3.233468 80.427028 
Q 4.157316 80.427028 6.361953 79.902114 
Q 8.56659 79.3772 9.532431 79.335207 
L 13.311809 78.705311 
M 9.154493 71.020576 
L 9.154493 71.776452 
Q 8.776555 73.078237 8.56659 76.773629 
Q 8.356624 80.469021 7.768721 81.854793 
Q 7.726728 81.980772 7.369787 82.631665 
Q 7.012846 83.282558 6.844873 83.786475 
Q 6.676901 84.290392 6.844873 84.54235 
Q 7.684735 86.054101 10.624251 88.468704 
Q 13.563767 90.883306 14.067684 91.429217 
L 15.579435 92.185092 
" clip-path="url(#p229bfbb9ed)" style="fill: none; stroke: #000000; stroke-linejoin: miter"/>
   </g>
  </g>
  <g id="axes_2">
   <g id="patch_3">
    <path d="M 56.509108 90.020924 
Q 57.994968 89.603025 61.036338 89.603025 
Q 64.077707 89.603025 65.563567 89.185127 
L 69.463949 89.045828 
M 57.066306 79.294873 
L 57.762803 79.294873 
Q 59.434395 79.294873 65.006369 78.993057 
Q 70.578344 78.691242 70.578344 78.459076 
Q 70.578344 79.202006 70.183662 80.66465 
Q 69.788981 82.127293 69.208567 83.914968 
Q 68.628153 85.702643 68.488854 86.259841 
L 68.349554 89.881624 
M 56.927006 78.459076 
Q 57.716369 82.034427 57.623503 89.742325 
M 48.104713 81.755828 
Q 49.079809 82.359459 51.215732 83.195255 
Q 53.351656 84.031051 54.233885 84.541815 
M 47.686815 77.01965 
L 47.686815 77.576847 
Q 47.686815 79.10914 46.595637 80.780732 
Q 45.504459 82.452325 43.80965 84.332866 
Q 42.114841 86.213408 41.557643 87.049204 
L 40.16465 88.163599 
M 38.771656 79.666338 
L 39.050255 79.666338 
Q 41.232611 78.784108 43.972166 78.110828 
Q 46.71172 77.437548 48.661911 77.135732 
Q 50.612102 76.833917 53.955287 76.416019 
Q 57.298471 75.998121 58.830764 75.765955 
M 47.361783 70.426146 
L 47.640382 96.057229 
M 41.65051 71.261943 
L 41.929108 71.261943 
Q 43.507834 71.261943 45.527675 70.774395 
Q 47.547516 70.286847 49.985255 69.520701 
Q 52.422994 68.754554 53.490955 68.475955 
L 54.74465 67.918758 
" clip-path="url(#p43dd58804c)" style="fill: none; stroke: #000000; stroke-linejoin: miter"/>
   </g>
  </g>
  <g id="axes_3">
   <g id="patch_4">
    <path d="M 84.332884 92.089351 
L 84.701686 92.089351 
Q 85.746627 92.089351 87.221838 91.935683 
Q 88.697049 91.782015 90.418128 91.505413 
Q 92.139207 91.228811 92.815346 91.167344 
L 98.716189 91.351745 
M 83.964081 81.209671 
L 99.822597 80.595 
L 99.822597 81.517007 
Q 99.822597 83.36102 98.777656 87.387116 
Q 97.732715 91.413212 97.609781 92.089351 
M 83.410877 81.947277 
L 84.517285 91.167344 
M 83.656745 73.403347 
L 99.207926 72.788676 
M 77.325632 63.875944 
L 105.969309 63.015405 
L 105.969309 63.384207 
Q 105.600506 70.57586 105.661973 75.124427 
Q 105.72344 79.672993 106.000042 87.448583 
Q 106.276644 95.224174 106.276644 99.219536 
Q 106.276644 100.817681 105.539039 102.477293 
Q 105.047302 103.768103 104.678499 102.231425 
L 104.617032 101.985556 
L 101.482209 99.957142 
M 77.694435 64.797951 
L 77.141231 96.269115 
L 75.973356 102.292892 
" clip-path="url(#p8743b9345e)" style="fill: none; stroke: #000000; stroke-linejoin: miter"/>
   </g>
  </g>
  <g id="axes_4">
   <g id="patch_5">
    <path d="M 126.962791 66.278721 
L 126.821512 97.831047 
L 125.832558 97.831047 
Q 125.502907 97.831047 125.290988 97.73686 
Q 125.07907 97.642674 124.843605 97.501395 
Q 124.60814 97.360116 124.419767 97.26593 
L 123.572093 96.983372 
M 113.588372 87.329302 
L 113.87093 87.329302 
Q 118.203488 87.329302 119.898837 87.093837 
L 143.445349 86.811279 
M 118.062209 90.908372 
Q 118.344767 90.767093 119.145349 90.79064 
Q 119.94593 90.814186 120.181395 90.484535 
L 136.805233 90.154884 
L 138.924419 90.437442 
M 119.333721 83.467674 
L 137.652907 82.714186 
L 137.370349 83.985698 
L 136.381395 89.731047 
M 118.39186 80.12407 
L 137.888372 79.841512 
M 118.53314 74.661279 
L 131.483721 74.378721 
L 134.497674 73.813605 
L 134.921512 73.813605 
Q 134.968605 73.813605 136.193023 73.389767 
L 136.051744 79.700233 
M 117.826744 74.237442 
Q 118.015116 74.425814 117.968023 75.014477 
Q 117.92093 75.60314 118.250581 75.791512 
L 118.53314 79.700233 
M 111.704651 70.799651 
Q 112.034302 70.611279 112.552326 70.54064 
Q 113.070349 70.47 113.494186 70.517093 
Q 113.918023 70.564186 114.388953 70.517093 
L 122.018023 70.517093 
Q 124.419767 70.517093 142.880233 69.951977 
" clip-path="url(#p4a55dbf8c9)" style="fill: none; stroke: #000000; stroke-linejoin: miter"/>
   </g>
  </g>
  <g id="axes_5">
   <g id="patch_6">
    <path d="M 172.850169 73.616959 
L 180.156588 72.508682 
L 180.156588 74.478953 
Q 180.156588 74.561047 180.177111 75.238328 
Q 180.197635 75.915608 180.197635 76.551841 
Q 180.197635 77.188074 180.177111 78.091115 
Q 180.156588 78.994155 180.05397 79.733007 
Q 179.951351 80.471858 179.766639 81.149139 
Q 179.581926 81.826419 179.274071 82.216368 
Q 178.966216 82.606318 178.514696 82.606318 
L 178.268412 82.606318 
L 176.092905 80.348716 
M 172.603885 72.878108 
L 172.603885 95.536216 
M 164.353378 74.232669 
Q 165.051182 73.493818 166.754645 72.672872 
Q 168.458108 71.851926 169.03277 71.400405 
L 171.249324 69.922703 
M 169.64848 73.986385 
L 169.771622 88.106655 
Q 169.320101 90.364257 167.719257 92.149814 
Q 166.118412 93.935372 163.983953 94.017466 
M 163.204054 73.781149 
L 163.696622 80.636047 
L 163.532432 85.069155 
Q 164.394426 85.069155 168.663345 82.606318 
L 169.64848 82.11375 
M 151.341385 81.498041 
L 157.334291 81.498041 
M 151.341385 75.464088 
L 157.580574 75.094662 
M 147.852365 90.364257 
Q 149.658446 90.15902 152.860135 88.989172 
Q 156.061824 87.819324 157.334291 87.531993 
L 161.562162 86.587905 
M 158.688851 69.142804 
L 158.565709 95.659358 
M 151.464527 69.840608 
L 151.464527 70.948885 
Q 151.464527 71.523547 151.361909 72.303446 
Q 151.259291 73.083345 151.218243 73.370676 
L 151.095101 89.132838 
M 149.124831 69.840608 
L 162.875676 69.019662 
" clip-path="url(#pd0407b6697)" style="fill: none; stroke: #000000; stroke-linejoin: miter"/>
   </g>
  </g>
  <g id="axes_6">
   <g id="patch_7">
    <path d="M 194.71114 90.629251 
Q 196.344622 90.349225 200.311652 90.162542 
Q 204.278681 89.975858 206.472215 89.555819 
L 207.872343 89.275794 
M 195.364533 85.495448 
L 196.204609 85.495448 
L 207.125608 85.215423 
M 194.104417 94.316255 
Q 194.104417 94.316255 194.804481 94.316255 
L 204.045327 94.316255 
L 206.285531 94.642951 
M 194.24443 80.828355 
Q 194.24443 80.828355 195.084507 80.828355 
Q 197.464725 80.828355 202.295166 80.198297 
Q 207.125608 79.568239 209.505826 79.568239 
Q 209.785851 79.568239 209.785851 79.988278 
Q 209.272471 84.328675 209.202465 86.428867 
Q 209.132458 88.529059 209.2258 92.916127 
Q 209.2258 93.149481 209.272471 93.756204 
Q 209.552497 96.929827 208.665749 96.976498 
Q 208.19904 97.023169 207.405634 96.323105 
L 206.565557 95.763054 
M 194.804481 81.668431 
Q 194.804481 81.715102 195.107843 82.34516 
Q 195.411204 82.975218 195.364533 83.348585 
L 195.22452 94.316255 
L 195.084507 95.57637 
M 198.304802 71.58751 
Q 198.258131 72.007548 198.304802 72.427586 
Q 198.304802 75.274513 196.858003 78.098105 
Q 195.411204 80.921697 193.591037 82.835205 
Q 191.770871 84.748713 189.390653 87.292279 
Q 187.010435 89.835845 185.843662 91.609341 
L 184.583547 92.309405 
M 186.917093 77.981428 
L 206.23886 76.5813 
L 216.366453 76.11459 
M 192.144238 74.807804 
L 192.984315 74.807804 
Q 194.617798 74.807804 196.554641 74.62112 
Q 198.491485 74.434437 200.848367 74.131076 
Q 203.20525 73.827714 204.465365 73.687702 
L 206.565557 73.267663 
M 189.904033 72.707612 
L 190.464085 72.707612 
Q 191.957554 72.707612 194.081082 72.334245 
Q 196.204609 71.960877 198.818182 71.37749 
Q 201.431754 70.794104 202.505186 70.60742 
L 208.945775 70.187382 
M 203.065237 67.153771 
Q 202.785211 67.387125 202.318502 67.87717 
Q 201.851793 68.367215 201.805122 68.413886 
L 200.171639 69.814014 
M 192.75096 67.340455 
L 195.924584 70.187382 
" clip-path="url(#p3e19633370)" style="fill: none; stroke: #000000; stroke-linejoin: miter"/>
   </g>
  </g>
  <g id="axes_7">
   <g id="patch_8">
    <path d="M 239.433028 66.597818 
Q 238.907536 69.368591 238.859764 74.790708 
Q 238.811992 80.212824 238.716448 81.645983 
L 238.286501 87.235301 
M 228.111075 81.07272 
Q 231.885059 80.021737 239.074738 78.803552 
Q 246.264417 77.585367 249.178506 76.91656 
Q 248.270839 76.91656 247.243742 79.281271 
Q 246.216645 81.645983 245.380636 84.010695 
Q 244.544626 86.375406 244.162451 86.375406 
Q 243.828047 86.375406 243.613073 86.23209 
Q 243.3981 86.088775 243.207012 85.849915 
Q 243.015924 85.611055 242.872608 85.515511 
L 242.012713 85.085564 
M 232.553866 74.050242 
L 232.267235 77.633139 
L 231.980603 84.942248 
L 232.123919 93.06348 
Q 232.601638 94.735498 233.772051 95.643165 
Q 234.942464 96.550832 236.590596 96.813578 
Q 238.238729 97.076324 239.839089 97.076324 
Q 241.43945 97.076324 243.421986 97.052438 
Q 245.404522 97.028552 246.59882 97.267412 
Q 247.028768 97.362955 248.079751 97.028552 
Q 249.130734 96.694148 249.990629 96.144771 
Q 250.850524 95.595393 250.75498 95.117674 
L 252.761402 90.101619 
M 226.677916 75.196769 
Q 226.200197 75.578945 226.176311 76.821016 
Q 226.152425 78.063087 225.818021 78.493034 
L 225.674705 96.98078 
M 228.97097 68.174292 
L 228.97097 69.177503 
Q 228.97097 70.610662 228.206619 72.04382 
Q 227.442267 73.476979 226.224083 75.125111 
Q 225.005898 76.773244 224.528178 77.633139 
L 221.088598 80.212824 
" clip-path="url(#p22ebff6fc2)" style="fill: none; stroke: #000000; stroke-linejoin: miter"/>
   </g>
  </g>
  <g id="axes_8">
   <g id="patch_9">
    <path d="M 275.582376 67.577143 
Q 275.582376 67.577143 276.431366 67.577143 
Q 277.789752 67.577143 280.478222 66.982849 
Q 283.166693 66.388556 284.581677 66.388556 
L 285.770264 66.388556 
Q 286.16646 66.388556 286.421157 66.218758 
Q 286.675854 66.04896 286.958851 66.04896 
Q 287.581444 66.388556 287.609744 67.690342 
Q 287.638043 68.992127 287.411646 70.237314 
Q 287.185248 71.4825 287.468245 72.501289 
Q 288.487034 75.274658 288.628533 79.406413 
Q 288.770031 83.538168 288.458734 89.198106 
Q 288.147438 94.858043 288.147438 96.556025 
Q 288.147438 96.839022 288.119138 96.867321 
Q 288.090839 96.895621 287.92104 96.895621 
Q 287.864441 96.895621 287.807842 96.895621 
Q 286.958851 96.895621 286.10986 96.556025 
Q 285.26087 96.216429 284.32698 95.650435 
Q 283.39309 95.084441 282.883696 94.858043 
L 282.713898 94.348649 
M 270.941227 65.596165 
L 273.488199 70.520311 
M 269.922438 70.067516 
L 269.922438 70.916506 
Q 270.035637 74.482267 269.809239 81.047795 
Q 269.582842 87.613323 269.582842 90.273494 
Q 269.582842 90.443292 269.582842 90.896087 
Q 269.582842 92.028075 269.497943 92.169573 
Q 269.413043 92.311071 269.243245 91.631879 
M 262.621118 68.992127 
Q 262.45132 69.048727 262.42302 69.161925 
Q 262.39472 69.275124 262.42302 69.444922 
Q 262.45132 69.61472 262.45132 69.67132 
Q 262.39472 83.085373 262.790916 87.669922 
Q 262.847516 88.518913 262.734317 91.57528 
Q 262.621118 94.631646 262.960714 95.424037 
M 267.828261 60.389022 
L 267.828261 60.898416 
Q 267.828261 62.200202 266.413276 64.20948 
Q 264.998292 66.218758 262.960714 68.454433 
Q 260.923137 70.690109 260.526941 71.256102 
L 257.979969 73.123882 
" clip-path="url(#p908f259cd4)" style="fill: none; stroke: #000000; stroke-linejoin: miter"/>
   </g>
  </g>
  <g id="axes_9">
   <g id="patch_10">
    <path d="M 310.581818 84.685909 
Q 312.218182 85.422273 314.304545 86.997273 
Q 316.390909 88.572273 317.965909 89.963182 
Q 319.540909 91.354091 321.729545 92.458636 
Q 323.918182 93.563182 326.004545 93.645 
M 311.195455 82.967727 
L 319.663636 81.576818 
Q 318.354545 86.731364 316.411364 89.288182 
Q 314.468182 91.845 310.704545 93.195 
M 300.15 86.772273 
L 300.395455 86.772273 
L 300.477273 86.772273 
L 300.559091 86.731364 
L 300.763636 86.526818 
L 305.181818 85.913182 
M 299.904545 83.458636 
L 304.568182 82.967727 
L 305.181818 82.845 
M 307.759091 80.022273 
L 307.759091 80.390455 
Q 307.759091 90.535909 307.963636 95.608636 
M 295.486364 91.558636 
Q 301.868182 89.799545 306.409091 89.472273 
L 310.827273 89.104091 
M 299.781818 80.267727 
L 299.904545 87.754091 
L 300.027273 90.208636 
M 293.645455 80.635909 
L 294.136364 80.635909 
Q 295.2 80.635909 296.488636 80.513182 
Q 297.777273 80.390455 299.372727 80.185909 
Q 300.968182 79.981364 301.745455 79.899545 
L 323.713636 78.017727 
M 303.586364 73.272273 
Q 303.954545 73.149545 305.120455 73.17 
Q 306.286364 73.190455 306.654545 72.904091 
L 312.177273 72.658636 
M 303.218182 77.199545 
L 314.140909 76.258636 
M 302.359091 69.467727 
Q 303.790909 69.140455 305.611364 68.956364 
Q 307.431818 68.772273 308.413636 68.731364 
Q 309.395455 68.690455 311.890909 68.710909 
Q 314.386364 68.731364 314.877273 68.731364 
Q 314.754545 70.367727 314.631818 74.295 
L 314.386364 75.767727 
M 302.236364 69.222273 
L 302.236364 69.590455 
Q 302.236364 70.081364 302.4 70.613182 
Q 302.563636 71.145 302.85 71.799545 
Q 303.136364 72.454091 303.218182 72.781364 
L 303.586364 76.217727 
" clip-path="url(#p723fc4eb8b)" style="fill: none; stroke: #000000; stroke-linejoin: miter"/>
   </g>
  </g>
  <g id="axes_10">
   <g id="patch_11">
    <path d="M 353.18369 77.31491 
L 353.060686 92.526327 
M 346.459505 78.05293 
Q 345.885489 78.05293 346.377503 78.05293 
L 346.336502 78.05293 
L 346.377503 78.05293 
L 346.418504 78.05293 
L 346.500506 78.05293 
L 346.582508 78.05293 
L 346.951519 78.05293 
Q 348.632565 78.05293 350.539117 77.909426 
Q 352.445669 77.765922 354.700731 77.519916 
Q 356.955793 77.273909 358.226828 77.191907 
L 360.563892 77.068903 
M 346.336502 71.12374 
Q 346.951519 70.877733 348.427559 70.693228 
Q 349.9036 70.508723 350.518616 70.262717 
L 355.76676 68.868678 
M 346.090495 72.107767 
Q 346.418504 72.763785 346.541507 73.501805 
Q 346.664511 74.239826 346.705512 75.264854 
Q 346.746513 76.289882 346.828515 76.822897 
Q 346.828515 78.544944 346.233999 80.205489 
Q 345.639483 81.866035 344.655456 83.813588 
Q 343.671429 85.761142 343.261417 86.909173 
L 341.416367 89.615247 
M 336.701237 69.934708 
Q 337.029246 69.893706 337.295754 70.40622 
Q 337.562261 70.918735 337.931271 70.918735 
L 339.776322 73.501805 
M 330.100056 93.059342 
Q 335.471204 91.296294 343.138414 91.583301 
Q 345.639483 91.583301 348.079049 92.157317 
Q 350.518616 92.731333 352.179162 93.407852 
Q 353.839708 94.08437 356.238273 94.658386 
Q 358.636839 95.232402 361.096907 95.232402 
Q 361.260911 95.273403 361.404415 95.273403 
Q 361.547919 95.273403 361.629921 95.273403 
Q 361.711924 95.273403 361.855427 95.150399 
Q 361.998931 95.027396 362.060433 94.986395 
Q 362.121935 94.945394 362.285939 94.781389 
L 362.449944 94.617385 
M 332.314117 78.175934 
Q 333.298144 77.355911 336.906243 76.494888 
Q 339.202306 75.920872 338.9973 76.371884 
Q 338.956299 76.453886 338.792295 76.57689 
Q 337.52126 77.642919 336.947244 78.852452 
Q 336.373228 80.061985 336.250225 81.866035 
Q 336.127222 84.285101 337.726265 88.016204 
L 337.972272 90.968285 
" clip-path="url(#p412dcd9d30)" style="fill: none; stroke: #000000; stroke-linejoin: miter"/>
   </g>
  </g>
  <g id="axes_11">
   <g id="patch_12">
    <path d="M 387.52425 76.707 
Q 389.34675 77.193 392.99175 79.80525 
M 384.7905 68.87025 
Q 387.2205 69.0525 390.987 68.110875 
Q 394.7535 67.16925 396.09 67.04775 
Q 396.75825 67.04775 397.12275 67.199625 
Q 397.48725 67.3515 397.60875 67.746375 
Q 397.73025 68.14125 397.699875 68.536125 
Q 397.6695 68.931 397.60875 69.7815 
Q 397.548 70.632 397.548 71.2395 
Q 397.9125 78.165 396.63675 92.92725 
Q 396.63675 93.53475 396.63675 94.02075 
Q 396.63675 94.50675 396.606375 94.87125 
Q 396.576 95.23575 396.302625 95.448375 
Q 396.02925 95.661 395.361 95.661 
L 394.2675 95.661 
L 390.44025 93.1095 
M 387.7065 61.21575 
L 387.7065 61.7625 
Q 387.7065 63.099 387.099 64.86075 
Q 386.4915 66.6225 385.5195 68.688 
Q 384.5475 70.7535 384.24375 71.604 
L 383.15025 73.4265 
M 369.2385 93.474 
L 370.87875 93.474 
L 380.35575 92.92725 
M 369.2385 80.7165 
L 378.351 80.352 
M 367.5375 71.118 
L 370.63575 71.118 
Q 371.4255 71.118 373.91625 70.57125 
Q 376.407 70.0245 378.4725 69.47775 
Q 380.538 68.931 380.538 68.87025 
Q 380.538 86.5485 380.1735 92.016 
L 379.62675 96.0255 
M 368.2665 69.2955 
L 368.2665 69.84225 
Q 368.2665 72.63675 368.93475 77.891625 
Q 369.603 83.1465 369.603 86.00175 
L 369.603 92.016 
L 368.874 93.8385 
M 378.16875 62.67375 
Q 377.43975 63.15975 376.58925 64.6785 
Q 375.73875 66.19725 375.0705 66.68325 
L 373.6125 69.96375 
" clip-path="url(#pfad7ebd7a3)" style="fill: none; stroke: #000000; stroke-linejoin: miter"/>
   </g>
  </g>
 </g>
 <defs>
  <clipPath id="p229bfbb9ed">
   <rect x="0" y="50.150012" width="36.45" height="60.889977"/>
  </clipPath>
  <clipPath id="p43dd58804c">
   <rect x="36.45" y="46.930987" width="36.45" height="67.328025"/>
  </clipPath>
  <clipPath id="p8743b9345e">
   <rect x="72.9" y="36.031341" width="36.45" height="89.127319"/>
  </clipPath>
  <clipPath id="p4a55dbf8c9">
   <rect x="109.35" y="46.452558" width="36.45" height="68.284884"/>
  </clipPath>
  <clipPath id="pd0407b6697">
   <rect x="145.8" y="50.835709" width="36.45" height="59.518581"/>
  </clipPath>
  <clipPath id="p3e19633370">
   <rect x="182.25" y="46.758572" width="36.45" height="67.672855"/>
  </clipPath>
  <clipPath id="p22ebff6fc2">
   <rect x="218.7" y="45.960334" width="36.45" height="69.269332"/>
  </clipPath>
  <clipPath id="p908f259cd4">
   <rect x="255.15" y="39.56045" width="36.45" height="82.069099"/>
  </clipPath>
  <clipPath id="p723fc4eb8b">
   <rect x="291.6" y="50.935909" width="36.45" height="59.318182"/>
  </clipPath>
  <clipPath id="p412dcd9d30">
   <rect x="328.05" y="50.869184" width="36.45" height="59.451631"/>
  </clipPath>
  <clipPath id="pfad7ebd7a3">
   <rect x="364.5" y="36.55125" width="36.45" height="88.0875"/>
  </clipPath>
 </defs>
</svg>
