<?xml version="1.0" encoding="utf-8" standalone="no"?>
<!DOCTYPE svg PUBLIC "-//W3C//DTD SVG 1.1//EN"
  "http://www.w3.org/Graphics/SVG/1.1/DTD/svg11.dtd">
<svg xmlns:xlink="http://www.w3.org/1999/xlink" width="220.5pt" height="72pt" viewBox="0 0 220.5 72" xmlns="http://www.w3.org/2000/svg" version="1.1">
 <metadata>
  <rdf:RDF xmlns:dc="http://purl.org/dc/elements/1.1/" xmlns:cc="http://creativecommons.org/ns#" xmlns:rdf="http://www.w3.org/1999/02/22-rdf-syntax-ns#">
   <cc:Work>
    <dc:type rdf:resource="http://purl.org/dc/dcmitype/StillImage"/>
    <dc:date>2023-02-13T19:51:44.499300</dc:date>
    <dc:format>image/svg+xml</dc:format>
    <dc:creator>
     <cc:Agent>
      <dc:title>Matplotlib v3.6.1, https://matplotlib.org/</dc:title>
     </cc:Agent>
    </dc:creator>
   </cc:Work>
  </rdf:RDF>
 </metadata>
 <defs>
  <style type="text/css">*{stroke-linejoin: round; stroke-linecap: butt}</style>
 </defs>
 <g id="figure_1">
  <g id="patch_1">
   <path d="M 0 72 
L 220.5 72 
L 220.5 0 
L 0 0 
z
" style="fill: #8fff9f"/>
  </g>
  <g id="axes_1">
   <g id="patch_2">
    <path d="M 12.094324 35.670041 
L 12.094324 36.007448 
Q 12.094324 40.993572 5.008779 46.242124 
L 4.333966 46.467062 
M 8.270379 35.78251 
L 8.495317 35.78251 
Q 10.107372 35.78251 14.13751 35.013972 
Q 18.167648 34.245434 19.779703 34.245434 
Q 20.342048 34.245434 20.398283 35.595062 
Q 20.454517 36.94469 20.135855 38.800428 
Q 19.817193 40.656166 19.536021 42.024538 
Q 19.254848 43.39291 19.10489 43.992745 
Q 18.804972 45.154924 18.448821 45.848483 
Q 18.092669 46.542041 17.830241 46.766979 
Q 17.567814 46.991917 17.192917 47.348069 
Q 16.818021 47.704221 16.518103 48.154097 
L 14.75609 46.167145 
M 12.356752 26.07269 
Q 12.58169 25.922731 12.712903 26.0352 
Q 12.844117 26.147669 13.0878 26.466331 
Q 13.331483 26.784993 13.481441 26.859972 
Q 15.018517 27.609766 18.317607 30.102828 
Q 21.616697 32.59589 23.45369 34.207945 
L 25.253193 34.882759 
M 9.24511 28.547007 
L 9.24511 28.996883 
Q 9.24511 30.084083 8.495317 31.283752 
Q 7.745524 32.483421 6.714559 33.739324 
Q 5.683593 34.995228 5.346186 35.745021 
L 3.096807 37.319586 
" clip-path="url(#p37c7b0031e)" style="fill: none; stroke: #000000; stroke-linejoin: miter"/>
   </g>
  </g>
  <g id="axes_2">
   <g id="patch_3">
    <path d="M 30.108685 41.764355 
L 34.259181 41.764355 
Q 42.138089 41.694007 49.454218 42.397481 
Q 50.122519 42.397481 52.004311 42.485416 
Q 53.886104 42.57335 54.941315 42.503002 
M 41.645658 38.633896 
L 41.645658 38.950459 
Q 41.962221 40.111191 42.050155 41.096055 
Q 42.138089 42.080918 42.085329 43.470279 
Q 42.032568 44.85964 42.067742 45.668635 
Q 42.067742 46.055546 42.226024 46.794194 
Q 42.384305 47.532841 42.384305 47.884578 
L 42.489826 48.834268 
Q 42.489826 48.728747 42.366718 48.588052 
Q 42.24361 48.447357 42.067742 48.289076 
Q 41.891873 48.130794 41.8567 48.09562 
L 38.163462 45.985199 
M 34.364702 36.523474 
L 50.474256 36.277258 
L 43.228474 38.950459 
L 42.489826 39.372543 
M 36.264082 34.307531 
L 47.027233 34.307531 
M 36.05304 29.242519 
L 46.605149 29.136998 
M 46.816191 29.34804 
L 46.816191 30.192208 
Q 46.816191 30.790161 46.763431 31.053964 
Q 46.71067 31.317767 46.552388 31.687091 
Q 46.394107 32.056414 46.288586 32.619194 
L 46.183065 34.413052 
M 35.841998 28.925955 
L 35.841998 29.453561 
L 36.475124 33.990968 
M 40.555273 25.267891 
Q 41.047705 25.408586 41.082878 26.006538 
L 41.927047 26.745186 
M 30.952854 27.589355 
Q 34.15366 27.061749 40.150775 27.11451 
Q 46.147891 27.16727 49.419045 26.850707 
L 53.639888 27.16727 
" clip-path="url(#pd86322f543)" style="fill: none; stroke: #000000; stroke-linejoin: miter"/>
   </g>
  </g>
  <g id="axes_3">
   <g id="patch_4">
    <path d="M 70.020226 34.858379 
Q 71.551696 34.252915 74.721482 34.057029 
Q 77.891269 33.861143 79.315892 33.433756 
L 83.269221 32.828291 
M 77.178957 27.592802 
Q 77.32142 28.127035 77.267996 29.818775 
Q 77.214573 31.510515 77.606344 32.080364 
L 77.713191 46.29098 
M 73.759862 28.447575 
Q 73.724246 28.803731 73.759862 29.195503 
Q 73.759862 31.22559 73.688631 32.472136 
Q 73.617399 33.718681 73.314667 35.392613 
Q 73.011935 37.066545 72.264008 38.437745 
Q 71.51608 39.808945 70.340766 40.948643 
L 69.165452 41.803417 
M 71.729774 28.661269 
L 72.157161 28.661269 
Q 73.04755 28.661269 74.044786 28.518807 
Q 75.042023 28.376344 76.27076 28.144843 
Q 77.499497 27.913342 78.140578 27.806495 
L 80.277513 27.592802 
M 61.579334 37.67201 
L 67.277827 37.458317 
L 68.025754 37.35147 
M 61.472487 32.721445 
L 66.636746 32.294058 
L 67.81206 32.080364 
L 67.277827 37.778857 
M 61.045101 33.041985 
Q 61.436872 33.220063 61.668373 33.825528 
Q 61.899874 34.430992 62.09576 35.321382 
Q 62.291646 36.211771 62.434108 36.603543 
M 63.502575 28.768116 
Q 61.436872 33.113216 59.656093 35.392613 
Q 59.478015 35.748769 59.03282 36.336426 
Q 58.587626 36.924083 58.480779 37.102161 
M 60.297173 28.874962 
L 61.899874 28.874962 
Q 65.212123 28.910578 67.990138 28.340729 
" clip-path="url(#p7a05384433)" style="fill: none; stroke: #000000; stroke-linejoin: miter"/>
   </g>
  </g>
  <g id="axes_4">
   <g id="patch_5">
    <path d="M 91.595855 38.294317 
Q 92.495607 38.294317 94.220131 37.750717 
Q 95.944655 37.207117 96.769428 37.169628 
L 101.868021 35.932469 
Q 101.868021 37.169628 101.061993 40.037586 
Q 100.255966 42.905545 100.255966 44.330152 
Q 100.255966 44.855007 100.518393 45.229903 
Q 100.780821 45.6048 101.268186 45.829738 
Q 101.755552 46.054676 102.261662 46.18589 
Q 102.767772 46.317103 103.517566 46.354593 
Q 104.267359 46.392083 104.754724 46.392083 
Q 105.24209 46.392083 105.954393 46.373338 
Q 106.666697 46.354593 106.891634 46.354593 
Q 108.241262 46.617021 109.04729 45.304883 
Q 109.853317 43.992745 109.59089 42.643117 
M 96.881897 33.345683 
L 96.881897 33.795559 
Q 96.881897 35.295145 96.057124 37.319586 
Q 95.232352 39.344028 94.051428 41.612152 
Q 92.870503 43.880276 92.495607 44.892497 
L 91.483386 45.904717 
M 100.705841 31.771117 
Q 100.630862 31.621159 100.81831 31.658648 
Q 101.005759 31.658648 101.043248 31.658648 
Q 101.455634 31.846097 101.493124 31.883586 
L 103.854972 34.582841 
M 94.744986 31.43371 
Q 94.520048 31.696138 93.976448 32.202248 
Q 93.432848 32.708359 93.170421 33.008276 
L 91.258448 33.908028 
M 96.094614 25.922731 
Q 96.319552 25.847752 96.656959 26.07269 
Q 96.994366 26.297628 97.425497 26.672524 
Q 97.856628 27.047421 98.006586 27.15989 
Q 98.231524 27.1224 98.212779 27.309848 
Q 98.194034 27.497297 98.343993 27.609766 
M 89.046559 29.971614 
L 98.119055 29.746676 
L 105.542007 28.959393 
Q 105.954393 28.846924 105.991883 28.846924 
Q 106.179331 28.846924 106.198076 28.921903 
Q 106.216821 28.996883 106.216821 29.2968 
L 106.104352 29.971614 
L 105.429538 31.43371 
M 89.833841 28.059641 
L 88.596683 32.5584 
" clip-path="url(#pf4461e7972)" style="fill: none; stroke: #000000; stroke-linejoin: miter"/>
   </g>
  </g>
  <g id="axes_5">
   <g id="patch_6">
    <path d="M 136.647497 33.795559 
Q 137.022393 34.207945 137.565993 35.107697 
Q 138.109593 36.007448 138.447 36.382345 
L 139.234283 38.181848 
M 123.413648 27.759724 
Q 124.500848 28.17211 125.606793 29.652952 
Q 126.712738 31.133793 127.237593 32.59589 
M 120.339497 30.42149 
Q 120.864352 32.708359 121.0518 35.407614 
Q 121.239248 38.106869 121.257993 39.887628 
Q 121.276738 41.668386 121.539166 43.299186 
Q 121.801593 44.929986 122.72009 45.736014 
Q 123.638586 46.542041 125.43809 46.617021 
Q 126.4878 46.65451 132.542379 46.485807 
Q 138.596959 46.317103 138.40951 46.054676 
Q 137.434779 44.780028 137.059883 44.048979 
Q 136.684986 43.317931 136.085152 41.518428 
M 117.265345 35.182676 
Q 117.415303 35.182676 117.396559 35.388869 
Q 117.377814 35.595062 117.377814 35.632552 
L 116.140655 43.617848 
L 115.915717 43.955255 
" clip-path="url(#pcf3ede491e)" style="fill: none; stroke: #000000; stroke-linejoin: miter"/>
   </g>
  </g>
  <g id="axes_6">
   <g id="patch_7">
    <path d="M 155.700062 39.269048 
Q 155.625083 39.531476 155.868766 39.700179 
Q 156.112448 39.868883 156.4686 39.943862 
Q 156.824752 40.018841 157.199648 40.150055 
Q 157.574545 40.281269 157.724503 40.506207 
L 158.624255 41.181021 
M 152.325993 39.156579 
Q 154.312945 38.894152 159.111621 38.106869 
Q 163.910297 37.319586 166.497083 37.019669 
L 167.84671 36.9072 
M 160.086352 34.995228 
L 160.086352 35.445103 
Q 160.161331 37.357076 160.948614 41.199766 
Q 161.735897 45.042455 161.510959 46.841959 
Q 161.32351 48.154097 159.1866 45.829738 
Q 157.687014 44.217683 157.574545 44.105214 
M 155.700062 35.445103 
Q 156.074959 35.332634 157.499566 35.23891 
Q 158.924172 35.145186 159.636476 34.77029 
L 162.823097 33.795559 
M 155.550103 29.934124 
L 163.310462 29.2968 
M 155.737552 32.708359 
L 156.187428 32.708359 
Q 156.712283 32.708359 157.312117 32.633379 
Q 157.911952 32.5584 158.643 32.427186 
Q 159.374048 32.295972 159.786434 32.258483 
L 163.835317 31.358731 
M 154.537883 27.047421 
L 155.100228 27.047421 
Q 155.437634 27.047421 156.599814 26.953697 
Q 157.761993 26.859972 159.074131 26.766248 
Q 160.386269 26.672524 161.679662 26.597545 
Q 162.973055 26.522566 163.816572 26.560055 
Q 164.66009 26.597545 164.66009 26.822483 
L 164.66009 27.834703 
L 163.5354 31.396221 
M 154.200476 27.384828 
Q 154.762821 28.24709 154.950269 28.921903 
Q 155.137717 29.596717 155.231441 30.496469 
Q 155.325166 31.396221 155.512614 32.146014 
M 148.539538 35.295145 
L 148.839455 46.429572 
M 151.238793 30.121572 
L 151.238793 30.34651 
Q 150.489 31.808607 149.495524 33.289448 
Q 148.502048 34.77029 147.339869 36.344855 
Q 146.17769 37.919421 145.727814 38.556745 
L 144.00329 40.13131 
M 151.763648 26.597545 
L 148.502048 30.309021 
L 147.714766 30.871366 
" clip-path="url(#pb6594671ce)" style="fill: none; stroke: #000000; stroke-linejoin: miter"/>
   </g>
  </g>
  <g id="axes_7">
   <g id="patch_8">
    <path d="M 184.743621 42.043283 
Q 184.743621 42.043283 183.956338 42.043283 
Q 182.944117 42.043283 182.325538 42.811821 
Q 181.706959 43.580359 181.706959 44.630069 
Q 181.669469 45.679779 182.400517 46.260869 
Q 183.131566 46.841959 184.181276 46.65451 
Q 184.481193 46.617021 184.968559 46.579531 
Q 185.455924 46.542041 185.718352 46.504552 
Q 185.980779 46.467062 186.299441 46.317103 
Q 186.618103 46.167145 186.749317 45.810993 
Q 186.880531 45.454841 186.880531 44.855007 
Q 186.880531 44.592579 186.768062 44.330152 
Q 186.655593 44.067724 186.468145 43.749062 
Q 186.280697 43.4304 186.205717 43.280441 
L 185.081028 42.605628 
" clip-path="url(#pbc72ecc2cd)" style="fill: none; stroke: #000000; stroke-linejoin: miter"/>
   </g>
  </g>
 </g>
 <defs>
  <clipPath id="p37c7b0031e">
   <rect x="1.222324" y="8.64" width="25.905352" height="54.36"/>
  </clipPath>
  <clipPath id="pd86322f543">
   <rect x="28.35" y="10.319069" width="28.35" height="51.001861"/>
  </clipPath>
  <clipPath id="p7a05384433">
   <rect x="56.7" y="9.998706" width="28.35" height="51.642588"/>
  </clipPath>
  <clipPath id="pf4461e7972">
   <rect x="86.7222" y="8.64" width="25.0056" height="54.36"/>
  </clipPath>
  <clipPath id="pcf3ede491e">
   <rect x="114.041234" y="8.64" width="27.067531" height="54.36"/>
  </clipPath>
  <clipPath id="pb6594671ce">
   <rect x="142.128807" y="8.64" width="27.592386" height="54.36"/>
  </clipPath>
  <clipPath id="pbc72ecc2cd">
   <rect x="179.794986" y="8.64" width="8.960028" height="54.36"/>
  </clipPath>
 </defs>
</svg>
