<?xml version="1.0" encoding="utf-8" standalone="no"?>
<!DOCTYPE svg PUBLIC "-//W3C//DTD SVG 1.1//EN"
  "http://www.w3.org/Graphics/SVG/1.1/DTD/svg11.dtd">
<svg xmlns:xlink="http://www.w3.org/1999/xlink" width="283.5pt" height="162pt" viewBox="0 0 283.5 162" xmlns="http://www.w3.org/2000/svg" version="1.1">
 <metadata>
  <rdf:RDF xmlns:dc="http://purl.org/dc/elements/1.1/" xmlns:cc="http://creativecommons.org/ns#" xmlns:rdf="http://www.w3.org/1999/02/22-rdf-syntax-ns#">
   <cc:Work>
    <dc:type rdf:resource="http://purl.org/dc/dcmitype/StillImage"/>
    <dc:date>2023-02-15T23:03:17.734496</dc:date>
    <dc:format>image/svg+xml</dc:format>
    <dc:creator>
     <cc:Agent>
      <dc:title>Matplotlib v3.6.1, https://matplotlib.org/</dc:title>
     </cc:Agent>
    </dc:creator>
   </cc:Work>
  </rdf:RDF>
 </metadata>
 <defs>
  <style type="text/css">*{stroke-linejoin: round; stroke-linecap: butt}</style>
 </defs>
 <g id="figure_1">
  <g id="patch_1">
   <path d="M 0 162 
L 283.5 162 
L 283.5 0 
L 0 0 
z
" style="fill: #8fff9f"/>
  </g>
  <g id="axes_1">
   <g id="patch_2">
    <path d="M 3.057886 92.214966 
L 33.392114 89.585185 
M 16.87953 84.87604 
Q 18.897735 90.441393 18.530789 100.287785 
Q 18.347315 102.244832 17.735738 102.244832 
Q 17.246477 102.244832 15.595218 100.104312 
Q 13.821644 97.596846 12.843121 97.352215 
M 12.659648 80.839631 
L 13.39354 80.839631 
Q 14.066275 80.839631 16.390268 80.442106 
Q 18.714262 80.044581 20.732466 79.616477 
L 22.750671 79.188372 
Q 22.750671 79.983423 22.077936 81.175998 
Q 21.405201 82.368574 20.36552 83.775201 
Q 19.325839 85.181829 19.081208 85.609933 
L 18.163842 86.894245 
M 16.390268 66.773356 
Q 18.041527 67.751879 21.313465 71.176711 
Q 24.585403 74.601544 27.031711 75.580067 
L 31.435067 77.414799 
M 16.573742 66.956829 
L 16.206795 66.956829 
Q 15.53406 67.629564 13.638171 69.953557 
Q 11.742282 72.27755 10.243918 73.500705 
Q 8.745554 74.723859 6.849664 75.213121 
L 4.464513 76.680906 
L 3.180201 77.047852 
M 8.133977 68.057668 
Q 12.904279 66.956829 21.894463 66.222936 
Q 22.811829 66.039463 24.64656 65.733674 
Q 26.481292 65.427886 27.215185 65.30557 
M 16.940688 62.920419 
L 16.940688 77.047852 
" clip-path="url(#p9ab4dbe8b0)" style="fill: none; stroke: #000000; stroke-linejoin: miter"/>
   </g>
  </g>
  <g id="axes_2">
   <g id="patch_3">
    <path d="M 43.065707 100.060445 
Q 43.829058 99.869607 45.514791 99.869607 
Q 47.200524 99.869607 48.027487 99.67877 
L 65.393717 99.297094 
M 44.210733 93.190288 
L 44.592408 93.190288 
Q 46.62801 93.190288 49.140707 92.872225 
Q 51.653403 92.554162 54.802225 92.013455 
Q 57.951047 91.472749 59.477749 91.281911 
L 62.531152 91.091073 
M 44.783246 88.801021 
Q 47.136911 87.910445 52.289529 87.369738 
Q 57.442147 86.829031 59.859424 85.938455 
Q 60.113874 85.938455 60.813613 85.843037 
Q 61.513351 85.747618 61.767801 85.747618 
L 63.294503 85.747618 
Q 63.421728 85.747618 63.580759 85.461361 
Q 63.739791 85.175105 63.994241 85.175105 
Q 64.185079 85.175105 64.185079 86.892644 
Q 64.185079 86.956257 63.803403 93.571963 
L 62.849215 98.533743 
M 58.141885 80.086099 
Q 58.650785 80.276937 59.63678 80.913063 
Q 60.622775 81.549188 61.195288 81.803639 
L 62.72199 83.139503 
M 57.760209 75.760445 
L 58.52356 75.760445 
Q 58.905236 75.760445 59.700393 76.110314 
Q 60.49555 76.460183 61.417932 77.00089 
Q 62.340314 77.541597 62.531152 77.668822 
L 63.867016 79.195524 
M 45.164921 81.231126 
Q 45.419372 81.358351 46.437173 81.70822 
Q 47.454974 82.058089 48.027487 82.503377 
L 50.699215 83.839241 
M 45.546597 76.778246 
L 46.309948 76.778246 
L 50.508377 78.686623 
M 54.325131 66.091335 
L 54.515969 84.602592 
M 50.126702 66.663848 
L 59.096073 65.137147 
M 40.203141 74.297356 
Q 44.337958 73.279555 52.734817 72.516204 
Q 61.131675 71.752853 65.012042 70.862277 
Q 66.284293 70.544215 67.333901 70.576021 
Q 68.383508 70.607827 69.05144 70.92589 
Q 69.719372 71.243953 69.464921 72.229948 
Q 69.210471 73.215942 67.874607 74.679031 
L 67.111257 76.969084 
M 40.393979 71.18034 
L 39.630628 79.068298 
" clip-path="url(#pfa06cf7abb)" style="fill: none; stroke: #000000; stroke-linejoin: miter"/>
   </g>
  </g>
  <g id="axes_3">
   <g id="patch_4">
    <path d="M 95.921053 87.069671 
Q 97.263947 86.733947 100.453322 86.709967 
Q 103.642697 86.685987 104.218224 86.638026 
L 106.951974 86.398224 
M 75.298026 89.323816 
L 75.585789 89.036053 
L 76.736842 89.036053 
Q 78.223618 89.036053 80.285921 88.508487 
L 85.321776 88.220724 
M 95.393487 81.170526 
L 95.825132 81.170526 
L 96.400658 81.170526 
L 100.621184 81.122566 
L 102.06 80.690921 
M 78.415461 82.753224 
L 78.703224 82.753224 
L 82.300263 82.177697 
L 85.609539 81.746053 
M 95.729211 74.120329 
L 97.024145 74.120329 
Q 97.791513 74.120329 98.702763 73.856546 
Q 99.614013 73.592763 100.765066 73.161118 
Q 101.916118 72.729474 102.491645 72.537632 
L 104.505987 72.249868 
M 77.983816 76.422434 
L 82.731908 75.703026 
L 85.753421 75.415263 
L 85.897303 75.271382 
M 94.482237 67.261974 
Q 94.77 74.839737 95.68125 81.026645 
Q 95.68125 81.458289 95.561349 82.249638 
Q 95.441447 83.040987 95.489408 83.472632 
L 95.633289 96.709737 
M 86.041184 68.652829 
L 85.609539 88.940132 
L 85.177895 94.119868 
L 85.177895 94.551513 
L 85.177895 95.127039 
L 84.890132 96.565855 
" clip-path="url(#pe3fc3f88ca)" style="fill: none; stroke: #000000; stroke-linejoin: miter"/>
   </g>
  </g>
  <g id="axes_4">
   <g id="patch_5">
    <path d="M 126.723913 80.242826 
L 126.9 100.845 
M 117.919565 84.468913 
L 118.447826 84.468913 
Q 121.793478 84.468913 128.66087 83.588478 
Q 135.528261 82.708043 138.873913 82.708043 
Q 139.05 82.708043 139.05 83.060217 
Q 139.05 83.940652 137.729348 89.135217 
Q 136.408696 94.329783 136.056522 94.329783 
Q 135.997826 94.329783 134.295652 92.921087 
L 133.943478 92.040652 
M 117.919565 83.940652 
L 117.919565 91.512391 
M 121.793478 80.595 
L 122.145652 80.595 
Q 122.204348 80.595 124.61087 80.066739 
L 132.71087 79.714565 
M 120.736957 74.608043 
L 121.265217 74.608043 
Q 122.791304 74.079783 124.522826 73.815652 
Q 126.254348 73.551522 128.925 73.346087 
Q 131.595652 73.140652 132.358696 73.023261 
Q 133.180435 72.90587 133.415217 73.815652 
Q 133.65 74.725435 133.444565 75.781957 
Q 133.23913 76.838478 132.886957 77.425435 
L 131.654348 81.827609 
M 119.856522 73.375435 
Q 119.73913 73.43413 120.032609 74.402609 
Q 120.326087 75.371087 120.736957 76.662391 
Q 121.147826 77.953696 121.265217 78.481957 
L 121.441304 80.066739 
M 126.9 62.986304 
Q 126.841304 63.45587 126.9 64.923261 
L 126.9 68.092826 
L 127.252174 68.621087 
M 133.23913 62.986304 
L 133.23913 63.338478 
L 131.126087 66.860217 
M 119.152174 64.395 
Q 119.328261 64.453696 119.73913 64.835217 
Q 120.15 65.216739 120.56087 65.099348 
L 122.85 67.036304 
M 112.813043 69.501522 
L 115.630435 69.501522 
Q 126.547826 69.736304 134.295652 68.445 
Q 136.35 68.092826 138.697826 68.092826 
Q 139.05 67.388478 140.81087 67.388478 
Q 141.984783 67.036304 142.425 67.417826 
Q 142.865217 67.799348 142.630435 68.503696 
Q 142.395652 69.208043 141.691304 69.853696 
Q 141.573913 70.147174 141.045652 70.822174 
Q 140.517391 71.497174 140.458696 71.966739 
M 112.636957 67.388478 
L 112.46087 71.614565 
L 112.284783 73.023261 
" clip-path="url(#pb4c23a33c0)" style="fill: none; stroke: #000000; stroke-linejoin: miter"/>
   </g>
  </g>
  <g id="axes_5">
   <g id="patch_6">
    <path d="M 158.04862 94.973815 
L 169.587175 94.973815 
M 157.220211 86.748896 
Q 157.220211 86.748896 160.415503 86.748896 
Q 160.474675 86.748896 171.243994 86.216347 
L 169.232143 94.086234 
M 156.155114 86.926412 
Q 156.33263 87.99151 156.806006 89.204537 
Q 157.279383 90.417565 157.338555 91.956039 
L 158.403653 94.441266 
M 148.758604 81.955958 
L 171.066477 81.778442 
Q 171.835714 81.660097 174.4097 81.186721 
Q 176.983685 80.713344 178.581331 80.713344 
Q 179.054708 80.713344 179.173052 81.038791 
Q 179.291396 81.364237 179.202638 82.133474 
Q 179.11388 82.902711 179.11388 83.021055 
Q 179.11388 85.506282 178.788433 90.00336 
Q 178.462987 94.500438 178.462987 96.985666 
L 178.462987 100.53599 
Q 178.462987 100.476818 176.332792 99.648409 
L 173.492532 98.228279 
M 149.113636 82.488506 
Q 150.297078 85.861315 150.001218 88.701575 
L 151.243831 98.287451 
M 157.871104 78.523977 
L 169.232143 78.346461 
M 156.510146 71.719188 
L 157.042695 71.541672 
Q 161.421429 71.955877 166.983604 71.896705 
Q 167.516153 71.896705 168.403734 71.719188 
Q 169.291315 71.541672 169.646347 71.541672 
Q 169.646347 73.790211 169.646347 74.204416 
L 168.87711 78.168945 
M 156.33263 72.429253 
Q 156.806006 72.606769 157.190625 73.642281 
Q 157.575244 74.677792 157.75276 74.914481 
L 158.04862 77.281364 
M 159.942127 63.139237 
Q 160.415503 63.080065 160.948052 63.435097 
Q 161.480601 63.79013 162.101907 64.441023 
Q 162.723214 65.091916 162.959903 65.269432 
M 149.054464 68.878929 
Q 149.705357 68.34638 152.663961 68.464724 
Q 155.622565 68.583068 156.33263 68.523896 
Q 157.397727 68.523896 158.669927 68.375966 
Q 159.942127 68.228036 161.480601 67.991347 
Q 163.019075 67.754659 163.788312 67.636315 
L 173.196672 67.281282 
L 174.261769 67.103766 
" clip-path="url(#p8c6f09b037)" style="fill: none; stroke: #000000; stroke-linejoin: miter"/>
   </g>
  </g>
  <g id="axes_6">
   <g id="patch_7">
    <path d="M 203.569811 88.222616 
Q 204.757719 88.972873 206.57084 90.942298 
Q 208.383962 92.911724 209.009177 93.474417 
L 210.509691 96.287882 
M 195.879674 87.472358 
Q 194.691767 92.474074 192.315952 95.35006 
L 191.003002 96.100317 
M 210.322127 66.652719 
Q 210.072041 67.215412 209.384305 69.091055 
Q 208.696569 70.966698 208.071355 71.90452 
Q 206.945969 73.530077 202.069297 80.344914 
L 201.131475 81.845429 
M 195.316981 69.091055 
L 195.879674 69.653748 
L 199.630961 76.406063 
M 189.877616 72.279648 
L 193.816467 78.281707 
M 185.376072 82.595686 
L 215.573928 81.407779 
" clip-path="url(#p156db375ad)" style="fill: none; stroke: #000000; stroke-linejoin: miter"/>
   </g>
  </g>
  <g id="axes_7">
   <g id="patch_8">
    <path d="M 233.635283 83.125552 
Q 233.719634 83.294255 234.310097 83.842541 
Q 234.900559 84.390828 235.153614 84.643883 
Q 235.406669 84.896938 235.954955 85.529576 
Q 236.503241 86.162214 236.840648 86.541797 
Q 237.178055 86.921379 237.684166 87.596193 
Q 238.190276 88.271007 238.485507 88.734941 
Q 238.780738 89.198876 239.118145 89.87369 
Q 239.455552 90.548503 239.666431 91.09679 
Q 239.87731 91.645076 240.046014 92.277714 
Q 240.214717 92.910352 240.214717 93.500814 
Q 240.214717 94.76609 239.87731 95.862662 
Q 239.539903 96.959234 238.907266 98.182334 
Q 238.274628 99.405434 237.937221 100.333303 
L 235.406669 102.863855 
" clip-path="url(#p56926ddd99)" style="fill: none; stroke: #000000; stroke-linejoin: miter"/>
   </g>
  </g>
 </g>
 <defs>
  <clipPath id="p9ab4dbe8b0">
   <rect x="0" y="36.255654" width="36.45" height="88.678691"/>
  </clipPath>
  <clipPath id="pfa06cf7abb">
   <rect x="36.45" y="34.47589" width="36.45" height="92.23822"/>
  </clipPath>
  <clipPath id="pe3fc3f88ca">
   <rect x="72.9" y="45.823618" width="36.45" height="69.542763"/>
  </clipPath>
  <clipPath id="pb4c23a33c0">
   <rect x="109.35" y="38.040652" width="36.45" height="85.108696"/>
  </clipPath>
  <clipPath id="p8c6f09b037">
   <rect x="145.8" y="37.695244" width="36.45" height="85.799513"/>
  </clipPath>
  <clipPath id="p156db375ad">
   <rect x="182.25" y="35.266955" width="36.45" height="90.656089"/>
  </clipPath>
  <clipPath id="p56926ddd99">
   <rect x="229.417697" y="19.44" width="15.014607" height="122.31"/>
  </clipPath>
 </defs>
</svg>
