<?xml version="1.0" encoding="utf-8" standalone="no"?>
<!DOCTYPE svg PUBLIC "-//W3C//DTD SVG 1.1//EN"
  "http://www.w3.org/Graphics/SVG/1.1/DTD/svg11.dtd">
<svg xmlns:xlink="http://www.w3.org/1999/xlink" width="126pt" height="72pt" viewBox="0 0 126 72" xmlns="http://www.w3.org/2000/svg" version="1.1">
 <metadata>
  <rdf:RDF xmlns:dc="http://purl.org/dc/elements/1.1/" xmlns:cc="http://creativecommons.org/ns#" xmlns:rdf="http://www.w3.org/1999/02/22-rdf-syntax-ns#">
   <cc:Work>
    <dc:type rdf:resource="http://purl.org/dc/dcmitype/StillImage"/>
    <dc:date>2023-02-13T19:51:16.392245</dc:date>
    <dc:format>image/svg+xml</dc:format>
    <dc:creator>
     <cc:Agent>
      <dc:title>Matplotlib v3.6.1, https://matplotlib.org/</dc:title>
     </cc:Agent>
    </dc:creator>
   </cc:Work>
  </rdf:RDF>
 </metadata>
 <defs>
  <style type="text/css">*{stroke-linejoin: round; stroke-linecap: butt}</style>
 </defs>
 <g id="figure_1">
  <g id="patch_1">
   <path d="M 0 72 
L 126 72 
L 126 0 
L 0 0 
z
" style="fill: #8fff9f"/>
  </g>
  <g id="axes_1">
   <g id="patch_2">
    <path d="M 16.086972 42.980524 
Q 16.3494 43.242952 16.986724 43.711572 
Q 17.624048 44.180193 17.886476 44.442621 
L 22.272766 47.366814 
M 7.426862 31.958566 
L 7.6518 31.958566 
Q 7.839248 31.958566 8.120421 32.089779 
Q 8.401593 32.220993 8.757745 32.408441 
Q 9.113897 32.59589 9.226366 32.633379 
L 11.925621 34.432883 
M 6.864517 35.332634 
Q 7.314393 35.670041 8.382848 36.082428 
Q 9.451303 36.494814 9.901179 36.794731 
L 10.463524 37.357076 
M 4.3902 39.718924 
L 5.627359 39.718924 
Q 8.176655 39.718924 11.082103 39.531476 
Q 13.987552 39.344028 17.567814 39.025366 
Q 21.148076 38.706703 23.060048 38.594234 
M 14.962283 31.396221 
Q 14.924793 31.658648 14.962283 32.745848 
Q 14.962283 35.445103 14.21249 37.544524 
Q 13.462697 39.643945 12.131814 42.080772 
Q 10.800931 44.5176 10.126117 46.354593 
L 8.101676 48.603972 
M 12.150559 24.98549 
Q 12.225538 25.022979 13.612655 25.660303 
L 14.287469 26.560055 
M 5.51489 30.046593 
L 8.77649 29.821655 
Q 10.313566 29.634207 13.500186 29.090607 
Q 16.686807 28.547007 19.273593 28.228345 
Q 21.860379 27.909683 23.9598 27.909683 
Q 23.472434 28.809434 23.172517 29.484248 
L 22.385234 31.283752 
M 5.964766 27.684745 
Q 5.664848 28.097131 5.739828 29.25931 
Q 5.777317 29.784166 5.402421 30.608938 
L 4.727607 33.083255 
" clip-path="url(#p7f9ce197a9)" style="fill: none; stroke: #000000; stroke-linejoin: miter"/>
   </g>
  </g>
  <g id="axes_2">
   <g id="patch_3">
    <path d="M 41.869087 46.42392 
Q 42.525 46.241722 44.183001 46.132404 
Q 45.841003 46.023085 46.679113 45.768008 
L 54.878021 45.658689 
M 53.347558 37.022506 
Q 53.347558 37.058946 51.944634 40.356729 
Q 50.54171 43.654512 50.50527 45.330733 
L 50.177314 45.986645 
M 47.444344 38.006375 
Q 47.553663 38.188573 47.972719 38.899145 
Q 48.391774 39.609717 48.646851 39.974113 
L 49.849357 41.285938 
M 44.930013 40.192751 
L 45.257969 40.192751 
Q 45.622365 40.192751 46.04142 40.575366 
Q 46.460476 40.957982 46.879531 41.504576 
Q 47.298586 42.05117 47.444344 42.160488 
L 48.100257 43.035039 
M 44.711375 35.164087 
L 50.833226 35.054769 
M 47.116388 28.386324 
Q 47.735861 28.969357 48.792609 30.171864 
Q 49.849357 31.37437 50.46883 31.993843 
Q 51.088303 32.613316 52.199711 33.214569 
Q 53.311118 33.815823 54.622943 33.961581 
M 47.88162 27.074499 
Q 47.626542 27.438895 46.93419 28.513862 
Q 46.241838 29.58883 45.822783 30.135424 
Q 45.403728 30.682018 44.729595 31.483689 
Q 44.055463 32.28536 43.326671 32.777294 
Q 42.597879 33.269229 41.759769 33.524306 
L 40.666581 34.0709 
M 30.171979 43.435874 
Q 30.97365 43.107918 32.485893 42.415566 
Q 33.998136 41.723213 35.000225 41.322378 
Q 36.002314 40.921542 37.314139 40.520707 
L 36.913303 40.192751 
M 32.576992 29.880347 
L 32.576992 30.317622 
Q 32.613432 31.009974 32.540553 31.775206 
Q 32.467674 32.540437 32.321915 33.487866 
Q 32.176157 34.435296 32.139717 34.90901 
Q 32.103278 35.127648 31.957519 35.692461 
Q 31.811761 36.257275 31.811761 36.548792 
Q 31.738882 36.986067 32.139717 36.840308 
Q 32.249036 36.840308 32.504113 36.73099 
Q 32.977828 36.512352 33.123586 36.548792 
Q 33.743059 36.69455 35.619698 36.421253 
Q 37.496337 36.147956 39.063239 35.82 
L 40.666581 35.492044 
Q 40.666581 36.69455 40.028888 42.05117 
Q 39.391195 47.407789 39.063239 47.407789 
Q 38.698843 47.407789 38.188689 46.952294 
Q 37.678535 46.496799 37.496337 46.42392 
L 36.33027 45.54937 
M 31.04653 28.568522 
L 38.225129 27.621093 
L 37.532776 31.775206 
L 36.767545 34.94545 
" clip-path="url(#p31a6960e24)" style="fill: none; stroke: #000000; stroke-linejoin: miter"/>
   </g>
  </g>
  <g id="axes_3">
   <g id="patch_4">
    <path d="M 70.181441 38.894152 
L 70.181441 47.891669 
M 61.971207 47.366814 
Q 61.971207 47.366814 64.333055 47.366814 
Q 68.906793 47.554262 78.504145 46.804469 
Q 78.504145 46.804469 80.07871 46.804469 
M 66.245028 41.968303 
Q 66.245028 41.968303 66.919841 41.968303 
Q 66.957331 41.968303 70.631317 41.743366 
L 74.905138 41.068552 
M 72.205883 36.119917 
Q 72.580779 36.344855 72.786972 37.019669 
Q 72.993166 37.694483 73.330572 37.919421 
L 74.117855 39.493986 
M 69.844034 33.420662 
Q 69.169221 34.207945 68.11951 36.101172 
Q 67.0698 37.9944 66.357497 38.819172 
L 67.932062 38.819172 
L 73.443041 37.806952 
M 66.02009 33.195724 
L 69.394159 33.195724 
Q 69.844034 33.158234 71.812241 33.214469 
Q 73.780448 33.270703 74.230324 32.970786 
M 70.106462 25.99771 
Q 70.593828 26.335117 71.006214 26.897462 
L 71.905966 28.584497 
M 62.68351 30.721407 
Q 64.745441 30.34651 70.181441 30.102828 
Q 75.617441 29.859145 78.429166 29.034372 
Q 79.253938 28.734455 79.253938 29.109352 
Q 79.216448 29.371779 78.129248 30.833876 
Q 77.829331 31.208772 77.754352 31.396221 
M 63.358324 28.24709 
L 62.008697 31.621159 
L 61.67129 32.183503 
" clip-path="url(#p937c2204c1)" style="fill: none; stroke: #000000; stroke-linejoin: miter"/>
   </g>
  </g>
  <g id="axes_4">
   <g id="patch_5">
    <path d="M 97.762903 36.94469 
Q 97.800393 37.019669 98.062821 37.263352 
Q 98.325248 37.507034 98.437717 37.619503 
Q 98.550186 37.731972 98.793869 38.013145 
Q 99.037552 38.294317 99.18751 38.463021 
Q 99.337469 38.631724 99.562407 38.931641 
Q 99.787345 39.231559 99.918559 39.437752 
Q 100.049772 39.643945 100.199731 39.943862 
Q 100.34969 40.243779 100.443414 40.487462 
Q 100.537138 40.731145 100.612117 41.012317 
Q 100.687097 41.29349 100.687097 41.555917 
Q 100.687097 42.118262 100.537138 42.605628 
Q 100.387179 43.092993 100.106007 43.636593 
Q 99.824834 44.180193 99.674876 44.592579 
L 98.550186 45.717269 
" clip-path="url(#p5498d769f3)" style="fill: none; stroke: #000000; stroke-linejoin: miter"/>
   </g>
  </g>
 </g>
 <defs>
  <clipPath id="p7f9ce197a9">
   <rect x="2.515717" y="8.64" width="23.318566" height="54.36"/>
  </clipPath>
  <clipPath id="p31a6960e24">
   <rect x="28.35" y="9.401298" width="28.35" height="52.837404"/>
  </clipPath>
  <clipPath id="p937c2204c1">
   <rect x="59.796807" y="8.64" width="22.156386" height="54.36"/>
  </clipPath>
  <clipPath id="p5498d769f3">
   <rect x="95.888421" y="8.64" width="6.673159" height="54.36"/>
  </clipPath>
 </defs>
</svg>
