<?xml version="1.0" encoding="utf-8" standalone="no"?>
<!DOCTYPE svg PUBLIC "-//W3C//DTD SVG 1.1//EN"
  "http://www.w3.org/Graphics/SVG/1.1/DTD/svg11.dtd">
<svg xmlns:xlink="http://www.w3.org/1999/xlink" width="162pt" height="162pt" viewBox="0 0 162 162" xmlns="http://www.w3.org/2000/svg" version="1.1">
 <metadata>
  <rdf:RDF xmlns:dc="http://purl.org/dc/elements/1.1/" xmlns:cc="http://creativecommons.org/ns#" xmlns:rdf="http://www.w3.org/1999/02/22-rdf-syntax-ns#">
   <cc:Work>
    <dc:type rdf:resource="http://purl.org/dc/dcmitype/StillImage"/>
    <dc:date>2023-02-15T23:02:59.214790</dc:date>
    <dc:format>image/svg+xml</dc:format>
    <dc:creator>
     <cc:Agent>
      <dc:title>Matplotlib v3.6.1, https://matplotlib.org/</dc:title>
     </cc:Agent>
    </dc:creator>
   </cc:Work>
  </rdf:RDF>
 </metadata>
 <defs>
  <style type="text/css">*{stroke-linejoin: round; stroke-linecap: butt}</style>
 </defs>
 <g id="figure_1">
  <g id="patch_1">
   <path d="M 0 162 
L 162 162 
L 162 0 
L 0 0 
z
" style="fill: #8fff9f"/>
  </g>
  <g id="axes_1">
   <g id="patch_2">
    <path d="M 21.213666 91.787846 
Q 21.623875 92.198055 22.620096 92.930571 
Q 23.616318 93.663087 24.026527 94.073296 
L 30.882878 98.644196 
M 7.676768 74.559068 
L 8.028376 74.559068 
Q 8.321383 74.559068 8.760892 74.764172 
Q 9.200402 74.969277 9.757114 75.262283 
Q 10.313826 75.555289 10.48963 75.613891 
L 14.708923 78.426752 
M 6.797749 79.833183 
Q 7.500965 80.360595 9.171101 81.005209 
Q 10.841238 81.649823 11.544453 82.118633 
L 12.423473 82.997653 
M 2.930064 86.689534 
L 4.863907 86.689534 
Q 8.848794 86.689534 13.390394 86.396527 
Q 17.931994 86.103521 23.528416 85.60541 
Q 29.124839 85.107299 32.113505 84.931495 
M 19.455627 73.680048 
Q 19.397026 74.090257 19.455627 75.789695 
Q 19.455627 80.008987 18.283601 83.290659 
Q 17.111576 86.572331 15.03123 90.381415 
Q 12.950884 94.190498 11.896061 97.061961 
L 8.731592 100.578039 
M 15.060531 63.659228 
Q 15.177733 63.71783 17.345981 64.714051 
L 18.400804 66.120482 
M 4.688103 71.570402 
L 9.786415 71.218794 
Q 12.189068 70.925788 17.170177 70.076069 
Q 22.151286 69.22635 26.194775 68.72824 
Q 30.238264 68.230129 33.519936 68.230129 
Q 32.758119 69.636559 32.289309 70.691383 
L 31.058682 73.504244 
M 5.391318 67.878521 
Q 4.922508 68.523135 5.039711 70.339775 
Q 5.098312 71.160193 4.512299 72.449421 
L 3.457476 76.317106 
" clip-path="url(#p4d1faae40f)" style="fill: none; stroke: #000000; stroke-linejoin: miter"/>
   </g>
  </g>
  <g id="axes_2">
   <g id="patch_3">
    <path d="M 53.831684 94.228612 
Q 54.675 93.994357 56.806716 93.853805 
Q 58.938432 93.713252 60.016003 93.385296 
L 70.557455 93.244743 
M 68.589717 82.14108 
Q 68.589717 82.187931 66.785958 86.427937 
Q 64.982198 90.667943 64.935347 92.823085 
L 64.513689 93.666401 
M 60.999871 83.406054 
Q 61.140424 83.640308 61.67921 84.553901 
Q 62.217995 85.467494 62.545951 85.936003 
L 64.092031 87.622635 
M 57.767159 86.217108 
L 58.188817 86.217108 
Q 58.657326 86.217108 59.196112 86.709042 
Q 59.734897 87.200977 60.273683 87.90374 
Q 60.812468 88.606504 60.999871 88.747057 
L 61.843188 89.871478 
M 57.486054 79.751684 
L 65.357005 79.611131 
M 60.578213 71.037416 
Q 61.374679 71.787031 62.733355 73.333111 
Q 64.092031 74.87919 64.888496 75.675656 
Q 65.684961 76.472121 67.113914 77.245161 
Q 68.542866 78.018201 70.229499 78.205604 
M 61.562082 69.350784 
Q 61.234126 69.819293 60.343959 71.201395 
Q 59.453792 72.583496 58.915006 73.28626 
Q 58.376221 73.989023 57.509479 75.019743 
Q 56.642738 76.050463 55.70572 76.68295 
Q 54.768702 77.315437 53.691131 77.643393 
L 52.285604 78.346157 
M 38.792545 90.386838 
Q 39.823265 89.96518 41.767577 89.075013 
Q 43.711889 88.184846 45.000289 87.669486 
Q 46.288689 87.154126 47.975321 86.638766 
L 47.459961 86.217108 
M 41.884704 72.958303 
L 41.884704 73.520514 
Q 41.931555 74.410681 41.837853 75.39455 
Q 41.744152 76.378419 41.556748 77.596542 
Q 41.369344 78.814666 41.322494 79.423728 
Q 41.275643 79.704833 41.088239 80.431022 
Q 40.900835 81.157211 40.900835 81.532018 
Q 40.807134 82.094229 41.322494 81.906825 
Q 41.463046 81.906825 41.791003 81.766272 
Q 42.400064 81.485167 42.587468 81.532018 
Q 43.383933 81.719422 45.796754 81.36804 
Q 48.209576 81.016658 50.224165 80.595 
L 52.285604 80.173342 
Q 52.285604 81.719422 51.465713 88.606504 
Q 50.645823 95.493586 50.224165 95.493586 
Q 49.755656 95.493586 49.099743 94.90795 
Q 48.44383 94.322314 48.209576 94.228612 
L 46.710347 93.10419 
M 39.916967 71.271671 
L 49.146594 70.053548 
L 48.256427 75.39455 
L 47.272558 79.470578 
" clip-path="url(#p7e4aa705d6)" style="fill: none; stroke: #000000; stroke-linejoin: miter"/>
   </g>
  </g>
  <g id="axes_3">
   <g id="patch_4">
    <path d="M 89.98401 85.65236 
L 89.98401 100.454391 
M 76.477157 99.590939 
Q 76.477157 99.590939 80.36269 99.590939 
Q 87.887056 99.899315 103.675888 98.665812 
Q 103.675888 98.665812 106.266244 98.665812 
M 83.508122 90.709721 
Q 83.508122 90.709721 84.618274 90.709721 
Q 84.679949 90.709721 90.724112 90.33967 
L 97.755076 89.229518 
M 93.314467 81.088401 
Q 93.931218 81.458452 94.270431 82.568604 
Q 94.609645 83.678756 95.164721 84.048807 
L 96.459898 86.639162 
M 89.428934 76.647792 
Q 88.318782 77.94297 86.591878 81.057563 
Q 84.864975 84.172157 83.693147 85.52901 
L 86.283503 85.52901 
L 95.349746 83.863782 
M 83.138071 76.277741 
L 88.688832 76.277741 
Q 89.428934 76.216066 92.666878 76.308579 
Q 95.904822 76.401091 96.644924 75.90769 
M 89.86066 64.436117 
Q 90.662437 64.991193 91.340863 65.91632 
L 92.821066 68.691701 
M 77.648985 72.207183 
Q 81.041117 71.590431 89.98401 71.189543 
Q 98.926904 70.788655 103.552538 69.431802 
Q 104.909391 68.938401 104.909391 69.555152 
Q 104.847716 69.986878 103.059137 72.392208 
Q 102.565736 73.008959 102.442386 73.317335 
M 78.759137 68.136624 
L 76.538832 73.687386 
L 75.983756 74.612513 
" clip-path="url(#pbeabf82e77)" style="fill: none; stroke: #000000; stroke-linejoin: miter"/>
   </g>
  </g>
  <g id="axes_4">
   <g id="patch_5">
    <path d="M 124.285283 83.125552 
Q 124.369634 83.294255 124.960097 83.842541 
Q 125.550559 84.390828 125.803614 84.643883 
Q 126.056669 84.896938 126.604955 85.529576 
Q 127.153241 86.162214 127.490648 86.541797 
Q 127.828055 86.921379 128.334166 87.596193 
Q 128.840276 88.271007 129.135507 88.734941 
Q 129.430738 89.198876 129.768145 89.87369 
Q 130.105552 90.548503 130.316431 91.09679 
Q 130.52731 91.645076 130.696014 92.277714 
Q 130.864717 92.910352 130.864717 93.500814 
Q 130.864717 94.76609 130.52731 95.862662 
Q 130.189903 96.959234 129.557266 98.182334 
Q 128.924628 99.405434 128.587221 100.333303 
L 126.056669 102.863855 
" clip-path="url(#p39580883f8)" style="fill: none; stroke: #000000; stroke-linejoin: miter"/>
   </g>
  </g>
 </g>
 <defs>
  <clipPath id="p4d1faae40f">
   <rect x="0" y="38.109068" width="36.45" height="84.971865"/>
  </clipPath>
  <clipPath id="p7e4aa705d6">
   <rect x="36.45" y="46.628098" width="36.45" height="67.933805"/>
  </clipPath>
  <clipPath id="pbeabf82e77">
   <rect x="72.9" y="35.880533" width="36.45" height="89.428934"/>
  </clipPath>
  <clipPath id="p39580883f8">
   <rect x="120.067697" y="19.44" width="15.014607" height="122.31"/>
  </clipPath>
 </defs>
</svg>
