<?xml version="1.0" encoding="utf-8" standalone="no"?>
<!DOCTYPE svg PUBLIC "-//W3C//DTD SVG 1.1//EN"
  "http://www.w3.org/Graphics/SVG/1.1/DTD/svg11.dtd">
<svg xmlns:xlink="http://www.w3.org/1999/xlink" width="432pt" height="72pt" viewBox="0 0 432 72" xmlns="http://www.w3.org/2000/svg" version="1.1">
 <metadata>
  <rdf:RDF xmlns:dc="http://purl.org/dc/elements/1.1/" xmlns:cc="http://creativecommons.org/ns#" xmlns:rdf="http://www.w3.org/1999/02/22-rdf-syntax-ns#">
   <cc:Work>
    <dc:type rdf:resource="http://purl.org/dc/dcmitype/StillImage"/>
    <dc:date>2023-02-15T23:03:07.362020</dc:date>
    <dc:format>image/svg+xml</dc:format>
    <dc:creator>
     <cc:Agent>
      <dc:title>Matplotlib v3.6.1, https://matplotlib.org/</dc:title>
     </cc:Agent>
    </dc:creator>
   </cc:Work>
  </rdf:RDF>
 </metadata>
 <defs>
  <style type="text/css">*{stroke-linejoin: round; stroke-linecap: butt}</style>
 </defs>
 <g id="figure_1">
  <g id="patch_1">
   <path d="M 0 72 
L 432 72 
L 432 0 
L 0 0 
z
" style="fill: #8fff9f"/>
  </g>
  <g id="axes_1">
   <g id="patch_2">
    <path d="M 2.963917 36.382345 
Q 2.926428 36.494814 3.057641 36.701007 
Q 3.188855 36.9072 3.076386 37.057159 
L 3.076386 39.306538 
Q 3.076386 40.506207 3.413793 41.724621 
Q 3.7512 42.943034 4.613462 43.93651 
Q 5.475724 44.929986 6.675393 44.929986 
Q 7.912552 44.929986 8.587366 43.861531 
Q 9.262179 42.793076 9.712055 41.143531 
Q 10.161931 39.493986 10.499338 38.969131 
L 11.286621 36.382345 
L 11.061683 42.680607 
L 11.061683 45.154924 
Q 11.061683 47.066897 11.792731 51.00331 
Q 12.523779 54.939724 12.523779 56.964166 
Q 13.273572 59.213545 12.186372 60.188276 
Q 11.099172 61.163007 9.037241 60.78811 
Q 7.237738 60.488193 6.319241 60.169531 
Q 5.400745 59.850869 3.413793 58.988607 
L 3.301324 58.426262 
" clip-path="url(#pdc49006620)" style="fill: none; stroke: #000000; stroke-linejoin: miter"/>
   </g>
  </g>
  <g id="axes_2">
   <g id="patch_3">
    <path d="M 20.757228 36.157407 
L 27.842772 36.157407 
M 24.243766 39.306538 
L 24.243766 47.516772 
" clip-path="url(#p782be1f691)" style="fill: none; stroke: #000000; stroke-linejoin: miter"/>
   </g>
  </g>
  <g id="axes_3">
   <g id="patch_4">
    <path d="M 45.287191 39.096404 
Q 45.03236 39.023596 44.06764 38.623146 
Q 43.102921 38.222697 42.44764 38.077079 
Q 41.79236 37.931461 41.137079 38.00427 
Q 38.515955 38.00427 36.877753 40.388764 
Q 35.239551 42.773258 35.239551 45.430787 
Q 35.239551 47.068989 40.481798 47.068989 
Q 42.047191 47.068989 43.375955 45.558202 
Q 44.704719 44.047416 45.378202 42.172584 
Q 46.051685 40.297753 46.051685 38.768764 
Q 46.051685 37.27618 46.015281 36.984944 
L 45.942472 38.077079 
Q 45.942472 38.550337 45.942472 38.987191 
Q 45.978876 40.188539 46.179101 42.281798 
Q 46.379326 44.375056 46.543146 46.049663 
Q 46.706966 47.72427 46.743371 49.872135 
Q 46.779775 52.02 46.615955 53.658202 
Q 46.452135 55.296404 45.887865 56.971011 
Q 45.323596 58.645618 44.395281 59.737753 
Q 43.466966 60.829888 41.865169 61.521573 
Q 40.263371 62.213258 38.115506 62.213258 
Q 36.477303 62.213258 35.385169 61.466966 
Q 34.293034 60.720674 34.293034 59.155281 
Q 34.220225 58.936854 34.256629 58.936854 
Q 34.293034 58.936854 34.402247 58.936854 
Q 34.511461 58.936854 34.511461 58.82764 
" clip-path="url(#pa3b9f32d03)" style="fill: none; stroke: #000000; stroke-linejoin: miter"/>
   </g>
  </g>
  <g id="axes_4">
   <g id="patch_5">
    <path d="M 54.713048 29.671697 
Q 55.57531 30.271531 56.400083 31.171283 
Q 57.224855 32.071034 58.180841 33.270703 
Q 59.136828 34.470372 59.661683 35.070207 
M 53.550869 41.705876 
L 53.775807 41.705876 
Q 54.038234 41.668386 54.56309 41.76211 
Q 55.087945 41.855834 55.350372 41.818345 
Q 55.950207 41.743366 56.531297 41.780855 
Q 57.112386 41.818345 57.674731 41.743366 
Q 58.237076 41.668386 58.668207 41.443448 
Q 59.099338 41.21851 59.361766 40.637421 
Q 59.624193 40.056331 59.624193 39.11909 
Q 59.511724 37.881931 58.593228 37.319586 
Q 57.674731 36.757241 56.475062 36.86971 
Q 55.125434 36.982179 54.225683 37.9944 
Q 53.325931 39.006621 53.325931 40.356248 
Q 53.325931 48.82891 60.074069 46.766979 
" clip-path="url(#p6924bb7857)" style="fill: none; stroke: #000000; stroke-linejoin: miter"/>
   </g>
  </g>
  <g id="axes_5"/>
  <g id="axes_6">
   <g id="patch_6">
    <path d="M 92.699007 34.920248 
Q 91.836745 36.007448 88.725103 40.018841 
Q 85.613462 44.030234 83.926428 46.054676 
M 84.826179 36.044938 
Q 86.700662 37.319586 89.193724 40.843614 
Q 91.686786 44.367641 93.261352 45.6048 
L 94.273572 45.942207 
" clip-path="url(#pd7b795f9c1)" style="fill: none; stroke: #000000; stroke-linejoin: miter"/>
   </g>
  </g>
  <g id="axes_7">
   <g id="patch_7">
    <path d="M 101.757228 36.157407 
L 108.842772 36.157407 
M 105.243766 39.306538 
L 105.243766 47.516772 
" clip-path="url(#pbce5a52aaa)" style="fill: none; stroke: #000000; stroke-linejoin: miter"/>
   </g>
  </g>
  <g id="axes_8">
   <g id="patch_8">
    <path d="M 117.038731 37.282097 
L 117.038731 37.844441 
Q 117.301159 39.868883 117.338648 41.312234 
Q 117.376138 42.755586 117.282414 44.667559 
Q 117.18869 46.579531 117.18869 48.191586 
L 117.263669 39.643945 
Q 117.263669 38.144359 118.856979 37.507034 
Q 120.45029 36.86971 121.874897 37.282097 
Q 123.786869 37.844441 124.705366 39.04411 
Q 125.623862 40.243779 125.680097 41.668386 
Q 125.736331 43.092993 125.773821 44.817517 
Q 125.81131 46.542041 125.961269 48.191586 
" clip-path="url(#pb4dd2c8b7e)" style="fill: none; stroke: #000000; stroke-linejoin: miter"/>
   </g>
  </g>
  <g id="axes_9"/>
  <g id="axes_10">
   <g id="patch_9">
    <path d="M 157.499007 39.568966 
Q 156.149379 38.181848 153.9 38.444276 
Q 151.050786 38.444276 149.888607 39.793903 
Q 148.726428 41.143531 148.726428 44.067724 
Q 148.726428 45.56731 150.019821 46.279614 
Q 151.313214 46.991917 152.887779 46.991917 
Q 154.199917 46.991917 155.212138 45.736014 
Q 156.224359 44.48011 156.805448 42.30571 
Q 157.386538 40.13131 157.761434 37.938166 
Q 158.136331 35.745021 158.28629 33.045766 
Q 158.436248 30.34651 158.473738 28.978138 
Q 158.511228 27.609766 158.511228 26.185159 
Q 158.28629 26.260138 158.28629 29.896634 
L 158.28629 44.292662 
L 159.073572 48.229076 
" clip-path="url(#p01510eb85e)" style="fill: none; stroke: #000000; stroke-linejoin: miter"/>
   </g>
  </g>
  <g id="axes_11">
   <g id="patch_10">
    <path d="M 163.857798 38.160826 
Q 166.830275 39.535596 171.549083 39.721376 
Q 173.072477 39.721376 173.759862 38.550963 
Q 174.447248 37.38055 174.447248 35.82 
Q 174.447248 35.299817 174.354358 34.909679 
Q 174.261468 34.519541 174.019954 34.296606 
Q 173.77844 34.07367 173.611239 33.943624 
Q 173.444037 33.813578 172.998165 33.757844 
Q 172.552294 33.70211 172.347936 33.683532 
Q 172.143578 33.664954 171.567661 33.683532 
Q 170.991743 33.70211 170.768807 33.70211 
Q 168.725229 33.70211 167.238991 35.578486 
Q 165.752752 37.454862 165.752752 39.609908 
Q 165.752752 42.619541 167.684862 44.570229 
Q 169.616972 46.520917 172.663761 46.520917 
Q 174.818807 46.818165 176.342202 44.29156 
" clip-path="url(#p0aa9871022)" style="fill: none; stroke: #000000; stroke-linejoin: miter"/>
   </g>
  </g>
  <g id="axes_12"/>
  <g id="axes_13">
   <g id="patch_11">
    <path d="M 197.363917 36.382345 
Q 197.326428 36.494814 197.457641 36.701007 
Q 197.588855 36.9072 197.476386 37.057159 
L 197.476386 39.306538 
Q 197.476386 40.506207 197.813793 41.724621 
Q 198.1512 42.943034 199.013462 43.93651 
Q 199.875724 44.929986 201.075393 44.929986 
Q 202.312552 44.929986 202.987366 43.861531 
Q 203.662179 42.793076 204.112055 41.143531 
Q 204.561931 39.493986 204.899338 38.969131 
L 205.686621 36.382345 
L 205.461683 42.680607 
L 205.461683 45.154924 
Q 205.461683 47.066897 206.192731 51.00331 
Q 206.923779 54.939724 206.923779 56.964166 
Q 207.673572 59.213545 206.586372 60.188276 
Q 205.499172 61.163007 203.437241 60.78811 
Q 201.637738 60.488193 200.719241 60.169531 
Q 199.800745 59.850869 197.813793 58.988607 
L 197.701324 58.426262 
" clip-path="url(#pe2f65263e8)" style="fill: none; stroke: #000000; stroke-linejoin: miter"/>
   </g>
  </g>
  <g id="axes_14">
   <g id="patch_12">
    <path d="M 215.719572 33.795559 
L 215.719572 33.570621 
Q 215.719572 33.383172 215.775807 33.289448 
Q 215.832041 33.195724 215.907021 33.13949 
Q 215.982 33.083255 216.131959 32.989531 
Q 216.281917 32.895807 216.394386 32.783338 
L 220.555738 28.059641 
M 222.46771 37.619503 
L 219.318579 37.619503 
Q 219.20611 37.656993 218.943683 37.731972 
Q 215.719572 38.669214 214.819821 39.381517 
Q 213.282745 40.731145 213.245255 44.142703 
Q 213.245255 45.267393 214.107517 46.167145 
Q 214.969779 47.066897 216.056979 47.066897 
Q 216.919241 46.954428 217.706524 46.485807 
Q 218.493807 46.017186 218.999917 45.473586 
Q 219.506028 44.929986 220.049628 43.93651 
Q 220.593228 42.943034 220.8744 42.324455 
Q 221.155572 41.705876 221.605448 40.543697 
Q 222.055324 39.381517 222.242772 38.969131 
Q 222.580179 38.144359 222.692648 38.200593 
Q 222.805117 38.256828 222.692648 39.456497 
L 222.580179 40.993572 
Q 222.580179 41.031062 222.917586 44.705048 
L 224.154745 47.066897 
" clip-path="url(#pc6a9129c46)" style="fill: none; stroke: #000000; stroke-linejoin: miter"/>
   </g>
  </g>
  <g id="axes_15">
   <g id="patch_13">
    <path d="M 230.438731 37.282097 
L 230.438731 37.844441 
Q 230.701159 39.868883 230.738648 41.312234 
Q 230.776138 42.755586 230.682414 44.667559 
Q 230.58869 46.579531 230.58869 48.191586 
L 230.663669 39.643945 
Q 230.663669 38.144359 232.256979 37.507034 
Q 233.85029 36.86971 235.274897 37.282097 
Q 237.186869 37.844441 238.105366 39.04411 
Q 239.023862 40.243779 239.080097 41.668386 
Q 239.136331 43.092993 239.173821 44.817517 
Q 239.21131 46.542041 239.361269 48.191586 
" clip-path="url(#p3e9e2a7f89)" style="fill: none; stroke: #000000; stroke-linejoin: miter"/>
   </g>
  </g>
  <g id="axes_16">
   <g id="patch_14">
    <path d="M 251.456152 30.309021 
Q 250.968786 30.42149 251.381172 30.833876 
Q 251.756069 31.208772 251.831048 30.946345 
Q 251.868538 30.871366 251.793559 30.646428 
Q 251.793559 30.458979 251.718579 30.42149 
Q 251.6436 30.384 251.512386 30.42149 
Q 251.381172 30.458979 251.231214 30.42149 
L 251.118745 30.646428 
M 252.018497 33.345683 
Q 253.068207 37.731972 253.593062 40.13131 
Q 254.117917 42.530648 254.567793 46.317103 
Q 255.017669 50.103559 254.830221 53.25269 
Q 254.830221 53.440138 254.830221 54.021228 
Q 254.830221 54.602317 254.830221 54.902234 
Q 254.830221 55.202152 254.811476 55.783241 
Q 254.792731 56.364331 254.717752 56.701738 
Q 254.642772 57.039145 254.530303 57.52651 
Q 254.417834 58.013876 254.211641 58.313793 
Q 254.005448 58.61371 253.743021 58.894883 
Q 253.480593 59.176055 253.105697 59.307269 
Q 252.7308 59.438483 252.243434 59.438483 
Q 251.268703 59.438483 250.51891 59.251034 
Q 249.769117 59.063586 248.906855 58.707434 
Q 248.044593 58.351283 247.407269 58.201324 
L 247.182331 57.751448 
" clip-path="url(#pb2e06cdaf5)" style="fill: none; stroke: #000000; stroke-linejoin: miter"/>
   </g>
  </g>
  <g id="axes_17">
   <g id="patch_15">
    <path d="M 267.918579 29.071862 
Q 267.543683 29.146841 267.412469 29.577972 
Q 267.281255 30.009103 267.356234 30.42149 
Q 267.356234 30.571448 267.393724 30.702662 
Q 267.431214 30.833876 267.487448 30.89011 
Q 267.543683 30.946345 267.599917 31.040069 
Q 267.656152 31.133793 267.693641 31.208772 
L 267.80611 29.859145 
M 267.80611 34.020497 
Q 266.906359 39.006621 266.681421 42.793076 
L 267.131297 45.379862 
L 267.468703 46.054676 
" clip-path="url(#p6b6ec3060e)" style="fill: none; stroke: #000000; stroke-linejoin: miter"/>
   </g>
  </g>
  <g id="axes_18">
   <g id="patch_16">
    <path d="M 279.132455 35.182676 
L 286.442938 35.182676 
M 278.345172 39.456497 
Q 278.307683 39.943862 278.345172 41.143531 
Q 278.345172 42.30571 278.345172 42.755586 
Q 278.345172 43.205462 278.438897 44.198938 
Q 278.532621 45.192414 278.682579 45.6048 
Q 278.832538 46.017186 279.169945 46.692 
Q 279.507352 47.366814 279.994717 47.647986 
Q 280.482083 47.929159 281.231876 48.172841 
Q 281.981669 48.416524 282.9564 48.416524 
Q 287.192731 48.416524 287.192731 39.681434 
Q 287.192731 43.655338 288.017503 48.004138 
L 288.692317 48.229076 
" clip-path="url(#pea379148d0)" style="fill: none; stroke: #000000; stroke-linejoin: miter"/>
   </g>
  </g>
  <g id="axes_19"/>
  <g id="axes_20">
   <g id="patch_17">
    <path d="M 313.931793 37.169628 
Q 315.956234 39.194069 317.718248 41.76211 
Q 319.480262 44.330152 320.342524 46.72949 
M 316.968455 31.321241 
L 316.968455 31.546179 
Q 316.968455 32.333462 316.331131 33.514386 
Q 315.693807 34.69531 314.719076 36.101172 
Q 313.744345 37.507034 313.481917 37.95691 
L 312.244759 39.643945 
M 311.457476 26.710014 
Q 313.294469 36.269876 313.481917 48.641462 
" clip-path="url(#p2a2feffd56)" style="fill: none; stroke: #000000; stroke-linejoin: miter"/>
   </g>
  </g>
  <g id="axes_21">
   <g id="patch_18">
    <path d="M 330.113048 29.671697 
Q 330.97531 30.271531 331.800083 31.171283 
Q 332.624855 32.071034 333.580841 33.270703 
Q 334.536828 34.470372 335.061683 35.070207 
M 328.950869 41.705876 
L 329.175807 41.705876 
Q 329.438234 41.668386 329.96309 41.76211 
Q 330.487945 41.855834 330.750372 41.818345 
Q 331.350207 41.743366 331.931297 41.780855 
Q 332.512386 41.818345 333.074731 41.743366 
Q 333.637076 41.668386 334.068207 41.443448 
Q 334.499338 41.21851 334.761766 40.637421 
Q 335.024193 40.056331 335.024193 39.11909 
Q 334.911724 37.881931 333.993228 37.319586 
Q 333.074731 36.757241 331.875062 36.86971 
Q 330.525434 36.982179 329.625683 37.9944 
Q 328.725931 39.006621 328.725931 40.356248 
Q 328.725931 48.82891 335.474069 46.766979 
" clip-path="url(#p0918049b3e)" style="fill: none; stroke: #000000; stroke-linejoin: miter"/>
   </g>
  </g>
  <g id="axes_22">
   <g id="patch_19">
    <path d="M 343.463834 37.95691 
L 344.138648 37.95691 
Q 344.850952 37.95691 345.638234 37.881931 
Q 346.425517 37.806952 347.381503 37.675738 
Q 348.33749 37.544524 348.862345 37.507034 
L 353.136166 35.82 
M 349.087283 30.42149 
L 349.087283 31.43371 
Q 349.087283 33.383172 348.412469 37.207117 
Q 347.737655 41.031062 347.737655 43.018014 
Q 347.737655 43.805297 347.737655 44.105214 
Q 347.737655 44.405131 347.831379 45.042455 
Q 347.925103 45.679779 348.112552 45.960952 
Q 348.3 46.242124 348.693641 46.485807 
Q 349.087283 46.72949 349.649628 46.72949 
Q 349.762097 46.692 350.080759 46.72949 
Q 350.399421 46.766979 350.586869 46.710745 
Q 350.774317 46.65451 350.774317 46.392083 
" clip-path="url(#p670d4f4896)" style="fill: none; stroke: #000000; stroke-linejoin: miter"/>
   </g>
  </g>
  <g id="axes_23">
   <g id="patch_20">
    <path d="M 362.475559 35.557572 
Q 362.925434 35.145186 364.406276 34.057986 
Q 365.887117 32.970786 366.524441 32.183503 
M 362.812966 38.03189 
Q 362.775476 38.144359 362.794221 39.212814 
Q 362.812966 40.281269 362.812966 40.393738 
Q 362.812966 41.518428 363.075393 42.568138 
Q 363.337821 43.617848 363.768952 44.892497 
Q 364.200083 46.167145 364.387531 46.916938 
L 364.837407 47.366814 
" clip-path="url(#p81370314af)" style="fill: none; stroke: #000000; stroke-linejoin: miter"/>
   </g>
  </g>
  <g id="axes_24">
   <g id="patch_21">
    <path d="M 380.587531 45.979697 
Q 380.550041 46.017186 380.418828 46.054676 
Q 380.287614 46.092166 380.325103 46.167145 
Q 380.325103 46.579531 380.7 46.579531 
Q 381.037407 46.579531 381.037407 46.092166 
Q 381.112386 45.867228 380.831214 45.754759 
Q 380.550041 45.64229 380.362593 45.754759 
" clip-path="url(#p326e34b512)" style="fill: none; stroke: #000000; stroke-linejoin: miter"/>
   </g>
  </g>
 </g>
 <defs>
  <clipPath id="pdc49006620">
   <rect x="1.051945" y="8.64" width="14.09611" height="54.36"/>
  </clipPath>
  <clipPath id="p782be1f691">
   <rect x="18.882745" y="8.64" width="10.83451" height="54.36"/>
  </clipPath>
  <clipPath id="pa3b9f32d03">
   <rect x="32.4" y="9.426742" width="16.2" height="52.786517"/>
  </clipPath>
  <clipPath id="p6924bb7857">
   <rect x="51.451448" y="8.64" width="10.497103" height="54.36"/>
  </clipPath>
  <clipPath id="pd7b795f9c1">
   <rect x="82.051945" y="8.64" width="14.09611" height="54.36"/>
  </clipPath>
  <clipPath id="pbce5a52aaa">
   <rect x="99.882745" y="8.64" width="10.83451" height="54.36"/>
  </clipPath>
  <clipPath id="pb4dd2c8b7e">
   <rect x="115.164248" y="8.64" width="12.671503" height="54.36"/>
  </clipPath>
  <clipPath id="p01510eb85e">
   <rect x="146.851945" y="8.64" width="14.09611" height="54.36"/>
  </clipPath>
  <clipPath id="p0aa9871022">
   <rect x="162" y="8.881927" width="16.2" height="53.876147"/>
  </clipPath>
  <clipPath id="pe2f65263e8">
   <rect x="195.451945" y="8.64" width="14.09611" height="54.36"/>
  </clipPath>
  <clipPath id="pc6a9129c46">
   <rect x="211.370772" y="8.64" width="14.658455" height="54.36"/>
  </clipPath>
  <clipPath id="p3e9e2a7f89">
   <rect x="228.564248" y="8.64" width="12.671503" height="54.36"/>
  </clipPath>
  <clipPath id="pb2e06cdaf5">
   <rect x="245.307848" y="8.64" width="11.584303" height="54.36"/>
  </clipPath>
  <clipPath id="p6b6ec3060e">
   <rect x="264.806938" y="8.64" width="4.986124" height="54.36"/>
  </clipPath>
  <clipPath id="pea379148d0">
   <rect x="276.4332" y="8.64" width="14.1336" height="54.36"/>
  </clipPath>
  <clipPath id="p2a2feffd56">
   <rect x="309.582993" y="8.64" width="12.634014" height="54.36"/>
  </clipPath>
  <clipPath id="p0918049b3e">
   <rect x="326.851448" y="8.64" width="10.497103" height="54.36"/>
  </clipPath>
  <clipPath id="p670d4f4896">
   <rect x="341.589352" y="8.64" width="13.421297" height="54.36"/>
  </clipPath>
  <clipPath id="p81370314af">
   <rect x="360.601076" y="8.64" width="7.797848" height="54.36"/>
  </clipPath>
  <clipPath id="p326e34b512">
   <rect x="378.413131" y="8.64" width="4.573738" height="54.36"/>
  </clipPath>
 </defs>
</svg>
