<?xml version="1.0" encoding="utf-8" standalone="no"?>
<!DOCTYPE svg PUBLIC "-//W3C//DTD SVG 1.1//EN"
  "http://www.w3.org/Graphics/SVG/1.1/DTD/svg11.dtd">
<svg xmlns:xlink="http://www.w3.org/1999/xlink" width="612pt" height="72pt" viewBox="0 0 612 72" xmlns="http://www.w3.org/2000/svg" version="1.1">
 <metadata>
  <rdf:RDF xmlns:dc="http://purl.org/dc/elements/1.1/" xmlns:cc="http://creativecommons.org/ns#" xmlns:rdf="http://www.w3.org/1999/02/22-rdf-syntax-ns#">
   <cc:Work>
    <dc:type rdf:resource="http://purl.org/dc/dcmitype/StillImage"/>
    <dc:date>2023-02-13T19:51:43.211990</dc:date>
    <dc:format>image/svg+xml</dc:format>
    <dc:creator>
     <cc:Agent>
      <dc:title>Matplotlib v3.6.1, https://matplotlib.org/</dc:title>
     </cc:Agent>
    </dc:creator>
   </cc:Work>
  </rdf:RDF>
 </metadata>
 <defs>
  <style type="text/css">*{stroke-linejoin: round; stroke-linecap: butt}</style>
 </defs>
 <g id="figure_1">
  <g id="patch_1">
   <path d="M 0 72 
L 612 72 
L 612 0 
L 0 0 
z
" style="fill: #8fff9f"/>
  </g>
  <g id="axes_1">
   <g id="patch_2">
    <path d="M 3.263834 37.95691 
L 3.938648 37.95691 
Q 4.650952 37.95691 5.438234 37.881931 
Q 6.225517 37.806952 7.181503 37.675738 
Q 8.13749 37.544524 8.662345 37.507034 
L 12.936166 35.82 
M 8.887283 30.42149 
L 8.887283 31.43371 
Q 8.887283 33.383172 8.212469 37.207117 
Q 7.537655 41.031062 7.537655 43.018014 
Q 7.537655 43.805297 7.537655 44.105214 
Q 7.537655 44.405131 7.631379 45.042455 
Q 7.725103 45.679779 7.912552 45.960952 
Q 8.1 46.242124 8.493641 46.485807 
Q 8.887283 46.72949 9.449628 46.72949 
Q 9.562097 46.692 9.880759 46.72949 
Q 10.199421 46.766979 10.386869 46.710745 
Q 10.574317 46.65451 10.574317 46.392083 
" clip-path="url(#pffeadbfe1b)" style="fill: none; stroke: #000000; stroke-linejoin: miter"/>
   </g>
  </g>
  <g id="axes_2">
   <g id="patch_3">
    <path d="M 19.032703 35.332634 
L 29.379848 35.332634 
M 28.592566 39.344028 
Q 28.592566 39.344028 25.668372 39.344028 
Q 18.695297 39.344028 18.695297 44.5176 
Q 18.695297 46.279614 20.45731 47.19811 
Q 22.219324 48.116607 24.206276 48.116607 
Q 25.443434 47.891669 26.249462 47.2356 
Q 27.05549 46.579531 27.411641 45.586055 
Q 27.767793 44.592579 27.936497 43.674083 
Q 28.1052 42.755586 28.255159 41.443448 
Q 28.405117 40.13131 28.592566 39.344028 
Q 29.679766 46.092166 29.792234 47.029407 
L 29.904703 48.154097 
" clip-path="url(#p633de630c6)" style="fill: none; stroke: #000000; stroke-linejoin: miter"/>
   </g>
  </g>
  <g id="axes_3"/>
  <g id="axes_4">
   <g id="patch_4">
    <path d="M 60.299007 34.920248 
Q 59.436745 36.007448 56.325103 40.018841 
Q 53.213462 44.030234 51.526428 46.054676 
M 52.426179 36.044938 
Q 54.300662 37.319586 56.793724 40.843614 
Q 59.286786 44.367641 60.861352 45.6048 
L 61.873572 45.942207 
" clip-path="url(#pe49dedb2e9)" style="fill: none; stroke: #000000; stroke-linejoin: miter"/>
   </g>
  </g>
  <g id="axes_5">
   <g id="patch_5">
    <path d="M 70.200745 33.345683 
L 70.200745 33.570621 
Q 70.200745 34.545352 71.175476 35.969959 
Q 72.150207 37.394566 73.124938 37.394566 
Q 73.499834 37.394566 73.855986 36.9072 
Q 74.212138 36.419834 74.5308 35.726276 
Q 74.849462 35.032717 74.924441 34.920248 
L 75.599255 31.771117 
M 73.162428 39.419007 
L 72.712552 47.291834 
L 72.375145 47.74171 
" clip-path="url(#pafd5c2dde1)" style="fill: none; stroke: #000000; stroke-linejoin: miter"/>
   </g>
  </g>
  <g id="axes_6">
   <g id="patch_6">
    <path d="M 85.613462 35.932469 
Q 86.213297 35.257655 87.206772 34.826524 
Q 88.200248 34.395393 89.1 34.470372 
Q 89.737324 34.470372 90.22469 34.639076 
Q 90.712055 34.807779 91.030717 34.995228 
Q 91.349379 35.182676 91.574317 35.670041 
Q 91.799255 36.157407 91.911724 36.419834 
Q 92.024193 36.682262 92.080428 37.375821 
Q 92.136662 38.069379 92.155407 38.331807 
Q 92.174152 38.594234 92.155407 39.419007 
Q 92.136662 40.243779 92.136662 40.431228 
Q 92.136662 41.368469 91.967959 43.242952 
Q 91.799255 45.117434 91.799255 46.054676 
Q 91.799255 46.467062 91.85549 46.823214 
Q 91.911724 47.179366 92.005448 47.610497 
Q 92.099172 48.041628 92.136662 48.304055 
L 92.586538 48.528993 
M 86.063338 23.111007 
Q 86.288276 24.798041 86.288276 29.971614 
L 86.288276 42.3432 
L 85.950869 46.841959 
L 85.725931 47.74171 
" clip-path="url(#p09c2efd115)" style="fill: none; stroke: #000000; stroke-linejoin: miter"/>
   </g>
  </g>
  <g id="axes_7">
   <g id="patch_7">
    <path d="M 100.688772 35.145186 
Q 100.688772 35.145186 100.688772 35.595062 
Q 100.688772 36.269876 100.576303 37.619503 
Q 100.463834 38.969131 100.463834 39.643945 
Q 100.463834 41.930814 101.700993 43.599103 
Q 102.938152 45.267393 105.075062 45.267393 
Q 106.462179 45.154924 107.230717 43.917766 
Q 107.999255 42.680607 108.149214 41.237255 
Q 108.299172 39.793903 108.5616 37.9944 
Q 108.824028 36.194897 109.236414 35.370124 
Q 109.386372 35.070207 109.386372 35.670041 
Q 109.386372 36.269876 109.123945 38.706703 
Q 108.899007 41.031062 108.899007 41.555917 
Q 108.749048 42.643117 109.086455 43.767807 
Q 109.423862 44.892497 110.136166 45.6048 
" clip-path="url(#pd1e2904189)" style="fill: none; stroke: #000000; stroke-linejoin: miter"/>
   </g>
  </g>
  <g id="axes_8">
   <g id="patch_8">
    <path d="M 116.232703 35.332634 
L 126.579848 35.332634 
M 125.792566 39.344028 
Q 125.792566 39.344028 122.868372 39.344028 
Q 115.895297 39.344028 115.895297 44.5176 
Q 115.895297 46.279614 117.65731 47.19811 
Q 119.419324 48.116607 121.406276 48.116607 
Q 122.643434 47.891669 123.449462 47.2356 
Q 124.25549 46.579531 124.611641 45.586055 
Q 124.967793 44.592579 125.136497 43.674083 
Q 125.3052 42.755586 125.455159 41.443448 
Q 125.605117 40.13131 125.792566 39.344028 
Q 126.879766 46.092166 126.992234 47.029407 
L 127.104703 48.154097 
" clip-path="url(#p09fd0f97ee)" style="fill: none; stroke: #000000; stroke-linejoin: miter"/>
   </g>
  </g>
  <g id="axes_9">
   <g id="patch_9">
    <path d="M 133.238731 37.282097 
L 133.238731 37.844441 
Q 133.501159 39.868883 133.538648 41.312234 
Q 133.576138 42.755586 133.482414 44.667559 
Q 133.38869 46.579531 133.38869 48.191586 
L 133.463669 39.643945 
Q 133.463669 38.144359 135.056979 37.507034 
Q 136.65029 36.86971 138.074897 37.282097 
Q 139.986869 37.844441 140.905366 39.04411 
Q 141.823862 40.243779 141.880097 41.668386 
Q 141.936331 43.092993 141.973821 44.817517 
Q 142.01131 46.542041 142.161269 48.191586 
" clip-path="url(#p3a75e5bf87)" style="fill: none; stroke: #000000; stroke-linejoin: miter"/>
   </g>
  </g>
  <g id="axes_10"/>
  <g id="axes_11">
   <g id="patch_10">
    <path d="M 166.613462 35.932469 
Q 167.213297 35.257655 168.206772 34.826524 
Q 169.200248 34.395393 170.1 34.470372 
Q 170.737324 34.470372 171.22469 34.639076 
Q 171.712055 34.807779 172.030717 34.995228 
Q 172.349379 35.182676 172.574317 35.670041 
Q 172.799255 36.157407 172.911724 36.419834 
Q 173.024193 36.682262 173.080428 37.375821 
Q 173.136662 38.069379 173.155407 38.331807 
Q 173.174152 38.594234 173.155407 39.419007 
Q 173.136662 40.243779 173.136662 40.431228 
Q 173.136662 41.368469 172.967959 43.242952 
Q 172.799255 45.117434 172.799255 46.054676 
Q 172.799255 46.467062 172.85549 46.823214 
Q 172.911724 47.179366 173.005448 47.610497 
Q 173.099172 48.041628 173.136662 48.304055 
L 173.586538 48.528993 
M 167.063338 23.111007 
Q 167.288276 24.798041 167.288276 29.971614 
L 167.288276 42.3432 
L 166.950869 46.841959 
L 166.725931 47.74171 
" clip-path="url(#pd99a21d517)" style="fill: none; stroke: #000000; stroke-linejoin: miter"/>
   </g>
  </g>
  <g id="axes_12">
   <g id="patch_11">
    <path d="M 183.0384 34.357903 
Q 183.300828 34.395393 183.638234 33.795559 
Q 183.975641 33.195724 184.500497 33.345683 
L 188.999255 29.2968 
M 182.138648 40.656166 
L 182.363586 40.656166 
Q 183.07589 40.656166 184.63171 41.330979 
Q 186.187531 42.005793 187.087283 42.005793 
Q 189.786538 42.005793 189.786538 38.744193 
Q 189.786538 36.607283 186.412469 36.607283 
Q 184.537986 36.607283 183.450786 37.750717 
Q 182.363586 38.894152 182.363586 40.768634 
Q 182.363586 43.617848 183.694469 45.454841 
Q 185.025352 47.291834 187.762097 47.291834 
Q 189.224193 47.591752 190.461352 45.6048 
" clip-path="url(#pd664326bb5)" style="fill: none; stroke: #000000; stroke-linejoin: miter"/>
   </g>
  </g>
  <g id="axes_13"/>
  <g id="axes_14">
   <g id="patch_12">
    <path d="M 213.863834 37.95691 
L 214.538648 37.95691 
Q 215.250952 37.95691 216.038234 37.881931 
Q 216.825517 37.806952 217.781503 37.675738 
Q 218.73749 37.544524 219.262345 37.507034 
L 223.536166 35.82 
M 219.487283 30.42149 
L 219.487283 31.43371 
Q 219.487283 33.383172 218.812469 37.207117 
Q 218.137655 41.031062 218.137655 43.018014 
Q 218.137655 43.805297 218.137655 44.105214 
Q 218.137655 44.405131 218.231379 45.042455 
Q 218.325103 45.679779 218.512552 45.960952 
Q 218.7 46.242124 219.093641 46.485807 
Q 219.487283 46.72949 220.049628 46.72949 
Q 220.162097 46.692 220.480759 46.72949 
Q 220.799421 46.766979 220.986869 46.710745 
Q 221.174317 46.65451 221.174317 46.392083 
" clip-path="url(#p6ac3397d0f)" style="fill: none; stroke: #000000; stroke-linejoin: miter"/>
   </g>
  </g>
  <g id="axes_15">
   <g id="patch_13">
    <path d="M 231.750869 35.182676 
Q 232.163255 34.69531 233.137986 33.851793 
Q 234.112717 33.008276 234.787531 32.220993 
Q 235.462345 31.43371 235.687283 30.458979 
L 236.924441 28.996883 
M 236.02469 38.219338 
Q 234.412634 37.656993 233.77531 37.769462 
Q 231.788359 37.769462 230.58869 39.0816 
Q 229.389021 40.393738 229.389021 42.493159 
Q 229.389021 45.454841 231.544676 47.123131 
Q 233.700331 48.791421 236.811972 48.791421 
Q 238.536497 48.791421 239.473738 47.27309 
Q 240.410979 45.754759 240.410979 43.842786 
Q 240.410979 42.755586 240.036083 41.83709 
Q 239.661186 40.918593 239.042607 39.887628 
Q 238.424028 38.856662 238.1616 38.219338 
L 235.237407 37.544524 
" clip-path="url(#p432a7a8202)" style="fill: none; stroke: #000000; stroke-linejoin: miter"/>
   </g>
  </g>
  <g id="axes_16">
   <g id="patch_14">
    <path d="M 246.638731 37.282097 
L 246.638731 37.844441 
Q 246.901159 39.868883 246.938648 41.312234 
Q 246.976138 42.755586 246.882414 44.667559 
Q 246.78869 46.579531 246.78869 48.191586 
L 246.863669 39.643945 
Q 246.863669 38.144359 248.456979 37.507034 
Q 250.05029 36.86971 251.474897 37.282097 
Q 253.386869 37.844441 254.305366 39.04411 
Q 255.223862 40.243779 255.280097 41.668386 
Q 255.336331 43.092993 255.373821 44.817517 
Q 255.41131 46.542041 255.561269 48.191586 
" clip-path="url(#p81e302ba44)" style="fill: none; stroke: #000000; stroke-linejoin: miter"/>
   </g>
  </g>
  <g id="axes_17">
   <g id="patch_15">
    <path d="M 272.087191 39.096404 
Q 271.83236 39.023596 270.86764 38.623146 
Q 269.902921 38.222697 269.24764 38.077079 
Q 268.59236 37.931461 267.937079 38.00427 
Q 265.315955 38.00427 263.677753 40.388764 
Q 262.039551 42.773258 262.039551 45.430787 
Q 262.039551 47.068989 267.281798 47.068989 
Q 268.847191 47.068989 270.175955 45.558202 
Q 271.504719 44.047416 272.178202 42.172584 
Q 272.851685 40.297753 272.851685 38.768764 
Q 272.851685 37.27618 272.815281 36.984944 
L 272.742472 38.077079 
Q 272.742472 38.550337 272.742472 38.987191 
Q 272.778876 40.188539 272.979101 42.281798 
Q 273.179326 44.375056 273.343146 46.049663 
Q 273.506966 47.72427 273.543371 49.872135 
Q 273.579775 52.02 273.415955 53.658202 
Q 273.252135 55.296404 272.687865 56.971011 
Q 272.123596 58.645618 271.195281 59.737753 
Q 270.266966 60.829888 268.665169 61.521573 
Q 267.063371 62.213258 264.915506 62.213258 
Q 263.277303 62.213258 262.185169 61.466966 
Q 261.093034 60.720674 261.093034 59.155281 
Q 261.020225 58.936854 261.056629 58.936854 
Q 261.093034 58.936854 261.202247 58.936854 
Q 261.311461 58.936854 261.311461 58.82764 
" clip-path="url(#pe5392eb7ec)" style="fill: none; stroke: #000000; stroke-linejoin: miter"/>
   </g>
  </g>
  <g id="axes_18">
   <g id="patch_16">
    <path d="M 279.057476 43.917766 
Q 279.357393 44.180193 280.369614 45.154924 
Q 281.381834 46.129655 281.944179 46.560786 
Q 282.506524 46.991917 283.53749 47.385559 
Q 284.568455 47.7792 285.580676 47.629241 
Q 286.25549 47.629241 286.72411 47.404303 
Q 287.192731 47.179366 287.417669 46.879448 
Q 287.642607 46.579531 287.773821 45.979697 
Q 287.905034 45.379862 287.923779 44.967476 
Q 287.942524 44.55509 287.942524 43.805297 
Q 287.942524 42.718097 287.042772 42.043283 
Q 286.143021 41.368469 284.849628 41.031062 
Q 283.556234 40.693655 282.262841 40.300014 
Q 280.969448 39.906372 280.069697 38.987876 
Q 279.169945 38.069379 279.169945 36.607283 
Q 279.169945 36.082428 279.338648 35.726276 
Q 279.507352 35.370124 279.900993 35.145186 
Q 280.294634 34.920248 280.575807 34.807779 
Q 280.856979 34.69531 281.513048 34.639076 
Q 282.169117 34.582841 282.356566 34.582841 
Q 282.544014 34.582841 283.218828 34.582841 
Q 284.418497 34.582841 284.999586 34.995228 
Q 285.580676 35.407614 285.899338 36.026193 
Q 286.218 36.644772 286.480428 36.832221 
" clip-path="url(#p34c8054b42)" style="fill: none; stroke: #000000; stroke-linejoin: miter"/>
   </g>
  </g>
  <g id="axes_19">
   <g id="patch_17">
    <path d="M 296.213462 35.932469 
Q 296.813297 35.257655 297.806772 34.826524 
Q 298.800248 34.395393 299.7 34.470372 
Q 300.337324 34.470372 300.82469 34.639076 
Q 301.312055 34.807779 301.630717 34.995228 
Q 301.949379 35.182676 302.174317 35.670041 
Q 302.399255 36.157407 302.511724 36.419834 
Q 302.624193 36.682262 302.680428 37.375821 
Q 302.736662 38.069379 302.755407 38.331807 
Q 302.774152 38.594234 302.755407 39.419007 
Q 302.736662 40.243779 302.736662 40.431228 
Q 302.736662 41.368469 302.567959 43.242952 
Q 302.399255 45.117434 302.399255 46.054676 
Q 302.399255 46.467062 302.45549 46.823214 
Q 302.511724 47.179366 302.605448 47.610497 
Q 302.699172 48.041628 302.736662 48.304055 
L 303.186538 48.528993 
M 296.663338 23.111007 
Q 296.888276 24.798041 296.888276 29.971614 
L 296.888276 42.3432 
L 296.550869 46.841959 
L 296.325931 47.74171 
" clip-path="url(#p65aaf02782)" style="fill: none; stroke: #000000; stroke-linejoin: miter"/>
   </g>
  </g>
  <g id="axes_20">
   <g id="patch_18">
    <path d="M 313.613131 30.384 
L 316.874731 34.657821 
M 316.537324 37.019669 
L 316.274897 41.743366 
Q 316.387366 42.268221 316.518579 43.749062 
Q 316.649793 45.229903 316.9872 46.1484 
Q 317.324607 47.066897 318.186869 47.591752 
" clip-path="url(#p96b62d391f)" style="fill: none; stroke: #000000; stroke-linejoin: miter"/>
   </g>
  </g>
  <g id="axes_21"/>
  <g id="axes_22">
   <g id="patch_19">
    <path d="M 343.163917 36.382345 
Q 343.126428 36.494814 343.257641 36.701007 
Q 343.388855 36.9072 343.276386 37.057159 
L 343.276386 39.306538 
Q 343.276386 40.506207 343.613793 41.724621 
Q 343.9512 42.943034 344.813462 43.93651 
Q 345.675724 44.929986 346.875393 44.929986 
Q 348.112552 44.929986 348.787366 43.861531 
Q 349.462179 42.793076 349.912055 41.143531 
Q 350.361931 39.493986 350.699338 38.969131 
L 351.486621 36.382345 
L 351.261683 42.680607 
L 351.261683 45.154924 
Q 351.261683 47.066897 351.992731 51.00331 
Q 352.723779 54.939724 352.723779 56.964166 
Q 353.473572 59.213545 352.386372 60.188276 
Q 351.299172 61.163007 349.237241 60.78811 
Q 347.437738 60.488193 346.519241 60.169531 
Q 345.600745 59.850869 343.613793 58.988607 
L 343.501324 58.426262 
" clip-path="url(#p7b76bd4753)" style="fill: none; stroke: #000000; stroke-linejoin: miter"/>
   </g>
  </g>
  <g id="axes_23">
   <g id="patch_20">
    <path d="M 360.957228 36.157407 
L 368.042772 36.157407 
M 364.443766 39.306538 
L 364.443766 47.516772 
" clip-path="url(#pee4dade403)" style="fill: none; stroke: #000000; stroke-linejoin: miter"/>
   </g>
  </g>
  <g id="axes_24">
   <g id="patch_21">
    <path d="M 380.744917 36.269168 
Q 379.127911 35.520555 377.690573 35.550499 
Q 375.923845 35.550499 375.010536 37.062699 
Q 374.097227 38.574898 374.097227 40.491349 
Q 374.097227 41.838854 374.815896 42.692274 
Q 375.534566 43.545693 376.88207 43.545693 
Q 377.840296 43.545693 378.85841 41.449575 
Q 379.876525 39.353457 380.445471 37.107616 
Q 381.014418 34.861774 381.014418 33.933494 
L 381.014418 36.718336 
Q 381.942699 41.898743 381.822921 51.810388 
Q 381.733087 59.715749 382.002588 59.715749 
Q 382.481701 59.715749 383.604621 57.589686 
Q 384.727542 55.463623 385.925323 52.67878 
Q 387.123105 49.893937 387.212939 49.744214 
L 387.302773 49.38488 
" clip-path="url(#pda0f93143b)" style="fill: none; stroke: #000000; stroke-linejoin: miter"/>
   </g>
  </g>
  <g id="axes_25">
   <g id="patch_22">
    <path d="M 394.200745 33.345683 
L 394.200745 33.570621 
Q 394.200745 34.545352 395.175476 35.969959 
Q 396.150207 37.394566 397.124938 37.394566 
Q 397.499834 37.394566 397.855986 36.9072 
Q 398.212138 36.419834 398.5308 35.726276 
Q 398.849462 35.032717 398.924441 34.920248 
L 399.599255 31.771117 
M 397.162428 39.419007 
L 396.712552 47.291834 
L 396.375145 47.74171 
" clip-path="url(#pbf4b10ebcb)" style="fill: none; stroke: #000000; stroke-linejoin: miter"/>
   </g>
  </g>
  <g id="axes_26"/>
  <g id="axes_27">
   <g id="patch_23">
    <path d="M 434.087191 39.096404 
Q 433.83236 39.023596 432.86764 38.623146 
Q 431.902921 38.222697 431.24764 38.077079 
Q 430.59236 37.931461 429.937079 38.00427 
Q 427.315955 38.00427 425.677753 40.388764 
Q 424.039551 42.773258 424.039551 45.430787 
Q 424.039551 47.068989 429.281798 47.068989 
Q 430.847191 47.068989 432.175955 45.558202 
Q 433.504719 44.047416 434.178202 42.172584 
Q 434.851685 40.297753 434.851685 38.768764 
Q 434.851685 37.27618 434.815281 36.984944 
L 434.742472 38.077079 
Q 434.742472 38.550337 434.742472 38.987191 
Q 434.778876 40.188539 434.979101 42.281798 
Q 435.179326 44.375056 435.343146 46.049663 
Q 435.506966 47.72427 435.543371 49.872135 
Q 435.579775 52.02 435.415955 53.658202 
Q 435.252135 55.296404 434.687865 56.971011 
Q 434.123596 58.645618 433.195281 59.737753 
Q 432.266966 60.829888 430.665169 61.521573 
Q 429.063371 62.213258 426.915506 62.213258 
Q 425.277303 62.213258 424.185169 61.466966 
Q 423.093034 60.720674 423.093034 59.155281 
Q 423.020225 58.936854 423.056629 58.936854 
Q 423.093034 58.936854 423.202247 58.936854 
Q 423.311461 58.936854 423.311461 58.82764 
" clip-path="url(#pfd2fc0327d)" style="fill: none; stroke: #000000; stroke-linejoin: miter"/>
   </g>
  </g>
  <g id="axes_28">
   <g id="patch_24">
    <path d="M 441.282414 34.020497 
L 448.817834 34.357903 
M 447.655655 38.106869 
Q 447.618166 37.95691 447.037076 37.975655 
Q 446.455986 37.9944 446.418497 37.9944 
Q 443.531793 37.9944 442.444593 39.287793 
Q 441.357393 40.581186 441.357393 43.617848 
Q 441.357393 45.267393 442.519572 46.523297 
Q 443.681752 47.7792 445.406276 47.7792 
Q 446.980841 47.7792 448.218 46.598276 
Q 449.455159 45.417352 449.455159 43.842786 
Q 449.717586 42.043283 448.72411 40.318759 
Q 447.730634 38.594234 446.08109 37.881931 
" clip-path="url(#p6ab4911db3)" style="fill: none; stroke: #000000; stroke-linejoin: miter"/>
   </g>
  </g>
  <g id="axes_29">
   <g id="patch_25">
    <path d="M 457.238731 37.282097 
L 457.238731 37.844441 
Q 457.501159 39.868883 457.538648 41.312234 
Q 457.576138 42.755586 457.482414 44.667559 
Q 457.38869 46.579531 457.38869 48.191586 
L 457.463669 39.643945 
Q 457.463669 38.144359 459.056979 37.507034 
Q 460.65029 36.86971 462.074897 37.282097 
Q 463.986869 37.844441 464.905366 39.04411 
Q 465.823862 40.243779 465.880097 41.668386 
Q 465.936331 43.092993 465.973821 44.817517 
Q 466.01131 46.542041 466.161269 48.191586 
" clip-path="url(#p0c02155f05)" style="fill: none; stroke: #000000; stroke-linejoin: miter"/>
   </g>
  </g>
  <g id="axes_30">
   <g id="patch_26">
    <path d="M 482.687191 39.096404 
Q 482.43236 39.023596 481.46764 38.623146 
Q 480.502921 38.222697 479.84764 38.077079 
Q 479.19236 37.931461 478.537079 38.00427 
Q 475.915955 38.00427 474.277753 40.388764 
Q 472.639551 42.773258 472.639551 45.430787 
Q 472.639551 47.068989 477.881798 47.068989 
Q 479.447191 47.068989 480.775955 45.558202 
Q 482.104719 44.047416 482.778202 42.172584 
Q 483.451685 40.297753 483.451685 38.768764 
Q 483.451685 37.27618 483.415281 36.984944 
L 483.342472 38.077079 
Q 483.342472 38.550337 483.342472 38.987191 
Q 483.378876 40.188539 483.579101 42.281798 
Q 483.779326 44.375056 483.943146 46.049663 
Q 484.106966 47.72427 484.143371 49.872135 
Q 484.179775 52.02 484.015955 53.658202 
Q 483.852135 55.296404 483.287865 56.971011 
Q 482.723596 58.645618 481.795281 59.737753 
Q 480.866966 60.829888 479.265169 61.521573 
Q 477.663371 62.213258 475.515506 62.213258 
Q 473.877303 62.213258 472.785169 61.466966 
Q 471.693034 60.720674 471.693034 59.155281 
Q 471.620225 58.936854 471.656629 58.936854 
Q 471.693034 58.936854 471.802247 58.936854 
Q 471.911461 58.936854 471.911461 58.82764 
" clip-path="url(#pc8dae10cdb)" style="fill: none; stroke: #000000; stroke-linejoin: miter"/>
   </g>
  </g>
  <g id="axes_31">
   <g id="patch_27">
    <path d="M 489.2076 35.032717 
Q 489.2076 35.032717 492.581669 35.032717 
Q 492.694138 35.032717 494.437407 34.826524 
Q 496.180676 34.620331 497.192897 34.789034 
Q 498.205117 34.957738 498.205117 35.707531 
Q 498.205117 36.86971 497.192897 38.144359 
Q 496.180676 39.419007 494.718579 40.506207 
Q 493.256483 41.593407 491.794386 42.605628 
Q 490.33229 43.617848 489.320069 44.573834 
Q 488.307848 45.529821 488.307848 46.279614 
L 489.432538 46.279614 
Q 489.470028 46.279614 491.681917 46.054676 
L 499.892152 45.942207 
" clip-path="url(#pd25a85f3ca)" style="fill: none; stroke: #000000; stroke-linejoin: miter"/>
   </g>
  </g>
  <g id="axes_32">
   <g id="patch_28">
    <path d="M 505.688772 35.145186 
Q 505.688772 35.145186 505.688772 35.595062 
Q 505.688772 36.269876 505.576303 37.619503 
Q 505.463834 38.969131 505.463834 39.643945 
Q 505.463834 41.930814 506.700993 43.599103 
Q 507.938152 45.267393 510.075062 45.267393 
Q 511.462179 45.154924 512.230717 43.917766 
Q 512.999255 42.680607 513.149214 41.237255 
Q 513.299172 39.793903 513.5616 37.9944 
Q 513.824028 36.194897 514.236414 35.370124 
Q 514.386372 35.070207 514.386372 35.670041 
Q 514.386372 36.269876 514.123945 38.706703 
Q 513.899007 41.031062 513.899007 41.555917 
Q 513.749048 42.643117 514.086455 43.767807 
Q 514.423862 44.892497 515.136166 45.6048 
" clip-path="url(#pc6763247dd)" style="fill: none; stroke: #000000; stroke-linejoin: miter"/>
   </g>
  </g>
  <g id="axes_33">
   <g id="patch_29">
    <path d="M 522.73229 29.671697 
Q 523.407103 30.159062 524.812966 31.283752 
Q 526.218828 32.408441 526.331297 32.483421 
L 528.1308 33.60811 
M 527.00611 36.982179 
L 526.331297 36.982179 
Q 523.332124 36.982179 522.18869 38.781683 
Q 521.045255 40.581186 521.045255 43.842786 
Q 521.045255 45.229903 522.319903 46.373338 
Q 523.594552 47.516772 525.206607 48.097862 
Q 526.818662 48.678952 528.1308 48.678952 
Q 531.954745 48.678952 531.954745 42.718097 
Q 531.954745 41.518428 531.073738 40.431228 
Q 530.192731 39.344028 528.824359 38.219338 
Q 527.455986 37.094648 527.00611 36.532303 
L 526.331297 36.194897 
" clip-path="url(#pd468c0b4d0)" style="fill: none; stroke: #000000; stroke-linejoin: miter"/>
   </g>
  </g>
  <g id="axes_34">
   <g id="patch_30">
    <path d="M 541.987697 39.981352 
Q 542.999917 40.956083 543.337324 42.905545 
Q 543.524772 43.955255 543.112386 46.167145 
L 541.875228 47.629241 
" clip-path="url(#p0d6bc77e07)" style="fill: none; stroke: #000000; stroke-linejoin: miter"/>
   </g>
  </g>
 </g>
 <defs>
  <clipPath id="pffeadbfe1b">
   <rect x="1.389352" y="8.64" width="13.421297" height="54.36"/>
  </clipPath>
  <clipPath id="p633de630c6">
   <rect x="16.820814" y="8.64" width="14.958372" height="54.36"/>
  </clipPath>
  <clipPath id="pe49dedb2e9">
   <rect x="49.651945" y="8.64" width="14.09611" height="54.36"/>
  </clipPath>
  <clipPath id="pafd5c2dde1">
   <rect x="68.326262" y="8.64" width="9.147476" height="54.36"/>
  </clipPath>
  <clipPath id="p09c2efd115">
   <rect x="83.738979" y="8.64" width="10.722041" height="54.36"/>
  </clipPath>
  <clipPath id="pd1e2904189">
   <rect x="98.589352" y="8.64" width="13.421297" height="54.36"/>
  </clipPath>
  <clipPath id="p09fd0f97ee">
   <rect x="114.020814" y="8.64" width="14.958372" height="54.36"/>
  </clipPath>
  <clipPath id="p3a75e5bf87">
   <rect x="131.364248" y="8.64" width="12.671503" height="54.36"/>
  </clipPath>
  <clipPath id="pd99a21d517">
   <rect x="164.738979" y="8.64" width="10.722041" height="54.36"/>
  </clipPath>
  <clipPath id="pd664326bb5">
   <rect x="180.264166" y="8.64" width="12.071669" height="54.36"/>
  </clipPath>
  <clipPath id="p6ac3397d0f">
   <rect x="211.989352" y="8.64" width="13.421297" height="54.36"/>
  </clipPath>
  <clipPath id="p432a7a8202">
   <rect x="227.514538" y="8.64" width="14.770924" height="54.36"/>
  </clipPath>
  <clipPath id="p81e302ba44">
   <rect x="244.764248" y="8.64" width="12.671503" height="54.36"/>
  </clipPath>
  <clipPath id="pe5392eb7ec">
   <rect x="259.2" y="9.426742" width="16.2" height="52.786517"/>
  </clipPath>
  <clipPath id="p34c8054b42">
   <rect x="277.182993" y="8.64" width="12.634014" height="54.36"/>
  </clipPath>
  <clipPath id="p65aaf02782">
   <rect x="294.338979" y="8.64" width="10.722041" height="54.36"/>
  </clipPath>
  <clipPath id="p96b62d391f">
   <rect x="311.738648" y="8.64" width="8.322703" height="54.36"/>
  </clipPath>
  <clipPath id="p7b76bd4753">
   <rect x="341.251945" y="8.64" width="14.09611" height="54.36"/>
  </clipPath>
  <clipPath id="pee4dade403">
   <rect x="359.082745" y="8.64" width="10.83451" height="54.36"/>
  </clipPath>
  <clipPath id="pda0f93143b">
   <rect x="372.6" y="14.110203" width="16.2" height="43.419593"/>
  </clipPath>
  <clipPath id="pbf4b10ebcb">
   <rect x="392.326262" y="8.64" width="9.147476" height="54.36"/>
  </clipPath>
  <clipPath id="pfd2fc0327d">
   <rect x="421.2" y="9.426742" width="16.2" height="52.786517"/>
  </clipPath>
  <clipPath id="p6ab4911db3">
   <rect x="439.407931" y="8.64" width="12.184138" height="54.36"/>
  </clipPath>
  <clipPath id="p0c02155f05">
   <rect x="455.364248" y="8.64" width="12.671503" height="54.36"/>
  </clipPath>
  <clipPath id="pc8dae10cdb">
   <rect x="469.8" y="9.426742" width="16.2" height="52.786517"/>
  </clipPath>
  <clipPath id="pd25a85f3ca">
   <rect x="486.433366" y="8.64" width="15.333269" height="54.36"/>
  </clipPath>
  <clipPath id="pc6763247dd">
   <rect x="503.589352" y="8.64" width="13.421297" height="54.36"/>
  </clipPath>
  <clipPath id="pd468c0b4d0">
   <rect x="519.170772" y="8.64" width="14.658455" height="54.36"/>
  </clipPath>
  <clipPath id="p0d6bc77e07">
   <rect x="540.000745" y="8.64" width="5.39851" height="54.36"/>
  </clipPath>
 </defs>
</svg>
