<?xml version="1.0" encoding="utf-8" standalone="no"?>
<!DOCTYPE svg PUBLIC "-//W3C//DTD SVG 1.1//EN"
  "http://www.w3.org/Graphics/SVG/1.1/DTD/svg11.dtd">
<svg xmlns:xlink="http://www.w3.org/1999/xlink" width="432pt" height="72pt" viewBox="0 0 432 72" xmlns="http://www.w3.org/2000/svg" version="1.1">
 <metadata>
  <rdf:RDF xmlns:dc="http://purl.org/dc/elements/1.1/" xmlns:cc="http://creativecommons.org/ns#" xmlns:rdf="http://www.w3.org/1999/02/22-rdf-syntax-ns#">
   <cc:Work>
    <dc:type rdf:resource="http://purl.org/dc/dcmitype/StillImage"/>
    <dc:date>2023-02-13T19:51:38.823989</dc:date>
    <dc:format>image/svg+xml</dc:format>
    <dc:creator>
     <cc:Agent>
      <dc:title>Matplotlib v3.6.1, https://matplotlib.org/</dc:title>
     </cc:Agent>
    </dc:creator>
   </cc:Work>
  </rdf:RDF>
 </metadata>
 <defs>
  <style type="text/css">*{stroke-linejoin: round; stroke-linecap: butt}</style>
 </defs>
 <g id="figure_1">
  <g id="patch_1">
   <path d="M 0 72 
L 432 72 
L 432 0 
L 0 0 
z
" style="fill: #8fff9f"/>
  </g>
  <g id="axes_1">
   <g id="patch_2">
    <path d="M 1.653061 45.374694 
Q 5.752653 45.440816 12.761633 45.870612 
Q 13.191429 45.903673 13.373265 45.887143 
Q 13.555102 45.870612 13.951837 45.787959 
Q 14.348571 45.705306 14.546939 45.672245 
M 3.24 27.521633 
L 3.24 29.406122 
Q 3.24 31.588163 3.025102 33.985102 
Q 2.810204 36.382041 2.446531 39.291429 
Q 2.082857 42.200816 1.950612 43.787755 
L 1.653061 45.374694 
" clip-path="url(#pade582bf5a)" style="fill: none; stroke: #000000; stroke-linejoin: miter"/>
   </g>
  </g>
  <g id="axes_2">
   <g id="patch_3">
    <path d="M 21.600745 33.345683 
L 21.600745 33.570621 
Q 21.600745 34.545352 22.575476 35.969959 
Q 23.550207 37.394566 24.524938 37.394566 
Q 24.899834 37.394566 25.255986 36.9072 
Q 25.612138 36.419834 25.9308 35.726276 
Q 26.249462 35.032717 26.324441 34.920248 
L 26.999255 31.771117 
M 24.562428 39.419007 
L 24.112552 47.291834 
L 23.775145 47.74171 
" clip-path="url(#p651902f7e3)" style="fill: none; stroke: #000000; stroke-linejoin: miter"/>
   </g>
  </g>
  <g id="axes_3"/>
  <g id="axes_4">
   <g id="patch_4">
    <path d="M 62.494615 26.878846 
Q 61.746923 28.997308 60.282692 31.271538 
Q 58.818462 33.545769 57.400962 35.228077 
Q 55.983462 36.910385 54.456923 39.153462 
Q 52.930385 41.396538 52.120385 43.421538 
L 51.559615 45.290769 
M 50.157692 27.439615 
Q 51.777692 29.620385 55.126731 34.776346 
Q 58.475769 39.932308 60.531923 42.486923 
L 63.242308 46.131923 
" clip-path="url(#p00a6184cb5)" style="fill: none; stroke: #000000; stroke-linejoin: miter"/>
   </g>
  </g>
  <g id="axes_5">
   <g id="patch_5">
    <path d="M 68.288772 35.145186 
Q 68.288772 35.145186 68.288772 35.595062 
Q 68.288772 36.269876 68.176303 37.619503 
Q 68.063834 38.969131 68.063834 39.643945 
Q 68.063834 41.930814 69.300993 43.599103 
Q 70.538152 45.267393 72.675062 45.267393 
Q 74.062179 45.154924 74.830717 43.917766 
Q 75.599255 42.680607 75.749214 41.237255 
Q 75.899172 39.793903 76.1616 37.9944 
Q 76.424028 36.194897 76.836414 35.370124 
Q 76.986372 35.070207 76.986372 35.670041 
Q 76.986372 36.269876 76.723945 38.706703 
Q 76.499007 41.031062 76.499007 41.555917 
Q 76.349048 42.643117 76.686455 43.767807 
Q 77.023862 44.892497 77.736166 45.6048 
" clip-path="url(#pb60a234897)" style="fill: none; stroke: #000000; stroke-linejoin: miter"/>
   </g>
  </g>
  <g id="axes_6">
   <g id="patch_6">
    <path d="M 86.288276 30.608938 
Q 86.400745 30.871366 86.663172 31.602414 
Q 86.9256 32.333462 87.131793 32.783338 
Q 87.337986 33.233214 87.675393 33.758069 
Q 88.0128 34.282924 88.51891 34.507862 
Q 89.025021 34.7328 89.662345 34.657821 
Q 92.474069 34.657821 92.811476 29.25931 
M 83.926428 41.968303 
L 84.376303 41.968303 
Q 84.938648 41.968303 86.400745 42.474414 
Q 87.862841 42.980524 88.650124 42.980524 
Q 91.011972 42.980524 92.305366 42.211986 
Q 93.598759 41.443448 93.598759 39.269048 
Q 93.598759 37.132138 88.312717 37.132138 
Q 87.225517 37.132138 86.456979 37.694483 
Q 85.688441 38.256828 85.313545 39.194069 
Q 84.938648 40.13131 84.769945 41.049807 
Q 84.601241 41.968303 84.601241 42.980524 
Q 84.338814 44.105214 84.71371 44.967476 
Q 85.088607 45.829738 86.025848 46.335848 
Q 86.96309 46.841959 87.806607 47.123131 
Q 88.650124 47.404303 89.774814 47.591752 
Q 90.374648 47.704221 92.3616 47.704221 
Q 92.811476 47.81669 93.148883 47.573007 
Q 93.48629 47.329324 93.823697 46.748234 
Q 94.161103 46.167145 94.273572 46.017186 
" clip-path="url(#p2a3a2176f4)" style="fill: none; stroke: #000000; stroke-linejoin: miter"/>
   </g>
  </g>
  <g id="axes_7"/>
  <g id="axes_8">
   <g id="patch_7">
    <path d="M 115.184141 38.85304 
L 115.612335 38.85304 
Q 116.43304 38.85304 117.396476 38.745991 
Q 118.359912 38.638943 119.519604 38.460529 
Q 120.679295 38.282115 121.285903 38.210749 
L 127.815859 35.427489 
M 127.494714 25.793128 
Q 127.209251 25.721762 126.174449 25.275727 
Q 125.139648 24.829692 124.497357 24.93674 
Q 123.855066 24.93674 123.337665 25.150837 
Q 122.820264 25.364934 122.481278 25.793128 
Q 122.142291 26.221322 121.87467 26.685198 
Q 121.607048 27.149075 121.464317 27.862731 
Q 121.321586 28.576388 121.214537 29.129471 
Q 121.107489 29.682555 121.089648 30.50326 
Q 121.071806 31.323965 121.053965 31.77 
Q 121.036123 32.216035 121.053965 32.965374 
Q 121.071806 33.714714 121.071806 33.928811 
Q 121.071806 36.605022 121.767621 41.850396 
Q 122.463436 47.095771 122.463436 49.771982 
Q 122.39207 50.057445 122.356388 50.681894 
Q 122.320705 51.306344 122.213656 51.805903 
Q 122.106608 52.305463 121.821145 52.555242 
" clip-path="url(#p16851e08ab)" style="fill: none; stroke: #000000; stroke-linejoin: miter"/>
   </g>
  </g>
  <g id="axes_9">
   <g id="patch_8">
    <path d="M 133.988524 34.357903 
L 140.849131 34.69531 
M 134.775807 42.643117 
Q 136.012966 43.205462 136.912717 43.205462 
Q 137.250124 43.205462 138.543517 43.242952 
Q 139.83691 43.280441 140.436745 43.280441 
Q 140.774152 43.280441 141.017834 43.167972 
Q 141.261517 43.055503 141.411476 42.830566 
Q 141.561434 42.605628 141.636414 42.38069 
Q 141.711393 42.155752 141.748883 41.7996 
Q 141.786372 41.443448 141.786372 41.199766 
Q 141.786372 40.956083 141.767628 40.562441 
Q 141.748883 40.1688 141.748883 40.018841 
Q 141.748883 38.819172 140.155572 38.331807 
Q 138.562262 37.844441 137.362593 38.144359 
Q 135.038234 38.744193 134.288441 40.281269 
Q 133.538648 41.818345 133.538648 44.217683 
Q 133.538648 44.929986 133.632372 45.492331 
Q 133.726097 46.054676 134.007269 46.448317 
Q 134.288441 46.841959 134.532124 47.141876 
Q 134.775807 47.441793 135.281917 47.610497 
Q 135.788028 47.7792 136.087945 47.891669 
Q 136.387862 48.004138 137.100166 48.041628 
Q 137.812469 48.079117 138.112386 48.097862 
Q 138.412303 48.116607 139.274566 48.097862 
Q 140.136828 48.079117 140.399255 48.079117 
Q 140.811641 48.379034 141.186538 47.929159 
Q 141.561434 47.479283 141.861352 47.516772 
" clip-path="url(#p73febfd493)" style="fill: none; stroke: #000000; stroke-linejoin: miter"/>
   </g>
  </g>
  <g id="axes_10">
   <g id="patch_9">
    <path d="M 154.518579 29.071862 
Q 154.143683 29.146841 154.012469 29.577972 
Q 153.881255 30.009103 153.956234 30.42149 
Q 153.956234 30.571448 153.993724 30.702662 
Q 154.031214 30.833876 154.087448 30.89011 
Q 154.143683 30.946345 154.199917 31.040069 
Q 154.256152 31.133793 154.293641 31.208772 
L 154.40611 29.859145 
M 154.40611 34.020497 
Q 153.506359 39.006621 153.281421 42.793076 
L 153.731297 45.379862 
L 154.068703 46.054676 
" clip-path="url(#p25a87d4719)" style="fill: none; stroke: #000000; stroke-linejoin: miter"/>
   </g>
  </g>
  <g id="axes_11">
   <g id="patch_10">
    <path d="M 175.356735 34.365306 
Q 175.356735 34.365306 174.860816 34.365306 
Q 174.067347 34.365306 172.579592 34.067755 
Q 171.091837 33.770204 170.298367 33.770204 
Q 167.521224 33.770204 165.587143 35.224898 
Q 163.653061 36.679592 163.653061 39.423673 
Q 163.653061 40.94449 165.140816 42.399184 
Q 166.628571 43.853878 168.562653 44.663878 
Q 170.496735 45.473878 171.98449 45.473878 
Q 172.910204 45.473878 173.60449 45.110204 
Q 174.298776 44.746531 175.042653 44.118367 
Q 175.786531 43.490204 176.348571 43.192653 
L 176.546939 42.696735 
" clip-path="url(#p2f62a687dd)" style="fill: none; stroke: #000000; stroke-linejoin: miter"/>
   </g>
  </g>
  <g id="axes_12">
   <g id="patch_11">
    <path d="M 182.813462 35.932469 
Q 183.413297 35.257655 184.406772 34.826524 
Q 185.400248 34.395393 186.3 34.470372 
Q 186.937324 34.470372 187.42469 34.639076 
Q 187.912055 34.807779 188.230717 34.995228 
Q 188.549379 35.182676 188.774317 35.670041 
Q 188.999255 36.157407 189.111724 36.419834 
Q 189.224193 36.682262 189.280428 37.375821 
Q 189.336662 38.069379 189.355407 38.331807 
Q 189.374152 38.594234 189.355407 39.419007 
Q 189.336662 40.243779 189.336662 40.431228 
Q 189.336662 41.368469 189.167959 43.242952 
Q 188.999255 45.117434 188.999255 46.054676 
Q 188.999255 46.467062 189.05549 46.823214 
Q 189.111724 47.179366 189.205448 47.610497 
Q 189.299172 48.041628 189.336662 48.304055 
L 189.786538 48.528993 
M 183.263338 23.111007 
Q 183.488276 24.798041 183.488276 29.971614 
L 183.488276 42.3432 
L 183.150869 46.841959 
L 182.925931 47.74171 
" clip-path="url(#p18e5101111)" style="fill: none; stroke: #000000; stroke-linejoin: miter"/>
   </g>
  </g>
  <g id="axes_13">
   <g id="patch_12">
    <path d="M 199.519572 33.795559 
L 199.519572 33.570621 
Q 199.519572 33.383172 199.575807 33.289448 
Q 199.632041 33.195724 199.707021 33.13949 
Q 199.782 33.083255 199.931959 32.989531 
Q 200.081917 32.895807 200.194386 32.783338 
L 204.355738 28.059641 
M 206.26771 37.619503 
L 203.118579 37.619503 
Q 199.74451 38.594234 198.844759 39.231559 
Q 197.195214 40.356248 197.082745 43.317931 
Q 197.045255 43.692828 197.045255 44.142703 
Q 197.045255 45.267393 197.907517 46.167145 
Q 198.769779 47.066897 199.856979 47.066897 
Q 200.719241 46.954428 201.506524 46.485807 
Q 202.293807 46.017186 202.799917 45.473586 
Q 203.306028 44.929986 203.849628 43.93651 
Q 204.393228 42.943034 204.6744 42.324455 
Q 204.955572 41.705876 205.405448 40.543697 
Q 205.855324 39.381517 206.042772 38.969131 
Q 206.380179 38.144359 206.492648 38.200593 
Q 206.605117 38.256828 206.492648 39.456497 
L 206.380179 40.993572 
Q 206.380179 41.031062 206.717586 44.705048 
L 207.954745 47.066897 
" clip-path="url(#p90e9501fcd)" style="fill: none; stroke: #000000; stroke-linejoin: miter"/>
   </g>
  </g>
  <g id="axes_14">
   <g id="patch_13">
    <path d="M 214.238731 37.282097 
L 214.238731 37.844441 
Q 214.501159 39.868883 214.538648 41.312234 
Q 214.576138 42.755586 214.482414 44.667559 
Q 214.38869 46.579531 214.38869 48.191586 
L 214.463669 39.643945 
Q 214.463669 38.144359 216.056979 37.507034 
Q 217.65029 36.86971 219.074897 37.282097 
Q 220.986869 37.844441 221.905366 39.04411 
Q 222.823862 40.243779 222.880097 41.668386 
Q 222.936331 43.092993 222.973821 44.817517 
Q 223.01131 46.542041 223.161269 48.191586 
" clip-path="url(#p137495ef08)" style="fill: none; stroke: #000000; stroke-linejoin: miter"/>
   </g>
  </g>
  <g id="axes_15">
   <g id="patch_14">
    <path d="M 239.687191 39.096404 
Q 239.43236 39.023596 238.46764 38.623146 
Q 237.502921 38.222697 236.84764 38.077079 
Q 236.19236 37.931461 235.537079 38.00427 
Q 232.915955 38.00427 231.277753 40.388764 
Q 229.639551 42.773258 229.639551 45.430787 
Q 229.639551 47.068989 234.881798 47.068989 
Q 236.447191 47.068989 237.775955 45.558202 
Q 239.104719 44.047416 239.778202 42.172584 
Q 240.451685 40.297753 240.451685 38.768764 
Q 240.451685 37.27618 240.415281 36.984944 
L 240.342472 38.077079 
Q 240.342472 38.550337 240.342472 38.987191 
Q 240.378876 40.188539 240.579101 42.281798 
Q 240.779326 44.375056 240.943146 46.049663 
Q 241.106966 47.72427 241.143371 49.872135 
Q 241.179775 52.02 241.015955 53.658202 
Q 240.852135 55.296404 240.287865 56.971011 
Q 239.723596 58.645618 238.795281 59.737753 
Q 237.866966 60.829888 236.265169 61.521573 
Q 234.663371 62.213258 232.515506 62.213258 
Q 230.877303 62.213258 229.785169 61.466966 
Q 228.693034 60.720674 228.693034 59.155281 
Q 228.620225 58.936854 228.656629 58.936854 
Q 228.693034 58.936854 228.802247 58.936854 
Q 228.911461 58.936854 228.911461 58.82764 
" clip-path="url(#pf256dfdcf3)" style="fill: none; stroke: #000000; stroke-linejoin: miter"/>
   </g>
  </g>
  <g id="axes_16"/>
  <g id="axes_17">
   <g id="patch_15">
    <path d="M 272.087191 39.096404 
Q 271.83236 39.023596 270.86764 38.623146 
Q 269.902921 38.222697 269.24764 38.077079 
Q 268.59236 37.931461 267.937079 38.00427 
Q 265.315955 38.00427 263.677753 40.388764 
Q 262.039551 42.773258 262.039551 45.430787 
Q 262.039551 47.068989 267.281798 47.068989 
Q 268.847191 47.068989 270.175955 45.558202 
Q 271.504719 44.047416 272.178202 42.172584 
Q 272.851685 40.297753 272.851685 38.768764 
Q 272.851685 37.27618 272.815281 36.984944 
L 272.742472 38.077079 
Q 272.742472 38.550337 272.742472 38.987191 
Q 272.778876 40.188539 272.979101 42.281798 
Q 273.179326 44.375056 273.343146 46.049663 
Q 273.506966 47.72427 273.543371 49.872135 
Q 273.579775 52.02 273.415955 53.658202 
Q 273.252135 55.296404 272.687865 56.971011 
Q 272.123596 58.645618 271.195281 59.737753 
Q 270.266966 60.829888 268.665169 61.521573 
Q 267.063371 62.213258 264.915506 62.213258 
Q 263.277303 62.213258 262.185169 61.466966 
Q 261.093034 60.720674 261.093034 59.155281 
Q 261.020225 58.936854 261.056629 58.936854 
Q 261.093034 58.936854 261.202247 58.936854 
Q 261.311461 58.936854 261.311461 58.82764 
" clip-path="url(#p0d39809367)" style="fill: none; stroke: #000000; stroke-linejoin: miter"/>
   </g>
  </g>
  <g id="axes_18">
   <g id="patch_16">
    <path d="M 278.232703 35.332634 
L 288.579848 35.332634 
M 287.792566 39.344028 
Q 287.792566 39.344028 284.868372 39.344028 
Q 277.895297 39.344028 277.895297 44.5176 
Q 277.895297 46.279614 279.65731 47.19811 
Q 281.419324 48.116607 283.406276 48.116607 
Q 284.643434 47.891669 285.449462 47.2356 
Q 286.25549 46.579531 286.611641 45.586055 
Q 286.967793 44.592579 287.136497 43.674083 
Q 287.3052 42.755586 287.455159 41.443448 
Q 287.605117 40.13131 287.792566 39.344028 
Q 288.879766 46.092166 288.992234 47.029407 
L 289.104703 48.154097 
" clip-path="url(#pd7feb278b2)" style="fill: none; stroke: #000000; stroke-linejoin: miter"/>
   </g>
  </g>
  <g id="axes_19">
   <g id="patch_17">
    <path d="M 302.9616 35.032717 
Q 301.91189 34.582841 300.937159 34.69531 
Q 297.900497 35.032717 295.988524 36.701007 
Q 294.076552 38.369297 294.076552 41.330979 
Q 294.076552 43.917766 296.082248 45.6048 
Q 298.087945 47.291834 300.712221 47.291834 
Q 303.074069 47.291834 304.198759 45.361117 
Q 305.323448 43.4304 305.323448 40.881103 
Q 305.323448 39.643945 304.911062 38.706703 
Q 304.498676 37.769462 303.973821 37.300841 
Q 303.448966 36.832221 302.699172 36.119917 
Q 301.949379 35.407614 301.499503 34.69531 
L 300.262345 34.245434 
" clip-path="url(#pf93e9de521)" style="fill: none; stroke: #000000; stroke-linejoin: miter"/>
   </g>
  </g>
  <g id="axes_20">
   <g id="patch_18">
    <path d="M 319.499007 34.920248 
Q 318.636745 36.007448 315.525103 40.018841 
Q 312.413462 44.030234 310.726428 46.054676 
M 311.626179 36.044938 
Q 313.500662 37.319586 315.993724 40.843614 
Q 318.486786 44.367641 320.061352 45.6048 
L 321.073572 45.942207 
" clip-path="url(#p4223f48842)" style="fill: none; stroke: #000000; stroke-linejoin: miter"/>
   </g>
  </g>
  <g id="axes_21">
   <g id="patch_19">
    <path d="M 329.813131 30.384 
L 333.074731 34.657821 
M 332.737324 37.019669 
L 332.474897 41.743366 
Q 332.587366 42.268221 332.718579 43.749062 
Q 332.849793 45.229903 333.1872 46.1484 
Q 333.524607 47.066897 334.386869 47.591752 
" clip-path="url(#pb92402e4c1)" style="fill: none; stroke: #000000; stroke-linejoin: miter"/>
   </g>
  </g>
  <g id="axes_22">
   <g id="patch_20">
    <path d="M 343.838731 37.282097 
L 343.838731 37.844441 
Q 344.101159 39.868883 344.138648 41.312234 
Q 344.176138 42.755586 344.082414 44.667559 
Q 343.98869 46.579531 343.98869 48.191586 
L 344.063669 39.643945 
Q 344.063669 38.144359 345.656979 37.507034 
Q 347.25029 36.86971 348.674897 37.282097 
Q 350.586869 37.844441 351.505366 39.04411 
Q 352.423862 40.243779 352.480097 41.668386 
Q 352.536331 43.092993 352.573821 44.817517 
Q 352.61131 46.542041 352.761269 48.191586 
" clip-path="url(#p74c98b07d3)" style="fill: none; stroke: #000000; stroke-linejoin: miter"/>
   </g>
  </g>
  <g id="axes_23">
   <g id="patch_21">
    <path d="M 369.287191 39.096404 
Q 369.03236 39.023596 368.06764 38.623146 
Q 367.102921 38.222697 366.44764 38.077079 
Q 365.79236 37.931461 365.137079 38.00427 
Q 362.515955 38.00427 360.877753 40.388764 
Q 359.239551 42.773258 359.239551 45.430787 
Q 359.239551 47.068989 364.481798 47.068989 
Q 366.047191 47.068989 367.375955 45.558202 
Q 368.704719 44.047416 369.378202 42.172584 
Q 370.051685 40.297753 370.051685 38.768764 
Q 370.051685 37.27618 370.015281 36.984944 
L 369.942472 38.077079 
Q 369.942472 38.550337 369.942472 38.987191 
Q 369.978876 40.188539 370.179101 42.281798 
Q 370.379326 44.375056 370.543146 46.049663 
Q 370.706966 47.72427 370.743371 49.872135 
Q 370.779775 52.02 370.615955 53.658202 
Q 370.452135 55.296404 369.887865 56.971011 
Q 369.323596 58.645618 368.395281 59.737753 
Q 367.466966 60.829888 365.865169 61.521573 
Q 364.263371 62.213258 362.115506 62.213258 
Q 360.477303 62.213258 359.385169 61.466966 
Q 358.293034 60.720674 358.293034 59.155281 
Q 358.220225 58.936854 358.256629 58.936854 
Q 358.293034 58.936854 358.402247 58.936854 
Q 358.511461 58.936854 358.511461 58.82764 
" clip-path="url(#p4bf1750f15)" style="fill: none; stroke: #000000; stroke-linejoin: miter"/>
   </g>
  </g>
  <g id="axes_24">
   <g id="patch_22">
    <path d="M 379.987697 39.981352 
Q 380.999917 40.956083 381.337324 42.905545 
Q 381.524772 43.955255 381.112386 46.167145 
L 379.875228 47.629241 
" clip-path="url(#p9d3e475023)" style="fill: none; stroke: #000000; stroke-linejoin: miter"/>
   </g>
  </g>
 </g>
 <defs>
  <clipPath id="pade582bf5a">
   <rect x="0" y="11.850612" width="16.2" height="47.938776"/>
  </clipPath>
  <clipPath id="p651902f7e3">
   <rect x="19.726262" y="8.64" width="9.147476" height="54.36"/>
  </clipPath>
  <clipPath id="p00a6184cb5">
   <rect x="48.6" y="13.233462" width="16.2" height="45.173077"/>
  </clipPath>
  <clipPath id="pb60a234897">
   <rect x="66.189352" y="8.64" width="13.421297" height="54.36"/>
  </clipPath>
  <clipPath id="p2a3a2176f4">
   <rect x="82.051945" y="8.64" width="14.09611" height="54.36"/>
  </clipPath>
  <clipPath id="p16851e08ab">
   <rect x="113.4" y="9.949956" width="16.2" height="51.740088"/>
  </clipPath>
  <clipPath id="p73febfd493">
   <rect x="131.664166" y="8.64" width="12.071669" height="54.36"/>
  </clipPath>
  <clipPath id="p25a87d4719">
   <rect x="151.406938" y="8.64" width="4.986124" height="54.36"/>
  </clipPath>
  <clipPath id="p2f62a687dd">
   <rect x="162" y="11.850612" width="16.2" height="47.938776"/>
  </clipPath>
  <clipPath id="p18e5101111">
   <rect x="180.938979" y="8.64" width="10.722041" height="54.36"/>
  </clipPath>
  <clipPath id="p90e9501fcd">
   <rect x="195.170772" y="8.64" width="14.658455" height="54.36"/>
  </clipPath>
  <clipPath id="p137495ef08">
   <rect x="212.364248" y="8.64" width="12.671503" height="54.36"/>
  </clipPath>
  <clipPath id="pf256dfdcf3">
   <rect x="226.8" y="9.426742" width="16.2" height="52.786517"/>
  </clipPath>
  <clipPath id="p0d39809367">
   <rect x="259.2" y="9.426742" width="16.2" height="52.786517"/>
  </clipPath>
  <clipPath id="pd7feb278b2">
   <rect x="276.020814" y="8.64" width="14.958372" height="54.36"/>
  </clipPath>
  <clipPath id="pf93e9de521">
   <rect x="292.202069" y="8.64" width="14.995862" height="54.36"/>
  </clipPath>
  <clipPath id="p4223f48842">
   <rect x="308.851945" y="8.64" width="14.09611" height="54.36"/>
  </clipPath>
  <clipPath id="pb92402e4c1">
   <rect x="327.938648" y="8.64" width="8.322703" height="54.36"/>
  </clipPath>
  <clipPath id="p74c98b07d3">
   <rect x="341.964248" y="8.64" width="12.671503" height="54.36"/>
  </clipPath>
  <clipPath id="p4bf1750f15">
   <rect x="356.4" y="9.426742" width="16.2" height="52.786517"/>
  </clipPath>
  <clipPath id="p9d3e475023">
   <rect x="378.000745" y="8.64" width="5.39851" height="54.36"/>
  </clipPath>
 </defs>
</svg>
