<?xml version="1.0" encoding="utf-8" standalone="no"?>
<!DOCTYPE svg PUBLIC "-//W3C//DTD SVG 1.1//EN"
  "http://www.w3.org/Graphics/SVG/1.1/DTD/svg11.dtd">
<svg xmlns:xlink="http://www.w3.org/1999/xlink" width="283.5pt" height="162pt" viewBox="0 0 283.5 162" xmlns="http://www.w3.org/2000/svg" version="1.1">
 <metadata>
  <rdf:RDF xmlns:dc="http://purl.org/dc/elements/1.1/" xmlns:cc="http://creativecommons.org/ns#" xmlns:rdf="http://www.w3.org/1999/02/22-rdf-syntax-ns#">
   <cc:Work>
    <dc:type rdf:resource="http://purl.org/dc/dcmitype/StillImage"/>
    <dc:date>2023-02-15T23:03:25.134034</dc:date>
    <dc:format>image/svg+xml</dc:format>
    <dc:creator>
     <cc:Agent>
      <dc:title>Matplotlib v3.6.1, https://matplotlib.org/</dc:title>
     </cc:Agent>
    </dc:creator>
   </cc:Work>
  </rdf:RDF>
 </metadata>
 <defs>
  <style type="text/css">*{stroke-linejoin: round; stroke-linecap: butt}</style>
 </defs>
 <g id="figure_1">
  <g id="patch_1">
   <path d="M 0 162 
L 283.5 162 
L 283.5 0 
L 0 0 
z
" style="fill: #8fff9f"/>
  </g>
  <g id="axes_1">
   <g id="patch_2">
    <path d="M 15.297395 80.384001 
L 15.297395 80.858748 
Q 15.297395 87.87445 5.327713 95.259399 
L 4.37822 95.575897 
M 9.916932 80.54225 
L 10.23343 80.54225 
Q 12.501664 80.54225 18.17225 79.460883 
Q 23.842836 78.379515 26.111071 78.379515 
Q 26.902315 78.379515 26.98144 80.278502 
Q 27.060564 82.177489 26.612192 84.788596 
Q 26.163821 87.399703 25.768198 89.325065 
Q 25.372576 91.250427 25.161577 92.094421 
Q 24.73958 93.72966 24.238459 94.705528 
Q 23.737337 95.681397 23.36809 95.997894 
Q 22.998842 96.314392 22.471346 96.815514 
Q 21.943849 97.316635 21.521852 97.949631 
L 19.042619 95.1539 
M 15.666643 66.880094 
Q 15.98314 66.669096 16.167764 66.827344 
Q 16.352388 66.985593 16.69526 67.433965 
Q 17.038133 67.882337 17.249132 67.987836 
Q 19.411867 69.042829 24.053835 72.55068 
Q 28.695803 76.058531 31.280535 78.326766 
L 33.812518 79.276259 
M 11.288423 70.36157 
L 11.288423 70.994566 
Q 11.288423 72.524305 10.23343 74.212294 
Q 9.178437 75.900282 7.727822 77.667395 
Q 6.277207 79.434508 5.80246 80.489501 
L 2.637482 82.704986 
" clip-path="url(#pdda3b5c730)" style="fill: none; stroke: #000000; stroke-linejoin: miter"/>
   </g>
  </g>
  <g id="axes_2">
   <g id="patch_3">
    <path d="M 38.711166 88.237742 
Q 38.711166 88.237742 44.047519 88.237742 
Q 54.177543 88.147295 63.583995 89.051762 
Q 64.443238 89.051762 66.862686 89.16482 
Q 69.282134 89.277878 70.638834 89.187432 
M 53.544417 84.212866 
L 53.544417 84.619876 
Q 53.951427 86.112246 54.064485 87.378499 
Q 54.177543 88.644752 54.109708 90.431073 
Q 54.041873 92.217395 54.087097 93.257531 
Q 54.087097 93.754988 54.290602 94.704677 
Q 54.494107 95.654367 54.494107 96.1066 
L 54.629777 97.32763 
Q 54.629777 97.19196 54.471495 97.011067 
Q 54.313213 96.830174 54.087097 96.626669 
Q 53.86098 96.423164 53.815757 96.37794 
L 49.067308 93.664541 
M 44.183189 81.499467 
L 64.895471 81.182903 
L 55.579467 84.619876 
L 54.629777 85.162556 
M 46.625248 78.650397 
L 60.463586 78.650397 
M 46.353908 72.138238 
L 59.920906 72.002568 
M 60.192246 72.273908 
L 60.192246 73.359268 
Q 60.192246 74.128065 60.124411 74.467239 
Q 60.056576 74.806414 59.853071 75.281259 
Q 59.649566 75.756104 59.513896 76.479677 
L 59.378226 78.786067 
M 46.082568 71.731228 
L 46.082568 72.409578 
L 46.896588 78.243387 
M 52.142494 67.028002 
Q 52.77562 67.208896 52.820844 67.977692 
L 53.906203 68.927382 
M 39.796526 70.012742 
Q 43.911849 69.334392 51.622426 69.402227 
Q 59.333002 69.470062 63.538772 69.063052 
L 68.965571 69.470062 
" clip-path="url(#pa8e490d91f)" style="fill: none; stroke: #000000; stroke-linejoin: miter"/>
   </g>
  </g>
  <g id="axes_3">
   <g id="patch_4">
    <path d="M 90.026005 79.358631 
Q 91.995038 78.580176 96.070477 78.328323 
Q 100.145917 78.07647 101.977575 77.526972 
L 107.060427 76.748518 
M 99.230088 70.017173 
Q 99.413254 70.704045 99.344567 72.879139 
Q 99.275879 75.054234 99.779585 75.786897 
L 99.91696 94.057688 
M 94.834108 71.116168 
Q 94.788317 71.574083 94.834108 72.077789 
Q 94.834108 74.687902 94.742525 76.290603 
Q 94.650942 77.893304 94.261715 80.045503 
Q 93.872487 82.197701 92.910867 83.960672 
Q 91.949246 85.723643 90.438128 87.18897 
L 88.92701 88.287965 
M 92.223995 71.390917 
L 92.773492 71.390917 
Q 93.918279 71.390917 95.20044 71.207751 
Q 96.482601 71.024585 98.062406 70.726941 
Q 99.642211 70.429296 100.466457 70.291922 
L 103.213945 70.017173 
M 79.17343 82.976156 
L 86.500063 82.701407 
L 87.461683 82.564033 
M 79.036055 76.611143 
L 85.675817 76.061646 
L 87.186935 75.786897 
L 86.500063 83.11353 
M 78.486558 77.023266 
Q 78.990264 77.252224 79.287908 78.030678 
Q 79.585553 78.809133 79.837406 79.95392 
Q 80.089259 81.098706 80.272425 81.602412 
M 81.646168 71.528291 
Q 78.990264 77.114849 76.700691 80.045503 
Q 76.471734 80.503417 75.89934 81.258976 
Q 75.326947 82.014535 75.189573 82.243492 
M 77.524937 71.665666 
L 79.585553 71.665666 
Q 83.844158 71.711457 87.415892 70.978794 
" clip-path="url(#p5a9eb77d26)" style="fill: none; stroke: #000000; stroke-linejoin: miter"/>
   </g>
  </g>
  <g id="axes_4">
   <g id="patch_5">
    <path d="M 116.454198 84.201747 
Q 117.765742 84.201747 120.279535 83.409355 
Q 122.793328 82.616964 123.995577 82.562316 
L 131.427661 80.758943 
Q 131.427661 82.562316 130.252736 86.742864 
Q 129.077811 90.923411 129.077811 93.000022 
Q 129.077811 93.76509 129.460345 94.311567 
Q 129.842879 94.858043 130.553298 95.18593 
Q 131.263718 95.513816 132.001462 95.705082 
Q 132.739205 95.896349 133.832159 95.950997 
Q 134.925112 96.005645 135.635532 96.005645 
Q 136.345952 96.005645 137.384258 95.978321 
Q 138.422564 95.950997 138.75045 95.950997 
Q 140.717766 96.333531 141.892691 94.420862 
Q 143.067616 92.508193 142.685082 90.540877 
M 124.15952 76.988253 
L 124.15952 77.644025 
Q 124.15952 79.829933 122.957271 82.780907 
Q 121.755022 85.731882 120.033621 89.038066 
Q 118.312219 92.34425 117.765742 93.819738 
L 116.290255 95.295225 
M 129.733583 74.693051 
Q 129.624288 74.47446 129.897526 74.529108 
Q 130.170765 74.529108 130.225412 74.529108 
Q 130.826537 74.802346 130.881184 74.856994 
L 134.323988 78.791627 
M 121.044603 74.201222 
Q 120.716717 74.583756 119.924325 75.321499 
Q 119.131934 76.059243 118.7494 76.496424 
L 115.962369 77.807969 
M 123.011919 66.168013 
Q 123.339805 66.058718 123.831634 66.386604 
Q 124.323463 66.71449 124.951912 67.260967 
Q 125.58036 67.807444 125.798951 67.971387 
Q 126.126837 67.916739 126.099513 68.189978 
Q 126.072189 68.463216 126.29078 68.627159 
M 112.738156 72.069963 
L 125.962894 71.742076 
L 136.783133 70.594475 
Q 137.384258 70.430532 137.438906 70.430532 
Q 137.712144 70.430532 137.739468 70.539828 
Q 137.766792 70.649123 137.766792 71.086304 
L 137.602849 72.069963 
L 136.61919 74.201222 
M 113.885757 69.282931 
L 112.082384 75.840652 
" clip-path="url(#p1334549024)" style="fill: none; stroke: #000000; stroke-linejoin: miter"/>
   </g>
  </g>
  <g id="axes_5">
   <g id="patch_6">
    <path d="M 176.242313 77.868823 
Q 176.747161 78.424155 177.47919 79.635789 
Q 178.211219 80.847424 178.665582 81.352271 
L 179.725762 83.77554 
M 158.421191 69.740776 
Q 159.885249 70.296108 161.37455 72.290256 
Q 162.86385 74.284404 163.570637 76.25331 
M 154.28144 73.325194 
Q 154.988227 76.404765 155.240651 80.039668 
Q 155.493075 83.674571 155.518317 86.072597 
Q 155.54356 88.470623 155.896953 90.666711 
Q 156.250346 92.862798 157.487223 93.94822 
Q 158.7241 95.033643 161.147368 95.134612 
Q 162.560942 95.185097 170.714231 94.957916 
Q 178.867521 94.730734 178.615097 94.377341 
Q 177.302493 92.660859 176.797645 91.676406 
Q 176.292798 90.691953 175.485042 88.268684 
M 150.14169 79.736759 
Q 150.343629 79.736759 150.318386 80.014425 
Q 150.293144 80.292091 150.293144 80.342576 
L 148.627147 91.095831 
L 148.324238 91.550194 
" clip-path="url(#p0cbb7cdde0)" style="fill: none; stroke: #000000; stroke-linejoin: miter"/>
   </g>
  </g>
  <g id="axes_6">
   <g id="patch_7">
    <path d="M 200.177853 85.15125 
Q 200.078804 85.497921 200.400713 85.720781 
Q 200.722622 85.943641 201.193105 86.04269 
Q 201.663587 86.141739 202.158832 86.315075 
Q 202.654076 86.48841 202.852174 86.785557 
L 204.040761 87.676997 
M 195.720652 85.002677 
Q 198.345448 84.656005 204.684579 83.615992 
Q 211.023709 82.575978 214.440897 82.179783 
L 216.223777 82.031209 
M 205.972215 79.505462 
L 205.972215 80.099755 
Q 206.071264 82.625503 207.111277 87.70176 
Q 208.151291 92.778016 207.854144 95.15519 
Q 207.606522 96.888546 204.783628 93.81803 
Q 202.802649 91.688478 202.654076 91.539905 
M 200.177853 80.099755 
Q 200.673098 79.951182 202.555027 79.827371 
Q 204.436957 79.70356 205.377921 79.208315 
L 209.5875 77.920679 
M 199.979755 72.81966 
L 210.231318 71.977745 
M 200.227378 76.48447 
L 200.821671 76.48447 
Q 201.515014 76.48447 202.307405 76.385421 
Q 203.099796 76.286372 204.065523 76.113037 
Q 205.03125 75.939701 205.576019 75.890177 
L 210.92466 74.70159 
M 198.642595 69.006277 
L 199.385462 69.006277 
Q 199.831182 69.006277 201.36644 68.882466 
Q 202.901698 68.758655 204.635054 68.634844 
Q 206.36841 68.511033 208.077004 68.411984 
Q 209.785598 68.312935 210.899898 68.362459 
Q 212.014198 68.411984 212.014198 68.70913 
L 212.014198 70.046291 
L 210.528465 74.751114 
M 198.196875 69.451997 
Q 198.939742 70.59106 199.187364 71.4825 
Q 199.434986 72.37394 199.558798 73.562527 
Q 199.682609 74.751114 199.930231 75.741603 
M 190.718682 79.901658 
L 191.114878 94.610421 
M 194.284443 73.067283 
L 194.284443 73.364429 
Q 193.293954 75.295883 191.981556 77.252099 
Q 190.669158 79.208315 189.133899 81.288342 
Q 187.598641 83.36837 187.004348 84.210285 
L 184.726223 86.290312 
M 194.977785 68.411984 
L 190.669158 73.314905 
L 189.629144 74.057772 
" clip-path="url(#paf76496916)" style="fill: none; stroke: #000000; stroke-linejoin: miter"/>
   </g>
  </g>
  <g id="axes_7">
   <g id="patch_8">
    <path d="M 237.979397 94.597386 
Q 237.979397 94.597386 236.20801 94.597386 
Q 233.930514 94.597386 232.53871 96.326597 
Q 231.146907 98.055807 231.146907 100.417655 
Q 231.062555 102.779503 232.707414 104.086955 
Q 234.352272 105.394407 236.714121 104.972648 
Q 237.388934 104.888297 238.485507 104.803945 
Q 239.582079 104.719593 240.172541 104.635241 
Q 240.763003 104.55089 241.479993 104.213483 
Q 242.196983 103.876076 242.492214 103.074734 
Q 242.787445 102.273393 242.787445 100.923766 
Q 242.787445 100.333303 242.53439 99.742841 
Q 242.281334 99.152379 241.859576 98.43539 
Q 241.437817 97.7184 241.269114 97.380993 
L 238.738562 95.862662 
" clip-path="url(#pcf81faf60f)" style="fill: none; stroke: #000000; stroke-linejoin: miter"/>
   </g>
  </g>
 </g>
 <defs>
  <clipPath id="pdda3b5c730">
   <rect x="0" y="42.351512" width="36.45" height="76.486975"/>
  </clipPath>
  <clipPath id="pa8e490d91f">
   <rect x="36.45" y="47.808089" width="36.45" height="65.573821"/>
  </clipPath>
  <clipPath id="p5a9eb77d26">
   <rect x="72.9" y="47.396193" width="36.45" height="66.397613"/>
  </clipPath>
  <clipPath id="p1334549024">
   <rect x="109.35" y="40.975435" width="36.45" height="79.23913"/>
  </clipPath>
  <clipPath id="p0cbb7cdde0">
   <rect x="145.8" y="43.993546" width="36.45" height="73.202909"/>
  </clipPath>
  <clipPath id="paf76496916">
   <rect x="182.25" y="44.689769" width="36.45" height="71.810462"/>
  </clipPath>
  <clipPath id="pcf81faf60f">
   <rect x="226.844969" y="19.44" width="20.160062" height="122.31"/>
  </clipPath>
 </defs>
</svg>
