<?xml version="1.0" encoding="utf-8" standalone="no"?>
<!DOCTYPE svg PUBLIC "-//W3C//DTD SVG 1.1//EN"
  "http://www.w3.org/Graphics/SVG/1.1/DTD/svg11.dtd">
<svg xmlns:xlink="http://www.w3.org/1999/xlink" width="157.5pt" height="72pt" viewBox="0 0 157.5 72" xmlns="http://www.w3.org/2000/svg" version="1.1">
 <metadata>
  <rdf:RDF xmlns:dc="http://purl.org/dc/elements/1.1/" xmlns:cc="http://creativecommons.org/ns#" xmlns:rdf="http://www.w3.org/1999/02/22-rdf-syntax-ns#">
   <cc:Work>
    <dc:type rdf:resource="http://purl.org/dc/dcmitype/StillImage"/>
    <dc:date>2023-02-13T20:22:17.081549</dc:date>
    <dc:format>image/svg+xml</dc:format>
    <dc:creator>
     <cc:Agent>
      <dc:title>Matplotlib v3.6.1, https://matplotlib.org/</dc:title>
     </cc:Agent>
    </dc:creator>
   </cc:Work>
  </rdf:RDF>
 </metadata>
 <defs>
  <style type="text/css">*{stroke-linejoin: round; stroke-linecap: butt}</style>
 </defs>
 <g id="figure_1">
  <g id="patch_1">
   <path d="M 0 72 
L 157.5 72 
L 157.5 0 
L 0 0 
z
" style="fill: #8fff9f"/>
  </g>
  <g id="axes_1">
   <g id="patch_2">
    <path d="M 8.476572 38.781683 
L 8.476572 43.880276 
M 14.887303 35.82 
L 14.887303 49.653683 
M 8.364103 38.669214 
Q 9.001428 38.294317 10.3698 38.444276 
Q 11.738172 38.594234 12.487966 38.481766 
Q 12.675414 38.481766 13.706379 38.369297 
Q 14.737345 38.256828 16.030738 38.125614 
Q 17.324131 37.9944 18.598779 37.881931 
Q 19.873428 37.769462 20.754434 37.788207 
Q 21.635441 37.806952 21.635441 37.95691 
Q 21.635441 38.444276 21.504228 41.574662 
Q 21.373014 44.705048 21.335524 44.667559 
Q 20.923138 44.367641 20.435772 44.086469 
Q 19.948407 43.805297 19.57351 43.655338 
Q 19.198614 43.505379 18.823717 43.336676 
Q 18.448821 43.167972 18.261372 43.055503 
M 21.035607 28.884414 
Q 22.272766 29.634207 23.060048 30.34651 
Q 23.847331 31.058814 24.353441 32.108524 
Q 24.859552 33.158234 24.859552 34.470372 
Q 24.859552 34.620331 24.522145 34.807779 
Q 24.184738 34.995228 23.847331 35.145186 
L 23.547414 35.295145 
Q 23.172517 35.445103 22.8726 35.463848 
Q 22.572683 35.482593 22.329 35.388869 
Q 22.085317 35.295145 21.897869 35.145186 
Q 21.710421 34.995228 21.504228 34.751545 
Q 21.298034 34.507862 21.129331 34.301669 
Q 20.960628 34.095476 20.73569 33.795559 
Q 20.510752 33.495641 20.285814 33.270703 
M 17.774007 25.697793 
Q 19.760959 25.060469 21.27929 25.116703 
Q 22.797621 25.172938 24.859552 24.648083 
Q 25.047 25.060469 24.709593 25.604069 
Q 24.372186 26.147669 23.847331 26.597545 
Q 23.322476 27.047421 22.478959 27.759724 
Q 21.635441 28.472028 21.148076 29.034372 
M 17.549069 25.697793 
Q 17.923966 26.635034 17.9802 27.815959 
Q 18.036434 28.996883 18.092669 30.215297 
Q 18.148903 31.43371 18.48631 32.370952 
L 18.673759 36.194897 
M 4.090283 33.195724 
Q 4.540159 33.120745 5.402421 32.952041 
Q 6.264683 32.783338 6.677069 32.689614 
Q 7.089455 32.59589 7.932972 32.445931 
Q 8.77649 32.295972 9.188876 32.258483 
Q 9.601262 32.220993 10.463524 32.127269 
Q 11.325786 32.033545 11.756917 32.05229 
Q 12.188048 32.071034 13.12529 32.071034 
L 15.149731 31.846097 
M 7.61431 30.084083 
L 12.975331 29.634207 
M 5.664848 28.134621 
Q 5.889786 27.909683 6.452131 27.834703 
Q 7.014476 27.759724 7.726779 27.722234 
Q 8.439083 27.684745 8.664021 27.647255 
L 14.812324 27.197379 
L 15.337179 27.009931 
M 11.175828 24.348166 
L 11.175828 24.873021 
Q 11.175828 25.247917 11.175828 25.99771 
Q 11.288297 27.309848 11.213317 28.603241 
Q 11.138338 29.896634 10.988379 31.040069 
Q 10.838421 32.183503 10.313566 33.233214 
Q 9.78871 34.282924 8.963938 35.145186 
Q 8.139166 36.007448 6.714559 36.682262 
Q 5.289952 37.357076 3.303 37.769462 
" clip-path="url(#p69ae385af7)" style="fill: none; stroke: #000000; stroke-linejoin: miter"/>
   </g>
  </g>
  <g id="axes_2">
   <g id="patch_3">
    <path d="M 43.435843 31.749669 
L 43.663554 31.749669 
Q 44.574398 31.635813 48.50241 31.251551 
Q 52.430422 30.867289 54.508283 30.525723 
Q 54.992169 30.411867 55.134488 30.468795 
Q 55.276807 30.525723 55.276807 30.981145 
Q 55.276807 32.034307 54.750226 35.578057 
Q 54.223645 39.121807 53.255873 42.637093 
Q 52.288102 46.15238 51.405723 46.15238 
Q 50.86491 45.867741 50.49488 45.440783 
Q 50.124849 45.013825 49.968298 44.686491 
Q 49.811747 44.359157 49.413253 44.003358 
Q 49.014759 43.64756 48.36009 43.476777 
M 47.022289 27.309307 
L 47.022289 27.537018 
Q 47.022289 28.077831 47.107681 29.017139 
Q 47.193072 29.956446 47.235768 30.511491 
Q 47.278464 31.066536 47.164608 31.97738 
Q 46.310693 36.93009 45.25753 39.349518 
Q 44.204367 41.768946 41.756476 44.074518 
L 40.589458 44.672259 
M 33.701205 36.673916 
L 34.242018 36.673916 
Q 35.978313 36.730843 38.226958 35.962319 
M 33.843524 32.489729 
Q 34.014307 32.518193 34.754367 32.432801 
L 38.226958 32.091235 
M 29.773193 41.484307 
Q 31.566416 41.199669 34.668976 40.488072 
Q 37.771536 39.776476 39.764006 39.43491 
L 42.126506 38.865633 
M 33.530422 29.358705 
L 33.758133 29.358705 
Q 33.81506 29.358705 33.871988 29.387169 
Q 33.928916 29.387169 33.928916 29.358705 
Q 33.928916 29.301777 34.156627 29.216386 
L 37.145331 28.846355 
L 38.54006 28.618645 
L 39.820934 28.419398 
L 39.820934 28.590181 
Q 39.820934 30.35494 39.223193 33.742139 
L 38.995482 36.987018 
L 38.91009 39.06488 
M 33.302711 28.988675 
L 33.302711 40.317289 
" clip-path="url(#pa3edee6004)" style="fill: none; stroke: #000000; stroke-linejoin: miter"/>
   </g>
  </g>
  <g id="axes_3">
   <g id="patch_4">
    <path d="M 71.003032 34.173871 
Q 74.405032 32.674065 75.539032 31.83271 
Q 77.624129 30.296323 79.416581 26.711419 
M 74.331871 36.039484 
Q 75.063484 36.880839 76.032871 38.655 
Q 77.002258 40.429161 78.172839 42.057 
Q 79.343419 43.684839 80.952968 44.782258 
L 83.220968 46.026 
M 66.759677 36.917419 
Q 68.698452 36.478452 72.777194 35.984613 
Q 76.855935 35.490774 78.83129 35.051806 
L 82.123548 34.576258 
M 70.527484 25.723742 
L 70.527484 26.382194 
Q 70.746968 28.759935 70.582355 36.295548 
Q 70.417742 43.831161 70.454323 46.208903 
Q 70.454323 47.050258 70.472613 47.544097 
Q 70.490903 48.037935 70.600645 48.330581 
Q 70.710387 48.623226 70.765258 48.714677 
Q 70.820129 48.806129 71.076194 48.659806 
Q 71.332258 48.513484 71.496871 48.348871 
Q 71.661484 48.184258 72.118742 47.727 
Q 72.576 47.269742 72.905226 46.977097 
L 73.234452 46.61129 
M 58.529032 39.697548 
Q 61.272581 38.819613 63.028452 37.758774 
Q 64.016129 37.173484 64.65629 37.100323 
Q 65.296452 37.027161 65.552516 37.466129 
Q 65.808581 37.905097 65.881742 38.508677 
Q 65.954903 39.112258 65.881742 40.026774 
Q 65.808581 40.94129 65.698839 41.672903 
Q 65.625677 42.111871 65.589097 42.349645 
Q 65.552516 42.587419 65.515935 42.934935 
Q 65.479355 43.282452 65.479355 43.538516 
Q 65.479355 43.794581 65.479355 44.014065 
Q 65.698839 49.171935 64.564839 49.025613 
L 62.662645 47.342903 
M 59.077742 33.369097 
Q 59.55329 33.332516 59.51671 33.917806 
Q 59.480129 34.429935 59.443548 35.253 
Q 59.406968 36.076065 59.370387 36.515032 
Q 59.333806 36.954 59.114323 37.850226 
Q 58.894839 38.746452 58.529032 39.917032 
M 58.968 33.149613 
Q 59.406968 33.00329 60.284903 32.710645 
Q 61.162839 32.418 61.601806 32.289968 
Q 62.040774 32.161935 62.790677 32.052194 
Q 63.540581 31.942452 64.272194 31.942452 
L 65.881742 31.393742 
M 59.297226 27.479613 
L 63.394258 26.272452 
Q 64.784323 26.16271 64.820903 26.16271 
L 65.698839 26.16271 
L 64.930645 31.613226 
" clip-path="url(#pb8ba6aa829)" style="fill: none; stroke: #000000; stroke-linejoin: miter"/>
   </g>
  </g>
  <g id="axes_4">
   <g id="patch_5">
    <path d="M 98.685 41.92875 
Q 98.955 41.86125 99.2925 42.33375 
Q 99.63 42.80625 100.00125 42.73875 
L 102.22875 43.75125 
M 94.53375 40.64625 
Q 96.76125 40.2075 99.106875 40.14 
Q 101.4525 40.0725 103.123125 40.190625 
Q 104.79375 40.30875 107.1225 40.224375 
Q 109.45125 40.14 111.7125 39.735 
M 105.3675 38.385 
L 105.165 47.9025 
L 104.05125 46.45125 
M 107.7975 26.1 
Q 108.23625 26.4375 108.995625 27.331875 
Q 109.755 28.22625 110.12625 28.56375 
M 102.97125 25.425 
L 103.03875 39.09375 
M 99.46125 28.395 
L 106.07625 28.02375 
M 99.9675 35.98875 
L 106.38 35.4825 
M 99.93375 33.3225 
L 106.1775 32.9175 
M 97.57125 30.92625 
Q 99.0225 30.555 100.71 30.38625 
Q 102.3975 30.2175 104.49 30.133125 
Q 106.5825 30.04875 107.69625 29.91375 
Q 107.69625 29.91375 109.0125 29.91375 
Q 109.11375 29.91375 109.11375 30.285 
Q 109.11375 34.065 108.3375 36.765 
L 107.83125 38.115 
M 97.57125 30.285 
L 97.57125 30.92625 
L 97.57125 32.6475 
L 98.0775 37.67625 
M 86.7375 34.09875 
Q 87.31125 33.69375 90.07875 33.39 
L 95.54625 33.28875 
M 91.29375 26.3025 
L 91.29375 41.79375 
L 91.15875 47.73375 
" clip-path="url(#p27c80c3410)" style="fill: none; stroke: #000000; stroke-linejoin: miter"/>
   </g>
  </g>
  <g id="axes_5">
   <g id="patch_6">
    <path d="M 128.043621 42.043283 
Q 128.043621 42.043283 127.256338 42.043283 
Q 126.244117 42.043283 125.625538 42.811821 
Q 125.006959 43.580359 125.006959 44.630069 
Q 124.969469 45.679779 125.700517 46.260869 
Q 126.431566 46.841959 127.481276 46.65451 
Q 127.781193 46.617021 128.268559 46.579531 
Q 128.755924 46.542041 129.018352 46.504552 
Q 129.280779 46.467062 129.599441 46.317103 
Q 129.918103 46.167145 130.049317 45.810993 
Q 130.180531 45.454841 130.180531 44.855007 
Q 130.180531 44.592579 130.068062 44.330152 
Q 129.955593 44.067724 129.768145 43.749062 
Q 129.580697 43.4304 129.505717 43.280441 
L 128.381028 42.605628 
" clip-path="url(#p405789438b)" style="fill: none; stroke: #000000; stroke-linejoin: miter"/>
   </g>
  </g>
 </g>
 <defs>
  <clipPath id="p69ae385af7">
   <rect x="1.428517" y="8.64" width="25.492966" height="54.36"/>
  </clipPath>
  <clipPath id="pa3edee6004">
   <rect x="28.35" y="15.183705" width="28.35" height="41.27259"/>
  </clipPath>
  <clipPath id="pb8ba6aa829">
   <rect x="56.7" y="9.299032" width="28.35" height="53.041935"/>
  </clipPath>
  <clipPath id="p27c80c3410">
   <rect x="85.05" y="11.35125" width="28.35" height="48.9375"/>
  </clipPath>
  <clipPath id="p405789438b">
   <rect x="123.094986" y="8.64" width="8.960028" height="54.36"/>
  </clipPath>
 </defs>
</svg>
