<?xml version="1.0" encoding="utf-8" standalone="no"?>
<!DOCTYPE svg PUBLIC "-//W3C//DTD SVG 1.1//EN"
  "http://www.w3.org/Graphics/SVG/1.1/DTD/svg11.dtd">
<svg xmlns:xlink="http://www.w3.org/1999/xlink" width="162pt" height="162pt" viewBox="0 0 162 162" xmlns="http://www.w3.org/2000/svg" version="1.1">
 <metadata>
  <rdf:RDF xmlns:dc="http://purl.org/dc/elements/1.1/" xmlns:cc="http://creativecommons.org/ns#" xmlns:rdf="http://www.w3.org/1999/02/22-rdf-syntax-ns#">
   <cc:Work>
    <dc:type rdf:resource="http://purl.org/dc/dcmitype/StillImage"/>
    <dc:date>2023-02-15T23:03:39.957501</dc:date>
    <dc:format>image/svg+xml</dc:format>
    <dc:creator>
     <cc:Agent>
      <dc:title>Matplotlib v3.6.1, https://matplotlib.org/</dc:title>
     </cc:Agent>
    </dc:creator>
   </cc:Work>
  </rdf:RDF>
 </metadata>
 <defs>
  <style type="text/css">*{stroke-linejoin: round; stroke-linecap: butt}</style>
 </defs>
 <g id="figure_1">
  <g id="patch_1">
   <path d="M 0 162 
L 162 162 
L 162 0 
L 0 0 
z
" style="fill: #8fff9f"/>
  </g>
  <g id="axes_1">
   <g id="patch_2">
    <path d="M 20.733028 66.597818 
Q 20.207536 69.368591 20.159764 74.790708 
Q 20.111992 80.212824 20.016448 81.645983 
L 19.586501 87.235301 
M 9.411075 81.07272 
Q 13.185059 80.021737 20.374738 78.803552 
Q 27.564417 77.585367 30.478506 76.91656 
Q 29.570839 76.91656 28.543742 79.281271 
Q 27.516645 81.645983 26.680636 84.010695 
Q 25.844626 86.375406 25.462451 86.375406 
Q 25.128047 86.375406 24.913073 86.23209 
Q 24.6981 86.088775 24.507012 85.849915 
Q 24.315924 85.611055 24.172608 85.515511 
L 23.312713 85.085564 
M 13.853866 74.050242 
L 13.567235 77.633139 
L 13.280603 84.942248 
L 13.423919 93.06348 
Q 13.901638 94.735498 15.072051 95.643165 
Q 16.242464 96.550832 17.890596 96.813578 
Q 19.538729 97.076324 21.139089 97.076324 
Q 22.73945 97.076324 24.721986 97.052438 
Q 26.704522 97.028552 27.89882 97.267412 
Q 28.328768 97.362955 29.379751 97.028552 
Q 30.430734 96.694148 31.290629 96.144771 
Q 32.150524 95.595393 32.05498 95.117674 
L 34.061402 90.101619 
M 7.977916 75.196769 
Q 7.500197 75.578945 7.476311 76.821016 
Q 7.452425 78.063087 7.118021 78.493034 
L 6.974705 96.98078 
M 10.27097 68.174292 
L 10.27097 69.177503 
Q 10.27097 70.610662 9.506619 72.04382 
Q 8.742267 73.476979 7.524083 75.125111 
Q 6.305898 76.773244 5.828178 77.633139 
L 2.388598 80.212824 
" clip-path="url(#pe1569fd803)" style="fill: none; stroke: #000000; stroke-linejoin: miter"/>
   </g>
  </g>
  <g id="axes_2">
   <g id="patch_3">
    <path d="M 58.700153 72.768313 
Q 58.700153 72.768313 58.700153 75.954893 
Q 58.700153 78.191089 58.839916 80.70681 
Q 58.979678 83.222531 59.203298 86.297301 
Q 59.426917 89.372071 59.538727 91.049218 
L 59.203298 92.726365 
M 47.127837 93.397224 
L 70.104755 93.061794 
M 51.656135 78.973758 
L 54.842715 78.973758 
Q 54.89862 78.973758 62.054448 78.638328 
L 66.247316 78.135184 
M 44.164877 76.234417 
L 44.164877 79.756426 
Q 44.164877 79.812331 44.500307 84.117009 
L 44.668021 95.353896 
M 46.065644 69.525828 
Q 47.183742 69.358113 53.668712 69.190399 
Q 60.153681 69.022684 62.389877 67.960491 
L 64.234739 67.625061 
M 53.780521 63.488098 
Q 53.221472 68.799064 49.559701 74.305698 
Q 45.897929 79.812331 41.090107 82.719387 
L 39.245245 83.55796 
" clip-path="url(#p8caaee3daf)" style="fill: none; stroke: #000000; stroke-linejoin: miter"/>
   </g>
  </g>
  <g id="axes_3">
   <g id="patch_4">
    <path d="M 90.026005 79.358631 
Q 91.995038 78.580176 96.070477 78.328323 
Q 100.145917 78.07647 101.977575 77.526972 
L 107.060427 76.748518 
M 99.230088 70.017173 
Q 99.413254 70.704045 99.344567 72.879139 
Q 99.275879 75.054234 99.779585 75.786897 
L 99.91696 94.057688 
M 94.834108 71.116168 
Q 94.788317 71.574083 94.834108 72.077789 
Q 94.834108 74.687902 94.742525 76.290603 
Q 94.650942 77.893304 94.261715 80.045503 
Q 93.872487 82.197701 92.910867 83.960672 
Q 91.949246 85.723643 90.438128 87.18897 
L 88.92701 88.287965 
M 92.223995 71.390917 
L 92.773492 71.390917 
Q 93.918279 71.390917 95.20044 71.207751 
Q 96.482601 71.024585 98.062406 70.726941 
Q 99.642211 70.429296 100.466457 70.291922 
L 103.213945 70.017173 
M 79.17343 82.976156 
L 86.500063 82.701407 
L 87.461683 82.564033 
M 79.036055 76.611143 
L 85.675817 76.061646 
L 87.186935 75.786897 
L 86.500063 83.11353 
M 78.486558 77.023266 
Q 78.990264 77.252224 79.287908 78.030678 
Q 79.585553 78.809133 79.837406 79.95392 
Q 80.089259 81.098706 80.272425 81.602412 
M 81.646168 71.528291 
Q 78.990264 77.114849 76.700691 80.045503 
Q 76.471734 80.503417 75.89934 81.258976 
Q 75.326947 82.014535 75.189573 82.243492 
M 77.524937 71.665666 
L 79.585553 71.665666 
Q 83.844158 71.711457 87.415892 70.978794 
" clip-path="url(#pccb391c9ca)" style="fill: none; stroke: #000000; stroke-linejoin: miter"/>
   </g>
  </g>
  <g id="axes_4">
   <g id="patch_5">
    <path d="M 116.454198 84.201747 
Q 117.765742 84.201747 120.279535 83.409355 
Q 122.793328 82.616964 123.995577 82.562316 
L 131.427661 80.758943 
Q 131.427661 82.562316 130.252736 86.742864 
Q 129.077811 90.923411 129.077811 93.000022 
Q 129.077811 93.76509 129.460345 94.311567 
Q 129.842879 94.858043 130.553298 95.18593 
Q 131.263718 95.513816 132.001462 95.705082 
Q 132.739205 95.896349 133.832159 95.950997 
Q 134.925112 96.005645 135.635532 96.005645 
Q 136.345952 96.005645 137.384258 95.978321 
Q 138.422564 95.950997 138.75045 95.950997 
Q 140.717766 96.333531 141.892691 94.420862 
Q 143.067616 92.508193 142.685082 90.540877 
M 124.15952 76.988253 
L 124.15952 77.644025 
Q 124.15952 79.829933 122.957271 82.780907 
Q 121.755022 85.731882 120.033621 89.038066 
Q 118.312219 92.34425 117.765742 93.819738 
L 116.290255 95.295225 
M 129.733583 74.693051 
Q 129.624288 74.47446 129.897526 74.529108 
Q 130.170765 74.529108 130.225412 74.529108 
Q 130.826537 74.802346 130.881184 74.856994 
L 134.323988 78.791627 
M 121.044603 74.201222 
Q 120.716717 74.583756 119.924325 75.321499 
Q 119.131934 76.059243 118.7494 76.496424 
L 115.962369 77.807969 
M 123.011919 66.168013 
Q 123.339805 66.058718 123.831634 66.386604 
Q 124.323463 66.71449 124.951912 67.260967 
Q 125.58036 67.807444 125.798951 67.971387 
Q 126.126837 67.916739 126.099513 68.189978 
Q 126.072189 68.463216 126.29078 68.627159 
M 112.738156 72.069963 
L 125.962894 71.742076 
L 136.783133 70.594475 
Q 137.384258 70.430532 137.438906 70.430532 
Q 137.712144 70.430532 137.739468 70.539828 
Q 137.766792 70.649123 137.766792 71.086304 
L 137.602849 72.069963 
L 136.61919 74.201222 
M 113.885757 69.282931 
L 112.082384 75.840652 
" clip-path="url(#pd5117b1976)" style="fill: none; stroke: #000000; stroke-linejoin: miter"/>
   </g>
  </g>
 </g>
 <defs>
  <clipPath id="pe1569fd803">
   <rect x="0" y="45.960334" width="36.45" height="69.269332"/>
  </clipPath>
  <clipPath id="p8caaee3daf">
   <rect x="36.45" y="40.063942" width="36.45" height="81.062117"/>
  </clipPath>
  <clipPath id="pccb391c9ca">
   <rect x="72.9" y="47.396193" width="36.45" height="66.397613"/>
  </clipPath>
  <clipPath id="pd5117b1976">
   <rect x="109.35" y="40.975435" width="36.45" height="79.23913"/>
  </clipPath>
 </defs>
</svg>
