<?xml version="1.0" encoding="utf-8" standalone="no"?>
<!DOCTYPE svg PUBLIC "-//W3C//DTD SVG 1.1//EN"
  "http://www.w3.org/Graphics/SVG/1.1/DTD/svg11.dtd">
<svg xmlns:xlink="http://www.w3.org/1999/xlink" width="202.5pt" height="162pt" viewBox="0 0 202.5 162" xmlns="http://www.w3.org/2000/svg" version="1.1">
 <metadata>
  <rdf:RDF xmlns:dc="http://purl.org/dc/elements/1.1/" xmlns:cc="http://creativecommons.org/ns#" xmlns:rdf="http://www.w3.org/1999/02/22-rdf-syntax-ns#">
   <cc:Work>
    <dc:type rdf:resource="http://purl.org/dc/dcmitype/StillImage"/>
    <dc:date>2023-02-15T23:04:04.361877</dc:date>
    <dc:format>image/svg+xml</dc:format>
    <dc:creator>
     <cc:Agent>
      <dc:title>Matplotlib v3.6.1, https://matplotlib.org/</dc:title>
     </cc:Agent>
    </dc:creator>
   </cc:Work>
  </rdf:RDF>
 </metadata>
 <defs>
  <style type="text/css">*{stroke-linejoin: round; stroke-linecap: butt}</style>
 </defs>
 <g id="figure_1">
  <g id="patch_1">
   <path d="M 0 162 
L 202.5 162 
L 202.5 0 
L 0 0 
z
" style="fill: #8fff9f"/>
  </g>
  <g id="axes_1">
   <g id="patch_2">
    <path d="M 10.047801 84.817214 
L 10.047801 92.085836 
M 19.187023 80.595 
L 19.187023 100.316481 
M 9.887463 84.656877 
Q 10.796041 84.122419 12.746811 84.336202 
Q 14.697581 84.549985 15.766496 84.389648 
Q 16.033724 84.389648 17.503482 84.229311 
Q 18.97324 84.068974 20.817119 83.881913 
Q 22.660997 83.694853 24.478152 83.534516 
Q 26.295308 83.374179 27.551283 83.400902 
Q 28.807258 83.427625 28.807258 83.641408 
Q 28.807258 84.336202 28.620198 88.798922 
Q 28.433138 93.261642 28.379692 93.208196 
Q 27.631452 92.620293 26.749597 92.166004 
Q 25.867742 91.711716 25.066056 91.391041 
Q 24.26437 91.070367 23.997141 90.910029 
M 27.952126 70.707537 
Q 30.677859 72.310909 32.040726 74.128065 
Q 33.403592 75.94522 33.403592 78.670953 
Q 33.403592 78.777845 33.216532 78.938182 
Q 33.029472 79.098519 32.735521 79.258856 
Q 32.441569 79.419194 32.17434 79.552808 
Q 31.907111 79.686422 31.693328 79.793314 
L 31.532991 79.84676 
Q 30.998534 80.167434 30.437353 80.060543 
Q 29.876173 79.953651 29.582221 79.84676 
Q 29.28827 79.739868 28.887427 79.365748 
Q 28.486584 78.991628 28.246078 78.670953 
Q 28.005572 78.350279 27.604729 77.842544 
Q 27.203886 77.334809 26.883211 76.960689 
M 23.302346 66.164648 
Q 26.134971 65.25607 28.299523 65.336239 
Q 30.464076 65.416408 33.403592 64.668167 
Q 33.777713 65.416408 33.029472 66.351708 
Q 32.281232 67.287009 30.570968 68.676598 
Q 28.860704 70.066188 28.112463 70.92132 
M 22.981672 66.164648 
Q 23.623021 67.768021 23.703189 70.948043 
Q 23.783358 74.128065 24.317815 75.677991 
L 24.585044 81.129457 
M 3.794648 76.853798 
Q 4.435997 76.746906 5.665249 76.5064 
Q 6.894501 76.265894 7.482405 76.13228 
Q 8.070308 75.998666 9.272837 75.784883 
Q 10.475367 75.5711 11.06327 75.517654 
Q 11.651173 75.464208 12.880425 75.330594 
Q 14.109677 75.196979 14.724304 75.223702 
Q 15.33893 75.250425 16.675073 75.250425 
L 19.561144 74.929751 
M 8.818548 72.417801 
L 16.46129 71.776452 
M 6.03937 69.638622 
Q 6.360044 69.317947 7.16173 69.211056 
Q 7.963416 69.104164 8.978886 69.050718 
Q 9.994355 68.997273 10.315029 68.943827 
L 19.080132 68.302478 
L 19.828372 68.035249 
M 13.895894 64.240601 
L 13.895894 64.988842 
Q 13.895894 65.523299 13.895894 66.592214 
Q 14.056232 68.462815 13.94934 70.306694 
Q 13.842449 72.150572 13.628666 73.780667 
Q 13.414883 75.410762 12.666642 76.907243 
Q 11.918402 78.403724 10.742595 79.632977 
Q 9.566789 80.862229 7.53585 81.824252 
Q 5.504912 82.786276 2.672287 83.374179 
" clip-path="url(#p6fea0ab2a7)" style="fill: none; stroke: #000000; stroke-linejoin: miter"/>
   </g>
  </g>
  <g id="axes_2">
   <g id="patch_3">
    <path d="M 55.846084 75.361717 
L 56.138855 75.361717 
Q 57.30994 75.215331 62.360241 74.72128 
Q 67.410542 74.227229 70.082078 73.788072 
Q 70.704217 73.641687 70.887199 73.71488 
Q 71.070181 73.788072 71.070181 74.373614 
Q 71.070181 75.727681 70.393148 80.283931 
Q 69.716114 84.840181 68.471837 89.359834 
Q 67.22756 93.879488 66.093072 93.879488 
Q 65.397741 93.513524 64.921988 92.964578 
Q 64.446235 92.415633 64.244955 91.994774 
Q 64.043675 91.573916 63.531325 91.116461 
Q 63.018976 90.659006 62.177259 90.439428 
M 60.457229 69.652681 
L 60.457229 69.945452 
Q 60.457229 70.530994 60.530422 71.354413 
Q 60.603614 72.177831 60.658509 72.781672 
Q 60.713404 73.385512 60.731702 74.227229 
Q 60.75 75.068946 60.640211 75.654488 
Q 59.542319 82.022259 58.188253 85.132952 
Q 56.834187 88.243645 53.686898 91.207952 
L 52.186446 91.976476 
M 43.33012 81.692892 
L 44.025452 81.692892 
Q 46.257831 81.766084 49.148946 80.777982 
M 43.513102 76.313223 
Q 43.732681 76.349819 44.684187 76.24003 
L 49.148946 75.800873 
M 38.279819 87.877681 
Q 40.585392 87.511717 44.574398 86.596807 
Q 48.563404 85.681898 51.125151 85.242741 
L 54.162651 84.510813 
M 43.110542 72.28762 
L 43.403313 72.28762 
Q 43.476506 72.28762 43.549699 72.324217 
Q 43.622892 72.324217 43.622892 72.305919 
Q 43.622892 72.28762 43.622892 72.269322 
Q 43.622892 72.251024 43.696084 72.214428 
Q 43.769277 72.177831 43.915663 72.104639 
L 47.758283 71.628886 
L 49.551506 71.336114 
L 51.198343 71.07994 
L 51.198343 71.299518 
Q 51.198343 73.568494 50.429819 77.923464 
L 50.137048 82.095452 
L 50.027259 84.766988 
M 42.817771 71.811867 
L 42.817771 86.377229 
" clip-path="url(#pcbd26c8ac6)" style="fill: none; stroke: #000000; stroke-linejoin: miter"/>
   </g>
  </g>
  <g id="axes_3">
   <g id="patch_4">
    <path d="M 91.289613 78.478548 
Q 95.663613 76.550226 97.121613 75.468484 
Q 99.802452 73.493129 102.107032 68.883968 
M 95.569548 80.877194 
Q 96.510194 81.958935 97.756548 84.24 
Q 99.002903 86.521065 100.507935 88.614 
Q 102.012968 90.706935 104.082387 92.117903 
L 106.998387 93.717 
M 85.833871 82.005968 
Q 88.326581 81.441581 93.570677 80.806645 
Q 98.814774 80.17171 101.354516 79.607323 
L 105.587419 78.995903 
M 90.678194 67.614097 
L 90.678194 68.460677 
Q 90.960387 71.517774 90.748742 81.206419 
Q 90.537097 90.895065 90.584129 93.952161 
Q 90.584129 95.033903 90.607645 95.668839 
Q 90.631161 96.303774 90.772258 96.680032 
Q 90.913355 97.05629 90.983903 97.173871 
Q 91.054452 97.291452 91.383677 97.103323 
Q 91.712903 96.915194 91.924548 96.703548 
Q 92.136194 96.491903 92.724097 95.904 
Q 93.312 95.316097 93.73529 94.939839 
L 94.158581 94.469516 
M 75.251613 85.580419 
Q 78.779032 84.451645 81.036581 83.08771 
Q 82.306452 82.335194 83.129516 82.241129 
Q 83.952581 82.147065 84.281806 82.711452 
Q 84.611032 83.275839 84.705097 84.051871 
Q 84.799161 84.827903 84.705097 86.00371 
Q 84.611032 87.179516 84.469935 88.120161 
Q 84.375871 88.684548 84.328839 88.990258 
Q 84.281806 89.295968 84.234774 89.742774 
Q 84.187742 90.189581 84.187742 90.518806 
Q 84.187742 90.848032 84.187742 91.130226 
Q 84.469935 97.761774 83.011935 97.573645 
L 80.566258 95.410161 
M 75.957097 77.443839 
Q 76.568516 77.396806 76.521484 78.149323 
Q 76.474452 78.807774 76.427419 79.866 
Q 76.380387 80.924226 76.333355 81.488613 
Q 76.286323 82.053 76.004129 83.20529 
Q 75.721935 84.357581 75.251613 85.862613 
M 75.816 77.161645 
Q 76.380387 76.973516 77.509161 76.597258 
Q 78.637935 76.221 79.202323 76.056387 
Q 79.76671 75.891774 80.730871 75.750677 
Q 81.695032 75.609581 82.635677 75.609581 
L 84.705097 74.904097 
M 76.23929 69.871645 
L 81.506903 68.319581 
Q 83.294129 68.178484 83.341161 68.178484 
L 84.469935 68.178484 
L 83.482258 75.18629 
" clip-path="url(#p29d31ae183)" style="fill: none; stroke: #000000; stroke-linejoin: miter"/>
   </g>
  </g>
  <g id="axes_4">
   <g id="patch_5">
    <path d="M 126.880714 88.449107 
Q 127.227857 88.362321 127.661786 88.969821 
Q 128.095714 89.577321 128.573036 89.490536 
L 131.436964 90.792321 
M 121.543393 86.800179 
Q 124.407321 86.236071 127.423125 86.149286 
Q 130.438929 86.0625 132.586875 86.214375 
Q 134.734821 86.36625 137.728929 86.257768 
Q 140.723036 86.149286 143.630357 85.628571 
M 135.4725 83.892857 
L 135.212143 96.129643 
L 133.780179 94.26375 
M 138.596786 68.097857 
Q 139.160893 68.531786 140.137232 69.681696 
Q 141.113571 70.831607 141.590893 71.265536 
M 132.391607 67.23 
L 132.478393 84.804107 
M 127.87875 71.048571 
L 136.38375 70.57125 
M 128.529643 80.811964 
L 136.774286 80.161071 
M 128.48625 77.383929 
L 136.513929 76.863214 
M 125.44875 74.303036 
Q 127.314643 73.825714 129.484286 73.60875 
Q 131.653929 73.391786 134.344286 73.283304 
Q 137.034643 73.174821 138.466607 73.00125 
Q 138.466607 73.00125 140.158929 73.00125 
Q 140.289107 73.00125 140.289107 73.478571 
Q 140.289107 78.338571 139.291071 81.81 
L 138.640179 83.545714 
M 125.44875 73.478571 
L 125.44875 74.303036 
L 125.44875 76.516071 
L 126.099643 82.981607 
M 111.519643 78.381964 
Q 112.257321 77.86125 115.815536 77.470714 
L 122.845179 77.340536 
M 117.377679 68.358214 
L 117.377679 88.275536 
L 117.204107 95.912679 
" clip-path="url(#p8aa4c92bb9)" style="fill: none; stroke: #000000; stroke-linejoin: miter"/>
   </g>
  </g>
  <g id="axes_5">
   <g id="patch_6">
    <path d="M 165.079397 94.597386 
Q 165.079397 94.597386 163.30801 94.597386 
Q 161.030514 94.597386 159.63871 96.326597 
Q 158.246907 98.055807 158.246907 100.417655 
Q 158.162555 102.779503 159.807414 104.086955 
Q 161.452272 105.394407 163.814121 104.972648 
Q 164.488934 104.888297 165.585507 104.803945 
Q 166.682079 104.719593 167.272541 104.635241 
Q 167.863003 104.55089 168.579993 104.213483 
Q 169.296983 103.876076 169.592214 103.074734 
Q 169.887445 102.273393 169.887445 100.923766 
Q 169.887445 100.333303 169.63439 99.742841 
Q 169.381334 99.152379 168.959576 98.43539 
Q 168.537817 97.7184 168.369114 97.380993 
L 165.838562 95.862662 
" clip-path="url(#p20abe97dbc)" style="fill: none; stroke: #000000; stroke-linejoin: miter"/>
   </g>
  </g>
 </g>
 <defs>
  <clipPath id="p6fea0ab2a7">
   <rect x="0" y="41.846833" width="36.45" height="77.496334"/>
  </clipPath>
  <clipPath id="pcbd26c8ac6">
   <rect x="36.45" y="54.06262" width="36.45" height="53.064759"/>
  </clipPath>
  <clipPath id="p29d31ae183">
   <rect x="72.9" y="46.496613" width="36.45" height="68.196774"/>
  </clipPath>
  <clipPath id="p8aa4c92bb9">
   <rect x="109.35" y="49.135179" width="36.45" height="62.919643"/>
  </clipPath>
  <clipPath id="p20abe97dbc">
   <rect x="153.944969" y="19.44" width="20.160062" height="122.31"/>
  </clipPath>
 </defs>
</svg>
