<?xml version="1.0" encoding="utf-8" standalone="no"?>
<!DOCTYPE svg PUBLIC "-//W3C//DTD SVG 1.1//EN"
  "http://www.w3.org/Graphics/SVG/1.1/DTD/svg11.dtd">
<svg xmlns:xlink="http://www.w3.org/1999/xlink" width="756pt" height="72pt" viewBox="0 0 756 72" xmlns="http://www.w3.org/2000/svg" version="1.1">
 <metadata>
  <rdf:RDF xmlns:dc="http://purl.org/dc/elements/1.1/" xmlns:cc="http://creativecommons.org/ns#" xmlns:rdf="http://www.w3.org/1999/02/22-rdf-syntax-ns#">
   <cc:Work>
    <dc:type rdf:resource="http://purl.org/dc/dcmitype/StillImage"/>
    <dc:date>2023-02-15T23:04:11.813285</dc:date>
    <dc:format>image/svg+xml</dc:format>
    <dc:creator>
     <cc:Agent>
      <dc:title>Matplotlib v3.6.1, https://matplotlib.org/</dc:title>
     </cc:Agent>
    </dc:creator>
   </cc:Work>
  </rdf:RDF>
 </metadata>
 <defs>
  <style type="text/css">*{stroke-linejoin: round; stroke-linecap: butt}</style>
 </defs>
 <g id="figure_1">
  <g id="patch_1">
   <path d="M 0 72 
L 756 72 
L 756 0 
L 0 0 
z
" style="fill: #8fff9f"/>
  </g>
  <g id="axes_1">
   <g id="patch_2">
    <path d="M 3.638731 37.282097 
L 3.638731 37.844441 
Q 3.901159 39.868883 3.938648 41.312234 
Q 3.976138 42.755586 3.882414 44.667559 
Q 3.78869 46.579531 3.78869 48.191586 
L 3.863669 39.643945 
Q 3.863669 38.144359 5.456979 37.507034 
Q 7.05029 36.86971 8.474897 37.282097 
Q 10.386869 37.844441 11.305366 39.04411 
Q 12.223862 40.243779 12.280097 41.668386 
Q 12.336331 43.092993 12.373821 44.817517 
Q 12.41131 46.542041 12.561269 48.191586 
" clip-path="url(#pc24c0dcb9e)" style="fill: none; stroke: #000000; stroke-linejoin: miter"/>
   </g>
  </g>
  <g id="axes_2">
   <g id="patch_3">
    <path d="M 27.5616 35.032717 
Q 26.51189 34.582841 25.537159 34.69531 
Q 22.500497 35.032717 20.588524 36.701007 
Q 18.676552 38.369297 18.676552 41.330979 
Q 18.676552 43.917766 20.682248 45.6048 
Q 22.687945 47.291834 25.312221 47.291834 
Q 27.674069 47.291834 28.798759 45.361117 
Q 29.923448 43.4304 29.923448 40.881103 
Q 29.923448 39.643945 29.511062 38.706703 
Q 29.098676 37.769462 28.573821 37.300841 
Q 28.048966 36.832221 27.299172 36.119917 
Q 26.549379 35.407614 26.099503 34.69531 
L 24.862345 34.245434 
" clip-path="url(#p18e662619e)" style="fill: none; stroke: #000000; stroke-linejoin: miter"/>
   </g>
  </g>
  <g id="axes_3">
   <g id="patch_4">
    <path d="M 44.099007 39.568966 
Q 42.749379 38.181848 40.5 38.444276 
Q 37.650786 38.444276 36.488607 39.793903 
Q 35.326428 41.143531 35.326428 44.067724 
Q 35.326428 45.56731 36.619821 46.279614 
Q 37.913214 46.991917 39.487779 46.991917 
Q 40.799917 46.991917 41.812138 45.736014 
Q 42.824359 44.48011 43.405448 42.30571 
Q 43.986538 40.13131 44.361434 37.938166 
Q 44.736331 35.745021 44.88629 33.045766 
Q 45.036248 30.34651 45.073738 28.978138 
Q 45.111228 27.609766 45.111228 26.185159 
Q 44.88629 26.260138 44.88629 29.896634 
L 44.88629 44.292662 
L 45.673572 48.229076 
" clip-path="url(#p2146f3102e)" style="fill: none; stroke: #000000; stroke-linejoin: miter"/>
   </g>
  </g>
  <g id="axes_4">
   <g id="patch_5">
    <path d="M 60.299007 39.568966 
Q 58.949379 38.181848 56.7 38.444276 
Q 53.850786 38.444276 52.688607 39.793903 
Q 51.526428 41.143531 51.526428 44.067724 
Q 51.526428 45.56731 52.819821 46.279614 
Q 54.113214 46.991917 55.687779 46.991917 
Q 56.999917 46.991917 58.012138 45.736014 
Q 59.024359 44.48011 59.605448 42.30571 
Q 60.186538 40.13131 60.561434 37.938166 
Q 60.936331 35.745021 61.08629 33.045766 
Q 61.236248 30.34651 61.273738 28.978138 
Q 61.311228 27.609766 61.311228 26.185159 
Q 61.08629 26.260138 61.08629 29.896634 
L 61.08629 44.292662 
L 61.873572 48.229076 
" clip-path="url(#p856363a858)" style="fill: none; stroke: #000000; stroke-linejoin: miter"/>
   </g>
  </g>
  <g id="axes_5">
   <g id="patch_6">
    <path d="M 66.657798 38.160826 
Q 69.630275 39.535596 74.349083 39.721376 
Q 75.872477 39.721376 76.559862 38.550963 
Q 77.247248 37.38055 77.247248 35.82 
Q 77.247248 35.299817 77.154358 34.909679 
Q 77.061468 34.519541 76.819954 34.296606 
Q 76.57844 34.07367 76.411239 33.943624 
Q 76.244037 33.813578 75.798165 33.757844 
Q 75.352294 33.70211 75.147936 33.683532 
Q 74.943578 33.664954 74.367661 33.683532 
Q 73.791743 33.70211 73.568807 33.70211 
Q 71.525229 33.70211 70.038991 35.578486 
Q 68.552752 37.454862 68.552752 39.609908 
Q 68.552752 42.619541 70.484862 44.570229 
Q 72.416972 46.520917 75.463761 46.520917 
Q 77.618807 46.818165 79.142202 44.29156 
" clip-path="url(#pb366c37a78)" style="fill: none; stroke: #000000; stroke-linejoin: miter"/>
   </g>
  </g>
  <g id="axes_6">
   <g id="patch_7">
    <path d="M 92.699007 39.568966 
Q 91.349379 38.181848 89.1 38.444276 
Q 86.250786 38.444276 85.088607 39.793903 
Q 83.926428 41.143531 83.926428 44.067724 
Q 83.926428 45.56731 85.219821 46.279614 
Q 86.513214 46.991917 88.087779 46.991917 
Q 89.399917 46.991917 90.412138 45.736014 
Q 91.424359 44.48011 92.005448 42.30571 
Q 92.586538 40.13131 92.961434 37.938166 
Q 93.336331 35.745021 93.48629 33.045766 
Q 93.636248 30.34651 93.673738 28.978138 
Q 93.711228 27.609766 93.711228 26.185159 
Q 93.48629 26.260138 93.48629 29.896634 
L 93.48629 44.292662 
L 94.273572 48.229076 
" clip-path="url(#pacf5325fa0)" style="fill: none; stroke: #000000; stroke-linejoin: miter"/>
   </g>
  </g>
  <g id="axes_7">
   <g id="patch_8">
    <path d="M 104.587697 39.981352 
Q 105.599917 40.956083 105.937324 42.905545 
Q 106.124772 43.955255 105.712386 46.167145 
L 104.475228 47.629241 
" clip-path="url(#pdd38cbd1a3)" style="fill: none; stroke: #000000; stroke-linejoin: miter"/>
   </g>
  </g>
  <g id="axes_8"/>
  <g id="axes_9">
   <g id="patch_9">
    <path d="M 138.318579 29.071862 
Q 137.943683 29.146841 137.812469 29.577972 
Q 137.681255 30.009103 137.756234 30.42149 
Q 137.756234 30.571448 137.793724 30.702662 
Q 137.831214 30.833876 137.887448 30.89011 
Q 137.943683 30.946345 137.999917 31.040069 
Q 138.056152 31.133793 138.093641 31.208772 
L 138.20611 29.859145 
M 138.20611 34.020497 
Q 137.306359 39.006621 137.081421 42.793076 
L 137.531297 45.379862 
L 137.868703 46.054676 
" clip-path="url(#p55ab810db7)" style="fill: none; stroke: #000000; stroke-linejoin: miter"/>
   </g>
  </g>
  <g id="axes_10">
   <g id="patch_10">
    <path d="M 149.438731 37.282097 
L 149.438731 37.844441 
Q 149.701159 39.868883 149.738648 41.312234 
Q 149.776138 42.755586 149.682414 44.667559 
Q 149.58869 46.579531 149.58869 48.191586 
L 149.663669 39.643945 
Q 149.663669 38.144359 151.256979 37.507034 
Q 152.85029 36.86971 154.274897 37.282097 
Q 156.186869 37.844441 157.105366 39.04411 
Q 158.023862 40.243779 158.080097 41.668386 
Q 158.136331 43.092993 158.173821 44.817517 
Q 158.21131 46.542041 158.361269 48.191586 
" clip-path="url(#p044558d991)" style="fill: none; stroke: #000000; stroke-linejoin: miter"/>
   </g>
  </g>
  <g id="axes_11">
   <g id="patch_11">
    <path d="M 173.699007 39.568966 
Q 172.349379 38.181848 170.1 38.444276 
Q 167.250786 38.444276 166.088607 39.793903 
Q 164.926428 41.143531 164.926428 44.067724 
Q 164.926428 45.56731 166.219821 46.279614 
Q 167.513214 46.991917 169.087779 46.991917 
Q 170.399917 46.991917 171.412138 45.736014 
Q 172.424359 44.48011 173.005448 42.30571 
Q 173.586538 40.13131 173.961434 37.938166 
Q 174.336331 35.745021 174.48629 33.045766 
Q 174.636248 30.34651 174.673738 28.978138 
Q 174.711228 27.609766 174.711228 26.185159 
Q 174.48629 26.260138 174.48629 29.896634 
L 174.48629 44.292662 
L 175.273572 48.229076 
" clip-path="url(#pe343d2b1c8)" style="fill: none; stroke: #000000; stroke-linejoin: miter"/>
   </g>
  </g>
  <g id="axes_12">
   <g id="patch_12">
    <path d="M 186.918579 29.071862 
Q 186.543683 29.146841 186.412469 29.577972 
Q 186.281255 30.009103 186.356234 30.42149 
Q 186.356234 30.571448 186.393724 30.702662 
Q 186.431214 30.833876 186.487448 30.89011 
Q 186.543683 30.946345 186.599917 31.040069 
Q 186.656152 31.133793 186.693641 31.208772 
L 186.80611 29.859145 
M 186.80611 34.020497 
Q 185.906359 39.006621 185.681421 42.793076 
L 186.131297 45.379862 
L 186.468703 46.054676 
" clip-path="url(#p857ab23300)" style="fill: none; stroke: #000000; stroke-linejoin: miter"/>
   </g>
  </g>
  <g id="axes_13">
   <g id="patch_13">
    <path d="M 207.756735 34.365306 
Q 207.756735 34.365306 207.260816 34.365306 
Q 206.467347 34.365306 204.979592 34.067755 
Q 203.491837 33.770204 202.698367 33.770204 
Q 199.921224 33.770204 197.987143 35.224898 
Q 196.053061 36.679592 196.053061 39.423673 
Q 196.053061 40.94449 197.540816 42.399184 
Q 199.028571 43.853878 200.962653 44.663878 
Q 202.896735 45.473878 204.38449 45.473878 
Q 205.310204 45.473878 206.00449 45.110204 
Q 206.698776 44.746531 207.442653 44.118367 
Q 208.186531 43.490204 208.748571 43.192653 
L 208.946939 42.696735 
" clip-path="url(#p82ce45ecd3)" style="fill: none; stroke: #000000; stroke-linejoin: miter"/>
   </g>
  </g>
  <g id="axes_14">
   <g id="patch_14">
    <path d="M 224.243923 36.441748 
Q 223.034968 35.094627 219.062687 35.094627 
Q 217.542857 35.094627 216.765672 35.146439 
Q 215.988486 35.198252 214.98678 35.440043 
Q 213.985075 35.681834 213.501493 36.182687 
Q 213.01791 36.683539 212.672495 37.616162 
Q 212.327079 38.548785 212.327079 39.964989 
Q 212.327079 42.037484 213.743284 43.280981 
Q 215.159488 44.524478 217.093817 44.524478 
Q 219.753518 44.524478 222.516844 38.721493 
Q 223.863966 35.854542 223.863966 35.82 
Q 224.209382 35.578209 224.243923 36.441748 
Q 224.243923 37.512537 224.658422 40.362217 
Q 225.072921 43.211898 225.072921 44.524478 
" clip-path="url(#p1b2ebefab8)" style="fill: none; stroke: #000000; stroke-linejoin: miter"/>
   </g>
  </g>
  <g id="axes_15">
   <g id="patch_15">
    <path d="M 230.063834 37.95691 
L 230.738648 37.95691 
Q 231.450952 37.95691 232.238234 37.881931 
Q 233.025517 37.806952 233.981503 37.675738 
Q 234.93749 37.544524 235.462345 37.507034 
L 239.736166 35.82 
M 235.687283 30.42149 
L 235.687283 31.43371 
Q 235.687283 33.383172 235.012469 37.207117 
Q 234.337655 41.031062 234.337655 43.018014 
Q 234.337655 43.805297 234.337655 44.105214 
Q 234.337655 44.405131 234.431379 45.042455 
Q 234.525103 45.679779 234.712552 45.960952 
Q 234.9 46.242124 235.293641 46.485807 
Q 235.687283 46.72949 236.249628 46.72949 
Q 236.362097 46.692 236.680759 46.72949 
Q 236.999421 46.766979 237.186869 46.710745 
Q 237.374317 46.65451 237.374317 46.392083 
" clip-path="url(#pe09cb4bb02)" style="fill: none; stroke: #000000; stroke-linejoin: miter"/>
   </g>
  </g>
  <g id="axes_16">
   <g id="patch_16">
    <path d="M 251.718579 29.071862 
Q 251.343683 29.146841 251.212469 29.577972 
Q 251.081255 30.009103 251.156234 30.42149 
Q 251.156234 30.571448 251.193724 30.702662 
Q 251.231214 30.833876 251.287448 30.89011 
Q 251.343683 30.946345 251.399917 31.040069 
Q 251.456152 31.133793 251.493641 31.208772 
L 251.60611 29.859145 
M 251.60611 34.020497 
Q 250.706359 39.006621 250.481421 42.793076 
L 250.931297 45.379862 
L 251.268703 46.054676 
" clip-path="url(#p5841a488c1)" style="fill: none; stroke: #000000; stroke-linejoin: miter"/>
   </g>
  </g>
  <g id="axes_17">
   <g id="patch_17">
    <path d="M 262.838731 37.282097 
L 262.838731 37.844441 
Q 263.101159 39.868883 263.138648 41.312234 
Q 263.176138 42.755586 263.082414 44.667559 
Q 262.98869 46.579531 262.98869 48.191586 
L 263.063669 39.643945 
Q 263.063669 38.144359 264.656979 37.507034 
Q 266.25029 36.86971 267.674897 37.282097 
Q 269.586869 37.844441 270.505366 39.04411 
Q 271.423862 40.243779 271.480097 41.668386 
Q 271.536331 43.092993 271.573821 44.817517 
Q 271.61131 46.542041 271.761269 48.191586 
" clip-path="url(#p91506707f0)" style="fill: none; stroke: #000000; stroke-linejoin: miter"/>
   </g>
  </g>
  <g id="axes_18">
   <g id="patch_18">
    <path d="M 288.287191 39.096404 
Q 288.03236 39.023596 287.06764 38.623146 
Q 286.102921 38.222697 285.44764 38.077079 
Q 284.79236 37.931461 284.137079 38.00427 
Q 281.515955 38.00427 279.877753 40.388764 
Q 278.239551 42.773258 278.239551 45.430787 
Q 278.239551 47.068989 283.481798 47.068989 
Q 285.047191 47.068989 286.375955 45.558202 
Q 287.704719 44.047416 288.378202 42.172584 
Q 289.051685 40.297753 289.051685 38.768764 
Q 289.051685 37.27618 289.015281 36.984944 
L 288.942472 38.077079 
Q 288.942472 38.550337 288.942472 38.987191 
Q 288.978876 40.188539 289.179101 42.281798 
Q 289.379326 44.375056 289.543146 46.049663 
Q 289.706966 47.72427 289.743371 49.872135 
Q 289.779775 52.02 289.615955 53.658202 
Q 289.452135 55.296404 288.887865 56.971011 
Q 288.323596 58.645618 287.395281 59.737753 
Q 286.466966 60.829888 284.865169 61.521573 
Q 283.263371 62.213258 281.115506 62.213258 
Q 279.477303 62.213258 278.385169 61.466966 
Q 277.293034 60.720674 277.293034 59.155281 
Q 277.220225 58.936854 277.256629 58.936854 
Q 277.293034 58.936854 277.402247 58.936854 
Q 277.511461 58.936854 277.511461 58.82764 
" clip-path="url(#p90d2ab8392)" style="fill: none; stroke: #000000; stroke-linejoin: miter"/>
   </g>
  </g>
  <g id="axes_19"/>
  <g id="axes_20">
   <g id="patch_19">
    <path d="M 311.063834 37.95691 
L 311.738648 37.95691 
Q 312.450952 37.95691 313.238234 37.881931 
Q 314.025517 37.806952 314.981503 37.675738 
Q 315.93749 37.544524 316.462345 37.507034 
L 320.736166 35.82 
M 316.687283 30.42149 
L 316.687283 31.43371 
Q 316.687283 33.383172 316.012469 37.207117 
Q 315.337655 41.031062 315.337655 43.018014 
Q 315.337655 43.805297 315.337655 44.105214 
Q 315.337655 44.405131 315.431379 45.042455 
Q 315.525103 45.679779 315.712552 45.960952 
Q 315.9 46.242124 316.293641 46.485807 
Q 316.687283 46.72949 317.249628 46.72949 
Q 317.362097 46.692 317.680759 46.72949 
Q 317.999421 46.766979 318.186869 46.710745 
Q 318.374317 46.65451 318.374317 46.392083 
" clip-path="url(#pf9d50964b8)" style="fill: none; stroke: #000000; stroke-linejoin: miter"/>
   </g>
  </g>
  <g id="axes_21">
   <g id="patch_20">
    <path d="M 328.613462 35.932469 
Q 329.213297 35.257655 330.206772 34.826524 
Q 331.200248 34.395393 332.1 34.470372 
Q 332.737324 34.470372 333.22469 34.639076 
Q 333.712055 34.807779 334.030717 34.995228 
Q 334.349379 35.182676 334.574317 35.670041 
Q 334.799255 36.157407 334.911724 36.419834 
Q 335.024193 36.682262 335.080428 37.375821 
Q 335.136662 38.069379 335.155407 38.331807 
Q 335.174152 38.594234 335.155407 39.419007 
Q 335.136662 40.243779 335.136662 40.431228 
Q 335.136662 41.368469 334.967959 43.242952 
Q 334.799255 45.117434 334.799255 46.054676 
Q 334.799255 46.467062 334.85549 46.823214 
Q 334.911724 47.179366 335.005448 47.610497 
Q 335.099172 48.041628 335.136662 48.304055 
L 335.586538 48.528993 
M 329.063338 23.111007 
Q 329.288276 24.798041 329.288276 29.971614 
L 329.288276 42.3432 
L 328.950869 46.841959 
L 328.725931 47.74171 
" clip-path="url(#p732559ad7d)" style="fill: none; stroke: #000000; stroke-linejoin: miter"/>
   </g>
  </g>
  <g id="axes_22">
   <g id="patch_21">
    <path d="M 353.843923 36.441748 
Q 352.634968 35.094627 348.662687 35.094627 
Q 347.142857 35.094627 346.365672 35.146439 
Q 345.588486 35.198252 344.58678 35.440043 
Q 343.585075 35.681834 343.101493 36.182687 
Q 342.61791 36.683539 342.272495 37.616162 
Q 341.927079 38.548785 341.927079 39.964989 
Q 341.927079 42.037484 343.343284 43.280981 
Q 344.759488 44.524478 346.693817 44.524478 
Q 349.353518 44.524478 352.116844 38.721493 
Q 353.463966 35.854542 353.463966 35.82 
Q 353.809382 35.578209 353.843923 36.441748 
Q 353.843923 37.512537 354.258422 40.362217 
Q 354.672921 43.211898 354.672921 44.524478 
" clip-path="url(#pcc247106c7)" style="fill: none; stroke: #000000; stroke-linejoin: miter"/>
   </g>
  </g>
  <g id="axes_23">
   <g id="patch_22">
    <path d="M 359.663834 37.95691 
L 360.338648 37.95691 
Q 361.050952 37.95691 361.838234 37.881931 
Q 362.625517 37.806952 363.581503 37.675738 
Q 364.53749 37.544524 365.062345 37.507034 
L 369.336166 35.82 
M 365.287283 30.42149 
L 365.287283 31.43371 
Q 365.287283 33.383172 364.612469 37.207117 
Q 363.937655 41.031062 363.937655 43.018014 
Q 363.937655 43.805297 363.937655 44.105214 
Q 363.937655 44.405131 364.031379 45.042455 
Q 364.125103 45.679779 364.312552 45.960952 
Q 364.5 46.242124 364.893641 46.485807 
Q 365.287283 46.72949 365.849628 46.72949 
Q 365.962097 46.692 366.280759 46.72949 
Q 366.599421 46.766979 366.786869 46.710745 
Q 366.974317 46.65451 366.974317 46.392083 
" clip-path="url(#p768b038418)" style="fill: none; stroke: #000000; stroke-linejoin: miter"/>
   </g>
  </g>
  <g id="axes_24"/>
  <g id="axes_25">
   <g id="patch_23">
    <path d="M 392.457476 43.917766 
Q 392.757393 44.180193 393.769614 45.154924 
Q 394.781834 46.129655 395.344179 46.560786 
Q 395.906524 46.991917 396.93749 47.385559 
Q 397.968455 47.7792 398.980676 47.629241 
Q 399.65549 47.629241 400.12411 47.404303 
Q 400.592731 47.179366 400.817669 46.879448 
Q 401.042607 46.579531 401.173821 45.979697 
Q 401.305034 45.379862 401.323779 44.967476 
Q 401.342524 44.55509 401.342524 43.805297 
Q 401.342524 42.718097 400.442772 42.043283 
Q 399.543021 41.368469 398.249628 41.031062 
Q 396.956234 40.693655 395.662841 40.300014 
Q 394.369448 39.906372 393.469697 38.987876 
Q 392.569945 38.069379 392.569945 36.607283 
Q 392.569945 36.082428 392.738648 35.726276 
Q 392.907352 35.370124 393.300993 35.145186 
Q 393.694634 34.920248 393.975807 34.807779 
Q 394.256979 34.69531 394.913048 34.639076 
Q 395.569117 34.582841 395.756566 34.582841 
Q 395.944014 34.582841 396.618828 34.582841 
Q 397.818497 34.582841 398.399586 34.995228 
Q 398.980676 35.407614 399.299338 36.026193 
Q 399.618 36.644772 399.880428 36.832221 
" clip-path="url(#p63ba977dcd)" style="fill: none; stroke: #000000; stroke-linejoin: miter"/>
   </g>
  </g>
  <g id="axes_26">
   <g id="patch_24">
    <path d="M 409.613462 35.932469 
Q 410.213297 35.257655 411.206772 34.826524 
Q 412.200248 34.395393 413.1 34.470372 
Q 413.737324 34.470372 414.22469 34.639076 
Q 414.712055 34.807779 415.030717 34.995228 
Q 415.349379 35.182676 415.574317 35.670041 
Q 415.799255 36.157407 415.911724 36.419834 
Q 416.024193 36.682262 416.080428 37.375821 
Q 416.136662 38.069379 416.155407 38.331807 
Q 416.174152 38.594234 416.155407 39.419007 
Q 416.136662 40.243779 416.136662 40.431228 
Q 416.136662 41.368469 415.967959 43.242952 
Q 415.799255 45.117434 415.799255 46.054676 
Q 415.799255 46.467062 415.85549 46.823214 
Q 415.911724 47.179366 416.005448 47.610497 
Q 416.099172 48.041628 416.136662 48.304055 
L 416.586538 48.528993 
M 410.063338 23.111007 
Q 410.288276 24.798041 410.288276 29.971614 
L 410.288276 42.3432 
L 409.950869 46.841959 
L 409.725931 47.74171 
" clip-path="url(#p2d0b8a6c68)" style="fill: none; stroke: #000000; stroke-linejoin: miter"/>
   </g>
  </g>
  <g id="axes_27">
   <g id="patch_25">
    <path d="M 423.057798 38.160826 
Q 426.030275 39.535596 430.749083 39.721376 
Q 432.272477 39.721376 432.959862 38.550963 
Q 433.647248 37.38055 433.647248 35.82 
Q 433.647248 35.299817 433.554358 34.909679 
Q 433.461468 34.519541 433.219954 34.296606 
Q 432.97844 34.07367 432.811239 33.943624 
Q 432.644037 33.813578 432.198165 33.757844 
Q 431.752294 33.70211 431.547936 33.683532 
Q 431.343578 33.664954 430.767661 33.683532 
Q 430.191743 33.70211 429.968807 33.70211 
Q 427.925229 33.70211 426.438991 35.578486 
Q 424.952752 37.454862 424.952752 39.609908 
Q 424.952752 42.619541 426.884862 44.570229 
Q 428.816972 46.520917 431.863761 46.520917 
Q 434.018807 46.818165 435.542202 44.29156 
" clip-path="url(#p472176cbb2)" style="fill: none; stroke: #000000; stroke-linejoin: miter"/>
   </g>
  </g>
  <g id="axes_28"/>
  <g id="axes_29">
   <g id="patch_26">
    <path d="M 455.316102 36.437797 
L 456.551695 44.778051 
Q 456.654661 45.567458 456.654661 45.60178 
Q 456.654661 45.704746 456.963559 45.704746 
Q 457.82161 45.704746 458.542373 44.778051 
Q 459.263136 43.851356 459.675 42.718729 
Q 460.086864 41.586102 460.601695 40.659407 
Q 461.116525 39.732712 461.597034 39.732712 
Q 462.214831 39.732712 462.849788 40.607924 
Q 463.484746 41.483136 463.948093 42.512797 
Q 464.411441 43.542458 465.08072 44.417669 
Q 465.75 45.292881 466.436441 45.292881 
Q 466.711017 43.782712 467.140042 39.69839 
Q 467.569068 35.614068 468.083898 33.554746 
" clip-path="url(#p2ba6c1357a)" style="fill: none; stroke: #000000; stroke-linejoin: miter"/>
   </g>
  </g>
  <g id="axes_30">
   <g id="patch_27">
    <path d="M 483.443923 36.441748 
Q 482.234968 35.094627 478.262687 35.094627 
Q 476.742857 35.094627 475.965672 35.146439 
Q 475.188486 35.198252 474.18678 35.440043 
Q 473.185075 35.681834 472.701493 36.182687 
Q 472.21791 36.683539 471.872495 37.616162 
Q 471.527079 38.548785 471.527079 39.964989 
Q 471.527079 42.037484 472.943284 43.280981 
Q 474.359488 44.524478 476.293817 44.524478 
Q 478.953518 44.524478 481.716844 38.721493 
Q 483.063966 35.854542 483.063966 35.82 
Q 483.409382 35.578209 483.443923 36.441748 
Q 483.443923 37.512537 483.858422 40.362217 
Q 484.272921 43.211898 484.272921 44.524478 
" clip-path="url(#p1d2313d3c0)" style="fill: none; stroke: #000000; stroke-linejoin: miter"/>
   </g>
  </g>
  <g id="axes_31">
   <g id="patch_28">
    <path d="M 489.657476 43.917766 
Q 489.957393 44.180193 490.969614 45.154924 
Q 491.981834 46.129655 492.544179 46.560786 
Q 493.106524 46.991917 494.13749 47.385559 
Q 495.168455 47.7792 496.180676 47.629241 
Q 496.85549 47.629241 497.32411 47.404303 
Q 497.792731 47.179366 498.017669 46.879448 
Q 498.242607 46.579531 498.373821 45.979697 
Q 498.505034 45.379862 498.523779 44.967476 
Q 498.542524 44.55509 498.542524 43.805297 
Q 498.542524 42.718097 497.642772 42.043283 
Q 496.743021 41.368469 495.449628 41.031062 
Q 494.156234 40.693655 492.862841 40.300014 
Q 491.569448 39.906372 490.669697 38.987876 
Q 489.769945 38.069379 489.769945 36.607283 
Q 489.769945 36.082428 489.938648 35.726276 
Q 490.107352 35.370124 490.500993 35.145186 
Q 490.894634 34.920248 491.175807 34.807779 
Q 491.456979 34.69531 492.113048 34.639076 
Q 492.769117 34.582841 492.956566 34.582841 
Q 493.144014 34.582841 493.818828 34.582841 
Q 495.018497 34.582841 495.599586 34.995228 
Q 496.180676 35.407614 496.499338 36.026193 
Q 496.818 36.644772 497.080428 36.832221 
" clip-path="url(#p9a3ce55542)" style="fill: none; stroke: #000000; stroke-linejoin: miter"/>
   </g>
  </g>
  <g id="axes_32"/>
  <g id="axes_33">
   <g id="patch_29">
    <path d="M 520.116102 36.437797 
L 521.351695 44.778051 
Q 521.454661 45.567458 521.454661 45.60178 
Q 521.454661 45.704746 521.763559 45.704746 
Q 522.62161 45.704746 523.342373 44.778051 
Q 524.063136 43.851356 524.475 42.718729 
Q 524.886864 41.586102 525.401695 40.659407 
Q 525.916525 39.732712 526.397034 39.732712 
Q 527.014831 39.732712 527.649788 40.607924 
Q 528.284746 41.483136 528.748093 42.512797 
Q 529.211441 43.542458 529.88072 44.417669 
Q 530.55 45.292881 531.236441 45.292881 
Q 531.511017 43.782712 531.940042 39.69839 
Q 532.369068 35.614068 532.883898 33.554746 
" clip-path="url(#p76117257ac)" style="fill: none; stroke: #000000; stroke-linejoin: miter"/>
   </g>
  </g>
  <g id="axes_34">
   <g id="patch_30">
    <path d="M 543.318579 29.071862 
Q 542.943683 29.146841 542.812469 29.577972 
Q 542.681255 30.009103 542.756234 30.42149 
Q 542.756234 30.571448 542.793724 30.702662 
Q 542.831214 30.833876 542.887448 30.89011 
Q 542.943683 30.946345 542.999917 31.040069 
Q 543.056152 31.133793 543.093641 31.208772 
L 543.20611 29.859145 
M 543.20611 34.020497 
Q 542.306359 39.006621 542.081421 42.793076 
L 542.531297 45.379862 
L 542.868703 46.054676 
" clip-path="url(#p1ccec23153)" style="fill: none; stroke: #000000; stroke-linejoin: miter"/>
   </g>
  </g>
  <g id="axes_35">
   <g id="patch_31">
    <path d="M 558.506359 28.621986 
Q 558.731297 30.34651 558.806276 32.146014 
Q 558.881255 33.945517 558.86251 36.551048 
Q 558.843766 39.156579 558.843766 40.093821 
Q 558.843766 40.13131 559.068703 45.829738 
L 559.293641 46.841959 
" clip-path="url(#pbc15ade825)" style="fill: none; stroke: #000000; stroke-linejoin: miter"/>
   </g>
  </g>
  <g id="axes_36">
   <g id="patch_32">
    <path d="M 574.706359 28.621986 
Q 574.931297 30.34651 575.006276 32.146014 
Q 575.081255 33.945517 575.06251 36.551048 
Q 575.043766 39.156579 575.043766 40.093821 
Q 575.043766 40.13131 575.268703 45.829738 
L 575.493641 46.841959 
" clip-path="url(#pb35499e996)" style="fill: none; stroke: #000000; stroke-linejoin: miter"/>
   </g>
  </g>
  <g id="axes_37">
   <g id="patch_33">
    <path d="M 591.918579 29.071862 
Q 591.543683 29.146841 591.412469 29.577972 
Q 591.281255 30.009103 591.356234 30.42149 
Q 591.356234 30.571448 591.393724 30.702662 
Q 591.431214 30.833876 591.487448 30.89011 
Q 591.543683 30.946345 591.599917 31.040069 
Q 591.656152 31.133793 591.693641 31.208772 
L 591.80611 29.859145 
M 591.80611 34.020497 
Q 590.906359 39.006621 590.681421 42.793076 
L 591.131297 45.379862 
L 591.468703 46.054676 
" clip-path="url(#p9a906c694c)" style="fill: none; stroke: #000000; stroke-linejoin: miter"/>
   </g>
  </g>
  <g id="axes_38">
   <g id="patch_34">
    <path d="M 603.038731 37.282097 
L 603.038731 37.844441 
Q 603.301159 39.868883 603.338648 41.312234 
Q 603.376138 42.755586 603.282414 44.667559 
Q 603.18869 46.579531 603.18869 48.191586 
L 603.263669 39.643945 
Q 603.263669 38.144359 604.856979 37.507034 
Q 606.45029 36.86971 607.874897 37.282097 
Q 609.786869 37.844441 610.705366 39.04411 
Q 611.623862 40.243779 611.680097 41.668386 
Q 611.736331 43.092993 611.773821 44.817517 
Q 611.81131 46.542041 611.961269 48.191586 
" clip-path="url(#pcf755dba67)" style="fill: none; stroke: #000000; stroke-linejoin: miter"/>
   </g>
  </g>
  <g id="axes_39">
   <g id="patch_35">
    <path d="M 628.487191 39.096404 
Q 628.23236 39.023596 627.26764 38.623146 
Q 626.302921 38.222697 625.64764 38.077079 
Q 624.99236 37.931461 624.337079 38.00427 
Q 621.715955 38.00427 620.077753 40.388764 
Q 618.439551 42.773258 618.439551 45.430787 
Q 618.439551 47.068989 623.681798 47.068989 
Q 625.247191 47.068989 626.575955 45.558202 
Q 627.904719 44.047416 628.578202 42.172584 
Q 629.251685 40.297753 629.251685 38.768764 
Q 629.251685 37.27618 629.215281 36.984944 
L 629.142472 38.077079 
Q 629.142472 38.550337 629.142472 38.987191 
Q 629.178876 40.188539 629.379101 42.281798 
Q 629.579326 44.375056 629.743146 46.049663 
Q 629.906966 47.72427 629.943371 49.872135 
Q 629.979775 52.02 629.815955 53.658202 
Q 629.652135 55.296404 629.087865 56.971011 
Q 628.523596 58.645618 627.595281 59.737753 
Q 626.666966 60.829888 625.065169 61.521573 
Q 623.463371 62.213258 621.315506 62.213258 
Q 619.677303 62.213258 618.585169 61.466966 
Q 617.493034 60.720674 617.493034 59.155281 
Q 617.420225 58.936854 617.456629 58.936854 
Q 617.493034 58.936854 617.602247 58.936854 
Q 617.711461 58.936854 617.711461 58.82764 
" clip-path="url(#p6959b55daf)" style="fill: none; stroke: #000000; stroke-linejoin: miter"/>
   </g>
  </g>
  <g id="axes_40"/>
  <g id="axes_41">
   <g id="patch_36">
    <path d="M 651.263834 37.95691 
L 651.938648 37.95691 
Q 652.650952 37.95691 653.438234 37.881931 
Q 654.225517 37.806952 655.181503 37.675738 
Q 656.13749 37.544524 656.662345 37.507034 
L 660.936166 35.82 
M 656.887283 30.42149 
L 656.887283 31.43371 
Q 656.887283 33.383172 656.212469 37.207117 
Q 655.537655 41.031062 655.537655 43.018014 
Q 655.537655 43.805297 655.537655 44.105214 
Q 655.537655 44.405131 655.631379 45.042455 
Q 655.725103 45.679779 655.912552 45.960952 
Q 656.1 46.242124 656.493641 46.485807 
Q 656.887283 46.72949 657.449628 46.72949 
Q 657.562097 46.692 657.880759 46.72949 
Q 658.199421 46.766979 658.386869 46.710745 
Q 658.574317 46.65451 658.574317 46.392083 
" clip-path="url(#p57baee9f1f)" style="fill: none; stroke: #000000; stroke-linejoin: miter"/>
   </g>
  </g>
  <g id="axes_42">
   <g id="patch_37">
    <path d="M 675.5616 35.032717 
Q 674.51189 34.582841 673.537159 34.69531 
Q 670.500497 35.032717 668.588524 36.701007 
Q 666.676552 38.369297 666.676552 41.330979 
Q 666.676552 43.917766 668.682248 45.6048 
Q 670.687945 47.291834 673.312221 47.291834 
Q 675.674069 47.291834 676.798759 45.361117 
Q 677.923448 43.4304 677.923448 40.881103 
Q 677.923448 39.643945 677.511062 38.706703 
Q 677.098676 37.769462 676.573821 37.300841 
Q 676.048966 36.832221 675.299172 36.119917 
Q 674.549379 35.407614 674.099503 34.69531 
L 672.862345 34.245434 
" clip-path="url(#p93cf1f53d2)" style="fill: none; stroke: #000000; stroke-linejoin: miter"/>
   </g>
  </g>
 </g>
 <defs>
  <clipPath id="pc24c0dcb9e">
   <rect x="1.764248" y="8.64" width="12.671503" height="54.36"/>
  </clipPath>
  <clipPath id="p18e662619e">
   <rect x="16.802069" y="8.64" width="14.995862" height="54.36"/>
  </clipPath>
  <clipPath id="p2146f3102e">
   <rect x="33.451945" y="8.64" width="14.09611" height="54.36"/>
  </clipPath>
  <clipPath id="p856363a858">
   <rect x="49.651945" y="8.64" width="14.09611" height="54.36"/>
  </clipPath>
  <clipPath id="pb366c37a78">
   <rect x="64.8" y="8.881927" width="16.2" height="53.876147"/>
  </clipPath>
  <clipPath id="pacf5325fa0">
   <rect x="82.051945" y="8.64" width="14.09611" height="54.36"/>
  </clipPath>
  <clipPath id="pdd38cbd1a3">
   <rect x="102.600745" y="8.64" width="5.39851" height="54.36"/>
  </clipPath>
  <clipPath id="p55ab810db7">
   <rect x="135.206938" y="8.64" width="4.986124" height="54.36"/>
  </clipPath>
  <clipPath id="p044558d991">
   <rect x="147.564248" y="8.64" width="12.671503" height="54.36"/>
  </clipPath>
  <clipPath id="pe343d2b1c8">
   <rect x="163.051945" y="8.64" width="14.09611" height="54.36"/>
  </clipPath>
  <clipPath id="p857ab23300">
   <rect x="183.806938" y="8.64" width="4.986124" height="54.36"/>
  </clipPath>
  <clipPath id="p82ce45ecd3">
   <rect x="194.4" y="11.850612" width="16.2" height="47.938776"/>
  </clipPath>
  <clipPath id="p1b2ebefab8">
   <rect x="210.6" y="10.777356" width="16.2" height="50.085288"/>
  </clipPath>
  <clipPath id="pe09cb4bb02">
   <rect x="228.189352" y="8.64" width="13.421297" height="54.36"/>
  </clipPath>
  <clipPath id="p5841a488c1">
   <rect x="248.606938" y="8.64" width="4.986124" height="54.36"/>
  </clipPath>
  <clipPath id="p91506707f0">
   <rect x="260.964248" y="8.64" width="12.671503" height="54.36"/>
  </clipPath>
  <clipPath id="p90d2ab8392">
   <rect x="275.4" y="9.426742" width="16.2" height="52.786517"/>
  </clipPath>
  <clipPath id="pf9d50964b8">
   <rect x="309.189352" y="8.64" width="13.421297" height="54.36"/>
  </clipPath>
  <clipPath id="p732559ad7d">
   <rect x="326.738979" y="8.64" width="10.722041" height="54.36"/>
  </clipPath>
  <clipPath id="pcc247106c7">
   <rect x="340.2" y="10.777356" width="16.2" height="50.085288"/>
  </clipPath>
  <clipPath id="p768b038418">
   <rect x="357.789352" y="8.64" width="13.421297" height="54.36"/>
  </clipPath>
  <clipPath id="p63ba977dcd">
   <rect x="390.582993" y="8.64" width="12.634014" height="54.36"/>
  </clipPath>
  <clipPath id="p2d0b8a6c68">
   <rect x="407.738979" y="8.64" width="10.722041" height="54.36"/>
  </clipPath>
  <clipPath id="p472176cbb2">
   <rect x="421.2" y="8.881927" width="16.2" height="53.876147"/>
  </clipPath>
  <clipPath id="p2ba6c1357a">
   <rect x="453.6" y="10.936525" width="16.2" height="49.766949"/>
  </clipPath>
  <clipPath id="p1d2313d3c0">
   <rect x="469.8" y="10.777356" width="16.2" height="50.085288"/>
  </clipPath>
  <clipPath id="p9a3ce55542">
   <rect x="487.782993" y="8.64" width="12.634014" height="54.36"/>
  </clipPath>
  <clipPath id="p76117257ac">
   <rect x="518.4" y="10.936525" width="16.2" height="49.766949"/>
  </clipPath>
  <clipPath id="p1ccec23153">
   <rect x="540.206938" y="8.64" width="4.986124" height="54.36"/>
  </clipPath>
  <clipPath id="pbc15ade825">
   <rect x="556.631876" y="8.64" width="4.536248" height="54.36"/>
  </clipPath>
  <clipPath id="pb35499e996">
   <rect x="572.831876" y="8.64" width="4.536248" height="54.36"/>
  </clipPath>
  <clipPath id="p9a906c694c">
   <rect x="588.806938" y="8.64" width="4.986124" height="54.36"/>
  </clipPath>
  <clipPath id="pcf755dba67">
   <rect x="601.164248" y="8.64" width="12.671503" height="54.36"/>
  </clipPath>
  <clipPath id="p6959b55daf">
   <rect x="615.6" y="9.426742" width="16.2" height="52.786517"/>
  </clipPath>
  <clipPath id="p57baee9f1f">
   <rect x="649.389352" y="8.64" width="13.421297" height="54.36"/>
  </clipPath>
  <clipPath id="p93cf1f53d2">
   <rect x="664.802069" y="8.64" width="14.995862" height="54.36"/>
  </clipPath>
 </defs>
</svg>
