<?xml version="1.0" encoding="utf-8" standalone="no"?>
<!DOCTYPE svg PUBLIC "-//W3C//DTD SVG 1.1//EN"
  "http://www.w3.org/Graphics/SVG/1.1/DTD/svg11.dtd">
<svg xmlns:xlink="http://www.w3.org/1999/xlink" width="283.5pt" height="162pt" viewBox="0 0 283.5 162" xmlns="http://www.w3.org/2000/svg" version="1.1">
 <metadata>
  <rdf:RDF xmlns:dc="http://purl.org/dc/elements/1.1/" xmlns:cc="http://creativecommons.org/ns#" xmlns:rdf="http://www.w3.org/1999/02/22-rdf-syntax-ns#">
   <cc:Work>
    <dc:type rdf:resource="http://purl.org/dc/dcmitype/StillImage"/>
    <dc:date>2023-02-15T23:03:58.456578</dc:date>
    <dc:format>image/svg+xml</dc:format>
    <dc:creator>
     <cc:Agent>
      <dc:title>Matplotlib v3.6.1, https://matplotlib.org/</dc:title>
     </cc:Agent>
    </dc:creator>
   </cc:Work>
  </rdf:RDF>
 </metadata>
 <defs>
  <style type="text/css">*{stroke-linejoin: round; stroke-linecap: butt}</style>
 </defs>
 <g id="figure_1">
  <g id="patch_1">
   <path d="M 0 162 
L 283.5 162 
L 283.5 0 
L 0 0 
z
" style="fill: #8fff9f"/>
  </g>
  <g id="axes_1">
   <g id="patch_2">
    <path d="M 3.057886 92.214966 
L 33.392114 89.585185 
M 16.87953 84.87604 
Q 18.897735 90.441393 18.530789 100.287785 
Q 18.347315 102.244832 17.735738 102.244832 
Q 17.246477 102.244832 15.595218 100.104312 
Q 13.821644 97.596846 12.843121 97.352215 
M 12.659648 80.839631 
L 13.39354 80.839631 
Q 14.066275 80.839631 16.390268 80.442106 
Q 18.714262 80.044581 20.732466 79.616477 
L 22.750671 79.188372 
Q 22.750671 79.983423 22.077936 81.175998 
Q 21.405201 82.368574 20.36552 83.775201 
Q 19.325839 85.181829 19.081208 85.609933 
L 18.163842 86.894245 
M 16.390268 66.773356 
Q 18.041527 67.751879 21.313465 71.176711 
Q 24.585403 74.601544 27.031711 75.580067 
L 31.435067 77.414799 
M 16.573742 66.956829 
L 16.206795 66.956829 
Q 15.53406 67.629564 13.638171 69.953557 
Q 11.742282 72.27755 10.243918 73.500705 
Q 8.745554 74.723859 6.849664 75.213121 
L 4.464513 76.680906 
L 3.180201 77.047852 
M 8.133977 68.057668 
Q 12.904279 66.956829 21.894463 66.222936 
Q 22.811829 66.039463 24.64656 65.733674 
Q 26.481292 65.427886 27.215185 65.30557 
M 16.940688 62.920419 
L 16.940688 77.047852 
" clip-path="url(#pa212b158b3)" style="fill: none; stroke: #000000; stroke-linejoin: miter"/>
   </g>
  </g>
  <g id="axes_2">
   <g id="patch_3">
    <path d="M 43.065707 100.060445 
Q 43.829058 99.869607 45.514791 99.869607 
Q 47.200524 99.869607 48.027487 99.67877 
L 65.393717 99.297094 
M 44.210733 93.190288 
L 44.592408 93.190288 
Q 46.62801 93.190288 49.140707 92.872225 
Q 51.653403 92.554162 54.802225 92.013455 
Q 57.951047 91.472749 59.477749 91.281911 
L 62.531152 91.091073 
M 44.783246 88.801021 
Q 47.136911 87.910445 52.289529 87.369738 
Q 57.442147 86.829031 59.859424 85.938455 
Q 60.113874 85.938455 60.813613 85.843037 
Q 61.513351 85.747618 61.767801 85.747618 
L 63.294503 85.747618 
Q 63.421728 85.747618 63.580759 85.461361 
Q 63.739791 85.175105 63.994241 85.175105 
Q 64.185079 85.175105 64.185079 86.892644 
Q 64.185079 86.956257 63.803403 93.571963 
L 62.849215 98.533743 
M 58.141885 80.086099 
Q 58.650785 80.276937 59.63678 80.913063 
Q 60.622775 81.549188 61.195288 81.803639 
L 62.72199 83.139503 
M 57.760209 75.760445 
L 58.52356 75.760445 
Q 58.905236 75.760445 59.700393 76.110314 
Q 60.49555 76.460183 61.417932 77.00089 
Q 62.340314 77.541597 62.531152 77.668822 
L 63.867016 79.195524 
M 45.164921 81.231126 
Q 45.419372 81.358351 46.437173 81.70822 
Q 47.454974 82.058089 48.027487 82.503377 
L 50.699215 83.839241 
M 45.546597 76.778246 
L 46.309948 76.778246 
L 50.508377 78.686623 
M 54.325131 66.091335 
L 54.515969 84.602592 
M 50.126702 66.663848 
L 59.096073 65.137147 
M 40.203141 74.297356 
Q 44.337958 73.279555 52.734817 72.516204 
Q 61.131675 71.752853 65.012042 70.862277 
Q 66.284293 70.544215 67.333901 70.576021 
Q 68.383508 70.607827 69.05144 70.92589 
Q 69.719372 71.243953 69.464921 72.229948 
Q 69.210471 73.215942 67.874607 74.679031 
L 67.111257 76.969084 
M 40.393979 71.18034 
L 39.630628 79.068298 
" clip-path="url(#pbeaf94fbd8)" style="fill: none; stroke: #000000; stroke-linejoin: miter"/>
   </g>
  </g>
  <g id="axes_3">
   <g id="patch_4">
    <path d="M 97.99749 77.545772 
L 98.419691 94.199247 
L 98.466602 97.295386 
M 90.257143 78.390174 
Q 93.118726 77.686506 98.748069 77.522317 
Q 104.377413 77.358127 107.00444 76.842104 
M 89.975676 68.538822 
Q 91.852124 67.835154 96.050676 67.342587 
Q 100.249228 66.850019 101.797297 66.427819 
M 89.834942 67.835154 
L 89.834942 68.398089 
Q 89.834942 69.523958 90.046042 71.822606 
Q 90.257143 74.121255 90.257143 75.294035 
Q 90.257143 81.064112 88.920174 84.582452 
Q 87.583205 88.100792 84.346332 91.243842 
L 83.642664 91.525309 
M 75.667761 80.595 
Q 75.902317 80.454266 76.559073 80.454266 
Q 77.21583 80.454266 77.356564 80.172799 
L 85.659846 79.750598 
M 75.667761 71.025116 
Q 77.356564 70.556004 80.710714 70.509093 
Q 84.064865 70.462181 85.519112 70.180714 
Q 86.035135 69.993069 86.410425 70.039981 
Q 86.785714 70.086892 86.785714 70.743649 
L 86.785714 71.58805 
L 84.533977 79.609865 
L 84.393243 80.172799 
M 75.24556 70.743649 
Q 75.573938 70.884382 75.527027 71.658417 
Q 75.480116 72.432452 75.808494 72.713919 
L 75.949228 80.454266 
" clip-path="url(#paa8cb71c0d)" style="fill: none; stroke: #000000; stroke-linejoin: miter"/>
   </g>
  </g>
  <g id="axes_4">
   <g id="patch_5">
    <path d="M 127.179378 81.755492 
L 127.495876 88.560195 
L 127.970622 93.307663 
Q 128.656368 95.1539 130.186107 96.314392 
Q 132.61259 98.582627 137.149059 98.371628 
Q 137.360058 98.371628 138.072178 98.424378 
Q 138.784298 98.477127 139.417294 98.477127 
Q 140.050289 98.477127 140.70966 98.424378 
Q 141.36903 98.371628 141.791027 98.134255 
Q 142.213025 97.896881 142.213025 97.422135 
L 142.213025 96.63089 
L 143.162518 94.415405 
M 121.324168 81.913741 
Q 120.480174 95.734146 112.145731 97.105637 
M 112.462229 82.07199 
L 113.253473 82.07199 
Q 113.517221 82.07199 113.78097 82.07199 
Q 114.044718 82.07199 114.097467 82.01924 
Q 114.202967 81.808242 115.627207 81.438994 
L 137.307308 80.067504 
M 118.633936 76.111281 
L 131.926845 75.109038 
M 125.43864 65.192106 
L 128.445369 66.616346 
M 112.778726 70.572569 
L 118.15919 70.41432 
Q 119.266932 70.256071 121.376918 69.913198 
Q 123.486903 69.570326 125.201266 69.359327 
Q 126.91563 69.148329 128.445369 69.148329 
L 133.984081 69.148329 
Q 135.144573 69.148329 138.124928 68.963705 
Q 141.105282 68.779081 141.105282 68.515333 
Q 141.105282 68.726331 140.577786 69.517576 
Q 140.050289 70.308821 139.94479 70.41432 
L 138.098553 72.313307 
M 114.519465 67.249342 
L 114.519465 67.565839 
L 111.987482 74.212294 
" clip-path="url(#p42b76c9d9c)" style="fill: none; stroke: #000000; stroke-linejoin: miter"/>
   </g>
  </g>
  <g id="axes_5">
   <g id="patch_6">
    <path d="M 148.306878 85.90958 
Q 150.91403 85.759168 153.796939 86.812056 
Q 156.679849 87.864945 158.835763 89.19359 
Q 160.991678 90.522235 163.874587 91.524986 
Q 166.757497 92.527737 169.364649 92.226912 
Q 170.668226 92.226912 171.871527 92.226912 
L 172.372902 92.226912 
Q 172.072077 92.076499 172.673728 91.875949 
Q 173.676479 91.524986 176.734869 91.023611 
L 179.743122 89.820309 
M 150.563067 75.68152 
L 151.465543 75.68152 
Q 160.189477 75.531107 171.169601 70.417077 
Q 173.074828 69.514601 173.576204 69.514601 
Q 173.726616 69.815426 173.726616 69.815426 
Q 173.726616 71.469966 170.643157 74.753975 
Q 167.559697 78.037985 163.222799 81.848439 
Q 158.885901 85.658893 158.0837 86.511231 
L 156.579574 89.519484 
M 158.0837 66.656761 
Q 158.785626 66.656761 159.211795 67.759787 
Q 159.637964 68.862813 159.888652 69.063363 
L 160.640715 70.868315 
" clip-path="url(#p35a6aec45a)" style="fill: none; stroke: #000000; stroke-linejoin: miter"/>
   </g>
  </g>
  <g id="axes_6">
   <g id="patch_7">
    <path d="M 194.281049 95.888706 
Q 202.182797 94.410315 208.81007 94.512273 
M 193.975175 84.418427 
Q 193.975175 84.418427 195.657483 84.418427 
Q 198.053497 84.418427 202.743566 83.500804 
Q 207.433636 82.583182 209.880629 82.583182 
Q 206.974825 90.688846 206.363077 92.524091 
L 205.292517 96.347517 
M 193.975175 83.806678 
Q 193.924196 84.112552 193.975175 84.418427 
Q 193.975175 85.539965 194.102622 86.86542 
Q 194.23007 88.190874 194.433986 89.796713 
Q 194.637902 91.402552 194.73986 92.218217 
L 195.045734 95.582832 
M 191.528182 81.053811 
Q 194.943776 80.289126 198.741713 79.651888 
Q 202.53965 79.01465 207.484615 78.300944 
Q 212.42958 77.587238 214.774615 77.230385 
L 216.151049 77.077448 
M 190.763497 70.959965 
L 190.763497 71.571713 
Q 190.763497 72.948147 190.992902 75.751993 
Q 191.222308 78.555839 191.222308 79.983252 
Q 191.222308 83.245909 190.330175 85.998776 
Q 189.438042 88.751643 187.857692 91.912343 
Q 186.277343 95.073042 185.563636 97.26514 
L 184.798951 97.723951 
M 191.222308 72.948147 
Q 191.171329 73.101084 191.247797 73.126573 
Q 191.324266 73.152063 191.528182 73.126573 
Q 191.732098 73.101084 191.834056 73.101084 
Q 193.873217 73.101084 196.345699 72.489336 
Q 198.818182 71.877587 201.825944 70.858007 
Q 204.833706 69.838427 206.363077 69.430594 
L 208.504196 68.360035 
" clip-path="url(#pd038e00ef6)" style="fill: none; stroke: #000000; stroke-linejoin: miter"/>
   </g>
  </g>
  <g id="axes_7">
   <g id="patch_8">
    <path d="M 233.635283 83.125552 
Q 233.719634 83.294255 234.310097 83.842541 
Q 234.900559 84.390828 235.153614 84.643883 
Q 235.406669 84.896938 235.954955 85.529576 
Q 236.503241 86.162214 236.840648 86.541797 
Q 237.178055 86.921379 237.684166 87.596193 
Q 238.190276 88.271007 238.485507 88.734941 
Q 238.780738 89.198876 239.118145 89.87369 
Q 239.455552 90.548503 239.666431 91.09679 
Q 239.87731 91.645076 240.046014 92.277714 
Q 240.214717 92.910352 240.214717 93.500814 
Q 240.214717 94.76609 239.87731 95.862662 
Q 239.539903 96.959234 238.907266 98.182334 
Q 238.274628 99.405434 237.937221 100.333303 
L 235.406669 102.863855 
" clip-path="url(#p9f7cb3051b)" style="fill: none; stroke: #000000; stroke-linejoin: miter"/>
   </g>
  </g>
 </g>
 <defs>
  <clipPath id="pa212b158b3">
   <rect x="0" y="36.255654" width="36.45" height="88.678691"/>
  </clipPath>
  <clipPath id="pbeaf94fbd8">
   <rect x="36.45" y="34.47589" width="36.45" height="92.23822"/>
  </clipPath>
  <clipPath id="paa8cb71c0d">
   <rect x="72.9" y="46.584382" width="36.45" height="68.021236"/>
  </clipPath>
  <clipPath id="p42b76c9d9c">
   <rect x="109.35" y="42.351512" width="36.45" height="76.486975"/>
  </clipPath>
  <clipPath id="p35a6aec45a">
   <rect x="145.8" y="44.245275" width="36.45" height="72.69945"/>
  </clipPath>
  <clipPath id="pd038e00ef6">
   <rect x="182.25" y="43.63521" width="36.45" height="73.91958"/>
  </clipPath>
  <clipPath id="p9f7cb3051b">
   <rect x="229.417697" y="19.44" width="15.014607" height="122.31"/>
  </clipPath>
 </defs>
</svg>
