<?xml version="1.0" encoding="utf-8" standalone="no"?>
<!DOCTYPE svg PUBLIC "-//W3C//DTD SVG 1.1//EN"
  "http://www.w3.org/Graphics/SVG/1.1/DTD/svg11.dtd">
<svg xmlns:xlink="http://www.w3.org/1999/xlink" width="396pt" height="72pt" viewBox="0 0 396 72" xmlns="http://www.w3.org/2000/svg" version="1.1">
 <metadata>
  <rdf:RDF xmlns:dc="http://purl.org/dc/elements/1.1/" xmlns:cc="http://creativecommons.org/ns#" xmlns:rdf="http://www.w3.org/1999/02/22-rdf-syntax-ns#">
   <cc:Work>
    <dc:type rdf:resource="http://purl.org/dc/dcmitype/StillImage"/>
    <dc:date>2023-02-13T20:22:15.987981</dc:date>
    <dc:format>image/svg+xml</dc:format>
    <dc:creator>
     <cc:Agent>
      <dc:title>Matplotlib v3.6.1, https://matplotlib.org/</dc:title>
     </cc:Agent>
    </dc:creator>
   </cc:Work>
  </rdf:RDF>
 </metadata>
 <defs>
  <style type="text/css">*{stroke-linejoin: round; stroke-linecap: butt}</style>
 </defs>
 <g id="figure_1">
  <g id="patch_1">
   <path d="M 0 72 
L 396 72 
L 396 0 
L 0 0 
z
" style="fill: #8fff9f"/>
  </g>
  <g id="axes_1">
   <g id="patch_2">
    <path d="M 11.699007 39.568966 
Q 10.349379 38.181848 8.1 38.444276 
Q 5.250786 38.444276 4.088607 39.793903 
Q 2.926428 41.143531 2.926428 44.067724 
Q 2.926428 45.56731 4.219821 46.279614 
Q 5.513214 46.991917 7.087779 46.991917 
Q 8.399917 46.991917 9.412138 45.736014 
Q 10.424359 44.48011 11.005448 42.30571 
Q 11.586538 40.13131 11.961434 37.938166 
Q 12.336331 35.745021 12.48629 33.045766 
Q 12.636248 30.34651 12.673738 28.978138 
Q 12.711228 27.609766 12.711228 26.185159 
Q 12.48629 26.260138 12.48629 29.896634 
L 12.48629 44.292662 
L 13.273572 48.229076 
" clip-path="url(#pe284b380c3)" style="fill: none; stroke: #000000; stroke-linejoin: miter"/>
   </g>
  </g>
  <g id="axes_2">
   <g id="patch_3">
    <path d="M 24.918579 29.071862 
Q 24.543683 29.146841 24.412469 29.577972 
Q 24.281255 30.009103 24.356234 30.42149 
Q 24.356234 30.571448 24.393724 30.702662 
Q 24.431214 30.833876 24.487448 30.89011 
Q 24.543683 30.946345 24.599917 31.040069 
Q 24.656152 31.133793 24.693641 31.208772 
L 24.80611 29.859145 
M 24.80611 34.020497 
Q 23.906359 39.006621 23.681421 42.793076 
L 24.131297 45.379862 
L 24.468703 46.054676 
" clip-path="url(#p014ce97aaf)" style="fill: none; stroke: #000000; stroke-linejoin: miter"/>
   </g>
  </g>
  <g id="axes_3">
   <g id="patch_4">
    <path d="M 36.376138 33.983007 
Q 36.900993 34.245434 37.294634 35.107697 
Q 37.688276 35.969959 38.138152 36.607283 
Q 38.588028 37.244607 39.4128 37.132138 
Q 40.5 37.357076 41.287283 36.832221 
Q 42.074566 36.307366 42.430717 35.538828 
Q 42.786869 34.77029 43.25549 33.68309 
Q 43.72411 32.59589 44.136497 32.071034 
M 43.949048 40.281269 
L 43.611641 40.281269 
Q 43.086786 40.281269 41.962097 40.374993 
Q 40.837407 40.468717 40.237572 40.468717 
Q 38.3256 40.468717 36.863503 41.612152 
Q 35.401407 42.755586 35.401407 44.5176 
Q 35.401407 46.017186 36.975972 47.141876 
Q 38.550538 48.266566 40.237572 48.266566 
Q 42.112055 48.266566 43.311724 45.698524 
Q 44.511393 43.130483 44.511393 40.843614 
L 44.398924 40.506207 
L 44.398924 40.843614 
L 44.398924 41.968303 
Q 44.398924 42.793076 44.698841 44.367641 
Q 44.998759 45.942207 45.298676 47.104386 
L 45.598593 48.304055 
" clip-path="url(#p999b066af1)" style="fill: none; stroke: #000000; stroke-linejoin: miter"/>
   </g>
  </g>
  <g id="axes_4">
   <g id="patch_5">
    <path d="M 52.238731 37.282097 
L 52.238731 37.844441 
Q 52.501159 39.868883 52.538648 41.312234 
Q 52.576138 42.755586 52.482414 44.667559 
Q 52.38869 46.579531 52.38869 48.191586 
L 52.463669 39.643945 
Q 52.463669 38.144359 54.056979 37.507034 
Q 55.65029 36.86971 57.074897 37.282097 
Q 58.986869 37.844441 59.905366 39.04411 
Q 60.823862 40.243779 60.880097 41.668386 
Q 60.936331 43.092993 60.973821 44.817517 
Q 61.01131 46.542041 61.161269 48.191586 
" clip-path="url(#p058c7f6f43)" style="fill: none; stroke: #000000; stroke-linejoin: miter"/>
   </g>
  </g>
  <g id="axes_5">
   <g id="patch_6">
    <path d="M 68.063834 37.95691 
L 68.738648 37.95691 
Q 69.450952 37.95691 70.238234 37.881931 
Q 71.025517 37.806952 71.981503 37.675738 
Q 72.93749 37.544524 73.462345 37.507034 
L 77.736166 35.82 
M 73.687283 30.42149 
L 73.687283 31.43371 
Q 73.687283 33.383172 73.012469 37.207117 
Q 72.337655 41.031062 72.337655 43.018014 
Q 72.337655 43.805297 72.337655 44.105214 
Q 72.337655 44.405131 72.431379 45.042455 
Q 72.525103 45.679779 72.712552 45.960952 
Q 72.9 46.242124 73.293641 46.485807 
Q 73.687283 46.72949 74.249628 46.72949 
Q 74.362097 46.692 74.680759 46.72949 
Q 74.999421 46.766979 75.186869 46.710745 
Q 75.374317 46.65451 75.374317 46.392083 
" clip-path="url(#p59748f702d)" style="fill: none; stroke: #000000; stroke-linejoin: miter"/>
   </g>
  </g>
  <g id="axes_6">
   <g id="patch_7">
    <path d="M 85.950869 35.182676 
Q 86.363255 34.69531 87.337986 33.851793 
Q 88.312717 33.008276 88.987531 32.220993 
Q 89.662345 31.43371 89.887283 30.458979 
L 91.124441 28.996883 
M 90.22469 38.219338 
Q 88.612634 37.656993 87.97531 37.769462 
Q 85.988359 37.769462 84.78869 39.0816 
Q 83.589021 40.393738 83.589021 42.493159 
Q 83.589021 45.454841 85.744676 47.123131 
Q 87.900331 48.791421 91.011972 48.791421 
Q 92.736497 48.791421 93.673738 47.27309 
Q 94.610979 45.754759 94.610979 43.842786 
Q 94.610979 42.755586 94.236083 41.83709 
Q 93.861186 40.918593 93.242607 39.887628 
Q 92.624028 38.856662 92.3616 38.219338 
L 89.437407 37.544524 
" clip-path="url(#p1093061521)" style="fill: none; stroke: #000000; stroke-linejoin: miter"/>
   </g>
  </g>
  <g id="axes_7">
   <g id="patch_8">
    <path d="M 100.688772 35.145186 
Q 100.688772 35.145186 100.688772 35.595062 
Q 100.688772 36.269876 100.576303 37.619503 
Q 100.463834 38.969131 100.463834 39.643945 
Q 100.463834 41.930814 101.700993 43.599103 
Q 102.938152 45.267393 105.075062 45.267393 
Q 106.462179 45.154924 107.230717 43.917766 
Q 107.999255 42.680607 108.149214 41.237255 
Q 108.299172 39.793903 108.5616 37.9944 
Q 108.824028 36.194897 109.236414 35.370124 
Q 109.386372 35.070207 109.386372 35.670041 
Q 109.386372 36.269876 109.123945 38.706703 
Q 108.899007 41.031062 108.899007 41.555917 
Q 108.749048 42.643117 109.086455 43.767807 
Q 109.423862 44.892497 110.136166 45.6048 
" clip-path="url(#p4d9c225001)" style="fill: none; stroke: #000000; stroke-linejoin: miter"/>
   </g>
  </g>
  <g id="axes_8"/>
  <g id="axes_9">
   <g id="patch_9">
    <path d="M 134.157228 37.244607 
Q 135.206938 37.207117 135.394386 37.132138 
Q 138.805945 37.132138 140.586703 39.212814 
Q 142.367462 41.29349 142.367462 44.780028 
Q 142.367462 47.704221 137.756234 47.704221 
Q 137.11891 47.704221 136.57531 47.591752 
Q 136.03171 47.479283 135.394386 47.254345 
Q 134.757062 47.029407 134.269697 46.916938 
L 133.032538 45.679779 
M 134.044759 25.435366 
L 134.044759 26.560055 
Q 134.044759 29.409269 134.157228 33.008276 
Q 134.269697 36.607283 134.457145 40.899848 
Q 134.644593 45.192414 134.719572 47.141876 
" clip-path="url(#p07bfe492a1)" style="fill: none; stroke: #000000; stroke-linejoin: miter"/>
   </g>
  </g>
  <g id="axes_10">
   <g id="patch_10">
    <path d="M 154.518579 29.071862 
Q 154.143683 29.146841 154.012469 29.577972 
Q 153.881255 30.009103 153.956234 30.42149 
Q 153.956234 30.571448 153.993724 30.702662 
Q 154.031214 30.833876 154.087448 30.89011 
Q 154.143683 30.946345 154.199917 31.040069 
Q 154.256152 31.133793 154.293641 31.208772 
L 154.40611 29.859145 
M 154.40611 34.020497 
Q 153.506359 39.006621 153.281421 42.793076 
L 153.731297 45.379862 
L 154.068703 46.054676 
" clip-path="url(#pd6cc0d180c)" style="fill: none; stroke: #000000; stroke-linejoin: miter"/>
   </g>
  </g>
  <g id="axes_11">
   <g id="patch_11">
    <path d="M 165.976138 33.983007 
Q 166.500993 34.245434 166.894634 35.107697 
Q 167.288276 35.969959 167.738152 36.607283 
Q 168.188028 37.244607 169.0128 37.132138 
Q 170.1 37.357076 170.887283 36.832221 
Q 171.674566 36.307366 172.030717 35.538828 
Q 172.386869 34.77029 172.85549 33.68309 
Q 173.32411 32.59589 173.736497 32.071034 
M 173.549048 40.281269 
L 173.211641 40.281269 
Q 172.686786 40.281269 171.562097 40.374993 
Q 170.437407 40.468717 169.837572 40.468717 
Q 167.9256 40.468717 166.463503 41.612152 
Q 165.001407 42.755586 165.001407 44.5176 
Q 165.001407 46.017186 166.575972 47.141876 
Q 168.150538 48.266566 169.837572 48.266566 
Q 171.712055 48.266566 172.911724 45.698524 
Q 174.111393 43.130483 174.111393 40.843614 
L 173.998924 40.506207 
L 173.998924 40.843614 
L 173.998924 41.968303 
Q 173.998924 42.793076 174.298841 44.367641 
Q 174.598759 45.942207 174.898676 47.104386 
L 175.198593 48.304055 
" clip-path="url(#p34911a5386)" style="fill: none; stroke: #000000; stroke-linejoin: miter"/>
   </g>
  </g>
  <g id="axes_12">
   <g id="patch_12">
    <path d="M 189.5616 35.032717 
Q 188.51189 34.582841 187.537159 34.69531 
Q 184.500497 35.032717 182.588524 36.701007 
Q 180.676552 38.369297 180.676552 41.330979 
Q 180.676552 43.917766 182.682248 45.6048 
Q 184.687945 47.291834 187.312221 47.291834 
Q 189.674069 47.291834 190.798759 45.361117 
Q 191.923448 43.4304 191.923448 40.881103 
Q 191.923448 39.643945 191.511062 38.706703 
Q 191.098676 37.769462 190.573821 37.300841 
Q 190.048966 36.832221 189.299172 36.119917 
Q 188.549379 35.407614 188.099503 34.69531 
L 186.862345 34.245434 
" clip-path="url(#pe270b73b36)" style="fill: none; stroke: #000000; stroke-linejoin: miter"/>
   </g>
  </g>
  <g id="axes_13">
   <g id="patch_13">
    <path d="M 198.057476 43.917766 
Q 198.357393 44.180193 199.369614 45.154924 
Q 200.381834 46.129655 200.944179 46.560786 
Q 201.506524 46.991917 202.53749 47.385559 
Q 203.568455 47.7792 204.580676 47.629241 
Q 205.25549 47.629241 205.72411 47.404303 
Q 206.192731 47.179366 206.417669 46.879448 
Q 206.642607 46.579531 206.773821 45.979697 
Q 206.905034 45.379862 206.923779 44.967476 
Q 206.942524 44.55509 206.942524 43.805297 
Q 206.942524 42.718097 206.042772 42.043283 
Q 205.143021 41.368469 203.849628 41.031062 
Q 202.556234 40.693655 201.262841 40.300014 
Q 199.969448 39.906372 199.069697 38.987876 
Q 198.169945 38.069379 198.169945 36.607283 
Q 198.169945 36.082428 198.338648 35.726276 
Q 198.507352 35.370124 198.900993 35.145186 
Q 199.294634 34.920248 199.575807 34.807779 
Q 199.856979 34.69531 200.513048 34.639076 
Q 201.169117 34.582841 201.356566 34.582841 
Q 201.544014 34.582841 202.218828 34.582841 
Q 203.418497 34.582841 203.999586 34.995228 
Q 204.580676 35.407614 204.899338 36.026193 
Q 205.218 36.644772 205.480428 36.832221 
" clip-path="url(#pbf4d5414ed)" style="fill: none; stroke: #000000; stroke-linejoin: miter"/>
   </g>
  </g>
  <g id="axes_14">
   <g id="patch_14">
    <path d="M 215.213462 35.932469 
Q 215.813297 35.257655 216.806772 34.826524 
Q 217.800248 34.395393 218.7 34.470372 
Q 219.337324 34.470372 219.82469 34.639076 
Q 220.312055 34.807779 220.630717 34.995228 
Q 220.949379 35.182676 221.174317 35.670041 
Q 221.399255 36.157407 221.511724 36.419834 
Q 221.624193 36.682262 221.680428 37.375821 
Q 221.736662 38.069379 221.755407 38.331807 
Q 221.774152 38.594234 221.755407 39.419007 
Q 221.736662 40.243779 221.736662 40.431228 
Q 221.736662 41.368469 221.567959 43.242952 
Q 221.399255 45.117434 221.399255 46.054676 
Q 221.399255 46.467062 221.45549 46.823214 
Q 221.511724 47.179366 221.605448 47.610497 
Q 221.699172 48.041628 221.736662 48.304055 
L 222.186538 48.528993 
M 215.663338 23.111007 
Q 215.888276 24.798041 215.888276 29.971614 
L 215.888276 42.3432 
L 215.550869 46.841959 
L 215.325931 47.74171 
" clip-path="url(#pb259366c3c)" style="fill: none; stroke: #000000; stroke-linejoin: miter"/>
   </g>
  </g>
  <g id="axes_15">
   <g id="patch_15">
    <path d="M 232.613131 30.384 
L 235.874731 34.657821 
M 235.537324 37.019669 
L 235.274897 41.743366 
Q 235.387366 42.268221 235.518579 43.749062 
Q 235.649793 45.229903 235.9872 46.1484 
Q 236.324607 47.066897 237.186869 47.591752 
" clip-path="url(#p09cc489f5b)" style="fill: none; stroke: #000000; stroke-linejoin: miter"/>
   </g>
  </g>
  <g id="axes_16"/>
  <g id="axes_17">
   <g id="patch_16">
    <path d="M 262.163917 36.382345 
Q 262.126428 36.494814 262.257641 36.701007 
Q 262.388855 36.9072 262.276386 37.057159 
L 262.276386 39.306538 
Q 262.276386 40.506207 262.613793 41.724621 
Q 262.9512 42.943034 263.813462 43.93651 
Q 264.675724 44.929986 265.875393 44.929986 
Q 267.112552 44.929986 267.787366 43.861531 
Q 268.462179 42.793076 268.912055 41.143531 
Q 269.361931 39.493986 269.699338 38.969131 
L 270.486621 36.382345 
L 270.261683 42.680607 
L 270.261683 45.154924 
Q 270.261683 47.066897 270.992731 51.00331 
Q 271.723779 54.939724 271.723779 56.964166 
Q 272.473572 59.213545 271.386372 60.188276 
Q 270.299172 61.163007 268.237241 60.78811 
Q 266.437738 60.488193 265.519241 60.169531 
Q 264.600745 59.850869 262.613793 58.988607 
L 262.501324 58.426262 
" clip-path="url(#pb61ee5c4fd)" style="fill: none; stroke: #000000; stroke-linejoin: miter"/>
   </g>
  </g>
  <g id="axes_18">
   <g id="patch_17">
    <path d="M 278.888772 35.145186 
Q 278.888772 35.145186 278.888772 35.595062 
Q 278.888772 36.269876 278.776303 37.619503 
Q 278.663834 38.969131 278.663834 39.643945 
Q 278.663834 41.930814 279.900993 43.599103 
Q 281.138152 45.267393 283.275062 45.267393 
Q 284.662179 45.154924 285.430717 43.917766 
Q 286.199255 42.680607 286.349214 41.237255 
Q 286.499172 39.793903 286.7616 37.9944 
Q 287.024028 36.194897 287.436414 35.370124 
Q 287.586372 35.070207 287.586372 35.670041 
Q 287.586372 36.269876 287.323945 38.706703 
Q 287.099007 41.031062 287.099007 41.555917 
Q 286.949048 42.643117 287.286455 43.767807 
Q 287.623862 44.892497 288.336166 45.6048 
" clip-path="url(#p40350a0210)" style="fill: none; stroke: #000000; stroke-linejoin: miter"/>
   </g>
  </g>
  <g id="axes_19">
   <g id="patch_18">
    <path d="M 296.213462 29.784166 
Q 297.188193 30.271531 298.481586 31.827352 
Q 299.774979 33.383172 300.262345 33.833048 
L 300.937159 34.507862 
M 303.973821 37.432055 
Q 302.661683 36.94469 301.611972 36.982179 
Q 301.349545 36.982179 300.449793 37.000924 
Q 299.550041 37.019669 299.11891 37.038414 
Q 298.687779 37.057159 297.825517 37.169628 
Q 296.963255 37.282097 296.494634 37.41331 
Q 296.026014 37.544524 295.38869 37.844441 
Q 294.751366 38.144359 294.432703 38.538 
Q 294.114041 38.931641 293.870359 39.550221 
Q 293.626676 40.1688 293.626676 40.918593 
Q 293.626676 42.830566 295.238731 44.348897 
Q 296.850786 45.867228 298.800248 45.867228 
Q 300.149876 45.867228 301.012138 45.323628 
Q 301.8744 44.780028 302.286786 43.842786 
Q 302.699172 42.905545 302.92411 41.912069 
Q 303.149048 40.918593 303.486455 39.756414 
Q 303.823862 38.594234 304.311228 37.881931 
L 304.761103 43.842786 
L 305.773324 46.991917 
" clip-path="url(#pa1e3a9a280)" style="fill: none; stroke: #000000; stroke-linejoin: miter"/>
   </g>
  </g>
  <g id="axes_20">
   <g id="patch_19">
    <path d="M 311.438731 37.282097 
L 311.438731 37.844441 
Q 311.701159 39.868883 311.738648 41.312234 
Q 311.776138 42.755586 311.682414 44.667559 
Q 311.58869 46.579531 311.58869 48.191586 
L 311.663669 39.643945 
Q 311.663669 38.144359 313.256979 37.507034 
Q 314.85029 36.86971 316.274897 37.282097 
Q 318.186869 37.844441 319.105366 39.04411 
Q 320.023862 40.243779 320.080097 41.668386 
Q 320.136331 43.092993 320.173821 44.817517 
Q 320.21131 46.542041 320.361269 48.191586 
" clip-path="url(#pf4c254f13f)" style="fill: none; stroke: #000000; stroke-linejoin: miter"/>
   </g>
  </g>
  <g id="axes_21">
   <g id="patch_20">
    <path d="M 326.963917 36.382345 
Q 326.926428 36.494814 327.057641 36.701007 
Q 327.188855 36.9072 327.076386 37.057159 
L 327.076386 39.306538 
Q 327.076386 40.506207 327.413793 41.724621 
Q 327.7512 42.943034 328.613462 43.93651 
Q 329.475724 44.929986 330.675393 44.929986 
Q 331.912552 44.929986 332.587366 43.861531 
Q 333.262179 42.793076 333.712055 41.143531 
Q 334.161931 39.493986 334.499338 38.969131 
L 335.286621 36.382345 
L 335.061683 42.680607 
L 335.061683 45.154924 
Q 335.061683 47.066897 335.792731 51.00331 
Q 336.523779 54.939724 336.523779 56.964166 
Q 337.273572 59.213545 336.186372 60.188276 
Q 335.099172 61.163007 333.037241 60.78811 
Q 331.237738 60.488193 330.319241 60.169531 
Q 329.400745 59.850869 327.413793 58.988607 
L 327.301324 58.426262 
" clip-path="url(#p5d89dbc735)" style="fill: none; stroke: #000000; stroke-linejoin: miter"/>
   </g>
  </g>
  <g id="axes_22">
   <g id="patch_21">
    <path d="M 346.013131 30.384 
L 349.274731 34.657821 
M 348.937324 37.019669 
L 348.674897 41.743366 
Q 348.787366 42.268221 348.918579 43.749062 
Q 349.049793 45.229903 349.3872 46.1484 
Q 349.724607 47.066897 350.586869 47.591752 
" clip-path="url(#p9a00a2c2f7)" style="fill: none; stroke: #000000; stroke-linejoin: miter"/>
   </g>
  </g>
 </g>
 <defs>
  <clipPath id="pe284b380c3">
   <rect x="1.051945" y="8.64" width="14.09611" height="54.36"/>
  </clipPath>
  <clipPath id="p014ce97aaf">
   <rect x="21.806938" y="8.64" width="4.986124" height="54.36"/>
  </clipPath>
  <clipPath id="p999b066af1">
   <rect x="33.526924" y="8.64" width="13.946152" height="54.36"/>
  </clipPath>
  <clipPath id="p058c7f6f43">
   <rect x="50.364248" y="8.64" width="12.671503" height="54.36"/>
  </clipPath>
  <clipPath id="p59748f702d">
   <rect x="66.189352" y="8.64" width="13.421297" height="54.36"/>
  </clipPath>
  <clipPath id="p1093061521">
   <rect x="81.714538" y="8.64" width="14.770924" height="54.36"/>
  </clipPath>
  <clipPath id="p4d9c225001">
   <rect x="98.589352" y="8.64" width="13.421297" height="54.36"/>
  </clipPath>
  <clipPath id="p07bfe492a1">
   <rect x="131.158055" y="8.64" width="13.08389" height="54.36"/>
  </clipPath>
  <clipPath id="pd6cc0d180c">
   <rect x="151.406938" y="8.64" width="4.986124" height="54.36"/>
  </clipPath>
  <clipPath id="p34911a5386">
   <rect x="163.126924" y="8.64" width="13.946152" height="54.36"/>
  </clipPath>
  <clipPath id="pe270b73b36">
   <rect x="178.802069" y="8.64" width="14.995862" height="54.36"/>
  </clipPath>
  <clipPath id="pbf4d5414ed">
   <rect x="196.182993" y="8.64" width="12.634014" height="54.36"/>
  </clipPath>
  <clipPath id="pb259366c3c">
   <rect x="213.338979" y="8.64" width="10.722041" height="54.36"/>
  </clipPath>
  <clipPath id="p09cc489f5b">
   <rect x="230.738648" y="8.64" width="8.322703" height="54.36"/>
  </clipPath>
  <clipPath id="pb61ee5c4fd">
   <rect x="260.251945" y="8.64" width="14.09611" height="54.36"/>
  </clipPath>
  <clipPath id="p40350a0210">
   <rect x="276.789352" y="8.64" width="13.421297" height="54.36"/>
  </clipPath>
  <clipPath id="pa1e3a9a280">
   <rect x="291.752193" y="8.64" width="15.895614" height="54.36"/>
  </clipPath>
  <clipPath id="pf4c254f13f">
   <rect x="309.564248" y="8.64" width="12.671503" height="54.36"/>
  </clipPath>
  <clipPath id="p5d89dbc735">
   <rect x="325.051945" y="8.64" width="14.09611" height="54.36"/>
  </clipPath>
  <clipPath id="p9a00a2c2f7">
   <rect x="344.138648" y="8.64" width="8.322703" height="54.36"/>
  </clipPath>
 </defs>
</svg>
