<?xml version="1.0" encoding="utf-8" standalone="no"?>
<!DOCTYPE svg PUBLIC "-//W3C//DTD SVG 1.1//EN"
  "http://www.w3.org/Graphics/SVG/1.1/DTD/svg11.dtd">
<svg xmlns:xlink="http://www.w3.org/1999/xlink" width="234pt" height="72pt" viewBox="0 0 234 72" xmlns="http://www.w3.org/2000/svg" version="1.1">
 <metadata>
  <rdf:RDF xmlns:dc="http://purl.org/dc/elements/1.1/" xmlns:cc="http://creativecommons.org/ns#" xmlns:rdf="http://www.w3.org/1999/02/22-rdf-syntax-ns#">
   <cc:Work>
    <dc:type rdf:resource="http://purl.org/dc/dcmitype/StillImage"/>
    <dc:date>2023-02-15T23:03:41.045054</dc:date>
    <dc:format>image/svg+xml</dc:format>
    <dc:creator>
     <cc:Agent>
      <dc:title>Matplotlib v3.6.1, https://matplotlib.org/</dc:title>
     </cc:Agent>
    </dc:creator>
   </cc:Work>
  </rdf:RDF>
 </metadata>
 <defs>
  <style type="text/css">*{stroke-linejoin: round; stroke-linecap: butt}</style>
 </defs>
 <g id="figure_1">
  <g id="patch_1">
   <path d="M 0 72 
L 234 72 
L 234 0 
L 0 0 
z
" style="fill: #8fff9f"/>
  </g>
  <g id="axes_1">
   <g id="patch_2">
    <path d="M 3.263834 37.95691 
L 3.938648 37.95691 
Q 4.650952 37.95691 5.438234 37.881931 
Q 6.225517 37.806952 7.181503 37.675738 
Q 8.13749 37.544524 8.662345 37.507034 
L 12.936166 35.82 
M 8.887283 30.42149 
L 8.887283 31.43371 
Q 8.887283 33.383172 8.212469 37.207117 
Q 7.537655 41.031062 7.537655 43.018014 
Q 7.537655 43.805297 7.537655 44.105214 
Q 7.537655 44.405131 7.631379 45.042455 
Q 7.725103 45.679779 7.912552 45.960952 
Q 8.1 46.242124 8.493641 46.485807 
Q 8.887283 46.72949 9.449628 46.72949 
Q 9.562097 46.692 9.880759 46.72949 
Q 10.199421 46.766979 10.386869 46.710745 
Q 10.574317 46.65451 10.574317 46.392083 
" clip-path="url(#p6e1f0625f2)" style="fill: none; stroke: #000000; stroke-linejoin: miter"/>
   </g>
  </g>
  <g id="axes_2">
   <g id="patch_3">
    <path d="M 19.032703 35.332634 
L 29.379848 35.332634 
M 28.592566 39.344028 
Q 28.592566 39.344028 25.668372 39.344028 
Q 18.695297 39.344028 18.695297 44.5176 
Q 18.695297 46.279614 20.45731 47.19811 
Q 22.219324 48.116607 24.206276 48.116607 
Q 25.443434 47.891669 26.249462 47.2356 
Q 27.05549 46.579531 27.411641 45.586055 
Q 27.767793 44.592579 27.936497 43.674083 
Q 28.1052 42.755586 28.255159 41.443448 
Q 28.405117 40.13131 28.592566 39.344028 
Q 29.679766 46.092166 29.792234 47.029407 
L 29.904703 48.154097 
" clip-path="url(#pdb9f417475)" style="fill: none; stroke: #000000; stroke-linejoin: miter"/>
   </g>
  </g>
  <g id="axes_3"/>
  <g id="axes_4">
   <g id="patch_4">
    <path d="M 51.8076 35.032717 
Q 51.8076 35.032717 55.181669 35.032717 
Q 55.294138 35.032717 57.037407 34.826524 
Q 58.780676 34.620331 59.792897 34.789034 
Q 60.805117 34.957738 60.805117 35.707531 
Q 60.805117 36.86971 59.792897 38.144359 
Q 58.780676 39.419007 57.318579 40.506207 
Q 55.856483 41.593407 54.394386 42.605628 
Q 52.93229 43.617848 51.920069 44.573834 
Q 50.907848 45.529821 50.907848 46.279614 
L 52.032538 46.279614 
Q 52.070028 46.279614 54.281917 46.054676 
L 62.492152 45.942207 
" clip-path="url(#p99cd0704dd)" style="fill: none; stroke: #000000; stroke-linejoin: miter"/>
   </g>
  </g>
  <g id="axes_5">
   <g id="patch_5">
    <path d="M 69.413462 29.784166 
Q 70.388193 30.271531 71.681586 31.827352 
Q 72.974979 33.383172 73.462345 33.833048 
L 74.137159 34.507862 
M 77.173821 37.432055 
Q 75.861683 36.94469 74.811972 36.982179 
Q 74.549545 36.982179 73.649793 37.000924 
Q 72.750041 37.019669 72.31891 37.038414 
Q 71.887779 37.057159 71.025517 37.169628 
Q 70.163255 37.282097 69.694634 37.41331 
Q 69.226014 37.544524 68.58869 37.844441 
Q 67.951366 38.144359 67.632703 38.538 
Q 67.314041 38.931641 67.070359 39.550221 
Q 66.826676 40.1688 66.826676 40.918593 
Q 66.826676 42.830566 68.438731 44.348897 
Q 70.050786 45.867228 72.000248 45.867228 
Q 73.349876 45.867228 74.212138 45.323628 
Q 75.0744 44.780028 75.486786 43.842786 
Q 75.899172 42.905545 76.12411 41.912069 
Q 76.349048 40.918593 76.686455 39.756414 
Q 77.023862 38.594234 77.511228 37.881931 
L 77.961103 43.842786 
L 78.973324 46.991917 
" clip-path="url(#p61fc7ae71a)" style="fill: none; stroke: #000000; stroke-linejoin: miter"/>
   </g>
  </g>
  <g id="axes_6">
   <g id="patch_6">
    <path d="M 89.718579 29.071862 
Q 89.343683 29.146841 89.212469 29.577972 
Q 89.081255 30.009103 89.156234 30.42149 
Q 89.156234 30.571448 89.193724 30.702662 
Q 89.231214 30.833876 89.287448 30.89011 
Q 89.343683 30.946345 89.399917 31.040069 
Q 89.456152 31.133793 89.493641 31.208772 
L 89.60611 29.859145 
M 89.60611 34.020497 
Q 88.706359 39.006621 88.481421 42.793076 
L 88.931297 45.379862 
L 89.268703 46.054676 
" clip-path="url(#p2e2df31082)" style="fill: none; stroke: #000000; stroke-linejoin: miter"/>
   </g>
  </g>
  <g id="axes_7"/>
  <g id="axes_8">
   <g id="patch_7">
    <path d="M 116.363917 36.382345 
Q 116.326428 36.494814 116.457641 36.701007 
Q 116.588855 36.9072 116.476386 37.057159 
L 116.476386 39.306538 
Q 116.476386 40.506207 116.813793 41.724621 
Q 117.1512 42.943034 118.013462 43.93651 
Q 118.875724 44.929986 120.075393 44.929986 
Q 121.312552 44.929986 121.987366 43.861531 
Q 122.662179 42.793076 123.112055 41.143531 
Q 123.561931 39.493986 123.899338 38.969131 
L 124.686621 36.382345 
L 124.461683 42.680607 
L 124.461683 45.154924 
Q 124.461683 47.066897 125.192731 51.00331 
Q 125.923779 54.939724 125.923779 56.964166 
Q 126.673572 59.213545 125.586372 60.188276 
Q 124.499172 61.163007 122.437241 60.78811 
Q 120.637738 60.488193 119.719241 60.169531 
Q 118.800745 59.850869 116.813793 58.988607 
L 116.701324 58.426262 
" clip-path="url(#p4fbafe28a9)" style="fill: none; stroke: #000000; stroke-linejoin: miter"/>
   </g>
  </g>
  <g id="axes_9">
   <g id="patch_8">
    <path d="M 134.719572 33.795559 
L 134.719572 33.570621 
Q 134.719572 33.383172 134.775807 33.289448 
Q 134.832041 33.195724 134.907021 33.13949 
Q 134.982 33.083255 135.131959 32.989531 
Q 135.281917 32.895807 135.394386 32.783338 
L 139.555738 28.059641 
M 141.46771 37.619503 
L 138.318579 37.619503 
Q 138.20611 37.656993 137.943683 37.731972 
Q 134.719572 38.669214 133.819821 39.381517 
Q 132.282745 40.731145 132.245255 44.142703 
Q 132.245255 45.267393 133.107517 46.167145 
Q 133.969779 47.066897 135.056979 47.066897 
Q 135.919241 46.954428 136.706524 46.485807 
Q 137.493807 46.017186 137.999917 45.473586 
Q 138.506028 44.929986 139.049628 43.93651 
Q 139.593228 42.943034 139.8744 42.324455 
Q 140.155572 41.705876 140.605448 40.543697 
Q 141.055324 39.381517 141.242772 38.969131 
Q 141.580179 38.144359 141.692648 38.200593 
Q 141.805117 38.256828 141.692648 39.456497 
L 141.580179 40.993572 
Q 141.580179 41.031062 141.917586 44.705048 
L 143.154745 47.066897 
" clip-path="url(#pff456e282d)" style="fill: none; stroke: #000000; stroke-linejoin: miter"/>
   </g>
  </g>
  <g id="axes_10">
   <g id="patch_9">
    <path d="M 149.438731 37.282097 
L 149.438731 37.844441 
Q 149.701159 39.868883 149.738648 41.312234 
Q 149.776138 42.755586 149.682414 44.667559 
Q 149.58869 46.579531 149.58869 48.191586 
L 149.663669 39.643945 
Q 149.663669 38.144359 151.256979 37.507034 
Q 152.85029 36.86971 154.274897 37.282097 
Q 156.186869 37.844441 157.105366 39.04411 
Q 158.023862 40.243779 158.080097 41.668386 
Q 158.136331 43.092993 158.173821 44.817517 
Q 158.21131 46.542041 158.361269 48.191586 
" clip-path="url(#paef5d432bc)" style="fill: none; stroke: #000000; stroke-linejoin: miter"/>
   </g>
  </g>
  <g id="axes_11">
   <g id="patch_10">
    <path d="M 170.456152 30.309021 
Q 169.968786 30.42149 170.381172 30.833876 
Q 170.756069 31.208772 170.831048 30.946345 
Q 170.868538 30.871366 170.793559 30.646428 
Q 170.793559 30.458979 170.718579 30.42149 
Q 170.6436 30.384 170.512386 30.42149 
Q 170.381172 30.458979 170.231214 30.42149 
L 170.118745 30.646428 
M 171.018497 33.345683 
Q 172.068207 37.731972 172.593062 40.13131 
Q 173.117917 42.530648 173.567793 46.317103 
Q 174.017669 50.103559 173.830221 53.25269 
Q 173.830221 53.440138 173.830221 54.021228 
Q 173.830221 54.602317 173.830221 54.902234 
Q 173.830221 55.202152 173.811476 55.783241 
Q 173.792731 56.364331 173.717752 56.701738 
Q 173.642772 57.039145 173.530303 57.52651 
Q 173.417834 58.013876 173.211641 58.313793 
Q 173.005448 58.61371 172.743021 58.894883 
Q 172.480593 59.176055 172.105697 59.307269 
Q 171.7308 59.438483 171.243434 59.438483 
Q 170.268703 59.438483 169.51891 59.251034 
Q 168.769117 59.063586 167.906855 58.707434 
Q 167.044593 58.351283 166.407269 58.201324 
L 166.182331 57.751448 
" clip-path="url(#pbb9f4b3e48)" style="fill: none; stroke: #000000; stroke-linejoin: miter"/>
   </g>
  </g>
  <g id="axes_12">
   <g id="patch_11">
    <path d="M 186.918579 29.071862 
Q 186.543683 29.146841 186.412469 29.577972 
Q 186.281255 30.009103 186.356234 30.42149 
Q 186.356234 30.571448 186.393724 30.702662 
Q 186.431214 30.833876 186.487448 30.89011 
Q 186.543683 30.946345 186.599917 31.040069 
Q 186.656152 31.133793 186.693641 31.208772 
L 186.80611 29.859145 
M 186.80611 34.020497 
Q 185.906359 39.006621 185.681421 42.793076 
L 186.131297 45.379862 
L 186.468703 46.054676 
" clip-path="url(#pc415650d0d)" style="fill: none; stroke: #000000; stroke-linejoin: miter"/>
   </g>
  </g>
  <g id="axes_13">
   <g id="patch_12">
    <path d="M 198.132455 35.182676 
L 205.442938 35.182676 
M 197.345172 39.456497 
Q 197.307683 39.943862 197.345172 41.143531 
Q 197.345172 42.30571 197.345172 42.755586 
Q 197.345172 43.205462 197.438897 44.198938 
Q 197.532621 45.192414 197.682579 45.6048 
Q 197.832538 46.017186 198.169945 46.692 
Q 198.507352 47.366814 198.994717 47.647986 
Q 199.482083 47.929159 200.231876 48.172841 
Q 200.981669 48.416524 201.9564 48.416524 
Q 206.192731 48.416524 206.192731 39.681434 
Q 206.192731 43.655338 207.017503 48.004138 
L 207.692317 48.229076 
" clip-path="url(#p93901f6c40)" style="fill: none; stroke: #000000; stroke-linejoin: miter"/>
   </g>
  </g>
 </g>
 <defs>
  <clipPath id="p6e1f0625f2">
   <rect x="1.389352" y="8.64" width="13.421297" height="54.36"/>
  </clipPath>
  <clipPath id="pdb9f417475">
   <rect x="16.820814" y="8.64" width="14.958372" height="54.36"/>
  </clipPath>
  <clipPath id="p99cd0704dd">
   <rect x="49.033366" y="8.64" width="15.333269" height="54.36"/>
  </clipPath>
  <clipPath id="p61fc7ae71a">
   <rect x="64.952193" y="8.64" width="15.895614" height="54.36"/>
  </clipPath>
  <clipPath id="p2e2df31082">
   <rect x="86.606938" y="8.64" width="4.986124" height="54.36"/>
  </clipPath>
  <clipPath id="p4fbafe28a9">
   <rect x="114.451945" y="8.64" width="14.09611" height="54.36"/>
  </clipPath>
  <clipPath id="pff456e282d">
   <rect x="130.370772" y="8.64" width="14.658455" height="54.36"/>
  </clipPath>
  <clipPath id="paef5d432bc">
   <rect x="147.564248" y="8.64" width="12.671503" height="54.36"/>
  </clipPath>
  <clipPath id="pbb9f4b3e48">
   <rect x="164.307848" y="8.64" width="11.584303" height="54.36"/>
  </clipPath>
  <clipPath id="pc415650d0d">
   <rect x="183.806938" y="8.64" width="4.986124" height="54.36"/>
  </clipPath>
  <clipPath id="p93901f6c40">
   <rect x="195.4332" y="8.64" width="14.1336" height="54.36"/>
  </clipPath>
 </defs>
</svg>
