<?xml version="1.0" encoding="utf-8" standalone="no"?>
<!DOCTYPE svg PUBLIC "-//W3C//DTD SVG 1.1//EN"
  "http://www.w3.org/Graphics/SVG/1.1/DTD/svg11.dtd">
<svg xmlns:xlink="http://www.w3.org/1999/xlink" width="252pt" height="72pt" viewBox="0 0 252 72" xmlns="http://www.w3.org/2000/svg" version="1.1">
 <metadata>
  <rdf:RDF xmlns:dc="http://purl.org/dc/elements/1.1/" xmlns:cc="http://creativecommons.org/ns#" xmlns:rdf="http://www.w3.org/1999/02/22-rdf-syntax-ns#">
   <cc:Work>
    <dc:type rdf:resource="http://purl.org/dc/dcmitype/StillImage"/>
    <dc:date>2023-02-13T20:22:26.606139</dc:date>
    <dc:format>image/svg+xml</dc:format>
    <dc:creator>
     <cc:Agent>
      <dc:title>Matplotlib v3.6.1, https://matplotlib.org/</dc:title>
     </cc:Agent>
    </dc:creator>
   </cc:Work>
  </rdf:RDF>
 </metadata>
 <defs>
  <style type="text/css">*{stroke-linejoin: round; stroke-linecap: butt}</style>
 </defs>
 <g id="figure_1">
  <g id="patch_1">
   <path d="M 0 72 
L 252 72 
L 252 0 
L 0 0 
z
" style="fill: #8fff9f"/>
  </g>
  <g id="axes_1">
   <g id="patch_2">
    <path d="M 4.613462 35.932469 
Q 5.213297 35.257655 6.206772 34.826524 
Q 7.200248 34.395393 8.1 34.470372 
Q 8.737324 34.470372 9.22469 34.639076 
Q 9.712055 34.807779 10.030717 34.995228 
Q 10.349379 35.182676 10.574317 35.670041 
Q 10.799255 36.157407 10.911724 36.419834 
Q 11.024193 36.682262 11.080428 37.375821 
Q 11.136662 38.069379 11.155407 38.331807 
Q 11.174152 38.594234 11.155407 39.419007 
Q 11.136662 40.243779 11.136662 40.431228 
Q 11.136662 41.368469 10.967959 43.242952 
Q 10.799255 45.117434 10.799255 46.054676 
Q 10.799255 46.467062 10.85549 46.823214 
Q 10.911724 47.179366 11.005448 47.610497 
Q 11.099172 48.041628 11.136662 48.304055 
L 11.586538 48.528993 
M 5.063338 23.111007 
Q 5.288276 24.798041 5.288276 29.971614 
L 5.288276 42.3432 
L 4.950869 46.841959 
L 4.725931 47.74171 
" clip-path="url(#pb7784fafd4)" style="fill: none; stroke: #000000; stroke-linejoin: miter"/>
   </g>
  </g>
  <g id="axes_2">
   <g id="patch_3">
    <path d="M 18.057798 38.160826 
Q 21.030275 39.535596 25.749083 39.721376 
Q 27.272477 39.721376 27.959862 38.550963 
Q 28.647248 37.38055 28.647248 35.82 
Q 28.647248 35.299817 28.554358 34.909679 
Q 28.461468 34.519541 28.219954 34.296606 
Q 27.97844 34.07367 27.811239 33.943624 
Q 27.644037 33.813578 27.198165 33.757844 
Q 26.752294 33.70211 26.547936 33.683532 
Q 26.343578 33.664954 25.767661 33.683532 
Q 25.191743 33.70211 24.968807 33.70211 
Q 22.925229 33.70211 21.438991 35.578486 
Q 19.952752 37.454862 19.952752 39.609908 
Q 19.952752 42.619541 21.884862 44.570229 
Q 23.816972 46.520917 26.863761 46.520917 
Q 29.018807 46.818165 30.542202 44.29156 
" clip-path="url(#p466ab916f9)" style="fill: none; stroke: #000000; stroke-linejoin: miter"/>
   </g>
  </g>
  <g id="axes_3">
   <g id="patch_4">
    <path d="M 40.106359 28.621986 
Q 40.331297 30.34651 40.406276 32.146014 
Q 40.481255 33.945517 40.46251 36.551048 
Q 40.443766 39.156579 40.443766 40.093821 
Q 40.443766 40.13131 40.668703 45.829738 
L 40.893641 46.841959 
" clip-path="url(#padfae6f116)" style="fill: none; stroke: #000000; stroke-linejoin: miter"/>
   </g>
  </g>
  <g id="axes_4">
   <g id="patch_5">
    <path d="M 51.920069 39.868883 
L 51.920069 39.419007 
Q 51.920069 37.769462 53.663338 36.682262 
Q 55.406607 35.595062 57.093641 35.595062 
Q 59.305531 35.595062 60.673903 36.794731 
Q 62.042276 37.9944 62.042276 40.20629 
Q 62.042276 42.30571 60.224028 43.336676 
Q 58.405779 44.367641 56.19389 44.367641 
Q 55.519076 44.367641 55.012966 44.255172 
Q 54.506855 44.142703 53.888276 43.917766 
Q 53.269697 43.692828 52.819821 43.580359 
L 51.695131 42.568138 
M 51.357724 36.832221 
Q 51.8076 38.444276 52.070028 40.262524 
Q 52.332455 42.080772 52.38869 43.749062 
Q 52.444924 45.417352 52.482414 47.27309 
Q 52.519903 49.128828 52.482414 50.778372 
L 52.369945 57.863917 
" clip-path="url(#pa92db3ad96)" style="fill: none; stroke: #000000; stroke-linejoin: miter"/>
   </g>
  </g>
  <g id="axes_5"/>
  <g id="axes_6">
   <g id="patch_6">
    <path d="M 83.211604 28.853447 
Q 84.096246 28.825802 85.893174 28.784334 
Q 87.690102 28.742867 88.782082 28.715222 
Q 89.874061 28.687577 91.394539 28.576997 
Q 92.915017 28.466416 94.159044 28.272901 
Q 95.237201 28.107031 95.568942 28.107031 
Q 95.817747 28.107031 95.817747 28.189966 
Q 95.043686 29.876314 93.550853 31.673242 
Q 92.05802 33.470171 90.41314 34.990648 
Q 88.768259 36.511126 87.151024 37.990137 
Q 85.533788 39.469147 84.220648 41.07256 
Q 82.907509 42.675973 82.382253 44.113515 
L 89.348805 44.528191 
L 95.817747 45.191672 
" clip-path="url(#pe798003f5b)" style="fill: none; stroke: #000000; stroke-linejoin: miter"/>
   </g>
  </g>
  <g id="axes_7">
   <g id="patch_7">
    <path d="M 101.813462 35.932469 
Q 102.413297 35.257655 103.406772 34.826524 
Q 104.400248 34.395393 105.3 34.470372 
Q 105.937324 34.470372 106.42469 34.639076 
Q 106.912055 34.807779 107.230717 34.995228 
Q 107.549379 35.182676 107.774317 35.670041 
Q 107.999255 36.157407 108.111724 36.419834 
Q 108.224193 36.682262 108.280428 37.375821 
Q 108.336662 38.069379 108.355407 38.331807 
Q 108.374152 38.594234 108.355407 39.419007 
Q 108.336662 40.243779 108.336662 40.431228 
Q 108.336662 41.368469 108.167959 43.242952 
Q 107.999255 45.117434 107.999255 46.054676 
Q 107.999255 46.467062 108.05549 46.823214 
Q 108.111724 47.179366 108.205448 47.610497 
Q 108.299172 48.041628 108.336662 48.304055 
L 108.786538 48.528993 
M 102.263338 23.111007 
Q 102.488276 24.798041 102.488276 29.971614 
L 102.488276 42.3432 
L 102.150869 46.841959 
L 101.925931 47.74171 
" clip-path="url(#p26e0e6fd18)" style="fill: none; stroke: #000000; stroke-linejoin: miter"/>
   </g>
  </g>
  <g id="axes_8">
   <g id="patch_8">
    <path d="M 127.043923 36.441748 
Q 125.834968 35.094627 121.862687 35.094627 
Q 120.342857 35.094627 119.565672 35.146439 
Q 118.788486 35.198252 117.78678 35.440043 
Q 116.785075 35.681834 116.301493 36.182687 
Q 115.81791 36.683539 115.472495 37.616162 
Q 115.127079 38.548785 115.127079 39.964989 
Q 115.127079 42.037484 116.543284 43.280981 
Q 117.959488 44.524478 119.893817 44.524478 
Q 122.553518 44.524478 125.316844 38.721493 
Q 126.663966 35.854542 126.663966 35.82 
Q 127.009382 35.578209 127.043923 36.441748 
Q 127.043923 37.512537 127.458422 40.362217 
Q 127.872921 43.211898 127.872921 44.524478 
" clip-path="url(#p364526de89)" style="fill: none; stroke: #000000; stroke-linejoin: miter"/>
   </g>
  </g>
  <g id="axes_9">
   <g id="patch_9">
    <path d="M 133.238731 37.282097 
L 133.238731 37.844441 
Q 133.501159 39.868883 133.538648 41.312234 
Q 133.576138 42.755586 133.482414 44.667559 
Q 133.38869 46.579531 133.38869 48.191586 
L 133.463669 39.643945 
Q 133.463669 38.144359 135.056979 37.507034 
Q 136.65029 36.86971 138.074897 37.282097 
Q 139.986869 37.844441 140.905366 39.04411 
Q 141.823862 40.243779 141.880097 41.668386 
Q 141.936331 43.092993 141.973821 44.817517 
Q 142.01131 46.542041 142.161269 48.191586 
" clip-path="url(#pa1da3a45c3)" style="fill: none; stroke: #000000; stroke-linejoin: miter"/>
   </g>
  </g>
  <g id="axes_10">
   <g id="patch_10">
    <path d="M 158.687191 39.096404 
Q 158.43236 39.023596 157.46764 38.623146 
Q 156.502921 38.222697 155.84764 38.077079 
Q 155.19236 37.931461 154.537079 38.00427 
Q 151.915955 38.00427 150.277753 40.388764 
Q 148.639551 42.773258 148.639551 45.430787 
Q 148.639551 47.068989 153.881798 47.068989 
Q 155.447191 47.068989 156.775955 45.558202 
Q 158.104719 44.047416 158.778202 42.172584 
Q 159.451685 40.297753 159.451685 38.768764 
Q 159.451685 37.27618 159.415281 36.984944 
L 159.342472 38.077079 
Q 159.342472 38.550337 159.342472 38.987191 
Q 159.378876 40.188539 159.579101 42.281798 
Q 159.779326 44.375056 159.943146 46.049663 
Q 160.106966 47.72427 160.143371 49.872135 
Q 160.179775 52.02 160.015955 53.658202 
Q 159.852135 55.296404 159.287865 56.971011 
Q 158.723596 58.645618 157.795281 59.737753 
Q 156.866966 60.829888 155.265169 61.521573 
Q 153.663371 62.213258 151.515506 62.213258 
Q 149.877303 62.213258 148.785169 61.466966 
Q 147.693034 60.720674 147.693034 59.155281 
Q 147.620225 58.936854 147.656629 58.936854 
Q 147.693034 58.936854 147.802247 58.936854 
Q 147.911461 58.936854 147.911461 58.82764 
" clip-path="url(#p147e9dbc58)" style="fill: none; stroke: #000000; stroke-linejoin: miter"/>
   </g>
  </g>
  <g id="axes_11"/>
  <g id="axes_12">
   <g id="patch_11">
    <path d="M 180.248638 35.788482 
L 180.437743 35.788482 
Q 181.320233 35.788482 183.085214 35.69393 
Q 184.850195 35.599377 185.732685 35.599377 
Q 187.277043 35.599377 188.474708 35.835759 
Q 189.672374 36.07214 190.696693 36.655214 
Q 191.721012 37.238288 192.272568 38.35716 
Q 192.824125 39.476031 192.824125 41.083424 
Q 192.824125 46.567471 182.707004 46.567471 
Q 182.675486 46.567471 180.815953 46.283813 
L 180.248638 46.000156 
M 180.248638 27.562412 
Q 181.887549 26.679922 183.841634 26.71144 
Q 186.110895 26.71144 188.143774 28.035175 
Q 190.176654 29.358911 190.176654 31.533619 
Q 190.176654 32.825837 189.625097 33.582257 
Q 189.073541 34.338677 188.348638 34.527782 
Q 187.623735 34.716887 186.630934 35.06358 
Q 185.638132 35.410272 185.070817 35.883035 
L 180.248638 35.788482 
M 179.775875 27.656965 
Q 179.996498 28.949183 179.933463 32.494903 
Q 179.870428 36.040623 180.437743 37.301323 
Q 180.437743 38.309883 180.390467 40.358521 
Q 180.343191 42.40716 180.343191 43.447237 
L 180.343191 45.243735 
L 180.154086 46.000156 
" clip-path="url(#p2882e9e05b)" style="fill: none; stroke: #000000; stroke-linejoin: miter"/>
   </g>
  </g>
  <g id="axes_13">
   <g id="patch_12">
    <path d="M 205.7616 35.032717 
Q 204.71189 34.582841 203.737159 34.69531 
Q 200.700497 35.032717 198.788524 36.701007 
Q 196.876552 38.369297 196.876552 41.330979 
Q 196.876552 43.917766 198.882248 45.6048 
Q 200.887945 47.291834 203.512221 47.291834 
Q 205.874069 47.291834 206.998759 45.361117 
Q 208.123448 43.4304 208.123448 40.881103 
Q 208.123448 39.643945 207.711062 38.706703 
Q 207.298676 37.769462 206.773821 37.300841 
Q 206.248966 36.832221 205.499172 36.119917 
Q 204.749379 35.407614 204.299503 34.69531 
L 203.062345 34.245434 
" clip-path="url(#pb695bfbb16)" style="fill: none; stroke: #000000; stroke-linejoin: miter"/>
   </g>
  </g>
  <g id="axes_14">
   <g id="patch_13">
    <path d="M 218.587531 45.979697 
Q 218.550041 46.017186 218.418828 46.054676 
Q 218.287614 46.092166 218.325103 46.167145 
Q 218.325103 46.579531 218.7 46.579531 
Q 219.037407 46.579531 219.037407 46.092166 
Q 219.112386 45.867228 218.831214 45.754759 
Q 218.550041 45.64229 218.362593 45.754759 
" clip-path="url(#p519f9d337a)" style="fill: none; stroke: #000000; stroke-linejoin: miter"/>
   </g>
  </g>
 </g>
 <defs>
  <clipPath id="pb7784fafd4">
   <rect x="2.738979" y="8.64" width="10.722041" height="54.36"/>
  </clipPath>
  <clipPath id="p466ab916f9">
   <rect x="16.2" y="8.881927" width="16.2" height="53.876147"/>
  </clipPath>
  <clipPath id="padfae6f116">
   <rect x="38.231876" y="8.64" width="4.536248" height="54.36"/>
  </clipPath>
  <clipPath id="pa92db3ad96">
   <rect x="49.483241" y="8.64" width="14.433517" height="54.36"/>
  </clipPath>
  <clipPath id="pe798003f5b">
   <rect x="81" y="15.777338" width="16.2" height="40.085324"/>
  </clipPath>
  <clipPath id="p26e0e6fd18">
   <rect x="99.938979" y="8.64" width="10.722041" height="54.36"/>
  </clipPath>
  <clipPath id="p364526de89">
   <rect x="113.4" y="10.777356" width="16.2" height="50.085288"/>
  </clipPath>
  <clipPath id="pa1da3a45c3">
   <rect x="131.364248" y="8.64" width="12.671503" height="54.36"/>
  </clipPath>
  <clipPath id="p147e9dbc58">
   <rect x="145.8" y="9.426742" width="16.2" height="52.786517"/>
  </clipPath>
  <clipPath id="p2882e9e05b">
   <rect x="178.2" y="12.969805" width="16.2" height="45.700389"/>
  </clipPath>
  <clipPath id="pb695bfbb16">
   <rect x="195.002069" y="8.64" width="14.995862" height="54.36"/>
  </clipPath>
  <clipPath id="p519f9d337a">
   <rect x="216.413131" y="8.64" width="4.573738" height="54.36"/>
  </clipPath>
 </defs>
</svg>
