<?xml version="1.0" encoding="utf-8" standalone="no"?>
<!DOCTYPE svg PUBLIC "-//W3C//DTD SVG 1.1//EN"
  "http://www.w3.org/Graphics/SVG/1.1/DTD/svg11.dtd">
<svg xmlns:xlink="http://www.w3.org/1999/xlink" width="252pt" height="72pt" viewBox="0 0 252 72" xmlns="http://www.w3.org/2000/svg" version="1.1">
 <metadata>
  <rdf:RDF xmlns:dc="http://purl.org/dc/elements/1.1/" xmlns:cc="http://creativecommons.org/ns#" xmlns:rdf="http://www.w3.org/1999/02/22-rdf-syntax-ns#">
   <cc:Work>
    <dc:type rdf:resource="http://purl.org/dc/dcmitype/StillImage"/>
    <dc:date>2023-02-13T20:29:58.427730</dc:date>
    <dc:format>image/svg+xml</dc:format>
    <dc:creator>
     <cc:Agent>
      <dc:title>Matplotlib v3.6.1, https://matplotlib.org/</dc:title>
     </cc:Agent>
    </dc:creator>
   </cc:Work>
  </rdf:RDF>
 </metadata>
 <defs>
  <style type="text/css">*{stroke-linejoin: round; stroke-linecap: butt}</style>
 </defs>
 <g id="figure_1">
  <g id="patch_1">
   <path d="M 0 72 
L 252 72 
L 252 0 
L 0 0 
z
" style="fill: #8fff9f"/>
  </g>
  <g id="axes_1">
   <g id="patch_2">
    <path d="M 1.716102 34.687373 
L 2.230932 34.687373 
Q 6.383898 34.344153 14.415254 34.395636 
Q 22.44661 34.447119 26.633898 34.172542 
" clip-path="url(#pd0f28a208d)" style="fill: none; stroke: #000000; stroke-linejoin: miter"/>
   </g>
  </g>
  <g id="axes_2">
   <g id="patch_3">
    <path d="M 48.526719 43.06994 
Q 49.039686 43.85649 50.629885 44.540446 
Q 52.220084 45.224403 52.527865 45.42959 
L 54.545537 46.626514 
M 49.244873 33.015778 
L 49.244873 34.041713 
Q 49.244873 38.761013 47.859861 41.462642 
Q 46.474849 44.16427 43.089264 46.455525 
L 41.242581 47.071086 
M 50.065621 27.065356 
Q 49.723643 27.373136 49.330368 28.10839 
Q 48.937093 28.843643 48.834499 29.014632 
L 47.808565 31.066502 
M 43.602232 27.680917 
Q 43.94421 27.578323 45.20953 27.561224 
Q 46.474849 27.544125 47.398191 27.373136 
L 53.040832 26.552388 
L 54.887515 26.449795 
M 44.012606 31.271689 
L 44.422979 31.271689 
Q 45.99608 31.271689 49.398764 30.707425 
Q 52.801448 30.14316 54.477141 30.14316 
Q 54.921713 30.14316 54.955911 30.177358 
Q 54.990109 30.211556 54.990109 30.348347 
Q 54.990109 35.136043 54.545537 38.248046 
L 54.442943 41.052268 
M 44.422979 31.476876 
L 44.422979 32.605404 
Q 44.457177 36.059385 43.807419 39.308179 
Q 43.739023 39.513366 43.739023 40.282817 
Q 43.739023 41.052268 43.499638 41.154861 
M 30.059891 41.120663 
Q 30.983233 40.641894 32.898311 40.111828 
Q 34.81339 39.581761 35.59994 39.273981 
Q 36.318094 38.9662 36.950754 38.778112 
Q 37.583414 38.590024 38.643546 38.367738 
Q 39.703679 38.145452 40.045657 38.077057 
L 41.58456 37.769276 
M 37.138842 29.83538 
Q 36.865259 31.374282 36.215501 37.016924 
L 36.215501 37.735078 
L 36.010314 38.248046 
M 31.598794 30.758721 
Q 31.872376 30.690326 32.368245 30.62193 
Q 32.864113 30.553534 33.257388 30.450941 
Q 33.650663 30.348347 33.958444 30.14316 
L 41.550362 29.322413 
" clip-path="url(#p8508844f89)" style="fill: none; stroke: #000000; stroke-linejoin: miter"/>
   </g>
  </g>
  <g id="axes_3">
   <g id="patch_4">
    <path d="M 59.932895 27.826579 
Q 62.846053 30.242368 63.343421 30.704211 
M 58.476316 45.802895 
L 58.476316 45.483158 
Q 58.476316 44.950263 59.630921 44.541711 
Q 60.785526 44.133158 61.531579 44.133158 
Q 61.851316 44.097632 61.940132 44.150921 
Q 62.028947 44.204211 62.153289 44.310789 
Q 62.277632 44.417368 62.597368 44.452895 
Q 65.830263 45.731842 69.951316 46.477895 
Q 70.661842 46.62 71.851974 46.850921 
Q 73.042105 47.081842 73.592763 47.170658 
Q 74.143421 47.259474 75.120395 47.348289 
Q 76.097368 47.437105 77.198684 47.437105 
Q 78.051316 47.437105 78.868421 47.259474 
Q 79.685526 47.081842 80.6625 46.797632 
Q 81.639474 46.513421 82.207895 46.371316 
L 83.273684 45.731842 
M 58.938158 34.363421 
L 59.364474 34.363421 
Q 60.288158 34.505526 63.023684 33.368684 
Q 64.267105 32.871316 64.302632 33.084474 
Q 64.338158 33.368684 63.023684 34.754211 
Q 61.851316 35.997632 61.851316 37.312105 
Q 61.851316 37.738421 62.188816 38.058158 
Q 62.526316 38.377895 62.917105 38.537763 
Q 63.307895 38.697632 63.645395 39.070658 
Q 63.982895 39.443684 63.982895 39.976579 
Q 63.982895 40.047632 64.089474 40.260789 
Q 64.196053 40.473947 64.196053 40.616053 
L 64.196053 40.935789 
L 62.810526 44.452895 
M 72.296053 41.113421 
Q 72.757895 41.397632 73.432895 41.966053 
Q 74.107895 42.534474 74.285526 42.889737 
L 76.417105 43.848947 
M 72.828947 37.809474 
Q 72.793421 38.235789 72.828947 38.981842 
Q 72.828947 40.331842 72.420395 41.148947 
Q 72.011842 41.966053 71.265789 42.783158 
Q 70.519737 43.600263 70.164474 44.310789 
L 69.525 44.417368 
M 70.484211 36.637105 
L 74.321053 36.601579 
Q 74.427632 36.566053 74.658553 36.477237 
Q 74.889474 36.388421 75.084868 36.335132 
Q 75.280263 36.281842 75.493421 36.281842 
Q 75.528947 36.281842 75.564474 36.281842 
Q 75.813158 36.281842 75.866447 36.335132 
Q 75.919737 36.388421 75.919737 36.708158 
Q 75.919737 36.743684 75.6 39.798947 
L 75.173684 40.971316 
M 70.057895 36.530526 
Q 70.022368 37.063421 70.271053 37.17 
L 70.590789 41.22 
M 67.5 35.358158 
Q 68.814474 34.789737 71.709868 34.612105 
Q 74.605263 34.434474 75.813158 34.079211 
L 79.330263 33.972632 
M 72.544737 26.547632 
Q 72.686842 26.476579 72.686842 26.618684 
Q 72.686842 26.725263 72.580263 27.045 
Q 72.331579 28.004211 72.615789 28.075263 
L 72.722368 34.931842 
M 70.271053 33.297632 
Q 70.448684 33.226579 70.928289 33.191053 
Q 71.407895 33.155526 71.656579 32.977895 
L 76.878947 32.658158 
M 69.418421 29.958158 
L 69.951316 29.958158 
Q 70.484211 29.958158 71.105921 29.869342 
Q 71.727632 29.780526 72.491447 29.638421 
Q 73.255263 29.496316 73.681579 29.425263 
L 76.239474 29.638421 
L 75.813158 32.551579 
L 75.493421 32.977895 
M 69.525 29.958158 
L 69.525 30.277895 
Q 69.560526 31.556842 69.844737 31.983158 
Q 69.986842 32.480526 70.164474 32.622632 
Q 70.235526 32.658158 70.377632 32.764737 
" clip-path="url(#pad710d840e)" style="fill: none; stroke: #000000; stroke-linejoin: miter"/>
   </g>
  </g>
  <g id="axes_4">
   <g id="patch_5">
    <path d="M 96.132103 34.920248 
Q 98.868848 34.020497 104.679745 33.570621 
L 109.51591 32.5584 
M 97.256793 30.42149 
Q 97.256793 30.42149 97.819138 30.42149 
Q 98.606421 30.42149 99.487428 30.252786 
Q 100.368434 30.084083 101.43689 29.80291 
Q 102.505345 29.521738 103.105179 29.409269 
L 105.129621 29.184331 
M 100.480903 43.39291 
L 100.705841 43.39291 
Q 101.530614 43.917766 103.405097 45.473586 
Q 105.279579 47.029407 106.891634 47.7792 
M 98.156545 40.881103 
L 98.71889 40.881103 
Q 102.467855 40.506207 105.841924 39.606455 
Q 106.704186 39.306538 106.985359 39.381517 
Q 107.266531 39.456497 107.154062 39.737669 
Q 107.041593 40.018841 106.404269 40.843614 
L 103.892462 44.48011 
L 103.330117 45.154924 
M 101.868021 25.810262 
L 100.743331 34.920248 
Q 100.405924 37.469545 100.405924 37.507034 
L 99.656131 40.243779 
L 99.431193 41.593407 
M 92.420628 31.883586 
Q 92.383138 31.996055 92.401883 32.502166 
Q 92.420628 33.008276 92.420628 33.120745 
Q 92.420628 35.032717 92.551841 37.282097 
Q 92.683055 39.531476 92.907993 42.211986 
Q 93.132931 44.892497 93.20791 46.167145 
L 93.095441 47.404303 
M 95.232352 26.597545 
Q 93.995193 29.709186 91.633345 32.783338 
L 88.93409 34.69531 
" clip-path="url(#pd35b5a325d)" style="fill: none; stroke: #000000; stroke-linejoin: miter"/>
   </g>
  </g>
  <g id="axes_5">
   <g id="patch_6">
    <path d="M 119.102338 40.656166 
Q 121.464186 39.906372 124.050972 39.606455 
Q 126.637759 39.306538 130.33049 39.194069 
Q 134.023221 39.0816 135.410338 38.969131 
M 126.975166 36.269876 
L 126.975166 36.719752 
Q 127.087634 37.806952 127.331317 39.831393 
Q 127.575 41.855834 127.724959 43.449145 
Q 127.874917 45.042455 127.912407 46.579531 
Q 127.949897 49.091338 127.53751 49.128828 
Q 127.162614 49.128828 126.45031 47.854179 
L 125.4006 46.467062 
M 122.139 33.458152 
Q 122.326448 33.495641 122.588876 33.233214 
L 124.838255 33.233214 
Q 124.875745 33.233214 127.649979 33.008276 
L 132.411166 32.220993 
Q 132.186228 32.333462 131.792586 32.577145 
Q 131.398945 32.820828 131.286476 32.895807 
L 127.312572 36.157407 
M 117.677731 29.25931 
L 129.037097 29.034372 
Q 130.386724 28.959393 132.954766 28.584497 
Q 135.522807 28.2096 136.797455 28.134621 
Q 138.259552 28.059641 138.259552 28.24709 
Q 138.259552 28.284579 137.922145 29.146841 
L 135.785234 31.621159 
M 116.890448 29.146841 
Q 118.465014 29.971614 119.252297 31.50869 
L 119.477234 32.071034 
M 133.198448 24.310676 
Q 132.598614 24.98549 132.411166 26.222648 
L 131.398945 28.472028 
M 124.988214 25.322897 
Q 125.063193 25.397876 125.213152 25.716538 
Q 125.36311 26.0352 125.550559 26.110179 
L 126.562779 27.797214 
M 120.714393 25.772772 
L 121.726614 28.584497 
" clip-path="url(#pda89b92f35)" style="fill: none; stroke: #000000; stroke-linejoin: miter"/>
   </g>
  </g>
  <g id="axes_6">
   <g id="patch_7">
    <path d="M 157.836972 42.980524 
Q 158.0994 43.242952 158.736724 43.711572 
Q 159.374048 44.180193 159.636476 44.442621 
L 164.022766 47.366814 
M 149.176862 31.958566 
L 149.4018 31.958566 
Q 149.589248 31.958566 149.870421 32.089779 
Q 150.151593 32.220993 150.507745 32.408441 
Q 150.863897 32.59589 150.976366 32.633379 
L 153.675621 34.432883 
M 148.614517 35.332634 
Q 149.064393 35.670041 150.132848 36.082428 
Q 151.201303 36.494814 151.651179 36.794731 
L 152.213524 37.357076 
M 146.1402 39.718924 
L 147.377359 39.718924 
Q 149.926655 39.718924 152.832103 39.531476 
Q 155.737552 39.344028 159.317814 39.025366 
Q 162.898076 38.706703 164.810048 38.594234 
M 156.712283 31.396221 
Q 156.674793 31.658648 156.712283 32.745848 
Q 156.712283 35.445103 155.96249 37.544524 
Q 155.212697 39.643945 153.881814 42.080772 
Q 152.550931 44.5176 151.876117 46.354593 
L 149.851676 48.603972 
M 153.900559 24.98549 
Q 153.975538 25.022979 155.362655 25.660303 
L 156.037469 26.560055 
M 147.26489 30.046593 
L 150.52649 29.821655 
Q 152.063566 29.634207 155.250186 29.090607 
Q 158.436807 28.547007 161.023593 28.228345 
Q 163.610379 27.909683 165.7098 27.909683 
Q 165.222434 28.809434 164.922517 29.484248 
L 164.135234 31.283752 
M 147.714766 27.684745 
Q 147.414848 28.097131 147.489828 29.25931 
Q 147.527317 29.784166 147.152421 30.608938 
L 146.477607 33.083255 
" clip-path="url(#p84f2f48c34)" style="fill: none; stroke: #000000; stroke-linejoin: miter"/>
   </g>
  </g>
  <g id="axes_7">
   <g id="patch_8">
    <path d="M 183.619087 46.42392 
Q 184.275 46.241722 185.933001 46.132404 
Q 187.591003 46.023085 188.429113 45.768008 
L 196.628021 45.658689 
M 195.097558 37.022506 
Q 195.097558 37.058946 193.694634 40.356729 
Q 192.29171 43.654512 192.25527 45.330733 
L 191.927314 45.986645 
M 189.194344 38.006375 
Q 189.303663 38.188573 189.722719 38.899145 
Q 190.141774 39.609717 190.396851 39.974113 
L 191.599357 41.285938 
M 186.680013 40.192751 
L 187.007969 40.192751 
Q 187.372365 40.192751 187.79142 40.575366 
Q 188.210476 40.957982 188.629531 41.504576 
Q 189.048586 42.05117 189.194344 42.160488 
L 189.850257 43.035039 
M 186.461375 35.164087 
L 192.583226 35.054769 
M 188.866388 28.386324 
Q 189.485861 28.969357 190.542609 30.171864 
Q 191.599357 31.37437 192.21883 31.993843 
Q 192.838303 32.613316 193.949711 33.214569 
Q 195.061118 33.815823 196.372943 33.961581 
M 189.63162 27.074499 
Q 189.376542 27.438895 188.68419 28.513862 
Q 187.991838 29.58883 187.572783 30.135424 
Q 187.153728 30.682018 186.479595 31.483689 
Q 185.805463 32.28536 185.076671 32.777294 
Q 184.347879 33.269229 183.509769 33.524306 
L 182.416581 34.0709 
M 171.921979 43.435874 
Q 172.72365 43.107918 174.235893 42.415566 
Q 175.748136 41.723213 176.750225 41.322378 
Q 177.752314 40.921542 179.064139 40.520707 
L 178.663303 40.192751 
M 174.326992 29.880347 
L 174.326992 30.317622 
Q 174.363432 31.009974 174.290553 31.775206 
Q 174.217674 32.540437 174.071915 33.487866 
Q 173.926157 34.435296 173.889717 34.90901 
Q 173.853278 35.127648 173.707519 35.692461 
Q 173.561761 36.257275 173.561761 36.548792 
Q 173.488882 36.986067 173.889717 36.840308 
Q 173.999036 36.840308 174.254113 36.73099 
Q 174.727828 36.512352 174.873586 36.548792 
Q 175.493059 36.69455 177.369698 36.421253 
Q 179.246337 36.147956 180.813239 35.82 
L 182.416581 35.492044 
Q 182.416581 36.69455 181.778888 42.05117 
Q 181.141195 47.407789 180.813239 47.407789 
Q 180.448843 47.407789 179.938689 46.952294 
Q 179.428535 46.496799 179.246337 46.42392 
L 178.08027 45.54937 
M 172.79653 28.568522 
L 179.975129 27.621093 
L 179.282776 31.775206 
L 178.517545 34.94545 
" clip-path="url(#pfb1e3b6cad)" style="fill: none; stroke: #000000; stroke-linejoin: miter"/>
   </g>
  </g>
  <g id="axes_8">
   <g id="patch_9">
    <path d="M 213.093621 42.043283 
Q 213.093621 42.043283 212.306338 42.043283 
Q 211.294117 42.043283 210.675538 42.811821 
Q 210.056959 43.580359 210.056959 44.630069 
Q 210.019469 45.679779 210.750517 46.260869 
Q 211.481566 46.841959 212.531276 46.65451 
Q 212.831193 46.617021 213.318559 46.579531 
Q 213.805924 46.542041 214.068352 46.504552 
Q 214.330779 46.467062 214.649441 46.317103 
Q 214.968103 46.167145 215.099317 45.810993 
Q 215.230531 45.454841 215.230531 44.855007 
Q 215.230531 44.592579 215.118062 44.330152 
Q 215.005593 44.067724 214.818145 43.749062 
Q 214.630697 43.4304 214.555717 43.280441 
L 213.431028 42.605628 
" clip-path="url(#pa2c3187c2c)" style="fill: none; stroke: #000000; stroke-linejoin: miter"/>
   </g>
  </g>
 </g>
 <defs>
  <clipPath id="pd0f28a208d">
   <rect x="0" y="10.936525" width="28.35" height="49.766949"/>
  </clipPath>
  <clipPath id="p8508844f89">
   <rect x="28.35" y="11.026574" width="28.35" height="49.586852"/>
  </clipPath>
  <clipPath id="pad710d840e">
   <rect x="56.7" y="10.063421" width="28.35" height="51.513158"/>
  </clipPath>
  <clipPath id="pd35b5a325d">
   <rect x="87.059607" y="8.64" width="24.330786" height="54.36"/>
  </clipPath>
  <clipPath id="pda89b92f35">
   <rect x="115.015966" y="8.64" width="25.118069" height="54.36"/>
  </clipPath>
  <clipPath id="p84f2f48c34">
   <rect x="144.265717" y="8.64" width="23.318566" height="54.36"/>
  </clipPath>
  <clipPath id="pfb1e3b6cad">
   <rect x="170.1" y="9.401298" width="28.35" height="52.837404"/>
  </clipPath>
  <clipPath id="pa2c3187c2c">
   <rect x="208.144986" y="8.64" width="8.960028" height="54.36"/>
  </clipPath>
 </defs>
</svg>
