<?xml version="1.0" encoding="utf-8" standalone="no"?>
<!DOCTYPE svg PUBLIC "-//W3C//DTD SVG 1.1//EN"
  "http://www.w3.org/Graphics/SVG/1.1/DTD/svg11.dtd">
<svg xmlns:xlink="http://www.w3.org/1999/xlink" width="486pt" height="72pt" viewBox="0 0 486 72" xmlns="http://www.w3.org/2000/svg" version="1.1">
 <metadata>
  <rdf:RDF xmlns:dc="http://purl.org/dc/elements/1.1/" xmlns:cc="http://creativecommons.org/ns#" xmlns:rdf="http://www.w3.org/1999/02/22-rdf-syntax-ns#">
   <cc:Work>
    <dc:type rdf:resource="http://purl.org/dc/dcmitype/StillImage"/>
    <dc:date>2023-02-13T20:30:28.295666</dc:date>
    <dc:format>image/svg+xml</dc:format>
    <dc:creator>
     <cc:Agent>
      <dc:title>Matplotlib v3.6.1, https://matplotlib.org/</dc:title>
     </cc:Agent>
    </dc:creator>
   </cc:Work>
  </rdf:RDF>
 </metadata>
 <defs>
  <style type="text/css">*{stroke-linejoin: round; stroke-linecap: butt}</style>
 </defs>
 <g id="figure_1">
  <g id="patch_1">
   <path d="M 0 72 
L 486 72 
L 486 0 
L 0 0 
z
" style="fill: #8fff9f"/>
  </g>
  <g id="axes_1">
   <g id="patch_2">
    <path d="M 13.643923 36.441748 
Q 12.434968 35.094627 8.462687 35.094627 
Q 6.942857 35.094627 6.165672 35.146439 
Q 5.388486 35.198252 4.38678 35.440043 
Q 3.385075 35.681834 2.901493 36.182687 
Q 2.41791 36.683539 2.072495 37.616162 
Q 1.727079 38.548785 1.727079 39.964989 
Q 1.727079 42.037484 3.143284 43.280981 
Q 4.559488 44.524478 6.493817 44.524478 
Q 9.153518 44.524478 11.916844 38.721493 
Q 13.263966 35.854542 13.263966 35.82 
Q 13.609382 35.578209 13.643923 36.441748 
Q 13.643923 37.512537 14.058422 40.362217 
Q 14.472921 43.211898 14.472921 44.524478 
" clip-path="url(#p6017ef956b)" style="fill: none; stroke: #000000; stroke-linejoin: miter"/>
   </g>
  </g>
  <g id="axes_2">
   <g id="patch_3">
    <path d="M 19.838731 37.282097 
L 19.838731 37.844441 
Q 20.101159 39.868883 20.138648 41.312234 
Q 20.176138 42.755586 20.082414 44.667559 
Q 19.98869 46.579531 19.98869 48.191586 
L 20.063669 39.643945 
Q 20.063669 38.144359 21.656979 37.507034 
Q 23.25029 36.86971 24.674897 37.282097 
Q 26.586869 37.844441 27.505366 39.04411 
Q 28.423862 40.243779 28.480097 41.668386 
Q 28.536331 43.092993 28.573821 44.817517 
Q 28.61131 46.542041 28.761269 48.191586 
" clip-path="url(#p3b67952273)" style="fill: none; stroke: #000000; stroke-linejoin: miter"/>
   </g>
  </g>
  <g id="axes_3">
   <g id="patch_4">
    <path d="M 44.099007 39.568966 
Q 42.749379 38.181848 40.5 38.444276 
Q 37.650786 38.444276 36.488607 39.793903 
Q 35.326428 41.143531 35.326428 44.067724 
Q 35.326428 45.56731 36.619821 46.279614 
Q 37.913214 46.991917 39.487779 46.991917 
Q 40.799917 46.991917 41.812138 45.736014 
Q 42.824359 44.48011 43.405448 42.30571 
Q 43.986538 40.13131 44.361434 37.938166 
Q 44.736331 35.745021 44.88629 33.045766 
Q 45.036248 30.34651 45.073738 28.978138 
Q 45.111228 27.609766 45.111228 26.185159 
Q 44.88629 26.260138 44.88629 29.896634 
L 44.88629 44.292662 
L 45.673572 48.229076 
" clip-path="url(#pd664aff972)" style="fill: none; stroke: #000000; stroke-linejoin: miter"/>
   </g>
  </g>
  <g id="axes_4"/>
  <g id="axes_5">
   <g id="patch_5">
    <path d="M 76.1616 35.032717 
Q 75.11189 34.582841 74.137159 34.69531 
Q 71.100497 35.032717 69.188524 36.701007 
Q 67.276552 38.369297 67.276552 41.330979 
Q 67.276552 43.917766 69.282248 45.6048 
Q 71.287945 47.291834 73.912221 47.291834 
Q 76.274069 47.291834 77.398759 45.361117 
Q 78.523448 43.4304 78.523448 40.881103 
Q 78.523448 39.643945 78.111062 38.706703 
Q 77.698676 37.769462 77.173821 37.300841 
Q 76.648966 36.832221 75.899172 36.119917 
Q 75.149379 35.407614 74.699503 34.69531 
L 73.462345 34.245434 
" clip-path="url(#pb94bdaff32)" style="fill: none; stroke: #000000; stroke-linejoin: miter"/>
   </g>
  </g>
  <g id="axes_6">
   <g id="patch_6">
    <path d="M 84.638731 37.282097 
L 84.638731 37.844441 
Q 84.901159 39.868883 84.938648 41.312234 
Q 84.976138 42.755586 84.882414 44.667559 
Q 84.78869 46.579531 84.78869 48.191586 
L 84.863669 39.643945 
Q 84.863669 38.144359 86.456979 37.507034 
Q 88.05029 36.86971 89.474897 37.282097 
Q 91.386869 37.844441 92.305366 39.04411 
Q 93.223862 40.243779 93.280097 41.668386 
Q 93.336331 43.092993 93.373821 44.817517 
Q 93.41131 46.542041 93.561269 48.191586 
" clip-path="url(#p18d7120fc9)" style="fill: none; stroke: #000000; stroke-linejoin: miter"/>
   </g>
  </g>
  <g id="axes_7"/>
  <g id="axes_8">
   <g id="patch_7">
    <path d="M 116.663834 37.95691 
L 117.338648 37.95691 
Q 118.050952 37.95691 118.838234 37.881931 
Q 119.625517 37.806952 120.581503 37.675738 
Q 121.53749 37.544524 122.062345 37.507034 
L 126.336166 35.82 
M 122.287283 30.42149 
L 122.287283 31.43371 
Q 122.287283 33.383172 121.612469 37.207117 
Q 120.937655 41.031062 120.937655 43.018014 
Q 120.937655 43.805297 120.937655 44.105214 
Q 120.937655 44.405131 121.031379 45.042455 
Q 121.125103 45.679779 121.312552 45.960952 
Q 121.5 46.242124 121.893641 46.485807 
Q 122.287283 46.72949 122.849628 46.72949 
Q 122.962097 46.692 123.280759 46.72949 
Q 123.599421 46.766979 123.786869 46.710745 
Q 123.974317 46.65451 123.974317 46.392083 
" clip-path="url(#pc39dfd9849)" style="fill: none; stroke: #000000; stroke-linejoin: miter"/>
   </g>
  </g>
  <g id="axes_9">
   <g id="patch_8">
    <path d="M 134.213462 35.932469 
Q 134.813297 35.257655 135.806772 34.826524 
Q 136.800248 34.395393 137.7 34.470372 
Q 138.337324 34.470372 138.82469 34.639076 
Q 139.312055 34.807779 139.630717 34.995228 
Q 139.949379 35.182676 140.174317 35.670041 
Q 140.399255 36.157407 140.511724 36.419834 
Q 140.624193 36.682262 140.680428 37.375821 
Q 140.736662 38.069379 140.755407 38.331807 
Q 140.774152 38.594234 140.755407 39.419007 
Q 140.736662 40.243779 140.736662 40.431228 
Q 140.736662 41.368469 140.567959 43.242952 
Q 140.399255 45.117434 140.399255 46.054676 
Q 140.399255 46.467062 140.45549 46.823214 
Q 140.511724 47.179366 140.605448 47.610497 
Q 140.699172 48.041628 140.736662 48.304055 
L 141.186538 48.528993 
M 134.663338 23.111007 
Q 134.888276 24.798041 134.888276 29.971614 
L 134.888276 42.3432 
L 134.550869 46.841959 
L 134.325931 47.74171 
" clip-path="url(#p0039a7e009)" style="fill: none; stroke: #000000; stroke-linejoin: miter"/>
   </g>
  </g>
  <g id="axes_10">
   <g id="patch_9">
    <path d="M 147.657798 38.160826 
Q 150.630275 39.535596 155.349083 39.721376 
Q 156.872477 39.721376 157.559862 38.550963 
Q 158.247248 37.38055 158.247248 35.82 
Q 158.247248 35.299817 158.154358 34.909679 
Q 158.061468 34.519541 157.819954 34.296606 
Q 157.57844 34.07367 157.411239 33.943624 
Q 157.244037 33.813578 156.798165 33.757844 
Q 156.352294 33.70211 156.147936 33.683532 
Q 155.943578 33.664954 155.367661 33.683532 
Q 154.791743 33.70211 154.568807 33.70211 
Q 152.525229 33.70211 151.038991 35.578486 
Q 149.552752 37.454862 149.552752 39.609908 
Q 149.552752 42.619541 151.484862 44.570229 
Q 153.416972 46.520917 156.463761 46.520917 
Q 158.618807 46.818165 160.142202 44.29156 
" clip-path="url(#p57c865b0b6)" style="fill: none; stroke: #000000; stroke-linejoin: miter"/>
   </g>
  </g>
  <g id="axes_11"/>
  <g id="axes_12">
   <g id="patch_10">
    <path d="M 191.556735 34.365306 
Q 191.556735 34.365306 191.060816 34.365306 
Q 190.267347 34.365306 188.779592 34.067755 
Q 187.291837 33.770204 186.498367 33.770204 
Q 183.721224 33.770204 181.787143 35.224898 
Q 179.853061 36.679592 179.853061 39.423673 
Q 179.853061 40.94449 181.340816 42.399184 
Q 182.828571 43.853878 184.762653 44.663878 
Q 186.696735 45.473878 188.18449 45.473878 
Q 189.110204 45.473878 189.80449 45.110204 
Q 190.498776 44.746531 191.242653 44.118367 
Q 191.986531 43.490204 192.548571 43.192653 
L 192.746939 42.696735 
" clip-path="url(#p510670e870)" style="fill: none; stroke: #000000; stroke-linejoin: miter"/>
   </g>
  </g>
  <g id="axes_13">
   <g id="patch_11">
    <path d="M 196.257798 38.160826 
Q 199.230275 39.535596 203.949083 39.721376 
Q 205.472477 39.721376 206.159862 38.550963 
Q 206.847248 37.38055 206.847248 35.82 
Q 206.847248 35.299817 206.754358 34.909679 
Q 206.661468 34.519541 206.419954 34.296606 
Q 206.17844 34.07367 206.011239 33.943624 
Q 205.844037 33.813578 205.398165 33.757844 
Q 204.952294 33.70211 204.747936 33.683532 
Q 204.543578 33.664954 203.967661 33.683532 
Q 203.391743 33.70211 203.168807 33.70211 
Q 201.125229 33.70211 199.638991 35.578486 
Q 198.152752 37.454862 198.152752 39.609908 
Q 198.152752 42.619541 200.084862 44.570229 
Q 202.016972 46.520917 205.063761 46.520917 
Q 207.218807 46.818165 208.742202 44.29156 
" clip-path="url(#p884a896c07)" style="fill: none; stroke: #000000; stroke-linejoin: miter"/>
   </g>
  </g>
  <g id="axes_14">
   <g id="patch_12">
    <path d="M 218.306359 28.621986 
Q 218.531297 30.34651 218.606276 32.146014 
Q 218.681255 33.945517 218.66251 36.551048 
Q 218.643766 39.156579 218.643766 40.093821 
Q 218.643766 40.13131 218.868703 45.829738 
L 219.093641 46.841959 
" clip-path="url(#p54e8b8a7f9)" style="fill: none; stroke: #000000; stroke-linejoin: miter"/>
   </g>
  </g>
  <g id="axes_15">
   <g id="patch_13">
    <path d="M 234.506359 28.621986 
Q 234.731297 30.34651 234.806276 32.146014 
Q 234.881255 33.945517 234.86251 36.551048 
Q 234.843766 39.156579 234.843766 40.093821 
Q 234.843766 40.13131 235.068703 45.829738 
L 235.293641 46.841959 
" clip-path="url(#pa2a839dd7f)" style="fill: none; stroke: #000000; stroke-linejoin: miter"/>
   </g>
  </g>
  <g id="axes_16">
   <g id="patch_14">
    <path d="M 246.657476 43.917766 
Q 246.957393 44.180193 247.969614 45.154924 
Q 248.981834 46.129655 249.544179 46.560786 
Q 250.106524 46.991917 251.13749 47.385559 
Q 252.168455 47.7792 253.180676 47.629241 
Q 253.85549 47.629241 254.32411 47.404303 
Q 254.792731 47.179366 255.017669 46.879448 
Q 255.242607 46.579531 255.373821 45.979697 
Q 255.505034 45.379862 255.523779 44.967476 
Q 255.542524 44.55509 255.542524 43.805297 
Q 255.542524 42.718097 254.642772 42.043283 
Q 253.743021 41.368469 252.449628 41.031062 
Q 251.156234 40.693655 249.862841 40.300014 
Q 248.569448 39.906372 247.669697 38.987876 
Q 246.769945 38.069379 246.769945 36.607283 
Q 246.769945 36.082428 246.938648 35.726276 
Q 247.107352 35.370124 247.500993 35.145186 
Q 247.894634 34.920248 248.175807 34.807779 
Q 248.456979 34.69531 249.113048 34.639076 
Q 249.769117 34.582841 249.956566 34.582841 
Q 250.144014 34.582841 250.818828 34.582841 
Q 252.018497 34.582841 252.599586 34.995228 
Q 253.180676 35.407614 253.499338 36.026193 
Q 253.818 36.644772 254.080428 36.832221 
" clip-path="url(#pb413b0a310)" style="fill: none; stroke: #000000; stroke-linejoin: miter"/>
   </g>
  </g>
  <g id="axes_17"/>
  <g id="axes_18">
   <g id="patch_15">
    <path d="M 278.720069 39.868883 
L 278.720069 39.419007 
Q 278.720069 37.769462 280.463338 36.682262 
Q 282.206607 35.595062 283.893641 35.595062 
Q 286.105531 35.595062 287.473903 36.794731 
Q 288.842276 37.9944 288.842276 40.20629 
Q 288.842276 42.30571 287.024028 43.336676 
Q 285.205779 44.367641 282.99389 44.367641 
Q 282.319076 44.367641 281.812966 44.255172 
Q 281.306855 44.142703 280.688276 43.917766 
Q 280.069697 43.692828 279.619821 43.580359 
L 278.495131 42.568138 
M 278.157724 36.832221 
Q 278.6076 38.444276 278.870028 40.262524 
Q 279.132455 42.080772 279.18869 43.749062 
Q 279.244924 45.417352 279.282414 47.27309 
Q 279.319903 49.128828 279.282414 50.778372 
L 279.169945 57.863917 
" clip-path="url(#p734d733f36)" style="fill: none; stroke: #000000; stroke-linejoin: miter"/>
   </g>
  </g>
  <g id="axes_19">
   <g id="patch_16">
    <path d="M 293.457798 38.160826 
Q 296.430275 39.535596 301.149083 39.721376 
Q 302.672477 39.721376 303.359862 38.550963 
Q 304.047248 37.38055 304.047248 35.82 
Q 304.047248 35.299817 303.954358 34.909679 
Q 303.861468 34.519541 303.619954 34.296606 
Q 303.37844 34.07367 303.211239 33.943624 
Q 303.044037 33.813578 302.598165 33.757844 
Q 302.152294 33.70211 301.947936 33.683532 
Q 301.743578 33.664954 301.167661 33.683532 
Q 300.591743 33.70211 300.368807 33.70211 
Q 298.325229 33.70211 296.838991 35.578486 
Q 295.352752 37.454862 295.352752 39.609908 
Q 295.352752 42.619541 297.284862 44.570229 
Q 299.216972 46.520917 302.263761 46.520917 
Q 304.418807 46.818165 305.942202 44.29156 
" clip-path="url(#pee839bba1a)" style="fill: none; stroke: #000000; stroke-linejoin: miter"/>
   </g>
  </g>
  <g id="axes_20">
   <g id="patch_17">
    <path d="M 312.413462 32.783338 
Q 312.938317 34.507862 313.069531 36.457324 
Q 313.200745 38.406786 313.125766 40.956083 
Q 313.050786 43.505379 313.088276 44.705048 
L 313.200745 46.054676 
L 313.200745 45.829738 
Q 313.200745 44.667559 312.919572 42.30571 
Q 312.6384 39.943862 312.6384 38.744193 
Q 312.6384 36.419834 313.650621 34.882759 
Q 314.662841 33.345683 316.687283 33.345683 
Q 317.399586 33.345683 317.736993 33.626855 
Q 318.0744 33.908028 318.336828 34.432883 
Q 318.599255 34.957738 318.936662 35.257655 
L 319.386538 36.832221 
" clip-path="url(#pa599346196)" style="fill: none; stroke: #000000; stroke-linejoin: miter"/>
   </g>
  </g>
  <g id="axes_21">
   <g id="patch_18">
    <path d="M 325.784141 38.85304 
L 326.212335 38.85304 
Q 327.03304 38.85304 327.996476 38.745991 
Q 328.959912 38.638943 330.119604 38.460529 
Q 331.279295 38.282115 331.885903 38.210749 
L 338.415859 35.427489 
M 338.094714 25.793128 
Q 337.809251 25.721762 336.774449 25.275727 
Q 335.739648 24.829692 335.097357 24.93674 
Q 334.455066 24.93674 333.937665 25.150837 
Q 333.420264 25.364934 333.081278 25.793128 
Q 332.742291 26.221322 332.47467 26.685198 
Q 332.207048 27.149075 332.064317 27.862731 
Q 331.921586 28.576388 331.814537 29.129471 
Q 331.707489 29.682555 331.689648 30.50326 
Q 331.671806 31.323965 331.653965 31.77 
Q 331.636123 32.216035 331.653965 32.965374 
Q 331.671806 33.714714 331.671806 33.928811 
Q 331.671806 36.605022 332.367621 41.850396 
Q 333.063436 47.095771 333.063436 49.771982 
Q 332.99207 50.057445 332.956388 50.681894 
Q 332.920705 51.306344 332.813656 51.805903 
Q 332.706608 52.305463 332.421145 52.555242 
" clip-path="url(#p44c26c5d27)" style="fill: none; stroke: #000000; stroke-linejoin: miter"/>
   </g>
  </g>
  <g id="axes_22">
   <g id="patch_19">
    <path d="M 351.5616 35.032717 
Q 350.51189 34.582841 349.537159 34.69531 
Q 346.500497 35.032717 344.588524 36.701007 
Q 342.676552 38.369297 342.676552 41.330979 
Q 342.676552 43.917766 344.682248 45.6048 
Q 346.687945 47.291834 349.312221 47.291834 
Q 351.674069 47.291834 352.798759 45.361117 
Q 353.923448 43.4304 353.923448 40.881103 
Q 353.923448 39.643945 353.511062 38.706703 
Q 353.098676 37.769462 352.573821 37.300841 
Q 352.048966 36.832221 351.299172 36.119917 
Q 350.549379 35.407614 350.099503 34.69531 
L 348.862345 34.245434 
" clip-path="url(#pb8dd6fb9d1)" style="fill: none; stroke: #000000; stroke-linejoin: miter"/>
   </g>
  </g>
  <g id="axes_23">
   <g id="patch_20">
    <path d="M 361.013462 32.783338 
Q 361.538317 34.507862 361.669531 36.457324 
Q 361.800745 38.406786 361.725766 40.956083 
Q 361.650786 43.505379 361.688276 44.705048 
L 361.800745 46.054676 
L 361.800745 45.829738 
Q 361.800745 44.667559 361.519572 42.30571 
Q 361.2384 39.943862 361.2384 38.744193 
Q 361.2384 36.419834 362.250621 34.882759 
Q 363.262841 33.345683 365.287283 33.345683 
Q 365.999586 33.345683 366.336993 33.626855 
Q 366.6744 33.908028 366.936828 34.432883 
Q 367.199255 34.957738 367.536662 35.257655 
L 367.986538 36.832221 
" clip-path="url(#p2258d3c365)" style="fill: none; stroke: #000000; stroke-linejoin: miter"/>
   </g>
  </g>
  <g id="axes_24">
   <g id="patch_21">
    <path d="M 374.408036 34.879821 
Q 374.914286 36.073125 375.203571 42.871339 
Q 375.348214 46.632054 375.6375 46.632054 
Q 375.673661 46.632054 375.709821 46.595893 
Q 376.216071 46.017321 376.270312 44.588973 
Q 376.324554 43.160625 376.107589 41.750357 
Q 375.890625 40.340089 375.6375 38.712857 
Q 375.384375 37.085625 375.384375 36.398571 
Q 375.384375 35.169107 375.764062 33.939643 
Q 376.14375 32.710179 377.120089 32.710179 
Q 378.349554 32.710179 379.072768 34.355491 
Q 379.795982 36.000804 379.958705 37.971562 
Q 380.121429 39.942321 380.229911 41.587634 
Q 380.338393 43.232946 380.483036 43.232946 
Q 380.627679 43.232946 380.71808 41.497232 
Q 380.808482 39.761518 380.935045 37.700357 
Q 381.061607 35.639196 381.784821 33.903482 
Q 382.508036 32.167768 383.7375 32.167768 
Q 385.292411 33.035625 385.961384 34.771339 
Q 386.630357 36.507054 386.594196 38.188527 
Q 386.558036 39.87 386.576116 42.057723 
Q 386.594196 44.245446 386.991964 45.511071 
" clip-path="url(#pe30d1df753)" style="fill: none; stroke: #000000; stroke-linejoin: miter"/>
   </g>
  </g>
  <g id="axes_25">
   <g id="patch_22">
    <path d="M 397.518579 29.071862 
Q 397.143683 29.146841 397.012469 29.577972 
Q 396.881255 30.009103 396.956234 30.42149 
Q 396.956234 30.571448 396.993724 30.702662 
Q 397.031214 30.833876 397.087448 30.89011 
Q 397.143683 30.946345 397.199917 31.040069 
Q 397.256152 31.133793 397.293641 31.208772 
L 397.40611 29.859145 
M 397.40611 34.020497 
Q 396.506359 39.006621 396.281421 42.793076 
L 396.731297 45.379862 
L 397.068703 46.054676 
" clip-path="url(#p16cdb3643b)" style="fill: none; stroke: #000000; stroke-linejoin: miter"/>
   </g>
  </g>
  <g id="axes_26">
   <g id="patch_23">
    <path d="M 408.638731 37.282097 
L 408.638731 37.844441 
Q 408.901159 39.868883 408.938648 41.312234 
Q 408.976138 42.755586 408.882414 44.667559 
Q 408.78869 46.579531 408.78869 48.191586 
L 408.863669 39.643945 
Q 408.863669 38.144359 410.456979 37.507034 
Q 412.05029 36.86971 413.474897 37.282097 
Q 415.386869 37.844441 416.305366 39.04411 
Q 417.223862 40.243779 417.280097 41.668386 
Q 417.336331 43.092993 417.373821 44.817517 
Q 417.41131 46.542041 417.561269 48.191586 
" clip-path="url(#p45d1452bdf)" style="fill: none; stroke: #000000; stroke-linejoin: miter"/>
   </g>
  </g>
  <g id="axes_27">
   <g id="patch_24">
    <path d="M 434.087191 39.096404 
Q 433.83236 39.023596 432.86764 38.623146 
Q 431.902921 38.222697 431.24764 38.077079 
Q 430.59236 37.931461 429.937079 38.00427 
Q 427.315955 38.00427 425.677753 40.388764 
Q 424.039551 42.773258 424.039551 45.430787 
Q 424.039551 47.068989 429.281798 47.068989 
Q 430.847191 47.068989 432.175955 45.558202 
Q 433.504719 44.047416 434.178202 42.172584 
Q 434.851685 40.297753 434.851685 38.768764 
Q 434.851685 37.27618 434.815281 36.984944 
L 434.742472 38.077079 
Q 434.742472 38.550337 434.742472 38.987191 
Q 434.778876 40.188539 434.979101 42.281798 
Q 435.179326 44.375056 435.343146 46.049663 
Q 435.506966 47.72427 435.543371 49.872135 
Q 435.579775 52.02 435.415955 53.658202 
Q 435.252135 55.296404 434.687865 56.971011 
Q 434.123596 58.645618 433.195281 59.737753 
Q 432.266966 60.829888 430.665169 61.521573 
Q 429.063371 62.213258 426.915506 62.213258 
Q 425.277303 62.213258 424.185169 61.466966 
Q 423.093034 60.720674 423.093034 59.155281 
Q 423.020225 58.936854 423.056629 58.936854 
Q 423.093034 58.936854 423.202247 58.936854 
Q 423.311461 58.936854 423.311461 58.82764 
" clip-path="url(#pa417fd4c8e)" style="fill: none; stroke: #000000; stroke-linejoin: miter"/>
   </g>
  </g>
 </g>
 <defs>
  <clipPath id="p6017ef956b">
   <rect x="0" y="10.777356" width="16.2" height="50.085288"/>
  </clipPath>
  <clipPath id="p3b67952273">
   <rect x="17.964248" y="8.64" width="12.671503" height="54.36"/>
  </clipPath>
  <clipPath id="pd664aff972">
   <rect x="33.451945" y="8.64" width="14.09611" height="54.36"/>
  </clipPath>
  <clipPath id="pb94bdaff32">
   <rect x="65.402069" y="8.64" width="14.995862" height="54.36"/>
  </clipPath>
  <clipPath id="p18d7120fc9">
   <rect x="82.764248" y="8.64" width="12.671503" height="54.36"/>
  </clipPath>
  <clipPath id="pc39dfd9849">
   <rect x="114.789352" y="8.64" width="13.421297" height="54.36"/>
  </clipPath>
  <clipPath id="p0039a7e009">
   <rect x="132.338979" y="8.64" width="10.722041" height="54.36"/>
  </clipPath>
  <clipPath id="p57c865b0b6">
   <rect x="145.8" y="8.881927" width="16.2" height="53.876147"/>
  </clipPath>
  <clipPath id="p510670e870">
   <rect x="178.2" y="11.850612" width="16.2" height="47.938776"/>
  </clipPath>
  <clipPath id="p884a896c07">
   <rect x="194.4" y="8.881927" width="16.2" height="53.876147"/>
  </clipPath>
  <clipPath id="p54e8b8a7f9">
   <rect x="216.431876" y="8.64" width="4.536248" height="54.36"/>
  </clipPath>
  <clipPath id="pa2a839dd7f">
   <rect x="232.631876" y="8.64" width="4.536248" height="54.36"/>
  </clipPath>
  <clipPath id="pb413b0a310">
   <rect x="244.782993" y="8.64" width="12.634014" height="54.36"/>
  </clipPath>
  <clipPath id="p734d733f36">
   <rect x="276.283241" y="8.64" width="14.433517" height="54.36"/>
  </clipPath>
  <clipPath id="pee839bba1a">
   <rect x="291.6" y="8.881927" width="16.2" height="53.876147"/>
  </clipPath>
  <clipPath id="pa599346196">
   <rect x="310.538979" y="8.64" width="10.722041" height="54.36"/>
  </clipPath>
  <clipPath id="p44c26c5d27">
   <rect x="324" y="9.949956" width="16.2" height="51.740088"/>
  </clipPath>
  <clipPath id="pb8dd6fb9d1">
   <rect x="340.802069" y="8.64" width="14.995862" height="54.36"/>
  </clipPath>
  <clipPath id="p2258d3c365">
   <rect x="359.138979" y="8.64" width="10.722041" height="54.36"/>
  </clipPath>
  <clipPath id="pe30d1df753">
   <rect x="372.6" y="9.603482" width="16.2" height="52.433036"/>
  </clipPath>
  <clipPath id="p16cdb3643b">
   <rect x="394.406938" y="8.64" width="4.986124" height="54.36"/>
  </clipPath>
  <clipPath id="p45d1452bdf">
   <rect x="406.764248" y="8.64" width="12.671503" height="54.36"/>
  </clipPath>
  <clipPath id="pa417fd4c8e">
   <rect x="421.2" y="9.426742" width="16.2" height="52.786517"/>
  </clipPath>
 </defs>
</svg>
