<?xml version="1.0" encoding="utf-8" standalone="no"?>
<!DOCTYPE svg PUBLIC "-//W3C//DTD SVG 1.1//EN"
  "http://www.w3.org/Graphics/SVG/1.1/DTD/svg11.dtd">
<svg xmlns:xlink="http://www.w3.org/1999/xlink" width="234pt" height="72pt" viewBox="0 0 234 72" xmlns="http://www.w3.org/2000/svg" version="1.1">
 <metadata>
  <rdf:RDF xmlns:dc="http://purl.org/dc/elements/1.1/" xmlns:cc="http://creativecommons.org/ns#" xmlns:rdf="http://www.w3.org/1999/02/22-rdf-syntax-ns#">
   <cc:Work>
    <dc:type rdf:resource="http://purl.org/dc/dcmitype/StillImage"/>
    <dc:date>2023-02-15T23:04:37.734249</dc:date>
    <dc:format>image/svg+xml</dc:format>
    <dc:creator>
     <cc:Agent>
      <dc:title>Matplotlib v3.6.1, https://matplotlib.org/</dc:title>
     </cc:Agent>
    </dc:creator>
   </cc:Work>
  </rdf:RDF>
 </metadata>
 <defs>
  <style type="text/css">*{stroke-linejoin: round; stroke-linecap: butt}</style>
 </defs>
 <g id="figure_1">
  <g id="patch_1">
   <path d="M 0 72 
L 234 72 
L 234 0 
L 0 0 
z
" style="fill: #8fff9f"/>
  </g>
  <g id="axes_1">
   <g id="patch_2">
    <path d="M 8.456152 30.309021 
Q 7.968786 30.42149 8.381172 30.833876 
Q 8.756069 31.208772 8.831048 30.946345 
Q 8.868538 30.871366 8.793559 30.646428 
Q 8.793559 30.458979 8.718579 30.42149 
Q 8.6436 30.384 8.512386 30.42149 
Q 8.381172 30.458979 8.231214 30.42149 
L 8.118745 30.646428 
M 9.018497 33.345683 
Q 10.068207 37.731972 10.593062 40.13131 
Q 11.117917 42.530648 11.567793 46.317103 
Q 12.017669 50.103559 11.830221 53.25269 
Q 11.830221 53.440138 11.830221 54.021228 
Q 11.830221 54.602317 11.830221 54.902234 
Q 11.830221 55.202152 11.811476 55.783241 
Q 11.792731 56.364331 11.717752 56.701738 
Q 11.642772 57.039145 11.530303 57.52651 
Q 11.417834 58.013876 11.211641 58.313793 
Q 11.005448 58.61371 10.743021 58.894883 
Q 10.480593 59.176055 10.105697 59.307269 
Q 9.7308 59.438483 9.243434 59.438483 
Q 8.268703 59.438483 7.51891 59.251034 
Q 6.769117 59.063586 5.906855 58.707434 
Q 5.044593 58.351283 4.407269 58.201324 
L 4.182331 57.751448 
" clip-path="url(#pe6e05bfbaf)" style="fill: none; stroke: #000000; stroke-linejoin: miter"/>
   </g>
  </g>
  <g id="axes_2">
   <g id="patch_3">
    <path d="M 20.757228 36.157407 
L 27.842772 36.157407 
M 24.243766 39.306538 
L 24.243766 47.516772 
" clip-path="url(#p5b7d71fbc4)" style="fill: none; stroke: #000000; stroke-linejoin: miter"/>
   </g>
  </g>
  <g id="axes_3">
   <g id="patch_4">
    <path d="M 35.363917 36.382345 
Q 35.326428 36.494814 35.457641 36.701007 
Q 35.588855 36.9072 35.476386 37.057159 
L 35.476386 39.306538 
Q 35.476386 40.506207 35.813793 41.724621 
Q 36.1512 42.943034 37.013462 43.93651 
Q 37.875724 44.929986 39.075393 44.929986 
Q 40.312552 44.929986 40.987366 43.861531 
Q 41.662179 42.793076 42.112055 41.143531 
Q 42.561931 39.493986 42.899338 38.969131 
L 43.686621 36.382345 
L 43.461683 42.680607 
L 43.461683 45.154924 
Q 43.461683 47.066897 44.192731 51.00331 
Q 44.923779 54.939724 44.923779 56.964166 
Q 45.673572 59.213545 44.586372 60.188276 
Q 43.499172 61.163007 41.437241 60.78811 
Q 39.637738 60.488193 38.719241 60.169531 
Q 37.800745 59.850869 35.813793 58.988607 
L 35.701324 58.426262 
" clip-path="url(#p29ba1b9f1f)" style="fill: none; stroke: #000000; stroke-linejoin: miter"/>
   </g>
  </g>
  <g id="axes_4">
   <g id="patch_5">
    <path d="M 53.157228 36.157407 
L 60.242772 36.157407 
M 56.643766 39.306538 
L 56.643766 47.516772 
" clip-path="url(#p50430bc31e)" style="fill: none; stroke: #000000; stroke-linejoin: miter"/>
   </g>
  </g>
  <g id="axes_5">
   <g id="patch_6">
    <path d="M 68.438731 37.282097 
L 68.438731 37.844441 
Q 68.701159 39.868883 68.738648 41.312234 
Q 68.776138 42.755586 68.682414 44.667559 
Q 68.58869 46.579531 68.58869 48.191586 
L 68.663669 39.643945 
Q 68.663669 38.144359 70.256979 37.507034 
Q 71.85029 36.86971 73.274897 37.282097 
Q 75.186869 37.844441 76.105366 39.04411 
Q 77.023862 40.243779 77.080097 41.668386 
Q 77.136331 43.092993 77.173821 44.817517 
Q 77.21131 46.542041 77.361269 48.191586 
" clip-path="url(#p630179e8c0)" style="fill: none; stroke: #000000; stroke-linejoin: miter"/>
   </g>
  </g>
  <g id="axes_6"/>
  <g id="axes_7">
   <g id="patch_7">
    <path d="M 110.556735 34.365306 
Q 110.556735 34.365306 110.060816 34.365306 
Q 109.267347 34.365306 107.779592 34.067755 
Q 106.291837 33.770204 105.498367 33.770204 
Q 102.721224 33.770204 100.787143 35.224898 
Q 98.853061 36.679592 98.853061 39.423673 
Q 98.853061 40.94449 100.340816 42.399184 
Q 101.828571 43.853878 103.762653 44.663878 
Q 105.696735 45.473878 107.18449 45.473878 
Q 108.110204 45.473878 108.80449 45.110204 
Q 109.498776 44.746531 110.242653 44.118367 
Q 110.986531 43.490204 111.548571 43.192653 
L 111.746939 42.696735 
" clip-path="url(#p2c201b4fb2)" style="fill: none; stroke: #000000; stroke-linejoin: miter"/>
   </g>
  </g>
  <g id="axes_8">
   <g id="patch_8">
    <path d="M 116.232703 35.332634 
L 126.579848 35.332634 
M 125.792566 39.344028 
Q 125.792566 39.344028 122.868372 39.344028 
Q 115.895297 39.344028 115.895297 44.5176 
Q 115.895297 46.279614 117.65731 47.19811 
Q 119.419324 48.116607 121.406276 48.116607 
Q 122.643434 47.891669 123.449462 47.2356 
Q 124.25549 46.579531 124.611641 45.586055 
Q 124.967793 44.592579 125.136497 43.674083 
Q 125.3052 42.755586 125.455159 41.443448 
Q 125.605117 40.13131 125.792566 39.344028 
Q 126.879766 46.092166 126.992234 47.029407 
L 127.104703 48.154097 
" clip-path="url(#p9e52a777e9)" style="fill: none; stroke: #000000; stroke-linejoin: miter"/>
   </g>
  </g>
  <g id="axes_9">
   <g id="patch_9">
    <path d="M 140.9616 35.032717 
Q 139.91189 34.582841 138.937159 34.69531 
Q 135.900497 35.032717 133.988524 36.701007 
Q 132.076552 38.369297 132.076552 41.330979 
Q 132.076552 43.917766 134.082248 45.6048 
Q 136.087945 47.291834 138.712221 47.291834 
Q 141.074069 47.291834 142.198759 45.361117 
Q 143.323448 43.4304 143.323448 40.881103 
Q 143.323448 39.643945 142.911062 38.706703 
Q 142.498676 37.769462 141.973821 37.300841 
Q 141.448966 36.832221 140.699172 36.119917 
Q 139.949379 35.407614 139.499503 34.69531 
L 138.262345 34.245434 
" clip-path="url(#pea893d2932)" style="fill: none; stroke: #000000; stroke-linejoin: miter"/>
   </g>
  </g>
  <g id="axes_10">
   <g id="patch_10">
    <path d="M 149.0076 35.032717 
Q 149.0076 35.032717 152.381669 35.032717 
Q 152.494138 35.032717 154.237407 34.826524 
Q 155.980676 34.620331 156.992897 34.789034 
Q 158.005117 34.957738 158.005117 35.707531 
Q 158.005117 36.86971 156.992897 38.144359 
Q 155.980676 39.419007 154.518579 40.506207 
Q 153.056483 41.593407 151.594386 42.605628 
Q 150.13229 43.617848 149.120069 44.573834 
Q 148.107848 45.529821 148.107848 46.279614 
L 149.232538 46.279614 
Q 149.270028 46.279614 151.481917 46.054676 
L 159.692152 45.942207 
" clip-path="url(#p7d64681a20)" style="fill: none; stroke: #000000; stroke-linejoin: miter"/>
   </g>
  </g>
  <g id="axes_11">
   <g id="patch_11">
    <path d="M 165.488772 35.145186 
Q 165.488772 35.145186 165.488772 35.595062 
Q 165.488772 36.269876 165.376303 37.619503 
Q 165.263834 38.969131 165.263834 39.643945 
Q 165.263834 41.930814 166.500993 43.599103 
Q 167.738152 45.267393 169.875062 45.267393 
Q 171.262179 45.154924 172.030717 43.917766 
Q 172.799255 42.680607 172.949214 41.237255 
Q 173.099172 39.793903 173.3616 37.9944 
Q 173.624028 36.194897 174.036414 35.370124 
Q 174.186372 35.070207 174.186372 35.670041 
Q 174.186372 36.269876 173.923945 38.706703 
Q 173.699007 41.031062 173.699007 41.555917 
Q 173.549048 42.643117 173.886455 43.767807 
Q 174.223862 44.892497 174.936166 45.6048 
" clip-path="url(#pef1381f071)" style="fill: none; stroke: #000000; stroke-linejoin: miter"/>
   </g>
  </g>
  <g id="axes_12">
   <g id="patch_12">
    <path d="M 182.53229 29.671697 
Q 183.207103 30.159062 184.612966 31.283752 
Q 186.018828 32.408441 186.131297 32.483421 
L 187.9308 33.60811 
M 186.80611 36.982179 
L 186.131297 36.982179 
Q 183.132124 36.982179 181.98869 38.781683 
Q 180.845255 40.581186 180.845255 43.842786 
Q 180.845255 45.229903 182.119903 46.373338 
Q 183.394552 47.516772 185.006607 48.097862 
Q 186.618662 48.678952 187.9308 48.678952 
Q 191.754745 48.678952 191.754745 42.718097 
Q 191.754745 41.518428 190.873738 40.431228 
Q 189.992731 39.344028 188.624359 38.219338 
Q 187.255986 37.094648 186.80611 36.532303 
L 186.131297 36.194897 
" clip-path="url(#pb7637a75a5)" style="fill: none; stroke: #000000; stroke-linejoin: miter"/>
   </g>
  </g>
  <g id="axes_13">
   <g id="patch_13">
    <path d="M 202.387531 45.979697 
Q 202.350041 46.017186 202.218828 46.054676 
Q 202.087614 46.092166 202.125103 46.167145 
Q 202.125103 46.579531 202.5 46.579531 
Q 202.837407 46.579531 202.837407 46.092166 
Q 202.912386 45.867228 202.631214 45.754759 
Q 202.350041 45.64229 202.162593 45.754759 
" clip-path="url(#p01f4b65e00)" style="fill: none; stroke: #000000; stroke-linejoin: miter"/>
   </g>
  </g>
 </g>
 <defs>
  <clipPath id="pe6e05bfbaf">
   <rect x="2.307848" y="8.64" width="11.584303" height="54.36"/>
  </clipPath>
  <clipPath id="p5b7d71fbc4">
   <rect x="18.882745" y="8.64" width="10.83451" height="54.36"/>
  </clipPath>
  <clipPath id="p29ba1b9f1f">
   <rect x="33.451945" y="8.64" width="14.09611" height="54.36"/>
  </clipPath>
  <clipPath id="p50430bc31e">
   <rect x="51.282745" y="8.64" width="10.83451" height="54.36"/>
  </clipPath>
  <clipPath id="p630179e8c0">
   <rect x="66.564248" y="8.64" width="12.671503" height="54.36"/>
  </clipPath>
  <clipPath id="p2c201b4fb2">
   <rect x="97.2" y="11.850612" width="16.2" height="47.938776"/>
  </clipPath>
  <clipPath id="p9e52a777e9">
   <rect x="114.020814" y="8.64" width="14.958372" height="54.36"/>
  </clipPath>
  <clipPath id="pea893d2932">
   <rect x="130.202069" y="8.64" width="14.995862" height="54.36"/>
  </clipPath>
  <clipPath id="p7d64681a20">
   <rect x="146.233366" y="8.64" width="15.333269" height="54.36"/>
  </clipPath>
  <clipPath id="pef1381f071">
   <rect x="163.389352" y="8.64" width="13.421297" height="54.36"/>
  </clipPath>
  <clipPath id="pb7637a75a5">
   <rect x="178.970772" y="8.64" width="14.658455" height="54.36"/>
  </clipPath>
  <clipPath id="p01f4b65e00">
   <rect x="200.213131" y="8.64" width="4.573738" height="54.36"/>
  </clipPath>
 </defs>
</svg>
