<?xml version="1.0" encoding="utf-8" standalone="no"?>
<!DOCTYPE svg PUBLIC "-//W3C//DTD SVG 1.1//EN"
  "http://www.w3.org/Graphics/SVG/1.1/DTD/svg11.dtd">
<svg xmlns:xlink="http://www.w3.org/1999/xlink" width="630pt" height="72pt" viewBox="0 0 630 72" xmlns="http://www.w3.org/2000/svg" version="1.1">
 <metadata>
  <rdf:RDF xmlns:dc="http://purl.org/dc/elements/1.1/" xmlns:cc="http://creativecommons.org/ns#" xmlns:rdf="http://www.w3.org/1999/02/22-rdf-syntax-ns#">
   <cc:Work>
    <dc:type rdf:resource="http://purl.org/dc/dcmitype/StillImage"/>
    <dc:date>2023-02-15T23:04:17.508236</dc:date>
    <dc:format>image/svg+xml</dc:format>
    <dc:creator>
     <cc:Agent>
      <dc:title>Matplotlib v3.6.1, https://matplotlib.org/</dc:title>
     </cc:Agent>
    </dc:creator>
   </cc:Work>
  </rdf:RDF>
 </metadata>
 <defs>
  <style type="text/css">*{stroke-linejoin: round; stroke-linecap: butt}</style>
 </defs>
 <g id="figure_1">
  <g id="patch_1">
   <path d="M 0 72 
L 630 72 
L 630 0 
L 0 0 
z
" style="fill: #8fff9f"/>
  </g>
  <g id="axes_1">
   <g id="patch_2">
    <path d="M 1.653061 45.374694 
Q 5.752653 45.440816 12.761633 45.870612 
Q 13.191429 45.903673 13.373265 45.887143 
Q 13.555102 45.870612 13.951837 45.787959 
Q 14.348571 45.705306 14.546939 45.672245 
M 3.24 27.521633 
L 3.24 29.406122 
Q 3.24 31.588163 3.025102 33.985102 
Q 2.810204 36.382041 2.446531 39.291429 
Q 2.082857 42.200816 1.950612 43.787755 
L 1.653061 45.374694 
" clip-path="url(#pa50ee3d3e9)" style="fill: none; stroke: #000000; stroke-linejoin: miter"/>
   </g>
  </g>
  <g id="axes_2">
   <g id="patch_3">
    <path d="M 21.600745 33.345683 
L 21.600745 33.570621 
Q 21.600745 34.545352 22.575476 35.969959 
Q 23.550207 37.394566 24.524938 37.394566 
Q 24.899834 37.394566 25.255986 36.9072 
Q 25.612138 36.419834 25.9308 35.726276 
Q 26.249462 35.032717 26.324441 34.920248 
L 26.999255 31.771117 
M 24.562428 39.419007 
L 24.112552 47.291834 
L 23.775145 47.74171 
" clip-path="url(#pd67363125a)" style="fill: none; stroke: #000000; stroke-linejoin: miter"/>
   </g>
  </g>
  <g id="axes_3"/>
  <g id="axes_4">
   <g id="patch_4">
    <path d="M 62.494615 26.878846 
Q 61.746923 28.997308 60.282692 31.271538 
Q 58.818462 33.545769 57.400962 35.228077 
Q 55.983462 36.910385 54.456923 39.153462 
Q 52.930385 41.396538 52.120385 43.421538 
L 51.559615 45.290769 
M 50.157692 27.439615 
Q 51.777692 29.620385 55.126731 34.776346 
Q 58.475769 39.932308 60.531923 42.486923 
L 63.242308 46.131923 
" clip-path="url(#pd9bf346e0a)" style="fill: none; stroke: #000000; stroke-linejoin: miter"/>
   </g>
  </g>
  <g id="axes_5">
   <g id="patch_5">
    <path d="M 68.288772 35.145186 
Q 68.288772 35.145186 68.288772 35.595062 
Q 68.288772 36.269876 68.176303 37.619503 
Q 68.063834 38.969131 68.063834 39.643945 
Q 68.063834 41.930814 69.300993 43.599103 
Q 70.538152 45.267393 72.675062 45.267393 
Q 74.062179 45.154924 74.830717 43.917766 
Q 75.599255 42.680607 75.749214 41.237255 
Q 75.899172 39.793903 76.1616 37.9944 
Q 76.424028 36.194897 76.836414 35.370124 
Q 76.986372 35.070207 76.986372 35.670041 
Q 76.986372 36.269876 76.723945 38.706703 
Q 76.499007 41.031062 76.499007 41.555917 
Q 76.349048 42.643117 76.686455 43.767807 
Q 77.023862 44.892497 77.736166 45.6048 
" clip-path="url(#pb75ddfa49b)" style="fill: none; stroke: #000000; stroke-linejoin: miter"/>
   </g>
  </g>
  <g id="axes_6">
   <g id="patch_6">
    <path d="M 86.288276 30.608938 
Q 86.400745 30.871366 86.663172 31.602414 
Q 86.9256 32.333462 87.131793 32.783338 
Q 87.337986 33.233214 87.675393 33.758069 
Q 88.0128 34.282924 88.51891 34.507862 
Q 89.025021 34.7328 89.662345 34.657821 
Q 92.474069 34.657821 92.811476 29.25931 
M 83.926428 41.968303 
L 84.376303 41.968303 
Q 84.938648 41.968303 86.400745 42.474414 
Q 87.862841 42.980524 88.650124 42.980524 
Q 91.011972 42.980524 92.305366 42.211986 
Q 93.598759 41.443448 93.598759 39.269048 
Q 93.598759 37.132138 88.312717 37.132138 
Q 87.225517 37.132138 86.456979 37.694483 
Q 85.688441 38.256828 85.313545 39.194069 
Q 84.938648 40.13131 84.769945 41.049807 
Q 84.601241 41.968303 84.601241 42.980524 
Q 84.338814 44.105214 84.71371 44.967476 
Q 85.088607 45.829738 86.025848 46.335848 
Q 86.96309 46.841959 87.806607 47.123131 
Q 88.650124 47.404303 89.774814 47.591752 
Q 90.374648 47.704221 92.3616 47.704221 
Q 92.811476 47.81669 93.148883 47.573007 
Q 93.48629 47.329324 93.823697 46.748234 
Q 94.161103 46.167145 94.273572 46.017186 
" clip-path="url(#p18b0d50687)" style="fill: none; stroke: #000000; stroke-linejoin: miter"/>
   </g>
  </g>
  <g id="axes_7"/>
  <g id="axes_8">
   <g id="patch_7">
    <path d="M 118.013462 35.932469 
Q 118.613297 35.257655 119.606772 34.826524 
Q 120.600248 34.395393 121.5 34.470372 
Q 122.137324 34.470372 122.62469 34.639076 
Q 123.112055 34.807779 123.430717 34.995228 
Q 123.749379 35.182676 123.974317 35.670041 
Q 124.199255 36.157407 124.311724 36.419834 
Q 124.424193 36.682262 124.480428 37.375821 
Q 124.536662 38.069379 124.555407 38.331807 
Q 124.574152 38.594234 124.555407 39.419007 
Q 124.536662 40.243779 124.536662 40.431228 
Q 124.536662 41.368469 124.367959 43.242952 
Q 124.199255 45.117434 124.199255 46.054676 
Q 124.199255 46.467062 124.25549 46.823214 
Q 124.311724 47.179366 124.405448 47.610497 
Q 124.499172 48.041628 124.536662 48.304055 
L 124.986538 48.528993 
M 118.463338 23.111007 
Q 118.688276 24.798041 118.688276 29.971614 
L 118.688276 42.3432 
L 118.350869 46.841959 
L 118.125931 47.74171 
" clip-path="url(#p6090085488)" style="fill: none; stroke: #000000; stroke-linejoin: miter"/>
   </g>
  </g>
  <g id="axes_9">
   <g id="patch_8">
    <path d="M 134.4384 34.357903 
Q 134.700828 34.395393 135.038234 33.795559 
Q 135.375641 33.195724 135.900497 33.345683 
L 140.399255 29.2968 
M 133.538648 40.656166 
L 133.763586 40.656166 
Q 134.47589 40.656166 136.03171 41.330979 
Q 137.587531 42.005793 138.487283 42.005793 
Q 141.186538 42.005793 141.186538 38.744193 
Q 141.186538 36.607283 137.812469 36.607283 
Q 135.937986 36.607283 134.850786 37.750717 
Q 133.763586 38.894152 133.763586 40.768634 
Q 133.763586 43.617848 135.094469 45.454841 
Q 136.425352 47.291834 139.162097 47.291834 
Q 140.624193 47.591752 141.861352 45.6048 
" clip-path="url(#p090c876c65)" style="fill: none; stroke: #000000; stroke-linejoin: miter"/>
   </g>
  </g>
  <g id="axes_10"/>
  <g id="axes_11">
   <g id="patch_9">
    <path d="M 164.211604 28.853447 
Q 165.096246 28.825802 166.893174 28.784334 
Q 168.690102 28.742867 169.782082 28.715222 
Q 170.874061 28.687577 172.394539 28.576997 
Q 173.915017 28.466416 175.159044 28.272901 
Q 176.237201 28.107031 176.568942 28.107031 
Q 176.817747 28.107031 176.817747 28.189966 
Q 176.043686 29.876314 174.550853 31.673242 
Q 173.05802 33.470171 171.41314 34.990648 
Q 169.768259 36.511126 168.151024 37.990137 
Q 166.533788 39.469147 165.220648 41.07256 
Q 163.907509 42.675973 163.382253 44.113515 
L 170.348805 44.528191 
L 176.817747 45.191672 
" clip-path="url(#pa188ff4b89)" style="fill: none; stroke: #000000; stroke-linejoin: miter"/>
   </g>
  </g>
  <g id="axes_12">
   <g id="patch_10">
    <path d="M 182.813462 35.932469 
Q 183.413297 35.257655 184.406772 34.826524 
Q 185.400248 34.395393 186.3 34.470372 
Q 186.937324 34.470372 187.42469 34.639076 
Q 187.912055 34.807779 188.230717 34.995228 
Q 188.549379 35.182676 188.774317 35.670041 
Q 188.999255 36.157407 189.111724 36.419834 
Q 189.224193 36.682262 189.280428 37.375821 
Q 189.336662 38.069379 189.355407 38.331807 
Q 189.374152 38.594234 189.355407 39.419007 
Q 189.336662 40.243779 189.336662 40.431228 
Q 189.336662 41.368469 189.167959 43.242952 
Q 188.999255 45.117434 188.999255 46.054676 
Q 188.999255 46.467062 189.05549 46.823214 
Q 189.111724 47.179366 189.205448 47.610497 
Q 189.299172 48.041628 189.336662 48.304055 
L 189.786538 48.528993 
M 183.263338 23.111007 
Q 183.488276 24.798041 183.488276 29.971614 
L 183.488276 42.3432 
L 183.150869 46.841959 
L 182.925931 47.74171 
" clip-path="url(#p0772b6bf55)" style="fill: none; stroke: #000000; stroke-linejoin: miter"/>
   </g>
  </g>
  <g id="axes_13">
   <g id="patch_11">
    <path d="M 197.232703 35.332634 
L 207.579848 35.332634 
M 206.792566 39.344028 
Q 206.792566 39.344028 203.868372 39.344028 
Q 196.895297 39.344028 196.895297 44.5176 
Q 196.895297 46.279614 198.65731 47.19811 
Q 200.419324 48.116607 202.406276 48.116607 
Q 203.643434 47.891669 204.449462 47.2356 
Q 205.25549 46.579531 205.611641 45.586055 
Q 205.967793 44.592579 206.136497 43.674083 
Q 206.3052 42.755586 206.455159 41.443448 
Q 206.605117 40.13131 206.792566 39.344028 
Q 207.879766 46.092166 207.992234 47.029407 
L 208.104703 48.154097 
" clip-path="url(#p1fbe39285c)" style="fill: none; stroke: #000000; stroke-linejoin: miter"/>
   </g>
  </g>
  <g id="axes_14">
   <g id="patch_12">
    <path d="M 214.238731 37.282097 
L 214.238731 37.844441 
Q 214.501159 39.868883 214.538648 41.312234 
Q 214.576138 42.755586 214.482414 44.667559 
Q 214.38869 46.579531 214.38869 48.191586 
L 214.463669 39.643945 
Q 214.463669 38.144359 216.056979 37.507034 
Q 217.65029 36.86971 219.074897 37.282097 
Q 220.986869 37.844441 221.905366 39.04411 
Q 222.823862 40.243779 222.880097 41.668386 
Q 222.936331 43.092993 222.973821 44.817517 
Q 223.01131 46.542041 223.161269 48.191586 
" clip-path="url(#p9ba8219a1b)" style="fill: none; stroke: #000000; stroke-linejoin: miter"/>
   </g>
  </g>
  <g id="axes_15">
   <g id="patch_13">
    <path d="M 239.687191 39.096404 
Q 239.43236 39.023596 238.46764 38.623146 
Q 237.502921 38.222697 236.84764 38.077079 
Q 236.19236 37.931461 235.537079 38.00427 
Q 232.915955 38.00427 231.277753 40.388764 
Q 229.639551 42.773258 229.639551 45.430787 
Q 229.639551 47.068989 234.881798 47.068989 
Q 236.447191 47.068989 237.775955 45.558202 
Q 239.104719 44.047416 239.778202 42.172584 
Q 240.451685 40.297753 240.451685 38.768764 
Q 240.451685 37.27618 240.415281 36.984944 
L 240.342472 38.077079 
Q 240.342472 38.550337 240.342472 38.987191 
Q 240.378876 40.188539 240.579101 42.281798 
Q 240.779326 44.375056 240.943146 46.049663 
Q 241.106966 47.72427 241.143371 49.872135 
Q 241.179775 52.02 241.015955 53.658202 
Q 240.852135 55.296404 240.287865 56.971011 
Q 239.723596 58.645618 238.795281 59.737753 
Q 237.866966 60.829888 236.265169 61.521573 
Q 234.663371 62.213258 232.515506 62.213258 
Q 230.877303 62.213258 229.785169 61.466966 
Q 228.693034 60.720674 228.693034 59.155281 
Q 228.620225 58.936854 228.656629 58.936854 
Q 228.693034 58.936854 228.802247 58.936854 
Q 228.911461 58.936854 228.911461 58.82764 
" clip-path="url(#p67a629d30c)" style="fill: none; stroke: #000000; stroke-linejoin: miter"/>
   </g>
  </g>
  <g id="axes_16"/>
  <g id="axes_17">
   <g id="patch_14">
    <path d="M 261.248638 35.788482 
L 261.437743 35.788482 
Q 262.320233 35.788482 264.085214 35.69393 
Q 265.850195 35.599377 266.732685 35.599377 
Q 268.277043 35.599377 269.474708 35.835759 
Q 270.672374 36.07214 271.696693 36.655214 
Q 272.721012 37.238288 273.272568 38.35716 
Q 273.824125 39.476031 273.824125 41.083424 
Q 273.824125 46.567471 263.707004 46.567471 
Q 263.675486 46.567471 261.815953 46.283813 
L 261.248638 46.000156 
M 261.248638 27.562412 
Q 262.887549 26.679922 264.841634 26.71144 
Q 267.110895 26.71144 269.143774 28.035175 
Q 271.176654 29.358911 271.176654 31.533619 
Q 271.176654 32.825837 270.625097 33.582257 
Q 270.073541 34.338677 269.348638 34.527782 
Q 268.623735 34.716887 267.630934 35.06358 
Q 266.638132 35.410272 266.070817 35.883035 
L 261.248638 35.788482 
M 260.775875 27.656965 
Q 260.996498 28.949183 260.933463 32.494903 
Q 260.870428 36.040623 261.437743 37.301323 
Q 261.437743 38.309883 261.390467 40.358521 
Q 261.343191 42.40716 261.343191 43.447237 
L 261.343191 45.243735 
L 261.154086 46.000156 
" clip-path="url(#p6ff4e74b34)" style="fill: none; stroke: #000000; stroke-linejoin: miter"/>
   </g>
  </g>
  <g id="axes_18">
   <g id="patch_15">
    <path d="M 280.350869 35.182676 
Q 280.763255 34.69531 281.737986 33.851793 
Q 282.712717 33.008276 283.387531 32.220993 
Q 284.062345 31.43371 284.287283 30.458979 
L 285.524441 28.996883 
M 284.62469 38.219338 
Q 283.012634 37.656993 282.37531 37.769462 
Q 280.388359 37.769462 279.18869 39.0816 
Q 277.989021 40.393738 277.989021 42.493159 
Q 277.989021 45.454841 280.144676 47.123131 
Q 282.300331 48.791421 285.411972 48.791421 
Q 287.136497 48.791421 288.073738 47.27309 
Q 289.010979 45.754759 289.010979 43.842786 
Q 289.010979 42.755586 288.636083 41.83709 
Q 288.261186 40.918593 287.642607 39.887628 
Q 287.024028 38.856662 286.7616 38.219338 
L 283.837407 37.544524 
" clip-path="url(#pa95ac9a471)" style="fill: none; stroke: #000000; stroke-linejoin: miter"/>
   </g>
  </g>
  <g id="axes_19"/>
  <g id="axes_20">
   <g id="patch_16">
    <path d="M 311.0076 35.032717 
Q 311.0076 35.032717 314.381669 35.032717 
Q 314.494138 35.032717 316.237407 34.826524 
Q 317.980676 34.620331 318.992897 34.789034 
Q 320.005117 34.957738 320.005117 35.707531 
Q 320.005117 36.86971 318.992897 38.144359 
Q 317.980676 39.419007 316.518579 40.506207 
Q 315.056483 41.593407 313.594386 42.605628 
Q 312.13229 43.617848 311.120069 44.573834 
Q 310.107848 45.529821 310.107848 46.279614 
L 311.232538 46.279614 
Q 311.270028 46.279614 313.481917 46.054676 
L 321.692152 45.942207 
" clip-path="url(#pf763636450)" style="fill: none; stroke: #000000; stroke-linejoin: miter"/>
   </g>
  </g>
  <g id="axes_21">
   <g id="patch_17">
    <path d="M 328.613462 35.932469 
Q 329.213297 35.257655 330.206772 34.826524 
Q 331.200248 34.395393 332.1 34.470372 
Q 332.737324 34.470372 333.22469 34.639076 
Q 333.712055 34.807779 334.030717 34.995228 
Q 334.349379 35.182676 334.574317 35.670041 
Q 334.799255 36.157407 334.911724 36.419834 
Q 335.024193 36.682262 335.080428 37.375821 
Q 335.136662 38.069379 335.155407 38.331807 
Q 335.174152 38.594234 335.155407 39.419007 
Q 335.136662 40.243779 335.136662 40.431228 
Q 335.136662 41.368469 334.967959 43.242952 
Q 334.799255 45.117434 334.799255 46.054676 
Q 334.799255 46.467062 334.85549 46.823214 
Q 334.911724 47.179366 335.005448 47.610497 
Q 335.099172 48.041628 335.136662 48.304055 
L 335.586538 48.528993 
M 329.063338 23.111007 
Q 329.288276 24.798041 329.288276 29.971614 
L 329.288276 42.3432 
L 328.950869 46.841959 
L 328.725931 47.74171 
" clip-path="url(#p90f51ee045)" style="fill: none; stroke: #000000; stroke-linejoin: miter"/>
   </g>
  </g>
  <g id="axes_22">
   <g id="patch_18">
    <path d="M 346.313048 29.671697 
Q 347.17531 30.271531 348.000083 31.171283 
Q 348.824855 32.071034 349.780841 33.270703 
Q 350.736828 34.470372 351.261683 35.070207 
M 345.150869 41.705876 
L 345.375807 41.705876 
Q 345.638234 41.668386 346.16309 41.76211 
Q 346.687945 41.855834 346.950372 41.818345 
Q 347.550207 41.743366 348.131297 41.780855 
Q 348.712386 41.818345 349.274731 41.743366 
Q 349.837076 41.668386 350.268207 41.443448 
Q 350.699338 41.21851 350.961766 40.637421 
Q 351.224193 40.056331 351.224193 39.11909 
Q 351.111724 37.881931 350.193228 37.319586 
Q 349.274731 36.757241 348.075062 36.86971 
Q 346.725434 36.982179 345.825683 37.9944 
Q 344.925931 39.006621 344.925931 40.356248 
Q 344.925931 48.82891 351.674069 46.766979 
" clip-path="url(#p455da3d47c)" style="fill: none; stroke: #000000; stroke-linejoin: miter"/>
   </g>
  </g>
  <g id="axes_23">
   <g id="patch_19">
    <path d="M 360.038731 37.282097 
L 360.038731 37.844441 
Q 360.301159 39.868883 360.338648 41.312234 
Q 360.376138 42.755586 360.282414 44.667559 
Q 360.18869 46.579531 360.18869 48.191586 
L 360.263669 39.643945 
Q 360.263669 38.144359 361.856979 37.507034 
Q 363.45029 36.86971 364.874897 37.282097 
Q 366.786869 37.844441 367.705366 39.04411 
Q 368.623862 40.243779 368.680097 41.668386 
Q 368.736331 43.092993 368.773821 44.817517 
Q 368.81131 46.542041 368.961269 48.191586 
" clip-path="url(#pdf07afdba5)" style="fill: none; stroke: #000000; stroke-linejoin: miter"/>
   </g>
  </g>
  <g id="axes_24">
   <g id="patch_20">
    <path d="M 385.487191 39.096404 
Q 385.23236 39.023596 384.26764 38.623146 
Q 383.302921 38.222697 382.64764 38.077079 
Q 381.99236 37.931461 381.337079 38.00427 
Q 378.715955 38.00427 377.077753 40.388764 
Q 375.439551 42.773258 375.439551 45.430787 
Q 375.439551 47.068989 380.681798 47.068989 
Q 382.247191 47.068989 383.575955 45.558202 
Q 384.904719 44.047416 385.578202 42.172584 
Q 386.251685 40.297753 386.251685 38.768764 
Q 386.251685 37.27618 386.215281 36.984944 
L 386.142472 38.077079 
Q 386.142472 38.550337 386.142472 38.987191 
Q 386.178876 40.188539 386.379101 42.281798 
Q 386.579326 44.375056 386.743146 46.049663 
Q 386.906966 47.72427 386.943371 49.872135 
Q 386.979775 52.02 386.815955 53.658202 
Q 386.652135 55.296404 386.087865 56.971011 
Q 385.523596 58.645618 384.595281 59.737753 
Q 383.666966 60.829888 382.065169 61.521573 
Q 380.463371 62.213258 378.315506 62.213258 
Q 376.677303 62.213258 375.585169 61.466966 
Q 374.493034 60.720674 374.493034 59.155281 
Q 374.420225 58.936854 374.456629 58.936854 
Q 374.493034 58.936854 374.602247 58.936854 
Q 374.711461 58.936854 374.711461 58.82764 
" clip-path="url(#pd52fb8a18a)" style="fill: none; stroke: #000000; stroke-linejoin: miter"/>
   </g>
  </g>
  <g id="axes_25">
   <g id="patch_21">
    <path d="M 392.0076 35.032717 
Q 392.0076 35.032717 395.381669 35.032717 
Q 395.494138 35.032717 397.237407 34.826524 
Q 398.980676 34.620331 399.992897 34.789034 
Q 401.005117 34.957738 401.005117 35.707531 
Q 401.005117 36.86971 399.992897 38.144359 
Q 398.980676 39.419007 397.518579 40.506207 
Q 396.056483 41.593407 394.594386 42.605628 
Q 393.13229 43.617848 392.120069 44.573834 
Q 391.107848 45.529821 391.107848 46.279614 
L 392.232538 46.279614 
Q 392.270028 46.279614 394.481917 46.054676 
L 402.692152 45.942207 
" clip-path="url(#p34b37ce6c7)" style="fill: none; stroke: #000000; stroke-linejoin: miter"/>
   </g>
  </g>
  <g id="axes_26">
   <g id="patch_22">
    <path d="M 409.613462 29.784166 
Q 410.588193 30.271531 411.881586 31.827352 
Q 413.174979 33.383172 413.662345 33.833048 
L 414.337159 34.507862 
M 417.373821 37.432055 
Q 416.061683 36.94469 415.011972 36.982179 
Q 414.749545 36.982179 413.849793 37.000924 
Q 412.950041 37.019669 412.51891 37.038414 
Q 412.087779 37.057159 411.225517 37.169628 
Q 410.363255 37.282097 409.894634 37.41331 
Q 409.426014 37.544524 408.78869 37.844441 
Q 408.151366 38.144359 407.832703 38.538 
Q 407.514041 38.931641 407.270359 39.550221 
Q 407.026676 40.1688 407.026676 40.918593 
Q 407.026676 42.830566 408.638731 44.348897 
Q 410.250786 45.867228 412.200248 45.867228 
Q 413.549876 45.867228 414.412138 45.323628 
Q 415.2744 44.780028 415.686786 43.842786 
Q 416.099172 42.905545 416.32411 41.912069 
Q 416.549048 40.918593 416.886455 39.756414 
Q 417.223862 38.594234 417.711228 37.881931 
L 418.161103 43.842786 
L 419.173324 46.991917 
" clip-path="url(#pe1e772bac2)" style="fill: none; stroke: #000000; stroke-linejoin: miter"/>
   </g>
  </g>
  <g id="axes_27">
   <g id="patch_23">
    <path d="M 429.918579 29.071862 
Q 429.543683 29.146841 429.412469 29.577972 
Q 429.281255 30.009103 429.356234 30.42149 
Q 429.356234 30.571448 429.393724 30.702662 
Q 429.431214 30.833876 429.487448 30.89011 
Q 429.543683 30.946345 429.599917 31.040069 
Q 429.656152 31.133793 429.693641 31.208772 
L 429.80611 29.859145 
M 429.80611 34.020497 
Q 428.906359 39.006621 428.681421 42.793076 
L 429.131297 45.379862 
L 429.468703 46.054676 
" clip-path="url(#pe209a856d0)" style="fill: none; stroke: #000000; stroke-linejoin: miter"/>
   </g>
  </g>
  <g id="axes_28"/>
  <g id="axes_29">
   <g id="patch_24">
    <path d="M 462.056152 30.309021 
Q 461.568786 30.42149 461.981172 30.833876 
Q 462.356069 31.208772 462.431048 30.946345 
Q 462.468538 30.871366 462.393559 30.646428 
Q 462.393559 30.458979 462.318579 30.42149 
Q 462.2436 30.384 462.112386 30.42149 
Q 461.981172 30.458979 461.831214 30.42149 
L 461.718745 30.646428 
M 462.618497 33.345683 
Q 463.668207 37.731972 464.193062 40.13131 
Q 464.717917 42.530648 465.167793 46.317103 
Q 465.617669 50.103559 465.430221 53.25269 
Q 465.430221 53.440138 465.430221 54.021228 
Q 465.430221 54.602317 465.430221 54.902234 
Q 465.430221 55.202152 465.411476 55.783241 
Q 465.392731 56.364331 465.317752 56.701738 
Q 465.242772 57.039145 465.130303 57.52651 
Q 465.017834 58.013876 464.811641 58.313793 
Q 464.605448 58.61371 464.343021 58.894883 
Q 464.080593 59.176055 463.705697 59.307269 
Q 463.3308 59.438483 462.843434 59.438483 
Q 461.868703 59.438483 461.11891 59.251034 
Q 460.369117 59.063586 459.506855 58.707434 
Q 458.644593 58.351283 458.007269 58.201324 
L 457.782331 57.751448 
" clip-path="url(#p740ac074a1)" style="fill: none; stroke: #000000; stroke-linejoin: miter"/>
   </g>
  </g>
  <g id="axes_30">
   <g id="patch_25">
    <path d="M 475.613131 30.384 
L 478.874731 34.657821 
M 478.537324 37.019669 
L 478.274897 41.743366 
Q 478.387366 42.268221 478.518579 43.749062 
Q 478.649793 45.229903 478.9872 46.1484 
Q 479.324607 47.066897 480.186869 47.591752 
" clip-path="url(#p707c092b90)" style="fill: none; stroke: #000000; stroke-linejoin: miter"/>
   </g>
  </g>
  <g id="axes_31">
   <g id="patch_26">
    <path d="M 489.638731 37.282097 
L 489.638731 37.844441 
Q 489.901159 39.868883 489.938648 41.312234 
Q 489.976138 42.755586 489.882414 44.667559 
Q 489.78869 46.579531 489.78869 48.191586 
L 489.863669 39.643945 
Q 489.863669 38.144359 491.456979 37.507034 
Q 493.05029 36.86971 494.474897 37.282097 
Q 496.386869 37.844441 497.305366 39.04411 
Q 498.223862 40.243779 498.280097 41.668386 
Q 498.336331 43.092993 498.373821 44.817517 
Q 498.41131 46.542041 498.561269 48.191586 
" clip-path="url(#pf4fd14b60a)" style="fill: none; stroke: #000000; stroke-linejoin: miter"/>
   </g>
  </g>
  <g id="axes_32">
   <g id="patch_27">
    <path d="M 513.899007 34.920248 
Q 513.036745 36.007448 509.925103 40.018841 
Q 506.813462 44.030234 505.126428 46.054676 
M 506.026179 36.044938 
Q 507.900662 37.319586 510.393724 40.843614 
Q 512.886786 44.367641 514.461352 45.6048 
L 515.473572 45.942207 
" clip-path="url(#pd07a6e5156)" style="fill: none; stroke: #000000; stroke-linejoin: miter"/>
   </g>
  </g>
  <g id="axes_33">
   <g id="patch_28">
    <path d="M 524.475559 35.557572 
Q 524.925434 35.145186 526.406276 34.057986 
Q 527.887117 32.970786 528.524441 32.183503 
M 524.812966 38.03189 
Q 524.775476 38.144359 524.794221 39.212814 
Q 524.812966 40.281269 524.812966 40.393738 
Q 524.812966 41.518428 525.075393 42.568138 
Q 525.337821 43.617848 525.768952 44.892497 
Q 526.200083 46.167145 526.387531 46.916938 
L 526.837407 47.366814 
" clip-path="url(#pd0fc76ba9a)" style="fill: none; stroke: #000000; stroke-linejoin: miter"/>
   </g>
  </g>
  <g id="axes_34">
   <g id="patch_29">
    <path d="M 538.238731 37.282097 
L 538.238731 37.844441 
Q 538.501159 39.868883 538.538648 41.312234 
Q 538.576138 42.755586 538.482414 44.667559 
Q 538.38869 46.579531 538.38869 48.191586 
L 538.463669 39.643945 
Q 538.463669 38.144359 540.056979 37.507034 
Q 541.65029 36.86971 543.074897 37.282097 
Q 544.986869 37.844441 545.905366 39.04411 
Q 546.823862 40.243779 546.880097 41.668386 
Q 546.936331 43.092993 546.973821 44.817517 
Q 547.01131 46.542041 547.161269 48.191586 
" clip-path="url(#p1004090553)" style="fill: none; stroke: #000000; stroke-linejoin: miter"/>
   </g>
  </g>
  <g id="axes_35">
   <g id="patch_30">
    <path d="M 563.687191 39.096404 
Q 563.43236 39.023596 562.46764 38.623146 
Q 561.502921 38.222697 560.84764 38.077079 
Q 560.19236 37.931461 559.537079 38.00427 
Q 556.915955 38.00427 555.277753 40.388764 
Q 553.639551 42.773258 553.639551 45.430787 
Q 553.639551 47.068989 558.881798 47.068989 
Q 560.447191 47.068989 561.775955 45.558202 
Q 563.104719 44.047416 563.778202 42.172584 
Q 564.451685 40.297753 564.451685 38.768764 
Q 564.451685 37.27618 564.415281 36.984944 
L 564.342472 38.077079 
Q 564.342472 38.550337 564.342472 38.987191 
Q 564.378876 40.188539 564.579101 42.281798 
Q 564.779326 44.375056 564.943146 46.049663 
Q 565.106966 47.72427 565.143371 49.872135 
Q 565.179775 52.02 565.015955 53.658202 
Q 564.852135 55.296404 564.287865 56.971011 
Q 563.723596 58.645618 562.795281 59.737753 
Q 561.866966 60.829888 560.265169 61.521573 
Q 558.663371 62.213258 556.515506 62.213258 
Q 554.877303 62.213258 553.785169 61.466966 
Q 552.693034 60.720674 552.693034 59.155281 
Q 552.620225 58.936854 552.656629 58.936854 
Q 552.693034 58.936854 552.802247 58.936854 
Q 552.911461 58.936854 552.911461 58.82764 
" clip-path="url(#pc9a12b8930)" style="fill: none; stroke: #000000; stroke-linejoin: miter"/>
   </g>
  </g>
 </g>
 <defs>
  <clipPath id="pa50ee3d3e9">
   <rect x="0" y="11.850612" width="16.2" height="47.938776"/>
  </clipPath>
  <clipPath id="pd67363125a">
   <rect x="19.726262" y="8.64" width="9.147476" height="54.36"/>
  </clipPath>
  <clipPath id="pd9bf346e0a">
   <rect x="48.6" y="13.233462" width="16.2" height="45.173077"/>
  </clipPath>
  <clipPath id="pb75ddfa49b">
   <rect x="66.189352" y="8.64" width="13.421297" height="54.36"/>
  </clipPath>
  <clipPath id="p18b0d50687">
   <rect x="82.051945" y="8.64" width="14.09611" height="54.36"/>
  </clipPath>
  <clipPath id="p6090085488">
   <rect x="116.138979" y="8.64" width="10.722041" height="54.36"/>
  </clipPath>
  <clipPath id="p090c876c65">
   <rect x="131.664166" y="8.64" width="12.071669" height="54.36"/>
  </clipPath>
  <clipPath id="pa188ff4b89">
   <rect x="162" y="15.777338" width="16.2" height="40.085324"/>
  </clipPath>
  <clipPath id="p0772b6bf55">
   <rect x="180.938979" y="8.64" width="10.722041" height="54.36"/>
  </clipPath>
  <clipPath id="p1fbe39285c">
   <rect x="195.020814" y="8.64" width="14.958372" height="54.36"/>
  </clipPath>
  <clipPath id="p9ba8219a1b">
   <rect x="212.364248" y="8.64" width="12.671503" height="54.36"/>
  </clipPath>
  <clipPath id="p67a629d30c">
   <rect x="226.8" y="9.426742" width="16.2" height="52.786517"/>
  </clipPath>
  <clipPath id="p6ff4e74b34">
   <rect x="259.2" y="12.969805" width="16.2" height="45.700389"/>
  </clipPath>
  <clipPath id="pa95ac9a471">
   <rect x="276.114538" y="8.64" width="14.770924" height="54.36"/>
  </clipPath>
  <clipPath id="pf763636450">
   <rect x="308.233366" y="8.64" width="15.333269" height="54.36"/>
  </clipPath>
  <clipPath id="p90f51ee045">
   <rect x="326.738979" y="8.64" width="10.722041" height="54.36"/>
  </clipPath>
  <clipPath id="p455da3d47c">
   <rect x="343.051448" y="8.64" width="10.497103" height="54.36"/>
  </clipPath>
  <clipPath id="pdf07afdba5">
   <rect x="358.164248" y="8.64" width="12.671503" height="54.36"/>
  </clipPath>
  <clipPath id="pd52fb8a18a">
   <rect x="372.6" y="9.426742" width="16.2" height="52.786517"/>
  </clipPath>
  <clipPath id="p34b37ce6c7">
   <rect x="389.233366" y="8.64" width="15.333269" height="54.36"/>
  </clipPath>
  <clipPath id="pe1e772bac2">
   <rect x="405.152193" y="8.64" width="15.895614" height="54.36"/>
  </clipPath>
  <clipPath id="pe209a856d0">
   <rect x="426.806938" y="8.64" width="4.986124" height="54.36"/>
  </clipPath>
  <clipPath id="p740ac074a1">
   <rect x="455.907848" y="8.64" width="11.584303" height="54.36"/>
  </clipPath>
  <clipPath id="p707c092b90">
   <rect x="473.738648" y="8.64" width="8.322703" height="54.36"/>
  </clipPath>
  <clipPath id="pf4fd14b60a">
   <rect x="487.764248" y="8.64" width="12.671503" height="54.36"/>
  </clipPath>
  <clipPath id="pd07a6e5156">
   <rect x="503.251945" y="8.64" width="14.09611" height="54.36"/>
  </clipPath>
  <clipPath id="pd0fc76ba9a">
   <rect x="522.601076" y="8.64" width="7.797848" height="54.36"/>
  </clipPath>
  <clipPath id="p1004090553">
   <rect x="536.364248" y="8.64" width="12.671503" height="54.36"/>
  </clipPath>
  <clipPath id="pc9a12b8930">
   <rect x="550.8" y="9.426742" width="16.2" height="52.786517"/>
  </clipPath>
 </defs>
</svg>
