<?xml version="1.0" encoding="utf-8" standalone="no"?>
<!DOCTYPE svg PUBLIC "-//W3C//DTD SVG 1.1//EN"
  "http://www.w3.org/Graphics/SVG/1.1/DTD/svg11.dtd">
<svg xmlns:xlink="http://www.w3.org/1999/xlink" width="283.5pt" height="162pt" viewBox="0 0 283.5 162" xmlns="http://www.w3.org/2000/svg" version="1.1">
 <metadata>
  <rdf:RDF xmlns:dc="http://purl.org/dc/elements/1.1/" xmlns:cc="http://creativecommons.org/ns#" xmlns:rdf="http://www.w3.org/1999/02/22-rdf-syntax-ns#">
   <cc:Work>
    <dc:type rdf:resource="http://purl.org/dc/dcmitype/StillImage"/>
    <dc:date>2023-02-15T23:04:28.873860</dc:date>
    <dc:format>image/svg+xml</dc:format>
    <dc:creator>
     <cc:Agent>
      <dc:title>Matplotlib v3.6.1, https://matplotlib.org/</dc:title>
     </cc:Agent>
    </dc:creator>
   </cc:Work>
  </rdf:RDF>
 </metadata>
 <defs>
  <style type="text/css">*{stroke-linejoin: round; stroke-linecap: butt}</style>
 </defs>
 <g id="figure_1">
  <g id="patch_1">
   <path d="M 0 162 
L 283.5 162 
L 283.5 0 
L 0 0 
z
" style="fill: #8fff9f"/>
  </g>
  <g id="axes_1">
   <g id="patch_2">
    <path d="M 20.733028 66.597818 
Q 20.207536 69.368591 20.159764 74.790708 
Q 20.111992 80.212824 20.016448 81.645983 
L 19.586501 87.235301 
M 9.411075 81.07272 
Q 13.185059 80.021737 20.374738 78.803552 
Q 27.564417 77.585367 30.478506 76.91656 
Q 29.570839 76.91656 28.543742 79.281271 
Q 27.516645 81.645983 26.680636 84.010695 
Q 25.844626 86.375406 25.462451 86.375406 
Q 25.128047 86.375406 24.913073 86.23209 
Q 24.6981 86.088775 24.507012 85.849915 
Q 24.315924 85.611055 24.172608 85.515511 
L 23.312713 85.085564 
M 13.853866 74.050242 
L 13.567235 77.633139 
L 13.280603 84.942248 
L 13.423919 93.06348 
Q 13.901638 94.735498 15.072051 95.643165 
Q 16.242464 96.550832 17.890596 96.813578 
Q 19.538729 97.076324 21.139089 97.076324 
Q 22.73945 97.076324 24.721986 97.052438 
Q 26.704522 97.028552 27.89882 97.267412 
Q 28.328768 97.362955 29.379751 97.028552 
Q 30.430734 96.694148 31.290629 96.144771 
Q 32.150524 95.595393 32.05498 95.117674 
L 34.061402 90.101619 
M 7.977916 75.196769 
Q 7.500197 75.578945 7.476311 76.821016 
Q 7.452425 78.063087 7.118021 78.493034 
L 6.974705 96.98078 
M 10.27097 68.174292 
L 10.27097 69.177503 
Q 10.27097 70.610662 9.506619 72.04382 
Q 8.742267 73.476979 7.524083 75.125111 
Q 6.305898 76.773244 5.828178 77.633139 
L 2.388598 80.212824 
" clip-path="url(#pd9b43b64b5)" style="fill: none; stroke: #000000; stroke-linejoin: miter"/>
   </g>
  </g>
  <g id="axes_2">
   <g id="patch_3">
    <path d="M 56.882376 67.577143 
Q 56.882376 67.577143 57.731366 67.577143 
Q 59.089752 67.577143 61.778222 66.982849 
Q 64.466693 66.388556 65.881677 66.388556 
L 67.070264 66.388556 
Q 67.46646 66.388556 67.721157 66.218758 
Q 67.975854 66.04896 68.258851 66.04896 
Q 68.881444 66.388556 68.909744 67.690342 
Q 68.938043 68.992127 68.711646 70.237314 
Q 68.485248 71.4825 68.768245 72.501289 
Q 69.787034 75.274658 69.928533 79.406413 
Q 70.070031 83.538168 69.758734 89.198106 
Q 69.447438 94.858043 69.447438 96.556025 
Q 69.447438 96.839022 69.419138 96.867321 
Q 69.390839 96.895621 69.22104 96.895621 
Q 69.164441 96.895621 69.107842 96.895621 
Q 68.258851 96.895621 67.40986 96.556025 
Q 66.56087 96.216429 65.62698 95.650435 
Q 64.69309 95.084441 64.183696 94.858043 
L 64.013898 94.348649 
M 52.241227 65.596165 
L 54.788199 70.520311 
M 51.222438 70.067516 
L 51.222438 70.916506 
Q 51.335637 74.482267 51.109239 81.047795 
Q 50.882842 87.613323 50.882842 90.273494 
Q 50.882842 90.443292 50.882842 90.896087 
Q 50.882842 92.028075 50.797943 92.169573 
Q 50.713043 92.311071 50.543245 91.631879 
M 43.921118 68.992127 
Q 43.75132 69.048727 43.72302 69.161925 
Q 43.69472 69.275124 43.72302 69.444922 
Q 43.75132 69.61472 43.75132 69.67132 
Q 43.69472 83.085373 44.090916 87.669922 
Q 44.147516 88.518913 44.034317 91.57528 
Q 43.921118 94.631646 44.260714 95.424037 
M 49.128261 60.389022 
L 49.128261 60.898416 
Q 49.128261 62.200202 47.713276 64.20948 
Q 46.298292 66.218758 44.260714 68.454433 
Q 42.223137 70.690109 41.826941 71.256102 
L 39.279969 73.123882 
" clip-path="url(#pdbfb7e2c2c)" style="fill: none; stroke: #000000; stroke-linejoin: miter"/>
   </g>
  </g>
  <g id="axes_3">
   <g id="patch_4">
    <path d="M 95.150153 72.768313 
Q 95.150153 72.768313 95.150153 75.954893 
Q 95.150153 78.191089 95.289916 80.70681 
Q 95.429678 83.222531 95.653298 86.297301 
Q 95.876917 89.372071 95.988727 91.049218 
L 95.653298 92.726365 
M 83.577837 93.397224 
L 106.554755 93.061794 
M 88.106135 78.973758 
L 91.292715 78.973758 
Q 91.34862 78.973758 98.504448 78.638328 
L 102.697316 78.135184 
M 80.614877 76.234417 
L 80.614877 79.756426 
Q 80.614877 79.812331 80.950307 84.117009 
L 81.118021 95.353896 
M 82.515644 69.525828 
Q 83.633742 69.358113 90.118712 69.190399 
Q 96.603681 69.022684 98.839877 67.960491 
L 100.684739 67.625061 
M 90.230521 63.488098 
Q 89.671472 68.799064 86.009701 74.305698 
Q 82.347929 79.812331 77.540107 82.719387 
L 75.695245 83.55796 
" clip-path="url(#pdd5556ebc8)" style="fill: none; stroke: #000000; stroke-linejoin: miter"/>
   </g>
  </g>
  <g id="axes_4">
   <g id="patch_5">
    <path d="M 130.563666 91.787846 
Q 130.973875 92.198055 131.970096 92.930571 
Q 132.966318 93.663087 133.376527 94.073296 
L 140.232878 98.644196 
M 117.026768 74.559068 
L 117.378376 74.559068 
Q 117.671383 74.559068 118.110892 74.764172 
Q 118.550402 74.969277 119.107114 75.262283 
Q 119.663826 75.555289 119.83963 75.613891 
L 124.058923 78.426752 
M 116.147749 79.833183 
Q 116.850965 80.360595 118.521101 81.005209 
Q 120.191238 81.649823 120.894453 82.118633 
L 121.773473 82.997653 
M 112.280064 86.689534 
L 114.213907 86.689534 
Q 118.198794 86.689534 122.740394 86.396527 
Q 127.281994 86.103521 132.878416 85.60541 
Q 138.474839 85.107299 141.463505 84.931495 
M 128.805627 73.680048 
Q 128.747026 74.090257 128.805627 75.789695 
Q 128.805627 80.008987 127.633601 83.290659 
Q 126.461576 86.572331 124.38123 90.381415 
Q 122.300884 94.190498 121.246061 97.061961 
L 118.081592 100.578039 
M 124.410531 63.659228 
Q 124.527733 63.71783 126.695981 64.714051 
L 127.750804 66.120482 
M 114.038103 71.570402 
L 119.136415 71.218794 
Q 121.539068 70.925788 126.520177 70.076069 
Q 131.501286 69.22635 135.544775 68.72824 
Q 139.588264 68.230129 142.869936 68.230129 
Q 142.108119 69.636559 141.639309 70.691383 
L 140.408682 73.504244 
M 114.741318 67.878521 
Q 114.272508 68.523135 114.389711 70.339775 
Q 114.448312 71.160193 113.862299 72.449421 
L 112.807476 76.317106 
" clip-path="url(#p9946968f76)" style="fill: none; stroke: #000000; stroke-linejoin: miter"/>
   </g>
  </g>
  <g id="axes_5">
   <g id="patch_6">
    <path d="M 163.181684 94.228612 
Q 164.025 93.994357 166.156716 93.853805 
Q 168.288432 93.713252 169.366003 93.385296 
L 179.907455 93.244743 
M 177.939717 82.14108 
Q 177.939717 82.187931 176.135958 86.427937 
Q 174.332198 90.667943 174.285347 92.823085 
L 173.863689 93.666401 
M 170.349871 83.406054 
Q 170.490424 83.640308 171.02921 84.553901 
Q 171.567995 85.467494 171.895951 85.936003 
L 173.442031 87.622635 
M 167.117159 86.217108 
L 167.538817 86.217108 
Q 168.007326 86.217108 168.546112 86.709042 
Q 169.084897 87.200977 169.623683 87.90374 
Q 170.162468 88.606504 170.349871 88.747057 
L 171.193188 89.871478 
M 166.836054 79.751684 
L 174.707005 79.611131 
M 169.928213 71.037416 
Q 170.724679 71.787031 172.083355 73.333111 
Q 173.442031 74.87919 174.238496 75.675656 
Q 175.034961 76.472121 176.463914 77.245161 
Q 177.892866 78.018201 179.579499 78.205604 
M 170.912082 69.350784 
Q 170.584126 69.819293 169.693959 71.201395 
Q 168.803792 72.583496 168.265006 73.28626 
Q 167.726221 73.989023 166.859479 75.019743 
Q 165.992738 76.050463 165.05572 76.68295 
Q 164.118702 77.315437 163.041131 77.643393 
L 161.635604 78.346157 
M 148.142545 90.386838 
Q 149.173265 89.96518 151.117577 89.075013 
Q 153.061889 88.184846 154.350289 87.669486 
Q 155.638689 87.154126 157.325321 86.638766 
L 156.809961 86.217108 
M 151.234704 72.958303 
L 151.234704 73.520514 
Q 151.281555 74.410681 151.187853 75.39455 
Q 151.094152 76.378419 150.906748 77.596542 
Q 150.719344 78.814666 150.672494 79.423728 
Q 150.625643 79.704833 150.438239 80.431022 
Q 150.250835 81.157211 150.250835 81.532018 
Q 150.157134 82.094229 150.672494 81.906825 
Q 150.813046 81.906825 151.141003 81.766272 
Q 151.750064 81.485167 151.937468 81.532018 
Q 152.733933 81.719422 155.146754 81.36804 
Q 157.559576 81.016658 159.574165 80.595 
L 161.635604 80.173342 
Q 161.635604 81.719422 160.815713 88.606504 
Q 159.995823 95.493586 159.574165 95.493586 
Q 159.105656 95.493586 158.449743 94.90795 
Q 157.79383 94.322314 157.559576 94.228612 
L 156.060347 93.10419 
M 149.266967 71.271671 
L 158.496594 70.053548 
L 157.606427 75.39455 
L 156.622558 79.470578 
" clip-path="url(#p456cf1fc16)" style="fill: none; stroke: #000000; stroke-linejoin: miter"/>
   </g>
  </g>
  <g id="axes_6">
   <g id="patch_7">
    <path d="M 199.33401 85.65236 
L 199.33401 100.454391 
M 185.827157 99.590939 
Q 185.827157 99.590939 189.71269 99.590939 
Q 197.237056 99.899315 213.025888 98.665812 
Q 213.025888 98.665812 215.616244 98.665812 
M 192.858122 90.709721 
Q 192.858122 90.709721 193.968274 90.709721 
Q 194.029949 90.709721 200.074112 90.33967 
L 207.105076 89.229518 
M 202.664467 81.088401 
Q 203.281218 81.458452 203.620431 82.568604 
Q 203.959645 83.678756 204.514721 84.048807 
L 205.809898 86.639162 
M 198.778934 76.647792 
Q 197.668782 77.94297 195.941878 81.057563 
Q 194.214975 84.172157 193.043147 85.52901 
L 195.633503 85.52901 
L 204.699746 83.863782 
M 192.488071 76.277741 
L 198.038832 76.277741 
Q 198.778934 76.216066 202.016878 76.308579 
Q 205.254822 76.401091 205.994924 75.90769 
M 199.21066 64.436117 
Q 200.012437 64.991193 200.690863 65.91632 
L 202.171066 68.691701 
M 186.998985 72.207183 
Q 190.391117 71.590431 199.33401 71.189543 
Q 208.276904 70.788655 212.902538 69.431802 
Q 214.259391 68.938401 214.259391 69.555152 
Q 214.197716 69.986878 212.409137 72.392208 
Q 211.915736 73.008959 211.792386 73.317335 
M 188.109137 68.136624 
L 185.888832 73.687386 
L 185.333756 74.612513 
" clip-path="url(#p9e0ab8eec6)" style="fill: none; stroke: #000000; stroke-linejoin: miter"/>
   </g>
  </g>
  <g id="axes_7">
   <g id="patch_8">
    <path d="M 221.060751 91.926606 
Q 222.477202 92.021036 225.215674 91.572494 
Q 227.954145 91.123951 228.992876 91.076736 
Q 231.589702 90.982306 252.789249 90.226865 
M 234.658679 67.516438 
L 234.941969 87.016244 
L 235.083614 90.651801 
M 230.126036 85.033212 
L 239.616256 85.033212 
M 229.276166 78.706399 
Q 229.417811 78.706399 230.456541 78.635576 
Q 231.495272 78.564754 231.684132 78.564754 
L 233.242228 78.564754 
L 240.749417 78.564754 
Q 240.702202 78.328679 240.749417 78.116211 
Q 240.796632 77.903744 240.91467 77.644061 
Q 241.032707 77.384378 241.032707 77.289948 
Q 241.646503 74.551477 244.715479 67.941373 
Q 244.337759 67.658083 244.290544 67.658083 
Q 241.646503 67.658083 236.334812 67.799728 
Q 231.023122 67.941373 228.426295 67.941373 
L 226.868199 67.941373 
M 230.975907 72.898951 
L 238.624741 72.898951 
M 227.293135 68.507953 
L 228.426295 78.139819 
" clip-path="url(#p480bf1d93c)" style="fill: none; stroke: #000000; stroke-linejoin: miter"/>
   </g>
  </g>
 </g>
 <defs>
  <clipPath id="pd9b43b64b5">
   <rect x="0" y="45.960334" width="36.45" height="69.269332"/>
  </clipPath>
  <clipPath id="pdbfb7e2c2c">
   <rect x="36.45" y="39.56045" width="36.45" height="82.069099"/>
  </clipPath>
  <clipPath id="pdd5556ebc8">
   <rect x="72.9" y="40.063942" width="36.45" height="81.062117"/>
  </clipPath>
  <clipPath id="p9946968f76">
   <rect x="109.35" y="38.109068" width="36.45" height="84.971865"/>
  </clipPath>
  <clipPath id="p456cf1fc16">
   <rect x="145.8" y="46.628098" width="36.45" height="67.933805"/>
  </clipPath>
  <clipPath id="p9e0ab8eec6">
   <rect x="182.25" y="35.880533" width="36.45" height="89.428934"/>
  </clipPath>
  <clipPath id="p480bf1d93c">
   <rect x="218.7" y="46.364106" width="36.45" height="68.461788"/>
  </clipPath>
 </defs>
</svg>
