<?xml version="1.0" encoding="utf-8" standalone="no"?>
<!DOCTYPE svg PUBLIC "-//W3C//DTD SVG 1.1//EN"
  "http://www.w3.org/Graphics/SVG/1.1/DTD/svg11.dtd">
<svg xmlns:xlink="http://www.w3.org/1999/xlink" width="414pt" height="72pt" viewBox="0 0 414 72" xmlns="http://www.w3.org/2000/svg" version="1.1">
 <metadata>
  <rdf:RDF xmlns:dc="http://purl.org/dc/elements/1.1/" xmlns:cc="http://creativecommons.org/ns#" xmlns:rdf="http://www.w3.org/1999/02/22-rdf-syntax-ns#">
   <cc:Work>
    <dc:type rdf:resource="http://purl.org/dc/dcmitype/StillImage"/>
    <dc:date>2023-02-15T23:04:30.787518</dc:date>
    <dc:format>image/svg+xml</dc:format>
    <dc:creator>
     <cc:Agent>
      <dc:title>Matplotlib v3.6.1, https://matplotlib.org/</dc:title>
     </cc:Agent>
    </dc:creator>
   </cc:Work>
  </rdf:RDF>
 </metadata>
 <defs>
  <style type="text/css">*{stroke-linejoin: round; stroke-linecap: butt}</style>
 </defs>
 <g id="figure_1">
  <g id="patch_1">
   <path d="M 0 72 
L 414 72 
L 414 0 
L 0 0 
z
" style="fill: #8fff9f"/>
  </g>
  <g id="axes_1">
   <g id="patch_2">
    <path d="M 1.087248 30.470738 
L 2.261477 30.601208 
Q 4.088054 30.601208 5.925503 30.709933 
Q 7.762953 30.818658 10.002685 30.992617 
Q 12.242416 31.166577 13.677584 31.253557 
L 15.112752 31.123087 
M 7.871678 31.057852 
Q 7.936913 31.405772 7.675973 32.177718 
Q 7.415034 32.949664 7.610738 33.406309 
Q 7.610738 34.711007 7.752081 36.363624 
Q 7.893423 38.016242 8.110872 39.973289 
Q 8.328322 41.930336 8.393557 42.800134 
" clip-path="url(#p02ae6bf1f0)" style="fill: none; stroke: #000000; stroke-linejoin: miter"/>
   </g>
  </g>
  <g id="axes_2">
   <g id="patch_3">
    <path d="M 19.032703 35.332634 
L 29.379848 35.332634 
M 28.592566 39.344028 
Q 28.592566 39.344028 25.668372 39.344028 
Q 18.695297 39.344028 18.695297 44.5176 
Q 18.695297 46.279614 20.45731 47.19811 
Q 22.219324 48.116607 24.206276 48.116607 
Q 25.443434 47.891669 26.249462 47.2356 
Q 27.05549 46.579531 27.411641 45.586055 
Q 27.767793 44.592579 27.936497 43.674083 
Q 28.1052 42.755586 28.255159 41.443448 
Q 28.405117 40.13131 28.592566 39.344028 
Q 29.679766 46.092166 29.792234 47.029407 
L 29.904703 48.154097 
" clip-path="url(#p34d3d32748)" style="fill: none; stroke: #000000; stroke-linejoin: miter"/>
   </g>
  </g>
  <g id="axes_3">
   <g id="patch_4">
    <path d="M 34.208036 34.879821 
Q 34.714286 36.073125 35.003571 42.871339 
Q 35.148214 46.632054 35.4375 46.632054 
Q 35.473661 46.632054 35.509821 46.595893 
Q 36.016071 46.017321 36.070313 44.588973 
Q 36.124554 43.160625 35.907589 41.750357 
Q 35.690625 40.340089 35.4375 38.712857 
Q 35.184375 37.085625 35.184375 36.398571 
Q 35.184375 35.169107 35.564063 33.939643 
Q 35.94375 32.710179 36.920089 32.710179 
Q 38.149554 32.710179 38.872768 34.355491 
Q 39.595982 36.000804 39.758705 37.971563 
Q 39.921429 39.942321 40.029911 41.587634 
Q 40.138393 43.232946 40.283036 43.232946 
Q 40.427679 43.232946 40.51808 41.497232 
Q 40.608482 39.761518 40.735045 37.700357 
Q 40.861607 35.639196 41.584821 33.903482 
Q 42.308036 32.167768 43.5375 32.167768 
Q 45.092411 33.035625 45.761384 34.771339 
Q 46.430357 36.507054 46.394196 38.188527 
Q 46.358036 39.87 46.376116 42.057723 
Q 46.394196 44.245446 46.791964 45.511071 
" clip-path="url(#p4e66727684)" style="fill: none; stroke: #000000; stroke-linejoin: miter"/>
   </g>
  </g>
  <g id="axes_4">
   <g id="patch_5">
    <path d="M 50.457798 38.160826 
Q 53.430275 39.535596 58.149083 39.721376 
Q 59.672477 39.721376 60.359862 38.550963 
Q 61.047248 37.38055 61.047248 35.82 
Q 61.047248 35.299817 60.954358 34.909679 
Q 60.861468 34.519541 60.619954 34.296606 
Q 60.37844 34.07367 60.211239 33.943624 
Q 60.044037 33.813578 59.598165 33.757844 
Q 59.152294 33.70211 58.947936 33.683532 
Q 58.743578 33.664954 58.167661 33.683532 
Q 57.591743 33.70211 57.368807 33.70211 
Q 55.325229 33.70211 53.838991 35.578486 
Q 52.352752 37.454862 52.352752 39.609908 
Q 52.352752 42.619541 54.284862 44.570229 
Q 56.216972 46.520917 59.263761 46.520917 
Q 61.418807 46.818165 62.942202 44.29156 
" clip-path="url(#p6712587200)" style="fill: none; stroke: #000000; stroke-linejoin: miter"/>
   </g>
  </g>
  <g id="axes_5">
   <g id="patch_6">
    <path d="M 68.438731 37.282097 
L 68.438731 37.844441 
Q 68.701159 39.868883 68.738648 41.312234 
Q 68.776138 42.755586 68.682414 44.667559 
Q 68.58869 46.579531 68.58869 48.191586 
L 68.663669 39.643945 
Q 68.663669 38.144359 70.256979 37.507034 
Q 71.85029 36.86971 73.274897 37.282097 
Q 75.186869 37.844441 76.105366 39.04411 
Q 77.023862 40.243779 77.080097 41.668386 
Q 77.136331 43.092993 77.173821 44.817517 
Q 77.21131 46.542041 77.361269 48.191586 
" clip-path="url(#p66a897ff72)" style="fill: none; stroke: #000000; stroke-linejoin: miter"/>
   </g>
  </g>
  <g id="axes_6"/>
  <g id="axes_7">
   <g id="patch_7">
    <path d="M 100.4076 35.032717 
Q 100.4076 35.032717 103.781669 35.032717 
Q 103.894138 35.032717 105.637407 34.826524 
Q 107.380676 34.620331 108.392897 34.789034 
Q 109.405117 34.957738 109.405117 35.707531 
Q 109.405117 36.86971 108.392897 38.144359 
Q 107.380676 39.419007 105.918579 40.506207 
Q 104.456483 41.593407 102.994386 42.605628 
Q 101.53229 43.617848 100.520069 44.573834 
Q 99.507848 45.529821 99.507848 46.279614 
L 100.632538 46.279614 
Q 100.670028 46.279614 102.881917 46.054676 
L 111.092152 45.942207 
" clip-path="url(#p954d5ccad2)" style="fill: none; stroke: #000000; stroke-linejoin: miter"/>
   </g>
  </g>
  <g id="axes_8">
   <g id="patch_8">
    <path d="M 118.013462 29.784166 
Q 118.988193 30.271531 120.281586 31.827352 
Q 121.574979 33.383172 122.062345 33.833048 
L 122.737159 34.507862 
M 125.773821 37.432055 
Q 124.461683 36.94469 123.411972 36.982179 
Q 123.149545 36.982179 122.249793 37.000924 
Q 121.350041 37.019669 120.91891 37.038414 
Q 120.487779 37.057159 119.625517 37.169628 
Q 118.763255 37.282097 118.294634 37.41331 
Q 117.826014 37.544524 117.18869 37.844441 
Q 116.551366 38.144359 116.232703 38.538 
Q 115.914041 38.931641 115.670359 39.550221 
Q 115.426676 40.1688 115.426676 40.918593 
Q 115.426676 42.830566 117.038731 44.348897 
Q 118.650786 45.867228 120.600248 45.867228 
Q 121.949876 45.867228 122.812138 45.323628 
Q 123.6744 44.780028 124.086786 43.842786 
Q 124.499172 42.905545 124.72411 41.912069 
Q 124.949048 40.918593 125.286455 39.756414 
Q 125.623862 38.594234 126.111228 37.881931 
L 126.561103 43.842786 
L 127.573324 46.991917 
" clip-path="url(#pff42f920ba)" style="fill: none; stroke: #000000; stroke-linejoin: miter"/>
   </g>
  </g>
  <g id="axes_9">
   <g id="patch_9">
    <path d="M 138.318579 29.071862 
Q 137.943683 29.146841 137.812469 29.577972 
Q 137.681255 30.009103 137.756234 30.42149 
Q 137.756234 30.571448 137.793724 30.702662 
Q 137.831214 30.833876 137.887448 30.89011 
Q 137.943683 30.946345 137.999917 31.040069 
Q 138.056152 31.133793 138.093641 31.208772 
L 138.20611 29.859145 
M 138.20611 34.020497 
Q 137.306359 39.006621 137.081421 42.793076 
L 137.531297 45.379862 
L 137.868703 46.054676 
" clip-path="url(#p6106133f21)" style="fill: none; stroke: #000000; stroke-linejoin: miter"/>
   </g>
  </g>
  <g id="axes_10"/>
  <g id="axes_11">
   <g id="patch_10">
    <path d="M 165.657476 43.917766 
Q 165.957393 44.180193 166.969614 45.154924 
Q 167.981834 46.129655 168.544179 46.560786 
Q 169.106524 46.991917 170.13749 47.385559 
Q 171.168455 47.7792 172.180676 47.629241 
Q 172.85549 47.629241 173.32411 47.404303 
Q 173.792731 47.179366 174.017669 46.879448 
Q 174.242607 46.579531 174.373821 45.979697 
Q 174.505034 45.379862 174.523779 44.967476 
Q 174.542524 44.55509 174.542524 43.805297 
Q 174.542524 42.718097 173.642772 42.043283 
Q 172.743021 41.368469 171.449628 41.031062 
Q 170.156234 40.693655 168.862841 40.300014 
Q 167.569448 39.906372 166.669697 38.987876 
Q 165.769945 38.069379 165.769945 36.607283 
Q 165.769945 36.082428 165.938648 35.726276 
Q 166.107352 35.370124 166.500993 35.145186 
Q 166.894634 34.920248 167.175807 34.807779 
Q 167.456979 34.69531 168.113048 34.639076 
Q 168.769117 34.582841 168.956566 34.582841 
Q 169.144014 34.582841 169.818828 34.582841 
Q 171.018497 34.582841 171.599586 34.995228 
Q 172.180676 35.407614 172.499338 36.026193 
Q 172.818 36.644772 173.080428 36.832221 
" clip-path="url(#pdca698ea89)" style="fill: none; stroke: #000000; stroke-linejoin: miter"/>
   </g>
  </g>
  <g id="axes_12">
   <g id="patch_11">
    <path d="M 182.813462 35.932469 
Q 183.413297 35.257655 184.406772 34.826524 
Q 185.400248 34.395393 186.3 34.470372 
Q 186.937324 34.470372 187.42469 34.639076 
Q 187.912055 34.807779 188.230717 34.995228 
Q 188.549379 35.182676 188.774317 35.670041 
Q 188.999255 36.157407 189.111724 36.419834 
Q 189.224193 36.682262 189.280428 37.375821 
Q 189.336662 38.069379 189.355407 38.331807 
Q 189.374152 38.594234 189.355407 39.419007 
Q 189.336662 40.243779 189.336662 40.431228 
Q 189.336662 41.368469 189.167959 43.242952 
Q 188.999255 45.117434 188.999255 46.054676 
Q 188.999255 46.467062 189.05549 46.823214 
Q 189.111724 47.179366 189.205448 47.610497 
Q 189.299172 48.041628 189.336662 48.304055 
L 189.786538 48.528993 
M 183.263338 23.111007 
Q 183.488276 24.798041 183.488276 29.971614 
L 183.488276 42.3432 
L 183.150869 46.841959 
L 182.925931 47.74171 
" clip-path="url(#p788d6540ec)" style="fill: none; stroke: #000000; stroke-linejoin: miter"/>
   </g>
  </g>
  <g id="axes_13">
   <g id="patch_12">
    <path d="M 200.475559 35.557572 
Q 200.925434 35.145186 202.406276 34.057986 
Q 203.887117 32.970786 204.524441 32.183503 
M 200.812966 38.03189 
Q 200.775476 38.144359 200.794221 39.212814 
Q 200.812966 40.281269 200.812966 40.393738 
Q 200.812966 41.518428 201.075393 42.568138 
Q 201.337821 43.617848 201.768952 44.892497 
Q 202.200083 46.167145 202.387531 46.916938 
L 202.837407 47.366814 
" clip-path="url(#p091eaddbaa)" style="fill: none; stroke: #000000; stroke-linejoin: miter"/>
   </g>
  </g>
  <g id="axes_14">
   <g id="patch_13">
    <path d="M 213.563917 36.382345 
Q 213.526428 36.494814 213.657641 36.701007 
Q 213.788855 36.9072 213.676386 37.057159 
L 213.676386 39.306538 
Q 213.676386 40.506207 214.013793 41.724621 
Q 214.3512 42.943034 215.213462 43.93651 
Q 216.075724 44.929986 217.275393 44.929986 
Q 218.512552 44.929986 219.187366 43.861531 
Q 219.862179 42.793076 220.312055 41.143531 
Q 220.761931 39.493986 221.099338 38.969131 
L 221.886621 36.382345 
L 221.661683 42.680607 
L 221.661683 45.154924 
Q 221.661683 47.066897 222.392731 51.00331 
Q 223.123779 54.939724 223.123779 56.964166 
Q 223.873572 59.213545 222.786372 60.188276 
Q 221.699172 61.163007 219.637241 60.78811 
Q 217.837738 60.488193 216.919241 60.169531 
Q 216.000745 59.850869 214.013793 58.988607 
L 213.901324 58.426262 
" clip-path="url(#p7fdabef77f)" style="fill: none; stroke: #000000; stroke-linejoin: miter"/>
   </g>
  </g>
  <g id="axes_15">
   <g id="patch_14">
    <path d="M 231.413462 29.784166 
Q 232.388193 30.271531 233.681586 31.827352 
Q 234.974979 33.383172 235.462345 33.833048 
L 236.137159 34.507862 
M 239.173821 37.432055 
Q 237.861683 36.94469 236.811972 36.982179 
Q 236.549545 36.982179 235.649793 37.000924 
Q 234.750041 37.019669 234.31891 37.038414 
Q 233.887779 37.057159 233.025517 37.169628 
Q 232.163255 37.282097 231.694634 37.41331 
Q 231.226014 37.544524 230.58869 37.844441 
Q 229.951366 38.144359 229.632703 38.538 
Q 229.314041 38.931641 229.070359 39.550221 
Q 228.826676 40.1688 228.826676 40.918593 
Q 228.826676 42.830566 230.438731 44.348897 
Q 232.050786 45.867228 234.000248 45.867228 
Q 235.349876 45.867228 236.212138 45.323628 
Q 237.0744 44.780028 237.486786 43.842786 
Q 237.899172 42.905545 238.12411 41.912069 
Q 238.349048 40.918593 238.686455 39.756414 
Q 239.023862 38.594234 239.511228 37.881931 
L 239.961103 43.842786 
L 240.973324 46.991917 
" clip-path="url(#pe0b73845cd)" style="fill: none; stroke: #000000; stroke-linejoin: miter"/>
   </g>
  </g>
  <g id="axes_16">
   <g id="patch_15">
    <path d="M 246.638731 37.282097 
L 246.638731 37.844441 
Q 246.901159 39.868883 246.938648 41.312234 
Q 246.976138 42.755586 246.882414 44.667559 
Q 246.78869 46.579531 246.78869 48.191586 
L 246.863669 39.643945 
Q 246.863669 38.144359 248.456979 37.507034 
Q 250.05029 36.86971 251.474897 37.282097 
Q 253.386869 37.844441 254.305366 39.04411 
Q 255.223862 40.243779 255.280097 41.668386 
Q 255.336331 43.092993 255.373821 44.817517 
Q 255.41131 46.542041 255.561269 48.191586 
" clip-path="url(#p7b2233ba48)" style="fill: none; stroke: #000000; stroke-linejoin: miter"/>
   </g>
  </g>
  <g id="axes_17"/>
  <g id="axes_18">
   <g id="patch_16">
    <path d="M 279.057476 43.917766 
Q 279.357393 44.180193 280.369614 45.154924 
Q 281.381834 46.129655 281.944179 46.560786 
Q 282.506524 46.991917 283.53749 47.385559 
Q 284.568455 47.7792 285.580676 47.629241 
Q 286.25549 47.629241 286.72411 47.404303 
Q 287.192731 47.179366 287.417669 46.879448 
Q 287.642607 46.579531 287.773821 45.979697 
Q 287.905034 45.379862 287.923779 44.967476 
Q 287.942524 44.55509 287.942524 43.805297 
Q 287.942524 42.718097 287.042772 42.043283 
Q 286.143021 41.368469 284.849628 41.031062 
Q 283.556234 40.693655 282.262841 40.300014 
Q 280.969448 39.906372 280.069697 38.987876 
Q 279.169945 38.069379 279.169945 36.607283 
Q 279.169945 36.082428 279.338648 35.726276 
Q 279.507352 35.370124 279.900993 35.145186 
Q 280.294634 34.920248 280.575807 34.807779 
Q 280.856979 34.69531 281.513048 34.639076 
Q 282.169117 34.582841 282.356566 34.582841 
Q 282.544014 34.582841 283.218828 34.582841 
Q 284.418497 34.582841 284.999586 34.995228 
Q 285.580676 35.407614 285.899338 36.026193 
Q 286.218 36.644772 286.480428 36.832221 
" clip-path="url(#p2b77f49871)" style="fill: none; stroke: #000000; stroke-linejoin: miter"/>
   </g>
  </g>
  <g id="axes_19">
   <g id="patch_17">
    <path d="M 296.213462 35.932469 
Q 296.813297 35.257655 297.806772 34.826524 
Q 298.800248 34.395393 299.7 34.470372 
Q 300.337324 34.470372 300.82469 34.639076 
Q 301.312055 34.807779 301.630717 34.995228 
Q 301.949379 35.182676 302.174317 35.670041 
Q 302.399255 36.157407 302.511724 36.419834 
Q 302.624193 36.682262 302.680428 37.375821 
Q 302.736662 38.069379 302.755407 38.331807 
Q 302.774152 38.594234 302.755407 39.419007 
Q 302.736662 40.243779 302.736662 40.431228 
Q 302.736662 41.368469 302.567959 43.242952 
Q 302.399255 45.117434 302.399255 46.054676 
Q 302.399255 46.467062 302.45549 46.823214 
Q 302.511724 47.179366 302.605448 47.610497 
Q 302.699172 48.041628 302.736662 48.304055 
L 303.186538 48.528993 
M 296.663338 23.111007 
Q 296.888276 24.798041 296.888276 29.971614 
L 296.888276 42.3432 
L 296.550869 46.841959 
L 296.325931 47.74171 
" clip-path="url(#pd38434de45)" style="fill: none; stroke: #000000; stroke-linejoin: miter"/>
   </g>
  </g>
  <g id="axes_20">
   <g id="patch_18">
    <path d="M 313.613131 30.384 
L 316.874731 34.657821 
M 316.537324 37.019669 
L 316.274897 41.743366 
Q 316.387366 42.268221 316.518579 43.749062 
Q 316.649793 45.229903 316.9872 46.1484 
Q 317.324607 47.066897 318.186869 47.591752 
" clip-path="url(#pc311f319fb)" style="fill: none; stroke: #000000; stroke-linejoin: miter"/>
   </g>
  </g>
  <g id="axes_21"/>
  <g id="axes_22">
   <g id="patch_19">
    <path d="M 347.906359 28.621986 
Q 348.131297 30.34651 348.206276 32.146014 
Q 348.281255 33.945517 348.26251 36.551048 
Q 348.243766 39.156579 348.243766 40.093821 
Q 348.243766 40.13131 348.468703 45.829738 
L 348.693641 46.841959 
" clip-path="url(#p9765e75ecc)" style="fill: none; stroke: #000000; stroke-linejoin: miter"/>
   </g>
  </g>
  <g id="axes_23">
   <g id="patch_20">
    <path d="M 361.800745 33.345683 
L 361.800745 33.570621 
Q 361.800745 34.545352 362.775476 35.969959 
Q 363.750207 37.394566 364.724938 37.394566 
Q 365.099834 37.394566 365.455986 36.9072 
Q 365.812138 36.419834 366.1308 35.726276 
Q 366.449462 35.032717 366.524441 34.920248 
L 367.199255 31.771117 
M 364.762428 39.419007 
L 364.312552 47.291834 
L 363.975145 47.74171 
" clip-path="url(#p545f0ef487)" style="fill: none; stroke: #000000; stroke-linejoin: miter"/>
   </g>
  </g>
 </g>
 <defs>
  <clipPath id="p02ae6bf1f0">
   <rect x="0" y="20.054899" width="16.2" height="31.530201"/>
  </clipPath>
  <clipPath id="p34d3d32748">
   <rect x="16.820814" y="8.64" width="14.958372" height="54.36"/>
  </clipPath>
  <clipPath id="p4e66727684">
   <rect x="32.4" y="9.603482" width="16.2" height="52.433036"/>
  </clipPath>
  <clipPath id="p6712587200">
   <rect x="48.6" y="8.881927" width="16.2" height="53.876147"/>
  </clipPath>
  <clipPath id="p66a897ff72">
   <rect x="66.564248" y="8.64" width="12.671503" height="54.36"/>
  </clipPath>
  <clipPath id="p954d5ccad2">
   <rect x="97.633366" y="8.64" width="15.333269" height="54.36"/>
  </clipPath>
  <clipPath id="pff42f920ba">
   <rect x="113.552193" y="8.64" width="15.895614" height="54.36"/>
  </clipPath>
  <clipPath id="p6106133f21">
   <rect x="135.206938" y="8.64" width="4.986124" height="54.36"/>
  </clipPath>
  <clipPath id="pdca698ea89">
   <rect x="163.782993" y="8.64" width="12.634014" height="54.36"/>
  </clipPath>
  <clipPath id="p788d6540ec">
   <rect x="180.938979" y="8.64" width="10.722041" height="54.36"/>
  </clipPath>
  <clipPath id="p091eaddbaa">
   <rect x="198.601076" y="8.64" width="7.797848" height="54.36"/>
  </clipPath>
  <clipPath id="p7fdabef77f">
   <rect x="211.651945" y="8.64" width="14.09611" height="54.36"/>
  </clipPath>
  <clipPath id="pe0b73845cd">
   <rect x="226.952193" y="8.64" width="15.895614" height="54.36"/>
  </clipPath>
  <clipPath id="p7b2233ba48">
   <rect x="244.764248" y="8.64" width="12.671503" height="54.36"/>
  </clipPath>
  <clipPath id="p2b77f49871">
   <rect x="277.182993" y="8.64" width="12.634014" height="54.36"/>
  </clipPath>
  <clipPath id="pd38434de45">
   <rect x="294.338979" y="8.64" width="10.722041" height="54.36"/>
  </clipPath>
  <clipPath id="pc311f319fb">
   <rect x="311.738648" y="8.64" width="8.322703" height="54.36"/>
  </clipPath>
  <clipPath id="p9765e75ecc">
   <rect x="346.031876" y="8.64" width="4.536248" height="54.36"/>
  </clipPath>
  <clipPath id="p545f0ef487">
   <rect x="359.926262" y="8.64" width="9.147476" height="54.36"/>
  </clipPath>
 </defs>
</svg>
