<?xml version="1.0" encoding="utf-8" standalone="no"?>
<!DOCTYPE svg PUBLIC "-//W3C//DTD SVG 1.1//EN"
  "http://www.w3.org/Graphics/SVG/1.1/DTD/svg11.dtd">
<svg xmlns:xlink="http://www.w3.org/1999/xlink" width="396pt" height="72pt" viewBox="0 0 396 72" xmlns="http://www.w3.org/2000/svg" version="1.1">
 <metadata>
  <rdf:RDF xmlns:dc="http://purl.org/dc/elements/1.1/" xmlns:cc="http://creativecommons.org/ns#" xmlns:rdf="http://www.w3.org/1999/02/22-rdf-syntax-ns#">
   <cc:Work>
    <dc:type rdf:resource="http://purl.org/dc/dcmitype/StillImage"/>
    <dc:date>2023-02-13T20:30:09.451063</dc:date>
    <dc:format>image/svg+xml</dc:format>
    <dc:creator>
     <cc:Agent>
      <dc:title>Matplotlib v3.6.1, https://matplotlib.org/</dc:title>
     </cc:Agent>
    </dc:creator>
   </cc:Work>
  </rdf:RDF>
 </metadata>
 <defs>
  <style type="text/css">*{stroke-linejoin: round; stroke-linecap: butt}</style>
 </defs>
 <g id="figure_1">
  <g id="patch_1">
   <path d="M 0 72 
L 396 72 
L 396 0 
L 0 0 
z
" style="fill: #8fff9f"/>
  </g>
  <g id="axes_1">
   <g id="patch_2">
    <path d="M 13.643923 36.441748 
Q 12.434968 35.094627 8.462687 35.094627 
Q 6.942857 35.094627 6.165672 35.146439 
Q 5.388486 35.198252 4.38678 35.440043 
Q 3.385075 35.681834 2.901493 36.182687 
Q 2.41791 36.683539 2.072495 37.616162 
Q 1.727079 38.548785 1.727079 39.964989 
Q 1.727079 42.037484 3.143284 43.280981 
Q 4.559488 44.524478 6.493817 44.524478 
Q 9.153518 44.524478 11.916844 38.721493 
Q 13.263966 35.854542 13.263966 35.82 
Q 13.609382 35.578209 13.643923 36.441748 
Q 13.643923 37.512537 14.058422 40.362217 
Q 14.472921 43.211898 14.472921 44.524478 
" clip-path="url(#p5b878b43c9)" style="fill: none; stroke: #000000; stroke-linejoin: miter"/>
   </g>
  </g>
  <g id="axes_2"/>
  <g id="axes_3">
   <g id="patch_3">
    <path d="M 45.287191 39.096404 
Q 45.03236 39.023596 44.06764 38.623146 
Q 43.102921 38.222697 42.44764 38.077079 
Q 41.79236 37.931461 41.137079 38.00427 
Q 38.515955 38.00427 36.877753 40.388764 
Q 35.239551 42.773258 35.239551 45.430787 
Q 35.239551 47.068989 40.481798 47.068989 
Q 42.047191 47.068989 43.375955 45.558202 
Q 44.704719 44.047416 45.378202 42.172584 
Q 46.051685 40.297753 46.051685 38.768764 
Q 46.051685 37.27618 46.015281 36.984944 
L 45.942472 38.077079 
Q 45.942472 38.550337 45.942472 38.987191 
Q 45.978876 40.188539 46.179101 42.281798 
Q 46.379326 44.375056 46.543146 46.049663 
Q 46.706966 47.72427 46.743371 49.872135 
Q 46.779775 52.02 46.615955 53.658202 
Q 46.452135 55.296404 45.887865 56.971011 
Q 45.323596 58.645618 44.395281 59.737753 
Q 43.466966 60.829888 41.865169 61.521573 
Q 40.263371 62.213258 38.115506 62.213258 
Q 36.477303 62.213258 35.385169 61.466966 
Q 34.293034 60.720674 34.293034 59.155281 
Q 34.220225 58.936854 34.256629 58.936854 
Q 34.293034 58.936854 34.402247 58.936854 
Q 34.511461 58.936854 34.511461 58.82764 
" clip-path="url(#p554d7aac53)" style="fill: none; stroke: #000000; stroke-linejoin: miter"/>
   </g>
  </g>
  <g id="axes_4">
   <g id="patch_4">
    <path d="M 50.457798 38.160826 
Q 53.430275 39.535596 58.149083 39.721376 
Q 59.672477 39.721376 60.359862 38.550963 
Q 61.047248 37.38055 61.047248 35.82 
Q 61.047248 35.299817 60.954358 34.909679 
Q 60.861468 34.519541 60.619954 34.296606 
Q 60.37844 34.07367 60.211239 33.943624 
Q 60.044037 33.813578 59.598165 33.757844 
Q 59.152294 33.70211 58.947936 33.683532 
Q 58.743578 33.664954 58.167661 33.683532 
Q 57.591743 33.70211 57.368807 33.70211 
Q 55.325229 33.70211 53.838991 35.578486 
Q 52.352752 37.454862 52.352752 39.609908 
Q 52.352752 42.619541 54.284862 44.570229 
Q 56.216972 46.520917 59.263761 46.520917 
Q 61.418807 46.818165 62.942202 44.29156 
" clip-path="url(#p0b0d2f0161)" style="fill: none; stroke: #000000; stroke-linejoin: miter"/>
   </g>
  </g>
  <g id="axes_5">
   <g id="patch_5">
    <path d="M 68.438731 37.282097 
L 68.438731 37.844441 
Q 68.701159 39.868883 68.738648 41.312234 
Q 68.776138 42.755586 68.682414 44.667559 
Q 68.58869 46.579531 68.58869 48.191586 
L 68.663669 39.643945 
Q 68.663669 38.144359 70.256979 37.507034 
Q 71.85029 36.86971 73.274897 37.282097 
Q 75.186869 37.844441 76.105366 39.04411 
Q 77.023862 40.243779 77.080097 41.668386 
Q 77.136331 43.092993 77.173821 44.817517 
Q 77.21131 46.542041 77.361269 48.191586 
" clip-path="url(#p2eede45d2f)" style="fill: none; stroke: #000000; stroke-linejoin: miter"/>
   </g>
  </g>
  <g id="axes_6">
   <g id="patch_6">
    <path d="M 82.857798 38.160826 
Q 85.830275 39.535596 90.549083 39.721376 
Q 92.072477 39.721376 92.759862 38.550963 
Q 93.447248 37.38055 93.447248 35.82 
Q 93.447248 35.299817 93.354358 34.909679 
Q 93.261468 34.519541 93.019954 34.296606 
Q 92.77844 34.07367 92.611239 33.943624 
Q 92.444037 33.813578 91.998165 33.757844 
Q 91.552294 33.70211 91.347936 33.683532 
Q 91.143578 33.664954 90.567661 33.683532 
Q 89.991743 33.70211 89.768807 33.70211 
Q 87.725229 33.70211 86.238991 35.578486 
Q 84.752752 37.454862 84.752752 39.609908 
Q 84.752752 42.619541 86.684862 44.570229 
Q 88.616972 46.520917 91.663761 46.520917 
Q 93.818807 46.818165 95.342202 44.29156 
" clip-path="url(#p1d46b719ca)" style="fill: none; stroke: #000000; stroke-linejoin: miter"/>
   </g>
  </g>
  <g id="axes_7">
   <g id="patch_7">
    <path d="M 100.463834 37.95691 
L 101.138648 37.95691 
Q 101.850952 37.95691 102.638234 37.881931 
Q 103.425517 37.806952 104.381503 37.675738 
Q 105.33749 37.544524 105.862345 37.507034 
L 110.136166 35.82 
M 106.087283 30.42149 
L 106.087283 31.43371 
Q 106.087283 33.383172 105.412469 37.207117 
Q 104.737655 41.031062 104.737655 43.018014 
Q 104.737655 43.805297 104.737655 44.105214 
Q 104.737655 44.405131 104.831379 45.042455 
Q 104.925103 45.679779 105.112552 45.960952 
Q 105.3 46.242124 105.693641 46.485807 
Q 106.087283 46.72949 106.649628 46.72949 
Q 106.762097 46.692 107.080759 46.72949 
Q 107.399421 46.766979 107.586869 46.710745 
Q 107.774317 46.65451 107.774317 46.392083 
" clip-path="url(#p365c91f469)" style="fill: none; stroke: #000000; stroke-linejoin: miter"/>
   </g>
  </g>
  <g id="axes_8">
   <g id="patch_8">
    <path d="M 122.118579 29.071862 
Q 121.743683 29.146841 121.612469 29.577972 
Q 121.481255 30.009103 121.556234 30.42149 
Q 121.556234 30.571448 121.593724 30.702662 
Q 121.631214 30.833876 121.687448 30.89011 
Q 121.743683 30.946345 121.799917 31.040069 
Q 121.856152 31.133793 121.893641 31.208772 
L 122.00611 29.859145 
M 122.00611 34.020497 
Q 121.106359 39.006621 120.881421 42.793076 
L 121.331297 45.379862 
L 121.668703 46.054676 
" clip-path="url(#p64c69df2d5)" style="fill: none; stroke: #000000; stroke-linejoin: miter"/>
   </g>
  </g>
  <g id="axes_9">
   <g id="patch_9">
    <path d="M 142.956735 34.365306 
Q 142.956735 34.365306 142.460816 34.365306 
Q 141.667347 34.365306 140.179592 34.067755 
Q 138.691837 33.770204 137.898367 33.770204 
Q 135.121224 33.770204 133.187143 35.224898 
Q 131.253061 36.679592 131.253061 39.423673 
Q 131.253061 40.94449 132.740816 42.399184 
Q 134.228571 43.853878 136.162653 44.663878 
Q 138.096735 45.473878 139.58449 45.473878 
Q 140.510204 45.473878 141.20449 45.110204 
Q 141.898776 44.746531 142.642653 44.118367 
Q 143.386531 43.490204 143.948571 43.192653 
L 144.146939 42.696735 
" clip-path="url(#pb0287d8c36)" style="fill: none; stroke: #000000; stroke-linejoin: miter"/>
   </g>
  </g>
  <g id="axes_10">
   <g id="patch_10">
    <path d="M 149.457476 43.917766 
Q 149.757393 44.180193 150.769614 45.154924 
Q 151.781834 46.129655 152.344179 46.560786 
Q 152.906524 46.991917 153.93749 47.385559 
Q 154.968455 47.7792 155.980676 47.629241 
Q 156.65549 47.629241 157.12411 47.404303 
Q 157.592731 47.179366 157.817669 46.879448 
Q 158.042607 46.579531 158.173821 45.979697 
Q 158.305034 45.379862 158.323779 44.967476 
Q 158.342524 44.55509 158.342524 43.805297 
Q 158.342524 42.718097 157.442772 42.043283 
Q 156.543021 41.368469 155.249628 41.031062 
Q 153.956234 40.693655 152.662841 40.300014 
Q 151.369448 39.906372 150.469697 38.987876 
Q 149.569945 38.069379 149.569945 36.607283 
Q 149.569945 36.082428 149.738648 35.726276 
Q 149.907352 35.370124 150.300993 35.145186 
Q 150.694634 34.920248 150.975807 34.807779 
Q 151.256979 34.69531 151.913048 34.639076 
Q 152.569117 34.582841 152.756566 34.582841 
Q 152.944014 34.582841 153.618828 34.582841 
Q 154.818497 34.582841 155.399586 34.995228 
Q 155.980676 35.407614 156.299338 36.026193 
Q 156.618 36.644772 156.880428 36.832221 
" clip-path="url(#pd92cad623c)" style="fill: none; stroke: #000000; stroke-linejoin: miter"/>
   </g>
  </g>
  <g id="axes_11"/>
  <g id="axes_12">
   <g id="patch_11">
    <path d="M 180.057798 38.160826 
Q 183.030275 39.535596 187.749083 39.721376 
Q 189.272477 39.721376 189.959862 38.550963 
Q 190.647248 37.38055 190.647248 35.82 
Q 190.647248 35.299817 190.554358 34.909679 
Q 190.461468 34.519541 190.219954 34.296606 
Q 189.97844 34.07367 189.811239 33.943624 
Q 189.644037 33.813578 189.198165 33.757844 
Q 188.752294 33.70211 188.547936 33.683532 
Q 188.343578 33.664954 187.767661 33.683532 
Q 187.191743 33.70211 186.968807 33.70211 
Q 184.925229 33.70211 183.438991 35.578486 
Q 181.952752 37.454862 181.952752 39.609908 
Q 181.952752 42.619541 183.884862 44.570229 
Q 185.816972 46.520917 188.863761 46.520917 
Q 191.018807 46.818165 192.542202 44.29156 
" clip-path="url(#p1445edc922)" style="fill: none; stroke: #000000; stroke-linejoin: miter"/>
   </g>
  </g>
  <g id="axes_13">
   <g id="patch_12">
    <path d="M 206.099007 34.920248 
Q 205.236745 36.007448 202.125103 40.018841 
Q 199.013462 44.030234 197.326428 46.054676 
M 198.226179 36.044938 
Q 200.100662 37.319586 202.593724 40.843614 
Q 205.086786 44.367641 206.661352 45.6048 
L 207.673572 45.942207 
" clip-path="url(#pa9d4b05895)" style="fill: none; stroke: #000000; stroke-linejoin: miter"/>
   </g>
  </g>
  <g id="axes_14">
   <g id="patch_13">
    <path d="M 213.920069 39.868883 
L 213.920069 39.419007 
Q 213.920069 37.769462 215.663338 36.682262 
Q 217.406607 35.595062 219.093641 35.595062 
Q 221.305531 35.595062 222.673903 36.794731 
Q 224.042276 37.9944 224.042276 40.20629 
Q 224.042276 42.30571 222.224028 43.336676 
Q 220.405779 44.367641 218.19389 44.367641 
Q 217.519076 44.367641 217.012966 44.255172 
Q 216.506855 44.142703 215.888276 43.917766 
Q 215.269697 43.692828 214.819821 43.580359 
L 213.695131 42.568138 
M 213.357724 36.832221 
Q 213.8076 38.444276 214.070028 40.262524 
Q 214.332455 42.080772 214.38869 43.749062 
Q 214.444924 45.417352 214.482414 47.27309 
Q 214.519903 49.128828 214.482414 50.778372 
L 214.369945 57.863917 
" clip-path="url(#pcb7f5419ba)" style="fill: none; stroke: #000000; stroke-linejoin: miter"/>
   </g>
  </g>
  <g id="axes_15">
   <g id="patch_14">
    <path d="M 228.657798 38.160826 
Q 231.630275 39.535596 236.349083 39.721376 
Q 237.872477 39.721376 238.559862 38.550963 
Q 239.247248 37.38055 239.247248 35.82 
Q 239.247248 35.299817 239.154358 34.909679 
Q 239.061468 34.519541 238.819954 34.296606 
Q 238.57844 34.07367 238.411239 33.943624 
Q 238.244037 33.813578 237.798165 33.757844 
Q 237.352294 33.70211 237.147936 33.683532 
Q 236.943578 33.664954 236.367661 33.683532 
Q 235.791743 33.70211 235.568807 33.70211 
Q 233.525229 33.70211 232.038991 35.578486 
Q 230.552752 37.454862 230.552752 39.609908 
Q 230.552752 42.619541 232.484862 44.570229 
Q 234.416972 46.520917 237.463761 46.520917 
Q 239.618807 46.818165 241.142202 44.29156 
" clip-path="url(#p9170bb66bf)" style="fill: none; stroke: #000000; stroke-linejoin: miter"/>
   </g>
  </g>
  <g id="axes_16">
   <g id="patch_15">
    <path d="M 247.613462 32.783338 
Q 248.138317 34.507862 248.269531 36.457324 
Q 248.400745 38.406786 248.325766 40.956083 
Q 248.250786 43.505379 248.288276 44.705048 
L 248.400745 46.054676 
L 248.400745 45.829738 
Q 248.400745 44.667559 248.119572 42.30571 
Q 247.8384 39.943862 247.8384 38.744193 
Q 247.8384 36.419834 248.850621 34.882759 
Q 249.862841 33.345683 251.887283 33.345683 
Q 252.599586 33.345683 252.936993 33.626855 
Q 253.2744 33.908028 253.536828 34.432883 
Q 253.799255 34.957738 254.136662 35.257655 
L 254.586538 36.832221 
" clip-path="url(#pe9bcbe0854)" style="fill: none; stroke: #000000; stroke-linejoin: miter"/>
   </g>
  </g>
  <g id="axes_17">
   <g id="patch_16">
    <path d="M 267.918579 29.071862 
Q 267.543683 29.146841 267.412469 29.577972 
Q 267.281255 30.009103 267.356234 30.42149 
Q 267.356234 30.571448 267.393724 30.702662 
Q 267.431214 30.833876 267.487448 30.89011 
Q 267.543683 30.946345 267.599917 31.040069 
Q 267.656152 31.133793 267.693641 31.208772 
L 267.80611 29.859145 
M 267.80611 34.020497 
Q 266.906359 39.006621 266.681421 42.793076 
L 267.131297 45.379862 
L 267.468703 46.054676 
" clip-path="url(#p1fb3901907)" style="fill: none; stroke: #000000; stroke-linejoin: miter"/>
   </g>
  </g>
  <g id="axes_18">
   <g id="patch_17">
    <path d="M 277.208036 34.879821 
Q 277.714286 36.073125 278.003571 42.871339 
Q 278.148214 46.632054 278.4375 46.632054 
Q 278.473661 46.632054 278.509821 46.595893 
Q 279.016071 46.017321 279.070312 44.588973 
Q 279.124554 43.160625 278.907589 41.750357 
Q 278.690625 40.340089 278.4375 38.712857 
Q 278.184375 37.085625 278.184375 36.398571 
Q 278.184375 35.169107 278.564062 33.939643 
Q 278.94375 32.710179 279.920089 32.710179 
Q 281.149554 32.710179 281.872768 34.355491 
Q 282.595982 36.000804 282.758705 37.971563 
Q 282.921429 39.942321 283.029911 41.587634 
Q 283.138393 43.232946 283.283036 43.232946 
Q 283.427679 43.232946 283.51808 41.497232 
Q 283.608482 39.761518 283.735045 37.700357 
Q 283.861607 35.639196 284.584821 33.903482 
Q 285.308036 32.167768 286.5375 32.167768 
Q 288.092411 33.035625 288.761384 34.771339 
Q 289.430357 36.507054 289.394196 38.188527 
Q 289.358036 39.87 289.376116 42.057723 
Q 289.394196 44.245446 289.791964 45.511071 
" clip-path="url(#p1d17c20c76)" style="fill: none; stroke: #000000; stroke-linejoin: miter"/>
   </g>
  </g>
  <g id="axes_19">
   <g id="patch_18">
    <path d="M 293.457798 38.160826 
Q 296.430275 39.535596 301.149083 39.721376 
Q 302.672477 39.721376 303.359862 38.550963 
Q 304.047248 37.38055 304.047248 35.82 
Q 304.047248 35.299817 303.954358 34.909679 
Q 303.861468 34.519541 303.619954 34.296606 
Q 303.37844 34.07367 303.211239 33.943624 
Q 303.044037 33.813578 302.598165 33.757844 
Q 302.152294 33.70211 301.947936 33.683532 
Q 301.743578 33.664954 301.167661 33.683532 
Q 300.591743 33.70211 300.368807 33.70211 
Q 298.325229 33.70211 296.838991 35.578486 
Q 295.352752 37.454862 295.352752 39.609908 
Q 295.352752 42.619541 297.284862 44.570229 
Q 299.216972 46.520917 302.263761 46.520917 
Q 304.418807 46.818165 305.942202 44.29156 
" clip-path="url(#p5c662711df)" style="fill: none; stroke: #000000; stroke-linejoin: miter"/>
   </g>
  </g>
  <g id="axes_20">
   <g id="patch_19">
    <path d="M 311.438731 37.282097 
L 311.438731 37.844441 
Q 311.701159 39.868883 311.738648 41.312234 
Q 311.776138 42.755586 311.682414 44.667559 
Q 311.58869 46.579531 311.58869 48.191586 
L 311.663669 39.643945 
Q 311.663669 38.144359 313.256979 37.507034 
Q 314.85029 36.86971 316.274897 37.282097 
Q 318.186869 37.844441 319.105366 39.04411 
Q 320.023862 40.243779 320.080097 41.668386 
Q 320.136331 43.092993 320.173821 44.817517 
Q 320.21131 46.542041 320.361269 48.191586 
" clip-path="url(#pf63943a5b4)" style="fill: none; stroke: #000000; stroke-linejoin: miter"/>
   </g>
  </g>
  <g id="axes_21">
   <g id="patch_20">
    <path d="M 327.263834 37.95691 
L 327.938648 37.95691 
Q 328.650952 37.95691 329.438234 37.881931 
Q 330.225517 37.806952 331.181503 37.675738 
Q 332.13749 37.544524 332.662345 37.507034 
L 336.936166 35.82 
M 332.887283 30.42149 
L 332.887283 31.43371 
Q 332.887283 33.383172 332.212469 37.207117 
Q 331.537655 41.031062 331.537655 43.018014 
Q 331.537655 43.805297 331.537655 44.105214 
Q 331.537655 44.405131 331.631379 45.042455 
Q 331.725103 45.679779 331.912552 45.960952 
Q 332.1 46.242124 332.493641 46.485807 
Q 332.887283 46.72949 333.449628 46.72949 
Q 333.562097 46.692 333.880759 46.72949 
Q 334.199421 46.766979 334.386869 46.710745 
Q 334.574317 46.65451 334.574317 46.392083 
" clip-path="url(#pa398c229ef)" style="fill: none; stroke: #000000; stroke-linejoin: miter"/>
   </g>
  </g>
  <g id="axes_22">
   <g id="patch_21">
    <path d="M 348.187531 45.979697 
Q 348.150041 46.017186 348.018828 46.054676 
Q 347.887614 46.092166 347.925103 46.167145 
Q 347.925103 46.579531 348.3 46.579531 
Q 348.637407 46.579531 348.637407 46.092166 
Q 348.712386 45.867228 348.431214 45.754759 
Q 348.150041 45.64229 347.962593 45.754759 
" clip-path="url(#p5fa5070f36)" style="fill: none; stroke: #000000; stroke-linejoin: miter"/>
   </g>
  </g>
 </g>
 <defs>
  <clipPath id="p5b878b43c9">
   <rect x="0" y="10.777356" width="16.2" height="50.085288"/>
  </clipPath>
  <clipPath id="p554d7aac53">
   <rect x="32.4" y="9.426742" width="16.2" height="52.786517"/>
  </clipPath>
  <clipPath id="p0b0d2f0161">
   <rect x="48.6" y="8.881927" width="16.2" height="53.876147"/>
  </clipPath>
  <clipPath id="p2eede45d2f">
   <rect x="66.564248" y="8.64" width="12.671503" height="54.36"/>
  </clipPath>
  <clipPath id="p1d46b719ca">
   <rect x="81" y="8.881927" width="16.2" height="53.876147"/>
  </clipPath>
  <clipPath id="p365c91f469">
   <rect x="98.589352" y="8.64" width="13.421297" height="54.36"/>
  </clipPath>
  <clipPath id="p64c69df2d5">
   <rect x="119.006938" y="8.64" width="4.986124" height="54.36"/>
  </clipPath>
  <clipPath id="pb0287d8c36">
   <rect x="129.6" y="11.850612" width="16.2" height="47.938776"/>
  </clipPath>
  <clipPath id="pd92cad623c">
   <rect x="147.582993" y="8.64" width="12.634014" height="54.36"/>
  </clipPath>
  <clipPath id="p1445edc922">
   <rect x="178.2" y="8.881927" width="16.2" height="53.876147"/>
  </clipPath>
  <clipPath id="pa9d4b05895">
   <rect x="195.451945" y="8.64" width="14.09611" height="54.36"/>
  </clipPath>
  <clipPath id="pcb7f5419ba">
   <rect x="211.483241" y="8.64" width="14.433517" height="54.36"/>
  </clipPath>
  <clipPath id="p9170bb66bf">
   <rect x="226.8" y="8.881927" width="16.2" height="53.876147"/>
  </clipPath>
  <clipPath id="pe9bcbe0854">
   <rect x="245.738979" y="8.64" width="10.722041" height="54.36"/>
  </clipPath>
  <clipPath id="p1fb3901907">
   <rect x="264.806938" y="8.64" width="4.986124" height="54.36"/>
  </clipPath>
  <clipPath id="p1d17c20c76">
   <rect x="275.4" y="9.603482" width="16.2" height="52.433036"/>
  </clipPath>
  <clipPath id="p5c662711df">
   <rect x="291.6" y="8.881927" width="16.2" height="53.876147"/>
  </clipPath>
  <clipPath id="pf63943a5b4">
   <rect x="309.564248" y="8.64" width="12.671503" height="54.36"/>
  </clipPath>
  <clipPath id="pa398c229ef">
   <rect x="325.389352" y="8.64" width="13.421297" height="54.36"/>
  </clipPath>
  <clipPath id="p5fa5070f36">
   <rect x="346.013131" y="8.64" width="4.573738" height="54.36"/>
  </clipPath>
 </defs>
</svg>
