<?xml version="1.0" encoding="utf-8" standalone="no"?>
<!DOCTYPE svg PUBLIC "-//W3C//DTD SVG 1.1//EN"
  "http://www.w3.org/Graphics/SVG/1.1/DTD/svg11.dtd">
<svg xmlns:xlink="http://www.w3.org/1999/xlink" width="364.5pt" height="162pt" viewBox="0 0 364.5 162" xmlns="http://www.w3.org/2000/svg" version="1.1">
 <metadata>
  <rdf:RDF xmlns:dc="http://purl.org/dc/elements/1.1/" xmlns:cc="http://creativecommons.org/ns#" xmlns:rdf="http://www.w3.org/1999/02/22-rdf-syntax-ns#">
   <cc:Work>
    <dc:type rdf:resource="http://purl.org/dc/dcmitype/StillImage"/>
    <dc:date>2023-02-15T23:04:14.599204</dc:date>
    <dc:format>image/svg+xml</dc:format>
    <dc:creator>
     <cc:Agent>
      <dc:title>Matplotlib v3.6.1, https://matplotlib.org/</dc:title>
     </cc:Agent>
    </dc:creator>
   </cc:Work>
  </rdf:RDF>
 </metadata>
 <defs>
  <style type="text/css">*{stroke-linejoin: round; stroke-linecap: butt}</style>
 </defs>
 <g id="figure_1">
  <g id="patch_1">
   <path d="M 0 162 
L 364.5 162 
L 364.5 0 
L 0 0 
z
" style="fill: #8fff9f"/>
  </g>
  <g id="axes_1">
   <g id="patch_2">
    <path d="M 3.057886 92.214966 
L 33.392114 89.585185 
M 16.87953 84.87604 
Q 18.897735 90.441393 18.530789 100.287785 
Q 18.347315 102.244832 17.735738 102.244832 
Q 17.246477 102.244832 15.595218 100.104312 
Q 13.821644 97.596846 12.843121 97.352215 
M 12.659648 80.839631 
L 13.39354 80.839631 
Q 14.066275 80.839631 16.390268 80.442106 
Q 18.714262 80.044581 20.732466 79.616477 
L 22.750671 79.188372 
Q 22.750671 79.983423 22.077936 81.175998 
Q 21.405201 82.368574 20.36552 83.775201 
Q 19.325839 85.181829 19.081208 85.609933 
L 18.163842 86.894245 
M 16.390268 66.773356 
Q 18.041527 67.751879 21.313465 71.176711 
Q 24.585403 74.601544 27.031711 75.580067 
L 31.435067 77.414799 
M 16.573742 66.956829 
L 16.206795 66.956829 
Q 15.53406 67.629564 13.638171 69.953557 
Q 11.742282 72.27755 10.243918 73.500705 
Q 8.745554 74.723859 6.849664 75.213121 
L 4.464513 76.680906 
L 3.180201 77.047852 
M 8.133977 68.057668 
Q 12.904279 66.956829 21.894463 66.222936 
Q 22.811829 66.039463 24.64656 65.733674 
Q 26.481292 65.427886 27.215185 65.30557 
M 16.940688 62.920419 
L 16.940688 77.047852 
" clip-path="url(#pd75b004e64)" style="fill: none; stroke: #000000; stroke-linejoin: miter"/>
   </g>
  </g>
  <g id="axes_2">
   <g id="patch_3">
    <path d="M 43.065707 100.060445 
Q 43.829058 99.869607 45.514791 99.869607 
Q 47.200524 99.869607 48.027487 99.67877 
L 65.393717 99.297094 
M 44.210733 93.190288 
L 44.592408 93.190288 
Q 46.62801 93.190288 49.140707 92.872225 
Q 51.653403 92.554162 54.802225 92.013455 
Q 57.951047 91.472749 59.477749 91.281911 
L 62.531152 91.091073 
M 44.783246 88.801021 
Q 47.136911 87.910445 52.289529 87.369738 
Q 57.442147 86.829031 59.859424 85.938455 
Q 60.113874 85.938455 60.813613 85.843037 
Q 61.513351 85.747618 61.767801 85.747618 
L 63.294503 85.747618 
Q 63.421728 85.747618 63.580759 85.461361 
Q 63.739791 85.175105 63.994241 85.175105 
Q 64.185079 85.175105 64.185079 86.892644 
Q 64.185079 86.956257 63.803403 93.571963 
L 62.849215 98.533743 
M 58.141885 80.086099 
Q 58.650785 80.276937 59.63678 80.913063 
Q 60.622775 81.549188 61.195288 81.803639 
L 62.72199 83.139503 
M 57.760209 75.760445 
L 58.52356 75.760445 
Q 58.905236 75.760445 59.700393 76.110314 
Q 60.49555 76.460183 61.417932 77.00089 
Q 62.340314 77.541597 62.531152 77.668822 
L 63.867016 79.195524 
M 45.164921 81.231126 
Q 45.419372 81.358351 46.437173 81.70822 
Q 47.454974 82.058089 48.027487 82.503377 
L 50.699215 83.839241 
M 45.546597 76.778246 
L 46.309948 76.778246 
L 50.508377 78.686623 
M 54.325131 66.091335 
L 54.515969 84.602592 
M 50.126702 66.663848 
L 59.096073 65.137147 
M 40.203141 74.297356 
Q 44.337958 73.279555 52.734817 72.516204 
Q 61.131675 71.752853 65.012042 70.862277 
Q 66.284293 70.544215 67.333901 70.576021 
Q 68.383508 70.607827 69.05144 70.92589 
Q 69.719372 71.243953 69.464921 72.229948 
Q 69.210471 73.215942 67.874607 74.679031 
L 67.111257 76.969084 
M 40.393979 71.18034 
L 39.630628 79.068298 
" clip-path="url(#p893320252f)" style="fill: none; stroke: #000000; stroke-linejoin: miter"/>
   </g>
  </g>
  <g id="axes_3">
   <g id="patch_4">
    <path d="M 92.959108 90.020924 
Q 94.444968 89.603025 97.486338 89.603025 
Q 100.527707 89.603025 102.013567 89.185127 
L 105.913949 89.045828 
M 93.516306 79.294873 
L 94.212803 79.294873 
Q 95.884395 79.294873 101.456369 78.993057 
Q 107.028344 78.691242 107.028344 78.459076 
Q 107.028344 79.202006 106.633662 80.66465 
Q 106.238981 82.127293 105.658567 83.914968 
Q 105.078153 85.702643 104.938854 86.259841 
L 104.799554 89.881624 
M 93.377006 78.459076 
Q 94.166369 82.034427 94.073503 89.742325 
M 84.554713 81.755828 
Q 85.529809 82.359459 87.665732 83.195255 
Q 89.801656 84.031051 90.683885 84.541815 
M 84.136815 77.01965 
L 84.136815 77.576847 
Q 84.136815 79.10914 83.045637 80.780732 
Q 81.954459 82.452325 80.25965 84.332866 
Q 78.564841 86.213408 78.007643 87.049204 
L 76.61465 88.163599 
M 75.221656 79.666338 
L 75.500255 79.666338 
Q 77.682611 78.784108 80.422166 78.110828 
Q 83.16172 77.437548 85.111911 77.135732 
Q 87.062102 76.833917 90.405287 76.416019 
Q 93.748471 75.998121 95.280764 75.765955 
M 83.811783 70.426146 
L 84.090382 96.057229 
M 78.10051 71.261943 
L 78.379108 71.261943 
Q 79.957834 71.261943 81.977675 70.774395 
Q 83.997516 70.286847 86.435255 69.520701 
Q 88.872994 68.754554 89.940955 68.475955 
L 91.19465 67.918758 
" clip-path="url(#pdc557a1747)" style="fill: none; stroke: #000000; stroke-linejoin: miter"/>
   </g>
  </g>
  <g id="axes_4">
   <g id="patch_5">
    <path d="M 127.739613 78.478548 
Q 132.113613 76.550226 133.571613 75.468484 
Q 136.252452 73.493129 138.557032 68.883968 
M 132.019548 80.877194 
Q 132.960194 81.958935 134.206548 84.24 
Q 135.452903 86.521065 136.957935 88.614 
Q 138.462968 90.706935 140.532387 92.117903 
L 143.448387 93.717 
M 122.283871 82.005968 
Q 124.776581 81.441581 130.020677 80.806645 
Q 135.264774 80.17171 137.804516 79.607323 
L 142.037419 78.995903 
M 127.128194 67.614097 
L 127.128194 68.460677 
Q 127.410387 71.517774 127.198742 81.206419 
Q 126.987097 90.895065 127.034129 93.952161 
Q 127.034129 95.033903 127.057645 95.668839 
Q 127.081161 96.303774 127.222258 96.680032 
Q 127.363355 97.05629 127.433903 97.173871 
Q 127.504452 97.291452 127.833677 97.103323 
Q 128.162903 96.915194 128.374548 96.703548 
Q 128.586194 96.491903 129.174097 95.904 
Q 129.762 95.316097 130.18529 94.939839 
L 130.608581 94.469516 
M 111.701613 85.580419 
Q 115.229032 84.451645 117.486581 83.08771 
Q 118.756452 82.335194 119.579516 82.241129 
Q 120.402581 82.147065 120.731806 82.711452 
Q 121.061032 83.275839 121.155097 84.051871 
Q 121.249161 84.827903 121.155097 86.00371 
Q 121.061032 87.179516 120.919935 88.120161 
Q 120.825871 88.684548 120.778839 88.990258 
Q 120.731806 89.295968 120.684774 89.742774 
Q 120.637742 90.189581 120.637742 90.518806 
Q 120.637742 90.848032 120.637742 91.130226 
Q 120.919935 97.761774 119.461935 97.573645 
L 117.016258 95.410161 
M 112.407097 77.443839 
Q 113.018516 77.396806 112.971484 78.149323 
Q 112.924452 78.807774 112.877419 79.866 
Q 112.830387 80.924226 112.783355 81.488613 
Q 112.736323 82.053 112.454129 83.20529 
Q 112.171935 84.357581 111.701613 85.862613 
M 112.266 77.161645 
Q 112.830387 76.973516 113.959161 76.597258 
Q 115.087935 76.221 115.652323 76.056387 
Q 116.21671 75.891774 117.180871 75.750677 
Q 118.145032 75.609581 119.085677 75.609581 
L 121.155097 74.904097 
M 112.68929 69.871645 
L 117.956903 68.319581 
Q 119.744129 68.178484 119.791161 68.178484 
L 120.919935 68.178484 
L 119.932258 75.18629 
" clip-path="url(#paa88540095)" style="fill: none; stroke: #000000; stroke-linejoin: miter"/>
   </g>
  </g>
  <g id="axes_5">
   <g id="patch_6">
    <path d="M 163.330714 88.449107 
Q 163.677857 88.362321 164.111786 88.969821 
Q 164.545714 89.577321 165.023036 89.490536 
L 167.886964 90.792321 
M 157.993393 86.800179 
Q 160.857321 86.236071 163.873125 86.149286 
Q 166.888929 86.0625 169.036875 86.214375 
Q 171.184821 86.36625 174.178929 86.257768 
Q 177.173036 86.149286 180.080357 85.628571 
M 171.9225 83.892857 
L 171.662143 96.129643 
L 170.230179 94.26375 
M 175.046786 68.097857 
Q 175.610893 68.531786 176.587232 69.681696 
Q 177.563571 70.831607 178.040893 71.265536 
M 168.841607 67.23 
L 168.928393 84.804107 
M 164.32875 71.048571 
L 172.83375 70.57125 
M 164.979643 80.811964 
L 173.224286 80.161071 
M 164.93625 77.383929 
L 172.963929 76.863214 
M 161.89875 74.303036 
Q 163.764643 73.825714 165.934286 73.60875 
Q 168.103929 73.391786 170.794286 73.283304 
Q 173.484643 73.174821 174.916607 73.00125 
Q 174.916607 73.00125 176.608929 73.00125 
Q 176.739107 73.00125 176.739107 73.478571 
Q 176.739107 78.338571 175.741071 81.81 
L 175.090179 83.545714 
M 161.89875 73.478571 
L 161.89875 74.303036 
L 161.89875 76.516071 
L 162.549643 82.981607 
M 147.969643 78.381964 
Q 148.707321 77.86125 152.265536 77.470714 
L 159.295179 77.340536 
M 153.827679 68.358214 
L 153.827679 88.275536 
L 153.654107 95.912679 
" clip-path="url(#p8d03b00e41)" style="fill: none; stroke: #000000; stroke-linejoin: miter"/>
   </g>
  </g>
  <g id="axes_6">
   <g id="patch_7">
    <path d="M 190.569176 77.636118 
Q 190.569176 77.636118 190.569176 79.179882 
Q 190.654941 80.251941 191.448265 84.690265 
Q 192.241588 89.128588 192.112941 91.186941 
Q 192.027176 91.53 191.984294 92.216118 
Q 191.941412 92.902235 191.855647 93.245294 
M 184.394118 94.531765 
Q 189.282706 93.588353 195.028941 93.159529 
Q 200.775176 92.730706 205.770971 92.795029 
Q 210.766765 92.859353 216.555882 92.859353 
M 202.833529 81.452647 
Q 202.790647 81.281118 203.069382 81.152471 
Q 203.348118 81.023824 203.348118 80.938059 
L 211.581529 79.908882 
M 202.018765 70.560529 
L 202.018765 71.332412 
Q 202.104529 72.232941 202.383265 74.827324 
Q 202.662 77.421706 202.790647 78.751059 
Q 202.919294 80.080412 203.133706 82.824882 
Q 203.348118 85.569353 203.305235 86.770059 
Q 203.262353 87.970765 203.176588 90.286412 
L 202.919294 92.216118 
L 202.662 92.730706 
M 191.341059 71.589706 
L 191.727 71.589706 
Q 193.313647 71.589706 195.243353 71.439618 
Q 197.173059 71.289529 199.574471 71.032235 
Q 201.975882 70.774941 203.176588 70.689176 
L 212.696471 69.66 
" clip-path="url(#p17f3ca1c89)" style="fill: none; stroke: #000000; stroke-linejoin: miter"/>
   </g>
  </g>
  <g id="axes_7">
   <g id="patch_8">
    <path d="M 240.950153 72.768313 
Q 240.950153 72.768313 240.950153 75.954893 
Q 240.950153 78.191089 241.089916 80.70681 
Q 241.229678 83.222531 241.453298 86.297301 
Q 241.676917 89.372071 241.788727 91.049218 
L 241.453298 92.726365 
M 229.377837 93.397224 
L 252.354755 93.061794 
M 233.906135 78.973758 
L 237.092715 78.973758 
Q 237.14862 78.973758 244.304448 78.638328 
L 248.497316 78.135184 
M 226.414877 76.234417 
L 226.414877 79.756426 
Q 226.414877 79.812331 226.750307 84.117009 
L 226.918021 95.353896 
M 228.315644 69.525828 
Q 229.433742 69.358113 235.918712 69.190399 
Q 242.403681 69.022684 244.639877 67.960491 
L 246.484739 67.625061 
M 236.030521 63.488098 
Q 235.471472 68.799064 231.809701 74.305698 
Q 228.147929 79.812331 223.340107 82.719387 
L 221.495245 83.55796 
" clip-path="url(#p8234571fd7)" style="fill: none; stroke: #000000; stroke-linejoin: miter"/>
   </g>
  </g>
  <g id="axes_8">
   <g id="patch_9">
    <path d="M 261.150612 69.040102 
Q 261.200204 69.387245 261.968878 69.53602 
Q 262.737551 69.684796 262.787143 70.230306 
L 266.20898 73.057041 
M 267.448776 84.11602 
L 268.192653 84.11602 
Q 269.432449 84.11602 270.845816 83.917653 
Q 272.259184 83.719286 273.994898 83.396939 
Q 275.730612 83.074592 276.672857 82.925816 
L 285.847347 82.033163 
M 270.27551 76.578061 
L 281.384082 75.536633 
L 284.359592 74.941531 
M 279.648367 71.222143 
L 279.598776 90.562959 
L 279.747551 91.455612 
M 273.25102 73.602551 
L 273.846122 77.024388 
L 273.697347 82.033163 
Q 272.308776 87.587449 269.234082 89.670306 
M 257.629592 94.728673 
L 260.456327 93.240918 
Q 260.952245 92.992959 261.423367 92.819388 
Q 261.89449 92.645816 262.192041 92.546633 
Q 262.489592 92.447449 263.010306 92.422653 
Q 263.53102 92.397857 263.77898 92.373061 
Q 264.026939 92.348265 264.74602 92.348265 
Q 265.465102 92.348265 265.812245 92.348265 
Q 267.200816 92.100306 268.490204 92.298673 
Q 269.779592 92.497041 271.664082 93.166531 
Q 273.548571 93.83602 274.143673 93.984796 
Q 276.871224 94.728673 280.392245 94.728673 
Q 280.441837 94.728673 284.557959 94.282347 
L 289.120408 91.901939 
M 257.629592 78.71051 
Q 258.571837 78.412959 260.629898 78.016224 
Q 262.687959 77.61949 263.283061 77.470714 
L 266.704898 77.173163 
L 264.175714 80.595 
L 261.944082 82.826633 
Q 261.646531 83.520918 261.646531 83.57051 
L 261.646531 83.868061 
L 264.622041 92.19949 
" clip-path="url(#p9f13a54f49)" style="fill: none; stroke: #000000; stroke-linejoin: miter"/>
   </g>
  </g>
  <g id="axes_9">
   <g id="patch_10">
    <path d="M 313.766186 77.298735 
Q 313.38401 77.871999 313.431782 79.329043 
Q 313.479554 80.786088 313.38401 81.598211 
L 313.38401 87.474161 
Q 313.38401 88.811776 313.169037 91.487005 
Q 312.954063 94.162235 312.954063 95.499849 
L 310.661009 95.069902 
L 309.084535 94.353322 
M 303.877392 79.018526 
Q 306.218218 78.015315 311.186501 77.370393 
Q 316.154784 76.725472 316.919135 76.582156 
Q 321.266383 75.674489 324.37156 75.435629 
L 325.661402 75.483401 
M 308.081324 72.664856 
Q 308.941219 72.473768 310.780439 71.996048 
Q 312.619659 71.518329 313.98116 71.279469 
Q 315.342661 71.040609 316.919135 70.992837 
L 318.638925 70.56289 
M 299.004653 80.451684 
Q 298.956881 80.690544 298.980767 80.881632 
Q 299.004653 81.07272 298.956881 81.263807 
Q 298.909109 81.454895 298.718021 81.598211 
L 298.288073 94.926586 
M 301.011075 75.148997 
Q 298.861337 82.171474 294.418545 83.174685 
L 293.988598 83.604633 
M 299.577916 68.699784 
Q 299.004653 70.515118 297.141547 72.99926 
L 295.708388 74.145786 
" clip-path="url(#p9392e92b13)" style="fill: none; stroke: #000000; stroke-linejoin: miter"/>
   </g>
  </g>
 </g>
 <defs>
  <clipPath id="pd75b004e64">
   <rect x="0" y="36.255654" width="36.45" height="88.678691"/>
  </clipPath>
  <clipPath id="p893320252f">
   <rect x="36.45" y="34.47589" width="36.45" height="92.23822"/>
  </clipPath>
  <clipPath id="pdc557a1747">
   <rect x="72.9" y="46.930987" width="36.45" height="67.328025"/>
  </clipPath>
  <clipPath id="paa88540095">
   <rect x="109.35" y="46.496613" width="36.45" height="68.196774"/>
  </clipPath>
  <clipPath id="p8d03b00e41">
   <rect x="145.8" y="49.135179" width="36.45" height="62.919643"/>
  </clipPath>
  <clipPath id="p17f3ca1c89">
   <rect x="182.25" y="49.505294" width="36.45" height="62.179412"/>
  </clipPath>
  <clipPath id="p8234571fd7">
   <rect x="218.7" y="40.063942" width="36.45" height="81.062117"/>
  </clipPath>
  <clipPath id="p9f13a54f49">
   <rect x="255.15" y="44.640918" width="36.45" height="71.908163"/>
  </clipPath>
  <clipPath id="p9392e92b13">
   <rect x="291.6" y="45.960334" width="36.45" height="69.269332"/>
  </clipPath>
 </defs>
</svg>
