<?xml version="1.0" encoding="utf-8" standalone="no"?>
<!DOCTYPE svg PUBLIC "-//W3C//DTD SVG 1.1//EN"
  "http://www.w3.org/Graphics/SVG/1.1/DTD/svg11.dtd">
<svg xmlns:xlink="http://www.w3.org/1999/xlink" width="252pt" height="72pt" viewBox="0 0 252 72" xmlns="http://www.w3.org/2000/svg" version="1.1">
 <metadata>
  <rdf:RDF xmlns:dc="http://purl.org/dc/elements/1.1/" xmlns:cc="http://creativecommons.org/ns#" xmlns:rdf="http://www.w3.org/1999/02/22-rdf-syntax-ns#">
   <cc:Work>
    <dc:type rdf:resource="http://purl.org/dc/dcmitype/StillImage"/>
    <dc:date>2023-02-13T20:30:15.481972</dc:date>
    <dc:format>image/svg+xml</dc:format>
    <dc:creator>
     <cc:Agent>
      <dc:title>Matplotlib v3.6.1, https://matplotlib.org/</dc:title>
     </cc:Agent>
    </dc:creator>
   </cc:Work>
  </rdf:RDF>
 </metadata>
 <defs>
  <style type="text/css">*{stroke-linejoin: round; stroke-linecap: butt}</style>
 </defs>
 <g id="figure_1">
  <g id="patch_1">
   <path d="M 0 72 
L 252 72 
L 252 0 
L 0 0 
z
" style="fill: #8fff9f"/>
  </g>
  <g id="axes_1">
   <g id="patch_2">
    <path d="M 3.320069 39.868883 
L 3.320069 39.419007 
Q 3.320069 37.769462 5.063338 36.682262 
Q 6.806607 35.595062 8.493641 35.595062 
Q 10.705531 35.595062 12.073903 36.794731 
Q 13.442276 37.9944 13.442276 40.20629 
Q 13.442276 42.30571 11.624028 43.336676 
Q 9.805779 44.367641 7.59389 44.367641 
Q 6.919076 44.367641 6.412966 44.255172 
Q 5.906855 44.142703 5.288276 43.917766 
Q 4.669697 43.692828 4.219821 43.580359 
L 3.095131 42.568138 
M 2.757724 36.832221 
Q 3.2076 38.444276 3.470028 40.262524 
Q 3.732455 42.080772 3.78869 43.749062 
Q 3.844924 45.417352 3.882414 47.27309 
Q 3.919903 49.128828 3.882414 50.778372 
L 3.769945 57.863917 
" clip-path="url(#p29d13c87fa)" style="fill: none; stroke: #000000; stroke-linejoin: miter"/>
   </g>
  </g>
  <g id="axes_2">
   <g id="patch_3">
    <path d="M 21.0384 34.357903 
Q 21.300828 34.395393 21.638234 33.795559 
Q 21.975641 33.195724 22.500497 33.345683 
L 26.999255 29.2968 
M 20.138648 40.656166 
L 20.363586 40.656166 
Q 21.07589 40.656166 22.63171 41.330979 
Q 24.187531 42.005793 25.087283 42.005793 
Q 27.786538 42.005793 27.786538 38.744193 
Q 27.786538 36.607283 24.412469 36.607283 
Q 22.537986 36.607283 21.450786 37.750717 
Q 20.363586 38.894152 20.363586 40.768634 
Q 20.363586 43.617848 21.694469 45.454841 
Q 23.025352 47.291834 25.762097 47.291834 
Q 27.224193 47.591752 28.461352 45.6048 
" clip-path="url(#pe49e2d62ff)" style="fill: none; stroke: #000000; stroke-linejoin: miter"/>
   </g>
  </g>
  <g id="axes_3">
   <g id="patch_4">
    <path d="M 41.118579 29.071862 
Q 40.743683 29.146841 40.612469 29.577972 
Q 40.481255 30.009103 40.556234 30.42149 
Q 40.556234 30.571448 40.593724 30.702662 
Q 40.631214 30.833876 40.687448 30.89011 
Q 40.743683 30.946345 40.799917 31.040069 
Q 40.856152 31.133793 40.893641 31.208772 
L 41.00611 29.859145 
M 41.00611 34.020497 
Q 40.106359 39.006621 39.881421 42.793076 
L 40.331297 45.379862 
L 40.668703 46.054676 
" clip-path="url(#p3c9caec41e)" style="fill: none; stroke: #000000; stroke-linejoin: miter"/>
   </g>
  </g>
  <g id="axes_4">
   <g id="patch_5">
    <path d="M 51.563917 36.382345 
Q 51.526428 36.494814 51.657641 36.701007 
Q 51.788855 36.9072 51.676386 37.057159 
L 51.676386 39.306538 
Q 51.676386 40.506207 52.013793 41.724621 
Q 52.3512 42.943034 53.213462 43.93651 
Q 54.075724 44.929986 55.275393 44.929986 
Q 56.512552 44.929986 57.187366 43.861531 
Q 57.862179 42.793076 58.312055 41.143531 
Q 58.761931 39.493986 59.099338 38.969131 
L 59.886621 36.382345 
L 59.661683 42.680607 
L 59.661683 45.154924 
Q 59.661683 47.066897 60.392731 51.00331 
Q 61.123779 54.939724 61.123779 56.964166 
Q 61.873572 59.213545 60.786372 60.188276 
Q 59.699172 61.163007 57.637241 60.78811 
Q 55.837738 60.488193 54.919241 60.169531 
Q 54.000745 59.850869 52.013793 58.988607 
L 51.901324 58.426262 
" clip-path="url(#p9c0b3010fb)" style="fill: none; stroke: #000000; stroke-linejoin: miter"/>
   </g>
  </g>
  <g id="axes_5">
   <g id="patch_6">
    <path d="M 68.776138 33.983007 
Q 69.300993 34.245434 69.694634 35.107697 
Q 70.088276 35.969959 70.538152 36.607283 
Q 70.988028 37.244607 71.8128 37.132138 
Q 72.9 37.357076 73.687283 36.832221 
Q 74.474566 36.307366 74.830717 35.538828 
Q 75.186869 34.77029 75.65549 33.68309 
Q 76.12411 32.59589 76.536497 32.071034 
M 76.349048 40.281269 
L 76.011641 40.281269 
Q 75.486786 40.281269 74.362097 40.374993 
Q 73.237407 40.468717 72.637572 40.468717 
Q 70.7256 40.468717 69.263503 41.612152 
Q 67.801407 42.755586 67.801407 44.5176 
Q 67.801407 46.017186 69.375972 47.141876 
Q 70.950538 48.266566 72.637572 48.266566 
Q 74.512055 48.266566 75.711724 45.698524 
Q 76.911393 43.130483 76.911393 40.843614 
L 76.798924 40.506207 
L 76.798924 40.843614 
L 76.798924 41.968303 
Q 76.798924 42.793076 77.098841 44.367641 
Q 77.398759 45.942207 77.698676 47.104386 
L 77.998593 48.304055 
" clip-path="url(#p7470376538)" style="fill: none; stroke: #000000; stroke-linejoin: miter"/>
   </g>
  </g>
  <g id="axes_6">
   <g id="patch_7">
    <path d="M 84.638731 37.282097 
L 84.638731 37.844441 
Q 84.901159 39.868883 84.938648 41.312234 
Q 84.976138 42.755586 84.882414 44.667559 
Q 84.78869 46.579531 84.78869 48.191586 
L 84.863669 39.643945 
Q 84.863669 38.144359 86.456979 37.507034 
Q 88.05029 36.86971 89.474897 37.282097 
Q 91.386869 37.844441 92.305366 39.04411 
Q 93.223862 40.243779 93.280097 41.668386 
Q 93.336331 43.092993 93.373821 44.817517 
Q 93.41131 46.542041 93.561269 48.191586 
" clip-path="url(#pb936215222)" style="fill: none; stroke: #000000; stroke-linejoin: miter"/>
   </g>
  </g>
  <g id="axes_7">
   <g id="patch_8">
    <path d="M 110.087191 39.096404 
Q 109.83236 39.023596 108.86764 38.623146 
Q 107.902921 38.222697 107.24764 38.077079 
Q 106.59236 37.931461 105.937079 38.00427 
Q 103.315955 38.00427 101.677753 40.388764 
Q 100.039551 42.773258 100.039551 45.430787 
Q 100.039551 47.068989 105.281798 47.068989 
Q 106.847191 47.068989 108.175955 45.558202 
Q 109.504719 44.047416 110.178202 42.172584 
Q 110.851685 40.297753 110.851685 38.768764 
Q 110.851685 37.27618 110.815281 36.984944 
L 110.742472 38.077079 
Q 110.742472 38.550337 110.742472 38.987191 
Q 110.778876 40.188539 110.979101 42.281798 
Q 111.179326 44.375056 111.343146 46.049663 
Q 111.506966 47.72427 111.543371 49.872135 
Q 111.579775 52.02 111.415955 53.658202 
Q 111.252135 55.296404 110.687865 56.971011 
Q 110.123596 58.645618 109.195281 59.737753 
Q 108.266966 60.829888 106.665169 61.521573 
Q 105.063371 62.213258 102.915506 62.213258 
Q 101.277303 62.213258 100.185169 61.466966 
Q 99.093034 60.720674 99.093034 59.155281 
Q 99.020225 58.936854 99.056629 58.936854 
Q 99.093034 58.936854 99.202247 58.936854 
Q 99.311461 58.936854 99.311461 58.82764 
" clip-path="url(#pce9d3212ff)" style="fill: none; stroke: #000000; stroke-linejoin: miter"/>
   </g>
  </g>
  <g id="axes_8"/>
  <g id="axes_9">
   <g id="patch_9">
    <path d="M 141.299007 34.920248 
Q 140.436745 36.007448 137.325103 40.018841 
Q 134.213462 44.030234 132.526428 46.054676 
M 133.426179 36.044938 
Q 135.300662 37.319586 137.793724 40.843614 
Q 140.286786 44.367641 141.861352 45.6048 
L 142.873572 45.942207 
" clip-path="url(#pb1d32ba9f1)" style="fill: none; stroke: #000000; stroke-linejoin: miter"/>
   </g>
  </g>
  <g id="axes_10">
   <g id="patch_10">
    <path d="M 151.613131 30.384 
L 154.874731 34.657821 
M 154.537324 37.019669 
L 154.274897 41.743366 
Q 154.387366 42.268221 154.518579 43.749062 
Q 154.649793 45.229903 154.9872 46.1484 
Q 155.324607 47.066897 156.186869 47.591752 
" clip-path="url(#pfeeae449e5)" style="fill: none; stroke: #000000; stroke-linejoin: miter"/>
   </g>
  </g>
  <g id="axes_11">
   <g id="patch_11">
    <path d="M 166.557228 37.244607 
Q 167.606938 37.207117 167.794386 37.132138 
Q 171.205945 37.132138 172.986703 39.212814 
Q 174.767462 41.29349 174.767462 44.780028 
Q 174.767462 47.704221 170.156234 47.704221 
Q 169.51891 47.704221 168.97531 47.591752 
Q 168.43171 47.479283 167.794386 47.254345 
Q 167.157062 47.029407 166.669697 46.916938 
L 165.432538 45.679779 
M 166.444759 25.435366 
L 166.444759 26.560055 
Q 166.444759 29.409269 166.557228 33.008276 
Q 166.669697 36.607283 166.857145 40.899848 
Q 167.044593 45.192414 167.119572 47.141876 
" clip-path="url(#paa61998c49)" style="fill: none; stroke: #000000; stroke-linejoin: miter"/>
   </g>
  </g>
  <g id="axes_12">
   <g id="patch_12">
    <path d="M 181.032703 35.332634 
L 191.379848 35.332634 
M 190.592566 39.344028 
Q 190.592566 39.344028 187.668372 39.344028 
Q 180.695297 39.344028 180.695297 44.5176 
Q 180.695297 46.279614 182.45731 47.19811 
Q 184.219324 48.116607 186.206276 48.116607 
Q 187.443434 47.891669 188.249462 47.2356 
Q 189.05549 46.579531 189.411641 45.586055 
Q 189.767793 44.592579 189.936497 43.674083 
Q 190.1052 42.755586 190.255159 41.443448 
Q 190.405117 40.13131 190.592566 39.344028 
Q 191.679766 46.092166 191.792234 47.029407 
L 191.904703 48.154097 
" clip-path="url(#pc2c3dbd69f)" style="fill: none; stroke: #000000; stroke-linejoin: miter"/>
   </g>
  </g>
  <g id="axes_13">
   <g id="patch_13">
    <path d="M 205.7616 35.032717 
Q 204.71189 34.582841 203.737159 34.69531 
Q 200.700497 35.032717 198.788524 36.701007 
Q 196.876552 38.369297 196.876552 41.330979 
Q 196.876552 43.917766 198.882248 45.6048 
Q 200.887945 47.291834 203.512221 47.291834 
Q 205.874069 47.291834 206.998759 45.361117 
Q 208.123448 43.4304 208.123448 40.881103 
Q 208.123448 39.643945 207.711062 38.706703 
Q 207.298676 37.769462 206.773821 37.300841 
Q 206.248966 36.832221 205.499172 36.119917 
Q 204.749379 35.407614 204.299503 34.69531 
L 203.062345 34.245434 
" clip-path="url(#pd45bf5d56b)" style="fill: none; stroke: #000000; stroke-linejoin: miter"/>
   </g>
  </g>
  <g id="axes_14">
   <g id="patch_14">
    <path d="M 217.987697 39.981352 
Q 218.999917 40.956083 219.337324 42.905545 
Q 219.524772 43.955255 219.112386 46.167145 
L 217.875228 47.629241 
" clip-path="url(#p0b29a00dc4)" style="fill: none; stroke: #000000; stroke-linejoin: miter"/>
   </g>
  </g>
 </g>
 <defs>
  <clipPath id="p29d13c87fa">
   <rect x="0.883241" y="8.64" width="14.433517" height="54.36"/>
  </clipPath>
  <clipPath id="pe49e2d62ff">
   <rect x="18.264166" y="8.64" width="12.071669" height="54.36"/>
  </clipPath>
  <clipPath id="p3c9caec41e">
   <rect x="38.006938" y="8.64" width="4.986124" height="54.36"/>
  </clipPath>
  <clipPath id="p9c0b3010fb">
   <rect x="49.651945" y="8.64" width="14.09611" height="54.36"/>
  </clipPath>
  <clipPath id="p7470376538">
   <rect x="65.926924" y="8.64" width="13.946152" height="54.36"/>
  </clipPath>
  <clipPath id="pb936215222">
   <rect x="82.764248" y="8.64" width="12.671503" height="54.36"/>
  </clipPath>
  <clipPath id="pce9d3212ff">
   <rect x="97.2" y="9.426742" width="16.2" height="52.786517"/>
  </clipPath>
  <clipPath id="pb1d32ba9f1">
   <rect x="130.651945" y="8.64" width="14.09611" height="54.36"/>
  </clipPath>
  <clipPath id="pfeeae449e5">
   <rect x="149.738648" y="8.64" width="8.322703" height="54.36"/>
  </clipPath>
  <clipPath id="paa61998c49">
   <rect x="163.558055" y="8.64" width="13.08389" height="54.36"/>
  </clipPath>
  <clipPath id="pc2c3dbd69f">
   <rect x="178.820814" y="8.64" width="14.958372" height="54.36"/>
  </clipPath>
  <clipPath id="pd45bf5d56b">
   <rect x="195.002069" y="8.64" width="14.995862" height="54.36"/>
  </clipPath>
  <clipPath id="p0b29a00dc4">
   <rect x="216.000745" y="8.64" width="5.39851" height="54.36"/>
  </clipPath>
 </defs>
</svg>
