<?xml version="1.0" encoding="utf-8" standalone="no"?>
<!DOCTYPE svg PUBLIC "-//W3C//DTD SVG 1.1//EN"
  "http://www.w3.org/Graphics/SVG/1.1/DTD/svg11.dtd">
<svg xmlns:xlink="http://www.w3.org/1999/xlink" width="306pt" height="72pt" viewBox="0 0 306 72" xmlns="http://www.w3.org/2000/svg" version="1.1">
 <metadata>
  <rdf:RDF xmlns:dc="http://purl.org/dc/elements/1.1/" xmlns:cc="http://creativecommons.org/ns#" xmlns:rdf="http://www.w3.org/1999/02/22-rdf-syntax-ns#">
   <cc:Work>
    <dc:type rdf:resource="http://purl.org/dc/dcmitype/StillImage"/>
    <dc:date>2023-02-13T20:30:25.347731</dc:date>
    <dc:format>image/svg+xml</dc:format>
    <dc:creator>
     <cc:Agent>
      <dc:title>Matplotlib v3.6.1, https://matplotlib.org/</dc:title>
     </cc:Agent>
    </dc:creator>
   </cc:Work>
  </rdf:RDF>
 </metadata>
 <defs>
  <style type="text/css">*{stroke-linejoin: round; stroke-linecap: butt}</style>
 </defs>
 <g id="figure_1">
  <g id="patch_1">
   <path d="M 0 72 
L 306 72 
L 306 0 
L 0 0 
z
" style="fill: #8fff9f"/>
  </g>
  <g id="axes_1">
   <g id="patch_2">
    <path d="M 13.356735 34.365306 
Q 13.356735 34.365306 12.860816 34.365306 
Q 12.067347 34.365306 10.579592 34.067755 
Q 9.091837 33.770204 8.298367 33.770204 
Q 5.521224 33.770204 3.587143 35.224898 
Q 1.653061 36.679592 1.653061 39.423673 
Q 1.653061 40.94449 3.140816 42.399184 
Q 4.628571 43.853878 6.562653 44.663878 
Q 8.496735 45.473878 9.98449 45.473878 
Q 10.910204 45.473878 11.60449 45.110204 
Q 12.298776 44.746531 13.042653 44.118367 
Q 13.786531 43.490204 14.348571 43.192653 
L 14.546939 42.696735 
" clip-path="url(#p3311fe1e1c)" style="fill: none; stroke: #000000; stroke-linejoin: miter"/>
   </g>
  </g>
  <g id="axes_2">
   <g id="patch_3">
    <path d="M 19.688772 35.145186 
Q 19.688772 35.145186 19.688772 35.595062 
Q 19.688772 36.269876 19.576303 37.619503 
Q 19.463834 38.969131 19.463834 39.643945 
Q 19.463834 41.930814 20.700993 43.599103 
Q 21.938152 45.267393 24.075062 45.267393 
Q 25.462179 45.154924 26.230717 43.917766 
Q 26.999255 42.680607 27.149214 41.237255 
Q 27.299172 39.793903 27.5616 37.9944 
Q 27.824028 36.194897 28.236414 35.370124 
Q 28.386372 35.070207 28.386372 35.670041 
Q 28.386372 36.269876 28.123945 38.706703 
Q 27.899007 41.031062 27.899007 41.555917 
Q 27.749048 42.643117 28.086455 43.767807 
Q 28.423862 44.892497 29.136166 45.6048 
" clip-path="url(#p90faeaa49d)" style="fill: none; stroke: #000000; stroke-linejoin: miter"/>
   </g>
  </g>
  <g id="axes_3">
   <g id="patch_4">
    <path d="M 40.106359 28.621986 
Q 40.331297 30.34651 40.406276 32.146014 
Q 40.481255 33.945517 40.46251 36.551048 
Q 40.443766 39.156579 40.443766 40.093821 
Q 40.443766 40.13131 40.668703 45.829738 
L 40.893641 46.841959 
" clip-path="url(#p8ace33817c)" style="fill: none; stroke: #000000; stroke-linejoin: miter"/>
   </g>
  </g>
  <g id="axes_4">
   <g id="patch_5">
    <path d="M 51.863834 37.95691 
L 52.538648 37.95691 
Q 53.250952 37.95691 54.038234 37.881931 
Q 54.825517 37.806952 55.781503 37.675738 
Q 56.73749 37.544524 57.262345 37.507034 
L 61.536166 35.82 
M 57.487283 30.42149 
L 57.487283 31.43371 
Q 57.487283 33.383172 56.812469 37.207117 
Q 56.137655 41.031062 56.137655 43.018014 
Q 56.137655 43.805297 56.137655 44.105214 
Q 56.137655 44.405131 56.231379 45.042455 
Q 56.325103 45.679779 56.512552 45.960952 
Q 56.7 46.242124 57.093641 46.485807 
Q 57.487283 46.72949 58.049628 46.72949 
Q 58.162097 46.692 58.480759 46.72949 
Q 58.799421 46.766979 58.986869 46.710745 
Q 59.174317 46.65451 59.174317 46.392083 
" clip-path="url(#p32a906b632)" style="fill: none; stroke: #000000; stroke-linejoin: miter"/>
   </g>
  </g>
  <g id="axes_5">
   <g id="patch_6">
    <path d="M 73.518579 29.071862 
Q 73.143683 29.146841 73.012469 29.577972 
Q 72.881255 30.009103 72.956234 30.42149 
Q 72.956234 30.571448 72.993724 30.702662 
Q 73.031214 30.833876 73.087448 30.89011 
Q 73.143683 30.946345 73.199917 31.040069 
Q 73.256152 31.133793 73.293641 31.208772 
L 73.40611 29.859145 
M 73.40611 34.020497 
Q 72.506359 39.006621 72.281421 42.793076 
L 72.731297 45.379862 
L 73.068703 46.054676 
" clip-path="url(#pcb19dbc4d6)" style="fill: none; stroke: #000000; stroke-linejoin: miter"/>
   </g>
  </g>
  <g id="axes_6">
   <g id="patch_7">
    <path d="M 84.826179 34.807779 
Q 86.438234 36.719752 87.731628 39.6252 
Q 89.025021 42.530648 89.324938 45.154924 
Q 90.374648 43.655338 91.293145 38.819172 
Q 92.211641 33.983007 93.373821 32.108524 
" clip-path="url(#p9350658a95)" style="fill: none; stroke: #000000; stroke-linejoin: miter"/>
   </g>
  </g>
  <g id="axes_7">
   <g id="patch_8">
    <path d="M 110.843923 36.441748 
Q 109.634968 35.094627 105.662687 35.094627 
Q 104.142857 35.094627 103.365672 35.146439 
Q 102.588486 35.198252 101.58678 35.440043 
Q 100.585075 35.681834 100.101493 36.182687 
Q 99.61791 36.683539 99.272495 37.616162 
Q 98.927079 38.548785 98.927079 39.964989 
Q 98.927079 42.037484 100.343284 43.280981 
Q 101.759488 44.524478 103.693817 44.524478 
Q 106.353518 44.524478 109.116844 38.721493 
Q 110.463966 35.854542 110.463966 35.82 
Q 110.809382 35.578209 110.843923 36.441748 
Q 110.843923 37.512537 111.258422 40.362217 
Q 111.672921 43.211898 111.672921 44.524478 
" clip-path="url(#pbf77183dfa)" style="fill: none; stroke: #000000; stroke-linejoin: miter"/>
   </g>
  </g>
  <g id="axes_8">
   <g id="patch_9">
    <path d="M 116.663834 37.95691 
L 117.338648 37.95691 
Q 118.050952 37.95691 118.838234 37.881931 
Q 119.625517 37.806952 120.581503 37.675738 
Q 121.53749 37.544524 122.062345 37.507034 
L 126.336166 35.82 
M 122.287283 30.42149 
L 122.287283 31.43371 
Q 122.287283 33.383172 121.612469 37.207117 
Q 120.937655 41.031062 120.937655 43.018014 
Q 120.937655 43.805297 120.937655 44.105214 
Q 120.937655 44.405131 121.031379 45.042455 
Q 121.125103 45.679779 121.312552 45.960952 
Q 121.5 46.242124 121.893641 46.485807 
Q 122.287283 46.72949 122.849628 46.72949 
Q 122.962097 46.692 123.280759 46.72949 
Q 123.599421 46.766979 123.786869 46.710745 
Q 123.974317 46.65451 123.974317 46.392083 
" clip-path="url(#pd0779f0a65)" style="fill: none; stroke: #000000; stroke-linejoin: miter"/>
   </g>
  </g>
  <g id="axes_9">
   <g id="patch_10">
    <path d="M 138.318579 29.071862 
Q 137.943683 29.146841 137.812469 29.577972 
Q 137.681255 30.009103 137.756234 30.42149 
Q 137.756234 30.571448 137.793724 30.702662 
Q 137.831214 30.833876 137.887448 30.89011 
Q 137.943683 30.946345 137.999917 31.040069 
Q 138.056152 31.133793 138.093641 31.208772 
L 138.20611 29.859145 
M 138.20611 34.020497 
Q 137.306359 39.006621 137.081421 42.793076 
L 137.531297 45.379862 
L 137.868703 46.054676 
" clip-path="url(#pc9a016f250)" style="fill: none; stroke: #000000; stroke-linejoin: miter"/>
   </g>
  </g>
  <g id="axes_10">
   <g id="patch_11">
    <path d="M 149.438731 37.282097 
L 149.438731 37.844441 
Q 149.701159 39.868883 149.738648 41.312234 
Q 149.776138 42.755586 149.682414 44.667559 
Q 149.58869 46.579531 149.58869 48.191586 
L 149.663669 39.643945 
Q 149.663669 38.144359 151.256979 37.507034 
Q 152.85029 36.86971 154.274897 37.282097 
Q 156.186869 37.844441 157.105366 39.04411 
Q 158.023862 40.243779 158.080097 41.668386 
Q 158.136331 43.092993 158.173821 44.817517 
Q 158.21131 46.542041 158.361269 48.191586 
" clip-path="url(#pd47b8e1f8e)" style="fill: none; stroke: #000000; stroke-linejoin: miter"/>
   </g>
  </g>
  <g id="axes_11">
   <g id="patch_12">
    <path d="M 174.887191 39.096404 
Q 174.63236 39.023596 173.66764 38.623146 
Q 172.702921 38.222697 172.04764 38.077079 
Q 171.39236 37.931461 170.737079 38.00427 
Q 168.115955 38.00427 166.477753 40.388764 
Q 164.839551 42.773258 164.839551 45.430787 
Q 164.839551 47.068989 170.081798 47.068989 
Q 171.647191 47.068989 172.975955 45.558202 
Q 174.304719 44.047416 174.978202 42.172584 
Q 175.651685 40.297753 175.651685 38.768764 
Q 175.651685 37.27618 175.615281 36.984944 
L 175.542472 38.077079 
Q 175.542472 38.550337 175.542472 38.987191 
Q 175.578876 40.188539 175.779101 42.281798 
Q 175.979326 44.375056 176.143146 46.049663 
Q 176.306966 47.72427 176.343371 49.872135 
Q 176.379775 52.02 176.215955 53.658202 
Q 176.052135 55.296404 175.487865 56.971011 
Q 174.923596 58.645618 173.995281 59.737753 
Q 173.066966 60.829888 171.465169 61.521573 
Q 169.863371 62.213258 167.715506 62.213258 
Q 166.077303 62.213258 164.985169 61.466966 
Q 163.893034 60.720674 163.893034 59.155281 
Q 163.820225 58.936854 163.856629 58.936854 
Q 163.893034 58.936854 164.002247 58.936854 
Q 164.111461 58.936854 164.111461 58.82764 
" clip-path="url(#p211d64f7d0)" style="fill: none; stroke: #000000; stroke-linejoin: miter"/>
   </g>
  </g>
  <g id="axes_12"/>
  <g id="axes_13">
   <g id="patch_13">
    <path d="M 207.756735 34.365306 
Q 207.756735 34.365306 207.260816 34.365306 
Q 206.467347 34.365306 204.979592 34.067755 
Q 203.491837 33.770204 202.698367 33.770204 
Q 199.921224 33.770204 197.987143 35.224898 
Q 196.053061 36.679592 196.053061 39.423673 
Q 196.053061 40.94449 197.540816 42.399184 
Q 199.028571 43.853878 200.962653 44.663878 
Q 202.896735 45.473878 204.38449 45.473878 
Q 205.310204 45.473878 206.00449 45.110204 
Q 206.698776 44.746531 207.442653 44.118367 
Q 208.186531 43.490204 208.748571 43.192653 
L 208.946939 42.696735 
" clip-path="url(#p57c7b4c44c)" style="fill: none; stroke: #000000; stroke-linejoin: miter"/>
   </g>
  </g>
  <g id="axes_14">
   <g id="patch_14">
    <path d="M 212.457798 38.160826 
Q 215.430275 39.535596 220.149083 39.721376 
Q 221.672477 39.721376 222.359862 38.550963 
Q 223.047248 37.38055 223.047248 35.82 
Q 223.047248 35.299817 222.954358 34.909679 
Q 222.861468 34.519541 222.619954 34.296606 
Q 222.37844 34.07367 222.211239 33.943624 
Q 222.044037 33.813578 221.598165 33.757844 
Q 221.152294 33.70211 220.947936 33.683532 
Q 220.743578 33.664954 220.167661 33.683532 
Q 219.591743 33.70211 219.368807 33.70211 
Q 217.325229 33.70211 215.838991 35.578486 
Q 214.352752 37.454862 214.352752 39.609908 
Q 214.352752 42.619541 216.284862 44.570229 
Q 218.216972 46.520917 221.263761 46.520917 
Q 223.418807 46.818165 224.942202 44.29156 
" clip-path="url(#p5538b35139)" style="fill: none; stroke: #000000; stroke-linejoin: miter"/>
   </g>
  </g>
  <g id="axes_15">
   <g id="patch_15">
    <path d="M 234.506359 28.621986 
Q 234.731297 30.34651 234.806276 32.146014 
Q 234.881255 33.945517 234.86251 36.551048 
Q 234.843766 39.156579 234.843766 40.093821 
Q 234.843766 40.13131 235.068703 45.829738 
L 235.293641 46.841959 
" clip-path="url(#p1c6600a869)" style="fill: none; stroke: #000000; stroke-linejoin: miter"/>
   </g>
  </g>
  <g id="axes_16">
   <g id="patch_16">
    <path d="M 250.706359 28.621986 
Q 250.931297 30.34651 251.006276 32.146014 
Q 251.081255 33.945517 251.06251 36.551048 
Q 251.043766 39.156579 251.043766 40.093821 
Q 251.043766 40.13131 251.268703 45.829738 
L 251.493641 46.841959 
" clip-path="url(#pdc3f619375)" style="fill: none; stroke: #000000; stroke-linejoin: miter"/>
   </g>
  </g>
  <g id="axes_17">
   <g id="patch_17">
    <path d="M 262.857476 43.917766 
Q 263.157393 44.180193 264.169614 45.154924 
Q 265.181834 46.129655 265.744179 46.560786 
Q 266.306524 46.991917 267.33749 47.385559 
Q 268.368455 47.7792 269.380676 47.629241 
Q 270.05549 47.629241 270.52411 47.404303 
Q 270.992731 47.179366 271.217669 46.879448 
Q 271.442607 46.579531 271.573821 45.979697 
Q 271.705034 45.379862 271.723779 44.967476 
Q 271.742524 44.55509 271.742524 43.805297 
Q 271.742524 42.718097 270.842772 42.043283 
Q 269.943021 41.368469 268.649628 41.031062 
Q 267.356234 40.693655 266.062841 40.300014 
Q 264.769448 39.906372 263.869697 38.987876 
Q 262.969945 38.069379 262.969945 36.607283 
Q 262.969945 36.082428 263.138648 35.726276 
Q 263.307352 35.370124 263.700993 35.145186 
Q 264.094634 34.920248 264.375807 34.807779 
Q 264.656979 34.69531 265.313048 34.639076 
Q 265.969117 34.582841 266.156566 34.582841 
Q 266.344014 34.582841 267.018828 34.582841 
Q 268.218497 34.582841 268.799586 34.995228 
Q 269.380676 35.407614 269.699338 36.026193 
Q 270.018 36.644772 270.280428 36.832221 
" clip-path="url(#p44d8d24b47)" style="fill: none; stroke: #000000; stroke-linejoin: miter"/>
   </g>
  </g>
 </g>
 <defs>
  <clipPath id="p3311fe1e1c">
   <rect x="0" y="11.850612" width="16.2" height="47.938776"/>
  </clipPath>
  <clipPath id="p90faeaa49d">
   <rect x="17.589352" y="8.64" width="13.421297" height="54.36"/>
  </clipPath>
  <clipPath id="p8ace33817c">
   <rect x="38.231876" y="8.64" width="4.536248" height="54.36"/>
  </clipPath>
  <clipPath id="p32a906b632">
   <rect x="49.989352" y="8.64" width="13.421297" height="54.36"/>
  </clipPath>
  <clipPath id="pcb19dbc4d6">
   <rect x="70.406938" y="8.64" width="4.986124" height="54.36"/>
  </clipPath>
  <clipPath id="p9350658a95">
   <rect x="82.951697" y="8.64" width="12.296607" height="54.36"/>
  </clipPath>
  <clipPath id="pbf77183dfa">
   <rect x="97.2" y="10.777356" width="16.2" height="50.085288"/>
  </clipPath>
  <clipPath id="pd0779f0a65">
   <rect x="114.789352" y="8.64" width="13.421297" height="54.36"/>
  </clipPath>
  <clipPath id="pc9a016f250">
   <rect x="135.206938" y="8.64" width="4.986124" height="54.36"/>
  </clipPath>
  <clipPath id="pd47b8e1f8e">
   <rect x="147.564248" y="8.64" width="12.671503" height="54.36"/>
  </clipPath>
  <clipPath id="p211d64f7d0">
   <rect x="162" y="9.426742" width="16.2" height="52.786517"/>
  </clipPath>
  <clipPath id="p57c7b4c44c">
   <rect x="194.4" y="11.850612" width="16.2" height="47.938776"/>
  </clipPath>
  <clipPath id="p5538b35139">
   <rect x="210.6" y="8.881927" width="16.2" height="53.876147"/>
  </clipPath>
  <clipPath id="p1c6600a869">
   <rect x="232.631876" y="8.64" width="4.536248" height="54.36"/>
  </clipPath>
  <clipPath id="pdc3f619375">
   <rect x="248.831876" y="8.64" width="4.536248" height="54.36"/>
  </clipPath>
  <clipPath id="p44d8d24b47">
   <rect x="260.982993" y="8.64" width="12.634014" height="54.36"/>
  </clipPath>
 </defs>
</svg>
