<?xml version="1.0" encoding="utf-8" standalone="no"?>
<!DOCTYPE svg PUBLIC "-//W3C//DTD SVG 1.1//EN"
  "http://www.w3.org/Graphics/SVG/1.1/DTD/svg11.dtd">
<svg xmlns:xlink="http://www.w3.org/1999/xlink" width="522pt" height="72pt" viewBox="0 0 522 72" xmlns="http://www.w3.org/2000/svg" version="1.1">
 <metadata>
  <rdf:RDF xmlns:dc="http://purl.org/dc/elements/1.1/" xmlns:cc="http://creativecommons.org/ns#" xmlns:rdf="http://www.w3.org/1999/02/22-rdf-syntax-ns#">
   <cc:Work>
    <dc:type rdf:resource="http://purl.org/dc/dcmitype/StillImage"/>
    <dc:date>2023-02-13T20:50:16.057381</dc:date>
    <dc:format>image/svg+xml</dc:format>
    <dc:creator>
     <cc:Agent>
      <dc:title>Matplotlib v3.6.1, https://matplotlib.org/</dc:title>
     </cc:Agent>
    </dc:creator>
   </cc:Work>
  </rdf:RDF>
 </metadata>
 <defs>
  <style type="text/css">*{stroke-linejoin: round; stroke-linecap: butt}</style>
 </defs>
 <g id="figure_1">
  <g id="patch_1">
   <path d="M 0 72 
L 522 72 
L 522 0 
L 0 0 
z
" style="fill: #8fff9f"/>
  </g>
  <g id="axes_1">
   <g id="patch_2">
    <path d="M 13.643923 36.441748 
Q 12.434968 35.094627 8.462687 35.094627 
Q 6.942857 35.094627 6.165672 35.146439 
Q 5.388486 35.198252 4.38678 35.440043 
Q 3.385075 35.681834 2.901493 36.182687 
Q 2.41791 36.683539 2.072495 37.616162 
Q 1.727079 38.548785 1.727079 39.964989 
Q 1.727079 42.037484 3.143284 43.280981 
Q 4.559488 44.524478 6.493817 44.524478 
Q 9.153518 44.524478 11.916844 38.721493 
Q 13.263966 35.854542 13.263966 35.82 
Q 13.609382 35.578209 13.643923 36.441748 
Q 13.643923 37.512537 14.058422 40.362217 
Q 14.472921 43.211898 14.472921 44.524478 
" clip-path="url(#p0ea73bb23b)" style="fill: none; stroke: #000000; stroke-linejoin: miter"/>
   </g>
  </g>
  <g id="axes_2">
   <g id="patch_3">
    <path d="M 19.838731 37.282097 
L 19.838731 37.844441 
Q 20.101159 39.868883 20.138648 41.312234 
Q 20.176138 42.755586 20.082414 44.667559 
Q 19.98869 46.579531 19.98869 48.191586 
L 20.063669 39.643945 
Q 20.063669 38.144359 21.656979 37.507034 
Q 23.25029 36.86971 24.674897 37.282097 
Q 26.586869 37.844441 27.505366 39.04411 
Q 28.423862 40.243779 28.480097 41.668386 
Q 28.536331 43.092993 28.573821 44.817517 
Q 28.61131 46.542041 28.761269 48.191586 
" clip-path="url(#p4cdef05233)" style="fill: none; stroke: #000000; stroke-linejoin: miter"/>
   </g>
  </g>
  <g id="axes_3">
   <g id="patch_4">
    <path d="M 44.099007 39.568966 
Q 42.749379 38.181848 40.5 38.444276 
Q 37.650786 38.444276 36.488607 39.793903 
Q 35.326428 41.143531 35.326428 44.067724 
Q 35.326428 45.56731 36.619821 46.279614 
Q 37.913214 46.991917 39.487779 46.991917 
Q 40.799917 46.991917 41.812138 45.736014 
Q 42.824359 44.48011 43.405448 42.30571 
Q 43.986538 40.13131 44.361434 37.938166 
Q 44.736331 35.745021 44.88629 33.045766 
Q 45.036248 30.34651 45.073738 28.978138 
Q 45.111228 27.609766 45.111228 26.185159 
Q 44.88629 26.260138 44.88629 29.896634 
L 44.88629 44.292662 
L 45.673572 48.229076 
" clip-path="url(#pe1710e865f)" style="fill: none; stroke: #000000; stroke-linejoin: miter"/>
   </g>
  </g>
  <g id="axes_4"/>
  <g id="axes_5">
   <g id="patch_5">
    <path d="M 66.657798 38.160826 
Q 69.630275 39.535596 74.349083 39.721376 
Q 75.872477 39.721376 76.559862 38.550963 
Q 77.247248 37.38055 77.247248 35.82 
Q 77.247248 35.299817 77.154358 34.909679 
Q 77.061468 34.519541 76.819954 34.296606 
Q 76.57844 34.07367 76.411239 33.943624 
Q 76.244037 33.813578 75.798165 33.757844 
Q 75.352294 33.70211 75.147936 33.683532 
Q 74.943578 33.664954 74.367661 33.683532 
Q 73.791743 33.70211 73.568807 33.70211 
Q 71.525229 33.70211 70.038991 35.578486 
Q 68.552752 37.454862 68.552752 39.609908 
Q 68.552752 42.619541 70.484862 44.570229 
Q 72.416972 46.520917 75.463761 46.520917 
Q 77.618807 46.818165 79.142202 44.29156 
" clip-path="url(#pcdac9ffc6e)" style="fill: none; stroke: #000000; stroke-linejoin: miter"/>
   </g>
  </g>
  <g id="axes_6">
   <g id="patch_6">
    <path d="M 82.784141 38.85304 
L 83.212335 38.85304 
Q 84.03304 38.85304 84.996476 38.745991 
Q 85.959912 38.638943 87.119604 38.460529 
Q 88.279295 38.282115 88.885903 38.210749 
L 95.415859 35.427489 
M 95.094714 25.793128 
Q 94.809251 25.721762 93.774449 25.275727 
Q 92.739648 24.829692 92.097357 24.93674 
Q 91.455066 24.93674 90.937665 25.150837 
Q 90.420264 25.364934 90.081278 25.793128 
Q 89.742291 26.221322 89.47467 26.685198 
Q 89.207048 27.149075 89.064317 27.862731 
Q 88.921586 28.576388 88.814537 29.129471 
Q 88.707489 29.682555 88.689648 30.50326 
Q 88.671806 31.323965 88.653965 31.77 
Q 88.636123 32.216035 88.653965 32.965374 
Q 88.671806 33.714714 88.671806 33.928811 
Q 88.671806 36.605022 89.367621 41.850396 
Q 90.063436 47.095771 90.063436 49.771982 
Q 89.99207 50.057445 89.956388 50.681894 
Q 89.920705 51.306344 89.813656 51.805903 
Q 89.706608 52.305463 89.421145 52.555242 
" clip-path="url(#p829be40648)" style="fill: none; stroke: #000000; stroke-linejoin: miter"/>
   </g>
  </g>
  <g id="axes_7">
   <g id="patch_7">
    <path d="M 98.984141 38.85304 
L 99.412335 38.85304 
Q 100.23304 38.85304 101.196476 38.745991 
Q 102.159912 38.638943 103.319604 38.460529 
Q 104.479295 38.282115 105.085903 38.210749 
L 111.615859 35.427489 
M 111.294714 25.793128 
Q 111.009251 25.721762 109.974449 25.275727 
Q 108.939648 24.829692 108.297357 24.93674 
Q 107.655066 24.93674 107.137665 25.150837 
Q 106.620264 25.364934 106.281278 25.793128 
Q 105.942291 26.221322 105.67467 26.685198 
Q 105.407048 27.149075 105.264317 27.862731 
Q 105.121586 28.576388 105.014537 29.129471 
Q 104.907489 29.682555 104.889648 30.50326 
Q 104.871806 31.323965 104.853965 31.77 
Q 104.836123 32.216035 104.853965 32.965374 
Q 104.871806 33.714714 104.871806 33.928811 
Q 104.871806 36.605022 105.567621 41.850396 
Q 106.263436 47.095771 106.263436 49.771982 
Q 106.19207 50.057445 106.156388 50.681894 
Q 106.120705 51.306344 106.013656 51.805903 
Q 105.906608 52.305463 105.621145 52.555242 
" clip-path="url(#p63ceac8c72)" style="fill: none; stroke: #000000; stroke-linejoin: miter"/>
   </g>
  </g>
  <g id="axes_8">
   <g id="patch_8">
    <path d="M 124.7616 35.032717 
Q 123.71189 34.582841 122.737159 34.69531 
Q 119.700497 35.032717 117.788524 36.701007 
Q 115.876552 38.369297 115.876552 41.330979 
Q 115.876552 43.917766 117.882248 45.6048 
Q 119.887945 47.291834 122.512221 47.291834 
Q 124.874069 47.291834 125.998759 45.361117 
Q 127.123448 43.4304 127.123448 40.881103 
Q 127.123448 39.643945 126.711062 38.706703 
Q 126.298676 37.769462 125.773821 37.300841 
Q 125.248966 36.832221 124.499172 36.119917 
Q 123.749379 35.407614 123.299503 34.69531 
L 122.062345 34.245434 
" clip-path="url(#p5e977a24cf)" style="fill: none; stroke: #000000; stroke-linejoin: miter"/>
   </g>
  </g>
  <g id="axes_9">
   <g id="patch_9">
    <path d="M 134.213462 32.783338 
Q 134.738317 34.507862 134.869531 36.457324 
Q 135.000745 38.406786 134.925766 40.956083 
Q 134.850786 43.505379 134.888276 44.705048 
L 135.000745 46.054676 
L 135.000745 45.829738 
Q 135.000745 44.667559 134.719572 42.30571 
Q 134.4384 39.943862 134.4384 38.744193 
Q 134.4384 36.419834 135.450621 34.882759 
Q 136.462841 33.345683 138.487283 33.345683 
Q 139.199586 33.345683 139.536993 33.626855 
Q 139.8744 33.908028 140.136828 34.432883 
Q 140.399255 34.957738 140.736662 35.257655 
L 141.186538 36.832221 
" clip-path="url(#p52b45c8a1e)" style="fill: none; stroke: #000000; stroke-linejoin: miter"/>
   </g>
  </g>
  <g id="axes_10">
   <g id="patch_10">
    <path d="M 149.063834 37.95691 
L 149.738648 37.95691 
Q 150.450952 37.95691 151.238234 37.881931 
Q 152.025517 37.806952 152.981503 37.675738 
Q 153.93749 37.544524 154.462345 37.507034 
L 158.736166 35.82 
M 154.687283 30.42149 
L 154.687283 31.43371 
Q 154.687283 33.383172 154.012469 37.207117 
Q 153.337655 41.031062 153.337655 43.018014 
Q 153.337655 43.805297 153.337655 44.105214 
Q 153.337655 44.405131 153.431379 45.042455 
Q 153.525103 45.679779 153.712552 45.960952 
Q 153.9 46.242124 154.293641 46.485807 
Q 154.687283 46.72949 155.249628 46.72949 
Q 155.362097 46.692 155.680759 46.72949 
Q 155.999421 46.766979 156.186869 46.710745 
Q 156.374317 46.65451 156.374317 46.392083 
" clip-path="url(#p1bd4f12fd8)" style="fill: none; stroke: #000000; stroke-linejoin: miter"/>
   </g>
  </g>
  <g id="axes_11"/>
  <g id="axes_12">
   <g id="patch_11">
    <path d="M 189.5616 35.032717 
Q 188.51189 34.582841 187.537159 34.69531 
Q 184.500497 35.032717 182.588524 36.701007 
Q 180.676552 38.369297 180.676552 41.330979 
Q 180.676552 43.917766 182.682248 45.6048 
Q 184.687945 47.291834 187.312221 47.291834 
Q 189.674069 47.291834 190.798759 45.361117 
Q 191.923448 43.4304 191.923448 40.881103 
Q 191.923448 39.643945 191.511062 38.706703 
Q 191.098676 37.769462 190.573821 37.300841 
Q 190.048966 36.832221 189.299172 36.119917 
Q 188.549379 35.407614 188.099503 34.69531 
L 186.862345 34.245434 
" clip-path="url(#p61fcbf6702)" style="fill: none; stroke: #000000; stroke-linejoin: miter"/>
   </g>
  </g>
  <g id="axes_13">
   <g id="patch_12">
    <path d="M 198.038731 37.282097 
L 198.038731 37.844441 
Q 198.301159 39.868883 198.338648 41.312234 
Q 198.376138 42.755586 198.282414 44.667559 
Q 198.18869 46.579531 198.18869 48.191586 
L 198.263669 39.643945 
Q 198.263669 38.144359 199.856979 37.507034 
Q 201.45029 36.86971 202.874897 37.282097 
Q 204.786869 37.844441 205.705366 39.04411 
Q 206.623862 40.243779 206.680097 41.668386 
Q 206.736331 43.092993 206.773821 44.817517 
Q 206.81131 46.542041 206.961269 48.191586 
" clip-path="url(#pdfc0f335db)" style="fill: none; stroke: #000000; stroke-linejoin: miter"/>
   </g>
  </g>
  <g id="axes_14"/>
  <g id="axes_15">
   <g id="patch_13">
    <path d="M 230.063834 37.95691 
L 230.738648 37.95691 
Q 231.450952 37.95691 232.238234 37.881931 
Q 233.025517 37.806952 233.981503 37.675738 
Q 234.93749 37.544524 235.462345 37.507034 
L 239.736166 35.82 
M 235.687283 30.42149 
L 235.687283 31.43371 
Q 235.687283 33.383172 235.012469 37.207117 
Q 234.337655 41.031062 234.337655 43.018014 
Q 234.337655 43.805297 234.337655 44.105214 
Q 234.337655 44.405131 234.431379 45.042455 
Q 234.525103 45.679779 234.712552 45.960952 
Q 234.9 46.242124 235.293641 46.485807 
Q 235.687283 46.72949 236.249628 46.72949 
Q 236.362097 46.692 236.680759 46.72949 
Q 236.999421 46.766979 237.186869 46.710745 
Q 237.374317 46.65451 237.374317 46.392083 
" clip-path="url(#pa930bfeeb5)" style="fill: none; stroke: #000000; stroke-linejoin: miter"/>
   </g>
  </g>
  <g id="axes_16">
   <g id="patch_14">
    <path d="M 247.613462 35.932469 
Q 248.213297 35.257655 249.206772 34.826524 
Q 250.200248 34.395393 251.1 34.470372 
Q 251.737324 34.470372 252.22469 34.639076 
Q 252.712055 34.807779 253.030717 34.995228 
Q 253.349379 35.182676 253.574317 35.670041 
Q 253.799255 36.157407 253.911724 36.419834 
Q 254.024193 36.682262 254.080428 37.375821 
Q 254.136662 38.069379 254.155407 38.331807 
Q 254.174152 38.594234 254.155407 39.419007 
Q 254.136662 40.243779 254.136662 40.431228 
Q 254.136662 41.368469 253.967959 43.242952 
Q 253.799255 45.117434 253.799255 46.054676 
Q 253.799255 46.467062 253.85549 46.823214 
Q 253.911724 47.179366 254.005448 47.610497 
Q 254.099172 48.041628 254.136662 48.304055 
L 254.586538 48.528993 
M 248.063338 23.111007 
Q 248.288276 24.798041 248.288276 29.971614 
L 248.288276 42.3432 
L 247.950869 46.841959 
L 247.725931 47.74171 
" clip-path="url(#p7d2f2fcf19)" style="fill: none; stroke: #000000; stroke-linejoin: miter"/>
   </g>
  </g>
  <g id="axes_17">
   <g id="patch_15">
    <path d="M 261.057798 38.160826 
Q 264.030275 39.535596 268.749083 39.721376 
Q 270.272477 39.721376 270.959862 38.550963 
Q 271.647248 37.38055 271.647248 35.82 
Q 271.647248 35.299817 271.554358 34.909679 
Q 271.461468 34.519541 271.219954 34.296606 
Q 270.97844 34.07367 270.811239 33.943624 
Q 270.644037 33.813578 270.198165 33.757844 
Q 269.752294 33.70211 269.547936 33.683532 
Q 269.343578 33.664954 268.767661 33.683532 
Q 268.191743 33.70211 267.968807 33.70211 
Q 265.925229 33.70211 264.438991 35.578486 
Q 262.952752 37.454862 262.952752 39.609908 
Q 262.952752 42.619541 264.884862 44.570229 
Q 266.816972 46.520917 269.863761 46.520917 
Q 272.018807 46.818165 273.542202 44.29156 
" clip-path="url(#p0da87ae3e7)" style="fill: none; stroke: #000000; stroke-linejoin: miter"/>
   </g>
  </g>
  <g id="axes_18"/>
  <g id="axes_19">
   <g id="patch_16">
    <path d="M 293.457798 38.160826 
Q 296.430275 39.535596 301.149083 39.721376 
Q 302.672477 39.721376 303.359862 38.550963 
Q 304.047248 37.38055 304.047248 35.82 
Q 304.047248 35.299817 303.954358 34.909679 
Q 303.861468 34.519541 303.619954 34.296606 
Q 303.37844 34.07367 303.211239 33.943624 
Q 303.044037 33.813578 302.598165 33.757844 
Q 302.152294 33.70211 301.947936 33.683532 
Q 301.743578 33.664954 301.167661 33.683532 
Q 300.591743 33.70211 300.368807 33.70211 
Q 298.325229 33.70211 296.838991 35.578486 
Q 295.352752 37.454862 295.352752 39.609908 
Q 295.352752 42.619541 297.284862 44.570229 
Q 299.216972 46.520917 302.263761 46.520917 
Q 304.418807 46.818165 305.942202 44.29156 
" clip-path="url(#pc9f5b1c41c)" style="fill: none; stroke: #000000; stroke-linejoin: miter"/>
   </g>
  </g>
  <g id="axes_20">
   <g id="patch_17">
    <path d="M 319.499007 34.920248 
Q 318.636745 36.007448 315.525103 40.018841 
Q 312.413462 44.030234 310.726428 46.054676 
M 311.626179 36.044938 
Q 313.500662 37.319586 315.993724 40.843614 
Q 318.486786 44.367641 320.061352 45.6048 
L 321.073572 45.942207 
" clip-path="url(#pae5bb95ad9)" style="fill: none; stroke: #000000; stroke-linejoin: miter"/>
   </g>
  </g>
  <g id="axes_21">
   <g id="patch_18">
    <path d="M 327.320069 39.868883 
L 327.320069 39.419007 
Q 327.320069 37.769462 329.063338 36.682262 
Q 330.806607 35.595062 332.493641 35.595062 
Q 334.705531 35.595062 336.073903 36.794731 
Q 337.442276 37.9944 337.442276 40.20629 
Q 337.442276 42.30571 335.624028 43.336676 
Q 333.805779 44.367641 331.59389 44.367641 
Q 330.919076 44.367641 330.412966 44.255172 
Q 329.906855 44.142703 329.288276 43.917766 
Q 328.669697 43.692828 328.219821 43.580359 
L 327.095131 42.568138 
M 326.757724 36.832221 
Q 327.2076 38.444276 327.470028 40.262524 
Q 327.732455 42.080772 327.78869 43.749062 
Q 327.844924 45.417352 327.882414 47.27309 
Q 327.919903 49.128828 327.882414 50.778372 
L 327.769945 57.863917 
" clip-path="url(#pc891aefdc2)" style="fill: none; stroke: #000000; stroke-linejoin: miter"/>
   </g>
  </g>
  <g id="axes_22">
   <g id="patch_19">
    <path d="M 342.057798 38.160826 
Q 345.030275 39.535596 349.749083 39.721376 
Q 351.272477 39.721376 351.959862 38.550963 
Q 352.647248 37.38055 352.647248 35.82 
Q 352.647248 35.299817 352.554358 34.909679 
Q 352.461468 34.519541 352.219954 34.296606 
Q 351.97844 34.07367 351.811239 33.943624 
Q 351.644037 33.813578 351.198165 33.757844 
Q 350.752294 33.70211 350.547936 33.683532 
Q 350.343578 33.664954 349.767661 33.683532 
Q 349.191743 33.70211 348.968807 33.70211 
Q 346.925229 33.70211 345.438991 35.578486 
Q 343.952752 37.454862 343.952752 39.609908 
Q 343.952752 42.619541 345.884862 44.570229 
Q 347.816972 46.520917 350.863761 46.520917 
Q 353.018807 46.818165 354.542202 44.29156 
" clip-path="url(#pa5dd577551)" style="fill: none; stroke: #000000; stroke-linejoin: miter"/>
   </g>
  </g>
  <g id="axes_23">
   <g id="patch_20">
    <path d="M 361.013462 32.783338 
Q 361.538317 34.507862 361.669531 36.457324 
Q 361.800745 38.406786 361.725766 40.956083 
Q 361.650786 43.505379 361.688276 44.705048 
L 361.800745 46.054676 
L 361.800745 45.829738 
Q 361.800745 44.667559 361.519572 42.30571 
Q 361.2384 39.943862 361.2384 38.744193 
Q 361.2384 36.419834 362.250621 34.882759 
Q 363.262841 33.345683 365.287283 33.345683 
Q 365.999586 33.345683 366.336993 33.626855 
Q 366.6744 33.908028 366.936828 34.432883 
Q 367.199255 34.957738 367.536662 35.257655 
L 367.986538 36.832221 
" clip-path="url(#p32fefc0878)" style="fill: none; stroke: #000000; stroke-linejoin: miter"/>
   </g>
  </g>
  <g id="axes_24">
   <g id="patch_21">
    <path d="M 381.318579 29.071862 
Q 380.943683 29.146841 380.812469 29.577972 
Q 380.681255 30.009103 380.756234 30.42149 
Q 380.756234 30.571448 380.793724 30.702662 
Q 380.831214 30.833876 380.887448 30.89011 
Q 380.943683 30.946345 380.999917 31.040069 
Q 381.056152 31.133793 381.093641 31.208772 
L 381.20611 29.859145 
M 381.20611 34.020497 
Q 380.306359 39.006621 380.081421 42.793076 
L 380.531297 45.379862 
L 380.868703 46.054676 
" clip-path="url(#pef1d73ec3c)" style="fill: none; stroke: #000000; stroke-linejoin: miter"/>
   </g>
  </g>
  <g id="axes_25">
   <g id="patch_22">
    <path d="M 390.608036 34.879821 
Q 391.114286 36.073125 391.403571 42.871339 
Q 391.548214 46.632054 391.8375 46.632054 
Q 391.873661 46.632054 391.909821 46.595893 
Q 392.416071 46.017321 392.470312 44.588973 
Q 392.524554 43.160625 392.307589 41.750357 
Q 392.090625 40.340089 391.8375 38.712857 
Q 391.584375 37.085625 391.584375 36.398571 
Q 391.584375 35.169107 391.964062 33.939643 
Q 392.34375 32.710179 393.320089 32.710179 
Q 394.549554 32.710179 395.272768 34.355491 
Q 395.995982 36.000804 396.158705 37.971562 
Q 396.321429 39.942321 396.429911 41.587634 
Q 396.538393 43.232946 396.683036 43.232946 
Q 396.827679 43.232946 396.91808 41.497232 
Q 397.008482 39.761518 397.135045 37.700357 
Q 397.261607 35.639196 397.984821 33.903482 
Q 398.708036 32.167768 399.9375 32.167768 
Q 401.492411 33.035625 402.161384 34.771339 
Q 402.830357 36.507054 402.794196 38.188527 
Q 402.758036 39.87 402.776116 42.057723 
Q 402.794196 44.245446 403.191964 45.511071 
" clip-path="url(#pb1f703154c)" style="fill: none; stroke: #000000; stroke-linejoin: miter"/>
   </g>
  </g>
  <g id="axes_26">
   <g id="patch_23">
    <path d="M 406.857798 38.160826 
Q 409.830275 39.535596 414.549083 39.721376 
Q 416.072477 39.721376 416.759862 38.550963 
Q 417.447248 37.38055 417.447248 35.82 
Q 417.447248 35.299817 417.354358 34.909679 
Q 417.261468 34.519541 417.019954 34.296606 
Q 416.77844 34.07367 416.611239 33.943624 
Q 416.444037 33.813578 415.998165 33.757844 
Q 415.552294 33.70211 415.347936 33.683532 
Q 415.143578 33.664954 414.567661 33.683532 
Q 413.991743 33.70211 413.768807 33.70211 
Q 411.725229 33.70211 410.238991 35.578486 
Q 408.752752 37.454862 408.752752 39.609908 
Q 408.752752 42.619541 410.684862 44.570229 
Q 412.616972 46.520917 415.663761 46.520917 
Q 417.818807 46.818165 419.342202 44.29156 
" clip-path="url(#p2e7743c532)" style="fill: none; stroke: #000000; stroke-linejoin: miter"/>
   </g>
  </g>
  <g id="axes_27">
   <g id="patch_24">
    <path d="M 424.838731 37.282097 
L 424.838731 37.844441 
Q 425.101159 39.868883 425.138648 41.312234 
Q 425.176138 42.755586 425.082414 44.667559 
Q 424.98869 46.579531 424.98869 48.191586 
L 425.063669 39.643945 
Q 425.063669 38.144359 426.656979 37.507034 
Q 428.25029 36.86971 429.674897 37.282097 
Q 431.586869 37.844441 432.505366 39.04411 
Q 433.423862 40.243779 433.480097 41.668386 
Q 433.536331 43.092993 433.573821 44.817517 
Q 433.61131 46.542041 433.761269 48.191586 
" clip-path="url(#p72bbe93d2a)" style="fill: none; stroke: #000000; stroke-linejoin: miter"/>
   </g>
  </g>
  <g id="axes_28">
   <g id="patch_25">
    <path d="M 440.663834 37.95691 
L 441.338648 37.95691 
Q 442.050952 37.95691 442.838234 37.881931 
Q 443.625517 37.806952 444.581503 37.675738 
Q 445.53749 37.544524 446.062345 37.507034 
L 450.336166 35.82 
M 446.287283 30.42149 
L 446.287283 31.43371 
Q 446.287283 33.383172 445.612469 37.207117 
Q 444.937655 41.031062 444.937655 43.018014 
Q 444.937655 43.805297 444.937655 44.105214 
Q 444.937655 44.405131 445.031379 45.042455 
Q 445.125103 45.679779 445.312552 45.960952 
Q 445.5 46.242124 445.893641 46.485807 
Q 446.287283 46.72949 446.849628 46.72949 
Q 446.962097 46.692 447.280759 46.72949 
Q 447.599421 46.766979 447.786869 46.710745 
Q 447.974317 46.65451 447.974317 46.392083 
" clip-path="url(#pe0533b841e)" style="fill: none; stroke: #000000; stroke-linejoin: miter"/>
   </g>
  </g>
  <g id="axes_29">
   <g id="patch_26">
    <path d="M 460.987697 39.981352 
Q 461.999917 40.956083 462.337324 42.905545 
Q 462.524772 43.955255 462.112386 46.167145 
L 460.875228 47.629241 
" clip-path="url(#p4675f71306)" style="fill: none; stroke: #000000; stroke-linejoin: miter"/>
   </g>
  </g>
 </g>
 <defs>
  <clipPath id="p0ea73bb23b">
   <rect x="0" y="10.777356" width="16.2" height="50.085288"/>
  </clipPath>
  <clipPath id="p4cdef05233">
   <rect x="17.964248" y="8.64" width="12.671503" height="54.36"/>
  </clipPath>
  <clipPath id="pe1710e865f">
   <rect x="33.451945" y="8.64" width="14.09611" height="54.36"/>
  </clipPath>
  <clipPath id="pcdac9ffc6e">
   <rect x="64.8" y="8.881927" width="16.2" height="53.876147"/>
  </clipPath>
  <clipPath id="p829be40648">
   <rect x="81" y="9.949956" width="16.2" height="51.740088"/>
  </clipPath>
  <clipPath id="p63ceac8c72">
   <rect x="97.2" y="9.949956" width="16.2" height="51.740088"/>
  </clipPath>
  <clipPath id="p5e977a24cf">
   <rect x="114.002069" y="8.64" width="14.995862" height="54.36"/>
  </clipPath>
  <clipPath id="p52b45c8a1e">
   <rect x="132.338979" y="8.64" width="10.722041" height="54.36"/>
  </clipPath>
  <clipPath id="p1bd4f12fd8">
   <rect x="147.189352" y="8.64" width="13.421297" height="54.36"/>
  </clipPath>
  <clipPath id="p61fcbf6702">
   <rect x="178.802069" y="8.64" width="14.995862" height="54.36"/>
  </clipPath>
  <clipPath id="pdfc0f335db">
   <rect x="196.164248" y="8.64" width="12.671503" height="54.36"/>
  </clipPath>
  <clipPath id="pa930bfeeb5">
   <rect x="228.189352" y="8.64" width="13.421297" height="54.36"/>
  </clipPath>
  <clipPath id="p7d2f2fcf19">
   <rect x="245.738979" y="8.64" width="10.722041" height="54.36"/>
  </clipPath>
  <clipPath id="p0da87ae3e7">
   <rect x="259.2" y="8.881927" width="16.2" height="53.876147"/>
  </clipPath>
  <clipPath id="pc9f5b1c41c">
   <rect x="291.6" y="8.881927" width="16.2" height="53.876147"/>
  </clipPath>
  <clipPath id="pae5bb95ad9">
   <rect x="308.851945" y="8.64" width="14.09611" height="54.36"/>
  </clipPath>
  <clipPath id="pc891aefdc2">
   <rect x="324.883241" y="8.64" width="14.433517" height="54.36"/>
  </clipPath>
  <clipPath id="pa5dd577551">
   <rect x="340.2" y="8.881927" width="16.2" height="53.876147"/>
  </clipPath>
  <clipPath id="p32fefc0878">
   <rect x="359.138979" y="8.64" width="10.722041" height="54.36"/>
  </clipPath>
  <clipPath id="pef1d73ec3c">
   <rect x="378.206938" y="8.64" width="4.986124" height="54.36"/>
  </clipPath>
  <clipPath id="pb1f703154c">
   <rect x="388.8" y="9.603482" width="16.2" height="52.433036"/>
  </clipPath>
  <clipPath id="p2e7743c532">
   <rect x="405" y="8.881927" width="16.2" height="53.876147"/>
  </clipPath>
  <clipPath id="p72bbe93d2a">
   <rect x="422.964248" y="8.64" width="12.671503" height="54.36"/>
  </clipPath>
  <clipPath id="pe0533b841e">
   <rect x="438.789352" y="8.64" width="13.421297" height="54.36"/>
  </clipPath>
  <clipPath id="p4675f71306">
   <rect x="459.000745" y="8.64" width="5.39851" height="54.36"/>
  </clipPath>
 </defs>
</svg>
