<?xml version="1.0" encoding="utf-8" standalone="no"?>
<!DOCTYPE svg PUBLIC "-//W3C//DTD SVG 1.1//EN"
  "http://www.w3.org/Graphics/SVG/1.1/DTD/svg11.dtd">
<svg xmlns:xlink="http://www.w3.org/1999/xlink" width="126pt" height="72pt" viewBox="0 0 126 72" xmlns="http://www.w3.org/2000/svg" version="1.1">
 <metadata>
  <rdf:RDF xmlns:dc="http://purl.org/dc/elements/1.1/" xmlns:cc="http://creativecommons.org/ns#" xmlns:rdf="http://www.w3.org/1999/02/22-rdf-syntax-ns#">
   <cc:Work>
    <dc:type rdf:resource="http://purl.org/dc/dcmitype/StillImage"/>
    <dc:date>2023-02-13T20:50:26.873164</dc:date>
    <dc:format>image/svg+xml</dc:format>
    <dc:creator>
     <cc:Agent>
      <dc:title>Matplotlib v3.6.1, https://matplotlib.org/</dc:title>
     </cc:Agent>
    </dc:creator>
   </cc:Work>
  </rdf:RDF>
 </metadata>
 <defs>
  <style type="text/css">*{stroke-linejoin: round; stroke-linecap: butt}</style>
 </defs>
 <g id="figure_1">
  <g id="patch_1">
   <path d="M 0 72 
L 126 72 
L 126 0 
L 0 0 
z
" style="fill: #8fff9f"/>
  </g>
  <g id="axes_1">
   <g id="patch_2">
    <path d="M 14.812324 34.807779 
L 17.961455 38.406786 
M 5.364931 32.108524 
L 21.597952 31.321241 
Q 22.460214 31.208772 22.497703 31.208772 
Q 23.397455 30.908855 23.528669 31.452455 
Q 23.659883 31.996055 23.509924 32.670869 
Q 22.722641 39.606455 19.910917 43.580359 
Q 19.798448 43.730317 19.442297 44.498855 
Q 19.086145 45.267393 18.729993 45.829738 
Q 18.373841 46.392083 17.998945 46.392083 
Q 17.886476 46.392083 17.811497 46.392083 
L 17.774007 46.392083 
Q 17.811497 46.317103 17.549069 46.167145 
L 15.412159 44.367641 
M 13.537676 23.89829 
Q 13.762614 24.948 13.743869 25.52909 
Q 13.725124 26.110179 13.59391 27.234869 
Q 13.462697 28.359559 13.462697 28.959393 
Q 13.462697 30.946345 12.338007 33.401917 
Q 11.213317 35.85749 9.376324 38.762938 
Q 7.539331 41.668386 7.051966 42.643117 
L 4.690117 44.780028 
M 6.039745 26.372607 
Q 6.414641 26.485076 6.883262 27.08491 
Q 7.351883 27.684745 7.61431 27.834703 
L 8.514062 29.409269 
" clip-path="url(#pa0a445ee3e)" style="fill: none; stroke: #000000; stroke-linejoin: miter"/>
   </g>
  </g>
  <g id="axes_2">
   <g id="patch_3">
    <path d="M 44.73689 39.568966 
Q 45.149276 39.793903 45.917814 40.374993 
Q 46.686352 40.956083 46.986269 41.143531 
L 49.01071 43.505379 
M 34.089828 38.106869 
L 53.172062 36.982179 
M 42.937386 32.708359 
Q 42.637469 34.432883 41.94391 36.026193 
Q 41.250352 37.619503 40.125662 39.6252 
Q 39.000972 41.630897 38.476117 42.718097 
L 36.0018 45.979697 
M 39.338379 33.008276 
Q 40.3506 32.5584 42.393786 32.408441 
Q 44.436972 32.258483 45.299234 32.033545 
L 47.661083 31.921076 
M 40.163152 28.771945 
Q 39.825745 30.271531 39.000972 32.127269 
Q 38.1762 33.983007 37.089 34.845269 
L 36.864062 35.407614 
M 31.015676 25.322897 
L 30.903207 43.505379 
Q 30.453331 46.504552 30.453331 48.041628 
L 30.453331 48.379034 
L 53.921855 48.116607 
M 31.240614 26.297628 
Q 33.340034 26.485076 37.745069 26.203903 
Q 42.150103 25.922731 45.842834 25.735283 
Q 49.535566 25.547834 54.596669 26.0352 
" clip-path="url(#p5e08a6478e)" style="fill: none; stroke: #000000; stroke-linejoin: miter"/>
   </g>
  </g>
  <g id="axes_3">
   <g id="patch_4">
    <path d="M 62.402338 40.656166 
Q 64.764186 39.906372 67.350972 39.606455 
Q 69.937759 39.306538 73.63049 39.194069 
Q 77.323221 39.0816 78.710338 38.969131 
M 70.275166 36.269876 
L 70.275166 36.719752 
Q 70.387634 37.806952 70.631317 39.831393 
Q 70.875 41.855834 71.024959 43.449145 
Q 71.174917 45.042455 71.212407 46.579531 
Q 71.249897 49.091338 70.83751 49.128828 
Q 70.462614 49.128828 69.75031 47.854179 
L 68.7006 46.467062 
M 65.439 33.458152 
Q 65.626448 33.495641 65.888876 33.233214 
L 68.138255 33.233214 
Q 68.175745 33.233214 70.949979 33.008276 
L 75.711166 32.220993 
Q 75.486228 32.333462 75.092586 32.577145 
Q 74.698945 32.820828 74.586476 32.895807 
L 70.612572 36.157407 
M 60.977731 29.25931 
L 72.337097 29.034372 
Q 73.686724 28.959393 76.254766 28.584497 
Q 78.822807 28.2096 80.097455 28.134621 
Q 81.559552 28.059641 81.559552 28.24709 
Q 81.559552 28.284579 81.222145 29.146841 
L 79.085234 31.621159 
M 60.190448 29.146841 
Q 61.765014 29.971614 62.552297 31.50869 
L 62.777234 32.071034 
M 76.498448 24.310676 
Q 75.898614 24.98549 75.711166 26.222648 
L 74.698945 28.472028 
M 68.288214 25.322897 
Q 68.363193 25.397876 68.513152 25.716538 
Q 68.66311 26.0352 68.850559 26.110179 
L 69.862779 27.797214 
M 64.014393 25.772772 
L 65.026614 28.584497 
" clip-path="url(#p23e0ccad6a)" style="fill: none; stroke: #000000; stroke-linejoin: miter"/>
   </g>
  </g>
  <g id="axes_4">
   <g id="patch_5">
    <path d="M 101.584498 36.612503 
L 101.584498 48.932325 
M 96.937548 37.585121 
L 96.937548 38.341601 
Q 96.901525 41.403545 94.974301 44.015203 
Q 93.047078 46.626861 89.69695 47.815616 
M 100.719949 33.046239 
Q 102.196887 35.279657 102.935356 36.270286 
Q 103.673825 37.260915 104.916614 38.215521 
Q 106.159403 39.170127 107.564295 39.638424 
Q 108.969187 40.106722 111.598856 40.719111 
M 96.289136 33.262376 
Q 95.20845 35.783977 92.290597 38.611773 
Q 89.372745 41.439568 86.851144 42.34014 
M 98.882783 26.16587 
L 98.882783 26.706213 
Q 98.882783 28.183151 99.026874 30.290489 
Q 99.170966 32.397827 99.206989 33.262376 
M 94.055718 29.696112 
L 103.133482 29.479975 
M 92.83094 32.93817 
L 104.790534 32.830102 
M 91.750254 26.598145 
L 92.07446 26.598145 
Q 93.371283 26.454053 95.298507 26.219905 
Q 97.225731 25.985756 98.270394 25.859676 
Q 99.315057 25.733596 100.954098 25.625527 
Q 102.593139 25.517459 104.358259 25.517459 
Q 104.538374 25.517459 104.862579 25.481436 
Q 105.186785 25.445413 105.402922 25.427402 
Q 105.61906 25.40939 105.835197 25.445413 
Q 106.051334 25.481436 106.177414 25.643539 
Q 106.303494 25.805642 106.303494 26.057802 
Q 106.303494 27.138488 105.691105 28.993666 
Q 105.078717 30.848844 105.006671 31.101004 
L 104.682465 33.586582 
M 91.750254 27.246557 
L 91.750254 27.210534 
Q 91.750254 28.435311 92.362643 30.812821 
Q 92.975032 33.19033 93.047078 33.586582 
" clip-path="url(#p0d84f1e1be)" style="fill: none; stroke: #000000; stroke-linejoin: miter"/>
   </g>
  </g>
 </g>
 <defs>
  <clipPath id="pa0a445ee3e">
   <rect x="2.815634" y="8.64" width="22.718731" height="54.36"/>
  </clipPath>
  <clipPath id="p5e08a6478e">
   <rect x="28.578848" y="8.64" width="27.892303" height="54.36"/>
  </clipPath>
  <clipPath id="p23e0ccad6a">
   <rect x="58.315966" y="8.64" width="25.118069" height="54.36"/>
  </clipPath>
  <clipPath id="p0d84f1e1be">
   <rect x="85.05" y="9.703418" width="28.35" height="52.233164"/>
  </clipPath>
 </defs>
</svg>
