<?xml version="1.0" encoding="utf-8" standalone="no"?>
<!DOCTYPE svg PUBLIC "-//W3C//DTD SVG 1.1//EN"
  "http://www.w3.org/Graphics/SVG/1.1/DTD/svg11.dtd">
<svg xmlns:xlink="http://www.w3.org/1999/xlink" width="324pt" height="162pt" viewBox="0 0 324 162" xmlns="http://www.w3.org/2000/svg" version="1.1">
 <metadata>
  <rdf:RDF xmlns:dc="http://purl.org/dc/elements/1.1/" xmlns:cc="http://creativecommons.org/ns#" xmlns:rdf="http://www.w3.org/1999/02/22-rdf-syntax-ns#">
   <cc:Work>
    <dc:type rdf:resource="http://purl.org/dc/dcmitype/StillImage"/>
    <dc:date>2023-02-15T23:05:04.349440</dc:date>
    <dc:format>image/svg+xml</dc:format>
    <dc:creator>
     <cc:Agent>
      <dc:title>Matplotlib v3.6.1, https://matplotlib.org/</dc:title>
     </cc:Agent>
    </dc:creator>
   </cc:Work>
  </rdf:RDF>
 </metadata>
 <defs>
  <style type="text/css">*{stroke-linejoin: round; stroke-linecap: butt}</style>
 </defs>
 <g id="figure_1">
  <g id="patch_1">
   <path d="M 0 162 
L 324 162 
L 324 0 
L 0 0 
z
" style="fill: #8fff9f"/>
  </g>
  <g id="axes_1">
   <g id="patch_2">
    <path d="M 20.059108 90.020924 
Q 21.544968 89.603025 24.586338 89.603025 
Q 27.627707 89.603025 29.113567 89.185127 
L 33.013949 89.045828 
M 20.616306 79.294873 
L 21.312803 79.294873 
Q 22.984395 79.294873 28.556369 78.993057 
Q 34.128344 78.691242 34.128344 78.459076 
Q 34.128344 79.202006 33.733662 80.66465 
Q 33.338981 82.127293 32.758567 83.914968 
Q 32.178153 85.702643 32.038854 86.259841 
L 31.899554 89.881624 
M 20.477006 78.459076 
Q 21.266369 82.034427 21.173503 89.742325 
M 11.654713 81.755828 
Q 12.629809 82.359459 14.765732 83.195255 
Q 16.901656 84.031051 17.783885 84.541815 
M 11.236815 77.01965 
L 11.236815 77.576847 
Q 11.236815 79.10914 10.145637 80.780732 
Q 9.054459 82.452325 7.35965 84.332866 
Q 5.664841 86.213408 5.107643 87.049204 
L 3.71465 88.163599 
M 2.321656 79.666338 
L 2.600255 79.666338 
Q 4.782611 78.784108 7.522166 78.110828 
Q 10.26172 77.437548 12.211911 77.135732 
Q 14.162102 76.833917 17.505287 76.416019 
Q 20.848471 75.998121 22.380764 75.765955 
M 10.911783 70.426146 
L 11.190382 96.057229 
M 5.20051 71.261943 
L 5.479108 71.261943 
Q 7.057834 71.261943 9.077675 70.774395 
Q 11.097516 70.286847 13.535255 69.520701 
Q 15.972994 68.754554 17.040955 68.475955 
L 18.29465 67.918758 
" clip-path="url(#p8da1ade4d1)" style="fill: none; stroke: #000000; stroke-linejoin: miter"/>
   </g>
  </g>
  <g id="axes_2">
   <g id="patch_3">
    <path d="M 56.916335 91.688478 
Q 56.916335 91.688478 57.595528 91.688478 
L 60.991491 91.688478 
L 64.387453 91.280963 
M 56.916335 88.156677 
L 64.115776 87.251087 
M 57.323851 84.081522 
L 57.595528 84.081522 
Q 62.123478 82.677857 65.066646 82.723137 
Q 65.383602 82.723137 65.836398 82.723137 
Q 66.51559 82.677857 66.606149 82.858975 
Q 66.696708 83.040093 66.696708 84.21736 
Q 66.696708 84.851273 66.696708 85.304068 
L 66.696708 92.503509 
Q 66.696708 93.137422 66.900466 94.405248 
Q 67.104224 95.673075 67.104224 96.306988 
L 67.058944 96.759783 
L 67.013665 96.759783 
Q 66.832547 96.669224 66.696708 96.850342 
L 64.65913 95.22028 
M 57.595528 84.21736 
L 57.595528 86.254938 
Q 57.595528 87.522764 57.459689 88.81323 
Q 57.323851 90.103696 57.097453 91.665839 
Q 56.871056 93.227981 56.780497 94.133571 
L 56.237143 95.491957 
M 60.719814 66.96587 
L 60.719814 68.595932 
Q 60.719814 69.456242 60.719814 69.954317 
L 60.719814 69.999596 
Q 60.765093 69.275124 60.991491 71.44854 
L 61.127329 80.54972 
M 53.882609 81.274193 
L 54.425963 81.274193 
Q 57.323851 81.274193 63.210186 80.368602 
Q 69.096522 79.463012 70.636025 79.327174 
M 56.916335 76.202888 
L 65.338323 75.795373 
M 56.780497 72.263571 
L 63.979938 72.39941 
M 50.667764 71.901335 
L 48.086832 75.568975 
M 38.713975 71.222143 
Q 38.940373 71.131584 39.14413 71.403261 
Q 39.347888 71.674938 39.529006 71.629658 
L 41.974099 73.667236 
M 45.913416 84.534317 
Q 47.045404 84.851273 47.000124 84.941832 
L 50.803602 87.115248 
M 45.913416 80.459161 
Q 45.370062 81.047795 45.075745 82.677857 
Q 44.781429 84.307919 44.555031 84.805994 
Q 44.102236 85.802143 43.490963 86.662453 
Q 42.879689 87.522764 42.042019 88.496273 
Q 41.204348 89.469783 40.751553 90.103696 
L 39.529006 90.918727 
M 39.664845 80.730839 
L 39.936522 80.730839 
Q 41.068509 80.730839 42.472174 80.54972 
Q 43.875839 80.368602 45.57382 80.051646 
Q 47.271801 79.734689 48.086832 79.64413 
L 52.161988 79.508292 
M 45.505901 67.282826 
L 45.505901 69.863758 
Q 45.505901 71.403261 45.59646 73.101242 
Q 45.687019 74.799224 45.845497 76.859441 
Q 46.003975 78.919658 46.049255 80.051646 
L 45.913416 97.303137 
" clip-path="url(#p1665ebbdfe)" style="fill: none; stroke: #000000; stroke-linejoin: miter"/>
   </g>
  </g>
  <g id="axes_3">
   <g id="patch_4">
    <path d="M 90.656089 63.589168 
L 90.468525 64.151861 
L 90.468525 67.903148 
Q 89.530703 72.967384 88.499099 77.000017 
Q 87.467496 81.03265 85.779417 86.003105 
Q 84.091338 90.973559 81.621741 95.068714 
Q 79.152144 99.163868 76.026072 101.914811 
M 80.527616 73.342513 
L 85.779417 73.342513 
Q 87.842624 73.530077 93.657118 72.77982 
Q 94.469897 72.654777 96.064194 72.467213 
Q 97.658491 72.279648 98.658834 72.123345 
Q 99.659177 71.967041 101.003388 71.685695 
Q 102.347599 71.404348 103.410463 71.091741 
Q 104.848456 70.404005 105.536192 70.935437 
Q 106.223928 71.46687 105.661235 72.967384 
Q 104.785935 75.093113 103.973156 79.969786 
Q 103.160377 84.846458 102.097513 87.222273 
Q 99.659177 96.162839 98.346226 98.351089 
Q 97.283362 100.10169 96.439322 100.633122 
Q 95.595283 101.164554 94.032247 101.352118 
L 93.469554 99.476475 
" clip-path="url(#pb51533585f)" style="fill: none; stroke: #000000; stroke-linejoin: miter"/>
   </g>
  </g>
  <g id="axes_4">
   <g id="patch_5">
    <path d="M 131.600153 72.768313 
Q 131.600153 72.768313 131.600153 75.954893 
Q 131.600153 78.191089 131.739916 80.70681 
Q 131.879678 83.222531 132.103298 86.297301 
Q 132.326917 89.372071 132.438727 91.049218 
L 132.103298 92.726365 
M 120.027837 93.397224 
L 143.004755 93.061794 
M 124.556135 78.973758 
L 127.742715 78.973758 
Q 127.79862 78.973758 134.954448 78.638328 
L 139.147316 78.135184 
M 117.064877 76.234417 
L 117.064877 79.756426 
Q 117.064877 79.812331 117.400307 84.117009 
L 117.568021 95.353896 
M 118.965644 69.525828 
Q 120.083742 69.358113 126.568712 69.190399 
Q 133.053681 69.022684 135.289877 67.960491 
L 137.134739 67.625061 
M 126.680521 63.488098 
Q 126.121472 68.799064 122.459701 74.305698 
Q 118.797929 79.812331 113.990107 82.719387 
L 112.145245 83.55796 
" clip-path="url(#p52d199c634)" style="fill: none; stroke: #000000; stroke-linejoin: miter"/>
   </g>
  </g>
  <g id="axes_5">
   <g id="patch_6">
    <path d="M 167.013666 91.787846 
Q 167.423875 92.198055 168.420096 92.930571 
Q 169.416318 93.663087 169.826527 94.073296 
L 176.682878 98.644196 
M 153.476768 74.559068 
L 153.828376 74.559068 
Q 154.121383 74.559068 154.560892 74.764172 
Q 155.000402 74.969277 155.557114 75.262283 
Q 156.113826 75.555289 156.28963 75.613891 
L 160.508923 78.426752 
M 152.597749 79.833183 
Q 153.300965 80.360595 154.971101 81.005209 
Q 156.641238 81.649823 157.344453 82.118633 
L 158.223473 82.997653 
M 148.730064 86.689534 
L 150.663907 86.689534 
Q 154.648794 86.689534 159.190394 86.396527 
Q 163.731994 86.103521 169.328416 85.60541 
Q 174.924839 85.107299 177.913505 84.931495 
M 165.255627 73.680048 
Q 165.197026 74.090257 165.255627 75.789695 
Q 165.255627 80.008987 164.083601 83.290659 
Q 162.911576 86.572331 160.83123 90.381415 
Q 158.750884 94.190498 157.696061 97.061961 
L 154.531592 100.578039 
M 160.860531 63.659228 
Q 160.977733 63.71783 163.145981 64.714051 
L 164.200804 66.120482 
M 150.488103 71.570402 
L 155.586415 71.218794 
Q 157.989068 70.925788 162.970177 70.076069 
Q 167.951286 69.22635 171.994775 68.72824 
Q 176.038264 68.230129 179.319936 68.230129 
Q 178.558119 69.636559 178.089309 70.691383 
L 176.858682 73.504244 
M 151.191318 67.878521 
Q 150.722508 68.523135 150.839711 70.339775 
Q 150.898312 71.160193 150.312299 72.449421 
L 149.257476 76.317106 
" clip-path="url(#pb2bd9818a3)" style="fill: none; stroke: #000000; stroke-linejoin: miter"/>
   </g>
  </g>
  <g id="axes_6">
   <g id="patch_7">
    <path d="M 199.631684 94.228612 
Q 200.475 93.994357 202.606716 93.853805 
Q 204.738432 93.713252 205.816003 93.385296 
L 216.357455 93.244743 
M 214.389717 82.14108 
Q 214.389717 82.187931 212.585958 86.427937 
Q 210.782198 90.667943 210.735347 92.823085 
L 210.313689 93.666401 
M 206.799871 83.406054 
Q 206.940424 83.640308 207.47921 84.553901 
Q 208.017995 85.467494 208.345951 85.936003 
L 209.892031 87.622635 
M 203.567159 86.217108 
L 203.988817 86.217108 
Q 204.457326 86.217108 204.996112 86.709042 
Q 205.534897 87.200977 206.073683 87.90374 
Q 206.612468 88.606504 206.799871 88.747057 
L 207.643188 89.871478 
M 203.286054 79.751684 
L 211.157005 79.611131 
M 206.378213 71.037416 
Q 207.174679 71.787031 208.533355 73.333111 
Q 209.892031 74.87919 210.688496 75.675656 
Q 211.484961 76.472121 212.913914 77.245161 
Q 214.342866 78.018201 216.029499 78.205604 
M 207.362082 69.350784 
Q 207.034126 69.819293 206.143959 71.201395 
Q 205.253792 72.583496 204.715006 73.28626 
Q 204.176221 73.989023 203.309479 75.019743 
Q 202.442738 76.050463 201.50572 76.68295 
Q 200.568702 77.315437 199.491131 77.643393 
L 198.085604 78.346157 
M 184.592545 90.386838 
Q 185.623265 89.96518 187.567577 89.075013 
Q 189.511889 88.184846 190.800289 87.669486 
Q 192.088689 87.154126 193.775321 86.638766 
L 193.259961 86.217108 
M 187.684704 72.958303 
L 187.684704 73.520514 
Q 187.731555 74.410681 187.637853 75.39455 
Q 187.544152 76.378419 187.356748 77.596542 
Q 187.169344 78.814666 187.122494 79.423728 
Q 187.075643 79.704833 186.888239 80.431022 
Q 186.700835 81.157211 186.700835 81.532018 
Q 186.607134 82.094229 187.122494 81.906825 
Q 187.263046 81.906825 187.591003 81.766272 
Q 188.200064 81.485167 188.387468 81.532018 
Q 189.183933 81.719422 191.596754 81.36804 
Q 194.009576 81.016658 196.024165 80.595 
L 198.085604 80.173342 
Q 198.085604 81.719422 197.265713 88.606504 
Q 196.445823 95.493586 196.024165 95.493586 
Q 195.555656 95.493586 194.899743 94.90795 
Q 194.24383 94.322314 194.009576 94.228612 
L 192.510347 93.10419 
M 185.716967 71.271671 
L 194.946594 70.053548 
L 194.056427 75.39455 
L 193.072558 79.470578 
" clip-path="url(#p8d98e68d75)" style="fill: none; stroke: #000000; stroke-linejoin: miter"/>
   </g>
  </g>
  <g id="axes_7">
   <g id="patch_8">
    <path d="M 236.760316 77.520904 
L 247.135392 77.35622 
M 221.444729 90.530919 
L 250.758434 90.530919 
L 252.405271 90.860286 
M 236.595633 68.957349 
L 236.266265 89.048765 
" clip-path="url(#p23a251298a)" style="fill: none; stroke: #000000; stroke-linejoin: miter"/>
   </g>
  </g>
  <g id="axes_8">
   <g id="patch_9">
    <path d="M 270.085283 83.125552 
Q 270.169634 83.294255 270.760097 83.842541 
Q 271.350559 84.390828 271.603614 84.643883 
Q 271.856669 84.896938 272.404955 85.529576 
Q 272.953241 86.162214 273.290648 86.541797 
Q 273.628055 86.921379 274.134166 87.596193 
Q 274.640276 88.271007 274.935507 88.734941 
Q 275.230738 89.198876 275.568145 89.87369 
Q 275.905552 90.548503 276.116431 91.09679 
Q 276.32731 91.645076 276.496014 92.277714 
Q 276.664717 92.910352 276.664717 93.500814 
Q 276.664717 94.76609 276.32731 95.862662 
Q 275.989903 96.959234 275.357266 98.182334 
Q 274.724628 99.405434 274.387221 100.333303 
L 271.856669 102.863855 
" clip-path="url(#p5548f57b15)" style="fill: none; stroke: #000000; stroke-linejoin: miter"/>
   </g>
  </g>
 </g>
 <defs>
  <clipPath id="p8da1ade4d1">
   <rect x="0" y="46.930987" width="36.45" height="67.328025"/>
  </clipPath>
  <clipPath id="p1665ebbdfe">
   <rect x="36.45" y="47.76736" width="36.45" height="65.65528"/>
  </clipPath>
  <clipPath id="pb51533585f">
   <rect x="72.9" y="35.266955" width="36.45" height="90.656089"/>
  </clipPath>
  <clipPath id="p52d199c634">
   <rect x="109.35" y="40.063942" width="36.45" height="81.062117"/>
  </clipPath>
  <clipPath id="pb2bd9818a3">
   <rect x="145.8" y="38.109068" width="36.45" height="84.971865"/>
  </clipPath>
  <clipPath id="p8d98e68d75">
   <rect x="182.25" y="46.628098" width="36.45" height="67.933805"/>
  </clipPath>
  <clipPath id="p23a251298a">
   <rect x="218.7" y="40.796431" width="36.45" height="79.597139"/>
  </clipPath>
  <clipPath id="p5548f57b15">
   <rect x="265.867697" y="19.44" width="15.014607" height="122.31"/>
  </clipPath>
 </defs>
</svg>
