<?xml version="1.0" encoding="utf-8" standalone="no"?>
<!DOCTYPE svg PUBLIC "-//W3C//DTD SVG 1.1//EN"
  "http://www.w3.org/Graphics/SVG/1.1/DTD/svg11.dtd">
<svg xmlns:xlink="http://www.w3.org/1999/xlink" width="162pt" height="162pt" viewBox="0 0 162 162" xmlns="http://www.w3.org/2000/svg" version="1.1">
 <metadata>
  <rdf:RDF xmlns:dc="http://purl.org/dc/elements/1.1/" xmlns:cc="http://creativecommons.org/ns#" xmlns:rdf="http://www.w3.org/1999/02/22-rdf-syntax-ns#">
   <cc:Work>
    <dc:type rdf:resource="http://purl.org/dc/dcmitype/StillImage"/>
    <dc:date>2023-02-15T23:05:26.202580</dc:date>
    <dc:format>image/svg+xml</dc:format>
    <dc:creator>
     <cc:Agent>
      <dc:title>Matplotlib v3.6.1, https://matplotlib.org/</dc:title>
     </cc:Agent>
    </dc:creator>
   </cc:Work>
  </rdf:RDF>
 </metadata>
 <defs>
  <style type="text/css">*{stroke-linejoin: round; stroke-linecap: butt}</style>
 </defs>
 <g id="figure_1">
  <g id="patch_1">
   <path d="M 0 162 
L 162 162 
L 162 0 
L 0 0 
z
" style="fill: #8fff9f"/>
  </g>
  <g id="axes_1">
   <g id="patch_2">
    <path d="M 19.247525 78.97099 
L 24.3 84.745248 
M 4.090099 74.640297 
L 30.134406 73.377178 
Q 31.517822 73.196733 31.57797 73.196733 
Q 33.021535 72.715545 33.232054 73.587698 
Q 33.442574 74.459851 33.20198 75.542525 
Q 31.938861 86.67 27.427723 93.045743 
Q 27.247277 93.286337 26.675866 94.519381 
Q 26.104455 95.752426 25.533045 96.654653 
Q 24.961634 97.556881 24.360149 97.556881 
Q 24.179703 97.556881 24.059406 97.556881 
L 23.999257 97.556881 
Q 24.059406 97.436584 23.638366 97.19599 
L 20.209901 94.308861 
M 17.202475 61.467772 
Q 17.563366 63.151931 17.533292 64.084233 
Q 17.503218 65.016535 17.292698 66.82099 
Q 17.082178 68.625446 17.082178 69.587822 
Q 17.082178 72.775693 15.277723 76.715421 
Q 13.473267 80.655149 10.52599 85.316658 
Q 7.578713 89.978168 6.796782 91.54203 
L 3.007426 94.970495 
M 5.172772 65.437574 
Q 5.774257 65.61802 6.526114 66.580396 
Q 7.27797 67.542772 7.69901 67.783366 
L 9.142574 70.309604 
" clip-path="url(#p14d9860a5a)" style="fill: none; stroke: #000000; stroke-linejoin: miter"/>
   </g>
  </g>
  <g id="axes_2">
   <g id="patch_3">
    <path d="M 57.565524 85.494194 
Q 58.104435 85.788145 59.10877 86.54752 
Q 60.113105 87.306895 60.50504 87.551855 
L 63.150605 90.638347 
M 43.651815 83.583508 
L 68.58871 82.11375 
M 55.213911 76.528669 
Q 54.821976 78.782298 53.915625 80.864456 
Q 53.009274 82.946613 51.539516 85.567681 
Q 50.069758 88.18875 49.383871 89.609516 
L 46.150403 93.871815 
M 50.510685 76.920605 
Q 51.833468 76.332702 54.503528 76.136734 
Q 57.173589 75.940766 58.300403 75.646815 
L 61.386895 75.499839 
M 51.588508 71.384516 
Q 51.147581 73.344194 50.069758 75.769294 
Q 48.991935 78.194395 47.571169 79.32121 
L 47.277218 80.056089 
M 39.634476 66.877258 
L 39.4875 90.638347 
Q 38.899597 94.557702 38.899597 96.566371 
L 38.899597 97.007298 
L 69.568548 96.664355 
M 39.928427 68.151048 
Q 42.671976 68.396008 48.428528 68.028569 
Q 54.185081 67.661129 59.010786 67.416169 
Q 63.836492 67.17121 70.450403 67.808105 
" clip-path="url(#pbde575e964)" style="fill: none; stroke: #000000; stroke-linejoin: miter"/>
   </g>
  </g>
  <g id="axes_3">
   <g id="patch_4">
    <path d="M 78.829925 87.612985 
Q 82.257313 86.524925 86.011119 86.089701 
Q 89.764925 85.654478 95.123619 85.491269 
Q 100.482313 85.32806 102.495224 85.164851 
M 90.254552 81.247836 
L 90.254552 81.900672 
Q 90.417761 83.478358 90.771381 86.416119 
Q 91.125 89.353881 91.342612 91.666007 
Q 91.560224 93.978134 91.614627 96.208657 
Q 91.66903 99.853657 91.070597 99.90806 
Q 90.526567 99.90806 89.49291 98.058358 
L 87.969627 96.045448 
M 83.236567 77.167612 
Q 83.508582 77.222015 83.889403 76.841194 
L 87.153582 76.841194 
Q 87.207985 76.841194 91.233806 76.514776 
L 98.142985 75.372313 
Q 97.816567 75.535522 97.245336 75.889142 
Q 96.674104 76.242761 96.510896 76.351567 
L 90.744179 81.084627 
M 76.762612 71.074478 
L 93.246716 70.74806 
Q 95.205224 70.639254 98.931828 70.095224 
Q 102.658433 69.551194 104.508134 69.442388 
Q 106.629851 69.333582 106.629851 69.605597 
Q 106.629851 69.66 106.140224 70.911269 
L 103.039254 74.501866 
M 75.620149 70.911269 
Q 77.905075 72.108134 79.047537 74.338657 
L 79.373955 75.154701 
M 99.285448 63.893284 
Q 98.415 64.872537 98.142985 66.667836 
L 96.674104 69.932015 
M 87.371194 65.362164 
Q 87.48 65.47097 87.697612 65.933396 
Q 87.915224 66.395821 88.187239 66.504627 
L 89.656119 68.952761 
M 81.169254 66.015 
L 82.638134 70.095224 
" clip-path="url(#p5aa28e3bf1)" style="fill: none; stroke: #000000; stroke-linejoin: miter"/>
   </g>
  </g>
  <g id="axes_4">
   <g id="patch_5">
    <path d="M 130.60864 81.613933 
L 130.60864 97.453704 
M 124.63399 82.864441 
Q 124.63399 82.864441 124.63399 83.837058 
Q 124.587675 87.773844 122.109816 91.13169 
Q 119.631957 94.489536 115.324651 96.017935 
M 129.497078 77.028736 
Q 131.395997 79.900273 132.345457 81.173939 
Q 133.294917 82.447605 134.892789 83.674956 
Q 136.490661 84.902306 138.29695 85.504403 
Q 140.10324 86.106499 143.484244 86.893856 
M 123.800318 77.306626 
Q 122.410864 80.548685 118.659339 84.184422 
Q 114.907814 87.820159 111.665756 88.978037 
M 127.135006 68.182548 
L 127.135006 68.877274 
Q 127.135006 70.776194 127.320267 73.485629 
Q 127.505527 76.195064 127.551842 77.306626 
M 120.92878 72.721429 
L 132.600191 72.443539 
M 119.354066 76.88979 
L 134.730686 76.750845 
M 117.964612 68.738329 
L 118.381449 68.738329 
Q 120.048793 68.553069 122.526652 68.25202 
Q 125.004511 67.950972 126.347649 67.788869 
Q 127.690788 67.626766 129.798126 67.487821 
Q 131.905464 67.348875 134.174905 67.348875 
Q 134.40648 67.348875 134.823316 67.30256 
Q 135.240152 67.256245 135.518043 67.233088 
Q 135.795934 67.20993 136.073825 67.256245 
Q 136.351715 67.30256 136.513818 67.510978 
Q 136.675921 67.719396 136.675921 68.043602 
Q 136.675921 69.433056 135.888564 71.818285 
Q 135.101207 74.203513 135.008577 74.527719 
L 134.591741 77.723463 
M 117.964612 69.572001 
L 117.964612 69.525686 
Q 117.964612 71.1004 118.75197 74.157198 
Q 119.539327 77.213996 119.631957 77.723463 
" clip-path="url(#p0bbf9e2b66)" style="fill: none; stroke: #000000; stroke-linejoin: miter"/>
   </g>
  </g>
 </g>
 <defs>
  <clipPath id="p14d9860a5a">
   <rect x="0" y="36.987327" width="36.45" height="87.215347"/>
  </clipPath>
  <clipPath id="pbde575e964">
   <rect x="36.45" y="45.075847" width="36.45" height="71.038306"/>
  </clipPath>
  <clipPath id="p5aa28e3bf1">
   <rect x="72.9" y="41.152836" width="36.45" height="78.884328"/>
  </clipPath>
  <clipPath id="p0bbf9e2b66">
   <rect x="109.35" y="47.016537" width="36.45" height="67.156925"/>
  </clipPath>
 </defs>
</svg>
