<?xml version="1.0" encoding="utf-8" standalone="no"?>
<!DOCTYPE svg PUBLIC "-//W3C//DTD SVG 1.1//EN"
  "http://www.w3.org/Graphics/SVG/1.1/DTD/svg11.dtd">
<svg xmlns:xlink="http://www.w3.org/1999/xlink" width="252pt" height="72pt" viewBox="0 0 252 72" xmlns="http://www.w3.org/2000/svg" version="1.1">
 <metadata>
  <rdf:RDF xmlns:dc="http://purl.org/dc/elements/1.1/" xmlns:cc="http://creativecommons.org/ns#" xmlns:rdf="http://www.w3.org/1999/02/22-rdf-syntax-ns#">
   <cc:Work>
    <dc:type rdf:resource="http://purl.org/dc/dcmitype/StillImage"/>
    <dc:date>2023-02-13T20:50:03.200006</dc:date>
    <dc:format>image/svg+xml</dc:format>
    <dc:creator>
     <cc:Agent>
      <dc:title>Matplotlib v3.6.1, https://matplotlib.org/</dc:title>
     </cc:Agent>
    </dc:creator>
   </cc:Work>
  </rdf:RDF>
 </metadata>
 <defs>
  <style type="text/css">*{stroke-linejoin: round; stroke-linecap: butt}</style>
 </defs>
 <g id="figure_1">
  <g id="patch_1">
   <path d="M 0 72 
L 252 72 
L 252 0 
L 0 0 
z
" style="fill: #8fff9f"/>
  </g>
  <g id="axes_1">
   <g id="patch_2">
    <path d="M 15.601529 43.151274 
Q 16.757197 42.826242 19.122707 42.826242 
Q 21.488217 42.826242 22.643885 42.50121 
L 25.677516 42.392866 
M 16.034904 34.80879 
L 16.576624 34.80879 
Q 17.876752 34.80879 22.21051 34.574045 
Q 26.544268 34.339299 26.544268 34.158726 
Q 26.544268 34.736561 26.237293 35.874172 
Q 25.930318 37.011783 25.478885 38.402197 
Q 25.027452 39.792611 24.919108 40.225987 
L 24.810764 43.04293 
M 15.926561 34.158726 
Q 16.54051 36.939554 16.46828 42.934586 
M 9.064777 36.722866 
Q 9.823185 37.192357 11.484459 37.84242 
Q 13.145732 38.492484 13.831911 38.889745 
M 8.739745 33.039172 
L 8.739745 33.472548 
Q 8.739745 34.664331 7.891051 35.964459 
Q 7.042357 37.264586 5.724172 38.727229 
Q 4.405987 40.189873 3.972611 40.839936 
L 2.889172 41.706688 
M 1.805732 35.097707 
L 2.02242 35.097707 
Q 3.719809 34.411529 5.850573 33.887866 
Q 7.981338 33.364204 9.498153 33.129459 
Q 11.014968 32.894713 13.615223 32.569682 
Q 16.215478 32.24465 17.407261 32.064076 
M 8.486943 27.910892 
L 8.703631 47.846178 
M 4.044841 28.560955 
L 4.261529 28.560955 
Q 5.489427 28.560955 7.060414 28.181752 
Q 8.631401 27.802548 10.52742 27.206656 
Q 12.423439 26.610764 13.254076 26.394076 
L 14.229172 25.960701 
" clip-path="url(#pb5bf4d6f51)" style="fill: none; stroke: #000000; stroke-linejoin: miter"/>
   </g>
  </g>
  <g id="axes_2">
   <g id="patch_3">
    <path d="M 44.268261 44.448261 
Q 44.268261 44.448261 44.796522 44.448261 
L 47.437826 44.448261 
L 50.07913 44.131304 
M 44.268261 41.701304 
L 49.867826 40.996957 
M 44.585217 38.531739 
L 44.796522 38.531739 
Q 48.318261 37.44 50.607391 37.475217 
Q 50.853913 37.475217 51.206087 37.475217 
Q 51.734348 37.44 51.804783 37.58087 
Q 51.875217 37.721739 51.875217 38.637391 
Q 51.875217 39.130435 51.875217 39.482609 
L 51.875217 45.082174 
Q 51.875217 45.575217 52.033696 46.561304 
Q 52.192174 47.547391 52.192174 48.040435 
L 52.156957 48.392609 
L 52.121739 48.392609 
Q 51.98087 48.322174 51.875217 48.463043 
L 50.290435 47.195217 
M 44.796522 38.637391 
L 44.796522 40.222174 
Q 44.796522 41.208261 44.69087 42.211957 
Q 44.585217 43.215652 44.40913 44.430652 
Q 44.233043 45.645652 44.162609 46.35 
L 43.74 47.406522 
M 47.226522 25.219565 
L 47.226522 26.487391 
Q 47.226522 27.156522 47.226522 27.543913 
L 47.226522 27.57913 
Q 47.261739 27.015652 47.437826 28.706087 
L 47.543478 35.784783 
M 41.908696 36.348261 
L 42.331304 36.348261 
Q 44.585217 36.348261 49.163478 35.643913 
Q 53.741739 34.939565 54.93913 34.833913 
M 44.268261 32.403913 
L 50.818696 32.086957 
M 44.162609 29.34 
L 49.762174 29.445652 
M 39.408261 29.058261 
L 37.40087 31.91087 
M 30.11087 28.53 
Q 30.286957 28.459565 30.445435 28.67087 
Q 30.603913 28.882174 30.744783 28.846957 
L 32.646522 30.431739 
M 35.710435 38.883913 
Q 36.59087 39.130435 36.555652 39.20087 
L 39.513913 40.891304 
M 35.710435 35.714348 
Q 35.287826 36.172174 35.058913 37.44 
Q 34.83 38.707826 34.653913 39.095217 
Q 34.301739 39.87 33.826304 40.53913 
Q 33.35087 41.208261 32.699348 41.965435 
Q 32.047826 42.722609 31.695652 43.215652 
L 30.744783 43.849565 
M 30.850435 35.925652 
L 31.061739 35.925652 
Q 31.942174 35.925652 33.033913 35.784783 
Q 34.125652 35.643913 35.446304 35.397391 
Q 36.766957 35.15087 37.40087 35.080435 
L 40.570435 34.974783 
M 35.393478 25.466087 
L 35.393478 27.473478 
Q 35.393478 28.67087 35.463913 29.991522 
Q 35.534348 31.312174 35.657609 32.914565 
Q 35.78087 34.516957 35.816087 35.397391 
L 35.710435 48.815217 
" clip-path="url(#p7d4cc59d77)" style="fill: none; stroke: #000000; stroke-linejoin: miter"/>
   </g>
  </g>
  <g id="axes_3">
   <g id="patch_4">
    <path d="M 70.593828 25.622814 
L 70.481359 25.960221 
L 70.481359 28.2096 
Q 69.919014 31.246262 69.300434 33.664345 
Q 68.681855 36.082428 67.669634 39.062855 
Q 66.657414 42.043283 65.176572 44.498855 
Q 63.695731 46.954428 61.821248 48.603972 
M 64.520503 31.4712 
L 67.669634 31.4712 
Q 68.906793 31.583669 72.393331 31.133793 
Q 72.880697 31.058814 73.836683 30.946345 
Q 74.792669 30.833876 75.392503 30.740152 
Q 75.992338 30.646428 76.798366 30.477724 
Q 77.604393 30.309021 78.241717 30.121572 
Q 79.103979 29.709186 79.516366 30.027848 
Q 79.928752 30.34651 79.591345 31.246262 
Q 79.06649 32.52091 78.579124 35.445103 
Q 78.091759 38.369297 77.454434 39.793903 
Q 75.992338 45.154924 75.205055 46.467062 
Q 74.567731 47.516772 74.061621 47.835434 
Q 73.55551 48.154097 72.618269 48.266566 
L 72.280862 47.141876 
" clip-path="url(#pc5b2843d73)" style="fill: none; stroke: #000000; stroke-linejoin: miter"/>
   </g>
  </g>
  <g id="axes_4">
   <g id="patch_5">
    <path d="M 101.924255 30.571448 
Q 101.924255 30.571448 101.924255 32.708359 
Q 101.924255 34.207945 102.017979 35.894979 
Q 102.111703 37.582014 102.261662 39.643945 
Q 102.411621 41.705876 102.4866 42.830566 
L 102.261662 43.955255 
M 94.163897 44.405131 
L 109.572145 44.180193 
M 97.200559 34.7328 
L 99.337469 34.7328 
Q 99.374959 34.7328 104.173634 34.507862 
L 106.985359 34.170455 
M 92.176945 32.895807 
L 92.176945 35.257655 
Q 92.176945 35.295145 92.401883 38.181848 
L 92.514352 45.717269 
M 93.451593 28.397048 
Q 94.201386 28.284579 98.550186 28.17211 
Q 102.898986 28.059641 104.398572 27.347338 
L 105.635731 27.1224 
M 98.625166 24.348166 
Q 98.250269 27.909683 95.794697 31.602414 
Q 93.339124 35.295145 90.115014 37.244607 
L 88.877855 37.806952 
" clip-path="url(#p4b053b968e)" style="fill: none; stroke: #000000; stroke-linejoin: miter"/>
   </g>
  </g>
  <g id="axes_5">
   <g id="patch_6">
    <path d="M 129.486972 42.980524 
Q 129.7494 43.242952 130.386724 43.711572 
Q 131.024048 44.180193 131.286476 44.442621 
L 135.672766 47.366814 
M 120.826862 31.958566 
L 121.0518 31.958566 
Q 121.239248 31.958566 121.520421 32.089779 
Q 121.801593 32.220993 122.157745 32.408441 
Q 122.513897 32.59589 122.626366 32.633379 
L 125.325621 34.432883 
M 120.264517 35.332634 
Q 120.714393 35.670041 121.782848 36.082428 
Q 122.851303 36.494814 123.301179 36.794731 
L 123.863524 37.357076 
M 117.7902 39.718924 
L 119.027359 39.718924 
Q 121.576655 39.718924 124.482103 39.531476 
Q 127.387552 39.344028 130.967814 39.025366 
Q 134.548076 38.706703 136.460048 38.594234 
M 128.362283 31.396221 
Q 128.324793 31.658648 128.362283 32.745848 
Q 128.362283 35.445103 127.61249 37.544524 
Q 126.862697 39.643945 125.531814 42.080772 
Q 124.200931 44.5176 123.526117 46.354593 
L 121.501676 48.603972 
M 125.550559 24.98549 
Q 125.625538 25.022979 127.012655 25.660303 
L 127.687469 26.560055 
M 118.91489 30.046593 
L 122.17649 29.821655 
Q 123.713566 29.634207 126.900186 29.090607 
Q 130.086807 28.547007 132.673593 28.228345 
Q 135.260379 27.909683 137.3598 27.909683 
Q 136.872434 28.809434 136.572517 29.484248 
L 135.785234 31.283752 
M 119.364766 27.684745 
Q 119.064848 28.097131 119.139828 29.25931 
Q 119.177317 29.784166 118.802421 30.608938 
L 118.127607 33.083255 
" clip-path="url(#p9326df8f59)" style="fill: none; stroke: #000000; stroke-linejoin: miter"/>
   </g>
  </g>
  <g id="axes_6">
   <g id="patch_7">
    <path d="M 155.269087 46.42392 
Q 155.925 46.241722 157.583001 46.132404 
Q 159.241003 46.023085 160.079113 45.768008 
L 168.278021 45.658689 
M 166.747558 37.022506 
Q 166.747558 37.058946 165.344634 40.356729 
Q 163.94171 43.654512 163.90527 45.330733 
L 163.577314 45.986645 
M 160.844344 38.006375 
Q 160.953663 38.188573 161.372719 38.899145 
Q 161.791774 39.609717 162.046851 39.974113 
L 163.249357 41.285938 
M 158.330013 40.192751 
L 158.657969 40.192751 
Q 159.022365 40.192751 159.44142 40.575366 
Q 159.860476 40.957982 160.279531 41.504576 
Q 160.698586 42.05117 160.844344 42.160488 
L 161.500257 43.035039 
M 158.111375 35.164087 
L 164.233226 35.054769 
M 160.516388 28.386324 
Q 161.135861 28.969357 162.192609 30.171864 
Q 163.249357 31.37437 163.86883 31.993843 
Q 164.488303 32.613316 165.599711 33.214569 
Q 166.711118 33.815823 168.022943 33.961581 
M 161.28162 27.074499 
Q 161.026542 27.438895 160.33419 28.513862 
Q 159.641838 29.58883 159.222783 30.135424 
Q 158.803728 30.682018 158.129595 31.483689 
Q 157.455463 32.28536 156.726671 32.777294 
Q 155.997879 33.269229 155.159769 33.524306 
L 154.066581 34.0709 
M 143.571979 43.435874 
Q 144.37365 43.107918 145.885893 42.415566 
Q 147.398136 41.723213 148.400225 41.322378 
Q 149.402314 40.921542 150.714139 40.520707 
L 150.313303 40.192751 
M 145.976992 29.880347 
L 145.976992 30.317622 
Q 146.013432 31.009974 145.940553 31.775206 
Q 145.867674 32.540437 145.721915 33.487866 
Q 145.576157 34.435296 145.539717 34.90901 
Q 145.503278 35.127648 145.357519 35.692461 
Q 145.211761 36.257275 145.211761 36.548792 
Q 145.138882 36.986067 145.539717 36.840308 
Q 145.649036 36.840308 145.904113 36.73099 
Q 146.377828 36.512352 146.523586 36.548792 
Q 147.143059 36.69455 149.019698 36.421253 
Q 150.896337 36.147956 152.463239 35.82 
L 154.066581 35.492044 
Q 154.066581 36.69455 153.428888 42.05117 
Q 152.791195 47.407789 152.463239 47.407789 
Q 152.098843 47.407789 151.588689 46.952294 
Q 151.078535 46.496799 150.896337 46.42392 
L 149.73027 45.54937 
M 144.44653 28.568522 
L 151.625129 27.621093 
L 150.932776 31.775206 
L 150.167545 34.94545 
" clip-path="url(#p1dc584957c)" style="fill: none; stroke: #000000; stroke-linejoin: miter"/>
   </g>
  </g>
  <g id="axes_7">
   <g id="patch_8">
    <path d="M 184.162531 33.720579 
L 191.248076 33.60811 
M 173.702917 42.605628 
L 193.722393 42.605628 
L 194.847083 42.830566 
M 184.050062 27.872193 
L 183.825124 41.593407 
" clip-path="url(#pd7380c4a4f)" style="fill: none; stroke: #000000; stroke-linejoin: miter"/>
   </g>
  </g>
  <g id="axes_8">
   <g id="patch_9">
    <path d="M 211.162903 36.94469 
Q 211.200393 37.019669 211.462821 37.263352 
Q 211.725248 37.507034 211.837717 37.619503 
Q 211.950186 37.731972 212.193869 38.013145 
Q 212.437552 38.294317 212.58751 38.463021 
Q 212.737469 38.631724 212.962407 38.931641 
Q 213.187345 39.231559 213.318559 39.437752 
Q 213.449772 39.643945 213.599731 39.943862 
Q 213.74969 40.243779 213.843414 40.487462 
Q 213.937138 40.731145 214.012117 41.012317 
Q 214.087097 41.29349 214.087097 41.555917 
Q 214.087097 42.118262 213.937138 42.605628 
Q 213.787179 43.092993 213.506007 43.636593 
Q 213.224834 44.180193 213.074876 44.592579 
L 211.950186 45.717269 
" clip-path="url(#pf3cf99cca5)" style="fill: none; stroke: #000000; stroke-linejoin: miter"/>
   </g>
  </g>
 </g>
 <defs>
  <clipPath id="pb5bf4d6f51">
   <rect x="0" y="9.636879" width="28.35" height="52.366242"/>
  </clipPath>
  <clipPath id="p7d4cc59d77">
   <rect x="28.35" y="10.287391" width="28.35" height="51.065217"/>
  </clipPath>
  <clipPath id="pc5b2843d73">
   <rect x="59.946766" y="8.64" width="21.856469" height="54.36"/>
  </clipPath>
  <clipPath id="p4b053b968e">
   <rect x="87.003372" y="8.64" width="24.443255" height="54.36"/>
  </clipPath>
  <clipPath id="p9326df8f59">
   <rect x="115.915717" y="8.64" width="23.318566" height="54.36"/>
  </clipPath>
  <clipPath id="p1dc584957c">
   <rect x="141.75" y="9.401298" width="28.35" height="52.837404"/>
  </clipPath>
  <clipPath id="pd7380c4a4f">
   <rect x="171.828434" y="8.64" width="24.893131" height="54.36"/>
  </clipPath>
  <clipPath id="pf3cf99cca5">
   <rect x="209.288421" y="8.64" width="6.673159" height="54.36"/>
  </clipPath>
 </defs>
</svg>
