<?xml version="1.0" encoding="utf-8" standalone="no"?>
<!DOCTYPE svg PUBLIC "-//W3C//DTD SVG 1.1//EN"
  "http://www.w3.org/Graphics/SVG/1.1/DTD/svg11.dtd">
<svg xmlns:xlink="http://www.w3.org/1999/xlink" width="324pt" height="162pt" viewBox="0 0 324 162" xmlns="http://www.w3.org/2000/svg" version="1.1">
 <metadata>
  <rdf:RDF xmlns:dc="http://purl.org/dc/elements/1.1/" xmlns:cc="http://creativecommons.org/ns#" xmlns:rdf="http://www.w3.org/1999/02/22-rdf-syntax-ns#">
   <cc:Work>
    <dc:type rdf:resource="http://purl.org/dc/dcmitype/StillImage"/>
    <dc:date>2023-02-15T23:06:11.243328</dc:date>
    <dc:format>image/svg+xml</dc:format>
    <dc:creator>
     <cc:Agent>
      <dc:title>Matplotlib v3.6.1, https://matplotlib.org/</dc:title>
     </cc:Agent>
    </dc:creator>
   </cc:Work>
  </rdf:RDF>
 </metadata>
 <defs>
  <style type="text/css">*{stroke-linejoin: round; stroke-linecap: butt}</style>
 </defs>
 <g id="figure_1">
  <g id="patch_1">
   <path d="M 0 162 
L 324 162 
L 324 0 
L 0 0 
z
" style="fill: #8fff9f"/>
  </g>
  <g id="axes_1">
   <g id="patch_2">
    <path d="M 9.72 99.261818 
L 10.714091 99.261818 
Q 13.696364 99.261818 19.44 98.985682 
Q 25.183636 98.709545 28.994318 98.82 
M 9.1125 88.713409 
Q 11.211136 88.050682 13.282159 87.719318 
Q 15.353182 87.387955 17.175682 87.387955 
Q 18.998182 87.387955 21.152045 87.387955 
Q 23.305909 87.387955 25.570227 87.387955 
Q 26.232955 87.387955 27.558409 87.139432 
Q 28.883864 86.890909 29.380909 86.890909 
Q 29.546591 86.890909 29.546591 87.719318 
Q 29.657045 89.541818 29.021932 91.999432 
Q 28.386818 94.457045 28.331591 95.837727 
L 28.000227 98.488636 
L 27.3375 99.317045 
M 8.449773 87.885 
L 8.449773 88.713409 
L 8.449773 92.413636 
L 8.891591 98.433409 
M 17.175682 66.180682 
L 17.175682 66.677727 
Q 17.175682 69.439091 15.739773 72.614659 
Q 14.303864 75.790227 12.895568 77.750795 
Q 11.487273 79.711364 9.057273 82.638409 
L 2.761364 89.265682 
M 7.455682 67.450909 
Q 8.118409 67.506136 9.195341 67.395682 
Q 10.272273 67.285227 11.100682 67.285227 
L 25.294091 66.180682 
Q 26.509091 66.180682 29.491364 65.656023 
Q 32.473636 65.131364 33.688636 65.131364 
Q 33.633409 65.794091 33.495341 66.953864 
Q 33.357273 68.113636 32.722159 71.151136 
Q 32.087045 74.188636 31.203409 76.64625 
Q 30.319773 79.103864 28.662955 81.423409 
Q 27.006136 83.742955 24.962727 84.460909 
Q 24.520909 84.626591 24.244773 84.322841 
Q 23.968636 84.019091 23.747727 83.439205 
Q 23.526818 82.859318 23.305909 82.638409 
" clip-path="url(#p6608334891)" style="fill: none; stroke: #000000; stroke-linejoin: miter"/>
   </g>
  </g>
  <g id="axes_2">
   <g id="patch_3">
    <path d="M 38.946575 80.595 
Q 42.192123 79.396644 46.361404 78.922295 
Q 50.530685 78.447945 55.873356 78.248219 
Q 61.216027 78.048493 63.812466 77.748904 
L 70.403425 76.550548 
M 57.521096 68.211986 
L 57.521096 68.811164 
Q 57.521096 71.357671 57.820685 95.874041 
M 50.330959 70.408973 
Q 50.281027 70.558767 50.305993 71.157945 
Q 50.330959 71.757123 50.330959 71.906918 
Q 50.330959 72.006781 50.330959 74.12887 
Q 50.330959 76.250959 50.330959 76.600479 
Q 50.330959 76.95 50.281027 78.847397 
Q 50.231096 80.744795 50.081301 81.368938 
Q 49.931507 81.993082 49.731781 83.59089 
Q 49.532055 85.188699 49.182534 85.987603 
Q 48.833014 86.786507 48.38363 88.009829 
Q 47.934247 89.233151 47.260171 90.131918 
Q 46.586096 91.030685 45.787192 91.879521 
L 44.289247 93.377466 
M 43.889795 70.408973 
L 63.662671 68.761233 
" clip-path="url(#p71b4312b22)" style="fill: none; stroke: #000000; stroke-linejoin: miter"/>
   </g>
  </g>
  <g id="axes_3">
   <g id="patch_4">
    <path d="M 91.328253 73.548903 
L 91.328253 74.158662 
Q 91.328253 74.836171 91.125 76.258941 
Q 90.921747 77.68171 90.921747 78.42697 
Q 90.786245 82.356524 92.073513 89.504247 
Q 93.360781 96.65197 93.564033 98.345743 
Q 93.970539 102.139796 93.970539 102.207546 
Q 93.970539 102.614052 93.868913 102.715678 
Q 93.767286 102.817305 93.360781 102.817305 
Q 92.683271 102.817305 91.49763 102.072045 
Q 90.311989 101.326784 88.95697 100.24277 
Q 87.601952 99.158755 87.263197 98.955502 
L 84.417658 97.532732 
M 76.287546 69.077342 
L 79.742844 69.077342 
Q 84.214405 69.077342 92.886524 67.45132 
Q 101.558643 65.825297 105.962454 65.825297 
Q 104.607435 67.044814 99.424489 70.36461 
Q 94.241543 73.684405 92.141264 75.987937 
" clip-path="url(#p4a473105a6)" style="fill: none; stroke: #000000; stroke-linejoin: miter"/>
   </g>
  </g>
  <g id="axes_4">
   <g id="patch_5">
    <path d="M 111.556416 79.138765 
L 112.218341 79.138765 
Q 117.557869 78.697482 127.883898 78.763674 
Q 138.209927 78.829867 143.593584 78.47684 
" clip-path="url(#p9426f08638)" style="fill: none; stroke: #000000; stroke-linejoin: miter"/>
   </g>
  </g>
  <g id="axes_5">
   <g id="patch_6">
    <path d="M 165.264093 79.872195 
Q 166.709703 82.298754 167.716466 83.770177 
Q 168.723229 85.241601 170.323725 87.177684 
Q 171.924221 89.113768 173.782861 90.378676 
Q 175.641501 91.643584 177.809915 92.26313 
L 179.668555 92.418017 
M 165.88364 75.070708 
Q 165.832011 75.122337 165.857826 75.535368 
Q 165.88364 75.948399 165.88364 76.000028 
Q 165.88364 78.581473 165.212465 80.569186 
Q 164.541289 82.556898 163.689412 83.641105 
Q 162.837535 84.725312 161.572627 86.480694 
Q 160.30772 88.236076 159.533286 89.93983 
L 156.745326 91.79847 
M 160.927266 69.959448 
L 174.092635 67.945921 
Q 173.731232 68.668725 172.930984 70.862953 
Q 172.130737 73.057181 171.459561 74.141388 
M 162.011473 66.551941 
Q 161.959844 66.810085 161.985659 67.713591 
Q 162.011473 68.617096 162.011473 68.875241 
L 161.23704 73.521841 
M 155.970892 80.646629 
Q 155.867635 80.853144 155.428789 81.29199 
Q 154.989943 81.730836 155.041572 82.195496 
L 150.704745 87.926303 
M 148.381445 70.114334 
L 156.590439 72.902295 
" clip-path="url(#pb9bf32e6fa)" style="fill: none; stroke: #000000; stroke-linejoin: miter"/>
   </g>
  </g>
  <g id="axes_6">
   <g id="patch_7">
    <path d="M 207.863514 92.786047 
Q 208.048226 93.155473 208.448438 93.986681 
Q 208.848649 94.817889 209.094932 95.310456 
Q 209.341216 95.803024 209.5875 96.541875 
Q 209.833784 97.280726 209.895355 97.958007 
L 211.188345 101.098125 
M 197.88902 85.766959 
L 197.88902 86.136385 
Q 196.903885 88.106655 194.533404 91.462272 
Q 192.162922 94.817889 191.793497 95.372027 
Q 189.823226 98.450574 189.576943 98.696858 
L 203.799831 97.034443 
L 209.525929 96.295591 
M 188.283953 87.244662 
Q 192.409206 85.951672 200.998353 85.674603 
Q 209.5875 85.397534 211.188345 85.212821 
L 212.666047 84.658682 
M 195.303041 80.410287 
Q 195.487753 80.348716 196.072677 80.25636 
Q 196.657601 80.164003 196.965456 80.040861 
L 203.245693 79.30201 
M 198.258446 65.879544 
Q 206.693666 76.03875 214.14375 78.932584 
L 215.621453 80.040861 
M 199.058868 62.862568 
Q 198.566301 63.909274 197.119383 67.141748 
Q 195.672466 70.374223 194.502618 72.43685 
Q 193.33277 74.499476 191.793497 76.346605 
L 187.545101 80.410287 
L 185.328547 81.333851 
" clip-path="url(#p2b3ad71d32)" style="fill: none; stroke: #000000; stroke-linejoin: miter"/>
   </g>
  </g>
  <g id="axes_7">
   <g id="patch_8">
    <path d="M 238.251568 71.574339 
L 240.823068 73.900935 
M 234.863718 75.778539 
Q 236.863774 77.53369 239.802632 81.023583 
Q 242.741489 84.513477 244.966041 87.391109 
Q 247.190594 90.26874 249.496781 92.432066 
Q 251.802968 94.595392 253.109127 94.432122 
M 246.904871 70.798807 
Q 246.904871 74.14584 246.129339 77.880638 
Q 245.353807 81.615437 243.884378 85.10533 
Q 242.41495 88.595224 239.904675 91.064681 
Q 237.394401 93.534138 234.373908 93.942312 
M 226.251232 69.819188 
Q 226.414502 69.982458 227.802296 71.288617 
Q 229.19009 72.594776 230.047256 73.002951 
M 220.740873 81.370532 
Q 222.210302 81.003175 224.82262 80.003147 
Q 227.434938 79.003119 228.986002 78.676579 
Q 229.312542 78.676579 229.332951 78.758214 
Q 229.353359 78.839849 229.353359 79.288841 
Q 228.332923 89.003399 227.843113 92.595336 
Q 227.598208 94.513757 228.292105 94.30967 
Q 229.19009 93.98313 230.659518 91.248359 
L 232.496305 88.799311 
" clip-path="url(#pb15ebb313c)" style="fill: none; stroke: #000000; stroke-linejoin: miter"/>
   </g>
  </g>
  <g id="axes_8">
   <g id="patch_9">
    <path d="M 270.085283 83.125552 
Q 270.169634 83.294255 270.760097 83.842541 
Q 271.350559 84.390828 271.603614 84.643883 
Q 271.856669 84.896938 272.404955 85.529576 
Q 272.953241 86.162214 273.290648 86.541797 
Q 273.628055 86.921379 274.134166 87.596193 
Q 274.640276 88.271007 274.935507 88.734941 
Q 275.230738 89.198876 275.568145 89.87369 
Q 275.905552 90.548503 276.116431 91.09679 
Q 276.32731 91.645076 276.496014 92.277714 
Q 276.664717 92.910352 276.664717 93.500814 
Q 276.664717 94.76609 276.32731 95.862662 
Q 275.989903 96.959234 275.357266 98.182334 
Q 274.724628 99.405434 274.387221 100.333303 
L 271.856669 102.863855 
" clip-path="url(#p42196bf46d)" style="fill: none; stroke: #000000; stroke-linejoin: miter"/>
   </g>
  </g>
 </g>
 <defs>
  <clipPath id="p6608334891">
   <rect x="0" y="40.555227" width="36.45" height="80.079545"/>
  </clipPath>
  <clipPath id="p71b4312b22">
   <rect x="36.45" y="44.394658" width="36.45" height="72.400685"/>
  </clipPath>
  <clipPath id="p4a473105a6">
   <rect x="72.9" y="31.475576" width="36.45" height="98.238848"/>
  </clipPath>
  <clipPath id="p9426f08638">
   <rect x="109.35" y="48.601961" width="36.45" height="63.986077"/>
  </clipPath>
  <clipPath id="pb9bf32e6fa">
   <rect x="145.8" y="43.164051" width="36.45" height="74.861898"/>
  </clipPath>
  <clipPath id="p2b3ad71d32">
   <rect x="182.25" y="35.956064" width="36.45" height="89.277872"/>
  </clipPath>
  <clipPath id="pb15ebb313c">
   <rect x="218.7" y="51.002335" width="36.45" height="59.18533"/>
  </clipPath>
  <clipPath id="p42196bf46d">
   <rect x="265.867697" y="19.44" width="15.014607" height="122.31"/>
  </clipPath>
 </defs>
</svg>
