<?xml version="1.0" encoding="utf-8" standalone="no"?>
<!DOCTYPE svg PUBLIC "-//W3C//DTD SVG 1.1//EN"
  "http://www.w3.org/Graphics/SVG/1.1/DTD/svg11.dtd">
<svg xmlns:xlink="http://www.w3.org/1999/xlink" width="846pt" height="72pt" viewBox="0 0 846 72" xmlns="http://www.w3.org/2000/svg" version="1.1">
 <metadata>
  <rdf:RDF xmlns:dc="http://purl.org/dc/elements/1.1/" xmlns:cc="http://creativecommons.org/ns#" xmlns:rdf="http://www.w3.org/1999/02/22-rdf-syntax-ns#">
   <cc:Work>
    <dc:type rdf:resource="http://purl.org/dc/dcmitype/StillImage"/>
    <dc:date>2023-02-15T23:06:00.747020</dc:date>
    <dc:format>image/svg+xml</dc:format>
    <dc:creator>
     <cc:Agent>
      <dc:title>Matplotlib v3.6.1, https://matplotlib.org/</dc:title>
     </cc:Agent>
    </dc:creator>
   </cc:Work>
  </rdf:RDF>
 </metadata>
 <defs>
  <style type="text/css">*{stroke-linejoin: round; stroke-linecap: butt}</style>
 </defs>
 <g id="figure_1">
  <g id="patch_1">
   <path d="M 0 72 
L 846 72 
L 846 0 
L 0 0 
z
" style="fill: #8fff9f"/>
  </g>
  <g id="axes_1">
   <g id="patch_2">
    <path d="M 3.657476 43.917766 
Q 3.957393 44.180193 4.969614 45.154924 
Q 5.981834 46.129655 6.544179 46.560786 
Q 7.106524 46.991917 8.13749 47.385559 
Q 9.168455 47.7792 10.180676 47.629241 
Q 10.85549 47.629241 11.32411 47.404303 
Q 11.792731 47.179366 12.017669 46.879448 
Q 12.242607 46.579531 12.373821 45.979697 
Q 12.505034 45.379862 12.523779 44.967476 
Q 12.542524 44.55509 12.542524 43.805297 
Q 12.542524 42.718097 11.642772 42.043283 
Q 10.743021 41.368469 9.449628 41.031062 
Q 8.156234 40.693655 6.862841 40.300014 
Q 5.569448 39.906372 4.669697 38.987876 
Q 3.769945 38.069379 3.769945 36.607283 
Q 3.769945 36.082428 3.938648 35.726276 
Q 4.107352 35.370124 4.500993 35.145186 
Q 4.894634 34.920248 5.175807 34.807779 
Q 5.456979 34.69531 6.113048 34.639076 
Q 6.769117 34.582841 6.956566 34.582841 
Q 7.144014 34.582841 7.818828 34.582841 
Q 9.018497 34.582841 9.599586 34.995228 
Q 10.180676 35.407614 10.499338 36.026193 
Q 10.818 36.644772 11.080428 36.832221 
" clip-path="url(#pb267d0b5b2)" style="fill: none; stroke: #000000; stroke-linejoin: miter"/>
   </g>
  </g>
  <g id="axes_2">
   <g id="patch_3">
    <path d="M 19.688772 35.145186 
Q 19.688772 35.145186 19.688772 35.595062 
Q 19.688772 36.269876 19.576303 37.619503 
Q 19.463834 38.969131 19.463834 39.643945 
Q 19.463834 41.930814 20.700993 43.599103 
Q 21.938152 45.267393 24.075062 45.267393 
Q 25.462179 45.154924 26.230717 43.917766 
Q 26.999255 42.680607 27.149214 41.237255 
Q 27.299172 39.793903 27.5616 37.9944 
Q 27.824028 36.194897 28.236414 35.370124 
Q 28.386372 35.070207 28.386372 35.670041 
Q 28.386372 36.269876 28.123945 38.706703 
Q 27.899007 41.031062 27.899007 41.555917 
Q 27.749048 42.643117 28.086455 43.767807 
Q 28.423862 44.892497 29.136166 45.6048 
" clip-path="url(#p0d32f4b61a)" style="fill: none; stroke: #000000; stroke-linejoin: miter"/>
   </g>
  </g>
  <g id="axes_3">
   <g id="patch_4">
    <path d="M 45.756735 34.365306 
Q 45.756735 34.365306 45.260816 34.365306 
Q 44.467347 34.365306 42.979592 34.067755 
Q 41.491837 33.770204 40.698367 33.770204 
Q 37.921224 33.770204 35.987143 35.224898 
Q 34.053061 36.679592 34.053061 39.423673 
Q 34.053061 40.94449 35.540816 42.399184 
Q 37.028571 43.853878 38.962653 44.663878 
Q 40.896735 45.473878 42.38449 45.473878 
Q 43.310204 45.473878 44.00449 45.110204 
Q 44.698776 44.746531 45.442653 44.118367 
Q 46.186531 43.490204 46.748571 43.192653 
L 46.946939 42.696735 
" clip-path="url(#p1d61c6db58)" style="fill: none; stroke: #000000; stroke-linejoin: miter"/>
   </g>
  </g>
  <g id="axes_4">
   <g id="patch_5">
    <path d="M 61.956735 34.365306 
Q 61.956735 34.365306 61.460816 34.365306 
Q 60.667347 34.365306 59.179592 34.067755 
Q 57.691837 33.770204 56.898367 33.770204 
Q 54.121224 33.770204 52.187143 35.224898 
Q 50.253061 36.679592 50.253061 39.423673 
Q 50.253061 40.94449 51.740816 42.399184 
Q 53.228571 43.853878 55.162653 44.663878 
Q 57.096735 45.473878 58.58449 45.473878 
Q 59.510204 45.473878 60.20449 45.110204 
Q 60.898776 44.746531 61.642653 44.118367 
Q 62.386531 43.490204 62.948571 43.192653 
L 63.146939 42.696735 
" clip-path="url(#p8e3ae04962)" style="fill: none; stroke: #000000; stroke-linejoin: miter"/>
   </g>
  </g>
  <g id="axes_5">
   <g id="patch_6">
    <path d="M 66.657798 38.160826 
Q 69.630275 39.535596 74.349083 39.721376 
Q 75.872477 39.721376 76.559862 38.550963 
Q 77.247248 37.38055 77.247248 35.82 
Q 77.247248 35.299817 77.154358 34.909679 
Q 77.061468 34.519541 76.819954 34.296606 
Q 76.57844 34.07367 76.411239 33.943624 
Q 76.244037 33.813578 75.798165 33.757844 
Q 75.352294 33.70211 75.147936 33.683532 
Q 74.943578 33.664954 74.367661 33.683532 
Q 73.791743 33.70211 73.568807 33.70211 
Q 71.525229 33.70211 70.038991 35.578486 
Q 68.552752 37.454862 68.552752 39.609908 
Q 68.552752 42.619541 70.484862 44.570229 
Q 72.416972 46.520917 75.463761 46.520917 
Q 77.618807 46.818165 79.142202 44.29156 
" clip-path="url(#pa26641fe5b)" style="fill: none; stroke: #000000; stroke-linejoin: miter"/>
   </g>
  </g>
  <g id="axes_6">
   <g id="patch_7">
    <path d="M 84.657476 43.917766 
Q 84.957393 44.180193 85.969614 45.154924 
Q 86.981834 46.129655 87.544179 46.560786 
Q 88.106524 46.991917 89.13749 47.385559 
Q 90.168455 47.7792 91.180676 47.629241 
Q 91.85549 47.629241 92.32411 47.404303 
Q 92.792731 47.179366 93.017669 46.879448 
Q 93.242607 46.579531 93.373821 45.979697 
Q 93.505034 45.379862 93.523779 44.967476 
Q 93.542524 44.55509 93.542524 43.805297 
Q 93.542524 42.718097 92.642772 42.043283 
Q 91.743021 41.368469 90.449628 41.031062 
Q 89.156234 40.693655 87.862841 40.300014 
Q 86.569448 39.906372 85.669697 38.987876 
Q 84.769945 38.069379 84.769945 36.607283 
Q 84.769945 36.082428 84.938648 35.726276 
Q 85.107352 35.370124 85.500993 35.145186 
Q 85.894634 34.920248 86.175807 34.807779 
Q 86.456979 34.69531 87.113048 34.639076 
Q 87.769117 34.582841 87.956566 34.582841 
Q 88.144014 34.582841 88.818828 34.582841 
Q 90.018497 34.582841 90.599586 34.995228 
Q 91.180676 35.407614 91.499338 36.026193 
Q 91.818 36.644772 92.080428 36.832221 
" clip-path="url(#pdb448de731)" style="fill: none; stroke: #000000; stroke-linejoin: miter"/>
   </g>
  </g>
  <g id="axes_7">
   <g id="patch_8">
    <path d="M 100.857476 43.917766 
Q 101.157393 44.180193 102.169614 45.154924 
Q 103.181834 46.129655 103.744179 46.560786 
Q 104.306524 46.991917 105.33749 47.385559 
Q 106.368455 47.7792 107.380676 47.629241 
Q 108.05549 47.629241 108.52411 47.404303 
Q 108.992731 47.179366 109.217669 46.879448 
Q 109.442607 46.579531 109.573821 45.979697 
Q 109.705034 45.379862 109.723779 44.967476 
Q 109.742524 44.55509 109.742524 43.805297 
Q 109.742524 42.718097 108.842772 42.043283 
Q 107.943021 41.368469 106.649628 41.031062 
Q 105.356234 40.693655 104.062841 40.300014 
Q 102.769448 39.906372 101.869697 38.987876 
Q 100.969945 38.069379 100.969945 36.607283 
Q 100.969945 36.082428 101.138648 35.726276 
Q 101.307352 35.370124 101.700993 35.145186 
Q 102.094634 34.920248 102.375807 34.807779 
Q 102.656979 34.69531 103.313048 34.639076 
Q 103.969117 34.582841 104.156566 34.582841 
Q 104.344014 34.582841 105.018828 34.582841 
Q 106.218497 34.582841 106.799586 34.995228 
Q 107.380676 35.407614 107.699338 36.026193 
Q 108.018 36.644772 108.280428 36.832221 
" clip-path="url(#p5d90f6a74a)" style="fill: none; stroke: #000000; stroke-linejoin: miter"/>
   </g>
  </g>
  <g id="axes_8">
   <g id="patch_9">
    <path d="M 115.184141 38.85304 
L 115.612335 38.85304 
Q 116.43304 38.85304 117.396476 38.745991 
Q 118.359912 38.638943 119.519604 38.460529 
Q 120.679295 38.282115 121.285903 38.210749 
L 127.815859 35.427489 
M 127.494714 25.793128 
Q 127.209251 25.721762 126.174449 25.275727 
Q 125.139648 24.829692 124.497357 24.93674 
Q 123.855066 24.93674 123.337665 25.150837 
Q 122.820264 25.364934 122.481278 25.793128 
Q 122.142291 26.221322 121.87467 26.685198 
Q 121.607048 27.149075 121.464317 27.862731 
Q 121.321586 28.576388 121.214537 29.129471 
Q 121.107489 29.682555 121.089648 30.50326 
Q 121.071806 31.323965 121.053965 31.77 
Q 121.036123 32.216035 121.053965 32.965374 
Q 121.071806 33.714714 121.071806 33.928811 
Q 121.071806 36.605022 121.767621 41.850396 
Q 122.463436 47.095771 122.463436 49.771982 
Q 122.39207 50.057445 122.356388 50.681894 
Q 122.320705 51.306344 122.213656 51.805903 
Q 122.106608 52.305463 121.821145 52.555242 
" clip-path="url(#p0994cefda3)" style="fill: none; stroke: #000000; stroke-linejoin: miter"/>
   </g>
  </g>
  <g id="axes_9">
   <g id="patch_10">
    <path d="M 133.088772 35.145186 
Q 133.088772 35.145186 133.088772 35.595062 
Q 133.088772 36.269876 132.976303 37.619503 
Q 132.863834 38.969131 132.863834 39.643945 
Q 132.863834 41.930814 134.100993 43.599103 
Q 135.338152 45.267393 137.475062 45.267393 
Q 138.862179 45.154924 139.630717 43.917766 
Q 140.399255 42.680607 140.549214 41.237255 
Q 140.699172 39.793903 140.9616 37.9944 
Q 141.224028 36.194897 141.636414 35.370124 
Q 141.786372 35.070207 141.786372 35.670041 
Q 141.786372 36.269876 141.523945 38.706703 
Q 141.299007 41.031062 141.299007 41.555917 
Q 141.149048 42.643117 141.486455 43.767807 
Q 141.823862 44.892497 142.536166 45.6048 
" clip-path="url(#p7515412279)" style="fill: none; stroke: #000000; stroke-linejoin: miter"/>
   </g>
  </g>
  <g id="axes_10">
   <g id="patch_11">
    <path d="M 153.506359 28.621986 
Q 153.731297 30.34651 153.806276 32.146014 
Q 153.881255 33.945517 153.86251 36.551048 
Q 153.843766 39.156579 153.843766 40.093821 
Q 153.843766 40.13131 154.068703 45.829738 
L 154.293641 46.841959 
" clip-path="url(#p4d691c477f)" style="fill: none; stroke: #000000; stroke-linejoin: miter"/>
   </g>
  </g>
  <g id="axes_11">
   <g id="patch_12">
    <path d="M 169.706359 28.621986 
Q 169.931297 30.34651 170.006276 32.146014 
Q 170.081255 33.945517 170.06251 36.551048 
Q 170.043766 39.156579 170.043766 40.093821 
Q 170.043766 40.13131 170.268703 45.829738 
L 170.493641 46.841959 
" clip-path="url(#p4f58dbcec4)" style="fill: none; stroke: #000000; stroke-linejoin: miter"/>
   </g>
  </g>
  <g id="axes_12">
   <g id="patch_13">
    <path d="M 181.163917 36.382345 
Q 181.126428 36.494814 181.257641 36.701007 
Q 181.388855 36.9072 181.276386 37.057159 
L 181.276386 39.306538 
Q 181.276386 40.506207 181.613793 41.724621 
Q 181.9512 42.943034 182.813462 43.93651 
Q 183.675724 44.929986 184.875393 44.929986 
Q 186.112552 44.929986 186.787366 43.861531 
Q 187.462179 42.793076 187.912055 41.143531 
Q 188.361931 39.493986 188.699338 38.969131 
L 189.486621 36.382345 
L 189.261683 42.680607 
L 189.261683 45.154924 
Q 189.261683 47.066897 189.992731 51.00331 
Q 190.723779 54.939724 190.723779 56.964166 
Q 191.473572 59.213545 190.386372 60.188276 
Q 189.299172 61.163007 187.237241 60.78811 
Q 185.437738 60.488193 184.519241 60.169531 
Q 183.600745 59.850869 181.613793 58.988607 
L 181.501324 58.426262 
" clip-path="url(#pfbee06648e)" style="fill: none; stroke: #000000; stroke-linejoin: miter"/>
   </g>
  </g>
  <g id="axes_13"/>
  <g id="axes_14">
   <g id="patch_14">
    <path d="M 223.956735 34.365306 
Q 223.956735 34.365306 223.460816 34.365306 
Q 222.667347 34.365306 221.179592 34.067755 
Q 219.691837 33.770204 218.898367 33.770204 
Q 216.121224 33.770204 214.187143 35.224898 
Q 212.253061 36.679592 212.253061 39.423673 
Q 212.253061 40.94449 213.740816 42.399184 
Q 215.228571 43.853878 217.162653 44.663878 
Q 219.096735 45.473878 220.58449 45.473878 
Q 221.510204 45.473878 222.20449 45.110204 
Q 222.898776 44.746531 223.642653 44.118367 
Q 224.386531 43.490204 224.948571 43.192653 
L 225.146939 42.696735 
" clip-path="url(#pcf9948f29b)" style="fill: none; stroke: #000000; stroke-linejoin: miter"/>
   </g>
  </g>
  <g id="axes_15">
   <g id="patch_15">
    <path d="M 238.1616 35.032717 
Q 237.11189 34.582841 236.137159 34.69531 
Q 233.100497 35.032717 231.188524 36.701007 
Q 229.276552 38.369297 229.276552 41.330979 
Q 229.276552 43.917766 231.282248 45.6048 
Q 233.287945 47.291834 235.912221 47.291834 
Q 238.274069 47.291834 239.398759 45.361117 
Q 240.523448 43.4304 240.523448 40.881103 
Q 240.523448 39.643945 240.111062 38.706703 
Q 239.698676 37.769462 239.173821 37.300841 
Q 238.648966 36.832221 237.899172 36.119917 
Q 237.149379 35.407614 236.699503 34.69531 
L 235.462345 34.245434 
" clip-path="url(#p5c0ef7a950)" style="fill: none; stroke: #000000; stroke-linejoin: miter"/>
   </g>
  </g>
  <g id="axes_16">
   <g id="patch_16">
    <path d="M 244.808036 34.879821 
Q 245.314286 36.073125 245.603571 42.871339 
Q 245.748214 46.632054 246.0375 46.632054 
Q 246.073661 46.632054 246.109821 46.595893 
Q 246.616071 46.017321 246.670313 44.588973 
Q 246.724554 43.160625 246.507589 41.750357 
Q 246.290625 40.340089 246.0375 38.712857 
Q 245.784375 37.085625 245.784375 36.398571 
Q 245.784375 35.169107 246.164063 33.939643 
Q 246.54375 32.710179 247.520089 32.710179 
Q 248.749554 32.710179 249.472768 34.355491 
Q 250.195982 36.000804 250.358705 37.971562 
Q 250.521429 39.942321 250.629911 41.587634 
Q 250.738393 43.232946 250.883036 43.232946 
Q 251.027679 43.232946 251.11808 41.497232 
Q 251.208482 39.761518 251.335045 37.700357 
Q 251.461607 35.639196 252.184821 33.903482 
Q 252.908036 32.167768 254.1375 32.167768 
Q 255.692411 33.035625 256.361384 34.771339 
Q 257.030357 36.507054 256.994196 38.188527 
Q 256.958036 39.87 256.976116 42.057723 
Q 256.994196 44.245446 257.391964 45.511071 
" clip-path="url(#p72d4cf06b8)" style="fill: none; stroke: #000000; stroke-linejoin: miter"/>
   </g>
  </g>
  <g id="axes_17">
   <g id="patch_17">
    <path d="M 262.520069 39.868883 
L 262.520069 39.419007 
Q 262.520069 37.769462 264.263338 36.682262 
Q 266.006607 35.595062 267.693641 35.595062 
Q 269.905531 35.595062 271.273903 36.794731 
Q 272.642276 37.9944 272.642276 40.20629 
Q 272.642276 42.30571 270.824028 43.336676 
Q 269.005779 44.367641 266.79389 44.367641 
Q 266.119076 44.367641 265.612966 44.255172 
Q 265.106855 44.142703 264.488276 43.917766 
Q 263.869697 43.692828 263.419821 43.580359 
L 262.295131 42.568138 
M 261.957724 36.832221 
Q 262.4076 38.444276 262.670028 40.262524 
Q 262.932455 42.080772 262.98869 43.749062 
Q 263.044924 45.417352 263.082414 47.27309 
Q 263.119903 49.128828 263.082414 50.778372 
L 262.969945 57.863917 
" clip-path="url(#p95dda4d979)" style="fill: none; stroke: #000000; stroke-linejoin: miter"/>
   </g>
  </g>
  <g id="axes_18">
   <g id="patch_18">
    <path d="M 283.106359 28.621986 
Q 283.331297 30.34651 283.406276 32.146014 
Q 283.481255 33.945517 283.46251 36.551048 
Q 283.443766 39.156579 283.443766 40.093821 
Q 283.443766 40.13131 283.668703 45.829738 
L 283.893641 46.841959 
" clip-path="url(#p7a92cb2430)" style="fill: none; stroke: #000000; stroke-linejoin: miter"/>
   </g>
  </g>
  <g id="axes_19">
   <g id="patch_19">
    <path d="M 293.457798 38.160826 
Q 296.430275 39.535596 301.149083 39.721376 
Q 302.672477 39.721376 303.359862 38.550963 
Q 304.047248 37.38055 304.047248 35.82 
Q 304.047248 35.299817 303.954358 34.909679 
Q 303.861468 34.519541 303.619954 34.296606 
Q 303.37844 34.07367 303.211239 33.943624 
Q 303.044037 33.813578 302.598165 33.757844 
Q 302.152294 33.70211 301.947936 33.683532 
Q 301.743578 33.664954 301.167661 33.683532 
Q 300.591743 33.70211 300.368807 33.70211 
Q 298.325229 33.70211 296.838991 35.578486 
Q 295.352752 37.454862 295.352752 39.609908 
Q 295.352752 42.619541 297.284862 44.570229 
Q 299.216972 46.520917 302.263761 46.520917 
Q 304.418807 46.818165 305.942202 44.29156 
" clip-path="url(#p424e504148)" style="fill: none; stroke: #000000; stroke-linejoin: miter"/>
   </g>
  </g>
  <g id="axes_20">
   <g id="patch_20">
    <path d="M 311.063834 37.95691 
L 311.738648 37.95691 
Q 312.450952 37.95691 313.238234 37.881931 
Q 314.025517 37.806952 314.981503 37.675738 
Q 315.93749 37.544524 316.462345 37.507034 
L 320.736166 35.82 
M 316.687283 30.42149 
L 316.687283 31.43371 
Q 316.687283 33.383172 316.012469 37.207117 
Q 315.337655 41.031062 315.337655 43.018014 
Q 315.337655 43.805297 315.337655 44.105214 
Q 315.337655 44.405131 315.431379 45.042455 
Q 315.525103 45.679779 315.712552 45.960952 
Q 315.9 46.242124 316.293641 46.485807 
Q 316.687283 46.72949 317.249628 46.72949 
Q 317.362097 46.692 317.680759 46.72949 
Q 317.999421 46.766979 318.186869 46.710745 
Q 318.374317 46.65451 318.374317 46.392083 
" clip-path="url(#p617229c0b7)" style="fill: none; stroke: #000000; stroke-linejoin: miter"/>
   </g>
  </g>
  <g id="axes_21">
   <g id="patch_21">
    <path d="M 325.857798 38.160826 
Q 328.830275 39.535596 333.549083 39.721376 
Q 335.072477 39.721376 335.759862 38.550963 
Q 336.447248 37.38055 336.447248 35.82 
Q 336.447248 35.299817 336.354358 34.909679 
Q 336.261468 34.519541 336.019954 34.296606 
Q 335.77844 34.07367 335.611239 33.943624 
Q 335.444037 33.813578 334.998165 33.757844 
Q 334.552294 33.70211 334.347936 33.683532 
Q 334.143578 33.664954 333.567661 33.683532 
Q 332.991743 33.70211 332.768807 33.70211 
Q 330.725229 33.70211 329.238991 35.578486 
Q 327.752752 37.454862 327.752752 39.609908 
Q 327.752752 42.619541 329.684862 44.570229 
Q 331.616972 46.520917 334.663761 46.520917 
Q 336.818807 46.818165 338.342202 44.29156 
" clip-path="url(#p572b9e243e)" style="fill: none; stroke: #000000; stroke-linejoin: miter"/>
   </g>
  </g>
  <g id="axes_22">
   <g id="patch_22">
    <path d="M 351.899007 39.568966 
Q 350.549379 38.181848 348.3 38.444276 
Q 345.450786 38.444276 344.288607 39.793903 
Q 343.126428 41.143531 343.126428 44.067724 
Q 343.126428 45.56731 344.419821 46.279614 
Q 345.713214 46.991917 347.287779 46.991917 
Q 348.599917 46.991917 349.612138 45.736014 
Q 350.624359 44.48011 351.205448 42.30571 
Q 351.786538 40.13131 352.161434 37.938166 
Q 352.536331 35.745021 352.68629 33.045766 
Q 352.836248 30.34651 352.873738 28.978138 
Q 352.911228 27.609766 352.911228 26.185159 
Q 352.68629 26.260138 352.68629 29.896634 
L 352.68629 44.292662 
L 353.473572 48.229076 
" clip-path="url(#pf298c7c72b)" style="fill: none; stroke: #000000; stroke-linejoin: miter"/>
   </g>
  </g>
  <g id="axes_23"/>
  <g id="axes_24">
   <g id="patch_23">
    <path d="M 375.863834 37.95691 
L 376.538648 37.95691 
Q 377.250952 37.95691 378.038234 37.881931 
Q 378.825517 37.806952 379.781503 37.675738 
Q 380.73749 37.544524 381.262345 37.507034 
L 385.536166 35.82 
M 381.487283 30.42149 
L 381.487283 31.43371 
Q 381.487283 33.383172 380.812469 37.207117 
Q 380.137655 41.031062 380.137655 43.018014 
Q 380.137655 43.805297 380.137655 44.105214 
Q 380.137655 44.405131 380.231379 45.042455 
Q 380.325103 45.679779 380.512552 45.960952 
Q 380.7 46.242124 381.093641 46.485807 
Q 381.487283 46.72949 382.049628 46.72949 
Q 382.162097 46.692 382.480759 46.72949 
Q 382.799421 46.766979 382.986869 46.710745 
Q 383.174317 46.65451 383.174317 46.392083 
" clip-path="url(#p6f704d6e6e)" style="fill: none; stroke: #000000; stroke-linejoin: miter"/>
   </g>
  </g>
  <g id="axes_25">
   <g id="patch_24">
    <path d="M 393.413462 35.932469 
Q 394.013297 35.257655 395.006772 34.826524 
Q 396.000248 34.395393 396.9 34.470372 
Q 397.537324 34.470372 398.02469 34.639076 
Q 398.512055 34.807779 398.830717 34.995228 
Q 399.149379 35.182676 399.374317 35.670041 
Q 399.599255 36.157407 399.711724 36.419834 
Q 399.824193 36.682262 399.880428 37.375821 
Q 399.936662 38.069379 399.955407 38.331807 
Q 399.974152 38.594234 399.955407 39.419007 
Q 399.936662 40.243779 399.936662 40.431228 
Q 399.936662 41.368469 399.767959 43.242952 
Q 399.599255 45.117434 399.599255 46.054676 
Q 399.599255 46.467062 399.65549 46.823214 
Q 399.711724 47.179366 399.805448 47.610497 
Q 399.899172 48.041628 399.936662 48.304055 
L 400.386538 48.528993 
M 393.863338 23.111007 
Q 394.088276 24.798041 394.088276 29.971614 
L 394.088276 42.3432 
L 393.750869 46.841959 
L 393.525931 47.74171 
" clip-path="url(#p71b589e017)" style="fill: none; stroke: #000000; stroke-linejoin: miter"/>
   </g>
  </g>
  <g id="axes_26">
   <g id="patch_25">
    <path d="M 406.857798 38.160826 
Q 409.830275 39.535596 414.549083 39.721376 
Q 416.072477 39.721376 416.759862 38.550963 
Q 417.447248 37.38055 417.447248 35.82 
Q 417.447248 35.299817 417.354358 34.909679 
Q 417.261468 34.519541 417.019954 34.296606 
Q 416.77844 34.07367 416.611239 33.943624 
Q 416.444037 33.813578 415.998165 33.757844 
Q 415.552294 33.70211 415.347936 33.683532 
Q 415.143578 33.664954 414.567661 33.683532 
Q 413.991743 33.70211 413.768807 33.70211 
Q 411.725229 33.70211 410.238991 35.578486 
Q 408.752752 37.454862 408.752752 39.609908 
Q 408.752752 42.619541 410.684862 44.570229 
Q 412.616972 46.520917 415.663761 46.520917 
Q 417.818807 46.818165 419.342202 44.29156 
" clip-path="url(#p8a94dced5c)" style="fill: none; stroke: #000000; stroke-linejoin: miter"/>
   </g>
  </g>
  <g id="axes_27"/>
  <g id="axes_28">
   <g id="patch_26">
    <path d="M 450.287191 39.096404 
Q 450.03236 39.023596 449.06764 38.623146 
Q 448.102921 38.222697 447.44764 38.077079 
Q 446.79236 37.931461 446.137079 38.00427 
Q 443.515955 38.00427 441.877753 40.388764 
Q 440.239551 42.773258 440.239551 45.430787 
Q 440.239551 47.068989 445.481798 47.068989 
Q 447.047191 47.068989 448.375955 45.558202 
Q 449.704719 44.047416 450.378202 42.172584 
Q 451.051685 40.297753 451.051685 38.768764 
Q 451.051685 37.27618 451.015281 36.984944 
L 450.942472 38.077079 
Q 450.942472 38.550337 450.942472 38.987191 
Q 450.978876 40.188539 451.179101 42.281798 
Q 451.379326 44.375056 451.543146 46.049663 
Q 451.706966 47.72427 451.743371 49.872135 
Q 451.779775 52.02 451.615955 53.658202 
Q 451.452135 55.296404 450.887865 56.971011 
Q 450.323596 58.645618 449.395281 59.737753 
Q 448.466966 60.829888 446.865169 61.521573 
Q 445.263371 62.213258 443.115506 62.213258 
Q 441.477303 62.213258 440.385169 61.466966 
Q 439.293034 60.720674 439.293034 59.155281 
Q 439.220225 58.936854 439.256629 58.936854 
Q 439.293034 58.936854 439.402247 58.936854 
Q 439.511461 58.936854 439.511461 58.82764 
" clip-path="url(#pd4da0e37b8)" style="fill: none; stroke: #000000; stroke-linejoin: miter"/>
   </g>
  </g>
  <g id="axes_29">
   <g id="patch_27">
    <path d="M 455.457798 38.160826 
Q 458.430275 39.535596 463.149083 39.721376 
Q 464.672477 39.721376 465.359862 38.550963 
Q 466.047248 37.38055 466.047248 35.82 
Q 466.047248 35.299817 465.954358 34.909679 
Q 465.861468 34.519541 465.619954 34.296606 
Q 465.37844 34.07367 465.211239 33.943624 
Q 465.044037 33.813578 464.598165 33.757844 
Q 464.152294 33.70211 463.947936 33.683532 
Q 463.743578 33.664954 463.167661 33.683532 
Q 462.591743 33.70211 462.368807 33.70211 
Q 460.325229 33.70211 458.838991 35.578486 
Q 457.352752 37.454862 457.352752 39.609908 
Q 457.352752 42.619541 459.284862 44.570229 
Q 461.216972 46.520917 464.263761 46.520917 
Q 466.418807 46.818165 467.942202 44.29156 
" clip-path="url(#p3937f95606)" style="fill: none; stroke: #000000; stroke-linejoin: miter"/>
   </g>
  </g>
  <g id="axes_30">
   <g id="patch_28">
    <path d="M 473.438731 37.282097 
L 473.438731 37.844441 
Q 473.701159 39.868883 473.738648 41.312234 
Q 473.776138 42.755586 473.682414 44.667559 
Q 473.58869 46.579531 473.58869 48.191586 
L 473.663669 39.643945 
Q 473.663669 38.144359 475.256979 37.507034 
Q 476.85029 36.86971 478.274897 37.282097 
Q 480.186869 37.844441 481.105366 39.04411 
Q 482.023862 40.243779 482.080097 41.668386 
Q 482.136331 43.092993 482.173821 44.817517 
Q 482.21131 46.542041 482.361269 48.191586 
" clip-path="url(#pb7f4b53f88)" style="fill: none; stroke: #000000; stroke-linejoin: miter"/>
   </g>
  </g>
  <g id="axes_31">
   <g id="patch_29">
    <path d="M 487.857798 38.160826 
Q 490.830275 39.535596 495.549083 39.721376 
Q 497.072477 39.721376 497.759862 38.550963 
Q 498.447248 37.38055 498.447248 35.82 
Q 498.447248 35.299817 498.354358 34.909679 
Q 498.261468 34.519541 498.019954 34.296606 
Q 497.77844 34.07367 497.611239 33.943624 
Q 497.444037 33.813578 496.998165 33.757844 
Q 496.552294 33.70211 496.347936 33.683532 
Q 496.143578 33.664954 495.567661 33.683532 
Q 494.991743 33.70211 494.768807 33.70211 
Q 492.725229 33.70211 491.238991 35.578486 
Q 489.752752 37.454862 489.752752 39.609908 
Q 489.752752 42.619541 491.684862 44.570229 
Q 493.616972 46.520917 496.663761 46.520917 
Q 498.818807 46.818165 500.342202 44.29156 
" clip-path="url(#pe6b6db0c7f)" style="fill: none; stroke: #000000; stroke-linejoin: miter"/>
   </g>
  </g>
  <g id="axes_32">
   <g id="patch_30">
    <path d="M 505.463834 37.95691 
L 506.138648 37.95691 
Q 506.850952 37.95691 507.638234 37.881931 
Q 508.425517 37.806952 509.381503 37.675738 
Q 510.33749 37.544524 510.862345 37.507034 
L 515.136166 35.82 
M 511.087283 30.42149 
L 511.087283 31.43371 
Q 511.087283 33.383172 510.412469 37.207117 
Q 509.737655 41.031062 509.737655 43.018014 
Q 509.737655 43.805297 509.737655 44.105214 
Q 509.737655 44.405131 509.831379 45.042455 
Q 509.925103 45.679779 510.112552 45.960952 
Q 510.3 46.242124 510.693641 46.485807 
Q 511.087283 46.72949 511.649628 46.72949 
Q 511.762097 46.692 512.080759 46.72949 
Q 512.399421 46.766979 512.586869 46.710745 
Q 512.774317 46.65451 512.774317 46.392083 
" clip-path="url(#pcb44fe9a5a)" style="fill: none; stroke: #000000; stroke-linejoin: miter"/>
   </g>
  </g>
  <g id="axes_33">
   <g id="patch_31">
    <path d="M 527.118579 29.071862 
Q 526.743683 29.146841 526.612469 29.577972 
Q 526.481255 30.009103 526.556234 30.42149 
Q 526.556234 30.571448 526.593724 30.702662 
Q 526.631214 30.833876 526.687448 30.89011 
Q 526.743683 30.946345 526.799917 31.040069 
Q 526.856152 31.133793 526.893641 31.208772 
L 527.00611 29.859145 
M 527.00611 34.020497 
Q 526.106359 39.006621 525.881421 42.793076 
L 526.331297 45.379862 
L 526.668703 46.054676 
" clip-path="url(#pfbbbf12b20)" style="fill: none; stroke: #000000; stroke-linejoin: miter"/>
   </g>
  </g>
  <g id="axes_34">
   <g id="patch_32">
    <path d="M 547.956735 34.365306 
Q 547.956735 34.365306 547.460816 34.365306 
Q 546.667347 34.365306 545.179592 34.067755 
Q 543.691837 33.770204 542.898367 33.770204 
Q 540.121224 33.770204 538.187143 35.224898 
Q 536.253061 36.679592 536.253061 39.423673 
Q 536.253061 40.94449 537.740816 42.399184 
Q 539.228571 43.853878 541.162653 44.663878 
Q 543.096735 45.473878 544.58449 45.473878 
Q 545.510204 45.473878 546.20449 45.110204 
Q 546.898776 44.746531 547.642653 44.118367 
Q 548.386531 43.490204 548.948571 43.192653 
L 549.146939 42.696735 
" clip-path="url(#pa3a7de67b0)" style="fill: none; stroke: #000000; stroke-linejoin: miter"/>
   </g>
  </g>
  <g id="axes_35">
   <g id="patch_33">
    <path d="M 554.457476 43.917766 
Q 554.757393 44.180193 555.769614 45.154924 
Q 556.781834 46.129655 557.344179 46.560786 
Q 557.906524 46.991917 558.93749 47.385559 
Q 559.968455 47.7792 560.980676 47.629241 
Q 561.65549 47.629241 562.12411 47.404303 
Q 562.592731 47.179366 562.817669 46.879448 
Q 563.042607 46.579531 563.173821 45.979697 
Q 563.305034 45.379862 563.323779 44.967476 
Q 563.342524 44.55509 563.342524 43.805297 
Q 563.342524 42.718097 562.442772 42.043283 
Q 561.543021 41.368469 560.249628 41.031062 
Q 558.956234 40.693655 557.662841 40.300014 
Q 556.369448 39.906372 555.469697 38.987876 
Q 554.569945 38.069379 554.569945 36.607283 
Q 554.569945 36.082428 554.738648 35.726276 
Q 554.907352 35.370124 555.300993 35.145186 
Q 555.694634 34.920248 555.975807 34.807779 
Q 556.256979 34.69531 556.913048 34.639076 
Q 557.569117 34.582841 557.756566 34.582841 
Q 557.944014 34.582841 558.618828 34.582841 
Q 559.818497 34.582841 560.399586 34.995228 
Q 560.980676 35.407614 561.299338 36.026193 
Q 561.618 36.644772 561.880428 36.832221 
" clip-path="url(#p58b56ce047)" style="fill: none; stroke: #000000; stroke-linejoin: miter"/>
   </g>
  </g>
  <g id="axes_36"/>
  <g id="axes_37">
   <g id="patch_34">
    <path d="M 585.057798 38.160826 
Q 588.030275 39.535596 592.749083 39.721376 
Q 594.272477 39.721376 594.959862 38.550963 
Q 595.647248 37.38055 595.647248 35.82 
Q 595.647248 35.299817 595.554358 34.909679 
Q 595.461468 34.519541 595.219954 34.296606 
Q 594.97844 34.07367 594.811239 33.943624 
Q 594.644037 33.813578 594.198165 33.757844 
Q 593.752294 33.70211 593.547936 33.683532 
Q 593.343578 33.664954 592.767661 33.683532 
Q 592.191743 33.70211 591.968807 33.70211 
Q 589.925229 33.70211 588.438991 35.578486 
Q 586.952752 37.454862 586.952752 39.609908 
Q 586.952752 42.619541 588.884862 44.570229 
Q 590.816972 46.520917 593.863761 46.520917 
Q 596.018807 46.818165 597.542202 44.29156 
" clip-path="url(#pf518c6940f)" style="fill: none; stroke: #000000; stroke-linejoin: miter"/>
   </g>
  </g>
  <g id="axes_38">
   <g id="patch_35">
    <path d="M 611.099007 34.920248 
Q 610.236745 36.007448 607.125103 40.018841 
Q 604.013462 44.030234 602.326428 46.054676 
M 603.226179 36.044938 
Q 605.100662 37.319586 607.593724 40.843614 
Q 610.086786 44.367641 611.661352 45.6048 
L 612.673572 45.942207 
" clip-path="url(#p2530dcd543)" style="fill: none; stroke: #000000; stroke-linejoin: miter"/>
   </g>
  </g>
  <g id="axes_39">
   <g id="patch_36">
    <path d="M 618.920069 39.868883 
L 618.920069 39.419007 
Q 618.920069 37.769462 620.663338 36.682262 
Q 622.406607 35.595062 624.093641 35.595062 
Q 626.305531 35.595062 627.673903 36.794731 
Q 629.042276 37.9944 629.042276 40.20629 
Q 629.042276 42.30571 627.224028 43.336676 
Q 625.405779 44.367641 623.19389 44.367641 
Q 622.519076 44.367641 622.012966 44.255172 
Q 621.506855 44.142703 620.888276 43.917766 
Q 620.269697 43.692828 619.819821 43.580359 
L 618.695131 42.568138 
M 618.357724 36.832221 
Q 618.8076 38.444276 619.070028 40.262524 
Q 619.332455 42.080772 619.38869 43.749062 
Q 619.444924 45.417352 619.482414 47.27309 
Q 619.519903 49.128828 619.482414 50.778372 
L 619.369945 57.863917 
" clip-path="url(#p71e262fc73)" style="fill: none; stroke: #000000; stroke-linejoin: miter"/>
   </g>
  </g>
  <g id="axes_40">
   <g id="patch_37">
    <path d="M 633.657798 38.160826 
Q 636.630275 39.535596 641.349083 39.721376 
Q 642.872477 39.721376 643.559862 38.550963 
Q 644.247248 37.38055 644.247248 35.82 
Q 644.247248 35.299817 644.154358 34.909679 
Q 644.061468 34.519541 643.819954 34.296606 
Q 643.57844 34.07367 643.411239 33.943624 
Q 643.244037 33.813578 642.798165 33.757844 
Q 642.352294 33.70211 642.147936 33.683532 
Q 641.943578 33.664954 641.367661 33.683532 
Q 640.791743 33.70211 640.568807 33.70211 
Q 638.525229 33.70211 637.038991 35.578486 
Q 635.552752 37.454862 635.552752 39.609908 
Q 635.552752 42.619541 637.484862 44.570229 
Q 639.416972 46.520917 642.463761 46.520917 
Q 644.618807 46.818165 646.142202 44.29156 
" clip-path="url(#p1cf9692621)" style="fill: none; stroke: #000000; stroke-linejoin: miter"/>
   </g>
  </g>
  <g id="axes_41">
   <g id="patch_38">
    <path d="M 652.613462 32.783338 
Q 653.138317 34.507862 653.269531 36.457324 
Q 653.400745 38.406786 653.325766 40.956083 
Q 653.250786 43.505379 653.288276 44.705048 
L 653.400745 46.054676 
L 653.400745 45.829738 
Q 653.400745 44.667559 653.119572 42.30571 
Q 652.8384 39.943862 652.8384 38.744193 
Q 652.8384 36.419834 653.850621 34.882759 
Q 654.862841 33.345683 656.887283 33.345683 
Q 657.599586 33.345683 657.936993 33.626855 
Q 658.2744 33.908028 658.536828 34.432883 
Q 658.799255 34.957738 659.136662 35.257655 
L 659.586538 36.832221 
" clip-path="url(#p55064f687b)" style="fill: none; stroke: #000000; stroke-linejoin: miter"/>
   </g>
  </g>
  <g id="axes_42">
   <g id="patch_39">
    <path d="M 672.918579 29.071862 
Q 672.543683 29.146841 672.412469 29.577972 
Q 672.281255 30.009103 672.356234 30.42149 
Q 672.356234 30.571448 672.393724 30.702662 
Q 672.431214 30.833876 672.487448 30.89011 
Q 672.543683 30.946345 672.599917 31.040069 
Q 672.656152 31.133793 672.693641 31.208772 
L 672.80611 29.859145 
M 672.80611 34.020497 
Q 671.906359 39.006621 671.681421 42.793076 
L 672.131297 45.379862 
L 672.468703 46.054676 
" clip-path="url(#pb9cabf6d66)" style="fill: none; stroke: #000000; stroke-linejoin: miter"/>
   </g>
  </g>
  <g id="axes_43">
   <g id="patch_40">
    <path d="M 682.208036 34.879821 
Q 682.714286 36.073125 683.003571 42.871339 
Q 683.148214 46.632054 683.4375 46.632054 
Q 683.473661 46.632054 683.509821 46.595893 
Q 684.016071 46.017321 684.070312 44.588973 
Q 684.124554 43.160625 683.907589 41.750357 
Q 683.690625 40.340089 683.4375 38.712857 
Q 683.184375 37.085625 683.184375 36.398571 
Q 683.184375 35.169107 683.564062 33.939643 
Q 683.94375 32.710179 684.920089 32.710179 
Q 686.149554 32.710179 686.872768 34.355491 
Q 687.595982 36.000804 687.758705 37.971562 
Q 687.921429 39.942321 688.029911 41.587634 
Q 688.138393 43.232946 688.283036 43.232946 
Q 688.427679 43.232946 688.51808 41.497232 
Q 688.608482 39.761518 688.735045 37.700357 
Q 688.861607 35.639196 689.584821 33.903482 
Q 690.308036 32.167768 691.5375 32.167768 
Q 693.092411 33.035625 693.761384 34.771339 
Q 694.430357 36.507054 694.394196 38.188527 
Q 694.358036 39.87 694.376116 42.057723 
Q 694.394196 44.245446 694.791964 45.511071 
" clip-path="url(#pf11a786eb7)" style="fill: none; stroke: #000000; stroke-linejoin: miter"/>
   </g>
  </g>
  <g id="axes_44">
   <g id="patch_41">
    <path d="M 698.457798 38.160826 
Q 701.430275 39.535596 706.149083 39.721376 
Q 707.672477 39.721376 708.359862 38.550963 
Q 709.047248 37.38055 709.047248 35.82 
Q 709.047248 35.299817 708.954358 34.909679 
Q 708.861468 34.519541 708.619954 34.296606 
Q 708.37844 34.07367 708.211239 33.943624 
Q 708.044037 33.813578 707.598165 33.757844 
Q 707.152294 33.70211 706.947936 33.683532 
Q 706.743578 33.664954 706.167661 33.683532 
Q 705.591743 33.70211 705.368807 33.70211 
Q 703.325229 33.70211 701.838991 35.578486 
Q 700.352752 37.454862 700.352752 39.609908 
Q 700.352752 42.619541 702.284862 44.570229 
Q 704.216972 46.520917 707.263761 46.520917 
Q 709.418807 46.818165 710.942202 44.29156 
" clip-path="url(#p282bbedb02)" style="fill: none; stroke: #000000; stroke-linejoin: miter"/>
   </g>
  </g>
  <g id="axes_45">
   <g id="patch_42">
    <path d="M 716.438731 37.282097 
L 716.438731 37.844441 
Q 716.701159 39.868883 716.738648 41.312234 
Q 716.776138 42.755586 716.682414 44.667559 
Q 716.58869 46.579531 716.58869 48.191586 
L 716.663669 39.643945 
Q 716.663669 38.144359 718.256979 37.507034 
Q 719.85029 36.86971 721.274897 37.282097 
Q 723.186869 37.844441 724.105366 39.04411 
Q 725.023862 40.243779 725.080097 41.668386 
Q 725.136331 43.092993 725.173821 44.817517 
Q 725.21131 46.542041 725.361269 48.191586 
" clip-path="url(#pe9dbabad47)" style="fill: none; stroke: #000000; stroke-linejoin: miter"/>
   </g>
  </g>
  <g id="axes_46">
   <g id="patch_43">
    <path d="M 732.263834 37.95691 
L 732.938648 37.95691 
Q 733.650952 37.95691 734.438234 37.881931 
Q 735.225517 37.806952 736.181503 37.675738 
Q 737.13749 37.544524 737.662345 37.507034 
L 741.936166 35.82 
M 737.887283 30.42149 
L 737.887283 31.43371 
Q 737.887283 33.383172 737.212469 37.207117 
Q 736.537655 41.031062 736.537655 43.018014 
Q 736.537655 43.805297 736.537655 44.105214 
Q 736.537655 44.405131 736.631379 45.042455 
Q 736.725103 45.679779 736.912552 45.960952 
Q 737.1 46.242124 737.493641 46.485807 
Q 737.887283 46.72949 738.449628 46.72949 
Q 738.562097 46.692 738.880759 46.72949 
Q 739.199421 46.766979 739.386869 46.710745 
Q 739.574317 46.65451 739.574317 46.392083 
" clip-path="url(#p69f00c053d)" style="fill: none; stroke: #000000; stroke-linejoin: miter"/>
   </g>
  </g>
  <g id="axes_47">
   <g id="patch_44">
    <path d="M 752.587697 39.981352 
Q 753.599917 40.956083 753.937324 42.905545 
Q 754.124772 43.955255 753.712386 46.167145 
L 752.475228 47.629241 
" clip-path="url(#pa68cf9d119)" style="fill: none; stroke: #000000; stroke-linejoin: miter"/>
   </g>
  </g>
 </g>
 <defs>
  <clipPath id="pb267d0b5b2">
   <rect x="1.782993" y="8.64" width="12.634014" height="54.36"/>
  </clipPath>
  <clipPath id="p0d32f4b61a">
   <rect x="17.589352" y="8.64" width="13.421297" height="54.36"/>
  </clipPath>
  <clipPath id="p1d61c6db58">
   <rect x="32.4" y="11.850612" width="16.2" height="47.938776"/>
  </clipPath>
  <clipPath id="p8e3ae04962">
   <rect x="48.6" y="11.850612" width="16.2" height="47.938776"/>
  </clipPath>
  <clipPath id="pa26641fe5b">
   <rect x="64.8" y="8.881927" width="16.2" height="53.876147"/>
  </clipPath>
  <clipPath id="pdb448de731">
   <rect x="82.782993" y="8.64" width="12.634014" height="54.36"/>
  </clipPath>
  <clipPath id="p5d90f6a74a">
   <rect x="98.982993" y="8.64" width="12.634014" height="54.36"/>
  </clipPath>
  <clipPath id="p0994cefda3">
   <rect x="113.4" y="9.949956" width="16.2" height="51.740088"/>
  </clipPath>
  <clipPath id="p7515412279">
   <rect x="130.989352" y="8.64" width="13.421297" height="54.36"/>
  </clipPath>
  <clipPath id="p4d691c477f">
   <rect x="151.631876" y="8.64" width="4.536248" height="54.36"/>
  </clipPath>
  <clipPath id="p4f58dbcec4">
   <rect x="167.831876" y="8.64" width="4.536248" height="54.36"/>
  </clipPath>
  <clipPath id="pfbee06648e">
   <rect x="179.251945" y="8.64" width="14.09611" height="54.36"/>
  </clipPath>
  <clipPath id="pcf9948f29b">
   <rect x="210.6" y="11.850612" width="16.2" height="47.938776"/>
  </clipPath>
  <clipPath id="p5c0ef7a950">
   <rect x="227.402069" y="8.64" width="14.995862" height="54.36"/>
  </clipPath>
  <clipPath id="p72d4cf06b8">
   <rect x="243" y="9.603482" width="16.2" height="52.433036"/>
  </clipPath>
  <clipPath id="p95dda4d979">
   <rect x="260.083241" y="8.64" width="14.433517" height="54.36"/>
  </clipPath>
  <clipPath id="p7a92cb2430">
   <rect x="281.231876" y="8.64" width="4.536248" height="54.36"/>
  </clipPath>
  <clipPath id="p424e504148">
   <rect x="291.6" y="8.881927" width="16.2" height="53.876147"/>
  </clipPath>
  <clipPath id="p617229c0b7">
   <rect x="309.189352" y="8.64" width="13.421297" height="54.36"/>
  </clipPath>
  <clipPath id="p572b9e243e">
   <rect x="324" y="8.881927" width="16.2" height="53.876147"/>
  </clipPath>
  <clipPath id="pf298c7c72b">
   <rect x="341.251945" y="8.64" width="14.09611" height="54.36"/>
  </clipPath>
  <clipPath id="p6f704d6e6e">
   <rect x="373.989352" y="8.64" width="13.421297" height="54.36"/>
  </clipPath>
  <clipPath id="p71b589e017">
   <rect x="391.538979" y="8.64" width="10.722041" height="54.36"/>
  </clipPath>
  <clipPath id="p8a94dced5c">
   <rect x="405" y="8.881927" width="16.2" height="53.876147"/>
  </clipPath>
  <clipPath id="pd4da0e37b8">
   <rect x="437.4" y="9.426742" width="16.2" height="52.786517"/>
  </clipPath>
  <clipPath id="p3937f95606">
   <rect x="453.6" y="8.881927" width="16.2" height="53.876147"/>
  </clipPath>
  <clipPath id="pb7f4b53f88">
   <rect x="471.564248" y="8.64" width="12.671503" height="54.36"/>
  </clipPath>
  <clipPath id="pe6b6db0c7f">
   <rect x="486" y="8.881927" width="16.2" height="53.876147"/>
  </clipPath>
  <clipPath id="pcb44fe9a5a">
   <rect x="503.589352" y="8.64" width="13.421297" height="54.36"/>
  </clipPath>
  <clipPath id="pfbbbf12b20">
   <rect x="524.006938" y="8.64" width="4.986124" height="54.36"/>
  </clipPath>
  <clipPath id="pa3a7de67b0">
   <rect x="534.6" y="11.850612" width="16.2" height="47.938776"/>
  </clipPath>
  <clipPath id="p58b56ce047">
   <rect x="552.582993" y="8.64" width="12.634014" height="54.36"/>
  </clipPath>
  <clipPath id="pf518c6940f">
   <rect x="583.2" y="8.881927" width="16.2" height="53.876147"/>
  </clipPath>
  <clipPath id="p2530dcd543">
   <rect x="600.451945" y="8.64" width="14.09611" height="54.36"/>
  </clipPath>
  <clipPath id="p71e262fc73">
   <rect x="616.483241" y="8.64" width="14.433517" height="54.36"/>
  </clipPath>
  <clipPath id="p1cf9692621">
   <rect x="631.8" y="8.881927" width="16.2" height="53.876147"/>
  </clipPath>
  <clipPath id="p55064f687b">
   <rect x="650.738979" y="8.64" width="10.722041" height="54.36"/>
  </clipPath>
  <clipPath id="pb9cabf6d66">
   <rect x="669.806938" y="8.64" width="4.986124" height="54.36"/>
  </clipPath>
  <clipPath id="pf11a786eb7">
   <rect x="680.4" y="9.603482" width="16.2" height="52.433036"/>
  </clipPath>
  <clipPath id="p282bbedb02">
   <rect x="696.6" y="8.881927" width="16.2" height="53.876147"/>
  </clipPath>
  <clipPath id="pe9dbabad47">
   <rect x="714.564248" y="8.64" width="12.671503" height="54.36"/>
  </clipPath>
  <clipPath id="p69f00c053d">
   <rect x="730.389352" y="8.64" width="13.421297" height="54.36"/>
  </clipPath>
  <clipPath id="pa68cf9d119">
   <rect x="750.600745" y="8.64" width="5.39851" height="54.36"/>
  </clipPath>
 </defs>
</svg>
