<?xml version="1.0" encoding="utf-8" standalone="no"?>
<!DOCTYPE svg PUBLIC "-//W3C//DTD SVG 1.1//EN"
  "http://www.w3.org/Graphics/SVG/1.1/DTD/svg11.dtd">
<svg xmlns:xlink="http://www.w3.org/1999/xlink" width="648pt" height="72pt" viewBox="0 0 648 72" xmlns="http://www.w3.org/2000/svg" version="1.1">
 <metadata>
  <rdf:RDF xmlns:dc="http://purl.org/dc/elements/1.1/" xmlns:cc="http://creativecommons.org/ns#" xmlns:rdf="http://www.w3.org/1999/02/22-rdf-syntax-ns#">
   <cc:Work>
    <dc:type rdf:resource="http://purl.org/dc/dcmitype/StillImage"/>
    <dc:date>2023-02-15T23:06:10.111758</dc:date>
    <dc:format>image/svg+xml</dc:format>
    <dc:creator>
     <cc:Agent>
      <dc:title>Matplotlib v3.6.1, https://matplotlib.org/</dc:title>
     </cc:Agent>
    </dc:creator>
   </cc:Work>
  </rdf:RDF>
 </metadata>
 <defs>
  <style type="text/css">*{stroke-linejoin: round; stroke-linecap: butt}</style>
 </defs>
 <g id="figure_1">
  <g id="patch_1">
   <path d="M 0 72 
L 648 72 
L 648 0 
L 0 0 
z
" style="fill: #8fff9f"/>
  </g>
  <g id="axes_1">
   <g id="patch_2">
    <path d="M 1.653061 45.374694 
Q 5.752653 45.440816 12.761633 45.870612 
Q 13.191429 45.903673 13.373265 45.887143 
Q 13.555102 45.870612 13.951837 45.787959 
Q 14.348571 45.705306 14.546939 45.672245 
M 3.24 27.521633 
L 3.24 29.406122 
Q 3.24 31.588163 3.025102 33.985102 
Q 2.810204 36.382041 2.446531 39.291429 
Q 2.082857 42.200816 1.950612 43.787755 
L 1.653061 45.374694 
" clip-path="url(#p7261340510)" style="fill: none; stroke: #000000; stroke-linejoin: miter"/>
   </g>
  </g>
  <g id="axes_2">
   <g id="patch_3">
    <path d="M 21.600745 33.345683 
L 21.600745 33.570621 
Q 21.600745 34.545352 22.575476 35.969959 
Q 23.550207 37.394566 24.524938 37.394566 
Q 24.899834 37.394566 25.255986 36.9072 
Q 25.612138 36.419834 25.9308 35.726276 
Q 26.249462 35.032717 26.324441 34.920248 
L 26.999255 31.771117 
M 24.562428 39.419007 
L 24.112552 47.291834 
L 23.775145 47.74171 
" clip-path="url(#p83524d5c85)" style="fill: none; stroke: #000000; stroke-linejoin: miter"/>
   </g>
  </g>
  <g id="axes_3"/>
  <g id="axes_4">
   <g id="patch_4">
    <path d="M 62.494615 26.878846 
Q 61.746923 28.997308 60.282692 31.271538 
Q 58.818462 33.545769 57.400962 35.228077 
Q 55.983462 36.910385 54.456923 39.153462 
Q 52.930385 41.396538 52.120385 43.421538 
L 51.559615 45.290769 
M 50.157692 27.439615 
Q 51.777692 29.620385 55.126731 34.776346 
Q 58.475769 39.932308 60.531923 42.486923 
L 63.242308 46.131923 
" clip-path="url(#p557ddfebf5)" style="fill: none; stroke: #000000; stroke-linejoin: miter"/>
   </g>
  </g>
  <g id="axes_5">
   <g id="patch_5">
    <path d="M 68.288772 35.145186 
Q 68.288772 35.145186 68.288772 35.595062 
Q 68.288772 36.269876 68.176303 37.619503 
Q 68.063834 38.969131 68.063834 39.643945 
Q 68.063834 41.930814 69.300993 43.599103 
Q 70.538152 45.267393 72.675062 45.267393 
Q 74.062179 45.154924 74.830717 43.917766 
Q 75.599255 42.680607 75.749214 41.237255 
Q 75.899172 39.793903 76.1616 37.9944 
Q 76.424028 36.194897 76.836414 35.370124 
Q 76.986372 35.070207 76.986372 35.670041 
Q 76.986372 36.269876 76.723945 38.706703 
Q 76.499007 41.031062 76.499007 41.555917 
Q 76.349048 42.643117 76.686455 43.767807 
Q 77.023862 44.892497 77.736166 45.6048 
" clip-path="url(#p947665587c)" style="fill: none; stroke: #000000; stroke-linejoin: miter"/>
   </g>
  </g>
  <g id="axes_6">
   <g id="patch_6">
    <path d="M 86.288276 30.608938 
Q 86.400745 30.871366 86.663172 31.602414 
Q 86.9256 32.333462 87.131793 32.783338 
Q 87.337986 33.233214 87.675393 33.758069 
Q 88.0128 34.282924 88.51891 34.507862 
Q 89.025021 34.7328 89.662345 34.657821 
Q 92.474069 34.657821 92.811476 29.25931 
M 83.926428 41.968303 
L 84.376303 41.968303 
Q 84.938648 41.968303 86.400745 42.474414 
Q 87.862841 42.980524 88.650124 42.980524 
Q 91.011972 42.980524 92.305366 42.211986 
Q 93.598759 41.443448 93.598759 39.269048 
Q 93.598759 37.132138 88.312717 37.132138 
Q 87.225517 37.132138 86.456979 37.694483 
Q 85.688441 38.256828 85.313545 39.194069 
Q 84.938648 40.13131 84.769945 41.049807 
Q 84.601241 41.968303 84.601241 42.980524 
Q 84.338814 44.105214 84.71371 44.967476 
Q 85.088607 45.829738 86.025848 46.335848 
Q 86.96309 46.841959 87.806607 47.123131 
Q 88.650124 47.404303 89.774814 47.591752 
Q 90.374648 47.704221 92.3616 47.704221 
Q 92.811476 47.81669 93.148883 47.573007 
Q 93.48629 47.329324 93.823697 46.748234 
Q 94.161103 46.167145 94.273572 46.017186 
" clip-path="url(#pce70bc272e)" style="fill: none; stroke: #000000; stroke-linejoin: miter"/>
   </g>
  </g>
  <g id="axes_7"/>
  <g id="axes_8">
   <g id="patch_7">
    <path d="M 116.6076 35.032717 
Q 116.6076 35.032717 119.981669 35.032717 
Q 120.094138 35.032717 121.837407 34.826524 
Q 123.580676 34.620331 124.592897 34.789034 
Q 125.605117 34.957738 125.605117 35.707531 
Q 125.605117 36.86971 124.592897 38.144359 
Q 123.580676 39.419007 122.118579 40.506207 
Q 120.656483 41.593407 119.194386 42.605628 
Q 117.73229 43.617848 116.720069 44.573834 
Q 115.707848 45.529821 115.707848 46.279614 
L 116.832538 46.279614 
Q 116.870028 46.279614 119.081917 46.054676 
L 127.292152 45.942207 
" clip-path="url(#pf49fb1ea79)" style="fill: none; stroke: #000000; stroke-linejoin: miter"/>
   </g>
  </g>
  <g id="axes_9">
   <g id="patch_8">
    <path d="M 134.213462 29.784166 
Q 135.188193 30.271531 136.481586 31.827352 
Q 137.774979 33.383172 138.262345 33.833048 
L 138.937159 34.507862 
M 141.973821 37.432055 
Q 140.661683 36.94469 139.611972 36.982179 
Q 139.349545 36.982179 138.449793 37.000924 
Q 137.550041 37.019669 137.11891 37.038414 
Q 136.687779 37.057159 135.825517 37.169628 
Q 134.963255 37.282097 134.494634 37.41331 
Q 134.026014 37.544524 133.38869 37.844441 
Q 132.751366 38.144359 132.432703 38.538 
Q 132.114041 38.931641 131.870359 39.550221 
Q 131.626676 40.1688 131.626676 40.918593 
Q 131.626676 42.830566 133.238731 44.348897 
Q 134.850786 45.867228 136.800248 45.867228 
Q 138.149876 45.867228 139.012138 45.323628 
Q 139.8744 44.780028 140.286786 43.842786 
Q 140.699172 42.905545 140.92411 41.912069 
Q 141.149048 40.918593 141.486455 39.756414 
Q 141.823862 38.594234 142.311228 37.881931 
L 142.761103 43.842786 
L 143.773324 46.991917 
" clip-path="url(#pb9d34ac340)" style="fill: none; stroke: #000000; stroke-linejoin: miter"/>
   </g>
  </g>
  <g id="axes_10">
   <g id="patch_9">
    <path d="M 154.518579 29.071862 
Q 154.143683 29.146841 154.012469 29.577972 
Q 153.881255 30.009103 153.956234 30.42149 
Q 153.956234 30.571448 153.993724 30.702662 
Q 154.031214 30.833876 154.087448 30.89011 
Q 154.143683 30.946345 154.199917 31.040069 
Q 154.256152 31.133793 154.293641 31.208772 
L 154.40611 29.859145 
M 154.40611 34.020497 
Q 153.506359 39.006621 153.281421 42.793076 
L 153.731297 45.379862 
L 154.068703 46.054676 
" clip-path="url(#pe1428f699c)" style="fill: none; stroke: #000000; stroke-linejoin: miter"/>
   </g>
  </g>
  <g id="axes_11"/>
  <g id="axes_12">
   <g id="patch_10">
    <path d="M 181.163917 36.382345 
Q 181.126428 36.494814 181.257641 36.701007 
Q 181.388855 36.9072 181.276386 37.057159 
L 181.276386 39.306538 
Q 181.276386 40.506207 181.613793 41.724621 
Q 181.9512 42.943034 182.813462 43.93651 
Q 183.675724 44.929986 184.875393 44.929986 
Q 186.112552 44.929986 186.787366 43.861531 
Q 187.462179 42.793076 187.912055 41.143531 
Q 188.361931 39.493986 188.699338 38.969131 
L 189.486621 36.382345 
L 189.261683 42.680607 
L 189.261683 45.154924 
Q 189.261683 47.066897 189.992731 51.00331 
Q 190.723779 54.939724 190.723779 56.964166 
Q 191.473572 59.213545 190.386372 60.188276 
Q 189.299172 61.163007 187.237241 60.78811 
Q 185.437738 60.488193 184.519241 60.169531 
Q 183.600745 59.850869 181.613793 58.988607 
L 181.501324 58.426262 
" clip-path="url(#pc97bf558c1)" style="fill: none; stroke: #000000; stroke-linejoin: miter"/>
   </g>
  </g>
  <g id="axes_13">
   <g id="patch_11">
    <path d="M 200.475559 35.557572 
Q 200.925434 35.145186 202.406276 34.057986 
Q 203.887117 32.970786 204.524441 32.183503 
M 200.812966 38.03189 
Q 200.775476 38.144359 200.794221 39.212814 
Q 200.812966 40.281269 200.812966 40.393738 
Q 200.812966 41.518428 201.075393 42.568138 
Q 201.337821 43.617848 201.768952 44.892497 
Q 202.200083 46.167145 202.387531 46.916938 
L 202.837407 47.366814 
" clip-path="url(#p892b0f091d)" style="fill: none; stroke: #000000; stroke-linejoin: miter"/>
   </g>
  </g>
  <g id="axes_14">
   <g id="patch_12">
    <path d="M 223.956735 34.365306 
Q 223.956735 34.365306 223.460816 34.365306 
Q 222.667347 34.365306 221.179592 34.067755 
Q 219.691837 33.770204 218.898367 33.770204 
Q 216.121224 33.770204 214.187143 35.224898 
Q 212.253061 36.679592 212.253061 39.423673 
Q 212.253061 40.94449 213.740816 42.399184 
Q 215.228571 43.853878 217.162653 44.663878 
Q 219.096735 45.473878 220.58449 45.473878 
Q 221.510204 45.473878 222.20449 45.110204 
Q 222.898776 44.746531 223.642653 44.118367 
Q 224.386531 43.490204 224.948571 43.192653 
L 225.146939 42.696735 
" clip-path="url(#p3c02144755)" style="fill: none; stroke: #000000; stroke-linejoin: miter"/>
   </g>
  </g>
  <g id="axes_15">
   <g id="patch_13">
    <path d="M 231.413462 35.932469 
Q 232.013297 35.257655 233.006772 34.826524 
Q 234.000248 34.395393 234.9 34.470372 
Q 235.537324 34.470372 236.02469 34.639076 
Q 236.512055 34.807779 236.830717 34.995228 
Q 237.149379 35.182676 237.374317 35.670041 
Q 237.599255 36.157407 237.711724 36.419834 
Q 237.824193 36.682262 237.880428 37.375821 
Q 237.936662 38.069379 237.955407 38.331807 
Q 237.974152 38.594234 237.955407 39.419007 
Q 237.936662 40.243779 237.936662 40.431228 
Q 237.936662 41.368469 237.767959 43.242952 
Q 237.599255 45.117434 237.599255 46.054676 
Q 237.599255 46.467062 237.65549 46.823214 
Q 237.711724 47.179366 237.805448 47.610497 
Q 237.899172 48.041628 237.936662 48.304055 
L 238.386538 48.528993 
M 231.863338 23.111007 
Q 232.088276 24.798041 232.088276 29.971614 
L 232.088276 42.3432 
L 231.750869 46.841959 
L 231.525931 47.74171 
" clip-path="url(#p749d60252b)" style="fill: none; stroke: #000000; stroke-linejoin: miter"/>
   </g>
  </g>
  <g id="axes_16">
   <g id="patch_14">
    <path d="M 246.488772 35.145186 
Q 246.488772 35.145186 246.488772 35.595062 
Q 246.488772 36.269876 246.376303 37.619503 
Q 246.263834 38.969131 246.263834 39.643945 
Q 246.263834 41.930814 247.500993 43.599103 
Q 248.738152 45.267393 250.875062 45.267393 
Q 252.262179 45.154924 253.030717 43.917766 
Q 253.799255 42.680607 253.949214 41.237255 
Q 254.099172 39.793903 254.3616 37.9944 
Q 254.624028 36.194897 255.036414 35.370124 
Q 255.186372 35.070207 255.186372 35.670041 
Q 255.186372 36.269876 254.923945 38.706703 
Q 254.699007 41.031062 254.699007 41.555917 
Q 254.549048 42.643117 254.886455 43.767807 
Q 255.223862 44.892497 255.936166 45.6048 
" clip-path="url(#p11b68b31c1)" style="fill: none; stroke: #000000; stroke-linejoin: miter"/>
   </g>
  </g>
  <g id="axes_17">
   <g id="patch_15">
    <path d="M 264.319572 33.795559 
L 264.319572 33.570621 
Q 264.319572 33.383172 264.375807 33.289448 
Q 264.432041 33.195724 264.507021 33.13949 
Q 264.582 33.083255 264.731959 32.989531 
Q 264.881917 32.895807 264.994386 32.783338 
L 269.155738 28.059641 
M 271.06771 37.619503 
L 267.918579 37.619503 
Q 267.80611 37.656993 267.543683 37.731972 
Q 264.319572 38.669214 263.419821 39.381517 
Q 261.882745 40.731145 261.845255 44.142703 
Q 261.845255 45.267393 262.707517 46.167145 
Q 263.569779 47.066897 264.656979 47.066897 
Q 265.519241 46.954428 266.306524 46.485807 
Q 267.093807 46.017186 267.599917 45.473586 
Q 268.106028 44.929986 268.649628 43.93651 
Q 269.193228 42.943034 269.4744 42.324455 
Q 269.755572 41.705876 270.205448 40.543697 
Q 270.655324 39.381517 270.842772 38.969131 
Q 271.180179 38.144359 271.292648 38.200593 
Q 271.405117 38.256828 271.292648 39.456497 
L 271.180179 40.993572 
Q 271.180179 41.031062 271.517586 44.705048 
L 272.754745 47.066897 
" clip-path="url(#p40efea628c)" style="fill: none; stroke: #000000; stroke-linejoin: miter"/>
   </g>
  </g>
  <g id="axes_18">
   <g id="patch_16">
    <path d="M 279.038731 37.282097 
L 279.038731 37.844441 
Q 279.301159 39.868883 279.338648 41.312234 
Q 279.376138 42.755586 279.282414 44.667559 
Q 279.18869 46.579531 279.18869 48.191586 
L 279.263669 39.643945 
Q 279.263669 38.144359 280.856979 37.507034 
Q 282.45029 36.86971 283.874897 37.282097 
Q 285.786869 37.844441 286.705366 39.04411 
Q 287.623862 40.243779 287.680097 41.668386 
Q 287.736331 43.092993 287.773821 44.817517 
Q 287.81131 46.542041 287.961269 48.191586 
" clip-path="url(#p9bf4f1f9c2)" style="fill: none; stroke: #000000; stroke-linejoin: miter"/>
   </g>
  </g>
  <g id="axes_19"/>
  <g id="axes_20">
   <g id="patch_17">
    <path d="M 319.499007 34.920248 
Q 318.636745 36.007448 315.525103 40.018841 
Q 312.413462 44.030234 310.726428 46.054676 
M 311.626179 36.044938 
Q 313.500662 37.319586 315.993724 40.843614 
Q 318.486786 44.367641 320.061352 45.6048 
L 321.073572 45.942207 
" clip-path="url(#p15bb47b024)" style="fill: none; stroke: #000000; stroke-linejoin: miter"/>
   </g>
  </g>
  <g id="axes_21">
   <g id="patch_18">
    <path d="M 327.488772 35.145186 
Q 327.488772 35.145186 327.488772 35.595062 
Q 327.488772 36.269876 327.376303 37.619503 
Q 327.263834 38.969131 327.263834 39.643945 
Q 327.263834 41.930814 328.500993 43.599103 
Q 329.738152 45.267393 331.875062 45.267393 
Q 333.262179 45.154924 334.030717 43.917766 
Q 334.799255 42.680607 334.949214 41.237255 
Q 335.099172 39.793903 335.3616 37.9944 
Q 335.624028 36.194897 336.036414 35.370124 
Q 336.186372 35.070207 336.186372 35.670041 
Q 336.186372 36.269876 335.923945 38.706703 
Q 335.699007 41.031062 335.699007 41.555917 
Q 335.549048 42.643117 335.886455 43.767807 
Q 336.223862 44.892497 336.936166 45.6048 
" clip-path="url(#p75a0c14b28)" style="fill: none; stroke: #000000; stroke-linejoin: miter"/>
   </g>
  </g>
  <g id="axes_22">
   <g id="patch_19">
    <path d="M 345.0384 34.357903 
Q 345.300828 34.395393 345.638234 33.795559 
Q 345.975641 33.195724 346.500497 33.345683 
L 350.999255 29.2968 
M 344.138648 40.656166 
L 344.363586 40.656166 
Q 345.07589 40.656166 346.63171 41.330979 
Q 348.187531 42.005793 349.087283 42.005793 
Q 351.786538 42.005793 351.786538 38.744193 
Q 351.786538 36.607283 348.412469 36.607283 
Q 346.537986 36.607283 345.450786 37.750717 
Q 344.363586 38.894152 344.363586 40.768634 
Q 344.363586 43.617848 345.694469 45.454841 
Q 347.025352 47.291834 349.762097 47.291834 
Q 351.224193 47.591752 352.461352 45.6048 
" clip-path="url(#p393057fdeb)" style="fill: none; stroke: #000000; stroke-linejoin: miter"/>
   </g>
  </g>
  <g id="axes_23"/>
  <g id="axes_24">
   <g id="patch_20">
    <path d="M 376.257476 43.917766 
Q 376.557393 44.180193 377.569614 45.154924 
Q 378.581834 46.129655 379.144179 46.560786 
Q 379.706524 46.991917 380.73749 47.385559 
Q 381.768455 47.7792 382.780676 47.629241 
Q 383.45549 47.629241 383.92411 47.404303 
Q 384.392731 47.179366 384.617669 46.879448 
Q 384.842607 46.579531 384.973821 45.979697 
Q 385.105034 45.379862 385.123779 44.967476 
Q 385.142524 44.55509 385.142524 43.805297 
Q 385.142524 42.718097 384.242772 42.043283 
Q 383.343021 41.368469 382.049628 41.031062 
Q 380.756234 40.693655 379.462841 40.300014 
Q 378.169448 39.906372 377.269697 38.987876 
Q 376.369945 38.069379 376.369945 36.607283 
Q 376.369945 36.082428 376.538648 35.726276 
Q 376.707352 35.370124 377.100993 35.145186 
Q 377.494634 34.920248 377.775807 34.807779 
Q 378.056979 34.69531 378.713048 34.639076 
Q 379.369117 34.582841 379.556566 34.582841 
Q 379.744014 34.582841 380.418828 34.582841 
Q 381.618497 34.582841 382.199586 34.995228 
Q 382.780676 35.407614 383.099338 36.026193 
Q 383.418 36.644772 383.680428 36.832221 
" clip-path="url(#pbcafa463de)" style="fill: none; stroke: #000000; stroke-linejoin: miter"/>
   </g>
  </g>
  <g id="axes_25">
   <g id="patch_21">
    <path d="M 393.413462 35.932469 
Q 394.013297 35.257655 395.006772 34.826524 
Q 396.000248 34.395393 396.9 34.470372 
Q 397.537324 34.470372 398.02469 34.639076 
Q 398.512055 34.807779 398.830717 34.995228 
Q 399.149379 35.182676 399.374317 35.670041 
Q 399.599255 36.157407 399.711724 36.419834 
Q 399.824193 36.682262 399.880428 37.375821 
Q 399.936662 38.069379 399.955407 38.331807 
Q 399.974152 38.594234 399.955407 39.419007 
Q 399.936662 40.243779 399.936662 40.431228 
Q 399.936662 41.368469 399.767959 43.242952 
Q 399.599255 45.117434 399.599255 46.054676 
Q 399.599255 46.467062 399.65549 46.823214 
Q 399.711724 47.179366 399.805448 47.610497 
Q 399.899172 48.041628 399.936662 48.304055 
L 400.386538 48.528993 
M 393.863338 23.111007 
Q 394.088276 24.798041 394.088276 29.971614 
L 394.088276 42.3432 
L 393.750869 46.841959 
L 393.525931 47.74171 
" clip-path="url(#p8ffd0d6982)" style="fill: none; stroke: #000000; stroke-linejoin: miter"/>
   </g>
  </g>
  <g id="axes_26">
   <g id="patch_22">
    <path d="M 411.075559 35.557572 
Q 411.525434 35.145186 413.006276 34.057986 
Q 414.487117 32.970786 415.124441 32.183503 
M 411.412966 38.03189 
Q 411.375476 38.144359 411.394221 39.212814 
Q 411.412966 40.281269 411.412966 40.393738 
Q 411.412966 41.518428 411.675393 42.568138 
Q 411.937821 43.617848 412.368952 44.892497 
Q 412.800083 46.167145 412.987531 46.916938 
L 413.437407 47.366814 
" clip-path="url(#pd1bc08ce0a)" style="fill: none; stroke: #000000; stroke-linejoin: miter"/>
   </g>
  </g>
  <g id="axes_27">
   <g id="patch_23">
    <path d="M 424.163917 36.382345 
Q 424.126428 36.494814 424.257641 36.701007 
Q 424.388855 36.9072 424.276386 37.057159 
L 424.276386 39.306538 
Q 424.276386 40.506207 424.613793 41.724621 
Q 424.9512 42.943034 425.813462 43.93651 
Q 426.675724 44.929986 427.875393 44.929986 
Q 429.112552 44.929986 429.787366 43.861531 
Q 430.462179 42.793076 430.912055 41.143531 
Q 431.361931 39.493986 431.699338 38.969131 
L 432.486621 36.382345 
L 432.261683 42.680607 
L 432.261683 45.154924 
Q 432.261683 47.066897 432.992731 51.00331 
Q 433.723779 54.939724 433.723779 56.964166 
Q 434.473572 59.213545 433.386372 60.188276 
Q 432.299172 61.163007 430.237241 60.78811 
Q 428.437738 60.488193 427.519241 60.169531 
Q 426.600745 59.850869 424.613793 58.988607 
L 424.501324 58.426262 
" clip-path="url(#p4b49573ef9)" style="fill: none; stroke: #000000; stroke-linejoin: miter"/>
   </g>
  </g>
  <g id="axes_28">
   <g id="patch_24">
    <path d="M 442.013462 29.784166 
Q 442.988193 30.271531 444.281586 31.827352 
Q 445.574979 33.383172 446.062345 33.833048 
L 446.737159 34.507862 
M 449.773821 37.432055 
Q 448.461683 36.94469 447.411972 36.982179 
Q 447.149545 36.982179 446.249793 37.000924 
Q 445.350041 37.019669 444.91891 37.038414 
Q 444.487779 37.057159 443.625517 37.169628 
Q 442.763255 37.282097 442.294634 37.41331 
Q 441.826014 37.544524 441.18869 37.844441 
Q 440.551366 38.144359 440.232703 38.538 
Q 439.914041 38.931641 439.670359 39.550221 
Q 439.426676 40.1688 439.426676 40.918593 
Q 439.426676 42.830566 441.038731 44.348897 
Q 442.650786 45.867228 444.600248 45.867228 
Q 445.949876 45.867228 446.812138 45.323628 
Q 447.6744 44.780028 448.086786 43.842786 
Q 448.499172 42.905545 448.72411 41.912069 
Q 448.949048 40.918593 449.286455 39.756414 
Q 449.623862 38.594234 450.111228 37.881931 
L 450.561103 43.842786 
L 451.573324 46.991917 
" clip-path="url(#p50f86602c3)" style="fill: none; stroke: #000000; stroke-linejoin: miter"/>
   </g>
  </g>
  <g id="axes_29">
   <g id="patch_25">
    <path d="M 457.238731 37.282097 
L 457.238731 37.844441 
Q 457.501159 39.868883 457.538648 41.312234 
Q 457.576138 42.755586 457.482414 44.667559 
Q 457.38869 46.579531 457.38869 48.191586 
L 457.463669 39.643945 
Q 457.463669 38.144359 459.056979 37.507034 
Q 460.65029 36.86971 462.074897 37.282097 
Q 463.986869 37.844441 464.905366 39.04411 
Q 465.823862 40.243779 465.880097 41.668386 
Q 465.936331 43.092993 465.973821 44.817517 
Q 466.01131 46.542041 466.161269 48.191586 
" clip-path="url(#pd563688a55)" style="fill: none; stroke: #000000; stroke-linejoin: miter"/>
   </g>
  </g>
  <g id="axes_30"/>
  <g id="axes_31">
   <g id="patch_26">
    <path d="M 489.657476 43.917766 
Q 489.957393 44.180193 490.969614 45.154924 
Q 491.981834 46.129655 492.544179 46.560786 
Q 493.106524 46.991917 494.13749 47.385559 
Q 495.168455 47.7792 496.180676 47.629241 
Q 496.85549 47.629241 497.32411 47.404303 
Q 497.792731 47.179366 498.017669 46.879448 
Q 498.242607 46.579531 498.373821 45.979697 
Q 498.505034 45.379862 498.523779 44.967476 
Q 498.542524 44.55509 498.542524 43.805297 
Q 498.542524 42.718097 497.642772 42.043283 
Q 496.743021 41.368469 495.449628 41.031062 
Q 494.156234 40.693655 492.862841 40.300014 
Q 491.569448 39.906372 490.669697 38.987876 
Q 489.769945 38.069379 489.769945 36.607283 
Q 489.769945 36.082428 489.938648 35.726276 
Q 490.107352 35.370124 490.500993 35.145186 
Q 490.894634 34.920248 491.175807 34.807779 
Q 491.456979 34.69531 492.113048 34.639076 
Q 492.769117 34.582841 492.956566 34.582841 
Q 493.144014 34.582841 493.818828 34.582841 
Q 495.018497 34.582841 495.599586 34.995228 
Q 496.180676 35.407614 496.499338 36.026193 
Q 496.818 36.644772 497.080428 36.832221 
" clip-path="url(#p080a956b94)" style="fill: none; stroke: #000000; stroke-linejoin: miter"/>
   </g>
  </g>
  <g id="axes_32">
   <g id="patch_27">
    <path d="M 506.813462 35.932469 
Q 507.413297 35.257655 508.406772 34.826524 
Q 509.400248 34.395393 510.3 34.470372 
Q 510.937324 34.470372 511.42469 34.639076 
Q 511.912055 34.807779 512.230717 34.995228 
Q 512.549379 35.182676 512.774317 35.670041 
Q 512.999255 36.157407 513.111724 36.419834 
Q 513.224193 36.682262 513.280428 37.375821 
Q 513.336662 38.069379 513.355407 38.331807 
Q 513.374152 38.594234 513.355407 39.419007 
Q 513.336662 40.243779 513.336662 40.431228 
Q 513.336662 41.368469 513.167959 43.242952 
Q 512.999255 45.117434 512.999255 46.054676 
Q 512.999255 46.467062 513.05549 46.823214 
Q 513.111724 47.179366 513.205448 47.610497 
Q 513.299172 48.041628 513.336662 48.304055 
L 513.786538 48.528993 
M 507.263338 23.111007 
Q 507.488276 24.798041 507.488276 29.971614 
L 507.488276 42.3432 
L 507.150869 46.841959 
L 506.925931 47.74171 
" clip-path="url(#pd6a64cac1f)" style="fill: none; stroke: #000000; stroke-linejoin: miter"/>
   </g>
  </g>
  <g id="axes_33">
   <g id="patch_28">
    <path d="M 524.213131 30.384 
L 527.474731 34.657821 
M 527.137324 37.019669 
L 526.874897 41.743366 
Q 526.987366 42.268221 527.118579 43.749062 
Q 527.249793 45.229903 527.5872 46.1484 
Q 527.924607 47.066897 528.786869 47.591752 
" clip-path="url(#p3e60d4d4e5)" style="fill: none; stroke: #000000; stroke-linejoin: miter"/>
   </g>
  </g>
  <g id="axes_34"/>
  <g id="axes_35">
   <g id="patch_29">
    <path d="M 558.506359 28.621986 
Q 558.731297 30.34651 558.806276 32.146014 
Q 558.881255 33.945517 558.86251 36.551048 
Q 558.843766 39.156579 558.843766 40.093821 
Q 558.843766 40.13131 559.068703 45.829738 
L 559.293641 46.841959 
" clip-path="url(#p1225c6c3eb)" style="fill: none; stroke: #000000; stroke-linejoin: miter"/>
   </g>
  </g>
  <g id="axes_36">
   <g id="patch_30">
    <path d="M 572.400745 33.345683 
L 572.400745 33.570621 
Q 572.400745 34.545352 573.375476 35.969959 
Q 574.350207 37.394566 575.324938 37.394566 
Q 575.699834 37.394566 576.055986 36.9072 
Q 576.412138 36.419834 576.7308 35.726276 
Q 577.049462 35.032717 577.124441 34.920248 
L 577.799255 31.771117 
M 575.362428 39.419007 
L 574.912552 47.291834 
L 574.575145 47.74171 
" clip-path="url(#p291135f1ab)" style="fill: none; stroke: #000000; stroke-linejoin: miter"/>
   </g>
  </g>
 </g>
 <defs>
  <clipPath id="p7261340510">
   <rect x="0" y="11.850612" width="16.2" height="47.938776"/>
  </clipPath>
  <clipPath id="p83524d5c85">
   <rect x="19.726262" y="8.64" width="9.147476" height="54.36"/>
  </clipPath>
  <clipPath id="p557ddfebf5">
   <rect x="48.6" y="13.233462" width="16.2" height="45.173077"/>
  </clipPath>
  <clipPath id="p947665587c">
   <rect x="66.189352" y="8.64" width="13.421297" height="54.36"/>
  </clipPath>
  <clipPath id="pce70bc272e">
   <rect x="82.051945" y="8.64" width="14.09611" height="54.36"/>
  </clipPath>
  <clipPath id="pf49fb1ea79">
   <rect x="113.833366" y="8.64" width="15.333269" height="54.36"/>
  </clipPath>
  <clipPath id="pb9d34ac340">
   <rect x="129.752193" y="8.64" width="15.895614" height="54.36"/>
  </clipPath>
  <clipPath id="pe1428f699c">
   <rect x="151.406938" y="8.64" width="4.986124" height="54.36"/>
  </clipPath>
  <clipPath id="pc97bf558c1">
   <rect x="179.251945" y="8.64" width="14.09611" height="54.36"/>
  </clipPath>
  <clipPath id="p892b0f091d">
   <rect x="198.601076" y="8.64" width="7.797848" height="54.36"/>
  </clipPath>
  <clipPath id="p3c02144755">
   <rect x="210.6" y="11.850612" width="16.2" height="47.938776"/>
  </clipPath>
  <clipPath id="p749d60252b">
   <rect x="229.538979" y="8.64" width="10.722041" height="54.36"/>
  </clipPath>
  <clipPath id="p11b68b31c1">
   <rect x="244.389352" y="8.64" width="13.421297" height="54.36"/>
  </clipPath>
  <clipPath id="p40efea628c">
   <rect x="259.970772" y="8.64" width="14.658455" height="54.36"/>
  </clipPath>
  <clipPath id="p9bf4f1f9c2">
   <rect x="277.164248" y="8.64" width="12.671503" height="54.36"/>
  </clipPath>
  <clipPath id="p15bb47b024">
   <rect x="308.851945" y="8.64" width="14.09611" height="54.36"/>
  </clipPath>
  <clipPath id="p75a0c14b28">
   <rect x="325.389352" y="8.64" width="13.421297" height="54.36"/>
  </clipPath>
  <clipPath id="p393057fdeb">
   <rect x="342.264166" y="8.64" width="12.071669" height="54.36"/>
  </clipPath>
  <clipPath id="pbcafa463de">
   <rect x="374.382993" y="8.64" width="12.634014" height="54.36"/>
  </clipPath>
  <clipPath id="p8ffd0d6982">
   <rect x="391.538979" y="8.64" width="10.722041" height="54.36"/>
  </clipPath>
  <clipPath id="pd1bc08ce0a">
   <rect x="409.201076" y="8.64" width="7.797848" height="54.36"/>
  </clipPath>
  <clipPath id="p4b49573ef9">
   <rect x="422.251945" y="8.64" width="14.09611" height="54.36"/>
  </clipPath>
  <clipPath id="p50f86602c3">
   <rect x="437.552193" y="8.64" width="15.895614" height="54.36"/>
  </clipPath>
  <clipPath id="pd563688a55">
   <rect x="455.364248" y="8.64" width="12.671503" height="54.36"/>
  </clipPath>
  <clipPath id="p080a956b94">
   <rect x="487.782993" y="8.64" width="12.634014" height="54.36"/>
  </clipPath>
  <clipPath id="pd6a64cac1f">
   <rect x="504.938979" y="8.64" width="10.722041" height="54.36"/>
  </clipPath>
  <clipPath id="p3e60d4d4e5">
   <rect x="522.338648" y="8.64" width="8.322703" height="54.36"/>
  </clipPath>
  <clipPath id="p1225c6c3eb">
   <rect x="556.631876" y="8.64" width="4.536248" height="54.36"/>
  </clipPath>
  <clipPath id="p291135f1ab">
   <rect x="570.526262" y="8.64" width="9.147476" height="54.36"/>
  </clipPath>
 </defs>
</svg>
