<?xml version="1.0" encoding="utf-8" standalone="no"?>
<!DOCTYPE svg PUBLIC "-//W3C//DTD SVG 1.1//EN"
  "http://www.w3.org/Graphics/SVG/1.1/DTD/svg11.dtd">
<svg xmlns:xlink="http://www.w3.org/1999/xlink" width="684pt" height="72pt" viewBox="0 0 684 72" xmlns="http://www.w3.org/2000/svg" version="1.1">
 <metadata>
  <rdf:RDF xmlns:dc="http://purl.org/dc/elements/1.1/" xmlns:cc="http://creativecommons.org/ns#" xmlns:rdf="http://www.w3.org/1999/02/22-rdf-syntax-ns#">
   <cc:Work>
    <dc:type rdf:resource="http://purl.org/dc/dcmitype/StillImage"/>
    <dc:date>2023-02-15T23:06:21.980616</dc:date>
    <dc:format>image/svg+xml</dc:format>
    <dc:creator>
     <cc:Agent>
      <dc:title>Matplotlib v3.6.1, https://matplotlib.org/</dc:title>
     </cc:Agent>
    </dc:creator>
   </cc:Work>
  </rdf:RDF>
 </metadata>
 <defs>
  <style type="text/css">*{stroke-linejoin: round; stroke-linecap: butt}</style>
 </defs>
 <g id="figure_1">
  <g id="patch_1">
   <path d="M 0 72 
L 684 72 
L 684 0 
L 0 0 
z
" style="fill: #8fff9f"/>
  </g>
  <g id="axes_1">
   <g id="patch_2">
    <path d="M 4.613462 35.932469 
Q 5.213297 35.257655 6.206772 34.826524 
Q 7.200248 34.395393 8.1 34.470372 
Q 8.737324 34.470372 9.22469 34.639076 
Q 9.712055 34.807779 10.030717 34.995228 
Q 10.349379 35.182676 10.574317 35.670041 
Q 10.799255 36.157407 10.911724 36.419834 
Q 11.024193 36.682262 11.080428 37.375821 
Q 11.136662 38.069379 11.155407 38.331807 
Q 11.174152 38.594234 11.155407 39.419007 
Q 11.136662 40.243779 11.136662 40.431228 
Q 11.136662 41.368469 10.967959 43.242952 
Q 10.799255 45.117434 10.799255 46.054676 
Q 10.799255 46.467062 10.85549 46.823214 
Q 10.911724 47.179366 11.005448 47.610497 
Q 11.099172 48.041628 11.136662 48.304055 
L 11.586538 48.528993 
M 5.063338 23.111007 
Q 5.288276 24.798041 5.288276 29.971614 
L 5.288276 42.3432 
L 4.950869 46.841959 
L 4.725931 47.74171 
" clip-path="url(#p1f96b537a8)" style="fill: none; stroke: #000000; stroke-linejoin: miter"/>
   </g>
  </g>
  <g id="axes_2">
   <g id="patch_3">
    <path d="M 21.0384 34.357903 
Q 21.300828 34.395393 21.638234 33.795559 
Q 21.975641 33.195724 22.500497 33.345683 
L 26.999255 29.2968 
M 20.138648 40.656166 
L 20.363586 40.656166 
Q 21.07589 40.656166 22.63171 41.330979 
Q 24.187531 42.005793 25.087283 42.005793 
Q 27.786538 42.005793 27.786538 38.744193 
Q 27.786538 36.607283 24.412469 36.607283 
Q 22.537986 36.607283 21.450786 37.750717 
Q 20.363586 38.894152 20.363586 40.768634 
Q 20.363586 43.617848 21.694469 45.454841 
Q 23.025352 47.291834 25.762097 47.291834 
Q 27.224193 47.591752 28.461352 45.6048 
" clip-path="url(#pd45fb86918)" style="fill: none; stroke: #000000; stroke-linejoin: miter"/>
   </g>
  </g>
  <g id="axes_3"/>
  <g id="axes_4">
   <g id="patch_4">
    <path d="M 50.811604 28.853447 
Q 51.696246 28.825802 53.493174 28.784334 
Q 55.290102 28.742867 56.382082 28.715222 
Q 57.474061 28.687577 58.994539 28.576997 
Q 60.515017 28.466416 61.759044 28.272901 
Q 62.837201 28.107031 63.168942 28.107031 
Q 63.417747 28.107031 63.417747 28.189966 
Q 62.643686 29.876314 61.150853 31.673242 
Q 59.65802 33.470171 58.01314 34.990648 
Q 56.368259 36.511126 54.751024 37.990137 
Q 53.133788 39.469147 51.820648 41.07256 
Q 50.507509 42.675973 49.982253 44.113515 
L 56.948805 44.528191 
L 63.417747 45.191672 
" clip-path="url(#p8a82879518)" style="fill: none; stroke: #000000; stroke-linejoin: miter"/>
   </g>
  </g>
  <g id="axes_5">
   <g id="patch_5">
    <path d="M 69.413462 35.932469 
Q 70.013297 35.257655 71.006772 34.826524 
Q 72.000248 34.395393 72.9 34.470372 
Q 73.537324 34.470372 74.02469 34.639076 
Q 74.512055 34.807779 74.830717 34.995228 
Q 75.149379 35.182676 75.374317 35.670041 
Q 75.599255 36.157407 75.711724 36.419834 
Q 75.824193 36.682262 75.880428 37.375821 
Q 75.936662 38.069379 75.955407 38.331807 
Q 75.974152 38.594234 75.955407 39.419007 
Q 75.936662 40.243779 75.936662 40.431228 
Q 75.936662 41.368469 75.767959 43.242952 
Q 75.599255 45.117434 75.599255 46.054676 
Q 75.599255 46.467062 75.65549 46.823214 
Q 75.711724 47.179366 75.805448 47.610497 
Q 75.899172 48.041628 75.936662 48.304055 
L 76.386538 48.528993 
M 69.863338 23.111007 
Q 70.088276 24.798041 70.088276 29.971614 
L 70.088276 42.3432 
L 69.750869 46.841959 
L 69.525931 47.74171 
" clip-path="url(#p7c7fe70a1c)" style="fill: none; stroke: #000000; stroke-linejoin: miter"/>
   </g>
  </g>
  <g id="axes_6">
   <g id="patch_6">
    <path d="M 83.832703 35.332634 
L 94.179848 35.332634 
M 93.392566 39.344028 
Q 93.392566 39.344028 90.468372 39.344028 
Q 83.495297 39.344028 83.495297 44.5176 
Q 83.495297 46.279614 85.25731 47.19811 
Q 87.019324 48.116607 89.006276 48.116607 
Q 90.243434 47.891669 91.049462 47.2356 
Q 91.85549 46.579531 92.211641 45.586055 
Q 92.567793 44.592579 92.736497 43.674083 
Q 92.9052 42.755586 93.055159 41.443448 
Q 93.205117 40.13131 93.392566 39.344028 
Q 94.479766 46.092166 94.592234 47.029407 
L 94.704703 48.154097 
" clip-path="url(#p9bd16401c1)" style="fill: none; stroke: #000000; stroke-linejoin: miter"/>
   </g>
  </g>
  <g id="axes_7">
   <g id="patch_7">
    <path d="M 100.838731 37.282097 
L 100.838731 37.844441 
Q 101.101159 39.868883 101.138648 41.312234 
Q 101.176138 42.755586 101.082414 44.667559 
Q 100.98869 46.579531 100.98869 48.191586 
L 101.063669 39.643945 
Q 101.063669 38.144359 102.656979 37.507034 
Q 104.25029 36.86971 105.674897 37.282097 
Q 107.586869 37.844441 108.505366 39.04411 
Q 109.423862 40.243779 109.480097 41.668386 
Q 109.536331 43.092993 109.573821 44.817517 
Q 109.61131 46.542041 109.761269 48.191586 
" clip-path="url(#p6a6ca46a68)" style="fill: none; stroke: #000000; stroke-linejoin: miter"/>
   </g>
  </g>
  <g id="axes_8">
   <g id="patch_8">
    <path d="M 126.287191 39.096404 
Q 126.03236 39.023596 125.06764 38.623146 
Q 124.102921 38.222697 123.44764 38.077079 
Q 122.79236 37.931461 122.137079 38.00427 
Q 119.515955 38.00427 117.877753 40.388764 
Q 116.239551 42.773258 116.239551 45.430787 
Q 116.239551 47.068989 121.481798 47.068989 
Q 123.047191 47.068989 124.375955 45.558202 
Q 125.704719 44.047416 126.378202 42.172584 
Q 127.051685 40.297753 127.051685 38.768764 
Q 127.051685 37.27618 127.015281 36.984944 
L 126.942472 38.077079 
Q 126.942472 38.550337 126.942472 38.987191 
Q 126.978876 40.188539 127.179101 42.281798 
Q 127.379326 44.375056 127.543146 46.049663 
Q 127.706966 47.72427 127.743371 49.872135 
Q 127.779775 52.02 127.615955 53.658202 
Q 127.452135 55.296404 126.887865 56.971011 
Q 126.323596 58.645618 125.395281 59.737753 
Q 124.466966 60.829888 122.865169 61.521573 
Q 121.263371 62.213258 119.115506 62.213258 
Q 117.477303 62.213258 116.385169 61.466966 
Q 115.293034 60.720674 115.293034 59.155281 
Q 115.220225 58.936854 115.256629 58.936854 
Q 115.293034 58.936854 115.402247 58.936854 
Q 115.511461 58.936854 115.511461 58.82764 
" clip-path="url(#p58317a259f)" style="fill: none; stroke: #000000; stroke-linejoin: miter"/>
   </g>
  </g>
  <g id="axes_9"/>
  <g id="axes_10">
   <g id="patch_9">
    <path d="M 147.848638 35.788482 
L 148.037743 35.788482 
Q 148.920233 35.788482 150.685214 35.69393 
Q 152.450195 35.599377 153.332685 35.599377 
Q 154.877043 35.599377 156.074708 35.835759 
Q 157.272374 36.07214 158.296693 36.655214 
Q 159.321012 37.238288 159.872568 38.35716 
Q 160.424125 39.476031 160.424125 41.083424 
Q 160.424125 46.567471 150.307004 46.567471 
Q 150.275486 46.567471 148.415953 46.283813 
L 147.848638 46.000156 
M 147.848638 27.562412 
Q 149.487549 26.679922 151.441634 26.71144 
Q 153.710895 26.71144 155.743774 28.035175 
Q 157.776654 29.358911 157.776654 31.533619 
Q 157.776654 32.825837 157.225097 33.582257 
Q 156.673541 34.338677 155.948638 34.527782 
Q 155.223735 34.716887 154.230934 35.06358 
Q 153.238132 35.410272 152.670817 35.883035 
L 147.848638 35.788482 
M 147.375875 27.656965 
Q 147.596498 28.949183 147.533463 32.494903 
Q 147.470428 36.040623 148.037743 37.301323 
Q 148.037743 38.309883 147.990467 40.358521 
Q 147.943191 42.40716 147.943191 43.447237 
L 147.943191 45.243735 
L 147.754086 46.000156 
" clip-path="url(#p6d1817ae11)" style="fill: none; stroke: #000000; stroke-linejoin: miter"/>
   </g>
  </g>
  <g id="axes_11">
   <g id="patch_10">
    <path d="M 166.950869 35.182676 
Q 167.363255 34.69531 168.337986 33.851793 
Q 169.312717 33.008276 169.987531 32.220993 
Q 170.662345 31.43371 170.887283 30.458979 
L 172.124441 28.996883 
M 171.22469 38.219338 
Q 169.612634 37.656993 168.97531 37.769462 
Q 166.988359 37.769462 165.78869 39.0816 
Q 164.589021 40.393738 164.589021 42.493159 
Q 164.589021 45.454841 166.744676 47.123131 
Q 168.900331 48.791421 172.011972 48.791421 
Q 173.736497 48.791421 174.673738 47.27309 
Q 175.610979 45.754759 175.610979 43.842786 
Q 175.610979 42.755586 175.236083 41.83709 
Q 174.861186 40.918593 174.242607 39.887628 
Q 173.624028 38.856662 173.3616 38.219338 
L 170.437407 37.544524 
" clip-path="url(#p59e21c9b05)" style="fill: none; stroke: #000000; stroke-linejoin: miter"/>
   </g>
  </g>
  <g id="axes_12"/>
  <g id="axes_13">
   <g id="patch_11">
    <path d="M 197.6076 35.032717 
Q 197.6076 35.032717 200.981669 35.032717 
Q 201.094138 35.032717 202.837407 34.826524 
Q 204.580676 34.620331 205.592897 34.789034 
Q 206.605117 34.957738 206.605117 35.707531 
Q 206.605117 36.86971 205.592897 38.144359 
Q 204.580676 39.419007 203.118579 40.506207 
Q 201.656483 41.593407 200.194386 42.605628 
Q 198.73229 43.617848 197.720069 44.573834 
Q 196.707848 45.529821 196.707848 46.279614 
L 197.832538 46.279614 
Q 197.870028 46.279614 200.081917 46.054676 
L 208.292152 45.942207 
" clip-path="url(#pf835113bc7)" style="fill: none; stroke: #000000; stroke-linejoin: miter"/>
   </g>
  </g>
  <g id="axes_14">
   <g id="patch_12">
    <path d="M 214.088772 35.145186 
Q 214.088772 35.145186 214.088772 35.595062 
Q 214.088772 36.269876 213.976303 37.619503 
Q 213.863834 38.969131 213.863834 39.643945 
Q 213.863834 41.930814 215.100993 43.599103 
Q 216.338152 45.267393 218.475062 45.267393 
Q 219.862179 45.154924 220.630717 43.917766 
Q 221.399255 42.680607 221.549214 41.237255 
Q 221.699172 39.793903 221.9616 37.9944 
Q 222.224028 36.194897 222.636414 35.370124 
Q 222.786372 35.070207 222.786372 35.670041 
Q 222.786372 36.269876 222.523945 38.706703 
Q 222.299007 41.031062 222.299007 41.555917 
Q 222.149048 42.643117 222.486455 43.767807 
Q 222.823862 44.892497 223.536166 45.6048 
" clip-path="url(#pddb23df573)" style="fill: none; stroke: #000000; stroke-linejoin: miter"/>
   </g>
  </g>
  <g id="axes_15">
   <g id="patch_13">
    <path d="M 232.613131 30.384 
L 235.874731 34.657821 
M 235.537324 37.019669 
L 235.274897 41.743366 
Q 235.387366 42.268221 235.518579 43.749062 
Q 235.649793 45.229903 235.9872 46.1484 
Q 236.324607 47.066897 237.186869 47.591752 
" clip-path="url(#p3e4bdc3b9f)" style="fill: none; stroke: #000000; stroke-linejoin: miter"/>
   </g>
  </g>
  <g id="axes_16">
   <g id="patch_14">
    <path d="M 251.456152 30.309021 
Q 250.968786 30.42149 251.381172 30.833876 
Q 251.756069 31.208772 251.831048 30.946345 
Q 251.868538 30.871366 251.793559 30.646428 
Q 251.793559 30.458979 251.718579 30.42149 
Q 251.6436 30.384 251.512386 30.42149 
Q 251.381172 30.458979 251.231214 30.42149 
L 251.118745 30.646428 
M 252.018497 33.345683 
Q 253.068207 37.731972 253.593062 40.13131 
Q 254.117917 42.530648 254.567793 46.317103 
Q 255.017669 50.103559 254.830221 53.25269 
Q 254.830221 53.440138 254.830221 54.021228 
Q 254.830221 54.602317 254.830221 54.902234 
Q 254.830221 55.202152 254.811476 55.783241 
Q 254.792731 56.364331 254.717752 56.701738 
Q 254.642772 57.039145 254.530303 57.52651 
Q 254.417834 58.013876 254.211641 58.313793 
Q 254.005448 58.61371 253.743021 58.894883 
Q 253.480593 59.176055 253.105697 59.307269 
Q 252.7308 59.438483 252.243434 59.438483 
Q 251.268703 59.438483 250.51891 59.251034 
Q 249.769117 59.063586 248.906855 58.707434 
Q 248.044593 58.351283 247.407269 58.201324 
L 247.182331 57.751448 
" clip-path="url(#pfc0115a71f)" style="fill: none; stroke: #000000; stroke-linejoin: miter"/>
   </g>
  </g>
  <g id="axes_17">
   <g id="patch_15">
    <path d="M 265.013131 30.384 
L 268.274731 34.657821 
M 267.937324 37.019669 
L 267.674897 41.743366 
Q 267.787366 42.268221 267.918579 43.749062 
Q 268.049793 45.229903 268.3872 46.1484 
Q 268.724607 47.066897 269.586869 47.591752 
" clip-path="url(#pb2f1e23660)" style="fill: none; stroke: #000000; stroke-linejoin: miter"/>
   </g>
  </g>
  <g id="axes_18">
   <g id="patch_16">
    <path d="M 279.038731 37.282097 
L 279.038731 37.844441 
Q 279.301159 39.868883 279.338648 41.312234 
Q 279.376138 42.755586 279.282414 44.667559 
Q 279.18869 46.579531 279.18869 48.191586 
L 279.263669 39.643945 
Q 279.263669 38.144359 280.856979 37.507034 
Q 282.45029 36.86971 283.874897 37.282097 
Q 285.786869 37.844441 286.705366 39.04411 
Q 287.623862 40.243779 287.680097 41.668386 
Q 287.736331 43.092993 287.773821 44.817517 
Q 287.81131 46.542041 287.961269 48.191586 
" clip-path="url(#p906fa270d0)" style="fill: none; stroke: #000000; stroke-linejoin: miter"/>
   </g>
  </g>
  <g id="axes_19"/>
  <g id="axes_20">
   <g id="patch_17">
    <path d="M 319.499007 39.568966 
Q 318.149379 38.181848 315.9 38.444276 
Q 313.050786 38.444276 311.888607 39.793903 
Q 310.726428 41.143531 310.726428 44.067724 
Q 310.726428 45.56731 312.019821 46.279614 
Q 313.313214 46.991917 314.887779 46.991917 
Q 316.199917 46.991917 317.212138 45.736014 
Q 318.224359 44.48011 318.805448 42.30571 
Q 319.386538 40.13131 319.761434 37.938166 
Q 320.136331 35.745021 320.28629 33.045766 
Q 320.436248 30.34651 320.473738 28.978138 
Q 320.511228 27.609766 320.511228 26.185159 
Q 320.28629 26.260138 320.28629 29.896634 
L 320.28629 44.292662 
L 321.073572 48.229076 
" clip-path="url(#p91ffff3f31)" style="fill: none; stroke: #000000; stroke-linejoin: miter"/>
   </g>
  </g>
  <g id="axes_21">
   <g id="patch_18">
    <path d="M 325.857798 38.160826 
Q 328.830275 39.535596 333.549083 39.721376 
Q 335.072477 39.721376 335.759862 38.550963 
Q 336.447248 37.38055 336.447248 35.82 
Q 336.447248 35.299817 336.354358 34.909679 
Q 336.261468 34.519541 336.019954 34.296606 
Q 335.77844 34.07367 335.611239 33.943624 
Q 335.444037 33.813578 334.998165 33.757844 
Q 334.552294 33.70211 334.347936 33.683532 
Q 334.143578 33.664954 333.567661 33.683532 
Q 332.991743 33.70211 332.768807 33.70211 
Q 330.725229 33.70211 329.238991 35.578486 
Q 327.752752 37.454862 327.752752 39.609908 
Q 327.752752 42.619541 329.684862 44.570229 
Q 331.616972 46.520917 334.663761 46.520917 
Q 336.818807 46.818165 338.342202 44.29156 
" clip-path="url(#pd144868f6d)" style="fill: none; stroke: #000000; stroke-linejoin: miter"/>
   </g>
  </g>
  <g id="axes_22"/>
  <g id="axes_23">
   <g id="patch_19">
    <path d="M 359.363917 36.382345 
Q 359.326428 36.494814 359.457641 36.701007 
Q 359.588855 36.9072 359.476386 37.057159 
L 359.476386 39.306538 
Q 359.476386 40.506207 359.813793 41.724621 
Q 360.1512 42.943034 361.013462 43.93651 
Q 361.875724 44.929986 363.075393 44.929986 
Q 364.312552 44.929986 364.987366 43.861531 
Q 365.662179 42.793076 366.112055 41.143531 
Q 366.561931 39.493986 366.899338 38.969131 
L 367.686621 36.382345 
L 367.461683 42.680607 
L 367.461683 45.154924 
Q 367.461683 47.066897 368.192731 51.00331 
Q 368.923779 54.939724 368.923779 56.964166 
Q 369.673572 59.213545 368.586372 60.188276 
Q 367.499172 61.163007 365.437241 60.78811 
Q 363.637738 60.488193 362.719241 60.169531 
Q 361.800745 59.850869 359.813793 58.988607 
L 359.701324 58.426262 
" clip-path="url(#p4442660238)" style="fill: none; stroke: #000000; stroke-linejoin: miter"/>
   </g>
  </g>
  <g id="axes_24">
   <g id="patch_20">
    <path d="M 377.719572 33.795559 
L 377.719572 33.570621 
Q 377.719572 33.383172 377.775807 33.289448 
Q 377.832041 33.195724 377.907021 33.13949 
Q 377.982 33.083255 378.131959 32.989531 
Q 378.281917 32.895807 378.394386 32.783338 
L 382.555738 28.059641 
M 384.46771 37.619503 
L 381.318579 37.619503 
Q 381.20611 37.656993 380.943683 37.731972 
Q 377.719572 38.669214 376.819821 39.381517 
Q 375.282745 40.731145 375.245255 44.142703 
Q 375.245255 45.267393 376.107517 46.167145 
Q 376.969779 47.066897 378.056979 47.066897 
Q 378.919241 46.954428 379.706524 46.485807 
Q 380.493807 46.017186 380.999917 45.473586 
Q 381.506028 44.929986 382.049628 43.93651 
Q 382.593228 42.943034 382.8744 42.324455 
Q 383.155572 41.705876 383.605448 40.543697 
Q 384.055324 39.381517 384.242772 38.969131 
Q 384.580179 38.144359 384.692648 38.200593 
Q 384.805117 38.256828 384.692648 39.456497 
L 384.580179 40.993572 
Q 384.580179 41.031062 384.917586 44.705048 
L 386.154745 47.066897 
" clip-path="url(#p9d4f47465f)" style="fill: none; stroke: #000000; stroke-linejoin: miter"/>
   </g>
  </g>
  <g id="axes_25">
   <g id="patch_21">
    <path d="M 392.438731 37.282097 
L 392.438731 37.844441 
Q 392.701159 39.868883 392.738648 41.312234 
Q 392.776138 42.755586 392.682414 44.667559 
Q 392.58869 46.579531 392.58869 48.191586 
L 392.663669 39.643945 
Q 392.663669 38.144359 394.256979 37.507034 
Q 395.85029 36.86971 397.274897 37.282097 
Q 399.186869 37.844441 400.105366 39.04411 
Q 401.023862 40.243779 401.080097 41.668386 
Q 401.136331 43.092993 401.173821 44.817517 
Q 401.21131 46.542041 401.361269 48.191586 
" clip-path="url(#p99b04d7209)" style="fill: none; stroke: #000000; stroke-linejoin: miter"/>
   </g>
  </g>
  <g id="axes_26">
   <g id="patch_22">
    <path d="M 413.456152 30.309021 
Q 412.968786 30.42149 413.381172 30.833876 
Q 413.756069 31.208772 413.831048 30.946345 
Q 413.868538 30.871366 413.793559 30.646428 
Q 413.793559 30.458979 413.718579 30.42149 
Q 413.6436 30.384 413.512386 30.42149 
Q 413.381172 30.458979 413.231214 30.42149 
L 413.118745 30.646428 
M 414.018497 33.345683 
Q 415.068207 37.731972 415.593062 40.13131 
Q 416.117917 42.530648 416.567793 46.317103 
Q 417.017669 50.103559 416.830221 53.25269 
Q 416.830221 53.440138 416.830221 54.021228 
Q 416.830221 54.602317 416.830221 54.902234 
Q 416.830221 55.202152 416.811476 55.783241 
Q 416.792731 56.364331 416.717752 56.701738 
Q 416.642772 57.039145 416.530303 57.52651 
Q 416.417834 58.013876 416.211641 58.313793 
Q 416.005448 58.61371 415.743021 58.894883 
Q 415.480593 59.176055 415.105697 59.307269 
Q 414.7308 59.438483 414.243434 59.438483 
Q 413.268703 59.438483 412.51891 59.251034 
Q 411.769117 59.063586 410.906855 58.707434 
Q 410.044593 58.351283 409.407269 58.201324 
L 409.182331 57.751448 
" clip-path="url(#pde2a1e3e52)" style="fill: none; stroke: #000000; stroke-linejoin: miter"/>
   </g>
  </g>
  <g id="axes_27">
   <g id="patch_23">
    <path d="M 429.918579 29.071862 
Q 429.543683 29.146841 429.412469 29.577972 
Q 429.281255 30.009103 429.356234 30.42149 
Q 429.356234 30.571448 429.393724 30.702662 
Q 429.431214 30.833876 429.487448 30.89011 
Q 429.543683 30.946345 429.599917 31.040069 
Q 429.656152 31.133793 429.693641 31.208772 
L 429.80611 29.859145 
M 429.80611 34.020497 
Q 428.906359 39.006621 428.681421 42.793076 
L 429.131297 45.379862 
L 429.468703 46.054676 
" clip-path="url(#pc60bd77dca)" style="fill: none; stroke: #000000; stroke-linejoin: miter"/>
   </g>
  </g>
  <g id="axes_28">
   <g id="patch_24">
    <path d="M 441.132455 35.182676 
L 448.442938 35.182676 
M 440.345172 39.456497 
Q 440.307683 39.943862 440.345172 41.143531 
Q 440.345172 42.30571 440.345172 42.755586 
Q 440.345172 43.205462 440.438897 44.198938 
Q 440.532621 45.192414 440.682579 45.6048 
Q 440.832538 46.017186 441.169945 46.692 
Q 441.507352 47.366814 441.994717 47.647986 
Q 442.482083 47.929159 443.231876 48.172841 
Q 443.981669 48.416524 444.9564 48.416524 
Q 449.192731 48.416524 449.192731 39.681434 
Q 449.192731 43.655338 450.017503 48.004138 
L 450.692317 48.229076 
" clip-path="url(#p756da8b819)" style="fill: none; stroke: #000000; stroke-linejoin: miter"/>
   </g>
  </g>
  <g id="axes_29"/>
  <g id="axes_30">
   <g id="patch_25">
    <path d="M 483.156735 34.365306 
Q 483.156735 34.365306 482.660816 34.365306 
Q 481.867347 34.365306 480.379592 34.067755 
Q 478.891837 33.770204 478.098367 33.770204 
Q 475.321224 33.770204 473.387143 35.224898 
Q 471.453061 36.679592 471.453061 39.423673 
Q 471.453061 40.94449 472.940816 42.399184 
Q 474.428571 43.853878 476.362653 44.663878 
Q 478.296735 45.473878 479.78449 45.473878 
Q 480.710204 45.473878 481.40449 45.110204 
Q 482.098776 44.746531 482.842653 44.118367 
Q 483.586531 43.490204 484.148571 43.192653 
L 484.346939 42.696735 
" clip-path="url(#p5d17971ec7)" style="fill: none; stroke: #000000; stroke-linejoin: miter"/>
   </g>
  </g>
  <g id="axes_31">
   <g id="patch_26">
    <path d="M 490.613462 35.932469 
Q 491.213297 35.257655 492.206772 34.826524 
Q 493.200248 34.395393 494.1 34.470372 
Q 494.737324 34.470372 495.22469 34.639076 
Q 495.712055 34.807779 496.030717 34.995228 
Q 496.349379 35.182676 496.574317 35.670041 
Q 496.799255 36.157407 496.911724 36.419834 
Q 497.024193 36.682262 497.080428 37.375821 
Q 497.136662 38.069379 497.155407 38.331807 
Q 497.174152 38.594234 497.155407 39.419007 
Q 497.136662 40.243779 497.136662 40.431228 
Q 497.136662 41.368469 496.967959 43.242952 
Q 496.799255 45.117434 496.799255 46.054676 
Q 496.799255 46.467062 496.85549 46.823214 
Q 496.911724 47.179366 497.005448 47.610497 
Q 497.099172 48.041628 497.136662 48.304055 
L 497.586538 48.528993 
M 491.063338 23.111007 
Q 491.288276 24.798041 491.288276 29.971614 
L 491.288276 42.3432 
L 490.950869 46.841959 
L 490.725931 47.74171 
" clip-path="url(#p4ce1410d92)" style="fill: none; stroke: #000000; stroke-linejoin: miter"/>
   </g>
  </g>
  <g id="axes_32">
   <g id="patch_27">
    <path d="M 507.0384 34.357903 
Q 507.300828 34.395393 507.638234 33.795559 
Q 507.975641 33.195724 508.500497 33.345683 
L 512.999255 29.2968 
M 506.138648 40.656166 
L 506.363586 40.656166 
Q 507.07589 40.656166 508.63171 41.330979 
Q 510.187531 42.005793 511.087283 42.005793 
Q 513.786538 42.005793 513.786538 38.744193 
Q 513.786538 36.607283 510.412469 36.607283 
Q 508.537986 36.607283 507.450786 37.750717 
Q 506.363586 38.894152 506.363586 40.768634 
Q 506.363586 43.617848 507.694469 45.454841 
Q 509.025352 47.291834 511.762097 47.291834 
Q 513.224193 47.591752 514.461352 45.6048 
" clip-path="url(#p4264559edd)" style="fill: none; stroke: #000000; stroke-linejoin: miter"/>
   </g>
  </g>
  <g id="axes_33">
   <g id="patch_28">
    <path d="M 522.038731 37.282097 
L 522.038731 37.844441 
Q 522.301159 39.868883 522.338648 41.312234 
Q 522.376138 42.755586 522.282414 44.667559 
Q 522.18869 46.579531 522.18869 48.191586 
L 522.263669 39.643945 
Q 522.263669 38.144359 523.856979 37.507034 
Q 525.45029 36.86971 526.874897 37.282097 
Q 528.786869 37.844441 529.705366 39.04411 
Q 530.623862 40.243779 530.680097 41.668386 
Q 530.736331 43.092993 530.773821 44.817517 
Q 530.81131 46.542041 530.961269 48.191586 
" clip-path="url(#p0c82da4964)" style="fill: none; stroke: #000000; stroke-linejoin: miter"/>
   </g>
  </g>
  <g id="axes_34">
   <g id="patch_29">
    <path d="M 547.487191 39.096404 
Q 547.23236 39.023596 546.26764 38.623146 
Q 545.302921 38.222697 544.64764 38.077079 
Q 543.99236 37.931461 543.337079 38.00427 
Q 540.715955 38.00427 539.077753 40.388764 
Q 537.439551 42.773258 537.439551 45.430787 
Q 537.439551 47.068989 542.681798 47.068989 
Q 544.247191 47.068989 545.575955 45.558202 
Q 546.904719 44.047416 547.578202 42.172584 
Q 548.251685 40.297753 548.251685 38.768764 
Q 548.251685 37.27618 548.215281 36.984944 
L 548.142472 38.077079 
Q 548.142472 38.550337 548.142472 38.987191 
Q 548.178876 40.188539 548.379101 42.281798 
Q 548.579326 44.375056 548.743146 46.049663 
Q 548.906966 47.72427 548.943371 49.872135 
Q 548.979775 52.02 548.815955 53.658202 
Q 548.652135 55.296404 548.087865 56.971011 
Q 547.523596 58.645618 546.595281 59.737753 
Q 545.666966 60.829888 544.065169 61.521573 
Q 542.463371 62.213258 540.315506 62.213258 
Q 538.677303 62.213258 537.585169 61.466966 
Q 536.493034 60.720674 536.493034 59.155281 
Q 536.420225 58.936854 536.456629 58.936854 
Q 536.493034 58.936854 536.602247 58.936854 
Q 536.711461 58.936854 536.711461 58.82764 
" clip-path="url(#p1f003b4f2d)" style="fill: none; stroke: #000000; stroke-linejoin: miter"/>
   </g>
  </g>
  <g id="axes_35">
   <g id="patch_30">
    <path d="M 563.687191 39.096404 
Q 563.43236 39.023596 562.46764 38.623146 
Q 561.502921 38.222697 560.84764 38.077079 
Q 560.19236 37.931461 559.537079 38.00427 
Q 556.915955 38.00427 555.277753 40.388764 
Q 553.639551 42.773258 553.639551 45.430787 
Q 553.639551 47.068989 558.881798 47.068989 
Q 560.447191 47.068989 561.775955 45.558202 
Q 563.104719 44.047416 563.778202 42.172584 
Q 564.451685 40.297753 564.451685 38.768764 
Q 564.451685 37.27618 564.415281 36.984944 
L 564.342472 38.077079 
Q 564.342472 38.550337 564.342472 38.987191 
Q 564.378876 40.188539 564.579101 42.281798 
Q 564.779326 44.375056 564.943146 46.049663 
Q 565.106966 47.72427 565.143371 49.872135 
Q 565.179775 52.02 565.015955 53.658202 
Q 564.852135 55.296404 564.287865 56.971011 
Q 563.723596 58.645618 562.795281 59.737753 
Q 561.866966 60.829888 560.265169 61.521573 
Q 558.663371 62.213258 556.515506 62.213258 
Q 554.877303 62.213258 553.785169 61.466966 
Q 552.693034 60.720674 552.693034 59.155281 
Q 552.620225 58.936854 552.656629 58.936854 
Q 552.693034 58.936854 552.802247 58.936854 
Q 552.911461 58.936854 552.911461 58.82764 
" clip-path="url(#p29ef2fcccb)" style="fill: none; stroke: #000000; stroke-linejoin: miter"/>
   </g>
  </g>
  <g id="axes_36">
   <g id="patch_31">
    <path d="M 570.488772 35.145186 
Q 570.488772 35.145186 570.488772 35.595062 
Q 570.488772 36.269876 570.376303 37.619503 
Q 570.263834 38.969131 570.263834 39.643945 
Q 570.263834 41.930814 571.500993 43.599103 
Q 572.738152 45.267393 574.875062 45.267393 
Q 576.262179 45.154924 577.030717 43.917766 
Q 577.799255 42.680607 577.949214 41.237255 
Q 578.099172 39.793903 578.3616 37.9944 
Q 578.624028 36.194897 579.036414 35.370124 
Q 579.186372 35.070207 579.186372 35.670041 
Q 579.186372 36.269876 578.923945 38.706703 
Q 578.699007 41.031062 578.699007 41.555917 
Q 578.549048 42.643117 578.886455 43.767807 
Q 579.223862 44.892497 579.936166 45.6048 
" clip-path="url(#pacf1941d16)" style="fill: none; stroke: #000000; stroke-linejoin: miter"/>
   </g>
  </g>
  <g id="axes_37">
   <g id="patch_32">
    <path d="M 586.632538 32.220993 
Q 588.507021 36.119917 591.243766 36.044938 
Q 591.656152 36.082428 592.012303 35.85749 
Q 592.368455 35.632552 592.574648 35.370124 
Q 592.780841 35.107697 592.949545 34.601586 
Q 593.118248 34.095476 593.193228 33.814303 
Q 593.268207 33.533131 593.380676 32.970786 
Q 593.493145 32.408441 593.493145 32.333462 
M 594.018 38.519255 
Q 592.855821 38.144359 590.418993 38.181848 
Q 588.319572 38.181848 587.007434 39.344028 
Q 585.695297 40.506207 585.695297 42.568138 
Q 585.695297 45.117434 587.757228 46.766979 
Q 589.819159 48.416524 592.443434 48.416524 
Q 594.355407 48.416524 595.423862 47.291834 
Q 596.492317 46.167145 596.492317 44.255172 
Q 596.904703 42.155752 595.742524 40.318759 
Q 594.580345 38.481766 592.555903 37.844441 
" clip-path="url(#p9a01dd4865)" style="fill: none; stroke: #000000; stroke-linejoin: miter"/>
   </g>
  </g>
  <g id="axes_38">
   <g id="patch_33">
    <path d="M 607.387531 45.979697 
Q 607.350041 46.017186 607.218828 46.054676 
Q 607.087614 46.092166 607.125103 46.167145 
Q 607.125103 46.579531 607.5 46.579531 
Q 607.837407 46.579531 607.837407 46.092166 
Q 607.912386 45.867228 607.631214 45.754759 
Q 607.350041 45.64229 607.162593 45.754759 
" clip-path="url(#pe310ffbc54)" style="fill: none; stroke: #000000; stroke-linejoin: miter"/>
   </g>
  </g>
 </g>
 <defs>
  <clipPath id="p1f96b537a8">
   <rect x="2.738979" y="8.64" width="10.722041" height="54.36"/>
  </clipPath>
  <clipPath id="pd45fb86918">
   <rect x="18.264166" y="8.64" width="12.071669" height="54.36"/>
  </clipPath>
  <clipPath id="p8a82879518">
   <rect x="48.6" y="15.777338" width="16.2" height="40.085324"/>
  </clipPath>
  <clipPath id="p7c7fe70a1c">
   <rect x="67.538979" y="8.64" width="10.722041" height="54.36"/>
  </clipPath>
  <clipPath id="p9bd16401c1">
   <rect x="81.620814" y="8.64" width="14.958372" height="54.36"/>
  </clipPath>
  <clipPath id="p6a6ca46a68">
   <rect x="98.964248" y="8.64" width="12.671503" height="54.36"/>
  </clipPath>
  <clipPath id="p58317a259f">
   <rect x="113.4" y="9.426742" width="16.2" height="52.786517"/>
  </clipPath>
  <clipPath id="p6d1817ae11">
   <rect x="145.8" y="12.969805" width="16.2" height="45.700389"/>
  </clipPath>
  <clipPath id="p59e21c9b05">
   <rect x="162.714538" y="8.64" width="14.770924" height="54.36"/>
  </clipPath>
  <clipPath id="pf835113bc7">
   <rect x="194.833366" y="8.64" width="15.333269" height="54.36"/>
  </clipPath>
  <clipPath id="pddb23df573">
   <rect x="211.989352" y="8.64" width="13.421297" height="54.36"/>
  </clipPath>
  <clipPath id="p3e4bdc3b9f">
   <rect x="230.738648" y="8.64" width="8.322703" height="54.36"/>
  </clipPath>
  <clipPath id="pfc0115a71f">
   <rect x="245.307848" y="8.64" width="11.584303" height="54.36"/>
  </clipPath>
  <clipPath id="pb2f1e23660">
   <rect x="263.138648" y="8.64" width="8.322703" height="54.36"/>
  </clipPath>
  <clipPath id="p906fa270d0">
   <rect x="277.164248" y="8.64" width="12.671503" height="54.36"/>
  </clipPath>
  <clipPath id="p91ffff3f31">
   <rect x="308.851945" y="8.64" width="14.09611" height="54.36"/>
  </clipPath>
  <clipPath id="pd144868f6d">
   <rect x="324" y="8.881927" width="16.2" height="53.876147"/>
  </clipPath>
  <clipPath id="p4442660238">
   <rect x="357.451945" y="8.64" width="14.09611" height="54.36"/>
  </clipPath>
  <clipPath id="p9d4f47465f">
   <rect x="373.370772" y="8.64" width="14.658455" height="54.36"/>
  </clipPath>
  <clipPath id="p99b04d7209">
   <rect x="390.564248" y="8.64" width="12.671503" height="54.36"/>
  </clipPath>
  <clipPath id="pde2a1e3e52">
   <rect x="407.307848" y="8.64" width="11.584303" height="54.36"/>
  </clipPath>
  <clipPath id="pc60bd77dca">
   <rect x="426.806938" y="8.64" width="4.986124" height="54.36"/>
  </clipPath>
  <clipPath id="p756da8b819">
   <rect x="438.4332" y="8.64" width="14.1336" height="54.36"/>
  </clipPath>
  <clipPath id="p5d17971ec7">
   <rect x="469.8" y="11.850612" width="16.2" height="47.938776"/>
  </clipPath>
  <clipPath id="p4ce1410d92">
   <rect x="488.738979" y="8.64" width="10.722041" height="54.36"/>
  </clipPath>
  <clipPath id="p4264559edd">
   <rect x="504.264166" y="8.64" width="12.071669" height="54.36"/>
  </clipPath>
  <clipPath id="p0c82da4964">
   <rect x="520.164248" y="8.64" width="12.671503" height="54.36"/>
  </clipPath>
  <clipPath id="p1f003b4f2d">
   <rect x="534.6" y="9.426742" width="16.2" height="52.786517"/>
  </clipPath>
  <clipPath id="p29ef2fcccb">
   <rect x="550.8" y="9.426742" width="16.2" height="52.786517"/>
  </clipPath>
  <clipPath id="pacf1941d16">
   <rect x="568.389352" y="8.64" width="13.421297" height="54.36"/>
  </clipPath>
  <clipPath id="p9a01dd4865">
   <rect x="583.820814" y="8.64" width="14.958372" height="54.36"/>
  </clipPath>
  <clipPath id="pe310ffbc54">
   <rect x="605.213131" y="8.64" width="4.573738" height="54.36"/>
  </clipPath>
 </defs>
</svg>
