<?xml version="1.0" encoding="utf-8" standalone="no"?>
<!DOCTYPE svg PUBLIC "-//W3C//DTD SVG 1.1//EN"
  "http://www.w3.org/Graphics/SVG/1.1/DTD/svg11.dtd">
<svg xmlns:xlink="http://www.w3.org/1999/xlink" width="252pt" height="72pt" viewBox="0 0 252 72" xmlns="http://www.w3.org/2000/svg" version="1.1">
 <metadata>
  <rdf:RDF xmlns:dc="http://purl.org/dc/elements/1.1/" xmlns:cc="http://creativecommons.org/ns#" xmlns:rdf="http://www.w3.org/1999/02/22-rdf-syntax-ns#">
   <cc:Work>
    <dc:type rdf:resource="http://purl.org/dc/dcmitype/StillImage"/>
    <dc:date>2023-02-13T21:02:48.980120</dc:date>
    <dc:format>image/svg+xml</dc:format>
    <dc:creator>
     <cc:Agent>
      <dc:title>Matplotlib v3.6.1, https://matplotlib.org/</dc:title>
     </cc:Agent>
    </dc:creator>
   </cc:Work>
  </rdf:RDF>
 </metadata>
 <defs>
  <style type="text/css">*{stroke-linejoin: round; stroke-linecap: butt}</style>
 </defs>
 <g id="figure_1">
  <g id="patch_1">
   <path d="M 0 72 
L 252 72 
L 252 0 
L 0 0 
z
" style="fill: #8fff9f"/>
  </g>
  <g id="axes_1">
   <g id="patch_2">
    <path d="M 1.653061 45.374694 
Q 5.752653 45.440816 12.761633 45.870612 
Q 13.191429 45.903673 13.373265 45.887143 
Q 13.555102 45.870612 13.951837 45.787959 
Q 14.348571 45.705306 14.546939 45.672245 
M 3.24 27.521633 
L 3.24 29.406122 
Q 3.24 31.588163 3.025102 33.985102 
Q 2.810204 36.382041 2.446531 39.291429 
Q 2.082857 42.200816 1.950612 43.787755 
L 1.653061 45.374694 
" clip-path="url(#pc35bf62653)" style="fill: none; stroke: #000000; stroke-linejoin: miter"/>
   </g>
  </g>
  <g id="axes_2">
   <g id="patch_3">
    <path d="M 21.600745 33.345683 
L 21.600745 33.570621 
Q 21.600745 34.545352 22.575476 35.969959 
Q 23.550207 37.394566 24.524938 37.394566 
Q 24.899834 37.394566 25.255986 36.9072 
Q 25.612138 36.419834 25.9308 35.726276 
Q 26.249462 35.032717 26.324441 34.920248 
L 26.999255 31.771117 
M 24.562428 39.419007 
L 24.112552 47.291834 
L 23.775145 47.74171 
" clip-path="url(#pd73561c6b5)" style="fill: none; stroke: #000000; stroke-linejoin: miter"/>
   </g>
  </g>
  <g id="axes_3"/>
  <g id="axes_4">
   <g id="patch_4">
    <path d="M 62.494615 26.878846 
Q 61.746923 28.997308 60.282692 31.271538 
Q 58.818462 33.545769 57.400962 35.228077 
Q 55.983462 36.910385 54.456923 39.153462 
Q 52.930385 41.396538 52.120385 43.421538 
L 51.559615 45.290769 
M 50.157692 27.439615 
Q 51.777692 29.620385 55.126731 34.776346 
Q 58.475769 39.932308 60.531923 42.486923 
L 63.242308 46.131923 
" clip-path="url(#p8503ecb610)" style="fill: none; stroke: #000000; stroke-linejoin: miter"/>
   </g>
  </g>
  <g id="axes_5">
   <g id="patch_5">
    <path d="M 68.288772 35.145186 
Q 68.288772 35.145186 68.288772 35.595062 
Q 68.288772 36.269876 68.176303 37.619503 
Q 68.063834 38.969131 68.063834 39.643945 
Q 68.063834 41.930814 69.300993 43.599103 
Q 70.538152 45.267393 72.675062 45.267393 
Q 74.062179 45.154924 74.830717 43.917766 
Q 75.599255 42.680607 75.749214 41.237255 
Q 75.899172 39.793903 76.1616 37.9944 
Q 76.424028 36.194897 76.836414 35.370124 
Q 76.986372 35.070207 76.986372 35.670041 
Q 76.986372 36.269876 76.723945 38.706703 
Q 76.499007 41.031062 76.499007 41.555917 
Q 76.349048 42.643117 76.686455 43.767807 
Q 77.023862 44.892497 77.736166 45.6048 
" clip-path="url(#pcc3f697200)" style="fill: none; stroke: #000000; stroke-linejoin: miter"/>
   </g>
  </g>
  <g id="axes_6">
   <g id="patch_6">
    <path d="M 86.288276 30.608938 
Q 86.400745 30.871366 86.663172 31.602414 
Q 86.9256 32.333462 87.131793 32.783338 
Q 87.337986 33.233214 87.675393 33.758069 
Q 88.0128 34.282924 88.51891 34.507862 
Q 89.025021 34.7328 89.662345 34.657821 
Q 92.474069 34.657821 92.811476 29.25931 
M 83.926428 41.968303 
L 84.376303 41.968303 
Q 84.938648 41.968303 86.400745 42.474414 
Q 87.862841 42.980524 88.650124 42.980524 
Q 91.011972 42.980524 92.305366 42.211986 
Q 93.598759 41.443448 93.598759 39.269048 
Q 93.598759 37.132138 88.312717 37.132138 
Q 87.225517 37.132138 86.456979 37.694483 
Q 85.688441 38.256828 85.313545 39.194069 
Q 84.938648 40.13131 84.769945 41.049807 
Q 84.601241 41.968303 84.601241 42.980524 
Q 84.338814 44.105214 84.71371 44.967476 
Q 85.088607 45.829738 86.025848 46.335848 
Q 86.96309 46.841959 87.806607 47.123131 
Q 88.650124 47.404303 89.774814 47.591752 
Q 90.374648 47.704221 92.3616 47.704221 
Q 92.811476 47.81669 93.148883 47.573007 
Q 93.48629 47.329324 93.823697 46.748234 
Q 94.161103 46.167145 94.273572 46.017186 
" clip-path="url(#pcdfe14bd87)" style="fill: none; stroke: #000000; stroke-linejoin: miter"/>
   </g>
  </g>
  <g id="axes_7"/>
  <g id="axes_8">
   <g id="patch_7">
    <path d="M 121.856152 30.309021 
Q 121.368786 30.42149 121.781172 30.833876 
Q 122.156069 31.208772 122.231048 30.946345 
Q 122.268538 30.871366 122.193559 30.646428 
Q 122.193559 30.458979 122.118579 30.42149 
Q 122.0436 30.384 121.912386 30.42149 
Q 121.781172 30.458979 121.631214 30.42149 
L 121.518745 30.646428 
M 122.418497 33.345683 
Q 123.468207 37.731972 123.993062 40.13131 
Q 124.517917 42.530648 124.967793 46.317103 
Q 125.417669 50.103559 125.230221 53.25269 
Q 125.230221 53.440138 125.230221 54.021228 
Q 125.230221 54.602317 125.230221 54.902234 
Q 125.230221 55.202152 125.211476 55.783241 
Q 125.192731 56.364331 125.117752 56.701738 
Q 125.042772 57.039145 124.930303 57.52651 
Q 124.817834 58.013876 124.611641 58.313793 
Q 124.405448 58.61371 124.143021 58.894883 
Q 123.880593 59.176055 123.505697 59.307269 
Q 123.1308 59.438483 122.643434 59.438483 
Q 121.668703 59.438483 120.91891 59.251034 
Q 120.169117 59.063586 119.306855 58.707434 
Q 118.444593 58.351283 117.807269 58.201324 
L 117.582331 57.751448 
" clip-path="url(#p4985fa5284)" style="fill: none; stroke: #000000; stroke-linejoin: miter"/>
   </g>
  </g>
  <g id="axes_9">
   <g id="patch_8">
    <path d="M 133.088772 35.145186 
Q 133.088772 35.145186 133.088772 35.595062 
Q 133.088772 36.269876 132.976303 37.619503 
Q 132.863834 38.969131 132.863834 39.643945 
Q 132.863834 41.930814 134.100993 43.599103 
Q 135.338152 45.267393 137.475062 45.267393 
Q 138.862179 45.154924 139.630717 43.917766 
Q 140.399255 42.680607 140.549214 41.237255 
Q 140.699172 39.793903 140.9616 37.9944 
Q 141.224028 36.194897 141.636414 35.370124 
Q 141.786372 35.070207 141.786372 35.670041 
Q 141.786372 36.269876 141.523945 38.706703 
Q 141.299007 41.031062 141.299007 41.555917 
Q 141.149048 42.643117 141.486455 43.767807 
Q 141.823862 44.892497 142.536166 45.6048 
" clip-path="url(#p6b27014845)" style="fill: none; stroke: #000000; stroke-linejoin: miter"/>
   </g>
  </g>
  <g id="axes_10">
   <g id="patch_9">
    <path d="M 150.6384 34.357903 
Q 150.900828 34.395393 151.238234 33.795559 
Q 151.575641 33.195724 152.100497 33.345683 
L 156.599255 29.2968 
M 149.738648 40.656166 
L 149.963586 40.656166 
Q 150.67589 40.656166 152.23171 41.330979 
Q 153.787531 42.005793 154.687283 42.005793 
Q 157.386538 42.005793 157.386538 38.744193 
Q 157.386538 36.607283 154.012469 36.607283 
Q 152.137986 36.607283 151.050786 37.750717 
Q 149.963586 38.894152 149.963586 40.768634 
Q 149.963586 43.617848 151.294469 45.454841 
Q 152.625352 47.291834 155.362097 47.291834 
Q 156.824193 47.591752 158.061352 45.6048 
" clip-path="url(#p1771db0bb5)" style="fill: none; stroke: #000000; stroke-linejoin: miter"/>
   </g>
  </g>
  <g id="axes_11">
   <g id="patch_10">
    <path d="M 173.699007 39.568966 
Q 172.349379 38.181848 170.1 38.444276 
Q 167.250786 38.444276 166.088607 39.793903 
Q 164.926428 41.143531 164.926428 44.067724 
Q 164.926428 45.56731 166.219821 46.279614 
Q 167.513214 46.991917 169.087779 46.991917 
Q 170.399917 46.991917 171.412138 45.736014 
Q 172.424359 44.48011 173.005448 42.30571 
Q 173.586538 40.13131 173.961434 37.938166 
Q 174.336331 35.745021 174.48629 33.045766 
Q 174.636248 30.34651 174.673738 28.978138 
Q 174.711228 27.609766 174.711228 26.185159 
Q 174.48629 26.260138 174.48629 29.896634 
L 174.48629 44.292662 
L 175.273572 48.229076 
" clip-path="url(#p6c6a40bbb9)" style="fill: none; stroke: #000000; stroke-linejoin: miter"/>
   </g>
  </g>
  <g id="axes_12">
   <g id="patch_11">
    <path d="M 184.013131 30.384 
L 187.274731 34.657821 
M 186.937324 37.019669 
L 186.674897 41.743366 
Q 186.787366 42.268221 186.918579 43.749062 
Q 187.049793 45.229903 187.3872 46.1484 
Q 187.724607 47.066897 188.586869 47.591752 
" clip-path="url(#p7525850634)" style="fill: none; stroke: #000000; stroke-linejoin: miter"/>
   </g>
  </g>
  <g id="axes_13">
   <g id="patch_12">
    <path d="M 198.038731 37.282097 
L 198.038731 37.844441 
Q 198.301159 39.868883 198.338648 41.312234 
Q 198.376138 42.755586 198.282414 44.667559 
Q 198.18869 46.579531 198.18869 48.191586 
L 198.263669 39.643945 
Q 198.263669 38.144359 199.856979 37.507034 
Q 201.45029 36.86971 202.874897 37.282097 
Q 204.786869 37.844441 205.705366 39.04411 
Q 206.623862 40.243779 206.680097 41.668386 
Q 206.736331 43.092993 206.773821 44.817517 
Q 206.81131 46.542041 206.961269 48.191586 
" clip-path="url(#pc2f6784b9e)" style="fill: none; stroke: #000000; stroke-linejoin: miter"/>
   </g>
  </g>
  <g id="axes_14">
   <g id="patch_13">
    <path d="M 223.487191 39.096404 
Q 223.23236 39.023596 222.26764 38.623146 
Q 221.302921 38.222697 220.64764 38.077079 
Q 219.99236 37.931461 219.337079 38.00427 
Q 216.715955 38.00427 215.077753 40.388764 
Q 213.439551 42.773258 213.439551 45.430787 
Q 213.439551 47.068989 218.681798 47.068989 
Q 220.247191 47.068989 221.575955 45.558202 
Q 222.904719 44.047416 223.578202 42.172584 
Q 224.251685 40.297753 224.251685 38.768764 
Q 224.251685 37.27618 224.215281 36.984944 
L 224.142472 38.077079 
Q 224.142472 38.550337 224.142472 38.987191 
Q 224.178876 40.188539 224.379101 42.281798 
Q 224.579326 44.375056 224.743146 46.049663 
Q 224.906966 47.72427 224.943371 49.872135 
Q 224.979775 52.02 224.815955 53.658202 
Q 224.652135 55.296404 224.087865 56.971011 
Q 223.523596 58.645618 222.595281 59.737753 
Q 221.666966 60.829888 220.065169 61.521573 
Q 218.463371 62.213258 216.315506 62.213258 
Q 214.677303 62.213258 213.585169 61.466966 
Q 212.493034 60.720674 212.493034 59.155281 
Q 212.420225 58.936854 212.456629 58.936854 
Q 212.493034 58.936854 212.602247 58.936854 
Q 212.711461 58.936854 212.711461 58.82764 
" clip-path="url(#pa2d31ee7ee)" style="fill: none; stroke: #000000; stroke-linejoin: miter"/>
   </g>
  </g>
 </g>
 <defs>
  <clipPath id="pc35bf62653">
   <rect x="0" y="11.850612" width="16.2" height="47.938776"/>
  </clipPath>
  <clipPath id="pd73561c6b5">
   <rect x="19.726262" y="8.64" width="9.147476" height="54.36"/>
  </clipPath>
  <clipPath id="p8503ecb610">
   <rect x="48.6" y="13.233462" width="16.2" height="45.173077"/>
  </clipPath>
  <clipPath id="pcc3f697200">
   <rect x="66.189352" y="8.64" width="13.421297" height="54.36"/>
  </clipPath>
  <clipPath id="pcdfe14bd87">
   <rect x="82.051945" y="8.64" width="14.09611" height="54.36"/>
  </clipPath>
  <clipPath id="p4985fa5284">
   <rect x="115.707848" y="8.64" width="11.584303" height="54.36"/>
  </clipPath>
  <clipPath id="p6b27014845">
   <rect x="130.989352" y="8.64" width="13.421297" height="54.36"/>
  </clipPath>
  <clipPath id="p1771db0bb5">
   <rect x="147.864166" y="8.64" width="12.071669" height="54.36"/>
  </clipPath>
  <clipPath id="p6c6a40bbb9">
   <rect x="163.051945" y="8.64" width="14.09611" height="54.36"/>
  </clipPath>
  <clipPath id="p7525850634">
   <rect x="182.138648" y="8.64" width="8.322703" height="54.36"/>
  </clipPath>
  <clipPath id="pc2f6784b9e">
   <rect x="196.164248" y="8.64" width="12.671503" height="54.36"/>
  </clipPath>
  <clipPath id="pa2d31ee7ee">
   <rect x="210.6" y="9.426742" width="16.2" height="52.786517"/>
  </clipPath>
 </defs>
</svg>
