<?xml version="1.0" encoding="utf-8" standalone="no"?>
<!DOCTYPE svg PUBLIC "-//W3C//DTD SVG 1.1//EN"
  "http://www.w3.org/Graphics/SVG/1.1/DTD/svg11.dtd">
<svg xmlns:xlink="http://www.w3.org/1999/xlink" width="405pt" height="162pt" viewBox="0 0 405 162" xmlns="http://www.w3.org/2000/svg" version="1.1">
 <metadata>
  <rdf:RDF xmlns:dc="http://purl.org/dc/elements/1.1/" xmlns:cc="http://creativecommons.org/ns#" xmlns:rdf="http://www.w3.org/1999/02/22-rdf-syntax-ns#">
   <cc:Work>
    <dc:type rdf:resource="http://purl.org/dc/dcmitype/StillImage"/>
    <dc:date>2023-02-15T23:05:51.405326</dc:date>
    <dc:format>image/svg+xml</dc:format>
    <dc:creator>
     <cc:Agent>
      <dc:title>Matplotlib v3.6.1, https://matplotlib.org/</dc:title>
     </cc:Agent>
    </dc:creator>
   </cc:Work>
  </rdf:RDF>
 </metadata>
 <defs>
  <style type="text/css">*{stroke-linejoin: round; stroke-linecap: butt}</style>
 </defs>
 <g id="figure_1">
  <g id="patch_1">
   <path d="M 0 162 
L 405 162 
L 405 0 
L 0 0 
z
" style="fill: #8fff9f"/>
  </g>
  <g id="axes_1">
   <g id="patch_2">
    <path d="M 14.783916 83.245909 
L 21.513147 83.245909 
M 14.019231 76.516678 
Q 14.223147 76.210804 15.11528 76.516678 
Q 16.007413 76.822552 16.16035 76.363741 
L 21.819021 76.363741 
L 22.124895 82.17535 
M 13.254545 76.210804 
Q 13.050629 77.434301 13.509441 79.932273 
Q 13.968252 82.430245 14.019231 82.940035 
L 14.019231 83.857657 
M 3.313636 69.328636 
L 3.772448 69.328636 
Q 9.329161 69.328636 18.73479 68.64042 
Q 28.14042 67.952203 33.697133 67.952203 
Q 33.799091 67.952203 33.85007 68.334545 
Q 33.901049 68.716888 33.901049 69.12472 
L 33.85007 69.481573 
Q 33.901049 73.203042 32.626573 80.62049 
Q 31.352098 88.037937 31.403077 91.810385 
Q 31.403077 92.728007 31.148182 94.333846 
Q 30.893287 95.939685 30.485455 95.939685 
Q 30.077622 95.633811 29.109021 94.15542 
Q 28.14042 92.677028 27.120839 92.422133 
M 2.548951 70.093322 
Q 3.568531 81.818497 3.466573 93.033881 
M 19.168112 63.211154 
Q 18.811259 63.618986 17.71521 64.46014 
Q 16.619161 65.301294 16.211329 65.454231 
L 13.152587 68.207098 
" clip-path="url(#p0f201d20f0)" style="fill: none; stroke: #000000; stroke-linejoin: miter"/>
   </g>
  </g>
  <g id="axes_2">
   <g id="patch_3">
    <path d="M 47.882884 92.089351 
L 48.251686 92.089351 
Q 49.296627 92.089351 50.771838 91.935683 
Q 52.247049 91.782015 53.968128 91.505413 
Q 55.689207 91.228811 56.365346 91.167344 
L 62.266189 91.351745 
M 47.514081 81.209671 
L 63.372597 80.595 
L 63.372597 81.517007 
Q 63.372597 83.36102 62.327656 87.387116 
Q 61.282715 91.413212 61.159781 92.089351 
M 46.960877 81.947277 
L 48.067285 91.167344 
M 47.206745 73.403347 
L 62.757926 72.788676 
M 40.875632 63.875944 
L 69.519309 63.015405 
L 69.519309 63.384207 
Q 69.150506 70.57586 69.211973 75.124427 
Q 69.27344 79.672993 69.550042 87.448583 
Q 69.826644 95.224174 69.826644 99.219536 
Q 69.826644 100.817681 69.089039 102.477293 
Q 68.597302 103.768103 68.228499 102.231425 
L 68.167032 101.985556 
L 65.032209 99.957142 
M 41.244435 64.797951 
L 40.691231 96.269115 
L 39.523356 102.292892 
" clip-path="url(#p5cdbee696f)" style="fill: none; stroke: #000000; stroke-linejoin: miter"/>
   </g>
  </g>
  <g id="axes_3">
   <g id="patch_4">
    <path d="M 90.512791 66.278721 
L 90.371512 97.831047 
L 89.382558 97.831047 
Q 89.052907 97.831047 88.840988 97.73686 
Q 88.62907 97.642674 88.393605 97.501395 
Q 88.15814 97.360116 87.969767 97.26593 
L 87.122093 96.983372 
M 77.138372 87.329302 
L 77.42093 87.329302 
Q 81.753488 87.329302 83.448837 87.093837 
L 106.995349 86.811279 
M 81.612209 90.908372 
Q 81.894767 90.767093 82.695349 90.79064 
Q 83.49593 90.814186 83.731395 90.484535 
L 100.355233 90.154884 
L 102.474419 90.437442 
M 82.883721 83.467674 
L 101.202907 82.714186 
L 100.920349 83.985698 
L 99.931395 89.731047 
M 81.94186 80.12407 
L 101.438372 79.841512 
M 82.08314 74.661279 
L 95.033721 74.378721 
L 98.047674 73.813605 
L 98.471512 73.813605 
Q 98.518605 73.813605 99.743023 73.389767 
L 99.601744 79.700233 
M 81.376744 74.237442 
Q 81.565116 74.425814 81.518023 75.014477 
Q 81.47093 75.60314 81.800581 75.791512 
L 82.08314 79.700233 
M 75.254651 70.799651 
Q 75.584302 70.611279 76.102326 70.54064 
Q 76.620349 70.47 77.044186 70.517093 
Q 77.468023 70.564186 77.938953 70.517093 
L 85.568023 70.517093 
Q 87.969767 70.517093 106.430233 69.951977 
" clip-path="url(#pcc9cd0b5dc)" style="fill: none; stroke: #000000; stroke-linejoin: miter"/>
   </g>
  </g>
  <g id="axes_4">
   <g id="patch_5">
    <path d="M 129.782376 67.577143 
Q 129.782376 67.577143 130.631366 67.577143 
Q 131.989752 67.577143 134.678222 66.982849 
Q 137.366693 66.388556 138.781677 66.388556 
L 139.970264 66.388556 
Q 140.36646 66.388556 140.621157 66.218758 
Q 140.875854 66.04896 141.158851 66.04896 
Q 141.781444 66.388556 141.809744 67.690342 
Q 141.838043 68.992127 141.611646 70.237314 
Q 141.385248 71.4825 141.668245 72.501289 
Q 142.687034 75.274658 142.828533 79.406413 
Q 142.970031 83.538168 142.658734 89.198106 
Q 142.347438 94.858043 142.347438 96.556025 
Q 142.347438 96.839022 142.319138 96.867321 
Q 142.290839 96.895621 142.12104 96.895621 
Q 142.064441 96.895621 142.007842 96.895621 
Q 141.158851 96.895621 140.30986 96.556025 
Q 139.46087 96.216429 138.52698 95.650435 
Q 137.59309 95.084441 137.083696 94.858043 
L 136.913898 94.348649 
M 125.141227 65.596165 
L 127.688199 70.520311 
M 124.122438 70.067516 
L 124.122438 70.916506 
Q 124.235637 74.482267 124.009239 81.047795 
Q 123.782842 87.613323 123.782842 90.273494 
Q 123.782842 90.443292 123.782842 90.896087 
Q 123.782842 92.028075 123.697943 92.169573 
Q 123.613043 92.311071 123.443245 91.631879 
M 116.821118 68.992127 
Q 116.65132 69.048727 116.62302 69.161925 
Q 116.59472 69.275124 116.62302 69.444922 
Q 116.65132 69.61472 116.65132 69.67132 
Q 116.59472 83.085373 116.990916 87.669922 
Q 117.047516 88.518913 116.934317 91.57528 
Q 116.821118 94.631646 117.160714 95.424037 
M 122.028261 60.389022 
L 122.028261 60.898416 
Q 122.028261 62.200202 120.613276 64.20948 
Q 119.198292 66.218758 117.160714 68.454433 
Q 115.123137 70.690109 114.726941 71.256102 
L 112.179969 73.123882 
" clip-path="url(#p537cb99f2f)" style="fill: none; stroke: #000000; stroke-linejoin: miter"/>
   </g>
  </g>
  <g id="axes_5">
   <g id="patch_6">
    <path d="M 167.372449 80.140408 
Q 169.232143 81.834796 170.905867 84.066429 
Q 172.579592 86.298061 173.633418 88.013112 
Q 174.687245 89.728163 176.422959 91.753163 
Q 178.158673 93.778163 180.183673 95.307245 
M 174.811224 75.181224 
L 174.811224 75.801122 
Q 174.15 85.058265 166.669898 92.827653 
M 168.364286 75.47051 
L 169.232143 75.47051 
Q 170.22398 75.47051 172.18699 75.201888 
Q 174.15 74.933265 175.059184 74.933265 
L 179.398469 74.561327 
M 170.678571 68.445 
Q 170.430612 69.478163 169.397449 72.639643 
Q 168.364286 75.801122 168.116327 76.834286 
L 166.256633 81.008265 
M 157.164796 88.984286 
Q 158.487245 89.108265 160.780867 88.922296 
Q 163.07449 88.736327 164.272959 89.190918 
M 156.627551 83.405204 
Q 161.008163 83.239898 164.396939 82.785306 
Q 164.644898 82.950612 164.644898 83.033265 
Q 164.438265 84.686327 164.190306 85.988112 
Q 163.942347 87.289898 163.777041 89.149592 
M 156.379592 83.405204 
L 156.99949 89.397551 
M 156.04898 76.999592 
Q 157.164796 76.751633 160.780867 76.503673 
Q 164.396939 76.255714 166.091327 75.801122 
M 161.008163 69.064898 
Q 160.801531 70.635306 160.842857 73.362857 
Q 160.884184 76.090408 160.801531 77.743469 
L 160.594898 82.826633 
M 153.569388 74.189388 
L 153.280102 95.348571 
M 155.181122 68.238367 
L 155.181122 68.858265 
Q 155.181122 70.635306 154.292602 72.43301 
Q 153.404082 74.230714 151.957653 76.297041 
Q 150.511224 78.363367 149.97398 79.396531 
L 147.866327 81.008265 
" clip-path="url(#p4003adcc80)" style="fill: none; stroke: #000000; stroke-linejoin: miter"/>
   </g>
  </g>
  <g id="axes_6">
   <g id="patch_7">
    <path d="M 184.456416 79.138765 
L 185.118341 79.138765 
Q 190.457869 78.697482 200.783898 78.763674 
Q 211.109927 78.829867 216.493584 78.47684 
" clip-path="url(#p543fd42837)" style="fill: none; stroke: #000000; stroke-linejoin: miter"/>
   </g>
  </g>
  <g id="axes_7">
   <g id="patch_8">
    <path d="M 238.164093 79.872195 
Q 239.609703 82.298754 240.616466 83.770177 
Q 241.623229 85.241601 243.223725 87.177684 
Q 244.824221 89.113768 246.682861 90.378676 
Q 248.541501 91.643584 250.709915 92.26313 
L 252.568555 92.418017 
M 238.78364 75.070708 
Q 238.732011 75.122337 238.757826 75.535368 
Q 238.78364 75.948399 238.78364 76.000028 
Q 238.78364 78.581473 238.112465 80.569186 
Q 237.441289 82.556898 236.589412 83.641105 
Q 235.737535 84.725312 234.472627 86.480694 
Q 233.20772 88.236076 232.433286 89.93983 
L 229.645326 91.79847 
M 233.827266 69.959448 
L 246.992635 67.945921 
Q 246.631232 68.668725 245.830984 70.862953 
Q 245.030737 73.057181 244.359561 74.141388 
M 234.911473 66.551941 
Q 234.859844 66.810085 234.885659 67.713591 
Q 234.911473 68.617096 234.911473 68.875241 
L 234.13704 73.521841 
M 228.870892 80.646629 
Q 228.767635 80.853144 228.328789 81.29199 
Q 227.889943 81.730836 227.941572 82.195496 
L 223.604745 87.926303 
M 221.281445 70.114334 
L 229.490439 72.902295 
" clip-path="url(#pcdb5dbf546)" style="fill: none; stroke: #000000; stroke-linejoin: miter"/>
   </g>
  </g>
  <g id="axes_8">
   <g id="patch_9">
    <path d="M 275.784407 86.196356 
Q 277.473051 86.567034 278.87339 87.349576 
Q 280.273729 88.132119 281.30339 89.079407 
Q 282.333051 90.026695 283.321525 90.994576 
Q 284.31 91.962458 285.648559 92.889153 
Q 286.987119 93.815847 288.552203 94.351271 
L 289.540678 94.474831 
M 274.960678 84.590085 
Q 276.361017 84.17822 279.326441 83.622203 
Q 282.291864 83.066186 284.104068 82.489576 
Q 284.268814 87.679068 276.566949 93.033305 
M 272.365932 71.492797 
Q 272.324746 71.657542 272.510085 71.636949 
Q 272.695424 71.616356 272.73661 71.616356 
Q 275.578475 70.586695 282.868475 69.515847 
Q 284.145254 69.392288 284.104068 70.380763 
Q 284.062881 71.039746 282.744915 73.716864 
Q 281.426949 76.31161 281.88 77.135339 
Q 282.044746 77.423644 281.94178 77.835508 
Q 281.838814 78.247373 281.509322 78.247373 
Q 280.850339 78.123814 279.820678 77.217712 
Q 278.791017 76.31161 278.17322 76.146864 
M 273.354407 71.122119 
L 273.354407 71.369237 
Q 273.354407 72.357712 273.663305 74.478814 
Q 273.972203 76.599915 273.972203 77.670763 
L 273.972203 80.883305 
L 274.095763 93.733475 
L 273.972203 94.969068 
M 257.209322 87.555508 
L 257.456441 87.555508 
Q 262.398814 85.702119 267.711864 81.253983 
Q 268.823898 80.141949 269.812373 79.524153 
M 258.321356 77.135339 
L 259.309831 77.135339 
Q 260.01 77.135339 260.64839 77.032373 
Q 261.28678 76.929407 262.110508 76.764661 
Q 262.934237 76.599915 263.510847 76.517542 
L 271.171525 75.405508 
M 264.252203 69.59822 
L 264.252203 72.192966 
Q 264.252203 74.993644 264.787627 80.821525 
Q 265.323051 86.649407 265.240678 89.73839 
Q 265.240678 90.191441 265.117119 91.200508 
Q 264.993559 92.209576 264.993559 92.703814 
L 264.993559 93.568729 
Q 264.993559 94.310085 264.622881 94.310085 
Q 264.211017 94.310085 263.902119 94.062966 
Q 263.59322 93.815847 263.284322 93.403983 
Q 262.975424 92.992119 262.769492 92.827373 
L 261.28678 91.427034 
" clip-path="url(#p40b21cf7ae)" style="fill: none; stroke: #000000; stroke-linejoin: miter"/>
   </g>
  </g>
  <g id="axes_9">
   <g id="patch_10">
    <path d="M 303.511179 89.640332 
L 304.317199 89.640332 
Q 306.287469 89.729889 310.720577 88.767144 
Q 315.153686 87.804398 317.616523 88.162629 
M 302.033477 82.654828 
Q 310.944472 81.266683 315.198464 80.102432 
L 315.735811 80.102432 
L 315.870147 88.699975 
M 300.824447 81.714472 
Q 300.869226 81.804029 301.249846 82.520491 
Q 301.630467 83.236953 301.89914 83.595184 
L 303.779853 90.580688 
M 293.838943 79.02774 
L 294.644963 79.02774 
Q 298.227273 79.02774 302.27976 78.60234 
Q 306.332248 78.176941 311.302703 77.460479 
Q 316.273157 76.744017 318.959889 76.475344 
L 325.811057 76.341007 
M 309.153317 66.937445 
L 309.153317 69.48984 
L 309.153317 72.042236 
L 308.884644 76.475344 
M 302.839496 72.176572 
L 314.661118 72.042236 
M 303.511179 69.758514 
Q 303.063391 70.385418 303.242506 70.967543 
L 301.09312 74.997641 
" clip-path="url(#p00201d43dd)" style="fill: none; stroke: #000000; stroke-linejoin: miter"/>
   </g>
  </g>
  <g id="axes_10">
   <g id="patch_11">
    <path d="M 347.329397 94.597386 
Q 347.329397 94.597386 345.55801 94.597386 
Q 343.280514 94.597386 341.88871 96.326597 
Q 340.496907 98.055807 340.496907 100.417655 
Q 340.412555 102.779503 342.057414 104.086955 
Q 343.702272 105.394407 346.064121 104.972648 
Q 346.738934 104.888297 347.835507 104.803945 
Q 348.932079 104.719593 349.522541 104.635241 
Q 350.113003 104.55089 350.829993 104.213483 
Q 351.546983 103.876076 351.842214 103.074734 
Q 352.137445 102.273393 352.137445 100.923766 
Q 352.137445 100.333303 351.88439 99.742841 
Q 351.631334 99.152379 351.209576 98.43539 
Q 350.787817 97.7184 350.619114 97.380993 
L 348.088562 95.862662 
" clip-path="url(#p90dc0b8d0a)" style="fill: none; stroke: #000000; stroke-linejoin: miter"/>
   </g>
  </g>
 </g>
 <defs>
  <clipPath id="p0f201d20f0">
   <rect x="0" y="43.63521" width="36.45" height="73.91958"/>
  </clipPath>
  <clipPath id="p5cdbee696f">
   <rect x="36.45" y="36.031341" width="36.45" height="89.127319"/>
  </clipPath>
  <clipPath id="pcc9cd0b5dc">
   <rect x="72.9" y="46.452558" width="36.45" height="68.284884"/>
  </clipPath>
  <clipPath id="p537cb99f2f">
   <rect x="109.35" y="39.56045" width="36.45" height="82.069099"/>
  </clipPath>
  <clipPath id="p4003adcc80">
   <rect x="145.8" y="50.633265" width="36.45" height="59.923469"/>
  </clipPath>
  <clipPath id="p543fd42837">
   <rect x="182.25" y="48.601961" width="36.45" height="63.986077"/>
  </clipPath>
  <clipPath id="pcdb5dbf546">
   <rect x="218.7" y="43.164051" width="36.45" height="74.861898"/>
  </clipPath>
  <clipPath id="p40b21cf7ae">
   <rect x="255.15" y="50.734831" width="36.45" height="59.720339"/>
  </clipPath>
  <clipPath id="p00201d43dd">
   <rect x="291.6" y="48.130319" width="36.45" height="64.929361"/>
  </clipPath>
  <clipPath id="p90dc0b8d0a">
   <rect x="336.194969" y="19.44" width="20.160062" height="122.31"/>
  </clipPath>
 </defs>
</svg>
