<?xml version="1.0" encoding="utf-8" standalone="no"?>
<!DOCTYPE svg PUBLIC "-//W3C//DTD SVG 1.1//EN"
  "http://www.w3.org/Graphics/SVG/1.1/DTD/svg11.dtd">
<svg xmlns:xlink="http://www.w3.org/1999/xlink" width="162pt" height="162pt" viewBox="0 0 162 162" xmlns="http://www.w3.org/2000/svg" version="1.1">
 <metadata>
  <rdf:RDF xmlns:dc="http://purl.org/dc/elements/1.1/" xmlns:cc="http://creativecommons.org/ns#" xmlns:rdf="http://www.w3.org/1999/02/22-rdf-syntax-ns#">
   <cc:Work>
    <dc:type rdf:resource="http://purl.org/dc/dcmitype/StillImage"/>
    <dc:date>2023-02-15T23:06:34.886328</dc:date>
    <dc:format>image/svg+xml</dc:format>
    <dc:creator>
     <cc:Agent>
      <dc:title>Matplotlib v3.6.1, https://matplotlib.org/</dc:title>
     </cc:Agent>
    </dc:creator>
   </cc:Work>
  </rdf:RDF>
 </metadata>
 <defs>
  <style type="text/css">*{stroke-linejoin: round; stroke-linecap: butt}</style>
 </defs>
 <g id="figure_1">
  <g id="patch_1">
   <path d="M 0 162 
L 162 162 
L 162 0 
L 0 0 
z
" style="fill: #8fff9f"/>
  </g>
  <g id="axes_1">
   <g id="patch_2">
    <path d="M 23.768088 68.836935 
Q 23.726094 68.962915 23.768088 69.466832 
Q 23.768088 70.810611 24.146025 75.49284 
Q 24.523963 80.175069 24.230012 82.610668 
L 23.852074 86.138088 
M 16.839228 80.469021 
L 17.469124 80.343041 
L 31.200864 76.689643 
L 30.19303 83.870461 
L 29.437154 85.256233 
L 27.967396 82.90462 
M 18.854896 75.051912 
L 19.106855 78.201394 
L 19.736751 82.736647 
L 19.98871 88.741659 
Q 20.072696 90.211417 20.744585 91.072275 
Q 21.416475 91.933134 22.613278 92.185092 
Q 23.810081 92.437051 24.922897 92.479044 
Q 26.035714 92.521037 27.589459 92.437051 
Q 29.143203 92.353065 29.941071 92.395058 
Q 30.319009 92.437051 31.074885 92.374061 
Q 31.83076 92.311071 32.586636 92.01712 
Q 33.342512 91.723168 33.216532 91.261244 
L 34.350346 87.145922 
M 13.05985 77.571498 
L 13.05985 77.823456 
Q 13.05985 82.022765 11.653082 84.773312 
Q 10.246313 87.523859 7.012846 90.169424 
L 2.099654 93.906809 
M 2.603571 80.427028 
L 3.233468 80.427028 
Q 4.157316 80.427028 6.361953 79.902114 
Q 8.56659 79.3772 9.532431 79.335207 
L 13.311809 78.705311 
M 9.154493 71.020576 
L 9.154493 71.776452 
Q 8.776555 73.078237 8.56659 76.773629 
Q 8.356624 80.469021 7.768721 81.854793 
Q 7.726728 81.980772 7.369787 82.631665 
Q 7.012846 83.282558 6.844873 83.786475 
Q 6.676901 84.290392 6.844873 84.54235 
Q 7.684735 86.054101 10.624251 88.468704 
Q 13.563767 90.883306 14.067684 91.429217 
L 15.579435 92.185092 
" clip-path="url(#p4c08a6c3c8)" style="fill: none; stroke: #000000; stroke-linejoin: miter"/>
   </g>
  </g>
  <g id="axes_2">
   <g id="patch_3">
    <path d="M 43.882321 68.972115 
L 44.238124 68.972115 
Q 44.238124 68.972115 45.424132 69.68372 
L 48.389154 72.292939 
M 62.542191 69.802321 
Q 61.830586 70.158124 60.782945 71.284832 
Q 59.735304 72.41154 59.102766 72.767343 
M 53.528525 69.327918 
Q 53.726193 69.486052 54.536632 70.019756 
Q 55.347072 70.55346 55.663341 70.98833 
L 56.730748 71.581334 
M 59.853905 80.792668 
L 60.091106 90.63654 
Q 59.853905 92.178351 61.830586 93.186459 
Q 63.807267 94.194566 65.58628 94.194566 
Q 65.783948 94.194566 67.464127 94.253867 
Q 69.144306 94.313167 69.381508 94.313167 
Q 70.330315 94.313167 70.60705 93.759696 
Q 70.883785 93.206226 70.765184 92.553921 
Q 70.646584 91.901616 70.923319 91.348145 
M 57.600488 80.595 
L 57.600488 80.950803 
Q 57.600488 86.801779 52.38205 94.313167 
L 52.144848 95.024772 
M 54.833134 79.764794 
L 63.609599 79.646193 
M 54.002928 73.597549 
L 56.256345 73.597549 
L 63.135195 73.597549 
Q 63.135195 74.388221 63.056128 75.317261 
Q 62.977061 76.246302 62.838693 77.412543 
Q 62.700325 78.578785 62.660792 79.17179 
M 54.24013 74.190553 
L 54.24013 74.664957 
L 54.24013 76.206768 
L 54.833134 79.053189 
M 38.426681 79.685727 
L 38.663883 79.685727 
Q 40.205694 79.685727 43.170716 78.618319 
Q 46.135738 77.550911 47.558948 77.550911 
Q 47.677549 77.550911 47.677549 78.143915 
Q 47.558948 80.634534 46.827576 84.983232 
Q 46.096204 89.331931 46.017137 91.980683 
Q 46.017137 92.415553 45.839235 93.127158 
Q 45.661334 93.838764 45.661334 94.2341 
Q 48.033351 89.569132 50.52397 88.541258 
" clip-path="url(#p0f2497c369)" style="fill: none; stroke: #000000; stroke-linejoin: miter"/>
   </g>
  </g>
  <g id="axes_3">
   <g id="patch_4">
    <path d="M 98.823866 70.547327 
Q 99.476313 70.721313 100.107011 71.11278 
Q 100.737709 71.504248 101.607637 72.221939 
Q 102.477566 72.93963 102.738544 73.157112 
M 97.388484 83.857232 
Q 98.214916 83.987721 100.041766 85.488347 
Q 101.868616 86.988974 102.608055 86.727995 
M 94.778699 76.810811 
L 93.212828 80.986468 
Q 90.907518 84.422685 86.035919 87.510931 
M 87.732279 76.941301 
L 88.254236 76.941301 
Q 89.950597 76.941301 91.842691 76.767315 
Q 93.734785 76.593329 96.061844 76.310603 
Q 98.388902 76.027876 99.606802 75.897387 
L 100.911695 75.766897 
M 95.039678 68.981456 
L 94.909189 81.508425 
Q 94.517721 85.249117 94.517721 85.292613 
L 94.517721 86.727995 
L 94.126253 92.469523 
M 78.598031 69.981874 
L 83.295644 73.374594 
M 75.074821 95.209797 
Q 75.20531 95.166301 75.944749 94.840078 
Q 76.684189 94.513854 77.162649 94.557351 
Q 78.337053 94.426862 79.554952 94.144135 
Q 80.772852 93.861408 81.360054 93.774415 
Q 81.947255 93.687422 83.817601 93.774415 
Q 84.774523 93.643926 85.731444 93.622178 
Q 86.688365 93.60043 87.710531 93.730919 
Q 88.732697 93.861408 89.515632 93.948401 
Q 90.298568 94.035394 91.429475 94.318121 
Q 92.560382 94.600847 93.169332 94.753085 
Q 93.778282 94.905322 95.061426 95.253294 
Q 96.34457 95.601265 96.866527 95.731754 
Q 97.866945 95.992733 100.389737 95.992733 
L 102.477566 95.992733 
L 107.175179 94.426862 
M 75.248807 79.246611 
Q 75.553282 79.203115 80.207399 77.593747 
Q 84.296062 76.245358 84.296062 76.984797 
Q 84.296062 77.506754 82.773687 78.855143 
Q 81.64278 79.855561 80.511874 81.44318 
Q 79.380967 83.0308 79.380967 84.074714 
Q 79.598449 84.640167 80.598866 85.162124 
Q 81.599284 85.684081 82.295227 86.314779 
Q 82.991169 86.945477 82.773687 87.989391 
Q 82.512709 89.33778 81.708025 90.468687 
Q 80.903341 91.599594 80.424881 92.730501 
L 80.033413 93.513437 
" clip-path="url(#ped62ee9a1c)" style="fill: none; stroke: #000000; stroke-linejoin: miter"/>
   </g>
  </g>
  <g id="axes_4">
   <g id="patch_5">
    <path d="M 127.778253 73.548903 
L 127.778253 74.158662 
Q 127.778253 74.836171 127.575 76.258941 
Q 127.371747 77.68171 127.371747 78.42697 
Q 127.236245 82.356524 128.523513 89.504247 
Q 129.810781 96.65197 130.014033 98.345743 
Q 130.420539 102.139796 130.420539 102.207546 
Q 130.420539 102.614052 130.318913 102.715678 
Q 130.217286 102.817305 129.810781 102.817305 
Q 129.133271 102.817305 127.94763 102.072045 
Q 126.761989 101.326784 125.40697 100.24277 
Q 124.051952 99.158755 123.713197 98.955502 
L 120.867658 97.532732 
M 112.737546 69.077342 
L 116.192844 69.077342 
Q 120.664405 69.077342 129.336524 67.45132 
Q 138.008643 65.825297 142.412454 65.825297 
Q 141.057435 67.044814 135.874489 70.36461 
Q 130.691543 73.684405 128.591264 75.987937 
" clip-path="url(#p65c8b2f089)" style="fill: none; stroke: #000000; stroke-linejoin: miter"/>
   </g>
  </g>
 </g>
 <defs>
  <clipPath id="p4c08a6c3c8">
   <rect x="0" y="50.150012" width="36.45" height="60.889977"/>
  </clipPath>
  <clipPath id="p0f2497c369">
   <rect x="36.45" y="51.933124" width="36.45" height="57.323753"/>
  </clipPath>
  <clipPath id="ped62ee9a1c">
   <rect x="72.9" y="49.060095" width="36.45" height="63.069809"/>
  </clipPath>
  <clipPath id="p65c8b2f089">
   <rect x="109.35" y="31.475576" width="36.45" height="98.238848"/>
  </clipPath>
 </defs>
</svg>
