<?xml version="1.0" encoding="utf-8" standalone="no"?>
<!DOCTYPE svg PUBLIC "-//W3C//DTD SVG 1.1//EN"
  "http://www.w3.org/Graphics/SVG/1.1/DTD/svg11.dtd">
<svg xmlns:xlink="http://www.w3.org/1999/xlink" width="126pt" height="72pt" viewBox="0 0 126 72" xmlns="http://www.w3.org/2000/svg" version="1.1">
 <metadata>
  <rdf:RDF xmlns:dc="http://purl.org/dc/elements/1.1/" xmlns:cc="http://creativecommons.org/ns#" xmlns:rdf="http://www.w3.org/1999/02/22-rdf-syntax-ns#">
   <cc:Work>
    <dc:type rdf:resource="http://purl.org/dc/dcmitype/StillImage"/>
    <dc:date>2023-02-14T21:26:05.464736</dc:date>
    <dc:format>image/svg+xml</dc:format>
    <dc:creator>
     <cc:Agent>
      <dc:title>Matplotlib v3.6.1, https://matplotlib.org/</dc:title>
     </cc:Agent>
    </dc:creator>
   </cc:Work>
  </rdf:RDF>
 </metadata>
 <defs>
  <style type="text/css">*{stroke-linejoin: round; stroke-linecap: butt}</style>
 </defs>
 <g id="figure_1">
  <g id="patch_1">
   <path d="M 0 72 
L 126 72 
L 126 0 
L 0 0 
z
" style="fill: #8fff9f"/>
  </g>
  <g id="axes_1">
   <g id="patch_2">
    <path d="M 18.48629 26.674839 
Q 18.453629 26.772823 18.48629 27.164758 
Q 18.48629 28.209919 18.780242 31.851653 
Q 19.074194 35.493387 18.845565 37.387742 
L 18.551613 40.13129 
M 13.097177 35.722016 
L 13.587097 35.624032 
L 24.267339 32.7825 
L 23.483468 38.367581 
L 22.895565 39.445403 
L 21.752419 37.616371 
M 14.664919 31.50871 
L 14.860887 33.958306 
L 15.350806 37.485726 
L 15.546774 42.15629 
Q 15.612097 43.299435 16.134677 43.968992 
Q 16.657258 44.638548 17.588105 44.834516 
Q 18.518952 45.030484 19.384476 45.063145 
Q 20.25 45.095806 21.458468 45.030484 
Q 22.666935 44.965161 23.2875 44.997823 
Q 23.581452 45.030484 24.169355 44.981492 
Q 24.757258 44.9325 25.345161 44.703871 
Q 25.933065 44.475242 25.835081 44.115968 
L 26.716935 40.915161 
M 10.157661 33.468387 
L 10.157661 33.664355 
Q 10.157661 36.930484 9.063508 39.069798 
Q 7.969355 41.209113 5.454435 43.266774 
L 1.633065 46.173629 
M 2.025 35.689355 
L 2.514919 35.689355 
Q 3.233468 35.689355 4.948185 35.281089 
Q 6.662903 34.872823 7.414113 34.840161 
L 10.353629 34.350242 
M 7.120161 28.373226 
L 7.120161 28.961129 
Q 6.82621 29.973629 6.662903 32.847823 
Q 6.499597 35.722016 6.042339 36.799839 
Q 6.009677 36.897823 5.732056 37.404073 
Q 5.454435 37.910323 5.32379 38.302258 
Q 5.193145 38.694194 5.32379 38.890161 
Q 5.977016 40.065968 8.263306 41.943992 
Q 10.549597 43.822016 10.941532 44.246613 
L 12.117339 44.834516 
" clip-path="url(#p4fff454179)" style="fill: none; stroke: #000000; stroke-linejoin: miter"/>
   </g>
  </g>
  <g id="axes_2">
   <g id="patch_3">
    <path d="M 34.130694 26.779978 
L 34.40743 26.779978 
L 35.329881 27.333449 
L 37.636009 29.362842 
M 48.643926 27.425694 
Q 48.090456 27.70243 47.275624 28.578758 
Q 46.460792 29.455087 45.968818 29.731822 
M 41.633297 27.056714 
Q 41.787039 27.179707 42.417381 27.59481 
Q 43.047722 28.009913 43.293709 28.348145 
L 44.123915 28.809371 
M 46.553037 35.973742 
L 46.737527 43.630087 
Q 46.553037 44.829273 48.090456 45.613357 
Q 49.627874 46.39744 51.011551 46.39744 
Q 51.165293 46.39744 52.472099 46.443563 
Q 53.778905 46.489685 53.963395 46.489685 
Q 54.701356 46.489685 54.916594 46.059208 
Q 55.131833 45.628731 55.039588 45.121383 
Q 54.947343 44.614035 55.162581 44.183557 
M 44.80038 35.82 
L 44.80038 36.096735 
Q 44.80038 40.647495 40.741594 46.489685 
L 40.557104 47.043156 
M 42.647993 35.174284 
L 49.474132 35.082039 
M 42.002278 30.377538 
L 43.754935 30.377538 
L 49.105152 30.377538 
Q 49.105152 30.992505 49.043655 31.715092 
Q 48.982158 32.437679 48.874539 33.344756 
Q 48.76692 34.251833 48.736171 34.713059 
M 42.186768 30.838764 
L 42.186768 31.207744 
L 42.186768 32.406931 
L 42.647993 34.620813 
M 29.887419 35.112787 
L 30.071909 35.112787 
Q 31.271095 35.112787 33.577223 34.282581 
Q 35.883351 33.452375 36.990293 33.452375 
Q 37.082538 33.452375 37.082538 33.913601 
Q 36.990293 35.850748 36.421448 39.233069 
Q 35.852603 42.61539 35.791106 44.675531 
Q 35.791106 45.013764 35.652739 45.567234 
Q 35.514371 46.120705 35.514371 46.428189 
Q 37.359273 42.799881 39.296421 42.000423 
" clip-path="url(#pe1009ef473)" style="fill: none; stroke: #000000; stroke-linejoin: miter"/>
   </g>
  </g>
  <g id="axes_3">
   <g id="patch_4">
    <path d="M 76.863007 28.005143 
Q 77.370465 28.140465 77.861008 28.44494 
Q 78.351551 28.749415 79.028162 29.307619 
Q 79.704773 29.865823 79.907757 30.034976 
M 75.746599 38.357291 
Q 76.389379 38.458783 77.810263 39.625937 
Q 79.231146 40.793091 79.806265 40.590107 
M 73.716766 32.876742 
L 72.498866 36.124475 
Q 70.705847 38.797088 66.916826 41.199057 
M 68.236217 32.978234 
L 68.642184 32.978234 
Q 69.961575 32.978234 71.433204 32.842912 
Q 72.904833 32.707589 74.714767 32.487691 
Q 76.524702 32.267792 77.471957 32.166301 
L 78.486874 32.064809 
M 73.919749 26.787243 
L 73.818258 36.530442 
Q 73.513783 39.439869 73.513783 39.473699 
L 73.513783 40.590107 
L 73.209308 45.05574 
M 61.131802 27.565346 
L 64.785501 30.204129 
M 58.391527 47.187064 
Q 58.493019 47.153234 59.068138 46.899505 
Q 59.643258 46.645776 60.015394 46.679606 
Q 60.928819 46.578115 61.876074 46.358216 
Q 62.823329 46.138317 63.280042 46.070656 
Q 63.736754 46.002995 65.191468 46.070656 
Q 65.93574 45.969165 66.680012 45.952249 
Q 67.424284 45.935334 68.219302 46.036826 
Q 69.01432 46.138317 69.62327 46.205979 
Q 70.23222 46.27364 71.111814 46.493538 
Q 71.991408 46.713437 72.465036 46.831844 
Q 72.938663 46.950251 73.936665 47.220895 
Q 74.934666 47.491539 75.340632 47.593031 
Q 76.118735 47.796014 78.080907 47.796014 
L 79.704773 47.796014 
L 83.358473 46.578115 
M 58.52685 34.771253 
Q 58.763663 34.737422 62.383532 33.485692 
Q 65.563604 32.436945 65.563604 33.012064 
Q 65.563604 33.418031 64.379535 34.466778 
Q 63.49994 35.244881 62.620346 36.479696 
Q 61.740752 37.714511 61.740752 38.526444 
Q 61.909905 38.966241 62.688007 39.372208 
Q 63.46611 39.778174 64.007399 40.268717 
Q 64.548687 40.75926 64.379535 41.571193 
Q 64.176551 42.61994 63.550686 43.499535 
Q 62.924821 44.379129 62.552685 45.258723 
L 62.24821 45.867673 
" clip-path="url(#p4f42662b18)" style="fill: none; stroke: #000000; stroke-linejoin: miter"/>
   </g>
  </g>
  <g id="axes_4">
   <g id="patch_5">
    <path d="M 99.337469 31.921076 
L 99.337469 32.258483 
Q 99.337469 32.633379 99.225 33.420662 
Q 99.112531 34.207945 99.112531 34.620331 
Q 99.037552 36.794731 99.749855 40.74989 
Q 100.462159 44.705048 100.574628 45.64229 
Q 100.799566 47.74171 100.799566 47.7792 
Q 100.799566 48.004138 100.743331 48.060372 
Q 100.687097 48.116607 100.462159 48.116607 
Q 100.087262 48.116607 99.431193 47.704221 
Q 98.775124 47.291834 98.025331 46.692 
Q 97.275538 46.092166 97.08809 45.979697 
L 95.513524 45.192414 
M 91.014766 29.446759 
L 92.926738 29.446759 
Q 95.401055 29.446759 100.199731 28.547007 
Q 104.998407 27.647255 107.435234 27.647255 
Q 106.685441 28.322069 103.817483 30.159062 
Q 100.949524 31.996055 99.787345 33.270703 
" clip-path="url(#pc03e0e6177)" style="fill: none; stroke: #000000; stroke-linejoin: miter"/>
   </g>
  </g>
 </g>
 <defs>
  <clipPath id="p4fff454179">
   <rect x="0" y="12.140565" width="28.35" height="47.358871"/>
  </clipPath>
  <clipPath id="pe1009ef473">
   <rect x="28.35" y="13.52743" width="28.35" height="44.585141"/>
  </clipPath>
  <clipPath id="p4f42662b18">
   <rect x="56.7" y="11.292852" width="28.35" height="49.054296"/>
  </clipPath>
  <clipPath id="pc03e0e6177">
   <rect x="89.140283" y="8.64" width="20.169434" height="54.36"/>
  </clipPath>
 </defs>
</svg>
