<?xml version="1.0" encoding="utf-8" standalone="no"?>
<!DOCTYPE svg PUBLIC "-//W3C//DTD SVG 1.1//EN"
  "http://www.w3.org/Graphics/SVG/1.1/DTD/svg11.dtd">
<svg xmlns:xlink="http://www.w3.org/1999/xlink" width="450pt" height="72pt" viewBox="0 0 450 72" xmlns="http://www.w3.org/2000/svg" version="1.1">
 <metadata>
  <rdf:RDF xmlns:dc="http://purl.org/dc/elements/1.1/" xmlns:cc="http://creativecommons.org/ns#" xmlns:rdf="http://www.w3.org/1999/02/22-rdf-syntax-ns#">
   <cc:Work>
    <dc:type rdf:resource="http://purl.org/dc/dcmitype/StillImage"/>
    <dc:date>2023-02-14T21:26:09.621058</dc:date>
    <dc:format>image/svg+xml</dc:format>
    <dc:creator>
     <cc:Agent>
      <dc:title>Matplotlib v3.6.1, https://matplotlib.org/</dc:title>
     </cc:Agent>
    </dc:creator>
   </cc:Work>
  </rdf:RDF>
 </metadata>
 <defs>
  <style type="text/css">*{stroke-linejoin: round; stroke-linecap: butt}</style>
 </defs>
 <g id="figure_1">
  <g id="patch_1">
   <path d="M 0 72 
L 450 72 
L 450 0 
L 0 0 
z
" style="fill: #8fff9f"/>
  </g>
  <g id="axes_1">
   <g id="patch_2">
    <path d="M 3.263834 37.95691 
L 3.938648 37.95691 
Q 4.650952 37.95691 5.438234 37.881931 
Q 6.225517 37.806952 7.181503 37.675738 
Q 8.13749 37.544524 8.662345 37.507034 
L 12.936166 35.82 
M 8.887283 30.42149 
L 8.887283 31.43371 
Q 8.887283 33.383172 8.212469 37.207117 
Q 7.537655 41.031062 7.537655 43.018014 
Q 7.537655 43.805297 7.537655 44.105214 
Q 7.537655 44.405131 7.631379 45.042455 
Q 7.725103 45.679779 7.912552 45.960952 
Q 8.1 46.242124 8.493641 46.485807 
Q 8.887283 46.72949 9.449628 46.72949 
Q 9.562097 46.692 9.880759 46.72949 
Q 10.199421 46.766979 10.386869 46.710745 
Q 10.574317 46.65451 10.574317 46.392083 
" clip-path="url(#p5c352bf033)" style="fill: none; stroke: #000000; stroke-linejoin: miter"/>
   </g>
  </g>
  <g id="axes_2">
   <g id="patch_3">
    <path d="M 19.032703 35.332634 
L 29.379848 35.332634 
M 28.592566 39.344028 
Q 28.592566 39.344028 25.668372 39.344028 
Q 18.695297 39.344028 18.695297 44.5176 
Q 18.695297 46.279614 20.45731 47.19811 
Q 22.219324 48.116607 24.206276 48.116607 
Q 25.443434 47.891669 26.249462 47.2356 
Q 27.05549 46.579531 27.411641 45.586055 
Q 27.767793 44.592579 27.936497 43.674083 
Q 28.1052 42.755586 28.255159 41.443448 
Q 28.405117 40.13131 28.592566 39.344028 
Q 29.679766 46.092166 29.792234 47.029407 
L 29.904703 48.154097 
" clip-path="url(#p0c8bf3b695)" style="fill: none; stroke: #000000; stroke-linejoin: miter"/>
   </g>
  </g>
  <g id="axes_3">
   <g id="patch_4">
    <path d="M 34.208036 34.879821 
Q 34.714286 36.073125 35.003571 42.871339 
Q 35.148214 46.632054 35.4375 46.632054 
Q 35.473661 46.632054 35.509821 46.595893 
Q 36.016071 46.017321 36.070313 44.588973 
Q 36.124554 43.160625 35.907589 41.750357 
Q 35.690625 40.340089 35.4375 38.712857 
Q 35.184375 37.085625 35.184375 36.398571 
Q 35.184375 35.169107 35.564063 33.939643 
Q 35.94375 32.710179 36.920089 32.710179 
Q 38.149554 32.710179 38.872768 34.355491 
Q 39.595982 36.000804 39.758705 37.971563 
Q 39.921429 39.942321 40.029911 41.587634 
Q 40.138393 43.232946 40.283036 43.232946 
Q 40.427679 43.232946 40.51808 41.497232 
Q 40.608482 39.761518 40.735045 37.700357 
Q 40.861607 35.639196 41.584821 33.903482 
Q 42.308036 32.167768 43.5375 32.167768 
Q 45.092411 33.035625 45.761384 34.771339 
Q 46.430357 36.507054 46.394196 38.188527 
Q 46.358036 39.87 46.376116 42.057723 
Q 46.394196 44.245446 46.791964 45.511071 
" clip-path="url(#p318cb8d60f)" style="fill: none; stroke: #000000; stroke-linejoin: miter"/>
   </g>
  </g>
  <g id="axes_4">
   <g id="patch_5">
    <path d="M 50.457798 38.160826 
Q 53.430275 39.535596 58.149083 39.721376 
Q 59.672477 39.721376 60.359862 38.550963 
Q 61.047248 37.38055 61.047248 35.82 
Q 61.047248 35.299817 60.954358 34.909679 
Q 60.861468 34.519541 60.619954 34.296606 
Q 60.37844 34.07367 60.211239 33.943624 
Q 60.044037 33.813578 59.598165 33.757844 
Q 59.152294 33.70211 58.947936 33.683532 
Q 58.743578 33.664954 58.167661 33.683532 
Q 57.591743 33.70211 57.368807 33.70211 
Q 55.325229 33.70211 53.838991 35.578486 
Q 52.352752 37.454862 52.352752 39.609908 
Q 52.352752 42.619541 54.284862 44.570229 
Q 56.216972 46.520917 59.263761 46.520917 
Q 61.418807 46.818165 62.942202 44.29156 
" clip-path="url(#p3fdbbbee8f)" style="fill: none; stroke: #000000; stroke-linejoin: miter"/>
   </g>
  </g>
  <g id="axes_5">
   <g id="patch_6">
    <path d="M 68.438731 37.282097 
L 68.438731 37.844441 
Q 68.701159 39.868883 68.738648 41.312234 
Q 68.776138 42.755586 68.682414 44.667559 
Q 68.58869 46.579531 68.58869 48.191586 
L 68.663669 39.643945 
Q 68.663669 38.144359 70.256979 37.507034 
Q 71.85029 36.86971 73.274897 37.282097 
Q 75.186869 37.844441 76.105366 39.04411 
Q 77.023862 40.243779 77.080097 41.668386 
Q 77.136331 43.092993 77.173821 44.817517 
Q 77.21131 46.542041 77.361269 48.191586 
" clip-path="url(#p868fc05d25)" style="fill: none; stroke: #000000; stroke-linejoin: miter"/>
   </g>
  </g>
  <g id="axes_6"/>
  <g id="axes_7">
   <g id="patch_7">
    <path d="M 108.899007 39.568966 
Q 107.549379 38.181848 105.3 38.444276 
Q 102.450786 38.444276 101.288607 39.793903 
Q 100.126428 41.143531 100.126428 44.067724 
Q 100.126428 45.56731 101.419821 46.279614 
Q 102.713214 46.991917 104.287779 46.991917 
Q 105.599917 46.991917 106.612138 45.736014 
Q 107.624359 44.48011 108.205448 42.30571 
Q 108.786538 40.13131 109.161434 37.938166 
Q 109.536331 35.745021 109.68629 33.045766 
Q 109.836248 30.34651 109.873738 28.978138 
Q 109.911228 27.609766 109.911228 26.185159 
Q 109.68629 26.260138 109.68629 29.896634 
L 109.68629 44.292662 
L 110.473572 48.229076 
" clip-path="url(#p6f876f086a)" style="fill: none; stroke: #000000; stroke-linejoin: miter"/>
   </g>
  </g>
  <g id="axes_8">
   <g id="patch_8">
    <path d="M 115.257798 38.160826 
Q 118.230275 39.535596 122.949083 39.721376 
Q 124.472477 39.721376 125.159862 38.550963 
Q 125.847248 37.38055 125.847248 35.82 
Q 125.847248 35.299817 125.754358 34.909679 
Q 125.661468 34.519541 125.419954 34.296606 
Q 125.17844 34.07367 125.011239 33.943624 
Q 124.844037 33.813578 124.398165 33.757844 
Q 123.952294 33.70211 123.747936 33.683532 
Q 123.543578 33.664954 122.967661 33.683532 
Q 122.391743 33.70211 122.168807 33.70211 
Q 120.125229 33.70211 118.638991 35.578486 
Q 117.152752 37.454862 117.152752 39.609908 
Q 117.152752 42.619541 119.084862 44.570229 
Q 121.016972 46.520917 124.063761 46.520917 
Q 126.218807 46.818165 127.742202 44.29156 
" clip-path="url(#p0694abce71)" style="fill: none; stroke: #000000; stroke-linejoin: miter"/>
   </g>
  </g>
  <g id="axes_9"/>
  <g id="axes_10">
   <g id="patch_9">
    <path d="M 149.457476 43.917766 
Q 149.757393 44.180193 150.769614 45.154924 
Q 151.781834 46.129655 152.344179 46.560786 
Q 152.906524 46.991917 153.93749 47.385559 
Q 154.968455 47.7792 155.980676 47.629241 
Q 156.65549 47.629241 157.12411 47.404303 
Q 157.592731 47.179366 157.817669 46.879448 
Q 158.042607 46.579531 158.173821 45.979697 
Q 158.305034 45.379862 158.323779 44.967476 
Q 158.342524 44.55509 158.342524 43.805297 
Q 158.342524 42.718097 157.442772 42.043283 
Q 156.543021 41.368469 155.249628 41.031062 
Q 153.956234 40.693655 152.662841 40.300014 
Q 151.369448 39.906372 150.469697 38.987876 
Q 149.569945 38.069379 149.569945 36.607283 
Q 149.569945 36.082428 149.738648 35.726276 
Q 149.907352 35.370124 150.300993 35.145186 
Q 150.694634 34.920248 150.975807 34.807779 
Q 151.256979 34.69531 151.913048 34.639076 
Q 152.569117 34.582841 152.756566 34.582841 
Q 152.944014 34.582841 153.618828 34.582841 
Q 154.818497 34.582841 155.399586 34.995228 
Q 155.980676 35.407614 156.299338 36.026193 
Q 156.618 36.644772 156.880428 36.832221 
" clip-path="url(#pdf6e047e16)" style="fill: none; stroke: #000000; stroke-linejoin: miter"/>
   </g>
  </g>
  <g id="axes_11">
   <g id="patch_10">
    <path d="M 166.613462 35.932469 
Q 167.213297 35.257655 168.206772 34.826524 
Q 169.200248 34.395393 170.1 34.470372 
Q 170.737324 34.470372 171.22469 34.639076 
Q 171.712055 34.807779 172.030717 34.995228 
Q 172.349379 35.182676 172.574317 35.670041 
Q 172.799255 36.157407 172.911724 36.419834 
Q 173.024193 36.682262 173.080428 37.375821 
Q 173.136662 38.069379 173.155407 38.331807 
Q 173.174152 38.594234 173.155407 39.419007 
Q 173.136662 40.243779 173.136662 40.431228 
Q 173.136662 41.368469 172.967959 43.242952 
Q 172.799255 45.117434 172.799255 46.054676 
Q 172.799255 46.467062 172.85549 46.823214 
Q 172.911724 47.179366 173.005448 47.610497 
Q 173.099172 48.041628 173.136662 48.304055 
L 173.586538 48.528993 
M 167.063338 23.111007 
Q 167.288276 24.798041 167.288276 29.971614 
L 167.288276 42.3432 
L 166.950869 46.841959 
L 166.725931 47.74171 
" clip-path="url(#p48dd57bdec)" style="fill: none; stroke: #000000; stroke-linejoin: miter"/>
   </g>
  </g>
  <g id="axes_12">
   <g id="patch_11">
    <path d="M 184.275559 35.557572 
Q 184.725434 35.145186 186.206276 34.057986 
Q 187.687117 32.970786 188.324441 32.183503 
M 184.612966 38.03189 
Q 184.575476 38.144359 184.594221 39.212814 
Q 184.612966 40.281269 184.612966 40.393738 
Q 184.612966 41.518428 184.875393 42.568138 
Q 185.137821 43.617848 185.568952 44.892497 
Q 186.000083 46.167145 186.187531 46.916938 
L 186.637407 47.366814 
" clip-path="url(#pc90af49fd0)" style="fill: none; stroke: #000000; stroke-linejoin: miter"/>
   </g>
  </g>
  <g id="axes_13">
   <g id="patch_12">
    <path d="M 197.363917 36.382345 
Q 197.326428 36.494814 197.457641 36.701007 
Q 197.588855 36.9072 197.476386 37.057159 
L 197.476386 39.306538 
Q 197.476386 40.506207 197.813793 41.724621 
Q 198.1512 42.943034 199.013462 43.93651 
Q 199.875724 44.929986 201.075393 44.929986 
Q 202.312552 44.929986 202.987366 43.861531 
Q 203.662179 42.793076 204.112055 41.143531 
Q 204.561931 39.493986 204.899338 38.969131 
L 205.686621 36.382345 
L 205.461683 42.680607 
L 205.461683 45.154924 
Q 205.461683 47.066897 206.192731 51.00331 
Q 206.923779 54.939724 206.923779 56.964166 
Q 207.673572 59.213545 206.586372 60.188276 
Q 205.499172 61.163007 203.437241 60.78811 
Q 201.637738 60.488193 200.719241 60.169531 
Q 199.800745 59.850869 197.813793 58.988607 
L 197.701324 58.426262 
" clip-path="url(#paf1b78c376)" style="fill: none; stroke: #000000; stroke-linejoin: miter"/>
   </g>
  </g>
  <g id="axes_14">
   <g id="patch_13">
    <path d="M 215.213462 29.784166 
Q 216.188193 30.271531 217.481586 31.827352 
Q 218.774979 33.383172 219.262345 33.833048 
L 219.937159 34.507862 
M 222.973821 37.432055 
Q 221.661683 36.94469 220.611972 36.982179 
Q 220.349545 36.982179 219.449793 37.000924 
Q 218.550041 37.019669 218.11891 37.038414 
Q 217.687779 37.057159 216.825517 37.169628 
Q 215.963255 37.282097 215.494634 37.41331 
Q 215.026014 37.544524 214.38869 37.844441 
Q 213.751366 38.144359 213.432703 38.538 
Q 213.114041 38.931641 212.870359 39.550221 
Q 212.626676 40.1688 212.626676 40.918593 
Q 212.626676 42.830566 214.238731 44.348897 
Q 215.850786 45.867228 217.800248 45.867228 
Q 219.149876 45.867228 220.012138 45.323628 
Q 220.8744 44.780028 221.286786 43.842786 
Q 221.699172 42.905545 221.92411 41.912069 
Q 222.149048 40.918593 222.486455 39.756414 
Q 222.823862 38.594234 223.311228 37.881931 
L 223.761103 43.842786 
L 224.773324 46.991917 
" clip-path="url(#p5a2e49ba5e)" style="fill: none; stroke: #000000; stroke-linejoin: miter"/>
   </g>
  </g>
  <g id="axes_15">
   <g id="patch_14">
    <path d="M 230.438731 37.282097 
L 230.438731 37.844441 
Q 230.701159 39.868883 230.738648 41.312234 
Q 230.776138 42.755586 230.682414 44.667559 
Q 230.58869 46.579531 230.58869 48.191586 
L 230.663669 39.643945 
Q 230.663669 38.144359 232.256979 37.507034 
Q 233.85029 36.86971 235.274897 37.282097 
Q 237.186869 37.844441 238.105366 39.04411 
Q 239.023862 40.243779 239.080097 41.668386 
Q 239.136331 43.092993 239.173821 44.817517 
Q 239.21131 46.542041 239.361269 48.191586 
" clip-path="url(#p4f3ca9f5ab)" style="fill: none; stroke: #000000; stroke-linejoin: miter"/>
   </g>
  </g>
  <g id="axes_16"/>
  <g id="axes_17">
   <g id="patch_15">
    <path d="M 272.087191 39.096404 
Q 271.83236 39.023596 270.86764 38.623146 
Q 269.902921 38.222697 269.24764 38.077079 
Q 268.59236 37.931461 267.937079 38.00427 
Q 265.315955 38.00427 263.677753 40.388764 
Q 262.039551 42.773258 262.039551 45.430787 
Q 262.039551 47.068989 267.281798 47.068989 
Q 268.847191 47.068989 270.175955 45.558202 
Q 271.504719 44.047416 272.178202 42.172584 
Q 272.851685 40.297753 272.851685 38.768764 
Q 272.851685 37.27618 272.815281 36.984944 
L 272.742472 38.077079 
Q 272.742472 38.550337 272.742472 38.987191 
Q 272.778876 40.188539 272.979101 42.281798 
Q 273.179326 44.375056 273.343146 46.049663 
Q 273.506966 47.72427 273.543371 49.872135 
Q 273.579775 52.02 273.415955 53.658202 
Q 273.252135 55.296404 272.687865 56.971011 
Q 272.123596 58.645618 271.195281 59.737753 
Q 270.266966 60.829888 268.665169 61.521573 
Q 267.063371 62.213258 264.915506 62.213258 
Q 263.277303 62.213258 262.185169 61.466966 
Q 261.093034 60.720674 261.093034 59.155281 
Q 261.020225 58.936854 261.056629 58.936854 
Q 261.093034 58.936854 261.202247 58.936854 
Q 261.311461 58.936854 261.311461 58.82764 
" clip-path="url(#pa551ba6bfc)" style="fill: none; stroke: #000000; stroke-linejoin: miter"/>
   </g>
  </g>
  <g id="axes_18">
   <g id="patch_16">
    <path d="M 278.888772 35.145186 
Q 278.888772 35.145186 278.888772 35.595062 
Q 278.888772 36.269876 278.776303 37.619503 
Q 278.663834 38.969131 278.663834 39.643945 
Q 278.663834 41.930814 279.900993 43.599103 
Q 281.138152 45.267393 283.275062 45.267393 
Q 284.662179 45.154924 285.430717 43.917766 
Q 286.199255 42.680607 286.349214 41.237255 
Q 286.499172 39.793903 286.7616 37.9944 
Q 287.024028 36.194897 287.436414 35.370124 
Q 287.586372 35.070207 287.586372 35.670041 
Q 287.586372 36.269876 287.323945 38.706703 
Q 287.099007 41.031062 287.099007 41.555917 
Q 286.949048 42.643117 287.286455 43.767807 
Q 287.623862 44.892497 288.336166 45.6048 
" clip-path="url(#pa4af735815)" style="fill: none; stroke: #000000; stroke-linejoin: miter"/>
   </g>
  </g>
  <g id="axes_19">
   <g id="patch_17">
    <path d="M 295.93229 29.671697 
Q 296.607103 30.159062 298.012966 31.283752 
Q 299.418828 32.408441 299.531297 32.483421 
L 301.3308 33.60811 
M 300.20611 36.982179 
L 299.531297 36.982179 
Q 296.532124 36.982179 295.38869 38.781683 
Q 294.245255 40.581186 294.245255 43.842786 
Q 294.245255 45.229903 295.519903 46.373338 
Q 296.794552 47.516772 298.406607 48.097862 
Q 300.018662 48.678952 301.3308 48.678952 
Q 305.154745 48.678952 305.154745 42.718097 
Q 305.154745 41.518428 304.273738 40.431228 
Q 303.392731 39.344028 302.024359 38.219338 
Q 300.655986 37.094648 300.20611 36.532303 
L 299.531297 36.194897 
" clip-path="url(#pb3bb4db3ae)" style="fill: none; stroke: #000000; stroke-linejoin: miter"/>
   </g>
  </g>
  <g id="axes_20">
   <g id="patch_18">
    <path d="M 321.156735 34.365306 
Q 321.156735 34.365306 320.660816 34.365306 
Q 319.867347 34.365306 318.379592 34.067755 
Q 316.891837 33.770204 316.098367 33.770204 
Q 313.321224 33.770204 311.387143 35.224898 
Q 309.453061 36.679592 309.453061 39.423673 
Q 309.453061 40.94449 310.940816 42.399184 
Q 312.428571 43.853878 314.362653 44.663878 
Q 316.296735 45.473878 317.78449 45.473878 
Q 318.710204 45.473878 319.40449 45.110204 
Q 320.098776 44.746531 320.842653 44.118367 
Q 321.586531 43.490204 322.148571 43.192653 
L 322.346939 42.696735 
" clip-path="url(#p006a7a6eb5)" style="fill: none; stroke: #000000; stroke-linejoin: miter"/>
   </g>
  </g>
  <g id="axes_21">
   <g id="patch_19">
    <path d="M 328.613462 35.932469 
Q 329.213297 35.257655 330.206772 34.826524 
Q 331.200248 34.395393 332.1 34.470372 
Q 332.737324 34.470372 333.22469 34.639076 
Q 333.712055 34.807779 334.030717 34.995228 
Q 334.349379 35.182676 334.574317 35.670041 
Q 334.799255 36.157407 334.911724 36.419834 
Q 335.024193 36.682262 335.080428 37.375821 
Q 335.136662 38.069379 335.155407 38.331807 
Q 335.174152 38.594234 335.155407 39.419007 
Q 335.136662 40.243779 335.136662 40.431228 
Q 335.136662 41.368469 334.967959 43.242952 
Q 334.799255 45.117434 334.799255 46.054676 
Q 334.799255 46.467062 334.85549 46.823214 
Q 334.911724 47.179366 335.005448 47.610497 
Q 335.099172 48.041628 335.136662 48.304055 
L 335.586538 48.528993 
M 329.063338 23.111007 
Q 329.288276 24.798041 329.288276 29.971614 
L 329.288276 42.3432 
L 328.950869 46.841959 
L 328.725931 47.74171 
" clip-path="url(#p3bac203977)" style="fill: none; stroke: #000000; stroke-linejoin: miter"/>
   </g>
  </g>
  <g id="axes_22">
   <g id="patch_20">
    <path d="M 345.0384 34.357903 
Q 345.300828 34.395393 345.638234 33.795559 
Q 345.975641 33.195724 346.500497 33.345683 
L 350.999255 29.2968 
M 344.138648 40.656166 
L 344.363586 40.656166 
Q 345.07589 40.656166 346.63171 41.330979 
Q 348.187531 42.005793 349.087283 42.005793 
Q 351.786538 42.005793 351.786538 38.744193 
Q 351.786538 36.607283 348.412469 36.607283 
Q 346.537986 36.607283 345.450786 37.750717 
Q 344.363586 38.894152 344.363586 40.768634 
Q 344.363586 43.617848 345.694469 45.454841 
Q 347.025352 47.291834 349.762097 47.291834 
Q 351.224193 47.591752 352.461352 45.6048 
" clip-path="url(#pc3a8b618eb)" style="fill: none; stroke: #000000; stroke-linejoin: miter"/>
   </g>
  </g>
  <g id="axes_23">
   <g id="patch_21">
    <path d="M 360.038731 37.282097 
L 360.038731 37.844441 
Q 360.301159 39.868883 360.338648 41.312234 
Q 360.376138 42.755586 360.282414 44.667559 
Q 360.18869 46.579531 360.18869 48.191586 
L 360.263669 39.643945 
Q 360.263669 38.144359 361.856979 37.507034 
Q 363.45029 36.86971 364.874897 37.282097 
Q 366.786869 37.844441 367.705366 39.04411 
Q 368.623862 40.243779 368.680097 41.668386 
Q 368.736331 43.092993 368.773821 44.817517 
Q 368.81131 46.542041 368.961269 48.191586 
" clip-path="url(#p9b0afc73b3)" style="fill: none; stroke: #000000; stroke-linejoin: miter"/>
   </g>
  </g>
  <g id="axes_24">
   <g id="patch_22">
    <path d="M 385.487191 39.096404 
Q 385.23236 39.023596 384.26764 38.623146 
Q 383.302921 38.222697 382.64764 38.077079 
Q 381.99236 37.931461 381.337079 38.00427 
Q 378.715955 38.00427 377.077753 40.388764 
Q 375.439551 42.773258 375.439551 45.430787 
Q 375.439551 47.068989 380.681798 47.068989 
Q 382.247191 47.068989 383.575955 45.558202 
Q 384.904719 44.047416 385.578202 42.172584 
Q 386.251685 40.297753 386.251685 38.768764 
Q 386.251685 37.27618 386.215281 36.984944 
L 386.142472 38.077079 
Q 386.142472 38.550337 386.142472 38.987191 
Q 386.178876 40.188539 386.379101 42.281798 
Q 386.579326 44.375056 386.743146 46.049663 
Q 386.906966 47.72427 386.943371 49.872135 
Q 386.979775 52.02 386.815955 53.658202 
Q 386.652135 55.296404 386.087865 56.971011 
Q 385.523596 58.645618 384.595281 59.737753 
Q 383.666966 60.829888 382.065169 61.521573 
Q 380.463371 62.213258 378.315506 62.213258 
Q 376.677303 62.213258 375.585169 61.466966 
Q 374.493034 60.720674 374.493034 59.155281 
Q 374.420225 58.936854 374.456629 58.936854 
Q 374.493034 58.936854 374.602247 58.936854 
Q 374.711461 58.936854 374.711461 58.82764 
" clip-path="url(#pa1324866c8)" style="fill: none; stroke: #000000; stroke-linejoin: miter"/>
   </g>
  </g>
  <g id="axes_25">
   <g id="patch_23">
    <path d="M 396.187697 39.981352 
Q 397.199917 40.956083 397.537324 42.905545 
Q 397.724772 43.955255 397.312386 46.167145 
L 396.075228 47.629241 
" clip-path="url(#pff78e51826)" style="fill: none; stroke: #000000; stroke-linejoin: miter"/>
   </g>
  </g>
 </g>
 <defs>
  <clipPath id="p5c352bf033">
   <rect x="1.389352" y="8.64" width="13.421297" height="54.36"/>
  </clipPath>
  <clipPath id="p0c8bf3b695">
   <rect x="16.820814" y="8.64" width="14.958372" height="54.36"/>
  </clipPath>
  <clipPath id="p318cb8d60f">
   <rect x="32.4" y="9.603482" width="16.2" height="52.433036"/>
  </clipPath>
  <clipPath id="p3fdbbbee8f">
   <rect x="48.6" y="8.881927" width="16.2" height="53.876147"/>
  </clipPath>
  <clipPath id="p868fc05d25">
   <rect x="66.564248" y="8.64" width="12.671503" height="54.36"/>
  </clipPath>
  <clipPath id="p6f876f086a">
   <rect x="98.251945" y="8.64" width="14.09611" height="54.36"/>
  </clipPath>
  <clipPath id="p0694abce71">
   <rect x="113.4" y="8.881927" width="16.2" height="53.876147"/>
  </clipPath>
  <clipPath id="pdf6e047e16">
   <rect x="147.582993" y="8.64" width="12.634014" height="54.36"/>
  </clipPath>
  <clipPath id="p48dd57bdec">
   <rect x="164.738979" y="8.64" width="10.722041" height="54.36"/>
  </clipPath>
  <clipPath id="pc90af49fd0">
   <rect x="182.401076" y="8.64" width="7.797848" height="54.36"/>
  </clipPath>
  <clipPath id="paf1b78c376">
   <rect x="195.451945" y="8.64" width="14.09611" height="54.36"/>
  </clipPath>
  <clipPath id="p5a2e49ba5e">
   <rect x="210.752193" y="8.64" width="15.895614" height="54.36"/>
  </clipPath>
  <clipPath id="p4f3ca9f5ab">
   <rect x="228.564248" y="8.64" width="12.671503" height="54.36"/>
  </clipPath>
  <clipPath id="pa551ba6bfc">
   <rect x="259.2" y="9.426742" width="16.2" height="52.786517"/>
  </clipPath>
  <clipPath id="pa4af735815">
   <rect x="276.789352" y="8.64" width="13.421297" height="54.36"/>
  </clipPath>
  <clipPath id="pb3bb4db3ae">
   <rect x="292.370772" y="8.64" width="14.658455" height="54.36"/>
  </clipPath>
  <clipPath id="p006a7a6eb5">
   <rect x="307.8" y="11.850612" width="16.2" height="47.938776"/>
  </clipPath>
  <clipPath id="p3bac203977">
   <rect x="326.738979" y="8.64" width="10.722041" height="54.36"/>
  </clipPath>
  <clipPath id="pc3a8b618eb">
   <rect x="342.264166" y="8.64" width="12.071669" height="54.36"/>
  </clipPath>
  <clipPath id="p9b0afc73b3">
   <rect x="358.164248" y="8.64" width="12.671503" height="54.36"/>
  </clipPath>
  <clipPath id="pa1324866c8">
   <rect x="372.6" y="9.426742" width="16.2" height="52.786517"/>
  </clipPath>
  <clipPath id="pff78e51826">
   <rect x="394.200745" y="8.64" width="5.39851" height="54.36"/>
  </clipPath>
 </defs>
</svg>
