<?xml version="1.0" encoding="utf-8" standalone="no"?>
<!DOCTYPE svg PUBLIC "-//W3C//DTD SVG 1.1//EN"
  "http://www.w3.org/Graphics/SVG/1.1/DTD/svg11.dtd">
<svg xmlns:xlink="http://www.w3.org/1999/xlink" width="558pt" height="72pt" viewBox="0 0 558 72" xmlns="http://www.w3.org/2000/svg" version="1.1">
 <metadata>
  <rdf:RDF xmlns:dc="http://purl.org/dc/elements/1.1/" xmlns:cc="http://creativecommons.org/ns#" xmlns:rdf="http://www.w3.org/1999/02/22-rdf-syntax-ns#">
   <cc:Work>
    <dc:type rdf:resource="http://purl.org/dc/dcmitype/StillImage"/>
    <dc:date>2023-02-14T21:26:18.921710</dc:date>
    <dc:format>image/svg+xml</dc:format>
    <dc:creator>
     <cc:Agent>
      <dc:title>Matplotlib v3.6.1, https://matplotlib.org/</dc:title>
     </cc:Agent>
    </dc:creator>
   </cc:Work>
  </rdf:RDF>
 </metadata>
 <defs>
  <style type="text/css">*{stroke-linejoin: round; stroke-linecap: butt}</style>
 </defs>
 <g id="figure_1">
  <g id="patch_1">
   <path d="M 0 72 
L 558 72 
L 558 0 
L 0 0 
z
" style="fill: #8fff9f"/>
  </g>
  <g id="axes_1">
   <g id="patch_2">
    <path d="M 3.263834 37.95691 
L 3.938648 37.95691 
Q 4.650952 37.95691 5.438234 37.881931 
Q 6.225517 37.806952 7.181503 37.675738 
Q 8.13749 37.544524 8.662345 37.507034 
L 12.936166 35.82 
M 8.887283 30.42149 
L 8.887283 31.43371 
Q 8.887283 33.383172 8.212469 37.207117 
Q 7.537655 41.031062 7.537655 43.018014 
Q 7.537655 43.805297 7.537655 44.105214 
Q 7.537655 44.405131 7.631379 45.042455 
Q 7.725103 45.679779 7.912552 45.960952 
Q 8.1 46.242124 8.493641 46.485807 
Q 8.887283 46.72949 9.449628 46.72949 
Q 9.562097 46.692 9.880759 46.72949 
Q 10.199421 46.766979 10.386869 46.710745 
Q 10.574317 46.65451 10.574317 46.392083 
" clip-path="url(#pab5e45e54b)" style="fill: none; stroke: #000000; stroke-linejoin: miter"/>
   </g>
  </g>
  <g id="axes_2">
   <g id="patch_3">
    <path d="M 20.813462 35.932469 
Q 21.413297 35.257655 22.406772 34.826524 
Q 23.400248 34.395393 24.3 34.470372 
Q 24.937324 34.470372 25.42469 34.639076 
Q 25.912055 34.807779 26.230717 34.995228 
Q 26.549379 35.182676 26.774317 35.670041 
Q 26.999255 36.157407 27.111724 36.419834 
Q 27.224193 36.682262 27.280428 37.375821 
Q 27.336662 38.069379 27.355407 38.331807 
Q 27.374152 38.594234 27.355407 39.419007 
Q 27.336662 40.243779 27.336662 40.431228 
Q 27.336662 41.368469 27.167959 43.242952 
Q 26.999255 45.117434 26.999255 46.054676 
Q 26.999255 46.467062 27.05549 46.823214 
Q 27.111724 47.179366 27.205448 47.610497 
Q 27.299172 48.041628 27.336662 48.304055 
L 27.786538 48.528993 
M 21.263338 23.111007 
Q 21.488276 24.798041 21.488276 29.971614 
L 21.488276 42.3432 
L 21.150869 46.841959 
L 20.925931 47.74171 
" clip-path="url(#pf1efd05eb3)" style="fill: none; stroke: #000000; stroke-linejoin: miter"/>
   </g>
  </g>
  <g id="axes_3">
   <g id="patch_4">
    <path d="M 34.257798 38.160826 
Q 37.230275 39.535596 41.949083 39.721376 
Q 43.472477 39.721376 44.159862 38.550963 
Q 44.847248 37.38055 44.847248 35.82 
Q 44.847248 35.299817 44.754358 34.909679 
Q 44.661468 34.519541 44.419954 34.296606 
Q 44.17844 34.07367 44.011239 33.943624 
Q 43.844037 33.813578 43.398165 33.757844 
Q 42.952294 33.70211 42.747936 33.683532 
Q 42.543578 33.664954 41.967661 33.683532 
Q 41.391743 33.70211 41.168807 33.70211 
Q 39.125229 33.70211 37.638991 35.578486 
Q 36.152752 37.454862 36.152752 39.609908 
Q 36.152752 42.619541 38.084862 44.570229 
Q 40.016972 46.520917 43.063761 46.520917 
Q 45.218807 46.818165 46.742202 44.29156 
" clip-path="url(#p5be0701fd7)" style="fill: none; stroke: #000000; stroke-linejoin: miter"/>
   </g>
  </g>
  <g id="axes_4"/>
  <g id="axes_5">
   <g id="patch_5">
    <path d="M 68.120069 39.868883 
L 68.120069 39.419007 
Q 68.120069 37.769462 69.863338 36.682262 
Q 71.606607 35.595062 73.293641 35.595062 
Q 75.505531 35.595062 76.873903 36.794731 
Q 78.242276 37.9944 78.242276 40.20629 
Q 78.242276 42.30571 76.424028 43.336676 
Q 74.605779 44.367641 72.39389 44.367641 
Q 71.719076 44.367641 71.212966 44.255172 
Q 70.706855 44.142703 70.088276 43.917766 
Q 69.469697 43.692828 69.019821 43.580359 
L 67.895131 42.568138 
M 67.557724 36.832221 
Q 68.0076 38.444276 68.270028 40.262524 
Q 68.532455 42.080772 68.58869 43.749062 
Q 68.644924 45.417352 68.682414 47.27309 
Q 68.719903 49.128828 68.682414 50.778372 
L 68.569945 57.863917 
" clip-path="url(#p91f10237f3)" style="fill: none; stroke: #000000; stroke-linejoin: miter"/>
   </g>
  </g>
  <g id="axes_6">
   <g id="patch_6">
    <path d="M 85.613462 32.783338 
Q 86.138317 34.507862 86.269531 36.457324 
Q 86.400745 38.406786 86.325766 40.956083 
Q 86.250786 43.505379 86.288276 44.705048 
L 86.400745 46.054676 
L 86.400745 45.829738 
Q 86.400745 44.667559 86.119572 42.30571 
Q 85.8384 39.943862 85.8384 38.744193 
Q 85.8384 36.419834 86.850621 34.882759 
Q 87.862841 33.345683 89.887283 33.345683 
Q 90.599586 33.345683 90.936993 33.626855 
Q 91.2744 33.908028 91.536828 34.432883 
Q 91.799255 34.957738 92.136662 35.257655 
L 92.586538 36.832221 
" clip-path="url(#p4aa23ed1b9)" style="fill: none; stroke: #000000; stroke-linejoin: miter"/>
   </g>
  </g>
  <g id="axes_7">
   <g id="patch_7">
    <path d="M 108.5616 35.032717 
Q 107.51189 34.582841 106.537159 34.69531 
Q 103.500497 35.032717 101.588524 36.701007 
Q 99.676552 38.369297 99.676552 41.330979 
Q 99.676552 43.917766 101.682248 45.6048 
Q 103.687945 47.291834 106.312221 47.291834 
Q 108.674069 47.291834 109.798759 45.361117 
Q 110.923448 43.4304 110.923448 40.881103 
Q 110.923448 39.643945 110.511062 38.706703 
Q 110.098676 37.769462 109.573821 37.300841 
Q 109.048966 36.832221 108.299172 36.119917 
Q 107.549379 35.407614 107.099503 34.69531 
L 105.862345 34.245434 
" clip-path="url(#p2bd621da57)" style="fill: none; stroke: #000000; stroke-linejoin: miter"/>
   </g>
  </g>
  <g id="axes_8">
   <g id="patch_8">
    <path d="M 126.756735 34.365306 
Q 126.756735 34.365306 126.260816 34.365306 
Q 125.467347 34.365306 123.979592 34.067755 
Q 122.491837 33.770204 121.698367 33.770204 
Q 118.921224 33.770204 116.987143 35.224898 
Q 115.053061 36.679592 115.053061 39.423673 
Q 115.053061 40.94449 116.540816 42.399184 
Q 118.028571 43.853878 119.962653 44.663878 
Q 121.896735 45.473878 123.38449 45.473878 
Q 124.310204 45.473878 125.00449 45.110204 
Q 125.698776 44.746531 126.442653 44.118367 
Q 127.186531 43.490204 127.748571 43.192653 
L 127.946939 42.696735 
" clip-path="url(#p001d8e26d0)" style="fill: none; stroke: #000000; stroke-linejoin: miter"/>
   </g>
  </g>
  <g id="axes_9">
   <g id="patch_9">
    <path d="M 131.457798 38.160826 
Q 134.430275 39.535596 139.149083 39.721376 
Q 140.672477 39.721376 141.359862 38.550963 
Q 142.047248 37.38055 142.047248 35.82 
Q 142.047248 35.299817 141.954358 34.909679 
Q 141.861468 34.519541 141.619954 34.296606 
Q 141.37844 34.07367 141.211239 33.943624 
Q 141.044037 33.813578 140.598165 33.757844 
Q 140.152294 33.70211 139.947936 33.683532 
Q 139.743578 33.664954 139.167661 33.683532 
Q 138.591743 33.70211 138.368807 33.70211 
Q 136.325229 33.70211 134.838991 35.578486 
Q 133.352752 37.454862 133.352752 39.609908 
Q 133.352752 42.619541 135.284862 44.570229 
Q 137.216972 46.520917 140.263761 46.520917 
Q 142.418807 46.818165 143.942202 44.29156 
" clip-path="url(#p76727768b6)" style="fill: none; stroke: #000000; stroke-linejoin: miter"/>
   </g>
  </g>
  <g id="axes_10">
   <g id="patch_10">
    <path d="M 149.457476 43.917766 
Q 149.757393 44.180193 150.769614 45.154924 
Q 151.781834 46.129655 152.344179 46.560786 
Q 152.906524 46.991917 153.93749 47.385559 
Q 154.968455 47.7792 155.980676 47.629241 
Q 156.65549 47.629241 157.12411 47.404303 
Q 157.592731 47.179366 157.817669 46.879448 
Q 158.042607 46.579531 158.173821 45.979697 
Q 158.305034 45.379862 158.323779 44.967476 
Q 158.342524 44.55509 158.342524 43.805297 
Q 158.342524 42.718097 157.442772 42.043283 
Q 156.543021 41.368469 155.249628 41.031062 
Q 153.956234 40.693655 152.662841 40.300014 
Q 151.369448 39.906372 150.469697 38.987876 
Q 149.569945 38.069379 149.569945 36.607283 
Q 149.569945 36.082428 149.738648 35.726276 
Q 149.907352 35.370124 150.300993 35.145186 
Q 150.694634 34.920248 150.975807 34.807779 
Q 151.256979 34.69531 151.913048 34.639076 
Q 152.569117 34.582841 152.756566 34.582841 
Q 152.944014 34.582841 153.618828 34.582841 
Q 154.818497 34.582841 155.399586 34.995228 
Q 155.980676 35.407614 156.299338 36.026193 
Q 156.618 36.644772 156.880428 36.832221 
" clip-path="url(#p6b15a2c6b9)" style="fill: none; stroke: #000000; stroke-linejoin: miter"/>
   </g>
  </g>
  <g id="axes_11">
   <g id="patch_11">
    <path d="M 165.657476 43.917766 
Q 165.957393 44.180193 166.969614 45.154924 
Q 167.981834 46.129655 168.544179 46.560786 
Q 169.106524 46.991917 170.13749 47.385559 
Q 171.168455 47.7792 172.180676 47.629241 
Q 172.85549 47.629241 173.32411 47.404303 
Q 173.792731 47.179366 174.017669 46.879448 
Q 174.242607 46.579531 174.373821 45.979697 
Q 174.505034 45.379862 174.523779 44.967476 
Q 174.542524 44.55509 174.542524 43.805297 
Q 174.542524 42.718097 173.642772 42.043283 
Q 172.743021 41.368469 171.449628 41.031062 
Q 170.156234 40.693655 168.862841 40.300014 
Q 167.569448 39.906372 166.669697 38.987876 
Q 165.769945 38.069379 165.769945 36.607283 
Q 165.769945 36.082428 165.938648 35.726276 
Q 166.107352 35.370124 166.500993 35.145186 
Q 166.894634 34.920248 167.175807 34.807779 
Q 167.456979 34.69531 168.113048 34.639076 
Q 168.769117 34.582841 168.956566 34.582841 
Q 169.144014 34.582841 169.818828 34.582841 
Q 171.018497 34.582841 171.599586 34.995228 
Q 172.180676 35.407614 172.499338 36.026193 
Q 172.818 36.644772 173.080428 36.832221 
" clip-path="url(#p4ec2266fd2)" style="fill: none; stroke: #000000; stroke-linejoin: miter"/>
   </g>
  </g>
  <g id="axes_12"/>
  <g id="axes_13">
   <g id="patch_12">
    <path d="M 205.7616 35.032717 
Q 204.71189 34.582841 203.737159 34.69531 
Q 200.700497 35.032717 198.788524 36.701007 
Q 196.876552 38.369297 196.876552 41.330979 
Q 196.876552 43.917766 198.882248 45.6048 
Q 200.887945 47.291834 203.512221 47.291834 
Q 205.874069 47.291834 206.998759 45.361117 
Q 208.123448 43.4304 208.123448 40.881103 
Q 208.123448 39.643945 207.711062 38.706703 
Q 207.298676 37.769462 206.773821 37.300841 
Q 206.248966 36.832221 205.499172 36.119917 
Q 204.749379 35.407614 204.299503 34.69531 
L 203.062345 34.245434 
" clip-path="url(#pee2fb6eba3)" style="fill: none; stroke: #000000; stroke-linejoin: miter"/>
   </g>
  </g>
  <g id="axes_14">
   <g id="patch_13">
    <path d="M 212.384141 38.85304 
L 212.812335 38.85304 
Q 213.63304 38.85304 214.596476 38.745991 
Q 215.559912 38.638943 216.719604 38.460529 
Q 217.879295 38.282115 218.485903 38.210749 
L 225.015859 35.427489 
M 224.694714 25.793128 
Q 224.409251 25.721762 223.374449 25.275727 
Q 222.339648 24.829692 221.697357 24.93674 
Q 221.055066 24.93674 220.537665 25.150837 
Q 220.020264 25.364934 219.681278 25.793128 
Q 219.342291 26.221322 219.07467 26.685198 
Q 218.807048 27.149075 218.664317 27.862731 
Q 218.521586 28.576388 218.414537 29.129471 
Q 218.307489 29.682555 218.289648 30.50326 
Q 218.271806 31.323965 218.253965 31.77 
Q 218.236123 32.216035 218.253965 32.965374 
Q 218.271806 33.714714 218.271806 33.928811 
Q 218.271806 36.605022 218.967621 41.850396 
Q 219.663436 47.095771 219.663436 49.771982 
Q 219.59207 50.057445 219.556388 50.681894 
Q 219.520705 51.306344 219.413656 51.805903 
Q 219.306608 52.305463 219.021145 52.555242 
" clip-path="url(#p73fdd24bc3)" style="fill: none; stroke: #000000; stroke-linejoin: miter"/>
   </g>
  </g>
  <g id="axes_15"/>
  <g id="axes_16">
   <g id="patch_14">
    <path d="M 246.263834 37.95691 
L 246.938648 37.95691 
Q 247.650952 37.95691 248.438234 37.881931 
Q 249.225517 37.806952 250.181503 37.675738 
Q 251.13749 37.544524 251.662345 37.507034 
L 255.936166 35.82 
M 251.887283 30.42149 
L 251.887283 31.43371 
Q 251.887283 33.383172 251.212469 37.207117 
Q 250.537655 41.031062 250.537655 43.018014 
Q 250.537655 43.805297 250.537655 44.105214 
Q 250.537655 44.405131 250.631379 45.042455 
Q 250.725103 45.679779 250.912552 45.960952 
Q 251.1 46.242124 251.493641 46.485807 
Q 251.887283 46.72949 252.449628 46.72949 
Q 252.562097 46.692 252.880759 46.72949 
Q 253.199421 46.766979 253.386869 46.710745 
Q 253.574317 46.65451 253.574317 46.392083 
" clip-path="url(#p5b6fbc804c)" style="fill: none; stroke: #000000; stroke-linejoin: miter"/>
   </g>
  </g>
  <g id="axes_17">
   <g id="patch_15">
    <path d="M 263.813462 35.932469 
Q 264.413297 35.257655 265.406772 34.826524 
Q 266.400248 34.395393 267.3 34.470372 
Q 267.937324 34.470372 268.42469 34.639076 
Q 268.912055 34.807779 269.230717 34.995228 
Q 269.549379 35.182676 269.774317 35.670041 
Q 269.999255 36.157407 270.111724 36.419834 
Q 270.224193 36.682262 270.280428 37.375821 
Q 270.336662 38.069379 270.355407 38.331807 
Q 270.374152 38.594234 270.355407 39.419007 
Q 270.336662 40.243779 270.336662 40.431228 
Q 270.336662 41.368469 270.167959 43.242952 
Q 269.999255 45.117434 269.999255 46.054676 
Q 269.999255 46.467062 270.05549 46.823214 
Q 270.111724 47.179366 270.205448 47.610497 
Q 270.299172 48.041628 270.336662 48.304055 
L 270.786538 48.528993 
M 264.263338 23.111007 
Q 264.488276 24.798041 264.488276 29.971614 
L 264.488276 42.3432 
L 264.150869 46.841959 
L 263.925931 47.74171 
" clip-path="url(#p297efeca8c)" style="fill: none; stroke: #000000; stroke-linejoin: miter"/>
   </g>
  </g>
  <g id="axes_18">
   <g id="patch_16">
    <path d="M 277.257798 38.160826 
Q 280.230275 39.535596 284.949083 39.721376 
Q 286.472477 39.721376 287.159862 38.550963 
Q 287.847248 37.38055 287.847248 35.82 
Q 287.847248 35.299817 287.754358 34.909679 
Q 287.661468 34.519541 287.419954 34.296606 
Q 287.17844 34.07367 287.011239 33.943624 
Q 286.844037 33.813578 286.398165 33.757844 
Q 285.952294 33.70211 285.747936 33.683532 
Q 285.543578 33.664954 284.967661 33.683532 
Q 284.391743 33.70211 284.168807 33.70211 
Q 282.125229 33.70211 280.638991 35.578486 
Q 279.152752 37.454862 279.152752 39.609908 
Q 279.152752 42.619541 281.084862 44.570229 
Q 283.016972 46.520917 286.063761 46.520917 
Q 288.218807 46.818165 289.742202 44.29156 
" clip-path="url(#p5bea4e744c)" style="fill: none; stroke: #000000; stroke-linejoin: miter"/>
   </g>
  </g>
  <g id="axes_19">
   <g id="patch_17">
    <path d="M 300.318579 29.071862 
Q 299.943683 29.146841 299.812469 29.577972 
Q 299.681255 30.009103 299.756234 30.42149 
Q 299.756234 30.571448 299.793724 30.702662 
Q 299.831214 30.833876 299.887448 30.89011 
Q 299.943683 30.946345 299.999917 31.040069 
Q 300.056152 31.133793 300.093641 31.208772 
L 300.20611 29.859145 
M 300.20611 34.020497 
Q 299.306359 39.006621 299.081421 42.793076 
L 299.531297 45.379862 
L 299.868703 46.054676 
" clip-path="url(#p459229af23)" style="fill: none; stroke: #000000; stroke-linejoin: miter"/>
   </g>
  </g>
  <g id="axes_20">
   <g id="patch_18">
    <path d="M 312.413462 32.783338 
Q 312.938317 34.507862 313.069531 36.457324 
Q 313.200745 38.406786 313.125766 40.956083 
Q 313.050786 43.505379 313.088276 44.705048 
L 313.200745 46.054676 
L 313.200745 45.829738 
Q 313.200745 44.667559 312.919572 42.30571 
Q 312.6384 39.943862 312.6384 38.744193 
Q 312.6384 36.419834 313.650621 34.882759 
Q 314.662841 33.345683 316.687283 33.345683 
Q 317.399586 33.345683 317.736993 33.626855 
Q 318.0744 33.908028 318.336828 34.432883 
Q 318.599255 34.957738 318.936662 35.257655 
L 319.386538 36.832221 
" clip-path="url(#pecda97b349)" style="fill: none; stroke: #000000; stroke-linejoin: miter"/>
   </g>
  </g>
  <g id="axes_21"/>
  <g id="axes_22">
   <g id="patch_19">
    <path d="M 342.057798 38.160826 
Q 345.030275 39.535596 349.749083 39.721376 
Q 351.272477 39.721376 351.959862 38.550963 
Q 352.647248 37.38055 352.647248 35.82 
Q 352.647248 35.299817 352.554358 34.909679 
Q 352.461468 34.519541 352.219954 34.296606 
Q 351.97844 34.07367 351.811239 33.943624 
Q 351.644037 33.813578 351.198165 33.757844 
Q 350.752294 33.70211 350.547936 33.683532 
Q 350.343578 33.664954 349.767661 33.683532 
Q 349.191743 33.70211 348.968807 33.70211 
Q 346.925229 33.70211 345.438991 35.578486 
Q 343.952752 37.454862 343.952752 39.609908 
Q 343.952752 42.619541 345.884862 44.570229 
Q 347.816972 46.520917 350.863761 46.520917 
Q 353.018807 46.818165 354.542202 44.29156 
" clip-path="url(#p813351c224)" style="fill: none; stroke: #000000; stroke-linejoin: miter"/>
   </g>
  </g>
  <g id="axes_23">
   <g id="patch_20">
    <path d="M 368.099007 34.920248 
Q 367.236745 36.007448 364.125103 40.018841 
Q 361.013462 44.030234 359.326428 46.054676 
M 360.226179 36.044938 
Q 362.100662 37.319586 364.593724 40.843614 
Q 367.086786 44.367641 368.661352 45.6048 
L 369.673572 45.942207 
" clip-path="url(#pbe71f812c9)" style="fill: none; stroke: #000000; stroke-linejoin: miter"/>
   </g>
  </g>
  <g id="axes_24">
   <g id="patch_21">
    <path d="M 375.920069 39.868883 
L 375.920069 39.419007 
Q 375.920069 37.769462 377.663338 36.682262 
Q 379.406607 35.595062 381.093641 35.595062 
Q 383.305531 35.595062 384.673903 36.794731 
Q 386.042276 37.9944 386.042276 40.20629 
Q 386.042276 42.30571 384.224028 43.336676 
Q 382.405779 44.367641 380.19389 44.367641 
Q 379.519076 44.367641 379.012966 44.255172 
Q 378.506855 44.142703 377.888276 43.917766 
Q 377.269697 43.692828 376.819821 43.580359 
L 375.695131 42.568138 
M 375.357724 36.832221 
Q 375.8076 38.444276 376.070028 40.262524 
Q 376.332455 42.080772 376.38869 43.749062 
Q 376.444924 45.417352 376.482414 47.27309 
Q 376.519903 49.128828 376.482414 50.778372 
L 376.369945 57.863917 
" clip-path="url(#pe165ae4759)" style="fill: none; stroke: #000000; stroke-linejoin: miter"/>
   </g>
  </g>
  <g id="axes_25">
   <g id="patch_22">
    <path d="M 390.657798 38.160826 
Q 393.630275 39.535596 398.349083 39.721376 
Q 399.872477 39.721376 400.559862 38.550963 
Q 401.247248 37.38055 401.247248 35.82 
Q 401.247248 35.299817 401.154358 34.909679 
Q 401.061468 34.519541 400.819954 34.296606 
Q 400.57844 34.07367 400.411239 33.943624 
Q 400.244037 33.813578 399.798165 33.757844 
Q 399.352294 33.70211 399.147936 33.683532 
Q 398.943578 33.664954 398.367661 33.683532 
Q 397.791743 33.70211 397.568807 33.70211 
Q 395.525229 33.70211 394.038991 35.578486 
Q 392.552752 37.454862 392.552752 39.609908 
Q 392.552752 42.619541 394.484862 44.570229 
Q 396.416972 46.520917 399.463761 46.520917 
Q 401.618807 46.818165 403.142202 44.29156 
" clip-path="url(#pb19a95ba65)" style="fill: none; stroke: #000000; stroke-linejoin: miter"/>
   </g>
  </g>
  <g id="axes_26">
   <g id="patch_23">
    <path d="M 409.613462 32.783338 
Q 410.138317 34.507862 410.269531 36.457324 
Q 410.400745 38.406786 410.325766 40.956083 
Q 410.250786 43.505379 410.288276 44.705048 
L 410.400745 46.054676 
L 410.400745 45.829738 
Q 410.400745 44.667559 410.119572 42.30571 
Q 409.8384 39.943862 409.8384 38.744193 
Q 409.8384 36.419834 410.850621 34.882759 
Q 411.862841 33.345683 413.887283 33.345683 
Q 414.599586 33.345683 414.936993 33.626855 
Q 415.2744 33.908028 415.536828 34.432883 
Q 415.799255 34.957738 416.136662 35.257655 
L 416.586538 36.832221 
" clip-path="url(#pae656a0ed1)" style="fill: none; stroke: #000000; stroke-linejoin: miter"/>
   </g>
  </g>
  <g id="axes_27">
   <g id="patch_24">
    <path d="M 429.918579 29.071862 
Q 429.543683 29.146841 429.412469 29.577972 
Q 429.281255 30.009103 429.356234 30.42149 
Q 429.356234 30.571448 429.393724 30.702662 
Q 429.431214 30.833876 429.487448 30.89011 
Q 429.543683 30.946345 429.599917 31.040069 
Q 429.656152 31.133793 429.693641 31.208772 
L 429.80611 29.859145 
M 429.80611 34.020497 
Q 428.906359 39.006621 428.681421 42.793076 
L 429.131297 45.379862 
L 429.468703 46.054676 
" clip-path="url(#p1b21482af3)" style="fill: none; stroke: #000000; stroke-linejoin: miter"/>
   </g>
  </g>
  <g id="axes_28">
   <g id="patch_25">
    <path d="M 439.208036 34.879821 
Q 439.714286 36.073125 440.003571 42.871339 
Q 440.148214 46.632054 440.4375 46.632054 
Q 440.473661 46.632054 440.509821 46.595893 
Q 441.016071 46.017321 441.070313 44.588973 
Q 441.124554 43.160625 440.907589 41.750357 
Q 440.690625 40.340089 440.4375 38.712857 
Q 440.184375 37.085625 440.184375 36.398571 
Q 440.184375 35.169107 440.564063 33.939643 
Q 440.94375 32.710179 441.920089 32.710179 
Q 443.149554 32.710179 443.872768 34.355491 
Q 444.595982 36.000804 444.758705 37.971563 
Q 444.921429 39.942321 445.029911 41.587634 
Q 445.138393 43.232946 445.283036 43.232946 
Q 445.427679 43.232946 445.51808 41.497232 
Q 445.608482 39.761518 445.735045 37.700357 
Q 445.861607 35.639196 446.584821 33.903482 
Q 447.308036 32.167768 448.5375 32.167768 
Q 450.092411 33.035625 450.761384 34.771339 
Q 451.430357 36.507054 451.394196 38.188527 
Q 451.358036 39.87 451.376116 42.057723 
Q 451.394196 44.245446 451.791964 45.511071 
" clip-path="url(#p506472d49b)" style="fill: none; stroke: #000000; stroke-linejoin: miter"/>
   </g>
  </g>
  <g id="axes_29">
   <g id="patch_26">
    <path d="M 455.457798 38.160826 
Q 458.430275 39.535596 463.149083 39.721376 
Q 464.672477 39.721376 465.359862 38.550963 
Q 466.047248 37.38055 466.047248 35.82 
Q 466.047248 35.299817 465.954358 34.909679 
Q 465.861468 34.519541 465.619954 34.296606 
Q 465.37844 34.07367 465.211239 33.943624 
Q 465.044037 33.813578 464.598165 33.757844 
Q 464.152294 33.70211 463.947936 33.683532 
Q 463.743578 33.664954 463.167661 33.683532 
Q 462.591743 33.70211 462.368807 33.70211 
Q 460.325229 33.70211 458.838991 35.578486 
Q 457.352752 37.454862 457.352752 39.609908 
Q 457.352752 42.619541 459.284862 44.570229 
Q 461.216972 46.520917 464.263761 46.520917 
Q 466.418807 46.818165 467.942202 44.29156 
" clip-path="url(#p8f2e7c3c87)" style="fill: none; stroke: #000000; stroke-linejoin: miter"/>
   </g>
  </g>
  <g id="axes_30">
   <g id="patch_27">
    <path d="M 473.438731 37.282097 
L 473.438731 37.844441 
Q 473.701159 39.868883 473.738648 41.312234 
Q 473.776138 42.755586 473.682414 44.667559 
Q 473.58869 46.579531 473.58869 48.191586 
L 473.663669 39.643945 
Q 473.663669 38.144359 475.256979 37.507034 
Q 476.85029 36.86971 478.274897 37.282097 
Q 480.186869 37.844441 481.105366 39.04411 
Q 482.023862 40.243779 482.080097 41.668386 
Q 482.136331 43.092993 482.173821 44.817517 
Q 482.21131 46.542041 482.361269 48.191586 
" clip-path="url(#p5df7143fb0)" style="fill: none; stroke: #000000; stroke-linejoin: miter"/>
   </g>
  </g>
  <g id="axes_31">
   <g id="patch_28">
    <path d="M 489.263834 37.95691 
L 489.938648 37.95691 
Q 490.650952 37.95691 491.438234 37.881931 
Q 492.225517 37.806952 493.181503 37.675738 
Q 494.13749 37.544524 494.662345 37.507034 
L 498.936166 35.82 
M 494.887283 30.42149 
L 494.887283 31.43371 
Q 494.887283 33.383172 494.212469 37.207117 
Q 493.537655 41.031062 493.537655 43.018014 
Q 493.537655 43.805297 493.537655 44.105214 
Q 493.537655 44.405131 493.631379 45.042455 
Q 493.725103 45.679779 493.912552 45.960952 
Q 494.1 46.242124 494.493641 46.485807 
Q 494.887283 46.72949 495.449628 46.72949 
Q 495.562097 46.692 495.880759 46.72949 
Q 496.199421 46.766979 496.386869 46.710745 
Q 496.574317 46.65451 496.574317 46.392083 
" clip-path="url(#pd5019a7dc3)" style="fill: none; stroke: #000000; stroke-linejoin: miter"/>
   </g>
  </g>
 </g>
 <defs>
  <clipPath id="pab5e45e54b">
   <rect x="1.389352" y="8.64" width="13.421297" height="54.36"/>
  </clipPath>
  <clipPath id="pf1efd05eb3">
   <rect x="18.938979" y="8.64" width="10.722041" height="54.36"/>
  </clipPath>
  <clipPath id="p5be0701fd7">
   <rect x="32.4" y="8.881927" width="16.2" height="53.876147"/>
  </clipPath>
  <clipPath id="p91f10237f3">
   <rect x="65.683241" y="8.64" width="14.433517" height="54.36"/>
  </clipPath>
  <clipPath id="p4aa23ed1b9">
   <rect x="83.738979" y="8.64" width="10.722041" height="54.36"/>
  </clipPath>
  <clipPath id="p2bd621da57">
   <rect x="97.802069" y="8.64" width="14.995862" height="54.36"/>
  </clipPath>
  <clipPath id="p001d8e26d0">
   <rect x="113.4" y="11.850612" width="16.2" height="47.938776"/>
  </clipPath>
  <clipPath id="p76727768b6">
   <rect x="129.6" y="8.881927" width="16.2" height="53.876147"/>
  </clipPath>
  <clipPath id="p6b15a2c6b9">
   <rect x="147.582993" y="8.64" width="12.634014" height="54.36"/>
  </clipPath>
  <clipPath id="p4ec2266fd2">
   <rect x="163.782993" y="8.64" width="12.634014" height="54.36"/>
  </clipPath>
  <clipPath id="pee2fb6eba3">
   <rect x="195.002069" y="8.64" width="14.995862" height="54.36"/>
  </clipPath>
  <clipPath id="p73fdd24bc3">
   <rect x="210.6" y="9.949956" width="16.2" height="51.740088"/>
  </clipPath>
  <clipPath id="p5b6fbc804c">
   <rect x="244.389352" y="8.64" width="13.421297" height="54.36"/>
  </clipPath>
  <clipPath id="p297efeca8c">
   <rect x="261.938979" y="8.64" width="10.722041" height="54.36"/>
  </clipPath>
  <clipPath id="p5bea4e744c">
   <rect x="275.4" y="8.881927" width="16.2" height="53.876147"/>
  </clipPath>
  <clipPath id="p459229af23">
   <rect x="297.206938" y="8.64" width="4.986124" height="54.36"/>
  </clipPath>
  <clipPath id="pecda97b349">
   <rect x="310.538979" y="8.64" width="10.722041" height="54.36"/>
  </clipPath>
  <clipPath id="p813351c224">
   <rect x="340.2" y="8.881927" width="16.2" height="53.876147"/>
  </clipPath>
  <clipPath id="pbe71f812c9">
   <rect x="357.451945" y="8.64" width="14.09611" height="54.36"/>
  </clipPath>
  <clipPath id="pe165ae4759">
   <rect x="373.483241" y="8.64" width="14.433517" height="54.36"/>
  </clipPath>
  <clipPath id="pb19a95ba65">
   <rect x="388.8" y="8.881927" width="16.2" height="53.876147"/>
  </clipPath>
  <clipPath id="pae656a0ed1">
   <rect x="407.738979" y="8.64" width="10.722041" height="54.36"/>
  </clipPath>
  <clipPath id="p1b21482af3">
   <rect x="426.806938" y="8.64" width="4.986124" height="54.36"/>
  </clipPath>
  <clipPath id="p506472d49b">
   <rect x="437.4" y="9.603482" width="16.2" height="52.433036"/>
  </clipPath>
  <clipPath id="p8f2e7c3c87">
   <rect x="453.6" y="8.881927" width="16.2" height="53.876147"/>
  </clipPath>
  <clipPath id="p5df7143fb0">
   <rect x="471.564248" y="8.64" width="12.671503" height="54.36"/>
  </clipPath>
  <clipPath id="pd5019a7dc3">
   <rect x="487.389352" y="8.64" width="13.421297" height="54.36"/>
  </clipPath>
 </defs>
</svg>
