<?xml version="1.0" encoding="utf-8" standalone="no"?>
<!DOCTYPE svg PUBLIC "-//W3C//DTD SVG 1.1//EN"
  "http://www.w3.org/Graphics/SVG/1.1/DTD/svg11.dtd">
<svg xmlns:xlink="http://www.w3.org/1999/xlink" width="283.5pt" height="72pt" viewBox="0 0 283.5 72" xmlns="http://www.w3.org/2000/svg" version="1.1">
 <metadata>
  <rdf:RDF xmlns:dc="http://purl.org/dc/elements/1.1/" xmlns:cc="http://creativecommons.org/ns#" xmlns:rdf="http://www.w3.org/1999/02/22-rdf-syntax-ns#">
   <cc:Work>
    <dc:type rdf:resource="http://purl.org/dc/dcmitype/StillImage"/>
    <dc:date>2023-02-14T21:50:03.328181</dc:date>
    <dc:format>image/svg+xml</dc:format>
    <dc:creator>
     <cc:Agent>
      <dc:title>Matplotlib v3.6.1, https://matplotlib.org/</dc:title>
     </cc:Agent>
    </dc:creator>
   </cc:Work>
  </rdf:RDF>
 </metadata>
 <defs>
  <style type="text/css">*{stroke-linejoin: round; stroke-linecap: butt}</style>
 </defs>
 <g id="figure_1">
  <g id="patch_1">
   <path d="M 0 72 
L 283.5 72 
L 283.5 0 
L 0 0 
z
" style="fill: #8fff9f"/>
  </g>
  <g id="axes_1">
   <g id="patch_2">
    <path d="M 19.52027 33.448378 
L 19.848649 46.401081 
L 19.885135 48.809189 
M 13.5 34.105135 
Q 15.725676 33.557838 20.104054 33.430135 
Q 24.482432 33.302432 26.525676 32.901081 
M 13.281081 26.442973 
Q 14.740541 25.895676 18.006081 25.512568 
Q 21.271622 25.129459 22.475676 24.801081 
M 13.171622 25.895676 
L 13.171622 26.333514 
Q 13.171622 27.209189 13.335811 28.997027 
Q 13.5 30.784865 13.5 31.697027 
Q 13.5 36.184865 12.460135 38.921351 
Q 11.42027 41.657838 8.902703 44.102432 
L 8.355405 44.321351 
M 2.152703 35.82 
Q 2.335135 35.710541 2.845946 35.710541 
Q 3.356757 35.710541 3.466216 35.491622 
L 9.924324 35.163243 
M 2.152703 28.376757 
Q 3.466216 28.011892 6.075 27.975405 
Q 8.683784 27.938919 9.814865 27.72 
Q 10.216216 27.574054 10.508108 27.610541 
Q 10.8 27.647027 10.8 28.157838 
L 10.8 28.814595 
L 9.048649 35.053784 
L 8.939189 35.491622 
M 1.824324 28.157838 
Q 2.07973 28.267297 2.043243 28.869324 
Q 2.006757 29.471351 2.262162 29.69027 
L 2.371622 35.710541 
" clip-path="url(#p44f2028b0b)" style="fill: none; stroke: #000000; stroke-linejoin: miter"/>
   </g>
  </g>
  <g id="axes_2">
   <g id="patch_3">
    <path d="M 42.243828 36.644772 
L 42.468766 41.480938 
L 42.806172 44.855007 
Q 43.293538 46.167145 44.380738 46.991917 
Q 46.105262 48.603972 49.329372 48.454014 
Q 49.479331 48.454014 49.985441 48.491503 
Q 50.491552 48.528993 50.941428 48.528993 
Q 51.391303 48.528993 51.859924 48.491503 
Q 52.328545 48.454014 52.628462 48.28531 
Q 52.928379 48.116607 52.928379 47.7792 
L 52.928379 47.216855 
L 53.603193 45.64229 
M 38.082476 36.757241 
Q 37.482641 46.579531 31.559276 47.554262 
M 31.784214 36.86971 
L 32.346559 36.86971 
Q 32.534007 36.86971 32.721455 36.86971 
Q 32.908903 36.86971 32.946393 36.832221 
Q 33.021372 36.682262 34.033593 36.419834 
L 49.441841 35.445103 
M 36.170503 32.633379 
L 45.617897 31.921076 
M 41.006669 24.873021 
L 43.143579 25.885241 
M 32.009152 28.696966 
L 35.833097 28.584497 
Q 36.620379 28.472028 38.119966 28.228345 
Q 39.619552 27.984662 40.837966 27.834703 
Q 42.056379 27.684745 43.143579 27.684745 
L 47.079993 27.684745 
Q 47.904766 27.684745 50.022931 27.553531 
Q 52.141097 27.422317 52.141097 27.234869 
Q 52.141097 27.384828 51.7662 27.947172 
Q 51.391303 28.509517 51.316324 28.584497 
L 50.004186 29.934124 
M 33.24631 26.335117 
L 33.24631 26.560055 
L 31.446807 31.283752 
" clip-path="url(#p640b7dc376)" style="fill: none; stroke: #000000; stroke-linejoin: miter"/>
   </g>
  </g>
  <g id="axes_3">
   <g id="patch_4">
    <path d="M 61.577566 42.943034 
L 80.172434 41.330979 
M 70.050228 38.444276 
Q 71.287386 41.855834 71.062448 47.891669 
Q 70.949979 49.091338 70.575083 49.091338 
Q 70.275166 49.091338 69.262945 47.7792 
Q 68.175745 46.242124 67.57591 46.092166 
M 67.463441 35.969959 
L 67.913317 35.969959 
Q 68.325703 35.969959 69.75031 35.726276 
Q 71.174917 35.482593 72.412076 35.220166 
L 73.649234 34.957738 
Q 73.649234 35.445103 73.236848 36.176152 
Q 72.824462 36.9072 72.187138 37.769462 
Q 71.549814 38.631724 71.399855 38.894152 
L 70.83751 39.681434 
M 69.75031 27.347338 
Q 70.762531 27.947172 72.768228 30.046593 
Q 74.773924 32.146014 76.27351 32.745848 
L 78.972766 33.870538 
M 69.862779 27.459807 
L 69.637841 27.459807 
Q 69.225455 27.872193 68.063276 29.2968 
Q 66.901097 30.721407 65.9826 31.4712 
Q 65.064103 32.220993 63.901924 32.52091 
L 62.439828 33.420662 
L 61.652545 33.6456 
M 64.689207 28.134621 
Q 67.6134 27.459807 73.124379 27.009931 
Q 73.686724 26.897462 74.811414 26.710014 
Q 75.936103 26.522566 76.385979 26.447586 
M 70.087717 24.98549 
L 70.087717 33.6456 
" clip-path="url(#p43af6e00a0)" style="fill: none; stroke: #000000; stroke-linejoin: miter"/>
   </g>
  </g>
  <g id="axes_4">
   <g id="patch_5">
    <path d="M 92.383138 47.291834 
Q 92.833014 47.179366 93.82649 47.179366 
Q 94.819966 47.179366 95.307331 47.066897 
L 105.542007 46.841959 
M 93.057952 43.242952 
L 93.28289 43.242952 
Q 94.482559 43.242952 95.9634 43.055503 
Q 97.444241 42.868055 99.299979 42.549393 
Q 101.155717 42.230731 102.055469 42.118262 
L 103.854972 42.005793 
M 93.395359 40.656166 
Q 94.782476 40.13131 97.819138 39.812648 
Q 100.8558 39.493986 102.280407 38.969131 
Q 102.430366 38.969131 102.842752 38.912897 
Q 103.255138 38.856662 103.405097 38.856662 
L 104.304848 38.856662 
Q 104.379828 38.856662 104.473552 38.687959 
Q 104.567276 38.519255 104.717234 38.519255 
Q 104.829703 38.519255 104.829703 39.531476 
Q 104.829703 39.568966 104.604766 43.46789 
L 104.042421 46.392083 
M 101.268186 35.520083 
Q 101.568103 35.632552 102.149193 36.007448 
Q 102.730283 36.382345 103.06769 36.532303 
L 103.967441 37.319586 
M 101.043248 32.970786 
L 101.493124 32.970786 
Q 101.718062 32.970786 102.186683 33.176979 
Q 102.655303 33.383172 103.198903 33.701834 
Q 103.742503 34.020497 103.854972 34.095476 
L 104.642255 34.995228 
M 93.620297 36.194897 
Q 93.770255 36.269876 94.37009 36.476069 
Q 94.969924 36.682262 95.307331 36.94469 
L 96.881897 37.731972 
M 93.845234 33.570621 
L 94.29511 33.570621 
L 96.769428 34.69531 
M 99.018807 27.272359 
L 99.131276 38.181848 
M 96.54449 27.609766 
L 101.830531 26.710014 
M 90.696103 32.108524 
Q 93.132931 31.50869 98.081566 31.058814 
Q 103.0302 30.608938 105.317069 30.084083 
Q 106.066862 29.896634 106.685441 29.915379 
Q 107.304021 29.934124 107.697662 30.121572 
Q 108.091303 30.309021 107.941345 30.89011 
Q 107.791386 31.4712 107.004103 32.333462 
L 106.554228 33.68309 
M 90.808572 30.271531 
L 90.358697 34.920248 
" clip-path="url(#pf5aacb1e56)" style="fill: none; stroke: #000000; stroke-linejoin: miter"/>
   </g>
  </g>
  <g id="axes_5">
   <g id="patch_6">
    <path d="M 130.536683 33.420662 
Q 131.661372 33.720579 133.910752 35.332634 
M 128.849648 28.584497 
Q 130.349234 28.696966 132.673593 28.115876 
Q 134.997952 27.534786 135.822724 27.459807 
Q 136.23511 27.459807 136.460048 27.553531 
Q 136.684986 27.647255 136.759966 27.890938 
Q 136.834945 28.134621 136.8162 28.378303 
Q 136.797455 28.621986 136.759966 29.146841 
Q 136.722476 29.671697 136.722476 30.046593 
Q 136.947414 34.320414 136.160131 43.4304 
Q 136.160131 43.805297 136.160131 44.105214 
Q 136.160131 44.405131 136.141386 44.630069 
Q 136.122641 44.855007 135.953938 44.986221 
Q 135.785234 45.117434 135.372848 45.117434 
L 134.698034 45.117434 
L 132.336186 43.542869 
M 130.649152 23.8608 
L 130.649152 24.198207 
Q 130.649152 25.022979 130.274255 26.110179 
Q 129.899359 27.197379 129.299524 28.472028 
Q 128.69969 29.746676 128.512241 30.271531 
L 127.837428 31.396221 
M 119.252297 43.767807 
L 120.264517 43.767807 
L 126.112903 43.4304 
M 119.252297 35.894979 
L 124.875745 35.670041 
M 118.202586 29.971614 
L 120.114559 29.971614 
Q 120.601924 29.971614 122.139 29.634207 
Q 123.676076 29.2968 124.950724 28.959393 
Q 126.225372 28.621986 126.225372 28.584497 
Q 126.225372 39.493986 126.000434 42.868055 
L 125.663028 45.342372 
M 118.652462 28.846924 
L 118.652462 29.184331 
Q 118.652462 30.908855 119.064848 34.15171 
Q 119.477234 37.394566 119.477234 39.156579 
L 119.477234 42.868055 
L 119.027359 43.992745 
M 124.763276 24.760552 
Q 124.3134 25.060469 123.788545 25.99771 
Q 123.26369 26.934952 122.851303 27.234869 
L 121.951552 29.25931 
" clip-path="url(#p4f64b7b8d7)" style="fill: none; stroke: #000000; stroke-linejoin: miter"/>
   </g>
  </g>
  <g id="axes_6">
   <g id="patch_7">
    <path d="M 155.193952 38.144359 
Q 155.268931 38.256828 155.531359 38.03189 
Q 155.718807 37.844441 155.756297 38.106869 
L 160.892379 38.144359 
M 158.68049 33.420662 
Q 158.68049 33.533131 158.68049 33.776814 
Q 158.68049 34.020497 158.68049 34.132966 
Q 158.68049 34.545352 158.380572 38.594234 
L 158.118145 41.106041 
M 159.317814 43.130483 
Q 159.542752 43.317931 160.892379 45.042455 
Q 162.242007 46.766979 163.366697 47.179366 
M 155.718807 43.018014 
L 155.718807 43.242952 
Q 155.718807 43.46789 155.493869 43.861531 
Q 155.268931 44.255172 154.950269 44.667559 
Q 154.631607 45.079945 154.594117 45.154924 
L 153.356959 46.392083 
M 155.156462 40.993572 
L 155.831276 40.993572 
Q 155.868766 40.993572 159.992628 41.106041 
L 161.567193 41.443448 
M 154.144241 36.044938 
Q 154.406669 35.745021 156.018724 35.82 
Q 157.630779 35.894979 157.968186 35.85749 
Q 161.454724 35.407614 162.129538 35.407614 
Q 162.466945 35.407614 162.466945 35.520083 
Q 162.316986 36.044938 161.960834 37.375821 
Q 161.604683 38.706703 161.304766 39.6252 
Q 161.004848 40.543697 160.667441 41.21851 
M 154.031772 36.607283 
Q 154.406669 37.057159 154.631607 37.806952 
Q 154.856545 38.556745 155.156462 39.006621 
Q 155.156462 39.0816 155.118972 39.531476 
Q 155.081483 39.981352 155.137717 40.337503 
Q 155.193952 40.693655 155.3814 40.768634 
M 155.606338 33.720579 
Q 155.606338 33.420662 155.643828 33.383172 
Q 155.681317 33.345683 155.868766 33.60811 
Q 156.131193 34.057986 156.168683 33.720579 
Q 156.843497 33.720579 157.649524 33.589366 
Q 158.455552 33.458152 159.467772 33.233214 
Q 160.479993 33.008276 161.004848 32.933297 
M 158.043166 27.347338 
Q 158.193124 27.309848 158.474297 27.478552 
Q 158.755469 27.647255 158.942917 27.684745 
L 160.067607 28.809434 
M 151.519966 31.396221 
Q 155.756297 30.009103 164.453897 30.159062 
Q 164.791303 30.159062 165.503607 30.102828 
Q 166.21591 30.046593 166.590807 30.046593 
L 166.628297 30.046593 
L 166.703276 30.084083 
L 166.703276 30.384 
L 165.691055 32.633379 
M 151.969841 29.484248 
Q 151.932352 29.709186 151.969841 30.159062 
L 150.845152 33.533131 
M 149.757952 38.481766 
Q 149.008159 39.718924 147.452338 41.874579 
Q 145.896517 44.030234 145.484131 44.667559 
L 145.146724 45.679779 
M 145.371662 33.083255 
L 145.709069 33.083255 
Q 145.971497 33.083255 146.346393 33.233214 
Q 146.72129 33.383172 147.18991 33.6456 
Q 147.658531 33.908028 147.845979 33.983007 
L 149.083138 35.107697 
M 146.496352 28.022152 
L 146.72129 28.022152 
L 149.308076 30.721407 
" clip-path="url(#pd87d80dcdf)" style="fill: none; stroke: #000000; stroke-linejoin: miter"/>
   </g>
  </g>
  <g id="axes_7">
   <g id="patch_8">
    <path d="M 175.880694 26.779978 
L 176.15743 26.779978 
L 177.079881 27.333449 
L 179.386009 29.362842 
M 190.393926 27.425694 
Q 189.840456 27.70243 189.025624 28.578758 
Q 188.210792 29.455087 187.718818 29.731822 
M 183.383297 27.056714 
Q 183.537039 27.179707 184.167381 27.59481 
Q 184.797722 28.009913 185.043709 28.348145 
L 185.873915 28.809371 
M 188.303037 35.973742 
L 188.487527 43.630087 
Q 188.303037 44.829273 189.840456 45.613357 
Q 191.377874 46.39744 192.761551 46.39744 
Q 192.915293 46.39744 194.222099 46.443563 
Q 195.528905 46.489685 195.713395 46.489685 
Q 196.451356 46.489685 196.666594 46.059208 
Q 196.881833 45.628731 196.789588 45.121383 
Q 196.697343 44.614035 196.912581 44.183557 
M 186.55038 35.82 
L 186.55038 36.096735 
Q 186.55038 40.647495 182.491594 46.489685 
L 182.307104 47.043156 
M 184.397993 35.174284 
L 191.224132 35.082039 
M 183.752278 30.377538 
L 185.504935 30.377538 
L 190.855152 30.377538 
Q 190.855152 30.992505 190.793655 31.715092 
Q 190.732158 32.437679 190.624539 33.344756 
Q 190.51692 34.251833 190.486171 34.713059 
M 183.936768 30.838764 
L 183.936768 31.207744 
L 183.936768 32.406931 
L 184.397993 34.620813 
M 171.637419 35.112787 
L 171.821909 35.112787 
Q 173.021095 35.112787 175.327223 34.282581 
Q 177.633351 33.452375 178.740293 33.452375 
Q 178.832538 33.452375 178.832538 33.913601 
Q 178.740293 35.850748 178.171448 39.233069 
Q 177.602603 42.61539 177.541106 44.675531 
Q 177.541106 45.013764 177.402739 45.567234 
Q 177.264371 46.120705 177.264371 46.428189 
Q 179.109273 42.799881 181.046421 42.000423 
" clip-path="url(#p9d9d395b8d)" style="fill: none; stroke: #000000; stroke-linejoin: miter"/>
   </g>
  </g>
  <g id="axes_8">
   <g id="patch_9">
    <path d="M 208.070007 47.066897 
Q 213.880903 45.979697 218.754559 46.054676 
M 207.845069 38.631724 
Q 207.845069 38.631724 209.082228 38.631724 
Q 210.844241 38.631724 214.29329 37.95691 
Q 217.742338 37.282097 219.541841 37.282097 
Q 217.404931 43.242952 216.955055 44.592579 
L 216.167772 47.404303 
M 207.845069 38.181848 
Q 207.807579 38.406786 207.845069 38.631724 
Q 207.845069 39.456497 207.938793 40.431228 
Q 208.032517 41.405959 208.182476 42.586883 
Q 208.332434 43.767807 208.407414 44.367641 
L 208.632352 46.841959 
M 206.045566 36.157407 
Q 208.557372 35.595062 211.350352 35.126441 
Q 214.143331 34.657821 217.779828 34.132966 
Q 221.416324 33.60811 223.140848 33.345683 
L 224.153069 33.233214 
M 205.483221 28.734455 
L 205.483221 29.184331 
Q 205.483221 30.196552 205.651924 32.258483 
Q 205.820628 34.320414 205.820628 35.370124 
Q 205.820628 37.769462 205.164559 39.793903 
Q 204.50849 41.818345 203.34631 44.142703 
Q 202.184131 46.467062 201.659276 48.079117 
L 201.096931 48.416524 
M 205.820628 30.196552 
Q 205.783138 30.309021 205.839372 30.327766 
Q 205.895607 30.34651 206.045566 30.327766 
Q 206.195524 30.309021 206.270503 30.309021 
Q 207.77009 30.309021 209.588338 29.859145 
Q 211.406586 29.409269 213.618476 28.659476 
Q 215.830366 27.909683 216.955055 27.609766 
L 218.529621 26.822483 
" clip-path="url(#p18ff48afc6)" style="fill: none; stroke: #000000; stroke-linejoin: miter"/>
   </g>
  </g>
  <g id="axes_9">
   <g id="patch_10">
    <path d="M 239.512903 36.94469 
Q 239.550393 37.019669 239.812821 37.263352 
Q 240.075248 37.507034 240.187717 37.619503 
Q 240.300186 37.731972 240.543869 38.013145 
Q 240.787552 38.294317 240.93751 38.463021 
Q 241.087469 38.631724 241.312407 38.931641 
Q 241.537345 39.231559 241.668559 39.437752 
Q 241.799772 39.643945 241.949731 39.943862 
Q 242.09969 40.243779 242.193414 40.487462 
Q 242.287138 40.731145 242.362117 41.012317 
Q 242.437097 41.29349 242.437097 41.555917 
Q 242.437097 42.118262 242.287138 42.605628 
Q 242.137179 43.092993 241.856007 43.636593 
Q 241.574834 44.180193 241.424876 44.592579 
L 240.300186 45.717269 
" clip-path="url(#pa1fae27a78)" style="fill: none; stroke: #000000; stroke-linejoin: miter"/>
   </g>
  </g>
 </g>
 <defs>
  <clipPath id="p44f2028b0b">
   <rect x="0" y="9.367297" width="28.35" height="52.905405"/>
  </clipPath>
  <clipPath id="p640b7dc376">
   <rect x="29.572324" y="8.64" width="25.905352" height="54.36"/>
  </clipPath>
  <clipPath id="p43af6e00a0">
   <rect x="59.703083" y="8.64" width="22.343834" height="54.36"/>
  </clipPath>
  <clipPath id="pf5aacb1e56">
   <rect x="88.484214" y="8.64" width="21.481572" height="54.36"/>
  </clipPath>
  <clipPath id="p4f64b7b8d7">
   <rect x="116.328103" y="8.64" width="22.493793" height="54.36"/>
  </clipPath>
  <clipPath id="pd87d80dcdf">
   <rect x="143.272241" y="8.64" width="25.305517" height="54.36"/>
  </clipPath>
  <clipPath id="p9d9d395b8d">
   <rect x="170.1" y="13.52743" width="28.35" height="44.585141"/>
  </clipPath>
  <clipPath id="p18ff48afc6">
   <rect x="199.222448" y="8.64" width="26.805103" height="54.36"/>
  </clipPath>
  <clipPath id="pa1fae27a78">
   <rect x="237.638421" y="8.64" width="6.673159" height="54.36"/>
  </clipPath>
 </defs>
</svg>
