<?xml version="1.0" encoding="utf-8" standalone="no"?>
<!DOCTYPE svg PUBLIC "-//W3C//DTD SVG 1.1//EN"
  "http://www.w3.org/Graphics/SVG/1.1/DTD/svg11.dtd">
<svg xmlns:xlink="http://www.w3.org/1999/xlink" width="450pt" height="72pt" viewBox="0 0 450 72" xmlns="http://www.w3.org/2000/svg" version="1.1">
 <metadata>
  <rdf:RDF xmlns:dc="http://purl.org/dc/elements/1.1/" xmlns:cc="http://creativecommons.org/ns#" xmlns:rdf="http://www.w3.org/1999/02/22-rdf-syntax-ns#">
   <cc:Work>
    <dc:type rdf:resource="http://purl.org/dc/dcmitype/StillImage"/>
    <dc:date>2023-02-15T23:07:20.521698</dc:date>
    <dc:format>image/svg+xml</dc:format>
    <dc:creator>
     <cc:Agent>
      <dc:title>Matplotlib v3.6.1, https://matplotlib.org/</dc:title>
     </cc:Agent>
    </dc:creator>
   </cc:Work>
  </rdf:RDF>
 </metadata>
 <defs>
  <style type="text/css">*{stroke-linejoin: round; stroke-linecap: butt}</style>
 </defs>
 <g id="figure_1">
  <g id="patch_1">
   <path d="M 0 72 
L 450 72 
L 450 0 
L 0 0 
z
" style="fill: #8fff9f"/>
  </g>
  <g id="axes_1">
   <g id="patch_2">
    <path d="M 8.456152 30.309021 
Q 7.968786 30.42149 8.381172 30.833876 
Q 8.756069 31.208772 8.831048 30.946345 
Q 8.868538 30.871366 8.793559 30.646428 
Q 8.793559 30.458979 8.718579 30.42149 
Q 8.6436 30.384 8.512386 30.42149 
Q 8.381172 30.458979 8.231214 30.42149 
L 8.118745 30.646428 
M 9.018497 33.345683 
Q 10.068207 37.731972 10.593062 40.13131 
Q 11.117917 42.530648 11.567793 46.317103 
Q 12.017669 50.103559 11.830221 53.25269 
Q 11.830221 53.440138 11.830221 54.021228 
Q 11.830221 54.602317 11.830221 54.902234 
Q 11.830221 55.202152 11.811476 55.783241 
Q 11.792731 56.364331 11.717752 56.701738 
Q 11.642772 57.039145 11.530303 57.52651 
Q 11.417834 58.013876 11.211641 58.313793 
Q 11.005448 58.61371 10.743021 58.894883 
Q 10.480593 59.176055 10.105697 59.307269 
Q 9.7308 59.438483 9.243434 59.438483 
Q 8.268703 59.438483 7.51891 59.251034 
Q 6.769117 59.063586 5.906855 58.707434 
Q 5.044593 58.351283 4.407269 58.201324 
L 4.182331 57.751448 
" clip-path="url(#p6bf66ace8c)" style="fill: none; stroke: #000000; stroke-linejoin: miter"/>
   </g>
  </g>
  <g id="axes_2">
   <g id="patch_3">
    <path d="M 21.563255 30.608938 
Q 22.687945 31.096303 24.112552 32.989531 
Q 25.537159 34.882759 26.062014 35.332634 
M 20.363586 38.706703 
Q 20.213628 38.819172 20.194883 39.025366 
Q 20.176138 39.231559 20.213628 39.475241 
Q 20.251117 39.718924 20.251117 39.831393 
Q 20.251117 40.993572 20.401076 42.155752 
Q 20.551034 43.317931 20.925931 44.742538 
Q 21.300828 46.167145 22.16309 47.048152 
Q 23.025352 47.929159 24.3 47.929159 
Q 25.687117 47.404303 26.305697 45.848483 
Q 26.924276 44.292662 27.167959 41.649641 
Q 27.411641 39.006621 27.5616 38.369297 
Q 28.048966 45.267393 28.086455 46.392083 
L 28.423862 48.079117 
" clip-path="url(#pd46b0c058d)" style="fill: none; stroke: #000000; stroke-linejoin: miter"/>
   </g>
  </g>
  <g id="axes_3">
   <g id="patch_4">
    <path d="M 40.856152 30.309021 
Q 40.368786 30.42149 40.781172 30.833876 
Q 41.156069 31.208772 41.231048 30.946345 
Q 41.268538 30.871366 41.193559 30.646428 
Q 41.193559 30.458979 41.118579 30.42149 
Q 41.0436 30.384 40.912386 30.42149 
Q 40.781172 30.458979 40.631214 30.42149 
L 40.518745 30.646428 
M 41.418497 33.345683 
Q 42.468207 37.731972 42.993062 40.13131 
Q 43.517917 42.530648 43.967793 46.317103 
Q 44.417669 50.103559 44.230221 53.25269 
Q 44.230221 53.440138 44.230221 54.021228 
Q 44.230221 54.602317 44.230221 54.902234 
Q 44.230221 55.202152 44.211476 55.783241 
Q 44.192731 56.364331 44.117752 56.701738 
Q 44.042772 57.039145 43.930303 57.52651 
Q 43.817834 58.013876 43.611641 58.313793 
Q 43.405448 58.61371 43.143021 58.894883 
Q 42.880593 59.176055 42.505697 59.307269 
Q 42.1308 59.438483 41.643434 59.438483 
Q 40.668703 59.438483 39.91891 59.251034 
Q 39.169117 59.063586 38.306855 58.707434 
Q 37.444593 58.351283 36.807269 58.201324 
L 36.582331 57.751448 
" clip-path="url(#pc1d80401d8)" style="fill: none; stroke: #000000; stroke-linejoin: miter"/>
   </g>
  </g>
  <g id="axes_4">
   <g id="patch_5">
    <path d="M 53.157228 36.157407 
L 60.242772 36.157407 
M 56.643766 39.306538 
L 56.643766 47.516772 
" clip-path="url(#pd80d63ed3a)" style="fill: none; stroke: #000000; stroke-linejoin: miter"/>
   </g>
  </g>
  <g id="axes_5">
   <g id="patch_6">
    <path d="M 68.438731 37.282097 
L 68.438731 37.844441 
Q 68.701159 39.868883 68.738648 41.312234 
Q 68.776138 42.755586 68.682414 44.667559 
Q 68.58869 46.579531 68.58869 48.191586 
L 68.663669 39.643945 
Q 68.663669 38.144359 70.256979 37.507034 
Q 71.85029 36.86971 73.274897 37.282097 
Q 75.186869 37.844441 76.105366 39.04411 
Q 77.023862 40.243779 77.080097 41.668386 
Q 77.136331 43.092993 77.173821 44.817517 
Q 77.21131 46.542041 77.361269 48.191586 
" clip-path="url(#p8f76f81e16)" style="fill: none; stroke: #000000; stroke-linejoin: miter"/>
   </g>
  </g>
  <g id="axes_6">
   <g id="patch_7">
    <path d="M 93.887191 39.096404 
Q 93.63236 39.023596 92.66764 38.623146 
Q 91.702921 38.222697 91.04764 38.077079 
Q 90.39236 37.931461 89.737079 38.00427 
Q 87.115955 38.00427 85.477753 40.388764 
Q 83.839551 42.773258 83.839551 45.430787 
Q 83.839551 47.068989 89.081798 47.068989 
Q 90.647191 47.068989 91.975955 45.558202 
Q 93.304719 44.047416 93.978202 42.172584 
Q 94.651685 40.297753 94.651685 38.768764 
Q 94.651685 37.27618 94.615281 36.984944 
L 94.542472 38.077079 
Q 94.542472 38.550337 94.542472 38.987191 
Q 94.578876 40.188539 94.779101 42.281798 
Q 94.979326 44.375056 95.143146 46.049663 
Q 95.306966 47.72427 95.343371 49.872135 
Q 95.379775 52.02 95.215955 53.658202 
Q 95.052135 55.296404 94.487865 56.971011 
Q 93.923596 58.645618 92.995281 59.737753 
Q 92.066966 60.829888 90.465169 61.521573 
Q 88.863371 62.213258 86.715506 62.213258 
Q 85.077303 62.213258 83.985169 61.466966 
Q 82.893034 60.720674 82.893034 59.155281 
Q 82.820225 58.936854 82.856629 58.936854 
Q 82.893034 58.936854 83.002247 58.936854 
Q 83.111461 58.936854 83.111461 58.82764 
" clip-path="url(#p58297e9dde)" style="fill: none; stroke: #000000; stroke-linejoin: miter"/>
   </g>
  </g>
  <g id="axes_7">
   <g id="patch_8">
    <path d="M 101.813462 35.932469 
Q 102.413297 35.257655 103.406772 34.826524 
Q 104.400248 34.395393 105.3 34.470372 
Q 105.937324 34.470372 106.42469 34.639076 
Q 106.912055 34.807779 107.230717 34.995228 
Q 107.549379 35.182676 107.774317 35.670041 
Q 107.999255 36.157407 108.111724 36.419834 
Q 108.224193 36.682262 108.280428 37.375821 
Q 108.336662 38.069379 108.355407 38.331807 
Q 108.374152 38.594234 108.355407 39.419007 
Q 108.336662 40.243779 108.336662 40.431228 
Q 108.336662 41.368469 108.167959 43.242952 
Q 107.999255 45.117434 107.999255 46.054676 
Q 107.999255 46.467062 108.05549 46.823214 
Q 108.111724 47.179366 108.205448 47.610497 
Q 108.299172 48.041628 108.336662 48.304055 
L 108.786538 48.528993 
M 102.263338 23.111007 
Q 102.488276 24.798041 102.488276 29.971614 
L 102.488276 42.3432 
L 102.150869 46.841959 
L 101.925931 47.74171 
" clip-path="url(#p8a664c7c3c)" style="fill: none; stroke: #000000; stroke-linejoin: miter"/>
   </g>
  </g>
  <g id="axes_8">
   <g id="patch_9">
    <path d="M 116.888772 35.145186 
Q 116.888772 35.145186 116.888772 35.595062 
Q 116.888772 36.269876 116.776303 37.619503 
Q 116.663834 38.969131 116.663834 39.643945 
Q 116.663834 41.930814 117.900993 43.599103 
Q 119.138152 45.267393 121.275062 45.267393 
Q 122.662179 45.154924 123.430717 43.917766 
Q 124.199255 42.680607 124.349214 41.237255 
Q 124.499172 39.793903 124.7616 37.9944 
Q 125.024028 36.194897 125.436414 35.370124 
Q 125.586372 35.070207 125.586372 35.670041 
Q 125.586372 36.269876 125.323945 38.706703 
Q 125.099007 41.031062 125.099007 41.555917 
Q 124.949048 42.643117 125.286455 43.767807 
Q 125.623862 44.892497 126.336166 45.6048 
" clip-path="url(#p2a02c4c21d)" style="fill: none; stroke: #000000; stroke-linejoin: miter"/>
   </g>
  </g>
  <g id="axes_9">
   <g id="patch_10">
    <path d="M 135.413131 30.384 
L 138.674731 34.657821 
M 138.337324 37.019669 
L 138.074897 41.743366 
Q 138.187366 42.268221 138.318579 43.749062 
Q 138.449793 45.229903 138.7872 46.1484 
Q 139.124607 47.066897 139.986869 47.591752 
" clip-path="url(#pe20970516f)" style="fill: none; stroke: #000000; stroke-linejoin: miter"/>
   </g>
  </g>
  <g id="axes_10">
   <g id="patch_11">
    <path d="M 149.457476 43.917766 
Q 149.757393 44.180193 150.769614 45.154924 
Q 151.781834 46.129655 152.344179 46.560786 
Q 152.906524 46.991917 153.93749 47.385559 
Q 154.968455 47.7792 155.980676 47.629241 
Q 156.65549 47.629241 157.12411 47.404303 
Q 157.592731 47.179366 157.817669 46.879448 
Q 158.042607 46.579531 158.173821 45.979697 
Q 158.305034 45.379862 158.323779 44.967476 
Q 158.342524 44.55509 158.342524 43.805297 
Q 158.342524 42.718097 157.442772 42.043283 
Q 156.543021 41.368469 155.249628 41.031062 
Q 153.956234 40.693655 152.662841 40.300014 
Q 151.369448 39.906372 150.469697 38.987876 
Q 149.569945 38.069379 149.569945 36.607283 
Q 149.569945 36.082428 149.738648 35.726276 
Q 149.907352 35.370124 150.300993 35.145186 
Q 150.694634 34.920248 150.975807 34.807779 
Q 151.256979 34.69531 151.913048 34.639076 
Q 152.569117 34.582841 152.756566 34.582841 
Q 152.944014 34.582841 153.618828 34.582841 
Q 154.818497 34.582841 155.399586 34.995228 
Q 155.980676 35.407614 156.299338 36.026193 
Q 156.618 36.644772 156.880428 36.832221 
" clip-path="url(#p842d4f9e79)" style="fill: none; stroke: #000000; stroke-linejoin: miter"/>
   </g>
  </g>
  <g id="axes_11">
   <g id="patch_12">
    <path d="M 166.613462 35.932469 
Q 167.213297 35.257655 168.206772 34.826524 
Q 169.200248 34.395393 170.1 34.470372 
Q 170.737324 34.470372 171.22469 34.639076 
Q 171.712055 34.807779 172.030717 34.995228 
Q 172.349379 35.182676 172.574317 35.670041 
Q 172.799255 36.157407 172.911724 36.419834 
Q 173.024193 36.682262 173.080428 37.375821 
Q 173.136662 38.069379 173.155407 38.331807 
Q 173.174152 38.594234 173.155407 39.419007 
Q 173.136662 40.243779 173.136662 40.431228 
Q 173.136662 41.368469 172.967959 43.242952 
Q 172.799255 45.117434 172.799255 46.054676 
Q 172.799255 46.467062 172.85549 46.823214 
Q 172.911724 47.179366 173.005448 47.610497 
Q 173.099172 48.041628 173.136662 48.304055 
L 173.586538 48.528993 
M 167.063338 23.111007 
Q 167.288276 24.798041 167.288276 29.971614 
L 167.288276 42.3432 
L 166.950869 46.841959 
L 166.725931 47.74171 
" clip-path="url(#p6474991a47)" style="fill: none; stroke: #000000; stroke-linejoin: miter"/>
   </g>
  </g>
  <g id="axes_12">
   <g id="patch_13">
    <path d="M 183.0384 34.357903 
Q 183.300828 34.395393 183.638234 33.795559 
Q 183.975641 33.195724 184.500497 33.345683 
L 188.999255 29.2968 
M 182.138648 40.656166 
L 182.363586 40.656166 
Q 183.07589 40.656166 184.63171 41.330979 
Q 186.187531 42.005793 187.087283 42.005793 
Q 189.786538 42.005793 189.786538 38.744193 
Q 189.786538 36.607283 186.412469 36.607283 
Q 184.537986 36.607283 183.450786 37.750717 
Q 182.363586 38.894152 182.363586 40.768634 
Q 182.363586 43.617848 183.694469 45.454841 
Q 185.025352 47.291834 187.762097 47.291834 
Q 189.224193 47.591752 190.461352 45.6048 
" clip-path="url(#p63e39e83fc)" style="fill: none; stroke: #000000; stroke-linejoin: miter"/>
   </g>
  </g>
  <g id="axes_13">
   <g id="patch_14">
    <path d="M 198.038731 37.282097 
L 198.038731 37.844441 
Q 198.301159 39.868883 198.338648 41.312234 
Q 198.376138 42.755586 198.282414 44.667559 
Q 198.18869 46.579531 198.18869 48.191586 
L 198.263669 39.643945 
Q 198.263669 38.144359 199.856979 37.507034 
Q 201.45029 36.86971 202.874897 37.282097 
Q 204.786869 37.844441 205.705366 39.04411 
Q 206.623862 40.243779 206.680097 41.668386 
Q 206.736331 43.092993 206.773821 44.817517 
Q 206.81131 46.542041 206.961269 48.191586 
" clip-path="url(#p2b1b6708eb)" style="fill: none; stroke: #000000; stroke-linejoin: miter"/>
   </g>
  </g>
  <g id="axes_14"/>
  <g id="axes_15">
   <g id="patch_15">
    <path d="M 238.499007 39.568966 
Q 237.149379 38.181848 234.9 38.444276 
Q 232.050786 38.444276 230.888607 39.793903 
Q 229.726428 41.143531 229.726428 44.067724 
Q 229.726428 45.56731 231.019821 46.279614 
Q 232.313214 46.991917 233.887779 46.991917 
Q 235.199917 46.991917 236.212138 45.736014 
Q 237.224359 44.48011 237.805448 42.30571 
Q 238.386538 40.13131 238.761434 37.938166 
Q 239.136331 35.745021 239.28629 33.045766 
Q 239.436248 30.34651 239.473738 28.978138 
Q 239.511228 27.609766 239.511228 26.185159 
Q 239.28629 26.260138 239.28629 29.896634 
L 239.28629 44.292662 
L 240.073572 48.229076 
" clip-path="url(#ped1f1da639)" style="fill: none; stroke: #000000; stroke-linejoin: miter"/>
   </g>
  </g>
  <g id="axes_16">
   <g id="patch_16">
    <path d="M 244.857798 38.160826 
Q 247.830275 39.535596 252.549083 39.721376 
Q 254.072477 39.721376 254.759862 38.550963 
Q 255.447248 37.38055 255.447248 35.82 
Q 255.447248 35.299817 255.354358 34.909679 
Q 255.261468 34.519541 255.019954 34.296606 
Q 254.77844 34.07367 254.611239 33.943624 
Q 254.444037 33.813578 253.998165 33.757844 
Q 253.552294 33.70211 253.347936 33.683532 
Q 253.143578 33.664954 252.567661 33.683532 
Q 251.991743 33.70211 251.768807 33.70211 
Q 249.725229 33.70211 248.238991 35.578486 
Q 246.752752 37.454862 246.752752 39.609908 
Q 246.752752 42.619541 248.684862 44.570229 
Q 250.616972 46.520917 253.663761 46.520917 
Q 255.818807 46.818165 257.342202 44.29156 
" clip-path="url(#p48e687ffdb)" style="fill: none; stroke: #000000; stroke-linejoin: miter"/>
   </g>
  </g>
  <g id="axes_17"/>
  <g id="axes_18">
   <g id="patch_17">
    <path d="M 278.663834 37.95691 
L 279.338648 37.95691 
Q 280.050952 37.95691 280.838234 37.881931 
Q 281.625517 37.806952 282.581503 37.675738 
Q 283.53749 37.544524 284.062345 37.507034 
L 288.336166 35.82 
M 284.287283 30.42149 
L 284.287283 31.43371 
Q 284.287283 33.383172 283.612469 37.207117 
Q 282.937655 41.031062 282.937655 43.018014 
Q 282.937655 43.805297 282.937655 44.105214 
Q 282.937655 44.405131 283.031379 45.042455 
Q 283.125103 45.679779 283.312552 45.960952 
Q 283.5 46.242124 283.893641 46.485807 
Q 284.287283 46.72949 284.849628 46.72949 
Q 284.962097 46.692 285.280759 46.72949 
Q 285.599421 46.766979 285.786869 46.710745 
Q 285.974317 46.65451 285.974317 46.392083 
" clip-path="url(#pf4b54e5c59)" style="fill: none; stroke: #000000; stroke-linejoin: miter"/>
   </g>
  </g>
  <g id="axes_19">
   <g id="patch_18">
    <path d="M 296.157228 36.157407 
L 303.242772 36.157407 
M 299.643766 39.306538 
L 299.643766 47.516772 
" clip-path="url(#p4d6dedddad)" style="fill: none; stroke: #000000; stroke-linejoin: miter"/>
   </g>
  </g>
  <g id="axes_20">
   <g id="patch_19">
    <path d="M 311.438731 37.282097 
L 311.438731 37.844441 
Q 311.701159 39.868883 311.738648 41.312234 
Q 311.776138 42.755586 311.682414 44.667559 
Q 311.58869 46.579531 311.58869 48.191586 
L 311.663669 39.643945 
Q 311.663669 38.144359 313.256979 37.507034 
Q 314.85029 36.86971 316.274897 37.282097 
Q 318.186869 37.844441 319.105366 39.04411 
Q 320.023862 40.243779 320.080097 41.668386 
Q 320.136331 43.092993 320.173821 44.817517 
Q 320.21131 46.542041 320.361269 48.191586 
" clip-path="url(#pd2bef21811)" style="fill: none; stroke: #000000; stroke-linejoin: miter"/>
   </g>
  </g>
  <g id="axes_21">
   <g id="patch_20">
    <path d="M 336.887191 39.096404 
Q 336.63236 39.023596 335.66764 38.623146 
Q 334.702921 38.222697 334.04764 38.077079 
Q 333.39236 37.931461 332.737079 38.00427 
Q 330.115955 38.00427 328.477753 40.388764 
Q 326.839551 42.773258 326.839551 45.430787 
Q 326.839551 47.068989 332.081798 47.068989 
Q 333.647191 47.068989 334.975955 45.558202 
Q 336.304719 44.047416 336.978202 42.172584 
Q 337.651685 40.297753 337.651685 38.768764 
Q 337.651685 37.27618 337.615281 36.984944 
L 337.542472 38.077079 
Q 337.542472 38.550337 337.542472 38.987191 
Q 337.578876 40.188539 337.779101 42.281798 
Q 337.979326 44.375056 338.143146 46.049663 
Q 338.306966 47.72427 338.343371 49.872135 
Q 338.379775 52.02 338.215955 53.658202 
Q 338.052135 55.296404 337.487865 56.971011 
Q 336.923596 58.645618 335.995281 59.737753 
Q 335.066966 60.829888 333.465169 61.521573 
Q 331.863371 62.213258 329.715506 62.213258 
Q 328.077303 62.213258 326.985169 61.466966 
Q 325.893034 60.720674 325.893034 59.155281 
Q 325.820225 58.936854 325.856629 58.936854 
Q 325.893034 58.936854 326.002247 58.936854 
Q 326.111461 58.936854 326.111461 58.82764 
" clip-path="url(#p0c1a0bcf3d)" style="fill: none; stroke: #000000; stroke-linejoin: miter"/>
   </g>
  </g>
  <g id="axes_22">
   <g id="patch_21">
    <path d="M 343.4076 35.032717 
Q 343.4076 35.032717 346.781669 35.032717 
Q 346.894138 35.032717 348.637407 34.826524 
Q 350.380676 34.620331 351.392897 34.789034 
Q 352.405117 34.957738 352.405117 35.707531 
Q 352.405117 36.86971 351.392897 38.144359 
Q 350.380676 39.419007 348.918579 40.506207 
Q 347.456483 41.593407 345.994386 42.605628 
Q 344.53229 43.617848 343.520069 44.573834 
Q 342.507848 45.529821 342.507848 46.279614 
L 343.632538 46.279614 
Q 343.670028 46.279614 345.881917 46.054676 
L 354.092152 45.942207 
" clip-path="url(#p3754475c2f)" style="fill: none; stroke: #000000; stroke-linejoin: miter"/>
   </g>
  </g>
  <g id="axes_23">
   <g id="patch_22">
    <path d="M 361.013462 35.932469 
Q 361.613297 35.257655 362.606772 34.826524 
Q 363.600248 34.395393 364.5 34.470372 
Q 365.137324 34.470372 365.62469 34.639076 
Q 366.112055 34.807779 366.430717 34.995228 
Q 366.749379 35.182676 366.974317 35.670041 
Q 367.199255 36.157407 367.311724 36.419834 
Q 367.424193 36.682262 367.480428 37.375821 
Q 367.536662 38.069379 367.555407 38.331807 
Q 367.574152 38.594234 367.555407 39.419007 
Q 367.536662 40.243779 367.536662 40.431228 
Q 367.536662 41.368469 367.367959 43.242952 
Q 367.199255 45.117434 367.199255 46.054676 
Q 367.199255 46.467062 367.25549 46.823214 
Q 367.311724 47.179366 367.405448 47.610497 
Q 367.499172 48.041628 367.536662 48.304055 
L 367.986538 48.528993 
M 361.463338 23.111007 
Q 361.688276 24.798041 361.688276 29.971614 
L 361.688276 42.3432 
L 361.350869 46.841959 
L 361.125931 47.74171 
" clip-path="url(#p9f8649b40f)" style="fill: none; stroke: #000000; stroke-linejoin: miter"/>
   </g>
  </g>
  <g id="axes_24">
   <g id="patch_23">
    <path d="M 374.457798 38.160826 
Q 377.430275 39.535596 382.149083 39.721376 
Q 383.672477 39.721376 384.359862 38.550963 
Q 385.047248 37.38055 385.047248 35.82 
Q 385.047248 35.299817 384.954358 34.909679 
Q 384.861468 34.519541 384.619954 34.296606 
Q 384.37844 34.07367 384.211239 33.943624 
Q 384.044037 33.813578 383.598165 33.757844 
Q 383.152294 33.70211 382.947936 33.683532 
Q 382.743578 33.664954 382.167661 33.683532 
Q 381.591743 33.70211 381.368807 33.70211 
Q 379.325229 33.70211 377.838991 35.578486 
Q 376.352752 37.454862 376.352752 39.609908 
Q 376.352752 42.619541 378.284862 44.570229 
Q 380.216972 46.520917 383.263761 46.520917 
Q 385.418807 46.818165 386.942202 44.29156 
" clip-path="url(#pbce3523723)" style="fill: none; stroke: #000000; stroke-linejoin: miter"/>
   </g>
  </g>
  <g id="axes_25">
   <g id="patch_24">
    <path d="M 396.187697 39.981352 
Q 397.199917 40.956083 397.537324 42.905545 
Q 397.724772 43.955255 397.312386 46.167145 
L 396.075228 47.629241 
" clip-path="url(#pc51873b31b)" style="fill: none; stroke: #000000; stroke-linejoin: miter"/>
   </g>
  </g>
 </g>
 <defs>
  <clipPath id="p6bf66ace8c">
   <rect x="2.307848" y="8.64" width="11.584303" height="54.36"/>
  </clipPath>
  <clipPath id="pd46b0c058d">
   <rect x="18.301655" y="8.64" width="11.99669" height="54.36"/>
  </clipPath>
  <clipPath id="pc1d80401d8">
   <rect x="34.707848" y="8.64" width="11.584303" height="54.36"/>
  </clipPath>
  <clipPath id="pd80d63ed3a">
   <rect x="51.282745" y="8.64" width="10.83451" height="54.36"/>
  </clipPath>
  <clipPath id="p8f76f81e16">
   <rect x="66.564248" y="8.64" width="12.671503" height="54.36"/>
  </clipPath>
  <clipPath id="p58297e9dde">
   <rect x="81" y="9.426742" width="16.2" height="52.786517"/>
  </clipPath>
  <clipPath id="p8a664c7c3c">
   <rect x="99.938979" y="8.64" width="10.722041" height="54.36"/>
  </clipPath>
  <clipPath id="p2a02c4c21d">
   <rect x="114.789352" y="8.64" width="13.421297" height="54.36"/>
  </clipPath>
  <clipPath id="pe20970516f">
   <rect x="133.538648" y="8.64" width="8.322703" height="54.36"/>
  </clipPath>
  <clipPath id="p842d4f9e79">
   <rect x="147.582993" y="8.64" width="12.634014" height="54.36"/>
  </clipPath>
  <clipPath id="p6474991a47">
   <rect x="164.738979" y="8.64" width="10.722041" height="54.36"/>
  </clipPath>
  <clipPath id="p63e39e83fc">
   <rect x="180.264166" y="8.64" width="12.071669" height="54.36"/>
  </clipPath>
  <clipPath id="p2b1b6708eb">
   <rect x="196.164248" y="8.64" width="12.671503" height="54.36"/>
  </clipPath>
  <clipPath id="ped1f1da639">
   <rect x="227.851945" y="8.64" width="14.09611" height="54.36"/>
  </clipPath>
  <clipPath id="p48e687ffdb">
   <rect x="243" y="8.881927" width="16.2" height="53.876147"/>
  </clipPath>
  <clipPath id="pf4b54e5c59">
   <rect x="276.789352" y="8.64" width="13.421297" height="54.36"/>
  </clipPath>
  <clipPath id="p4d6dedddad">
   <rect x="294.282745" y="8.64" width="10.83451" height="54.36"/>
  </clipPath>
  <clipPath id="pd2bef21811">
   <rect x="309.564248" y="8.64" width="12.671503" height="54.36"/>
  </clipPath>
  <clipPath id="p0c1a0bcf3d">
   <rect x="324" y="9.426742" width="16.2" height="52.786517"/>
  </clipPath>
  <clipPath id="p3754475c2f">
   <rect x="340.633366" y="8.64" width="15.333269" height="54.36"/>
  </clipPath>
  <clipPath id="p9f8649b40f">
   <rect x="359.138979" y="8.64" width="10.722041" height="54.36"/>
  </clipPath>
  <clipPath id="pbce3523723">
   <rect x="372.6" y="8.881927" width="16.2" height="53.876147"/>
  </clipPath>
  <clipPath id="pc51873b31b">
   <rect x="394.200745" y="8.64" width="5.39851" height="54.36"/>
  </clipPath>
 </defs>
</svg>
