<?xml version="1.0" encoding="utf-8" standalone="no"?>
<!DOCTYPE svg PUBLIC "-//W3C//DTD SVG 1.1//EN"
  "http://www.w3.org/Graphics/SVG/1.1/DTD/svg11.dtd">
<svg xmlns:xlink="http://www.w3.org/1999/xlink" width="324pt" height="162pt" viewBox="0 0 324 162" xmlns="http://www.w3.org/2000/svg" version="1.1">
 <metadata>
  <rdf:RDF xmlns:dc="http://purl.org/dc/elements/1.1/" xmlns:cc="http://creativecommons.org/ns#" xmlns:rdf="http://www.w3.org/1999/02/22-rdf-syntax-ns#">
   <cc:Work>
    <dc:type rdf:resource="http://purl.org/dc/dcmitype/StillImage"/>
    <dc:date>2023-02-15T23:07:18.237120</dc:date>
    <dc:format>image/svg+xml</dc:format>
    <dc:creator>
     <cc:Agent>
      <dc:title>Matplotlib v3.6.1, https://matplotlib.org/</dc:title>
     </cc:Agent>
    </dc:creator>
   </cc:Work>
  </rdf:RDF>
 </metadata>
 <defs>
  <style type="text/css">*{stroke-linejoin: round; stroke-linecap: butt}</style>
 </defs>
 <g id="figure_1">
  <g id="patch_1">
   <path d="M 0 162 
L 324 162 
L 324 0 
L 0 0 
z
" style="fill: #8fff9f"/>
  </g>
  <g id="axes_1">
   <g id="patch_2">
    <path d="M 11.7126 87.642 
L 11.7126 88.0794 
Q 11.7126 89.1 10.692 90.5094 
Q 9.6714 91.9188 8.1891 93.474 
Q 6.7068 95.0292 6.318 95.5152 
L 2.9646 97.9938 
M 8.0676 83.8512 
Q 7.533 85.3092 7.1442 85.9167 
Q 6.7554 86.5242 5.7834 87.399 
Q 4.8114 88.2738 4.131 89.0514 
L 2.8188 89.9262 
M 23.2308 89.6346 
Q 27.0702 86.7672 29.4516 83.8998 
M 17.6904 86.8644 
L 17.982 86.8644 
Q 18.5166 86.8644 19.44 87.3504 
Q 20.3634 87.8364 21.4569 88.5168 
Q 22.5504 89.1972 22.7934 89.343 
L 34.02 97.2648 
M 17.3988 83.511 
L 17.3988 84.0942 
Q 17.3988 86.1354 17.6904 89.7804 
Q 17.982 93.4254 17.982 95.5152 
Q 18.1278 95.8554 17.9577 97.0461 
Q 17.7876 98.2368 18.2736 98.4312 
M 12.4416 84.969 
Q 17.7876 83.3166 22.356 82.6362 
L 24.1056 82.6362 
M 18.4194 71.7012 
Q 20.9466 72.6246 25.7094 75.492 
Q 30.4722 78.3594 32.562 79.2828 
M 19.5372 68.0562 
L 28.5768 67.473 
L 28.5768 67.7646 
Q 28.0908 69.9516 27.2646 71.6769 
Q 26.4384 73.4022 25.8795 74.1798 
Q 25.3206 74.9574 23.6196 77.0958 
L 19.8288 80.1576 
L 18.225 80.8866 
M 8.1162 74.2284 
L 8.6022 74.2284 
Q 9.0882 74.2284 9.4284 74.1069 
Q 9.7686 73.9854 10.1088 73.9368 
L 13.4622 73.6452 
M 7.6788 70.4376 
L 11.7126 69.8544 
Q 11.907 69.903 12.1743 69.7086 
Q 12.4416 69.5142 12.5874 69.5628 
M 2.43 79.3314 
L 3.159 79.3314 
L 4.7628 79.0884 
L 6.3666 78.894 
L 17.982 77.1444 
L 18.711 76.9986 
M 14.1912 66.501 
L 14.0454 81.9072 
M 7.9704 67.0842 
L 7.9704 78.3108 
M 4.3254 67.0842 
L 12.0042 66.3552 
L 16.0866 66.0636 
L 18.1278 65.9178 
" clip-path="url(#pcc120896ce)" style="fill: none; stroke: #000000; stroke-linejoin: miter"/>
   </g>
  </g>
  <g id="axes_2">
   <g id="patch_3">
    <path d="M 56.916335 91.688478 
Q 56.916335 91.688478 57.595528 91.688478 
L 60.991491 91.688478 
L 64.387453 91.280963 
M 56.916335 88.156677 
L 64.115776 87.251087 
M 57.323851 84.081522 
L 57.595528 84.081522 
Q 62.123478 82.677857 65.066646 82.723137 
Q 65.383602 82.723137 65.836398 82.723137 
Q 66.51559 82.677857 66.606149 82.858975 
Q 66.696708 83.040093 66.696708 84.21736 
Q 66.696708 84.851273 66.696708 85.304068 
L 66.696708 92.503509 
Q 66.696708 93.137422 66.900466 94.405248 
Q 67.104224 95.673075 67.104224 96.306988 
L 67.058944 96.759783 
L 67.013665 96.759783 
Q 66.832547 96.669224 66.696708 96.850342 
L 64.65913 95.22028 
M 57.595528 84.21736 
L 57.595528 86.254938 
Q 57.595528 87.522764 57.459689 88.81323 
Q 57.323851 90.103696 57.097453 91.665839 
Q 56.871056 93.227981 56.780497 94.133571 
L 56.237143 95.491957 
M 60.719814 66.96587 
L 60.719814 68.595932 
Q 60.719814 69.456242 60.719814 69.954317 
L 60.719814 69.999596 
Q 60.765093 69.275124 60.991491 71.44854 
L 61.127329 80.54972 
M 53.882609 81.274193 
L 54.425963 81.274193 
Q 57.323851 81.274193 63.210186 80.368602 
Q 69.096522 79.463012 70.636025 79.327174 
M 56.916335 76.202888 
L 65.338323 75.795373 
M 56.780497 72.263571 
L 63.979938 72.39941 
M 50.667764 71.901335 
L 48.086832 75.568975 
M 38.713975 71.222143 
Q 38.940373 71.131584 39.14413 71.403261 
Q 39.347888 71.674938 39.529006 71.629658 
L 41.974099 73.667236 
M 45.913416 84.534317 
Q 47.045404 84.851273 47.000124 84.941832 
L 50.803602 87.115248 
M 45.913416 80.459161 
Q 45.370062 81.047795 45.075745 82.677857 
Q 44.781429 84.307919 44.555031 84.805994 
Q 44.102236 85.802143 43.490963 86.662453 
Q 42.879689 87.522764 42.042019 88.496273 
Q 41.204348 89.469783 40.751553 90.103696 
L 39.529006 90.918727 
M 39.664845 80.730839 
L 39.936522 80.730839 
Q 41.068509 80.730839 42.472174 80.54972 
Q 43.875839 80.368602 45.57382 80.051646 
Q 47.271801 79.734689 48.086832 79.64413 
L 52.161988 79.508292 
M 45.505901 67.282826 
L 45.505901 69.863758 
Q 45.505901 71.403261 45.59646 73.101242 
Q 45.687019 74.799224 45.845497 76.859441 
Q 46.003975 78.919658 46.049255 80.051646 
L 45.913416 97.303137 
" clip-path="url(#pcf0535bb81)" style="fill: none; stroke: #000000; stroke-linejoin: miter"/>
   </g>
  </g>
  <g id="axes_3">
   <g id="patch_4">
    <path d="M 98.513514 92.786047 
Q 98.698226 93.155473 99.098438 93.986681 
Q 99.498649 94.817889 99.744932 95.310456 
Q 99.991216 95.803024 100.2375 96.541875 
Q 100.483784 97.280726 100.545355 97.958007 
L 101.838345 101.098125 
M 88.53902 85.766959 
L 88.53902 86.136385 
Q 87.553885 88.106655 85.183404 91.462272 
Q 82.812922 94.817889 82.443497 95.372027 
Q 80.473226 98.450574 80.226943 98.696858 
L 94.449831 97.034443 
L 100.175929 96.295591 
M 78.933953 87.244662 
Q 83.059206 85.951672 91.648353 85.674603 
Q 100.2375 85.397534 101.838345 85.212821 
L 103.316047 84.658682 
M 85.953041 80.410287 
Q 86.137753 80.348716 86.722677 80.25636 
Q 87.307601 80.164003 87.615456 80.040861 
L 93.895693 79.30201 
M 88.908446 65.879544 
Q 97.343666 76.03875 104.79375 78.932584 
L 106.271453 80.040861 
M 89.708868 62.862568 
Q 89.216301 63.909274 87.769383 67.141748 
Q 86.322466 70.374223 85.152618 72.43685 
Q 83.98277 74.499476 82.443497 76.346605 
L 78.195101 80.410287 
L 75.978547 81.333851 
" clip-path="url(#p996023e23a)" style="fill: none; stroke: #000000; stroke-linejoin: miter"/>
   </g>
  </g>
  <g id="axes_4">
   <g id="patch_5">
    <path d="M 135.76789 65.881239 
L 135.76789 98.079535 
M 131.61173 79.161841 
Q 133.904784 78.540806 137.48768 78.588578 
L 139.207471 78.588578 
L 140.067366 78.87521 
M 129.89194 85.037792 
L 141.500524 85.037792 
M 128.697641 72.7604 
L 143.411402 71.948277 
L 143.411402 73.381435 
L 143.411402 75.674489 
L 142.217104 84.894476 
M 128.649869 73.047031 
L 129.605308 84.464528 
M 122.678375 80.786088 
L 126.165727 84.177896 
M 120.003145 81.407123 
L 119.85983 95.738709 
M 121.57962 67.839889 
L 125.210288 70.276258 
M 111.738598 74.527962 
L 112.311861 74.527962 
Q 114.127195 74.623506 117.136828 73.954699 
Q 120.146461 73.285891 121.292988 73.190347 
L 124.875885 73.190347 
Q 124.398165 74.814594 123.705472 76.176094 
Q 123.012779 77.537595 122.367857 78.469148 
Q 121.722936 79.400701 120.504751 80.595 
Q 119.286566 81.789299 118.426671 82.505878 
Q 117.566776 83.222457 115.679784 84.775046 
Q 113.792792 86.327634 112.550721 87.378617 
" clip-path="url(#p1e222d1802)" style="fill: none; stroke: #000000; stroke-linejoin: miter"/>
   </g>
  </g>
  <g id="axes_5">
   <g id="patch_6">
    <path d="M 167.942523 69.395993 
Q 167.899942 69.651484 167.942523 69.906974 
Q 167.942523 69.949556 168.325759 73.100607 
L 168.070269 87.024848 
M 158.872605 81.446636 
Q 158.872605 81.446636 159.511332 81.446636 
Q 161.38493 81.446636 163.705637 80.637582 
Q 166.026343 79.828528 167.836069 78.870438 
Q 169.645794 77.912348 171.860047 77.103294 
Q 174.074299 76.294241 175.820152 76.294241 
Q 174.542699 82.468598 174.542699 84.342196 
Q 174.670444 85.193832 174.116881 85.193832 
Q 173.733645 85.15125 172.626519 84.512523 
Q 171.647138 84.001542 171.349065 83.95896 
M 162.57722 76.03875 
L 162.83271 84.725432 
L 163.684346 88.770701 
Q 163.812091 88.941028 164.067582 89.409428 
Q 164.323072 89.877827 164.599854 90.218481 
Q 164.876636 90.559136 165.21729 90.729463 
Q 166.111507 91.325607 167.261215 91.602389 
Q 168.410923 91.879171 169.943867 92.006916 
Q 171.476811 92.134661 172.285864 92.304988 
Q 173.520736 92.560479 174.925935 92.475315 
Q 176.331133 92.390152 177.480841 92.092079 
Q 178.630549 91.794007 179.37573 90.835917 
Q 180.120911 89.877827 180.078329 88.344883 
M 147.929089 89.111355 
L 148.44007 89.111355 
Q 149.845269 89.111355 151.335631 88.706828 
Q 152.825993 88.302301 154.571846 87.620993 
Q 156.317699 86.939685 157.254498 86.684194 
L 159.298423 85.917722 
M 149.036215 81.191145 
Q 149.930432 81.020818 152.655666 79.977564 
Q 155.3809 78.934311 156.956425 78.891729 
M 153.890537 72.887699 
L 153.890537 87.450666 
" clip-path="url(#p21b551ccdc)" style="fill: none; stroke: #000000; stroke-linejoin: miter"/>
   </g>
  </g>
  <g id="axes_6">
   <g id="patch_7">
    <path d="M 207.34749 77.545772 
L 207.769691 94.199247 
L 207.816602 97.295386 
M 199.607143 78.390174 
Q 202.468726 77.686506 208.098069 77.522317 
Q 213.727413 77.358127 216.35444 76.842104 
M 199.325676 68.538822 
Q 201.202124 67.835154 205.400676 67.342587 
Q 209.599228 66.850019 211.147297 66.427819 
M 199.184942 67.835154 
L 199.184942 68.398089 
Q 199.184942 69.523958 199.396042 71.822606 
Q 199.607143 74.121255 199.607143 75.294035 
Q 199.607143 81.064112 198.270174 84.582452 
Q 196.933205 88.100792 193.696332 91.243842 
L 192.992664 91.525309 
M 185.017761 80.595 
Q 185.252317 80.454266 185.909073 80.454266 
Q 186.56583 80.454266 186.706564 80.172799 
L 195.009846 79.750598 
M 185.017761 71.025116 
Q 186.706564 70.556004 190.060714 70.509093 
Q 193.414865 70.462181 194.869112 70.180714 
Q 195.385135 69.993069 195.760425 70.039981 
Q 196.135714 70.086892 196.135714 70.743649 
L 196.135714 71.58805 
L 193.883977 79.609865 
L 193.743243 80.172799 
M 184.59556 70.743649 
Q 184.923938 70.884382 184.877027 71.658417 
Q 184.830116 72.432452 185.158494 72.713919 
L 185.299228 80.454266 
" clip-path="url(#p43ead52e0c)" style="fill: none; stroke: #000000; stroke-linejoin: miter"/>
   </g>
  </g>
  <g id="axes_7">
   <g id="patch_8">
    <path d="M 231.16114 90.629251 
Q 232.794622 90.349225 236.761652 90.162542 
Q 240.728681 89.975858 242.922215 89.555819 
L 244.322343 89.275794 
M 231.814533 85.495448 
L 232.654609 85.495448 
L 243.575608 85.215423 
M 230.554417 94.316255 
Q 230.554417 94.316255 231.254481 94.316255 
L 240.495327 94.316255 
L 242.735531 94.642951 
M 230.69443 80.828355 
Q 230.69443 80.828355 231.534507 80.828355 
Q 233.914725 80.828355 238.745166 80.198297 
Q 243.575608 79.568239 245.955826 79.568239 
Q 246.235851 79.568239 246.235851 79.988278 
Q 245.722471 84.328675 245.652465 86.428867 
Q 245.582458 88.529059 245.6758 92.916127 
Q 245.6758 93.149481 245.722471 93.756204 
Q 246.002497 96.929827 245.115749 96.976498 
Q 244.64904 97.023169 243.855634 96.323105 
L 243.015557 95.763054 
M 231.254481 81.668431 
Q 231.254481 81.715102 231.557843 82.34516 
Q 231.861204 82.975218 231.814533 83.348585 
L 231.67452 94.316255 
L 231.534507 95.57637 
M 234.754802 71.58751 
Q 234.708131 72.007548 234.754802 72.427586 
Q 234.754802 75.274513 233.308003 78.098105 
Q 231.861204 80.921697 230.041037 82.835205 
Q 228.220871 84.748713 225.840653 87.292279 
Q 223.460435 89.835845 222.293662 91.609341 
L 221.033547 92.309405 
M 223.367093 77.981428 
L 242.68886 76.5813 
L 252.816453 76.11459 
M 228.594238 74.807804 
L 229.434315 74.807804 
Q 231.067798 74.807804 233.004641 74.62112 
Q 234.941485 74.434437 237.298367 74.131076 
Q 239.65525 73.827714 240.915365 73.687702 
L 243.015557 73.267663 
M 226.354033 72.707612 
L 226.914085 72.707612 
Q 228.407554 72.707612 230.531082 72.334245 
Q 232.654609 71.960877 235.268182 71.37749 
Q 237.881754 70.794104 238.955186 70.60742 
L 245.395775 70.187382 
M 239.515237 67.153771 
Q 239.235211 67.387125 238.768502 67.87717 
Q 238.301793 68.367215 238.255122 68.413886 
L 236.621639 69.814014 
M 229.20096 67.340455 
L 232.374584 70.187382 
" clip-path="url(#p11430921ca)" style="fill: none; stroke: #000000; stroke-linejoin: miter"/>
   </g>
  </g>
  <g id="axes_8">
   <g id="patch_9">
    <path d="M 270.085283 83.125552 
Q 270.169634 83.294255 270.760097 83.842541 
Q 271.350559 84.390828 271.603614 84.643883 
Q 271.856669 84.896938 272.404955 85.529576 
Q 272.953241 86.162214 273.290648 86.541797 
Q 273.628055 86.921379 274.134166 87.596193 
Q 274.640276 88.271007 274.935507 88.734941 
Q 275.230738 89.198876 275.568145 89.87369 
Q 275.905552 90.548503 276.116431 91.09679 
Q 276.32731 91.645076 276.496014 92.277714 
Q 276.664717 92.910352 276.664717 93.500814 
Q 276.664717 94.76609 276.32731 95.862662 
Q 275.989903 96.959234 275.357266 98.182334 
Q 274.724628 99.405434 274.387221 100.333303 
L 271.856669 102.863855 
" clip-path="url(#p733ae406f5)" style="fill: none; stroke: #000000; stroke-linejoin: miter"/>
   </g>
  </g>
 </g>
 <defs>
  <clipPath id="pcc120896ce">
   <rect x="0" y="45.36" width="36.45" height="70.47"/>
  </clipPath>
  <clipPath id="pcf0535bb81">
   <rect x="36.45" y="47.76736" width="36.45" height="65.65528"/>
  </clipPath>
  <clipPath id="p996023e23a">
   <rect x="72.9" y="35.956064" width="36.45" height="89.277872"/>
  </clipPath>
  <clipPath id="p1e222d1802">
   <rect x="109.35" y="45.960334" width="36.45" height="69.269332"/>
  </clipPath>
  <clipPath id="p21b551ccdc">
   <rect x="145.8" y="49.723213" width="36.45" height="61.743575"/>
  </clipPath>
  <clipPath id="p43ead52e0c">
   <rect x="182.25" y="46.584382" width="36.45" height="68.021236"/>
  </clipPath>
  <clipPath id="p11430921ca">
   <rect x="218.7" y="46.758572" width="36.45" height="67.672855"/>
  </clipPath>
  <clipPath id="p733ae406f5">
   <rect x="265.867697" y="19.44" width="15.014607" height="122.31"/>
  </clipPath>
 </defs>
</svg>
