<?xml version="1.0" encoding="utf-8" standalone="no"?>
<!DOCTYPE svg PUBLIC "-//W3C//DTD SVG 1.1//EN"
  "http://www.w3.org/Graphics/SVG/1.1/DTD/svg11.dtd">
<svg xmlns:xlink="http://www.w3.org/1999/xlink" width="405pt" height="162pt" viewBox="0 0 405 162" xmlns="http://www.w3.org/2000/svg" version="1.1">
 <metadata>
  <rdf:RDF xmlns:dc="http://purl.org/dc/elements/1.1/" xmlns:cc="http://creativecommons.org/ns#" xmlns:rdf="http://www.w3.org/1999/02/22-rdf-syntax-ns#">
   <cc:Work>
    <dc:type rdf:resource="http://purl.org/dc/dcmitype/StillImage"/>
    <dc:date>2023-02-15T23:07:45.753477</dc:date>
    <dc:format>image/svg+xml</dc:format>
    <dc:creator>
     <cc:Agent>
      <dc:title>Matplotlib v3.6.1, https://matplotlib.org/</dc:title>
     </cc:Agent>
    </dc:creator>
   </cc:Work>
  </rdf:RDF>
 </metadata>
 <defs>
  <style type="text/css">*{stroke-linejoin: round; stroke-linecap: butt}</style>
 </defs>
 <g id="figure_1">
  <g id="patch_1">
   <path d="M 0 162 
L 405 162 
L 405 0 
L 0 0 
z
" style="fill: #8fff9f"/>
  </g>
  <g id="axes_1">
   <g id="patch_2">
    <path d="M 21.501404 81.823652 
Q 21.337584 83.502809 20.600393 85.366264 
Q 19.863202 87.229719 19.228399 88.376461 
Q 18.593596 89.523202 17.323989 91.53 
L 13.638034 95.543596 
M 19.412697 81.209326 
Q 19.658427 81.455056 20.600393 81.352669 
Q 21.54236 81.250281 21.87 81.332191 
Q 22.934831 81.332191 25.166882 81.147893 
Q 27.398933 80.963596 28.258989 80.963596 
Q 28.586629 80.963596 29.139522 80.779298 
Q 29.692416 80.595 29.856236 80.595 
Q 29.979101 80.595 29.979101 81.700787 
Q 29.979101 84.117135 29.180478 86.513006 
Q 28.381854 88.908876 27.17368 91.468567 
Q 25.965506 94.028258 25.555955 95.297865 
L 22.730056 93.086292 
M 21.009944 68.922809 
Q 22.771011 71.175337 23.958708 72.588287 
Q 25.146404 74.001236 27.112247 75.782781 
Q 29.07809 77.564326 31.207753 78.874888 
L 34.402247 80.472135 
M 18.06118 75.557528 
L 18.06118 76.171854 
Q 18.06118 76.70427 17.835927 77.359551 
Q 17.610674 78.014831 17.221601 78.813455 
Q 16.832528 79.612079 16.709663 79.980674 
L 15.358146 82.069382 
M 2.170618 93.127247 
Q 4.054551 92.840562 7.412865 91.796208 
Q 10.77118 90.751854 11.508371 90.547079 
L 13.351348 89.564157 
M 13.105618 73.46882 
Q 13.105618 74.124101 12.491292 75.066067 
Q 11.549326 76.540449 8.86677 79.263961 
Q 6.184213 81.987472 4.115983 84.24 
Q 2.047753 86.492528 2.047753 87.475449 
L 4.627921 87.106854 
L 12.450337 84.895281 
M 7.986236 69.33236 
L 6.307079 72.772584 
Q 6.102303 73.14118 4.259326 75.45514 
Q 2.416348 77.769101 2.416348 78.629157 
Q 3.72691 78.547247 6.102303 78.096742 
Q 8.477697 77.646236 9.542528 77.523371 
Q 9.583483 77.359551 10.259242 77.380028 
Q 10.935 77.400506 11.01691 77.400506 
" clip-path="url(#pdb866a0d2c)" style="fill: none; stroke: #000000; stroke-linejoin: miter"/>
   </g>
  </g>
  <g id="axes_2">
   <g id="patch_3">
    <path d="M 57.951404 81.823652 
Q 57.787584 83.502809 57.050393 85.366264 
Q 56.313202 87.229719 55.678399 88.376461 
Q 55.043596 89.523202 53.773989 91.53 
L 50.088034 95.543596 
M 55.862697 81.209326 
Q 56.108427 81.455056 57.050393 81.352669 
Q 57.99236 81.250281 58.32 81.332191 
Q 59.384831 81.332191 61.616882 81.147893 
Q 63.848933 80.963596 64.708989 80.963596 
Q 65.036629 80.963596 65.589522 80.779298 
Q 66.142416 80.595 66.306236 80.595 
Q 66.429101 80.595 66.429101 81.700787 
Q 66.429101 84.117135 65.630478 86.513006 
Q 64.831854 88.908876 63.62368 91.468567 
Q 62.415506 94.028258 62.005955 95.297865 
L 59.180056 93.086292 
M 57.459944 68.922809 
Q 59.221011 71.175337 60.408708 72.588287 
Q 61.596404 74.001236 63.562247 75.782781 
Q 65.52809 77.564326 67.657753 78.874888 
L 70.852247 80.472135 
M 54.51118 75.557528 
L 54.51118 76.171854 
Q 54.51118 76.70427 54.285927 77.359551 
Q 54.060674 78.014831 53.671601 78.813455 
Q 53.282528 79.612079 53.159663 79.980674 
L 51.808146 82.069382 
M 38.620618 93.127247 
Q 40.504551 92.840562 43.862865 91.796208 
Q 47.22118 90.751854 47.958371 90.547079 
L 49.801348 89.564157 
M 49.555618 73.46882 
Q 49.555618 74.124101 48.941292 75.066067 
Q 47.999326 76.540449 45.31677 79.263961 
Q 42.634213 81.987472 40.565983 84.24 
Q 38.497753 86.492528 38.497753 87.475449 
L 41.077921 87.106854 
L 48.900337 84.895281 
M 44.436236 69.33236 
L 42.757079 72.772584 
Q 42.552303 73.14118 40.709326 75.45514 
Q 38.866348 77.769101 38.866348 78.629157 
Q 40.17691 78.547247 42.552303 78.096742 
Q 44.927697 77.646236 45.992528 77.523371 
Q 46.033483 77.359551 46.709242 77.380028 
Q 47.385 77.400506 47.46691 77.400506 
" clip-path="url(#p1d64485363)" style="fill: none; stroke: #000000; stroke-linejoin: miter"/>
   </g>
  </g>
  <g id="axes_3">
   <g id="patch_4">
    <path d="M 90.880816 96.045183 
Q 92.168331 95.734403 93.722229 95.579013 
Q 95.276127 95.423624 96.696833 95.423624 
Q 98.11754 95.423624 99.738033 95.401425 
Q 101.358526 95.379227 102.734836 95.379227 
M 89.815286 87.520944 
L 92.34592 87.520944 
Q 94.077406 87.520944 97.451583 87.321157 
Q 100.825761 87.12137 102.468453 87.12137 
Q 102.779233 87.12137 102.82363 87.210164 
Q 102.868027 87.298959 102.868027 87.609738 
Q 102.868027 87.698532 102.868027 87.787326 
Q 102.868027 88.49768 102.712637 89.296827 
Q 102.557247 90.095974 102.290865 91.094909 
Q 102.024482 92.093843 101.935688 92.582211 
L 101.802497 95.911991 
M 90.081669 87.920518 
L 90.081669 89.652004 
L 90.614434 95.911991 
M 92.079537 82.948045 
L 92.878685 82.948045 
Q 93.677832 82.903648 94.943149 82.903648 
Q 96.208465 82.903648 97.140804 82.859251 
Q 98.073143 82.814854 99.138672 82.592868 
M 95.009744 71.893173 
Q 99.227467 78.46394 105.531851 82.148898 
L 107.130146 82.41528 
M 95.808892 69.096157 
Q 94.743362 72.115158 92.989677 75.489336 
Q 91.235993 78.863514 89.415713 80.816985 
L 86.885079 83.48081 
L 86.352314 83.747192 
M 75.608222 90.584342 
L 84.665225 87.43215 
M 84.44324 71.094026 
Q 80.447503 77.753587 79.603959 79.041102 
Q 79.337576 79.440676 78.405238 80.661596 
Q 77.472899 81.882515 76.718149 83.014641 
Q 75.963398 84.146766 75.608222 84.990311 
Q 77.561693 84.457546 77.60609 84.457546 
L 84.13246 82.41528 
M 81.069062 67.23148 
Q 80.580694 68.785378 79.159988 70.783246 
Q 77.739281 72.781114 77.384105 73.580262 
L 75.119854 76.821248 
L 82.045798 75.88891 
" clip-path="url(#p6a814d8847)" style="fill: none; stroke: #000000; stroke-linejoin: miter"/>
   </g>
  </g>
  <g id="axes_4">
   <g id="patch_5">
    <path d="M 125.655115 76.365687 
Q 126.37855 83.822634 126.155954 99.348664 
Q 126.100305 101.352023 124.709084 100.51729 
Q 123.317863 99.626908 122.650076 97.846145 
L 121.98229 97.512252 
M 112.132443 77.20042 
Q 112.911527 77.144771 114.469695 76.783053 
Q 116.027863 76.421336 116.806947 76.365687 
L 135.171069 76.365687 
Q 136.06145 76.087443 138.120458 75.976145 
Q 140.179466 75.864847 141.014198 75.530954 
Q 143.017557 74.696221 141.125496 76.476985 
Q 140.680305 76.922176 139.734275 77.70126 
Q 139.289084 78.090802 139.177786 78.202099 
L 136.005802 80.205458 
M 121.704046 70.355611 
L 126.935038 74.807519 
L 127.602824 74.974466 
M 117.808626 64.735076 
L 136.339695 64.178588 
L 126.990687 70.133015 
Q 126.489847 70.522557 125.710763 70.939924 
Q 124.931679 71.35729 124.653435 71.579885 
" clip-path="url(#pc0d94deefb)" style="fill: none; stroke: #000000; stroke-linejoin: miter"/>
   </g>
  </g>
  <g id="axes_5">
   <g id="patch_6">
    <path d="M 164.228253 73.548903 
L 164.228253 74.158662 
Q 164.228253 74.836171 164.025 76.258941 
Q 163.821747 77.68171 163.821747 78.42697 
Q 163.686245 82.356524 164.973513 89.504247 
Q 166.260781 96.65197 166.464033 98.345743 
Q 166.870539 102.139796 166.870539 102.207546 
Q 166.870539 102.614052 166.768913 102.715678 
Q 166.667286 102.817305 166.260781 102.817305 
Q 165.583271 102.817305 164.39763 102.072045 
Q 163.211989 101.326784 161.85697 100.24277 
Q 160.501952 99.158755 160.163197 98.955502 
L 157.317658 97.532732 
M 149.187546 69.077342 
L 152.642844 69.077342 
Q 157.114405 69.077342 165.786524 67.45132 
Q 174.458643 65.825297 178.862454 65.825297 
Q 177.507435 67.044814 172.324489 70.36461 
Q 167.141543 73.684405 165.041264 75.987937 
" clip-path="url(#p14d7e5790b)" style="fill: none; stroke: #000000; stroke-linejoin: miter"/>
   </g>
  </g>
  <g id="axes_6">
   <g id="patch_7">
    <path d="M 194.49862 94.973815 
L 206.037175 94.973815 
M 193.670211 86.748896 
Q 193.670211 86.748896 196.865503 86.748896 
Q 196.924675 86.748896 207.693994 86.216347 
L 205.682143 94.086234 
M 192.605114 86.926412 
Q 192.78263 87.99151 193.256006 89.204537 
Q 193.729383 90.417565 193.788555 91.956039 
L 194.853653 94.441266 
M 185.208604 81.955958 
L 207.516477 81.778442 
Q 208.285714 81.660097 210.8597 81.186721 
Q 213.433685 80.713344 215.031331 80.713344 
Q 215.504708 80.713344 215.623052 81.038791 
Q 215.741396 81.364237 215.652638 82.133474 
Q 215.56388 82.902711 215.56388 83.021055 
Q 215.56388 85.506282 215.238433 90.00336 
Q 214.912987 94.500438 214.912987 96.985666 
L 214.912987 100.53599 
Q 214.912987 100.476818 212.782792 99.648409 
L 209.942532 98.228279 
M 185.563636 82.488506 
Q 186.747078 85.861315 186.451218 88.701575 
L 187.693831 98.287451 
M 194.321104 78.523977 
L 205.682143 78.346461 
M 192.960146 71.719188 
L 193.492695 71.541672 
Q 197.871429 71.955877 203.433604 71.896705 
Q 203.966153 71.896705 204.853734 71.719188 
Q 205.741315 71.541672 206.096347 71.541672 
Q 206.096347 73.790211 206.096347 74.204416 
L 205.32711 78.168945 
M 192.78263 72.429253 
Q 193.256006 72.606769 193.640625 73.642281 
Q 194.025244 74.677792 194.20276 74.914481 
L 194.49862 77.281364 
M 196.392127 63.139237 
Q 196.865503 63.080065 197.398052 63.435097 
Q 197.930601 63.79013 198.551907 64.441023 
Q 199.173214 65.091916 199.409903 65.269432 
M 185.504464 68.878929 
Q 186.155357 68.34638 189.113961 68.464724 
Q 192.072565 68.583068 192.78263 68.523896 
Q 193.847727 68.523896 195.119927 68.375966 
Q 196.392127 68.228036 197.930601 67.991347 
Q 199.469075 67.754659 200.238312 67.636315 
L 209.646672 67.281282 
L 210.711769 67.103766 
" clip-path="url(#pbea1dac5c4)" style="fill: none; stroke: #000000; stroke-linejoin: miter"/>
   </g>
  </g>
  <g id="axes_7">
   <g id="patch_8">
    <path d="M 235.35 90.21375 
L 240.69375 94.4325 
L 246.7125 97.63875 
L 252.3375 98.98875 
M 235.2375 87.28875 
L 240.1875 87.12 
Q 240.75 87.0075 241.93125 86.72625 
Q 243.1125 86.445 244.096875 86.248125 
Q 245.08125 86.05125 245.98125 86.05125 
Q 246.20625 86.05125 246.09375 86.445 
Q 245.5875 88.3575 244.490625 90.045 
Q 243.39375 91.7325 242.353125 92.745 
Q 241.3125 93.7575 239.765625 95.16375 
Q 238.21875 96.57 237.4875 97.41375 
L 231.80625 99.945 
M 231.01875 78.4575 
L 235.575 78.4575 
Q 237.0375 78.2325 237.0375 78.12 
Q 237.0375 78.12 237.31875 78.12 
Q 237.65625 78.12 237.9375 78.12 
L 240.80625 78.12 
L 252.28125 77.1075 
M 235.74375 82.845 
L 239.9625 82.5075 
L 245.53125 82.17 
L 246.375 82.00125 
M 245.3625 73.17 
L 244.85625 80.98875 
M 234.225 74.1825 
L 234.225 74.52 
Q 234.225 74.57625 234.5625 75.195 
L 236.41875 80.4825 
L 236.5875 81.66375 
M 237.6 64.395 
Q 237.99375 64.9575 239.371875 65.80125 
Q 240.75 66.645 241.2 67.32 
M 229.21875 70.86375 
L 229.55625 70.86375 
Q 231.01875 70.3575 234 70.3575 
Q 234.95625 70.3575 237.121875 70.18875 
Q 239.2875 70.02 240.4125 70.02 
Q 241.14375 70.02 243.140625 70.048125 
Q 245.1375 70.07625 246.54375 69.96375 
Q 247.95 69.85125 249.1875 69.51375 
Q 249.58125 69.62625 250.171875 69.40125 
Q 250.7625 69.17625 251.04375 69.17625 
M 229.21875 71.37 
Q 229.1625 72.045 229.21875 76.095 
Q 229.21875 79.86375 228.571875 82.648125 
Q 227.925 85.4325 226.8 88.610625 
Q 225.675 91.78875 225.05625 94.71375 
L 221.5125 99.77625 
" clip-path="url(#pc00250b50b)" style="fill: none; stroke: #000000; stroke-linejoin: miter"/>
   </g>
  </g>
  <g id="axes_8">
   <g id="patch_9">
    <path d="M 286.410099 75.083245 
Q 285.565232 76.08904 283.674338 77.255762 
Q 281.783444 78.422483 280.938576 79.267351 
M 270.438079 75.928113 
Q 271.162252 76.08904 272.610596 77.135066 
Q 274.05894 78.181093 274.783113 78.462715 
L 275.869371 78.824801 
M 269.271358 82.365199 
Q 270.236921 82.003113 270.518543 81.962881 
Q 270.800166 81.922649 271.886424 82.043344 
L 289.588411 81.520331 
M 278.162583 70.979603 
L 278.162583 71.703775 
Q 278.162583 71.744007 278.403974 75.20394 
L 278.283278 95.118675 
M 271.886424 71.583079 
L 272.127815 71.583079 
Q 272.168046 71.583079 273.576159 71.341689 
L 283.231788 70.858907 
M 262.110099 68.646159 
Q 262.552649 68.807086 262.975083 69.048477 
Q 263.397517 69.289868 263.860182 69.712301 
Q 264.322848 70.134735 264.564238 70.376126 
Q 264.805629 70.617517 265.328642 71.180762 
Q 265.851656 71.744007 265.972351 71.904934 
L 267.058609 73.232583 
M 257.161589 78.623642 
Q 257.604139 78.502947 258.63005 78.221325 
Q 259.65596 77.939702 260.460596 77.758659 
Q 261.265232 77.577616 261.989404 77.537384 
L 265.610265 76.732748 
Q 265.771192 76.732748 265.992467 76.612053 
Q 266.213742 76.491358 266.334437 76.491358 
Q 266.374669 76.491358 266.455132 76.491358 
Q 266.61606 76.491358 266.61606 76.531589 
Q 266.61606 76.531589 266.61606 76.612053 
Q 266.575828 76.813212 266.575828 76.974139 
Q 266.495364 77.89947 266.032699 81.862301 
Q 265.570033 85.825132 265.610265 88.399967 
Q 265.610265 88.762053 265.610265 89.164371 
Q 265.610265 89.566689 265.610265 90.04947 
Q 265.610265 90.532252 265.610265 90.813874 
Q 265.610265 91.739205 265.851656 91.698974 
Q 265.891887 91.698974 266.012583 91.578278 
L 266.093046 91.538046 
L 268.627649 87.313709 
" clip-path="url(#p5c7cad1f0f)" style="fill: none; stroke: #000000; stroke-linejoin: miter"/>
   </g>
  </g>
  <g id="axes_9">
   <g id="patch_10">
    <path d="M 316.727234 78.268404 
L 316.572128 99.31117 
M 310.005957 78.733723 
Q 310.05766 78.837128 309.928404 79.043936 
Q 309.799149 79.250745 309.850851 79.354149 
L 309.850851 81.060319 
Q 309.850851 85.816915 308.739255 89.125851 
Q 307.62766 92.434787 305.042553 95.485213 
L 304.422128 95.640319 
M 313.108085 68.341596 
Q 316.727234 74.183936 322.517872 78.268404 
L 325.464894 79.819468 
M 313.573404 65.549681 
L 313.573404 65.859894 
Q 313.573404 68.548404 309.980106 72.994787 
Q 306.386809 77.44117 303.388085 79.457553 
L 301.992128 81.008617 
M 299.924043 71.753936 
L 299.924043 99.259468 
M 302.715957 66.170106 
Q 301.371702 71.702234 295.425957 77.027553 
L 294.185106 77.647979 
" clip-path="url(#p749f228dbf)" style="fill: none; stroke: #000000; stroke-linejoin: miter"/>
   </g>
  </g>
  <g id="axes_10">
   <g id="patch_11">
    <path d="M 347.329397 94.597386 
Q 347.329397 94.597386 345.55801 94.597386 
Q 343.280514 94.597386 341.88871 96.326597 
Q 340.496907 98.055807 340.496907 100.417655 
Q 340.412555 102.779503 342.057414 104.086955 
Q 343.702272 105.394407 346.064121 104.972648 
Q 346.738934 104.888297 347.835507 104.803945 
Q 348.932079 104.719593 349.522541 104.635241 
Q 350.113003 104.55089 350.829993 104.213483 
Q 351.546983 103.876076 351.842214 103.074734 
Q 352.137445 102.273393 352.137445 100.923766 
Q 352.137445 100.333303 351.88439 99.742841 
Q 351.631334 99.152379 351.209576 98.43539 
Q 350.787817 97.7184 350.619114 97.380993 
L 348.088562 95.862662 
" clip-path="url(#pf166763001)" style="fill: none; stroke: #000000; stroke-linejoin: miter"/>
   </g>
  </g>
 </g>
 <defs>
  <clipPath id="pdb866a0d2c">
   <rect x="0" y="50.902584" width="36.45" height="59.384831"/>
  </clipPath>
  <clipPath id="p1d64485363">
   <rect x="36.45" y="50.902584" width="36.45" height="59.384831"/>
  </clipPath>
  <clipPath id="p6a814d8847">
   <rect x="72.9" y="48.407119" width="36.45" height="64.375761"/>
  </clipPath>
  <clipPath id="pc0d94deefb">
   <rect x="109.35" y="40.24958" width="36.45" height="80.69084"/>
  </clipPath>
  <clipPath id="p14d7e5790b">
   <rect x="145.8" y="31.475576" width="36.45" height="98.238848"/>
  </clipPath>
  <clipPath id="pbea1dac5c4">
   <rect x="182.25" y="37.695244" width="36.45" height="85.799513"/>
  </clipPath>
  <clipPath id="pc00250b50b">
   <rect x="218.7" y="39.81375" width="36.45" height="81.5625"/>
  </clipPath>
  <clipPath id="p5c7cad1f0f">
   <rect x="255.15" y="51.426954" width="36.45" height="58.336093"/>
  </clipPath>
  <clipPath id="p749f228dbf">
   <rect x="291.6" y="43.110957" width="36.45" height="74.968085"/>
  </clipPath>
  <clipPath id="pf166763001">
   <rect x="336.194969" y="19.44" width="20.160062" height="122.31"/>
  </clipPath>
 </defs>
</svg>
