<?xml version="1.0" encoding="utf-8" standalone="no"?>
<!DOCTYPE svg PUBLIC "-//W3C//DTD SVG 1.1//EN"
  "http://www.w3.org/Graphics/SVG/1.1/DTD/svg11.dtd">
<svg xmlns:xlink="http://www.w3.org/1999/xlink" width="450pt" height="72pt" viewBox="0 0 450 72" xmlns="http://www.w3.org/2000/svg" version="1.1">
 <metadata>
  <rdf:RDF xmlns:dc="http://purl.org/dc/elements/1.1/" xmlns:cc="http://creativecommons.org/ns#" xmlns:rdf="http://www.w3.org/1999/02/22-rdf-syntax-ns#">
   <cc:Work>
    <dc:type rdf:resource="http://purl.org/dc/dcmitype/StillImage"/>
    <dc:date>2023-02-14T21:49:46.121712</dc:date>
    <dc:format>image/svg+xml</dc:format>
    <dc:creator>
     <cc:Agent>
      <dc:title>Matplotlib v3.6.1, https://matplotlib.org/</dc:title>
     </cc:Agent>
    </dc:creator>
   </cc:Work>
  </rdf:RDF>
 </metadata>
 <defs>
  <style type="text/css">*{stroke-linejoin: round; stroke-linecap: butt}</style>
 </defs>
 <g id="figure_1">
  <g id="patch_1">
   <path d="M 0 72 
L 450 72 
L 450 0 
L 0 0 
z
" style="fill: #8fff9f"/>
  </g>
  <g id="axes_1">
   <g id="patch_2">
    <path d="M 11.699007 39.568966 
Q 10.349379 38.181848 8.1 38.444276 
Q 5.250786 38.444276 4.088607 39.793903 
Q 2.926428 41.143531 2.926428 44.067724 
Q 2.926428 45.56731 4.219821 46.279614 
Q 5.513214 46.991917 7.087779 46.991917 
Q 8.399917 46.991917 9.412138 45.736014 
Q 10.424359 44.48011 11.005448 42.30571 
Q 11.586538 40.13131 11.961434 37.938166 
Q 12.336331 35.745021 12.48629 33.045766 
Q 12.636248 30.34651 12.673738 28.978138 
Q 12.711228 27.609766 12.711228 26.185159 
Q 12.48629 26.260138 12.48629 29.896634 
L 12.48629 44.292662 
L 13.273572 48.229076 
" clip-path="url(#p211a5026ad)" style="fill: none; stroke: #000000; stroke-linejoin: miter"/>
   </g>
  </g>
  <g id="axes_2">
   <g id="patch_3">
    <path d="M 19.688772 35.145186 
Q 19.688772 35.145186 19.688772 35.595062 
Q 19.688772 36.269876 19.576303 37.619503 
Q 19.463834 38.969131 19.463834 39.643945 
Q 19.463834 41.930814 20.700993 43.599103 
Q 21.938152 45.267393 24.075062 45.267393 
Q 25.462179 45.154924 26.230717 43.917766 
Q 26.999255 42.680607 27.149214 41.237255 
Q 27.299172 39.793903 27.5616 37.9944 
Q 27.824028 36.194897 28.236414 35.370124 
Q 28.386372 35.070207 28.386372 35.670041 
Q 28.386372 36.269876 28.123945 38.706703 
Q 27.899007 41.031062 27.899007 41.555917 
Q 27.749048 42.643117 28.086455 43.767807 
Q 28.423862 44.892497 29.136166 45.6048 
" clip-path="url(#p573db3d925)" style="fill: none; stroke: #000000; stroke-linejoin: miter"/>
   </g>
  </g>
  <g id="axes_3">
   <g id="patch_4">
    <path d="M 38.213131 30.384 
L 41.474731 34.657821 
M 41.137324 37.019669 
L 40.874897 41.743366 
Q 40.987366 42.268221 41.118579 43.749062 
Q 41.249793 45.229903 41.5872 46.1484 
Q 41.924607 47.066897 42.786869 47.591752 
" clip-path="url(#p45c43088c9)" style="fill: none; stroke: #000000; stroke-linejoin: miter"/>
   </g>
  </g>
  <g id="axes_4"/>
  <g id="axes_5">
   <g id="patch_5">
    <path d="M 66.453061 45.374694 
Q 70.552653 45.440816 77.561633 45.870612 
Q 77.991429 45.903673 78.173265 45.887143 
Q 78.355102 45.870612 78.751837 45.787959 
Q 79.148571 45.705306 79.346939 45.672245 
M 68.04 27.521633 
L 68.04 29.406122 
Q 68.04 31.588163 67.825102 33.985102 
Q 67.610204 36.382041 67.246531 39.291429 
Q 66.882857 42.200816 66.750612 43.787755 
L 66.453061 45.374694 
" clip-path="url(#p7dad6b5eba)" style="fill: none; stroke: #000000; stroke-linejoin: miter"/>
   </g>
  </g>
  <g id="axes_6">
   <g id="patch_6">
    <path d="M 86.400745 33.345683 
L 86.400745 33.570621 
Q 86.400745 34.545352 87.375476 35.969959 
Q 88.350207 37.394566 89.324938 37.394566 
Q 89.699834 37.394566 90.055986 36.9072 
Q 90.412138 36.419834 90.7308 35.726276 
Q 91.049462 35.032717 91.124441 34.920248 
L 91.799255 31.771117 
M 89.362428 39.419007 
L 88.912552 47.291834 
L 88.575145 47.74171 
" clip-path="url(#p602b71b427)" style="fill: none; stroke: #000000; stroke-linejoin: miter"/>
   </g>
  </g>
  <g id="axes_7"/>
  <g id="axes_8">
   <g id="patch_7">
    <path d="M 127.294615 26.878846 
Q 126.546923 28.997308 125.082692 31.271538 
Q 123.618462 33.545769 122.200962 35.228077 
Q 120.783462 36.910385 119.256923 39.153462 
Q 117.730385 41.396538 116.920385 43.421538 
L 116.359615 45.290769 
M 114.957692 27.439615 
Q 116.577692 29.620385 119.926731 34.776346 
Q 123.275769 39.932308 125.331923 42.486923 
L 128.042308 46.131923 
" clip-path="url(#p0c7023f5f6)" style="fill: none; stroke: #000000; stroke-linejoin: miter"/>
   </g>
  </g>
  <g id="axes_9">
   <g id="patch_8">
    <path d="M 133.088772 35.145186 
Q 133.088772 35.145186 133.088772 35.595062 
Q 133.088772 36.269876 132.976303 37.619503 
Q 132.863834 38.969131 132.863834 39.643945 
Q 132.863834 41.930814 134.100993 43.599103 
Q 135.338152 45.267393 137.475062 45.267393 
Q 138.862179 45.154924 139.630717 43.917766 
Q 140.399255 42.680607 140.549214 41.237255 
Q 140.699172 39.793903 140.9616 37.9944 
Q 141.224028 36.194897 141.636414 35.370124 
Q 141.786372 35.070207 141.786372 35.670041 
Q 141.786372 36.269876 141.523945 38.706703 
Q 141.299007 41.031062 141.299007 41.555917 
Q 141.149048 42.643117 141.486455 43.767807 
Q 141.823862 44.892497 142.536166 45.6048 
" clip-path="url(#p6406a137b4)" style="fill: none; stroke: #000000; stroke-linejoin: miter"/>
   </g>
  </g>
  <g id="axes_10">
   <g id="patch_9">
    <path d="M 151.088276 30.608938 
Q 151.200745 30.871366 151.463172 31.602414 
Q 151.7256 32.333462 151.931793 32.783338 
Q 152.137986 33.233214 152.475393 33.758069 
Q 152.8128 34.282924 153.31891 34.507862 
Q 153.825021 34.7328 154.462345 34.657821 
Q 157.274069 34.657821 157.611476 29.25931 
M 148.726428 41.968303 
L 149.176303 41.968303 
Q 149.738648 41.968303 151.200745 42.474414 
Q 152.662841 42.980524 153.450124 42.980524 
Q 155.811972 42.980524 157.105366 42.211986 
Q 158.398759 41.443448 158.398759 39.269048 
Q 158.398759 37.132138 153.112717 37.132138 
Q 152.025517 37.132138 151.256979 37.694483 
Q 150.488441 38.256828 150.113545 39.194069 
Q 149.738648 40.13131 149.569945 41.049807 
Q 149.401241 41.968303 149.401241 42.980524 
Q 149.138814 44.105214 149.51371 44.967476 
Q 149.888607 45.829738 150.825848 46.335848 
Q 151.76309 46.841959 152.606607 47.123131 
Q 153.450124 47.404303 154.574814 47.591752 
Q 155.174648 47.704221 157.1616 47.704221 
Q 157.611476 47.81669 157.948883 47.573007 
Q 158.28629 47.329324 158.623697 46.748234 
Q 158.961103 46.167145 159.073572 46.017186 
" clip-path="url(#p4c1b61853b)" style="fill: none; stroke: #000000; stroke-linejoin: miter"/>
   </g>
  </g>
  <g id="axes_11"/>
  <g id="axes_12">
   <g id="patch_10">
    <path d="M 182.813462 35.932469 
Q 183.413297 35.257655 184.406772 34.826524 
Q 185.400248 34.395393 186.3 34.470372 
Q 186.937324 34.470372 187.42469 34.639076 
Q 187.912055 34.807779 188.230717 34.995228 
Q 188.549379 35.182676 188.774317 35.670041 
Q 188.999255 36.157407 189.111724 36.419834 
Q 189.224193 36.682262 189.280428 37.375821 
Q 189.336662 38.069379 189.355407 38.331807 
Q 189.374152 38.594234 189.355407 39.419007 
Q 189.336662 40.243779 189.336662 40.431228 
Q 189.336662 41.368469 189.167959 43.242952 
Q 188.999255 45.117434 188.999255 46.054676 
Q 188.999255 46.467062 189.05549 46.823214 
Q 189.111724 47.179366 189.205448 47.610497 
Q 189.299172 48.041628 189.336662 48.304055 
L 189.786538 48.528993 
M 183.263338 23.111007 
Q 183.488276 24.798041 183.488276 29.971614 
L 183.488276 42.3432 
L 183.150869 46.841959 
L 182.925931 47.74171 
" clip-path="url(#pe5ad22fad5)" style="fill: none; stroke: #000000; stroke-linejoin: miter"/>
   </g>
  </g>
  <g id="axes_13">
   <g id="patch_11">
    <path d="M 199.2384 34.357903 
Q 199.500828 34.395393 199.838234 33.795559 
Q 200.175641 33.195724 200.700497 33.345683 
L 205.199255 29.2968 
M 198.338648 40.656166 
L 198.563586 40.656166 
Q 199.27589 40.656166 200.83171 41.330979 
Q 202.387531 42.005793 203.287283 42.005793 
Q 205.986538 42.005793 205.986538 38.744193 
Q 205.986538 36.607283 202.612469 36.607283 
Q 200.737986 36.607283 199.650786 37.750717 
Q 198.563586 38.894152 198.563586 40.768634 
Q 198.563586 43.617848 199.894469 45.454841 
Q 201.225352 47.291834 203.962097 47.291834 
Q 205.424193 47.591752 206.661352 45.6048 
" clip-path="url(#p5b3687abec)" style="fill: none; stroke: #000000; stroke-linejoin: miter"/>
   </g>
  </g>
  <g id="axes_14"/>
  <g id="axes_15">
   <g id="patch_12">
    <path d="M 229.011604 28.853447 
Q 229.896246 28.825802 231.693174 28.784334 
Q 233.490102 28.742867 234.582082 28.715222 
Q 235.674061 28.687577 237.194539 28.576997 
Q 238.715017 28.466416 239.959044 28.272901 
Q 241.037201 28.107031 241.368942 28.107031 
Q 241.617747 28.107031 241.617747 28.189966 
Q 240.843686 29.876314 239.350853 31.673242 
Q 237.85802 33.470171 236.21314 34.990648 
Q 234.568259 36.511126 232.951024 37.990137 
Q 231.333788 39.469147 230.020648 41.07256 
Q 228.707509 42.675973 228.182253 44.113515 
L 235.148805 44.528191 
L 241.617747 45.191672 
" clip-path="url(#p608c904c7d)" style="fill: none; stroke: #000000; stroke-linejoin: miter"/>
   </g>
  </g>
  <g id="axes_16">
   <g id="patch_13">
    <path d="M 247.613462 35.932469 
Q 248.213297 35.257655 249.206772 34.826524 
Q 250.200248 34.395393 251.1 34.470372 
Q 251.737324 34.470372 252.22469 34.639076 
Q 252.712055 34.807779 253.030717 34.995228 
Q 253.349379 35.182676 253.574317 35.670041 
Q 253.799255 36.157407 253.911724 36.419834 
Q 254.024193 36.682262 254.080428 37.375821 
Q 254.136662 38.069379 254.155407 38.331807 
Q 254.174152 38.594234 254.155407 39.419007 
Q 254.136662 40.243779 254.136662 40.431228 
Q 254.136662 41.368469 253.967959 43.242952 
Q 253.799255 45.117434 253.799255 46.054676 
Q 253.799255 46.467062 253.85549 46.823214 
Q 253.911724 47.179366 254.005448 47.610497 
Q 254.099172 48.041628 254.136662 48.304055 
L 254.586538 48.528993 
M 248.063338 23.111007 
Q 248.288276 24.798041 248.288276 29.971614 
L 248.288276 42.3432 
L 247.950869 46.841959 
L 247.725931 47.74171 
" clip-path="url(#pc8520fe438)" style="fill: none; stroke: #000000; stroke-linejoin: miter"/>
   </g>
  </g>
  <g id="axes_17">
   <g id="patch_14">
    <path d="M 262.032703 35.332634 
L 272.379848 35.332634 
M 271.592566 39.344028 
Q 271.592566 39.344028 268.668372 39.344028 
Q 261.695297 39.344028 261.695297 44.5176 
Q 261.695297 46.279614 263.45731 47.19811 
Q 265.219324 48.116607 267.206276 48.116607 
Q 268.443434 47.891669 269.249462 47.2356 
Q 270.05549 46.579531 270.411641 45.586055 
Q 270.767793 44.592579 270.936497 43.674083 
Q 271.1052 42.755586 271.255159 41.443448 
Q 271.405117 40.13131 271.592566 39.344028 
Q 272.679766 46.092166 272.792234 47.029407 
L 272.904703 48.154097 
" clip-path="url(#pda91f7f354)" style="fill: none; stroke: #000000; stroke-linejoin: miter"/>
   </g>
  </g>
  <g id="axes_18">
   <g id="patch_15">
    <path d="M 279.038731 37.282097 
L 279.038731 37.844441 
Q 279.301159 39.868883 279.338648 41.312234 
Q 279.376138 42.755586 279.282414 44.667559 
Q 279.18869 46.579531 279.18869 48.191586 
L 279.263669 39.643945 
Q 279.263669 38.144359 280.856979 37.507034 
Q 282.45029 36.86971 283.874897 37.282097 
Q 285.786869 37.844441 286.705366 39.04411 
Q 287.623862 40.243779 287.680097 41.668386 
Q 287.736331 43.092993 287.773821 44.817517 
Q 287.81131 46.542041 287.961269 48.191586 
" clip-path="url(#p6ac9d480c9)" style="fill: none; stroke: #000000; stroke-linejoin: miter"/>
   </g>
  </g>
  <g id="axes_19">
   <g id="patch_16">
    <path d="M 304.487191 39.096404 
Q 304.23236 39.023596 303.26764 38.623146 
Q 302.302921 38.222697 301.64764 38.077079 
Q 300.99236 37.931461 300.337079 38.00427 
Q 297.715955 38.00427 296.077753 40.388764 
Q 294.439551 42.773258 294.439551 45.430787 
Q 294.439551 47.068989 299.681798 47.068989 
Q 301.247191 47.068989 302.575955 45.558202 
Q 303.904719 44.047416 304.578202 42.172584 
Q 305.251685 40.297753 305.251685 38.768764 
Q 305.251685 37.27618 305.215281 36.984944 
L 305.142472 38.077079 
Q 305.142472 38.550337 305.142472 38.987191 
Q 305.178876 40.188539 305.379101 42.281798 
Q 305.579326 44.375056 305.743146 46.049663 
Q 305.906966 47.72427 305.943371 49.872135 
Q 305.979775 52.02 305.815955 53.658202 
Q 305.652135 55.296404 305.087865 56.971011 
Q 304.523596 58.645618 303.595281 59.737753 
Q 302.666966 60.829888 301.065169 61.521573 
Q 299.463371 62.213258 297.315506 62.213258 
Q 295.677303 62.213258 294.585169 61.466966 
Q 293.493034 60.720674 293.493034 59.155281 
Q 293.420225 58.936854 293.456629 58.936854 
Q 293.493034 58.936854 293.602247 58.936854 
Q 293.711461 58.936854 293.711461 58.82764 
" clip-path="url(#pc97b942595)" style="fill: none; stroke: #000000; stroke-linejoin: miter"/>
   </g>
  </g>
  <g id="axes_20"/>
  <g id="axes_21">
   <g id="patch_17">
    <path d="M 326.048638 35.788482 
L 326.237743 35.788482 
Q 327.120233 35.788482 328.885214 35.69393 
Q 330.650195 35.599377 331.532685 35.599377 
Q 333.077043 35.599377 334.274708 35.835759 
Q 335.472374 36.07214 336.496693 36.655214 
Q 337.521012 37.238288 338.072568 38.35716 
Q 338.624125 39.476031 338.624125 41.083424 
Q 338.624125 46.567471 328.507004 46.567471 
Q 328.475486 46.567471 326.615953 46.283813 
L 326.048638 46.000156 
M 326.048638 27.562412 
Q 327.687549 26.679922 329.641634 26.71144 
Q 331.910895 26.71144 333.943774 28.035175 
Q 335.976654 29.358911 335.976654 31.533619 
Q 335.976654 32.825837 335.425097 33.582257 
Q 334.873541 34.338677 334.148638 34.527782 
Q 333.423735 34.716887 332.430934 35.06358 
Q 331.438132 35.410272 330.870817 35.883035 
L 326.048638 35.788482 
M 325.575875 27.656965 
Q 325.796498 28.949183 325.733463 32.494903 
Q 325.670428 36.040623 326.237743 37.301323 
Q 326.237743 38.309883 326.190467 40.358521 
Q 326.143191 42.40716 326.143191 43.447237 
L 326.143191 45.243735 
L 325.954086 46.000156 
" clip-path="url(#pd99e3f4e82)" style="fill: none; stroke: #000000; stroke-linejoin: miter"/>
   </g>
  </g>
  <g id="axes_22">
   <g id="patch_18">
    <path d="M 345.150869 35.182676 
Q 345.563255 34.69531 346.537986 33.851793 
Q 347.512717 33.008276 348.187531 32.220993 
Q 348.862345 31.43371 349.087283 30.458979 
L 350.324441 28.996883 
M 349.42469 38.219338 
Q 347.812634 37.656993 347.17531 37.769462 
Q 345.188359 37.769462 343.98869 39.0816 
Q 342.789021 40.393738 342.789021 42.493159 
Q 342.789021 45.454841 344.944676 47.123131 
Q 347.100331 48.791421 350.211972 48.791421 
Q 351.936497 48.791421 352.873738 47.27309 
Q 353.810979 45.754759 353.810979 43.842786 
Q 353.810979 42.755586 353.436083 41.83709 
Q 353.061186 40.918593 352.442607 39.887628 
Q 351.824028 38.856662 351.5616 38.219338 
L 348.637407 37.544524 
" clip-path="url(#p1bcb0f2732)" style="fill: none; stroke: #000000; stroke-linejoin: miter"/>
   </g>
  </g>
  <g id="axes_23"/>
  <g id="axes_24">
   <g id="patch_19">
    <path d="M 384.299007 39.568966 
Q 382.949379 38.181848 380.7 38.444276 
Q 377.850786 38.444276 376.688607 39.793903 
Q 375.526428 41.143531 375.526428 44.067724 
Q 375.526428 45.56731 376.819821 46.279614 
Q 378.113214 46.991917 379.687779 46.991917 
Q 380.999917 46.991917 382.012138 45.736014 
Q 383.024359 44.48011 383.605448 42.30571 
Q 384.186538 40.13131 384.561434 37.938166 
Q 384.936331 35.745021 385.08629 33.045766 
Q 385.236248 30.34651 385.273738 28.978138 
Q 385.311228 27.609766 385.311228 26.185159 
Q 385.08629 26.260138 385.08629 29.896634 
L 385.08629 44.292662 
L 385.873572 48.229076 
" clip-path="url(#p384785317d)" style="fill: none; stroke: #000000; stroke-linejoin: miter"/>
   </g>
  </g>
  <g id="axes_25">
   <g id="patch_20">
    <path d="M 390.657798 38.160826 
Q 393.630275 39.535596 398.349083 39.721376 
Q 399.872477 39.721376 400.559862 38.550963 
Q 401.247248 37.38055 401.247248 35.82 
Q 401.247248 35.299817 401.154358 34.909679 
Q 401.061468 34.519541 400.819954 34.296606 
Q 400.57844 34.07367 400.411239 33.943624 
Q 400.244037 33.813578 399.798165 33.757844 
Q 399.352294 33.70211 399.147936 33.683532 
Q 398.943578 33.664954 398.367661 33.683532 
Q 397.791743 33.70211 397.568807 33.70211 
Q 395.525229 33.70211 394.038991 35.578486 
Q 392.552752 37.454862 392.552752 39.609908 
Q 392.552752 42.619541 394.484862 44.570229 
Q 396.416972 46.520917 399.463761 46.520917 
Q 401.618807 46.818165 403.142202 44.29156 
" clip-path="url(#p9cc09aabdc)" style="fill: none; stroke: #000000; stroke-linejoin: miter"/>
   </g>
  </g>
 </g>
 <defs>
  <clipPath id="p211a5026ad">
   <rect x="1.051945" y="8.64" width="14.09611" height="54.36"/>
  </clipPath>
  <clipPath id="p573db3d925">
   <rect x="17.589352" y="8.64" width="13.421297" height="54.36"/>
  </clipPath>
  <clipPath id="p45c43088c9">
   <rect x="36.338648" y="8.64" width="8.322703" height="54.36"/>
  </clipPath>
  <clipPath id="p7dad6b5eba">
   <rect x="64.8" y="11.850612" width="16.2" height="47.938776"/>
  </clipPath>
  <clipPath id="p602b71b427">
   <rect x="84.526262" y="8.64" width="9.147476" height="54.36"/>
  </clipPath>
  <clipPath id="p0c7023f5f6">
   <rect x="113.4" y="13.233462" width="16.2" height="45.173077"/>
  </clipPath>
  <clipPath id="p6406a137b4">
   <rect x="130.989352" y="8.64" width="13.421297" height="54.36"/>
  </clipPath>
  <clipPath id="p4c1b61853b">
   <rect x="146.851945" y="8.64" width="14.09611" height="54.36"/>
  </clipPath>
  <clipPath id="pe5ad22fad5">
   <rect x="180.938979" y="8.64" width="10.722041" height="54.36"/>
  </clipPath>
  <clipPath id="p5b3687abec">
   <rect x="196.464166" y="8.64" width="12.071669" height="54.36"/>
  </clipPath>
  <clipPath id="p608c904c7d">
   <rect x="226.8" y="15.777338" width="16.2" height="40.085324"/>
  </clipPath>
  <clipPath id="pc8520fe438">
   <rect x="245.738979" y="8.64" width="10.722041" height="54.36"/>
  </clipPath>
  <clipPath id="pda91f7f354">
   <rect x="259.820814" y="8.64" width="14.958372" height="54.36"/>
  </clipPath>
  <clipPath id="p6ac9d480c9">
   <rect x="277.164248" y="8.64" width="12.671503" height="54.36"/>
  </clipPath>
  <clipPath id="pc97b942595">
   <rect x="291.6" y="9.426742" width="16.2" height="52.786517"/>
  </clipPath>
  <clipPath id="pd99e3f4e82">
   <rect x="324" y="12.969805" width="16.2" height="45.700389"/>
  </clipPath>
  <clipPath id="p1bcb0f2732">
   <rect x="340.914538" y="8.64" width="14.770924" height="54.36"/>
  </clipPath>
  <clipPath id="p384785317d">
   <rect x="373.651945" y="8.64" width="14.09611" height="54.36"/>
  </clipPath>
  <clipPath id="p9cc09aabdc">
   <rect x="388.8" y="8.881927" width="16.2" height="53.876147"/>
  </clipPath>
 </defs>
</svg>
