<?xml version="1.0" encoding="utf-8" standalone="no"?>
<!DOCTYPE svg PUBLIC "-//W3C//DTD SVG 1.1//EN"
  "http://www.w3.org/Graphics/SVG/1.1/DTD/svg11.dtd">
<svg xmlns:xlink="http://www.w3.org/1999/xlink" width="288pt" height="72pt" viewBox="0 0 288 72" xmlns="http://www.w3.org/2000/svg" version="1.1">
 <metadata>
  <rdf:RDF xmlns:dc="http://purl.org/dc/elements/1.1/" xmlns:cc="http://creativecommons.org/ns#" xmlns:rdf="http://www.w3.org/1999/02/22-rdf-syntax-ns#">
   <cc:Work>
    <dc:type rdf:resource="http://purl.org/dc/dcmitype/StillImage"/>
    <dc:date>2023-02-15T23:07:36.586938</dc:date>
    <dc:format>image/svg+xml</dc:format>
    <dc:creator>
     <cc:Agent>
      <dc:title>Matplotlib v3.6.1, https://matplotlib.org/</dc:title>
     </cc:Agent>
    </dc:creator>
   </cc:Work>
  </rdf:RDF>
 </metadata>
 <defs>
  <style type="text/css">*{stroke-linejoin: round; stroke-linecap: butt}</style>
 </defs>
 <g id="figure_1">
  <g id="patch_1">
   <path d="M 0 72 
L 288 72 
L 288 0 
L 0 0 
z
" style="fill: #8fff9f"/>
  </g>
  <g id="axes_1">
   <g id="patch_2">
    <path d="M 4.613462 32.783338 
Q 5.138317 34.507862 5.269531 36.457324 
Q 5.400745 38.406786 5.325766 40.956083 
Q 5.250786 43.505379 5.288276 44.705048 
L 5.400745 46.054676 
L 5.400745 45.829738 
Q 5.400745 44.667559 5.119572 42.30571 
Q 4.8384 39.943862 4.8384 38.744193 
Q 4.8384 36.419834 5.850621 34.882759 
Q 6.862841 33.345683 8.887283 33.345683 
Q 9.599586 33.345683 9.936993 33.626855 
Q 10.2744 33.908028 10.536828 34.432883 
Q 10.799255 34.957738 11.136662 35.257655 
L 11.586538 36.832221 
" clip-path="url(#pe08518da3a)" style="fill: none; stroke: #000000; stroke-linejoin: miter"/>
   </g>
  </g>
  <g id="axes_2">
   <g id="patch_3">
    <path d="M 18.057798 38.160826 
Q 21.030275 39.535596 25.749083 39.721376 
Q 27.272477 39.721376 27.959862 38.550963 
Q 28.647248 37.38055 28.647248 35.82 
Q 28.647248 35.299817 28.554358 34.909679 
Q 28.461468 34.519541 28.219954 34.296606 
Q 27.97844 34.07367 27.811239 33.943624 
Q 27.644037 33.813578 27.198165 33.757844 
Q 26.752294 33.70211 26.547936 33.683532 
Q 26.343578 33.664954 25.767661 33.683532 
Q 25.191743 33.70211 24.968807 33.70211 
Q 22.925229 33.70211 21.438991 35.578486 
Q 19.952752 37.454862 19.952752 39.609908 
Q 19.952752 42.619541 21.884862 44.570229 
Q 23.816972 46.520917 26.863761 46.520917 
Q 29.018807 46.818165 30.542202 44.29156 
" clip-path="url(#p8c40a00ec7)" style="fill: none; stroke: #000000; stroke-linejoin: miter"/>
   </g>
  </g>
  <g id="axes_3">
   <g id="patch_4">
    <path d="M 36.057476 43.917766 
Q 36.357393 44.180193 37.369614 45.154924 
Q 38.381834 46.129655 38.944179 46.560786 
Q 39.506524 46.991917 40.53749 47.385559 
Q 41.568455 47.7792 42.580676 47.629241 
Q 43.25549 47.629241 43.72411 47.404303 
Q 44.192731 47.179366 44.417669 46.879448 
Q 44.642607 46.579531 44.773821 45.979697 
Q 44.905034 45.379862 44.923779 44.967476 
Q 44.942524 44.55509 44.942524 43.805297 
Q 44.942524 42.718097 44.042772 42.043283 
Q 43.143021 41.368469 41.849628 41.031062 
Q 40.556234 40.693655 39.262841 40.300014 
Q 37.969448 39.906372 37.069697 38.987876 
Q 36.169945 38.069379 36.169945 36.607283 
Q 36.169945 36.082428 36.338648 35.726276 
Q 36.507352 35.370124 36.900993 35.145186 
Q 37.294634 34.920248 37.575807 34.807779 
Q 37.856979 34.69531 38.513048 34.639076 
Q 39.169117 34.582841 39.356566 34.582841 
Q 39.544014 34.582841 40.218828 34.582841 
Q 41.418497 34.582841 41.999586 34.995228 
Q 42.580676 35.407614 42.899338 36.026193 
Q 43.218 36.644772 43.480428 36.832221 
" clip-path="url(#pcd24c8713e)" style="fill: none; stroke: #000000; stroke-linejoin: miter"/>
   </g>
  </g>
  <g id="axes_4">
   <g id="patch_5">
    <path d="M 50.457798 38.160826 
Q 53.430275 39.535596 58.149083 39.721376 
Q 59.672477 39.721376 60.359862 38.550963 
Q 61.047248 37.38055 61.047248 35.82 
Q 61.047248 35.299817 60.954358 34.909679 
Q 60.861468 34.519541 60.619954 34.296606 
Q 60.37844 34.07367 60.211239 33.943624 
Q 60.044037 33.813578 59.598165 33.757844 
Q 59.152294 33.70211 58.947936 33.683532 
Q 58.743578 33.664954 58.167661 33.683532 
Q 57.591743 33.70211 57.368807 33.70211 
Q 55.325229 33.70211 53.838991 35.578486 
Q 52.352752 37.454862 52.352752 39.609908 
Q 52.352752 42.619541 54.284862 44.570229 
Q 56.216972 46.520917 59.263761 46.520917 
Q 61.418807 46.818165 62.942202 44.29156 
" clip-path="url(#p58ed22e356)" style="fill: none; stroke: #000000; stroke-linejoin: miter"/>
   </g>
  </g>
  <g id="axes_5">
   <g id="patch_6">
    <path d="M 78.443923 36.441748 
Q 77.234968 35.094627 73.262687 35.094627 
Q 71.742857 35.094627 70.965672 35.146439 
Q 70.188486 35.198252 69.18678 35.440043 
Q 68.185075 35.681834 67.701493 36.182687 
Q 67.21791 36.683539 66.872495 37.616162 
Q 66.527079 38.548785 66.527079 39.964989 
Q 66.527079 42.037484 67.943284 43.280981 
Q 69.359488 44.524478 71.293817 44.524478 
Q 73.953518 44.524478 76.716844 38.721493 
Q 78.063966 35.854542 78.063966 35.82 
Q 78.409382 35.578209 78.443923 36.441748 
Q 78.443923 37.512537 78.858422 40.362217 
Q 79.272921 43.211898 79.272921 44.524478 
" clip-path="url(#pd3a9ecdfbb)" style="fill: none; stroke: #000000; stroke-linejoin: miter"/>
   </g>
  </g>
  <g id="axes_6">
   <g id="patch_7">
    <path d="M 85.613462 32.783338 
Q 86.138317 34.507862 86.269531 36.457324 
Q 86.400745 38.406786 86.325766 40.956083 
Q 86.250786 43.505379 86.288276 44.705048 
L 86.400745 46.054676 
L 86.400745 45.829738 
Q 86.400745 44.667559 86.119572 42.30571 
Q 85.8384 39.943862 85.8384 38.744193 
Q 85.8384 36.419834 86.850621 34.882759 
Q 87.862841 33.345683 89.887283 33.345683 
Q 90.599586 33.345683 90.936993 33.626855 
Q 91.2744 33.908028 91.536828 34.432883 
Q 91.799255 34.957738 92.136662 35.257655 
L 92.586538 36.832221 
" clip-path="url(#pb36a204c47)" style="fill: none; stroke: #000000; stroke-linejoin: miter"/>
   </g>
  </g>
  <g id="axes_7">
   <g id="patch_8">
    <path d="M 110.556735 34.365306 
Q 110.556735 34.365306 110.060816 34.365306 
Q 109.267347 34.365306 107.779592 34.067755 
Q 106.291837 33.770204 105.498367 33.770204 
Q 102.721224 33.770204 100.787143 35.224898 
Q 98.853061 36.679592 98.853061 39.423673 
Q 98.853061 40.94449 100.340816 42.399184 
Q 101.828571 43.853878 103.762653 44.663878 
Q 105.696735 45.473878 107.18449 45.473878 
Q 108.110204 45.473878 108.80449 45.110204 
Q 109.498776 44.746531 110.242653 44.118367 
Q 110.986531 43.490204 111.548571 43.192653 
L 111.746939 42.696735 
" clip-path="url(#p02207710cb)" style="fill: none; stroke: #000000; stroke-linejoin: miter"/>
   </g>
  </g>
  <g id="axes_8">
   <g id="patch_9">
    <path d="M 118.013462 35.932469 
Q 118.613297 35.257655 119.606772 34.826524 
Q 120.600248 34.395393 121.5 34.470372 
Q 122.137324 34.470372 122.62469 34.639076 
Q 123.112055 34.807779 123.430717 34.995228 
Q 123.749379 35.182676 123.974317 35.670041 
Q 124.199255 36.157407 124.311724 36.419834 
Q 124.424193 36.682262 124.480428 37.375821 
Q 124.536662 38.069379 124.555407 38.331807 
Q 124.574152 38.594234 124.555407 39.419007 
Q 124.536662 40.243779 124.536662 40.431228 
Q 124.536662 41.368469 124.367959 43.242952 
Q 124.199255 45.117434 124.199255 46.054676 
Q 124.199255 46.467062 124.25549 46.823214 
Q 124.311724 47.179366 124.405448 47.610497 
Q 124.499172 48.041628 124.536662 48.304055 
L 124.986538 48.528993 
M 118.463338 23.111007 
Q 118.688276 24.798041 118.688276 29.971614 
L 118.688276 42.3432 
L 118.350869 46.841959 
L 118.125931 47.74171 
" clip-path="url(#p95166962ee)" style="fill: none; stroke: #000000; stroke-linejoin: miter"/>
   </g>
  </g>
  <g id="axes_9"/>
  <g id="axes_10">
   <g id="patch_10">
    <path d="M 150.413462 32.783338 
Q 150.938317 34.507862 151.069531 36.457324 
Q 151.200745 38.406786 151.125766 40.956083 
Q 151.050786 43.505379 151.088276 44.705048 
L 151.200745 46.054676 
L 151.200745 45.829738 
Q 151.200745 44.667559 150.919572 42.30571 
Q 150.6384 39.943862 150.6384 38.744193 
Q 150.6384 36.419834 151.650621 34.882759 
Q 152.662841 33.345683 154.687283 33.345683 
Q 155.399586 33.345683 155.736993 33.626855 
Q 156.0744 33.908028 156.336828 34.432883 
Q 156.599255 34.957738 156.936662 35.257655 
L 157.386538 36.832221 
" clip-path="url(#p9cd60bd5fa)" style="fill: none; stroke: #000000; stroke-linejoin: miter"/>
   </g>
  </g>
  <g id="axes_11">
   <g id="patch_11">
    <path d="M 163.857798 38.160826 
Q 166.830275 39.535596 171.549083 39.721376 
Q 173.072477 39.721376 173.759862 38.550963 
Q 174.447248 37.38055 174.447248 35.82 
Q 174.447248 35.299817 174.354358 34.909679 
Q 174.261468 34.519541 174.019954 34.296606 
Q 173.77844 34.07367 173.611239 33.943624 
Q 173.444037 33.813578 172.998165 33.757844 
Q 172.552294 33.70211 172.347936 33.683532 
Q 172.143578 33.664954 171.567661 33.683532 
Q 170.991743 33.70211 170.768807 33.70211 
Q 168.725229 33.70211 167.238991 35.578486 
Q 165.752752 37.454862 165.752752 39.609908 
Q 165.752752 42.619541 167.684862 44.570229 
Q 169.616972 46.520917 172.663761 46.520917 
Q 174.818807 46.818165 176.342202 44.29156 
" clip-path="url(#p474708fe03)" style="fill: none; stroke: #000000; stroke-linejoin: miter"/>
   </g>
  </g>
  <g id="axes_12">
   <g id="patch_12">
    <path d="M 181.857476 43.917766 
Q 182.157393 44.180193 183.169614 45.154924 
Q 184.181834 46.129655 184.744179 46.560786 
Q 185.306524 46.991917 186.33749 47.385559 
Q 187.368455 47.7792 188.380676 47.629241 
Q 189.05549 47.629241 189.52411 47.404303 
Q 189.992731 47.179366 190.217669 46.879448 
Q 190.442607 46.579531 190.573821 45.979697 
Q 190.705034 45.379862 190.723779 44.967476 
Q 190.742524 44.55509 190.742524 43.805297 
Q 190.742524 42.718097 189.842772 42.043283 
Q 188.943021 41.368469 187.649628 41.031062 
Q 186.356234 40.693655 185.062841 40.300014 
Q 183.769448 39.906372 182.869697 38.987876 
Q 181.969945 38.069379 181.969945 36.607283 
Q 181.969945 36.082428 182.138648 35.726276 
Q 182.307352 35.370124 182.700993 35.145186 
Q 183.094634 34.920248 183.375807 34.807779 
Q 183.656979 34.69531 184.313048 34.639076 
Q 184.969117 34.582841 185.156566 34.582841 
Q 185.344014 34.582841 186.018828 34.582841 
Q 187.218497 34.582841 187.799586 34.995228 
Q 188.380676 35.407614 188.699338 36.026193 
Q 189.018 36.644772 189.280428 36.832221 
" clip-path="url(#pba2c852647)" style="fill: none; stroke: #000000; stroke-linejoin: miter"/>
   </g>
  </g>
  <g id="axes_13">
   <g id="patch_13">
    <path d="M 197.888772 35.145186 
Q 197.888772 35.145186 197.888772 35.595062 
Q 197.888772 36.269876 197.776303 37.619503 
Q 197.663834 38.969131 197.663834 39.643945 
Q 197.663834 41.930814 198.900993 43.599103 
Q 200.138152 45.267393 202.275062 45.267393 
Q 203.662179 45.154924 204.430717 43.917766 
Q 205.199255 42.680607 205.349214 41.237255 
Q 205.499172 39.793903 205.7616 37.9944 
Q 206.024028 36.194897 206.436414 35.370124 
Q 206.586372 35.070207 206.586372 35.670041 
Q 206.586372 36.269876 206.323945 38.706703 
Q 206.099007 41.031062 206.099007 41.555917 
Q 205.949048 42.643117 206.286455 43.767807 
Q 206.623862 44.892497 207.336166 45.6048 
" clip-path="url(#pf2c2d2d6f1)" style="fill: none; stroke: #000000; stroke-linejoin: miter"/>
   </g>
  </g>
  <g id="axes_14">
   <g id="patch_14">
    <path d="M 218.306359 28.621986 
Q 218.531297 30.34651 218.606276 32.146014 
Q 218.681255 33.945517 218.66251 36.551048 
Q 218.643766 39.156579 218.643766 40.093821 
Q 218.643766 40.13131 218.868703 45.829738 
L 219.093641 46.841959 
" clip-path="url(#p0174234580)" style="fill: none; stroke: #000000; stroke-linejoin: miter"/>
   </g>
  </g>
  <g id="axes_15">
   <g id="patch_15">
    <path d="M 230.063834 37.95691 
L 230.738648 37.95691 
Q 231.450952 37.95691 232.238234 37.881931 
Q 233.025517 37.806952 233.981503 37.675738 
Q 234.93749 37.544524 235.462345 37.507034 
L 239.736166 35.82 
M 235.687283 30.42149 
L 235.687283 31.43371 
Q 235.687283 33.383172 235.012469 37.207117 
Q 234.337655 41.031062 234.337655 43.018014 
Q 234.337655 43.805297 234.337655 44.105214 
Q 234.337655 44.405131 234.431379 45.042455 
Q 234.525103 45.679779 234.712552 45.960952 
Q 234.9 46.242124 235.293641 46.485807 
Q 235.687283 46.72949 236.249628 46.72949 
Q 236.362097 46.692 236.680759 46.72949 
Q 236.999421 46.766979 237.186869 46.710745 
Q 237.374317 46.65451 237.374317 46.392083 
" clip-path="url(#p828bdc3d71)" style="fill: none; stroke: #000000; stroke-linejoin: miter"/>
   </g>
  </g>
  <g id="axes_16">
   <g id="patch_16">
    <path d="M 246.657476 43.917766 
Q 246.957393 44.180193 247.969614 45.154924 
Q 248.981834 46.129655 249.544179 46.560786 
Q 250.106524 46.991917 251.13749 47.385559 
Q 252.168455 47.7792 253.180676 47.629241 
Q 253.85549 47.629241 254.32411 47.404303 
Q 254.792731 47.179366 255.017669 46.879448 
Q 255.242607 46.579531 255.373821 45.979697 
Q 255.505034 45.379862 255.523779 44.967476 
Q 255.542524 44.55509 255.542524 43.805297 
Q 255.542524 42.718097 254.642772 42.043283 
Q 253.743021 41.368469 252.449628 41.031062 
Q 251.156234 40.693655 249.862841 40.300014 
Q 248.569448 39.906372 247.669697 38.987876 
Q 246.769945 38.069379 246.769945 36.607283 
Q 246.769945 36.082428 246.938648 35.726276 
Q 247.107352 35.370124 247.500993 35.145186 
Q 247.894634 34.920248 248.175807 34.807779 
Q 248.456979 34.69531 249.113048 34.639076 
Q 249.769117 34.582841 249.956566 34.582841 
Q 250.144014 34.582841 250.818828 34.582841 
Q 252.018497 34.582841 252.599586 34.995228 
Q 253.180676 35.407614 253.499338 36.026193 
Q 253.818 36.644772 254.080428 36.832221 
" clip-path="url(#p06590db369)" style="fill: none; stroke: #000000; stroke-linejoin: miter"/>
   </g>
  </g>
 </g>
 <defs>
  <clipPath id="pe08518da3a">
   <rect x="2.738979" y="8.64" width="10.722041" height="54.36"/>
  </clipPath>
  <clipPath id="p8c40a00ec7">
   <rect x="16.2" y="8.881927" width="16.2" height="53.876147"/>
  </clipPath>
  <clipPath id="pcd24c8713e">
   <rect x="34.182993" y="8.64" width="12.634014" height="54.36"/>
  </clipPath>
  <clipPath id="p58ed22e356">
   <rect x="48.6" y="8.881927" width="16.2" height="53.876147"/>
  </clipPath>
  <clipPath id="pd3a9ecdfbb">
   <rect x="64.8" y="10.777356" width="16.2" height="50.085288"/>
  </clipPath>
  <clipPath id="pb36a204c47">
   <rect x="83.738979" y="8.64" width="10.722041" height="54.36"/>
  </clipPath>
  <clipPath id="p02207710cb">
   <rect x="97.2" y="11.850612" width="16.2" height="47.938776"/>
  </clipPath>
  <clipPath id="p95166962ee">
   <rect x="116.138979" y="8.64" width="10.722041" height="54.36"/>
  </clipPath>
  <clipPath id="p9cd60bd5fa">
   <rect x="148.538979" y="8.64" width="10.722041" height="54.36"/>
  </clipPath>
  <clipPath id="p474708fe03">
   <rect x="162" y="8.881927" width="16.2" height="53.876147"/>
  </clipPath>
  <clipPath id="pba2c852647">
   <rect x="179.982993" y="8.64" width="12.634014" height="54.36"/>
  </clipPath>
  <clipPath id="pf2c2d2d6f1">
   <rect x="195.789352" y="8.64" width="13.421297" height="54.36"/>
  </clipPath>
  <clipPath id="p0174234580">
   <rect x="216.431876" y="8.64" width="4.536248" height="54.36"/>
  </clipPath>
  <clipPath id="p828bdc3d71">
   <rect x="228.189352" y="8.64" width="13.421297" height="54.36"/>
  </clipPath>
  <clipPath id="p06590db369">
   <rect x="244.782993" y="8.64" width="12.634014" height="54.36"/>
  </clipPath>
 </defs>
</svg>
