<?xml version="1.0" encoding="utf-8" standalone="no"?>
<!DOCTYPE svg PUBLIC "-//W3C//DTD SVG 1.1//EN"
  "http://www.w3.org/Graphics/SVG/1.1/DTD/svg11.dtd">
<svg xmlns:xlink="http://www.w3.org/1999/xlink" width="283.5pt" height="162pt" viewBox="0 0 283.5 162" xmlns="http://www.w3.org/2000/svg" version="1.1">
 <metadata>
  <rdf:RDF xmlns:dc="http://purl.org/dc/elements/1.1/" xmlns:cc="http://creativecommons.org/ns#" xmlns:rdf="http://www.w3.org/1999/02/22-rdf-syntax-ns#">
   <cc:Work>
    <dc:type rdf:resource="http://purl.org/dc/dcmitype/StillImage"/>
    <dc:date>2023-02-15T23:07:21.662448</dc:date>
    <dc:format>image/svg+xml</dc:format>
    <dc:creator>
     <cc:Agent>
      <dc:title>Matplotlib v3.6.1, https://matplotlib.org/</dc:title>
     </cc:Agent>
    </dc:creator>
   </cc:Work>
  </rdf:RDF>
 </metadata>
 <defs>
  <style type="text/css">*{stroke-linejoin: round; stroke-linecap: butt}</style>
 </defs>
 <g id="figure_1">
  <g id="patch_1">
   <path d="M 0 162 
L 283.5 162 
L 283.5 0 
L 0 0 
z
" style="fill: #8fff9f"/>
  </g>
  <g id="axes_1">
   <g id="patch_2">
    <path d="M 20.651405 77.521553 
L 25.180695 81.080281 
M 28.415902 64.095444 
L 28.415902 65.874808 
Q 28.415902 70.296257 29.143824 79.193077 
Q 29.871746 88.089896 29.871746 92.565266 
Q 29.871746 93.104467 29.817825 93.158388 
Q 29.763905 93.212308 29.224704 93.212308 
Q 28.361982 93.212308 27.040939 92.592226 
Q 25.719896 91.972145 24.183173 91.028543 
Q 22.64645 90.084941 22.107249 89.81534 
L 19.519083 88.197737 
M 18.38676 73.315784 
L 19.033802 73.315784 
L 21.460207 73.315784 
L 33.753994 72.506982 
M 3.019527 74.609867 
Q 5.068491 76.712751 8.869859 82.266524 
Q 12.671228 87.820296 15.313314 90.138861 
M 2.696006 68.462973 
L 6.416494 68.462973 
Q 7.818417 68.355133 9.16642 68.436013 
Q 10.514423 68.516893 12.078107 68.355133 
Q 13.64179 68.193373 14.666272 67.654172 
Q 16.229956 69.325695 15.475074 72.587862 
Q 14.720192 75.85003 12.725148 79.408757 
Q 10.730104 82.967485 8.114978 86.121812 
Q 5.499852 89.276139 3.343047 90.785902 
" clip-path="url(#pbd45a724d4)" style="fill: none; stroke: #000000; stroke-linejoin: miter"/>
   </g>
  </g>
  <g id="axes_2">
   <g id="patch_3">
    <path d="M 39.507886 92.214966 
L 69.842114 89.585185 
M 53.32953 84.87604 
Q 55.347735 90.441393 54.980789 100.287785 
Q 54.797315 102.244832 54.185738 102.244832 
Q 53.696477 102.244832 52.045218 100.104312 
Q 50.271644 97.596846 49.293121 97.352215 
M 49.109648 80.839631 
L 49.84354 80.839631 
Q 50.516275 80.839631 52.840268 80.442106 
Q 55.164262 80.044581 57.182466 79.616477 
L 59.200671 79.188372 
Q 59.200671 79.983423 58.527936 81.175998 
Q 57.855201 82.368574 56.81552 83.775201 
Q 55.775839 85.181829 55.531208 85.609933 
L 54.613842 86.894245 
M 52.840268 66.773356 
Q 54.491527 67.751879 57.763465 71.176711 
Q 61.035403 74.601544 63.481711 75.580067 
L 67.885067 77.414799 
M 53.023742 66.956829 
L 52.656795 66.956829 
Q 51.98406 67.629564 50.088171 69.953557 
Q 48.192282 72.27755 46.693918 73.500705 
Q 45.195554 74.723859 43.299664 75.213121 
L 40.914513 76.680906 
L 39.630201 77.047852 
M 44.583977 68.057668 
Q 49.354279 66.956829 58.344463 66.222936 
Q 59.261829 66.039463 61.09656 65.733674 
Q 62.931292 65.427886 63.665185 65.30557 
M 53.390688 62.920419 
L 53.390688 77.047852 
" clip-path="url(#p1ae6942955)" style="fill: none; stroke: #000000; stroke-linejoin: miter"/>
   </g>
  </g>
  <g id="axes_3">
   <g id="patch_4">
    <path d="M 79.515707 100.060445 
Q 80.279058 99.869607 81.964791 99.869607 
Q 83.650524 99.869607 84.477487 99.67877 
L 101.843717 99.297094 
M 80.660733 93.190288 
L 81.042408 93.190288 
Q 83.07801 93.190288 85.590707 92.872225 
Q 88.103403 92.554162 91.252225 92.013455 
Q 94.401047 91.472749 95.927749 91.281911 
L 98.981152 91.091073 
M 81.233246 88.801021 
Q 83.586911 87.910445 88.739529 87.369738 
Q 93.892147 86.829031 96.309424 85.938455 
Q 96.563874 85.938455 97.263613 85.843037 
Q 97.963351 85.747618 98.217801 85.747618 
L 99.744503 85.747618 
Q 99.871728 85.747618 100.030759 85.461361 
Q 100.189791 85.175105 100.444241 85.175105 
Q 100.635079 85.175105 100.635079 86.892644 
Q 100.635079 86.956257 100.253403 93.571963 
L 99.299215 98.533743 
M 94.591885 80.086099 
Q 95.100785 80.276937 96.08678 80.913063 
Q 97.072775 81.549188 97.645288 81.803639 
L 99.17199 83.139503 
M 94.210209 75.760445 
L 94.97356 75.760445 
Q 95.355236 75.760445 96.150393 76.110314 
Q 96.94555 76.460183 97.867932 77.00089 
Q 98.790314 77.541597 98.981152 77.668822 
L 100.317016 79.195524 
M 81.614921 81.231126 
Q 81.869372 81.358351 82.887173 81.70822 
Q 83.904974 82.058089 84.477487 82.503377 
L 87.149215 83.839241 
M 81.996597 76.778246 
L 82.759948 76.778246 
L 86.958377 78.686623 
M 90.775131 66.091335 
L 90.965969 84.602592 
M 86.576702 66.663848 
L 95.546073 65.137147 
M 76.653141 74.297356 
Q 80.787958 73.279555 89.184817 72.516204 
Q 97.581675 71.752853 101.462042 70.862277 
Q 102.734293 70.544215 103.783901 70.576021 
Q 104.833508 70.607827 105.50144 70.92589 
Q 106.169372 71.243953 105.914921 72.229948 
Q 105.660471 73.215942 104.324607 74.679031 
L 103.561257 76.969084 
M 76.843979 71.18034 
L 76.080628 79.068298 
" clip-path="url(#p897eeff211)" style="fill: none; stroke: #000000; stroke-linejoin: miter"/>
   </g>
  </g>
  <g id="axes_4">
   <g id="patch_5">
    <path d="M 129.409108 90.020924 
Q 130.894968 89.603025 133.936338 89.603025 
Q 136.977707 89.603025 138.463567 89.185127 
L 142.363949 89.045828 
M 129.966306 79.294873 
L 130.662803 79.294873 
Q 132.334395 79.294873 137.906369 78.993057 
Q 143.478344 78.691242 143.478344 78.459076 
Q 143.478344 79.202006 143.083662 80.66465 
Q 142.688981 82.127293 142.108567 83.914968 
Q 141.528153 85.702643 141.388854 86.259841 
L 141.249554 89.881624 
M 129.827006 78.459076 
Q 130.616369 82.034427 130.523503 89.742325 
M 121.004713 81.755828 
Q 121.979809 82.359459 124.115732 83.195255 
Q 126.251656 84.031051 127.133885 84.541815 
M 120.586815 77.01965 
L 120.586815 77.576847 
Q 120.586815 79.10914 119.495637 80.780732 
Q 118.404459 82.452325 116.70965 84.332866 
Q 115.014841 86.213408 114.457643 87.049204 
L 113.06465 88.163599 
M 111.671656 79.666338 
L 111.950255 79.666338 
Q 114.132611 78.784108 116.872166 78.110828 
Q 119.61172 77.437548 121.561911 77.135732 
Q 123.512102 76.833917 126.855287 76.416019 
Q 130.198471 75.998121 131.730764 75.765955 
M 120.261783 70.426146 
L 120.540382 96.057229 
M 114.55051 71.261943 
L 114.829108 71.261943 
Q 116.407834 71.261943 118.427675 70.774395 
Q 120.447516 70.286847 122.885255 69.520701 
Q 125.322994 68.754554 126.390955 68.475955 
L 127.64465 67.918758 
" clip-path="url(#p4b4c4dc99f)" style="fill: none; stroke: #000000; stroke-linejoin: miter"/>
   </g>
  </g>
  <g id="axes_5">
   <g id="patch_6">
    <path d="M 164.189613 78.478548 
Q 168.563613 76.550226 170.021613 75.468484 
Q 172.702452 73.493129 175.007032 68.883968 
M 168.469548 80.877194 
Q 169.410194 81.958935 170.656548 84.24 
Q 171.902903 86.521065 173.407935 88.614 
Q 174.912968 90.706935 176.982387 92.117903 
L 179.898387 93.717 
M 158.733871 82.005968 
Q 161.226581 81.441581 166.470677 80.806645 
Q 171.714774 80.17171 174.254516 79.607323 
L 178.487419 78.995903 
M 163.578194 67.614097 
L 163.578194 68.460677 
Q 163.860387 71.517774 163.648742 81.206419 
Q 163.437097 90.895065 163.484129 93.952161 
Q 163.484129 95.033903 163.507645 95.668839 
Q 163.531161 96.303774 163.672258 96.680032 
Q 163.813355 97.05629 163.883903 97.173871 
Q 163.954452 97.291452 164.283677 97.103323 
Q 164.612903 96.915194 164.824548 96.703548 
Q 165.036194 96.491903 165.624097 95.904 
Q 166.212 95.316097 166.63529 94.939839 
L 167.058581 94.469516 
M 148.151613 85.580419 
Q 151.679032 84.451645 153.936581 83.08771 
Q 155.206452 82.335194 156.029516 82.241129 
Q 156.852581 82.147065 157.181806 82.711452 
Q 157.511032 83.275839 157.605097 84.051871 
Q 157.699161 84.827903 157.605097 86.00371 
Q 157.511032 87.179516 157.369935 88.120161 
Q 157.275871 88.684548 157.228839 88.990258 
Q 157.181806 89.295968 157.134774 89.742774 
Q 157.087742 90.189581 157.087742 90.518806 
Q 157.087742 90.848032 157.087742 91.130226 
Q 157.369935 97.761774 155.911935 97.573645 
L 153.466258 95.410161 
M 148.857097 77.443839 
Q 149.468516 77.396806 149.421484 78.149323 
Q 149.374452 78.807774 149.327419 79.866 
Q 149.280387 80.924226 149.233355 81.488613 
Q 149.186323 82.053 148.904129 83.20529 
Q 148.621935 84.357581 148.151613 85.862613 
M 148.716 77.161645 
Q 149.280387 76.973516 150.409161 76.597258 
Q 151.537935 76.221 152.102323 76.056387 
Q 152.66671 75.891774 153.630871 75.750677 
Q 154.595032 75.609581 155.535677 75.609581 
L 157.605097 74.904097 
M 149.13929 69.871645 
L 154.406903 68.319581 
Q 156.194129 68.178484 156.241161 68.178484 
L 157.369935 68.178484 
L 156.382258 75.18629 
" clip-path="url(#p15648d4949)" style="fill: none; stroke: #000000; stroke-linejoin: miter"/>
   </g>
  </g>
  <g id="axes_6">
   <g id="patch_7">
    <path d="M 199.780714 88.449107 
Q 200.127857 88.362321 200.561786 88.969821 
Q 200.995714 89.577321 201.473036 89.490536 
L 204.336964 90.792321 
M 194.443393 86.800179 
Q 197.307321 86.236071 200.323125 86.149286 
Q 203.338929 86.0625 205.486875 86.214375 
Q 207.634821 86.36625 210.628929 86.257768 
Q 213.623036 86.149286 216.530357 85.628571 
M 208.3725 83.892857 
L 208.112143 96.129643 
L 206.680179 94.26375 
M 211.496786 68.097857 
Q 212.060893 68.531786 213.037232 69.681696 
Q 214.013571 70.831607 214.490893 71.265536 
M 205.291607 67.23 
L 205.378393 84.804107 
M 200.77875 71.048571 
L 209.28375 70.57125 
M 201.429643 80.811964 
L 209.674286 80.161071 
M 201.38625 77.383929 
L 209.413929 76.863214 
M 198.34875 74.303036 
Q 200.214643 73.825714 202.384286 73.60875 
Q 204.553929 73.391786 207.244286 73.283304 
Q 209.934643 73.174821 211.366607 73.00125 
Q 211.366607 73.00125 213.058929 73.00125 
Q 213.189107 73.00125 213.189107 73.478571 
Q 213.189107 78.338571 212.191071 81.81 
L 211.540179 83.545714 
M 198.34875 73.478571 
L 198.34875 74.303036 
L 198.34875 76.516071 
L 198.999643 82.981607 
M 184.419643 78.381964 
Q 185.157321 77.86125 188.715536 77.470714 
L 195.745179 77.340536 
M 190.277679 68.358214 
L 190.277679 88.275536 
L 190.104107 95.912679 
" clip-path="url(#p32f55db972)" style="fill: none; stroke: #000000; stroke-linejoin: miter"/>
   </g>
  </g>
  <g id="axes_7">
   <g id="patch_8">
    <path d="M 241.72425 76.707 
Q 243.54675 77.193 247.19175 79.80525 
M 238.9905 68.87025 
Q 241.4205 69.0525 245.187 68.110875 
Q 248.9535 67.16925 250.29 67.04775 
Q 250.95825 67.04775 251.32275 67.199625 
Q 251.68725 67.3515 251.80875 67.746375 
Q 251.93025 68.14125 251.899875 68.536125 
Q 251.8695 68.931 251.80875 69.7815 
Q 251.748 70.632 251.748 71.2395 
Q 252.1125 78.165 250.83675 92.92725 
Q 250.83675 93.53475 250.83675 94.02075 
Q 250.83675 94.50675 250.806375 94.87125 
Q 250.776 95.23575 250.502625 95.448375 
Q 250.22925 95.661 249.561 95.661 
L 248.4675 95.661 
L 244.64025 93.1095 
M 241.9065 61.21575 
L 241.9065 61.7625 
Q 241.9065 63.099 241.299 64.86075 
Q 240.6915 66.6225 239.7195 68.688 
Q 238.7475 70.7535 238.44375 71.604 
L 237.35025 73.4265 
M 223.4385 93.474 
L 225.07875 93.474 
L 234.55575 92.92725 
M 223.4385 80.7165 
L 232.551 80.352 
M 221.7375 71.118 
L 224.83575 71.118 
Q 225.6255 71.118 228.11625 70.57125 
Q 230.607 70.0245 232.6725 69.47775 
Q 234.738 68.931 234.738 68.87025 
Q 234.738 86.5485 234.3735 92.016 
L 233.82675 96.0255 
M 222.4665 69.2955 
L 222.4665 69.84225 
Q 222.4665 72.63675 223.13475 77.891625 
Q 223.803 83.1465 223.803 86.00175 
L 223.803 92.016 
L 223.074 93.8385 
M 232.36875 62.67375 
Q 231.63975 63.15975 230.78925 64.6785 
Q 229.93875 66.19725 229.2705 66.68325 
L 227.8125 69.96375 
" clip-path="url(#p446be0c4e0)" style="fill: none; stroke: #000000; stroke-linejoin: miter"/>
   </g>
  </g>
 </g>
 <defs>
  <clipPath id="pbd45a724d4">
   <rect x="0" y="41.502914" width="36.45" height="78.184172"/>
  </clipPath>
  <clipPath id="p1ae6942955">
   <rect x="36.45" y="36.255654" width="36.45" height="88.678691"/>
  </clipPath>
  <clipPath id="p897eeff211">
   <rect x="72.9" y="34.47589" width="36.45" height="92.23822"/>
  </clipPath>
  <clipPath id="p4b4c4dc99f">
   <rect x="109.35" y="46.930987" width="36.45" height="67.328025"/>
  </clipPath>
  <clipPath id="p15648d4949">
   <rect x="145.8" y="46.496613" width="36.45" height="68.196774"/>
  </clipPath>
  <clipPath id="p32f55db972">
   <rect x="182.25" y="49.135179" width="36.45" height="62.919643"/>
  </clipPath>
  <clipPath id="p446be0c4e0">
   <rect x="218.7" y="36.55125" width="36.45" height="88.0875"/>
  </clipPath>
 </defs>
</svg>
