<?xml version="1.0" encoding="utf-8" standalone="no"?>
<!DOCTYPE svg PUBLIC "-//W3C//DTD SVG 1.1//EN"
  "http://www.w3.org/Graphics/SVG/1.1/DTD/svg11.dtd">
<svg xmlns:xlink="http://www.w3.org/1999/xlink" width="126pt" height="72pt" viewBox="0 0 126 72" xmlns="http://www.w3.org/2000/svg" version="1.1">
 <metadata>
  <rdf:RDF xmlns:dc="http://purl.org/dc/elements/1.1/" xmlns:cc="http://creativecommons.org/ns#" xmlns:rdf="http://www.w3.org/1999/02/22-rdf-syntax-ns#">
   <cc:Work>
    <dc:type rdf:resource="http://purl.org/dc/dcmitype/StillImage"/>
    <dc:date>2023-02-14T21:49:47.269353</dc:date>
    <dc:format>image/svg+xml</dc:format>
    <dc:creator>
     <cc:Agent>
      <dc:title>Matplotlib v3.6.1, https://matplotlib.org/</dc:title>
     </cc:Agent>
    </dc:creator>
   </cc:Work>
  </rdf:RDF>
 </metadata>
 <defs>
  <style type="text/css">*{stroke-linejoin: round; stroke-linecap: butt}</style>
 </defs>
 <g id="figure_1">
  <g id="patch_1">
   <path d="M 0 72 
L 126 72 
L 126 0 
L 0 0 
z
" style="fill: #8fff9f"/>
  </g>
  <g id="axes_1">
   <g id="patch_2">
    <path d="M 13.320226 34.858379 
Q 14.851696 34.252915 18.021482 34.057029 
Q 21.191269 33.861143 22.615892 33.433756 
L 26.569221 32.828291 
M 20.478957 27.592802 
Q 20.62142 28.127035 20.567996 29.818775 
Q 20.514573 31.510515 20.906344 32.080364 
L 21.013191 46.29098 
M 17.059862 28.447575 
Q 17.024246 28.803731 17.059862 29.195503 
Q 17.059862 31.22559 16.988631 32.472136 
Q 16.917399 33.718681 16.614667 35.392613 
Q 16.311935 37.066545 15.564008 38.437745 
Q 14.81608 39.808945 13.640766 40.948643 
L 12.465452 41.803417 
M 15.029774 28.661269 
L 15.457161 28.661269 
Q 16.34755 28.661269 17.344786 28.518807 
Q 18.342023 28.376344 19.57076 28.144843 
Q 20.799497 27.913342 21.440578 27.806495 
L 23.577513 27.592802 
M 4.879334 37.67201 
L 10.577827 37.458317 
L 11.325754 37.35147 
M 4.772487 32.721445 
L 9.936746 32.294058 
L 11.11206 32.080364 
L 10.577827 37.778857 
M 4.345101 33.041985 
Q 4.736872 33.220063 4.968373 33.825528 
Q 5.199874 34.430992 5.39576 35.321382 
Q 5.591646 36.211771 5.734108 36.603543 
M 6.802575 28.768116 
Q 4.736872 33.113216 2.956093 35.392613 
Q 2.778015 35.748769 2.33282 36.336426 
Q 1.887626 36.924083 1.780779 37.102161 
M 3.597173 28.874962 
L 5.199874 28.874962 
Q 8.512123 28.910578 11.290138 28.340729 
" clip-path="url(#p46a0716d98)" style="fill: none; stroke: #000000; stroke-linejoin: miter"/>
   </g>
  </g>
  <g id="axes_2">
   <g id="patch_3">
    <path d="M 34.895855 38.294317 
Q 35.795607 38.294317 37.520131 37.750717 
Q 39.244655 37.207117 40.069428 37.169628 
L 45.168021 35.932469 
Q 45.168021 37.169628 44.361993 40.037586 
Q 43.555966 42.905545 43.555966 44.330152 
Q 43.555966 44.855007 43.818393 45.229903 
Q 44.080821 45.6048 44.568186 45.829738 
Q 45.055552 46.054676 45.561662 46.18589 
Q 46.067772 46.317103 46.817566 46.354593 
Q 47.567359 46.392083 48.054724 46.392083 
Q 48.54209 46.392083 49.254393 46.373338 
Q 49.966697 46.354593 50.191634 46.354593 
Q 51.541262 46.617021 52.34729 45.304883 
Q 53.153317 43.992745 52.89089 42.643117 
M 40.181897 33.345683 
L 40.181897 33.795559 
Q 40.181897 35.295145 39.357124 37.319586 
Q 38.532352 39.344028 37.351428 41.612152 
Q 36.170503 43.880276 35.795607 44.892497 
L 34.783386 45.904717 
M 44.005841 31.771117 
Q 43.930862 31.621159 44.11831 31.658648 
Q 44.305759 31.658648 44.343248 31.658648 
Q 44.755634 31.846097 44.793124 31.883586 
L 47.154972 34.582841 
M 38.044986 31.43371 
Q 37.820048 31.696138 37.276448 32.202248 
Q 36.732848 32.708359 36.470421 33.008276 
L 34.558448 33.908028 
M 39.394614 25.922731 
Q 39.619552 25.847752 39.956959 26.07269 
Q 40.294366 26.297628 40.725497 26.672524 
Q 41.156628 27.047421 41.306586 27.15989 
Q 41.531524 27.1224 41.512779 27.309848 
Q 41.494034 27.497297 41.643993 27.609766 
M 32.346559 29.971614 
L 41.419055 29.746676 
L 48.842007 28.959393 
Q 49.254393 28.846924 49.291883 28.846924 
Q 49.479331 28.846924 49.498076 28.921903 
Q 49.516821 28.996883 49.516821 29.2968 
L 49.404352 29.971614 
L 48.729538 31.43371 
M 33.133841 28.059641 
L 31.896683 32.5584 
" clip-path="url(#pdc2cb2574b)" style="fill: none; stroke: #000000; stroke-linejoin: miter"/>
   </g>
  </g>
  <g id="axes_3">
   <g id="patch_4">
    <path d="M 62.653137 32.843431 
Q 62.580538 33.569424 62.798335 34.87621 
Q 63.016133 36.182996 62.979834 36.872689 
Q 62.979834 37.74388 62.943534 38.469872 
Q 62.907234 39.195864 62.870935 39.776658 
Q 62.834635 40.357452 62.671287 40.992695 
Q 62.507939 41.627939 62.471639 41.972785 
Q 62.435339 42.317631 62.144942 42.952875 
Q 61.854545 43.588118 61.763796 43.824065 
Q 61.673047 44.060013 61.255602 44.767855 
Q 60.838156 45.475698 60.711108 45.675346 
Q 60.584059 45.874994 60.021415 46.782484 
Q 59.458771 47.689974 59.277273 47.980371 
L 58.514981 48.851562 
M 72.163636 26.962894 
L 72.599232 26.962894 
Q 72.998528 26.962894 73.288924 27.144392 
Q 73.579321 27.32589 73.942318 27.652586 
Q 74.305314 27.979283 74.559411 28.160781 
L 75.720999 29.031972 
M 78.624968 35.348105 
Q 78.588668 35.7837 78.497919 36.219296 
Q 78.40717 36.654891 78.243822 37.126786 
Q 78.080474 37.598681 77.953425 37.961677 
Q 77.826376 38.324673 77.572279 38.851018 
Q 77.318182 39.377362 77.191133 39.649609 
Q 77.064085 39.921857 76.737388 40.484501 
Q 76.410691 41.047145 76.301793 41.264942 
Q 76.192894 41.48274 75.811748 42.099834 
Q 75.430602 42.716927 75.358003 42.862125 
L 73.397823 44.822305 
M 69.586364 25.220512 
L 70.89315 30.12096 
Q 71.074648 30.556556 72.072887 33.496825 
Q 73.071127 36.437093 73.906018 37.780179 
Q 74.269014 38.324673 75.5758 41.301242 
Q 76.882586 44.27781 78.225672 45.965743 
Q 79.568758 47.653675 81.23854 47.653675 
Q 82.18233 46.927682 82.454577 46.510237 
Q 82.726825 46.092791 83.235019 44.786005 
M 63.161332 39.159565 
L 65.557106 38.941767 
Q 65.883803 38.832868 66.845743 38.415423 
Q 67.807682 37.997977 68.642574 37.70758 
Q 69.477465 37.417183 70.021959 37.417183 
Q 70.312356 37.634981 70.076408 38.978067 
Q 69.840461 40.321152 70.021959 40.793047 
Q 70.421255 41.664238 70.257907 44.713406 
Q 70.094558 47.762574 69.368566 47.762574 
Q 69.223367 47.762574 69.150768 47.762574 
L 69.114469 47.762574 
Q 69.223367 47.726274 68.932971 47.653675 
L 66.972791 46.346889 
M 63.161332 32.516735 
Q 65.557106 31.718143 70.185307 31.264398 
Q 74.813508 30.810653 77.027785 30.15726 
" clip-path="url(#pd6cbde01ff)" style="fill: none; stroke: #000000; stroke-linejoin: miter"/>
   </g>
  </g>
  <g id="axes_4">
   <g id="patch_5">
    <path d="M 98.500459 37.417706 
Q 101.993119 41.579174 104.092431 42.898211 
Q 106.191743 44.217248 111.059174 45.331927 
M 98.054587 37.194771 
Q 96.754128 39.68422 95.063532 41.374817 
Q 93.372936 43.065413 89.991743 45.071835 
L 87.427982 46.372294 
M 86.907798 37.306239 
L 87.242202 37.306239 
Q 90.772018 37.306239 94.840596 37.139037 
Q 98.909174 36.971835 103.906651 36.693165 
Q 108.904128 36.414495 111.542202 36.303028 
M 98.054587 32.958991 
L 98.054587 49.010367 
M 98.054587 26.531009 
L 98.054587 31.992936 
M 93.930275 29.317706 
L 101.733028 29.206239 
M 93.112844 32.513119 
L 103.070642 32.290183 
M 91.738073 25.60211 
Q 92.592661 25.564954 94.580505 25.490642 
Q 96.568349 25.41633 97.850229 25.360596 
Q 99.13211 25.304862 100.822706 25.137661 
Q 102.513303 24.970459 103.73945 24.747523 
Q 103.813761 24.747523 103.850917 24.951881 
Q 103.888073 25.156239 103.850917 25.342018 
L 103.850917 25.527798 
Q 103.850917 25.564954 103.516514 28.425963 
L 102.959174 33.51633 
M 91.626606 24.933303 
L 91.626606 26.15945 
L 92.369725 28.537431 
L 92.889908 33.850734 
" clip-path="url(#pcd5bf4118e)" style="fill: none; stroke: #000000; stroke-linejoin: miter"/>
   </g>
  </g>
 </g>
 <defs>
  <clipPath id="p46a0716d98">
   <rect x="0" y="9.998706" width="28.35" height="51.642588"/>
  </clipPath>
  <clipPath id="pdc2cb2574b">
   <rect x="30.0222" y="8.64" width="25.0056" height="54.36"/>
  </clipPath>
  <clipPath id="pd6cbde01ff">
   <rect x="56.7" y="9.502778" width="28.35" height="52.634443"/>
  </clipPath>
  <clipPath id="pcd5bf4118e">
   <rect x="85.05" y="8.881927" width="28.35" height="53.876147"/>
  </clipPath>
 </defs>
</svg>
