<?xml version="1.0" encoding="utf-8" standalone="no"?>
<!DOCTYPE svg PUBLIC "-//W3C//DTD SVG 1.1//EN"
  "http://www.w3.org/Graphics/SVG/1.1/DTD/svg11.dtd">
<svg xmlns:xlink="http://www.w3.org/1999/xlink" width="270pt" height="72pt" viewBox="0 0 270 72" xmlns="http://www.w3.org/2000/svg" version="1.1">
 <metadata>
  <rdf:RDF xmlns:dc="http://purl.org/dc/elements/1.1/" xmlns:cc="http://creativecommons.org/ns#" xmlns:rdf="http://www.w3.org/1999/02/22-rdf-syntax-ns#">
   <cc:Work>
    <dc:type rdf:resource="http://purl.org/dc/dcmitype/StillImage"/>
    <dc:date>2023-02-15T23:07:26.014901</dc:date>
    <dc:format>image/svg+xml</dc:format>
    <dc:creator>
     <cc:Agent>
      <dc:title>Matplotlib v3.6.1, https://matplotlib.org/</dc:title>
     </cc:Agent>
    </dc:creator>
   </cc:Work>
  </rdf:RDF>
 </metadata>
 <defs>
  <style type="text/css">*{stroke-linejoin: round; stroke-linecap: butt}</style>
 </defs>
 <g id="figure_1">
  <g id="patch_1">
   <path d="M 0 72 
L 270 72 
L 270 0 
L 0 0 
z
" style="fill: #8fff9f"/>
  </g>
  <g id="axes_1">
   <g id="patch_2">
    <path d="M 2.963917 36.382345 
Q 2.926428 36.494814 3.057641 36.701007 
Q 3.188855 36.9072 3.076386 37.057159 
L 3.076386 39.306538 
Q 3.076386 40.506207 3.413793 41.724621 
Q 3.7512 42.943034 4.613462 43.93651 
Q 5.475724 44.929986 6.675393 44.929986 
Q 7.912552 44.929986 8.587366 43.861531 
Q 9.262179 42.793076 9.712055 41.143531 
Q 10.161931 39.493986 10.499338 38.969131 
L 11.286621 36.382345 
L 11.061683 42.680607 
L 11.061683 45.154924 
Q 11.061683 47.066897 11.792731 51.00331 
Q 12.523779 54.939724 12.523779 56.964166 
Q 13.273572 59.213545 12.186372 60.188276 
Q 11.099172 61.163007 9.037241 60.78811 
Q 7.237738 60.488193 6.319241 60.169531 
Q 5.400745 59.850869 3.413793 58.988607 
L 3.301324 58.426262 
" clip-path="url(#p5f8937844b)" style="fill: none; stroke: #000000; stroke-linejoin: miter"/>
   </g>
  </g>
  <g id="axes_2">
   <g id="patch_3">
    <path d="M 21.319572 33.795559 
L 21.319572 33.570621 
Q 21.319572 33.383172 21.375807 33.289448 
Q 21.432041 33.195724 21.507021 33.13949 
Q 21.582 33.083255 21.731959 32.989531 
Q 21.881917 32.895807 21.994386 32.783338 
L 26.155738 28.059641 
M 28.06771 37.619503 
L 24.918579 37.619503 
Q 24.80611 37.656993 24.543683 37.731972 
Q 21.319572 38.669214 20.419821 39.381517 
Q 18.882745 40.731145 18.845255 44.142703 
Q 18.845255 45.267393 19.707517 46.167145 
Q 20.569779 47.066897 21.656979 47.066897 
Q 22.519241 46.954428 23.306524 46.485807 
Q 24.093807 46.017186 24.599917 45.473586 
Q 25.106028 44.929986 25.649628 43.93651 
Q 26.193228 42.943034 26.4744 42.324455 
Q 26.755572 41.705876 27.205448 40.543697 
Q 27.655324 39.381517 27.842772 38.969131 
Q 28.180179 38.144359 28.292648 38.200593 
Q 28.405117 38.256828 28.292648 39.456497 
L 28.180179 40.993572 
Q 28.180179 41.031062 28.517586 44.705048 
L 29.754745 47.066897 
" clip-path="url(#p4002745f89)" style="fill: none; stroke: #000000; stroke-linejoin: miter"/>
   </g>
  </g>
  <g id="axes_3">
   <g id="patch_4">
    <path d="M 36.038731 37.282097 
L 36.038731 37.844441 
Q 36.301159 39.868883 36.338648 41.312234 
Q 36.376138 42.755586 36.282414 44.667559 
Q 36.18869 46.579531 36.18869 48.191586 
L 36.263669 39.643945 
Q 36.263669 38.144359 37.856979 37.507034 
Q 39.45029 36.86971 40.874897 37.282097 
Q 42.786869 37.844441 43.705366 39.04411 
Q 44.623862 40.243779 44.680097 41.668386 
Q 44.736331 43.092993 44.773821 44.817517 
Q 44.81131 46.542041 44.961269 48.191586 
" clip-path="url(#p5e571c49a0)" style="fill: none; stroke: #000000; stroke-linejoin: miter"/>
   </g>
  </g>
  <g id="axes_4">
   <g id="patch_5">
    <path d="M 57.056152 30.309021 
Q 56.568786 30.42149 56.981172 30.833876 
Q 57.356069 31.208772 57.431048 30.946345 
Q 57.468538 30.871366 57.393559 30.646428 
Q 57.393559 30.458979 57.318579 30.42149 
Q 57.2436 30.384 57.112386 30.42149 
Q 56.981172 30.458979 56.831214 30.42149 
L 56.718745 30.646428 
M 57.618497 33.345683 
Q 58.668207 37.731972 59.193062 40.13131 
Q 59.717917 42.530648 60.167793 46.317103 
Q 60.617669 50.103559 60.430221 53.25269 
Q 60.430221 53.440138 60.430221 54.021228 
Q 60.430221 54.602317 60.430221 54.902234 
Q 60.430221 55.202152 60.411476 55.783241 
Q 60.392731 56.364331 60.317752 56.701738 
Q 60.242772 57.039145 60.130303 57.52651 
Q 60.017834 58.013876 59.811641 58.313793 
Q 59.605448 58.61371 59.343021 58.894883 
Q 59.080593 59.176055 58.705697 59.307269 
Q 58.3308 59.438483 57.843434 59.438483 
Q 56.868703 59.438483 56.11891 59.251034 
Q 55.369117 59.063586 54.506855 58.707434 
Q 53.644593 58.351283 53.007269 58.201324 
L 52.782331 57.751448 
" clip-path="url(#p0eee7ee619)" style="fill: none; stroke: #000000; stroke-linejoin: miter"/>
   </g>
  </g>
  <g id="axes_5">
   <g id="patch_6">
    <path d="M 73.518579 29.071862 
Q 73.143683 29.146841 73.012469 29.577972 
Q 72.881255 30.009103 72.956234 30.42149 
Q 72.956234 30.571448 72.993724 30.702662 
Q 73.031214 30.833876 73.087448 30.89011 
Q 73.143683 30.946345 73.199917 31.040069 
Q 73.256152 31.133793 73.293641 31.208772 
L 73.40611 29.859145 
M 73.40611 34.020497 
Q 72.506359 39.006621 72.281421 42.793076 
L 72.731297 45.379862 
L 73.068703 46.054676 
" clip-path="url(#p3b188ec498)" style="fill: none; stroke: #000000; stroke-linejoin: miter"/>
   </g>
  </g>
  <g id="axes_6">
   <g id="patch_7">
    <path d="M 84.732455 35.182676 
L 92.042938 35.182676 
M 83.945172 39.456497 
Q 83.907683 39.943862 83.945172 41.143531 
Q 83.945172 42.30571 83.945172 42.755586 
Q 83.945172 43.205462 84.038897 44.198938 
Q 84.132621 45.192414 84.282579 45.6048 
Q 84.432538 46.017186 84.769945 46.692 
Q 85.107352 47.366814 85.594717 47.647986 
Q 86.082083 47.929159 86.831876 48.172841 
Q 87.581669 48.416524 88.5564 48.416524 
Q 92.792731 48.416524 92.792731 39.681434 
Q 92.792731 43.655338 93.617503 48.004138 
L 94.292317 48.229076 
" clip-path="url(#p2a122e7542)" style="fill: none; stroke: #000000; stroke-linejoin: miter"/>
   </g>
  </g>
  <g id="axes_7"/>
  <g id="axes_8">
   <g id="patch_8">
    <path d="M 126.756735 34.365306 
Q 126.756735 34.365306 126.260816 34.365306 
Q 125.467347 34.365306 123.979592 34.067755 
Q 122.491837 33.770204 121.698367 33.770204 
Q 118.921224 33.770204 116.987143 35.224898 
Q 115.053061 36.679592 115.053061 39.423673 
Q 115.053061 40.94449 116.540816 42.399184 
Q 118.028571 43.853878 119.962653 44.663878 
Q 121.896735 45.473878 123.38449 45.473878 
Q 124.310204 45.473878 125.00449 45.110204 
Q 125.698776 44.746531 126.442653 44.118367 
Q 127.186531 43.490204 127.748571 43.192653 
L 127.946939 42.696735 
" clip-path="url(#p74ac022c5c)" style="fill: none; stroke: #000000; stroke-linejoin: miter"/>
   </g>
  </g>
  <g id="axes_9">
   <g id="patch_9">
    <path d="M 134.213462 35.932469 
Q 134.813297 35.257655 135.806772 34.826524 
Q 136.800248 34.395393 137.7 34.470372 
Q 138.337324 34.470372 138.82469 34.639076 
Q 139.312055 34.807779 139.630717 34.995228 
Q 139.949379 35.182676 140.174317 35.670041 
Q 140.399255 36.157407 140.511724 36.419834 
Q 140.624193 36.682262 140.680428 37.375821 
Q 140.736662 38.069379 140.755407 38.331807 
Q 140.774152 38.594234 140.755407 39.419007 
Q 140.736662 40.243779 140.736662 40.431228 
Q 140.736662 41.368469 140.567959 43.242952 
Q 140.399255 45.117434 140.399255 46.054676 
Q 140.399255 46.467062 140.45549 46.823214 
Q 140.511724 47.179366 140.605448 47.610497 
Q 140.699172 48.041628 140.736662 48.304055 
L 141.186538 48.528993 
M 134.663338 23.111007 
Q 134.888276 24.798041 134.888276 29.971614 
L 134.888276 42.3432 
L 134.550869 46.841959 
L 134.325931 47.74171 
" clip-path="url(#p49df73f74b)" style="fill: none; stroke: #000000; stroke-linejoin: miter"/>
   </g>
  </g>
  <g id="axes_10">
   <g id="patch_10">
    <path d="M 150.6384 34.357903 
Q 150.900828 34.395393 151.238234 33.795559 
Q 151.575641 33.195724 152.100497 33.345683 
L 156.599255 29.2968 
M 149.738648 40.656166 
L 149.963586 40.656166 
Q 150.67589 40.656166 152.23171 41.330979 
Q 153.787531 42.005793 154.687283 42.005793 
Q 157.386538 42.005793 157.386538 38.744193 
Q 157.386538 36.607283 154.012469 36.607283 
Q 152.137986 36.607283 151.050786 37.750717 
Q 149.963586 38.894152 149.963586 40.768634 
Q 149.963586 43.617848 151.294469 45.454841 
Q 152.625352 47.291834 155.362097 47.291834 
Q 156.824193 47.591752 158.061352 45.6048 
" clip-path="url(#p0e2348d54f)" style="fill: none; stroke: #000000; stroke-linejoin: miter"/>
   </g>
  </g>
  <g id="axes_11">
   <g id="patch_11">
    <path d="M 165.638731 37.282097 
L 165.638731 37.844441 
Q 165.901159 39.868883 165.938648 41.312234 
Q 165.976138 42.755586 165.882414 44.667559 
Q 165.78869 46.579531 165.78869 48.191586 
L 165.863669 39.643945 
Q 165.863669 38.144359 167.456979 37.507034 
Q 169.05029 36.86971 170.474897 37.282097 
Q 172.386869 37.844441 173.305366 39.04411 
Q 174.223862 40.243779 174.280097 41.668386 
Q 174.336331 43.092993 174.373821 44.817517 
Q 174.41131 46.542041 174.561269 48.191586 
" clip-path="url(#pf1bc688403)" style="fill: none; stroke: #000000; stroke-linejoin: miter"/>
   </g>
  </g>
  <g id="axes_12">
   <g id="patch_12">
    <path d="M 191.087191 39.096404 
Q 190.83236 39.023596 189.86764 38.623146 
Q 188.902921 38.222697 188.24764 38.077079 
Q 187.59236 37.931461 186.937079 38.00427 
Q 184.315955 38.00427 182.677753 40.388764 
Q 181.039551 42.773258 181.039551 45.430787 
Q 181.039551 47.068989 186.281798 47.068989 
Q 187.847191 47.068989 189.175955 45.558202 
Q 190.504719 44.047416 191.178202 42.172584 
Q 191.851685 40.297753 191.851685 38.768764 
Q 191.851685 37.27618 191.815281 36.984944 
L 191.742472 38.077079 
Q 191.742472 38.550337 191.742472 38.987191 
Q 191.778876 40.188539 191.979101 42.281798 
Q 192.179326 44.375056 192.343146 46.049663 
Q 192.506966 47.72427 192.543371 49.872135 
Q 192.579775 52.02 192.415955 53.658202 
Q 192.252135 55.296404 191.687865 56.971011 
Q 191.123596 58.645618 190.195281 59.737753 
Q 189.266966 60.829888 187.665169 61.521573 
Q 186.063371 62.213258 183.915506 62.213258 
Q 182.277303 62.213258 181.185169 61.466966 
Q 180.093034 60.720674 180.093034 59.155281 
Q 180.020225 58.936854 180.056629 58.936854 
Q 180.093034 58.936854 180.202247 58.936854 
Q 180.311461 58.936854 180.311461 58.82764 
" clip-path="url(#pfad9f72ba5)" style="fill: none; stroke: #000000; stroke-linejoin: miter"/>
   </g>
  </g>
  <g id="axes_13">
   <g id="patch_13">
    <path d="M 207.287191 39.096404 
Q 207.03236 39.023596 206.06764 38.623146 
Q 205.102921 38.222697 204.44764 38.077079 
Q 203.79236 37.931461 203.137079 38.00427 
Q 200.515955 38.00427 198.877753 40.388764 
Q 197.239551 42.773258 197.239551 45.430787 
Q 197.239551 47.068989 202.481798 47.068989 
Q 204.047191 47.068989 205.375955 45.558202 
Q 206.704719 44.047416 207.378202 42.172584 
Q 208.051685 40.297753 208.051685 38.768764 
Q 208.051685 37.27618 208.015281 36.984944 
L 207.942472 38.077079 
Q 207.942472 38.550337 207.942472 38.987191 
Q 207.978876 40.188539 208.179101 42.281798 
Q 208.379326 44.375056 208.543146 46.049663 
Q 208.706966 47.72427 208.743371 49.872135 
Q 208.779775 52.02 208.615955 53.658202 
Q 208.452135 55.296404 207.887865 56.971011 
Q 207.323596 58.645618 206.395281 59.737753 
Q 205.466966 60.829888 203.865169 61.521573 
Q 202.263371 62.213258 200.115506 62.213258 
Q 198.477303 62.213258 197.385169 61.466966 
Q 196.293034 60.720674 196.293034 59.155281 
Q 196.220225 58.936854 196.256629 58.936854 
Q 196.293034 58.936854 196.402247 58.936854 
Q 196.511461 58.936854 196.511461 58.82764 
" clip-path="url(#p42b038b0cb)" style="fill: none; stroke: #000000; stroke-linejoin: miter"/>
   </g>
  </g>
  <g id="axes_14">
   <g id="patch_14">
    <path d="M 214.088772 35.145186 
Q 214.088772 35.145186 214.088772 35.595062 
Q 214.088772 36.269876 213.976303 37.619503 
Q 213.863834 38.969131 213.863834 39.643945 
Q 213.863834 41.930814 215.100993 43.599103 
Q 216.338152 45.267393 218.475062 45.267393 
Q 219.862179 45.154924 220.630717 43.917766 
Q 221.399255 42.680607 221.549214 41.237255 
Q 221.699172 39.793903 221.9616 37.9944 
Q 222.224028 36.194897 222.636414 35.370124 
Q 222.786372 35.070207 222.786372 35.670041 
Q 222.786372 36.269876 222.523945 38.706703 
Q 222.299007 41.031062 222.299007 41.555917 
Q 222.149048 42.643117 222.486455 43.767807 
Q 222.823862 44.892497 223.536166 45.6048 
" clip-path="url(#p4d13ea196c)" style="fill: none; stroke: #000000; stroke-linejoin: miter"/>
   </g>
  </g>
  <g id="axes_15">
   <g id="patch_15">
    <path d="M 230.232538 32.220993 
Q 232.107021 36.119917 234.843766 36.044938 
Q 235.256152 36.082428 235.612303 35.85749 
Q 235.968455 35.632552 236.174648 35.370124 
Q 236.380841 35.107697 236.549545 34.601586 
Q 236.718248 34.095476 236.793228 33.814303 
Q 236.868207 33.533131 236.980676 32.970786 
Q 237.093145 32.408441 237.093145 32.333462 
M 237.618 38.519255 
Q 236.455821 38.144359 234.018993 38.181848 
Q 231.919572 38.181848 230.607434 39.344028 
Q 229.295297 40.506207 229.295297 42.568138 
Q 229.295297 45.117434 231.357228 46.766979 
Q 233.419159 48.416524 236.043434 48.416524 
Q 237.955407 48.416524 239.023862 47.291834 
Q 240.092317 46.167145 240.092317 44.255172 
Q 240.504703 42.155752 239.342524 40.318759 
Q 238.180345 38.481766 236.155903 37.844441 
" clip-path="url(#p90f7b0efaa)" style="fill: none; stroke: #000000; stroke-linejoin: miter"/>
   </g>
  </g>
 </g>
 <defs>
  <clipPath id="p5f8937844b">
   <rect x="1.051945" y="8.64" width="14.09611" height="54.36"/>
  </clipPath>
  <clipPath id="p4002745f89">
   <rect x="16.970772" y="8.64" width="14.658455" height="54.36"/>
  </clipPath>
  <clipPath id="p5e571c49a0">
   <rect x="34.164248" y="8.64" width="12.671503" height="54.36"/>
  </clipPath>
  <clipPath id="p0eee7ee619">
   <rect x="50.907848" y="8.64" width="11.584303" height="54.36"/>
  </clipPath>
  <clipPath id="p3b188ec498">
   <rect x="70.406938" y="8.64" width="4.986124" height="54.36"/>
  </clipPath>
  <clipPath id="p2a122e7542">
   <rect x="82.0332" y="8.64" width="14.1336" height="54.36"/>
  </clipPath>
  <clipPath id="p74ac022c5c">
   <rect x="113.4" y="11.850612" width="16.2" height="47.938776"/>
  </clipPath>
  <clipPath id="p49df73f74b">
   <rect x="132.338979" y="8.64" width="10.722041" height="54.36"/>
  </clipPath>
  <clipPath id="p0e2348d54f">
   <rect x="147.864166" y="8.64" width="12.071669" height="54.36"/>
  </clipPath>
  <clipPath id="pf1bc688403">
   <rect x="163.764248" y="8.64" width="12.671503" height="54.36"/>
  </clipPath>
  <clipPath id="pfad9f72ba5">
   <rect x="178.2" y="9.426742" width="16.2" height="52.786517"/>
  </clipPath>
  <clipPath id="p42b038b0cb">
   <rect x="194.4" y="9.426742" width="16.2" height="52.786517"/>
  </clipPath>
  <clipPath id="p4d13ea196c">
   <rect x="211.989352" y="8.64" width="13.421297" height="54.36"/>
  </clipPath>
  <clipPath id="p90f7b0efaa">
   <rect x="227.420814" y="8.64" width="14.958372" height="54.36"/>
  </clipPath>
 </defs>
</svg>
