<?xml version="1.0" encoding="utf-8" standalone="no"?>
<!DOCTYPE svg PUBLIC "-//W3C//DTD SVG 1.1//EN"
  "http://www.w3.org/Graphics/SVG/1.1/DTD/svg11.dtd">
<svg xmlns:xlink="http://www.w3.org/1999/xlink" width="157.5pt" height="72pt" viewBox="0 0 157.5 72" xmlns="http://www.w3.org/2000/svg" version="1.1">
 <metadata>
  <rdf:RDF xmlns:dc="http://purl.org/dc/elements/1.1/" xmlns:cc="http://creativecommons.org/ns#" xmlns:rdf="http://www.w3.org/1999/02/22-rdf-syntax-ns#">
   <cc:Work>
    <dc:type rdf:resource="http://purl.org/dc/dcmitype/StillImage"/>
    <dc:date>2023-02-14T21:49:49.497491</dc:date>
    <dc:format>image/svg+xml</dc:format>
    <dc:creator>
     <cc:Agent>
      <dc:title>Matplotlib v3.6.1, https://matplotlib.org/</dc:title>
     </cc:Agent>
    </dc:creator>
   </cc:Work>
  </rdf:RDF>
 </metadata>
 <defs>
  <style type="text/css">*{stroke-linejoin: round; stroke-linecap: butt}</style>
 </defs>
 <g id="figure_1">
  <g id="patch_1">
   <path d="M 0 72 
L 157.5 72 
L 157.5 0 
L 0 0 
z
" style="fill: #8fff9f"/>
  </g>
  <g id="axes_1">
   <g id="patch_2">
    <path d="M 9.322454 38.39411 
Q 9.635521 39.228957 9.652914 40.602975 
Q 9.670307 41.976994 9.565951 43.124908 
Q 9.461595 44.272822 9.565951 45.525092 
L 9.565951 48.029632 
Q 12.940123 46.464294 13.84454 46.046871 
L 14.366319 45.525092 
M 15.75773 41.420429 
L 16.070798 41.420429 
Q 16.41865 41.107362 17.67092 40.046411 
Q 18.92319 38.98546 19.723252 38.254969 
M 10.400798 37.385337 
Q 11.93135 38.359325 14.418497 40.289908 
Q 16.905644 42.220491 19.097117 43.559724 
Q 21.288589 44.898957 23.967055 45.803374 
L 26.610736 46.325153 
M 11.026933 36.237423 
Q 9.635521 37.941902 5.809141 40.516012 
L 1.739264 43.229264 
M 13.079264 25.14092 
L 13.079264 36.237423 
M 4.382945 36.341779 
L 4.696012 36.341779 
Q 6.504847 36.341779 8.591963 36.133067 
Q 10.67908 35.924356 13.18362 35.576503 
Q 15.68816 35.22865 17.079571 35.089509 
L 22.540859 34.428589 
M 8.348466 32.828466 
Q 9.148528 32.341472 11.113896 32.289294 
Q 13.079264 32.237117 13.809755 31.924049 
L 16.870859 31.47184 
M 6.643988 29.802147 
Q 6.99184 29.732577 8.226718 29.576043 
Q 9.461595 29.419509 10.08773 29.176012 
L 18.227485 28.515092 
" clip-path="url(#p345c01a2c3)" style="fill: none; stroke: #000000; stroke-linejoin: miter"/>
   </g>
  </g>
  <g id="axes_2">
   <g id="patch_3">
    <path d="M 49.14228 37.974463 
Q 49.347467 37.940265 49.621049 38.213848 
L 49.860434 38.487431 
L 52.562063 41.565235 
M 36.523281 37.87187 
Q 34.129433 39.650157 32.316948 40.744487 
M 42.473703 33.049976 
L 42.473703 33.973317 
Q 41.994934 38.145452 42.200121 45.805766 
Q 42.234318 47.413064 41.652955 47.515657 
Q 41.071592 47.618251 39.943064 46.113546 
L 39.22491 45.805766 
M 30.059891 34.178504 
Q 31.359409 34.110109 40.438932 33.357756 
Q 49.518456 32.605404 54.990109 32.605404 
M 37.17304 27.851906 
L 38.404162 27.851906 
Q 39.464294 27.851906 40.592823 27.749312 
Q 41.721351 27.646719 43.106363 27.47573 
Q 44.491375 27.304741 45.277925 27.236345 
L 47.740169 27.133752 
" clip-path="url(#p2ba08b9665)" style="fill: none; stroke: #000000; stroke-linejoin: miter"/>
   </g>
  </g>
  <g id="axes_3">
   <g id="patch_4">
    <path d="M 70.993266 37.002658 
Q 72.142133 37.779833 73.409267 39.080757 
Q 74.6764 40.381681 75.740793 41.615024 
Q 76.805185 42.848367 77.954052 44.031025 
Q 79.10292 45.213683 80.488319 46.092229 
Q 81.873719 46.970775 83.360489 47.241097 
M 78.190584 32.84646 
Q 78.460906 33.353313 78.291955 34.36702 
Q 77.852682 36.867497 77.007926 38.844225 
Q 76.16317 40.820954 74.203337 42.949738 
Q 72.243504 45.078522 69.236174 46.632872 
M 73.020679 32.643719 
L 81.738558 31.866544 
M 74.946722 27.473814 
L 74.946722 27.777926 
L 74.946722 28.588892 
L 72.209714 34.873874 
L 71.5677 35.88758 
M 59.166687 43.659333 
L 64.336591 43.456591 
M 58.997735 39.672086 
L 62.106436 39.570715 
L 64.269011 39.503135 
L 64.032479 43.456591 
M 58.794994 39.570715 
L 58.794994 39.976198 
Q 58.963945 40.584422 58.87947 41.716395 
Q 58.794994 42.848367 59.065316 43.456591 
M 62.241597 35.177986 
L 65.823361 34.772503 
L 68.154887 34.468391 
L 68.154887 40.145149 
Q 68.154887 44.673039 66.465375 46.835614 
Q 65.823361 47.646579 65.502354 47.680369 
Q 65.181347 47.71416 64.843445 47.190411 
Q 64.505542 46.666663 64.336591 46.531502 
M 62.140226 33.251943 
L 62.140226 33.657426 
Q 62.140226 33.961538 62.072646 34.282545 
Q 62.005066 34.603552 61.8868 34.992139 
Q 61.768534 35.380727 61.734744 35.583468 
L 60.822408 37.104029 
M 67.039809 27.000751 
L 67.039809 28.014458 
L 66.532956 32.272026 
M 61.058939 26.696639 
Q 61.12652 26.86559 61.515107 28.183409 
Q 61.903695 29.501228 62.275387 30.143242 
L 62.883611 31.663802 
M 58.389511 29.83913 
L 59.842491 29.83913 
Q 59.876281 29.83913 67.039809 29.737759 
L 71.094636 29.568808 
" clip-path="url(#pd60dc6fd3c)" style="fill: none; stroke: #000000; stroke-linejoin: miter"/>
   </g>
  </g>
  <g id="axes_4">
   <g id="patch_5">
    <path d="M 98.751514 35.287328 
L 99.106628 35.287328 
Q 99.550522 35.287328 100.245955 35.242938 
Q 100.941388 35.198549 101.118946 35.198549 
L 104.818058 34.784248 
L 104.462944 40.8212 
L 103.30882 39.755856 
M 98.751514 35.376106 
L 98.751514 35.731221 
L 98.751514 36.619008 
L 99.106628 40.347714 
M 101.385282 31.469843 
L 101.503653 44.520313 
L 101.326096 46.562223 
M 98.189248 32.091294 
Q 98.958664 31.706587 100.586273 31.469843 
Q 102.213883 31.2331 102.805741 31.02595 
L 104.758873 30.937171 
M 95.940188 28.924854 
L 96.117745 28.924854 
Q 97.745355 28.924854 101.503653 28.392182 
Q 105.261952 27.859509 106.830376 27.859509 
Q 107.096712 27.859509 107.096712 27.948288 
L 107.096712 29.723862 
Q 107.096712 35.435292 107.392641 38.098653 
Q 108.191649 45.496879 110.943789 45.970365 
L 111.298904 45.970365 
L 111.920355 45.171357 
M 96.117745 28.924854 
Q 96.591232 31.381065 96.47286 34.961806 
Q 96.47286 36.293486 96.162135 37.565981 
Q 95.851409 38.838476 95.303941 40.347714 
Q 94.756472 41.856952 94.519729 42.774332 
L 92.655376 45.260136 
M 89.992015 33.245418 
L 89.992015 42.65596 
L 89.814457 46.295887 
M 92.477818 27.56358 
L 92.477818 27.829916 
Q 92.477818 31.02595 87.683768 35.82 
L 86.529645 36.619008 
" clip-path="url(#p1511d46e0a)" style="fill: none; stroke: #000000; stroke-linejoin: miter"/>
   </g>
  </g>
  <g id="axes_5">
   <g id="patch_6">
    <path d="M 128.043621 42.043283 
Q 128.043621 42.043283 127.256338 42.043283 
Q 126.244117 42.043283 125.625538 42.811821 
Q 125.006959 43.580359 125.006959 44.630069 
Q 124.969469 45.679779 125.700517 46.260869 
Q 126.431566 46.841959 127.481276 46.65451 
Q 127.781193 46.617021 128.268559 46.579531 
Q 128.755924 46.542041 129.018352 46.504552 
Q 129.280779 46.467062 129.599441 46.317103 
Q 129.918103 46.167145 130.049317 45.810993 
Q 130.180531 45.454841 130.180531 44.855007 
Q 130.180531 44.592579 130.068062 44.330152 
Q 129.955593 44.067724 129.768145 43.749062 
Q 129.580697 43.4304 129.505717 43.280441 
L 128.381028 42.605628 
" clip-path="url(#pab47fbcef1)" style="fill: none; stroke: #000000; stroke-linejoin: miter"/>
   </g>
  </g>
 </g>
 <defs>
  <clipPath id="p345c01a2c3">
   <rect x="0" y="10.600675" width="28.35" height="50.43865"/>
  </clipPath>
  <clipPath id="p2ba08b9665">
   <rect x="28.35" y="11.026574" width="28.35" height="49.586852"/>
  </clipPath>
  <clipPath id="pd60dc6fd3c">
   <rect x="56.7" y="11.322086" width="28.35" height="48.995828"/>
  </clipPath>
  <clipPath id="p1511d46e0a">
   <rect x="85.05" y="14.365146" width="28.35" height="42.909708"/>
  </clipPath>
  <clipPath id="pab47fbcef1">
   <rect x="123.094986" y="8.64" width="8.960028" height="54.36"/>
  </clipPath>
 </defs>
</svg>
