<?xml version="1.0" encoding="utf-8" standalone="no"?>
<!DOCTYPE svg PUBLIC "-//W3C//DTD SVG 1.1//EN"
  "http://www.w3.org/Graphics/SVG/1.1/DTD/svg11.dtd">
<svg xmlns:xlink="http://www.w3.org/1999/xlink" width="252pt" height="72pt" viewBox="0 0 252 72" xmlns="http://www.w3.org/2000/svg" version="1.1">
 <metadata>
  <rdf:RDF xmlns:dc="http://purl.org/dc/elements/1.1/" xmlns:cc="http://creativecommons.org/ns#" xmlns:rdf="http://www.w3.org/1999/02/22-rdf-syntax-ns#">
   <cc:Work>
    <dc:type rdf:resource="http://purl.org/dc/dcmitype/StillImage"/>
    <dc:date>2023-02-14T21:49:40.904786</dc:date>
    <dc:format>image/svg+xml</dc:format>
    <dc:creator>
     <cc:Agent>
      <dc:title>Matplotlib v3.6.1, https://matplotlib.org/</dc:title>
     </cc:Agent>
    </dc:creator>
   </cc:Work>
  </rdf:RDF>
 </metadata>
 <defs>
  <style type="text/css">*{stroke-linejoin: round; stroke-linecap: butt}</style>
 </defs>
 <g id="figure_1">
  <g id="patch_1">
   <path d="M 0 72 
L 252 72 
L 252 0 
L 0 0 
z
" style="fill: #8fff9f"/>
  </g>
  <g id="axes_1">
   <g id="patch_2">
    <path d="M 9.151386 41.256 
L 9.151386 41.593407 
Q 9.151386 42.38069 8.364103 43.46789 
Q 7.576821 44.55509 6.433386 45.754759 
Q 5.289952 46.954428 4.990034 47.329324 
L 2.403248 49.241297 
M 6.339662 38.331807 
Q 5.927276 39.456497 5.627359 39.925117 
Q 5.327441 40.393738 4.577648 41.068552 
Q 3.827855 41.743366 3.303 42.3432 
L 2.290779 43.018014 
M 18.036434 42.793076 
Q 20.998117 40.581186 22.83511 38.369297 
M 13.762614 40.656166 
L 13.987552 40.656166 
Q 14.399938 40.656166 15.112241 41.031062 
Q 15.824545 41.405959 16.668062 41.930814 
Q 17.511579 42.455669 17.699028 42.568138 
L 26.359138 48.678952 
M 13.537676 38.069379 
L 13.537676 38.519255 
Q 13.537676 40.093821 13.762614 42.905545 
Q 13.987552 45.717269 13.987552 47.329324 
Q 14.100021 47.591752 13.968807 48.510248 
Q 13.837593 49.428745 14.21249 49.578703 
M 9.713731 39.194069 
Q 13.837593 37.919421 17.361621 37.394566 
L 18.711248 37.394566 
M 14.324959 28.959393 
Q 16.274421 29.671697 19.948407 31.883586 
Q 23.622393 34.095476 25.234448 34.807779 
M 15.187221 26.147669 
L 22.160297 25.697793 
L 22.160297 25.922731 
Q 21.7854 27.609766 21.148076 28.940648 
Q 20.510752 30.271531 20.079621 30.871366 
Q 19.64849 31.4712 18.336352 33.120745 
L 15.412159 35.482593 
L 14.175 36.044938 
M 6.377152 30.908855 
L 6.752048 30.908855 
Q 7.126945 30.908855 7.389372 30.815131 
Q 7.6518 30.721407 7.914228 30.683917 
L 10.501014 30.458979 
M 6.039745 27.984662 
L 9.151386 27.534786 
Q 9.301345 27.572276 9.507538 27.422317 
Q 9.713731 27.272359 9.8262 27.309848 
M 1.990862 34.845269 
L 2.553207 34.845269 
L 3.790366 34.657821 
L 5.027524 34.507862 
L 13.987552 33.158234 
L 14.549897 33.045766 
M 11.063359 24.948 
L 10.95089 36.832221 
M 6.264683 25.397876 
L 6.264683 34.057986 
M 3.452959 25.397876 
L 9.376324 24.835531 
L 12.525455 24.610593 
L 14.100021 24.498124 
" clip-path="url(#p3aa3e7f9d3)" style="fill: none; stroke: #000000; stroke-linejoin: miter"/>
   </g>
  </g>
  <g id="axes_2">
   <g id="patch_3">
    <path d="M 44.268261 44.448261 
Q 44.268261 44.448261 44.796522 44.448261 
L 47.437826 44.448261 
L 50.07913 44.131304 
M 44.268261 41.701304 
L 49.867826 40.996957 
M 44.585217 38.531739 
L 44.796522 38.531739 
Q 48.318261 37.44 50.607391 37.475217 
Q 50.853913 37.475217 51.206087 37.475217 
Q 51.734348 37.44 51.804783 37.58087 
Q 51.875217 37.721739 51.875217 38.637391 
Q 51.875217 39.130435 51.875217 39.482609 
L 51.875217 45.082174 
Q 51.875217 45.575217 52.033696 46.561304 
Q 52.192174 47.547391 52.192174 48.040435 
L 52.156957 48.392609 
L 52.121739 48.392609 
Q 51.98087 48.322174 51.875217 48.463043 
L 50.290435 47.195217 
M 44.796522 38.637391 
L 44.796522 40.222174 
Q 44.796522 41.208261 44.69087 42.211957 
Q 44.585217 43.215652 44.40913 44.430652 
Q 44.233043 45.645652 44.162609 46.35 
L 43.74 47.406522 
M 47.226522 25.219565 
L 47.226522 26.487391 
Q 47.226522 27.156522 47.226522 27.543913 
L 47.226522 27.57913 
Q 47.261739 27.015652 47.437826 28.706087 
L 47.543478 35.784783 
M 41.908696 36.348261 
L 42.331304 36.348261 
Q 44.585217 36.348261 49.163478 35.643913 
Q 53.741739 34.939565 54.93913 34.833913 
M 44.268261 32.403913 
L 50.818696 32.086957 
M 44.162609 29.34 
L 49.762174 29.445652 
M 39.408261 29.058261 
L 37.40087 31.91087 
M 30.11087 28.53 
Q 30.286957 28.459565 30.445435 28.67087 
Q 30.603913 28.882174 30.744783 28.846957 
L 32.646522 30.431739 
M 35.710435 38.883913 
Q 36.59087 39.130435 36.555652 39.20087 
L 39.513913 40.891304 
M 35.710435 35.714348 
Q 35.287826 36.172174 35.058913 37.44 
Q 34.83 38.707826 34.653913 39.095217 
Q 34.301739 39.87 33.826304 40.53913 
Q 33.35087 41.208261 32.699348 41.965435 
Q 32.047826 42.722609 31.695652 43.215652 
L 30.744783 43.849565 
M 30.850435 35.925652 
L 31.061739 35.925652 
Q 31.942174 35.925652 33.033913 35.784783 
Q 34.125652 35.643913 35.446304 35.397391 
Q 36.766957 35.15087 37.40087 35.080435 
L 40.570435 34.974783 
M 35.393478 25.466087 
L 35.393478 27.473478 
Q 35.393478 28.67087 35.463913 29.991522 
Q 35.534348 31.312174 35.657609 32.914565 
Q 35.78087 34.516957 35.816087 35.397391 
L 35.710435 48.815217 
" clip-path="url(#pe18b9910e8)" style="fill: none; stroke: #000000; stroke-linejoin: miter"/>
   </g>
  </g>
  <g id="axes_3">
   <g id="patch_4">
    <path d="M 75.373759 43.242952 
Q 75.486228 43.46789 75.72991 43.974 
Q 75.973593 44.48011 76.123552 44.780028 
Q 76.27351 45.079945 76.423469 45.529821 
Q 76.573428 45.979697 76.610917 46.392083 
L 77.3982 48.304055 
M 69.300434 38.969131 
L 69.300434 39.194069 
Q 68.7006 40.393738 67.257248 42.436924 
Q 65.813897 44.48011 65.588959 44.817517 
Q 64.38929 46.692 64.239331 46.841959 
L 72.899441 45.829738 
L 76.385979 45.379862 
M 63.452048 39.868883 
Q 65.963855 39.0816 71.193662 38.912897 
Q 76.423469 38.744193 77.3982 38.631724 
L 78.297952 38.294317 
M 67.725869 35.707531 
Q 67.838338 35.670041 68.19449 35.613807 
Q 68.550641 35.557572 68.73809 35.482593 
L 72.562034 35.032717 
M 69.525372 26.859972 
Q 74.661455 33.045766 79.197703 34.807779 
L 80.097455 35.482593 
M 70.012738 25.022979 
Q 69.712821 25.660303 68.831814 27.62851 
Q 67.950807 29.596717 67.238503 30.852621 
Q 66.5262 32.108524 65.588959 33.233214 
L 63.002172 35.707531 
L 61.652545 36.269876 
" clip-path="url(#p9ecac937b4)" style="fill: none; stroke: #000000; stroke-linejoin: miter"/>
   </g>
  </g>
  <g id="axes_4">
   <g id="patch_5">
    <path d="M 105.597248 24.375963 
L 105.597248 49.419083 
M 102.364679 34.705321 
Q 104.148165 34.222294 106.934862 34.25945 
L 108.272477 34.25945 
L 108.941284 34.482385 
M 101.027064 39.275505 
L 110.055963 39.275505 
M 100.098165 29.726422 
L 111.542202 29.094771 
L 111.542202 30.20945 
L 111.542202 31.992936 
L 110.613303 39.164037 
M 100.061009 29.949358 
L 100.804128 38.829633 
M 95.416514 35.968624 
L 98.128899 38.606697 
M 93.33578 36.451651 
L 93.224312 47.59844 
M 94.561927 25.899358 
L 97.38578 27.794312 
M 86.907798 31.101193 
L 87.35367 31.101193 
Q 88.765596 31.175505 91.106422 30.655321 
Q 93.447248 30.135138 94.338991 30.060826 
L 97.125688 30.060826 
Q 96.754128 31.324128 96.215367 32.383073 
Q 95.676606 33.442018 95.175 34.16656 
Q 94.673394 34.891101 93.725917 35.82 
Q 92.77844 36.748899 92.109633 37.306239 
Q 91.440826 37.863578 89.973165 39.071147 
Q 88.505505 40.278716 87.53945 41.096147 
" clip-path="url(#pbae1d0671e)" style="fill: none; stroke: #000000; stroke-linejoin: miter"/>
   </g>
  </g>
  <g id="axes_5">
   <g id="patch_6">
    <path d="M 130.621963 27.109661 
Q 130.588843 27.308376 130.621963 27.507091 
Q 130.621963 27.54021 130.920035 29.991028 
L 130.72132 40.820993 
M 123.567582 36.482383 
Q 123.567582 36.482383 124.064369 36.482383 
Q 125.521612 36.482383 127.326606 35.853119 
Q 129.1316 35.223855 130.539165 34.478674 
Q 131.946729 33.733493 133.668925 33.104229 
Q 135.391121 32.474965 136.749007 32.474965 
Q 135.755432 37.277243 135.755432 38.734486 
Q 135.85479 39.396869 135.424241 39.396869 
Q 135.126168 39.36375 134.26507 38.866963 
Q 133.503329 38.469533 133.271495 38.436414 
M 126.448949 32.27625 
L 126.647664 39.032558 
L 127.310047 42.178879 
Q 127.409404 42.311355 127.608119 42.675666 
Q 127.806834 43.039977 128.022109 43.30493 
Q 128.237383 43.569883 128.502336 43.70236 
Q 129.197839 44.166028 130.092056 44.381303 
Q 130.986273 44.596577 132.178563 44.695935 
Q 133.370853 44.795292 134.000117 44.927769 
Q 134.960572 45.126484 136.053505 45.060245 
Q 137.146437 44.994007 138.040654 44.762173 
Q 138.934871 44.530339 139.514457 43.785158 
Q 140.094042 43.039977 140.060923 41.847687 
M 115.055958 42.443832 
L 115.453388 42.443832 
Q 116.54632 42.443832 117.705491 42.1292 
Q 118.864661 41.814568 120.222547 41.284661 
Q 121.580432 40.754755 122.309054 40.55604 
L 123.898773 39.959895 
M 115.917056 36.283668 
Q 116.612558 36.151192 118.732185 35.339772 
Q 120.851811 34.528353 122.07722 34.495234 
M 119.69264 29.825432 
L 119.69264 41.152185 
" clip-path="url(#pb225ae7518)" style="fill: none; stroke: #000000; stroke-linejoin: miter"/>
   </g>
  </g>
  <g id="axes_6">
   <g id="patch_7">
    <path d="M 161.27027 33.448378 
L 161.598649 46.401081 
L 161.635135 48.809189 
M 155.25 34.105135 
Q 157.475676 33.557838 161.854054 33.430135 
Q 166.232432 33.302432 168.275676 32.901081 
M 155.031081 26.442973 
Q 156.490541 25.895676 159.756081 25.512568 
Q 163.021622 25.129459 164.225676 24.801081 
M 154.921622 25.895676 
L 154.921622 26.333514 
Q 154.921622 27.209189 155.085811 28.997027 
Q 155.25 30.784865 155.25 31.697027 
Q 155.25 36.184865 154.210135 38.921351 
Q 153.17027 41.657838 150.652703 44.102432 
L 150.105405 44.321351 
M 143.902703 35.82 
Q 144.085135 35.710541 144.595946 35.710541 
Q 145.106757 35.710541 145.216216 35.491622 
L 151.674324 35.163243 
M 143.902703 28.376757 
Q 145.216216 28.011892 147.825 27.975405 
Q 150.433784 27.938919 151.564865 27.72 
Q 151.966216 27.574054 152.258108 27.610541 
Q 152.55 27.647027 152.55 28.157838 
L 152.55 28.814595 
L 150.798649 35.053784 
L 150.689189 35.491622 
M 143.574324 28.157838 
Q 143.82973 28.267297 143.793243 28.869324 
Q 143.756757 29.471351 144.012162 29.69027 
L 144.121622 35.710541 
" clip-path="url(#p5dfb48805c)" style="fill: none; stroke: #000000; stroke-linejoin: miter"/>
   </g>
  </g>
  <g id="axes_7">
   <g id="patch_8">
    <path d="M 179.791997 43.624417 
Q 181.062484 43.40662 184.147951 43.261421 
Q 187.233419 43.116223 188.939501 42.789526 
L 190.028489 42.571729 
M 180.300192 39.63146 
L 180.953585 39.63146 
L 189.447695 39.413662 
M 179.320102 46.492087 
Q 179.320102 46.492087 179.864597 46.492087 
L 187.051921 46.492087 
L 188.794302 46.746184 
M 179.429001 36.001498 
Q 179.429001 36.001498 180.082394 36.001498 
Q 181.933675 36.001498 185.690685 35.511453 
Q 189.447695 35.021408 191.298976 35.021408 
Q 191.516773 35.021408 191.516773 35.348105 
Q 191.117478 38.723969 191.063028 40.357452 
Q 191.008579 41.990935 191.081178 45.403099 
Q 191.081178 45.584597 191.117478 46.056492 
Q 191.335275 48.524866 190.645583 48.561165 
Q 190.282586 48.597465 189.665493 48.052971 
L 189.0121 47.617375 
M 179.864597 36.654891 
Q 179.864597 36.691191 180.100544 37.181236 
Q 180.336492 37.67128 180.300192 37.961677 
L 180.191293 46.492087 
L 180.082394 47.472177 
M 182.587068 28.814174 
Q 182.550768 29.140871 182.587068 29.467567 
Q 182.587068 31.681844 181.46178 33.877971 
Q 180.336492 36.074097 178.920807 37.562382 
Q 177.505122 39.050666 175.653841 41.028995 
Q 173.802561 43.007324 172.89507 44.386709 
L 171.914981 44.931204 
M 173.729962 33.787222 
L 188.758003 32.698233 
L 196.635019 32.335237 
M 177.795519 31.318848 
L 178.448912 31.318848 
Q 179.719398 31.318848 181.225832 31.173649 
Q 182.732266 31.028451 184.565397 30.792503 
Q 186.398528 30.556556 187.378617 30.447657 
L 189.0121 30.12096 
M 176.053137 29.685365 
L 176.488732 29.685365 
Q 177.65032 29.685365 179.301953 29.394968 
Q 180.953585 29.104571 182.986364 28.650826 
Q 185.019142 28.197081 185.854033 28.051882 
L 190.86338 27.725186 
M 186.289629 25.365711 
Q 186.071831 25.547209 185.708835 25.928355 
Q 185.345839 26.309501 185.309539 26.3458 
L 184.039052 27.434789 
M 178.267414 25.510909 
L 180.735787 27.725186 
" clip-path="url(#pded582975c)" style="fill: none; stroke: #000000; stroke-linejoin: miter"/>
   </g>
  </g>
  <g id="axes_8">
   <g id="patch_9">
    <path d="M 211.162903 36.94469 
Q 211.200393 37.019669 211.462821 37.263352 
Q 211.725248 37.507034 211.837717 37.619503 
Q 211.950186 37.731972 212.193869 38.013145 
Q 212.437552 38.294317 212.58751 38.463021 
Q 212.737469 38.631724 212.962407 38.931641 
Q 213.187345 39.231559 213.318559 39.437752 
Q 213.449772 39.643945 213.599731 39.943862 
Q 213.74969 40.243779 213.843414 40.487462 
Q 213.937138 40.731145 214.012117 41.012317 
Q 214.087097 41.29349 214.087097 41.555917 
Q 214.087097 42.118262 213.937138 42.605628 
Q 213.787179 43.092993 213.506007 43.636593 
Q 213.224834 44.180193 213.074876 44.592579 
L 211.950186 45.717269 
" clip-path="url(#p1c7118b812)" style="fill: none; stroke: #000000; stroke-linejoin: miter"/>
   </g>
  </g>
 </g>
 <defs>
  <clipPath id="p3aa3e7f9d3">
   <rect x="0.116379" y="8.64" width="28.117241" height="54.36"/>
  </clipPath>
  <clipPath id="pe18b9910e8">
   <rect x="28.35" y="10.287391" width="28.35" height="51.065217"/>
  </clipPath>
  <clipPath id="p9ecac937b4">
   <rect x="59.778062" y="8.64" width="22.193876" height="54.36"/>
  </clipPath>
  <clipPath id="pbae1d0671e">
   <rect x="85.05" y="8.881927" width="28.35" height="53.876147"/>
  </clipPath>
  <clipPath id="pb225ae7518">
   <rect x="113.4" y="11.80861" width="28.35" height="48.02278"/>
  </clipPath>
  <clipPath id="p5dfb48805c">
   <rect x="141.75" y="9.367297" width="28.35" height="52.905405"/>
  </clipPath>
  <clipPath id="pded582975c">
   <rect x="170.1" y="9.502778" width="28.35" height="52.634443"/>
  </clipPath>
  <clipPath id="p1c7118b812">
   <rect x="209.288421" y="8.64" width="6.673159" height="54.36"/>
  </clipPath>
 </defs>
</svg>
