<?xml version="1.0" encoding="utf-8" standalone="no"?>
<!DOCTYPE svg PUBLIC "-//W3C//DTD SVG 1.1//EN"
  "http://www.w3.org/Graphics/SVG/1.1/DTD/svg11.dtd">
<svg xmlns:xlink="http://www.w3.org/1999/xlink" width="315pt" height="72pt" viewBox="0 0 315 72" xmlns="http://www.w3.org/2000/svg" version="1.1">
 <metadata>
  <rdf:RDF xmlns:dc="http://purl.org/dc/elements/1.1/" xmlns:cc="http://creativecommons.org/ns#" xmlns:rdf="http://www.w3.org/1999/02/22-rdf-syntax-ns#">
   <cc:Work>
    <dc:type rdf:resource="http://purl.org/dc/dcmitype/StillImage"/>
    <dc:date>2023-02-14T21:57:36.050284</dc:date>
    <dc:format>image/svg+xml</dc:format>
    <dc:creator>
     <cc:Agent>
      <dc:title>Matplotlib v3.6.1, https://matplotlib.org/</dc:title>
     </cc:Agent>
    </dc:creator>
   </cc:Work>
  </rdf:RDF>
 </metadata>
 <defs>
  <style type="text/css">*{stroke-linejoin: round; stroke-linecap: butt}</style>
 </defs>
 <g id="figure_1">
  <g id="patch_1">
   <path d="M 0 72 
L 315 72 
L 315 0 
L 0 0 
z
" style="fill: #8fff9f"/>
  </g>
  <g id="axes_1">
   <g id="patch_2">
    <path d="M 23.183094 41.870719 
L 26.65036 45.745899 
M 13.699101 42.856511 
Q 14.378957 43.230432 15.296763 44.352194 
Q 16.214568 45.473957 16.656475 45.813885 
M 5.880755 44.42018 
Q 11.115647 47.581511 20.565647 48.193381 
Q 21.007554 48.193381 22.265288 47.972428 
Q 23.523022 47.751475 23.523022 47.479532 
Q 23.523022 47.071619 23.030126 46.54473 
Q 22.53723 46.017842 21.857374 45.524946 
Q 21.177518 45.03205 21.07554 44.930072 
L 20.667626 44.726115 
M 4.351079 42.958489 
L 4.351079 43.264424 
Q 4.351079 43.842302 4.045144 44.539155 
Q 3.739209 45.236007 3.263309 46.051835 
Q 2.78741 46.867662 2.617446 47.241583 
L 1.69964 48.159388 
M 13.903058 25.52018 
L 13.903058 41.63277 
M 6.866547 39.661187 
Q 7.070504 39.559209 7.563399 39.559209 
Q 8.056295 39.559209 8.294245 39.355252 
L 19.919784 39.355252 
L 21.041547 39.253273 
M 6.458633 35.684029 
Q 8.226259 35.276115 10.282824 35.004173 
Q 12.339388 34.73223 15.279766 34.494281 
Q 18.220144 34.256331 19.205935 34.154353 
L 22.163309 34.154353 
Q 22.333273 34.154353 22.35027 34.188345 
Q 22.367266 34.222338 22.367266 34.324317 
Q 22.367266 34.426295 22.367266 34.460288 
Q 22.367266 35.276115 21.959353 36.720809 
Q 21.551439 38.165504 21.551439 38.84536 
Q 21.551439 38.879353 21.44946 39.355252 
L 21.245504 39.763165 
M 6.254676 35.58205 
L 7.070504 39.45723 
M 7.784353 33.100576 
L 20.225719 32.216763 
L 20.83759 32.114784 
M 8.090288 28.885468 
Q 8.36223 28.851475 9.823921 28.613525 
Q 11.285612 28.375576 11.761511 28.290594 
Q 12.23741 28.205612 13.461151 28.035647 
Q 14.684892 27.865683 15.398741 27.797698 
Q 16.11259 27.729712 17.115378 27.661727 
Q 18.118165 27.593741 19.001978 27.593741 
Q 19.171942 27.593741 19.494874 27.559748 
Q 19.817806 27.525755 19.98777 27.525755 
Q 20.157734 27.525755 20.361691 27.576745 
Q 20.565647 27.627734 20.650629 27.780701 
Q 20.735612 27.933669 20.735612 28.205612 
Q 20.633633 28.647518 20.565647 30.160198 
Q 20.497662 31.672878 20.123741 32.114784 
M 8.396223 28.885468 
L 8.396223 32.79464 
" clip-path="url(#pecd35dc487)" style="fill: none; stroke: #000000; stroke-linejoin: miter"/>
   </g>
  </g>
  <g id="axes_2">
   <g id="patch_3">
    <path d="M 37.838793 40.918593 
L 48.523345 40.918593 
M 38.963483 35.520083 
L 47.173717 35.520083 
M 39.863234 30.683917 
Q 41.47529 30.496469 43.780903 30.477724 
Q 46.086517 30.458979 47.473634 30.34651 
Q 48.035979 30.309021 48.335897 30.646428 
Q 48.635814 30.983834 48.692048 31.602414 
Q 48.748283 32.220993 48.710793 32.820828 
Q 48.673303 33.420662 48.579579 34.15171 
Q 48.485855 34.882759 48.485855 35.182676 
Q 48.485855 37.132138 48.767028 41.031062 
Q 49.0482 44.929986 49.0482 46.879448 
Q 49.0482 47.404303 48.935731 47.591752 
Q 48.823262 47.7792 48.617069 47.704221 
Q 48.410876 47.629241 48.167193 47.460538 
Q 47.92351 47.291834 47.567359 47.141876 
Q 47.211207 46.991917 46.91129 46.991917 
L 43.762159 44.967476 
M 39.638297 31.133793 
Q 39.600807 31.208772 39.619552 31.414966 
Q 39.638297 31.621159 39.638297 31.696138 
Q 39.638297 33.68309 39.244655 35.726276 
Q 38.851014 37.769462 38.194945 40.20629 
Q 37.538876 42.643117 37.276448 44.067724 
L 36.376697 45.529821 
M 42.075124 21.798869 
Q 40.950434 27.572276 36.339207 33.158234 
L 31.727979 37.094648 
M 31.952917 26.972441 
Q 34.127317 26.522566 36.751593 26.297628 
Q 39.375869 26.07269 41.231607 26.053945 
Q 43.087345 26.0352 46.217731 26.053945 
Q 49.348117 26.07269 50.847703 26.07269 
Q 51.634986 26.07269 53.322021 25.847752 
" clip-path="url(#pe7e667c986)" style="fill: none; stroke: #000000; stroke-linejoin: miter"/>
   </g>
  </g>
  <g id="axes_3">
   <g id="patch_4">
    <path d="M 59.932895 27.826579 
Q 62.846053 30.242368 63.343421 30.704211 
M 58.476316 45.802895 
L 58.476316 45.483158 
Q 58.476316 44.950263 59.630921 44.541711 
Q 60.785526 44.133158 61.531579 44.133158 
Q 61.851316 44.097632 61.940132 44.150921 
Q 62.028947 44.204211 62.153289 44.310789 
Q 62.277632 44.417368 62.597368 44.452895 
Q 65.830263 45.731842 69.951316 46.477895 
Q 70.661842 46.62 71.851974 46.850921 
Q 73.042105 47.081842 73.592763 47.170658 
Q 74.143421 47.259474 75.120395 47.348289 
Q 76.097368 47.437105 77.198684 47.437105 
Q 78.051316 47.437105 78.868421 47.259474 
Q 79.685526 47.081842 80.6625 46.797632 
Q 81.639474 46.513421 82.207895 46.371316 
L 83.273684 45.731842 
M 58.938158 34.363421 
L 59.364474 34.363421 
Q 60.288158 34.505526 63.023684 33.368684 
Q 64.267105 32.871316 64.302632 33.084474 
Q 64.338158 33.368684 63.023684 34.754211 
Q 61.851316 35.997632 61.851316 37.312105 
Q 61.851316 37.738421 62.188816 38.058158 
Q 62.526316 38.377895 62.917105 38.537763 
Q 63.307895 38.697632 63.645395 39.070658 
Q 63.982895 39.443684 63.982895 39.976579 
Q 63.982895 40.047632 64.089474 40.260789 
Q 64.196053 40.473947 64.196053 40.616053 
L 64.196053 40.935789 
L 62.810526 44.452895 
M 72.296053 41.113421 
Q 72.757895 41.397632 73.432895 41.966053 
Q 74.107895 42.534474 74.285526 42.889737 
L 76.417105 43.848947 
M 72.828947 37.809474 
Q 72.793421 38.235789 72.828947 38.981842 
Q 72.828947 40.331842 72.420395 41.148947 
Q 72.011842 41.966053 71.265789 42.783158 
Q 70.519737 43.600263 70.164474 44.310789 
L 69.525 44.417368 
M 70.484211 36.637105 
L 74.321053 36.601579 
Q 74.427632 36.566053 74.658553 36.477237 
Q 74.889474 36.388421 75.084868 36.335132 
Q 75.280263 36.281842 75.493421 36.281842 
Q 75.528947 36.281842 75.564474 36.281842 
Q 75.813158 36.281842 75.866447 36.335132 
Q 75.919737 36.388421 75.919737 36.708158 
Q 75.919737 36.743684 75.6 39.798947 
L 75.173684 40.971316 
M 70.057895 36.530526 
Q 70.022368 37.063421 70.271053 37.17 
L 70.590789 41.22 
M 67.5 35.358158 
Q 68.814474 34.789737 71.709868 34.612105 
Q 74.605263 34.434474 75.813158 34.079211 
L 79.330263 33.972632 
M 72.544737 26.547632 
Q 72.686842 26.476579 72.686842 26.618684 
Q 72.686842 26.725263 72.580263 27.045 
Q 72.331579 28.004211 72.615789 28.075263 
L 72.722368 34.931842 
M 70.271053 33.297632 
Q 70.448684 33.226579 70.928289 33.191053 
Q 71.407895 33.155526 71.656579 32.977895 
L 76.878947 32.658158 
M 69.418421 29.958158 
L 69.951316 29.958158 
Q 70.484211 29.958158 71.105921 29.869342 
Q 71.727632 29.780526 72.491447 29.638421 
Q 73.255263 29.496316 73.681579 29.425263 
L 76.239474 29.638421 
L 75.813158 32.551579 
L 75.493421 32.977895 
M 69.525 29.958158 
L 69.525 30.277895 
Q 69.560526 31.556842 69.844737 31.983158 
Q 69.986842 32.480526 70.164474 32.622632 
Q 70.235526 32.658158 70.377632 32.764737 
" clip-path="url(#p541d4eadf8)" style="fill: none; stroke: #000000; stroke-linejoin: miter"/>
   </g>
  </g>
  <g id="axes_4">
   <g id="patch_5">
    <path d="M 96.132103 34.920248 
Q 98.868848 34.020497 104.679745 33.570621 
L 109.51591 32.5584 
M 97.256793 30.42149 
Q 97.256793 30.42149 97.819138 30.42149 
Q 98.606421 30.42149 99.487428 30.252786 
Q 100.368434 30.084083 101.43689 29.80291 
Q 102.505345 29.521738 103.105179 29.409269 
L 105.129621 29.184331 
M 100.480903 43.39291 
L 100.705841 43.39291 
Q 101.530614 43.917766 103.405097 45.473586 
Q 105.279579 47.029407 106.891634 47.7792 
M 98.156545 40.881103 
L 98.71889 40.881103 
Q 102.467855 40.506207 105.841924 39.606455 
Q 106.704186 39.306538 106.985359 39.381517 
Q 107.266531 39.456497 107.154062 39.737669 
Q 107.041593 40.018841 106.404269 40.843614 
L 103.892462 44.48011 
L 103.330117 45.154924 
M 101.868021 25.810262 
L 100.743331 34.920248 
Q 100.405924 37.469545 100.405924 37.507034 
L 99.656131 40.243779 
L 99.431193 41.593407 
M 92.420628 31.883586 
Q 92.383138 31.996055 92.401883 32.502166 
Q 92.420628 33.008276 92.420628 33.120745 
Q 92.420628 35.032717 92.551841 37.282097 
Q 92.683055 39.531476 92.907993 42.211986 
Q 93.132931 44.892497 93.20791 46.167145 
L 93.095441 47.404303 
M 95.232352 26.597545 
Q 93.995193 29.709186 91.633345 32.783338 
L 88.93409 34.69531 
" clip-path="url(#pf266967747)" style="fill: none; stroke: #000000; stroke-linejoin: miter"/>
   </g>
  </g>
  <g id="axes_5">
   <g id="patch_6">
    <path d="M 130.549547 39.896231 
Q 131.504339 40.667409 133.524093 43.293089 
Q 135.543847 45.918769 136.718977 46.763394 
L 139.142681 47.975246 
M 124.380117 40.116567 
L 124.710622 40.226736 
Q 124.747345 40.226736 127.905505 39.896231 
L 139.91386 37.803031 
M 131.210557 33.616632 
Q 131.173834 33.653355 131.192196 33.947137 
Q 131.210557 34.24092 131.210557 34.277642 
Q 131.210557 36.187228 130.733161 38.060091 
Q 130.255764 39.932953 129.466224 42.11796 
Q 128.676684 44.302966 128.346179 45.624987 
L 125.812306 48.930039 
M 128.125842 33.836969 
L 129.007189 33.836969 
L 132.863083 33.836969 
L 136.278303 32.735285 
M 129.227526 31.523433 
Q 128.897021 31.964106 128.291095 33.488102 
Q 127.685168 35.012098 127.024158 35.599663 
L 126.252979 36.150505 
M 129.447863 25.023497 
L 129.888536 25.023497 
Q 129.961982 25.023497 130.237403 25.262196 
Q 130.512824 25.500894 130.843329 25.84976 
Q 131.173834 26.198627 131.210557 26.23535 
L 132.202073 27.667539 
M 123.608938 29.870907 
Q 124.673899 29.466956 126.216256 29.228258 
Q 127.758614 28.98956 128.786852 28.952837 
Q 129.815091 28.916114 131.871567 28.897753 
Q 133.928044 28.879391 134.515609 28.879391 
L 139.91386 28.218381 
M 123.719106 29.540402 
Q 123.535492 29.503679 123.480408 29.632209 
Q 123.425324 29.760738 123.480408 29.925991 
Q 123.535492 30.091244 123.553854 30.238135 
Q 123.572215 30.385026 123.498769 30.421749 
L 123.498769 31.853938 
Q 123.498769 34.681593 122.654145 37.39908 
Q 121.809521 40.116567 120.35897 43.256367 
Q 118.90842 46.396166 118.320855 48.269028 
L 117.219171 49.370712 
M 115.23614 42.319935 
Q 117.182448 41.658925 117.219171 41.658925 
Q 117.916904 41.512034 118.688083 41.19989 
Q 119.459262 40.887746 120.579307 40.300181 
Q 121.699352 39.712617 121.956412 39.565725 
L 122.837759 39.345389 
M 117.219171 32.074275 
L 117.439508 32.074275 
Q 120.046826 32.772008 122.06658 35.489495 
" clip-path="url(#p83eb216402)" style="fill: none; stroke: #000000; stroke-linejoin: miter"/>
   </g>
  </g>
  <g id="axes_6">
   <g id="patch_7">
    <path d="M 153.104464 34.699018 
L 164.603571 34.373571 
Q 164.712054 34.373571 165.579911 34.30125 
Q 166.447768 34.228929 167.207143 34.174687 
Q 167.966518 34.120446 167.966518 34.084286 
Q 167.966518 35.530714 167.803795 38.767098 
Q 167.641071 42.003482 167.641071 43.703036 
Q 167.641071 44.42625 167.749554 45.908839 
Q 167.858036 47.391429 167.858036 48.042321 
Q 166.990179 47.608393 166.773214 47.499911 
L 164.603571 45.764196 
M 153.104464 34.590536 
L 153.104464 45.981161 
M 159.107143 36.651696 
Q 159.360268 36.868661 160.716295 38.152366 
Q 162.072321 39.436071 162.904018 40.014643 
L 163.663393 40.774018 
M 159.721875 31.553036 
Q 158.203125 37.989643 156.720536 39.580714 
L 155.852679 40.231607 
M 154.623214 31.986964 
L 163.952679 30.142768 
L 164.929018 30.034286 
M 156.358929 25.261071 
Q 156.9375 25.550357 157.877679 26.345893 
L 158.637054 27.322232 
M 149.741518 28.840982 
L 150.175446 28.840982 
Q 152.200446 28.840982 154.605134 28.479375 
Q 157.009821 28.117768 159.95692 27.503036 
Q 162.904018 26.888304 164.386607 26.671339 
L 168.291964 26.562857 
M 149.741518 28.190089 
Q 149.705357 28.334732 149.741518 28.515536 
Q 149.741518 29.853482 150.066964 32.457054 
Q 150.392411 35.060625 150.392411 36.434732 
Q 150.392411 38.423571 149.83192 40.35817 
Q 149.271429 42.292768 148.34933 44.552813 
Q 147.427232 46.812857 147.029464 48.150804 
L 146.487054 48.801696 
M 143.558036 41.207946 
Q 144.823661 40.014643 147.897321 38.387411 
L 148.222768 38.061964 
M 144.751339 30.142768 
Q 145.366071 30.829821 146.613616 31.968884 
Q 147.861161 33.107946 148.33125 33.614196 
" clip-path="url(#pc5a9cc6e18)" style="fill: none; stroke: #000000; stroke-linejoin: miter"/>
   </g>
  </g>
  <g id="axes_7">
   <g id="patch_8">
    <path d="M 187.236683 33.420662 
Q 188.361372 33.720579 190.610752 35.332634 
M 185.549648 28.584497 
Q 187.049234 28.696966 189.373593 28.115876 
Q 191.697952 27.534786 192.522724 27.459807 
Q 192.93511 27.459807 193.160048 27.553531 
Q 193.384986 27.647255 193.459966 27.890938 
Q 193.534945 28.134621 193.5162 28.378303 
Q 193.497455 28.621986 193.459966 29.146841 
Q 193.422476 29.671697 193.422476 30.046593 
Q 193.647414 34.320414 192.860131 43.4304 
Q 192.860131 43.805297 192.860131 44.105214 
Q 192.860131 44.405131 192.841386 44.630069 
Q 192.822641 44.855007 192.653938 44.986221 
Q 192.485234 45.117434 192.072848 45.117434 
L 191.398034 45.117434 
L 189.036186 43.542869 
M 187.349152 23.8608 
L 187.349152 24.198207 
Q 187.349152 25.022979 186.974255 26.110179 
Q 186.599359 27.197379 185.999524 28.472028 
Q 185.39969 29.746676 185.212241 30.271531 
L 184.537428 31.396221 
M 175.952297 43.767807 
L 176.964517 43.767807 
L 182.812903 43.4304 
M 175.952297 35.894979 
L 181.575745 35.670041 
M 174.902586 29.971614 
L 176.814559 29.971614 
Q 177.301924 29.971614 178.839 29.634207 
Q 180.376076 29.2968 181.650724 28.959393 
Q 182.925372 28.621986 182.925372 28.584497 
Q 182.925372 39.493986 182.700434 42.868055 
L 182.363028 45.342372 
M 175.352462 28.846924 
L 175.352462 29.184331 
Q 175.352462 30.908855 175.764848 34.15171 
Q 176.177234 37.394566 176.177234 39.156579 
L 176.177234 42.868055 
L 175.727359 43.992745 
M 181.463276 24.760552 
Q 181.0134 25.060469 180.488545 25.99771 
Q 179.96369 26.934952 179.551303 27.234869 
L 178.651552 29.25931 
" clip-path="url(#p4960930ab7)" style="fill: none; stroke: #000000; stroke-linejoin: miter"/>
   </g>
  </g>
  <g id="axes_8">
   <g id="patch_9">
    <path d="M 210.113193 31.996055 
Q 211.087924 34.282924 211.893952 35.85749 
Q 212.699979 37.432055 213.937138 39.212814 
Q 215.174297 40.993572 216.561414 42.174497 
Q 217.948531 43.355421 219.954228 44.423876 
Q 221.959924 45.492331 224.471731 46.167145 
M 212.025166 25.022979 
Q 211.612779 28.284579 210.356876 32.033545 
Q 209.100972 35.78251 206.532931 39.850138 
Q 203.96489 43.917766 200.778269 46.054676 
" clip-path="url(#p44c3405e49)" style="fill: none; stroke: #000000; stroke-linejoin: miter"/>
   </g>
  </g>
  <g id="axes_9">
   <g id="patch_10">
    <path d="M 242.437097 27.197379 
Q 242.437097 27.197379 242.999441 27.197379 
Q 243.899193 27.197379 245.679952 26.803738 
Q 247.46071 26.410097 248.397952 26.410097 
L 249.185234 26.410097 
Q 249.447662 26.410097 249.616366 26.297628 
Q 249.785069 26.185159 249.972517 26.185159 
Q 250.384903 26.410097 250.403648 27.272359 
Q 250.422393 28.134621 250.272434 28.959393 
Q 250.122476 29.784166 250.309924 30.458979 
Q 250.984738 32.295972 251.078462 35.032717 
Q 251.172186 37.769462 250.965993 41.518428 
Q 250.7598 45.267393 250.7598 46.392083 
Q 250.7598 46.579531 250.741055 46.598276 
Q 250.72231 46.617021 250.609841 46.617021 
Q 250.572352 46.617021 250.534862 46.617021 
Q 249.972517 46.617021 249.410172 46.392083 
Q 248.847828 46.167145 248.229248 45.792248 
Q 247.610669 45.417352 247.273262 45.267393 
L 247.160793 44.929986 
M 239.362945 25.885241 
L 241.049979 29.146841 
M 238.688131 28.846924 
L 238.688131 29.409269 
Q 238.76311 31.771117 238.613152 36.119917 
Q 238.463193 40.468717 238.463193 42.230731 
Q 238.463193 42.3432 238.463193 42.643117 
Q 238.463193 43.39291 238.406959 43.486634 
Q 238.350724 43.580359 238.238255 43.130483 
M 233.851966 28.134621 
Q 233.739497 28.17211 233.720752 28.24709 
Q 233.702007 28.322069 233.720752 28.434538 
Q 233.739497 28.547007 233.739497 28.584497 
Q 233.702007 37.469545 233.964434 40.506207 
Q 234.001924 41.068552 233.926945 43.092993 
Q 233.851966 45.117434 234.076903 45.64229 
M 237.301014 22.436193 
L 237.301014 22.7736 
Q 237.301014 23.635862 236.363772 24.966745 
Q 235.426531 26.297628 234.076903 27.778469 
Q 232.727276 29.25931 232.464848 29.634207 
L 230.777814 30.871366 
" clip-path="url(#pb77c20a016)" style="fill: none; stroke: #000000; stroke-linejoin: miter"/>
   </g>
  </g>
  <g id="axes_10">
   <g id="patch_11">
    <path d="M 269.793621 42.043283 
Q 269.793621 42.043283 269.006338 42.043283 
Q 267.994117 42.043283 267.375538 42.811821 
Q 266.756959 43.580359 266.756959 44.630069 
Q 266.719469 45.679779 267.450517 46.260869 
Q 268.181566 46.841959 269.231276 46.65451 
Q 269.531193 46.617021 270.018559 46.579531 
Q 270.505924 46.542041 270.768352 46.504552 
Q 271.030779 46.467062 271.349441 46.317103 
Q 271.668103 46.167145 271.799317 45.810993 
Q 271.930531 45.454841 271.930531 44.855007 
Q 271.930531 44.592579 271.818062 44.330152 
Q 271.705593 44.067724 271.518145 43.749062 
Q 271.330697 43.4304 271.255717 43.280441 
L 270.131028 42.605628 
" clip-path="url(#p79ac10c99a)" style="fill: none; stroke: #000000; stroke-linejoin: miter"/>
   </g>
  </g>
 </g>
 <defs>
  <clipPath id="pecd35dc487">
   <rect x="0" y="11.175216" width="28.35" height="49.289568"/>
  </clipPath>
  <clipPath id="pe7e667c986">
   <rect x="29.853497" y="8.64" width="25.343007" height="54.36"/>
  </clipPath>
  <clipPath id="p541d4eadf8">
   <rect x="56.7" y="10.063421" width="28.35" height="51.513158"/>
  </clipPath>
  <clipPath id="pf266967747">
   <rect x="87.059607" y="8.64" width="24.330786" height="54.36"/>
  </clipPath>
  <clipPath id="p83eb216402">
   <rect x="113.4" y="9.195972" width="28.35" height="53.248057"/>
  </clipPath>
  <clipPath id="pc5a9cc6e18">
   <rect x="141.75" y="9.603482" width="28.35" height="52.433036"/>
  </clipPath>
  <clipPath id="p4960930ab7">
   <rect x="173.028103" y="8.64" width="22.493793" height="54.36"/>
  </clipPath>
  <clipPath id="p44c3405e49">
   <rect x="198.903786" y="8.64" width="27.442428" height="54.36"/>
  </clipPath>
  <clipPath id="pb77c20a016">
   <rect x="228.903331" y="8.64" width="24.143338" height="54.36"/>
  </clipPath>
  <clipPath id="p79ac10c99a">
   <rect x="264.844986" y="8.64" width="8.960028" height="54.36"/>
  </clipPath>
 </defs>
</svg>
