<?xml version="1.0" encoding="utf-8" standalone="no"?>
<!DOCTYPE svg PUBLIC "-//W3C//DTD SVG 1.1//EN"
  "http://www.w3.org/Graphics/SVG/1.1/DTD/svg11.dtd">
<svg xmlns:xlink="http://www.w3.org/1999/xlink" width="324pt" height="162pt" viewBox="0 0 324 162" xmlns="http://www.w3.org/2000/svg" version="1.1">
 <metadata>
  <rdf:RDF xmlns:dc="http://purl.org/dc/elements/1.1/" xmlns:cc="http://creativecommons.org/ns#" xmlns:rdf="http://www.w3.org/1999/02/22-rdf-syntax-ns#">
   <cc:Work>
    <dc:type rdf:resource="http://purl.org/dc/dcmitype/StillImage"/>
    <dc:date>2023-02-15T23:13:08.725117</dc:date>
    <dc:format>image/svg+xml</dc:format>
    <dc:creator>
     <cc:Agent>
      <dc:title>Matplotlib v3.6.1, https://matplotlib.org/</dc:title>
     </cc:Agent>
    </dc:creator>
   </cc:Work>
  </rdf:RDF>
 </metadata>
 <defs>
  <style type="text/css">*{stroke-linejoin: round; stroke-linecap: butt}</style>
 </defs>
 <g id="figure_1">
  <g id="patch_1">
   <path d="M 0 162 
L 324 162 
L 324 0 
L 0 0 
z
" style="fill: #8fff9f"/>
  </g>
  <g id="axes_1">
   <g id="patch_2">
    <path d="M 18.72334 58.881621 
Q 15.804492 64.648125 11.888965 69.916289 
L 11.248242 70.343437 
M 3.986719 91.487285 
L 26.198438 91.273711 
M 4.200293 81.235723 
Q 4.200293 81.235723 5.05459 81.235723 
Q 8.044629 81.235723 11.426221 80.986553 
Q 14.807813 80.737383 18.97251 80.310234 
Q 23.137207 79.883086 25.344141 79.740703 
M 5.268164 103.233867 
L 5.695312 103.233867 
L 6.122461 102.806719 
L 27.693457 102.37957 
M 4.413867 69.275566 
L 6.976758 69.275566 
Q 17.584277 69.631523 28.33418 67.566973 
Q 30.256348 67.211016 31.359814 68.492461 
Q 32.463281 69.773906 32.676855 72.301201 
Q 32.89043 74.828496 32.819238 77.213408 
Q 32.748047 79.59832 32.463281 82.481572 
Q 32.178516 85.364824 32.178516 86.361504 
Q 32.178516 96.399492 30.89707 100.670977 
Q 30.683496 101.382891 30.683496 104.515312 
Q 30.683496 104.586504 30.256348 106.010332 
L 26.625586 104.301738 
M 3.986719 69.489141 
L 3.55957 104.942461 
" clip-path="url(#pb2323ee62d)" style="fill: none; stroke: #000000; stroke-linejoin: miter"/>
   </g>
  </g>
  <g id="axes_2">
   <g id="patch_3">
    <path d="M 39.190602 76.648534 
L 39.903158 92.21515 
Q 39.95797 92.379586 40.067594 92.872895 
Q 40.177218 93.366203 40.259436 93.558045 
Q 40.341654 93.749887 40.478684 94.106165 
Q 40.615714 94.462444 40.834962 94.709098 
Q 41.054211 94.955752 41.328271 95.175 
Q 42.643759 96.874173 45.411767 97.696353 
Q 48.179774 98.518534 50.591504 98.600752 
Q 53.003233 98.68297 56.648233 98.628158 
Q 60.293233 98.573346 61.55391 98.628158 
Q 62.37609 98.628158 63.335301 98.628158 
Q 64.294511 98.628158 65.171504 98.628158 
Q 66.048496 98.628158 66.815865 98.217068 
Q 67.583233 97.805977 67.966917 96.983797 
Q 68.131353 96.764549 68.70688 95.942368 
Q 69.282406 95.120188 69.501654 94.736504 
Q 69.720902 94.35282 69.94015 93.612857 
Q 70.159398 92.872895 70.104586 92.21515 
M 40.50609 78.950639 
Q 41.986015 78.183271 45.905075 78.429925 
Q 49.824135 78.676579 51.687744 78.073647 
L 60.073985 76.922594 
M 41.711955 68.207481 
L 53.112857 68.207481 
Q 53.715789 68.097857 56.483797 67.303083 
Q 59.251805 66.508308 60.402857 66.508308 
Q 59.909549 66.508308 59.553271 67.906015 
Q 59.196992 69.303722 58.922932 71.112519 
Q 58.648872 72.921316 58.539248 73.305 
L 58.210376 77.141842 
" clip-path="url(#p3ae59a38c2)" style="fill: none; stroke: #000000; stroke-linejoin: miter"/>
   </g>
  </g>
  <g id="axes_3">
   <g id="patch_4">
    <path d="M 95.92425 76.707 
Q 97.74675 77.193 101.39175 79.80525 
M 93.1905 68.87025 
Q 95.6205 69.0525 99.387 68.110875 
Q 103.1535 67.16925 104.49 67.04775 
Q 105.15825 67.04775 105.52275 67.199625 
Q 105.88725 67.3515 106.00875 67.746375 
Q 106.13025 68.14125 106.099875 68.536125 
Q 106.0695 68.931 106.00875 69.7815 
Q 105.948 70.632 105.948 71.2395 
Q 106.3125 78.165 105.03675 92.92725 
Q 105.03675 93.53475 105.03675 94.02075 
Q 105.03675 94.50675 105.006375 94.87125 
Q 104.976 95.23575 104.702625 95.448375 
Q 104.42925 95.661 103.761 95.661 
L 102.6675 95.661 
L 98.84025 93.1095 
M 96.1065 61.21575 
L 96.1065 61.7625 
Q 96.1065 63.099 95.499 64.86075 
Q 94.8915 66.6225 93.9195 68.688 
Q 92.9475 70.7535 92.64375 71.604 
L 91.55025 73.4265 
M 77.6385 93.474 
L 79.27875 93.474 
L 88.75575 92.92725 
M 77.6385 80.7165 
L 86.751 80.352 
M 75.9375 71.118 
L 79.03575 71.118 
Q 79.8255 71.118 82.31625 70.57125 
Q 84.807 70.0245 86.8725 69.47775 
Q 88.938 68.931 88.938 68.87025 
Q 88.938 86.5485 88.5735 92.016 
L 88.02675 96.0255 
M 76.6665 69.2955 
L 76.6665 69.84225 
Q 76.6665 72.63675 77.33475 77.891625 
Q 78.003 83.1465 78.003 86.00175 
L 78.003 92.016 
L 77.274 93.8385 
M 86.56875 62.67375 
Q 85.83975 63.15975 84.98925 64.6785 
Q 84.13875 66.19725 83.4705 66.68325 
L 82.0125 69.96375 
" clip-path="url(#p8a38fd3184)" style="fill: none; stroke: #000000; stroke-linejoin: miter"/>
   </g>
  </g>
  <g id="axes_4">
   <g id="patch_5">
    <path d="M 138.050117 79.317547 
Q 140.817932 81.531799 142.648949 82.255689 
L 143.670911 83.022161 
M 115.439194 79.828528 
Q 115.35403 79.956273 115.141121 79.274965 
Q 115.055958 79.062056 115.055958 79.062056 
L 111.479089 84.555105 
M 123.614895 67.863049 
L 123.614895 68.11854 
Q 123.614895 87.152593 115.09854 94.26375 
L 113.565596 95.541203 
M 115.950175 74.84646 
L 128.980199 74.463224 
Q 129.49118 74.12257 130.619597 74.165152 
Q 131.748014 74.207734 132.301577 74.079988 
Q 132.514486 74.079988 133.919685 73.526425 
Q 134.728738 73.228353 134.728738 73.696752 
Q 134.728738 73.909661 134.600993 74.335479 
Q 134.430666 74.803879 134.366793 75.293569 
Q 134.302921 75.783259 134.302921 76.081332 
Q 134.302921 76.379404 134.324211 76.99684 
Q 134.345502 77.614276 134.345502 77.95493 
Q 134.345502 78.849147 134.217757 80.10531 
Q 134.090012 81.361472 134.090012 82.298271 
Q 134.090012 83.107325 133.898394 84.895759 
Q 133.706776 86.684194 133.706776 87.450666 
Q 133.408703 88.004229 133.195794 89.196519 
Q 132.982886 90.388808 132.769977 90.89979 
Q 132.727395 91.027535 132.301577 92.34757 
Q 131.875759 93.667605 131.428651 94.519241 
Q 130.981542 95.370876 130.470561 95.370876 
Q 130.129907 95.370876 129.874416 95.243131 
Q 129.618925 95.115386 129.320853 94.859895 
Q 129.02278 94.604404 128.809871 94.476659 
L 127.404673 93.07146 
" clip-path="url(#pdd0c1eacbe)" style="fill: none; stroke: #000000; stroke-linejoin: miter"/>
   </g>
  </g>
  <g id="axes_5">
   <g id="patch_6">
    <path d="M 167.593864 87.732728 
Q 167.831789 88.684426 169.092787 90.278518 
Q 170.353786 91.872611 170.59171 92.871893 
L 171.590992 95.869739 
M 162.740209 80.309491 
Q 162.407115 80.309491 162.26436 80.547415 
Q 162.121606 80.785339 162.050228 81.189811 
Q 161.978851 81.594282 161.883681 81.737037 
Q 160.836815 87.589974 156.459008 92.729138 
Q 156.125914 93.109817 155.840405 93.609458 
Q 155.554896 94.109099 155.412141 94.442193 
L 155.316971 94.727702 
Q 156.839687 94.727702 158.671704 94.394608 
Q 160.503721 94.061514 162.716416 93.490496 
Q 164.929112 92.919478 166.023564 92.729138 
L 169.877937 92.300875 
M 161.598172 68.032598 
L 162.026436 68.032598 
Q 162.787794 68.222937 164.167755 69.460144 
Q 166.071149 71.173198 170.353786 75.551005 
Q 174.636423 79.928812 176.872911 81.879791 
L 179.870757 82.736319 
M 157.505875 72.981423 
L 157.505875 73.409687 
Q 157.505875 74.504138 156.125914 76.050646 
Q 154.745953 77.597154 152.961521 79.167454 
Q 151.177089 80.737755 150.748825 81.451527 
L 148.179243 84.306619 
" clip-path="url(#p9532829304)" style="fill: none; stroke: #000000; stroke-linejoin: miter"/>
   </g>
  </g>
  <g id="axes_6">
   <g id="patch_7">
    <path d="M 199.33401 85.65236 
L 199.33401 100.454391 
M 185.827157 99.590939 
Q 185.827157 99.590939 189.71269 99.590939 
Q 197.237056 99.899315 213.025888 98.665812 
Q 213.025888 98.665812 215.616244 98.665812 
M 192.858122 90.709721 
Q 192.858122 90.709721 193.968274 90.709721 
Q 194.029949 90.709721 200.074112 90.33967 
L 207.105076 89.229518 
M 202.664467 81.088401 
Q 203.281218 81.458452 203.620431 82.568604 
Q 203.959645 83.678756 204.514721 84.048807 
L 205.809898 86.639162 
M 198.778934 76.647792 
Q 197.668782 77.94297 195.941878 81.057563 
Q 194.214975 84.172157 193.043147 85.52901 
L 195.633503 85.52901 
L 204.699746 83.863782 
M 192.488071 76.277741 
L 198.038832 76.277741 
Q 198.778934 76.216066 202.016878 76.308579 
Q 205.254822 76.401091 205.994924 75.90769 
M 199.21066 64.436117 
Q 200.012437 64.991193 200.690863 65.91632 
L 202.171066 68.691701 
M 186.998985 72.207183 
Q 190.391117 71.590431 199.33401 71.189543 
Q 208.276904 70.788655 212.902538 69.431802 
Q 214.259391 68.938401 214.259391 69.555152 
Q 214.197716 69.986878 212.409137 72.392208 
Q 211.915736 73.008959 211.792386 73.317335 
M 188.109137 68.136624 
L 185.888832 73.687386 
L 185.333756 74.612513 
" clip-path="url(#pdb4c397d03)" style="fill: none; stroke: #000000; stroke-linejoin: miter"/>
   </g>
  </g>
  <g id="axes_7">
   <g id="patch_8">
    <path d="M 221.060751 91.926606 
Q 222.477202 92.021036 225.215674 91.572494 
Q 227.954145 91.123951 228.992876 91.076736 
Q 231.589702 90.982306 252.789249 90.226865 
M 234.658679 67.516438 
L 234.941969 87.016244 
L 235.083614 90.651801 
M 230.126036 85.033212 
L 239.616256 85.033212 
M 229.276166 78.706399 
Q 229.417811 78.706399 230.456541 78.635576 
Q 231.495272 78.564754 231.684132 78.564754 
L 233.242228 78.564754 
L 240.749417 78.564754 
Q 240.702202 78.328679 240.749417 78.116211 
Q 240.796632 77.903744 240.91467 77.644061 
Q 241.032707 77.384378 241.032707 77.289948 
Q 241.646503 74.551477 244.715479 67.941373 
Q 244.337759 67.658083 244.290544 67.658083 
Q 241.646503 67.658083 236.334812 67.799728 
Q 231.023122 67.941373 228.426295 67.941373 
L 226.868199 67.941373 
M 230.975907 72.898951 
L 238.624741 72.898951 
M 227.293135 68.507953 
L 228.426295 78.139819 
" clip-path="url(#pcf6c48f6a0)" style="fill: none; stroke: #000000; stroke-linejoin: miter"/>
   </g>
  </g>
  <g id="axes_8">
   <g id="patch_9">
    <path d="M 270.085283 83.125552 
Q 270.169634 83.294255 270.760097 83.842541 
Q 271.350559 84.390828 271.603614 84.643883 
Q 271.856669 84.896938 272.404955 85.529576 
Q 272.953241 86.162214 273.290648 86.541797 
Q 273.628055 86.921379 274.134166 87.596193 
Q 274.640276 88.271007 274.935507 88.734941 
Q 275.230738 89.198876 275.568145 89.87369 
Q 275.905552 90.548503 276.116431 91.09679 
Q 276.32731 91.645076 276.496014 92.277714 
Q 276.664717 92.910352 276.664717 93.500814 
Q 276.664717 94.76609 276.32731 95.862662 
Q 275.989903 96.959234 275.357266 98.182334 
Q 274.724628 99.405434 274.387221 100.333303 
L 271.856669 102.863855 
" clip-path="url(#pae0d5933e2)" style="fill: none; stroke: #000000; stroke-linejoin: miter"/>
   </g>
  </g>
 </g>
 <defs>
  <clipPath id="pb2323ee62d">
   <rect x="0" y="28.98123" width="36.45" height="103.227539"/>
  </clipPath>
  <clipPath id="p3ae59a38c2">
   <rect x="36.45" y="40.856278" width="36.45" height="79.477444"/>
  </clipPath>
  <clipPath id="p8a38fd3184">
   <rect x="72.9" y="36.55125" width="36.45" height="88.0875"/>
  </clipPath>
  <clipPath id="pdd0c1eacbe">
   <rect x="109.35" y="49.723213" width="36.45" height="61.743575"/>
  </clipPath>
  <clipPath id="p9532829304">
   <rect x="145.8" y="46.095979" width="36.45" height="68.998042"/>
  </clipPath>
  <clipPath id="pdb4c397d03">
   <rect x="182.25" y="35.880533" width="36.45" height="89.428934"/>
  </clipPath>
  <clipPath id="pcf6c48f6a0">
   <rect x="218.7" y="46.364106" width="36.45" height="68.461788"/>
  </clipPath>
  <clipPath id="pae0d5933e2">
   <rect x="265.867697" y="19.44" width="15.014607" height="122.31"/>
  </clipPath>
 </defs>
</svg>
