<?xml version="1.0" encoding="utf-8" standalone="no"?>
<!DOCTYPE svg PUBLIC "-//W3C//DTD SVG 1.1//EN"
  "http://www.w3.org/Graphics/SVG/1.1/DTD/svg11.dtd">
<svg xmlns:xlink="http://www.w3.org/1999/xlink" width="202.5pt" height="162pt" viewBox="0 0 202.5 162" xmlns="http://www.w3.org/2000/svg" version="1.1">
 <metadata>
  <rdf:RDF xmlns:dc="http://purl.org/dc/elements/1.1/" xmlns:cc="http://creativecommons.org/ns#" xmlns:rdf="http://www.w3.org/1999/02/22-rdf-syntax-ns#">
   <cc:Work>
    <dc:type rdf:resource="http://purl.org/dc/dcmitype/StillImage"/>
    <dc:date>2023-02-15T23:13:16.048837</dc:date>
    <dc:format>image/svg+xml</dc:format>
    <dc:creator>
     <cc:Agent>
      <dc:title>Matplotlib v3.6.1, https://matplotlib.org/</dc:title>
     </cc:Agent>
    </dc:creator>
   </cc:Work>
  </rdf:RDF>
 </metadata>
 <defs>
  <style type="text/css">*{stroke-linejoin: round; stroke-linecap: butt}</style>
 </defs>
 <g id="figure_1">
  <g id="patch_1">
   <path d="M 0 162 
L 202.5 162 
L 202.5 0 
L 0 0 
z
" style="fill: #8fff9f"/>
  </g>
  <g id="axes_1">
   <g id="patch_2">
    <path d="M 7.654033 76.767983 
Q 7.560691 77.701402 7.840717 79.381556 
Q 8.120743 81.061709 8.074072 81.948457 
Q 8.074072 83.06856 8.027401 84.001978 
Q 7.98073 84.935397 7.934059 85.682132 
Q 7.887388 86.428867 7.677369 87.245608 
Q 7.46735 88.06235 7.420679 88.505723 
Q 7.374008 88.949097 7.00064 89.765839 
Q 6.627273 90.58258 6.510595 90.885941 
Q 6.393918 91.189302 5.857202 92.099385 
Q 5.320487 93.009469 5.157138 93.266159 
Q 4.99379 93.522849 4.270391 94.689622 
Q 3.546991 95.856396 3.313636 96.229763 
L 2.333547 97.349866 
M 19.881818 69.207292 
L 20.441869 69.207292 
Q 20.95525 69.207292 21.328617 69.440647 
Q 21.701985 69.674001 22.168694 70.09404 
Q 22.635403 70.514078 22.9621 70.747433 
L 24.45557 71.867535 
M 28.189245 79.988278 
Q 28.142574 80.548329 28.025896 81.10838 
Q 27.909219 81.668431 27.6992 82.275154 
Q 27.489181 82.881876 27.325832 83.348585 
Q 27.162484 83.815294 26.835787 84.492023 
Q 26.509091 85.168752 26.345743 85.518784 
Q 26.182394 85.868816 25.762356 86.592215 
Q 25.342318 87.315615 25.202305 87.59564 
Q 25.062292 87.875666 24.572247 88.669072 
Q 24.082202 89.462478 23.98886 89.649161 
L 21.46863 92.169392 
M 16.568182 66.967087 
L 18.248335 73.267663 
Q 18.48169 73.827714 19.765141 77.60806 
Q 21.048592 81.388406 22.122023 83.11523 
Q 22.588732 83.815294 24.268886 87.642311 
Q 25.94904 91.469328 27.675864 93.639526 
Q 29.402689 95.809725 31.549552 95.809725 
Q 32.762996 94.876306 33.113028 94.33959 
Q 33.46306 93.802875 34.116453 92.122721 
M 8.307426 84.888726 
L 11.387708 84.6087 
Q 11.807746 84.468688 13.044526 83.931972 
Q 14.281306 83.395256 15.354738 83.021889 
Q 16.428169 82.648521 17.128233 82.648521 
Q 17.501601 82.928547 17.198239 84.655371 
Q 16.894878 86.382196 17.128233 86.988918 
Q 17.641613 88.10902 17.431594 92.029379 
Q 17.221575 95.949738 16.288156 95.949738 
Q 16.101472 95.949738 16.008131 95.949738 
L 15.96146 95.949738 
Q 16.101472 95.903067 15.728105 95.809725 
L 13.207875 94.129571 
M 8.307426 76.347945 
Q 11.387708 75.321184 17.338252 74.737798 
Q 23.288796 74.154411 26.135723 73.314334 
" clip-path="url(#pa25bb17e9d)" style="fill: none; stroke: #000000; stroke-linejoin: miter"/>
   </g>
  </g>
  <g id="axes_2">
   <g id="patch_3">
    <path d="M 54.149059 77.85096 
L 67.823526 75.930132 
Q 68.692472 75.884398 69.264147 75.838664 
Q 69.835822 75.79293 70.133093 76.0216 
Q 70.430364 76.25027 70.521832 76.433206 
Q 70.6133 76.616142 70.567566 77.073482 
Q 70.521832 77.530822 70.430364 77.896694 
Q 70.338896 78.262566 70.224561 78.879975 
Q 70.110226 79.497384 70.064492 80.000458 
Q 69.881556 83.384774 68.601004 88.14111 
Q 67.320452 92.897447 65.765496 95.412817 
Q 65.674028 95.550019 65.491092 95.550019 
Q 65.170954 95.550019 64.873683 95.275615 
Q 64.576412 95.001211 64.43921 94.726807 
L 64.302008 94.498137 
L 63.112923 93.171851 
M 61.557967 69.070031 
L 59.225533 84.573858 
L 54.011857 93.766393 
L 49.895797 95.824423 
M 45.596801 73.597698 
L 45.596801 86.08308 
M 39.011104 89.238726 
L 39.011104 88.964322 
Q 39.011104 88.82712 39.514178 88.529849 
Q 40.017252 88.232578 40.56606 87.958174 
L 41.069134 87.729504 
L 52.731305 84.436656 
L 53.142911 84.02505 
M 38.7367 74.42091 
Q 38.919636 73.826368 40.131587 74.055038 
Q 41.343538 74.283708 41.617942 73.7349 
L 44.773588 73.7349 
L 51.633689 73.460496 
" clip-path="url(#p3ff3442b49)" style="fill: none; stroke: #000000; stroke-linejoin: miter"/>
   </g>
  </g>
  <g id="axes_3">
   <g id="patch_4">
    <path d="M 94.113666 91.787846 
Q 94.523875 92.198055 95.520096 92.930571 
Q 96.516318 93.663087 96.926527 94.073296 
L 103.782878 98.644196 
M 80.576768 74.559068 
L 80.928376 74.559068 
Q 81.221383 74.559068 81.660892 74.764172 
Q 82.100402 74.969277 82.657114 75.262283 
Q 83.213826 75.555289 83.38963 75.613891 
L 87.608923 78.426752 
M 79.697749 79.833183 
Q 80.400965 80.360595 82.071101 81.005209 
Q 83.741238 81.649823 84.444453 82.118633 
L 85.323473 82.997653 
M 75.830064 86.689534 
L 77.763907 86.689534 
Q 81.748794 86.689534 86.290394 86.396527 
Q 90.831994 86.103521 96.428416 85.60541 
Q 102.024839 85.107299 105.013505 84.931495 
M 92.355627 73.680048 
Q 92.297026 74.090257 92.355627 75.789695 
Q 92.355627 80.008987 91.183601 83.290659 
Q 90.011576 86.572331 87.93123 90.381415 
Q 85.850884 94.190498 84.796061 97.061961 
L 81.631592 100.578039 
M 87.960531 63.659228 
Q 88.077733 63.71783 90.245981 64.714051 
L 91.300804 66.120482 
M 77.588103 71.570402 
L 82.686415 71.218794 
Q 85.089068 70.925788 90.070177 70.076069 
Q 95.051286 69.22635 99.094775 68.72824 
Q 103.138264 68.230129 106.419936 68.230129 
Q 105.658119 69.636559 105.189309 70.691383 
L 103.958682 73.504244 
M 78.291318 67.878521 
Q 77.822508 68.523135 77.939711 70.339775 
Q 77.998312 71.160193 77.412299 72.449421 
L 76.357476 76.317106 
" clip-path="url(#pda677567fa)" style="fill: none; stroke: #000000; stroke-linejoin: miter"/>
   </g>
  </g>
  <g id="axes_4">
   <g id="patch_5">
    <path d="M 126.731684 94.228612 
Q 127.575 93.994357 129.706716 93.853805 
Q 131.838432 93.713252 132.916003 93.385296 
L 143.457455 93.244743 
M 141.489717 82.14108 
Q 141.489717 82.187931 139.685958 86.427937 
Q 137.882198 90.667943 137.835347 92.823085 
L 137.413689 93.666401 
M 133.899871 83.406054 
Q 134.040424 83.640308 134.57921 84.553901 
Q 135.117995 85.467494 135.445951 85.936003 
L 136.992031 87.622635 
M 130.667159 86.217108 
L 131.088817 86.217108 
Q 131.557326 86.217108 132.096112 86.709042 
Q 132.634897 87.200977 133.173683 87.90374 
Q 133.712468 88.606504 133.899871 88.747057 
L 134.743188 89.871478 
M 130.386054 79.751684 
L 138.257005 79.611131 
M 133.478213 71.037416 
Q 134.274679 71.787031 135.633355 73.333111 
Q 136.992031 74.87919 137.788496 75.675656 
Q 138.584961 76.472121 140.013914 77.245161 
Q 141.442866 78.018201 143.129499 78.205604 
M 134.462082 69.350784 
Q 134.134126 69.819293 133.243959 71.201395 
Q 132.353792 72.583496 131.815006 73.28626 
Q 131.276221 73.989023 130.409479 75.019743 
Q 129.542738 76.050463 128.60572 76.68295 
Q 127.668702 77.315437 126.591131 77.643393 
L 125.185604 78.346157 
M 111.692545 90.386838 
Q 112.723265 89.96518 114.667577 89.075013 
Q 116.611889 88.184846 117.900289 87.669486 
Q 119.188689 87.154126 120.875321 86.638766 
L 120.359961 86.217108 
M 114.784704 72.958303 
L 114.784704 73.520514 
Q 114.831555 74.410681 114.737853 75.39455 
Q 114.644152 76.378419 114.456748 77.596542 
Q 114.269344 78.814666 114.222494 79.423728 
Q 114.175643 79.704833 113.988239 80.431022 
Q 113.800835 81.157211 113.800835 81.532018 
Q 113.707134 82.094229 114.222494 81.906825 
Q 114.363046 81.906825 114.691003 81.766272 
Q 115.300064 81.485167 115.487468 81.532018 
Q 116.283933 81.719422 118.696754 81.36804 
Q 121.109576 81.016658 123.124165 80.595 
L 125.185604 80.173342 
Q 125.185604 81.719422 124.365713 88.606504 
Q 123.545823 95.493586 123.124165 95.493586 
Q 122.655656 95.493586 121.999743 94.90795 
Q 121.34383 94.322314 121.109576 94.228612 
L 119.610347 93.10419 
M 112.816967 71.271671 
L 122.046594 70.053548 
L 121.156427 75.39455 
L 120.172558 79.470578 
" clip-path="url(#pc3fa935ba4)" style="fill: none; stroke: #000000; stroke-linejoin: miter"/>
   </g>
  </g>
  <g id="axes_5">
   <g id="patch_6">
    <path d="M 165.079397 94.597386 
Q 165.079397 94.597386 163.30801 94.597386 
Q 161.030514 94.597386 159.63871 96.326597 
Q 158.246907 98.055807 158.246907 100.417655 
Q 158.162555 102.779503 159.807414 104.086955 
Q 161.452272 105.394407 163.814121 104.972648 
Q 164.488934 104.888297 165.585507 104.803945 
Q 166.682079 104.719593 167.272541 104.635241 
Q 167.863003 104.55089 168.579993 104.213483 
Q 169.296983 103.876076 169.592214 103.074734 
Q 169.887445 102.273393 169.887445 100.923766 
Q 169.887445 100.333303 169.63439 99.742841 
Q 169.381334 99.152379 168.959576 98.43539 
Q 168.537817 97.7184 168.369114 97.380993 
L 165.838562 95.862662 
" clip-path="url(#p0837c4f7dc)" style="fill: none; stroke: #000000; stroke-linejoin: miter"/>
   </g>
  </g>
 </g>
 <defs>
  <clipPath id="pa25bb17e9d">
   <rect x="0" y="46.758572" width="36.45" height="67.672855"/>
  </clipPath>
  <clipPath id="p3ff3442b49">
   <rect x="36.45" y="47.437848" width="36.45" height="66.314304"/>
  </clipPath>
  <clipPath id="pda677567fa">
   <rect x="72.9" y="38.109068" width="36.45" height="84.971865"/>
  </clipPath>
  <clipPath id="pc3fa935ba4">
   <rect x="109.35" y="46.628098" width="36.45" height="67.933805"/>
  </clipPath>
  <clipPath id="p0837c4f7dc">
   <rect x="153.944969" y="19.44" width="20.160062" height="122.31"/>
  </clipPath>
 </defs>
</svg>
