<?xml version="1.0" encoding="utf-8" standalone="no"?>
<!DOCTYPE svg PUBLIC "-//W3C//DTD SVG 1.1//EN"
  "http://www.w3.org/Graphics/SVG/1.1/DTD/svg11.dtd">
<svg xmlns:xlink="http://www.w3.org/1999/xlink" width="396pt" height="72pt" viewBox="0 0 396 72" xmlns="http://www.w3.org/2000/svg" version="1.1">
 <metadata>
  <rdf:RDF xmlns:dc="http://purl.org/dc/elements/1.1/" xmlns:cc="http://creativecommons.org/ns#" xmlns:rdf="http://www.w3.org/1999/02/22-rdf-syntax-ns#">
   <cc:Work>
    <dc:type rdf:resource="http://purl.org/dc/dcmitype/StillImage"/>
    <dc:date>2023-02-14T21:57:03.698756</dc:date>
    <dc:format>image/svg+xml</dc:format>
    <dc:creator>
     <cc:Agent>
      <dc:title>Matplotlib v3.6.1, https://matplotlib.org/</dc:title>
     </cc:Agent>
    </dc:creator>
   </cc:Work>
  </rdf:RDF>
 </metadata>
 <defs>
  <style type="text/css">*{stroke-linejoin: round; stroke-linecap: butt}</style>
 </defs>
 <g id="figure_1">
  <g id="patch_1">
   <path d="M 0 72 
L 396 72 
L 396 0 
L 0 0 
z
" style="fill: #8fff9f"/>
  </g>
  <g id="axes_1">
   <g id="patch_2">
    <path d="M 3.2076 35.032717 
Q 3.2076 35.032717 6.581669 35.032717 
Q 6.694138 35.032717 8.437407 34.826524 
Q 10.180676 34.620331 11.192897 34.789034 
Q 12.205117 34.957738 12.205117 35.707531 
Q 12.205117 36.86971 11.192897 38.144359 
Q 10.180676 39.419007 8.718579 40.506207 
Q 7.256483 41.593407 5.794386 42.605628 
Q 4.33229 43.617848 3.320069 44.573834 
Q 2.307848 45.529821 2.307848 46.279614 
L 3.432538 46.279614 
Q 3.470028 46.279614 5.681917 46.054676 
L 13.892152 45.942207 
" clip-path="url(#p7141d01f77)" style="fill: none; stroke: #000000; stroke-linejoin: miter"/>
   </g>
  </g>
  <g id="axes_2">
   <g id="patch_3">
    <path d="M 22.013131 30.384 
L 25.274731 34.657821 
M 24.937324 37.019669 
L 24.674897 41.743366 
Q 24.787366 42.268221 24.918579 43.749062 
Q 25.049793 45.229903 25.3872 46.1484 
Q 25.724607 47.066897 26.586869 47.591752 
" clip-path="url(#pdffc4ae0c3)" style="fill: none; stroke: #000000; stroke-linejoin: miter"/>
   </g>
  </g>
  <g id="axes_3">
   <g id="patch_4">
    <path d="M 40.856152 30.309021 
Q 40.368786 30.42149 40.781172 30.833876 
Q 41.156069 31.208772 41.231048 30.946345 
Q 41.268538 30.871366 41.193559 30.646428 
Q 41.193559 30.458979 41.118579 30.42149 
Q 41.0436 30.384 40.912386 30.42149 
Q 40.781172 30.458979 40.631214 30.42149 
L 40.518745 30.646428 
M 41.418497 33.345683 
Q 42.468207 37.731972 42.993062 40.13131 
Q 43.517917 42.530648 43.967793 46.317103 
Q 44.417669 50.103559 44.230221 53.25269 
Q 44.230221 53.440138 44.230221 54.021228 
Q 44.230221 54.602317 44.230221 54.902234 
Q 44.230221 55.202152 44.211476 55.783241 
Q 44.192731 56.364331 44.117752 56.701738 
Q 44.042772 57.039145 43.930303 57.52651 
Q 43.817834 58.013876 43.611641 58.313793 
Q 43.405448 58.61371 43.143021 58.894883 
Q 42.880593 59.176055 42.505697 59.307269 
Q 42.1308 59.438483 41.643434 59.438483 
Q 40.668703 59.438483 39.91891 59.251034 
Q 39.169117 59.063586 38.306855 58.707434 
Q 37.444593 58.351283 36.807269 58.201324 
L 36.582331 57.751448 
" clip-path="url(#p841bb4cbfb)" style="fill: none; stroke: #000000; stroke-linejoin: miter"/>
   </g>
  </g>
  <g id="axes_4">
   <g id="patch_5">
    <path d="M 54.000745 33.345683 
L 54.000745 33.570621 
Q 54.000745 34.545352 54.975476 35.969959 
Q 55.950207 37.394566 56.924938 37.394566 
Q 57.299834 37.394566 57.655986 36.9072 
Q 58.012138 36.419834 58.3308 35.726276 
Q 58.649462 35.032717 58.724441 34.920248 
L 59.399255 31.771117 
M 56.962428 39.419007 
L 56.512552 47.291834 
L 56.175145 47.74171 
" clip-path="url(#p672e999834)" style="fill: none; stroke: #000000; stroke-linejoin: miter"/>
   </g>
  </g>
  <g id="axes_5"/>
  <g id="axes_6">
   <g id="patch_6">
    <path d="M 92.699007 39.568966 
Q 91.349379 38.181848 89.1 38.444276 
Q 86.250786 38.444276 85.088607 39.793903 
Q 83.926428 41.143531 83.926428 44.067724 
Q 83.926428 45.56731 85.219821 46.279614 
Q 86.513214 46.991917 88.087779 46.991917 
Q 89.399917 46.991917 90.412138 45.736014 
Q 91.424359 44.48011 92.005448 42.30571 
Q 92.586538 40.13131 92.961434 37.938166 
Q 93.336331 35.745021 93.48629 33.045766 
Q 93.636248 30.34651 93.673738 28.978138 
Q 93.711228 27.609766 93.711228 26.185159 
Q 93.48629 26.260138 93.48629 29.896634 
L 93.48629 44.292662 
L 94.273572 48.229076 
" clip-path="url(#p2abb1f7462)" style="fill: none; stroke: #000000; stroke-linejoin: miter"/>
   </g>
  </g>
  <g id="axes_7">
   <g id="patch_7">
    <path d="M 99.057798 38.160826 
Q 102.030275 39.535596 106.749083 39.721376 
Q 108.272477 39.721376 108.959862 38.550963 
Q 109.647248 37.38055 109.647248 35.82 
Q 109.647248 35.299817 109.554358 34.909679 
Q 109.461468 34.519541 109.219954 34.296606 
Q 108.97844 34.07367 108.811239 33.943624 
Q 108.644037 33.813578 108.198165 33.757844 
Q 107.752294 33.70211 107.547936 33.683532 
Q 107.343578 33.664954 106.767661 33.683532 
Q 106.191743 33.70211 105.968807 33.70211 
Q 103.925229 33.70211 102.438991 35.578486 
Q 100.952752 37.454862 100.952752 39.609908 
Q 100.952752 42.619541 102.884862 44.570229 
Q 104.816972 46.520917 107.863761 46.520917 
Q 110.018807 46.818165 111.542202 44.29156 
" clip-path="url(#p3050115e08)" style="fill: none; stroke: #000000; stroke-linejoin: miter"/>
   </g>
  </g>
  <g id="axes_8"/>
  <g id="axes_9">
   <g id="patch_8">
    <path d="M 134.157228 37.244607 
Q 135.206938 37.207117 135.394386 37.132138 
Q 138.805945 37.132138 140.586703 39.212814 
Q 142.367462 41.29349 142.367462 44.780028 
Q 142.367462 47.704221 137.756234 47.704221 
Q 137.11891 47.704221 136.57531 47.591752 
Q 136.03171 47.479283 135.394386 47.254345 
Q 134.757062 47.029407 134.269697 46.916938 
L 133.032538 45.679779 
M 134.044759 25.435366 
L 134.044759 26.560055 
Q 134.044759 29.409269 134.157228 33.008276 
Q 134.269697 36.607283 134.457145 40.899848 
Q 134.644593 45.192414 134.719572 47.141876 
" clip-path="url(#pad66a781b8)" style="fill: none; stroke: #000000; stroke-linejoin: miter"/>
   </g>
  </g>
  <g id="axes_10">
   <g id="patch_9">
    <path d="M 150.413462 29.784166 
Q 151.388193 30.271531 152.681586 31.827352 
Q 153.974979 33.383172 154.462345 33.833048 
L 155.137159 34.507862 
M 158.173821 37.432055 
Q 156.861683 36.94469 155.811972 36.982179 
Q 155.549545 36.982179 154.649793 37.000924 
Q 153.750041 37.019669 153.31891 37.038414 
Q 152.887779 37.057159 152.025517 37.169628 
Q 151.163255 37.282097 150.694634 37.41331 
Q 150.226014 37.544524 149.58869 37.844441 
Q 148.951366 38.144359 148.632703 38.538 
Q 148.314041 38.931641 148.070359 39.550221 
Q 147.826676 40.1688 147.826676 40.918593 
Q 147.826676 42.830566 149.438731 44.348897 
Q 151.050786 45.867228 153.000248 45.867228 
Q 154.349876 45.867228 155.212138 45.323628 
Q 156.0744 44.780028 156.486786 43.842786 
Q 156.899172 42.905545 157.12411 41.912069 
Q 157.349048 40.918593 157.686455 39.756414 
Q 158.023862 38.594234 158.511228 37.881931 
L 158.961103 43.842786 
L 159.973324 46.991917 
" clip-path="url(#pe65d81c0bf)" style="fill: none; stroke: #000000; stroke-linejoin: miter"/>
   </g>
  </g>
  <g id="axes_11">
   <g id="patch_10">
    <path d="M 165.638731 37.282097 
L 165.638731 37.844441 
Q 165.901159 39.868883 165.938648 41.312234 
Q 165.976138 42.755586 165.882414 44.667559 
Q 165.78869 46.579531 165.78869 48.191586 
L 165.863669 39.643945 
Q 165.863669 38.144359 167.456979 37.507034 
Q 169.05029 36.86971 170.474897 37.282097 
Q 172.386869 37.844441 173.305366 39.04411 
Q 174.223862 40.243779 174.280097 41.668386 
Q 174.336331 43.092993 174.373821 44.817517 
Q 174.41131 46.542041 174.561269 48.191586 
" clip-path="url(#pc4eed49355)" style="fill: none; stroke: #000000; stroke-linejoin: miter"/>
   </g>
  </g>
  <g id="axes_12">
   <g id="patch_11">
    <path d="M 191.087191 39.096404 
Q 190.83236 39.023596 189.86764 38.623146 
Q 188.902921 38.222697 188.24764 38.077079 
Q 187.59236 37.931461 186.937079 38.00427 
Q 184.315955 38.00427 182.677753 40.388764 
Q 181.039551 42.773258 181.039551 45.430787 
Q 181.039551 47.068989 186.281798 47.068989 
Q 187.847191 47.068989 189.175955 45.558202 
Q 190.504719 44.047416 191.178202 42.172584 
Q 191.851685 40.297753 191.851685 38.768764 
Q 191.851685 37.27618 191.815281 36.984944 
L 191.742472 38.077079 
Q 191.742472 38.550337 191.742472 38.987191 
Q 191.778876 40.188539 191.979101 42.281798 
Q 192.179326 44.375056 192.343146 46.049663 
Q 192.506966 47.72427 192.543371 49.872135 
Q 192.579775 52.02 192.415955 53.658202 
Q 192.252135 55.296404 191.687865 56.971011 
Q 191.123596 58.645618 190.195281 59.737753 
Q 189.266966 60.829888 187.665169 61.521573 
Q 186.063371 62.213258 183.915506 62.213258 
Q 182.277303 62.213258 181.185169 61.466966 
Q 180.093034 60.720674 180.093034 59.155281 
Q 180.020225 58.936854 180.056629 58.936854 
Q 180.093034 58.936854 180.202247 58.936854 
Q 180.311461 58.936854 180.311461 58.82764 
" clip-path="url(#p71501cc005)" style="fill: none; stroke: #000000; stroke-linejoin: miter"/>
   </g>
  </g>
  <g id="axes_13">
   <g id="patch_12">
    <path d="M 198.282414 34.020497 
L 205.817834 34.357903 
M 204.655655 38.106869 
Q 204.618166 37.95691 204.037076 37.975655 
Q 203.455986 37.9944 203.418497 37.9944 
Q 200.531793 37.9944 199.444593 39.287793 
Q 198.357393 40.581186 198.357393 43.617848 
Q 198.357393 45.267393 199.519572 46.523297 
Q 200.681752 47.7792 202.406276 47.7792 
Q 203.980841 47.7792 205.218 46.598276 
Q 206.455159 45.417352 206.455159 43.842786 
Q 206.717586 42.043283 205.72411 40.318759 
Q 204.730634 38.594234 203.08109 37.881931 
" clip-path="url(#p09f211fe85)" style="fill: none; stroke: #000000; stroke-linejoin: miter"/>
   </g>
  </g>
  <g id="axes_14">
   <g id="patch_13">
    <path d="M 214.238731 37.282097 
L 214.238731 37.844441 
Q 214.501159 39.868883 214.538648 41.312234 
Q 214.576138 42.755586 214.482414 44.667559 
Q 214.38869 46.579531 214.38869 48.191586 
L 214.463669 39.643945 
Q 214.463669 38.144359 216.056979 37.507034 
Q 217.65029 36.86971 219.074897 37.282097 
Q 220.986869 37.844441 221.905366 39.04411 
Q 222.823862 40.243779 222.880097 41.668386 
Q 222.936331 43.092993 222.973821 44.817517 
Q 223.01131 46.542041 223.161269 48.191586 
" clip-path="url(#pc8fdb6568a)" style="fill: none; stroke: #000000; stroke-linejoin: miter"/>
   </g>
  </g>
  <g id="axes_15">
   <g id="patch_14">
    <path d="M 239.687191 39.096404 
Q 239.43236 39.023596 238.46764 38.623146 
Q 237.502921 38.222697 236.84764 38.077079 
Q 236.19236 37.931461 235.537079 38.00427 
Q 232.915955 38.00427 231.277753 40.388764 
Q 229.639551 42.773258 229.639551 45.430787 
Q 229.639551 47.068989 234.881798 47.068989 
Q 236.447191 47.068989 237.775955 45.558202 
Q 239.104719 44.047416 239.778202 42.172584 
Q 240.451685 40.297753 240.451685 38.768764 
Q 240.451685 37.27618 240.415281 36.984944 
L 240.342472 38.077079 
Q 240.342472 38.550337 240.342472 38.987191 
Q 240.378876 40.188539 240.579101 42.281798 
Q 240.779326 44.375056 240.943146 46.049663 
Q 241.106966 47.72427 241.143371 49.872135 
Q 241.179775 52.02 241.015955 53.658202 
Q 240.852135 55.296404 240.287865 56.971011 
Q 239.723596 58.645618 238.795281 59.737753 
Q 237.866966 60.829888 236.265169 61.521573 
Q 234.663371 62.213258 232.515506 62.213258 
Q 230.877303 62.213258 229.785169 61.466966 
Q 228.693034 60.720674 228.693034 59.155281 
Q 228.620225 58.936854 228.656629 58.936854 
Q 228.693034 58.936854 228.802247 58.936854 
Q 228.911461 58.936854 228.911461 58.82764 
" clip-path="url(#p090ca8b5f5)" style="fill: none; stroke: #000000; stroke-linejoin: miter"/>
   </g>
  </g>
  <g id="axes_16">
   <g id="patch_15">
    <path d="M 246.657476 43.917766 
Q 246.957393 44.180193 247.969614 45.154924 
Q 248.981834 46.129655 249.544179 46.560786 
Q 250.106524 46.991917 251.13749 47.385559 
Q 252.168455 47.7792 253.180676 47.629241 
Q 253.85549 47.629241 254.32411 47.404303 
Q 254.792731 47.179366 255.017669 46.879448 
Q 255.242607 46.579531 255.373821 45.979697 
Q 255.505034 45.379862 255.523779 44.967476 
Q 255.542524 44.55509 255.542524 43.805297 
Q 255.542524 42.718097 254.642772 42.043283 
Q 253.743021 41.368469 252.449628 41.031062 
Q 251.156234 40.693655 249.862841 40.300014 
Q 248.569448 39.906372 247.669697 38.987876 
Q 246.769945 38.069379 246.769945 36.607283 
Q 246.769945 36.082428 246.938648 35.726276 
Q 247.107352 35.370124 247.500993 35.145186 
Q 247.894634 34.920248 248.175807 34.807779 
Q 248.456979 34.69531 249.113048 34.639076 
Q 249.769117 34.582841 249.956566 34.582841 
Q 250.144014 34.582841 250.818828 34.582841 
Q 252.018497 34.582841 252.599586 34.995228 
Q 253.180676 35.407614 253.499338 36.026193 
Q 253.818 36.644772 254.080428 36.832221 
" clip-path="url(#pfae458263f)" style="fill: none; stroke: #000000; stroke-linejoin: miter"/>
   </g>
  </g>
  <g id="axes_17">
   <g id="patch_16">
    <path d="M 263.813462 35.932469 
Q 264.413297 35.257655 265.406772 34.826524 
Q 266.400248 34.395393 267.3 34.470372 
Q 267.937324 34.470372 268.42469 34.639076 
Q 268.912055 34.807779 269.230717 34.995228 
Q 269.549379 35.182676 269.774317 35.670041 
Q 269.999255 36.157407 270.111724 36.419834 
Q 270.224193 36.682262 270.280428 37.375821 
Q 270.336662 38.069379 270.355407 38.331807 
Q 270.374152 38.594234 270.355407 39.419007 
Q 270.336662 40.243779 270.336662 40.431228 
Q 270.336662 41.368469 270.167959 43.242952 
Q 269.999255 45.117434 269.999255 46.054676 
Q 269.999255 46.467062 270.05549 46.823214 
Q 270.111724 47.179366 270.205448 47.610497 
Q 270.299172 48.041628 270.336662 48.304055 
L 270.786538 48.528993 
M 264.263338 23.111007 
Q 264.488276 24.798041 264.488276 29.971614 
L 264.488276 42.3432 
L 264.150869 46.841959 
L 263.925931 47.74171 
" clip-path="url(#p63c98e3733)" style="fill: none; stroke: #000000; stroke-linejoin: miter"/>
   </g>
  </g>
  <g id="axes_18">
   <g id="patch_17">
    <path d="M 281.213131 30.384 
L 284.474731 34.657821 
M 284.137324 37.019669 
L 283.874897 41.743366 
Q 283.987366 42.268221 284.118579 43.749062 
Q 284.249793 45.229903 284.5872 46.1484 
Q 284.924607 47.066897 285.786869 47.591752 
" clip-path="url(#p916c7e02f0)" style="fill: none; stroke: #000000; stroke-linejoin: miter"/>
   </g>
  </g>
  <g id="axes_19"/>
  <g id="axes_20">
   <g id="patch_18">
    <path d="M 315.506359 28.621986 
Q 315.731297 30.34651 315.806276 32.146014 
Q 315.881255 33.945517 315.86251 36.551048 
Q 315.843766 39.156579 315.843766 40.093821 
Q 315.843766 40.13131 316.068703 45.829738 
L 316.293641 46.841959 
" clip-path="url(#p26c73f6848)" style="fill: none; stroke: #000000; stroke-linejoin: miter"/>
   </g>
  </g>
  <g id="axes_21">
   <g id="patch_19">
    <path d="M 329.400745 33.345683 
L 329.400745 33.570621 
Q 329.400745 34.545352 330.375476 35.969959 
Q 331.350207 37.394566 332.324938 37.394566 
Q 332.699834 37.394566 333.055986 36.9072 
Q 333.412138 36.419834 333.7308 35.726276 
Q 334.049462 35.032717 334.124441 34.920248 
L 334.799255 31.771117 
M 332.362428 39.419007 
L 331.912552 47.291834 
L 331.575145 47.74171 
" clip-path="url(#pc360a45d6b)" style="fill: none; stroke: #000000; stroke-linejoin: miter"/>
   </g>
  </g>
  <g id="axes_22">
   <g id="patch_20">
    <path d="M 347.587697 39.981352 
Q 348.599917 40.956083 348.937324 42.905545 
Q 349.124772 43.955255 348.712386 46.167145 
L 347.475228 47.629241 
" clip-path="url(#p4bbaf71c26)" style="fill: none; stroke: #000000; stroke-linejoin: miter"/>
   </g>
  </g>
 </g>
 <defs>
  <clipPath id="p7141d01f77">
   <rect x="0.433366" y="8.64" width="15.333269" height="54.36"/>
  </clipPath>
  <clipPath id="pdffc4ae0c3">
   <rect x="20.138648" y="8.64" width="8.322703" height="54.36"/>
  </clipPath>
  <clipPath id="p841bb4cbfb">
   <rect x="34.707848" y="8.64" width="11.584303" height="54.36"/>
  </clipPath>
  <clipPath id="p672e999834">
   <rect x="52.126262" y="8.64" width="9.147476" height="54.36"/>
  </clipPath>
  <clipPath id="p2abb1f7462">
   <rect x="82.051945" y="8.64" width="14.09611" height="54.36"/>
  </clipPath>
  <clipPath id="p3050115e08">
   <rect x="97.2" y="8.881927" width="16.2" height="53.876147"/>
  </clipPath>
  <clipPath id="pad66a781b8">
   <rect x="131.158055" y="8.64" width="13.08389" height="54.36"/>
  </clipPath>
  <clipPath id="pe65d81c0bf">
   <rect x="145.952193" y="8.64" width="15.895614" height="54.36"/>
  </clipPath>
  <clipPath id="pc4eed49355">
   <rect x="163.764248" y="8.64" width="12.671503" height="54.36"/>
  </clipPath>
  <clipPath id="p71501cc005">
   <rect x="178.2" y="9.426742" width="16.2" height="52.786517"/>
  </clipPath>
  <clipPath id="p09f211fe85">
   <rect x="196.407931" y="8.64" width="12.184138" height="54.36"/>
  </clipPath>
  <clipPath id="pc8fdb6568a">
   <rect x="212.364248" y="8.64" width="12.671503" height="54.36"/>
  </clipPath>
  <clipPath id="p090ca8b5f5">
   <rect x="226.8" y="9.426742" width="16.2" height="52.786517"/>
  </clipPath>
  <clipPath id="pfae458263f">
   <rect x="244.782993" y="8.64" width="12.634014" height="54.36"/>
  </clipPath>
  <clipPath id="p63c98e3733">
   <rect x="261.938979" y="8.64" width="10.722041" height="54.36"/>
  </clipPath>
  <clipPath id="p916c7e02f0">
   <rect x="279.338648" y="8.64" width="8.322703" height="54.36"/>
  </clipPath>
  <clipPath id="p26c73f6848">
   <rect x="313.631876" y="8.64" width="4.536248" height="54.36"/>
  </clipPath>
  <clipPath id="pc360a45d6b">
   <rect x="327.526262" y="8.64" width="9.147476" height="54.36"/>
  </clipPath>
  <clipPath id="p4bbaf71c26">
   <rect x="345.600745" y="8.64" width="5.39851" height="54.36"/>
  </clipPath>
 </defs>
</svg>
