<?xml version="1.0" encoding="utf-8" standalone="no"?>
<!DOCTYPE svg PUBLIC "-//W3C//DTD SVG 1.1//EN"
  "http://www.w3.org/Graphics/SVG/1.1/DTD/svg11.dtd">
<svg xmlns:xlink="http://www.w3.org/1999/xlink" width="432pt" height="72pt" viewBox="0 0 432 72" xmlns="http://www.w3.org/2000/svg" version="1.1">
 <metadata>
  <rdf:RDF xmlns:dc="http://purl.org/dc/elements/1.1/" xmlns:cc="http://creativecommons.org/ns#" xmlns:rdf="http://www.w3.org/1999/02/22-rdf-syntax-ns#">
   <cc:Work>
    <dc:type rdf:resource="http://purl.org/dc/dcmitype/StillImage"/>
    <dc:date>2023-02-15T23:13:24.763586</dc:date>
    <dc:format>image/svg+xml</dc:format>
    <dc:creator>
     <cc:Agent>
      <dc:title>Matplotlib v3.6.1, https://matplotlib.org/</dc:title>
     </cc:Agent>
    </dc:creator>
   </cc:Work>
  </rdf:RDF>
 </metadata>
 <defs>
  <style type="text/css">*{stroke-linejoin: round; stroke-linecap: butt}</style>
 </defs>
 <g id="figure_1">
  <g id="patch_1">
   <path d="M 0 72 
L 432 72 
L 432 0 
L 0 0 
z
" style="fill: #8fff9f"/>
  </g>
  <g id="axes_1">
   <g id="patch_2">
    <path d="M 13.643923 36.441748 
Q 12.434968 35.094627 8.462687 35.094627 
Q 6.942857 35.094627 6.165672 35.146439 
Q 5.388486 35.198252 4.38678 35.440043 
Q 3.385075 35.681834 2.901493 36.182687 
Q 2.41791 36.683539 2.072495 37.616162 
Q 1.727079 38.548785 1.727079 39.964989 
Q 1.727079 42.037484 3.143284 43.280981 
Q 4.559488 44.524478 6.493817 44.524478 
Q 9.153518 44.524478 11.916844 38.721493 
Q 13.263966 35.854542 13.263966 35.82 
Q 13.609382 35.578209 13.643923 36.441748 
Q 13.643923 37.512537 14.058422 40.362217 
Q 14.472921 43.211898 14.472921 44.524478 
" clip-path="url(#p8e522afc5b)" style="fill: none; stroke: #000000; stroke-linejoin: miter"/>
   </g>
  </g>
  <g id="axes_2"/>
  <g id="axes_3">
   <g id="patch_3">
    <path d="M 36.057476 43.917766 
Q 36.357393 44.180193 37.369614 45.154924 
Q 38.381834 46.129655 38.944179 46.560786 
Q 39.506524 46.991917 40.53749 47.385559 
Q 41.568455 47.7792 42.580676 47.629241 
Q 43.25549 47.629241 43.72411 47.404303 
Q 44.192731 47.179366 44.417669 46.879448 
Q 44.642607 46.579531 44.773821 45.979697 
Q 44.905034 45.379862 44.923779 44.967476 
Q 44.942524 44.55509 44.942524 43.805297 
Q 44.942524 42.718097 44.042772 42.043283 
Q 43.143021 41.368469 41.849628 41.031062 
Q 40.556234 40.693655 39.262841 40.300014 
Q 37.969448 39.906372 37.069697 38.987876 
Q 36.169945 38.069379 36.169945 36.607283 
Q 36.169945 36.082428 36.338648 35.726276 
Q 36.507352 35.370124 36.900993 35.145186 
Q 37.294634 34.920248 37.575807 34.807779 
Q 37.856979 34.69531 38.513048 34.639076 
Q 39.169117 34.582841 39.356566 34.582841 
Q 39.544014 34.582841 40.218828 34.582841 
Q 41.418497 34.582841 41.999586 34.995228 
Q 42.580676 35.407614 42.899338 36.026193 
Q 43.218 36.644772 43.480428 36.832221 
" clip-path="url(#p942d61405b)" style="fill: none; stroke: #000000; stroke-linejoin: miter"/>
   </g>
  </g>
  <g id="axes_4">
   <g id="patch_4">
    <path d="M 52.088772 35.145186 
Q 52.088772 35.145186 52.088772 35.595062 
Q 52.088772 36.269876 51.976303 37.619503 
Q 51.863834 38.969131 51.863834 39.643945 
Q 51.863834 41.930814 53.100993 43.599103 
Q 54.338152 45.267393 56.475062 45.267393 
Q 57.862179 45.154924 58.630717 43.917766 
Q 59.399255 42.680607 59.549214 41.237255 
Q 59.699172 39.793903 59.9616 37.9944 
Q 60.224028 36.194897 60.636414 35.370124 
Q 60.786372 35.070207 60.786372 35.670041 
Q 60.786372 36.269876 60.523945 38.706703 
Q 60.299007 41.031062 60.299007 41.555917 
Q 60.149048 42.643117 60.486455 43.767807 
Q 60.823862 44.892497 61.536166 45.6048 
" clip-path="url(#pc70f223c0f)" style="fill: none; stroke: #000000; stroke-linejoin: miter"/>
   </g>
  </g>
  <g id="axes_5">
   <g id="patch_5">
    <path d="M 78.156735 34.365306 
Q 78.156735 34.365306 77.660816 34.365306 
Q 76.867347 34.365306 75.379592 34.067755 
Q 73.891837 33.770204 73.098367 33.770204 
Q 70.321224 33.770204 68.387143 35.224898 
Q 66.453061 36.679592 66.453061 39.423673 
Q 66.453061 40.94449 67.940816 42.399184 
Q 69.428571 43.853878 71.362653 44.663878 
Q 73.296735 45.473878 74.78449 45.473878 
Q 75.710204 45.473878 76.40449 45.110204 
Q 77.098776 44.746531 77.842653 44.118367 
Q 78.586531 43.490204 79.148571 43.192653 
L 79.346939 42.696735 
" clip-path="url(#pf864ac3cf8)" style="fill: none; stroke: #000000; stroke-linejoin: miter"/>
   </g>
  </g>
  <g id="axes_6">
   <g id="patch_6">
    <path d="M 94.356735 34.365306 
Q 94.356735 34.365306 93.860816 34.365306 
Q 93.067347 34.365306 91.579592 34.067755 
Q 90.091837 33.770204 89.298367 33.770204 
Q 86.521224 33.770204 84.587143 35.224898 
Q 82.653061 36.679592 82.653061 39.423673 
Q 82.653061 40.94449 84.140816 42.399184 
Q 85.628571 43.853878 87.562653 44.663878 
Q 89.496735 45.473878 90.98449 45.473878 
Q 91.910204 45.473878 92.60449 45.110204 
Q 93.298776 44.746531 94.042653 44.118367 
Q 94.786531 43.490204 95.348571 43.192653 
L 95.546939 42.696735 
" clip-path="url(#p849b205af4)" style="fill: none; stroke: #000000; stroke-linejoin: miter"/>
   </g>
  </g>
  <g id="axes_7">
   <g id="patch_7">
    <path d="M 99.057798 38.160826 
Q 102.030275 39.535596 106.749083 39.721376 
Q 108.272477 39.721376 108.959862 38.550963 
Q 109.647248 37.38055 109.647248 35.82 
Q 109.647248 35.299817 109.554358 34.909679 
Q 109.461468 34.519541 109.219954 34.296606 
Q 108.97844 34.07367 108.811239 33.943624 
Q 108.644037 33.813578 108.198165 33.757844 
Q 107.752294 33.70211 107.547936 33.683532 
Q 107.343578 33.664954 106.767661 33.683532 
Q 106.191743 33.70211 105.968807 33.70211 
Q 103.925229 33.70211 102.438991 35.578486 
Q 100.952752 37.454862 100.952752 39.609908 
Q 100.952752 42.619541 102.884862 44.570229 
Q 104.816972 46.520917 107.863761 46.520917 
Q 110.018807 46.818165 111.542202 44.29156 
" clip-path="url(#pfc5be3aa8d)" style="fill: none; stroke: #000000; stroke-linejoin: miter"/>
   </g>
  </g>
  <g id="axes_8">
   <g id="patch_8">
    <path d="M 117.057476 43.917766 
Q 117.357393 44.180193 118.369614 45.154924 
Q 119.381834 46.129655 119.944179 46.560786 
Q 120.506524 46.991917 121.53749 47.385559 
Q 122.568455 47.7792 123.580676 47.629241 
Q 124.25549 47.629241 124.72411 47.404303 
Q 125.192731 47.179366 125.417669 46.879448 
Q 125.642607 46.579531 125.773821 45.979697 
Q 125.905034 45.379862 125.923779 44.967476 
Q 125.942524 44.55509 125.942524 43.805297 
Q 125.942524 42.718097 125.042772 42.043283 
Q 124.143021 41.368469 122.849628 41.031062 
Q 121.556234 40.693655 120.262841 40.300014 
Q 118.969448 39.906372 118.069697 38.987876 
Q 117.169945 38.069379 117.169945 36.607283 
Q 117.169945 36.082428 117.338648 35.726276 
Q 117.507352 35.370124 117.900993 35.145186 
Q 118.294634 34.920248 118.575807 34.807779 
Q 118.856979 34.69531 119.513048 34.639076 
Q 120.169117 34.582841 120.356566 34.582841 
Q 120.544014 34.582841 121.218828 34.582841 
Q 122.418497 34.582841 122.999586 34.995228 
Q 123.580676 35.407614 123.899338 36.026193 
Q 124.218 36.644772 124.480428 36.832221 
" clip-path="url(#p0aa25e196b)" style="fill: none; stroke: #000000; stroke-linejoin: miter"/>
   </g>
  </g>
  <g id="axes_9">
   <g id="patch_9">
    <path d="M 133.257476 43.917766 
Q 133.557393 44.180193 134.569614 45.154924 
Q 135.581834 46.129655 136.144179 46.560786 
Q 136.706524 46.991917 137.73749 47.385559 
Q 138.768455 47.7792 139.780676 47.629241 
Q 140.45549 47.629241 140.92411 47.404303 
Q 141.392731 47.179366 141.617669 46.879448 
Q 141.842607 46.579531 141.973821 45.979697 
Q 142.105034 45.379862 142.123779 44.967476 
Q 142.142524 44.55509 142.142524 43.805297 
Q 142.142524 42.718097 141.242772 42.043283 
Q 140.343021 41.368469 139.049628 41.031062 
Q 137.756234 40.693655 136.462841 40.300014 
Q 135.169448 39.906372 134.269697 38.987876 
Q 133.369945 38.069379 133.369945 36.607283 
Q 133.369945 36.082428 133.538648 35.726276 
Q 133.707352 35.370124 134.100993 35.145186 
Q 134.494634 34.920248 134.775807 34.807779 
Q 135.056979 34.69531 135.713048 34.639076 
Q 136.369117 34.582841 136.556566 34.582841 
Q 136.744014 34.582841 137.418828 34.582841 
Q 138.618497 34.582841 139.199586 34.995228 
Q 139.780676 35.407614 140.099338 36.026193 
Q 140.418 36.644772 140.680428 36.832221 
" clip-path="url(#p1ebc56560d)" style="fill: none; stroke: #000000; stroke-linejoin: miter"/>
   </g>
  </g>
  <g id="axes_10">
   <g id="patch_10">
    <path d="M 147.584141 38.85304 
L 148.012335 38.85304 
Q 148.83304 38.85304 149.796476 38.745991 
Q 150.759912 38.638943 151.919604 38.460529 
Q 153.079295 38.282115 153.685903 38.210749 
L 160.215859 35.427489 
M 159.894714 25.793128 
Q 159.609251 25.721762 158.574449 25.275727 
Q 157.539648 24.829692 156.897357 24.93674 
Q 156.255066 24.93674 155.737665 25.150837 
Q 155.220264 25.364934 154.881278 25.793128 
Q 154.542291 26.221322 154.27467 26.685198 
Q 154.007048 27.149075 153.864317 27.862731 
Q 153.721586 28.576388 153.614537 29.129471 
Q 153.507489 29.682555 153.489648 30.50326 
Q 153.471806 31.323965 153.453965 31.77 
Q 153.436123 32.216035 153.453965 32.965374 
Q 153.471806 33.714714 153.471806 33.928811 
Q 153.471806 36.605022 154.167621 41.850396 
Q 154.863436 47.095771 154.863436 49.771982 
Q 154.79207 50.057445 154.756388 50.681894 
Q 154.720705 51.306344 154.613656 51.805903 
Q 154.506608 52.305463 154.221145 52.555242 
" clip-path="url(#p27d279b54f)" style="fill: none; stroke: #000000; stroke-linejoin: miter"/>
   </g>
  </g>
  <g id="axes_11">
   <g id="patch_11">
    <path d="M 165.488772 35.145186 
Q 165.488772 35.145186 165.488772 35.595062 
Q 165.488772 36.269876 165.376303 37.619503 
Q 165.263834 38.969131 165.263834 39.643945 
Q 165.263834 41.930814 166.500993 43.599103 
Q 167.738152 45.267393 169.875062 45.267393 
Q 171.262179 45.154924 172.030717 43.917766 
Q 172.799255 42.680607 172.949214 41.237255 
Q 173.099172 39.793903 173.3616 37.9944 
Q 173.624028 36.194897 174.036414 35.370124 
Q 174.186372 35.070207 174.186372 35.670041 
Q 174.186372 36.269876 173.923945 38.706703 
Q 173.699007 41.031062 173.699007 41.555917 
Q 173.549048 42.643117 173.886455 43.767807 
Q 174.223862 44.892497 174.936166 45.6048 
" clip-path="url(#pd21e0af5f0)" style="fill: none; stroke: #000000; stroke-linejoin: miter"/>
   </g>
  </g>
  <g id="axes_12">
   <g id="patch_12">
    <path d="M 185.906359 28.621986 
Q 186.131297 30.34651 186.206276 32.146014 
Q 186.281255 33.945517 186.26251 36.551048 
Q 186.243766 39.156579 186.243766 40.093821 
Q 186.243766 40.13131 186.468703 45.829738 
L 186.693641 46.841959 
" clip-path="url(#pde694e5139)" style="fill: none; stroke: #000000; stroke-linejoin: miter"/>
   </g>
  </g>
  <g id="axes_13"/>
  <g id="axes_14">
   <g id="patch_13">
    <path d="M 212.457798 38.160826 
Q 215.430275 39.535596 220.149083 39.721376 
Q 221.672477 39.721376 222.359862 38.550963 
Q 223.047248 37.38055 223.047248 35.82 
Q 223.047248 35.299817 222.954358 34.909679 
Q 222.861468 34.519541 222.619954 34.296606 
Q 222.37844 34.07367 222.211239 33.943624 
Q 222.044037 33.813578 221.598165 33.757844 
Q 221.152294 33.70211 220.947936 33.683532 
Q 220.743578 33.664954 220.167661 33.683532 
Q 219.591743 33.70211 219.368807 33.70211 
Q 217.325229 33.70211 215.838991 35.578486 
Q 214.352752 37.454862 214.352752 39.609908 
Q 214.352752 42.619541 216.284862 44.570229 
Q 218.216972 46.520917 221.263761 46.520917 
Q 223.418807 46.818165 224.942202 44.29156 
" clip-path="url(#pf0f7bc07aa)" style="fill: none; stroke: #000000; stroke-linejoin: miter"/>
   </g>
  </g>
  <g id="axes_15">
   <g id="patch_14">
    <path d="M 238.499007 34.920248 
Q 237.636745 36.007448 234.525103 40.018841 
Q 231.413462 44.030234 229.726428 46.054676 
M 230.626179 36.044938 
Q 232.500662 37.319586 234.993724 40.843614 
Q 237.486786 44.367641 239.061352 45.6048 
L 240.073572 45.942207 
" clip-path="url(#p380de4d76f)" style="fill: none; stroke: #000000; stroke-linejoin: miter"/>
   </g>
  </g>
  <g id="axes_16">
   <g id="patch_15">
    <path d="M 246.320069 39.868883 
L 246.320069 39.419007 
Q 246.320069 37.769462 248.063338 36.682262 
Q 249.806607 35.595062 251.493641 35.595062 
Q 253.705531 35.595062 255.073903 36.794731 
Q 256.442276 37.9944 256.442276 40.20629 
Q 256.442276 42.30571 254.624028 43.336676 
Q 252.805779 44.367641 250.59389 44.367641 
Q 249.919076 44.367641 249.412966 44.255172 
Q 248.906855 44.142703 248.288276 43.917766 
Q 247.669697 43.692828 247.219821 43.580359 
L 246.095131 42.568138 
M 245.757724 36.832221 
Q 246.2076 38.444276 246.470028 40.262524 
Q 246.732455 42.080772 246.78869 43.749062 
Q 246.844924 45.417352 246.882414 47.27309 
Q 246.919903 49.128828 246.882414 50.778372 
L 246.769945 57.863917 
" clip-path="url(#p82d4d357ef)" style="fill: none; stroke: #000000; stroke-linejoin: miter"/>
   </g>
  </g>
  <g id="axes_17">
   <g id="patch_16">
    <path d="M 261.057798 38.160826 
Q 264.030275 39.535596 268.749083 39.721376 
Q 270.272477 39.721376 270.959862 38.550963 
Q 271.647248 37.38055 271.647248 35.82 
Q 271.647248 35.299817 271.554358 34.909679 
Q 271.461468 34.519541 271.219954 34.296606 
Q 270.97844 34.07367 270.811239 33.943624 
Q 270.644037 33.813578 270.198165 33.757844 
Q 269.752294 33.70211 269.547936 33.683532 
Q 269.343578 33.664954 268.767661 33.683532 
Q 268.191743 33.70211 267.968807 33.70211 
Q 265.925229 33.70211 264.438991 35.578486 
Q 262.952752 37.454862 262.952752 39.609908 
Q 262.952752 42.619541 264.884862 44.570229 
Q 266.816972 46.520917 269.863761 46.520917 
Q 272.018807 46.818165 273.542202 44.29156 
" clip-path="url(#pfb1b9d2fcf)" style="fill: none; stroke: #000000; stroke-linejoin: miter"/>
   </g>
  </g>
  <g id="axes_18">
   <g id="patch_17">
    <path d="M 280.013462 32.783338 
Q 280.538317 34.507862 280.669531 36.457324 
Q 280.800745 38.406786 280.725766 40.956083 
Q 280.650786 43.505379 280.688276 44.705048 
L 280.800745 46.054676 
L 280.800745 45.829738 
Q 280.800745 44.667559 280.519572 42.30571 
Q 280.2384 39.943862 280.2384 38.744193 
Q 280.2384 36.419834 281.250621 34.882759 
Q 282.262841 33.345683 284.287283 33.345683 
Q 284.999586 33.345683 285.336993 33.626855 
Q 285.6744 33.908028 285.936828 34.432883 
Q 286.199255 34.957738 286.536662 35.257655 
L 286.986538 36.832221 
" clip-path="url(#p4a373c244b)" style="fill: none; stroke: #000000; stroke-linejoin: miter"/>
   </g>
  </g>
  <g id="axes_19">
   <g id="patch_18">
    <path d="M 300.318579 29.071862 
Q 299.943683 29.146841 299.812469 29.577972 
Q 299.681255 30.009103 299.756234 30.42149 
Q 299.756234 30.571448 299.793724 30.702662 
Q 299.831214 30.833876 299.887448 30.89011 
Q 299.943683 30.946345 299.999917 31.040069 
Q 300.056152 31.133793 300.093641 31.208772 
L 300.20611 29.859145 
M 300.20611 34.020497 
Q 299.306359 39.006621 299.081421 42.793076 
L 299.531297 45.379862 
L 299.868703 46.054676 
" clip-path="url(#p56fc870b3c)" style="fill: none; stroke: #000000; stroke-linejoin: miter"/>
   </g>
  </g>
  <g id="axes_20">
   <g id="patch_19">
    <path d="M 309.608036 34.879821 
Q 310.114286 36.073125 310.403571 42.871339 
Q 310.548214 46.632054 310.8375 46.632054 
Q 310.873661 46.632054 310.909821 46.595893 
Q 311.416071 46.017321 311.470312 44.588973 
Q 311.524554 43.160625 311.307589 41.750357 
Q 311.090625 40.340089 310.8375 38.712857 
Q 310.584375 37.085625 310.584375 36.398571 
Q 310.584375 35.169107 310.964062 33.939643 
Q 311.34375 32.710179 312.320089 32.710179 
Q 313.549554 32.710179 314.272768 34.355491 
Q 314.995982 36.000804 315.158705 37.971563 
Q 315.321429 39.942321 315.429911 41.587634 
Q 315.538393 43.232946 315.683036 43.232946 
Q 315.827679 43.232946 315.91808 41.497232 
Q 316.008482 39.761518 316.135045 37.700357 
Q 316.261607 35.639196 316.984821 33.903482 
Q 317.708036 32.167768 318.9375 32.167768 
Q 320.492411 33.035625 321.161384 34.771339 
Q 321.830357 36.507054 321.794196 38.188527 
Q 321.758036 39.87 321.776116 42.057723 
Q 321.794196 44.245446 322.191964 45.511071 
" clip-path="url(#p6526a4a603)" style="fill: none; stroke: #000000; stroke-linejoin: miter"/>
   </g>
  </g>
  <g id="axes_21">
   <g id="patch_20">
    <path d="M 325.857798 38.160826 
Q 328.830275 39.535596 333.549083 39.721376 
Q 335.072477 39.721376 335.759862 38.550963 
Q 336.447248 37.38055 336.447248 35.82 
Q 336.447248 35.299817 336.354358 34.909679 
Q 336.261468 34.519541 336.019954 34.296606 
Q 335.77844 34.07367 335.611239 33.943624 
Q 335.444037 33.813578 334.998165 33.757844 
Q 334.552294 33.70211 334.347936 33.683532 
Q 334.143578 33.664954 333.567661 33.683532 
Q 332.991743 33.70211 332.768807 33.70211 
Q 330.725229 33.70211 329.238991 35.578486 
Q 327.752752 37.454862 327.752752 39.609908 
Q 327.752752 42.619541 329.684862 44.570229 
Q 331.616972 46.520917 334.663761 46.520917 
Q 336.818807 46.818165 338.342202 44.29156 
" clip-path="url(#p5c20f6bd8b)" style="fill: none; stroke: #000000; stroke-linejoin: miter"/>
   </g>
  </g>
  <g id="axes_22">
   <g id="patch_21">
    <path d="M 343.838731 37.282097 
L 343.838731 37.844441 
Q 344.101159 39.868883 344.138648 41.312234 
Q 344.176138 42.755586 344.082414 44.667559 
Q 343.98869 46.579531 343.98869 48.191586 
L 344.063669 39.643945 
Q 344.063669 38.144359 345.656979 37.507034 
Q 347.25029 36.86971 348.674897 37.282097 
Q 350.586869 37.844441 351.505366 39.04411 
Q 352.423862 40.243779 352.480097 41.668386 
Q 352.536331 43.092993 352.573821 44.817517 
Q 352.61131 46.542041 352.761269 48.191586 
" clip-path="url(#pc7bcd96188)" style="fill: none; stroke: #000000; stroke-linejoin: miter"/>
   </g>
  </g>
  <g id="axes_23">
   <g id="patch_22">
    <path d="M 359.663834 37.95691 
L 360.338648 37.95691 
Q 361.050952 37.95691 361.838234 37.881931 
Q 362.625517 37.806952 363.581503 37.675738 
Q 364.53749 37.544524 365.062345 37.507034 
L 369.336166 35.82 
M 365.287283 30.42149 
L 365.287283 31.43371 
Q 365.287283 33.383172 364.612469 37.207117 
Q 363.937655 41.031062 363.937655 43.018014 
Q 363.937655 43.805297 363.937655 44.105214 
Q 363.937655 44.405131 364.031379 45.042455 
Q 364.125103 45.679779 364.312552 45.960952 
Q 364.5 46.242124 364.893641 46.485807 
Q 365.287283 46.72949 365.849628 46.72949 
Q 365.962097 46.692 366.280759 46.72949 
Q 366.599421 46.766979 366.786869 46.710745 
Q 366.974317 46.65451 366.974317 46.392083 
" clip-path="url(#pb16b0c2d34)" style="fill: none; stroke: #000000; stroke-linejoin: miter"/>
   </g>
  </g>
  <g id="axes_24">
   <g id="patch_23">
    <path d="M 380.587531 45.979697 
Q 380.550041 46.017186 380.418828 46.054676 
Q 380.287614 46.092166 380.325103 46.167145 
Q 380.325103 46.579531 380.7 46.579531 
Q 381.037407 46.579531 381.037407 46.092166 
Q 381.112386 45.867228 380.831214 45.754759 
Q 380.550041 45.64229 380.362593 45.754759 
" clip-path="url(#pd3b1d994d9)" style="fill: none; stroke: #000000; stroke-linejoin: miter"/>
   </g>
  </g>
 </g>
 <defs>
  <clipPath id="p8e522afc5b">
   <rect x="0" y="10.777356" width="16.2" height="50.085288"/>
  </clipPath>
  <clipPath id="p942d61405b">
   <rect x="34.182993" y="8.64" width="12.634014" height="54.36"/>
  </clipPath>
  <clipPath id="pc70f223c0f">
   <rect x="49.989352" y="8.64" width="13.421297" height="54.36"/>
  </clipPath>
  <clipPath id="pf864ac3cf8">
   <rect x="64.8" y="11.850612" width="16.2" height="47.938776"/>
  </clipPath>
  <clipPath id="p849b205af4">
   <rect x="81" y="11.850612" width="16.2" height="47.938776"/>
  </clipPath>
  <clipPath id="pfc5be3aa8d">
   <rect x="97.2" y="8.881927" width="16.2" height="53.876147"/>
  </clipPath>
  <clipPath id="p0aa25e196b">
   <rect x="115.182993" y="8.64" width="12.634014" height="54.36"/>
  </clipPath>
  <clipPath id="p1ebc56560d">
   <rect x="131.382993" y="8.64" width="12.634014" height="54.36"/>
  </clipPath>
  <clipPath id="p27d279b54f">
   <rect x="145.8" y="9.949956" width="16.2" height="51.740088"/>
  </clipPath>
  <clipPath id="pd21e0af5f0">
   <rect x="163.389352" y="8.64" width="13.421297" height="54.36"/>
  </clipPath>
  <clipPath id="pde694e5139">
   <rect x="184.031876" y="8.64" width="4.536248" height="54.36"/>
  </clipPath>
  <clipPath id="pf0f7bc07aa">
   <rect x="210.6" y="8.881927" width="16.2" height="53.876147"/>
  </clipPath>
  <clipPath id="p380de4d76f">
   <rect x="227.851945" y="8.64" width="14.09611" height="54.36"/>
  </clipPath>
  <clipPath id="p82d4d357ef">
   <rect x="243.883241" y="8.64" width="14.433517" height="54.36"/>
  </clipPath>
  <clipPath id="pfb1b9d2fcf">
   <rect x="259.2" y="8.881927" width="16.2" height="53.876147"/>
  </clipPath>
  <clipPath id="p4a373c244b">
   <rect x="278.138979" y="8.64" width="10.722041" height="54.36"/>
  </clipPath>
  <clipPath id="p56fc870b3c">
   <rect x="297.206938" y="8.64" width="4.986124" height="54.36"/>
  </clipPath>
  <clipPath id="p6526a4a603">
   <rect x="307.8" y="9.603482" width="16.2" height="52.433036"/>
  </clipPath>
  <clipPath id="p5c20f6bd8b">
   <rect x="324" y="8.881927" width="16.2" height="53.876147"/>
  </clipPath>
  <clipPath id="pc7bcd96188">
   <rect x="341.964248" y="8.64" width="12.671503" height="54.36"/>
  </clipPath>
  <clipPath id="pb16b0c2d34">
   <rect x="357.789352" y="8.64" width="13.421297" height="54.36"/>
  </clipPath>
  <clipPath id="pd3b1d994d9">
   <rect x="378.413131" y="8.64" width="4.573738" height="54.36"/>
  </clipPath>
 </defs>
</svg>
