<?xml version="1.0" encoding="utf-8" standalone="no"?>
<!DOCTYPE svg PUBLIC "-//W3C//DTD SVG 1.1//EN"
  "http://www.w3.org/Graphics/SVG/1.1/DTD/svg11.dtd">
<svg xmlns:xlink="http://www.w3.org/1999/xlink" width="162pt" height="162pt" viewBox="0 0 162 162" xmlns="http://www.w3.org/2000/svg" version="1.1">
 <metadata>
  <rdf:RDF xmlns:dc="http://purl.org/dc/elements/1.1/" xmlns:cc="http://creativecommons.org/ns#" xmlns:rdf="http://www.w3.org/1999/02/22-rdf-syntax-ns#">
   <cc:Work>
    <dc:type rdf:resource="http://purl.org/dc/dcmitype/StillImage"/>
    <dc:date>2023-02-15T23:13:06.374759</dc:date>
    <dc:format>image/svg+xml</dc:format>
    <dc:creator>
     <cc:Agent>
      <dc:title>Matplotlib v3.6.1, https://matplotlib.org/</dc:title>
     </cc:Agent>
    </dc:creator>
   </cc:Work>
  </rdf:RDF>
 </metadata>
 <defs>
  <style type="text/css">*{stroke-linejoin: round; stroke-linecap: butt}</style>
 </defs>
 <g id="figure_1">
  <g id="patch_1">
   <path d="M 0 162 
L 162 162 
L 162 0 
L 0 0 
z
" style="fill: #8fff9f"/>
  </g>
  <g id="axes_1">
   <g id="patch_2">
    <path d="M 3.057886 92.214966 
L 33.392114 89.585185 
M 16.87953 84.87604 
Q 18.897735 90.441393 18.530789 100.287785 
Q 18.347315 102.244832 17.735738 102.244832 
Q 17.246477 102.244832 15.595218 100.104312 
Q 13.821644 97.596846 12.843121 97.352215 
M 12.659648 80.839631 
L 13.39354 80.839631 
Q 14.066275 80.839631 16.390268 80.442106 
Q 18.714262 80.044581 20.732466 79.616477 
L 22.750671 79.188372 
Q 22.750671 79.983423 22.077936 81.175998 
Q 21.405201 82.368574 20.36552 83.775201 
Q 19.325839 85.181829 19.081208 85.609933 
L 18.163842 86.894245 
M 16.390268 66.773356 
Q 18.041527 67.751879 21.313465 71.176711 
Q 24.585403 74.601544 27.031711 75.580067 
L 31.435067 77.414799 
M 16.573742 66.956829 
L 16.206795 66.956829 
Q 15.53406 67.629564 13.638171 69.953557 
Q 11.742282 72.27755 10.243918 73.500705 
Q 8.745554 74.723859 6.849664 75.213121 
L 4.464513 76.680906 
L 3.180201 77.047852 
M 8.133977 68.057668 
Q 12.904279 66.956829 21.894463 66.222936 
Q 22.811829 66.039463 24.64656 65.733674 
Q 26.481292 65.427886 27.215185 65.30557 
M 16.940688 62.920419 
L 16.940688 77.047852 
" clip-path="url(#p2588274860)" style="fill: none; stroke: #000000; stroke-linejoin: miter"/>
   </g>
  </g>
  <g id="axes_2">
   <g id="patch_3">
    <path d="M 43.065707 100.060445 
Q 43.829058 99.869607 45.514791 99.869607 
Q 47.200524 99.869607 48.027487 99.67877 
L 65.393717 99.297094 
M 44.210733 93.190288 
L 44.592408 93.190288 
Q 46.62801 93.190288 49.140707 92.872225 
Q 51.653403 92.554162 54.802225 92.013455 
Q 57.951047 91.472749 59.477749 91.281911 
L 62.531152 91.091073 
M 44.783246 88.801021 
Q 47.136911 87.910445 52.289529 87.369738 
Q 57.442147 86.829031 59.859424 85.938455 
Q 60.113874 85.938455 60.813613 85.843037 
Q 61.513351 85.747618 61.767801 85.747618 
L 63.294503 85.747618 
Q 63.421728 85.747618 63.580759 85.461361 
Q 63.739791 85.175105 63.994241 85.175105 
Q 64.185079 85.175105 64.185079 86.892644 
Q 64.185079 86.956257 63.803403 93.571963 
L 62.849215 98.533743 
M 58.141885 80.086099 
Q 58.650785 80.276937 59.63678 80.913063 
Q 60.622775 81.549188 61.195288 81.803639 
L 62.72199 83.139503 
M 57.760209 75.760445 
L 58.52356 75.760445 
Q 58.905236 75.760445 59.700393 76.110314 
Q 60.49555 76.460183 61.417932 77.00089 
Q 62.340314 77.541597 62.531152 77.668822 
L 63.867016 79.195524 
M 45.164921 81.231126 
Q 45.419372 81.358351 46.437173 81.70822 
Q 47.454974 82.058089 48.027487 82.503377 
L 50.699215 83.839241 
M 45.546597 76.778246 
L 46.309948 76.778246 
L 50.508377 78.686623 
M 54.325131 66.091335 
L 54.515969 84.602592 
M 50.126702 66.663848 
L 59.096073 65.137147 
M 40.203141 74.297356 
Q 44.337958 73.279555 52.734817 72.516204 
Q 61.131675 71.752853 65.012042 70.862277 
Q 66.284293 70.544215 67.333901 70.576021 
Q 68.383508 70.607827 69.05144 70.92589 
Q 69.719372 71.243953 69.464921 72.229948 
Q 69.210471 73.215942 67.874607 74.679031 
L 67.111257 76.969084 
M 40.393979 71.18034 
L 39.630628 79.068298 
" clip-path="url(#pb564d66249)" style="fill: none; stroke: #000000; stroke-linejoin: miter"/>
   </g>
  </g>
  <g id="axes_3">
   <g id="patch_4">
    <path d="M 98.046995 76.564471 
L 98.572716 76.564471 
Q 99.711779 76.914952 101.398468 78.623546 
Q 103.085156 80.332139 104.224219 80.63881 
M 99.887019 71.43869 
Q 99.448918 73.234904 98.046995 76.389231 
Q 96.645072 79.543558 96.206971 80.77024 
L 95.81268 81.295962 
M 80.961058 86.640793 
Q 82.10012 86.553173 85.166827 86.290313 
Q 88.233534 86.027452 89.350691 85.939832 
Q 90.467849 85.852212 92.724069 85.720781 
Q 94.980288 85.589351 96.907933 85.567446 
Q 98.835577 85.545541 101.113702 85.589351 
M 75.090505 95.578053 
L 76.799099 95.578053 
Q 91.30024 95.578053 107.159495 95.096142 
M 90.818329 69.029135 
Q 91.125 71.70155 91.21262 74.702542 
Q 91.30024 77.703534 91.278335 79.806418 
Q 91.25643 81.909303 91.16881 85.414111 
Q 91.08119 88.918918 91.03738 90.846563 
L 91.125 95.183762 
M 80.260096 77.046382 
Q 81.223918 77.440673 82.362981 78.623546 
L 85.911599 81.252151 
M 82.625841 73.760625 
Q 82.0125 75.206358 81.092488 76.630186 
Q 80.172476 78.054014 78.792458 79.894038 
Q 77.41244 81.734063 76.842909 82.566454 
" clip-path="url(#pbebdea9071)" style="fill: none; stroke: #000000; stroke-linejoin: miter"/>
   </g>
  </g>
  <g id="axes_4">
   <g id="patch_5">
    <path d="M 131.600153 72.768313 
Q 131.600153 72.768313 131.600153 75.954893 
Q 131.600153 78.191089 131.739916 80.70681 
Q 131.879678 83.222531 132.103298 86.297301 
Q 132.326917 89.372071 132.438727 91.049218 
L 132.103298 92.726365 
M 120.027837 93.397224 
L 143.004755 93.061794 
M 124.556135 78.973758 
L 127.742715 78.973758 
Q 127.79862 78.973758 134.954448 78.638328 
L 139.147316 78.135184 
M 117.064877 76.234417 
L 117.064877 79.756426 
Q 117.064877 79.812331 117.400307 84.117009 
L 117.568021 95.353896 
M 118.965644 69.525828 
Q 120.083742 69.358113 126.568712 69.190399 
Q 133.053681 69.022684 135.289877 67.960491 
L 137.134739 67.625061 
M 126.680521 63.488098 
Q 126.121472 68.799064 122.459701 74.305698 
Q 118.797929 79.812331 113.990107 82.719387 
L 112.145245 83.55796 
" clip-path="url(#p6a67183234)" style="fill: none; stroke: #000000; stroke-linejoin: miter"/>
   </g>
  </g>
 </g>
 <defs>
  <clipPath id="p2588274860">
   <rect x="0" y="36.255654" width="36.45" height="88.678691"/>
  </clipPath>
  <clipPath id="pb564d66249">
   <rect x="36.45" y="34.47589" width="36.45" height="92.23822"/>
  </clipPath>
  <clipPath id="pbebdea9071">
   <rect x="72.9" y="48.83268" width="36.45" height="63.524639"/>
  </clipPath>
  <clipPath id="p6a67183234">
   <rect x="109.35" y="40.063942" width="36.45" height="81.062117"/>
  </clipPath>
 </defs>
</svg>
