<?xml version="1.0" encoding="utf-8" standalone="no"?>
<!DOCTYPE svg PUBLIC "-//W3C//DTD SVG 1.1//EN"
  "http://www.w3.org/Graphics/SVG/1.1/DTD/svg11.dtd">
<svg xmlns:xlink="http://www.w3.org/1999/xlink" width="414pt" height="72pt" viewBox="0 0 414 72" xmlns="http://www.w3.org/2000/svg" version="1.1">
 <metadata>
  <rdf:RDF xmlns:dc="http://purl.org/dc/elements/1.1/" xmlns:cc="http://creativecommons.org/ns#" xmlns:rdf="http://www.w3.org/1999/02/22-rdf-syntax-ns#">
   <cc:Work>
    <dc:type rdf:resource="http://purl.org/dc/dcmitype/StillImage"/>
    <dc:date>2023-02-14T21:57:23.588325</dc:date>
    <dc:format>image/svg+xml</dc:format>
    <dc:creator>
     <cc:Agent>
      <dc:title>Matplotlib v3.6.1, https://matplotlib.org/</dc:title>
     </cc:Agent>
    </dc:creator>
   </cc:Work>
  </rdf:RDF>
 </metadata>
 <defs>
  <style type="text/css">*{stroke-linejoin: round; stroke-linecap: butt}</style>
 </defs>
 <g id="figure_1">
  <g id="patch_1">
   <path d="M 0 72 
L 414 72 
L 414 0 
L 0 0 
z
" style="fill: #8fff9f"/>
  </g>
  <g id="axes_1">
   <g id="patch_2">
    <path d="M 1.087248 30.470738 
L 2.261477 30.601208 
Q 4.088054 30.601208 5.925503 30.709933 
Q 7.762953 30.818658 10.002685 30.992617 
Q 12.242416 31.166577 13.677584 31.253557 
L 15.112752 31.123087 
M 7.871678 31.057852 
Q 7.936913 31.405772 7.675973 32.177718 
Q 7.415034 32.949664 7.610738 33.406309 
Q 7.610738 34.711007 7.752081 36.363624 
Q 7.893423 38.016242 8.110872 39.973289 
Q 8.328322 41.930336 8.393557 42.800134 
" clip-path="url(#pe6c1045e75)" style="fill: none; stroke: #000000; stroke-linejoin: miter"/>
   </g>
  </g>
  <g id="axes_2">
   <g id="patch_3">
    <path d="M 19.032703 35.332634 
L 29.379848 35.332634 
M 28.592566 39.344028 
Q 28.592566 39.344028 25.668372 39.344028 
Q 18.695297 39.344028 18.695297 44.5176 
Q 18.695297 46.279614 20.45731 47.19811 
Q 22.219324 48.116607 24.206276 48.116607 
Q 25.443434 47.891669 26.249462 47.2356 
Q 27.05549 46.579531 27.411641 45.586055 
Q 27.767793 44.592579 27.936497 43.674083 
Q 28.1052 42.755586 28.255159 41.443448 
Q 28.405117 40.13131 28.592566 39.344028 
Q 29.679766 46.092166 29.792234 47.029407 
L 29.904703 48.154097 
" clip-path="url(#p7992d5fef4)" style="fill: none; stroke: #000000; stroke-linejoin: miter"/>
   </g>
  </g>
  <g id="axes_3"/>
  <g id="axes_4">
   <g id="patch_4">
    <path d="M 61.487191 39.096404 
Q 61.23236 39.023596 60.26764 38.623146 
Q 59.302921 38.222697 58.64764 38.077079 
Q 57.99236 37.931461 57.337079 38.00427 
Q 54.715955 38.00427 53.077753 40.388764 
Q 51.439551 42.773258 51.439551 45.430787 
Q 51.439551 47.068989 56.681798 47.068989 
Q 58.247191 47.068989 59.575955 45.558202 
Q 60.904719 44.047416 61.578202 42.172584 
Q 62.251685 40.297753 62.251685 38.768764 
Q 62.251685 37.27618 62.215281 36.984944 
L 62.142472 38.077079 
Q 62.142472 38.550337 62.142472 38.987191 
Q 62.178876 40.188539 62.379101 42.281798 
Q 62.579326 44.375056 62.743146 46.049663 
Q 62.906966 47.72427 62.943371 49.872135 
Q 62.979775 52.02 62.815955 53.658202 
Q 62.652135 55.296404 62.087865 56.971011 
Q 61.523596 58.645618 60.595281 59.737753 
Q 59.666966 60.829888 58.065169 61.521573 
Q 56.463371 62.213258 54.315506 62.213258 
Q 52.677303 62.213258 51.585169 61.466966 
Q 50.493034 60.720674 50.493034 59.155281 
Q 50.420225 58.936854 50.456629 58.936854 
Q 50.493034 58.936854 50.602247 58.936854 
Q 50.711461 58.936854 50.711461 58.82764 
" clip-path="url(#p811b5e32d6)" style="fill: none; stroke: #000000; stroke-linejoin: miter"/>
   </g>
  </g>
  <g id="axes_5">
   <g id="patch_5">
    <path d="M 67.632703 35.332634 
L 77.979848 35.332634 
M 77.192566 39.344028 
Q 77.192566 39.344028 74.268372 39.344028 
Q 67.295297 39.344028 67.295297 44.5176 
Q 67.295297 46.279614 69.05731 47.19811 
Q 70.819324 48.116607 72.806276 48.116607 
Q 74.043434 47.891669 74.849462 47.2356 
Q 75.65549 46.579531 76.011641 45.586055 
Q 76.367793 44.592579 76.536497 43.674083 
Q 76.7052 42.755586 76.855159 41.443448 
Q 77.005117 40.13131 77.192566 39.344028 
Q 78.279766 46.092166 78.392234 47.029407 
L 78.504703 48.154097 
" clip-path="url(#pd026c42813)" style="fill: none; stroke: #000000; stroke-linejoin: miter"/>
   </g>
  </g>
  <g id="axes_6">
   <g id="patch_6">
    <path d="M 92.3616 35.032717 
Q 91.31189 34.582841 90.337159 34.69531 
Q 87.300497 35.032717 85.388524 36.701007 
Q 83.476552 38.369297 83.476552 41.330979 
Q 83.476552 43.917766 85.482248 45.6048 
Q 87.487945 47.291834 90.112221 47.291834 
Q 92.474069 47.291834 93.598759 45.361117 
Q 94.723448 43.4304 94.723448 40.881103 
Q 94.723448 39.643945 94.311062 38.706703 
Q 93.898676 37.769462 93.373821 37.300841 
Q 92.848966 36.832221 92.099172 36.119917 
Q 91.349379 35.407614 90.899503 34.69531 
L 89.662345 34.245434 
" clip-path="url(#pdc3f6b9b41)" style="fill: none; stroke: #000000; stroke-linejoin: miter"/>
   </g>
  </g>
  <g id="axes_7">
   <g id="patch_7">
    <path d="M 108.899007 34.920248 
Q 108.036745 36.007448 104.925103 40.018841 
Q 101.813462 44.030234 100.126428 46.054676 
M 101.026179 36.044938 
Q 102.900662 37.319586 105.393724 40.843614 
Q 107.886786 44.367641 109.461352 45.6048 
L 110.473572 45.942207 
" clip-path="url(#pd5bf759054)" style="fill: none; stroke: #000000; stroke-linejoin: miter"/>
   </g>
  </g>
  <g id="axes_8">
   <g id="patch_8">
    <path d="M 119.213131 30.384 
L 122.474731 34.657821 
M 122.137324 37.019669 
L 121.874897 41.743366 
Q 121.987366 42.268221 122.118579 43.749062 
Q 122.249793 45.229903 122.5872 46.1484 
Q 122.924607 47.066897 123.786869 47.591752 
" clip-path="url(#p4b14625785)" style="fill: none; stroke: #000000; stroke-linejoin: miter"/>
   </g>
  </g>
  <g id="axes_9">
   <g id="patch_9">
    <path d="M 133.238731 37.282097 
L 133.238731 37.844441 
Q 133.501159 39.868883 133.538648 41.312234 
Q 133.576138 42.755586 133.482414 44.667559 
Q 133.38869 46.579531 133.38869 48.191586 
L 133.463669 39.643945 
Q 133.463669 38.144359 135.056979 37.507034 
Q 136.65029 36.86971 138.074897 37.282097 
Q 139.986869 37.844441 140.905366 39.04411 
Q 141.823862 40.243779 141.880097 41.668386 
Q 141.936331 43.092993 141.973821 44.817517 
Q 142.01131 46.542041 142.161269 48.191586 
" clip-path="url(#p720dadf25a)" style="fill: none; stroke: #000000; stroke-linejoin: miter"/>
   </g>
  </g>
  <g id="axes_10">
   <g id="patch_10">
    <path d="M 158.687191 39.096404 
Q 158.43236 39.023596 157.46764 38.623146 
Q 156.502921 38.222697 155.84764 38.077079 
Q 155.19236 37.931461 154.537079 38.00427 
Q 151.915955 38.00427 150.277753 40.388764 
Q 148.639551 42.773258 148.639551 45.430787 
Q 148.639551 47.068989 153.881798 47.068989 
Q 155.447191 47.068989 156.775955 45.558202 
Q 158.104719 44.047416 158.778202 42.172584 
Q 159.451685 40.297753 159.451685 38.768764 
Q 159.451685 37.27618 159.415281 36.984944 
L 159.342472 38.077079 
Q 159.342472 38.550337 159.342472 38.987191 
Q 159.378876 40.188539 159.579101 42.281798 
Q 159.779326 44.375056 159.943146 46.049663 
Q 160.106966 47.72427 160.143371 49.872135 
Q 160.179775 52.02 160.015955 53.658202 
Q 159.852135 55.296404 159.287865 56.971011 
Q 158.723596 58.645618 157.795281 59.737753 
Q 156.866966 60.829888 155.265169 61.521573 
Q 153.663371 62.213258 151.515506 62.213258 
Q 149.877303 62.213258 148.785169 61.466966 
Q 147.693034 60.720674 147.693034 59.155281 
Q 147.620225 58.936854 147.656629 58.936854 
Q 147.693034 58.936854 147.802247 58.936854 
Q 147.911461 58.936854 147.911461 58.82764 
" clip-path="url(#pf343ec5340)" style="fill: none; stroke: #000000; stroke-linejoin: miter"/>
   </g>
  </g>
  <g id="axes_11"/>
  <g id="axes_12">
   <g id="patch_11">
    <path d="M 189.899007 39.568966 
Q 188.549379 38.181848 186.3 38.444276 
Q 183.450786 38.444276 182.288607 39.793903 
Q 181.126428 41.143531 181.126428 44.067724 
Q 181.126428 45.56731 182.419821 46.279614 
Q 183.713214 46.991917 185.287779 46.991917 
Q 186.599917 46.991917 187.612138 45.736014 
Q 188.624359 44.48011 189.205448 42.30571 
Q 189.786538 40.13131 190.161434 37.938166 
Q 190.536331 35.745021 190.68629 33.045766 
Q 190.836248 30.34651 190.873738 28.978138 
Q 190.911228 27.609766 190.911228 26.185159 
Q 190.68629 26.260138 190.68629 29.896634 
L 190.68629 44.292662 
L 191.473572 48.229076 
" clip-path="url(#pcbdddebd30)" style="fill: none; stroke: #000000; stroke-linejoin: miter"/>
   </g>
  </g>
  <g id="axes_13">
   <g id="patch_12">
    <path d="M 196.257798 38.160826 
Q 199.230275 39.535596 203.949083 39.721376 
Q 205.472477 39.721376 206.159862 38.550963 
Q 206.847248 37.38055 206.847248 35.82 
Q 206.847248 35.299817 206.754358 34.909679 
Q 206.661468 34.519541 206.419954 34.296606 
Q 206.17844 34.07367 206.011239 33.943624 
Q 205.844037 33.813578 205.398165 33.757844 
Q 204.952294 33.70211 204.747936 33.683532 
Q 204.543578 33.664954 203.967661 33.683532 
Q 203.391743 33.70211 203.168807 33.70211 
Q 201.125229 33.70211 199.638991 35.578486 
Q 198.152752 37.454862 198.152752 39.609908 
Q 198.152752 42.619541 200.084862 44.570229 
Q 202.016972 46.520917 205.063761 46.520917 
Q 207.218807 46.818165 208.742202 44.29156 
" clip-path="url(#p7f1befc2ce)" style="fill: none; stroke: #000000; stroke-linejoin: miter"/>
   </g>
  </g>
  <g id="axes_14"/>
  <g id="axes_15">
   <g id="patch_13">
    <path d="M 238.499007 34.920248 
Q 237.636745 36.007448 234.525103 40.018841 
Q 231.413462 44.030234 229.726428 46.054676 
M 230.626179 36.044938 
Q 232.500662 37.319586 234.993724 40.843614 
Q 237.486786 44.367641 239.061352 45.6048 
L 240.073572 45.942207 
" clip-path="url(#p74b1ecdd1f)" style="fill: none; stroke: #000000; stroke-linejoin: miter"/>
   </g>
  </g>
  <g id="axes_16">
   <g id="patch_14">
    <path d="M 251.718579 29.071862 
Q 251.343683 29.146841 251.212469 29.577972 
Q 251.081255 30.009103 251.156234 30.42149 
Q 251.156234 30.571448 251.193724 30.702662 
Q 251.231214 30.833876 251.287448 30.89011 
Q 251.343683 30.946345 251.399917 31.040069 
Q 251.456152 31.133793 251.493641 31.208772 
L 251.60611 29.859145 
M 251.60611 34.020497 
Q 250.706359 39.006621 250.481421 42.793076 
L 250.931297 45.379862 
L 251.268703 46.054676 
" clip-path="url(#pf49c1768d8)" style="fill: none; stroke: #000000; stroke-linejoin: miter"/>
   </g>
  </g>
  <g id="axes_17">
   <g id="patch_15">
    <path d="M 263.176138 33.983007 
Q 263.700993 34.245434 264.094634 35.107697 
Q 264.488276 35.969959 264.938152 36.607283 
Q 265.388028 37.244607 266.2128 37.132138 
Q 267.3 37.357076 268.087283 36.832221 
Q 268.874566 36.307366 269.230717 35.538828 
Q 269.586869 34.77029 270.05549 33.68309 
Q 270.52411 32.59589 270.936497 32.071034 
M 270.749048 40.281269 
L 270.411641 40.281269 
Q 269.886786 40.281269 268.762097 40.374993 
Q 267.637407 40.468717 267.037572 40.468717 
Q 265.1256 40.468717 263.663503 41.612152 
Q 262.201407 42.755586 262.201407 44.5176 
Q 262.201407 46.017186 263.775972 47.141876 
Q 265.350538 48.266566 267.037572 48.266566 
Q 268.912055 48.266566 270.111724 45.698524 
Q 271.311393 43.130483 271.311393 40.843614 
L 271.198924 40.506207 
L 271.198924 40.843614 
L 271.198924 41.968303 
Q 271.198924 42.793076 271.498841 44.367641 
Q 271.798759 45.942207 272.098676 47.104386 
L 272.398593 48.304055 
" clip-path="url(#p64fcf367b6)" style="fill: none; stroke: #000000; stroke-linejoin: miter"/>
   </g>
  </g>
  <g id="axes_18">
   <g id="patch_16">
    <path d="M 279.038731 37.282097 
L 279.038731 37.844441 
Q 279.301159 39.868883 279.338648 41.312234 
Q 279.376138 42.755586 279.282414 44.667559 
Q 279.18869 46.579531 279.18869 48.191586 
L 279.263669 39.643945 
Q 279.263669 38.144359 280.856979 37.507034 
Q 282.45029 36.86971 283.874897 37.282097 
Q 285.786869 37.844441 286.705366 39.04411 
Q 287.623862 40.243779 287.680097 41.668386 
Q 287.736331 43.092993 287.773821 44.817517 
Q 287.81131 46.542041 287.961269 48.191586 
" clip-path="url(#pa25dc01c0a)" style="fill: none; stroke: #000000; stroke-linejoin: miter"/>
   </g>
  </g>
  <g id="axes_19">
   <g id="patch_17">
    <path d="M 304.487191 39.096404 
Q 304.23236 39.023596 303.26764 38.623146 
Q 302.302921 38.222697 301.64764 38.077079 
Q 300.99236 37.931461 300.337079 38.00427 
Q 297.715955 38.00427 296.077753 40.388764 
Q 294.439551 42.773258 294.439551 45.430787 
Q 294.439551 47.068989 299.681798 47.068989 
Q 301.247191 47.068989 302.575955 45.558202 
Q 303.904719 44.047416 304.578202 42.172584 
Q 305.251685 40.297753 305.251685 38.768764 
Q 305.251685 37.27618 305.215281 36.984944 
L 305.142472 38.077079 
Q 305.142472 38.550337 305.142472 38.987191 
Q 305.178876 40.188539 305.379101 42.281798 
Q 305.579326 44.375056 305.743146 46.049663 
Q 305.906966 47.72427 305.943371 49.872135 
Q 305.979775 52.02 305.815955 53.658202 
Q 305.652135 55.296404 305.087865 56.971011 
Q 304.523596 58.645618 303.595281 59.737753 
Q 302.666966 60.829888 301.065169 61.521573 
Q 299.463371 62.213258 297.315506 62.213258 
Q 295.677303 62.213258 294.585169 61.466966 
Q 293.493034 60.720674 293.493034 59.155281 
Q 293.420225 58.936854 293.456629 58.936854 
Q 293.493034 58.936854 293.602247 58.936854 
Q 293.711461 58.936854 293.711461 58.82764 
" clip-path="url(#pf733499b69)" style="fill: none; stroke: #000000; stroke-linejoin: miter"/>
   </g>
  </g>
  <g id="axes_20">
   <g id="patch_18">
    <path d="M 319.499007 39.568966 
Q 318.149379 38.181848 315.9 38.444276 
Q 313.050786 38.444276 311.888607 39.793903 
Q 310.726428 41.143531 310.726428 44.067724 
Q 310.726428 45.56731 312.019821 46.279614 
Q 313.313214 46.991917 314.887779 46.991917 
Q 316.199917 46.991917 317.212138 45.736014 
Q 318.224359 44.48011 318.805448 42.30571 
Q 319.386538 40.13131 319.761434 37.938166 
Q 320.136331 35.745021 320.28629 33.045766 
Q 320.436248 30.34651 320.473738 28.978138 
Q 320.511228 27.609766 320.511228 26.185159 
Q 320.28629 26.260138 320.28629 29.896634 
L 320.28629 44.292662 
L 321.073572 48.229076 
" clip-path="url(#pbbf94ae5f3)" style="fill: none; stroke: #000000; stroke-linejoin: miter"/>
   </g>
  </g>
  <g id="axes_21">
   <g id="patch_19">
    <path d="M 328.613462 29.784166 
Q 329.588193 30.271531 330.881586 31.827352 
Q 332.174979 33.383172 332.662345 33.833048 
L 333.337159 34.507862 
M 336.373821 37.432055 
Q 335.061683 36.94469 334.011972 36.982179 
Q 333.749545 36.982179 332.849793 37.000924 
Q 331.950041 37.019669 331.51891 37.038414 
Q 331.087779 37.057159 330.225517 37.169628 
Q 329.363255 37.282097 328.894634 37.41331 
Q 328.426014 37.544524 327.78869 37.844441 
Q 327.151366 38.144359 326.832703 38.538 
Q 326.514041 38.931641 326.270359 39.550221 
Q 326.026676 40.1688 326.026676 40.918593 
Q 326.026676 42.830566 327.638731 44.348897 
Q 329.250786 45.867228 331.200248 45.867228 
Q 332.549876 45.867228 333.412138 45.323628 
Q 334.2744 44.780028 334.686786 43.842786 
Q 335.099172 42.905545 335.32411 41.912069 
Q 335.549048 40.918593 335.886455 39.756414 
Q 336.223862 38.594234 336.711228 37.881931 
L 337.161103 43.842786 
L 338.173324 46.991917 
" clip-path="url(#pcdb81b2211)" style="fill: none; stroke: #000000; stroke-linejoin: miter"/>
   </g>
  </g>
  <g id="axes_22">
   <g id="patch_20">
    <path d="M 351.5616 35.032717 
Q 350.51189 34.582841 349.537159 34.69531 
Q 346.500497 35.032717 344.588524 36.701007 
Q 342.676552 38.369297 342.676552 41.330979 
Q 342.676552 43.917766 344.682248 45.6048 
Q 346.687945 47.291834 349.312221 47.291834 
Q 351.674069 47.291834 352.798759 45.361117 
Q 353.923448 43.4304 353.923448 40.881103 
Q 353.923448 39.643945 353.511062 38.706703 
Q 353.098676 37.769462 352.573821 37.300841 
Q 352.048966 36.832221 351.299172 36.119917 
Q 350.549379 35.407614 350.099503 34.69531 
L 348.862345 34.245434 
" clip-path="url(#p58a35070ba)" style="fill: none; stroke: #000000; stroke-linejoin: miter"/>
   </g>
  </g>
  <g id="axes_23">
   <g id="patch_21">
    <path d="M 363.787697 39.981352 
Q 364.799917 40.956083 365.137324 42.905545 
Q 365.324772 43.955255 364.912386 46.167145 
L 363.675228 47.629241 
" clip-path="url(#pbd3dda318d)" style="fill: none; stroke: #000000; stroke-linejoin: miter"/>
   </g>
  </g>
 </g>
 <defs>
  <clipPath id="pe6c1045e75">
   <rect x="0" y="20.054899" width="16.2" height="31.530201"/>
  </clipPath>
  <clipPath id="p7992d5fef4">
   <rect x="16.820814" y="8.64" width="14.958372" height="54.36"/>
  </clipPath>
  <clipPath id="p811b5e32d6">
   <rect x="48.6" y="9.426742" width="16.2" height="52.786517"/>
  </clipPath>
  <clipPath id="pd026c42813">
   <rect x="65.420814" y="8.64" width="14.958372" height="54.36"/>
  </clipPath>
  <clipPath id="pdc3f6b9b41">
   <rect x="81.602069" y="8.64" width="14.995862" height="54.36"/>
  </clipPath>
  <clipPath id="pd5bf759054">
   <rect x="98.251945" y="8.64" width="14.09611" height="54.36"/>
  </clipPath>
  <clipPath id="p4b14625785">
   <rect x="117.338648" y="8.64" width="8.322703" height="54.36"/>
  </clipPath>
  <clipPath id="p720dadf25a">
   <rect x="131.364248" y="8.64" width="12.671503" height="54.36"/>
  </clipPath>
  <clipPath id="pf343ec5340">
   <rect x="145.8" y="9.426742" width="16.2" height="52.786517"/>
  </clipPath>
  <clipPath id="pcbdddebd30">
   <rect x="179.251945" y="8.64" width="14.09611" height="54.36"/>
  </clipPath>
  <clipPath id="p7f1befc2ce">
   <rect x="194.4" y="8.881927" width="16.2" height="53.876147"/>
  </clipPath>
  <clipPath id="p74b1ecdd1f">
   <rect x="227.851945" y="8.64" width="14.09611" height="54.36"/>
  </clipPath>
  <clipPath id="pf49c1768d8">
   <rect x="248.606938" y="8.64" width="4.986124" height="54.36"/>
  </clipPath>
  <clipPath id="p64fcf367b6">
   <rect x="260.326924" y="8.64" width="13.946152" height="54.36"/>
  </clipPath>
  <clipPath id="pa25dc01c0a">
   <rect x="277.164248" y="8.64" width="12.671503" height="54.36"/>
  </clipPath>
  <clipPath id="pf733499b69">
   <rect x="291.6" y="9.426742" width="16.2" height="52.786517"/>
  </clipPath>
  <clipPath id="pbbf94ae5f3">
   <rect x="308.851945" y="8.64" width="14.09611" height="54.36"/>
  </clipPath>
  <clipPath id="pcdb81b2211">
   <rect x="324.152193" y="8.64" width="15.895614" height="54.36"/>
  </clipPath>
  <clipPath id="p58a35070ba">
   <rect x="340.802069" y="8.64" width="14.995862" height="54.36"/>
  </clipPath>
  <clipPath id="pbd3dda318d">
   <rect x="361.800745" y="8.64" width="5.39851" height="54.36"/>
  </clipPath>
 </defs>
</svg>
