<?xml version="1.0" encoding="utf-8" standalone="no"?>
<!DOCTYPE svg PUBLIC "-//W3C//DTD SVG 1.1//EN"
  "http://www.w3.org/Graphics/SVG/1.1/DTD/svg11.dtd">
<svg xmlns:xlink="http://www.w3.org/1999/xlink" width="324pt" height="162pt" viewBox="0 0 324 162" xmlns="http://www.w3.org/2000/svg" version="1.1">
 <metadata>
  <rdf:RDF xmlns:dc="http://purl.org/dc/elements/1.1/" xmlns:cc="http://creativecommons.org/ns#" xmlns:rdf="http://www.w3.org/1999/02/22-rdf-syntax-ns#">
   <cc:Work>
    <dc:type rdf:resource="http://purl.org/dc/dcmitype/StillImage"/>
    <dc:date>2023-02-15T23:13:13.284083</dc:date>
    <dc:format>image/svg+xml</dc:format>
    <dc:creator>
     <cc:Agent>
      <dc:title>Matplotlib v3.6.1, https://matplotlib.org/</dc:title>
     </cc:Agent>
    </dc:creator>
   </cc:Work>
  </rdf:RDF>
 </metadata>
 <defs>
  <style type="text/css">*{stroke-linejoin: round; stroke-linecap: butt}</style>
 </defs>
 <g id="figure_1">
  <g id="patch_1">
   <path d="M 0 162 
L 324 162 
L 324 0 
L 0 0 
z
" style="fill: #8fff9f"/>
  </g>
  <g id="axes_1">
   <g id="patch_2">
    <path d="M 20.059108 90.020924 
Q 21.544968 89.603025 24.586338 89.603025 
Q 27.627707 89.603025 29.113567 89.185127 
L 33.013949 89.045828 
M 20.616306 79.294873 
L 21.312803 79.294873 
Q 22.984395 79.294873 28.556369 78.993057 
Q 34.128344 78.691242 34.128344 78.459076 
Q 34.128344 79.202006 33.733662 80.66465 
Q 33.338981 82.127293 32.758567 83.914968 
Q 32.178153 85.702643 32.038854 86.259841 
L 31.899554 89.881624 
M 20.477006 78.459076 
Q 21.266369 82.034427 21.173503 89.742325 
M 11.654713 81.755828 
Q 12.629809 82.359459 14.765732 83.195255 
Q 16.901656 84.031051 17.783885 84.541815 
M 11.236815 77.01965 
L 11.236815 77.576847 
Q 11.236815 79.10914 10.145637 80.780732 
Q 9.054459 82.452325 7.35965 84.332866 
Q 5.664841 86.213408 5.107643 87.049204 
L 3.71465 88.163599 
M 2.321656 79.666338 
L 2.600255 79.666338 
Q 4.782611 78.784108 7.522166 78.110828 
Q 10.26172 77.437548 12.211911 77.135732 
Q 14.162102 76.833917 17.505287 76.416019 
Q 20.848471 75.998121 22.380764 75.765955 
M 10.911783 70.426146 
L 11.190382 96.057229 
M 5.20051 71.261943 
L 5.479108 71.261943 
Q 7.057834 71.261943 9.077675 70.774395 
Q 11.097516 70.286847 13.535255 69.520701 
Q 15.972994 68.754554 17.040955 68.475955 
L 18.29465 67.918758 
" clip-path="url(#pf684f60da5)" style="fill: none; stroke: #000000; stroke-linejoin: miter"/>
   </g>
  </g>
  <g id="axes_2">
   <g id="patch_3">
    <path d="M 54.839613 78.478548 
Q 59.213613 76.550226 60.671613 75.468484 
Q 63.352452 73.493129 65.657032 68.883968 
M 59.119548 80.877194 
Q 60.060194 81.958935 61.306548 84.24 
Q 62.552903 86.521065 64.057935 88.614 
Q 65.562968 90.706935 67.632387 92.117903 
L 70.548387 93.717 
M 49.383871 82.005968 
Q 51.876581 81.441581 57.120677 80.806645 
Q 62.364774 80.17171 64.904516 79.607323 
L 69.137419 78.995903 
M 54.228194 67.614097 
L 54.228194 68.460677 
Q 54.510387 71.517774 54.298742 81.206419 
Q 54.087097 90.895065 54.134129 93.952161 
Q 54.134129 95.033903 54.157645 95.668839 
Q 54.181161 96.303774 54.322258 96.680032 
Q 54.463355 97.05629 54.533903 97.173871 
Q 54.604452 97.291452 54.933677 97.103323 
Q 55.262903 96.915194 55.474548 96.703548 
Q 55.686194 96.491903 56.274097 95.904 
Q 56.862 95.316097 57.28529 94.939839 
L 57.708581 94.469516 
M 38.801613 85.580419 
Q 42.329032 84.451645 44.586581 83.08771 
Q 45.856452 82.335194 46.679516 82.241129 
Q 47.502581 82.147065 47.831806 82.711452 
Q 48.161032 83.275839 48.255097 84.051871 
Q 48.349161 84.827903 48.255097 86.00371 
Q 48.161032 87.179516 48.019935 88.120161 
Q 47.925871 88.684548 47.878839 88.990258 
Q 47.831806 89.295968 47.784774 89.742774 
Q 47.737742 90.189581 47.737742 90.518806 
Q 47.737742 90.848032 47.737742 91.130226 
Q 48.019935 97.761774 46.561935 97.573645 
L 44.116258 95.410161 
M 39.507097 77.443839 
Q 40.118516 77.396806 40.071484 78.149323 
Q 40.024452 78.807774 39.977419 79.866 
Q 39.930387 80.924226 39.883355 81.488613 
Q 39.836323 82.053 39.554129 83.20529 
Q 39.271935 84.357581 38.801613 85.862613 
M 39.366 77.161645 
Q 39.930387 76.973516 41.059161 76.597258 
Q 42.187935 76.221 42.752323 76.056387 
Q 43.31671 75.891774 44.280871 75.750677 
Q 45.245032 75.609581 46.185677 75.609581 
L 48.255097 74.904097 
M 39.78929 69.871645 
L 45.056903 68.319581 
Q 46.844129 68.178484 46.891161 68.178484 
L 48.019935 68.178484 
L 47.032258 75.18629 
" clip-path="url(#p5f2b6428dd)" style="fill: none; stroke: #000000; stroke-linejoin: miter"/>
   </g>
  </g>
  <g id="axes_3">
   <g id="patch_4">
    <path d="M 90.430714 88.449107 
Q 90.777857 88.362321 91.211786 88.969821 
Q 91.645714 89.577321 92.123036 89.490536 
L 94.986964 90.792321 
M 85.093393 86.800179 
Q 87.957321 86.236071 90.973125 86.149286 
Q 93.988929 86.0625 96.136875 86.214375 
Q 98.284821 86.36625 101.278929 86.257768 
Q 104.273036 86.149286 107.180357 85.628571 
M 99.0225 83.892857 
L 98.762143 96.129643 
L 97.330179 94.26375 
M 102.146786 68.097857 
Q 102.710893 68.531786 103.687232 69.681696 
Q 104.663571 70.831607 105.140893 71.265536 
M 95.941607 67.23 
L 96.028393 84.804107 
M 91.42875 71.048571 
L 99.93375 70.57125 
M 92.079643 80.811964 
L 100.324286 80.161071 
M 92.03625 77.383929 
L 100.063929 76.863214 
M 88.99875 74.303036 
Q 90.864643 73.825714 93.034286 73.60875 
Q 95.203929 73.391786 97.894286 73.283304 
Q 100.584643 73.174821 102.016607 73.00125 
Q 102.016607 73.00125 103.708929 73.00125 
Q 103.839107 73.00125 103.839107 73.478571 
Q 103.839107 78.338571 102.841071 81.81 
L 102.190179 83.545714 
M 88.99875 73.478571 
L 88.99875 74.303036 
L 88.99875 76.516071 
L 89.649643 82.981607 
M 75.069643 78.381964 
Q 75.807321 77.86125 79.365536 77.470714 
L 86.395179 77.340536 
M 80.927679 68.358214 
L 80.927679 88.275536 
L 80.754107 95.912679 
" clip-path="url(#pcf941e8bc8)" style="fill: none; stroke: #000000; stroke-linejoin: miter"/>
   </g>
  </g>
  <g id="axes_4">
   <g id="patch_5">
    <path d="M 111.556416 79.138765 
L 112.218341 79.138765 
Q 117.557869 78.697482 127.883898 78.763674 
Q 138.209927 78.829867 143.593584 78.47684 
" clip-path="url(#p27f624e584)" style="fill: none; stroke: #000000; stroke-linejoin: miter"/>
   </g>
  </g>
  <g id="axes_5">
   <g id="patch_6">
    <path d="M 170.838309 76.213296 
L 170.838309 84.302596 
Q 171.560568 84.398897 172.93286 84.63965 
Q 174.305152 84.880403 175.484841 85.024855 
Q 176.664531 85.169306 177.771995 85.169306 
Q 178.157199 85.169306 178.494254 85.097081 
Q 178.831308 85.024855 179.192437 84.904478 
Q 179.553567 84.784102 179.79432 84.735951 
L 179.505416 81.991367 
M 170.838309 75.491037 
L 178.494254 75.346585 
M 169.249339 72.024194 
Q 170.164201 71.68714 173.390291 71.422312 
Q 176.61638 71.157483 177.771995 70.86858 
L 178.20535 70.86858 
L 175.605218 74.91323 
M 154.130053 83.098831 
L 154.130053 83.676638 
Q 160.774835 93.017853 179.84247 91.621486 
M 154.130053 82.23212 
L 154.130053 82.665476 
Q 154.130053 84.398897 153.215192 85.795264 
Q 152.30033 87.191631 150.807662 88.563923 
Q 149.314993 89.936215 148.785337 90.754775 
L 148.20753 91.188131 
M 159.330317 81.943217 
L 165.686196 81.798765 
M 158.896962 78.765277 
L 159.041413 85.265608 
L 159.330317 85.698963 
M 149.363144 78.909729 
Q 152.685535 78.235621 155.237517 78.5486 
Q 157.789498 78.861579 161.087814 78.837503 
Q 164.386129 78.813428 166.745509 77.705964 
M 158.896962 64.897906 
Q 159.715522 69.472213 159.763672 72.409399 
Q 159.763672 72.45755 159.619221 74.865079 
L 159.330317 77.32076 
M 154.274505 72.553851 
L 162.652708 72.553851 
" clip-path="url(#p022070c8cb)" style="fill: none; stroke: #000000; stroke-linejoin: miter"/>
   </g>
  </g>
  <g id="axes_6">
   <g id="patch_7">
    <path d="M 200.079378 81.755492 
L 200.395876 88.560195 
L 200.870622 93.307663 
Q 201.556368 95.1539 203.086107 96.314392 
Q 205.51259 98.582627 210.049059 98.371628 
Q 210.260058 98.371628 210.972178 98.424378 
Q 211.684298 98.477127 212.317294 98.477127 
Q 212.950289 98.477127 213.60966 98.424378 
Q 214.26903 98.371628 214.691027 98.134255 
Q 215.113025 97.896881 215.113025 97.422135 
L 215.113025 96.63089 
L 216.062518 94.415405 
M 194.224168 81.913741 
Q 193.380174 95.734146 185.045731 97.105637 
M 185.362229 82.07199 
L 186.153473 82.07199 
Q 186.417221 82.07199 186.68097 82.07199 
Q 186.944718 82.07199 186.997467 82.01924 
Q 187.102967 81.808242 188.527207 81.438994 
L 210.207308 80.067504 
M 191.533936 76.111281 
L 204.826845 75.109038 
M 198.33864 65.192106 
L 201.345369 66.616346 
M 185.678726 70.572569 
L 191.05919 70.41432 
Q 192.166932 70.256071 194.276918 69.913198 
Q 196.386903 69.570326 198.101266 69.359327 
Q 199.81563 69.148329 201.345369 69.148329 
L 206.884081 69.148329 
Q 208.044573 69.148329 211.024928 68.963705 
Q 214.005282 68.779081 214.005282 68.515333 
Q 214.005282 68.726331 213.477786 69.517576 
Q 212.950289 70.308821 212.84479 70.41432 
L 210.998553 72.313307 
M 187.419465 67.249342 
L 187.419465 67.565839 
L 184.887482 74.212294 
" clip-path="url(#p6b1c72abe6)" style="fill: none; stroke: #000000; stroke-linejoin: miter"/>
   </g>
  </g>
  <g id="axes_7">
   <g id="patch_8">
    <path d="M 226.354033 76.767983 
Q 226.260691 77.701402 226.540717 79.381556 
Q 226.820743 81.061709 226.774072 81.948457 
Q 226.774072 83.06856 226.727401 84.001978 
Q 226.68073 84.935397 226.634059 85.682132 
Q 226.587388 86.428867 226.377369 87.245608 
Q 226.16735 88.06235 226.120679 88.505723 
Q 226.074008 88.949097 225.70064 89.765839 
Q 225.327273 90.58258 225.210595 90.885941 
Q 225.093918 91.189302 224.557202 92.099385 
Q 224.020487 93.009469 223.857138 93.266159 
Q 223.69379 93.522849 222.970391 94.689622 
Q 222.246991 95.856396 222.013636 96.229763 
L 221.033547 97.349866 
M 238.581818 69.207292 
L 239.141869 69.207292 
Q 239.65525 69.207292 240.028617 69.440647 
Q 240.401985 69.674001 240.868694 70.09404 
Q 241.335403 70.514078 241.6621 70.747433 
L 243.15557 71.867535 
M 246.889245 79.988278 
Q 246.842574 80.548329 246.725896 81.10838 
Q 246.609219 81.668431 246.3992 82.275154 
Q 246.189181 82.881876 246.025832 83.348585 
Q 245.862484 83.815294 245.535787 84.492023 
Q 245.209091 85.168752 245.045743 85.518784 
Q 244.882394 85.868816 244.462356 86.592215 
Q 244.042318 87.315615 243.902305 87.59564 
Q 243.762292 87.875666 243.272247 88.669072 
Q 242.782202 89.462478 242.68886 89.649161 
L 240.16863 92.169392 
M 235.268182 66.967087 
L 236.948335 73.267663 
Q 237.18169 73.827714 238.465141 77.60806 
Q 239.748592 81.388406 240.822023 83.11523 
Q 241.288732 83.815294 242.968886 87.642311 
Q 244.64904 91.469328 246.375864 93.639526 
Q 248.102689 95.809725 250.249552 95.809725 
Q 251.462996 94.876306 251.813028 94.33959 
Q 252.16306 93.802875 252.816453 92.122721 
M 227.007426 84.888726 
L 230.087708 84.6087 
Q 230.507746 84.468688 231.744526 83.931972 
Q 232.981306 83.395256 234.054738 83.021889 
Q 235.128169 82.648521 235.828233 82.648521 
Q 236.201601 82.928547 235.898239 84.655371 
Q 235.594878 86.382196 235.828233 86.988918 
Q 236.341613 88.10902 236.131594 92.029379 
Q 235.921575 95.949738 234.988156 95.949738 
Q 234.801472 95.949738 234.708131 95.949738 
L 234.66146 95.949738 
Q 234.801472 95.903067 234.428105 95.809725 
L 231.907875 94.129571 
M 227.007426 76.347945 
Q 230.087708 75.321184 236.038252 74.737798 
Q 241.988796 74.154411 244.835723 73.314334 
" clip-path="url(#ped233c505f)" style="fill: none; stroke: #000000; stroke-linejoin: miter"/>
   </g>
  </g>
  <g id="axes_8">
   <g id="patch_9">
    <path d="M 278.17425 76.707 
Q 279.99675 77.193 283.64175 79.80525 
M 275.4405 68.87025 
Q 277.8705 69.0525 281.637 68.110875 
Q 285.4035 67.16925 286.74 67.04775 
Q 287.40825 67.04775 287.77275 67.199625 
Q 288.13725 67.3515 288.25875 67.746375 
Q 288.38025 68.14125 288.349875 68.536125 
Q 288.3195 68.931 288.25875 69.7815 
Q 288.198 70.632 288.198 71.2395 
Q 288.5625 78.165 287.28675 92.92725 
Q 287.28675 93.53475 287.28675 94.02075 
Q 287.28675 94.50675 287.256375 94.87125 
Q 287.226 95.23575 286.952625 95.448375 
Q 286.67925 95.661 286.011 95.661 
L 284.9175 95.661 
L 281.09025 93.1095 
M 278.3565 61.21575 
L 278.3565 61.7625 
Q 278.3565 63.099 277.749 64.86075 
Q 277.1415 66.6225 276.1695 68.688 
Q 275.1975 70.7535 274.89375 71.604 
L 273.80025 73.4265 
M 259.8885 93.474 
L 261.52875 93.474 
L 271.00575 92.92725 
M 259.8885 80.7165 
L 269.001 80.352 
M 258.1875 71.118 
L 261.28575 71.118 
Q 262.0755 71.118 264.56625 70.57125 
Q 267.057 70.0245 269.1225 69.47775 
Q 271.188 68.931 271.188 68.87025 
Q 271.188 86.5485 270.8235 92.016 
L 270.27675 96.0255 
M 258.9165 69.2955 
L 258.9165 69.84225 
Q 258.9165 72.63675 259.58475 77.891625 
Q 260.253 83.1465 260.253 86.00175 
L 260.253 92.016 
L 259.524 93.8385 
M 268.81875 62.67375 
Q 268.08975 63.15975 267.23925 64.6785 
Q 266.38875 66.19725 265.7205 66.68325 
L 264.2625 69.96375 
" clip-path="url(#p5878c0558c)" style="fill: none; stroke: #000000; stroke-linejoin: miter"/>
   </g>
  </g>
 </g>
 <defs>
  <clipPath id="pf684f60da5">
   <rect x="0" y="46.930987" width="36.45" height="67.328025"/>
  </clipPath>
  <clipPath id="p5f2b6428dd">
   <rect x="36.45" y="46.496613" width="36.45" height="68.196774"/>
  </clipPath>
  <clipPath id="pcf941e8bc8">
   <rect x="72.9" y="49.135179" width="36.45" height="62.919643"/>
  </clipPath>
  <clipPath id="p27f624e584">
   <rect x="109.35" y="48.601961" width="36.45" height="63.986077"/>
  </clipPath>
  <clipPath id="p022070c8cb">
   <rect x="145.8" y="45.685819" width="36.45" height="69.818362"/>
  </clipPath>
  <clipPath id="p6b1c72abe6">
   <rect x="182.25" y="42.351512" width="36.45" height="76.486975"/>
  </clipPath>
  <clipPath id="ped233c505f">
   <rect x="218.7" y="46.758572" width="36.45" height="67.672855"/>
  </clipPath>
  <clipPath id="p5878c0558c">
   <rect x="255.15" y="36.55125" width="36.45" height="88.0875"/>
  </clipPath>
 </defs>
</svg>
