<?xml version="1.0" encoding="utf-8" standalone="no"?>
<!DOCTYPE svg PUBLIC "-//W3C//DTD SVG 1.1//EN"
  "http://www.w3.org/Graphics/SVG/1.1/DTD/svg11.dtd">
<svg xmlns:xlink="http://www.w3.org/1999/xlink" width="94.5pt" height="72pt" viewBox="0 0 94.5 72" xmlns="http://www.w3.org/2000/svg" version="1.1">
 <metadata>
  <rdf:RDF xmlns:dc="http://purl.org/dc/elements/1.1/" xmlns:cc="http://creativecommons.org/ns#" xmlns:rdf="http://www.w3.org/1999/02/22-rdf-syntax-ns#">
   <cc:Work>
    <dc:type rdf:resource="http://purl.org/dc/dcmitype/StillImage"/>
    <dc:date>2023-02-14T21:57:04.691762</dc:date>
    <dc:format>image/svg+xml</dc:format>
    <dc:creator>
     <cc:Agent>
      <dc:title>Matplotlib v3.6.1, https://matplotlib.org/</dc:title>
     </cc:Agent>
    </dc:creator>
   </cc:Work>
  </rdf:RDF>
 </metadata>
 <defs>
  <style type="text/css">*{stroke-linejoin: round; stroke-linecap: butt}</style>
 </defs>
 <g id="figure_1">
  <g id="patch_1">
   <path d="M 0 72 
L 94.5 72 
L 94.5 0 
L 0 0 
z
" style="fill: #8fff9f"/>
  </g>
  <g id="axes_1">
   <g id="patch_2">
    <path d="M 10.238586 40.243779 
L 18.036434 40.018841 
L 19.723469 39.793903 
M 8.963938 33.383172 
Q 9.001428 33.195724 9.132641 33.083255 
Q 9.263855 32.970786 9.395069 32.933297 
Q 9.526283 32.895807 9.78871 32.858317 
Q 10.051138 32.820828 10.088628 32.820828 
L 13.800103 32.820828 
Q 14.887303 32.820828 16.499359 32.5584 
Q 18.111414 32.295972 19.198614 32.295972 
Q 19.536021 32.295972 19.536021 32.52091 
Q 19.536021 34.245434 19.161124 35.670041 
L 18.598779 39.344028 
M 8.739 33.158234 
Q 9.226366 34.207945 9.338834 35.85749 
Q 9.451303 37.507034 9.78871 38.444276 
L 10.238586 41.143531 
M 3.003083 46.617021 
L 17.211662 46.504552 
L 22.985069 46.392083 
M 2.028352 26.485076 
L 2.028352 26.260138 
Q 3.602917 25.735283 5.496145 25.660303 
Q 7.389372 25.585324 9.676241 25.679048 
Q 11.96311 25.772772 13.275248 25.697793 
Q 21.223055 25.135448 25.459386 25.135448 
Q 26.284159 26.110179 26.302903 28.17211 
Q 26.321648 30.234041 26.059221 32.745848 
Q 25.796793 35.257655 26.021731 36.494814 
Q 26.284159 38.931641 26.246669 40.412483 
Q 26.209179 41.893324 26.040476 44.573834 
Q 25.871772 47.254345 25.871772 48.528993 
Q 25.871772 48.566483 25.759303 48.8664 
L 23.284986 47.179366 
L 22.385234 46.392083 
M 2.25329 26.597545 
L 2.25329 28.17211 
Q 2.25329 32.445931 2.553207 35.82 
L 2.665676 48.528993 
" clip-path="url(#p9610c8badf)" style="fill: none; stroke: #000000; stroke-linejoin: miter"/>
   </g>
  </g>
  <g id="axes_2">
   <g id="patch_3">
    <path d="M 31.747059 33.102353 
L 31.747059 33.472941 
Q 31.747059 34.028824 31.577206 34.692794 
Q 31.407353 35.356765 31.113971 36.175147 
Q 30.820588 36.993529 30.727941 37.364118 
L 29.894118 39.217059 
M 34.804412 32.453824 
L 38.232353 35.325882 
M 34.341176 26.709706 
L 34.433824 47.37 
M 39.313235 30.786176 
L 39.683824 30.786176 
Q 40.239706 30.878824 43.605882 29.581765 
Q 46.879412 28.315588 47.064706 28.778824 
Q 47.157353 29.025882 46.632353 29.705294 
Q 44.007353 33.071471 42.355147 36.051618 
Q 40.702941 39.031765 40.239706 42.274412 
Q 40.085294 43.262647 40.316912 44.034706 
Q 40.548529 44.806765 40.919118 45.285441 
Q 41.289706 45.764118 42.108088 46.088382 
Q 42.926471 46.412647 43.466912 46.551618 
Q 44.007353 46.690588 45.119118 46.721471 
Q 46.230882 46.752353 46.678676 46.736912 
Q 47.126471 46.721471 48.238235 46.659706 
Q 48.269118 46.659706 48.3 46.659706 
Q 48.825 46.628824 50.863235 46.752353 
Q 52.901471 46.875882 53.889706 46.644265 
Q 54.877941 46.412647 54.877941 45.547941 
Q 54.877941 45.517059 55.155882 42.768529 
" clip-path="url(#p8b17c4b460)" style="fill: none; stroke: #000000; stroke-linejoin: miter"/>
   </g>
  </g>
  <g id="axes_3">
   <g id="patch_4">
    <path d="M 66.391997 43.624417 
Q 67.662484 43.40662 70.747951 43.261421 
Q 73.833419 43.116223 75.539501 42.789526 
L 76.628489 42.571729 
M 66.900192 39.63146 
L 67.553585 39.63146 
L 76.047695 39.413662 
M 65.920102 46.492087 
Q 65.920102 46.492087 66.464597 46.492087 
L 73.651921 46.492087 
L 75.394302 46.746184 
M 66.029001 36.001498 
Q 66.029001 36.001498 66.682394 36.001498 
Q 68.533675 36.001498 72.290685 35.511453 
Q 76.047695 35.021408 77.898976 35.021408 
Q 78.116773 35.021408 78.116773 35.348105 
Q 77.717478 38.723969 77.663028 40.357452 
Q 77.608579 41.990935 77.681178 45.403099 
Q 77.681178 45.584597 77.717478 46.056492 
Q 77.935275 48.524866 77.245583 48.561165 
Q 76.882586 48.597465 76.265493 48.052971 
L 75.6121 47.617375 
M 66.464597 36.654891 
Q 66.464597 36.691191 66.700544 37.181236 
Q 66.936492 37.67128 66.900192 37.961677 
L 66.791293 46.492087 
L 66.682394 47.472177 
M 69.187068 28.814174 
Q 69.150768 29.140871 69.187068 29.467567 
Q 69.187068 31.681844 68.06178 33.877971 
Q 66.936492 36.074097 65.520807 37.562382 
Q 64.105122 39.050666 62.253841 41.028995 
Q 60.402561 43.007324 59.49507 44.386709 
L 58.514981 44.931204 
M 60.329962 33.787222 
L 75.358003 32.698233 
L 83.235019 32.335237 
M 64.395519 31.318848 
L 65.048912 31.318848 
Q 66.319398 31.318848 67.825832 31.173649 
Q 69.332266 31.028451 71.165397 30.792503 
Q 72.998528 30.556556 73.978617 30.447657 
L 75.6121 30.12096 
M 62.653137 29.685365 
L 63.088732 29.685365 
Q 64.25032 29.685365 65.901953 29.394968 
Q 67.553585 29.104571 69.586364 28.650826 
Q 71.619142 28.197081 72.454033 28.051882 
L 77.46338 27.725186 
M 72.889629 25.365711 
Q 72.671831 25.547209 72.308835 25.928355 
Q 71.945839 26.309501 71.909539 26.3458 
L 70.639052 27.434789 
M 64.867414 25.510909 
L 67.335787 27.725186 
" clip-path="url(#p88130b75ba)" style="fill: none; stroke: #000000; stroke-linejoin: miter"/>
   </g>
  </g>
 </g>
 <defs>
  <clipPath id="p9610c8badf">
   <rect x="0.153869" y="8.64" width="28.042262" height="54.36"/>
  </clipPath>
  <clipPath id="p8b17c4b460">
   <rect x="28.35" y="13.430294" width="28.35" height="44.779412"/>
  </clipPath>
  <clipPath id="p88130b75ba">
   <rect x="56.7" y="9.502778" width="28.35" height="52.634443"/>
  </clipPath>
 </defs>
</svg>
