<?xml version="1.0" encoding="utf-8" standalone="no"?>
<!DOCTYPE svg PUBLIC "-//W3C//DTD SVG 1.1//EN"
  "http://www.w3.org/Graphics/SVG/1.1/DTD/svg11.dtd">
<svg xmlns:xlink="http://www.w3.org/1999/xlink" width="396pt" height="72pt" viewBox="0 0 396 72" xmlns="http://www.w3.org/2000/svg" version="1.1">
 <metadata>
  <rdf:RDF xmlns:dc="http://purl.org/dc/elements/1.1/" xmlns:cc="http://creativecommons.org/ns#" xmlns:rdf="http://www.w3.org/1999/02/22-rdf-syntax-ns#">
   <cc:Work>
    <dc:type rdf:resource="http://purl.org/dc/dcmitype/StillImage"/>
    <dc:date>2023-02-15T23:13:54.106043</dc:date>
    <dc:format>image/svg+xml</dc:format>
    <dc:creator>
     <cc:Agent>
      <dc:title>Matplotlib v3.6.1, https://matplotlib.org/</dc:title>
     </cc:Agent>
    </dc:creator>
   </cc:Work>
  </rdf:RDF>
 </metadata>
 <defs>
  <style type="text/css">*{stroke-linejoin: round; stroke-linecap: butt}</style>
 </defs>
 <g id="figure_1">
  <g id="patch_1">
   <path d="M 0 72 
L 396 72 
L 396 0 
L 0 0 
z
" style="fill: #8fff9f"/>
  </g>
  <g id="axes_1">
   <g id="patch_2">
    <path d="M 1.653061 45.374694 
Q 5.752653 45.440816 12.761633 45.870612 
Q 13.191429 45.903673 13.373265 45.887143 
Q 13.555102 45.870612 13.951837 45.787959 
Q 14.348571 45.705306 14.546939 45.672245 
M 3.24 27.521633 
L 3.24 29.406122 
Q 3.24 31.588163 3.025102 33.985102 
Q 2.810204 36.382041 2.446531 39.291429 
Q 2.082857 42.200816 1.950612 43.787755 
L 1.653061 45.374694 
" clip-path="url(#p82b66095bb)" style="fill: none; stroke: #000000; stroke-linejoin: miter"/>
   </g>
  </g>
  <g id="axes_2">
   <g id="patch_3">
    <path d="M 21.600745 33.345683 
L 21.600745 33.570621 
Q 21.600745 34.545352 22.575476 35.969959 
Q 23.550207 37.394566 24.524938 37.394566 
Q 24.899834 37.394566 25.255986 36.9072 
Q 25.612138 36.419834 25.9308 35.726276 
Q 26.249462 35.032717 26.324441 34.920248 
L 26.999255 31.771117 
M 24.562428 39.419007 
L 24.112552 47.291834 
L 23.775145 47.74171 
" clip-path="url(#p6e26078ecd)" style="fill: none; stroke: #000000; stroke-linejoin: miter"/>
   </g>
  </g>
  <g id="axes_3"/>
  <g id="axes_4">
   <g id="patch_4">
    <path d="M 62.494615 26.878846 
Q 61.746923 28.997308 60.282692 31.271538 
Q 58.818462 33.545769 57.400962 35.228077 
Q 55.983462 36.910385 54.456923 39.153462 
Q 52.930385 41.396538 52.120385 43.421538 
L 51.559615 45.290769 
M 50.157692 27.439615 
Q 51.777692 29.620385 55.126731 34.776346 
Q 58.475769 39.932308 60.531923 42.486923 
L 63.242308 46.131923 
" clip-path="url(#p1d5e818ac0)" style="fill: none; stroke: #000000; stroke-linejoin: miter"/>
   </g>
  </g>
  <g id="axes_5">
   <g id="patch_5">
    <path d="M 68.288772 35.145186 
Q 68.288772 35.145186 68.288772 35.595062 
Q 68.288772 36.269876 68.176303 37.619503 
Q 68.063834 38.969131 68.063834 39.643945 
Q 68.063834 41.930814 69.300993 43.599103 
Q 70.538152 45.267393 72.675062 45.267393 
Q 74.062179 45.154924 74.830717 43.917766 
Q 75.599255 42.680607 75.749214 41.237255 
Q 75.899172 39.793903 76.1616 37.9944 
Q 76.424028 36.194897 76.836414 35.370124 
Q 76.986372 35.070207 76.986372 35.670041 
Q 76.986372 36.269876 76.723945 38.706703 
Q 76.499007 41.031062 76.499007 41.555917 
Q 76.349048 42.643117 76.686455 43.767807 
Q 77.023862 44.892497 77.736166 45.6048 
" clip-path="url(#pe7f532e98f)" style="fill: none; stroke: #000000; stroke-linejoin: miter"/>
   </g>
  </g>
  <g id="axes_6">
   <g id="patch_6">
    <path d="M 86.288276 30.608938 
Q 86.400745 30.871366 86.663172 31.602414 
Q 86.9256 32.333462 87.131793 32.783338 
Q 87.337986 33.233214 87.675393 33.758069 
Q 88.0128 34.282924 88.51891 34.507862 
Q 89.025021 34.7328 89.662345 34.657821 
Q 92.474069 34.657821 92.811476 29.25931 
M 83.926428 41.968303 
L 84.376303 41.968303 
Q 84.938648 41.968303 86.400745 42.474414 
Q 87.862841 42.980524 88.650124 42.980524 
Q 91.011972 42.980524 92.305366 42.211986 
Q 93.598759 41.443448 93.598759 39.269048 
Q 93.598759 37.132138 88.312717 37.132138 
Q 87.225517 37.132138 86.456979 37.694483 
Q 85.688441 38.256828 85.313545 39.194069 
Q 84.938648 40.13131 84.769945 41.049807 
Q 84.601241 41.968303 84.601241 42.980524 
Q 84.338814 44.105214 84.71371 44.967476 
Q 85.088607 45.829738 86.025848 46.335848 
Q 86.96309 46.841959 87.806607 47.123131 
Q 88.650124 47.404303 89.774814 47.591752 
Q 90.374648 47.704221 92.3616 47.704221 
Q 92.811476 47.81669 93.148883 47.573007 
Q 93.48629 47.329324 93.823697 46.748234 
Q 94.161103 46.167145 94.273572 46.017186 
" clip-path="url(#pc9537c0692)" style="fill: none; stroke: #000000; stroke-linejoin: miter"/>
   </g>
  </g>
  <g id="axes_7"/>
  <g id="axes_8">
   <g id="patch_7">
    <path d="M 117.057476 43.917766 
Q 117.357393 44.180193 118.369614 45.154924 
Q 119.381834 46.129655 119.944179 46.560786 
Q 120.506524 46.991917 121.53749 47.385559 
Q 122.568455 47.7792 123.580676 47.629241 
Q 124.25549 47.629241 124.72411 47.404303 
Q 125.192731 47.179366 125.417669 46.879448 
Q 125.642607 46.579531 125.773821 45.979697 
Q 125.905034 45.379862 125.923779 44.967476 
Q 125.942524 44.55509 125.942524 43.805297 
Q 125.942524 42.718097 125.042772 42.043283 
Q 124.143021 41.368469 122.849628 41.031062 
Q 121.556234 40.693655 120.262841 40.300014 
Q 118.969448 39.906372 118.069697 38.987876 
Q 117.169945 38.069379 117.169945 36.607283 
Q 117.169945 36.082428 117.338648 35.726276 
Q 117.507352 35.370124 117.900993 35.145186 
Q 118.294634 34.920248 118.575807 34.807779 
Q 118.856979 34.69531 119.513048 34.639076 
Q 120.169117 34.582841 120.356566 34.582841 
Q 120.544014 34.582841 121.218828 34.582841 
Q 122.418497 34.582841 122.999586 34.995228 
Q 123.580676 35.407614 123.899338 36.026193 
Q 124.218 36.644772 124.480428 36.832221 
" clip-path="url(#p9550190ff6)" style="fill: none; stroke: #000000; stroke-linejoin: miter"/>
   </g>
  </g>
  <g id="axes_9">
   <g id="patch_8">
    <path d="M 133.088772 35.145186 
Q 133.088772 35.145186 133.088772 35.595062 
Q 133.088772 36.269876 132.976303 37.619503 
Q 132.863834 38.969131 132.863834 39.643945 
Q 132.863834 41.930814 134.100993 43.599103 
Q 135.338152 45.267393 137.475062 45.267393 
Q 138.862179 45.154924 139.630717 43.917766 
Q 140.399255 42.680607 140.549214 41.237255 
Q 140.699172 39.793903 140.9616 37.9944 
Q 141.224028 36.194897 141.636414 35.370124 
Q 141.786372 35.070207 141.786372 35.670041 
Q 141.786372 36.269876 141.523945 38.706703 
Q 141.299007 41.031062 141.299007 41.555917 
Q 141.149048 42.643117 141.486455 43.767807 
Q 141.823862 44.892497 142.536166 45.6048 
" clip-path="url(#pe781d6f2bb)" style="fill: none; stroke: #000000; stroke-linejoin: miter"/>
   </g>
  </g>
  <g id="axes_10">
   <g id="patch_9">
    <path d="M 150.357228 36.157407 
L 157.442772 36.157407 
M 153.843766 39.306538 
L 153.843766 47.516772 
" clip-path="url(#p5e9843fcc5)" style="fill: none; stroke: #000000; stroke-linejoin: miter"/>
   </g>
  </g>
  <g id="axes_11">
   <g id="patch_10">
    <path d="M 166.613462 32.783338 
Q 167.138317 34.507862 167.269531 36.457324 
Q 167.400745 38.406786 167.325766 40.956083 
Q 167.250786 43.505379 167.288276 44.705048 
L 167.400745 46.054676 
L 167.400745 45.829738 
Q 167.400745 44.667559 167.119572 42.30571 
Q 166.8384 39.943862 166.8384 38.744193 
Q 166.8384 36.419834 167.850621 34.882759 
Q 168.862841 33.345683 170.887283 33.345683 
Q 171.599586 33.345683 171.936993 33.626855 
Q 172.2744 33.908028 172.536828 34.432883 
Q 172.799255 34.957738 173.136662 35.257655 
L 173.586538 36.832221 
" clip-path="url(#pf5b04f9aff)" style="fill: none; stroke: #000000; stroke-linejoin: miter"/>
   </g>
  </g>
  <g id="axes_12">
   <g id="patch_11">
    <path d="M 183.319572 33.795559 
L 183.319572 33.570621 
Q 183.319572 33.383172 183.375807 33.289448 
Q 183.432041 33.195724 183.507021 33.13949 
Q 183.582 33.083255 183.731959 32.989531 
Q 183.881917 32.895807 183.994386 32.783338 
L 188.155738 28.059641 
M 190.06771 37.619503 
L 186.918579 37.619503 
Q 186.80611 37.656993 186.543683 37.731972 
Q 183.319572 38.669214 182.419821 39.381517 
Q 180.882745 40.731145 180.845255 44.142703 
Q 180.845255 45.267393 181.707517 46.167145 
Q 182.569779 47.066897 183.656979 47.066897 
Q 184.519241 46.954428 185.306524 46.485807 
Q 186.093807 46.017186 186.599917 45.473586 
Q 187.106028 44.929986 187.649628 43.93651 
Q 188.193228 42.943034 188.4744 42.324455 
Q 188.755572 41.705876 189.205448 40.543697 
Q 189.655324 39.381517 189.842772 38.969131 
Q 190.180179 38.144359 190.292648 38.200593 
Q 190.405117 38.256828 190.292648 39.456497 
L 190.180179 40.993572 
Q 190.180179 41.031062 190.517586 44.705048 
L 191.754745 47.066897 
" clip-path="url(#p010d7947e5)" style="fill: none; stroke: #000000; stroke-linejoin: miter"/>
   </g>
  </g>
  <g id="axes_13">
   <g id="patch_12">
    <path d="M 198.038731 37.282097 
L 198.038731 37.844441 
Q 198.301159 39.868883 198.338648 41.312234 
Q 198.376138 42.755586 198.282414 44.667559 
Q 198.18869 46.579531 198.18869 48.191586 
L 198.263669 39.643945 
Q 198.263669 38.144359 199.856979 37.507034 
Q 201.45029 36.86971 202.874897 37.282097 
Q 204.786869 37.844441 205.705366 39.04411 
Q 206.623862 40.243779 206.680097 41.668386 
Q 206.736331 43.092993 206.773821 44.817517 
Q 206.81131 46.542041 206.961269 48.191586 
" clip-path="url(#pef464e9882)" style="fill: none; stroke: #000000; stroke-linejoin: miter"/>
   </g>
  </g>
  <g id="axes_14"/>
  <g id="axes_15">
   <g id="patch_13">
    <path d="M 231.413462 35.932469 
Q 232.013297 35.257655 233.006772 34.826524 
Q 234.000248 34.395393 234.9 34.470372 
Q 235.537324 34.470372 236.02469 34.639076 
Q 236.512055 34.807779 236.830717 34.995228 
Q 237.149379 35.182676 237.374317 35.670041 
Q 237.599255 36.157407 237.711724 36.419834 
Q 237.824193 36.682262 237.880428 37.375821 
Q 237.936662 38.069379 237.955407 38.331807 
Q 237.974152 38.594234 237.955407 39.419007 
Q 237.936662 40.243779 237.936662 40.431228 
Q 237.936662 41.368469 237.767959 43.242952 
Q 237.599255 45.117434 237.599255 46.054676 
Q 237.599255 46.467062 237.65549 46.823214 
Q 237.711724 47.179366 237.805448 47.610497 
Q 237.899172 48.041628 237.936662 48.304055 
L 238.386538 48.528993 
M 231.863338 23.111007 
Q 232.088276 24.798041 232.088276 29.971614 
L 232.088276 42.3432 
L 231.750869 46.841959 
L 231.525931 47.74171 
" clip-path="url(#p4f4b3b4aa9)" style="fill: none; stroke: #000000; stroke-linejoin: miter"/>
   </g>
  </g>
  <g id="axes_16">
   <g id="patch_14">
    <path d="M 248.288276 30.608938 
Q 248.400745 30.871366 248.663172 31.602414 
Q 248.9256 32.333462 249.131793 32.783338 
Q 249.337986 33.233214 249.675393 33.758069 
Q 250.0128 34.282924 250.51891 34.507862 
Q 251.025021 34.7328 251.662345 34.657821 
Q 254.474069 34.657821 254.811476 29.25931 
M 245.926428 41.968303 
L 246.376303 41.968303 
Q 246.938648 41.968303 248.400745 42.474414 
Q 249.862841 42.980524 250.650124 42.980524 
Q 253.011972 42.980524 254.305366 42.211986 
Q 255.598759 41.443448 255.598759 39.269048 
Q 255.598759 37.132138 250.312717 37.132138 
Q 249.225517 37.132138 248.456979 37.694483 
Q 247.688441 38.256828 247.313545 39.194069 
Q 246.938648 40.13131 246.769945 41.049807 
Q 246.601241 41.968303 246.601241 42.980524 
Q 246.338814 44.105214 246.71371 44.967476 
Q 247.088607 45.829738 248.025848 46.335848 
Q 248.96309 46.841959 249.806607 47.123131 
Q 250.650124 47.404303 251.774814 47.591752 
Q 252.374648 47.704221 254.3616 47.704221 
Q 254.811476 47.81669 255.148883 47.573007 
Q 255.48629 47.329324 255.823697 46.748234 
Q 256.161103 46.167145 256.273572 46.017186 
" clip-path="url(#p086bf0e045)" style="fill: none; stroke: #000000; stroke-linejoin: miter"/>
   </g>
  </g>
  <g id="axes_17">
   <g id="patch_15">
    <path d="M 262.838731 37.282097 
L 262.838731 37.844441 
Q 263.101159 39.868883 263.138648 41.312234 
Q 263.176138 42.755586 263.082414 44.667559 
Q 262.98869 46.579531 262.98869 48.191586 
L 263.063669 39.643945 
Q 263.063669 38.144359 264.656979 37.507034 
Q 266.25029 36.86971 267.674897 37.282097 
Q 269.586869 37.844441 270.505366 39.04411 
Q 271.423862 40.243779 271.480097 41.668386 
Q 271.536331 43.092993 271.573821 44.817517 
Q 271.61131 46.542041 271.761269 48.191586 
" clip-path="url(#pf8a9a14b10)" style="fill: none; stroke: #000000; stroke-linejoin: miter"/>
   </g>
  </g>
  <g id="axes_18"/>
  <g id="axes_19">
   <g id="patch_16">
    <path d="M 299.306359 28.621986 
Q 299.531297 30.34651 299.606276 32.146014 
Q 299.681255 33.945517 299.66251 36.551048 
Q 299.643766 39.156579 299.643766 40.093821 
Q 299.643766 40.13131 299.868703 45.829738 
L 300.093641 46.841959 
" clip-path="url(#p123e5e37a2)" style="fill: none; stroke: #000000; stroke-linejoin: miter"/>
   </g>
  </g>
  <g id="axes_20">
   <g id="patch_17">
    <path d="M 313.913048 29.671697 
Q 314.77531 30.271531 315.600083 31.171283 
Q 316.424855 32.071034 317.380841 33.270703 
Q 318.336828 34.470372 318.861683 35.070207 
M 312.750869 41.705876 
L 312.975807 41.705876 
Q 313.238234 41.668386 313.76309 41.76211 
Q 314.287945 41.855834 314.550372 41.818345 
Q 315.150207 41.743366 315.731297 41.780855 
Q 316.312386 41.818345 316.874731 41.743366 
Q 317.437076 41.668386 317.868207 41.443448 
Q 318.299338 41.21851 318.561766 40.637421 
Q 318.824193 40.056331 318.824193 39.11909 
Q 318.711724 37.881931 317.793228 37.319586 
Q 316.874731 36.757241 315.675062 36.86971 
Q 314.325434 36.982179 313.425683 37.9944 
Q 312.525931 39.006621 312.525931 40.356248 
Q 312.525931 48.82891 319.274069 46.766979 
" clip-path="url(#pc4f6a3c20f)" style="fill: none; stroke: #000000; stroke-linejoin: miter"/>
   </g>
  </g>
  <g id="axes_21">
   <g id="patch_18">
    <path d="M 332.718579 29.071862 
Q 332.343683 29.146841 332.212469 29.577972 
Q 332.081255 30.009103 332.156234 30.42149 
Q 332.156234 30.571448 332.193724 30.702662 
Q 332.231214 30.833876 332.287448 30.89011 
Q 332.343683 30.946345 332.399917 31.040069 
Q 332.456152 31.133793 332.493641 31.208772 
L 332.60611 29.859145 
M 332.60611 34.020497 
Q 331.706359 39.006621 331.481421 42.793076 
L 331.931297 45.379862 
L 332.268703 46.054676 
" clip-path="url(#pd2e35b44c3)" style="fill: none; stroke: #000000; stroke-linejoin: miter"/>
   </g>
  </g>
  <g id="axes_22">
   <g id="patch_19">
    <path d="M 347.587697 39.981352 
Q 348.599917 40.956083 348.937324 42.905545 
Q 349.124772 43.955255 348.712386 46.167145 
L 347.475228 47.629241 
" clip-path="url(#p52d697efab)" style="fill: none; stroke: #000000; stroke-linejoin: miter"/>
   </g>
  </g>
 </g>
 <defs>
  <clipPath id="p82b66095bb">
   <rect x="0" y="11.850612" width="16.2" height="47.938776"/>
  </clipPath>
  <clipPath id="p6e26078ecd">
   <rect x="19.726262" y="8.64" width="9.147476" height="54.36"/>
  </clipPath>
  <clipPath id="p1d5e818ac0">
   <rect x="48.6" y="13.233462" width="16.2" height="45.173077"/>
  </clipPath>
  <clipPath id="pe7f532e98f">
   <rect x="66.189352" y="8.64" width="13.421297" height="54.36"/>
  </clipPath>
  <clipPath id="pc9537c0692">
   <rect x="82.051945" y="8.64" width="14.09611" height="54.36"/>
  </clipPath>
  <clipPath id="p9550190ff6">
   <rect x="115.182993" y="8.64" width="12.634014" height="54.36"/>
  </clipPath>
  <clipPath id="pe781d6f2bb">
   <rect x="130.989352" y="8.64" width="13.421297" height="54.36"/>
  </clipPath>
  <clipPath id="p5e9843fcc5">
   <rect x="148.482745" y="8.64" width="10.83451" height="54.36"/>
  </clipPath>
  <clipPath id="pf5b04f9aff">
   <rect x="164.738979" y="8.64" width="10.722041" height="54.36"/>
  </clipPath>
  <clipPath id="p010d7947e5">
   <rect x="178.970772" y="8.64" width="14.658455" height="54.36"/>
  </clipPath>
  <clipPath id="pef464e9882">
   <rect x="196.164248" y="8.64" width="12.671503" height="54.36"/>
  </clipPath>
  <clipPath id="p4f4b3b4aa9">
   <rect x="229.538979" y="8.64" width="10.722041" height="54.36"/>
  </clipPath>
  <clipPath id="p086bf0e045">
   <rect x="244.051945" y="8.64" width="14.09611" height="54.36"/>
  </clipPath>
  <clipPath id="pf8a9a14b10">
   <rect x="260.964248" y="8.64" width="12.671503" height="54.36"/>
  </clipPath>
  <clipPath id="p123e5e37a2">
   <rect x="297.431876" y="8.64" width="4.536248" height="54.36"/>
  </clipPath>
  <clipPath id="pc4f6a3c20f">
   <rect x="310.651448" y="8.64" width="10.497103" height="54.36"/>
  </clipPath>
  <clipPath id="pd2e35b44c3">
   <rect x="329.606938" y="8.64" width="4.986124" height="54.36"/>
  </clipPath>
  <clipPath id="p52d697efab">
   <rect x="345.600745" y="8.64" width="5.39851" height="54.36"/>
  </clipPath>
 </defs>
</svg>
