<?xml version="1.0" encoding="utf-8" standalone="no"?>
<!DOCTYPE svg PUBLIC "-//W3C//DTD SVG 1.1//EN"
  "http://www.w3.org/Graphics/SVG/1.1/DTD/svg11.dtd">
<svg xmlns:xlink="http://www.w3.org/1999/xlink" width="612pt" height="72pt" viewBox="0 0 612 72" xmlns="http://www.w3.org/2000/svg" version="1.1">
 <metadata>
  <rdf:RDF xmlns:dc="http://purl.org/dc/elements/1.1/" xmlns:cc="http://creativecommons.org/ns#" xmlns:rdf="http://www.w3.org/1999/02/22-rdf-syntax-ns#">
   <cc:Work>
    <dc:type rdf:resource="http://purl.org/dc/dcmitype/StillImage"/>
    <dc:date>2023-02-28T20:45:34.952186</dc:date>
    <dc:format>image/svg+xml</dc:format>
    <dc:creator>
     <cc:Agent>
      <dc:title>Matplotlib v3.6.1, https://matplotlib.org/</dc:title>
     </cc:Agent>
    </dc:creator>
   </cc:Work>
  </rdf:RDF>
 </metadata>
 <defs>
  <style type="text/css">*{stroke-linejoin: round; stroke-linecap: butt}</style>
 </defs>
 <g id="figure_1">
  <g id="patch_1">
   <path d="M 0 72 
L 612 72 
L 612 0 
L 0 0 
z
" style="fill: #8fff9f"/>
  </g>
  <g id="axes_1">
   <g id="patch_2">
    <path d="M 1.539924 40.439772 
Q 6.436882 46.999848 11.980608 46.168289 
Q 13.304943 46.168289 13.98251 45.382928 
Q 14.660076 44.597567 14.660076 43.30403 
Q 14.660076 41.979696 14.028707 40.947947 
Q 13.397338 39.916198 12.396388 39.238631 
Q 11.395437 38.561065 10.194297 37.975894 
Q 8.993156 37.390722 7.776616 36.820951 
Q 6.560076 36.251179 5.559125 35.589011 
Q 4.558175 34.926844 3.926806 33.895095 
Q 3.295437 32.863346 3.295437 31.56981 
Q 3.295437 29.906692 5.774715 28.382167 
Q 8.253992 26.857643 10.040304 26.857643 
Q 11.118251 26.796046 11.672624 27.627605 
Q 12.226996 28.459163 12.211597 29.490913 
Q 12.196198 30.522662 12.165399 31.385019 
" clip-path="url(#pdc8a0d0c0c)" style="fill: none; stroke: #000000; stroke-linejoin: miter"/>
   </g>
  </g>
  <g id="axes_2">
   <g id="patch_3">
    <path d="M 20.813462 35.932469 
Q 21.413297 35.257655 22.406772 34.826524 
Q 23.400248 34.395393 24.3 34.470372 
Q 24.937324 34.470372 25.42469 34.639076 
Q 25.912055 34.807779 26.230717 34.995228 
Q 26.549379 35.182676 26.774317 35.670041 
Q 26.999255 36.157407 27.111724 36.419834 
Q 27.224193 36.682262 27.280428 37.375821 
Q 27.336662 38.069379 27.355407 38.331807 
Q 27.374152 38.594234 27.355407 39.419007 
Q 27.336662 40.243779 27.336662 40.431228 
Q 27.336662 41.368469 27.167959 43.242952 
Q 26.999255 45.117434 26.999255 46.054676 
Q 26.999255 46.467062 27.05549 46.823214 
Q 27.111724 47.179366 27.205448 47.610497 
Q 27.299172 48.041628 27.336662 48.304055 
L 27.786538 48.528993 
M 21.263338 23.111007 
Q 21.488276 24.798041 21.488276 29.971614 
L 21.488276 42.3432 
L 21.150869 46.841959 
L 20.925931 47.74171 
" clip-path="url(#p1842fdf133)" style="fill: none; stroke: #000000; stroke-linejoin: miter"/>
   </g>
  </g>
  <g id="axes_3">
   <g id="patch_4">
    <path d="M 34.257798 38.160826 
Q 37.230275 39.535596 41.949083 39.721376 
Q 43.472477 39.721376 44.159862 38.550963 
Q 44.847248 37.38055 44.847248 35.82 
Q 44.847248 35.299817 44.754358 34.909679 
Q 44.661468 34.519541 44.419954 34.296606 
Q 44.17844 34.07367 44.011239 33.943624 
Q 43.844037 33.813578 43.398165 33.757844 
Q 42.952294 33.70211 42.747936 33.683532 
Q 42.543578 33.664954 41.967661 33.683532 
Q 41.391743 33.70211 41.168807 33.70211 
Q 39.125229 33.70211 37.638991 35.578486 
Q 36.152752 37.454862 36.152752 39.609908 
Q 36.152752 42.619541 38.084862 44.570229 
Q 40.016972 46.520917 43.063761 46.520917 
Q 45.218807 46.818165 46.742202 44.29156 
" clip-path="url(#p9c5027c525)" style="fill: none; stroke: #000000; stroke-linejoin: miter"/>
   </g>
  </g>
  <g id="axes_4"/>
  <g id="axes_5">
   <g id="patch_5">
    <path d="M 68.063834 37.95691 
L 68.738648 37.95691 
Q 69.450952 37.95691 70.238234 37.881931 
Q 71.025517 37.806952 71.981503 37.675738 
Q 72.93749 37.544524 73.462345 37.507034 
L 77.736166 35.82 
M 73.687283 30.42149 
L 73.687283 31.43371 
Q 73.687283 33.383172 73.012469 37.207117 
Q 72.337655 41.031062 72.337655 43.018014 
Q 72.337655 43.805297 72.337655 44.105214 
Q 72.337655 44.405131 72.431379 45.042455 
Q 72.525103 45.679779 72.712552 45.960952 
Q 72.9 46.242124 73.293641 46.485807 
Q 73.687283 46.72949 74.249628 46.72949 
Q 74.362097 46.692 74.680759 46.72949 
Q 74.999421 46.766979 75.186869 46.710745 
Q 75.374317 46.65451 75.374317 46.392083 
" clip-path="url(#p7f596ca898)" style="fill: none; stroke: #000000; stroke-linejoin: miter"/>
   </g>
  </g>
  <g id="axes_6">
   <g id="patch_6">
    <path d="M 85.613462 35.932469 
Q 86.213297 35.257655 87.206772 34.826524 
Q 88.200248 34.395393 89.1 34.470372 
Q 89.737324 34.470372 90.22469 34.639076 
Q 90.712055 34.807779 91.030717 34.995228 
Q 91.349379 35.182676 91.574317 35.670041 
Q 91.799255 36.157407 91.911724 36.419834 
Q 92.024193 36.682262 92.080428 37.375821 
Q 92.136662 38.069379 92.155407 38.331807 
Q 92.174152 38.594234 92.155407 39.419007 
Q 92.136662 40.243779 92.136662 40.431228 
Q 92.136662 41.368469 91.967959 43.242952 
Q 91.799255 45.117434 91.799255 46.054676 
Q 91.799255 46.467062 91.85549 46.823214 
Q 91.911724 47.179366 92.005448 47.610497 
Q 92.099172 48.041628 92.136662 48.304055 
L 92.586538 48.528993 
M 86.063338 23.111007 
Q 86.288276 24.798041 86.288276 29.971614 
L 86.288276 42.3432 
L 85.950869 46.841959 
L 85.725931 47.74171 
" clip-path="url(#p44b90c0a17)" style="fill: none; stroke: #000000; stroke-linejoin: miter"/>
   </g>
  </g>
  <g id="axes_7">
   <g id="patch_7">
    <path d="M 108.5616 35.032717 
Q 107.51189 34.582841 106.537159 34.69531 
Q 103.500497 35.032717 101.588524 36.701007 
Q 99.676552 38.369297 99.676552 41.330979 
Q 99.676552 43.917766 101.682248 45.6048 
Q 103.687945 47.291834 106.312221 47.291834 
Q 108.674069 47.291834 109.798759 45.361117 
Q 110.923448 43.4304 110.923448 40.881103 
Q 110.923448 39.643945 110.511062 38.706703 
Q 110.098676 37.769462 109.573821 37.300841 
Q 109.048966 36.832221 108.299172 36.119917 
Q 107.549379 35.407614 107.099503 34.69531 
L 105.862345 34.245434 
" clip-path="url(#pb32ab06fc2)" style="fill: none; stroke: #000000; stroke-linejoin: miter"/>
   </g>
  </g>
  <g id="axes_8">
   <g id="patch_8">
    <path d="M 116.888772 35.145186 
Q 116.888772 35.145186 116.888772 35.595062 
Q 116.888772 36.269876 116.776303 37.619503 
Q 116.663834 38.969131 116.663834 39.643945 
Q 116.663834 41.930814 117.900993 43.599103 
Q 119.138152 45.267393 121.275062 45.267393 
Q 122.662179 45.154924 123.430717 43.917766 
Q 124.199255 42.680607 124.349214 41.237255 
Q 124.499172 39.793903 124.7616 37.9944 
Q 125.024028 36.194897 125.436414 35.370124 
Q 125.586372 35.070207 125.586372 35.670041 
Q 125.586372 36.269876 125.323945 38.706703 
Q 125.099007 41.031062 125.099007 41.555917 
Q 124.949048 42.643117 125.286455 43.767807 
Q 125.623862 44.892497 126.336166 45.6048 
" clip-path="url(#p2dd45c7ef0)" style="fill: none; stroke: #000000; stroke-linejoin: miter"/>
   </g>
  </g>
  <g id="axes_9">
   <g id="patch_9">
    <path d="M 142.487191 39.096404 
Q 142.23236 39.023596 141.26764 38.623146 
Q 140.302921 38.222697 139.64764 38.077079 
Q 138.99236 37.931461 138.337079 38.00427 
Q 135.715955 38.00427 134.077753 40.388764 
Q 132.439551 42.773258 132.439551 45.430787 
Q 132.439551 47.068989 137.681798 47.068989 
Q 139.247191 47.068989 140.575955 45.558202 
Q 141.904719 44.047416 142.578202 42.172584 
Q 143.251685 40.297753 143.251685 38.768764 
Q 143.251685 37.27618 143.215281 36.984944 
L 143.142472 38.077079 
Q 143.142472 38.550337 143.142472 38.987191 
Q 143.178876 40.188539 143.379101 42.281798 
Q 143.579326 44.375056 143.743146 46.049663 
Q 143.906966 47.72427 143.943371 49.872135 
Q 143.979775 52.02 143.815955 53.658202 
Q 143.652135 55.296404 143.087865 56.971011 
Q 142.523596 58.645618 141.595281 59.737753 
Q 140.666966 60.829888 139.065169 61.521573 
Q 137.463371 62.213258 135.315506 62.213258 
Q 133.677303 62.213258 132.585169 61.466966 
Q 131.493034 60.720674 131.493034 59.155281 
Q 131.420225 58.936854 131.456629 58.936854 
Q 131.493034 58.936854 131.602247 58.936854 
Q 131.711461 58.936854 131.711461 58.82764 
" clip-path="url(#p9b6e6fabc6)" style="fill: none; stroke: #000000; stroke-linejoin: miter"/>
   </g>
  </g>
  <g id="axes_10">
   <g id="patch_10">
    <path d="M 150.413462 35.932469 
Q 151.013297 35.257655 152.006772 34.826524 
Q 153.000248 34.395393 153.9 34.470372 
Q 154.537324 34.470372 155.02469 34.639076 
Q 155.512055 34.807779 155.830717 34.995228 
Q 156.149379 35.182676 156.374317 35.670041 
Q 156.599255 36.157407 156.711724 36.419834 
Q 156.824193 36.682262 156.880428 37.375821 
Q 156.936662 38.069379 156.955407 38.331807 
Q 156.974152 38.594234 156.955407 39.419007 
Q 156.936662 40.243779 156.936662 40.431228 
Q 156.936662 41.368469 156.767959 43.242952 
Q 156.599255 45.117434 156.599255 46.054676 
Q 156.599255 46.467062 156.65549 46.823214 
Q 156.711724 47.179366 156.805448 47.610497 
Q 156.899172 48.041628 156.936662 48.304055 
L 157.386538 48.528993 
M 150.863338 23.111007 
Q 151.088276 24.798041 151.088276 29.971614 
L 151.088276 42.3432 
L 150.750869 46.841959 
L 150.525931 47.74171 
" clip-path="url(#p9879d8197c)" style="fill: none; stroke: #000000; stroke-linejoin: miter"/>
   </g>
  </g>
  <g id="axes_11">
   <g id="patch_11">
    <path d="M 165.263834 37.95691 
L 165.938648 37.95691 
Q 166.650952 37.95691 167.438234 37.881931 
Q 168.225517 37.806952 169.181503 37.675738 
Q 170.13749 37.544524 170.662345 37.507034 
L 174.936166 35.82 
M 170.887283 30.42149 
L 170.887283 31.43371 
Q 170.887283 33.383172 170.212469 37.207117 
Q 169.537655 41.031062 169.537655 43.018014 
Q 169.537655 43.805297 169.537655 44.105214 
Q 169.537655 44.405131 169.631379 45.042455 
Q 169.725103 45.679779 169.912552 45.960952 
Q 170.1 46.242124 170.493641 46.485807 
Q 170.887283 46.72949 171.449628 46.72949 
Q 171.562097 46.692 171.880759 46.72949 
Q 172.199421 46.766979 172.386869 46.710745 
Q 172.574317 46.65451 172.574317 46.392083 
" clip-path="url(#p0f09da3573)" style="fill: none; stroke: #000000; stroke-linejoin: miter"/>
   </g>
  </g>
  <g id="axes_12"/>
  <g id="axes_13">
   <g id="patch_12">
    <path d="M 208.043923 36.441748 
Q 206.834968 35.094627 202.862687 35.094627 
Q 201.342857 35.094627 200.565672 35.146439 
Q 199.788486 35.198252 198.78678 35.440043 
Q 197.785075 35.681834 197.301493 36.182687 
Q 196.81791 36.683539 196.472495 37.616162 
Q 196.127079 38.548785 196.127079 39.964989 
Q 196.127079 42.037484 197.543284 43.280981 
Q 198.959488 44.524478 200.893817 44.524478 
Q 203.553518 44.524478 206.316844 38.721493 
Q 207.663966 35.854542 207.663966 35.82 
Q 208.009382 35.578209 208.043923 36.441748 
Q 208.043923 37.512537 208.458422 40.362217 
Q 208.872921 43.211898 208.872921 44.524478 
" clip-path="url(#paefc00ad4c)" style="fill: none; stroke: #000000; stroke-linejoin: miter"/>
   </g>
  </g>
  <g id="axes_14">
   <g id="patch_13">
    <path d="M 215.157228 37.244607 
Q 216.206938 37.207117 216.394386 37.132138 
Q 219.805945 37.132138 221.586703 39.212814 
Q 223.367462 41.29349 223.367462 44.780028 
Q 223.367462 47.704221 218.756234 47.704221 
Q 218.11891 47.704221 217.57531 47.591752 
Q 217.03171 47.479283 216.394386 47.254345 
Q 215.757062 47.029407 215.269697 46.916938 
L 214.032538 45.679779 
M 215.044759 25.435366 
L 215.044759 26.560055 
Q 215.044759 29.409269 215.157228 33.008276 
Q 215.269697 36.607283 215.457145 40.899848 
Q 215.644593 45.192414 215.719572 47.141876 
" clip-path="url(#p72e10f7cfd)" style="fill: none; stroke: #000000; stroke-linejoin: miter"/>
   </g>
  </g>
  <g id="axes_15">
   <g id="patch_14">
    <path d="M 238.1616 35.032717 
Q 237.11189 34.582841 236.137159 34.69531 
Q 233.100497 35.032717 231.188524 36.701007 
Q 229.276552 38.369297 229.276552 41.330979 
Q 229.276552 43.917766 231.282248 45.6048 
Q 233.287945 47.291834 235.912221 47.291834 
Q 238.274069 47.291834 239.398759 45.361117 
Q 240.523448 43.4304 240.523448 40.881103 
Q 240.523448 39.643945 240.111062 38.706703 
Q 239.698676 37.769462 239.173821 37.300841 
Q 238.648966 36.832221 237.899172 36.119917 
Q 237.149379 35.407614 236.699503 34.69531 
L 235.462345 34.245434 
" clip-path="url(#p4731be59f5)" style="fill: none; stroke: #000000; stroke-linejoin: miter"/>
   </g>
  </g>
  <g id="axes_16">
   <g id="patch_15">
    <path d="M 246.488772 35.145186 
Q 246.488772 35.145186 246.488772 35.595062 
Q 246.488772 36.269876 246.376303 37.619503 
Q 246.263834 38.969131 246.263834 39.643945 
Q 246.263834 41.930814 247.500993 43.599103 
Q 248.738152 45.267393 250.875062 45.267393 
Q 252.262179 45.154924 253.030717 43.917766 
Q 253.799255 42.680607 253.949214 41.237255 
Q 254.099172 39.793903 254.3616 37.9944 
Q 254.624028 36.194897 255.036414 35.370124 
Q 255.186372 35.070207 255.186372 35.670041 
Q 255.186372 36.269876 254.923945 38.706703 
Q 254.699007 41.031062 254.699007 41.555917 
Q 254.549048 42.643117 254.886455 43.767807 
Q 255.223862 44.892497 255.936166 45.6048 
" clip-path="url(#p80f9ed0d70)" style="fill: none; stroke: #000000; stroke-linejoin: miter"/>
   </g>
  </g>
  <g id="axes_17">
   <g id="patch_16">
    <path d="M 262.463834 37.95691 
L 263.138648 37.95691 
Q 263.850952 37.95691 264.638234 37.881931 
Q 265.425517 37.806952 266.381503 37.675738 
Q 267.33749 37.544524 267.862345 37.507034 
L 272.136166 35.82 
M 268.087283 30.42149 
L 268.087283 31.43371 
Q 268.087283 33.383172 267.412469 37.207117 
Q 266.737655 41.031062 266.737655 43.018014 
Q 266.737655 43.805297 266.737655 44.105214 
Q 266.737655 44.405131 266.831379 45.042455 
Q 266.925103 45.679779 267.112552 45.960952 
Q 267.3 46.242124 267.693641 46.485807 
Q 268.087283 46.72949 268.649628 46.72949 
Q 268.762097 46.692 269.080759 46.72949 
Q 269.399421 46.766979 269.586869 46.710745 
Q 269.774317 46.65451 269.774317 46.392083 
" clip-path="url(#p57a71360fd)" style="fill: none; stroke: #000000; stroke-linejoin: miter"/>
   </g>
  </g>
  <g id="axes_18"/>
  <g id="axes_19">
   <g id="patch_17">
    <path d="M 296.213462 35.932469 
Q 296.813297 35.257655 297.806772 34.826524 
Q 298.800248 34.395393 299.7 34.470372 
Q 300.337324 34.470372 300.82469 34.639076 
Q 301.312055 34.807779 301.630717 34.995228 
Q 301.949379 35.182676 302.174317 35.670041 
Q 302.399255 36.157407 302.511724 36.419834 
Q 302.624193 36.682262 302.680428 37.375821 
Q 302.736662 38.069379 302.755407 38.331807 
Q 302.774152 38.594234 302.755407 39.419007 
Q 302.736662 40.243779 302.736662 40.431228 
Q 302.736662 41.368469 302.567959 43.242952 
Q 302.399255 45.117434 302.399255 46.054676 
Q 302.399255 46.467062 302.45549 46.823214 
Q 302.511724 47.179366 302.605448 47.610497 
Q 302.699172 48.041628 302.736662 48.304055 
L 303.186538 48.528993 
M 296.663338 23.111007 
Q 296.888276 24.798041 296.888276 29.971614 
L 296.888276 42.3432 
L 296.550869 46.841959 
L 296.325931 47.74171 
" clip-path="url(#pb33d07cdeb)" style="fill: none; stroke: #000000; stroke-linejoin: miter"/>
   </g>
  </g>
  <g id="axes_20">
   <g id="patch_18">
    <path d="M 309.657798 38.160826 
Q 312.630275 39.535596 317.349083 39.721376 
Q 318.872477 39.721376 319.559862 38.550963 
Q 320.247248 37.38055 320.247248 35.82 
Q 320.247248 35.299817 320.154358 34.909679 
Q 320.061468 34.519541 319.819954 34.296606 
Q 319.57844 34.07367 319.411239 33.943624 
Q 319.244037 33.813578 318.798165 33.757844 
Q 318.352294 33.70211 318.147936 33.683532 
Q 317.943578 33.664954 317.367661 33.683532 
Q 316.791743 33.70211 316.568807 33.70211 
Q 314.525229 33.70211 313.038991 35.578486 
Q 311.552752 37.454862 311.552752 39.609908 
Q 311.552752 42.619541 313.484862 44.570229 
Q 315.416972 46.520917 318.463761 46.520917 
Q 320.618807 46.818165 322.142202 44.29156 
" clip-path="url(#p1495fa4229)" style="fill: none; stroke: #000000; stroke-linejoin: miter"/>
   </g>
  </g>
  <g id="axes_21">
   <g id="patch_19">
    <path d="M 328.613462 32.783338 
Q 329.138317 34.507862 329.269531 36.457324 
Q 329.400745 38.406786 329.325766 40.956083 
Q 329.250786 43.505379 329.288276 44.705048 
L 329.400745 46.054676 
L 329.400745 45.829738 
Q 329.400745 44.667559 329.119572 42.30571 
Q 328.8384 39.943862 328.8384 38.744193 
Q 328.8384 36.419834 329.850621 34.882759 
Q 330.862841 33.345683 332.887283 33.345683 
Q 333.599586 33.345683 333.936993 33.626855 
Q 334.2744 33.908028 334.536828 34.432883 
Q 334.799255 34.957738 335.136662 35.257655 
L 335.586538 36.832221 
" clip-path="url(#pa8eb4f38a9)" style="fill: none; stroke: #000000; stroke-linejoin: miter"/>
   </g>
  </g>
  <g id="axes_22"/>
  <g id="axes_23">
   <g id="patch_20">
    <path d="M 370.043923 36.441748 
Q 368.834968 35.094627 364.862687 35.094627 
Q 363.342857 35.094627 362.565672 35.146439 
Q 361.788486 35.198252 360.78678 35.440043 
Q 359.785075 35.681834 359.301493 36.182687 
Q 358.81791 36.683539 358.472495 37.616162 
Q 358.127079 38.548785 358.127079 39.964989 
Q 358.127079 42.037484 359.543284 43.280981 
Q 360.959488 44.524478 362.893817 44.524478 
Q 365.553518 44.524478 368.316844 38.721493 
Q 369.663966 35.854542 369.663966 35.82 
Q 370.009382 35.578209 370.043923 36.441748 
Q 370.043923 37.512537 370.458422 40.362217 
Q 370.872921 43.211898 370.872921 44.524478 
" clip-path="url(#p739111eee6)" style="fill: none; stroke: #000000; stroke-linejoin: miter"/>
   </g>
  </g>
  <g id="axes_24">
   <g id="patch_21">
    <path d="M 376.238731 37.282097 
L 376.238731 37.844441 
Q 376.501159 39.868883 376.538648 41.312234 
Q 376.576138 42.755586 376.482414 44.667559 
Q 376.38869 46.579531 376.38869 48.191586 
L 376.463669 39.643945 
Q 376.463669 38.144359 378.056979 37.507034 
Q 379.65029 36.86971 381.074897 37.282097 
Q 382.986869 37.844441 383.905366 39.04411 
Q 384.823862 40.243779 384.880097 41.668386 
Q 384.936331 43.092993 384.973821 44.817517 
Q 385.01131 46.542041 385.161269 48.191586 
" clip-path="url(#paed8a22213)" style="fill: none; stroke: #000000; stroke-linejoin: miter"/>
   </g>
  </g>
  <g id="axes_25">
   <g id="patch_22">
    <path d="M 400.499007 39.568966 
Q 399.149379 38.181848 396.9 38.444276 
Q 394.050786 38.444276 392.888607 39.793903 
Q 391.726428 41.143531 391.726428 44.067724 
Q 391.726428 45.56731 393.019821 46.279614 
Q 394.313214 46.991917 395.887779 46.991917 
Q 397.199917 46.991917 398.212138 45.736014 
Q 399.224359 44.48011 399.805448 42.30571 
Q 400.386538 40.13131 400.761434 37.938166 
Q 401.136331 35.745021 401.28629 33.045766 
Q 401.436248 30.34651 401.473738 28.978138 
Q 401.511228 27.609766 401.511228 26.185159 
Q 401.28629 26.260138 401.28629 29.896634 
L 401.28629 44.292662 
L 402.073572 48.229076 
" clip-path="url(#pc2bc52b07f)" style="fill: none; stroke: #000000; stroke-linejoin: miter"/>
   </g>
  </g>
  <g id="axes_26"/>
  <g id="axes_27">
   <g id="patch_23">
    <path d="M 423.411604 28.853447 
Q 424.296246 28.825802 426.093174 28.784334 
Q 427.890102 28.742867 428.982082 28.715222 
Q 430.074061 28.687577 431.594539 28.576997 
Q 433.115017 28.466416 434.359044 28.272901 
Q 435.437201 28.107031 435.768942 28.107031 
Q 436.017747 28.107031 436.017747 28.189966 
Q 435.243686 29.876314 433.750853 31.673242 
Q 432.25802 33.470171 430.61314 34.990648 
Q 428.968259 36.511126 427.351024 37.990137 
Q 425.733788 39.469147 424.420648 41.07256 
Q 423.107509 42.675973 422.582253 44.113515 
L 429.548805 44.528191 
L 436.017747 45.191672 
" clip-path="url(#p5b93b2cd51)" style="fill: none; stroke: #000000; stroke-linejoin: miter"/>
   </g>
  </g>
  <g id="axes_28">
   <g id="patch_24">
    <path d="M 442.013462 35.932469 
Q 442.613297 35.257655 443.606772 34.826524 
Q 444.600248 34.395393 445.5 34.470372 
Q 446.137324 34.470372 446.62469 34.639076 
Q 447.112055 34.807779 447.430717 34.995228 
Q 447.749379 35.182676 447.974317 35.670041 
Q 448.199255 36.157407 448.311724 36.419834 
Q 448.424193 36.682262 448.480428 37.375821 
Q 448.536662 38.069379 448.555407 38.331807 
Q 448.574152 38.594234 448.555407 39.419007 
Q 448.536662 40.243779 448.536662 40.431228 
Q 448.536662 41.368469 448.367959 43.242952 
Q 448.199255 45.117434 448.199255 46.054676 
Q 448.199255 46.467062 448.25549 46.823214 
Q 448.311724 47.179366 448.405448 47.610497 
Q 448.499172 48.041628 448.536662 48.304055 
L 448.986538 48.528993 
M 442.463338 23.111007 
Q 442.688276 24.798041 442.688276 29.971614 
L 442.688276 42.3432 
L 442.350869 46.841959 
L 442.125931 47.74171 
" clip-path="url(#p662dd7d442)" style="fill: none; stroke: #000000; stroke-linejoin: miter"/>
   </g>
  </g>
  <g id="axes_29">
   <g id="patch_25">
    <path d="M 467.243923 36.441748 
Q 466.034968 35.094627 462.062687 35.094627 
Q 460.542857 35.094627 459.765672 35.146439 
Q 458.988486 35.198252 457.98678 35.440043 
Q 456.985075 35.681834 456.501493 36.182687 
Q 456.01791 36.683539 455.672495 37.616162 
Q 455.327079 38.548785 455.327079 39.964989 
Q 455.327079 42.037484 456.743284 43.280981 
Q 458.159488 44.524478 460.093817 44.524478 
Q 462.753518 44.524478 465.516844 38.721493 
Q 466.863966 35.854542 466.863966 35.82 
Q 467.209382 35.578209 467.243923 36.441748 
Q 467.243923 37.512537 467.658422 40.362217 
Q 468.072921 43.211898 468.072921 44.524478 
" clip-path="url(#p1a15c39519)" style="fill: none; stroke: #000000; stroke-linejoin: miter"/>
   </g>
  </g>
  <g id="axes_30">
   <g id="patch_26">
    <path d="M 473.438731 37.282097 
L 473.438731 37.844441 
Q 473.701159 39.868883 473.738648 41.312234 
Q 473.776138 42.755586 473.682414 44.667559 
Q 473.58869 46.579531 473.58869 48.191586 
L 473.663669 39.643945 
Q 473.663669 38.144359 475.256979 37.507034 
Q 476.85029 36.86971 478.274897 37.282097 
Q 480.186869 37.844441 481.105366 39.04411 
Q 482.023862 40.243779 482.080097 41.668386 
Q 482.136331 43.092993 482.173821 44.817517 
Q 482.21131 46.542041 482.361269 48.191586 
" clip-path="url(#p756886c120)" style="fill: none; stroke: #000000; stroke-linejoin: miter"/>
   </g>
  </g>
  <g id="axes_31">
   <g id="patch_27">
    <path d="M 498.887191 39.096404 
Q 498.63236 39.023596 497.66764 38.623146 
Q 496.702921 38.222697 496.04764 38.077079 
Q 495.39236 37.931461 494.737079 38.00427 
Q 492.115955 38.00427 490.477753 40.388764 
Q 488.839551 42.773258 488.839551 45.430787 
Q 488.839551 47.068989 494.081798 47.068989 
Q 495.647191 47.068989 496.975955 45.558202 
Q 498.304719 44.047416 498.978202 42.172584 
Q 499.651685 40.297753 499.651685 38.768764 
Q 499.651685 37.27618 499.615281 36.984944 
L 499.542472 38.077079 
Q 499.542472 38.550337 499.542472 38.987191 
Q 499.578876 40.188539 499.779101 42.281798 
Q 499.979326 44.375056 500.143146 46.049663 
Q 500.306966 47.72427 500.343371 49.872135 
Q 500.379775 52.02 500.215955 53.658202 
Q 500.052135 55.296404 499.487865 56.971011 
Q 498.923596 58.645618 497.995281 59.737753 
Q 497.066966 60.829888 495.465169 61.521573 
Q 493.863371 62.213258 491.715506 62.213258 
Q 490.077303 62.213258 488.985169 61.466966 
Q 487.893034 60.720674 487.893034 59.155281 
Q 487.820225 58.936854 487.856629 58.936854 
Q 487.893034 58.936854 488.002247 58.936854 
Q 488.111461 58.936854 488.111461 58.82764 
" clip-path="url(#p7968bc0c6e)" style="fill: none; stroke: #000000; stroke-linejoin: miter"/>
   </g>
  </g>
  <g id="axes_32"/>
  <g id="axes_33">
   <g id="patch_28">
    <path d="M 520.448638 35.788482 
L 520.637743 35.788482 
Q 521.520233 35.788482 523.285214 35.69393 
Q 525.050195 35.599377 525.932685 35.599377 
Q 527.477043 35.599377 528.674708 35.835759 
Q 529.872374 36.07214 530.896693 36.655214 
Q 531.921012 37.238288 532.472568 38.35716 
Q 533.024125 39.476031 533.024125 41.083424 
Q 533.024125 46.567471 522.907004 46.567471 
Q 522.875486 46.567471 521.015953 46.283813 
L 520.448638 46.000156 
M 520.448638 27.562412 
Q 522.087549 26.679922 524.041634 26.71144 
Q 526.310895 26.71144 528.343774 28.035175 
Q 530.376654 29.358911 530.376654 31.533619 
Q 530.376654 32.825837 529.825097 33.582257 
Q 529.273541 34.338677 528.548638 34.527782 
Q 527.823735 34.716887 526.830934 35.06358 
Q 525.838132 35.410272 525.270817 35.883035 
L 520.448638 35.788482 
M 519.975875 27.656965 
Q 520.196498 28.949183 520.133463 32.494903 
Q 520.070428 36.040623 520.637743 37.301323 
Q 520.637743 38.309883 520.590467 40.358521 
Q 520.543191 42.40716 520.543191 43.447237 
L 520.543191 45.243735 
L 520.354086 46.000156 
" clip-path="url(#p7ebb8da4e6)" style="fill: none; stroke: #000000; stroke-linejoin: miter"/>
   </g>
  </g>
  <g id="axes_34">
   <g id="patch_29">
    <path d="M 545.9616 35.032717 
Q 544.91189 34.582841 543.937159 34.69531 
Q 540.900497 35.032717 538.988524 36.701007 
Q 537.076552 38.369297 537.076552 41.330979 
Q 537.076552 43.917766 539.082248 45.6048 
Q 541.087945 47.291834 543.712221 47.291834 
Q 546.074069 47.291834 547.198759 45.361117 
Q 548.323448 43.4304 548.323448 40.881103 
Q 548.323448 39.643945 547.911062 38.706703 
Q 547.498676 37.769462 546.973821 37.300841 
Q 546.448966 36.832221 545.699172 36.119917 
Q 544.949379 35.407614 544.499503 34.69531 
L 543.262345 34.245434 
" clip-path="url(#p3b3b773788)" style="fill: none; stroke: #000000; stroke-linejoin: miter"/>
   </g>
  </g>
 </g>
 <defs>
  <clipPath id="pdc8a0d0c0c">
   <rect x="0" y="13.491103" width="16.2" height="44.657795"/>
  </clipPath>
  <clipPath id="p1842fdf133">
   <rect x="18.938979" y="8.64" width="10.722041" height="54.36"/>
  </clipPath>
  <clipPath id="p9c5027c525">
   <rect x="32.4" y="8.881927" width="16.2" height="53.876147"/>
  </clipPath>
  <clipPath id="p7f596ca898">
   <rect x="66.189352" y="8.64" width="13.421297" height="54.36"/>
  </clipPath>
  <clipPath id="p44b90c0a17">
   <rect x="83.738979" y="8.64" width="10.722041" height="54.36"/>
  </clipPath>
  <clipPath id="pb32ab06fc2">
   <rect x="97.802069" y="8.64" width="14.995862" height="54.36"/>
  </clipPath>
  <clipPath id="p2dd45c7ef0">
   <rect x="114.789352" y="8.64" width="13.421297" height="54.36"/>
  </clipPath>
  <clipPath id="p9b6e6fabc6">
   <rect x="129.6" y="9.426742" width="16.2" height="52.786517"/>
  </clipPath>
  <clipPath id="p9879d8197c">
   <rect x="148.538979" y="8.64" width="10.722041" height="54.36"/>
  </clipPath>
  <clipPath id="p0f09da3573">
   <rect x="163.389352" y="8.64" width="13.421297" height="54.36"/>
  </clipPath>
  <clipPath id="paefc00ad4c">
   <rect x="194.4" y="10.777356" width="16.2" height="50.085288"/>
  </clipPath>
  <clipPath id="p72e10f7cfd">
   <rect x="212.158055" y="8.64" width="13.08389" height="54.36"/>
  </clipPath>
  <clipPath id="p4731be59f5">
   <rect x="227.402069" y="8.64" width="14.995862" height="54.36"/>
  </clipPath>
  <clipPath id="p80f9ed0d70">
   <rect x="244.389352" y="8.64" width="13.421297" height="54.36"/>
  </clipPath>
  <clipPath id="p57a71360fd">
   <rect x="260.589352" y="8.64" width="13.421297" height="54.36"/>
  </clipPath>
  <clipPath id="pb33d07cdeb">
   <rect x="294.338979" y="8.64" width="10.722041" height="54.36"/>
  </clipPath>
  <clipPath id="p1495fa4229">
   <rect x="307.8" y="8.881927" width="16.2" height="53.876147"/>
  </clipPath>
  <clipPath id="pa8eb4f38a9">
   <rect x="326.738979" y="8.64" width="10.722041" height="54.36"/>
  </clipPath>
  <clipPath id="p739111eee6">
   <rect x="356.4" y="10.777356" width="16.2" height="50.085288"/>
  </clipPath>
  <clipPath id="paed8a22213">
   <rect x="374.364248" y="8.64" width="12.671503" height="54.36"/>
  </clipPath>
  <clipPath id="pc2bc52b07f">
   <rect x="389.851945" y="8.64" width="14.09611" height="54.36"/>
  </clipPath>
  <clipPath id="p5b93b2cd51">
   <rect x="421.2" y="15.777338" width="16.2" height="40.085324"/>
  </clipPath>
  <clipPath id="p662dd7d442">
   <rect x="440.138979" y="8.64" width="10.722041" height="54.36"/>
  </clipPath>
  <clipPath id="p1a15c39519">
   <rect x="453.6" y="10.777356" width="16.2" height="50.085288"/>
  </clipPath>
  <clipPath id="p756886c120">
   <rect x="471.564248" y="8.64" width="12.671503" height="54.36"/>
  </clipPath>
  <clipPath id="p7968bc0c6e">
   <rect x="486" y="9.426742" width="16.2" height="52.786517"/>
  </clipPath>
  <clipPath id="p7ebb8da4e6">
   <rect x="518.4" y="12.969805" width="16.2" height="45.700389"/>
  </clipPath>
  <clipPath id="p3b3b773788">
   <rect x="535.202069" y="8.64" width="14.995862" height="54.36"/>
  </clipPath>
 </defs>
</svg>
