<?xml version="1.0" encoding="utf-8" standalone="no"?>
<!DOCTYPE svg PUBLIC "-//W3C//DTD SVG 1.1//EN"
  "http://www.w3.org/Graphics/SVG/1.1/DTD/svg11.dtd">
<svg xmlns:xlink="http://www.w3.org/1999/xlink" width="702pt" height="72pt" viewBox="0 0 702 72" xmlns="http://www.w3.org/2000/svg" version="1.1">
 <metadata>
  <rdf:RDF xmlns:dc="http://purl.org/dc/elements/1.1/" xmlns:cc="http://creativecommons.org/ns#" xmlns:rdf="http://www.w3.org/1999/02/22-rdf-syntax-ns#">
   <cc:Work>
    <dc:type rdf:resource="http://purl.org/dc/dcmitype/StillImage"/>
    <dc:date>2023-02-28T20:45:59.868858</dc:date>
    <dc:format>image/svg+xml</dc:format>
    <dc:creator>
     <cc:Agent>
      <dc:title>Matplotlib v3.6.1, https://matplotlib.org/</dc:title>
     </cc:Agent>
    </dc:creator>
   </cc:Work>
  </rdf:RDF>
 </metadata>
 <defs>
  <style type="text/css">*{stroke-linejoin: round; stroke-linecap: butt}</style>
 </defs>
 <g id="figure_1">
  <g id="patch_1">
   <path d="M 0 72 
L 702 72 
L 702 0 
L 0 0 
z
" style="fill: #8fff9f"/>
  </g>
  <g id="axes_1">
   <g id="patch_2">
    <path d="M 11.3616 35.032717 
Q 10.31189 34.582841 9.337159 34.69531 
Q 6.300497 35.032717 4.388524 36.701007 
Q 2.476552 38.369297 2.476552 41.330979 
Q 2.476552 43.917766 4.482248 45.6048 
Q 6.487945 47.291834 9.112221 47.291834 
Q 11.474069 47.291834 12.598759 45.361117 
Q 13.723448 43.4304 13.723448 40.881103 
Q 13.723448 39.643945 13.311062 38.706703 
Q 12.898676 37.769462 12.373821 37.300841 
Q 11.848966 36.832221 11.099172 36.119917 
Q 10.349379 35.407614 9.899503 34.69531 
L 8.662345 34.245434 
" clip-path="url(#pbfde2bf3ce)" style="fill: none; stroke: #000000; stroke-linejoin: miter"/>
   </g>
  </g>
  <g id="axes_2">
   <g id="patch_3">
    <path d="M 19.838731 37.282097 
L 19.838731 37.844441 
Q 20.101159 39.868883 20.138648 41.312234 
Q 20.176138 42.755586 20.082414 44.667559 
Q 19.98869 46.579531 19.98869 48.191586 
L 20.063669 39.643945 
Q 20.063669 38.144359 21.656979 37.507034 
Q 23.25029 36.86971 24.674897 37.282097 
Q 26.586869 37.844441 27.505366 39.04411 
Q 28.423862 40.243779 28.480097 41.668386 
Q 28.536331 43.092993 28.573821 44.817517 
Q 28.61131 46.542041 28.761269 48.191586 
" clip-path="url(#p002be767ac)" style="fill: none; stroke: #000000; stroke-linejoin: miter"/>
   </g>
  </g>
  <g id="axes_3">
   <g id="patch_4">
    <path d="M 34.257798 38.160826 
Q 37.230275 39.535596 41.949083 39.721376 
Q 43.472477 39.721376 44.159862 38.550963 
Q 44.847248 37.38055 44.847248 35.82 
Q 44.847248 35.299817 44.754358 34.909679 
Q 44.661468 34.519541 44.419954 34.296606 
Q 44.17844 34.07367 44.011239 33.943624 
Q 43.844037 33.813578 43.398165 33.757844 
Q 42.952294 33.70211 42.747936 33.683532 
Q 42.543578 33.664954 41.967661 33.683532 
Q 41.391743 33.70211 41.168807 33.70211 
Q 39.125229 33.70211 37.638991 35.578486 
Q 36.152752 37.454862 36.152752 39.609908 
Q 36.152752 42.619541 38.084862 44.570229 
Q 40.016972 46.520917 43.063761 46.520917 
Q 45.218807 46.818165 46.742202 44.29156 
" clip-path="url(#pa7e0c95b02)" style="fill: none; stroke: #000000; stroke-linejoin: miter"/>
   </g>
  </g>
  <g id="axes_4"/>
  <g id="axes_5">
   <g id="patch_5">
    <path d="M 76.1616 35.032717 
Q 75.11189 34.582841 74.137159 34.69531 
Q 71.100497 35.032717 69.188524 36.701007 
Q 67.276552 38.369297 67.276552 41.330979 
Q 67.276552 43.917766 69.282248 45.6048 
Q 71.287945 47.291834 73.912221 47.291834 
Q 76.274069 47.291834 77.398759 45.361117 
Q 78.523448 43.4304 78.523448 40.881103 
Q 78.523448 39.643945 78.111062 38.706703 
Q 77.698676 37.769462 77.173821 37.300841 
Q 76.648966 36.832221 75.899172 36.119917 
Q 75.149379 35.407614 74.699503 34.69531 
L 73.462345 34.245434 
" clip-path="url(#p479f7969cb)" style="fill: none; stroke: #000000; stroke-linejoin: miter"/>
   </g>
  </g>
  <g id="axes_6">
   <g id="patch_6">
    <path d="M 82.784141 38.85304 
L 83.212335 38.85304 
Q 84.03304 38.85304 84.996476 38.745991 
Q 85.959912 38.638943 87.119604 38.460529 
Q 88.279295 38.282115 88.885903 38.210749 
L 95.415859 35.427489 
M 95.094714 25.793128 
Q 94.809251 25.721762 93.774449 25.275727 
Q 92.739648 24.829692 92.097357 24.93674 
Q 91.455066 24.93674 90.937665 25.150837 
Q 90.420264 25.364934 90.081278 25.793128 
Q 89.742291 26.221322 89.47467 26.685198 
Q 89.207048 27.149075 89.064317 27.862731 
Q 88.921586 28.576388 88.814537 29.129471 
Q 88.707489 29.682555 88.689648 30.50326 
Q 88.671806 31.323965 88.653965 31.77 
Q 88.636123 32.216035 88.653965 32.965374 
Q 88.671806 33.714714 88.671806 33.928811 
Q 88.671806 36.605022 89.367621 41.850396 
Q 90.063436 47.095771 90.063436 49.771982 
Q 89.99207 50.057445 89.956388 50.681894 
Q 89.920705 51.306344 89.813656 51.805903 
Q 89.706608 52.305463 89.421145 52.555242 
" clip-path="url(#pad399196d5)" style="fill: none; stroke: #000000; stroke-linejoin: miter"/>
   </g>
  </g>
  <g id="axes_7"/>
  <g id="axes_8">
   <g id="patch_7">
    <path d="M 116.663834 37.95691 
L 117.338648 37.95691 
Q 118.050952 37.95691 118.838234 37.881931 
Q 119.625517 37.806952 120.581503 37.675738 
Q 121.53749 37.544524 122.062345 37.507034 
L 126.336166 35.82 
M 122.287283 30.42149 
L 122.287283 31.43371 
Q 122.287283 33.383172 121.612469 37.207117 
Q 120.937655 41.031062 120.937655 43.018014 
Q 120.937655 43.805297 120.937655 44.105214 
Q 120.937655 44.405131 121.031379 45.042455 
Q 121.125103 45.679779 121.312552 45.960952 
Q 121.5 46.242124 121.893641 46.485807 
Q 122.287283 46.72949 122.849628 46.72949 
Q 122.962097 46.692 123.280759 46.72949 
Q 123.599421 46.766979 123.786869 46.710745 
Q 123.974317 46.65451 123.974317 46.392083 
" clip-path="url(#p0dd27897e3)" style="fill: none; stroke: #000000; stroke-linejoin: miter"/>
   </g>
  </g>
  <g id="axes_9">
   <g id="patch_8">
    <path d="M 134.213462 35.932469 
Q 134.813297 35.257655 135.806772 34.826524 
Q 136.800248 34.395393 137.7 34.470372 
Q 138.337324 34.470372 138.82469 34.639076 
Q 139.312055 34.807779 139.630717 34.995228 
Q 139.949379 35.182676 140.174317 35.670041 
Q 140.399255 36.157407 140.511724 36.419834 
Q 140.624193 36.682262 140.680428 37.375821 
Q 140.736662 38.069379 140.755407 38.331807 
Q 140.774152 38.594234 140.755407 39.419007 
Q 140.736662 40.243779 140.736662 40.431228 
Q 140.736662 41.368469 140.567959 43.242952 
Q 140.399255 45.117434 140.399255 46.054676 
Q 140.399255 46.467062 140.45549 46.823214 
Q 140.511724 47.179366 140.605448 47.610497 
Q 140.699172 48.041628 140.736662 48.304055 
L 141.186538 48.528993 
M 134.663338 23.111007 
Q 134.888276 24.798041 134.888276 29.971614 
L 134.888276 42.3432 
L 134.550869 46.841959 
L 134.325931 47.74171 
" clip-path="url(#pf4e654d373)" style="fill: none; stroke: #000000; stroke-linejoin: miter"/>
   </g>
  </g>
  <g id="axes_10">
   <g id="patch_9">
    <path d="M 147.657798 38.160826 
Q 150.630275 39.535596 155.349083 39.721376 
Q 156.872477 39.721376 157.559862 38.550963 
Q 158.247248 37.38055 158.247248 35.82 
Q 158.247248 35.299817 158.154358 34.909679 
Q 158.061468 34.519541 157.819954 34.296606 
Q 157.57844 34.07367 157.411239 33.943624 
Q 157.244037 33.813578 156.798165 33.757844 
Q 156.352294 33.70211 156.147936 33.683532 
Q 155.943578 33.664954 155.367661 33.683532 
Q 154.791743 33.70211 154.568807 33.70211 
Q 152.525229 33.70211 151.038991 35.578486 
Q 149.552752 37.454862 149.552752 39.609908 
Q 149.552752 42.619541 151.484862 44.570229 
Q 153.416972 46.520917 156.463761 46.520917 
Q 158.618807 46.818165 160.142202 44.29156 
" clip-path="url(#pd005b8f4e2)" style="fill: none; stroke: #000000; stroke-linejoin: miter"/>
   </g>
  </g>
  <g id="axes_11"/>
  <g id="axes_12">
   <g id="patch_10">
    <path d="M 180.008036 34.879821 
Q 180.514286 36.073125 180.803571 42.871339 
Q 180.948214 46.632054 181.2375 46.632054 
Q 181.273661 46.632054 181.309821 46.595893 
Q 181.816071 46.017321 181.870312 44.588973 
Q 181.924554 43.160625 181.707589 41.750357 
Q 181.490625 40.340089 181.2375 38.712857 
Q 180.984375 37.085625 180.984375 36.398571 
Q 180.984375 35.169107 181.364062 33.939643 
Q 181.74375 32.710179 182.720089 32.710179 
Q 183.949554 32.710179 184.672768 34.355491 
Q 185.395982 36.000804 185.558705 37.971563 
Q 185.721429 39.942321 185.829911 41.587634 
Q 185.938393 43.232946 186.083036 43.232946 
Q 186.227679 43.232946 186.31808 41.497232 
Q 186.408482 39.761518 186.535045 37.700357 
Q 186.661607 35.639196 187.384821 33.903482 
Q 188.108036 32.167768 189.3375 32.167768 
Q 190.892411 33.035625 191.561384 34.771339 
Q 192.230357 36.507054 192.194196 38.188527 
Q 192.158036 39.87 192.176116 42.057723 
Q 192.194196 44.245446 192.591964 45.511071 
" clip-path="url(#p68eb5456f0)" style="fill: none; stroke: #000000; stroke-linejoin: miter"/>
   </g>
  </g>
  <g id="axes_13">
   <g id="patch_11">
    <path d="M 205.7616 35.032717 
Q 204.71189 34.582841 203.737159 34.69531 
Q 200.700497 35.032717 198.788524 36.701007 
Q 196.876552 38.369297 196.876552 41.330979 
Q 196.876552 43.917766 198.882248 45.6048 
Q 200.887945 47.291834 203.512221 47.291834 
Q 205.874069 47.291834 206.998759 45.361117 
Q 208.123448 43.4304 208.123448 40.881103 
Q 208.123448 39.643945 207.711062 38.706703 
Q 207.298676 37.769462 206.773821 37.300841 
Q 206.248966 36.832221 205.499172 36.119917 
Q 204.749379 35.407614 204.299503 34.69531 
L 203.062345 34.245434 
" clip-path="url(#pcbc33db51f)" style="fill: none; stroke: #000000; stroke-linejoin: miter"/>
   </g>
  </g>
  <g id="axes_14">
   <g id="patch_12">
    <path d="M 214.257476 43.917766 
Q 214.557393 44.180193 215.569614 45.154924 
Q 216.581834 46.129655 217.144179 46.560786 
Q 217.706524 46.991917 218.73749 47.385559 
Q 219.768455 47.7792 220.780676 47.629241 
Q 221.45549 47.629241 221.92411 47.404303 
Q 222.392731 47.179366 222.617669 46.879448 
Q 222.842607 46.579531 222.973821 45.979697 
Q 223.105034 45.379862 223.123779 44.967476 
Q 223.142524 44.55509 223.142524 43.805297 
Q 223.142524 42.718097 222.242772 42.043283 
Q 221.343021 41.368469 220.049628 41.031062 
Q 218.756234 40.693655 217.462841 40.300014 
Q 216.169448 39.906372 215.269697 38.987876 
Q 214.369945 38.069379 214.369945 36.607283 
Q 214.369945 36.082428 214.538648 35.726276 
Q 214.707352 35.370124 215.100993 35.145186 
Q 215.494634 34.920248 215.775807 34.807779 
Q 216.056979 34.69531 216.713048 34.639076 
Q 217.369117 34.582841 217.556566 34.582841 
Q 217.744014 34.582841 218.418828 34.582841 
Q 219.618497 34.582841 220.199586 34.995228 
Q 220.780676 35.407614 221.099338 36.026193 
Q 221.418 36.644772 221.680428 36.832221 
" clip-path="url(#pd7f4d02e0c)" style="fill: none; stroke: #000000; stroke-linejoin: miter"/>
   </g>
  </g>
  <g id="axes_15">
   <g id="patch_13">
    <path d="M 230.063834 37.95691 
L 230.738648 37.95691 
Q 231.450952 37.95691 232.238234 37.881931 
Q 233.025517 37.806952 233.981503 37.675738 
Q 234.93749 37.544524 235.462345 37.507034 
L 239.736166 35.82 
M 235.687283 30.42149 
L 235.687283 31.43371 
Q 235.687283 33.383172 235.012469 37.207117 
Q 234.337655 41.031062 234.337655 43.018014 
Q 234.337655 43.805297 234.337655 44.105214 
Q 234.337655 44.405131 234.431379 45.042455 
Q 234.525103 45.679779 234.712552 45.960952 
Q 234.9 46.242124 235.293641 46.485807 
Q 235.687283 46.72949 236.249628 46.72949 
Q 236.362097 46.692 236.680759 46.72949 
Q 236.999421 46.766979 237.186869 46.710745 
Q 237.374317 46.65451 237.374317 46.392083 
" clip-path="url(#pdc2aa38b9c)" style="fill: none; stroke: #000000; stroke-linejoin: miter"/>
   </g>
  </g>
  <g id="axes_16"/>
  <g id="axes_17">
   <g id="patch_14">
    <path d="M 267.918579 29.071862 
Q 267.543683 29.146841 267.412469 29.577972 
Q 267.281255 30.009103 267.356234 30.42149 
Q 267.356234 30.571448 267.393724 30.702662 
Q 267.431214 30.833876 267.487448 30.89011 
Q 267.543683 30.946345 267.599917 31.040069 
Q 267.656152 31.133793 267.693641 31.208772 
L 267.80611 29.859145 
M 267.80611 34.020497 
Q 266.906359 39.006621 266.681421 42.793076 
L 267.131297 45.379862 
L 267.468703 46.054676 
" clip-path="url(#pbc87fd7fa7)" style="fill: none; stroke: #000000; stroke-linejoin: miter"/>
   </g>
  </g>
  <g id="axes_18">
   <g id="patch_15">
    <path d="M 277.208036 34.879821 
Q 277.714286 36.073125 278.003571 42.871339 
Q 278.148214 46.632054 278.4375 46.632054 
Q 278.473661 46.632054 278.509821 46.595893 
Q 279.016071 46.017321 279.070313 44.588973 
Q 279.124554 43.160625 278.907589 41.750357 
Q 278.690625 40.340089 278.4375 38.712857 
Q 278.184375 37.085625 278.184375 36.398571 
Q 278.184375 35.169107 278.564063 33.939643 
Q 278.94375 32.710179 279.920089 32.710179 
Q 281.149554 32.710179 281.872768 34.355491 
Q 282.595982 36.000804 282.758705 37.971563 
Q 282.921429 39.942321 283.029911 41.587634 
Q 283.138393 43.232946 283.283036 43.232946 
Q 283.427679 43.232946 283.51808 41.497232 
Q 283.608482 39.761518 283.735045 37.700357 
Q 283.861607 35.639196 284.584821 33.903482 
Q 285.308036 32.167768 286.5375 32.167768 
Q 288.092411 33.035625 288.761384 34.771339 
Q 289.430357 36.507054 289.394196 38.188527 
Q 289.358036 39.87 289.376116 42.057723 
Q 289.394196 44.245446 289.791964 45.511071 
" clip-path="url(#pdaa2fb4e05)" style="fill: none; stroke: #000000; stroke-linejoin: miter"/>
   </g>
  </g>
  <g id="axes_19">
   <g id="patch_16">
    <path d="M 294.920069 39.868883 
L 294.920069 39.419007 
Q 294.920069 37.769462 296.663338 36.682262 
Q 298.406607 35.595062 300.093641 35.595062 
Q 302.305531 35.595062 303.673903 36.794731 
Q 305.042276 37.9944 305.042276 40.20629 
Q 305.042276 42.30571 303.224028 43.336676 
Q 301.405779 44.367641 299.19389 44.367641 
Q 298.519076 44.367641 298.012966 44.255172 
Q 297.506855 44.142703 296.888276 43.917766 
Q 296.269697 43.692828 295.819821 43.580359 
L 294.695131 42.568138 
M 294.357724 36.832221 
Q 294.8076 38.444276 295.070028 40.262524 
Q 295.332455 42.080772 295.38869 43.749062 
Q 295.444924 45.417352 295.482414 47.27309 
Q 295.519903 49.128828 295.482414 50.778372 
L 295.369945 57.863917 
" clip-path="url(#pb837468bd4)" style="fill: none; stroke: #000000; stroke-linejoin: miter"/>
   </g>
  </g>
  <g id="axes_20">
   <g id="patch_17">
    <path d="M 319.1616 35.032717 
Q 318.11189 34.582841 317.137159 34.69531 
Q 314.100497 35.032717 312.188524 36.701007 
Q 310.276552 38.369297 310.276552 41.330979 
Q 310.276552 43.917766 312.282248 45.6048 
Q 314.287945 47.291834 316.912221 47.291834 
Q 319.274069 47.291834 320.398759 45.361117 
Q 321.523448 43.4304 321.523448 40.881103 
Q 321.523448 39.643945 321.111062 38.706703 
Q 320.698676 37.769462 320.173821 37.300841 
Q 319.648966 36.832221 318.899172 36.119917 
Q 318.149379 35.407614 317.699503 34.69531 
L 316.462345 34.245434 
" clip-path="url(#pcc1de0a7dc)" style="fill: none; stroke: #000000; stroke-linejoin: miter"/>
   </g>
  </g>
  <g id="axes_21">
   <g id="patch_18">
    <path d="M 328.613462 32.783338 
Q 329.138317 34.507862 329.269531 36.457324 
Q 329.400745 38.406786 329.325766 40.956083 
Q 329.250786 43.505379 329.288276 44.705048 
L 329.400745 46.054676 
L 329.400745 45.829738 
Q 329.400745 44.667559 329.119572 42.30571 
Q 328.8384 39.943862 328.8384 38.744193 
Q 328.8384 36.419834 329.850621 34.882759 
Q 330.862841 33.345683 332.887283 33.345683 
Q 333.599586 33.345683 333.936993 33.626855 
Q 334.2744 33.908028 334.536828 34.432883 
Q 334.799255 34.957738 335.136662 35.257655 
L 335.586538 36.832221 
" clip-path="url(#p5343da2db1)" style="fill: none; stroke: #000000; stroke-linejoin: miter"/>
   </g>
  </g>
  <g id="axes_22">
   <g id="patch_19">
    <path d="M 343.463834 37.95691 
L 344.138648 37.95691 
Q 344.850952 37.95691 345.638234 37.881931 
Q 346.425517 37.806952 347.381503 37.675738 
Q 348.33749 37.544524 348.862345 37.507034 
L 353.136166 35.82 
M 349.087283 30.42149 
L 349.087283 31.43371 
Q 349.087283 33.383172 348.412469 37.207117 
Q 347.737655 41.031062 347.737655 43.018014 
Q 347.737655 43.805297 347.737655 44.105214 
Q 347.737655 44.405131 347.831379 45.042455 
Q 347.925103 45.679779 348.112552 45.960952 
Q 348.3 46.242124 348.693641 46.485807 
Q 349.087283 46.72949 349.649628 46.72949 
Q 349.762097 46.692 350.080759 46.72949 
Q 350.399421 46.766979 350.586869 46.710745 
Q 350.774317 46.65451 350.774317 46.392083 
" clip-path="url(#pd3c0bcf40c)" style="fill: none; stroke: #000000; stroke-linejoin: miter"/>
   </g>
  </g>
  <g id="axes_23">
   <g id="patch_20">
    <path d="M 370.043923 36.441748 
Q 368.834968 35.094627 364.862687 35.094627 
Q 363.342857 35.094627 362.565672 35.146439 
Q 361.788486 35.198252 360.78678 35.440043 
Q 359.785075 35.681834 359.301493 36.182687 
Q 358.81791 36.683539 358.472495 37.616162 
Q 358.127079 38.548785 358.127079 39.964989 
Q 358.127079 42.037484 359.543284 43.280981 
Q 360.959488 44.524478 362.893817 44.524478 
Q 365.553518 44.524478 368.316844 38.721493 
Q 369.663966 35.854542 369.663966 35.82 
Q 370.009382 35.578209 370.043923 36.441748 
Q 370.043923 37.512537 370.458422 40.362217 
Q 370.872921 43.211898 370.872921 44.524478 
" clip-path="url(#p9799d40e9d)" style="fill: none; stroke: #000000; stroke-linejoin: miter"/>
   </g>
  </g>
  <g id="axes_24">
   <g id="patch_21">
    <path d="M 376.238731 37.282097 
L 376.238731 37.844441 
Q 376.501159 39.868883 376.538648 41.312234 
Q 376.576138 42.755586 376.482414 44.667559 
Q 376.38869 46.579531 376.38869 48.191586 
L 376.463669 39.643945 
Q 376.463669 38.144359 378.056979 37.507034 
Q 379.65029 36.86971 381.074897 37.282097 
Q 382.986869 37.844441 383.905366 39.04411 
Q 384.823862 40.243779 384.880097 41.668386 
Q 384.936331 43.092993 384.973821 44.817517 
Q 385.01131 46.542041 385.161269 48.191586 
" clip-path="url(#pfbbca51b18)" style="fill: none; stroke: #000000; stroke-linejoin: miter"/>
   </g>
  </g>
  <g id="axes_25">
   <g id="patch_22">
    <path d="M 392.063834 37.95691 
L 392.738648 37.95691 
Q 393.450952 37.95691 394.238234 37.881931 
Q 395.025517 37.806952 395.981503 37.675738 
Q 396.93749 37.544524 397.462345 37.507034 
L 401.736166 35.82 
M 397.687283 30.42149 
L 397.687283 31.43371 
Q 397.687283 33.383172 397.012469 37.207117 
Q 396.337655 41.031062 396.337655 43.018014 
Q 396.337655 43.805297 396.337655 44.105214 
Q 396.337655 44.405131 396.431379 45.042455 
Q 396.525103 45.679779 396.712552 45.960952 
Q 396.9 46.242124 397.293641 46.485807 
Q 397.687283 46.72949 398.249628 46.72949 
Q 398.362097 46.692 398.680759 46.72949 
Q 398.999421 46.766979 399.186869 46.710745 
Q 399.374317 46.65451 399.374317 46.392083 
" clip-path="url(#p43ac608b34)" style="fill: none; stroke: #000000; stroke-linejoin: miter"/>
   </g>
  </g>
  <g id="axes_26"/>
  <g id="axes_27">
   <g id="patch_23">
    <path d="M 434.843923 36.441748 
Q 433.634968 35.094627 429.662687 35.094627 
Q 428.142857 35.094627 427.365672 35.146439 
Q 426.588486 35.198252 425.58678 35.440043 
Q 424.585075 35.681834 424.101493 36.182687 
Q 423.61791 36.683539 423.272495 37.616162 
Q 422.927079 38.548785 422.927079 39.964989 
Q 422.927079 42.037484 424.343284 43.280981 
Q 425.759488 44.524478 427.693817 44.524478 
Q 430.353518 44.524478 433.116844 38.721493 
Q 434.463966 35.854542 434.463966 35.82 
Q 434.809382 35.578209 434.843923 36.441748 
Q 434.843923 37.512537 435.258422 40.362217 
Q 435.672921 43.211898 435.672921 44.524478 
" clip-path="url(#p845f1a753e)" style="fill: none; stroke: #000000; stroke-linejoin: miter"/>
   </g>
  </g>
  <g id="axes_28">
   <g id="patch_24">
    <path d="M 450.756735 34.365306 
Q 450.756735 34.365306 450.260816 34.365306 
Q 449.467347 34.365306 447.979592 34.067755 
Q 446.491837 33.770204 445.698367 33.770204 
Q 442.921224 33.770204 440.987143 35.224898 
Q 439.053061 36.679592 439.053061 39.423673 
Q 439.053061 40.94449 440.540816 42.399184 
Q 442.028571 43.853878 443.962653 44.663878 
Q 445.896735 45.473878 447.38449 45.473878 
Q 448.310204 45.473878 449.00449 45.110204 
Q 449.698776 44.746531 450.442653 44.118367 
Q 451.186531 43.490204 451.748571 43.192653 
L 451.946939 42.696735 
" clip-path="url(#p621c14b418)" style="fill: none; stroke: #000000; stroke-linejoin: miter"/>
   </g>
  </g>
  <g id="axes_29">
   <g id="patch_25">
    <path d="M 458.213462 35.932469 
Q 458.813297 35.257655 459.806772 34.826524 
Q 460.800248 34.395393 461.7 34.470372 
Q 462.337324 34.470372 462.82469 34.639076 
Q 463.312055 34.807779 463.630717 34.995228 
Q 463.949379 35.182676 464.174317 35.670041 
Q 464.399255 36.157407 464.511724 36.419834 
Q 464.624193 36.682262 464.680428 37.375821 
Q 464.736662 38.069379 464.755407 38.331807 
Q 464.774152 38.594234 464.755407 39.419007 
Q 464.736662 40.243779 464.736662 40.431228 
Q 464.736662 41.368469 464.567959 43.242952 
Q 464.399255 45.117434 464.399255 46.054676 
Q 464.399255 46.467062 464.45549 46.823214 
Q 464.511724 47.179366 464.605448 47.610497 
Q 464.699172 48.041628 464.736662 48.304055 
L 465.186538 48.528993 
M 458.663338 23.111007 
Q 458.888276 24.798041 458.888276 29.971614 
L 458.888276 42.3432 
L 458.550869 46.841959 
L 458.325931 47.74171 
" clip-path="url(#pe08388d9f2)" style="fill: none; stroke: #000000; stroke-linejoin: miter"/>
   </g>
  </g>
  <g id="axes_30">
   <g id="patch_26">
    <path d="M 478.518579 29.071862 
Q 478.143683 29.146841 478.012469 29.577972 
Q 477.881255 30.009103 477.956234 30.42149 
Q 477.956234 30.571448 477.993724 30.702662 
Q 478.031214 30.833876 478.087448 30.89011 
Q 478.143683 30.946345 478.199917 31.040069 
Q 478.256152 31.133793 478.293641 31.208772 
L 478.40611 29.859145 
M 478.40611 34.020497 
Q 477.506359 39.006621 477.281421 42.793076 
L 477.731297 45.379862 
L 478.068703 46.054676 
" clip-path="url(#p77343e3fca)" style="fill: none; stroke: #000000; stroke-linejoin: miter"/>
   </g>
  </g>
  <g id="axes_31">
   <g id="patch_27">
    <path d="M 487.857798 38.160826 
Q 490.830275 39.535596 495.549083 39.721376 
Q 497.072477 39.721376 497.759862 38.550963 
Q 498.447248 37.38055 498.447248 35.82 
Q 498.447248 35.299817 498.354358 34.909679 
Q 498.261468 34.519541 498.019954 34.296606 
Q 497.77844 34.07367 497.611239 33.943624 
Q 497.444037 33.813578 496.998165 33.757844 
Q 496.552294 33.70211 496.347936 33.683532 
Q 496.143578 33.664954 495.567661 33.683532 
Q 494.991743 33.70211 494.768807 33.70211 
Q 492.725229 33.70211 491.238991 35.578486 
Q 489.752752 37.454862 489.752752 39.609908 
Q 489.752752 42.619541 491.684862 44.570229 
Q 493.616972 46.520917 496.663761 46.520917 
Q 498.818807 46.818165 500.342202 44.29156 
" clip-path="url(#pedb56e7f1d)" style="fill: none; stroke: #000000; stroke-linejoin: miter"/>
   </g>
  </g>
  <g id="axes_32">
   <g id="patch_28">
    <path d="M 506.026179 34.807779 
Q 507.638234 36.719752 508.931628 39.6252 
Q 510.225021 42.530648 510.524938 45.154924 
Q 511.574648 43.655338 512.493145 38.819172 
Q 513.411641 33.983007 514.573821 32.108524 
" clip-path="url(#p0384fc4fdd)" style="fill: none; stroke: #000000; stroke-linejoin: miter"/>
   </g>
  </g>
  <g id="axes_33">
   <g id="patch_29">
    <path d="M 520.257798 38.160826 
Q 523.230275 39.535596 527.949083 39.721376 
Q 529.472477 39.721376 530.159862 38.550963 
Q 530.847248 37.38055 530.847248 35.82 
Q 530.847248 35.299817 530.754358 34.909679 
Q 530.661468 34.519541 530.419954 34.296606 
Q 530.17844 34.07367 530.011239 33.943624 
Q 529.844037 33.813578 529.398165 33.757844 
Q 528.952294 33.70211 528.747936 33.683532 
Q 528.543578 33.664954 527.967661 33.683532 
Q 527.391743 33.70211 527.168807 33.70211 
Q 525.125229 33.70211 523.638991 35.578486 
Q 522.152752 37.454862 522.152752 39.609908 
Q 522.152752 42.619541 524.084862 44.570229 
Q 526.016972 46.520917 529.063761 46.520917 
Q 531.218807 46.818165 532.742202 44.29156 
" clip-path="url(#p6120d58e3f)" style="fill: none; stroke: #000000; stroke-linejoin: miter"/>
   </g>
  </g>
  <g id="axes_34">
   <g id="patch_30">
    <path d="M 536.408036 34.879821 
Q 536.914286 36.073125 537.203571 42.871339 
Q 537.348214 46.632054 537.6375 46.632054 
Q 537.673661 46.632054 537.709821 46.595893 
Q 538.216071 46.017321 538.270313 44.588973 
Q 538.324554 43.160625 538.107589 41.750357 
Q 537.890625 40.340089 537.6375 38.712857 
Q 537.384375 37.085625 537.384375 36.398571 
Q 537.384375 35.169107 537.764063 33.939643 
Q 538.14375 32.710179 539.120089 32.710179 
Q 540.349554 32.710179 541.072768 34.355491 
Q 541.795982 36.000804 541.958705 37.971563 
Q 542.121429 39.942321 542.229911 41.587634 
Q 542.338393 43.232946 542.483036 43.232946 
Q 542.627679 43.232946 542.71808 41.497232 
Q 542.808482 39.761518 542.935045 37.700357 
Q 543.061607 35.639196 543.784821 33.903482 
Q 544.508036 32.167768 545.7375 32.167768 
Q 547.292411 33.035625 547.961384 34.771339 
Q 548.630357 36.507054 548.594196 38.188527 
Q 548.558036 39.87 548.576116 42.057723 
Q 548.594196 44.245446 548.991964 45.511071 
" clip-path="url(#p60c8e64fab)" style="fill: none; stroke: #000000; stroke-linejoin: miter"/>
   </g>
  </g>
  <g id="axes_35">
   <g id="patch_31">
    <path d="M 552.657798 38.160826 
Q 555.630275 39.535596 560.349083 39.721376 
Q 561.872477 39.721376 562.559862 38.550963 
Q 563.247248 37.38055 563.247248 35.82 
Q 563.247248 35.299817 563.154358 34.909679 
Q 563.061468 34.519541 562.819954 34.296606 
Q 562.57844 34.07367 562.411239 33.943624 
Q 562.244037 33.813578 561.798165 33.757844 
Q 561.352294 33.70211 561.147936 33.683532 
Q 560.943578 33.664954 560.367661 33.683532 
Q 559.791743 33.70211 559.568807 33.70211 
Q 557.525229 33.70211 556.038991 35.578486 
Q 554.552752 37.454862 554.552752 39.609908 
Q 554.552752 42.619541 556.484862 44.570229 
Q 558.416972 46.520917 561.463761 46.520917 
Q 563.618807 46.818165 565.142202 44.29156 
" clip-path="url(#p30426a8d6a)" style="fill: none; stroke: #000000; stroke-linejoin: miter"/>
   </g>
  </g>
  <g id="axes_36">
   <g id="patch_32">
    <path d="M 570.638731 37.282097 
L 570.638731 37.844441 
Q 570.901159 39.868883 570.938648 41.312234 
Q 570.976138 42.755586 570.882414 44.667559 
Q 570.78869 46.579531 570.78869 48.191586 
L 570.863669 39.643945 
Q 570.863669 38.144359 572.456979 37.507034 
Q 574.05029 36.86971 575.474897 37.282097 
Q 577.386869 37.844441 578.305366 39.04411 
Q 579.223862 40.243779 579.280097 41.668386 
Q 579.336331 43.092993 579.373821 44.817517 
Q 579.41131 46.542041 579.561269 48.191586 
" clip-path="url(#p50f3bd21c2)" style="fill: none; stroke: #000000; stroke-linejoin: miter"/>
   </g>
  </g>
  <g id="axes_37">
   <g id="patch_33">
    <path d="M 586.463834 37.95691 
L 587.138648 37.95691 
Q 587.850952 37.95691 588.638234 37.881931 
Q 589.425517 37.806952 590.381503 37.675738 
Q 591.33749 37.544524 591.862345 37.507034 
L 596.136166 35.82 
M 592.087283 30.42149 
L 592.087283 31.43371 
Q 592.087283 33.383172 591.412469 37.207117 
Q 590.737655 41.031062 590.737655 43.018014 
Q 590.737655 43.805297 590.737655 44.105214 
Q 590.737655 44.405131 590.831379 45.042455 
Q 590.925103 45.679779 591.112552 45.960952 
Q 591.3 46.242124 591.693641 46.485807 
Q 592.087283 46.72949 592.649628 46.72949 
Q 592.762097 46.692 593.080759 46.72949 
Q 593.399421 46.766979 593.586869 46.710745 
Q 593.774317 46.65451 593.774317 46.392083 
" clip-path="url(#pb6cab9ae91)" style="fill: none; stroke: #000000; stroke-linejoin: miter"/>
   </g>
  </g>
  <g id="axes_38">
   <g id="patch_34">
    <path d="M 603.057476 43.917766 
Q 603.357393 44.180193 604.369614 45.154924 
Q 605.381834 46.129655 605.944179 46.560786 
Q 606.506524 46.991917 607.53749 47.385559 
Q 608.568455 47.7792 609.580676 47.629241 
Q 610.25549 47.629241 610.72411 47.404303 
Q 611.192731 47.179366 611.417669 46.879448 
Q 611.642607 46.579531 611.773821 45.979697 
Q 611.905034 45.379862 611.923779 44.967476 
Q 611.942524 44.55509 611.942524 43.805297 
Q 611.942524 42.718097 611.042772 42.043283 
Q 610.143021 41.368469 608.849628 41.031062 
Q 607.556234 40.693655 606.262841 40.300014 
Q 604.969448 39.906372 604.069697 38.987876 
Q 603.169945 38.069379 603.169945 36.607283 
Q 603.169945 36.082428 603.338648 35.726276 
Q 603.507352 35.370124 603.900993 35.145186 
Q 604.294634 34.920248 604.575807 34.807779 
Q 604.856979 34.69531 605.513048 34.639076 
Q 606.169117 34.582841 606.356566 34.582841 
Q 606.544014 34.582841 607.218828 34.582841 
Q 608.418497 34.582841 608.999586 34.995228 
Q 609.580676 35.407614 609.899338 36.026193 
Q 610.218 36.644772 610.480428 36.832221 
" clip-path="url(#pa84d18c7fa)" style="fill: none; stroke: #000000; stroke-linejoin: miter"/>
   </g>
  </g>
  <g id="axes_39">
   <g id="patch_35">
    <path d="M 623.587531 45.979697 
Q 623.550041 46.017186 623.418828 46.054676 
Q 623.287614 46.092166 623.325103 46.167145 
Q 623.325103 46.579531 623.7 46.579531 
Q 624.037407 46.579531 624.037407 46.092166 
Q 624.112386 45.867228 623.831214 45.754759 
Q 623.550041 45.64229 623.362593 45.754759 
" clip-path="url(#pbf81f0652a)" style="fill: none; stroke: #000000; stroke-linejoin: miter"/>
   </g>
  </g>
 </g>
 <defs>
  <clipPath id="pbfde2bf3ce">
   <rect x="0.602069" y="8.64" width="14.995862" height="54.36"/>
  </clipPath>
  <clipPath id="p002be767ac">
   <rect x="17.964248" y="8.64" width="12.671503" height="54.36"/>
  </clipPath>
  <clipPath id="pa7e0c95b02">
   <rect x="32.4" y="8.881927" width="16.2" height="53.876147"/>
  </clipPath>
  <clipPath id="p479f7969cb">
   <rect x="65.402069" y="8.64" width="14.995862" height="54.36"/>
  </clipPath>
  <clipPath id="pad399196d5">
   <rect x="81" y="9.949956" width="16.2" height="51.740088"/>
  </clipPath>
  <clipPath id="p0dd27897e3">
   <rect x="114.789352" y="8.64" width="13.421297" height="54.36"/>
  </clipPath>
  <clipPath id="pf4e654d373">
   <rect x="132.338979" y="8.64" width="10.722041" height="54.36"/>
  </clipPath>
  <clipPath id="pd005b8f4e2">
   <rect x="145.8" y="8.881927" width="16.2" height="53.876147"/>
  </clipPath>
  <clipPath id="p68eb5456f0">
   <rect x="178.2" y="9.603482" width="16.2" height="52.433036"/>
  </clipPath>
  <clipPath id="pcbc33db51f">
   <rect x="195.002069" y="8.64" width="14.995862" height="54.36"/>
  </clipPath>
  <clipPath id="pd7f4d02e0c">
   <rect x="212.382993" y="8.64" width="12.634014" height="54.36"/>
  </clipPath>
  <clipPath id="pdc2aa38b9c">
   <rect x="228.189352" y="8.64" width="13.421297" height="54.36"/>
  </clipPath>
  <clipPath id="pbc87fd7fa7">
   <rect x="264.806938" y="8.64" width="4.986124" height="54.36"/>
  </clipPath>
  <clipPath id="pdaa2fb4e05">
   <rect x="275.4" y="9.603482" width="16.2" height="52.433036"/>
  </clipPath>
  <clipPath id="pb837468bd4">
   <rect x="292.483241" y="8.64" width="14.433517" height="54.36"/>
  </clipPath>
  <clipPath id="pcc1de0a7dc">
   <rect x="308.402069" y="8.64" width="14.995862" height="54.36"/>
  </clipPath>
  <clipPath id="p5343da2db1">
   <rect x="326.738979" y="8.64" width="10.722041" height="54.36"/>
  </clipPath>
  <clipPath id="pd3c0bcf40c">
   <rect x="341.589352" y="8.64" width="13.421297" height="54.36"/>
  </clipPath>
  <clipPath id="p9799d40e9d">
   <rect x="356.4" y="10.777356" width="16.2" height="50.085288"/>
  </clipPath>
  <clipPath id="pfbbca51b18">
   <rect x="374.364248" y="8.64" width="12.671503" height="54.36"/>
  </clipPath>
  <clipPath id="p43ac608b34">
   <rect x="390.189352" y="8.64" width="13.421297" height="54.36"/>
  </clipPath>
  <clipPath id="p845f1a753e">
   <rect x="421.2" y="10.777356" width="16.2" height="50.085288"/>
  </clipPath>
  <clipPath id="p621c14b418">
   <rect x="437.4" y="11.850612" width="16.2" height="47.938776"/>
  </clipPath>
  <clipPath id="pe08388d9f2">
   <rect x="456.338979" y="8.64" width="10.722041" height="54.36"/>
  </clipPath>
  <clipPath id="p77343e3fca">
   <rect x="475.406938" y="8.64" width="4.986124" height="54.36"/>
  </clipPath>
  <clipPath id="pedb56e7f1d">
   <rect x="486" y="8.881927" width="16.2" height="53.876147"/>
  </clipPath>
  <clipPath id="p0384fc4fdd">
   <rect x="504.151697" y="8.64" width="12.296607" height="54.36"/>
  </clipPath>
  <clipPath id="p6120d58e3f">
   <rect x="518.4" y="8.881927" width="16.2" height="53.876147"/>
  </clipPath>
  <clipPath id="p60c8e64fab">
   <rect x="534.6" y="9.603482" width="16.2" height="52.433036"/>
  </clipPath>
  <clipPath id="p30426a8d6a">
   <rect x="550.8" y="8.881927" width="16.2" height="53.876147"/>
  </clipPath>
  <clipPath id="p50f3bd21c2">
   <rect x="568.764248" y="8.64" width="12.671503" height="54.36"/>
  </clipPath>
  <clipPath id="pb6cab9ae91">
   <rect x="584.589352" y="8.64" width="13.421297" height="54.36"/>
  </clipPath>
  <clipPath id="pa84d18c7fa">
   <rect x="601.182993" y="8.64" width="12.634014" height="54.36"/>
  </clipPath>
  <clipPath id="pbf81f0652a">
   <rect x="621.413131" y="8.64" width="4.573738" height="54.36"/>
  </clipPath>
 </defs>
</svg>
