<?xml version="1.0" encoding="utf-8" standalone="no"?>
<!DOCTYPE svg PUBLIC "-//W3C//DTD SVG 1.1//EN"
  "http://www.w3.org/Graphics/SVG/1.1/DTD/svg11.dtd">
<svg xmlns:xlink="http://www.w3.org/1999/xlink" width="306pt" height="72pt" viewBox="0 0 306 72" xmlns="http://www.w3.org/2000/svg" version="1.1">
 <metadata>
  <rdf:RDF xmlns:dc="http://purl.org/dc/elements/1.1/" xmlns:cc="http://creativecommons.org/ns#" xmlns:rdf="http://www.w3.org/1999/02/22-rdf-syntax-ns#">
   <cc:Work>
    <dc:type rdf:resource="http://purl.org/dc/dcmitype/StillImage"/>
    <dc:date>2023-02-28T20:45:46.158461</dc:date>
    <dc:format>image/svg+xml</dc:format>
    <dc:creator>
     <cc:Agent>
      <dc:title>Matplotlib v3.6.1, https://matplotlib.org/</dc:title>
     </cc:Agent>
    </dc:creator>
   </cc:Work>
  </rdf:RDF>
 </metadata>
 <defs>
  <style type="text/css">*{stroke-linejoin: round; stroke-linecap: butt}</style>
 </defs>
 <g id="figure_1">
  <g id="patch_1">
   <path d="M 0 72 
L 306 72 
L 306 0 
L 0 0 
z
" style="fill: #8fff9f"/>
  </g>
  <g id="axes_1">
   <g id="patch_2">
    <path d="M 3.263834 37.95691 
L 3.938648 37.95691 
Q 4.650952 37.95691 5.438234 37.881931 
Q 6.225517 37.806952 7.181503 37.675738 
Q 8.13749 37.544524 8.662345 37.507034 
L 12.936166 35.82 
M 8.887283 30.42149 
L 8.887283 31.43371 
Q 8.887283 33.383172 8.212469 37.207117 
Q 7.537655 41.031062 7.537655 43.018014 
Q 7.537655 43.805297 7.537655 44.105214 
Q 7.537655 44.405131 7.631379 45.042455 
Q 7.725103 45.679779 7.912552 45.960952 
Q 8.1 46.242124 8.493641 46.485807 
Q 8.887283 46.72949 9.449628 46.72949 
Q 9.562097 46.692 9.880759 46.72949 
Q 10.199421 46.766979 10.386869 46.710745 
Q 10.574317 46.65451 10.574317 46.392083 
" clip-path="url(#p56f4257868)" style="fill: none; stroke: #000000; stroke-linejoin: miter"/>
   </g>
  </g>
  <g id="axes_2">
   <g id="patch_3">
    <path d="M 19.032703 35.332634 
L 29.379848 35.332634 
M 28.592566 39.344028 
Q 28.592566 39.344028 25.668372 39.344028 
Q 18.695297 39.344028 18.695297 44.5176 
Q 18.695297 46.279614 20.45731 47.19811 
Q 22.219324 48.116607 24.206276 48.116607 
Q 25.443434 47.891669 26.249462 47.2356 
Q 27.05549 46.579531 27.411641 45.586055 
Q 27.767793 44.592579 27.936497 43.674083 
Q 28.1052 42.755586 28.255159 41.443448 
Q 28.405117 40.13131 28.592566 39.344028 
Q 29.679766 46.092166 29.792234 47.029407 
L 29.904703 48.154097 
" clip-path="url(#p43b59e91b8)" style="fill: none; stroke: #000000; stroke-linejoin: miter"/>
   </g>
  </g>
  <g id="axes_3"/>
  <g id="axes_4">
   <g id="patch_4">
    <path d="M 53.213462 32.783338 
Q 53.738317 34.507862 53.869531 36.457324 
Q 54.000745 38.406786 53.925766 40.956083 
Q 53.850786 43.505379 53.888276 44.705048 
L 54.000745 46.054676 
L 54.000745 45.829738 
Q 54.000745 44.667559 53.719572 42.30571 
Q 53.4384 39.943862 53.4384 38.744193 
Q 53.4384 36.419834 54.450621 34.882759 
Q 55.462841 33.345683 57.487283 33.345683 
Q 58.199586 33.345683 58.536993 33.626855 
Q 58.8744 33.908028 59.136828 34.432883 
Q 59.399255 34.957738 59.736662 35.257655 
L 60.186538 36.832221 
" clip-path="url(#p54561b9ae0)" style="fill: none; stroke: #000000; stroke-linejoin: miter"/>
   </g>
  </g>
  <g id="axes_5">
   <g id="patch_5">
    <path d="M 69.6384 34.357903 
Q 69.900828 34.395393 70.238234 33.795559 
Q 70.575641 33.195724 71.100497 33.345683 
L 75.599255 29.2968 
M 68.738648 40.656166 
L 68.963586 40.656166 
Q 69.67589 40.656166 71.23171 41.330979 
Q 72.787531 42.005793 73.687283 42.005793 
Q 76.386538 42.005793 76.386538 38.744193 
Q 76.386538 36.607283 73.012469 36.607283 
Q 71.137986 36.607283 70.050786 37.750717 
Q 68.963586 38.894152 68.963586 40.768634 
Q 68.963586 43.617848 70.294469 45.454841 
Q 71.625352 47.291834 74.362097 47.291834 
Q 75.824193 47.591752 77.061352 45.6048 
" clip-path="url(#p6015148b28)" style="fill: none; stroke: #000000; stroke-linejoin: miter"/>
   </g>
  </g>
  <g id="axes_6">
   <g id="patch_6">
    <path d="M 84.638731 37.282097 
L 84.638731 37.844441 
Q 84.901159 39.868883 84.938648 41.312234 
Q 84.976138 42.755586 84.882414 44.667559 
Q 84.78869 46.579531 84.78869 48.191586 
L 84.863669 39.643945 
Q 84.863669 38.144359 86.456979 37.507034 
Q 88.05029 36.86971 89.474897 37.282097 
Q 91.386869 37.844441 92.305366 39.04411 
Q 93.223862 40.243779 93.280097 41.668386 
Q 93.336331 43.092993 93.373821 44.817517 
Q 93.41131 46.542041 93.561269 48.191586 
" clip-path="url(#pd347f42d82)" style="fill: none; stroke: #000000; stroke-linejoin: miter"/>
   </g>
  </g>
  <g id="axes_7">
   <g id="patch_7">
    <path d="M 100.857476 43.917766 
Q 101.157393 44.180193 102.169614 45.154924 
Q 103.181834 46.129655 103.744179 46.560786 
Q 104.306524 46.991917 105.33749 47.385559 
Q 106.368455 47.7792 107.380676 47.629241 
Q 108.05549 47.629241 108.52411 47.404303 
Q 108.992731 47.179366 109.217669 46.879448 
Q 109.442607 46.579531 109.573821 45.979697 
Q 109.705034 45.379862 109.723779 44.967476 
Q 109.742524 44.55509 109.742524 43.805297 
Q 109.742524 42.718097 108.842772 42.043283 
Q 107.943021 41.368469 106.649628 41.031062 
Q 105.356234 40.693655 104.062841 40.300014 
Q 102.769448 39.906372 101.869697 38.987876 
Q 100.969945 38.069379 100.969945 36.607283 
Q 100.969945 36.082428 101.138648 35.726276 
Q 101.307352 35.370124 101.700993 35.145186 
Q 102.094634 34.920248 102.375807 34.807779 
Q 102.656979 34.69531 103.313048 34.639076 
Q 103.969117 34.582841 104.156566 34.582841 
Q 104.344014 34.582841 105.018828 34.582841 
Q 106.218497 34.582841 106.799586 34.995228 
Q 107.380676 35.407614 107.699338 36.026193 
Q 108.018 36.644772 108.280428 36.832221 
" clip-path="url(#pd6baa00924)" style="fill: none; stroke: #000000; stroke-linejoin: miter"/>
   </g>
  </g>
  <g id="axes_8">
   <g id="patch_8">
    <path d="M 118.013462 35.932469 
Q 118.613297 35.257655 119.606772 34.826524 
Q 120.600248 34.395393 121.5 34.470372 
Q 122.137324 34.470372 122.62469 34.639076 
Q 123.112055 34.807779 123.430717 34.995228 
Q 123.749379 35.182676 123.974317 35.670041 
Q 124.199255 36.157407 124.311724 36.419834 
Q 124.424193 36.682262 124.480428 37.375821 
Q 124.536662 38.069379 124.555407 38.331807 
Q 124.574152 38.594234 124.555407 39.419007 
Q 124.536662 40.243779 124.536662 40.431228 
Q 124.536662 41.368469 124.367959 43.242952 
Q 124.199255 45.117434 124.199255 46.054676 
Q 124.199255 46.467062 124.25549 46.823214 
Q 124.311724 47.179366 124.405448 47.610497 
Q 124.499172 48.041628 124.536662 48.304055 
L 124.986538 48.528993 
M 118.463338 23.111007 
Q 118.688276 24.798041 118.688276 29.971614 
L 118.688276 42.3432 
L 118.350869 46.841959 
L 118.125931 47.74171 
" clip-path="url(#p92e77cc202)" style="fill: none; stroke: #000000; stroke-linejoin: miter"/>
   </g>
  </g>
  <g id="axes_9">
   <g id="patch_9">
    <path d="M 133.988524 34.357903 
L 140.849131 34.69531 
M 134.775807 42.643117 
Q 136.012966 43.205462 136.912717 43.205462 
Q 137.250124 43.205462 138.543517 43.242952 
Q 139.83691 43.280441 140.436745 43.280441 
Q 140.774152 43.280441 141.017834 43.167972 
Q 141.261517 43.055503 141.411476 42.830566 
Q 141.561434 42.605628 141.636414 42.38069 
Q 141.711393 42.155752 141.748883 41.7996 
Q 141.786372 41.443448 141.786372 41.199766 
Q 141.786372 40.956083 141.767628 40.562441 
Q 141.748883 40.1688 141.748883 40.018841 
Q 141.748883 38.819172 140.155572 38.331807 
Q 138.562262 37.844441 137.362593 38.144359 
Q 135.038234 38.744193 134.288441 40.281269 
Q 133.538648 41.818345 133.538648 44.217683 
Q 133.538648 44.929986 133.632372 45.492331 
Q 133.726097 46.054676 134.007269 46.448317 
Q 134.288441 46.841959 134.532124 47.141876 
Q 134.775807 47.441793 135.281917 47.610497 
Q 135.788028 47.7792 136.087945 47.891669 
Q 136.387862 48.004138 137.100166 48.041628 
Q 137.812469 48.079117 138.112386 48.097862 
Q 138.412303 48.116607 139.274566 48.097862 
Q 140.136828 48.079117 140.399255 48.079117 
Q 140.811641 48.379034 141.186538 47.929159 
Q 141.561434 47.479283 141.861352 47.516772 
" clip-path="url(#p26c29c3faa)" style="fill: none; stroke: #000000; stroke-linejoin: miter"/>
   </g>
  </g>
  <g id="axes_10">
   <g id="patch_10">
    <path d="M 149.438731 37.282097 
L 149.438731 37.844441 
Q 149.701159 39.868883 149.738648 41.312234 
Q 149.776138 42.755586 149.682414 44.667559 
Q 149.58869 46.579531 149.58869 48.191586 
L 149.663669 39.643945 
Q 149.663669 38.144359 151.256979 37.507034 
Q 152.85029 36.86971 154.274897 37.282097 
Q 156.186869 37.844441 157.105366 39.04411 
Q 158.023862 40.243779 158.080097 41.668386 
Q 158.136331 43.092993 158.173821 44.817517 
Q 158.21131 46.542041 158.361269 48.191586 
" clip-path="url(#p6300206be9)" style="fill: none; stroke: #000000; stroke-linejoin: miter"/>
   </g>
  </g>
  <g id="axes_11">
   <g id="patch_11">
    <path d="M 174.887191 39.096404 
Q 174.63236 39.023596 173.66764 38.623146 
Q 172.702921 38.222697 172.04764 38.077079 
Q 171.39236 37.931461 170.737079 38.00427 
Q 168.115955 38.00427 166.477753 40.388764 
Q 164.839551 42.773258 164.839551 45.430787 
Q 164.839551 47.068989 170.081798 47.068989 
Q 171.647191 47.068989 172.975955 45.558202 
Q 174.304719 44.047416 174.978202 42.172584 
Q 175.651685 40.297753 175.651685 38.768764 
Q 175.651685 37.27618 175.615281 36.984944 
L 175.542472 38.077079 
Q 175.542472 38.550337 175.542472 38.987191 
Q 175.578876 40.188539 175.779101 42.281798 
Q 175.979326 44.375056 176.143146 46.049663 
Q 176.306966 47.72427 176.343371 49.872135 
Q 176.379775 52.02 176.215955 53.658202 
Q 176.052135 55.296404 175.487865 56.971011 
Q 174.923596 58.645618 173.995281 59.737753 
Q 173.066966 60.829888 171.465169 61.521573 
Q 169.863371 62.213258 167.715506 62.213258 
Q 166.077303 62.213258 164.985169 61.466966 
Q 163.893034 60.720674 163.893034 59.155281 
Q 163.820225 58.936854 163.856629 58.936854 
Q 163.893034 58.936854 164.002247 58.936854 
Q 164.111461 58.936854 164.111461 58.82764 
" clip-path="url(#pa885e5a7e3)" style="fill: none; stroke: #000000; stroke-linejoin: miter"/>
   </g>
  </g>
  <g id="axes_12"/>
  <g id="axes_13">
   <g id="patch_12">
    <path d="M 197.6076 35.032717 
Q 197.6076 35.032717 200.981669 35.032717 
Q 201.094138 35.032717 202.837407 34.826524 
Q 204.580676 34.620331 205.592897 34.789034 
Q 206.605117 34.957738 206.605117 35.707531 
Q 206.605117 36.86971 205.592897 38.144359 
Q 204.580676 39.419007 203.118579 40.506207 
Q 201.656483 41.593407 200.194386 42.605628 
Q 198.73229 43.617848 197.720069 44.573834 
Q 196.707848 45.529821 196.707848 46.279614 
L 197.832538 46.279614 
Q 197.870028 46.279614 200.081917 46.054676 
L 208.292152 45.942207 
" clip-path="url(#pe2adc898f6)" style="fill: none; stroke: #000000; stroke-linejoin: miter"/>
   </g>
  </g>
  <g id="axes_14">
   <g id="patch_13">
    <path d="M 215.213462 35.932469 
Q 215.813297 35.257655 216.806772 34.826524 
Q 217.800248 34.395393 218.7 34.470372 
Q 219.337324 34.470372 219.82469 34.639076 
Q 220.312055 34.807779 220.630717 34.995228 
Q 220.949379 35.182676 221.174317 35.670041 
Q 221.399255 36.157407 221.511724 36.419834 
Q 221.624193 36.682262 221.680428 37.375821 
Q 221.736662 38.069379 221.755407 38.331807 
Q 221.774152 38.594234 221.755407 39.419007 
Q 221.736662 40.243779 221.736662 40.431228 
Q 221.736662 41.368469 221.567959 43.242952 
Q 221.399255 45.117434 221.399255 46.054676 
Q 221.399255 46.467062 221.45549 46.823214 
Q 221.511724 47.179366 221.605448 47.610497 
Q 221.699172 48.041628 221.736662 48.304055 
L 222.186538 48.528993 
M 215.663338 23.111007 
Q 215.888276 24.798041 215.888276 29.971614 
L 215.888276 42.3432 
L 215.550869 46.841959 
L 215.325931 47.74171 
" clip-path="url(#pfdde07307d)" style="fill: none; stroke: #000000; stroke-linejoin: miter"/>
   </g>
  </g>
  <g id="axes_15">
   <g id="patch_14">
    <path d="M 230.682414 34.020497 
L 238.217834 34.357903 
M 237.055655 38.106869 
Q 237.018166 37.95691 236.437076 37.975655 
Q 235.855986 37.9944 235.818497 37.9944 
Q 232.931793 37.9944 231.844593 39.287793 
Q 230.757393 40.581186 230.757393 43.617848 
Q 230.757393 45.267393 231.919572 46.523297 
Q 233.081752 47.7792 234.806276 47.7792 
Q 236.380841 47.7792 237.618 46.598276 
Q 238.855159 45.417352 238.855159 43.842786 
Q 239.117586 42.043283 238.12411 40.318759 
Q 237.130634 38.594234 235.48109 37.881931 
" clip-path="url(#pa2341ab1cb)" style="fill: none; stroke: #000000; stroke-linejoin: miter"/>
   </g>
  </g>
  <g id="axes_16">
   <g id="patch_15">
    <path d="M 246.638731 37.282097 
L 246.638731 37.844441 
Q 246.901159 39.868883 246.938648 41.312234 
Q 246.976138 42.755586 246.882414 44.667559 
Q 246.78869 46.579531 246.78869 48.191586 
L 246.863669 39.643945 
Q 246.863669 38.144359 248.456979 37.507034 
Q 250.05029 36.86971 251.474897 37.282097 
Q 253.386869 37.844441 254.305366 39.04411 
Q 255.223862 40.243779 255.280097 41.668386 
Q 255.336331 43.092993 255.373821 44.817517 
Q 255.41131 46.542041 255.561269 48.191586 
" clip-path="url(#p50e275b24a)" style="fill: none; stroke: #000000; stroke-linejoin: miter"/>
   </g>
  </g>
  <g id="axes_17">
   <g id="patch_16">
    <path d="M 272.087191 39.096404 
Q 271.83236 39.023596 270.86764 38.623146 
Q 269.902921 38.222697 269.24764 38.077079 
Q 268.59236 37.931461 267.937079 38.00427 
Q 265.315955 38.00427 263.677753 40.388764 
Q 262.039551 42.773258 262.039551 45.430787 
Q 262.039551 47.068989 267.281798 47.068989 
Q 268.847191 47.068989 270.175955 45.558202 
Q 271.504719 44.047416 272.178202 42.172584 
Q 272.851685 40.297753 272.851685 38.768764 
Q 272.851685 37.27618 272.815281 36.984944 
L 272.742472 38.077079 
Q 272.742472 38.550337 272.742472 38.987191 
Q 272.778876 40.188539 272.979101 42.281798 
Q 273.179326 44.375056 273.343146 46.049663 
Q 273.506966 47.72427 273.543371 49.872135 
Q 273.579775 52.02 273.415955 53.658202 
Q 273.252135 55.296404 272.687865 56.971011 
Q 272.123596 58.645618 271.195281 59.737753 
Q 270.266966 60.829888 268.665169 61.521573 
Q 267.063371 62.213258 264.915506 62.213258 
Q 263.277303 62.213258 262.185169 61.466966 
Q 261.093034 60.720674 261.093034 59.155281 
Q 261.020225 58.936854 261.056629 58.936854 
Q 261.093034 58.936854 261.202247 58.936854 
Q 261.311461 58.936854 261.311461 58.82764 
" clip-path="url(#pcf980c0f40)" style="fill: none; stroke: #000000; stroke-linejoin: miter"/>
   </g>
  </g>
 </g>
 <defs>
  <clipPath id="p56f4257868">
   <rect x="1.389352" y="8.64" width="13.421297" height="54.36"/>
  </clipPath>
  <clipPath id="p43b59e91b8">
   <rect x="16.820814" y="8.64" width="14.958372" height="54.36"/>
  </clipPath>
  <clipPath id="p54561b9ae0">
   <rect x="51.338979" y="8.64" width="10.722041" height="54.36"/>
  </clipPath>
  <clipPath id="p6015148b28">
   <rect x="66.864166" y="8.64" width="12.071669" height="54.36"/>
  </clipPath>
  <clipPath id="pd347f42d82">
   <rect x="82.764248" y="8.64" width="12.671503" height="54.36"/>
  </clipPath>
  <clipPath id="pd6baa00924">
   <rect x="98.982993" y="8.64" width="12.634014" height="54.36"/>
  </clipPath>
  <clipPath id="p92e77cc202">
   <rect x="116.138979" y="8.64" width="10.722041" height="54.36"/>
  </clipPath>
  <clipPath id="p26c29c3faa">
   <rect x="131.664166" y="8.64" width="12.071669" height="54.36"/>
  </clipPath>
  <clipPath id="p6300206be9">
   <rect x="147.564248" y="8.64" width="12.671503" height="54.36"/>
  </clipPath>
  <clipPath id="pa885e5a7e3">
   <rect x="162" y="9.426742" width="16.2" height="52.786517"/>
  </clipPath>
  <clipPath id="pe2adc898f6">
   <rect x="194.833366" y="8.64" width="15.333269" height="54.36"/>
  </clipPath>
  <clipPath id="pfdde07307d">
   <rect x="213.338979" y="8.64" width="10.722041" height="54.36"/>
  </clipPath>
  <clipPath id="pa2341ab1cb">
   <rect x="228.807931" y="8.64" width="12.184138" height="54.36"/>
  </clipPath>
  <clipPath id="p50e275b24a">
   <rect x="244.764248" y="8.64" width="12.671503" height="54.36"/>
  </clipPath>
  <clipPath id="pcf980c0f40">
   <rect x="259.2" y="9.426742" width="16.2" height="52.786517"/>
  </clipPath>
 </defs>
</svg>
