<?xml version="1.0" encoding="utf-8" standalone="no"?>
<!DOCTYPE svg PUBLIC "-//W3C//DTD SVG 1.1//EN"
  "http://www.w3.org/Graphics/SVG/1.1/DTD/svg11.dtd">
<svg xmlns:xlink="http://www.w3.org/1999/xlink" width="396pt" height="72pt" viewBox="0 0 396 72" xmlns="http://www.w3.org/2000/svg" version="1.1">
 <metadata>
  <rdf:RDF xmlns:dc="http://purl.org/dc/elements/1.1/" xmlns:cc="http://creativecommons.org/ns#" xmlns:rdf="http://www.w3.org/1999/02/22-rdf-syntax-ns#">
   <cc:Work>
    <dc:type rdf:resource="http://purl.org/dc/dcmitype/StillImage"/>
    <dc:date>2024-01-05T17:49:21.504381</dc:date>
    <dc:format>image/svg+xml</dc:format>
    <dc:creator>
     <cc:Agent>
      <dc:title>Matplotlib v3.7.1, https://matplotlib.org/</dc:title>
     </cc:Agent>
    </dc:creator>
   </cc:Work>
  </rdf:RDF>
 </metadata>
 <defs>
  <style type="text/css">*{stroke-linejoin: round; stroke-linecap: butt}</style>
 </defs>
 <g id="figure_1">
  <g id="patch_1">
   <path d="M 0 72 
L 396 72 
L 396 0 
L 0 0 
z
" style="fill: #8fff9f"/>
  </g>
  <g id="axes_1">
   <g id="patch_2">
    <path d="M 1.354515 35.196923 
Q 1.354515 35.196923 2.898662 35.196923 
Q 2.925753 35.196923 14.276589 35.440736 
M 13.057525 28.61398 
Q 13.057525 28.61398 13.057525 35.115652 
Q 13.057525 36.551438 13.287793 37.960134 
Q 13.51806 39.368829 13.870234 40.940067 
Q 14.222408 42.511304 14.35786 43.324013 
L 14.845485 43.730368 
M 3.223746 28.451438 
Q 3.657191 29.453779 3.779097 31.580368 
Q 3.901003 33.706957 4.117726 34.546756 
L 4.52408 44.949431 
" clip-path="url(#p415353e6e7)" style="fill: none; stroke: #000000; stroke-linejoin: miter"/>
   </g>
  </g>
  <g id="axes_2">
   <g id="patch_3">
    <path d="M 29.843923 36.441748 
Q 28.634968 35.094627 24.662687 35.094627 
Q 23.142857 35.094627 22.365672 35.146439 
Q 21.588486 35.198252 20.58678 35.440043 
Q 19.585075 35.681834 19.101493 36.182687 
Q 18.61791 36.683539 18.272495 37.616162 
Q 17.927079 38.548785 17.927079 39.964989 
Q 17.927079 42.037484 19.343284 43.280981 
Q 20.759488 44.524478 22.693817 44.524478 
Q 25.353518 44.524478 28.116844 38.721493 
Q 29.463966 35.854542 29.463966 35.82 
Q 29.809382 35.578209 29.843923 36.441748 
Q 29.843923 37.512537 30.258422 40.362217 
Q 30.672921 43.211898 30.672921 44.524478 
" clip-path="url(#p49eda09486)" style="fill: none; stroke: #000000; stroke-linejoin: miter"/>
   </g>
  </g>
  <g id="axes_3">
   <g id="patch_4">
    <path d="M 35.720069 39.868883 
L 35.720069 39.419007 
Q 35.720069 37.769462 37.463338 36.682262 
Q 39.206607 35.595062 40.893641 35.595062 
Q 43.105531 35.595062 44.473903 36.794731 
Q 45.842276 37.9944 45.842276 40.20629 
Q 45.842276 42.30571 44.024028 43.336676 
Q 42.205779 44.367641 39.99389 44.367641 
Q 39.319076 44.367641 38.812966 44.255172 
Q 38.306855 44.142703 37.688276 43.917766 
Q 37.069697 43.692828 36.619821 43.580359 
L 35.495131 42.568138 
M 35.157724 36.832221 
Q 35.6076 38.444276 35.870028 40.262524 
Q 36.132455 42.080772 36.18869 43.749062 
Q 36.244924 45.417352 36.282414 47.27309 
Q 36.319903 49.128828 36.282414 50.778372 
L 36.169945 57.863917 
" clip-path="url(#p9876ab6c26)" style="fill: none; stroke: #000000; stroke-linejoin: miter"/>
   </g>
  </g>
  <g id="axes_4">
   <g id="patch_5">
    <path d="M 51.920069 39.868883 
L 51.920069 39.419007 
Q 51.920069 37.769462 53.663338 36.682262 
Q 55.406607 35.595062 57.093641 35.595062 
Q 59.305531 35.595062 60.673903 36.794731 
Q 62.042276 37.9944 62.042276 40.20629 
Q 62.042276 42.30571 60.224028 43.336676 
Q 58.405779 44.367641 56.19389 44.367641 
Q 55.519076 44.367641 55.012966 44.255172 
Q 54.506855 44.142703 53.888276 43.917766 
Q 53.269697 43.692828 52.819821 43.580359 
L 51.695131 42.568138 
M 51.357724 36.832221 
Q 51.8076 38.444276 52.070028 40.262524 
Q 52.332455 42.080772 52.38869 43.749062 
Q 52.444924 45.417352 52.482414 47.27309 
Q 52.519903 49.128828 52.482414 50.778372 
L 52.369945 57.863917 
" clip-path="url(#p6bbfb64b23)" style="fill: none; stroke: #000000; stroke-linejoin: miter"/>
   </g>
  </g>
  <g id="axes_5">
   <g id="patch_6">
    <path d="M 67.763917 36.382345 
Q 67.726428 36.494814 67.857641 36.701007 
Q 67.988855 36.9072 67.876386 37.057159 
L 67.876386 39.306538 
Q 67.876386 40.506207 68.213793 41.724621 
Q 68.5512 42.943034 69.413462 43.93651 
Q 70.275724 44.929986 71.475393 44.929986 
Q 72.712552 44.929986 73.387366 43.861531 
Q 74.062179 42.793076 74.512055 41.143531 
Q 74.961931 39.493986 75.299338 38.969131 
L 76.086621 36.382345 
L 75.861683 42.680607 
L 75.861683 45.154924 
Q 75.861683 47.066897 76.592731 51.00331 
Q 77.323779 54.939724 77.323779 56.964166 
Q 78.073572 59.213545 76.986372 60.188276 
Q 75.899172 61.163007 73.837241 60.78811 
Q 72.037738 60.488193 71.119241 60.169531 
Q 70.200745 59.850869 68.213793 58.988607 
L 68.101324 58.426262 
" clip-path="url(#p4ba44957e4)" style="fill: none; stroke: #000000; stroke-linejoin: miter"/>
   </g>
  </g>
  <g id="axes_6"/>
  <g id="axes_7">
   <g id="patch_7">
    <path d="M 101.757228 37.244607 
Q 102.806938 37.207117 102.994386 37.132138 
Q 106.405945 37.132138 108.186703 39.212814 
Q 109.967462 41.29349 109.967462 44.780028 
Q 109.967462 47.704221 105.356234 47.704221 
Q 104.71891 47.704221 104.17531 47.591752 
Q 103.63171 47.479283 102.994386 47.254345 
Q 102.357062 47.029407 101.869697 46.916938 
L 100.632538 45.679779 
M 101.644759 25.435366 
L 101.644759 26.560055 
Q 101.644759 29.409269 101.757228 33.008276 
Q 101.869697 36.607283 102.057145 40.899848 
Q 102.244593 45.192414 102.319572 47.141876 
" clip-path="url(#p83da024cdc)" style="fill: none; stroke: #000000; stroke-linejoin: miter"/>
   </g>
  </g>
  <g id="axes_8">
   <g id="patch_8">
    <path d="M 122.118579 29.071862 
Q 121.743683 29.146841 121.612469 29.577972 
Q 121.481255 30.009103 121.556234 30.42149 
Q 121.556234 30.571448 121.593724 30.702662 
Q 121.631214 30.833876 121.687448 30.89011 
Q 121.743683 30.946345 121.799917 31.040069 
Q 121.856152 31.133793 121.893641 31.208772 
L 122.00611 29.859145 
M 122.00611 34.020497 
Q 121.106359 39.006621 120.881421 42.793076 
L 121.331297 45.379862 
L 121.668703 46.054676 
" clip-path="url(#p494889bf29)" style="fill: none; stroke: #000000; stroke-linejoin: miter"/>
   </g>
  </g>
  <g id="axes_9">
   <g id="patch_9">
    <path d="M 134.213462 32.783338 
Q 134.738317 34.507862 134.869531 36.457324 
Q 135.000745 38.406786 134.925766 40.956083 
Q 134.850786 43.505379 134.888276 44.705048 
L 135.000745 46.054676 
L 135.000745 45.829738 
Q 135.000745 44.667559 134.719572 42.30571 
Q 134.4384 39.943862 134.4384 38.744193 
Q 134.4384 36.419834 135.450621 34.882759 
Q 136.462841 33.345683 138.487283 33.345683 
Q 139.199586 33.345683 139.536993 33.626855 
Q 139.8744 33.908028 140.136828 34.432883 
Q 140.399255 34.957738 140.736662 35.257655 
L 141.186538 36.832221 
" clip-path="url(#pe41de89864)" style="fill: none; stroke: #000000; stroke-linejoin: miter"/>
   </g>
  </g>
  <g id="axes_10">
   <g id="patch_10">
    <path d="M 149.063834 37.95691 
L 149.738648 37.95691 
Q 150.450952 37.95691 151.238234 37.881931 
Q 152.025517 37.806952 152.981503 37.675738 
Q 153.93749 37.544524 154.462345 37.507034 
L 158.736166 35.82 
M 154.687283 30.42149 
L 154.687283 31.43371 
Q 154.687283 33.383172 154.012469 37.207117 
Q 153.337655 41.031062 153.337655 43.018014 
Q 153.337655 43.805297 153.337655 44.105214 
Q 153.337655 44.405131 153.431379 45.042455 
Q 153.525103 45.679779 153.712552 45.960952 
Q 153.9 46.242124 154.293641 46.485807 
Q 154.687283 46.72949 155.249628 46.72949 
Q 155.362097 46.692 155.680759 46.72949 
Q 155.999421 46.766979 156.186869 46.710745 
Q 156.374317 46.65451 156.374317 46.392083 
" clip-path="url(#p6a2abae753)" style="fill: none; stroke: #000000; stroke-linejoin: miter"/>
   </g>
  </g>
  <g id="axes_11">
   <g id="patch_11">
    <path d="M 166.613462 35.932469 
Q 167.213297 35.257655 168.206772 34.826524 
Q 169.200248 34.395393 170.1 34.470372 
Q 170.737324 34.470372 171.22469 34.639076 
Q 171.712055 34.807779 172.030717 34.995228 
Q 172.349379 35.182676 172.574317 35.670041 
Q 172.799255 36.157407 172.911724 36.419834 
Q 173.024193 36.682262 173.080428 37.375821 
Q 173.136662 38.069379 173.155407 38.331807 
Q 173.174152 38.594234 173.155407 39.419007 
Q 173.136662 40.243779 173.136662 40.431228 
Q 173.136662 41.368469 172.967959 43.242952 
Q 172.799255 45.117434 172.799255 46.054676 
Q 172.799255 46.467062 172.85549 46.823214 
Q 172.911724 47.179366 173.005448 47.610497 
Q 173.099172 48.041628 173.136662 48.304055 
L 173.586538 48.528993 
M 167.063338 23.111007 
Q 167.288276 24.798041 167.288276 29.971614 
L 167.288276 42.3432 
L 166.950869 46.841959 
L 166.725931 47.74171 
" clip-path="url(#pea590d968c)" style="fill: none; stroke: #000000; stroke-linejoin: miter"/>
   </g>
  </g>
  <g id="axes_12">
   <g id="patch_12">
    <path d="M 189.899007 39.568966 
Q 188.549379 38.181848 186.3 38.444276 
Q 183.450786 38.444276 182.288607 39.793903 
Q 181.126428 41.143531 181.126428 44.067724 
Q 181.126428 45.56731 182.419821 46.279614 
Q 183.713214 46.991917 185.287779 46.991917 
Q 186.599917 46.991917 187.612138 45.736014 
Q 188.624359 44.48011 189.205448 42.30571 
Q 189.786538 40.13131 190.161434 37.938166 
Q 190.536331 35.745021 190.68629 33.045766 
Q 190.836248 30.34651 190.873738 28.978138 
Q 190.911228 27.609766 190.911228 26.185159 
Q 190.68629 26.260138 190.68629 29.896634 
L 190.68629 44.292662 
L 191.473572 48.229076 
" clip-path="url(#pdbe7529765)" style="fill: none; stroke: #000000; stroke-linejoin: miter"/>
   </g>
  </g>
  <g id="axes_13">
   <g id="patch_13">
    <path d="M 208.043923 36.441748 
Q 206.834968 35.094627 202.862687 35.094627 
Q 201.342857 35.094627 200.565672 35.146439 
Q 199.788486 35.198252 198.78678 35.440043 
Q 197.785075 35.681834 197.301493 36.182687 
Q 196.81791 36.683539 196.472495 37.616162 
Q 196.127079 38.548785 196.127079 39.964989 
Q 196.127079 42.037484 197.543284 43.280981 
Q 198.959488 44.524478 200.893817 44.524478 
Q 203.553518 44.524478 206.316844 38.721493 
Q 207.663966 35.854542 207.663966 35.82 
Q 208.009382 35.578209 208.043923 36.441748 
Q 208.043923 37.512537 208.458422 40.362217 
Q 208.872921 43.211898 208.872921 44.524478 
" clip-path="url(#p3832457f15)" style="fill: none; stroke: #000000; stroke-linejoin: miter"/>
   </g>
  </g>
  <g id="axes_14">
   <g id="patch_14">
    <path d="M 213.563917 36.382345 
Q 213.526428 36.494814 213.657641 36.701007 
Q 213.788855 36.9072 213.676386 37.057159 
L 213.676386 39.306538 
Q 213.676386 40.506207 214.013793 41.724621 
Q 214.3512 42.943034 215.213462 43.93651 
Q 216.075724 44.929986 217.275393 44.929986 
Q 218.512552 44.929986 219.187366 43.861531 
Q 219.862179 42.793076 220.312055 41.143531 
Q 220.761931 39.493986 221.099338 38.969131 
L 221.886621 36.382345 
L 221.661683 42.680607 
L 221.661683 45.154924 
Q 221.661683 47.066897 222.392731 51.00331 
Q 223.123779 54.939724 223.123779 56.964166 
Q 223.873572 59.213545 222.786372 60.188276 
Q 221.699172 61.163007 219.637241 60.78811 
Q 217.837738 60.488193 216.919241 60.169531 
Q 216.000745 59.850869 214.013793 58.988607 
L 213.901324 58.426262 
" clip-path="url(#p70164090a2)" style="fill: none; stroke: #000000; stroke-linejoin: miter"/>
   </g>
  </g>
  <g id="axes_15"/>
  <g id="axes_16">
   <g id="patch_15">
    <path d="M 246.263834 37.95691 
L 246.938648 37.95691 
Q 247.650952 37.95691 248.438234 37.881931 
Q 249.225517 37.806952 250.181503 37.675738 
Q 251.13749 37.544524 251.662345 37.507034 
L 255.936166 35.82 
M 251.887283 30.42149 
L 251.887283 31.43371 
Q 251.887283 33.383172 251.212469 37.207117 
Q 250.537655 41.031062 250.537655 43.018014 
Q 250.537655 43.805297 250.537655 44.105214 
Q 250.537655 44.405131 250.631379 45.042455 
Q 250.725103 45.679779 250.912552 45.960952 
Q 251.1 46.242124 251.493641 46.485807 
Q 251.887283 46.72949 252.449628 46.72949 
Q 252.562097 46.692 252.880759 46.72949 
Q 253.199421 46.766979 253.386869 46.710745 
Q 253.574317 46.65451 253.574317 46.392083 
" clip-path="url(#pa8de768567)" style="fill: none; stroke: #000000; stroke-linejoin: miter"/>
   </g>
  </g>
  <g id="axes_17">
   <g id="patch_16">
    <path d="M 270.5616 35.032717 
Q 269.51189 34.582841 268.537159 34.69531 
Q 265.500497 35.032717 263.588524 36.701007 
Q 261.676552 38.369297 261.676552 41.330979 
Q 261.676552 43.917766 263.682248 45.6048 
Q 265.687945 47.291834 268.312221 47.291834 
Q 270.674069 47.291834 271.798759 45.361117 
Q 272.923448 43.4304 272.923448 40.881103 
Q 272.923448 39.643945 272.511062 38.706703 
Q 272.098676 37.769462 271.573821 37.300841 
Q 271.048966 36.832221 270.299172 36.119917 
Q 269.549379 35.407614 269.099503 34.69531 
L 267.862345 34.245434 
" clip-path="url(#p97b76aebdd)" style="fill: none; stroke: #000000; stroke-linejoin: miter"/>
   </g>
  </g>
  <g id="axes_18"/>
  <g id="axes_19">
   <g id="patch_17">
    <path d="M 294.563917 36.382345 
Q 294.526428 36.494814 294.657641 36.701007 
Q 294.788855 36.9072 294.676386 37.057159 
L 294.676386 39.306538 
Q 294.676386 40.506207 295.013793 41.724621 
Q 295.3512 42.943034 296.213462 43.93651 
Q 297.075724 44.929986 298.275393 44.929986 
Q 299.512552 44.929986 300.187366 43.861531 
Q 300.862179 42.793076 301.312055 41.143531 
Q 301.761931 39.493986 302.099338 38.969131 
L 302.886621 36.382345 
L 302.661683 42.680607 
L 302.661683 45.154924 
Q 302.661683 47.066897 303.392731 51.00331 
Q 304.123779 54.939724 304.123779 56.964166 
Q 304.873572 59.213545 303.786372 60.188276 
Q 302.699172 61.163007 300.637241 60.78811 
Q 298.837738 60.488193 297.919241 60.169531 
Q 297.000745 59.850869 295.013793 58.988607 
L 294.901324 58.426262 
" clip-path="url(#p3b93734d09)" style="fill: none; stroke: #000000; stroke-linejoin: miter"/>
   </g>
  </g>
  <g id="axes_20">
   <g id="patch_18">
    <path d="M 319.1616 35.032717 
Q 318.11189 34.582841 317.137159 34.69531 
Q 314.100497 35.032717 312.188524 36.701007 
Q 310.276552 38.369297 310.276552 41.330979 
Q 310.276552 43.917766 312.282248 45.6048 
Q 314.287945 47.291834 316.912221 47.291834 
Q 319.274069 47.291834 320.398759 45.361117 
Q 321.523448 43.4304 321.523448 40.881103 
Q 321.523448 39.643945 321.111062 38.706703 
Q 320.698676 37.769462 320.173821 37.300841 
Q 319.648966 36.832221 318.899172 36.119917 
Q 318.149379 35.407614 317.699503 34.69531 
L 316.462345 34.245434 
" clip-path="url(#pae4aaee84b)" style="fill: none; stroke: #000000; stroke-linejoin: miter"/>
   </g>
  </g>
  <g id="axes_21">
   <g id="patch_19">
    <path d="M 327.488772 35.145186 
Q 327.488772 35.145186 327.488772 35.595062 
Q 327.488772 36.269876 327.376303 37.619503 
Q 327.263834 38.969131 327.263834 39.643945 
Q 327.263834 41.930814 328.500993 43.599103 
Q 329.738152 45.267393 331.875062 45.267393 
Q 333.262179 45.154924 334.030717 43.917766 
Q 334.799255 42.680607 334.949214 41.237255 
Q 335.099172 39.793903 335.3616 37.9944 
Q 335.624028 36.194897 336.036414 35.370124 
Q 336.186372 35.070207 336.186372 35.670041 
Q 336.186372 36.269876 335.923945 38.706703 
Q 335.699007 41.031062 335.699007 41.555917 
Q 335.549048 42.643117 335.886455 43.767807 
Q 336.223862 44.892497 336.936166 45.6048 
" clip-path="url(#p61454792e9)" style="fill: none; stroke: #000000; stroke-linejoin: miter"/>
   </g>
  </g>
  <g id="axes_22">
   <g id="patch_20">
    <path d="M 349.143517 43.505379 
Q 349.068538 43.46789 348.993559 43.505379 
Q 348.918579 43.542869 348.88109 43.617848 
Q 348.8436 43.692828 348.80611 43.730317 
L 348.693641 44.180193 
M 347.456483 28.2096 
L 347.456483 28.771945 
Q 347.456483 29.971614 347.643931 31.321241 
Q 347.831379 32.670869 348.150041 34.339159 
Q 348.468703 36.007448 348.581172 36.86971 
L 348.693641 39.906372 
" clip-path="url(#p53189468b1)" style="fill: none; stroke: #000000; stroke-linejoin: miter"/>
   </g>
  </g>
 </g>
 <defs>
  <clipPath id="p415353e6e7">
   <rect x="0" y="16.179532" width="16.2" height="39.280936"/>
  </clipPath>
  <clipPath id="p49eda09486">
   <rect x="16.2" y="10.777356" width="16.2" height="50.085288"/>
  </clipPath>
  <clipPath id="p9876ab6c26">
   <rect x="33.283241" y="8.64" width="14.433517" height="54.36"/>
  </clipPath>
  <clipPath id="p6bbfb64b23">
   <rect x="49.483241" y="8.64" width="14.433517" height="54.36"/>
  </clipPath>
  <clipPath id="p4ba44957e4">
   <rect x="65.851945" y="8.64" width="14.09611" height="54.36"/>
  </clipPath>
  <clipPath id="p83da024cdc">
   <rect x="98.758055" y="8.64" width="13.08389" height="54.36"/>
  </clipPath>
  <clipPath id="p494889bf29">
   <rect x="119.006938" y="8.64" width="4.986124" height="54.36"/>
  </clipPath>
  <clipPath id="pe41de89864">
   <rect x="132.338979" y="8.64" width="10.722041" height="54.36"/>
  </clipPath>
  <clipPath id="p6a2abae753">
   <rect x="147.189352" y="8.64" width="13.421297" height="54.36"/>
  </clipPath>
  <clipPath id="pea590d968c">
   <rect x="164.738979" y="8.64" width="10.722041" height="54.36"/>
  </clipPath>
  <clipPath id="pdbe7529765">
   <rect x="179.251945" y="8.64" width="14.09611" height="54.36"/>
  </clipPath>
  <clipPath id="p3832457f15">
   <rect x="194.4" y="10.777356" width="16.2" height="50.085288"/>
  </clipPath>
  <clipPath id="p70164090a2">
   <rect x="211.651945" y="8.64" width="14.09611" height="54.36"/>
  </clipPath>
  <clipPath id="pa8de768567">
   <rect x="244.389352" y="8.64" width="13.421297" height="54.36"/>
  </clipPath>
  <clipPath id="p97b76aebdd">
   <rect x="259.802069" y="8.64" width="14.995862" height="54.36"/>
  </clipPath>
  <clipPath id="p3b93734d09">
   <rect x="292.651945" y="8.64" width="14.09611" height="54.36"/>
  </clipPath>
  <clipPath id="pae4aaee84b">
   <rect x="308.402069" y="8.64" width="14.995862" height="54.36"/>
  </clipPath>
  <clipPath id="p61454792e9">
   <rect x="325.389352" y="8.64" width="13.421297" height="54.36"/>
  </clipPath>
  <clipPath id="p53189468b1">
   <rect x="345.582" y="8.64" width="5.436" height="54.36"/>
  </clipPath>
 </defs>
</svg>
