<?xml version="1.0" encoding="utf-8" standalone="no"?>
<!DOCTYPE svg PUBLIC "-//W3C//DTD SVG 1.1//EN"
  "http://www.w3.org/Graphics/SVG/1.1/DTD/svg11.dtd">
<svg xmlns:xlink="http://www.w3.org/1999/xlink" width="846pt" height="72pt" viewBox="0 0 846 72" xmlns="http://www.w3.org/2000/svg" version="1.1">
 <metadata>
  <rdf:RDF xmlns:dc="http://purl.org/dc/elements/1.1/" xmlns:cc="http://creativecommons.org/ns#" xmlns:rdf="http://www.w3.org/1999/02/22-rdf-syntax-ns#">
   <cc:Work>
    <dc:type rdf:resource="http://purl.org/dc/dcmitype/StillImage"/>
    <dc:date>2024-01-05T17:49:39.047341</dc:date>
    <dc:format>image/svg+xml</dc:format>
    <dc:creator>
     <cc:Agent>
      <dc:title>Matplotlib v3.7.1, https://matplotlib.org/</dc:title>
     </cc:Agent>
    </dc:creator>
   </cc:Work>
  </rdf:RDF>
 </metadata>
 <defs>
  <style type="text/css">*{stroke-linejoin: round; stroke-linecap: butt}</style>
 </defs>
 <g id="figure_1">
  <g id="patch_1">
   <path d="M 0 72 
L 846 72 
L 846 0 
L 0 0 
z
" style="fill: #8fff9f"/>
  </g>
  <g id="axes_1">
   <g id="patch_2">
    <path d="M 3.263834 37.95691 
L 3.938648 37.95691 
Q 4.650952 37.95691 5.438234 37.881931 
Q 6.225517 37.806952 7.181503 37.675738 
Q 8.13749 37.544524 8.662345 37.507034 
L 12.936166 35.82 
M 8.887283 30.42149 
L 8.887283 31.43371 
Q 8.887283 33.383172 8.212469 37.207117 
Q 7.537655 41.031062 7.537655 43.018014 
Q 7.537655 43.805297 7.537655 44.105214 
Q 7.537655 44.405131 7.631379 45.042455 
Q 7.725103 45.679779 7.912552 45.960952 
Q 8.1 46.242124 8.493641 46.485807 
Q 8.887283 46.72949 9.449628 46.72949 
Q 9.562097 46.692 9.880759 46.72949 
Q 10.199421 46.766979 10.386869 46.710745 
Q 10.574317 46.65451 10.574317 46.392083 
" clip-path="url(#p9a3a86b552)" style="fill: none; stroke: #000000; stroke-linejoin: miter"/>
   </g>
  </g>
  <g id="axes_2">
   <g id="patch_3">
    <path d="M 20.813462 35.932469 
Q 21.413297 35.257655 22.406772 34.826524 
Q 23.400248 34.395393 24.3 34.470372 
Q 24.937324 34.470372 25.42469 34.639076 
Q 25.912055 34.807779 26.230717 34.995228 
Q 26.549379 35.182676 26.774317 35.670041 
Q 26.999255 36.157407 27.111724 36.419834 
Q 27.224193 36.682262 27.280428 37.375821 
Q 27.336662 38.069379 27.355407 38.331807 
Q 27.374152 38.594234 27.355407 39.419007 
Q 27.336662 40.243779 27.336662 40.431228 
Q 27.336662 41.368469 27.167959 43.242952 
Q 26.999255 45.117434 26.999255 46.054676 
Q 26.999255 46.467062 27.05549 46.823214 
Q 27.111724 47.179366 27.205448 47.610497 
Q 27.299172 48.041628 27.336662 48.304055 
L 27.786538 48.528993 
M 21.263338 23.111007 
Q 21.488276 24.798041 21.488276 29.971614 
L 21.488276 42.3432 
L 21.150869 46.841959 
L 20.925931 47.74171 
" clip-path="url(#p000cd27026)" style="fill: none; stroke: #000000; stroke-linejoin: miter"/>
   </g>
  </g>
  <g id="axes_3">
   <g id="patch_4">
    <path d="M 43.7616 35.032717 
Q 42.71189 34.582841 41.737159 34.69531 
Q 38.700497 35.032717 36.788524 36.701007 
Q 34.876552 38.369297 34.876552 41.330979 
Q 34.876552 43.917766 36.882248 45.6048 
Q 38.887945 47.291834 41.512221 47.291834 
Q 43.874069 47.291834 44.998759 45.361117 
Q 46.123448 43.4304 46.123448 40.881103 
Q 46.123448 39.643945 45.711062 38.706703 
Q 45.298676 37.769462 44.773821 37.300841 
Q 44.248966 36.832221 43.499172 36.119917 
Q 42.749379 35.407614 42.299503 34.69531 
L 41.062345 34.245434 
" clip-path="url(#pdd75714b5f)" style="fill: none; stroke: #000000; stroke-linejoin: miter"/>
   </g>
  </g>
  <g id="axes_4">
   <g id="patch_5">
    <path d="M 52.088772 35.145186 
Q 52.088772 35.145186 52.088772 35.595062 
Q 52.088772 36.269876 51.976303 37.619503 
Q 51.863834 38.969131 51.863834 39.643945 
Q 51.863834 41.930814 53.100993 43.599103 
Q 54.338152 45.267393 56.475062 45.267393 
Q 57.862179 45.154924 58.630717 43.917766 
Q 59.399255 42.680607 59.549214 41.237255 
Q 59.699172 39.793903 59.9616 37.9944 
Q 60.224028 36.194897 60.636414 35.370124 
Q 60.786372 35.070207 60.786372 35.670041 
Q 60.786372 36.269876 60.523945 38.706703 
Q 60.299007 41.031062 60.299007 41.555917 
Q 60.149048 42.643117 60.486455 43.767807 
Q 60.823862 44.892497 61.536166 45.6048 
" clip-path="url(#pc9bc3e171b)" style="fill: none; stroke: #000000; stroke-linejoin: miter"/>
   </g>
  </g>
  <g id="axes_5">
   <g id="patch_6">
    <path d="M 77.687191 39.096404 
Q 77.43236 39.023596 76.46764 38.623146 
Q 75.502921 38.222697 74.84764 38.077079 
Q 74.19236 37.931461 73.537079 38.00427 
Q 70.915955 38.00427 69.277753 40.388764 
Q 67.639551 42.773258 67.639551 45.430787 
Q 67.639551 47.068989 72.881798 47.068989 
Q 74.447191 47.068989 75.775955 45.558202 
Q 77.104719 44.047416 77.778202 42.172584 
Q 78.451685 40.297753 78.451685 38.768764 
Q 78.451685 37.27618 78.415281 36.984944 
L 78.342472 38.077079 
Q 78.342472 38.550337 78.342472 38.987191 
Q 78.378876 40.188539 78.579101 42.281798 
Q 78.779326 44.375056 78.943146 46.049663 
Q 79.106966 47.72427 79.143371 49.872135 
Q 79.179775 52.02 79.015955 53.658202 
Q 78.852135 55.296404 78.287865 56.971011 
Q 77.723596 58.645618 76.795281 59.737753 
Q 75.866966 60.829888 74.265169 61.521573 
Q 72.663371 62.213258 70.515506 62.213258 
Q 68.877303 62.213258 67.785169 61.466966 
Q 66.693034 60.720674 66.693034 59.155281 
Q 66.620225 58.936854 66.656629 58.936854 
Q 66.693034 58.936854 66.802247 58.936854 
Q 66.911461 58.936854 66.911461 58.82764 
" clip-path="url(#p427ba2efe7)" style="fill: none; stroke: #000000; stroke-linejoin: miter"/>
   </g>
  </g>
  <g id="axes_6">
   <g id="patch_7">
    <path d="M 85.613462 35.932469 
Q 86.213297 35.257655 87.206772 34.826524 
Q 88.200248 34.395393 89.1 34.470372 
Q 89.737324 34.470372 90.22469 34.639076 
Q 90.712055 34.807779 91.030717 34.995228 
Q 91.349379 35.182676 91.574317 35.670041 
Q 91.799255 36.157407 91.911724 36.419834 
Q 92.024193 36.682262 92.080428 37.375821 
Q 92.136662 38.069379 92.155407 38.331807 
Q 92.174152 38.594234 92.155407 39.419007 
Q 92.136662 40.243779 92.136662 40.431228 
Q 92.136662 41.368469 91.967959 43.242952 
Q 91.799255 45.117434 91.799255 46.054676 
Q 91.799255 46.467062 91.85549 46.823214 
Q 91.911724 47.179366 92.005448 47.610497 
Q 92.099172 48.041628 92.136662 48.304055 
L 92.586538 48.528993 
M 86.063338 23.111007 
Q 86.288276 24.798041 86.288276 29.971614 
L 86.288276 42.3432 
L 85.950869 46.841959 
L 85.725931 47.74171 
" clip-path="url(#p4de7bfb8d6)" style="fill: none; stroke: #000000; stroke-linejoin: miter"/>
   </g>
  </g>
  <g id="axes_7">
   <g id="patch_8">
    <path d="M 105.187531 45.979697 
Q 105.150041 46.017186 105.018828 46.054676 
Q 104.887614 46.092166 104.925103 46.167145 
Q 104.925103 46.579531 105.3 46.579531 
Q 105.637407 46.579531 105.637407 46.092166 
Q 105.712386 45.867228 105.431214 45.754759 
Q 105.150041 45.64229 104.962593 45.754759 
" clip-path="url(#p1e83c6394b)" style="fill: none; stroke: #000000; stroke-linejoin: miter"/>
   </g>
  </g>
  <g id="axes_8"/>
  <g id="axes_9">
   <g id="patch_9">
    <path d="M 131.253061 45.374694 
Q 135.352653 45.440816 142.361633 45.870612 
Q 142.791429 45.903673 142.973265 45.887143 
Q 143.155102 45.870612 143.551837 45.787959 
Q 143.948571 45.705306 144.146939 45.672245 
M 132.84 27.521633 
L 132.84 29.406122 
Q 132.84 31.588163 132.625102 33.985102 
Q 132.410204 36.382041 132.046531 39.291429 
Q 131.682857 42.200816 131.550612 43.787755 
L 131.253061 45.374694 
" clip-path="url(#p147f86d50a)" style="fill: none; stroke: #000000; stroke-linejoin: miter"/>
   </g>
  </g>
  <g id="axes_10">
   <g id="patch_10">
    <path d="M 147.657798 38.160826 
Q 150.630275 39.535596 155.349083 39.721376 
Q 156.872477 39.721376 157.559862 38.550963 
Q 158.247248 37.38055 158.247248 35.82 
Q 158.247248 35.299817 158.154358 34.909679 
Q 158.061468 34.519541 157.819954 34.296606 
Q 157.57844 34.07367 157.411239 33.943624 
Q 157.244037 33.813578 156.798165 33.757844 
Q 156.352294 33.70211 156.147936 33.683532 
Q 155.943578 33.664954 155.367661 33.683532 
Q 154.791743 33.70211 154.568807 33.70211 
Q 152.525229 33.70211 151.038991 35.578486 
Q 149.552752 37.454862 149.552752 39.609908 
Q 149.552752 42.619541 151.484862 44.570229 
Q 153.416972 46.520917 156.463761 46.520917 
Q 158.618807 46.818165 160.142202 44.29156 
" clip-path="url(#p8ab7008554)" style="fill: none; stroke: #000000; stroke-linejoin: miter"/>
   </g>
  </g>
  <g id="axes_11">
   <g id="patch_11">
    <path d="M 165.263834 37.95691 
L 165.938648 37.95691 
Q 166.650952 37.95691 167.438234 37.881931 
Q 168.225517 37.806952 169.181503 37.675738 
Q 170.13749 37.544524 170.662345 37.507034 
L 174.936166 35.82 
M 170.887283 30.42149 
L 170.887283 31.43371 
Q 170.887283 33.383172 170.212469 37.207117 
Q 169.537655 41.031062 169.537655 43.018014 
Q 169.537655 43.805297 169.537655 44.105214 
Q 169.537655 44.405131 169.631379 45.042455 
Q 169.725103 45.679779 169.912552 45.960952 
Q 170.1 46.242124 170.493641 46.485807 
Q 170.887283 46.72949 171.449628 46.72949 
Q 171.562097 46.692 171.880759 46.72949 
Q 172.199421 46.766979 172.386869 46.710745 
Q 172.574317 46.65451 172.574317 46.392083 
" clip-path="url(#p4ad607950b)" style="fill: none; stroke: #000000; stroke-linejoin: miter"/>
   </g>
  </g>
  <g id="axes_12">
   <g id="patch_12">
    <path d="M 186.225021 26.147669 
Q 186.187531 26.597545 186.225021 27.384828 
Q 186.26251 27.572276 186.206276 27.965917 
Q 186.150041 28.359559 186.187531 28.678221 
Q 186.225021 28.996883 186.449959 29.184331 
" clip-path="url(#pcb5009b0a0)" style="fill: none; stroke: #000000; stroke-linejoin: miter"/>
   </g>
  </g>
  <g id="axes_13">
   <g id="patch_13">
    <path d="M 198.057476 43.917766 
Q 198.357393 44.180193 199.369614 45.154924 
Q 200.381834 46.129655 200.944179 46.560786 
Q 201.506524 46.991917 202.53749 47.385559 
Q 203.568455 47.7792 204.580676 47.629241 
Q 205.25549 47.629241 205.72411 47.404303 
Q 206.192731 47.179366 206.417669 46.879448 
Q 206.642607 46.579531 206.773821 45.979697 
Q 206.905034 45.379862 206.923779 44.967476 
Q 206.942524 44.55509 206.942524 43.805297 
Q 206.942524 42.718097 206.042772 42.043283 
Q 205.143021 41.368469 203.849628 41.031062 
Q 202.556234 40.693655 201.262841 40.300014 
Q 199.969448 39.906372 199.069697 38.987876 
Q 198.169945 38.069379 198.169945 36.607283 
Q 198.169945 36.082428 198.338648 35.726276 
Q 198.507352 35.370124 198.900993 35.145186 
Q 199.294634 34.920248 199.575807 34.807779 
Q 199.856979 34.69531 200.513048 34.639076 
Q 201.169117 34.582841 201.356566 34.582841 
Q 201.544014 34.582841 202.218828 34.582841 
Q 203.418497 34.582841 203.999586 34.995228 
Q 204.580676 35.407614 204.899338 36.026193 
Q 205.218 36.644772 205.480428 36.832221 
" clip-path="url(#p62bf434f32)" style="fill: none; stroke: #000000; stroke-linejoin: miter"/>
   </g>
  </g>
  <g id="axes_14"/>
  <g id="axes_15">
   <g id="patch_14">
    <path d="M 230.457476 43.917766 
Q 230.757393 44.180193 231.769614 45.154924 
Q 232.781834 46.129655 233.344179 46.560786 
Q 233.906524 46.991917 234.93749 47.385559 
Q 235.968455 47.7792 236.980676 47.629241 
Q 237.65549 47.629241 238.12411 47.404303 
Q 238.592731 47.179366 238.817669 46.879448 
Q 239.042607 46.579531 239.173821 45.979697 
Q 239.305034 45.379862 239.323779 44.967476 
Q 239.342524 44.55509 239.342524 43.805297 
Q 239.342524 42.718097 238.442772 42.043283 
Q 237.543021 41.368469 236.249628 41.031062 
Q 234.956234 40.693655 233.662841 40.300014 
Q 232.369448 39.906372 231.469697 38.987876 
Q 230.569945 38.069379 230.569945 36.607283 
Q 230.569945 36.082428 230.738648 35.726276 
Q 230.907352 35.370124 231.300993 35.145186 
Q 231.694634 34.920248 231.975807 34.807779 
Q 232.256979 34.69531 232.913048 34.639076 
Q 233.569117 34.582841 233.756566 34.582841 
Q 233.944014 34.582841 234.618828 34.582841 
Q 235.818497 34.582841 236.399586 34.995228 
Q 236.980676 35.407614 237.299338 36.026193 
Q 237.618 36.644772 237.880428 36.832221 
" clip-path="url(#pa4ad396454)" style="fill: none; stroke: #000000; stroke-linejoin: miter"/>
   </g>
  </g>
  <g id="axes_16">
   <g id="patch_15">
    <path d="M 244.857798 38.160826 
Q 247.830275 39.535596 252.549083 39.721376 
Q 254.072477 39.721376 254.759862 38.550963 
Q 255.447248 37.38055 255.447248 35.82 
Q 255.447248 35.299817 255.354358 34.909679 
Q 255.261468 34.519541 255.019954 34.296606 
Q 254.77844 34.07367 254.611239 33.943624 
Q 254.444037 33.813578 253.998165 33.757844 
Q 253.552294 33.70211 253.347936 33.683532 
Q 253.143578 33.664954 252.567661 33.683532 
Q 251.991743 33.70211 251.768807 33.70211 
Q 249.725229 33.70211 248.238991 35.578486 
Q 246.752752 37.454862 246.752752 39.609908 
Q 246.752752 42.619541 248.684862 44.570229 
Q 250.616972 46.520917 253.663761 46.520917 
Q 255.818807 46.818165 257.342202 44.29156 
" clip-path="url(#pa1135b6e1f)" style="fill: none; stroke: #000000; stroke-linejoin: miter"/>
   </g>
  </g>
  <g id="axes_17">
   <g id="patch_16">
    <path d="M 261.057798 38.160826 
Q 264.030275 39.535596 268.749083 39.721376 
Q 270.272477 39.721376 270.959862 38.550963 
Q 271.647248 37.38055 271.647248 35.82 
Q 271.647248 35.299817 271.554358 34.909679 
Q 271.461468 34.519541 271.219954 34.296606 
Q 270.97844 34.07367 270.811239 33.943624 
Q 270.644037 33.813578 270.198165 33.757844 
Q 269.752294 33.70211 269.547936 33.683532 
Q 269.343578 33.664954 268.767661 33.683532 
Q 268.191743 33.70211 267.968807 33.70211 
Q 265.925229 33.70211 264.438991 35.578486 
Q 262.952752 37.454862 262.952752 39.609908 
Q 262.952752 42.619541 264.884862 44.570229 
Q 266.816972 46.520917 269.863761 46.520917 
Q 272.018807 46.818165 273.542202 44.29156 
" clip-path="url(#pb453a78a05)" style="fill: none; stroke: #000000; stroke-linejoin: miter"/>
   </g>
  </g>
  <g id="axes_18">
   <g id="patch_17">
    <path d="M 283.387531 45.979697 
Q 283.350041 46.017186 283.218828 46.054676 
Q 283.087614 46.092166 283.125103 46.167145 
Q 283.125103 46.579531 283.5 46.579531 
Q 283.837407 46.579531 283.837407 46.092166 
Q 283.912386 45.867228 283.631214 45.754759 
Q 283.350041 45.64229 283.162593 45.754759 
" clip-path="url(#p6cd49ae01c)" style="fill: none; stroke: #000000; stroke-linejoin: miter"/>
   </g>
  </g>
  <g id="axes_19">
   <g id="patch_18">
    <path d="M 299.587531 45.979697 
Q 299.550041 46.017186 299.418828 46.054676 
Q 299.287614 46.092166 299.325103 46.167145 
Q 299.325103 46.579531 299.7 46.579531 
Q 300.037407 46.579531 300.037407 46.092166 
Q 300.112386 45.867228 299.831214 45.754759 
Q 299.550041 45.64229 299.362593 45.754759 
" clip-path="url(#p8d069ea43f)" style="fill: none; stroke: #000000; stroke-linejoin: miter"/>
   </g>
  </g>
  <g id="axes_20">
   <g id="patch_19">
    <path d="M 315.787531 45.979697 
Q 315.750041 46.017186 315.618828 46.054676 
Q 315.487614 46.092166 315.525103 46.167145 
Q 315.525103 46.579531 315.9 46.579531 
Q 316.237407 46.579531 316.237407 46.092166 
Q 316.312386 45.867228 316.031214 45.754759 
Q 315.750041 45.64229 315.562593 45.754759 
" clip-path="url(#p1a2d8adea9)" style="fill: none; stroke: #000000; stroke-linejoin: miter"/>
   </g>
  </g>
  <g id="axes_21">
   <g id="patch_20">
    <path d="M 332.718579 29.071862 
Q 332.343683 29.146841 332.212469 29.577972 
Q 332.081255 30.009103 332.156234 30.42149 
Q 332.156234 30.571448 332.193724 30.702662 
Q 332.231214 30.833876 332.287448 30.89011 
Q 332.343683 30.946345 332.399917 31.040069 
Q 332.456152 31.133793 332.493641 31.208772 
L 332.60611 29.859145 
M 332.60611 34.020497 
Q 331.706359 39.006621 331.481421 42.793076 
L 331.931297 45.379862 
L 332.268703 46.054676 
" clip-path="url(#p149a9c800d)" style="fill: none; stroke: #000000; stroke-linejoin: miter"/>
   </g>
  </g>
  <g id="axes_22">
   <g id="patch_21">
    <path d="M 343.463834 37.95691 
L 344.138648 37.95691 
Q 344.850952 37.95691 345.638234 37.881931 
Q 346.425517 37.806952 347.381503 37.675738 
Q 348.33749 37.544524 348.862345 37.507034 
L 353.136166 35.82 
M 349.087283 30.42149 
L 349.087283 31.43371 
Q 349.087283 33.383172 348.412469 37.207117 
Q 347.737655 41.031062 347.737655 43.018014 
Q 347.737655 43.805297 347.737655 44.105214 
Q 347.737655 44.405131 347.831379 45.042455 
Q 347.925103 45.679779 348.112552 45.960952 
Q 348.3 46.242124 348.693641 46.485807 
Q 349.087283 46.72949 349.649628 46.72949 
Q 349.762097 46.692 350.080759 46.72949 
Q 350.399421 46.766979 350.586869 46.710745 
Q 350.774317 46.65451 350.774317 46.392083 
" clip-path="url(#pba0dbe939f)" style="fill: none; stroke: #000000; stroke-linejoin: miter"/>
   </g>
  </g>
  <g id="axes_23"/>
  <g id="axes_24">
   <g id="patch_22">
    <path d="M 385.956735 34.365306 
Q 385.956735 34.365306 385.460816 34.365306 
Q 384.667347 34.365306 383.179592 34.067755 
Q 381.691837 33.770204 380.898367 33.770204 
Q 378.121224 33.770204 376.187143 35.224898 
Q 374.253061 36.679592 374.253061 39.423673 
Q 374.253061 40.94449 375.740816 42.399184 
Q 377.228571 43.853878 379.162653 44.663878 
Q 381.096735 45.473878 382.58449 45.473878 
Q 383.510204 45.473878 384.20449 45.110204 
Q 384.898776 44.746531 385.642653 44.118367 
Q 386.386531 43.490204 386.948571 43.192653 
L 387.146939 42.696735 
" clip-path="url(#p24d20fe220)" style="fill: none; stroke: #000000; stroke-linejoin: miter"/>
   </g>
  </g>
  <g id="axes_25">
   <g id="patch_23">
    <path d="M 400.1616 35.032717 
Q 399.11189 34.582841 398.137159 34.69531 
Q 395.100497 35.032717 393.188524 36.701007 
Q 391.276552 38.369297 391.276552 41.330979 
Q 391.276552 43.917766 393.282248 45.6048 
Q 395.287945 47.291834 397.912221 47.291834 
Q 400.274069 47.291834 401.398759 45.361117 
Q 402.523448 43.4304 402.523448 40.881103 
Q 402.523448 39.643945 402.111062 38.706703 
Q 401.698676 37.769462 401.173821 37.300841 
Q 400.648966 36.832221 399.899172 36.119917 
Q 399.149379 35.407614 398.699503 34.69531 
L 397.462345 34.245434 
" clip-path="url(#pc05bd9a5fd)" style="fill: none; stroke: #000000; stroke-linejoin: miter"/>
   </g>
  </g>
  <g id="axes_26">
   <g id="patch_24">
    <path d="M 408.488772 35.145186 
Q 408.488772 35.145186 408.488772 35.595062 
Q 408.488772 36.269876 408.376303 37.619503 
Q 408.263834 38.969131 408.263834 39.643945 
Q 408.263834 41.930814 409.500993 43.599103 
Q 410.738152 45.267393 412.875062 45.267393 
Q 414.262179 45.154924 415.030717 43.917766 
Q 415.799255 42.680607 415.949214 41.237255 
Q 416.099172 39.793903 416.3616 37.9944 
Q 416.624028 36.194897 417.036414 35.370124 
Q 417.186372 35.070207 417.186372 35.670041 
Q 417.186372 36.269876 416.923945 38.706703 
Q 416.699007 41.031062 416.699007 41.555917 
Q 416.549048 42.643117 416.886455 43.767807 
Q 417.223862 44.892497 417.936166 45.6048 
" clip-path="url(#p7d02a90494)" style="fill: none; stroke: #000000; stroke-linejoin: miter"/>
   </g>
  </g>
  <g id="axes_27">
   <g id="patch_25">
    <path d="M 428.906359 28.621986 
Q 429.131297 30.34651 429.206276 32.146014 
Q 429.281255 33.945517 429.26251 36.551048 
Q 429.243766 39.156579 429.243766 40.093821 
Q 429.243766 40.13131 429.468703 45.829738 
L 429.693641 46.841959 
" clip-path="url(#p45a93227e7)" style="fill: none; stroke: #000000; stroke-linejoin: miter"/>
   </g>
  </g>
  <g id="axes_28">
   <g id="patch_26">
    <path d="M 449.099007 39.568966 
Q 447.749379 38.181848 445.5 38.444276 
Q 442.650786 38.444276 441.488607 39.793903 
Q 440.326428 41.143531 440.326428 44.067724 
Q 440.326428 45.56731 441.619821 46.279614 
Q 442.913214 46.991917 444.487779 46.991917 
Q 445.799917 46.991917 446.812138 45.736014 
Q 447.824359 44.48011 448.405448 42.30571 
Q 448.986538 40.13131 449.361434 37.938166 
Q 449.736331 35.745021 449.88629 33.045766 
Q 450.036248 30.34651 450.073738 28.978138 
Q 450.111228 27.609766 450.111228 26.185159 
Q 449.88629 26.260138 449.88629 29.896634 
L 449.88629 44.292662 
L 450.673572 48.229076 
" clip-path="url(#pa1cfb108e9)" style="fill: none; stroke: #000000; stroke-linejoin: miter"/>
   </g>
  </g>
  <g id="axes_29"/>
  <g id="axes_30">
   <g id="patch_27">
    <path d="M 474.357228 37.244607 
Q 475.406938 37.207117 475.594386 37.132138 
Q 479.005945 37.132138 480.786703 39.212814 
Q 482.567462 41.29349 482.567462 44.780028 
Q 482.567462 47.704221 477.956234 47.704221 
Q 477.31891 47.704221 476.77531 47.591752 
Q 476.23171 47.479283 475.594386 47.254345 
Q 474.957062 47.029407 474.469697 46.916938 
L 473.232538 45.679779 
M 474.244759 25.435366 
L 474.244759 26.560055 
Q 474.244759 29.409269 474.357228 33.008276 
Q 474.469697 36.607283 474.657145 40.899848 
Q 474.844593 45.192414 474.919572 47.141876 
" clip-path="url(#p1b1a414e5a)" style="fill: none; stroke: #000000; stroke-linejoin: miter"/>
   </g>
  </g>
  <g id="axes_31">
   <g id="patch_28">
    <path d="M 487.857798 38.160826 
Q 490.830275 39.535596 495.549083 39.721376 
Q 497.072477 39.721376 497.759862 38.550963 
Q 498.447248 37.38055 498.447248 35.82 
Q 498.447248 35.299817 498.354358 34.909679 
Q 498.261468 34.519541 498.019954 34.296606 
Q 497.77844 34.07367 497.611239 33.943624 
Q 497.444037 33.813578 496.998165 33.757844 
Q 496.552294 33.70211 496.347936 33.683532 
Q 496.143578 33.664954 495.567661 33.683532 
Q 494.991743 33.70211 494.768807 33.70211 
Q 492.725229 33.70211 491.238991 35.578486 
Q 489.752752 37.454862 489.752752 39.609908 
Q 489.752752 42.619541 491.684862 44.570229 
Q 493.616972 46.520917 496.663761 46.520917 
Q 498.818807 46.818165 500.342202 44.29156 
" clip-path="url(#pe50e496775)" style="fill: none; stroke: #000000; stroke-linejoin: miter"/>
   </g>
  </g>
  <g id="axes_32"/>
  <g id="axes_33">
   <g id="patch_29">
    <path d="M 532.043923 36.441748 
Q 530.834968 35.094627 526.862687 35.094627 
Q 525.342857 35.094627 524.565672 35.146439 
Q 523.788486 35.198252 522.78678 35.440043 
Q 521.785075 35.681834 521.301493 36.182687 
Q 520.81791 36.683539 520.472495 37.616162 
Q 520.127079 38.548785 520.127079 39.964989 
Q 520.127079 42.037484 521.543284 43.280981 
Q 522.959488 44.524478 524.893817 44.524478 
Q 527.553518 44.524478 530.316844 38.721493 
Q 531.663966 35.854542 531.663966 35.82 
Q 532.009382 35.578209 532.043923 36.441748 
Q 532.043923 37.512537 532.458422 40.362217 
Q 532.872921 43.211898 532.872921 44.524478 
" clip-path="url(#p507a667728)" style="fill: none; stroke: #000000; stroke-linejoin: miter"/>
   </g>
  </g>
  <g id="axes_34">
   <g id="patch_30">
    <path d="M 539.157228 37.244607 
Q 540.206938 37.207117 540.394386 37.132138 
Q 543.805945 37.132138 545.586703 39.212814 
Q 547.367462 41.29349 547.367462 44.780028 
Q 547.367462 47.704221 542.756234 47.704221 
Q 542.11891 47.704221 541.57531 47.591752 
Q 541.03171 47.479283 540.394386 47.254345 
Q 539.757062 47.029407 539.269697 46.916938 
L 538.032538 45.679779 
M 539.044759 25.435366 
L 539.044759 26.560055 
Q 539.044759 29.409269 539.157228 33.008276 
Q 539.269697 36.607283 539.457145 40.899848 
Q 539.644593 45.192414 539.719572 47.141876 
" clip-path="url(#p5979e3ddce)" style="fill: none; stroke: #000000; stroke-linejoin: miter"/>
   </g>
  </g>
  <g id="axes_35">
   <g id="patch_31">
    <path d="M 562.1616 35.032717 
Q 561.11189 34.582841 560.137159 34.69531 
Q 557.100497 35.032717 555.188524 36.701007 
Q 553.276552 38.369297 553.276552 41.330979 
Q 553.276552 43.917766 555.282248 45.6048 
Q 557.287945 47.291834 559.912221 47.291834 
Q 562.274069 47.291834 563.398759 45.361117 
Q 564.523448 43.4304 564.523448 40.881103 
Q 564.523448 39.643945 564.111062 38.706703 
Q 563.698676 37.769462 563.173821 37.300841 
Q 562.648966 36.832221 561.899172 36.119917 
Q 561.149379 35.407614 560.699503 34.69531 
L 559.462345 34.245434 
" clip-path="url(#pa04979d476)" style="fill: none; stroke: #000000; stroke-linejoin: miter"/>
   </g>
  </g>
  <g id="axes_36">
   <g id="patch_32">
    <path d="M 570.488772 35.145186 
Q 570.488772 35.145186 570.488772 35.595062 
Q 570.488772 36.269876 570.376303 37.619503 
Q 570.263834 38.969131 570.263834 39.643945 
Q 570.263834 41.930814 571.500993 43.599103 
Q 572.738152 45.267393 574.875062 45.267393 
Q 576.262179 45.154924 577.030717 43.917766 
Q 577.799255 42.680607 577.949214 41.237255 
Q 578.099172 39.793903 578.3616 37.9944 
Q 578.624028 36.194897 579.036414 35.370124 
Q 579.186372 35.070207 579.186372 35.670041 
Q 579.186372 36.269876 578.923945 38.706703 
Q 578.699007 41.031062 578.699007 41.555917 
Q 578.549048 42.643117 578.886455 43.767807 
Q 579.223862 44.892497 579.936166 45.6048 
" clip-path="url(#p730ee6534e)" style="fill: none; stroke: #000000; stroke-linejoin: miter"/>
   </g>
  </g>
  <g id="axes_37">
   <g id="patch_33">
    <path d="M 586.463834 37.95691 
L 587.138648 37.95691 
Q 587.850952 37.95691 588.638234 37.881931 
Q 589.425517 37.806952 590.381503 37.675738 
Q 591.33749 37.544524 591.862345 37.507034 
L 596.136166 35.82 
M 592.087283 30.42149 
L 592.087283 31.43371 
Q 592.087283 33.383172 591.412469 37.207117 
Q 590.737655 41.031062 590.737655 43.018014 
Q 590.737655 43.805297 590.737655 44.105214 
Q 590.737655 44.405131 590.831379 45.042455 
Q 590.925103 45.679779 591.112552 45.960952 
Q 591.3 46.242124 591.693641 46.485807 
Q 592.087283 46.72949 592.649628 46.72949 
Q 592.762097 46.692 593.080759 46.72949 
Q 593.399421 46.766979 593.586869 46.710745 
Q 593.774317 46.65451 593.774317 46.392083 
" clip-path="url(#pa9eb15cbcd)" style="fill: none; stroke: #000000; stroke-linejoin: miter"/>
   </g>
  </g>
  <g id="axes_38"/>
  <g id="axes_39">
   <g id="patch_34">
    <path d="M 629.243923 36.441748 
Q 628.034968 35.094627 624.062687 35.094627 
Q 622.542857 35.094627 621.765672 35.146439 
Q 620.988486 35.198252 619.98678 35.440043 
Q 618.985075 35.681834 618.501493 36.182687 
Q 618.01791 36.683539 617.672495 37.616162 
Q 617.327079 38.548785 617.327079 39.964989 
Q 617.327079 42.037484 618.743284 43.280981 
Q 620.159488 44.524478 622.093817 44.524478 
Q 624.753518 44.524478 627.516844 38.721493 
Q 628.863966 35.854542 628.863966 35.82 
Q 629.209382 35.578209 629.243923 36.441748 
Q 629.243923 37.512537 629.658422 40.362217 
Q 630.072921 43.211898 630.072921 44.524478 
" clip-path="url(#p6884ee0158)" style="fill: none; stroke: #000000; stroke-linejoin: miter"/>
   </g>
  </g>
  <g id="axes_40"/>
  <g id="axes_41">
   <g id="patch_35">
    <path d="M 651.320069 39.868883 
L 651.320069 39.419007 
Q 651.320069 37.769462 653.063338 36.682262 
Q 654.806607 35.595062 656.493641 35.595062 
Q 658.705531 35.595062 660.073903 36.794731 
Q 661.442276 37.9944 661.442276 40.20629 
Q 661.442276 42.30571 659.624028 43.336676 
Q 657.805779 44.367641 655.59389 44.367641 
Q 654.919076 44.367641 654.412966 44.255172 
Q 653.906855 44.142703 653.288276 43.917766 
Q 652.669697 43.692828 652.219821 43.580359 
L 651.095131 42.568138 
M 650.757724 36.832221 
Q 651.2076 38.444276 651.470028 40.262524 
Q 651.732455 42.080772 651.78869 43.749062 
Q 651.844924 45.417352 651.882414 47.27309 
Q 651.919903 49.128828 651.882414 50.778372 
L 651.769945 57.863917 
" clip-path="url(#pf3d8c27ec5)" style="fill: none; stroke: #000000; stroke-linejoin: miter"/>
   </g>
  </g>
  <g id="axes_42">
   <g id="patch_36">
    <path d="M 668.813462 32.783338 
Q 669.338317 34.507862 669.469531 36.457324 
Q 669.600745 38.406786 669.525766 40.956083 
Q 669.450786 43.505379 669.488276 44.705048 
L 669.600745 46.054676 
L 669.600745 45.829738 
Q 669.600745 44.667559 669.319572 42.30571 
Q 669.0384 39.943862 669.0384 38.744193 
Q 669.0384 36.419834 670.050621 34.882759 
Q 671.062841 33.345683 673.087283 33.345683 
Q 673.799586 33.345683 674.136993 33.626855 
Q 674.4744 33.908028 674.736828 34.432883 
Q 674.999255 34.957738 675.336662 35.257655 
L 675.786538 36.832221 
" clip-path="url(#p9445812deb)" style="fill: none; stroke: #000000; stroke-linejoin: miter"/>
   </g>
  </g>
  <g id="axes_43">
   <g id="patch_37">
    <path d="M 682.257798 38.160826 
Q 685.230275 39.535596 689.949083 39.721376 
Q 691.472477 39.721376 692.159862 38.550963 
Q 692.847248 37.38055 692.847248 35.82 
Q 692.847248 35.299817 692.754358 34.909679 
Q 692.661468 34.519541 692.419954 34.296606 
Q 692.17844 34.07367 692.011239 33.943624 
Q 691.844037 33.813578 691.398165 33.757844 
Q 690.952294 33.70211 690.747936 33.683532 
Q 690.543578 33.664954 689.967661 33.683532 
Q 689.391743 33.70211 689.168807 33.70211 
Q 687.125229 33.70211 685.638991 35.578486 
Q 684.152752 37.454862 684.152752 39.609908 
Q 684.152752 42.619541 686.084862 44.570229 
Q 688.016972 46.520917 691.063761 46.520917 
Q 693.218807 46.818165 694.742202 44.29156 
" clip-path="url(#p31e5e38711)" style="fill: none; stroke: #000000; stroke-linejoin: miter"/>
   </g>
  </g>
  <g id="axes_44">
   <g id="patch_38">
    <path d="M 699.863834 37.95691 
L 700.538648 37.95691 
Q 701.250952 37.95691 702.038234 37.881931 
Q 702.825517 37.806952 703.781503 37.675738 
Q 704.73749 37.544524 705.262345 37.507034 
L 709.536166 35.82 
M 705.487283 30.42149 
L 705.487283 31.43371 
Q 705.487283 33.383172 704.812469 37.207117 
Q 704.137655 41.031062 704.137655 43.018014 
Q 704.137655 43.805297 704.137655 44.105214 
Q 704.137655 44.405131 704.231379 45.042455 
Q 704.325103 45.679779 704.512552 45.960952 
Q 704.7 46.242124 705.093641 46.485807 
Q 705.487283 46.72949 706.049628 46.72949 
Q 706.162097 46.692 706.480759 46.72949 
Q 706.799421 46.766979 706.986869 46.710745 
Q 707.174317 46.65451 707.174317 46.392083 
" clip-path="url(#p61e4e3c161)" style="fill: none; stroke: #000000; stroke-linejoin: miter"/>
   </g>
  </g>
  <g id="axes_45">
   <g id="patch_39">
    <path d="M 716.063834 37.95691 
L 716.738648 37.95691 
Q 717.450952 37.95691 718.238234 37.881931 
Q 719.025517 37.806952 719.981503 37.675738 
Q 720.93749 37.544524 721.462345 37.507034 
L 725.736166 35.82 
M 721.687283 30.42149 
L 721.687283 31.43371 
Q 721.687283 33.383172 721.012469 37.207117 
Q 720.337655 41.031062 720.337655 43.018014 
Q 720.337655 43.805297 720.337655 44.105214 
Q 720.337655 44.405131 720.431379 45.042455 
Q 720.525103 45.679779 720.712552 45.960952 
Q 720.9 46.242124 721.293641 46.485807 
Q 721.687283 46.72949 722.249628 46.72949 
Q 722.362097 46.692 722.680759 46.72949 
Q 722.999421 46.766979 723.186869 46.710745 
Q 723.374317 46.65451 723.374317 46.392083 
" clip-path="url(#pcc2322ea6b)" style="fill: none; stroke: #000000; stroke-linejoin: miter"/>
   </g>
  </g>
  <g id="axes_46">
   <g id="patch_40">
    <path d="M 731.963917 36.382345 
Q 731.926428 36.494814 732.057641 36.701007 
Q 732.188855 36.9072 732.076386 37.057159 
L 732.076386 39.306538 
Q 732.076386 40.506207 732.413793 41.724621 
Q 732.7512 42.943034 733.613462 43.93651 
Q 734.475724 44.929986 735.675393 44.929986 
Q 736.912552 44.929986 737.587366 43.861531 
Q 738.262179 42.793076 738.712055 41.143531 
Q 739.161931 39.493986 739.499338 38.969131 
L 740.286621 36.382345 
L 740.061683 42.680607 
L 740.061683 45.154924 
Q 740.061683 47.066897 740.792731 51.00331 
Q 741.523779 54.939724 741.523779 56.964166 
Q 742.273572 59.213545 741.186372 60.188276 
Q 740.099172 61.163007 738.037241 60.78811 
Q 736.237738 60.488193 735.319241 60.169531 
Q 734.400745 59.850869 732.413793 58.988607 
L 732.301324 58.426262 
" clip-path="url(#pe2824c4363)" style="fill: none; stroke: #000000; stroke-linejoin: miter"/>
   </g>
  </g>
  <g id="axes_47"/>
 </g>
 <defs>
  <clipPath id="p9a3a86b552">
   <rect x="1.389352" y="8.64" width="13.421297" height="54.36"/>
  </clipPath>
  <clipPath id="p000cd27026">
   <rect x="18.938979" y="8.64" width="10.722041" height="54.36"/>
  </clipPath>
  <clipPath id="pdd75714b5f">
   <rect x="33.002069" y="8.64" width="14.995862" height="54.36"/>
  </clipPath>
  <clipPath id="pc9bc3e171b">
   <rect x="49.989352" y="8.64" width="13.421297" height="54.36"/>
  </clipPath>
  <clipPath id="p427ba2efe7">
   <rect x="64.8" y="9.426742" width="16.2" height="52.786517"/>
  </clipPath>
  <clipPath id="p4de7bfb8d6">
   <rect x="83.738979" y="8.64" width="10.722041" height="54.36"/>
  </clipPath>
  <clipPath id="p1e83c6394b">
   <rect x="103.013131" y="8.64" width="4.573738" height="54.36"/>
  </clipPath>
  <clipPath id="p147f86d50a">
   <rect x="129.6" y="11.850612" width="16.2" height="47.938776"/>
  </clipPath>
  <clipPath id="p8ab7008554">
   <rect x="145.8" y="8.881927" width="16.2" height="53.876147"/>
  </clipPath>
  <clipPath id="p4ad607950b">
   <rect x="163.389352" y="8.64" width="13.421297" height="54.36"/>
  </clipPath>
  <clipPath id="pcb5009b0a0">
   <rect x="184.275559" y="8.64" width="4.048883" height="54.36"/>
  </clipPath>
  <clipPath id="p62bf434f32">
   <rect x="196.182993" y="8.64" width="12.634014" height="54.36"/>
  </clipPath>
  <clipPath id="pa4ad396454">
   <rect x="228.582993" y="8.64" width="12.634014" height="54.36"/>
  </clipPath>
  <clipPath id="pa1135b6e1f">
   <rect x="243" y="8.881927" width="16.2" height="53.876147"/>
  </clipPath>
  <clipPath id="pb453a78a05">
   <rect x="259.2" y="8.881927" width="16.2" height="53.876147"/>
  </clipPath>
  <clipPath id="p6cd49ae01c">
   <rect x="281.213131" y="8.64" width="4.573738" height="54.36"/>
  </clipPath>
  <clipPath id="p8d069ea43f">
   <rect x="297.413131" y="8.64" width="4.573738" height="54.36"/>
  </clipPath>
  <clipPath id="p1a2d8adea9">
   <rect x="313.613131" y="8.64" width="4.573738" height="54.36"/>
  </clipPath>
  <clipPath id="p149a9c800d">
   <rect x="329.606938" y="8.64" width="4.986124" height="54.36"/>
  </clipPath>
  <clipPath id="pba0dbe939f">
   <rect x="341.589352" y="8.64" width="13.421297" height="54.36"/>
  </clipPath>
  <clipPath id="p24d20fe220">
   <rect x="372.6" y="11.850612" width="16.2" height="47.938776"/>
  </clipPath>
  <clipPath id="pc05bd9a5fd">
   <rect x="389.402069" y="8.64" width="14.995862" height="54.36"/>
  </clipPath>
  <clipPath id="p7d02a90494">
   <rect x="406.389352" y="8.64" width="13.421297" height="54.36"/>
  </clipPath>
  <clipPath id="p45a93227e7">
   <rect x="427.031876" y="8.64" width="4.536248" height="54.36"/>
  </clipPath>
  <clipPath id="pa1cfb108e9">
   <rect x="438.451945" y="8.64" width="14.09611" height="54.36"/>
  </clipPath>
  <clipPath id="p1b1a414e5a">
   <rect x="471.358055" y="8.64" width="13.08389" height="54.36"/>
  </clipPath>
  <clipPath id="pe50e496775">
   <rect x="486" y="8.881927" width="16.2" height="53.876147"/>
  </clipPath>
  <clipPath id="p507a667728">
   <rect x="518.4" y="10.777356" width="16.2" height="50.085288"/>
  </clipPath>
  <clipPath id="p5979e3ddce">
   <rect x="536.158055" y="8.64" width="13.08389" height="54.36"/>
  </clipPath>
  <clipPath id="pa04979d476">
   <rect x="551.402069" y="8.64" width="14.995862" height="54.36"/>
  </clipPath>
  <clipPath id="p730ee6534e">
   <rect x="568.389352" y="8.64" width="13.421297" height="54.36"/>
  </clipPath>
  <clipPath id="pa9eb15cbcd">
   <rect x="584.589352" y="8.64" width="13.421297" height="54.36"/>
  </clipPath>
  <clipPath id="p6884ee0158">
   <rect x="615.6" y="10.777356" width="16.2" height="50.085288"/>
  </clipPath>
  <clipPath id="pf3d8c27ec5">
   <rect x="648.883241" y="8.64" width="14.433517" height="54.36"/>
  </clipPath>
  <clipPath id="p9445812deb">
   <rect x="666.938979" y="8.64" width="10.722041" height="54.36"/>
  </clipPath>
  <clipPath id="p31e5e38711">
   <rect x="680.4" y="8.881927" width="16.2" height="53.876147"/>
  </clipPath>
  <clipPath id="p61e4e3c161">
   <rect x="697.989352" y="8.64" width="13.421297" height="54.36"/>
  </clipPath>
  <clipPath id="pcc2322ea6b">
   <rect x="714.189352" y="8.64" width="13.421297" height="54.36"/>
  </clipPath>
  <clipPath id="pe2824c4363">
   <rect x="730.051945" y="8.64" width="14.09611" height="54.36"/>
  </clipPath>
 </defs>
</svg>
