<?xml version="1.0" encoding="utf-8" standalone="no"?>
<!DOCTYPE svg PUBLIC "-//W3C//DTD SVG 1.1//EN"
  "http://www.w3.org/Graphics/SVG/1.1/DTD/svg11.dtd">
<svg xmlns:xlink="http://www.w3.org/1999/xlink" width="810pt" height="72pt" viewBox="0 0 810 72" xmlns="http://www.w3.org/2000/svg" version="1.1">
 <metadata>
  <rdf:RDF xmlns:dc="http://purl.org/dc/elements/1.1/" xmlns:cc="http://creativecommons.org/ns#" xmlns:rdf="http://www.w3.org/1999/02/22-rdf-syntax-ns#">
   <cc:Work>
    <dc:type rdf:resource="http://purl.org/dc/dcmitype/StillImage"/>
    <dc:date>2024-01-05T17:49:24.806950</dc:date>
    <dc:format>image/svg+xml</dc:format>
    <dc:creator>
     <cc:Agent>
      <dc:title>Matplotlib v3.7.1, https://matplotlib.org/</dc:title>
     </cc:Agent>
    </dc:creator>
   </cc:Work>
  </rdf:RDF>
 </metadata>
 <defs>
  <style type="text/css">*{stroke-linejoin: round; stroke-linecap: butt}</style>
 </defs>
 <g id="figure_1">
  <g id="patch_1">
   <path d="M 0 72 
L 810 72 
L 810 0 
L 0 0 
z
" style="fill: #8fff9f"/>
  </g>
  <g id="axes_1">
   <g id="patch_2">
    <path d="M 1.716102 36.437797 
L 2.951695 44.778051 
Q 3.054661 45.567458 3.054661 45.60178 
Q 3.054661 45.704746 3.363559 45.704746 
Q 4.22161 45.704746 4.942373 44.778051 
Q 5.663136 43.851356 6.075 42.718729 
Q 6.486864 41.586102 7.001695 40.659407 
Q 7.516525 39.732712 7.997034 39.732712 
Q 8.614831 39.732712 9.249788 40.607924 
Q 9.884746 41.483136 10.348093 42.512797 
Q 10.811441 43.542458 11.48072 44.417669 
Q 12.15 45.292881 12.836441 45.292881 
Q 13.111017 43.782712 13.540042 39.69839 
Q 13.969068 35.614068 14.483898 33.554746 
" clip-path="url(#p09904f5168)" style="fill: none; stroke: #000000; stroke-linejoin: miter"/>
   </g>
  </g>
  <g id="axes_2">
   <g id="patch_3">
    <path d="M 27.5616 35.032717 
Q 26.51189 34.582841 25.537159 34.69531 
Q 22.500497 35.032717 20.588524 36.701007 
Q 18.676552 38.369297 18.676552 41.330979 
Q 18.676552 43.917766 20.682248 45.6048 
Q 22.687945 47.291834 25.312221 47.291834 
Q 27.674069 47.291834 28.798759 45.361117 
Q 29.923448 43.4304 29.923448 40.881103 
Q 29.923448 39.643945 29.511062 38.706703 
Q 29.098676 37.769462 28.573821 37.300841 
Q 28.048966 36.832221 27.299172 36.119917 
Q 26.549379 35.407614 26.099503 34.69531 
L 24.862345 34.245434 
" clip-path="url(#p86f6b9775b)" style="fill: none; stroke: #000000; stroke-linejoin: miter"/>
   </g>
  </g>
  <g id="axes_3">
   <g id="patch_4">
    <path d="M 36.038731 37.282097 
L 36.038731 37.844441 
Q 36.301159 39.868883 36.338648 41.312234 
Q 36.376138 42.755586 36.282414 44.667559 
Q 36.18869 46.579531 36.18869 48.191586 
L 36.263669 39.643945 
Q 36.263669 38.144359 37.856979 37.507034 
Q 39.45029 36.86971 40.874897 37.282097 
Q 42.786869 37.844441 43.705366 39.04411 
Q 44.623862 40.243779 44.680097 41.668386 
Q 44.736331 43.092993 44.773821 44.817517 
Q 44.81131 46.542041 44.961269 48.191586 
" clip-path="url(#p2ad7d49ea1)" style="fill: none; stroke: #000000; stroke-linejoin: miter"/>
   </g>
  </g>
  <g id="axes_4">
   <g id="patch_5">
    <path d="M 60.299007 39.568966 
Q 58.949379 38.181848 56.7 38.444276 
Q 53.850786 38.444276 52.688607 39.793903 
Q 51.526428 41.143531 51.526428 44.067724 
Q 51.526428 45.56731 52.819821 46.279614 
Q 54.113214 46.991917 55.687779 46.991917 
Q 56.999917 46.991917 58.012138 45.736014 
Q 59.024359 44.48011 59.605448 42.30571 
Q 60.186538 40.13131 60.561434 37.938166 
Q 60.936331 35.745021 61.08629 33.045766 
Q 61.236248 30.34651 61.273738 28.978138 
Q 61.311228 27.609766 61.311228 26.185159 
Q 61.08629 26.260138 61.08629 29.896634 
L 61.08629 44.292662 
L 61.873572 48.229076 
" clip-path="url(#p0daead850b)" style="fill: none; stroke: #000000; stroke-linejoin: miter"/>
   </g>
  </g>
  <g id="axes_5">
   <g id="patch_6">
    <path d="M 66.657798 38.160826 
Q 69.630275 39.535596 74.349083 39.721376 
Q 75.872477 39.721376 76.559862 38.550963 
Q 77.247248 37.38055 77.247248 35.82 
Q 77.247248 35.299817 77.154358 34.909679 
Q 77.061468 34.519541 76.819954 34.296606 
Q 76.57844 34.07367 76.411239 33.943624 
Q 76.244037 33.813578 75.798165 33.757844 
Q 75.352294 33.70211 75.147936 33.683532 
Q 74.943578 33.664954 74.367661 33.683532 
Q 73.791743 33.70211 73.568807 33.70211 
Q 71.525229 33.70211 70.038991 35.578486 
Q 68.552752 37.454862 68.552752 39.609908 
Q 68.552752 42.619541 70.484862 44.570229 
Q 72.416972 46.520917 75.463761 46.520917 
Q 77.618807 46.818165 79.142202 44.29156 
" clip-path="url(#p07094d7972)" style="fill: none; stroke: #000000; stroke-linejoin: miter"/>
   </g>
  </g>
  <g id="axes_6">
   <g id="patch_7">
    <path d="M 85.613462 32.783338 
Q 86.138317 34.507862 86.269531 36.457324 
Q 86.400745 38.406786 86.325766 40.956083 
Q 86.250786 43.505379 86.288276 44.705048 
L 86.400745 46.054676 
L 86.400745 45.829738 
Q 86.400745 44.667559 86.119572 42.30571 
Q 85.8384 39.943862 85.8384 38.744193 
Q 85.8384 36.419834 86.850621 34.882759 
Q 87.862841 33.345683 89.887283 33.345683 
Q 90.599586 33.345683 90.936993 33.626855 
Q 91.2744 33.908028 91.536828 34.432883 
Q 91.799255 34.957738 92.136662 35.257655 
L 92.586538 36.832221 
" clip-path="url(#p1ba0f0f495)" style="fill: none; stroke: #000000; stroke-linejoin: miter"/>
   </g>
  </g>
  <g id="axes_7">
   <g id="patch_8">
    <path d="M 98.984141 38.85304 
L 99.412335 38.85304 
Q 100.23304 38.85304 101.196476 38.745991 
Q 102.159912 38.638943 103.319604 38.460529 
Q 104.479295 38.282115 105.085903 38.210749 
L 111.615859 35.427489 
M 111.294714 25.793128 
Q 111.009251 25.721762 109.974449 25.275727 
Q 108.939648 24.829692 108.297357 24.93674 
Q 107.655066 24.93674 107.137665 25.150837 
Q 106.620264 25.364934 106.281278 25.793128 
Q 105.942291 26.221322 105.67467 26.685198 
Q 105.407048 27.149075 105.264317 27.862731 
Q 105.121586 28.576388 105.014537 29.129471 
Q 104.907489 29.682555 104.889648 30.50326 
Q 104.871806 31.323965 104.853965 31.77 
Q 104.836123 32.216035 104.853965 32.965374 
Q 104.871806 33.714714 104.871806 33.928811 
Q 104.871806 36.605022 105.567621 41.850396 
Q 106.263436 47.095771 106.263436 49.771982 
Q 106.19207 50.057445 106.156388 50.681894 
Q 106.120705 51.306344 106.013656 51.805903 
Q 105.906608 52.305463 105.621145 52.555242 
" clip-path="url(#p3731b57a1c)" style="fill: none; stroke: #000000; stroke-linejoin: miter"/>
   </g>
  </g>
  <g id="axes_8">
   <g id="patch_9">
    <path d="M 116.888772 35.145186 
Q 116.888772 35.145186 116.888772 35.595062 
Q 116.888772 36.269876 116.776303 37.619503 
Q 116.663834 38.969131 116.663834 39.643945 
Q 116.663834 41.930814 117.900993 43.599103 
Q 119.138152 45.267393 121.275062 45.267393 
Q 122.662179 45.154924 123.430717 43.917766 
Q 124.199255 42.680607 124.349214 41.237255 
Q 124.499172 39.793903 124.7616 37.9944 
Q 125.024028 36.194897 125.436414 35.370124 
Q 125.586372 35.070207 125.586372 35.670041 
Q 125.586372 36.269876 125.323945 38.706703 
Q 125.099007 41.031062 125.099007 41.555917 
Q 124.949048 42.643117 125.286455 43.767807 
Q 125.623862 44.892497 126.336166 45.6048 
" clip-path="url(#pa0a1f71ea3)" style="fill: none; stroke: #000000; stroke-linejoin: miter"/>
   </g>
  </g>
  <g id="axes_9">
   <g id="patch_10">
    <path d="M 137.306359 28.621986 
Q 137.531297 30.34651 137.606276 32.146014 
Q 137.681255 33.945517 137.66251 36.551048 
Q 137.643766 39.156579 137.643766 40.093821 
Q 137.643766 40.13131 137.868703 45.829738 
L 138.093641 46.841959 
" clip-path="url(#pff4caf0c4e)" style="fill: none; stroke: #000000; stroke-linejoin: miter"/>
   </g>
  </g>
  <g id="axes_10"/>
  <g id="axes_11">
   <g id="patch_11">
    <path d="M 173.699007 39.568966 
Q 172.349379 38.181848 170.1 38.444276 
Q 167.250786 38.444276 166.088607 39.793903 
Q 164.926428 41.143531 164.926428 44.067724 
Q 164.926428 45.56731 166.219821 46.279614 
Q 167.513214 46.991917 169.087779 46.991917 
Q 170.399917 46.991917 171.412138 45.736014 
Q 172.424359 44.48011 173.005448 42.30571 
Q 173.586538 40.13131 173.961434 37.938166 
Q 174.336331 35.745021 174.48629 33.045766 
Q 174.636248 30.34651 174.673738 28.978138 
Q 174.711228 27.609766 174.711228 26.185159 
Q 174.48629 26.260138 174.48629 29.896634 
L 174.48629 44.292662 
L 175.273572 48.229076 
" clip-path="url(#p1f3bdcab8e)" style="fill: none; stroke: #000000; stroke-linejoin: miter"/>
   </g>
  </g>
  <g id="axes_12">
   <g id="patch_12">
    <path d="M 191.843923 36.441748 
Q 190.634968 35.094627 186.662687 35.094627 
Q 185.142857 35.094627 184.365672 35.146439 
Q 183.588486 35.198252 182.58678 35.440043 
Q 181.585075 35.681834 181.101493 36.182687 
Q 180.61791 36.683539 180.272495 37.616162 
Q 179.927079 38.548785 179.927079 39.964989 
Q 179.927079 42.037484 181.343284 43.280981 
Q 182.759488 44.524478 184.693817 44.524478 
Q 187.353518 44.524478 190.116844 38.721493 
Q 191.463966 35.854542 191.463966 35.82 
Q 191.809382 35.578209 191.843923 36.441748 
Q 191.843923 37.512537 192.258422 40.362217 
Q 192.672921 43.211898 192.672921 44.524478 
" clip-path="url(#p21ab59f142)" style="fill: none; stroke: #000000; stroke-linejoin: miter"/>
   </g>
  </g>
  <g id="axes_13">
   <g id="patch_13">
    <path d="M 197.363917 36.382345 
Q 197.326428 36.494814 197.457641 36.701007 
Q 197.588855 36.9072 197.476386 37.057159 
L 197.476386 39.306538 
Q 197.476386 40.506207 197.813793 41.724621 
Q 198.1512 42.943034 199.013462 43.93651 
Q 199.875724 44.929986 201.075393 44.929986 
Q 202.312552 44.929986 202.987366 43.861531 
Q 203.662179 42.793076 204.112055 41.143531 
Q 204.561931 39.493986 204.899338 38.969131 
L 205.686621 36.382345 
L 205.461683 42.680607 
L 205.461683 45.154924 
Q 205.461683 47.066897 206.192731 51.00331 
Q 206.923779 54.939724 206.923779 56.964166 
Q 207.673572 59.213545 206.586372 60.188276 
Q 205.499172 61.163007 203.437241 60.78811 
Q 201.637738 60.488193 200.719241 60.169531 
Q 199.800745 59.850869 197.813793 58.988607 
L 197.701324 58.426262 
" clip-path="url(#p0c915c7490)" style="fill: none; stroke: #000000; stroke-linejoin: miter"/>
   </g>
  </g>
  <g id="axes_14">
   <g id="patch_14">
    <path d="M 217.987697 39.981352 
Q 218.999917 40.956083 219.337324 42.905545 
Q 219.524772 43.955255 219.112386 46.167145 
L 217.875228 47.629241 
" clip-path="url(#p5f5c9dac36)" style="fill: none; stroke: #000000; stroke-linejoin: miter"/>
   </g>
  </g>
  <g id="axes_15"/>
  <g id="axes_16">
   <g id="patch_15">
    <path d="M 244.784141 38.85304 
L 245.212335 38.85304 
Q 246.03304 38.85304 246.996476 38.745991 
Q 247.959912 38.638943 249.119604 38.460529 
Q 250.279295 38.282115 250.885903 38.210749 
L 257.415859 35.427489 
M 257.094714 25.793128 
Q 256.809251 25.721762 255.774449 25.275727 
Q 254.739648 24.829692 254.097357 24.93674 
Q 253.455066 24.93674 252.937665 25.150837 
Q 252.420264 25.364934 252.081278 25.793128 
Q 251.742291 26.221322 251.47467 26.685198 
Q 251.207048 27.149075 251.064317 27.862731 
Q 250.921586 28.576388 250.814537 29.129471 
Q 250.707489 29.682555 250.689648 30.50326 
Q 250.671806 31.323965 250.653965 31.77 
Q 250.636123 32.216035 250.653965 32.965374 
Q 250.671806 33.714714 250.671806 33.928811 
Q 250.671806 36.605022 251.367621 41.850396 
Q 252.063436 47.095771 252.063436 49.771982 
Q 251.99207 50.057445 251.956388 50.681894 
Q 251.920705 51.306344 251.813656 51.805903 
Q 251.706608 52.305463 251.421145 52.555242 
" clip-path="url(#pe7ef589a79)" style="fill: none; stroke: #000000; stroke-linejoin: miter"/>
   </g>
  </g>
  <g id="axes_17">
   <g id="patch_16">
    <path d="M 267.918579 29.071862 
Q 267.543683 29.146841 267.412469 29.577972 
Q 267.281255 30.009103 267.356234 30.42149 
Q 267.356234 30.571448 267.393724 30.702662 
Q 267.431214 30.833876 267.487448 30.89011 
Q 267.543683 30.946345 267.599917 31.040069 
Q 267.656152 31.133793 267.693641 31.208772 
L 267.80611 29.859145 
M 267.80611 34.020497 
Q 266.906359 39.006621 266.681421 42.793076 
L 267.131297 45.379862 
L 267.468703 46.054676 
" clip-path="url(#p2b0b85dded)" style="fill: none; stroke: #000000; stroke-linejoin: miter"/>
   </g>
  </g>
  <g id="axes_18">
   <g id="patch_17">
    <path d="M 283.106359 28.621986 
Q 283.331297 30.34651 283.406276 32.146014 
Q 283.481255 33.945517 283.46251 36.551048 
Q 283.443766 39.156579 283.443766 40.093821 
Q 283.443766 40.13131 283.668703 45.829738 
L 283.893641 46.841959 
" clip-path="url(#pe080aa7267)" style="fill: none; stroke: #000000; stroke-linejoin: miter"/>
   </g>
  </g>
  <g id="axes_19">
   <g id="patch_18">
    <path d="M 299.306359 28.621986 
Q 299.531297 30.34651 299.606276 32.146014 
Q 299.681255 33.945517 299.66251 36.551048 
Q 299.643766 39.156579 299.643766 40.093821 
Q 299.643766 40.13131 299.868703 45.829738 
L 300.093641 46.841959 
" clip-path="url(#p5862661f66)" style="fill: none; stroke: #000000; stroke-linejoin: miter"/>
   </g>
  </g>
  <g id="axes_20">
   <g id="patch_19">
    <path d="M 309.657798 38.160826 
Q 312.630275 39.535596 317.349083 39.721376 
Q 318.872477 39.721376 319.559862 38.550963 
Q 320.247248 37.38055 320.247248 35.82 
Q 320.247248 35.299817 320.154358 34.909679 
Q 320.061468 34.519541 319.819954 34.296606 
Q 319.57844 34.07367 319.411239 33.943624 
Q 319.244037 33.813578 318.798165 33.757844 
Q 318.352294 33.70211 318.147936 33.683532 
Q 317.943578 33.664954 317.367661 33.683532 
Q 316.791743 33.70211 316.568807 33.70211 
Q 314.525229 33.70211 313.038991 35.578486 
Q 311.552752 37.454862 311.552752 39.609908 
Q 311.552752 42.619541 313.484862 44.570229 
Q 315.416972 46.520917 318.463761 46.520917 
Q 320.618807 46.818165 322.142202 44.29156 
" clip-path="url(#p7605483f6c)" style="fill: none; stroke: #000000; stroke-linejoin: miter"/>
   </g>
  </g>
  <g id="axes_21">
   <g id="patch_20">
    <path d="M 335.699007 39.568966 
Q 334.349379 38.181848 332.1 38.444276 
Q 329.250786 38.444276 328.088607 39.793903 
Q 326.926428 41.143531 326.926428 44.067724 
Q 326.926428 45.56731 328.219821 46.279614 
Q 329.513214 46.991917 331.087779 46.991917 
Q 332.399917 46.991917 333.412138 45.736014 
Q 334.424359 44.48011 335.005448 42.30571 
Q 335.586538 40.13131 335.961434 37.938166 
Q 336.336331 35.745021 336.48629 33.045766 
Q 336.636248 30.34651 336.673738 28.978138 
Q 336.711228 27.609766 336.711228 26.185159 
Q 336.48629 26.260138 336.48629 29.896634 
L 336.48629 44.292662 
L 337.273572 48.229076 
" clip-path="url(#p63705f74e4)" style="fill: none; stroke: #000000; stroke-linejoin: miter"/>
   </g>
  </g>
  <g id="axes_22"/>
  <g id="axes_23">
   <g id="patch_21">
    <path d="M 358.116102 36.437797 
L 359.351695 44.778051 
Q 359.454661 45.567458 359.454661 45.60178 
Q 359.454661 45.704746 359.763559 45.704746 
Q 360.62161 45.704746 361.342373 44.778051 
Q 362.063136 43.851356 362.475 42.718729 
Q 362.886864 41.586102 363.401695 40.659407 
Q 363.916525 39.732712 364.397034 39.732712 
Q 365.014831 39.732712 365.649788 40.607924 
Q 366.284746 41.483136 366.748093 42.512797 
Q 367.211441 43.542458 367.88072 44.417669 
Q 368.55 45.292881 369.236441 45.292881 
Q 369.511017 43.782712 369.940042 39.69839 
Q 370.369068 35.614068 370.883898 33.554746 
" clip-path="url(#p6947dd5934)" style="fill: none; stroke: #000000; stroke-linejoin: miter"/>
   </g>
  </g>
  <g id="axes_24">
   <g id="patch_22">
    <path d="M 381.318579 29.071862 
Q 380.943683 29.146841 380.812469 29.577972 
Q 380.681255 30.009103 380.756234 30.42149 
Q 380.756234 30.571448 380.793724 30.702662 
Q 380.831214 30.833876 380.887448 30.89011 
Q 380.943683 30.946345 380.999917 31.040069 
Q 381.056152 31.133793 381.093641 31.208772 
L 381.20611 29.859145 
M 381.20611 34.020497 
Q 380.306359 39.006621 380.081421 42.793076 
L 380.531297 45.379862 
L 380.868703 46.054676 
" clip-path="url(#pc738fb20db)" style="fill: none; stroke: #000000; stroke-linejoin: miter"/>
   </g>
  </g>
  <g id="axes_25">
   <g id="patch_23">
    <path d="M 392.063834 37.95691 
L 392.738648 37.95691 
Q 393.450952 37.95691 394.238234 37.881931 
Q 395.025517 37.806952 395.981503 37.675738 
Q 396.93749 37.544524 397.462345 37.507034 
L 401.736166 35.82 
M 397.687283 30.42149 
L 397.687283 31.43371 
Q 397.687283 33.383172 397.012469 37.207117 
Q 396.337655 41.031062 396.337655 43.018014 
Q 396.337655 43.805297 396.337655 44.105214 
Q 396.337655 44.405131 396.431379 45.042455 
Q 396.525103 45.679779 396.712552 45.960952 
Q 396.9 46.242124 397.293641 46.485807 
Q 397.687283 46.72949 398.249628 46.72949 
Q 398.362097 46.692 398.680759 46.72949 
Q 398.999421 46.766979 399.186869 46.710745 
Q 399.374317 46.65451 399.374317 46.392083 
" clip-path="url(#p031bb80e5c)" style="fill: none; stroke: #000000; stroke-linejoin: miter"/>
   </g>
  </g>
  <g id="axes_26">
   <g id="patch_24">
    <path d="M 409.613462 35.932469 
Q 410.213297 35.257655 411.206772 34.826524 
Q 412.200248 34.395393 413.1 34.470372 
Q 413.737324 34.470372 414.22469 34.639076 
Q 414.712055 34.807779 415.030717 34.995228 
Q 415.349379 35.182676 415.574317 35.670041 
Q 415.799255 36.157407 415.911724 36.419834 
Q 416.024193 36.682262 416.080428 37.375821 
Q 416.136662 38.069379 416.155407 38.331807 
Q 416.174152 38.594234 416.155407 39.419007 
Q 416.136662 40.243779 416.136662 40.431228 
Q 416.136662 41.368469 415.967959 43.242952 
Q 415.799255 45.117434 415.799255 46.054676 
Q 415.799255 46.467062 415.85549 46.823214 
Q 415.911724 47.179366 416.005448 47.610497 
Q 416.099172 48.041628 416.136662 48.304055 
L 416.586538 48.528993 
M 410.063338 23.111007 
Q 410.288276 24.798041 410.288276 29.971614 
L 410.288276 42.3432 
L 409.950869 46.841959 
L 409.725931 47.74171 
" clip-path="url(#pae2f6e1b39)" style="fill: none; stroke: #000000; stroke-linejoin: miter"/>
   </g>
  </g>
  <g id="axes_27"/>
  <g id="axes_28">
   <g id="patch_25">
    <path d="M 445.106359 28.621986 
Q 445.331297 30.34651 445.406276 32.146014 
Q 445.481255 33.945517 445.46251 36.551048 
Q 445.443766 39.156579 445.443766 40.093821 
Q 445.443766 40.13131 445.668703 45.829738 
L 445.893641 46.841959 
" clip-path="url(#pf3b7149fdb)" style="fill: none; stroke: #000000; stroke-linejoin: miter"/>
   </g>
  </g>
  <g id="axes_29">
   <g id="patch_26">
    <path d="M 464.9616 35.032717 
Q 463.91189 34.582841 462.937159 34.69531 
Q 459.900497 35.032717 457.988524 36.701007 
Q 456.076552 38.369297 456.076552 41.330979 
Q 456.076552 43.917766 458.082248 45.6048 
Q 460.087945 47.291834 462.712221 47.291834 
Q 465.074069 47.291834 466.198759 45.361117 
Q 467.323448 43.4304 467.323448 40.881103 
Q 467.323448 39.643945 466.911062 38.706703 
Q 466.498676 37.769462 465.973821 37.300841 
Q 465.448966 36.832221 464.699172 36.119917 
Q 463.949379 35.407614 463.499503 34.69531 
L 462.262345 34.245434 
" clip-path="url(#p418d37f1b9)" style="fill: none; stroke: #000000; stroke-linejoin: miter"/>
   </g>
  </g>
  <g id="axes_30">
   <g id="patch_27">
    <path d="M 473.063834 37.95691 
L 473.738648 37.95691 
Q 474.450952 37.95691 475.238234 37.881931 
Q 476.025517 37.806952 476.981503 37.675738 
Q 477.93749 37.544524 478.462345 37.507034 
L 482.736166 35.82 
M 478.687283 30.42149 
L 478.687283 31.43371 
Q 478.687283 33.383172 478.012469 37.207117 
Q 477.337655 41.031062 477.337655 43.018014 
Q 477.337655 43.805297 477.337655 44.105214 
Q 477.337655 44.405131 477.431379 45.042455 
Q 477.525103 45.679779 477.712552 45.960952 
Q 477.9 46.242124 478.293641 46.485807 
Q 478.687283 46.72949 479.249628 46.72949 
Q 479.362097 46.692 479.680759 46.72949 
Q 479.999421 46.766979 480.186869 46.710745 
Q 480.374317 46.65451 480.374317 46.392083 
" clip-path="url(#p26228afb85)" style="fill: none; stroke: #000000; stroke-linejoin: miter"/>
   </g>
  </g>
  <g id="axes_31">
   <g id="patch_28">
    <path d="M 489.657476 43.917766 
Q 489.957393 44.180193 490.969614 45.154924 
Q 491.981834 46.129655 492.544179 46.560786 
Q 493.106524 46.991917 494.13749 47.385559 
Q 495.168455 47.7792 496.180676 47.629241 
Q 496.85549 47.629241 497.32411 47.404303 
Q 497.792731 47.179366 498.017669 46.879448 
Q 498.242607 46.579531 498.373821 45.979697 
Q 498.505034 45.379862 498.523779 44.967476 
Q 498.542524 44.55509 498.542524 43.805297 
Q 498.542524 42.718097 497.642772 42.043283 
Q 496.743021 41.368469 495.449628 41.031062 
Q 494.156234 40.693655 492.862841 40.300014 
Q 491.569448 39.906372 490.669697 38.987876 
Q 489.769945 38.069379 489.769945 36.607283 
Q 489.769945 36.082428 489.938648 35.726276 
Q 490.107352 35.370124 490.500993 35.145186 
Q 490.894634 34.920248 491.175807 34.807779 
Q 491.456979 34.69531 492.113048 34.639076 
Q 492.769117 34.582841 492.956566 34.582841 
Q 493.144014 34.582841 493.818828 34.582841 
Q 495.018497 34.582841 495.599586 34.995228 
Q 496.180676 35.407614 496.499338 36.026193 
Q 496.818 36.644772 497.080428 36.832221 
" clip-path="url(#p4c8b22d7f8)" style="fill: none; stroke: #000000; stroke-linejoin: miter"/>
   </g>
  </g>
  <g id="axes_32"/>
  <g id="axes_33">
   <g id="patch_29">
    <path d="M 529.7616 35.032717 
Q 528.71189 34.582841 527.737159 34.69531 
Q 524.700497 35.032717 522.788524 36.701007 
Q 520.876552 38.369297 520.876552 41.330979 
Q 520.876552 43.917766 522.882248 45.6048 
Q 524.887945 47.291834 527.512221 47.291834 
Q 529.874069 47.291834 530.998759 45.361117 
Q 532.123448 43.4304 532.123448 40.881103 
Q 532.123448 39.643945 531.711062 38.706703 
Q 531.298676 37.769462 530.773821 37.300841 
Q 530.248966 36.832221 529.499172 36.119917 
Q 528.749379 35.407614 528.299503 34.69531 
L 527.062345 34.245434 
" clip-path="url(#pc7fef37c13)" style="fill: none; stroke: #000000; stroke-linejoin: miter"/>
   </g>
  </g>
  <g id="axes_34">
   <g id="patch_30">
    <path d="M 536.384141 38.85304 
L 536.812335 38.85304 
Q 537.63304 38.85304 538.596476 38.745991 
Q 539.559912 38.638943 540.719604 38.460529 
Q 541.879295 38.282115 542.485903 38.210749 
L 549.015859 35.427489 
M 548.694714 25.793128 
Q 548.409251 25.721762 547.374449 25.275727 
Q 546.339648 24.829692 545.697357 24.93674 
Q 545.055066 24.93674 544.537665 25.150837 
Q 544.020264 25.364934 543.681278 25.793128 
Q 543.342291 26.221322 543.07467 26.685198 
Q 542.807048 27.149075 542.664317 27.862731 
Q 542.521586 28.576388 542.414537 29.129471 
Q 542.307489 29.682555 542.289648 30.50326 
Q 542.271806 31.323965 542.253965 31.77 
Q 542.236123 32.216035 542.253965 32.965374 
Q 542.271806 33.714714 542.271806 33.928811 
Q 542.271806 36.605022 542.967621 41.850396 
Q 543.663436 47.095771 543.663436 49.771982 
Q 543.59207 50.057445 543.556388 50.681894 
Q 543.520705 51.306344 543.413656 51.805903 
Q 543.306608 52.305463 543.021145 52.555242 
" clip-path="url(#p9158ec2cee)" style="fill: none; stroke: #000000; stroke-linejoin: miter"/>
   </g>
  </g>
  <g id="axes_35"/>
  <g id="axes_36">
   <g id="patch_31">
    <path d="M 570.320069 39.868883 
L 570.320069 39.419007 
Q 570.320069 37.769462 572.063338 36.682262 
Q 573.806607 35.595062 575.493641 35.595062 
Q 577.705531 35.595062 579.073903 36.794731 
Q 580.442276 37.9944 580.442276 40.20629 
Q 580.442276 42.30571 578.624028 43.336676 
Q 576.805779 44.367641 574.59389 44.367641 
Q 573.919076 44.367641 573.412966 44.255172 
Q 572.906855 44.142703 572.288276 43.917766 
Q 571.669697 43.692828 571.219821 43.580359 
L 570.095131 42.568138 
M 569.757724 36.832221 
Q 570.2076 38.444276 570.470028 40.262524 
Q 570.732455 42.080772 570.78869 43.749062 
Q 570.844924 45.417352 570.882414 47.27309 
Q 570.919903 49.128828 570.882414 50.778372 
L 570.769945 57.863917 
" clip-path="url(#pd64b776ef9)" style="fill: none; stroke: #000000; stroke-linejoin: miter"/>
   </g>
  </g>
  <g id="axes_37">
   <g id="patch_32">
    <path d="M 585.057798 38.160826 
Q 588.030275 39.535596 592.749083 39.721376 
Q 594.272477 39.721376 594.959862 38.550963 
Q 595.647248 37.38055 595.647248 35.82 
Q 595.647248 35.299817 595.554358 34.909679 
Q 595.461468 34.519541 595.219954 34.296606 
Q 594.97844 34.07367 594.811239 33.943624 
Q 594.644037 33.813578 594.198165 33.757844 
Q 593.752294 33.70211 593.547936 33.683532 
Q 593.343578 33.664954 592.767661 33.683532 
Q 592.191743 33.70211 591.968807 33.70211 
Q 589.925229 33.70211 588.438991 35.578486 
Q 586.952752 37.454862 586.952752 39.609908 
Q 586.952752 42.619541 588.884862 44.570229 
Q 590.816972 46.520917 593.863761 46.520917 
Q 596.018807 46.818165 597.542202 44.29156 
" clip-path="url(#pa496892fbb)" style="fill: none; stroke: #000000; stroke-linejoin: miter"/>
   </g>
  </g>
  <g id="axes_38">
   <g id="patch_33">
    <path d="M 613.043923 36.441748 
Q 611.834968 35.094627 607.862687 35.094627 
Q 606.342857 35.094627 605.565672 35.146439 
Q 604.788486 35.198252 603.78678 35.440043 
Q 602.785075 35.681834 602.301493 36.182687 
Q 601.81791 36.683539 601.472495 37.616162 
Q 601.127079 38.548785 601.127079 39.964989 
Q 601.127079 42.037484 602.543284 43.280981 
Q 603.959488 44.524478 605.893817 44.524478 
Q 608.553518 44.524478 611.316844 38.721493 
Q 612.663966 35.854542 612.663966 35.82 
Q 613.009382 35.578209 613.043923 36.441748 
Q 613.043923 37.512537 613.458422 40.362217 
Q 613.872921 43.211898 613.872921 44.524478 
" clip-path="url(#p7336555b76)" style="fill: none; stroke: #000000; stroke-linejoin: miter"/>
   </g>
  </g>
  <g id="axes_39">
   <g id="patch_34">
    <path d="M 628.956735 34.365306 
Q 628.956735 34.365306 628.460816 34.365306 
Q 627.667347 34.365306 626.179592 34.067755 
Q 624.691837 33.770204 623.898367 33.770204 
Q 621.121224 33.770204 619.187143 35.224898 
Q 617.253061 36.679592 617.253061 39.423673 
Q 617.253061 40.94449 618.740816 42.399184 
Q 620.228571 43.853878 622.162653 44.663878 
Q 624.096735 45.473878 625.58449 45.473878 
Q 626.510204 45.473878 627.20449 45.110204 
Q 627.898776 44.746531 628.642653 44.118367 
Q 629.386531 43.490204 629.948571 43.192653 
L 630.146939 42.696735 
" clip-path="url(#p74d2ac46ba)" style="fill: none; stroke: #000000; stroke-linejoin: miter"/>
   </g>
  </g>
  <g id="axes_40">
   <g id="patch_35">
    <path d="M 633.657798 38.160826 
Q 636.630275 39.535596 641.349083 39.721376 
Q 642.872477 39.721376 643.559862 38.550963 
Q 644.247248 37.38055 644.247248 35.82 
Q 644.247248 35.299817 644.154358 34.909679 
Q 644.061468 34.519541 643.819954 34.296606 
Q 643.57844 34.07367 643.411239 33.943624 
Q 643.244037 33.813578 642.798165 33.757844 
Q 642.352294 33.70211 642.147936 33.683532 
Q 641.943578 33.664954 641.367661 33.683532 
Q 640.791743 33.70211 640.568807 33.70211 
Q 638.525229 33.70211 637.038991 35.578486 
Q 635.552752 37.454862 635.552752 39.609908 
Q 635.552752 42.619541 637.484862 44.570229 
Q 639.416972 46.520917 642.463761 46.520917 
Q 644.618807 46.818165 646.142202 44.29156 
" clip-path="url(#p01d7241a1d)" style="fill: none; stroke: #000000; stroke-linejoin: miter"/>
   </g>
  </g>
  <g id="axes_41"/>
  <g id="axes_42">
   <g id="patch_36">
    <path d="M 677.843923 36.441748 
Q 676.634968 35.094627 672.662687 35.094627 
Q 671.142857 35.094627 670.365672 35.146439 
Q 669.588486 35.198252 668.58678 35.440043 
Q 667.585075 35.681834 667.101493 36.182687 
Q 666.61791 36.683539 666.272495 37.616162 
Q 665.927079 38.548785 665.927079 39.964989 
Q 665.927079 42.037484 667.343284 43.280981 
Q 668.759488 44.524478 670.693817 44.524478 
Q 673.353518 44.524478 676.116844 38.721493 
Q 677.463966 35.854542 677.463966 35.82 
Q 677.809382 35.578209 677.843923 36.441748 
Q 677.843923 37.512537 678.258422 40.362217 
Q 678.672921 43.211898 678.672921 44.524478 
" clip-path="url(#pedf49a09ca)" style="fill: none; stroke: #000000; stroke-linejoin: miter"/>
   </g>
  </g>
  <g id="axes_43">
   <g id="patch_37">
    <path d="M 684.038731 37.282097 
L 684.038731 37.844441 
Q 684.301159 39.868883 684.338648 41.312234 
Q 684.376138 42.755586 684.282414 44.667559 
Q 684.18869 46.579531 684.18869 48.191586 
L 684.263669 39.643945 
Q 684.263669 38.144359 685.856979 37.507034 
Q 687.45029 36.86971 688.874897 37.282097 
Q 690.786869 37.844441 691.705366 39.04411 
Q 692.623862 40.243779 692.680097 41.668386 
Q 692.736331 43.092993 692.773821 44.817517 
Q 692.81131 46.542041 692.961269 48.191586 
" clip-path="url(#p488cf874ef)" style="fill: none; stroke: #000000; stroke-linejoin: miter"/>
   </g>
  </g>
  <g id="axes_44">
   <g id="patch_38">
    <path d="M 708.299007 39.568966 
Q 706.949379 38.181848 704.7 38.444276 
Q 701.850786 38.444276 700.688607 39.793903 
Q 699.526428 41.143531 699.526428 44.067724 
Q 699.526428 45.56731 700.819821 46.279614 
Q 702.113214 46.991917 703.687779 46.991917 
Q 704.999917 46.991917 706.012138 45.736014 
Q 707.024359 44.48011 707.605448 42.30571 
Q 708.186538 40.13131 708.561434 37.938166 
Q 708.936331 35.745021 709.08629 33.045766 
Q 709.236248 30.34651 709.273738 28.978138 
Q 709.311228 27.609766 709.311228 26.185159 
Q 709.08629 26.260138 709.08629 29.896634 
L 709.08629 44.292662 
L 709.873572 48.229076 
" clip-path="url(#p19c10e4dae)" style="fill: none; stroke: #000000; stroke-linejoin: miter"/>
   </g>
  </g>
  <g id="axes_45"/>
 </g>
 <defs>
  <clipPath id="p09904f5168">
   <rect x="0" y="10.936525" width="16.2" height="49.766949"/>
  </clipPath>
  <clipPath id="p86f6b9775b">
   <rect x="16.802069" y="8.64" width="14.995862" height="54.36"/>
  </clipPath>
  <clipPath id="p2ad7d49ea1">
   <rect x="34.164248" y="8.64" width="12.671503" height="54.36"/>
  </clipPath>
  <clipPath id="p0daead850b">
   <rect x="49.651945" y="8.64" width="14.09611" height="54.36"/>
  </clipPath>
  <clipPath id="p07094d7972">
   <rect x="64.8" y="8.881927" width="16.2" height="53.876147"/>
  </clipPath>
  <clipPath id="p1ba0f0f495">
   <rect x="83.738979" y="8.64" width="10.722041" height="54.36"/>
  </clipPath>
  <clipPath id="p3731b57a1c">
   <rect x="97.2" y="9.949956" width="16.2" height="51.740088"/>
  </clipPath>
  <clipPath id="pa0a1f71ea3">
   <rect x="114.789352" y="8.64" width="13.421297" height="54.36"/>
  </clipPath>
  <clipPath id="pff4caf0c4e">
   <rect x="135.431876" y="8.64" width="4.536248" height="54.36"/>
  </clipPath>
  <clipPath id="p1f3bdcab8e">
   <rect x="163.051945" y="8.64" width="14.09611" height="54.36"/>
  </clipPath>
  <clipPath id="p21ab59f142">
   <rect x="178.2" y="10.777356" width="16.2" height="50.085288"/>
  </clipPath>
  <clipPath id="p0c915c7490">
   <rect x="195.451945" y="8.64" width="14.09611" height="54.36"/>
  </clipPath>
  <clipPath id="p5f5c9dac36">
   <rect x="216.000745" y="8.64" width="5.39851" height="54.36"/>
  </clipPath>
  <clipPath id="pe7ef589a79">
   <rect x="243" y="9.949956" width="16.2" height="51.740088"/>
  </clipPath>
  <clipPath id="p2b0b85dded">
   <rect x="264.806938" y="8.64" width="4.986124" height="54.36"/>
  </clipPath>
  <clipPath id="pe080aa7267">
   <rect x="281.231876" y="8.64" width="4.536248" height="54.36"/>
  </clipPath>
  <clipPath id="p5862661f66">
   <rect x="297.431876" y="8.64" width="4.536248" height="54.36"/>
  </clipPath>
  <clipPath id="p7605483f6c">
   <rect x="307.8" y="8.881927" width="16.2" height="53.876147"/>
  </clipPath>
  <clipPath id="p63705f74e4">
   <rect x="325.051945" y="8.64" width="14.09611" height="54.36"/>
  </clipPath>
  <clipPath id="p6947dd5934">
   <rect x="356.4" y="10.936525" width="16.2" height="49.766949"/>
  </clipPath>
  <clipPath id="pc738fb20db">
   <rect x="378.206938" y="8.64" width="4.986124" height="54.36"/>
  </clipPath>
  <clipPath id="p031bb80e5c">
   <rect x="390.189352" y="8.64" width="13.421297" height="54.36"/>
  </clipPath>
  <clipPath id="pae2f6e1b39">
   <rect x="407.738979" y="8.64" width="10.722041" height="54.36"/>
  </clipPath>
  <clipPath id="pf3b7149fdb">
   <rect x="443.231876" y="8.64" width="4.536248" height="54.36"/>
  </clipPath>
  <clipPath id="p418d37f1b9">
   <rect x="454.202069" y="8.64" width="14.995862" height="54.36"/>
  </clipPath>
  <clipPath id="p26228afb85">
   <rect x="471.189352" y="8.64" width="13.421297" height="54.36"/>
  </clipPath>
  <clipPath id="p4c8b22d7f8">
   <rect x="487.782993" y="8.64" width="12.634014" height="54.36"/>
  </clipPath>
  <clipPath id="pc7fef37c13">
   <rect x="519.002069" y="8.64" width="14.995862" height="54.36"/>
  </clipPath>
  <clipPath id="p9158ec2cee">
   <rect x="534.6" y="9.949956" width="16.2" height="51.740088"/>
  </clipPath>
  <clipPath id="pd64b776ef9">
   <rect x="567.883241" y="8.64" width="14.433517" height="54.36"/>
  </clipPath>
  <clipPath id="pa496892fbb">
   <rect x="583.2" y="8.881927" width="16.2" height="53.876147"/>
  </clipPath>
  <clipPath id="p7336555b76">
   <rect x="599.4" y="10.777356" width="16.2" height="50.085288"/>
  </clipPath>
  <clipPath id="p74d2ac46ba">
   <rect x="615.6" y="11.850612" width="16.2" height="47.938776"/>
  </clipPath>
  <clipPath id="p01d7241a1d">
   <rect x="631.8" y="8.881927" width="16.2" height="53.876147"/>
  </clipPath>
  <clipPath id="pedf49a09ca">
   <rect x="664.2" y="10.777356" width="16.2" height="50.085288"/>
  </clipPath>
  <clipPath id="p488cf874ef">
   <rect x="682.164248" y="8.64" width="12.671503" height="54.36"/>
  </clipPath>
  <clipPath id="p19c10e4dae">
   <rect x="697.651945" y="8.64" width="14.09611" height="54.36"/>
  </clipPath>
 </defs>
</svg>
