<?xml version="1.0" encoding="utf-8" standalone="no"?>
<!DOCTYPE svg PUBLIC "-//W3C//DTD SVG 1.1//EN"
  "http://www.w3.org/Graphics/SVG/1.1/DTD/svg11.dtd">
<svg xmlns:xlink="http://www.w3.org/1999/xlink" width="828pt" height="72pt" viewBox="0 0 828 72" xmlns="http://www.w3.org/2000/svg" version="1.1">
 <metadata>
  <rdf:RDF xmlns:dc="http://purl.org/dc/elements/1.1/" xmlns:cc="http://creativecommons.org/ns#" xmlns:rdf="http://www.w3.org/1999/02/22-rdf-syntax-ns#">
   <cc:Work>
    <dc:type rdf:resource="http://purl.org/dc/dcmitype/StillImage"/>
    <dc:date>2024-01-05T17:49:41.098683</dc:date>
    <dc:format>image/svg+xml</dc:format>
    <dc:creator>
     <cc:Agent>
      <dc:title>Matplotlib v3.7.1, https://matplotlib.org/</dc:title>
     </cc:Agent>
    </dc:creator>
   </cc:Work>
  </rdf:RDF>
 </metadata>
 <defs>
  <style type="text/css">*{stroke-linejoin: round; stroke-linecap: butt}</style>
 </defs>
 <g id="figure_1">
  <g id="patch_1">
   <path d="M 0 72 
L 828 72 
L 828 0 
L 0 0 
z
" style="fill: #8fff9f"/>
  </g>
  <g id="axes_1">
   <g id="patch_2">
    <path d="M 7.706359 28.621986 
Q 7.931297 30.34651 8.006276 32.146014 
Q 8.081255 33.945517 8.06251 36.551048 
Q 8.043766 39.156579 8.043766 40.093821 
Q 8.043766 40.13131 8.268703 45.829738 
L 8.493641 46.841959 
" clip-path="url(#p75885c4bbe)" style="fill: none; stroke: #000000; stroke-linejoin: miter"/>
   </g>
  </g>
  <g id="axes_2">
   <g id="patch_3">
    <path d="M 29.843923 36.441748 
Q 28.634968 35.094627 24.662687 35.094627 
Q 23.142857 35.094627 22.365672 35.146439 
Q 21.588486 35.198252 20.58678 35.440043 
Q 19.585075 35.681834 19.101493 36.182687 
Q 18.61791 36.683539 18.272495 37.616162 
Q 17.927079 38.548785 17.927079 39.964989 
Q 17.927079 42.037484 19.343284 43.280981 
Q 20.759488 44.524478 22.693817 44.524478 
Q 25.353518 44.524478 28.116844 38.721493 
Q 29.463966 35.854542 29.463966 35.82 
Q 29.809382 35.578209 29.843923 36.441748 
Q 29.843923 37.512537 30.258422 40.362217 
Q 30.672921 43.211898 30.672921 44.524478 
" clip-path="url(#pe093ab150f)" style="fill: none; stroke: #000000; stroke-linejoin: miter"/>
   </g>
  </g>
  <g id="axes_3">
   <g id="patch_4">
    <path d="M 44.099007 39.568966 
Q 42.749379 38.181848 40.5 38.444276 
Q 37.650786 38.444276 36.488607 39.793903 
Q 35.326428 41.143531 35.326428 44.067724 
Q 35.326428 45.56731 36.619821 46.279614 
Q 37.913214 46.991917 39.487779 46.991917 
Q 40.799917 46.991917 41.812138 45.736014 
Q 42.824359 44.48011 43.405448 42.30571 
Q 43.986538 40.13131 44.361434 37.938166 
Q 44.736331 35.745021 44.88629 33.045766 
Q 45.036248 30.34651 45.073738 28.978138 
Q 45.111228 27.609766 45.111228 26.185159 
Q 44.88629 26.260138 44.88629 29.896634 
L 44.88629 44.292662 
L 45.673572 48.229076 
" clip-path="url(#p9814b2af01)" style="fill: none; stroke: #000000; stroke-linejoin: miter"/>
   </g>
  </g>
  <g id="axes_4">
   <g id="patch_5">
    <path d="M 51.563917 36.382345 
Q 51.526428 36.494814 51.657641 36.701007 
Q 51.788855 36.9072 51.676386 37.057159 
L 51.676386 39.306538 
Q 51.676386 40.506207 52.013793 41.724621 
Q 52.3512 42.943034 53.213462 43.93651 
Q 54.075724 44.929986 55.275393 44.929986 
Q 56.512552 44.929986 57.187366 43.861531 
Q 57.862179 42.793076 58.312055 41.143531 
Q 58.761931 39.493986 59.099338 38.969131 
L 59.886621 36.382345 
L 59.661683 42.680607 
L 59.661683 45.154924 
Q 59.661683 47.066897 60.392731 51.00331 
Q 61.123779 54.939724 61.123779 56.964166 
Q 61.873572 59.213545 60.786372 60.188276 
Q 59.699172 61.163007 57.637241 60.78811 
Q 55.837738 60.488193 54.919241 60.169531 
Q 54.000745 59.850869 52.013793 58.988607 
L 51.901324 58.426262 
" clip-path="url(#pa4119e23dc)" style="fill: none; stroke: #000000; stroke-linejoin: miter"/>
   </g>
  </g>
  <g id="axes_5">
   <g id="patch_6">
    <path d="M 72.787531 45.979697 
Q 72.750041 46.017186 72.618828 46.054676 
Q 72.487614 46.092166 72.525103 46.167145 
Q 72.525103 46.579531 72.9 46.579531 
Q 73.237407 46.579531 73.237407 46.092166 
Q 73.312386 45.867228 73.031214 45.754759 
Q 72.750041 45.64229 72.562593 45.754759 
" clip-path="url(#p5ccb9efb4c)" style="fill: none; stroke: #000000; stroke-linejoin: miter"/>
   </g>
  </g>
  <g id="axes_6"/>
  <g id="axes_7">
   <g id="patch_7">
    <path d="M 98.649016 45.151664 
L 98.909839 29.50229 
L 98.909839 28.893703 
Q 98.909839 28.66186 99.01127 28.299606 
Q 99.112701 27.937352 99.257603 27.937352 
Q 100.155993 27.937352 101.039893 29.270447 
Q 101.923792 30.603542 102.459928 32.19746 
Q 102.996064 33.791377 103.5322 35.124472 
Q 104.068336 36.457567 104.38712 36.457567 
Q 104.879785 36.457567 105.560823 35.023041 
Q 106.24186 33.588515 106.835957 31.849696 
Q 107.430054 30.110877 108.241503 28.676351 
Q 109.052952 27.241825 109.77746 27.241825 
Q 110.472987 27.241825 110.922182 30.632522 
Q 111.371377 34.02322 111.58873 38.50068 
Q 111.806082 42.97814 111.864043 43.325903 
L 111.950984 46.108014 
" clip-path="url(#pc067f30cb1)" style="fill: none; stroke: #000000; stroke-linejoin: miter"/>
   </g>
  </g>
  <g id="axes_8">
   <g id="patch_8">
    <path d="M 127.043923 36.441748 
Q 125.834968 35.094627 121.862687 35.094627 
Q 120.342857 35.094627 119.565672 35.146439 
Q 118.788486 35.198252 117.78678 35.440043 
Q 116.785075 35.681834 116.301493 36.182687 
Q 115.81791 36.683539 115.472495 37.616162 
Q 115.127079 38.548785 115.127079 39.964989 
Q 115.127079 42.037484 116.543284 43.280981 
Q 117.959488 44.524478 119.893817 44.524478 
Q 122.553518 44.524478 125.316844 38.721493 
Q 126.663966 35.854542 126.663966 35.82 
Q 127.009382 35.578209 127.043923 36.441748 
Q 127.043923 37.512537 127.458422 40.362217 
Q 127.872921 43.211898 127.872921 44.524478 
" clip-path="url(#pc5d85a456c)" style="fill: none; stroke: #000000; stroke-linejoin: miter"/>
   </g>
  </g>
  <g id="axes_9">
   <g id="patch_9">
    <path d="M 132.563917 36.382345 
Q 132.526428 36.494814 132.657641 36.701007 
Q 132.788855 36.9072 132.676386 37.057159 
L 132.676386 39.306538 
Q 132.676386 40.506207 133.013793 41.724621 
Q 133.3512 42.943034 134.213462 43.93651 
Q 135.075724 44.929986 136.275393 44.929986 
Q 137.512552 44.929986 138.187366 43.861531 
Q 138.862179 42.793076 139.312055 41.143531 
Q 139.761931 39.493986 140.099338 38.969131 
L 140.886621 36.382345 
L 140.661683 42.680607 
L 140.661683 45.154924 
Q 140.661683 47.066897 141.392731 51.00331 
Q 142.123779 54.939724 142.123779 56.964166 
Q 142.873572 59.213545 141.786372 60.188276 
Q 140.699172 61.163007 138.637241 60.78811 
Q 136.837738 60.488193 135.919241 60.169531 
Q 135.000745 59.850869 133.013793 58.988607 
L 132.901324 58.426262 
" clip-path="url(#pc1e086624b)" style="fill: none; stroke: #000000; stroke-linejoin: miter"/>
   </g>
  </g>
  <g id="axes_10">
   <g id="patch_10">
    <path d="M 150.357228 37.244607 
Q 151.406938 37.207117 151.594386 37.132138 
Q 155.005945 37.132138 156.786703 39.212814 
Q 158.567462 41.29349 158.567462 44.780028 
Q 158.567462 47.704221 153.956234 47.704221 
Q 153.31891 47.704221 152.77531 47.591752 
Q 152.23171 47.479283 151.594386 47.254345 
Q 150.957062 47.029407 150.469697 46.916938 
L 149.232538 45.679779 
M 150.244759 25.435366 
L 150.244759 26.560055 
Q 150.244759 29.409269 150.357228 33.008276 
Q 150.469697 36.607283 150.657145 40.899848 
Q 150.844593 45.192414 150.919572 47.141876 
" clip-path="url(#pbd82380bfb)" style="fill: none; stroke: #000000; stroke-linejoin: miter"/>
   </g>
  </g>
  <g id="axes_11">
   <g id="patch_11">
    <path d="M 163.857798 38.160826 
Q 166.830275 39.535596 171.549083 39.721376 
Q 173.072477 39.721376 173.759862 38.550963 
Q 174.447248 37.38055 174.447248 35.82 
Q 174.447248 35.299817 174.354358 34.909679 
Q 174.261468 34.519541 174.019954 34.296606 
Q 173.77844 34.07367 173.611239 33.943624 
Q 173.444037 33.813578 172.998165 33.757844 
Q 172.552294 33.70211 172.347936 33.683532 
Q 172.143578 33.664954 171.567661 33.683532 
Q 170.991743 33.70211 170.768807 33.70211 
Q 168.725229 33.70211 167.238991 35.578486 
Q 165.752752 37.454862 165.752752 39.609908 
Q 165.752752 42.619541 167.684862 44.570229 
Q 169.616972 46.520917 172.663761 46.520917 
Q 174.818807 46.818165 176.342202 44.29156 
" clip-path="url(#p4ba61b7b80)" style="fill: none; stroke: #000000; stroke-linejoin: miter"/>
   </g>
  </g>
  <g id="axes_12"/>
  <g id="axes_13">
   <g id="patch_12">
    <path d="M 202.106359 28.621986 
Q 202.331297 30.34651 202.406276 32.146014 
Q 202.481255 33.945517 202.46251 36.551048 
Q 202.443766 39.156579 202.443766 40.093821 
Q 202.443766 40.13131 202.668703 45.829738 
L 202.893641 46.841959 
" clip-path="url(#p46022a9715)" style="fill: none; stroke: #000000; stroke-linejoin: miter"/>
   </g>
  </g>
  <g id="axes_14">
   <g id="patch_13">
    <path d="M 219.318579 29.071862 
Q 218.943683 29.146841 218.812469 29.577972 
Q 218.681255 30.009103 218.756234 30.42149 
Q 218.756234 30.571448 218.793724 30.702662 
Q 218.831214 30.833876 218.887448 30.89011 
Q 218.943683 30.946345 218.999917 31.040069 
Q 219.056152 31.133793 219.093641 31.208772 
L 219.20611 29.859145 
M 219.20611 34.020497 
Q 218.306359 39.006621 218.081421 42.793076 
L 218.531297 45.379862 
L 218.868703 46.054676 
" clip-path="url(#p478d3cca1b)" style="fill: none; stroke: #000000; stroke-linejoin: miter"/>
   </g>
  </g>
  <g id="axes_15">
   <g id="patch_14">
    <path d="M 232.931793 37.169628 
Q 234.956234 39.194069 236.718248 41.76211 
Q 238.480262 44.330152 239.342524 46.72949 
M 235.968455 31.321241 
L 235.968455 31.546179 
Q 235.968455 32.333462 235.331131 33.514386 
Q 234.693807 34.69531 233.719076 36.101172 
Q 232.744345 37.507034 232.481917 37.95691 
L 231.244759 39.643945 
M 230.457476 26.710014 
Q 232.294469 36.269876 232.481917 48.641462 
" clip-path="url(#pc0564a49eb)" style="fill: none; stroke: #000000; stroke-linejoin: miter"/>
   </g>
  </g>
  <g id="axes_16">
   <g id="patch_15">
    <path d="M 244.857798 38.160826 
Q 247.830275 39.535596 252.549083 39.721376 
Q 254.072477 39.721376 254.759862 38.550963 
Q 255.447248 37.38055 255.447248 35.82 
Q 255.447248 35.299817 255.354358 34.909679 
Q 255.261468 34.519541 255.019954 34.296606 
Q 254.77844 34.07367 254.611239 33.943624 
Q 254.444037 33.813578 253.998165 33.757844 
Q 253.552294 33.70211 253.347936 33.683532 
Q 253.143578 33.664954 252.567661 33.683532 
Q 251.991743 33.70211 251.768807 33.70211 
Q 249.725229 33.70211 248.238991 35.578486 
Q 246.752752 37.454862 246.752752 39.609908 
Q 246.752752 42.619541 248.684862 44.570229 
Q 250.616972 46.520917 253.663761 46.520917 
Q 255.818807 46.818165 257.342202 44.29156 
" clip-path="url(#pff55ca6996)" style="fill: none; stroke: #000000; stroke-linejoin: miter"/>
   </g>
  </g>
  <g id="axes_17"/>
  <g id="axes_18">
   <g id="patch_16">
    <path d="M 289.043923 36.441748 
Q 287.834968 35.094627 283.862687 35.094627 
Q 282.342857 35.094627 281.565672 35.146439 
Q 280.788486 35.198252 279.78678 35.440043 
Q 278.785075 35.681834 278.301493 36.182687 
Q 277.81791 36.683539 277.472495 37.616162 
Q 277.127079 38.548785 277.127079 39.964989 
Q 277.127079 42.037484 278.543284 43.280981 
Q 279.959488 44.524478 281.893817 44.524478 
Q 284.553518 44.524478 287.316844 38.721493 
Q 288.663966 35.854542 288.663966 35.82 
Q 289.009382 35.578209 289.043923 36.441748 
Q 289.043923 37.512537 289.458422 40.362217 
Q 289.872921 43.211898 289.872921 44.524478 
" clip-path="url(#p41a3667241)" style="fill: none; stroke: #000000; stroke-linejoin: miter"/>
   </g>
  </g>
  <g id="axes_19">
   <g id="patch_17">
    <path d="M 295.238731 37.282097 
L 295.238731 37.844441 
Q 295.501159 39.868883 295.538648 41.312234 
Q 295.576138 42.755586 295.482414 44.667559 
Q 295.38869 46.579531 295.38869 48.191586 
L 295.463669 39.643945 
Q 295.463669 38.144359 297.056979 37.507034 
Q 298.65029 36.86971 300.074897 37.282097 
Q 301.986869 37.844441 302.905366 39.04411 
Q 303.823862 40.243779 303.880097 41.668386 
Q 303.936331 43.092993 303.973821 44.817517 
Q 304.01131 46.542041 304.161269 48.191586 
" clip-path="url(#p2c0ce1ad3a)" style="fill: none; stroke: #000000; stroke-linejoin: miter"/>
   </g>
  </g>
  <g id="axes_20"/>
  <g id="axes_21">
   <g id="patch_18">
    <path d="M 337.643923 36.441748 
Q 336.434968 35.094627 332.462687 35.094627 
Q 330.942857 35.094627 330.165672 35.146439 
Q 329.388486 35.198252 328.38678 35.440043 
Q 327.385075 35.681834 326.901493 36.182687 
Q 326.41791 36.683539 326.072495 37.616162 
Q 325.727079 38.548785 325.727079 39.964989 
Q 325.727079 42.037484 327.143284 43.280981 
Q 328.559488 44.524478 330.493817 44.524478 
Q 333.153518 44.524478 335.916844 38.721493 
Q 337.263966 35.854542 337.263966 35.82 
Q 337.609382 35.578209 337.643923 36.441748 
Q 337.643923 37.512537 338.058422 40.362217 
Q 338.472921 43.211898 338.472921 44.524478 
" clip-path="url(#p66d641948b)" style="fill: none; stroke: #000000; stroke-linejoin: miter"/>
   </g>
  </g>
  <g id="axes_22">
   <g id="patch_19">
    <path d="M 351.899007 39.568966 
Q 350.549379 38.181848 348.3 38.444276 
Q 345.450786 38.444276 344.288607 39.793903 
Q 343.126428 41.143531 343.126428 44.067724 
Q 343.126428 45.56731 344.419821 46.279614 
Q 345.713214 46.991917 347.287779 46.991917 
Q 348.599917 46.991917 349.612138 45.736014 
Q 350.624359 44.48011 351.205448 42.30571 
Q 351.786538 40.13131 352.161434 37.938166 
Q 352.536331 35.745021 352.68629 33.045766 
Q 352.836248 30.34651 352.873738 28.978138 
Q 352.911228 27.609766 352.911228 26.185159 
Q 352.68629 26.260138 352.68629 29.896634 
L 352.68629 44.292662 
L 353.473572 48.229076 
" clip-path="url(#pa928edd93d)" style="fill: none; stroke: #000000; stroke-linejoin: miter"/>
   </g>
  </g>
  <g id="axes_23">
   <g id="patch_20">
    <path d="M 360.226179 34.807779 
Q 361.838234 36.719752 363.131628 39.6252 
Q 364.425021 42.530648 364.724938 45.154924 
Q 365.774648 43.655338 366.693145 38.819172 
Q 367.611641 33.983007 368.773821 32.108524 
" clip-path="url(#p420e709d3d)" style="fill: none; stroke: #000000; stroke-linejoin: miter"/>
   </g>
  </g>
  <g id="axes_24">
   <g id="patch_21">
    <path d="M 374.457798 38.160826 
Q 377.430275 39.535596 382.149083 39.721376 
Q 383.672477 39.721376 384.359862 38.550963 
Q 385.047248 37.38055 385.047248 35.82 
Q 385.047248 35.299817 384.954358 34.909679 
Q 384.861468 34.519541 384.619954 34.296606 
Q 384.37844 34.07367 384.211239 33.943624 
Q 384.044037 33.813578 383.598165 33.757844 
Q 383.152294 33.70211 382.947936 33.683532 
Q 382.743578 33.664954 382.167661 33.683532 
Q 381.591743 33.70211 381.368807 33.70211 
Q 379.325229 33.70211 377.838991 35.578486 
Q 376.352752 37.454862 376.352752 39.609908 
Q 376.352752 42.619541 378.284862 44.570229 
Q 380.216972 46.520917 383.263761 46.520917 
Q 385.418807 46.818165 386.942202 44.29156 
" clip-path="url(#p5c8aa6e47a)" style="fill: none; stroke: #000000; stroke-linejoin: miter"/>
   </g>
  </g>
  <g id="axes_25">
   <g id="patch_22">
    <path d="M 392.438731 37.282097 
L 392.438731 37.844441 
Q 392.701159 39.868883 392.738648 41.312234 
Q 392.776138 42.755586 392.682414 44.667559 
Q 392.58869 46.579531 392.58869 48.191586 
L 392.663669 39.643945 
Q 392.663669 38.144359 394.256979 37.507034 
Q 395.85029 36.86971 397.274897 37.282097 
Q 399.186869 37.844441 400.105366 39.04411 
Q 401.023862 40.243779 401.080097 41.668386 
Q 401.136331 43.092993 401.173821 44.817517 
Q 401.21131 46.542041 401.361269 48.191586 
" clip-path="url(#pbe81177d68)" style="fill: none; stroke: #000000; stroke-linejoin: miter"/>
   </g>
  </g>
  <g id="axes_26">
   <g id="patch_23">
    <path d="M 408.263834 37.95691 
L 408.938648 37.95691 
Q 409.650952 37.95691 410.438234 37.881931 
Q 411.225517 37.806952 412.181503 37.675738 
Q 413.13749 37.544524 413.662345 37.507034 
L 417.936166 35.82 
M 413.887283 30.42149 
L 413.887283 31.43371 
Q 413.887283 33.383172 413.212469 37.207117 
Q 412.537655 41.031062 412.537655 43.018014 
Q 412.537655 43.805297 412.537655 44.105214 
Q 412.537655 44.405131 412.631379 45.042455 
Q 412.725103 45.679779 412.912552 45.960952 
Q 413.1 46.242124 413.493641 46.485807 
Q 413.887283 46.72949 414.449628 46.72949 
Q 414.562097 46.692 414.880759 46.72949 
Q 415.199421 46.766979 415.386869 46.710745 
Q 415.574317 46.65451 415.574317 46.392083 
" clip-path="url(#p01068f9c7a)" style="fill: none; stroke: #000000; stroke-linejoin: miter"/>
   </g>
  </g>
  <g id="axes_27">
   <g id="patch_24">
    <path d="M 424.688772 35.145186 
Q 424.688772 35.145186 424.688772 35.595062 
Q 424.688772 36.269876 424.576303 37.619503 
Q 424.463834 38.969131 424.463834 39.643945 
Q 424.463834 41.930814 425.700993 43.599103 
Q 426.938152 45.267393 429.075062 45.267393 
Q 430.462179 45.154924 431.230717 43.917766 
Q 431.999255 42.680607 432.149214 41.237255 
Q 432.299172 39.793903 432.5616 37.9944 
Q 432.824028 36.194897 433.236414 35.370124 
Q 433.386372 35.070207 433.386372 35.670041 
Q 433.386372 36.269876 433.123945 38.706703 
Q 432.899007 41.031062 432.899007 41.555917 
Q 432.749048 42.643117 433.086455 43.767807 
Q 433.423862 44.892497 434.136166 45.6048 
" clip-path="url(#p157b9e83e5)" style="fill: none; stroke: #000000; stroke-linejoin: miter"/>
   </g>
  </g>
  <g id="axes_28">
   <g id="patch_25">
    <path d="M 442.013462 32.783338 
Q 442.538317 34.507862 442.669531 36.457324 
Q 442.800745 38.406786 442.725766 40.956083 
Q 442.650786 43.505379 442.688276 44.705048 
L 442.800745 46.054676 
L 442.800745 45.829738 
Q 442.800745 44.667559 442.519572 42.30571 
Q 442.2384 39.943862 442.2384 38.744193 
Q 442.2384 36.419834 443.250621 34.882759 
Q 444.262841 33.345683 446.287283 33.345683 
Q 446.999586 33.345683 447.336993 33.626855 
Q 447.6744 33.908028 447.936828 34.432883 
Q 448.199255 34.957738 448.536662 35.257655 
L 448.986538 36.832221 
" clip-path="url(#p90705ae8a5)" style="fill: none; stroke: #000000; stroke-linejoin: miter"/>
   </g>
  </g>
  <g id="axes_29">
   <g id="patch_26">
    <path d="M 455.457798 38.160826 
Q 458.430275 39.535596 463.149083 39.721376 
Q 464.672477 39.721376 465.359862 38.550963 
Q 466.047248 37.38055 466.047248 35.82 
Q 466.047248 35.299817 465.954358 34.909679 
Q 465.861468 34.519541 465.619954 34.296606 
Q 465.37844 34.07367 465.211239 33.943624 
Q 465.044037 33.813578 464.598165 33.757844 
Q 464.152294 33.70211 463.947936 33.683532 
Q 463.743578 33.664954 463.167661 33.683532 
Q 462.591743 33.70211 462.368807 33.70211 
Q 460.325229 33.70211 458.838991 35.578486 
Q 457.352752 37.454862 457.352752 39.609908 
Q 457.352752 42.619541 459.284862 44.570229 
Q 461.216972 46.520917 464.263761 46.520917 
Q 466.418807 46.818165 467.942202 44.29156 
" clip-path="url(#p5047f2d404)" style="fill: none; stroke: #000000; stroke-linejoin: miter"/>
   </g>
  </g>
  <g id="axes_30"/>
  <g id="axes_31">
   <g id="patch_27">
    <path d="M 489.657476 43.917766 
Q 489.957393 44.180193 490.969614 45.154924 
Q 491.981834 46.129655 492.544179 46.560786 
Q 493.106524 46.991917 494.13749 47.385559 
Q 495.168455 47.7792 496.180676 47.629241 
Q 496.85549 47.629241 497.32411 47.404303 
Q 497.792731 47.179366 498.017669 46.879448 
Q 498.242607 46.579531 498.373821 45.979697 
Q 498.505034 45.379862 498.523779 44.967476 
Q 498.542524 44.55509 498.542524 43.805297 
Q 498.542524 42.718097 497.642772 42.043283 
Q 496.743021 41.368469 495.449628 41.031062 
Q 494.156234 40.693655 492.862841 40.300014 
Q 491.569448 39.906372 490.669697 38.987876 
Q 489.769945 38.069379 489.769945 36.607283 
Q 489.769945 36.082428 489.938648 35.726276 
Q 490.107352 35.370124 490.500993 35.145186 
Q 490.894634 34.920248 491.175807 34.807779 
Q 491.456979 34.69531 492.113048 34.639076 
Q 492.769117 34.582841 492.956566 34.582841 
Q 493.144014 34.582841 493.818828 34.582841 
Q 495.018497 34.582841 495.599586 34.995228 
Q 496.180676 35.407614 496.499338 36.026193 
Q 496.818 36.644772 497.080428 36.832221 
" clip-path="url(#p724a46f87c)" style="fill: none; stroke: #000000; stroke-linejoin: miter"/>
   </g>
  </g>
  <g id="axes_32">
   <g id="patch_28">
    <path d="M 505.463834 37.95691 
L 506.138648 37.95691 
Q 506.850952 37.95691 507.638234 37.881931 
Q 508.425517 37.806952 509.381503 37.675738 
Q 510.33749 37.544524 510.862345 37.507034 
L 515.136166 35.82 
M 511.087283 30.42149 
L 511.087283 31.43371 
Q 511.087283 33.383172 510.412469 37.207117 
Q 509.737655 41.031062 509.737655 43.018014 
Q 509.737655 43.805297 509.737655 44.105214 
Q 509.737655 44.405131 509.831379 45.042455 
Q 509.925103 45.679779 510.112552 45.960952 
Q 510.3 46.242124 510.693641 46.485807 
Q 511.087283 46.72949 511.649628 46.72949 
Q 511.762097 46.692 512.080759 46.72949 
Q 512.399421 46.766979 512.586869 46.710745 
Q 512.774317 46.65451 512.774317 46.392083 
" clip-path="url(#pe1334fc0ae)" style="fill: none; stroke: #000000; stroke-linejoin: miter"/>
   </g>
  </g>
  <g id="axes_33">
   <g id="patch_29">
    <path d="M 529.7616 35.032717 
Q 528.71189 34.582841 527.737159 34.69531 
Q 524.700497 35.032717 522.788524 36.701007 
Q 520.876552 38.369297 520.876552 41.330979 
Q 520.876552 43.917766 522.882248 45.6048 
Q 524.887945 47.291834 527.512221 47.291834 
Q 529.874069 47.291834 530.998759 45.361117 
Q 532.123448 43.4304 532.123448 40.881103 
Q 532.123448 39.643945 531.711062 38.706703 
Q 531.298676 37.769462 530.773821 37.300841 
Q 530.248966 36.832221 529.499172 36.119917 
Q 528.749379 35.407614 528.299503 34.69531 
L 527.062345 34.245434 
" clip-path="url(#p905d037eb0)" style="fill: none; stroke: #000000; stroke-linejoin: miter"/>
   </g>
  </g>
  <g id="axes_34">
   <g id="patch_30">
    <path d="M 539.213462 32.783338 
Q 539.738317 34.507862 539.869531 36.457324 
Q 540.000745 38.406786 539.925766 40.956083 
Q 539.850786 43.505379 539.888276 44.705048 
L 540.000745 46.054676 
L 540.000745 45.829738 
Q 540.000745 44.667559 539.719572 42.30571 
Q 539.4384 39.943862 539.4384 38.744193 
Q 539.4384 36.419834 540.450621 34.882759 
Q 541.462841 33.345683 543.487283 33.345683 
Q 544.199586 33.345683 544.536993 33.626855 
Q 544.8744 33.908028 545.136828 34.432883 
Q 545.399255 34.957738 545.736662 35.257655 
L 546.186538 36.832221 
" clip-path="url(#p8bdd59b2df)" style="fill: none; stroke: #000000; stroke-linejoin: miter"/>
   </g>
  </g>
  <g id="axes_35">
   <g id="patch_31">
    <path d="M 553.763917 36.382345 
Q 553.726428 36.494814 553.857641 36.701007 
Q 553.988855 36.9072 553.876386 37.057159 
L 553.876386 39.306538 
Q 553.876386 40.506207 554.213793 41.724621 
Q 554.5512 42.943034 555.413462 43.93651 
Q 556.275724 44.929986 557.475393 44.929986 
Q 558.712552 44.929986 559.387366 43.861531 
Q 560.062179 42.793076 560.512055 41.143531 
Q 560.961931 39.493986 561.299338 38.969131 
L 562.086621 36.382345 
L 561.861683 42.680607 
L 561.861683 45.154924 
Q 561.861683 47.066897 562.592731 51.00331 
Q 563.323779 54.939724 563.323779 56.964166 
Q 564.073572 59.213545 562.986372 60.188276 
Q 561.899172 61.163007 559.837241 60.78811 
Q 558.037738 60.488193 557.119241 60.169531 
Q 556.200745 59.850869 554.213793 58.988607 
L 554.101324 58.426262 
" clip-path="url(#p49bef45154)" style="fill: none; stroke: #000000; stroke-linejoin: miter"/>
   </g>
  </g>
  <g id="axes_36">
   <g id="patch_32">
    <path d="M 574.387697 39.981352 
Q 575.399917 40.956083 575.737324 42.905545 
Q 575.924772 43.955255 575.512386 46.167145 
L 574.275228 47.629241 
" clip-path="url(#p837b5334b5)" style="fill: none; stroke: #000000; stroke-linejoin: miter"/>
   </g>
  </g>
  <g id="axes_37"/>
  <g id="axes_38">
   <g id="patch_33">
    <path d="M 603.957228 37.244607 
Q 605.006938 37.207117 605.194386 37.132138 
Q 608.605945 37.132138 610.386703 39.212814 
Q 612.167462 41.29349 612.167462 44.780028 
Q 612.167462 47.704221 607.556234 47.704221 
Q 606.91891 47.704221 606.37531 47.591752 
Q 605.83171 47.479283 605.194386 47.254345 
Q 604.557062 47.029407 604.069697 46.916938 
L 602.832538 45.679779 
M 603.844759 25.435366 
L 603.844759 26.560055 
Q 603.844759 29.409269 603.957228 33.008276 
Q 604.069697 36.607283 604.257145 40.899848 
Q 604.444593 45.192414 604.519572 47.141876 
" clip-path="url(#p0187d5b29a)" style="fill: none; stroke: #000000; stroke-linejoin: miter"/>
   </g>
  </g>
  <g id="axes_39">
   <g id="patch_34">
    <path d="M 619.088772 35.145186 
Q 619.088772 35.145186 619.088772 35.595062 
Q 619.088772 36.269876 618.976303 37.619503 
Q 618.863834 38.969131 618.863834 39.643945 
Q 618.863834 41.930814 620.100993 43.599103 
Q 621.338152 45.267393 623.475062 45.267393 
Q 624.862179 45.154924 625.630717 43.917766 
Q 626.399255 42.680607 626.549214 41.237255 
Q 626.699172 39.793903 626.9616 37.9944 
Q 627.224028 36.194897 627.636414 35.370124 
Q 627.786372 35.070207 627.786372 35.670041 
Q 627.786372 36.269876 627.523945 38.706703 
Q 627.299007 41.031062 627.299007 41.555917 
Q 627.149048 42.643117 627.486455 43.767807 
Q 627.823862 44.892497 628.536166 45.6048 
" clip-path="url(#p2e538f9be5)" style="fill: none; stroke: #000000; stroke-linejoin: miter"/>
   </g>
  </g>
  <g id="axes_40">
   <g id="patch_35">
    <path d="M 635.063834 37.95691 
L 635.738648 37.95691 
Q 636.450952 37.95691 637.238234 37.881931 
Q 638.025517 37.806952 638.981503 37.675738 
Q 639.93749 37.544524 640.462345 37.507034 
L 644.736166 35.82 
M 640.687283 30.42149 
L 640.687283 31.43371 
Q 640.687283 33.383172 640.012469 37.207117 
Q 639.337655 41.031062 639.337655 43.018014 
Q 639.337655 43.805297 639.337655 44.105214 
Q 639.337655 44.405131 639.431379 45.042455 
Q 639.525103 45.679779 639.712552 45.960952 
Q 639.9 46.242124 640.293641 46.485807 
Q 640.687283 46.72949 641.249628 46.72949 
Q 641.362097 46.692 641.680759 46.72949 
Q 641.999421 46.766979 642.186869 46.710745 
Q 642.374317 46.65451 642.374317 46.392083 
" clip-path="url(#p4f2e50ff9f)" style="fill: none; stroke: #000000; stroke-linejoin: miter"/>
   </g>
  </g>
  <g id="axes_41"/>
  <g id="axes_42">
   <g id="patch_36">
    <path d="M 677.843923 36.441748 
Q 676.634968 35.094627 672.662687 35.094627 
Q 671.142857 35.094627 670.365672 35.146439 
Q 669.588486 35.198252 668.58678 35.440043 
Q 667.585075 35.681834 667.101493 36.182687 
Q 666.61791 36.683539 666.272495 37.616162 
Q 665.927079 38.548785 665.927079 39.964989 
Q 665.927079 42.037484 667.343284 43.280981 
Q 668.759488 44.524478 670.693817 44.524478 
Q 673.353518 44.524478 676.116844 38.721493 
Q 677.463966 35.854542 677.463966 35.82 
Q 677.809382 35.578209 677.843923 36.441748 
Q 677.843923 37.512537 678.258422 40.362217 
Q 678.672921 43.211898 678.672921 44.524478 
" clip-path="url(#p3a9a0bf63f)" style="fill: none; stroke: #000000; stroke-linejoin: miter"/>
   </g>
  </g>
  <g id="axes_43">
   <g id="patch_37">
    <path d="M 688.106359 28.621986 
Q 688.331297 30.34651 688.406276 32.146014 
Q 688.481255 33.945517 688.46251 36.551048 
Q 688.443766 39.156579 688.443766 40.093821 
Q 688.443766 40.13131 688.668703 45.829738 
L 688.893641 46.841959 
" clip-path="url(#pf0c0dcecd4)" style="fill: none; stroke: #000000; stroke-linejoin: miter"/>
   </g>
  </g>
  <g id="axes_44">
   <g id="patch_38">
    <path d="M 700.257476 43.917766 
Q 700.557393 44.180193 701.569614 45.154924 
Q 702.581834 46.129655 703.144179 46.560786 
Q 703.706524 46.991917 704.73749 47.385559 
Q 705.768455 47.7792 706.780676 47.629241 
Q 707.45549 47.629241 707.92411 47.404303 
Q 708.392731 47.179366 708.617669 46.879448 
Q 708.842607 46.579531 708.973821 45.979697 
Q 709.105034 45.379862 709.123779 44.967476 
Q 709.142524 44.55509 709.142524 43.805297 
Q 709.142524 42.718097 708.242772 42.043283 
Q 707.343021 41.368469 706.049628 41.031062 
Q 704.756234 40.693655 703.462841 40.300014 
Q 702.169448 39.906372 701.269697 38.987876 
Q 700.369945 38.069379 700.369945 36.607283 
Q 700.369945 36.082428 700.538648 35.726276 
Q 700.707352 35.370124 701.100993 35.145186 
Q 701.494634 34.920248 701.775807 34.807779 
Q 702.056979 34.69531 702.713048 34.639076 
Q 703.369117 34.582841 703.556566 34.582841 
Q 703.744014 34.582841 704.418828 34.582841 
Q 705.618497 34.582841 706.199586 34.995228 
Q 706.780676 35.407614 707.099338 36.026193 
Q 707.418 36.644772 707.680428 36.832221 
" clip-path="url(#pd2e8e4b16f)" style="fill: none; stroke: #000000; stroke-linejoin: miter"/>
   </g>
  </g>
  <g id="axes_45">
   <g id="patch_39">
    <path d="M 724.1616 35.032717 
Q 723.11189 34.582841 722.137159 34.69531 
Q 719.100497 35.032717 717.188524 36.701007 
Q 715.276552 38.369297 715.276552 41.330979 
Q 715.276552 43.917766 717.282248 45.6048 
Q 719.287945 47.291834 721.912221 47.291834 
Q 724.274069 47.291834 725.398759 45.361117 
Q 726.523448 43.4304 726.523448 40.881103 
Q 726.523448 39.643945 726.111062 38.706703 
Q 725.698676 37.769462 725.173821 37.300841 
Q 724.648966 36.832221 723.899172 36.119917 
Q 723.149379 35.407614 722.699503 34.69531 
L 721.462345 34.245434 
" clip-path="url(#pbe05b0c73f)" style="fill: none; stroke: #000000; stroke-linejoin: miter"/>
   </g>
  </g>
  <g id="axes_46"/>
 </g>
 <defs>
  <clipPath id="p75885c4bbe">
   <rect x="5.831876" y="8.64" width="4.536248" height="54.36"/>
  </clipPath>
  <clipPath id="pe093ab150f">
   <rect x="16.2" y="10.777356" width="16.2" height="50.085288"/>
  </clipPath>
  <clipPath id="p9814b2af01">
   <rect x="33.451945" y="8.64" width="14.09611" height="54.36"/>
  </clipPath>
  <clipPath id="pa4119e23dc">
   <rect x="49.651945" y="8.64" width="14.09611" height="54.36"/>
  </clipPath>
  <clipPath id="p5ccb9efb4c">
   <rect x="70.613131" y="8.64" width="4.573738" height="54.36"/>
  </clipPath>
  <clipPath id="pc067f30cb1">
   <rect x="97.2" y="14.809267" width="16.2" height="42.021467"/>
  </clipPath>
  <clipPath id="pc5d85a456c">
   <rect x="113.4" y="10.777356" width="16.2" height="50.085288"/>
  </clipPath>
  <clipPath id="pc1e086624b">
   <rect x="130.651945" y="8.64" width="14.09611" height="54.36"/>
  </clipPath>
  <clipPath id="pbd82380bfb">
   <rect x="147.358055" y="8.64" width="13.08389" height="54.36"/>
  </clipPath>
  <clipPath id="p4ba61b7b80">
   <rect x="162" y="8.881927" width="16.2" height="53.876147"/>
  </clipPath>
  <clipPath id="p46022a9715">
   <rect x="200.231876" y="8.64" width="4.536248" height="54.36"/>
  </clipPath>
  <clipPath id="p478d3cca1b">
   <rect x="216.206938" y="8.64" width="4.986124" height="54.36"/>
  </clipPath>
  <clipPath id="pc0564a49eb">
   <rect x="228.582993" y="8.64" width="12.634014" height="54.36"/>
  </clipPath>
  <clipPath id="pff55ca6996">
   <rect x="243" y="8.881927" width="16.2" height="53.876147"/>
  </clipPath>
  <clipPath id="p41a3667241">
   <rect x="275.4" y="10.777356" width="16.2" height="50.085288"/>
  </clipPath>
  <clipPath id="p2c0ce1ad3a">
   <rect x="293.364248" y="8.64" width="12.671503" height="54.36"/>
  </clipPath>
  <clipPath id="p66d641948b">
   <rect x="324" y="10.777356" width="16.2" height="50.085288"/>
  </clipPath>
  <clipPath id="pa928edd93d">
   <rect x="341.251945" y="8.64" width="14.09611" height="54.36"/>
  </clipPath>
  <clipPath id="p420e709d3d">
   <rect x="358.351697" y="8.64" width="12.296607" height="54.36"/>
  </clipPath>
  <clipPath id="p5c8aa6e47a">
   <rect x="372.6" y="8.881927" width="16.2" height="53.876147"/>
  </clipPath>
  <clipPath id="pbe81177d68">
   <rect x="390.564248" y="8.64" width="12.671503" height="54.36"/>
  </clipPath>
  <clipPath id="p01068f9c7a">
   <rect x="406.389352" y="8.64" width="13.421297" height="54.36"/>
  </clipPath>
  <clipPath id="p157b9e83e5">
   <rect x="422.589352" y="8.64" width="13.421297" height="54.36"/>
  </clipPath>
  <clipPath id="p90705ae8a5">
   <rect x="440.138979" y="8.64" width="10.722041" height="54.36"/>
  </clipPath>
  <clipPath id="p5047f2d404">
   <rect x="453.6" y="8.881927" width="16.2" height="53.876147"/>
  </clipPath>
  <clipPath id="p724a46f87c">
   <rect x="487.782993" y="8.64" width="12.634014" height="54.36"/>
  </clipPath>
  <clipPath id="pe1334fc0ae">
   <rect x="503.589352" y="8.64" width="13.421297" height="54.36"/>
  </clipPath>
  <clipPath id="p905d037eb0">
   <rect x="519.002069" y="8.64" width="14.995862" height="54.36"/>
  </clipPath>
  <clipPath id="p8bdd59b2df">
   <rect x="537.338979" y="8.64" width="10.722041" height="54.36"/>
  </clipPath>
  <clipPath id="p49bef45154">
   <rect x="551.851945" y="8.64" width="14.09611" height="54.36"/>
  </clipPath>
  <clipPath id="p837b5334b5">
   <rect x="572.400745" y="8.64" width="5.39851" height="54.36"/>
  </clipPath>
  <clipPath id="p0187d5b29a">
   <rect x="600.958055" y="8.64" width="13.08389" height="54.36"/>
  </clipPath>
  <clipPath id="p2e538f9be5">
   <rect x="616.989352" y="8.64" width="13.421297" height="54.36"/>
  </clipPath>
  <clipPath id="p4f2e50ff9f">
   <rect x="633.189352" y="8.64" width="13.421297" height="54.36"/>
  </clipPath>
  <clipPath id="p3a9a0bf63f">
   <rect x="664.2" y="10.777356" width="16.2" height="50.085288"/>
  </clipPath>
  <clipPath id="pf0c0dcecd4">
   <rect x="686.231876" y="8.64" width="4.536248" height="54.36"/>
  </clipPath>
  <clipPath id="pd2e8e4b16f">
   <rect x="698.382993" y="8.64" width="12.634014" height="54.36"/>
  </clipPath>
  <clipPath id="pbe05b0c73f">
   <rect x="713.402069" y="8.64" width="14.995862" height="54.36"/>
  </clipPath>
 </defs>
</svg>
