<?xml version="1.0" encoding="utf-8" standalone="no"?>
<!DOCTYPE svg PUBLIC "-//W3C//DTD SVG 1.1//EN"
  "http://www.w3.org/Graphics/SVG/1.1/DTD/svg11.dtd">
<svg xmlns:xlink="http://www.w3.org/1999/xlink" width="684pt" height="72pt" viewBox="0 0 684 72" xmlns="http://www.w3.org/2000/svg" version="1.1">
 <metadata>
  <rdf:RDF xmlns:dc="http://purl.org/dc/elements/1.1/" xmlns:cc="http://creativecommons.org/ns#" xmlns:rdf="http://www.w3.org/1999/02/22-rdf-syntax-ns#">
   <cc:Work>
    <dc:type rdf:resource="http://purl.org/dc/dcmitype/StillImage"/>
    <dc:date>2023-12-13T11:18:29.332720</dc:date>
    <dc:format>image/svg+xml</dc:format>
    <dc:creator>
     <cc:Agent>
      <dc:title>Matplotlib v3.7.1, https://matplotlib.org/</dc:title>
     </cc:Agent>
    </dc:creator>
   </cc:Work>
  </rdf:RDF>
 </metadata>
 <defs>
  <style type="text/css">*{stroke-linejoin: round; stroke-linecap: butt}</style>
 </defs>
 <g id="figure_1">
  <g id="patch_1">
   <path d="M 0 72 
L 684 72 
L 684 0 
L 0 0 
z
" style="fill: #8fff9f"/>
  </g>
  <g id="axes_1">
   <g id="patch_2">
    <path d="M 1.096076 29.835426 
Q 2.148309 32.005656 3.058051 36.631096 
Q 3.967794 41.256536 4.844655 43.251394 
Q 5.524222 43.251394 6.22571 41.979946 
Q 6.927199 40.708498 7.398512 39.173992 
Q 7.869824 37.639486 8.374019 36.368038 
Q 8.878214 35.09659 9.185115 35.09659 
Q 9.40433 35.09659 9.645467 36.378999 
Q 9.886604 37.661407 10.138701 39.206874 
Q 10.390798 40.752341 10.982679 42.03475 
Q 11.57456 43.317158 12.407578 43.317158 
Q 12.714479 43.317158 13.185792 43.130825 
Q 13.657104 42.944493 13.657104 42.725277 
L 13.657104 42.199161 
Q 13.657104 40.576969 13.876319 38.647876 
Q 14.095535 36.718782 14.4682 34.362219 
Q 14.840866 32.005656 14.972395 30.821894 
L 15.103924 29.572368 
" clip-path="url(#pd84893234b)" style="fill: none; stroke: #000000; stroke-linejoin: miter"/>
   </g>
  </g>
  <g id="axes_2">
   <g id="patch_3">
    <path d="M 24.918579 29.071862 
Q 24.543683 29.146841 24.412469 29.577972 
Q 24.281255 30.009103 24.356234 30.42149 
Q 24.356234 30.571448 24.393724 30.702662 
Q 24.431214 30.833876 24.487448 30.89011 
Q 24.543683 30.946345 24.599917 31.040069 
Q 24.656152 31.133793 24.693641 31.208772 
L 24.80611 29.859145 
M 24.80611 34.020497 
Q 23.906359 39.006621 23.681421 42.793076 
L 24.131297 45.379862 
L 24.468703 46.054676 
" clip-path="url(#p7f77e3b0c6)" style="fill: none; stroke: #000000; stroke-linejoin: miter"/>
   </g>
  </g>
  <g id="axes_3">
   <g id="patch_4">
    <path d="M 36.057476 43.917766 
Q 36.357393 44.180193 37.369614 45.154924 
Q 38.381834 46.129655 38.944179 46.560786 
Q 39.506524 46.991917 40.53749 47.385559 
Q 41.568455 47.7792 42.580676 47.629241 
Q 43.25549 47.629241 43.72411 47.404303 
Q 44.192731 47.179366 44.417669 46.879448 
Q 44.642607 46.579531 44.773821 45.979697 
Q 44.905034 45.379862 44.923779 44.967476 
Q 44.942524 44.55509 44.942524 43.805297 
Q 44.942524 42.718097 44.042772 42.043283 
Q 43.143021 41.368469 41.849628 41.031062 
Q 40.556234 40.693655 39.262841 40.300014 
Q 37.969448 39.906372 37.069697 38.987876 
Q 36.169945 38.069379 36.169945 36.607283 
Q 36.169945 36.082428 36.338648 35.726276 
Q 36.507352 35.370124 36.900993 35.145186 
Q 37.294634 34.920248 37.575807 34.807779 
Q 37.856979 34.69531 38.513048 34.639076 
Q 39.169117 34.582841 39.356566 34.582841 
Q 39.544014 34.582841 40.218828 34.582841 
Q 41.418497 34.582841 41.999586 34.995228 
Q 42.580676 35.407614 42.899338 36.026193 
Q 43.218 36.644772 43.480428 36.832221 
" clip-path="url(#pcf60751daf)" style="fill: none; stroke: #000000; stroke-linejoin: miter"/>
   </g>
  </g>
  <g id="axes_4">
   <g id="patch_5">
    <path d="M 53.213462 35.932469 
Q 53.813297 35.257655 54.806772 34.826524 
Q 55.800248 34.395393 56.7 34.470372 
Q 57.337324 34.470372 57.82469 34.639076 
Q 58.312055 34.807779 58.630717 34.995228 
Q 58.949379 35.182676 59.174317 35.670041 
Q 59.399255 36.157407 59.511724 36.419834 
Q 59.624193 36.682262 59.680428 37.375821 
Q 59.736662 38.069379 59.755407 38.331807 
Q 59.774152 38.594234 59.755407 39.419007 
Q 59.736662 40.243779 59.736662 40.431228 
Q 59.736662 41.368469 59.567959 43.242952 
Q 59.399255 45.117434 59.399255 46.054676 
Q 59.399255 46.467062 59.45549 46.823214 
Q 59.511724 47.179366 59.605448 47.610497 
Q 59.699172 48.041628 59.736662 48.304055 
L 60.186538 48.528993 
M 53.663338 23.111007 
Q 53.888276 24.798041 53.888276 29.971614 
L 53.888276 42.3432 
L 53.550869 46.841959 
L 53.325931 47.74171 
" clip-path="url(#p1aab32490b)" style="fill: none; stroke: #000000; stroke-linejoin: miter"/>
   </g>
  </g>
  <g id="axes_5">
   <g id="patch_6">
    <path d="M 73.518579 29.071862 
Q 73.143683 29.146841 73.012469 29.577972 
Q 72.881255 30.009103 72.956234 30.42149 
Q 72.956234 30.571448 72.993724 30.702662 
Q 73.031214 30.833876 73.087448 30.89011 
Q 73.143683 30.946345 73.199917 31.040069 
Q 73.256152 31.133793 73.293641 31.208772 
L 73.40611 29.859145 
M 73.40611 34.020497 
Q 72.506359 39.006621 72.281421 42.793076 
L 72.731297 45.379862 
L 73.068703 46.054676 
" clip-path="url(#p86e51913e2)" style="fill: none; stroke: #000000; stroke-linejoin: miter"/>
   </g>
  </g>
  <g id="axes_6">
   <g id="patch_7">
    <path d="M 84.638731 37.282097 
L 84.638731 37.844441 
Q 84.901159 39.868883 84.938648 41.312234 
Q 84.976138 42.755586 84.882414 44.667559 
Q 84.78869 46.579531 84.78869 48.191586 
L 84.863669 39.643945 
Q 84.863669 38.144359 86.456979 37.507034 
Q 88.05029 36.86971 89.474897 37.282097 
Q 91.386869 37.844441 92.305366 39.04411 
Q 93.223862 40.243779 93.280097 41.668386 
Q 93.336331 43.092993 93.373821 44.817517 
Q 93.41131 46.542041 93.561269 48.191586 
" clip-path="url(#pdbb17cef41)" style="fill: none; stroke: #000000; stroke-linejoin: miter"/>
   </g>
  </g>
  <g id="axes_7">
   <g id="patch_8">
    <path d="M 110.087191 39.096404 
Q 109.83236 39.023596 108.86764 38.623146 
Q 107.902921 38.222697 107.24764 38.077079 
Q 106.59236 37.931461 105.937079 38.00427 
Q 103.315955 38.00427 101.677753 40.388764 
Q 100.039551 42.773258 100.039551 45.430787 
Q 100.039551 47.068989 105.281798 47.068989 
Q 106.847191 47.068989 108.175955 45.558202 
Q 109.504719 44.047416 110.178202 42.172584 
Q 110.851685 40.297753 110.851685 38.768764 
Q 110.851685 37.27618 110.815281 36.984944 
L 110.742472 38.077079 
Q 110.742472 38.550337 110.742472 38.987191 
Q 110.778876 40.188539 110.979101 42.281798 
Q 111.179326 44.375056 111.343146 46.049663 
Q 111.506966 47.72427 111.543371 49.872135 
Q 111.579775 52.02 111.415955 53.658202 
Q 111.252135 55.296404 110.687865 56.971011 
Q 110.123596 58.645618 109.195281 59.737753 
Q 108.266966 60.829888 106.665169 61.521573 
Q 105.063371 62.213258 102.915506 62.213258 
Q 101.277303 62.213258 100.185169 61.466966 
Q 99.093034 60.720674 99.093034 59.155281 
Q 99.020225 58.936854 99.056629 58.936854 
Q 99.093034 58.936854 99.202247 58.936854 
Q 99.311461 58.936854 99.311461 58.82764 
" clip-path="url(#p0a23296872)" style="fill: none; stroke: #000000; stroke-linejoin: miter"/>
   </g>
  </g>
  <g id="axes_8"/>
  <g id="axes_9">
   <g id="patch_9">
    <path d="M 132.563917 36.382345 
Q 132.526428 36.494814 132.657641 36.701007 
Q 132.788855 36.9072 132.676386 37.057159 
L 132.676386 39.306538 
Q 132.676386 40.506207 133.013793 41.724621 
Q 133.3512 42.943034 134.213462 43.93651 
Q 135.075724 44.929986 136.275393 44.929986 
Q 137.512552 44.929986 138.187366 43.861531 
Q 138.862179 42.793076 139.312055 41.143531 
Q 139.761931 39.493986 140.099338 38.969131 
L 140.886621 36.382345 
L 140.661683 42.680607 
L 140.661683 45.154924 
Q 140.661683 47.066897 141.392731 51.00331 
Q 142.123779 54.939724 142.123779 56.964166 
Q 142.873572 59.213545 141.786372 60.188276 
Q 140.699172 61.163007 138.637241 60.78811 
Q 136.837738 60.488193 135.919241 60.169531 
Q 135.000745 59.850869 133.013793 58.988607 
L 132.901324 58.426262 
" clip-path="url(#p000b2ce351)" style="fill: none; stroke: #000000; stroke-linejoin: miter"/>
   </g>
  </g>
  <g id="axes_10">
   <g id="patch_10">
    <path d="M 157.1616 35.032717 
Q 156.11189 34.582841 155.137159 34.69531 
Q 152.100497 35.032717 150.188524 36.701007 
Q 148.276552 38.369297 148.276552 41.330979 
Q 148.276552 43.917766 150.282248 45.6048 
Q 152.287945 47.291834 154.912221 47.291834 
Q 157.274069 47.291834 158.398759 45.361117 
Q 159.523448 43.4304 159.523448 40.881103 
Q 159.523448 39.643945 159.111062 38.706703 
Q 158.698676 37.769462 158.173821 37.300841 
Q 157.648966 36.832221 156.899172 36.119917 
Q 156.149379 35.407614 155.699503 34.69531 
L 154.462345 34.245434 
" clip-path="url(#p204c14378b)" style="fill: none; stroke: #000000; stroke-linejoin: miter"/>
   </g>
  </g>
  <g id="axes_11">
   <g id="patch_11">
    <path d="M 165.488772 35.145186 
Q 165.488772 35.145186 165.488772 35.595062 
Q 165.488772 36.269876 165.376303 37.619503 
Q 165.263834 38.969131 165.263834 39.643945 
Q 165.263834 41.930814 166.500993 43.599103 
Q 167.738152 45.267393 169.875062 45.267393 
Q 171.262179 45.154924 172.030717 43.917766 
Q 172.799255 42.680607 172.949214 41.237255 
Q 173.099172 39.793903 173.3616 37.9944 
Q 173.624028 36.194897 174.036414 35.370124 
Q 174.186372 35.070207 174.186372 35.670041 
Q 174.186372 36.269876 173.923945 38.706703 
Q 173.699007 41.031062 173.699007 41.555917 
Q 173.549048 42.643117 173.886455 43.767807 
Q 174.223862 44.892497 174.936166 45.6048 
" clip-path="url(#p1f8b22d846)" style="fill: none; stroke: #000000; stroke-linejoin: miter"/>
   </g>
  </g>
  <g id="axes_12"/>
  <g id="axes_13">
   <g id="patch_12">
    <path d="M 208.043923 36.441748 
Q 206.834968 35.094627 202.862687 35.094627 
Q 201.342857 35.094627 200.565672 35.146439 
Q 199.788486 35.198252 198.78678 35.440043 
Q 197.785075 35.681834 197.301493 36.182687 
Q 196.81791 36.683539 196.472495 37.616162 
Q 196.127079 38.548785 196.127079 39.964989 
Q 196.127079 42.037484 197.543284 43.280981 
Q 198.959488 44.524478 200.893817 44.524478 
Q 203.553518 44.524478 206.316844 38.721493 
Q 207.663966 35.854542 207.663966 35.82 
Q 208.009382 35.578209 208.043923 36.441748 
Q 208.043923 37.512537 208.458422 40.362217 
Q 208.872921 43.211898 208.872921 44.524478 
" clip-path="url(#p7d3fddc03a)" style="fill: none; stroke: #000000; stroke-linejoin: miter"/>
   </g>
  </g>
  <g id="axes_14"/>
  <g id="axes_15">
   <g id="patch_13">
    <path d="M 235.256152 30.309021 
Q 234.768786 30.42149 235.181172 30.833876 
Q 235.556069 31.208772 235.631048 30.946345 
Q 235.668538 30.871366 235.593559 30.646428 
Q 235.593559 30.458979 235.518579 30.42149 
Q 235.4436 30.384 235.312386 30.42149 
Q 235.181172 30.458979 235.031214 30.42149 
L 234.918745 30.646428 
M 235.818497 33.345683 
Q 236.868207 37.731972 237.393062 40.13131 
Q 237.917917 42.530648 238.367793 46.317103 
Q 238.817669 50.103559 238.630221 53.25269 
Q 238.630221 53.440138 238.630221 54.021228 
Q 238.630221 54.602317 238.630221 54.902234 
Q 238.630221 55.202152 238.611476 55.783241 
Q 238.592731 56.364331 238.517752 56.701738 
Q 238.442772 57.039145 238.330303 57.52651 
Q 238.217834 58.013876 238.011641 58.313793 
Q 237.805448 58.61371 237.543021 58.894883 
Q 237.280593 59.176055 236.905697 59.307269 
Q 236.5308 59.438483 236.043434 59.438483 
Q 235.068703 59.438483 234.31891 59.251034 
Q 233.569117 59.063586 232.706855 58.707434 
Q 231.844593 58.351283 231.207269 58.201324 
L 230.982331 57.751448 
" clip-path="url(#pa4f0f96c30)" style="fill: none; stroke: #000000; stroke-linejoin: miter"/>
   </g>
  </g>
  <g id="axes_16">
   <g id="patch_14">
    <path d="M 254.3616 35.032717 
Q 253.31189 34.582841 252.337159 34.69531 
Q 249.300497 35.032717 247.388524 36.701007 
Q 245.476552 38.369297 245.476552 41.330979 
Q 245.476552 43.917766 247.482248 45.6048 
Q 249.487945 47.291834 252.112221 47.291834 
Q 254.474069 47.291834 255.598759 45.361117 
Q 256.723448 43.4304 256.723448 40.881103 
Q 256.723448 39.643945 256.311062 38.706703 
Q 255.898676 37.769462 255.373821 37.300841 
Q 254.848966 36.832221 254.099172 36.119917 
Q 253.349379 35.407614 252.899503 34.69531 
L 251.662345 34.245434 
" clip-path="url(#p8573832e2f)" style="fill: none; stroke: #000000; stroke-linejoin: miter"/>
   </g>
  </g>
  <g id="axes_17">
   <g id="patch_15">
    <path d="M 262.163917 36.382345 
Q 262.126428 36.494814 262.257641 36.701007 
Q 262.388855 36.9072 262.276386 37.057159 
L 262.276386 39.306538 
Q 262.276386 40.506207 262.613793 41.724621 
Q 262.9512 42.943034 263.813462 43.93651 
Q 264.675724 44.929986 265.875393 44.929986 
Q 267.112552 44.929986 267.787366 43.861531 
Q 268.462179 42.793076 268.912055 41.143531 
Q 269.361931 39.493986 269.699338 38.969131 
L 270.486621 36.382345 
L 270.261683 42.680607 
L 270.261683 45.154924 
Q 270.261683 47.066897 270.992731 51.00331 
Q 271.723779 54.939724 271.723779 56.964166 
Q 272.473572 59.213545 271.386372 60.188276 
Q 270.299172 61.163007 268.237241 60.78811 
Q 266.437738 60.488193 265.519241 60.169531 
Q 264.600745 59.850869 262.613793 58.988607 
L 262.501324 58.426262 
" clip-path="url(#p954eb1786c)" style="fill: none; stroke: #000000; stroke-linejoin: miter"/>
   </g>
  </g>
  <g id="axes_18">
   <g id="patch_16">
    <path d="M 277.184141 38.85304 
L 277.612335 38.85304 
Q 278.43304 38.85304 279.396476 38.745991 
Q 280.359912 38.638943 281.519604 38.460529 
Q 282.679295 38.282115 283.285903 38.210749 
L 289.815859 35.427489 
M 289.494714 25.793128 
Q 289.209251 25.721762 288.174449 25.275727 
Q 287.139648 24.829692 286.497357 24.93674 
Q 285.855066 24.93674 285.337665 25.150837 
Q 284.820264 25.364934 284.481278 25.793128 
Q 284.142291 26.221322 283.87467 26.685198 
Q 283.607048 27.149075 283.464317 27.862731 
Q 283.321586 28.576388 283.214537 29.129471 
Q 283.107489 29.682555 283.089648 30.50326 
Q 283.071806 31.323965 283.053965 31.77 
Q 283.036123 32.216035 283.053965 32.965374 
Q 283.071806 33.714714 283.071806 33.928811 
Q 283.071806 36.605022 283.767621 41.850396 
Q 284.463436 47.095771 284.463436 49.771982 
Q 284.39207 50.057445 284.356388 50.681894 
Q 284.320705 51.306344 284.213656 51.805903 
Q 284.106608 52.305463 283.821145 52.555242 
" clip-path="url(#pee2a03dca9)" style="fill: none; stroke: #000000; stroke-linejoin: miter"/>
   </g>
  </g>
  <g id="axes_19">
   <g id="patch_17">
    <path d="M 295.088772 35.145186 
Q 295.088772 35.145186 295.088772 35.595062 
Q 295.088772 36.269876 294.976303 37.619503 
Q 294.863834 38.969131 294.863834 39.643945 
Q 294.863834 41.930814 296.100993 43.599103 
Q 297.338152 45.267393 299.475062 45.267393 
Q 300.862179 45.154924 301.630717 43.917766 
Q 302.399255 42.680607 302.549214 41.237255 
Q 302.699172 39.793903 302.9616 37.9944 
Q 303.224028 36.194897 303.636414 35.370124 
Q 303.786372 35.070207 303.786372 35.670041 
Q 303.786372 36.269876 303.523945 38.706703 
Q 303.299007 41.031062 303.299007 41.555917 
Q 303.149048 42.643117 303.486455 43.767807 
Q 303.823862 44.892497 304.536166 45.6048 
" clip-path="url(#pfcacdaab59)" style="fill: none; stroke: #000000; stroke-linejoin: miter"/>
   </g>
  </g>
  <g id="axes_20">
   <g id="patch_18">
    <path d="M 315.506359 28.621986 
Q 315.731297 30.34651 315.806276 32.146014 
Q 315.881255 33.945517 315.86251 36.551048 
Q 315.843766 39.156579 315.843766 40.093821 
Q 315.843766 40.13131 316.068703 45.829738 
L 316.293641 46.841959 
" clip-path="url(#p7d6b673e08)" style="fill: none; stroke: #000000; stroke-linejoin: miter"/>
   </g>
  </g>
  <g id="axes_21"/>
  <g id="axes_22">
   <g id="patch_19">
    <path d="M 354.548571 31.763193 
Q 352.80605 29.585042 350.859328 28.972437 
Q 348.912605 28.359832 346.135462 29.285546 
Q 344.256807 29.966218 342.909076 31.817647 
Q 341.561345 33.669076 341.561345 35.411597 
Q 341.561345 38.760504 344.188739 41.415126 
Q 346.816134 44.069748 350.056134 44.069748 
Q 350.900168 44.069748 351.58084 43.729412 
Q 352.261513 43.389076 352.656303 42.953445 
Q 353.051092 42.517815 353.622857 41.918824 
Q 354.194622 41.319832 354.711933 40.965882 
L 355.038655 40.149076 
" clip-path="url(#p74a6886a09)" style="fill: none; stroke: #000000; stroke-linejoin: miter"/>
   </g>
  </g>
  <g id="axes_23">
   <g id="patch_20">
    <path d="M 361.013462 35.932469 
Q 361.613297 35.257655 362.606772 34.826524 
Q 363.600248 34.395393 364.5 34.470372 
Q 365.137324 34.470372 365.62469 34.639076 
Q 366.112055 34.807779 366.430717 34.995228 
Q 366.749379 35.182676 366.974317 35.670041 
Q 367.199255 36.157407 367.311724 36.419834 
Q 367.424193 36.682262 367.480428 37.375821 
Q 367.536662 38.069379 367.555407 38.331807 
Q 367.574152 38.594234 367.555407 39.419007 
Q 367.536662 40.243779 367.536662 40.431228 
Q 367.536662 41.368469 367.367959 43.242952 
Q 367.199255 45.117434 367.199255 46.054676 
Q 367.199255 46.467062 367.25549 46.823214 
Q 367.311724 47.179366 367.405448 47.610497 
Q 367.499172 48.041628 367.536662 48.304055 
L 367.986538 48.528993 
M 361.463338 23.111007 
Q 361.688276 24.798041 361.688276 29.971614 
L 361.688276 42.3432 
L 361.350869 46.841959 
L 361.125931 47.74171 
" clip-path="url(#p7fb6dbe9f7)" style="fill: none; stroke: #000000; stroke-linejoin: miter"/>
   </g>
  </g>
  <g id="axes_24">
   <g id="patch_21">
    <path d="M 377.213462 32.783338 
Q 377.738317 34.507862 377.869531 36.457324 
Q 378.000745 38.406786 377.925766 40.956083 
Q 377.850786 43.505379 377.888276 44.705048 
L 378.000745 46.054676 
L 378.000745 45.829738 
Q 378.000745 44.667559 377.719572 42.30571 
Q 377.4384 39.943862 377.4384 38.744193 
Q 377.4384 36.419834 378.450621 34.882759 
Q 379.462841 33.345683 381.487283 33.345683 
Q 382.199586 33.345683 382.536993 33.626855 
Q 382.8744 33.908028 383.136828 34.432883 
Q 383.399255 34.957738 383.736662 35.257655 
L 384.186538 36.832221 
" clip-path="url(#pc2b6f9909c)" style="fill: none; stroke: #000000; stroke-linejoin: miter"/>
   </g>
  </g>
  <g id="axes_25">
   <g id="patch_22">
    <path d="M 397.518579 29.071862 
Q 397.143683 29.146841 397.012469 29.577972 
Q 396.881255 30.009103 396.956234 30.42149 
Q 396.956234 30.571448 396.993724 30.702662 
Q 397.031214 30.833876 397.087448 30.89011 
Q 397.143683 30.946345 397.199917 31.040069 
Q 397.256152 31.133793 397.293641 31.208772 
L 397.40611 29.859145 
M 397.40611 34.020497 
Q 396.506359 39.006621 396.281421 42.793076 
L 396.731297 45.379862 
L 397.068703 46.054676 
" clip-path="url(#p091d40fc41)" style="fill: none; stroke: #000000; stroke-linejoin: miter"/>
   </g>
  </g>
  <g id="axes_26">
   <g id="patch_23">
    <path d="M 408.657476 43.917766 
Q 408.957393 44.180193 409.969614 45.154924 
Q 410.981834 46.129655 411.544179 46.560786 
Q 412.106524 46.991917 413.13749 47.385559 
Q 414.168455 47.7792 415.180676 47.629241 
Q 415.85549 47.629241 416.32411 47.404303 
Q 416.792731 47.179366 417.017669 46.879448 
Q 417.242607 46.579531 417.373821 45.979697 
Q 417.505034 45.379862 417.523779 44.967476 
Q 417.542524 44.55509 417.542524 43.805297 
Q 417.542524 42.718097 416.642772 42.043283 
Q 415.743021 41.368469 414.449628 41.031062 
Q 413.156234 40.693655 411.862841 40.300014 
Q 410.569448 39.906372 409.669697 38.987876 
Q 408.769945 38.069379 408.769945 36.607283 
Q 408.769945 36.082428 408.938648 35.726276 
Q 409.107352 35.370124 409.500993 35.145186 
Q 409.894634 34.920248 410.175807 34.807779 
Q 410.456979 34.69531 411.113048 34.639076 
Q 411.769117 34.582841 411.956566 34.582841 
Q 412.144014 34.582841 412.818828 34.582841 
Q 414.018497 34.582841 414.599586 34.995228 
Q 415.180676 35.407614 415.499338 36.026193 
Q 415.818 36.644772 416.080428 36.832221 
" clip-path="url(#p79518da42d)" style="fill: none; stroke: #000000; stroke-linejoin: miter"/>
   </g>
  </g>
  <g id="axes_27">
   <g id="patch_24">
    <path d="M 424.463834 37.95691 
L 425.138648 37.95691 
Q 425.850952 37.95691 426.638234 37.881931 
Q 427.425517 37.806952 428.381503 37.675738 
Q 429.33749 37.544524 429.862345 37.507034 
L 434.136166 35.82 
M 430.087283 30.42149 
L 430.087283 31.43371 
Q 430.087283 33.383172 429.412469 37.207117 
Q 428.737655 41.031062 428.737655 43.018014 
Q 428.737655 43.805297 428.737655 44.105214 
Q 428.737655 44.405131 428.831379 45.042455 
Q 428.925103 45.679779 429.112552 45.960952 
Q 429.3 46.242124 429.693641 46.485807 
Q 430.087283 46.72949 430.649628 46.72949 
Q 430.762097 46.692 431.080759 46.72949 
Q 431.399421 46.766979 431.586869 46.710745 
Q 431.774317 46.65451 431.774317 46.392083 
" clip-path="url(#p710d955502)" style="fill: none; stroke: #000000; stroke-linejoin: miter"/>
   </g>
  </g>
  <g id="axes_28">
   <g id="patch_25">
    <path d="M 439.208036 34.879821 
Q 439.714286 36.073125 440.003571 42.871339 
Q 440.148214 46.632054 440.4375 46.632054 
Q 440.473661 46.632054 440.509821 46.595893 
Q 441.016071 46.017321 441.070312 44.588973 
Q 441.124554 43.160625 440.907589 41.750357 
Q 440.690625 40.340089 440.4375 38.712857 
Q 440.184375 37.085625 440.184375 36.398571 
Q 440.184375 35.169107 440.564062 33.939643 
Q 440.94375 32.710179 441.920089 32.710179 
Q 443.149554 32.710179 443.872768 34.355491 
Q 444.595982 36.000804 444.758705 37.971562 
Q 444.921429 39.942321 445.029911 41.587634 
Q 445.138393 43.232946 445.283036 43.232946 
Q 445.427679 43.232946 445.51808 41.497232 
Q 445.608482 39.761518 445.735045 37.700357 
Q 445.861607 35.639196 446.584821 33.903482 
Q 447.308036 32.167768 448.5375 32.167768 
Q 450.092411 33.035625 450.761384 34.771339 
Q 451.430357 36.507054 451.394196 38.188527 
Q 451.358036 39.87 451.376116 42.057723 
Q 451.394196 44.245446 451.791964 45.511071 
" clip-path="url(#p502b5c38d7)" style="fill: none; stroke: #000000; stroke-linejoin: miter"/>
   </g>
  </g>
  <g id="axes_29">
   <g id="patch_26">
    <path d="M 467.243923 36.441748 
Q 466.034968 35.094627 462.062687 35.094627 
Q 460.542857 35.094627 459.765672 35.146439 
Q 458.988486 35.198252 457.98678 35.440043 
Q 456.985075 35.681834 456.501493 36.182687 
Q 456.01791 36.683539 455.672495 37.616162 
Q 455.327079 38.548785 455.327079 39.964989 
Q 455.327079 42.037484 456.743284 43.280981 
Q 458.159488 44.524478 460.093817 44.524478 
Q 462.753518 44.524478 465.516844 38.721493 
Q 466.863966 35.854542 466.863966 35.82 
Q 467.209382 35.578209 467.243923 36.441748 
Q 467.243923 37.512537 467.658422 40.362217 
Q 468.072921 43.211898 468.072921 44.524478 
" clip-path="url(#p9147d1d0f3)" style="fill: none; stroke: #000000; stroke-linejoin: miter"/>
   </g>
  </g>
  <g id="axes_30">
   <g id="patch_27">
    <path d="M 473.457476 43.917766 
Q 473.757393 44.180193 474.769614 45.154924 
Q 475.781834 46.129655 476.344179 46.560786 
Q 476.906524 46.991917 477.93749 47.385559 
Q 478.968455 47.7792 479.980676 47.629241 
Q 480.65549 47.629241 481.12411 47.404303 
Q 481.592731 47.179366 481.817669 46.879448 
Q 482.042607 46.579531 482.173821 45.979697 
Q 482.305034 45.379862 482.323779 44.967476 
Q 482.342524 44.55509 482.342524 43.805297 
Q 482.342524 42.718097 481.442772 42.043283 
Q 480.543021 41.368469 479.249628 41.031062 
Q 477.956234 40.693655 476.662841 40.300014 
Q 475.369448 39.906372 474.469697 38.987876 
Q 473.569945 38.069379 473.569945 36.607283 
Q 473.569945 36.082428 473.738648 35.726276 
Q 473.907352 35.370124 474.300993 35.145186 
Q 474.694634 34.920248 474.975807 34.807779 
Q 475.256979 34.69531 475.913048 34.639076 
Q 476.569117 34.582841 476.756566 34.582841 
Q 476.944014 34.582841 477.618828 34.582841 
Q 478.818497 34.582841 479.399586 34.995228 
Q 479.980676 35.407614 480.299338 36.026193 
Q 480.618 36.644772 480.880428 36.832221 
" clip-path="url(#p7a8d65eb26)" style="fill: none; stroke: #000000; stroke-linejoin: miter"/>
   </g>
  </g>
  <g id="axes_31"/>
  <g id="axes_32">
   <g id="patch_28">
    <path d="M 505.857476 43.917766 
Q 506.157393 44.180193 507.169614 45.154924 
Q 508.181834 46.129655 508.744179 46.560786 
Q 509.306524 46.991917 510.33749 47.385559 
Q 511.368455 47.7792 512.380676 47.629241 
Q 513.05549 47.629241 513.52411 47.404303 
Q 513.992731 47.179366 514.217669 46.879448 
Q 514.442607 46.579531 514.573821 45.979697 
Q 514.705034 45.379862 514.723779 44.967476 
Q 514.742524 44.55509 514.742524 43.805297 
Q 514.742524 42.718097 513.842772 42.043283 
Q 512.943021 41.368469 511.649628 41.031062 
Q 510.356234 40.693655 509.062841 40.300014 
Q 507.769448 39.906372 506.869697 38.987876 
Q 505.969945 38.069379 505.969945 36.607283 
Q 505.969945 36.082428 506.138648 35.726276 
Q 506.307352 35.370124 506.700993 35.145186 
Q 507.094634 34.920248 507.375807 34.807779 
Q 507.656979 34.69531 508.313048 34.639076 
Q 508.969117 34.582841 509.156566 34.582841 
Q 509.344014 34.582841 510.018828 34.582841 
Q 511.218497 34.582841 511.799586 34.995228 
Q 512.380676 35.407614 512.699338 36.026193 
Q 513.018 36.644772 513.280428 36.832221 
" clip-path="url(#pf0e23f8944)" style="fill: none; stroke: #000000; stroke-linejoin: miter"/>
   </g>
  </g>
  <g id="axes_33">
   <g id="patch_29">
    <path d="M 520.257798 38.160826 
Q 523.230275 39.535596 527.949083 39.721376 
Q 529.472477 39.721376 530.159862 38.550963 
Q 530.847248 37.38055 530.847248 35.82 
Q 530.847248 35.299817 530.754358 34.909679 
Q 530.661468 34.519541 530.419954 34.296606 
Q 530.17844 34.07367 530.011239 33.943624 
Q 529.844037 33.813578 529.398165 33.757844 
Q 528.952294 33.70211 528.747936 33.683532 
Q 528.543578 33.664954 527.967661 33.683532 
Q 527.391743 33.70211 527.168807 33.70211 
Q 525.125229 33.70211 523.638991 35.578486 
Q 522.152752 37.454862 522.152752 39.609908 
Q 522.152752 42.619541 524.084862 44.570229 
Q 526.016972 46.520917 529.063761 46.520917 
Q 531.218807 46.818165 532.742202 44.29156 
" clip-path="url(#p8763bc8175)" style="fill: none; stroke: #000000; stroke-linejoin: miter"/>
   </g>
  </g>
  <g id="axes_34">
   <g id="patch_30">
    <path d="M 548.243923 36.441748 
Q 547.034968 35.094627 543.062687 35.094627 
Q 541.542857 35.094627 540.765672 35.146439 
Q 539.988486 35.198252 538.98678 35.440043 
Q 537.985075 35.681834 537.501493 36.182687 
Q 537.01791 36.683539 536.672495 37.616162 
Q 536.327079 38.548785 536.327079 39.964989 
Q 536.327079 42.037484 537.743284 43.280981 
Q 539.159488 44.524478 541.093817 44.524478 
Q 543.753518 44.524478 546.516844 38.721493 
Q 547.863966 35.854542 547.863966 35.82 
Q 548.209382 35.578209 548.243923 36.441748 
Q 548.243923 37.512537 548.658422 40.362217 
Q 549.072921 43.211898 549.072921 44.524478 
" clip-path="url(#p329b536b37)" style="fill: none; stroke: #000000; stroke-linejoin: miter"/>
   </g>
  </g>
  <g id="axes_35">
   <g id="patch_31">
    <path d="M 554.457476 43.917766 
Q 554.757393 44.180193 555.769614 45.154924 
Q 556.781834 46.129655 557.344179 46.560786 
Q 557.906524 46.991917 558.93749 47.385559 
Q 559.968455 47.7792 560.980676 47.629241 
Q 561.65549 47.629241 562.12411 47.404303 
Q 562.592731 47.179366 562.817669 46.879448 
Q 563.042607 46.579531 563.173821 45.979697 
Q 563.305034 45.379862 563.323779 44.967476 
Q 563.342524 44.55509 563.342524 43.805297 
Q 563.342524 42.718097 562.442772 42.043283 
Q 561.543021 41.368469 560.249628 41.031062 
Q 558.956234 40.693655 557.662841 40.300014 
Q 556.369448 39.906372 555.469697 38.987876 
Q 554.569945 38.069379 554.569945 36.607283 
Q 554.569945 36.082428 554.738648 35.726276 
Q 554.907352 35.370124 555.300993 35.145186 
Q 555.694634 34.920248 555.975807 34.807779 
Q 556.256979 34.69531 556.913048 34.639076 
Q 557.569117 34.582841 557.756566 34.582841 
Q 557.944014 34.582841 558.618828 34.582841 
Q 559.818497 34.582841 560.399586 34.995228 
Q 560.980676 35.407614 561.299338 36.026193 
Q 561.618 36.644772 561.880428 36.832221 
" clip-path="url(#p983f861cea)" style="fill: none; stroke: #000000; stroke-linejoin: miter"/>
   </g>
  </g>
  <g id="axes_36">
   <g id="patch_32">
    <path d="M 578.3616 35.032717 
Q 577.31189 34.582841 576.337159 34.69531 
Q 573.300497 35.032717 571.388524 36.701007 
Q 569.476552 38.369297 569.476552 41.330979 
Q 569.476552 43.917766 571.482248 45.6048 
Q 573.487945 47.291834 576.112221 47.291834 
Q 578.474069 47.291834 579.598759 45.361117 
Q 580.723448 43.4304 580.723448 40.881103 
Q 580.723448 39.643945 580.311062 38.706703 
Q 579.898676 37.769462 579.373821 37.300841 
Q 578.848966 36.832221 578.099172 36.119917 
Q 577.349379 35.407614 576.899503 34.69531 
L 575.662345 34.245434 
" clip-path="url(#p562f2009cb)" style="fill: none; stroke: #000000; stroke-linejoin: miter"/>
   </g>
  </g>
  <g id="axes_37">
   <g id="patch_33">
    <path d="M 586.838731 37.282097 
L 586.838731 37.844441 
Q 587.101159 39.868883 587.138648 41.312234 
Q 587.176138 42.755586 587.082414 44.667559 
Q 586.98869 46.579531 586.98869 48.191586 
L 587.063669 39.643945 
Q 587.063669 38.144359 588.656979 37.507034 
Q 590.25029 36.86971 591.674897 37.282097 
Q 593.586869 37.844441 594.505366 39.04411 
Q 595.423862 40.243779 595.480097 41.668386 
Q 595.536331 43.092993 595.573821 44.817517 
Q 595.61131 46.542041 595.761269 48.191586 
" clip-path="url(#p0935745f31)" style="fill: none; stroke: #000000; stroke-linejoin: miter"/>
   </g>
  </g>
  <g id="axes_38">
   <g id="patch_34">
    <path d="M 608.343517 43.505379 
Q 608.268538 43.46789 608.193559 43.505379 
Q 608.118579 43.542869 608.08109 43.617848 
Q 608.0436 43.692828 608.00611 43.730317 
L 607.893641 44.180193 
M 606.656483 28.2096 
L 606.656483 28.771945 
Q 606.656483 29.971614 606.843931 31.321241 
Q 607.031379 32.670869 607.350041 34.339159 
Q 607.668703 36.007448 607.781172 36.86971 
L 607.893641 39.906372 
" clip-path="url(#p68c0b7a96e)" style="fill: none; stroke: #000000; stroke-linejoin: miter"/>
   </g>
  </g>
 </g>
 <defs>
  <clipPath id="pd84893234b">
   <rect x="0" y="19.926901" width="16.2" height="31.786198"/>
  </clipPath>
  <clipPath id="p7f77e3b0c6">
   <rect x="21.806938" y="8.64" width="4.986124" height="54.36"/>
  </clipPath>
  <clipPath id="pcf60751daf">
   <rect x="34.182993" y="8.64" width="12.634014" height="54.36"/>
  </clipPath>
  <clipPath id="p1aab32490b">
   <rect x="51.338979" y="8.64" width="10.722041" height="54.36"/>
  </clipPath>
  <clipPath id="p86e51913e2">
   <rect x="70.406938" y="8.64" width="4.986124" height="54.36"/>
  </clipPath>
  <clipPath id="pdbb17cef41">
   <rect x="82.764248" y="8.64" width="12.671503" height="54.36"/>
  </clipPath>
  <clipPath id="p0a23296872">
   <rect x="97.2" y="9.426742" width="16.2" height="52.786517"/>
  </clipPath>
  <clipPath id="p000b2ce351">
   <rect x="130.651945" y="8.64" width="14.09611" height="54.36"/>
  </clipPath>
  <clipPath id="p204c14378b">
   <rect x="146.402069" y="8.64" width="14.995862" height="54.36"/>
  </clipPath>
  <clipPath id="p1f8b22d846">
   <rect x="163.389352" y="8.64" width="13.421297" height="54.36"/>
  </clipPath>
  <clipPath id="p7d3fddc03a">
   <rect x="194.4" y="10.777356" width="16.2" height="50.085288"/>
  </clipPath>
  <clipPath id="pa4f0f96c30">
   <rect x="229.107848" y="8.64" width="11.584303" height="54.36"/>
  </clipPath>
  <clipPath id="p8573832e2f">
   <rect x="243.602069" y="8.64" width="14.995862" height="54.36"/>
  </clipPath>
  <clipPath id="p954eb1786c">
   <rect x="260.251945" y="8.64" width="14.09611" height="54.36"/>
  </clipPath>
  <clipPath id="pee2a03dca9">
   <rect x="275.4" y="9.949956" width="16.2" height="51.740088"/>
  </clipPath>
  <clipPath id="pfcacdaab59">
   <rect x="292.989352" y="8.64" width="13.421297" height="54.36"/>
  </clipPath>
  <clipPath id="p7d6b673e08">
   <rect x="313.631876" y="8.64" width="4.536248" height="54.36"/>
  </clipPath>
  <clipPath id="p74a6886a09">
   <rect x="340.2" y="16.080504" width="16.2" height="39.478992"/>
  </clipPath>
  <clipPath id="p7fb6dbe9f7">
   <rect x="359.138979" y="8.64" width="10.722041" height="54.36"/>
  </clipPath>
  <clipPath id="pc2b6f9909c">
   <rect x="375.338979" y="8.64" width="10.722041" height="54.36"/>
  </clipPath>
  <clipPath id="p091d40fc41">
   <rect x="394.406938" y="8.64" width="4.986124" height="54.36"/>
  </clipPath>
  <clipPath id="p79518da42d">
   <rect x="406.782993" y="8.64" width="12.634014" height="54.36"/>
  </clipPath>
  <clipPath id="p710d955502">
   <rect x="422.589352" y="8.64" width="13.421297" height="54.36"/>
  </clipPath>
  <clipPath id="p502b5c38d7">
   <rect x="437.4" y="9.603482" width="16.2" height="52.433036"/>
  </clipPath>
  <clipPath id="p9147d1d0f3">
   <rect x="453.6" y="10.777356" width="16.2" height="50.085288"/>
  </clipPath>
  <clipPath id="p7a8d65eb26">
   <rect x="471.582993" y="8.64" width="12.634014" height="54.36"/>
  </clipPath>
  <clipPath id="pf0e23f8944">
   <rect x="503.982993" y="8.64" width="12.634014" height="54.36"/>
  </clipPath>
  <clipPath id="p8763bc8175">
   <rect x="518.4" y="8.881927" width="16.2" height="53.876147"/>
  </clipPath>
  <clipPath id="p329b536b37">
   <rect x="534.6" y="10.777356" width="16.2" height="50.085288"/>
  </clipPath>
  <clipPath id="p983f861cea">
   <rect x="552.582993" y="8.64" width="12.634014" height="54.36"/>
  </clipPath>
  <clipPath id="p562f2009cb">
   <rect x="567.602069" y="8.64" width="14.995862" height="54.36"/>
  </clipPath>
  <clipPath id="p0935745f31">
   <rect x="584.964248" y="8.64" width="12.671503" height="54.36"/>
  </clipPath>
  <clipPath id="p68c0b7a96e">
   <rect x="604.782" y="8.64" width="5.436" height="54.36"/>
  </clipPath>
 </defs>
</svg>
