<?xml version="1.0" encoding="utf-8" standalone="no"?>
<!DOCTYPE svg PUBLIC "-//W3C//DTD SVG 1.1//EN"
  "http://www.w3.org/Graphics/SVG/1.1/DTD/svg11.dtd">
<svg xmlns:xlink="http://www.w3.org/1999/xlink" width="720pt" height="72pt" viewBox="0 0 720 72" xmlns="http://www.w3.org/2000/svg" version="1.1">
 <metadata>
  <rdf:RDF xmlns:dc="http://purl.org/dc/elements/1.1/" xmlns:cc="http://creativecommons.org/ns#" xmlns:rdf="http://www.w3.org/1999/02/22-rdf-syntax-ns#">
   <cc:Work>
    <dc:type rdf:resource="http://purl.org/dc/dcmitype/StillImage"/>
    <dc:date>2023-12-13T11:18:37.307665</dc:date>
    <dc:format>image/svg+xml</dc:format>
    <dc:creator>
     <cc:Agent>
      <dc:title>Matplotlib v3.7.1, https://matplotlib.org/</dc:title>
     </cc:Agent>
    </dc:creator>
   </cc:Work>
  </rdf:RDF>
 </metadata>
 <defs>
  <style type="text/css">*{stroke-linejoin: round; stroke-linecap: butt}</style>
 </defs>
 <g id="figure_1">
  <g id="patch_1">
   <path d="M 0 72 
L 720 72 
L 720 0 
L 0 0 
z
" style="fill: #8fff9f"/>
  </g>
  <g id="axes_1">
   <g id="patch_2">
    <path d="M 3.263834 37.95691 
L 3.938648 37.95691 
Q 4.650952 37.95691 5.438234 37.881931 
Q 6.225517 37.806952 7.181503 37.675738 
Q 8.13749 37.544524 8.662345 37.507034 
L 12.936166 35.82 
M 8.887283 30.42149 
L 8.887283 31.43371 
Q 8.887283 33.383172 8.212469 37.207117 
Q 7.537655 41.031062 7.537655 43.018014 
Q 7.537655 43.805297 7.537655 44.105214 
Q 7.537655 44.405131 7.631379 45.042455 
Q 7.725103 45.679779 7.912552 45.960952 
Q 8.1 46.242124 8.493641 46.485807 
Q 8.887283 46.72949 9.449628 46.72949 
Q 9.562097 46.692 9.880759 46.72949 
Q 10.199421 46.766979 10.386869 46.710745 
Q 10.574317 46.65451 10.574317 46.392083 
" clip-path="url(#p15dfbb51b3)" style="fill: none; stroke: #000000; stroke-linejoin: miter"/>
   </g>
  </g>
  <g id="axes_2">
   <g id="patch_3">
    <path d="M 20.813462 35.932469 
Q 21.413297 35.257655 22.406772 34.826524 
Q 23.400248 34.395393 24.3 34.470372 
Q 24.937324 34.470372 25.42469 34.639076 
Q 25.912055 34.807779 26.230717 34.995228 
Q 26.549379 35.182676 26.774317 35.670041 
Q 26.999255 36.157407 27.111724 36.419834 
Q 27.224193 36.682262 27.280428 37.375821 
Q 27.336662 38.069379 27.355407 38.331807 
Q 27.374152 38.594234 27.355407 39.419007 
Q 27.336662 40.243779 27.336662 40.431228 
Q 27.336662 41.368469 27.167959 43.242952 
Q 26.999255 45.117434 26.999255 46.054676 
Q 26.999255 46.467062 27.05549 46.823214 
Q 27.111724 47.179366 27.205448 47.610497 
Q 27.299172 48.041628 27.336662 48.304055 
L 27.786538 48.528993 
M 21.263338 23.111007 
Q 21.488276 24.798041 21.488276 29.971614 
L 21.488276 42.3432 
L 21.150869 46.841959 
L 20.925931 47.74171 
" clip-path="url(#pfa7e808efc)" style="fill: none; stroke: #000000; stroke-linejoin: miter"/>
   </g>
  </g>
  <g id="axes_3">
   <g id="patch_4">
    <path d="M 34.257798 38.160826 
Q 37.230275 39.535596 41.949083 39.721376 
Q 43.472477 39.721376 44.159862 38.550963 
Q 44.847248 37.38055 44.847248 35.82 
Q 44.847248 35.299817 44.754358 34.909679 
Q 44.661468 34.519541 44.419954 34.296606 
Q 44.17844 34.07367 44.011239 33.943624 
Q 43.844037 33.813578 43.398165 33.757844 
Q 42.952294 33.70211 42.747936 33.683532 
Q 42.543578 33.664954 41.967661 33.683532 
Q 41.391743 33.70211 41.168807 33.70211 
Q 39.125229 33.70211 37.638991 35.578486 
Q 36.152752 37.454862 36.152752 39.609908 
Q 36.152752 42.619541 38.084862 44.570229 
Q 40.016972 46.520917 43.063761 46.520917 
Q 45.218807 46.818165 46.742202 44.29156 
" clip-path="url(#p34717cea37)" style="fill: none; stroke: #000000; stroke-linejoin: miter"/>
   </g>
  </g>
  <g id="axes_4"/>
  <g id="axes_5">
   <g id="patch_5">
    <path d="M 66.584141 38.85304 
L 67.012335 38.85304 
Q 67.83304 38.85304 68.796476 38.745991 
Q 69.759912 38.638943 70.919604 38.460529 
Q 72.079295 38.282115 72.685903 38.210749 
L 79.215859 35.427489 
M 78.894714 25.793128 
Q 78.609251 25.721762 77.574449 25.275727 
Q 76.539648 24.829692 75.897357 24.93674 
Q 75.255066 24.93674 74.737665 25.150837 
Q 74.220264 25.364934 73.881278 25.793128 
Q 73.542291 26.221322 73.27467 26.685198 
Q 73.007048 27.149075 72.864317 27.862731 
Q 72.721586 28.576388 72.614537 29.129471 
Q 72.507489 29.682555 72.489648 30.50326 
Q 72.471806 31.323965 72.453965 31.77 
Q 72.436123 32.216035 72.453965 32.965374 
Q 72.471806 33.714714 72.471806 33.928811 
Q 72.471806 36.605022 73.167621 41.850396 
Q 73.863436 47.095771 73.863436 49.771982 
Q 73.79207 50.057445 73.756388 50.681894 
Q 73.720705 51.306344 73.613656 51.805903 
Q 73.506608 52.305463 73.221145 52.555242 
" clip-path="url(#p7d1dfcf411)" style="fill: none; stroke: #000000; stroke-linejoin: miter"/>
   </g>
  </g>
  <g id="axes_6">
   <g id="patch_6">
    <path d="M 94.643923 36.441748 
Q 93.434968 35.094627 89.462687 35.094627 
Q 87.942857 35.094627 87.165672 35.146439 
Q 86.388486 35.198252 85.38678 35.440043 
Q 84.385075 35.681834 83.901493 36.182687 
Q 83.41791 36.683539 83.072495 37.616162 
Q 82.727079 38.548785 82.727079 39.964989 
Q 82.727079 42.037484 84.143284 43.280981 
Q 85.559488 44.524478 87.493817 44.524478 
Q 90.153518 44.524478 92.916844 38.721493 
Q 94.263966 35.854542 94.263966 35.82 
Q 94.609382 35.578209 94.643923 36.441748 
Q 94.643923 37.512537 95.058422 40.362217 
Q 95.472921 43.211898 95.472921 44.524478 
" clip-path="url(#pe8c30f77f3)" style="fill: none; stroke: #000000; stroke-linejoin: miter"/>
   </g>
  </g>
  <g id="axes_7">
   <g id="patch_7">
    <path d="M 99.008036 34.879821 
Q 99.514286 36.073125 99.803571 42.871339 
Q 99.948214 46.632054 100.2375 46.632054 
Q 100.273661 46.632054 100.309821 46.595893 
Q 100.816071 46.017321 100.870312 44.588973 
Q 100.924554 43.160625 100.707589 41.750357 
Q 100.490625 40.340089 100.2375 38.712857 
Q 99.984375 37.085625 99.984375 36.398571 
Q 99.984375 35.169107 100.364062 33.939643 
Q 100.74375 32.710179 101.720089 32.710179 
Q 102.949554 32.710179 103.672768 34.355491 
Q 104.395982 36.000804 104.558705 37.971563 
Q 104.721429 39.942321 104.829911 41.587634 
Q 104.938393 43.232946 105.083036 43.232946 
Q 105.227679 43.232946 105.31808 41.497232 
Q 105.408482 39.761518 105.535045 37.700357 
Q 105.661607 35.639196 106.384821 33.903482 
Q 107.108036 32.167768 108.3375 32.167768 
Q 109.892411 33.035625 110.561384 34.771339 
Q 111.230357 36.507054 111.194196 38.188527 
Q 111.158036 39.87 111.176116 42.057723 
Q 111.194196 44.245446 111.591964 45.511071 
" clip-path="url(#pbba6d210c3)" style="fill: none; stroke: #000000; stroke-linejoin: miter"/>
   </g>
  </g>
  <g id="axes_8">
   <g id="patch_8">
    <path d="M 122.118579 29.071862 
Q 121.743683 29.146841 121.612469 29.577972 
Q 121.481255 30.009103 121.556234 30.42149 
Q 121.556234 30.571448 121.593724 30.702662 
Q 121.631214 30.833876 121.687448 30.89011 
Q 121.743683 30.946345 121.799917 31.040069 
Q 121.856152 31.133793 121.893641 31.208772 
L 122.00611 29.859145 
M 122.00611 34.020497 
Q 121.106359 39.006621 120.881421 42.793076 
L 121.331297 45.379862 
L 121.668703 46.054676 
" clip-path="url(#p2a60e857a2)" style="fill: none; stroke: #000000; stroke-linejoin: miter"/>
   </g>
  </g>
  <g id="axes_9">
   <g id="patch_9">
    <path d="M 137.306359 28.621986 
Q 137.531297 30.34651 137.606276 32.146014 
Q 137.681255 33.945517 137.66251 36.551048 
Q 137.643766 39.156579 137.643766 40.093821 
Q 137.643766 40.13131 137.868703 45.829738 
L 138.093641 46.841959 
" clip-path="url(#pa8b2de1061)" style="fill: none; stroke: #000000; stroke-linejoin: miter"/>
   </g>
  </g>
  <g id="axes_10">
   <g id="patch_10">
    <path d="M 148.763917 36.382345 
Q 148.726428 36.494814 148.857641 36.701007 
Q 148.988855 36.9072 148.876386 37.057159 
L 148.876386 39.306538 
Q 148.876386 40.506207 149.213793 41.724621 
Q 149.5512 42.943034 150.413462 43.93651 
Q 151.275724 44.929986 152.475393 44.929986 
Q 153.712552 44.929986 154.387366 43.861531 
Q 155.062179 42.793076 155.512055 41.143531 
Q 155.961931 39.493986 156.299338 38.969131 
L 157.086621 36.382345 
L 156.861683 42.680607 
L 156.861683 45.154924 
Q 156.861683 47.066897 157.592731 51.00331 
Q 158.323779 54.939724 158.323779 56.964166 
Q 159.073572 59.213545 157.986372 60.188276 
Q 156.899172 61.163007 154.837241 60.78811 
Q 153.037738 60.488193 152.119241 60.169531 
Q 151.200745 59.850869 149.213793 58.988607 
L 149.101324 58.426262 
" clip-path="url(#pd89973fef8)" style="fill: none; stroke: #000000; stroke-linejoin: miter"/>
   </g>
  </g>
  <g id="axes_11"/>
  <g id="axes_12">
   <g id="patch_11">
    <path d="M 180.008036 34.879821 
Q 180.514286 36.073125 180.803571 42.871339 
Q 180.948214 46.632054 181.2375 46.632054 
Q 181.273661 46.632054 181.309821 46.595893 
Q 181.816071 46.017321 181.870312 44.588973 
Q 181.924554 43.160625 181.707589 41.750357 
Q 181.490625 40.340089 181.2375 38.712857 
Q 180.984375 37.085625 180.984375 36.398571 
Q 180.984375 35.169107 181.364062 33.939643 
Q 181.74375 32.710179 182.720089 32.710179 
Q 183.949554 32.710179 184.672768 34.355491 
Q 185.395982 36.000804 185.558705 37.971563 
Q 185.721429 39.942321 185.829911 41.587634 
Q 185.938393 43.232946 186.083036 43.232946 
Q 186.227679 43.232946 186.31808 41.497232 
Q 186.408482 39.761518 186.535045 37.700357 
Q 186.661607 35.639196 187.384821 33.903482 
Q 188.108036 32.167768 189.3375 32.167768 
Q 190.892411 33.035625 191.561384 34.771339 
Q 192.230357 36.507054 192.194196 38.188527 
Q 192.158036 39.87 192.176116 42.057723 
Q 192.194196 44.245446 192.591964 45.511071 
" clip-path="url(#p608baa4bbc)" style="fill: none; stroke: #000000; stroke-linejoin: miter"/>
   </g>
  </g>
  <g id="axes_13">
   <g id="patch_12">
    <path d="M 205.7616 35.032717 
Q 204.71189 34.582841 203.737159 34.69531 
Q 200.700497 35.032717 198.788524 36.701007 
Q 196.876552 38.369297 196.876552 41.330979 
Q 196.876552 43.917766 198.882248 45.6048 
Q 200.887945 47.291834 203.512221 47.291834 
Q 205.874069 47.291834 206.998759 45.361117 
Q 208.123448 43.4304 208.123448 40.881103 
Q 208.123448 39.643945 207.711062 38.706703 
Q 207.298676 37.769462 206.773821 37.300841 
Q 206.248966 36.832221 205.499172 36.119917 
Q 204.749379 35.407614 204.299503 34.69531 
L 203.062345 34.245434 
" clip-path="url(#p97477041e1)" style="fill: none; stroke: #000000; stroke-linejoin: miter"/>
   </g>
  </g>
  <g id="axes_14">
   <g id="patch_13">
    <path d="M 212.408036 34.879821 
Q 212.914286 36.073125 213.203571 42.871339 
Q 213.348214 46.632054 213.6375 46.632054 
Q 213.673661 46.632054 213.709821 46.595893 
Q 214.216071 46.017321 214.270312 44.588973 
Q 214.324554 43.160625 214.107589 41.750357 
Q 213.890625 40.340089 213.6375 38.712857 
Q 213.384375 37.085625 213.384375 36.398571 
Q 213.384375 35.169107 213.764062 33.939643 
Q 214.14375 32.710179 215.120089 32.710179 
Q 216.349554 32.710179 217.072768 34.355491 
Q 217.795982 36.000804 217.958705 37.971563 
Q 218.121429 39.942321 218.229911 41.587634 
Q 218.338393 43.232946 218.483036 43.232946 
Q 218.627679 43.232946 218.71808 41.497232 
Q 218.808482 39.761518 218.935045 37.700357 
Q 219.061607 35.639196 219.784821 33.903482 
Q 220.508036 32.167768 221.7375 32.167768 
Q 223.292411 33.035625 223.961384 34.771339 
Q 224.630357 36.507054 224.594196 38.188527 
Q 224.558036 39.87 224.576116 42.057723 
Q 224.594196 44.245446 224.991964 45.511071 
" clip-path="url(#p320eee6c8c)" style="fill: none; stroke: #000000; stroke-linejoin: miter"/>
   </g>
  </g>
  <g id="axes_15">
   <g id="patch_14">
    <path d="M 228.657798 38.160826 
Q 231.630275 39.535596 236.349083 39.721376 
Q 237.872477 39.721376 238.559862 38.550963 
Q 239.247248 37.38055 239.247248 35.82 
Q 239.247248 35.299817 239.154358 34.909679 
Q 239.061468 34.519541 238.819954 34.296606 
Q 238.57844 34.07367 238.411239 33.943624 
Q 238.244037 33.813578 237.798165 33.757844 
Q 237.352294 33.70211 237.147936 33.683532 
Q 236.943578 33.664954 236.367661 33.683532 
Q 235.791743 33.70211 235.568807 33.70211 
Q 233.525229 33.70211 232.038991 35.578486 
Q 230.552752 37.454862 230.552752 39.609908 
Q 230.552752 42.619541 232.484862 44.570229 
Q 234.416972 46.520917 237.463761 46.520917 
Q 239.618807 46.818165 241.142202 44.29156 
" clip-path="url(#p690427e10e)" style="fill: none; stroke: #000000; stroke-linejoin: miter"/>
   </g>
  </g>
  <g id="axes_16">
   <g id="patch_15">
    <path d="M 246.638731 37.282097 
L 246.638731 37.844441 
Q 246.901159 39.868883 246.938648 41.312234 
Q 246.976138 42.755586 246.882414 44.667559 
Q 246.78869 46.579531 246.78869 48.191586 
L 246.863669 39.643945 
Q 246.863669 38.144359 248.456979 37.507034 
Q 250.05029 36.86971 251.474897 37.282097 
Q 253.386869 37.844441 254.305366 39.04411 
Q 255.223862 40.243779 255.280097 41.668386 
Q 255.336331 43.092993 255.373821 44.817517 
Q 255.41131 46.542041 255.561269 48.191586 
" clip-path="url(#p98b4c44f93)" style="fill: none; stroke: #000000; stroke-linejoin: miter"/>
   </g>
  </g>
  <g id="axes_17">
   <g id="patch_16">
    <path d="M 262.463834 37.95691 
L 263.138648 37.95691 
Q 263.850952 37.95691 264.638234 37.881931 
Q 265.425517 37.806952 266.381503 37.675738 
Q 267.33749 37.544524 267.862345 37.507034 
L 272.136166 35.82 
M 268.087283 30.42149 
L 268.087283 31.43371 
Q 268.087283 33.383172 267.412469 37.207117 
Q 266.737655 41.031062 266.737655 43.018014 
Q 266.737655 43.805297 266.737655 44.105214 
Q 266.737655 44.405131 266.831379 45.042455 
Q 266.925103 45.679779 267.112552 45.960952 
Q 267.3 46.242124 267.693641 46.485807 
Q 268.087283 46.72949 268.649628 46.72949 
Q 268.762097 46.692 269.080759 46.72949 
Q 269.399421 46.766979 269.586869 46.710745 
Q 269.774317 46.65451 269.774317 46.392083 
" clip-path="url(#pffd79470de)" style="fill: none; stroke: #000000; stroke-linejoin: miter"/>
   </g>
  </g>
  <g id="axes_18">
   <g id="patch_17">
    <path d="M 279.057476 43.917766 
Q 279.357393 44.180193 280.369614 45.154924 
Q 281.381834 46.129655 281.944179 46.560786 
Q 282.506524 46.991917 283.53749 47.385559 
Q 284.568455 47.7792 285.580676 47.629241 
Q 286.25549 47.629241 286.72411 47.404303 
Q 287.192731 47.179366 287.417669 46.879448 
Q 287.642607 46.579531 287.773821 45.979697 
Q 287.905034 45.379862 287.923779 44.967476 
Q 287.942524 44.55509 287.942524 43.805297 
Q 287.942524 42.718097 287.042772 42.043283 
Q 286.143021 41.368469 284.849628 41.031062 
Q 283.556234 40.693655 282.262841 40.300014 
Q 280.969448 39.906372 280.069697 38.987876 
Q 279.169945 38.069379 279.169945 36.607283 
Q 279.169945 36.082428 279.338648 35.726276 
Q 279.507352 35.370124 279.900993 35.145186 
Q 280.294634 34.920248 280.575807 34.807779 
Q 280.856979 34.69531 281.513048 34.639076 
Q 282.169117 34.582841 282.356566 34.582841 
Q 282.544014 34.582841 283.218828 34.582841 
Q 284.418497 34.582841 284.999586 34.995228 
Q 285.580676 35.407614 285.899338 36.026193 
Q 286.218 36.644772 286.480428 36.832221 
" clip-path="url(#p98cdcbe23a)" style="fill: none; stroke: #000000; stroke-linejoin: miter"/>
   </g>
  </g>
  <g id="axes_19"/>
  <g id="axes_20">
   <g id="patch_18">
    <path d="M 319.1616 35.032717 
Q 318.11189 34.582841 317.137159 34.69531 
Q 314.100497 35.032717 312.188524 36.701007 
Q 310.276552 38.369297 310.276552 41.330979 
Q 310.276552 43.917766 312.282248 45.6048 
Q 314.287945 47.291834 316.912221 47.291834 
Q 319.274069 47.291834 320.398759 45.361117 
Q 321.523448 43.4304 321.523448 40.881103 
Q 321.523448 39.643945 321.111062 38.706703 
Q 320.698676 37.769462 320.173821 37.300841 
Q 319.648966 36.832221 318.899172 36.119917 
Q 318.149379 35.407614 317.699503 34.69531 
L 316.462345 34.245434 
" clip-path="url(#p2d137fc41f)" style="fill: none; stroke: #000000; stroke-linejoin: miter"/>
   </g>
  </g>
  <g id="axes_21">
   <g id="patch_19">
    <path d="M 325.784141 38.85304 
L 326.212335 38.85304 
Q 327.03304 38.85304 327.996476 38.745991 
Q 328.959912 38.638943 330.119604 38.460529 
Q 331.279295 38.282115 331.885903 38.210749 
L 338.415859 35.427489 
M 338.094714 25.793128 
Q 337.809251 25.721762 336.774449 25.275727 
Q 335.739648 24.829692 335.097357 24.93674 
Q 334.455066 24.93674 333.937665 25.150837 
Q 333.420264 25.364934 333.081278 25.793128 
Q 332.742291 26.221322 332.47467 26.685198 
Q 332.207048 27.149075 332.064317 27.862731 
Q 331.921586 28.576388 331.814537 29.129471 
Q 331.707489 29.682555 331.689648 30.50326 
Q 331.671806 31.323965 331.653965 31.77 
Q 331.636123 32.216035 331.653965 32.965374 
Q 331.671806 33.714714 331.671806 33.928811 
Q 331.671806 36.605022 332.367621 41.850396 
Q 333.063436 47.095771 333.063436 49.771982 
Q 332.99207 50.057445 332.956388 50.681894 
Q 332.920705 51.306344 332.813656 51.805903 
Q 332.706608 52.305463 332.421145 52.555242 
" clip-path="url(#p2bc254b63c)" style="fill: none; stroke: #000000; stroke-linejoin: miter"/>
   </g>
  </g>
  <g id="axes_22"/>
  <g id="axes_23">
   <g id="patch_20">
    <path d="M 364.856152 30.309021 
Q 364.368786 30.42149 364.781172 30.833876 
Q 365.156069 31.208772 365.231048 30.946345 
Q 365.268538 30.871366 365.193559 30.646428 
Q 365.193559 30.458979 365.118579 30.42149 
Q 365.0436 30.384 364.912386 30.42149 
Q 364.781172 30.458979 364.631214 30.42149 
L 364.518745 30.646428 
M 365.418497 33.345683 
Q 366.468207 37.731972 366.993062 40.13131 
Q 367.517917 42.530648 367.967793 46.317103 
Q 368.417669 50.103559 368.230221 53.25269 
Q 368.230221 53.440138 368.230221 54.021228 
Q 368.230221 54.602317 368.230221 54.902234 
Q 368.230221 55.202152 368.211476 55.783241 
Q 368.192731 56.364331 368.117752 56.701738 
Q 368.042772 57.039145 367.930303 57.52651 
Q 367.817834 58.013876 367.611641 58.313793 
Q 367.405448 58.61371 367.143021 58.894883 
Q 366.880593 59.176055 366.505697 59.307269 
Q 366.1308 59.438483 365.643434 59.438483 
Q 364.668703 59.438483 363.91891 59.251034 
Q 363.169117 59.063586 362.306855 58.707434 
Q 361.444593 58.351283 360.807269 58.201324 
L 360.582331 57.751448 
" clip-path="url(#p0fa41b8b3f)" style="fill: none; stroke: #000000; stroke-linejoin: miter"/>
   </g>
  </g>
  <g id="axes_24">
   <g id="patch_21">
    <path d="M 383.9616 35.032717 
Q 382.91189 34.582841 381.937159 34.69531 
Q 378.900497 35.032717 376.988524 36.701007 
Q 375.076552 38.369297 375.076552 41.330979 
Q 375.076552 43.917766 377.082248 45.6048 
Q 379.087945 47.291834 381.712221 47.291834 
Q 384.074069 47.291834 385.198759 45.361117 
Q 386.323448 43.4304 386.323448 40.881103 
Q 386.323448 39.643945 385.911062 38.706703 
Q 385.498676 37.769462 384.973821 37.300841 
Q 384.448966 36.832221 383.699172 36.119917 
Q 382.949379 35.407614 382.499503 34.69531 
L 381.262345 34.245434 
" clip-path="url(#pce420a8bd7)" style="fill: none; stroke: #000000; stroke-linejoin: miter"/>
   </g>
  </g>
  <g id="axes_25">
   <g id="patch_22">
    <path d="M 391.763917 36.382345 
Q 391.726428 36.494814 391.857641 36.701007 
Q 391.988855 36.9072 391.876386 37.057159 
L 391.876386 39.306538 
Q 391.876386 40.506207 392.213793 41.724621 
Q 392.5512 42.943034 393.413462 43.93651 
Q 394.275724 44.929986 395.475393 44.929986 
Q 396.712552 44.929986 397.387366 43.861531 
Q 398.062179 42.793076 398.512055 41.143531 
Q 398.961931 39.493986 399.299338 38.969131 
L 400.086621 36.382345 
L 399.861683 42.680607 
L 399.861683 45.154924 
Q 399.861683 47.066897 400.592731 51.00331 
Q 401.323779 54.939724 401.323779 56.964166 
Q 402.073572 59.213545 400.986372 60.188276 
Q 399.899172 61.163007 397.837241 60.78811 
Q 396.037738 60.488193 395.119241 60.169531 
Q 394.200745 59.850869 392.213793 58.988607 
L 392.101324 58.426262 
" clip-path="url(#p2f514ea4f3)" style="fill: none; stroke: #000000; stroke-linejoin: miter"/>
   </g>
  </g>
  <g id="axes_26">
   <g id="patch_23">
    <path d="M 412.387697 39.981352 
Q 413.399917 40.956083 413.737324 42.905545 
Q 413.924772 43.955255 413.512386 46.167145 
L 412.275228 47.629241 
" clip-path="url(#pb53198aaaf)" style="fill: none; stroke: #000000; stroke-linejoin: miter"/>
   </g>
  </g>
  <g id="axes_27"/>
  <g id="axes_28">
   <g id="patch_24">
    <path d="M 445.106359 28.621986 
Q 445.331297 30.34651 445.406276 32.146014 
Q 445.481255 33.945517 445.46251 36.551048 
Q 445.443766 39.156579 445.443766 40.093821 
Q 445.443766 40.13131 445.668703 45.829738 
L 445.893641 46.841959 
" clip-path="url(#p934a3f8be4)" style="fill: none; stroke: #000000; stroke-linejoin: miter"/>
   </g>
  </g>
  <g id="axes_29">
   <g id="patch_25">
    <path d="M 467.243923 36.441748 
Q 466.034968 35.094627 462.062687 35.094627 
Q 460.542857 35.094627 459.765672 35.146439 
Q 458.988486 35.198252 457.98678 35.440043 
Q 456.985075 35.681834 456.501493 36.182687 
Q 456.01791 36.683539 455.672495 37.616162 
Q 455.327079 38.548785 455.327079 39.964989 
Q 455.327079 42.037484 456.743284 43.280981 
Q 458.159488 44.524478 460.093817 44.524478 
Q 462.753518 44.524478 465.516844 38.721493 
Q 466.863966 35.854542 466.863966 35.82 
Q 467.209382 35.578209 467.243923 36.441748 
Q 467.243923 37.512537 467.658422 40.362217 
Q 468.072921 43.211898 468.072921 44.524478 
" clip-path="url(#p994d439a58)" style="fill: none; stroke: #000000; stroke-linejoin: miter"/>
   </g>
  </g>
  <g id="axes_30">
   <g id="patch_26">
    <path d="M 473.288772 35.145186 
Q 473.288772 35.145186 473.288772 35.595062 
Q 473.288772 36.269876 473.176303 37.619503 
Q 473.063834 38.969131 473.063834 39.643945 
Q 473.063834 41.930814 474.300993 43.599103 
Q 475.538152 45.267393 477.675062 45.267393 
Q 479.062179 45.154924 479.830717 43.917766 
Q 480.599255 42.680607 480.749214 41.237255 
Q 480.899172 39.793903 481.1616 37.9944 
Q 481.424028 36.194897 481.836414 35.370124 
Q 481.986372 35.070207 481.986372 35.670041 
Q 481.986372 36.269876 481.723945 38.706703 
Q 481.499007 41.031062 481.499007 41.555917 
Q 481.349048 42.643117 481.686455 43.767807 
Q 482.023862 44.892497 482.736166 45.6048 
" clip-path="url(#p109888868b)" style="fill: none; stroke: #000000; stroke-linejoin: miter"/>
   </g>
  </g>
  <g id="axes_31">
   <g id="patch_27">
    <path d="M 498.887191 39.096404 
Q 498.63236 39.023596 497.66764 38.623146 
Q 496.702921 38.222697 496.04764 38.077079 
Q 495.39236 37.931461 494.737079 38.00427 
Q 492.115955 38.00427 490.477753 40.388764 
Q 488.839551 42.773258 488.839551 45.430787 
Q 488.839551 47.068989 494.081798 47.068989 
Q 495.647191 47.068989 496.975955 45.558202 
Q 498.304719 44.047416 498.978202 42.172584 
Q 499.651685 40.297753 499.651685 38.768764 
Q 499.651685 37.27618 499.615281 36.984944 
L 499.542472 38.077079 
Q 499.542472 38.550337 499.542472 38.987191 
Q 499.578876 40.188539 499.779101 42.281798 
Q 499.979326 44.375056 500.143146 46.049663 
Q 500.306966 47.72427 500.343371 49.872135 
Q 500.379775 52.02 500.215955 53.658202 
Q 500.052135 55.296404 499.487865 56.971011 
Q 498.923596 58.645618 497.995281 59.737753 
Q 497.066966 60.829888 495.465169 61.521573 
Q 493.863371 62.213258 491.715506 62.213258 
Q 490.077303 62.213258 488.985169 61.466966 
Q 487.893034 60.720674 487.893034 59.155281 
Q 487.820225 58.936854 487.856629 58.936854 
Q 487.893034 58.936854 488.002247 58.936854 
Q 488.111461 58.936854 488.111461 58.82764 
" clip-path="url(#pd0ecc1e33a)" style="fill: none; stroke: #000000; stroke-linejoin: miter"/>
   </g>
  </g>
  <g id="axes_32">
   <g id="patch_28">
    <path d="M 506.813462 35.932469 
Q 507.413297 35.257655 508.406772 34.826524 
Q 509.400248 34.395393 510.3 34.470372 
Q 510.937324 34.470372 511.42469 34.639076 
Q 511.912055 34.807779 512.230717 34.995228 
Q 512.549379 35.182676 512.774317 35.670041 
Q 512.999255 36.157407 513.111724 36.419834 
Q 513.224193 36.682262 513.280428 37.375821 
Q 513.336662 38.069379 513.355407 38.331807 
Q 513.374152 38.594234 513.355407 39.419007 
Q 513.336662 40.243779 513.336662 40.431228 
Q 513.336662 41.368469 513.167959 43.242952 
Q 512.999255 45.117434 512.999255 46.054676 
Q 512.999255 46.467062 513.05549 46.823214 
Q 513.111724 47.179366 513.205448 47.610497 
Q 513.299172 48.041628 513.336662 48.304055 
L 513.786538 48.528993 
M 507.263338 23.111007 
Q 507.488276 24.798041 507.488276 29.971614 
L 507.488276 42.3432 
L 507.150869 46.841959 
L 506.925931 47.74171 
" clip-path="url(#pc40258fbdc)" style="fill: none; stroke: #000000; stroke-linejoin: miter"/>
   </g>
  </g>
  <g id="axes_33">
   <g id="patch_29">
    <path d="M 521.663834 37.95691 
L 522.338648 37.95691 
Q 523.050952 37.95691 523.838234 37.881931 
Q 524.625517 37.806952 525.581503 37.675738 
Q 526.53749 37.544524 527.062345 37.507034 
L 531.336166 35.82 
M 527.287283 30.42149 
L 527.287283 31.43371 
Q 527.287283 33.383172 526.612469 37.207117 
Q 525.937655 41.031062 525.937655 43.018014 
Q 525.937655 43.805297 525.937655 44.105214 
Q 525.937655 44.405131 526.031379 45.042455 
Q 526.125103 45.679779 526.312552 45.960952 
Q 526.5 46.242124 526.893641 46.485807 
Q 527.287283 46.72949 527.849628 46.72949 
Q 527.962097 46.692 528.280759 46.72949 
Q 528.599421 46.766979 528.786869 46.710745 
Q 528.974317 46.65451 528.974317 46.392083 
" clip-path="url(#p196d9199a0)" style="fill: none; stroke: #000000; stroke-linejoin: miter"/>
   </g>
  </g>
  <g id="axes_34">
   <g id="patch_30">
    <path d="M 536.457798 38.160826 
Q 539.430275 39.535596 544.149083 39.721376 
Q 545.672477 39.721376 546.359862 38.550963 
Q 547.047248 37.38055 547.047248 35.82 
Q 547.047248 35.299817 546.954358 34.909679 
Q 546.861468 34.519541 546.619954 34.296606 
Q 546.37844 34.07367 546.211239 33.943624 
Q 546.044037 33.813578 545.598165 33.757844 
Q 545.152294 33.70211 544.947936 33.683532 
Q 544.743578 33.664954 544.167661 33.683532 
Q 543.591743 33.70211 543.368807 33.70211 
Q 541.325229 33.70211 539.838991 35.578486 
Q 538.352752 37.454862 538.352752 39.609908 
Q 538.352752 42.619541 540.284862 44.570229 
Q 542.216972 46.520917 545.263761 46.520917 
Q 547.418807 46.818165 548.942202 44.29156 
" clip-path="url(#p72292dd772)" style="fill: none; stroke: #000000; stroke-linejoin: miter"/>
   </g>
  </g>
  <g id="axes_35">
   <g id="patch_31">
    <path d="M 555.413462 32.783338 
Q 555.938317 34.507862 556.069531 36.457324 
Q 556.200745 38.406786 556.125766 40.956083 
Q 556.050786 43.505379 556.088276 44.705048 
L 556.200745 46.054676 
L 556.200745 45.829738 
Q 556.200745 44.667559 555.919572 42.30571 
Q 555.6384 39.943862 555.6384 38.744193 
Q 555.6384 36.419834 556.650621 34.882759 
Q 557.662841 33.345683 559.687283 33.345683 
Q 560.399586 33.345683 560.736993 33.626855 
Q 561.0744 33.908028 561.336828 34.432883 
Q 561.599255 34.957738 561.936662 35.257655 
L 562.386538 36.832221 
" clip-path="url(#p89278658f3)" style="fill: none; stroke: #000000; stroke-linejoin: miter"/>
   </g>
  </g>
  <g id="axes_36">
   <g id="patch_32">
    <path d="M 574.387697 39.981352 
Q 575.399917 40.956083 575.737324 42.905545 
Q 575.924772 43.955255 575.512386 46.167145 
L 574.275228 47.629241 
" clip-path="url(#pf85efd5224)" style="fill: none; stroke: #000000; stroke-linejoin: miter"/>
   </g>
  </g>
  <g id="axes_37"/>
  <g id="axes_38">
   <g id="patch_33">
    <path d="M 613.043923 36.441748 
Q 611.834968 35.094627 607.862687 35.094627 
Q 606.342857 35.094627 605.565672 35.146439 
Q 604.788486 35.198252 603.78678 35.440043 
Q 602.785075 35.681834 602.301493 36.182687 
Q 601.81791 36.683539 601.472495 37.616162 
Q 601.127079 38.548785 601.127079 39.964989 
Q 601.127079 42.037484 602.543284 43.280981 
Q 603.959488 44.524478 605.893817 44.524478 
Q 608.553518 44.524478 611.316844 38.721493 
Q 612.663966 35.854542 612.663966 35.82 
Q 613.009382 35.578209 613.043923 36.441748 
Q 613.043923 37.512537 613.458422 40.362217 
Q 613.872921 43.211898 613.872921 44.524478 
" clip-path="url(#p40188eca82)" style="fill: none; stroke: #000000; stroke-linejoin: miter"/>
   </g>
  </g>
  <g id="axes_39">
   <g id="patch_34">
    <path d="M 619.238731 37.282097 
L 619.238731 37.844441 
Q 619.501159 39.868883 619.538648 41.312234 
Q 619.576138 42.755586 619.482414 44.667559 
Q 619.38869 46.579531 619.38869 48.191586 
L 619.463669 39.643945 
Q 619.463669 38.144359 621.056979 37.507034 
Q 622.65029 36.86971 624.074897 37.282097 
Q 625.986869 37.844441 626.905366 39.04411 
Q 627.823862 40.243779 627.880097 41.668386 
Q 627.936331 43.092993 627.973821 44.817517 
Q 628.01131 46.542041 628.161269 48.191586 
" clip-path="url(#pe39c421c40)" style="fill: none; stroke: #000000; stroke-linejoin: miter"/>
   </g>
  </g>
  <g id="axes_40">
   <g id="patch_35">
    <path d="M 643.499007 39.568966 
Q 642.149379 38.181848 639.9 38.444276 
Q 637.050786 38.444276 635.888607 39.793903 
Q 634.726428 41.143531 634.726428 44.067724 
Q 634.726428 45.56731 636.019821 46.279614 
Q 637.313214 46.991917 638.887779 46.991917 
Q 640.199917 46.991917 641.212138 45.736014 
Q 642.224359 44.48011 642.805448 42.30571 
Q 643.386538 40.13131 643.761434 37.938166 
Q 644.136331 35.745021 644.28629 33.045766 
Q 644.436248 30.34651 644.473738 28.978138 
Q 644.511228 27.609766 644.511228 26.185159 
Q 644.28629 26.260138 644.28629 29.896634 
L 644.28629 44.292662 
L 645.073572 48.229076 
" clip-path="url(#p137238db04)" style="fill: none; stroke: #000000; stroke-linejoin: miter"/>
   </g>
  </g>
 </g>
 <defs>
  <clipPath id="p15dfbb51b3">
   <rect x="1.389352" y="8.64" width="13.421297" height="54.36"/>
  </clipPath>
  <clipPath id="pfa7e808efc">
   <rect x="18.938979" y="8.64" width="10.722041" height="54.36"/>
  </clipPath>
  <clipPath id="p34717cea37">
   <rect x="32.4" y="8.881927" width="16.2" height="53.876147"/>
  </clipPath>
  <clipPath id="p7d1dfcf411">
   <rect x="64.8" y="9.949956" width="16.2" height="51.740088"/>
  </clipPath>
  <clipPath id="pe8c30f77f3">
   <rect x="81" y="10.777356" width="16.2" height="50.085288"/>
  </clipPath>
  <clipPath id="pbba6d210c3">
   <rect x="97.2" y="9.603482" width="16.2" height="52.433036"/>
  </clipPath>
  <clipPath id="p2a60e857a2">
   <rect x="119.006938" y="8.64" width="4.986124" height="54.36"/>
  </clipPath>
  <clipPath id="pa8b2de1061">
   <rect x="135.431876" y="8.64" width="4.536248" height="54.36"/>
  </clipPath>
  <clipPath id="pd89973fef8">
   <rect x="146.851945" y="8.64" width="14.09611" height="54.36"/>
  </clipPath>
  <clipPath id="p608baa4bbc">
   <rect x="178.2" y="9.603482" width="16.2" height="52.433036"/>
  </clipPath>
  <clipPath id="p97477041e1">
   <rect x="195.002069" y="8.64" width="14.995862" height="54.36"/>
  </clipPath>
  <clipPath id="p320eee6c8c">
   <rect x="210.6" y="9.603482" width="16.2" height="52.433036"/>
  </clipPath>
  <clipPath id="p690427e10e">
   <rect x="226.8" y="8.881927" width="16.2" height="53.876147"/>
  </clipPath>
  <clipPath id="p98b4c44f93">
   <rect x="244.764248" y="8.64" width="12.671503" height="54.36"/>
  </clipPath>
  <clipPath id="pffd79470de">
   <rect x="260.589352" y="8.64" width="13.421297" height="54.36"/>
  </clipPath>
  <clipPath id="p98cdcbe23a">
   <rect x="277.182993" y="8.64" width="12.634014" height="54.36"/>
  </clipPath>
  <clipPath id="p2d137fc41f">
   <rect x="308.402069" y="8.64" width="14.995862" height="54.36"/>
  </clipPath>
  <clipPath id="p2bc254b63c">
   <rect x="324" y="9.949956" width="16.2" height="51.740088"/>
  </clipPath>
  <clipPath id="p0fa41b8b3f">
   <rect x="358.707848" y="8.64" width="11.584303" height="54.36"/>
  </clipPath>
  <clipPath id="pce420a8bd7">
   <rect x="373.202069" y="8.64" width="14.995862" height="54.36"/>
  </clipPath>
  <clipPath id="p2f514ea4f3">
   <rect x="389.851945" y="8.64" width="14.09611" height="54.36"/>
  </clipPath>
  <clipPath id="pb53198aaaf">
   <rect x="410.400745" y="8.64" width="5.39851" height="54.36"/>
  </clipPath>
  <clipPath id="p934a3f8be4">
   <rect x="443.231876" y="8.64" width="4.536248" height="54.36"/>
  </clipPath>
  <clipPath id="p994d439a58">
   <rect x="453.6" y="10.777356" width="16.2" height="50.085288"/>
  </clipPath>
  <clipPath id="p109888868b">
   <rect x="471.189352" y="8.64" width="13.421297" height="54.36"/>
  </clipPath>
  <clipPath id="pd0ecc1e33a">
   <rect x="486" y="9.426742" width="16.2" height="52.786517"/>
  </clipPath>
  <clipPath id="pc40258fbdc">
   <rect x="504.938979" y="8.64" width="10.722041" height="54.36"/>
  </clipPath>
  <clipPath id="p196d9199a0">
   <rect x="519.789352" y="8.64" width="13.421297" height="54.36"/>
  </clipPath>
  <clipPath id="p72292dd772">
   <rect x="534.6" y="8.881927" width="16.2" height="53.876147"/>
  </clipPath>
  <clipPath id="p89278658f3">
   <rect x="553.538979" y="8.64" width="10.722041" height="54.36"/>
  </clipPath>
  <clipPath id="pf85efd5224">
   <rect x="572.400745" y="8.64" width="5.39851" height="54.36"/>
  </clipPath>
  <clipPath id="p40188eca82">
   <rect x="599.4" y="10.777356" width="16.2" height="50.085288"/>
  </clipPath>
  <clipPath id="pe39c421c40">
   <rect x="617.364248" y="8.64" width="12.671503" height="54.36"/>
  </clipPath>
  <clipPath id="p137238db04">
   <rect x="632.851945" y="8.64" width="14.09611" height="54.36"/>
  </clipPath>
 </defs>
</svg>
