<?xml version="1.0" encoding="utf-8" standalone="no"?>
<!DOCTYPE svg PUBLIC "-//W3C//DTD SVG 1.1//EN"
  "http://www.w3.org/Graphics/SVG/1.1/DTD/svg11.dtd">
<svg xmlns:xlink="http://www.w3.org/1999/xlink" width="270pt" height="72pt" viewBox="0 0 270 72" xmlns="http://www.w3.org/2000/svg" version="1.1">
 <metadata>
  <rdf:RDF xmlns:dc="http://purl.org/dc/elements/1.1/" xmlns:cc="http://creativecommons.org/ns#" xmlns:rdf="http://www.w3.org/1999/02/22-rdf-syntax-ns#">
   <cc:Work>
    <dc:type rdf:resource="http://purl.org/dc/dcmitype/StillImage"/>
    <dc:date>2023-12-13T11:18:40.516649</dc:date>
    <dc:format>image/svg+xml</dc:format>
    <dc:creator>
     <cc:Agent>
      <dc:title>Matplotlib v3.7.1, https://matplotlib.org/</dc:title>
     </cc:Agent>
    </dc:creator>
   </cc:Work>
  </rdf:RDF>
 </metadata>
 <defs>
  <style type="text/css">*{stroke-linejoin: round; stroke-linecap: butt}</style>
 </defs>
 <g id="figure_1">
  <g id="patch_1">
   <path d="M 0 72 
L 270 72 
L 270 0 
L 0 0 
z
" style="fill: #8fff9f"/>
  </g>
  <g id="axes_1">
   <g id="patch_2">
    <path d="M 1.096076 29.835426 
Q 2.148309 32.005656 3.058051 36.631096 
Q 3.967794 41.256536 4.844655 43.251394 
Q 5.524222 43.251394 6.22571 41.979946 
Q 6.927199 40.708498 7.398512 39.173992 
Q 7.869824 37.639486 8.374019 36.368038 
Q 8.878214 35.09659 9.185115 35.09659 
Q 9.40433 35.09659 9.645467 36.378999 
Q 9.886604 37.661407 10.138701 39.206874 
Q 10.390798 40.752341 10.982679 42.03475 
Q 11.57456 43.317158 12.407578 43.317158 
Q 12.714479 43.317158 13.185792 43.130825 
Q 13.657104 42.944493 13.657104 42.725277 
L 13.657104 42.199161 
Q 13.657104 40.576969 13.876319 38.647876 
Q 14.095535 36.718782 14.4682 34.362219 
Q 14.840866 32.005656 14.972395 30.821894 
L 15.103924 29.572368 
" clip-path="url(#p210de0629c)" style="fill: none; stroke: #000000; stroke-linejoin: miter"/>
   </g>
  </g>
  <g id="axes_2">
   <g id="patch_3">
    <path d="M 29.843923 36.441748 
Q 28.634968 35.094627 24.662687 35.094627 
Q 23.142857 35.094627 22.365672 35.146439 
Q 21.588486 35.198252 20.58678 35.440043 
Q 19.585075 35.681834 19.101493 36.182687 
Q 18.61791 36.683539 18.272495 37.616162 
Q 17.927079 38.548785 17.927079 39.964989 
Q 17.927079 42.037484 19.343284 43.280981 
Q 20.759488 44.524478 22.693817 44.524478 
Q 25.353518 44.524478 28.116844 38.721493 
Q 29.463966 35.854542 29.463966 35.82 
Q 29.809382 35.578209 29.843923 36.441748 
Q 29.843923 37.512537 30.258422 40.362217 
Q 30.672921 43.211898 30.672921 44.524478 
" clip-path="url(#pbbad7f6ef1)" style="fill: none; stroke: #000000; stroke-linejoin: miter"/>
   </g>
  </g>
  <g id="axes_3">
   <g id="patch_4">
    <path d="M 37.013462 32.783338 
Q 37.538317 34.507862 37.669531 36.457324 
Q 37.800745 38.406786 37.725766 40.956083 
Q 37.650786 43.505379 37.688276 44.705048 
L 37.800745 46.054676 
L 37.800745 45.829738 
Q 37.800745 44.667559 37.519572 42.30571 
Q 37.2384 39.943862 37.2384 38.744193 
Q 37.2384 36.419834 38.250621 34.882759 
Q 39.262841 33.345683 41.287283 33.345683 
Q 41.999586 33.345683 42.336993 33.626855 
Q 42.6744 33.908028 42.936828 34.432883 
Q 43.199255 34.957738 43.536662 35.257655 
L 43.986538 36.832221 
" clip-path="url(#pd791d3c2f0)" style="fill: none; stroke: #000000; stroke-linejoin: miter"/>
   </g>
  </g>
  <g id="axes_4">
   <g id="patch_5">
    <path d="M 50.408036 34.879821 
Q 50.914286 36.073125 51.203571 42.871339 
Q 51.348214 46.632054 51.6375 46.632054 
Q 51.673661 46.632054 51.709821 46.595893 
Q 52.216071 46.017321 52.270313 44.588973 
Q 52.324554 43.160625 52.107589 41.750357 
Q 51.890625 40.340089 51.6375 38.712857 
Q 51.384375 37.085625 51.384375 36.398571 
Q 51.384375 35.169107 51.764063 33.939643 
Q 52.14375 32.710179 53.120089 32.710179 
Q 54.349554 32.710179 55.072768 34.355491 
Q 55.795982 36.000804 55.958705 37.971562 
Q 56.121429 39.942321 56.229911 41.587634 
Q 56.338393 43.232946 56.483036 43.232946 
Q 56.627679 43.232946 56.71808 41.497232 
Q 56.808482 39.761518 56.935045 37.700357 
Q 57.061607 35.639196 57.784821 33.903482 
Q 58.508036 32.167768 59.7375 32.167768 
Q 61.292411 33.035625 61.961384 34.771339 
Q 62.630357 36.507054 62.594196 38.188527 
Q 62.558036 39.87 62.576116 42.057723 
Q 62.594196 44.245446 62.991964 45.511071 
" clip-path="url(#p9032682f56)" style="fill: none; stroke: #000000; stroke-linejoin: miter"/>
   </g>
  </g>
  <g id="axes_5">
   <g id="patch_6">
    <path d="M 66.657798 38.160826 
Q 69.630275 39.535596 74.349083 39.721376 
Q 75.872477 39.721376 76.559862 38.550963 
Q 77.247248 37.38055 77.247248 35.82 
Q 77.247248 35.299817 77.154358 34.909679 
Q 77.061468 34.519541 76.819954 34.296606 
Q 76.57844 34.07367 76.411239 33.943624 
Q 76.244037 33.813578 75.798165 33.757844 
Q 75.352294 33.70211 75.147936 33.683532 
Q 74.943578 33.664954 74.367661 33.683532 
Q 73.791743 33.70211 73.568807 33.70211 
Q 71.525229 33.70211 70.038991 35.578486 
Q 68.552752 37.454862 68.552752 39.609908 
Q 68.552752 42.619541 70.484862 44.570229 
Q 72.416972 46.520917 75.463761 46.520917 
Q 77.618807 46.818165 79.142202 44.29156 
" clip-path="url(#paef6d915f6)" style="fill: none; stroke: #000000; stroke-linejoin: miter"/>
   </g>
  </g>
  <g id="axes_6">
   <g id="patch_7">
    <path d="M 84.657476 43.917766 
Q 84.957393 44.180193 85.969614 45.154924 
Q 86.981834 46.129655 87.544179 46.560786 
Q 88.106524 46.991917 89.13749 47.385559 
Q 90.168455 47.7792 91.180676 47.629241 
Q 91.85549 47.629241 92.32411 47.404303 
Q 92.792731 47.179366 93.017669 46.879448 
Q 93.242607 46.579531 93.373821 45.979697 
Q 93.505034 45.379862 93.523779 44.967476 
Q 93.542524 44.55509 93.542524 43.805297 
Q 93.542524 42.718097 92.642772 42.043283 
Q 91.743021 41.368469 90.449628 41.031062 
Q 89.156234 40.693655 87.862841 40.300014 
Q 86.569448 39.906372 85.669697 38.987876 
Q 84.769945 38.069379 84.769945 36.607283 
Q 84.769945 36.082428 84.938648 35.726276 
Q 85.107352 35.370124 85.500993 35.145186 
Q 85.894634 34.920248 86.175807 34.807779 
Q 86.456979 34.69531 87.113048 34.639076 
Q 87.769117 34.582841 87.956566 34.582841 
Q 88.144014 34.582841 88.818828 34.582841 
Q 90.018497 34.582841 90.599586 34.995228 
Q 91.180676 35.407614 91.499338 36.026193 
Q 91.818 36.644772 92.080428 36.832221 
" clip-path="url(#p94236962ac)" style="fill: none; stroke: #000000; stroke-linejoin: miter"/>
   </g>
  </g>
  <g id="axes_7">
   <g id="patch_8">
    <path d="M 100.463834 37.95691 
L 101.138648 37.95691 
Q 101.850952 37.95691 102.638234 37.881931 
Q 103.425517 37.806952 104.381503 37.675738 
Q 105.33749 37.544524 105.862345 37.507034 
L 110.136166 35.82 
M 106.087283 30.42149 
L 106.087283 31.43371 
Q 106.087283 33.383172 105.412469 37.207117 
Q 104.737655 41.031062 104.737655 43.018014 
Q 104.737655 43.805297 104.737655 44.105214 
Q 104.737655 44.405131 104.831379 45.042455 
Q 104.925103 45.679779 105.112552 45.960952 
Q 105.3 46.242124 105.693641 46.485807 
Q 106.087283 46.72949 106.649628 46.72949 
Q 106.762097 46.692 107.080759 46.72949 
Q 107.399421 46.766979 107.586869 46.710745 
Q 107.774317 46.65451 107.774317 46.392083 
" clip-path="url(#p5e5f33c8be)" style="fill: none; stroke: #000000; stroke-linejoin: miter"/>
   </g>
  </g>
  <g id="axes_8"/>
  <g id="axes_9">
   <g id="patch_9">
    <path d="M 131.316102 36.437797 
L 132.551695 44.778051 
Q 132.654661 45.567458 132.654661 45.60178 
Q 132.654661 45.704746 132.963559 45.704746 
Q 133.82161 45.704746 134.542373 44.778051 
Q 135.263136 43.851356 135.675 42.718729 
Q 136.086864 41.586102 136.601695 40.659407 
Q 137.116525 39.732712 137.597034 39.732712 
Q 138.214831 39.732712 138.849788 40.607924 
Q 139.484746 41.483136 139.948093 42.512797 
Q 140.411441 43.542458 141.08072 44.417669 
Q 141.75 45.292881 142.436441 45.292881 
Q 142.711017 43.782712 143.140042 39.69839 
Q 143.569068 35.614068 144.083898 33.554746 
" clip-path="url(#pf9542f7c82)" style="fill: none; stroke: #000000; stroke-linejoin: miter"/>
   </g>
  </g>
  <g id="axes_10">
   <g id="patch_10">
    <path d="M 154.518579 29.071862 
Q 154.143683 29.146841 154.012469 29.577972 
Q 153.881255 30.009103 153.956234 30.42149 
Q 153.956234 30.571448 153.993724 30.702662 
Q 154.031214 30.833876 154.087448 30.89011 
Q 154.143683 30.946345 154.199917 31.040069 
Q 154.256152 31.133793 154.293641 31.208772 
L 154.40611 29.859145 
M 154.40611 34.020497 
Q 153.506359 39.006621 153.281421 42.793076 
L 153.731297 45.379862 
L 154.068703 46.054676 
" clip-path="url(#pcc87b6c714)" style="fill: none; stroke: #000000; stroke-linejoin: miter"/>
   </g>
  </g>
  <g id="axes_11">
   <g id="patch_11">
    <path d="M 165.657476 43.917766 
Q 165.957393 44.180193 166.969614 45.154924 
Q 167.981834 46.129655 168.544179 46.560786 
Q 169.106524 46.991917 170.13749 47.385559 
Q 171.168455 47.7792 172.180676 47.629241 
Q 172.85549 47.629241 173.32411 47.404303 
Q 173.792731 47.179366 174.017669 46.879448 
Q 174.242607 46.579531 174.373821 45.979697 
Q 174.505034 45.379862 174.523779 44.967476 
Q 174.542524 44.55509 174.542524 43.805297 
Q 174.542524 42.718097 173.642772 42.043283 
Q 172.743021 41.368469 171.449628 41.031062 
Q 170.156234 40.693655 168.862841 40.300014 
Q 167.569448 39.906372 166.669697 38.987876 
Q 165.769945 38.069379 165.769945 36.607283 
Q 165.769945 36.082428 165.938648 35.726276 
Q 166.107352 35.370124 166.500993 35.145186 
Q 166.894634 34.920248 167.175807 34.807779 
Q 167.456979 34.69531 168.113048 34.639076 
Q 168.769117 34.582841 168.956566 34.582841 
Q 169.144014 34.582841 169.818828 34.582841 
Q 171.018497 34.582841 171.599586 34.995228 
Q 172.180676 35.407614 172.499338 36.026193 
Q 172.818 36.644772 173.080428 36.832221 
" clip-path="url(#p71c809d983)" style="fill: none; stroke: #000000; stroke-linejoin: miter"/>
   </g>
  </g>
  <g id="axes_12">
   <g id="patch_12">
    <path d="M 182.813462 35.932469 
Q 183.413297 35.257655 184.406772 34.826524 
Q 185.400248 34.395393 186.3 34.470372 
Q 186.937324 34.470372 187.42469 34.639076 
Q 187.912055 34.807779 188.230717 34.995228 
Q 188.549379 35.182676 188.774317 35.670041 
Q 188.999255 36.157407 189.111724 36.419834 
Q 189.224193 36.682262 189.280428 37.375821 
Q 189.336662 38.069379 189.355407 38.331807 
Q 189.374152 38.594234 189.355407 39.419007 
Q 189.336662 40.243779 189.336662 40.431228 
Q 189.336662 41.368469 189.167959 43.242952 
Q 188.999255 45.117434 188.999255 46.054676 
Q 188.999255 46.467062 189.05549 46.823214 
Q 189.111724 47.179366 189.205448 47.610497 
Q 189.299172 48.041628 189.336662 48.304055 
L 189.786538 48.528993 
M 183.263338 23.111007 
Q 183.488276 24.798041 183.488276 29.971614 
L 183.488276 42.3432 
L 183.150869 46.841959 
L 182.925931 47.74171 
" clip-path="url(#pfefe4e4a97)" style="fill: none; stroke: #000000; stroke-linejoin: miter"/>
   </g>
  </g>
  <g id="axes_13">
   <g id="patch_13">
    <path d="M 196.257798 38.160826 
Q 199.230275 39.535596 203.949083 39.721376 
Q 205.472477 39.721376 206.159862 38.550963 
Q 206.847248 37.38055 206.847248 35.82 
Q 206.847248 35.299817 206.754358 34.909679 
Q 206.661468 34.519541 206.419954 34.296606 
Q 206.17844 34.07367 206.011239 33.943624 
Q 205.844037 33.813578 205.398165 33.757844 
Q 204.952294 33.70211 204.747936 33.683532 
Q 204.543578 33.664954 203.967661 33.683532 
Q 203.391743 33.70211 203.168807 33.70211 
Q 201.125229 33.70211 199.638991 35.578486 
Q 198.152752 37.454862 198.152752 39.609908 
Q 198.152752 42.619541 200.084862 44.570229 
Q 202.016972 46.520917 205.063761 46.520917 
Q 207.218807 46.818165 208.742202 44.29156 
" clip-path="url(#p4e8e4328a6)" style="fill: none; stroke: #000000; stroke-linejoin: miter"/>
   </g>
  </g>
  <g id="axes_14">
   <g id="patch_14">
    <path d="M 214.257476 43.917766 
Q 214.557393 44.180193 215.569614 45.154924 
Q 216.581834 46.129655 217.144179 46.560786 
Q 217.706524 46.991917 218.73749 47.385559 
Q 219.768455 47.7792 220.780676 47.629241 
Q 221.45549 47.629241 221.92411 47.404303 
Q 222.392731 47.179366 222.617669 46.879448 
Q 222.842607 46.579531 222.973821 45.979697 
Q 223.105034 45.379862 223.123779 44.967476 
Q 223.142524 44.55509 223.142524 43.805297 
Q 223.142524 42.718097 222.242772 42.043283 
Q 221.343021 41.368469 220.049628 41.031062 
Q 218.756234 40.693655 217.462841 40.300014 
Q 216.169448 39.906372 215.269697 38.987876 
Q 214.369945 38.069379 214.369945 36.607283 
Q 214.369945 36.082428 214.538648 35.726276 
Q 214.707352 35.370124 215.100993 35.145186 
Q 215.494634 34.920248 215.775807 34.807779 
Q 216.056979 34.69531 216.713048 34.639076 
Q 217.369117 34.582841 217.556566 34.582841 
Q 217.744014 34.582841 218.418828 34.582841 
Q 219.618497 34.582841 220.199586 34.995228 
Q 220.780676 35.407614 221.099338 36.026193 
Q 221.418 36.644772 221.680428 36.832221 
" clip-path="url(#pa2e94b772f)" style="fill: none; stroke: #000000; stroke-linejoin: miter"/>
   </g>
  </g>
  <g id="axes_15">
   <g id="patch_15">
    <path d="M 234.187697 39.981352 
Q 235.199917 40.956083 235.537324 42.905545 
Q 235.724772 43.955255 235.312386 46.167145 
L 234.075228 47.629241 
" clip-path="url(#pb9bacda1e2)" style="fill: none; stroke: #000000; stroke-linejoin: miter"/>
   </g>
  </g>
 </g>
 <defs>
  <clipPath id="p210de0629c">
   <rect x="0" y="19.926901" width="16.2" height="31.786198"/>
  </clipPath>
  <clipPath id="pbbad7f6ef1">
   <rect x="16.2" y="10.777356" width="16.2" height="50.085288"/>
  </clipPath>
  <clipPath id="pd791d3c2f0">
   <rect x="35.138979" y="8.64" width="10.722041" height="54.36"/>
  </clipPath>
  <clipPath id="p9032682f56">
   <rect x="48.6" y="9.603482" width="16.2" height="52.433036"/>
  </clipPath>
  <clipPath id="paef6d915f6">
   <rect x="64.8" y="8.881927" width="16.2" height="53.876147"/>
  </clipPath>
  <clipPath id="p94236962ac">
   <rect x="82.782993" y="8.64" width="12.634014" height="54.36"/>
  </clipPath>
  <clipPath id="p5e5f33c8be">
   <rect x="98.589352" y="8.64" width="13.421297" height="54.36"/>
  </clipPath>
  <clipPath id="pf9542f7c82">
   <rect x="129.6" y="10.936525" width="16.2" height="49.766949"/>
  </clipPath>
  <clipPath id="pcc87b6c714">
   <rect x="151.406938" y="8.64" width="4.986124" height="54.36"/>
  </clipPath>
  <clipPath id="p71c809d983">
   <rect x="163.782993" y="8.64" width="12.634014" height="54.36"/>
  </clipPath>
  <clipPath id="pfefe4e4a97">
   <rect x="180.938979" y="8.64" width="10.722041" height="54.36"/>
  </clipPath>
  <clipPath id="p4e8e4328a6">
   <rect x="194.4" y="8.881927" width="16.2" height="53.876147"/>
  </clipPath>
  <clipPath id="pa2e94b772f">
   <rect x="212.382993" y="8.64" width="12.634014" height="54.36"/>
  </clipPath>
  <clipPath id="pb9bacda1e2">
   <rect x="232.200745" y="8.64" width="5.39851" height="54.36"/>
  </clipPath>
 </defs>
</svg>
