<?xml version="1.0" encoding="utf-8" standalone="no"?>
<!DOCTYPE svg PUBLIC "-//W3C//DTD SVG 1.1//EN"
  "http://www.w3.org/Graphics/SVG/1.1/DTD/svg11.dtd">
<svg xmlns:xlink="http://www.w3.org/1999/xlink" width="324pt" height="72pt" viewBox="0 0 324 72" xmlns="http://www.w3.org/2000/svg" version="1.1">
 <metadata>
  <rdf:RDF xmlns:dc="http://purl.org/dc/elements/1.1/" xmlns:cc="http://creativecommons.org/ns#" xmlns:rdf="http://www.w3.org/1999/02/22-rdf-syntax-ns#">
   <cc:Work>
    <dc:type rdf:resource="http://purl.org/dc/dcmitype/StillImage"/>
    <dc:date>2023-12-13T10:52:58.093241</dc:date>
    <dc:format>image/svg+xml</dc:format>
    <dc:creator>
     <cc:Agent>
      <dc:title>Matplotlib v3.7.1, https://matplotlib.org/</dc:title>
     </cc:Agent>
    </dc:creator>
   </cc:Work>
  </rdf:RDF>
 </metadata>
 <defs>
  <style type="text/css">*{stroke-linejoin: round; stroke-linecap: butt}</style>
 </defs>
 <g id="figure_1">
  <g id="patch_1">
   <path d="M 0 72 
L 324 72 
L 324 0 
L 0 0 
z
" style="fill: #8fff9f"/>
  </g>
  <g id="axes_1">
   <g id="patch_2">
    <path d="M 1.449016 45.151664 
L 1.709839 29.50229 
L 1.709839 28.893703 
Q 1.709839 28.66186 1.81127 28.299606 
Q 1.912701 27.937352 2.057603 27.937352 
Q 2.955993 27.937352 3.839893 29.270447 
Q 4.723792 30.603542 5.259928 32.19746 
Q 5.796064 33.791377 6.3322 35.124472 
Q 6.868336 36.457567 7.18712 36.457567 
Q 7.679785 36.457567 8.360823 35.023041 
Q 9.04186 33.588515 9.635957 31.849696 
Q 10.230054 30.110877 11.041503 28.676351 
Q 11.852952 27.241825 12.57746 27.241825 
Q 13.272987 27.241825 13.722182 30.632522 
Q 14.171377 34.02322 14.38873 38.50068 
Q 14.606082 42.97814 14.664043 43.325903 
L 14.750984 46.108014 
" clip-path="url(#p342dc7b808)" style="fill: none; stroke: #000000; stroke-linejoin: miter"/>
   </g>
  </g>
  <g id="axes_2">
   <g id="patch_3">
    <path d="M 18.057798 38.160826 
Q 21.030275 39.535596 25.749083 39.721376 
Q 27.272477 39.721376 27.959862 38.550963 
Q 28.647248 37.38055 28.647248 35.82 
Q 28.647248 35.299817 28.554358 34.909679 
Q 28.461468 34.519541 28.219954 34.296606 
Q 27.97844 34.07367 27.811239 33.943624 
Q 27.644037 33.813578 27.198165 33.757844 
Q 26.752294 33.70211 26.547936 33.683532 
Q 26.343578 33.664954 25.767661 33.683532 
Q 25.191743 33.70211 24.968807 33.70211 
Q 22.925229 33.70211 21.438991 35.578486 
Q 19.952752 37.454862 19.952752 39.609908 
Q 19.952752 42.619541 21.884862 44.570229 
Q 23.816972 46.520917 26.863761 46.520917 
Q 29.018807 46.818165 30.542202 44.29156 
" clip-path="url(#p2db16d3412)" style="fill: none; stroke: #000000; stroke-linejoin: miter"/>
   </g>
  </g>
  <g id="axes_3">
   <g id="patch_4">
    <path d="M 40.106359 28.621986 
Q 40.331297 30.34651 40.406276 32.146014 
Q 40.481255 33.945517 40.46251 36.551048 
Q 40.443766 39.156579 40.443766 40.093821 
Q 40.443766 40.13131 40.668703 45.829738 
L 40.893641 46.841959 
" clip-path="url(#p363b544cab)" style="fill: none; stroke: #000000; stroke-linejoin: miter"/>
   </g>
  </g>
  <g id="axes_4">
   <g id="patch_5">
    <path d="M 53.157228 37.244607 
Q 54.206938 37.207117 54.394386 37.132138 
Q 57.805945 37.132138 59.586703 39.212814 
Q 61.367462 41.29349 61.367462 44.780028 
Q 61.367462 47.704221 56.756234 47.704221 
Q 56.11891 47.704221 55.57531 47.591752 
Q 55.03171 47.479283 54.394386 47.254345 
Q 53.757062 47.029407 53.269697 46.916938 
L 52.032538 45.679779 
M 53.044759 25.435366 
L 53.044759 26.560055 
Q 53.044759 29.409269 53.157228 33.008276 
Q 53.269697 36.607283 53.457145 40.899848 
Q 53.644593 45.192414 53.719572 47.141876 
" clip-path="url(#p7bd4cf8512)" style="fill: none; stroke: #000000; stroke-linejoin: miter"/>
   </g>
  </g>
  <g id="axes_5">
   <g id="patch_6">
    <path d="M 76.1616 35.032717 
Q 75.11189 34.582841 74.137159 34.69531 
Q 71.100497 35.032717 69.188524 36.701007 
Q 67.276552 38.369297 67.276552 41.330979 
Q 67.276552 43.917766 69.282248 45.6048 
Q 71.287945 47.291834 73.912221 47.291834 
Q 76.274069 47.291834 77.398759 45.361117 
Q 78.523448 43.4304 78.523448 40.881103 
Q 78.523448 39.643945 78.111062 38.706703 
Q 77.698676 37.769462 77.173821 37.300841 
Q 76.648966 36.832221 75.899172 36.119917 
Q 75.149379 35.407614 74.699503 34.69531 
L 73.462345 34.245434 
" clip-path="url(#pfa51f4e041)" style="fill: none; stroke: #000000; stroke-linejoin: miter"/>
   </g>
  </g>
  <g id="axes_6">
   <g id="patch_7">
    <path d="M 84.488772 35.145186 
Q 84.488772 35.145186 84.488772 35.595062 
Q 84.488772 36.269876 84.376303 37.619503 
Q 84.263834 38.969131 84.263834 39.643945 
Q 84.263834 41.930814 85.500993 43.599103 
Q 86.738152 45.267393 88.875062 45.267393 
Q 90.262179 45.154924 91.030717 43.917766 
Q 91.799255 42.680607 91.949214 41.237255 
Q 92.099172 39.793903 92.3616 37.9944 
Q 92.624028 36.194897 93.036414 35.370124 
Q 93.186372 35.070207 93.186372 35.670041 
Q 93.186372 36.269876 92.923945 38.706703 
Q 92.699007 41.031062 92.699007 41.555917 
Q 92.549048 42.643117 92.886455 43.767807 
Q 93.223862 44.892497 93.936166 45.6048 
" clip-path="url(#p3f7601c0be)" style="fill: none; stroke: #000000; stroke-linejoin: miter"/>
   </g>
  </g>
  <g id="axes_7">
   <g id="patch_8">
    <path d="M 101.813462 32.783338 
Q 102.338317 34.507862 102.469531 36.457324 
Q 102.600745 38.406786 102.525766 40.956083 
Q 102.450786 43.505379 102.488276 44.705048 
L 102.600745 46.054676 
L 102.600745 45.829738 
Q 102.600745 44.667559 102.319572 42.30571 
Q 102.0384 39.943862 102.0384 38.744193 
Q 102.0384 36.419834 103.050621 34.882759 
Q 104.062841 33.345683 106.087283 33.345683 
Q 106.799586 33.345683 107.136993 33.626855 
Q 107.4744 33.908028 107.736828 34.432883 
Q 107.999255 34.957738 108.336662 35.257655 
L 108.786538 36.832221 
" clip-path="url(#p202a35b6ab)" style="fill: none; stroke: #000000; stroke-linejoin: miter"/>
   </g>
  </g>
  <g id="axes_8">
   <g id="patch_9">
    <path d="M 117.038731 37.282097 
L 117.038731 37.844441 
Q 117.301159 39.868883 117.338648 41.312234 
Q 117.376138 42.755586 117.282414 44.667559 
Q 117.18869 46.579531 117.18869 48.191586 
L 117.263669 39.643945 
Q 117.263669 38.144359 118.856979 37.507034 
Q 120.45029 36.86971 121.874897 37.282097 
Q 123.786869 37.844441 124.705366 39.04411 
Q 125.623862 40.243779 125.680097 41.668386 
Q 125.736331 43.092993 125.773821 44.817517 
Q 125.81131 46.542041 125.961269 48.191586 
" clip-path="url(#pe92ae429f3)" style="fill: none; stroke: #000000; stroke-linejoin: miter"/>
   </g>
  </g>
  <g id="axes_9">
   <g id="patch_10">
    <path d="M 131.457798 38.160826 
Q 134.430275 39.535596 139.149083 39.721376 
Q 140.672477 39.721376 141.359862 38.550963 
Q 142.047248 37.38055 142.047248 35.82 
Q 142.047248 35.299817 141.954358 34.909679 
Q 141.861468 34.519541 141.619954 34.296606 
Q 141.37844 34.07367 141.211239 33.943624 
Q 141.044037 33.813578 140.598165 33.757844 
Q 140.152294 33.70211 139.947936 33.683532 
Q 139.743578 33.664954 139.167661 33.683532 
Q 138.591743 33.70211 138.368807 33.70211 
Q 136.325229 33.70211 134.838991 35.578486 
Q 133.352752 37.454862 133.352752 39.609908 
Q 133.352752 42.619541 135.284862 44.570229 
Q 137.216972 46.520917 140.263761 46.520917 
Q 142.418807 46.818165 143.942202 44.29156 
" clip-path="url(#p8bab572ff2)" style="fill: none; stroke: #000000; stroke-linejoin: miter"/>
   </g>
  </g>
  <g id="axes_10"/>
  <g id="axes_11">
   <g id="patch_11">
    <path d="M 163.531191 28.654026 
Q 164.633648 30.154594 165.537051 32.635123 
Q 166.440454 35.115652 166.945747 37.259319 
Q 167.45104 39.402987 168.431002 41.684461 
Q 169.410964 43.965936 170.697164 45.28276 
Q 171.034026 45.28276 172.151796 42.036635 
Q 173.269565 38.79051 174.662949 34.196938 
Q 176.056333 29.603365 176.301323 28.837769 
L 176.668809 28.562155 
" clip-path="url(#pbf63a86cc5)" style="fill: none; stroke: #000000; stroke-linejoin: miter"/>
   </g>
  </g>
  <g id="axes_12">
   <g id="patch_12">
    <path d="M 179.514935 43.209935 
L 193.085065 43.209935 
M 180.856169 30.007987 
L 191.743831 29.929091 
M 185.747727 30.323571 
L 185.747727 30.718052 
Q 185.747727 32.243377 185.839773 33.99224 
Q 185.931818 35.741104 186.08961 37.910747 
Q 186.247403 40.08039 186.3 41.211234 
L 186.457792 43.025844 
" clip-path="url(#p3c8e1f4ac9)" style="fill: none; stroke: #000000; stroke-linejoin: miter"/>
   </g>
  </g>
  <g id="axes_13">
   <g id="patch_13">
    <path d="M 208.748571 31.763193 
Q 207.00605 29.585042 205.059328 28.972437 
Q 203.112605 28.359832 200.335462 29.285546 
Q 198.456807 29.966218 197.109076 31.817647 
Q 195.761345 33.669076 195.761345 35.411597 
Q 195.761345 38.760504 198.388739 41.415126 
Q 201.016134 44.069748 204.256134 44.069748 
Q 205.100168 44.069748 205.78084 43.729412 
Q 206.461513 43.389076 206.856303 42.953445 
Q 207.251092 42.517815 207.822857 41.918824 
Q 208.394622 41.319832 208.911933 40.965882 
L 209.238655 40.149076 
" clip-path="url(#p67e5b1601d)" style="fill: none; stroke: #000000; stroke-linejoin: miter"/>
   </g>
  </g>
  <g id="axes_14"/>
  <g id="axes_15">
   <g id="patch_14">
    <path d="M 231.694634 29.521738 
Q 232.706855 29.184331 234.843766 29.165586 
Q 236.980676 29.146841 237.992897 28.846924 
Q 237.992897 29.859145 236.755738 30.96509 
Q 235.518579 32.071034 234.281421 33.027021 
Q 233.044262 33.983007 233.044262 34.582841 
L 235.293641 34.582841 
Q 236.418331 34.582841 237.168124 35.013972 
Q 237.917917 35.445103 238.274069 36.251131 
Q 238.630221 37.057159 238.761434 37.863186 
Q 238.892648 38.669214 238.892648 39.756414 
Q 238.892648 41.630897 237.205614 42.830566 
Q 235.518579 44.030234 233.606607 44.030234 
Q 231.432207 43.730317 230.907352 42.905545 
" clip-path="url(#pc6850c6103)" style="fill: none; stroke: #000000; stroke-linejoin: miter"/>
   </g>
  </g>
  <g id="axes_16">
   <g id="patch_15">
    <path d="M 253.068207 28.284579 
Q 253.068207 28.284579 251.943517 28.284579 
Q 250.631379 28.284579 249.637903 29.33429 
Q 248.644428 30.384 248.157062 31.958566 
Q 247.669697 33.533131 247.444759 34.976483 
Q 247.219821 36.419834 247.219821 37.619503 
Q 247.219821 40.468717 248.663172 42.193241 
Q 250.106524 43.917766 252.843269 43.917766 
Q 253.743021 43.917766 254.3616 42.043283 
Q 254.980179 40.1688 254.980179 39.0816 
Q 254.980179 37.319586 254.642772 35.557572 
Q 254.305366 33.795559 253.743021 31.714883 
Q 253.180676 29.634207 252.955738 28.397048 
L 251.381172 26.372607 
" clip-path="url(#pe911901e94)" style="fill: none; stroke: #000000; stroke-linejoin: miter"/>
   </g>
  </g>
  <g id="axes_17">
   <g id="patch_16">
    <path d="M 269.268207 28.284579 
Q 269.268207 28.284579 268.143517 28.284579 
Q 266.831379 28.284579 265.837903 29.33429 
Q 264.844428 30.384 264.357062 31.958566 
Q 263.869697 33.533131 263.644759 34.976483 
Q 263.419821 36.419834 263.419821 37.619503 
Q 263.419821 40.468717 264.863172 42.193241 
Q 266.306524 43.917766 269.043269 43.917766 
Q 269.943021 43.917766 270.5616 42.043283 
Q 271.180179 40.1688 271.180179 39.0816 
Q 271.180179 37.319586 270.842772 35.557572 
Q 270.505366 33.795559 269.943021 31.714883 
Q 269.380676 29.634207 269.155738 28.397048 
L 267.581172 26.372607 
" clip-path="url(#pb13727cd9e)" style="fill: none; stroke: #000000; stroke-linejoin: miter"/>
   </g>
  </g>
  <g id="axes_18">
   <g id="patch_17">
    <path d="M 285.468207 28.284579 
Q 285.468207 28.284579 284.343517 28.284579 
Q 283.031379 28.284579 282.037903 29.33429 
Q 281.044428 30.384 280.557062 31.958566 
Q 280.069697 33.533131 279.844759 34.976483 
Q 279.619821 36.419834 279.619821 37.619503 
Q 279.619821 40.468717 281.063172 42.193241 
Q 282.506524 43.917766 285.243269 43.917766 
Q 286.143021 43.917766 286.7616 42.043283 
Q 287.380179 40.1688 287.380179 39.0816 
Q 287.380179 37.319586 287.042772 35.557572 
Q 286.705366 33.795559 286.143021 31.714883 
Q 285.580676 29.634207 285.355738 28.397048 
L 283.781172 26.372607 
" clip-path="url(#peb3e3e0267)" style="fill: none; stroke: #000000; stroke-linejoin: miter"/>
   </g>
  </g>
 </g>
 <defs>
  <clipPath id="p342dc7b808">
   <rect x="0" y="14.809267" width="16.2" height="42.021467"/>
  </clipPath>
  <clipPath id="p2db16d3412">
   <rect x="16.2" y="8.881927" width="16.2" height="53.876147"/>
  </clipPath>
  <clipPath id="p363b544cab">
   <rect x="38.231876" y="8.64" width="4.536248" height="54.36"/>
  </clipPath>
  <clipPath id="p7bd4cf8512">
   <rect x="50.158055" y="8.64" width="13.08389" height="54.36"/>
  </clipPath>
  <clipPath id="pfa51f4e041">
   <rect x="65.402069" y="8.64" width="14.995862" height="54.36"/>
  </clipPath>
  <clipPath id="p3f7601c0be">
   <rect x="82.389352" y="8.64" width="13.421297" height="54.36"/>
  </clipPath>
  <clipPath id="p202a35b6ab">
   <rect x="99.938979" y="8.64" width="10.722041" height="54.36"/>
  </clipPath>
  <clipPath id="pe92ae429f3">
   <rect x="115.164248" y="8.64" width="12.671503" height="54.36"/>
  </clipPath>
  <clipPath id="p8bab572ff2">
   <rect x="129.6" y="8.881927" width="16.2" height="53.876147"/>
  </clipPath>
  <clipPath id="pbf63a86cc5">
   <rect x="162" y="13.617732" width="16.2" height="44.404537"/>
  </clipPath>
  <clipPath id="p3c8e1f4ac9">
   <rect x="178.2" y="16.753442" width="16.2" height="38.133117"/>
  </clipPath>
  <clipPath id="p67e5b1601d">
   <rect x="194.4" y="16.080504" width="16.2" height="39.478992"/>
  </clipPath>
  <clipPath id="pc6850c6103">
   <rect x="229.032869" y="8.64" width="11.734262" height="54.36"/>
  </clipPath>
  <clipPath id="pe911901e94">
   <rect x="245.345338" y="8.64" width="11.509324" height="54.36"/>
  </clipPath>
  <clipPath id="pb13727cd9e">
   <rect x="261.545338" y="8.64" width="11.509324" height="54.36"/>
  </clipPath>
  <clipPath id="peb3e3e0267">
   <rect x="277.745338" y="8.64" width="11.509324" height="54.36"/>
  </clipPath>
 </defs>
</svg>
