<?xml version="1.0" encoding="utf-8" standalone="no"?>
<!DOCTYPE svg PUBLIC "-//W3C//DTD SVG 1.1//EN"
  "http://www.w3.org/Graphics/SVG/1.1/DTD/svg11.dtd">
<svg xmlns:xlink="http://www.w3.org/1999/xlink" width="756pt" height="72pt" viewBox="0 0 756 72" xmlns="http://www.w3.org/2000/svg" version="1.1">
 <metadata>
  <rdf:RDF xmlns:dc="http://purl.org/dc/elements/1.1/" xmlns:cc="http://creativecommons.org/ns#" xmlns:rdf="http://www.w3.org/1999/02/22-rdf-syntax-ns#">
   <cc:Work>
    <dc:type rdf:resource="http://purl.org/dc/dcmitype/StillImage"/>
    <dc:date>2023-12-13T10:53:01.736928</dc:date>
    <dc:format>image/svg+xml</dc:format>
    <dc:creator>
     <cc:Agent>
      <dc:title>Matplotlib v3.7.1, https://matplotlib.org/</dc:title>
     </cc:Agent>
    </dc:creator>
   </cc:Work>
  </rdf:RDF>
 </metadata>
 <defs>
  <style type="text/css">*{stroke-linejoin: round; stroke-linecap: butt}</style>
 </defs>
 <g id="figure_1">
  <g id="patch_1">
   <path d="M 0 72 
L 756 72 
L 756 0 
L 0 0 
z
" style="fill: #8fff9f"/>
  </g>
  <g id="axes_1">
   <g id="patch_2">
    <path d="M 14.348571 31.763193 
Q 12.60605 29.585042 10.659328 28.972437 
Q 8.712605 28.359832 5.935462 29.285546 
Q 4.056807 29.966218 2.709076 31.817647 
Q 1.361345 33.669076 1.361345 35.411597 
Q 1.361345 38.760504 3.988739 41.415126 
Q 6.616134 44.069748 9.856134 44.069748 
Q 10.700168 44.069748 11.38084 43.729412 
Q 12.061513 43.389076 12.456303 42.953445 
Q 12.851092 42.517815 13.422857 41.918824 
Q 13.994622 41.319832 14.511933 40.965882 
L 14.838655 40.149076 
" clip-path="url(#pde230ecfda)" style="fill: none; stroke: #000000; stroke-linejoin: miter"/>
   </g>
  </g>
  <g id="axes_2">
   <g id="patch_3">
    <path d="M 20.813462 35.932469 
Q 21.413297 35.257655 22.406772 34.826524 
Q 23.400248 34.395393 24.3 34.470372 
Q 24.937324 34.470372 25.42469 34.639076 
Q 25.912055 34.807779 26.230717 34.995228 
Q 26.549379 35.182676 26.774317 35.670041 
Q 26.999255 36.157407 27.111724 36.419834 
Q 27.224193 36.682262 27.280428 37.375821 
Q 27.336662 38.069379 27.355407 38.331807 
Q 27.374152 38.594234 27.355407 39.419007 
Q 27.336662 40.243779 27.336662 40.431228 
Q 27.336662 41.368469 27.167959 43.242952 
Q 26.999255 45.117434 26.999255 46.054676 
Q 26.999255 46.467062 27.05549 46.823214 
Q 27.111724 47.179366 27.205448 47.610497 
Q 27.299172 48.041628 27.336662 48.304055 
L 27.786538 48.528993 
M 21.263338 23.111007 
Q 21.488276 24.798041 21.488276 29.971614 
L 21.488276 42.3432 
L 21.150869 46.841959 
L 20.925931 47.74171 
" clip-path="url(#p111e2cf999)" style="fill: none; stroke: #000000; stroke-linejoin: miter"/>
   </g>
  </g>
  <g id="axes_3">
   <g id="patch_4">
    <path d="M 37.013462 32.783338 
Q 37.538317 34.507862 37.669531 36.457324 
Q 37.800745 38.406786 37.725766 40.956083 
Q 37.650786 43.505379 37.688276 44.705048 
L 37.800745 46.054676 
L 37.800745 45.829738 
Q 37.800745 44.667559 37.519572 42.30571 
Q 37.2384 39.943862 37.2384 38.744193 
Q 37.2384 36.419834 38.250621 34.882759 
Q 39.262841 33.345683 41.287283 33.345683 
Q 41.999586 33.345683 42.336993 33.626855 
Q 42.6744 33.908028 42.936828 34.432883 
Q 43.199255 34.957738 43.536662 35.257655 
L 43.986538 36.832221 
" clip-path="url(#pe2e83f4ff9)" style="fill: none; stroke: #000000; stroke-linejoin: miter"/>
   </g>
  </g>
  <g id="axes_4">
   <g id="patch_5">
    <path d="M 57.318579 29.071862 
Q 56.943683 29.146841 56.812469 29.577972 
Q 56.681255 30.009103 56.756234 30.42149 
Q 56.756234 30.571448 56.793724 30.702662 
Q 56.831214 30.833876 56.887448 30.89011 
Q 56.943683 30.946345 56.999917 31.040069 
Q 57.056152 31.133793 57.093641 31.208772 
L 57.20611 29.859145 
M 57.20611 34.020497 
Q 56.306359 39.006621 56.081421 42.793076 
L 56.531297 45.379862 
L 56.868703 46.054676 
" clip-path="url(#pae4b868296)" style="fill: none; stroke: #000000; stroke-linejoin: miter"/>
   </g>
  </g>
  <g id="axes_5">
   <g id="patch_6">
    <path d="M 68.457476 43.917766 
Q 68.757393 44.180193 69.769614 45.154924 
Q 70.781834 46.129655 71.344179 46.560786 
Q 71.906524 46.991917 72.93749 47.385559 
Q 73.968455 47.7792 74.980676 47.629241 
Q 75.65549 47.629241 76.12411 47.404303 
Q 76.592731 47.179366 76.817669 46.879448 
Q 77.042607 46.579531 77.173821 45.979697 
Q 77.305034 45.379862 77.323779 44.967476 
Q 77.342524 44.55509 77.342524 43.805297 
Q 77.342524 42.718097 76.442772 42.043283 
Q 75.543021 41.368469 74.249628 41.031062 
Q 72.956234 40.693655 71.662841 40.300014 
Q 70.369448 39.906372 69.469697 38.987876 
Q 68.569945 38.069379 68.569945 36.607283 
Q 68.569945 36.082428 68.738648 35.726276 
Q 68.907352 35.370124 69.300993 35.145186 
Q 69.694634 34.920248 69.975807 34.807779 
Q 70.256979 34.69531 70.913048 34.639076 
Q 71.569117 34.582841 71.756566 34.582841 
Q 71.944014 34.582841 72.618828 34.582841 
Q 73.818497 34.582841 74.399586 34.995228 
Q 74.980676 35.407614 75.299338 36.026193 
Q 75.618 36.644772 75.880428 36.832221 
" clip-path="url(#p519d5d9372)" style="fill: none; stroke: #000000; stroke-linejoin: miter"/>
   </g>
  </g>
  <g id="axes_6">
   <g id="patch_7">
    <path d="M 84.263834 37.95691 
L 84.938648 37.95691 
Q 85.650952 37.95691 86.438234 37.881931 
Q 87.225517 37.806952 88.181503 37.675738 
Q 89.13749 37.544524 89.662345 37.507034 
L 93.936166 35.82 
M 89.887283 30.42149 
L 89.887283 31.43371 
Q 89.887283 33.383172 89.212469 37.207117 
Q 88.537655 41.031062 88.537655 43.018014 
Q 88.537655 43.805297 88.537655 44.105214 
Q 88.537655 44.405131 88.631379 45.042455 
Q 88.725103 45.679779 88.912552 45.960952 
Q 89.1 46.242124 89.493641 46.485807 
Q 89.887283 46.72949 90.449628 46.72949 
Q 90.562097 46.692 90.880759 46.72949 
Q 91.199421 46.766979 91.386869 46.710745 
Q 91.574317 46.65451 91.574317 46.392083 
" clip-path="url(#pc01c435a0f)" style="fill: none; stroke: #000000; stroke-linejoin: miter"/>
   </g>
  </g>
  <g id="axes_7">
   <g id="patch_8">
    <path d="M 99.008036 34.879821 
Q 99.514286 36.073125 99.803571 42.871339 
Q 99.948214 46.632054 100.2375 46.632054 
Q 100.273661 46.632054 100.309821 46.595893 
Q 100.816071 46.017321 100.870313 44.588973 
Q 100.924554 43.160625 100.707589 41.750357 
Q 100.490625 40.340089 100.2375 38.712857 
Q 99.984375 37.085625 99.984375 36.398571 
Q 99.984375 35.169107 100.364063 33.939643 
Q 100.74375 32.710179 101.720089 32.710179 
Q 102.949554 32.710179 103.672768 34.355491 
Q 104.395982 36.000804 104.558705 37.971563 
Q 104.721429 39.942321 104.829911 41.587634 
Q 104.938393 43.232946 105.083036 43.232946 
Q 105.227679 43.232946 105.31808 41.497232 
Q 105.408482 39.761518 105.535045 37.700357 
Q 105.661607 35.639196 106.384821 33.903482 
Q 107.108036 32.167768 108.3375 32.167768 
Q 109.892411 33.035625 110.561384 34.771339 
Q 111.230357 36.507054 111.194196 38.188527 
Q 111.158036 39.87 111.176116 42.057723 
Q 111.194196 44.245446 111.591964 45.511071 
" clip-path="url(#p9c243955a2)" style="fill: none; stroke: #000000; stroke-linejoin: miter"/>
   </g>
  </g>
  <g id="axes_8">
   <g id="patch_9">
    <path d="M 127.043923 36.441748 
Q 125.834968 35.094627 121.862687 35.094627 
Q 120.342857 35.094627 119.565672 35.146439 
Q 118.788486 35.198252 117.78678 35.440043 
Q 116.785075 35.681834 116.301493 36.182687 
Q 115.81791 36.683539 115.472495 37.616162 
Q 115.127079 38.548785 115.127079 39.964989 
Q 115.127079 42.037484 116.543284 43.280981 
Q 117.959488 44.524478 119.893817 44.524478 
Q 122.553518 44.524478 125.316844 38.721493 
Q 126.663966 35.854542 126.663966 35.82 
Q 127.009382 35.578209 127.043923 36.441748 
Q 127.043923 37.512537 127.458422 40.362217 
Q 127.872921 43.211898 127.872921 44.524478 
" clip-path="url(#pdd1053de8d)" style="fill: none; stroke: #000000; stroke-linejoin: miter"/>
   </g>
  </g>
  <g id="axes_9">
   <g id="patch_10">
    <path d="M 133.257476 43.917766 
Q 133.557393 44.180193 134.569614 45.154924 
Q 135.581834 46.129655 136.144179 46.560786 
Q 136.706524 46.991917 137.73749 47.385559 
Q 138.768455 47.7792 139.780676 47.629241 
Q 140.45549 47.629241 140.92411 47.404303 
Q 141.392731 47.179366 141.617669 46.879448 
Q 141.842607 46.579531 141.973821 45.979697 
Q 142.105034 45.379862 142.123779 44.967476 
Q 142.142524 44.55509 142.142524 43.805297 
Q 142.142524 42.718097 141.242772 42.043283 
Q 140.343021 41.368469 139.049628 41.031062 
Q 137.756234 40.693655 136.462841 40.300014 
Q 135.169448 39.906372 134.269697 38.987876 
Q 133.369945 38.069379 133.369945 36.607283 
Q 133.369945 36.082428 133.538648 35.726276 
Q 133.707352 35.370124 134.100993 35.145186 
Q 134.494634 34.920248 134.775807 34.807779 
Q 135.056979 34.69531 135.713048 34.639076 
Q 136.369117 34.582841 136.556566 34.582841 
Q 136.744014 34.582841 137.418828 34.582841 
Q 138.618497 34.582841 139.199586 34.995228 
Q 139.780676 35.407614 140.099338 36.026193 
Q 140.418 36.644772 140.680428 36.832221 
" clip-path="url(#p9e35a120f2)" style="fill: none; stroke: #000000; stroke-linejoin: miter"/>
   </g>
  </g>
  <g id="axes_10">
   <g id="patch_11">
    <path d="M 153.787531 45.979697 
Q 153.750041 46.017186 153.618828 46.054676 
Q 153.487614 46.092166 153.525103 46.167145 
Q 153.525103 46.579531 153.9 46.579531 
Q 154.237407 46.579531 154.237407 46.092166 
Q 154.312386 45.867228 154.031214 45.754759 
Q 153.750041 45.64229 153.562593 45.754759 
" clip-path="url(#p47d164223d)" style="fill: none; stroke: #000000; stroke-linejoin: miter"/>
   </g>
  </g>
  <g id="axes_11"/>
  <g id="axes_12">
   <g id="patch_12">
    <path d="M 179.514935 43.209935 
L 193.085065 43.209935 
M 180.856169 30.007987 
L 191.743831 29.929091 
M 185.747727 30.323571 
L 185.747727 30.718052 
Q 185.747727 32.243377 185.839773 33.99224 
Q 185.931818 35.741104 186.08961 37.910747 
Q 186.247403 40.08039 186.3 41.211234 
L 186.457792 43.025844 
" clip-path="url(#pd462d7bc32)" style="fill: none; stroke: #000000; stroke-linejoin: miter"/>
   </g>
  </g>
  <g id="axes_13">
   <g id="patch_13">
    <path d="M 197.663834 37.95691 
L 198.338648 37.95691 
Q 199.050952 37.95691 199.838234 37.881931 
Q 200.625517 37.806952 201.581503 37.675738 
Q 202.53749 37.544524 203.062345 37.507034 
L 207.336166 35.82 
M 203.287283 30.42149 
L 203.287283 31.43371 
Q 203.287283 33.383172 202.612469 37.207117 
Q 201.937655 41.031062 201.937655 43.018014 
Q 201.937655 43.805297 201.937655 44.105214 
Q 201.937655 44.405131 202.031379 45.042455 
Q 202.125103 45.679779 202.312552 45.960952 
Q 202.5 46.242124 202.893641 46.485807 
Q 203.287283 46.72949 203.849628 46.72949 
Q 203.962097 46.692 204.280759 46.72949 
Q 204.599421 46.766979 204.786869 46.710745 
Q 204.974317 46.65451 204.974317 46.392083 
" clip-path="url(#p10f1d6d72b)" style="fill: none; stroke: #000000; stroke-linejoin: miter"/>
   </g>
  </g>
  <g id="axes_14"/>
  <g id="axes_15">
   <g id="patch_14">
    <path d="M 228.516102 36.437797 
L 229.751695 44.778051 
Q 229.854661 45.567458 229.854661 45.60178 
Q 229.854661 45.704746 230.163559 45.704746 
Q 231.02161 45.704746 231.742373 44.778051 
Q 232.463136 43.851356 232.875 42.718729 
Q 233.286864 41.586102 233.801695 40.659407 
Q 234.316525 39.732712 234.797034 39.732712 
Q 235.414831 39.732712 236.049788 40.607924 
Q 236.684746 41.483136 237.148093 42.512797 
Q 237.611441 43.542458 238.28072 44.417669 
Q 238.95 45.292881 239.636441 45.292881 
Q 239.911017 43.782712 240.340042 39.69839 
Q 240.769068 35.614068 241.283898 33.554746 
" clip-path="url(#pbabecc4ebe)" style="fill: none; stroke: #000000; stroke-linejoin: miter"/>
   </g>
  </g>
  <g id="axes_16">
   <g id="patch_15">
    <path d="M 256.643923 36.441748 
Q 255.434968 35.094627 251.462687 35.094627 
Q 249.942857 35.094627 249.165672 35.146439 
Q 248.388486 35.198252 247.38678 35.440043 
Q 246.385075 35.681834 245.901493 36.182687 
Q 245.41791 36.683539 245.072495 37.616162 
Q 244.727079 38.548785 244.727079 39.964989 
Q 244.727079 42.037484 246.143284 43.280981 
Q 247.559488 44.524478 249.493817 44.524478 
Q 252.153518 44.524478 254.916844 38.721493 
Q 256.263966 35.854542 256.263966 35.82 
Q 256.609382 35.578209 256.643923 36.441748 
Q 256.643923 37.512537 257.058422 40.362217 
Q 257.472921 43.211898 257.472921 44.524478 
" clip-path="url(#p261a0285a0)" style="fill: none; stroke: #000000; stroke-linejoin: miter"/>
   </g>
  </g>
  <g id="axes_17">
   <g id="patch_16">
    <path d="M 262.857476 43.917766 
Q 263.157393 44.180193 264.169614 45.154924 
Q 265.181834 46.129655 265.744179 46.560786 
Q 266.306524 46.991917 267.33749 47.385559 
Q 268.368455 47.7792 269.380676 47.629241 
Q 270.05549 47.629241 270.52411 47.404303 
Q 270.992731 47.179366 271.217669 46.879448 
Q 271.442607 46.579531 271.573821 45.979697 
Q 271.705034 45.379862 271.723779 44.967476 
Q 271.742524 44.55509 271.742524 43.805297 
Q 271.742524 42.718097 270.842772 42.043283 
Q 269.943021 41.368469 268.649628 41.031062 
Q 267.356234 40.693655 266.062841 40.300014 
Q 264.769448 39.906372 263.869697 38.987876 
Q 262.969945 38.069379 262.969945 36.607283 
Q 262.969945 36.082428 263.138648 35.726276 
Q 263.307352 35.370124 263.700993 35.145186 
Q 264.094634 34.920248 264.375807 34.807779 
Q 264.656979 34.69531 265.313048 34.639076 
Q 265.969117 34.582841 266.156566 34.582841 
Q 266.344014 34.582841 267.018828 34.582841 
Q 268.218497 34.582841 268.799586 34.995228 
Q 269.380676 35.407614 269.699338 36.026193 
Q 270.018 36.644772 270.280428 36.832221 
" clip-path="url(#p3274417d58)" style="fill: none; stroke: #000000; stroke-linejoin: miter"/>
   </g>
  </g>
  <g id="axes_18"/>
  <g id="axes_19">
   <g id="patch_17">
    <path d="M 304.487191 39.096404 
Q 304.23236 39.023596 303.26764 38.623146 
Q 302.302921 38.222697 301.64764 38.077079 
Q 300.99236 37.931461 300.337079 38.00427 
Q 297.715955 38.00427 296.077753 40.388764 
Q 294.439551 42.773258 294.439551 45.430787 
Q 294.439551 47.068989 299.681798 47.068989 
Q 301.247191 47.068989 302.575955 45.558202 
Q 303.904719 44.047416 304.578202 42.172584 
Q 305.251685 40.297753 305.251685 38.768764 
Q 305.251685 37.27618 305.215281 36.984944 
L 305.142472 38.077079 
Q 305.142472 38.550337 305.142472 38.987191 
Q 305.178876 40.188539 305.379101 42.281798 
Q 305.579326 44.375056 305.743146 46.049663 
Q 305.906966 47.72427 305.943371 49.872135 
Q 305.979775 52.02 305.815955 53.658202 
Q 305.652135 55.296404 305.087865 56.971011 
Q 304.523596 58.645618 303.595281 59.737753 
Q 302.666966 60.829888 301.065169 61.521573 
Q 299.463371 62.213258 297.315506 62.213258 
Q 295.677303 62.213258 294.585169 61.466966 
Q 293.493034 60.720674 293.493034 59.155281 
Q 293.420225 58.936854 293.456629 58.936854 
Q 293.493034 58.936854 293.602247 58.936854 
Q 293.711461 58.936854 293.711461 58.82764 
" clip-path="url(#p28250bb685)" style="fill: none; stroke: #000000; stroke-linejoin: miter"/>
   </g>
  </g>
  <g id="axes_20">
   <g id="patch_18">
    <path d="M 312.413462 32.783338 
Q 312.938317 34.507862 313.069531 36.457324 
Q 313.200745 38.406786 313.125766 40.956083 
Q 313.050786 43.505379 313.088276 44.705048 
L 313.200745 46.054676 
L 313.200745 45.829738 
Q 313.200745 44.667559 312.919572 42.30571 
Q 312.6384 39.943862 312.6384 38.744193 
Q 312.6384 36.419834 313.650621 34.882759 
Q 314.662841 33.345683 316.687283 33.345683 
Q 317.399586 33.345683 317.736993 33.626855 
Q 318.0744 33.908028 318.336828 34.432883 
Q 318.599255 34.957738 318.936662 35.257655 
L 319.386538 36.832221 
" clip-path="url(#p3a94e53e44)" style="fill: none; stroke: #000000; stroke-linejoin: miter"/>
   </g>
  </g>
  <g id="axes_21">
   <g id="patch_19">
    <path d="M 325.857798 38.160826 
Q 328.830275 39.535596 333.549083 39.721376 
Q 335.072477 39.721376 335.759862 38.550963 
Q 336.447248 37.38055 336.447248 35.82 
Q 336.447248 35.299817 336.354358 34.909679 
Q 336.261468 34.519541 336.019954 34.296606 
Q 335.77844 34.07367 335.611239 33.943624 
Q 335.444037 33.813578 334.998165 33.757844 
Q 334.552294 33.70211 334.347936 33.683532 
Q 334.143578 33.664954 333.567661 33.683532 
Q 332.991743 33.70211 332.768807 33.70211 
Q 330.725229 33.70211 329.238991 35.578486 
Q 327.752752 37.454862 327.752752 39.609908 
Q 327.752752 42.619541 329.684862 44.570229 
Q 331.616972 46.520917 334.663761 46.520917 
Q 336.818807 46.818165 338.342202 44.29156 
" clip-path="url(#p22fa6c4359)" style="fill: none; stroke: #000000; stroke-linejoin: miter"/>
   </g>
  </g>
  <g id="axes_22">
   <g id="patch_20">
    <path d="M 353.843923 36.441748 
Q 352.634968 35.094627 348.662687 35.094627 
Q 347.142857 35.094627 346.365672 35.146439 
Q 345.588486 35.198252 344.58678 35.440043 
Q 343.585075 35.681834 343.101493 36.182687 
Q 342.61791 36.683539 342.272495 37.616162 
Q 341.927079 38.548785 341.927079 39.964989 
Q 341.927079 42.037484 343.343284 43.280981 
Q 344.759488 44.524478 346.693817 44.524478 
Q 349.353518 44.524478 352.116844 38.721493 
Q 353.463966 35.854542 353.463966 35.82 
Q 353.809382 35.578209 353.843923 36.441748 
Q 353.843923 37.512537 354.258422 40.362217 
Q 354.672921 43.211898 354.672921 44.524478 
" clip-path="url(#p76e3e0e0ef)" style="fill: none; stroke: #000000; stroke-linejoin: miter"/>
   </g>
  </g>
  <g id="axes_23">
   <g id="patch_21">
    <path d="M 359.663834 37.95691 
L 360.338648 37.95691 
Q 361.050952 37.95691 361.838234 37.881931 
Q 362.625517 37.806952 363.581503 37.675738 
Q 364.53749 37.544524 365.062345 37.507034 
L 369.336166 35.82 
M 365.287283 30.42149 
L 365.287283 31.43371 
Q 365.287283 33.383172 364.612469 37.207117 
Q 363.937655 41.031062 363.937655 43.018014 
Q 363.937655 43.805297 363.937655 44.105214 
Q 363.937655 44.405131 364.031379 45.042455 
Q 364.125103 45.679779 364.312552 45.960952 
Q 364.5 46.242124 364.893641 46.485807 
Q 365.287283 46.72949 365.849628 46.72949 
Q 365.962097 46.692 366.280759 46.72949 
Q 366.599421 46.766979 366.786869 46.710745 
Q 366.974317 46.65451 366.974317 46.392083 
" clip-path="url(#pb22370d19f)" style="fill: none; stroke: #000000; stroke-linejoin: miter"/>
   </g>
  </g>
  <g id="axes_24"/>
  <g id="axes_25">
   <g id="patch_22">
    <path d="M 392.063834 37.95691 
L 392.738648 37.95691 
Q 393.450952 37.95691 394.238234 37.881931 
Q 395.025517 37.806952 395.981503 37.675738 
Q 396.93749 37.544524 397.462345 37.507034 
L 401.736166 35.82 
M 397.687283 30.42149 
L 397.687283 31.43371 
Q 397.687283 33.383172 397.012469 37.207117 
Q 396.337655 41.031062 396.337655 43.018014 
Q 396.337655 43.805297 396.337655 44.105214 
Q 396.337655 44.405131 396.431379 45.042455 
Q 396.525103 45.679779 396.712552 45.960952 
Q 396.9 46.242124 397.293641 46.485807 
Q 397.687283 46.72949 398.249628 46.72949 
Q 398.362097 46.692 398.680759 46.72949 
Q 398.999421 46.766979 399.186869 46.710745 
Q 399.374317 46.65451 399.374317 46.392083 
" clip-path="url(#p0f10e045ec)" style="fill: none; stroke: #000000; stroke-linejoin: miter"/>
   </g>
  </g>
  <g id="axes_26">
   <g id="patch_23">
    <path d="M 416.3616 35.032717 
Q 415.31189 34.582841 414.337159 34.69531 
Q 411.300497 35.032717 409.388524 36.701007 
Q 407.476552 38.369297 407.476552 41.330979 
Q 407.476552 43.917766 409.482248 45.6048 
Q 411.487945 47.291834 414.112221 47.291834 
Q 416.474069 47.291834 417.598759 45.361117 
Q 418.723448 43.4304 418.723448 40.881103 
Q 418.723448 39.643945 418.311062 38.706703 
Q 417.898676 37.769462 417.373821 37.300841 
Q 416.848966 36.832221 416.099172 36.119917 
Q 415.349379 35.407614 414.899503 34.69531 
L 413.662345 34.245434 
" clip-path="url(#p251ed62226)" style="fill: none; stroke: #000000; stroke-linejoin: miter"/>
   </g>
  </g>
  <g id="axes_27"/>
  <g id="axes_28">
   <g id="patch_24">
    <path d="M 441.057476 43.917766 
Q 441.357393 44.180193 442.369614 45.154924 
Q 443.381834 46.129655 443.944179 46.560786 
Q 444.506524 46.991917 445.53749 47.385559 
Q 446.568455 47.7792 447.580676 47.629241 
Q 448.25549 47.629241 448.72411 47.404303 
Q 449.192731 47.179366 449.417669 46.879448 
Q 449.642607 46.579531 449.773821 45.979697 
Q 449.905034 45.379862 449.923779 44.967476 
Q 449.942524 44.55509 449.942524 43.805297 
Q 449.942524 42.718097 449.042772 42.043283 
Q 448.143021 41.368469 446.849628 41.031062 
Q 445.556234 40.693655 444.262841 40.300014 
Q 442.969448 39.906372 442.069697 38.987876 
Q 441.169945 38.069379 441.169945 36.607283 
Q 441.169945 36.082428 441.338648 35.726276 
Q 441.507352 35.370124 441.900993 35.145186 
Q 442.294634 34.920248 442.575807 34.807779 
Q 442.856979 34.69531 443.513048 34.639076 
Q 444.169117 34.582841 444.356566 34.582841 
Q 444.544014 34.582841 445.218828 34.582841 
Q 446.418497 34.582841 446.999586 34.995228 
Q 447.580676 35.407614 447.899338 36.026193 
Q 448.218 36.644772 448.480428 36.832221 
" clip-path="url(#p1f1b7291d9)" style="fill: none; stroke: #000000; stroke-linejoin: miter"/>
   </g>
  </g>
  <g id="axes_29">
   <g id="patch_25">
    <path d="M 456.920069 39.868883 
L 456.920069 39.419007 
Q 456.920069 37.769462 458.663338 36.682262 
Q 460.406607 35.595062 462.093641 35.595062 
Q 464.305531 35.595062 465.673903 36.794731 
Q 467.042276 37.9944 467.042276 40.20629 
Q 467.042276 42.30571 465.224028 43.336676 
Q 463.405779 44.367641 461.19389 44.367641 
Q 460.519076 44.367641 460.012966 44.255172 
Q 459.506855 44.142703 458.888276 43.917766 
Q 458.269697 43.692828 457.819821 43.580359 
L 456.695131 42.568138 
M 456.357724 36.832221 
Q 456.8076 38.444276 457.070028 40.262524 
Q 457.332455 42.080772 457.38869 43.749062 
Q 457.444924 45.417352 457.482414 47.27309 
Q 457.519903 49.128828 457.482414 50.778372 
L 457.369945 57.863917 
" clip-path="url(#p6654db1e4e)" style="fill: none; stroke: #000000; stroke-linejoin: miter"/>
   </g>
  </g>
  <g id="axes_30">
   <g id="patch_26">
    <path d="M 471.657798 38.160826 
Q 474.630275 39.535596 479.349083 39.721376 
Q 480.872477 39.721376 481.559862 38.550963 
Q 482.247248 37.38055 482.247248 35.82 
Q 482.247248 35.299817 482.154358 34.909679 
Q 482.061468 34.519541 481.819954 34.296606 
Q 481.57844 34.07367 481.411239 33.943624 
Q 481.244037 33.813578 480.798165 33.757844 
Q 480.352294 33.70211 480.147936 33.683532 
Q 479.943578 33.664954 479.367661 33.683532 
Q 478.791743 33.70211 478.568807 33.70211 
Q 476.525229 33.70211 475.038991 35.578486 
Q 473.552752 37.454862 473.552752 39.609908 
Q 473.552752 42.619541 475.484862 44.570229 
Q 477.416972 46.520917 480.463761 46.520917 
Q 482.618807 46.818165 484.142202 44.29156 
" clip-path="url(#pf55b0d1743)" style="fill: none; stroke: #000000; stroke-linejoin: miter"/>
   </g>
  </g>
  <g id="axes_31">
   <g id="patch_27">
    <path d="M 489.638731 37.282097 
L 489.638731 37.844441 
Q 489.901159 39.868883 489.938648 41.312234 
Q 489.976138 42.755586 489.882414 44.667559 
Q 489.78869 46.579531 489.78869 48.191586 
L 489.863669 39.643945 
Q 489.863669 38.144359 491.456979 37.507034 
Q 493.05029 36.86971 494.474897 37.282097 
Q 496.386869 37.844441 497.305366 39.04411 
Q 498.223862 40.243779 498.280097 41.668386 
Q 498.336331 43.092993 498.373821 44.817517 
Q 498.41131 46.542041 498.561269 48.191586 
" clip-path="url(#p3280cfddc6)" style="fill: none; stroke: #000000; stroke-linejoin: miter"/>
   </g>
  </g>
  <g id="axes_32">
   <g id="patch_28">
    <path d="M 513.899007 39.568966 
Q 512.549379 38.181848 510.3 38.444276 
Q 507.450786 38.444276 506.288607 39.793903 
Q 505.126428 41.143531 505.126428 44.067724 
Q 505.126428 45.56731 506.419821 46.279614 
Q 507.713214 46.991917 509.287779 46.991917 
Q 510.599917 46.991917 511.612138 45.736014 
Q 512.624359 44.48011 513.205448 42.30571 
Q 513.786538 40.13131 514.161434 37.938166 
Q 514.536331 35.745021 514.68629 33.045766 
Q 514.836248 30.34651 514.873738 28.978138 
Q 514.911228 27.609766 514.911228 26.185159 
Q 514.68629 26.260138 514.68629 29.896634 
L 514.68629 44.292662 
L 515.473572 48.229076 
" clip-path="url(#pe70818c7eb)" style="fill: none; stroke: #000000; stroke-linejoin: miter"/>
   </g>
  </g>
  <g id="axes_33"/>
  <g id="axes_34">
   <g id="patch_29">
    <path d="M 538.257476 43.917766 
Q 538.557393 44.180193 539.569614 45.154924 
Q 540.581834 46.129655 541.144179 46.560786 
Q 541.706524 46.991917 542.73749 47.385559 
Q 543.768455 47.7792 544.780676 47.629241 
Q 545.45549 47.629241 545.92411 47.404303 
Q 546.392731 47.179366 546.617669 46.879448 
Q 546.842607 46.579531 546.973821 45.979697 
Q 547.105034 45.379862 547.123779 44.967476 
Q 547.142524 44.55509 547.142524 43.805297 
Q 547.142524 42.718097 546.242772 42.043283 
Q 545.343021 41.368469 544.049628 41.031062 
Q 542.756234 40.693655 541.462841 40.300014 
Q 540.169448 39.906372 539.269697 38.987876 
Q 538.369945 38.069379 538.369945 36.607283 
Q 538.369945 36.082428 538.538648 35.726276 
Q 538.707352 35.370124 539.100993 35.145186 
Q 539.494634 34.920248 539.775807 34.807779 
Q 540.056979 34.69531 540.713048 34.639076 
Q 541.369117 34.582841 541.556566 34.582841 
Q 541.744014 34.582841 542.418828 34.582841 
Q 543.618497 34.582841 544.199586 34.995228 
Q 544.780676 35.407614 545.099338 36.026193 
Q 545.418 36.644772 545.680428 36.832221 
" clip-path="url(#p359a7074a5)" style="fill: none; stroke: #000000; stroke-linejoin: miter"/>
   </g>
  </g>
  <g id="axes_35">
   <g id="patch_30">
    <path d="M 562.1616 35.032717 
Q 561.11189 34.582841 560.137159 34.69531 
Q 557.100497 35.032717 555.188524 36.701007 
Q 553.276552 38.369297 553.276552 41.330979 
Q 553.276552 43.917766 555.282248 45.6048 
Q 557.287945 47.291834 559.912221 47.291834 
Q 562.274069 47.291834 563.398759 45.361117 
Q 564.523448 43.4304 564.523448 40.881103 
Q 564.523448 39.643945 564.111062 38.706703 
Q 563.698676 37.769462 563.173821 37.300841 
Q 562.648966 36.832221 561.899172 36.119917 
Q 561.149379 35.407614 560.699503 34.69531 
L 559.462345 34.245434 
" clip-path="url(#pc1ab240a0e)" style="fill: none; stroke: #000000; stroke-linejoin: miter"/>
   </g>
  </g>
  <g id="axes_36">
   <g id="patch_31">
    <path d="M 568.808036 34.879821 
Q 569.314286 36.073125 569.603571 42.871339 
Q 569.748214 46.632054 570.0375 46.632054 
Q 570.073661 46.632054 570.109821 46.595893 
Q 570.616071 46.017321 570.670313 44.588973 
Q 570.724554 43.160625 570.507589 41.750357 
Q 570.290625 40.340089 570.0375 38.712857 
Q 569.784375 37.085625 569.784375 36.398571 
Q 569.784375 35.169107 570.164063 33.939643 
Q 570.54375 32.710179 571.520089 32.710179 
Q 572.749554 32.710179 573.472768 34.355491 
Q 574.195982 36.000804 574.358705 37.971563 
Q 574.521429 39.942321 574.629911 41.587634 
Q 574.738393 43.232946 574.883036 43.232946 
Q 575.027679 43.232946 575.11808 41.497232 
Q 575.208482 39.761518 575.335045 37.700357 
Q 575.461607 35.639196 576.184821 33.903482 
Q 576.908036 32.167768 578.1375 32.167768 
Q 579.692411 33.035625 580.361384 34.771339 
Q 581.030357 36.507054 580.994196 38.188527 
Q 580.958036 39.87 580.976116 42.057723 
Q 580.994196 44.245446 581.391964 45.511071 
" clip-path="url(#p04e3c455ff)" style="fill: none; stroke: #000000; stroke-linejoin: miter"/>
   </g>
  </g>
  <g id="axes_37">
   <g id="patch_32">
    <path d="M 585.057798 38.160826 
Q 588.030275 39.535596 592.749083 39.721376 
Q 594.272477 39.721376 594.959862 38.550963 
Q 595.647248 37.38055 595.647248 35.82 
Q 595.647248 35.299817 595.554358 34.909679 
Q 595.461468 34.519541 595.219954 34.296606 
Q 594.97844 34.07367 594.811239 33.943624 
Q 594.644037 33.813578 594.198165 33.757844 
Q 593.752294 33.70211 593.547936 33.683532 
Q 593.343578 33.664954 592.767661 33.683532 
Q 592.191743 33.70211 591.968807 33.70211 
Q 589.925229 33.70211 588.438991 35.578486 
Q 586.952752 37.454862 586.952752 39.609908 
Q 586.952752 42.619541 588.884862 44.570229 
Q 590.816972 46.520917 593.863761 46.520917 
Q 596.018807 46.818165 597.542202 44.29156 
" clip-path="url(#pab4e8312c0)" style="fill: none; stroke: #000000; stroke-linejoin: miter"/>
   </g>
  </g>
  <g id="axes_38"/>
  <g id="axes_39">
   <g id="patch_33">
    <path d="M 618.863834 37.95691 
L 619.538648 37.95691 
Q 620.250952 37.95691 621.038234 37.881931 
Q 621.825517 37.806952 622.781503 37.675738 
Q 623.73749 37.544524 624.262345 37.507034 
L 628.536166 35.82 
M 624.487283 30.42149 
L 624.487283 31.43371 
Q 624.487283 33.383172 623.812469 37.207117 
Q 623.137655 41.031062 623.137655 43.018014 
Q 623.137655 43.805297 623.137655 44.105214 
Q 623.137655 44.405131 623.231379 45.042455 
Q 623.325103 45.679779 623.512552 45.960952 
Q 623.7 46.242124 624.093641 46.485807 
Q 624.487283 46.72949 625.049628 46.72949 
Q 625.162097 46.692 625.480759 46.72949 
Q 625.799421 46.766979 625.986869 46.710745 
Q 626.174317 46.65451 626.174317 46.392083 
" clip-path="url(#p5a5e181fa1)" style="fill: none; stroke: #000000; stroke-linejoin: miter"/>
   </g>
  </g>
  <g id="axes_40">
   <g id="patch_34">
    <path d="M 640.518579 29.071862 
Q 640.143683 29.146841 640.012469 29.577972 
Q 639.881255 30.009103 639.956234 30.42149 
Q 639.956234 30.571448 639.993724 30.702662 
Q 640.031214 30.833876 640.087448 30.89011 
Q 640.143683 30.946345 640.199917 31.040069 
Q 640.256152 31.133793 640.293641 31.208772 
L 640.40611 29.859145 
M 640.40611 34.020497 
Q 639.506359 39.006621 639.281421 42.793076 
L 639.731297 45.379862 
L 640.068703 46.054676 
" clip-path="url(#pdc36b6a588)" style="fill: none; stroke: #000000; stroke-linejoin: miter"/>
   </g>
  </g>
  <g id="axes_41">
   <g id="patch_35">
    <path d="M 649.808036 34.879821 
Q 650.314286 36.073125 650.603571 42.871339 
Q 650.748214 46.632054 651.0375 46.632054 
Q 651.073661 46.632054 651.109821 46.595893 
Q 651.616071 46.017321 651.670313 44.588973 
Q 651.724554 43.160625 651.507589 41.750357 
Q 651.290625 40.340089 651.0375 38.712857 
Q 650.784375 37.085625 650.784375 36.398571 
Q 650.784375 35.169107 651.164063 33.939643 
Q 651.54375 32.710179 652.520089 32.710179 
Q 653.749554 32.710179 654.472768 34.355491 
Q 655.195982 36.000804 655.358705 37.971563 
Q 655.521429 39.942321 655.629911 41.587634 
Q 655.738393 43.232946 655.883036 43.232946 
Q 656.027679 43.232946 656.11808 41.497232 
Q 656.208482 39.761518 656.335045 37.700357 
Q 656.461607 35.639196 657.184821 33.903482 
Q 657.908036 32.167768 659.1375 32.167768 
Q 660.692411 33.035625 661.361384 34.771339 
Q 662.030357 36.507054 661.994196 38.188527 
Q 661.958036 39.87 661.976116 42.057723 
Q 661.994196 44.245446 662.391964 45.511071 
" clip-path="url(#p5f76c97eed)" style="fill: none; stroke: #000000; stroke-linejoin: miter"/>
   </g>
  </g>
  <g id="axes_42">
   <g id="patch_36">
    <path d="M 666.057798 38.160826 
Q 669.030275 39.535596 673.749083 39.721376 
Q 675.272477 39.721376 675.959862 38.550963 
Q 676.647248 37.38055 676.647248 35.82 
Q 676.647248 35.299817 676.554358 34.909679 
Q 676.461468 34.519541 676.219954 34.296606 
Q 675.97844 34.07367 675.811239 33.943624 
Q 675.644037 33.813578 675.198165 33.757844 
Q 674.752294 33.70211 674.547936 33.683532 
Q 674.343578 33.664954 673.767661 33.683532 
Q 673.191743 33.70211 672.968807 33.70211 
Q 670.925229 33.70211 669.438991 35.578486 
Q 667.952752 37.454862 667.952752 39.609908 
Q 667.952752 42.619541 669.884862 44.570229 
Q 671.816972 46.520917 674.863761 46.520917 
Q 677.018807 46.818165 678.542202 44.29156 
" clip-path="url(#p8ff9089b12)" style="fill: none; stroke: #000000; stroke-linejoin: miter"/>
   </g>
  </g>
 </g>
 <defs>
  <clipPath id="pde230ecfda">
   <rect x="0" y="16.080504" width="16.2" height="39.478992"/>
  </clipPath>
  <clipPath id="p111e2cf999">
   <rect x="18.938979" y="8.64" width="10.722041" height="54.36"/>
  </clipPath>
  <clipPath id="pe2e83f4ff9">
   <rect x="35.138979" y="8.64" width="10.722041" height="54.36"/>
  </clipPath>
  <clipPath id="pae4b868296">
   <rect x="54.206938" y="8.64" width="4.986124" height="54.36"/>
  </clipPath>
  <clipPath id="p519d5d9372">
   <rect x="66.582993" y="8.64" width="12.634014" height="54.36"/>
  </clipPath>
  <clipPath id="pc01c435a0f">
   <rect x="82.389352" y="8.64" width="13.421297" height="54.36"/>
  </clipPath>
  <clipPath id="p9c243955a2">
   <rect x="97.2" y="9.603482" width="16.2" height="52.433036"/>
  </clipPath>
  <clipPath id="pdd1053de8d">
   <rect x="113.4" y="10.777356" width="16.2" height="50.085288"/>
  </clipPath>
  <clipPath id="p9e35a120f2">
   <rect x="131.382993" y="8.64" width="12.634014" height="54.36"/>
  </clipPath>
  <clipPath id="p47d164223d">
   <rect x="151.613131" y="8.64" width="4.573738" height="54.36"/>
  </clipPath>
  <clipPath id="pd462d7bc32">
   <rect x="178.2" y="16.753442" width="16.2" height="38.133117"/>
  </clipPath>
  <clipPath id="p10f1d6d72b">
   <rect x="195.789352" y="8.64" width="13.421297" height="54.36"/>
  </clipPath>
  <clipPath id="pbabecc4ebe">
   <rect x="226.8" y="10.936525" width="16.2" height="49.766949"/>
  </clipPath>
  <clipPath id="p261a0285a0">
   <rect x="243" y="10.777356" width="16.2" height="50.085288"/>
  </clipPath>
  <clipPath id="p3274417d58">
   <rect x="260.982993" y="8.64" width="12.634014" height="54.36"/>
  </clipPath>
  <clipPath id="p28250bb685">
   <rect x="291.6" y="9.426742" width="16.2" height="52.786517"/>
  </clipPath>
  <clipPath id="p3a94e53e44">
   <rect x="310.538979" y="8.64" width="10.722041" height="54.36"/>
  </clipPath>
  <clipPath id="p22fa6c4359">
   <rect x="324" y="8.881927" width="16.2" height="53.876147"/>
  </clipPath>
  <clipPath id="p76e3e0e0ef">
   <rect x="340.2" y="10.777356" width="16.2" height="50.085288"/>
  </clipPath>
  <clipPath id="pb22370d19f">
   <rect x="357.789352" y="8.64" width="13.421297" height="54.36"/>
  </clipPath>
  <clipPath id="p0f10e045ec">
   <rect x="390.189352" y="8.64" width="13.421297" height="54.36"/>
  </clipPath>
  <clipPath id="p251ed62226">
   <rect x="405.602069" y="8.64" width="14.995862" height="54.36"/>
  </clipPath>
  <clipPath id="p1f1b7291d9">
   <rect x="439.182993" y="8.64" width="12.634014" height="54.36"/>
  </clipPath>
  <clipPath id="p6654db1e4e">
   <rect x="454.483241" y="8.64" width="14.433517" height="54.36"/>
  </clipPath>
  <clipPath id="pf55b0d1743">
   <rect x="469.8" y="8.881927" width="16.2" height="53.876147"/>
  </clipPath>
  <clipPath id="p3280cfddc6">
   <rect x="487.764248" y="8.64" width="12.671503" height="54.36"/>
  </clipPath>
  <clipPath id="pe70818c7eb">
   <rect x="503.251945" y="8.64" width="14.09611" height="54.36"/>
  </clipPath>
  <clipPath id="p359a7074a5">
   <rect x="536.382993" y="8.64" width="12.634014" height="54.36"/>
  </clipPath>
  <clipPath id="pc1ab240a0e">
   <rect x="551.402069" y="8.64" width="14.995862" height="54.36"/>
  </clipPath>
  <clipPath id="p04e3c455ff">
   <rect x="567" y="9.603482" width="16.2" height="52.433036"/>
  </clipPath>
  <clipPath id="pab4e8312c0">
   <rect x="583.2" y="8.881927" width="16.2" height="53.876147"/>
  </clipPath>
  <clipPath id="p5a5e181fa1">
   <rect x="616.989352" y="8.64" width="13.421297" height="54.36"/>
  </clipPath>
  <clipPath id="pdc36b6a588">
   <rect x="637.406938" y="8.64" width="4.986124" height="54.36"/>
  </clipPath>
  <clipPath id="p5f76c97eed">
   <rect x="648" y="9.603482" width="16.2" height="52.433036"/>
  </clipPath>
  <clipPath id="p8ff9089b12">
   <rect x="664.2" y="8.881927" width="16.2" height="53.876147"/>
  </clipPath>
 </defs>
</svg>
