<?xml version="1.0" encoding="utf-8" standalone="no"?>
<!DOCTYPE svg PUBLIC "-//W3C//DTD SVG 1.1//EN"
  "http://www.w3.org/Graphics/SVG/1.1/DTD/svg11.dtd">
<svg xmlns:xlink="http://www.w3.org/1999/xlink" width="702pt" height="72pt" viewBox="0 0 702 72" xmlns="http://www.w3.org/2000/svg" version="1.1">
 <metadata>
  <rdf:RDF xmlns:dc="http://purl.org/dc/elements/1.1/" xmlns:cc="http://creativecommons.org/ns#" xmlns:rdf="http://www.w3.org/1999/02/22-rdf-syntax-ns#">
   <cc:Work>
    <dc:type rdf:resource="http://purl.org/dc/dcmitype/StillImage"/>
    <dc:date>2023-12-13T10:53:06.216970</dc:date>
    <dc:format>image/svg+xml</dc:format>
    <dc:creator>
     <cc:Agent>
      <dc:title>Matplotlib v3.7.1, https://matplotlib.org/</dc:title>
     </cc:Agent>
    </dc:creator>
   </cc:Work>
  </rdf:RDF>
 </metadata>
 <defs>
  <style type="text/css">*{stroke-linejoin: round; stroke-linecap: butt}</style>
 </defs>
 <g id="figure_1">
  <g id="patch_1">
   <path d="M 0 72 
L 702 72 
L 702 0 
L 0 0 
z
" style="fill: #8fff9f"/>
  </g>
  <g id="axes_1">
   <g id="patch_2">
    <path d="M 1.449016 45.151664 
L 1.709839 29.50229 
L 1.709839 28.893703 
Q 1.709839 28.66186 1.81127 28.299606 
Q 1.912701 27.937352 2.057603 27.937352 
Q 2.955993 27.937352 3.839893 29.270447 
Q 4.723792 30.603542 5.259928 32.19746 
Q 5.796064 33.791377 6.3322 35.124472 
Q 6.868336 36.457567 7.18712 36.457567 
Q 7.679785 36.457567 8.360823 35.023041 
Q 9.04186 33.588515 9.635957 31.849696 
Q 10.230054 30.110877 11.041503 28.676351 
Q 11.852952 27.241825 12.57746 27.241825 
Q 13.272987 27.241825 13.722182 30.632522 
Q 14.171377 34.02322 14.38873 38.50068 
Q 14.606082 42.97814 14.664043 43.325903 
L 14.750984 46.108014 
" clip-path="url(#p414157a652)" style="fill: none; stroke: #000000; stroke-linejoin: miter"/>
   </g>
  </g>
  <g id="axes_2">
   <g id="patch_3">
    <path d="M 24.918579 29.071862 
Q 24.543683 29.146841 24.412469 29.577972 
Q 24.281255 30.009103 24.356234 30.42149 
Q 24.356234 30.571448 24.393724 30.702662 
Q 24.431214 30.833876 24.487448 30.89011 
Q 24.543683 30.946345 24.599917 31.040069 
Q 24.656152 31.133793 24.693641 31.208772 
L 24.80611 29.859145 
M 24.80611 34.020497 
Q 23.906359 39.006621 23.681421 42.793076 
L 24.131297 45.379862 
L 24.468703 46.054676 
" clip-path="url(#pa3a837f3ce)" style="fill: none; stroke: #000000; stroke-linejoin: miter"/>
   </g>
  </g>
  <g id="axes_3">
   <g id="patch_4">
    <path d="M 36.057476 43.917766 
Q 36.357393 44.180193 37.369614 45.154924 
Q 38.381834 46.129655 38.944179 46.560786 
Q 39.506524 46.991917 40.53749 47.385559 
Q 41.568455 47.7792 42.580676 47.629241 
Q 43.25549 47.629241 43.72411 47.404303 
Q 44.192731 47.179366 44.417669 46.879448 
Q 44.642607 46.579531 44.773821 45.979697 
Q 44.905034 45.379862 44.923779 44.967476 
Q 44.942524 44.55509 44.942524 43.805297 
Q 44.942524 42.718097 44.042772 42.043283 
Q 43.143021 41.368469 41.849628 41.031062 
Q 40.556234 40.693655 39.262841 40.300014 
Q 37.969448 39.906372 37.069697 38.987876 
Q 36.169945 38.069379 36.169945 36.607283 
Q 36.169945 36.082428 36.338648 35.726276 
Q 36.507352 35.370124 36.900993 35.145186 
Q 37.294634 34.920248 37.575807 34.807779 
Q 37.856979 34.69531 38.513048 34.639076 
Q 39.169117 34.582841 39.356566 34.582841 
Q 39.544014 34.582841 40.218828 34.582841 
Q 41.418497 34.582841 41.999586 34.995228 
Q 42.580676 35.407614 42.899338 36.026193 
Q 43.218 36.644772 43.480428 36.832221 
" clip-path="url(#p78a6cb4bed)" style="fill: none; stroke: #000000; stroke-linejoin: miter"/>
   </g>
  </g>
  <g id="axes_4">
   <g id="patch_5">
    <path d="M 52.257476 43.917766 
Q 52.557393 44.180193 53.569614 45.154924 
Q 54.581834 46.129655 55.144179 46.560786 
Q 55.706524 46.991917 56.73749 47.385559 
Q 57.768455 47.7792 58.780676 47.629241 
Q 59.45549 47.629241 59.92411 47.404303 
Q 60.392731 47.179366 60.617669 46.879448 
Q 60.842607 46.579531 60.973821 45.979697 
Q 61.105034 45.379862 61.123779 44.967476 
Q 61.142524 44.55509 61.142524 43.805297 
Q 61.142524 42.718097 60.242772 42.043283 
Q 59.343021 41.368469 58.049628 41.031062 
Q 56.756234 40.693655 55.462841 40.300014 
Q 54.169448 39.906372 53.269697 38.987876 
Q 52.369945 38.069379 52.369945 36.607283 
Q 52.369945 36.082428 52.538648 35.726276 
Q 52.707352 35.370124 53.100993 35.145186 
Q 53.494634 34.920248 53.775807 34.807779 
Q 54.056979 34.69531 54.713048 34.639076 
Q 55.369117 34.582841 55.556566 34.582841 
Q 55.744014 34.582841 56.418828 34.582841 
Q 57.618497 34.582841 58.199586 34.995228 
Q 58.780676 35.407614 59.099338 36.026193 
Q 59.418 36.644772 59.680428 36.832221 
" clip-path="url(#p20c9bace8e)" style="fill: none; stroke: #000000; stroke-linejoin: miter"/>
   </g>
  </g>
  <g id="axes_5">
   <g id="patch_6">
    <path d="M 73.518579 29.071862 
Q 73.143683 29.146841 73.012469 29.577972 
Q 72.881255 30.009103 72.956234 30.42149 
Q 72.956234 30.571448 72.993724 30.702662 
Q 73.031214 30.833876 73.087448 30.89011 
Q 73.143683 30.946345 73.199917 31.040069 
Q 73.256152 31.133793 73.293641 31.208772 
L 73.40611 29.859145 
M 73.40611 34.020497 
Q 72.506359 39.006621 72.281421 42.793076 
L 72.731297 45.379862 
L 73.068703 46.054676 
" clip-path="url(#pb70df56730)" style="fill: none; stroke: #000000; stroke-linejoin: miter"/>
   </g>
  </g>
  <g id="axes_6">
   <g id="patch_7">
    <path d="M 84.638731 37.282097 
L 84.638731 37.844441 
Q 84.901159 39.868883 84.938648 41.312234 
Q 84.976138 42.755586 84.882414 44.667559 
Q 84.78869 46.579531 84.78869 48.191586 
L 84.863669 39.643945 
Q 84.863669 38.144359 86.456979 37.507034 
Q 88.05029 36.86971 89.474897 37.282097 
Q 91.386869 37.844441 92.305366 39.04411 
Q 93.223862 40.243779 93.280097 41.668386 
Q 93.336331 43.092993 93.373821 44.817517 
Q 93.41131 46.542041 93.561269 48.191586 
" clip-path="url(#p11d1fe19e5)" style="fill: none; stroke: #000000; stroke-linejoin: miter"/>
   </g>
  </g>
  <g id="axes_7">
   <g id="patch_8">
    <path d="M 110.087191 39.096404 
Q 109.83236 39.023596 108.86764 38.623146 
Q 107.902921 38.222697 107.24764 38.077079 
Q 106.59236 37.931461 105.937079 38.00427 
Q 103.315955 38.00427 101.677753 40.388764 
Q 100.039551 42.773258 100.039551 45.430787 
Q 100.039551 47.068989 105.281798 47.068989 
Q 106.847191 47.068989 108.175955 45.558202 
Q 109.504719 44.047416 110.178202 42.172584 
Q 110.851685 40.297753 110.851685 38.768764 
Q 110.851685 37.27618 110.815281 36.984944 
L 110.742472 38.077079 
Q 110.742472 38.550337 110.742472 38.987191 
Q 110.778876 40.188539 110.979101 42.281798 
Q 111.179326 44.375056 111.343146 46.049663 
Q 111.506966 47.72427 111.543371 49.872135 
Q 111.579775 52.02 111.415955 53.658202 
Q 111.252135 55.296404 110.687865 56.971011 
Q 110.123596 58.645618 109.195281 59.737753 
Q 108.266966 60.829888 106.665169 61.521573 
Q 105.063371 62.213258 102.915506 62.213258 
Q 101.277303 62.213258 100.185169 61.466966 
Q 99.093034 60.720674 99.093034 59.155281 
Q 99.020225 58.936854 99.056629 58.936854 
Q 99.093034 58.936854 99.202247 58.936854 
Q 99.311461 58.936854 99.311461 58.82764 
" clip-path="url(#pe81f5357d4)" style="fill: none; stroke: #000000; stroke-linejoin: miter"/>
   </g>
  </g>
  <g id="axes_8"/>
  <g id="axes_9">
   <g id="patch_9">
    <path d="M 132.563917 36.382345 
Q 132.526428 36.494814 132.657641 36.701007 
Q 132.788855 36.9072 132.676386 37.057159 
L 132.676386 39.306538 
Q 132.676386 40.506207 133.013793 41.724621 
Q 133.3512 42.943034 134.213462 43.93651 
Q 135.075724 44.929986 136.275393 44.929986 
Q 137.512552 44.929986 138.187366 43.861531 
Q 138.862179 42.793076 139.312055 41.143531 
Q 139.761931 39.493986 140.099338 38.969131 
L 140.886621 36.382345 
L 140.661683 42.680607 
L 140.661683 45.154924 
Q 140.661683 47.066897 141.392731 51.00331 
Q 142.123779 54.939724 142.123779 56.964166 
Q 142.873572 59.213545 141.786372 60.188276 
Q 140.699172 61.163007 138.637241 60.78811 
Q 136.837738 60.488193 135.919241 60.169531 
Q 135.000745 59.850869 133.013793 58.988607 
L 132.901324 58.426262 
" clip-path="url(#pe384c23ec9)" style="fill: none; stroke: #000000; stroke-linejoin: miter"/>
   </g>
  </g>
  <g id="axes_10">
   <g id="patch_10">
    <path d="M 157.1616 35.032717 
Q 156.11189 34.582841 155.137159 34.69531 
Q 152.100497 35.032717 150.188524 36.701007 
Q 148.276552 38.369297 148.276552 41.330979 
Q 148.276552 43.917766 150.282248 45.6048 
Q 152.287945 47.291834 154.912221 47.291834 
Q 157.274069 47.291834 158.398759 45.361117 
Q 159.523448 43.4304 159.523448 40.881103 
Q 159.523448 39.643945 159.111062 38.706703 
Q 158.698676 37.769462 158.173821 37.300841 
Q 157.648966 36.832221 156.899172 36.119917 
Q 156.149379 35.407614 155.699503 34.69531 
L 154.462345 34.245434 
" clip-path="url(#pcb131b7439)" style="fill: none; stroke: #000000; stroke-linejoin: miter"/>
   </g>
  </g>
  <g id="axes_11">
   <g id="patch_11">
    <path d="M 165.488772 35.145186 
Q 165.488772 35.145186 165.488772 35.595062 
Q 165.488772 36.269876 165.376303 37.619503 
Q 165.263834 38.969131 165.263834 39.643945 
Q 165.263834 41.930814 166.500993 43.599103 
Q 167.738152 45.267393 169.875062 45.267393 
Q 171.262179 45.154924 172.030717 43.917766 
Q 172.799255 42.680607 172.949214 41.237255 
Q 173.099172 39.793903 173.3616 37.9944 
Q 173.624028 36.194897 174.036414 35.370124 
Q 174.186372 35.070207 174.186372 35.670041 
Q 174.186372 36.269876 173.923945 38.706703 
Q 173.699007 41.031062 173.699007 41.555917 
Q 173.549048 42.643117 173.886455 43.767807 
Q 174.223862 44.892497 174.936166 45.6048 
" clip-path="url(#p9847a02bea)" style="fill: none; stroke: #000000; stroke-linejoin: miter"/>
   </g>
  </g>
  <g id="axes_12"/>
  <g id="axes_13">
   <g id="patch_12">
    <path d="M 208.043923 36.441748 
Q 206.834968 35.094627 202.862687 35.094627 
Q 201.342857 35.094627 200.565672 35.146439 
Q 199.788486 35.198252 198.78678 35.440043 
Q 197.785075 35.681834 197.301493 36.182687 
Q 196.81791 36.683539 196.472495 37.616162 
Q 196.127079 38.548785 196.127079 39.964989 
Q 196.127079 42.037484 197.543284 43.280981 
Q 198.959488 44.524478 200.893817 44.524478 
Q 203.553518 44.524478 206.316844 38.721493 
Q 207.663966 35.854542 207.663966 35.82 
Q 208.009382 35.578209 208.043923 36.441748 
Q 208.043923 37.512537 208.458422 40.362217 
Q 208.872921 43.211898 208.872921 44.524478 
" clip-path="url(#pc4e1a041bd)" style="fill: none; stroke: #000000; stroke-linejoin: miter"/>
   </g>
  </g>
  <g id="axes_14">
   <g id="patch_13">
    <path d="M 214.238731 37.282097 
L 214.238731 37.844441 
Q 214.501159 39.868883 214.538648 41.312234 
Q 214.576138 42.755586 214.482414 44.667559 
Q 214.38869 46.579531 214.38869 48.191586 
L 214.463669 39.643945 
Q 214.463669 38.144359 216.056979 37.507034 
Q 217.65029 36.86971 219.074897 37.282097 
Q 220.986869 37.844441 221.905366 39.04411 
Q 222.823862 40.243779 222.880097 41.668386 
Q 222.936331 43.092993 222.973821 44.817517 
Q 223.01131 46.542041 223.161269 48.191586 
" clip-path="url(#p76f85b0cad)" style="fill: none; stroke: #000000; stroke-linejoin: miter"/>
   </g>
  </g>
  <g id="axes_15">
   <g id="patch_14">
    <path d="M 238.499007 39.568966 
Q 237.149379 38.181848 234.9 38.444276 
Q 232.050786 38.444276 230.888607 39.793903 
Q 229.726428 41.143531 229.726428 44.067724 
Q 229.726428 45.56731 231.019821 46.279614 
Q 232.313214 46.991917 233.887779 46.991917 
Q 235.199917 46.991917 236.212138 45.736014 
Q 237.224359 44.48011 237.805448 42.30571 
Q 238.386538 40.13131 238.761434 37.938166 
Q 239.136331 35.745021 239.28629 33.045766 
Q 239.436248 30.34651 239.473738 28.978138 
Q 239.511228 27.609766 239.511228 26.185159 
Q 239.28629 26.260138 239.28629 29.896634 
L 239.28629 44.292662 
L 240.073572 48.229076 
" clip-path="url(#p4f5bdb95a4)" style="fill: none; stroke: #000000; stroke-linejoin: miter"/>
   </g>
  </g>
  <g id="axes_16"/>
  <g id="axes_17">
   <g id="patch_15">
    <path d="M 266.906359 28.621986 
Q 267.131297 30.34651 267.206276 32.146014 
Q 267.281255 33.945517 267.26251 36.551048 
Q 267.243766 39.156579 267.243766 40.093821 
Q 267.243766 40.13131 267.468703 45.829738 
L 267.693641 46.841959 
" clip-path="url(#pf29a67f88a)" style="fill: none; stroke: #000000; stroke-linejoin: miter"/>
   </g>
  </g>
  <g id="axes_18">
   <g id="patch_16">
    <path d="M 286.7616 35.032717 
Q 285.71189 34.582841 284.737159 34.69531 
Q 281.700497 35.032717 279.788524 36.701007 
Q 277.876552 38.369297 277.876552 41.330979 
Q 277.876552 43.917766 279.882248 45.6048 
Q 281.887945 47.291834 284.512221 47.291834 
Q 286.874069 47.291834 287.998759 45.361117 
Q 289.123448 43.4304 289.123448 40.881103 
Q 289.123448 39.643945 288.711062 38.706703 
Q 288.298676 37.769462 287.773821 37.300841 
Q 287.248966 36.832221 286.499172 36.119917 
Q 285.749379 35.407614 285.299503 34.69531 
L 284.062345 34.245434 
" clip-path="url(#p72af047fb3)" style="fill: none; stroke: #000000; stroke-linejoin: miter"/>
   </g>
  </g>
  <g id="axes_19">
   <g id="patch_17">
    <path d="M 302.9616 35.032717 
Q 301.91189 34.582841 300.937159 34.69531 
Q 297.900497 35.032717 295.988524 36.701007 
Q 294.076552 38.369297 294.076552 41.330979 
Q 294.076552 43.917766 296.082248 45.6048 
Q 298.087945 47.291834 300.712221 47.291834 
Q 303.074069 47.291834 304.198759 45.361117 
Q 305.323448 43.4304 305.323448 40.881103 
Q 305.323448 39.643945 304.911062 38.706703 
Q 304.498676 37.769462 303.973821 37.300841 
Q 303.448966 36.832221 302.699172 36.119917 
Q 301.949379 35.407614 301.499503 34.69531 
L 300.262345 34.245434 
" clip-path="url(#p9fed61e05f)" style="fill: none; stroke: #000000; stroke-linejoin: miter"/>
   </g>
  </g>
  <g id="axes_20">
   <g id="patch_18">
    <path d="M 313.931793 37.169628 
Q 315.956234 39.194069 317.718248 41.76211 
Q 319.480262 44.330152 320.342524 46.72949 
M 316.968455 31.321241 
L 316.968455 31.546179 
Q 316.968455 32.333462 316.331131 33.514386 
Q 315.693807 34.69531 314.719076 36.101172 
Q 313.744345 37.507034 313.481917 37.95691 
L 312.244759 39.643945 
M 311.457476 26.710014 
Q 313.294469 36.269876 313.481917 48.641462 
" clip-path="url(#p4cea171423)" style="fill: none; stroke: #000000; stroke-linejoin: miter"/>
   </g>
  </g>
  <g id="axes_21">
   <g id="patch_19">
    <path d="M 332.718579 29.071862 
Q 332.343683 29.146841 332.212469 29.577972 
Q 332.081255 30.009103 332.156234 30.42149 
Q 332.156234 30.571448 332.193724 30.702662 
Q 332.231214 30.833876 332.287448 30.89011 
Q 332.343683 30.946345 332.399917 31.040069 
Q 332.456152 31.133793 332.493641 31.208772 
L 332.60611 29.859145 
M 332.60611 34.020497 
Q 331.706359 39.006621 331.481421 42.793076 
L 331.931297 45.379862 
L 332.268703 46.054676 
" clip-path="url(#paaeafa0300)" style="fill: none; stroke: #000000; stroke-linejoin: miter"/>
   </g>
  </g>
  <g id="axes_22">
   <g id="patch_20">
    <path d="M 343.838731 37.282097 
L 343.838731 37.844441 
Q 344.101159 39.868883 344.138648 41.312234 
Q 344.176138 42.755586 344.082414 44.667559 
Q 343.98869 46.579531 343.98869 48.191586 
L 344.063669 39.643945 
Q 344.063669 38.144359 345.656979 37.507034 
Q 347.25029 36.86971 348.674897 37.282097 
Q 350.586869 37.844441 351.505366 39.04411 
Q 352.423862 40.243779 352.480097 41.668386 
Q 352.536331 43.092993 352.573821 44.817517 
Q 352.61131 46.542041 352.761269 48.191586 
" clip-path="url(#p2a9944090a)" style="fill: none; stroke: #000000; stroke-linejoin: miter"/>
   </g>
  </g>
  <g id="axes_23">
   <g id="patch_21">
    <path d="M 369.287191 39.096404 
Q 369.03236 39.023596 368.06764 38.623146 
Q 367.102921 38.222697 366.44764 38.077079 
Q 365.79236 37.931461 365.137079 38.00427 
Q 362.515955 38.00427 360.877753 40.388764 
Q 359.239551 42.773258 359.239551 45.430787 
Q 359.239551 47.068989 364.481798 47.068989 
Q 366.047191 47.068989 367.375955 45.558202 
Q 368.704719 44.047416 369.378202 42.172584 
Q 370.051685 40.297753 370.051685 38.768764 
Q 370.051685 37.27618 370.015281 36.984944 
L 369.942472 38.077079 
Q 369.942472 38.550337 369.942472 38.987191 
Q 369.978876 40.188539 370.179101 42.281798 
Q 370.379326 44.375056 370.543146 46.049663 
Q 370.706966 47.72427 370.743371 49.872135 
Q 370.779775 52.02 370.615955 53.658202 
Q 370.452135 55.296404 369.887865 56.971011 
Q 369.323596 58.645618 368.395281 59.737753 
Q 367.466966 60.829888 365.865169 61.521573 
Q 364.263371 62.213258 362.115506 62.213258 
Q 360.477303 62.213258 359.385169 61.466966 
Q 358.293034 60.720674 358.293034 59.155281 
Q 358.220225 58.936854 358.256629 58.936854 
Q 358.293034 58.936854 358.402247 58.936854 
Q 358.511461 58.936854 358.511461 58.82764 
" clip-path="url(#p51cf05d187)" style="fill: none; stroke: #000000; stroke-linejoin: miter"/>
   </g>
  </g>
  <g id="axes_24"/>
  <g id="axes_25">
   <g id="patch_22">
    <path d="M 390.584141 38.85304 
L 391.012335 38.85304 
Q 391.83304 38.85304 392.796476 38.745991 
Q 393.759912 38.638943 394.919604 38.460529 
Q 396.079295 38.282115 396.685903 38.210749 
L 403.215859 35.427489 
M 402.894714 25.793128 
Q 402.609251 25.721762 401.574449 25.275727 
Q 400.539648 24.829692 399.897357 24.93674 
Q 399.255066 24.93674 398.737665 25.150837 
Q 398.220264 25.364934 397.881278 25.793128 
Q 397.542291 26.221322 397.27467 26.685198 
Q 397.007048 27.149075 396.864317 27.862731 
Q 396.721586 28.576388 396.614537 29.129471 
Q 396.507489 29.682555 396.489648 30.50326 
Q 396.471806 31.323965 396.453965 31.77 
Q 396.436123 32.216035 396.453965 32.965374 
Q 396.471806 33.714714 396.471806 33.928811 
Q 396.471806 36.605022 397.167621 41.850396 
Q 397.863436 47.095771 397.863436 49.771982 
Q 397.79207 50.057445 397.756388 50.681894 
Q 397.720705 51.306344 397.613656 51.805903 
Q 397.506608 52.305463 397.221145 52.555242 
" clip-path="url(#p05c15c8e1c)" style="fill: none; stroke: #000000; stroke-linejoin: miter"/>
   </g>
  </g>
  <g id="axes_26">
   <g id="patch_23">
    <path d="M 416.3616 35.032717 
Q 415.31189 34.582841 414.337159 34.69531 
Q 411.300497 35.032717 409.388524 36.701007 
Q 407.476552 38.369297 407.476552 41.330979 
Q 407.476552 43.917766 409.482248 45.6048 
Q 411.487945 47.291834 414.112221 47.291834 
Q 416.474069 47.291834 417.598759 45.361117 
Q 418.723448 43.4304 418.723448 40.881103 
Q 418.723448 39.643945 418.311062 38.706703 
Q 417.898676 37.769462 417.373821 37.300841 
Q 416.848966 36.832221 416.099172 36.119917 
Q 415.349379 35.407614 414.899503 34.69531 
L 413.662345 34.245434 
" clip-path="url(#p68914dc0c3)" style="fill: none; stroke: #000000; stroke-linejoin: miter"/>
   </g>
  </g>
  <g id="axes_27">
   <g id="patch_24">
    <path d="M 425.813462 32.783338 
Q 426.338317 34.507862 426.469531 36.457324 
Q 426.600745 38.406786 426.525766 40.956083 
Q 426.450786 43.505379 426.488276 44.705048 
L 426.600745 46.054676 
L 426.600745 45.829738 
Q 426.600745 44.667559 426.319572 42.30571 
Q 426.0384 39.943862 426.0384 38.744193 
Q 426.0384 36.419834 427.050621 34.882759 
Q 428.062841 33.345683 430.087283 33.345683 
Q 430.799586 33.345683 431.136993 33.626855 
Q 431.4744 33.908028 431.736828 34.432883 
Q 431.999255 34.957738 432.336662 35.257655 
L 432.786538 36.832221 
" clip-path="url(#p6e67d98d4e)" style="fill: none; stroke: #000000; stroke-linejoin: miter"/>
   </g>
  </g>
  <g id="axes_28">
   <g id="patch_25">
    <path d="M 439.116102 36.437797 
L 440.351695 44.778051 
Q 440.454661 45.567458 440.454661 45.60178 
Q 440.454661 45.704746 440.763559 45.704746 
Q 441.62161 45.704746 442.342373 44.778051 
Q 443.063136 43.851356 443.475 42.718729 
Q 443.886864 41.586102 444.401695 40.659407 
Q 444.916525 39.732712 445.397034 39.732712 
Q 446.014831 39.732712 446.649788 40.607924 
Q 447.284746 41.483136 447.748093 42.512797 
Q 448.211441 43.542458 448.88072 44.417669 
Q 449.55 45.292881 450.236441 45.292881 
Q 450.511017 43.782712 450.940042 39.69839 
Q 451.369068 35.614068 451.883898 33.554746 
" clip-path="url(#pd6e2519c7c)" style="fill: none; stroke: #000000; stroke-linejoin: miter"/>
   </g>
  </g>
  <g id="axes_29">
   <g id="patch_26">
    <path d="M 467.243923 36.441748 
Q 466.034968 35.094627 462.062687 35.094627 
Q 460.542857 35.094627 459.765672 35.146439 
Q 458.988486 35.198252 457.98678 35.440043 
Q 456.985075 35.681834 456.501493 36.182687 
Q 456.01791 36.683539 455.672495 37.616162 
Q 455.327079 38.548785 455.327079 39.964989 
Q 455.327079 42.037484 456.743284 43.280981 
Q 458.159488 44.524478 460.093817 44.524478 
Q 462.753518 44.524478 465.516844 38.721493 
Q 466.863966 35.854542 466.863966 35.82 
Q 467.209382 35.578209 467.243923 36.441748 
Q 467.243923 37.512537 467.658422 40.362217 
Q 468.072921 43.211898 468.072921 44.524478 
" clip-path="url(#pfc6ee2f93b)" style="fill: none; stroke: #000000; stroke-linejoin: miter"/>
   </g>
  </g>
  <g id="axes_30">
   <g id="patch_27">
    <path d="M 474.413462 32.783338 
Q 474.938317 34.507862 475.069531 36.457324 
Q 475.200745 38.406786 475.125766 40.956083 
Q 475.050786 43.505379 475.088276 44.705048 
L 475.200745 46.054676 
L 475.200745 45.829738 
Q 475.200745 44.667559 474.919572 42.30571 
Q 474.6384 39.943862 474.6384 38.744193 
Q 474.6384 36.419834 475.650621 34.882759 
Q 476.662841 33.345683 478.687283 33.345683 
Q 479.399586 33.345683 479.736993 33.626855 
Q 480.0744 33.908028 480.336828 34.432883 
Q 480.599255 34.957738 480.936662 35.257655 
L 481.386538 36.832221 
" clip-path="url(#p53fe9b9565)" style="fill: none; stroke: #000000; stroke-linejoin: miter"/>
   </g>
  </g>
  <g id="axes_31">
   <g id="patch_28">
    <path d="M 497.699007 39.568966 
Q 496.349379 38.181848 494.1 38.444276 
Q 491.250786 38.444276 490.088607 39.793903 
Q 488.926428 41.143531 488.926428 44.067724 
Q 488.926428 45.56731 490.219821 46.279614 
Q 491.513214 46.991917 493.087779 46.991917 
Q 494.399917 46.991917 495.412138 45.736014 
Q 496.424359 44.48011 497.005448 42.30571 
Q 497.586538 40.13131 497.961434 37.938166 
Q 498.336331 35.745021 498.48629 33.045766 
Q 498.636248 30.34651 498.673738 28.978138 
Q 498.711228 27.609766 498.711228 26.185159 
Q 498.48629 26.260138 498.48629 29.896634 
L 498.48629 44.292662 
L 499.273572 48.229076 
" clip-path="url(#p5f13a22315)" style="fill: none; stroke: #000000; stroke-linejoin: miter"/>
   </g>
  </g>
  <g id="axes_32"/>
  <g id="axes_33">
   <g id="patch_29">
    <path d="M 521.663834 37.95691 
L 522.338648 37.95691 
Q 523.050952 37.95691 523.838234 37.881931 
Q 524.625517 37.806952 525.581503 37.675738 
Q 526.53749 37.544524 527.062345 37.507034 
L 531.336166 35.82 
M 527.287283 30.42149 
L 527.287283 31.43371 
Q 527.287283 33.383172 526.612469 37.207117 
Q 525.937655 41.031062 525.937655 43.018014 
Q 525.937655 43.805297 525.937655 44.105214 
Q 525.937655 44.405131 526.031379 45.042455 
Q 526.125103 45.679779 526.312552 45.960952 
Q 526.5 46.242124 526.893641 46.485807 
Q 527.287283 46.72949 527.849628 46.72949 
Q 527.962097 46.692 528.280759 46.72949 
Q 528.599421 46.766979 528.786869 46.710745 
Q 528.974317 46.65451 528.974317 46.392083 
" clip-path="url(#p12e0233c90)" style="fill: none; stroke: #000000; stroke-linejoin: miter"/>
   </g>
  </g>
  <g id="axes_34">
   <g id="patch_30">
    <path d="M 545.9616 35.032717 
Q 544.91189 34.582841 543.937159 34.69531 
Q 540.900497 35.032717 538.988524 36.701007 
Q 537.076552 38.369297 537.076552 41.330979 
Q 537.076552 43.917766 539.082248 45.6048 
Q 541.087945 47.291834 543.712221 47.291834 
Q 546.074069 47.291834 547.198759 45.361117 
Q 548.323448 43.4304 548.323448 40.881103 
Q 548.323448 39.643945 547.911062 38.706703 
Q 547.498676 37.769462 546.973821 37.300841 
Q 546.448966 36.832221 545.699172 36.119917 
Q 544.949379 35.407614 544.499503 34.69531 
L 543.262345 34.245434 
" clip-path="url(#p3bb2e10f33)" style="fill: none; stroke: #000000; stroke-linejoin: miter"/>
   </g>
  </g>
  <g id="axes_35"/>
  <g id="axes_36">
   <g id="patch_31">
    <path d="M 568.808036 34.879821 
Q 569.314286 36.073125 569.603571 42.871339 
Q 569.748214 46.632054 570.0375 46.632054 
Q 570.073661 46.632054 570.109821 46.595893 
Q 570.616071 46.017321 570.670313 44.588973 
Q 570.724554 43.160625 570.507589 41.750357 
Q 570.290625 40.340089 570.0375 38.712857 
Q 569.784375 37.085625 569.784375 36.398571 
Q 569.784375 35.169107 570.164063 33.939643 
Q 570.54375 32.710179 571.520089 32.710179 
Q 572.749554 32.710179 573.472768 34.355491 
Q 574.195982 36.000804 574.358705 37.971563 
Q 574.521429 39.942321 574.629911 41.587634 
Q 574.738393 43.232946 574.883036 43.232946 
Q 575.027679 43.232946 575.11808 41.497232 
Q 575.208482 39.761518 575.335045 37.700357 
Q 575.461607 35.639196 576.184821 33.903482 
Q 576.908036 32.167768 578.1375 32.167768 
Q 579.692411 33.035625 580.361384 34.771339 
Q 581.030357 36.507054 580.994196 38.188527 
Q 580.958036 39.87 580.976116 42.057723 
Q 580.994196 44.245446 581.391964 45.511071 
" clip-path="url(#p92f6ccde4e)" style="fill: none; stroke: #000000; stroke-linejoin: miter"/>
   </g>
  </g>
  <g id="axes_37">
   <g id="patch_32">
    <path d="M 594.5616 35.032717 
Q 593.51189 34.582841 592.537159 34.69531 
Q 589.500497 35.032717 587.588524 36.701007 
Q 585.676552 38.369297 585.676552 41.330979 
Q 585.676552 43.917766 587.682248 45.6048 
Q 589.687945 47.291834 592.312221 47.291834 
Q 594.674069 47.291834 595.798759 45.361117 
Q 596.923448 43.4304 596.923448 40.881103 
Q 596.923448 39.643945 596.511062 38.706703 
Q 596.098676 37.769462 595.573821 37.300841 
Q 595.048966 36.832221 594.299172 36.119917 
Q 593.549379 35.407614 593.099503 34.69531 
L 591.862345 34.245434 
" clip-path="url(#pd337ac180e)" style="fill: none; stroke: #000000; stroke-linejoin: miter"/>
   </g>
  </g>
  <g id="axes_38">
   <g id="patch_33">
    <path d="M 604.013462 32.783338 
Q 604.538317 34.507862 604.669531 36.457324 
Q 604.800745 38.406786 604.725766 40.956083 
Q 604.650786 43.505379 604.688276 44.705048 
L 604.800745 46.054676 
L 604.800745 45.829738 
Q 604.800745 44.667559 604.519572 42.30571 
Q 604.2384 39.943862 604.2384 38.744193 
Q 604.2384 36.419834 605.250621 34.882759 
Q 606.262841 33.345683 608.287283 33.345683 
Q 608.999586 33.345683 609.336993 33.626855 
Q 609.6744 33.908028 609.936828 34.432883 
Q 610.199255 34.957738 610.536662 35.257655 
L 610.986538 36.832221 
" clip-path="url(#p7a143b08ac)" style="fill: none; stroke: #000000; stroke-linejoin: miter"/>
   </g>
  </g>
  <g id="axes_39">
   <g id="patch_34">
    <path d="M 617.457798 38.160826 
Q 620.430275 39.535596 625.149083 39.721376 
Q 626.672477 39.721376 627.359862 38.550963 
Q 628.047248 37.38055 628.047248 35.82 
Q 628.047248 35.299817 627.954358 34.909679 
Q 627.861468 34.519541 627.619954 34.296606 
Q 627.37844 34.07367 627.211239 33.943624 
Q 627.044037 33.813578 626.598165 33.757844 
Q 626.152294 33.70211 625.947936 33.683532 
Q 625.743578 33.664954 625.167661 33.683532 
Q 624.591743 33.70211 624.368807 33.70211 
Q 622.325229 33.70211 620.838991 35.578486 
Q 619.352752 37.454862 619.352752 39.609908 
Q 619.352752 42.619541 621.284862 44.570229 
Q 623.216972 46.520917 626.263761 46.520917 
Q 628.418807 46.818165 629.942202 44.29156 
" clip-path="url(#p088683d451)" style="fill: none; stroke: #000000; stroke-linejoin: miter"/>
   </g>
  </g>
 </g>
 <defs>
  <clipPath id="p414157a652">
   <rect x="0" y="14.809267" width="16.2" height="42.021467"/>
  </clipPath>
  <clipPath id="pa3a837f3ce">
   <rect x="21.806938" y="8.64" width="4.986124" height="54.36"/>
  </clipPath>
  <clipPath id="p78a6cb4bed">
   <rect x="34.182993" y="8.64" width="12.634014" height="54.36"/>
  </clipPath>
  <clipPath id="p20c9bace8e">
   <rect x="50.382993" y="8.64" width="12.634014" height="54.36"/>
  </clipPath>
  <clipPath id="pb70df56730">
   <rect x="70.406938" y="8.64" width="4.986124" height="54.36"/>
  </clipPath>
  <clipPath id="p11d1fe19e5">
   <rect x="82.764248" y="8.64" width="12.671503" height="54.36"/>
  </clipPath>
  <clipPath id="pe81f5357d4">
   <rect x="97.2" y="9.426742" width="16.2" height="52.786517"/>
  </clipPath>
  <clipPath id="pe384c23ec9">
   <rect x="130.651945" y="8.64" width="14.09611" height="54.36"/>
  </clipPath>
  <clipPath id="pcb131b7439">
   <rect x="146.402069" y="8.64" width="14.995862" height="54.36"/>
  </clipPath>
  <clipPath id="p9847a02bea">
   <rect x="163.389352" y="8.64" width="13.421297" height="54.36"/>
  </clipPath>
  <clipPath id="pc4e1a041bd">
   <rect x="194.4" y="10.777356" width="16.2" height="50.085288"/>
  </clipPath>
  <clipPath id="p76f85b0cad">
   <rect x="212.364248" y="8.64" width="12.671503" height="54.36"/>
  </clipPath>
  <clipPath id="p4f5bdb95a4">
   <rect x="227.851945" y="8.64" width="14.09611" height="54.36"/>
  </clipPath>
  <clipPath id="pf29a67f88a">
   <rect x="265.031876" y="8.64" width="4.536248" height="54.36"/>
  </clipPath>
  <clipPath id="p72af047fb3">
   <rect x="276.002069" y="8.64" width="14.995862" height="54.36"/>
  </clipPath>
  <clipPath id="p9fed61e05f">
   <rect x="292.202069" y="8.64" width="14.995862" height="54.36"/>
  </clipPath>
  <clipPath id="p4cea171423">
   <rect x="309.582993" y="8.64" width="12.634014" height="54.36"/>
  </clipPath>
  <clipPath id="paaeafa0300">
   <rect x="329.606938" y="8.64" width="4.986124" height="54.36"/>
  </clipPath>
  <clipPath id="p2a9944090a">
   <rect x="341.964248" y="8.64" width="12.671503" height="54.36"/>
  </clipPath>
  <clipPath id="p51cf05d187">
   <rect x="356.4" y="9.426742" width="16.2" height="52.786517"/>
  </clipPath>
  <clipPath id="p05c15c8e1c">
   <rect x="388.8" y="9.949956" width="16.2" height="51.740088"/>
  </clipPath>
  <clipPath id="p68914dc0c3">
   <rect x="405.602069" y="8.64" width="14.995862" height="54.36"/>
  </clipPath>
  <clipPath id="p6e67d98d4e">
   <rect x="423.938979" y="8.64" width="10.722041" height="54.36"/>
  </clipPath>
  <clipPath id="pd6e2519c7c">
   <rect x="437.4" y="10.936525" width="16.2" height="49.766949"/>
  </clipPath>
  <clipPath id="pfc6ee2f93b">
   <rect x="453.6" y="10.777356" width="16.2" height="50.085288"/>
  </clipPath>
  <clipPath id="p53fe9b9565">
   <rect x="472.538979" y="8.64" width="10.722041" height="54.36"/>
  </clipPath>
  <clipPath id="p5f13a22315">
   <rect x="487.051945" y="8.64" width="14.09611" height="54.36"/>
  </clipPath>
  <clipPath id="p12e0233c90">
   <rect x="519.789352" y="8.64" width="13.421297" height="54.36"/>
  </clipPath>
  <clipPath id="p3bb2e10f33">
   <rect x="535.202069" y="8.64" width="14.995862" height="54.36"/>
  </clipPath>
  <clipPath id="p92f6ccde4e">
   <rect x="567" y="9.603482" width="16.2" height="52.433036"/>
  </clipPath>
  <clipPath id="pd337ac180e">
   <rect x="583.802069" y="8.64" width="14.995862" height="54.36"/>
  </clipPath>
  <clipPath id="p7a143b08ac">
   <rect x="602.138979" y="8.64" width="10.722041" height="54.36"/>
  </clipPath>
  <clipPath id="p088683d451">
   <rect x="615.6" y="8.881927" width="16.2" height="53.876147"/>
  </clipPath>
 </defs>
</svg>
