<?xml version="1.0" encoding="utf-8" standalone="no"?>
<!DOCTYPE svg PUBLIC "-//W3C//DTD SVG 1.1//EN"
  "http://www.w3.org/Graphics/SVG/1.1/DTD/svg11.dtd">
<svg xmlns:xlink="http://www.w3.org/1999/xlink" width="594pt" height="72pt" viewBox="0 0 594 72" xmlns="http://www.w3.org/2000/svg" version="1.1">
 <metadata>
  <rdf:RDF xmlns:dc="http://purl.org/dc/elements/1.1/" xmlns:cc="http://creativecommons.org/ns#" xmlns:rdf="http://www.w3.org/1999/02/22-rdf-syntax-ns#">
   <cc:Work>
    <dc:type rdf:resource="http://purl.org/dc/dcmitype/StillImage"/>
    <dc:date>2023-12-13T10:53:08.312516</dc:date>
    <dc:format>image/svg+xml</dc:format>
    <dc:creator>
     <cc:Agent>
      <dc:title>Matplotlib v3.7.1, https://matplotlib.org/</dc:title>
     </cc:Agent>
    </dc:creator>
   </cc:Work>
  </rdf:RDF>
 </metadata>
 <defs>
  <style type="text/css">*{stroke-linejoin: round; stroke-linecap: butt}</style>
 </defs>
 <g id="figure_1">
  <g id="patch_1">
   <path d="M 0 72 
L 594 72 
L 594 0 
L 0 0 
z
" style="fill: #8fff9f"/>
  </g>
  <g id="axes_1">
   <g id="patch_2">
    <path d="M 1.096076 29.835426 
Q 2.148309 32.005656 3.058051 36.631096 
Q 3.967794 41.256536 4.844655 43.251394 
Q 5.524222 43.251394 6.22571 41.979946 
Q 6.927199 40.708498 7.398512 39.173992 
Q 7.869824 37.639486 8.374019 36.368038 
Q 8.878214 35.09659 9.185115 35.09659 
Q 9.40433 35.09659 9.645467 36.378999 
Q 9.886604 37.661407 10.138701 39.206874 
Q 10.390798 40.752341 10.982679 42.03475 
Q 11.57456 43.317158 12.407578 43.317158 
Q 12.714479 43.317158 13.185792 43.130825 
Q 13.657104 42.944493 13.657104 42.725277 
L 13.657104 42.199161 
Q 13.657104 40.576969 13.876319 38.647876 
Q 14.095535 36.718782 14.4682 34.362219 
Q 14.840866 32.005656 14.972395 30.821894 
L 15.103924 29.572368 
" clip-path="url(#p39e870dc24)" style="fill: none; stroke: #000000; stroke-linejoin: miter"/>
   </g>
  </g>
  <g id="axes_2">
   <g id="patch_3">
    <path d="M 24.918579 29.071862 
Q 24.543683 29.146841 24.412469 29.577972 
Q 24.281255 30.009103 24.356234 30.42149 
Q 24.356234 30.571448 24.393724 30.702662 
Q 24.431214 30.833876 24.487448 30.89011 
Q 24.543683 30.946345 24.599917 31.040069 
Q 24.656152 31.133793 24.693641 31.208772 
L 24.80611 29.859145 
M 24.80611 34.020497 
Q 23.906359 39.006621 23.681421 42.793076 
L 24.131297 45.379862 
L 24.468703 46.054676 
" clip-path="url(#p0fdf56268b)" style="fill: none; stroke: #000000; stroke-linejoin: miter"/>
   </g>
  </g>
  <g id="axes_3">
   <g id="patch_4">
    <path d="M 36.057476 43.917766 
Q 36.357393 44.180193 37.369614 45.154924 
Q 38.381834 46.129655 38.944179 46.560786 
Q 39.506524 46.991917 40.53749 47.385559 
Q 41.568455 47.7792 42.580676 47.629241 
Q 43.25549 47.629241 43.72411 47.404303 
Q 44.192731 47.179366 44.417669 46.879448 
Q 44.642607 46.579531 44.773821 45.979697 
Q 44.905034 45.379862 44.923779 44.967476 
Q 44.942524 44.55509 44.942524 43.805297 
Q 44.942524 42.718097 44.042772 42.043283 
Q 43.143021 41.368469 41.849628 41.031062 
Q 40.556234 40.693655 39.262841 40.300014 
Q 37.969448 39.906372 37.069697 38.987876 
Q 36.169945 38.069379 36.169945 36.607283 
Q 36.169945 36.082428 36.338648 35.726276 
Q 36.507352 35.370124 36.900993 35.145186 
Q 37.294634 34.920248 37.575807 34.807779 
Q 37.856979 34.69531 38.513048 34.639076 
Q 39.169117 34.582841 39.356566 34.582841 
Q 39.544014 34.582841 40.218828 34.582841 
Q 41.418497 34.582841 41.999586 34.995228 
Q 42.580676 35.407614 42.899338 36.026193 
Q 43.218 36.644772 43.480428 36.832221 
" clip-path="url(#p7a33405ee0)" style="fill: none; stroke: #000000; stroke-linejoin: miter"/>
   </g>
  </g>
  <g id="axes_4">
   <g id="patch_5">
    <path d="M 53.213462 35.932469 
Q 53.813297 35.257655 54.806772 34.826524 
Q 55.800248 34.395393 56.7 34.470372 
Q 57.337324 34.470372 57.82469 34.639076 
Q 58.312055 34.807779 58.630717 34.995228 
Q 58.949379 35.182676 59.174317 35.670041 
Q 59.399255 36.157407 59.511724 36.419834 
Q 59.624193 36.682262 59.680428 37.375821 
Q 59.736662 38.069379 59.755407 38.331807 
Q 59.774152 38.594234 59.755407 39.419007 
Q 59.736662 40.243779 59.736662 40.431228 
Q 59.736662 41.368469 59.567959 43.242952 
Q 59.399255 45.117434 59.399255 46.054676 
Q 59.399255 46.467062 59.45549 46.823214 
Q 59.511724 47.179366 59.605448 47.610497 
Q 59.699172 48.041628 59.736662 48.304055 
L 60.186538 48.528993 
M 53.663338 23.111007 
Q 53.888276 24.798041 53.888276 29.971614 
L 53.888276 42.3432 
L 53.550869 46.841959 
L 53.325931 47.74171 
" clip-path="url(#p5d14e2f809)" style="fill: none; stroke: #000000; stroke-linejoin: miter"/>
   </g>
  </g>
  <g id="axes_5">
   <g id="patch_6">
    <path d="M 73.518579 29.071862 
Q 73.143683 29.146841 73.012469 29.577972 
Q 72.881255 30.009103 72.956234 30.42149 
Q 72.956234 30.571448 72.993724 30.702662 
Q 73.031214 30.833876 73.087448 30.89011 
Q 73.143683 30.946345 73.199917 31.040069 
Q 73.256152 31.133793 73.293641 31.208772 
L 73.40611 29.859145 
M 73.40611 34.020497 
Q 72.506359 39.006621 72.281421 42.793076 
L 72.731297 45.379862 
L 73.068703 46.054676 
" clip-path="url(#p0a1d8d4e06)" style="fill: none; stroke: #000000; stroke-linejoin: miter"/>
   </g>
  </g>
  <g id="axes_6">
   <g id="patch_7">
    <path d="M 84.638731 37.282097 
L 84.638731 37.844441 
Q 84.901159 39.868883 84.938648 41.312234 
Q 84.976138 42.755586 84.882414 44.667559 
Q 84.78869 46.579531 84.78869 48.191586 
L 84.863669 39.643945 
Q 84.863669 38.144359 86.456979 37.507034 
Q 88.05029 36.86971 89.474897 37.282097 
Q 91.386869 37.844441 92.305366 39.04411 
Q 93.223862 40.243779 93.280097 41.668386 
Q 93.336331 43.092993 93.373821 44.817517 
Q 93.41131 46.542041 93.561269 48.191586 
" clip-path="url(#p161be333c9)" style="fill: none; stroke: #000000; stroke-linejoin: miter"/>
   </g>
  </g>
  <g id="axes_7">
   <g id="patch_8">
    <path d="M 110.087191 39.096404 
Q 109.83236 39.023596 108.86764 38.623146 
Q 107.902921 38.222697 107.24764 38.077079 
Q 106.59236 37.931461 105.937079 38.00427 
Q 103.315955 38.00427 101.677753 40.388764 
Q 100.039551 42.773258 100.039551 45.430787 
Q 100.039551 47.068989 105.281798 47.068989 
Q 106.847191 47.068989 108.175955 45.558202 
Q 109.504719 44.047416 110.178202 42.172584 
Q 110.851685 40.297753 110.851685 38.768764 
Q 110.851685 37.27618 110.815281 36.984944 
L 110.742472 38.077079 
Q 110.742472 38.550337 110.742472 38.987191 
Q 110.778876 40.188539 110.979101 42.281798 
Q 111.179326 44.375056 111.343146 46.049663 
Q 111.506966 47.72427 111.543371 49.872135 
Q 111.579775 52.02 111.415955 53.658202 
Q 111.252135 55.296404 110.687865 56.971011 
Q 110.123596 58.645618 109.195281 59.737753 
Q 108.266966 60.829888 106.665169 61.521573 
Q 105.063371 62.213258 102.915506 62.213258 
Q 101.277303 62.213258 100.185169 61.466966 
Q 99.093034 60.720674 99.093034 59.155281 
Q 99.020225 58.936854 99.056629 58.936854 
Q 99.093034 58.936854 99.202247 58.936854 
Q 99.311461 58.936854 99.311461 58.82764 
" clip-path="url(#pecf07d5aa5)" style="fill: none; stroke: #000000; stroke-linejoin: miter"/>
   </g>
  </g>
  <g id="axes_8"/>
  <g id="axes_9">
   <g id="patch_9">
    <path d="M 132.563917 36.382345 
Q 132.526428 36.494814 132.657641 36.701007 
Q 132.788855 36.9072 132.676386 37.057159 
L 132.676386 39.306538 
Q 132.676386 40.506207 133.013793 41.724621 
Q 133.3512 42.943034 134.213462 43.93651 
Q 135.075724 44.929986 136.275393 44.929986 
Q 137.512552 44.929986 138.187366 43.861531 
Q 138.862179 42.793076 139.312055 41.143531 
Q 139.761931 39.493986 140.099338 38.969131 
L 140.886621 36.382345 
L 140.661683 42.680607 
L 140.661683 45.154924 
Q 140.661683 47.066897 141.392731 51.00331 
Q 142.123779 54.939724 142.123779 56.964166 
Q 142.873572 59.213545 141.786372 60.188276 
Q 140.699172 61.163007 138.637241 60.78811 
Q 136.837738 60.488193 135.919241 60.169531 
Q 135.000745 59.850869 133.013793 58.988607 
L 132.901324 58.426262 
" clip-path="url(#p27def7bf34)" style="fill: none; stroke: #000000; stroke-linejoin: miter"/>
   </g>
  </g>
  <g id="axes_10">
   <g id="patch_10">
    <path d="M 157.1616 35.032717 
Q 156.11189 34.582841 155.137159 34.69531 
Q 152.100497 35.032717 150.188524 36.701007 
Q 148.276552 38.369297 148.276552 41.330979 
Q 148.276552 43.917766 150.282248 45.6048 
Q 152.287945 47.291834 154.912221 47.291834 
Q 157.274069 47.291834 158.398759 45.361117 
Q 159.523448 43.4304 159.523448 40.881103 
Q 159.523448 39.643945 159.111062 38.706703 
Q 158.698676 37.769462 158.173821 37.300841 
Q 157.648966 36.832221 156.899172 36.119917 
Q 156.149379 35.407614 155.699503 34.69531 
L 154.462345 34.245434 
" clip-path="url(#p9d20e9b50e)" style="fill: none; stroke: #000000; stroke-linejoin: miter"/>
   </g>
  </g>
  <g id="axes_11">
   <g id="patch_11">
    <path d="M 165.488772 35.145186 
Q 165.488772 35.145186 165.488772 35.595062 
Q 165.488772 36.269876 165.376303 37.619503 
Q 165.263834 38.969131 165.263834 39.643945 
Q 165.263834 41.930814 166.500993 43.599103 
Q 167.738152 45.267393 169.875062 45.267393 
Q 171.262179 45.154924 172.030717 43.917766 
Q 172.799255 42.680607 172.949214 41.237255 
Q 173.099172 39.793903 173.3616 37.9944 
Q 173.624028 36.194897 174.036414 35.370124 
Q 174.186372 35.070207 174.186372 35.670041 
Q 174.186372 36.269876 173.923945 38.706703 
Q 173.699007 41.031062 173.699007 41.555917 
Q 173.549048 42.643117 173.886455 43.767807 
Q 174.223862 44.892497 174.936166 45.6048 
" clip-path="url(#pce1bc7089a)" style="fill: none; stroke: #000000; stroke-linejoin: miter"/>
   </g>
  </g>
  <g id="axes_12"/>
  <g id="axes_13">
   <g id="patch_12">
    <path d="M 208.043923 36.441748 
Q 206.834968 35.094627 202.862687 35.094627 
Q 201.342857 35.094627 200.565672 35.146439 
Q 199.788486 35.198252 198.78678 35.440043 
Q 197.785075 35.681834 197.301493 36.182687 
Q 196.81791 36.683539 196.472495 37.616162 
Q 196.127079 38.548785 196.127079 39.964989 
Q 196.127079 42.037484 197.543284 43.280981 
Q 198.959488 44.524478 200.893817 44.524478 
Q 203.553518 44.524478 206.316844 38.721493 
Q 207.663966 35.854542 207.663966 35.82 
Q 208.009382 35.578209 208.043923 36.441748 
Q 208.043923 37.512537 208.458422 40.362217 
Q 208.872921 43.211898 208.872921 44.524478 
" clip-path="url(#pa17010b7cf)" style="fill: none; stroke: #000000; stroke-linejoin: miter"/>
   </g>
  </g>
  <g id="axes_14"/>
  <g id="axes_15">
   <g id="patch_13">
    <path d="M 230.120069 39.868883 
L 230.120069 39.419007 
Q 230.120069 37.769462 231.863338 36.682262 
Q 233.606607 35.595062 235.293641 35.595062 
Q 237.505531 35.595062 238.873903 36.794731 
Q 240.242276 37.9944 240.242276 40.20629 
Q 240.242276 42.30571 238.424028 43.336676 
Q 236.605779 44.367641 234.39389 44.367641 
Q 233.719076 44.367641 233.212966 44.255172 
Q 232.706855 44.142703 232.088276 43.917766 
Q 231.469697 43.692828 231.019821 43.580359 
L 229.895131 42.568138 
M 229.557724 36.832221 
Q 230.0076 38.444276 230.270028 40.262524 
Q 230.532455 42.080772 230.58869 43.749062 
Q 230.644924 45.417352 230.682414 47.27309 
Q 230.719903 49.128828 230.682414 50.778372 
L 230.569945 57.863917 
" clip-path="url(#p8bd77af2fd)" style="fill: none; stroke: #000000; stroke-linejoin: miter"/>
   </g>
  </g>
  <g id="axes_16">
   <g id="patch_14">
    <path d="M 244.857798 38.160826 
Q 247.830275 39.535596 252.549083 39.721376 
Q 254.072477 39.721376 254.759862 38.550963 
Q 255.447248 37.38055 255.447248 35.82 
Q 255.447248 35.299817 255.354358 34.909679 
Q 255.261468 34.519541 255.019954 34.296606 
Q 254.77844 34.07367 254.611239 33.943624 
Q 254.444037 33.813578 253.998165 33.757844 
Q 253.552294 33.70211 253.347936 33.683532 
Q 253.143578 33.664954 252.567661 33.683532 
Q 251.991743 33.70211 251.768807 33.70211 
Q 249.725229 33.70211 248.238991 35.578486 
Q 246.752752 37.454862 246.752752 39.609908 
Q 246.752752 42.619541 248.684862 44.570229 
Q 250.616972 46.520917 253.663761 46.520917 
Q 255.818807 46.818165 257.342202 44.29156 
" clip-path="url(#p36fd59f2a4)" style="fill: none; stroke: #000000; stroke-linejoin: miter"/>
   </g>
  </g>
  <g id="axes_17">
   <g id="patch_15">
    <path d="M 272.843923 36.441748 
Q 271.634968 35.094627 267.662687 35.094627 
Q 266.142857 35.094627 265.365672 35.146439 
Q 264.588486 35.198252 263.58678 35.440043 
Q 262.585075 35.681834 262.101493 36.182687 
Q 261.61791 36.683539 261.272495 37.616162 
Q 260.927079 38.548785 260.927079 39.964989 
Q 260.927079 42.037484 262.343284 43.280981 
Q 263.759488 44.524478 265.693817 44.524478 
Q 268.353518 44.524478 271.116844 38.721493 
Q 272.463966 35.854542 272.463966 35.82 
Q 272.809382 35.578209 272.843923 36.441748 
Q 272.843923 37.512537 273.258422 40.362217 
Q 273.672921 43.211898 273.672921 44.524478 
" clip-path="url(#p797bae9399)" style="fill: none; stroke: #000000; stroke-linejoin: miter"/>
   </g>
  </g>
  <g id="axes_18">
   <g id="patch_16">
    <path d="M 288.756735 34.365306 
Q 288.756735 34.365306 288.260816 34.365306 
Q 287.467347 34.365306 285.979592 34.067755 
Q 284.491837 33.770204 283.698367 33.770204 
Q 280.921224 33.770204 278.987143 35.224898 
Q 277.053061 36.679592 277.053061 39.423673 
Q 277.053061 40.94449 278.540816 42.399184 
Q 280.028571 43.853878 281.962653 44.663878 
Q 283.896735 45.473878 285.38449 45.473878 
Q 286.310204 45.473878 287.00449 45.110204 
Q 287.698776 44.746531 288.442653 44.118367 
Q 289.186531 43.490204 289.748571 43.192653 
L 289.946939 42.696735 
" clip-path="url(#p1d9e43f842)" style="fill: none; stroke: #000000; stroke-linejoin: miter"/>
   </g>
  </g>
  <g id="axes_19">
   <g id="patch_17">
    <path d="M 293.457798 38.160826 
Q 296.430275 39.535596 301.149083 39.721376 
Q 302.672477 39.721376 303.359862 38.550963 
Q 304.047248 37.38055 304.047248 35.82 
Q 304.047248 35.299817 303.954358 34.909679 
Q 303.861468 34.519541 303.619954 34.296606 
Q 303.37844 34.07367 303.211239 33.943624 
Q 303.044037 33.813578 302.598165 33.757844 
Q 302.152294 33.70211 301.947936 33.683532 
Q 301.743578 33.664954 301.167661 33.683532 
Q 300.591743 33.70211 300.368807 33.70211 
Q 298.325229 33.70211 296.838991 35.578486 
Q 295.352752 37.454862 295.352752 39.609908 
Q 295.352752 42.619541 297.284862 44.570229 
Q 299.216972 46.520917 302.263761 46.520917 
Q 304.418807 46.818165 305.942202 44.29156 
" clip-path="url(#pf3649f271d)" style="fill: none; stroke: #000000; stroke-linejoin: miter"/>
   </g>
  </g>
  <g id="axes_20">
   <g id="patch_18">
    <path d="M 309.584141 38.85304 
L 310.012335 38.85304 
Q 310.83304 38.85304 311.796476 38.745991 
Q 312.759912 38.638943 313.919604 38.460529 
Q 315.079295 38.282115 315.685903 38.210749 
L 322.215859 35.427489 
M 321.894714 25.793128 
Q 321.609251 25.721762 320.574449 25.275727 
Q 319.539648 24.829692 318.897357 24.93674 
Q 318.255066 24.93674 317.737665 25.150837 
Q 317.220264 25.364934 316.881278 25.793128 
Q 316.542291 26.221322 316.27467 26.685198 
Q 316.007048 27.149075 315.864317 27.862731 
Q 315.721586 28.576388 315.614537 29.129471 
Q 315.507489 29.682555 315.489648 30.50326 
Q 315.471806 31.323965 315.453965 31.77 
Q 315.436123 32.216035 315.453965 32.965374 
Q 315.471806 33.714714 315.471806 33.928811 
Q 315.471806 36.605022 316.167621 41.850396 
Q 316.863436 47.095771 316.863436 49.771982 
Q 316.79207 50.057445 316.756388 50.681894 
Q 316.720705 51.306344 316.613656 51.805903 
Q 316.506608 52.305463 316.221145 52.555242 
" clip-path="url(#p0b93b92095)" style="fill: none; stroke: #000000; stroke-linejoin: miter"/>
   </g>
  </g>
  <g id="axes_21">
   <g id="patch_19">
    <path d="M 327.488772 35.145186 
Q 327.488772 35.145186 327.488772 35.595062 
Q 327.488772 36.269876 327.376303 37.619503 
Q 327.263834 38.969131 327.263834 39.643945 
Q 327.263834 41.930814 328.500993 43.599103 
Q 329.738152 45.267393 331.875062 45.267393 
Q 333.262179 45.154924 334.030717 43.917766 
Q 334.799255 42.680607 334.949214 41.237255 
Q 335.099172 39.793903 335.3616 37.9944 
Q 335.624028 36.194897 336.036414 35.370124 
Q 336.186372 35.070207 336.186372 35.670041 
Q 336.186372 36.269876 335.923945 38.706703 
Q 335.699007 41.031062 335.699007 41.555917 
Q 335.549048 42.643117 335.886455 43.767807 
Q 336.223862 44.892497 336.936166 45.6048 
" clip-path="url(#p25804316bf)" style="fill: none; stroke: #000000; stroke-linejoin: miter"/>
   </g>
  </g>
  <g id="axes_22">
   <g id="patch_20">
    <path d="M 347.906359 28.621986 
Q 348.131297 30.34651 348.206276 32.146014 
Q 348.281255 33.945517 348.26251 36.551048 
Q 348.243766 39.156579 348.243766 40.093821 
Q 348.243766 40.13131 348.468703 45.829738 
L 348.693641 46.841959 
" clip-path="url(#p5238498fb4)" style="fill: none; stroke: #000000; stroke-linejoin: miter"/>
   </g>
  </g>
  <g id="axes_23"/>
  <g id="axes_24">
   <g id="patch_21">
    <path d="M 386.243923 36.441748 
Q 385.034968 35.094627 381.062687 35.094627 
Q 379.542857 35.094627 378.765672 35.146439 
Q 377.988486 35.198252 376.98678 35.440043 
Q 375.985075 35.681834 375.501493 36.182687 
Q 375.01791 36.683539 374.672495 37.616162 
Q 374.327079 38.548785 374.327079 39.964989 
Q 374.327079 42.037484 375.743284 43.280981 
Q 377.159488 44.524478 379.093817 44.524478 
Q 381.753518 44.524478 384.516844 38.721493 
Q 385.863966 35.854542 385.863966 35.82 
Q 386.209382 35.578209 386.243923 36.441748 
Q 386.243923 37.512537 386.658422 40.362217 
Q 387.072921 43.211898 387.072921 44.524478 
" clip-path="url(#pbd8b71d964)" style="fill: none; stroke: #000000; stroke-linejoin: miter"/>
   </g>
  </g>
  <g id="axes_25">
   <g id="patch_22">
    <path d="M 392.438731 37.282097 
L 392.438731 37.844441 
Q 392.701159 39.868883 392.738648 41.312234 
Q 392.776138 42.755586 392.682414 44.667559 
Q 392.58869 46.579531 392.58869 48.191586 
L 392.663669 39.643945 
Q 392.663669 38.144359 394.256979 37.507034 
Q 395.85029 36.86971 397.274897 37.282097 
Q 399.186869 37.844441 400.105366 39.04411 
Q 401.023862 40.243779 401.080097 41.668386 
Q 401.136331 43.092993 401.173821 44.817517 
Q 401.21131 46.542041 401.361269 48.191586 
" clip-path="url(#p39c5130b19)" style="fill: none; stroke: #000000; stroke-linejoin: miter"/>
   </g>
  </g>
  <g id="axes_26">
   <g id="patch_23">
    <path d="M 416.699007 39.568966 
Q 415.349379 38.181848 413.1 38.444276 
Q 410.250786 38.444276 409.088607 39.793903 
Q 407.926428 41.143531 407.926428 44.067724 
Q 407.926428 45.56731 409.219821 46.279614 
Q 410.513214 46.991917 412.087779 46.991917 
Q 413.399917 46.991917 414.412138 45.736014 
Q 415.424359 44.48011 416.005448 42.30571 
Q 416.586538 40.13131 416.961434 37.938166 
Q 417.336331 35.745021 417.48629 33.045766 
Q 417.636248 30.34651 417.673738 28.978138 
Q 417.711228 27.609766 417.711228 26.185159 
Q 417.48629 26.260138 417.48629 29.896634 
L 417.48629 44.292662 
L 418.273572 48.229076 
" clip-path="url(#pfaaa20bd4b)" style="fill: none; stroke: #000000; stroke-linejoin: miter"/>
   </g>
  </g>
  <g id="axes_27"/>
  <g id="axes_28">
   <g id="patch_24">
    <path d="M 445.856152 30.309021 
Q 445.368786 30.42149 445.781172 30.833876 
Q 446.156069 31.208772 446.231048 30.946345 
Q 446.268538 30.871366 446.193559 30.646428 
Q 446.193559 30.458979 446.118579 30.42149 
Q 446.0436 30.384 445.912386 30.42149 
Q 445.781172 30.458979 445.631214 30.42149 
L 445.518745 30.646428 
M 446.418497 33.345683 
Q 447.468207 37.731972 447.993062 40.13131 
Q 448.517917 42.530648 448.967793 46.317103 
Q 449.417669 50.103559 449.230221 53.25269 
Q 449.230221 53.440138 449.230221 54.021228 
Q 449.230221 54.602317 449.230221 54.902234 
Q 449.230221 55.202152 449.211476 55.783241 
Q 449.192731 56.364331 449.117752 56.701738 
Q 449.042772 57.039145 448.930303 57.52651 
Q 448.817834 58.013876 448.611641 58.313793 
Q 448.405448 58.61371 448.143021 58.894883 
Q 447.880593 59.176055 447.505697 59.307269 
Q 447.1308 59.438483 446.643434 59.438483 
Q 445.668703 59.438483 444.91891 59.251034 
Q 444.169117 59.063586 443.306855 58.707434 
Q 442.444593 58.351283 441.807269 58.201324 
L 441.582331 57.751448 
" clip-path="url(#pa50187850a)" style="fill: none; stroke: #000000; stroke-linejoin: miter"/>
   </g>
  </g>
  <g id="axes_29">
   <g id="patch_25">
    <path d="M 464.9616 35.032717 
Q 463.91189 34.582841 462.937159 34.69531 
Q 459.900497 35.032717 457.988524 36.701007 
Q 456.076552 38.369297 456.076552 41.330979 
Q 456.076552 43.917766 458.082248 45.6048 
Q 460.087945 47.291834 462.712221 47.291834 
Q 465.074069 47.291834 466.198759 45.361117 
Q 467.323448 43.4304 467.323448 40.881103 
Q 467.323448 39.643945 466.911062 38.706703 
Q 466.498676 37.769462 465.973821 37.300841 
Q 465.448966 36.832221 464.699172 36.119917 
Q 463.949379 35.407614 463.499503 34.69531 
L 462.262345 34.245434 
" clip-path="url(#p9b0f5e42c7)" style="fill: none; stroke: #000000; stroke-linejoin: miter"/>
   </g>
  </g>
  <g id="axes_30">
   <g id="patch_26">
    <path d="M 472.763917 36.382345 
Q 472.726428 36.494814 472.857641 36.701007 
Q 472.988855 36.9072 472.876386 37.057159 
L 472.876386 39.306538 
Q 472.876386 40.506207 473.213793 41.724621 
Q 473.5512 42.943034 474.413462 43.93651 
Q 475.275724 44.929986 476.475393 44.929986 
Q 477.712552 44.929986 478.387366 43.861531 
Q 479.062179 42.793076 479.512055 41.143531 
Q 479.961931 39.493986 480.299338 38.969131 
L 481.086621 36.382345 
L 480.861683 42.680607 
L 480.861683 45.154924 
Q 480.861683 47.066897 481.592731 51.00331 
Q 482.323779 54.939724 482.323779 56.964166 
Q 483.073572 59.213545 481.986372 60.188276 
Q 480.899172 61.163007 478.837241 60.78811 
Q 477.037738 60.488193 476.119241 60.169531 
Q 475.200745 59.850869 473.213793 58.988607 
L 473.101324 58.426262 
" clip-path="url(#pe08255ae2f)" style="fill: none; stroke: #000000; stroke-linejoin: miter"/>
   </g>
  </g>
  <g id="axes_31">
   <g id="patch_27">
    <path d="M 487.784141 38.85304 
L 488.212335 38.85304 
Q 489.03304 38.85304 489.996476 38.745991 
Q 490.959912 38.638943 492.119604 38.460529 
Q 493.279295 38.282115 493.885903 38.210749 
L 500.415859 35.427489 
M 500.094714 25.793128 
Q 499.809251 25.721762 498.774449 25.275727 
Q 497.739648 24.829692 497.097357 24.93674 
Q 496.455066 24.93674 495.937665 25.150837 
Q 495.420264 25.364934 495.081278 25.793128 
Q 494.742291 26.221322 494.47467 26.685198 
Q 494.207048 27.149075 494.064317 27.862731 
Q 493.921586 28.576388 493.814537 29.129471 
Q 493.707489 29.682555 493.689648 30.50326 
Q 493.671806 31.323965 493.653965 31.77 
Q 493.636123 32.216035 493.653965 32.965374 
Q 493.671806 33.714714 493.671806 33.928811 
Q 493.671806 36.605022 494.367621 41.850396 
Q 495.063436 47.095771 495.063436 49.771982 
Q 494.99207 50.057445 494.956388 50.681894 
Q 494.920705 51.306344 494.813656 51.805903 
Q 494.706608 52.305463 494.421145 52.555242 
" clip-path="url(#pc9cdf6d535)" style="fill: none; stroke: #000000; stroke-linejoin: miter"/>
   </g>
  </g>
  <g id="axes_32">
   <g id="patch_28">
    <path d="M 505.688772 35.145186 
Q 505.688772 35.145186 505.688772 35.595062 
Q 505.688772 36.269876 505.576303 37.619503 
Q 505.463834 38.969131 505.463834 39.643945 
Q 505.463834 41.930814 506.700993 43.599103 
Q 507.938152 45.267393 510.075062 45.267393 
Q 511.462179 45.154924 512.230717 43.917766 
Q 512.999255 42.680607 513.149214 41.237255 
Q 513.299172 39.793903 513.5616 37.9944 
Q 513.824028 36.194897 514.236414 35.370124 
Q 514.386372 35.070207 514.386372 35.670041 
Q 514.386372 36.269876 514.123945 38.706703 
Q 513.899007 41.031062 513.899007 41.555917 
Q 513.749048 42.643117 514.086455 43.767807 
Q 514.423862 44.892497 515.136166 45.6048 
" clip-path="url(#pa0e0d1c061)" style="fill: none; stroke: #000000; stroke-linejoin: miter"/>
   </g>
  </g>
  <g id="axes_33">
   <g id="patch_29">
    <path d="M 526.106359 28.621986 
Q 526.331297 30.34651 526.406276 32.146014 
Q 526.481255 33.945517 526.46251 36.551048 
Q 526.443766 39.156579 526.443766 40.093821 
Q 526.443766 40.13131 526.668703 45.829738 
L 526.893641 46.841959 
" clip-path="url(#p54f7bfec84)" style="fill: none; stroke: #000000; stroke-linejoin: miter"/>
   </g>
  </g>
 </g>
 <defs>
  <clipPath id="p39e870dc24">
   <rect x="0" y="19.926901" width="16.2" height="31.786198"/>
  </clipPath>
  <clipPath id="p0fdf56268b">
   <rect x="21.806938" y="8.64" width="4.986124" height="54.36"/>
  </clipPath>
  <clipPath id="p7a33405ee0">
   <rect x="34.182993" y="8.64" width="12.634014" height="54.36"/>
  </clipPath>
  <clipPath id="p5d14e2f809">
   <rect x="51.338979" y="8.64" width="10.722041" height="54.36"/>
  </clipPath>
  <clipPath id="p0a1d8d4e06">
   <rect x="70.406938" y="8.64" width="4.986124" height="54.36"/>
  </clipPath>
  <clipPath id="p161be333c9">
   <rect x="82.764248" y="8.64" width="12.671503" height="54.36"/>
  </clipPath>
  <clipPath id="pecf07d5aa5">
   <rect x="97.2" y="9.426742" width="16.2" height="52.786517"/>
  </clipPath>
  <clipPath id="p27def7bf34">
   <rect x="130.651945" y="8.64" width="14.09611" height="54.36"/>
  </clipPath>
  <clipPath id="p9d20e9b50e">
   <rect x="146.402069" y="8.64" width="14.995862" height="54.36"/>
  </clipPath>
  <clipPath id="pce1bc7089a">
   <rect x="163.389352" y="8.64" width="13.421297" height="54.36"/>
  </clipPath>
  <clipPath id="pa17010b7cf">
   <rect x="194.4" y="10.777356" width="16.2" height="50.085288"/>
  </clipPath>
  <clipPath id="p8bd77af2fd">
   <rect x="227.683241" y="8.64" width="14.433517" height="54.36"/>
  </clipPath>
  <clipPath id="p36fd59f2a4">
   <rect x="243" y="8.881927" width="16.2" height="53.876147"/>
  </clipPath>
  <clipPath id="p797bae9399">
   <rect x="259.2" y="10.777356" width="16.2" height="50.085288"/>
  </clipPath>
  <clipPath id="p1d9e43f842">
   <rect x="275.4" y="11.850612" width="16.2" height="47.938776"/>
  </clipPath>
  <clipPath id="pf3649f271d">
   <rect x="291.6" y="8.881927" width="16.2" height="53.876147"/>
  </clipPath>
  <clipPath id="p0b93b92095">
   <rect x="307.8" y="9.949956" width="16.2" height="51.740088"/>
  </clipPath>
  <clipPath id="p25804316bf">
   <rect x="325.389352" y="8.64" width="13.421297" height="54.36"/>
  </clipPath>
  <clipPath id="p5238498fb4">
   <rect x="346.031876" y="8.64" width="4.536248" height="54.36"/>
  </clipPath>
  <clipPath id="pbd8b71d964">
   <rect x="372.6" y="10.777356" width="16.2" height="50.085288"/>
  </clipPath>
  <clipPath id="p39c5130b19">
   <rect x="390.564248" y="8.64" width="12.671503" height="54.36"/>
  </clipPath>
  <clipPath id="pfaaa20bd4b">
   <rect x="406.051945" y="8.64" width="14.09611" height="54.36"/>
  </clipPath>
  <clipPath id="pa50187850a">
   <rect x="439.707848" y="8.64" width="11.584303" height="54.36"/>
  </clipPath>
  <clipPath id="p9b0f5e42c7">
   <rect x="454.202069" y="8.64" width="14.995862" height="54.36"/>
  </clipPath>
  <clipPath id="pe08255ae2f">
   <rect x="470.851945" y="8.64" width="14.09611" height="54.36"/>
  </clipPath>
  <clipPath id="pc9cdf6d535">
   <rect x="486" y="9.949956" width="16.2" height="51.740088"/>
  </clipPath>
  <clipPath id="pa0e0d1c061">
   <rect x="503.589352" y="8.64" width="13.421297" height="54.36"/>
  </clipPath>
  <clipPath id="p54f7bfec84">
   <rect x="524.231876" y="8.64" width="4.536248" height="54.36"/>
  </clipPath>
 </defs>
</svg>
