<?xml version='1.0' encoding='ASCII' standalone='yes'?>
<svg xmlns="http://www.w3.org/2000/svg" xmlns:xlink="http://www.w3.org/1999/xlink" version="1.1" width="0.375cm" viewBox="0 0 0.375 0.375" height="0.375cm">
  <g>
    <g transform="translate(0.0, 0.0) scale(1 1) ">
      <g transform="translate(0, 0) scale(0.015 0.015) "><metadata>
  <rdf:RDF xmlns:dc="http://purl.org/dc/elements/1.1/" xmlns:cc="http://creativecommons.org/ns#" xmlns:rdf="http://www.w3.org/1999/02/22-rdf-syntax-ns#">
   <cc:Work>
    <dc:type rdf:resource="http://purl.org/dc/dcmitype/StillImage"/>
    <dc:date>2024-01-04T19:57:03.496108</dc:date>
    <dc:format>image/svg+xml</dc:format>
    <dc:creator>
     <cc:Agent>
      <dc:title>Matplotlib v3.7.1, https://matplotlib.org/</dc:title>
     </cc:Agent>
    </dc:creator>
   </cc:Work>
  </rdf:RDF>
 </metadata>
 <defs>
  <style type="text/css">*{stroke-linejoin: round; stroke-linecap: butt}</style>
 </defs>
 <g id="figure_1">
  <g id="patch_1">
   <path d="M 0 72  L 414 72  L 414 0  L 0 0  z " style="fill: #8fff9f"/>
  </g>
  <g id="axes_1">
   <g id="patch_2">
    <path d="M 4.781498 38.139383  Q 4.781498 38.139383 6.815419 38.139383  Q 7.636123 37.889604 9.955507 38.085859  Q 12.27489 38.282115 13.238326 38.139383  M 1.784141 46.489163  L 1.891189 46.168018  Q 1.891189 45.275947 3.818062 40.797753  Q 5.744934 36.319559 7.707489 32.251718  Q 9.670044 28.183877 9.812775 28.183877  Q 10.669163 28.183877 11.364978 29.646872  Q 12.060793 31.109868 12.52467 33.393568  Q 12.988546 35.677269 13.327533 37.943128  Q 13.66652 40.208987 13.951982 42.332115  Q 14.237445 44.455242 14.415859 45.097533  " clip-path="url(#pc78f2c44f4)" style="fill: none; stroke: #000000; stroke-linejoin: miter"/>
   </g>
  </g>
  <g id="axes_2">
   <g id="patch_3">
    <path d="M 19.838731 37.282097  L 19.838731 37.844441  Q 20.101159 39.868883 20.138648 41.312234  Q 20.176138 42.755586 20.082414 44.667559  Q 19.98869 46.579531 19.98869 48.191586  L 20.063669 39.643945  Q 20.063669 38.144359 21.656979 37.507034  Q 23.25029 36.86971 24.674897 37.282097  Q 26.586869 37.844441 27.505366 39.04411  Q 28.423862 40.243779 28.480097 41.668386  Q 28.536331 43.092993 28.573821 44.817517  Q 28.61131 46.542041 28.761269 48.191586  " clip-path="url(#pc732e2d946)" style="fill: none; stroke: #000000; stroke-linejoin: miter"/>
   </g>
  </g>
  <g id="axes_3"/>
  <g id="axes_4">
   <g id="patch_4">
    <path d="M 52.088772 35.145186  Q 52.088772 35.145186 52.088772 35.595062  Q 52.088772 36.269876 51.976303 37.619503  Q 51.863834 38.969131 51.863834 39.643945  Q 51.863834 41.930814 53.100993 43.599103  Q 54.338152 45.267393 56.475062 45.267393  Q 57.862179 45.154924 58.630717 43.917766  Q 59.399255 42.680607 59.549214 41.237255  Q 59.699172 39.793903 59.9616 37.9944  Q 60.224028 36.194897 60.636414 35.370124  Q 60.786372 35.070207 60.786372 35.670041  Q 60.786372 36.269876 60.523945 38.706703  Q 60.299007 41.031062 60.299007 41.555917  Q 60.149048 42.643117 60.486455 43.767807  Q 60.823862 44.892497 61.536166 45.6048  " clip-path="url(#pde98bdb486)" style="fill: none; stroke: #000000; stroke-linejoin: miter"/>
   </g>
  </g>
  <g id="axes_5">
   <g id="patch_5">
    <path d="M 68.438731 37.282097  L 68.438731 37.844441  Q 68.701159 39.868883 68.738648 41.312234  Q 68.776138 42.755586 68.682414 44.667559  Q 68.58869 46.579531 68.58869 48.191586  L 68.663669 39.643945  Q 68.663669 38.144359 70.256979 37.507034  Q 71.85029 36.86971 73.274897 37.282097  Q 75.186869 37.844441 76.105366 39.04411  Q 77.023862 40.243779 77.080097 41.668386  Q 77.136331 43.092993 77.173821 44.817517  Q 77.21131 46.542041 77.361269 48.191586  " clip-path="url(#p52cc500392)" style="fill: none; stroke: #000000; stroke-linejoin: miter"/>
   </g>
  </g>
  <g id="axes_6">
   <g id="patch_6">
    <path d="M 84.263834 37.95691  L 84.938648 37.95691  Q 85.650952 37.95691 86.438234 37.881931  Q 87.225517 37.806952 88.181503 37.675738  Q 89.13749 37.544524 89.662345 37.507034  L 93.936166 35.82  M 89.887283 30.42149  L 89.887283 31.43371  Q 89.887283 33.383172 89.212469 37.207117  Q 88.537655 41.031062 88.537655 43.018014  Q 88.537655 43.805297 88.537655 44.105214  Q 88.537655 44.405131 88.631379 45.042455  Q 88.725103 45.679779 88.912552 45.960952  Q 89.1 46.242124 89.493641 46.485807  Q 89.887283 46.72949 90.449628 46.72949  Q 90.562097 46.692 90.880759 46.72949  Q 91.199421 46.766979 91.386869 46.710745  Q 91.574317 46.65451 91.574317 46.392083  " clip-path="url(#pd3fede88b0)" style="fill: none; stroke: #000000; stroke-linejoin: miter"/>
   </g>
  </g>
  <g id="axes_7">
   <g id="patch_7">
    <path d="M 105.918579 29.071862  Q 105.543683 29.146841 105.412469 29.577972  Q 105.281255 30.009103 105.356234 30.42149  Q 105.356234 30.571448 105.393724 30.702662  Q 105.431214 30.833876 105.487448 30.89011  Q 105.543683 30.946345 105.599917 31.040069  Q 105.656152 31.133793 105.693641 31.208772  L 105.80611 29.859145  M 105.80611 34.020497  Q 104.906359 39.006621 104.681421 42.793076  L 105.131297 45.379862  L 105.468703 46.054676  " clip-path="url(#p7cbe0c33df)" style="fill: none; stroke: #000000; stroke-linejoin: miter"/>
   </g>
  </g>
  <g id="axes_8">
   <g id="patch_8">
    <path d="M 116.663834 37.95691  L 117.338648 37.95691  Q 118.050952 37.95691 118.838234 37.881931  Q 119.625517 37.806952 120.581503 37.675738  Q 121.53749 37.544524 122.062345 37.507034  L 126.336166 35.82  M 122.287283 30.42149  L 122.287283 31.43371  Q 122.287283 33.383172 121.612469 37.207117  Q 120.937655 41.031062 120.937655 43.018014  Q 120.937655 43.805297 120.937655 44.105214  Q 120.937655 44.405131 121.031379 45.042455  Q 121.125103 45.679779 121.312552 45.960952  Q 121.5 46.242124 121.893641 46.485807  Q 122.287283 46.72949 122.849628 46.72949  Q 122.962097 46.692 123.280759 46.72949  Q 123.599421 46.766979 123.786869 46.710745  Q 123.974317 46.65451 123.974317 46.392083  " clip-path="url(#p52aae0f925)" style="fill: none; stroke: #000000; stroke-linejoin: miter"/>
   </g>
  </g>
  <g id="axes_9">
   <g id="patch_9">
    <path d="M 137.306359 28.621986  Q 137.531297 30.34651 137.606276 32.146014  Q 137.681255 33.945517 137.66251 36.551048  Q 137.643766 39.156579 137.643766 40.093821  Q 137.643766 40.13131 137.868703 45.829738  L 138.093641 46.841959  " clip-path="url(#p461a760ac3)" style="fill: none; stroke: #000000; stroke-linejoin: miter"/>
   </g>
  </g>
  <g id="axes_10">
   <g id="patch_10">
    <path d="M 147.657798 38.160826  Q 150.630275 39.535596 155.349083 39.721376  Q 156.872477 39.721376 157.559862 38.550963  Q 158.247248 37.38055 158.247248 35.82  Q 158.247248 35.299817 158.154358 34.909679  Q 158.061468 34.519541 157.819954 34.296606  Q 157.57844 34.07367 157.411239 33.943624  Q 157.244037 33.813578 156.798165 33.757844  Q 156.352294 33.70211 156.147936 33.683532  Q 155.943578 33.664954 155.367661 33.683532  Q 154.791743 33.70211 154.568807 33.70211  Q 152.525229 33.70211 151.038991 35.578486  Q 149.552752 37.454862 149.552752 39.609908  Q 149.552752 42.619541 151.484862 44.570229  Q 153.416972 46.520917 156.463761 46.520917  Q 158.618807 46.818165 160.142202 44.29156  " clip-path="url(#p3be302f7bb)" style="fill: none; stroke: #000000; stroke-linejoin: miter"/>
   </g>
  </g>
  <g id="axes_11">
   <g id="patch_11">
    <path d="M 173.699007 39.568966  Q 172.349379 38.181848 170.1 38.444276  Q 167.250786 38.444276 166.088607 39.793903  Q 164.926428 41.143531 164.926428 44.067724  Q 164.926428 45.56731 166.219821 46.279614  Q 167.513214 46.991917 169.087779 46.991917  Q 170.399917 46.991917 171.412138 45.736014  Q 172.424359 44.48011 173.005448 42.30571  Q 173.586538 40.13131 173.961434 37.938166  Q 174.336331 35.745021 174.48629 33.045766  Q 174.636248 30.34651 174.673738 28.978138  Q 174.711228 27.609766 174.711228 26.185159  Q 174.48629 26.260138 174.48629 29.896634  L 174.48629 44.292662  L 175.273572 48.229076  " clip-path="url(#pbf2793f800)" style="fill: none; stroke: #000000; stroke-linejoin: miter"/>
   </g>
  </g>
  <g id="axes_12"/>
  <g id="axes_13">
   <g id="patch_12">
    <path d="M 207.287191 39.096404  Q 207.03236 39.023596 206.06764 38.623146  Q 205.102921 38.222697 204.44764 38.077079  Q 203.79236 37.931461 203.137079 38.00427  Q 200.515955 38.00427 198.877753 40.388764  Q 197.239551 42.773258 197.239551 45.430787  Q 197.239551 47.068989 202.481798 47.068989  Q 204.047191 47.068989 205.375955 45.558202  Q 206.704719 44.047416 207.378202 42.172584  Q 208.051685 40.297753 208.051685 38.768764  Q 208.051685 37.27618 208.015281 36.984944  L 207.942472 38.077079  Q 207.942472 38.550337 207.942472 38.987191  Q 207.978876 40.188539 208.179101 42.281798  Q 208.379326 44.375056 208.543146 46.049663  Q 208.706966 47.72427 208.743371 49.872135  Q 208.779775 52.02 208.615955 53.658202  Q 208.452135 55.296404 207.887865 56.971011  Q 207.323596 58.645618 206.395281 59.737753  Q 205.466966 60.829888 203.865169 61.521573  Q 202.263371 62.213258 200.115506 62.213258  Q 198.477303 62.213258 197.385169 61.466966  Q 196.293034 60.720674 196.293034 59.155281  Q 196.220225 58.936854 196.256629 58.936854  Q 196.293034 58.936854 196.402247 58.936854  Q 196.511461 58.936854 196.511461 58.82764  " clip-path="url(#p0ead2b75c2)" style="fill: none; stroke: #000000; stroke-linejoin: miter"/>
   </g>
  </g>
  <g id="axes_14">
   <g id="patch_13">
    <path d="M 215.213462 35.932469  Q 215.813297 35.257655 216.806772 34.826524  Q 217.800248 34.395393 218.7 34.470372  Q 219.337324 34.470372 219.82469 34.639076  Q 220.312055 34.807779 220.630717 34.995228  Q 220.949379 35.182676 221.174317 35.670041  Q 221.399255 36.157407 221.511724 36.419834  Q 221.624193 36.682262 221.680428 37.375821  Q 221.736662 38.069379 221.755407 38.331807  Q 221.774152 38.594234 221.755407 39.419007  Q 221.736662 40.243779 221.736662 40.431228  Q 221.736662 41.368469 221.567959 43.242952  Q 221.399255 45.117434 221.399255 46.054676  Q 221.399255 46.467062 221.45549 46.823214  Q 221.511724 47.179366 221.605448 47.610497  Q 221.699172 48.041628 221.736662 48.304055  L 222.186538 48.528993  M 215.663338 23.111007  Q 215.888276 24.798041 215.888276 29.971614  L 215.888276 42.3432  L 215.550869 46.841959  L 215.325931 47.74171  " clip-path="url(#p94d5c64615)" style="fill: none; stroke: #000000; stroke-linejoin: miter"/>
   </g>
  </g>
  <g id="axes_15">
   <g id="patch_14">
    <path d="M 238.1616 35.032717  Q 237.11189 34.582841 236.137159 34.69531  Q 233.100497 35.032717 231.188524 36.701007  Q 229.276552 38.369297 229.276552 41.330979  Q 229.276552 43.917766 231.282248 45.6048  Q 233.287945 47.291834 235.912221 47.291834  Q 238.274069 47.291834 239.398759 45.361117  Q 240.523448 43.4304 240.523448 40.881103  Q 240.523448 39.643945 240.111062 38.706703  Q 239.698676 37.769462 239.173821 37.300841  Q 238.648966 36.832221 237.899172 36.119917  Q 237.149379 35.407614 236.699503 34.69531  L 235.462345 34.245434  " clip-path="url(#p414bfc2cbe)" style="fill: none; stroke: #000000; stroke-linejoin: miter"/>
   </g>
  </g>
  <g id="axes_16">
   <g id="patch_15">
    <path d="M 246.657476 43.917766  Q 246.957393 44.180193 247.969614 45.154924  Q 248.981834 46.129655 249.544179 46.560786  Q 250.106524 46.991917 251.13749 47.385559  Q 252.168455 47.7792 253.180676 47.629241  Q 253.85549 47.629241 254.32411 47.404303  Q 254.792731 47.179366 255.017669 46.879448  Q 255.242607 46.579531 255.373821 45.979697  Q 255.505034 45.379862 255.523779 44.967476  Q 255.542524 44.55509 255.542524 43.805297  Q 255.542524 42.718097 254.642772 42.043283  Q 253.743021 41.368469 252.449628 41.031062  Q 251.156234 40.693655 249.862841 40.300014  Q 248.569448 39.906372 247.669697 38.987876  Q 246.769945 38.069379 246.769945 36.607283  Q 246.769945 36.082428 246.938648 35.726276  Q 247.107352 35.370124 247.500993 35.145186  Q 247.894634 34.920248 248.175807 34.807779  Q 248.456979 34.69531 249.113048 34.639076  Q 249.769117 34.582841 249.956566 34.582841  Q 250.144014 34.582841 250.818828 34.582841  Q 252.018497 34.582841 252.599586 34.995228  Q 253.180676 35.407614 253.499338 36.026193  Q 253.818 36.644772 254.080428 36.832221  " clip-path="url(#p59902ea863)" style="fill: none; stroke: #000000; stroke-linejoin: miter"/>
   </g>
  </g>
  <g id="axes_17">
   <g id="patch_16">
    <path d="M 262.463834 37.95691  L 263.138648 37.95691  Q 263.850952 37.95691 264.638234 37.881931  Q 265.425517 37.806952 266.381503 37.675738  Q 267.33749 37.544524 267.862345 37.507034  L 272.136166 35.82  M 268.087283 30.42149  L 268.087283 31.43371  Q 268.087283 33.383172 267.412469 37.207117  Q 266.737655 41.031062 266.737655 43.018014  Q 266.737655 43.805297 266.737655 44.105214  Q 266.737655 44.405131 266.831379 45.042455  Q 266.925103 45.679779 267.112552 45.960952  Q 267.3 46.242124 267.693641 46.485807  Q 268.087283 46.72949 268.649628 46.72949  Q 268.762097 46.692 269.080759 46.72949  Q 269.399421 46.766979 269.586869 46.710745  Q 269.774317 46.65451 269.774317 46.392083  " clip-path="url(#pfac1ccc678)" style="fill: none; stroke: #000000; stroke-linejoin: miter"/>
   </g>
  </g>
  <g id="axes_18"/>
  <g id="axes_19">
   <g id="patch_17">
    <path d="M 295.257476 43.917766  Q 295.557393 44.180193 296.569614 45.154924  Q 297.581834 46.129655 298.144179 46.560786  Q 298.706524 46.991917 299.73749 47.385559  Q 300.768455 47.7792 301.780676 47.629241  Q 302.45549 47.629241 302.92411 47.404303  Q 303.392731 47.179366 303.617669 46.879448  Q 303.842607 46.579531 303.973821 45.979697  Q 304.105034 45.379862 304.123779 44.967476  Q 304.142524 44.55509 304.142524 43.805297  Q 304.142524 42.718097 303.242772 42.043283  Q 302.343021 41.368469 301.049628 41.031062  Q 299.756234 40.693655 298.462841 40.300014  Q 297.169448 39.906372 296.269697 38.987876  Q 295.369945 38.069379 295.369945 36.607283  Q 295.369945 36.082428 295.538648 35.726276  Q 295.707352 35.370124 296.100993 35.145186  Q 296.494634 34.920248 296.775807 34.807779  Q 297.056979 34.69531 297.713048 34.639076  Q 298.369117 34.582841 298.556566 34.582841  Q 298.744014 34.582841 299.418828 34.582841  Q 300.618497 34.582841 301.199586 34.995228  Q 301.780676 35.407614 302.099338 36.026193  Q 302.418 36.644772 302.680428 36.832221  " clip-path="url(#pf396eb41cf)" style="fill: none; stroke: #000000; stroke-linejoin: miter"/>
   </g>
  </g>
  <g id="axes_20">
   <g id="patch_18">
    <path d="M 311.063834 37.95691  L 311.738648 37.95691  Q 312.450952 37.95691 313.238234 37.881931  Q 314.025517 37.806952 314.981503 37.675738  Q 315.93749 37.544524 316.462345 37.507034  L 320.736166 35.82  M 316.687283 30.42149  L 316.687283 31.43371  Q 316.687283 33.383172 316.012469 37.207117  Q 315.337655 41.031062 315.337655 43.018014  Q 315.337655 43.805297 315.337655 44.105214  Q 315.337655 44.405131 315.431379 45.042455  Q 315.525103 45.679779 315.712552 45.960952  Q 315.9 46.242124 316.293641 46.485807  Q 316.687283 46.72949 317.249628 46.72949  Q 317.362097 46.692 317.680759 46.72949  Q 317.999421 46.766979 318.186869 46.710745  Q 318.374317 46.65451 318.374317 46.392083  " clip-path="url(#p50939435e2)" style="fill: none; stroke: #000000; stroke-linejoin: miter"/>
   </g>
  </g>
  <g id="axes_21">
   <g id="patch_19">
    <path d="M 335.3616 35.032717  Q 334.31189 34.582841 333.337159 34.69531  Q 330.300497 35.032717 328.388524 36.701007  Q 326.476552 38.369297 326.476552 41.330979  Q 326.476552 43.917766 328.482248 45.6048  Q 330.487945 47.291834 333.112221 47.291834  Q 335.474069 47.291834 336.598759 45.361117  Q 337.723448 43.4304 337.723448 40.881103  Q 337.723448 39.643945 337.311062 38.706703  Q 336.898676 37.769462 336.373821 37.300841  Q 335.848966 36.832221 335.099172 36.119917  Q 334.349379 35.407614 333.899503 34.69531  L 332.662345 34.245434  " clip-path="url(#p35c69d9c43)" style="fill: none; stroke: #000000; stroke-linejoin: miter"/>
   </g>
  </g>
  <g id="axes_22">
   <g id="patch_20">
    <path d="M 344.813462 32.783338  Q 345.338317 34.507862 345.469531 36.457324  Q 345.600745 38.406786 345.525766 40.956083  Q 345.450786 43.505379 345.488276 44.705048  L 345.600745 46.054676  L 345.600745 45.829738  Q 345.600745 44.667559 345.319572 42.30571  Q 345.0384 39.943862 345.0384 38.744193  Q 345.0384 36.419834 346.050621 34.882759  Q 347.062841 33.345683 349.087283 33.345683  Q 349.799586 33.345683 350.136993 33.626855  Q 350.4744 33.908028 350.736828 34.432883  Q 350.999255 34.957738 351.336662 35.257655  L 351.786538 36.832221  " clip-path="url(#p208fdfa098)" style="fill: none; stroke: #000000; stroke-linejoin: miter"/>
   </g>
  </g>
  <g id="axes_23">
   <g id="patch_21">
    <path d="M 359.363917 36.382345  Q 359.326428 36.494814 359.457641 36.701007  Q 359.588855 36.9072 359.476386 37.057159  L 359.476386 39.306538  Q 359.476386 40.506207 359.813793 41.724621  Q 360.1512 42.943034 361.013462 43.93651  Q 361.875724 44.929986 363.075393 44.929986  Q 364.312552 44.929986 364.987366 43.861531  Q 365.662179 42.793076 366.112055 41.143531  Q 366.561931 39.493986 366.899338 38.969131  L 367.686621 36.382345  L 367.461683 42.680607  L 367.461683 45.154924  Q 367.461683 47.066897 368.192731 51.00331  Q 368.923779 54.939724 368.923779 56.964166  Q 369.673572 59.213545 368.586372 60.188276  Q 367.499172 61.163007 365.437241 60.78811  Q 363.637738 60.488193 362.719241 60.169531  Q 361.800745 59.850869 359.813793 58.988607  L 359.701324 58.426262  " clip-path="url(#pf997aee2be)" style="fill: none; stroke: #000000; stroke-linejoin: miter"/>
   </g>
  </g>
 </g>
 <defs>
  <clipPath id="pc78f2c44f4">
   <rect x="0" y="9.949956" width="16.2" height="51.740088"/>
  </clipPath>
  <clipPath id="pc732e2d946">
   <rect x="17.964248" y="8.64" width="12.671503" height="54.36"/>
  </clipPath>
  <clipPath id="pde98bdb486">
   <rect x="49.989352" y="8.64" width="13.421297" height="54.36"/>
  </clipPath>
  <clipPath id="p52cc500392">
   <rect x="66.564248" y="8.64" width="12.671503" height="54.36"/>
  </clipPath>
  <clipPath id="pd3fede88b0">
   <rect x="82.389352" y="8.64" width="13.421297" height="54.36"/>
  </clipPath>
  <clipPath id="p7cbe0c33df">
   <rect x="102.806938" y="8.64" width="4.986124" height="54.36"/>
  </clipPath>
  <clipPath id="p52aae0f925">
   <rect x="114.789352" y="8.64" width="13.421297" height="54.36"/>
  </clipPath>
  <clipPath id="p461a760ac3">
   <rect x="135.431876" y="8.64" width="4.536248" height="54.36"/>
  </clipPath>
  <clipPath id="p3be302f7bb">
   <rect x="145.8" y="8.881927" width="16.2" height="53.876147"/>
  </clipPath>
  <clipPath id="pbf2793f800">
   <rect x="163.051945" y="8.64" width="14.09611" height="54.36"/>
  </clipPath>
  <clipPath id="p0ead2b75c2">
   <rect x="194.4" y="9.426742" width="16.2" height="52.786517"/>
  </clipPath>
  <clipPath id="p94d5c64615">
   <rect x="213.338979" y="8.64" width="10.722041" height="54.36"/>
  </clipPath>
  <clipPath id="p414bfc2cbe">
   <rect x="227.402069" y="8.64" width="14.995862" height="54.36"/>
  </clipPath>
  <clipPath id="p59902ea863">
   <rect x="244.782993" y="8.64" width="12.634014" height="54.36"/>
  </clipPath>
  <clipPath id="pfac1ccc678">
   <rect x="260.589352" y="8.64" width="13.421297" height="54.36"/>
  </clipPath>
  <clipPath id="pf396eb41cf">
   <rect x="293.382993" y="8.64" width="12.634014" height="54.36"/>
  </clipPath>
  <clipPath id="p50939435e2">
   <rect x="309.189352" y="8.64" width="13.421297" height="54.36"/>
  </clipPath>
  <clipPath id="p35c69d9c43">
   <rect x="324.602069" y="8.64" width="14.995862" height="54.36"/>
  </clipPath>
  <clipPath id="p208fdfa098">
   <rect x="342.938979" y="8.64" width="10.722041" height="54.36"/>
  </clipPath>
  <clipPath id="pf997aee2be">
   <rect x="357.451945" y="8.64" width="14.09611" height="54.36"/>
  </clipPath>
 </defs>
</g>
    </g>
    <g transform="translate(0.0, 4.429133858267716) scale(1 1) ">
      <g transform="translate(0, 0) scale(0.015 0.015) "><metadata>
  <rdf:RDF xmlns:dc="http://purl.org/dc/elements/1.1/" xmlns:cc="http://creativecommons.org/ns#" xmlns:rdf="http://www.w3.org/1999/02/22-rdf-syntax-ns#">
   <cc:Work>
    <dc:type rdf:resource="http://purl.org/dc/dcmitype/StillImage"/>
    <dc:date>2024-01-04T19:57:04.025367</dc:date>
    <dc:format>image/svg+xml</dc:format>
    <dc:creator>
     <cc:Agent>
      <dc:title>Matplotlib v3.7.1, https://matplotlib.org/</dc:title>
     </cc:Agent>
    </dc:creator>
   </cc:Work>
  </rdf:RDF>
 </metadata>
 <defs>
  <style type="text/css">*{stroke-linejoin: round; stroke-linecap: butt}</style>
 </defs>
 <g id="figure_1">
  <g id="patch_1">
   <path d="M 0 72  L 216 72  L 216 0  L 0 0  z " style="fill: #8fff9f"/>
  </g>
  <g id="axes_1">
   <g id="patch_2">
    <path d="M 1.087248 30.470738  L 2.261477 30.601208  Q 4.088054 30.601208 5.925503 30.709933  Q 7.762953 30.818658 10.002685 30.992617  Q 12.242416 31.166577 13.677584 31.253557  L 15.112752 31.123087  M 7.871678 31.057852  Q 7.936913 31.405772 7.675973 32.177718  Q 7.415034 32.949664 7.610738 33.406309  Q 7.610738 34.711007 7.752081 36.363624  Q 7.893423 38.016242 8.110872 39.973289  Q 8.328322 41.930336 8.393557 42.800134  " clip-path="url(#p03d036e19f)" style="fill: none; stroke: #000000; stroke-linejoin: miter"/>
   </g>
  </g>
  <g id="axes_2">
   <g id="patch_3">
    <path d="M 20.813462 32.783338  Q 21.338317 34.507862 21.469531 36.457324  Q 21.600745 38.406786 21.525766 40.956083  Q 21.450786 43.505379 21.488276 44.705048  L 21.600745 46.054676  L 21.600745 45.829738  Q 21.600745 44.667559 21.319572 42.30571  Q 21.0384 39.943862 21.0384 38.744193  Q 21.0384 36.419834 22.050621 34.882759  Q 23.062841 33.345683 25.087283 33.345683  Q 25.799586 33.345683 26.136993 33.626855  Q 26.4744 33.908028 26.736828 34.432883  Q 26.999255 34.957738 27.336662 35.257655  L 27.786538 36.832221  " clip-path="url(#p179bb887fc)" style="fill: none; stroke: #000000; stroke-linejoin: miter"/>
   </g>
  </g>
  <g id="axes_3">
   <g id="patch_4">
    <path d="M 34.257798 38.160826  Q 37.230275 39.535596 41.949083 39.721376  Q 43.472477 39.721376 44.159862 38.550963  Q 44.847248 37.38055 44.847248 35.82  Q 44.847248 35.299817 44.754358 34.909679  Q 44.661468 34.519541 44.419954 34.296606  Q 44.17844 34.07367 44.011239 33.943624  Q 43.844037 33.813578 43.398165 33.757844  Q 42.952294 33.70211 42.747936 33.683532  Q 42.543578 33.664954 41.967661 33.683532  Q 41.391743 33.70211 41.168807 33.70211  Q 39.125229 33.70211 37.638991 35.578486  Q 36.152752 37.454862 36.152752 39.609908  Q 36.152752 42.619541 38.084862 44.570229  Q 40.016972 46.520917 43.063761 46.520917  Q 45.218807 46.818165 46.742202 44.29156  " clip-path="url(#p8b3eeddb25)" style="fill: none; stroke: #000000; stroke-linejoin: miter"/>
   </g>
  </g>
  <g id="axes_4">
   <g id="patch_5">
    <path d="M 52.238731 37.282097  L 52.238731 37.844441  Q 52.501159 39.868883 52.538648 41.312234  Q 52.576138 42.755586 52.482414 44.667559  Q 52.38869 46.579531 52.38869 48.191586  L 52.463669 39.643945  Q 52.463669 38.144359 54.056979 37.507034  Q 55.65029 36.86971 57.074897 37.282097  Q 58.986869 37.844441 59.905366 39.04411  Q 60.823862 40.243779 60.880097 41.668386  Q 60.936331 43.092993 60.973821 44.817517  Q 61.01131 46.542041 61.161269 48.191586  " clip-path="url(#p9b21c00525)" style="fill: none; stroke: #000000; stroke-linejoin: miter"/>
   </g>
  </g>
  <g id="axes_5">
   <g id="patch_6">
    <path d="M 68.063834 37.95691  L 68.738648 37.95691  Q 69.450952 37.95691 70.238234 37.881931  Q 71.025517 37.806952 71.981503 37.675738  Q 72.93749 37.544524 73.462345 37.507034  L 77.736166 35.82  M 73.687283 30.42149  L 73.687283 31.43371  Q 73.687283 33.383172 73.012469 37.207117  Q 72.337655 41.031062 72.337655 43.018014  Q 72.337655 43.805297 72.337655 44.105214  Q 72.337655 44.405131 72.431379 45.042455  Q 72.525103 45.679779 72.712552 45.960952  Q 72.9 46.242124 73.293641 46.485807  Q 73.687283 46.72949 74.249628 46.72949  Q 74.362097 46.692 74.680759 46.72949  Q 74.999421 46.766979 75.186869 46.710745  Q 75.374317 46.65451 75.374317 46.392083  " clip-path="url(#p7185c31b13)" style="fill: none; stroke: #000000; stroke-linejoin: miter"/>
   </g>
  </g>
  <g id="axes_6"/>
  <g id="axes_7">
   <g id="patch_7">
    <path d="M 98.714019 27.825981  Q 100.500561 29.461121 102.135701 31.80785  Q 103.770841 34.154579 104.845794 36.213645  Q 105.920748 38.27271 107.389346 40.831402  Q 108.857944 43.390093 110.16 45.085794  Q 111.219813 34.729907 111.340935 33.36729  L 111.885981 27.825981  M 99.804112 29.097757  L 99.804112 30.732897  Q 99.804112 32.913084 99.728411 35.380935  Q 99.65271 37.848785 99.531589 40.831402  Q 99.410467 43.814019 99.349907 45.449159  " clip-path="url(#pbac520324f)" style="fill: none; stroke: #000000; stroke-linejoin: miter"/>
   </g>
  </g>
  <g id="axes_8">
   <g id="patch_8">
    <path d="M 115.257798 38.160826  Q 118.230275 39.535596 122.949083 39.721376  Q 124.472477 39.721376 125.159862 38.550963  Q 125.847248 37.38055 125.847248 35.82  Q 125.847248 35.299817 125.754358 34.909679  Q 125.661468 34.519541 125.419954 34.296606  Q 125.17844 34.07367 125.011239 33.943624  Q 124.844037 33.813578 124.398165 33.757844  Q 123.952294 33.70211 123.747936 33.683532  Q 123.543578 33.664954 122.967661 33.683532  Q 122.391743 33.70211 122.168807 33.70211  Q 120.125229 33.70211 118.638991 35.578486  Q 117.152752 37.454862 117.152752 39.609908  Q 117.152752 42.619541 119.084862 44.570229  Q 121.016972 46.520917 124.063761 46.520917  Q 126.218807 46.818165 127.742202 44.29156  " clip-path="url(#p0d31dda45d)" style="fill: none; stroke: #000000; stroke-linejoin: miter"/>
   </g>
  </g>
  <g id="axes_9">
   <g id="patch_9">
    <path d="M 131.316102 36.437797  L 132.551695 44.778051  Q 132.654661 45.567458 132.654661 45.60178  Q 132.654661 45.704746 132.963559 45.704746  Q 133.82161 45.704746 134.542373 44.778051  Q 135.263136 43.851356 135.675 42.718729  Q 136.086864 41.586102 136.601695 40.659407  Q 137.116525 39.732712 137.597034 39.732712  Q 138.214831 39.732712 138.849788 40.607924  Q 139.484746 41.483136 139.948093 42.512797  Q 140.411441 43.542458 141.08072 44.417669  Q 141.75 45.292881 142.436441 45.292881  Q 142.711017 43.782712 143.140042 39.69839  Q 143.569068 35.614068 144.083898 33.554746  " clip-path="url(#pd5f0e599a3)" style="fill: none; stroke: #000000; stroke-linejoin: miter"/>
   </g>
  </g>
  <g id="axes_10">
   <g id="patch_10">
    <path d="M 147.608036 34.879821  Q 148.114286 36.073125 148.403571 42.871339  Q 148.548214 46.632054 148.8375 46.632054  Q 148.873661 46.632054 148.909821 46.595893  Q 149.416071 46.017321 149.470312 44.588973  Q 149.524554 43.160625 149.307589 41.750357  Q 149.090625 40.340089 148.8375 38.712857  Q 148.584375 37.085625 148.584375 36.398571  Q 148.584375 35.169107 148.964062 33.939643  Q 149.34375 32.710179 150.320089 32.710179  Q 151.549554 32.710179 152.272768 34.355491  Q 152.995982 36.000804 153.158705 37.971563  Q 153.321429 39.942321 153.429911 41.587634  Q 153.538393 43.232946 153.683036 43.232946  Q 153.827679 43.232946 153.91808 41.497232  Q 154.008482 39.761518 154.135045 37.700357  Q 154.261607 35.639196 154.984821 33.903482  Q 155.708036 32.167768 156.9375 32.167768  Q 158.492411 33.035625 159.161384 34.771339  Q 159.830357 36.507054 159.794196 38.188527  Q 159.758036 39.87 159.776116 42.057723  Q 159.794196 44.245446 160.191964 45.511071  " clip-path="url(#p0f403fe909)" style="fill: none; stroke: #000000; stroke-linejoin: miter"/>
   </g>
  </g>
  <g id="axes_11">
   <g id="patch_11">
    <path d="M 175.643923 36.441748  Q 174.434968 35.094627 170.462687 35.094627  Q 168.942857 35.094627 168.165672 35.146439  Q 167.388486 35.198252 166.38678 35.440043  Q 165.385075 35.681834 164.901493 36.182687  Q 164.41791 36.683539 164.072495 37.616162  Q 163.727079 38.548785 163.727079 39.964989  Q 163.727079 42.037484 165.143284 43.280981  Q 166.559488 44.524478 168.493817 44.524478  Q 171.153518 44.524478 173.916844 38.721493  Q 175.263966 35.854542 175.263966 35.82  Q 175.609382 35.578209 175.643923 36.441748  Q 175.643923 37.512537 176.058422 40.362217  Q 176.472921 43.211898 176.472921 44.524478  " clip-path="url(#pbb2ec56ade)" style="fill: none; stroke: #000000; stroke-linejoin: miter"/>
   </g>
  </g>
  <g id="axes_12">
   <g id="patch_12">
    <path d="M 181.838731 37.282097  L 181.838731 37.844441  Q 182.101159 39.868883 182.138648 41.312234  Q 182.176138 42.755586 182.082414 44.667559  Q 181.98869 46.579531 181.98869 48.191586  L 182.063669 39.643945  Q 182.063669 38.144359 183.656979 37.507034  Q 185.25029 36.86971 186.674897 37.282097  Q 188.586869 37.844441 189.505366 39.04411  Q 190.423862 40.243779 190.480097 41.668386  Q 190.536331 43.092993 190.573821 44.817517  Q 190.61131 46.542041 190.761269 48.191586  " clip-path="url(#p8dea74148c)" style="fill: none; stroke: #000000; stroke-linejoin: miter"/>
   </g>
  </g>
 </g>
 <defs>
  <clipPath id="p03d036e19f">
   <rect x="0" y="20.054899" width="16.2" height="31.530201"/>
  </clipPath>
  <clipPath id="p179bb887fc">
   <rect x="18.938979" y="8.64" width="10.722041" height="54.36"/>
  </clipPath>
  <clipPath id="p8b3eeddb25">
   <rect x="32.4" y="8.881927" width="16.2" height="53.876147"/>
  </clipPath>
  <clipPath id="p9b21c00525">
   <rect x="50.364248" y="8.64" width="12.671503" height="54.36"/>
  </clipPath>
  <clipPath id="p7185c31b13">
   <rect x="66.189352" y="8.64" width="13.421297" height="54.36"/>
  </clipPath>
  <clipPath id="pbac520324f">
   <rect x="97.2" y="13.866729" width="16.2" height="43.906542"/>
  </clipPath>
  <clipPath id="p0d31dda45d">
   <rect x="113.4" y="8.881927" width="16.2" height="53.876147"/>
  </clipPath>
  <clipPath id="pd5f0e599a3">
   <rect x="129.6" y="10.936525" width="16.2" height="49.766949"/>
  </clipPath>
  <clipPath id="p0f403fe909">
   <rect x="145.8" y="9.603482" width="16.2" height="52.433036"/>
  </clipPath>
  <clipPath id="pbb2ec56ade">
   <rect x="162" y="10.777356" width="16.2" height="50.085288"/>
  </clipPath>
  <clipPath id="p8dea74148c">
   <rect x="179.964248" y="8.64" width="12.671503" height="54.36"/>
  </clipPath>
 </defs>
</g>
    </g>
    <g transform="translate(0.0, 8.858267716535432) scale(1 1) ">
      <g transform="translate(0, 0) scale(0.015 0.015) "><metadata>
  <rdf:RDF xmlns:dc="http://purl.org/dc/elements/1.1/" xmlns:cc="http://creativecommons.org/ns#" xmlns:rdf="http://www.w3.org/1999/02/22-rdf-syntax-ns#">
   <cc:Work>
    <dc:type rdf:resource="http://purl.org/dc/dcmitype/StillImage"/>
    <dc:date>2024-01-04T19:57:04.196118</dc:date>
    <dc:format>image/svg+xml</dc:format>
    <dc:creator>
     <cc:Agent>
      <dc:title>Matplotlib v3.7.1, https://matplotlib.org/</dc:title>
     </cc:Agent>
    </dc:creator>
   </cc:Work>
  </rdf:RDF>
 </metadata>
 <defs>
  <style type="text/css">*{stroke-linejoin: round; stroke-linecap: butt}</style>
 </defs>
 <g id="figure_1">
  <g id="patch_1">
   <path d="M 0 72  L 72 72  L 72 0  L 0 0  z " style="fill: #8fff9f"/>
  </g>
  <g id="axes_1">
   <g id="patch_2">
    <path d="M 4.276055 30.309021  Q 5.88811 28.509517 9.112221 28.621986  Q 9.974483 28.621986 10.499338 29.465503  Q 11.024193 30.309021 11.136662 31.115048  Q 11.249131 31.921076 11.249131 32.783338  Q 11.249131 34.507862 10.499338 36.157407  Q 9.749545 37.806952 8.812303 38.912897  Q 7.875062 40.018841 6.619159 41.518428  Q 5.363255 43.018014 4.725931 44.142703  L 11.923945 43.917766  " clip-path="url(#p4fbd183406)" style="fill: none; stroke: #000000; stroke-linejoin: miter"/>
   </g>
  </g>
  <g id="axes_2">
   <g id="patch_3">
    <path d="M 26.268207 28.284579  Q 26.268207 28.284579 25.143517 28.284579  Q 23.831379 28.284579 22.837903 29.33429  Q 21.844428 30.384 21.357062 31.958566  Q 20.869697 33.533131 20.644759 34.976483  Q 20.419821 36.419834 20.419821 37.619503  Q 20.419821 40.468717 21.863172 42.193241  Q 23.306524 43.917766 26.043269 43.917766  Q 26.943021 43.917766 27.5616 42.043283  Q 28.180179 40.1688 28.180179 39.0816  Q 28.180179 37.319586 27.842772 35.557572  Q 27.505366 33.795559 26.943021 31.714883  Q 26.380676 29.634207 26.155738 28.397048  L 24.581172 26.372607  " clip-path="url(#pc75f5356e1)" style="fill: none; stroke: #000000; stroke-linejoin: miter"/>
   </g>
  </g>
  <g id="axes_3">
   <g id="patch_4">
    <path d="M 36.676055 30.309021  Q 38.28811 28.509517 41.512221 28.621986  Q 42.374483 28.621986 42.899338 29.465503  Q 43.424193 30.309021 43.536662 31.115048  Q 43.649131 31.921076 43.649131 32.783338  Q 43.649131 34.507862 42.899338 36.157407  Q 42.149545 37.806952 41.212303 38.912897  Q 40.275062 40.018841 39.019159 41.518428  Q 37.763255 43.018014 37.125931 44.142703  L 44.323945 43.917766  " clip-path="url(#p94f42f0c7b)" style="fill: none; stroke: #000000; stroke-linejoin: miter"/>
   </g>
  </g>
  <g id="axes_4">
   <g id="patch_5">
    <path d="M 56.212634 36.044938  Q 56.175145 36.269876 56.19389 37.000924  Q 56.212634 37.731972 56.212634 37.95691  L 55.65029 44.817517  M 55.200414 30.196552  Q 55.087945 31.546179 53.832041 34.901503  Q 52.576138 38.256828 52.838566 39.756414  L 60.823862 38.856662  " clip-path="url(#pc7da5baa5d)" style="fill: none; stroke: #000000; stroke-linejoin: miter"/>
   </g>
  </g>
 </g>
 <defs>
  <clipPath id="p4fbd183406">
   <rect x="2.401572" y="8.64" width="11.396855" height="54.36"/>
  </clipPath>
  <clipPath id="pc75f5356e1">
   <rect x="18.545338" y="8.64" width="11.509324" height="54.36"/>
  </clipPath>
  <clipPath id="p94f42f0c7b">
   <rect x="34.801572" y="8.64" width="11.396855" height="54.36"/>
  </clipPath>
  <clipPath id="pc7da5baa5d">
   <rect x="50.701655" y="8.64" width="11.99669" height="54.36"/>
  </clipPath>
 </defs>
</g>
    </g>
  </g>
</svg>
