<?xml version="1.0" encoding="utf-8" standalone="no"?>
<!DOCTYPE svg PUBLIC "-//W3C//DTD SVG 1.1//EN"
  "http://www.w3.org/Graphics/SVG/1.1/DTD/svg11.dtd">
<svg xmlns:xlink="http://www.w3.org/1999/xlink" width="198pt" height="72pt" viewBox="0 0 198 72" xmlns="http://www.w3.org/2000/svg" version="1.1">
 <metadata>
  <rdf:RDF xmlns:dc="http://purl.org/dc/elements/1.1/" xmlns:cc="http://creativecommons.org/ns#" xmlns:rdf="http://www.w3.org/1999/02/22-rdf-syntax-ns#">
   <cc:Work>
    <dc:type rdf:resource="http://purl.org/dc/dcmitype/StillImage"/>
    <dc:date>2023-01-08T16:42:32.488665</dc:date>
    <dc:format>image/svg+xml</dc:format>
    <dc:creator>
     <cc:Agent>
      <dc:title>Matplotlib v3.6.1, https://matplotlib.org/</dc:title>
     </cc:Agent>
    </dc:creator>
   </cc:Work>
  </rdf:RDF>
 </metadata>
 <defs>
  <style type="text/css">*{stroke-linejoin: round; stroke-linecap: butt}</style>
 </defs>
 <g id="figure_1">
  <g id="patch_1">
   <path d="M 0 72 
L 198 72 
L 198 0 
L 0 0 
z
" style="fill: #8fff9f"/>
  </g>
  <g id="axes_1">
   <g id="patch_2">
    <path d="M 0.959716 40.061943 
Q 1.074882 39.985166 1.439573 39.697251 
Q 1.804265 39.409336 2.053791 39.313365 
Q 2.898341 38.967867 3.435782 38.967867 
Q 4.76019 38.967867 7.159479 39.80282 
Q 9.558768 40.637773 10.979147 40.637773 
Q 11.650948 40.637773 12.466706 40.465024 
Q 13.282464 40.292275 14.136611 40.033152 
Q 14.990758 39.774028 15.240284 39.716445 
M 2.456872 32.691327 
Q 2.80237 32.633744 3.550948 32.326635 
Q 4.299526 32.019526 4.702607 31.942749 
Q 4.683412 31.942749 4.126777 33.151991 
Q 4.069194 33.286351 4.069194 33.785403 
Q 4.011611 33.958152 4.213152 34.169289 
Q 4.414692 34.380427 4.414692 34.533981 
Q 4.414692 34.687536 4.673815 35.301754 
Q 4.932938 35.915972 4.932938 36.261469 
L 4.932938 37.413128 
L 4.529858 38.737536 
M 2.284123 29.639431 
Q 2.610427 29.773791 3.224645 30.349621 
Q 3.838863 30.92545 4.241943 31.079005 
M 8.23436 34.073318 
Q 10.499289 35.973555 11.689336 37.528294 
M 10.307346 33.151991 
L 10.307346 33.382322 
Q 10.038626 34.514787 9.107701 36.213483 
Q 8.176777 37.91218 7.351422 38.507204 
M 6.622038 33.72782 
Q 7.466588 33.535877 9.232464 33.391919 
Q 10.998341 33.247962 11.804502 33.094408 
L 12.956161 32.806493 
M 8.695024 31.482085 
L 10.249763 32.864076 
" clip-path="url(#pac1a7f2cf4)" style="fill: none; stroke: #000000; stroke-linejoin: miter"/>
   </g>
  </g>
  <g id="axes_2">
   <g id="patch_3">
    <path d="M 20.631484 36.40529 
Q 22.073806 37.805806 24.03871 38.683742 
Q 26.003613 39.561677 28.093935 39.791613 
L 30.100645 39.749806 
M 21.070452 35.610968 
L 21.070452 35.799097 
Q 21.007742 35.966323 20.725548 36.708387 
Q 20.443355 37.450452 20.328387 37.711742 
Q 20.213419 37.973032 19.920774 38.579226 
Q 19.628129 39.185419 19.387742 39.488516 
Q 19.147355 39.791613 18.760645 40.178323 
Q 18.373935 40.565032 17.934968 40.815871 
M 23.829677 36.238065 
L 23.955097 36.238065 
Q 24.185032 36.238065 24.456774 36.154452 
Q 24.728516 36.070839 25.073419 35.934968 
Q 25.418323 35.799097 25.585548 35.736387 
L 26.149935 35.673677 
M 23.766968 34.544903 
L 23.829677 38.056645 
M 17.245161 34.921161 
L 17.684129 34.921161 
Q 18.603871 34.921161 19.617677 34.806194 
Q 20.631484 34.691226 21.885677 34.503097 
Q 23.139871 34.314968 23.829677 34.231355 
L 31.354839 33.666968 
M 21.948387 33.478839 
Q 24.017806 33.123484 24.143226 33.102581 
L 25.522839 32.851742 
M 21.572129 31.722968 
L 25.648258 31.722968 
M 21.634839 30.343355 
L 25.146581 30.343355 
Q 25.501935 30.343355 25.721419 30.416516 
Q 25.940903 30.489677 26.076774 30.594194 
Q 26.212645 30.69871 26.275355 30.719613 
L 26.024516 33.353419 
M 21.32129 30.217935 
L 21.32129 30.468774 
Q 21.467613 30.845032 21.488516 31.890194 
Q 21.509419 32.935355 21.822968 33.416129 
" clip-path="url(#pe6fab23c55)" style="fill: none; stroke: #000000; stroke-linejoin: miter"/>
   </g>
  </g>
  <g id="axes_3">
   <g id="patch_4">
    <path d="M 33.789365 27.56717 
Q 34.011664 27.400446 34.803602 27.497702 
Q 35.59554 27.594957 35.873413 27.483808 
Q 38.791081 27.483808 41.389194 28.873173 
Q 43.987307 30.262539 45.598971 32.77729 
Q 47.210635 35.292041 47.210635 38.320858 
Q 47.210635 40.265969 46.001887 41.558079 
Q 44.793139 42.850189 43.181475 43.336467 
Q 41.569811 43.822744 39.708062 43.822744 
Q 39.402401 43.794957 37.957461 43.725489 
Q 36.512521 43.656021 35.637221 43.392041 
Q 34.761921 43.128062 34.289537 42.488954 
M 37.04048 27.733894 
L 37.04048 27.900617 
Q 37.04048 29.289983 36.915437 32.402161 
Q 36.790395 35.51434 36.790395 36.987067 
Q 36.790395 37.792899 36.859863 38.70988 
Q 36.929331 39.626861 37.054374 40.710566 
Q 37.179417 41.794271 37.207204 42.32223 
L 37.290566 43.322573 
" clip-path="url(#p959ab3adb1)" style="fill: none; stroke: #000000; stroke-linejoin: miter"/>
   </g>
  </g>
  <g id="axes_4">
   <g id="patch_5">
    <path d="M 52.876055 30.309021 
Q 54.48811 28.509517 57.712221 28.621986 
Q 58.574483 28.621986 59.099338 29.465503 
Q 59.624193 30.309021 59.736662 31.115048 
Q 59.849131 31.921076 59.849131 32.783338 
Q 59.849131 34.507862 59.099338 36.157407 
Q 58.349545 37.806952 57.412303 38.912897 
Q 56.475062 40.018841 55.219159 41.518428 
Q 53.963255 43.018014 53.325931 44.142703 
L 60.523945 43.917766 
" clip-path="url(#pa5cd8f0a28)" style="fill: none; stroke: #000000; stroke-linejoin: miter"/>
   </g>
  </g>
  <g id="axes_5">
   <g id="patch_6">
    <path d="M 69.076055 30.309021 
Q 70.68811 28.509517 73.912221 28.621986 
Q 74.774483 28.621986 75.299338 29.465503 
Q 75.824193 30.309021 75.936662 31.115048 
Q 76.049131 31.921076 76.049131 32.783338 
Q 76.049131 34.507862 75.299338 36.157407 
Q 74.549545 37.806952 73.612303 38.912897 
Q 72.675062 40.018841 71.419159 41.518428 
Q 70.163255 43.018014 69.525931 44.142703 
L 76.723945 43.917766 
" clip-path="url(#p46d699a24e)" style="fill: none; stroke: #000000; stroke-linejoin: miter"/>
   </g>
  </g>
  <g id="axes_6">
   <g id="patch_7">
    <path d="M 85.557228 43.805297 
Q 87.4692 45.342372 89.381172 45.492331 
Q 90.318414 45.492331 90.974483 45.09869 
Q 91.630552 44.705048 91.949214 44.198938 
Q 92.267876 43.692828 92.436579 42.755586 
Q 92.605283 41.818345 92.624028 41.256 
Q 92.642772 40.693655 92.642772 39.643945 
Q 92.642772 39.419007 92.642772 39.306538 
Q 92.642772 38.181848 91.705531 37.113393 
Q 90.76829 36.044938 89.718579 36.044938 
Q 89.081255 36.044938 88.05029 36.775986 
Q 87.019324 37.507034 87.019324 38.069379 
Q 87.019324 37.582014 86.400745 34.69531 
Q 85.782166 31.808607 85.782166 30.758897 
Q 86.157062 30.683917 87.131793 30.552703 
Q 88.106524 30.42149 88.856317 30.215297 
Q 89.60611 30.009103 90.168455 29.634207 
" clip-path="url(#p6c58c8b246)" style="fill: none; stroke: #000000; stroke-linejoin: miter"/>
   </g>
  </g>
  <g id="axes_7">
   <g id="patch_8">
    <path d="M 101.476055 30.309021 
Q 103.08811 28.509517 106.312221 28.621986 
Q 107.174483 28.621986 107.699338 29.465503 
Q 108.224193 30.309021 108.336662 31.115048 
Q 108.449131 31.921076 108.449131 32.783338 
Q 108.449131 34.507862 107.699338 36.157407 
Q 106.949545 37.806952 106.012303 38.912897 
Q 105.075062 40.018841 103.819159 41.518428 
Q 102.563255 43.018014 101.925931 44.142703 
L 109.123945 43.917766 
" clip-path="url(#p68e69c0026)" style="fill: none; stroke: #000000; stroke-linejoin: miter"/>
   </g>
  </g>
  <g id="axes_8">
   <g id="patch_9">
    <path d="M 122.050708 35.498754 
Q 122.693201 36.577224 123.140652 37.23119 
Q 123.588102 37.885156 124.299433 38.745637 
Q 125.010765 39.606119 125.836827 40.1683 
Q 126.66289 40.730482 127.626629 41.005836 
L 128.452691 41.074674 
M 122.326062 33.364759 
Q 122.303116 33.387705 122.314589 33.571275 
Q 122.326062 33.754844 122.326062 33.77779 
Q 122.326062 34.925099 122.027762 35.808527 
Q 121.729462 36.691955 121.35085 37.173824 
Q 120.972238 37.655694 120.410057 38.435864 
Q 119.847875 39.216034 119.503683 39.973258 
L 118.264589 40.79932 
M 120.123229 31.093088 
L 125.974504 30.198187 
Q 125.813881 30.519433 125.458215 31.494646 
Q 125.10255 32.469858 124.804249 32.951728 
M 120.605099 29.57864 
Q 120.582153 29.693371 120.593626 30.094929 
Q 120.605099 30.496487 120.605099 30.611218 
L 120.260907 32.676374 
M 117.920397 35.842946 
Q 117.874504 35.934731 117.679462 36.129773 
Q 117.484419 36.324816 117.507365 36.531331 
L 115.579887 39.078357 
M 114.547309 31.161926 
L 118.195751 32.40102 
" clip-path="url(#p68238938f2)" style="fill: none; stroke: #000000; stroke-linejoin: miter"/>
   </g>
  </g>
  <g id="axes_9">
   <g id="patch_10">
    <path d="M 144.211765 26.862353 
Q 144.18 29.784706 144.211765 36.296471 
Q 144.211765 36.328235 143.925882 43.443529 
L 141.257647 41.728235 
M 140.812941 30.102353 
L 140.717647 36.677647 
M 132.045882 33.818824 
Q 132.268235 33.691765 132.792353 34.215882 
Q 133.316471 34.74 133.475294 34.771765 
L 134.714118 36.391765 
M 132.808235 32.198824 
L 133.951765 32.198824 
Q 134.46 32.198824 135.460588 32.055882 
Q 136.461176 31.912941 137.001176 31.912941 
Q 137.223529 31.912941 137.350588 31.976471 
Q 137.477647 32.04 137.509412 32.167059 
Q 137.541176 32.294118 137.541176 32.421176 
Q 137.541176 32.548235 137.509412 32.802353 
Q 137.477647 33.056471 137.477647 33.247059 
Q 137.477647 34.454118 137.112353 35.407059 
Q 136.747059 36.36 136.111765 37.424118 
Q 135.476471 38.488235 135.190588 39.250588 
L 131.664706 41.728235 
M 134.618824 28.291765 
Q 134.237647 28.641176 133.713529 29.959412 
Q 133.189412 31.277647 132.903529 31.722353 
L 131.188235 34.009412 
M 131.474118 29.244706 
L 131.855294 29.244706 
Q 132.998824 29.117647 135.174706 28.402941 
Q 137.350588 27.688235 138.430588 27.529412 
" clip-path="url(#pb53d9659f6)" style="fill: none; stroke: #000000; stroke-linejoin: miter"/>
   </g>
  </g>
  <g id="axes_10">
   <g id="patch_11">
    <path d="M 154.24964 31.50777 
Q 154.220504 31.59518 154.24964 31.94482 
L 154.24964 33.605612 
L 153.72518 43.220719 
M 147.256835 37.713885 
Q 149.85 37.364245 159.581655 36.927194 
Q 159.727338 36.868921 159.916727 36.912626 
Q 160.106115 36.956331 160.295504 36.941763 
Q 160.484892 36.927194 160.543165 36.752374 
M 153.72518 26.700216 
Q 153.200719 27.953094 151.904137 30.458849 
Q 150.607554 32.964604 150.053957 34.304892 
L 150.491007 34.304892 
Q 151.627338 33.926115 152.909353 33.663885 
Q 154.191367 33.401655 155.954137 33.124856 
Q 157.716906 32.848058 158.445324 32.731511 
M 149.442086 29.672158 
L 151.539928 29.672158 
L 155.473381 29.672158 
L 158.794964 29.497338 
" clip-path="url(#pa2fdeda950)" style="fill: none; stroke: #000000; stroke-linejoin: miter"/>
   </g>
  </g>
  <g id="axes_11">
   <g id="patch_12">
    <path d="M 170.568621 42.043283 
L 169.781338 42.043283 
Q 168.769117 42.043283 168.150538 42.811821 
Q 167.531959 43.580359 167.531959 44.630069 
Q 167.494469 45.679779 168.225517 46.260869 
Q 168.956566 46.841959 170.006276 46.65451 
Q 170.306193 46.617021 170.793559 46.579531 
Q 171.280924 46.542041 171.543352 46.504552 
Q 171.805779 46.467062 172.124441 46.317103 
Q 172.443103 46.167145 172.574317 45.810993 
Q 172.705531 45.454841 172.705531 44.855007 
Q 172.705531 44.592579 172.593062 44.330152 
Q 172.480593 44.067724 172.293145 43.749062 
Q 172.105697 43.4304 172.030717 43.280441 
L 170.906028 42.605628 
" clip-path="url(#p4189c6630f)" style="fill: none; stroke: #000000; stroke-linejoin: miter"/>
   </g>
  </g>
 </g>
 <defs>
  <clipPath id="pac1a7f2cf4">
   <rect x="0" y="21.904123" width="16.2" height="27.831754"/>
  </clipPath>
  <clipPath id="pe6fab23c55">
   <rect x="16.2" y="20.665161" width="16.2" height="30.309677"/>
  </clipPath>
  <clipPath id="p959ab3adb1">
   <rect x="32.4" y="15.674202" width="16.2" height="40.291595"/>
  </clipPath>
  <clipPath id="pa5cd8f0a28">
   <rect x="51.001572" y="8.64" width="11.396855" height="54.36"/>
  </clipPath>
  <clipPath id="p46d699a24e">
   <rect x="67.201572" y="8.64" width="11.396855" height="54.36"/>
  </clipPath>
  <clipPath id="p6c58c8b246">
   <rect x="83.682745" y="8.64" width="10.83451" height="54.36"/>
  </clipPath>
  <clipPath id="p68e69c0026">
   <rect x="99.601572" y="8.64" width="11.396855" height="54.36"/>
  </clipPath>
  <clipPath id="p68238938f2">
   <rect x="113.4" y="19.184023" width="16.2" height="33.271955"/>
  </clipPath>
  <clipPath id="pb53d9659f6">
   <rect x="129.6" y="12.790588" width="16.2" height="46.058824"/>
  </clipPath>
  <clipPath id="pa2fdeda950">
   <rect x="145.8" y="14.695899" width="16.2" height="42.248201"/>
  </clipPath>
  <clipPath id="p4189c6630f">
   <rect x="165.619986" y="8.64" width="8.960028" height="54.36"/>
  </clipPath>
 </defs>
</svg>
