<?xml version="1.0" encoding="utf-8" standalone="no"?>
<!DOCTYPE svg PUBLIC "-//W3C//DTD SVG 1.1//EN"
  "http://www.w3.org/Graphics/SVG/1.1/DTD/svg11.dtd">
<svg xmlns:xlink="http://www.w3.org/1999/xlink" width="36pt" height="72pt" viewBox="0 0 36 72" xmlns="http://www.w3.org/2000/svg" version="1.1">
 <metadata>
  <rdf:RDF xmlns:dc="http://purl.org/dc/elements/1.1/" xmlns:cc="http://creativecommons.org/ns#" xmlns:rdf="http://www.w3.org/1999/02/22-rdf-syntax-ns#">
   <cc:Work>
    <dc:type rdf:resource="http://purl.org/dc/dcmitype/StillImage"/>
    <dc:date>2023-01-08T16:42:30.392937</dc:date>
    <dc:format>image/svg+xml</dc:format>
    <dc:creator>
     <cc:Agent>
      <dc:title>Matplotlib v3.6.1, https://matplotlib.org/</dc:title>
     </cc:Agent>
    </dc:creator>
   </cc:Work>
  </rdf:RDF>
 </metadata>
 <defs>
  <style type="text/css">*{stroke-linejoin: round; stroke-linecap: butt}</style>
 </defs>
 <g id="figure_1">
  <g id="patch_1">
   <path d="M 0 72 
L 36 72 
L 36 0 
L 0 0 
z
" style="fill: #8fff9f"/>
  </g>
  <g id="axes_1">
   <g id="patch_2">
    <path d="M 13.559844 37.932125 
Q 13.559844 38.122216 13.897784 38.301747 
Q 14.235724 38.481278 14.647588 38.755854 
Q 15.059452 39.03043 15.143937 39.452855 
M 10.28605 37.995489 
Q 11.257627 38.586884 11.785658 39.178279 
M 7.033377 38.481278 
Q 7.223468 39.072673 7.519166 39.53734 
Q 7.814863 40.002008 8.152803 40.287145 
Q 8.490743 40.572282 8.902608 40.783494 
Q 9.314472 40.994707 9.758018 41.089752 
Q 10.201565 41.184798 10.697914 41.237601 
Q 11.194263 41.290404 11.701173 41.290404 
Q 12.208083 41.290404 12.736115 41.290404 
Q 13.137419 41.290404 13.32751 41.290404 
Q 13.707692 41.290404 13.781617 41.036949 
Q 13.855541 40.783494 13.771056 40.445554 
Q 13.686571 40.107614 13.771056 39.769674 
M 5.639374 38.18558 
Q 5.639374 38.248944 5.628814 38.555202 
Q 5.618253 38.86146 5.57601 39.009309 
L 4.879009 40.21322 
M 6.526467 36.643729 
L 6.716558 36.643729 
L 8.173924 36.643729 
L 11.849022 36.32691 
M 9.905867 33.11648 
Q 10.391656 33.264329 10.771838 34.151421 
Q 11.152021 35.038514 11.426597 35.270847 
M 6.927771 32.229387 
L 7.307953 32.229387 
Q 7.793742 32.229387 8.311213 32.144902 
Q 8.828683 32.060417 9.472881 31.923129 
Q 10.11708 31.785841 10.476141 31.722477 
L 11.363233 31.659113 
M 9.208866 30.962112 
Q 9.187744 31.004355 9.198305 31.120522 
Q 9.208866 31.236688 9.208866 31.278931 
Q 9.208866 31.806962 9.166623 32.398357 
Q 9.124381 32.989752 9.050456 33.707875 
Q 8.976532 34.425997 8.955411 34.827301 
L 8.511864 35.841121 
M 5.57601 30.434081 
L 12.736115 30.370717 
Q 13.285267 30.24399 13.306389 30.24399 
Q 13.369752 30.24399 13.369752 30.370717 
Q 13.369752 31.321173 13.211343 32.4406 
Q 13.052934 33.560026 12.788918 34.922347 
Q 12.524902 36.284668 12.419296 36.960548 
M 5.639374 29.73708 
Q 5.618253 29.779322 5.628814 29.895489 
Q 5.639374 30.011656 5.639374 30.053898 
Q 5.639374 30.772021 5.755541 31.659113 
Q 5.871708 32.546206 6.07236 33.63395 
Q 6.273012 34.721695 6.336375 35.249726 
L 6.526467 36.580365 
M 1.943155 36.073455 
L 4.604433 35.629909 
M 1.056063 32.081538 
L 1.246154 32.081538 
Q 1.626336 32.081538 2.080443 32.028735 
Q 2.53455 31.975932 3.104824 31.891447 
Q 3.675098 31.806962 3.970795 31.76472 
L 4.097523 35.756636 
M 1.562973 31.574628 
Q 1.541851 31.616871 1.552412 31.733038 
Q 1.562973 31.849205 1.562973 31.891447 
Q 1.562973 32.398357 1.605215 32.95807 
Q 1.647458 33.517784 1.721382 34.204224 
Q 1.795306 34.890665 1.816428 35.249726 
L 1.879791 37.34073 
" clip-path="url(#pf0426d4c89)" style="fill: none; stroke: #000000; stroke-linejoin: miter"/>
   </g>
  </g>
  <g id="axes_2">
   <g id="patch_3">
    <path d="M 22.837903 36.94469 
Q 22.875393 37.019669 23.137821 37.263352 
Q 23.400248 37.507034 23.512717 37.619503 
Q 23.625186 37.731972 23.868869 38.013145 
Q 24.112552 38.294317 24.26251 38.463021 
Q 24.412469 38.631724 24.637407 38.931641 
Q 24.862345 39.231559 24.993559 39.437752 
Q 25.124772 39.643945 25.274731 39.943862 
Q 25.42469 40.243779 25.518414 40.487462 
Q 25.612138 40.731145 25.687117 41.012317 
Q 25.762097 41.29349 25.762097 41.555917 
Q 25.762097 42.118262 25.612138 42.605628 
Q 25.462179 43.092993 25.181007 43.636593 
Q 24.899834 44.180193 24.749876 44.592579 
L 23.625186 45.717269 
" clip-path="url(#p264249fe9c)" style="fill: none; stroke: #000000; stroke-linejoin: miter"/>
   </g>
  </g>
 </g>
 <defs>
  <clipPath id="pf0426d4c89">
   <rect x="0" y="20.507093" width="16.2" height="30.625815"/>
  </clipPath>
  <clipPath id="p264249fe9c">
   <rect x="20.963421" y="8.64" width="6.673159" height="54.36"/>
  </clipPath>
 </defs>
</svg>
