<?xml version="1.0" encoding="utf-8" standalone="no"?>
<!DOCTYPE svg PUBLIC "-//W3C//DTD SVG 1.1//EN"
  "http://www.w3.org/Graphics/SVG/1.1/DTD/svg11.dtd">
<svg xmlns:xlink="http://www.w3.org/1999/xlink" width="414pt" height="72pt" viewBox="0 0 414 72" xmlns="http://www.w3.org/2000/svg" version="1.1">
 <metadata>
  <rdf:RDF xmlns:dc="http://purl.org/dc/elements/1.1/" xmlns:cc="http://creativecommons.org/ns#" xmlns:rdf="http://www.w3.org/1999/02/22-rdf-syntax-ns#">
   <cc:Work>
    <dc:type rdf:resource="http://purl.org/dc/dcmitype/StillImage"/>
    <dc:date>2023-01-08T20:21:24.268648</dc:date>
    <dc:format>image/svg+xml</dc:format>
    <dc:creator>
     <cc:Agent>
      <dc:title>Matplotlib v3.6.1, https://matplotlib.org/</dc:title>
     </cc:Agent>
    </dc:creator>
   </cc:Work>
  </rdf:RDF>
 </metadata>
 <defs>
  <style type="text/css">*{stroke-linejoin: round; stroke-linecap: butt}</style>
 </defs>
 <g id="figure_1">
  <g id="patch_1">
   <path d="M 0 72 
L 414 72 
L 414 0 
L 0 0 
z
" style="fill: #8fff9f"/>
  </g>
  <g id="axes_1">
   <g id="patch_2">
    <path d="M 14.229559 24.048248 
Q 13.292317 27.047421 11.998924 30.159062 
Q 10.705531 33.270703 8.737324 37.544524 
Q 6.769117 41.818345 6.019324 43.505379 
L 3.769945 47.329324 
M 1.970441 24.610593 
Q 2.982662 26.635034 5.194552 30.271531 
Q 7.406441 33.908028 8.268703 35.520083 
" clip-path="url(#p35ad360f9e)" style="fill: none; stroke: #000000; stroke-linejoin: miter"/>
   </g>
  </g>
  <g id="axes_2">
   <g id="patch_3">
    <path d="M 21.600745 30.34651 
L 21.600745 30.571448 
Q 21.600745 31.546179 22.575476 32.970786 
Q 23.550207 34.395393 24.524938 34.395393 
Q 24.899834 34.395393 25.255986 33.908028 
Q 25.612138 33.420662 25.9308 32.727103 
Q 26.249462 32.033545 26.324441 31.921076 
L 26.999255 28.771945 
M 25.312221 36.419834 
L 24.862345 44.292662 
L 24.524938 44.742538 
" clip-path="url(#p0c77777f3d)" style="fill: none; stroke: #000000; stroke-linejoin: miter"/>
   </g>
  </g>
  <g id="axes_3">
   <g id="patch_4">
    <path d="M 40.856152 30.309021 
Q 40.368786 30.42149 40.781172 30.833876 
Q 41.156069 31.208772 41.231048 30.946345 
Q 41.268538 30.871366 41.193559 30.646428 
Q 41.193559 30.458979 41.118579 30.42149 
Q 41.0436 30.384 40.912386 30.42149 
Q 40.781172 30.458979 40.631214 30.42149 
L 40.518745 30.646428 
M 41.418497 33.345683 
Q 42.468207 37.731972 42.993062 40.13131 
Q 43.517917 42.530648 43.967793 46.317103 
Q 44.417669 50.103559 44.230221 53.25269 
Q 44.230221 53.440138 44.230221 54.021228 
Q 44.230221 54.602317 44.230221 54.902234 
Q 44.230221 55.202152 44.211476 55.783241 
Q 44.192731 56.364331 44.117752 56.701738 
Q 44.042772 57.039145 43.930303 57.52651 
Q 43.817834 58.013876 43.611641 58.313793 
Q 43.405448 58.61371 43.143021 58.894883 
Q 42.880593 59.176055 42.505697 59.307269 
Q 42.1308 59.438483 41.643434 59.438483 
Q 40.668703 59.438483 39.91891 59.251034 
Q 39.169117 59.063586 38.306855 58.707434 
Q 37.444593 58.351283 36.807269 58.201324 
L 36.582331 57.751448 
" clip-path="url(#p64f5bee17e)" style="fill: none; stroke: #000000; stroke-linejoin: miter"/>
   </g>
  </g>
  <g id="axes_4">
   <g id="patch_5">
    <path d="M 53.157228 33.158234 
L 60.242772 33.158234 
M 56.643766 36.307366 
L 56.643766 44.5176 
" clip-path="url(#pc2331770f7)" style="fill: none; stroke: #000000; stroke-linejoin: miter"/>
   </g>
  </g>
  <g id="axes_5">
   <g id="patch_6">
    <path d="M 68.063834 32.783338 
L 68.063834 33.345683 
Q 68.926097 39.718924 68.963586 47.066897 
Q 68.963586 47.81669 68.888607 47.029407 
Q 68.438731 42.080772 68.288772 35.82 
L 68.288772 35.145186 
Q 68.288772 33.6456 69.882083 33.008276 
Q 71.475393 32.370952 72.9 32.783338 
Q 74.437076 33.233214 75.411807 34.414138 
Q 76.386538 35.595062 76.761434 37.282097 
Q 77.136331 38.969131 77.267545 40.543697 
Q 77.398759 42.118262 77.473738 44.067724 
Q 77.548717 46.017186 77.736166 47.066897 
" clip-path="url(#p1811c5f9ed)" style="fill: none; stroke: #000000; stroke-linejoin: miter"/>
   </g>
  </g>
  <g id="axes_6">
   <g id="patch_7">
    <path d="M 94.71018 35.173293 
Q 94.483832 35.108623 93.626946 34.752934 
Q 92.77006 34.397246 92.188024 34.267904 
Q 91.605988 34.138563 91.023952 34.203234 
Q 88.695808 34.203234 87.240719 36.321198 
Q 85.785629 38.439162 85.785629 40.799641 
Q 85.785629 42.254731 90.441916 42.254731 
Q 91.832335 42.254731 93.012575 40.912814 
Q 94.192814 39.570898 94.791018 37.905629 
Q 95.389222 36.240359 95.389222 34.882275 
Q 95.389222 33.556527 95.356886 33.297844 
L 95.292216 34.267904 
Q 95.292216 34.688263 95.292216 35.076287 
Q 95.583234 42.287066 95.25988 45.64994 
Q 94.160479 57.969701 86.076647 57.969701 
Q 84.621557 57.969701 83.651497 57.306826 
Q 82.681437 56.643952 82.681437 55.253533 
Q 82.616766 55.059521 82.649102 55.059521 
Q 82.681437 55.059521 82.778443 55.059521 
Q 82.875449 55.059521 82.875449 54.962515 
" clip-path="url(#p20f286ec73)" style="fill: none; stroke: #000000; stroke-linejoin: miter"/>
   </g>
  </g>
  <g id="axes_7"/>
  <g id="axes_8">
   <g id="patch_8">
    <path d="M 116.363917 36.382345 
Q 116.326428 36.494814 116.457641 36.701007 
Q 116.588855 36.9072 116.476386 37.057159 
L 116.476386 39.306538 
Q 116.476386 40.506207 116.813793 41.724621 
Q 117.1512 42.943034 118.013462 43.93651 
Q 118.875724 44.929986 120.075393 44.929986 
Q 121.312552 44.929986 121.987366 43.861531 
Q 122.662179 42.793076 123.112055 41.143531 
Q 123.561931 39.493986 123.899338 38.969131 
L 124.686621 36.382345 
L 124.461683 42.680607 
L 124.461683 45.154924 
Q 124.461683 47.066897 125.192731 51.00331 
Q 125.923779 54.939724 125.923779 56.964166 
Q 126.673572 59.213545 125.586372 60.188276 
Q 124.499172 61.163007 122.437241 60.78811 
Q 120.637738 60.488193 119.719241 60.169531 
Q 118.800745 59.850869 116.813793 58.988607 
L 116.701324 58.426262 
" clip-path="url(#pa0fdf424df)" style="fill: none; stroke: #000000; stroke-linejoin: miter"/>
   </g>
  </g>
  <g id="axes_9">
   <g id="patch_9">
    <path d="M 133.782331 26.597545 
Q 135.656814 30.496469 138.393559 30.42149 
Q 138.805945 30.458979 139.162097 30.234041 
Q 139.518248 30.009103 139.724441 29.746676 
Q 139.930634 29.484248 140.099338 28.978138 
Q 140.268041 28.472028 140.343021 28.190855 
Q 140.418 27.909683 140.530469 27.347338 
Q 140.642938 26.784993 140.642938 26.710014 
M 140.418 35.145186 
Q 139.255821 34.77029 136.818993 34.807779 
Q 134.719572 34.807779 133.407434 35.969959 
Q 132.095297 37.132138 132.095297 39.194069 
Q 132.095297 41.743366 134.157228 43.39291 
Q 136.219159 45.042455 138.843434 45.042455 
Q 140.755407 45.042455 141.823862 43.917766 
Q 142.892317 42.793076 142.892317 40.881103 
Q 143.304703 38.781683 142.142524 36.94469 
Q 140.980345 35.107697 138.955903 34.470372 
" clip-path="url(#p3b25edb94d)" style="fill: none; stroke: #000000; stroke-linejoin: miter"/>
   </g>
  </g>
  <g id="axes_10">
   <g id="patch_10">
    <path d="M 149.288772 35.145186 
Q 149.288772 35.145186 149.288772 35.595062 
Q 149.288772 36.269876 149.176303 37.619503 
Q 149.063834 38.969131 149.063834 39.643945 
Q 149.063834 41.930814 150.300993 43.599103 
Q 151.538152 45.267393 153.675062 45.267393 
Q 155.062179 45.154924 155.830717 43.917766 
Q 156.599255 42.680607 156.749214 41.237255 
Q 156.899172 39.793903 157.1616 37.9944 
Q 157.424028 36.194897 157.836414 35.370124 
Q 157.986372 35.070207 157.986372 35.670041 
Q 157.986372 36.269876 157.723945 38.706703 
Q 157.499007 41.031062 157.499007 41.555917 
Q 157.349048 42.643117 157.686455 43.767807 
Q 158.023862 44.892497 158.736166 45.6048 
" clip-path="url(#p8492956bcc)" style="fill: none; stroke: #000000; stroke-linejoin: miter"/>
   </g>
  </g>
  <g id="axes_11"/>
  <g id="axes_12">
   <g id="patch_11">
    <path d="M 181.857476 43.917766 
Q 182.157393 44.180193 183.169614 45.154924 
Q 184.181834 46.129655 184.744179 46.560786 
Q 185.306524 46.991917 186.33749 47.385559 
Q 187.368455 47.7792 188.380676 47.629241 
Q 189.05549 47.629241 189.52411 47.404303 
Q 189.992731 47.179366 190.217669 46.879448 
Q 190.442607 46.579531 190.573821 45.979697 
Q 190.705034 45.379862 190.723779 44.967476 
Q 190.742524 44.55509 190.742524 43.805297 
Q 190.742524 42.718097 189.842772 42.043283 
Q 188.943021 41.368469 187.649628 41.031062 
Q 186.356234 40.693655 185.062841 40.300014 
Q 183.769448 39.906372 182.869697 38.987876 
Q 181.969945 38.069379 181.969945 36.607283 
Q 181.969945 36.082428 182.138648 35.726276 
Q 182.307352 35.370124 182.700993 35.145186 
Q 183.094634 34.920248 183.375807 34.807779 
Q 183.656979 34.69531 184.313048 34.639076 
Q 184.969117 34.582841 185.156566 34.582841 
Q 185.344014 34.582841 186.018828 34.582841 
Q 187.218497 34.582841 187.799586 34.995228 
Q 188.380676 35.407614 188.699338 36.026193 
Q 189.018 36.644772 189.280428 36.832221 
" clip-path="url(#pef3e570800)" style="fill: none; stroke: #000000; stroke-linejoin: miter"/>
   </g>
  </g>
  <g id="axes_13">
   <g id="patch_12">
    <path d="M 199.013462 35.932469 
Q 199.613297 35.257655 200.606772 34.826524 
Q 201.600248 34.395393 202.5 34.470372 
Q 203.137324 34.470372 203.62469 34.639076 
Q 204.112055 34.807779 204.430717 34.995228 
Q 204.749379 35.182676 204.974317 35.670041 
Q 205.199255 36.157407 205.311724 36.419834 
Q 205.424193 36.682262 205.480428 37.375821 
Q 205.536662 38.069379 205.555407 38.331807 
Q 205.574152 38.594234 205.555407 39.419007 
Q 205.536662 40.243779 205.536662 40.431228 
Q 205.536662 41.368469 205.367959 43.242952 
Q 205.199255 45.117434 205.199255 46.054676 
Q 205.199255 46.467062 205.25549 46.823214 
Q 205.311724 47.179366 205.405448 47.610497 
Q 205.499172 48.041628 205.536662 48.304055 
L 205.986538 48.528993 
M 199.463338 23.111007 
Q 199.688276 24.798041 199.688276 29.971614 
L 199.688276 42.3432 
L 199.350869 46.841959 
L 199.125931 47.74171 
" clip-path="url(#p7866c72f28)" style="fill: none; stroke: #000000; stroke-linejoin: miter"/>
   </g>
  </g>
  <g id="axes_14">
   <g id="patch_13">
    <path d="M 216.675559 33.68309 
Q 217.125434 33.270703 218.606276 32.183503 
Q 220.087117 31.096303 220.724441 30.309021 
M 217.012966 36.157407 
Q 216.975476 36.269876 216.994221 37.338331 
Q 217.012966 38.406786 217.012966 38.519255 
Q 217.012966 39.643945 217.275393 40.693655 
Q 217.537821 41.743366 217.968952 43.018014 
Q 218.400083 44.292662 218.587531 45.042455 
L 219.037407 45.492331 
" clip-path="url(#p8234e47076)" style="fill: none; stroke: #000000; stroke-linejoin: miter"/>
   </g>
  </g>
  <g id="axes_15"/>
  <g id="axes_16">
   <g id="patch_14">
    <path d="M 246.263834 32.783338 
L 246.263834 33.345683 
Q 247.126097 39.718924 247.163586 47.066897 
Q 247.163586 47.81669 247.088607 47.029407 
Q 246.638731 42.080772 246.488772 35.82 
L 246.488772 35.145186 
Q 246.488772 33.6456 248.082083 33.008276 
Q 249.675393 32.370952 251.1 32.783338 
Q 252.637076 33.233214 253.611807 34.414138 
Q 254.586538 35.595062 254.961434 37.282097 
Q 255.336331 38.969131 255.467545 40.543697 
Q 255.598759 42.118262 255.673738 44.067724 
Q 255.748717 46.017186 255.936166 47.066897 
" clip-path="url(#p7f47869ffb)" style="fill: none; stroke: #000000; stroke-linejoin: miter"/>
   </g>
  </g>
  <g id="axes_17">
   <g id="patch_15">
    <path d="M 267.918579 29.071862 
Q 267.543683 29.146841 267.412469 29.577972 
Q 267.281255 30.009103 267.356234 30.42149 
Q 267.356234 30.571448 267.393724 30.702662 
Q 267.431214 30.833876 267.487448 30.89011 
Q 267.543683 30.946345 267.599917 31.040069 
Q 267.656152 31.133793 267.693641 31.208772 
L 267.80611 29.859145 
M 267.80611 34.020497 
Q 266.906359 39.006621 266.681421 42.793076 
L 267.131297 45.379862 
L 267.468703 46.054676 
" clip-path="url(#p965fa78853)" style="fill: none; stroke: #000000; stroke-linejoin: miter"/>
   </g>
  </g>
  <g id="axes_18">
   <g id="patch_16">
    <path d="M 280.519572 31.546179 
L 280.519572 31.321241 
Q 280.519572 31.133793 280.575807 31.040069 
Q 280.632041 30.946345 280.707021 30.89011 
Q 280.782 30.833876 280.931959 30.740152 
Q 281.081917 30.646428 281.194386 30.533959 
L 285.355738 25.810262 
M 287.26771 35.370124 
L 284.118579 35.370124 
Q 284.00611 35.407614 283.743683 35.482593 
Q 280.519572 36.419834 279.619821 37.132138 
Q 278.082745 38.481766 278.045255 41.893324 
Q 278.045255 43.018014 278.907517 43.917766 
Q 279.769779 44.817517 280.856979 44.817517 
Q 281.719241 44.705048 282.506524 44.236428 
Q 283.293807 43.767807 283.799917 43.224207 
Q 284.306028 42.680607 284.849628 41.687131 
Q 285.393228 40.693655 285.6744 40.075076 
Q 285.955572 39.456497 286.405448 38.294317 
Q 286.855324 37.132138 287.042772 36.719752 
Q 287.380179 35.894979 287.492648 35.951214 
Q 287.605117 36.007448 287.492648 37.207117 
L 287.380179 38.744193 
Q 287.380179 38.781683 287.717586 42.455669 
L 288.954745 44.817517 
" clip-path="url(#padff50cddb)" style="fill: none; stroke: #000000; stroke-linejoin: miter"/>
   </g>
  </g>
  <g id="axes_19">
   <g id="patch_17">
    <path d="M 294.863834 32.783338 
L 294.863834 33.345683 
Q 295.726097 39.718924 295.763586 47.066897 
Q 295.763586 47.81669 295.688607 47.029407 
Q 295.238731 42.080772 295.088772 35.82 
L 295.088772 35.145186 
Q 295.088772 33.6456 296.682083 33.008276 
Q 298.275393 32.370952 299.7 32.783338 
Q 301.237076 33.233214 302.211807 34.414138 
Q 303.186538 35.595062 303.561434 37.282097 
Q 303.936331 38.969131 304.067545 40.543697 
Q 304.198759 42.118262 304.273738 44.067724 
Q 304.348717 46.017186 304.536166 47.066897 
" clip-path="url(#pd8d743224d)" style="fill: none; stroke: #000000; stroke-linejoin: miter"/>
   </g>
  </g>
  <g id="axes_20"/>
  <g id="axes_21">
   <g id="patch_18">
    <path d="M 331.706359 28.621986 
Q 331.931297 30.34651 332.006276 32.146014 
Q 332.081255 33.945517 332.06251 36.551048 
Q 332.043766 39.156579 332.043766 40.093821 
Q 332.043766 40.13131 332.268703 45.829738 
L 332.493641 46.841959 
" clip-path="url(#pf427a7b3df)" style="fill: none; stroke: #000000; stroke-linejoin: miter"/>
   </g>
  </g>
  <g id="axes_22">
   <g id="patch_19">
    <path d="M 342.057798 38.160826 
Q 345.030275 39.535596 349.749083 39.721376 
Q 351.272477 39.721376 351.959862 38.550963 
Q 352.647248 37.38055 352.647248 35.82 
Q 352.647248 35.299817 352.554358 34.909679 
Q 352.461468 34.519541 352.219954 34.296606 
Q 351.97844 34.07367 351.811239 33.943624 
Q 351.644037 33.813578 351.198165 33.757844 
Q 350.752294 33.70211 350.547936 33.683532 
Q 350.343578 33.664954 349.767661 33.683532 
Q 349.191743 33.70211 348.968807 33.70211 
Q 346.925229 33.70211 345.438991 35.578486 
Q 343.952752 37.454862 343.952752 39.609908 
Q 343.952752 42.619541 345.884862 44.570229 
Q 347.816972 46.520917 350.863761 46.520917 
Q 353.018807 46.818165 354.542202 44.29156 
" clip-path="url(#p9711b1d3dc)" style="fill: none; stroke: #000000; stroke-linejoin: miter"/>
   </g>
  </g>
  <g id="axes_23">
   <g id="patch_20">
    <path d="M 364.425021 46.054676 
Q 364.425021 46.092166 364.350041 46.092166 
Q 364.275062 46.129655 364.275062 46.167145 
Q 364.275062 46.392083 364.5 46.392083 
Q 364.687448 46.392083 364.687448 46.129655 
Q 364.724938 46.017186 364.574979 45.942207 
Q 364.425021 45.867228 364.312552 45.942207 
" clip-path="url(#p7fb0d8133b)" style="fill: none; stroke: #000000; stroke-linejoin: miter"/>
   </g>
  </g>
 </g>
 <defs>
  <clipPath id="p35ad360f9e">
   <rect x="0.095959" y="8.64" width="16.008083" height="54.36"/>
  </clipPath>
  <clipPath id="p0c77777f3d">
   <rect x="19.726262" y="8.64" width="9.147476" height="54.36"/>
  </clipPath>
  <clipPath id="p64f5bee17e">
   <rect x="34.707848" y="8.64" width="11.584303" height="54.36"/>
  </clipPath>
  <clipPath id="pc2331770f7">
   <rect x="51.282745" y="8.64" width="10.83451" height="54.36"/>
  </clipPath>
  <clipPath id="p1811c5f9ed">
   <rect x="66.189352" y="8.64" width="13.421297" height="54.36"/>
  </clipPath>
  <clipPath id="p20f286ec73">
   <rect x="81" y="12.376886" width="16.2" height="46.886228"/>
  </clipPath>
  <clipPath id="pa0fdf424df">
   <rect x="114.451945" y="8.64" width="14.09611" height="54.36"/>
  </clipPath>
  <clipPath id="p3b25edb94d">
   <rect x="130.220814" y="8.64" width="14.958372" height="54.36"/>
  </clipPath>
  <clipPath id="p8492956bcc">
   <rect x="147.189352" y="8.64" width="13.421297" height="54.36"/>
  </clipPath>
  <clipPath id="pef3e570800">
   <rect x="179.982993" y="8.64" width="12.634014" height="54.36"/>
  </clipPath>
  <clipPath id="p7866c72f28">
   <rect x="197.138979" y="8.64" width="10.722041" height="54.36"/>
  </clipPath>
  <clipPath id="p8234e47076">
   <rect x="214.801076" y="8.64" width="7.797848" height="54.36"/>
  </clipPath>
  <clipPath id="p7f47869ffb">
   <rect x="244.389352" y="8.64" width="13.421297" height="54.36"/>
  </clipPath>
  <clipPath id="p965fa78853">
   <rect x="264.806938" y="8.64" width="4.986124" height="54.36"/>
  </clipPath>
  <clipPath id="padff50cddb">
   <rect x="276.170772" y="8.64" width="14.658455" height="54.36"/>
  </clipPath>
  <clipPath id="pd8d743224d">
   <rect x="292.989352" y="8.64" width="13.421297" height="54.36"/>
  </clipPath>
  <clipPath id="pf427a7b3df">
   <rect x="329.831876" y="8.64" width="4.536248" height="54.36"/>
  </clipPath>
  <clipPath id="p9711b1d3dc">
   <rect x="340.2" y="8.881927" width="16.2" height="53.876147"/>
  </clipPath>
  <clipPath id="p7fb0d8133b">
   <rect x="362.400579" y="8.64" width="4.198841" height="54.36"/>
  </clipPath>
 </defs>
</svg>
