<?xml version="1.0" encoding="utf-8" standalone="no"?>
<!DOCTYPE svg PUBLIC "-//W3C//DTD SVG 1.1//EN"
  "http://www.w3.org/Graphics/SVG/1.1/DTD/svg11.dtd">
<svg xmlns:xlink="http://www.w3.org/1999/xlink" width="306pt" height="72pt" viewBox="0 0 306 72" xmlns="http://www.w3.org/2000/svg" version="1.1">
 <metadata>
  <rdf:RDF xmlns:dc="http://purl.org/dc/elements/1.1/" xmlns:cc="http://creativecommons.org/ns#" xmlns:rdf="http://www.w3.org/1999/02/22-rdf-syntax-ns#">
   <cc:Work>
    <dc:type rdf:resource="http://purl.org/dc/dcmitype/StillImage"/>
    <dc:date>2023-01-08T17:35:52.370779</dc:date>
    <dc:format>image/svg+xml</dc:format>
    <dc:creator>
     <cc:Agent>
      <dc:title>Matplotlib v3.6.1, https://matplotlib.org/</dc:title>
     </cc:Agent>
    </dc:creator>
   </cc:Work>
  </rdf:RDF>
 </metadata>
 <defs>
  <style type="text/css">*{stroke-linejoin: round; stroke-linecap: butt}</style>
 </defs>
 <g id="figure_1">
  <g id="patch_1">
   <path d="M 0 72 
L 306 72 
L 306 0 
L 0 0 
z
" style="fill: #8fff9f"/>
  </g>
  <g id="axes_1">
   <g id="patch_2">
    <path d="M 1.314935 42.420974 
L 14.885065 42.420974 
M 2.656169 29.219026 
L 13.543831 29.14013 
M 7.547727 29.53461 
L 7.547727 29.929091 
Q 7.547727 31.454416 7.639773 33.203279 
Q 7.731818 34.952143 7.88961 37.121786 
Q 8.047403 39.291429 8.1 40.422273 
L 8.257792 42.236883 
" clip-path="url(#p8da9907ecf)" style="fill: none; stroke: #000000; stroke-linejoin: miter"/>
   </g>
  </g>
  <g id="axes_2">
   <g id="patch_3">
    <path d="M 24.225021 26.147669 
Q 24.187531 26.597545 24.225021 27.384828 
Q 24.26251 27.572276 24.206276 27.965917 
Q 24.150041 28.359559 24.187531 28.678221 
Q 24.225021 28.996883 24.449959 29.184331 
" clip-path="url(#pf8a3456103)" style="fill: none; stroke: #000000; stroke-linejoin: miter"/>
   </g>
  </g>
  <g id="axes_3">
   <g id="patch_4">
    <path d="M 34.208036 34.879821 
Q 34.714286 36.109286 34.967411 42.256607 
Q 35.148214 46.632054 35.4375 46.632054 
L 35.509821 46.595893 
Q 36.016071 46.017321 36.070312 44.588973 
Q 36.124554 43.160625 35.907589 41.750357 
Q 35.690625 40.340089 35.4375 38.712857 
Q 35.184375 37.085625 35.184375 36.398571 
Q 35.184375 35.169107 35.564062 33.939643 
Q 35.94375 32.710179 36.920089 32.710179 
Q 38.149554 32.710179 38.872768 34.355491 
Q 39.595982 36.000804 39.758705 37.971562 
Q 39.921429 39.942321 40.029911 41.587634 
Q 40.138393 43.232946 40.283036 43.232946 
Q 40.427679 43.232946 40.51808 41.497232 
Q 40.608482 39.761518 40.735045 37.700357 
Q 40.861607 35.639196 41.584821 33.903482 
Q 42.308036 32.167768 43.5375 32.167768 
Q 45.092411 33.035625 45.761384 34.771339 
Q 46.430357 36.507054 46.394196 38.188527 
Q 46.358036 39.87 46.376116 42.057723 
Q 46.394196 44.245446 46.791964 45.511071 
" clip-path="url(#p1a0a05e3ea)" style="fill: none; stroke: #000000; stroke-linejoin: miter"/>
   </g>
  </g>
  <g id="axes_4"/>
  <g id="axes_5">
   <g id="patch_5">
    <path d="M 66.584141 38.85304 
L 67.012335 38.85304 
Q 67.83304 38.85304 68.796476 38.745991 
Q 69.759912 38.638943 70.919604 38.460529 
Q 72.079295 38.282115 72.685903 38.210749 
L 79.215859 35.427489 
M 78.894714 25.793128 
Q 78.609251 25.721762 77.574449 25.275727 
Q 76.539648 24.829692 75.897357 24.93674 
Q 75.255066 24.93674 74.737665 25.150837 
Q 74.220264 25.364934 73.881278 25.793128 
Q 73.542291 26.221322 73.27467 26.685198 
Q 73.007048 27.149075 72.864317 27.862731 
Q 72.721586 28.576388 72.614537 29.129471 
Q 72.507489 29.682555 72.489648 30.50326 
Q 72.471806 31.323965 72.453965 31.77 
Q 72.436123 32.216035 72.453965 32.965374 
Q 72.471806 33.714714 72.471806 33.928811 
Q 72.471806 36.605022 73.167621 41.850396 
Q 73.863436 47.095771 73.863436 49.771982 
Q 73.79207 50.057445 73.756388 50.681894 
Q 73.720705 51.306344 73.613656 51.805903 
Q 73.506608 52.305463 73.221145 52.555242 
" clip-path="url(#p2d7ea2406d)" style="fill: none; stroke: #000000; stroke-linejoin: miter"/>
   </g>
  </g>
  <g id="axes_6">
   <g id="patch_6">
    <path d="M 85.613462 32.783338 
Q 86.138317 34.507862 86.269531 36.457324 
Q 86.400745 38.406786 86.325766 40.956083 
Q 86.250786 43.505379 86.288276 44.705048 
L 86.400745 46.054676 
L 86.400745 45.829738 
Q 86.400745 44.667559 86.119572 42.30571 
Q 85.8384 39.943862 85.8384 38.744193 
Q 85.8384 36.419834 86.850621 34.882759 
Q 87.862841 33.345683 89.887283 33.345683 
Q 90.599586 33.345683 90.936993 33.626855 
Q 91.2744 33.908028 91.536828 34.432883 
Q 91.799255 34.957738 92.136662 35.257655 
L 92.586538 36.832221 
" clip-path="url(#pf631a53515)" style="fill: none; stroke: #000000; stroke-linejoin: miter"/>
   </g>
  </g>
  <g id="axes_7">
   <g id="patch_7">
    <path d="M 108.5616 35.032717 
Q 107.51189 34.582841 106.537159 34.69531 
Q 103.500497 35.032717 101.588524 36.701007 
Q 99.676552 38.369297 99.676552 41.330979 
Q 99.676552 43.917766 101.682248 45.6048 
Q 103.687945 47.291834 106.312221 47.291834 
Q 108.674069 47.291834 109.798759 45.361117 
Q 110.923448 43.4304 110.923448 40.881103 
Q 110.923448 39.643945 110.511062 38.706703 
Q 110.098676 37.769462 109.573821 37.300841 
Q 109.048966 36.832221 108.299172 36.119917 
Q 107.549379 35.407614 107.099503 34.69531 
L 105.862345 34.245434 
" clip-path="url(#pef5c65cc5a)" style="fill: none; stroke: #000000; stroke-linejoin: miter"/>
   </g>
  </g>
  <g id="axes_8">
   <g id="patch_8">
    <path d="M 115.208036 34.879821 
Q 115.714286 36.109286 115.967411 42.256607 
Q 116.148214 46.632054 116.4375 46.632054 
L 116.509821 46.595893 
Q 117.016071 46.017321 117.070312 44.588973 
Q 117.124554 43.160625 116.907589 41.750357 
Q 116.690625 40.340089 116.4375 38.712857 
Q 116.184375 37.085625 116.184375 36.398571 
Q 116.184375 35.169107 116.564062 33.939643 
Q 116.94375 32.710179 117.920089 32.710179 
Q 119.149554 32.710179 119.872768 34.355491 
Q 120.595982 36.000804 120.758705 37.971563 
Q 120.921429 39.942321 121.029911 41.587634 
Q 121.138393 43.232946 121.283036 43.232946 
Q 121.427679 43.232946 121.51808 41.497232 
Q 121.608482 39.761518 121.735045 37.700357 
Q 121.861607 35.639196 122.584821 33.903482 
Q 123.308036 32.167768 124.5375 32.167768 
Q 126.092411 33.035625 126.761384 34.771339 
Q 127.430357 36.507054 127.394196 38.188527 
Q 127.358036 39.87 127.376116 42.057723 
Q 127.394196 44.245446 127.791964 45.511071 
" clip-path="url(#pfea9851f2c)" style="fill: none; stroke: #000000; stroke-linejoin: miter"/>
   </g>
  </g>
  <g id="axes_9"/>
  <g id="axes_10">
   <g id="patch_9">
    <path d="M 147.314019 26.614766 
Q 149.100561 28.249907 150.735701 30.596636 
Q 152.370841 32.943364 153.445794 35.00243 
Q 154.520748 37.061495 155.989346 39.620187 
Q 157.457944 42.178879 158.76 43.874579 
Q 159.819813 33.518692 159.940935 32.156075 
L 160.485981 26.614766 
M 148.404112 27.886542 
L 148.404112 29.521682 
Q 148.404112 31.701869 148.328411 34.16972 
Q 148.25271 36.63757 148.131589 39.620187 
Q 148.010467 42.602804 147.949907 44.237944 
" clip-path="url(#p739434af0b)" style="fill: none; stroke: #000000; stroke-linejoin: miter"/>
   </g>
  </g>
  <g id="axes_11">
   <g id="patch_10">
    <path d="M 174.096408 36.371229 
Q 173.024575 35.1769 169.502836 35.1769 
Q 168.155388 35.1769 167.466352 35.222836 
Q 166.777316 35.268771 165.889225 35.483138 
Q 165.001134 35.697505 164.572401 36.14155 
Q 164.143667 36.585595 163.837429 37.412439 
Q 163.531191 38.239282 163.531191 39.494858 
Q 163.531191 41.332287 164.786767 42.434745 
Q 166.042344 43.537202 167.757278 43.537202 
Q 170.115312 43.537202 172.565217 38.392401 
Q 173.759546 35.850624 173.759546 35.82 
Q 174.065784 35.605633 174.096408 36.371229 
Q 174.096408 37.320567 174.463894 39.847032 
Q 174.83138 42.373497 174.83138 43.537202 
M 176.668809 44.731531 
" clip-path="url(#pc99e347598)" style="fill: none; stroke: #000000; stroke-linejoin: miter"/>
   </g>
  </g>
  <g id="axes_12">
   <g id="patch_11">
    <path d="M 181.463834 32.783338 
L 181.463834 33.345683 
Q 182.326097 39.718924 182.363586 47.066897 
Q 182.363586 47.81669 182.288607 47.029407 
Q 181.838731 42.080772 181.688772 35.82 
L 181.688772 35.145186 
Q 181.688772 33.6456 183.282083 33.008276 
Q 184.875393 32.370952 186.3 32.783338 
Q 187.837076 33.233214 188.811807 34.414138 
Q 189.786538 35.595062 190.161434 37.282097 
Q 190.536331 38.969131 190.667545 40.543697 
Q 190.798759 42.118262 190.873738 44.067724 
Q 190.948717 46.017186 191.136166 47.066897 
" clip-path="url(#p9622666df5)" style="fill: none; stroke: #000000; stroke-linejoin: miter"/>
   </g>
  </g>
  <g id="axes_13">
   <g id="patch_12">
    <path d="M 202.856152 30.309021 
Q 202.368786 30.42149 202.781172 30.833876 
Q 203.156069 31.208772 203.231048 30.946345 
Q 203.268538 30.871366 203.193559 30.646428 
Q 203.193559 30.458979 203.118579 30.42149 
Q 203.0436 30.384 202.912386 30.42149 
Q 202.781172 30.458979 202.631214 30.42149 
L 202.518745 30.646428 
M 203.418497 33.345683 
Q 204.468207 37.731972 204.993062 40.13131 
Q 205.517917 42.530648 205.967793 46.317103 
Q 206.417669 50.103559 206.230221 53.25269 
Q 206.230221 53.440138 206.230221 54.021228 
Q 206.230221 54.602317 206.230221 54.902234 
Q 206.230221 55.202152 206.211476 55.783241 
Q 206.192731 56.364331 206.117752 56.701738 
Q 206.042772 57.039145 205.930303 57.52651 
Q 205.817834 58.013876 205.611641 58.313793 
Q 205.405448 58.61371 205.143021 58.894883 
Q 204.880593 59.176055 204.505697 59.307269 
Q 204.1308 59.438483 203.643434 59.438483 
Q 202.668703 59.438483 201.91891 59.251034 
Q 201.169117 59.063586 200.306855 58.707434 
Q 199.444593 58.351283 198.807269 58.201324 
L 198.582331 57.751448 
" clip-path="url(#p00fbbe48cf)" style="fill: none; stroke: #000000; stroke-linejoin: miter"/>
   </g>
  </g>
  <g id="axes_14">
   <g id="patch_13">
    <path d="M 219.318579 29.071862 
Q 218.943683 29.146841 218.812469 29.577972 
Q 218.681255 30.009103 218.756234 30.42149 
Q 218.756234 30.571448 218.793724 30.702662 
Q 218.831214 30.833876 218.887448 30.89011 
Q 218.943683 30.946345 218.999917 31.040069 
Q 219.056152 31.133793 219.093641 31.208772 
L 219.20611 29.859145 
M 219.20611 34.020497 
Q 218.306359 39.006621 218.081421 42.793076 
L 218.531297 45.379862 
L 218.868703 46.054676 
" clip-path="url(#pe4e9d9f844)" style="fill: none; stroke: #000000; stroke-linejoin: miter"/>
   </g>
  </g>
  <g id="axes_15">
   <g id="patch_14">
    <path d="M 230.063834 32.783338 
L 230.063834 33.345683 
Q 230.926097 39.718924 230.963586 47.066897 
Q 230.963586 47.81669 230.888607 47.029407 
Q 230.438731 42.080772 230.288772 35.82 
L 230.288772 35.145186 
Q 230.288772 33.6456 231.882083 33.008276 
Q 233.475393 32.370952 234.9 32.783338 
Q 236.437076 33.233214 237.411807 34.414138 
Q 238.386538 35.595062 238.761434 37.282097 
Q 239.136331 38.969131 239.267545 40.543697 
Q 239.398759 42.118262 239.473738 44.067724 
Q 239.548717 46.017186 239.736166 47.066897 
" clip-path="url(#p08b06fa06d)" style="fill: none; stroke: #000000; stroke-linejoin: miter"/>
   </g>
  </g>
  <g id="axes_16">
   <g id="patch_15">
    <path d="M 256.71018 35.173293 
Q 256.483832 35.108623 255.626946 34.752934 
Q 254.77006 34.397246 254.188024 34.267904 
Q 253.605988 34.138563 253.023952 34.203234 
Q 250.695808 34.203234 249.240719 36.321198 
Q 247.785629 38.439162 247.785629 40.799641 
Q 247.785629 42.254731 252.441916 42.254731 
Q 253.832335 42.254731 255.012575 40.912814 
Q 256.192814 39.570898 256.791018 37.905629 
Q 257.389222 36.240359 257.389222 34.882275 
Q 257.389222 33.556527 257.356886 33.297844 
L 257.292216 34.267904 
Q 257.292216 34.688263 257.292216 35.076287 
Q 257.583234 42.287066 257.25988 45.64994 
Q 256.160479 57.969701 248.076647 57.969701 
Q 246.621557 57.969701 245.651497 57.306826 
Q 244.681437 56.643952 244.681437 55.253533 
Q 244.616766 55.059521 244.649102 55.059521 
Q 244.681437 55.059521 244.778443 55.059521 
Q 244.875449 55.059521 244.875449 54.962515 
" clip-path="url(#p4959efe5d8)" style="fill: none; stroke: #000000; stroke-linejoin: miter"/>
   </g>
  </g>
  <g id="axes_17">
   <g id="patch_16">
    <path d="M 267.225021 46.054676 
Q 267.225021 46.092166 267.150041 46.092166 
Q 267.075062 46.129655 267.075062 46.167145 
Q 267.075062 46.392083 267.3 46.392083 
Q 267.487448 46.392083 267.487448 46.129655 
Q 267.524938 46.017186 267.374979 45.942207 
Q 267.225021 45.867228 267.112552 45.942207 
" clip-path="url(#p1ce4d8db52)" style="fill: none; stroke: #000000; stroke-linejoin: miter"/>
   </g>
  </g>
 </g>
 <defs>
  <clipPath id="p8da9907ecf">
   <rect x="0" y="16.753442" width="16.2" height="38.133117"/>
  </clipPath>
  <clipPath id="pf8a3456103">
   <rect x="22.275559" y="8.64" width="4.048883" height="54.36"/>
  </clipPath>
  <clipPath id="p1a0a05e3ea">
   <rect x="32.4" y="9.603482" width="16.2" height="52.433036"/>
  </clipPath>
  <clipPath id="p2d7ea2406d">
   <rect x="64.8" y="9.949956" width="16.2" height="51.740088"/>
  </clipPath>
  <clipPath id="pf631a53515">
   <rect x="83.738979" y="8.64" width="10.722041" height="54.36"/>
  </clipPath>
  <clipPath id="pef5c65cc5a">
   <rect x="97.802069" y="8.64" width="14.995862" height="54.36"/>
  </clipPath>
  <clipPath id="pfea9851f2c">
   <rect x="113.4" y="9.603482" width="16.2" height="52.433036"/>
  </clipPath>
  <clipPath id="p739434af0b">
   <rect x="145.8" y="13.866729" width="16.2" height="43.906542"/>
  </clipPath>
  <clipPath id="pc99e347598">
   <rect x="162" y="13.617732" width="16.2" height="44.404537"/>
  </clipPath>
  <clipPath id="p9622666df5">
   <rect x="179.589352" y="8.64" width="13.421297" height="54.36"/>
  </clipPath>
  <clipPath id="p00fbbe48cf">
   <rect x="196.707848" y="8.64" width="11.584303" height="54.36"/>
  </clipPath>
  <clipPath id="pe4e9d9f844">
   <rect x="216.206938" y="8.64" width="4.986124" height="54.36"/>
  </clipPath>
  <clipPath id="p08b06fa06d">
   <rect x="228.189352" y="8.64" width="13.421297" height="54.36"/>
  </clipPath>
  <clipPath id="p4959efe5d8">
   <rect x="243" y="12.376886" width="16.2" height="46.886228"/>
  </clipPath>
  <clipPath id="p1ce4d8db52">
   <rect x="265.200579" y="8.64" width="4.198841" height="54.36"/>
  </clipPath>
 </defs>
</svg>
