<?xml version="1.0" encoding="utf-8" standalone="no"?>
<!DOCTYPE svg PUBLIC "-//W3C//DTD SVG 1.1//EN"
  "http://www.w3.org/Graphics/SVG/1.1/DTD/svg11.dtd">
<svg xmlns:xlink="http://www.w3.org/1999/xlink" width="72pt" height="72pt" viewBox="0 0 72 72" xmlns="http://www.w3.org/2000/svg" version="1.1">
 <metadata>
  <rdf:RDF xmlns:dc="http://purl.org/dc/elements/1.1/" xmlns:cc="http://creativecommons.org/ns#" xmlns:rdf="http://www.w3.org/1999/02/22-rdf-syntax-ns#">
   <cc:Work>
    <dc:type rdf:resource="http://purl.org/dc/dcmitype/StillImage"/>
    <dc:date>2023-01-08T16:42:02.731268</dc:date>
    <dc:format>image/svg+xml</dc:format>
    <dc:creator>
     <cc:Agent>
      <dc:title>Matplotlib v3.6.1, https://matplotlib.org/</dc:title>
     </cc:Agent>
    </dc:creator>
   </cc:Work>
  </rdf:RDF>
 </metadata>
 <defs>
  <style type="text/css">*{stroke-linejoin: round; stroke-linecap: butt}</style>
 </defs>
 <g id="figure_1">
  <g id="patch_1">
   <path d="M 0 72 
L 72 72 
L 72 0 
L 0 0 
z
" style="fill: #8fff9f"/>
  </g>
  <g id="axes_1">
   <g id="patch_2">
    <path d="M 13.70285 33.847461 
Q 13.912694 34.07829 14.216969 34.581917 
Q 14.521244 35.085544 14.710104 35.295389 
L 15.150777 36.302642 
M 7.34456 34.036321 
Q 7.953109 34.26715 8.57215 35.096036 
Q 9.191192 35.924922 9.484974 36.743316 
M 3.252591 36.491503 
Q 3.462435 37.393834 3.86114 38.086321 
Q 4.259845 38.778808 4.71101 39.229974 
Q 5.162176 39.68114 5.844171 40.006399 
Q 6.526166 40.331658 7.082254 40.489041 
Q 7.638342 40.646425 8.498705 40.740855 
Q 9.359067 40.835285 9.894171 40.845777 
Q 10.429275 40.856269 11.352591 40.866762 
Q 12.275907 40.877254 12.695596 40.898238 
Q 13.639896 40.940207 13.639896 40.709378 
Q 13.51399 40.541503 13.041839 39.985415 
Q 12.569689 39.429326 12.349352 39.125052 
Q 12.129016 38.820777 11.908679 38.306658 
Q 11.688342 37.792539 11.688342 37.309896 
M 1.804663 36.302642 
Q 1.888601 36.302642 1.878109 36.418057 
Q 1.867617 36.533472 1.867617 36.554456 
L 1.17513 41.024145 
L 1.049223 41.213005 
" clip-path="url(#pb6c9152a64)" style="fill: none; stroke: #000000; stroke-linejoin: miter"/>
   </g>
  </g>
  <g id="axes_2">
   <g id="patch_3">
    <path d="M 17.314168 38.182036 
Q 18.472902 38.115186 19.754195 38.583136 
Q 21.035488 39.051087 21.993673 39.641596 
Q 22.951857 40.232105 24.23315 40.677772 
Q 25.514443 41.123439 26.673177 40.989739 
Q 27.252545 40.989739 27.787345 40.989739 
L 28.010179 40.989739 
Q 27.876479 40.922889 28.143879 40.833755 
Q 28.589546 40.677772 29.948831 40.454938 
L 31.285832 39.920138 
M 18.316919 33.636231 
L 18.718019 33.636231 
Q 22.595323 33.569381 27.475378 31.296479 
Q 28.322146 30.895378 28.544979 30.895378 
Q 28.611829 31.029078 28.611829 31.029078 
Q 28.611829 31.764429 27.241403 33.223989 
Q 25.870977 34.683549 23.943466 36.377084 
Q 22.015956 38.070619 21.659422 38.449436 
L 20.990922 39.786437 
M 21.659422 29.625227 
Q 21.971389 29.625227 22.160798 30.115461 
Q 22.350206 30.605695 22.461623 30.694828 
L 22.795873 31.497029 
" clip-path="url(#p2866e4beee)" style="fill: none; stroke: #000000; stroke-linejoin: miter"/>
   </g>
  </g>
  <g id="axes_3">
   <g id="patch_4">
    <path d="M 35.244101 27.424213 
L 35.380618 27.424213 
Q 35.949438 27.56073 36.814045 28.44809 
M 44.39073 34.591348 
L 44.367978 43.19191 
M 41.046067 34.796124 
L 47.46236 33.977022 
M 44.527247 28.652865 
Q 44.436236 28.766629 43.719522 29.699494 
Q 43.002809 30.63236 42.547753 31.04191 
L 41.114326 31.792753 
M 40.977809 29.949775 
Q 40.932303 30.404831 41.080197 31.405955 
Q 41.22809 32.407079 41.114326 32.953146 
Q 41.114326 34.045281 40.989185 35.194298 
Q 40.864045 36.343315 40.65927 37.731236 
Q 40.454494 39.119157 40.363483 39.915506 
L 39.953933 41.00764 
M 34.698034 35.137416 
L 34.902809 35.137416 
Q 34.925562 35.137416 37.087079 35.069157 
L 38.110955 34.864382 
M 34.698034 30.905393 
L 35.448876 30.905393 
Q 35.949438 30.905393 36.984691 30.700618 
Q 38.019944 30.495843 38.452247 30.495843 
L 38.383989 31.314944 
Q 38.361236 31.61073 38.406742 33.044157 
Q 38.452247 34.477584 38.247472 34.727865 
M 34.698034 29.813258 
L 34.698034 32.475337 
Q 34.698034 32.49809 34.561517 37.526461 
L 33.605899 40.59809 
L 33.53764 40.939382 
" clip-path="url(#pfbea63cf86)" style="fill: none; stroke: #000000; stroke-linejoin: miter"/>
   </g>
  </g>
  <g id="axes_4">
   <g id="patch_5">
    <path d="M 55.170629 36.998182 
L 58.161399 36.998182 
M 54.830769 34.007413 
Q 54.921399 33.871469 55.317902 34.007413 
Q 55.714406 34.143357 55.782378 33.939441 
L 58.297343 33.939441 
L 58.433287 36.522378 
M 54.490909 33.871469 
Q 54.40028 34.415245 54.604196 35.525455 
Q 54.808112 36.635664 54.830769 36.862238 
L 54.830769 37.27007 
M 50.072727 30.812727 
L 50.276643 30.812727 
Q 52.746294 30.812727 56.926573 30.506853 
Q 61.106853 30.200979 63.576503 30.200979 
Q 63.621818 30.200979 63.644476 30.370909 
Q 63.667133 30.540839 63.667133 30.722098 
L 63.644476 30.880699 
Q 63.667133 32.534685 63.100699 35.831329 
Q 62.534266 39.127972 62.556923 40.804615 
Q 62.556923 41.212448 62.443636 41.926154 
Q 62.33035 42.63986 62.149091 42.63986 
Q 61.967832 42.503916 61.537343 41.846853 
Q 61.106853 41.18979 60.653706 41.076503 
M 49.732867 31.152587 
Q 50.186014 36.363776 50.140699 41.348392 
M 57.119161 28.093846 
Q 56.960559 28.275105 56.473427 28.648951 
Q 55.986294 29.022797 55.805035 29.090769 
L 54.445594 30.314266 
" clip-path="url(#p33d8fb860f)" style="fill: none; stroke: #000000; stroke-linejoin: miter"/>
   </g>
  </g>
 </g>
 <defs>
  <clipPath id="pb6c9152a64">
   <rect x="0" y="20.606269" width="16.2" height="30.427461"/>
  </clipPath>
  <clipPath id="p2866e4beee">
   <rect x="16.2" y="19.664567" width="16.2" height="32.310867"/>
  </clipPath>
  <clipPath id="pfbea63cf86">
   <rect x="32.4" y="19.324213" width="16.2" height="32.991573"/>
  </clipPath>
  <clipPath id="p33d8fb860f">
   <rect x="48.6" y="19.393427" width="16.2" height="32.853147"/>
  </clipPath>
 </defs>
</svg>
