<?xml version="1.0" encoding="utf-8" standalone="no"?>
<!DOCTYPE svg PUBLIC "-//W3C//DTD SVG 1.1//EN"
  "http://www.w3.org/Graphics/SVG/1.1/DTD/svg11.dtd">
<svg xmlns:xlink="http://www.w3.org/1999/xlink" width="270pt" height="72pt" viewBox="0 0 270 72" xmlns="http://www.w3.org/2000/svg" version="1.1">
 <metadata>
  <rdf:RDF xmlns:dc="http://purl.org/dc/elements/1.1/" xmlns:cc="http://creativecommons.org/ns#" xmlns:rdf="http://www.w3.org/1999/02/22-rdf-syntax-ns#">
   <cc:Work>
    <dc:type rdf:resource="http://purl.org/dc/dcmitype/StillImage"/>
    <dc:date>2023-01-08T17:25:02.270543</dc:date>
    <dc:format>image/svg+xml</dc:format>
    <dc:creator>
     <cc:Agent>
      <dc:title>Matplotlib v3.6.1, https://matplotlib.org/</dc:title>
     </cc:Agent>
    </dc:creator>
   </cc:Work>
  </rdf:RDF>
 </metadata>
 <defs>
  <style type="text/css">*{stroke-linejoin: round; stroke-linecap: butt}</style>
 </defs>
 <g id="figure_1">
  <g id="patch_1">
   <path d="M 0 72 
L 270 72 
L 270 0 
L 0 0 
z
" style="fill: #8fff9f"/>
  </g>
  <g id="axes_1">
   <g id="patch_2">
    <path d="M 0 54.612 
L 16.2 54.612 
L 16.2 17.028 
L 0 17.028 
z
" style="fill: #ffffff"/>
   </g>
   <g id="patch_3">
    <path d="M 9.14976 37.53072 
Q 10.18656 38.46384 11.48256 40.95216 
Q 12.77856 43.44048 13.7376 44.3736 
L 14.904 44.7624 
M 10.6272 29.13264 
Q 9.5904 28.5624 7.82784 28.58832 
Q 4.9248 28.58832 3.1104 30.53232 
Q 1.296 32.47632 1.296 35.35344 
Q 1.296 38.77488 3.51216 40.95216 
Q 5.72832 43.12944 9.14976 43.12944 
Q 10.39392 43.12944 11.34 42.45552 
Q 12.28608 41.7816 12.80448 40.68 
Q 13.32288 39.5784 13.56912 38.412 
Q 13.81536 37.2456 13.81536 36.05328 
Q 13.81536 34.47216 13.3488 33.31872 
Q 12.88224 32.16528 12.07872 30.98592 
Q 11.2752 29.80656 10.93824 28.97712 
L 9.77184 28.74384 
" clip-path="url(#p3f4134235c)" style="fill: none; stroke: #000000; stroke-linejoin: miter"/>
   </g>
   <g id="matplotlib.axis_1">
    <g id="xtick_1">
     <g id="line2d_1">
      <defs>
       <path id="m60aabb9f91" d="M 0 0 
L 0 3.5 
" style="stroke: #000000; stroke-width: 0.8"/>
      </defs>
      <g>
       <use xlink:href="#m60aabb9f91" x="3.3696" y="54.612" style="stroke: #000000; stroke-width: 0.8"/>
      </g>
     </g>
    </g>
    <g id="xtick_2">
     <g id="line2d_2">
      <g>
       <use xlink:href="#m60aabb9f91" x="9.8496" y="54.612" style="stroke: #000000; stroke-width: 0.8"/>
      </g>
     </g>
    </g>
   </g>
   <g id="matplotlib.axis_2">
    <g id="ytick_1">
     <g id="line2d_3">
      <defs>
       <path id="mb74a1c1e3a" d="M 0 0 
L -3.5 0 
" style="stroke: #000000; stroke-width: 0.8"/>
      </defs>
      <g>
       <use xlink:href="#mb74a1c1e3a" x="0" y="45.54" style="stroke: #000000; stroke-width: 0.8"/>
      </g>
     </g>
    </g>
    <g id="ytick_2">
     <g id="line2d_4">
      <g>
       <use xlink:href="#mb74a1c1e3a" x="0" y="19.62" style="stroke: #000000; stroke-width: 0.8"/>
      </g>
     </g>
    </g>
   </g>
   <g id="patch_4">
    <path d="M 0 54.612 
L 0 17.028 
" style="fill: none; stroke: #000000; stroke-width: 0.8; stroke-linejoin: miter; stroke-linecap: square"/>
   </g>
   <g id="patch_5">
    <path d="M 16.2 54.612 
L 16.2 17.028 
" style="fill: none; stroke: #000000; stroke-width: 0.8; stroke-linejoin: miter; stroke-linecap: square"/>
   </g>
   <g id="patch_6">
    <path d="M 0 54.612 
L 16.2 54.612 
" style="fill: none; stroke: #000000; stroke-width: 0.8; stroke-linejoin: miter; stroke-linecap: square"/>
   </g>
   <g id="patch_7">
    <path d="M 0 17.028 
L 16.2 17.028 
" style="fill: none; stroke: #000000; stroke-width: 0.8; stroke-linejoin: miter; stroke-linecap: square"/>
   </g>
  </g>
  <g id="axes_2">
   <g id="patch_8">
    <path d="M 17.589352 63 
L 31.010648 63 
L 31.010648 8.64 
L 17.589352 8.64 
z
" style="fill: #ffffff"/>
   </g>
   <g id="patch_9">
    <path d="M 19.688772 35.145186 
Q 19.688772 35.145186 19.688772 35.595062 
Q 19.688772 36.269876 19.576303 37.619503 
Q 19.463834 38.969131 19.463834 39.643945 
Q 19.463834 41.930814 20.700993 43.599103 
Q 21.938152 45.267393 24.075062 45.267393 
Q 25.462179 45.154924 26.230717 43.917766 
Q 26.999255 42.680607 27.149214 41.237255 
Q 27.299172 39.793903 27.5616 37.9944 
Q 27.824028 36.194897 28.236414 35.370124 
Q 28.386372 35.070207 28.386372 35.670041 
Q 28.386372 36.269876 28.123945 38.706703 
Q 27.899007 41.031062 27.899007 41.555917 
Q 27.749048 42.643117 28.086455 43.767807 
Q 28.423862 44.892497 29.136166 45.6048 
" clip-path="url(#p8499e6da01)" style="fill: none; stroke: #000000; stroke-linejoin: miter"/>
   </g>
   <g id="matplotlib.axis_3">
    <g id="xtick_3">
     <g id="line2d_5">
      <g>
       <use xlink:href="#m60aabb9f91" x="21.450786" y="63" style="stroke: #000000; stroke-width: 0.8"/>
      </g>
     </g>
    </g>
    <g id="xtick_4">
     <g id="line2d_6">
      <g>
       <use xlink:href="#m60aabb9f91" x="28.948717" y="63" style="stroke: #000000; stroke-width: 0.8"/>
      </g>
     </g>
    </g>
   </g>
   <g id="matplotlib.axis_4">
    <g id="ytick_3">
     <g id="line2d_7">
      <g>
       <use xlink:href="#mb74a1c1e3a" x="17.589352" y="49.878621" style="stroke: #000000; stroke-width: 0.8"/>
      </g>
     </g>
    </g>
    <g id="ytick_4">
     <g id="line2d_8">
      <g>
       <use xlink:href="#mb74a1c1e3a" x="17.589352" y="12.388966" style="stroke: #000000; stroke-width: 0.8"/>
      </g>
     </g>
    </g>
   </g>
   <g id="patch_10">
    <path d="M 17.589352 63 
L 17.589352 8.64 
" style="fill: none; stroke: #000000; stroke-width: 0.8; stroke-linejoin: miter; stroke-linecap: square"/>
   </g>
   <g id="patch_11">
    <path d="M 31.010648 63 
L 31.010648 8.64 
" style="fill: none; stroke: #000000; stroke-width: 0.8; stroke-linejoin: miter; stroke-linecap: square"/>
   </g>
   <g id="patch_12">
    <path d="M 17.589352 63 
L 31.010648 63 
" style="fill: none; stroke: #000000; stroke-width: 0.8; stroke-linejoin: miter; stroke-linecap: square"/>
   </g>
   <g id="patch_13">
    <path d="M 17.589352 8.64 
L 31.010648 8.64 
" style="fill: none; stroke: #000000; stroke-width: 0.8; stroke-linejoin: miter; stroke-linecap: square"/>
   </g>
  </g>
  <g id="axes_3">
   <g id="patch_14">
    <path d="M 32.4 62.573986 
L 48.6 62.573986 
L 48.6 9.066014 
L 32.4 9.066014 
z
" style="fill: #ffffff"/>
   </g>
   <g id="patch_15">
    <path d="M 34.577221 29.066925 
L 44.762187 29.066925 
M 43.987244 33.384465 
Q 43.987244 33.384465 41.108884 33.384465 
Q 38.119818 33.384465 36.18246 35.026606 
Q 34.245103 36.668747 34.245103 39.584009 
Q 34.245103 41.318405 35.979499 42.222506 
Q 37.713895 43.126606 39.669704 43.126606 
Q 41.182688 42.83139 42.049886 41.650524 
Q 42.917084 40.469658 43.138497 39.251891 
Q 43.359909 38.034123 43.56287 36.115216 
Q 43.765831 34.19631 43.987244 33.384465 
Q 46.533485 42.978998 46.644191 43.901549 
L 46.754897 45.00861 
" clip-path="url(#p087fa10e5b)" style="fill: none; stroke: #000000; stroke-linejoin: miter"/>
   </g>
   <g id="matplotlib.axis_5">
    <g id="xtick_5">
     <g id="line2d_9">
      <g>
       <use xlink:href="#m60aabb9f91" x="38.562642" y="62.573986" style="stroke: #000000; stroke-width: 0.8"/>
      </g>
     </g>
    </g>
    <g id="xtick_6">
     <g id="line2d_10">
      <g>
       <use xlink:href="#m60aabb9f91" x="47.788155" y="62.573986" style="stroke: #000000; stroke-width: 0.8"/>
      </g>
     </g>
    </g>
   </g>
   <g id="matplotlib.axis_6">
    <g id="ytick_5">
     <g id="line2d_11">
      <g>
       <use xlink:href="#mb74a1c1e3a" x="32.4" y="49.658269" style="stroke: #000000; stroke-width: 0.8"/>
      </g>
     </g>
    </g>
    <g id="ytick_6">
     <g id="line2d_12">
      <g>
       <use xlink:href="#mb74a1c1e3a" x="32.4" y="12.756219" style="stroke: #000000; stroke-width: 0.8"/>
      </g>
     </g>
    </g>
   </g>
   <g id="patch_16">
    <path d="M 32.4 62.573986 
L 32.4 9.066014 
" style="fill: none; stroke: #000000; stroke-width: 0.8; stroke-linejoin: miter; stroke-linecap: square"/>
   </g>
   <g id="patch_17">
    <path d="M 48.6 62.573986 
L 48.6 9.066014 
" style="fill: none; stroke: #000000; stroke-width: 0.8; stroke-linejoin: miter; stroke-linecap: square"/>
   </g>
   <g id="patch_18">
    <path d="M 32.4 62.573986 
L 48.6 62.573986 
" style="fill: none; stroke: #000000; stroke-width: 0.8; stroke-linejoin: miter; stroke-linecap: square"/>
   </g>
   <g id="patch_19">
    <path d="M 32.4 9.066014 
L 48.6 9.066014 
" style="fill: none; stroke: #000000; stroke-width: 0.8; stroke-linejoin: miter; stroke-linecap: square"/>
   </g>
  </g>
  <g id="axes_4">
   <g id="patch_20">
    <path d="M 49.989352 63 
L 63.410648 63 
L 63.410648 8.64 
L 49.989352 8.64 
z
" style="fill: #ffffff"/>
   </g>
   <g id="patch_21">
    <path d="M 51.863834 32.783338 
L 51.863834 33.345683 
Q 52.726097 39.718924 52.763586 47.066897 
Q 52.763586 47.81669 52.688607 47.029407 
Q 52.238731 42.080772 52.088772 35.82 
L 52.088772 35.145186 
Q 52.088772 33.6456 53.682083 33.008276 
Q 55.275393 32.370952 56.7 32.783338 
Q 58.237076 33.233214 59.211807 34.414138 
Q 60.186538 35.595062 60.561434 37.282097 
Q 60.936331 38.969131 61.067545 40.543697 
Q 61.198759 42.118262 61.273738 44.067724 
Q 61.348717 46.017186 61.536166 47.066897 
" clip-path="url(#p952bc85dbc)" style="fill: none; stroke: #000000; stroke-linejoin: miter"/>
   </g>
   <g id="matplotlib.axis_7">
    <g id="xtick_7">
     <g id="line2d_13">
      <g>
       <use xlink:href="#m60aabb9f91" x="54.863007" y="63" style="stroke: #000000; stroke-width: 0.8"/>
      </g>
     </g>
    </g>
    <g id="xtick_8">
     <g id="line2d_14">
      <g>
       <use xlink:href="#m60aabb9f91" x="62.360938" y="63" style="stroke: #000000; stroke-width: 0.8"/>
      </g>
     </g>
    </g>
   </g>
   <g id="matplotlib.axis_8">
    <g id="ytick_7">
     <g id="line2d_15">
      <g>
       <use xlink:href="#mb74a1c1e3a" x="49.989352" y="49.878621" style="stroke: #000000; stroke-width: 0.8"/>
      </g>
     </g>
    </g>
    <g id="ytick_8">
     <g id="line2d_16">
      <g>
       <use xlink:href="#mb74a1c1e3a" x="49.989352" y="12.388966" style="stroke: #000000; stroke-width: 0.8"/>
      </g>
     </g>
    </g>
   </g>
   <g id="patch_22">
    <path d="M 49.989352 63 
L 49.989352 8.64 
" style="fill: none; stroke: #000000; stroke-width: 0.8; stroke-linejoin: miter; stroke-linecap: square"/>
   </g>
   <g id="patch_23">
    <path d="M 63.410648 63 
L 63.410648 8.64 
" style="fill: none; stroke: #000000; stroke-width: 0.8; stroke-linejoin: miter; stroke-linecap: square"/>
   </g>
   <g id="patch_24">
    <path d="M 49.989352 63 
L 63.410648 63 
" style="fill: none; stroke: #000000; stroke-width: 0.8; stroke-linejoin: miter; stroke-linecap: square"/>
   </g>
   <g id="patch_25">
    <path d="M 49.989352 8.64 
L 63.410648 8.64 
" style="fill: none; stroke: #000000; stroke-width: 0.8; stroke-linejoin: miter; stroke-linecap: square"/>
   </g>
  </g>
  <g id="axes_5">
   <g id="patch_26">
    <path d="M 65.402069 63 
L 80.397931 63 
L 80.397931 8.64 
L 65.402069 8.64 
z
" style="fill: #ffffff"/>
   </g>
   <g id="matplotlib.axis_9">
    <g id="xtick_9">
     <g id="line2d_17">
      <g>
       <use xlink:href="#m60aabb9f91" x="65.402069" y="63" style="stroke: #000000; stroke-width: 0.8"/>
      </g>
     </g>
     <g id="text_1">
      <!-- 0 -->
      <g transform="translate(62.220819 77.598438) scale(0.1 -0.1)">
       <defs>
        <path id="DejaVuSans-30" d="M 2034 4250 
Q 1547 4250 1301 3770 
Q 1056 3291 1056 2328 
Q 1056 1369 1301 889 
Q 1547 409 2034 409 
Q 2525 409 2770 889 
Q 3016 1369 3016 2328 
Q 3016 3291 2770 3770 
Q 2525 4250 2034 4250 
z
M 2034 4750 
Q 2819 4750 3233 4129 
Q 3647 3509 3647 2328 
Q 3647 1150 3233 529 
Q 2819 -91 2034 -91 
Q 1250 -91 836 529 
Q 422 1150 422 2328 
Q 422 3509 836 4129 
Q 1250 4750 2034 4750 
z
" transform="scale(0.015625)"/>
       </defs>
       <use xlink:href="#DejaVuSans-30"/>
      </g>
     </g>
    </g>
    <g id="xtick_10">
     <g id="line2d_18">
      <g>
       <use xlink:href="#m60aabb9f91" x="74.774483" y="63" style="stroke: #000000; stroke-width: 0.8"/>
      </g>
     </g>
     <g id="text_2">
      <!-- 250 -->
      <g transform="translate(65.230733 77.598438) scale(0.1 -0.1)">
       <defs>
        <path id="DejaVuSans-32" d="M 1228 531 
L 3431 531 
L 3431 0 
L 469 0 
L 469 531 
Q 828 903 1448 1529 
Q 2069 2156 2228 2338 
Q 2531 2678 2651 2914 
Q 2772 3150 2772 3378 
Q 2772 3750 2511 3984 
Q 2250 4219 1831 4219 
Q 1534 4219 1204 4116 
Q 875 4013 500 3803 
L 500 4441 
Q 881 4594 1212 4672 
Q 1544 4750 1819 4750 
Q 2544 4750 2975 4387 
Q 3406 4025 3406 3419 
Q 3406 3131 3298 2873 
Q 3191 2616 2906 2266 
Q 2828 2175 2409 1742 
Q 1991 1309 1228 531 
z
" transform="scale(0.015625)"/>
        <path id="DejaVuSans-35" d="M 691 4666 
L 3169 4666 
L 3169 4134 
L 1269 4134 
L 1269 2991 
Q 1406 3038 1543 3061 
Q 1681 3084 1819 3084 
Q 2600 3084 3056 2656 
Q 3513 2228 3513 1497 
Q 3513 744 3044 326 
Q 2575 -91 1722 -91 
Q 1428 -91 1123 -41 
Q 819 9 494 109 
L 494 744 
Q 775 591 1075 516 
Q 1375 441 1709 441 
Q 2250 441 2565 725 
Q 2881 1009 2881 1497 
Q 2881 1984 2565 2268 
Q 2250 2553 1709 2553 
Q 1456 2553 1204 2497 
Q 953 2441 691 2322 
L 691 4666 
z
" transform="scale(0.015625)"/>
       </defs>
       <use xlink:href="#DejaVuSans-32"/>
       <use xlink:href="#DejaVuSans-35" x="63.623047"/>
       <use xlink:href="#DejaVuSans-30" x="127.246094"/>
      </g>
     </g>
    </g>
   </g>
   <g id="matplotlib.axis_10">
    <g id="ytick_9">
     <g id="line2d_19">
      <g>
       <use xlink:href="#mb74a1c1e3a" x="65.402069" y="49.878621" style="stroke: #000000; stroke-width: 0.8"/>
      </g>
     </g>
     <g id="text_3">
      <!-- 0 -->
      <g transform="translate(52.039569 53.677839) scale(0.1 -0.1)">
       <use xlink:href="#DejaVuSans-30"/>
      </g>
     </g>
    </g>
    <g id="ytick_10">
     <g id="line2d_20">
      <g>
       <use xlink:href="#mb74a1c1e3a" x="65.402069" y="12.388966" style="stroke: #000000; stroke-width: 0.8"/>
      </g>
     </g>
     <g id="text_4">
      <!-- 1000 -->
      <g transform="translate(32.952069 16.188184) scale(0.1 -0.1)">
       <defs>
        <path id="DejaVuSans-31" d="M 794 531 
L 1825 531 
L 1825 4091 
L 703 3866 
L 703 4441 
L 1819 4666 
L 2450 4666 
L 2450 531 
L 3481 531 
L 3481 0 
L 794 0 
L 794 531 
z
" transform="scale(0.015625)"/>
       </defs>
       <use xlink:href="#DejaVuSans-31"/>
       <use xlink:href="#DejaVuSans-30" x="63.623047"/>
       <use xlink:href="#DejaVuSans-30" x="127.246094"/>
       <use xlink:href="#DejaVuSans-30" x="190.869141"/>
      </g>
     </g>
    </g>
   </g>
   <g id="patch_27">
    <path d="M 65.402069 63 
L 65.402069 8.64 
" style="fill: none; stroke: #000000; stroke-width: 0.8; stroke-linejoin: miter; stroke-linecap: square"/>
   </g>
   <g id="patch_28">
    <path d="M 80.397931 63 
L 80.397931 8.64 
" style="fill: none; stroke: #000000; stroke-width: 0.8; stroke-linejoin: miter; stroke-linecap: square"/>
   </g>
   <g id="patch_29">
    <path d="M 65.402069 63 
L 80.397931 63 
" style="fill: none; stroke: #000000; stroke-width: 0.8; stroke-linejoin: miter; stroke-linecap: square"/>
   </g>
   <g id="patch_30">
    <path d="M 65.402069 8.64 
L 80.397931 8.64 
" style="fill: none; stroke: #000000; stroke-width: 0.8; stroke-linejoin: miter; stroke-linecap: square"/>
   </g>
  </g>
  <g id="axes_6">
   <g id="patch_31">
    <path d="M 81 59.789388 
L 97.2 59.789388 
L 97.2 11.850612 
L 81 11.850612 
z
" style="fill: #ffffff"/>
   </g>
   <g id="patch_32">
    <path d="M 94.356735 34.365306 
Q 94.356735 34.365306 93.860816 34.365306 
Q 93.067347 34.365306 91.579592 34.067755 
Q 90.091837 33.770204 89.298367 33.770204 
Q 86.521224 33.770204 84.587143 35.224898 
Q 82.653061 36.679592 82.653061 39.423673 
Q 82.653061 40.94449 84.140816 42.399184 
Q 85.628571 43.853878 87.562653 44.663878 
Q 89.496735 45.473878 90.98449 45.473878 
Q 91.910204 45.473878 92.60449 45.110204 
Q 93.298776 44.746531 94.042653 44.118367 
Q 94.786531 43.490204 95.348571 43.192653 
L 95.546939 42.696735 
" clip-path="url(#pb76180516d)" style="fill: none; stroke: #000000; stroke-linejoin: miter"/>
   </g>
   <g id="matplotlib.axis_11">
    <g id="xtick_11">
     <g id="line2d_21">
      <g>
       <use xlink:href="#m60aabb9f91" x="85.231837" y="59.789388" style="stroke: #000000; stroke-width: 0.8"/>
      </g>
     </g>
    </g>
    <g id="xtick_12">
     <g id="line2d_22">
      <g>
       <use xlink:href="#m60aabb9f91" x="93.497143" y="59.789388" style="stroke: #000000; stroke-width: 0.8"/>
      </g>
     </g>
    </g>
   </g>
   <g id="matplotlib.axis_12">
    <g id="ytick_11">
     <g id="line2d_23">
      <g>
       <use xlink:href="#mb74a1c1e3a" x="81" y="48.217959" style="stroke: #000000; stroke-width: 0.8"/>
      </g>
     </g>
    </g>
    <g id="ytick_12">
     <g id="line2d_24">
      <g>
       <use xlink:href="#mb74a1c1e3a" x="81" y="15.156735" style="stroke: #000000; stroke-width: 0.8"/>
      </g>
     </g>
    </g>
   </g>
   <g id="patch_33">
    <path d="M 81 59.789388 
L 81 11.850612 
" style="fill: none; stroke: #000000; stroke-width: 0.8; stroke-linejoin: miter; stroke-linecap: square"/>
   </g>
   <g id="patch_34">
    <path d="M 97.2 59.789388 
L 97.2 11.850612 
" style="fill: none; stroke: #000000; stroke-width: 0.8; stroke-linejoin: miter; stroke-linecap: square"/>
   </g>
   <g id="patch_35">
    <path d="M 81 59.789388 
L 97.2 59.789388 
" style="fill: none; stroke: #000000; stroke-width: 0.8; stroke-linejoin: miter; stroke-linecap: square"/>
   </g>
   <g id="patch_36">
    <path d="M 81 11.850612 
L 97.2 11.850612 
" style="fill: none; stroke: #000000; stroke-width: 0.8; stroke-linejoin: miter; stroke-linecap: square"/>
   </g>
  </g>
  <g id="axes_7">
   <g id="patch_37">
    <path d="M 99.938979 63 
L 110.661021 63 
L 110.661021 8.64 
L 99.938979 8.64 
z
" style="fill: #ffffff"/>
   </g>
   <g id="patch_38">
    <path d="M 101.813462 35.932469 
Q 102.413297 35.257655 103.406772 34.826524 
Q 104.400248 34.395393 105.3 34.470372 
Q 105.937324 34.470372 106.42469 34.639076 
Q 106.912055 34.807779 107.230717 34.995228 
Q 107.549379 35.182676 107.774317 35.670041 
Q 107.999255 36.157407 108.111724 36.419834 
Q 108.224193 36.682262 108.280428 37.375821 
Q 108.336662 38.069379 108.355407 38.331807 
Q 108.374152 38.594234 108.355407 39.419007 
Q 108.336662 40.243779 108.336662 40.431228 
Q 108.336662 41.368469 108.167959 43.242952 
Q 107.999255 45.117434 107.999255 46.054676 
Q 107.999255 46.467062 108.05549 46.823214 
Q 108.111724 47.179366 108.205448 47.610497 
Q 108.299172 48.041628 108.336662 48.304055 
L 108.786538 48.528993 
M 102.263338 23.111007 
Q 102.488276 24.798041 102.488276 29.971614 
L 102.488276 42.3432 
L 102.150869 46.841959 
L 101.925931 47.74171 
" clip-path="url(#p8bb790ec4f)" style="fill: none; stroke: #000000; stroke-linejoin: miter"/>
   </g>
   <g id="matplotlib.axis_13">
    <g id="xtick_13">
     <g id="line2d_25">
      <g>
       <use xlink:href="#m60aabb9f91" x="102.900662" y="63" style="stroke: #000000; stroke-width: 0.8"/>
      </g>
     </g>
    </g>
    <g id="xtick_14">
     <g id="line2d_26">
      <g>
       <use xlink:href="#m60aabb9f91" x="110.398593" y="63" style="stroke: #000000; stroke-width: 0.8"/>
      </g>
     </g>
    </g>
   </g>
   <g id="matplotlib.axis_14">
    <g id="ytick_13">
     <g id="line2d_27">
      <g>
       <use xlink:href="#mb74a1c1e3a" x="99.938979" y="49.878621" style="stroke: #000000; stroke-width: 0.8"/>
      </g>
     </g>
    </g>
    <g id="ytick_14">
     <g id="line2d_28">
      <g>
       <use xlink:href="#mb74a1c1e3a" x="99.938979" y="12.388966" style="stroke: #000000; stroke-width: 0.8"/>
      </g>
     </g>
    </g>
   </g>
   <g id="patch_39">
    <path d="M 99.938979 63 
L 99.938979 8.64 
" style="fill: none; stroke: #000000; stroke-width: 0.8; stroke-linejoin: miter; stroke-linecap: square"/>
   </g>
   <g id="patch_40">
    <path d="M 110.661021 63 
L 110.661021 8.64 
" style="fill: none; stroke: #000000; stroke-width: 0.8; stroke-linejoin: miter; stroke-linecap: square"/>
   </g>
   <g id="patch_41">
    <path d="M 99.938979 63 
L 110.661021 63 
" style="fill: none; stroke: #000000; stroke-width: 0.8; stroke-linejoin: miter; stroke-linecap: square"/>
   </g>
   <g id="patch_42">
    <path d="M 99.938979 8.64 
L 110.661021 8.64 
" style="fill: none; stroke: #000000; stroke-width: 0.8; stroke-linejoin: miter; stroke-linecap: square"/>
   </g>
  </g>
  <g id="axes_8">
   <g id="patch_43">
    <path d="M 113.870855 63 
L 129.129145 63 
L 129.129145 8.64 
L 113.870855 8.64 
z
" style="fill: #ffffff"/>
   </g>
   <g id="patch_44">
    <path d="M 116.57011 31.43371 
L 123.880593 31.43371 
M 115.782828 35.707531 
Q 115.745338 36.194897 115.782828 37.394566 
Q 115.782828 38.556745 115.782828 39.025366 
Q 115.782828 39.493986 115.876552 40.524952 
Q 115.970276 41.555917 116.120234 42.005793 
Q 116.270193 42.455669 116.6076 43.167972 
Q 116.945007 43.880276 117.432372 44.198938 
Q 117.919738 44.5176 118.669531 44.780028 
Q 119.419324 45.042455 120.394055 45.042455 
Q 121.781172 45.042455 122.755903 44.067724 
Q 123.730634 43.092993 124.18051 41.555917 
Q 124.630386 40.018841 124.817834 38.631724 
Q 125.005283 37.244607 125.005283 35.932469 
Q 125.005283 36.794731 125.26771 38.238083 
Q 125.530138 39.681434 125.980014 41.555917 
Q 126.42989 43.4304 126.579848 44.255172 
L 127.254662 44.48011 
" clip-path="url(#p9019291c51)" style="fill: none; stroke: #000000; stroke-linejoin: miter"/>
   </g>
   <g id="matplotlib.axis_15">
    <g id="xtick_15">
     <g id="line2d_29">
      <g>
       <use xlink:href="#m60aabb9f91" x="118.182166" y="63" style="stroke: #000000; stroke-width: 0.8"/>
      </g>
     </g>
    </g>
    <g id="xtick_16">
     <g id="line2d_30">
      <g>
       <use xlink:href="#m60aabb9f91" x="125.680097" y="63" style="stroke: #000000; stroke-width: 0.8"/>
      </g>
     </g>
    </g>
   </g>
   <g id="matplotlib.axis_16">
    <g id="ytick_15">
     <g id="line2d_31">
      <g>
       <use xlink:href="#mb74a1c1e3a" x="113.870855" y="49.878621" style="stroke: #000000; stroke-width: 0.8"/>
      </g>
     </g>
    </g>
    <g id="ytick_16">
     <g id="line2d_32">
      <g>
       <use xlink:href="#mb74a1c1e3a" x="113.870855" y="12.388966" style="stroke: #000000; stroke-width: 0.8"/>
      </g>
     </g>
    </g>
   </g>
   <g id="patch_45">
    <path d="M 113.870855 63 
L 113.870855 8.64 
" style="fill: none; stroke: #000000; stroke-width: 0.8; stroke-linejoin: miter; stroke-linecap: square"/>
   </g>
   <g id="patch_46">
    <path d="M 129.129145 63 
L 129.129145 8.64 
" style="fill: none; stroke: #000000; stroke-width: 0.8; stroke-linejoin: miter; stroke-linecap: square"/>
   </g>
   <g id="patch_47">
    <path d="M 113.870855 63 
L 129.129145 63 
" style="fill: none; stroke: #000000; stroke-width: 0.8; stroke-linejoin: miter; stroke-linecap: square"/>
   </g>
   <g id="patch_48">
    <path d="M 113.870855 8.64 
L 129.129145 8.64 
" style="fill: none; stroke: #000000; stroke-width: 0.8; stroke-linejoin: miter; stroke-linecap: square"/>
   </g>
  </g>
  <g id="axes_9">
   <g id="patch_49">
    <path d="M 131.158055 63 
L 144.241945 63 
L 144.241945 8.64 
L 131.158055 8.64 
z
" style="fill: #ffffff"/>
   </g>
   <g id="patch_50">
    <path d="M 134.157228 36.494814 
Q 135.206938 36.457324 135.394386 36.382345 
Q 138.805945 36.382345 140.586703 38.463021 
Q 142.367462 40.543697 142.367462 44.030234 
Q 142.367462 46.954428 137.756234 46.954428 
Q 137.11891 46.954428 136.57531 46.841959 
Q 136.03171 46.72949 135.394386 46.504552 
Q 134.757062 46.279614 134.269697 46.167145 
L 133.032538 44.929986 
M 134.044759 24.685572 
L 134.044759 25.810262 
Q 134.044759 28.659476 134.157228 32.258483 
Q 134.269697 35.85749 134.457145 40.150055 
Q 134.644593 44.442621 134.719572 46.392083 
" clip-path="url(#p6a9445bb5d)" style="fill: none; stroke: #000000; stroke-linejoin: miter"/>
   </g>
   <g id="matplotlib.axis_17">
    <g id="xtick_17">
     <g id="line2d_33">
      <g>
       <use xlink:href="#m60aabb9f91" x="133.819821" y="63" style="stroke: #000000; stroke-width: 0.8"/>
      </g>
     </g>
    </g>
    <g id="xtick_18">
     <g id="line2d_34">
      <g>
       <use xlink:href="#m60aabb9f91" x="141.317752" y="63" style="stroke: #000000; stroke-width: 0.8"/>
      </g>
     </g>
    </g>
   </g>
   <g id="matplotlib.axis_18">
    <g id="ytick_17">
     <g id="line2d_35">
      <g>
       <use xlink:href="#mb74a1c1e3a" x="131.158055" y="49.878621" style="stroke: #000000; stroke-width: 0.8"/>
      </g>
     </g>
    </g>
    <g id="ytick_18">
     <g id="line2d_36">
      <g>
       <use xlink:href="#mb74a1c1e3a" x="131.158055" y="12.388966" style="stroke: #000000; stroke-width: 0.8"/>
      </g>
     </g>
    </g>
   </g>
   <g id="patch_51">
    <path d="M 131.158055 63 
L 131.158055 8.64 
" style="fill: none; stroke: #000000; stroke-width: 0.8; stroke-linejoin: miter; stroke-linecap: square"/>
   </g>
   <g id="patch_52">
    <path d="M 144.241945 63 
L 144.241945 8.64 
" style="fill: none; stroke: #000000; stroke-width: 0.8; stroke-linejoin: miter; stroke-linecap: square"/>
   </g>
   <g id="patch_53">
    <path d="M 131.158055 63 
L 144.241945 63 
" style="fill: none; stroke: #000000; stroke-width: 0.8; stroke-linejoin: miter; stroke-linecap: square"/>
   </g>
   <g id="patch_54">
    <path d="M 131.158055 8.64 
L 144.241945 8.64 
" style="fill: none; stroke: #000000; stroke-width: 0.8; stroke-linejoin: miter; stroke-linecap: square"/>
   </g>
  </g>
  <g id="axes_10">
   <g id="patch_55">
    <path d="M 146.739476 63 
L 161.060524 63 
L 161.060524 8.64 
L 146.739476 8.64 
z
" style="fill: #ffffff"/>
   </g>
   <g id="patch_56">
    <path d="M 148.838897 27.609766 
Q 149.363752 27.872193 149.757393 28.734455 
Q 150.151034 29.596717 150.60091 30.234041 
Q 151.050786 30.871366 151.875559 30.758897 
Q 152.962759 30.983834 153.750041 30.458979 
Q 154.537324 29.934124 154.893476 29.165586 
Q 155.249628 28.397048 155.718248 27.309848 
Q 156.186869 26.222648 156.599255 25.697793 
M 157.1616 35.032717 
L 156.824193 35.032717 
Q 156.299338 35.032717 155.174648 34.751545 
Q 154.049959 34.470372 153.450124 34.470372 
Q 151.538152 34.470372 150.076055 35.613807 
Q 148.613959 36.757241 148.613959 38.519255 
Q 148.613959 40.093821 150.226014 41.555917 
Q 151.838069 43.018014 153.450124 43.018014 
Q 155.324607 43.018014 156.524276 40.449972 
Q 157.723945 37.881931 157.723945 35.595062 
L 157.611476 35.257655 
L 157.611476 35.595062 
L 157.611476 36.719752 
Q 157.611476 37.544524 158.005117 39.306538 
Q 158.398759 41.068552 158.811145 42.455669 
L 159.186041 43.805297 
" clip-path="url(#p07173f5eca)" style="fill: none; stroke: #000000; stroke-linejoin: miter"/>
   </g>
   <g id="matplotlib.axis_19">
    <g id="xtick_19">
     <g id="line2d_37">
      <g>
       <use xlink:href="#m60aabb9f91" x="150.788359" y="63" style="stroke: #000000; stroke-width: 0.8"/>
      </g>
     </g>
    </g>
    <g id="xtick_20">
     <g id="line2d_38">
      <g>
       <use xlink:href="#m60aabb9f91" x="158.28629" y="63" style="stroke: #000000; stroke-width: 0.8"/>
      </g>
     </g>
    </g>
   </g>
   <g id="matplotlib.axis_20">
    <g id="ytick_19">
     <g id="line2d_39">
      <g>
       <use xlink:href="#mb74a1c1e3a" x="146.739476" y="49.878621" style="stroke: #000000; stroke-width: 0.8"/>
      </g>
     </g>
    </g>
    <g id="ytick_20">
     <g id="line2d_40">
      <g>
       <use xlink:href="#mb74a1c1e3a" x="146.739476" y="12.388966" style="stroke: #000000; stroke-width: 0.8"/>
      </g>
     </g>
    </g>
   </g>
   <g id="patch_57">
    <path d="M 146.739476 63 
L 146.739476 8.64 
" style="fill: none; stroke: #000000; stroke-width: 0.8; stroke-linejoin: miter; stroke-linecap: square"/>
   </g>
   <g id="patch_58">
    <path d="M 161.060524 63 
L 161.060524 8.64 
" style="fill: none; stroke: #000000; stroke-width: 0.8; stroke-linejoin: miter; stroke-linecap: square"/>
   </g>
   <g id="patch_59">
    <path d="M 146.739476 63 
L 161.060524 63 
" style="fill: none; stroke: #000000; stroke-width: 0.8; stroke-linejoin: miter; stroke-linecap: square"/>
   </g>
   <g id="patch_60">
    <path d="M 146.739476 8.64 
L 161.060524 8.64 
" style="fill: none; stroke: #000000; stroke-width: 0.8; stroke-linejoin: miter; stroke-linecap: square"/>
   </g>
  </g>
  <g id="axes_11">
   <g id="patch_61">
    <path d="M 163.389352 63 
L 176.810648 63 
L 176.810648 8.64 
L 163.389352 8.64 
z
" style="fill: #ffffff"/>
   </g>
   <g id="patch_62">
    <path d="M 165.263834 32.783338 
L 165.263834 33.345683 
Q 166.126097 39.718924 166.163586 47.066897 
Q 166.163586 47.81669 166.088607 47.029407 
Q 165.638731 42.080772 165.488772 35.82 
L 165.488772 35.145186 
Q 165.488772 33.6456 167.082083 33.008276 
Q 168.675393 32.370952 170.1 32.783338 
Q 171.637076 33.233214 172.611807 34.414138 
Q 173.586538 35.595062 173.961434 37.282097 
Q 174.336331 38.969131 174.467545 40.543697 
Q 174.598759 42.118262 174.673738 44.067724 
Q 174.748717 46.017186 174.936166 47.066897 
" clip-path="url(#p544d7170cf)" style="fill: none; stroke: #000000; stroke-linejoin: miter"/>
   </g>
   <g id="matplotlib.axis_21">
    <g id="xtick_21">
     <g id="line2d_41">
      <g>
       <use xlink:href="#m60aabb9f91" x="168.263007" y="63" style="stroke: #000000; stroke-width: 0.8"/>
      </g>
     </g>
    </g>
    <g id="xtick_22">
     <g id="line2d_42">
      <g>
       <use xlink:href="#m60aabb9f91" x="175.760938" y="63" style="stroke: #000000; stroke-width: 0.8"/>
      </g>
     </g>
    </g>
   </g>
   <g id="matplotlib.axis_22">
    <g id="ytick_21">
     <g id="line2d_43">
      <g>
       <use xlink:href="#mb74a1c1e3a" x="163.389352" y="49.878621" style="stroke: #000000; stroke-width: 0.8"/>
      </g>
     </g>
    </g>
    <g id="ytick_22">
     <g id="line2d_44">
      <g>
       <use xlink:href="#mb74a1c1e3a" x="163.389352" y="12.388966" style="stroke: #000000; stroke-width: 0.8"/>
      </g>
     </g>
    </g>
   </g>
   <g id="patch_63">
    <path d="M 163.389352 63 
L 163.389352 8.64 
" style="fill: none; stroke: #000000; stroke-width: 0.8; stroke-linejoin: miter; stroke-linecap: square"/>
   </g>
   <g id="patch_64">
    <path d="M 176.810648 63 
L 176.810648 8.64 
" style="fill: none; stroke: #000000; stroke-width: 0.8; stroke-linejoin: miter; stroke-linecap: square"/>
   </g>
   <g id="patch_65">
    <path d="M 163.389352 63 
L 176.810648 63 
" style="fill: none; stroke: #000000; stroke-width: 0.8; stroke-linejoin: miter; stroke-linecap: square"/>
   </g>
   <g id="patch_66">
    <path d="M 163.389352 8.64 
L 176.810648 8.64 
" style="fill: none; stroke: #000000; stroke-width: 0.8; stroke-linejoin: miter; stroke-linecap: square"/>
   </g>
  </g>
  <g id="axes_12">
   <g id="patch_67">
    <path d="M 178.802069 63 
L 193.797931 63 
L 193.797931 8.64 
L 178.802069 8.64 
z
" style="fill: #ffffff"/>
   </g>
   <g id="matplotlib.axis_23">
    <g id="xtick_23">
     <g id="line2d_45">
      <g>
       <use xlink:href="#m60aabb9f91" x="178.802069" y="63" style="stroke: #000000; stroke-width: 0.8"/>
      </g>
     </g>
     <g id="text_5">
      <!-- 0 -->
      <g transform="translate(175.620819 77.598438) scale(0.1 -0.1)">
       <use xlink:href="#DejaVuSans-30"/>
      </g>
     </g>
    </g>
    <g id="xtick_24">
     <g id="line2d_46">
      <g>
       <use xlink:href="#m60aabb9f91" x="188.174483" y="63" style="stroke: #000000; stroke-width: 0.8"/>
      </g>
     </g>
     <g id="text_6">
      <!-- 250 -->
      <g transform="translate(178.630733 77.598438) scale(0.1 -0.1)">
       <use xlink:href="#DejaVuSans-32"/>
       <use xlink:href="#DejaVuSans-35" x="63.623047"/>
       <use xlink:href="#DejaVuSans-30" x="127.246094"/>
      </g>
     </g>
    </g>
   </g>
   <g id="matplotlib.axis_24">
    <g id="ytick_23">
     <g id="line2d_47">
      <g>
       <use xlink:href="#mb74a1c1e3a" x="178.802069" y="49.878621" style="stroke: #000000; stroke-width: 0.8"/>
      </g>
     </g>
     <g id="text_7">
      <!-- 0 -->
      <g transform="translate(165.439569 53.677839) scale(0.1 -0.1)">
       <use xlink:href="#DejaVuSans-30"/>
      </g>
     </g>
    </g>
    <g id="ytick_24">
     <g id="line2d_48">
      <g>
       <use xlink:href="#mb74a1c1e3a" x="178.802069" y="12.388966" style="stroke: #000000; stroke-width: 0.8"/>
      </g>
     </g>
     <g id="text_8">
      <!-- 1000 -->
      <g transform="translate(146.352069 16.188184) scale(0.1 -0.1)">
       <use xlink:href="#DejaVuSans-31"/>
       <use xlink:href="#DejaVuSans-30" x="63.623047"/>
       <use xlink:href="#DejaVuSans-30" x="127.246094"/>
       <use xlink:href="#DejaVuSans-30" x="190.869141"/>
      </g>
     </g>
    </g>
   </g>
   <g id="patch_68">
    <path d="M 178.802069 63 
L 178.802069 8.64 
" style="fill: none; stroke: #000000; stroke-width: 0.8; stroke-linejoin: miter; stroke-linecap: square"/>
   </g>
   <g id="patch_69">
    <path d="M 193.797931 63 
L 193.797931 8.64 
" style="fill: none; stroke: #000000; stroke-width: 0.8; stroke-linejoin: miter; stroke-linecap: square"/>
   </g>
   <g id="patch_70">
    <path d="M 178.802069 63 
L 193.797931 63 
" style="fill: none; stroke: #000000; stroke-width: 0.8; stroke-linejoin: miter; stroke-linecap: square"/>
   </g>
   <g id="patch_71">
    <path d="M 178.802069 8.64 
L 193.797931 8.64 
" style="fill: none; stroke: #000000; stroke-width: 0.8; stroke-linejoin: miter; stroke-linecap: square"/>
   </g>
  </g>
  <g id="axes_13">
   <g id="patch_72">
    <path d="M 196.182993 63 
L 208.817007 63 
L 208.817007 8.64 
L 196.182993 8.64 
z
" style="fill: #ffffff"/>
   </g>
   <g id="patch_73">
    <path d="M 198.057476 43.917766 
Q 198.357393 44.180193 199.369614 45.154924 
Q 200.381834 46.129655 200.944179 46.560786 
Q 201.506524 46.991917 202.53749 47.385559 
Q 203.568455 47.7792 204.580676 47.629241 
Q 205.25549 47.629241 205.72411 47.404303 
Q 206.192731 47.179366 206.417669 46.879448 
Q 206.642607 46.579531 206.773821 45.979697 
Q 206.905034 45.379862 206.923779 44.967476 
Q 206.942524 44.55509 206.942524 43.805297 
Q 206.942524 42.718097 206.042772 42.043283 
Q 205.143021 41.368469 203.849628 41.031062 
Q 202.556234 40.693655 201.262841 40.300014 
Q 199.969448 39.906372 199.069697 38.987876 
Q 198.169945 38.069379 198.169945 36.607283 
Q 198.169945 36.082428 198.338648 35.726276 
Q 198.507352 35.370124 198.900993 35.145186 
Q 199.294634 34.920248 199.575807 34.807779 
Q 199.856979 34.69531 200.513048 34.639076 
Q 201.169117 34.582841 201.356566 34.582841 
Q 201.544014 34.582841 202.218828 34.582841 
Q 203.418497 34.582841 203.999586 34.995228 
Q 204.580676 35.407614 204.899338 36.026193 
Q 205.218 36.644772 205.480428 36.832221 
" clip-path="url(#pbd1badb614)" style="fill: none; stroke: #000000; stroke-linejoin: miter"/>
   </g>
   <g id="matplotlib.axis_25">
    <g id="xtick_25">
     <g id="line2d_49">
      <g>
       <use xlink:href="#m60aabb9f91" x="201.056648" y="63" style="stroke: #000000; stroke-width: 0.8"/>
      </g>
     </g>
    </g>
    <g id="xtick_26">
     <g id="line2d_50">
      <g>
       <use xlink:href="#m60aabb9f91" x="208.554579" y="63" style="stroke: #000000; stroke-width: 0.8"/>
      </g>
     </g>
    </g>
   </g>
   <g id="matplotlib.axis_26">
    <g id="ytick_25">
     <g id="line2d_51">
      <g>
       <use xlink:href="#mb74a1c1e3a" x="196.182993" y="49.878621" style="stroke: #000000; stroke-width: 0.8"/>
      </g>
     </g>
    </g>
    <g id="ytick_26">
     <g id="line2d_52">
      <g>
       <use xlink:href="#mb74a1c1e3a" x="196.182993" y="12.388966" style="stroke: #000000; stroke-width: 0.8"/>
      </g>
     </g>
    </g>
   </g>
   <g id="patch_74">
    <path d="M 196.182993 63 
L 196.182993 8.64 
" style="fill: none; stroke: #000000; stroke-width: 0.8; stroke-linejoin: miter; stroke-linecap: square"/>
   </g>
   <g id="patch_75">
    <path d="M 208.817007 63 
L 208.817007 8.64 
" style="fill: none; stroke: #000000; stroke-width: 0.8; stroke-linejoin: miter; stroke-linecap: square"/>
   </g>
   <g id="patch_76">
    <path d="M 196.182993 63 
L 208.817007 63 
" style="fill: none; stroke: #000000; stroke-width: 0.8; stroke-linejoin: miter; stroke-linecap: square"/>
   </g>
   <g id="patch_77">
    <path d="M 196.182993 8.64 
L 208.817007 8.64 
" style="fill: none; stroke: #000000; stroke-width: 0.8; stroke-linejoin: miter; stroke-linecap: square"/>
   </g>
  </g>
  <g id="axes_14">
   <g id="patch_78">
    <path d="M 213.338979 63 
L 224.061021 63 
L 224.061021 8.64 
L 213.338979 8.64 
z
" style="fill: #ffffff"/>
   </g>
   <g id="patch_79">
    <path d="M 215.213462 35.932469 
Q 215.813297 35.257655 216.806772 34.826524 
Q 217.800248 34.395393 218.7 34.470372 
Q 219.337324 34.470372 219.82469 34.639076 
Q 220.312055 34.807779 220.630717 34.995228 
Q 220.949379 35.182676 221.174317 35.670041 
Q 221.399255 36.157407 221.511724 36.419834 
Q 221.624193 36.682262 221.680428 37.375821 
Q 221.736662 38.069379 221.755407 38.331807 
Q 221.774152 38.594234 221.755407 39.419007 
Q 221.736662 40.243779 221.736662 40.431228 
Q 221.736662 41.368469 221.567959 43.242952 
Q 221.399255 45.117434 221.399255 46.054676 
Q 221.399255 46.467062 221.45549 46.823214 
Q 221.511724 47.179366 221.605448 47.610497 
Q 221.699172 48.041628 221.736662 48.304055 
L 222.186538 48.528993 
M 215.663338 23.111007 
Q 215.888276 24.798041 215.888276 29.971614 
L 215.888276 42.3432 
L 215.550869 46.841959 
L 215.325931 47.74171 
" clip-path="url(#pfd8917ecdb)" style="fill: none; stroke: #000000; stroke-linejoin: miter"/>
   </g>
   <g id="matplotlib.axis_27">
    <g id="xtick_27">
     <g id="line2d_53">
      <g>
       <use xlink:href="#m60aabb9f91" x="216.300662" y="63" style="stroke: #000000; stroke-width: 0.8"/>
      </g>
     </g>
    </g>
    <g id="xtick_28">
     <g id="line2d_54">
      <g>
       <use xlink:href="#m60aabb9f91" x="223.798593" y="63" style="stroke: #000000; stroke-width: 0.8"/>
      </g>
     </g>
    </g>
   </g>
   <g id="matplotlib.axis_28">
    <g id="ytick_27">
     <g id="line2d_55">
      <g>
       <use xlink:href="#mb74a1c1e3a" x="213.338979" y="49.878621" style="stroke: #000000; stroke-width: 0.8"/>
      </g>
     </g>
    </g>
    <g id="ytick_28">
     <g id="line2d_56">
      <g>
       <use xlink:href="#mb74a1c1e3a" x="213.338979" y="12.388966" style="stroke: #000000; stroke-width: 0.8"/>
      </g>
     </g>
    </g>
   </g>
   <g id="patch_80">
    <path d="M 213.338979 63 
L 213.338979 8.64 
" style="fill: none; stroke: #000000; stroke-width: 0.8; stroke-linejoin: miter; stroke-linecap: square"/>
   </g>
   <g id="patch_81">
    <path d="M 224.061021 63 
L 224.061021 8.64 
" style="fill: none; stroke: #000000; stroke-width: 0.8; stroke-linejoin: miter; stroke-linecap: square"/>
   </g>
   <g id="patch_82">
    <path d="M 213.338979 63 
L 224.061021 63 
" style="fill: none; stroke: #000000; stroke-width: 0.8; stroke-linejoin: miter; stroke-linecap: square"/>
   </g>
   <g id="patch_83">
    <path d="M 213.338979 8.64 
L 224.061021 8.64 
" style="fill: none; stroke: #000000; stroke-width: 0.8; stroke-linejoin: miter; stroke-linecap: square"/>
   </g>
  </g>
  <g id="axes_15">
   <g id="patch_84">
    <path d="M 229.595214 63 
L 240.204786 63 
L 240.204786 8.64 
L 229.595214 8.64 
z
" style="fill: #ffffff"/>
   </g>
   <g id="patch_85">
    <path d="M 231.469697 27.047421 
Q 232.331959 27.647255 233.156731 28.547007 
Q 233.981503 29.446759 234.93749 30.646428 
Q 235.893476 31.846097 236.418331 32.445931 
M 231.807103 39.0816 
L 232.032041 39.0816 
Q 232.294469 39.04411 232.819324 39.137834 
Q 233.344179 39.231559 233.606607 39.194069 
Q 234.206441 39.11909 234.787531 39.156579 
Q 235.368621 39.194069 235.930966 39.11909 
Q 236.49331 39.04411 236.924441 38.819172 
Q 237.355572 38.594234 237.618 38.013145 
Q 237.880428 37.432055 237.880428 36.494814 
Q 237.767959 35.257655 236.849462 34.69531 
Q 235.930966 34.132966 234.731297 34.245434 
Q 233.381669 34.357903 232.481917 35.370124 
Q 231.582166 36.382345 231.582166 37.731972 
Q 231.582166 46.204634 238.330303 44.142703 
" clip-path="url(#p79218d875c)" style="fill: none; stroke: #000000; stroke-linejoin: miter"/>
   </g>
   <g id="matplotlib.axis_29">
    <g id="xtick_29">
     <g id="line2d_57">
      <g>
       <use xlink:href="#m60aabb9f91" x="232.631876" y="63" style="stroke: #000000; stroke-width: 0.8"/>
      </g>
     </g>
    </g>
    <g id="xtick_30">
     <g id="line2d_58">
      <g>
       <use xlink:href="#m60aabb9f91" x="240.129807" y="63" style="stroke: #000000; stroke-width: 0.8"/>
      </g>
     </g>
    </g>
   </g>
   <g id="matplotlib.axis_30">
    <g id="ytick_29">
     <g id="line2d_59">
      <g>
       <use xlink:href="#mb74a1c1e3a" x="229.595214" y="49.878621" style="stroke: #000000; stroke-width: 0.8"/>
      </g>
     </g>
    </g>
    <g id="ytick_30">
     <g id="line2d_60">
      <g>
       <use xlink:href="#mb74a1c1e3a" x="229.595214" y="12.388966" style="stroke: #000000; stroke-width: 0.8"/>
      </g>
     </g>
    </g>
   </g>
   <g id="patch_86">
    <path d="M 229.595214 63 
L 229.595214 8.64 
" style="fill: none; stroke: #000000; stroke-width: 0.8; stroke-linejoin: miter; stroke-linecap: square"/>
   </g>
   <g id="patch_87">
    <path d="M 240.204786 63 
L 240.204786 8.64 
" style="fill: none; stroke: #000000; stroke-width: 0.8; stroke-linejoin: miter; stroke-linecap: square"/>
   </g>
   <g id="patch_88">
    <path d="M 229.595214 63 
L 240.204786 63 
" style="fill: none; stroke: #000000; stroke-width: 0.8; stroke-linejoin: miter; stroke-linecap: square"/>
   </g>
   <g id="patch_89">
    <path d="M 229.595214 8.64 
L 240.204786 8.64 
" style="fill: none; stroke: #000000; stroke-width: 0.8; stroke-linejoin: miter; stroke-linecap: square"/>
   </g>
  </g>
 </g>
 <defs>
  <clipPath id="p3f4134235c">
   <rect x="0" y="17.028" width="16.2" height="37.584"/>
  </clipPath>
  <clipPath id="p8499e6da01">
   <rect x="17.589352" y="8.64" width="13.421297" height="54.36"/>
  </clipPath>
  <clipPath id="p087fa10e5b">
   <rect x="32.4" y="9.066014" width="16.2" height="53.507973"/>
  </clipPath>
  <clipPath id="p952bc85dbc">
   <rect x="49.989352" y="8.64" width="13.421297" height="54.36"/>
  </clipPath>
  <clipPath id="pb76180516d">
   <rect x="81" y="11.850612" width="16.2" height="47.938776"/>
  </clipPath>
  <clipPath id="p8bb790ec4f">
   <rect x="99.938979" y="8.64" width="10.722041" height="54.36"/>
  </clipPath>
  <clipPath id="p9019291c51">
   <rect x="113.870855" y="8.64" width="15.25829" height="54.36"/>
  </clipPath>
  <clipPath id="p6a9445bb5d">
   <rect x="131.158055" y="8.64" width="13.08389" height="54.36"/>
  </clipPath>
  <clipPath id="p07173f5eca">
   <rect x="146.739476" y="8.64" width="14.321048" height="54.36"/>
  </clipPath>
  <clipPath id="p544d7170cf">
   <rect x="163.389352" y="8.64" width="13.421297" height="54.36"/>
  </clipPath>
  <clipPath id="pbd1badb614">
   <rect x="196.182993" y="8.64" width="12.634014" height="54.36"/>
  </clipPath>
  <clipPath id="pfd8917ecdb">
   <rect x="213.338979" y="8.64" width="10.722041" height="54.36"/>
  </clipPath>
  <clipPath id="p79218d875c">
   <rect x="229.595214" y="8.64" width="10.609572" height="54.36"/>
  </clipPath>
 </defs>
</svg>
