<?xml version="1.0" encoding="utf-8" standalone="no"?>
<!DOCTYPE svg PUBLIC "-//W3C//DTD SVG 1.1//EN"
  "http://www.w3.org/Graphics/SVG/1.1/DTD/svg11.dtd">
<svg xmlns:xlink="http://www.w3.org/1999/xlink" width="180pt" height="72pt" viewBox="0 0 180 72" xmlns="http://www.w3.org/2000/svg" version="1.1">
 <metadata>
  <rdf:RDF xmlns:dc="http://purl.org/dc/elements/1.1/" xmlns:cc="http://creativecommons.org/ns#" xmlns:rdf="http://www.w3.org/1999/02/22-rdf-syntax-ns#">
   <cc:Work>
    <dc:type rdf:resource="http://purl.org/dc/dcmitype/StillImage"/>
    <dc:date>2023-01-08T16:42:25.459383</dc:date>
    <dc:format>image/svg+xml</dc:format>
    <dc:creator>
     <cc:Agent>
      <dc:title>Matplotlib v3.6.1, https://matplotlib.org/</dc:title>
     </cc:Agent>
    </dc:creator>
   </cc:Work>
  </rdf:RDF>
 </metadata>
 <defs>
  <style type="text/css">*{stroke-linejoin: round; stroke-linecap: butt}</style>
 </defs>
 <g id="figure_1">
  <g id="patch_1">
   <path d="M 0 72 
L 180 72 
L 180 0 
L 0 0 
z
" style="fill: #8fff9f"/>
  </g>
  <g id="axes_1">
   <g id="patch_2">
    <path d="M 1.464738 43.465931 
Q 1.464738 43.465931 5.155877 43.465931 
Q 5.185172 43.465931 14.735262 43.729584 
M 2.783002 36.259421 
L 3.57396 36.259421 
Q 3.603255 36.259421 5.771067 36.171537 
L 10.516817 35.380579 
M 3.398192 27.646763 
Q 4.599277 27.207342 7.016094 27.192694 
Q 9.432911 27.178047 10.516817 26.855805 
L 14.295841 26.76792 
M 2.783002 27.822532 
L 2.783002 27.9983 
Q 2.783002 28.61349 2.929476 29.580217 
Q 3.075949 30.546944 3.29566 31.674792 
Q 3.515371 32.80264 3.57396 33.183472 
L 3.661844 43.905353 
" clip-path="url(#paa95c2425e)" style="fill: none; stroke: #000000; stroke-linejoin: miter"/>
   </g>
  </g>
  <g id="axes_2">
   <g id="patch_3">
    <path d="M 27.899007 34.920248 
Q 27.036745 36.007448 23.925103 40.018841 
Q 20.813462 44.030234 19.126428 46.054676 
M 20.026179 36.044938 
Q 21.900662 37.319586 24.393724 40.843614 
Q 26.886786 44.367641 28.461352 45.6048 
L 29.473572 45.942207 
" clip-path="url(#p7f620ff04b)" style="fill: none; stroke: #000000; stroke-linejoin: miter"/>
   </g>
  </g>
  <g id="axes_3">
   <g id="patch_4">
    <path d="M 45.756735 34.365306 
Q 45.756735 34.365306 45.260816 34.365306 
Q 44.467347 34.365306 42.979592 34.067755 
Q 41.491837 33.770204 40.698367 33.770204 
Q 37.921224 33.770204 35.987143 35.224898 
Q 34.053061 36.679592 34.053061 39.423673 
Q 34.053061 40.94449 35.540816 42.399184 
Q 37.028571 43.853878 38.962653 44.663878 
Q 40.896735 45.473878 42.38449 45.473878 
Q 43.310204 45.473878 44.00449 45.110204 
Q 44.698776 44.746531 45.442653 44.118367 
Q 46.186531 43.490204 46.748571 43.192653 
L 46.946939 42.696735 
" clip-path="url(#pfc528e21f2)" style="fill: none; stroke: #000000; stroke-linejoin: miter"/>
   </g>
  </g>
  <g id="axes_4">
   <g id="patch_5">
    <path d="M 52.088772 35.145186 
Q 52.088772 35.145186 52.088772 35.595062 
Q 52.088772 36.269876 51.976303 37.619503 
Q 51.863834 38.969131 51.863834 39.643945 
Q 51.863834 41.930814 53.100993 43.599103 
Q 54.338152 45.267393 56.475062 45.267393 
Q 57.862179 45.154924 58.630717 43.917766 
Q 59.399255 42.680607 59.549214 41.237255 
Q 59.699172 39.793903 59.9616 37.9944 
Q 60.224028 36.194897 60.636414 35.370124 
Q 60.786372 35.070207 60.786372 35.670041 
Q 60.786372 36.269876 60.523945 38.706703 
Q 60.299007 41.031062 60.299007 41.555917 
Q 60.149048 42.643117 60.486455 43.767807 
Q 60.823862 44.892497 61.536166 45.6048 
" clip-path="url(#pf3ec5bf84b)" style="fill: none; stroke: #000000; stroke-linejoin: miter"/>
   </g>
  </g>
  <g id="axes_5">
   <g id="patch_6">
    <path d="M 68.457476 43.917766 
Q 68.757393 44.180193 69.769614 45.154924 
Q 70.781834 46.129655 71.344179 46.560786 
Q 71.906524 46.991917 72.93749 47.385559 
Q 73.968455 47.7792 74.980676 47.629241 
Q 75.65549 47.629241 76.12411 47.404303 
Q 76.592731 47.179366 76.817669 46.879448 
Q 77.042607 46.579531 77.173821 45.979697 
Q 77.305034 45.379862 77.323779 44.967476 
Q 77.342524 44.55509 77.342524 43.805297 
Q 77.342524 42.718097 76.442772 42.043283 
Q 75.543021 41.368469 74.249628 41.031062 
Q 72.956234 40.693655 71.662841 40.300014 
Q 70.369448 39.906372 69.469697 38.987876 
Q 68.569945 38.069379 68.569945 36.607283 
Q 68.569945 36.082428 68.738648 35.726276 
Q 68.907352 35.370124 69.300993 35.145186 
Q 69.694634 34.920248 69.975807 34.807779 
Q 70.256979 34.69531 70.913048 34.639076 
Q 71.569117 34.582841 71.756566 34.582841 
Q 71.944014 34.582841 72.618828 34.582841 
Q 73.818497 34.582841 74.399586 34.995228 
Q 74.980676 35.407614 75.299338 36.026193 
Q 75.618 36.644772 75.880428 36.832221 
" clip-path="url(#p542fe5a3b3)" style="fill: none; stroke: #000000; stroke-linejoin: miter"/>
   </g>
  </g>
  <g id="axes_6">
   <g id="patch_7">
    <path d="M 82.857798 38.160826 
Q 85.830275 39.535596 90.549083 39.721376 
Q 92.072477 39.721376 92.759862 38.550963 
Q 93.447248 37.38055 93.447248 35.82 
Q 93.447248 35.299817 93.354358 34.909679 
Q 93.261468 34.519541 93.019954 34.296606 
Q 92.77844 34.07367 92.611239 33.943624 
Q 92.444037 33.813578 91.998165 33.757844 
Q 91.552294 33.70211 91.347936 33.683532 
Q 91.143578 33.664954 90.567661 33.683532 
Q 89.991743 33.70211 89.768807 33.70211 
Q 87.725229 33.70211 86.238991 35.578486 
Q 84.752752 37.454862 84.752752 39.609908 
Q 84.752752 42.619541 86.684862 44.570229 
Q 88.616972 46.520917 91.663761 46.520917 
Q 93.818807 46.818165 95.342202 44.29156 
" clip-path="url(#p24193b02d2)" style="fill: none; stroke: #000000; stroke-linejoin: miter"/>
   </g>
  </g>
  <g id="axes_7"/>
  <g id="axes_8">
   <g id="patch_8">
    <path d="M 115.208036 34.879821 
Q 115.714286 36.109286 115.967411 42.256607 
Q 116.148214 46.632054 116.4375 46.632054 
L 116.509821 46.595893 
Q 117.016071 46.017321 117.070312 44.588973 
Q 117.124554 43.160625 116.907589 41.750357 
Q 116.690625 40.340089 116.4375 38.712857 
Q 116.184375 37.085625 116.184375 36.398571 
Q 116.184375 35.169107 116.564062 33.939643 
Q 116.94375 32.710179 117.920089 32.710179 
Q 119.149554 32.710179 119.872768 34.355491 
Q 120.595982 36.000804 120.758705 37.971563 
Q 120.921429 39.942321 121.029911 41.587634 
Q 121.138393 43.232946 121.283036 43.232946 
Q 121.427679 43.232946 121.51808 41.497232 
Q 121.608482 39.761518 121.735045 37.700357 
Q 121.861607 35.639196 122.584821 33.903482 
Q 123.308036 32.167768 124.5375 32.167768 
Q 126.092411 33.035625 126.761384 34.771339 
Q 127.430357 36.507054 127.394196 38.188527 
Q 127.358036 39.87 127.376116 42.057723 
Q 127.394196 44.245446 127.791964 45.511071 
" clip-path="url(#p36cfc4880d)" style="fill: none; stroke: #000000; stroke-linejoin: miter"/>
   </g>
  </g>
  <g id="axes_9">
   <g id="patch_9">
    <path d="M 131.457798 38.160826 
Q 134.430275 39.535596 139.149083 39.721376 
Q 140.672477 39.721376 141.359862 38.550963 
Q 142.047248 37.38055 142.047248 35.82 
Q 142.047248 35.299817 141.954358 34.909679 
Q 141.861468 34.519541 141.619954 34.296606 
Q 141.37844 34.07367 141.211239 33.943624 
Q 141.044037 33.813578 140.598165 33.757844 
Q 140.152294 33.70211 139.947936 33.683532 
Q 139.743578 33.664954 139.167661 33.683532 
Q 138.591743 33.70211 138.368807 33.70211 
Q 136.325229 33.70211 134.838991 35.578486 
Q 133.352752 37.454862 133.352752 39.609908 
Q 133.352752 42.619541 135.284862 44.570229 
Q 137.216972 46.520917 140.263761 46.520917 
Q 142.418807 46.818165 143.942202 44.29156 
" clip-path="url(#p571e9edac6)" style="fill: none; stroke: #000000; stroke-linejoin: miter"/>
   </g>
  </g>
  <g id="axes_10">
   <g id="patch_10">
    <path d="M 153.337655 40.656166 
Q 153.450124 40.806124 153.806276 41.031062 
Q 154.162428 41.256 154.312386 41.499683 
Q 154.462345 41.743366 154.349876 42.118262 
Q 154.387366 42.3432 154.368621 42.624372 
Q 154.349876 42.905545 154.312386 43.149228 
Q 154.274897 43.39291 154.087448 43.542869 
Q 153.9 43.692828 153.562593 43.692828 
" clip-path="url(#pf9f8f54c3b)" style="fill: none; stroke: #000000; stroke-linejoin: miter"/>
   </g>
  </g>
 </g>
 <defs>
  <clipPath id="paa95c2425e">
   <rect x="0" y="14.581302" width="16.2" height="42.477396"/>
  </clipPath>
  <clipPath id="p7f620ff04b">
   <rect x="17.251945" y="8.64" width="14.09611" height="54.36"/>
  </clipPath>
  <clipPath id="pfc528e21f2">
   <rect x="32.4" y="11.850612" width="16.2" height="47.938776"/>
  </clipPath>
  <clipPath id="pf3ec5bf84b">
   <rect x="49.989352" y="8.64" width="13.421297" height="54.36"/>
  </clipPath>
  <clipPath id="p542fe5a3b3">
   <rect x="66.582993" y="8.64" width="12.634014" height="54.36"/>
  </clipPath>
  <clipPath id="p24193b02d2">
   <rect x="81" y="8.881927" width="16.2" height="53.876147"/>
  </clipPath>
  <clipPath id="p36cfc4880d">
   <rect x="113.4" y="9.603482" width="16.2" height="52.433036"/>
  </clipPath>
  <clipPath id="p571e9edac6">
   <rect x="129.6" y="8.881927" width="16.2" height="53.876147"/>
  </clipPath>
  <clipPath id="pf9f8f54c3b">
   <rect x="151.463172" y="8.64" width="4.873655" height="54.36"/>
  </clipPath>
 </defs>
</svg>
