<?xml version="1.0" encoding="utf-8" standalone="no"?>
<!DOCTYPE svg PUBLIC "-//W3C//DTD SVG 1.1//EN"
  "http://www.w3.org/Graphics/SVG/1.1/DTD/svg11.dtd">
<svg xmlns:xlink="http://www.w3.org/1999/xlink" width="360pt" height="72pt" viewBox="0 0 360 72" xmlns="http://www.w3.org/2000/svg" version="1.1">
 <metadata>
  <rdf:RDF xmlns:dc="http://purl.org/dc/elements/1.1/" xmlns:cc="http://creativecommons.org/ns#" xmlns:rdf="http://www.w3.org/1999/02/22-rdf-syntax-ns#">
   <cc:Work>
    <dc:type rdf:resource="http://purl.org/dc/dcmitype/StillImage"/>
    <dc:date>2023-01-08T16:42:29.429119</dc:date>
    <dc:format>image/svg+xml</dc:format>
    <dc:creator>
     <cc:Agent>
      <dc:title>Matplotlib v3.6.1, https://matplotlib.org/</dc:title>
     </cc:Agent>
    </dc:creator>
   </cc:Work>
  </rdf:RDF>
 </metadata>
 <defs>
  <style type="text/css">*{stroke-linejoin: round; stroke-linecap: butt}</style>
 </defs>
 <g id="figure_1">
  <g id="patch_1">
   <path d="M 0 72 
L 360 72 
L 360 0 
L 0 0 
z
" style="fill: #8fff9f"/>
  </g>
  <g id="axes_1">
   <g id="patch_2">
    <path d="M 1.716102 36.437797 
L 2.951695 44.778051 
Q 3.054661 45.567458 3.054661 45.60178 
Q 3.054661 45.704746 3.363559 45.704746 
Q 4.22161 45.704746 4.942373 44.778051 
Q 5.663136 43.851356 6.075 42.718729 
Q 6.486864 41.586102 7.001695 40.659407 
Q 7.516525 39.732712 7.997034 39.732712 
Q 8.614831 39.732712 9.249788 40.607924 
Q 9.884746 41.483136 10.348093 42.512797 
Q 10.811441 43.542458 11.48072 44.417669 
Q 12.15 45.292881 12.836441 45.292881 
Q 13.111017 43.782712 13.540042 39.69839 
Q 13.969068 35.614068 14.483898 33.554746 
" clip-path="url(#pf27f9bb596)" style="fill: none; stroke: #000000; stroke-linejoin: miter"/>
   </g>
  </g>
  <g id="axes_2">
   <g id="patch_3">
    <path d="M 20.813462 35.932469 
Q 21.413297 35.257655 22.406772 34.826524 
Q 23.400248 34.395393 24.3 34.470372 
Q 24.937324 34.470372 25.42469 34.639076 
Q 25.912055 34.807779 26.230717 34.995228 
Q 26.549379 35.182676 26.774317 35.670041 
Q 26.999255 36.157407 27.111724 36.419834 
Q 27.224193 36.682262 27.280428 37.375821 
Q 27.336662 38.069379 27.355407 38.331807 
Q 27.374152 38.594234 27.355407 39.419007 
Q 27.336662 40.243779 27.336662 40.431228 
Q 27.336662 41.368469 27.167959 43.242952 
Q 26.999255 45.117434 26.999255 46.054676 
Q 26.999255 46.467062 27.05549 46.823214 
Q 27.111724 47.179366 27.205448 47.610497 
Q 27.299172 48.041628 27.336662 48.304055 
L 27.786538 48.528993 
M 21.263338 23.111007 
Q 21.488276 24.798041 21.488276 29.971614 
L 21.488276 42.3432 
L 21.150869 46.841959 
L 20.925931 47.74171 
" clip-path="url(#pb7bb1e4fca)" style="fill: none; stroke: #000000; stroke-linejoin: miter"/>
   </g>
  </g>
  <g id="axes_3">
   <g id="patch_4">
    <path d="M 41.118579 29.071862 
Q 40.743683 29.146841 40.612469 29.577972 
Q 40.481255 30.009103 40.556234 30.42149 
Q 40.556234 30.571448 40.593724 30.702662 
Q 40.631214 30.833876 40.687448 30.89011 
Q 40.743683 30.946345 40.799917 31.040069 
Q 40.856152 31.133793 40.893641 31.208772 
L 41.00611 29.859145 
M 41.00611 34.020497 
Q 40.106359 39.006621 39.881421 42.793076 
L 40.331297 45.379862 
L 40.668703 46.054676 
" clip-path="url(#p780d5abeb6)" style="fill: none; stroke: #000000; stroke-linejoin: miter"/>
   </g>
  </g>
  <g id="axes_4">
   <g id="patch_5">
    <path d="M 61.956735 34.365306 
Q 61.956735 34.365306 61.460816 34.365306 
Q 60.667347 34.365306 59.179592 34.067755 
Q 57.691837 33.770204 56.898367 33.770204 
Q 54.121224 33.770204 52.187143 35.224898 
Q 50.253061 36.679592 50.253061 39.423673 
Q 50.253061 40.94449 51.740816 42.399184 
Q 53.228571 43.853878 55.162653 44.663878 
Q 57.096735 45.473878 58.58449 45.473878 
Q 59.510204 45.473878 60.20449 45.110204 
Q 60.898776 44.746531 61.642653 44.118367 
Q 62.386531 43.490204 62.948571 43.192653 
L 63.146939 42.696735 
" clip-path="url(#p1f3186d267)" style="fill: none; stroke: #000000; stroke-linejoin: miter"/>
   </g>
  </g>
  <g id="axes_5">
   <g id="patch_6">
    <path d="M 69.413462 35.932469 
Q 70.013297 35.257655 71.006772 34.826524 
Q 72.000248 34.395393 72.9 34.470372 
Q 73.537324 34.470372 74.02469 34.639076 
Q 74.512055 34.807779 74.830717 34.995228 
Q 75.149379 35.182676 75.374317 35.670041 
Q 75.599255 36.157407 75.711724 36.419834 
Q 75.824193 36.682262 75.880428 37.375821 
Q 75.936662 38.069379 75.955407 38.331807 
Q 75.974152 38.594234 75.955407 39.419007 
Q 75.936662 40.243779 75.936662 40.431228 
Q 75.936662 41.368469 75.767959 43.242952 
Q 75.599255 45.117434 75.599255 46.054676 
Q 75.599255 46.467062 75.65549 46.823214 
Q 75.711724 47.179366 75.805448 47.610497 
Q 75.899172 48.041628 75.936662 48.304055 
L 76.386538 48.528993 
M 69.863338 23.111007 
Q 70.088276 24.798041 70.088276 29.971614 
L 70.088276 42.3432 
L 69.750869 46.841959 
L 69.525931 47.74171 
" clip-path="url(#p9b3ed69d46)" style="fill: none; stroke: #000000; stroke-linejoin: miter"/>
   </g>
  </g>
  <g id="axes_6"/>
  <g id="axes_7">
   <g id="patch_7">
    <path d="M 100.463834 37.95691 
L 101.138648 37.95691 
Q 101.850952 37.95691 102.638234 37.881931 
Q 103.425517 37.806952 104.381503 37.675738 
Q 105.33749 37.544524 105.862345 37.507034 
L 110.136166 35.82 
M 106.087283 30.42149 
L 106.087283 31.43371 
Q 106.087283 33.383172 105.412469 37.207117 
Q 104.737655 41.031062 104.737655 43.018014 
Q 104.737655 43.805297 104.737655 44.105214 
Q 104.737655 44.405131 104.831379 45.042455 
Q 104.925103 45.679779 105.112552 45.960952 
Q 105.3 46.242124 105.693641 46.485807 
Q 106.087283 46.72949 106.649628 46.72949 
Q 106.762097 46.692 107.080759 46.72949 
Q 107.399421 46.766979 107.586869 46.710745 
Q 107.774317 46.65451 107.774317 46.392083 
" clip-path="url(#p750d98d9c7)" style="fill: none; stroke: #000000; stroke-linejoin: miter"/>
   </g>
  </g>
  <g id="axes_8">
   <g id="patch_8">
    <path d="M 118.013462 32.783338 
Q 118.538317 34.507862 118.669531 36.457324 
Q 118.800745 38.406786 118.725766 40.956083 
Q 118.650786 43.505379 118.688276 44.705048 
L 118.800745 46.054676 
L 118.800745 45.829738 
Q 118.800745 44.667559 118.519572 42.30571 
Q 118.2384 39.943862 118.2384 38.744193 
Q 118.2384 36.419834 119.250621 34.882759 
Q 120.262841 33.345683 122.287283 33.345683 
Q 122.999586 33.345683 123.336993 33.626855 
Q 123.6744 33.908028 123.936828 34.432883 
Q 124.199255 34.957738 124.536662 35.257655 
L 124.986538 36.832221 
" clip-path="url(#p0212091542)" style="fill: none; stroke: #000000; stroke-linejoin: miter"/>
   </g>
  </g>
  <g id="axes_9">
   <g id="patch_9">
    <path d="M 141.696408 36.371229 
Q 140.624575 35.1769 137.102836 35.1769 
Q 135.755388 35.1769 135.066352 35.222836 
Q 134.377316 35.268771 133.489225 35.483138 
Q 132.601134 35.697505 132.172401 36.14155 
Q 131.743667 36.585595 131.437429 37.412439 
Q 131.131191 38.239282 131.131191 39.494858 
Q 131.131191 41.332287 132.386767 42.434745 
Q 133.642344 43.537202 135.357278 43.537202 
Q 137.715312 43.537202 140.165217 38.392401 
Q 141.359546 35.850624 141.359546 35.82 
Q 141.665784 35.605633 141.696408 36.371229 
Q 141.696408 37.320567 142.063894 39.847032 
Q 142.43138 42.373497 142.43138 43.537202 
M 144.268809 44.731531 
" clip-path="url(#pb33e5a795e)" style="fill: none; stroke: #000000; stroke-linejoin: miter"/>
   </g>
  </g>
  <g id="axes_10">
   <g id="patch_10">
    <path d="M 154.518579 29.071862 
Q 154.143683 29.146841 154.012469 29.577972 
Q 153.881255 30.009103 153.956234 30.42149 
Q 153.956234 30.571448 153.993724 30.702662 
Q 154.031214 30.833876 154.087448 30.89011 
Q 154.143683 30.946345 154.199917 31.040069 
Q 154.256152 31.133793 154.293641 31.208772 
L 154.40611 29.859145 
M 154.40611 34.020497 
Q 153.506359 39.006621 153.281421 42.793076 
L 153.731297 45.379862 
L 154.068703 46.054676 
" clip-path="url(#p67032b8217)" style="fill: none; stroke: #000000; stroke-linejoin: miter"/>
   </g>
  </g>
  <g id="axes_11">
   <g id="patch_11">
    <path d="M 165.263834 32.783338 
L 165.263834 33.345683 
Q 166.126097 39.718924 166.163586 47.066897 
Q 166.163586 47.81669 166.088607 47.029407 
Q 165.638731 42.080772 165.488772 35.82 
L 165.488772 35.145186 
Q 165.488772 33.6456 167.082083 33.008276 
Q 168.675393 32.370952 170.1 32.783338 
Q 171.637076 33.233214 172.611807 34.414138 
Q 173.586538 35.595062 173.961434 37.282097 
Q 174.336331 38.969131 174.467545 40.543697 
Q 174.598759 42.118262 174.673738 44.067724 
Q 174.748717 46.017186 174.936166 47.066897 
" clip-path="url(#pdb41fa28cd)" style="fill: none; stroke: #000000; stroke-linejoin: miter"/>
   </g>
  </g>
  <g id="axes_12"/>
  <g id="axes_13">
   <g id="patch_12">
    <path d="M 197.663834 37.95691 
L 198.338648 37.95691 
Q 199.050952 37.95691 199.838234 37.881931 
Q 200.625517 37.806952 201.581503 37.675738 
Q 202.53749 37.544524 203.062345 37.507034 
L 207.336166 35.82 
M 203.287283 30.42149 
L 203.287283 31.43371 
Q 203.287283 33.383172 202.612469 37.207117 
Q 201.937655 41.031062 201.937655 43.018014 
Q 201.937655 43.805297 201.937655 44.105214 
Q 201.937655 44.405131 202.031379 45.042455 
Q 202.125103 45.679779 202.312552 45.960952 
Q 202.5 46.242124 202.893641 46.485807 
Q 203.287283 46.72949 203.849628 46.72949 
Q 203.962097 46.692 204.280759 46.72949 
Q 204.599421 46.766979 204.786869 46.710745 
Q 204.974317 46.65451 204.974317 46.392083 
" clip-path="url(#p87a6b3155b)" style="fill: none; stroke: #000000; stroke-linejoin: miter"/>
   </g>
  </g>
  <g id="axes_14">
   <g id="patch_13">
    <path d="M 215.213462 35.932469 
Q 215.813297 35.257655 216.806772 34.826524 
Q 217.800248 34.395393 218.7 34.470372 
Q 219.337324 34.470372 219.82469 34.639076 
Q 220.312055 34.807779 220.630717 34.995228 
Q 220.949379 35.182676 221.174317 35.670041 
Q 221.399255 36.157407 221.511724 36.419834 
Q 221.624193 36.682262 221.680428 37.375821 
Q 221.736662 38.069379 221.755407 38.331807 
Q 221.774152 38.594234 221.755407 39.419007 
Q 221.736662 40.243779 221.736662 40.431228 
Q 221.736662 41.368469 221.567959 43.242952 
Q 221.399255 45.117434 221.399255 46.054676 
Q 221.399255 46.467062 221.45549 46.823214 
Q 221.511724 47.179366 221.605448 47.610497 
Q 221.699172 48.041628 221.736662 48.304055 
L 222.186538 48.528993 
M 215.663338 23.111007 
Q 215.888276 24.798041 215.888276 29.971614 
L 215.888276 42.3432 
L 215.550869 46.841959 
L 215.325931 47.74171 
" clip-path="url(#pc2d12f5e73)" style="fill: none; stroke: #000000; stroke-linejoin: miter"/>
   </g>
  </g>
  <g id="axes_15">
   <g id="patch_14">
    <path d="M 235.518579 29.071862 
Q 235.143683 29.146841 235.012469 29.577972 
Q 234.881255 30.009103 234.956234 30.42149 
Q 234.956234 30.571448 234.993724 30.702662 
Q 235.031214 30.833876 235.087448 30.89011 
Q 235.143683 30.946345 235.199917 31.040069 
Q 235.256152 31.133793 235.293641 31.208772 
L 235.40611 29.859145 
M 235.40611 34.020497 
Q 234.506359 39.006621 234.281421 42.793076 
L 234.731297 45.379862 
L 235.068703 46.054676 
" clip-path="url(#pe4f771d907)" style="fill: none; stroke: #000000; stroke-linejoin: miter"/>
   </g>
  </g>
  <g id="axes_16">
   <g id="patch_15">
    <path d="M 246.657476 43.917766 
Q 246.957393 44.180193 247.969614 45.154924 
Q 248.981834 46.129655 249.544179 46.560786 
Q 250.106524 46.991917 251.13749 47.385559 
Q 252.168455 47.7792 253.180676 47.629241 
Q 253.85549 47.629241 254.32411 47.404303 
Q 254.792731 47.179366 255.017669 46.879448 
Q 255.242607 46.579531 255.373821 45.979697 
Q 255.505034 45.379862 255.523779 44.967476 
Q 255.542524 44.55509 255.542524 43.805297 
Q 255.542524 42.718097 254.642772 42.043283 
Q 253.743021 41.368469 252.449628 41.031062 
Q 251.156234 40.693655 249.862841 40.300014 
Q 248.569448 39.906372 247.669697 38.987876 
Q 246.769945 38.069379 246.769945 36.607283 
Q 246.769945 36.082428 246.938648 35.726276 
Q 247.107352 35.370124 247.500993 35.145186 
Q 247.894634 34.920248 248.175807 34.807779 
Q 248.456979 34.69531 249.113048 34.639076 
Q 249.769117 34.582841 249.956566 34.582841 
Q 250.144014 34.582841 250.818828 34.582841 
Q 252.018497 34.582841 252.599586 34.995228 
Q 253.180676 35.407614 253.499338 36.026193 
Q 253.818 36.644772 254.080428 36.832221 
" clip-path="url(#p7ef964dc55)" style="fill: none; stroke: #000000; stroke-linejoin: miter"/>
   </g>
  </g>
  <g id="axes_17"/>
  <g id="axes_18">
   <g id="patch_16">
    <path d="M 284.118579 29.071862 
Q 283.743683 29.146841 283.612469 29.577972 
Q 283.481255 30.009103 283.556234 30.42149 
Q 283.556234 30.571448 283.593724 30.702662 
Q 283.631214 30.833876 283.687448 30.89011 
Q 283.743683 30.946345 283.799917 31.040069 
Q 283.856152 31.133793 283.893641 31.208772 
L 284.00611 29.859145 
M 284.00611 34.020497 
Q 283.106359 39.006621 282.881421 42.793076 
L 283.331297 45.379862 
L 283.668703 46.054676 
" clip-path="url(#pbd3519d267)" style="fill: none; stroke: #000000; stroke-linejoin: miter"/>
   </g>
  </g>
  <g id="axes_19">
   <g id="patch_17">
    <path d="M 295.257476 43.917766 
Q 295.557393 44.180193 296.569614 45.154924 
Q 297.581834 46.129655 298.144179 46.560786 
Q 298.706524 46.991917 299.73749 47.385559 
Q 300.768455 47.7792 301.780676 47.629241 
Q 302.45549 47.629241 302.92411 47.404303 
Q 303.392731 47.179366 303.617669 46.879448 
Q 303.842607 46.579531 303.973821 45.979697 
Q 304.105034 45.379862 304.123779 44.967476 
Q 304.142524 44.55509 304.142524 43.805297 
Q 304.142524 42.718097 303.242772 42.043283 
Q 302.343021 41.368469 301.049628 41.031062 
Q 299.756234 40.693655 298.462841 40.300014 
Q 297.169448 39.906372 296.269697 38.987876 
Q 295.369945 38.069379 295.369945 36.607283 
Q 295.369945 36.082428 295.538648 35.726276 
Q 295.707352 35.370124 296.100993 35.145186 
Q 296.494634 34.920248 296.775807 34.807779 
Q 297.056979 34.69531 297.713048 34.639076 
Q 298.369117 34.582841 298.556566 34.582841 
Q 298.744014 34.582841 299.418828 34.582841 
Q 300.618497 34.582841 301.199586 34.995228 
Q 301.780676 35.407614 302.099338 36.026193 
Q 302.418 36.644772 302.680428 36.832221 
" clip-path="url(#pb328b4c8c2)" style="fill: none; stroke: #000000; stroke-linejoin: miter"/>
   </g>
  </g>
  <g id="axes_20">
   <g id="patch_18">
    <path d="M 314.175476 45.379862 
Q 313.913048 45.304883 313.631876 45.64229 
Q 313.350703 45.979697 313.425683 46.279614 
Q 313.425683 46.429572 313.875559 46.429572 
Q 314.025517 46.467062 314.137986 46.392083 
Q 314.250455 46.317103 314.250455 46.129655 
M 310.951366 26.934952 
Q 313.875559 25.922731 316.199917 26.0352 
Q 318.224359 26.0352 319.536497 27.197379 
Q 320.848634 28.359559 320.848634 30.309021 
Q 320.848634 32.745848 319.255324 34.001752 
Q 317.662014 35.257655 315.150207 35.257655 
L 313.650621 35.257655 
Q 313.500662 35.257655 313.463172 36.194897 
Q 313.425683 37.132138 313.463172 38.069379 
L 313.500662 39.006621 
L 313.500662 41.405959 
L 313.800579 42.230731 
" clip-path="url(#p1d568023a8)" style="fill: none; stroke: #000000; stroke-linejoin: miter"/>
   </g>
  </g>
 </g>
 <defs>
  <clipPath id="pf27f9bb596">
   <rect x="0" y="10.936525" width="16.2" height="49.766949"/>
  </clipPath>
  <clipPath id="pb7bb1e4fca">
   <rect x="18.938979" y="8.64" width="10.722041" height="54.36"/>
  </clipPath>
  <clipPath id="p780d5abeb6">
   <rect x="38.006938" y="8.64" width="4.986124" height="54.36"/>
  </clipPath>
  <clipPath id="p1f3186d267">
   <rect x="48.6" y="11.850612" width="16.2" height="47.938776"/>
  </clipPath>
  <clipPath id="p9b3ed69d46">
   <rect x="67.538979" y="8.64" width="10.722041" height="54.36"/>
  </clipPath>
  <clipPath id="p750d98d9c7">
   <rect x="98.589352" y="8.64" width="13.421297" height="54.36"/>
  </clipPath>
  <clipPath id="p0212091542">
   <rect x="116.138979" y="8.64" width="10.722041" height="54.36"/>
  </clipPath>
  <clipPath id="pb33e5a795e">
   <rect x="129.6" y="13.617732" width="16.2" height="44.404537"/>
  </clipPath>
  <clipPath id="p67032b8217">
   <rect x="151.406938" y="8.64" width="4.986124" height="54.36"/>
  </clipPath>
  <clipPath id="pdb41fa28cd">
   <rect x="163.389352" y="8.64" width="13.421297" height="54.36"/>
  </clipPath>
  <clipPath id="p87a6b3155b">
   <rect x="195.789352" y="8.64" width="13.421297" height="54.36"/>
  </clipPath>
  <clipPath id="pc2d12f5e73">
   <rect x="213.338979" y="8.64" width="10.722041" height="54.36"/>
  </clipPath>
  <clipPath id="pe4f771d907">
   <rect x="232.406938" y="8.64" width="4.986124" height="54.36"/>
  </clipPath>
  <clipPath id="p7ef964dc55">
   <rect x="244.782993" y="8.64" width="12.634014" height="54.36"/>
  </clipPath>
  <clipPath id="pbd3519d267">
   <rect x="281.006938" y="8.64" width="4.986124" height="54.36"/>
  </clipPath>
  <clipPath id="pb328b4c8c2">
   <rect x="293.382993" y="8.64" width="12.634014" height="54.36"/>
  </clipPath>
  <clipPath id="p1d568023a8">
   <rect x="309.076883" y="8.64" width="13.646234" height="54.36"/>
  </clipPath>
 </defs>
</svg>
