<?xml version="1.0" encoding="utf-8" standalone="no"?>
<!DOCTYPE svg PUBLIC "-//W3C//DTD SVG 1.1//EN"
  "http://www.w3.org/Graphics/SVG/1.1/DTD/svg11.dtd">
<svg xmlns:xlink="http://www.w3.org/1999/xlink" width="54pt" height="72pt" viewBox="0 0 54 72" xmlns="http://www.w3.org/2000/svg" version="1.1">
 <metadata>
  <rdf:RDF xmlns:dc="http://purl.org/dc/elements/1.1/" xmlns:cc="http://creativecommons.org/ns#" xmlns:rdf="http://www.w3.org/1999/02/22-rdf-syntax-ns#">
   <cc:Work>
    <dc:type rdf:resource="http://purl.org/dc/dcmitype/StillImage"/>
    <dc:date>2023-01-08T16:42:44.782627</dc:date>
    <dc:format>image/svg+xml</dc:format>
    <dc:creator>
     <cc:Agent>
      <dc:title>Matplotlib v3.6.1, https://matplotlib.org/</dc:title>
     </cc:Agent>
    </dc:creator>
   </cc:Work>
  </rdf:RDF>
 </metadata>
 <defs>
  <style type="text/css">*{stroke-linejoin: round; stroke-linecap: butt}</style>
 </defs>
 <g id="figure_1">
  <g id="patch_1">
   <path d="M 0 72 
L 54 72 
L 54 0 
L 0 0 
z
" style="fill: #8fff9f"/>
  </g>
  <g id="axes_1">
   <g id="patch_2">
    <path d="M 11.202128 35.130638 
L 12.605471 37.124863 
M 13.787234 28.852523 
Q 13.762614 29.147964 13.811854 29.886565 
Q 13.861094 30.625167 13.787234 30.920608 
Q 13.787234 30.945228 13.799544 31.88079 
Q 13.811854 32.816353 13.811854 33.727295 
Q 13.811854 34.638237 13.799544 35.99234 
Q 13.787234 37.346444 13.737994 38.454347 
Q 13.688754 39.562249 13.602584 40.583982 
Q 13.516413 41.605714 13.381003 42.184286 
Q 13.245593 42.762857 13.048632 42.762857 
Q 12.974772 42.762857 12.863982 42.664377 
Q 12.753191 42.565897 12.667021 42.430486 
Q 12.580851 42.295076 12.506991 42.159666 
Q 12.433131 42.024255 12.383891 41.901155 
L 12.31003 41.802675 
L 11.793009 40.842492 
M 10.389666 32.471672 
L 10.611246 32.471672 
L 11.645289 32.471672 
L 14.968997 32.102371 
M 9.035562 35.155258 
Q 8.690881 35.401459 8.346201 36.029271 
Q 8.00152 36.657082 7.275228 37.518784 
Q 6.548936 38.380486 5.268693 39.291429 
M 5.416413 35.376839 
L 7.410638 35.229119 
L 9.552584 34.859818 
M 6.548936 33.801155 
L 9.109422 33.801155 
M 6.598176 32.668632 
L 8.863222 32.594772 
M 6.327356 31.462249 
L 9.404863 31.388389 
Q 9.355623 31.75769 9.294073 34.552067 
Q 9.232523 37.346444 9.109422 39.79614 
Q 8.986322 42.245836 8.813982 42.245836 
Q 8.666261 42.245836 8.420061 42.073495 
Q 8.17386 41.901155 8.00152 41.716505 
Q 7.829179 41.531854 7.582979 41.261033 
L 7.336778 40.990213 
L 6.819757 40.251611 
M 6.327356 31.536109 
L 6.548936 35.229119 
M 8.14924 28.581702 
L 7.115198 30.428207 
M 1.895745 29.394164 
Q 1.944985 29.492644 2.191185 29.664985 
Q 2.437386 29.837325 2.486626 29.985046 
L 3.372948 31.166809 
M 1.231003 33.948875 
L 2.708207 33.087173 
Q 2.880547 33.111793 3.102128 32.927143 
Q 3.323708 32.742492 3.397568 32.754802 
Q 3.471429 32.767112 3.446809 33.234894 
Q 3.422188 33.973495 3.397568 34.305866 
Q 3.372948 34.638237 3.336018 34.749027 
Q 3.299088 34.859818 3.262158 34.921368 
Q 3.225228 34.982918 3.151368 35.339909 
Q 3.077508 35.6969 3.003647 36.386261 
L 2.905167 38.749787 
L 2.929787 38.749787 
L 4.333131 37.789605 
L 4.554711 37.568024 
" clip-path="url(#p636ef09387)" style="fill: none; stroke: #000000; stroke-linejoin: miter"/>
   </g>
  </g>
  <g id="axes_2">
   <g id="patch_3">
    <path d="M 27.402128 35.130638 
L 28.805471 37.124863 
M 29.987234 28.852523 
Q 29.962614 29.147964 30.011854 29.886565 
Q 30.061094 30.625167 29.987234 30.920608 
Q 29.987234 30.945228 29.999544 31.88079 
Q 30.011854 32.816353 30.011854 33.727295 
Q 30.011854 34.638237 29.999544 35.99234 
Q 29.987234 37.346444 29.937994 38.454347 
Q 29.888754 39.562249 29.802584 40.583982 
Q 29.716413 41.605714 29.581003 42.184286 
Q 29.445593 42.762857 29.248632 42.762857 
Q 29.174772 42.762857 29.063982 42.664377 
Q 28.953191 42.565897 28.867021 42.430486 
Q 28.780851 42.295076 28.706991 42.159666 
Q 28.633131 42.024255 28.583891 41.901155 
L 28.51003 41.802675 
L 27.993009 40.842492 
M 26.589666 32.471672 
L 26.811246 32.471672 
L 27.845289 32.471672 
L 31.168997 32.102371 
M 25.235562 35.155258 
Q 24.890881 35.401459 24.546201 36.029271 
Q 24.20152 36.657082 23.475228 37.518784 
Q 22.748936 38.380486 21.468693 39.291429 
M 21.616413 35.376839 
L 23.610638 35.229119 
L 25.752584 34.859818 
M 22.748936 33.801155 
L 25.309422 33.801155 
M 22.798176 32.668632 
L 25.063222 32.594772 
M 22.527356 31.462249 
L 25.604863 31.388389 
Q 25.555623 31.75769 25.494073 34.552067 
Q 25.432523 37.346444 25.309422 39.79614 
Q 25.186322 42.245836 25.013982 42.245836 
Q 24.866261 42.245836 24.620061 42.073495 
Q 24.37386 41.901155 24.20152 41.716505 
Q 24.029179 41.531854 23.782979 41.261033 
L 23.536778 40.990213 
L 23.019757 40.251611 
M 22.527356 31.536109 
L 22.748936 35.229119 
M 24.34924 28.581702 
L 23.315198 30.428207 
M 18.095745 29.394164 
Q 18.144985 29.492644 18.391185 29.664985 
Q 18.637386 29.837325 18.686626 29.985046 
L 19.572948 31.166809 
M 17.431003 33.948875 
L 18.908207 33.087173 
Q 19.080547 33.111793 19.302128 32.927143 
Q 19.523708 32.742492 19.597568 32.754802 
Q 19.671429 32.767112 19.646809 33.234894 
Q 19.622188 33.973495 19.597568 34.305866 
Q 19.572948 34.638237 19.536018 34.749027 
Q 19.499088 34.859818 19.462158 34.921368 
Q 19.425228 34.982918 19.351368 35.339909 
Q 19.277508 35.6969 19.203647 36.386261 
L 19.105167 38.749787 
L 19.129787 38.749787 
L 20.533131 37.789605 
L 20.754711 37.568024 
" clip-path="url(#pb22b71fbe2)" style="fill: none; stroke: #000000; stroke-linejoin: miter"/>
   </g>
  </g>
  <g id="axes_3">
   <g id="patch_4">
    <path d="M 40.949876 45.6048 
L 40.724938 45.6048 
Q 40.237572 45.6048 39.91891 45.942207 
Q 39.600248 46.279614 39.600248 46.617021 
Q 39.600248 46.916938 39.975145 47.160621 
Q 40.350041 47.404303 40.724938 47.404303 
Q 40.912386 47.404303 41.062345 47.27309 
Q 41.212303 47.141876 41.249793 46.991917 
Q 41.287283 46.841959 41.343517 46.598276 
Q 41.399752 46.354593 41.399752 46.279614 
M 39.712717 23.185986 
Q 41.137324 29.409269 40.649959 43.242952 
" clip-path="url(#pd5ff23f591)" style="fill: none; stroke: #000000; stroke-linejoin: miter"/>
   </g>
  </g>
 </g>
 <defs>
  <clipPath id="p636ef09387">
   <rect x="0" y="17.970456" width="16.2" height="35.699088"/>
  </clipPath>
  <clipPath id="pb22b71fbe2">
   <rect x="16.2" y="17.970456" width="16.2" height="35.699088"/>
  </clipPath>
  <clipPath id="pd5ff23f591">
   <rect x="37.725766" y="8.64" width="5.548469" height="54.36"/>
  </clipPath>
 </defs>
</svg>
