<?xml version="1.0" encoding="utf-8" standalone="no"?>
<!DOCTYPE svg PUBLIC "-//W3C//DTD SVG 1.1//EN"
  "http://www.w3.org/Graphics/SVG/1.1/DTD/svg11.dtd">
<svg xmlns:xlink="http://www.w3.org/1999/xlink" width="315pt" height="72pt" viewBox="0 0 315 72" xmlns="http://www.w3.org/2000/svg" version="1.1">
 <metadata>
  <rdf:RDF xmlns:dc="http://purl.org/dc/elements/1.1/" xmlns:cc="http://creativecommons.org/ns#" xmlns:rdf="http://www.w3.org/1999/02/22-rdf-syntax-ns#">
   <cc:Work>
    <dc:type rdf:resource="http://purl.org/dc/dcmitype/StillImage"/>
    <dc:date>2023-01-08T20:21:17.376841</dc:date>
    <dc:format>image/svg+xml</dc:format>
    <dc:creator>
     <cc:Agent>
      <dc:title>Matplotlib v3.6.1, https://matplotlib.org/</dc:title>
     </cc:Agent>
    </dc:creator>
   </cc:Work>
  </rdf:RDF>
 </metadata>
 <defs>
  <style type="text/css">*{stroke-linejoin: round; stroke-linecap: butt}</style>
 </defs>
 <g id="figure_1">
  <g id="patch_1">
   <path d="M 0 72 
L 315 72 
L 315 0 
L 0 0 
z
" style="fill: #8fff9f"/>
  </g>
  <g id="axes_1">
   <g id="patch_2">
    <path d="M 18.692503 24.760552 
Q 19.292338 26.522566 20.829414 27.684745 
L 22.179041 28.134621 
M 21.504228 35.894979 
Q 21.054352 36.382345 19.985897 37.844441 
Q 18.917441 39.306538 17.9802 40.13131 
Q 17.042959 40.956083 15.76831 41.29349 
M 15.093497 25.435366 
Q 16.180697 26.934952 16.836766 29.240566 
Q 17.492834 31.546179 17.867731 33.776814 
Q 18.242628 36.007448 18.729993 38.200593 
Q 19.217359 40.393738 20.323303 42.230731 
Q 21.429248 44.067724 23.191262 45.004966 
Q 23.941055 44.967476 24.372186 44.105214 
Q 24.803317 43.242952 25.103234 42.230731 
Q 25.403152 41.21851 25.778048 40.956083 
M 2.009607 40.431228 
Q 2.871869 39.981352 5.4774 39.381517 
Q 8.082931 38.781683 9.207621 37.844441 
L 11.906876 36.719752 
L 12.244283 36.494814 
M 8.307869 28.547007 
L 9.32009 36.044938 
L 9.32009 38.744193 
Q 9.432559 39.906372 9.207621 41.968303 
Q 8.982683 44.030234 8.982683 44.705048 
Q 8.982683 45.154924 8.888959 45.417352 
Q 8.795234 45.679779 8.607786 45.736014 
Q 8.420338 45.792248 8.23289 45.754759 
Q 8.045441 45.717269 7.745524 45.511076 
Q 7.445607 45.304883 7.201924 45.09869 
Q 6.958241 44.892497 6.620834 44.592579 
L 5.046269 43.018014 
M 3.771621 33.983007 
Q 4.333966 33.870538 12.113069 32.895807 
Q 19.892172 31.921076 23.37871 30.608938 
L 26.340393 29.484248 
M 10.444779 27.647255 
Q 8.795234 28.134621 5.158738 28.771945 
L 3.921579 28.884414 
" clip-path="url(#p27cc2150c4)" style="fill: none; stroke: #000000; stroke-linejoin: miter"/>
   </g>
  </g>
  <g id="axes_2">
   <g id="patch_3">
    <path d="M 43.987097 27.197379 
L 44.549441 27.197379 
Q 45.449193 27.197379 47.229952 26.803738 
Q 49.01071 26.410097 49.947952 26.410097 
L 50.735234 26.410097 
Q 50.997662 26.410097 51.166366 26.297628 
Q 51.335069 26.185159 51.522517 26.185159 
Q 51.934903 26.410097 51.953648 27.272359 
Q 51.972393 28.134621 51.822434 28.959393 
Q 51.672476 29.784166 51.859924 30.458979 
Q 52.534738 32.295972 52.628462 35.032717 
Q 52.722186 37.769462 52.515993 41.518428 
Q 52.3098 45.267393 52.3098 46.392083 
Q 52.3098 46.579531 52.291055 46.598276 
Q 52.27231 46.617021 52.159841 46.617021 
Q 52.122352 46.617021 52.084862 46.617021 
Q 51.522517 46.617021 50.960172 46.392083 
Q 50.397828 46.167145 49.779248 45.792248 
Q 49.160669 45.417352 48.823262 45.267393 
L 48.710793 44.929986 
M 40.912945 25.885241 
L 42.599979 29.146841 
M 40.238131 28.846924 
L 40.238131 29.409269 
Q 40.31311 31.771117 40.163152 36.119917 
Q 40.013193 40.468717 40.013193 42.230731 
Q 40.013193 42.3432 40.013193 42.643117 
Q 40.013193 43.39291 39.956959 43.486634 
Q 39.900724 43.580359 39.788255 43.130483 
M 35.401966 28.134621 
Q 35.289497 28.17211 35.270752 28.24709 
Q 35.252007 28.322069 35.270752 28.434538 
Q 35.289497 28.547007 35.289497 28.584497 
Q 35.252007 37.469545 35.514434 40.506207 
Q 35.551924 41.068552 35.476945 43.092993 
Q 35.401966 45.117434 35.626903 45.64229 
M 38.851014 22.436193 
L 38.851014 22.7736 
Q 38.851014 23.635862 37.913772 24.966745 
Q 36.976531 26.297628 35.626903 27.778469 
Q 34.277276 29.25931 34.014848 29.634207 
L 32.327814 30.871366 
" clip-path="url(#p6cf33f9410)" style="fill: none; stroke: #000000; stroke-linejoin: miter"/>
   </g>
  </g>
  <g id="axes_3">
   <g id="patch_4">
    <path d="M 64.455097 36.844258 
Q 66.979161 39.295161 70.417742 40.831548 
Q 73.856323 42.367935 77.514387 42.770323 
L 81.026129 42.697161 
M 65.22329 35.454194 
L 65.22329 35.783419 
Q 65.113548 36.076065 64.61971 37.374677 
Q 64.125871 38.67329 63.924677 39.130548 
Q 63.723484 39.587806 63.211355 40.648645 
Q 62.699226 41.709484 62.278548 42.239903 
Q 61.857871 42.770323 61.181129 43.447065 
Q 60.504387 44.123806 59.736194 44.562774 
M 70.051935 36.551613 
L 70.271419 36.551613 
Q 70.673806 36.551613 71.149355 36.40529 
Q 71.624903 36.258968 72.228484 36.021194 
Q 72.832065 35.783419 73.12471 35.673677 
L 74.112387 35.563935 
M 69.942194 33.588581 
L 70.051935 39.734129 
M 58.529032 34.247032 
L 59.297226 34.247032 
Q 60.906774 34.247032 62.680935 34.045839 
Q 64.455097 33.844645 66.649935 33.515419 
Q 68.844774 33.186194 70.051935 33.039871 
L 83.220968 32.052194 
M 66.759677 31.722968 
Q 70.381161 31.101097 70.600645 31.064516 
L 73.014968 30.625548 
M 66.101226 28.650194 
L 73.234452 28.650194 
M 66.210968 26.235871 
L 72.356516 26.235871 
Q 72.978387 26.235871 73.362484 26.363903 
Q 73.746581 26.491935 73.984355 26.674839 
Q 74.222129 26.857742 74.331871 26.894323 
L 73.892903 31.503484 
M 65.662258 26.016387 
L 65.662258 26.455355 
Q 65.918323 27.113806 65.954903 28.942839 
Q 65.991484 30.771871 66.540194 31.613226 
" clip-path="url(#p03a49bd947)" style="fill: none; stroke: #000000; stroke-linejoin: miter"/>
   </g>
  </g>
  <g id="axes_4">
   <g id="patch_5">
    <path d="M 101.924255 30.571448 
L 101.924255 32.708359 
Q 101.924255 34.207945 102.017979 35.894979 
Q 102.111703 37.582014 102.261662 39.643945 
Q 102.411621 41.705876 102.4866 42.830566 
L 102.261662 43.955255 
M 94.163897 44.405131 
L 109.572145 44.180193 
M 97.200559 34.7328 
L 99.337469 34.7328 
Q 99.374959 34.7328 104.173634 34.507862 
L 106.985359 34.170455 
M 92.176945 32.895807 
L 92.176945 35.257655 
Q 92.176945 35.295145 92.401883 38.181848 
L 92.514352 45.717269 
M 93.451593 28.397048 
Q 94.201386 28.284579 98.550186 28.17211 
Q 102.898986 28.059641 104.398572 27.347338 
L 105.635731 27.1224 
M 98.625166 24.348166 
Q 98.250269 27.909683 95.794697 31.602414 
Q 93.339124 35.295145 90.115014 37.244607 
L 88.877855 37.806952 
" clip-path="url(#p63e5d2948b)" style="fill: none; stroke: #000000; stroke-linejoin: miter"/>
   </g>
  </g>
  <g id="axes_5">
   <g id="patch_6">
    <path d="M 124.257166 36.382345 
Q 129.730655 43.4304 136.85369 46.279614 
L 139.103069 47.179366 
M 127.181359 24.123228 
Q 127.143869 24.235697 127.162614 24.629338 
Q 127.181359 25.022979 127.181359 25.135448 
Q 127.293828 26.372607 127.087634 27.609766 
Q 126.881441 28.846924 126.375331 30.646428 
Q 125.869221 32.445931 125.719262 33.008276 
Q 125.081938 35.82 123.919759 37.750717 
Q 122.757579 39.681434 120.54569 42.043283 
Q 118.3338 44.405131 117.509028 45.492331 
L 116.046931 46.054676 
M 116.721745 32.820828 
L 117.509028 32.820828 
L 136.516283 31.4712 
" clip-path="url(#p635b52ced7)" style="fill: none; stroke: #000000; stroke-linejoin: miter"/>
   </g>
  </g>
  <g id="axes_6">
   <g id="patch_7">
    <path d="M 147.827234 37.656993 
Q 150.189083 36.9072 152.775869 36.607283 
Q 155.362655 36.307366 159.055386 36.194897 
Q 162.748117 36.082428 164.135234 35.969959 
M 155.700062 33.270703 
L 155.700062 33.720579 
Q 155.812531 34.807779 156.056214 36.832221 
Q 156.299897 38.856662 156.449855 40.449972 
Q 156.599814 42.043283 156.637303 43.580359 
Q 156.674793 46.092166 156.262407 46.129655 
Q 155.88751 46.129655 155.175207 44.855007 
L 154.125497 43.46789 
M 150.863897 30.458979 
Q 151.051345 30.496469 151.313772 30.234041 
L 153.563152 30.234041 
Q 153.600641 30.234041 156.374876 30.009103 
L 161.136062 29.221821 
Q 160.911124 29.33429 160.517483 29.577972 
Q 160.123841 29.821655 160.011372 29.896634 
L 156.037469 33.158234 
M 146.027731 27.759724 
L 157.387097 27.534786 
Q 158.736724 27.459807 161.304766 27.08491 
Q 163.872807 26.710014 165.147455 26.635034 
Q 166.609552 26.560055 166.609552 26.747503 
Q 166.609552 26.784993 166.272145 27.647255 
L 164.135234 30.121572 
M 145.240448 27.647255 
Q 146.815014 28.472028 147.602297 30.009103 
L 147.827234 30.571448 
M 161.548448 22.81109 
Q 160.948614 23.485903 160.761166 24.723062 
L 159.748945 26.972441 
M 153.338214 23.82331 
Q 153.413193 23.89829 153.563152 24.216952 
Q 153.71311 24.535614 153.900559 24.610593 
L 154.912779 26.297628 
M 149.064393 24.273186 
L 150.076614 27.08491 
" clip-path="url(#pdeaab1abe0)" style="fill: none; stroke: #000000; stroke-linejoin: miter"/>
   </g>
  </g>
  <g id="axes_7">
   <g id="patch_8">
    <path d="M 186.125431 35.296293 
Q 186.474569 35.924741 187.225216 37.426034 
Q 187.975862 38.927328 188.377371 39.712888 
Q 188.778879 40.498448 189.599353 41.720431 
Q 190.419828 42.942414 191.170474 43.64069 
Q 191.921121 44.338966 193.038362 45.002328 
Q 194.155603 45.66569 195.447414 45.979914 
L 196.70431 46.294138 
M 187.068103 25.380776 
L 187.068103 26.323448 
Q 187.068103 29.675172 186.282543 32.50319 
Q 185.496983 35.331207 183.646552 39.293922 
Q 181.796121 43.256638 181.307328 44.513534 
L 180.259914 45.560948 
M 174.534052 24.298448 
Q 175.057759 24.368276 175.511638 24.6825 
Q 175.965517 24.996724 176.559052 25.607716 
Q 177.152586 26.218707 177.362069 26.393276 
L 177.781034 26.498017 
M 171.84569 32.7825 
Q 172.090086 32.747586 172.840733 32.450819 
Q 173.591379 32.154052 174.045259 32.154052 
L 176.489224 30.897155 
L 176.209914 40.219138 
L 176.105172 43.885086 
Q 176.279741 43.885086 176.576509 43.710517 
Q 176.873276 43.535948 177.239871 43.256638 
Q 177.606466 42.977328 177.676293 42.942414 
L 178.618966 41.895 
" clip-path="url(#p2199d5f89a)" style="fill: none; stroke: #000000; stroke-linejoin: miter"/>
   </g>
  </g>
  <g id="axes_8">
   <g id="patch_9">
    <path d="M 219.646962 37.917226 
Q 220.395971 38.478983 221.594386 40.557483 
Q 222.792801 42.635984 223.57926 43.310092 
L 224.927477 44.433606 
M 214.179194 38.553884 
Q 213.767239 39.227992 213.074406 40.726011 
Q 212.381572 42.224029 211.688738 43.291367 
Q 210.995905 44.358705 210.022193 45.070264 
M 213.954491 35.370594 
L 215.45251 35.145892 
L 223.129855 34.022378 
M 211.632563 27.618349 
Q 212.456473 27.618349 214.946929 27.431096 
Q 217.437384 27.243844 218.298745 27.243844 
L 223.167305 26.869339 
L 221.893989 35.520396 
M 211.744914 27.505997 
Q 211.894716 28.067754 212.306671 30.296057 
Q 212.718626 32.524359 213.093131 33.685324 
L 213.430185 36.60646 
M 205.228534 24.50996 
Q 205.453236 24.809564 206.220971 25.371321 
Q 206.988705 25.933078 207.250859 26.419934 
L 208.262021 27.7307 
M 200.322523 33.460621 
Q 201.146433 33.38572 203.168758 32.243481 
Q 205.191083 31.101242 205.603038 31.101242 
Q 205.490687 33.572972 204.760403 37.205667 
Q 204.030119 40.838362 203.992668 43.497345 
Q 203.992668 43.534795 203.973943 43.722048 
Q 203.955218 43.9093 203.955218 44.059102 
Q 203.955218 44.208904 203.955218 44.377431 
Q 203.955218 44.545958 204.030119 44.639584 
Q 204.10502 44.73321 204.217371 44.73321 
Q 205.153633 44.396156 206.333322 43.066664 
Q 207.513012 41.737173 208.14967 41.362668 
" clip-path="url(#p2124896a7b)" style="fill: none; stroke: #000000; stroke-linejoin: miter"/>
   </g>
  </g>
  <g id="axes_9">
   <g id="patch_10">
    <path d="M 243.936683 33.420662 
Q 245.061372 33.720579 247.310752 35.332634 
M 242.249648 28.584497 
Q 243.749234 28.696966 246.073593 28.115876 
Q 248.397952 27.534786 249.222724 27.459807 
Q 249.63511 27.459807 249.860048 27.553531 
Q 250.084986 27.647255 250.159966 27.890938 
Q 250.234945 28.134621 250.2162 28.378303 
Q 250.197455 28.621986 250.159966 29.146841 
Q 250.122476 29.671697 250.122476 30.046593 
Q 250.347414 34.320414 249.560131 43.4304 
Q 249.560131 43.805297 249.560131 44.105214 
Q 249.560131 44.405131 249.541386 44.630069 
Q 249.522641 44.855007 249.353938 44.986221 
Q 249.185234 45.117434 248.772848 45.117434 
L 248.098034 45.117434 
L 245.736186 43.542869 
M 244.049152 23.8608 
L 244.049152 24.198207 
Q 244.049152 25.022979 243.674255 26.110179 
Q 243.299359 27.197379 242.699524 28.472028 
Q 242.09969 29.746676 241.912241 30.271531 
L 241.237428 31.396221 
M 232.652297 43.767807 
L 233.664517 43.767807 
L 239.512903 43.4304 
M 232.652297 35.894979 
L 238.275745 35.670041 
M 231.602586 29.971614 
L 233.514559 29.971614 
Q 234.001924 29.971614 235.539 29.634207 
Q 237.076076 29.2968 238.350724 28.959393 
Q 239.625372 28.621986 239.625372 28.584497 
Q 239.625372 39.493986 239.400434 42.868055 
L 239.063028 45.342372 
M 232.052462 28.846924 
L 232.052462 29.184331 
Q 232.052462 30.908855 232.464848 34.15171 
Q 232.877234 37.394566 232.877234 39.156579 
L 232.877234 42.868055 
L 232.427359 43.992745 
M 238.163276 24.760552 
Q 237.7134 25.060469 237.188545 25.99771 
Q 236.66369 26.934952 236.251303 27.234869 
L 235.351552 29.25931 
" clip-path="url(#p21309839f1)" style="fill: none; stroke: #000000; stroke-linejoin: miter"/>
   </g>
  </g>
  <g id="axes_10">
   <g id="patch_11">
    <path d="M 269.793621 42.043283 
L 269.006338 42.043283 
Q 267.994117 42.043283 267.375538 42.811821 
Q 266.756959 43.580359 266.756959 44.630069 
Q 266.719469 45.679779 267.450517 46.260869 
Q 268.181566 46.841959 269.231276 46.65451 
Q 269.531193 46.617021 270.018559 46.579531 
Q 270.505924 46.542041 270.768352 46.504552 
Q 271.030779 46.467062 271.349441 46.317103 
Q 271.668103 46.167145 271.799317 45.810993 
Q 271.930531 45.454841 271.930531 44.855007 
Q 271.930531 44.592579 271.818062 44.330152 
Q 271.705593 44.067724 271.518145 43.749062 
Q 271.330697 43.4304 271.255717 43.280441 
L 270.131028 42.605628 
" clip-path="url(#p6517169f38)" style="fill: none; stroke: #000000; stroke-linejoin: miter"/>
   </g>
  </g>
 </g>
 <defs>
  <clipPath id="p27cc2150c4">
   <rect x="0.135124" y="8.64" width="28.079752" height="54.36"/>
  </clipPath>
  <clipPath id="p6cf33f9410">
   <rect x="30.453331" y="8.64" width="24.143338" height="54.36"/>
  </clipPath>
  <clipPath id="p03a49bd947">
   <rect x="56.7" y="9.299032" width="28.35" height="53.041935"/>
  </clipPath>
  <clipPath id="p63e5d2948b">
   <rect x="87.003372" y="8.64" width="24.443255" height="54.36"/>
  </clipPath>
  <clipPath id="p635b52ced7">
   <rect x="114.172448" y="8.64" width="26.805103" height="54.36"/>
  </clipPath>
  <clipPath id="pdeaab1abe0">
   <rect x="143.365966" y="8.64" width="25.118069" height="54.36"/>
  </clipPath>
  <clipPath id="p2199d5f89a">
   <rect x="170.1" y="10.5075" width="28.35" height="50.625"/>
  </clipPath>
  <clipPath id="p2124896a7b">
   <rect x="198.45" y="8.668415" width="28.35" height="54.30317"/>
  </clipPath>
  <clipPath id="p21309839f1">
   <rect x="229.728103" y="8.64" width="22.493793" height="54.36"/>
  </clipPath>
  <clipPath id="p6517169f38">
   <rect x="264.844986" y="8.64" width="8.960028" height="54.36"/>
  </clipPath>
 </defs>
</svg>
