<?xml version="1.0" encoding="utf-8" standalone="no"?>
<!DOCTYPE svg PUBLIC "-//W3C//DTD SVG 1.1//EN"
  "http://www.w3.org/Graphics/SVG/1.1/DTD/svg11.dtd">
<svg xmlns:xlink="http://www.w3.org/1999/xlink" width="144pt" height="72pt" viewBox="0 0 144 72" xmlns="http://www.w3.org/2000/svg" version="1.1">
 <metadata>
  <rdf:RDF xmlns:dc="http://purl.org/dc/elements/1.1/" xmlns:cc="http://creativecommons.org/ns#" xmlns:rdf="http://www.w3.org/1999/02/22-rdf-syntax-ns#">
   <cc:Work>
    <dc:type rdf:resource="http://purl.org/dc/dcmitype/StillImage"/>
    <dc:date>2023-01-08T16:49:41.906510</dc:date>
    <dc:format>image/svg+xml</dc:format>
    <dc:creator>
     <cc:Agent>
      <dc:title>Matplotlib v3.6.1, https://matplotlib.org/</dc:title>
     </cc:Agent>
    </dc:creator>
   </cc:Work>
  </rdf:RDF>
 </metadata>
 <defs>
  <style type="text/css">*{stroke-linejoin: round; stroke-linecap: butt}</style>
 </defs>
 <g id="figure_1">
  <g id="patch_1">
   <path d="M 0 72 
L 144 72 
L 144 0 
L 0 0 
z
" style="fill: #8fff9f"/>
  </g>
  <g id="axes_1">
   <g id="patch_2">
    <path d="M 4.781498 35.641586 
Q 4.781498 35.641586 6.815419 35.641586 
Q 7.636123 35.391806 9.955507 35.588062 
Q 12.27489 35.784317 13.238326 35.641586 
M 1.784141 43.991366 
L 1.891189 43.67022 
Q 1.891189 42.77815 3.818062 38.299956 
Q 5.744934 33.821762 7.707489 29.753921 
Q 9.670044 25.686079 9.812775 25.686079 
Q 10.669163 25.686079 11.364978 27.149075 
Q 12.060793 28.61207 12.52467 30.895771 
Q 12.988546 33.179471 13.327533 35.44533 
Q 13.66652 37.711189 13.951982 39.834317 
Q 14.237445 41.957445 14.415859 42.599736 
" clip-path="url(#pfcc82ea891)" style="fill: none; stroke: #000000; stroke-linejoin: miter"/>
   </g>
  </g>
  <g id="axes_2">
   <g id="patch_3">
    <path d="M 19.463834 32.783338 
L 19.463834 33.345683 
Q 20.326097 39.718924 20.363586 47.066897 
Q 20.363586 47.81669 20.288607 47.029407 
Q 19.838731 42.080772 19.688772 35.82 
L 19.688772 35.145186 
Q 19.688772 33.6456 21.282083 33.008276 
Q 22.875393 32.370952 24.3 32.783338 
Q 25.837076 33.233214 26.811807 34.414138 
Q 27.786538 35.595062 28.161434 37.282097 
Q 28.536331 38.969131 28.667545 40.543697 
Q 28.798759 42.118262 28.873738 44.067724 
Q 28.948717 46.017186 29.136166 47.066897 
" clip-path="url(#p7be01ecb46)" style="fill: none; stroke: #000000; stroke-linejoin: miter"/>
   </g>
  </g>
  <g id="axes_3">
   <g id="patch_4">
    <path d="M 44.099007 38.444276 
Q 42.749379 37.057159 40.5 37.319586 
Q 37.650786 37.319586 36.488607 38.669214 
Q 35.326428 40.018841 35.326428 42.943034 
Q 35.326428 44.442621 36.619821 45.154924 
Q 37.913214 45.867228 39.487779 45.867228 
Q 40.799917 45.867228 41.812138 44.611324 
Q 42.824359 43.355421 43.405448 41.181021 
Q 43.986538 39.006621 44.361434 36.813476 
Q 44.736331 34.620331 44.88629 31.921076 
Q 45.036248 29.221821 45.073738 27.853448 
Q 45.111228 26.485076 45.111228 25.060469 
Q 44.88629 25.135448 44.88629 28.771945 
L 44.88629 43.167972 
L 45.673572 47.104386 
" clip-path="url(#p1e0d8a9d8f)" style="fill: none; stroke: #000000; stroke-linejoin: miter"/>
   </g>
  </g>
  <g id="axes_4"/>
  <g id="axes_5">
   <g id="patch_5">
    <path d="M 67.763917 36.382345 
Q 67.726428 36.494814 67.857641 36.701007 
Q 67.988855 36.9072 67.876386 37.057159 
L 67.876386 39.306538 
Q 67.876386 40.506207 68.213793 41.724621 
Q 68.5512 42.943034 69.413462 43.93651 
Q 70.275724 44.929986 71.475393 44.929986 
Q 72.712552 44.929986 73.387366 43.861531 
Q 74.062179 42.793076 74.512055 41.143531 
Q 74.961931 39.493986 75.299338 38.969131 
L 76.086621 36.382345 
L 75.861683 42.680607 
L 75.861683 45.154924 
Q 75.861683 47.066897 76.592731 51.00331 
Q 77.323779 54.939724 77.323779 56.964166 
Q 78.073572 59.213545 76.986372 60.188276 
Q 75.899172 61.163007 73.837241 60.78811 
Q 72.037738 60.488193 71.119241 60.169531 
Q 70.200745 59.850869 68.213793 58.988607 
L 68.101324 58.426262 
" clip-path="url(#pb300edbf76)" style="fill: none; stroke: #000000; stroke-linejoin: miter"/>
   </g>
  </g>
  <g id="axes_6">
   <g id="patch_6">
    <path d="M 92.3616 35.032717 
Q 91.31189 34.582841 90.337159 34.69531 
Q 87.300497 35.032717 85.388524 36.701007 
Q 83.476552 38.369297 83.476552 41.330979 
Q 83.476552 43.917766 85.482248 45.6048 
Q 87.487945 47.291834 90.112221 47.291834 
Q 92.474069 47.291834 93.598759 45.361117 
Q 94.723448 43.4304 94.723448 40.881103 
Q 94.723448 39.643945 94.311062 38.706703 
Q 93.898676 37.769462 93.373821 37.300841 
Q 92.848966 36.832221 92.099172 36.119917 
Q 91.349379 35.407614 90.899503 34.69531 
L 89.662345 34.245434 
" clip-path="url(#p5f403eeb51)" style="fill: none; stroke: #000000; stroke-linejoin: miter"/>
   </g>
  </g>
  <g id="axes_7">
   <g id="patch_7">
    <path d="M 100.688772 35.145186 
Q 100.688772 35.145186 100.688772 35.595062 
Q 100.688772 36.269876 100.576303 37.619503 
Q 100.463834 38.969131 100.463834 39.643945 
Q 100.463834 41.930814 101.700993 43.599103 
Q 102.938152 45.267393 105.075062 45.267393 
Q 106.462179 45.154924 107.230717 43.917766 
Q 107.999255 42.680607 108.149214 41.237255 
Q 108.299172 39.793903 108.5616 37.9944 
Q 108.824028 36.194897 109.236414 35.370124 
Q 109.386372 35.070207 109.386372 35.670041 
Q 109.386372 36.269876 109.123945 38.706703 
Q 108.899007 41.031062 108.899007 41.555917 
Q 108.749048 42.643117 109.086455 43.767807 
Q 109.423862 44.892497 110.136166 45.6048 
" clip-path="url(#p7fc8de9a13)" style="fill: none; stroke: #000000; stroke-linejoin: miter"/>
   </g>
  </g>
  <g id="axes_8">
   <g id="patch_8">
    <path d="M 119.775476 45.379862 
Q 119.513048 45.304883 119.231876 45.64229 
Q 118.950703 45.979697 119.025683 46.279614 
Q 119.025683 46.429572 119.475559 46.429572 
Q 119.625517 46.467062 119.737986 46.392083 
Q 119.850455 46.317103 119.850455 46.129655 
M 116.551366 26.934952 
Q 119.475559 25.922731 121.799917 26.0352 
Q 123.824359 26.0352 125.136497 27.197379 
Q 126.448634 28.359559 126.448634 30.309021 
Q 126.448634 32.745848 124.855324 34.001752 
Q 123.262014 35.257655 120.750207 35.257655 
L 119.250621 35.257655 
Q 119.100662 35.257655 119.063172 36.194897 
Q 119.025683 37.132138 119.063172 38.069379 
L 119.100662 39.006621 
L 119.100662 41.405959 
L 119.400579 42.230731 
" clip-path="url(#p9af4e1b93c)" style="fill: none; stroke: #000000; stroke-linejoin: miter"/>
   </g>
  </g>
 </g>
 <defs>
  <clipPath id="pfcc82ea891">
   <rect x="0" y="9.949956" width="16.2" height="51.740088"/>
  </clipPath>
  <clipPath id="p7be01ecb46">
   <rect x="17.589352" y="8.64" width="13.421297" height="54.36"/>
  </clipPath>
  <clipPath id="p1e0d8a9d8f">
   <rect x="33.451945" y="8.64" width="14.09611" height="54.36"/>
  </clipPath>
  <clipPath id="pb300edbf76">
   <rect x="65.851945" y="8.64" width="14.09611" height="54.36"/>
  </clipPath>
  <clipPath id="p5f403eeb51">
   <rect x="81.602069" y="8.64" width="14.995862" height="54.36"/>
  </clipPath>
  <clipPath id="p7fc8de9a13">
   <rect x="98.589352" y="8.64" width="13.421297" height="54.36"/>
  </clipPath>
  <clipPath id="p9af4e1b93c">
   <rect x="114.676883" y="8.64" width="13.646234" height="54.36"/>
  </clipPath>
 </defs>
</svg>
