<?xml version="1.0" encoding="utf-8" standalone="no"?>
<!DOCTYPE svg PUBLIC "-//W3C//DTD SVG 1.1//EN"
  "http://www.w3.org/Graphics/SVG/1.1/DTD/svg11.dtd">
<svg xmlns:xlink="http://www.w3.org/1999/xlink" width="882pt" height="72pt" viewBox="0 0 882 72" xmlns="http://www.w3.org/2000/svg" version="1.1">
 <metadata>
  <rdf:RDF xmlns:dc="http://purl.org/dc/elements/1.1/" xmlns:cc="http://creativecommons.org/ns#" xmlns:rdf="http://www.w3.org/1999/02/22-rdf-syntax-ns#">
   <cc:Work>
    <dc:type rdf:resource="http://purl.org/dc/dcmitype/StillImage"/>
    <dc:date>2023-12-21T11:43:20.242517</dc:date>
    <dc:format>image/svg+xml</dc:format>
    <dc:creator>
     <cc:Agent>
      <dc:title>Matplotlib v3.5.1, https://matplotlib.org/</dc:title>
     </cc:Agent>
    </dc:creator>
   </cc:Work>
  </rdf:RDF>
 </metadata>
 <defs>
  <style type="text/css">*{stroke-linejoin: round; stroke-linecap: butt}</style>
 </defs>
 <g id="figure_1">
  <g id="patch_1">
   <path d="M 0 72 
L 882 72 
L 882 0 
L 0 0 
z
" style="fill: #8fff9f"/>
  </g>
  <g id="axes_1">
   <g id="patch_2">
    <path d="M 8.624855 27.009931 
Q 8.699834 27.347338 8.774814 28.265834 
Q 8.849793 29.184331 8.999752 29.634207 
L 8.924772 31.058814 
M 7.275228 27.309848 
Q 7.237738 27.309848 7.200248 27.534786 
Q 7.237738 27.684745 7.350207 28.828179 
Q 7.462676 29.971614 7.725103 30.533959 
" clip-path="url(#p4da9ccc945)" style="fill: none; stroke: #000000; stroke-linejoin: miter"/>
   </g>
  </g>
  <g id="axes_2">
   <g id="patch_3">
    <path d="M 30.429559 25.172938 
Q 29.492317 28.17211 28.198924 31.283752 
Q 26.905531 34.395393 24.937324 38.669214 
Q 22.969117 42.943034 22.219324 44.630069 
L 19.969945 48.454014 
M 18.170441 25.735283 
Q 19.182662 27.759724 21.394552 31.396221 
Q 23.606441 35.032717 24.468703 36.644772 
" clip-path="url(#p848a83e3b2)" style="fill: none; stroke: #000000; stroke-linejoin: miter"/>
   </g>
  </g>
  <g id="axes_3">
   <g id="patch_4">
    <path d="M 34.257798 38.160826 
Q 37.230275 39.535596 41.949083 39.721376 
Q 43.472477 39.721376 44.159862 38.550963 
Q 44.847248 37.38055 44.847248 35.82 
Q 44.847248 35.299817 44.754358 34.909679 
Q 44.661468 34.519541 44.419954 34.296606 
Q 44.17844 34.07367 44.011239 33.943624 
Q 43.844037 33.813578 43.398165 33.757844 
Q 42.952294 33.70211 42.747936 33.683532 
Q 42.543578 33.664954 41.967661 33.683532 
Q 41.391743 33.70211 41.168807 33.70211 
Q 39.125229 33.70211 37.638991 35.578486 
Q 36.152752 37.454862 36.152752 39.609908 
Q 36.152752 42.619541 38.084862 44.570229 
Q 40.016972 46.520917 43.063761 46.520917 
Q 45.218807 46.818165 46.742202 44.29156 
" clip-path="url(#pb4c27190d7)" style="fill: none; stroke: #000000; stroke-linejoin: miter"/>
   </g>
  </g>
  <g id="axes_4">
   <g id="patch_5">
    <path d="M 51.920069 39.868883 
L 51.920069 39.419007 
Q 51.920069 37.769462 53.663338 36.682262 
Q 55.406607 35.595062 57.093641 35.595062 
Q 59.305531 35.595062 60.673903 36.794731 
Q 62.042276 37.9944 62.042276 40.20629 
Q 62.042276 42.30571 60.224028 43.336676 
Q 58.405779 44.367641 56.19389 44.367641 
Q 55.519076 44.367641 55.012966 44.255172 
Q 54.506855 44.142703 53.888276 43.917766 
Q 53.269697 43.692828 52.819821 43.580359 
L 51.695131 42.568138 
M 51.357724 36.832221 
Q 51.8076 38.444276 52.070028 40.262524 
Q 52.332455 42.080772 52.38869 43.749062 
Q 52.444924 45.417352 52.482414 47.27309 
Q 52.519903 49.128828 52.482414 50.778372 
L 52.369945 57.863917 
" clip-path="url(#p9b18a6ef55)" style="fill: none; stroke: #000000; stroke-linejoin: miter"/>
   </g>
  </g>
  <g id="axes_5">
   <g id="patch_6">
    <path d="M 72.187697 39.981352 
Q 73.199917 40.956083 73.537324 42.905545 
Q 73.724772 43.955255 73.312386 46.167145 
L 72.075228 47.629241 
" clip-path="url(#p952cea2421)" style="fill: none; stroke: #000000; stroke-linejoin: miter"/>
   </g>
  </g>
  <g id="axes_6"/>
  <g id="axes_7">
   <g id="patch_7">
    <path d="M 100.163917 36.382345 
Q 100.126428 36.494814 100.257641 36.701007 
Q 100.388855 36.9072 100.276386 37.057159 
L 100.276386 39.306538 
Q 100.276386 40.506207 100.613793 41.724621 
Q 100.9512 42.943034 101.813462 43.93651 
Q 102.675724 44.929986 103.875393 44.929986 
Q 105.112552 44.929986 105.787366 43.861531 
Q 106.462179 42.793076 106.912055 41.143531 
Q 107.361931 39.493986 107.699338 38.969131 
L 108.486621 36.382345 
L 108.261683 42.680607 
L 108.261683 45.154924 
Q 108.261683 47.066897 108.992731 51.00331 
Q 109.723779 54.939724 109.723779 56.964166 
Q 110.473572 59.213545 109.386372 60.188276 
Q 108.299172 61.163007 106.237241 60.78811 
Q 104.437738 60.488193 103.519241 60.169531 
Q 102.600745 59.850869 100.613793 58.988607 
L 100.501324 58.426262 
" clip-path="url(#p1729549fc7)" style="fill: none; stroke: #000000; stroke-linejoin: miter"/>
   </g>
  </g>
  <g id="axes_8">
   <g id="patch_8">
    <path d="M 115.257798 38.160826 
Q 118.230275 39.535596 122.949083 39.721376 
Q 124.472477 39.721376 125.159862 38.550963 
Q 125.847248 37.38055 125.847248 35.82 
Q 125.847248 35.299817 125.754358 34.909679 
Q 125.661468 34.519541 125.419954 34.296606 
Q 125.17844 34.07367 125.011239 33.943624 
Q 124.844037 33.813578 124.398165 33.757844 
Q 123.952294 33.70211 123.747936 33.683532 
Q 123.543578 33.664954 122.967661 33.683532 
Q 122.391743 33.70211 122.168807 33.70211 
Q 120.125229 33.70211 118.638991 35.578486 
Q 117.152752 37.454862 117.152752 39.609908 
Q 117.152752 42.619541 119.084862 44.570229 
Q 121.016972 46.520917 124.063761 46.520917 
Q 126.218807 46.818165 127.742202 44.29156 
" clip-path="url(#p7a98168728)" style="fill: none; stroke: #000000; stroke-linejoin: miter"/>
   </g>
  </g>
  <g id="axes_9">
   <g id="patch_9">
    <path d="M 132.920069 39.868883 
L 132.920069 39.419007 
Q 132.920069 37.769462 134.663338 36.682262 
Q 136.406607 35.595062 138.093641 35.595062 
Q 140.305531 35.595062 141.673903 36.794731 
Q 143.042276 37.9944 143.042276 40.20629 
Q 143.042276 42.30571 141.224028 43.336676 
Q 139.405779 44.367641 137.19389 44.367641 
Q 136.519076 44.367641 136.012966 44.255172 
Q 135.506855 44.142703 134.888276 43.917766 
Q 134.269697 43.692828 133.819821 43.580359 
L 132.695131 42.568138 
M 132.357724 36.832221 
Q 132.8076 38.444276 133.070028 40.262524 
Q 133.332455 42.080772 133.38869 43.749062 
Q 133.444924 45.417352 133.482414 47.27309 
Q 133.519903 49.128828 133.482414 50.778372 
L 133.369945 57.863917 
" clip-path="url(#p9ae314e69a)" style="fill: none; stroke: #000000; stroke-linejoin: miter"/>
   </g>
  </g>
  <g id="axes_10">
   <g id="patch_10">
    <path d="M 153.187697 39.981352 
Q 154.199917 40.956083 154.537324 42.905545 
Q 154.724772 43.955255 154.312386 46.167145 
L 153.075228 47.629241 
" clip-path="url(#p08037313e4)" style="fill: none; stroke: #000000; stroke-linejoin: miter"/>
   </g>
  </g>
  <g id="axes_11"/>
  <g id="axes_12">
   <g id="patch_11">
    <path d="M 181.463834 37.95691 
L 182.138648 37.95691 
Q 182.850952 37.95691 183.638234 37.881931 
Q 184.425517 37.806952 185.381503 37.675738 
Q 186.33749 37.544524 186.862345 37.507034 
L 191.136166 35.82 
M 187.087283 30.42149 
L 187.087283 31.43371 
Q 187.087283 33.383172 186.412469 37.207117 
Q 185.737655 41.031062 185.737655 43.018014 
Q 185.737655 43.805297 185.737655 44.105214 
Q 185.737655 44.405131 185.831379 45.042455 
Q 185.925103 45.679779 186.112552 45.960952 
Q 186.3 46.242124 186.693641 46.485807 
Q 187.087283 46.72949 187.649628 46.72949 
Q 187.762097 46.692 188.080759 46.72949 
Q 188.399421 46.766979 188.586869 46.710745 
Q 188.774317 46.65451 188.774317 46.392083 
" clip-path="url(#p49395764ce)" style="fill: none; stroke: #000000; stroke-linejoin: miter"/>
   </g>
  </g>
  <g id="axes_13">
   <g id="patch_12">
    <path d="M 199.013462 35.932469 
Q 199.613297 35.257655 200.606772 34.826524 
Q 201.600248 34.395393 202.5 34.470372 
Q 203.137324 34.470372 203.62469 34.639076 
Q 204.112055 34.807779 204.430717 34.995228 
Q 204.749379 35.182676 204.974317 35.670041 
Q 205.199255 36.157407 205.311724 36.419834 
Q 205.424193 36.682262 205.480428 37.375821 
Q 205.536662 38.069379 205.555407 38.331807 
Q 205.574152 38.594234 205.555407 39.419007 
Q 205.536662 40.243779 205.536662 40.431228 
Q 205.536662 41.368469 205.367959 43.242952 
Q 205.199255 45.117434 205.199255 46.054676 
Q 205.199255 46.467062 205.25549 46.823214 
Q 205.311724 47.179366 205.405448 47.610497 
Q 205.499172 48.041628 205.536662 48.304055 
L 205.986538 48.528993 
M 199.463338 23.111007 
Q 199.688276 24.798041 199.688276 29.971614 
L 199.688276 42.3432 
L 199.350869 46.841959 
L 199.125931 47.74171 
" clip-path="url(#p088574e62b)" style="fill: none; stroke: #000000; stroke-linejoin: miter"/>
   </g>
  </g>
  <g id="axes_14">
   <g id="patch_13">
    <path d="M 224.243923 36.441748 
Q 223.034968 35.094627 219.062687 35.094627 
Q 217.542857 35.094627 216.765672 35.146439 
Q 215.988486 35.198252 214.98678 35.440043 
Q 213.985075 35.681834 213.501493 36.182687 
Q 213.01791 36.683539 212.672495 37.616162 
Q 212.327079 38.548785 212.327079 39.964989 
Q 212.327079 42.037484 213.743284 43.280981 
Q 215.159488 44.524478 217.093817 44.524478 
Q 219.753518 44.524478 222.516844 38.721493 
Q 223.863966 35.854542 223.863966 35.82 
Q 224.209382 35.578209 224.243923 36.441748 
Q 224.243923 37.512537 224.658422 40.362217 
Q 225.072921 43.211898 225.072921 44.524478 
" clip-path="url(#p2f1d96fac0)" style="fill: none; stroke: #000000; stroke-linejoin: miter"/>
   </g>
  </g>
  <g id="axes_15">
   <g id="patch_14">
    <path d="M 230.063834 37.95691 
L 230.738648 37.95691 
Q 231.450952 37.95691 232.238234 37.881931 
Q 233.025517 37.806952 233.981503 37.675738 
Q 234.93749 37.544524 235.462345 37.507034 
L 239.736166 35.82 
M 235.687283 30.42149 
L 235.687283 31.43371 
Q 235.687283 33.383172 235.012469 37.207117 
Q 234.337655 41.031062 234.337655 43.018014 
Q 234.337655 43.805297 234.337655 44.105214 
Q 234.337655 44.405131 234.431379 45.042455 
Q 234.525103 45.679779 234.712552 45.960952 
Q 234.9 46.242124 235.293641 46.485807 
Q 235.687283 46.72949 236.249628 46.72949 
Q 236.362097 46.692 236.680759 46.72949 
Q 236.999421 46.766979 237.186869 46.710745 
Q 237.374317 46.65451 237.374317 46.392083 
" clip-path="url(#p33be9fecda)" style="fill: none; stroke: #000000; stroke-linejoin: miter"/>
   </g>
  </g>
  <g id="axes_16">
   <g id="patch_15">
    <path d="M 251.025021 26.147669 
Q 250.987531 26.597545 251.025021 27.384828 
Q 251.06251 27.572276 251.006276 27.965917 
Q 250.950041 28.359559 250.987531 28.678221 
Q 251.025021 28.996883 251.249959 29.184331 
" clip-path="url(#pb8a30a8b59)" style="fill: none; stroke: #000000; stroke-linejoin: miter"/>
   </g>
  </g>
  <g id="axes_17">
   <g id="patch_16">
    <path d="M 262.857476 43.917766 
Q 263.157393 44.180193 264.169614 45.154924 
Q 265.181834 46.129655 265.744179 46.560786 
Q 266.306524 46.991917 267.33749 47.385559 
Q 268.368455 47.7792 269.380676 47.629241 
Q 270.05549 47.629241 270.52411 47.404303 
Q 270.992731 47.179366 271.217669 46.879448 
Q 271.442607 46.579531 271.573821 45.979697 
Q 271.705034 45.379862 271.723779 44.967476 
Q 271.742524 44.55509 271.742524 43.805297 
Q 271.742524 42.718097 270.842772 42.043283 
Q 269.943021 41.368469 268.649628 41.031062 
Q 267.356234 40.693655 266.062841 40.300014 
Q 264.769448 39.906372 263.869697 38.987876 
Q 262.969945 38.069379 262.969945 36.607283 
Q 262.969945 36.082428 263.138648 35.726276 
Q 263.307352 35.370124 263.700993 35.145186 
Q 264.094634 34.920248 264.375807 34.807779 
Q 264.656979 34.69531 265.313048 34.639076 
Q 265.969117 34.582841 266.156566 34.582841 
Q 266.344014 34.582841 267.018828 34.582841 
Q 268.218497 34.582841 268.799586 34.995228 
Q 269.380676 35.407614 269.699338 36.026193 
Q 270.018 36.644772 270.280428 36.832221 
" clip-path="url(#pb2624cd95e)" style="fill: none; stroke: #000000; stroke-linejoin: miter"/>
   </g>
  </g>
  <g id="axes_18"/>
  <g id="axes_19">
   <g id="patch_17">
    <path d="M 305.243923 36.441748 
Q 304.034968 35.094627 300.062687 35.094627 
Q 298.542857 35.094627 297.765672 35.146439 
Q 296.988486 35.198252 295.98678 35.440043 
Q 294.985075 35.681834 294.501493 36.182687 
Q 294.01791 36.683539 293.672495 37.616162 
Q 293.327079 38.548785 293.327079 39.964989 
Q 293.327079 42.037484 294.743284 43.280981 
Q 296.159488 44.524478 298.093817 44.524478 
Q 300.753518 44.524478 303.516844 38.721493 
Q 304.863966 35.854542 304.863966 35.82 
Q 305.209382 35.578209 305.243923 36.441748 
Q 305.243923 37.512537 305.658422 40.362217 
Q 306.072921 43.211898 306.072921 44.524478 
" clip-path="url(#pae11d9a786)" style="fill: none; stroke: #000000; stroke-linejoin: miter"/>
   </g>
  </g>
  <g id="axes_20">
   <g id="patch_18">
    <path d="M 315.506359 28.621986 
Q 315.731297 30.34651 315.806276 32.146014 
Q 315.881255 33.945517 315.86251 36.551048 
Q 315.843766 39.156579 315.843766 40.093821 
Q 315.843766 40.13131 316.068703 45.829738 
L 316.293641 46.841959 
" clip-path="url(#pc935fb286c)" style="fill: none; stroke: #000000; stroke-linejoin: miter"/>
   </g>
  </g>
  <g id="axes_21">
   <g id="patch_19">
    <path d="M 332.718579 29.071862 
Q 332.343683 29.146841 332.212469 29.577972 
Q 332.081255 30.009103 332.156234 30.42149 
Q 332.156234 30.571448 332.193724 30.702662 
Q 332.231214 30.833876 332.287448 30.89011 
Q 332.343683 30.946345 332.399917 31.040069 
Q 332.456152 31.133793 332.493641 31.208772 
L 332.60611 29.859145 
M 332.60611 34.020497 
Q 331.706359 39.006621 331.481421 42.793076 
L 331.931297 45.379862 
L 332.268703 46.054676 
" clip-path="url(#p1bdc133a55)" style="fill: none; stroke: #000000; stroke-linejoin: miter"/>
   </g>
  </g>
  <g id="axes_22">
   <g id="patch_20">
    <path d="M 344.813462 32.783338 
Q 345.338317 34.507862 345.469531 36.457324 
Q 345.600745 38.406786 345.525766 40.956083 
Q 345.450786 43.505379 345.488276 44.705048 
L 345.600745 46.054676 
L 345.600745 45.829738 
Q 345.600745 44.667559 345.319572 42.30571 
Q 345.0384 39.943862 345.0384 38.744193 
Q 345.0384 36.419834 346.050621 34.882759 
Q 347.062841 33.345683 349.087283 33.345683 
Q 349.799586 33.345683 350.136993 33.626855 
Q 350.4744 33.908028 350.736828 34.432883 
Q 350.999255 34.957738 351.336662 35.257655 
L 351.786538 36.832221 
" clip-path="url(#p07c2fb6f91)" style="fill: none; stroke: #000000; stroke-linejoin: miter"/>
   </g>
  </g>
  <g id="axes_23">
   <g id="patch_21">
    <path d="M 369.287191 39.096404 
Q 369.03236 39.023596 368.06764 38.623146 
Q 367.102921 38.222697 366.44764 38.077079 
Q 365.79236 37.931461 365.137079 38.00427 
Q 362.515955 38.00427 360.877753 40.388764 
Q 359.239551 42.773258 359.239551 45.430787 
Q 359.239551 47.068989 364.481798 47.068989 
Q 366.047191 47.068989 367.375955 45.558202 
Q 368.704719 44.047416 369.378202 42.172584 
Q 370.051685 40.297753 370.051685 38.768764 
Q 370.051685 37.27618 370.015281 36.984944 
L 369.942472 38.077079 
Q 369.942472 38.550337 369.942472 38.987191 
Q 369.978876 40.188539 370.179101 42.281798 
Q 370.379326 44.375056 370.543146 46.049663 
Q 370.706966 47.72427 370.743371 49.872135 
Q 370.779775 52.02 370.615955 53.658202 
Q 370.452135 55.296404 369.887865 56.971011 
Q 369.323596 58.645618 368.395281 59.737753 
Q 367.466966 60.829888 365.865169 61.521573 
Q 364.263371 62.213258 362.115506 62.213258 
Q 360.477303 62.213258 359.385169 61.466966 
Q 358.293034 60.720674 358.293034 59.155281 
Q 358.220225 58.936854 358.256629 58.936854 
Q 358.293034 58.936854 358.402247 58.936854 
Q 358.511461 58.936854 358.511461 58.82764 
" clip-path="url(#p971e941e61)" style="fill: none; stroke: #000000; stroke-linejoin: miter"/>
   </g>
  </g>
  <g id="axes_24">
   <g id="patch_22">
    <path d="M 377.213462 35.932469 
Q 377.813297 35.257655 378.806772 34.826524 
Q 379.800248 34.395393 380.7 34.470372 
Q 381.337324 34.470372 381.82469 34.639076 
Q 382.312055 34.807779 382.630717 34.995228 
Q 382.949379 35.182676 383.174317 35.670041 
Q 383.399255 36.157407 383.511724 36.419834 
Q 383.624193 36.682262 383.680428 37.375821 
Q 383.736662 38.069379 383.755407 38.331807 
Q 383.774152 38.594234 383.755407 39.419007 
Q 383.736662 40.243779 383.736662 40.431228 
Q 383.736662 41.368469 383.567959 43.242952 
Q 383.399255 45.117434 383.399255 46.054676 
Q 383.399255 46.467062 383.45549 46.823214 
Q 383.511724 47.179366 383.605448 47.610497 
Q 383.699172 48.041628 383.736662 48.304055 
L 384.186538 48.528993 
M 377.663338 23.111007 
Q 377.888276 24.798041 377.888276 29.971614 
L 377.888276 42.3432 
L 377.550869 46.841959 
L 377.325931 47.74171 
" clip-path="url(#pfbe8235286)" style="fill: none; stroke: #000000; stroke-linejoin: miter"/>
   </g>
  </g>
  <g id="axes_25">
   <g id="patch_23">
    <path d="M 392.063834 37.95691 
L 392.738648 37.95691 
Q 393.450952 37.95691 394.238234 37.881931 
Q 395.025517 37.806952 395.981503 37.675738 
Q 396.93749 37.544524 397.462345 37.507034 
L 401.736166 35.82 
M 397.687283 30.42149 
L 397.687283 31.43371 
Q 397.687283 33.383172 397.012469 37.207117 
Q 396.337655 41.031062 396.337655 43.018014 
Q 396.337655 43.805297 396.337655 44.105214 
Q 396.337655 44.405131 396.431379 45.042455 
Q 396.525103 45.679779 396.712552 45.960952 
Q 396.9 46.242124 397.293641 46.485807 
Q 397.687283 46.72949 398.249628 46.72949 
Q 398.362097 46.692 398.680759 46.72949 
Q 398.999421 46.766979 399.186869 46.710745 
Q 399.374317 46.65451 399.374317 46.392083 
" clip-path="url(#p83c20b2c7f)" style="fill: none; stroke: #000000; stroke-linejoin: miter"/>
   </g>
  </g>
  <g id="axes_26">
   <g id="patch_24">
    <path d="M 412.387697 39.981352 
Q 413.399917 40.956083 413.737324 42.905545 
Q 413.924772 43.955255 413.512386 46.167145 
L 412.275228 47.629241 
" clip-path="url(#p4d8bb5100d)" style="fill: none; stroke: #000000; stroke-linejoin: miter"/>
   </g>
  </g>
  <g id="axes_27"/>
  <g id="axes_28">
   <g id="patch_25">
    <path d="M 448.7616 35.032717 
Q 447.71189 34.582841 446.737159 34.69531 
Q 443.700497 35.032717 441.788524 36.701007 
Q 439.876552 38.369297 439.876552 41.330979 
Q 439.876552 43.917766 441.882248 45.6048 
Q 443.887945 47.291834 446.512221 47.291834 
Q 448.874069 47.291834 449.998759 45.361117 
Q 451.123448 43.4304 451.123448 40.881103 
Q 451.123448 39.643945 450.711062 38.706703 
Q 450.298676 37.769462 449.773821 37.300841 
Q 449.248966 36.832221 448.499172 36.119917 
Q 447.749379 35.407614 447.299503 34.69531 
L 446.062345 34.245434 
" clip-path="url(#pb128487096)" style="fill: none; stroke: #000000; stroke-linejoin: miter"/>
   </g>
  </g>
  <g id="axes_29">
   <g id="patch_26">
    <path d="M 461.306359 28.621986 
Q 461.531297 30.34651 461.606276 32.146014 
Q 461.681255 33.945517 461.66251 36.551048 
Q 461.643766 39.156579 461.643766 40.093821 
Q 461.643766 40.13131 461.868703 45.829738 
L 462.093641 46.841959 
" clip-path="url(#p446ab2d0aa)" style="fill: none; stroke: #000000; stroke-linejoin: miter"/>
   </g>
  </g>
  <g id="axes_30">
   <g id="patch_27">
    <path d="M 477.825021 26.147669 
Q 477.787531 26.597545 477.825021 27.384828 
Q 477.86251 27.572276 477.806276 27.965917 
Q 477.750041 28.359559 477.787531 28.678221 
Q 477.825021 28.996883 478.049959 29.184331 
" clip-path="url(#pccf9cee25a)" style="fill: none; stroke: #000000; stroke-linejoin: miter"/>
   </g>
  </g>
  <g id="axes_31"/>
  <g id="axes_32">
   <g id="patch_28">
    <path d="M 516.548571 31.763193 
Q 514.80605 29.585042 512.859328 28.972437 
Q 510.912605 28.359832 508.135462 29.285546 
Q 506.256807 29.966218 504.909076 31.817647 
Q 503.561345 33.669076 503.561345 35.411597 
Q 503.561345 38.760504 506.188739 41.415126 
Q 508.816134 44.069748 512.056134 44.069748 
Q 512.900168 44.069748 513.58084 43.729412 
Q 514.261513 43.389076 514.656303 42.953445 
Q 515.051092 42.517815 515.622857 41.918824 
Q 516.194622 41.319832 516.711933 40.965882 
L 517.038655 40.149076 
" clip-path="url(#p0091a0ae36)" style="fill: none; stroke: #000000; stroke-linejoin: miter"/>
   </g>
  </g>
  <g id="axes_33">
   <g id="patch_29">
    <path d="M 532.043923 36.441748 
Q 530.834968 35.094627 526.862687 35.094627 
Q 525.342857 35.094627 524.565672 35.146439 
Q 523.788486 35.198252 522.78678 35.440043 
Q 521.785075 35.681834 521.301493 36.182687 
Q 520.81791 36.683539 520.472495 37.616162 
Q 520.127079 38.548785 520.127079 39.964989 
Q 520.127079 42.037484 521.543284 43.280981 
Q 522.959488 44.524478 524.893817 44.524478 
Q 527.553518 44.524478 530.316844 38.721493 
Q 531.663966 35.854542 531.663966 35.82 
Q 532.009382 35.578209 532.043923 36.441748 
Q 532.043923 37.512537 532.458422 40.362217 
Q 532.872921 43.211898 532.872921 44.524478 
" clip-path="url(#p91b77e238f)" style="fill: none; stroke: #000000; stroke-linejoin: miter"/>
   </g>
  </g>
  <g id="axes_34">
   <g id="patch_30">
    <path d="M 539.213462 32.783338 
Q 539.738317 34.507862 539.869531 36.457324 
Q 540.000745 38.406786 539.925766 40.956083 
Q 539.850786 43.505379 539.888276 44.705048 
L 540.000745 46.054676 
L 540.000745 45.829738 
Q 540.000745 44.667559 539.719572 42.30571 
Q 539.4384 39.943862 539.4384 38.744193 
Q 539.4384 36.419834 540.450621 34.882759 
Q 541.462841 33.345683 543.487283 33.345683 
Q 544.199586 33.345683 544.536993 33.626855 
Q 544.8744 33.908028 545.136828 34.432883 
Q 545.399255 34.957738 545.736662 35.257655 
L 546.186538 36.832221 
" clip-path="url(#p91944cf7a3)" style="fill: none; stroke: #000000; stroke-linejoin: miter"/>
   </g>
  </g>
  <g id="axes_35">
   <g id="patch_31">
    <path d="M 562.1616 35.032717 
Q 561.11189 34.582841 560.137159 34.69531 
Q 557.100497 35.032717 555.188524 36.701007 
Q 553.276552 38.369297 553.276552 41.330979 
Q 553.276552 43.917766 555.282248 45.6048 
Q 557.287945 47.291834 559.912221 47.291834 
Q 562.274069 47.291834 563.398759 45.361117 
Q 564.523448 43.4304 564.523448 40.881103 
Q 564.523448 39.643945 564.111062 38.706703 
Q 563.698676 37.769462 563.173821 37.300841 
Q 562.648966 36.832221 561.899172 36.119917 
Q 561.149379 35.407614 560.699503 34.69531 
L 559.462345 34.245434 
" clip-path="url(#pd5e4167c29)" style="fill: none; stroke: #000000; stroke-linejoin: miter"/>
   </g>
  </g>
  <g id="axes_36">
   <g id="patch_32">
    <path d="M 574.706359 28.621986 
Q 574.931297 30.34651 575.006276 32.146014 
Q 575.081255 33.945517 575.06251 36.551048 
Q 575.043766 39.156579 575.043766 40.093821 
Q 575.043766 40.13131 575.268703 45.829738 
L 575.493641 46.841959 
" clip-path="url(#p7214b3920a)" style="fill: none; stroke: #000000; stroke-linejoin: miter"/>
   </g>
  </g>
  <g id="axes_37"/>
  <g id="axes_38">
   <g id="patch_33">
    <path d="M 604.013462 35.932469 
Q 604.613297 35.257655 605.606772 34.826524 
Q 606.600248 34.395393 607.5 34.470372 
Q 608.137324 34.470372 608.62469 34.639076 
Q 609.112055 34.807779 609.430717 34.995228 
Q 609.749379 35.182676 609.974317 35.670041 
Q 610.199255 36.157407 610.311724 36.419834 
Q 610.424193 36.682262 610.480428 37.375821 
Q 610.536662 38.069379 610.555407 38.331807 
Q 610.574152 38.594234 610.555407 39.419007 
Q 610.536662 40.243779 610.536662 40.431228 
Q 610.536662 41.368469 610.367959 43.242952 
Q 610.199255 45.117434 610.199255 46.054676 
Q 610.199255 46.467062 610.25549 46.823214 
Q 610.311724 47.179366 610.405448 47.610497 
Q 610.499172 48.041628 610.536662 48.304055 
L 610.986538 48.528993 
M 604.463338 23.111007 
Q 604.688276 24.798041 604.688276 29.971614 
L 604.688276 42.3432 
L 604.350869 46.841959 
L 604.125931 47.74171 
" clip-path="url(#pc80a6ac974)" style="fill: none; stroke: #000000; stroke-linejoin: miter"/>
   </g>
  </g>
  <g id="axes_39">
   <g id="patch_34">
    <path d="M 617.457798 38.160826 
Q 620.430275 39.535596 625.149083 39.721376 
Q 626.672477 39.721376 627.359862 38.550963 
Q 628.047248 37.38055 628.047248 35.82 
Q 628.047248 35.299817 627.954358 34.909679 
Q 627.861468 34.519541 627.619954 34.296606 
Q 627.37844 34.07367 627.211239 33.943624 
Q 627.044037 33.813578 626.598165 33.757844 
Q 626.152294 33.70211 625.947936 33.683532 
Q 625.743578 33.664954 625.167661 33.683532 
Q 624.591743 33.70211 624.368807 33.70211 
Q 622.325229 33.70211 620.838991 35.578486 
Q 619.352752 37.454862 619.352752 39.609908 
Q 619.352752 42.619541 621.284862 44.570229 
Q 623.216972 46.520917 626.263761 46.520917 
Q 628.418807 46.818165 629.942202 44.29156 
" clip-path="url(#p3e14a13948)" style="fill: none; stroke: #000000; stroke-linejoin: miter"/>
   </g>
  </g>
  <g id="axes_40">
   <g id="patch_35">
    <path d="M 636.413462 32.783338 
Q 636.938317 34.507862 637.069531 36.457324 
Q 637.200745 38.406786 637.125766 40.956083 
Q 637.050786 43.505379 637.088276 44.705048 
L 637.200745 46.054676 
L 637.200745 45.829738 
Q 637.200745 44.667559 636.919572 42.30571 
Q 636.6384 39.943862 636.6384 38.744193 
Q 636.6384 36.419834 637.650621 34.882759 
Q 638.662841 33.345683 640.687283 33.345683 
Q 641.399586 33.345683 641.736993 33.626855 
Q 642.0744 33.908028 642.336828 34.432883 
Q 642.599255 34.957738 642.936662 35.257655 
L 643.386538 36.832221 
" clip-path="url(#p368d67c524)" style="fill: none; stroke: #000000; stroke-linejoin: miter"/>
   </g>
  </g>
  <g id="axes_41">
   <g id="patch_36">
    <path d="M 649.857798 38.160826 
Q 652.830275 39.535596 657.549083 39.721376 
Q 659.072477 39.721376 659.759862 38.550963 
Q 660.447248 37.38055 660.447248 35.82 
Q 660.447248 35.299817 660.354358 34.909679 
Q 660.261468 34.519541 660.019954 34.296606 
Q 659.77844 34.07367 659.611239 33.943624 
Q 659.444037 33.813578 658.998165 33.757844 
Q 658.552294 33.70211 658.347936 33.683532 
Q 658.143578 33.664954 657.567661 33.683532 
Q 656.991743 33.70211 656.768807 33.70211 
Q 654.725229 33.70211 653.238991 35.578486 
Q 651.752752 37.454862 651.752752 39.609908 
Q 651.752752 42.619541 653.684862 44.570229 
Q 655.616972 46.520917 658.663761 46.520917 
Q 660.818807 46.818165 662.342202 44.29156 
" clip-path="url(#pba31836a9e)" style="fill: none; stroke: #000000; stroke-linejoin: miter"/>
   </g>
  </g>
  <g id="axes_42"/>
  <g id="axes_43">
   <g id="patch_37">
    <path d="M 693.756735 34.365306 
Q 693.756735 34.365306 693.260816 34.365306 
Q 692.467347 34.365306 690.979592 34.067755 
Q 689.491837 33.770204 688.698367 33.770204 
Q 685.921224 33.770204 683.987143 35.224898 
Q 682.053061 36.679592 682.053061 39.423673 
Q 682.053061 40.94449 683.540816 42.399184 
Q 685.028571 43.853878 686.962653 44.663878 
Q 688.896735 45.473878 690.38449 45.473878 
Q 691.310204 45.473878 692.00449 45.110204 
Q 692.698776 44.746531 693.442653 44.118367 
Q 694.186531 43.490204 694.748571 43.192653 
L 694.946939 42.696735 
" clip-path="url(#pe771a8e410)" style="fill: none; stroke: #000000; stroke-linejoin: miter"/>
   </g>
  </g>
  <g id="axes_44">
   <g id="patch_38">
    <path d="M 710.243923 36.441748 
Q 709.034968 35.094627 705.062687 35.094627 
Q 703.542857 35.094627 702.765672 35.146439 
Q 701.988486 35.198252 700.98678 35.440043 
Q 699.985075 35.681834 699.501493 36.182687 
Q 699.01791 36.683539 698.672495 37.616162 
Q 698.327079 38.548785 698.327079 39.964989 
Q 698.327079 42.037484 699.743284 43.280981 
Q 701.159488 44.524478 703.093817 44.524478 
Q 705.753518 44.524478 708.516844 38.721493 
Q 709.863966 35.854542 709.863966 35.82 
Q 710.209382 35.578209 710.243923 36.441748 
Q 710.243923 37.512537 710.658422 40.362217 
Q 711.072921 43.211898 711.072921 44.524478 
" clip-path="url(#pde14a01b18)" style="fill: none; stroke: #000000; stroke-linejoin: miter"/>
   </g>
  </g>
  <g id="axes_45">
   <g id="patch_39">
    <path d="M 716.438731 37.282097 
L 716.438731 37.844441 
Q 716.701159 39.868883 716.738648 41.312234 
Q 716.776138 42.755586 716.682414 44.667559 
Q 716.58869 46.579531 716.58869 48.191586 
L 716.663669 39.643945 
Q 716.663669 38.144359 718.256979 37.507034 
Q 719.85029 36.86971 721.274897 37.282097 
Q 723.186869 37.844441 724.105366 39.04411 
Q 725.023862 40.243779 725.080097 41.668386 
Q 725.136331 43.092993 725.173821 44.817517 
Q 725.21131 46.542041 725.361269 48.191586 
" clip-path="url(#p20ab2260c0)" style="fill: none; stroke: #000000; stroke-linejoin: miter"/>
   </g>
  </g>
  <g id="axes_46"/>
  <g id="axes_47">
   <g id="patch_40">
    <path d="M 758.087191 39.096404 
Q 757.83236 39.023596 756.86764 38.623146 
Q 755.902921 38.222697 755.24764 38.077079 
Q 754.59236 37.931461 753.937079 38.00427 
Q 751.315955 38.00427 749.677753 40.388764 
Q 748.039551 42.773258 748.039551 45.430787 
Q 748.039551 47.068989 753.281798 47.068989 
Q 754.847191 47.068989 756.175955 45.558202 
Q 757.504719 44.047416 758.178202 42.172584 
Q 758.851685 40.297753 758.851685 38.768764 
Q 758.851685 37.27618 758.815281 36.984944 
L 758.742472 38.077079 
Q 758.742472 38.550337 758.742472 38.987191 
Q 758.778876 40.188539 758.979101 42.281798 
Q 759.179326 44.375056 759.343146 46.049663 
Q 759.506966 47.72427 759.543371 49.872135 
Q 759.579775 52.02 759.415955 53.658202 
Q 759.252135 55.296404 758.687865 56.971011 
Q 758.123596 58.645618 757.195281 59.737753 
Q 756.266966 60.829888 754.665169 61.521573 
Q 753.063371 62.213258 750.915506 62.213258 
Q 749.277303 62.213258 748.185169 61.466966 
Q 747.093034 60.720674 747.093034 59.155281 
Q 747.020225 58.936854 747.056629 58.936854 
Q 747.093034 58.936854 747.202247 58.936854 
Q 747.311461 58.936854 747.311461 58.82764 
" clip-path="url(#p46b27abb5e)" style="fill: none; stroke: #000000; stroke-linejoin: miter"/>
   </g>
  </g>
  <g id="axes_48">
   <g id="patch_41">
    <path d="M 763.257798 38.160826 
Q 766.230275 39.535596 770.949083 39.721376 
Q 772.472477 39.721376 773.159862 38.550963 
Q 773.847248 37.38055 773.847248 35.82 
Q 773.847248 35.299817 773.754358 34.909679 
Q 773.661468 34.519541 773.419954 34.296606 
Q 773.17844 34.07367 773.011239 33.943624 
Q 772.844037 33.813578 772.398165 33.757844 
Q 771.952294 33.70211 771.747936 33.683532 
Q 771.543578 33.664954 770.967661 33.683532 
Q 770.391743 33.70211 770.168807 33.70211 
Q 768.125229 33.70211 766.638991 35.578486 
Q 765.152752 37.454862 765.152752 39.609908 
Q 765.152752 42.619541 767.084862 44.570229 
Q 769.016972 46.520917 772.063761 46.520917 
Q 774.218807 46.818165 775.742202 44.29156 
" clip-path="url(#pa447b15de7)" style="fill: none; stroke: #000000; stroke-linejoin: miter"/>
   </g>
  </g>
  <g id="axes_49">
   <g id="patch_42">
    <path d="M 780.863834 37.95691 
L 781.538648 37.95691 
Q 782.250952 37.95691 783.038234 37.881931 
Q 783.825517 37.806952 784.781503 37.675738 
Q 785.73749 37.544524 786.262345 37.507034 
L 790.536166 35.82 
M 786.487283 30.42149 
L 786.487283 31.43371 
Q 786.487283 33.383172 785.812469 37.207117 
Q 785.137655 41.031062 785.137655 43.018014 
Q 785.137655 43.805297 785.137655 44.105214 
Q 785.137655 44.405131 785.231379 45.042455 
Q 785.325103 45.679779 785.512552 45.960952 
Q 785.7 46.242124 786.093641 46.485807 
Q 786.487283 46.72949 787.049628 46.72949 
Q 787.162097 46.692 787.480759 46.72949 
Q 787.799421 46.766979 787.986869 46.710745 
Q 788.174317 46.65451 788.174317 46.392083 
" clip-path="url(#p03bd015200)" style="fill: none; stroke: #000000; stroke-linejoin: miter"/>
   </g>
  </g>
 </g>
 <defs>
  <clipPath id="p4da9ccc945">
   <rect x="5.325766" y="8.64" width="5.548469" height="54.36"/>
  </clipPath>
  <clipPath id="p848a83e3b2">
   <rect x="16.295959" y="8.64" width="16.008083" height="54.36"/>
  </clipPath>
  <clipPath id="pb4c27190d7">
   <rect x="32.4" y="8.881927" width="16.2" height="53.876147"/>
  </clipPath>
  <clipPath id="p9b18a6ef55">
   <rect x="49.483241" y="8.64" width="14.433517" height="54.36"/>
  </clipPath>
  <clipPath id="p952cea2421">
   <rect x="70.200745" y="8.64" width="5.39851" height="54.36"/>
  </clipPath>
  <clipPath id="p1729549fc7">
   <rect x="98.251945" y="8.64" width="14.09611" height="54.36"/>
  </clipPath>
  <clipPath id="p7a98168728">
   <rect x="113.4" y="8.881927" width="16.2" height="53.876147"/>
  </clipPath>
  <clipPath id="p9ae314e69a">
   <rect x="130.483241" y="8.64" width="14.433517" height="54.36"/>
  </clipPath>
  <clipPath id="p08037313e4">
   <rect x="151.200745" y="8.64" width="5.39851" height="54.36"/>
  </clipPath>
  <clipPath id="p49395764ce">
   <rect x="179.589352" y="8.64" width="13.421297" height="54.36"/>
  </clipPath>
  <clipPath id="p088574e62b">
   <rect x="197.138979" y="8.64" width="10.722041" height="54.36"/>
  </clipPath>
  <clipPath id="p2f1d96fac0">
   <rect x="210.6" y="10.777356" width="16.2" height="50.085288"/>
  </clipPath>
  <clipPath id="p33be9fecda">
   <rect x="228.189352" y="8.64" width="13.421297" height="54.36"/>
  </clipPath>
  <clipPath id="pb8a30a8b59">
   <rect x="249.075559" y="8.64" width="4.048883" height="54.36"/>
  </clipPath>
  <clipPath id="pb2624cd95e">
   <rect x="260.982993" y="8.64" width="12.634014" height="54.36"/>
  </clipPath>
  <clipPath id="pae11d9a786">
   <rect x="291.6" y="10.777356" width="16.2" height="50.085288"/>
  </clipPath>
  <clipPath id="pc935fb286c">
   <rect x="313.631876" y="8.64" width="4.536248" height="54.36"/>
  </clipPath>
  <clipPath id="p1bdc133a55">
   <rect x="329.606938" y="8.64" width="4.986124" height="54.36"/>
  </clipPath>
  <clipPath id="p07c2fb6f91">
   <rect x="342.938979" y="8.64" width="10.722041" height="54.36"/>
  </clipPath>
  <clipPath id="p971e941e61">
   <rect x="356.4" y="9.426742" width="16.2" height="52.786517"/>
  </clipPath>
  <clipPath id="pfbe8235286">
   <rect x="375.338979" y="8.64" width="10.722041" height="54.36"/>
  </clipPath>
  <clipPath id="p83c20b2c7f">
   <rect x="390.189352" y="8.64" width="13.421297" height="54.36"/>
  </clipPath>
  <clipPath id="p4d8bb5100d">
   <rect x="410.400745" y="8.64" width="5.39851" height="54.36"/>
  </clipPath>
  <clipPath id="pb128487096">
   <rect x="438.002069" y="8.64" width="14.995862" height="54.36"/>
  </clipPath>
  <clipPath id="p446ab2d0aa">
   <rect x="459.431876" y="8.64" width="4.536248" height="54.36"/>
  </clipPath>
  <clipPath id="pccf9cee25a">
   <rect x="475.875559" y="8.64" width="4.048883" height="54.36"/>
  </clipPath>
  <clipPath id="p0091a0ae36">
   <rect x="502.2" y="16.080504" width="16.2" height="39.478992"/>
  </clipPath>
  <clipPath id="p91b77e238f">
   <rect x="518.4" y="10.777356" width="16.2" height="50.085288"/>
  </clipPath>
  <clipPath id="p91944cf7a3">
   <rect x="537.338979" y="8.64" width="10.722041" height="54.36"/>
  </clipPath>
  <clipPath id="pd5e4167c29">
   <rect x="551.402069" y="8.64" width="14.995862" height="54.36"/>
  </clipPath>
  <clipPath id="p7214b3920a">
   <rect x="572.831876" y="8.64" width="4.536248" height="54.36"/>
  </clipPath>
  <clipPath id="pc80a6ac974">
   <rect x="602.138979" y="8.64" width="10.722041" height="54.36"/>
  </clipPath>
  <clipPath id="p3e14a13948">
   <rect x="615.6" y="8.881927" width="16.2" height="53.876147"/>
  </clipPath>
  <clipPath id="p368d67c524">
   <rect x="634.538979" y="8.64" width="10.722041" height="54.36"/>
  </clipPath>
  <clipPath id="pba31836a9e">
   <rect x="648" y="8.881927" width="16.2" height="53.876147"/>
  </clipPath>
  <clipPath id="pe771a8e410">
   <rect x="680.4" y="11.850612" width="16.2" height="47.938776"/>
  </clipPath>
  <clipPath id="pde14a01b18">
   <rect x="696.6" y="10.777356" width="16.2" height="50.085288"/>
  </clipPath>
  <clipPath id="p20ab2260c0">
   <rect x="714.564248" y="8.64" width="12.671503" height="54.36"/>
  </clipPath>
  <clipPath id="p46b27abb5e">
   <rect x="745.2" y="9.426742" width="16.2" height="52.786517"/>
  </clipPath>
  <clipPath id="pa447b15de7">
   <rect x="761.4" y="8.881927" width="16.2" height="53.876147"/>
  </clipPath>
  <clipPath id="p03bd015200">
   <rect x="778.989352" y="8.64" width="13.421297" height="54.36"/>
  </clipPath>
 </defs>
</svg>
