<?xml version="1.0" encoding="utf-8" standalone="no"?>
<!DOCTYPE svg PUBLIC "-//W3C//DTD SVG 1.1//EN"
  "http://www.w3.org/Graphics/SVG/1.1/DTD/svg11.dtd">
<svg xmlns:xlink="http://www.w3.org/1999/xlink" width="810pt" height="72pt" viewBox="0 0 810 72" xmlns="http://www.w3.org/2000/svg" version="1.1">
 <metadata>
  <rdf:RDF xmlns:dc="http://purl.org/dc/elements/1.1/" xmlns:cc="http://creativecommons.org/ns#" xmlns:rdf="http://www.w3.org/1999/02/22-rdf-syntax-ns#">
   <cc:Work>
    <dc:type rdf:resource="http://purl.org/dc/dcmitype/StillImage"/>
    <dc:date>2023-12-21T11:44:19.759634</dc:date>
    <dc:format>image/svg+xml</dc:format>
    <dc:creator>
     <cc:Agent>
      <dc:title>Matplotlib v3.5.1, https://matplotlib.org/</dc:title>
     </cc:Agent>
    </dc:creator>
   </cc:Work>
  </rdf:RDF>
 </metadata>
 <defs>
  <style type="text/css">*{stroke-linejoin: round; stroke-linecap: butt}</style>
 </defs>
 <g id="figure_1">
  <g id="patch_1">
   <path d="M 0 72 
L 810 72 
L 810 0 
L 0 0 
z
" style="fill: #8fff9f"/>
  </g>
  <g id="axes_1">
   <g id="patch_2">
    <path d="M 8.624855 27.009931 
Q 8.699834 27.347338 8.774814 28.265834 
Q 8.849793 29.184331 8.999752 29.634207 
L 8.924772 31.058814 
M 7.275228 27.309848 
Q 7.237738 27.309848 7.200248 27.534786 
Q 7.237738 27.684745 7.350207 28.828179 
Q 7.462676 29.971614 7.725103 30.533959 
" clip-path="url(#p39100f3c1f)" style="fill: none; stroke: #000000; stroke-linejoin: miter"/>
   </g>
  </g>
  <g id="axes_2">
   <g id="patch_3">
    <path d="M 29.890534 37.074733 
L 26.544578 37.158382 
L 29.221343 37.158382 
Q 29.249225 37.158382 29.458348 37.144441 
Q 29.66747 37.130499 29.834768 37.144441 
Q 30.002065 37.158382 30.211188 37.172324 
Q 30.42031 37.186265 30.531842 37.242031 
Q 30.643373 37.297797 30.643373 37.409329 
L 30.643373 41.340826 
Q 30.838554 42.205198 30.852496 43.585404 
Q 30.866437 44.965611 31.005852 45.718451 
M 30.308778 28.207952 
Q 27.520482 27.34358 25.624441 27.538761 
Q 17.594148 27.538761 17.594148 35.82 
Q 17.594148 37.074733 18.0821 38.678003 
Q 18.570052 40.281274 19.378657 41.759071 
Q 20.187263 43.236867 21.441997 44.254596 
Q 22.69673 45.272324 24.035112 45.272324 
Q 25.094664 45.272324 26.098451 44.533425 
Q 27.102238 43.794527 27.729604 42.88833 
Q 28.356971 41.982134 29.151635 40.824991 
Q 29.946299 39.667849 30.476076 39.165955 
L 30.308778 37.409329 
L 29.890534 37.074733 
" clip-path="url(#pa6faa5eb28)" style="fill: none; stroke: #000000; stroke-linejoin: miter"/>
   </g>
  </g>
  <g id="axes_3">
   <g id="patch_4">
    <path d="M 43.7616 35.032717 
Q 42.71189 34.582841 41.737159 34.69531 
Q 38.700497 35.032717 36.788524 36.701007 
Q 34.876552 38.369297 34.876552 41.330979 
Q 34.876552 43.917766 36.882248 45.6048 
Q 38.887945 47.291834 41.512221 47.291834 
Q 43.874069 47.291834 44.998759 45.361117 
Q 46.123448 43.4304 46.123448 40.881103 
Q 46.123448 39.643945 45.711062 38.706703 
Q 45.298676 37.769462 44.773821 37.300841 
Q 44.248966 36.832221 43.499172 36.119917 
Q 42.749379 35.407614 42.299503 34.69531 
L 41.062345 34.245434 
" clip-path="url(#p5130fe9071)" style="fill: none; stroke: #000000; stroke-linejoin: miter"/>
   </g>
  </g>
  <g id="axes_4">
   <g id="patch_5">
    <path d="M 52.257476 43.917766 
Q 52.557393 44.180193 53.569614 45.154924 
Q 54.581834 46.129655 55.144179 46.560786 
Q 55.706524 46.991917 56.73749 47.385559 
Q 57.768455 47.7792 58.780676 47.629241 
Q 59.45549 47.629241 59.92411 47.404303 
Q 60.392731 47.179366 60.617669 46.879448 
Q 60.842607 46.579531 60.973821 45.979697 
Q 61.105034 45.379862 61.123779 44.967476 
Q 61.142524 44.55509 61.142524 43.805297 
Q 61.142524 42.718097 60.242772 42.043283 
Q 59.343021 41.368469 58.049628 41.031062 
Q 56.756234 40.693655 55.462841 40.300014 
Q 54.169448 39.906372 53.269697 38.987876 
Q 52.369945 38.069379 52.369945 36.607283 
Q 52.369945 36.082428 52.538648 35.726276 
Q 52.707352 35.370124 53.100993 35.145186 
Q 53.494634 34.920248 53.775807 34.807779 
Q 54.056979 34.69531 54.713048 34.639076 
Q 55.369117 34.582841 55.556566 34.582841 
Q 55.744014 34.582841 56.418828 34.582841 
Q 57.618497 34.582841 58.199586 34.995228 
Q 58.780676 35.407614 59.099338 36.026193 
Q 59.418 36.644772 59.680428 36.832221 
" clip-path="url(#p45624e97e8)" style="fill: none; stroke: #000000; stroke-linejoin: miter"/>
   </g>
  </g>
  <g id="axes_5">
   <g id="patch_6">
    <path d="M 69.413462 35.932469 
Q 70.013297 35.257655 71.006772 34.826524 
Q 72.000248 34.395393 72.9 34.470372 
Q 73.537324 34.470372 74.02469 34.639076 
Q 74.512055 34.807779 74.830717 34.995228 
Q 75.149379 35.182676 75.374317 35.670041 
Q 75.599255 36.157407 75.711724 36.419834 
Q 75.824193 36.682262 75.880428 37.375821 
Q 75.936662 38.069379 75.955407 38.331807 
Q 75.974152 38.594234 75.955407 39.419007 
Q 75.936662 40.243779 75.936662 40.431228 
Q 75.936662 41.368469 75.767959 43.242952 
Q 75.599255 45.117434 75.599255 46.054676 
Q 75.599255 46.467062 75.65549 46.823214 
Q 75.711724 47.179366 75.805448 47.610497 
Q 75.899172 48.041628 75.936662 48.304055 
L 76.386538 48.528993 
M 69.863338 23.111007 
Q 70.088276 24.798041 70.088276 29.971614 
L 70.088276 42.3432 
L 69.750869 46.841959 
L 69.525931 47.74171 
" clip-path="url(#p412c2b6a74)" style="fill: none; stroke: #000000; stroke-linejoin: miter"/>
   </g>
  </g>
  <g id="axes_6">
   <g id="patch_7">
    <path d="M 88.387697 39.981352 
Q 89.399917 40.956083 89.737324 42.905545 
Q 89.924772 43.955255 89.512386 46.167145 
L 88.275228 47.629241 
" clip-path="url(#p4a0be0ce97)" style="fill: none; stroke: #000000; stroke-linejoin: miter"/>
   </g>
  </g>
  <g id="axes_7"/>
  <g id="axes_8">
   <g id="patch_8">
    <path d="M 127.043923 36.441748 
Q 125.834968 35.094627 121.862687 35.094627 
Q 120.342857 35.094627 119.565672 35.146439 
Q 118.788486 35.198252 117.78678 35.440043 
Q 116.785075 35.681834 116.301493 36.182687 
Q 115.81791 36.683539 115.472495 37.616162 
Q 115.127079 38.548785 115.127079 39.964989 
Q 115.127079 42.037484 116.543284 43.280981 
Q 117.959488 44.524478 119.893817 44.524478 
Q 122.553518 44.524478 125.316844 38.721493 
Q 126.663966 35.854542 126.663966 35.82 
Q 127.009382 35.578209 127.043923 36.441748 
Q 127.043923 37.512537 127.458422 40.362217 
Q 127.872921 43.211898 127.872921 44.524478 
" clip-path="url(#p088fb56198)" style="fill: none; stroke: #000000; stroke-linejoin: miter"/>
   </g>
  </g>
  <g id="axes_9">
   <g id="patch_9">
    <path d="M 134.213462 32.783338 
Q 134.738317 34.507862 134.869531 36.457324 
Q 135.000745 38.406786 134.925766 40.956083 
Q 134.850786 43.505379 134.888276 44.705048 
L 135.000745 46.054676 
L 135.000745 45.829738 
Q 135.000745 44.667559 134.719572 42.30571 
Q 134.4384 39.943862 134.4384 38.744193 
Q 134.4384 36.419834 135.450621 34.882759 
Q 136.462841 33.345683 138.487283 33.345683 
Q 139.199586 33.345683 139.536993 33.626855 
Q 139.8744 33.908028 140.136828 34.432883 
Q 140.399255 34.957738 140.736662 35.257655 
L 141.186538 36.832221 
" clip-path="url(#pdb7a6ec3c2)" style="fill: none; stroke: #000000; stroke-linejoin: miter"/>
   </g>
  </g>
  <g id="axes_10">
   <g id="patch_10">
    <path d="M 147.657798 38.160826 
Q 150.630275 39.535596 155.349083 39.721376 
Q 156.872477 39.721376 157.559862 38.550963 
Q 158.247248 37.38055 158.247248 35.82 
Q 158.247248 35.299817 158.154358 34.909679 
Q 158.061468 34.519541 157.819954 34.296606 
Q 157.57844 34.07367 157.411239 33.943624 
Q 157.244037 33.813578 156.798165 33.757844 
Q 156.352294 33.70211 156.147936 33.683532 
Q 155.943578 33.664954 155.367661 33.683532 
Q 154.791743 33.70211 154.568807 33.70211 
Q 152.525229 33.70211 151.038991 35.578486 
Q 149.552752 37.454862 149.552752 39.609908 
Q 149.552752 42.619541 151.484862 44.570229 
Q 153.416972 46.520917 156.463761 46.520917 
Q 158.618807 46.818165 160.142202 44.29156 
" clip-path="url(#p909d3aca56)" style="fill: none; stroke: #000000; stroke-linejoin: miter"/>
   </g>
  </g>
  <g id="axes_11">
   <g id="patch_11">
    <path d="M 165.638731 37.282097 
L 165.638731 37.844441 
Q 165.901159 39.868883 165.938648 41.312234 
Q 165.976138 42.755586 165.882414 44.667559 
Q 165.78869 46.579531 165.78869 48.191586 
L 165.863669 39.643945 
Q 165.863669 38.144359 167.456979 37.507034 
Q 169.05029 36.86971 170.474897 37.282097 
Q 172.386869 37.844441 173.305366 39.04411 
Q 174.223862 40.243779 174.280097 41.668386 
Q 174.336331 43.092993 174.373821 44.817517 
Q 174.41131 46.542041 174.561269 48.191586 
" clip-path="url(#p7f235b606f)" style="fill: none; stroke: #000000; stroke-linejoin: miter"/>
   </g>
  </g>
  <g id="axes_12">
   <g id="patch_12">
    <path d="M 186.225021 26.147669 
Q 186.187531 26.597545 186.225021 27.384828 
Q 186.26251 27.572276 186.206276 27.965917 
Q 186.150041 28.359559 186.187531 28.678221 
Q 186.225021 28.996883 186.449959 29.184331 
" clip-path="url(#pf1b88b243d)" style="fill: none; stroke: #000000; stroke-linejoin: miter"/>
   </g>
  </g>
  <g id="axes_13">
   <g id="patch_13">
    <path d="M 197.663834 37.95691 
L 198.338648 37.95691 
Q 199.050952 37.95691 199.838234 37.881931 
Q 200.625517 37.806952 201.581503 37.675738 
Q 202.53749 37.544524 203.062345 37.507034 
L 207.336166 35.82 
M 203.287283 30.42149 
L 203.287283 31.43371 
Q 203.287283 33.383172 202.612469 37.207117 
Q 201.937655 41.031062 201.937655 43.018014 
Q 201.937655 43.805297 201.937655 44.105214 
Q 201.937655 44.405131 202.031379 45.042455 
Q 202.125103 45.679779 202.312552 45.960952 
Q 202.5 46.242124 202.893641 46.485807 
Q 203.287283 46.72949 203.849628 46.72949 
Q 203.962097 46.692 204.280759 46.72949 
Q 204.599421 46.766979 204.786869 46.710745 
Q 204.974317 46.65451 204.974317 46.392083 
" clip-path="url(#p80e0b3814e)" style="fill: none; stroke: #000000; stroke-linejoin: miter"/>
   </g>
  </g>
  <g id="axes_14"/>
  <g id="axes_15">
   <g id="patch_14">
    <path d="M 229.763917 36.382345 
Q 229.726428 36.494814 229.857641 36.701007 
Q 229.988855 36.9072 229.876386 37.057159 
L 229.876386 39.306538 
Q 229.876386 40.506207 230.213793 41.724621 
Q 230.5512 42.943034 231.413462 43.93651 
Q 232.275724 44.929986 233.475393 44.929986 
Q 234.712552 44.929986 235.387366 43.861531 
Q 236.062179 42.793076 236.512055 41.143531 
Q 236.961931 39.493986 237.299338 38.969131 
L 238.086621 36.382345 
L 237.861683 42.680607 
L 237.861683 45.154924 
Q 237.861683 47.066897 238.592731 51.00331 
Q 239.323779 54.939724 239.323779 56.964166 
Q 240.073572 59.213545 238.986372 60.188276 
Q 237.899172 61.163007 235.837241 60.78811 
Q 234.037738 60.488193 233.119241 60.169531 
Q 232.200745 59.850869 230.213793 58.988607 
L 230.101324 58.426262 
" clip-path="url(#p8f6141f5a4)" style="fill: none; stroke: #000000; stroke-linejoin: miter"/>
   </g>
  </g>
  <g id="axes_16">
   <g id="patch_15">
    <path d="M 254.3616 35.032717 
Q 253.31189 34.582841 252.337159 34.69531 
Q 249.300497 35.032717 247.388524 36.701007 
Q 245.476552 38.369297 245.476552 41.330979 
Q 245.476552 43.917766 247.482248 45.6048 
Q 249.487945 47.291834 252.112221 47.291834 
Q 254.474069 47.291834 255.598759 45.361117 
Q 256.723448 43.4304 256.723448 40.881103 
Q 256.723448 39.643945 256.311062 38.706703 
Q 255.898676 37.769462 255.373821 37.300841 
Q 254.848966 36.832221 254.099172 36.119917 
Q 253.349379 35.407614 252.899503 34.69531 
L 251.662345 34.245434 
" clip-path="url(#p725b5dde30)" style="fill: none; stroke: #000000; stroke-linejoin: miter"/>
   </g>
  </g>
  <g id="axes_17">
   <g id="patch_16">
    <path d="M 262.688772 35.145186 
Q 262.688772 35.145186 262.688772 35.595062 
Q 262.688772 36.269876 262.576303 37.619503 
Q 262.463834 38.969131 262.463834 39.643945 
Q 262.463834 41.930814 263.700993 43.599103 
Q 264.938152 45.267393 267.075062 45.267393 
Q 268.462179 45.154924 269.230717 43.917766 
Q 269.999255 42.680607 270.149214 41.237255 
Q 270.299172 39.793903 270.5616 37.9944 
Q 270.824028 36.194897 271.236414 35.370124 
Q 271.386372 35.070207 271.386372 35.670041 
Q 271.386372 36.269876 271.123945 38.706703 
Q 270.899007 41.031062 270.899007 41.555917 
Q 270.749048 42.643117 271.086455 43.767807 
Q 271.423862 44.892497 272.136166 45.6048 
" clip-path="url(#p7b245c7aa1)" style="fill: none; stroke: #000000; stroke-linejoin: miter"/>
   </g>
  </g>
  <g id="axes_18"/>
  <g id="axes_19">
   <g id="patch_17">
    <path d="M 305.243923 36.441748 
Q 304.034968 35.094627 300.062687 35.094627 
Q 298.542857 35.094627 297.765672 35.146439 
Q 296.988486 35.198252 295.98678 35.440043 
Q 294.985075 35.681834 294.501493 36.182687 
Q 294.01791 36.683539 293.672495 37.616162 
Q 293.327079 38.548785 293.327079 39.964989 
Q 293.327079 42.037484 294.743284 43.280981 
Q 296.159488 44.524478 298.093817 44.524478 
Q 300.753518 44.524478 303.516844 38.721493 
Q 304.863966 35.854542 304.863966 35.82 
Q 305.209382 35.578209 305.243923 36.441748 
Q 305.243923 37.512537 305.658422 40.362217 
Q 306.072921 43.211898 306.072921 44.524478 
" clip-path="url(#p93c1c004f7)" style="fill: none; stroke: #000000; stroke-linejoin: miter"/>
   </g>
  </g>
  <g id="axes_20"/>
  <g id="axes_21">
   <g id="patch_18">
    <path d="M 327.320069 39.868883 
L 327.320069 39.419007 
Q 327.320069 37.769462 329.063338 36.682262 
Q 330.806607 35.595062 332.493641 35.595062 
Q 334.705531 35.595062 336.073903 36.794731 
Q 337.442276 37.9944 337.442276 40.20629 
Q 337.442276 42.30571 335.624028 43.336676 
Q 333.805779 44.367641 331.59389 44.367641 
Q 330.919076 44.367641 330.412966 44.255172 
Q 329.906855 44.142703 329.288276 43.917766 
Q 328.669697 43.692828 328.219821 43.580359 
L 327.095131 42.568138 
M 326.757724 36.832221 
Q 327.2076 38.444276 327.470028 40.262524 
Q 327.732455 42.080772 327.78869 43.749062 
Q 327.844924 45.417352 327.882414 47.27309 
Q 327.919903 49.128828 327.882414 50.778372 
L 327.769945 57.863917 
" clip-path="url(#p53b0dac8d2)" style="fill: none; stroke: #000000; stroke-linejoin: miter"/>
   </g>
  </g>
  <g id="axes_22">
   <g id="patch_19">
    <path d="M 344.813462 32.783338 
Q 345.338317 34.507862 345.469531 36.457324 
Q 345.600745 38.406786 345.525766 40.956083 
Q 345.450786 43.505379 345.488276 44.705048 
L 345.600745 46.054676 
L 345.600745 45.829738 
Q 345.600745 44.667559 345.319572 42.30571 
Q 345.0384 39.943862 345.0384 38.744193 
Q 345.0384 36.419834 346.050621 34.882759 
Q 347.062841 33.345683 349.087283 33.345683 
Q 349.799586 33.345683 350.136993 33.626855 
Q 350.4744 33.908028 350.736828 34.432883 
Q 350.999255 34.957738 351.336662 35.257655 
L 351.786538 36.832221 
" clip-path="url(#p9ceda128cd)" style="fill: none; stroke: #000000; stroke-linejoin: miter"/>
   </g>
  </g>
  <g id="axes_23">
   <g id="patch_20">
    <path d="M 358.257798 38.160826 
Q 361.230275 39.535596 365.949083 39.721376 
Q 367.472477 39.721376 368.159862 38.550963 
Q 368.847248 37.38055 368.847248 35.82 
Q 368.847248 35.299817 368.754358 34.909679 
Q 368.661468 34.519541 368.419954 34.296606 
Q 368.17844 34.07367 368.011239 33.943624 
Q 367.844037 33.813578 367.398165 33.757844 
Q 366.952294 33.70211 366.747936 33.683532 
Q 366.543578 33.664954 365.967661 33.683532 
Q 365.391743 33.70211 365.168807 33.70211 
Q 363.125229 33.70211 361.638991 35.578486 
Q 360.152752 37.454862 360.152752 39.609908 
Q 360.152752 42.619541 362.084862 44.570229 
Q 364.016972 46.520917 367.063761 46.520917 
Q 369.218807 46.818165 370.742202 44.29156 
" clip-path="url(#p0d4a37daa6)" style="fill: none; stroke: #000000; stroke-linejoin: miter"/>
   </g>
  </g>
  <g id="axes_24">
   <g id="patch_21">
    <path d="M 375.863834 37.95691 
L 376.538648 37.95691 
Q 377.250952 37.95691 378.038234 37.881931 
Q 378.825517 37.806952 379.781503 37.675738 
Q 380.73749 37.544524 381.262345 37.507034 
L 385.536166 35.82 
M 381.487283 30.42149 
L 381.487283 31.43371 
Q 381.487283 33.383172 380.812469 37.207117 
Q 380.137655 41.031062 380.137655 43.018014 
Q 380.137655 43.805297 380.137655 44.105214 
Q 380.137655 44.405131 380.231379 45.042455 
Q 380.325103 45.679779 380.512552 45.960952 
Q 380.7 46.242124 381.093641 46.485807 
Q 381.487283 46.72949 382.049628 46.72949 
Q 382.162097 46.692 382.480759 46.72949 
Q 382.799421 46.766979 382.986869 46.710745 
Q 383.174317 46.65451 383.174317 46.392083 
" clip-path="url(#pf04a88c4d7)" style="fill: none; stroke: #000000; stroke-linejoin: miter"/>
   </g>
  </g>
  <g id="axes_25">
   <g id="patch_22">
    <path d="M 392.063834 37.95691 
L 392.738648 37.95691 
Q 393.450952 37.95691 394.238234 37.881931 
Q 395.025517 37.806952 395.981503 37.675738 
Q 396.93749 37.544524 397.462345 37.507034 
L 401.736166 35.82 
M 397.687283 30.42149 
L 397.687283 31.43371 
Q 397.687283 33.383172 397.012469 37.207117 
Q 396.337655 41.031062 396.337655 43.018014 
Q 396.337655 43.805297 396.337655 44.105214 
Q 396.337655 44.405131 396.431379 45.042455 
Q 396.525103 45.679779 396.712552 45.960952 
Q 396.9 46.242124 397.293641 46.485807 
Q 397.687283 46.72949 398.249628 46.72949 
Q 398.362097 46.692 398.680759 46.72949 
Q 398.999421 46.766979 399.186869 46.710745 
Q 399.374317 46.65451 399.374317 46.392083 
" clip-path="url(#pd865eb401a)" style="fill: none; stroke: #000000; stroke-linejoin: miter"/>
   </g>
  </g>
  <g id="axes_26">
   <g id="patch_23">
    <path d="M 407.963917 36.382345 
Q 407.926428 36.494814 408.057641 36.701007 
Q 408.188855 36.9072 408.076386 37.057159 
L 408.076386 39.306538 
Q 408.076386 40.506207 408.413793 41.724621 
Q 408.7512 42.943034 409.613462 43.93651 
Q 410.475724 44.929986 411.675393 44.929986 
Q 412.912552 44.929986 413.587366 43.861531 
Q 414.262179 42.793076 414.712055 41.143531 
Q 415.161931 39.493986 415.499338 38.969131 
L 416.286621 36.382345 
L 416.061683 42.680607 
L 416.061683 45.154924 
Q 416.061683 47.066897 416.792731 51.00331 
Q 417.523779 54.939724 417.523779 56.964166 
Q 418.273572 59.213545 417.186372 60.188276 
Q 416.099172 61.163007 414.037241 60.78811 
Q 412.237738 60.488193 411.319241 60.169531 
Q 410.400745 59.850869 408.413793 58.988607 
L 408.301324 58.426262 
" clip-path="url(#pc14a9f8f7d)" style="fill: none; stroke: #000000; stroke-linejoin: miter"/>
   </g>
  </g>
  <g id="axes_27"/>
  <g id="axes_28">
   <g id="patch_24">
    <path d="M 439.116102 36.437797 
L 440.351695 44.778051 
Q 440.454661 45.567458 440.454661 45.60178 
Q 440.454661 45.704746 440.763559 45.704746 
Q 441.62161 45.704746 442.342373 44.778051 
Q 443.063136 43.851356 443.475 42.718729 
Q 443.886864 41.586102 444.401695 40.659407 
Q 444.916525 39.732712 445.397034 39.732712 
Q 446.014831 39.732712 446.649788 40.607924 
Q 447.284746 41.483136 447.748093 42.512797 
Q 448.211441 43.542458 448.88072 44.417669 
Q 449.55 45.292881 450.236441 45.292881 
Q 450.511017 43.782712 450.940042 39.69839 
Q 451.369068 35.614068 451.883898 33.554746 
" clip-path="url(#p3766320dbc)" style="fill: none; stroke: #000000; stroke-linejoin: miter"/>
   </g>
  </g>
  <g id="axes_29">
   <g id="patch_25">
    <path d="M 455.457798 38.160826 
Q 458.430275 39.535596 463.149083 39.721376 
Q 464.672477 39.721376 465.359862 38.550963 
Q 466.047248 37.38055 466.047248 35.82 
Q 466.047248 35.299817 465.954358 34.909679 
Q 465.861468 34.519541 465.619954 34.296606 
Q 465.37844 34.07367 465.211239 33.943624 
Q 465.044037 33.813578 464.598165 33.757844 
Q 464.152294 33.70211 463.947936 33.683532 
Q 463.743578 33.664954 463.167661 33.683532 
Q 462.591743 33.70211 462.368807 33.70211 
Q 460.325229 33.70211 458.838991 35.578486 
Q 457.352752 37.454862 457.352752 39.609908 
Q 457.352752 42.619541 459.284862 44.570229 
Q 461.216972 46.520917 464.263761 46.520917 
Q 466.418807 46.818165 467.942202 44.29156 
" clip-path="url(#p094ccc6445)" style="fill: none; stroke: #000000; stroke-linejoin: miter"/>
   </g>
  </g>
  <g id="axes_30">
   <g id="patch_26">
    <path d="M 471.657798 38.160826 
Q 474.630275 39.535596 479.349083 39.721376 
Q 480.872477 39.721376 481.559862 38.550963 
Q 482.247248 37.38055 482.247248 35.82 
Q 482.247248 35.299817 482.154358 34.909679 
Q 482.061468 34.519541 481.819954 34.296606 
Q 481.57844 34.07367 481.411239 33.943624 
Q 481.244037 33.813578 480.798165 33.757844 
Q 480.352294 33.70211 480.147936 33.683532 
Q 479.943578 33.664954 479.367661 33.683532 
Q 478.791743 33.70211 478.568807 33.70211 
Q 476.525229 33.70211 475.038991 35.578486 
Q 473.552752 37.454862 473.552752 39.609908 
Q 473.552752 42.619541 475.484862 44.570229 
Q 477.416972 46.520917 480.463761 46.520917 
Q 482.618807 46.818165 484.142202 44.29156 
" clip-path="url(#p5ba04b3c7b)" style="fill: none; stroke: #000000; stroke-linejoin: miter"/>
   </g>
  </g>
  <g id="axes_31"/>
  <g id="axes_32">
   <g id="patch_27">
    <path d="M 513.5616 35.032717 
Q 512.51189 34.582841 511.537159 34.69531 
Q 508.500497 35.032717 506.588524 36.701007 
Q 504.676552 38.369297 504.676552 41.330979 
Q 504.676552 43.917766 506.682248 45.6048 
Q 508.687945 47.291834 511.312221 47.291834 
Q 513.674069 47.291834 514.798759 45.361117 
Q 515.923448 43.4304 515.923448 40.881103 
Q 515.923448 39.643945 515.511062 38.706703 
Q 515.098676 37.769462 514.573821 37.300841 
Q 514.048966 36.832221 513.299172 36.119917 
Q 512.549379 35.407614 512.099503 34.69531 
L 510.862345 34.245434 
" clip-path="url(#pf92efa7433)" style="fill: none; stroke: #000000; stroke-linejoin: miter"/>
   </g>
  </g>
  <g id="axes_33">
   <g id="patch_28">
    <path d="M 522.038731 37.282097 
L 522.038731 37.844441 
Q 522.301159 39.868883 522.338648 41.312234 
Q 522.376138 42.755586 522.282414 44.667559 
Q 522.18869 46.579531 522.18869 48.191586 
L 522.263669 39.643945 
Q 522.263669 38.144359 523.856979 37.507034 
Q 525.45029 36.86971 526.874897 37.282097 
Q 528.786869 37.844441 529.705366 39.04411 
Q 530.623862 40.243779 530.680097 41.668386 
Q 530.736331 43.092993 530.773821 44.817517 
Q 530.81131 46.542041 530.961269 48.191586 
" clip-path="url(#pabb3cdad98)" style="fill: none; stroke: #000000; stroke-linejoin: miter"/>
   </g>
  </g>
  <g id="axes_34">
   <g id="patch_29">
    <path d="M 536.457798 38.160826 
Q 539.430275 39.535596 544.149083 39.721376 
Q 545.672477 39.721376 546.359862 38.550963 
Q 547.047248 37.38055 547.047248 35.82 
Q 547.047248 35.299817 546.954358 34.909679 
Q 546.861468 34.519541 546.619954 34.296606 
Q 546.37844 34.07367 546.211239 33.943624 
Q 546.044037 33.813578 545.598165 33.757844 
Q 545.152294 33.70211 544.947936 33.683532 
Q 544.743578 33.664954 544.167661 33.683532 
Q 543.591743 33.70211 543.368807 33.70211 
Q 541.325229 33.70211 539.838991 35.578486 
Q 538.352752 37.454862 538.352752 39.609908 
Q 538.352752 42.619541 540.284862 44.570229 
Q 542.216972 46.520917 545.263761 46.520917 
Q 547.418807 46.818165 548.942202 44.29156 
" clip-path="url(#pe7096623ac)" style="fill: none; stroke: #000000; stroke-linejoin: miter"/>
   </g>
  </g>
  <g id="axes_35">
   <g id="patch_30">
    <path d="M 558.187697 39.981352 
Q 559.199917 40.956083 559.537324 42.905545 
Q 559.724772 43.955255 559.312386 46.167145 
L 558.075228 47.629241 
" clip-path="url(#pbfd426a8ff)" style="fill: none; stroke: #000000; stroke-linejoin: miter"/>
   </g>
  </g>
  <g id="axes_36">
   <g id="patch_31">
    <path d="M 575.624855 27.009931 
Q 575.699834 27.347338 575.774814 28.265834 
Q 575.849793 29.184331 575.999752 29.634207 
L 575.924772 31.058814 
M 574.275228 27.309848 
Q 574.237738 27.309848 574.200248 27.534786 
Q 574.237738 27.684745 574.350207 28.828179 
Q 574.462676 29.971614 574.725103 30.533959 
" clip-path="url(#pfe7908152e)" style="fill: none; stroke: #000000; stroke-linejoin: miter"/>
   </g>
  </g>
  <g id="axes_37"/>
  <g id="axes_38">
   <g id="patch_32">
    <path d="M 603.057476 43.917766 
Q 603.357393 44.180193 604.369614 45.154924 
Q 605.381834 46.129655 605.944179 46.560786 
Q 606.506524 46.991917 607.53749 47.385559 
Q 608.568455 47.7792 609.580676 47.629241 
Q 610.25549 47.629241 610.72411 47.404303 
Q 611.192731 47.179366 611.417669 46.879448 
Q 611.642607 46.579531 611.773821 45.979697 
Q 611.905034 45.379862 611.923779 44.967476 
Q 611.942524 44.55509 611.942524 43.805297 
Q 611.942524 42.718097 611.042772 42.043283 
Q 610.143021 41.368469 608.849628 41.031062 
Q 607.556234 40.693655 606.262841 40.300014 
Q 604.969448 39.906372 604.069697 38.987876 
Q 603.169945 38.069379 603.169945 36.607283 
Q 603.169945 36.082428 603.338648 35.726276 
Q 603.507352 35.370124 603.900993 35.145186 
Q 604.294634 34.920248 604.575807 34.807779 
Q 604.856979 34.69531 605.513048 34.639076 
Q 606.169117 34.582841 606.356566 34.582841 
Q 606.544014 34.582841 607.218828 34.582841 
Q 608.418497 34.582841 608.999586 34.995228 
Q 609.580676 35.407614 609.899338 36.026193 
Q 610.218 36.644772 610.480428 36.832221 
" clip-path="url(#p37ce767003)" style="fill: none; stroke: #000000; stroke-linejoin: miter"/>
   </g>
  </g>
  <g id="axes_39">
   <g id="patch_33">
    <path d="M 629.243923 36.441748 
Q 628.034968 35.094627 624.062687 35.094627 
Q 622.542857 35.094627 621.765672 35.146439 
Q 620.988486 35.198252 619.98678 35.440043 
Q 618.985075 35.681834 618.501493 36.182687 
Q 618.01791 36.683539 617.672495 37.616162 
Q 617.327079 38.548785 617.327079 39.964989 
Q 617.327079 42.037484 618.743284 43.280981 
Q 620.159488 44.524478 622.093817 44.524478 
Q 624.753518 44.524478 627.516844 38.721493 
Q 628.863966 35.854542 628.863966 35.82 
Q 629.209382 35.578209 629.243923 36.441748 
Q 629.243923 37.512537 629.658422 40.362217 
Q 630.072921 43.211898 630.072921 44.524478 
" clip-path="url(#pce26450992)" style="fill: none; stroke: #000000; stroke-linejoin: miter"/>
   </g>
  </g>
  <g id="axes_40">
   <g id="patch_34">
    <path d="M 634.763917 36.382345 
Q 634.726428 36.494814 634.857641 36.701007 
Q 634.988855 36.9072 634.876386 37.057159 
L 634.876386 39.306538 
Q 634.876386 40.506207 635.213793 41.724621 
Q 635.5512 42.943034 636.413462 43.93651 
Q 637.275724 44.929986 638.475393 44.929986 
Q 639.712552 44.929986 640.387366 43.861531 
Q 641.062179 42.793076 641.512055 41.143531 
Q 641.961931 39.493986 642.299338 38.969131 
L 643.086621 36.382345 
L 642.861683 42.680607 
L 642.861683 45.154924 
Q 642.861683 47.066897 643.592731 51.00331 
Q 644.323779 54.939724 644.323779 56.964166 
Q 645.073572 59.213545 643.986372 60.188276 
Q 642.899172 61.163007 640.837241 60.78811 
Q 639.037738 60.488193 638.119241 60.169531 
Q 637.200745 59.850869 635.213793 58.988607 
L 635.101324 58.426262 
" clip-path="url(#pa9a7c23ad4)" style="fill: none; stroke: #000000; stroke-linejoin: miter"/>
   </g>
  </g>
  <g id="axes_41">
   <g id="patch_35">
    <path d="M 651.657476 43.917766 
Q 651.957393 44.180193 652.969614 45.154924 
Q 653.981834 46.129655 654.544179 46.560786 
Q 655.106524 46.991917 656.13749 47.385559 
Q 657.168455 47.7792 658.180676 47.629241 
Q 658.85549 47.629241 659.32411 47.404303 
Q 659.792731 47.179366 660.017669 46.879448 
Q 660.242607 46.579531 660.373821 45.979697 
Q 660.505034 45.379862 660.523779 44.967476 
Q 660.542524 44.55509 660.542524 43.805297 
Q 660.542524 42.718097 659.642772 42.043283 
Q 658.743021 41.368469 657.449628 41.031062 
Q 656.156234 40.693655 654.862841 40.300014 
Q 653.569448 39.906372 652.669697 38.987876 
Q 651.769945 38.069379 651.769945 36.607283 
Q 651.769945 36.082428 651.938648 35.726276 
Q 652.107352 35.370124 652.500993 35.145186 
Q 652.894634 34.920248 653.175807 34.807779 
Q 653.456979 34.69531 654.113048 34.639076 
Q 654.769117 34.582841 654.956566 34.582841 
Q 655.144014 34.582841 655.818828 34.582841 
Q 657.018497 34.582841 657.599586 34.995228 
Q 658.180676 35.407614 658.499338 36.026193 
Q 658.818 36.644772 659.080428 36.832221 
" clip-path="url(#p12b67fb0f0)" style="fill: none; stroke: #000000; stroke-linejoin: miter"/>
   </g>
  </g>
  <g id="axes_42"/>
  <g id="axes_43">
   <g id="patch_36">
    <path d="M 685.181498 38.139383 
Q 685.181498 38.139383 687.215419 38.139383 
Q 688.036123 37.889604 690.355507 38.085859 
Q 692.67489 38.282115 693.638326 38.139383 
M 682.184141 46.489163 
L 682.291189 46.168018 
Q 682.291189 45.275947 684.218062 40.797753 
Q 686.144934 36.319559 688.107489 32.251718 
Q 690.070044 28.183877 690.212775 28.183877 
Q 691.069163 28.183877 691.764978 29.646872 
Q 692.460793 31.109868 692.92467 33.393568 
Q 693.388546 35.677269 693.727533 37.943128 
Q 694.06652 40.208987 694.351982 42.332115 
Q 694.637445 44.455242 694.815859 45.097533 
" clip-path="url(#pba2699f8c9)" style="fill: none; stroke: #000000; stroke-linejoin: miter"/>
   </g>
  </g>
  <g id="axes_44">
   <g id="patch_37">
    <path d="M 700.238731 37.282097 
L 700.238731 37.844441 
Q 700.501159 39.868883 700.538648 41.312234 
Q 700.576138 42.755586 700.482414 44.667559 
Q 700.38869 46.579531 700.38869 48.191586 
L 700.463669 39.643945 
Q 700.463669 38.144359 702.056979 37.507034 
Q 703.65029 36.86971 705.074897 37.282097 
Q 706.986869 37.844441 707.905366 39.04411 
Q 708.823862 40.243779 708.880097 41.668386 
Q 708.936331 43.092993 708.973821 44.817517 
Q 709.01131 46.542041 709.161269 48.191586 
" clip-path="url(#p434f89f1f1)" style="fill: none; stroke: #000000; stroke-linejoin: miter"/>
   </g>
  </g>
  <g id="axes_45">
   <g id="patch_38">
    <path d="M 718.594386 35.595062 
L 723.205614 35.707531 
" clip-path="url(#p17e9318d6c)" style="fill: none; stroke: #000000; stroke-linejoin: miter"/>
   </g>
  </g>
 </g>
 <defs>
  <clipPath id="p39100f3c1f">
   <rect x="5.325766" y="8.64" width="5.548469" height="54.36"/>
  </clipPath>
  <clipPath id="pa6faa5eb28">
   <rect x="16.2" y="15.604854" width="16.2" height="40.430293"/>
  </clipPath>
  <clipPath id="p5130fe9071">
   <rect x="33.002069" y="8.64" width="14.995862" height="54.36"/>
  </clipPath>
  <clipPath id="p45624e97e8">
   <rect x="50.382993" y="8.64" width="12.634014" height="54.36"/>
  </clipPath>
  <clipPath id="p412c2b6a74">
   <rect x="67.538979" y="8.64" width="10.722041" height="54.36"/>
  </clipPath>
  <clipPath id="p4a0be0ce97">
   <rect x="86.400745" y="8.64" width="5.39851" height="54.36"/>
  </clipPath>
  <clipPath id="p088fb56198">
   <rect x="113.4" y="10.777356" width="16.2" height="50.085288"/>
  </clipPath>
  <clipPath id="pdb7a6ec3c2">
   <rect x="132.338979" y="8.64" width="10.722041" height="54.36"/>
  </clipPath>
  <clipPath id="p909d3aca56">
   <rect x="145.8" y="8.881927" width="16.2" height="53.876147"/>
  </clipPath>
  <clipPath id="p7f235b606f">
   <rect x="163.764248" y="8.64" width="12.671503" height="54.36"/>
  </clipPath>
  <clipPath id="pf1b88b243d">
   <rect x="184.275559" y="8.64" width="4.048883" height="54.36"/>
  </clipPath>
  <clipPath id="p80e0b3814e">
   <rect x="195.789352" y="8.64" width="13.421297" height="54.36"/>
  </clipPath>
  <clipPath id="p8f6141f5a4">
   <rect x="227.851945" y="8.64" width="14.09611" height="54.36"/>
  </clipPath>
  <clipPath id="p725b5dde30">
   <rect x="243.602069" y="8.64" width="14.995862" height="54.36"/>
  </clipPath>
  <clipPath id="p7b245c7aa1">
   <rect x="260.589352" y="8.64" width="13.421297" height="54.36"/>
  </clipPath>
  <clipPath id="p93c1c004f7">
   <rect x="291.6" y="10.777356" width="16.2" height="50.085288"/>
  </clipPath>
  <clipPath id="p53b0dac8d2">
   <rect x="324.883241" y="8.64" width="14.433517" height="54.36"/>
  </clipPath>
  <clipPath id="p9ceda128cd">
   <rect x="342.938979" y="8.64" width="10.722041" height="54.36"/>
  </clipPath>
  <clipPath id="p0d4a37daa6">
   <rect x="356.4" y="8.881927" width="16.2" height="53.876147"/>
  </clipPath>
  <clipPath id="pf04a88c4d7">
   <rect x="373.989352" y="8.64" width="13.421297" height="54.36"/>
  </clipPath>
  <clipPath id="pd865eb401a">
   <rect x="390.189352" y="8.64" width="13.421297" height="54.36"/>
  </clipPath>
  <clipPath id="pc14a9f8f7d">
   <rect x="406.051945" y="8.64" width="14.09611" height="54.36"/>
  </clipPath>
  <clipPath id="p3766320dbc">
   <rect x="437.4" y="10.936525" width="16.2" height="49.766949"/>
  </clipPath>
  <clipPath id="p094ccc6445">
   <rect x="453.6" y="8.881927" width="16.2" height="53.876147"/>
  </clipPath>
  <clipPath id="p5ba04b3c7b">
   <rect x="469.8" y="8.881927" width="16.2" height="53.876147"/>
  </clipPath>
  <clipPath id="pf92efa7433">
   <rect x="502.802069" y="8.64" width="14.995862" height="54.36"/>
  </clipPath>
  <clipPath id="pabb3cdad98">
   <rect x="520.164248" y="8.64" width="12.671503" height="54.36"/>
  </clipPath>
  <clipPath id="pe7096623ac">
   <rect x="534.6" y="8.881927" width="16.2" height="53.876147"/>
  </clipPath>
  <clipPath id="pbfd426a8ff">
   <rect x="556.200745" y="8.64" width="5.39851" height="54.36"/>
  </clipPath>
  <clipPath id="pfe7908152e">
   <rect x="572.325766" y="8.64" width="5.548469" height="54.36"/>
  </clipPath>
  <clipPath id="p37ce767003">
   <rect x="601.182993" y="8.64" width="12.634014" height="54.36"/>
  </clipPath>
  <clipPath id="pce26450992">
   <rect x="615.6" y="10.777356" width="16.2" height="50.085288"/>
  </clipPath>
  <clipPath id="pa9a7c23ad4">
   <rect x="632.851945" y="8.64" width="14.09611" height="54.36"/>
  </clipPath>
  <clipPath id="p12b67fb0f0">
   <rect x="649.782993" y="8.64" width="12.634014" height="54.36"/>
  </clipPath>
  <clipPath id="pba2699f8c9">
   <rect x="680.4" y="9.949956" width="16.2" height="51.740088"/>
  </clipPath>
  <clipPath id="p434f89f1f1">
   <rect x="698.364248" y="8.64" width="12.671503" height="54.36"/>
  </clipPath>
  <clipPath id="p17e9318d6c">
   <rect x="716.719903" y="8.64" width="8.360193" height="54.36"/>
  </clipPath>
 </defs>
</svg>
