<?xml version="1.0" encoding="utf-8" standalone="no"?>
<!DOCTYPE svg PUBLIC "-//W3C//DTD SVG 1.1//EN"
  "http://www.w3.org/Graphics/SVG/1.1/DTD/svg11.dtd">
<svg xmlns:xlink="http://www.w3.org/1999/xlink" width="684pt" height="72pt" viewBox="0 0 684 72" xmlns="http://www.w3.org/2000/svg" version="1.1">
 <metadata>
  <rdf:RDF xmlns:dc="http://purl.org/dc/elements/1.1/" xmlns:cc="http://creativecommons.org/ns#" xmlns:rdf="http://www.w3.org/1999/02/22-rdf-syntax-ns#">
   <cc:Work>
    <dc:type rdf:resource="http://purl.org/dc/dcmitype/StillImage"/>
    <dc:date>2023-12-21T11:44:08.371311</dc:date>
    <dc:format>image/svg+xml</dc:format>
    <dc:creator>
     <cc:Agent>
      <dc:title>Matplotlib v3.5.1, https://matplotlib.org/</dc:title>
     </cc:Agent>
    </dc:creator>
   </cc:Work>
  </rdf:RDF>
 </metadata>
 <defs>
  <style type="text/css">*{stroke-linejoin: round; stroke-linecap: butt}</style>
 </defs>
 <g id="figure_1">
  <g id="patch_1">
   <path d="M 0 72 
L 684 72 
L 684 0 
L 0 0 
z
" style="fill: #8fff9f"/>
  </g>
  <g id="axes_1">
   <g id="patch_2">
    <path d="M 8.624855 27.009931 
Q 8.699834 27.347338 8.774814 28.265834 
Q 8.849793 29.184331 8.999752 29.634207 
L 8.924772 31.058814 
M 7.275228 27.309848 
Q 7.237738 27.309848 7.200248 27.534786 
Q 7.237738 27.684745 7.350207 28.828179 
Q 7.462676 29.971614 7.725103 30.533959 
" clip-path="url(#p7cb0f563a0)" style="fill: none; stroke: #000000; stroke-linejoin: miter"/>
   </g>
  </g>
  <g id="axes_2">
   <g id="patch_3">
    <path d="M 30.548571 31.763193 
Q 28.80605 29.585042 26.859328 28.972437 
Q 24.912605 28.359832 22.135462 29.285546 
Q 20.256807 29.966218 18.909076 31.817647 
Q 17.561345 33.669076 17.561345 35.411597 
Q 17.561345 38.760504 20.188739 41.415126 
Q 22.816134 44.069748 26.056134 44.069748 
Q 26.900168 44.069748 27.58084 43.729412 
Q 28.261513 43.389076 28.656303 42.953445 
Q 29.051092 42.517815 29.622857 41.918824 
Q 30.194622 41.319832 30.711933 40.965882 
L 31.038655 40.149076 
" clip-path="url(#p2ec4e2e68c)" style="fill: none; stroke: #000000; stroke-linejoin: miter"/>
   </g>
  </g>
  <g id="axes_3">
   <g id="patch_4">
    <path d="M 46.043923 36.441748 
Q 44.834968 35.094627 40.862687 35.094627 
Q 39.342857 35.094627 38.565672 35.146439 
Q 37.788486 35.198252 36.78678 35.440043 
Q 35.785075 35.681834 35.301493 36.182687 
Q 34.81791 36.683539 34.472495 37.616162 
Q 34.127079 38.548785 34.127079 39.964989 
Q 34.127079 42.037484 35.543284 43.280981 
Q 36.959488 44.524478 38.893817 44.524478 
Q 41.553518 44.524478 44.316844 38.721493 
Q 45.663966 35.854542 45.663966 35.82 
Q 46.009382 35.578209 46.043923 36.441748 
Q 46.043923 37.512537 46.458422 40.362217 
Q 46.872921 43.211898 46.872921 44.524478 
" clip-path="url(#paface7ce40)" style="fill: none; stroke: #000000; stroke-linejoin: miter"/>
   </g>
  </g>
  <g id="axes_4">
   <g id="patch_5">
    <path d="M 52.238731 37.282097 
L 52.238731 37.844441 
Q 52.501159 39.868883 52.538648 41.312234 
Q 52.576138 42.755586 52.482414 44.667559 
Q 52.38869 46.579531 52.38869 48.191586 
L 52.463669 39.643945 
Q 52.463669 38.144359 54.056979 37.507034 
Q 55.65029 36.86971 57.074897 37.282097 
Q 58.986869 37.844441 59.905366 39.04411 
Q 60.823862 40.243779 60.880097 41.668386 
Q 60.936331 43.092993 60.973821 44.817517 
Q 61.01131 46.542041 61.161269 48.191586 
" clip-path="url(#pc055cdc935)" style="fill: none; stroke: #000000; stroke-linejoin: miter"/>
   </g>
  </g>
  <g id="axes_5"/>
  <g id="axes_6">
   <g id="patch_6">
    <path d="M 82.314935 43.209935 
L 95.885065 43.209935 
M 83.656169 30.007987 
L 94.543831 29.929091 
M 88.547727 30.323571 
L 88.547727 30.718052 
Q 88.547727 32.243377 88.639773 33.99224 
Q 88.731818 35.741104 88.88961 37.910747 
Q 89.047403 40.08039 89.1 41.211234 
L 89.257792 43.025844 
" clip-path="url(#pd60ef28692)" style="fill: none; stroke: #000000; stroke-linejoin: miter"/>
   </g>
  </g>
  <g id="axes_7"/>
  <g id="axes_8">
   <g id="patch_7">
    <path d="M 115.184141 38.85304 
L 115.612335 38.85304 
Q 116.43304 38.85304 117.396476 38.745991 
Q 118.359912 38.638943 119.519604 38.460529 
Q 120.679295 38.282115 121.285903 38.210749 
L 127.815859 35.427489 
M 127.494714 25.793128 
Q 127.209251 25.721762 126.174449 25.275727 
Q 125.139648 24.829692 124.497357 24.93674 
Q 123.855066 24.93674 123.337665 25.150837 
Q 122.820264 25.364934 122.481278 25.793128 
Q 122.142291 26.221322 121.87467 26.685198 
Q 121.607048 27.149075 121.464317 27.862731 
Q 121.321586 28.576388 121.214537 29.129471 
Q 121.107489 29.682555 121.089648 30.50326 
Q 121.071806 31.323965 121.053965 31.77 
Q 121.036123 32.216035 121.053965 32.965374 
Q 121.071806 33.714714 121.071806 33.928811 
Q 121.071806 36.605022 121.767621 41.850396 
Q 122.463436 47.095771 122.463436 49.771982 
Q 122.39207 50.057445 122.356388 50.681894 
Q 122.320705 51.306344 122.213656 51.805903 
Q 122.106608 52.305463 121.821145 52.555242 
" clip-path="url(#p01988f04cf)" style="fill: none; stroke: #000000; stroke-linejoin: miter"/>
   </g>
  </g>
  <g id="axes_9">
   <g id="patch_8">
    <path d="M 138.318579 29.071862 
Q 137.943683 29.146841 137.812469 29.577972 
Q 137.681255 30.009103 137.756234 30.42149 
Q 137.756234 30.571448 137.793724 30.702662 
Q 137.831214 30.833876 137.887448 30.89011 
Q 137.943683 30.946345 137.999917 31.040069 
Q 138.056152 31.133793 138.093641 31.208772 
L 138.20611 29.859145 
M 138.20611 34.020497 
Q 137.306359 39.006621 137.081421 42.793076 
L 137.531297 45.379862 
L 137.868703 46.054676 
" clip-path="url(#pf2a0692f25)" style="fill: none; stroke: #000000; stroke-linejoin: miter"/>
   </g>
  </g>
  <g id="axes_10">
   <g id="patch_9">
    <path d="M 153.506359 28.621986 
Q 153.731297 30.34651 153.806276 32.146014 
Q 153.881255 33.945517 153.86251 36.551048 
Q 153.843766 39.156579 153.843766 40.093821 
Q 153.843766 40.13131 154.068703 45.829738 
L 154.293641 46.841959 
" clip-path="url(#pce16d3862c)" style="fill: none; stroke: #000000; stroke-linejoin: miter"/>
   </g>
  </g>
  <g id="axes_11">
   <g id="patch_10">
    <path d="M 169.706359 28.621986 
Q 169.931297 30.34651 170.006276 32.146014 
Q 170.081255 33.945517 170.06251 36.551048 
Q 170.043766 39.156579 170.043766 40.093821 
Q 170.043766 40.13131 170.268703 45.829738 
L 170.493641 46.841959 
" clip-path="url(#pfe4a19e5fa)" style="fill: none; stroke: #000000; stroke-linejoin: miter"/>
   </g>
  </g>
  <g id="axes_12"/>
  <g id="axes_13">
   <g id="patch_11">
    <path d="M 197.663834 37.95691 
L 198.338648 37.95691 
Q 199.050952 37.95691 199.838234 37.881931 
Q 200.625517 37.806952 201.581503 37.675738 
Q 202.53749 37.544524 203.062345 37.507034 
L 207.336166 35.82 
M 203.287283 30.42149 
L 203.287283 31.43371 
Q 203.287283 33.383172 202.612469 37.207117 
Q 201.937655 41.031062 201.937655 43.018014 
Q 201.937655 43.805297 201.937655 44.105214 
Q 201.937655 44.405131 202.031379 45.042455 
Q 202.125103 45.679779 202.312552 45.960952 
Q 202.5 46.242124 202.893641 46.485807 
Q 203.287283 46.72949 203.849628 46.72949 
Q 203.962097 46.692 204.280759 46.72949 
Q 204.599421 46.766979 204.786869 46.710745 
Q 204.974317 46.65451 204.974317 46.392083 
" clip-path="url(#pfaf3513385)" style="fill: none; stroke: #000000; stroke-linejoin: miter"/>
   </g>
  </g>
  <g id="axes_14">
   <g id="patch_12">
    <path d="M 215.213462 35.932469 
Q 215.813297 35.257655 216.806772 34.826524 
Q 217.800248 34.395393 218.7 34.470372 
Q 219.337324 34.470372 219.82469 34.639076 
Q 220.312055 34.807779 220.630717 34.995228 
Q 220.949379 35.182676 221.174317 35.670041 
Q 221.399255 36.157407 221.511724 36.419834 
Q 221.624193 36.682262 221.680428 37.375821 
Q 221.736662 38.069379 221.755407 38.331807 
Q 221.774152 38.594234 221.755407 39.419007 
Q 221.736662 40.243779 221.736662 40.431228 
Q 221.736662 41.368469 221.567959 43.242952 
Q 221.399255 45.117434 221.399255 46.054676 
Q 221.399255 46.467062 221.45549 46.823214 
Q 221.511724 47.179366 221.605448 47.610497 
Q 221.699172 48.041628 221.736662 48.304055 
L 222.186538 48.528993 
M 215.663338 23.111007 
Q 215.888276 24.798041 215.888276 29.971614 
L 215.888276 42.3432 
L 215.550869 46.841959 
L 215.325931 47.74171 
" clip-path="url(#p7ee993dedd)" style="fill: none; stroke: #000000; stroke-linejoin: miter"/>
   </g>
  </g>
  <g id="axes_15">
   <g id="patch_13">
    <path d="M 235.518579 29.071862 
Q 235.143683 29.146841 235.012469 29.577972 
Q 234.881255 30.009103 234.956234 30.42149 
Q 234.956234 30.571448 234.993724 30.702662 
Q 235.031214 30.833876 235.087448 30.89011 
Q 235.143683 30.946345 235.199917 31.040069 
Q 235.256152 31.133793 235.293641 31.208772 
L 235.40611 29.859145 
M 235.40611 34.020497 
Q 234.506359 39.006621 234.281421 42.793076 
L 234.731297 45.379862 
L 235.068703 46.054676 
" clip-path="url(#p58a271bb6c)" style="fill: none; stroke: #000000; stroke-linejoin: miter"/>
   </g>
  </g>
  <g id="axes_16">
   <g id="patch_14">
    <path d="M 246.657476 43.917766 
Q 246.957393 44.180193 247.969614 45.154924 
Q 248.981834 46.129655 249.544179 46.560786 
Q 250.106524 46.991917 251.13749 47.385559 
Q 252.168455 47.7792 253.180676 47.629241 
Q 253.85549 47.629241 254.32411 47.404303 
Q 254.792731 47.179366 255.017669 46.879448 
Q 255.242607 46.579531 255.373821 45.979697 
Q 255.505034 45.379862 255.523779 44.967476 
Q 255.542524 44.55509 255.542524 43.805297 
Q 255.542524 42.718097 254.642772 42.043283 
Q 253.743021 41.368469 252.449628 41.031062 
Q 251.156234 40.693655 249.862841 40.300014 
Q 248.569448 39.906372 247.669697 38.987876 
Q 246.769945 38.069379 246.769945 36.607283 
Q 246.769945 36.082428 246.938648 35.726276 
Q 247.107352 35.370124 247.500993 35.145186 
Q 247.894634 34.920248 248.175807 34.807779 
Q 248.456979 34.69531 249.113048 34.639076 
Q 249.769117 34.582841 249.956566 34.582841 
Q 250.144014 34.582841 250.818828 34.582841 
Q 252.018497 34.582841 252.599586 34.995228 
Q 253.180676 35.407614 253.499338 36.026193 
Q 253.818 36.644772 254.080428 36.832221 
" clip-path="url(#p120a578305)" style="fill: none; stroke: #000000; stroke-linejoin: miter"/>
   </g>
  </g>
  <g id="axes_17"/>
  <g id="axes_18">
   <g id="patch_15">
    <path d="M 279.957228 37.244607 
Q 281.006938 37.207117 281.194386 37.132138 
Q 284.605945 37.132138 286.386703 39.212814 
Q 288.167462 41.29349 288.167462 44.780028 
Q 288.167462 47.704221 283.556234 47.704221 
Q 282.91891 47.704221 282.37531 47.591752 
Q 281.83171 47.479283 281.194386 47.254345 
Q 280.557062 47.029407 280.069697 46.916938 
L 278.832538 45.679779 
M 279.844759 25.435366 
L 279.844759 26.560055 
Q 279.844759 29.409269 279.957228 33.008276 
Q 280.069697 36.607283 280.257145 40.899848 
Q 280.444593 45.192414 280.519572 47.141876 
" clip-path="url(#p15d0bec8c6)" style="fill: none; stroke: #000000; stroke-linejoin: miter"/>
   </g>
  </g>
  <g id="axes_19">
   <g id="patch_16">
    <path d="M 293.457798 38.160826 
Q 296.430275 39.535596 301.149083 39.721376 
Q 302.672477 39.721376 303.359862 38.550963 
Q 304.047248 37.38055 304.047248 35.82 
Q 304.047248 35.299817 303.954358 34.909679 
Q 303.861468 34.519541 303.619954 34.296606 
Q 303.37844 34.07367 303.211239 33.943624 
Q 303.044037 33.813578 302.598165 33.757844 
Q 302.152294 33.70211 301.947936 33.683532 
Q 301.743578 33.664954 301.167661 33.683532 
Q 300.591743 33.70211 300.368807 33.70211 
Q 298.325229 33.70211 296.838991 35.578486 
Q 295.352752 37.454862 295.352752 39.609908 
Q 295.352752 42.619541 297.284862 44.570229 
Q 299.216972 46.520917 302.263761 46.520917 
Q 304.418807 46.818165 305.942202 44.29156 
" clip-path="url(#p55e8f38883)" style="fill: none; stroke: #000000; stroke-linejoin: miter"/>
   </g>
  </g>
  <g id="axes_20">
   <g id="patch_17">
    <path d="M 321.443923 36.441748 
Q 320.234968 35.094627 316.262687 35.094627 
Q 314.742857 35.094627 313.965672 35.146439 
Q 313.188486 35.198252 312.18678 35.440043 
Q 311.185075 35.681834 310.701493 36.182687 
Q 310.21791 36.683539 309.872495 37.616162 
Q 309.527079 38.548785 309.527079 39.964989 
Q 309.527079 42.037484 310.943284 43.280981 
Q 312.359488 44.524478 314.293817 44.524478 
Q 316.953518 44.524478 319.716844 38.721493 
Q 321.063966 35.854542 321.063966 35.82 
Q 321.409382 35.578209 321.443923 36.441748 
Q 321.443923 37.512537 321.858422 40.362217 
Q 322.272921 43.211898 322.272921 44.524478 
" clip-path="url(#p73dab0801a)" style="fill: none; stroke: #000000; stroke-linejoin: miter"/>
   </g>
  </g>
  <g id="axes_21">
   <g id="patch_18">
    <path d="M 327.488772 35.145186 
Q 327.488772 35.145186 327.488772 35.595062 
Q 327.488772 36.269876 327.376303 37.619503 
Q 327.263834 38.969131 327.263834 39.643945 
Q 327.263834 41.930814 328.500993 43.599103 
Q 329.738152 45.267393 331.875062 45.267393 
Q 333.262179 45.154924 334.030717 43.917766 
Q 334.799255 42.680607 334.949214 41.237255 
Q 335.099172 39.793903 335.3616 37.9944 
Q 335.624028 36.194897 336.036414 35.370124 
Q 336.186372 35.070207 336.186372 35.670041 
Q 336.186372 36.269876 335.923945 38.706703 
Q 335.699007 41.031062 335.699007 41.555917 
Q 335.549048 42.643117 335.886455 43.767807 
Q 336.223862 44.892497 336.936166 45.6048 
" clip-path="url(#p1568e90ab3)" style="fill: none; stroke: #000000; stroke-linejoin: miter"/>
   </g>
  </g>
  <g id="axes_22">
   <g id="patch_19">
    <path d="M 343.463834 37.95691 
L 344.138648 37.95691 
Q 344.850952 37.95691 345.638234 37.881931 
Q 346.425517 37.806952 347.381503 37.675738 
Q 348.33749 37.544524 348.862345 37.507034 
L 353.136166 35.82 
M 349.087283 30.42149 
L 349.087283 31.43371 
Q 349.087283 33.383172 348.412469 37.207117 
Q 347.737655 41.031062 347.737655 43.018014 
Q 347.737655 43.805297 347.737655 44.105214 
Q 347.737655 44.405131 347.831379 45.042455 
Q 347.925103 45.679779 348.112552 45.960952 
Q 348.3 46.242124 348.693641 46.485807 
Q 349.087283 46.72949 349.649628 46.72949 
Q 349.762097 46.692 350.080759 46.72949 
Q 350.399421 46.766979 350.586869 46.710745 
Q 350.774317 46.65451 350.774317 46.392083 
" clip-path="url(#p4ade2ba30f)" style="fill: none; stroke: #000000; stroke-linejoin: miter"/>
   </g>
  </g>
  <g id="axes_23">
   <g id="patch_20">
    <path d="M 359.363917 36.382345 
Q 359.326428 36.494814 359.457641 36.701007 
Q 359.588855 36.9072 359.476386 37.057159 
L 359.476386 39.306538 
Q 359.476386 40.506207 359.813793 41.724621 
Q 360.1512 42.943034 361.013462 43.93651 
Q 361.875724 44.929986 363.075393 44.929986 
Q 364.312552 44.929986 364.987366 43.861531 
Q 365.662179 42.793076 366.112055 41.143531 
Q 366.561931 39.493986 366.899338 38.969131 
L 367.686621 36.382345 
L 367.461683 42.680607 
L 367.461683 45.154924 
Q 367.461683 47.066897 368.192731 51.00331 
Q 368.923779 54.939724 368.923779 56.964166 
Q 369.673572 59.213545 368.586372 60.188276 
Q 367.499172 61.163007 365.437241 60.78811 
Q 363.637738 60.488193 362.719241 60.169531 
Q 361.800745 59.850869 359.813793 58.988607 
L 359.701324 58.426262 
" clip-path="url(#p97ecf192d8)" style="fill: none; stroke: #000000; stroke-linejoin: miter"/>
   </g>
  </g>
  <g id="axes_24"/>
  <g id="axes_25">
   <g id="patch_21">
    <path d="M 392.288772 35.145186 
Q 392.288772 35.145186 392.288772 35.595062 
Q 392.288772 36.269876 392.176303 37.619503 
Q 392.063834 38.969131 392.063834 39.643945 
Q 392.063834 41.930814 393.300993 43.599103 
Q 394.538152 45.267393 396.675062 45.267393 
Q 398.062179 45.154924 398.830717 43.917766 
Q 399.599255 42.680607 399.749214 41.237255 
Q 399.899172 39.793903 400.1616 37.9944 
Q 400.424028 36.194897 400.836414 35.370124 
Q 400.986372 35.070207 400.986372 35.670041 
Q 400.986372 36.269876 400.723945 38.706703 
Q 400.499007 41.031062 400.499007 41.555917 
Q 400.349048 42.643117 400.686455 43.767807 
Q 401.023862 44.892497 401.736166 45.6048 
" clip-path="url(#p330921853a)" style="fill: none; stroke: #000000; stroke-linejoin: miter"/>
   </g>
  </g>
  <g id="axes_26">
   <g id="patch_22">
    <path d="M 408.320069 39.868883 
L 408.320069 39.419007 
Q 408.320069 37.769462 410.063338 36.682262 
Q 411.806607 35.595062 413.493641 35.595062 
Q 415.705531 35.595062 417.073903 36.794731 
Q 418.442276 37.9944 418.442276 40.20629 
Q 418.442276 42.30571 416.624028 43.336676 
Q 414.805779 44.367641 412.59389 44.367641 
Q 411.919076 44.367641 411.412966 44.255172 
Q 410.906855 44.142703 410.288276 43.917766 
Q 409.669697 43.692828 409.219821 43.580359 
L 408.095131 42.568138 
M 407.757724 36.832221 
Q 408.2076 38.444276 408.470028 40.262524 
Q 408.732455 42.080772 408.78869 43.749062 
Q 408.844924 45.417352 408.882414 47.27309 
Q 408.919903 49.128828 408.882414 50.778372 
L 408.769945 57.863917 
" clip-path="url(#p07c2897a11)" style="fill: none; stroke: #000000; stroke-linejoin: miter"/>
   </g>
  </g>
  <g id="axes_27">
   <g id="patch_23">
    <path d="M 427.575476 45.379862 
Q 427.313048 45.304883 427.031876 45.64229 
Q 426.750703 45.979697 426.825683 46.279614 
Q 426.825683 46.429572 427.275559 46.429572 
Q 427.425517 46.467062 427.537986 46.392083 
Q 427.650455 46.317103 427.650455 46.129655 
M 424.351366 26.934952 
Q 427.275559 25.922731 429.599917 26.0352 
Q 431.624359 26.0352 432.936497 27.197379 
Q 434.248634 28.359559 434.248634 30.309021 
Q 434.248634 32.745848 432.655324 34.001752 
Q 431.062014 35.257655 428.550207 35.257655 
L 427.050621 35.257655 
Q 426.900662 35.257655 426.863172 36.194897 
Q 426.825683 37.132138 426.863172 38.069379 
L 426.900662 39.006621 
L 426.900662 41.405959 
L 427.200579 42.230731 
" clip-path="url(#pe0f3a90336)" style="fill: none; stroke: #000000; stroke-linejoin: miter"/>
   </g>
  </g>
  <g id="axes_28">
   <g id="patch_24">
    <path d="M 446.024855 27.009931 
Q 446.099834 27.347338 446.174814 28.265834 
Q 446.249793 29.184331 446.399752 29.634207 
L 446.324772 31.058814 
M 444.675228 27.309848 
Q 444.637738 27.309848 444.600248 27.534786 
Q 444.637738 27.684745 444.750207 28.828179 
Q 444.862676 29.971614 445.125103 30.533959 
" clip-path="url(#p6f2a503e32)" style="fill: none; stroke: #000000; stroke-linejoin: miter"/>
   </g>
  </g>
  <g id="axes_29"/>
  <g id="axes_30">
   <g id="patch_25">
    <path d="M 473.457476 43.917766 
Q 473.757393 44.180193 474.769614 45.154924 
Q 475.781834 46.129655 476.344179 46.560786 
Q 476.906524 46.991917 477.93749 47.385559 
Q 478.968455 47.7792 479.980676 47.629241 
Q 480.65549 47.629241 481.12411 47.404303 
Q 481.592731 47.179366 481.817669 46.879448 
Q 482.042607 46.579531 482.173821 45.979697 
Q 482.305034 45.379862 482.323779 44.967476 
Q 482.342524 44.55509 482.342524 43.805297 
Q 482.342524 42.718097 481.442772 42.043283 
Q 480.543021 41.368469 479.249628 41.031062 
Q 477.956234 40.693655 476.662841 40.300014 
Q 475.369448 39.906372 474.469697 38.987876 
Q 473.569945 38.069379 473.569945 36.607283 
Q 473.569945 36.082428 473.738648 35.726276 
Q 473.907352 35.370124 474.300993 35.145186 
Q 474.694634 34.920248 474.975807 34.807779 
Q 475.256979 34.69531 475.913048 34.639076 
Q 476.569117 34.582841 476.756566 34.582841 
Q 476.944014 34.582841 477.618828 34.582841 
Q 478.818497 34.582841 479.399586 34.995228 
Q 479.980676 35.407614 480.299338 36.026193 
Q 480.618 36.644772 480.880428 36.832221 
" clip-path="url(#p7bd40f2480)" style="fill: none; stroke: #000000; stroke-linejoin: miter"/>
   </g>
  </g>
  <g id="axes_31">
   <g id="patch_26">
    <path d="M 490.613462 35.932469 
Q 491.213297 35.257655 492.206772 34.826524 
Q 493.200248 34.395393 494.1 34.470372 
Q 494.737324 34.470372 495.22469 34.639076 
Q 495.712055 34.807779 496.030717 34.995228 
Q 496.349379 35.182676 496.574317 35.670041 
Q 496.799255 36.157407 496.911724 36.419834 
Q 497.024193 36.682262 497.080428 37.375821 
Q 497.136662 38.069379 497.155407 38.331807 
Q 497.174152 38.594234 497.155407 39.419007 
Q 497.136662 40.243779 497.136662 40.431228 
Q 497.136662 41.368469 496.967959 43.242952 
Q 496.799255 45.117434 496.799255 46.054676 
Q 496.799255 46.467062 496.85549 46.823214 
Q 496.911724 47.179366 497.005448 47.610497 
Q 497.099172 48.041628 497.136662 48.304055 
L 497.586538 48.528993 
M 491.063338 23.111007 
Q 491.288276 24.798041 491.288276 29.971614 
L 491.288276 42.3432 
L 490.950869 46.841959 
L 490.725931 47.74171 
" clip-path="url(#pc4fcc7c22e)" style="fill: none; stroke: #000000; stroke-linejoin: miter"/>
   </g>
  </g>
  <g id="axes_32">
   <g id="patch_27">
    <path d="M 504.057798 38.160826 
Q 507.030275 39.535596 511.749083 39.721376 
Q 513.272477 39.721376 513.959862 38.550963 
Q 514.647248 37.38055 514.647248 35.82 
Q 514.647248 35.299817 514.554358 34.909679 
Q 514.461468 34.519541 514.219954 34.296606 
Q 513.97844 34.07367 513.811239 33.943624 
Q 513.644037 33.813578 513.198165 33.757844 
Q 512.752294 33.70211 512.547936 33.683532 
Q 512.343578 33.664954 511.767661 33.683532 
Q 511.191743 33.70211 510.968807 33.70211 
Q 508.925229 33.70211 507.438991 35.578486 
Q 505.952752 37.454862 505.952752 39.609908 
Q 505.952752 42.619541 507.884862 44.570229 
Q 509.816972 46.520917 512.863761 46.520917 
Q 515.018807 46.818165 516.542202 44.29156 
" clip-path="url(#p0d2b7ea1cd)" style="fill: none; stroke: #000000; stroke-linejoin: miter"/>
   </g>
  </g>
  <g id="axes_33"/>
  <g id="axes_34">
   <g id="patch_28">
    <path d="M 548.243923 36.441748 
Q 547.034968 35.094627 543.062687 35.094627 
Q 541.542857 35.094627 540.765672 35.146439 
Q 539.988486 35.198252 538.98678 35.440043 
Q 537.985075 35.681834 537.501493 36.182687 
Q 537.01791 36.683539 536.672495 37.616162 
Q 536.327079 38.548785 536.327079 39.964989 
Q 536.327079 42.037484 537.743284 43.280981 
Q 539.159488 44.524478 541.093817 44.524478 
Q 543.753518 44.524478 546.516844 38.721493 
Q 547.863966 35.854542 547.863966 35.82 
Q 548.209382 35.578209 548.243923 36.441748 
Q 548.243923 37.512537 548.658422 40.362217 
Q 549.072921 43.211898 549.072921 44.524478 
" clip-path="url(#p514c3ce06c)" style="fill: none; stroke: #000000; stroke-linejoin: miter"/>
   </g>
  </g>
  <g id="axes_35">
   <g id="patch_29">
    <path d="M 554.457476 43.917766 
Q 554.757393 44.180193 555.769614 45.154924 
Q 556.781834 46.129655 557.344179 46.560786 
Q 557.906524 46.991917 558.93749 47.385559 
Q 559.968455 47.7792 560.980676 47.629241 
Q 561.65549 47.629241 562.12411 47.404303 
Q 562.592731 47.179366 562.817669 46.879448 
Q 563.042607 46.579531 563.173821 45.979697 
Q 563.305034 45.379862 563.323779 44.967476 
Q 563.342524 44.55509 563.342524 43.805297 
Q 563.342524 42.718097 562.442772 42.043283 
Q 561.543021 41.368469 560.249628 41.031062 
Q 558.956234 40.693655 557.662841 40.300014 
Q 556.369448 39.906372 555.469697 38.987876 
Q 554.569945 38.069379 554.569945 36.607283 
Q 554.569945 36.082428 554.738648 35.726276 
Q 554.907352 35.370124 555.300993 35.145186 
Q 555.694634 34.920248 555.975807 34.807779 
Q 556.256979 34.69531 556.913048 34.639076 
Q 557.569117 34.582841 557.756566 34.582841 
Q 557.944014 34.582841 558.618828 34.582841 
Q 559.818497 34.582841 560.399586 34.995228 
Q 560.980676 35.407614 561.299338 36.026193 
Q 561.618 36.644772 561.880428 36.832221 
" clip-path="url(#p12ca06dca8)" style="fill: none; stroke: #000000; stroke-linejoin: miter"/>
   </g>
  </g>
  <g id="axes_36">
   <g id="patch_30">
    <path d="M 573.131793 37.169628 
Q 575.156234 39.194069 576.918248 41.76211 
Q 578.680262 44.330152 579.542524 46.72949 
M 576.168455 31.321241 
L 576.168455 31.546179 
Q 576.168455 32.333462 575.531131 33.514386 
Q 574.893807 34.69531 573.919076 36.101172 
Q 572.944345 37.507034 572.681917 37.95691 
L 571.444759 39.643945 
M 570.657476 26.710014 
Q 572.494469 36.269876 572.681917 48.641462 
" clip-path="url(#p13d753a24e)" style="fill: none; stroke: #000000; stroke-linejoin: miter"/>
   </g>
  </g>
  <g id="axes_37">
   <g id="patch_31">
    <path d="M 586.857476 43.917766 
Q 587.157393 44.180193 588.169614 45.154924 
Q 589.181834 46.129655 589.744179 46.560786 
Q 590.306524 46.991917 591.33749 47.385559 
Q 592.368455 47.7792 593.380676 47.629241 
Q 594.05549 47.629241 594.52411 47.404303 
Q 594.992731 47.179366 595.217669 46.879448 
Q 595.442607 46.579531 595.573821 45.979697 
Q 595.705034 45.379862 595.723779 44.967476 
Q 595.742524 44.55509 595.742524 43.805297 
Q 595.742524 42.718097 594.842772 42.043283 
Q 593.943021 41.368469 592.649628 41.031062 
Q 591.356234 40.693655 590.062841 40.300014 
Q 588.769448 39.906372 587.869697 38.987876 
Q 586.969945 38.069379 586.969945 36.607283 
Q 586.969945 36.082428 587.138648 35.726276 
Q 587.307352 35.370124 587.700993 35.145186 
Q 588.094634 34.920248 588.375807 34.807779 
Q 588.656979 34.69531 589.313048 34.639076 
Q 589.969117 34.582841 590.156566 34.582841 
Q 590.344014 34.582841 591.018828 34.582841 
Q 592.218497 34.582841 592.799586 34.995228 
Q 593.380676 35.407614 593.699338 36.026193 
Q 594.018 36.644772 594.280428 36.832221 
" clip-path="url(#p68c6edf285)" style="fill: none; stroke: #000000; stroke-linejoin: miter"/>
   </g>
  </g>
  <g id="axes_38">
   <g id="patch_32">
    <path d="M 607.387531 45.979697 
Q 607.350041 46.017186 607.218828 46.054676 
Q 607.087614 46.092166 607.125103 46.167145 
Q 607.125103 46.579531 607.5 46.579531 
Q 607.837407 46.579531 607.837407 46.092166 
Q 607.912386 45.867228 607.631214 45.754759 
Q 607.350041 45.64229 607.162593 45.754759 
" clip-path="url(#p8ba3aa1aaf)" style="fill: none; stroke: #000000; stroke-linejoin: miter"/>
   </g>
  </g>
 </g>
 <defs>
  <clipPath id="p7cb0f563a0">
   <rect x="5.325766" y="8.64" width="5.548469" height="54.36"/>
  </clipPath>
  <clipPath id="p2ec4e2e68c">
   <rect x="16.2" y="16.080504" width="16.2" height="39.478992"/>
  </clipPath>
  <clipPath id="paface7ce40">
   <rect x="32.4" y="10.777356" width="16.2" height="50.085288"/>
  </clipPath>
  <clipPath id="pc055cdc935">
   <rect x="50.364248" y="8.64" width="12.671503" height="54.36"/>
  </clipPath>
  <clipPath id="pd60ef28692">
   <rect x="81" y="16.753442" width="16.2" height="38.133117"/>
  </clipPath>
  <clipPath id="p01988f04cf">
   <rect x="113.4" y="9.949956" width="16.2" height="51.740088"/>
  </clipPath>
  <clipPath id="pf2a0692f25">
   <rect x="135.206938" y="8.64" width="4.986124" height="54.36"/>
  </clipPath>
  <clipPath id="pce16d3862c">
   <rect x="151.631876" y="8.64" width="4.536248" height="54.36"/>
  </clipPath>
  <clipPath id="pfe4a19e5fa">
   <rect x="167.831876" y="8.64" width="4.536248" height="54.36"/>
  </clipPath>
  <clipPath id="pfaf3513385">
   <rect x="195.789352" y="8.64" width="13.421297" height="54.36"/>
  </clipPath>
  <clipPath id="p7ee993dedd">
   <rect x="213.338979" y="8.64" width="10.722041" height="54.36"/>
  </clipPath>
  <clipPath id="p58a271bb6c">
   <rect x="232.406938" y="8.64" width="4.986124" height="54.36"/>
  </clipPath>
  <clipPath id="p120a578305">
   <rect x="244.782993" y="8.64" width="12.634014" height="54.36"/>
  </clipPath>
  <clipPath id="p15d0bec8c6">
   <rect x="276.958055" y="8.64" width="13.08389" height="54.36"/>
  </clipPath>
  <clipPath id="p55e8f38883">
   <rect x="291.6" y="8.881927" width="16.2" height="53.876147"/>
  </clipPath>
  <clipPath id="p73dab0801a">
   <rect x="307.8" y="10.777356" width="16.2" height="50.085288"/>
  </clipPath>
  <clipPath id="p1568e90ab3">
   <rect x="325.389352" y="8.64" width="13.421297" height="54.36"/>
  </clipPath>
  <clipPath id="p4ade2ba30f">
   <rect x="341.589352" y="8.64" width="13.421297" height="54.36"/>
  </clipPath>
  <clipPath id="p97ecf192d8">
   <rect x="357.451945" y="8.64" width="14.09611" height="54.36"/>
  </clipPath>
  <clipPath id="p330921853a">
   <rect x="390.189352" y="8.64" width="13.421297" height="54.36"/>
  </clipPath>
  <clipPath id="p07c2897a11">
   <rect x="405.883241" y="8.64" width="14.433517" height="54.36"/>
  </clipPath>
  <clipPath id="pe0f3a90336">
   <rect x="422.476883" y="8.64" width="13.646234" height="54.36"/>
  </clipPath>
  <clipPath id="p6f2a503e32">
   <rect x="442.725766" y="8.64" width="5.548469" height="54.36"/>
  </clipPath>
  <clipPath id="p7bd40f2480">
   <rect x="471.582993" y="8.64" width="12.634014" height="54.36"/>
  </clipPath>
  <clipPath id="pc4fcc7c22e">
   <rect x="488.738979" y="8.64" width="10.722041" height="54.36"/>
  </clipPath>
  <clipPath id="p0d2b7ea1cd">
   <rect x="502.2" y="8.881927" width="16.2" height="53.876147"/>
  </clipPath>
  <clipPath id="p514c3ce06c">
   <rect x="534.6" y="10.777356" width="16.2" height="50.085288"/>
  </clipPath>
  <clipPath id="p12ca06dca8">
   <rect x="552.582993" y="8.64" width="12.634014" height="54.36"/>
  </clipPath>
  <clipPath id="p13d753a24e">
   <rect x="568.782993" y="8.64" width="12.634014" height="54.36"/>
  </clipPath>
  <clipPath id="p68c6edf285">
   <rect x="584.982993" y="8.64" width="12.634014" height="54.36"/>
  </clipPath>
  <clipPath id="p8ba3aa1aaf">
   <rect x="605.213131" y="8.64" width="4.573738" height="54.36"/>
  </clipPath>
 </defs>
</svg>
