<?xml version="1.0" encoding="utf-8" standalone="no"?>
<!DOCTYPE svg PUBLIC "-//W3C//DTD SVG 1.1//EN"
  "http://www.w3.org/Graphics/SVG/1.1/DTD/svg11.dtd">
<svg xmlns:xlink="http://www.w3.org/1999/xlink" width="810pt" height="72pt" viewBox="0 0 810 72" xmlns="http://www.w3.org/2000/svg" version="1.1">
 <metadata>
  <rdf:RDF xmlns:dc="http://purl.org/dc/elements/1.1/" xmlns:cc="http://creativecommons.org/ns#" xmlns:rdf="http://www.w3.org/1999/02/22-rdf-syntax-ns#">
   <cc:Work>
    <dc:type rdf:resource="http://purl.org/dc/dcmitype/StillImage"/>
    <dc:date>2023-12-21T11:44:39.985939</dc:date>
    <dc:format>image/svg+xml</dc:format>
    <dc:creator>
     <cc:Agent>
      <dc:title>Matplotlib v3.5.1, https://matplotlib.org/</dc:title>
     </cc:Agent>
    </dc:creator>
   </cc:Work>
  </rdf:RDF>
 </metadata>
 <defs>
  <style type="text/css">*{stroke-linejoin: round; stroke-linecap: butt}</style>
 </defs>
 <g id="figure_1">
  <g id="patch_1">
   <path d="M 0 72 
L 810 72 
L 810 0 
L 0 0 
z
" style="fill: #8fff9f"/>
  </g>
  <g id="axes_1">
   <g id="patch_2">
    <path d="M 4.557228 37.244607 
Q 5.606938 37.207117 5.794386 37.132138 
Q 9.205945 37.132138 10.986703 39.212814 
Q 12.767462 41.29349 12.767462 44.780028 
Q 12.767462 47.704221 8.156234 47.704221 
Q 7.51891 47.704221 6.97531 47.591752 
Q 6.43171 47.479283 5.794386 47.254345 
Q 5.157062 47.029407 4.669697 46.916938 
L 3.432538 45.679779 
M 4.444759 25.435366 
L 4.444759 26.560055 
Q 4.444759 29.409269 4.557228 33.008276 
Q 4.669697 36.607283 4.857145 40.899848 
Q 5.044593 45.192414 5.119572 47.141876 
" clip-path="url(#pcd6e2ee97d)" style="fill: none; stroke: #000000; stroke-linejoin: miter"/>
   </g>
  </g>
  <g id="axes_2">
   <g id="patch_3">
    <path d="M 19.163917 36.382345 
Q 19.126428 36.494814 19.257641 36.701007 
Q 19.388855 36.9072 19.276386 37.057159 
L 19.276386 39.306538 
Q 19.276386 40.506207 19.613793 41.724621 
Q 19.9512 42.943034 20.813462 43.93651 
Q 21.675724 44.929986 22.875393 44.929986 
Q 24.112552 44.929986 24.787366 43.861531 
Q 25.462179 42.793076 25.912055 41.143531 
Q 26.361931 39.493986 26.699338 38.969131 
L 27.486621 36.382345 
L 27.261683 42.680607 
L 27.261683 45.154924 
Q 27.261683 47.066897 27.992731 51.00331 
Q 28.723779 54.939724 28.723779 56.964166 
Q 29.473572 59.213545 28.386372 60.188276 
Q 27.299172 61.163007 25.237241 60.78811 
Q 23.437738 60.488193 22.519241 60.169531 
Q 21.600745 59.850869 19.613793 58.988607 
L 19.501324 58.426262 
" clip-path="url(#p09602eada7)" style="fill: none; stroke: #000000; stroke-linejoin: miter"/>
   </g>
  </g>
  <g id="axes_3"/>
  <g id="axes_4">
   <g id="patch_4">
    <path d="M 62.243923 36.441748 
Q 61.034968 35.094627 57.062687 35.094627 
Q 55.542857 35.094627 54.765672 35.146439 
Q 53.988486 35.198252 52.98678 35.440043 
Q 51.985075 35.681834 51.501493 36.182687 
Q 51.01791 36.683539 50.672495 37.616162 
Q 50.327079 38.548785 50.327079 39.964989 
Q 50.327079 42.037484 51.743284 43.280981 
Q 53.159488 44.524478 55.093817 44.524478 
Q 57.753518 44.524478 60.516844 38.721493 
Q 61.863966 35.854542 61.863966 35.82 
Q 62.209382 35.578209 62.243923 36.441748 
Q 62.243923 37.512537 62.658422 40.362217 
Q 63.072921 43.211898 63.072921 44.524478 
" clip-path="url(#p73382fb7a7)" style="fill: none; stroke: #000000; stroke-linejoin: miter"/>
   </g>
  </g>
  <g id="axes_5">
   <g id="patch_5">
    <path d="M 68.438731 37.282097 
L 68.438731 37.844441 
Q 68.701159 39.868883 68.738648 41.312234 
Q 68.776138 42.755586 68.682414 44.667559 
Q 68.58869 46.579531 68.58869 48.191586 
L 68.663669 39.643945 
Q 68.663669 38.144359 70.256979 37.507034 
Q 71.85029 36.86971 73.274897 37.282097 
Q 75.186869 37.844441 76.105366 39.04411 
Q 77.023862 40.243779 77.080097 41.668386 
Q 77.136331 43.092993 77.173821 44.817517 
Q 77.21131 46.542041 77.361269 48.191586 
" clip-path="url(#p7ede2946fd)" style="fill: none; stroke: #000000; stroke-linejoin: miter"/>
   </g>
  </g>
  <g id="axes_6">
   <g id="patch_6">
    <path d="M 83.963917 36.382345 
Q 83.926428 36.494814 84.057641 36.701007 
Q 84.188855 36.9072 84.076386 37.057159 
L 84.076386 39.306538 
Q 84.076386 40.506207 84.413793 41.724621 
Q 84.7512 42.943034 85.613462 43.93651 
Q 86.475724 44.929986 87.675393 44.929986 
Q 88.912552 44.929986 89.587366 43.861531 
Q 90.262179 42.793076 90.712055 41.143531 
Q 91.161931 39.493986 91.499338 38.969131 
L 92.286621 36.382345 
L 92.061683 42.680607 
L 92.061683 45.154924 
Q 92.061683 47.066897 92.792731 51.00331 
Q 93.523779 54.939724 93.523779 56.964166 
Q 94.273572 59.213545 93.186372 60.188276 
Q 92.099172 61.163007 90.037241 60.78811 
Q 88.237738 60.488193 87.319241 60.169531 
Q 86.400745 59.850869 84.413793 58.988607 
L 84.301324 58.426262 
" clip-path="url(#p890e344676)" style="fill: none; stroke: #000000; stroke-linejoin: miter"/>
   </g>
  </g>
  <g id="axes_7"/>
  <g id="axes_8">
   <g id="patch_7">
    <path d="M 126.756735 34.365306 
Q 126.756735 34.365306 126.260816 34.365306 
Q 125.467347 34.365306 123.979592 34.067755 
Q 122.491837 33.770204 121.698367 33.770204 
Q 118.921224 33.770204 116.987143 35.224898 
Q 115.053061 36.679592 115.053061 39.423673 
Q 115.053061 40.94449 116.540816 42.399184 
Q 118.028571 43.853878 119.962653 44.663878 
Q 121.896735 45.473878 123.38449 45.473878 
Q 124.310204 45.473878 125.00449 45.110204 
Q 125.698776 44.746531 126.442653 44.118367 
Q 127.186531 43.490204 127.748571 43.192653 
L 127.946939 42.696735 
" clip-path="url(#p09638f47a9)" style="fill: none; stroke: #000000; stroke-linejoin: miter"/>
   </g>
  </g>
  <g id="axes_9">
   <g id="patch_8">
    <path d="M 134.213462 35.932469 
Q 134.813297 35.257655 135.806772 34.826524 
Q 136.800248 34.395393 137.7 34.470372 
Q 138.337324 34.470372 138.82469 34.639076 
Q 139.312055 34.807779 139.630717 34.995228 
Q 139.949379 35.182676 140.174317 35.670041 
Q 140.399255 36.157407 140.511724 36.419834 
Q 140.624193 36.682262 140.680428 37.375821 
Q 140.736662 38.069379 140.755407 38.331807 
Q 140.774152 38.594234 140.755407 39.419007 
Q 140.736662 40.243779 140.736662 40.431228 
Q 140.736662 41.368469 140.567959 43.242952 
Q 140.399255 45.117434 140.399255 46.054676 
Q 140.399255 46.467062 140.45549 46.823214 
Q 140.511724 47.179366 140.605448 47.610497 
Q 140.699172 48.041628 140.736662 48.304055 
L 141.186538 48.528993 
M 134.663338 23.111007 
Q 134.888276 24.798041 134.888276 29.971614 
L 134.888276 42.3432 
L 134.550869 46.841959 
L 134.325931 47.74171 
" clip-path="url(#p3a249b4e88)" style="fill: none; stroke: #000000; stroke-linejoin: miter"/>
   </g>
  </g>
  <g id="axes_10">
   <g id="patch_9">
    <path d="M 159.443923 36.441748 
Q 158.234968 35.094627 154.262687 35.094627 
Q 152.742857 35.094627 151.965672 35.146439 
Q 151.188486 35.198252 150.18678 35.440043 
Q 149.185075 35.681834 148.701493 36.182687 
Q 148.21791 36.683539 147.872495 37.616162 
Q 147.527079 38.548785 147.527079 39.964989 
Q 147.527079 42.037484 148.943284 43.280981 
Q 150.359488 44.524478 152.293817 44.524478 
Q 154.953518 44.524478 157.716844 38.721493 
Q 159.063966 35.854542 159.063966 35.82 
Q 159.409382 35.578209 159.443923 36.441748 
Q 159.443923 37.512537 159.858422 40.362217 
Q 160.272921 43.211898 160.272921 44.524478 
" clip-path="url(#pb03adbc2e5)" style="fill: none; stroke: #000000; stroke-linejoin: miter"/>
   </g>
  </g>
  <g id="axes_11">
   <g id="patch_10">
    <path d="M 165.638731 37.282097 
L 165.638731 37.844441 
Q 165.901159 39.868883 165.938648 41.312234 
Q 165.976138 42.755586 165.882414 44.667559 
Q 165.78869 46.579531 165.78869 48.191586 
L 165.863669 39.643945 
Q 165.863669 38.144359 167.456979 37.507034 
Q 169.05029 36.86971 170.474897 37.282097 
Q 172.386869 37.844441 173.305366 39.04411 
Q 174.223862 40.243779 174.280097 41.668386 
Q 174.336331 43.092993 174.373821 44.817517 
Q 174.41131 46.542041 174.561269 48.191586 
" clip-path="url(#p151c327c0b)" style="fill: none; stroke: #000000; stroke-linejoin: miter"/>
   </g>
  </g>
  <g id="axes_12">
   <g id="patch_11">
    <path d="M 191.556735 34.365306 
Q 191.556735 34.365306 191.060816 34.365306 
Q 190.267347 34.365306 188.779592 34.067755 
Q 187.291837 33.770204 186.498367 33.770204 
Q 183.721224 33.770204 181.787143 35.224898 
Q 179.853061 36.679592 179.853061 39.423673 
Q 179.853061 40.94449 181.340816 42.399184 
Q 182.828571 43.853878 184.762653 44.663878 
Q 186.696735 45.473878 188.18449 45.473878 
Q 189.110204 45.473878 189.80449 45.110204 
Q 190.498776 44.746531 191.242653 44.118367 
Q 191.986531 43.490204 192.548571 43.192653 
L 192.746939 42.696735 
" clip-path="url(#pbc51dbff71)" style="fill: none; stroke: #000000; stroke-linejoin: miter"/>
   </g>
  </g>
  <g id="axes_13">
   <g id="patch_12">
    <path d="M 196.257798 38.160826 
Q 199.230275 39.535596 203.949083 39.721376 
Q 205.472477 39.721376 206.159862 38.550963 
Q 206.847248 37.38055 206.847248 35.82 
Q 206.847248 35.299817 206.754358 34.909679 
Q 206.661468 34.519541 206.419954 34.296606 
Q 206.17844 34.07367 206.011239 33.943624 
Q 205.844037 33.813578 205.398165 33.757844 
Q 204.952294 33.70211 204.747936 33.683532 
Q 204.543578 33.664954 203.967661 33.683532 
Q 203.391743 33.70211 203.168807 33.70211 
Q 201.125229 33.70211 199.638991 35.578486 
Q 198.152752 37.454862 198.152752 39.609908 
Q 198.152752 42.619541 200.084862 44.570229 
Q 202.016972 46.520917 205.063761 46.520917 
Q 207.218807 46.818165 208.742202 44.29156 
" clip-path="url(#pb45caf638d)" style="fill: none; stroke: #000000; stroke-linejoin: miter"/>
   </g>
  </g>
  <g id="axes_14"/>
  <g id="axes_15">
   <g id="patch_13">
    <path d="M 228.516102 36.437797 
L 229.751695 44.778051 
Q 229.854661 45.567458 229.854661 45.60178 
Q 229.854661 45.704746 230.163559 45.704746 
Q 231.02161 45.704746 231.742373 44.778051 
Q 232.463136 43.851356 232.875 42.718729 
Q 233.286864 41.586102 233.801695 40.659407 
Q 234.316525 39.732712 234.797034 39.732712 
Q 235.414831 39.732712 236.049788 40.607924 
Q 236.684746 41.483136 237.148093 42.512797 
Q 237.611441 43.542458 238.28072 44.417669 
Q 238.95 45.292881 239.636441 45.292881 
Q 239.911017 43.782712 240.340042 39.69839 
Q 240.769068 35.614068 241.283898 33.554746 
" clip-path="url(#pe286feaaad)" style="fill: none; stroke: #000000; stroke-linejoin: miter"/>
   </g>
  </g>
  <g id="axes_16">
   <g id="patch_14">
    <path d="M 244.857798 38.160826 
Q 247.830275 39.535596 252.549083 39.721376 
Q 254.072477 39.721376 254.759862 38.550963 
Q 255.447248 37.38055 255.447248 35.82 
Q 255.447248 35.299817 255.354358 34.909679 
Q 255.261468 34.519541 255.019954 34.296606 
Q 254.77844 34.07367 254.611239 33.943624 
Q 254.444037 33.813578 253.998165 33.757844 
Q 253.552294 33.70211 253.347936 33.683532 
Q 253.143578 33.664954 252.567661 33.683532 
Q 251.991743 33.70211 251.768807 33.70211 
Q 249.725229 33.70211 248.238991 35.578486 
Q 246.752752 37.454862 246.752752 39.609908 
Q 246.752752 42.619541 248.684862 44.570229 
Q 250.616972 46.520917 253.663761 46.520917 
Q 255.818807 46.818165 257.342202 44.29156 
" clip-path="url(#pdfd8613301)" style="fill: none; stroke: #000000; stroke-linejoin: miter"/>
   </g>
  </g>
  <g id="axes_17">
   <g id="patch_15">
    <path d="M 263.813462 32.783338 
Q 264.338317 34.507862 264.469531 36.457324 
Q 264.600745 38.406786 264.525766 40.956083 
Q 264.450786 43.505379 264.488276 44.705048 
L 264.600745 46.054676 
L 264.600745 45.829738 
Q 264.600745 44.667559 264.319572 42.30571 
Q 264.0384 39.943862 264.0384 38.744193 
Q 264.0384 36.419834 265.050621 34.882759 
Q 266.062841 33.345683 268.087283 33.345683 
Q 268.799586 33.345683 269.136993 33.626855 
Q 269.4744 33.908028 269.736828 34.432883 
Q 269.999255 34.957738 270.336662 35.257655 
L 270.786538 36.832221 
" clip-path="url(#pc642c0b41e)" style="fill: none; stroke: #000000; stroke-linejoin: miter"/>
   </g>
  </g>
  <g id="axes_18">
   <g id="patch_16">
    <path d="M 277.257798 38.160826 
Q 280.230275 39.535596 284.949083 39.721376 
Q 286.472477 39.721376 287.159862 38.550963 
Q 287.847248 37.38055 287.847248 35.82 
Q 287.847248 35.299817 287.754358 34.909679 
Q 287.661468 34.519541 287.419954 34.296606 
Q 287.17844 34.07367 287.011239 33.943624 
Q 286.844037 33.813578 286.398165 33.757844 
Q 285.952294 33.70211 285.747936 33.683532 
Q 285.543578 33.664954 284.967661 33.683532 
Q 284.391743 33.70211 284.168807 33.70211 
Q 282.125229 33.70211 280.638991 35.578486 
Q 279.152752 37.454862 279.152752 39.609908 
Q 279.152752 42.619541 281.084862 44.570229 
Q 283.016972 46.520917 286.063761 46.520917 
Q 288.218807 46.818165 289.742202 44.29156 
" clip-path="url(#p427842908d)" style="fill: none; stroke: #000000; stroke-linejoin: miter"/>
   </g>
  </g>
  <g id="axes_19"/>
  <g id="axes_20">
   <g id="patch_17">
    <path d="M 310.763917 36.382345 
Q 310.726428 36.494814 310.857641 36.701007 
Q 310.988855 36.9072 310.876386 37.057159 
L 310.876386 39.306538 
Q 310.876386 40.506207 311.213793 41.724621 
Q 311.5512 42.943034 312.413462 43.93651 
Q 313.275724 44.929986 314.475393 44.929986 
Q 315.712552 44.929986 316.387366 43.861531 
Q 317.062179 42.793076 317.512055 41.143531 
Q 317.961931 39.493986 318.299338 38.969131 
L 319.086621 36.382345 
L 318.861683 42.680607 
L 318.861683 45.154924 
Q 318.861683 47.066897 319.592731 51.00331 
Q 320.323779 54.939724 320.323779 56.964166 
Q 321.073572 59.213545 319.986372 60.188276 
Q 318.899172 61.163007 316.837241 60.78811 
Q 315.037738 60.488193 314.119241 60.169531 
Q 313.200745 59.850869 311.213793 58.988607 
L 311.101324 58.426262 
" clip-path="url(#p01771a1a86)" style="fill: none; stroke: #000000; stroke-linejoin: miter"/>
   </g>
  </g>
  <g id="axes_21">
   <g id="patch_18">
    <path d="M 337.643923 36.441748 
Q 336.434968 35.094627 332.462687 35.094627 
Q 330.942857 35.094627 330.165672 35.146439 
Q 329.388486 35.198252 328.38678 35.440043 
Q 327.385075 35.681834 326.901493 36.182687 
Q 326.41791 36.683539 326.072495 37.616162 
Q 325.727079 38.548785 325.727079 39.964989 
Q 325.727079 42.037484 327.143284 43.280981 
Q 328.559488 44.524478 330.493817 44.524478 
Q 333.153518 44.524478 335.916844 38.721493 
Q 337.263966 35.854542 337.263966 35.82 
Q 337.609382 35.578209 337.643923 36.441748 
Q 337.643923 37.512537 338.058422 40.362217 
Q 338.472921 43.211898 338.472921 44.524478 
" clip-path="url(#p18b6d9e6f3)" style="fill: none; stroke: #000000; stroke-linejoin: miter"/>
   </g>
  </g>
  <g id="axes_22">
   <g id="patch_19">
    <path d="M 346.575476 45.379862 
Q 346.313048 45.304883 346.031876 45.64229 
Q 345.750703 45.979697 345.825683 46.279614 
Q 345.825683 46.429572 346.275559 46.429572 
Q 346.425517 46.467062 346.537986 46.392083 
Q 346.650455 46.317103 346.650455 46.129655 
M 343.351366 26.934952 
Q 346.275559 25.922731 348.599917 26.0352 
Q 350.624359 26.0352 351.936497 27.197379 
Q 353.248634 28.359559 353.248634 30.309021 
Q 353.248634 32.745848 351.655324 34.001752 
Q 350.062014 35.257655 347.550207 35.257655 
L 346.050621 35.257655 
Q 345.900662 35.257655 345.863172 36.194897 
Q 345.825683 37.132138 345.863172 38.069379 
L 345.900662 39.006621 
L 345.900662 41.405959 
L 346.200579 42.230731 
" clip-path="url(#pc26f66fc34)" style="fill: none; stroke: #000000; stroke-linejoin: miter"/>
   </g>
  </g>
  <g id="axes_23">
   <g id="patch_20">
    <path d="M 365.024855 27.009931 
Q 365.099834 27.347338 365.174814 28.265834 
Q 365.249793 29.184331 365.399752 29.634207 
L 365.324772 31.058814 
M 363.675228 27.309848 
Q 363.637738 27.309848 363.600248 27.534786 
Q 363.637738 27.684745 363.750207 28.828179 
Q 363.862676 29.971614 364.125103 30.533959 
" clip-path="url(#pddadc94b1d)" style="fill: none; stroke: #000000; stroke-linejoin: miter"/>
   </g>
  </g>
  <g id="axes_24"/>
  <g id="axes_25">
   <g id="patch_21">
    <path d="M 390.453061 45.374694 
Q 394.552653 45.440816 401.561633 45.870612 
Q 401.991429 45.903673 402.173265 45.887143 
Q 402.355102 45.870612 402.751837 45.787959 
Q 403.148571 45.705306 403.346939 45.672245 
M 392.04 27.521633 
L 392.04 29.406122 
Q 392.04 31.588163 391.825102 33.985102 
Q 391.610204 36.382041 391.246531 39.291429 
Q 390.882857 42.200816 390.750612 43.787755 
L 390.453061 45.374694 
" clip-path="url(#p265a4dcc35)" style="fill: none; stroke: #000000; stroke-linejoin: miter"/>
   </g>
  </g>
  <g id="axes_26">
   <g id="patch_22">
    <path d="M 418.643923 36.441748 
Q 417.434968 35.094627 413.462687 35.094627 
Q 411.942857 35.094627 411.165672 35.146439 
Q 410.388486 35.198252 409.38678 35.440043 
Q 408.385075 35.681834 407.901493 36.182687 
Q 407.41791 36.683539 407.072495 37.616162 
Q 406.727079 38.548785 406.727079 39.964989 
Q 406.727079 42.037484 408.143284 43.280981 
Q 409.559488 44.524478 411.493817 44.524478 
Q 414.153518 44.524478 416.916844 38.721493 
Q 418.263966 35.854542 418.263966 35.82 
Q 418.609382 35.578209 418.643923 36.441748 
Q 418.643923 37.512537 419.058422 40.362217 
Q 419.472921 43.211898 419.472921 44.524478 
" clip-path="url(#p676a766e5f)" style="fill: none; stroke: #000000; stroke-linejoin: miter"/>
   </g>
  </g>
  <g id="axes_27">
   <g id="patch_23">
    <path d="M 424.688772 35.145186 
Q 424.688772 35.145186 424.688772 35.595062 
Q 424.688772 36.269876 424.576303 37.619503 
Q 424.463834 38.969131 424.463834 39.643945 
Q 424.463834 41.930814 425.700993 43.599103 
Q 426.938152 45.267393 429.075062 45.267393 
Q 430.462179 45.154924 431.230717 43.917766 
Q 431.999255 42.680607 432.149214 41.237255 
Q 432.299172 39.793903 432.5616 37.9944 
Q 432.824028 36.194897 433.236414 35.370124 
Q 433.386372 35.070207 433.386372 35.670041 
Q 433.386372 36.269876 433.123945 38.706703 
Q 432.899007 41.031062 432.899007 41.555917 
Q 432.749048 42.643117 433.086455 43.767807 
Q 433.423862 44.892497 434.136166 45.6048 
" clip-path="url(#p6c4dff7fd4)" style="fill: none; stroke: #000000; stroke-linejoin: miter"/>
   </g>
  </g>
  <g id="axes_28">
   <g id="patch_24">
    <path d="M 442.013462 32.783338 
Q 442.538317 34.507862 442.669531 36.457324 
Q 442.800745 38.406786 442.725766 40.956083 
Q 442.650786 43.505379 442.688276 44.705048 
L 442.800745 46.054676 
L 442.800745 45.829738 
Q 442.800745 44.667559 442.519572 42.30571 
Q 442.2384 39.943862 442.2384 38.744193 
Q 442.2384 36.419834 443.250621 34.882759 
Q 444.262841 33.345683 446.287283 33.345683 
Q 446.999586 33.345683 447.336993 33.626855 
Q 447.6744 33.908028 447.936828 34.432883 
Q 448.199255 34.957738 448.536662 35.257655 
L 448.986538 36.832221 
" clip-path="url(#p05c283126f)" style="fill: none; stroke: #000000; stroke-linejoin: miter"/>
   </g>
  </g>
  <g id="axes_29">
   <g id="patch_25">
    <path d="M 467.243923 36.441748 
Q 466.034968 35.094627 462.062687 35.094627 
Q 460.542857 35.094627 459.765672 35.146439 
Q 458.988486 35.198252 457.98678 35.440043 
Q 456.985075 35.681834 456.501493 36.182687 
Q 456.01791 36.683539 455.672495 37.616162 
Q 455.327079 38.548785 455.327079 39.964989 
Q 455.327079 42.037484 456.743284 43.280981 
Q 458.159488 44.524478 460.093817 44.524478 
Q 462.753518 44.524478 465.516844 38.721493 
Q 466.863966 35.854542 466.863966 35.82 
Q 467.209382 35.578209 467.243923 36.441748 
Q 467.243923 37.512537 467.658422 40.362217 
Q 468.072921 43.211898 468.072921 44.524478 
" clip-path="url(#p467b2ed24f)" style="fill: none; stroke: #000000; stroke-linejoin: miter"/>
   </g>
  </g>
  <g id="axes_30"/>
  <g id="axes_31">
   <g id="patch_26">
    <path d="M 499.643923 36.441748 
Q 498.434968 35.094627 494.462687 35.094627 
Q 492.942857 35.094627 492.165672 35.146439 
Q 491.388486 35.198252 490.38678 35.440043 
Q 489.385075 35.681834 488.901493 36.182687 
Q 488.41791 36.683539 488.072495 37.616162 
Q 487.727079 38.548785 487.727079 39.964989 
Q 487.727079 42.037484 489.143284 43.280981 
Q 490.559488 44.524478 492.493817 44.524478 
Q 495.153518 44.524478 497.916844 38.721493 
Q 499.263966 35.854542 499.263966 35.82 
Q 499.609382 35.578209 499.643923 36.441748 
Q 499.643923 37.512537 500.058422 40.362217 
Q 500.472921 43.211898 500.472921 44.524478 
" clip-path="url(#p65b423af21)" style="fill: none; stroke: #000000; stroke-linejoin: miter"/>
   </g>
  </g>
  <g id="axes_32">
   <g id="patch_27">
    <path d="M 505.857476 43.917766 
Q 506.157393 44.180193 507.169614 45.154924 
Q 508.181834 46.129655 508.744179 46.560786 
Q 509.306524 46.991917 510.33749 47.385559 
Q 511.368455 47.7792 512.380676 47.629241 
Q 513.05549 47.629241 513.52411 47.404303 
Q 513.992731 47.179366 514.217669 46.879448 
Q 514.442607 46.579531 514.573821 45.979697 
Q 514.705034 45.379862 514.723779 44.967476 
Q 514.742524 44.55509 514.742524 43.805297 
Q 514.742524 42.718097 513.842772 42.043283 
Q 512.943021 41.368469 511.649628 41.031062 
Q 510.356234 40.693655 509.062841 40.300014 
Q 507.769448 39.906372 506.869697 38.987876 
Q 505.969945 38.069379 505.969945 36.607283 
Q 505.969945 36.082428 506.138648 35.726276 
Q 506.307352 35.370124 506.700993 35.145186 
Q 507.094634 34.920248 507.375807 34.807779 
Q 507.656979 34.69531 508.313048 34.639076 
Q 508.969117 34.582841 509.156566 34.582841 
Q 509.344014 34.582841 510.018828 34.582841 
Q 511.218497 34.582841 511.799586 34.995228 
Q 512.380676 35.407614 512.699338 36.026193 
Q 513.018 36.644772 513.280428 36.832221 
" clip-path="url(#pe2f646927b)" style="fill: none; stroke: #000000; stroke-linejoin: miter"/>
   </g>
  </g>
  <g id="axes_33">
   <g id="patch_28">
    <path d="M 524.531793 37.169628 
Q 526.556234 39.194069 528.318248 41.76211 
Q 530.080262 44.330152 530.942524 46.72949 
M 527.568455 31.321241 
L 527.568455 31.546179 
Q 527.568455 32.333462 526.931131 33.514386 
Q 526.293807 34.69531 525.319076 36.101172 
Q 524.344345 37.507034 524.081917 37.95691 
L 522.844759 39.643945 
M 522.057476 26.710014 
Q 523.894469 36.269876 524.081917 48.641462 
" clip-path="url(#pb131e46b57)" style="fill: none; stroke: #000000; stroke-linejoin: miter"/>
   </g>
  </g>
  <g id="axes_34">
   <g id="patch_29">
    <path d="M 538.257476 43.917766 
Q 538.557393 44.180193 539.569614 45.154924 
Q 540.581834 46.129655 541.144179 46.560786 
Q 541.706524 46.991917 542.73749 47.385559 
Q 543.768455 47.7792 544.780676 47.629241 
Q 545.45549 47.629241 545.92411 47.404303 
Q 546.392731 47.179366 546.617669 46.879448 
Q 546.842607 46.579531 546.973821 45.979697 
Q 547.105034 45.379862 547.123779 44.967476 
Q 547.142524 44.55509 547.142524 43.805297 
Q 547.142524 42.718097 546.242772 42.043283 
Q 545.343021 41.368469 544.049628 41.031062 
Q 542.756234 40.693655 541.462841 40.300014 
Q 540.169448 39.906372 539.269697 38.987876 
Q 538.369945 38.069379 538.369945 36.607283 
Q 538.369945 36.082428 538.538648 35.726276 
Q 538.707352 35.370124 539.100993 35.145186 
Q 539.494634 34.920248 539.775807 34.807779 
Q 540.056979 34.69531 540.713048 34.639076 
Q 541.369117 34.582841 541.556566 34.582841 
Q 541.744014 34.582841 542.418828 34.582841 
Q 543.618497 34.582841 544.199586 34.995228 
Q 544.780676 35.407614 545.099338 36.026193 
Q 545.418 36.644772 545.680428 36.832221 
" clip-path="url(#paed821ca84)" style="fill: none; stroke: #000000; stroke-linejoin: miter"/>
   </g>
  </g>
  <g id="axes_35">
   <g id="patch_30">
    <path d="M 558.187697 39.981352 
Q 559.199917 40.956083 559.537324 42.905545 
Q 559.724772 43.955255 559.312386 46.167145 
L 558.075228 47.629241 
" clip-path="url(#p84d5ec1997)" style="fill: none; stroke: #000000; stroke-linejoin: miter"/>
   </g>
  </g>
  <g id="axes_36"/>
  <g id="axes_37">
   <g id="patch_31">
    <path d="M 586.688772 35.145186 
Q 586.688772 35.145186 586.688772 35.595062 
Q 586.688772 36.269876 586.576303 37.619503 
Q 586.463834 38.969131 586.463834 39.643945 
Q 586.463834 41.930814 587.700993 43.599103 
Q 588.938152 45.267393 591.075062 45.267393 
Q 592.462179 45.154924 593.230717 43.917766 
Q 593.999255 42.680607 594.149214 41.237255 
Q 594.299172 39.793903 594.5616 37.9944 
Q 594.824028 36.194897 595.236414 35.370124 
Q 595.386372 35.070207 595.386372 35.670041 
Q 595.386372 36.269876 595.123945 38.706703 
Q 594.899007 41.031062 594.899007 41.555917 
Q 594.749048 42.643117 595.086455 43.767807 
Q 595.423862 44.892497 596.136166 45.6048 
" clip-path="url(#p8694d7215f)" style="fill: none; stroke: #000000; stroke-linejoin: miter"/>
   </g>
  </g>
  <g id="axes_38">
   <g id="patch_32">
    <path d="M 603.057476 43.917766 
Q 603.357393 44.180193 604.369614 45.154924 
Q 605.381834 46.129655 605.944179 46.560786 
Q 606.506524 46.991917 607.53749 47.385559 
Q 608.568455 47.7792 609.580676 47.629241 
Q 610.25549 47.629241 610.72411 47.404303 
Q 611.192731 47.179366 611.417669 46.879448 
Q 611.642607 46.579531 611.773821 45.979697 
Q 611.905034 45.379862 611.923779 44.967476 
Q 611.942524 44.55509 611.942524 43.805297 
Q 611.942524 42.718097 611.042772 42.043283 
Q 610.143021 41.368469 608.849628 41.031062 
Q 607.556234 40.693655 606.262841 40.300014 
Q 604.969448 39.906372 604.069697 38.987876 
Q 603.169945 38.069379 603.169945 36.607283 
Q 603.169945 36.082428 603.338648 35.726276 
Q 603.507352 35.370124 603.900993 35.145186 
Q 604.294634 34.920248 604.575807 34.807779 
Q 604.856979 34.69531 605.513048 34.639076 
Q 606.169117 34.582841 606.356566 34.582841 
Q 606.544014 34.582841 607.218828 34.582841 
Q 608.418497 34.582841 608.999586 34.995228 
Q 609.580676 35.407614 609.899338 36.026193 
Q 610.218 36.644772 610.480428 36.832221 
" clip-path="url(#p62657db766)" style="fill: none; stroke: #000000; stroke-linejoin: miter"/>
   </g>
  </g>
  <g id="axes_39">
   <g id="patch_33">
    <path d="M 624.318579 29.071862 
Q 623.943683 29.146841 623.812469 29.577972 
Q 623.681255 30.009103 623.756234 30.42149 
Q 623.756234 30.571448 623.793724 30.702662 
Q 623.831214 30.833876 623.887448 30.89011 
Q 623.943683 30.946345 623.999917 31.040069 
Q 624.056152 31.133793 624.093641 31.208772 
L 624.20611 29.859145 
M 624.20611 34.020497 
Q 623.306359 39.006621 623.081421 42.793076 
L 623.531297 45.379862 
L 623.868703 46.054676 
" clip-path="url(#paad69190b2)" style="fill: none; stroke: #000000; stroke-linejoin: miter"/>
   </g>
  </g>
  <g id="axes_40">
   <g id="patch_34">
    <path d="M 635.438731 37.282097 
L 635.438731 37.844441 
Q 635.701159 39.868883 635.738648 41.312234 
Q 635.776138 42.755586 635.682414 44.667559 
Q 635.58869 46.579531 635.58869 48.191586 
L 635.663669 39.643945 
Q 635.663669 38.144359 637.256979 37.507034 
Q 638.85029 36.86971 640.274897 37.282097 
Q 642.186869 37.844441 643.105366 39.04411 
Q 644.023862 40.243779 644.080097 41.668386 
Q 644.136331 43.092993 644.173821 44.817517 
Q 644.21131 46.542041 644.361269 48.191586 
" clip-path="url(#p2a6cb4a66e)" style="fill: none; stroke: #000000; stroke-linejoin: miter"/>
   </g>
  </g>
  <g id="axes_41">
   <g id="patch_35">
    <path d="M 660.887191 39.096404 
Q 660.63236 39.023596 659.66764 38.623146 
Q 658.702921 38.222697 658.04764 38.077079 
Q 657.39236 37.931461 656.737079 38.00427 
Q 654.115955 38.00427 652.477753 40.388764 
Q 650.839551 42.773258 650.839551 45.430787 
Q 650.839551 47.068989 656.081798 47.068989 
Q 657.647191 47.068989 658.975955 45.558202 
Q 660.304719 44.047416 660.978202 42.172584 
Q 661.651685 40.297753 661.651685 38.768764 
Q 661.651685 37.27618 661.615281 36.984944 
L 661.542472 38.077079 
Q 661.542472 38.550337 661.542472 38.987191 
Q 661.578876 40.188539 661.779101 42.281798 
Q 661.979326 44.375056 662.143146 46.049663 
Q 662.306966 47.72427 662.343371 49.872135 
Q 662.379775 52.02 662.215955 53.658202 
Q 662.052135 55.296404 661.487865 56.971011 
Q 660.923596 58.645618 659.995281 59.737753 
Q 659.066966 60.829888 657.465169 61.521573 
Q 655.863371 62.213258 653.715506 62.213258 
Q 652.077303 62.213258 650.985169 61.466966 
Q 649.893034 60.720674 649.893034 59.155281 
Q 649.820225 58.936854 649.856629 58.936854 
Q 649.893034 58.936854 650.002247 58.936854 
Q 650.111461 58.936854 650.111461 58.82764 
" clip-path="url(#pd36f30aa2c)" style="fill: none; stroke: #000000; stroke-linejoin: miter"/>
   </g>
  </g>
  <g id="axes_42"/>
  <g id="axes_43">
   <g id="patch_36">
    <path d="M 683.663834 37.95691 
L 684.338648 37.95691 
Q 685.050952 37.95691 685.838234 37.881931 
Q 686.625517 37.806952 687.581503 37.675738 
Q 688.53749 37.544524 689.062345 37.507034 
L 693.336166 35.82 
M 689.287283 30.42149 
L 689.287283 31.43371 
Q 689.287283 33.383172 688.612469 37.207117 
Q 687.937655 41.031062 687.937655 43.018014 
Q 687.937655 43.805297 687.937655 44.105214 
Q 687.937655 44.405131 688.031379 45.042455 
Q 688.125103 45.679779 688.312552 45.960952 
Q 688.5 46.242124 688.893641 46.485807 
Q 689.287283 46.72949 689.849628 46.72949 
Q 689.962097 46.692 690.280759 46.72949 
Q 690.599421 46.766979 690.786869 46.710745 
Q 690.974317 46.65451 690.974317 46.392083 
" clip-path="url(#p55af201795)" style="fill: none; stroke: #000000; stroke-linejoin: miter"/>
   </g>
  </g>
  <g id="axes_44">
   <g id="patch_37">
    <path d="M 701.213462 35.932469 
Q 701.813297 35.257655 702.806772 34.826524 
Q 703.800248 34.395393 704.7 34.470372 
Q 705.337324 34.470372 705.82469 34.639076 
Q 706.312055 34.807779 706.630717 34.995228 
Q 706.949379 35.182676 707.174317 35.670041 
Q 707.399255 36.157407 707.511724 36.419834 
Q 707.624193 36.682262 707.680428 37.375821 
Q 707.736662 38.069379 707.755407 38.331807 
Q 707.774152 38.594234 707.755407 39.419007 
Q 707.736662 40.243779 707.736662 40.431228 
Q 707.736662 41.368469 707.567959 43.242952 
Q 707.399255 45.117434 707.399255 46.054676 
Q 707.399255 46.467062 707.45549 46.823214 
Q 707.511724 47.179366 707.605448 47.610497 
Q 707.699172 48.041628 707.736662 48.304055 
L 708.186538 48.528993 
M 701.663338 23.111007 
Q 701.888276 24.798041 701.888276 29.971614 
L 701.888276 42.3432 
L 701.550869 46.841959 
L 701.325931 47.74171 
" clip-path="url(#pc86cb17f89)" style="fill: none; stroke: #000000; stroke-linejoin: miter"/>
   </g>
  </g>
  <g id="axes_45">
   <g id="patch_38">
    <path d="M 714.657798 38.160826 
Q 717.630275 39.535596 722.349083 39.721376 
Q 723.872477 39.721376 724.559862 38.550963 
Q 725.247248 37.38055 725.247248 35.82 
Q 725.247248 35.299817 725.154358 34.909679 
Q 725.061468 34.519541 724.819954 34.296606 
Q 724.57844 34.07367 724.411239 33.943624 
Q 724.244037 33.813578 723.798165 33.757844 
Q 723.352294 33.70211 723.147936 33.683532 
Q 722.943578 33.664954 722.367661 33.683532 
Q 721.791743 33.70211 721.568807 33.70211 
Q 719.525229 33.70211 718.038991 35.578486 
Q 716.552752 37.454862 716.552752 39.609908 
Q 716.552752 42.619541 718.484862 44.570229 
Q 720.416972 46.520917 723.463761 46.520917 
Q 725.618807 46.818165 727.142202 44.29156 
" clip-path="url(#p3e710c6f8b)" style="fill: none; stroke: #000000; stroke-linejoin: miter"/>
   </g>
  </g>
 </g>
 <defs>
  <clipPath id="pcd6e2ee97d">
   <rect x="1.558055" y="8.64" width="13.08389" height="54.36"/>
  </clipPath>
  <clipPath id="p09602eada7">
   <rect x="17.251945" y="8.64" width="14.09611" height="54.36"/>
  </clipPath>
  <clipPath id="p73382fb7a7">
   <rect x="48.6" y="10.777356" width="16.2" height="50.085288"/>
  </clipPath>
  <clipPath id="p7ede2946fd">
   <rect x="66.564248" y="8.64" width="12.671503" height="54.36"/>
  </clipPath>
  <clipPath id="p890e344676">
   <rect x="82.051945" y="8.64" width="14.09611" height="54.36"/>
  </clipPath>
  <clipPath id="p09638f47a9">
   <rect x="113.4" y="11.850612" width="16.2" height="47.938776"/>
  </clipPath>
  <clipPath id="p3a249b4e88">
   <rect x="132.338979" y="8.64" width="10.722041" height="54.36"/>
  </clipPath>
  <clipPath id="pb03adbc2e5">
   <rect x="145.8" y="10.777356" width="16.2" height="50.085288"/>
  </clipPath>
  <clipPath id="p151c327c0b">
   <rect x="163.764248" y="8.64" width="12.671503" height="54.36"/>
  </clipPath>
  <clipPath id="pbc51dbff71">
   <rect x="178.2" y="11.850612" width="16.2" height="47.938776"/>
  </clipPath>
  <clipPath id="pb45caf638d">
   <rect x="194.4" y="8.881927" width="16.2" height="53.876147"/>
  </clipPath>
  <clipPath id="pe286feaaad">
   <rect x="226.8" y="10.936525" width="16.2" height="49.766949"/>
  </clipPath>
  <clipPath id="pdfd8613301">
   <rect x="243" y="8.881927" width="16.2" height="53.876147"/>
  </clipPath>
  <clipPath id="pc642c0b41e">
   <rect x="261.938979" y="8.64" width="10.722041" height="54.36"/>
  </clipPath>
  <clipPath id="p427842908d">
   <rect x="275.4" y="8.881927" width="16.2" height="53.876147"/>
  </clipPath>
  <clipPath id="p01771a1a86">
   <rect x="308.851945" y="8.64" width="14.09611" height="54.36"/>
  </clipPath>
  <clipPath id="p18b6d9e6f3">
   <rect x="324" y="10.777356" width="16.2" height="50.085288"/>
  </clipPath>
  <clipPath id="pc26f66fc34">
   <rect x="341.476883" y="8.64" width="13.646234" height="54.36"/>
  </clipPath>
  <clipPath id="pddadc94b1d">
   <rect x="361.725766" y="8.64" width="5.548469" height="54.36"/>
  </clipPath>
  <clipPath id="p265a4dcc35">
   <rect x="388.8" y="11.850612" width="16.2" height="47.938776"/>
  </clipPath>
  <clipPath id="p676a766e5f">
   <rect x="405" y="10.777356" width="16.2" height="50.085288"/>
  </clipPath>
  <clipPath id="p6c4dff7fd4">
   <rect x="422.589352" y="8.64" width="13.421297" height="54.36"/>
  </clipPath>
  <clipPath id="p05c283126f">
   <rect x="440.138979" y="8.64" width="10.722041" height="54.36"/>
  </clipPath>
  <clipPath id="p467b2ed24f">
   <rect x="453.6" y="10.777356" width="16.2" height="50.085288"/>
  </clipPath>
  <clipPath id="p65b423af21">
   <rect x="486" y="10.777356" width="16.2" height="50.085288"/>
  </clipPath>
  <clipPath id="pe2f646927b">
   <rect x="503.982993" y="8.64" width="12.634014" height="54.36"/>
  </clipPath>
  <clipPath id="pb131e46b57">
   <rect x="520.182993" y="8.64" width="12.634014" height="54.36"/>
  </clipPath>
  <clipPath id="paed821ca84">
   <rect x="536.382993" y="8.64" width="12.634014" height="54.36"/>
  </clipPath>
  <clipPath id="p84d5ec1997">
   <rect x="556.200745" y="8.64" width="5.39851" height="54.36"/>
  </clipPath>
  <clipPath id="p8694d7215f">
   <rect x="584.589352" y="8.64" width="13.421297" height="54.36"/>
  </clipPath>
  <clipPath id="p62657db766">
   <rect x="601.182993" y="8.64" width="12.634014" height="54.36"/>
  </clipPath>
  <clipPath id="paad69190b2">
   <rect x="621.206938" y="8.64" width="4.986124" height="54.36"/>
  </clipPath>
  <clipPath id="p2a6cb4a66e">
   <rect x="633.564248" y="8.64" width="12.671503" height="54.36"/>
  </clipPath>
  <clipPath id="pd36f30aa2c">
   <rect x="648" y="9.426742" width="16.2" height="52.786517"/>
  </clipPath>
  <clipPath id="p55af201795">
   <rect x="681.789352" y="8.64" width="13.421297" height="54.36"/>
  </clipPath>
  <clipPath id="pc86cb17f89">
   <rect x="699.338979" y="8.64" width="10.722041" height="54.36"/>
  </clipPath>
  <clipPath id="p3e710c6f8b">
   <rect x="712.8" y="8.881927" width="16.2" height="53.876147"/>
  </clipPath>
 </defs>
</svg>
