<?xml version="1.0" encoding="utf-8" standalone="no"?>
<!DOCTYPE svg PUBLIC "-//W3C//DTD SVG 1.1//EN"
  "http://www.w3.org/Graphics/SVG/1.1/DTD/svg11.dtd">
<svg xmlns:xlink="http://www.w3.org/1999/xlink" width="828pt" height="72pt" viewBox="0 0 828 72" xmlns="http://www.w3.org/2000/svg" version="1.1">
 <metadata>
  <rdf:RDF xmlns:dc="http://purl.org/dc/elements/1.1/" xmlns:cc="http://creativecommons.org/ns#" xmlns:rdf="http://www.w3.org/1999/02/22-rdf-syntax-ns#">
   <cc:Work>
    <dc:type rdf:resource="http://purl.org/dc/dcmitype/StillImage"/>
    <dc:date>2023-12-21T11:43:56.618973</dc:date>
    <dc:format>image/svg+xml</dc:format>
    <dc:creator>
     <cc:Agent>
      <dc:title>Matplotlib v3.5.1, https://matplotlib.org/</dc:title>
     </cc:Agent>
    </dc:creator>
   </cc:Work>
  </rdf:RDF>
 </metadata>
 <defs>
  <style type="text/css">*{stroke-linejoin: round; stroke-linecap: butt}</style>
 </defs>
 <g id="figure_1">
  <g id="patch_1">
   <path d="M 0 72 
L 828 72 
L 828 0 
L 0 0 
z
" style="fill: #8fff9f"/>
  </g>
  <g id="axes_1">
   <g id="patch_2">
    <path d="M 2.048638 35.788482 
L 2.237743 35.788482 
Q 3.120233 35.788482 4.885214 35.69393 
Q 6.650195 35.599377 7.532685 35.599377 
Q 9.077043 35.599377 10.274708 35.835759 
Q 11.472374 36.07214 12.496693 36.655214 
Q 13.521012 37.238288 14.072568 38.35716 
Q 14.624125 39.476031 14.624125 41.083424 
Q 14.624125 46.567471 4.507004 46.567471 
Q 4.475486 46.567471 2.615953 46.283813 
L 2.048638 46.000156 
M 2.048638 27.562412 
Q 3.687549 26.679922 5.641634 26.71144 
Q 7.910895 26.71144 9.943774 28.035175 
Q 11.976654 29.358911 11.976654 31.533619 
Q 11.976654 32.825837 11.425097 33.582257 
Q 10.873541 34.338677 10.148638 34.527782 
Q 9.423735 34.716887 8.430934 35.06358 
Q 7.438132 35.410272 6.870817 35.883035 
L 2.048638 35.788482 
M 1.575875 27.656965 
Q 1.796498 28.949183 1.733463 32.494903 
Q 1.670428 36.040623 2.237743 37.301323 
Q 2.237743 38.309883 2.190467 40.358521 
Q 2.143191 42.40716 2.143191 43.447237 
L 2.143191 45.243735 
L 1.954086 46.000156 
" clip-path="url(#p715bb7e3f1)" style="fill: none; stroke: #000000; stroke-linejoin: miter"/>
   </g>
  </g>
  <g id="axes_2">
   <g id="patch_3">
    <path d="M 19.688772 35.145186 
Q 19.688772 35.145186 19.688772 35.595062 
Q 19.688772 36.269876 19.576303 37.619503 
Q 19.463834 38.969131 19.463834 39.643945 
Q 19.463834 41.930814 20.700993 43.599103 
Q 21.938152 45.267393 24.075062 45.267393 
Q 25.462179 45.154924 26.230717 43.917766 
Q 26.999255 42.680607 27.149214 41.237255 
Q 27.299172 39.793903 27.5616 37.9944 
Q 27.824028 36.194897 28.236414 35.370124 
Q 28.386372 35.070207 28.386372 35.670041 
Q 28.386372 36.269876 28.123945 38.706703 
Q 27.899007 41.031062 27.899007 41.555917 
Q 27.749048 42.643117 28.086455 43.767807 
Q 28.423862 44.892497 29.136166 45.6048 
" clip-path="url(#p9371e7bfbb)" style="fill: none; stroke: #000000; stroke-linejoin: miter"/>
   </g>
  </g>
  <g id="axes_3">
   <g id="patch_4">
    <path d="M 37.013462 32.783338 
Q 37.538317 34.507862 37.669531 36.457324 
Q 37.800745 38.406786 37.725766 40.956083 
Q 37.650786 43.505379 37.688276 44.705048 
L 37.800745 46.054676 
L 37.800745 45.829738 
Q 37.800745 44.667559 37.519572 42.30571 
Q 37.2384 39.943862 37.2384 38.744193 
Q 37.2384 36.419834 38.250621 34.882759 
Q 39.262841 33.345683 41.287283 33.345683 
Q 41.999586 33.345683 42.336993 33.626855 
Q 42.6744 33.908028 42.936828 34.432883 
Q 43.199255 34.957738 43.536662 35.257655 
L 43.986538 36.832221 
" clip-path="url(#p927a76dab7)" style="fill: none; stroke: #000000; stroke-linejoin: miter"/>
   </g>
  </g>
  <g id="axes_4">
   <g id="patch_5">
    <path d="M 51.863834 37.95691 
L 52.538648 37.95691 
Q 53.250952 37.95691 54.038234 37.881931 
Q 54.825517 37.806952 55.781503 37.675738 
Q 56.73749 37.544524 57.262345 37.507034 
L 61.536166 35.82 
M 57.487283 30.42149 
L 57.487283 31.43371 
Q 57.487283 33.383172 56.812469 37.207117 
Q 56.137655 41.031062 56.137655 43.018014 
Q 56.137655 43.805297 56.137655 44.105214 
Q 56.137655 44.405131 56.231379 45.042455 
Q 56.325103 45.679779 56.512552 45.960952 
Q 56.7 46.242124 57.093641 46.485807 
Q 57.487283 46.72949 58.049628 46.72949 
Q 58.162097 46.692 58.480759 46.72949 
Q 58.799421 46.766979 58.986869 46.710745 
Q 59.174317 46.65451 59.174317 46.392083 
" clip-path="url(#p5ec422d6ad)" style="fill: none; stroke: #000000; stroke-linejoin: miter"/>
   </g>
  </g>
  <g id="axes_5"/>
  <g id="axes_6">
   <g id="patch_6">
    <path d="M 82.784141 38.85304 
L 83.212335 38.85304 
Q 84.03304 38.85304 84.996476 38.745991 
Q 85.959912 38.638943 87.119604 38.460529 
Q 88.279295 38.282115 88.885903 38.210749 
L 95.415859 35.427489 
M 95.094714 25.793128 
Q 94.809251 25.721762 93.774449 25.275727 
Q 92.739648 24.829692 92.097357 24.93674 
Q 91.455066 24.93674 90.937665 25.150837 
Q 90.420264 25.364934 90.081278 25.793128 
Q 89.742291 26.221322 89.47467 26.685198 
Q 89.207048 27.149075 89.064317 27.862731 
Q 88.921586 28.576388 88.814537 29.129471 
Q 88.707489 29.682555 88.689648 30.50326 
Q 88.671806 31.323965 88.653965 31.77 
Q 88.636123 32.216035 88.653965 32.965374 
Q 88.671806 33.714714 88.671806 33.928811 
Q 88.671806 36.605022 89.367621 41.850396 
Q 90.063436 47.095771 90.063436 49.771982 
Q 89.99207 50.057445 89.956388 50.681894 
Q 89.920705 51.306344 89.813656 51.805903 
Q 89.706608 52.305463 89.421145 52.555242 
" clip-path="url(#p807d4e327d)" style="fill: none; stroke: #000000; stroke-linejoin: miter"/>
   </g>
  </g>
  <g id="axes_7">
   <g id="patch_7">
    <path d="M 104.906359 28.621986 
Q 105.131297 30.34651 105.206276 32.146014 
Q 105.281255 33.945517 105.26251 36.551048 
Q 105.243766 39.156579 105.243766 40.093821 
Q 105.243766 40.13131 105.468703 45.829738 
L 105.693641 46.841959 
" clip-path="url(#p4b5393c236)" style="fill: none; stroke: #000000; stroke-linejoin: miter"/>
   </g>
  </g>
  <g id="axes_8">
   <g id="patch_8">
    <path d="M 122.118579 29.071862 
Q 121.743683 29.146841 121.612469 29.577972 
Q 121.481255 30.009103 121.556234 30.42149 
Q 121.556234 30.571448 121.593724 30.702662 
Q 121.631214 30.833876 121.687448 30.89011 
Q 121.743683 30.946345 121.799917 31.040069 
Q 121.856152 31.133793 121.893641 31.208772 
L 122.00611 29.859145 
M 122.00611 34.020497 
Q 121.106359 39.006621 120.881421 42.793076 
L 121.331297 45.379862 
L 121.668703 46.054676 
" clip-path="url(#pac24d6a970)" style="fill: none; stroke: #000000; stroke-linejoin: miter"/>
   </g>
  </g>
  <g id="axes_9">
   <g id="patch_9">
    <path d="M 142.956735 34.365306 
Q 142.956735 34.365306 142.460816 34.365306 
Q 141.667347 34.365306 140.179592 34.067755 
Q 138.691837 33.770204 137.898367 33.770204 
Q 135.121224 33.770204 133.187143 35.224898 
Q 131.253061 36.679592 131.253061 39.423673 
Q 131.253061 40.94449 132.740816 42.399184 
Q 134.228571 43.853878 136.162653 44.663878 
Q 138.096735 45.473878 139.58449 45.473878 
Q 140.510204 45.473878 141.20449 45.110204 
Q 141.898776 44.746531 142.642653 44.118367 
Q 143.386531 43.490204 143.948571 43.192653 
L 144.146939 42.696735 
" clip-path="url(#pb579a11545)" style="fill: none; stroke: #000000; stroke-linejoin: miter"/>
   </g>
  </g>
  <g id="axes_10">
   <g id="patch_10">
    <path d="M 151.931793 37.169628 
Q 153.956234 39.194069 155.718248 41.76211 
Q 157.480262 44.330152 158.342524 46.72949 
M 154.968455 31.321241 
L 154.968455 31.546179 
Q 154.968455 32.333462 154.331131 33.514386 
Q 153.693807 34.69531 152.719076 36.101172 
Q 151.744345 37.507034 151.481917 37.95691 
L 150.244759 39.643945 
M 149.457476 26.710014 
Q 151.294469 36.269876 151.481917 48.641462 
" clip-path="url(#pacf6f52b8c)" style="fill: none; stroke: #000000; stroke-linejoin: miter"/>
   </g>
  </g>
  <g id="axes_11">
   <g id="patch_11">
    <path d="M 165.657476 43.917766 
Q 165.957393 44.180193 166.969614 45.154924 
Q 167.981834 46.129655 168.544179 46.560786 
Q 169.106524 46.991917 170.13749 47.385559 
Q 171.168455 47.7792 172.180676 47.629241 
Q 172.85549 47.629241 173.32411 47.404303 
Q 173.792731 47.179366 174.017669 46.879448 
Q 174.242607 46.579531 174.373821 45.979697 
Q 174.505034 45.379862 174.523779 44.967476 
Q 174.542524 44.55509 174.542524 43.805297 
Q 174.542524 42.718097 173.642772 42.043283 
Q 172.743021 41.368469 171.449628 41.031062 
Q 170.156234 40.693655 168.862841 40.300014 
Q 167.569448 39.906372 166.669697 38.987876 
Q 165.769945 38.069379 165.769945 36.607283 
Q 165.769945 36.082428 165.938648 35.726276 
Q 166.107352 35.370124 166.500993 35.145186 
Q 166.894634 34.920248 167.175807 34.807779 
Q 167.456979 34.69531 168.113048 34.639076 
Q 168.769117 34.582841 168.956566 34.582841 
Q 169.144014 34.582841 169.818828 34.582841 
Q 171.018497 34.582841 171.599586 34.995228 
Q 172.180676 35.407614 172.499338 36.026193 
Q 172.818 36.644772 173.080428 36.832221 
" clip-path="url(#p57dec4eb93)" style="fill: none; stroke: #000000; stroke-linejoin: miter"/>
   </g>
  </g>
  <g id="axes_12"/>
  <g id="axes_13">
   <g id="patch_12">
    <path d="M 205.7616 35.032717 
Q 204.71189 34.582841 203.737159 34.69531 
Q 200.700497 35.032717 198.788524 36.701007 
Q 196.876552 38.369297 196.876552 41.330979 
Q 196.876552 43.917766 198.882248 45.6048 
Q 200.887945 47.291834 203.512221 47.291834 
Q 205.874069 47.291834 206.998759 45.361117 
Q 208.123448 43.4304 208.123448 40.881103 
Q 208.123448 39.643945 207.711062 38.706703 
Q 207.298676 37.769462 206.773821 37.300841 
Q 206.248966 36.832221 205.499172 36.119917 
Q 204.749379 35.407614 204.299503 34.69531 
L 203.062345 34.245434 
" clip-path="url(#p52a242ab0a)" style="fill: none; stroke: #000000; stroke-linejoin: miter"/>
   </g>
  </g>
  <g id="axes_14">
   <g id="patch_13">
    <path d="M 214.238731 37.282097 
L 214.238731 37.844441 
Q 214.501159 39.868883 214.538648 41.312234 
Q 214.576138 42.755586 214.482414 44.667559 
Q 214.38869 46.579531 214.38869 48.191586 
L 214.463669 39.643945 
Q 214.463669 38.144359 216.056979 37.507034 
Q 217.65029 36.86971 219.074897 37.282097 
Q 220.986869 37.844441 221.905366 39.04411 
Q 222.823862 40.243779 222.880097 41.668386 
Q 222.936331 43.092993 222.973821 44.817517 
Q 223.01131 46.542041 223.161269 48.191586 
" clip-path="url(#p6e3d4382fe)" style="fill: none; stroke: #000000; stroke-linejoin: miter"/>
   </g>
  </g>
  <g id="axes_15"/>
  <g id="axes_16">
   <g id="patch_14">
    <path d="M 246.263834 37.95691 
L 246.938648 37.95691 
Q 247.650952 37.95691 248.438234 37.881931 
Q 249.225517 37.806952 250.181503 37.675738 
Q 251.13749 37.544524 251.662345 37.507034 
L 255.936166 35.82 
M 251.887283 30.42149 
L 251.887283 31.43371 
Q 251.887283 33.383172 251.212469 37.207117 
Q 250.537655 41.031062 250.537655 43.018014 
Q 250.537655 43.805297 250.537655 44.105214 
Q 250.537655 44.405131 250.631379 45.042455 
Q 250.725103 45.679779 250.912552 45.960952 
Q 251.1 46.242124 251.493641 46.485807 
Q 251.887283 46.72949 252.449628 46.72949 
Q 252.562097 46.692 252.880759 46.72949 
Q 253.199421 46.766979 253.386869 46.710745 
Q 253.574317 46.65451 253.574317 46.392083 
" clip-path="url(#pd45e94d693)" style="fill: none; stroke: #000000; stroke-linejoin: miter"/>
   </g>
  </g>
  <g id="axes_17">
   <g id="patch_15">
    <path d="M 263.813462 35.932469 
Q 264.413297 35.257655 265.406772 34.826524 
Q 266.400248 34.395393 267.3 34.470372 
Q 267.937324 34.470372 268.42469 34.639076 
Q 268.912055 34.807779 269.230717 34.995228 
Q 269.549379 35.182676 269.774317 35.670041 
Q 269.999255 36.157407 270.111724 36.419834 
Q 270.224193 36.682262 270.280428 37.375821 
Q 270.336662 38.069379 270.355407 38.331807 
Q 270.374152 38.594234 270.355407 39.419007 
Q 270.336662 40.243779 270.336662 40.431228 
Q 270.336662 41.368469 270.167959 43.242952 
Q 269.999255 45.117434 269.999255 46.054676 
Q 269.999255 46.467062 270.05549 46.823214 
Q 270.111724 47.179366 270.205448 47.610497 
Q 270.299172 48.041628 270.336662 48.304055 
L 270.786538 48.528993 
M 264.263338 23.111007 
Q 264.488276 24.798041 264.488276 29.971614 
L 264.488276 42.3432 
L 264.150869 46.841959 
L 263.925931 47.74171 
" clip-path="url(#p260587d690)" style="fill: none; stroke: #000000; stroke-linejoin: miter"/>
   </g>
  </g>
  <g id="axes_18">
   <g id="patch_16">
    <path d="M 277.257798 38.160826 
Q 280.230275 39.535596 284.949083 39.721376 
Q 286.472477 39.721376 287.159862 38.550963 
Q 287.847248 37.38055 287.847248 35.82 
Q 287.847248 35.299817 287.754358 34.909679 
Q 287.661468 34.519541 287.419954 34.296606 
Q 287.17844 34.07367 287.011239 33.943624 
Q 286.844037 33.813578 286.398165 33.757844 
Q 285.952294 33.70211 285.747936 33.683532 
Q 285.543578 33.664954 284.967661 33.683532 
Q 284.391743 33.70211 284.168807 33.70211 
Q 282.125229 33.70211 280.638991 35.578486 
Q 279.152752 37.454862 279.152752 39.609908 
Q 279.152752 42.619541 281.084862 44.570229 
Q 283.016972 46.520917 286.063761 46.520917 
Q 288.218807 46.818165 289.742202 44.29156 
" clip-path="url(#pa26da2121d)" style="fill: none; stroke: #000000; stroke-linejoin: miter"/>
   </g>
  </g>
  <g id="axes_19"/>
  <g id="axes_20">
   <g id="patch_17">
    <path d="M 316.518579 29.071862 
Q 316.143683 29.146841 316.012469 29.577972 
Q 315.881255 30.009103 315.956234 30.42149 
Q 315.956234 30.571448 315.993724 30.702662 
Q 316.031214 30.833876 316.087448 30.89011 
Q 316.143683 30.946345 316.199917 31.040069 
Q 316.256152 31.133793 316.293641 31.208772 
L 316.40611 29.859145 
M 316.40611 34.020497 
Q 315.506359 39.006621 315.281421 42.793076 
L 315.731297 45.379862 
L 316.068703 46.054676 
" clip-path="url(#p0ea6281ff9)" style="fill: none; stroke: #000000; stroke-linejoin: miter"/>
   </g>
  </g>
  <g id="axes_21">
   <g id="patch_18">
    <path d="M 327.638731 37.282097 
L 327.638731 37.844441 
Q 327.901159 39.868883 327.938648 41.312234 
Q 327.976138 42.755586 327.882414 44.667559 
Q 327.78869 46.579531 327.78869 48.191586 
L 327.863669 39.643945 
Q 327.863669 38.144359 329.456979 37.507034 
Q 331.05029 36.86971 332.474897 37.282097 
Q 334.386869 37.844441 335.305366 39.04411 
Q 336.223862 40.243779 336.280097 41.668386 
Q 336.336331 43.092993 336.373821 44.817517 
Q 336.41131 46.542041 336.561269 48.191586 
" clip-path="url(#pf56de81690)" style="fill: none; stroke: #000000; stroke-linejoin: miter"/>
   </g>
  </g>
  <g id="axes_22">
   <g id="patch_19">
    <path d="M 351.899007 39.568966 
Q 350.549379 38.181848 348.3 38.444276 
Q 345.450786 38.444276 344.288607 39.793903 
Q 343.126428 41.143531 343.126428 44.067724 
Q 343.126428 45.56731 344.419821 46.279614 
Q 345.713214 46.991917 347.287779 46.991917 
Q 348.599917 46.991917 349.612138 45.736014 
Q 350.624359 44.48011 351.205448 42.30571 
Q 351.786538 40.13131 352.161434 37.938166 
Q 352.536331 35.745021 352.68629 33.045766 
Q 352.836248 30.34651 352.873738 28.978138 
Q 352.911228 27.609766 352.911228 26.185159 
Q 352.68629 26.260138 352.68629 29.896634 
L 352.68629 44.292662 
L 353.473572 48.229076 
" clip-path="url(#p7d61b9eb3e)" style="fill: none; stroke: #000000; stroke-linejoin: miter"/>
   </g>
  </g>
  <g id="axes_23">
   <g id="patch_20">
    <path d="M 365.118579 29.071862 
Q 364.743683 29.146841 364.612469 29.577972 
Q 364.481255 30.009103 364.556234 30.42149 
Q 364.556234 30.571448 364.593724 30.702662 
Q 364.631214 30.833876 364.687448 30.89011 
Q 364.743683 30.946345 364.799917 31.040069 
Q 364.856152 31.133793 364.893641 31.208772 
L 365.00611 29.859145 
M 365.00611 34.020497 
Q 364.106359 39.006621 363.881421 42.793076 
L 364.331297 45.379862 
L 364.668703 46.054676 
" clip-path="url(#pe605c0dd76)" style="fill: none; stroke: #000000; stroke-linejoin: miter"/>
   </g>
  </g>
  <g id="axes_24">
   <g id="patch_21">
    <path d="M 385.956735 34.365306 
Q 385.956735 34.365306 385.460816 34.365306 
Q 384.667347 34.365306 383.179592 34.067755 
Q 381.691837 33.770204 380.898367 33.770204 
Q 378.121224 33.770204 376.187143 35.224898 
Q 374.253061 36.679592 374.253061 39.423673 
Q 374.253061 40.94449 375.740816 42.399184 
Q 377.228571 43.853878 379.162653 44.663878 
Q 381.096735 45.473878 382.58449 45.473878 
Q 383.510204 45.473878 384.20449 45.110204 
Q 384.898776 44.746531 385.642653 44.118367 
Q 386.386531 43.490204 386.948571 43.192653 
L 387.146939 42.696735 
" clip-path="url(#pbf5e39a24e)" style="fill: none; stroke: #000000; stroke-linejoin: miter"/>
   </g>
  </g>
  <g id="axes_25">
   <g id="patch_22">
    <path d="M 402.443923 36.441748 
Q 401.234968 35.094627 397.262687 35.094627 
Q 395.742857 35.094627 394.965672 35.146439 
Q 394.188486 35.198252 393.18678 35.440043 
Q 392.185075 35.681834 391.701493 36.182687 
Q 391.21791 36.683539 390.872495 37.616162 
Q 390.527079 38.548785 390.527079 39.964989 
Q 390.527079 42.037484 391.943284 43.280981 
Q 393.359488 44.524478 395.293817 44.524478 
Q 397.953518 44.524478 400.716844 38.721493 
Q 402.063966 35.854542 402.063966 35.82 
Q 402.409382 35.578209 402.443923 36.441748 
Q 402.443923 37.512537 402.858422 40.362217 
Q 403.272921 43.211898 403.272921 44.524478 
" clip-path="url(#pa2a97e72cd)" style="fill: none; stroke: #000000; stroke-linejoin: miter"/>
   </g>
  </g>
  <g id="axes_26">
   <g id="patch_23">
    <path d="M 408.263834 37.95691 
L 408.938648 37.95691 
Q 409.650952 37.95691 410.438234 37.881931 
Q 411.225517 37.806952 412.181503 37.675738 
Q 413.13749 37.544524 413.662345 37.507034 
L 417.936166 35.82 
M 413.887283 30.42149 
L 413.887283 31.43371 
Q 413.887283 33.383172 413.212469 37.207117 
Q 412.537655 41.031062 412.537655 43.018014 
Q 412.537655 43.805297 412.537655 44.105214 
Q 412.537655 44.405131 412.631379 45.042455 
Q 412.725103 45.679779 412.912552 45.960952 
Q 413.1 46.242124 413.493641 46.485807 
Q 413.887283 46.72949 414.449628 46.72949 
Q 414.562097 46.692 414.880759 46.72949 
Q 415.199421 46.766979 415.386869 46.710745 
Q 415.574317 46.65451 415.574317 46.392083 
" clip-path="url(#p491644147b)" style="fill: none; stroke: #000000; stroke-linejoin: miter"/>
   </g>
  </g>
  <g id="axes_27">
   <g id="patch_24">
    <path d="M 432.5616 35.032717 
Q 431.51189 34.582841 430.537159 34.69531 
Q 427.500497 35.032717 425.588524 36.701007 
Q 423.676552 38.369297 423.676552 41.330979 
Q 423.676552 43.917766 425.682248 45.6048 
Q 427.687945 47.291834 430.312221 47.291834 
Q 432.674069 47.291834 433.798759 45.361117 
Q 434.923448 43.4304 434.923448 40.881103 
Q 434.923448 39.643945 434.511062 38.706703 
Q 434.098676 37.769462 433.573821 37.300841 
Q 433.048966 36.832221 432.299172 36.119917 
Q 431.549379 35.407614 431.099503 34.69531 
L 429.862345 34.245434 
" clip-path="url(#p05666fccad)" style="fill: none; stroke: #000000; stroke-linejoin: miter"/>
   </g>
  </g>
  <g id="axes_28">
   <g id="patch_25">
    <path d="M 442.013462 32.783338 
Q 442.538317 34.507862 442.669531 36.457324 
Q 442.800745 38.406786 442.725766 40.956083 
Q 442.650786 43.505379 442.688276 44.705048 
L 442.800745 46.054676 
L 442.800745 45.829738 
Q 442.800745 44.667559 442.519572 42.30571 
Q 442.2384 39.943862 442.2384 38.744193 
Q 442.2384 36.419834 443.250621 34.882759 
Q 444.262841 33.345683 446.287283 33.345683 
Q 446.999586 33.345683 447.336993 33.626855 
Q 447.6744 33.908028 447.936828 34.432883 
Q 448.199255 34.957738 448.536662 35.257655 
L 448.986538 36.832221 
" clip-path="url(#p58a057fcfa)" style="fill: none; stroke: #000000; stroke-linejoin: miter"/>
   </g>
  </g>
  <g id="axes_29"/>
  <g id="axes_30">
   <g id="patch_26">
    <path d="M 483.443923 36.441748 
Q 482.234968 35.094627 478.262687 35.094627 
Q 476.742857 35.094627 475.965672 35.146439 
Q 475.188486 35.198252 474.18678 35.440043 
Q 473.185075 35.681834 472.701493 36.182687 
Q 472.21791 36.683539 471.872495 37.616162 
Q 471.527079 38.548785 471.527079 39.964989 
Q 471.527079 42.037484 472.943284 43.280981 
Q 474.359488 44.524478 476.293817 44.524478 
Q 478.953518 44.524478 481.716844 38.721493 
Q 483.063966 35.854542 483.063966 35.82 
Q 483.409382 35.578209 483.443923 36.441748 
Q 483.443923 37.512537 483.858422 40.362217 
Q 484.272921 43.211898 484.272921 44.524478 
" clip-path="url(#p1922512b47)" style="fill: none; stroke: #000000; stroke-linejoin: miter"/>
   </g>
  </g>
  <g id="axes_31">
   <g id="patch_27">
    <path d="M 489.638731 37.282097 
L 489.638731 37.844441 
Q 489.901159 39.868883 489.938648 41.312234 
Q 489.976138 42.755586 489.882414 44.667559 
Q 489.78869 46.579531 489.78869 48.191586 
L 489.863669 39.643945 
Q 489.863669 38.144359 491.456979 37.507034 
Q 493.05029 36.86971 494.474897 37.282097 
Q 496.386869 37.844441 497.305366 39.04411 
Q 498.223862 40.243779 498.280097 41.668386 
Q 498.336331 43.092993 498.373821 44.817517 
Q 498.41131 46.542041 498.561269 48.191586 
" clip-path="url(#pf2f940c5f3)" style="fill: none; stroke: #000000; stroke-linejoin: miter"/>
   </g>
  </g>
  <g id="axes_32">
   <g id="patch_28">
    <path d="M 513.899007 39.568966 
Q 512.549379 38.181848 510.3 38.444276 
Q 507.450786 38.444276 506.288607 39.793903 
Q 505.126428 41.143531 505.126428 44.067724 
Q 505.126428 45.56731 506.419821 46.279614 
Q 507.713214 46.991917 509.287779 46.991917 
Q 510.599917 46.991917 511.612138 45.736014 
Q 512.624359 44.48011 513.205448 42.30571 
Q 513.786538 40.13131 514.161434 37.938166 
Q 514.536331 35.745021 514.68629 33.045766 
Q 514.836248 30.34651 514.873738 28.978138 
Q 514.911228 27.609766 514.911228 26.185159 
Q 514.68629 26.260138 514.68629 29.896634 
L 514.68629 44.292662 
L 515.473572 48.229076 
" clip-path="url(#pa12839e6b1)" style="fill: none; stroke: #000000; stroke-linejoin: miter"/>
   </g>
  </g>
  <g id="axes_33"/>
  <g id="axes_34">
   <g id="patch_29">
    <path d="M 537.920069 39.868883 
L 537.920069 39.419007 
Q 537.920069 37.769462 539.663338 36.682262 
Q 541.406607 35.595062 543.093641 35.595062 
Q 545.305531 35.595062 546.673903 36.794731 
Q 548.042276 37.9944 548.042276 40.20629 
Q 548.042276 42.30571 546.224028 43.336676 
Q 544.405779 44.367641 542.19389 44.367641 
Q 541.519076 44.367641 541.012966 44.255172 
Q 540.506855 44.142703 539.888276 43.917766 
Q 539.269697 43.692828 538.819821 43.580359 
L 537.695131 42.568138 
M 537.357724 36.832221 
Q 537.8076 38.444276 538.070028 40.262524 
Q 538.332455 42.080772 538.38869 43.749062 
Q 538.444924 45.417352 538.482414 47.27309 
Q 538.519903 49.128828 538.482414 50.778372 
L 538.369945 57.863917 
" clip-path="url(#p5e7a355f40)" style="fill: none; stroke: #000000; stroke-linejoin: miter"/>
   </g>
  </g>
  <g id="axes_35">
   <g id="patch_30">
    <path d="M 554.288772 35.145186 
Q 554.288772 35.145186 554.288772 35.595062 
Q 554.288772 36.269876 554.176303 37.619503 
Q 554.063834 38.969131 554.063834 39.643945 
Q 554.063834 41.930814 555.300993 43.599103 
Q 556.538152 45.267393 558.675062 45.267393 
Q 560.062179 45.154924 560.830717 43.917766 
Q 561.599255 42.680607 561.749214 41.237255 
Q 561.899172 39.793903 562.1616 37.9944 
Q 562.424028 36.194897 562.836414 35.370124 
Q 562.986372 35.070207 562.986372 35.670041 
Q 562.986372 36.269876 562.723945 38.706703 
Q 562.499007 41.031062 562.499007 41.555917 
Q 562.349048 42.643117 562.686455 43.767807 
Q 563.023862 44.892497 563.736166 45.6048 
" clip-path="url(#p31ea2eae70)" style="fill: none; stroke: #000000; stroke-linejoin: miter"/>
   </g>
  </g>
  <g id="axes_36">
   <g id="patch_31">
    <path d="M 574.706359 28.621986 
Q 574.931297 30.34651 575.006276 32.146014 
Q 575.081255 33.945517 575.06251 36.551048 
Q 575.043766 39.156579 575.043766 40.093821 
Q 575.043766 40.13131 575.268703 45.829738 
L 575.493641 46.841959 
" clip-path="url(#p095eb0bd8e)" style="fill: none; stroke: #000000; stroke-linejoin: miter"/>
   </g>
  </g>
  <g id="axes_37">
   <g id="patch_32">
    <path d="M 590.906359 28.621986 
Q 591.131297 30.34651 591.206276 32.146014 
Q 591.281255 33.945517 591.26251 36.551048 
Q 591.243766 39.156579 591.243766 40.093821 
Q 591.243766 40.13131 591.468703 45.829738 
L 591.693641 46.841959 
" clip-path="url(#pa42f8ca3af)" style="fill: none; stroke: #000000; stroke-linejoin: miter"/>
   </g>
  </g>
  <g id="axes_38">
   <g id="patch_33">
    <path d="M 603.057476 43.917766 
Q 603.357393 44.180193 604.369614 45.154924 
Q 605.381834 46.129655 605.944179 46.560786 
Q 606.506524 46.991917 607.53749 47.385559 
Q 608.568455 47.7792 609.580676 47.629241 
Q 610.25549 47.629241 610.72411 47.404303 
Q 611.192731 47.179366 611.417669 46.879448 
Q 611.642607 46.579531 611.773821 45.979697 
Q 611.905034 45.379862 611.923779 44.967476 
Q 611.942524 44.55509 611.942524 43.805297 
Q 611.942524 42.718097 611.042772 42.043283 
Q 610.143021 41.368469 608.849628 41.031062 
Q 607.556234 40.693655 606.262841 40.300014 
Q 604.969448 39.906372 604.069697 38.987876 
Q 603.169945 38.069379 603.169945 36.607283 
Q 603.169945 36.082428 603.338648 35.726276 
Q 603.507352 35.370124 603.900993 35.145186 
Q 604.294634 34.920248 604.575807 34.807779 
Q 604.856979 34.69531 605.513048 34.639076 
Q 606.169117 34.582841 606.356566 34.582841 
Q 606.544014 34.582841 607.218828 34.582841 
Q 608.418497 34.582841 608.999586 34.995228 
Q 609.580676 35.407614 609.899338 36.026193 
Q 610.218 36.644772 610.480428 36.832221 
" clip-path="url(#p2aa7eb2ecf)" style="fill: none; stroke: #000000; stroke-linejoin: miter"/>
   </g>
  </g>
  <g id="axes_39"/>
  <g id="axes_40">
   <g id="patch_34">
    <path d="M 643.1616 35.032717 
Q 642.11189 34.582841 641.137159 34.69531 
Q 638.100497 35.032717 636.188524 36.701007 
Q 634.276552 38.369297 634.276552 41.330979 
Q 634.276552 43.917766 636.282248 45.6048 
Q 638.287945 47.291834 640.912221 47.291834 
Q 643.274069 47.291834 644.398759 45.361117 
Q 645.523448 43.4304 645.523448 40.881103 
Q 645.523448 39.643945 645.111062 38.706703 
Q 644.698676 37.769462 644.173821 37.300841 
Q 643.648966 36.832221 642.899172 36.119917 
Q 642.149379 35.407614 641.699503 34.69531 
L 640.462345 34.245434 
" clip-path="url(#p9d6ac512c4)" style="fill: none; stroke: #000000; stroke-linejoin: miter"/>
   </g>
  </g>
  <g id="axes_41">
   <g id="patch_35">
    <path d="M 651.638731 37.282097 
L 651.638731 37.844441 
Q 651.901159 39.868883 651.938648 41.312234 
Q 651.976138 42.755586 651.882414 44.667559 
Q 651.78869 46.579531 651.78869 48.191586 
L 651.863669 39.643945 
Q 651.863669 38.144359 653.456979 37.507034 
Q 655.05029 36.86971 656.474897 37.282097 
Q 658.386869 37.844441 659.305366 39.04411 
Q 660.223862 40.243779 660.280097 41.668386 
Q 660.336331 43.092993 660.373821 44.817517 
Q 660.41131 46.542041 660.561269 48.191586 
" clip-path="url(#p2fc76e2fac)" style="fill: none; stroke: #000000; stroke-linejoin: miter"/>
   </g>
  </g>
  <g id="axes_42"/>
  <g id="axes_43">
   <g id="patch_36">
    <path d="M 689.118579 29.071862 
Q 688.743683 29.146841 688.612469 29.577972 
Q 688.481255 30.009103 688.556234 30.42149 
Q 688.556234 30.571448 688.593724 30.702662 
Q 688.631214 30.833876 688.687448 30.89011 
Q 688.743683 30.946345 688.799917 31.040069 
Q 688.856152 31.133793 688.893641 31.208772 
L 689.00611 29.859145 
M 689.00611 34.020497 
Q 688.106359 39.006621 687.881421 42.793076 
L 688.331297 45.379862 
L 688.668703 46.054676 
" clip-path="url(#p2bbf0e55af)" style="fill: none; stroke: #000000; stroke-linejoin: miter"/>
   </g>
  </g>
  <g id="axes_44">
   <g id="patch_37">
    <path d="M 700.238731 37.282097 
L 700.238731 37.844441 
Q 700.501159 39.868883 700.538648 41.312234 
Q 700.576138 42.755586 700.482414 44.667559 
Q 700.38869 46.579531 700.38869 48.191586 
L 700.463669 39.643945 
Q 700.463669 38.144359 702.056979 37.507034 
Q 703.65029 36.86971 705.074897 37.282097 
Q 706.986869 37.844441 707.905366 39.04411 
Q 708.823862 40.243779 708.880097 41.668386 
Q 708.936331 43.092993 708.973821 44.817517 
Q 709.01131 46.542041 709.161269 48.191586 
" clip-path="url(#p63c97403d8)" style="fill: none; stroke: #000000; stroke-linejoin: miter"/>
   </g>
  </g>
  <g id="axes_45">
   <g id="patch_38">
    <path d="M 716.063834 37.95691 
L 716.738648 37.95691 
Q 717.450952 37.95691 718.238234 37.881931 
Q 719.025517 37.806952 719.981503 37.675738 
Q 720.93749 37.544524 721.462345 37.507034 
L 725.736166 35.82 
M 721.687283 30.42149 
L 721.687283 31.43371 
Q 721.687283 33.383172 721.012469 37.207117 
Q 720.337655 41.031062 720.337655 43.018014 
Q 720.337655 43.805297 720.337655 44.105214 
Q 720.337655 44.405131 720.431379 45.042455 
Q 720.525103 45.679779 720.712552 45.960952 
Q 720.9 46.242124 721.293641 46.485807 
Q 721.687283 46.72949 722.249628 46.72949 
Q 722.362097 46.692 722.680759 46.72949 
Q 722.999421 46.766979 723.186869 46.710745 
Q 723.374317 46.65451 723.374317 46.392083 
" clip-path="url(#p8bedf37d87)" style="fill: none; stroke: #000000; stroke-linejoin: miter"/>
   </g>
  </g>
  <g id="axes_46">
   <g id="patch_39">
    <path d="M 740.3616 35.032717 
Q 739.31189 34.582841 738.337159 34.69531 
Q 735.300497 35.032717 733.388524 36.701007 
Q 731.476552 38.369297 731.476552 41.330979 
Q 731.476552 43.917766 733.482248 45.6048 
Q 735.487945 47.291834 738.112221 47.291834 
Q 740.474069 47.291834 741.598759 45.361117 
Q 742.723448 43.4304 742.723448 40.881103 
Q 742.723448 39.643945 742.311062 38.706703 
Q 741.898676 37.769462 741.373821 37.300841 
Q 740.848966 36.832221 740.099172 36.119917 
Q 739.349379 35.407614 738.899503 34.69531 
L 737.662345 34.245434 
" clip-path="url(#p76881c33a6)" style="fill: none; stroke: #000000; stroke-linejoin: miter"/>
   </g>
  </g>
 </g>
 <defs>
  <clipPath id="p715bb7e3f1">
   <rect x="0" y="12.969805" width="16.2" height="45.700389"/>
  </clipPath>
  <clipPath id="p9371e7bfbb">
   <rect x="17.589352" y="8.64" width="13.421297" height="54.36"/>
  </clipPath>
  <clipPath id="p927a76dab7">
   <rect x="35.138979" y="8.64" width="10.722041" height="54.36"/>
  </clipPath>
  <clipPath id="p5ec422d6ad">
   <rect x="49.989352" y="8.64" width="13.421297" height="54.36"/>
  </clipPath>
  <clipPath id="p807d4e327d">
   <rect x="81" y="9.949956" width="16.2" height="51.740088"/>
  </clipPath>
  <clipPath id="p4b5393c236">
   <rect x="103.031876" y="8.64" width="4.536248" height="54.36"/>
  </clipPath>
  <clipPath id="pac24d6a970">
   <rect x="119.006938" y="8.64" width="4.986124" height="54.36"/>
  </clipPath>
  <clipPath id="pb579a11545">
   <rect x="129.6" y="11.850612" width="16.2" height="47.938776"/>
  </clipPath>
  <clipPath id="pacf6f52b8c">
   <rect x="147.582993" y="8.64" width="12.634014" height="54.36"/>
  </clipPath>
  <clipPath id="p57dec4eb93">
   <rect x="163.782993" y="8.64" width="12.634014" height="54.36"/>
  </clipPath>
  <clipPath id="p52a242ab0a">
   <rect x="195.002069" y="8.64" width="14.995862" height="54.36"/>
  </clipPath>
  <clipPath id="p6e3d4382fe">
   <rect x="212.364248" y="8.64" width="12.671503" height="54.36"/>
  </clipPath>
  <clipPath id="pd45e94d693">
   <rect x="244.389352" y="8.64" width="13.421297" height="54.36"/>
  </clipPath>
  <clipPath id="p260587d690">
   <rect x="261.938979" y="8.64" width="10.722041" height="54.36"/>
  </clipPath>
  <clipPath id="pa26da2121d">
   <rect x="275.4" y="8.881927" width="16.2" height="53.876147"/>
  </clipPath>
  <clipPath id="p0ea6281ff9">
   <rect x="313.406938" y="8.64" width="4.986124" height="54.36"/>
  </clipPath>
  <clipPath id="pf56de81690">
   <rect x="325.764248" y="8.64" width="12.671503" height="54.36"/>
  </clipPath>
  <clipPath id="p7d61b9eb3e">
   <rect x="341.251945" y="8.64" width="14.09611" height="54.36"/>
  </clipPath>
  <clipPath id="pe605c0dd76">
   <rect x="362.006938" y="8.64" width="4.986124" height="54.36"/>
  </clipPath>
  <clipPath id="pbf5e39a24e">
   <rect x="372.6" y="11.850612" width="16.2" height="47.938776"/>
  </clipPath>
  <clipPath id="pa2a97e72cd">
   <rect x="388.8" y="10.777356" width="16.2" height="50.085288"/>
  </clipPath>
  <clipPath id="p491644147b">
   <rect x="406.389352" y="8.64" width="13.421297" height="54.36"/>
  </clipPath>
  <clipPath id="p05666fccad">
   <rect x="421.802069" y="8.64" width="14.995862" height="54.36"/>
  </clipPath>
  <clipPath id="p58a057fcfa">
   <rect x="440.138979" y="8.64" width="10.722041" height="54.36"/>
  </clipPath>
  <clipPath id="p1922512b47">
   <rect x="469.8" y="10.777356" width="16.2" height="50.085288"/>
  </clipPath>
  <clipPath id="pf2f940c5f3">
   <rect x="487.764248" y="8.64" width="12.671503" height="54.36"/>
  </clipPath>
  <clipPath id="pa12839e6b1">
   <rect x="503.251945" y="8.64" width="14.09611" height="54.36"/>
  </clipPath>
  <clipPath id="p5e7a355f40">
   <rect x="535.483241" y="8.64" width="14.433517" height="54.36"/>
  </clipPath>
  <clipPath id="p31ea2eae70">
   <rect x="552.189352" y="8.64" width="13.421297" height="54.36"/>
  </clipPath>
  <clipPath id="p095eb0bd8e">
   <rect x="572.831876" y="8.64" width="4.536248" height="54.36"/>
  </clipPath>
  <clipPath id="pa42f8ca3af">
   <rect x="589.031876" y="8.64" width="4.536248" height="54.36"/>
  </clipPath>
  <clipPath id="p2aa7eb2ecf">
   <rect x="601.182993" y="8.64" width="12.634014" height="54.36"/>
  </clipPath>
  <clipPath id="p9d6ac512c4">
   <rect x="632.402069" y="8.64" width="14.995862" height="54.36"/>
  </clipPath>
  <clipPath id="p2fc76e2fac">
   <rect x="649.764248" y="8.64" width="12.671503" height="54.36"/>
  </clipPath>
  <clipPath id="p2bbf0e55af">
   <rect x="686.006938" y="8.64" width="4.986124" height="54.36"/>
  </clipPath>
  <clipPath id="p63c97403d8">
   <rect x="698.364248" y="8.64" width="12.671503" height="54.36"/>
  </clipPath>
  <clipPath id="p8bedf37d87">
   <rect x="714.189352" y="8.64" width="13.421297" height="54.36"/>
  </clipPath>
  <clipPath id="p76881c33a6">
   <rect x="729.602069" y="8.64" width="14.995862" height="54.36"/>
  </clipPath>
 </defs>
</svg>
