<?xml version="1.0" encoding="utf-8" standalone="no"?>
<!DOCTYPE svg PUBLIC "-//W3C//DTD SVG 1.1//EN"
  "http://www.w3.org/Graphics/SVG/1.1/DTD/svg11.dtd">
<svg xmlns:xlink="http://www.w3.org/1999/xlink" width="738pt" height="72pt" viewBox="0 0 738 72" xmlns="http://www.w3.org/2000/svg" version="1.1">
 <metadata>
  <rdf:RDF xmlns:dc="http://purl.org/dc/elements/1.1/" xmlns:cc="http://creativecommons.org/ns#" xmlns:rdf="http://www.w3.org/1999/02/22-rdf-syntax-ns#">
   <cc:Work>
    <dc:type rdf:resource="http://purl.org/dc/dcmitype/StillImage"/>
    <dc:date>2023-12-21T11:43:40.120117</dc:date>
    <dc:format>image/svg+xml</dc:format>
    <dc:creator>
     <cc:Agent>
      <dc:title>Matplotlib v3.5.1, https://matplotlib.org/</dc:title>
     </cc:Agent>
    </dc:creator>
   </cc:Work>
  </rdf:RDF>
 </metadata>
 <defs>
  <style type="text/css">*{stroke-linejoin: round; stroke-linecap: butt}</style>
 </defs>
 <g id="figure_1">
  <g id="patch_1">
   <path d="M 0 72 
L 738 72 
L 738 0 
L 0 0 
z
" style="fill: #8fff9f"/>
  </g>
  <g id="axes_1">
   <g id="patch_2">
    <path d="M 1.464738 44.637722 
Q 1.464738 44.637722 5.155877 44.637722 
Q 5.185172 44.637722 14.735262 44.901374 
M 2.783002 37.431212 
L 3.57396 37.431212 
Q 3.603255 37.431212 5.771067 37.343327 
L 10.516817 36.552369 
M 3.398192 28.818553 
Q 4.599277 28.379132 7.016094 28.364485 
Q 9.432911 28.349837 10.516817 28.027595 
L 14.295841 27.939711 
M 2.783002 28.994322 
L 2.783002 29.17009 
Q 2.783002 29.78528 2.929476 30.752007 
Q 3.075949 31.718734 3.29566 32.846582 
Q 3.515371 33.97443 3.57396 34.355262 
L 3.661844 45.077143 
" clip-path="url(#pc376a05c8c)" style="fill: none; stroke: #000000; stroke-linejoin: miter"/>
   </g>
  </g>
  <g id="axes_2">
   <g id="patch_3">
    <path d="M 20.026179 34.807779 
Q 21.638234 36.719752 22.931628 39.6252 
Q 24.225021 42.530648 24.524938 45.154924 
Q 25.574648 43.655338 26.493145 38.819172 
Q 27.411641 33.983007 28.573821 32.108524 
" clip-path="url(#p20155a3df0)" style="fill: none; stroke: #000000; stroke-linejoin: miter"/>
   </g>
  </g>
  <g id="axes_3">
   <g id="patch_4">
    <path d="M 34.257798 38.160826 
Q 37.230275 39.535596 41.949083 39.721376 
Q 43.472477 39.721376 44.159862 38.550963 
Q 44.847248 37.38055 44.847248 35.82 
Q 44.847248 35.299817 44.754358 34.909679 
Q 44.661468 34.519541 44.419954 34.296606 
Q 44.17844 34.07367 44.011239 33.943624 
Q 43.844037 33.813578 43.398165 33.757844 
Q 42.952294 33.70211 42.747936 33.683532 
Q 42.543578 33.664954 41.967661 33.683532 
Q 41.391743 33.70211 41.168807 33.70211 
Q 39.125229 33.70211 37.638991 35.578486 
Q 36.152752 37.454862 36.152752 39.609908 
Q 36.152752 42.619541 38.084862 44.570229 
Q 40.016972 46.520917 43.063761 46.520917 
Q 45.218807 46.818165 46.742202 44.29156 
" clip-path="url(#p062c5f52c9)" style="fill: none; stroke: #000000; stroke-linejoin: miter"/>
   </g>
  </g>
  <g id="axes_4">
   <g id="patch_5">
    <path d="M 52.238731 37.282097 
L 52.238731 37.844441 
Q 52.501159 39.868883 52.538648 41.312234 
Q 52.576138 42.755586 52.482414 44.667559 
Q 52.38869 46.579531 52.38869 48.191586 
L 52.463669 39.643945 
Q 52.463669 38.144359 54.056979 37.507034 
Q 55.65029 36.86971 57.074897 37.282097 
Q 58.986869 37.844441 59.905366 39.04411 
Q 60.823862 40.243779 60.880097 41.668386 
Q 60.936331 43.092993 60.973821 44.817517 
Q 61.01131 46.542041 61.161269 48.191586 
" clip-path="url(#p6227e5ee1b)" style="fill: none; stroke: #000000; stroke-linejoin: miter"/>
   </g>
  </g>
  <g id="axes_5">
   <g id="patch_6">
    <path d="M 68.063834 37.95691 
L 68.738648 37.95691 
Q 69.450952 37.95691 70.238234 37.881931 
Q 71.025517 37.806952 71.981503 37.675738 
Q 72.93749 37.544524 73.462345 37.507034 
L 77.736166 35.82 
M 73.687283 30.42149 
L 73.687283 31.43371 
Q 73.687283 33.383172 73.012469 37.207117 
Q 72.337655 41.031062 72.337655 43.018014 
Q 72.337655 43.805297 72.337655 44.105214 
Q 72.337655 44.405131 72.431379 45.042455 
Q 72.525103 45.679779 72.712552 45.960952 
Q 72.9 46.242124 73.293641 46.485807 
Q 73.687283 46.72949 74.249628 46.72949 
Q 74.362097 46.692 74.680759 46.72949 
Q 74.999421 46.766979 75.186869 46.710745 
Q 75.374317 46.65451 75.374317 46.392083 
" clip-path="url(#pc5c4dac27f)" style="fill: none; stroke: #000000; stroke-linejoin: miter"/>
   </g>
  </g>
  <g id="axes_6">
   <g id="patch_7">
    <path d="M 84.488772 35.145186 
Q 84.488772 35.145186 84.488772 35.595062 
Q 84.488772 36.269876 84.376303 37.619503 
Q 84.263834 38.969131 84.263834 39.643945 
Q 84.263834 41.930814 85.500993 43.599103 
Q 86.738152 45.267393 88.875062 45.267393 
Q 90.262179 45.154924 91.030717 43.917766 
Q 91.799255 42.680607 91.949214 41.237255 
Q 92.099172 39.793903 92.3616 37.9944 
Q 92.624028 36.194897 93.036414 35.370124 
Q 93.186372 35.070207 93.186372 35.670041 
Q 93.186372 36.269876 92.923945 38.706703 
Q 92.699007 41.031062 92.699007 41.555917 
Q 92.549048 42.643117 92.886455 43.767807 
Q 93.223862 44.892497 93.936166 45.6048 
" clip-path="url(#pf2fb43ade0)" style="fill: none; stroke: #000000; stroke-linejoin: miter"/>
   </g>
  </g>
  <g id="axes_7">
   <g id="patch_8">
    <path d="M 110.843923 36.441748 
Q 109.634968 35.094627 105.662687 35.094627 
Q 104.142857 35.094627 103.365672 35.146439 
Q 102.588486 35.198252 101.58678 35.440043 
Q 100.585075 35.681834 100.101493 36.182687 
Q 99.61791 36.683539 99.272495 37.616162 
Q 98.927079 38.548785 98.927079 39.964989 
Q 98.927079 42.037484 100.343284 43.280981 
Q 101.759488 44.524478 103.693817 44.524478 
Q 106.353518 44.524478 109.116844 38.721493 
Q 110.463966 35.854542 110.463966 35.82 
Q 110.809382 35.578209 110.843923 36.441748 
Q 110.843923 37.512537 111.258422 40.362217 
Q 111.672921 43.211898 111.672921 44.524478 
" clip-path="url(#p6f6224a818)" style="fill: none; stroke: #000000; stroke-linejoin: miter"/>
   </g>
  </g>
  <g id="axes_8">
   <g id="patch_9">
    <path d="M 121.106359 28.621986 
Q 121.331297 30.34651 121.406276 32.146014 
Q 121.481255 33.945517 121.46251 36.551048 
Q 121.443766 39.156579 121.443766 40.093821 
Q 121.443766 40.13131 121.668703 45.829738 
L 121.893641 46.841959 
" clip-path="url(#pe040e92eb7)" style="fill: none; stroke: #000000; stroke-linejoin: miter"/>
   </g>
  </g>
  <g id="axes_9">
   <g id="patch_10">
    <path d="M 137.306359 28.621986 
Q 137.531297 30.34651 137.606276 32.146014 
Q 137.681255 33.945517 137.66251 36.551048 
Q 137.643766 39.156579 137.643766 40.093821 
Q 137.643766 40.13131 137.868703 45.829738 
L 138.093641 46.841959 
" clip-path="url(#p4965cbcb5b)" style="fill: none; stroke: #000000; stroke-linejoin: miter"/>
   </g>
  </g>
  <g id="axes_10">
   <g id="patch_11">
    <path d="M 148.763917 36.382345 
Q 148.726428 36.494814 148.857641 36.701007 
Q 148.988855 36.9072 148.876386 37.057159 
L 148.876386 39.306538 
Q 148.876386 40.506207 149.213793 41.724621 
Q 149.5512 42.943034 150.413462 43.93651 
Q 151.275724 44.929986 152.475393 44.929986 
Q 153.712552 44.929986 154.387366 43.861531 
Q 155.062179 42.793076 155.512055 41.143531 
Q 155.961931 39.493986 156.299338 38.969131 
L 157.086621 36.382345 
L 156.861683 42.680607 
L 156.861683 45.154924 
Q 156.861683 47.066897 157.592731 51.00331 
Q 158.323779 54.939724 158.323779 56.964166 
Q 159.073572 59.213545 157.986372 60.188276 
Q 156.899172 61.163007 154.837241 60.78811 
Q 153.037738 60.488193 152.119241 60.169531 
Q 151.200745 59.850869 149.213793 58.988607 
L 149.101324 58.426262 
" clip-path="url(#p32939bf026)" style="fill: none; stroke: #000000; stroke-linejoin: miter"/>
   </g>
  </g>
  <g id="axes_11">
   <g id="patch_12">
    <path d="M 169.387697 39.981352 
Q 170.399917 40.956083 170.737324 42.905545 
Q 170.924772 43.955255 170.512386 46.167145 
L 169.275228 47.629241 
" clip-path="url(#pb6b498c4f6)" style="fill: none; stroke: #000000; stroke-linejoin: miter"/>
   </g>
  </g>
  <g id="axes_12"/>
  <g id="axes_13">
   <g id="patch_13">
    <path d="M 208.043923 36.441748 
Q 206.834968 35.094627 202.862687 35.094627 
Q 201.342857 35.094627 200.565672 35.146439 
Q 199.788486 35.198252 198.78678 35.440043 
Q 197.785075 35.681834 197.301493 36.182687 
Q 196.81791 36.683539 196.472495 37.616162 
Q 196.127079 38.548785 196.127079 39.964989 
Q 196.127079 42.037484 197.543284 43.280981 
Q 198.959488 44.524478 200.893817 44.524478 
Q 203.553518 44.524478 206.316844 38.721493 
Q 207.663966 35.854542 207.663966 35.82 
Q 208.009382 35.578209 208.043923 36.441748 
Q 208.043923 37.512537 208.458422 40.362217 
Q 208.872921 43.211898 208.872921 44.524478 
" clip-path="url(#p59ad7e3b9c)" style="fill: none; stroke: #000000; stroke-linejoin: miter"/>
   </g>
  </g>
  <g id="axes_14">
   <g id="patch_14">
    <path d="M 214.238731 37.282097 
L 214.238731 37.844441 
Q 214.501159 39.868883 214.538648 41.312234 
Q 214.576138 42.755586 214.482414 44.667559 
Q 214.38869 46.579531 214.38869 48.191586 
L 214.463669 39.643945 
Q 214.463669 38.144359 216.056979 37.507034 
Q 217.65029 36.86971 219.074897 37.282097 
Q 220.986869 37.844441 221.905366 39.04411 
Q 222.823862 40.243779 222.880097 41.668386 
Q 222.936331 43.092993 222.973821 44.817517 
Q 223.01131 46.542041 223.161269 48.191586 
" clip-path="url(#p3887dbf950)" style="fill: none; stroke: #000000; stroke-linejoin: miter"/>
   </g>
  </g>
  <g id="axes_15"/>
  <g id="axes_16">
   <g id="patch_15">
    <path d="M 247.781498 38.139383 
Q 247.781498 38.139383 249.815419 38.139383 
Q 250.636123 37.889604 252.955507 38.085859 
Q 255.27489 38.282115 256.238326 38.139383 
M 244.784141 46.489163 
L 244.891189 46.168018 
Q 244.891189 45.275947 246.818062 40.797753 
Q 248.744934 36.319559 250.707489 32.251718 
Q 252.670044 28.183877 252.812775 28.183877 
Q 253.669163 28.183877 254.364978 29.646872 
Q 255.060793 31.109868 255.52467 33.393568 
Q 255.988546 35.677269 256.327533 37.943128 
Q 256.66652 40.208987 256.951982 42.332115 
Q 257.237445 44.455242 257.415859 45.097533 
" clip-path="url(#p60fc5f3e0a)" style="fill: none; stroke: #000000; stroke-linejoin: miter"/>
   </g>
  </g>
  <g id="axes_17">
   <g id="patch_16">
    <path d="M 261.008036 34.879821 
Q 261.514286 36.073125 261.803571 42.871339 
Q 261.948214 46.632054 262.2375 46.632054 
Q 262.273661 46.632054 262.309821 46.595893 
Q 262.816071 46.017321 262.870313 44.588973 
Q 262.924554 43.160625 262.707589 41.750357 
Q 262.490625 40.340089 262.2375 38.712857 
Q 261.984375 37.085625 261.984375 36.398571 
Q 261.984375 35.169107 262.364062 33.939643 
Q 262.74375 32.710179 263.720089 32.710179 
Q 264.949554 32.710179 265.672768 34.355491 
Q 266.395982 36.000804 266.558705 37.971563 
Q 266.721429 39.942321 266.829911 41.587634 
Q 266.938393 43.232946 267.083036 43.232946 
Q 267.227679 43.232946 267.31808 41.497232 
Q 267.408482 39.761518 267.535045 37.700357 
Q 267.661607 35.639196 268.384821 33.903482 
Q 269.108036 32.167768 270.3375 32.167768 
Q 271.892411 33.035625 272.561384 34.771339 
Q 273.230357 36.507054 273.194196 38.188527 
Q 273.158036 39.87 273.176116 42.057723 
Q 273.194196 44.245446 273.591964 45.511071 
" clip-path="url(#p6cf8cb5997)" style="fill: none; stroke: #000000; stroke-linejoin: miter"/>
   </g>
  </g>
  <g id="axes_18">
   <g id="patch_17">
    <path d="M 289.043923 36.441748 
Q 287.834968 35.094627 283.862687 35.094627 
Q 282.342857 35.094627 281.565672 35.146439 
Q 280.788486 35.198252 279.78678 35.440043 
Q 278.785075 35.681834 278.301493 36.182687 
Q 277.81791 36.683539 277.472495 37.616162 
Q 277.127079 38.548785 277.127079 39.964989 
Q 277.127079 42.037484 278.543284 43.280981 
Q 279.959488 44.524478 281.893817 44.524478 
Q 284.553518 44.524478 287.316844 38.721493 
Q 288.663966 35.854542 288.663966 35.82 
Q 289.009382 35.578209 289.043923 36.441748 
Q 289.043923 37.512537 289.458422 40.362217 
Q 289.872921 43.211898 289.872921 44.524478 
" clip-path="url(#p66ecd75869)" style="fill: none; stroke: #000000; stroke-linejoin: miter"/>
   </g>
  </g>
  <g id="axes_19">
   <g id="patch_18">
    <path d="M 299.306359 28.621986 
Q 299.531297 30.34651 299.606276 32.146014 
Q 299.681255 33.945517 299.66251 36.551048 
Q 299.643766 39.156579 299.643766 40.093821 
Q 299.643766 40.13131 299.868703 45.829738 
L 300.093641 46.841959 
" clip-path="url(#p5debfb6a54)" style="fill: none; stroke: #000000; stroke-linejoin: miter"/>
   </g>
  </g>
  <g id="axes_20">
   <g id="patch_19">
    <path d="M 320.687191 39.096404 
Q 320.43236 39.023596 319.46764 38.623146 
Q 318.502921 38.222697 317.84764 38.077079 
Q 317.19236 37.931461 316.537079 38.00427 
Q 313.915955 38.00427 312.277753 40.388764 
Q 310.639551 42.773258 310.639551 45.430787 
Q 310.639551 47.068989 315.881798 47.068989 
Q 317.447191 47.068989 318.775955 45.558202 
Q 320.104719 44.047416 320.778202 42.172584 
Q 321.451685 40.297753 321.451685 38.768764 
Q 321.451685 37.27618 321.415281 36.984944 
L 321.342472 38.077079 
Q 321.342472 38.550337 321.342472 38.987191 
Q 321.378876 40.188539 321.579101 42.281798 
Q 321.779326 44.375056 321.943146 46.049663 
Q 322.106966 47.72427 322.143371 49.872135 
Q 322.179775 52.02 322.015955 53.658202 
Q 321.852135 55.296404 321.287865 56.971011 
Q 320.723596 58.645618 319.795281 59.737753 
Q 318.866966 60.829888 317.265169 61.521573 
Q 315.663371 62.213258 313.515506 62.213258 
Q 311.877303 62.213258 310.785169 61.466966 
Q 309.693034 60.720674 309.693034 59.155281 
Q 309.620225 58.936854 309.656629 58.936854 
Q 309.693034 58.936854 309.802247 58.936854 
Q 309.911461 58.936854 309.911461 58.82764 
" clip-path="url(#p4dbd044c52)" style="fill: none; stroke: #000000; stroke-linejoin: miter"/>
   </g>
  </g>
  <g id="axes_21">
   <g id="patch_20">
    <path d="M 337.643923 36.441748 
Q 336.434968 35.094627 332.462687 35.094627 
Q 330.942857 35.094627 330.165672 35.146439 
Q 329.388486 35.198252 328.38678 35.440043 
Q 327.385075 35.681834 326.901493 36.182687 
Q 326.41791 36.683539 326.072495 37.616162 
Q 325.727079 38.548785 325.727079 39.964989 
Q 325.727079 42.037484 327.143284 43.280981 
Q 328.559488 44.524478 330.493817 44.524478 
Q 333.153518 44.524478 335.916844 38.721493 
Q 337.263966 35.854542 337.263966 35.82 
Q 337.609382 35.578209 337.643923 36.441748 
Q 337.643923 37.512537 338.058422 40.362217 
Q 338.472921 43.211898 338.472921 44.524478 
" clip-path="url(#p39b2de363d)" style="fill: none; stroke: #000000; stroke-linejoin: miter"/>
   </g>
  </g>
  <g id="axes_22">
   <g id="patch_21">
    <path d="M 342.008036 34.879821 
Q 342.514286 36.073125 342.803571 42.871339 
Q 342.948214 46.632054 343.2375 46.632054 
Q 343.273661 46.632054 343.309821 46.595893 
Q 343.816071 46.017321 343.870313 44.588973 
Q 343.924554 43.160625 343.707589 41.750357 
Q 343.490625 40.340089 343.2375 38.712857 
Q 342.984375 37.085625 342.984375 36.398571 
Q 342.984375 35.169107 343.364063 33.939643 
Q 343.74375 32.710179 344.720089 32.710179 
Q 345.949554 32.710179 346.672768 34.355491 
Q 347.395982 36.000804 347.558705 37.971563 
Q 347.721429 39.942321 347.829911 41.587634 
Q 347.938393 43.232946 348.083036 43.232946 
Q 348.227679 43.232946 348.31808 41.497232 
Q 348.408482 39.761518 348.535045 37.700357 
Q 348.661607 35.639196 349.384821 33.903482 
Q 350.108036 32.167768 351.3375 32.167768 
Q 352.892411 33.035625 353.561384 34.771339 
Q 354.230357 36.507054 354.194196 38.188527 
Q 354.158036 39.87 354.176116 42.057723 
Q 354.194196 44.245446 354.591964 45.511071 
" clip-path="url(#p0063fb7b90)" style="fill: none; stroke: #000000; stroke-linejoin: miter"/>
   </g>
  </g>
  <g id="axes_23">
   <g id="patch_22">
    <path d="M 370.043923 36.441748 
Q 368.834968 35.094627 364.862687 35.094627 
Q 363.342857 35.094627 362.565672 35.146439 
Q 361.788486 35.198252 360.78678 35.440043 
Q 359.785075 35.681834 359.301493 36.182687 
Q 358.81791 36.683539 358.472495 37.616162 
Q 358.127079 38.548785 358.127079 39.964989 
Q 358.127079 42.037484 359.543284 43.280981 
Q 360.959488 44.524478 362.893817 44.524478 
Q 365.553518 44.524478 368.316844 38.721493 
Q 369.663966 35.854542 369.663966 35.82 
Q 370.009382 35.578209 370.043923 36.441748 
Q 370.043923 37.512537 370.458422 40.362217 
Q 370.872921 43.211898 370.872921 44.524478 
" clip-path="url(#pc7482b1b80)" style="fill: none; stroke: #000000; stroke-linejoin: miter"/>
   </g>
  </g>
  <g id="axes_24">
   <g id="patch_23">
    <path d="M 375.863834 37.95691 
L 376.538648 37.95691 
Q 377.250952 37.95691 378.038234 37.881931 
Q 378.825517 37.806952 379.781503 37.675738 
Q 380.73749 37.544524 381.262345 37.507034 
L 385.536166 35.82 
M 381.487283 30.42149 
L 381.487283 31.43371 
Q 381.487283 33.383172 380.812469 37.207117 
Q 380.137655 41.031062 380.137655 43.018014 
Q 380.137655 43.805297 380.137655 44.105214 
Q 380.137655 44.405131 380.231379 45.042455 
Q 380.325103 45.679779 380.512552 45.960952 
Q 380.7 46.242124 381.093641 46.485807 
Q 381.487283 46.72949 382.049628 46.72949 
Q 382.162097 46.692 382.480759 46.72949 
Q 382.799421 46.766979 382.986869 46.710745 
Q 383.174317 46.65451 383.174317 46.392083 
" clip-path="url(#pa7d5f18a45)" style="fill: none; stroke: #000000; stroke-linejoin: miter"/>
   </g>
  </g>
  <g id="axes_25">
   <g id="patch_24">
    <path d="M 390.657798 38.160826 
Q 393.630275 39.535596 398.349083 39.721376 
Q 399.872477 39.721376 400.559862 38.550963 
Q 401.247248 37.38055 401.247248 35.82 
Q 401.247248 35.299817 401.154358 34.909679 
Q 401.061468 34.519541 400.819954 34.296606 
Q 400.57844 34.07367 400.411239 33.943624 
Q 400.244037 33.813578 399.798165 33.757844 
Q 399.352294 33.70211 399.147936 33.683532 
Q 398.943578 33.664954 398.367661 33.683532 
Q 397.791743 33.70211 397.568807 33.70211 
Q 395.525229 33.70211 394.038991 35.578486 
Q 392.552752 37.454862 392.552752 39.609908 
Q 392.552752 42.619541 394.484862 44.570229 
Q 396.416972 46.520917 399.463761 46.520917 
Q 401.618807 46.818165 403.142202 44.29156 
" clip-path="url(#p1e30c16834)" style="fill: none; stroke: #000000; stroke-linejoin: miter"/>
   </g>
  </g>
  <g id="axes_26">
   <g id="patch_25">
    <path d="M 416.699007 39.568966 
Q 415.349379 38.181848 413.1 38.444276 
Q 410.250786 38.444276 409.088607 39.793903 
Q 407.926428 41.143531 407.926428 44.067724 
Q 407.926428 45.56731 409.219821 46.279614 
Q 410.513214 46.991917 412.087779 46.991917 
Q 413.399917 46.991917 414.412138 45.736014 
Q 415.424359 44.48011 416.005448 42.30571 
Q 416.586538 40.13131 416.961434 37.938166 
Q 417.336331 35.745021 417.48629 33.045766 
Q 417.636248 30.34651 417.673738 28.978138 
Q 417.711228 27.609766 417.711228 26.185159 
Q 417.48629 26.260138 417.48629 29.896634 
L 417.48629 44.292662 
L 418.273572 48.229076 
" clip-path="url(#pf094e869f6)" style="fill: none; stroke: #000000; stroke-linejoin: miter"/>
   </g>
  </g>
  <g id="axes_27"/>
  <g id="axes_28">
   <g id="patch_26">
    <path d="M 439.884861 27.235936 
Q 439.884861 27.235936 442.208367 27.235936 
Q 443.499203 27.235936 444.112351 27.252072 
Q 444.725498 27.268207 445.967928 27.36502 
Q 447.210359 27.461833 447.855777 27.639323 
Q 448.501195 27.816813 449.420916 28.204064 
Q 450.340637 28.591315 450.808566 29.13992 
Q 451.276494 29.688526 451.631474 30.559841 
Q 451.986454 31.431155 451.986454 32.560637 
Q 451.986454 33.464223 451.663745 34.158048 
Q 451.341036 34.851873 450.873108 35.28753 
Q 450.405179 35.723187 449.630677 36.013625 
Q 448.856175 36.304064 448.162351 36.449283 
Q 447.468526 36.594502 446.484263 36.642908 
Q 445.5 36.691315 444.838446 36.691315 
Q 444.176892 36.691315 443.192629 36.659044 
Q 442.208367 36.626773 441.821116 36.626773 
Q 441.788845 36.626773 440.175299 36.52996 
L 439.013546 35.852271 
M 440.465737 27.526375 
L 440.465737 28.010438 
Q 440.465737 29.785339 440.691633 31.818406 
Q 440.91753 33.851474 441.288645 36.336335 
Q 441.659761 38.821195 441.821116 40.112032 
L 442.240637 46.921195 
" clip-path="url(#pa97001cbb5)" style="fill: none; stroke: #000000; stroke-linejoin: miter"/>
   </g>
  </g>
  <g id="axes_29">
   <g id="patch_27">
    <path d="M 455.457798 38.160826 
Q 458.430275 39.535596 463.149083 39.721376 
Q 464.672477 39.721376 465.359862 38.550963 
Q 466.047248 37.38055 466.047248 35.82 
Q 466.047248 35.299817 465.954358 34.909679 
Q 465.861468 34.519541 465.619954 34.296606 
Q 465.37844 34.07367 465.211239 33.943624 
Q 465.044037 33.813578 464.598165 33.757844 
Q 464.152294 33.70211 463.947936 33.683532 
Q 463.743578 33.664954 463.167661 33.683532 
Q 462.591743 33.70211 462.368807 33.70211 
Q 460.325229 33.70211 458.838991 35.578486 
Q 457.352752 37.454862 457.352752 39.609908 
Q 457.352752 42.619541 459.284862 44.570229 
Q 461.216972 46.520917 464.263761 46.520917 
Q 466.418807 46.818165 467.942202 44.29156 
" clip-path="url(#p0f6926e9df)" style="fill: none; stroke: #000000; stroke-linejoin: miter"/>
   </g>
  </g>
  <g id="axes_30">
   <g id="patch_28">
    <path d="M 473.063834 37.95691 
L 473.738648 37.95691 
Q 474.450952 37.95691 475.238234 37.881931 
Q 476.025517 37.806952 476.981503 37.675738 
Q 477.93749 37.544524 478.462345 37.507034 
L 482.736166 35.82 
M 478.687283 30.42149 
L 478.687283 31.43371 
Q 478.687283 33.383172 478.012469 37.207117 
Q 477.337655 41.031062 477.337655 43.018014 
Q 477.337655 43.805297 477.337655 44.105214 
Q 477.337655 44.405131 477.431379 45.042455 
Q 477.525103 45.679779 477.712552 45.960952 
Q 477.9 46.242124 478.293641 46.485807 
Q 478.687283 46.72949 479.249628 46.72949 
Q 479.362097 46.692 479.680759 46.72949 
Q 479.999421 46.766979 480.186869 46.710745 
Q 480.374317 46.65451 480.374317 46.392083 
" clip-path="url(#p47d75cae18)" style="fill: none; stroke: #000000; stroke-linejoin: miter"/>
   </g>
  </g>
  <g id="axes_31">
   <g id="patch_29">
    <path d="M 490.613462 32.783338 
Q 491.138317 34.507862 491.269531 36.457324 
Q 491.400745 38.406786 491.325766 40.956083 
Q 491.250786 43.505379 491.288276 44.705048 
L 491.400745 46.054676 
L 491.400745 45.829738 
Q 491.400745 44.667559 491.119572 42.30571 
Q 490.8384 39.943862 490.8384 38.744193 
Q 490.8384 36.419834 491.850621 34.882759 
Q 492.862841 33.345683 494.887283 33.345683 
Q 495.599586 33.345683 495.936993 33.626855 
Q 496.2744 33.908028 496.536828 34.432883 
Q 496.799255 34.957738 497.136662 35.257655 
L 497.586538 36.832221 
" clip-path="url(#pc76d6defdf)" style="fill: none; stroke: #000000; stroke-linejoin: miter"/>
   </g>
  </g>
  <g id="axes_32">
   <g id="patch_30">
    <path d="M 513.5616 35.032717 
Q 512.51189 34.582841 511.537159 34.69531 
Q 508.500497 35.032717 506.588524 36.701007 
Q 504.676552 38.369297 504.676552 41.330979 
Q 504.676552 43.917766 506.682248 45.6048 
Q 508.687945 47.291834 511.312221 47.291834 
Q 513.674069 47.291834 514.798759 45.361117 
Q 515.923448 43.4304 515.923448 40.881103 
Q 515.923448 39.643945 515.511062 38.706703 
Q 515.098676 37.769462 514.573821 37.300841 
Q 514.048966 36.832221 513.299172 36.119917 
Q 512.549379 35.407614 512.099503 34.69531 
L 510.862345 34.245434 
" clip-path="url(#p503462ec8a)" style="fill: none; stroke: #000000; stroke-linejoin: miter"/>
   </g>
  </g>
  <g id="axes_33">
   <g id="patch_31">
    <path d="M 526.106359 28.621986 
Q 526.331297 30.34651 526.406276 32.146014 
Q 526.481255 33.945517 526.46251 36.551048 
Q 526.443766 39.156579 526.443766 40.093821 
Q 526.443766 40.13131 526.668703 45.829738 
L 526.893641 46.841959 
" clip-path="url(#p228b90aff8)" style="fill: none; stroke: #000000; stroke-linejoin: miter"/>
   </g>
  </g>
  <g id="axes_34">
   <g id="patch_32">
    <path d="M 543.318579 29.071862 
Q 542.943683 29.146841 542.812469 29.577972 
Q 542.681255 30.009103 542.756234 30.42149 
Q 542.756234 30.571448 542.793724 30.702662 
Q 542.831214 30.833876 542.887448 30.89011 
Q 542.943683 30.946345 542.999917 31.040069 
Q 543.056152 31.133793 543.093641 31.208772 
L 543.20611 29.859145 
M 543.20611 34.020497 
Q 542.306359 39.006621 542.081421 42.793076 
L 542.531297 45.379862 
L 542.868703 46.054676 
" clip-path="url(#pb10cb4c2cb)" style="fill: none; stroke: #000000; stroke-linejoin: miter"/>
   </g>
  </g>
  <g id="axes_35">
   <g id="patch_33">
    <path d="M 554.288772 35.145186 
Q 554.288772 35.145186 554.288772 35.595062 
Q 554.288772 36.269876 554.176303 37.619503 
Q 554.063834 38.969131 554.063834 39.643945 
Q 554.063834 41.930814 555.300993 43.599103 
Q 556.538152 45.267393 558.675062 45.267393 
Q 560.062179 45.154924 560.830717 43.917766 
Q 561.599255 42.680607 561.749214 41.237255 
Q 561.899172 39.793903 562.1616 37.9944 
Q 562.424028 36.194897 562.836414 35.370124 
Q 562.986372 35.070207 562.986372 35.670041 
Q 562.986372 36.269876 562.723945 38.706703 
Q 562.499007 41.031062 562.499007 41.555917 
Q 562.349048 42.643117 562.686455 43.767807 
Q 563.023862 44.892497 563.736166 45.6048 
" clip-path="url(#pe68347edd2)" style="fill: none; stroke: #000000; stroke-linejoin: miter"/>
   </g>
  </g>
  <g id="axes_36">
   <g id="patch_34">
    <path d="M 568.808036 34.879821 
Q 569.314286 36.073125 569.603571 42.871339 
Q 569.748214 46.632054 570.0375 46.632054 
Q 570.073661 46.632054 570.109821 46.595893 
Q 570.616071 46.017321 570.670313 44.588973 
Q 570.724554 43.160625 570.507589 41.750357 
Q 570.290625 40.340089 570.0375 38.712857 
Q 569.784375 37.085625 569.784375 36.398571 
Q 569.784375 35.169107 570.164063 33.939643 
Q 570.54375 32.710179 571.520089 32.710179 
Q 572.749554 32.710179 573.472768 34.355491 
Q 574.195982 36.000804 574.358705 37.971563 
Q 574.521429 39.942321 574.629911 41.587634 
Q 574.738393 43.232946 574.883036 43.232946 
Q 575.027679 43.232946 575.11808 41.497232 
Q 575.208482 39.761518 575.335045 37.700357 
Q 575.461607 35.639196 576.184821 33.903482 
Q 576.908036 32.167768 578.1375 32.167768 
Q 579.692411 33.035625 580.361384 34.771339 
Q 581.030357 36.507054 580.994196 38.188527 
Q 580.958036 39.87 580.976116 42.057723 
Q 580.994196 44.245446 581.391964 45.511071 
" clip-path="url(#p926938105f)" style="fill: none; stroke: #000000; stroke-linejoin: miter"/>
   </g>
  </g>
  <g id="axes_37"/>
  <g id="axes_38">
   <g id="patch_35">
    <path d="M 603.057476 43.917766 
Q 603.357393 44.180193 604.369614 45.154924 
Q 605.381834 46.129655 605.944179 46.560786 
Q 606.506524 46.991917 607.53749 47.385559 
Q 608.568455 47.7792 609.580676 47.629241 
Q 610.25549 47.629241 610.72411 47.404303 
Q 611.192731 47.179366 611.417669 46.879448 
Q 611.642607 46.579531 611.773821 45.979697 
Q 611.905034 45.379862 611.923779 44.967476 
Q 611.942524 44.55509 611.942524 43.805297 
Q 611.942524 42.718097 611.042772 42.043283 
Q 610.143021 41.368469 608.849628 41.031062 
Q 607.556234 40.693655 606.262841 40.300014 
Q 604.969448 39.906372 604.069697 38.987876 
Q 603.169945 38.069379 603.169945 36.607283 
Q 603.169945 36.082428 603.338648 35.726276 
Q 603.507352 35.370124 603.900993 35.145186 
Q 604.294634 34.920248 604.575807 34.807779 
Q 604.856979 34.69531 605.513048 34.639076 
Q 606.169117 34.582841 606.356566 34.582841 
Q 606.544014 34.582841 607.218828 34.582841 
Q 608.418497 34.582841 608.999586 34.995228 
Q 609.580676 35.407614 609.899338 36.026193 
Q 610.218 36.644772 610.480428 36.832221 
" clip-path="url(#pabe4617b76)" style="fill: none; stroke: #000000; stroke-linejoin: miter"/>
   </g>
  </g>
  <g id="axes_39">
   <g id="patch_36">
    <path d="M 624.318579 29.071862 
Q 623.943683 29.146841 623.812469 29.577972 
Q 623.681255 30.009103 623.756234 30.42149 
Q 623.756234 30.571448 623.793724 30.702662 
Q 623.831214 30.833876 623.887448 30.89011 
Q 623.943683 30.946345 623.999917 31.040069 
Q 624.056152 31.133793 624.093641 31.208772 
L 624.20611 29.859145 
M 624.20611 34.020497 
Q 623.306359 39.006621 623.081421 42.793076 
L 623.531297 45.379862 
L 623.868703 46.054676 
" clip-path="url(#pd3544fc032)" style="fill: none; stroke: #000000; stroke-linejoin: miter"/>
   </g>
  </g>
  <g id="axes_40">
   <g id="patch_37">
    <path d="M 644.687191 39.096404 
Q 644.43236 39.023596 643.46764 38.623146 
Q 642.502921 38.222697 641.84764 38.077079 
Q 641.19236 37.931461 640.537079 38.00427 
Q 637.915955 38.00427 636.277753 40.388764 
Q 634.639551 42.773258 634.639551 45.430787 
Q 634.639551 47.068989 639.881798 47.068989 
Q 641.447191 47.068989 642.775955 45.558202 
Q 644.104719 44.047416 644.778202 42.172584 
Q 645.451685 40.297753 645.451685 38.768764 
Q 645.451685 37.27618 645.415281 36.984944 
L 645.342472 38.077079 
Q 645.342472 38.550337 645.342472 38.987191 
Q 645.378876 40.188539 645.579101 42.281798 
Q 645.779326 44.375056 645.943146 46.049663 
Q 646.106966 47.72427 646.143371 49.872135 
Q 646.179775 52.02 646.015955 53.658202 
Q 645.852135 55.296404 645.287865 56.971011 
Q 644.723596 58.645618 643.795281 59.737753 
Q 642.866966 60.829888 641.265169 61.521573 
Q 639.663371 62.213258 637.515506 62.213258 
Q 635.877303 62.213258 634.785169 61.466966 
Q 633.693034 60.720674 633.693034 59.155281 
Q 633.620225 58.936854 633.656629 58.936854 
Q 633.693034 58.936854 633.802247 58.936854 
Q 633.911461 58.936854 633.911461 58.82764 
" clip-path="url(#p2bfc30d6a5)" style="fill: none; stroke: #000000; stroke-linejoin: miter"/>
   </g>
  </g>
  <g id="axes_41">
   <g id="patch_38">
    <path d="M 651.638731 37.282097 
L 651.638731 37.844441 
Q 651.901159 39.868883 651.938648 41.312234 
Q 651.976138 42.755586 651.882414 44.667559 
Q 651.78869 46.579531 651.78869 48.191586 
L 651.863669 39.643945 
Q 651.863669 38.144359 653.456979 37.507034 
Q 655.05029 36.86971 656.474897 37.282097 
Q 658.386869 37.844441 659.305366 39.04411 
Q 660.223862 40.243779 660.280097 41.668386 
Q 660.336331 43.092993 660.373821 44.817517 
Q 660.41131 46.542041 660.561269 48.191586 
" clip-path="url(#p1181a84ffa)" style="fill: none; stroke: #000000; stroke-linejoin: miter"/>
   </g>
  </g>
 </g>
 <defs>
  <clipPath id="pc376a05c8c">
   <rect x="0" y="14.581302" width="16.2" height="42.477396"/>
  </clipPath>
  <clipPath id="p20155a3df0">
   <rect x="18.151697" y="8.64" width="12.296607" height="54.36"/>
  </clipPath>
  <clipPath id="p062c5f52c9">
   <rect x="32.4" y="8.881927" width="16.2" height="53.876147"/>
  </clipPath>
  <clipPath id="p6227e5ee1b">
   <rect x="50.364248" y="8.64" width="12.671503" height="54.36"/>
  </clipPath>
  <clipPath id="pc5c4dac27f">
   <rect x="66.189352" y="8.64" width="13.421297" height="54.36"/>
  </clipPath>
  <clipPath id="pf2fb43ade0">
   <rect x="82.389352" y="8.64" width="13.421297" height="54.36"/>
  </clipPath>
  <clipPath id="p6f6224a818">
   <rect x="97.2" y="10.777356" width="16.2" height="50.085288"/>
  </clipPath>
  <clipPath id="pe040e92eb7">
   <rect x="119.231876" y="8.64" width="4.536248" height="54.36"/>
  </clipPath>
  <clipPath id="p4965cbcb5b">
   <rect x="135.431876" y="8.64" width="4.536248" height="54.36"/>
  </clipPath>
  <clipPath id="p32939bf026">
   <rect x="146.851945" y="8.64" width="14.09611" height="54.36"/>
  </clipPath>
  <clipPath id="pb6b498c4f6">
   <rect x="167.400745" y="8.64" width="5.39851" height="54.36"/>
  </clipPath>
  <clipPath id="p59ad7e3b9c">
   <rect x="194.4" y="10.777356" width="16.2" height="50.085288"/>
  </clipPath>
  <clipPath id="p3887dbf950">
   <rect x="212.364248" y="8.64" width="12.671503" height="54.36"/>
  </clipPath>
  <clipPath id="p60fc5f3e0a">
   <rect x="243" y="9.949956" width="16.2" height="51.740088"/>
  </clipPath>
  <clipPath id="p6cf8cb5997">
   <rect x="259.2" y="9.603482" width="16.2" height="52.433036"/>
  </clipPath>
  <clipPath id="p66ecd75869">
   <rect x="275.4" y="10.777356" width="16.2" height="50.085288"/>
  </clipPath>
  <clipPath id="p5debfb6a54">
   <rect x="297.431876" y="8.64" width="4.536248" height="54.36"/>
  </clipPath>
  <clipPath id="p4dbd044c52">
   <rect x="307.8" y="9.426742" width="16.2" height="52.786517"/>
  </clipPath>
  <clipPath id="p39b2de363d">
   <rect x="324" y="10.777356" width="16.2" height="50.085288"/>
  </clipPath>
  <clipPath id="p0063fb7b90">
   <rect x="340.2" y="9.603482" width="16.2" height="52.433036"/>
  </clipPath>
  <clipPath id="pc7482b1b80">
   <rect x="356.4" y="10.777356" width="16.2" height="50.085288"/>
  </clipPath>
  <clipPath id="pa7d5f18a45">
   <rect x="373.989352" y="8.64" width="13.421297" height="54.36"/>
  </clipPath>
  <clipPath id="p1e30c16834">
   <rect x="388.8" y="8.881927" width="16.2" height="53.876147"/>
  </clipPath>
  <clipPath id="pf094e869f6">
   <rect x="406.051945" y="8.64" width="14.09611" height="54.36"/>
  </clipPath>
  <clipPath id="pa97001cbb5">
   <rect x="437.4" y="12.423586" width="16.2" height="46.792829"/>
  </clipPath>
  <clipPath id="p0f6926e9df">
   <rect x="453.6" y="8.881927" width="16.2" height="53.876147"/>
  </clipPath>
  <clipPath id="p47d75cae18">
   <rect x="471.189352" y="8.64" width="13.421297" height="54.36"/>
  </clipPath>
  <clipPath id="pc76d6defdf">
   <rect x="488.738979" y="8.64" width="10.722041" height="54.36"/>
  </clipPath>
  <clipPath id="p503462ec8a">
   <rect x="502.802069" y="8.64" width="14.995862" height="54.36"/>
  </clipPath>
  <clipPath id="p228b90aff8">
   <rect x="524.231876" y="8.64" width="4.536248" height="54.36"/>
  </clipPath>
  <clipPath id="pb10cb4c2cb">
   <rect x="540.206938" y="8.64" width="4.986124" height="54.36"/>
  </clipPath>
  <clipPath id="pe68347edd2">
   <rect x="552.189352" y="8.64" width="13.421297" height="54.36"/>
  </clipPath>
  <clipPath id="p926938105f">
   <rect x="567" y="9.603482" width="16.2" height="52.433036"/>
  </clipPath>
  <clipPath id="pabe4617b76">
   <rect x="601.182993" y="8.64" width="12.634014" height="54.36"/>
  </clipPath>
  <clipPath id="pd3544fc032">
   <rect x="621.206938" y="8.64" width="4.986124" height="54.36"/>
  </clipPath>
  <clipPath id="p2bfc30d6a5">
   <rect x="631.8" y="9.426742" width="16.2" height="52.786517"/>
  </clipPath>
  <clipPath id="p1181a84ffa">
   <rect x="649.764248" y="8.64" width="12.671503" height="54.36"/>
  </clipPath>
 </defs>
</svg>
