<?xml version="1.0" encoding="utf-8" standalone="no"?>
<!DOCTYPE svg PUBLIC "-//W3C//DTD SVG 1.1//EN"
  "http://www.w3.org/Graphics/SVG/1.1/DTD/svg11.dtd">
<svg xmlns:xlink="http://www.w3.org/1999/xlink" width="216pt" height="72pt" viewBox="0 0 216 72" xmlns="http://www.w3.org/2000/svg" version="1.1">
 <metadata>
  <rdf:RDF xmlns:dc="http://purl.org/dc/elements/1.1/" xmlns:cc="http://creativecommons.org/ns#" xmlns:rdf="http://www.w3.org/1999/02/22-rdf-syntax-ns#">
   <cc:Work>
    <dc:type rdf:resource="http://purl.org/dc/dcmitype/StillImage"/>
    <dc:date>2023-12-21T11:44:47.877796</dc:date>
    <dc:format>image/svg+xml</dc:format>
    <dc:creator>
     <cc:Agent>
      <dc:title>Matplotlib v3.5.1, https://matplotlib.org/</dc:title>
     </cc:Agent>
    </dc:creator>
   </cc:Work>
  </rdf:RDF>
 </metadata>
 <defs>
  <style type="text/css">*{stroke-linejoin: round; stroke-linecap: butt}</style>
 </defs>
 <g id="figure_1">
  <g id="patch_1">
   <path d="M 0 72 
L 216 72 
L 216 0 
L 0 0 
z
" style="fill: #8fff9f"/>
  </g>
  <g id="axes_1">
   <g id="patch_2">
    <path d="M 13.643923 36.441748 
Q 12.434968 35.094627 8.462687 35.094627 
Q 6.942857 35.094627 6.165672 35.146439 
Q 5.388486 35.198252 4.38678 35.440043 
Q 3.385075 35.681834 2.901493 36.182687 
Q 2.41791 36.683539 2.072495 37.616162 
Q 1.727079 38.548785 1.727079 39.964989 
Q 1.727079 42.037484 3.143284 43.280981 
Q 4.559488 44.524478 6.493817 44.524478 
Q 9.153518 44.524478 11.916844 38.721493 
Q 13.263966 35.854542 13.263966 35.82 
Q 13.609382 35.578209 13.643923 36.441748 
Q 13.643923 37.512537 14.058422 40.362217 
Q 14.472921 43.211898 14.472921 44.524478 
" clip-path="url(#p6e041c982a)" style="fill: none; stroke: #000000; stroke-linejoin: miter"/>
   </g>
  </g>
  <g id="axes_2">
   <g id="patch_3">
    <path d="M 19.857476 43.917766 
Q 20.157393 44.180193 21.169614 45.154924 
Q 22.181834 46.129655 22.744179 46.560786 
Q 23.306524 46.991917 24.33749 47.385559 
Q 25.368455 47.7792 26.380676 47.629241 
Q 27.05549 47.629241 27.52411 47.404303 
Q 27.992731 47.179366 28.217669 46.879448 
Q 28.442607 46.579531 28.573821 45.979697 
Q 28.705034 45.379862 28.723779 44.967476 
Q 28.742524 44.55509 28.742524 43.805297 
Q 28.742524 42.718097 27.842772 42.043283 
Q 26.943021 41.368469 25.649628 41.031062 
Q 24.356234 40.693655 23.062841 40.300014 
Q 21.769448 39.906372 20.869697 38.987876 
Q 19.969945 38.069379 19.969945 36.607283 
Q 19.969945 36.082428 20.138648 35.726276 
Q 20.307352 35.370124 20.700993 35.145186 
Q 21.094634 34.920248 21.375807 34.807779 
Q 21.656979 34.69531 22.313048 34.639076 
Q 22.969117 34.582841 23.156566 34.582841 
Q 23.344014 34.582841 24.018828 34.582841 
Q 25.218497 34.582841 25.799586 34.995228 
Q 26.380676 35.407614 26.699338 36.026193 
Q 27.018 36.644772 27.280428 36.832221 
" clip-path="url(#p6b2905d9bf)" style="fill: none; stroke: #000000; stroke-linejoin: miter"/>
   </g>
  </g>
  <g id="axes_3">
   <g id="patch_4">
    <path d="M 38.531793 37.169628 
Q 40.556234 39.194069 42.318248 41.76211 
Q 44.080262 44.330152 44.942524 46.72949 
M 41.568455 31.321241 
L 41.568455 31.546179 
Q 41.568455 32.333462 40.931131 33.514386 
Q 40.293807 34.69531 39.319076 36.101172 
Q 38.344345 37.507034 38.081917 37.95691 
L 36.844759 39.643945 
M 36.057476 26.710014 
Q 37.894469 36.269876 38.081917 48.641462 
" clip-path="url(#p4534cd1a8f)" style="fill: none; stroke: #000000; stroke-linejoin: miter"/>
   </g>
  </g>
  <g id="axes_4">
   <g id="patch_5">
    <path d="M 52.257476 43.917766 
Q 52.557393 44.180193 53.569614 45.154924 
Q 54.581834 46.129655 55.144179 46.560786 
Q 55.706524 46.991917 56.73749 47.385559 
Q 57.768455 47.7792 58.780676 47.629241 
Q 59.45549 47.629241 59.92411 47.404303 
Q 60.392731 47.179366 60.617669 46.879448 
Q 60.842607 46.579531 60.973821 45.979697 
Q 61.105034 45.379862 61.123779 44.967476 
Q 61.142524 44.55509 61.142524 43.805297 
Q 61.142524 42.718097 60.242772 42.043283 
Q 59.343021 41.368469 58.049628 41.031062 
Q 56.756234 40.693655 55.462841 40.300014 
Q 54.169448 39.906372 53.269697 38.987876 
Q 52.369945 38.069379 52.369945 36.607283 
Q 52.369945 36.082428 52.538648 35.726276 
Q 52.707352 35.370124 53.100993 35.145186 
Q 53.494634 34.920248 53.775807 34.807779 
Q 54.056979 34.69531 54.713048 34.639076 
Q 55.369117 34.582841 55.556566 34.582841 
Q 55.744014 34.582841 56.418828 34.582841 
Q 57.618497 34.582841 58.199586 34.995228 
Q 58.780676 35.407614 59.099338 36.026193 
Q 59.418 36.644772 59.680428 36.832221 
" clip-path="url(#pdc6918ec83)" style="fill: none; stroke: #000000; stroke-linejoin: miter"/>
   </g>
  </g>
  <g id="axes_5"/>
  <g id="axes_6">
   <g id="patch_6">
    <path d="M 85.781498 38.139383 
Q 85.781498 38.139383 87.815419 38.139383 
Q 88.636123 37.889604 90.955507 38.085859 
Q 93.27489 38.282115 94.238326 38.139383 
M 82.784141 46.489163 
L 82.891189 46.168018 
Q 82.891189 45.275947 84.818062 40.797753 
Q 86.744934 36.319559 88.707489 32.251718 
Q 90.670044 28.183877 90.812775 28.183877 
Q 91.669163 28.183877 92.364978 29.646872 
Q 93.060793 31.109868 93.52467 33.393568 
Q 93.988546 35.677269 94.327533 37.943128 
Q 94.66652 40.208987 94.951982 42.332115 
Q 95.237445 44.455242 95.415859 45.097533 
" clip-path="url(#p30ece1e02e)" style="fill: none; stroke: #000000; stroke-linejoin: miter"/>
   </g>
  </g>
  <g id="axes_7">
   <g id="patch_7">
    <path d="M 100.838731 37.282097 
L 100.838731 37.844441 
Q 101.101159 39.868883 101.138648 41.312234 
Q 101.176138 42.755586 101.082414 44.667559 
Q 100.98869 46.579531 100.98869 48.191586 
L 101.063669 39.643945 
Q 101.063669 38.144359 102.656979 37.507034 
Q 104.25029 36.86971 105.674897 37.282097 
Q 107.586869 37.844441 108.505366 39.04411 
Q 109.423862 40.243779 109.480097 41.668386 
Q 109.536331 43.092993 109.573821 44.817517 
Q 109.61131 46.542041 109.761269 48.191586 
" clip-path="url(#p6b62ec2f53)" style="fill: none; stroke: #000000; stroke-linejoin: miter"/>
   </g>
  </g>
  <g id="axes_8">
   <g id="patch_8">
    <path d="M 126.287191 39.096404 
Q 126.03236 39.023596 125.06764 38.623146 
Q 124.102921 38.222697 123.44764 38.077079 
Q 122.79236 37.931461 122.137079 38.00427 
Q 119.515955 38.00427 117.877753 40.388764 
Q 116.239551 42.773258 116.239551 45.430787 
Q 116.239551 47.068989 121.481798 47.068989 
Q 123.047191 47.068989 124.375955 45.558202 
Q 125.704719 44.047416 126.378202 42.172584 
Q 127.051685 40.297753 127.051685 38.768764 
Q 127.051685 37.27618 127.015281 36.984944 
L 126.942472 38.077079 
Q 126.942472 38.550337 126.942472 38.987191 
Q 126.978876 40.188539 127.179101 42.281798 
Q 127.379326 44.375056 127.543146 46.049663 
Q 127.706966 47.72427 127.743371 49.872135 
Q 127.779775 52.02 127.615955 53.658202 
Q 127.452135 55.296404 126.887865 56.971011 
Q 126.323596 58.645618 125.395281 59.737753 
Q 124.466966 60.829888 122.865169 61.521573 
Q 121.263371 62.213258 119.115506 62.213258 
Q 117.477303 62.213258 116.385169 61.466966 
Q 115.293034 60.720674 115.293034 59.155281 
Q 115.220225 58.936854 115.256629 58.936854 
Q 115.293034 58.936854 115.402247 58.936854 
Q 115.511461 58.936854 115.511461 58.82764 
" clip-path="url(#pe2025d9db1)" style="fill: none; stroke: #000000; stroke-linejoin: miter"/>
   </g>
  </g>
  <g id="axes_9">
   <g id="patch_9">
    <path d="M 131.457798 38.160826 
Q 134.430275 39.535596 139.149083 39.721376 
Q 140.672477 39.721376 141.359862 38.550963 
Q 142.047248 37.38055 142.047248 35.82 
Q 142.047248 35.299817 141.954358 34.909679 
Q 141.861468 34.519541 141.619954 34.296606 
Q 141.37844 34.07367 141.211239 33.943624 
Q 141.044037 33.813578 140.598165 33.757844 
Q 140.152294 33.70211 139.947936 33.683532 
Q 139.743578 33.664954 139.167661 33.683532 
Q 138.591743 33.70211 138.368807 33.70211 
Q 136.325229 33.70211 134.838991 35.578486 
Q 133.352752 37.454862 133.352752 39.609908 
Q 133.352752 42.619541 135.284862 44.570229 
Q 137.216972 46.520917 140.263761 46.520917 
Q 142.418807 46.818165 143.942202 44.29156 
" clip-path="url(#p9a52493111)" style="fill: none; stroke: #000000; stroke-linejoin: miter"/>
   </g>
  </g>
  <g id="axes_10">
   <g id="patch_10">
    <path d="M 153.506359 28.621986 
Q 153.731297 30.34651 153.806276 32.146014 
Q 153.881255 33.945517 153.86251 36.551048 
Q 153.843766 39.156579 153.843766 40.093821 
Q 153.843766 40.13131 154.068703 45.829738 
L 154.293641 46.841959 
" clip-path="url(#p6e1506fe2a)" style="fill: none; stroke: #000000; stroke-linejoin: miter"/>
   </g>
  </g>
  <g id="axes_11">
   <g id="patch_11">
    <path d="M 175.643923 36.441748 
Q 174.434968 35.094627 170.462687 35.094627 
Q 168.942857 35.094627 168.165672 35.146439 
Q 167.388486 35.198252 166.38678 35.440043 
Q 165.385075 35.681834 164.901493 36.182687 
Q 164.41791 36.683539 164.072495 37.616162 
Q 163.727079 38.548785 163.727079 39.964989 
Q 163.727079 42.037484 165.143284 43.280981 
Q 166.559488 44.524478 168.493817 44.524478 
Q 171.153518 44.524478 173.916844 38.721493 
Q 175.263966 35.854542 175.263966 35.82 
Q 175.609382 35.578209 175.643923 36.441748 
Q 175.643923 37.512537 176.058422 40.362217 
Q 176.472921 43.211898 176.472921 44.524478 
" clip-path="url(#p05f7f33a18)" style="fill: none; stroke: #000000; stroke-linejoin: miter"/>
   </g>
  </g>
  <g id="axes_12">
   <g id="patch_12">
    <path d="M 186.187531 45.979697 
Q 186.150041 46.017186 186.018828 46.054676 
Q 185.887614 46.092166 185.925103 46.167145 
Q 185.925103 46.579531 186.3 46.579531 
Q 186.637407 46.579531 186.637407 46.092166 
Q 186.712386 45.867228 186.431214 45.754759 
Q 186.150041 45.64229 185.962593 45.754759 
" clip-path="url(#paa782db389)" style="fill: none; stroke: #000000; stroke-linejoin: miter"/>
   </g>
  </g>
 </g>
 <defs>
  <clipPath id="p6e041c982a">
   <rect x="0" y="10.777356" width="16.2" height="50.085288"/>
  </clipPath>
  <clipPath id="p6b2905d9bf">
   <rect x="17.982993" y="8.64" width="12.634014" height="54.36"/>
  </clipPath>
  <clipPath id="p4534cd1a8f">
   <rect x="34.182993" y="8.64" width="12.634014" height="54.36"/>
  </clipPath>
  <clipPath id="pdc6918ec83">
   <rect x="50.382993" y="8.64" width="12.634014" height="54.36"/>
  </clipPath>
  <clipPath id="p30ece1e02e">
   <rect x="81" y="9.949956" width="16.2" height="51.740088"/>
  </clipPath>
  <clipPath id="p6b62ec2f53">
   <rect x="98.964248" y="8.64" width="12.671503" height="54.36"/>
  </clipPath>
  <clipPath id="pe2025d9db1">
   <rect x="113.4" y="9.426742" width="16.2" height="52.786517"/>
  </clipPath>
  <clipPath id="p9a52493111">
   <rect x="129.6" y="8.881927" width="16.2" height="53.876147"/>
  </clipPath>
  <clipPath id="p6e1506fe2a">
   <rect x="151.631876" y="8.64" width="4.536248" height="54.36"/>
  </clipPath>
  <clipPath id="p05f7f33a18">
   <rect x="162" y="10.777356" width="16.2" height="50.085288"/>
  </clipPath>
  <clipPath id="paa782db389">
   <rect x="184.013131" y="8.64" width="4.573738" height="54.36"/>
  </clipPath>
 </defs>
</svg>
