<?xml version="1.0" encoding="utf-8" standalone="no"?>
<!DOCTYPE svg PUBLIC "-//W3C//DTD SVG 1.1//EN"
  "http://www.w3.org/Graphics/SVG/1.1/DTD/svg11.dtd">
<svg xmlns:xlink="http://www.w3.org/1999/xlink" width="864pt" height="72pt" viewBox="0 0 864 72" xmlns="http://www.w3.org/2000/svg" version="1.1">
 <metadata>
  <rdf:RDF xmlns:dc="http://purl.org/dc/elements/1.1/" xmlns:cc="http://creativecommons.org/ns#" xmlns:rdf="http://www.w3.org/1999/02/22-rdf-syntax-ns#">
   <cc:Work>
    <dc:type rdf:resource="http://purl.org/dc/dcmitype/StillImage"/>
    <dc:date>2023-12-21T11:45:48.943391</dc:date>
    <dc:format>image/svg+xml</dc:format>
    <dc:creator>
     <cc:Agent>
      <dc:title>Matplotlib v3.5.1, https://matplotlib.org/</dc:title>
     </cc:Agent>
    </dc:creator>
   </cc:Work>
  </rdf:RDF>
 </metadata>
 <defs>
  <style type="text/css">*{stroke-linejoin: round; stroke-linecap: butt}</style>
 </defs>
 <g id="figure_1">
  <g id="patch_1">
   <path d="M 0 72 
L 864 72 
L 864 0 
L 0 0 
z
" style="fill: #8fff9f"/>
  </g>
  <g id="axes_1">
   <g id="patch_2">
    <path d="M 3.263834 37.95691 
L 3.938648 37.95691 
Q 4.650952 37.95691 5.438234 37.881931 
Q 6.225517 37.806952 7.181503 37.675738 
Q 8.13749 37.544524 8.662345 37.507034 
L 12.936166 35.82 
M 8.887283 30.42149 
L 8.887283 31.43371 
Q 8.887283 33.383172 8.212469 37.207117 
Q 7.537655 41.031062 7.537655 43.018014 
Q 7.537655 43.805297 7.537655 44.105214 
Q 7.537655 44.405131 7.631379 45.042455 
Q 7.725103 45.679779 7.912552 45.960952 
Q 8.1 46.242124 8.493641 46.485807 
Q 8.887283 46.72949 9.449628 46.72949 
Q 9.562097 46.692 9.880759 46.72949 
Q 10.199421 46.766979 10.386869 46.710745 
Q 10.574317 46.65451 10.574317 46.392083 
" clip-path="url(#p3e8cd13ea3)" style="fill: none; stroke: #000000; stroke-linejoin: miter"/>
   </g>
  </g>
  <g id="axes_2">
   <g id="patch_3">
    <path d="M 20.813462 35.932469 
Q 21.413297 35.257655 22.406772 34.826524 
Q 23.400248 34.395393 24.3 34.470372 
Q 24.937324 34.470372 25.42469 34.639076 
Q 25.912055 34.807779 26.230717 34.995228 
Q 26.549379 35.182676 26.774317 35.670041 
Q 26.999255 36.157407 27.111724 36.419834 
Q 27.224193 36.682262 27.280428 37.375821 
Q 27.336662 38.069379 27.355407 38.331807 
Q 27.374152 38.594234 27.355407 39.419007 
Q 27.336662 40.243779 27.336662 40.431228 
Q 27.336662 41.368469 27.167959 43.242952 
Q 26.999255 45.117434 26.999255 46.054676 
Q 26.999255 46.467062 27.05549 46.823214 
Q 27.111724 47.179366 27.205448 47.610497 
Q 27.299172 48.041628 27.336662 48.304055 
L 27.786538 48.528993 
M 21.263338 23.111007 
Q 21.488276 24.798041 21.488276 29.971614 
L 21.488276 42.3432 
L 21.150869 46.841959 
L 20.925931 47.74171 
" clip-path="url(#pb195c70562)" style="fill: none; stroke: #000000; stroke-linejoin: miter"/>
   </g>
  </g>
  <g id="axes_3">
   <g id="patch_4">
    <path d="M 34.257798 38.160826 
Q 37.230275 39.535596 41.949083 39.721376 
Q 43.472477 39.721376 44.159862 38.550963 
Q 44.847248 37.38055 44.847248 35.82 
Q 44.847248 35.299817 44.754358 34.909679 
Q 44.661468 34.519541 44.419954 34.296606 
Q 44.17844 34.07367 44.011239 33.943624 
Q 43.844037 33.813578 43.398165 33.757844 
Q 42.952294 33.70211 42.747936 33.683532 
Q 42.543578 33.664954 41.967661 33.683532 
Q 41.391743 33.70211 41.168807 33.70211 
Q 39.125229 33.70211 37.638991 35.578486 
Q 36.152752 37.454862 36.152752 39.609908 
Q 36.152752 42.619541 38.084862 44.570229 
Q 40.016972 46.520917 43.063761 46.520917 
Q 45.218807 46.818165 46.742202 44.29156 
" clip-path="url(#p1b6eb3376e)" style="fill: none; stroke: #000000; stroke-linejoin: miter"/>
   </g>
  </g>
  <g id="axes_4"/>
  <g id="axes_5">
   <g id="patch_5">
    <path d="M 68.120069 39.868883 
L 68.120069 39.419007 
Q 68.120069 37.769462 69.863338 36.682262 
Q 71.606607 35.595062 73.293641 35.595062 
Q 75.505531 35.595062 76.873903 36.794731 
Q 78.242276 37.9944 78.242276 40.20629 
Q 78.242276 42.30571 76.424028 43.336676 
Q 74.605779 44.367641 72.39389 44.367641 
Q 71.719076 44.367641 71.212966 44.255172 
Q 70.706855 44.142703 70.088276 43.917766 
Q 69.469697 43.692828 69.019821 43.580359 
L 67.895131 42.568138 
M 67.557724 36.832221 
Q 68.0076 38.444276 68.270028 40.262524 
Q 68.532455 42.080772 68.58869 43.749062 
Q 68.644924 45.417352 68.682414 47.27309 
Q 68.719903 49.128828 68.682414 50.778372 
L 68.569945 57.863917 
" clip-path="url(#pd38c86e037)" style="fill: none; stroke: #000000; stroke-linejoin: miter"/>
   </g>
  </g>
  <g id="axes_6">
   <g id="patch_6">
    <path d="M 84.488772 35.145186 
Q 84.488772 35.145186 84.488772 35.595062 
Q 84.488772 36.269876 84.376303 37.619503 
Q 84.263834 38.969131 84.263834 39.643945 
Q 84.263834 41.930814 85.500993 43.599103 
Q 86.738152 45.267393 88.875062 45.267393 
Q 90.262179 45.154924 91.030717 43.917766 
Q 91.799255 42.680607 91.949214 41.237255 
Q 92.099172 39.793903 92.3616 37.9944 
Q 92.624028 36.194897 93.036414 35.370124 
Q 93.186372 35.070207 93.186372 35.670041 
Q 93.186372 36.269876 92.923945 38.706703 
Q 92.699007 41.031062 92.699007 41.555917 
Q 92.549048 42.643117 92.886455 43.767807 
Q 93.223862 44.892497 93.936166 45.6048 
" clip-path="url(#pc6f5c1265c)" style="fill: none; stroke: #000000; stroke-linejoin: miter"/>
   </g>
  </g>
  <g id="axes_7">
   <g id="patch_7">
    <path d="M 99.008036 34.879821 
Q 99.514286 36.073125 99.803571 42.871339 
Q 99.948214 46.632054 100.2375 46.632054 
Q 100.273661 46.632054 100.309821 46.595893 
Q 100.816071 46.017321 100.870312 44.588973 
Q 100.924554 43.160625 100.707589 41.750357 
Q 100.490625 40.340089 100.2375 38.712857 
Q 99.984375 37.085625 99.984375 36.398571 
Q 99.984375 35.169107 100.364063 33.939643 
Q 100.74375 32.710179 101.720089 32.710179 
Q 102.949554 32.710179 103.672768 34.355491 
Q 104.395982 36.000804 104.558705 37.971563 
Q 104.721429 39.942321 104.829911 41.587634 
Q 104.938393 43.232946 105.083036 43.232946 
Q 105.227679 43.232946 105.31808 41.497232 
Q 105.408482 39.761518 105.535045 37.700357 
Q 105.661607 35.639196 106.384821 33.903482 
Q 107.108036 32.167768 108.3375 32.167768 
Q 109.892411 33.035625 110.561384 34.771339 
Q 111.230357 36.507054 111.194196 38.188527 
Q 111.158036 39.87 111.176116 42.057723 
Q 111.194196 44.245446 111.591964 45.511071 
" clip-path="url(#p4e699ffedb)" style="fill: none; stroke: #000000; stroke-linejoin: miter"/>
   </g>
  </g>
  <g id="axes_8">
   <g id="patch_8">
    <path d="M 116.720069 39.868883 
L 116.720069 39.419007 
Q 116.720069 37.769462 118.463338 36.682262 
Q 120.206607 35.595062 121.893641 35.595062 
Q 124.105531 35.595062 125.473903 36.794731 
Q 126.842276 37.9944 126.842276 40.20629 
Q 126.842276 42.30571 125.024028 43.336676 
Q 123.205779 44.367641 120.99389 44.367641 
Q 120.319076 44.367641 119.812966 44.255172 
Q 119.306855 44.142703 118.688276 43.917766 
Q 118.069697 43.692828 117.619821 43.580359 
L 116.495131 42.568138 
M 116.157724 36.832221 
Q 116.6076 38.444276 116.870028 40.262524 
Q 117.132455 42.080772 117.18869 43.749062 
Q 117.244924 45.417352 117.282414 47.27309 
Q 117.319903 49.128828 117.282414 50.778372 
L 117.169945 57.863917 
" clip-path="url(#p323b733410)" style="fill: none; stroke: #000000; stroke-linejoin: miter"/>
   </g>
  </g>
  <g id="axes_9">
   <g id="patch_9">
    <path d="M 136.987697 39.981352 
Q 137.999917 40.956083 138.337324 42.905545 
Q 138.524772 43.955255 138.112386 46.167145 
L 136.875228 47.629241 
" clip-path="url(#p7b582fb9e2)" style="fill: none; stroke: #000000; stroke-linejoin: miter"/>
   </g>
  </g>
  <g id="axes_10"/>
  <g id="axes_11">
   <g id="patch_10">
    <path d="M 170.624855 27.009931 
Q 170.699834 27.347338 170.774814 28.265834 
Q 170.849793 29.184331 170.999752 29.634207 
L 170.924772 31.058814 
M 169.275228 27.309848 
Q 169.237738 27.309848 169.200248 27.534786 
Q 169.237738 27.684745 169.350207 28.828179 
Q 169.462676 29.971614 169.725103 30.533959 
" clip-path="url(#p46953951ec)" style="fill: none; stroke: #000000; stroke-linejoin: miter"/>
   </g>
  </g>
  <g id="axes_12">
   <g id="patch_11">
    <path d="M 181.857476 43.917766 
Q 182.157393 44.180193 183.169614 45.154924 
Q 184.181834 46.129655 184.744179 46.560786 
Q 185.306524 46.991917 186.33749 47.385559 
Q 187.368455 47.7792 188.380676 47.629241 
Q 189.05549 47.629241 189.52411 47.404303 
Q 189.992731 47.179366 190.217669 46.879448 
Q 190.442607 46.579531 190.573821 45.979697 
Q 190.705034 45.379862 190.723779 44.967476 
Q 190.742524 44.55509 190.742524 43.805297 
Q 190.742524 42.718097 189.842772 42.043283 
Q 188.943021 41.368469 187.649628 41.031062 
Q 186.356234 40.693655 185.062841 40.300014 
Q 183.769448 39.906372 182.869697 38.987876 
Q 181.969945 38.069379 181.969945 36.607283 
Q 181.969945 36.082428 182.138648 35.726276 
Q 182.307352 35.370124 182.700993 35.145186 
Q 183.094634 34.920248 183.375807 34.807779 
Q 183.656979 34.69531 184.313048 34.639076 
Q 184.969117 34.582841 185.156566 34.582841 
Q 185.344014 34.582841 186.018828 34.582841 
Q 187.218497 34.582841 187.799586 34.995228 
Q 188.380676 35.407614 188.699338 36.026193 
Q 189.018 36.644772 189.280428 36.832221 
" clip-path="url(#pa9dc777796)" style="fill: none; stroke: #000000; stroke-linejoin: miter"/>
   </g>
  </g>
  <g id="axes_13">
   <g id="patch_12">
    <path d="M 199.013462 35.932469 
Q 199.613297 35.257655 200.606772 34.826524 
Q 201.600248 34.395393 202.5 34.470372 
Q 203.137324 34.470372 203.62469 34.639076 
Q 204.112055 34.807779 204.430717 34.995228 
Q 204.749379 35.182676 204.974317 35.670041 
Q 205.199255 36.157407 205.311724 36.419834 
Q 205.424193 36.682262 205.480428 37.375821 
Q 205.536662 38.069379 205.555407 38.331807 
Q 205.574152 38.594234 205.555407 39.419007 
Q 205.536662 40.243779 205.536662 40.431228 
Q 205.536662 41.368469 205.367959 43.242952 
Q 205.199255 45.117434 205.199255 46.054676 
Q 205.199255 46.467062 205.25549 46.823214 
Q 205.311724 47.179366 205.405448 47.610497 
Q 205.499172 48.041628 205.536662 48.304055 
L 205.986538 48.528993 
M 199.463338 23.111007 
Q 199.688276 24.798041 199.688276 29.971614 
L 199.688276 42.3432 
L 199.350869 46.841959 
L 199.125931 47.74171 
" clip-path="url(#p8252202ec8)" style="fill: none; stroke: #000000; stroke-linejoin: miter"/>
   </g>
  </g>
  <g id="axes_14">
   <g id="patch_13">
    <path d="M 212.457798 38.160826 
Q 215.430275 39.535596 220.149083 39.721376 
Q 221.672477 39.721376 222.359862 38.550963 
Q 223.047248 37.38055 223.047248 35.82 
Q 223.047248 35.299817 222.954358 34.909679 
Q 222.861468 34.519541 222.619954 34.296606 
Q 222.37844 34.07367 222.211239 33.943624 
Q 222.044037 33.813578 221.598165 33.757844 
Q 221.152294 33.70211 220.947936 33.683532 
Q 220.743578 33.664954 220.167661 33.683532 
Q 219.591743 33.70211 219.368807 33.70211 
Q 217.325229 33.70211 215.838991 35.578486 
Q 214.352752 37.454862 214.352752 39.609908 
Q 214.352752 42.619541 216.284862 44.570229 
Q 218.216972 46.520917 221.263761 46.520917 
Q 223.418807 46.818165 224.942202 44.29156 
" clip-path="url(#pb7397780df)" style="fill: none; stroke: #000000; stroke-linejoin: miter"/>
   </g>
  </g>
  <g id="axes_15">
   <g id="patch_14">
    <path d="M 234.825021 26.147669 
Q 234.787531 26.597545 234.825021 27.384828 
Q 234.86251 27.572276 234.806276 27.965917 
Q 234.750041 28.359559 234.787531 28.678221 
Q 234.825021 28.996883 235.049959 29.184331 
" clip-path="url(#p6ace29b1ce)" style="fill: none; stroke: #000000; stroke-linejoin: miter"/>
   </g>
  </g>
  <g id="axes_16">
   <g id="patch_15">
    <path d="M 246.657476 43.917766 
Q 246.957393 44.180193 247.969614 45.154924 
Q 248.981834 46.129655 249.544179 46.560786 
Q 250.106524 46.991917 251.13749 47.385559 
Q 252.168455 47.7792 253.180676 47.629241 
Q 253.85549 47.629241 254.32411 47.404303 
Q 254.792731 47.179366 255.017669 46.879448 
Q 255.242607 46.579531 255.373821 45.979697 
Q 255.505034 45.379862 255.523779 44.967476 
Q 255.542524 44.55509 255.542524 43.805297 
Q 255.542524 42.718097 254.642772 42.043283 
Q 253.743021 41.368469 252.449628 41.031062 
Q 251.156234 40.693655 249.862841 40.300014 
Q 248.569448 39.906372 247.669697 38.987876 
Q 246.769945 38.069379 246.769945 36.607283 
Q 246.769945 36.082428 246.938648 35.726276 
Q 247.107352 35.370124 247.500993 35.145186 
Q 247.894634 34.920248 248.175807 34.807779 
Q 248.456979 34.69531 249.113048 34.639076 
Q 249.769117 34.582841 249.956566 34.582841 
Q 250.144014 34.582841 250.818828 34.582841 
Q 252.018497 34.582841 252.599586 34.995228 
Q 253.180676 35.407614 253.499338 36.026193 
Q 253.818 36.644772 254.080428 36.832221 
" clip-path="url(#p714e47e090)" style="fill: none; stroke: #000000; stroke-linejoin: miter"/>
   </g>
  </g>
  <g id="axes_17"/>
  <g id="axes_18">
   <g id="patch_16">
    <path d="M 289.043923 36.441748 
Q 287.834968 35.094627 283.862687 35.094627 
Q 282.342857 35.094627 281.565672 35.146439 
Q 280.788486 35.198252 279.78678 35.440043 
Q 278.785075 35.681834 278.301493 36.182687 
Q 277.81791 36.683539 277.472495 37.616162 
Q 277.127079 38.548785 277.127079 39.964989 
Q 277.127079 42.037484 278.543284 43.280981 
Q 279.959488 44.524478 281.893817 44.524478 
Q 284.553518 44.524478 287.316844 38.721493 
Q 288.663966 35.854542 288.663966 35.82 
Q 289.009382 35.578209 289.043923 36.441748 
Q 289.043923 37.512537 289.458422 40.362217 
Q 289.872921 43.211898 289.872921 44.524478 
" clip-path="url(#p74afa6cc49)" style="fill: none; stroke: #000000; stroke-linejoin: miter"/>
   </g>
  </g>
  <g id="axes_19">
   <g id="patch_17">
    <path d="M 295.257476 43.917766 
Q 295.557393 44.180193 296.569614 45.154924 
Q 297.581834 46.129655 298.144179 46.560786 
Q 298.706524 46.991917 299.73749 47.385559 
Q 300.768455 47.7792 301.780676 47.629241 
Q 302.45549 47.629241 302.92411 47.404303 
Q 303.392731 47.179366 303.617669 46.879448 
Q 303.842607 46.579531 303.973821 45.979697 
Q 304.105034 45.379862 304.123779 44.967476 
Q 304.142524 44.55509 304.142524 43.805297 
Q 304.142524 42.718097 303.242772 42.043283 
Q 302.343021 41.368469 301.049628 41.031062 
Q 299.756234 40.693655 298.462841 40.300014 
Q 297.169448 39.906372 296.269697 38.987876 
Q 295.369945 38.069379 295.369945 36.607283 
Q 295.369945 36.082428 295.538648 35.726276 
Q 295.707352 35.370124 296.100993 35.145186 
Q 296.494634 34.920248 296.775807 34.807779 
Q 297.056979 34.69531 297.713048 34.639076 
Q 298.369117 34.582841 298.556566 34.582841 
Q 298.744014 34.582841 299.418828 34.582841 
Q 300.618497 34.582841 301.199586 34.995228 
Q 301.780676 35.407614 302.099338 36.026193 
Q 302.418 36.644772 302.680428 36.832221 
" clip-path="url(#p771ae71ecb)" style="fill: none; stroke: #000000; stroke-linejoin: miter"/>
   </g>
  </g>
  <g id="axes_20"/>
  <g id="axes_21">
   <g id="patch_18">
    <path d="M 325.716102 36.437797 
L 326.951695 44.778051 
Q 327.054661 45.567458 327.054661 45.60178 
Q 327.054661 45.704746 327.363559 45.704746 
Q 328.22161 45.704746 328.942373 44.778051 
Q 329.663136 43.851356 330.075 42.718729 
Q 330.486864 41.586102 331.001695 40.659407 
Q 331.516525 39.732712 331.997034 39.732712 
Q 332.614831 39.732712 333.249788 40.607924 
Q 333.884746 41.483136 334.348093 42.512797 
Q 334.811441 43.542458 335.48072 44.417669 
Q 336.15 45.292881 336.836441 45.292881 
Q 337.111017 43.782712 337.540042 39.69839 
Q 337.969068 35.614068 338.483898 33.554746 
" clip-path="url(#pef26a55589)" style="fill: none; stroke: #000000; stroke-linejoin: miter"/>
   </g>
  </g>
  <g id="axes_22">
   <g id="patch_19">
    <path d="M 348.918579 29.071862 
Q 348.543683 29.146841 348.412469 29.577972 
Q 348.281255 30.009103 348.356234 30.42149 
Q 348.356234 30.571448 348.393724 30.702662 
Q 348.431214 30.833876 348.487448 30.89011 
Q 348.543683 30.946345 348.599917 31.040069 
Q 348.656152 31.133793 348.693641 31.208772 
L 348.80611 29.859145 
M 348.80611 34.020497 
Q 347.906359 39.006621 347.681421 42.793076 
L 348.131297 45.379862 
L 348.468703 46.054676 
" clip-path="url(#p56c9fbe39d)" style="fill: none; stroke: #000000; stroke-linejoin: miter"/>
   </g>
  </g>
  <g id="axes_23">
   <g id="patch_20">
    <path d="M 360.038731 37.282097 
L 360.038731 37.844441 
Q 360.301159 39.868883 360.338648 41.312234 
Q 360.376138 42.755586 360.282414 44.667559 
Q 360.18869 46.579531 360.18869 48.191586 
L 360.263669 39.643945 
Q 360.263669 38.144359 361.856979 37.507034 
Q 363.45029 36.86971 364.874897 37.282097 
Q 366.786869 37.844441 367.705366 39.04411 
Q 368.623862 40.243779 368.680097 41.668386 
Q 368.736331 43.092993 368.773821 44.817517 
Q 368.81131 46.542041 368.961269 48.191586 
" clip-path="url(#p293ffc3f40)" style="fill: none; stroke: #000000; stroke-linejoin: miter"/>
   </g>
  </g>
  <g id="axes_24">
   <g id="patch_21">
    <path d="M 384.299007 39.568966 
Q 382.949379 38.181848 380.7 38.444276 
Q 377.850786 38.444276 376.688607 39.793903 
Q 375.526428 41.143531 375.526428 44.067724 
Q 375.526428 45.56731 376.819821 46.279614 
Q 378.113214 46.991917 379.687779 46.991917 
Q 380.999917 46.991917 382.012138 45.736014 
Q 383.024359 44.48011 383.605448 42.30571 
Q 384.186538 40.13131 384.561434 37.938166 
Q 384.936331 35.745021 385.08629 33.045766 
Q 385.236248 30.34651 385.273738 28.978138 
Q 385.311228 27.609766 385.311228 26.185159 
Q 385.08629 26.260138 385.08629 29.896634 
L 385.08629 44.292662 
L 385.873572 48.229076 
" clip-path="url(#pf262bf66d5)" style="fill: none; stroke: #000000; stroke-linejoin: miter"/>
   </g>
  </g>
  <g id="axes_25">
   <g id="patch_22">
    <path d="M 391.763917 36.382345 
Q 391.726428 36.494814 391.857641 36.701007 
Q 391.988855 36.9072 391.876386 37.057159 
L 391.876386 39.306538 
Q 391.876386 40.506207 392.213793 41.724621 
Q 392.5512 42.943034 393.413462 43.93651 
Q 394.275724 44.929986 395.475393 44.929986 
Q 396.712552 44.929986 397.387366 43.861531 
Q 398.062179 42.793076 398.512055 41.143531 
Q 398.961931 39.493986 399.299338 38.969131 
L 400.086621 36.382345 
L 399.861683 42.680607 
L 399.861683 45.154924 
Q 399.861683 47.066897 400.592731 51.00331 
Q 401.323779 54.939724 401.323779 56.964166 
Q 402.073572 59.213545 400.986372 60.188276 
Q 399.899172 61.163007 397.837241 60.78811 
Q 396.037738 60.488193 395.119241 60.169531 
Q 394.200745 59.850869 392.213793 58.988607 
L 392.101324 58.426262 
" clip-path="url(#p45d7e74a37)" style="fill: none; stroke: #000000; stroke-linejoin: miter"/>
   </g>
  </g>
  <g id="axes_26"/>
  <g id="axes_27">
   <g id="patch_23">
    <path d="M 434.843923 36.441748 
Q 433.634968 35.094627 429.662687 35.094627 
Q 428.142857 35.094627 427.365672 35.146439 
Q 426.588486 35.198252 425.58678 35.440043 
Q 424.585075 35.681834 424.101493 36.182687 
Q 423.61791 36.683539 423.272495 37.616162 
Q 422.927079 38.548785 422.927079 39.964989 
Q 422.927079 42.037484 424.343284 43.280981 
Q 425.759488 44.524478 427.693817 44.524478 
Q 430.353518 44.524478 433.116844 38.721493 
Q 434.463966 35.854542 434.463966 35.82 
Q 434.809382 35.578209 434.843923 36.441748 
Q 434.843923 37.512537 435.258422 40.362217 
Q 435.672921 43.211898 435.672921 44.524478 
" clip-path="url(#pbc2813729c)" style="fill: none; stroke: #000000; stroke-linejoin: miter"/>
   </g>
  </g>
  <g id="axes_28">
   <g id="patch_24">
    <path d="M 441.057476 43.917766 
Q 441.357393 44.180193 442.369614 45.154924 
Q 443.381834 46.129655 443.944179 46.560786 
Q 444.506524 46.991917 445.53749 47.385559 
Q 446.568455 47.7792 447.580676 47.629241 
Q 448.25549 47.629241 448.72411 47.404303 
Q 449.192731 47.179366 449.417669 46.879448 
Q 449.642607 46.579531 449.773821 45.979697 
Q 449.905034 45.379862 449.923779 44.967476 
Q 449.942524 44.55509 449.942524 43.805297 
Q 449.942524 42.718097 449.042772 42.043283 
Q 448.143021 41.368469 446.849628 41.031062 
Q 445.556234 40.693655 444.262841 40.300014 
Q 442.969448 39.906372 442.069697 38.987876 
Q 441.169945 38.069379 441.169945 36.607283 
Q 441.169945 36.082428 441.338648 35.726276 
Q 441.507352 35.370124 441.900993 35.145186 
Q 442.294634 34.920248 442.575807 34.807779 
Q 442.856979 34.69531 443.513048 34.639076 
Q 444.169117 34.582841 444.356566 34.582841 
Q 444.544014 34.582841 445.218828 34.582841 
Q 446.418497 34.582841 446.999586 34.995228 
Q 447.580676 35.407614 447.899338 36.026193 
Q 448.218 36.644772 448.480428 36.832221 
" clip-path="url(#pc54e3d9878)" style="fill: none; stroke: #000000; stroke-linejoin: miter"/>
   </g>
  </g>
  <g id="axes_29"/>
  <g id="axes_30">
   <g id="patch_25">
    <path d="M 483.443923 36.441748 
Q 482.234968 35.094627 478.262687 35.094627 
Q 476.742857 35.094627 475.965672 35.146439 
Q 475.188486 35.198252 474.18678 35.440043 
Q 473.185075 35.681834 472.701493 36.182687 
Q 472.21791 36.683539 471.872495 37.616162 
Q 471.527079 38.548785 471.527079 39.964989 
Q 471.527079 42.037484 472.943284 43.280981 
Q 474.359488 44.524478 476.293817 44.524478 
Q 478.953518 44.524478 481.716844 38.721493 
Q 483.063966 35.854542 483.063966 35.82 
Q 483.409382 35.578209 483.443923 36.441748 
Q 483.443923 37.512537 483.858422 40.362217 
Q 484.272921 43.211898 484.272921 44.524478 
" clip-path="url(#p235ee4c3aa)" style="fill: none; stroke: #000000; stroke-linejoin: miter"/>
   </g>
  </g>
  <g id="axes_31"/>
  <g id="axes_32">
   <g id="patch_26">
    <path d="M 505.520069 39.868883 
L 505.520069 39.419007 
Q 505.520069 37.769462 507.263338 36.682262 
Q 509.006607 35.595062 510.693641 35.595062 
Q 512.905531 35.595062 514.273903 36.794731 
Q 515.642276 37.9944 515.642276 40.20629 
Q 515.642276 42.30571 513.824028 43.336676 
Q 512.005779 44.367641 509.79389 44.367641 
Q 509.119076 44.367641 508.612966 44.255172 
Q 508.106855 44.142703 507.488276 43.917766 
Q 506.869697 43.692828 506.419821 43.580359 
L 505.295131 42.568138 
M 504.957724 36.832221 
Q 505.4076 38.444276 505.670028 40.262524 
Q 505.932455 42.080772 505.98869 43.749062 
Q 506.044924 45.417352 506.082414 47.27309 
Q 506.119903 49.128828 506.082414 50.778372 
L 505.969945 57.863917 
" clip-path="url(#p22c2ecce06)" style="fill: none; stroke: #000000; stroke-linejoin: miter"/>
   </g>
  </g>
  <g id="axes_33">
   <g id="patch_27">
    <path d="M 529.7616 35.032717 
Q 528.71189 34.582841 527.737159 34.69531 
Q 524.700497 35.032717 522.788524 36.701007 
Q 520.876552 38.369297 520.876552 41.330979 
Q 520.876552 43.917766 522.882248 45.6048 
Q 524.887945 47.291834 527.512221 47.291834 
Q 529.874069 47.291834 530.998759 45.361117 
Q 532.123448 43.4304 532.123448 40.881103 
Q 532.123448 39.643945 531.711062 38.706703 
Q 531.298676 37.769462 530.773821 37.300841 
Q 530.248966 36.832221 529.499172 36.119917 
Q 528.749379 35.407614 528.299503 34.69531 
L 527.062345 34.245434 
" clip-path="url(#pc5ebf0415a)" style="fill: none; stroke: #000000; stroke-linejoin: miter"/>
   </g>
  </g>
  <g id="axes_34">
   <g id="patch_28">
    <path d="M 547.956735 34.365306 
Q 547.956735 34.365306 547.460816 34.365306 
Q 546.667347 34.365306 545.179592 34.067755 
Q 543.691837 33.770204 542.898367 33.770204 
Q 540.121224 33.770204 538.187143 35.224898 
Q 536.253061 36.679592 536.253061 39.423673 
Q 536.253061 40.94449 537.740816 42.399184 
Q 539.228571 43.853878 541.162653 44.663878 
Q 543.096735 45.473878 544.58449 45.473878 
Q 545.510204 45.473878 546.20449 45.110204 
Q 546.898776 44.746531 547.642653 44.118367 
Q 548.386531 43.490204 548.948571 43.192653 
L 549.146939 42.696735 
" clip-path="url(#pedd483ee7b)" style="fill: none; stroke: #000000; stroke-linejoin: miter"/>
   </g>
  </g>
  <g id="axes_35">
   <g id="patch_29">
    <path d="M 556.931793 37.169628 
Q 558.956234 39.194069 560.718248 41.76211 
Q 562.480262 44.330152 563.342524 46.72949 
M 559.968455 31.321241 
L 559.968455 31.546179 
Q 559.968455 32.333462 559.331131 33.514386 
Q 558.693807 34.69531 557.719076 36.101172 
Q 556.744345 37.507034 556.481917 37.95691 
L 555.244759 39.643945 
M 554.457476 26.710014 
Q 556.294469 36.269876 556.481917 48.641462 
" clip-path="url(#p1ef9c37dbc)" style="fill: none; stroke: #000000; stroke-linejoin: miter"/>
   </g>
  </g>
  <g id="axes_36">
   <g id="patch_30">
    <path d="M 568.857798 38.160826 
Q 571.830275 39.535596 576.549083 39.721376 
Q 578.072477 39.721376 578.759862 38.550963 
Q 579.447248 37.38055 579.447248 35.82 
Q 579.447248 35.299817 579.354358 34.909679 
Q 579.261468 34.519541 579.019954 34.296606 
Q 578.77844 34.07367 578.611239 33.943624 
Q 578.444037 33.813578 577.998165 33.757844 
Q 577.552294 33.70211 577.347936 33.683532 
Q 577.143578 33.664954 576.567661 33.683532 
Q 575.991743 33.70211 575.768807 33.70211 
Q 573.725229 33.70211 572.238991 35.578486 
Q 570.752752 37.454862 570.752752 39.609908 
Q 570.752752 42.619541 572.684862 44.570229 
Q 574.616972 46.520917 577.663761 46.520917 
Q 579.818807 46.818165 581.342202 44.29156 
" clip-path="url(#pff5636d783)" style="fill: none; stroke: #000000; stroke-linejoin: miter"/>
   </g>
  </g>
  <g id="axes_37">
   <g id="patch_31">
    <path d="M 586.463834 37.95691 
L 587.138648 37.95691 
Q 587.850952 37.95691 588.638234 37.881931 
Q 589.425517 37.806952 590.381503 37.675738 
Q 591.33749 37.544524 591.862345 37.507034 
L 596.136166 35.82 
M 592.087283 30.42149 
L 592.087283 31.43371 
Q 592.087283 33.383172 591.412469 37.207117 
Q 590.737655 41.031062 590.737655 43.018014 
Q 590.737655 43.805297 590.737655 44.105214 
Q 590.737655 44.405131 590.831379 45.042455 
Q 590.925103 45.679779 591.112552 45.960952 
Q 591.3 46.242124 591.693641 46.485807 
Q 592.087283 46.72949 592.649628 46.72949 
Q 592.762097 46.692 593.080759 46.72949 
Q 593.399421 46.766979 593.586869 46.710745 
Q 593.774317 46.65451 593.774317 46.392083 
" clip-path="url(#p4ac20fef2b)" style="fill: none; stroke: #000000; stroke-linejoin: miter"/>
   </g>
  </g>
  <g id="axes_38">
   <g id="patch_32">
    <path d="M 601.116102 36.437797 
L 602.351695 44.778051 
Q 602.454661 45.567458 602.454661 45.60178 
Q 602.454661 45.704746 602.763559 45.704746 
Q 603.62161 45.704746 604.342373 44.778051 
Q 605.063136 43.851356 605.475 42.718729 
Q 605.886864 41.586102 606.401695 40.659407 
Q 606.916525 39.732712 607.397034 39.732712 
Q 608.014831 39.732712 608.649788 40.607924 
Q 609.284746 41.483136 609.748093 42.512797 
Q 610.211441 43.542458 610.88072 44.417669 
Q 611.55 45.292881 612.236441 45.292881 
Q 612.511017 43.782712 612.940042 39.69839 
Q 613.369068 35.614068 613.883898 33.554746 
" clip-path="url(#pec04a215ec)" style="fill: none; stroke: #000000; stroke-linejoin: miter"/>
   </g>
  </g>
  <g id="axes_39">
   <g id="patch_33">
    <path d="M 629.243923 36.441748 
Q 628.034968 35.094627 624.062687 35.094627 
Q 622.542857 35.094627 621.765672 35.146439 
Q 620.988486 35.198252 619.98678 35.440043 
Q 618.985075 35.681834 618.501493 36.182687 
Q 618.01791 36.683539 617.672495 37.616162 
Q 617.327079 38.548785 617.327079 39.964989 
Q 617.327079 42.037484 618.743284 43.280981 
Q 620.159488 44.524478 622.093817 44.524478 
Q 624.753518 44.524478 627.516844 38.721493 
Q 628.863966 35.854542 628.863966 35.82 
Q 629.209382 35.578209 629.243923 36.441748 
Q 629.243923 37.512537 629.658422 40.362217 
Q 630.072921 43.211898 630.072921 44.524478 
" clip-path="url(#pf44109d806)" style="fill: none; stroke: #000000; stroke-linejoin: miter"/>
   </g>
  </g>
  <g id="axes_40">
   <g id="patch_34">
    <path d="M 635.063834 37.95691 
L 635.738648 37.95691 
Q 636.450952 37.95691 637.238234 37.881931 
Q 638.025517 37.806952 638.981503 37.675738 
Q 639.93749 37.544524 640.462345 37.507034 
L 644.736166 35.82 
M 640.687283 30.42149 
L 640.687283 31.43371 
Q 640.687283 33.383172 640.012469 37.207117 
Q 639.337655 41.031062 639.337655 43.018014 
Q 639.337655 43.805297 639.337655 44.105214 
Q 639.337655 44.405131 639.431379 45.042455 
Q 639.525103 45.679779 639.712552 45.960952 
Q 639.9 46.242124 640.293641 46.485807 
Q 640.687283 46.72949 641.249628 46.72949 
Q 641.362097 46.692 641.680759 46.72949 
Q 641.999421 46.766979 642.186869 46.710745 
Q 642.374317 46.65451 642.374317 46.392083 
" clip-path="url(#p47569704ba)" style="fill: none; stroke: #000000; stroke-linejoin: miter"/>
   </g>
  </g>
  <g id="axes_41">
   <g id="patch_35">
    <path d="M 661.356735 34.365306 
Q 661.356735 34.365306 660.860816 34.365306 
Q 660.067347 34.365306 658.579592 34.067755 
Q 657.091837 33.770204 656.298367 33.770204 
Q 653.521224 33.770204 651.587143 35.224898 
Q 649.653061 36.679592 649.653061 39.423673 
Q 649.653061 40.94449 651.140816 42.399184 
Q 652.628571 43.853878 654.562653 44.663878 
Q 656.496735 45.473878 657.98449 45.473878 
Q 658.910204 45.473878 659.60449 45.110204 
Q 660.298776 44.746531 661.042653 44.118367 
Q 661.786531 43.490204 662.348571 43.192653 
L 662.546939 42.696735 
" clip-path="url(#ped5d123469)" style="fill: none; stroke: #000000; stroke-linejoin: miter"/>
   </g>
  </g>
  <g id="axes_42">
   <g id="patch_36">
    <path d="M 668.813462 35.932469 
Q 669.413297 35.257655 670.406772 34.826524 
Q 671.400248 34.395393 672.3 34.470372 
Q 672.937324 34.470372 673.42469 34.639076 
Q 673.912055 34.807779 674.230717 34.995228 
Q 674.549379 35.182676 674.774317 35.670041 
Q 674.999255 36.157407 675.111724 36.419834 
Q 675.224193 36.682262 675.280428 37.375821 
Q 675.336662 38.069379 675.355407 38.331807 
Q 675.374152 38.594234 675.355407 39.419007 
Q 675.336662 40.243779 675.336662 40.431228 
Q 675.336662 41.368469 675.167959 43.242952 
Q 674.999255 45.117434 674.999255 46.054676 
Q 674.999255 46.467062 675.05549 46.823214 
Q 675.111724 47.179366 675.205448 47.610497 
Q 675.299172 48.041628 675.336662 48.304055 
L 675.786538 48.528993 
M 669.263338 23.111007 
Q 669.488276 24.798041 669.488276 29.971614 
L 669.488276 42.3432 
L 669.150869 46.841959 
L 668.925931 47.74171 
" clip-path="url(#p00b585e163)" style="fill: none; stroke: #000000; stroke-linejoin: miter"/>
   </g>
  </g>
  <g id="axes_43">
   <g id="patch_37">
    <path d="M 687.787697 39.981352 
Q 688.799917 40.956083 689.137324 42.905545 
Q 689.324772 43.955255 688.912386 46.167145 
L 687.675228 47.629241 
" clip-path="url(#p0bbc005c5e)" style="fill: none; stroke: #000000; stroke-linejoin: miter"/>
   </g>
  </g>
  <g id="axes_44"/>
  <g id="axes_45">
   <g id="patch_38">
    <path d="M 716.063834 37.95691 
L 716.738648 37.95691 
Q 717.450952 37.95691 718.238234 37.881931 
Q 719.025517 37.806952 719.981503 37.675738 
Q 720.93749 37.544524 721.462345 37.507034 
L 725.736166 35.82 
M 721.687283 30.42149 
L 721.687283 31.43371 
Q 721.687283 33.383172 721.012469 37.207117 
Q 720.337655 41.031062 720.337655 43.018014 
Q 720.337655 43.805297 720.337655 44.105214 
Q 720.337655 44.405131 720.431379 45.042455 
Q 720.525103 45.679779 720.712552 45.960952 
Q 720.9 46.242124 721.293641 46.485807 
Q 721.687283 46.72949 722.249628 46.72949 
Q 722.362097 46.692 722.680759 46.72949 
Q 722.999421 46.766979 723.186869 46.710745 
Q 723.374317 46.65451 723.374317 46.392083 
" clip-path="url(#pcc266b82cb)" style="fill: none; stroke: #000000; stroke-linejoin: miter"/>
   </g>
  </g>
  <g id="axes_46">
   <g id="patch_39">
    <path d="M 733.613462 35.932469 
Q 734.213297 35.257655 735.206772 34.826524 
Q 736.200248 34.395393 737.1 34.470372 
Q 737.737324 34.470372 738.22469 34.639076 
Q 738.712055 34.807779 739.030717 34.995228 
Q 739.349379 35.182676 739.574317 35.670041 
Q 739.799255 36.157407 739.911724 36.419834 
Q 740.024193 36.682262 740.080428 37.375821 
Q 740.136662 38.069379 740.155407 38.331807 
Q 740.174152 38.594234 740.155407 39.419007 
Q 740.136662 40.243779 740.136662 40.431228 
Q 740.136662 41.368469 739.967959 43.242952 
Q 739.799255 45.117434 739.799255 46.054676 
Q 739.799255 46.467062 739.85549 46.823214 
Q 739.911724 47.179366 740.005448 47.610497 
Q 740.099172 48.041628 740.136662 48.304055 
L 740.586538 48.528993 
M 734.063338 23.111007 
Q 734.288276 24.798041 734.288276 29.971614 
L 734.288276 42.3432 
L 733.950869 46.841959 
L 733.725931 47.74171 
" clip-path="url(#pdb208f6f13)" style="fill: none; stroke: #000000; stroke-linejoin: miter"/>
   </g>
  </g>
  <g id="axes_47">
   <g id="patch_40">
    <path d="M 758.843923 36.441748 
Q 757.634968 35.094627 753.662687 35.094627 
Q 752.142857 35.094627 751.365672 35.146439 
Q 750.588486 35.198252 749.58678 35.440043 
Q 748.585075 35.681834 748.101493 36.182687 
Q 747.61791 36.683539 747.272495 37.616162 
Q 746.927079 38.548785 746.927079 39.964989 
Q 746.927079 42.037484 748.343284 43.280981 
Q 749.759488 44.524478 751.693817 44.524478 
Q 754.353518 44.524478 757.116844 38.721493 
Q 758.463966 35.854542 758.463966 35.82 
Q 758.809382 35.578209 758.843923 36.441748 
Q 758.843923 37.512537 759.258422 40.362217 
Q 759.672921 43.211898 759.672921 44.524478 
" clip-path="url(#p3304c5e1a4)" style="fill: none; stroke: #000000; stroke-linejoin: miter"/>
   </g>
  </g>
  <g id="axes_48">
   <g id="patch_41">
    <path d="M 764.663834 37.95691 
L 765.338648 37.95691 
Q 766.050952 37.95691 766.838234 37.881931 
Q 767.625517 37.806952 768.581503 37.675738 
Q 769.53749 37.544524 770.062345 37.507034 
L 774.336166 35.82 
M 770.287283 30.42149 
L 770.287283 31.43371 
Q 770.287283 33.383172 769.612469 37.207117 
Q 768.937655 41.031062 768.937655 43.018014 
Q 768.937655 43.805297 768.937655 44.105214 
Q 768.937655 44.405131 769.031379 45.042455 
Q 769.125103 45.679779 769.312552 45.960952 
Q 769.5 46.242124 769.893641 46.485807 
Q 770.287283 46.72949 770.849628 46.72949 
Q 770.962097 46.692 771.280759 46.72949 
Q 771.599421 46.766979 771.786869 46.710745 
Q 771.974317 46.65451 771.974317 46.392083 
" clip-path="url(#p48ef38f147)" style="fill: none; stroke: #000000; stroke-linejoin: miter"/>
   </g>
  </g>
 </g>
 <defs>
  <clipPath id="p3e8cd13ea3">
   <rect x="1.389352" y="8.64" width="13.421297" height="54.36"/>
  </clipPath>
  <clipPath id="pb195c70562">
   <rect x="18.938979" y="8.64" width="10.722041" height="54.36"/>
  </clipPath>
  <clipPath id="p1b6eb3376e">
   <rect x="32.4" y="8.881927" width="16.2" height="53.876147"/>
  </clipPath>
  <clipPath id="pd38c86e037">
   <rect x="65.683241" y="8.64" width="14.433517" height="54.36"/>
  </clipPath>
  <clipPath id="pc6f5c1265c">
   <rect x="82.389352" y="8.64" width="13.421297" height="54.36"/>
  </clipPath>
  <clipPath id="p4e699ffedb">
   <rect x="97.2" y="9.603482" width="16.2" height="52.433036"/>
  </clipPath>
  <clipPath id="p323b733410">
   <rect x="114.283241" y="8.64" width="14.433517" height="54.36"/>
  </clipPath>
  <clipPath id="p7b582fb9e2">
   <rect x="135.000745" y="8.64" width="5.39851" height="54.36"/>
  </clipPath>
  <clipPath id="p46953951ec">
   <rect x="167.325766" y="8.64" width="5.548469" height="54.36"/>
  </clipPath>
  <clipPath id="pa9dc777796">
   <rect x="179.982993" y="8.64" width="12.634014" height="54.36"/>
  </clipPath>
  <clipPath id="p8252202ec8">
   <rect x="197.138979" y="8.64" width="10.722041" height="54.36"/>
  </clipPath>
  <clipPath id="pb7397780df">
   <rect x="210.6" y="8.881927" width="16.2" height="53.876147"/>
  </clipPath>
  <clipPath id="p6ace29b1ce">
   <rect x="232.875559" y="8.64" width="4.048883" height="54.36"/>
  </clipPath>
  <clipPath id="p714e47e090">
   <rect x="244.782993" y="8.64" width="12.634014" height="54.36"/>
  </clipPath>
  <clipPath id="p74afa6cc49">
   <rect x="275.4" y="10.777356" width="16.2" height="50.085288"/>
  </clipPath>
  <clipPath id="p771ae71ecb">
   <rect x="293.382993" y="8.64" width="12.634014" height="54.36"/>
  </clipPath>
  <clipPath id="pef26a55589">
   <rect x="324" y="10.936525" width="16.2" height="49.766949"/>
  </clipPath>
  <clipPath id="p56c9fbe39d">
   <rect x="345.806938" y="8.64" width="4.986124" height="54.36"/>
  </clipPath>
  <clipPath id="p293ffc3f40">
   <rect x="358.164248" y="8.64" width="12.671503" height="54.36"/>
  </clipPath>
  <clipPath id="pf262bf66d5">
   <rect x="373.651945" y="8.64" width="14.09611" height="54.36"/>
  </clipPath>
  <clipPath id="p45d7e74a37">
   <rect x="389.851945" y="8.64" width="14.09611" height="54.36"/>
  </clipPath>
  <clipPath id="pbc2813729c">
   <rect x="421.2" y="10.777356" width="16.2" height="50.085288"/>
  </clipPath>
  <clipPath id="pc54e3d9878">
   <rect x="439.182993" y="8.64" width="12.634014" height="54.36"/>
  </clipPath>
  <clipPath id="p235ee4c3aa">
   <rect x="469.8" y="10.777356" width="16.2" height="50.085288"/>
  </clipPath>
  <clipPath id="p22c2ecce06">
   <rect x="503.083241" y="8.64" width="14.433517" height="54.36"/>
  </clipPath>
  <clipPath id="pc5ebf0415a">
   <rect x="519.002069" y="8.64" width="14.995862" height="54.36"/>
  </clipPath>
  <clipPath id="pedd483ee7b">
   <rect x="534.6" y="11.850612" width="16.2" height="47.938776"/>
  </clipPath>
  <clipPath id="p1ef9c37dbc">
   <rect x="552.582993" y="8.64" width="12.634014" height="54.36"/>
  </clipPath>
  <clipPath id="pff5636d783">
   <rect x="567" y="8.881927" width="16.2" height="53.876147"/>
  </clipPath>
  <clipPath id="p4ac20fef2b">
   <rect x="584.589352" y="8.64" width="13.421297" height="54.36"/>
  </clipPath>
  <clipPath id="pec04a215ec">
   <rect x="599.4" y="10.936525" width="16.2" height="49.766949"/>
  </clipPath>
  <clipPath id="pf44109d806">
   <rect x="615.6" y="10.777356" width="16.2" height="50.085288"/>
  </clipPath>
  <clipPath id="p47569704ba">
   <rect x="633.189352" y="8.64" width="13.421297" height="54.36"/>
  </clipPath>
  <clipPath id="ped5d123469">
   <rect x="648" y="11.850612" width="16.2" height="47.938776"/>
  </clipPath>
  <clipPath id="p00b585e163">
   <rect x="666.938979" y="8.64" width="10.722041" height="54.36"/>
  </clipPath>
  <clipPath id="p0bbc005c5e">
   <rect x="685.800745" y="8.64" width="5.39851" height="54.36"/>
  </clipPath>
  <clipPath id="pcc266b82cb">
   <rect x="714.189352" y="8.64" width="13.421297" height="54.36"/>
  </clipPath>
  <clipPath id="pdb208f6f13">
   <rect x="731.738979" y="8.64" width="10.722041" height="54.36"/>
  </clipPath>
  <clipPath id="p3304c5e1a4">
   <rect x="745.2" y="10.777356" width="16.2" height="50.085288"/>
  </clipPath>
  <clipPath id="p48ef38f147">
   <rect x="762.789352" y="8.64" width="13.421297" height="54.36"/>
  </clipPath>
 </defs>
</svg>
