<?xml version="1.0" encoding="utf-8" standalone="no"?>
<!DOCTYPE svg PUBLIC "-//W3C//DTD SVG 1.1//EN"
  "http://www.w3.org/Graphics/SVG/1.1/DTD/svg11.dtd">
<svg xmlns:xlink="http://www.w3.org/1999/xlink" width="900pt" height="72pt" viewBox="0 0 900 72" xmlns="http://www.w3.org/2000/svg" version="1.1">
 <metadata>
  <rdf:RDF xmlns:dc="http://purl.org/dc/elements/1.1/" xmlns:cc="http://creativecommons.org/ns#" xmlns:rdf="http://www.w3.org/1999/02/22-rdf-syntax-ns#">
   <cc:Work>
    <dc:type rdf:resource="http://purl.org/dc/dcmitype/StillImage"/>
    <dc:date>2023-12-21T11:45:07.814314</dc:date>
    <dc:format>image/svg+xml</dc:format>
    <dc:creator>
     <cc:Agent>
      <dc:title>Matplotlib v3.5.1, https://matplotlib.org/</dc:title>
     </cc:Agent>
    </dc:creator>
   </cc:Work>
  </rdf:RDF>
 </metadata>
 <defs>
  <style type="text/css">*{stroke-linejoin: round; stroke-linecap: butt}</style>
 </defs>
 <g id="figure_1">
  <g id="patch_1">
   <path d="M 0 72 
L 900 72 
L 900 0 
L 0 0 
z
" style="fill: #8fff9f"/>
  </g>
  <g id="axes_1">
   <g id="patch_2">
    <path d="M 8.624855 27.009931 
Q 8.699834 27.347338 8.774814 28.265834 
Q 8.849793 29.184331 8.999752 29.634207 
L 8.924772 31.058814 
M 7.275228 27.309848 
Q 7.237738 27.309848 7.200248 27.534786 
Q 7.237738 27.684745 7.350207 28.828179 
Q 7.462676 29.971614 7.725103 30.533959 
" clip-path="url(#pbef228e632)" style="fill: none; stroke: #000000; stroke-linejoin: miter"/>
   </g>
  </g>
  <g id="axes_2">
   <g id="patch_3">
    <path d="M 17.714019 27.825981 
Q 19.500561 29.461121 21.135701 31.80785 
Q 22.770841 34.154579 23.845794 36.213645 
Q 24.920748 38.27271 26.389346 40.831402 
Q 27.857944 43.390093 29.16 45.085794 
Q 30.219813 34.729907 30.340935 33.36729 
L 30.885981 27.825981 
M 18.804112 29.097757 
L 18.804112 30.732897 
Q 18.804112 32.913084 18.728411 35.380935 
Q 18.65271 37.848785 18.531589 40.831402 
Q 18.410467 43.814019 18.349907 45.449159 
" clip-path="url(#pd844a00d7d)" style="fill: none; stroke: #000000; stroke-linejoin: miter"/>
   </g>
  </g>
  <g id="axes_3">
   <g id="patch_4">
    <path d="M 46.043923 36.441748 
Q 44.834968 35.094627 40.862687 35.094627 
Q 39.342857 35.094627 38.565672 35.146439 
Q 37.788486 35.198252 36.78678 35.440043 
Q 35.785075 35.681834 35.301493 36.182687 
Q 34.81791 36.683539 34.472495 37.616162 
Q 34.127079 38.548785 34.127079 39.964989 
Q 34.127079 42.037484 35.543284 43.280981 
Q 36.959488 44.524478 38.893817 44.524478 
Q 41.553518 44.524478 44.316844 38.721493 
Q 45.663966 35.854542 45.663966 35.82 
Q 46.009382 35.578209 46.043923 36.441748 
Q 46.043923 37.512537 46.458422 40.362217 
Q 46.872921 43.211898 46.872921 44.524478 
" clip-path="url(#p47273644da)" style="fill: none; stroke: #000000; stroke-linejoin: miter"/>
   </g>
  </g>
  <g id="axes_4">
   <g id="patch_5">
    <path d="M 53.213462 35.932469 
Q 53.813297 35.257655 54.806772 34.826524 
Q 55.800248 34.395393 56.7 34.470372 
Q 57.337324 34.470372 57.82469 34.639076 
Q 58.312055 34.807779 58.630717 34.995228 
Q 58.949379 35.182676 59.174317 35.670041 
Q 59.399255 36.157407 59.511724 36.419834 
Q 59.624193 36.682262 59.680428 37.375821 
Q 59.736662 38.069379 59.755407 38.331807 
Q 59.774152 38.594234 59.755407 39.419007 
Q 59.736662 40.243779 59.736662 40.431228 
Q 59.736662 41.368469 59.567959 43.242952 
Q 59.399255 45.117434 59.399255 46.054676 
Q 59.399255 46.467062 59.45549 46.823214 
Q 59.511724 47.179366 59.605448 47.610497 
Q 59.699172 48.041628 59.736662 48.304055 
L 60.186538 48.528993 
M 53.663338 23.111007 
Q 53.888276 24.798041 53.888276 29.971614 
L 53.888276 42.3432 
L 53.550869 46.841959 
L 53.325931 47.74171 
" clip-path="url(#p6dbb3795ba)" style="fill: none; stroke: #000000; stroke-linejoin: miter"/>
   </g>
  </g>
  <g id="axes_5">
   <g id="patch_6">
    <path d="M 72.187697 39.981352 
Q 73.199917 40.956083 73.537324 42.905545 
Q 73.724772 43.955255 73.312386 46.167145 
L 72.075228 47.629241 
" clip-path="url(#pb8d18c7536)" style="fill: none; stroke: #000000; stroke-linejoin: miter"/>
   </g>
  </g>
  <g id="axes_6"/>
  <g id="axes_7">
   <g id="patch_7">
    <path d="M 105.918579 29.071862 
Q 105.543683 29.146841 105.412469 29.577972 
Q 105.281255 30.009103 105.356234 30.42149 
Q 105.356234 30.571448 105.393724 30.702662 
Q 105.431214 30.833876 105.487448 30.89011 
Q 105.543683 30.946345 105.599917 31.040069 
Q 105.656152 31.133793 105.693641 31.208772 
L 105.80611 29.859145 
M 105.80611 34.020497 
Q 104.906359 39.006621 104.681421 42.793076 
L 105.131297 45.379862 
L 105.468703 46.054676 
" clip-path="url(#pb933744c5b)" style="fill: none; stroke: #000000; stroke-linejoin: miter"/>
   </g>
  </g>
  <g id="axes_8">
   <g id="patch_8">
    <path d="M 116.663834 37.95691 
L 117.338648 37.95691 
Q 118.050952 37.95691 118.838234 37.881931 
Q 119.625517 37.806952 120.581503 37.675738 
Q 121.53749 37.544524 122.062345 37.507034 
L 126.336166 35.82 
M 122.287283 30.42149 
L 122.287283 31.43371 
Q 122.287283 33.383172 121.612469 37.207117 
Q 120.937655 41.031062 120.937655 43.018014 
Q 120.937655 43.805297 120.937655 44.105214 
Q 120.937655 44.405131 121.031379 45.042455 
Q 121.125103 45.679779 121.312552 45.960952 
Q 121.5 46.242124 121.893641 46.485807 
Q 122.287283 46.72949 122.849628 46.72949 
Q 122.962097 46.692 123.280759 46.72949 
Q 123.599421 46.766979 123.786869 46.710745 
Q 123.974317 46.65451 123.974317 46.392083 
" clip-path="url(#p1d32829db9)" style="fill: none; stroke: #000000; stroke-linejoin: miter"/>
   </g>
  </g>
  <g id="axes_9"/>
  <g id="axes_10">
   <g id="patch_9">
    <path d="M 159.443923 36.441748 
Q 158.234968 35.094627 154.262687 35.094627 
Q 152.742857 35.094627 151.965672 35.146439 
Q 151.188486 35.198252 150.18678 35.440043 
Q 149.185075 35.681834 148.701493 36.182687 
Q 148.21791 36.683539 147.872495 37.616162 
Q 147.527079 38.548785 147.527079 39.964989 
Q 147.527079 42.037484 148.943284 43.280981 
Q 150.359488 44.524478 152.293817 44.524478 
Q 154.953518 44.524478 157.716844 38.721493 
Q 159.063966 35.854542 159.063966 35.82 
Q 159.409382 35.578209 159.443923 36.441748 
Q 159.443923 37.512537 159.858422 40.362217 
Q 160.272921 43.211898 160.272921 44.524478 
" clip-path="url(#p86d369fb79)" style="fill: none; stroke: #000000; stroke-linejoin: miter"/>
   </g>
  </g>
  <g id="axes_11">
   <g id="patch_10">
    <path d="M 170.718579 29.071862 
Q 170.343683 29.146841 170.212469 29.577972 
Q 170.081255 30.009103 170.156234 30.42149 
Q 170.156234 30.571448 170.193724 30.702662 
Q 170.231214 30.833876 170.287448 30.89011 
Q 170.343683 30.946345 170.399917 31.040069 
Q 170.456152 31.133793 170.493641 31.208772 
L 170.60611 29.859145 
M 170.60611 34.020497 
Q 169.706359 39.006621 169.481421 42.793076 
L 169.931297 45.379862 
L 170.268703 46.054676 
" clip-path="url(#pc33d5f4950)" style="fill: none; stroke: #000000; stroke-linejoin: miter"/>
   </g>
  </g>
  <g id="axes_12">
   <g id="patch_11">
    <path d="M 181.838731 37.282097 
L 181.838731 37.844441 
Q 182.101159 39.868883 182.138648 41.312234 
Q 182.176138 42.755586 182.082414 44.667559 
Q 181.98869 46.579531 181.98869 48.191586 
L 182.063669 39.643945 
Q 182.063669 38.144359 183.656979 37.507034 
Q 185.25029 36.86971 186.674897 37.282097 
Q 188.586869 37.844441 189.505366 39.04411 
Q 190.423862 40.243779 190.480097 41.668386 
Q 190.536331 43.092993 190.573821 44.817517 
Q 190.61131 46.542041 190.761269 48.191586 
" clip-path="url(#pa6c46dd7c8)" style="fill: none; stroke: #000000; stroke-linejoin: miter"/>
   </g>
  </g>
  <g id="axes_13">
   <g id="patch_12">
    <path d="M 202.425021 26.147669 
Q 202.387531 26.597545 202.425021 27.384828 
Q 202.46251 27.572276 202.406276 27.965917 
Q 202.350041 28.359559 202.387531 28.678221 
Q 202.425021 28.996883 202.649959 29.184331 
" clip-path="url(#p83539d0e56)" style="fill: none; stroke: #000000; stroke-linejoin: miter"/>
   </g>
  </g>
  <g id="axes_14">
   <g id="patch_13">
    <path d="M 213.863834 37.95691 
L 214.538648 37.95691 
Q 215.250952 37.95691 216.038234 37.881931 
Q 216.825517 37.806952 217.781503 37.675738 
Q 218.73749 37.544524 219.262345 37.507034 
L 223.536166 35.82 
M 219.487283 30.42149 
L 219.487283 31.43371 
Q 219.487283 33.383172 218.812469 37.207117 
Q 218.137655 41.031062 218.137655 43.018014 
Q 218.137655 43.805297 218.137655 44.105214 
Q 218.137655 44.405131 218.231379 45.042455 
Q 218.325103 45.679779 218.512552 45.960952 
Q 218.7 46.242124 219.093641 46.485807 
Q 219.487283 46.72949 220.049628 46.72949 
Q 220.162097 46.692 220.480759 46.72949 
Q 220.799421 46.766979 220.986869 46.710745 
Q 221.174317 46.65451 221.174317 46.392083 
" clip-path="url(#p62c62d897e)" style="fill: none; stroke: #000000; stroke-linejoin: miter"/>
   </g>
  </g>
  <g id="axes_15"/>
  <g id="axes_16">
   <g id="patch_14">
    <path d="M 246.263834 37.95691 
L 246.938648 37.95691 
Q 247.650952 37.95691 248.438234 37.881931 
Q 249.225517 37.806952 250.181503 37.675738 
Q 251.13749 37.544524 251.662345 37.507034 
L 255.936166 35.82 
M 251.887283 30.42149 
L 251.887283 31.43371 
Q 251.887283 33.383172 251.212469 37.207117 
Q 250.537655 41.031062 250.537655 43.018014 
Q 250.537655 43.805297 250.537655 44.105214 
Q 250.537655 44.405131 250.631379 45.042455 
Q 250.725103 45.679779 250.912552 45.960952 
Q 251.1 46.242124 251.493641 46.485807 
Q 251.887283 46.72949 252.449628 46.72949 
Q 252.562097 46.692 252.880759 46.72949 
Q 253.199421 46.766979 253.386869 46.710745 
Q 253.574317 46.65451 253.574317 46.392083 
" clip-path="url(#pfaef481cec)" style="fill: none; stroke: #000000; stroke-linejoin: miter"/>
   </g>
  </g>
  <g id="axes_17">
   <g id="patch_15">
    <path d="M 270.5616 35.032717 
Q 269.51189 34.582841 268.537159 34.69531 
Q 265.500497 35.032717 263.588524 36.701007 
Q 261.676552 38.369297 261.676552 41.330979 
Q 261.676552 43.917766 263.682248 45.6048 
Q 265.687945 47.291834 268.312221 47.291834 
Q 270.674069 47.291834 271.798759 45.361117 
Q 272.923448 43.4304 272.923448 40.881103 
Q 272.923448 39.643945 272.511062 38.706703 
Q 272.098676 37.769462 271.573821 37.300841 
Q 271.048966 36.832221 270.299172 36.119917 
Q 269.549379 35.407614 269.099503 34.69531 
L 267.862345 34.245434 
" clip-path="url(#p83588fca68)" style="fill: none; stroke: #000000; stroke-linejoin: miter"/>
   </g>
  </g>
  <g id="axes_18">
   <g id="patch_16">
    <path d="M 286.7616 35.032717 
Q 285.71189 34.582841 284.737159 34.69531 
Q 281.700497 35.032717 279.788524 36.701007 
Q 277.876552 38.369297 277.876552 41.330979 
Q 277.876552 43.917766 279.882248 45.6048 
Q 281.887945 47.291834 284.512221 47.291834 
Q 286.874069 47.291834 287.998759 45.361117 
Q 289.123448 43.4304 289.123448 40.881103 
Q 289.123448 39.643945 288.711062 38.706703 
Q 288.298676 37.769462 287.773821 37.300841 
Q 287.248966 36.832221 286.499172 36.119917 
Q 285.749379 35.407614 285.299503 34.69531 
L 284.062345 34.245434 
" clip-path="url(#p4a6d3c3e71)" style="fill: none; stroke: #000000; stroke-linejoin: miter"/>
   </g>
  </g>
  <g id="axes_19"/>
  <g id="axes_20">
   <g id="patch_17">
    <path d="M 312.357228 37.244607 
Q 313.406938 37.207117 313.594386 37.132138 
Q 317.005945 37.132138 318.786703 39.212814 
Q 320.567462 41.29349 320.567462 44.780028 
Q 320.567462 47.704221 315.956234 47.704221 
Q 315.31891 47.704221 314.77531 47.591752 
Q 314.23171 47.479283 313.594386 47.254345 
Q 312.957062 47.029407 312.469697 46.916938 
L 311.232538 45.679779 
M 312.244759 25.435366 
L 312.244759 26.560055 
Q 312.244759 29.409269 312.357228 33.008276 
Q 312.469697 36.607283 312.657145 40.899848 
Q 312.844593 45.192414 312.919572 47.141876 
" clip-path="url(#pa6f389c7a0)" style="fill: none; stroke: #000000; stroke-linejoin: miter"/>
   </g>
  </g>
  <g id="axes_21">
   <g id="patch_18">
    <path d="M 337.643923 36.441748 
Q 336.434968 35.094627 332.462687 35.094627 
Q 330.942857 35.094627 330.165672 35.146439 
Q 329.388486 35.198252 328.38678 35.440043 
Q 327.385075 35.681834 326.901493 36.182687 
Q 326.41791 36.683539 326.072495 37.616162 
Q 325.727079 38.548785 325.727079 39.964989 
Q 325.727079 42.037484 327.143284 43.280981 
Q 328.559488 44.524478 330.493817 44.524478 
Q 333.153518 44.524478 335.916844 38.721493 
Q 337.263966 35.854542 337.263966 35.82 
Q 337.609382 35.578209 337.643923 36.441748 
Q 337.643923 37.512537 338.058422 40.362217 
Q 338.472921 43.211898 338.472921 44.524478 
" clip-path="url(#p50e955f8c9)" style="fill: none; stroke: #000000; stroke-linejoin: miter"/>
   </g>
  </g>
  <g id="axes_22">
   <g id="patch_19">
    <path d="M 351.899007 39.568966 
Q 350.549379 38.181848 348.3 38.444276 
Q 345.450786 38.444276 344.288607 39.793903 
Q 343.126428 41.143531 343.126428 44.067724 
Q 343.126428 45.56731 344.419821 46.279614 
Q 345.713214 46.991917 347.287779 46.991917 
Q 348.599917 46.991917 349.612138 45.736014 
Q 350.624359 44.48011 351.205448 42.30571 
Q 351.786538 40.13131 352.161434 37.938166 
Q 352.536331 35.745021 352.68629 33.045766 
Q 352.836248 30.34651 352.873738 28.978138 
Q 352.911228 27.609766 352.911228 26.185159 
Q 352.68629 26.260138 352.68629 29.896634 
L 352.68629 44.292662 
L 353.473572 48.229076 
" clip-path="url(#p079340d660)" style="fill: none; stroke: #000000; stroke-linejoin: miter"/>
   </g>
  </g>
  <g id="axes_23">
   <g id="patch_20">
    <path d="M 363.787697 39.981352 
Q 364.799917 40.956083 365.137324 42.905545 
Q 365.324772 43.955255 364.912386 46.167145 
L 363.675228 47.629241 
" clip-path="url(#p2ed70af240)" style="fill: none; stroke: #000000; stroke-linejoin: miter"/>
   </g>
  </g>
  <g id="axes_24"/>
  <g id="axes_25">
   <g id="patch_21">
    <path d="M 397.518579 29.071862 
Q 397.143683 29.146841 397.012469 29.577972 
Q 396.881255 30.009103 396.956234 30.42149 
Q 396.956234 30.571448 396.993724 30.702662 
Q 397.031214 30.833876 397.087448 30.89011 
Q 397.143683 30.946345 397.199917 31.040069 
Q 397.256152 31.133793 397.293641 31.208772 
L 397.40611 29.859145 
M 397.40611 34.020497 
Q 396.506359 39.006621 396.281421 42.793076 
L 396.731297 45.379862 
L 397.068703 46.054676 
" clip-path="url(#pde641e2746)" style="fill: none; stroke: #000000; stroke-linejoin: miter"/>
   </g>
  </g>
  <g id="axes_26">
   <g id="patch_22">
    <path d="M 408.263834 37.95691 
L 408.938648 37.95691 
Q 409.650952 37.95691 410.438234 37.881931 
Q 411.225517 37.806952 412.181503 37.675738 
Q 413.13749 37.544524 413.662345 37.507034 
L 417.936166 35.82 
M 413.887283 30.42149 
L 413.887283 31.43371 
Q 413.887283 33.383172 413.212469 37.207117 
Q 412.537655 41.031062 412.537655 43.018014 
Q 412.537655 43.805297 412.537655 44.105214 
Q 412.537655 44.405131 412.631379 45.042455 
Q 412.725103 45.679779 412.912552 45.960952 
Q 413.1 46.242124 413.493641 46.485807 
Q 413.887283 46.72949 414.449628 46.72949 
Q 414.562097 46.692 414.880759 46.72949 
Q 415.199421 46.766979 415.386869 46.710745 
Q 415.574317 46.65451 415.574317 46.392083 
" clip-path="url(#p632fb9fdfa)" style="fill: none; stroke: #000000; stroke-linejoin: miter"/>
   </g>
  </g>
  <g id="axes_27">
   <g id="patch_23">
    <path d="M 429.225021 26.147669 
Q 429.187531 26.597545 429.225021 27.384828 
Q 429.26251 27.572276 429.206276 27.965917 
Q 429.150041 28.359559 429.187531 28.678221 
Q 429.225021 28.996883 429.449959 29.184331 
" clip-path="url(#pd27f50e24a)" style="fill: none; stroke: #000000; stroke-linejoin: miter"/>
   </g>
  </g>
  <g id="axes_28">
   <g id="patch_24">
    <path d="M 441.057476 43.917766 
Q 441.357393 44.180193 442.369614 45.154924 
Q 443.381834 46.129655 443.944179 46.560786 
Q 444.506524 46.991917 445.53749 47.385559 
Q 446.568455 47.7792 447.580676 47.629241 
Q 448.25549 47.629241 448.72411 47.404303 
Q 449.192731 47.179366 449.417669 46.879448 
Q 449.642607 46.579531 449.773821 45.979697 
Q 449.905034 45.379862 449.923779 44.967476 
Q 449.942524 44.55509 449.942524 43.805297 
Q 449.942524 42.718097 449.042772 42.043283 
Q 448.143021 41.368469 446.849628 41.031062 
Q 445.556234 40.693655 444.262841 40.300014 
Q 442.969448 39.906372 442.069697 38.987876 
Q 441.169945 38.069379 441.169945 36.607283 
Q 441.169945 36.082428 441.338648 35.726276 
Q 441.507352 35.370124 441.900993 35.145186 
Q 442.294634 34.920248 442.575807 34.807779 
Q 442.856979 34.69531 443.513048 34.639076 
Q 444.169117 34.582841 444.356566 34.582841 
Q 444.544014 34.582841 445.218828 34.582841 
Q 446.418497 34.582841 446.999586 34.995228 
Q 447.580676 35.407614 447.899338 36.026193 
Q 448.218 36.644772 448.480428 36.832221 
" clip-path="url(#p885111af97)" style="fill: none; stroke: #000000; stroke-linejoin: miter"/>
   </g>
  </g>
  <g id="axes_29"/>
  <g id="axes_30">
   <g id="patch_25">
    <path d="M 478.098305 38.108136 
Q 476.450847 37.345424 474.986441 37.375932 
Q 473.186441 37.375932 472.255932 38.91661 
Q 471.325424 40.457288 471.325424 42.409831 
Q 471.325424 43.782712 472.057627 44.652203 
Q 472.789831 45.521695 474.162712 45.521695 
Q 475.138983 45.521695 476.176271 43.386102 
Q 477.213559 41.250508 477.79322 38.962373 
Q 478.372881 36.674237 478.372881 35.728475 
L 478.372881 38.565763 
Q 478.677966 40.365763 478.830508 42.379322 
Q 478.983051 44.392881 478.998305 45.430169 
Q 479.013559 46.467458 478.952542 49.243729 
Q 478.891525 52.02 478.891525 52.721695 
Q 478.8 60.775932 479.074576 60.775932 
Q 479.562712 60.775932 480.70678 58.609831 
Q 481.850847 56.443729 483.071186 53.606441 
Q 484.291525 50.769153 484.383051 50.61661 
L 484.474576 50.250508 
" clip-path="url(#p693ff130b9)" style="fill: none; stroke: #000000; stroke-linejoin: miter"/>
   </g>
  </g>
  <g id="axes_31">
   <g id="patch_26">
    <path d="M 489.488772 35.145186 
Q 489.488772 35.145186 489.488772 35.595062 
Q 489.488772 36.269876 489.376303 37.619503 
Q 489.263834 38.969131 489.263834 39.643945 
Q 489.263834 41.930814 490.500993 43.599103 
Q 491.738152 45.267393 493.875062 45.267393 
Q 495.262179 45.154924 496.030717 43.917766 
Q 496.799255 42.680607 496.949214 41.237255 
Q 497.099172 39.793903 497.3616 37.9944 
Q 497.624028 36.194897 498.036414 35.370124 
Q 498.186372 35.070207 498.186372 35.670041 
Q 498.186372 36.269876 497.923945 38.706703 
Q 497.699007 41.031062 497.699007 41.555917 
Q 497.549048 42.643117 497.886455 43.767807 
Q 498.223862 44.892497 498.936166 45.6048 
" clip-path="url(#p902079865c)" style="fill: none; stroke: #000000; stroke-linejoin: miter"/>
   </g>
  </g>
  <g id="axes_32">
   <g id="patch_27">
    <path d="M 510.918579 29.071862 
Q 510.543683 29.146841 510.412469 29.577972 
Q 510.281255 30.009103 510.356234 30.42149 
Q 510.356234 30.571448 510.393724 30.702662 
Q 510.431214 30.833876 510.487448 30.89011 
Q 510.543683 30.946345 510.599917 31.040069 
Q 510.656152 31.133793 510.693641 31.208772 
L 510.80611 29.859145 
M 510.80611 34.020497 
Q 509.906359 39.006621 509.681421 42.793076 
L 510.131297 45.379862 
L 510.468703 46.054676 
" clip-path="url(#pa5f19699c4)" style="fill: none; stroke: #000000; stroke-linejoin: miter"/>
   </g>
  </g>
  <g id="axes_33">
   <g id="patch_28">
    <path d="M 521.663834 37.95691 
L 522.338648 37.95691 
Q 523.050952 37.95691 523.838234 37.881931 
Q 524.625517 37.806952 525.581503 37.675738 
Q 526.53749 37.544524 527.062345 37.507034 
L 531.336166 35.82 
M 527.287283 30.42149 
L 527.287283 31.43371 
Q 527.287283 33.383172 526.612469 37.207117 
Q 525.937655 41.031062 525.937655 43.018014 
Q 525.937655 43.805297 525.937655 44.105214 
Q 525.937655 44.405131 526.031379 45.042455 
Q 526.125103 45.679779 526.312552 45.960952 
Q 526.5 46.242124 526.893641 46.485807 
Q 527.287283 46.72949 527.849628 46.72949 
Q 527.962097 46.692 528.280759 46.72949 
Q 528.599421 46.766979 528.786869 46.710745 
Q 528.974317 46.65451 528.974317 46.392083 
" clip-path="url(#pac449901a4)" style="fill: none; stroke: #000000; stroke-linejoin: miter"/>
   </g>
  </g>
  <g id="axes_34">
   <g id="patch_29">
    <path d="M 536.457798 38.160826 
Q 539.430275 39.535596 544.149083 39.721376 
Q 545.672477 39.721376 546.359862 38.550963 
Q 547.047248 37.38055 547.047248 35.82 
Q 547.047248 35.299817 546.954358 34.909679 
Q 546.861468 34.519541 546.619954 34.296606 
Q 546.37844 34.07367 546.211239 33.943624 
Q 546.044037 33.813578 545.598165 33.757844 
Q 545.152294 33.70211 544.947936 33.683532 
Q 544.743578 33.664954 544.167661 33.683532 
Q 543.591743 33.70211 543.368807 33.70211 
Q 541.325229 33.70211 539.838991 35.578486 
Q 538.352752 37.454862 538.352752 39.609908 
Q 538.352752 42.619541 540.284862 44.570229 
Q 542.216972 46.520917 545.263761 46.520917 
Q 547.418807 46.818165 548.942202 44.29156 
" clip-path="url(#p180068b5ad)" style="fill: none; stroke: #000000; stroke-linejoin: miter"/>
   </g>
  </g>
  <g id="axes_35"/>
  <g id="axes_36">
   <g id="patch_30">
    <path d="M 570.320069 39.868883 
L 570.320069 39.419007 
Q 570.320069 37.769462 572.063338 36.682262 
Q 573.806607 35.595062 575.493641 35.595062 
Q 577.705531 35.595062 579.073903 36.794731 
Q 580.442276 37.9944 580.442276 40.20629 
Q 580.442276 42.30571 578.624028 43.336676 
Q 576.805779 44.367641 574.59389 44.367641 
Q 573.919076 44.367641 573.412966 44.255172 
Q 572.906855 44.142703 572.288276 43.917766 
Q 571.669697 43.692828 571.219821 43.580359 
L 570.095131 42.568138 
M 569.757724 36.832221 
Q 570.2076 38.444276 570.470028 40.262524 
Q 570.732455 42.080772 570.78869 43.749062 
Q 570.844924 45.417352 570.882414 47.27309 
Q 570.919903 49.128828 570.882414 50.778372 
L 570.769945 57.863917 
" clip-path="url(#p0f7cc667b6)" style="fill: none; stroke: #000000; stroke-linejoin: miter"/>
   </g>
  </g>
  <g id="axes_37">
   <g id="patch_31">
    <path d="M 587.813462 32.783338 
Q 588.338317 34.507862 588.469531 36.457324 
Q 588.600745 38.406786 588.525766 40.956083 
Q 588.450786 43.505379 588.488276 44.705048 
L 588.600745 46.054676 
L 588.600745 45.829738 
Q 588.600745 44.667559 588.319572 42.30571 
Q 588.0384 39.943862 588.0384 38.744193 
Q 588.0384 36.419834 589.050621 34.882759 
Q 590.062841 33.345683 592.087283 33.345683 
Q 592.799586 33.345683 593.136993 33.626855 
Q 593.4744 33.908028 593.736828 34.432883 
Q 593.999255 34.957738 594.336662 35.257655 
L 594.786538 36.832221 
" clip-path="url(#pde29d1764a)" style="fill: none; stroke: #000000; stroke-linejoin: miter"/>
   </g>
  </g>
  <g id="axes_38">
   <g id="patch_32">
    <path d="M 601.257798 38.160826 
Q 604.230275 39.535596 608.949083 39.721376 
Q 610.472477 39.721376 611.159862 38.550963 
Q 611.847248 37.38055 611.847248 35.82 
Q 611.847248 35.299817 611.754358 34.909679 
Q 611.661468 34.519541 611.419954 34.296606 
Q 611.17844 34.07367 611.011239 33.943624 
Q 610.844037 33.813578 610.398165 33.757844 
Q 609.952294 33.70211 609.747936 33.683532 
Q 609.543578 33.664954 608.967661 33.683532 
Q 608.391743 33.70211 608.168807 33.70211 
Q 606.125229 33.70211 604.638991 35.578486 
Q 603.152752 37.454862 603.152752 39.609908 
Q 603.152752 42.619541 605.084862 44.570229 
Q 607.016972 46.520917 610.063761 46.520917 
Q 612.218807 46.818165 613.742202 44.29156 
" clip-path="url(#p35778d94ca)" style="fill: none; stroke: #000000; stroke-linejoin: miter"/>
   </g>
  </g>
  <g id="axes_39">
   <g id="patch_33">
    <path d="M 618.863834 37.95691 
L 619.538648 37.95691 
Q 620.250952 37.95691 621.038234 37.881931 
Q 621.825517 37.806952 622.781503 37.675738 
Q 623.73749 37.544524 624.262345 37.507034 
L 628.536166 35.82 
M 624.487283 30.42149 
L 624.487283 31.43371 
Q 624.487283 33.383172 623.812469 37.207117 
Q 623.137655 41.031062 623.137655 43.018014 
Q 623.137655 43.805297 623.137655 44.105214 
Q 623.137655 44.405131 623.231379 45.042455 
Q 623.325103 45.679779 623.512552 45.960952 
Q 623.7 46.242124 624.093641 46.485807 
Q 624.487283 46.72949 625.049628 46.72949 
Q 625.162097 46.692 625.480759 46.72949 
Q 625.799421 46.766979 625.986869 46.710745 
Q 626.174317 46.65451 626.174317 46.392083 
" clip-path="url(#p7631a315ea)" style="fill: none; stroke: #000000; stroke-linejoin: miter"/>
   </g>
  </g>
  <g id="axes_40">
   <g id="patch_34">
    <path d="M 635.063834 37.95691 
L 635.738648 37.95691 
Q 636.450952 37.95691 637.238234 37.881931 
Q 638.025517 37.806952 638.981503 37.675738 
Q 639.93749 37.544524 640.462345 37.507034 
L 644.736166 35.82 
M 640.687283 30.42149 
L 640.687283 31.43371 
Q 640.687283 33.383172 640.012469 37.207117 
Q 639.337655 41.031062 639.337655 43.018014 
Q 639.337655 43.805297 639.337655 44.105214 
Q 639.337655 44.405131 639.431379 45.042455 
Q 639.525103 45.679779 639.712552 45.960952 
Q 639.9 46.242124 640.293641 46.485807 
Q 640.687283 46.72949 641.249628 46.72949 
Q 641.362097 46.692 641.680759 46.72949 
Q 641.999421 46.766979 642.186869 46.710745 
Q 642.374317 46.65451 642.374317 46.392083 
" clip-path="url(#pef2f45cddb)" style="fill: none; stroke: #000000; stroke-linejoin: miter"/>
   </g>
  </g>
  <g id="axes_41">
   <g id="patch_35">
    <path d="M 650.963917 36.382345 
Q 650.926428 36.494814 651.057641 36.701007 
Q 651.188855 36.9072 651.076386 37.057159 
L 651.076386 39.306538 
Q 651.076386 40.506207 651.413793 41.724621 
Q 651.7512 42.943034 652.613462 43.93651 
Q 653.475724 44.929986 654.675393 44.929986 
Q 655.912552 44.929986 656.587366 43.861531 
Q 657.262179 42.793076 657.712055 41.143531 
Q 658.161931 39.493986 658.499338 38.969131 
L 659.286621 36.382345 
L 659.061683 42.680607 
L 659.061683 45.154924 
Q 659.061683 47.066897 659.792731 51.00331 
Q 660.523779 54.939724 660.523779 56.964166 
Q 661.273572 59.213545 660.186372 60.188276 
Q 659.099172 61.163007 657.037241 60.78811 
Q 655.237738 60.488193 654.319241 60.169531 
Q 653.400745 59.850869 651.413793 58.988607 
L 651.301324 58.426262 
" clip-path="url(#pecb4375669)" style="fill: none; stroke: #000000; stroke-linejoin: miter"/>
   </g>
  </g>
  <g id="axes_42"/>
  <g id="axes_43">
   <g id="patch_36">
    <path d="M 683.888772 35.145186 
Q 683.888772 35.145186 683.888772 35.595062 
Q 683.888772 36.269876 683.776303 37.619503 
Q 683.663834 38.969131 683.663834 39.643945 
Q 683.663834 41.930814 684.900993 43.599103 
Q 686.138152 45.267393 688.275062 45.267393 
Q 689.662179 45.154924 690.430717 43.917766 
Q 691.199255 42.680607 691.349214 41.237255 
Q 691.499172 39.793903 691.7616 37.9944 
Q 692.024028 36.194897 692.436414 35.370124 
Q 692.586372 35.070207 692.586372 35.670041 
Q 692.586372 36.269876 692.323945 38.706703 
Q 692.099007 41.031062 692.099007 41.555917 
Q 691.949048 42.643117 692.286455 43.767807 
Q 692.623862 44.892497 693.336166 45.6048 
" clip-path="url(#p752b1696a2)" style="fill: none; stroke: #000000; stroke-linejoin: miter"/>
   </g>
  </g>
  <g id="axes_44">
   <g id="patch_37">
    <path d="M 699.920069 39.868883 
L 699.920069 39.419007 
Q 699.920069 37.769462 701.663338 36.682262 
Q 703.406607 35.595062 705.093641 35.595062 
Q 707.305531 35.595062 708.673903 36.794731 
Q 710.042276 37.9944 710.042276 40.20629 
Q 710.042276 42.30571 708.224028 43.336676 
Q 706.405779 44.367641 704.19389 44.367641 
Q 703.519076 44.367641 703.012966 44.255172 
Q 702.506855 44.142703 701.888276 43.917766 
Q 701.269697 43.692828 700.819821 43.580359 
L 699.695131 42.568138 
M 699.357724 36.832221 
Q 699.8076 38.444276 700.070028 40.262524 
Q 700.332455 42.080772 700.38869 43.749062 
Q 700.444924 45.417352 700.482414 47.27309 
Q 700.519903 49.128828 700.482414 50.778372 
L 700.369945 57.863917 
" clip-path="url(#pf0931c1429)" style="fill: none; stroke: #000000; stroke-linejoin: miter"/>
   </g>
  </g>
  <g id="axes_45"/>
  <g id="axes_46">
   <g id="patch_38">
    <path d="M 732.263834 37.95691 
L 732.938648 37.95691 
Q 733.650952 37.95691 734.438234 37.881931 
Q 735.225517 37.806952 736.181503 37.675738 
Q 737.13749 37.544524 737.662345 37.507034 
L 741.936166 35.82 
M 737.887283 30.42149 
L 737.887283 31.43371 
Q 737.887283 33.383172 737.212469 37.207117 
Q 736.537655 41.031062 736.537655 43.018014 
Q 736.537655 43.805297 736.537655 44.105214 
Q 736.537655 44.405131 736.631379 45.042455 
Q 736.725103 45.679779 736.912552 45.960952 
Q 737.1 46.242124 737.493641 46.485807 
Q 737.887283 46.72949 738.449628 46.72949 
Q 738.562097 46.692 738.880759 46.72949 
Q 739.199421 46.766979 739.386869 46.710745 
Q 739.574317 46.65451 739.574317 46.392083 
" clip-path="url(#pec0ff168c3)" style="fill: none; stroke: #000000; stroke-linejoin: miter"/>
   </g>
  </g>
  <g id="axes_47">
   <g id="patch_39">
    <path d="M 749.813462 35.932469 
Q 750.413297 35.257655 751.406772 34.826524 
Q 752.400248 34.395393 753.3 34.470372 
Q 753.937324 34.470372 754.42469 34.639076 
Q 754.912055 34.807779 755.230717 34.995228 
Q 755.549379 35.182676 755.774317 35.670041 
Q 755.999255 36.157407 756.111724 36.419834 
Q 756.224193 36.682262 756.280428 37.375821 
Q 756.336662 38.069379 756.355407 38.331807 
Q 756.374152 38.594234 756.355407 39.419007 
Q 756.336662 40.243779 756.336662 40.431228 
Q 756.336662 41.368469 756.167959 43.242952 
Q 755.999255 45.117434 755.999255 46.054676 
Q 755.999255 46.467062 756.05549 46.823214 
Q 756.111724 47.179366 756.205448 47.610497 
Q 756.299172 48.041628 756.336662 48.304055 
L 756.786538 48.528993 
M 750.263338 23.111007 
Q 750.488276 24.798041 750.488276 29.971614 
L 750.488276 42.3432 
L 750.150869 46.841959 
L 749.925931 47.74171 
" clip-path="url(#p431f6fb3e8)" style="fill: none; stroke: #000000; stroke-linejoin: miter"/>
   </g>
  </g>
  <g id="axes_48">
   <g id="patch_40">
    <path d="M 763.257798 38.160826 
Q 766.230275 39.535596 770.949083 39.721376 
Q 772.472477 39.721376 773.159862 38.550963 
Q 773.847248 37.38055 773.847248 35.82 
Q 773.847248 35.299817 773.754358 34.909679 
Q 773.661468 34.519541 773.419954 34.296606 
Q 773.17844 34.07367 773.011239 33.943624 
Q 772.844037 33.813578 772.398165 33.757844 
Q 771.952294 33.70211 771.747936 33.683532 
Q 771.543578 33.664954 770.967661 33.683532 
Q 770.391743 33.70211 770.168807 33.70211 
Q 768.125229 33.70211 766.638991 35.578486 
Q 765.152752 37.454862 765.152752 39.609908 
Q 765.152752 42.619541 767.084862 44.570229 
Q 769.016972 46.520917 772.063761 46.520917 
Q 774.218807 46.818165 775.742202 44.29156 
" clip-path="url(#p03c3378c2d)" style="fill: none; stroke: #000000; stroke-linejoin: miter"/>
   </g>
  </g>
  <g id="axes_49">
   <g id="patch_41">
    <path d="M 782.213462 32.783338 
Q 782.738317 34.507862 782.869531 36.457324 
Q 783.000745 38.406786 782.925766 40.956083 
Q 782.850786 43.505379 782.888276 44.705048 
L 783.000745 46.054676 
L 783.000745 45.829738 
Q 783.000745 44.667559 782.719572 42.30571 
Q 782.4384 39.943862 782.4384 38.744193 
Q 782.4384 36.419834 783.450621 34.882759 
Q 784.462841 33.345683 786.487283 33.345683 
Q 787.199586 33.345683 787.536993 33.626855 
Q 787.8744 33.908028 788.136828 34.432883 
Q 788.399255 34.957738 788.736662 35.257655 
L 789.186538 36.832221 
" clip-path="url(#pc4823f89c1)" style="fill: none; stroke: #000000; stroke-linejoin: miter"/>
   </g>
  </g>
  <g id="axes_50">
   <g id="patch_42">
    <path d="M 795.657798 38.160826 
Q 798.630275 39.535596 803.349083 39.721376 
Q 804.872477 39.721376 805.559862 38.550963 
Q 806.247248 37.38055 806.247248 35.82 
Q 806.247248 35.299817 806.154358 34.909679 
Q 806.061468 34.519541 805.819954 34.296606 
Q 805.57844 34.07367 805.411239 33.943624 
Q 805.244037 33.813578 804.798165 33.757844 
Q 804.352294 33.70211 804.147936 33.683532 
Q 803.943578 33.664954 803.367661 33.683532 
Q 802.791743 33.70211 802.568807 33.70211 
Q 800.525229 33.70211 799.038991 35.578486 
Q 797.552752 37.454862 797.552752 39.609908 
Q 797.552752 42.619541 799.484862 44.570229 
Q 801.416972 46.520917 804.463761 46.520917 
Q 806.618807 46.818165 808.142202 44.29156 
" clip-path="url(#p1bba09083c)" style="fill: none; stroke: #000000; stroke-linejoin: miter"/>
   </g>
  </g>
 </g>
 <defs>
  <clipPath id="pbef228e632">
   <rect x="5.325766" y="8.64" width="5.548469" height="54.36"/>
  </clipPath>
  <clipPath id="pd844a00d7d">
   <rect x="16.2" y="13.866729" width="16.2" height="43.906542"/>
  </clipPath>
  <clipPath id="p47273644da">
   <rect x="32.4" y="10.777356" width="16.2" height="50.085288"/>
  </clipPath>
  <clipPath id="p6dbb3795ba">
   <rect x="51.338979" y="8.64" width="10.722041" height="54.36"/>
  </clipPath>
  <clipPath id="pb8d18c7536">
   <rect x="70.200745" y="8.64" width="5.39851" height="54.36"/>
  </clipPath>
  <clipPath id="pb933744c5b">
   <rect x="102.806938" y="8.64" width="4.986124" height="54.36"/>
  </clipPath>
  <clipPath id="p1d32829db9">
   <rect x="114.789352" y="8.64" width="13.421297" height="54.36"/>
  </clipPath>
  <clipPath id="p86d369fb79">
   <rect x="145.8" y="10.777356" width="16.2" height="50.085288"/>
  </clipPath>
  <clipPath id="pc33d5f4950">
   <rect x="167.606938" y="8.64" width="4.986124" height="54.36"/>
  </clipPath>
  <clipPath id="pa6c46dd7c8">
   <rect x="179.964248" y="8.64" width="12.671503" height="54.36"/>
  </clipPath>
  <clipPath id="p83539d0e56">
   <rect x="200.475559" y="8.64" width="4.048883" height="54.36"/>
  </clipPath>
  <clipPath id="p62c62d897e">
   <rect x="211.989352" y="8.64" width="13.421297" height="54.36"/>
  </clipPath>
  <clipPath id="pfaef481cec">
   <rect x="244.389352" y="8.64" width="13.421297" height="54.36"/>
  </clipPath>
  <clipPath id="p83588fca68">
   <rect x="259.802069" y="8.64" width="14.995862" height="54.36"/>
  </clipPath>
  <clipPath id="p4a6d3c3e71">
   <rect x="276.002069" y="8.64" width="14.995862" height="54.36"/>
  </clipPath>
  <clipPath id="pa6f389c7a0">
   <rect x="309.358055" y="8.64" width="13.08389" height="54.36"/>
  </clipPath>
  <clipPath id="p50e955f8c9">
   <rect x="324" y="10.777356" width="16.2" height="50.085288"/>
  </clipPath>
  <clipPath id="p079340d660">
   <rect x="341.251945" y="8.64" width="14.09611" height="54.36"/>
  </clipPath>
  <clipPath id="p2ed70af240">
   <rect x="361.800745" y="8.64" width="5.39851" height="54.36"/>
  </clipPath>
  <clipPath id="pde641e2746">
   <rect x="394.406938" y="8.64" width="4.986124" height="54.36"/>
  </clipPath>
  <clipPath id="p632fb9fdfa">
   <rect x="406.389352" y="8.64" width="13.421297" height="54.36"/>
  </clipPath>
  <clipPath id="pd27f50e24a">
   <rect x="427.275559" y="8.64" width="4.048883" height="54.36"/>
  </clipPath>
  <clipPath id="p885111af97">
   <rect x="439.182993" y="8.64" width="12.634014" height="54.36"/>
  </clipPath>
  <clipPath id="p693ff130b9">
   <rect x="469.8" y="13.701356" width="16.2" height="44.237288"/>
  </clipPath>
  <clipPath id="p902079865c">
   <rect x="487.389352" y="8.64" width="13.421297" height="54.36"/>
  </clipPath>
  <clipPath id="pa5f19699c4">
   <rect x="507.806938" y="8.64" width="4.986124" height="54.36"/>
  </clipPath>
  <clipPath id="pac449901a4">
   <rect x="519.789352" y="8.64" width="13.421297" height="54.36"/>
  </clipPath>
  <clipPath id="p180068b5ad">
   <rect x="534.6" y="8.881927" width="16.2" height="53.876147"/>
  </clipPath>
  <clipPath id="p0f7cc667b6">
   <rect x="567.883241" y="8.64" width="14.433517" height="54.36"/>
  </clipPath>
  <clipPath id="pde29d1764a">
   <rect x="585.938979" y="8.64" width="10.722041" height="54.36"/>
  </clipPath>
  <clipPath id="p35778d94ca">
   <rect x="599.4" y="8.881927" width="16.2" height="53.876147"/>
  </clipPath>
  <clipPath id="p7631a315ea">
   <rect x="616.989352" y="8.64" width="13.421297" height="54.36"/>
  </clipPath>
  <clipPath id="pef2f45cddb">
   <rect x="633.189352" y="8.64" width="13.421297" height="54.36"/>
  </clipPath>
  <clipPath id="pecb4375669">
   <rect x="649.051945" y="8.64" width="14.09611" height="54.36"/>
  </clipPath>
  <clipPath id="p752b1696a2">
   <rect x="681.789352" y="8.64" width="13.421297" height="54.36"/>
  </clipPath>
  <clipPath id="pf0931c1429">
   <rect x="697.483241" y="8.64" width="14.433517" height="54.36"/>
  </clipPath>
  <clipPath id="pec0ff168c3">
   <rect x="730.389352" y="8.64" width="13.421297" height="54.36"/>
  </clipPath>
  <clipPath id="p431f6fb3e8">
   <rect x="747.938979" y="8.64" width="10.722041" height="54.36"/>
  </clipPath>
  <clipPath id="p03c3378c2d">
   <rect x="761.4" y="8.881927" width="16.2" height="53.876147"/>
  </clipPath>
  <clipPath id="pc4823f89c1">
   <rect x="780.338979" y="8.64" width="10.722041" height="54.36"/>
  </clipPath>
  <clipPath id="p1bba09083c">
   <rect x="793.8" y="8.881927" width="16.2" height="53.876147"/>
  </clipPath>
 </defs>
</svg>
