<?xml version="1.0" encoding="utf-8" standalone="no"?>
<!DOCTYPE svg PUBLIC "-//W3C//DTD SVG 1.1//EN"
  "http://www.w3.org/Graphics/SVG/1.1/DTD/svg11.dtd">
<svg xmlns:xlink="http://www.w3.org/1999/xlink" width="774pt" height="72pt" viewBox="0 0 774 72" xmlns="http://www.w3.org/2000/svg" version="1.1">
 <metadata>
  <rdf:RDF xmlns:dc="http://purl.org/dc/elements/1.1/" xmlns:cc="http://creativecommons.org/ns#" xmlns:rdf="http://www.w3.org/1999/02/22-rdf-syntax-ns#">
   <cc:Work>
    <dc:type rdf:resource="http://purl.org/dc/dcmitype/StillImage"/>
    <dc:date>2023-12-21T11:45:41.732221</dc:date>
    <dc:format>image/svg+xml</dc:format>
    <dc:creator>
     <cc:Agent>
      <dc:title>Matplotlib v3.5.1, https://matplotlib.org/</dc:title>
     </cc:Agent>
    </dc:creator>
   </cc:Work>
  </rdf:RDF>
 </metadata>
 <defs>
  <style type="text/css">*{stroke-linejoin: round; stroke-linecap: butt}</style>
 </defs>
 <g id="figure_1">
  <g id="patch_1">
   <path d="M 0 72 
L 774 72 
L 774 0 
L 0 0 
z
" style="fill: #8fff9f"/>
  </g>
  <g id="axes_1">
   <g id="patch_2">
    <path d="M 8.624855 27.009931 
Q 8.699834 27.347338 8.774814 28.265834 
Q 8.849793 29.184331 8.999752 29.634207 
L 8.924772 31.058814 
M 7.275228 27.309848 
Q 7.237738 27.309848 7.200248 27.534786 
Q 7.237738 27.684745 7.350207 28.828179 
Q 7.462676 29.971614 7.725103 30.533959 
" clip-path="url(#pb825d9c3bb)" style="fill: none; stroke: #000000; stroke-linejoin: miter"/>
   </g>
  </g>
  <g id="axes_2">
   <g id="patch_3">
    <path d="M 30.429559 25.172938 
Q 29.492317 28.17211 28.198924 31.283752 
Q 26.905531 34.395393 24.937324 38.669214 
Q 22.969117 42.943034 22.219324 44.630069 
L 19.969945 48.454014 
M 18.170441 25.735283 
Q 19.182662 27.759724 21.394552 31.396221 
Q 23.606441 35.032717 24.468703 36.644772 
" clip-path="url(#p0e213d24eb)" style="fill: none; stroke: #000000; stroke-linejoin: miter"/>
   </g>
  </g>
  <g id="axes_3">
   <g id="patch_4">
    <path d="M 34.257798 38.160826 
Q 37.230275 39.535596 41.949083 39.721376 
Q 43.472477 39.721376 44.159862 38.550963 
Q 44.847248 37.38055 44.847248 35.82 
Q 44.847248 35.299817 44.754358 34.909679 
Q 44.661468 34.519541 44.419954 34.296606 
Q 44.17844 34.07367 44.011239 33.943624 
Q 43.844037 33.813578 43.398165 33.757844 
Q 42.952294 33.70211 42.747936 33.683532 
Q 42.543578 33.664954 41.967661 33.683532 
Q 41.391743 33.70211 41.168807 33.70211 
Q 39.125229 33.70211 37.638991 35.578486 
Q 36.152752 37.454862 36.152752 39.609908 
Q 36.152752 42.619541 38.084862 44.570229 
Q 40.016972 46.520917 43.063761 46.520917 
Q 45.218807 46.818165 46.742202 44.29156 
" clip-path="url(#p0e86baf75c)" style="fill: none; stroke: #000000; stroke-linejoin: miter"/>
   </g>
  </g>
  <g id="axes_4">
   <g id="patch_5">
    <path d="M 51.920069 39.868883 
L 51.920069 39.419007 
Q 51.920069 37.769462 53.663338 36.682262 
Q 55.406607 35.595062 57.093641 35.595062 
Q 59.305531 35.595062 60.673903 36.794731 
Q 62.042276 37.9944 62.042276 40.20629 
Q 62.042276 42.30571 60.224028 43.336676 
Q 58.405779 44.367641 56.19389 44.367641 
Q 55.519076 44.367641 55.012966 44.255172 
Q 54.506855 44.142703 53.888276 43.917766 
Q 53.269697 43.692828 52.819821 43.580359 
L 51.695131 42.568138 
M 51.357724 36.832221 
Q 51.8076 38.444276 52.070028 40.262524 
Q 52.332455 42.080772 52.38869 43.749062 
Q 52.444924 45.417352 52.482414 47.27309 
Q 52.519903 49.128828 52.482414 50.778372 
L 52.369945 57.863917 
" clip-path="url(#pc92acd8802)" style="fill: none; stroke: #000000; stroke-linejoin: miter"/>
   </g>
  </g>
  <g id="axes_5">
   <g id="patch_6">
    <path d="M 72.187697 39.981352 
Q 73.199917 40.956083 73.537324 42.905545 
Q 73.724772 43.955255 73.312386 46.167145 
L 72.075228 47.629241 
" clip-path="url(#pe64d3b58b8)" style="fill: none; stroke: #000000; stroke-linejoin: miter"/>
   </g>
  </g>
  <g id="axes_6"/>
  <g id="axes_7">
   <g id="patch_7">
    <path d="M 100.163917 36.382345 
Q 100.126428 36.494814 100.257641 36.701007 
Q 100.388855 36.9072 100.276386 37.057159 
L 100.276386 39.306538 
Q 100.276386 40.506207 100.613793 41.724621 
Q 100.9512 42.943034 101.813462 43.93651 
Q 102.675724 44.929986 103.875393 44.929986 
Q 105.112552 44.929986 105.787366 43.861531 
Q 106.462179 42.793076 106.912055 41.143531 
Q 107.361931 39.493986 107.699338 38.969131 
L 108.486621 36.382345 
L 108.261683 42.680607 
L 108.261683 45.154924 
Q 108.261683 47.066897 108.992731 51.00331 
Q 109.723779 54.939724 109.723779 56.964166 
Q 110.473572 59.213545 109.386372 60.188276 
Q 108.299172 61.163007 106.237241 60.78811 
Q 104.437738 60.488193 103.519241 60.169531 
Q 102.600745 59.850869 100.613793 58.988607 
L 100.501324 58.426262 
" clip-path="url(#p7b3a169544)" style="fill: none; stroke: #000000; stroke-linejoin: miter"/>
   </g>
  </g>
  <g id="axes_8">
   <g id="patch_8">
    <path d="M 124.7616 35.032717 
Q 123.71189 34.582841 122.737159 34.69531 
Q 119.700497 35.032717 117.788524 36.701007 
Q 115.876552 38.369297 115.876552 41.330979 
Q 115.876552 43.917766 117.882248 45.6048 
Q 119.887945 47.291834 122.512221 47.291834 
Q 124.874069 47.291834 125.998759 45.361117 
Q 127.123448 43.4304 127.123448 40.881103 
Q 127.123448 39.643945 126.711062 38.706703 
Q 126.298676 37.769462 125.773821 37.300841 
Q 125.248966 36.832221 124.499172 36.119917 
Q 123.749379 35.407614 123.299503 34.69531 
L 122.062345 34.245434 
" clip-path="url(#p344978ebe6)" style="fill: none; stroke: #000000; stroke-linejoin: miter"/>
   </g>
  </g>
  <g id="axes_9">
   <g id="patch_9">
    <path d="M 133.088772 35.145186 
Q 133.088772 35.145186 133.088772 35.595062 
Q 133.088772 36.269876 132.976303 37.619503 
Q 132.863834 38.969131 132.863834 39.643945 
Q 132.863834 41.930814 134.100993 43.599103 
Q 135.338152 45.267393 137.475062 45.267393 
Q 138.862179 45.154924 139.630717 43.917766 
Q 140.399255 42.680607 140.549214 41.237255 
Q 140.699172 39.793903 140.9616 37.9944 
Q 141.224028 36.194897 141.636414 35.370124 
Q 141.786372 35.070207 141.786372 35.670041 
Q 141.786372 36.269876 141.523945 38.706703 
Q 141.299007 41.031062 141.299007 41.555917 
Q 141.149048 42.643117 141.486455 43.767807 
Q 141.823862 44.892497 142.536166 45.6048 
" clip-path="url(#pc5c2beb823)" style="fill: none; stroke: #000000; stroke-linejoin: miter"/>
   </g>
  </g>
  <g id="axes_10">
   <g id="patch_10">
    <path d="M 153.825021 26.147669 
Q 153.787531 26.597545 153.825021 27.384828 
Q 153.86251 27.572276 153.806276 27.965917 
Q 153.750041 28.359559 153.787531 28.678221 
Q 153.825021 28.996883 154.049959 29.184331 
" clip-path="url(#p6e82c57a77)" style="fill: none; stroke: #000000; stroke-linejoin: miter"/>
   </g>
  </g>
  <g id="axes_11">
   <g id="patch_11">
    <path d="M 169.706359 28.621986 
Q 169.931297 30.34651 170.006276 32.146014 
Q 170.081255 33.945517 170.06251 36.551048 
Q 170.043766 39.156579 170.043766 40.093821 
Q 170.043766 40.13131 170.268703 45.829738 
L 170.493641 46.841959 
" clip-path="url(#pddc2c9cfe6)" style="fill: none; stroke: #000000; stroke-linejoin: miter"/>
   </g>
  </g>
  <g id="axes_12">
   <g id="patch_12">
    <path d="M 185.906359 28.621986 
Q 186.131297 30.34651 186.206276 32.146014 
Q 186.281255 33.945517 186.26251 36.551048 
Q 186.243766 39.156579 186.243766 40.093821 
Q 186.243766 40.13131 186.468703 45.829738 
L 186.693641 46.841959 
" clip-path="url(#p7f90b5cb78)" style="fill: none; stroke: #000000; stroke-linejoin: miter"/>
   </g>
  </g>
  <g id="axes_13"/>
  <g id="axes_14">
   <g id="patch_13">
    <path d="M 212.316102 36.437797 
L 213.551695 44.778051 
Q 213.654661 45.567458 213.654661 45.60178 
Q 213.654661 45.704746 213.963559 45.704746 
Q 214.82161 45.704746 215.542373 44.778051 
Q 216.263136 43.851356 216.675 42.718729 
Q 217.086864 41.586102 217.601695 40.659407 
Q 218.116525 39.732712 218.597034 39.732712 
Q 219.214831 39.732712 219.849788 40.607924 
Q 220.484746 41.483136 220.948093 42.512797 
Q 221.411441 43.542458 222.08072 44.417669 
Q 222.75 45.292881 223.436441 45.292881 
Q 223.711017 43.782712 224.140042 39.69839 
Q 224.569068 35.614068 225.083898 33.554746 
" clip-path="url(#p6ac645645b)" style="fill: none; stroke: #000000; stroke-linejoin: miter"/>
   </g>
  </g>
  <g id="axes_15">
   <g id="patch_14">
    <path d="M 240.443923 36.441748 
Q 239.234968 35.094627 235.262687 35.094627 
Q 233.742857 35.094627 232.965672 35.146439 
Q 232.188486 35.198252 231.18678 35.440043 
Q 230.185075 35.681834 229.701493 36.182687 
Q 229.21791 36.683539 228.872495 37.616162 
Q 228.527079 38.548785 228.527079 39.964989 
Q 228.527079 42.037484 229.943284 43.280981 
Q 231.359488 44.524478 233.293817 44.524478 
Q 235.953518 44.524478 238.716844 38.721493 
Q 240.063966 35.854542 240.063966 35.82 
Q 240.409382 35.578209 240.443923 36.441748 
Q 240.443923 37.512537 240.858422 40.362217 
Q 241.272921 43.211898 241.272921 44.524478 
" clip-path="url(#pe231122f04)" style="fill: none; stroke: #000000; stroke-linejoin: miter"/>
   </g>
  </g>
  <g id="axes_16">
   <g id="patch_15">
    <path d="M 246.638731 37.282097 
L 246.638731 37.844441 
Q 246.901159 39.868883 246.938648 41.312234 
Q 246.976138 42.755586 246.882414 44.667559 
Q 246.78869 46.579531 246.78869 48.191586 
L 246.863669 39.643945 
Q 246.863669 38.144359 248.456979 37.507034 
Q 250.05029 36.86971 251.474897 37.282097 
Q 253.386869 37.844441 254.305366 39.04411 
Q 255.223862 40.243779 255.280097 41.668386 
Q 255.336331 43.092993 255.373821 44.817517 
Q 255.41131 46.542041 255.561269 48.191586 
" clip-path="url(#p1d0da8ff12)" style="fill: none; stroke: #000000; stroke-linejoin: miter"/>
   </g>
  </g>
  <g id="axes_17">
   <g id="patch_16">
    <path d="M 262.463834 37.95691 
L 263.138648 37.95691 
Q 263.850952 37.95691 264.638234 37.881931 
Q 265.425517 37.806952 266.381503 37.675738 
Q 267.33749 37.544524 267.862345 37.507034 
L 272.136166 35.82 
M 268.087283 30.42149 
L 268.087283 31.43371 
Q 268.087283 33.383172 267.412469 37.207117 
Q 266.737655 41.031062 266.737655 43.018014 
Q 266.737655 43.805297 266.737655 44.105214 
Q 266.737655 44.405131 266.831379 45.042455 
Q 266.925103 45.679779 267.112552 45.960952 
Q 267.3 46.242124 267.693641 46.485807 
Q 268.087283 46.72949 268.649628 46.72949 
Q 268.762097 46.692 269.080759 46.72949 
Q 269.399421 46.766979 269.586869 46.710745 
Q 269.774317 46.65451 269.774317 46.392083 
" clip-path="url(#p3e55675120)" style="fill: none; stroke: #000000; stroke-linejoin: miter"/>
   </g>
  </g>
  <g id="axes_18"/>
  <g id="axes_19">
   <g id="patch_17">
    <path d="M 294.863834 37.95691 
L 295.538648 37.95691 
Q 296.250952 37.95691 297.038234 37.881931 
Q 297.825517 37.806952 298.781503 37.675738 
Q 299.73749 37.544524 300.262345 37.507034 
L 304.536166 35.82 
M 300.487283 30.42149 
L 300.487283 31.43371 
Q 300.487283 33.383172 299.812469 37.207117 
Q 299.137655 41.031062 299.137655 43.018014 
Q 299.137655 43.805297 299.137655 44.105214 
Q 299.137655 44.405131 299.231379 45.042455 
Q 299.325103 45.679779 299.512552 45.960952 
Q 299.7 46.242124 300.093641 46.485807 
Q 300.487283 46.72949 301.049628 46.72949 
Q 301.162097 46.692 301.480759 46.72949 
Q 301.799421 46.766979 301.986869 46.710745 
Q 302.174317 46.65451 302.174317 46.392083 
" clip-path="url(#p01d3e6d2ca)" style="fill: none; stroke: #000000; stroke-linejoin: miter"/>
   </g>
  </g>
  <g id="axes_20">
   <g id="patch_18">
    <path d="M 319.1616 35.032717 
Q 318.11189 34.582841 317.137159 34.69531 
Q 314.100497 35.032717 312.188524 36.701007 
Q 310.276552 38.369297 310.276552 41.330979 
Q 310.276552 43.917766 312.282248 45.6048 
Q 314.287945 47.291834 316.912221 47.291834 
Q 319.274069 47.291834 320.398759 45.361117 
Q 321.523448 43.4304 321.523448 40.881103 
Q 321.523448 39.643945 321.111062 38.706703 
Q 320.698676 37.769462 320.173821 37.300841 
Q 319.648966 36.832221 318.899172 36.119917 
Q 318.149379 35.407614 317.699503 34.69531 
L 316.462345 34.245434 
" clip-path="url(#p7f563214fc)" style="fill: none; stroke: #000000; stroke-linejoin: miter"/>
   </g>
  </g>
  <g id="axes_21"/>
  <g id="axes_22">
   <g id="patch_19">
    <path d="M 344.757228 37.244607 
Q 345.806938 37.207117 345.994386 37.132138 
Q 349.405945 37.132138 351.186703 39.212814 
Q 352.967462 41.29349 352.967462 44.780028 
Q 352.967462 47.704221 348.356234 47.704221 
Q 347.71891 47.704221 347.17531 47.591752 
Q 346.63171 47.479283 345.994386 47.254345 
Q 345.357062 47.029407 344.869697 46.916938 
L 343.632538 45.679779 
M 344.644759 25.435366 
L 344.644759 26.560055 
Q 344.644759 29.409269 344.757228 33.008276 
Q 344.869697 36.607283 345.057145 40.899848 
Q 345.244593 45.192414 345.319572 47.141876 
" clip-path="url(#pdaef5788ae)" style="fill: none; stroke: #000000; stroke-linejoin: miter"/>
   </g>
  </g>
  <g id="axes_23">
   <g id="patch_20">
    <path d="M 358.257798 38.160826 
Q 361.230275 39.535596 365.949083 39.721376 
Q 367.472477 39.721376 368.159862 38.550963 
Q 368.847248 37.38055 368.847248 35.82 
Q 368.847248 35.299817 368.754358 34.909679 
Q 368.661468 34.519541 368.419954 34.296606 
Q 368.17844 34.07367 368.011239 33.943624 
Q 367.844037 33.813578 367.398165 33.757844 
Q 366.952294 33.70211 366.747936 33.683532 
Q 366.543578 33.664954 365.967661 33.683532 
Q 365.391743 33.70211 365.168807 33.70211 
Q 363.125229 33.70211 361.638991 35.578486 
Q 360.152752 37.454862 360.152752 39.609908 
Q 360.152752 42.619541 362.084862 44.570229 
Q 364.016972 46.520917 367.063761 46.520917 
Q 369.218807 46.818165 370.742202 44.29156 
" clip-path="url(#p909a31840d)" style="fill: none; stroke: #000000; stroke-linejoin: miter"/>
   </g>
  </g>
  <g id="axes_24"/>
  <g id="axes_25">
   <g id="patch_21">
    <path d="M 402.156735 34.365306 
Q 402.156735 34.365306 401.660816 34.365306 
Q 400.867347 34.365306 399.379592 34.067755 
Q 397.891837 33.770204 397.098367 33.770204 
Q 394.321224 33.770204 392.387143 35.224898 
Q 390.453061 36.679592 390.453061 39.423673 
Q 390.453061 40.94449 391.940816 42.399184 
Q 393.428571 43.853878 395.362653 44.663878 
Q 397.296735 45.473878 398.78449 45.473878 
Q 399.710204 45.473878 400.40449 45.110204 
Q 401.098776 44.746531 401.842653 44.118367 
Q 402.586531 43.490204 403.148571 43.192653 
L 403.346939 42.696735 
" clip-path="url(#p47a1e91c5e)" style="fill: none; stroke: #000000; stroke-linejoin: miter"/>
   </g>
  </g>
  <g id="axes_26">
   <g id="patch_22">
    <path d="M 418.643923 36.441748 
Q 417.434968 35.094627 413.462687 35.094627 
Q 411.942857 35.094627 411.165672 35.146439 
Q 410.388486 35.198252 409.38678 35.440043 
Q 408.385075 35.681834 407.901493 36.182687 
Q 407.41791 36.683539 407.072495 37.616162 
Q 406.727079 38.548785 406.727079 39.964989 
Q 406.727079 42.037484 408.143284 43.280981 
Q 409.559488 44.524478 411.493817 44.524478 
Q 414.153518 44.524478 416.916844 38.721493 
Q 418.263966 35.854542 418.263966 35.82 
Q 418.609382 35.578209 418.643923 36.441748 
Q 418.643923 37.512537 419.058422 40.362217 
Q 419.472921 43.211898 419.472921 44.524478 
" clip-path="url(#pec05307591)" style="fill: none; stroke: #000000; stroke-linejoin: miter"/>
   </g>
  </g>
  <g id="axes_27">
   <g id="patch_23">
    <path d="M 425.813462 32.783338 
Q 426.338317 34.507862 426.469531 36.457324 
Q 426.600745 38.406786 426.525766 40.956083 
Q 426.450786 43.505379 426.488276 44.705048 
L 426.600745 46.054676 
L 426.600745 45.829738 
Q 426.600745 44.667559 426.319572 42.30571 
Q 426.0384 39.943862 426.0384 38.744193 
Q 426.0384 36.419834 427.050621 34.882759 
Q 428.062841 33.345683 430.087283 33.345683 
Q 430.799586 33.345683 431.136993 33.626855 
Q 431.4744 33.908028 431.736828 34.432883 
Q 431.999255 34.957738 432.336662 35.257655 
L 432.786538 36.832221 
" clip-path="url(#p69db67bf56)" style="fill: none; stroke: #000000; stroke-linejoin: miter"/>
   </g>
  </g>
  <g id="axes_28">
   <g id="patch_24">
    <path d="M 439.257798 38.160826 
Q 442.230275 39.535596 446.949083 39.721376 
Q 448.472477 39.721376 449.159862 38.550963 
Q 449.847248 37.38055 449.847248 35.82 
Q 449.847248 35.299817 449.754358 34.909679 
Q 449.661468 34.519541 449.419954 34.296606 
Q 449.17844 34.07367 449.011239 33.943624 
Q 448.844037 33.813578 448.398165 33.757844 
Q 447.952294 33.70211 447.747936 33.683532 
Q 447.543578 33.664954 446.967661 33.683532 
Q 446.391743 33.70211 446.168807 33.70211 
Q 444.125229 33.70211 442.638991 35.578486 
Q 441.152752 37.454862 441.152752 39.609908 
Q 441.152752 42.619541 443.084862 44.570229 
Q 445.016972 46.520917 448.063761 46.520917 
Q 450.218807 46.818165 451.742202 44.29156 
" clip-path="url(#pf952b35f93)" style="fill: none; stroke: #000000; stroke-linejoin: miter"/>
   </g>
  </g>
  <g id="axes_29">
   <g id="patch_25">
    <path d="M 455.384141 38.85304 
L 455.812335 38.85304 
Q 456.63304 38.85304 457.596476 38.745991 
Q 458.559912 38.638943 459.719604 38.460529 
Q 460.879295 38.282115 461.485903 38.210749 
L 468.015859 35.427489 
M 467.694714 25.793128 
Q 467.409251 25.721762 466.374449 25.275727 
Q 465.339648 24.829692 464.697357 24.93674 
Q 464.055066 24.93674 463.537665 25.150837 
Q 463.020264 25.364934 462.681278 25.793128 
Q 462.342291 26.221322 462.07467 26.685198 
Q 461.807048 27.149075 461.664317 27.862731 
Q 461.521586 28.576388 461.414537 29.129471 
Q 461.307489 29.682555 461.289648 30.50326 
Q 461.271806 31.323965 461.253965 31.77 
Q 461.236123 32.216035 461.253965 32.965374 
Q 461.271806 33.714714 461.271806 33.928811 
Q 461.271806 36.605022 461.967621 41.850396 
Q 462.663436 47.095771 462.663436 49.771982 
Q 462.59207 50.057445 462.556388 50.681894 
Q 462.520705 51.306344 462.413656 51.805903 
Q 462.306608 52.305463 462.021145 52.555242 
" clip-path="url(#pe9d3be22c7)" style="fill: none; stroke: #000000; stroke-linejoin: miter"/>
   </g>
  </g>
  <g id="axes_30">
   <g id="patch_26">
    <path d="M 473.288772 35.145186 
Q 473.288772 35.145186 473.288772 35.595062 
Q 473.288772 36.269876 473.176303 37.619503 
Q 473.063834 38.969131 473.063834 39.643945 
Q 473.063834 41.930814 474.300993 43.599103 
Q 475.538152 45.267393 477.675062 45.267393 
Q 479.062179 45.154924 479.830717 43.917766 
Q 480.599255 42.680607 480.749214 41.237255 
Q 480.899172 39.793903 481.1616 37.9944 
Q 481.424028 36.194897 481.836414 35.370124 
Q 481.986372 35.070207 481.986372 35.670041 
Q 481.986372 36.269876 481.723945 38.706703 
Q 481.499007 41.031062 481.499007 41.555917 
Q 481.349048 42.643117 481.686455 43.767807 
Q 482.023862 44.892497 482.736166 45.6048 
" clip-path="url(#p06a1e8f7b2)" style="fill: none; stroke: #000000; stroke-linejoin: miter"/>
   </g>
  </g>
  <g id="axes_31">
   <g id="patch_27">
    <path d="M 493.706359 28.621986 
Q 493.931297 30.34651 494.006276 32.146014 
Q 494.081255 33.945517 494.06251 36.551048 
Q 494.043766 39.156579 494.043766 40.093821 
Q 494.043766 40.13131 494.268703 45.829738 
L 494.493641 46.841959 
" clip-path="url(#p3d6ed399df)" style="fill: none; stroke: #000000; stroke-linejoin: miter"/>
   </g>
  </g>
  <g id="axes_32"/>
  <g id="axes_33">
   <g id="patch_28">
    <path d="M 529.7616 35.032717 
Q 528.71189 34.582841 527.737159 34.69531 
Q 524.700497 35.032717 522.788524 36.701007 
Q 520.876552 38.369297 520.876552 41.330979 
Q 520.876552 43.917766 522.882248 45.6048 
Q 524.887945 47.291834 527.512221 47.291834 
Q 529.874069 47.291834 530.998759 45.361117 
Q 532.123448 43.4304 532.123448 40.881103 
Q 532.123448 39.643945 531.711062 38.706703 
Q 531.298676 37.769462 530.773821 37.300841 
Q 530.248966 36.832221 529.499172 36.119917 
Q 528.749379 35.407614 528.299503 34.69531 
L 527.062345 34.245434 
" clip-path="url(#pa0fd99907d)" style="fill: none; stroke: #000000; stroke-linejoin: miter"/>
   </g>
  </g>
  <g id="axes_34">
   <g id="patch_29">
    <path d="M 538.238731 37.282097 
L 538.238731 37.844441 
Q 538.501159 39.868883 538.538648 41.312234 
Q 538.576138 42.755586 538.482414 44.667559 
Q 538.38869 46.579531 538.38869 48.191586 
L 538.463669 39.643945 
Q 538.463669 38.144359 540.056979 37.507034 
Q 541.65029 36.86971 543.074897 37.282097 
Q 544.986869 37.844441 545.905366 39.04411 
Q 546.823862 40.243779 546.880097 41.668386 
Q 546.936331 43.092993 546.973821 44.817517 
Q 547.01131 46.542041 547.161269 48.191586 
" clip-path="url(#pfe9fd855e8)" style="fill: none; stroke: #000000; stroke-linejoin: miter"/>
   </g>
  </g>
  <g id="axes_35"/>
  <g id="axes_36">
   <g id="patch_30">
    <path d="M 570.263834 37.95691 
L 570.938648 37.95691 
Q 571.650952 37.95691 572.438234 37.881931 
Q 573.225517 37.806952 574.181503 37.675738 
Q 575.13749 37.544524 575.662345 37.507034 
L 579.936166 35.82 
M 575.887283 30.42149 
L 575.887283 31.43371 
Q 575.887283 33.383172 575.212469 37.207117 
Q 574.537655 41.031062 574.537655 43.018014 
Q 574.537655 43.805297 574.537655 44.105214 
Q 574.537655 44.405131 574.631379 45.042455 
Q 574.725103 45.679779 574.912552 45.960952 
Q 575.1 46.242124 575.493641 46.485807 
Q 575.887283 46.72949 576.449628 46.72949 
Q 576.562097 46.692 576.880759 46.72949 
Q 577.199421 46.766979 577.386869 46.710745 
Q 577.574317 46.65451 577.574317 46.392083 
" clip-path="url(#p79554e2881)" style="fill: none; stroke: #000000; stroke-linejoin: miter"/>
   </g>
  </g>
  <g id="axes_37">
   <g id="patch_31">
    <path d="M 587.813462 35.932469 
Q 588.413297 35.257655 589.406772 34.826524 
Q 590.400248 34.395393 591.3 34.470372 
Q 591.937324 34.470372 592.42469 34.639076 
Q 592.912055 34.807779 593.230717 34.995228 
Q 593.549379 35.182676 593.774317 35.670041 
Q 593.999255 36.157407 594.111724 36.419834 
Q 594.224193 36.682262 594.280428 37.375821 
Q 594.336662 38.069379 594.355407 38.331807 
Q 594.374152 38.594234 594.355407 39.419007 
Q 594.336662 40.243779 594.336662 40.431228 
Q 594.336662 41.368469 594.167959 43.242952 
Q 593.999255 45.117434 593.999255 46.054676 
Q 593.999255 46.467062 594.05549 46.823214 
Q 594.111724 47.179366 594.205448 47.610497 
Q 594.299172 48.041628 594.336662 48.304055 
L 594.786538 48.528993 
M 588.263338 23.111007 
Q 588.488276 24.798041 588.488276 29.971614 
L 588.488276 42.3432 
L 588.150869 46.841959 
L 587.925931 47.74171 
" clip-path="url(#p5beb692aed)" style="fill: none; stroke: #000000; stroke-linejoin: miter"/>
   </g>
  </g>
  <g id="axes_38">
   <g id="patch_32">
    <path d="M 601.257798 38.160826 
Q 604.230275 39.535596 608.949083 39.721376 
Q 610.472477 39.721376 611.159862 38.550963 
Q 611.847248 37.38055 611.847248 35.82 
Q 611.847248 35.299817 611.754358 34.909679 
Q 611.661468 34.519541 611.419954 34.296606 
Q 611.17844 34.07367 611.011239 33.943624 
Q 610.844037 33.813578 610.398165 33.757844 
Q 609.952294 33.70211 609.747936 33.683532 
Q 609.543578 33.664954 608.967661 33.683532 
Q 608.391743 33.70211 608.168807 33.70211 
Q 606.125229 33.70211 604.638991 35.578486 
Q 603.152752 37.454862 603.152752 39.609908 
Q 603.152752 42.619541 605.084862 44.570229 
Q 607.016972 46.520917 610.063761 46.520917 
Q 612.218807 46.818165 613.742202 44.29156 
" clip-path="url(#pfdb5a30288)" style="fill: none; stroke: #000000; stroke-linejoin: miter"/>
   </g>
  </g>
  <g id="axes_39"/>
  <g id="axes_40">
   <g id="patch_33">
    <path d="M 639.453309 35.164853 
Q 640.108456 36.207132 641.329412 38.723493 
Q 642.550368 41.239853 643.741544 42.981949 
Q 644.932721 44.724044 646.511029 45.796103 
M 633.735662 28.017794 
Q 633.735662 27.898676 633.929228 27.913566 
Q 634.122794 27.928456 634.286581 27.973125 
Q 634.450368 28.017794 634.539706 27.928456 
Q 635.194853 27.928456 636.534926 27.749779 
Q 637.875 27.571103 638.559926 27.571103 
Q 640.9125 27.571103 642.863051 29.030294 
Q 644.813603 30.489485 644.813603 32.663382 
Q 644.813603 33.407868 644.247794 33.988566 
Q 643.681985 34.569265 642.684375 34.896838 
Q 641.686765 35.224412 640.689154 35.447757 
Q 639.691544 35.671103 638.39614 35.760441 
Q 637.100735 35.849779 636.430699 35.864669 
Q 635.760662 35.879559 634.986397 35.879559 
Q 634.8375 35.849779 634.435478 35.849779 
Q 634.033456 35.849779 633.765441 35.80511 
Q 633.497426 35.760441 633.288971 35.611544 
M 635.969118 27.571103 
L 635.969118 28.017794 
Q 635.969118 28.702721 636.192463 30.057684 
Q 636.415809 31.412647 636.415809 32.127353 
Q 636.415809 33.735441 636.237132 36.951618 
Q 636.058456 40.167794 636.058456 41.775882 
L 636.058456 42.758603 
L 636.326471 45.617426 
" clip-path="url(#p78a6720eca)" style="fill: none; stroke: #000000; stroke-linejoin: miter"/>
   </g>
  </g>
  <g id="axes_41">
   <g id="patch_34">
    <path d="M 649.389365 28.678662 
Q 649.611664 28.511938 650.403602 28.609194 
Q 651.19554 28.706449 651.473413 28.5953 
Q 654.391081 28.5953 656.989194 29.984666 
Q 659.587307 31.374031 661.198971 33.888782 
Q 662.810635 36.403533 662.810635 39.43235 
Q 662.810635 41.377461 661.601887 42.669571 
Q 660.393139 43.961681 658.781475 44.447959 
Q 657.169811 44.934237 655.308062 44.934237 
Q 655.002401 44.906449 653.557461 44.836981 
Q 652.112521 44.767513 651.237221 44.503533 
Q 650.361921 44.239554 649.889537 43.600446 
M 652.64048 28.845386 
L 652.64048 29.01211 
Q 652.64048 30.401475 652.515437 33.513654 
Q 652.390395 36.625832 652.390395 38.098559 
Q 652.390395 38.904391 652.459863 39.821372 
Q 652.529331 40.738353 652.654374 41.822058 
Q 652.779417 42.905763 652.807204 43.433722 
L 652.890566 44.434065 
" clip-path="url(#p93d315b1bb)" style="fill: none; stroke: #000000; stroke-linejoin: miter"/>
   </g>
  </g>
  <g id="axes_42">
   <g id="patch_35">
    <path d="M 668.757228 43.805297 
Q 670.6692 45.342372 672.581172 45.492331 
Q 673.518414 45.492331 674.174483 45.09869 
Q 674.830552 44.705048 675.149214 44.198938 
Q 675.467876 43.692828 675.636579 42.755586 
Q 675.805283 41.818345 675.824028 41.256 
Q 675.842772 40.693655 675.842772 39.643945 
Q 675.842772 39.419007 675.842772 39.306538 
Q 675.842772 38.181848 674.905531 37.113393 
Q 673.96829 36.044938 672.918579 36.044938 
Q 672.281255 36.044938 671.25029 36.775986 
Q 670.219324 37.507034 670.219324 38.069379 
Q 670.219324 37.582014 669.600745 34.69531 
Q 668.982166 31.808607 668.982166 30.758897 
Q 669.357062 30.683917 670.331793 30.552703 
Q 671.306524 30.42149 672.056317 30.215297 
Q 672.80611 30.009103 673.368455 29.634207 
" clip-path="url(#pc5cf7be83d)" style="fill: none; stroke: #000000; stroke-linejoin: miter"/>
   </g>
  </g>
  <g id="axes_43">
   <g id="patch_36">
    <path d="M 689.00611 27.15989 
Q 688.968621 27.009931 688.724938 27.028676 
Q 688.481255 27.047421 688.443766 27.047421 
Q 687.506524 27.047421 686.737986 27.834703 
Q 685.969448 28.621986 685.969448 29.521738 
Q 685.969448 30.946345 686.962924 32.633379 
Q 687.9564 34.320414 689.118579 35.651297 
Q 690.280759 36.982179 691.274234 38.856662 
Q 692.26771 40.731145 692.26771 42.455669 
Q 692.26771 45.042455 688.106359 45.042455 
Q 686.081917 45.042455 685.407103 43.899021 
Q 684.73229 42.755586 684.73229 40.543697 
Q 684.73229 39.156579 685.444593 37.656993 
Q 686.156897 36.157407 687.037903 35.032717 
Q 687.91891 33.908028 688.631214 32.314717 
Q 689.343517 30.721407 689.343517 29.184331 
Q 689.418497 28.059641 687.656483 26.710014 
" clip-path="url(#p4f7aec943d)" style="fill: none; stroke: #000000; stroke-linejoin: miter"/>
   </g>
  </g>
 </g>
 <defs>
  <clipPath id="pb825d9c3bb">
   <rect x="5.325766" y="8.64" width="5.548469" height="54.36"/>
  </clipPath>
  <clipPath id="p0e213d24eb">
   <rect x="16.295959" y="8.64" width="16.008083" height="54.36"/>
  </clipPath>
  <clipPath id="p0e86baf75c">
   <rect x="32.4" y="8.881927" width="16.2" height="53.876147"/>
  </clipPath>
  <clipPath id="pc92acd8802">
   <rect x="49.483241" y="8.64" width="14.433517" height="54.36"/>
  </clipPath>
  <clipPath id="pe64d3b58b8">
   <rect x="70.200745" y="8.64" width="5.39851" height="54.36"/>
  </clipPath>
  <clipPath id="p7b3a169544">
   <rect x="98.251945" y="8.64" width="14.09611" height="54.36"/>
  </clipPath>
  <clipPath id="p344978ebe6">
   <rect x="114.002069" y="8.64" width="14.995862" height="54.36"/>
  </clipPath>
  <clipPath id="pc5c2beb823">
   <rect x="130.989352" y="8.64" width="13.421297" height="54.36"/>
  </clipPath>
  <clipPath id="p6e82c57a77">
   <rect x="151.875559" y="8.64" width="4.048883" height="54.36"/>
  </clipPath>
  <clipPath id="pddc2c9cfe6">
   <rect x="167.831876" y="8.64" width="4.536248" height="54.36"/>
  </clipPath>
  <clipPath id="p7f90b5cb78">
   <rect x="184.031876" y="8.64" width="4.536248" height="54.36"/>
  </clipPath>
  <clipPath id="p6ac645645b">
   <rect x="210.6" y="10.936525" width="16.2" height="49.766949"/>
  </clipPath>
  <clipPath id="pe231122f04">
   <rect x="226.8" y="10.777356" width="16.2" height="50.085288"/>
  </clipPath>
  <clipPath id="p1d0da8ff12">
   <rect x="244.764248" y="8.64" width="12.671503" height="54.36"/>
  </clipPath>
  <clipPath id="p3e55675120">
   <rect x="260.589352" y="8.64" width="13.421297" height="54.36"/>
  </clipPath>
  <clipPath id="p01d3e6d2ca">
   <rect x="292.989352" y="8.64" width="13.421297" height="54.36"/>
  </clipPath>
  <clipPath id="p7f563214fc">
   <rect x="308.402069" y="8.64" width="14.995862" height="54.36"/>
  </clipPath>
  <clipPath id="pdaef5788ae">
   <rect x="341.758055" y="8.64" width="13.08389" height="54.36"/>
  </clipPath>
  <clipPath id="p909a31840d">
   <rect x="356.4" y="8.881927" width="16.2" height="53.876147"/>
  </clipPath>
  <clipPath id="p47a1e91c5e">
   <rect x="388.8" y="11.850612" width="16.2" height="47.938776"/>
  </clipPath>
  <clipPath id="pec05307591">
   <rect x="405" y="10.777356" width="16.2" height="50.085288"/>
  </clipPath>
  <clipPath id="p69db67bf56">
   <rect x="423.938979" y="8.64" width="10.722041" height="54.36"/>
  </clipPath>
  <clipPath id="pf952b35f93">
   <rect x="437.4" y="8.881927" width="16.2" height="53.876147"/>
  </clipPath>
  <clipPath id="pe9d3be22c7">
   <rect x="453.6" y="9.949956" width="16.2" height="51.740088"/>
  </clipPath>
  <clipPath id="p06a1e8f7b2">
   <rect x="471.189352" y="8.64" width="13.421297" height="54.36"/>
  </clipPath>
  <clipPath id="p3d6ed399df">
   <rect x="491.831876" y="8.64" width="4.536248" height="54.36"/>
  </clipPath>
  <clipPath id="pa0fd99907d">
   <rect x="519.002069" y="8.64" width="14.995862" height="54.36"/>
  </clipPath>
  <clipPath id="pfe9fd855e8">
   <rect x="536.364248" y="8.64" width="12.671503" height="54.36"/>
  </clipPath>
  <clipPath id="p79554e2881">
   <rect x="568.389352" y="8.64" width="13.421297" height="54.36"/>
  </clipPath>
  <clipPath id="p5beb692aed">
   <rect x="585.938979" y="8.64" width="10.722041" height="54.36"/>
  </clipPath>
  <clipPath id="pfdb5a30288">
   <rect x="599.4" y="8.881927" width="16.2" height="53.876147"/>
  </clipPath>
  <clipPath id="p78a6720eca">
   <rect x="631.8" y="14.229926" width="16.2" height="43.180147"/>
  </clipPath>
  <clipPath id="p93d315b1bb">
   <rect x="648" y="15.674202" width="16.2" height="40.291595"/>
  </clipPath>
  <clipPath id="pc5cf7be83d">
   <rect x="666.882745" y="8.64" width="10.83451" height="54.36"/>
  </clipPath>
  <clipPath id="p4f7aec943d">
   <rect x="682.857807" y="8.64" width="11.284386" height="54.36"/>
  </clipPath>
 </defs>
</svg>
