<?xml version="1.0" encoding="utf-8" standalone="no"?>
<!DOCTYPE svg PUBLIC "-//W3C//DTD SVG 1.1//EN"
  "http://www.w3.org/Graphics/SVG/1.1/DTD/svg11.dtd">
<svg xmlns:xlink="http://www.w3.org/1999/xlink" width="54pt" height="72pt" viewBox="0 0 54 72" xmlns="http://www.w3.org/2000/svg" version="1.1">
 <metadata>
  <rdf:RDF xmlns:dc="http://purl.org/dc/elements/1.1/" xmlns:cc="http://creativecommons.org/ns#" xmlns:rdf="http://www.w3.org/1999/02/22-rdf-syntax-ns#">
   <cc:Work>
    <dc:type rdf:resource="http://purl.org/dc/dcmitype/StillImage"/>
    <dc:date>2023-12-21T11:46:10.892746</dc:date>
    <dc:format>image/svg+xml</dc:format>
    <dc:creator>
     <cc:Agent>
      <dc:title>Matplotlib v3.5.1, https://matplotlib.org/</dc:title>
     </cc:Agent>
    </dc:creator>
   </cc:Work>
  </rdf:RDF>
 </metadata>
 <defs>
  <style type="text/css">*{stroke-linejoin: round; stroke-linecap: butt}</style>
 </defs>
 <g id="figure_1">
  <g id="patch_1">
   <path d="M 0 72 
L 54 72 
L 54 0 
L 0 0 
z
" style="fill: #8fff9f"/>
  </g>
  <g id="axes_1">
   <g id="patch_2">
    <path d="M 1.314935 43.209935 
L 14.885065 43.209935 
M 2.656169 30.007987 
L 13.543831 29.929091 
M 7.547727 30.323571 
L 7.547727 30.718052 
Q 7.547727 32.243377 7.639773 33.99224 
Q 7.731818 35.741104 7.88961 37.910747 
Q 8.047403 40.08039 8.1 41.211234 
L 8.257792 43.025844 
" clip-path="url(#p434f119147)" style="fill: none; stroke: #000000; stroke-linejoin: miter"/>
   </g>
  </g>
  <g id="axes_2">
   <g id="patch_3">
    <path d="M 17.514935 43.209935 
L 31.085065 43.209935 
M 18.856169 30.007987 
L 29.743831 29.929091 
M 23.747727 30.323571 
L 23.747727 30.718052 
Q 23.747727 32.243377 23.839773 33.99224 
Q 23.931818 35.741104 24.08961 37.910747 
Q 24.247403 40.08039 24.3 41.211234 
L 24.457792 43.025844 
" clip-path="url(#pe635e08911)" style="fill: none; stroke: #000000; stroke-linejoin: miter"/>
   </g>
  </g>
  <g id="axes_3">
   <g id="patch_4">
    <path d="M 33.714935 43.209935 
L 47.285065 43.209935 
M 35.056169 30.007987 
L 45.943831 29.929091 
M 39.947727 30.323571 
L 39.947727 30.718052 
Q 39.947727 32.243377 40.039773 33.99224 
Q 40.131818 35.741104 40.28961 37.910747 
Q 40.447403 40.08039 40.5 41.211234 
L 40.657792 43.025844 
" clip-path="url(#pa116bcbb46)" style="fill: none; stroke: #000000; stroke-linejoin: miter"/>
   </g>
  </g>
 </g>
 <defs>
  <clipPath id="p434f119147">
   <rect x="0" y="16.753442" width="16.2" height="38.133117"/>
  </clipPath>
  <clipPath id="pe635e08911">
   <rect x="16.2" y="16.753442" width="16.2" height="38.133117"/>
  </clipPath>
  <clipPath id="pa116bcbb46">
   <rect x="32.4" y="16.753442" width="16.2" height="38.133117"/>
  </clipPath>
 </defs>
</svg>
