<?xml version="1.0" encoding="utf-8" standalone="no"?>
<!DOCTYPE svg PUBLIC "-//W3C//DTD SVG 1.1//EN"
  "http://www.w3.org/Graphics/SVG/1.1/DTD/svg11.dtd">
<svg xmlns:xlink="http://www.w3.org/1999/xlink" width="828pt" height="72pt" viewBox="0 0 828 72" xmlns="http://www.w3.org/2000/svg" version="1.1">
 <metadata>
  <rdf:RDF xmlns:dc="http://purl.org/dc/elements/1.1/" xmlns:cc="http://creativecommons.org/ns#" xmlns:rdf="http://www.w3.org/1999/02/22-rdf-syntax-ns#">
   <cc:Work>
    <dc:type rdf:resource="http://purl.org/dc/dcmitype/StillImage"/>
    <dc:date>2023-12-21T11:45:28.218872</dc:date>
    <dc:format>image/svg+xml</dc:format>
    <dc:creator>
     <cc:Agent>
      <dc:title>Matplotlib v3.5.1, https://matplotlib.org/</dc:title>
     </cc:Agent>
    </dc:creator>
   </cc:Work>
  </rdf:RDF>
 </metadata>
 <defs>
  <style type="text/css">*{stroke-linejoin: round; stroke-linecap: butt}</style>
 </defs>
 <g id="figure_1">
  <g id="patch_1">
   <path d="M 0 72 
L 828 72 
L 828 0 
L 0 0 
z
" style="fill: #8fff9f"/>
  </g>
  <g id="axes_1">
   <g id="patch_2">
    <path d="M 8.624855 27.009931 
Q 8.699834 27.347338 8.774814 28.265834 
Q 8.849793 29.184331 8.999752 29.634207 
L 8.924772 31.058814 
M 7.275228 27.309848 
Q 7.237738 27.309848 7.200248 27.534786 
Q 7.237738 27.684745 7.350207 28.828179 
Q 7.462676 29.971614 7.725103 30.533959 
" clip-path="url(#pa983f1c99d)" style="fill: none; stroke: #000000; stroke-linejoin: miter"/>
   </g>
  </g>
  <g id="axes_2">
   <g id="patch_3">
    <path d="M 17.296076 29.835426 
Q 18.348309 32.005656 19.258051 36.631096 
Q 20.167794 41.256536 21.044655 43.251394 
Q 21.724222 43.251394 22.42571 41.979946 
Q 23.127199 40.708498 23.598512 39.173992 
Q 24.069824 37.639486 24.574019 36.368038 
Q 25.078214 35.09659 25.385115 35.09659 
Q 25.60433 35.09659 25.845467 36.378999 
Q 26.086604 37.661407 26.338701 39.206874 
Q 26.590798 40.752341 27.182679 42.03475 
Q 27.77456 43.317158 28.607578 43.317158 
Q 28.914479 43.317158 29.385792 43.130825 
Q 29.857104 42.944493 29.857104 42.725277 
L 29.857104 42.199161 
Q 29.857104 40.576969 30.076319 38.647876 
Q 30.295535 36.718782 30.6682 34.362219 
Q 31.040866 32.005656 31.172395 30.821894 
L 31.303924 29.572368 
" clip-path="url(#pb4c96e8455)" style="fill: none; stroke: #000000; stroke-linejoin: miter"/>
   </g>
  </g>
  <g id="axes_3">
   <g id="patch_4">
    <path d="M 34.257798 38.160826 
Q 37.230275 39.535596 41.949083 39.721376 
Q 43.472477 39.721376 44.159862 38.550963 
Q 44.847248 37.38055 44.847248 35.82 
Q 44.847248 35.299817 44.754358 34.909679 
Q 44.661468 34.519541 44.419954 34.296606 
Q 44.17844 34.07367 44.011239 33.943624 
Q 43.844037 33.813578 43.398165 33.757844 
Q 42.952294 33.70211 42.747936 33.683532 
Q 42.543578 33.664954 41.967661 33.683532 
Q 41.391743 33.70211 41.168807 33.70211 
Q 39.125229 33.70211 37.638991 35.578486 
Q 36.152752 37.454862 36.152752 39.609908 
Q 36.152752 42.619541 38.084862 44.570229 
Q 40.016972 46.520917 43.063761 46.520917 
Q 45.218807 46.818165 46.742202 44.29156 
" clip-path="url(#pa831eedb28)" style="fill: none; stroke: #000000; stroke-linejoin: miter"/>
   </g>
  </g>
  <g id="axes_4">
   <g id="patch_5">
    <path d="M 56.306359 28.621986 
Q 56.531297 30.34651 56.606276 32.146014 
Q 56.681255 33.945517 56.66251 36.551048 
Q 56.643766 39.156579 56.643766 40.093821 
Q 56.643766 40.13131 56.868703 45.829738 
L 57.093641 46.841959 
" clip-path="url(#pd02f63339e)" style="fill: none; stroke: #000000; stroke-linejoin: miter"/>
   </g>
  </g>
  <g id="axes_5">
   <g id="patch_6">
    <path d="M 72.506359 28.621986 
Q 72.731297 30.34651 72.806276 32.146014 
Q 72.881255 33.945517 72.86251 36.551048 
Q 72.843766 39.156579 72.843766 40.093821 
Q 72.843766 40.13131 73.068703 45.829738 
L 73.293641 46.841959 
" clip-path="url(#p30a349f2bb)" style="fill: none; stroke: #000000; stroke-linejoin: miter"/>
   </g>
  </g>
  <g id="axes_6">
   <g id="patch_7">
    <path d="M 88.387697 39.981352 
Q 89.399917 40.956083 89.737324 42.905545 
Q 89.924772 43.955255 89.512386 46.167145 
L 88.275228 47.629241 
" clip-path="url(#pee19d21efd)" style="fill: none; stroke: #000000; stroke-linejoin: miter"/>
   </g>
  </g>
  <g id="axes_7"/>
  <g id="axes_8">
   <g id="patch_8">
    <path d="M 114.714935 43.209935 
L 128.285065 43.209935 
M 116.056169 30.007987 
L 126.943831 29.929091 
M 120.947727 30.323571 
L 120.947727 30.718052 
Q 120.947727 32.243377 121.039773 33.99224 
Q 121.131818 35.741104 121.28961 37.910747 
Q 121.447403 40.08039 121.5 41.211234 
L 121.657792 43.025844 
" clip-path="url(#p28737fd698)" style="fill: none; stroke: #000000; stroke-linejoin: miter"/>
   </g>
  </g>
  <g id="axes_9">
   <g id="patch_9">
    <path d="M 137.625021 26.147669 
Q 137.587531 26.597545 137.625021 27.384828 
Q 137.66251 27.572276 137.606276 27.965917 
Q 137.550041 28.359559 137.587531 28.678221 
Q 137.625021 28.996883 137.849959 29.184331 
" clip-path="url(#pcfe42d732c)" style="fill: none; stroke: #000000; stroke-linejoin: miter"/>
   </g>
  </g>
  <g id="axes_10">
   <g id="patch_10">
    <path d="M 147.608036 34.879821 
Q 148.114286 36.073125 148.403571 42.871339 
Q 148.548214 46.632054 148.8375 46.632054 
Q 148.873661 46.632054 148.909821 46.595893 
Q 149.416071 46.017321 149.470313 44.588973 
Q 149.524554 43.160625 149.307589 41.750357 
Q 149.090625 40.340089 148.8375 38.712857 
Q 148.584375 37.085625 148.584375 36.398571 
Q 148.584375 35.169107 148.964063 33.939643 
Q 149.34375 32.710179 150.320089 32.710179 
Q 151.549554 32.710179 152.272768 34.355491 
Q 152.995982 36.000804 153.158705 37.971562 
Q 153.321429 39.942321 153.429911 41.587634 
Q 153.538393 43.232946 153.683036 43.232946 
Q 153.827679 43.232946 153.91808 41.497232 
Q 154.008482 39.761518 154.135045 37.700357 
Q 154.261607 35.639196 154.984821 33.903482 
Q 155.708036 32.167768 156.9375 32.167768 
Q 158.492411 33.035625 159.161384 34.771339 
Q 159.830357 36.507054 159.794196 38.188527 
Q 159.758036 39.87 159.776116 42.057723 
Q 159.794196 44.245446 160.191964 45.511071 
" clip-path="url(#p01081d8e8a)" style="fill: none; stroke: #000000; stroke-linejoin: miter"/>
   </g>
  </g>
  <g id="axes_11"/>
  <g id="axes_12">
   <g id="patch_11">
    <path d="M 185.906359 28.621986 
Q 186.131297 30.34651 186.206276 32.146014 
Q 186.281255 33.945517 186.26251 36.551048 
Q 186.243766 39.156579 186.243766 40.093821 
Q 186.243766 40.13131 186.468703 45.829738 
L 186.693641 46.841959 
" clip-path="url(#pcb33d8eb47)" style="fill: none; stroke: #000000; stroke-linejoin: miter"/>
   </g>
  </g>
  <g id="axes_13">
   <g id="patch_12">
    <path d="M 205.7616 35.032717 
Q 204.71189 34.582841 203.737159 34.69531 
Q 200.700497 35.032717 198.788524 36.701007 
Q 196.876552 38.369297 196.876552 41.330979 
Q 196.876552 43.917766 198.882248 45.6048 
Q 200.887945 47.291834 203.512221 47.291834 
Q 205.874069 47.291834 206.998759 45.361117 
Q 208.123448 43.4304 208.123448 40.881103 
Q 208.123448 39.643945 207.711062 38.706703 
Q 207.298676 37.769462 206.773821 37.300841 
Q 206.248966 36.832221 205.499172 36.119917 
Q 204.749379 35.407614 204.299503 34.69531 
L 203.062345 34.245434 
" clip-path="url(#p469a23ed44)" style="fill: none; stroke: #000000; stroke-linejoin: miter"/>
   </g>
  </g>
  <g id="axes_14">
   <g id="patch_13">
    <path d="M 221.9616 35.032717 
Q 220.91189 34.582841 219.937159 34.69531 
Q 216.900497 35.032717 214.988524 36.701007 
Q 213.076552 38.369297 213.076552 41.330979 
Q 213.076552 43.917766 215.082248 45.6048 
Q 217.087945 47.291834 219.712221 47.291834 
Q 222.074069 47.291834 223.198759 45.361117 
Q 224.323448 43.4304 224.323448 40.881103 
Q 224.323448 39.643945 223.911062 38.706703 
Q 223.498676 37.769462 222.973821 37.300841 
Q 222.448966 36.832221 221.699172 36.119917 
Q 220.949379 35.407614 220.499503 34.69531 
L 219.262345 34.245434 
" clip-path="url(#pecd4cc0201)" style="fill: none; stroke: #000000; stroke-linejoin: miter"/>
   </g>
  </g>
  <g id="axes_15">
   <g id="patch_14">
    <path d="M 232.931793 37.169628 
Q 234.956234 39.194069 236.718248 41.76211 
Q 238.480262 44.330152 239.342524 46.72949 
M 235.968455 31.321241 
L 235.968455 31.546179 
Q 235.968455 32.333462 235.331131 33.514386 
Q 234.693807 34.69531 233.719076 36.101172 
Q 232.744345 37.507034 232.481917 37.95691 
L 231.244759 39.643945 
M 230.457476 26.710014 
Q 232.294469 36.269876 232.481917 48.641462 
" clip-path="url(#p4c91f2ae7a)" style="fill: none; stroke: #000000; stroke-linejoin: miter"/>
   </g>
  </g>
  <g id="axes_16">
   <g id="patch_15">
    <path d="M 251.718579 29.071862 
Q 251.343683 29.146841 251.212469 29.577972 
Q 251.081255 30.009103 251.156234 30.42149 
Q 251.156234 30.571448 251.193724 30.702662 
Q 251.231214 30.833876 251.287448 30.89011 
Q 251.343683 30.946345 251.399917 31.040069 
Q 251.456152 31.133793 251.493641 31.208772 
L 251.60611 29.859145 
M 251.60611 34.020497 
Q 250.706359 39.006621 250.481421 42.793076 
L 250.931297 45.379862 
L 251.268703 46.054676 
" clip-path="url(#p829d286a5f)" style="fill: none; stroke: #000000; stroke-linejoin: miter"/>
   </g>
  </g>
  <g id="axes_17">
   <g id="patch_16">
    <path d="M 262.838731 37.282097 
L 262.838731 37.844441 
Q 263.101159 39.868883 263.138648 41.312234 
Q 263.176138 42.755586 263.082414 44.667559 
Q 262.98869 46.579531 262.98869 48.191586 
L 263.063669 39.643945 
Q 263.063669 38.144359 264.656979 37.507034 
Q 266.25029 36.86971 267.674897 37.282097 
Q 269.586869 37.844441 270.505366 39.04411 
Q 271.423862 40.243779 271.480097 41.668386 
Q 271.536331 43.092993 271.573821 44.817517 
Q 271.61131 46.542041 271.761269 48.191586 
" clip-path="url(#pd9afb2667f)" style="fill: none; stroke: #000000; stroke-linejoin: miter"/>
   </g>
  </g>
  <g id="axes_18">
   <g id="patch_17">
    <path d="M 288.287191 39.096404 
Q 288.03236 39.023596 287.06764 38.623146 
Q 286.102921 38.222697 285.44764 38.077079 
Q 284.79236 37.931461 284.137079 38.00427 
Q 281.515955 38.00427 279.877753 40.388764 
Q 278.239551 42.773258 278.239551 45.430787 
Q 278.239551 47.068989 283.481798 47.068989 
Q 285.047191 47.068989 286.375955 45.558202 
Q 287.704719 44.047416 288.378202 42.172584 
Q 289.051685 40.297753 289.051685 38.768764 
Q 289.051685 37.27618 289.015281 36.984944 
L 288.942472 38.077079 
Q 288.942472 38.550337 288.942472 38.987191 
Q 288.978876 40.188539 289.179101 42.281798 
Q 289.379326 44.375056 289.543146 46.049663 
Q 289.706966 47.72427 289.743371 49.872135 
Q 289.779775 52.02 289.615955 53.658202 
Q 289.452135 55.296404 288.887865 56.971011 
Q 288.323596 58.645618 287.395281 59.737753 
Q 286.466966 60.829888 284.865169 61.521573 
Q 283.263371 62.213258 281.115506 62.213258 
Q 279.477303 62.213258 278.385169 61.466966 
Q 277.293034 60.720674 277.293034 59.155281 
Q 277.220225 58.936854 277.256629 58.936854 
Q 277.293034 58.936854 277.402247 58.936854 
Q 277.511461 58.936854 277.511461 58.82764 
" clip-path="url(#pcb34603ab8)" style="fill: none; stroke: #000000; stroke-linejoin: miter"/>
   </g>
  </g>
  <g id="axes_19"/>
  <g id="axes_20">
   <g id="patch_18">
    <path d="M 321.443923 36.441748 
Q 320.234968 35.094627 316.262687 35.094627 
Q 314.742857 35.094627 313.965672 35.146439 
Q 313.188486 35.198252 312.18678 35.440043 
Q 311.185075 35.681834 310.701493 36.182687 
Q 310.21791 36.683539 309.872495 37.616162 
Q 309.527079 38.548785 309.527079 39.964989 
Q 309.527079 42.037484 310.943284 43.280981 
Q 312.359488 44.524478 314.293817 44.524478 
Q 316.953518 44.524478 319.716844 38.721493 
Q 321.063966 35.854542 321.063966 35.82 
Q 321.409382 35.578209 321.443923 36.441748 
Q 321.443923 37.512537 321.858422 40.362217 
Q 322.272921 43.211898 322.272921 44.524478 
" clip-path="url(#p7e5d7597dd)" style="fill: none; stroke: #000000; stroke-linejoin: miter"/>
   </g>
  </g>
  <g id="axes_21">
   <g id="patch_19">
    <path d="M 327.263834 37.95691 
L 327.938648 37.95691 
Q 328.650952 37.95691 329.438234 37.881931 
Q 330.225517 37.806952 331.181503 37.675738 
Q 332.13749 37.544524 332.662345 37.507034 
L 336.936166 35.82 
M 332.887283 30.42149 
L 332.887283 31.43371 
Q 332.887283 33.383172 332.212469 37.207117 
Q 331.537655 41.031062 331.537655 43.018014 
Q 331.537655 43.805297 331.537655 44.105214 
Q 331.537655 44.405131 331.631379 45.042455 
Q 331.725103 45.679779 331.912552 45.960952 
Q 332.1 46.242124 332.493641 46.485807 
Q 332.887283 46.72949 333.449628 46.72949 
Q 333.562097 46.692 333.880759 46.72949 
Q 334.199421 46.766979 334.386869 46.710745 
Q 334.574317 46.65451 334.574317 46.392083 
" clip-path="url(#pfa2d24f7b5)" style="fill: none; stroke: #000000; stroke-linejoin: miter"/>
   </g>
  </g>
  <g id="axes_22"/>
  <g id="axes_23">
   <g id="patch_20">
    <path d="M 359.663834 37.95691 
L 360.338648 37.95691 
Q 361.050952 37.95691 361.838234 37.881931 
Q 362.625517 37.806952 363.581503 37.675738 
Q 364.53749 37.544524 365.062345 37.507034 
L 369.336166 35.82 
M 365.287283 30.42149 
L 365.287283 31.43371 
Q 365.287283 33.383172 364.612469 37.207117 
Q 363.937655 41.031062 363.937655 43.018014 
Q 363.937655 43.805297 363.937655 44.105214 
Q 363.937655 44.405131 364.031379 45.042455 
Q 364.125103 45.679779 364.312552 45.960952 
Q 364.5 46.242124 364.893641 46.485807 
Q 365.287283 46.72949 365.849628 46.72949 
Q 365.962097 46.692 366.280759 46.72949 
Q 366.599421 46.766979 366.786869 46.710745 
Q 366.974317 46.65451 366.974317 46.392083 
" clip-path="url(#p50ecafdc8c)" style="fill: none; stroke: #000000; stroke-linejoin: miter"/>
   </g>
  </g>
  <g id="axes_24">
   <g id="patch_21">
    <path d="M 377.213462 35.932469 
Q 377.813297 35.257655 378.806772 34.826524 
Q 379.800248 34.395393 380.7 34.470372 
Q 381.337324 34.470372 381.82469 34.639076 
Q 382.312055 34.807779 382.630717 34.995228 
Q 382.949379 35.182676 383.174317 35.670041 
Q 383.399255 36.157407 383.511724 36.419834 
Q 383.624193 36.682262 383.680428 37.375821 
Q 383.736662 38.069379 383.755407 38.331807 
Q 383.774152 38.594234 383.755407 39.419007 
Q 383.736662 40.243779 383.736662 40.431228 
Q 383.736662 41.368469 383.567959 43.242952 
Q 383.399255 45.117434 383.399255 46.054676 
Q 383.399255 46.467062 383.45549 46.823214 
Q 383.511724 47.179366 383.605448 47.610497 
Q 383.699172 48.041628 383.736662 48.304055 
L 384.186538 48.528993 
M 377.663338 23.111007 
Q 377.888276 24.798041 377.888276 29.971614 
L 377.888276 42.3432 
L 377.550869 46.841959 
L 377.325931 47.74171 
" clip-path="url(#pe453973778)" style="fill: none; stroke: #000000; stroke-linejoin: miter"/>
   </g>
  </g>
  <g id="axes_25">
   <g id="patch_22">
    <path d="M 390.657798 38.160826 
Q 393.630275 39.535596 398.349083 39.721376 
Q 399.872477 39.721376 400.559862 38.550963 
Q 401.247248 37.38055 401.247248 35.82 
Q 401.247248 35.299817 401.154358 34.909679 
Q 401.061468 34.519541 400.819954 34.296606 
Q 400.57844 34.07367 400.411239 33.943624 
Q 400.244037 33.813578 399.798165 33.757844 
Q 399.352294 33.70211 399.147936 33.683532 
Q 398.943578 33.664954 398.367661 33.683532 
Q 397.791743 33.70211 397.568807 33.70211 
Q 395.525229 33.70211 394.038991 35.578486 
Q 392.552752 37.454862 392.552752 39.609908 
Q 392.552752 42.619541 394.484862 44.570229 
Q 396.416972 46.520917 399.463761 46.520917 
Q 401.618807 46.818165 403.142202 44.29156 
" clip-path="url(#pe2290dc5f9)" style="fill: none; stroke: #000000; stroke-linejoin: miter"/>
   </g>
  </g>
  <g id="axes_26"/>
  <g id="axes_27">
   <g id="patch_23">
    <path d="M 423.008036 34.879821 
Q 423.514286 36.073125 423.803571 42.871339 
Q 423.948214 46.632054 424.2375 46.632054 
Q 424.273661 46.632054 424.309821 46.595893 
Q 424.816071 46.017321 424.870313 44.588973 
Q 424.924554 43.160625 424.707589 41.750357 
Q 424.490625 40.340089 424.2375 38.712857 
Q 423.984375 37.085625 423.984375 36.398571 
Q 423.984375 35.169107 424.364062 33.939643 
Q 424.74375 32.710179 425.720089 32.710179 
Q 426.949554 32.710179 427.672768 34.355491 
Q 428.395982 36.000804 428.558705 37.971562 
Q 428.721429 39.942321 428.829911 41.587634 
Q 428.938393 43.232946 429.083036 43.232946 
Q 429.227679 43.232946 429.31808 41.497232 
Q 429.408482 39.761518 429.535045 37.700357 
Q 429.661607 35.639196 430.384821 33.903482 
Q 431.108036 32.167768 432.3375 32.167768 
Q 433.892411 33.035625 434.561384 34.771339 
Q 435.230357 36.507054 435.194196 38.188527 
Q 435.158036 39.87 435.176116 42.057723 
Q 435.194196 44.245446 435.591964 45.511071 
" clip-path="url(#pc148826cf1)" style="fill: none; stroke: #000000; stroke-linejoin: miter"/>
   </g>
  </g>
  <g id="axes_28">
   <g id="patch_24">
    <path d="M 451.043923 36.441748 
Q 449.834968 35.094627 445.862687 35.094627 
Q 444.342857 35.094627 443.565672 35.146439 
Q 442.788486 35.198252 441.78678 35.440043 
Q 440.785075 35.681834 440.301493 36.182687 
Q 439.81791 36.683539 439.472495 37.616162 
Q 439.127079 38.548785 439.127079 39.964989 
Q 439.127079 42.037484 440.543284 43.280981 
Q 441.959488 44.524478 443.893817 44.524478 
Q 446.553518 44.524478 449.316844 38.721493 
Q 450.663966 35.854542 450.663966 35.82 
Q 451.009382 35.578209 451.043923 36.441748 
Q 451.043923 37.512537 451.458422 40.362217 
Q 451.872921 43.211898 451.872921 44.524478 
" clip-path="url(#p43b9902ac9)" style="fill: none; stroke: #000000; stroke-linejoin: miter"/>
   </g>
  </g>
  <g id="axes_29">
   <g id="patch_25">
    <path d="M 456.920069 39.868883 
L 456.920069 39.419007 
Q 456.920069 37.769462 458.663338 36.682262 
Q 460.406607 35.595062 462.093641 35.595062 
Q 464.305531 35.595062 465.673903 36.794731 
Q 467.042276 37.9944 467.042276 40.20629 
Q 467.042276 42.30571 465.224028 43.336676 
Q 463.405779 44.367641 461.19389 44.367641 
Q 460.519076 44.367641 460.012966 44.255172 
Q 459.506855 44.142703 458.888276 43.917766 
Q 458.269697 43.692828 457.819821 43.580359 
L 456.695131 42.568138 
M 456.357724 36.832221 
Q 456.8076 38.444276 457.070028 40.262524 
Q 457.332455 42.080772 457.38869 43.749062 
Q 457.444924 45.417352 457.482414 47.27309 
Q 457.519903 49.128828 457.482414 50.778372 
L 457.369945 57.863917 
" clip-path="url(#p9659010d40)" style="fill: none; stroke: #000000; stroke-linejoin: miter"/>
   </g>
  </g>
  <g id="axes_30"/>
  <g id="axes_31">
   <g id="patch_26">
    <path d="M 490.613462 35.932469 
Q 491.213297 35.257655 492.206772 34.826524 
Q 493.200248 34.395393 494.1 34.470372 
Q 494.737324 34.470372 495.22469 34.639076 
Q 495.712055 34.807779 496.030717 34.995228 
Q 496.349379 35.182676 496.574317 35.670041 
Q 496.799255 36.157407 496.911724 36.419834 
Q 497.024193 36.682262 497.080428 37.375821 
Q 497.136662 38.069379 497.155407 38.331807 
Q 497.174152 38.594234 497.155407 39.419007 
Q 497.136662 40.243779 497.136662 40.431228 
Q 497.136662 41.368469 496.967959 43.242952 
Q 496.799255 45.117434 496.799255 46.054676 
Q 496.799255 46.467062 496.85549 46.823214 
Q 496.911724 47.179366 497.005448 47.610497 
Q 497.099172 48.041628 497.136662 48.304055 
L 497.586538 48.528993 
M 491.063338 23.111007 
Q 491.288276 24.798041 491.288276 29.971614 
L 491.288276 42.3432 
L 490.950869 46.841959 
L 490.725931 47.74171 
" clip-path="url(#p9d51285a4c)" style="fill: none; stroke: #000000; stroke-linejoin: miter"/>
   </g>
  </g>
  <g id="axes_32">
   <g id="patch_27">
    <path d="M 513.5616 35.032717 
Q 512.51189 34.582841 511.537159 34.69531 
Q 508.500497 35.032717 506.588524 36.701007 
Q 504.676552 38.369297 504.676552 41.330979 
Q 504.676552 43.917766 506.682248 45.6048 
Q 508.687945 47.291834 511.312221 47.291834 
Q 513.674069 47.291834 514.798759 45.361117 
Q 515.923448 43.4304 515.923448 40.881103 
Q 515.923448 39.643945 515.511062 38.706703 
Q 515.098676 37.769462 514.573821 37.300841 
Q 514.048966 36.832221 513.299172 36.119917 
Q 512.549379 35.407614 512.099503 34.69531 
L 510.862345 34.245434 
" clip-path="url(#p3101a0732d)" style="fill: none; stroke: #000000; stroke-linejoin: miter"/>
   </g>
  </g>
  <g id="axes_33">
   <g id="patch_28">
    <path d="M 522.038731 37.282097 
L 522.038731 37.844441 
Q 522.301159 39.868883 522.338648 41.312234 
Q 522.376138 42.755586 522.282414 44.667559 
Q 522.18869 46.579531 522.18869 48.191586 
L 522.263669 39.643945 
Q 522.263669 38.144359 523.856979 37.507034 
Q 525.45029 36.86971 526.874897 37.282097 
Q 528.786869 37.844441 529.705366 39.04411 
Q 530.623862 40.243779 530.680097 41.668386 
Q 530.736331 43.092993 530.773821 44.817517 
Q 530.81131 46.542041 530.961269 48.191586 
" clip-path="url(#p67b2ca495c)" style="fill: none; stroke: #000000; stroke-linejoin: miter"/>
   </g>
  </g>
  <g id="axes_34">
   <g id="patch_29">
    <path d="M 541.987697 39.981352 
Q 542.999917 40.956083 543.337324 42.905545 
Q 543.524772 43.955255 543.112386 46.167145 
L 541.875228 47.629241 
" clip-path="url(#p077ef2b7d5)" style="fill: none; stroke: #000000; stroke-linejoin: miter"/>
   </g>
  </g>
  <g id="axes_35"/>
  <g id="axes_36">
   <g id="patch_30">
    <path d="M 580.643923 36.441748 
Q 579.434968 35.094627 575.462687 35.094627 
Q 573.942857 35.094627 573.165672 35.146439 
Q 572.388486 35.198252 571.38678 35.440043 
Q 570.385075 35.681834 569.901493 36.182687 
Q 569.41791 36.683539 569.072495 37.616162 
Q 568.727079 38.548785 568.727079 39.964989 
Q 568.727079 42.037484 570.143284 43.280981 
Q 571.559488 44.524478 573.493817 44.524478 
Q 576.153518 44.524478 578.916844 38.721493 
Q 580.263966 35.854542 580.263966 35.82 
Q 580.609382 35.578209 580.643923 36.441748 
Q 580.643923 37.512537 581.058422 40.362217 
Q 581.472921 43.211898 581.472921 44.524478 
" clip-path="url(#p7661a928cc)" style="fill: none; stroke: #000000; stroke-linejoin: miter"/>
   </g>
  </g>
  <g id="axes_37">
   <g id="patch_31">
    <path d="M 586.838731 37.282097 
L 586.838731 37.844441 
Q 587.101159 39.868883 587.138648 41.312234 
Q 587.176138 42.755586 587.082414 44.667559 
Q 586.98869 46.579531 586.98869 48.191586 
L 587.063669 39.643945 
Q 587.063669 38.144359 588.656979 37.507034 
Q 590.25029 36.86971 591.674897 37.282097 
Q 593.586869 37.844441 594.505366 39.04411 
Q 595.423862 40.243779 595.480097 41.668386 
Q 595.536331 43.092993 595.573821 44.817517 
Q 595.61131 46.542041 595.761269 48.191586 
" clip-path="url(#p17ffc38388)" style="fill: none; stroke: #000000; stroke-linejoin: miter"/>
   </g>
  </g>
  <g id="axes_38">
   <g id="patch_32">
    <path d="M 611.099007 39.568966 
Q 609.749379 38.181848 607.5 38.444276 
Q 604.650786 38.444276 603.488607 39.793903 
Q 602.326428 41.143531 602.326428 44.067724 
Q 602.326428 45.56731 603.619821 46.279614 
Q 604.913214 46.991917 606.487779 46.991917 
Q 607.799917 46.991917 608.812138 45.736014 
Q 609.824359 44.48011 610.405448 42.30571 
Q 610.986538 40.13131 611.361434 37.938166 
Q 611.736331 35.745021 611.88629 33.045766 
Q 612.036248 30.34651 612.073738 28.978138 
Q 612.111228 27.609766 612.111228 26.185159 
Q 611.88629 26.260138 611.88629 29.896634 
L 611.88629 44.292662 
L 612.673572 48.229076 
" clip-path="url(#p8cdc760eb3)" style="fill: none; stroke: #000000; stroke-linejoin: miter"/>
   </g>
  </g>
  <g id="axes_39"/>
  <g id="axes_40">
   <g id="patch_33">
    <path d="M 640.518579 29.071862 
Q 640.143683 29.146841 640.012469 29.577972 
Q 639.881255 30.009103 639.956234 30.42149 
Q 639.956234 30.571448 639.993724 30.702662 
Q 640.031214 30.833876 640.087448 30.89011 
Q 640.143683 30.946345 640.199917 31.040069 
Q 640.256152 31.133793 640.293641 31.208772 
L 640.40611 29.859145 
M 640.40611 34.020497 
Q 639.506359 39.006621 639.281421 42.793076 
L 639.731297 45.379862 
L 640.068703 46.054676 
" clip-path="url(#p93cab16de5)" style="fill: none; stroke: #000000; stroke-linejoin: miter"/>
   </g>
  </g>
  <g id="axes_41">
   <g id="patch_34">
    <path d="M 651.263834 37.95691 
L 651.938648 37.95691 
Q 652.650952 37.95691 653.438234 37.881931 
Q 654.225517 37.806952 655.181503 37.675738 
Q 656.13749 37.544524 656.662345 37.507034 
L 660.936166 35.82 
M 656.887283 30.42149 
L 656.887283 31.43371 
Q 656.887283 33.383172 656.212469 37.207117 
Q 655.537655 41.031062 655.537655 43.018014 
Q 655.537655 43.805297 655.537655 44.105214 
Q 655.537655 44.405131 655.631379 45.042455 
Q 655.725103 45.679779 655.912552 45.960952 
Q 656.1 46.242124 656.493641 46.485807 
Q 656.887283 46.72949 657.449628 46.72949 
Q 657.562097 46.692 657.880759 46.72949 
Q 658.199421 46.766979 658.386869 46.710745 
Q 658.574317 46.65451 658.574317 46.392083 
" clip-path="url(#p929f62de1d)" style="fill: none; stroke: #000000; stroke-linejoin: miter"/>
   </g>
  </g>
  <g id="axes_42"/>
  <g id="axes_43">
   <g id="patch_35">
    <path d="M 682.116102 36.437797 
L 683.351695 44.778051 
Q 683.454661 45.567458 683.454661 45.60178 
Q 683.454661 45.704746 683.763559 45.704746 
Q 684.62161 45.704746 685.342373 44.778051 
Q 686.063136 43.851356 686.475 42.718729 
Q 686.886864 41.586102 687.401695 40.659407 
Q 687.916525 39.732712 688.397034 39.732712 
Q 689.014831 39.732712 689.649788 40.607924 
Q 690.284746 41.483136 690.748093 42.512797 
Q 691.211441 43.542458 691.88072 44.417669 
Q 692.55 45.292881 693.236441 45.292881 
Q 693.511017 43.782712 693.940042 39.69839 
Q 694.369068 35.614068 694.883898 33.554746 
" clip-path="url(#pcf2c1dec99)" style="fill: none; stroke: #000000; stroke-linejoin: miter"/>
   </g>
  </g>
  <g id="axes_44">
   <g id="patch_36">
    <path d="M 705.318579 29.071862 
Q 704.943683 29.146841 704.812469 29.577972 
Q 704.681255 30.009103 704.756234 30.42149 
Q 704.756234 30.571448 704.793724 30.702662 
Q 704.831214 30.833876 704.887448 30.89011 
Q 704.943683 30.946345 704.999917 31.040069 
Q 705.056152 31.133793 705.093641 31.208772 
L 705.20611 29.859145 
M 705.20611 34.020497 
Q 704.306359 39.006621 704.081421 42.793076 
L 704.531297 45.379862 
L 704.868703 46.054676 
" clip-path="url(#p055d986997)" style="fill: none; stroke: #000000; stroke-linejoin: miter"/>
   </g>
  </g>
  <g id="axes_45">
   <g id="patch_37">
    <path d="M 720.506359 28.621986 
Q 720.731297 30.34651 720.806276 32.146014 
Q 720.881255 33.945517 720.86251 36.551048 
Q 720.843766 39.156579 720.843766 40.093821 
Q 720.843766 40.13131 721.068703 45.829738 
L 721.293641 46.841959 
" clip-path="url(#p3298eb8f5f)" style="fill: none; stroke: #000000; stroke-linejoin: miter"/>
   </g>
  </g>
  <g id="axes_46">
   <g id="patch_38">
    <path d="M 736.706359 28.621986 
Q 736.931297 30.34651 737.006276 32.146014 
Q 737.081255 33.945517 737.06251 36.551048 
Q 737.043766 39.156579 737.043766 40.093821 
Q 737.043766 40.13131 737.268703 45.829738 
L 737.493641 46.841959 
" clip-path="url(#p82ff5b3280)" style="fill: none; stroke: #000000; stroke-linejoin: miter"/>
   </g>
  </g>
 </g>
 <defs>
  <clipPath id="pa983f1c99d">
   <rect x="5.325766" y="8.64" width="5.548469" height="54.36"/>
  </clipPath>
  <clipPath id="pb4c96e8455">
   <rect x="16.2" y="19.926901" width="16.2" height="31.786198"/>
  </clipPath>
  <clipPath id="pa831eedb28">
   <rect x="32.4" y="8.881927" width="16.2" height="53.876147"/>
  </clipPath>
  <clipPath id="pd02f63339e">
   <rect x="54.431876" y="8.64" width="4.536248" height="54.36"/>
  </clipPath>
  <clipPath id="p30a349f2bb">
   <rect x="70.631876" y="8.64" width="4.536248" height="54.36"/>
  </clipPath>
  <clipPath id="pee19d21efd">
   <rect x="86.400745" y="8.64" width="5.39851" height="54.36"/>
  </clipPath>
  <clipPath id="p28737fd698">
   <rect x="113.4" y="16.753442" width="16.2" height="38.133117"/>
  </clipPath>
  <clipPath id="pcfe42d732c">
   <rect x="135.675559" y="8.64" width="4.048883" height="54.36"/>
  </clipPath>
  <clipPath id="p01081d8e8a">
   <rect x="145.8" y="9.603482" width="16.2" height="52.433036"/>
  </clipPath>
  <clipPath id="pcb33d8eb47">
   <rect x="184.031876" y="8.64" width="4.536248" height="54.36"/>
  </clipPath>
  <clipPath id="p469a23ed44">
   <rect x="195.002069" y="8.64" width="14.995862" height="54.36"/>
  </clipPath>
  <clipPath id="pecd4cc0201">
   <rect x="211.202069" y="8.64" width="14.995862" height="54.36"/>
  </clipPath>
  <clipPath id="p4c91f2ae7a">
   <rect x="228.582993" y="8.64" width="12.634014" height="54.36"/>
  </clipPath>
  <clipPath id="p829d286a5f">
   <rect x="248.606938" y="8.64" width="4.986124" height="54.36"/>
  </clipPath>
  <clipPath id="pd9afb2667f">
   <rect x="260.964248" y="8.64" width="12.671503" height="54.36"/>
  </clipPath>
  <clipPath id="pcb34603ab8">
   <rect x="275.4" y="9.426742" width="16.2" height="52.786517"/>
  </clipPath>
  <clipPath id="p7e5d7597dd">
   <rect x="307.8" y="10.777356" width="16.2" height="50.085288"/>
  </clipPath>
  <clipPath id="pfa2d24f7b5">
   <rect x="325.389352" y="8.64" width="13.421297" height="54.36"/>
  </clipPath>
  <clipPath id="p50ecafdc8c">
   <rect x="357.789352" y="8.64" width="13.421297" height="54.36"/>
  </clipPath>
  <clipPath id="pe453973778">
   <rect x="375.338979" y="8.64" width="10.722041" height="54.36"/>
  </clipPath>
  <clipPath id="pe2290dc5f9">
   <rect x="388.8" y="8.881927" width="16.2" height="53.876147"/>
  </clipPath>
  <clipPath id="pc148826cf1">
   <rect x="421.2" y="9.603482" width="16.2" height="52.433036"/>
  </clipPath>
  <clipPath id="p43b9902ac9">
   <rect x="437.4" y="10.777356" width="16.2" height="50.085288"/>
  </clipPath>
  <clipPath id="p9659010d40">
   <rect x="454.483241" y="8.64" width="14.433517" height="54.36"/>
  </clipPath>
  <clipPath id="p9d51285a4c">
   <rect x="488.738979" y="8.64" width="10.722041" height="54.36"/>
  </clipPath>
  <clipPath id="p3101a0732d">
   <rect x="502.802069" y="8.64" width="14.995862" height="54.36"/>
  </clipPath>
  <clipPath id="p67b2ca495c">
   <rect x="520.164248" y="8.64" width="12.671503" height="54.36"/>
  </clipPath>
  <clipPath id="p077ef2b7d5">
   <rect x="540.000745" y="8.64" width="5.39851" height="54.36"/>
  </clipPath>
  <clipPath id="p7661a928cc">
   <rect x="567" y="10.777356" width="16.2" height="50.085288"/>
  </clipPath>
  <clipPath id="p17ffc38388">
   <rect x="584.964248" y="8.64" width="12.671503" height="54.36"/>
  </clipPath>
  <clipPath id="p8cdc760eb3">
   <rect x="600.451945" y="8.64" width="14.09611" height="54.36"/>
  </clipPath>
  <clipPath id="p93cab16de5">
   <rect x="637.406938" y="8.64" width="4.986124" height="54.36"/>
  </clipPath>
  <clipPath id="p929f62de1d">
   <rect x="649.389352" y="8.64" width="13.421297" height="54.36"/>
  </clipPath>
  <clipPath id="pcf2c1dec99">
   <rect x="680.4" y="10.936525" width="16.2" height="49.766949"/>
  </clipPath>
  <clipPath id="p055d986997">
   <rect x="702.206938" y="8.64" width="4.986124" height="54.36"/>
  </clipPath>
  <clipPath id="p3298eb8f5f">
   <rect x="718.631876" y="8.64" width="4.536248" height="54.36"/>
  </clipPath>
  <clipPath id="p82ff5b3280">
   <rect x="734.831876" y="8.64" width="4.536248" height="54.36"/>
  </clipPath>
 </defs>
</svg>
