<?xml version="1.0" encoding="utf-8" standalone="no"?>
<!DOCTYPE svg PUBLIC "-//W3C//DTD SVG 1.1//EN"
  "http://www.w3.org/Graphics/SVG/1.1/DTD/svg11.dtd">
<svg xmlns:xlink="http://www.w3.org/1999/xlink" width="900pt" height="72pt" viewBox="0 0 900 72" xmlns="http://www.w3.org/2000/svg" version="1.1">
 <metadata>
  <rdf:RDF xmlns:dc="http://purl.org/dc/elements/1.1/" xmlns:cc="http://creativecommons.org/ns#" xmlns:rdf="http://www.w3.org/1999/02/22-rdf-syntax-ns#">
   <cc:Work>
    <dc:type rdf:resource="http://purl.org/dc/dcmitype/StillImage"/>
    <dc:date>2023-12-21T11:47:48.403746</dc:date>
    <dc:format>image/svg+xml</dc:format>
    <dc:creator>
     <cc:Agent>
      <dc:title>Matplotlib v3.5.1, https://matplotlib.org/</dc:title>
     </cc:Agent>
    </dc:creator>
   </cc:Work>
  </rdf:RDF>
 </metadata>
 <defs>
  <style type="text/css">*{stroke-linejoin: round; stroke-linecap: butt}</style>
 </defs>
 <g id="figure_1">
  <g id="patch_1">
   <path d="M 0 72 
L 900 72 
L 900 0 
L 0 0 
z
" style="fill: #8fff9f"/>
  </g>
  <g id="axes_1">
   <g id="patch_2">
    <path d="M 11.699007 39.568966 
Q 10.349379 38.181848 8.1 38.444276 
Q 5.250786 38.444276 4.088607 39.793903 
Q 2.926428 41.143531 2.926428 44.067724 
Q 2.926428 45.56731 4.219821 46.279614 
Q 5.513214 46.991917 7.087779 46.991917 
Q 8.399917 46.991917 9.412138 45.736014 
Q 10.424359 44.48011 11.005448 42.30571 
Q 11.586538 40.13131 11.961434 37.938166 
Q 12.336331 35.745021 12.48629 33.045766 
Q 12.636248 30.34651 12.673738 28.978138 
Q 12.711228 27.609766 12.711228 26.185159 
Q 12.48629 26.260138 12.48629 29.896634 
L 12.48629 44.292662 
L 13.273572 48.229076 
" clip-path="url(#p7303966141)" style="fill: none; stroke: #000000; stroke-linejoin: miter"/>
   </g>
  </g>
  <g id="axes_2">
   <g id="patch_3">
    <path d="M 24.918579 29.071862 
Q 24.543683 29.146841 24.412469 29.577972 
Q 24.281255 30.009103 24.356234 30.42149 
Q 24.356234 30.571448 24.393724 30.702662 
Q 24.431214 30.833876 24.487448 30.89011 
Q 24.543683 30.946345 24.599917 31.040069 
Q 24.656152 31.133793 24.693641 31.208772 
L 24.80611 29.859145 
M 24.80611 34.020497 
Q 23.906359 39.006621 23.681421 42.793076 
L 24.131297 45.379862 
L 24.468703 46.054676 
" clip-path="url(#pc758f6fa98)" style="fill: none; stroke: #000000; stroke-linejoin: miter"/>
   </g>
  </g>
  <g id="axes_3">
   <g id="patch_4">
    <path d="M 35.663834 37.95691 
L 36.338648 37.95691 
Q 37.050952 37.95691 37.838234 37.881931 
Q 38.625517 37.806952 39.581503 37.675738 
Q 40.53749 37.544524 41.062345 37.507034 
L 45.336166 35.82 
M 41.287283 30.42149 
L 41.287283 31.43371 
Q 41.287283 33.383172 40.612469 37.207117 
Q 39.937655 41.031062 39.937655 43.018014 
Q 39.937655 43.805297 39.937655 44.105214 
Q 39.937655 44.405131 40.031379 45.042455 
Q 40.125103 45.679779 40.312552 45.960952 
Q 40.5 46.242124 40.893641 46.485807 
Q 41.287283 46.72949 41.849628 46.72949 
Q 41.962097 46.692 42.280759 46.72949 
Q 42.599421 46.766979 42.786869 46.710745 
Q 42.974317 46.65451 42.974317 46.392083 
" clip-path="url(#pf2ab234618)" style="fill: none; stroke: #000000; stroke-linejoin: miter"/>
   </g>
  </g>
  <g id="axes_4">
   <g id="patch_5">
    <path d="M 51.863834 37.95691 
L 52.538648 37.95691 
Q 53.250952 37.95691 54.038234 37.881931 
Q 54.825517 37.806952 55.781503 37.675738 
Q 56.73749 37.544524 57.262345 37.507034 
L 61.536166 35.82 
M 57.487283 30.42149 
L 57.487283 31.43371 
Q 57.487283 33.383172 56.812469 37.207117 
Q 56.137655 41.031062 56.137655 43.018014 
Q 56.137655 43.805297 56.137655 44.105214 
Q 56.137655 44.405131 56.231379 45.042455 
Q 56.325103 45.679779 56.512552 45.960952 
Q 56.7 46.242124 57.093641 46.485807 
Q 57.487283 46.72949 58.049628 46.72949 
Q 58.162097 46.692 58.480759 46.72949 
Q 58.799421 46.766979 58.986869 46.710745 
Q 59.174317 46.65451 59.174317 46.392083 
" clip-path="url(#p4f05b112b4)" style="fill: none; stroke: #000000; stroke-linejoin: miter"/>
   </g>
  </g>
  <g id="axes_5">
   <g id="patch_6">
    <path d="M 67.763917 36.382345 
Q 67.726428 36.494814 67.857641 36.701007 
Q 67.988855 36.9072 67.876386 37.057159 
L 67.876386 39.306538 
Q 67.876386 40.506207 68.213793 41.724621 
Q 68.5512 42.943034 69.413462 43.93651 
Q 70.275724 44.929986 71.475393 44.929986 
Q 72.712552 44.929986 73.387366 43.861531 
Q 74.062179 42.793076 74.512055 41.143531 
Q 74.961931 39.493986 75.299338 38.969131 
L 76.086621 36.382345 
L 75.861683 42.680607 
L 75.861683 45.154924 
Q 75.861683 47.066897 76.592731 51.00331 
Q 77.323779 54.939724 77.323779 56.964166 
Q 78.073572 59.213545 76.986372 60.188276 
Q 75.899172 61.163007 73.837241 60.78811 
Q 72.037738 60.488193 71.119241 60.169531 
Q 70.200745 59.850869 68.213793 58.988607 
L 68.101324 58.426262 
" clip-path="url(#p7255576269)" style="fill: none; stroke: #000000; stroke-linejoin: miter"/>
   </g>
  </g>
  <g id="axes_6"/>
  <g id="axes_7">
   <g id="patch_7">
    <path d="M 101.757228 37.244607 
Q 102.806938 37.207117 102.994386 37.132138 
Q 106.405945 37.132138 108.186703 39.212814 
Q 109.967462 41.29349 109.967462 44.780028 
Q 109.967462 47.704221 105.356234 47.704221 
Q 104.71891 47.704221 104.17531 47.591752 
Q 103.63171 47.479283 102.994386 47.254345 
Q 102.357062 47.029407 101.869697 46.916938 
L 100.632538 45.679779 
M 101.644759 25.435366 
L 101.644759 26.560055 
Q 101.644759 29.409269 101.757228 33.008276 
Q 101.869697 36.607283 102.057145 40.899848 
Q 102.244593 45.192414 102.319572 47.141876 
" clip-path="url(#p6fb298e975)" style="fill: none; stroke: #000000; stroke-linejoin: miter"/>
   </g>
  </g>
  <g id="axes_8">
   <g id="patch_8">
    <path d="M 116.363917 36.382345 
Q 116.326428 36.494814 116.457641 36.701007 
Q 116.588855 36.9072 116.476386 37.057159 
L 116.476386 39.306538 
Q 116.476386 40.506207 116.813793 41.724621 
Q 117.1512 42.943034 118.013462 43.93651 
Q 118.875724 44.929986 120.075393 44.929986 
Q 121.312552 44.929986 121.987366 43.861531 
Q 122.662179 42.793076 123.112055 41.143531 
Q 123.561931 39.493986 123.899338 38.969131 
L 124.686621 36.382345 
L 124.461683 42.680607 
L 124.461683 45.154924 
Q 124.461683 47.066897 125.192731 51.00331 
Q 125.923779 54.939724 125.923779 56.964166 
Q 126.673572 59.213545 125.586372 60.188276 
Q 124.499172 61.163007 122.437241 60.78811 
Q 120.637738 60.488193 119.719241 60.169531 
Q 118.800745 59.850869 116.813793 58.988607 
L 116.701324 58.426262 
" clip-path="url(#pd4b51c0c85)" style="fill: none; stroke: #000000; stroke-linejoin: miter"/>
   </g>
  </g>
  <g id="axes_9"/>
  <g id="axes_10">
   <g id="patch_9">
    <path d="M 147.848638 35.788482 
L 148.037743 35.788482 
Q 148.920233 35.788482 150.685214 35.69393 
Q 152.450195 35.599377 153.332685 35.599377 
Q 154.877043 35.599377 156.074708 35.835759 
Q 157.272374 36.07214 158.296693 36.655214 
Q 159.321012 37.238288 159.872568 38.35716 
Q 160.424125 39.476031 160.424125 41.083424 
Q 160.424125 46.567471 150.307004 46.567471 
Q 150.275486 46.567471 148.415953 46.283813 
L 147.848638 46.000156 
M 147.848638 27.562412 
Q 149.487549 26.679922 151.441634 26.71144 
Q 153.710895 26.71144 155.743774 28.035175 
Q 157.776654 29.358911 157.776654 31.533619 
Q 157.776654 32.825837 157.225097 33.582257 
Q 156.673541 34.338677 155.948638 34.527782 
Q 155.223735 34.716887 154.230934 35.06358 
Q 153.238132 35.410272 152.670817 35.883035 
L 147.848638 35.788482 
M 147.375875 27.656965 
Q 147.596498 28.949183 147.533463 32.494903 
Q 147.470428 36.040623 148.037743 37.301323 
Q 148.037743 38.309883 147.990467 40.358521 
Q 147.943191 42.40716 147.943191 43.447237 
L 147.943191 45.243735 
L 147.754086 46.000156 
" clip-path="url(#p35b756f0ba)" style="fill: none; stroke: #000000; stroke-linejoin: miter"/>
   </g>
  </g>
  <g id="axes_11">
   <g id="patch_10">
    <path d="M 170.718579 29.071862 
Q 170.343683 29.146841 170.212469 29.577972 
Q 170.081255 30.009103 170.156234 30.42149 
Q 170.156234 30.571448 170.193724 30.702662 
Q 170.231214 30.833876 170.287448 30.89011 
Q 170.343683 30.946345 170.399917 31.040069 
Q 170.456152 31.133793 170.493641 31.208772 
L 170.60611 29.859145 
M 170.60611 34.020497 
Q 169.706359 39.006621 169.481421 42.793076 
L 169.931297 45.379862 
L 170.268703 46.054676 
" clip-path="url(#pefdb5c3c9d)" style="fill: none; stroke: #000000; stroke-linejoin: miter"/>
   </g>
  </g>
  <g id="axes_12">
   <g id="patch_11">
    <path d="M 185.906359 28.621986 
Q 186.131297 30.34651 186.206276 32.146014 
Q 186.281255 33.945517 186.26251 36.551048 
Q 186.243766 39.156579 186.243766 40.093821 
Q 186.243766 40.13131 186.468703 45.829738 
L 186.693641 46.841959 
" clip-path="url(#p5e69ef2aad)" style="fill: none; stroke: #000000; stroke-linejoin: miter"/>
   </g>
  </g>
  <g id="axes_13">
   <g id="patch_12">
    <path d="M 202.106359 28.621986 
Q 202.331297 30.34651 202.406276 32.146014 
Q 202.481255 33.945517 202.46251 36.551048 
Q 202.443766 39.156579 202.443766 40.093821 
Q 202.443766 40.13131 202.668703 45.829738 
L 202.893641 46.841959 
" clip-path="url(#p480c385fa0)" style="fill: none; stroke: #000000; stroke-linejoin: miter"/>
   </g>
  </g>
  <g id="axes_14">
   <g id="patch_13">
    <path d="M 213.563917 36.382345 
Q 213.526428 36.494814 213.657641 36.701007 
Q 213.788855 36.9072 213.676386 37.057159 
L 213.676386 39.306538 
Q 213.676386 40.506207 214.013793 41.724621 
Q 214.3512 42.943034 215.213462 43.93651 
Q 216.075724 44.929986 217.275393 44.929986 
Q 218.512552 44.929986 219.187366 43.861531 
Q 219.862179 42.793076 220.312055 41.143531 
Q 220.761931 39.493986 221.099338 38.969131 
L 221.886621 36.382345 
L 221.661683 42.680607 
L 221.661683 45.154924 
Q 221.661683 47.066897 222.392731 51.00331 
Q 223.123779 54.939724 223.123779 56.964166 
Q 223.873572 59.213545 222.786372 60.188276 
Q 221.699172 61.163007 219.637241 60.78811 
Q 217.837738 60.488193 216.919241 60.169531 
Q 216.000745 59.850869 214.013793 58.988607 
L 213.901324 58.426262 
" clip-path="url(#p69965f2d12)" style="fill: none; stroke: #000000; stroke-linejoin: miter"/>
   </g>
  </g>
  <g id="axes_15"/>
  <g id="axes_16">
   <g id="patch_14">
    <path d="M 244.087248 30.470738 
L 245.261477 30.601208 
Q 247.088054 30.601208 248.925503 30.709933 
Q 250.762953 30.818658 253.002685 30.992617 
Q 255.242416 31.166577 256.677584 31.253557 
L 258.112752 31.123087 
M 250.871678 31.057852 
Q 250.936913 31.405772 250.675973 32.177718 
Q 250.415034 32.949664 250.610738 33.406309 
Q 250.610738 34.711007 250.752081 36.363624 
Q 250.893423 38.016242 251.110872 39.973289 
Q 251.328322 41.930336 251.393557 42.800134 
" clip-path="url(#p36b8fcee54)" style="fill: none; stroke: #000000; stroke-linejoin: miter"/>
   </g>
  </g>
  <g id="axes_17">
   <g id="patch_15">
    <path d="M 261.057798 38.160826 
Q 264.030275 39.535596 268.749083 39.721376 
Q 270.272477 39.721376 270.959862 38.550963 
Q 271.647248 37.38055 271.647248 35.82 
Q 271.647248 35.299817 271.554358 34.909679 
Q 271.461468 34.519541 271.219954 34.296606 
Q 270.97844 34.07367 270.811239 33.943624 
Q 270.644037 33.813578 270.198165 33.757844 
Q 269.752294 33.70211 269.547936 33.683532 
Q 269.343578 33.664954 268.767661 33.683532 
Q 268.191743 33.70211 267.968807 33.70211 
Q 265.925229 33.70211 264.438991 35.578486 
Q 262.952752 37.454862 262.952752 39.609908 
Q 262.952752 42.619541 264.884862 44.570229 
Q 266.816972 46.520917 269.863761 46.520917 
Q 272.018807 46.818165 273.542202 44.29156 
" clip-path="url(#pb4e552582a)" style="fill: none; stroke: #000000; stroke-linejoin: miter"/>
   </g>
  </g>
  <g id="axes_18">
   <g id="patch_16">
    <path d="M 289.043923 36.441748 
Q 287.834968 35.094627 283.862687 35.094627 
Q 282.342857 35.094627 281.565672 35.146439 
Q 280.788486 35.198252 279.78678 35.440043 
Q 278.785075 35.681834 278.301493 36.182687 
Q 277.81791 36.683539 277.472495 37.616162 
Q 277.127079 38.548785 277.127079 39.964989 
Q 277.127079 42.037484 278.543284 43.280981 
Q 279.959488 44.524478 281.893817 44.524478 
Q 284.553518 44.524478 287.316844 38.721493 
Q 288.663966 35.854542 288.663966 35.82 
Q 289.009382 35.578209 289.043923 36.441748 
Q 289.043923 37.512537 289.458422 40.362217 
Q 289.872921 43.211898 289.872921 44.524478 
" clip-path="url(#pd1fe93259e)" style="fill: none; stroke: #000000; stroke-linejoin: miter"/>
   </g>
  </g>
  <g id="axes_19">
   <g id="patch_17">
    <path d="M 294.920069 39.868883 
L 294.920069 39.419007 
Q 294.920069 37.769462 296.663338 36.682262 
Q 298.406607 35.595062 300.093641 35.595062 
Q 302.305531 35.595062 303.673903 36.794731 
Q 305.042276 37.9944 305.042276 40.20629 
Q 305.042276 42.30571 303.224028 43.336676 
Q 301.405779 44.367641 299.19389 44.367641 
Q 298.519076 44.367641 298.012966 44.255172 
Q 297.506855 44.142703 296.888276 43.917766 
Q 296.269697 43.692828 295.819821 43.580359 
L 294.695131 42.568138 
M 294.357724 36.832221 
Q 294.8076 38.444276 295.070028 40.262524 
Q 295.332455 42.080772 295.38869 43.749062 
Q 295.444924 45.417352 295.482414 47.27309 
Q 295.519903 49.128828 295.482414 50.778372 
L 295.369945 57.863917 
" clip-path="url(#p3064534230)" style="fill: none; stroke: #000000; stroke-linejoin: miter"/>
   </g>
  </g>
  <g id="axes_20">
   <g id="patch_18">
    <path d="M 319.1616 35.032717 
Q 318.11189 34.582841 317.137159 34.69531 
Q 314.100497 35.032717 312.188524 36.701007 
Q 310.276552 38.369297 310.276552 41.330979 
Q 310.276552 43.917766 312.282248 45.6048 
Q 314.287945 47.291834 316.912221 47.291834 
Q 319.274069 47.291834 320.398759 45.361117 
Q 321.523448 43.4304 321.523448 40.881103 
Q 321.523448 39.643945 321.111062 38.706703 
Q 320.698676 37.769462 320.173821 37.300841 
Q 319.648966 36.832221 318.899172 36.119917 
Q 318.149379 35.407614 317.699503 34.69531 
L 316.462345 34.245434 
" clip-path="url(#p3e5d569215)" style="fill: none; stroke: #000000; stroke-linejoin: miter"/>
   </g>
  </g>
  <g id="axes_21">
   <g id="patch_19">
    <path d="M 327.263834 37.95691 
L 327.938648 37.95691 
Q 328.650952 37.95691 329.438234 37.881931 
Q 330.225517 37.806952 331.181503 37.675738 
Q 332.13749 37.544524 332.662345 37.507034 
L 336.936166 35.82 
M 332.887283 30.42149 
L 332.887283 31.43371 
Q 332.887283 33.383172 332.212469 37.207117 
Q 331.537655 41.031062 331.537655 43.018014 
Q 331.537655 43.805297 331.537655 44.105214 
Q 331.537655 44.405131 331.631379 45.042455 
Q 331.725103 45.679779 331.912552 45.960952 
Q 332.1 46.242124 332.493641 46.485807 
Q 332.887283 46.72949 333.449628 46.72949 
Q 333.562097 46.692 333.880759 46.72949 
Q 334.199421 46.766979 334.386869 46.710745 
Q 334.574317 46.65451 334.574317 46.392083 
" clip-path="url(#pd99f89db33)" style="fill: none; stroke: #000000; stroke-linejoin: miter"/>
   </g>
  </g>
  <g id="axes_22"/>
  <g id="axes_23">
   <g id="patch_20">
    <path d="M 370.043923 36.441748 
Q 368.834968 35.094627 364.862687 35.094627 
Q 363.342857 35.094627 362.565672 35.146439 
Q 361.788486 35.198252 360.78678 35.440043 
Q 359.785075 35.681834 359.301493 36.182687 
Q 358.81791 36.683539 358.472495 37.616162 
Q 358.127079 38.548785 358.127079 39.964989 
Q 358.127079 42.037484 359.543284 43.280981 
Q 360.959488 44.524478 362.893817 44.524478 
Q 365.553518 44.524478 368.316844 38.721493 
Q 369.663966 35.854542 369.663966 35.82 
Q 370.009382 35.578209 370.043923 36.441748 
Q 370.043923 37.512537 370.458422 40.362217 
Q 370.872921 43.211898 370.872921 44.524478 
" clip-path="url(#pa8e0df5636)" style="fill: none; stroke: #000000; stroke-linejoin: miter"/>
   </g>
  </g>
  <g id="axes_24">
   <g id="patch_21">
    <path d="M 376.238731 37.282097 
L 376.238731 37.844441 
Q 376.501159 39.868883 376.538648 41.312234 
Q 376.576138 42.755586 376.482414 44.667559 
Q 376.38869 46.579531 376.38869 48.191586 
L 376.463669 39.643945 
Q 376.463669 38.144359 378.056979 37.507034 
Q 379.65029 36.86971 381.074897 37.282097 
Q 382.986869 37.844441 383.905366 39.04411 
Q 384.823862 40.243779 384.880097 41.668386 
Q 384.936331 43.092993 384.973821 44.817517 
Q 385.01131 46.542041 385.161269 48.191586 
" clip-path="url(#p67abd5dbdc)" style="fill: none; stroke: #000000; stroke-linejoin: miter"/>
   </g>
  </g>
  <g id="axes_25">
   <g id="patch_22">
    <path d="M 400.499007 39.568966 
Q 399.149379 38.181848 396.9 38.444276 
Q 394.050786 38.444276 392.888607 39.793903 
Q 391.726428 41.143531 391.726428 44.067724 
Q 391.726428 45.56731 393.019821 46.279614 
Q 394.313214 46.991917 395.887779 46.991917 
Q 397.199917 46.991917 398.212138 45.736014 
Q 399.224359 44.48011 399.805448 42.30571 
Q 400.386538 40.13131 400.761434 37.938166 
Q 401.136331 35.745021 401.28629 33.045766 
Q 401.436248 30.34651 401.473738 28.978138 
Q 401.511228 27.609766 401.511228 26.185159 
Q 401.28629 26.260138 401.28629 29.896634 
L 401.28629 44.292662 
L 402.073572 48.229076 
" clip-path="url(#p6fb99a24c1)" style="fill: none; stroke: #000000; stroke-linejoin: miter"/>
   </g>
  </g>
  <g id="axes_26"/>
  <g id="axes_27">
   <g id="patch_23">
    <path d="M 424.463834 37.95691 
L 425.138648 37.95691 
Q 425.850952 37.95691 426.638234 37.881931 
Q 427.425517 37.806952 428.381503 37.675738 
Q 429.33749 37.544524 429.862345 37.507034 
L 434.136166 35.82 
M 430.087283 30.42149 
L 430.087283 31.43371 
Q 430.087283 33.383172 429.412469 37.207117 
Q 428.737655 41.031062 428.737655 43.018014 
Q 428.737655 43.805297 428.737655 44.105214 
Q 428.737655 44.405131 428.831379 45.042455 
Q 428.925103 45.679779 429.112552 45.960952 
Q 429.3 46.242124 429.693641 46.485807 
Q 430.087283 46.72949 430.649628 46.72949 
Q 430.762097 46.692 431.080759 46.72949 
Q 431.399421 46.766979 431.586869 46.710745 
Q 431.774317 46.65451 431.774317 46.392083 
" clip-path="url(#pe767c5ab6d)" style="fill: none; stroke: #000000; stroke-linejoin: miter"/>
   </g>
  </g>
  <g id="axes_28">
   <g id="patch_24">
    <path d="M 442.013462 35.932469 
Q 442.613297 35.257655 443.606772 34.826524 
Q 444.600248 34.395393 445.5 34.470372 
Q 446.137324 34.470372 446.62469 34.639076 
Q 447.112055 34.807779 447.430717 34.995228 
Q 447.749379 35.182676 447.974317 35.670041 
Q 448.199255 36.157407 448.311724 36.419834 
Q 448.424193 36.682262 448.480428 37.375821 
Q 448.536662 38.069379 448.555407 38.331807 
Q 448.574152 38.594234 448.555407 39.419007 
Q 448.536662 40.243779 448.536662 40.431228 
Q 448.536662 41.368469 448.367959 43.242952 
Q 448.199255 45.117434 448.199255 46.054676 
Q 448.199255 46.467062 448.25549 46.823214 
Q 448.311724 47.179366 448.405448 47.610497 
Q 448.499172 48.041628 448.536662 48.304055 
L 448.986538 48.528993 
M 442.463338 23.111007 
Q 442.688276 24.798041 442.688276 29.971614 
L 442.688276 42.3432 
L 442.350869 46.841959 
L 442.125931 47.74171 
" clip-path="url(#pe5753d4132)" style="fill: none; stroke: #000000; stroke-linejoin: miter"/>
   </g>
  </g>
  <g id="axes_29">
   <g id="patch_25">
    <path d="M 455.457798 38.160826 
Q 458.430275 39.535596 463.149083 39.721376 
Q 464.672477 39.721376 465.359862 38.550963 
Q 466.047248 37.38055 466.047248 35.82 
Q 466.047248 35.299817 465.954358 34.909679 
Q 465.861468 34.519541 465.619954 34.296606 
Q 465.37844 34.07367 465.211239 33.943624 
Q 465.044037 33.813578 464.598165 33.757844 
Q 464.152294 33.70211 463.947936 33.683532 
Q 463.743578 33.664954 463.167661 33.683532 
Q 462.591743 33.70211 462.368807 33.70211 
Q 460.325229 33.70211 458.838991 35.578486 
Q 457.352752 37.454862 457.352752 39.609908 
Q 457.352752 42.619541 459.284862 44.570229 
Q 461.216972 46.520917 464.263761 46.520917 
Q 466.418807 46.818165 467.942202 44.29156 
" clip-path="url(#p7ae4ac1611)" style="fill: none; stroke: #000000; stroke-linejoin: miter"/>
   </g>
  </g>
  <g id="axes_30"/>
  <g id="axes_31">
   <g id="patch_26">
    <path d="M 488.484861 27.235936 
Q 488.484861 27.235936 490.808367 27.235936 
Q 492.099203 27.235936 492.712351 27.252072 
Q 493.325498 27.268207 494.567928 27.36502 
Q 495.810359 27.461833 496.455777 27.639323 
Q 497.101195 27.816813 498.020916 28.204064 
Q 498.940637 28.591315 499.408566 29.13992 
Q 499.876494 29.688526 500.231474 30.559841 
Q 500.586454 31.431155 500.586454 32.560637 
Q 500.586454 33.464223 500.263745 34.158048 
Q 499.941036 34.851873 499.473108 35.28753 
Q 499.005179 35.723187 498.230677 36.013625 
Q 497.456175 36.304064 496.762351 36.449283 
Q 496.068526 36.594502 495.084263 36.642908 
Q 494.1 36.691315 493.438446 36.691315 
Q 492.776892 36.691315 491.792629 36.659044 
Q 490.808367 36.626773 490.421116 36.626773 
Q 490.388845 36.626773 488.775299 36.52996 
L 487.613546 35.852271 
M 489.065737 27.526375 
L 489.065737 28.010438 
Q 489.065737 29.785339 489.291633 31.818406 
Q 489.51753 33.851474 489.888645 36.336335 
Q 490.259761 38.821195 490.421116 40.112032 
L 490.840637 46.921195 
" clip-path="url(#p6442a30ea8)" style="fill: none; stroke: #000000; stroke-linejoin: miter"/>
   </g>
  </g>
  <g id="axes_32">
   <g id="patch_27">
    <path d="M 515.843923 36.441748 
Q 514.634968 35.094627 510.662687 35.094627 
Q 509.142857 35.094627 508.365672 35.146439 
Q 507.588486 35.198252 506.58678 35.440043 
Q 505.585075 35.681834 505.101493 36.182687 
Q 504.61791 36.683539 504.272495 37.616162 
Q 503.927079 38.548785 503.927079 39.964989 
Q 503.927079 42.037484 505.343284 43.280981 
Q 506.759488 44.524478 508.693817 44.524478 
Q 511.353518 44.524478 514.116844 38.721493 
Q 515.463966 35.854542 515.463966 35.82 
Q 515.809382 35.578209 515.843923 36.441748 
Q 515.843923 37.512537 516.258422 40.362217 
Q 516.672921 43.211898 516.672921 44.524478 
" clip-path="url(#p5453c1ed02)" style="fill: none; stroke: #000000; stroke-linejoin: miter"/>
   </g>
  </g>
  <g id="axes_33">
   <g id="patch_28">
    <path d="M 526.106359 28.621986 
Q 526.331297 30.34651 526.406276 32.146014 
Q 526.481255 33.945517 526.46251 36.551048 
Q 526.443766 39.156579 526.443766 40.093821 
Q 526.443766 40.13131 526.668703 45.829738 
L 526.893641 46.841959 
" clip-path="url(#pa0dfb6ce6f)" style="fill: none; stroke: #000000; stroke-linejoin: miter"/>
   </g>
  </g>
  <g id="axes_34">
   <g id="patch_29">
    <path d="M 548.243923 36.441748 
Q 547.034968 35.094627 543.062687 35.094627 
Q 541.542857 35.094627 540.765672 35.146439 
Q 539.988486 35.198252 538.98678 35.440043 
Q 537.985075 35.681834 537.501493 36.182687 
Q 537.01791 36.683539 536.672495 37.616162 
Q 536.327079 38.548785 536.327079 39.964989 
Q 536.327079 42.037484 537.743284 43.280981 
Q 539.159488 44.524478 541.093817 44.524478 
Q 543.753518 44.524478 546.516844 38.721493 
Q 547.863966 35.854542 547.863966 35.82 
Q 548.209382 35.578209 548.243923 36.441748 
Q 548.243923 37.512537 548.658422 40.362217 
Q 549.072921 43.211898 549.072921 44.524478 
" clip-path="url(#p589d39007e)" style="fill: none; stroke: #000000; stroke-linejoin: miter"/>
   </g>
  </g>
  <g id="axes_35">
   <g id="patch_30">
    <path d="M 552.608036 34.879821 
Q 553.114286 36.073125 553.403571 42.871339 
Q 553.548214 46.632054 553.8375 46.632054 
Q 553.873661 46.632054 553.909821 46.595893 
Q 554.416071 46.017321 554.470313 44.588973 
Q 554.524554 43.160625 554.307589 41.750357 
Q 554.090625 40.340089 553.8375 38.712857 
Q 553.584375 37.085625 553.584375 36.398571 
Q 553.584375 35.169107 553.964063 33.939643 
Q 554.34375 32.710179 555.320089 32.710179 
Q 556.549554 32.710179 557.272768 34.355491 
Q 557.995982 36.000804 558.158705 37.971563 
Q 558.321429 39.942321 558.429911 41.587634 
Q 558.538393 43.232946 558.683036 43.232946 
Q 558.827679 43.232946 558.91808 41.497232 
Q 559.008482 39.761518 559.135045 37.700357 
Q 559.261607 35.639196 559.984821 33.903482 
Q 560.708036 32.167768 561.9375 32.167768 
Q 563.492411 33.035625 564.161384 34.771339 
Q 564.830357 36.507054 564.794196 38.188527 
Q 564.758036 39.87 564.776116 42.057723 
Q 564.794196 44.245446 565.191964 45.511071 
" clip-path="url(#p7e4f7c3872)" style="fill: none; stroke: #000000; stroke-linejoin: miter"/>
   </g>
  </g>
  <g id="axes_36">
   <g id="patch_31">
    <path d="M 575.718579 29.071862 
Q 575.343683 29.146841 575.212469 29.577972 
Q 575.081255 30.009103 575.156234 30.42149 
Q 575.156234 30.571448 575.193724 30.702662 
Q 575.231214 30.833876 575.287448 30.89011 
Q 575.343683 30.946345 575.399917 31.040069 
Q 575.456152 31.133793 575.493641 31.208772 
L 575.60611 29.859145 
M 575.60611 34.020497 
Q 574.706359 39.006621 574.481421 42.793076 
L 574.931297 45.379862 
L 575.268703 46.054676 
" clip-path="url(#p052c21f9cb)" style="fill: none; stroke: #000000; stroke-linejoin: miter"/>
   </g>
  </g>
  <g id="axes_37">
   <g id="patch_32">
    <path d="M 586.838731 37.282097 
L 586.838731 37.844441 
Q 587.101159 39.868883 587.138648 41.312234 
Q 587.176138 42.755586 587.082414 44.667559 
Q 586.98869 46.579531 586.98869 48.191586 
L 587.063669 39.643945 
Q 587.063669 38.144359 588.656979 37.507034 
Q 590.25029 36.86971 591.674897 37.282097 
Q 593.586869 37.844441 594.505366 39.04411 
Q 595.423862 40.243779 595.480097 41.668386 
Q 595.536331 43.092993 595.573821 44.817517 
Q 595.61131 46.542041 595.761269 48.191586 
" clip-path="url(#pcbfeb72f53)" style="fill: none; stroke: #000000; stroke-linejoin: miter"/>
   </g>
  </g>
  <g id="axes_38">
   <g id="patch_33">
    <path d="M 610.7616 35.032717 
Q 609.71189 34.582841 608.737159 34.69531 
Q 605.700497 35.032717 603.788524 36.701007 
Q 601.876552 38.369297 601.876552 41.330979 
Q 601.876552 43.917766 603.882248 45.6048 
Q 605.887945 47.291834 608.512221 47.291834 
Q 610.874069 47.291834 611.998759 45.361117 
Q 613.123448 43.4304 613.123448 40.881103 
Q 613.123448 39.643945 612.711062 38.706703 
Q 612.298676 37.769462 611.773821 37.300841 
Q 611.248966 36.832221 610.499172 36.119917 
Q 609.749379 35.407614 609.299503 34.69531 
L 608.062345 34.245434 
" clip-path="url(#p807b81a8a4)" style="fill: none; stroke: #000000; stroke-linejoin: miter"/>
   </g>
  </g>
  <g id="axes_39"/>
  <g id="axes_40">
   <g id="patch_34">
    <path d="M 634.284861 27.235936 
Q 634.284861 27.235936 636.608367 27.235936 
Q 637.899203 27.235936 638.512351 27.252072 
Q 639.125498 27.268207 640.367928 27.36502 
Q 641.610359 27.461833 642.255777 27.639323 
Q 642.901195 27.816813 643.820916 28.204064 
Q 644.740637 28.591315 645.208566 29.13992 
Q 645.676494 29.688526 646.031474 30.559841 
Q 646.386454 31.431155 646.386454 32.560637 
Q 646.386454 33.464223 646.063745 34.158048 
Q 645.741036 34.851873 645.273108 35.28753 
Q 644.805179 35.723187 644.030677 36.013625 
Q 643.256175 36.304064 642.562351 36.449283 
Q 641.868526 36.594502 640.884263 36.642908 
Q 639.9 36.691315 639.238446 36.691315 
Q 638.576892 36.691315 637.592629 36.659044 
Q 636.608367 36.626773 636.221116 36.626773 
Q 636.188845 36.626773 634.575299 36.52996 
L 633.413546 35.852271 
M 634.865737 27.526375 
L 634.865737 28.010438 
Q 634.865737 29.785339 635.091633 31.818406 
Q 635.31753 33.851474 635.688645 36.336335 
Q 636.059761 38.821195 636.221116 40.112032 
L 636.640637 46.921195 
" clip-path="url(#p01224be406)" style="fill: none; stroke: #000000; stroke-linejoin: miter"/>
   </g>
  </g>
  <g id="axes_41">
   <g id="patch_35">
    <path d="M 652.613462 32.783338 
Q 653.138317 34.507862 653.269531 36.457324 
Q 653.400745 38.406786 653.325766 40.956083 
Q 653.250786 43.505379 653.288276 44.705048 
L 653.400745 46.054676 
L 653.400745 45.829738 
Q 653.400745 44.667559 653.119572 42.30571 
Q 652.8384 39.943862 652.8384 38.744193 
Q 652.8384 36.419834 653.850621 34.882759 
Q 654.862841 33.345683 656.887283 33.345683 
Q 657.599586 33.345683 657.936993 33.626855 
Q 658.2744 33.908028 658.536828 34.432883 
Q 658.799255 34.957738 659.136662 35.257655 
L 659.586538 36.832221 
" clip-path="url(#p9b0bfed448)" style="fill: none; stroke: #000000; stroke-linejoin: miter"/>
   </g>
  </g>
  <g id="axes_42">
   <g id="patch_36">
    <path d="M 666.057798 38.160826 
Q 669.030275 39.535596 673.749083 39.721376 
Q 675.272477 39.721376 675.959862 38.550963 
Q 676.647248 37.38055 676.647248 35.82 
Q 676.647248 35.299817 676.554358 34.909679 
Q 676.461468 34.519541 676.219954 34.296606 
Q 675.97844 34.07367 675.811239 33.943624 
Q 675.644037 33.813578 675.198165 33.757844 
Q 674.752294 33.70211 674.547936 33.683532 
Q 674.343578 33.664954 673.767661 33.683532 
Q 673.191743 33.70211 672.968807 33.70211 
Q 670.925229 33.70211 669.438991 35.578486 
Q 667.952752 37.454862 667.952752 39.609908 
Q 667.952752 42.619541 669.884862 44.570229 
Q 671.816972 46.520917 674.863761 46.520917 
Q 677.018807 46.818165 678.542202 44.29156 
" clip-path="url(#pc69efeac9b)" style="fill: none; stroke: #000000; stroke-linejoin: miter"/>
   </g>
  </g>
  <g id="axes_43">
   <g id="patch_37">
    <path d="M 683.663834 37.95691 
L 684.338648 37.95691 
Q 685.050952 37.95691 685.838234 37.881931 
Q 686.625517 37.806952 687.581503 37.675738 
Q 688.53749 37.544524 689.062345 37.507034 
L 693.336166 35.82 
M 689.287283 30.42149 
L 689.287283 31.43371 
Q 689.287283 33.383172 688.612469 37.207117 
Q 687.937655 41.031062 687.937655 43.018014 
Q 687.937655 43.805297 687.937655 44.105214 
Q 687.937655 44.405131 688.031379 45.042455 
Q 688.125103 45.679779 688.312552 45.960952 
Q 688.5 46.242124 688.893641 46.485807 
Q 689.287283 46.72949 689.849628 46.72949 
Q 689.962097 46.692 690.280759 46.72949 
Q 690.599421 46.766979 690.786869 46.710745 
Q 690.974317 46.65451 690.974317 46.392083 
" clip-path="url(#p0384a4b760)" style="fill: none; stroke: #000000; stroke-linejoin: miter"/>
   </g>
  </g>
  <g id="axes_44">
   <g id="patch_38">
    <path d="M 699.863834 37.95691 
L 700.538648 37.95691 
Q 701.250952 37.95691 702.038234 37.881931 
Q 702.825517 37.806952 703.781503 37.675738 
Q 704.73749 37.544524 705.262345 37.507034 
L 709.536166 35.82 
M 705.487283 30.42149 
L 705.487283 31.43371 
Q 705.487283 33.383172 704.812469 37.207117 
Q 704.137655 41.031062 704.137655 43.018014 
Q 704.137655 43.805297 704.137655 44.105214 
Q 704.137655 44.405131 704.231379 45.042455 
Q 704.325103 45.679779 704.512552 45.960952 
Q 704.7 46.242124 705.093641 46.485807 
Q 705.487283 46.72949 706.049628 46.72949 
Q 706.162097 46.692 706.480759 46.72949 
Q 706.799421 46.766979 706.986869 46.710745 
Q 707.174317 46.65451 707.174317 46.392083 
" clip-path="url(#pe8ae289227)" style="fill: none; stroke: #000000; stroke-linejoin: miter"/>
   </g>
  </g>
  <g id="axes_45">
   <g id="patch_39">
    <path d="M 721.518579 29.071862 
Q 721.143683 29.146841 721.012469 29.577972 
Q 720.881255 30.009103 720.956234 30.42149 
Q 720.956234 30.571448 720.993724 30.702662 
Q 721.031214 30.833876 721.087448 30.89011 
Q 721.143683 30.946345 721.199917 31.040069 
Q 721.256152 31.133793 721.293641 31.208772 
L 721.40611 29.859145 
M 721.40611 34.020497 
Q 720.506359 39.006621 720.281421 42.793076 
L 720.731297 45.379862 
L 721.068703 46.054676 
" clip-path="url(#pa400963c58)" style="fill: none; stroke: #000000; stroke-linejoin: miter"/>
   </g>
  </g>
  <g id="axes_46">
   <g id="patch_40">
    <path d="M 730.857798 38.160826 
Q 733.830275 39.535596 738.549083 39.721376 
Q 740.072477 39.721376 740.759862 38.550963 
Q 741.447248 37.38055 741.447248 35.82 
Q 741.447248 35.299817 741.354358 34.909679 
Q 741.261468 34.519541 741.019954 34.296606 
Q 740.77844 34.07367 740.611239 33.943624 
Q 740.444037 33.813578 739.998165 33.757844 
Q 739.552294 33.70211 739.347936 33.683532 
Q 739.143578 33.664954 738.567661 33.683532 
Q 737.991743 33.70211 737.768807 33.70211 
Q 735.725229 33.70211 734.238991 35.578486 
Q 732.752752 37.454862 732.752752 39.609908 
Q 732.752752 42.619541 734.684862 44.570229 
Q 736.616972 46.520917 739.663761 46.520917 
Q 741.818807 46.818165 743.342202 44.29156 
" clip-path="url(#p11d3a92814)" style="fill: none; stroke: #000000; stroke-linejoin: miter"/>
   </g>
  </g>
  <g id="axes_47">
   <g id="patch_41">
    <path d="M 748.857476 43.917766 
Q 749.157393 44.180193 750.169614 45.154924 
Q 751.181834 46.129655 751.744179 46.560786 
Q 752.306524 46.991917 753.33749 47.385559 
Q 754.368455 47.7792 755.380676 47.629241 
Q 756.05549 47.629241 756.52411 47.404303 
Q 756.992731 47.179366 757.217669 46.879448 
Q 757.442607 46.579531 757.573821 45.979697 
Q 757.705034 45.379862 757.723779 44.967476 
Q 757.742524 44.55509 757.742524 43.805297 
Q 757.742524 42.718097 756.842772 42.043283 
Q 755.943021 41.368469 754.649628 41.031062 
Q 753.356234 40.693655 752.062841 40.300014 
Q 750.769448 39.906372 749.869697 38.987876 
Q 748.969945 38.069379 748.969945 36.607283 
Q 748.969945 36.082428 749.138648 35.726276 
Q 749.307352 35.370124 749.700993 35.145186 
Q 750.094634 34.920248 750.375807 34.807779 
Q 750.656979 34.69531 751.313048 34.639076 
Q 751.969117 34.582841 752.156566 34.582841 
Q 752.344014 34.582841 753.018828 34.582841 
Q 754.218497 34.582841 754.799586 34.995228 
Q 755.380676 35.407614 755.699338 36.026193 
Q 756.018 36.644772 756.280428 36.832221 
" clip-path="url(#pf4f3e7bf78)" style="fill: none; stroke: #000000; stroke-linejoin: miter"/>
   </g>
  </g>
  <g id="axes_48">
   <g id="patch_42">
    <path d="M 768.787697 39.981352 
Q 769.799917 40.956083 770.137324 42.905545 
Q 770.324772 43.955255 769.912386 46.167145 
L 768.675228 47.629241 
" clip-path="url(#pf2f47e2540)" style="fill: none; stroke: #000000; stroke-linejoin: miter"/>
   </g>
  </g>
  <g id="axes_49"/>
  <g id="axes_50">
   <g id="patch_43">
    <path d="M 807.443923 36.441748 
Q 806.234968 35.094627 802.262687 35.094627 
Q 800.742857 35.094627 799.965672 35.146439 
Q 799.188486 35.198252 798.18678 35.440043 
Q 797.185075 35.681834 796.701493 36.182687 
Q 796.21791 36.683539 795.872495 37.616162 
Q 795.527079 38.548785 795.527079 39.964989 
Q 795.527079 42.037484 796.943284 43.280981 
Q 798.359488 44.524478 800.293817 44.524478 
Q 802.953518 44.524478 805.716844 38.721493 
Q 807.063966 35.854542 807.063966 35.82 
Q 807.409382 35.578209 807.443923 36.441748 
Q 807.443923 37.512537 807.858422 40.362217 
Q 808.272921 43.211898 808.272921 44.524478 
" clip-path="url(#p3c74fea31a)" style="fill: none; stroke: #000000; stroke-linejoin: miter"/>
   </g>
  </g>
 </g>
 <defs>
  <clipPath id="p7303966141">
   <rect x="1.051945" y="8.64" width="14.09611" height="54.36"/>
  </clipPath>
  <clipPath id="pc758f6fa98">
   <rect x="21.806938" y="8.64" width="4.986124" height="54.36"/>
  </clipPath>
  <clipPath id="pf2ab234618">
   <rect x="33.789352" y="8.64" width="13.421297" height="54.36"/>
  </clipPath>
  <clipPath id="p4f05b112b4">
   <rect x="49.989352" y="8.64" width="13.421297" height="54.36"/>
  </clipPath>
  <clipPath id="p7255576269">
   <rect x="65.851945" y="8.64" width="14.09611" height="54.36"/>
  </clipPath>
  <clipPath id="p6fb298e975">
   <rect x="98.758055" y="8.64" width="13.08389" height="54.36"/>
  </clipPath>
  <clipPath id="pd4b51c0c85">
   <rect x="114.451945" y="8.64" width="14.09611" height="54.36"/>
  </clipPath>
  <clipPath id="p35b756f0ba">
   <rect x="145.8" y="12.969805" width="16.2" height="45.700389"/>
  </clipPath>
  <clipPath id="pefdb5c3c9d">
   <rect x="167.606938" y="8.64" width="4.986124" height="54.36"/>
  </clipPath>
  <clipPath id="p5e69ef2aad">
   <rect x="184.031876" y="8.64" width="4.536248" height="54.36"/>
  </clipPath>
  <clipPath id="p480c385fa0">
   <rect x="200.231876" y="8.64" width="4.536248" height="54.36"/>
  </clipPath>
  <clipPath id="p69965f2d12">
   <rect x="211.651945" y="8.64" width="14.09611" height="54.36"/>
  </clipPath>
  <clipPath id="p36b8fcee54">
   <rect x="243" y="20.054899" width="16.2" height="31.530201"/>
  </clipPath>
  <clipPath id="pb4e552582a">
   <rect x="259.2" y="8.881927" width="16.2" height="53.876147"/>
  </clipPath>
  <clipPath id="pd1fe93259e">
   <rect x="275.4" y="10.777356" width="16.2" height="50.085288"/>
  </clipPath>
  <clipPath id="p3064534230">
   <rect x="292.483241" y="8.64" width="14.433517" height="54.36"/>
  </clipPath>
  <clipPath id="p3e5d569215">
   <rect x="308.402069" y="8.64" width="14.995862" height="54.36"/>
  </clipPath>
  <clipPath id="pd99f89db33">
   <rect x="325.389352" y="8.64" width="13.421297" height="54.36"/>
  </clipPath>
  <clipPath id="pa8e0df5636">
   <rect x="356.4" y="10.777356" width="16.2" height="50.085288"/>
  </clipPath>
  <clipPath id="p67abd5dbdc">
   <rect x="374.364248" y="8.64" width="12.671503" height="54.36"/>
  </clipPath>
  <clipPath id="p6fb99a24c1">
   <rect x="389.851945" y="8.64" width="14.09611" height="54.36"/>
  </clipPath>
  <clipPath id="pe767c5ab6d">
   <rect x="422.589352" y="8.64" width="13.421297" height="54.36"/>
  </clipPath>
  <clipPath id="pe5753d4132">
   <rect x="440.138979" y="8.64" width="10.722041" height="54.36"/>
  </clipPath>
  <clipPath id="p7ae4ac1611">
   <rect x="453.6" y="8.881927" width="16.2" height="53.876147"/>
  </clipPath>
  <clipPath id="p6442a30ea8">
   <rect x="486" y="12.423586" width="16.2" height="46.792829"/>
  </clipPath>
  <clipPath id="p5453c1ed02">
   <rect x="502.2" y="10.777356" width="16.2" height="50.085288"/>
  </clipPath>
  <clipPath id="pa0dfb6ce6f">
   <rect x="524.231876" y="8.64" width="4.536248" height="54.36"/>
  </clipPath>
  <clipPath id="p589d39007e">
   <rect x="534.6" y="10.777356" width="16.2" height="50.085288"/>
  </clipPath>
  <clipPath id="p7e4f7c3872">
   <rect x="550.8" y="9.603482" width="16.2" height="52.433036"/>
  </clipPath>
  <clipPath id="p052c21f9cb">
   <rect x="572.606938" y="8.64" width="4.986124" height="54.36"/>
  </clipPath>
  <clipPath id="pcbfeb72f53">
   <rect x="584.964248" y="8.64" width="12.671503" height="54.36"/>
  </clipPath>
  <clipPath id="p807b81a8a4">
   <rect x="600.002069" y="8.64" width="14.995862" height="54.36"/>
  </clipPath>
  <clipPath id="p01224be406">
   <rect x="631.8" y="12.423586" width="16.2" height="46.792829"/>
  </clipPath>
  <clipPath id="p9b0bfed448">
   <rect x="650.738979" y="8.64" width="10.722041" height="54.36"/>
  </clipPath>
  <clipPath id="pc69efeac9b">
   <rect x="664.2" y="8.881927" width="16.2" height="53.876147"/>
  </clipPath>
  <clipPath id="p0384a4b760">
   <rect x="681.789352" y="8.64" width="13.421297" height="54.36"/>
  </clipPath>
  <clipPath id="pe8ae289227">
   <rect x="697.989352" y="8.64" width="13.421297" height="54.36"/>
  </clipPath>
  <clipPath id="pa400963c58">
   <rect x="718.406938" y="8.64" width="4.986124" height="54.36"/>
  </clipPath>
  <clipPath id="p11d3a92814">
   <rect x="729" y="8.881927" width="16.2" height="53.876147"/>
  </clipPath>
  <clipPath id="pf4f3e7bf78">
   <rect x="746.982993" y="8.64" width="12.634014" height="54.36"/>
  </clipPath>
  <clipPath id="pf2f47e2540">
   <rect x="766.800745" y="8.64" width="5.39851" height="54.36"/>
  </clipPath>
  <clipPath id="p3c74fea31a">
   <rect x="793.8" y="10.777356" width="16.2" height="50.085288"/>
  </clipPath>
 </defs>
</svg>
