<?xml version="1.0" encoding="utf-8" standalone="no"?>
<!DOCTYPE svg PUBLIC "-//W3C//DTD SVG 1.1//EN"
  "http://www.w3.org/Graphics/SVG/1.1/DTD/svg11.dtd">
<svg xmlns:xlink="http://www.w3.org/1999/xlink" width="882pt" height="72pt" viewBox="0 0 882 72" xmlns="http://www.w3.org/2000/svg" version="1.1">
 <metadata>
  <rdf:RDF xmlns:dc="http://purl.org/dc/elements/1.1/" xmlns:cc="http://creativecommons.org/ns#" xmlns:rdf="http://www.w3.org/1999/02/22-rdf-syntax-ns#">
   <cc:Work>
    <dc:type rdf:resource="http://purl.org/dc/dcmitype/StillImage"/>
    <dc:date>2023-12-21T11:47:44.583124</dc:date>
    <dc:format>image/svg+xml</dc:format>
    <dc:creator>
     <cc:Agent>
      <dc:title>Matplotlib v3.5.1, https://matplotlib.org/</dc:title>
     </cc:Agent>
    </dc:creator>
   </cc:Work>
  </rdf:RDF>
 </metadata>
 <defs>
  <style type="text/css">*{stroke-linejoin: round; stroke-linecap: butt}</style>
 </defs>
 <g id="figure_1">
  <g id="patch_1">
   <path d="M 0 72 
L 882 72 
L 882 0 
L 0 0 
z
" style="fill: #8fff9f"/>
  </g>
  <g id="axes_1">
   <g id="patch_2">
    <path d="M 13.356735 34.365306 
Q 13.356735 34.365306 12.860816 34.365306 
Q 12.067347 34.365306 10.579592 34.067755 
Q 9.091837 33.770204 8.298367 33.770204 
Q 5.521224 33.770204 3.587143 35.224898 
Q 1.653061 36.679592 1.653061 39.423673 
Q 1.653061 40.94449 3.140816 42.399184 
Q 4.628571 43.853878 6.562653 44.663878 
Q 8.496735 45.473878 9.98449 45.473878 
Q 10.910204 45.473878 11.60449 45.110204 
Q 12.298776 44.746531 13.042653 44.118367 
Q 13.786531 43.490204 14.348571 43.192653 
L 14.546939 42.696735 
" clip-path="url(#pcce8db75c1)" style="fill: none; stroke: #000000; stroke-linejoin: miter"/>
   </g>
  </g>
  <g id="axes_2">
   <g id="patch_3">
    <path d="M 20.813462 32.783338 
Q 21.338317 34.507862 21.469531 36.457324 
Q 21.600745 38.406786 21.525766 40.956083 
Q 21.450786 43.505379 21.488276 44.705048 
L 21.600745 46.054676 
L 21.600745 45.829738 
Q 21.600745 44.667559 21.319572 42.30571 
Q 21.0384 39.943862 21.0384 38.744193 
Q 21.0384 36.419834 22.050621 34.882759 
Q 23.062841 33.345683 25.087283 33.345683 
Q 25.799586 33.345683 26.136993 33.626855 
Q 26.4744 33.908028 26.736828 34.432883 
Q 26.999255 34.957738 27.336662 35.257655 
L 27.786538 36.832221 
" clip-path="url(#pe0336625ea)" style="fill: none; stroke: #000000; stroke-linejoin: miter"/>
   </g>
  </g>
  <g id="axes_3">
   <g id="patch_4">
    <path d="M 43.7616 35.032717 
Q 42.71189 34.582841 41.737159 34.69531 
Q 38.700497 35.032717 36.788524 36.701007 
Q 34.876552 38.369297 34.876552 41.330979 
Q 34.876552 43.917766 36.882248 45.6048 
Q 38.887945 47.291834 41.512221 47.291834 
Q 43.874069 47.291834 44.998759 45.361117 
Q 46.123448 43.4304 46.123448 40.881103 
Q 46.123448 39.643945 45.711062 38.706703 
Q 45.298676 37.769462 44.773821 37.300841 
Q 44.248966 36.832221 43.499172 36.119917 
Q 42.749379 35.407614 42.299503 34.69531 
L 41.062345 34.245434 
" clip-path="url(#p388224b5c9)" style="fill: none; stroke: #000000; stroke-linejoin: miter"/>
   </g>
  </g>
  <g id="axes_4">
   <g id="patch_5">
    <path d="M 59.9616 35.032717 
Q 58.91189 34.582841 57.937159 34.69531 
Q 54.900497 35.032717 52.988524 36.701007 
Q 51.076552 38.369297 51.076552 41.330979 
Q 51.076552 43.917766 53.082248 45.6048 
Q 55.087945 47.291834 57.712221 47.291834 
Q 60.074069 47.291834 61.198759 45.361117 
Q 62.323448 43.4304 62.323448 40.881103 
Q 62.323448 39.643945 61.911062 38.706703 
Q 61.498676 37.769462 60.973821 37.300841 
Q 60.448966 36.832221 59.699172 36.119917 
Q 58.949379 35.407614 58.499503 34.69531 
L 57.262345 34.245434 
" clip-path="url(#p6277901534)" style="fill: none; stroke: #000000; stroke-linejoin: miter"/>
   </g>
  </g>
  <g id="axes_5">
   <g id="patch_6">
    <path d="M 68.438731 37.282097 
L 68.438731 37.844441 
Q 68.701159 39.868883 68.738648 41.312234 
Q 68.776138 42.755586 68.682414 44.667559 
Q 68.58869 46.579531 68.58869 48.191586 
L 68.663669 39.643945 
Q 68.663669 38.144359 70.256979 37.507034 
Q 71.85029 36.86971 73.274897 37.282097 
Q 75.186869 37.844441 76.105366 39.04411 
Q 77.023862 40.243779 77.080097 41.668386 
Q 77.136331 43.092993 77.173821 44.817517 
Q 77.21131 46.542041 77.361269 48.191586 
" clip-path="url(#p685143f4da)" style="fill: none; stroke: #000000; stroke-linejoin: miter"/>
   </g>
  </g>
  <g id="axes_6">
   <g id="patch_7">
    <path d="M 84.657476 43.917766 
Q 84.957393 44.180193 85.969614 45.154924 
Q 86.981834 46.129655 87.544179 46.560786 
Q 88.106524 46.991917 89.13749 47.385559 
Q 90.168455 47.7792 91.180676 47.629241 
Q 91.85549 47.629241 92.32411 47.404303 
Q 92.792731 47.179366 93.017669 46.879448 
Q 93.242607 46.579531 93.373821 45.979697 
Q 93.505034 45.379862 93.523779 44.967476 
Q 93.542524 44.55509 93.542524 43.805297 
Q 93.542524 42.718097 92.642772 42.043283 
Q 91.743021 41.368469 90.449628 41.031062 
Q 89.156234 40.693655 87.862841 40.300014 
Q 86.569448 39.906372 85.669697 38.987876 
Q 84.769945 38.069379 84.769945 36.607283 
Q 84.769945 36.082428 84.938648 35.726276 
Q 85.107352 35.370124 85.500993 35.145186 
Q 85.894634 34.920248 86.175807 34.807779 
Q 86.456979 34.69531 87.113048 34.639076 
Q 87.769117 34.582841 87.956566 34.582841 
Q 88.144014 34.582841 88.818828 34.582841 
Q 90.018497 34.582841 90.599586 34.995228 
Q 91.180676 35.407614 91.499338 36.026193 
Q 91.818 36.644772 92.080428 36.832221 
" clip-path="url(#p5bc4fd8fd7)" style="fill: none; stroke: #000000; stroke-linejoin: miter"/>
   </g>
  </g>
  <g id="axes_7">
   <g id="patch_8">
    <path d="M 104.587697 39.981352 
Q 105.599917 40.956083 105.937324 42.905545 
Q 106.124772 43.955255 105.712386 46.167145 
L 104.475228 47.629241 
" clip-path="url(#p1387ac4ca0)" style="fill: none; stroke: #000000; stroke-linejoin: miter"/>
   </g>
  </g>
  <g id="axes_8"/>
  <g id="axes_9">
   <g id="patch_9">
    <path d="M 143.243923 36.441748 
Q 142.034968 35.094627 138.062687 35.094627 
Q 136.542857 35.094627 135.765672 35.146439 
Q 134.988486 35.198252 133.98678 35.440043 
Q 132.985075 35.681834 132.501493 36.182687 
Q 132.01791 36.683539 131.672495 37.616162 
Q 131.327079 38.548785 131.327079 39.964989 
Q 131.327079 42.037484 132.743284 43.280981 
Q 134.159488 44.524478 136.093817 44.524478 
Q 138.753518 44.524478 141.516844 38.721493 
Q 142.863966 35.854542 142.863966 35.82 
Q 143.209382 35.578209 143.243923 36.441748 
Q 143.243923 37.512537 143.658422 40.362217 
Q 144.072921 43.211898 144.072921 44.524478 
" clip-path="url(#p433527b00e)" style="fill: none; stroke: #000000; stroke-linejoin: miter"/>
   </g>
  </g>
  <g id="axes_10">
   <g id="patch_10">
    <path d="M 149.438731 37.282097 
L 149.438731 37.844441 
Q 149.701159 39.868883 149.738648 41.312234 
Q 149.776138 42.755586 149.682414 44.667559 
Q 149.58869 46.579531 149.58869 48.191586 
L 149.663669 39.643945 
Q 149.663669 38.144359 151.256979 37.507034 
Q 152.85029 36.86971 154.274897 37.282097 
Q 156.186869 37.844441 157.105366 39.04411 
Q 158.023862 40.243779 158.080097 41.668386 
Q 158.136331 43.092993 158.173821 44.817517 
Q 158.21131 46.542041 158.361269 48.191586 
" clip-path="url(#p40d2372490)" style="fill: none; stroke: #000000; stroke-linejoin: miter"/>
   </g>
  </g>
  <g id="axes_11">
   <g id="patch_11">
    <path d="M 173.699007 39.568966 
Q 172.349379 38.181848 170.1 38.444276 
Q 167.250786 38.444276 166.088607 39.793903 
Q 164.926428 41.143531 164.926428 44.067724 
Q 164.926428 45.56731 166.219821 46.279614 
Q 167.513214 46.991917 169.087779 46.991917 
Q 170.399917 46.991917 171.412138 45.736014 
Q 172.424359 44.48011 173.005448 42.30571 
Q 173.586538 40.13131 173.961434 37.938166 
Q 174.336331 35.745021 174.48629 33.045766 
Q 174.636248 30.34651 174.673738 28.978138 
Q 174.711228 27.609766 174.711228 26.185159 
Q 174.48629 26.260138 174.48629 29.896634 
L 174.48629 44.292662 
L 175.273572 48.229076 
" clip-path="url(#pb0f24cdf1d)" style="fill: none; stroke: #000000; stroke-linejoin: miter"/>
   </g>
  </g>
  <g id="axes_12"/>
  <g id="axes_13">
   <g id="patch_12">
    <path d="M 198.057476 43.917766 
Q 198.357393 44.180193 199.369614 45.154924 
Q 200.381834 46.129655 200.944179 46.560786 
Q 201.506524 46.991917 202.53749 47.385559 
Q 203.568455 47.7792 204.580676 47.629241 
Q 205.25549 47.629241 205.72411 47.404303 
Q 206.192731 47.179366 206.417669 46.879448 
Q 206.642607 46.579531 206.773821 45.979697 
Q 206.905034 45.379862 206.923779 44.967476 
Q 206.942524 44.55509 206.942524 43.805297 
Q 206.942524 42.718097 206.042772 42.043283 
Q 205.143021 41.368469 203.849628 41.031062 
Q 202.556234 40.693655 201.262841 40.300014 
Q 199.969448 39.906372 199.069697 38.987876 
Q 198.169945 38.069379 198.169945 36.607283 
Q 198.169945 36.082428 198.338648 35.726276 
Q 198.507352 35.370124 198.900993 35.145186 
Q 199.294634 34.920248 199.575807 34.807779 
Q 199.856979 34.69531 200.513048 34.639076 
Q 201.169117 34.582841 201.356566 34.582841 
Q 201.544014 34.582841 202.218828 34.582841 
Q 203.418497 34.582841 203.999586 34.995228 
Q 204.580676 35.407614 204.899338 36.026193 
Q 205.218 36.644772 205.480428 36.832221 
" clip-path="url(#pf83e7ea2b4)" style="fill: none; stroke: #000000; stroke-linejoin: miter"/>
   </g>
  </g>
  <g id="axes_14">
   <g id="patch_13">
    <path d="M 219.318579 29.071862 
Q 218.943683 29.146841 218.812469 29.577972 
Q 218.681255 30.009103 218.756234 30.42149 
Q 218.756234 30.571448 218.793724 30.702662 
Q 218.831214 30.833876 218.887448 30.89011 
Q 218.943683 30.946345 218.999917 31.040069 
Q 219.056152 31.133793 219.093641 31.208772 
L 219.20611 29.859145 
M 219.20611 34.020497 
Q 218.306359 39.006621 218.081421 42.793076 
L 218.531297 45.379862 
L 218.868703 46.054676 
" clip-path="url(#p78ce688ae6)" style="fill: none; stroke: #000000; stroke-linejoin: miter"/>
   </g>
  </g>
  <g id="axes_15">
   <g id="patch_14">
    <path d="M 234.506359 28.621986 
Q 234.731297 30.34651 234.806276 32.146014 
Q 234.881255 33.945517 234.86251 36.551048 
Q 234.843766 39.156579 234.843766 40.093821 
Q 234.843766 40.13131 235.068703 45.829738 
L 235.293641 46.841959 
" clip-path="url(#p9d9861295e)" style="fill: none; stroke: #000000; stroke-linejoin: miter"/>
   </g>
  </g>
  <g id="axes_16">
   <g id="patch_15">
    <path d="M 246.826179 34.807779 
Q 248.438234 36.719752 249.731628 39.6252 
Q 251.025021 42.530648 251.324938 45.154924 
Q 252.374648 43.655338 253.293145 38.819172 
Q 254.211641 33.983007 255.373821 32.108524 
" clip-path="url(#pbe03f5bf15)" style="fill: none; stroke: #000000; stroke-linejoin: miter"/>
   </g>
  </g>
  <g id="axes_17">
   <g id="patch_16">
    <path d="M 261.057798 38.160826 
Q 264.030275 39.535596 268.749083 39.721376 
Q 270.272477 39.721376 270.959862 38.550963 
Q 271.647248 37.38055 271.647248 35.82 
Q 271.647248 35.299817 271.554358 34.909679 
Q 271.461468 34.519541 271.219954 34.296606 
Q 270.97844 34.07367 270.811239 33.943624 
Q 270.644037 33.813578 270.198165 33.757844 
Q 269.752294 33.70211 269.547936 33.683532 
Q 269.343578 33.664954 268.767661 33.683532 
Q 268.191743 33.70211 267.968807 33.70211 
Q 265.925229 33.70211 264.438991 35.578486 
Q 262.952752 37.454862 262.952752 39.609908 
Q 262.952752 42.619541 264.884862 44.570229 
Q 266.816972 46.520917 269.863761 46.520917 
Q 272.018807 46.818165 273.542202 44.29156 
" clip-path="url(#pe673941e59)" style="fill: none; stroke: #000000; stroke-linejoin: miter"/>
   </g>
  </g>
  <g id="axes_18">
   <g id="patch_17">
    <path d="M 280.013462 32.783338 
Q 280.538317 34.507862 280.669531 36.457324 
Q 280.800745 38.406786 280.725766 40.956083 
Q 280.650786 43.505379 280.688276 44.705048 
L 280.800745 46.054676 
L 280.800745 45.829738 
Q 280.800745 44.667559 280.519572 42.30571 
Q 280.2384 39.943862 280.2384 38.744193 
Q 280.2384 36.419834 281.250621 34.882759 
Q 282.262841 33.345683 284.287283 33.345683 
Q 284.999586 33.345683 285.336993 33.626855 
Q 285.6744 33.908028 285.936828 34.432883 
Q 286.199255 34.957738 286.536662 35.257655 
L 286.986538 36.832221 
" clip-path="url(#pdc9577b735)" style="fill: none; stroke: #000000; stroke-linejoin: miter"/>
   </g>
  </g>
  <g id="axes_19"/>
  <g id="axes_20">
   <g id="patch_18">
    <path d="M 311.457476 43.917766 
Q 311.757393 44.180193 312.769614 45.154924 
Q 313.781834 46.129655 314.344179 46.560786 
Q 314.906524 46.991917 315.93749 47.385559 
Q 316.968455 47.7792 317.980676 47.629241 
Q 318.65549 47.629241 319.12411 47.404303 
Q 319.592731 47.179366 319.817669 46.879448 
Q 320.042607 46.579531 320.173821 45.979697 
Q 320.305034 45.379862 320.323779 44.967476 
Q 320.342524 44.55509 320.342524 43.805297 
Q 320.342524 42.718097 319.442772 42.043283 
Q 318.543021 41.368469 317.249628 41.031062 
Q 315.956234 40.693655 314.662841 40.300014 
Q 313.369448 39.906372 312.469697 38.987876 
Q 311.569945 38.069379 311.569945 36.607283 
Q 311.569945 36.082428 311.738648 35.726276 
Q 311.907352 35.370124 312.300993 35.145186 
Q 312.694634 34.920248 312.975807 34.807779 
Q 313.256979 34.69531 313.913048 34.639076 
Q 314.569117 34.582841 314.756566 34.582841 
Q 314.944014 34.582841 315.618828 34.582841 
Q 316.818497 34.582841 317.399586 34.995228 
Q 317.980676 35.407614 318.299338 36.026193 
Q 318.618 36.644772 318.880428 36.832221 
" clip-path="url(#pd69214d774)" style="fill: none; stroke: #000000; stroke-linejoin: miter"/>
   </g>
  </g>
  <g id="axes_21">
   <g id="patch_19">
    <path d="M 327.320069 39.868883 
L 327.320069 39.419007 
Q 327.320069 37.769462 329.063338 36.682262 
Q 330.806607 35.595062 332.493641 35.595062 
Q 334.705531 35.595062 336.073903 36.794731 
Q 337.442276 37.9944 337.442276 40.20629 
Q 337.442276 42.30571 335.624028 43.336676 
Q 333.805779 44.367641 331.59389 44.367641 
Q 330.919076 44.367641 330.412966 44.255172 
Q 329.906855 44.142703 329.288276 43.917766 
Q 328.669697 43.692828 328.219821 43.580359 
L 327.095131 42.568138 
M 326.757724 36.832221 
Q 327.2076 38.444276 327.470028 40.262524 
Q 327.732455 42.080772 327.78869 43.749062 
Q 327.844924 45.417352 327.882414 47.27309 
Q 327.919903 49.128828 327.882414 50.778372 
L 327.769945 57.863917 
" clip-path="url(#p7812bfbf7e)" style="fill: none; stroke: #000000; stroke-linejoin: miter"/>
   </g>
  </g>
  <g id="axes_22">
   <g id="patch_20">
    <path d="M 351.5616 35.032717 
Q 350.51189 34.582841 349.537159 34.69531 
Q 346.500497 35.032717 344.588524 36.701007 
Q 342.676552 38.369297 342.676552 41.330979 
Q 342.676552 43.917766 344.682248 45.6048 
Q 346.687945 47.291834 349.312221 47.291834 
Q 351.674069 47.291834 352.798759 45.361117 
Q 353.923448 43.4304 353.923448 40.881103 
Q 353.923448 39.643945 353.511062 38.706703 
Q 353.098676 37.769462 352.573821 37.300841 
Q 352.048966 36.832221 351.299172 36.119917 
Q 350.549379 35.407614 350.099503 34.69531 
L 348.862345 34.245434 
" clip-path="url(#p314b0b7597)" style="fill: none; stroke: #000000; stroke-linejoin: miter"/>
   </g>
  </g>
  <g id="axes_23">
   <g id="patch_21">
    <path d="M 367.7616 35.032717 
Q 366.71189 34.582841 365.737159 34.69531 
Q 362.700497 35.032717 360.788524 36.701007 
Q 358.876552 38.369297 358.876552 41.330979 
Q 358.876552 43.917766 360.882248 45.6048 
Q 362.887945 47.291834 365.512221 47.291834 
Q 367.874069 47.291834 368.998759 45.361117 
Q 370.123448 43.4304 370.123448 40.881103 
Q 370.123448 39.643945 369.711062 38.706703 
Q 369.298676 37.769462 368.773821 37.300841 
Q 368.248966 36.832221 367.499172 36.119917 
Q 366.749379 35.407614 366.299503 34.69531 
L 365.062345 34.245434 
" clip-path="url(#p7c24a69adc)" style="fill: none; stroke: #000000; stroke-linejoin: miter"/>
   </g>
  </g>
  <g id="axes_24">
   <g id="patch_22">
    <path d="M 376.238731 37.282097 
L 376.238731 37.844441 
Q 376.501159 39.868883 376.538648 41.312234 
Q 376.576138 42.755586 376.482414 44.667559 
Q 376.38869 46.579531 376.38869 48.191586 
L 376.463669 39.643945 
Q 376.463669 38.144359 378.056979 37.507034 
Q 379.65029 36.86971 381.074897 37.282097 
Q 382.986869 37.844441 383.905366 39.04411 
Q 384.823862 40.243779 384.880097 41.668386 
Q 384.936331 43.092993 384.973821 44.817517 
Q 385.01131 46.542041 385.161269 48.191586 
" clip-path="url(#pe2f883edb1)" style="fill: none; stroke: #000000; stroke-linejoin: miter"/>
   </g>
  </g>
  <g id="axes_25">
   <g id="patch_23">
    <path d="M 392.457476 43.917766 
Q 392.757393 44.180193 393.769614 45.154924 
Q 394.781834 46.129655 395.344179 46.560786 
Q 395.906524 46.991917 396.93749 47.385559 
Q 397.968455 47.7792 398.980676 47.629241 
Q 399.65549 47.629241 400.12411 47.404303 
Q 400.592731 47.179366 400.817669 46.879448 
Q 401.042607 46.579531 401.173821 45.979697 
Q 401.305034 45.379862 401.323779 44.967476 
Q 401.342524 44.55509 401.342524 43.805297 
Q 401.342524 42.718097 400.442772 42.043283 
Q 399.543021 41.368469 398.249628 41.031062 
Q 396.956234 40.693655 395.662841 40.300014 
Q 394.369448 39.906372 393.469697 38.987876 
Q 392.569945 38.069379 392.569945 36.607283 
Q 392.569945 36.082428 392.738648 35.726276 
Q 392.907352 35.370124 393.300993 35.145186 
Q 393.694634 34.920248 393.975807 34.807779 
Q 394.256979 34.69531 394.913048 34.639076 
Q 395.569117 34.582841 395.756566 34.582841 
Q 395.944014 34.582841 396.618828 34.582841 
Q 397.818497 34.582841 398.399586 34.995228 
Q 398.980676 35.407614 399.299338 36.026193 
Q 399.618 36.644772 399.880428 36.832221 
" clip-path="url(#p3b8a910232)" style="fill: none; stroke: #000000; stroke-linejoin: miter"/>
   </g>
  </g>
  <g id="axes_26">
   <g id="patch_24">
    <path d="M 412.987531 45.979697 
Q 412.950041 46.017186 412.818828 46.054676 
Q 412.687614 46.092166 412.725103 46.167145 
Q 412.725103 46.579531 413.1 46.579531 
Q 413.437407 46.579531 413.437407 46.092166 
Q 413.512386 45.867228 413.231214 45.754759 
Q 412.950041 45.64229 412.762593 45.754759 
" clip-path="url(#p54af3f8641)" style="fill: none; stroke: #000000; stroke-linejoin: miter"/>
   </g>
  </g>
  <g id="axes_27"/>
  <g id="axes_28">
   <g id="patch_25">
    <path d="M 438.914019 27.825981 
Q 440.700561 29.461121 442.335701 31.80785 
Q 443.970841 34.154579 445.045794 36.213645 
Q 446.120748 38.27271 447.589346 40.831402 
Q 449.057944 43.390093 450.36 45.085794 
Q 451.419813 34.729907 451.540935 33.36729 
L 452.085981 27.825981 
M 440.004112 29.097757 
L 440.004112 30.732897 
Q 440.004112 32.913084 439.928411 35.380935 
Q 439.85271 37.848785 439.731589 40.831402 
Q 439.610467 43.814019 439.549907 45.449159 
" clip-path="url(#p520c461490)" style="fill: none; stroke: #000000; stroke-linejoin: miter"/>
   </g>
  </g>
  <g id="axes_29">
   <g id="patch_26">
    <path d="M 455.457798 38.160826 
Q 458.430275 39.535596 463.149083 39.721376 
Q 464.672477 39.721376 465.359862 38.550963 
Q 466.047248 37.38055 466.047248 35.82 
Q 466.047248 35.299817 465.954358 34.909679 
Q 465.861468 34.519541 465.619954 34.296606 
Q 465.37844 34.07367 465.211239 33.943624 
Q 465.044037 33.813578 464.598165 33.757844 
Q 464.152294 33.70211 463.947936 33.683532 
Q 463.743578 33.664954 463.167661 33.683532 
Q 462.591743 33.70211 462.368807 33.70211 
Q 460.325229 33.70211 458.838991 35.578486 
Q 457.352752 37.454862 457.352752 39.609908 
Q 457.352752 42.619541 459.284862 44.570229 
Q 461.216972 46.520917 464.263761 46.520917 
Q 466.418807 46.818165 467.942202 44.29156 
" clip-path="url(#p5ccf1230a0)" style="fill: none; stroke: #000000; stroke-linejoin: miter"/>
   </g>
  </g>
  <g id="axes_30">
   <g id="patch_27">
    <path d="M 481.499007 34.920248 
Q 480.636745 36.007448 477.525103 40.018841 
Q 474.413462 44.030234 472.726428 46.054676 
M 473.626179 36.044938 
Q 475.500662 37.319586 477.993724 40.843614 
Q 480.486786 44.367641 482.061352 45.6048 
L 483.073572 45.942207 
" clip-path="url(#pd9b4b3c775)" style="fill: none; stroke: #000000; stroke-linejoin: miter"/>
   </g>
  </g>
  <g id="axes_31">
   <g id="patch_28">
    <path d="M 489.263834 37.95691 
L 489.938648 37.95691 
Q 490.650952 37.95691 491.438234 37.881931 
Q 492.225517 37.806952 493.181503 37.675738 
Q 494.13749 37.544524 494.662345 37.507034 
L 498.936166 35.82 
M 494.887283 30.42149 
L 494.887283 31.43371 
Q 494.887283 33.383172 494.212469 37.207117 
Q 493.537655 41.031062 493.537655 43.018014 
Q 493.537655 43.805297 493.537655 44.105214 
Q 493.537655 44.405131 493.631379 45.042455 
Q 493.725103 45.679779 493.912552 45.960952 
Q 494.1 46.242124 494.493641 46.485807 
Q 494.887283 46.72949 495.449628 46.72949 
Q 495.562097 46.692 495.880759 46.72949 
Q 496.199421 46.766979 496.386869 46.710745 
Q 496.574317 46.65451 496.574317 46.392083 
" clip-path="url(#pda227558c1)" style="fill: none; stroke: #000000; stroke-linejoin: miter"/>
   </g>
  </g>
  <g id="axes_32"/>
  <g id="axes_33">
   <g id="patch_29">
    <path d="M 521.888772 35.145186 
Q 521.888772 35.145186 521.888772 35.595062 
Q 521.888772 36.269876 521.776303 37.619503 
Q 521.663834 38.969131 521.663834 39.643945 
Q 521.663834 41.930814 522.900993 43.599103 
Q 524.138152 45.267393 526.275062 45.267393 
Q 527.662179 45.154924 528.430717 43.917766 
Q 529.199255 42.680607 529.349214 41.237255 
Q 529.499172 39.793903 529.7616 37.9944 
Q 530.024028 36.194897 530.436414 35.370124 
Q 530.586372 35.070207 530.586372 35.670041 
Q 530.586372 36.269876 530.323945 38.706703 
Q 530.099007 41.031062 530.099007 41.555917 
Q 529.949048 42.643117 530.286455 43.767807 
Q 530.623862 44.892497 531.336166 45.6048 
" clip-path="url(#p6d56990982)" style="fill: none; stroke: #000000; stroke-linejoin: miter"/>
   </g>
  </g>
  <g id="axes_34">
   <g id="patch_30">
    <path d="M 537.920069 39.868883 
L 537.920069 39.419007 
Q 537.920069 37.769462 539.663338 36.682262 
Q 541.406607 35.595062 543.093641 35.595062 
Q 545.305531 35.595062 546.673903 36.794731 
Q 548.042276 37.9944 548.042276 40.20629 
Q 548.042276 42.30571 546.224028 43.336676 
Q 544.405779 44.367641 542.19389 44.367641 
Q 541.519076 44.367641 541.012966 44.255172 
Q 540.506855 44.142703 539.888276 43.917766 
Q 539.269697 43.692828 538.819821 43.580359 
L 537.695131 42.568138 
M 537.357724 36.832221 
Q 537.8076 38.444276 538.070028 40.262524 
Q 538.332455 42.080772 538.38869 43.749062 
Q 538.444924 45.417352 538.482414 47.27309 
Q 538.519903 49.128828 538.482414 50.778372 
L 538.369945 57.863917 
" clip-path="url(#pc650abcc2c)" style="fill: none; stroke: #000000; stroke-linejoin: miter"/>
   </g>
  </g>
  <g id="axes_35"/>
  <g id="axes_36">
   <g id="patch_31">
    <path d="M 568.716102 36.437797 
L 569.951695 44.778051 
Q 570.054661 45.567458 570.054661 45.60178 
Q 570.054661 45.704746 570.363559 45.704746 
Q 571.22161 45.704746 571.942373 44.778051 
Q 572.663136 43.851356 573.075 42.718729 
Q 573.486864 41.586102 574.001695 40.659407 
Q 574.516525 39.732712 574.997034 39.732712 
Q 575.614831 39.732712 576.249788 40.607924 
Q 576.884746 41.483136 577.348093 42.512797 
Q 577.811441 43.542458 578.48072 44.417669 
Q 579.15 45.292881 579.836441 45.292881 
Q 580.111017 43.782712 580.540042 39.69839 
Q 580.969068 35.614068 581.483898 33.554746 
" clip-path="url(#p3a685291a4)" style="fill: none; stroke: #000000; stroke-linejoin: miter"/>
   </g>
  </g>
  <g id="axes_37">
   <g id="patch_32">
    <path d="M 585.057798 38.160826 
Q 588.030275 39.535596 592.749083 39.721376 
Q 594.272477 39.721376 594.959862 38.550963 
Q 595.647248 37.38055 595.647248 35.82 
Q 595.647248 35.299817 595.554358 34.909679 
Q 595.461468 34.519541 595.219954 34.296606 
Q 594.97844 34.07367 594.811239 33.943624 
Q 594.644037 33.813578 594.198165 33.757844 
Q 593.752294 33.70211 593.547936 33.683532 
Q 593.343578 33.664954 592.767661 33.683532 
Q 592.191743 33.70211 591.968807 33.70211 
Q 589.925229 33.70211 588.438991 35.578486 
Q 586.952752 37.454862 586.952752 39.609908 
Q 586.952752 42.619541 588.884862 44.570229 
Q 590.816972 46.520917 593.863761 46.520917 
Q 596.018807 46.818165 597.542202 44.29156 
" clip-path="url(#pe8bdbb27df)" style="fill: none; stroke: #000000; stroke-linejoin: miter"/>
   </g>
  </g>
  <g id="axes_38"/>
  <g id="axes_39">
   <g id="patch_33">
    <path d="M 620.213462 35.932469 
Q 620.813297 35.257655 621.806772 34.826524 
Q 622.800248 34.395393 623.7 34.470372 
Q 624.337324 34.470372 624.82469 34.639076 
Q 625.312055 34.807779 625.630717 34.995228 
Q 625.949379 35.182676 626.174317 35.670041 
Q 626.399255 36.157407 626.511724 36.419834 
Q 626.624193 36.682262 626.680428 37.375821 
Q 626.736662 38.069379 626.755407 38.331807 
Q 626.774152 38.594234 626.755407 39.419007 
Q 626.736662 40.243779 626.736662 40.431228 
Q 626.736662 41.368469 626.567959 43.242952 
Q 626.399255 45.117434 626.399255 46.054676 
Q 626.399255 46.467062 626.45549 46.823214 
Q 626.511724 47.179366 626.605448 47.610497 
Q 626.699172 48.041628 626.736662 48.304055 
L 627.186538 48.528993 
M 620.663338 23.111007 
Q 620.888276 24.798041 620.888276 29.971614 
L 620.888276 42.3432 
L 620.550869 46.841959 
L 620.325931 47.74171 
" clip-path="url(#pbaa054e08a)" style="fill: none; stroke: #000000; stroke-linejoin: miter"/>
   </g>
  </g>
  <g id="axes_40">
   <g id="patch_34">
    <path d="M 645.443923 36.441748 
Q 644.234968 35.094627 640.262687 35.094627 
Q 638.742857 35.094627 637.965672 35.146439 
Q 637.188486 35.198252 636.18678 35.440043 
Q 635.185075 35.681834 634.701493 36.182687 
Q 634.21791 36.683539 633.872495 37.616162 
Q 633.527079 38.548785 633.527079 39.964989 
Q 633.527079 42.037484 634.943284 43.280981 
Q 636.359488 44.524478 638.293817 44.524478 
Q 640.953518 44.524478 643.716844 38.721493 
Q 645.063966 35.854542 645.063966 35.82 
Q 645.409382 35.578209 645.443923 36.441748 
Q 645.443923 37.512537 645.858422 40.362217 
Q 646.272921 43.211898 646.272921 44.524478 
" clip-path="url(#p3e728988e4)" style="fill: none; stroke: #000000; stroke-linejoin: miter"/>
   </g>
  </g>
  <g id="axes_41">
   <g id="patch_35">
    <path d="M 651.826179 34.807779 
Q 653.438234 36.719752 654.731628 39.6252 
Q 656.025021 42.530648 656.324938 45.154924 
Q 657.374648 43.655338 658.293145 38.819172 
Q 659.211641 33.983007 660.373821 32.108524 
" clip-path="url(#pd8db9d036b)" style="fill: none; stroke: #000000; stroke-linejoin: miter"/>
   </g>
  </g>
  <g id="axes_42">
   <g id="patch_36">
    <path d="M 666.057798 38.160826 
Q 669.030275 39.535596 673.749083 39.721376 
Q 675.272477 39.721376 675.959862 38.550963 
Q 676.647248 37.38055 676.647248 35.82 
Q 676.647248 35.299817 676.554358 34.909679 
Q 676.461468 34.519541 676.219954 34.296606 
Q 675.97844 34.07367 675.811239 33.943624 
Q 675.644037 33.813578 675.198165 33.757844 
Q 674.752294 33.70211 674.547936 33.683532 
Q 674.343578 33.664954 673.767661 33.683532 
Q 673.191743 33.70211 672.968807 33.70211 
Q 670.925229 33.70211 669.438991 35.578486 
Q 667.952752 37.454862 667.952752 39.609908 
Q 667.952752 42.619541 669.884862 44.570229 
Q 671.816972 46.520917 674.863761 46.520917 
Q 677.018807 46.818165 678.542202 44.29156 
" clip-path="url(#p6bd4243626)" style="fill: none; stroke: #000000; stroke-linejoin: miter"/>
   </g>
  </g>
  <g id="axes_43"/>
  <g id="axes_44">
   <g id="patch_37">
    <path d="M 710.243923 36.441748 
Q 709.034968 35.094627 705.062687 35.094627 
Q 703.542857 35.094627 702.765672 35.146439 
Q 701.988486 35.198252 700.98678 35.440043 
Q 699.985075 35.681834 699.501493 36.182687 
Q 699.01791 36.683539 698.672495 37.616162 
Q 698.327079 38.548785 698.327079 39.964989 
Q 698.327079 42.037484 699.743284 43.280981 
Q 701.159488 44.524478 703.093817 44.524478 
Q 705.753518 44.524478 708.516844 38.721493 
Q 709.863966 35.854542 709.863966 35.82 
Q 710.209382 35.578209 710.243923 36.441748 
Q 710.243923 37.512537 710.658422 40.362217 
Q 711.072921 43.211898 711.072921 44.524478 
" clip-path="url(#p707f94d4c3)" style="fill: none; stroke: #000000; stroke-linejoin: miter"/>
   </g>
  </g>
  <g id="axes_45"/>
  <g id="axes_46">
   <g id="patch_38">
    <path d="M 736.706359 28.621986 
Q 736.931297 30.34651 737.006276 32.146014 
Q 737.081255 33.945517 737.06251 36.551048 
Q 737.043766 39.156579 737.043766 40.093821 
Q 737.043766 40.13131 737.268703 45.829738 
L 737.493641 46.841959 
" clip-path="url(#pd3a28298dd)" style="fill: none; stroke: #000000; stroke-linejoin: miter"/>
   </g>
  </g>
  <g id="axes_47">
   <g id="patch_39">
    <path d="M 753.918579 29.071862 
Q 753.543683 29.146841 753.412469 29.577972 
Q 753.281255 30.009103 753.356234 30.42149 
Q 753.356234 30.571448 753.393724 30.702662 
Q 753.431214 30.833876 753.487448 30.89011 
Q 753.543683 30.946345 753.599917 31.040069 
Q 753.656152 31.133793 753.693641 31.208772 
L 753.80611 29.859145 
M 753.80611 34.020497 
Q 752.906359 39.006621 752.681421 42.793076 
L 753.131297 45.379862 
L 753.468703 46.054676 
" clip-path="url(#p13a7177b8c)" style="fill: none; stroke: #000000; stroke-linejoin: miter"/>
   </g>
  </g>
  <g id="axes_48">
   <g id="patch_40">
    <path d="M 769.425021 26.147669 
Q 769.387531 26.597545 769.425021 27.384828 
Q 769.46251 27.572276 769.406276 27.965917 
Q 769.350041 28.359559 769.387531 28.678221 
Q 769.425021 28.996883 769.649959 29.184331 
" clip-path="url(#p914d07cf37)" style="fill: none; stroke: #000000; stroke-linejoin: miter"/>
   </g>
  </g>
  <g id="axes_49">
   <g id="patch_41">
    <path d="M 785.306359 28.621986 
Q 785.531297 30.34651 785.606276 32.146014 
Q 785.681255 33.945517 785.66251 36.551048 
Q 785.643766 39.156579 785.643766 40.093821 
Q 785.643766 40.13131 785.868703 45.829738 
L 786.093641 46.841959 
" clip-path="url(#pd907a9f084)" style="fill: none; stroke: #000000; stroke-linejoin: miter"/>
   </g>
  </g>
 </g>
 <defs>
  <clipPath id="pcce8db75c1">
   <rect x="0" y="11.850612" width="16.2" height="47.938776"/>
  </clipPath>
  <clipPath id="pe0336625ea">
   <rect x="18.938979" y="8.64" width="10.722041" height="54.36"/>
  </clipPath>
  <clipPath id="p388224b5c9">
   <rect x="33.002069" y="8.64" width="14.995862" height="54.36"/>
  </clipPath>
  <clipPath id="p6277901534">
   <rect x="49.202069" y="8.64" width="14.995862" height="54.36"/>
  </clipPath>
  <clipPath id="p685143f4da">
   <rect x="66.564248" y="8.64" width="12.671503" height="54.36"/>
  </clipPath>
  <clipPath id="p5bc4fd8fd7">
   <rect x="82.782993" y="8.64" width="12.634014" height="54.36"/>
  </clipPath>
  <clipPath id="p1387ac4ca0">
   <rect x="102.600745" y="8.64" width="5.39851" height="54.36"/>
  </clipPath>
  <clipPath id="p433527b00e">
   <rect x="129.6" y="10.777356" width="16.2" height="50.085288"/>
  </clipPath>
  <clipPath id="p40d2372490">
   <rect x="147.564248" y="8.64" width="12.671503" height="54.36"/>
  </clipPath>
  <clipPath id="pb0f24cdf1d">
   <rect x="163.051945" y="8.64" width="14.09611" height="54.36"/>
  </clipPath>
  <clipPath id="pf83e7ea2b4">
   <rect x="196.182993" y="8.64" width="12.634014" height="54.36"/>
  </clipPath>
  <clipPath id="p78ce688ae6">
   <rect x="216.206938" y="8.64" width="4.986124" height="54.36"/>
  </clipPath>
  <clipPath id="p9d9861295e">
   <rect x="232.631876" y="8.64" width="4.536248" height="54.36"/>
  </clipPath>
  <clipPath id="pbe03f5bf15">
   <rect x="244.951697" y="8.64" width="12.296607" height="54.36"/>
  </clipPath>
  <clipPath id="pe673941e59">
   <rect x="259.2" y="8.881927" width="16.2" height="53.876147"/>
  </clipPath>
  <clipPath id="pdc9577b735">
   <rect x="278.138979" y="8.64" width="10.722041" height="54.36"/>
  </clipPath>
  <clipPath id="pd69214d774">
   <rect x="309.582993" y="8.64" width="12.634014" height="54.36"/>
  </clipPath>
  <clipPath id="p7812bfbf7e">
   <rect x="324.883241" y="8.64" width="14.433517" height="54.36"/>
  </clipPath>
  <clipPath id="p314b0b7597">
   <rect x="340.802069" y="8.64" width="14.995862" height="54.36"/>
  </clipPath>
  <clipPath id="p7c24a69adc">
   <rect x="357.002069" y="8.64" width="14.995862" height="54.36"/>
  </clipPath>
  <clipPath id="pe2f883edb1">
   <rect x="374.364248" y="8.64" width="12.671503" height="54.36"/>
  </clipPath>
  <clipPath id="p3b8a910232">
   <rect x="390.582993" y="8.64" width="12.634014" height="54.36"/>
  </clipPath>
  <clipPath id="p54af3f8641">
   <rect x="410.813131" y="8.64" width="4.573738" height="54.36"/>
  </clipPath>
  <clipPath id="p520c461490">
   <rect x="437.4" y="13.866729" width="16.2" height="43.906542"/>
  </clipPath>
  <clipPath id="p5ccf1230a0">
   <rect x="453.6" y="8.881927" width="16.2" height="53.876147"/>
  </clipPath>
  <clipPath id="pd9b4b3c775">
   <rect x="470.851945" y="8.64" width="14.09611" height="54.36"/>
  </clipPath>
  <clipPath id="pda227558c1">
   <rect x="487.389352" y="8.64" width="13.421297" height="54.36"/>
  </clipPath>
  <clipPath id="p6d56990982">
   <rect x="519.789352" y="8.64" width="13.421297" height="54.36"/>
  </clipPath>
  <clipPath id="pc650abcc2c">
   <rect x="535.483241" y="8.64" width="14.433517" height="54.36"/>
  </clipPath>
  <clipPath id="p3a685291a4">
   <rect x="567" y="10.936525" width="16.2" height="49.766949"/>
  </clipPath>
  <clipPath id="pe8bdbb27df">
   <rect x="583.2" y="8.881927" width="16.2" height="53.876147"/>
  </clipPath>
  <clipPath id="pbaa054e08a">
   <rect x="618.338979" y="8.64" width="10.722041" height="54.36"/>
  </clipPath>
  <clipPath id="p3e728988e4">
   <rect x="631.8" y="10.777356" width="16.2" height="50.085288"/>
  </clipPath>
  <clipPath id="pd8db9d036b">
   <rect x="649.951697" y="8.64" width="12.296607" height="54.36"/>
  </clipPath>
  <clipPath id="p6bd4243626">
   <rect x="664.2" y="8.881927" width="16.2" height="53.876147"/>
  </clipPath>
  <clipPath id="p707f94d4c3">
   <rect x="696.6" y="10.777356" width="16.2" height="50.085288"/>
  </clipPath>
  <clipPath id="pd3a28298dd">
   <rect x="734.831876" y="8.64" width="4.536248" height="54.36"/>
  </clipPath>
  <clipPath id="p13a7177b8c">
   <rect x="750.806938" y="8.64" width="4.986124" height="54.36"/>
  </clipPath>
  <clipPath id="p914d07cf37">
   <rect x="767.475559" y="8.64" width="4.048883" height="54.36"/>
  </clipPath>
  <clipPath id="pd907a9f084">
   <rect x="783.431876" y="8.64" width="4.536248" height="54.36"/>
  </clipPath>
 </defs>
</svg>
