<?xml version="1.0" encoding="utf-8" standalone="no"?>
<!DOCTYPE svg PUBLIC "-//W3C//DTD SVG 1.1//EN"
  "http://www.w3.org/Graphics/SVG/1.1/DTD/svg11.dtd">
<svg xmlns:xlink="http://www.w3.org/1999/xlink" width="774pt" height="72pt" viewBox="0 0 774 72" xmlns="http://www.w3.org/2000/svg" version="1.1">
 <metadata>
  <rdf:RDF xmlns:dc="http://purl.org/dc/elements/1.1/" xmlns:cc="http://creativecommons.org/ns#" xmlns:rdf="http://www.w3.org/1999/02/22-rdf-syntax-ns#">
   <cc:Work>
    <dc:type rdf:resource="http://purl.org/dc/dcmitype/StillImage"/>
    <dc:date>2023-12-21T11:47:05.100457</dc:date>
    <dc:format>image/svg+xml</dc:format>
    <dc:creator>
     <cc:Agent>
      <dc:title>Matplotlib v3.5.1, https://matplotlib.org/</dc:title>
     </cc:Agent>
    </dc:creator>
   </cc:Work>
  </rdf:RDF>
 </metadata>
 <defs>
  <style type="text/css">*{stroke-linejoin: round; stroke-linecap: butt}</style>
 </defs>
 <g id="figure_1">
  <g id="patch_1">
   <path d="M 0 72 
L 774 72 
L 774 0 
L 0 0 
z
" style="fill: #8fff9f"/>
  </g>
  <g id="axes_1">
   <g id="patch_2">
    <path d="M 12.887191 39.096404 
Q 12.63236 39.023596 11.66764 38.623146 
Q 10.702921 38.222697 10.04764 38.077079 
Q 9.39236 37.931461 8.737079 38.00427 
Q 6.115955 38.00427 4.477753 40.388764 
Q 2.839551 42.773258 2.839551 45.430787 
Q 2.839551 47.068989 8.081798 47.068989 
Q 9.647191 47.068989 10.975955 45.558202 
Q 12.304719 44.047416 12.978202 42.172584 
Q 13.651685 40.297753 13.651685 38.768764 
Q 13.651685 37.27618 13.615281 36.984944 
L 13.542472 38.077079 
Q 13.542472 38.550337 13.542472 38.987191 
Q 13.578876 40.188539 13.779101 42.281798 
Q 13.979326 44.375056 14.143146 46.049663 
Q 14.306966 47.72427 14.343371 49.872135 
Q 14.379775 52.02 14.215955 53.658202 
Q 14.052135 55.296404 13.487865 56.971011 
Q 12.923596 58.645618 11.995281 59.737753 
Q 11.066966 60.829888 9.465169 61.521573 
Q 7.863371 62.213258 5.715506 62.213258 
Q 4.077303 62.213258 2.985169 61.466966 
Q 1.893034 60.720674 1.893034 59.155281 
Q 1.820225 58.936854 1.856629 58.936854 
Q 1.893034 58.936854 2.002247 58.936854 
Q 2.111461 58.936854 2.111461 58.82764 
" clip-path="url(#pefa45fdbf9)" style="fill: none; stroke: #000000; stroke-linejoin: miter"/>
   </g>
  </g>
  <g id="axes_2">
   <g id="patch_3">
    <path d="M 20.813462 32.783338 
Q 21.338317 34.507862 21.469531 36.457324 
Q 21.600745 38.406786 21.525766 40.956083 
Q 21.450786 43.505379 21.488276 44.705048 
L 21.600745 46.054676 
L 21.600745 45.829738 
Q 21.600745 44.667559 21.319572 42.30571 
Q 21.0384 39.943862 21.0384 38.744193 
Q 21.0384 36.419834 22.050621 34.882759 
Q 23.062841 33.345683 25.087283 33.345683 
Q 25.799586 33.345683 26.136993 33.626855 
Q 26.4744 33.908028 26.736828 34.432883 
Q 26.999255 34.957738 27.336662 35.257655 
L 27.786538 36.832221 
" clip-path="url(#pf39caee97f)" style="fill: none; stroke: #000000; stroke-linejoin: miter"/>
   </g>
  </g>
  <g id="axes_3">
   <g id="patch_4">
    <path d="M 41.118579 29.071862 
Q 40.743683 29.146841 40.612469 29.577972 
Q 40.481255 30.009103 40.556234 30.42149 
Q 40.556234 30.571448 40.593724 30.702662 
Q 40.631214 30.833876 40.687448 30.89011 
Q 40.743683 30.946345 40.799917 31.040069 
Q 40.856152 31.133793 40.893641 31.208772 
L 41.00611 29.859145 
M 41.00611 34.020497 
Q 40.106359 39.006621 39.881421 42.793076 
L 40.331297 45.379862 
L 40.668703 46.054676 
" clip-path="url(#p16c502216d)" style="fill: none; stroke: #000000; stroke-linejoin: miter"/>
   </g>
  </g>
  <g id="axes_4">
   <g id="patch_5">
    <path d="M 51.920069 39.868883 
L 51.920069 39.419007 
Q 51.920069 37.769462 53.663338 36.682262 
Q 55.406607 35.595062 57.093641 35.595062 
Q 59.305531 35.595062 60.673903 36.794731 
Q 62.042276 37.9944 62.042276 40.20629 
Q 62.042276 42.30571 60.224028 43.336676 
Q 58.405779 44.367641 56.19389 44.367641 
Q 55.519076 44.367641 55.012966 44.255172 
Q 54.506855 44.142703 53.888276 43.917766 
Q 53.269697 43.692828 52.819821 43.580359 
L 51.695131 42.568138 
M 51.357724 36.832221 
Q 51.8076 38.444276 52.070028 40.262524 
Q 52.332455 42.080772 52.38869 43.749062 
Q 52.444924 45.417352 52.482414 47.27309 
Q 52.519903 49.128828 52.482414 50.778372 
L 52.369945 57.863917 
" clip-path="url(#pb7bfd73c60)" style="fill: none; stroke: #000000; stroke-linejoin: miter"/>
   </g>
  </g>
  <g id="axes_5">
   <g id="patch_6">
    <path d="M 68.120069 39.868883 
L 68.120069 39.419007 
Q 68.120069 37.769462 69.863338 36.682262 
Q 71.606607 35.595062 73.293641 35.595062 
Q 75.505531 35.595062 76.873903 36.794731 
Q 78.242276 37.9944 78.242276 40.20629 
Q 78.242276 42.30571 76.424028 43.336676 
Q 74.605779 44.367641 72.39389 44.367641 
Q 71.719076 44.367641 71.212966 44.255172 
Q 70.706855 44.142703 70.088276 43.917766 
Q 69.469697 43.692828 69.019821 43.580359 
L 67.895131 42.568138 
M 67.557724 36.832221 
Q 68.0076 38.444276 68.270028 40.262524 
Q 68.532455 42.080772 68.58869 43.749062 
Q 68.644924 45.417352 68.682414 47.27309 
Q 68.719903 49.128828 68.682414 50.778372 
L 68.569945 57.863917 
" clip-path="url(#p5ea04af023)" style="fill: none; stroke: #000000; stroke-linejoin: miter"/>
   </g>
  </g>
  <g id="axes_6">
   <g id="patch_7">
    <path d="M 89.718579 29.071862 
Q 89.343683 29.146841 89.212469 29.577972 
Q 89.081255 30.009103 89.156234 30.42149 
Q 89.156234 30.571448 89.193724 30.702662 
Q 89.231214 30.833876 89.287448 30.89011 
Q 89.343683 30.946345 89.399917 31.040069 
Q 89.456152 31.133793 89.493641 31.208772 
L 89.60611 29.859145 
M 89.60611 34.020497 
Q 88.706359 39.006621 88.481421 42.793076 
L 88.931297 45.379862 
L 89.268703 46.054676 
" clip-path="url(#p5b3de20c20)" style="fill: none; stroke: #000000; stroke-linejoin: miter"/>
   </g>
  </g>
  <g id="axes_7">
   <g id="patch_8">
    <path d="M 100.838731 37.282097 
L 100.838731 37.844441 
Q 101.101159 39.868883 101.138648 41.312234 
Q 101.176138 42.755586 101.082414 44.667559 
Q 100.98869 46.579531 100.98869 48.191586 
L 101.063669 39.643945 
Q 101.063669 38.144359 102.656979 37.507034 
Q 104.25029 36.86971 105.674897 37.282097 
Q 107.586869 37.844441 108.505366 39.04411 
Q 109.423862 40.243779 109.480097 41.668386 
Q 109.536331 43.092993 109.573821 44.817517 
Q 109.61131 46.542041 109.761269 48.191586 
" clip-path="url(#p7620b05fed)" style="fill: none; stroke: #000000; stroke-linejoin: miter"/>
   </g>
  </g>
  <g id="axes_8">
   <g id="patch_9">
    <path d="M 126.287191 39.096404 
Q 126.03236 39.023596 125.06764 38.623146 
Q 124.102921 38.222697 123.44764 38.077079 
Q 122.79236 37.931461 122.137079 38.00427 
Q 119.515955 38.00427 117.877753 40.388764 
Q 116.239551 42.773258 116.239551 45.430787 
Q 116.239551 47.068989 121.481798 47.068989 
Q 123.047191 47.068989 124.375955 45.558202 
Q 125.704719 44.047416 126.378202 42.172584 
Q 127.051685 40.297753 127.051685 38.768764 
Q 127.051685 37.27618 127.015281 36.984944 
L 126.942472 38.077079 
Q 126.942472 38.550337 126.942472 38.987191 
Q 126.978876 40.188539 127.179101 42.281798 
Q 127.379326 44.375056 127.543146 46.049663 
Q 127.706966 47.72427 127.743371 49.872135 
Q 127.779775 52.02 127.615955 53.658202 
Q 127.452135 55.296404 126.887865 56.971011 
Q 126.323596 58.645618 125.395281 59.737753 
Q 124.466966 60.829888 122.865169 61.521573 
Q 121.263371 62.213258 119.115506 62.213258 
Q 117.477303 62.213258 116.385169 61.466966 
Q 115.293034 60.720674 115.293034 59.155281 
Q 115.220225 58.936854 115.256629 58.936854 
Q 115.293034 58.936854 115.402247 58.936854 
Q 115.511461 58.936854 115.511461 58.82764 
" clip-path="url(#paf2d991b6f)" style="fill: none; stroke: #000000; stroke-linejoin: miter"/>
   </g>
  </g>
  <g id="axes_9"/>
  <g id="axes_10">
   <g id="patch_10">
    <path d="M 149.063834 37.95691 
L 149.738648 37.95691 
Q 150.450952 37.95691 151.238234 37.881931 
Q 152.025517 37.806952 152.981503 37.675738 
Q 153.93749 37.544524 154.462345 37.507034 
L 158.736166 35.82 
M 154.687283 30.42149 
L 154.687283 31.43371 
Q 154.687283 33.383172 154.012469 37.207117 
Q 153.337655 41.031062 153.337655 43.018014 
Q 153.337655 43.805297 153.337655 44.105214 
Q 153.337655 44.405131 153.431379 45.042455 
Q 153.525103 45.679779 153.712552 45.960952 
Q 153.9 46.242124 154.293641 46.485807 
Q 154.687283 46.72949 155.249628 46.72949 
Q 155.362097 46.692 155.680759 46.72949 
Q 155.999421 46.766979 156.186869 46.710745 
Q 156.374317 46.65451 156.374317 46.392083 
" clip-path="url(#pf5a387ddce)" style="fill: none; stroke: #000000; stroke-linejoin: miter"/>
   </g>
  </g>
  <g id="axes_11">
   <g id="patch_11">
    <path d="M 166.613462 35.932469 
Q 167.213297 35.257655 168.206772 34.826524 
Q 169.200248 34.395393 170.1 34.470372 
Q 170.737324 34.470372 171.22469 34.639076 
Q 171.712055 34.807779 172.030717 34.995228 
Q 172.349379 35.182676 172.574317 35.670041 
Q 172.799255 36.157407 172.911724 36.419834 
Q 173.024193 36.682262 173.080428 37.375821 
Q 173.136662 38.069379 173.155407 38.331807 
Q 173.174152 38.594234 173.155407 39.419007 
Q 173.136662 40.243779 173.136662 40.431228 
Q 173.136662 41.368469 172.967959 43.242952 
Q 172.799255 45.117434 172.799255 46.054676 
Q 172.799255 46.467062 172.85549 46.823214 
Q 172.911724 47.179366 173.005448 47.610497 
Q 173.099172 48.041628 173.136662 48.304055 
L 173.586538 48.528993 
M 167.063338 23.111007 
Q 167.288276 24.798041 167.288276 29.971614 
L 167.288276 42.3432 
L 166.950869 46.841959 
L 166.725931 47.74171 
" clip-path="url(#pb880614edf)" style="fill: none; stroke: #000000; stroke-linejoin: miter"/>
   </g>
  </g>
  <g id="axes_12">
   <g id="patch_12">
    <path d="M 180.057798 38.160826 
Q 183.030275 39.535596 187.749083 39.721376 
Q 189.272477 39.721376 189.959862 38.550963 
Q 190.647248 37.38055 190.647248 35.82 
Q 190.647248 35.299817 190.554358 34.909679 
Q 190.461468 34.519541 190.219954 34.296606 
Q 189.97844 34.07367 189.811239 33.943624 
Q 189.644037 33.813578 189.198165 33.757844 
Q 188.752294 33.70211 188.547936 33.683532 
Q 188.343578 33.664954 187.767661 33.683532 
Q 187.191743 33.70211 186.968807 33.70211 
Q 184.925229 33.70211 183.438991 35.578486 
Q 181.952752 37.454862 181.952752 39.609908 
Q 181.952752 42.619541 183.884862 44.570229 
Q 185.816972 46.520917 188.863761 46.520917 
Q 191.018807 46.818165 192.542202 44.29156 
" clip-path="url(#p87e138e7ff)" style="fill: none; stroke: #000000; stroke-linejoin: miter"/>
   </g>
  </g>
  <g id="axes_13"/>
  <g id="axes_14">
   <g id="patch_13">
    <path d="M 212.316102 36.437797 
L 213.551695 44.778051 
Q 213.654661 45.567458 213.654661 45.60178 
Q 213.654661 45.704746 213.963559 45.704746 
Q 214.82161 45.704746 215.542373 44.778051 
Q 216.263136 43.851356 216.675 42.718729 
Q 217.086864 41.586102 217.601695 40.659407 
Q 218.116525 39.732712 218.597034 39.732712 
Q 219.214831 39.732712 219.849788 40.607924 
Q 220.484746 41.483136 220.948093 42.512797 
Q 221.411441 43.542458 222.08072 44.417669 
Q 222.75 45.292881 223.436441 45.292881 
Q 223.711017 43.782712 224.140042 39.69839 
Q 224.569068 35.614068 225.083898 33.554746 
" clip-path="url(#p52215f963b)" style="fill: none; stroke: #000000; stroke-linejoin: miter"/>
   </g>
  </g>
  <g id="axes_15">
   <g id="patch_14">
    <path d="M 231.413462 35.932469 
Q 232.013297 35.257655 233.006772 34.826524 
Q 234.000248 34.395393 234.9 34.470372 
Q 235.537324 34.470372 236.02469 34.639076 
Q 236.512055 34.807779 236.830717 34.995228 
Q 237.149379 35.182676 237.374317 35.670041 
Q 237.599255 36.157407 237.711724 36.419834 
Q 237.824193 36.682262 237.880428 37.375821 
Q 237.936662 38.069379 237.955407 38.331807 
Q 237.974152 38.594234 237.955407 39.419007 
Q 237.936662 40.243779 237.936662 40.431228 
Q 237.936662 41.368469 237.767959 43.242952 
Q 237.599255 45.117434 237.599255 46.054676 
Q 237.599255 46.467062 237.65549 46.823214 
Q 237.711724 47.179366 237.805448 47.610497 
Q 237.899172 48.041628 237.936662 48.304055 
L 238.386538 48.528993 
M 231.863338 23.111007 
Q 232.088276 24.798041 232.088276 29.971614 
L 232.088276 42.3432 
L 231.750869 46.841959 
L 231.525931 47.74171 
" clip-path="url(#p85d52030b1)" style="fill: none; stroke: #000000; stroke-linejoin: miter"/>
   </g>
  </g>
  <g id="axes_16">
   <g id="patch_15">
    <path d="M 244.857798 38.160826 
Q 247.830275 39.535596 252.549083 39.721376 
Q 254.072477 39.721376 254.759862 38.550963 
Q 255.447248 37.38055 255.447248 35.82 
Q 255.447248 35.299817 255.354358 34.909679 
Q 255.261468 34.519541 255.019954 34.296606 
Q 254.77844 34.07367 254.611239 33.943624 
Q 254.444037 33.813578 253.998165 33.757844 
Q 253.552294 33.70211 253.347936 33.683532 
Q 253.143578 33.664954 252.567661 33.683532 
Q 251.991743 33.70211 251.768807 33.70211 
Q 249.725229 33.70211 248.238991 35.578486 
Q 246.752752 37.454862 246.752752 39.609908 
Q 246.752752 42.619541 248.684862 44.570229 
Q 250.616972 46.520917 253.663761 46.520917 
Q 255.818807 46.818165 257.342202 44.29156 
" clip-path="url(#p6af94616e3)" style="fill: none; stroke: #000000; stroke-linejoin: miter"/>
   </g>
  </g>
  <g id="axes_17">
   <g id="patch_16">
    <path d="M 261.057798 38.160826 
Q 264.030275 39.535596 268.749083 39.721376 
Q 270.272477 39.721376 270.959862 38.550963 
Q 271.647248 37.38055 271.647248 35.82 
Q 271.647248 35.299817 271.554358 34.909679 
Q 271.461468 34.519541 271.219954 34.296606 
Q 270.97844 34.07367 270.811239 33.943624 
Q 270.644037 33.813578 270.198165 33.757844 
Q 269.752294 33.70211 269.547936 33.683532 
Q 269.343578 33.664954 268.767661 33.683532 
Q 268.191743 33.70211 267.968807 33.70211 
Q 265.925229 33.70211 264.438991 35.578486 
Q 262.952752 37.454862 262.952752 39.609908 
Q 262.952752 42.619541 264.884862 44.570229 
Q 266.816972 46.520917 269.863761 46.520917 
Q 272.018807 46.818165 273.542202 44.29156 
" clip-path="url(#pd997e8e45b)" style="fill: none; stroke: #000000; stroke-linejoin: miter"/>
   </g>
  </g>
  <g id="axes_18">
   <g id="patch_17">
    <path d="M 283.106359 28.621986 
Q 283.331297 30.34651 283.406276 32.146014 
Q 283.481255 33.945517 283.46251 36.551048 
Q 283.443766 39.156579 283.443766 40.093821 
Q 283.443766 40.13131 283.668703 45.829738 
L 283.893641 46.841959 
" clip-path="url(#p9cd6fd65fe)" style="fill: none; stroke: #000000; stroke-linejoin: miter"/>
   </g>
  </g>
  <g id="axes_19">
   <g id="patch_18">
    <path d="M 298.987697 39.981352 
Q 299.999917 40.956083 300.337324 42.905545 
Q 300.524772 43.955255 300.112386 46.167145 
L 298.875228 47.629241 
" clip-path="url(#p0c423a2a7f)" style="fill: none; stroke: #000000; stroke-linejoin: miter"/>
   </g>
  </g>
  <g id="axes_20"/>
  <g id="axes_21">
   <g id="patch_19">
    <path d="M 332.624855 27.009931 
Q 332.699834 27.347338 332.774814 28.265834 
Q 332.849793 29.184331 332.999752 29.634207 
L 332.924772 31.058814 
M 331.275228 27.309848 
Q 331.237738 27.309848 331.200248 27.534786 
Q 331.237738 27.684745 331.350207 28.828179 
Q 331.462676 29.971614 331.725103 30.533959 
" clip-path="url(#p73fe4be47b)" style="fill: none; stroke: #000000; stroke-linejoin: miter"/>
   </g>
  </g>
  <g id="axes_22">
   <g id="patch_20">
    <path d="M 341.287248 30.470738 
L 342.461477 30.601208 
Q 344.288054 30.601208 346.125503 30.709933 
Q 347.962953 30.818658 350.202685 30.992617 
Q 352.442416 31.166577 353.877584 31.253557 
L 355.312752 31.123087 
M 348.071678 31.057852 
Q 348.136913 31.405772 347.875973 32.177718 
Q 347.615034 32.949664 347.810738 33.406309 
Q 347.810738 34.711007 347.952081 36.363624 
Q 348.093423 38.016242 348.310872 39.973289 
Q 348.528322 41.930336 348.593557 42.800134 
" clip-path="url(#p3d752ae576)" style="fill: none; stroke: #000000; stroke-linejoin: miter"/>
   </g>
  </g>
  <g id="axes_23">
   <g id="patch_21">
    <path d="M 361.013462 35.932469 
Q 361.613297 35.257655 362.606772 34.826524 
Q 363.600248 34.395393 364.5 34.470372 
Q 365.137324 34.470372 365.62469 34.639076 
Q 366.112055 34.807779 366.430717 34.995228 
Q 366.749379 35.182676 366.974317 35.670041 
Q 367.199255 36.157407 367.311724 36.419834 
Q 367.424193 36.682262 367.480428 37.375821 
Q 367.536662 38.069379 367.555407 38.331807 
Q 367.574152 38.594234 367.555407 39.419007 
Q 367.536662 40.243779 367.536662 40.431228 
Q 367.536662 41.368469 367.367959 43.242952 
Q 367.199255 45.117434 367.199255 46.054676 
Q 367.199255 46.467062 367.25549 46.823214 
Q 367.311724 47.179366 367.405448 47.610497 
Q 367.499172 48.041628 367.536662 48.304055 
L 367.986538 48.528993 
M 361.463338 23.111007 
Q 361.688276 24.798041 361.688276 29.971614 
L 361.688276 42.3432 
L 361.350869 46.841959 
L 361.125931 47.74171 
" clip-path="url(#pcc3d5efa3f)" style="fill: none; stroke: #000000; stroke-linejoin: miter"/>
   </g>
  </g>
  <g id="axes_24">
   <g id="patch_22">
    <path d="M 386.243923 36.441748 
Q 385.034968 35.094627 381.062687 35.094627 
Q 379.542857 35.094627 378.765672 35.146439 
Q 377.988486 35.198252 376.98678 35.440043 
Q 375.985075 35.681834 375.501493 36.182687 
Q 375.01791 36.683539 374.672495 37.616162 
Q 374.327079 38.548785 374.327079 39.964989 
Q 374.327079 42.037484 375.743284 43.280981 
Q 377.159488 44.524478 379.093817 44.524478 
Q 381.753518 44.524478 384.516844 38.721493 
Q 385.863966 35.854542 385.863966 35.82 
Q 386.209382 35.578209 386.243923 36.441748 
Q 386.243923 37.512537 386.658422 40.362217 
Q 387.072921 43.211898 387.072921 44.524478 
" clip-path="url(#pd65f45e917)" style="fill: none; stroke: #000000; stroke-linejoin: miter"/>
   </g>
  </g>
  <g id="axes_25">
   <g id="patch_23">
    <path d="M 392.063834 37.95691 
L 392.738648 37.95691 
Q 393.450952 37.95691 394.238234 37.881931 
Q 395.025517 37.806952 395.981503 37.675738 
Q 396.93749 37.544524 397.462345 37.507034 
L 401.736166 35.82 
M 397.687283 30.42149 
L 397.687283 31.43371 
Q 397.687283 33.383172 397.012469 37.207117 
Q 396.337655 41.031062 396.337655 43.018014 
Q 396.337655 43.805297 396.337655 44.105214 
Q 396.337655 44.405131 396.431379 45.042455 
Q 396.525103 45.679779 396.712552 45.960952 
Q 396.9 46.242124 397.293641 46.485807 
Q 397.687283 46.72949 398.249628 46.72949 
Q 398.362097 46.692 398.680759 46.72949 
Q 398.999421 46.766979 399.186869 46.710745 
Q 399.374317 46.65451 399.374317 46.392083 
" clip-path="url(#p1c8cc557ec)" style="fill: none; stroke: #000000; stroke-linejoin: miter"/>
   </g>
  </g>
  <g id="axes_26">
   <g id="patch_24">
    <path d="M 413.025021 26.147669 
Q 412.987531 26.597545 413.025021 27.384828 
Q 413.06251 27.572276 413.006276 27.965917 
Q 412.950041 28.359559 412.987531 28.678221 
Q 413.025021 28.996883 413.249959 29.184331 
" clip-path="url(#p53302c2930)" style="fill: none; stroke: #000000; stroke-linejoin: miter"/>
   </g>
  </g>
  <g id="axes_27">
   <g id="patch_25">
    <path d="M 424.857476 43.917766 
Q 425.157393 44.180193 426.169614 45.154924 
Q 427.181834 46.129655 427.744179 46.560786 
Q 428.306524 46.991917 429.33749 47.385559 
Q 430.368455 47.7792 431.380676 47.629241 
Q 432.05549 47.629241 432.52411 47.404303 
Q 432.992731 47.179366 433.217669 46.879448 
Q 433.442607 46.579531 433.573821 45.979697 
Q 433.705034 45.379862 433.723779 44.967476 
Q 433.742524 44.55509 433.742524 43.805297 
Q 433.742524 42.718097 432.842772 42.043283 
Q 431.943021 41.368469 430.649628 41.031062 
Q 429.356234 40.693655 428.062841 40.300014 
Q 426.769448 39.906372 425.869697 38.987876 
Q 424.969945 38.069379 424.969945 36.607283 
Q 424.969945 36.082428 425.138648 35.726276 
Q 425.307352 35.370124 425.700993 35.145186 
Q 426.094634 34.920248 426.375807 34.807779 
Q 426.656979 34.69531 427.313048 34.639076 
Q 427.969117 34.582841 428.156566 34.582841 
Q 428.344014 34.582841 429.018828 34.582841 
Q 430.218497 34.582841 430.799586 34.995228 
Q 431.380676 35.407614 431.699338 36.026193 
Q 432.018 36.644772 432.280428 36.832221 
" clip-path="url(#p028e1b6df7)" style="fill: none; stroke: #000000; stroke-linejoin: miter"/>
   </g>
  </g>
  <g id="axes_28"/>
  <g id="axes_29">
   <g id="patch_26">
    <path d="M 461.898305 38.108136 
Q 460.250847 37.345424 458.786441 37.375932 
Q 456.986441 37.375932 456.055932 38.91661 
Q 455.125424 40.457288 455.125424 42.409831 
Q 455.125424 43.782712 455.857627 44.652203 
Q 456.589831 45.521695 457.962712 45.521695 
Q 458.938983 45.521695 459.976271 43.386102 
Q 461.013559 41.250508 461.59322 38.962373 
Q 462.172881 36.674237 462.172881 35.728475 
L 462.172881 38.565763 
Q 462.477966 40.365763 462.630508 42.379322 
Q 462.783051 44.392881 462.798305 45.430169 
Q 462.813559 46.467458 462.752542 49.243729 
Q 462.691525 52.02 462.691525 52.721695 
Q 462.6 60.775932 462.874576 60.775932 
Q 463.362712 60.775932 464.50678 58.609831 
Q 465.650847 56.443729 466.871186 53.606441 
Q 468.091525 50.769153 468.183051 50.61661 
L 468.274576 50.250508 
" clip-path="url(#pe9e12ff1c2)" style="fill: none; stroke: #000000; stroke-linejoin: miter"/>
   </g>
  </g>
  <g id="axes_30">
   <g id="patch_27">
    <path d="M 473.288772 35.145186 
Q 473.288772 35.145186 473.288772 35.595062 
Q 473.288772 36.269876 473.176303 37.619503 
Q 473.063834 38.969131 473.063834 39.643945 
Q 473.063834 41.930814 474.300993 43.599103 
Q 475.538152 45.267393 477.675062 45.267393 
Q 479.062179 45.154924 479.830717 43.917766 
Q 480.599255 42.680607 480.749214 41.237255 
Q 480.899172 39.793903 481.1616 37.9944 
Q 481.424028 36.194897 481.836414 35.370124 
Q 481.986372 35.070207 481.986372 35.670041 
Q 481.986372 36.269876 481.723945 38.706703 
Q 481.499007 41.031062 481.499007 41.555917 
Q 481.349048 42.643117 481.686455 43.767807 
Q 482.023862 44.892497 482.736166 45.6048 
" clip-path="url(#pb160ddda11)" style="fill: none; stroke: #000000; stroke-linejoin: miter"/>
   </g>
  </g>
  <g id="axes_31">
   <g id="patch_28">
    <path d="M 494.718579 29.071862 
Q 494.343683 29.146841 494.212469 29.577972 
Q 494.081255 30.009103 494.156234 30.42149 
Q 494.156234 30.571448 494.193724 30.702662 
Q 494.231214 30.833876 494.287448 30.89011 
Q 494.343683 30.946345 494.399917 31.040069 
Q 494.456152 31.133793 494.493641 31.208772 
L 494.60611 29.859145 
M 494.60611 34.020497 
Q 493.706359 39.006621 493.481421 42.793076 
L 493.931297 45.379862 
L 494.268703 46.054676 
" clip-path="url(#p8d0fce8695)" style="fill: none; stroke: #000000; stroke-linejoin: miter"/>
   </g>
  </g>
  <g id="axes_32">
   <g id="patch_29">
    <path d="M 505.463834 37.95691 
L 506.138648 37.95691 
Q 506.850952 37.95691 507.638234 37.881931 
Q 508.425517 37.806952 509.381503 37.675738 
Q 510.33749 37.544524 510.862345 37.507034 
L 515.136166 35.82 
M 511.087283 30.42149 
L 511.087283 31.43371 
Q 511.087283 33.383172 510.412469 37.207117 
Q 509.737655 41.031062 509.737655 43.018014 
Q 509.737655 43.805297 509.737655 44.105214 
Q 509.737655 44.405131 509.831379 45.042455 
Q 509.925103 45.679779 510.112552 45.960952 
Q 510.3 46.242124 510.693641 46.485807 
Q 511.087283 46.72949 511.649628 46.72949 
Q 511.762097 46.692 512.080759 46.72949 
Q 512.399421 46.766979 512.586869 46.710745 
Q 512.774317 46.65451 512.774317 46.392083 
" clip-path="url(#p610f9472dc)" style="fill: none; stroke: #000000; stroke-linejoin: miter"/>
   </g>
  </g>
  <g id="axes_33">
   <g id="patch_30">
    <path d="M 520.257798 38.160826 
Q 523.230275 39.535596 527.949083 39.721376 
Q 529.472477 39.721376 530.159862 38.550963 
Q 530.847248 37.38055 530.847248 35.82 
Q 530.847248 35.299817 530.754358 34.909679 
Q 530.661468 34.519541 530.419954 34.296606 
Q 530.17844 34.07367 530.011239 33.943624 
Q 529.844037 33.813578 529.398165 33.757844 
Q 528.952294 33.70211 528.747936 33.683532 
Q 528.543578 33.664954 527.967661 33.683532 
Q 527.391743 33.70211 527.168807 33.70211 
Q 525.125229 33.70211 523.638991 35.578486 
Q 522.152752 37.454862 522.152752 39.609908 
Q 522.152752 42.619541 524.084862 44.570229 
Q 526.016972 46.520917 529.063761 46.520917 
Q 531.218807 46.818165 532.742202 44.29156 
" clip-path="url(#p47f7ed9918)" style="fill: none; stroke: #000000; stroke-linejoin: miter"/>
   </g>
  </g>
  <g id="axes_34"/>
  <g id="axes_35">
   <g id="patch_31">
    <path d="M 564.443923 36.441748 
Q 563.234968 35.094627 559.262687 35.094627 
Q 557.742857 35.094627 556.965672 35.146439 
Q 556.188486 35.198252 555.18678 35.440043 
Q 554.185075 35.681834 553.701493 36.182687 
Q 553.21791 36.683539 552.872495 37.616162 
Q 552.527079 38.548785 552.527079 39.964989 
Q 552.527079 42.037484 553.943284 43.280981 
Q 555.359488 44.524478 557.293817 44.524478 
Q 559.953518 44.524478 562.716844 38.721493 
Q 564.063966 35.854542 564.063966 35.82 
Q 564.409382 35.578209 564.443923 36.441748 
Q 564.443923 37.512537 564.858422 40.362217 
Q 565.272921 43.211898 565.272921 44.524478 
" clip-path="url(#pff8fee3678)" style="fill: none; stroke: #000000; stroke-linejoin: miter"/>
   </g>
  </g>
  <g id="axes_36"/>
  <g id="axes_37">
   <g id="patch_32">
    <path d="M 596.087191 39.096404 
Q 595.83236 39.023596 594.86764 38.623146 
Q 593.902921 38.222697 593.24764 38.077079 
Q 592.59236 37.931461 591.937079 38.00427 
Q 589.315955 38.00427 587.677753 40.388764 
Q 586.039551 42.773258 586.039551 45.430787 
Q 586.039551 47.068989 591.281798 47.068989 
Q 592.847191 47.068989 594.175955 45.558202 
Q 595.504719 44.047416 596.178202 42.172584 
Q 596.851685 40.297753 596.851685 38.768764 
Q 596.851685 37.27618 596.815281 36.984944 
L 596.742472 38.077079 
Q 596.742472 38.550337 596.742472 38.987191 
Q 596.778876 40.188539 596.979101 42.281798 
Q 597.179326 44.375056 597.343146 46.049663 
Q 597.506966 47.72427 597.543371 49.872135 
Q 597.579775 52.02 597.415955 53.658202 
Q 597.252135 55.296404 596.687865 56.971011 
Q 596.123596 58.645618 595.195281 59.737753 
Q 594.266966 60.829888 592.665169 61.521573 
Q 591.063371 62.213258 588.915506 62.213258 
Q 587.277303 62.213258 586.185169 61.466966 
Q 585.093034 60.720674 585.093034 59.155281 
Q 585.020225 58.936854 585.056629 58.936854 
Q 585.093034 58.936854 585.202247 58.936854 
Q 585.311461 58.936854 585.311461 58.82764 
" clip-path="url(#pdceb00c9fc)" style="fill: none; stroke: #000000; stroke-linejoin: miter"/>
   </g>
  </g>
  <g id="axes_38">
   <g id="patch_33">
    <path d="M 610.7616 35.032717 
Q 609.71189 34.582841 608.737159 34.69531 
Q 605.700497 35.032717 603.788524 36.701007 
Q 601.876552 38.369297 601.876552 41.330979 
Q 601.876552 43.917766 603.882248 45.6048 
Q 605.887945 47.291834 608.512221 47.291834 
Q 610.874069 47.291834 611.998759 45.361117 
Q 613.123448 43.4304 613.123448 40.881103 
Q 613.123448 39.643945 612.711062 38.706703 
Q 612.298676 37.769462 611.773821 37.300841 
Q 611.248966 36.832221 610.499172 36.119917 
Q 609.749379 35.407614 609.299503 34.69531 
L 608.062345 34.245434 
" clip-path="url(#p7f73c27765)" style="fill: none; stroke: #000000; stroke-linejoin: miter"/>
   </g>
  </g>
  <g id="axes_39">
   <g id="patch_34">
    <path d="M 620.213462 32.783338 
Q 620.738317 34.507862 620.869531 36.457324 
Q 621.000745 38.406786 620.925766 40.956083 
Q 620.850786 43.505379 620.888276 44.705048 
L 621.000745 46.054676 
L 621.000745 45.829738 
Q 621.000745 44.667559 620.719572 42.30571 
Q 620.4384 39.943862 620.4384 38.744193 
Q 620.4384 36.419834 621.450621 34.882759 
Q 622.462841 33.345683 624.487283 33.345683 
Q 625.199586 33.345683 625.536993 33.626855 
Q 625.8744 33.908028 626.136828 34.432883 
Q 626.399255 34.957738 626.736662 35.257655 
L 627.186538 36.832221 
" clip-path="url(#p3e95746844)" style="fill: none; stroke: #000000; stroke-linejoin: miter"/>
   </g>
  </g>
  <g id="axes_40">
   <g id="patch_35">
    <path d="M 644.687191 39.096404 
Q 644.43236 39.023596 643.46764 38.623146 
Q 642.502921 38.222697 641.84764 38.077079 
Q 641.19236 37.931461 640.537079 38.00427 
Q 637.915955 38.00427 636.277753 40.388764 
Q 634.639551 42.773258 634.639551 45.430787 
Q 634.639551 47.068989 639.881798 47.068989 
Q 641.447191 47.068989 642.775955 45.558202 
Q 644.104719 44.047416 644.778202 42.172584 
Q 645.451685 40.297753 645.451685 38.768764 
Q 645.451685 37.27618 645.415281 36.984944 
L 645.342472 38.077079 
Q 645.342472 38.550337 645.342472 38.987191 
Q 645.378876 40.188539 645.579101 42.281798 
Q 645.779326 44.375056 645.943146 46.049663 
Q 646.106966 47.72427 646.143371 49.872135 
Q 646.179775 52.02 646.015955 53.658202 
Q 645.852135 55.296404 645.287865 56.971011 
Q 644.723596 58.645618 643.795281 59.737753 
Q 642.866966 60.829888 641.265169 61.521573 
Q 639.663371 62.213258 637.515506 62.213258 
Q 635.877303 62.213258 634.785169 61.466966 
Q 633.693034 60.720674 633.693034 59.155281 
Q 633.620225 58.936854 633.656629 58.936854 
Q 633.693034 58.936854 633.802247 58.936854 
Q 633.911461 58.936854 633.911461 58.82764 
" clip-path="url(#p0b45d32773)" style="fill: none; stroke: #000000; stroke-linejoin: miter"/>
   </g>
  </g>
  <g id="axes_41">
   <g id="patch_36">
    <path d="M 649.857798 38.160826 
Q 652.830275 39.535596 657.549083 39.721376 
Q 659.072477 39.721376 659.759862 38.550963 
Q 660.447248 37.38055 660.447248 35.82 
Q 660.447248 35.299817 660.354358 34.909679 
Q 660.261468 34.519541 660.019954 34.296606 
Q 659.77844 34.07367 659.611239 33.943624 
Q 659.444037 33.813578 658.998165 33.757844 
Q 658.552294 33.70211 658.347936 33.683532 
Q 658.143578 33.664954 657.567661 33.683532 
Q 656.991743 33.70211 656.768807 33.70211 
Q 654.725229 33.70211 653.238991 35.578486 
Q 651.752752 37.454862 651.752752 39.609908 
Q 651.752752 42.619541 653.684862 44.570229 
Q 655.616972 46.520917 658.663761 46.520917 
Q 660.818807 46.818165 662.342202 44.29156 
" clip-path="url(#p2dde4766ac)" style="fill: none; stroke: #000000; stroke-linejoin: miter"/>
   </g>
  </g>
  <g id="axes_42">
   <g id="patch_37">
    <path d="M 672.187531 45.979697 
Q 672.150041 46.017186 672.018828 46.054676 
Q 671.887614 46.092166 671.925103 46.167145 
Q 671.925103 46.579531 672.3 46.579531 
Q 672.637407 46.579531 672.637407 46.092166 
Q 672.712386 45.867228 672.431214 45.754759 
Q 672.150041 45.64229 671.962593 45.754759 
" clip-path="url(#p3ef8c92932)" style="fill: none; stroke: #000000; stroke-linejoin: miter"/>
   </g>
  </g>
  <g id="axes_43">
   <g id="patch_38">
    <path d="M 689.024855 27.009931 
Q 689.099834 27.347338 689.174814 28.265834 
Q 689.249793 29.184331 689.399752 29.634207 
L 689.324772 31.058814 
M 687.675228 27.309848 
Q 687.637738 27.309848 687.600248 27.534786 
Q 687.637738 27.684745 687.750207 28.828179 
Q 687.862676 29.971614 688.125103 30.533959 
" clip-path="url(#pff0c14536e)" style="fill: none; stroke: #000000; stroke-linejoin: miter"/>
   </g>
  </g>
 </g>
 <defs>
  <clipPath id="pefa45fdbf9">
   <rect x="0" y="9.426742" width="16.2" height="52.786517"/>
  </clipPath>
  <clipPath id="pf39caee97f">
   <rect x="18.938979" y="8.64" width="10.722041" height="54.36"/>
  </clipPath>
  <clipPath id="p16c502216d">
   <rect x="38.006938" y="8.64" width="4.986124" height="54.36"/>
  </clipPath>
  <clipPath id="pb7bfd73c60">
   <rect x="49.483241" y="8.64" width="14.433517" height="54.36"/>
  </clipPath>
  <clipPath id="p5ea04af023">
   <rect x="65.683241" y="8.64" width="14.433517" height="54.36"/>
  </clipPath>
  <clipPath id="p5b3de20c20">
   <rect x="86.606938" y="8.64" width="4.986124" height="54.36"/>
  </clipPath>
  <clipPath id="p7620b05fed">
   <rect x="98.964248" y="8.64" width="12.671503" height="54.36"/>
  </clipPath>
  <clipPath id="paf2d991b6f">
   <rect x="113.4" y="9.426742" width="16.2" height="52.786517"/>
  </clipPath>
  <clipPath id="pf5a387ddce">
   <rect x="147.189352" y="8.64" width="13.421297" height="54.36"/>
  </clipPath>
  <clipPath id="pb880614edf">
   <rect x="164.738979" y="8.64" width="10.722041" height="54.36"/>
  </clipPath>
  <clipPath id="p87e138e7ff">
   <rect x="178.2" y="8.881927" width="16.2" height="53.876147"/>
  </clipPath>
  <clipPath id="p52215f963b">
   <rect x="210.6" y="10.936525" width="16.2" height="49.766949"/>
  </clipPath>
  <clipPath id="p85d52030b1">
   <rect x="229.538979" y="8.64" width="10.722041" height="54.36"/>
  </clipPath>
  <clipPath id="p6af94616e3">
   <rect x="243" y="8.881927" width="16.2" height="53.876147"/>
  </clipPath>
  <clipPath id="pd997e8e45b">
   <rect x="259.2" y="8.881927" width="16.2" height="53.876147"/>
  </clipPath>
  <clipPath id="p9cd6fd65fe">
   <rect x="281.231876" y="8.64" width="4.536248" height="54.36"/>
  </clipPath>
  <clipPath id="p0c423a2a7f">
   <rect x="297.000745" y="8.64" width="5.39851" height="54.36"/>
  </clipPath>
  <clipPath id="p73fe4be47b">
   <rect x="329.325766" y="8.64" width="5.548469" height="54.36"/>
  </clipPath>
  <clipPath id="p3d752ae576">
   <rect x="340.2" y="20.054899" width="16.2" height="31.530201"/>
  </clipPath>
  <clipPath id="pcc3d5efa3f">
   <rect x="359.138979" y="8.64" width="10.722041" height="54.36"/>
  </clipPath>
  <clipPath id="pd65f45e917">
   <rect x="372.6" y="10.777356" width="16.2" height="50.085288"/>
  </clipPath>
  <clipPath id="p1c8cc557ec">
   <rect x="390.189352" y="8.64" width="13.421297" height="54.36"/>
  </clipPath>
  <clipPath id="p53302c2930">
   <rect x="411.075559" y="8.64" width="4.048883" height="54.36"/>
  </clipPath>
  <clipPath id="p028e1b6df7">
   <rect x="422.982993" y="8.64" width="12.634014" height="54.36"/>
  </clipPath>
  <clipPath id="pe9e12ff1c2">
   <rect x="453.6" y="13.701356" width="16.2" height="44.237288"/>
  </clipPath>
  <clipPath id="pb160ddda11">
   <rect x="471.189352" y="8.64" width="13.421297" height="54.36"/>
  </clipPath>
  <clipPath id="p8d0fce8695">
   <rect x="491.606938" y="8.64" width="4.986124" height="54.36"/>
  </clipPath>
  <clipPath id="p610f9472dc">
   <rect x="503.589352" y="8.64" width="13.421297" height="54.36"/>
  </clipPath>
  <clipPath id="p47f7ed9918">
   <rect x="518.4" y="8.881927" width="16.2" height="53.876147"/>
  </clipPath>
  <clipPath id="pff8fee3678">
   <rect x="550.8" y="10.777356" width="16.2" height="50.085288"/>
  </clipPath>
  <clipPath id="pdceb00c9fc">
   <rect x="583.2" y="9.426742" width="16.2" height="52.786517"/>
  </clipPath>
  <clipPath id="p7f73c27765">
   <rect x="600.002069" y="8.64" width="14.995862" height="54.36"/>
  </clipPath>
  <clipPath id="p3e95746844">
   <rect x="618.338979" y="8.64" width="10.722041" height="54.36"/>
  </clipPath>
  <clipPath id="p0b45d32773">
   <rect x="631.8" y="9.426742" width="16.2" height="52.786517"/>
  </clipPath>
  <clipPath id="p2dde4766ac">
   <rect x="648" y="8.881927" width="16.2" height="53.876147"/>
  </clipPath>
  <clipPath id="p3ef8c92932">
   <rect x="670.013131" y="8.64" width="4.573738" height="54.36"/>
  </clipPath>
  <clipPath id="pff0c14536e">
   <rect x="685.725766" y="8.64" width="5.548469" height="54.36"/>
  </clipPath>
 </defs>
</svg>
