<?xml version="1.0" encoding="utf-8" standalone="no"?>
<!DOCTYPE svg PUBLIC "-//W3C//DTD SVG 1.1//EN"
  "http://www.w3.org/Graphics/SVG/1.1/DTD/svg11.dtd">
<svg xmlns:xlink="http://www.w3.org/1999/xlink" width="828pt" height="72pt" viewBox="0 0 828 72" xmlns="http://www.w3.org/2000/svg" version="1.1">
 <metadata>
  <rdf:RDF xmlns:dc="http://purl.org/dc/elements/1.1/" xmlns:cc="http://creativecommons.org/ns#" xmlns:rdf="http://www.w3.org/1999/02/22-rdf-syntax-ns#">
   <cc:Work>
    <dc:type rdf:resource="http://purl.org/dc/dcmitype/StillImage"/>
    <dc:date>2023-12-21T11:46:44.556214</dc:date>
    <dc:format>image/svg+xml</dc:format>
    <dc:creator>
     <cc:Agent>
      <dc:title>Matplotlib v3.5.1, https://matplotlib.org/</dc:title>
     </cc:Agent>
    </dc:creator>
   </cc:Work>
  </rdf:RDF>
 </metadata>
 <defs>
  <style type="text/css">*{stroke-linejoin: round; stroke-linecap: butt}</style>
 </defs>
 <g id="figure_1">
  <g id="patch_1">
   <path d="M 0 72 
L 828 72 
L 828 0 
L 0 0 
z
" style="fill: #8fff9f"/>
  </g>
  <g id="axes_1">
   <g id="patch_2">
    <path d="M 3.657476 43.917766 
Q 3.957393 44.180193 4.969614 45.154924 
Q 5.981834 46.129655 6.544179 46.560786 
Q 7.106524 46.991917 8.13749 47.385559 
Q 9.168455 47.7792 10.180676 47.629241 
Q 10.85549 47.629241 11.32411 47.404303 
Q 11.792731 47.179366 12.017669 46.879448 
Q 12.242607 46.579531 12.373821 45.979697 
Q 12.505034 45.379862 12.523779 44.967476 
Q 12.542524 44.55509 12.542524 43.805297 
Q 12.542524 42.718097 11.642772 42.043283 
Q 10.743021 41.368469 9.449628 41.031062 
Q 8.156234 40.693655 6.862841 40.300014 
Q 5.569448 39.906372 4.669697 38.987876 
Q 3.769945 38.069379 3.769945 36.607283 
Q 3.769945 36.082428 3.938648 35.726276 
Q 4.107352 35.370124 4.500993 35.145186 
Q 4.894634 34.920248 5.175807 34.807779 
Q 5.456979 34.69531 6.113048 34.639076 
Q 6.769117 34.582841 6.956566 34.582841 
Q 7.144014 34.582841 7.818828 34.582841 
Q 9.018497 34.582841 9.599586 34.995228 
Q 10.180676 35.407614 10.499338 36.026193 
Q 10.818 36.644772 11.080428 36.832221 
" clip-path="url(#p8a6626de95)" style="fill: none; stroke: #000000; stroke-linejoin: miter"/>
   </g>
  </g>
  <g id="axes_2">
   <g id="patch_3">
    <path d="M 29.843923 36.441748 
Q 28.634968 35.094627 24.662687 35.094627 
Q 23.142857 35.094627 22.365672 35.146439 
Q 21.588486 35.198252 20.58678 35.440043 
Q 19.585075 35.681834 19.101493 36.182687 
Q 18.61791 36.683539 18.272495 37.616162 
Q 17.927079 38.548785 17.927079 39.964989 
Q 17.927079 42.037484 19.343284 43.280981 
Q 20.759488 44.524478 22.693817 44.524478 
Q 25.353518 44.524478 28.116844 38.721493 
Q 29.463966 35.854542 29.463966 35.82 
Q 29.809382 35.578209 29.843923 36.441748 
Q 29.843923 37.512537 30.258422 40.362217 
Q 30.672921 43.211898 30.672921 44.524478 
" clip-path="url(#pfea89fd144)" style="fill: none; stroke: #000000; stroke-linejoin: miter"/>
   </g>
  </g>
  <g id="axes_3">
   <g id="patch_4">
    <path d="M 35.363917 36.382345 
Q 35.326428 36.494814 35.457641 36.701007 
Q 35.588855 36.9072 35.476386 37.057159 
L 35.476386 39.306538 
Q 35.476386 40.506207 35.813793 41.724621 
Q 36.1512 42.943034 37.013462 43.93651 
Q 37.875724 44.929986 39.075393 44.929986 
Q 40.312552 44.929986 40.987366 43.861531 
Q 41.662179 42.793076 42.112055 41.143531 
Q 42.561931 39.493986 42.899338 38.969131 
L 43.686621 36.382345 
L 43.461683 42.680607 
L 43.461683 45.154924 
Q 43.461683 47.066897 44.192731 51.00331 
Q 44.923779 54.939724 44.923779 56.964166 
Q 45.673572 59.213545 44.586372 60.188276 
Q 43.499172 61.163007 41.437241 60.78811 
Q 39.637738 60.488193 38.719241 60.169531 
Q 37.800745 59.850869 35.813793 58.988607 
L 35.701324 58.426262 
" clip-path="url(#pb090e812a9)" style="fill: none; stroke: #000000; stroke-linejoin: miter"/>
   </g>
  </g>
  <g id="axes_4">
   <g id="patch_5">
    <path d="M 52.257476 43.917766 
Q 52.557393 44.180193 53.569614 45.154924 
Q 54.581834 46.129655 55.144179 46.560786 
Q 55.706524 46.991917 56.73749 47.385559 
Q 57.768455 47.7792 58.780676 47.629241 
Q 59.45549 47.629241 59.92411 47.404303 
Q 60.392731 47.179366 60.617669 46.879448 
Q 60.842607 46.579531 60.973821 45.979697 
Q 61.105034 45.379862 61.123779 44.967476 
Q 61.142524 44.55509 61.142524 43.805297 
Q 61.142524 42.718097 60.242772 42.043283 
Q 59.343021 41.368469 58.049628 41.031062 
Q 56.756234 40.693655 55.462841 40.300014 
Q 54.169448 39.906372 53.269697 38.987876 
Q 52.369945 38.069379 52.369945 36.607283 
Q 52.369945 36.082428 52.538648 35.726276 
Q 52.707352 35.370124 53.100993 35.145186 
Q 53.494634 34.920248 53.775807 34.807779 
Q 54.056979 34.69531 54.713048 34.639076 
Q 55.369117 34.582841 55.556566 34.582841 
Q 55.744014 34.582841 56.418828 34.582841 
Q 57.618497 34.582841 58.199586 34.995228 
Q 58.780676 35.407614 59.099338 36.026193 
Q 59.418 36.644772 59.680428 36.832221 
" clip-path="url(#pe92af95b1d)" style="fill: none; stroke: #000000; stroke-linejoin: miter"/>
   </g>
  </g>
  <g id="axes_5">
   <g id="patch_6">
    <path d="M 72.187697 39.981352 
Q 73.199917 40.956083 73.537324 42.905545 
Q 73.724772 43.955255 73.312386 46.167145 
L 72.075228 47.629241 
" clip-path="url(#pc236d174ce)" style="fill: none; stroke: #000000; stroke-linejoin: miter"/>
   </g>
  </g>
  <g id="axes_6"/>
  <g id="axes_7">
   <g id="patch_7">
    <path d="M 108.899007 39.568966 
Q 107.549379 38.181848 105.3 38.444276 
Q 102.450786 38.444276 101.288607 39.793903 
Q 100.126428 41.143531 100.126428 44.067724 
Q 100.126428 45.56731 101.419821 46.279614 
Q 102.713214 46.991917 104.287779 46.991917 
Q 105.599917 46.991917 106.612138 45.736014 
Q 107.624359 44.48011 108.205448 42.30571 
Q 108.786538 40.13131 109.161434 37.938166 
Q 109.536331 35.745021 109.68629 33.045766 
Q 109.836248 30.34651 109.873738 28.978138 
Q 109.911228 27.609766 109.911228 26.185159 
Q 109.68629 26.260138 109.68629 29.896634 
L 109.68629 44.292662 
L 110.473572 48.229076 
" clip-path="url(#pdc4ed3adb4)" style="fill: none; stroke: #000000; stroke-linejoin: miter"/>
   </g>
  </g>
  <g id="axes_8">
   <g id="patch_8">
    <path d="M 118.013462 32.783338 
Q 118.538317 34.507862 118.669531 36.457324 
Q 118.800745 38.406786 118.725766 40.956083 
Q 118.650786 43.505379 118.688276 44.705048 
L 118.800745 46.054676 
L 118.800745 45.829738 
Q 118.800745 44.667559 118.519572 42.30571 
Q 118.2384 39.943862 118.2384 38.744193 
Q 118.2384 36.419834 119.250621 34.882759 
Q 120.262841 33.345683 122.287283 33.345683 
Q 122.999586 33.345683 123.336993 33.626855 
Q 123.6744 33.908028 123.936828 34.432883 
Q 124.199255 34.957738 124.536662 35.257655 
L 124.986538 36.832221 
" clip-path="url(#pf62379340b)" style="fill: none; stroke: #000000; stroke-linejoin: miter"/>
   </g>
  </g>
  <g id="axes_9">
   <g id="patch_9">
    <path d="M 140.9616 35.032717 
Q 139.91189 34.582841 138.937159 34.69531 
Q 135.900497 35.032717 133.988524 36.701007 
Q 132.076552 38.369297 132.076552 41.330979 
Q 132.076552 43.917766 134.082248 45.6048 
Q 136.087945 47.291834 138.712221 47.291834 
Q 141.074069 47.291834 142.198759 45.361117 
Q 143.323448 43.4304 143.323448 40.881103 
Q 143.323448 39.643945 142.911062 38.706703 
Q 142.498676 37.769462 141.973821 37.300841 
Q 141.448966 36.832221 140.699172 36.119917 
Q 139.949379 35.407614 139.499503 34.69531 
L 138.262345 34.245434 
" clip-path="url(#p4c323c8c02)" style="fill: none; stroke: #000000; stroke-linejoin: miter"/>
   </g>
  </g>
  <g id="axes_10">
   <g id="patch_10">
    <path d="M 149.120069 39.868883 
L 149.120069 39.419007 
Q 149.120069 37.769462 150.863338 36.682262 
Q 152.606607 35.595062 154.293641 35.595062 
Q 156.505531 35.595062 157.873903 36.794731 
Q 159.242276 37.9944 159.242276 40.20629 
Q 159.242276 42.30571 157.424028 43.336676 
Q 155.605779 44.367641 153.39389 44.367641 
Q 152.719076 44.367641 152.212966 44.255172 
Q 151.706855 44.142703 151.088276 43.917766 
Q 150.469697 43.692828 150.019821 43.580359 
L 148.895131 42.568138 
M 148.557724 36.832221 
Q 149.0076 38.444276 149.270028 40.262524 
Q 149.532455 42.080772 149.58869 43.749062 
Q 149.644924 45.417352 149.682414 47.27309 
Q 149.719903 49.128828 149.682414 50.778372 
L 149.569945 57.863917 
" clip-path="url(#pd751822fa2)" style="fill: none; stroke: #000000; stroke-linejoin: miter"/>
   </g>
  </g>
  <g id="axes_11">
   <g id="patch_11">
    <path d="M 165.320069 39.868883 
L 165.320069 39.419007 
Q 165.320069 37.769462 167.063338 36.682262 
Q 168.806607 35.595062 170.493641 35.595062 
Q 172.705531 35.595062 174.073903 36.794731 
Q 175.442276 37.9944 175.442276 40.20629 
Q 175.442276 42.30571 173.624028 43.336676 
Q 171.805779 44.367641 169.59389 44.367641 
Q 168.919076 44.367641 168.412966 44.255172 
Q 167.906855 44.142703 167.288276 43.917766 
Q 166.669697 43.692828 166.219821 43.580359 
L 165.095131 42.568138 
M 164.757724 36.832221 
Q 165.2076 38.444276 165.470028 40.262524 
Q 165.732455 42.080772 165.78869 43.749062 
Q 165.844924 45.417352 165.882414 47.27309 
Q 165.919903 49.128828 165.882414 50.778372 
L 165.769945 57.863917 
" clip-path="url(#p67a7a9b769)" style="fill: none; stroke: #000000; stroke-linejoin: miter"/>
   </g>
  </g>
  <g id="axes_12">
   <g id="patch_12">
    <path d="M 186.918579 29.071862 
Q 186.543683 29.146841 186.412469 29.577972 
Q 186.281255 30.009103 186.356234 30.42149 
Q 186.356234 30.571448 186.393724 30.702662 
Q 186.431214 30.833876 186.487448 30.89011 
Q 186.543683 30.946345 186.599917 31.040069 
Q 186.656152 31.133793 186.693641 31.208772 
L 186.80611 29.859145 
M 186.80611 34.020497 
Q 185.906359 39.006621 185.681421 42.793076 
L 186.131297 45.379862 
L 186.468703 46.054676 
" clip-path="url(#p53e957cd3f)" style="fill: none; stroke: #000000; stroke-linejoin: miter"/>
   </g>
  </g>
  <g id="axes_13">
   <g id="patch_13">
    <path d="M 198.038731 37.282097 
L 198.038731 37.844441 
Q 198.301159 39.868883 198.338648 41.312234 
Q 198.376138 42.755586 198.282414 44.667559 
Q 198.18869 46.579531 198.18869 48.191586 
L 198.263669 39.643945 
Q 198.263669 38.144359 199.856979 37.507034 
Q 201.45029 36.86971 202.874897 37.282097 
Q 204.786869 37.844441 205.705366 39.04411 
Q 206.623862 40.243779 206.680097 41.668386 
Q 206.736331 43.092993 206.773821 44.817517 
Q 206.81131 46.542041 206.961269 48.191586 
" clip-path="url(#paa24b810fd)" style="fill: none; stroke: #000000; stroke-linejoin: miter"/>
   </g>
  </g>
  <g id="axes_14">
   <g id="patch_14">
    <path d="M 223.487191 39.096404 
Q 223.23236 39.023596 222.26764 38.623146 
Q 221.302921 38.222697 220.64764 38.077079 
Q 219.99236 37.931461 219.337079 38.00427 
Q 216.715955 38.00427 215.077753 40.388764 
Q 213.439551 42.773258 213.439551 45.430787 
Q 213.439551 47.068989 218.681798 47.068989 
Q 220.247191 47.068989 221.575955 45.558202 
Q 222.904719 44.047416 223.578202 42.172584 
Q 224.251685 40.297753 224.251685 38.768764 
Q 224.251685 37.27618 224.215281 36.984944 
L 224.142472 38.077079 
Q 224.142472 38.550337 224.142472 38.987191 
Q 224.178876 40.188539 224.379101 42.281798 
Q 224.579326 44.375056 224.743146 46.049663 
Q 224.906966 47.72427 224.943371 49.872135 
Q 224.979775 52.02 224.815955 53.658202 
Q 224.652135 55.296404 224.087865 56.971011 
Q 223.523596 58.645618 222.595281 59.737753 
Q 221.666966 60.829888 220.065169 61.521573 
Q 218.463371 62.213258 216.315506 62.213258 
Q 214.677303 62.213258 213.585169 61.466966 
Q 212.493034 60.720674 212.493034 59.155281 
Q 212.420225 58.936854 212.456629 58.936854 
Q 212.493034 58.936854 212.602247 58.936854 
Q 212.711461 58.936854 212.711461 58.82764 
" clip-path="url(#p05774e3d42)" style="fill: none; stroke: #000000; stroke-linejoin: miter"/>
   </g>
  </g>
  <g id="axes_15"/>
  <g id="axes_16">
   <g id="patch_15">
    <path d="M 254.699007 39.568966 
Q 253.349379 38.181848 251.1 38.444276 
Q 248.250786 38.444276 247.088607 39.793903 
Q 245.926428 41.143531 245.926428 44.067724 
Q 245.926428 45.56731 247.219821 46.279614 
Q 248.513214 46.991917 250.087779 46.991917 
Q 251.399917 46.991917 252.412138 45.736014 
Q 253.424359 44.48011 254.005448 42.30571 
Q 254.586538 40.13131 254.961434 37.938166 
Q 255.336331 35.745021 255.48629 33.045766 
Q 255.636248 30.34651 255.673738 28.978138 
Q 255.711228 27.609766 255.711228 26.185159 
Q 255.48629 26.260138 255.48629 29.896634 
L 255.48629 44.292662 
L 256.273572 48.229076 
" clip-path="url(#p47bbe5a5a9)" style="fill: none; stroke: #000000; stroke-linejoin: miter"/>
   </g>
  </g>
  <g id="axes_17">
   <g id="patch_16">
    <path d="M 270.5616 35.032717 
Q 269.51189 34.582841 268.537159 34.69531 
Q 265.500497 35.032717 263.588524 36.701007 
Q 261.676552 38.369297 261.676552 41.330979 
Q 261.676552 43.917766 263.682248 45.6048 
Q 265.687945 47.291834 268.312221 47.291834 
Q 270.674069 47.291834 271.798759 45.361117 
Q 272.923448 43.4304 272.923448 40.881103 
Q 272.923448 39.643945 272.511062 38.706703 
Q 272.098676 37.769462 271.573821 37.300841 
Q 271.048966 36.832221 270.299172 36.119917 
Q 269.549379 35.407614 269.099503 34.69531 
L 267.862345 34.245434 
" clip-path="url(#pf7432ec11e)" style="fill: none; stroke: #000000; stroke-linejoin: miter"/>
   </g>
  </g>
  <g id="axes_18">
   <g id="patch_17">
    <path d="M 277.116102 36.437797 
L 278.351695 44.778051 
Q 278.454661 45.567458 278.454661 45.60178 
Q 278.454661 45.704746 278.763559 45.704746 
Q 279.62161 45.704746 280.342373 44.778051 
Q 281.063136 43.851356 281.475 42.718729 
Q 281.886864 41.586102 282.401695 40.659407 
Q 282.916525 39.732712 283.397034 39.732712 
Q 284.014831 39.732712 284.649788 40.607924 
Q 285.284746 41.483136 285.748093 42.512797 
Q 286.211441 43.542458 286.88072 44.417669 
Q 287.55 45.292881 288.236441 45.292881 
Q 288.511017 43.782712 288.940042 39.69839 
Q 289.369068 35.614068 289.883898 33.554746 
" clip-path="url(#p29e579858c)" style="fill: none; stroke: #000000; stroke-linejoin: miter"/>
   </g>
  </g>
  <g id="axes_19">
   <g id="patch_18">
    <path d="M 295.238731 37.282097 
L 295.238731 37.844441 
Q 295.501159 39.868883 295.538648 41.312234 
Q 295.576138 42.755586 295.482414 44.667559 
Q 295.38869 46.579531 295.38869 48.191586 
L 295.463669 39.643945 
Q 295.463669 38.144359 297.056979 37.507034 
Q 298.65029 36.86971 300.074897 37.282097 
Q 301.986869 37.844441 302.905366 39.04411 
Q 303.823862 40.243779 303.880097 41.668386 
Q 303.936331 43.092993 303.973821 44.817517 
Q 304.01131 46.542041 304.161269 48.191586 
" clip-path="url(#p3d11c9317c)" style="fill: none; stroke: #000000; stroke-linejoin: miter"/>
   </g>
  </g>
  <g id="axes_20"/>
  <g id="axes_21">
   <g id="patch_19">
    <path d="M 337.643923 36.441748 
Q 336.434968 35.094627 332.462687 35.094627 
Q 330.942857 35.094627 330.165672 35.146439 
Q 329.388486 35.198252 328.38678 35.440043 
Q 327.385075 35.681834 326.901493 36.182687 
Q 326.41791 36.683539 326.072495 37.616162 
Q 325.727079 38.548785 325.727079 39.964989 
Q 325.727079 42.037484 327.143284 43.280981 
Q 328.559488 44.524478 330.493817 44.524478 
Q 333.153518 44.524478 335.916844 38.721493 
Q 337.263966 35.854542 337.263966 35.82 
Q 337.609382 35.578209 337.643923 36.441748 
Q 337.643923 37.512537 338.058422 40.362217 
Q 338.472921 43.211898 338.472921 44.524478 
" clip-path="url(#p085254fc5e)" style="fill: none; stroke: #000000; stroke-linejoin: miter"/>
   </g>
  </g>
  <g id="axes_22"/>
  <g id="axes_23">
   <g id="patch_20">
    <path d="M 369.287191 39.096404 
Q 369.03236 39.023596 368.06764 38.623146 
Q 367.102921 38.222697 366.44764 38.077079 
Q 365.79236 37.931461 365.137079 38.00427 
Q 362.515955 38.00427 360.877753 40.388764 
Q 359.239551 42.773258 359.239551 45.430787 
Q 359.239551 47.068989 364.481798 47.068989 
Q 366.047191 47.068989 367.375955 45.558202 
Q 368.704719 44.047416 369.378202 42.172584 
Q 370.051685 40.297753 370.051685 38.768764 
Q 370.051685 37.27618 370.015281 36.984944 
L 369.942472 38.077079 
Q 369.942472 38.550337 369.942472 38.987191 
Q 369.978876 40.188539 370.179101 42.281798 
Q 370.379326 44.375056 370.543146 46.049663 
Q 370.706966 47.72427 370.743371 49.872135 
Q 370.779775 52.02 370.615955 53.658202 
Q 370.452135 55.296404 369.887865 56.971011 
Q 369.323596 58.645618 368.395281 59.737753 
Q 367.466966 60.829888 365.865169 61.521573 
Q 364.263371 62.213258 362.115506 62.213258 
Q 360.477303 62.213258 359.385169 61.466966 
Q 358.293034 60.720674 358.293034 59.155281 
Q 358.220225 58.936854 358.256629 58.936854 
Q 358.293034 58.936854 358.402247 58.936854 
Q 358.511461 58.936854 358.511461 58.82764 
" clip-path="url(#p6c98798b39)" style="fill: none; stroke: #000000; stroke-linejoin: miter"/>
   </g>
  </g>
  <g id="axes_24">
   <g id="patch_21">
    <path d="M 374.457798 38.160826 
Q 377.430275 39.535596 382.149083 39.721376 
Q 383.672477 39.721376 384.359862 38.550963 
Q 385.047248 37.38055 385.047248 35.82 
Q 385.047248 35.299817 384.954358 34.909679 
Q 384.861468 34.519541 384.619954 34.296606 
Q 384.37844 34.07367 384.211239 33.943624 
Q 384.044037 33.813578 383.598165 33.757844 
Q 383.152294 33.70211 382.947936 33.683532 
Q 382.743578 33.664954 382.167661 33.683532 
Q 381.591743 33.70211 381.368807 33.70211 
Q 379.325229 33.70211 377.838991 35.578486 
Q 376.352752 37.454862 376.352752 39.609908 
Q 376.352752 42.619541 378.284862 44.570229 
Q 380.216972 46.520917 383.263761 46.520917 
Q 385.418807 46.818165 386.942202 44.29156 
" clip-path="url(#pa37d2e30a9)" style="fill: none; stroke: #000000; stroke-linejoin: miter"/>
   </g>
  </g>
  <g id="axes_25">
   <g id="patch_22">
    <path d="M 402.443923 36.441748 
Q 401.234968 35.094627 397.262687 35.094627 
Q 395.742857 35.094627 394.965672 35.146439 
Q 394.188486 35.198252 393.18678 35.440043 
Q 392.185075 35.681834 391.701493 36.182687 
Q 391.21791 36.683539 390.872495 37.616162 
Q 390.527079 38.548785 390.527079 39.964989 
Q 390.527079 42.037484 391.943284 43.280981 
Q 393.359488 44.524478 395.293817 44.524478 
Q 397.953518 44.524478 400.716844 38.721493 
Q 402.063966 35.854542 402.063966 35.82 
Q 402.409382 35.578209 402.443923 36.441748 
Q 402.443923 37.512537 402.858422 40.362217 
Q 403.272921 43.211898 403.272921 44.524478 
" clip-path="url(#p81b59f9095)" style="fill: none; stroke: #000000; stroke-linejoin: miter"/>
   </g>
  </g>
  <g id="axes_26">
   <g id="patch_23">
    <path d="M 409.613462 32.783338 
Q 410.138317 34.507862 410.269531 36.457324 
Q 410.400745 38.406786 410.325766 40.956083 
Q 410.250786 43.505379 410.288276 44.705048 
L 410.400745 46.054676 
L 410.400745 45.829738 
Q 410.400745 44.667559 410.119572 42.30571 
Q 409.8384 39.943862 409.8384 38.744193 
Q 409.8384 36.419834 410.850621 34.882759 
Q 411.862841 33.345683 413.887283 33.345683 
Q 414.599586 33.345683 414.936993 33.626855 
Q 415.2744 33.908028 415.536828 34.432883 
Q 415.799255 34.957738 416.136662 35.257655 
L 416.586538 36.832221 
" clip-path="url(#pfb0bcede55)" style="fill: none; stroke: #000000; stroke-linejoin: miter"/>
   </g>
  </g>
  <g id="axes_27">
   <g id="patch_24">
    <path d="M 428.587697 39.981352 
Q 429.599917 40.956083 429.937324 42.905545 
Q 430.124772 43.955255 429.712386 46.167145 
L 428.475228 47.629241 
" clip-path="url(#p9dbf4b8372)" style="fill: none; stroke: #000000; stroke-linejoin: miter"/>
   </g>
  </g>
  <g id="axes_28"/>
  <g id="axes_29">
   <g id="patch_25">
    <path d="M 462.224855 27.009931 
Q 462.299834 27.347338 462.374814 28.265834 
Q 462.449793 29.184331 462.599752 29.634207 
L 462.524772 31.058814 
M 460.875228 27.309848 
Q 460.837738 27.309848 460.800248 27.534786 
Q 460.837738 27.684745 460.950207 28.828179 
Q 461.062676 29.971614 461.325103 30.533959 
" clip-path="url(#p9a2d7963c8)" style="fill: none; stroke: #000000; stroke-linejoin: miter"/>
   </g>
  </g>
  <g id="axes_30">
   <g id="patch_26">
    <path d="M 470.887248 30.470738 
L 472.061477 30.601208 
Q 473.888054 30.601208 475.725503 30.709933 
Q 477.562953 30.818658 479.802685 30.992617 
Q 482.042416 31.166577 483.477584 31.253557 
L 484.912752 31.123087 
M 477.671678 31.057852 
Q 477.736913 31.405772 477.475973 32.177718 
Q 477.215034 32.949664 477.410738 33.406309 
Q 477.410738 34.711007 477.552081 36.363624 
Q 477.693423 38.016242 477.910872 39.973289 
Q 478.128322 41.930336 478.193557 42.800134 
" clip-path="url(#p87f968489b)" style="fill: none; stroke: #000000; stroke-linejoin: miter"/>
   </g>
  </g>
  <g id="axes_31">
   <g id="patch_27">
    <path d="M 490.613462 35.932469 
Q 491.213297 35.257655 492.206772 34.826524 
Q 493.200248 34.395393 494.1 34.470372 
Q 494.737324 34.470372 495.22469 34.639076 
Q 495.712055 34.807779 496.030717 34.995228 
Q 496.349379 35.182676 496.574317 35.670041 
Q 496.799255 36.157407 496.911724 36.419834 
Q 497.024193 36.682262 497.080428 37.375821 
Q 497.136662 38.069379 497.155407 38.331807 
Q 497.174152 38.594234 497.155407 39.419007 
Q 497.136662 40.243779 497.136662 40.431228 
Q 497.136662 41.368469 496.967959 43.242952 
Q 496.799255 45.117434 496.799255 46.054676 
Q 496.799255 46.467062 496.85549 46.823214 
Q 496.911724 47.179366 497.005448 47.610497 
Q 497.099172 48.041628 497.136662 48.304055 
L 497.586538 48.528993 
M 491.063338 23.111007 
Q 491.288276 24.798041 491.288276 29.971614 
L 491.288276 42.3432 
L 490.950869 46.841959 
L 490.725931 47.74171 
" clip-path="url(#p8c0690cb5d)" style="fill: none; stroke: #000000; stroke-linejoin: miter"/>
   </g>
  </g>
  <g id="axes_32">
   <g id="patch_28">
    <path d="M 504.057798 38.160826 
Q 507.030275 39.535596 511.749083 39.721376 
Q 513.272477 39.721376 513.959862 38.550963 
Q 514.647248 37.38055 514.647248 35.82 
Q 514.647248 35.299817 514.554358 34.909679 
Q 514.461468 34.519541 514.219954 34.296606 
Q 513.97844 34.07367 513.811239 33.943624 
Q 513.644037 33.813578 513.198165 33.757844 
Q 512.752294 33.70211 512.547936 33.683532 
Q 512.343578 33.664954 511.767661 33.683532 
Q 511.191743 33.70211 510.968807 33.70211 
Q 508.925229 33.70211 507.438991 35.578486 
Q 505.952752 37.454862 505.952752 39.609908 
Q 505.952752 42.619541 507.884862 44.570229 
Q 509.816972 46.520917 512.863761 46.520917 
Q 515.018807 46.818165 516.542202 44.29156 
" clip-path="url(#p8289ddc992)" style="fill: none; stroke: #000000; stroke-linejoin: miter"/>
   </g>
  </g>
  <g id="axes_33">
   <g id="patch_29">
    <path d="M 522.057476 43.917766 
Q 522.357393 44.180193 523.369614 45.154924 
Q 524.381834 46.129655 524.944179 46.560786 
Q 525.506524 46.991917 526.53749 47.385559 
Q 527.568455 47.7792 528.580676 47.629241 
Q 529.25549 47.629241 529.72411 47.404303 
Q 530.192731 47.179366 530.417669 46.879448 
Q 530.642607 46.579531 530.773821 45.979697 
Q 530.905034 45.379862 530.923779 44.967476 
Q 530.942524 44.55509 530.942524 43.805297 
Q 530.942524 42.718097 530.042772 42.043283 
Q 529.143021 41.368469 527.849628 41.031062 
Q 526.556234 40.693655 525.262841 40.300014 
Q 523.969448 39.906372 523.069697 38.987876 
Q 522.169945 38.069379 522.169945 36.607283 
Q 522.169945 36.082428 522.338648 35.726276 
Q 522.507352 35.370124 522.900993 35.145186 
Q 523.294634 34.920248 523.575807 34.807779 
Q 523.856979 34.69531 524.513048 34.639076 
Q 525.169117 34.582841 525.356566 34.582841 
Q 525.544014 34.582841 526.218828 34.582841 
Q 527.418497 34.582841 527.999586 34.995228 
Q 528.580676 35.407614 528.899338 36.026193 
Q 529.218 36.644772 529.480428 36.832221 
" clip-path="url(#pd4cb433972)" style="fill: none; stroke: #000000; stroke-linejoin: miter"/>
   </g>
  </g>
  <g id="axes_34">
   <g id="patch_30">
    <path d="M 536.457798 38.160826 
Q 539.430275 39.535596 544.149083 39.721376 
Q 545.672477 39.721376 546.359862 38.550963 
Q 547.047248 37.38055 547.047248 35.82 
Q 547.047248 35.299817 546.954358 34.909679 
Q 546.861468 34.519541 546.619954 34.296606 
Q 546.37844 34.07367 546.211239 33.943624 
Q 546.044037 33.813578 545.598165 33.757844 
Q 545.152294 33.70211 544.947936 33.683532 
Q 544.743578 33.664954 544.167661 33.683532 
Q 543.591743 33.70211 543.368807 33.70211 
Q 541.325229 33.70211 539.838991 35.578486 
Q 538.352752 37.454862 538.352752 39.609908 
Q 538.352752 42.619541 540.284862 44.570229 
Q 542.216972 46.520917 545.263761 46.520917 
Q 547.418807 46.818165 548.942202 44.29156 
" clip-path="url(#p68b9e7d480)" style="fill: none; stroke: #000000; stroke-linejoin: miter"/>
   </g>
  </g>
  <g id="axes_35"/>
  <g id="axes_36">
   <g id="patch_31">
    <path d="M 580.356735 34.365306 
Q 580.356735 34.365306 579.860816 34.365306 
Q 579.067347 34.365306 577.579592 34.067755 
Q 576.091837 33.770204 575.298367 33.770204 
Q 572.521224 33.770204 570.587143 35.224898 
Q 568.653061 36.679592 568.653061 39.423673 
Q 568.653061 40.94449 570.140816 42.399184 
Q 571.628571 43.853878 573.562653 44.663878 
Q 575.496735 45.473878 576.98449 45.473878 
Q 577.910204 45.473878 578.60449 45.110204 
Q 579.298776 44.746531 580.042653 44.118367 
Q 580.786531 43.490204 581.348571 43.192653 
L 581.546939 42.696735 
" clip-path="url(#p9e1f1a30ed)" style="fill: none; stroke: #000000; stroke-linejoin: miter"/>
   </g>
  </g>
  <g id="axes_37">
   <g id="patch_32">
    <path d="M 594.5616 35.032717 
Q 593.51189 34.582841 592.537159 34.69531 
Q 589.500497 35.032717 587.588524 36.701007 
Q 585.676552 38.369297 585.676552 41.330979 
Q 585.676552 43.917766 587.682248 45.6048 
Q 589.687945 47.291834 592.312221 47.291834 
Q 594.674069 47.291834 595.798759 45.361117 
Q 596.923448 43.4304 596.923448 40.881103 
Q 596.923448 39.643945 596.511062 38.706703 
Q 596.098676 37.769462 595.573821 37.300841 
Q 595.048966 36.832221 594.299172 36.119917 
Q 593.549379 35.407614 593.099503 34.69531 
L 591.862345 34.245434 
" clip-path="url(#p453bf79aea)" style="fill: none; stroke: #000000; stroke-linejoin: miter"/>
   </g>
  </g>
  <g id="axes_38">
   <g id="patch_33">
    <path d="M 604.013462 32.783338 
Q 604.538317 34.507862 604.669531 36.457324 
Q 604.800745 38.406786 604.725766 40.956083 
Q 604.650786 43.505379 604.688276 44.705048 
L 604.800745 46.054676 
L 604.800745 45.829738 
Q 604.800745 44.667559 604.519572 42.30571 
Q 604.2384 39.943862 604.2384 38.744193 
Q 604.2384 36.419834 605.250621 34.882759 
Q 606.262841 33.345683 608.287283 33.345683 
Q 608.999586 33.345683 609.336993 33.626855 
Q 609.6744 33.908028 609.936828 34.432883 
Q 610.199255 34.957738 610.536662 35.257655 
L 610.986538 36.832221 
" clip-path="url(#p11df9fc81c)" style="fill: none; stroke: #000000; stroke-linejoin: miter"/>
   </g>
  </g>
  <g id="axes_39">
   <g id="patch_34">
    <path d="M 619.238731 37.282097 
L 619.238731 37.844441 
Q 619.501159 39.868883 619.538648 41.312234 
Q 619.576138 42.755586 619.482414 44.667559 
Q 619.38869 46.579531 619.38869 48.191586 
L 619.463669 39.643945 
Q 619.463669 38.144359 621.056979 37.507034 
Q 622.65029 36.86971 624.074897 37.282097 
Q 625.986869 37.844441 626.905366 39.04411 
Q 627.823862 40.243779 627.880097 41.668386 
Q 627.936331 43.092993 627.973821 44.817517 
Q 628.01131 46.542041 628.161269 48.191586 
" clip-path="url(#p4c8b176b17)" style="fill: none; stroke: #000000; stroke-linejoin: miter"/>
   </g>
  </g>
  <g id="axes_40">
   <g id="patch_35">
    <path d="M 633.657798 38.160826 
Q 636.630275 39.535596 641.349083 39.721376 
Q 642.872477 39.721376 643.559862 38.550963 
Q 644.247248 37.38055 644.247248 35.82 
Q 644.247248 35.299817 644.154358 34.909679 
Q 644.061468 34.519541 643.819954 34.296606 
Q 643.57844 34.07367 643.411239 33.943624 
Q 643.244037 33.813578 642.798165 33.757844 
Q 642.352294 33.70211 642.147936 33.683532 
Q 641.943578 33.664954 641.367661 33.683532 
Q 640.791743 33.70211 640.568807 33.70211 
Q 638.525229 33.70211 637.038991 35.578486 
Q 635.552752 37.454862 635.552752 39.609908 
Q 635.552752 42.619541 637.484862 44.570229 
Q 639.416972 46.520917 642.463761 46.520917 
Q 644.618807 46.818165 646.142202 44.29156 
" clip-path="url(#pf0f5e2ac6b)" style="fill: none; stroke: #000000; stroke-linejoin: miter"/>
   </g>
  </g>
  <g id="axes_41">
   <g id="patch_36">
    <path d="M 652.613462 32.783338 
Q 653.138317 34.507862 653.269531 36.457324 
Q 653.400745 38.406786 653.325766 40.956083 
Q 653.250786 43.505379 653.288276 44.705048 
L 653.400745 46.054676 
L 653.400745 45.829738 
Q 653.400745 44.667559 653.119572 42.30571 
Q 652.8384 39.943862 652.8384 38.744193 
Q 652.8384 36.419834 653.850621 34.882759 
Q 654.862841 33.345683 656.887283 33.345683 
Q 657.599586 33.345683 657.936993 33.626855 
Q 658.2744 33.908028 658.536828 34.432883 
Q 658.799255 34.957738 659.136662 35.257655 
L 659.586538 36.832221 
" clip-path="url(#pb8c2eb17c5)" style="fill: none; stroke: #000000; stroke-linejoin: miter"/>
   </g>
  </g>
  <g id="axes_42">
   <g id="patch_37">
    <path d="M 667.857476 43.917766 
Q 668.157393 44.180193 669.169614 45.154924 
Q 670.181834 46.129655 670.744179 46.560786 
Q 671.306524 46.991917 672.33749 47.385559 
Q 673.368455 47.7792 674.380676 47.629241 
Q 675.05549 47.629241 675.52411 47.404303 
Q 675.992731 47.179366 676.217669 46.879448 
Q 676.442607 46.579531 676.573821 45.979697 
Q 676.705034 45.379862 676.723779 44.967476 
Q 676.742524 44.55509 676.742524 43.805297 
Q 676.742524 42.718097 675.842772 42.043283 
Q 674.943021 41.368469 673.649628 41.031062 
Q 672.356234 40.693655 671.062841 40.300014 
Q 669.769448 39.906372 668.869697 38.987876 
Q 667.969945 38.069379 667.969945 36.607283 
Q 667.969945 36.082428 668.138648 35.726276 
Q 668.307352 35.370124 668.700993 35.145186 
Q 669.094634 34.920248 669.375807 34.807779 
Q 669.656979 34.69531 670.313048 34.639076 
Q 670.969117 34.582841 671.156566 34.582841 
Q 671.344014 34.582841 672.018828 34.582841 
Q 673.218497 34.582841 673.799586 34.995228 
Q 674.380676 35.407614 674.699338 36.026193 
Q 675.018 36.644772 675.280428 36.832221 
" clip-path="url(#p582b61b68b)" style="fill: none; stroke: #000000; stroke-linejoin: miter"/>
   </g>
  </g>
  <g id="axes_43"/>
  <g id="axes_44">
   <g id="patch_38">
    <path d="M 710.243923 36.441748 
Q 709.034968 35.094627 705.062687 35.094627 
Q 703.542857 35.094627 702.765672 35.146439 
Q 701.988486 35.198252 700.98678 35.440043 
Q 699.985075 35.681834 699.501493 36.182687 
Q 699.01791 36.683539 698.672495 37.616162 
Q 698.327079 38.548785 698.327079 39.964989 
Q 698.327079 42.037484 699.743284 43.280981 
Q 701.159488 44.524478 703.093817 44.524478 
Q 705.753518 44.524478 708.516844 38.721493 
Q 709.863966 35.854542 709.863966 35.82 
Q 710.209382 35.578209 710.243923 36.441748 
Q 710.243923 37.512537 710.658422 40.362217 
Q 711.072921 43.211898 711.072921 44.524478 
" clip-path="url(#pebb2f8e8e6)" style="fill: none; stroke: #000000; stroke-linejoin: miter"/>
   </g>
  </g>
  <g id="axes_45">
   <g id="patch_39">
    <path d="M 717.413462 32.783338 
Q 717.938317 34.507862 718.069531 36.457324 
Q 718.200745 38.406786 718.125766 40.956083 
Q 718.050786 43.505379 718.088276 44.705048 
L 718.200745 46.054676 
L 718.200745 45.829738 
Q 718.200745 44.667559 717.919572 42.30571 
Q 717.6384 39.943862 717.6384 38.744193 
Q 717.6384 36.419834 718.650621 34.882759 
Q 719.662841 33.345683 721.687283 33.345683 
Q 722.399586 33.345683 722.736993 33.626855 
Q 723.0744 33.908028 723.336828 34.432883 
Q 723.599255 34.957738 723.936662 35.257655 
L 724.386538 36.832221 
" clip-path="url(#p93b38ed28b)" style="fill: none; stroke: #000000; stroke-linejoin: miter"/>
   </g>
  </g>
  <g id="axes_46">
   <g id="patch_40">
    <path d="M 730.857798 38.160826 
Q 733.830275 39.535596 738.549083 39.721376 
Q 740.072477 39.721376 740.759862 38.550963 
Q 741.447248 37.38055 741.447248 35.82 
Q 741.447248 35.299817 741.354358 34.909679 
Q 741.261468 34.519541 741.019954 34.296606 
Q 740.77844 34.07367 740.611239 33.943624 
Q 740.444037 33.813578 739.998165 33.757844 
Q 739.552294 33.70211 739.347936 33.683532 
Q 739.143578 33.664954 738.567661 33.683532 
Q 737.991743 33.70211 737.768807 33.70211 
Q 735.725229 33.70211 734.238991 35.578486 
Q 732.752752 37.454862 732.752752 39.609908 
Q 732.752752 42.619541 734.684862 44.570229 
Q 736.616972 46.520917 739.663761 46.520917 
Q 741.818807 46.818165 743.342202 44.29156 
" clip-path="url(#pe8ea02db94)" style="fill: none; stroke: #000000; stroke-linejoin: miter"/>
   </g>
  </g>
 </g>
 <defs>
  <clipPath id="p8a6626de95">
   <rect x="1.782993" y="8.64" width="12.634014" height="54.36"/>
  </clipPath>
  <clipPath id="pfea89fd144">
   <rect x="16.2" y="10.777356" width="16.2" height="50.085288"/>
  </clipPath>
  <clipPath id="pb090e812a9">
   <rect x="33.451945" y="8.64" width="14.09611" height="54.36"/>
  </clipPath>
  <clipPath id="pe92af95b1d">
   <rect x="50.382993" y="8.64" width="12.634014" height="54.36"/>
  </clipPath>
  <clipPath id="pc236d174ce">
   <rect x="70.200745" y="8.64" width="5.39851" height="54.36"/>
  </clipPath>
  <clipPath id="pdc4ed3adb4">
   <rect x="98.251945" y="8.64" width="14.09611" height="54.36"/>
  </clipPath>
  <clipPath id="pf62379340b">
   <rect x="116.138979" y="8.64" width="10.722041" height="54.36"/>
  </clipPath>
  <clipPath id="p4c323c8c02">
   <rect x="130.202069" y="8.64" width="14.995862" height="54.36"/>
  </clipPath>
  <clipPath id="pd751822fa2">
   <rect x="146.683241" y="8.64" width="14.433517" height="54.36"/>
  </clipPath>
  <clipPath id="p67a7a9b769">
   <rect x="162.883241" y="8.64" width="14.433517" height="54.36"/>
  </clipPath>
  <clipPath id="p53e957cd3f">
   <rect x="183.806938" y="8.64" width="4.986124" height="54.36"/>
  </clipPath>
  <clipPath id="paa24b810fd">
   <rect x="196.164248" y="8.64" width="12.671503" height="54.36"/>
  </clipPath>
  <clipPath id="p05774e3d42">
   <rect x="210.6" y="9.426742" width="16.2" height="52.786517"/>
  </clipPath>
  <clipPath id="p47bbe5a5a9">
   <rect x="244.051945" y="8.64" width="14.09611" height="54.36"/>
  </clipPath>
  <clipPath id="pf7432ec11e">
   <rect x="259.802069" y="8.64" width="14.995862" height="54.36"/>
  </clipPath>
  <clipPath id="p29e579858c">
   <rect x="275.4" y="10.936525" width="16.2" height="49.766949"/>
  </clipPath>
  <clipPath id="p3d11c9317c">
   <rect x="293.364248" y="8.64" width="12.671503" height="54.36"/>
  </clipPath>
  <clipPath id="p085254fc5e">
   <rect x="324" y="10.777356" width="16.2" height="50.085288"/>
  </clipPath>
  <clipPath id="p6c98798b39">
   <rect x="356.4" y="9.426742" width="16.2" height="52.786517"/>
  </clipPath>
  <clipPath id="pa37d2e30a9">
   <rect x="372.6" y="8.881927" width="16.2" height="53.876147"/>
  </clipPath>
  <clipPath id="p81b59f9095">
   <rect x="388.8" y="10.777356" width="16.2" height="50.085288"/>
  </clipPath>
  <clipPath id="pfb0bcede55">
   <rect x="407.738979" y="8.64" width="10.722041" height="54.36"/>
  </clipPath>
  <clipPath id="p9dbf4b8372">
   <rect x="426.600745" y="8.64" width="5.39851" height="54.36"/>
  </clipPath>
  <clipPath id="p9a2d7963c8">
   <rect x="458.925766" y="8.64" width="5.548469" height="54.36"/>
  </clipPath>
  <clipPath id="p87f968489b">
   <rect x="469.8" y="20.054899" width="16.2" height="31.530201"/>
  </clipPath>
  <clipPath id="p8c0690cb5d">
   <rect x="488.738979" y="8.64" width="10.722041" height="54.36"/>
  </clipPath>
  <clipPath id="p8289ddc992">
   <rect x="502.2" y="8.881927" width="16.2" height="53.876147"/>
  </clipPath>
  <clipPath id="pd4cb433972">
   <rect x="520.182993" y="8.64" width="12.634014" height="54.36"/>
  </clipPath>
  <clipPath id="p68b9e7d480">
   <rect x="534.6" y="8.881927" width="16.2" height="53.876147"/>
  </clipPath>
  <clipPath id="p9e1f1a30ed">
   <rect x="567" y="11.850612" width="16.2" height="47.938776"/>
  </clipPath>
  <clipPath id="p453bf79aea">
   <rect x="583.802069" y="8.64" width="14.995862" height="54.36"/>
  </clipPath>
  <clipPath id="p11df9fc81c">
   <rect x="602.138979" y="8.64" width="10.722041" height="54.36"/>
  </clipPath>
  <clipPath id="p4c8b176b17">
   <rect x="617.364248" y="8.64" width="12.671503" height="54.36"/>
  </clipPath>
  <clipPath id="pf0f5e2ac6b">
   <rect x="631.8" y="8.881927" width="16.2" height="53.876147"/>
  </clipPath>
  <clipPath id="pb8c2eb17c5">
   <rect x="650.738979" y="8.64" width="10.722041" height="54.36"/>
  </clipPath>
  <clipPath id="p582b61b68b">
   <rect x="665.982993" y="8.64" width="12.634014" height="54.36"/>
  </clipPath>
  <clipPath id="pebb2f8e8e6">
   <rect x="696.6" y="10.777356" width="16.2" height="50.085288"/>
  </clipPath>
  <clipPath id="p93b38ed28b">
   <rect x="715.538979" y="8.64" width="10.722041" height="54.36"/>
  </clipPath>
  <clipPath id="pe8ea02db94">
   <rect x="729" y="8.881927" width="16.2" height="53.876147"/>
  </clipPath>
 </defs>
</svg>
