<?xml version="1.0" encoding="utf-8" standalone="no"?>
<!DOCTYPE svg PUBLIC "-//W3C//DTD SVG 1.1//EN"
  "http://www.w3.org/Graphics/SVG/1.1/DTD/svg11.dtd">
<svg xmlns:xlink="http://www.w3.org/1999/xlink" width="900pt" height="72pt" viewBox="0 0 900 72" xmlns="http://www.w3.org/2000/svg" version="1.1">
 <metadata>
  <rdf:RDF xmlns:dc="http://purl.org/dc/elements/1.1/" xmlns:cc="http://creativecommons.org/ns#" xmlns:rdf="http://www.w3.org/1999/02/22-rdf-syntax-ns#">
   <cc:Work>
    <dc:type rdf:resource="http://purl.org/dc/dcmitype/StillImage"/>
    <dc:date>2023-12-21T11:47:12.628229</dc:date>
    <dc:format>image/svg+xml</dc:format>
    <dc:creator>
     <cc:Agent>
      <dc:title>Matplotlib v3.5.1, https://matplotlib.org/</dc:title>
     </cc:Agent>
    </dc:creator>
   </cc:Work>
  </rdf:RDF>
 </metadata>
 <defs>
  <style type="text/css">*{stroke-linejoin: round; stroke-linecap: butt}</style>
 </defs>
 <g id="figure_1">
  <g id="patch_1">
   <path d="M 0 72 
L 900 72 
L 900 0 
L 0 0 
z
" style="fill: #8fff9f"/>
  </g>
  <g id="axes_1">
   <g id="patch_2">
    <path d="M 8.718579 29.071862 
Q 8.343683 29.146841 8.212469 29.577972 
Q 8.081255 30.009103 8.156234 30.42149 
Q 8.156234 30.571448 8.193724 30.702662 
Q 8.231214 30.833876 8.287448 30.89011 
Q 8.343683 30.946345 8.399917 31.040069 
Q 8.456152 31.133793 8.493641 31.208772 
L 8.60611 29.859145 
M 8.60611 34.020497 
Q 7.706359 39.006621 7.481421 42.793076 
L 7.931297 45.379862 
L 8.268703 46.054676 
" clip-path="url(#p4b3a3ffb4f)" style="fill: none; stroke: #000000; stroke-linejoin: miter"/>
   </g>
  </g>
  <g id="axes_2">
   <g id="patch_3">
    <path d="M 19.838731 37.282097 
L 19.838731 37.844441 
Q 20.101159 39.868883 20.138648 41.312234 
Q 20.176138 42.755586 20.082414 44.667559 
Q 19.98869 46.579531 19.98869 48.191586 
L 20.063669 39.643945 
Q 20.063669 38.144359 21.656979 37.507034 
Q 23.25029 36.86971 24.674897 37.282097 
Q 26.586869 37.844441 27.505366 39.04411 
Q 28.423862 40.243779 28.480097 41.668386 
Q 28.536331 43.092993 28.573821 44.817517 
Q 28.61131 46.542041 28.761269 48.191586 
" clip-path="url(#p36291ed81c)" style="fill: none; stroke: #000000; stroke-linejoin: miter"/>
   </g>
  </g>
  <g id="axes_3"/>
  <g id="axes_4">
   <g id="patch_4">
    <path d="M 51.863834 37.95691 
L 52.538648 37.95691 
Q 53.250952 37.95691 54.038234 37.881931 
Q 54.825517 37.806952 55.781503 37.675738 
Q 56.73749 37.544524 57.262345 37.507034 
L 61.536166 35.82 
M 57.487283 30.42149 
L 57.487283 31.43371 
Q 57.487283 33.383172 56.812469 37.207117 
Q 56.137655 41.031062 56.137655 43.018014 
Q 56.137655 43.805297 56.137655 44.105214 
Q 56.137655 44.405131 56.231379 45.042455 
Q 56.325103 45.679779 56.512552 45.960952 
Q 56.7 46.242124 57.093641 46.485807 
Q 57.487283 46.72949 58.049628 46.72949 
Q 58.162097 46.692 58.480759 46.72949 
Q 58.799421 46.766979 58.986869 46.710745 
Q 59.174317 46.65451 59.174317 46.392083 
" clip-path="url(#p347a67ddd0)" style="fill: none; stroke: #000000; stroke-linejoin: miter"/>
   </g>
  </g>
  <g id="axes_5">
   <g id="patch_5">
    <path d="M 69.413462 35.932469 
Q 70.013297 35.257655 71.006772 34.826524 
Q 72.000248 34.395393 72.9 34.470372 
Q 73.537324 34.470372 74.02469 34.639076 
Q 74.512055 34.807779 74.830717 34.995228 
Q 75.149379 35.182676 75.374317 35.670041 
Q 75.599255 36.157407 75.711724 36.419834 
Q 75.824193 36.682262 75.880428 37.375821 
Q 75.936662 38.069379 75.955407 38.331807 
Q 75.974152 38.594234 75.955407 39.419007 
Q 75.936662 40.243779 75.936662 40.431228 
Q 75.936662 41.368469 75.767959 43.242952 
Q 75.599255 45.117434 75.599255 46.054676 
Q 75.599255 46.467062 75.65549 46.823214 
Q 75.711724 47.179366 75.805448 47.610497 
Q 75.899172 48.041628 75.936662 48.304055 
L 76.386538 48.528993 
M 69.863338 23.111007 
Q 70.088276 24.798041 70.088276 29.971614 
L 70.088276 42.3432 
L 69.750869 46.841959 
L 69.525931 47.74171 
" clip-path="url(#p812f1babb5)" style="fill: none; stroke: #000000; stroke-linejoin: miter"/>
   </g>
  </g>
  <g id="axes_6">
   <g id="patch_6">
    <path d="M 82.857798 38.160826 
Q 85.830275 39.535596 90.549083 39.721376 
Q 92.072477 39.721376 92.759862 38.550963 
Q 93.447248 37.38055 93.447248 35.82 
Q 93.447248 35.299817 93.354358 34.909679 
Q 93.261468 34.519541 93.019954 34.296606 
Q 92.77844 34.07367 92.611239 33.943624 
Q 92.444037 33.813578 91.998165 33.757844 
Q 91.552294 33.70211 91.347936 33.683532 
Q 91.143578 33.664954 90.567661 33.683532 
Q 89.991743 33.70211 89.768807 33.70211 
Q 87.725229 33.70211 86.238991 35.578486 
Q 84.752752 37.454862 84.752752 39.609908 
Q 84.752752 42.619541 86.684862 44.570229 
Q 88.616972 46.520917 91.663761 46.520917 
Q 93.818807 46.818165 95.342202 44.29156 
" clip-path="url(#pc129cd7c1c)" style="fill: none; stroke: #000000; stroke-linejoin: miter"/>
   </g>
  </g>
  <g id="axes_7"/>
  <g id="axes_8">
   <g id="patch_7">
    <path d="M 117.957228 37.244607 
Q 119.006938 37.207117 119.194386 37.132138 
Q 122.605945 37.132138 124.386703 39.212814 
Q 126.167462 41.29349 126.167462 44.780028 
Q 126.167462 47.704221 121.556234 47.704221 
Q 120.91891 47.704221 120.37531 47.591752 
Q 119.83171 47.479283 119.194386 47.254345 
Q 118.557062 47.029407 118.069697 46.916938 
L 116.832538 45.679779 
M 117.844759 25.435366 
L 117.844759 26.560055 
Q 117.844759 29.409269 117.957228 33.008276 
Q 118.069697 36.607283 118.257145 40.899848 
Q 118.444593 45.192414 118.519572 47.141876 
" clip-path="url(#p2be23b5463)" style="fill: none; stroke: #000000; stroke-linejoin: miter"/>
   </g>
  </g>
  <g id="axes_9">
   <g id="patch_8">
    <path d="M 140.9616 35.032717 
Q 139.91189 34.582841 138.937159 34.69531 
Q 135.900497 35.032717 133.988524 36.701007 
Q 132.076552 38.369297 132.076552 41.330979 
Q 132.076552 43.917766 134.082248 45.6048 
Q 136.087945 47.291834 138.712221 47.291834 
Q 141.074069 47.291834 142.198759 45.361117 
Q 143.323448 43.4304 143.323448 40.881103 
Q 143.323448 39.643945 142.911062 38.706703 
Q 142.498676 37.769462 141.973821 37.300841 
Q 141.448966 36.832221 140.699172 36.119917 
Q 139.949379 35.407614 139.499503 34.69531 
L 138.262345 34.245434 
" clip-path="url(#p6d60cca073)" style="fill: none; stroke: #000000; stroke-linejoin: miter"/>
   </g>
  </g>
  <g id="axes_10">
   <g id="patch_9">
    <path d="M 149.063834 37.95691 
L 149.738648 37.95691 
Q 150.450952 37.95691 151.238234 37.881931 
Q 152.025517 37.806952 152.981503 37.675738 
Q 153.93749 37.544524 154.462345 37.507034 
L 158.736166 35.82 
M 154.687283 30.42149 
L 154.687283 31.43371 
Q 154.687283 33.383172 154.012469 37.207117 
Q 153.337655 41.031062 153.337655 43.018014 
Q 153.337655 43.805297 153.337655 44.105214 
Q 153.337655 44.405131 153.431379 45.042455 
Q 153.525103 45.679779 153.712552 45.960952 
Q 153.9 46.242124 154.293641 46.485807 
Q 154.687283 46.72949 155.249628 46.72949 
Q 155.362097 46.692 155.680759 46.72949 
Q 155.999421 46.766979 156.186869 46.710745 
Q 156.374317 46.65451 156.374317 46.392083 
" clip-path="url(#pa511e939ac)" style="fill: none; stroke: #000000; stroke-linejoin: miter"/>
   </g>
  </g>
  <g id="axes_11">
   <g id="patch_10">
    <path d="M 165.263834 37.95691 
L 165.938648 37.95691 
Q 166.650952 37.95691 167.438234 37.881931 
Q 168.225517 37.806952 169.181503 37.675738 
Q 170.13749 37.544524 170.662345 37.507034 
L 174.936166 35.82 
M 170.887283 30.42149 
L 170.887283 31.43371 
Q 170.887283 33.383172 170.212469 37.207117 
Q 169.537655 41.031062 169.537655 43.018014 
Q 169.537655 43.805297 169.537655 44.105214 
Q 169.537655 44.405131 169.631379 45.042455 
Q 169.725103 45.679779 169.912552 45.960952 
Q 170.1 46.242124 170.493641 46.485807 
Q 170.887283 46.72949 171.449628 46.72949 
Q 171.562097 46.692 171.880759 46.72949 
Q 172.199421 46.766979 172.386869 46.710745 
Q 172.574317 46.65451 172.574317 46.392083 
" clip-path="url(#p3b56ee9232)" style="fill: none; stroke: #000000; stroke-linejoin: miter"/>
   </g>
  </g>
  <g id="axes_12">
   <g id="patch_11">
    <path d="M 189.5616 35.032717 
Q 188.51189 34.582841 187.537159 34.69531 
Q 184.500497 35.032717 182.588524 36.701007 
Q 180.676552 38.369297 180.676552 41.330979 
Q 180.676552 43.917766 182.682248 45.6048 
Q 184.687945 47.291834 187.312221 47.291834 
Q 189.674069 47.291834 190.798759 45.361117 
Q 191.923448 43.4304 191.923448 40.881103 
Q 191.923448 39.643945 191.511062 38.706703 
Q 191.098676 37.769462 190.573821 37.300841 
Q 190.048966 36.832221 189.299172 36.119917 
Q 188.549379 35.407614 188.099503 34.69531 
L 186.862345 34.245434 
" clip-path="url(#p9069eef4c6)" style="fill: none; stroke: #000000; stroke-linejoin: miter"/>
   </g>
  </g>
  <g id="axes_13">
   <g id="patch_12">
    <path d="M 196.208036 34.879821 
Q 196.714286 36.073125 197.003571 42.871339 
Q 197.148214 46.632054 197.4375 46.632054 
Q 197.473661 46.632054 197.509821 46.595893 
Q 198.016071 46.017321 198.070313 44.588973 
Q 198.124554 43.160625 197.907589 41.750357 
Q 197.690625 40.340089 197.4375 38.712857 
Q 197.184375 37.085625 197.184375 36.398571 
Q 197.184375 35.169107 197.564063 33.939643 
Q 197.94375 32.710179 198.920089 32.710179 
Q 200.149554 32.710179 200.872768 34.355491 
Q 201.595982 36.000804 201.758705 37.971563 
Q 201.921429 39.942321 202.029911 41.587634 
Q 202.138393 43.232946 202.283036 43.232946 
Q 202.427679 43.232946 202.51808 41.497232 
Q 202.608482 39.761518 202.735045 37.700357 
Q 202.861607 35.639196 203.584821 33.903482 
Q 204.308036 32.167768 205.5375 32.167768 
Q 207.092411 33.035625 207.761384 34.771339 
Q 208.430357 36.507054 208.394196 38.188527 
Q 208.358036 39.87 208.376116 42.057723 
Q 208.394196 44.245446 208.791964 45.511071 
" clip-path="url(#p8a417625e1)" style="fill: none; stroke: #000000; stroke-linejoin: miter"/>
   </g>
  </g>
  <g id="axes_14"/>
  <g id="axes_15">
   <g id="patch_13">
    <path d="M 238.1616 35.032717 
Q 237.11189 34.582841 236.137159 34.69531 
Q 233.100497 35.032717 231.188524 36.701007 
Q 229.276552 38.369297 229.276552 41.330979 
Q 229.276552 43.917766 231.282248 45.6048 
Q 233.287945 47.291834 235.912221 47.291834 
Q 238.274069 47.291834 239.398759 45.361117 
Q 240.523448 43.4304 240.523448 40.881103 
Q 240.523448 39.643945 240.111062 38.706703 
Q 239.698676 37.769462 239.173821 37.300841 
Q 238.648966 36.832221 237.899172 36.119917 
Q 237.149379 35.407614 236.699503 34.69531 
L 235.462345 34.245434 
" clip-path="url(#p72a80bfec2)" style="fill: none; stroke: #000000; stroke-linejoin: miter"/>
   </g>
  </g>
  <g id="axes_16">
   <g id="patch_14">
    <path d="M 244.784141 38.85304 
L 245.212335 38.85304 
Q 246.03304 38.85304 246.996476 38.745991 
Q 247.959912 38.638943 249.119604 38.460529 
Q 250.279295 38.282115 250.885903 38.210749 
L 257.415859 35.427489 
M 257.094714 25.793128 
Q 256.809251 25.721762 255.774449 25.275727 
Q 254.739648 24.829692 254.097357 24.93674 
Q 253.455066 24.93674 252.937665 25.150837 
Q 252.420264 25.364934 252.081278 25.793128 
Q 251.742291 26.221322 251.47467 26.685198 
Q 251.207048 27.149075 251.064317 27.862731 
Q 250.921586 28.576388 250.814537 29.129471 
Q 250.707489 29.682555 250.689648 30.50326 
Q 250.671806 31.323965 250.653965 31.77 
Q 250.636123 32.216035 250.653965 32.965374 
Q 250.671806 33.714714 250.671806 33.928811 
Q 250.671806 36.605022 251.367621 41.850396 
Q 252.063436 47.095771 252.063436 49.771982 
Q 251.99207 50.057445 251.956388 50.681894 
Q 251.920705 51.306344 251.813656 51.805903 
Q 251.706608 52.305463 251.421145 52.555242 
" clip-path="url(#paa667dded4)" style="fill: none; stroke: #000000; stroke-linejoin: miter"/>
   </g>
  </g>
  <g id="axes_17"/>
  <g id="axes_18">
   <g id="patch_15">
    <path d="M 280.013462 35.932469 
Q 280.613297 35.257655 281.606772 34.826524 
Q 282.600248 34.395393 283.5 34.470372 
Q 284.137324 34.470372 284.62469 34.639076 
Q 285.112055 34.807779 285.430717 34.995228 
Q 285.749379 35.182676 285.974317 35.670041 
Q 286.199255 36.157407 286.311724 36.419834 
Q 286.424193 36.682262 286.480428 37.375821 
Q 286.536662 38.069379 286.555407 38.331807 
Q 286.574152 38.594234 286.555407 39.419007 
Q 286.536662 40.243779 286.536662 40.431228 
Q 286.536662 41.368469 286.367959 43.242952 
Q 286.199255 45.117434 286.199255 46.054676 
Q 286.199255 46.467062 286.25549 46.823214 
Q 286.311724 47.179366 286.405448 47.610497 
Q 286.499172 48.041628 286.536662 48.304055 
L 286.986538 48.528993 
M 280.463338 23.111007 
Q 280.688276 24.798041 280.688276 29.971614 
L 280.688276 42.3432 
L 280.350869 46.841959 
L 280.125931 47.74171 
" clip-path="url(#pe41096a9b8)" style="fill: none; stroke: #000000; stroke-linejoin: miter"/>
   </g>
  </g>
  <g id="axes_19">
   <g id="patch_16">
    <path d="M 300.318579 29.071862 
Q 299.943683 29.146841 299.812469 29.577972 
Q 299.681255 30.009103 299.756234 30.42149 
Q 299.756234 30.571448 299.793724 30.702662 
Q 299.831214 30.833876 299.887448 30.89011 
Q 299.943683 30.946345 299.999917 31.040069 
Q 300.056152 31.133793 300.093641 31.208772 
L 300.20611 29.859145 
M 300.20611 34.020497 
Q 299.306359 39.006621 299.081421 42.793076 
L 299.531297 45.379862 
L 299.868703 46.054676 
" clip-path="url(#pe532f4cebe)" style="fill: none; stroke: #000000; stroke-linejoin: miter"/>
   </g>
  </g>
  <g id="axes_20">
   <g id="patch_17">
    <path d="M 311.457476 43.917766 
Q 311.757393 44.180193 312.769614 45.154924 
Q 313.781834 46.129655 314.344179 46.560786 
Q 314.906524 46.991917 315.93749 47.385559 
Q 316.968455 47.7792 317.980676 47.629241 
Q 318.65549 47.629241 319.12411 47.404303 
Q 319.592731 47.179366 319.817669 46.879448 
Q 320.042607 46.579531 320.173821 45.979697 
Q 320.305034 45.379862 320.323779 44.967476 
Q 320.342524 44.55509 320.342524 43.805297 
Q 320.342524 42.718097 319.442772 42.043283 
Q 318.543021 41.368469 317.249628 41.031062 
Q 315.956234 40.693655 314.662841 40.300014 
Q 313.369448 39.906372 312.469697 38.987876 
Q 311.569945 38.069379 311.569945 36.607283 
Q 311.569945 36.082428 311.738648 35.726276 
Q 311.907352 35.370124 312.300993 35.145186 
Q 312.694634 34.920248 312.975807 34.807779 
Q 313.256979 34.69531 313.913048 34.639076 
Q 314.569117 34.582841 314.756566 34.582841 
Q 314.944014 34.582841 315.618828 34.582841 
Q 316.818497 34.582841 317.399586 34.995228 
Q 317.980676 35.407614 318.299338 36.026193 
Q 318.618 36.644772 318.880428 36.832221 
" clip-path="url(#p3886d17c31)" style="fill: none; stroke: #000000; stroke-linejoin: miter"/>
   </g>
  </g>
  <g id="axes_21"/>
  <g id="axes_22">
   <g id="patch_18">
    <path d="M 343.857476 43.917766 
Q 344.157393 44.180193 345.169614 45.154924 
Q 346.181834 46.129655 346.744179 46.560786 
Q 347.306524 46.991917 348.33749 47.385559 
Q 349.368455 47.7792 350.380676 47.629241 
Q 351.05549 47.629241 351.52411 47.404303 
Q 351.992731 47.179366 352.217669 46.879448 
Q 352.442607 46.579531 352.573821 45.979697 
Q 352.705034 45.379862 352.723779 44.967476 
Q 352.742524 44.55509 352.742524 43.805297 
Q 352.742524 42.718097 351.842772 42.043283 
Q 350.943021 41.368469 349.649628 41.031062 
Q 348.356234 40.693655 347.062841 40.300014 
Q 345.769448 39.906372 344.869697 38.987876 
Q 343.969945 38.069379 343.969945 36.607283 
Q 343.969945 36.082428 344.138648 35.726276 
Q 344.307352 35.370124 344.700993 35.145186 
Q 345.094634 34.920248 345.375807 34.807779 
Q 345.656979 34.69531 346.313048 34.639076 
Q 346.969117 34.582841 347.156566 34.582841 
Q 347.344014 34.582841 348.018828 34.582841 
Q 349.218497 34.582841 349.799586 34.995228 
Q 350.380676 35.407614 350.699338 36.026193 
Q 351.018 36.644772 351.280428 36.832221 
" clip-path="url(#p0952732b04)" style="fill: none; stroke: #000000; stroke-linejoin: miter"/>
   </g>
  </g>
  <g id="axes_23">
   <g id="patch_19">
    <path d="M 359.663834 37.95691 
L 360.338648 37.95691 
Q 361.050952 37.95691 361.838234 37.881931 
Q 362.625517 37.806952 363.581503 37.675738 
Q 364.53749 37.544524 365.062345 37.507034 
L 369.336166 35.82 
M 365.287283 30.42149 
L 365.287283 31.43371 
Q 365.287283 33.383172 364.612469 37.207117 
Q 363.937655 41.031062 363.937655 43.018014 
Q 363.937655 43.805297 363.937655 44.105214 
Q 363.937655 44.405131 364.031379 45.042455 
Q 364.125103 45.679779 364.312552 45.960952 
Q 364.5 46.242124 364.893641 46.485807 
Q 365.287283 46.72949 365.849628 46.72949 
Q 365.962097 46.692 366.280759 46.72949 
Q 366.599421 46.766979 366.786869 46.710745 
Q 366.974317 46.65451 366.974317 46.392083 
" clip-path="url(#p33d03788fe)" style="fill: none; stroke: #000000; stroke-linejoin: miter"/>
   </g>
  </g>
  <g id="axes_24">
   <g id="patch_20">
    <path d="M 383.9616 35.032717 
Q 382.91189 34.582841 381.937159 34.69531 
Q 378.900497 35.032717 376.988524 36.701007 
Q 375.076552 38.369297 375.076552 41.330979 
Q 375.076552 43.917766 377.082248 45.6048 
Q 379.087945 47.291834 381.712221 47.291834 
Q 384.074069 47.291834 385.198759 45.361117 
Q 386.323448 43.4304 386.323448 40.881103 
Q 386.323448 39.643945 385.911062 38.706703 
Q 385.498676 37.769462 384.973821 37.300841 
Q 384.448966 36.832221 383.699172 36.119917 
Q 382.949379 35.407614 382.499503 34.69531 
L 381.262345 34.245434 
" clip-path="url(#pa6fd96375b)" style="fill: none; stroke: #000000; stroke-linejoin: miter"/>
   </g>
  </g>
  <g id="axes_25">
   <g id="patch_21">
    <path d="M 390.608036 34.879821 
Q 391.114286 36.073125 391.403571 42.871339 
Q 391.548214 46.632054 391.8375 46.632054 
Q 391.873661 46.632054 391.909821 46.595893 
Q 392.416071 46.017321 392.470313 44.588973 
Q 392.524554 43.160625 392.307589 41.750357 
Q 392.090625 40.340089 391.8375 38.712857 
Q 391.584375 37.085625 391.584375 36.398571 
Q 391.584375 35.169107 391.964063 33.939643 
Q 392.34375 32.710179 393.320089 32.710179 
Q 394.549554 32.710179 395.272768 34.355491 
Q 395.995982 36.000804 396.158705 37.971563 
Q 396.321429 39.942321 396.429911 41.587634 
Q 396.538393 43.232946 396.683036 43.232946 
Q 396.827679 43.232946 396.91808 41.497232 
Q 397.008482 39.761518 397.135045 37.700357 
Q 397.261607 35.639196 397.984821 33.903482 
Q 398.708036 32.167768 399.9375 32.167768 
Q 401.492411 33.035625 402.161384 34.771339 
Q 402.830357 36.507054 402.794196 38.188527 
Q 402.758036 39.87 402.776116 42.057723 
Q 402.794196 44.245446 403.191964 45.511071 
" clip-path="url(#p4dea596afe)" style="fill: none; stroke: #000000; stroke-linejoin: miter"/>
   </g>
  </g>
  <g id="axes_26">
   <g id="patch_22">
    <path d="M 418.643923 36.441748 
Q 417.434968 35.094627 413.462687 35.094627 
Q 411.942857 35.094627 411.165672 35.146439 
Q 410.388486 35.198252 409.38678 35.440043 
Q 408.385075 35.681834 407.901493 36.182687 
Q 407.41791 36.683539 407.072495 37.616162 
Q 406.727079 38.548785 406.727079 39.964989 
Q 406.727079 42.037484 408.143284 43.280981 
Q 409.559488 44.524478 411.493817 44.524478 
Q 414.153518 44.524478 416.916844 38.721493 
Q 418.263966 35.854542 418.263966 35.82 
Q 418.609382 35.578209 418.643923 36.441748 
Q 418.643923 37.512537 419.058422 40.362217 
Q 419.472921 43.211898 419.472921 44.524478 
" clip-path="url(#pf146aff937)" style="fill: none; stroke: #000000; stroke-linejoin: miter"/>
   </g>
  </g>
  <g id="axes_27">
   <g id="patch_23">
    <path d="M 434.556735 34.365306 
Q 434.556735 34.365306 434.060816 34.365306 
Q 433.267347 34.365306 431.779592 34.067755 
Q 430.291837 33.770204 429.498367 33.770204 
Q 426.721224 33.770204 424.787143 35.224898 
Q 422.853061 36.679592 422.853061 39.423673 
Q 422.853061 40.94449 424.340816 42.399184 
Q 425.828571 43.853878 427.762653 44.663878 
Q 429.696735 45.473878 431.18449 45.473878 
Q 432.110204 45.473878 432.80449 45.110204 
Q 433.498776 44.746531 434.242653 44.118367 
Q 434.986531 43.490204 435.548571 43.192653 
L 435.746939 42.696735 
" clip-path="url(#p21a87dfe75)" style="fill: none; stroke: #000000; stroke-linejoin: miter"/>
   </g>
  </g>
  <g id="axes_28">
   <g id="patch_24">
    <path d="M 442.013462 35.932469 
Q 442.613297 35.257655 443.606772 34.826524 
Q 444.600248 34.395393 445.5 34.470372 
Q 446.137324 34.470372 446.62469 34.639076 
Q 447.112055 34.807779 447.430717 34.995228 
Q 447.749379 35.182676 447.974317 35.670041 
Q 448.199255 36.157407 448.311724 36.419834 
Q 448.424193 36.682262 448.480428 37.375821 
Q 448.536662 38.069379 448.555407 38.331807 
Q 448.574152 38.594234 448.555407 39.419007 
Q 448.536662 40.243779 448.536662 40.431228 
Q 448.536662 41.368469 448.367959 43.242952 
Q 448.199255 45.117434 448.199255 46.054676 
Q 448.199255 46.467062 448.25549 46.823214 
Q 448.311724 47.179366 448.405448 47.610497 
Q 448.499172 48.041628 448.536662 48.304055 
L 448.986538 48.528993 
M 442.463338 23.111007 
Q 442.688276 24.798041 442.688276 29.971614 
L 442.688276 42.3432 
L 442.350869 46.841959 
L 442.125931 47.74171 
" clip-path="url(#p1ff120b98f)" style="fill: none; stroke: #000000; stroke-linejoin: miter"/>
   </g>
  </g>
  <g id="axes_29">
   <g id="patch_25">
    <path d="M 461.587531 45.979697 
Q 461.550041 46.017186 461.418828 46.054676 
Q 461.287614 46.092166 461.325103 46.167145 
Q 461.325103 46.579531 461.7 46.579531 
Q 462.037407 46.579531 462.037407 46.092166 
Q 462.112386 45.867228 461.831214 45.754759 
Q 461.550041 45.64229 461.362593 45.754759 
" clip-path="url(#p27b031620e)" style="fill: none; stroke: #000000; stroke-linejoin: miter"/>
   </g>
  </g>
  <g id="axes_30"/>
  <g id="axes_31">
   <g id="patch_26">
    <path d="M 500.348571 31.763193 
Q 498.60605 29.585042 496.659328 28.972437 
Q 494.712605 28.359832 491.935462 29.285546 
Q 490.056807 29.966218 488.709076 31.817647 
Q 487.361345 33.669076 487.361345 35.411597 
Q 487.361345 38.760504 489.988739 41.415126 
Q 492.616134 44.069748 495.856134 44.069748 
Q 496.700168 44.069748 497.38084 43.729412 
Q 498.061513 43.389076 498.456303 42.953445 
Q 498.851092 42.517815 499.422857 41.918824 
Q 499.994622 41.319832 500.511933 40.965882 
L 500.838655 40.149076 
" clip-path="url(#p8e3ee8a1eb)" style="fill: none; stroke: #000000; stroke-linejoin: miter"/>
   </g>
  </g>
  <g id="axes_32">
   <g id="patch_27">
    <path d="M 515.843923 36.441748 
Q 514.634968 35.094627 510.662687 35.094627 
Q 509.142857 35.094627 508.365672 35.146439 
Q 507.588486 35.198252 506.58678 35.440043 
Q 505.585075 35.681834 505.101493 36.182687 
Q 504.61791 36.683539 504.272495 37.616162 
Q 503.927079 38.548785 503.927079 39.964989 
Q 503.927079 42.037484 505.343284 43.280981 
Q 506.759488 44.524478 508.693817 44.524478 
Q 511.353518 44.524478 514.116844 38.721493 
Q 515.463966 35.854542 515.463966 35.82 
Q 515.809382 35.578209 515.843923 36.441748 
Q 515.843923 37.512537 516.258422 40.362217 
Q 516.672921 43.211898 516.672921 44.524478 
" clip-path="url(#p4558fdf065)" style="fill: none; stroke: #000000; stroke-linejoin: miter"/>
   </g>
  </g>
  <g id="axes_33">
   <g id="patch_28">
    <path d="M 523.013462 32.783338 
Q 523.538317 34.507862 523.669531 36.457324 
Q 523.800745 38.406786 523.725766 40.956083 
Q 523.650786 43.505379 523.688276 44.705048 
L 523.800745 46.054676 
L 523.800745 45.829738 
Q 523.800745 44.667559 523.519572 42.30571 
Q 523.2384 39.943862 523.2384 38.744193 
Q 523.2384 36.419834 524.250621 34.882759 
Q 525.262841 33.345683 527.287283 33.345683 
Q 527.999586 33.345683 528.336993 33.626855 
Q 528.6744 33.908028 528.936828 34.432883 
Q 529.199255 34.957738 529.536662 35.257655 
L 529.986538 36.832221 
" clip-path="url(#pe316477650)" style="fill: none; stroke: #000000; stroke-linejoin: miter"/>
   </g>
  </g>
  <g id="axes_34">
   <g id="patch_29">
    <path d="M 545.9616 35.032717 
Q 544.91189 34.582841 543.937159 34.69531 
Q 540.900497 35.032717 538.988524 36.701007 
Q 537.076552 38.369297 537.076552 41.330979 
Q 537.076552 43.917766 539.082248 45.6048 
Q 541.087945 47.291834 543.712221 47.291834 
Q 546.074069 47.291834 547.198759 45.361117 
Q 548.323448 43.4304 548.323448 40.881103 
Q 548.323448 39.643945 547.911062 38.706703 
Q 547.498676 37.769462 546.973821 37.300841 
Q 546.448966 36.832221 545.699172 36.119917 
Q 544.949379 35.407614 544.499503 34.69531 
L 543.262345 34.245434 
" clip-path="url(#paae4448c92)" style="fill: none; stroke: #000000; stroke-linejoin: miter"/>
   </g>
  </g>
  <g id="axes_35">
   <g id="patch_30">
    <path d="M 558.506359 28.621986 
Q 558.731297 30.34651 558.806276 32.146014 
Q 558.881255 33.945517 558.86251 36.551048 
Q 558.843766 39.156579 558.843766 40.093821 
Q 558.843766 40.13131 559.068703 45.829738 
L 559.293641 46.841959 
" clip-path="url(#p70df6209b5)" style="fill: none; stroke: #000000; stroke-linejoin: miter"/>
   </g>
  </g>
  <g id="axes_36"/>
  <g id="axes_37">
   <g id="patch_31">
    <path d="M 596.087191 39.096404 
Q 595.83236 39.023596 594.86764 38.623146 
Q 593.902921 38.222697 593.24764 38.077079 
Q 592.59236 37.931461 591.937079 38.00427 
Q 589.315955 38.00427 587.677753 40.388764 
Q 586.039551 42.773258 586.039551 45.430787 
Q 586.039551 47.068989 591.281798 47.068989 
Q 592.847191 47.068989 594.175955 45.558202 
Q 595.504719 44.047416 596.178202 42.172584 
Q 596.851685 40.297753 596.851685 38.768764 
Q 596.851685 37.27618 596.815281 36.984944 
L 596.742472 38.077079 
Q 596.742472 38.550337 596.742472 38.987191 
Q 596.778876 40.188539 596.979101 42.281798 
Q 597.179326 44.375056 597.343146 46.049663 
Q 597.506966 47.72427 597.543371 49.872135 
Q 597.579775 52.02 597.415955 53.658202 
Q 597.252135 55.296404 596.687865 56.971011 
Q 596.123596 58.645618 595.195281 59.737753 
Q 594.266966 60.829888 592.665169 61.521573 
Q 591.063371 62.213258 588.915506 62.213258 
Q 587.277303 62.213258 586.185169 61.466966 
Q 585.093034 60.720674 585.093034 59.155281 
Q 585.020225 58.936854 585.056629 58.936854 
Q 585.093034 58.936854 585.202247 58.936854 
Q 585.311461 58.936854 585.311461 58.82764 
" clip-path="url(#p0feecc5fe0)" style="fill: none; stroke: #000000; stroke-linejoin: miter"/>
   </g>
  </g>
  <g id="axes_38">
   <g id="patch_32">
    <path d="M 604.013462 32.783338 
Q 604.538317 34.507862 604.669531 36.457324 
Q 604.800745 38.406786 604.725766 40.956083 
Q 604.650786 43.505379 604.688276 44.705048 
L 604.800745 46.054676 
L 604.800745 45.829738 
Q 604.800745 44.667559 604.519572 42.30571 
Q 604.2384 39.943862 604.2384 38.744193 
Q 604.2384 36.419834 605.250621 34.882759 
Q 606.262841 33.345683 608.287283 33.345683 
Q 608.999586 33.345683 609.336993 33.626855 
Q 609.6744 33.908028 609.936828 34.432883 
Q 610.199255 34.957738 610.536662 35.257655 
L 610.986538 36.832221 
" clip-path="url(#p6b8d31cc29)" style="fill: none; stroke: #000000; stroke-linejoin: miter"/>
   </g>
  </g>
  <g id="axes_39">
   <g id="patch_33">
    <path d="M 624.318579 29.071862 
Q 623.943683 29.146841 623.812469 29.577972 
Q 623.681255 30.009103 623.756234 30.42149 
Q 623.756234 30.571448 623.793724 30.702662 
Q 623.831214 30.833876 623.887448 30.89011 
Q 623.943683 30.946345 623.999917 31.040069 
Q 624.056152 31.133793 624.093641 31.208772 
L 624.20611 29.859145 
M 624.20611 34.020497 
Q 623.306359 39.006621 623.081421 42.793076 
L 623.531297 45.379862 
L 623.868703 46.054676 
" clip-path="url(#p42fc674d1d)" style="fill: none; stroke: #000000; stroke-linejoin: miter"/>
   </g>
  </g>
  <g id="axes_40">
   <g id="patch_34">
    <path d="M 635.120069 39.868883 
L 635.120069 39.419007 
Q 635.120069 37.769462 636.863338 36.682262 
Q 638.606607 35.595062 640.293641 35.595062 
Q 642.505531 35.595062 643.873903 36.794731 
Q 645.242276 37.9944 645.242276 40.20629 
Q 645.242276 42.30571 643.424028 43.336676 
Q 641.605779 44.367641 639.39389 44.367641 
Q 638.719076 44.367641 638.212966 44.255172 
Q 637.706855 44.142703 637.088276 43.917766 
Q 636.469697 43.692828 636.019821 43.580359 
L 634.895131 42.568138 
M 634.557724 36.832221 
Q 635.0076 38.444276 635.270028 40.262524 
Q 635.532455 42.080772 635.58869 43.749062 
Q 635.644924 45.417352 635.682414 47.27309 
Q 635.719903 49.128828 635.682414 50.778372 
L 635.569945 57.863917 
" clip-path="url(#p1edfb220e7)" style="fill: none; stroke: #000000; stroke-linejoin: miter"/>
   </g>
  </g>
  <g id="axes_41">
   <g id="patch_35">
    <path d="M 651.657476 43.917766 
Q 651.957393 44.180193 652.969614 45.154924 
Q 653.981834 46.129655 654.544179 46.560786 
Q 655.106524 46.991917 656.13749 47.385559 
Q 657.168455 47.7792 658.180676 47.629241 
Q 658.85549 47.629241 659.32411 47.404303 
Q 659.792731 47.179366 660.017669 46.879448 
Q 660.242607 46.579531 660.373821 45.979697 
Q 660.505034 45.379862 660.523779 44.967476 
Q 660.542524 44.55509 660.542524 43.805297 
Q 660.542524 42.718097 659.642772 42.043283 
Q 658.743021 41.368469 657.449628 41.031062 
Q 656.156234 40.693655 654.862841 40.300014 
Q 653.569448 39.906372 652.669697 38.987876 
Q 651.769945 38.069379 651.769945 36.607283 
Q 651.769945 36.082428 651.938648 35.726276 
Q 652.107352 35.370124 652.500993 35.145186 
Q 652.894634 34.920248 653.175807 34.807779 
Q 653.456979 34.69531 654.113048 34.639076 
Q 654.769117 34.582841 654.956566 34.582841 
Q 655.144014 34.582841 655.818828 34.582841 
Q 657.018497 34.582841 657.599586 34.995228 
Q 658.180676 35.407614 658.499338 36.026193 
Q 658.818 36.644772 659.080428 36.832221 
" clip-path="url(#p30acf37b3d)" style="fill: none; stroke: #000000; stroke-linejoin: miter"/>
   </g>
  </g>
  <g id="axes_42"/>
  <g id="axes_43">
   <g id="patch_36">
    <path d="M 691.7616 35.032717 
Q 690.71189 34.582841 689.737159 34.69531 
Q 686.700497 35.032717 684.788524 36.701007 
Q 682.876552 38.369297 682.876552 41.330979 
Q 682.876552 43.917766 684.882248 45.6048 
Q 686.887945 47.291834 689.512221 47.291834 
Q 691.874069 47.291834 692.998759 45.361117 
Q 694.123448 43.4304 694.123448 40.881103 
Q 694.123448 39.643945 693.711062 38.706703 
Q 693.298676 37.769462 692.773821 37.300841 
Q 692.248966 36.832221 691.499172 36.119917 
Q 690.749379 35.407614 690.299503 34.69531 
L 689.062345 34.245434 
" clip-path="url(#pade136c743)" style="fill: none; stroke: #000000; stroke-linejoin: miter"/>
   </g>
  </g>
  <g id="axes_44">
   <g id="patch_37">
    <path d="M 700.238731 37.282097 
L 700.238731 37.844441 
Q 700.501159 39.868883 700.538648 41.312234 
Q 700.576138 42.755586 700.482414 44.667559 
Q 700.38869 46.579531 700.38869 48.191586 
L 700.463669 39.643945 
Q 700.463669 38.144359 702.056979 37.507034 
Q 703.65029 36.86971 705.074897 37.282097 
Q 706.986869 37.844441 707.905366 39.04411 
Q 708.823862 40.243779 708.880097 41.668386 
Q 708.936331 43.092993 708.973821 44.817517 
Q 709.01131 46.542041 709.161269 48.191586 
" clip-path="url(#pde1ec2d689)" style="fill: none; stroke: #000000; stroke-linejoin: miter"/>
   </g>
  </g>
  <g id="axes_45">
   <g id="patch_38">
    <path d="M 716.063834 37.95691 
L 716.738648 37.95691 
Q 717.450952 37.95691 718.238234 37.881931 
Q 719.025517 37.806952 719.981503 37.675738 
Q 720.93749 37.544524 721.462345 37.507034 
L 725.736166 35.82 
M 721.687283 30.42149 
L 721.687283 31.43371 
Q 721.687283 33.383172 721.012469 37.207117 
Q 720.337655 41.031062 720.337655 43.018014 
Q 720.337655 43.805297 720.337655 44.105214 
Q 720.337655 44.405131 720.431379 45.042455 
Q 720.525103 45.679779 720.712552 45.960952 
Q 720.9 46.242124 721.293641 46.485807 
Q 721.687283 46.72949 722.249628 46.72949 
Q 722.362097 46.692 722.680759 46.72949 
Q 722.999421 46.766979 723.186869 46.710745 
Q 723.374317 46.65451 723.374317 46.392083 
" clip-path="url(#pcc16d634ee)" style="fill: none; stroke: #000000; stroke-linejoin: miter"/>
   </g>
  </g>
  <g id="axes_46">
   <g id="patch_39">
    <path d="M 740.3616 35.032717 
Q 739.31189 34.582841 738.337159 34.69531 
Q 735.300497 35.032717 733.388524 36.701007 
Q 731.476552 38.369297 731.476552 41.330979 
Q 731.476552 43.917766 733.482248 45.6048 
Q 735.487945 47.291834 738.112221 47.291834 
Q 740.474069 47.291834 741.598759 45.361117 
Q 742.723448 43.4304 742.723448 40.881103 
Q 742.723448 39.643945 742.311062 38.706703 
Q 741.898676 37.769462 741.373821 37.300841 
Q 740.848966 36.832221 740.099172 36.119917 
Q 739.349379 35.407614 738.899503 34.69531 
L 737.662345 34.245434 
" clip-path="url(#p23eeb45dd1)" style="fill: none; stroke: #000000; stroke-linejoin: miter"/>
   </g>
  </g>
  <g id="axes_47"/>
  <g id="axes_48">
   <g id="patch_40">
    <path d="M 764.663834 37.95691 
L 765.338648 37.95691 
Q 766.050952 37.95691 766.838234 37.881931 
Q 767.625517 37.806952 768.581503 37.675738 
Q 769.53749 37.544524 770.062345 37.507034 
L 774.336166 35.82 
M 770.287283 30.42149 
L 770.287283 31.43371 
Q 770.287283 33.383172 769.612469 37.207117 
Q 768.937655 41.031062 768.937655 43.018014 
Q 768.937655 43.805297 768.937655 44.105214 
Q 768.937655 44.405131 769.031379 45.042455 
Q 769.125103 45.679779 769.312552 45.960952 
Q 769.5 46.242124 769.893641 46.485807 
Q 770.287283 46.72949 770.849628 46.72949 
Q 770.962097 46.692 771.280759 46.72949 
Q 771.599421 46.766979 771.786869 46.710745 
Q 771.974317 46.65451 771.974317 46.392083 
" clip-path="url(#p7f1d846377)" style="fill: none; stroke: #000000; stroke-linejoin: miter"/>
   </g>
  </g>
  <g id="axes_49">
   <g id="patch_41">
    <path d="M 782.213462 35.932469 
Q 782.813297 35.257655 783.806772 34.826524 
Q 784.800248 34.395393 785.7 34.470372 
Q 786.337324 34.470372 786.82469 34.639076 
Q 787.312055 34.807779 787.630717 34.995228 
Q 787.949379 35.182676 788.174317 35.670041 
Q 788.399255 36.157407 788.511724 36.419834 
Q 788.624193 36.682262 788.680428 37.375821 
Q 788.736662 38.069379 788.755407 38.331807 
Q 788.774152 38.594234 788.755407 39.419007 
Q 788.736662 40.243779 788.736662 40.431228 
Q 788.736662 41.368469 788.567959 43.242952 
Q 788.399255 45.117434 788.399255 46.054676 
Q 788.399255 46.467062 788.45549 46.823214 
Q 788.511724 47.179366 788.605448 47.610497 
Q 788.699172 48.041628 788.736662 48.304055 
L 789.186538 48.528993 
M 782.663338 23.111007 
Q 782.888276 24.798041 782.888276 29.971614 
L 782.888276 42.3432 
L 782.550869 46.841959 
L 782.325931 47.74171 
" clip-path="url(#p2dbfb8660e)" style="fill: none; stroke: #000000; stroke-linejoin: miter"/>
   </g>
  </g>
  <g id="axes_50">
   <g id="patch_42">
    <path d="M 795.657798 38.160826 
Q 798.630275 39.535596 803.349083 39.721376 
Q 804.872477 39.721376 805.559862 38.550963 
Q 806.247248 37.38055 806.247248 35.82 
Q 806.247248 35.299817 806.154358 34.909679 
Q 806.061468 34.519541 805.819954 34.296606 
Q 805.57844 34.07367 805.411239 33.943624 
Q 805.244037 33.813578 804.798165 33.757844 
Q 804.352294 33.70211 804.147936 33.683532 
Q 803.943578 33.664954 803.367661 33.683532 
Q 802.791743 33.70211 802.568807 33.70211 
Q 800.525229 33.70211 799.038991 35.578486 
Q 797.552752 37.454862 797.552752 39.609908 
Q 797.552752 42.619541 799.484862 44.570229 
Q 801.416972 46.520917 804.463761 46.520917 
Q 806.618807 46.818165 808.142202 44.29156 
" clip-path="url(#p639ef0b606)" style="fill: none; stroke: #000000; stroke-linejoin: miter"/>
   </g>
  </g>
 </g>
 <defs>
  <clipPath id="p4b3a3ffb4f">
   <rect x="5.606938" y="8.64" width="4.986124" height="54.36"/>
  </clipPath>
  <clipPath id="p36291ed81c">
   <rect x="17.964248" y="8.64" width="12.671503" height="54.36"/>
  </clipPath>
  <clipPath id="p347a67ddd0">
   <rect x="49.989352" y="8.64" width="13.421297" height="54.36"/>
  </clipPath>
  <clipPath id="p812f1babb5">
   <rect x="67.538979" y="8.64" width="10.722041" height="54.36"/>
  </clipPath>
  <clipPath id="pc129cd7c1c">
   <rect x="81" y="8.881927" width="16.2" height="53.876147"/>
  </clipPath>
  <clipPath id="p2be23b5463">
   <rect x="114.958055" y="8.64" width="13.08389" height="54.36"/>
  </clipPath>
  <clipPath id="p6d60cca073">
   <rect x="130.202069" y="8.64" width="14.995862" height="54.36"/>
  </clipPath>
  <clipPath id="pa511e939ac">
   <rect x="147.189352" y="8.64" width="13.421297" height="54.36"/>
  </clipPath>
  <clipPath id="p3b56ee9232">
   <rect x="163.389352" y="8.64" width="13.421297" height="54.36"/>
  </clipPath>
  <clipPath id="p9069eef4c6">
   <rect x="178.802069" y="8.64" width="14.995862" height="54.36"/>
  </clipPath>
  <clipPath id="p8a417625e1">
   <rect x="194.4" y="9.603482" width="16.2" height="52.433036"/>
  </clipPath>
  <clipPath id="p72a80bfec2">
   <rect x="227.402069" y="8.64" width="14.995862" height="54.36"/>
  </clipPath>
  <clipPath id="paa667dded4">
   <rect x="243" y="9.949956" width="16.2" height="51.740088"/>
  </clipPath>
  <clipPath id="pe41096a9b8">
   <rect x="278.138979" y="8.64" width="10.722041" height="54.36"/>
  </clipPath>
  <clipPath id="pe532f4cebe">
   <rect x="297.206938" y="8.64" width="4.986124" height="54.36"/>
  </clipPath>
  <clipPath id="p3886d17c31">
   <rect x="309.582993" y="8.64" width="12.634014" height="54.36"/>
  </clipPath>
  <clipPath id="p0952732b04">
   <rect x="341.982993" y="8.64" width="12.634014" height="54.36"/>
  </clipPath>
  <clipPath id="p33d03788fe">
   <rect x="357.789352" y="8.64" width="13.421297" height="54.36"/>
  </clipPath>
  <clipPath id="pa6fd96375b">
   <rect x="373.202069" y="8.64" width="14.995862" height="54.36"/>
  </clipPath>
  <clipPath id="p4dea596afe">
   <rect x="388.8" y="9.603482" width="16.2" height="52.433036"/>
  </clipPath>
  <clipPath id="pf146aff937">
   <rect x="405" y="10.777356" width="16.2" height="50.085288"/>
  </clipPath>
  <clipPath id="p21a87dfe75">
   <rect x="421.2" y="11.850612" width="16.2" height="47.938776"/>
  </clipPath>
  <clipPath id="p1ff120b98f">
   <rect x="440.138979" y="8.64" width="10.722041" height="54.36"/>
  </clipPath>
  <clipPath id="p27b031620e">
   <rect x="459.413131" y="8.64" width="4.573738" height="54.36"/>
  </clipPath>
  <clipPath id="p8e3ee8a1eb">
   <rect x="486" y="16.080504" width="16.2" height="39.478992"/>
  </clipPath>
  <clipPath id="p4558fdf065">
   <rect x="502.2" y="10.777356" width="16.2" height="50.085288"/>
  </clipPath>
  <clipPath id="pe316477650">
   <rect x="521.138979" y="8.64" width="10.722041" height="54.36"/>
  </clipPath>
  <clipPath id="paae4448c92">
   <rect x="535.202069" y="8.64" width="14.995862" height="54.36"/>
  </clipPath>
  <clipPath id="p70df6209b5">
   <rect x="556.631876" y="8.64" width="4.536248" height="54.36"/>
  </clipPath>
  <clipPath id="p0feecc5fe0">
   <rect x="583.2" y="9.426742" width="16.2" height="52.786517"/>
  </clipPath>
  <clipPath id="p6b8d31cc29">
   <rect x="602.138979" y="8.64" width="10.722041" height="54.36"/>
  </clipPath>
  <clipPath id="p42fc674d1d">
   <rect x="621.206938" y="8.64" width="4.986124" height="54.36"/>
  </clipPath>
  <clipPath id="p1edfb220e7">
   <rect x="632.683241" y="8.64" width="14.433517" height="54.36"/>
  </clipPath>
  <clipPath id="p30acf37b3d">
   <rect x="649.782993" y="8.64" width="12.634014" height="54.36"/>
  </clipPath>
  <clipPath id="pade136c743">
   <rect x="681.002069" y="8.64" width="14.995862" height="54.36"/>
  </clipPath>
  <clipPath id="pde1ec2d689">
   <rect x="698.364248" y="8.64" width="12.671503" height="54.36"/>
  </clipPath>
  <clipPath id="pcc16d634ee">
   <rect x="714.189352" y="8.64" width="13.421297" height="54.36"/>
  </clipPath>
  <clipPath id="p23eeb45dd1">
   <rect x="729.602069" y="8.64" width="14.995862" height="54.36"/>
  </clipPath>
  <clipPath id="p7f1d846377">
   <rect x="762.789352" y="8.64" width="13.421297" height="54.36"/>
  </clipPath>
  <clipPath id="p2dbfb8660e">
   <rect x="780.338979" y="8.64" width="10.722041" height="54.36"/>
  </clipPath>
  <clipPath id="p639ef0b606">
   <rect x="793.8" y="8.881927" width="16.2" height="53.876147"/>
  </clipPath>
 </defs>
</svg>
