<?xml version="1.0" encoding="utf-8" standalone="no"?>
<!DOCTYPE svg PUBLIC "-//W3C//DTD SVG 1.1//EN"
  "http://www.w3.org/Graphics/SVG/1.1/DTD/svg11.dtd">
<svg xmlns:xlink="http://www.w3.org/1999/xlink" width="576pt" height="72pt" viewBox="0 0 576 72" xmlns="http://www.w3.org/2000/svg" version="1.1">
 <metadata>
  <rdf:RDF xmlns:dc="http://purl.org/dc/elements/1.1/" xmlns:cc="http://creativecommons.org/ns#" xmlns:rdf="http://www.w3.org/1999/02/22-rdf-syntax-ns#">
   <cc:Work>
    <dc:type rdf:resource="http://purl.org/dc/dcmitype/StillImage"/>
    <dc:date>2023-12-21T11:47:30.171837</dc:date>
    <dc:format>image/svg+xml</dc:format>
    <dc:creator>
     <cc:Agent>
      <dc:title>Matplotlib v3.5.1, https://matplotlib.org/</dc:title>
     </cc:Agent>
    </dc:creator>
   </cc:Work>
  </rdf:RDF>
 </metadata>
 <defs>
  <style type="text/css">*{stroke-linejoin: round; stroke-linecap: butt}</style>
 </defs>
 <g id="figure_1">
  <g id="patch_1">
   <path d="M 0 72 
L 576 72 
L 576 0 
L 0 0 
z
" style="fill: #8fff9f"/>
  </g>
  <g id="axes_1">
   <g id="patch_2">
    <path d="M 3.657476 43.917766 
Q 3.957393 44.180193 4.969614 45.154924 
Q 5.981834 46.129655 6.544179 46.560786 
Q 7.106524 46.991917 8.13749 47.385559 
Q 9.168455 47.7792 10.180676 47.629241 
Q 10.85549 47.629241 11.32411 47.404303 
Q 11.792731 47.179366 12.017669 46.879448 
Q 12.242607 46.579531 12.373821 45.979697 
Q 12.505034 45.379862 12.523779 44.967476 
Q 12.542524 44.55509 12.542524 43.805297 
Q 12.542524 42.718097 11.642772 42.043283 
Q 10.743021 41.368469 9.449628 41.031062 
Q 8.156234 40.693655 6.862841 40.300014 
Q 5.569448 39.906372 4.669697 38.987876 
Q 3.769945 38.069379 3.769945 36.607283 
Q 3.769945 36.082428 3.938648 35.726276 
Q 4.107352 35.370124 4.500993 35.145186 
Q 4.894634 34.920248 5.175807 34.807779 
Q 5.456979 34.69531 6.113048 34.639076 
Q 6.769117 34.582841 6.956566 34.582841 
Q 7.144014 34.582841 7.818828 34.582841 
Q 9.018497 34.582841 9.599586 34.995228 
Q 10.180676 35.407614 10.499338 36.026193 
Q 10.818 36.644772 11.080428 36.832221 
" clip-path="url(#pc2880e053e)" style="fill: none; stroke: #000000; stroke-linejoin: miter"/>
   </g>
  </g>
  <g id="axes_2">
   <g id="patch_3">
    <path d="M 19.463834 37.95691 
L 20.138648 37.95691 
Q 20.850952 37.95691 21.638234 37.881931 
Q 22.425517 37.806952 23.381503 37.675738 
Q 24.33749 37.544524 24.862345 37.507034 
L 29.136166 35.82 
M 25.087283 30.42149 
L 25.087283 31.43371 
Q 25.087283 33.383172 24.412469 37.207117 
Q 23.737655 41.031062 23.737655 43.018014 
Q 23.737655 43.805297 23.737655 44.105214 
Q 23.737655 44.405131 23.831379 45.042455 
Q 23.925103 45.679779 24.112552 45.960952 
Q 24.3 46.242124 24.693641 46.485807 
Q 25.087283 46.72949 25.649628 46.72949 
Q 25.762097 46.692 26.080759 46.72949 
Q 26.399421 46.766979 26.586869 46.710745 
Q 26.774317 46.65451 26.774317 46.392083 
" clip-path="url(#p9e104d20b3)" style="fill: none; stroke: #000000; stroke-linejoin: miter"/>
   </g>
  </g>
  <g id="axes_3">
   <g id="patch_4">
    <path d="M 34.257798 38.160826 
Q 37.230275 39.535596 41.949083 39.721376 
Q 43.472477 39.721376 44.159862 38.550963 
Q 44.847248 37.38055 44.847248 35.82 
Q 44.847248 35.299817 44.754358 34.909679 
Q 44.661468 34.519541 44.419954 34.296606 
Q 44.17844 34.07367 44.011239 33.943624 
Q 43.844037 33.813578 43.398165 33.757844 
Q 42.952294 33.70211 42.747936 33.683532 
Q 42.543578 33.664954 41.967661 33.683532 
Q 41.391743 33.70211 41.168807 33.70211 
Q 39.125229 33.70211 37.638991 35.578486 
Q 36.152752 37.454862 36.152752 39.609908 
Q 36.152752 42.619541 38.084862 44.570229 
Q 40.016972 46.520917 43.063761 46.520917 
Q 45.218807 46.818165 46.742202 44.29156 
" clip-path="url(#p0aee285dfb)" style="fill: none; stroke: #000000; stroke-linejoin: miter"/>
   </g>
  </g>
  <g id="axes_4">
   <g id="patch_5">
    <path d="M 53.213462 32.783338 
Q 53.738317 34.507862 53.869531 36.457324 
Q 54.000745 38.406786 53.925766 40.956083 
Q 53.850786 43.505379 53.888276 44.705048 
L 54.000745 46.054676 
L 54.000745 45.829738 
Q 54.000745 44.667559 53.719572 42.30571 
Q 53.4384 39.943862 53.4384 38.744193 
Q 53.4384 36.419834 54.450621 34.882759 
Q 55.462841 33.345683 57.487283 33.345683 
Q 58.199586 33.345683 58.536993 33.626855 
Q 58.8744 33.908028 59.136828 34.432883 
Q 59.399255 34.957738 59.736662 35.257655 
L 60.186538 36.832221 
" clip-path="url(#p4a8a0e3e92)" style="fill: none; stroke: #000000; stroke-linejoin: miter"/>
   </g>
  </g>
  <g id="axes_5">
   <g id="patch_6">
    <path d="M 66.657798 38.160826 
Q 69.630275 39.535596 74.349083 39.721376 
Q 75.872477 39.721376 76.559862 38.550963 
Q 77.247248 37.38055 77.247248 35.82 
Q 77.247248 35.299817 77.154358 34.909679 
Q 77.061468 34.519541 76.819954 34.296606 
Q 76.57844 34.07367 76.411239 33.943624 
Q 76.244037 33.813578 75.798165 33.757844 
Q 75.352294 33.70211 75.147936 33.683532 
Q 74.943578 33.664954 74.367661 33.683532 
Q 73.791743 33.70211 73.568807 33.70211 
Q 71.525229 33.70211 70.038991 35.578486 
Q 68.552752 37.454862 68.552752 39.609908 
Q 68.552752 42.619541 70.484862 44.570229 
Q 72.416972 46.520917 75.463761 46.520917 
Q 77.618807 46.818165 79.142202 44.29156 
" clip-path="url(#p5e4ad8f768)" style="fill: none; stroke: #000000; stroke-linejoin: miter"/>
   </g>
  </g>
  <g id="axes_6">
   <g id="patch_7">
    <path d="M 92.3616 35.032717 
Q 91.31189 34.582841 90.337159 34.69531 
Q 87.300497 35.032717 85.388524 36.701007 
Q 83.476552 38.369297 83.476552 41.330979 
Q 83.476552 43.917766 85.482248 45.6048 
Q 87.487945 47.291834 90.112221 47.291834 
Q 92.474069 47.291834 93.598759 45.361117 
Q 94.723448 43.4304 94.723448 40.881103 
Q 94.723448 39.643945 94.311062 38.706703 
Q 93.898676 37.769462 93.373821 37.300841 
Q 92.848966 36.832221 92.099172 36.119917 
Q 91.349379 35.407614 90.899503 34.69531 
L 89.662345 34.245434 
" clip-path="url(#p4aecb1d7df)" style="fill: none; stroke: #000000; stroke-linejoin: miter"/>
   </g>
  </g>
  <g id="axes_7">
   <g id="patch_8">
    <path d="M 104.587697 39.981352 
Q 105.599917 40.956083 105.937324 42.905545 
Q 106.124772 43.955255 105.712386 46.167145 
L 104.475228 47.629241 
" clip-path="url(#pc729c03661)" style="fill: none; stroke: #000000; stroke-linejoin: miter"/>
   </g>
  </g>
  <g id="axes_8"/>
  <g id="axes_9">
   <g id="patch_9">
    <path d="M 138.224855 27.009931 
Q 138.299834 27.347338 138.374814 28.265834 
Q 138.449793 29.184331 138.599752 29.634207 
L 138.524772 31.058814 
M 136.875228 27.309848 
Q 136.837738 27.309848 136.800248 27.534786 
Q 136.837738 27.684745 136.950207 28.828179 
Q 137.062676 29.971614 137.325103 30.533959 
" clip-path="url(#p7b353f5186)" style="fill: none; stroke: #000000; stroke-linejoin: miter"/>
   </g>
  </g>
  <g id="axes_10">
   <g id="patch_10">
    <path d="M 153.506359 28.621986 
Q 153.731297 30.34651 153.806276 32.146014 
Q 153.881255 33.945517 153.86251 36.551048 
Q 153.843766 39.156579 153.843766 40.093821 
Q 153.843766 40.13131 154.068703 45.829738 
L 154.293641 46.841959 
" clip-path="url(#p16b802e25e)" style="fill: none; stroke: #000000; stroke-linejoin: miter"/>
   </g>
  </g>
  <g id="axes_11">
   <g id="patch_11">
    <path d="M 163.857798 38.160826 
Q 166.830275 39.535596 171.549083 39.721376 
Q 173.072477 39.721376 173.759862 38.550963 
Q 174.447248 37.38055 174.447248 35.82 
Q 174.447248 35.299817 174.354358 34.909679 
Q 174.261468 34.519541 174.019954 34.296606 
Q 173.77844 34.07367 173.611239 33.943624 
Q 173.444037 33.813578 172.998165 33.757844 
Q 172.552294 33.70211 172.347936 33.683532 
Q 172.143578 33.664954 171.567661 33.683532 
Q 170.991743 33.70211 170.768807 33.70211 
Q 168.725229 33.70211 167.238991 35.578486 
Q 165.752752 37.454862 165.752752 39.609908 
Q 165.752752 42.619541 167.684862 44.570229 
Q 169.616972 46.520917 172.663761 46.520917 
Q 174.818807 46.818165 176.342202 44.29156 
" clip-path="url(#p74cfd98630)" style="fill: none; stroke: #000000; stroke-linejoin: miter"/>
   </g>
  </g>
  <g id="axes_12">
   <g id="patch_12">
    <path d="M 181.463834 37.95691 
L 182.138648 37.95691 
Q 182.850952 37.95691 183.638234 37.881931 
Q 184.425517 37.806952 185.381503 37.675738 
Q 186.33749 37.544524 186.862345 37.507034 
L 191.136166 35.82 
M 187.087283 30.42149 
L 187.087283 31.43371 
Q 187.087283 33.383172 186.412469 37.207117 
Q 185.737655 41.031062 185.737655 43.018014 
Q 185.737655 43.805297 185.737655 44.105214 
Q 185.737655 44.405131 185.831379 45.042455 
Q 185.925103 45.679779 186.112552 45.960952 
Q 186.3 46.242124 186.693641 46.485807 
Q 187.087283 46.72949 187.649628 46.72949 
Q 187.762097 46.692 188.080759 46.72949 
Q 188.399421 46.766979 188.586869 46.710745 
Q 188.774317 46.65451 188.774317 46.392083 
" clip-path="url(#p0f0f4e309b)" style="fill: none; stroke: #000000; stroke-linejoin: miter"/>
   </g>
  </g>
  <g id="axes_13">
   <g id="patch_13">
    <path d="M 202.425021 26.147669 
Q 202.387531 26.597545 202.425021 27.384828 
Q 202.46251 27.572276 202.406276 27.965917 
Q 202.350041 28.359559 202.387531 28.678221 
Q 202.425021 28.996883 202.649959 29.184331 
" clip-path="url(#p847d8ea8bb)" style="fill: none; stroke: #000000; stroke-linejoin: miter"/>
   </g>
  </g>
  <g id="axes_14">
   <g id="patch_14">
    <path d="M 214.257476 43.917766 
Q 214.557393 44.180193 215.569614 45.154924 
Q 216.581834 46.129655 217.144179 46.560786 
Q 217.706524 46.991917 218.73749 47.385559 
Q 219.768455 47.7792 220.780676 47.629241 
Q 221.45549 47.629241 221.92411 47.404303 
Q 222.392731 47.179366 222.617669 46.879448 
Q 222.842607 46.579531 222.973821 45.979697 
Q 223.105034 45.379862 223.123779 44.967476 
Q 223.142524 44.55509 223.142524 43.805297 
Q 223.142524 42.718097 222.242772 42.043283 
Q 221.343021 41.368469 220.049628 41.031062 
Q 218.756234 40.693655 217.462841 40.300014 
Q 216.169448 39.906372 215.269697 38.987876 
Q 214.369945 38.069379 214.369945 36.607283 
Q 214.369945 36.082428 214.538648 35.726276 
Q 214.707352 35.370124 215.100993 35.145186 
Q 215.494634 34.920248 215.775807 34.807779 
Q 216.056979 34.69531 216.713048 34.639076 
Q 217.369117 34.582841 217.556566 34.582841 
Q 217.744014 34.582841 218.418828 34.582841 
Q 219.618497 34.582841 220.199586 34.995228 
Q 220.780676 35.407614 221.099338 36.026193 
Q 221.418 36.644772 221.680428 36.832221 
" clip-path="url(#p0d3e9bc9ac)" style="fill: none; stroke: #000000; stroke-linejoin: miter"/>
   </g>
  </g>
  <g id="axes_15"/>
  <g id="axes_16">
   <g id="patch_15">
    <path d="M 247.613462 35.932469 
Q 248.213297 35.257655 249.206772 34.826524 
Q 250.200248 34.395393 251.1 34.470372 
Q 251.737324 34.470372 252.22469 34.639076 
Q 252.712055 34.807779 253.030717 34.995228 
Q 253.349379 35.182676 253.574317 35.670041 
Q 253.799255 36.157407 253.911724 36.419834 
Q 254.024193 36.682262 254.080428 37.375821 
Q 254.136662 38.069379 254.155407 38.331807 
Q 254.174152 38.594234 254.155407 39.419007 
Q 254.136662 40.243779 254.136662 40.431228 
Q 254.136662 41.368469 253.967959 43.242952 
Q 253.799255 45.117434 253.799255 46.054676 
Q 253.799255 46.467062 253.85549 46.823214 
Q 253.911724 47.179366 254.005448 47.610497 
Q 254.099172 48.041628 254.136662 48.304055 
L 254.586538 48.528993 
M 248.063338 23.111007 
Q 248.288276 24.798041 248.288276 29.971614 
L 248.288276 42.3432 
L 247.950869 46.841959 
L 247.725931 47.74171 
" clip-path="url(#pb1169c6a60)" style="fill: none; stroke: #000000; stroke-linejoin: miter"/>
   </g>
  </g>
  <g id="axes_17">
   <g id="patch_16">
    <path d="M 272.843923 36.441748 
Q 271.634968 35.094627 267.662687 35.094627 
Q 266.142857 35.094627 265.365672 35.146439 
Q 264.588486 35.198252 263.58678 35.440043 
Q 262.585075 35.681834 262.101493 36.182687 
Q 261.61791 36.683539 261.272495 37.616162 
Q 260.927079 38.548785 260.927079 39.964989 
Q 260.927079 42.037484 262.343284 43.280981 
Q 263.759488 44.524478 265.693817 44.524478 
Q 268.353518 44.524478 271.116844 38.721493 
Q 272.463966 35.854542 272.463966 35.82 
Q 272.809382 35.578209 272.843923 36.441748 
Q 272.843923 37.512537 273.258422 40.362217 
Q 273.672921 43.211898 273.672921 44.524478 
" clip-path="url(#pa0c9e271ec)" style="fill: none; stroke: #000000; stroke-linejoin: miter"/>
   </g>
  </g>
  <g id="axes_18">
   <g id="patch_17">
    <path d="M 279.226179 34.807779 
Q 280.838234 36.719752 282.131628 39.6252 
Q 283.425021 42.530648 283.724938 45.154924 
Q 284.774648 43.655338 285.693145 38.819172 
Q 286.611641 33.983007 287.773821 32.108524 
" clip-path="url(#pfc937562fd)" style="fill: none; stroke: #000000; stroke-linejoin: miter"/>
   </g>
  </g>
  <g id="axes_19">
   <g id="patch_18">
    <path d="M 293.457798 38.160826 
Q 296.430275 39.535596 301.149083 39.721376 
Q 302.672477 39.721376 303.359862 38.550963 
Q 304.047248 37.38055 304.047248 35.82 
Q 304.047248 35.299817 303.954358 34.909679 
Q 303.861468 34.519541 303.619954 34.296606 
Q 303.37844 34.07367 303.211239 33.943624 
Q 303.044037 33.813578 302.598165 33.757844 
Q 302.152294 33.70211 301.947936 33.683532 
Q 301.743578 33.664954 301.167661 33.683532 
Q 300.591743 33.70211 300.368807 33.70211 
Q 298.325229 33.70211 296.838991 35.578486 
Q 295.352752 37.454862 295.352752 39.609908 
Q 295.352752 42.619541 297.284862 44.570229 
Q 299.216972 46.520917 302.263761 46.520917 
Q 304.418807 46.818165 305.942202 44.29156 
" clip-path="url(#p387c745fd6)" style="fill: none; stroke: #000000; stroke-linejoin: miter"/>
   </g>
  </g>
  <g id="axes_20"/>
  <g id="axes_21">
   <g id="patch_19">
    <path d="M 327.657476 43.917766 
Q 327.957393 44.180193 328.969614 45.154924 
Q 329.981834 46.129655 330.544179 46.560786 
Q 331.106524 46.991917 332.13749 47.385559 
Q 333.168455 47.7792 334.180676 47.629241 
Q 334.85549 47.629241 335.32411 47.404303 
Q 335.792731 47.179366 336.017669 46.879448 
Q 336.242607 46.579531 336.373821 45.979697 
Q 336.505034 45.379862 336.523779 44.967476 
Q 336.542524 44.55509 336.542524 43.805297 
Q 336.542524 42.718097 335.642772 42.043283 
Q 334.743021 41.368469 333.449628 41.031062 
Q 332.156234 40.693655 330.862841 40.300014 
Q 329.569448 39.906372 328.669697 38.987876 
Q 327.769945 38.069379 327.769945 36.607283 
Q 327.769945 36.082428 327.938648 35.726276 
Q 328.107352 35.370124 328.500993 35.145186 
Q 328.894634 34.920248 329.175807 34.807779 
Q 329.456979 34.69531 330.113048 34.639076 
Q 330.769117 34.582841 330.956566 34.582841 
Q 331.144014 34.582841 331.818828 34.582841 
Q 333.018497 34.582841 333.599586 34.995228 
Q 334.180676 35.407614 334.499338 36.026193 
Q 334.818 36.644772 335.080428 36.832221 
" clip-path="url(#p862e6a923b)" style="fill: none; stroke: #000000; stroke-linejoin: miter"/>
   </g>
  </g>
  <g id="axes_22">
   <g id="patch_20">
    <path d="M 351.5616 35.032717 
Q 350.51189 34.582841 349.537159 34.69531 
Q 346.500497 35.032717 344.588524 36.701007 
Q 342.676552 38.369297 342.676552 41.330979 
Q 342.676552 43.917766 344.682248 45.6048 
Q 346.687945 47.291834 349.312221 47.291834 
Q 351.674069 47.291834 352.798759 45.361117 
Q 353.923448 43.4304 353.923448 40.881103 
Q 353.923448 39.643945 353.511062 38.706703 
Q 353.098676 37.769462 352.573821 37.300841 
Q 352.048966 36.832221 351.299172 36.119917 
Q 350.549379 35.407614 350.099503 34.69531 
L 348.862345 34.245434 
" clip-path="url(#pcd9a7316e3)" style="fill: none; stroke: #000000; stroke-linejoin: miter"/>
   </g>
  </g>
  <g id="axes_23">
   <g id="patch_21">
    <path d="M 358.208036 34.879821 
Q 358.714286 36.073125 359.003571 42.871339 
Q 359.148214 46.632054 359.4375 46.632054 
Q 359.473661 46.632054 359.509821 46.595893 
Q 360.016071 46.017321 360.070312 44.588973 
Q 360.124554 43.160625 359.907589 41.750357 
Q 359.690625 40.340089 359.4375 38.712857 
Q 359.184375 37.085625 359.184375 36.398571 
Q 359.184375 35.169107 359.564062 33.939643 
Q 359.94375 32.710179 360.920089 32.710179 
Q 362.149554 32.710179 362.872768 34.355491 
Q 363.595982 36.000804 363.758705 37.971562 
Q 363.921429 39.942321 364.029911 41.587634 
Q 364.138393 43.232946 364.283036 43.232946 
Q 364.427679 43.232946 364.51808 41.497232 
Q 364.608482 39.761518 364.735045 37.700357 
Q 364.861607 35.639196 365.584821 33.903482 
Q 366.308036 32.167768 367.5375 32.167768 
Q 369.092411 33.035625 369.761384 34.771339 
Q 370.430357 36.507054 370.394196 38.188527 
Q 370.358036 39.87 370.376116 42.057723 
Q 370.394196 44.245446 370.791964 45.511071 
" clip-path="url(#p80ad59837b)" style="fill: none; stroke: #000000; stroke-linejoin: miter"/>
   </g>
  </g>
  <g id="axes_24">
   <g id="patch_22">
    <path d="M 374.457798 38.160826 
Q 377.430275 39.535596 382.149083 39.721376 
Q 383.672477 39.721376 384.359862 38.550963 
Q 385.047248 37.38055 385.047248 35.82 
Q 385.047248 35.299817 384.954358 34.909679 
Q 384.861468 34.519541 384.619954 34.296606 
Q 384.37844 34.07367 384.211239 33.943624 
Q 384.044037 33.813578 383.598165 33.757844 
Q 383.152294 33.70211 382.947936 33.683532 
Q 382.743578 33.664954 382.167661 33.683532 
Q 381.591743 33.70211 381.368807 33.70211 
Q 379.325229 33.70211 377.838991 35.578486 
Q 376.352752 37.454862 376.352752 39.609908 
Q 376.352752 42.619541 378.284862 44.570229 
Q 380.216972 46.520917 383.263761 46.520917 
Q 385.418807 46.818165 386.942202 44.29156 
" clip-path="url(#pf72e8cd26c)" style="fill: none; stroke: #000000; stroke-linejoin: miter"/>
   </g>
  </g>
  <g id="axes_25"/>
  <g id="axes_26">
   <g id="patch_23">
    <path d="M 406.808036 34.879821 
Q 407.314286 36.073125 407.603571 42.871339 
Q 407.748214 46.632054 408.0375 46.632054 
Q 408.073661 46.632054 408.109821 46.595893 
Q 408.616071 46.017321 408.670312 44.588973 
Q 408.724554 43.160625 408.507589 41.750357 
Q 408.290625 40.340089 408.0375 38.712857 
Q 407.784375 37.085625 407.784375 36.398571 
Q 407.784375 35.169107 408.164062 33.939643 
Q 408.54375 32.710179 409.520089 32.710179 
Q 410.749554 32.710179 411.472768 34.355491 
Q 412.195982 36.000804 412.358705 37.971562 
Q 412.521429 39.942321 412.629911 41.587634 
Q 412.738393 43.232946 412.883036 43.232946 
Q 413.027679 43.232946 413.11808 41.497232 
Q 413.208482 39.761518 413.335045 37.700357 
Q 413.461607 35.639196 414.184821 33.903482 
Q 414.908036 32.167768 416.1375 32.167768 
Q 417.692411 33.035625 418.361384 34.771339 
Q 419.030357 36.507054 418.994196 38.188527 
Q 418.958036 39.87 418.976116 42.057723 
Q 418.994196 44.245446 419.391964 45.511071 
" clip-path="url(#p3d056e0416)" style="fill: none; stroke: #000000; stroke-linejoin: miter"/>
   </g>
  </g>
  <g id="axes_27">
   <g id="patch_24">
    <path d="M 424.688772 35.145186 
Q 424.688772 35.145186 424.688772 35.595062 
Q 424.688772 36.269876 424.576303 37.619503 
Q 424.463834 38.969131 424.463834 39.643945 
Q 424.463834 41.930814 425.700993 43.599103 
Q 426.938152 45.267393 429.075062 45.267393 
Q 430.462179 45.154924 431.230717 43.917766 
Q 431.999255 42.680607 432.149214 41.237255 
Q 432.299172 39.793903 432.5616 37.9944 
Q 432.824028 36.194897 433.236414 35.370124 
Q 433.386372 35.070207 433.386372 35.670041 
Q 433.386372 36.269876 433.123945 38.706703 
Q 432.899007 41.031062 432.899007 41.555917 
Q 432.749048 42.643117 433.086455 43.767807 
Q 433.423862 44.892497 434.136166 45.6048 
" clip-path="url(#pd65a54f3d3)" style="fill: none; stroke: #000000; stroke-linejoin: miter"/>
   </g>
  </g>
  <g id="axes_28">
   <g id="patch_25">
    <path d="M 441.057476 43.917766 
Q 441.357393 44.180193 442.369614 45.154924 
Q 443.381834 46.129655 443.944179 46.560786 
Q 444.506524 46.991917 445.53749 47.385559 
Q 446.568455 47.7792 447.580676 47.629241 
Q 448.25549 47.629241 448.72411 47.404303 
Q 449.192731 47.179366 449.417669 46.879448 
Q 449.642607 46.579531 449.773821 45.979697 
Q 449.905034 45.379862 449.923779 44.967476 
Q 449.942524 44.55509 449.942524 43.805297 
Q 449.942524 42.718097 449.042772 42.043283 
Q 448.143021 41.368469 446.849628 41.031062 
Q 445.556234 40.693655 444.262841 40.300014 
Q 442.969448 39.906372 442.069697 38.987876 
Q 441.169945 38.069379 441.169945 36.607283 
Q 441.169945 36.082428 441.338648 35.726276 
Q 441.507352 35.370124 441.900993 35.145186 
Q 442.294634 34.920248 442.575807 34.807779 
Q 442.856979 34.69531 443.513048 34.639076 
Q 444.169117 34.582841 444.356566 34.582841 
Q 444.544014 34.582841 445.218828 34.582841 
Q 446.418497 34.582841 446.999586 34.995228 
Q 447.580676 35.407614 447.899338 36.026193 
Q 448.218 36.644772 448.480428 36.832221 
" clip-path="url(#p87d860ef7f)" style="fill: none; stroke: #000000; stroke-linejoin: miter"/>
   </g>
  </g>
  <g id="axes_29">
   <g id="patch_26">
    <path d="M 462.318579 29.071862 
Q 461.943683 29.146841 461.812469 29.577972 
Q 461.681255 30.009103 461.756234 30.42149 
Q 461.756234 30.571448 461.793724 30.702662 
Q 461.831214 30.833876 461.887448 30.89011 
Q 461.943683 30.946345 461.999917 31.040069 
Q 462.056152 31.133793 462.093641 31.208772 
L 462.20611 29.859145 
M 462.20611 34.020497 
Q 461.306359 39.006621 461.081421 42.793076 
L 461.531297 45.379862 
L 461.868703 46.054676 
" clip-path="url(#p3afce1a057)" style="fill: none; stroke: #000000; stroke-linejoin: miter"/>
   </g>
  </g>
  <g id="axes_30">
   <g id="patch_27">
    <path d="M 483.156735 34.365306 
Q 483.156735 34.365306 482.660816 34.365306 
Q 481.867347 34.365306 480.379592 34.067755 
Q 478.891837 33.770204 478.098367 33.770204 
Q 475.321224 33.770204 473.387143 35.224898 
Q 471.453061 36.679592 471.453061 39.423673 
Q 471.453061 40.94449 472.940816 42.399184 
Q 474.428571 43.853878 476.362653 44.663878 
Q 478.296735 45.473878 479.78449 45.473878 
Q 480.710204 45.473878 481.40449 45.110204 
Q 482.098776 44.746531 482.842653 44.118367 
Q 483.586531 43.490204 484.148571 43.192653 
L 484.346939 42.696735 
" clip-path="url(#p0466a4ace2)" style="fill: none; stroke: #000000; stroke-linejoin: miter"/>
   </g>
  </g>
  <g id="axes_31">
   <g id="patch_28">
    <path d="M 493.987531 45.979697 
Q 493.950041 46.017186 493.818828 46.054676 
Q 493.687614 46.092166 493.725103 46.167145 
Q 493.725103 46.579531 494.1 46.579531 
Q 494.437407 46.579531 494.437407 46.092166 
Q 494.512386 45.867228 494.231214 45.754759 
Q 493.950041 45.64229 493.762593 45.754759 
" clip-path="url(#pf011eec4bc)" style="fill: none; stroke: #000000; stroke-linejoin: miter"/>
   </g>
  </g>
  <g id="axes_32">
   <g id="patch_29">
    <path d="M 510.824855 27.009931 
Q 510.899834 27.347338 510.974814 28.265834 
Q 511.049793 29.184331 511.199752 29.634207 
L 511.124772 31.058814 
M 509.475228 27.309848 
Q 509.437738 27.309848 509.400248 27.534786 
Q 509.437738 27.684745 509.550207 28.828179 
Q 509.662676 29.971614 509.925103 30.533959 
" clip-path="url(#p88f273e240)" style="fill: none; stroke: #000000; stroke-linejoin: miter"/>
   </g>
  </g>
 </g>
 <defs>
  <clipPath id="pc2880e053e">
   <rect x="1.782993" y="8.64" width="12.634014" height="54.36"/>
  </clipPath>
  <clipPath id="p9e104d20b3">
   <rect x="17.589352" y="8.64" width="13.421297" height="54.36"/>
  </clipPath>
  <clipPath id="p0aee285dfb">
   <rect x="32.4" y="8.881927" width="16.2" height="53.876147"/>
  </clipPath>
  <clipPath id="p4a8a0e3e92">
   <rect x="51.338979" y="8.64" width="10.722041" height="54.36"/>
  </clipPath>
  <clipPath id="p5e4ad8f768">
   <rect x="64.8" y="8.881927" width="16.2" height="53.876147"/>
  </clipPath>
  <clipPath id="p4aecb1d7df">
   <rect x="81.602069" y="8.64" width="14.995862" height="54.36"/>
  </clipPath>
  <clipPath id="pc729c03661">
   <rect x="102.600745" y="8.64" width="5.39851" height="54.36"/>
  </clipPath>
  <clipPath id="p7b353f5186">
   <rect x="134.925766" y="8.64" width="5.548469" height="54.36"/>
  </clipPath>
  <clipPath id="p16b802e25e">
   <rect x="151.631876" y="8.64" width="4.536248" height="54.36"/>
  </clipPath>
  <clipPath id="p74cfd98630">
   <rect x="162" y="8.881927" width="16.2" height="53.876147"/>
  </clipPath>
  <clipPath id="p0f0f4e309b">
   <rect x="179.589352" y="8.64" width="13.421297" height="54.36"/>
  </clipPath>
  <clipPath id="p847d8ea8bb">
   <rect x="200.475559" y="8.64" width="4.048883" height="54.36"/>
  </clipPath>
  <clipPath id="p0d3e9bc9ac">
   <rect x="212.382993" y="8.64" width="12.634014" height="54.36"/>
  </clipPath>
  <clipPath id="pb1169c6a60">
   <rect x="245.738979" y="8.64" width="10.722041" height="54.36"/>
  </clipPath>
  <clipPath id="pa0c9e271ec">
   <rect x="259.2" y="10.777356" width="16.2" height="50.085288"/>
  </clipPath>
  <clipPath id="pfc937562fd">
   <rect x="277.351697" y="8.64" width="12.296607" height="54.36"/>
  </clipPath>
  <clipPath id="p387c745fd6">
   <rect x="291.6" y="8.881927" width="16.2" height="53.876147"/>
  </clipPath>
  <clipPath id="p862e6a923b">
   <rect x="325.782993" y="8.64" width="12.634014" height="54.36"/>
  </clipPath>
  <clipPath id="pcd9a7316e3">
   <rect x="340.802069" y="8.64" width="14.995862" height="54.36"/>
  </clipPath>
  <clipPath id="p80ad59837b">
   <rect x="356.4" y="9.603482" width="16.2" height="52.433036"/>
  </clipPath>
  <clipPath id="pf72e8cd26c">
   <rect x="372.6" y="8.881927" width="16.2" height="53.876147"/>
  </clipPath>
  <clipPath id="p3d056e0416">
   <rect x="405" y="9.603482" width="16.2" height="52.433036"/>
  </clipPath>
  <clipPath id="pd65a54f3d3">
   <rect x="422.589352" y="8.64" width="13.421297" height="54.36"/>
  </clipPath>
  <clipPath id="p87d860ef7f">
   <rect x="439.182993" y="8.64" width="12.634014" height="54.36"/>
  </clipPath>
  <clipPath id="p3afce1a057">
   <rect x="459.206938" y="8.64" width="4.986124" height="54.36"/>
  </clipPath>
  <clipPath id="p0466a4ace2">
   <rect x="469.8" y="11.850612" width="16.2" height="47.938776"/>
  </clipPath>
  <clipPath id="pf011eec4bc">
   <rect x="491.813131" y="8.64" width="4.573738" height="54.36"/>
  </clipPath>
  <clipPath id="p88f273e240">
   <rect x="507.525766" y="8.64" width="5.548469" height="54.36"/>
  </clipPath>
 </defs>
</svg>
