<?xml version="1.0" encoding="utf-8" standalone="no"?>
<!DOCTYPE svg PUBLIC "-//W3C//DTD SVG 1.1//EN"
  "http://www.w3.org/Graphics/SVG/1.1/DTD/svg11.dtd">
<svg xmlns:xlink="http://www.w3.org/1999/xlink" width="810pt" height="72pt" viewBox="0 0 810 72" xmlns="http://www.w3.org/2000/svg" version="1.1">
 <metadata>
  <rdf:RDF xmlns:dc="http://purl.org/dc/elements/1.1/" xmlns:cc="http://creativecommons.org/ns#" xmlns:rdf="http://www.w3.org/1999/02/22-rdf-syntax-ns#">
   <cc:Work>
    <dc:type rdf:resource="http://purl.org/dc/dcmitype/StillImage"/>
    <dc:date>2023-12-21T11:46:41.080091</dc:date>
    <dc:format>image/svg+xml</dc:format>
    <dc:creator>
     <cc:Agent>
      <dc:title>Matplotlib v3.5.1, https://matplotlib.org/</dc:title>
     </cc:Agent>
    </dc:creator>
   </cc:Work>
  </rdf:RDF>
 </metadata>
 <defs>
  <style type="text/css">*{stroke-linejoin: round; stroke-linecap: butt}</style>
 </defs>
 <g id="figure_1">
  <g id="patch_1">
   <path d="M 0 72 
L 810 72 
L 810 0 
L 0 0 
z
" style="fill: #8fff9f"/>
  </g>
  <g id="axes_1">
   <g id="patch_2">
    <path d="M 8.624855 27.009931 
Q 8.699834 27.347338 8.774814 28.265834 
Q 8.849793 29.184331 8.999752 29.634207 
L 8.924772 31.058814 
M 7.275228 27.309848 
Q 7.237738 27.309848 7.200248 27.534786 
Q 7.237738 27.684745 7.350207 28.828179 
Q 7.462676 29.971614 7.725103 30.533959 
" clip-path="url(#p8ce55cdb90)" style="fill: none; stroke: #000000; stroke-linejoin: miter"/>
   </g>
  </g>
  <g id="axes_2">
   <g id="patch_3">
    <path d="M 17.287248 30.470738 
L 18.461477 30.601208 
Q 20.288054 30.601208 22.125503 30.709933 
Q 23.962953 30.818658 26.202685 30.992617 
Q 28.442416 31.166577 29.877584 31.253557 
L 31.312752 31.123087 
M 24.071678 31.057852 
Q 24.136913 31.405772 23.875973 32.177718 
Q 23.615034 32.949664 23.810738 33.406309 
Q 23.810738 34.711007 23.952081 36.363624 
Q 24.093423 38.016242 24.310872 39.973289 
Q 24.528322 41.930336 24.593557 42.800134 
" clip-path="url(#pefffbfb293)" style="fill: none; stroke: #000000; stroke-linejoin: miter"/>
   </g>
  </g>
  <g id="axes_3">
   <g id="patch_4">
    <path d="M 37.013462 35.932469 
Q 37.613297 35.257655 38.606772 34.826524 
Q 39.600248 34.395393 40.5 34.470372 
Q 41.137324 34.470372 41.62469 34.639076 
Q 42.112055 34.807779 42.430717 34.995228 
Q 42.749379 35.182676 42.974317 35.670041 
Q 43.199255 36.157407 43.311724 36.419834 
Q 43.424193 36.682262 43.480428 37.375821 
Q 43.536662 38.069379 43.555407 38.331807 
Q 43.574152 38.594234 43.555407 39.419007 
Q 43.536662 40.243779 43.536662 40.431228 
Q 43.536662 41.368469 43.367959 43.242952 
Q 43.199255 45.117434 43.199255 46.054676 
Q 43.199255 46.467062 43.25549 46.823214 
Q 43.311724 47.179366 43.405448 47.610497 
Q 43.499172 48.041628 43.536662 48.304055 
L 43.986538 48.528993 
M 37.463338 23.111007 
Q 37.688276 24.798041 37.688276 29.971614 
L 37.688276 42.3432 
L 37.350869 46.841959 
L 37.125931 47.74171 
" clip-path="url(#pdf385c0065)" style="fill: none; stroke: #000000; stroke-linejoin: miter"/>
   </g>
  </g>
  <g id="axes_4">
   <g id="patch_5">
    <path d="M 50.457798 38.160826 
Q 53.430275 39.535596 58.149083 39.721376 
Q 59.672477 39.721376 60.359862 38.550963 
Q 61.047248 37.38055 61.047248 35.82 
Q 61.047248 35.299817 60.954358 34.909679 
Q 60.861468 34.519541 60.619954 34.296606 
Q 60.37844 34.07367 60.211239 33.943624 
Q 60.044037 33.813578 59.598165 33.757844 
Q 59.152294 33.70211 58.947936 33.683532 
Q 58.743578 33.664954 58.167661 33.683532 
Q 57.591743 33.70211 57.368807 33.70211 
Q 55.325229 33.70211 53.838991 35.578486 
Q 52.352752 37.454862 52.352752 39.609908 
Q 52.352752 42.619541 54.284862 44.570229 
Q 56.216972 46.520917 59.263761 46.520917 
Q 61.418807 46.818165 62.942202 44.29156 
" clip-path="url(#pa51b890880)" style="fill: none; stroke: #000000; stroke-linejoin: miter"/>
   </g>
  </g>
  <g id="axes_5"/>
  <g id="axes_6">
   <g id="patch_6">
    <path d="M 88.706359 28.621986 
Q 88.931297 30.34651 89.006276 32.146014 
Q 89.081255 33.945517 89.06251 36.551048 
Q 89.043766 39.156579 89.043766 40.093821 
Q 89.043766 40.13131 89.268703 45.829738 
L 89.493641 46.841959 
" clip-path="url(#p46b1e8a725)" style="fill: none; stroke: #000000; stroke-linejoin: miter"/>
   </g>
  </g>
  <g id="axes_7">
   <g id="patch_7">
    <path d="M 110.843923 36.441748 
Q 109.634968 35.094627 105.662687 35.094627 
Q 104.142857 35.094627 103.365672 35.146439 
Q 102.588486 35.198252 101.58678 35.440043 
Q 100.585075 35.681834 100.101493 36.182687 
Q 99.61791 36.683539 99.272495 37.616162 
Q 98.927079 38.548785 98.927079 39.964989 
Q 98.927079 42.037484 100.343284 43.280981 
Q 101.759488 44.524478 103.693817 44.524478 
Q 106.353518 44.524478 109.116844 38.721493 
Q 110.463966 35.854542 110.463966 35.82 
Q 110.809382 35.578209 110.843923 36.441748 
Q 110.843923 37.512537 111.258422 40.362217 
Q 111.672921 43.211898 111.672921 44.524478 
" clip-path="url(#pca0207a70c)" style="fill: none; stroke: #000000; stroke-linejoin: miter"/>
   </g>
  </g>
  <g id="axes_8">
   <g id="patch_8">
    <path d="M 125.099007 39.568966 
Q 123.749379 38.181848 121.5 38.444276 
Q 118.650786 38.444276 117.488607 39.793903 
Q 116.326428 41.143531 116.326428 44.067724 
Q 116.326428 45.56731 117.619821 46.279614 
Q 118.913214 46.991917 120.487779 46.991917 
Q 121.799917 46.991917 122.812138 45.736014 
Q 123.824359 44.48011 124.405448 42.30571 
Q 124.986538 40.13131 125.361434 37.938166 
Q 125.736331 35.745021 125.88629 33.045766 
Q 126.036248 30.34651 126.073738 28.978138 
Q 126.111228 27.609766 126.111228 26.185159 
Q 125.88629 26.260138 125.88629 29.896634 
L 125.88629 44.292662 
L 126.673572 48.229076 
" clip-path="url(#p2800a9b5f8)" style="fill: none; stroke: #000000; stroke-linejoin: miter"/>
   </g>
  </g>
  <g id="axes_9">
   <g id="patch_9">
    <path d="M 132.563917 36.382345 
Q 132.526428 36.494814 132.657641 36.701007 
Q 132.788855 36.9072 132.676386 37.057159 
L 132.676386 39.306538 
Q 132.676386 40.506207 133.013793 41.724621 
Q 133.3512 42.943034 134.213462 43.93651 
Q 135.075724 44.929986 136.275393 44.929986 
Q 137.512552 44.929986 138.187366 43.861531 
Q 138.862179 42.793076 139.312055 41.143531 
Q 139.761931 39.493986 140.099338 38.969131 
L 140.886621 36.382345 
L 140.661683 42.680607 
L 140.661683 45.154924 
Q 140.661683 47.066897 141.392731 51.00331 
Q 142.123779 54.939724 142.123779 56.964166 
Q 142.873572 59.213545 141.786372 60.188276 
Q 140.699172 61.163007 138.637241 60.78811 
Q 136.837738 60.488193 135.919241 60.169531 
Q 135.000745 59.850869 133.013793 58.988607 
L 132.901324 58.426262 
" clip-path="url(#p51fbd01b17)" style="fill: none; stroke: #000000; stroke-linejoin: miter"/>
   </g>
  </g>
  <g id="axes_10"/>
  <g id="axes_11">
   <g id="patch_10">
    <path d="M 175.643923 36.441748 
Q 174.434968 35.094627 170.462687 35.094627 
Q 168.942857 35.094627 168.165672 35.146439 
Q 167.388486 35.198252 166.38678 35.440043 
Q 165.385075 35.681834 164.901493 36.182687 
Q 164.41791 36.683539 164.072495 37.616162 
Q 163.727079 38.548785 163.727079 39.964989 
Q 163.727079 42.037484 165.143284 43.280981 
Q 166.559488 44.524478 168.493817 44.524478 
Q 171.153518 44.524478 173.916844 38.721493 
Q 175.263966 35.854542 175.263966 35.82 
Q 175.609382 35.578209 175.643923 36.441748 
Q 175.643923 37.512537 176.058422 40.362217 
Q 176.472921 43.211898 176.472921 44.524478 
" clip-path="url(#pc872bfd70c)" style="fill: none; stroke: #000000; stroke-linejoin: miter"/>
   </g>
  </g>
  <g id="axes_12">
   <g id="patch_11">
    <path d="M 181.463834 37.95691 
L 182.138648 37.95691 
Q 182.850952 37.95691 183.638234 37.881931 
Q 184.425517 37.806952 185.381503 37.675738 
Q 186.33749 37.544524 186.862345 37.507034 
L 191.136166 35.82 
M 187.087283 30.42149 
L 187.087283 31.43371 
Q 187.087283 33.383172 186.412469 37.207117 
Q 185.737655 41.031062 185.737655 43.018014 
Q 185.737655 43.805297 185.737655 44.105214 
Q 185.737655 44.405131 185.831379 45.042455 
Q 185.925103 45.679779 186.112552 45.960952 
Q 186.3 46.242124 186.693641 46.485807 
Q 187.087283 46.72949 187.649628 46.72949 
Q 187.762097 46.692 188.080759 46.72949 
Q 188.399421 46.766979 188.586869 46.710745 
Q 188.774317 46.65451 188.774317 46.392083 
" clip-path="url(#pb30c9899a8)" style="fill: none; stroke: #000000; stroke-linejoin: miter"/>
   </g>
  </g>
  <g id="axes_13"/>
  <g id="axes_14">
   <g id="patch_12">
    <path d="M 213.863834 37.95691 
L 214.538648 37.95691 
Q 215.250952 37.95691 216.038234 37.881931 
Q 216.825517 37.806952 217.781503 37.675738 
Q 218.73749 37.544524 219.262345 37.507034 
L 223.536166 35.82 
M 219.487283 30.42149 
L 219.487283 31.43371 
Q 219.487283 33.383172 218.812469 37.207117 
Q 218.137655 41.031062 218.137655 43.018014 
Q 218.137655 43.805297 218.137655 44.105214 
Q 218.137655 44.405131 218.231379 45.042455 
Q 218.325103 45.679779 218.512552 45.960952 
Q 218.7 46.242124 219.093641 46.485807 
Q 219.487283 46.72949 220.049628 46.72949 
Q 220.162097 46.692 220.480759 46.72949 
Q 220.799421 46.766979 220.986869 46.710745 
Q 221.174317 46.65451 221.174317 46.392083 
" clip-path="url(#p76a783732e)" style="fill: none; stroke: #000000; stroke-linejoin: miter"/>
   </g>
  </g>
  <g id="axes_15">
   <g id="patch_13">
    <path d="M 231.413462 35.932469 
Q 232.013297 35.257655 233.006772 34.826524 
Q 234.000248 34.395393 234.9 34.470372 
Q 235.537324 34.470372 236.02469 34.639076 
Q 236.512055 34.807779 236.830717 34.995228 
Q 237.149379 35.182676 237.374317 35.670041 
Q 237.599255 36.157407 237.711724 36.419834 
Q 237.824193 36.682262 237.880428 37.375821 
Q 237.936662 38.069379 237.955407 38.331807 
Q 237.974152 38.594234 237.955407 39.419007 
Q 237.936662 40.243779 237.936662 40.431228 
Q 237.936662 41.368469 237.767959 43.242952 
Q 237.599255 45.117434 237.599255 46.054676 
Q 237.599255 46.467062 237.65549 46.823214 
Q 237.711724 47.179366 237.805448 47.610497 
Q 237.899172 48.041628 237.936662 48.304055 
L 238.386538 48.528993 
M 231.863338 23.111007 
Q 232.088276 24.798041 232.088276 29.971614 
L 232.088276 42.3432 
L 231.750869 46.841959 
L 231.525931 47.74171 
" clip-path="url(#p389d3eab7b)" style="fill: none; stroke: #000000; stroke-linejoin: miter"/>
   </g>
  </g>
  <g id="axes_16">
   <g id="patch_14">
    <path d="M 244.857798 38.160826 
Q 247.830275 39.535596 252.549083 39.721376 
Q 254.072477 39.721376 254.759862 38.550963 
Q 255.447248 37.38055 255.447248 35.82 
Q 255.447248 35.299817 255.354358 34.909679 
Q 255.261468 34.519541 255.019954 34.296606 
Q 254.77844 34.07367 254.611239 33.943624 
Q 254.444037 33.813578 253.998165 33.757844 
Q 253.552294 33.70211 253.347936 33.683532 
Q 253.143578 33.664954 252.567661 33.683532 
Q 251.991743 33.70211 251.768807 33.70211 
Q 249.725229 33.70211 248.238991 35.578486 
Q 246.752752 37.454862 246.752752 39.609908 
Q 246.752752 42.619541 248.684862 44.570229 
Q 250.616972 46.520917 253.663761 46.520917 
Q 255.818807 46.818165 257.342202 44.29156 
" clip-path="url(#pe38ee3b1c3)" style="fill: none; stroke: #000000; stroke-linejoin: miter"/>
   </g>
  </g>
  <g id="axes_17"/>
  <g id="axes_18">
   <g id="patch_15">
    <path d="M 279.057476 43.917766 
Q 279.357393 44.180193 280.369614 45.154924 
Q 281.381834 46.129655 281.944179 46.560786 
Q 282.506524 46.991917 283.53749 47.385559 
Q 284.568455 47.7792 285.580676 47.629241 
Q 286.25549 47.629241 286.72411 47.404303 
Q 287.192731 47.179366 287.417669 46.879448 
Q 287.642607 46.579531 287.773821 45.979697 
Q 287.905034 45.379862 287.923779 44.967476 
Q 287.942524 44.55509 287.942524 43.805297 
Q 287.942524 42.718097 287.042772 42.043283 
Q 286.143021 41.368469 284.849628 41.031062 
Q 283.556234 40.693655 282.262841 40.300014 
Q 280.969448 39.906372 280.069697 38.987876 
Q 279.169945 38.069379 279.169945 36.607283 
Q 279.169945 36.082428 279.338648 35.726276 
Q 279.507352 35.370124 279.900993 35.145186 
Q 280.294634 34.920248 280.575807 34.807779 
Q 280.856979 34.69531 281.513048 34.639076 
Q 282.169117 34.582841 282.356566 34.582841 
Q 282.544014 34.582841 283.218828 34.582841 
Q 284.418497 34.582841 284.999586 34.995228 
Q 285.580676 35.407614 285.899338 36.026193 
Q 286.218 36.644772 286.480428 36.832221 
" clip-path="url(#pbc7b5a92d1)" style="fill: none; stroke: #000000; stroke-linejoin: miter"/>
   </g>
  </g>
  <g id="axes_19">
   <g id="patch_16">
    <path d="M 294.863834 37.95691 
L 295.538648 37.95691 
Q 296.250952 37.95691 297.038234 37.881931 
Q 297.825517 37.806952 298.781503 37.675738 
Q 299.73749 37.544524 300.262345 37.507034 
L 304.536166 35.82 
M 300.487283 30.42149 
L 300.487283 31.43371 
Q 300.487283 33.383172 299.812469 37.207117 
Q 299.137655 41.031062 299.137655 43.018014 
Q 299.137655 43.805297 299.137655 44.105214 
Q 299.137655 44.405131 299.231379 45.042455 
Q 299.325103 45.679779 299.512552 45.960952 
Q 299.7 46.242124 300.093641 46.485807 
Q 300.487283 46.72949 301.049628 46.72949 
Q 301.162097 46.692 301.480759 46.72949 
Q 301.799421 46.766979 301.986869 46.710745 
Q 302.174317 46.65451 302.174317 46.392083 
" clip-path="url(#p976c3ac8a6)" style="fill: none; stroke: #000000; stroke-linejoin: miter"/>
   </g>
  </g>
  <g id="axes_20">
   <g id="patch_17">
    <path d="M 321.443923 36.441748 
Q 320.234968 35.094627 316.262687 35.094627 
Q 314.742857 35.094627 313.965672 35.146439 
Q 313.188486 35.198252 312.18678 35.440043 
Q 311.185075 35.681834 310.701493 36.182687 
Q 310.21791 36.683539 309.872495 37.616162 
Q 309.527079 38.548785 309.527079 39.964989 
Q 309.527079 42.037484 310.943284 43.280981 
Q 312.359488 44.524478 314.293817 44.524478 
Q 316.953518 44.524478 319.716844 38.721493 
Q 321.063966 35.854542 321.063966 35.82 
Q 321.409382 35.578209 321.443923 36.441748 
Q 321.443923 37.512537 321.858422 40.362217 
Q 322.272921 43.211898 322.272921 44.524478 
" clip-path="url(#p89f7a9b433)" style="fill: none; stroke: #000000; stroke-linejoin: miter"/>
   </g>
  </g>
  <g id="axes_21">
   <g id="patch_18">
    <path d="M 327.263834 37.95691 
L 327.938648 37.95691 
Q 328.650952 37.95691 329.438234 37.881931 
Q 330.225517 37.806952 331.181503 37.675738 
Q 332.13749 37.544524 332.662345 37.507034 
L 336.936166 35.82 
M 332.887283 30.42149 
L 332.887283 31.43371 
Q 332.887283 33.383172 332.212469 37.207117 
Q 331.537655 41.031062 331.537655 43.018014 
Q 331.537655 43.805297 331.537655 44.105214 
Q 331.537655 44.405131 331.631379 45.042455 
Q 331.725103 45.679779 331.912552 45.960952 
Q 332.1 46.242124 332.493641 46.485807 
Q 332.887283 46.72949 333.449628 46.72949 
Q 333.562097 46.692 333.880759 46.72949 
Q 334.199421 46.766979 334.386869 46.710745 
Q 334.574317 46.65451 334.574317 46.392083 
" clip-path="url(#p11c707c946)" style="fill: none; stroke: #000000; stroke-linejoin: miter"/>
   </g>
  </g>
  <g id="axes_22">
   <g id="patch_19">
    <path d="M 348.918579 29.071862 
Q 348.543683 29.146841 348.412469 29.577972 
Q 348.281255 30.009103 348.356234 30.42149 
Q 348.356234 30.571448 348.393724 30.702662 
Q 348.431214 30.833876 348.487448 30.89011 
Q 348.543683 30.946345 348.599917 31.040069 
Q 348.656152 31.133793 348.693641 31.208772 
L 348.80611 29.859145 
M 348.80611 34.020497 
Q 347.906359 39.006621 347.681421 42.793076 
L 348.131297 45.379862 
L 348.468703 46.054676 
" clip-path="url(#p7dd27efe89)" style="fill: none; stroke: #000000; stroke-linejoin: miter"/>
   </g>
  </g>
  <g id="axes_23">
   <g id="patch_20">
    <path d="M 367.7616 35.032717 
Q 366.71189 34.582841 365.737159 34.69531 
Q 362.700497 35.032717 360.788524 36.701007 
Q 358.876552 38.369297 358.876552 41.330979 
Q 358.876552 43.917766 360.882248 45.6048 
Q 362.887945 47.291834 365.512221 47.291834 
Q 367.874069 47.291834 368.998759 45.361117 
Q 370.123448 43.4304 370.123448 40.881103 
Q 370.123448 39.643945 369.711062 38.706703 
Q 369.298676 37.769462 368.773821 37.300841 
Q 368.248966 36.832221 367.499172 36.119917 
Q 366.749379 35.407614 366.299503 34.69531 
L 365.062345 34.245434 
" clip-path="url(#p3b9e2f477b)" style="fill: none; stroke: #000000; stroke-linejoin: miter"/>
   </g>
  </g>
  <g id="axes_24">
   <g id="patch_21">
    <path d="M 376.238731 37.282097 
L 376.238731 37.844441 
Q 376.501159 39.868883 376.538648 41.312234 
Q 376.576138 42.755586 376.482414 44.667559 
Q 376.38869 46.579531 376.38869 48.191586 
L 376.463669 39.643945 
Q 376.463669 38.144359 378.056979 37.507034 
Q 379.65029 36.86971 381.074897 37.282097 
Q 382.986869 37.844441 383.905366 39.04411 
Q 384.823862 40.243779 384.880097 41.668386 
Q 384.936331 43.092993 384.973821 44.817517 
Q 385.01131 46.542041 385.161269 48.191586 
" clip-path="url(#p0ad662b594)" style="fill: none; stroke: #000000; stroke-linejoin: miter"/>
   </g>
  </g>
  <g id="axes_25"/>
  <g id="axes_26">
   <g id="patch_22">
    <path d="M 406.716102 36.437797 
L 407.951695 44.778051 
Q 408.054661 45.567458 408.054661 45.60178 
Q 408.054661 45.704746 408.363559 45.704746 
Q 409.22161 45.704746 409.942373 44.778051 
Q 410.663136 43.851356 411.075 42.718729 
Q 411.486864 41.586102 412.001695 40.659407 
Q 412.516525 39.732712 412.997034 39.732712 
Q 413.614831 39.732712 414.249788 40.607924 
Q 414.884746 41.483136 415.348093 42.512797 
Q 415.811441 43.542458 416.48072 44.417669 
Q 417.15 45.292881 417.836441 45.292881 
Q 418.111017 43.782712 418.540042 39.69839 
Q 418.969068 35.614068 419.483898 33.554746 
" clip-path="url(#pb2506c1268)" style="fill: none; stroke: #000000; stroke-linejoin: miter"/>
   </g>
  </g>
  <g id="axes_27">
   <g id="patch_23">
    <path d="M 434.843923 36.441748 
Q 433.634968 35.094627 429.662687 35.094627 
Q 428.142857 35.094627 427.365672 35.146439 
Q 426.588486 35.198252 425.58678 35.440043 
Q 424.585075 35.681834 424.101493 36.182687 
Q 423.61791 36.683539 423.272495 37.616162 
Q 422.927079 38.548785 422.927079 39.964989 
Q 422.927079 42.037484 424.343284 43.280981 
Q 425.759488 44.524478 427.693817 44.524478 
Q 430.353518 44.524478 433.116844 38.721493 
Q 434.463966 35.854542 434.463966 35.82 
Q 434.809382 35.578209 434.843923 36.441748 
Q 434.843923 37.512537 435.258422 40.362217 
Q 435.672921 43.211898 435.672921 44.524478 
" clip-path="url(#p87b06ac38f)" style="fill: none; stroke: #000000; stroke-linejoin: miter"/>
   </g>
  </g>
  <g id="axes_28">
   <g id="patch_24">
    <path d="M 441.057476 43.917766 
Q 441.357393 44.180193 442.369614 45.154924 
Q 443.381834 46.129655 443.944179 46.560786 
Q 444.506524 46.991917 445.53749 47.385559 
Q 446.568455 47.7792 447.580676 47.629241 
Q 448.25549 47.629241 448.72411 47.404303 
Q 449.192731 47.179366 449.417669 46.879448 
Q 449.642607 46.579531 449.773821 45.979697 
Q 449.905034 45.379862 449.923779 44.967476 
Q 449.942524 44.55509 449.942524 43.805297 
Q 449.942524 42.718097 449.042772 42.043283 
Q 448.143021 41.368469 446.849628 41.031062 
Q 445.556234 40.693655 444.262841 40.300014 
Q 442.969448 39.906372 442.069697 38.987876 
Q 441.169945 38.069379 441.169945 36.607283 
Q 441.169945 36.082428 441.338648 35.726276 
Q 441.507352 35.370124 441.900993 35.145186 
Q 442.294634 34.920248 442.575807 34.807779 
Q 442.856979 34.69531 443.513048 34.639076 
Q 444.169117 34.582841 444.356566 34.582841 
Q 444.544014 34.582841 445.218828 34.582841 
Q 446.418497 34.582841 446.999586 34.995228 
Q 447.580676 35.407614 447.899338 36.026193 
Q 448.218 36.644772 448.480428 36.832221 
" clip-path="url(#p5d9587d339)" style="fill: none; stroke: #000000; stroke-linejoin: miter"/>
   </g>
  </g>
  <g id="axes_29">
   <g id="patch_25">
    <path d="M 457.238731 37.282097 
L 457.238731 37.844441 
Q 457.501159 39.868883 457.538648 41.312234 
Q 457.576138 42.755586 457.482414 44.667559 
Q 457.38869 46.579531 457.38869 48.191586 
L 457.463669 39.643945 
Q 457.463669 38.144359 459.056979 37.507034 
Q 460.65029 36.86971 462.074897 37.282097 
Q 463.986869 37.844441 464.905366 39.04411 
Q 465.823862 40.243779 465.880097 41.668386 
Q 465.936331 43.092993 465.973821 44.817517 
Q 466.01131 46.542041 466.161269 48.191586 
" clip-path="url(#pbf8b4a8908)" style="fill: none; stroke: #000000; stroke-linejoin: miter"/>
   </g>
  </g>
  <g id="axes_30">
   <g id="patch_26">
    <path d="M 477.825021 26.147669 
Q 477.787531 26.597545 477.825021 27.384828 
Q 477.86251 27.572276 477.806276 27.965917 
Q 477.750041 28.359559 477.787531 28.678221 
Q 477.825021 28.996883 478.049959 29.184331 
" clip-path="url(#pcd21978294)" style="fill: none; stroke: #000000; stroke-linejoin: miter"/>
   </g>
  </g>
  <g id="axes_31">
   <g id="patch_27">
    <path d="M 489.263834 37.95691 
L 489.938648 37.95691 
Q 490.650952 37.95691 491.438234 37.881931 
Q 492.225517 37.806952 493.181503 37.675738 
Q 494.13749 37.544524 494.662345 37.507034 
L 498.936166 35.82 
M 494.887283 30.42149 
L 494.887283 31.43371 
Q 494.887283 33.383172 494.212469 37.207117 
Q 493.537655 41.031062 493.537655 43.018014 
Q 493.537655 43.805297 493.537655 44.105214 
Q 493.537655 44.405131 493.631379 45.042455 
Q 493.725103 45.679779 493.912552 45.960952 
Q 494.1 46.242124 494.493641 46.485807 
Q 494.887283 46.72949 495.449628 46.72949 
Q 495.562097 46.692 495.880759 46.72949 
Q 496.199421 46.766979 496.386869 46.710745 
Q 496.574317 46.65451 496.574317 46.392083 
" clip-path="url(#pfab57094f1)" style="fill: none; stroke: #000000; stroke-linejoin: miter"/>
   </g>
  </g>
  <g id="axes_32"/>
  <g id="axes_33">
   <g id="patch_28">
    <path d="M 526.856152 30.309021 
Q 526.368786 30.42149 526.781172 30.833876 
Q 527.156069 31.208772 527.231048 30.946345 
Q 527.268538 30.871366 527.193559 30.646428 
Q 527.193559 30.458979 527.118579 30.42149 
Q 527.0436 30.384 526.912386 30.42149 
Q 526.781172 30.458979 526.631214 30.42149 
L 526.518745 30.646428 
M 527.418497 33.345683 
Q 528.468207 37.731972 528.993062 40.13131 
Q 529.517917 42.530648 529.967793 46.317103 
Q 530.417669 50.103559 530.230221 53.25269 
Q 530.230221 53.440138 530.230221 54.021228 
Q 530.230221 54.602317 530.230221 54.902234 
Q 530.230221 55.202152 530.211476 55.783241 
Q 530.192731 56.364331 530.117752 56.701738 
Q 530.042772 57.039145 529.930303 57.52651 
Q 529.817834 58.013876 529.611641 58.313793 
Q 529.405448 58.61371 529.143021 58.894883 
Q 528.880593 59.176055 528.505697 59.307269 
Q 528.1308 59.438483 527.643434 59.438483 
Q 526.668703 59.438483 525.91891 59.251034 
Q 525.169117 59.063586 524.306855 58.707434 
Q 523.444593 58.351283 522.807269 58.201324 
L 522.582331 57.751448 
" clip-path="url(#p3c1a57f321)" style="fill: none; stroke: #000000; stroke-linejoin: miter"/>
   </g>
  </g>
  <g id="axes_34">
   <g id="patch_29">
    <path d="M 545.9616 35.032717 
Q 544.91189 34.582841 543.937159 34.69531 
Q 540.900497 35.032717 538.988524 36.701007 
Q 537.076552 38.369297 537.076552 41.330979 
Q 537.076552 43.917766 539.082248 45.6048 
Q 541.087945 47.291834 543.712221 47.291834 
Q 546.074069 47.291834 547.198759 45.361117 
Q 548.323448 43.4304 548.323448 40.881103 
Q 548.323448 39.643945 547.911062 38.706703 
Q 547.498676 37.769462 546.973821 37.300841 
Q 546.448966 36.832221 545.699172 36.119917 
Q 544.949379 35.407614 544.499503 34.69531 
L 543.262345 34.245434 
" clip-path="url(#p9b42e801ec)" style="fill: none; stroke: #000000; stroke-linejoin: miter"/>
   </g>
  </g>
  <g id="axes_35">
   <g id="patch_30">
    <path d="M 556.931793 37.169628 
Q 558.956234 39.194069 560.718248 41.76211 
Q 562.480262 44.330152 563.342524 46.72949 
M 559.968455 31.321241 
L 559.968455 31.546179 
Q 559.968455 32.333462 559.331131 33.514386 
Q 558.693807 34.69531 557.719076 36.101172 
Q 556.744345 37.507034 556.481917 37.95691 
L 555.244759 39.643945 
M 554.457476 26.710014 
Q 556.294469 36.269876 556.481917 48.641462 
" clip-path="url(#p08112df88d)" style="fill: none; stroke: #000000; stroke-linejoin: miter"/>
   </g>
  </g>
  <g id="axes_36">
   <g id="patch_31">
    <path d="M 575.718579 29.071862 
Q 575.343683 29.146841 575.212469 29.577972 
Q 575.081255 30.009103 575.156234 30.42149 
Q 575.156234 30.571448 575.193724 30.702662 
Q 575.231214 30.833876 575.287448 30.89011 
Q 575.343683 30.946345 575.399917 31.040069 
Q 575.456152 31.133793 575.493641 31.208772 
L 575.60611 29.859145 
M 575.60611 34.020497 
Q 574.706359 39.006621 574.481421 42.793076 
L 574.931297 45.379862 
L 575.268703 46.054676 
" clip-path="url(#pc56a1ac9d7)" style="fill: none; stroke: #000000; stroke-linejoin: miter"/>
   </g>
  </g>
  <g id="axes_37">
   <g id="patch_32">
    <path d="M 586.838731 37.282097 
L 586.838731 37.844441 
Q 587.101159 39.868883 587.138648 41.312234 
Q 587.176138 42.755586 587.082414 44.667559 
Q 586.98869 46.579531 586.98869 48.191586 
L 587.063669 39.643945 
Q 587.063669 38.144359 588.656979 37.507034 
Q 590.25029 36.86971 591.674897 37.282097 
Q 593.586869 37.844441 594.505366 39.04411 
Q 595.423862 40.243779 595.480097 41.668386 
Q 595.536331 43.092993 595.573821 44.817517 
Q 595.61131 46.542041 595.761269 48.191586 
" clip-path="url(#pbcf969b4b8)" style="fill: none; stroke: #000000; stroke-linejoin: miter"/>
   </g>
  </g>
  <g id="axes_38">
   <g id="patch_33">
    <path d="M 612.287191 39.096404 
Q 612.03236 39.023596 611.06764 38.623146 
Q 610.102921 38.222697 609.44764 38.077079 
Q 608.79236 37.931461 608.137079 38.00427 
Q 605.515955 38.00427 603.877753 40.388764 
Q 602.239551 42.773258 602.239551 45.430787 
Q 602.239551 47.068989 607.481798 47.068989 
Q 609.047191 47.068989 610.375955 45.558202 
Q 611.704719 44.047416 612.378202 42.172584 
Q 613.051685 40.297753 613.051685 38.768764 
Q 613.051685 37.27618 613.015281 36.984944 
L 612.942472 38.077079 
Q 612.942472 38.550337 612.942472 38.987191 
Q 612.978876 40.188539 613.179101 42.281798 
Q 613.379326 44.375056 613.543146 46.049663 
Q 613.706966 47.72427 613.743371 49.872135 
Q 613.779775 52.02 613.615955 53.658202 
Q 613.452135 55.296404 612.887865 56.971011 
Q 612.323596 58.645618 611.395281 59.737753 
Q 610.466966 60.829888 608.865169 61.521573 
Q 607.263371 62.213258 605.115506 62.213258 
Q 603.477303 62.213258 602.385169 61.466966 
Q 601.293034 60.720674 601.293034 59.155281 
Q 601.220225 58.936854 601.256629 58.936854 
Q 601.293034 58.936854 601.402247 58.936854 
Q 601.511461 58.936854 601.511461 58.82764 
" clip-path="url(#pc629093618)" style="fill: none; stroke: #000000; stroke-linejoin: miter"/>
   </g>
  </g>
  <g id="axes_39">
   <g id="patch_34">
    <path d="M 622.987697 39.981352 
Q 623.999917 40.956083 624.337324 42.905545 
Q 624.524772 43.955255 624.112386 46.167145 
L 622.875228 47.629241 
" clip-path="url(#pb73aa94d09)" style="fill: none; stroke: #000000; stroke-linejoin: miter"/>
   </g>
  </g>
  <g id="axes_40">
   <g id="patch_35">
    <path d="M 640.424855 27.009931 
Q 640.499834 27.347338 640.574814 28.265834 
Q 640.649793 29.184331 640.799752 29.634207 
L 640.724772 31.058814 
M 639.075228 27.309848 
Q 639.037738 27.309848 639.000248 27.534786 
Q 639.037738 27.684745 639.150207 28.828179 
Q 639.262676 29.971614 639.525103 30.533959 
" clip-path="url(#p3889753bde)" style="fill: none; stroke: #000000; stroke-linejoin: miter"/>
   </g>
  </g>
  <g id="axes_41"/>
  <g id="axes_42">
   <g id="patch_36">
    <path d="M 666.248638 35.788482 
L 666.437743 35.788482 
Q 667.320233 35.788482 669.085214 35.69393 
Q 670.850195 35.599377 671.732685 35.599377 
Q 673.277043 35.599377 674.474708 35.835759 
Q 675.672374 36.07214 676.696693 36.655214 
Q 677.721012 37.238288 678.272568 38.35716 
Q 678.824125 39.476031 678.824125 41.083424 
Q 678.824125 46.567471 668.707004 46.567471 
Q 668.675486 46.567471 666.815953 46.283813 
L 666.248638 46.000156 
M 666.248638 27.562412 
Q 667.887549 26.679922 669.841634 26.71144 
Q 672.110895 26.71144 674.143774 28.035175 
Q 676.176654 29.358911 676.176654 31.533619 
Q 676.176654 32.825837 675.625097 33.582257 
Q 675.073541 34.338677 674.348638 34.527782 
Q 673.623735 34.716887 672.630934 35.06358 
Q 671.638132 35.410272 671.070817 35.883035 
L 666.248638 35.788482 
M 665.775875 27.656965 
Q 665.996498 28.949183 665.933463 32.494903 
Q 665.870428 36.040623 666.437743 37.301323 
Q 666.437743 38.309883 666.390467 40.358521 
Q 666.343191 42.40716 666.343191 43.447237 
L 666.343191 45.243735 
L 666.154086 46.000156 
" clip-path="url(#pe32ad85578)" style="fill: none; stroke: #000000; stroke-linejoin: miter"/>
   </g>
  </g>
  <g id="axes_43">
   <g id="patch_37">
    <path d="M 683.888772 35.145186 
Q 683.888772 35.145186 683.888772 35.595062 
Q 683.888772 36.269876 683.776303 37.619503 
Q 683.663834 38.969131 683.663834 39.643945 
Q 683.663834 41.930814 684.900993 43.599103 
Q 686.138152 45.267393 688.275062 45.267393 
Q 689.662179 45.154924 690.430717 43.917766 
Q 691.199255 42.680607 691.349214 41.237255 
Q 691.499172 39.793903 691.7616 37.9944 
Q 692.024028 36.194897 692.436414 35.370124 
Q 692.586372 35.070207 692.586372 35.670041 
Q 692.586372 36.269876 692.323945 38.706703 
Q 692.099007 41.031062 692.099007 41.555917 
Q 691.949048 42.643117 692.286455 43.767807 
Q 692.623862 44.892497 693.336166 45.6048 
" clip-path="url(#p460486489a)" style="fill: none; stroke: #000000; stroke-linejoin: miter"/>
   </g>
  </g>
  <g id="axes_44">
   <g id="patch_38">
    <path d="M 701.213462 32.783338 
Q 701.738317 34.507862 701.869531 36.457324 
Q 702.000745 38.406786 701.925766 40.956083 
Q 701.850786 43.505379 701.888276 44.705048 
L 702.000745 46.054676 
L 702.000745 45.829738 
Q 702.000745 44.667559 701.719572 42.30571 
Q 701.4384 39.943862 701.4384 38.744193 
Q 701.4384 36.419834 702.450621 34.882759 
Q 703.462841 33.345683 705.487283 33.345683 
Q 706.199586 33.345683 706.536993 33.626855 
Q 706.8744 33.908028 707.136828 34.432883 
Q 707.399255 34.957738 707.736662 35.257655 
L 708.186538 36.832221 
" clip-path="url(#pd8ac89f46c)" style="fill: none; stroke: #000000; stroke-linejoin: miter"/>
   </g>
  </g>
  <g id="axes_45">
   <g id="patch_39">
    <path d="M 716.063834 37.95691 
L 716.738648 37.95691 
Q 717.450952 37.95691 718.238234 37.881931 
Q 719.025517 37.806952 719.981503 37.675738 
Q 720.93749 37.544524 721.462345 37.507034 
L 725.736166 35.82 
M 721.687283 30.42149 
L 721.687283 31.43371 
Q 721.687283 33.383172 721.012469 37.207117 
Q 720.337655 41.031062 720.337655 43.018014 
Q 720.337655 43.805297 720.337655 44.105214 
Q 720.337655 44.405131 720.431379 45.042455 
Q 720.525103 45.679779 720.712552 45.960952 
Q 720.9 46.242124 721.293641 46.485807 
Q 721.687283 46.72949 722.249628 46.72949 
Q 722.362097 46.692 722.680759 46.72949 
Q 722.999421 46.766979 723.186869 46.710745 
Q 723.374317 46.65451 723.374317 46.392083 
" clip-path="url(#p2b4f183bd0)" style="fill: none; stroke: #000000; stroke-linejoin: miter"/>
   </g>
  </g>
 </g>
 <defs>
  <clipPath id="p8ce55cdb90">
   <rect x="5.325766" y="8.64" width="5.548469" height="54.36"/>
  </clipPath>
  <clipPath id="pefffbfb293">
   <rect x="16.2" y="20.054899" width="16.2" height="31.530201"/>
  </clipPath>
  <clipPath id="pdf385c0065">
   <rect x="35.138979" y="8.64" width="10.722041" height="54.36"/>
  </clipPath>
  <clipPath id="pa51b890880">
   <rect x="48.6" y="8.881927" width="16.2" height="53.876147"/>
  </clipPath>
  <clipPath id="p46b1e8a725">
   <rect x="86.831876" y="8.64" width="4.536248" height="54.36"/>
  </clipPath>
  <clipPath id="pca0207a70c">
   <rect x="97.2" y="10.777356" width="16.2" height="50.085288"/>
  </clipPath>
  <clipPath id="p2800a9b5f8">
   <rect x="114.451945" y="8.64" width="14.09611" height="54.36"/>
  </clipPath>
  <clipPath id="p51fbd01b17">
   <rect x="130.651945" y="8.64" width="14.09611" height="54.36"/>
  </clipPath>
  <clipPath id="pc872bfd70c">
   <rect x="162" y="10.777356" width="16.2" height="50.085288"/>
  </clipPath>
  <clipPath id="pb30c9899a8">
   <rect x="179.589352" y="8.64" width="13.421297" height="54.36"/>
  </clipPath>
  <clipPath id="p76a783732e">
   <rect x="211.989352" y="8.64" width="13.421297" height="54.36"/>
  </clipPath>
  <clipPath id="p389d3eab7b">
   <rect x="229.538979" y="8.64" width="10.722041" height="54.36"/>
  </clipPath>
  <clipPath id="pe38ee3b1c3">
   <rect x="243" y="8.881927" width="16.2" height="53.876147"/>
  </clipPath>
  <clipPath id="pbc7b5a92d1">
   <rect x="277.182993" y="8.64" width="12.634014" height="54.36"/>
  </clipPath>
  <clipPath id="p976c3ac8a6">
   <rect x="292.989352" y="8.64" width="13.421297" height="54.36"/>
  </clipPath>
  <clipPath id="p89f7a9b433">
   <rect x="307.8" y="10.777356" width="16.2" height="50.085288"/>
  </clipPath>
  <clipPath id="p11c707c946">
   <rect x="325.389352" y="8.64" width="13.421297" height="54.36"/>
  </clipPath>
  <clipPath id="p7dd27efe89">
   <rect x="345.806938" y="8.64" width="4.986124" height="54.36"/>
  </clipPath>
  <clipPath id="p3b9e2f477b">
   <rect x="357.002069" y="8.64" width="14.995862" height="54.36"/>
  </clipPath>
  <clipPath id="p0ad662b594">
   <rect x="374.364248" y="8.64" width="12.671503" height="54.36"/>
  </clipPath>
  <clipPath id="pb2506c1268">
   <rect x="405" y="10.936525" width="16.2" height="49.766949"/>
  </clipPath>
  <clipPath id="p87b06ac38f">
   <rect x="421.2" y="10.777356" width="16.2" height="50.085288"/>
  </clipPath>
  <clipPath id="p5d9587d339">
   <rect x="439.182993" y="8.64" width="12.634014" height="54.36"/>
  </clipPath>
  <clipPath id="pbf8b4a8908">
   <rect x="455.364248" y="8.64" width="12.671503" height="54.36"/>
  </clipPath>
  <clipPath id="pcd21978294">
   <rect x="475.875559" y="8.64" width="4.048883" height="54.36"/>
  </clipPath>
  <clipPath id="pfab57094f1">
   <rect x="487.389352" y="8.64" width="13.421297" height="54.36"/>
  </clipPath>
  <clipPath id="p3c1a57f321">
   <rect x="520.707848" y="8.64" width="11.584303" height="54.36"/>
  </clipPath>
  <clipPath id="p9b42e801ec">
   <rect x="535.202069" y="8.64" width="14.995862" height="54.36"/>
  </clipPath>
  <clipPath id="p08112df88d">
   <rect x="552.582993" y="8.64" width="12.634014" height="54.36"/>
  </clipPath>
  <clipPath id="pc56a1ac9d7">
   <rect x="572.606938" y="8.64" width="4.986124" height="54.36"/>
  </clipPath>
  <clipPath id="pbcf969b4b8">
   <rect x="584.964248" y="8.64" width="12.671503" height="54.36"/>
  </clipPath>
  <clipPath id="pc629093618">
   <rect x="599.4" y="9.426742" width="16.2" height="52.786517"/>
  </clipPath>
  <clipPath id="pb73aa94d09">
   <rect x="621.000745" y="8.64" width="5.39851" height="54.36"/>
  </clipPath>
  <clipPath id="p3889753bde">
   <rect x="637.125766" y="8.64" width="5.548469" height="54.36"/>
  </clipPath>
  <clipPath id="pe32ad85578">
   <rect x="664.2" y="12.969805" width="16.2" height="45.700389"/>
  </clipPath>
  <clipPath id="p460486489a">
   <rect x="681.789352" y="8.64" width="13.421297" height="54.36"/>
  </clipPath>
  <clipPath id="pd8ac89f46c">
   <rect x="699.338979" y="8.64" width="10.722041" height="54.36"/>
  </clipPath>
  <clipPath id="p2b4f183bd0">
   <rect x="714.189352" y="8.64" width="13.421297" height="54.36"/>
  </clipPath>
 </defs>
</svg>
