<?xml version="1.0" encoding="utf-8" standalone="no"?>
<!DOCTYPE svg PUBLIC "-//W3C//DTD SVG 1.1//EN"
  "http://www.w3.org/Graphics/SVG/1.1/DTD/svg11.dtd">
<svg xmlns:xlink="http://www.w3.org/1999/xlink" width="864pt" height="72pt" viewBox="0 0 864 72" xmlns="http://www.w3.org/2000/svg" version="1.1">
 <metadata>
  <rdf:RDF xmlns:dc="http://purl.org/dc/elements/1.1/" xmlns:cc="http://creativecommons.org/ns#" xmlns:rdf="http://www.w3.org/1999/02/22-rdf-syntax-ns#">
   <cc:Work>
    <dc:type rdf:resource="http://purl.org/dc/dcmitype/StillImage"/>
    <dc:date>2023-12-21T11:46:28.779832</dc:date>
    <dc:format>image/svg+xml</dc:format>
    <dc:creator>
     <cc:Agent>
      <dc:title>Matplotlib v3.5.1, https://matplotlib.org/</dc:title>
     </cc:Agent>
    </dc:creator>
   </cc:Work>
  </rdf:RDF>
 </metadata>
 <defs>
  <style type="text/css">*{stroke-linejoin: round; stroke-linecap: butt}</style>
 </defs>
 <g id="figure_1">
  <g id="patch_1">
   <path d="M 0 72 
L 864 72 
L 864 0 
L 0 0 
z
" style="fill: #8fff9f"/>
  </g>
  <g id="axes_1">
   <g id="patch_2">
    <path d="M 8.624855 27.009931 
Q 8.699834 27.347338 8.774814 28.265834 
Q 8.849793 29.184331 8.999752 29.634207 
L 8.924772 31.058814 
M 7.275228 27.309848 
Q 7.237738 27.309848 7.200248 27.534786 
Q 7.237738 27.684745 7.350207 28.828179 
Q 7.462676 29.971614 7.725103 30.533959 
" clip-path="url(#pc9b1d4709a)" style="fill: none; stroke: #000000; stroke-linejoin: miter"/>
   </g>
  </g>
  <g id="axes_2">
   <g id="patch_3">
    <path d="M 17.905263 29.067158 
Q 17.905263 29.067158 17.905263 31.420421 
Q 17.905263 36.502105 18.041684 38.070947 
Q 18.757895 45.744632 23.021053 45.744632 
Q 24.999158 45.744632 26.448632 44.107579 
Q 27.898105 42.470526 28.597263 39.980842 
Q 29.296421 37.491158 29.586316 35.376632 
Q 29.876211 33.262105 29.876211 31.522737 
Q 29.876211 31.522737 29.944421 30.738316 
Q 29.978526 31.318105 29.978526 34.592211 
Q 29.978526 34.626316 30.080842 44.209895 
L 30.694737 45.437684 
" clip-path="url(#pe50724c93a)" style="fill: none; stroke: #000000; stroke-linejoin: miter"/>
   </g>
  </g>
  <g id="axes_3">
   <g id="patch_4">
    <path d="M 37.013462 35.932469 
Q 37.613297 35.257655 38.606772 34.826524 
Q 39.600248 34.395393 40.5 34.470372 
Q 41.137324 34.470372 41.62469 34.639076 
Q 42.112055 34.807779 42.430717 34.995228 
Q 42.749379 35.182676 42.974317 35.670041 
Q 43.199255 36.157407 43.311724 36.419834 
Q 43.424193 36.682262 43.480428 37.375821 
Q 43.536662 38.069379 43.555407 38.331807 
Q 43.574152 38.594234 43.555407 39.419007 
Q 43.536662 40.243779 43.536662 40.431228 
Q 43.536662 41.368469 43.367959 43.242952 
Q 43.199255 45.117434 43.199255 46.054676 
Q 43.199255 46.467062 43.25549 46.823214 
Q 43.311724 47.179366 43.405448 47.610497 
Q 43.499172 48.041628 43.536662 48.304055 
L 43.986538 48.528993 
M 37.463338 23.111007 
Q 37.688276 24.798041 37.688276 29.971614 
L 37.688276 42.3432 
L 37.350869 46.841959 
L 37.125931 47.74171 
" clip-path="url(#pec28437367)" style="fill: none; stroke: #000000; stroke-linejoin: miter"/>
   </g>
  </g>
  <g id="axes_4"/>
  <g id="axes_5">
   <g id="patch_5">
    <path d="M 69.413462 35.932469 
Q 70.013297 35.257655 71.006772 34.826524 
Q 72.000248 34.395393 72.9 34.470372 
Q 73.537324 34.470372 74.02469 34.639076 
Q 74.512055 34.807779 74.830717 34.995228 
Q 75.149379 35.182676 75.374317 35.670041 
Q 75.599255 36.157407 75.711724 36.419834 
Q 75.824193 36.682262 75.880428 37.375821 
Q 75.936662 38.069379 75.955407 38.331807 
Q 75.974152 38.594234 75.955407 39.419007 
Q 75.936662 40.243779 75.936662 40.431228 
Q 75.936662 41.368469 75.767959 43.242952 
Q 75.599255 45.117434 75.599255 46.054676 
Q 75.599255 46.467062 75.65549 46.823214 
Q 75.711724 47.179366 75.805448 47.610497 
Q 75.899172 48.041628 75.936662 48.304055 
L 76.386538 48.528993 
M 69.863338 23.111007 
Q 70.088276 24.798041 70.088276 29.971614 
L 70.088276 42.3432 
L 69.750869 46.841959 
L 69.525931 47.74171 
" clip-path="url(#p2ab51465c5)" style="fill: none; stroke: #000000; stroke-linejoin: miter"/>
   </g>
  </g>
  <g id="axes_6">
   <g id="patch_6">
    <path d="M 84.488772 35.145186 
Q 84.488772 35.145186 84.488772 35.595062 
Q 84.488772 36.269876 84.376303 37.619503 
Q 84.263834 38.969131 84.263834 39.643945 
Q 84.263834 41.930814 85.500993 43.599103 
Q 86.738152 45.267393 88.875062 45.267393 
Q 90.262179 45.154924 91.030717 43.917766 
Q 91.799255 42.680607 91.949214 41.237255 
Q 92.099172 39.793903 92.3616 37.9944 
Q 92.624028 36.194897 93.036414 35.370124 
Q 93.186372 35.070207 93.186372 35.670041 
Q 93.186372 36.269876 92.923945 38.706703 
Q 92.699007 41.031062 92.699007 41.555917 
Q 92.549048 42.643117 92.886455 43.767807 
Q 93.223862 44.892497 93.936166 45.6048 
" clip-path="url(#pfb3f9ec448)" style="fill: none; stroke: #000000; stroke-linejoin: miter"/>
   </g>
  </g>
  <g id="axes_7">
   <g id="patch_7">
    <path d="M 101.813462 35.932469 
Q 102.413297 35.257655 103.406772 34.826524 
Q 104.400248 34.395393 105.3 34.470372 
Q 105.937324 34.470372 106.42469 34.639076 
Q 106.912055 34.807779 107.230717 34.995228 
Q 107.549379 35.182676 107.774317 35.670041 
Q 107.999255 36.157407 108.111724 36.419834 
Q 108.224193 36.682262 108.280428 37.375821 
Q 108.336662 38.069379 108.355407 38.331807 
Q 108.374152 38.594234 108.355407 39.419007 
Q 108.336662 40.243779 108.336662 40.431228 
Q 108.336662 41.368469 108.167959 43.242952 
Q 107.999255 45.117434 107.999255 46.054676 
Q 107.999255 46.467062 108.05549 46.823214 
Q 108.111724 47.179366 108.205448 47.610497 
Q 108.299172 48.041628 108.336662 48.304055 
L 108.786538 48.528993 
M 102.263338 23.111007 
Q 102.488276 24.798041 102.488276 29.971614 
L 102.488276 42.3432 
L 102.150869 46.841959 
L 101.925931 47.74171 
" clip-path="url(#ped8b8cd402)" style="fill: none; stroke: #000000; stroke-linejoin: miter"/>
   </g>
  </g>
  <g id="axes_8">
   <g id="patch_8">
    <path d="M 120.787697 39.981352 
Q 121.799917 40.956083 122.137324 42.905545 
Q 122.324772 43.955255 121.912386 46.167145 
L 120.675228 47.629241 
" clip-path="url(#pfac8b522f6)" style="fill: none; stroke: #000000; stroke-linejoin: miter"/>
   </g>
  </g>
  <g id="axes_9">
   <g id="patch_9">
    <path d="M 138.224855 27.009931 
Q 138.299834 27.347338 138.374814 28.265834 
Q 138.449793 29.184331 138.599752 29.634207 
L 138.524772 31.058814 
M 136.875228 27.309848 
Q 136.837738 27.309848 136.800248 27.534786 
Q 136.837738 27.684745 136.950207 28.828179 
Q 137.062676 29.971614 137.325103 30.533959 
" clip-path="url(#pbadf1872d1)" style="fill: none; stroke: #000000; stroke-linejoin: miter"/>
   </g>
  </g>
  <g id="axes_10"/>
  <g id="axes_11">
   <g id="patch_10">
    <path d="M 165.657476 43.917766 
Q 165.957393 44.180193 166.969614 45.154924 
Q 167.981834 46.129655 168.544179 46.560786 
Q 169.106524 46.991917 170.13749 47.385559 
Q 171.168455 47.7792 172.180676 47.629241 
Q 172.85549 47.629241 173.32411 47.404303 
Q 173.792731 47.179366 174.017669 46.879448 
Q 174.242607 46.579531 174.373821 45.979697 
Q 174.505034 45.379862 174.523779 44.967476 
Q 174.542524 44.55509 174.542524 43.805297 
Q 174.542524 42.718097 173.642772 42.043283 
Q 172.743021 41.368469 171.449628 41.031062 
Q 170.156234 40.693655 168.862841 40.300014 
Q 167.569448 39.906372 166.669697 38.987876 
Q 165.769945 38.069379 165.769945 36.607283 
Q 165.769945 36.082428 165.938648 35.726276 
Q 166.107352 35.370124 166.500993 35.145186 
Q 166.894634 34.920248 167.175807 34.807779 
Q 167.456979 34.69531 168.113048 34.639076 
Q 168.769117 34.582841 168.956566 34.582841 
Q 169.144014 34.582841 169.818828 34.582841 
Q 171.018497 34.582841 171.599586 34.995228 
Q 172.180676 35.407614 172.499338 36.026193 
Q 172.818 36.644772 173.080428 36.832221 
" clip-path="url(#p67c4b35c46)" style="fill: none; stroke: #000000; stroke-linejoin: miter"/>
   </g>
  </g>
  <g id="axes_12">
   <g id="patch_11">
    <path d="M 191.843923 36.441748 
Q 190.634968 35.094627 186.662687 35.094627 
Q 185.142857 35.094627 184.365672 35.146439 
Q 183.588486 35.198252 182.58678 35.440043 
Q 181.585075 35.681834 181.101493 36.182687 
Q 180.61791 36.683539 180.272495 37.616162 
Q 179.927079 38.548785 179.927079 39.964989 
Q 179.927079 42.037484 181.343284 43.280981 
Q 182.759488 44.524478 184.693817 44.524478 
Q 187.353518 44.524478 190.116844 38.721493 
Q 191.463966 35.854542 191.463966 35.82 
Q 191.809382 35.578209 191.843923 36.441748 
Q 191.843923 37.512537 192.258422 40.362217 
Q 192.672921 43.211898 192.672921 44.524478 
" clip-path="url(#p4260cde766)" style="fill: none; stroke: #000000; stroke-linejoin: miter"/>
   </g>
  </g>
  <g id="axes_13">
   <g id="patch_12">
    <path d="M 197.363917 36.382345 
Q 197.326428 36.494814 197.457641 36.701007 
Q 197.588855 36.9072 197.476386 37.057159 
L 197.476386 39.306538 
Q 197.476386 40.506207 197.813793 41.724621 
Q 198.1512 42.943034 199.013462 43.93651 
Q 199.875724 44.929986 201.075393 44.929986 
Q 202.312552 44.929986 202.987366 43.861531 
Q 203.662179 42.793076 204.112055 41.143531 
Q 204.561931 39.493986 204.899338 38.969131 
L 205.686621 36.382345 
L 205.461683 42.680607 
L 205.461683 45.154924 
Q 205.461683 47.066897 206.192731 51.00331 
Q 206.923779 54.939724 206.923779 56.964166 
Q 207.673572 59.213545 206.586372 60.188276 
Q 205.499172 61.163007 203.437241 60.78811 
Q 201.637738 60.488193 200.719241 60.169531 
Q 199.800745 59.850869 197.813793 58.988607 
L 197.701324 58.426262 
" clip-path="url(#peff5641a8a)" style="fill: none; stroke: #000000; stroke-linejoin: miter"/>
   </g>
  </g>
  <g id="axes_14">
   <g id="patch_13">
    <path d="M 214.257476 43.917766 
Q 214.557393 44.180193 215.569614 45.154924 
Q 216.581834 46.129655 217.144179 46.560786 
Q 217.706524 46.991917 218.73749 47.385559 
Q 219.768455 47.7792 220.780676 47.629241 
Q 221.45549 47.629241 221.92411 47.404303 
Q 222.392731 47.179366 222.617669 46.879448 
Q 222.842607 46.579531 222.973821 45.979697 
Q 223.105034 45.379862 223.123779 44.967476 
Q 223.142524 44.55509 223.142524 43.805297 
Q 223.142524 42.718097 222.242772 42.043283 
Q 221.343021 41.368469 220.049628 41.031062 
Q 218.756234 40.693655 217.462841 40.300014 
Q 216.169448 39.906372 215.269697 38.987876 
Q 214.369945 38.069379 214.369945 36.607283 
Q 214.369945 36.082428 214.538648 35.726276 
Q 214.707352 35.370124 215.100993 35.145186 
Q 215.494634 34.920248 215.775807 34.807779 
Q 216.056979 34.69531 216.713048 34.639076 
Q 217.369117 34.582841 217.556566 34.582841 
Q 217.744014 34.582841 218.418828 34.582841 
Q 219.618497 34.582841 220.199586 34.995228 
Q 220.780676 35.407614 221.099338 36.026193 
Q 221.418 36.644772 221.680428 36.832221 
" clip-path="url(#p6b00eca585)" style="fill: none; stroke: #000000; stroke-linejoin: miter"/>
   </g>
  </g>
  <g id="axes_15"/>
  <g id="axes_16">
   <g id="patch_14">
    <path d="M 245.048638 35.788482 
L 245.237743 35.788482 
Q 246.120233 35.788482 247.885214 35.69393 
Q 249.650195 35.599377 250.532685 35.599377 
Q 252.077043 35.599377 253.274708 35.835759 
Q 254.472374 36.07214 255.496693 36.655214 
Q 256.521012 37.238288 257.072568 38.35716 
Q 257.624125 39.476031 257.624125 41.083424 
Q 257.624125 46.567471 247.507004 46.567471 
Q 247.475486 46.567471 245.615953 46.283813 
L 245.048638 46.000156 
M 245.048638 27.562412 
Q 246.687549 26.679922 248.641634 26.71144 
Q 250.910895 26.71144 252.943774 28.035175 
Q 254.976654 29.358911 254.976654 31.533619 
Q 254.976654 32.825837 254.425097 33.582257 
Q 253.873541 34.338677 253.148638 34.527782 
Q 252.423735 34.716887 251.430934 35.06358 
Q 250.438132 35.410272 249.870817 35.883035 
L 245.048638 35.788482 
M 244.575875 27.656965 
Q 244.796498 28.949183 244.733463 32.494903 
Q 244.670428 36.040623 245.237743 37.301323 
Q 245.237743 38.309883 245.190467 40.358521 
Q 245.143191 42.40716 245.143191 43.447237 
L 245.143191 45.243735 
L 244.954086 46.000156 
" clip-path="url(#pc1758e6b7b)" style="fill: none; stroke: #000000; stroke-linejoin: miter"/>
   </g>
  </g>
  <g id="axes_17">
   <g id="patch_15">
    <path d="M 262.688772 35.145186 
Q 262.688772 35.145186 262.688772 35.595062 
Q 262.688772 36.269876 262.576303 37.619503 
Q 262.463834 38.969131 262.463834 39.643945 
Q 262.463834 41.930814 263.700993 43.599103 
Q 264.938152 45.267393 267.075062 45.267393 
Q 268.462179 45.154924 269.230717 43.917766 
Q 269.999255 42.680607 270.149214 41.237255 
Q 270.299172 39.793903 270.5616 37.9944 
Q 270.824028 36.194897 271.236414 35.370124 
Q 271.386372 35.070207 271.386372 35.670041 
Q 271.386372 36.269876 271.123945 38.706703 
Q 270.899007 41.031062 270.899007 41.555917 
Q 270.749048 42.643117 271.086455 43.767807 
Q 271.423862 44.892497 272.136166 45.6048 
" clip-path="url(#p588e845db1)" style="fill: none; stroke: #000000; stroke-linejoin: miter"/>
   </g>
  </g>
  <g id="axes_18">
   <g id="patch_16">
    <path d="M 280.013462 32.783338 
Q 280.538317 34.507862 280.669531 36.457324 
Q 280.800745 38.406786 280.725766 40.956083 
Q 280.650786 43.505379 280.688276 44.705048 
L 280.800745 46.054676 
L 280.800745 45.829738 
Q 280.800745 44.667559 280.519572 42.30571 
Q 280.2384 39.943862 280.2384 38.744193 
Q 280.2384 36.419834 281.250621 34.882759 
Q 282.262841 33.345683 284.287283 33.345683 
Q 284.999586 33.345683 285.336993 33.626855 
Q 285.6744 33.908028 285.936828 34.432883 
Q 286.199255 34.957738 286.536662 35.257655 
L 286.986538 36.832221 
" clip-path="url(#pbf0be5388b)" style="fill: none; stroke: #000000; stroke-linejoin: miter"/>
   </g>
  </g>
  <g id="axes_19">
   <g id="patch_17">
    <path d="M 294.863834 37.95691 
L 295.538648 37.95691 
Q 296.250952 37.95691 297.038234 37.881931 
Q 297.825517 37.806952 298.781503 37.675738 
Q 299.73749 37.544524 300.262345 37.507034 
L 304.536166 35.82 
M 300.487283 30.42149 
L 300.487283 31.43371 
Q 300.487283 33.383172 299.812469 37.207117 
Q 299.137655 41.031062 299.137655 43.018014 
Q 299.137655 43.805297 299.137655 44.105214 
Q 299.137655 44.405131 299.231379 45.042455 
Q 299.325103 45.679779 299.512552 45.960952 
Q 299.7 46.242124 300.093641 46.485807 
Q 300.487283 46.72949 301.049628 46.72949 
Q 301.162097 46.692 301.480759 46.72949 
Q 301.799421 46.766979 301.986869 46.710745 
Q 302.174317 46.65451 302.174317 46.392083 
" clip-path="url(#p959a176d7f)" style="fill: none; stroke: #000000; stroke-linejoin: miter"/>
   </g>
  </g>
  <g id="axes_20">
   <g id="patch_18">
    <path d="M 315.187697 39.981352 
Q 316.199917 40.956083 316.537324 42.905545 
Q 316.724772 43.955255 316.312386 46.167145 
L 315.075228 47.629241 
" clip-path="url(#p0b838e877b)" style="fill: none; stroke: #000000; stroke-linejoin: miter"/>
   </g>
  </g>
  <g id="axes_21"/>
  <g id="axes_22">
   <g id="patch_19">
    <path d="M 341.984141 38.85304 
L 342.412335 38.85304 
Q 343.23304 38.85304 344.196476 38.745991 
Q 345.159912 38.638943 346.319604 38.460529 
Q 347.479295 38.282115 348.085903 38.210749 
L 354.615859 35.427489 
M 354.294714 25.793128 
Q 354.009251 25.721762 352.974449 25.275727 
Q 351.939648 24.829692 351.297357 24.93674 
Q 350.655066 24.93674 350.137665 25.150837 
Q 349.620264 25.364934 349.281278 25.793128 
Q 348.942291 26.221322 348.67467 26.685198 
Q 348.407048 27.149075 348.264317 27.862731 
Q 348.121586 28.576388 348.014537 29.129471 
Q 347.907489 29.682555 347.889648 30.50326 
Q 347.871806 31.323965 347.853965 31.77 
Q 347.836123 32.216035 347.853965 32.965374 
Q 347.871806 33.714714 347.871806 33.928811 
Q 347.871806 36.605022 348.567621 41.850396 
Q 349.263436 47.095771 349.263436 49.771982 
Q 349.19207 50.057445 349.156388 50.681894 
Q 349.120705 51.306344 349.013656 51.805903 
Q 348.906608 52.305463 348.621145 52.555242 
" clip-path="url(#p68ac110a62)" style="fill: none; stroke: #000000; stroke-linejoin: miter"/>
   </g>
  </g>
  <g id="axes_23">
   <g id="patch_20">
    <path d="M 364.106359 28.621986 
Q 364.331297 30.34651 364.406276 32.146014 
Q 364.481255 33.945517 364.46251 36.551048 
Q 364.443766 39.156579 364.443766 40.093821 
Q 364.443766 40.13131 364.668703 45.829738 
L 364.893641 46.841959 
" clip-path="url(#pb1cba04ccd)" style="fill: none; stroke: #000000; stroke-linejoin: miter"/>
   </g>
  </g>
  <g id="axes_24">
   <g id="patch_21">
    <path d="M 381.318579 29.071862 
Q 380.943683 29.146841 380.812469 29.577972 
Q 380.681255 30.009103 380.756234 30.42149 
Q 380.756234 30.571448 380.793724 30.702662 
Q 380.831214 30.833876 380.887448 30.89011 
Q 380.943683 30.946345 380.999917 31.040069 
Q 381.056152 31.133793 381.093641 31.208772 
L 381.20611 29.859145 
M 381.20611 34.020497 
Q 380.306359 39.006621 380.081421 42.793076 
L 380.531297 45.379862 
L 380.868703 46.054676 
" clip-path="url(#p350a82e3d8)" style="fill: none; stroke: #000000; stroke-linejoin: miter"/>
   </g>
  </g>
  <g id="axes_25">
   <g id="patch_22">
    <path d="M 402.156735 34.365306 
Q 402.156735 34.365306 401.660816 34.365306 
Q 400.867347 34.365306 399.379592 34.067755 
Q 397.891837 33.770204 397.098367 33.770204 
Q 394.321224 33.770204 392.387143 35.224898 
Q 390.453061 36.679592 390.453061 39.423673 
Q 390.453061 40.94449 391.940816 42.399184 
Q 393.428571 43.853878 395.362653 44.663878 
Q 397.296735 45.473878 398.78449 45.473878 
Q 399.710204 45.473878 400.40449 45.110204 
Q 401.098776 44.746531 401.842653 44.118367 
Q 402.586531 43.490204 403.148571 43.192653 
L 403.346939 42.696735 
" clip-path="url(#p9e931fb170)" style="fill: none; stroke: #000000; stroke-linejoin: miter"/>
   </g>
  </g>
  <g id="axes_26">
   <g id="patch_23">
    <path d="M 411.131793 37.169628 
Q 413.156234 39.194069 414.918248 41.76211 
Q 416.680262 44.330152 417.542524 46.72949 
M 414.168455 31.321241 
L 414.168455 31.546179 
Q 414.168455 32.333462 413.531131 33.514386 
Q 412.893807 34.69531 411.919076 36.101172 
Q 410.944345 37.507034 410.681917 37.95691 
L 409.444759 39.643945 
M 408.657476 26.710014 
Q 410.494469 36.269876 410.681917 48.641462 
" clip-path="url(#p12c68b1211)" style="fill: none; stroke: #000000; stroke-linejoin: miter"/>
   </g>
  </g>
  <g id="axes_27">
   <g id="patch_24">
    <path d="M 429.918579 29.071862 
Q 429.543683 29.146841 429.412469 29.577972 
Q 429.281255 30.009103 429.356234 30.42149 
Q 429.356234 30.571448 429.393724 30.702662 
Q 429.431214 30.833876 429.487448 30.89011 
Q 429.543683 30.946345 429.599917 31.040069 
Q 429.656152 31.133793 429.693641 31.208772 
L 429.80611 29.859145 
M 429.80611 34.020497 
Q 428.906359 39.006621 428.681421 42.793076 
L 429.131297 45.379862 
L 429.468703 46.054676 
" clip-path="url(#p1f72722cf9)" style="fill: none; stroke: #000000; stroke-linejoin: miter"/>
   </g>
  </g>
  <g id="axes_28">
   <g id="patch_25">
    <path d="M 441.038731 37.282097 
L 441.038731 37.844441 
Q 441.301159 39.868883 441.338648 41.312234 
Q 441.376138 42.755586 441.282414 44.667559 
Q 441.18869 46.579531 441.18869 48.191586 
L 441.263669 39.643945 
Q 441.263669 38.144359 442.856979 37.507034 
Q 444.45029 36.86971 445.874897 37.282097 
Q 447.786869 37.844441 448.705366 39.04411 
Q 449.623862 40.243779 449.680097 41.668386 
Q 449.736331 43.092993 449.773821 44.817517 
Q 449.81131 46.542041 449.961269 48.191586 
" clip-path="url(#p1856ebd05c)" style="fill: none; stroke: #000000; stroke-linejoin: miter"/>
   </g>
  </g>
  <g id="axes_29">
   <g id="patch_26">
    <path d="M 466.487191 39.096404 
Q 466.23236 39.023596 465.26764 38.623146 
Q 464.302921 38.222697 463.64764 38.077079 
Q 462.99236 37.931461 462.337079 38.00427 
Q 459.715955 38.00427 458.077753 40.388764 
Q 456.439551 42.773258 456.439551 45.430787 
Q 456.439551 47.068989 461.681798 47.068989 
Q 463.247191 47.068989 464.575955 45.558202 
Q 465.904719 44.047416 466.578202 42.172584 
Q 467.251685 40.297753 467.251685 38.768764 
Q 467.251685 37.27618 467.215281 36.984944 
L 467.142472 38.077079 
Q 467.142472 38.550337 467.142472 38.987191 
Q 467.178876 40.188539 467.379101 42.281798 
Q 467.579326 44.375056 467.743146 46.049663 
Q 467.906966 47.72427 467.943371 49.872135 
Q 467.979775 52.02 467.815955 53.658202 
Q 467.652135 55.296404 467.087865 56.971011 
Q 466.523596 58.645618 465.595281 59.737753 
Q 464.666966 60.829888 463.065169 61.521573 
Q 461.463371 62.213258 459.315506 62.213258 
Q 457.677303 62.213258 456.585169 61.466966 
Q 455.493034 60.720674 455.493034 59.155281 
Q 455.420225 58.936854 455.456629 58.936854 
Q 455.493034 58.936854 455.602247 58.936854 
Q 455.711461 58.936854 455.711461 58.82764 
" clip-path="url(#pb74daf6f2e)" style="fill: none; stroke: #000000; stroke-linejoin: miter"/>
   </g>
  </g>
  <g id="axes_30"/>
  <g id="axes_31">
   <g id="patch_27">
    <path d="M 497.3616 35.032717 
Q 496.31189 34.582841 495.337159 34.69531 
Q 492.300497 35.032717 490.388524 36.701007 
Q 488.476552 38.369297 488.476552 41.330979 
Q 488.476552 43.917766 490.482248 45.6048 
Q 492.487945 47.291834 495.112221 47.291834 
Q 497.474069 47.291834 498.598759 45.361117 
Q 499.723448 43.4304 499.723448 40.881103 
Q 499.723448 39.643945 499.311062 38.706703 
Q 498.898676 37.769462 498.373821 37.300841 
Q 497.848966 36.832221 497.099172 36.119917 
Q 496.349379 35.407614 495.899503 34.69531 
L 494.662345 34.245434 
" clip-path="url(#pbb065da558)" style="fill: none; stroke: #000000; stroke-linejoin: miter"/>
   </g>
  </g>
  <g id="axes_32">
   <g id="patch_28">
    <path d="M 505.838731 37.282097 
L 505.838731 37.844441 
Q 506.101159 39.868883 506.138648 41.312234 
Q 506.176138 42.755586 506.082414 44.667559 
Q 505.98869 46.579531 505.98869 48.191586 
L 506.063669 39.643945 
Q 506.063669 38.144359 507.656979 37.507034 
Q 509.25029 36.86971 510.674897 37.282097 
Q 512.586869 37.844441 513.505366 39.04411 
Q 514.423862 40.243779 514.480097 41.668386 
Q 514.536331 43.092993 514.573821 44.817517 
Q 514.61131 46.542041 514.761269 48.191586 
" clip-path="url(#p4cbe4ca1bd)" style="fill: none; stroke: #000000; stroke-linejoin: miter"/>
   </g>
  </g>
  <g id="axes_33"/>
  <g id="axes_34">
   <g id="patch_29">
    <path d="M 537.863834 37.95691 
L 538.538648 37.95691 
Q 539.250952 37.95691 540.038234 37.881931 
Q 540.825517 37.806952 541.781503 37.675738 
Q 542.73749 37.544524 543.262345 37.507034 
L 547.536166 35.82 
M 543.487283 30.42149 
L 543.487283 31.43371 
Q 543.487283 33.383172 542.812469 37.207117 
Q 542.137655 41.031062 542.137655 43.018014 
Q 542.137655 43.805297 542.137655 44.105214 
Q 542.137655 44.405131 542.231379 45.042455 
Q 542.325103 45.679779 542.512552 45.960952 
Q 542.7 46.242124 543.093641 46.485807 
Q 543.487283 46.72949 544.049628 46.72949 
Q 544.162097 46.692 544.480759 46.72949 
Q 544.799421 46.766979 544.986869 46.710745 
Q 545.174317 46.65451 545.174317 46.392083 
" clip-path="url(#p52f38a0a50)" style="fill: none; stroke: #000000; stroke-linejoin: miter"/>
   </g>
  </g>
  <g id="axes_35">
   <g id="patch_30">
    <path d="M 555.413462 35.932469 
Q 556.013297 35.257655 557.006772 34.826524 
Q 558.000248 34.395393 558.9 34.470372 
Q 559.537324 34.470372 560.02469 34.639076 
Q 560.512055 34.807779 560.830717 34.995228 
Q 561.149379 35.182676 561.374317 35.670041 
Q 561.599255 36.157407 561.711724 36.419834 
Q 561.824193 36.682262 561.880428 37.375821 
Q 561.936662 38.069379 561.955407 38.331807 
Q 561.974152 38.594234 561.955407 39.419007 
Q 561.936662 40.243779 561.936662 40.431228 
Q 561.936662 41.368469 561.767959 43.242952 
Q 561.599255 45.117434 561.599255 46.054676 
Q 561.599255 46.467062 561.65549 46.823214 
Q 561.711724 47.179366 561.805448 47.610497 
Q 561.899172 48.041628 561.936662 48.304055 
L 562.386538 48.528993 
M 555.863338 23.111007 
Q 556.088276 24.798041 556.088276 29.971614 
L 556.088276 42.3432 
L 555.750869 46.841959 
L 555.525931 47.74171 
" clip-path="url(#paf68ce6e01)" style="fill: none; stroke: #000000; stroke-linejoin: miter"/>
   </g>
  </g>
  <g id="axes_36">
   <g id="patch_31">
    <path d="M 568.857798 38.160826 
Q 571.830275 39.535596 576.549083 39.721376 
Q 578.072477 39.721376 578.759862 38.550963 
Q 579.447248 37.38055 579.447248 35.82 
Q 579.447248 35.299817 579.354358 34.909679 
Q 579.261468 34.519541 579.019954 34.296606 
Q 578.77844 34.07367 578.611239 33.943624 
Q 578.444037 33.813578 577.998165 33.757844 
Q 577.552294 33.70211 577.347936 33.683532 
Q 577.143578 33.664954 576.567661 33.683532 
Q 575.991743 33.70211 575.768807 33.70211 
Q 573.725229 33.70211 572.238991 35.578486 
Q 570.752752 37.454862 570.752752 39.609908 
Q 570.752752 42.619541 572.684862 44.570229 
Q 574.616972 46.520917 577.663761 46.520917 
Q 579.818807 46.818165 581.342202 44.29156 
" clip-path="url(#ped4c8273bf)" style="fill: none; stroke: #000000; stroke-linejoin: miter"/>
   </g>
  </g>
  <g id="axes_37"/>
  <g id="axes_38">
   <g id="patch_32">
    <path d="M 603.957228 37.244607 
Q 605.006938 37.207117 605.194386 37.132138 
Q 608.605945 37.132138 610.386703 39.212814 
Q 612.167462 41.29349 612.167462 44.780028 
Q 612.167462 47.704221 607.556234 47.704221 
Q 606.91891 47.704221 606.37531 47.591752 
Q 605.83171 47.479283 605.194386 47.254345 
Q 604.557062 47.029407 604.069697 46.916938 
L 602.832538 45.679779 
M 603.844759 25.435366 
L 603.844759 26.560055 
Q 603.844759 29.409269 603.957228 33.008276 
Q 604.069697 36.607283 604.257145 40.899848 
Q 604.444593 45.192414 604.519572 47.141876 
" clip-path="url(#p089d00d4f9)" style="fill: none; stroke: #000000; stroke-linejoin: miter"/>
   </g>
  </g>
  <g id="axes_39">
   <g id="patch_33">
    <path d="M 623.306359 28.621986 
Q 623.531297 30.34651 623.606276 32.146014 
Q 623.681255 33.945517 623.66251 36.551048 
Q 623.643766 39.156579 623.643766 40.093821 
Q 623.643766 40.13131 623.868703 45.829738 
L 624.093641 46.841959 
" clip-path="url(#p7d08d9d2b0)" style="fill: none; stroke: #000000; stroke-linejoin: miter"/>
   </g>
  </g>
  <g id="axes_40">
   <g id="patch_34">
    <path d="M 640.518579 29.071862 
Q 640.143683 29.146841 640.012469 29.577972 
Q 639.881255 30.009103 639.956234 30.42149 
Q 639.956234 30.571448 639.993724 30.702662 
Q 640.031214 30.833876 640.087448 30.89011 
Q 640.143683 30.946345 640.199917 31.040069 
Q 640.256152 31.133793 640.293641 31.208772 
L 640.40611 29.859145 
M 640.40611 34.020497 
Q 639.506359 39.006621 639.281421 42.793076 
L 639.731297 45.379862 
L 640.068703 46.054676 
" clip-path="url(#pe0b6fe727e)" style="fill: none; stroke: #000000; stroke-linejoin: miter"/>
   </g>
  </g>
  <g id="axes_41">
   <g id="patch_35">
    <path d="M 651.638731 37.282097 
L 651.638731 37.844441 
Q 651.901159 39.868883 651.938648 41.312234 
Q 651.976138 42.755586 651.882414 44.667559 
Q 651.78869 46.579531 651.78869 48.191586 
L 651.863669 39.643945 
Q 651.863669 38.144359 653.456979 37.507034 
Q 655.05029 36.86971 656.474897 37.282097 
Q 658.386869 37.844441 659.305366 39.04411 
Q 660.223862 40.243779 660.280097 41.668386 
Q 660.336331 43.092993 660.373821 44.817517 
Q 660.41131 46.542041 660.561269 48.191586 
" clip-path="url(#pc39b66d606)" style="fill: none; stroke: #000000; stroke-linejoin: miter"/>
   </g>
  </g>
  <g id="axes_42">
   <g id="patch_36">
    <path d="M 670.331793 37.169628 
Q 672.356234 39.194069 674.118248 41.76211 
Q 675.880262 44.330152 676.742524 46.72949 
M 673.368455 31.321241 
L 673.368455 31.546179 
Q 673.368455 32.333462 672.731131 33.514386 
Q 672.093807 34.69531 671.119076 36.101172 
Q 670.144345 37.507034 669.881917 37.95691 
L 668.644759 39.643945 
M 667.857476 26.710014 
Q 669.694469 36.269876 669.881917 48.641462 
" clip-path="url(#pdc44fe38ab)" style="fill: none; stroke: #000000; stroke-linejoin: miter"/>
   </g>
  </g>
  <g id="axes_43">
   <g id="patch_37">
    <path d="M 682.257798 38.160826 
Q 685.230275 39.535596 689.949083 39.721376 
Q 691.472477 39.721376 692.159862 38.550963 
Q 692.847248 37.38055 692.847248 35.82 
Q 692.847248 35.299817 692.754358 34.909679 
Q 692.661468 34.519541 692.419954 34.296606 
Q 692.17844 34.07367 692.011239 33.943624 
Q 691.844037 33.813578 691.398165 33.757844 
Q 690.952294 33.70211 690.747936 33.683532 
Q 690.543578 33.664954 689.967661 33.683532 
Q 689.391743 33.70211 689.168807 33.70211 
Q 687.125229 33.70211 685.638991 35.578486 
Q 684.152752 37.454862 684.152752 39.609908 
Q 684.152752 42.619541 686.084862 44.570229 
Q 688.016972 46.520917 691.063761 46.520917 
Q 693.218807 46.818165 694.742202 44.29156 
" clip-path="url(#p973548d1f1)" style="fill: none; stroke: #000000; stroke-linejoin: miter"/>
   </g>
  </g>
  <g id="axes_44">
   <g id="patch_38">
    <path d="M 701.213462 32.783338 
Q 701.738317 34.507862 701.869531 36.457324 
Q 702.000745 38.406786 701.925766 40.956083 
Q 701.850786 43.505379 701.888276 44.705048 
L 702.000745 46.054676 
L 702.000745 45.829738 
Q 702.000745 44.667559 701.719572 42.30571 
Q 701.4384 39.943862 701.4384 38.744193 
Q 701.4384 36.419834 702.450621 34.882759 
Q 703.462841 33.345683 705.487283 33.345683 
Q 706.199586 33.345683 706.536993 33.626855 
Q 706.8744 33.908028 707.136828 34.432883 
Q 707.399255 34.957738 707.736662 35.257655 
L 708.186538 36.832221 
" clip-path="url(#peb93be24ee)" style="fill: none; stroke: #000000; stroke-linejoin: miter"/>
   </g>
  </g>
  <g id="axes_45"/>
  <g id="axes_46">
   <g id="patch_39">
    <path d="M 742.643923 36.441748 
Q 741.434968 35.094627 737.462687 35.094627 
Q 735.942857 35.094627 735.165672 35.146439 
Q 734.388486 35.198252 733.38678 35.440043 
Q 732.385075 35.681834 731.901493 36.182687 
Q 731.41791 36.683539 731.072495 37.616162 
Q 730.727079 38.548785 730.727079 39.964989 
Q 730.727079 42.037484 732.143284 43.280981 
Q 733.559488 44.524478 735.493817 44.524478 
Q 738.153518 44.524478 740.916844 38.721493 
Q 742.263966 35.854542 742.263966 35.82 
Q 742.609382 35.578209 742.643923 36.441748 
Q 742.643923 37.512537 743.058422 40.362217 
Q 743.472921 43.211898 743.472921 44.524478 
" clip-path="url(#p609b6cea62)" style="fill: none; stroke: #000000; stroke-linejoin: miter"/>
   </g>
  </g>
  <g id="axes_47">
   <g id="patch_40">
    <path d="M 748.838731 37.282097 
L 748.838731 37.844441 
Q 749.101159 39.868883 749.138648 41.312234 
Q 749.176138 42.755586 749.082414 44.667559 
Q 748.98869 46.579531 748.98869 48.191586 
L 749.063669 39.643945 
Q 749.063669 38.144359 750.656979 37.507034 
Q 752.25029 36.86971 753.674897 37.282097 
Q 755.586869 37.844441 756.505366 39.04411 
Q 757.423862 40.243779 757.480097 41.668386 
Q 757.536331 43.092993 757.573821 44.817517 
Q 757.61131 46.542041 757.761269 48.191586 
" clip-path="url(#p833431db57)" style="fill: none; stroke: #000000; stroke-linejoin: miter"/>
   </g>
  </g>
  <g id="axes_48">
   <g id="patch_41">
    <path d="M 773.099007 39.568966 
Q 771.749379 38.181848 769.5 38.444276 
Q 766.650786 38.444276 765.488607 39.793903 
Q 764.326428 41.143531 764.326428 44.067724 
Q 764.326428 45.56731 765.619821 46.279614 
Q 766.913214 46.991917 768.487779 46.991917 
Q 769.799917 46.991917 770.812138 45.736014 
Q 771.824359 44.48011 772.405448 42.30571 
Q 772.986538 40.13131 773.361434 37.938166 
Q 773.736331 35.745021 773.88629 33.045766 
Q 774.036248 30.34651 774.073738 28.978138 
Q 774.111228 27.609766 774.111228 26.185159 
Q 773.88629 26.260138 773.88629 29.896634 
L 773.88629 44.292662 
L 774.673572 48.229076 
" clip-path="url(#p0f9a5fe807)" style="fill: none; stroke: #000000; stroke-linejoin: miter"/>
   </g>
  </g>
 </g>
 <defs>
  <clipPath id="pc9b1d4709a">
   <rect x="5.325766" y="8.64" width="5.548469" height="54.36"/>
  </clipPath>
  <clipPath id="pe50724c93a">
   <rect x="16.2" y="11.093684" width="16.2" height="49.452632"/>
  </clipPath>
  <clipPath id="pec28437367">
   <rect x="35.138979" y="8.64" width="10.722041" height="54.36"/>
  </clipPath>
  <clipPath id="p2ab51465c5">
   <rect x="67.538979" y="8.64" width="10.722041" height="54.36"/>
  </clipPath>
  <clipPath id="pfb3f9ec448">
   <rect x="82.389352" y="8.64" width="13.421297" height="54.36"/>
  </clipPath>
  <clipPath id="ped8b8cd402">
   <rect x="99.938979" y="8.64" width="10.722041" height="54.36"/>
  </clipPath>
  <clipPath id="pfac8b522f6">
   <rect x="118.800745" y="8.64" width="5.39851" height="54.36"/>
  </clipPath>
  <clipPath id="pbadf1872d1">
   <rect x="134.925766" y="8.64" width="5.548469" height="54.36"/>
  </clipPath>
  <clipPath id="p67c4b35c46">
   <rect x="163.782993" y="8.64" width="12.634014" height="54.36"/>
  </clipPath>
  <clipPath id="p4260cde766">
   <rect x="178.2" y="10.777356" width="16.2" height="50.085288"/>
  </clipPath>
  <clipPath id="peff5641a8a">
   <rect x="195.451945" y="8.64" width="14.09611" height="54.36"/>
  </clipPath>
  <clipPath id="p6b00eca585">
   <rect x="212.382993" y="8.64" width="12.634014" height="54.36"/>
  </clipPath>
  <clipPath id="pc1758e6b7b">
   <rect x="243" y="12.969805" width="16.2" height="45.700389"/>
  </clipPath>
  <clipPath id="p588e845db1">
   <rect x="260.589352" y="8.64" width="13.421297" height="54.36"/>
  </clipPath>
  <clipPath id="pbf0be5388b">
   <rect x="278.138979" y="8.64" width="10.722041" height="54.36"/>
  </clipPath>
  <clipPath id="p959a176d7f">
   <rect x="292.989352" y="8.64" width="13.421297" height="54.36"/>
  </clipPath>
  <clipPath id="p0b838e877b">
   <rect x="313.200745" y="8.64" width="5.39851" height="54.36"/>
  </clipPath>
  <clipPath id="p68ac110a62">
   <rect x="340.2" y="9.949956" width="16.2" height="51.740088"/>
  </clipPath>
  <clipPath id="pb1cba04ccd">
   <rect x="362.231876" y="8.64" width="4.536248" height="54.36"/>
  </clipPath>
  <clipPath id="p350a82e3d8">
   <rect x="378.206938" y="8.64" width="4.986124" height="54.36"/>
  </clipPath>
  <clipPath id="p9e931fb170">
   <rect x="388.8" y="11.850612" width="16.2" height="47.938776"/>
  </clipPath>
  <clipPath id="p12c68b1211">
   <rect x="406.782993" y="8.64" width="12.634014" height="54.36"/>
  </clipPath>
  <clipPath id="p1f72722cf9">
   <rect x="426.806938" y="8.64" width="4.986124" height="54.36"/>
  </clipPath>
  <clipPath id="p1856ebd05c">
   <rect x="439.164248" y="8.64" width="12.671503" height="54.36"/>
  </clipPath>
  <clipPath id="pb74daf6f2e">
   <rect x="453.6" y="9.426742" width="16.2" height="52.786517"/>
  </clipPath>
  <clipPath id="pbb065da558">
   <rect x="486.602069" y="8.64" width="14.995862" height="54.36"/>
  </clipPath>
  <clipPath id="p4cbe4ca1bd">
   <rect x="503.964248" y="8.64" width="12.671503" height="54.36"/>
  </clipPath>
  <clipPath id="p52f38a0a50">
   <rect x="535.989352" y="8.64" width="13.421297" height="54.36"/>
  </clipPath>
  <clipPath id="paf68ce6e01">
   <rect x="553.538979" y="8.64" width="10.722041" height="54.36"/>
  </clipPath>
  <clipPath id="ped4c8273bf">
   <rect x="567" y="8.881927" width="16.2" height="53.876147"/>
  </clipPath>
  <clipPath id="p089d00d4f9">
   <rect x="600.958055" y="8.64" width="13.08389" height="54.36"/>
  </clipPath>
  <clipPath id="p7d08d9d2b0">
   <rect x="621.431876" y="8.64" width="4.536248" height="54.36"/>
  </clipPath>
  <clipPath id="pe0b6fe727e">
   <rect x="637.406938" y="8.64" width="4.986124" height="54.36"/>
  </clipPath>
  <clipPath id="pc39b66d606">
   <rect x="649.764248" y="8.64" width="12.671503" height="54.36"/>
  </clipPath>
  <clipPath id="pdc44fe38ab">
   <rect x="665.982993" y="8.64" width="12.634014" height="54.36"/>
  </clipPath>
  <clipPath id="p973548d1f1">
   <rect x="680.4" y="8.881927" width="16.2" height="53.876147"/>
  </clipPath>
  <clipPath id="peb93be24ee">
   <rect x="699.338979" y="8.64" width="10.722041" height="54.36"/>
  </clipPath>
  <clipPath id="p609b6cea62">
   <rect x="729" y="10.777356" width="16.2" height="50.085288"/>
  </clipPath>
  <clipPath id="p833431db57">
   <rect x="746.964248" y="8.64" width="12.671503" height="54.36"/>
  </clipPath>
  <clipPath id="p0f9a5fe807">
   <rect x="762.451945" y="8.64" width="14.09611" height="54.36"/>
  </clipPath>
 </defs>
</svg>
