<?xml version="1.0" encoding="utf-8" standalone="no"?>
<!DOCTYPE svg PUBLIC "-//W3C//DTD SVG 1.1//EN"
  "http://www.w3.org/Graphics/SVG/1.1/DTD/svg11.dtd">
<svg xmlns:xlink="http://www.w3.org/1999/xlink" width="828pt" height="72pt" viewBox="0 0 828 72" xmlns="http://www.w3.org/2000/svg" version="1.1">
 <metadata>
  <rdf:RDF xmlns:dc="http://purl.org/dc/elements/1.1/" xmlns:cc="http://creativecommons.org/ns#" xmlns:rdf="http://www.w3.org/1999/02/22-rdf-syntax-ns#">
   <cc:Work>
    <dc:type rdf:resource="http://purl.org/dc/dcmitype/StillImage"/>
    <dc:date>2023-12-21T11:48:03.851905</dc:date>
    <dc:format>image/svg+xml</dc:format>
    <dc:creator>
     <cc:Agent>
      <dc:title>Matplotlib v3.5.1, https://matplotlib.org/</dc:title>
     </cc:Agent>
    </dc:creator>
   </cc:Work>
  </rdf:RDF>
 </metadata>
 <defs>
  <style type="text/css">*{stroke-linejoin: round; stroke-linecap: butt}</style>
 </defs>
 <g id="figure_1">
  <g id="patch_1">
   <path d="M 0 72 
L 828 72 
L 828 0 
L 0 0 
z
" style="fill: #8fff9f"/>
  </g>
  <g id="axes_1">
   <g id="patch_2">
    <path d="M 1.539924 40.439772 
Q 6.436882 46.999848 11.980608 46.168289 
Q 13.304943 46.168289 13.98251 45.382928 
Q 14.660076 44.597567 14.660076 43.30403 
Q 14.660076 41.979696 14.028707 40.947947 
Q 13.397338 39.916198 12.396388 39.238631 
Q 11.395437 38.561065 10.194297 37.975894 
Q 8.993156 37.390722 7.776616 36.820951 
Q 6.560076 36.251179 5.559125 35.589011 
Q 4.558175 34.926844 3.926806 33.895095 
Q 3.295437 32.863346 3.295437 31.56981 
Q 3.295437 29.906692 5.774715 28.382167 
Q 8.253992 26.857643 10.040304 26.857643 
Q 11.118251 26.796046 11.672624 27.627605 
Q 12.226996 28.459163 12.211597 29.490913 
Q 12.196198 30.522662 12.165399 31.385019 
" clip-path="url(#p812b6ae657)" style="fill: none; stroke: #000000; stroke-linejoin: miter"/>
   </g>
  </g>
  <g id="axes_2">
   <g id="patch_3">
    <path d="M 19.463834 37.95691 
L 20.138648 37.95691 
Q 20.850952 37.95691 21.638234 37.881931 
Q 22.425517 37.806952 23.381503 37.675738 
Q 24.33749 37.544524 24.862345 37.507034 
L 29.136166 35.82 
M 25.087283 30.42149 
L 25.087283 31.43371 
Q 25.087283 33.383172 24.412469 37.207117 
Q 23.737655 41.031062 23.737655 43.018014 
Q 23.737655 43.805297 23.737655 44.105214 
Q 23.737655 44.405131 23.831379 45.042455 
Q 23.925103 45.679779 24.112552 45.960952 
Q 24.3 46.242124 24.693641 46.485807 
Q 25.087283 46.72949 25.649628 46.72949 
Q 25.762097 46.692 26.080759 46.72949 
Q 26.399421 46.766979 26.586869 46.710745 
Q 26.774317 46.65451 26.774317 46.392083 
" clip-path="url(#p560e1a60c3)" style="fill: none; stroke: #000000; stroke-linejoin: miter"/>
   </g>
  </g>
  <g id="axes_3">
   <g id="patch_4">
    <path d="M 41.118579 29.071862 
Q 40.743683 29.146841 40.612469 29.577972 
Q 40.481255 30.009103 40.556234 30.42149 
Q 40.556234 30.571448 40.593724 30.702662 
Q 40.631214 30.833876 40.687448 30.89011 
Q 40.743683 30.946345 40.799917 31.040069 
Q 40.856152 31.133793 40.893641 31.208772 
L 41.00611 29.859145 
M 41.00611 34.020497 
Q 40.106359 39.006621 39.881421 42.793076 
L 40.331297 45.379862 
L 40.668703 46.054676 
" clip-path="url(#p3a3cb66577)" style="fill: none; stroke: #000000; stroke-linejoin: miter"/>
   </g>
  </g>
  <g id="axes_4">
   <g id="patch_5">
    <path d="M 56.306359 28.621986 
Q 56.531297 30.34651 56.606276 32.146014 
Q 56.681255 33.945517 56.66251 36.551048 
Q 56.643766 39.156579 56.643766 40.093821 
Q 56.643766 40.13131 56.868703 45.829738 
L 57.093641 46.841959 
" clip-path="url(#pb500d46526)" style="fill: none; stroke: #000000; stroke-linejoin: miter"/>
   </g>
  </g>
  <g id="axes_5">
   <g id="patch_6">
    <path d="M 72.506359 28.621986 
Q 72.731297 30.34651 72.806276 32.146014 
Q 72.881255 33.945517 72.86251 36.551048 
Q 72.843766 39.156579 72.843766 40.093821 
Q 72.843766 40.13131 73.068703 45.829738 
L 73.293641 46.841959 
" clip-path="url(#p2d5c5df779)" style="fill: none; stroke: #000000; stroke-linejoin: miter"/>
   </g>
  </g>
  <g id="axes_6"/>
  <g id="axes_7">
   <g id="patch_7">
    <path d="M 100.463834 37.95691 
L 101.138648 37.95691 
Q 101.850952 37.95691 102.638234 37.881931 
Q 103.425517 37.806952 104.381503 37.675738 
Q 105.33749 37.544524 105.862345 37.507034 
L 110.136166 35.82 
M 106.087283 30.42149 
L 106.087283 31.43371 
Q 106.087283 33.383172 105.412469 37.207117 
Q 104.737655 41.031062 104.737655 43.018014 
Q 104.737655 43.805297 104.737655 44.105214 
Q 104.737655 44.405131 104.831379 45.042455 
Q 104.925103 45.679779 105.112552 45.960952 
Q 105.3 46.242124 105.693641 46.485807 
Q 106.087283 46.72949 106.649628 46.72949 
Q 106.762097 46.692 107.080759 46.72949 
Q 107.399421 46.766979 107.586869 46.710745 
Q 107.774317 46.65451 107.774317 46.392083 
" clip-path="url(#p5a075e391c)" style="fill: none; stroke: #000000; stroke-linejoin: miter"/>
   </g>
  </g>
  <g id="axes_8">
   <g id="patch_8">
    <path d="M 127.043923 36.441748 
Q 125.834968 35.094627 121.862687 35.094627 
Q 120.342857 35.094627 119.565672 35.146439 
Q 118.788486 35.198252 117.78678 35.440043 
Q 116.785075 35.681834 116.301493 36.182687 
Q 115.81791 36.683539 115.472495 37.616162 
Q 115.127079 38.548785 115.127079 39.964989 
Q 115.127079 42.037484 116.543284 43.280981 
Q 117.959488 44.524478 119.893817 44.524478 
Q 122.553518 44.524478 125.316844 38.721493 
Q 126.663966 35.854542 126.663966 35.82 
Q 127.009382 35.578209 127.043923 36.441748 
Q 127.043923 37.512537 127.458422 40.362217 
Q 127.872921 43.211898 127.872921 44.524478 
" clip-path="url(#pfe303af7a9)" style="fill: none; stroke: #000000; stroke-linejoin: miter"/>
   </g>
  </g>
  <g id="axes_9">
   <g id="patch_9">
    <path d="M 132.920069 39.868883 
L 132.920069 39.419007 
Q 132.920069 37.769462 134.663338 36.682262 
Q 136.406607 35.595062 138.093641 35.595062 
Q 140.305531 35.595062 141.673903 36.794731 
Q 143.042276 37.9944 143.042276 40.20629 
Q 143.042276 42.30571 141.224028 43.336676 
Q 139.405779 44.367641 137.19389 44.367641 
Q 136.519076 44.367641 136.012966 44.255172 
Q 135.506855 44.142703 134.888276 43.917766 
Q 134.269697 43.692828 133.819821 43.580359 
L 132.695131 42.568138 
M 132.357724 36.832221 
Q 132.8076 38.444276 133.070028 40.262524 
Q 133.332455 42.080772 133.38869 43.749062 
Q 133.444924 45.417352 133.482414 47.27309 
Q 133.519903 49.128828 133.482414 50.778372 
L 133.369945 57.863917 
" clip-path="url(#pbb82eb80c5)" style="fill: none; stroke: #000000; stroke-linejoin: miter"/>
   </g>
  </g>
  <g id="axes_10">
   <g id="patch_10">
    <path d="M 149.120069 39.868883 
L 149.120069 39.419007 
Q 149.120069 37.769462 150.863338 36.682262 
Q 152.606607 35.595062 154.293641 35.595062 
Q 156.505531 35.595062 157.873903 36.794731 
Q 159.242276 37.9944 159.242276 40.20629 
Q 159.242276 42.30571 157.424028 43.336676 
Q 155.605779 44.367641 153.39389 44.367641 
Q 152.719076 44.367641 152.212966 44.255172 
Q 151.706855 44.142703 151.088276 43.917766 
Q 150.469697 43.692828 150.019821 43.580359 
L 148.895131 42.568138 
M 148.557724 36.832221 
Q 149.0076 38.444276 149.270028 40.262524 
Q 149.532455 42.080772 149.58869 43.749062 
Q 149.644924 45.417352 149.682414 47.27309 
Q 149.719903 49.128828 149.682414 50.778372 
L 149.569945 57.863917 
" clip-path="url(#p1e94c42fc2)" style="fill: none; stroke: #000000; stroke-linejoin: miter"/>
   </g>
  </g>
  <g id="axes_11">
   <g id="patch_11">
    <path d="M 170.718579 29.071862 
Q 170.343683 29.146841 170.212469 29.577972 
Q 170.081255 30.009103 170.156234 30.42149 
Q 170.156234 30.571448 170.193724 30.702662 
Q 170.231214 30.833876 170.287448 30.89011 
Q 170.343683 30.946345 170.399917 31.040069 
Q 170.456152 31.133793 170.493641 31.208772 
L 170.60611 29.859145 
M 170.60611 34.020497 
Q 169.706359 39.006621 169.481421 42.793076 
L 169.931297 45.379862 
L 170.268703 46.054676 
" clip-path="url(#pbf35d2bb66)" style="fill: none; stroke: #000000; stroke-linejoin: miter"/>
   </g>
  </g>
  <g id="axes_12">
   <g id="patch_12">
    <path d="M 181.838731 37.282097 
L 181.838731 37.844441 
Q 182.101159 39.868883 182.138648 41.312234 
Q 182.176138 42.755586 182.082414 44.667559 
Q 181.98869 46.579531 181.98869 48.191586 
L 182.063669 39.643945 
Q 182.063669 38.144359 183.656979 37.507034 
Q 185.25029 36.86971 186.674897 37.282097 
Q 188.586869 37.844441 189.505366 39.04411 
Q 190.423862 40.243779 190.480097 41.668386 
Q 190.536331 43.092993 190.573821 44.817517 
Q 190.61131 46.542041 190.761269 48.191586 
" clip-path="url(#p0e2fd6bb9e)" style="fill: none; stroke: #000000; stroke-linejoin: miter"/>
   </g>
  </g>
  <g id="axes_13">
   <g id="patch_13">
    <path d="M 207.287191 39.096404 
Q 207.03236 39.023596 206.06764 38.623146 
Q 205.102921 38.222697 204.44764 38.077079 
Q 203.79236 37.931461 203.137079 38.00427 
Q 200.515955 38.00427 198.877753 40.388764 
Q 197.239551 42.773258 197.239551 45.430787 
Q 197.239551 47.068989 202.481798 47.068989 
Q 204.047191 47.068989 205.375955 45.558202 
Q 206.704719 44.047416 207.378202 42.172584 
Q 208.051685 40.297753 208.051685 38.768764 
Q 208.051685 37.27618 208.015281 36.984944 
L 207.942472 38.077079 
Q 207.942472 38.550337 207.942472 38.987191 
Q 207.978876 40.188539 208.179101 42.281798 
Q 208.379326 44.375056 208.543146 46.049663 
Q 208.706966 47.72427 208.743371 49.872135 
Q 208.779775 52.02 208.615955 53.658202 
Q 208.452135 55.296404 207.887865 56.971011 
Q 207.323596 58.645618 206.395281 59.737753 
Q 205.466966 60.829888 203.865169 61.521573 
Q 202.263371 62.213258 200.115506 62.213258 
Q 198.477303 62.213258 197.385169 61.466966 
Q 196.293034 60.720674 196.293034 59.155281 
Q 196.220225 58.936854 196.256629 58.936854 
Q 196.293034 58.936854 196.402247 58.936854 
Q 196.511461 58.936854 196.511461 58.82764 
" clip-path="url(#pda6771af1c)" style="fill: none; stroke: #000000; stroke-linejoin: miter"/>
   </g>
  </g>
  <g id="axes_14"/>
  <g id="axes_15">
   <g id="patch_14">
    <path d="M 231.413462 35.932469 
Q 232.013297 35.257655 233.006772 34.826524 
Q 234.000248 34.395393 234.9 34.470372 
Q 235.537324 34.470372 236.02469 34.639076 
Q 236.512055 34.807779 236.830717 34.995228 
Q 237.149379 35.182676 237.374317 35.670041 
Q 237.599255 36.157407 237.711724 36.419834 
Q 237.824193 36.682262 237.880428 37.375821 
Q 237.936662 38.069379 237.955407 38.331807 
Q 237.974152 38.594234 237.955407 39.419007 
Q 237.936662 40.243779 237.936662 40.431228 
Q 237.936662 41.368469 237.767959 43.242952 
Q 237.599255 45.117434 237.599255 46.054676 
Q 237.599255 46.467062 237.65549 46.823214 
Q 237.711724 47.179366 237.805448 47.610497 
Q 237.899172 48.041628 237.936662 48.304055 
L 238.386538 48.528993 
M 231.863338 23.111007 
Q 232.088276 24.798041 232.088276 29.971614 
L 232.088276 42.3432 
L 231.750869 46.841959 
L 231.525931 47.74171 
" clip-path="url(#p8fd27f5c89)" style="fill: none; stroke: #000000; stroke-linejoin: miter"/>
   </g>
  </g>
  <g id="axes_16">
   <g id="patch_15">
    <path d="M 251.718579 29.071862 
Q 251.343683 29.146841 251.212469 29.577972 
Q 251.081255 30.009103 251.156234 30.42149 
Q 251.156234 30.571448 251.193724 30.702662 
Q 251.231214 30.833876 251.287448 30.89011 
Q 251.343683 30.946345 251.399917 31.040069 
Q 251.456152 31.133793 251.493641 31.208772 
L 251.60611 29.859145 
M 251.60611 34.020497 
Q 250.706359 39.006621 250.481421 42.793076 
L 250.931297 45.379862 
L 251.268703 46.054676 
" clip-path="url(#p02bf576fff)" style="fill: none; stroke: #000000; stroke-linejoin: miter"/>
   </g>
  </g>
  <g id="axes_17">
   <g id="patch_16">
    <path d="M 262.857476 43.917766 
Q 263.157393 44.180193 264.169614 45.154924 
Q 265.181834 46.129655 265.744179 46.560786 
Q 266.306524 46.991917 267.33749 47.385559 
Q 268.368455 47.7792 269.380676 47.629241 
Q 270.05549 47.629241 270.52411 47.404303 
Q 270.992731 47.179366 271.217669 46.879448 
Q 271.442607 46.579531 271.573821 45.979697 
Q 271.705034 45.379862 271.723779 44.967476 
Q 271.742524 44.55509 271.742524 43.805297 
Q 271.742524 42.718097 270.842772 42.043283 
Q 269.943021 41.368469 268.649628 41.031062 
Q 267.356234 40.693655 266.062841 40.300014 
Q 264.769448 39.906372 263.869697 38.987876 
Q 262.969945 38.069379 262.969945 36.607283 
Q 262.969945 36.082428 263.138648 35.726276 
Q 263.307352 35.370124 263.700993 35.145186 
Q 264.094634 34.920248 264.375807 34.807779 
Q 264.656979 34.69531 265.313048 34.639076 
Q 265.969117 34.582841 266.156566 34.582841 
Q 266.344014 34.582841 267.018828 34.582841 
Q 268.218497 34.582841 268.799586 34.995228 
Q 269.380676 35.407614 269.699338 36.026193 
Q 270.018 36.644772 270.280428 36.832221 
" clip-path="url(#p67c618f460)" style="fill: none; stroke: #000000; stroke-linejoin: miter"/>
   </g>
  </g>
  <g id="axes_18"/>
  <g id="axes_19">
   <g id="patch_17">
    <path d="M 294.863834 37.95691 
L 295.538648 37.95691 
Q 296.250952 37.95691 297.038234 37.881931 
Q 297.825517 37.806952 298.781503 37.675738 
Q 299.73749 37.544524 300.262345 37.507034 
L 304.536166 35.82 
M 300.487283 30.42149 
L 300.487283 31.43371 
Q 300.487283 33.383172 299.812469 37.207117 
Q 299.137655 41.031062 299.137655 43.018014 
Q 299.137655 43.805297 299.137655 44.105214 
Q 299.137655 44.405131 299.231379 45.042455 
Q 299.325103 45.679779 299.512552 45.960952 
Q 299.7 46.242124 300.093641 46.485807 
Q 300.487283 46.72949 301.049628 46.72949 
Q 301.162097 46.692 301.480759 46.72949 
Q 301.799421 46.766979 301.986869 46.710745 
Q 302.174317 46.65451 302.174317 46.392083 
" clip-path="url(#p887a554320)" style="fill: none; stroke: #000000; stroke-linejoin: miter"/>
   </g>
  </g>
  <g id="axes_20">
   <g id="patch_18">
    <path d="M 312.413462 35.932469 
Q 313.013297 35.257655 314.006772 34.826524 
Q 315.000248 34.395393 315.9 34.470372 
Q 316.537324 34.470372 317.02469 34.639076 
Q 317.512055 34.807779 317.830717 34.995228 
Q 318.149379 35.182676 318.374317 35.670041 
Q 318.599255 36.157407 318.711724 36.419834 
Q 318.824193 36.682262 318.880428 37.375821 
Q 318.936662 38.069379 318.955407 38.331807 
Q 318.974152 38.594234 318.955407 39.419007 
Q 318.936662 40.243779 318.936662 40.431228 
Q 318.936662 41.368469 318.767959 43.242952 
Q 318.599255 45.117434 318.599255 46.054676 
Q 318.599255 46.467062 318.65549 46.823214 
Q 318.711724 47.179366 318.805448 47.610497 
Q 318.899172 48.041628 318.936662 48.304055 
L 319.386538 48.528993 
M 312.863338 23.111007 
Q 313.088276 24.798041 313.088276 29.971614 
L 313.088276 42.3432 
L 312.750869 46.841959 
L 312.525931 47.74171 
" clip-path="url(#pe777fa523e)" style="fill: none; stroke: #000000; stroke-linejoin: miter"/>
   </g>
  </g>
  <g id="axes_21">
   <g id="patch_19">
    <path d="M 327.488772 35.145186 
Q 327.488772 35.145186 327.488772 35.595062 
Q 327.488772 36.269876 327.376303 37.619503 
Q 327.263834 38.969131 327.263834 39.643945 
Q 327.263834 41.930814 328.500993 43.599103 
Q 329.738152 45.267393 331.875062 45.267393 
Q 333.262179 45.154924 334.030717 43.917766 
Q 334.799255 42.680607 334.949214 41.237255 
Q 335.099172 39.793903 335.3616 37.9944 
Q 335.624028 36.194897 336.036414 35.370124 
Q 336.186372 35.070207 336.186372 35.670041 
Q 336.186372 36.269876 335.923945 38.706703 
Q 335.699007 41.031062 335.699007 41.555917 
Q 335.549048 42.643117 335.886455 43.767807 
Q 336.223862 44.892497 336.936166 45.6048 
" clip-path="url(#pf8b41a250b)" style="fill: none; stroke: #000000; stroke-linejoin: miter"/>
   </g>
  </g>
  <g id="axes_22">
   <g id="patch_20">
    <path d="M 342.008036 34.879821 
Q 342.514286 36.073125 342.803571 42.871339 
Q 342.948214 46.632054 343.2375 46.632054 
Q 343.273661 46.632054 343.309821 46.595893 
Q 343.816071 46.017321 343.870313 44.588973 
Q 343.924554 43.160625 343.707589 41.750357 
Q 343.490625 40.340089 343.2375 38.712857 
Q 342.984375 37.085625 342.984375 36.398571 
Q 342.984375 35.169107 343.364063 33.939643 
Q 343.74375 32.710179 344.720089 32.710179 
Q 345.949554 32.710179 346.672768 34.355491 
Q 347.395982 36.000804 347.558705 37.971562 
Q 347.721429 39.942321 347.829911 41.587634 
Q 347.938393 43.232946 348.083036 43.232946 
Q 348.227679 43.232946 348.31808 41.497232 
Q 348.408482 39.761518 348.535045 37.700357 
Q 348.661607 35.639196 349.384821 33.903482 
Q 350.108036 32.167768 351.3375 32.167768 
Q 352.892411 33.035625 353.561384 34.771339 
Q 354.230357 36.507054 354.194196 38.188527 
Q 354.158036 39.87 354.176116 42.057723 
Q 354.194196 44.245446 354.591964 45.511071 
" clip-path="url(#peb38b46eb0)" style="fill: none; stroke: #000000; stroke-linejoin: miter"/>
   </g>
  </g>
  <g id="axes_23">
   <g id="patch_21">
    <path d="M 360.957228 37.244607 
Q 362.006938 37.207117 362.194386 37.132138 
Q 365.605945 37.132138 367.386703 39.212814 
Q 369.167462 41.29349 369.167462 44.780028 
Q 369.167462 47.704221 364.556234 47.704221 
Q 363.91891 47.704221 363.37531 47.591752 
Q 362.83171 47.479283 362.194386 47.254345 
Q 361.557062 47.029407 361.069697 46.916938 
L 359.832538 45.679779 
M 360.844759 25.435366 
L 360.844759 26.560055 
Q 360.844759 29.409269 360.957228 33.008276 
Q 361.069697 36.607283 361.257145 40.899848 
Q 361.444593 45.192414 361.519572 47.141876 
" clip-path="url(#p4c049e80db)" style="fill: none; stroke: #000000; stroke-linejoin: miter"/>
   </g>
  </g>
  <g id="axes_24"/>
  <g id="axes_25">
   <g id="patch_22">
    <path d="M 400.1616 35.032717 
Q 399.11189 34.582841 398.137159 34.69531 
Q 395.100497 35.032717 393.188524 36.701007 
Q 391.276552 38.369297 391.276552 41.330979 
Q 391.276552 43.917766 393.282248 45.6048 
Q 395.287945 47.291834 397.912221 47.291834 
Q 400.274069 47.291834 401.398759 45.361117 
Q 402.523448 43.4304 402.523448 40.881103 
Q 402.523448 39.643945 402.111062 38.706703 
Q 401.698676 37.769462 401.173821 37.300841 
Q 400.648966 36.832221 399.899172 36.119917 
Q 399.149379 35.407614 398.699503 34.69531 
L 397.462345 34.245434 
" clip-path="url(#pc9300b12c3)" style="fill: none; stroke: #000000; stroke-linejoin: miter"/>
   </g>
  </g>
  <g id="axes_26">
   <g id="patch_23">
    <path d="M 408.638731 37.282097 
L 408.638731 37.844441 
Q 408.901159 39.868883 408.938648 41.312234 
Q 408.976138 42.755586 408.882414 44.667559 
Q 408.78869 46.579531 408.78869 48.191586 
L 408.863669 39.643945 
Q 408.863669 38.144359 410.456979 37.507034 
Q 412.05029 36.86971 413.474897 37.282097 
Q 415.386869 37.844441 416.305366 39.04411 
Q 417.223862 40.243779 417.280097 41.668386 
Q 417.336331 43.092993 417.373821 44.817517 
Q 417.41131 46.542041 417.561269 48.191586 
" clip-path="url(#p32bfeae8de)" style="fill: none; stroke: #000000; stroke-linejoin: miter"/>
   </g>
  </g>
  <g id="axes_27"/>
  <g id="axes_28">
   <g id="patch_24">
    <path d="M 440.663834 37.95691 
L 441.338648 37.95691 
Q 442.050952 37.95691 442.838234 37.881931 
Q 443.625517 37.806952 444.581503 37.675738 
Q 445.53749 37.544524 446.062345 37.507034 
L 450.336166 35.82 
M 446.287283 30.42149 
L 446.287283 31.43371 
Q 446.287283 33.383172 445.612469 37.207117 
Q 444.937655 41.031062 444.937655 43.018014 
Q 444.937655 43.805297 444.937655 44.105214 
Q 444.937655 44.405131 445.031379 45.042455 
Q 445.125103 45.679779 445.312552 45.960952 
Q 445.5 46.242124 445.893641 46.485807 
Q 446.287283 46.72949 446.849628 46.72949 
Q 446.962097 46.692 447.280759 46.72949 
Q 447.599421 46.766979 447.786869 46.710745 
Q 447.974317 46.65451 447.974317 46.392083 
" clip-path="url(#pb616c2bae7)" style="fill: none; stroke: #000000; stroke-linejoin: miter"/>
   </g>
  </g>
  <g id="axes_29">
   <g id="patch_25">
    <path d="M 458.213462 35.932469 
Q 458.813297 35.257655 459.806772 34.826524 
Q 460.800248 34.395393 461.7 34.470372 
Q 462.337324 34.470372 462.82469 34.639076 
Q 463.312055 34.807779 463.630717 34.995228 
Q 463.949379 35.182676 464.174317 35.670041 
Q 464.399255 36.157407 464.511724 36.419834 
Q 464.624193 36.682262 464.680428 37.375821 
Q 464.736662 38.069379 464.755407 38.331807 
Q 464.774152 38.594234 464.755407 39.419007 
Q 464.736662 40.243779 464.736662 40.431228 
Q 464.736662 41.368469 464.567959 43.242952 
Q 464.399255 45.117434 464.399255 46.054676 
Q 464.399255 46.467062 464.45549 46.823214 
Q 464.511724 47.179366 464.605448 47.610497 
Q 464.699172 48.041628 464.736662 48.304055 
L 465.186538 48.528993 
M 458.663338 23.111007 
Q 458.888276 24.798041 458.888276 29.971614 
L 458.888276 42.3432 
L 458.550869 46.841959 
L 458.325931 47.74171 
" clip-path="url(#p497b5960f8)" style="fill: none; stroke: #000000; stroke-linejoin: miter"/>
   </g>
  </g>
  <g id="axes_30">
   <g id="patch_26">
    <path d="M 471.657798 38.160826 
Q 474.630275 39.535596 479.349083 39.721376 
Q 480.872477 39.721376 481.559862 38.550963 
Q 482.247248 37.38055 482.247248 35.82 
Q 482.247248 35.299817 482.154358 34.909679 
Q 482.061468 34.519541 481.819954 34.296606 
Q 481.57844 34.07367 481.411239 33.943624 
Q 481.244037 33.813578 480.798165 33.757844 
Q 480.352294 33.70211 480.147936 33.683532 
Q 479.943578 33.664954 479.367661 33.683532 
Q 478.791743 33.70211 478.568807 33.70211 
Q 476.525229 33.70211 475.038991 35.578486 
Q 473.552752 37.454862 473.552752 39.609908 
Q 473.552752 42.619541 475.484862 44.570229 
Q 477.416972 46.520917 480.463761 46.520917 
Q 482.618807 46.818165 484.142202 44.29156 
" clip-path="url(#p248f52a364)" style="fill: none; stroke: #000000; stroke-linejoin: miter"/>
   </g>
  </g>
  <g id="axes_31"/>
  <g id="axes_32">
   <g id="patch_27">
    <path d="M 505.857476 43.917766 
Q 506.157393 44.180193 507.169614 45.154924 
Q 508.181834 46.129655 508.744179 46.560786 
Q 509.306524 46.991917 510.33749 47.385559 
Q 511.368455 47.7792 512.380676 47.629241 
Q 513.05549 47.629241 513.52411 47.404303 
Q 513.992731 47.179366 514.217669 46.879448 
Q 514.442607 46.579531 514.573821 45.979697 
Q 514.705034 45.379862 514.723779 44.967476 
Q 514.742524 44.55509 514.742524 43.805297 
Q 514.742524 42.718097 513.842772 42.043283 
Q 512.943021 41.368469 511.649628 41.031062 
Q 510.356234 40.693655 509.062841 40.300014 
Q 507.769448 39.906372 506.869697 38.987876 
Q 505.969945 38.069379 505.969945 36.607283 
Q 505.969945 36.082428 506.138648 35.726276 
Q 506.307352 35.370124 506.700993 35.145186 
Q 507.094634 34.920248 507.375807 34.807779 
Q 507.656979 34.69531 508.313048 34.639076 
Q 508.969117 34.582841 509.156566 34.582841 
Q 509.344014 34.582841 510.018828 34.582841 
Q 511.218497 34.582841 511.799586 34.995228 
Q 512.380676 35.407614 512.699338 36.026193 
Q 513.018 36.644772 513.280428 36.832221 
" clip-path="url(#pa3bc708900)" style="fill: none; stroke: #000000; stroke-linejoin: miter"/>
   </g>
  </g>
  <g id="axes_33">
   <g id="patch_28">
    <path d="M 521.663834 37.95691 
L 522.338648 37.95691 
Q 523.050952 37.95691 523.838234 37.881931 
Q 524.625517 37.806952 525.581503 37.675738 
Q 526.53749 37.544524 527.062345 37.507034 
L 531.336166 35.82 
M 527.287283 30.42149 
L 527.287283 31.43371 
Q 527.287283 33.383172 526.612469 37.207117 
Q 525.937655 41.031062 525.937655 43.018014 
Q 525.937655 43.805297 525.937655 44.105214 
Q 525.937655 44.405131 526.031379 45.042455 
Q 526.125103 45.679779 526.312552 45.960952 
Q 526.5 46.242124 526.893641 46.485807 
Q 527.287283 46.72949 527.849628 46.72949 
Q 527.962097 46.692 528.280759 46.72949 
Q 528.599421 46.766979 528.786869 46.710745 
Q 528.974317 46.65451 528.974317 46.392083 
" clip-path="url(#p144a2b3616)" style="fill: none; stroke: #000000; stroke-linejoin: miter"/>
   </g>
  </g>
  <g id="axes_34">
   <g id="patch_29">
    <path d="M 536.457798 38.160826 
Q 539.430275 39.535596 544.149083 39.721376 
Q 545.672477 39.721376 546.359862 38.550963 
Q 547.047248 37.38055 547.047248 35.82 
Q 547.047248 35.299817 546.954358 34.909679 
Q 546.861468 34.519541 546.619954 34.296606 
Q 546.37844 34.07367 546.211239 33.943624 
Q 546.044037 33.813578 545.598165 33.757844 
Q 545.152294 33.70211 544.947936 33.683532 
Q 544.743578 33.664954 544.167661 33.683532 
Q 543.591743 33.70211 543.368807 33.70211 
Q 541.325229 33.70211 539.838991 35.578486 
Q 538.352752 37.454862 538.352752 39.609908 
Q 538.352752 42.619541 540.284862 44.570229 
Q 542.216972 46.520917 545.263761 46.520917 
Q 547.418807 46.818165 548.942202 44.29156 
" clip-path="url(#p3bd5c44ab8)" style="fill: none; stroke: #000000; stroke-linejoin: miter"/>
   </g>
  </g>
  <g id="axes_35">
   <g id="patch_30">
    <path d="M 552.657798 38.160826 
Q 555.630275 39.535596 560.349083 39.721376 
Q 561.872477 39.721376 562.559862 38.550963 
Q 563.247248 37.38055 563.247248 35.82 
Q 563.247248 35.299817 563.154358 34.909679 
Q 563.061468 34.519541 562.819954 34.296606 
Q 562.57844 34.07367 562.411239 33.943624 
Q 562.244037 33.813578 561.798165 33.757844 
Q 561.352294 33.70211 561.147936 33.683532 
Q 560.943578 33.664954 560.367661 33.683532 
Q 559.791743 33.70211 559.568807 33.70211 
Q 557.525229 33.70211 556.038991 35.578486 
Q 554.552752 37.454862 554.552752 39.609908 
Q 554.552752 42.619541 556.484862 44.570229 
Q 558.416972 46.520917 561.463761 46.520917 
Q 563.618807 46.818165 565.142202 44.29156 
" clip-path="url(#pf4caed13b3)" style="fill: none; stroke: #000000; stroke-linejoin: miter"/>
   </g>
  </g>
  <g id="axes_36">
   <g id="patch_31">
    <path d="M 571.613462 32.783338 
Q 572.138317 34.507862 572.269531 36.457324 
Q 572.400745 38.406786 572.325766 40.956083 
Q 572.250786 43.505379 572.288276 44.705048 
L 572.400745 46.054676 
L 572.400745 45.829738 
Q 572.400745 44.667559 572.119572 42.30571 
Q 571.8384 39.943862 571.8384 38.744193 
Q 571.8384 36.419834 572.850621 34.882759 
Q 573.862841 33.345683 575.887283 33.345683 
Q 576.599586 33.345683 576.936993 33.626855 
Q 577.2744 33.908028 577.536828 34.432883 
Q 577.799255 34.957738 578.136662 35.257655 
L 578.586538 36.832221 
" clip-path="url(#p9a95a6fe4b)" style="fill: none; stroke: #000000; stroke-linejoin: miter"/>
   </g>
  </g>
  <g id="axes_37">
   <g id="patch_32">
    <path d="M 591.918579 29.071862 
Q 591.543683 29.146841 591.412469 29.577972 
Q 591.281255 30.009103 591.356234 30.42149 
Q 591.356234 30.571448 591.393724 30.702662 
Q 591.431214 30.833876 591.487448 30.89011 
Q 591.543683 30.946345 591.599917 31.040069 
Q 591.656152 31.133793 591.693641 31.208772 
L 591.80611 29.859145 
M 591.80611 34.020497 
Q 590.906359 39.006621 590.681421 42.793076 
L 591.131297 45.379862 
L 591.468703 46.054676 
" clip-path="url(#p74f085b870)" style="fill: none; stroke: #000000; stroke-linejoin: miter"/>
   </g>
  </g>
  <g id="axes_38">
   <g id="patch_33">
    <path d="M 603.038731 37.282097 
L 603.038731 37.844441 
Q 603.301159 39.868883 603.338648 41.312234 
Q 603.376138 42.755586 603.282414 44.667559 
Q 603.18869 46.579531 603.18869 48.191586 
L 603.263669 39.643945 
Q 603.263669 38.144359 604.856979 37.507034 
Q 606.45029 36.86971 607.874897 37.282097 
Q 609.786869 37.844441 610.705366 39.04411 
Q 611.623862 40.243779 611.680097 41.668386 
Q 611.736331 43.092993 611.773821 44.817517 
Q 611.81131 46.542041 611.961269 48.191586 
" clip-path="url(#pc479cf7bb0)" style="fill: none; stroke: #000000; stroke-linejoin: miter"/>
   </g>
  </g>
  <g id="axes_39">
   <g id="patch_34">
    <path d="M 628.487191 39.096404 
Q 628.23236 39.023596 627.26764 38.623146 
Q 626.302921 38.222697 625.64764 38.077079 
Q 624.99236 37.931461 624.337079 38.00427 
Q 621.715955 38.00427 620.077753 40.388764 
Q 618.439551 42.773258 618.439551 45.430787 
Q 618.439551 47.068989 623.681798 47.068989 
Q 625.247191 47.068989 626.575955 45.558202 
Q 627.904719 44.047416 628.578202 42.172584 
Q 629.251685 40.297753 629.251685 38.768764 
Q 629.251685 37.27618 629.215281 36.984944 
L 629.142472 38.077079 
Q 629.142472 38.550337 629.142472 38.987191 
Q 629.178876 40.188539 629.379101 42.281798 
Q 629.579326 44.375056 629.743146 46.049663 
Q 629.906966 47.72427 629.943371 49.872135 
Q 629.979775 52.02 629.815955 53.658202 
Q 629.652135 55.296404 629.087865 56.971011 
Q 628.523596 58.645618 627.595281 59.737753 
Q 626.666966 60.829888 625.065169 61.521573 
Q 623.463371 62.213258 621.315506 62.213258 
Q 619.677303 62.213258 618.585169 61.466966 
Q 617.493034 60.720674 617.493034 59.155281 
Q 617.420225 58.936854 617.456629 58.936854 
Q 617.493034 58.936854 617.602247 58.936854 
Q 617.711461 58.936854 617.711461 58.82764 
" clip-path="url(#p4d001bbc9b)" style="fill: none; stroke: #000000; stroke-linejoin: miter"/>
   </g>
  </g>
  <g id="axes_40"/>
  <g id="axes_41">
   <g id="patch_35">
    <path d="M 649.716102 36.437797 
L 650.951695 44.778051 
Q 651.054661 45.567458 651.054661 45.60178 
Q 651.054661 45.704746 651.363559 45.704746 
Q 652.22161 45.704746 652.942373 44.778051 
Q 653.663136 43.851356 654.075 42.718729 
Q 654.486864 41.586102 655.001695 40.659407 
Q 655.516525 39.732712 655.997034 39.732712 
Q 656.614831 39.732712 657.249788 40.607924 
Q 657.884746 41.483136 658.348093 42.512797 
Q 658.811441 43.542458 659.48072 44.417669 
Q 660.15 45.292881 660.836441 45.292881 
Q 661.111017 43.782712 661.540042 39.69839 
Q 661.969068 35.614068 662.483898 33.554746 
" clip-path="url(#p4614fa0ff0)" style="fill: none; stroke: #000000; stroke-linejoin: miter"/>
   </g>
  </g>
  <g id="axes_42">
   <g id="patch_36">
    <path d="M 668.813462 35.932469 
Q 669.413297 35.257655 670.406772 34.826524 
Q 671.400248 34.395393 672.3 34.470372 
Q 672.937324 34.470372 673.42469 34.639076 
Q 673.912055 34.807779 674.230717 34.995228 
Q 674.549379 35.182676 674.774317 35.670041 
Q 674.999255 36.157407 675.111724 36.419834 
Q 675.224193 36.682262 675.280428 37.375821 
Q 675.336662 38.069379 675.355407 38.331807 
Q 675.374152 38.594234 675.355407 39.419007 
Q 675.336662 40.243779 675.336662 40.431228 
Q 675.336662 41.368469 675.167959 43.242952 
Q 674.999255 45.117434 674.999255 46.054676 
Q 674.999255 46.467062 675.05549 46.823214 
Q 675.111724 47.179366 675.205448 47.610497 
Q 675.299172 48.041628 675.336662 48.304055 
L 675.786538 48.528993 
M 669.263338 23.111007 
Q 669.488276 24.798041 669.488276 29.971614 
L 669.488276 42.3432 
L 669.150869 46.841959 
L 668.925931 47.74171 
" clip-path="url(#p1f1f35240e)" style="fill: none; stroke: #000000; stroke-linejoin: miter"/>
   </g>
  </g>
  <g id="axes_43">
   <g id="patch_37">
    <path d="M 682.257798 38.160826 
Q 685.230275 39.535596 689.949083 39.721376 
Q 691.472477 39.721376 692.159862 38.550963 
Q 692.847248 37.38055 692.847248 35.82 
Q 692.847248 35.299817 692.754358 34.909679 
Q 692.661468 34.519541 692.419954 34.296606 
Q 692.17844 34.07367 692.011239 33.943624 
Q 691.844037 33.813578 691.398165 33.757844 
Q 690.952294 33.70211 690.747936 33.683532 
Q 690.543578 33.664954 689.967661 33.683532 
Q 689.391743 33.70211 689.168807 33.70211 
Q 687.125229 33.70211 685.638991 35.578486 
Q 684.152752 37.454862 684.152752 39.609908 
Q 684.152752 42.619541 686.084862 44.570229 
Q 688.016972 46.520917 691.063761 46.520917 
Q 693.218807 46.818165 694.742202 44.29156 
" clip-path="url(#pa72dfd3edd)" style="fill: none; stroke: #000000; stroke-linejoin: miter"/>
   </g>
  </g>
  <g id="axes_44">
   <g id="patch_38">
    <path d="M 698.457798 38.160826 
Q 701.430275 39.535596 706.149083 39.721376 
Q 707.672477 39.721376 708.359862 38.550963 
Q 709.047248 37.38055 709.047248 35.82 
Q 709.047248 35.299817 708.954358 34.909679 
Q 708.861468 34.519541 708.619954 34.296606 
Q 708.37844 34.07367 708.211239 33.943624 
Q 708.044037 33.813578 707.598165 33.757844 
Q 707.152294 33.70211 706.947936 33.683532 
Q 706.743578 33.664954 706.167661 33.683532 
Q 705.591743 33.70211 705.368807 33.70211 
Q 703.325229 33.70211 701.838991 35.578486 
Q 700.352752 37.454862 700.352752 39.609908 
Q 700.352752 42.619541 702.284862 44.570229 
Q 704.216972 46.520917 707.263761 46.520917 
Q 709.418807 46.818165 710.942202 44.29156 
" clip-path="url(#p1396996740)" style="fill: none; stroke: #000000; stroke-linejoin: miter"/>
   </g>
  </g>
  <g id="axes_45">
   <g id="patch_39">
    <path d="M 720.506359 28.621986 
Q 720.731297 30.34651 720.806276 32.146014 
Q 720.881255 33.945517 720.86251 36.551048 
Q 720.843766 39.156579 720.843766 40.093821 
Q 720.843766 40.13131 721.068703 45.829738 
L 721.293641 46.841959 
" clip-path="url(#padc9acd92e)" style="fill: none; stroke: #000000; stroke-linejoin: miter"/>
   </g>
  </g>
  <g id="axes_46">
   <g id="patch_40">
    <path d="M 736.387697 39.981352 
Q 737.399917 40.956083 737.737324 42.905545 
Q 737.924772 43.955255 737.512386 46.167145 
L 736.275228 47.629241 
" clip-path="url(#pdc65e8f196)" style="fill: none; stroke: #000000; stroke-linejoin: miter"/>
   </g>
  </g>
 </g>
 <defs>
  <clipPath id="p812b6ae657">
   <rect x="0" y="13.491103" width="16.2" height="44.657795"/>
  </clipPath>
  <clipPath id="p560e1a60c3">
   <rect x="17.589352" y="8.64" width="13.421297" height="54.36"/>
  </clipPath>
  <clipPath id="p3a3cb66577">
   <rect x="38.006938" y="8.64" width="4.986124" height="54.36"/>
  </clipPath>
  <clipPath id="pb500d46526">
   <rect x="54.431876" y="8.64" width="4.536248" height="54.36"/>
  </clipPath>
  <clipPath id="p2d5c5df779">
   <rect x="70.631876" y="8.64" width="4.536248" height="54.36"/>
  </clipPath>
  <clipPath id="p5a075e391c">
   <rect x="98.589352" y="8.64" width="13.421297" height="54.36"/>
  </clipPath>
  <clipPath id="pfe303af7a9">
   <rect x="113.4" y="10.777356" width="16.2" height="50.085288"/>
  </clipPath>
  <clipPath id="pbb82eb80c5">
   <rect x="130.483241" y="8.64" width="14.433517" height="54.36"/>
  </clipPath>
  <clipPath id="p1e94c42fc2">
   <rect x="146.683241" y="8.64" width="14.433517" height="54.36"/>
  </clipPath>
  <clipPath id="pbf35d2bb66">
   <rect x="167.606938" y="8.64" width="4.986124" height="54.36"/>
  </clipPath>
  <clipPath id="p0e2fd6bb9e">
   <rect x="179.964248" y="8.64" width="12.671503" height="54.36"/>
  </clipPath>
  <clipPath id="pda6771af1c">
   <rect x="194.4" y="9.426742" width="16.2" height="52.786517"/>
  </clipPath>
  <clipPath id="p8fd27f5c89">
   <rect x="229.538979" y="8.64" width="10.722041" height="54.36"/>
  </clipPath>
  <clipPath id="p02bf576fff">
   <rect x="248.606938" y="8.64" width="4.986124" height="54.36"/>
  </clipPath>
  <clipPath id="p67c618f460">
   <rect x="260.982993" y="8.64" width="12.634014" height="54.36"/>
  </clipPath>
  <clipPath id="p887a554320">
   <rect x="292.989352" y="8.64" width="13.421297" height="54.36"/>
  </clipPath>
  <clipPath id="pe777fa523e">
   <rect x="310.538979" y="8.64" width="10.722041" height="54.36"/>
  </clipPath>
  <clipPath id="pf8b41a250b">
   <rect x="325.389352" y="8.64" width="13.421297" height="54.36"/>
  </clipPath>
  <clipPath id="peb38b46eb0">
   <rect x="340.2" y="9.603482" width="16.2" height="52.433036"/>
  </clipPath>
  <clipPath id="p4c049e80db">
   <rect x="357.958055" y="8.64" width="13.08389" height="54.36"/>
  </clipPath>
  <clipPath id="pc9300b12c3">
   <rect x="389.402069" y="8.64" width="14.995862" height="54.36"/>
  </clipPath>
  <clipPath id="p32bfeae8de">
   <rect x="406.764248" y="8.64" width="12.671503" height="54.36"/>
  </clipPath>
  <clipPath id="pb616c2bae7">
   <rect x="438.789352" y="8.64" width="13.421297" height="54.36"/>
  </clipPath>
  <clipPath id="p497b5960f8">
   <rect x="456.338979" y="8.64" width="10.722041" height="54.36"/>
  </clipPath>
  <clipPath id="p248f52a364">
   <rect x="469.8" y="8.881927" width="16.2" height="53.876147"/>
  </clipPath>
  <clipPath id="pa3bc708900">
   <rect x="503.982993" y="8.64" width="12.634014" height="54.36"/>
  </clipPath>
  <clipPath id="p144a2b3616">
   <rect x="519.789352" y="8.64" width="13.421297" height="54.36"/>
  </clipPath>
  <clipPath id="p3bd5c44ab8">
   <rect x="534.6" y="8.881927" width="16.2" height="53.876147"/>
  </clipPath>
  <clipPath id="pf4caed13b3">
   <rect x="550.8" y="8.881927" width="16.2" height="53.876147"/>
  </clipPath>
  <clipPath id="p9a95a6fe4b">
   <rect x="569.738979" y="8.64" width="10.722041" height="54.36"/>
  </clipPath>
  <clipPath id="p74f085b870">
   <rect x="588.806938" y="8.64" width="4.986124" height="54.36"/>
  </clipPath>
  <clipPath id="pc479cf7bb0">
   <rect x="601.164248" y="8.64" width="12.671503" height="54.36"/>
  </clipPath>
  <clipPath id="p4d001bbc9b">
   <rect x="615.6" y="9.426742" width="16.2" height="52.786517"/>
  </clipPath>
  <clipPath id="p4614fa0ff0">
   <rect x="648" y="10.936525" width="16.2" height="49.766949"/>
  </clipPath>
  <clipPath id="p1f1f35240e">
   <rect x="666.938979" y="8.64" width="10.722041" height="54.36"/>
  </clipPath>
  <clipPath id="pa72dfd3edd">
   <rect x="680.4" y="8.881927" width="16.2" height="53.876147"/>
  </clipPath>
  <clipPath id="p1396996740">
   <rect x="696.6" y="8.881927" width="16.2" height="53.876147"/>
  </clipPath>
  <clipPath id="padc9acd92e">
   <rect x="718.631876" y="8.64" width="4.536248" height="54.36"/>
  </clipPath>
  <clipPath id="pdc65e8f196">
   <rect x="734.400745" y="8.64" width="5.39851" height="54.36"/>
  </clipPath>
 </defs>
</svg>
