<?xml version="1.0" encoding="utf-8" standalone="no"?>
<!DOCTYPE svg PUBLIC "-//W3C//DTD SVG 1.1//EN"
  "http://www.w3.org/Graphics/SVG/1.1/DTD/svg11.dtd">
<svg xmlns:xlink="http://www.w3.org/1999/xlink" width="864pt" height="72pt" viewBox="0 0 864 72" xmlns="http://www.w3.org/2000/svg" version="1.1">
 <metadata>
  <rdf:RDF xmlns:dc="http://purl.org/dc/elements/1.1/" xmlns:cc="http://creativecommons.org/ns#" xmlns:rdf="http://www.w3.org/1999/02/22-rdf-syntax-ns#">
   <cc:Work>
    <dc:type rdf:resource="http://purl.org/dc/dcmitype/StillImage"/>
    <dc:date>2023-12-21T11:48:38.858219</dc:date>
    <dc:format>image/svg+xml</dc:format>
    <dc:creator>
     <cc:Agent>
      <dc:title>Matplotlib v3.5.1, https://matplotlib.org/</dc:title>
     </cc:Agent>
    </dc:creator>
   </cc:Work>
  </rdf:RDF>
 </metadata>
 <defs>
  <style type="text/css">*{stroke-linejoin: round; stroke-linecap: butt}</style>
 </defs>
 <g id="figure_1">
  <g id="patch_1">
   <path d="M 0 72 
L 864 72 
L 864 0 
L 0 0 
z
" style="fill: #8fff9f"/>
  </g>
  <g id="axes_1">
   <g id="patch_2">
    <path d="M 3.263834 37.95691 
L 3.938648 37.95691 
Q 4.650952 37.95691 5.438234 37.881931 
Q 6.225517 37.806952 7.181503 37.675738 
Q 8.13749 37.544524 8.662345 37.507034 
L 12.936166 35.82 
M 8.887283 30.42149 
L 8.887283 31.43371 
Q 8.887283 33.383172 8.212469 37.207117 
Q 7.537655 41.031062 7.537655 43.018014 
Q 7.537655 43.805297 7.537655 44.105214 
Q 7.537655 44.405131 7.631379 45.042455 
Q 7.725103 45.679779 7.912552 45.960952 
Q 8.1 46.242124 8.493641 46.485807 
Q 8.887283 46.72949 9.449628 46.72949 
Q 9.562097 46.692 9.880759 46.72949 
Q 10.199421 46.766979 10.386869 46.710745 
Q 10.574317 46.65451 10.574317 46.392083 
" clip-path="url(#p70afb4c5ff)" style="fill: none; stroke: #000000; stroke-linejoin: miter"/>
   </g>
  </g>
  <g id="axes_2">
   <g id="patch_3">
    <path d="M 20.813462 32.783338 
Q 21.338317 34.507862 21.469531 36.457324 
Q 21.600745 38.406786 21.525766 40.956083 
Q 21.450786 43.505379 21.488276 44.705048 
L 21.600745 46.054676 
L 21.600745 45.829738 
Q 21.600745 44.667559 21.319572 42.30571 
Q 21.0384 39.943862 21.0384 38.744193 
Q 21.0384 36.419834 22.050621 34.882759 
Q 23.062841 33.345683 25.087283 33.345683 
Q 25.799586 33.345683 26.136993 33.626855 
Q 26.4744 33.908028 26.736828 34.432883 
Q 26.999255 34.957738 27.336662 35.257655 
L 27.786538 36.832221 
" clip-path="url(#pb2d5c9d778)" style="fill: none; stroke: #000000; stroke-linejoin: miter"/>
   </g>
  </g>
  <g id="axes_3">
   <g id="patch_4">
    <path d="M 46.043923 36.441748 
Q 44.834968 35.094627 40.862687 35.094627 
Q 39.342857 35.094627 38.565672 35.146439 
Q 37.788486 35.198252 36.78678 35.440043 
Q 35.785075 35.681834 35.301493 36.182687 
Q 34.81791 36.683539 34.472495 37.616162 
Q 34.127079 38.548785 34.127079 39.964989 
Q 34.127079 42.037484 35.543284 43.280981 
Q 36.959488 44.524478 38.893817 44.524478 
Q 41.553518 44.524478 44.316844 38.721493 
Q 45.663966 35.854542 45.663966 35.82 
Q 46.009382 35.578209 46.043923 36.441748 
Q 46.043923 37.512537 46.458422 40.362217 
Q 46.872921 43.211898 46.872921 44.524478 
" clip-path="url(#p9a65d8537a)" style="fill: none; stroke: #000000; stroke-linejoin: miter"/>
   </g>
  </g>
  <g id="axes_4">
   <g id="patch_5">
    <path d="M 50.384141 38.85304 
L 50.812335 38.85304 
Q 51.63304 38.85304 52.596476 38.745991 
Q 53.559912 38.638943 54.719604 38.460529 
Q 55.879295 38.282115 56.485903 38.210749 
L 63.015859 35.427489 
M 62.694714 25.793128 
Q 62.409251 25.721762 61.374449 25.275727 
Q 60.339648 24.829692 59.697357 24.93674 
Q 59.055066 24.93674 58.537665 25.150837 
Q 58.020264 25.364934 57.681278 25.793128 
Q 57.342291 26.221322 57.07467 26.685198 
Q 56.807048 27.149075 56.664317 27.862731 
Q 56.521586 28.576388 56.414537 29.129471 
Q 56.307489 29.682555 56.289648 30.50326 
Q 56.271806 31.323965 56.253965 31.77 
Q 56.236123 32.216035 56.253965 32.965374 
Q 56.271806 33.714714 56.271806 33.928811 
Q 56.271806 36.605022 56.967621 41.850396 
Q 57.663436 47.095771 57.663436 49.771982 
Q 57.59207 50.057445 57.556388 50.681894 
Q 57.520705 51.306344 57.413656 51.805903 
Q 57.306608 52.305463 57.021145 52.555242 
" clip-path="url(#p2ed5f09e14)" style="fill: none; stroke: #000000; stroke-linejoin: miter"/>
   </g>
  </g>
  <g id="axes_5">
   <g id="patch_6">
    <path d="M 66.584141 38.85304 
L 67.012335 38.85304 
Q 67.83304 38.85304 68.796476 38.745991 
Q 69.759912 38.638943 70.919604 38.460529 
Q 72.079295 38.282115 72.685903 38.210749 
L 79.215859 35.427489 
M 78.894714 25.793128 
Q 78.609251 25.721762 77.574449 25.275727 
Q 76.539648 24.829692 75.897357 24.93674 
Q 75.255066 24.93674 74.737665 25.150837 
Q 74.220264 25.364934 73.881278 25.793128 
Q 73.542291 26.221322 73.27467 26.685198 
Q 73.007048 27.149075 72.864317 27.862731 
Q 72.721586 28.576388 72.614537 29.129471 
Q 72.507489 29.682555 72.489648 30.50326 
Q 72.471806 31.323965 72.453965 31.77 
Q 72.436123 32.216035 72.453965 32.965374 
Q 72.471806 33.714714 72.471806 33.928811 
Q 72.471806 36.605022 73.167621 41.850396 
Q 73.863436 47.095771 73.863436 49.771982 
Q 73.79207 50.057445 73.756388 50.681894 
Q 73.720705 51.306344 73.613656 51.805903 
Q 73.506608 52.305463 73.221145 52.555242 
" clip-path="url(#p09e9b8ad18)" style="fill: none; stroke: #000000; stroke-linejoin: miter"/>
   </g>
  </g>
  <g id="axes_6">
   <g id="patch_7">
    <path d="M 89.718579 29.071862 
Q 89.343683 29.146841 89.212469 29.577972 
Q 89.081255 30.009103 89.156234 30.42149 
Q 89.156234 30.571448 89.193724 30.702662 
Q 89.231214 30.833876 89.287448 30.89011 
Q 89.343683 30.946345 89.399917 31.040069 
Q 89.456152 31.133793 89.493641 31.208772 
L 89.60611 29.859145 
M 89.60611 34.020497 
Q 88.706359 39.006621 88.481421 42.793076 
L 88.931297 45.379862 
L 89.268703 46.054676 
" clip-path="url(#p2aed7c48e2)" style="fill: none; stroke: #000000; stroke-linejoin: miter"/>
   </g>
  </g>
  <g id="axes_7">
   <g id="patch_8">
    <path d="M 110.556735 34.365306 
Q 110.556735 34.365306 110.060816 34.365306 
Q 109.267347 34.365306 107.779592 34.067755 
Q 106.291837 33.770204 105.498367 33.770204 
Q 102.721224 33.770204 100.787143 35.224898 
Q 98.853061 36.679592 98.853061 39.423673 
Q 98.853061 40.94449 100.340816 42.399184 
Q 101.828571 43.853878 103.762653 44.663878 
Q 105.696735 45.473878 107.18449 45.473878 
Q 108.110204 45.473878 108.80449 45.110204 
Q 109.498776 44.746531 110.242653 44.118367 
Q 110.986531 43.490204 111.548571 43.192653 
L 111.746939 42.696735 
" clip-path="url(#p176c833c72)" style="fill: none; stroke: #000000; stroke-linejoin: miter"/>
   </g>
  </g>
  <g id="axes_8">
   <g id="patch_9">
    <path d="M 118.463338 25.922731 
Q 121.387531 27.947172 122.962097 31.527434 
Q 124.536662 35.107697 124.536662 38.969131 
Q 124.536662 39.906372 124.218 40.67491 
Q 123.899338 41.443448 123.336993 42.324455 
Q 122.774648 43.205462 122.512221 43.805297 
L 121.837407 44.48011 
" clip-path="url(#p01eba69eeb)" style="fill: none; stroke: #000000; stroke-linejoin: miter"/>
   </g>
  </g>
  <g id="axes_9">
   <g id="patch_10">
    <path d="M 137.587531 45.979697 
Q 137.550041 46.017186 137.418828 46.054676 
Q 137.287614 46.092166 137.325103 46.167145 
Q 137.325103 46.579531 137.7 46.579531 
Q 138.037407 46.579531 138.037407 46.092166 
Q 138.112386 45.867228 137.831214 45.754759 
Q 137.550041 45.64229 137.362593 45.754759 
" clip-path="url(#p03071a68ef)" style="fill: none; stroke: #000000; stroke-linejoin: miter"/>
   </g>
  </g>
  <g id="axes_10"/>
  <g id="axes_11">
   <g id="patch_11">
    <path d="M 163.087248 30.470738 
L 164.261477 30.601208 
Q 166.088054 30.601208 167.925503 30.709933 
Q 169.762953 30.818658 172.002685 30.992617 
Q 174.242416 31.166577 175.677584 31.253557 
L 177.112752 31.123087 
M 169.871678 31.057852 
Q 169.936913 31.405772 169.675973 32.177718 
Q 169.415034 32.949664 169.610738 33.406309 
Q 169.610738 34.711007 169.752081 36.363624 
Q 169.893423 38.016242 170.110872 39.973289 
Q 170.328322 41.930336 170.393557 42.800134 
" clip-path="url(#pc9c52e3cef)" style="fill: none; stroke: #000000; stroke-linejoin: miter"/>
   </g>
  </g>
  <g id="axes_12">
   <g id="patch_12">
    <path d="M 182.813462 35.932469 
Q 183.413297 35.257655 184.406772 34.826524 
Q 185.400248 34.395393 186.3 34.470372 
Q 186.937324 34.470372 187.42469 34.639076 
Q 187.912055 34.807779 188.230717 34.995228 
Q 188.549379 35.182676 188.774317 35.670041 
Q 188.999255 36.157407 189.111724 36.419834 
Q 189.224193 36.682262 189.280428 37.375821 
Q 189.336662 38.069379 189.355407 38.331807 
Q 189.374152 38.594234 189.355407 39.419007 
Q 189.336662 40.243779 189.336662 40.431228 
Q 189.336662 41.368469 189.167959 43.242952 
Q 188.999255 45.117434 188.999255 46.054676 
Q 188.999255 46.467062 189.05549 46.823214 
Q 189.111724 47.179366 189.205448 47.610497 
Q 189.299172 48.041628 189.336662 48.304055 
L 189.786538 48.528993 
M 183.263338 23.111007 
Q 183.488276 24.798041 183.488276 29.971614 
L 183.488276 42.3432 
L 183.150869 46.841959 
L 182.925931 47.74171 
" clip-path="url(#p442b03e23d)" style="fill: none; stroke: #000000; stroke-linejoin: miter"/>
   </g>
  </g>
  <g id="axes_13">
   <g id="patch_13">
    <path d="M 196.257798 38.160826 
Q 199.230275 39.535596 203.949083 39.721376 
Q 205.472477 39.721376 206.159862 38.550963 
Q 206.847248 37.38055 206.847248 35.82 
Q 206.847248 35.299817 206.754358 34.909679 
Q 206.661468 34.519541 206.419954 34.296606 
Q 206.17844 34.07367 206.011239 33.943624 
Q 205.844037 33.813578 205.398165 33.757844 
Q 204.952294 33.70211 204.747936 33.683532 
Q 204.543578 33.664954 203.967661 33.683532 
Q 203.391743 33.70211 203.168807 33.70211 
Q 201.125229 33.70211 199.638991 35.578486 
Q 198.152752 37.454862 198.152752 39.609908 
Q 198.152752 42.619541 200.084862 44.570229 
Q 202.016972 46.520917 205.063761 46.520917 
Q 207.218807 46.818165 208.742202 44.29156 
" clip-path="url(#p875547bc96)" style="fill: none; stroke: #000000; stroke-linejoin: miter"/>
   </g>
  </g>
  <g id="axes_14"/>
  <g id="axes_15">
   <g id="patch_14">
    <path d="M 231.413462 32.783338 
Q 231.938317 34.507862 232.069531 36.457324 
Q 232.200745 38.406786 232.125766 40.956083 
Q 232.050786 43.505379 232.088276 44.705048 
L 232.200745 46.054676 
L 232.200745 45.829738 
Q 232.200745 44.667559 231.919572 42.30571 
Q 231.6384 39.943862 231.6384 38.744193 
Q 231.6384 36.419834 232.650621 34.882759 
Q 233.662841 33.345683 235.687283 33.345683 
Q 236.399586 33.345683 236.736993 33.626855 
Q 237.0744 33.908028 237.336828 34.432883 
Q 237.599255 34.957738 237.936662 35.257655 
L 238.386538 36.832221 
" clip-path="url(#pee5688f6f6)" style="fill: none; stroke: #000000; stroke-linejoin: miter"/>
   </g>
  </g>
  <g id="axes_16">
   <g id="patch_15">
    <path d="M 254.3616 35.032717 
Q 253.31189 34.582841 252.337159 34.69531 
Q 249.300497 35.032717 247.388524 36.701007 
Q 245.476552 38.369297 245.476552 41.330979 
Q 245.476552 43.917766 247.482248 45.6048 
Q 249.487945 47.291834 252.112221 47.291834 
Q 254.474069 47.291834 255.598759 45.361117 
Q 256.723448 43.4304 256.723448 40.881103 
Q 256.723448 39.643945 256.311062 38.706703 
Q 255.898676 37.769462 255.373821 37.300841 
Q 254.848966 36.832221 254.099172 36.119917 
Q 253.349379 35.407614 252.899503 34.69531 
L 251.662345 34.245434 
" clip-path="url(#p82cc5821c7)" style="fill: none; stroke: #000000; stroke-linejoin: miter"/>
   </g>
  </g>
  <g id="axes_17">
   <g id="patch_16">
    <path d="M 272.843923 36.441748 
Q 271.634968 35.094627 267.662687 35.094627 
Q 266.142857 35.094627 265.365672 35.146439 
Q 264.588486 35.198252 263.58678 35.440043 
Q 262.585075 35.681834 262.101493 36.182687 
Q 261.61791 36.683539 261.272495 37.616162 
Q 260.927079 38.548785 260.927079 39.964989 
Q 260.927079 42.037484 262.343284 43.280981 
Q 263.759488 44.524478 265.693817 44.524478 
Q 268.353518 44.524478 271.116844 38.721493 
Q 272.463966 35.854542 272.463966 35.82 
Q 272.809382 35.578209 272.843923 36.441748 
Q 272.843923 37.512537 273.258422 40.362217 
Q 273.672921 43.211898 273.672921 44.524478 
" clip-path="url(#p0019465c69)" style="fill: none; stroke: #000000; stroke-linejoin: miter"/>
   </g>
  </g>
  <g id="axes_18">
   <g id="patch_17">
    <path d="M 287.099007 39.568966 
Q 285.749379 38.181848 283.5 38.444276 
Q 280.650786 38.444276 279.488607 39.793903 
Q 278.326428 41.143531 278.326428 44.067724 
Q 278.326428 45.56731 279.619821 46.279614 
Q 280.913214 46.991917 282.487779 46.991917 
Q 283.799917 46.991917 284.812138 45.736014 
Q 285.824359 44.48011 286.405448 42.30571 
Q 286.986538 40.13131 287.361434 37.938166 
Q 287.736331 35.745021 287.88629 33.045766 
Q 288.036248 30.34651 288.073738 28.978138 
Q 288.111228 27.609766 288.111228 26.185159 
Q 287.88629 26.260138 287.88629 29.896634 
L 287.88629 44.292662 
L 288.673572 48.229076 
" clip-path="url(#pc41352b284)" style="fill: none; stroke: #000000; stroke-linejoin: miter"/>
   </g>
  </g>
  <g id="axes_19"/>
  <g id="axes_20">
   <g id="patch_18">
    <path d="M 311.457476 43.917766 
Q 311.757393 44.180193 312.769614 45.154924 
Q 313.781834 46.129655 314.344179 46.560786 
Q 314.906524 46.991917 315.93749 47.385559 
Q 316.968455 47.7792 317.980676 47.629241 
Q 318.65549 47.629241 319.12411 47.404303 
Q 319.592731 47.179366 319.817669 46.879448 
Q 320.042607 46.579531 320.173821 45.979697 
Q 320.305034 45.379862 320.323779 44.967476 
Q 320.342524 44.55509 320.342524 43.805297 
Q 320.342524 42.718097 319.442772 42.043283 
Q 318.543021 41.368469 317.249628 41.031062 
Q 315.956234 40.693655 314.662841 40.300014 
Q 313.369448 39.906372 312.469697 38.987876 
Q 311.569945 38.069379 311.569945 36.607283 
Q 311.569945 36.082428 311.738648 35.726276 
Q 311.907352 35.370124 312.300993 35.145186 
Q 312.694634 34.920248 312.975807 34.807779 
Q 313.256979 34.69531 313.913048 34.639076 
Q 314.569117 34.582841 314.756566 34.582841 
Q 314.944014 34.582841 315.618828 34.582841 
Q 316.818497 34.582841 317.399586 34.995228 
Q 317.980676 35.407614 318.299338 36.026193 
Q 318.618 36.644772 318.880428 36.832221 
" clip-path="url(#pde12d20471)" style="fill: none; stroke: #000000; stroke-linejoin: miter"/>
   </g>
  </g>
  <g id="axes_21">
   <g id="patch_19">
    <path d="M 332.718579 29.071862 
Q 332.343683 29.146841 332.212469 29.577972 
Q 332.081255 30.009103 332.156234 30.42149 
Q 332.156234 30.571448 332.193724 30.702662 
Q 332.231214 30.833876 332.287448 30.89011 
Q 332.343683 30.946345 332.399917 31.040069 
Q 332.456152 31.133793 332.493641 31.208772 
L 332.60611 29.859145 
M 332.60611 34.020497 
Q 331.706359 39.006621 331.481421 42.793076 
L 331.931297 45.379862 
L 332.268703 46.054676 
" clip-path="url(#p20468d5980)" style="fill: none; stroke: #000000; stroke-linejoin: miter"/>
   </g>
  </g>
  <g id="axes_22">
   <g id="patch_20">
    <path d="M 353.087191 39.096404 
Q 352.83236 39.023596 351.86764 38.623146 
Q 350.902921 38.222697 350.24764 38.077079 
Q 349.59236 37.931461 348.937079 38.00427 
Q 346.315955 38.00427 344.677753 40.388764 
Q 343.039551 42.773258 343.039551 45.430787 
Q 343.039551 47.068989 348.281798 47.068989 
Q 349.847191 47.068989 351.175955 45.558202 
Q 352.504719 44.047416 353.178202 42.172584 
Q 353.851685 40.297753 353.851685 38.768764 
Q 353.851685 37.27618 353.815281 36.984944 
L 353.742472 38.077079 
Q 353.742472 38.550337 353.742472 38.987191 
Q 353.778876 40.188539 353.979101 42.281798 
Q 354.179326 44.375056 354.343146 46.049663 
Q 354.506966 47.72427 354.543371 49.872135 
Q 354.579775 52.02 354.415955 53.658202 
Q 354.252135 55.296404 353.687865 56.971011 
Q 353.123596 58.645618 352.195281 59.737753 
Q 351.266966 60.829888 349.665169 61.521573 
Q 348.063371 62.213258 345.915506 62.213258 
Q 344.277303 62.213258 343.185169 61.466966 
Q 342.093034 60.720674 342.093034 59.155281 
Q 342.020225 58.936854 342.056629 58.936854 
Q 342.093034 58.936854 342.202247 58.936854 
Q 342.311461 58.936854 342.311461 58.82764 
" clip-path="url(#pd2fabf6758)" style="fill: none; stroke: #000000; stroke-linejoin: miter"/>
   </g>
  </g>
  <g id="axes_23">
   <g id="patch_21">
    <path d="M 360.038731 37.282097 
L 360.038731 37.844441 
Q 360.301159 39.868883 360.338648 41.312234 
Q 360.376138 42.755586 360.282414 44.667559 
Q 360.18869 46.579531 360.18869 48.191586 
L 360.263669 39.643945 
Q 360.263669 38.144359 361.856979 37.507034 
Q 363.45029 36.86971 364.874897 37.282097 
Q 366.786869 37.844441 367.705366 39.04411 
Q 368.623862 40.243779 368.680097 41.668386 
Q 368.736331 43.092993 368.773821 44.817517 
Q 368.81131 46.542041 368.961269 48.191586 
" clip-path="url(#p11fde7b5d6)" style="fill: none; stroke: #000000; stroke-linejoin: miter"/>
   </g>
  </g>
  <g id="axes_24"/>
  <g id="axes_25">
   <g id="patch_22">
    <path d="M 402.443923 36.441748 
Q 401.234968 35.094627 397.262687 35.094627 
Q 395.742857 35.094627 394.965672 35.146439 
Q 394.188486 35.198252 393.18678 35.440043 
Q 392.185075 35.681834 391.701493 36.182687 
Q 391.21791 36.683539 390.872495 37.616162 
Q 390.527079 38.548785 390.527079 39.964989 
Q 390.527079 42.037484 391.943284 43.280981 
Q 393.359488 44.524478 395.293817 44.524478 
Q 397.953518 44.524478 400.716844 38.721493 
Q 402.063966 35.854542 402.063966 35.82 
Q 402.409382 35.578209 402.443923 36.441748 
Q 402.443923 37.512537 402.858422 40.362217 
Q 403.272921 43.211898 403.272921 44.524478 
" clip-path="url(#pf088042184)" style="fill: none; stroke: #000000; stroke-linejoin: miter"/>
   </g>
  </g>
  <g id="axes_26">
   <g id="patch_23">
    <path d="M 409.613462 35.932469 
Q 410.213297 35.257655 411.206772 34.826524 
Q 412.200248 34.395393 413.1 34.470372 
Q 413.737324 34.470372 414.22469 34.639076 
Q 414.712055 34.807779 415.030717 34.995228 
Q 415.349379 35.182676 415.574317 35.670041 
Q 415.799255 36.157407 415.911724 36.419834 
Q 416.024193 36.682262 416.080428 37.375821 
Q 416.136662 38.069379 416.155407 38.331807 
Q 416.174152 38.594234 416.155407 39.419007 
Q 416.136662 40.243779 416.136662 40.431228 
Q 416.136662 41.368469 415.967959 43.242952 
Q 415.799255 45.117434 415.799255 46.054676 
Q 415.799255 46.467062 415.85549 46.823214 
Q 415.911724 47.179366 416.005448 47.610497 
Q 416.099172 48.041628 416.136662 48.304055 
L 416.586538 48.528993 
M 410.063338 23.111007 
Q 410.288276 24.798041 410.288276 29.971614 
L 410.288276 42.3432 
L 409.950869 46.841959 
L 409.725931 47.74171 
" clip-path="url(#p2b11a5dccd)" style="fill: none; stroke: #000000; stroke-linejoin: miter"/>
   </g>
  </g>
  <g id="axes_27">
   <g id="patch_24">
    <path d="M 423.057798 38.160826 
Q 426.030275 39.535596 430.749083 39.721376 
Q 432.272477 39.721376 432.959862 38.550963 
Q 433.647248 37.38055 433.647248 35.82 
Q 433.647248 35.299817 433.554358 34.909679 
Q 433.461468 34.519541 433.219954 34.296606 
Q 432.97844 34.07367 432.811239 33.943624 
Q 432.644037 33.813578 432.198165 33.757844 
Q 431.752294 33.70211 431.547936 33.683532 
Q 431.343578 33.664954 430.767661 33.683532 
Q 430.191743 33.70211 429.968807 33.70211 
Q 427.925229 33.70211 426.438991 35.578486 
Q 424.952752 37.454862 424.952752 39.609908 
Q 424.952752 42.619541 426.884862 44.570229 
Q 428.816972 46.520917 431.863761 46.520917 
Q 434.018807 46.818165 435.542202 44.29156 
" clip-path="url(#p78562702f8)" style="fill: none; stroke: #000000; stroke-linejoin: miter"/>
   </g>
  </g>
  <g id="axes_28">
   <g id="patch_25">
    <path d="M 451.043923 36.441748 
Q 449.834968 35.094627 445.862687 35.094627 
Q 444.342857 35.094627 443.565672 35.146439 
Q 442.788486 35.198252 441.78678 35.440043 
Q 440.785075 35.681834 440.301493 36.182687 
Q 439.81791 36.683539 439.472495 37.616162 
Q 439.127079 38.548785 439.127079 39.964989 
Q 439.127079 42.037484 440.543284 43.280981 
Q 441.959488 44.524478 443.893817 44.524478 
Q 446.553518 44.524478 449.316844 38.721493 
Q 450.663966 35.854542 450.663966 35.82 
Q 451.009382 35.578209 451.043923 36.441748 
Q 451.043923 37.512537 451.458422 40.362217 
Q 451.872921 43.211898 451.872921 44.524478 
" clip-path="url(#pb4143126e2)" style="fill: none; stroke: #000000; stroke-linejoin: miter"/>
   </g>
  </g>
  <g id="axes_29">
   <g id="patch_26">
    <path d="M 465.299007 39.568966 
Q 463.949379 38.181848 461.7 38.444276 
Q 458.850786 38.444276 457.688607 39.793903 
Q 456.526428 41.143531 456.526428 44.067724 
Q 456.526428 45.56731 457.819821 46.279614 
Q 459.113214 46.991917 460.687779 46.991917 
Q 461.999917 46.991917 463.012138 45.736014 
Q 464.024359 44.48011 464.605448 42.30571 
Q 465.186538 40.13131 465.561434 37.938166 
Q 465.936331 35.745021 466.08629 33.045766 
Q 466.236248 30.34651 466.273738 28.978138 
Q 466.311228 27.609766 466.311228 26.185159 
Q 466.08629 26.260138 466.08629 29.896634 
L 466.08629 44.292662 
L 466.873572 48.229076 
" clip-path="url(#p1144c91a19)" style="fill: none; stroke: #000000; stroke-linejoin: miter"/>
   </g>
  </g>
  <g id="axes_30"/>
  <g id="axes_31">
   <g id="patch_27">
    <path d="M 490.613462 32.783338 
Q 491.138317 34.507862 491.269531 36.457324 
Q 491.400745 38.406786 491.325766 40.956083 
Q 491.250786 43.505379 491.288276 44.705048 
L 491.400745 46.054676 
L 491.400745 45.829738 
Q 491.400745 44.667559 491.119572 42.30571 
Q 490.8384 39.943862 490.8384 38.744193 
Q 490.8384 36.419834 491.850621 34.882759 
Q 492.862841 33.345683 494.887283 33.345683 
Q 495.599586 33.345683 495.936993 33.626855 
Q 496.2744 33.908028 496.536828 34.432883 
Q 496.799255 34.957738 497.136662 35.257655 
L 497.586538 36.832221 
" clip-path="url(#p9f72cdd3ad)" style="fill: none; stroke: #000000; stroke-linejoin: miter"/>
   </g>
  </g>
  <g id="axes_32">
   <g id="patch_28">
    <path d="M 504.057798 38.160826 
Q 507.030275 39.535596 511.749083 39.721376 
Q 513.272477 39.721376 513.959862 38.550963 
Q 514.647248 37.38055 514.647248 35.82 
Q 514.647248 35.299817 514.554358 34.909679 
Q 514.461468 34.519541 514.219954 34.296606 
Q 513.97844 34.07367 513.811239 33.943624 
Q 513.644037 33.813578 513.198165 33.757844 
Q 512.752294 33.70211 512.547936 33.683532 
Q 512.343578 33.664954 511.767661 33.683532 
Q 511.191743 33.70211 510.968807 33.70211 
Q 508.925229 33.70211 507.438991 35.578486 
Q 505.952752 37.454862 505.952752 39.609908 
Q 505.952752 42.619541 507.884862 44.570229 
Q 509.816972 46.520917 512.863761 46.520917 
Q 515.018807 46.818165 516.542202 44.29156 
" clip-path="url(#p9bfc43bb44)" style="fill: none; stroke: #000000; stroke-linejoin: miter"/>
   </g>
  </g>
  <g id="axes_33">
   <g id="patch_29">
    <path d="M 532.043923 36.441748 
Q 530.834968 35.094627 526.862687 35.094627 
Q 525.342857 35.094627 524.565672 35.146439 
Q 523.788486 35.198252 522.78678 35.440043 
Q 521.785075 35.681834 521.301493 36.182687 
Q 520.81791 36.683539 520.472495 37.616162 
Q 520.127079 38.548785 520.127079 39.964989 
Q 520.127079 42.037484 521.543284 43.280981 
Q 522.959488 44.524478 524.893817 44.524478 
Q 527.553518 44.524478 530.316844 38.721493 
Q 531.663966 35.854542 531.663966 35.82 
Q 532.009382 35.578209 532.043923 36.441748 
Q 532.043923 37.512537 532.458422 40.362217 
Q 532.872921 43.211898 532.872921 44.524478 
" clip-path="url(#pbc177c3366)" style="fill: none; stroke: #000000; stroke-linejoin: miter"/>
   </g>
  </g>
  <g id="axes_34">
   <g id="patch_30">
    <path d="M 546.299007 39.568966 
Q 544.949379 38.181848 542.7 38.444276 
Q 539.850786 38.444276 538.688607 39.793903 
Q 537.526428 41.143531 537.526428 44.067724 
Q 537.526428 45.56731 538.819821 46.279614 
Q 540.113214 46.991917 541.687779 46.991917 
Q 542.999917 46.991917 544.012138 45.736014 
Q 545.024359 44.48011 545.605448 42.30571 
Q 546.186538 40.13131 546.561434 37.938166 
Q 546.936331 35.745021 547.08629 33.045766 
Q 547.236248 30.34651 547.273738 28.978138 
Q 547.311228 27.609766 547.311228 26.185159 
Q 547.08629 26.260138 547.08629 29.896634 
L 547.08629 44.292662 
L 547.873572 48.229076 
" clip-path="url(#pbe7be6c6d9)" style="fill: none; stroke: #000000; stroke-linejoin: miter"/>
   </g>
  </g>
  <g id="axes_35">
   <g id="patch_31">
    <path d="M 554.457476 43.917766 
Q 554.757393 44.180193 555.769614 45.154924 
Q 556.781834 46.129655 557.344179 46.560786 
Q 557.906524 46.991917 558.93749 47.385559 
Q 559.968455 47.7792 560.980676 47.629241 
Q 561.65549 47.629241 562.12411 47.404303 
Q 562.592731 47.179366 562.817669 46.879448 
Q 563.042607 46.579531 563.173821 45.979697 
Q 563.305034 45.379862 563.323779 44.967476 
Q 563.342524 44.55509 563.342524 43.805297 
Q 563.342524 42.718097 562.442772 42.043283 
Q 561.543021 41.368469 560.249628 41.031062 
Q 558.956234 40.693655 557.662841 40.300014 
Q 556.369448 39.906372 555.469697 38.987876 
Q 554.569945 38.069379 554.569945 36.607283 
Q 554.569945 36.082428 554.738648 35.726276 
Q 554.907352 35.370124 555.300993 35.145186 
Q 555.694634 34.920248 555.975807 34.807779 
Q 556.256979 34.69531 556.913048 34.639076 
Q 557.569117 34.582841 557.756566 34.582841 
Q 557.944014 34.582841 558.618828 34.582841 
Q 559.818497 34.582841 560.399586 34.995228 
Q 560.980676 35.407614 561.299338 36.026193 
Q 561.618 36.644772 561.880428 36.832221 
" clip-path="url(#p5ed7a96d71)" style="fill: none; stroke: #000000; stroke-linejoin: miter"/>
   </g>
  </g>
  <g id="axes_36">
   <g id="patch_32">
    <path d="M 574.968786 38.969131 
Q 574.931297 38.969131 574.931297 39.11909 
Q 574.931297 39.344028 575.343683 39.344028 
Q 575.418662 39.344028 575.418662 39.006621 
L 575.418662 38.819172 
L 574.931297 38.706703 
M 575.081255 34.807779 
L 575.006276 34.807779 
Q 574.818828 34.807779 574.818828 35.295145 
Q 574.818828 35.295145 574.818828 35.332634 
Q 574.818828 35.482593 574.856317 35.520083 
Q 574.893807 35.557572 575.081255 35.557572 
Q 575.306193 35.557572 575.306193 35.070207 
Q 575.156234 34.245434 574.781338 34.132966 
" clip-path="url(#pee8fc32d68)" style="fill: none; stroke: #000000; stroke-linejoin: miter"/>
   </g>
  </g>
  <g id="axes_37"/>
  <g id="axes_38">
   <g id="patch_33">
    <path d="M 600.849016 45.151664 
L 601.109839 29.50229 
L 601.109839 28.893703 
Q 601.109839 28.66186 601.21127 28.299606 
Q 601.312701 27.937352 601.457603 27.937352 
Q 602.355993 27.937352 603.239893 29.270447 
Q 604.123792 30.603542 604.659928 32.19746 
Q 605.196064 33.791377 605.7322 35.124472 
Q 606.268336 36.457567 606.58712 36.457567 
Q 607.079785 36.457567 607.760823 35.023041 
Q 608.44186 33.588515 609.035957 31.849696 
Q 609.630054 30.110877 610.441503 28.676351 
Q 611.252952 27.241825 611.97746 27.241825 
Q 612.672987 27.241825 613.122182 30.632522 
Q 613.571377 34.02322 613.78873 38.50068 
Q 614.006082 42.97814 614.064043 43.325903 
L 614.150984 46.108014 
" clip-path="url(#p5227229a46)" style="fill: none; stroke: #000000; stroke-linejoin: miter"/>
   </g>
  </g>
  <g id="axes_39">
   <g id="patch_34">
    <path d="M 626.9616 35.032717 
Q 625.91189 34.582841 624.937159 34.69531 
Q 621.900497 35.032717 619.988524 36.701007 
Q 618.076552 38.369297 618.076552 41.330979 
Q 618.076552 43.917766 620.082248 45.6048 
Q 622.087945 47.291834 624.712221 47.291834 
Q 627.074069 47.291834 628.198759 45.361117 
Q 629.323448 43.4304 629.323448 40.881103 
Q 629.323448 39.643945 628.911062 38.706703 
Q 628.498676 37.769462 627.973821 37.300841 
Q 627.448966 36.832221 626.699172 36.119917 
Q 625.949379 35.407614 625.499503 34.69531 
L 624.262345 34.245434 
" clip-path="url(#pf803a4bcfe)" style="fill: none; stroke: #000000; stroke-linejoin: miter"/>
   </g>
  </g>
  <g id="axes_40">
   <g id="patch_35">
    <path d="M 635.288772 35.145186 
Q 635.288772 35.145186 635.288772 35.595062 
Q 635.288772 36.269876 635.176303 37.619503 
Q 635.063834 38.969131 635.063834 39.643945 
Q 635.063834 41.930814 636.300993 43.599103 
Q 637.538152 45.267393 639.675062 45.267393 
Q 641.062179 45.154924 641.830717 43.917766 
Q 642.599255 42.680607 642.749214 41.237255 
Q 642.899172 39.793903 643.1616 37.9944 
Q 643.424028 36.194897 643.836414 35.370124 
Q 643.986372 35.070207 643.986372 35.670041 
Q 643.986372 36.269876 643.723945 38.706703 
Q 643.499007 41.031062 643.499007 41.555917 
Q 643.349048 42.643117 643.686455 43.767807 
Q 644.023862 44.892497 644.736166 45.6048 
" clip-path="url(#p50bbf7ce96)" style="fill: none; stroke: #000000; stroke-linejoin: miter"/>
   </g>
  </g>
  <g id="axes_41">
   <g id="patch_36">
    <path d="M 651.638731 37.282097 
L 651.638731 37.844441 
Q 651.901159 39.868883 651.938648 41.312234 
Q 651.976138 42.755586 651.882414 44.667559 
Q 651.78869 46.579531 651.78869 48.191586 
L 651.863669 39.643945 
Q 651.863669 38.144359 653.456979 37.507034 
Q 655.05029 36.86971 656.474897 37.282097 
Q 658.386869 37.844441 659.305366 39.04411 
Q 660.223862 40.243779 660.280097 41.668386 
Q 660.336331 43.092993 660.373821 44.817517 
Q 660.41131 46.542041 660.561269 48.191586 
" clip-path="url(#pba66c0c74d)" style="fill: none; stroke: #000000; stroke-linejoin: miter"/>
   </g>
  </g>
  <g id="axes_42">
   <g id="patch_37">
    <path d="M 667.463834 37.95691 
L 668.138648 37.95691 
Q 668.850952 37.95691 669.638234 37.881931 
Q 670.425517 37.806952 671.381503 37.675738 
Q 672.33749 37.544524 672.862345 37.507034 
L 677.136166 35.82 
M 673.087283 30.42149 
L 673.087283 31.43371 
Q 673.087283 33.383172 672.412469 37.207117 
Q 671.737655 41.031062 671.737655 43.018014 
Q 671.737655 43.805297 671.737655 44.105214 
Q 671.737655 44.405131 671.831379 45.042455 
Q 671.925103 45.679779 672.112552 45.960952 
Q 672.3 46.242124 672.693641 46.485807 
Q 673.087283 46.72949 673.649628 46.72949 
Q 673.762097 46.692 674.080759 46.72949 
Q 674.399421 46.766979 674.586869 46.710745 
Q 674.774317 46.65451 674.774317 46.392083 
" clip-path="url(#pb4598f4d4a)" style="fill: none; stroke: #000000; stroke-linejoin: miter"/>
   </g>
  </g>
  <g id="axes_43"/>
  <g id="axes_44">
   <g id="patch_38">
    <path d="M 710.948571 31.763193 
Q 709.20605 29.585042 707.259328 28.972437 
Q 705.312605 28.359832 702.535462 29.285546 
Q 700.656807 29.966218 699.309076 31.817647 
Q 697.961345 33.669076 697.961345 35.411597 
Q 697.961345 38.760504 700.588739 41.415126 
Q 703.216134 44.069748 706.456134 44.069748 
Q 707.300168 44.069748 707.98084 43.729412 
Q 708.661513 43.389076 709.056303 42.953445 
Q 709.451092 42.517815 710.022857 41.918824 
Q 710.594622 41.319832 711.111933 40.965882 
L 711.438655 40.149076 
" clip-path="url(#pdb16539054)" style="fill: none; stroke: #000000; stroke-linejoin: miter"/>
   </g>
  </g>
  <g id="axes_45">
   <g id="patch_39">
    <path d="M 717.413462 32.783338 
Q 717.938317 34.507862 718.069531 36.457324 
Q 718.200745 38.406786 718.125766 40.956083 
Q 718.050786 43.505379 718.088276 44.705048 
L 718.200745 46.054676 
L 718.200745 45.829738 
Q 718.200745 44.667559 717.919572 42.30571 
Q 717.6384 39.943862 717.6384 38.744193 
Q 717.6384 36.419834 718.650621 34.882759 
Q 719.662841 33.345683 721.687283 33.345683 
Q 722.399586 33.345683 722.736993 33.626855 
Q 723.0744 33.908028 723.336828 34.432883 
Q 723.599255 34.957738 723.936662 35.257655 
L 724.386538 36.832221 
" clip-path="url(#p936e340368)" style="fill: none; stroke: #000000; stroke-linejoin: miter"/>
   </g>
  </g>
  <g id="axes_46">
   <g id="patch_40">
    <path d="M 742.643923 36.441748 
Q 741.434968 35.094627 737.462687 35.094627 
Q 735.942857 35.094627 735.165672 35.146439 
Q 734.388486 35.198252 733.38678 35.440043 
Q 732.385075 35.681834 731.901493 36.182687 
Q 731.41791 36.683539 731.072495 37.616162 
Q 730.727079 38.548785 730.727079 39.964989 
Q 730.727079 42.037484 732.143284 43.280981 
Q 733.559488 44.524478 735.493817 44.524478 
Q 738.153518 44.524478 740.916844 38.721493 
Q 742.263966 35.854542 742.263966 35.82 
Q 742.609382 35.578209 742.643923 36.441748 
Q 742.643923 37.512537 743.058422 40.362217 
Q 743.472921 43.211898 743.472921 44.524478 
" clip-path="url(#p23ceeef4d6)" style="fill: none; stroke: #000000; stroke-linejoin: miter"/>
   </g>
  </g>
  <g id="axes_47">
   <g id="patch_41">
    <path d="M 748.838731 37.282097 
L 748.838731 37.844441 
Q 749.101159 39.868883 749.138648 41.312234 
Q 749.176138 42.755586 749.082414 44.667559 
Q 748.98869 46.579531 748.98869 48.191586 
L 749.063669 39.643945 
Q 749.063669 38.144359 750.656979 37.507034 
Q 752.25029 36.86971 753.674897 37.282097 
Q 755.586869 37.844441 756.505366 39.04411 
Q 757.423862 40.243779 757.480097 41.668386 
Q 757.536331 43.092993 757.573821 44.817517 
Q 757.61131 46.542041 757.761269 48.191586 
" clip-path="url(#pb36d7732b9)" style="fill: none; stroke: #000000; stroke-linejoin: miter"/>
   </g>
  </g>
  <g id="axes_48">
   <g id="patch_42">
    <path d="M 767.194386 35.595062 
L 771.805614 35.707531 
" clip-path="url(#p336e7a6fb7)" style="fill: none; stroke: #000000; stroke-linejoin: miter"/>
   </g>
  </g>
 </g>
 <defs>
  <clipPath id="p70afb4c5ff">
   <rect x="1.389352" y="8.64" width="13.421297" height="54.36"/>
  </clipPath>
  <clipPath id="pb2d5c9d778">
   <rect x="18.938979" y="8.64" width="10.722041" height="54.36"/>
  </clipPath>
  <clipPath id="p9a65d8537a">
   <rect x="32.4" y="10.777356" width="16.2" height="50.085288"/>
  </clipPath>
  <clipPath id="p2ed5f09e14">
   <rect x="48.6" y="9.949956" width="16.2" height="51.740088"/>
  </clipPath>
  <clipPath id="p09e9b8ad18">
   <rect x="64.8" y="9.949956" width="16.2" height="51.740088"/>
  </clipPath>
  <clipPath id="p2aed7c48e2">
   <rect x="86.606938" y="8.64" width="4.986124" height="54.36"/>
  </clipPath>
  <clipPath id="p176c833c72">
   <rect x="97.2" y="11.850612" width="16.2" height="47.938776"/>
  </clipPath>
  <clipPath id="p01eba69eeb">
   <rect x="116.588855" y="8.64" width="9.82229" height="54.36"/>
  </clipPath>
  <clipPath id="p03071a68ef">
   <rect x="135.413131" y="8.64" width="4.573738" height="54.36"/>
  </clipPath>
  <clipPath id="pc9c52e3cef">
   <rect x="162" y="20.054899" width="16.2" height="31.530201"/>
  </clipPath>
  <clipPath id="p442b03e23d">
   <rect x="180.938979" y="8.64" width="10.722041" height="54.36"/>
  </clipPath>
  <clipPath id="p875547bc96">
   <rect x="194.4" y="8.881927" width="16.2" height="53.876147"/>
  </clipPath>
  <clipPath id="pee5688f6f6">
   <rect x="229.538979" y="8.64" width="10.722041" height="54.36"/>
  </clipPath>
  <clipPath id="p82cc5821c7">
   <rect x="243.602069" y="8.64" width="14.995862" height="54.36"/>
  </clipPath>
  <clipPath id="p0019465c69">
   <rect x="259.2" y="10.777356" width="16.2" height="50.085288"/>
  </clipPath>
  <clipPath id="pc41352b284">
   <rect x="276.451945" y="8.64" width="14.09611" height="54.36"/>
  </clipPath>
  <clipPath id="pde12d20471">
   <rect x="309.582993" y="8.64" width="12.634014" height="54.36"/>
  </clipPath>
  <clipPath id="p20468d5980">
   <rect x="329.606938" y="8.64" width="4.986124" height="54.36"/>
  </clipPath>
  <clipPath id="pd2fabf6758">
   <rect x="340.2" y="9.426742" width="16.2" height="52.786517"/>
  </clipPath>
  <clipPath id="p11fde7b5d6">
   <rect x="358.164248" y="8.64" width="12.671503" height="54.36"/>
  </clipPath>
  <clipPath id="pf088042184">
   <rect x="388.8" y="10.777356" width="16.2" height="50.085288"/>
  </clipPath>
  <clipPath id="p2b11a5dccd">
   <rect x="407.738979" y="8.64" width="10.722041" height="54.36"/>
  </clipPath>
  <clipPath id="p78562702f8">
   <rect x="421.2" y="8.881927" width="16.2" height="53.876147"/>
  </clipPath>
  <clipPath id="pb4143126e2">
   <rect x="437.4" y="10.777356" width="16.2" height="50.085288"/>
  </clipPath>
  <clipPath id="p1144c91a19">
   <rect x="454.651945" y="8.64" width="14.09611" height="54.36"/>
  </clipPath>
  <clipPath id="p9f72cdd3ad">
   <rect x="488.738979" y="8.64" width="10.722041" height="54.36"/>
  </clipPath>
  <clipPath id="p9bfc43bb44">
   <rect x="502.2" y="8.881927" width="16.2" height="53.876147"/>
  </clipPath>
  <clipPath id="pbc177c3366">
   <rect x="518.4" y="10.777356" width="16.2" height="50.085288"/>
  </clipPath>
  <clipPath id="pbe7be6c6d9">
   <rect x="535.651945" y="8.64" width="14.09611" height="54.36"/>
  </clipPath>
  <clipPath id="p5ed7a96d71">
   <rect x="552.582993" y="8.64" width="12.634014" height="54.36"/>
  </clipPath>
  <clipPath id="pee8fc32d68">
   <rect x="572.906855" y="8.64" width="4.38629" height="54.36"/>
  </clipPath>
  <clipPath id="p5227229a46">
   <rect x="599.4" y="14.809267" width="16.2" height="42.021467"/>
  </clipPath>
  <clipPath id="pf803a4bcfe">
   <rect x="616.202069" y="8.64" width="14.995862" height="54.36"/>
  </clipPath>
  <clipPath id="p50bbf7ce96">
   <rect x="633.189352" y="8.64" width="13.421297" height="54.36"/>
  </clipPath>
  <clipPath id="pba66c0c74d">
   <rect x="649.764248" y="8.64" width="12.671503" height="54.36"/>
  </clipPath>
  <clipPath id="pb4598f4d4a">
   <rect x="665.589352" y="8.64" width="13.421297" height="54.36"/>
  </clipPath>
  <clipPath id="pdb16539054">
   <rect x="696.6" y="16.080504" width="16.2" height="39.478992"/>
  </clipPath>
  <clipPath id="p936e340368">
   <rect x="715.538979" y="8.64" width="10.722041" height="54.36"/>
  </clipPath>
  <clipPath id="p23ceeef4d6">
   <rect x="729" y="10.777356" width="16.2" height="50.085288"/>
  </clipPath>
  <clipPath id="pb36d7732b9">
   <rect x="746.964248" y="8.64" width="12.671503" height="54.36"/>
  </clipPath>
  <clipPath id="p336e7a6fb7">
   <rect x="765.319903" y="8.64" width="8.360193" height="54.36"/>
  </clipPath>
 </defs>
</svg>
