<?xml version="1.0" encoding="utf-8" standalone="no"?>
<!DOCTYPE svg PUBLIC "-//W3C//DTD SVG 1.1//EN"
  "http://www.w3.org/Graphics/SVG/1.1/DTD/svg11.dtd">
<svg xmlns:xlink="http://www.w3.org/1999/xlink" width="828pt" height="72pt" viewBox="0 0 828 72" xmlns="http://www.w3.org/2000/svg" version="1.1">
 <metadata>
  <rdf:RDF xmlns:dc="http://purl.org/dc/elements/1.1/" xmlns:cc="http://creativecommons.org/ns#" xmlns:rdf="http://www.w3.org/1999/02/22-rdf-syntax-ns#">
   <cc:Work>
    <dc:type rdf:resource="http://purl.org/dc/dcmitype/StillImage"/>
    <dc:date>2023-12-21T11:48:31.392058</dc:date>
    <dc:format>image/svg+xml</dc:format>
    <dc:creator>
     <cc:Agent>
      <dc:title>Matplotlib v3.5.1, https://matplotlib.org/</dc:title>
     </cc:Agent>
    </dc:creator>
   </cc:Work>
  </rdf:RDF>
 </metadata>
 <defs>
  <style type="text/css">*{stroke-linejoin: round; stroke-linecap: butt}</style>
 </defs>
 <g id="figure_1">
  <g id="patch_1">
   <path d="M 0 72 
L 828 72 
L 828 0 
L 0 0 
z
" style="fill: #8fff9f"/>
  </g>
  <g id="axes_1">
   <g id="patch_2">
    <path d="M 11.699007 39.568966 
Q 10.349379 38.181848 8.1 38.444276 
Q 5.250786 38.444276 4.088607 39.793903 
Q 2.926428 41.143531 2.926428 44.067724 
Q 2.926428 45.56731 4.219821 46.279614 
Q 5.513214 46.991917 7.087779 46.991917 
Q 8.399917 46.991917 9.412138 45.736014 
Q 10.424359 44.48011 11.005448 42.30571 
Q 11.586538 40.13131 11.961434 37.938166 
Q 12.336331 35.745021 12.48629 33.045766 
Q 12.636248 30.34651 12.673738 28.978138 
Q 12.711228 27.609766 12.711228 26.185159 
Q 12.48629 26.260138 12.48629 29.896634 
L 12.48629 44.292662 
L 13.273572 48.229076 
" clip-path="url(#p91a218d517)" style="fill: none; stroke: #000000; stroke-linejoin: miter"/>
   </g>
  </g>
  <g id="axes_2">
   <g id="patch_3">
    <path d="M 18.057798 38.160826 
Q 21.030275 39.535596 25.749083 39.721376 
Q 27.272477 39.721376 27.959862 38.550963 
Q 28.647248 37.38055 28.647248 35.82 
Q 28.647248 35.299817 28.554358 34.909679 
Q 28.461468 34.519541 28.219954 34.296606 
Q 27.97844 34.07367 27.811239 33.943624 
Q 27.644037 33.813578 27.198165 33.757844 
Q 26.752294 33.70211 26.547936 33.683532 
Q 26.343578 33.664954 25.767661 33.683532 
Q 25.191743 33.70211 24.968807 33.70211 
Q 22.925229 33.70211 21.438991 35.578486 
Q 19.952752 37.454862 19.952752 39.609908 
Q 19.952752 42.619541 21.884862 44.570229 
Q 23.816972 46.520917 26.863761 46.520917 
Q 29.018807 46.818165 30.542202 44.29156 
" clip-path="url(#p1e2ebe953d)" style="fill: none; stroke: #000000; stroke-linejoin: miter"/>
   </g>
  </g>
  <g id="axes_3">
   <g id="patch_4">
    <path d="M 37.013462 32.783338 
Q 37.538317 34.507862 37.669531 36.457324 
Q 37.800745 38.406786 37.725766 40.956083 
Q 37.650786 43.505379 37.688276 44.705048 
L 37.800745 46.054676 
L 37.800745 45.829738 
Q 37.800745 44.667559 37.519572 42.30571 
Q 37.2384 39.943862 37.2384 38.744193 
Q 37.2384 36.419834 38.250621 34.882759 
Q 39.262841 33.345683 41.287283 33.345683 
Q 41.999586 33.345683 42.336993 33.626855 
Q 42.6744 33.908028 42.936828 34.432883 
Q 43.199255 34.957738 43.536662 35.257655 
L 43.986538 36.832221 
" clip-path="url(#pd2eeed6add)" style="fill: none; stroke: #000000; stroke-linejoin: miter"/>
   </g>
  </g>
  <g id="axes_4"/>
  <g id="axes_5">
   <g id="patch_5">
    <path d="M 76.1616 35.032717 
Q 75.11189 34.582841 74.137159 34.69531 
Q 71.100497 35.032717 69.188524 36.701007 
Q 67.276552 38.369297 67.276552 41.330979 
Q 67.276552 43.917766 69.282248 45.6048 
Q 71.287945 47.291834 73.912221 47.291834 
Q 76.274069 47.291834 77.398759 45.361117 
Q 78.523448 43.4304 78.523448 40.881103 
Q 78.523448 39.643945 78.111062 38.706703 
Q 77.698676 37.769462 77.173821 37.300841 
Q 76.648966 36.832221 75.899172 36.119917 
Q 75.149379 35.407614 74.699503 34.69531 
L 73.462345 34.245434 
" clip-path="url(#pe0b700163b)" style="fill: none; stroke: #000000; stroke-linejoin: miter"/>
   </g>
  </g>
  <g id="axes_6">
   <g id="patch_6">
    <path d="M 82.784141 38.85304 
L 83.212335 38.85304 
Q 84.03304 38.85304 84.996476 38.745991 
Q 85.959912 38.638943 87.119604 38.460529 
Q 88.279295 38.282115 88.885903 38.210749 
L 95.415859 35.427489 
M 95.094714 25.793128 
Q 94.809251 25.721762 93.774449 25.275727 
Q 92.739648 24.829692 92.097357 24.93674 
Q 91.455066 24.93674 90.937665 25.150837 
Q 90.420264 25.364934 90.081278 25.793128 
Q 89.742291 26.221322 89.47467 26.685198 
Q 89.207048 27.149075 89.064317 27.862731 
Q 88.921586 28.576388 88.814537 29.129471 
Q 88.707489 29.682555 88.689648 30.50326 
Q 88.671806 31.323965 88.653965 31.77 
Q 88.636123 32.216035 88.653965 32.965374 
Q 88.671806 33.714714 88.671806 33.928811 
Q 88.671806 36.605022 89.367621 41.850396 
Q 90.063436 47.095771 90.063436 49.771982 
Q 89.99207 50.057445 89.956388 50.681894 
Q 89.920705 51.306344 89.813656 51.805903 
Q 89.706608 52.305463 89.421145 52.555242 
" clip-path="url(#pa3cde765f5)" style="fill: none; stroke: #000000; stroke-linejoin: miter"/>
   </g>
  </g>
  <g id="axes_7"/>
  <g id="axes_8">
   <g id="patch_7">
    <path d="M 116.663834 37.95691 
L 117.338648 37.95691 
Q 118.050952 37.95691 118.838234 37.881931 
Q 119.625517 37.806952 120.581503 37.675738 
Q 121.53749 37.544524 122.062345 37.507034 
L 126.336166 35.82 
M 122.287283 30.42149 
L 122.287283 31.43371 
Q 122.287283 33.383172 121.612469 37.207117 
Q 120.937655 41.031062 120.937655 43.018014 
Q 120.937655 43.805297 120.937655 44.105214 
Q 120.937655 44.405131 121.031379 45.042455 
Q 121.125103 45.679779 121.312552 45.960952 
Q 121.5 46.242124 121.893641 46.485807 
Q 122.287283 46.72949 122.849628 46.72949 
Q 122.962097 46.692 123.280759 46.72949 
Q 123.599421 46.766979 123.786869 46.710745 
Q 123.974317 46.65451 123.974317 46.392083 
" clip-path="url(#p0e34250eca)" style="fill: none; stroke: #000000; stroke-linejoin: miter"/>
   </g>
  </g>
  <g id="axes_9">
   <g id="patch_8">
    <path d="M 134.213462 35.932469 
Q 134.813297 35.257655 135.806772 34.826524 
Q 136.800248 34.395393 137.7 34.470372 
Q 138.337324 34.470372 138.82469 34.639076 
Q 139.312055 34.807779 139.630717 34.995228 
Q 139.949379 35.182676 140.174317 35.670041 
Q 140.399255 36.157407 140.511724 36.419834 
Q 140.624193 36.682262 140.680428 37.375821 
Q 140.736662 38.069379 140.755407 38.331807 
Q 140.774152 38.594234 140.755407 39.419007 
Q 140.736662 40.243779 140.736662 40.431228 
Q 140.736662 41.368469 140.567959 43.242952 
Q 140.399255 45.117434 140.399255 46.054676 
Q 140.399255 46.467062 140.45549 46.823214 
Q 140.511724 47.179366 140.605448 47.610497 
Q 140.699172 48.041628 140.736662 48.304055 
L 141.186538 48.528993 
M 134.663338 23.111007 
Q 134.888276 24.798041 134.888276 29.971614 
L 134.888276 42.3432 
L 134.550869 46.841959 
L 134.325931 47.74171 
" clip-path="url(#pce359212b1)" style="fill: none; stroke: #000000; stroke-linejoin: miter"/>
   </g>
  </g>
  <g id="axes_10">
   <g id="patch_9">
    <path d="M 147.657798 38.160826 
Q 150.630275 39.535596 155.349083 39.721376 
Q 156.872477 39.721376 157.559862 38.550963 
Q 158.247248 37.38055 158.247248 35.82 
Q 158.247248 35.299817 158.154358 34.909679 
Q 158.061468 34.519541 157.819954 34.296606 
Q 157.57844 34.07367 157.411239 33.943624 
Q 157.244037 33.813578 156.798165 33.757844 
Q 156.352294 33.70211 156.147936 33.683532 
Q 155.943578 33.664954 155.367661 33.683532 
Q 154.791743 33.70211 154.568807 33.70211 
Q 152.525229 33.70211 151.038991 35.578486 
Q 149.552752 37.454862 149.552752 39.609908 
Q 149.552752 42.619541 151.484862 44.570229 
Q 153.416972 46.520917 156.463761 46.520917 
Q 158.618807 46.818165 160.142202 44.29156 
" clip-path="url(#pd3e0c34acc)" style="fill: none; stroke: #000000; stroke-linejoin: miter"/>
   </g>
  </g>
  <g id="axes_11"/>
  <g id="axes_12">
   <g id="patch_10">
    <path d="M 191.556735 34.365306 
Q 191.556735 34.365306 191.060816 34.365306 
Q 190.267347 34.365306 188.779592 34.067755 
Q 187.291837 33.770204 186.498367 33.770204 
Q 183.721224 33.770204 181.787143 35.224898 
Q 179.853061 36.679592 179.853061 39.423673 
Q 179.853061 40.94449 181.340816 42.399184 
Q 182.828571 43.853878 184.762653 44.663878 
Q 186.696735 45.473878 188.18449 45.473878 
Q 189.110204 45.473878 189.80449 45.110204 
Q 190.498776 44.746531 191.242653 44.118367 
Q 191.986531 43.490204 192.548571 43.192653 
L 192.746939 42.696735 
" clip-path="url(#p1ded7ca037)" style="fill: none; stroke: #000000; stroke-linejoin: miter"/>
   </g>
  </g>
  <g id="axes_13">
   <g id="patch_11">
    <path d="M 205.7616 35.032717 
Q 204.71189 34.582841 203.737159 34.69531 
Q 200.700497 35.032717 198.788524 36.701007 
Q 196.876552 38.369297 196.876552 41.330979 
Q 196.876552 43.917766 198.882248 45.6048 
Q 200.887945 47.291834 203.512221 47.291834 
Q 205.874069 47.291834 206.998759 45.361117 
Q 208.123448 43.4304 208.123448 40.881103 
Q 208.123448 39.643945 207.711062 38.706703 
Q 207.298676 37.769462 206.773821 37.300841 
Q 206.248966 36.832221 205.499172 36.119917 
Q 204.749379 35.407614 204.299503 34.69531 
L 203.062345 34.245434 
" clip-path="url(#pd726232bcc)" style="fill: none; stroke: #000000; stroke-linejoin: miter"/>
   </g>
  </g>
  <g id="axes_14">
   <g id="patch_12">
    <path d="M 212.408036 34.879821 
Q 212.914286 36.073125 213.203571 42.871339 
Q 213.348214 46.632054 213.6375 46.632054 
Q 213.673661 46.632054 213.709821 46.595893 
Q 214.216071 46.017321 214.270313 44.588973 
Q 214.324554 43.160625 214.107589 41.750357 
Q 213.890625 40.340089 213.6375 38.712857 
Q 213.384375 37.085625 213.384375 36.398571 
Q 213.384375 35.169107 213.764063 33.939643 
Q 214.14375 32.710179 215.120089 32.710179 
Q 216.349554 32.710179 217.072768 34.355491 
Q 217.795982 36.000804 217.958705 37.971562 
Q 218.121429 39.942321 218.229911 41.587634 
Q 218.338393 43.232946 218.483036 43.232946 
Q 218.627679 43.232946 218.71808 41.497232 
Q 218.808482 39.761518 218.935045 37.700357 
Q 219.061607 35.639196 219.784821 33.903482 
Q 220.508036 32.167768 221.7375 32.167768 
Q 223.292411 33.035625 223.961384 34.771339 
Q 224.630357 36.507054 224.594196 38.188527 
Q 224.558036 39.87 224.576116 42.057723 
Q 224.594196 44.245446 224.991964 45.511071 
" clip-path="url(#p3dce18ca9c)" style="fill: none; stroke: #000000; stroke-linejoin: miter"/>
   </g>
  </g>
  <g id="axes_15">
   <g id="patch_13">
    <path d="M 235.518579 29.071862 
Q 235.143683 29.146841 235.012469 29.577972 
Q 234.881255 30.009103 234.956234 30.42149 
Q 234.956234 30.571448 234.993724 30.702662 
Q 235.031214 30.833876 235.087448 30.89011 
Q 235.143683 30.946345 235.199917 31.040069 
Q 235.256152 31.133793 235.293641 31.208772 
L 235.40611 29.859145 
M 235.40611 34.020497 
Q 234.506359 39.006621 234.281421 42.793076 
L 234.731297 45.379862 
L 235.068703 46.054676 
" clip-path="url(#p9c12cb35ba)" style="fill: none; stroke: #000000; stroke-linejoin: miter"/>
   </g>
  </g>
  <g id="axes_16">
   <g id="patch_14">
    <path d="M 246.638731 37.282097 
L 246.638731 37.844441 
Q 246.901159 39.868883 246.938648 41.312234 
Q 246.976138 42.755586 246.882414 44.667559 
Q 246.78869 46.579531 246.78869 48.191586 
L 246.863669 39.643945 
Q 246.863669 38.144359 248.456979 37.507034 
Q 250.05029 36.86971 251.474897 37.282097 
Q 253.386869 37.844441 254.305366 39.04411 
Q 255.223862 40.243779 255.280097 41.668386 
Q 255.336331 43.092993 255.373821 44.817517 
Q 255.41131 46.542041 255.561269 48.191586 
" clip-path="url(#pfa09d0ab44)" style="fill: none; stroke: #000000; stroke-linejoin: miter"/>
   </g>
  </g>
  <g id="axes_17">
   <g id="patch_15">
    <path d="M 272.087191 39.096404 
Q 271.83236 39.023596 270.86764 38.623146 
Q 269.902921 38.222697 269.24764 38.077079 
Q 268.59236 37.931461 267.937079 38.00427 
Q 265.315955 38.00427 263.677753 40.388764 
Q 262.039551 42.773258 262.039551 45.430787 
Q 262.039551 47.068989 267.281798 47.068989 
Q 268.847191 47.068989 270.175955 45.558202 
Q 271.504719 44.047416 272.178202 42.172584 
Q 272.851685 40.297753 272.851685 38.768764 
Q 272.851685 37.27618 272.815281 36.984944 
L 272.742472 38.077079 
Q 272.742472 38.550337 272.742472 38.987191 
Q 272.778876 40.188539 272.979101 42.281798 
Q 273.179326 44.375056 273.343146 46.049663 
Q 273.506966 47.72427 273.543371 49.872135 
Q 273.579775 52.02 273.415955 53.658202 
Q 273.252135 55.296404 272.687865 56.971011 
Q 272.123596 58.645618 271.195281 59.737753 
Q 270.266966 60.829888 268.665169 61.521573 
Q 267.063371 62.213258 264.915506 62.213258 
Q 263.277303 62.213258 262.185169 61.466966 
Q 261.093034 60.720674 261.093034 59.155281 
Q 261.020225 58.936854 261.056629 58.936854 
Q 261.093034 58.936854 261.202247 58.936854 
Q 261.311461 58.936854 261.311461 58.82764 
" clip-path="url(#p7879fc578a)" style="fill: none; stroke: #000000; stroke-linejoin: miter"/>
   </g>
  </g>
  <g id="axes_18"/>
  <g id="axes_19">
   <g id="patch_16">
    <path d="M 296.213462 35.932469 
Q 296.813297 35.257655 297.806772 34.826524 
Q 298.800248 34.395393 299.7 34.470372 
Q 300.337324 34.470372 300.82469 34.639076 
Q 301.312055 34.807779 301.630717 34.995228 
Q 301.949379 35.182676 302.174317 35.670041 
Q 302.399255 36.157407 302.511724 36.419834 
Q 302.624193 36.682262 302.680428 37.375821 
Q 302.736662 38.069379 302.755407 38.331807 
Q 302.774152 38.594234 302.755407 39.419007 
Q 302.736662 40.243779 302.736662 40.431228 
Q 302.736662 41.368469 302.567959 43.242952 
Q 302.399255 45.117434 302.399255 46.054676 
Q 302.399255 46.467062 302.45549 46.823214 
Q 302.511724 47.179366 302.605448 47.610497 
Q 302.699172 48.041628 302.736662 48.304055 
L 303.186538 48.528993 
M 296.663338 23.111007 
Q 296.888276 24.798041 296.888276 29.971614 
L 296.888276 42.3432 
L 296.550869 46.841959 
L 296.325931 47.74171 
" clip-path="url(#p2ba8eb94d9)" style="fill: none; stroke: #000000; stroke-linejoin: miter"/>
   </g>
  </g>
  <g id="axes_20">
   <g id="patch_17">
    <path d="M 321.443923 36.441748 
Q 320.234968 35.094627 316.262687 35.094627 
Q 314.742857 35.094627 313.965672 35.146439 
Q 313.188486 35.198252 312.18678 35.440043 
Q 311.185075 35.681834 310.701493 36.182687 
Q 310.21791 36.683539 309.872495 37.616162 
Q 309.527079 38.548785 309.527079 39.964989 
Q 309.527079 42.037484 310.943284 43.280981 
Q 312.359488 44.524478 314.293817 44.524478 
Q 316.953518 44.524478 319.716844 38.721493 
Q 321.063966 35.854542 321.063966 35.82 
Q 321.409382 35.578209 321.443923 36.441748 
Q 321.443923 37.512537 321.858422 40.362217 
Q 322.272921 43.211898 322.272921 44.524478 
" clip-path="url(#p650abbe03b)" style="fill: none; stroke: #000000; stroke-linejoin: miter"/>
   </g>
  </g>
  <g id="axes_21">
   <g id="patch_18">
    <path d="M 332.718579 29.071862 
Q 332.343683 29.146841 332.212469 29.577972 
Q 332.081255 30.009103 332.156234 30.42149 
Q 332.156234 30.571448 332.193724 30.702662 
Q 332.231214 30.833876 332.287448 30.89011 
Q 332.343683 30.946345 332.399917 31.040069 
Q 332.456152 31.133793 332.493641 31.208772 
L 332.60611 29.859145 
M 332.60611 34.020497 
Q 331.706359 39.006621 331.481421 42.793076 
L 331.931297 45.379862 
L 332.268703 46.054676 
" clip-path="url(#p62ea232fc5)" style="fill: none; stroke: #000000; stroke-linejoin: miter"/>
   </g>
  </g>
  <g id="axes_22">
   <g id="patch_19">
    <path d="M 344.813462 32.783338 
Q 345.338317 34.507862 345.469531 36.457324 
Q 345.600745 38.406786 345.525766 40.956083 
Q 345.450786 43.505379 345.488276 44.705048 
L 345.600745 46.054676 
L 345.600745 45.829738 
Q 345.600745 44.667559 345.319572 42.30571 
Q 345.0384 39.943862 345.0384 38.744193 
Q 345.0384 36.419834 346.050621 34.882759 
Q 347.062841 33.345683 349.087283 33.345683 
Q 349.799586 33.345683 350.136993 33.626855 
Q 350.4744 33.908028 350.736828 34.432883 
Q 350.999255 34.957738 351.336662 35.257655 
L 351.786538 36.832221 
" clip-path="url(#pd8f1f60c46)" style="fill: none; stroke: #000000; stroke-linejoin: miter"/>
   </g>
  </g>
  <g id="axes_23">
   <g id="patch_20">
    <path d="M 359.720069 39.868883 
L 359.720069 39.419007 
Q 359.720069 37.769462 361.463338 36.682262 
Q 363.206607 35.595062 364.893641 35.595062 
Q 367.105531 35.595062 368.473903 36.794731 
Q 369.842276 37.9944 369.842276 40.20629 
Q 369.842276 42.30571 368.024028 43.336676 
Q 366.205779 44.367641 363.99389 44.367641 
Q 363.319076 44.367641 362.812966 44.255172 
Q 362.306855 44.142703 361.688276 43.917766 
Q 361.069697 43.692828 360.619821 43.580359 
L 359.495131 42.568138 
M 359.157724 36.832221 
Q 359.6076 38.444276 359.870028 40.262524 
Q 360.132455 42.080772 360.18869 43.749062 
Q 360.244924 45.417352 360.282414 47.27309 
Q 360.319903 49.128828 360.282414 50.778372 
L 360.169945 57.863917 
" clip-path="url(#p9690bed745)" style="fill: none; stroke: #000000; stroke-linejoin: miter"/>
   </g>
  </g>
  <g id="axes_24">
   <g id="patch_21">
    <path d="M 381.318579 29.071862 
Q 380.943683 29.146841 380.812469 29.577972 
Q 380.681255 30.009103 380.756234 30.42149 
Q 380.756234 30.571448 380.793724 30.702662 
Q 380.831214 30.833876 380.887448 30.89011 
Q 380.943683 30.946345 380.999917 31.040069 
Q 381.056152 31.133793 381.093641 31.208772 
L 381.20611 29.859145 
M 381.20611 34.020497 
Q 380.306359 39.006621 380.081421 42.793076 
L 380.531297 45.379862 
L 380.868703 46.054676 
" clip-path="url(#p759fe4272a)" style="fill: none; stroke: #000000; stroke-linejoin: miter"/>
   </g>
  </g>
  <g id="axes_25">
   <g id="patch_22">
    <path d="M 392.438731 37.282097 
L 392.438731 37.844441 
Q 392.701159 39.868883 392.738648 41.312234 
Q 392.776138 42.755586 392.682414 44.667559 
Q 392.58869 46.579531 392.58869 48.191586 
L 392.663669 39.643945 
Q 392.663669 38.144359 394.256979 37.507034 
Q 395.85029 36.86971 397.274897 37.282097 
Q 399.186869 37.844441 400.105366 39.04411 
Q 401.023862 40.243779 401.080097 41.668386 
Q 401.136331 43.092993 401.173821 44.817517 
Q 401.21131 46.542041 401.361269 48.191586 
" clip-path="url(#p0f734c4017)" style="fill: none; stroke: #000000; stroke-linejoin: miter"/>
   </g>
  </g>
  <g id="axes_26"/>
  <g id="axes_27">
   <g id="patch_23">
    <path d="M 422.984141 38.85304 
L 423.412335 38.85304 
Q 424.23304 38.85304 425.196476 38.745991 
Q 426.159912 38.638943 427.319604 38.460529 
Q 428.479295 38.282115 429.085903 38.210749 
L 435.615859 35.427489 
M 435.294714 25.793128 
Q 435.009251 25.721762 433.974449 25.275727 
Q 432.939648 24.829692 432.297357 24.93674 
Q 431.655066 24.93674 431.137665 25.150837 
Q 430.620264 25.364934 430.281278 25.793128 
Q 429.942291 26.221322 429.67467 26.685198 
Q 429.407048 27.149075 429.264317 27.862731 
Q 429.121586 28.576388 429.014537 29.129471 
Q 428.907489 29.682555 428.889648 30.50326 
Q 428.871806 31.323965 428.853965 31.77 
Q 428.836123 32.216035 428.853965 32.965374 
Q 428.871806 33.714714 428.871806 33.928811 
Q 428.871806 36.605022 429.567621 41.850396 
Q 430.263436 47.095771 430.263436 49.771982 
Q 430.19207 50.057445 430.156388 50.681894 
Q 430.120705 51.306344 430.013656 51.805903 
Q 429.906608 52.305463 429.621145 52.555242 
" clip-path="url(#p2a44757b1b)" style="fill: none; stroke: #000000; stroke-linejoin: miter"/>
   </g>
  </g>
  <g id="axes_28">
   <g id="patch_24">
    <path d="M 448.7616 35.032717 
Q 447.71189 34.582841 446.737159 34.69531 
Q 443.700497 35.032717 441.788524 36.701007 
Q 439.876552 38.369297 439.876552 41.330979 
Q 439.876552 43.917766 441.882248 45.6048 
Q 443.887945 47.291834 446.512221 47.291834 
Q 448.874069 47.291834 449.998759 45.361117 
Q 451.123448 43.4304 451.123448 40.881103 
Q 451.123448 39.643945 450.711062 38.706703 
Q 450.298676 37.769462 449.773821 37.300841 
Q 449.248966 36.832221 448.499172 36.119917 
Q 447.749379 35.407614 447.299503 34.69531 
L 446.062345 34.245434 
" clip-path="url(#p88d6524d91)" style="fill: none; stroke: #000000; stroke-linejoin: miter"/>
   </g>
  </g>
  <g id="axes_29">
   <g id="patch_25">
    <path d="M 458.213462 32.783338 
Q 458.738317 34.507862 458.869531 36.457324 
Q 459.000745 38.406786 458.925766 40.956083 
Q 458.850786 43.505379 458.888276 44.705048 
L 459.000745 46.054676 
L 459.000745 45.829738 
Q 459.000745 44.667559 458.719572 42.30571 
Q 458.4384 39.943862 458.4384 38.744193 
Q 458.4384 36.419834 459.450621 34.882759 
Q 460.462841 33.345683 462.487283 33.345683 
Q 463.199586 33.345683 463.536993 33.626855 
Q 463.8744 33.908028 464.136828 34.432883 
Q 464.399255 34.957738 464.736662 35.257655 
L 465.186538 36.832221 
" clip-path="url(#pd2f0abcce7)" style="fill: none; stroke: #000000; stroke-linejoin: miter"/>
   </g>
  </g>
  <g id="axes_30"/>
  <g id="axes_31">
   <g id="patch_26">
    <path d="M 499.643923 36.441748 
Q 498.434968 35.094627 494.462687 35.094627 
Q 492.942857 35.094627 492.165672 35.146439 
Q 491.388486 35.198252 490.38678 35.440043 
Q 489.385075 35.681834 488.901493 36.182687 
Q 488.41791 36.683539 488.072495 37.616162 
Q 487.727079 38.548785 487.727079 39.964989 
Q 487.727079 42.037484 489.143284 43.280981 
Q 490.559488 44.524478 492.493817 44.524478 
Q 495.153518 44.524478 497.916844 38.721493 
Q 499.263966 35.854542 499.263966 35.82 
Q 499.609382 35.578209 499.643923 36.441748 
Q 499.643923 37.512537 500.058422 40.362217 
Q 500.472921 43.211898 500.472921 44.524478 
" clip-path="url(#p46cefe00fd)" style="fill: none; stroke: #000000; stroke-linejoin: miter"/>
   </g>
  </g>
  <g id="axes_32"/>
  <g id="axes_33">
   <g id="patch_27">
    <path d="M 520.208036 34.879821 
Q 520.714286 36.073125 521.003571 42.871339 
Q 521.148214 46.632054 521.4375 46.632054 
Q 521.473661 46.632054 521.509821 46.595893 
Q 522.016071 46.017321 522.070312 44.588973 
Q 522.124554 43.160625 521.907589 41.750357 
Q 521.690625 40.340089 521.4375 38.712857 
Q 521.184375 37.085625 521.184375 36.398571 
Q 521.184375 35.169107 521.564063 33.939643 
Q 521.94375 32.710179 522.920089 32.710179 
Q 524.149554 32.710179 524.872768 34.355491 
Q 525.595982 36.000804 525.758705 37.971562 
Q 525.921429 39.942321 526.029911 41.587634 
Q 526.138393 43.232946 526.283036 43.232946 
Q 526.427679 43.232946 526.51808 41.497232 
Q 526.608482 39.761518 526.735045 37.700357 
Q 526.861607 35.639196 527.584821 33.903482 
Q 528.308036 32.167768 529.5375 32.167768 
Q 531.092411 33.035625 531.761384 34.771339 
Q 532.430357 36.507054 532.394196 38.188527 
Q 532.358036 39.87 532.376116 42.057723 
Q 532.394196 44.245446 532.791964 45.511071 
" clip-path="url(#pf5b7fd1bb5)" style="fill: none; stroke: #000000; stroke-linejoin: miter"/>
   </g>
  </g>
  <g id="axes_34">
   <g id="patch_28">
    <path d="M 545.9616 35.032717 
Q 544.91189 34.582841 543.937159 34.69531 
Q 540.900497 35.032717 538.988524 36.701007 
Q 537.076552 38.369297 537.076552 41.330979 
Q 537.076552 43.917766 539.082248 45.6048 
Q 541.087945 47.291834 543.712221 47.291834 
Q 546.074069 47.291834 547.198759 45.361117 
Q 548.323448 43.4304 548.323448 40.881103 
Q 548.323448 39.643945 547.911062 38.706703 
Q 547.498676 37.769462 546.973821 37.300841 
Q 546.448966 36.832221 545.699172 36.119917 
Q 544.949379 35.407614 544.499503 34.69531 
L 543.262345 34.245434 
" clip-path="url(#pe06ffa6744)" style="fill: none; stroke: #000000; stroke-linejoin: miter"/>
   </g>
  </g>
  <g id="axes_35">
   <g id="patch_29">
    <path d="M 552.608036 34.879821 
Q 553.114286 36.073125 553.403571 42.871339 
Q 553.548214 46.632054 553.8375 46.632054 
Q 553.873661 46.632054 553.909821 46.595893 
Q 554.416071 46.017321 554.470312 44.588973 
Q 554.524554 43.160625 554.307589 41.750357 
Q 554.090625 40.340089 553.8375 38.712857 
Q 553.584375 37.085625 553.584375 36.398571 
Q 553.584375 35.169107 553.964063 33.939643 
Q 554.34375 32.710179 555.320089 32.710179 
Q 556.549554 32.710179 557.272768 34.355491 
Q 557.995982 36.000804 558.158705 37.971562 
Q 558.321429 39.942321 558.429911 41.587634 
Q 558.538393 43.232946 558.683036 43.232946 
Q 558.827679 43.232946 558.91808 41.497232 
Q 559.008482 39.761518 559.135045 37.700357 
Q 559.261607 35.639196 559.984821 33.903482 
Q 560.708036 32.167768 561.9375 32.167768 
Q 563.492411 33.035625 564.161384 34.771339 
Q 564.830357 36.507054 564.794196 38.188527 
Q 564.758036 39.87 564.776116 42.057723 
Q 564.794196 44.245446 565.191964 45.511071 
" clip-path="url(#p19055f792e)" style="fill: none; stroke: #000000; stroke-linejoin: miter"/>
   </g>
  </g>
  <g id="axes_36">
   <g id="patch_30">
    <path d="M 568.857798 38.160826 
Q 571.830275 39.535596 576.549083 39.721376 
Q 578.072477 39.721376 578.759862 38.550963 
Q 579.447248 37.38055 579.447248 35.82 
Q 579.447248 35.299817 579.354358 34.909679 
Q 579.261468 34.519541 579.019954 34.296606 
Q 578.77844 34.07367 578.611239 33.943624 
Q 578.444037 33.813578 577.998165 33.757844 
Q 577.552294 33.70211 577.347936 33.683532 
Q 577.143578 33.664954 576.567661 33.683532 
Q 575.991743 33.70211 575.768807 33.70211 
Q 573.725229 33.70211 572.238991 35.578486 
Q 570.752752 37.454862 570.752752 39.609908 
Q 570.752752 42.619541 572.684862 44.570229 
Q 574.616972 46.520917 577.663761 46.520917 
Q 579.818807 46.818165 581.342202 44.29156 
" clip-path="url(#p54b78863af)" style="fill: none; stroke: #000000; stroke-linejoin: miter"/>
   </g>
  </g>
  <g id="axes_37">
   <g id="patch_31">
    <path d="M 586.838731 37.282097 
L 586.838731 37.844441 
Q 587.101159 39.868883 587.138648 41.312234 
Q 587.176138 42.755586 587.082414 44.667559 
Q 586.98869 46.579531 586.98869 48.191586 
L 587.063669 39.643945 
Q 587.063669 38.144359 588.656979 37.507034 
Q 590.25029 36.86971 591.674897 37.282097 
Q 593.586869 37.844441 594.505366 39.04411 
Q 595.423862 40.243779 595.480097 41.668386 
Q 595.536331 43.092993 595.573821 44.817517 
Q 595.61131 46.542041 595.761269 48.191586 
" clip-path="url(#p67a49a3373)" style="fill: none; stroke: #000000; stroke-linejoin: miter"/>
   </g>
  </g>
  <g id="axes_38">
   <g id="patch_32">
    <path d="M 602.663834 37.95691 
L 603.338648 37.95691 
Q 604.050952 37.95691 604.838234 37.881931 
Q 605.625517 37.806952 606.581503 37.675738 
Q 607.53749 37.544524 608.062345 37.507034 
L 612.336166 35.82 
M 608.287283 30.42149 
L 608.287283 31.43371 
Q 608.287283 33.383172 607.612469 37.207117 
Q 606.937655 41.031062 606.937655 43.018014 
Q 606.937655 43.805297 606.937655 44.105214 
Q 606.937655 44.405131 607.031379 45.042455 
Q 607.125103 45.679779 607.312552 45.960952 
Q 607.5 46.242124 607.893641 46.485807 
Q 608.287283 46.72949 608.849628 46.72949 
Q 608.962097 46.692 609.280759 46.72949 
Q 609.599421 46.766979 609.786869 46.710745 
Q 609.974317 46.65451 609.974317 46.392083 
" clip-path="url(#p3b2b6650c4)" style="fill: none; stroke: #000000; stroke-linejoin: miter"/>
   </g>
  </g>
  <g id="axes_39"/>
  <g id="axes_40">
   <g id="patch_33">
    <path d="M 641.905697 25.585324 
Q 639.993724 27.08491 638.944014 29.615462 
Q 637.894303 32.146014 638.194221 34.582841 
Q 638.194221 36.082428 638.475393 36.832221 
Q 638.756566 37.582014 639.31891 38.369297 
Q 639.881255 39.156579 640.218662 40.093821 
L 641.005945 41.668386 
" clip-path="url(#p85abb71111)" style="fill: none; stroke: #000000; stroke-linejoin: miter"/>
   </g>
  </g>
  <g id="axes_41">
   <g id="patch_34">
    <path d="M 661.643923 36.441748 
Q 660.434968 35.094627 656.462687 35.094627 
Q 654.942857 35.094627 654.165672 35.146439 
Q 653.388486 35.198252 652.38678 35.440043 
Q 651.385075 35.681834 650.901493 36.182687 
Q 650.41791 36.683539 650.072495 37.616162 
Q 649.727079 38.548785 649.727079 39.964989 
Q 649.727079 42.037484 651.143284 43.280981 
Q 652.559488 44.524478 654.493817 44.524478 
Q 657.153518 44.524478 659.916844 38.721493 
Q 661.263966 35.854542 661.263966 35.82 
Q 661.609382 35.578209 661.643923 36.441748 
Q 661.643923 37.512537 662.058422 40.362217 
Q 662.472921 43.211898 662.472921 44.524478 
" clip-path="url(#pa63e790705)" style="fill: none; stroke: #000000; stroke-linejoin: miter"/>
   </g>
  </g>
  <g id="axes_42"/>
  <g id="axes_43">
   <g id="patch_35">
    <path d="M 682.208036 34.879821 
Q 682.714286 36.073125 683.003571 42.871339 
Q 683.148214 46.632054 683.4375 46.632054 
Q 683.473661 46.632054 683.509821 46.595893 
Q 684.016071 46.017321 684.070312 44.588973 
Q 684.124554 43.160625 683.907589 41.750357 
Q 683.690625 40.340089 683.4375 38.712857 
Q 683.184375 37.085625 683.184375 36.398571 
Q 683.184375 35.169107 683.564062 33.939643 
Q 683.94375 32.710179 684.920089 32.710179 
Q 686.149554 32.710179 686.872768 34.355491 
Q 687.595982 36.000804 687.758705 37.971562 
Q 687.921429 39.942321 688.029911 41.587634 
Q 688.138393 43.232946 688.283036 43.232946 
Q 688.427679 43.232946 688.51808 41.497232 
Q 688.608482 39.761518 688.735045 37.700357 
Q 688.861607 35.639196 689.584821 33.903482 
Q 690.308036 32.167768 691.5375 32.167768 
Q 693.092411 33.035625 693.761384 34.771339 
Q 694.430357 36.507054 694.394196 38.188527 
Q 694.358036 39.87 694.376116 42.057723 
Q 694.394196 44.245446 694.791964 45.511071 
" clip-path="url(#p2dfbdc835b)" style="fill: none; stroke: #000000; stroke-linejoin: miter"/>
   </g>
  </g>
  <g id="axes_44">
   <g id="patch_36">
    <path d="M 707.9616 35.032717 
Q 706.91189 34.582841 705.937159 34.69531 
Q 702.900497 35.032717 700.988524 36.701007 
Q 699.076552 38.369297 699.076552 41.330979 
Q 699.076552 43.917766 701.082248 45.6048 
Q 703.087945 47.291834 705.712221 47.291834 
Q 708.074069 47.291834 709.198759 45.361117 
Q 710.323448 43.4304 710.323448 40.881103 
Q 710.323448 39.643945 709.911062 38.706703 
Q 709.498676 37.769462 708.973821 37.300841 
Q 708.448966 36.832221 707.699172 36.119917 
Q 706.949379 35.407614 706.499503 34.69531 
L 705.262345 34.245434 
" clip-path="url(#p0c9be0eaa2)" style="fill: none; stroke: #000000; stroke-linejoin: miter"/>
   </g>
  </g>
  <g id="axes_45">
   <g id="patch_37">
    <path d="M 716.626179 34.807779 
Q 718.238234 36.719752 719.531628 39.6252 
Q 720.825021 42.530648 721.124938 45.154924 
Q 722.174648 43.655338 723.093145 38.819172 
Q 724.011641 33.983007 725.173821 32.108524 
" clip-path="url(#p9abb61215a)" style="fill: none; stroke: #000000; stroke-linejoin: miter"/>
   </g>
  </g>
  <g id="axes_46">
   <g id="patch_38">
    <path d="M 730.857798 38.160826 
Q 733.830275 39.535596 738.549083 39.721376 
Q 740.072477 39.721376 740.759862 38.550963 
Q 741.447248 37.38055 741.447248 35.82 
Q 741.447248 35.299817 741.354358 34.909679 
Q 741.261468 34.519541 741.019954 34.296606 
Q 740.77844 34.07367 740.611239 33.943624 
Q 740.444037 33.813578 739.998165 33.757844 
Q 739.552294 33.70211 739.347936 33.683532 
Q 739.143578 33.664954 738.567661 33.683532 
Q 737.991743 33.70211 737.768807 33.70211 
Q 735.725229 33.70211 734.238991 35.578486 
Q 732.752752 37.454862 732.752752 39.609908 
Q 732.752752 42.619541 734.684862 44.570229 
Q 736.616972 46.520917 739.663761 46.520917 
Q 741.818807 46.818165 743.342202 44.29156 
" clip-path="url(#pdd8f74d700)" style="fill: none; stroke: #000000; stroke-linejoin: miter"/>
   </g>
  </g>
 </g>
 <defs>
  <clipPath id="p91a218d517">
   <rect x="1.051945" y="8.64" width="14.09611" height="54.36"/>
  </clipPath>
  <clipPath id="p1e2ebe953d">
   <rect x="16.2" y="8.881927" width="16.2" height="53.876147"/>
  </clipPath>
  <clipPath id="pd2eeed6add">
   <rect x="35.138979" y="8.64" width="10.722041" height="54.36"/>
  </clipPath>
  <clipPath id="pe0b700163b">
   <rect x="65.402069" y="8.64" width="14.995862" height="54.36"/>
  </clipPath>
  <clipPath id="pa3cde765f5">
   <rect x="81" y="9.949956" width="16.2" height="51.740088"/>
  </clipPath>
  <clipPath id="p0e34250eca">
   <rect x="114.789352" y="8.64" width="13.421297" height="54.36"/>
  </clipPath>
  <clipPath id="pce359212b1">
   <rect x="132.338979" y="8.64" width="10.722041" height="54.36"/>
  </clipPath>
  <clipPath id="pd3e0c34acc">
   <rect x="145.8" y="8.881927" width="16.2" height="53.876147"/>
  </clipPath>
  <clipPath id="p1ded7ca037">
   <rect x="178.2" y="11.850612" width="16.2" height="47.938776"/>
  </clipPath>
  <clipPath id="pd726232bcc">
   <rect x="195.002069" y="8.64" width="14.995862" height="54.36"/>
  </clipPath>
  <clipPath id="p3dce18ca9c">
   <rect x="210.6" y="9.603482" width="16.2" height="52.433036"/>
  </clipPath>
  <clipPath id="p9c12cb35ba">
   <rect x="232.406938" y="8.64" width="4.986124" height="54.36"/>
  </clipPath>
  <clipPath id="pfa09d0ab44">
   <rect x="244.764248" y="8.64" width="12.671503" height="54.36"/>
  </clipPath>
  <clipPath id="p7879fc578a">
   <rect x="259.2" y="9.426742" width="16.2" height="52.786517"/>
  </clipPath>
  <clipPath id="p2ba8eb94d9">
   <rect x="294.338979" y="8.64" width="10.722041" height="54.36"/>
  </clipPath>
  <clipPath id="p650abbe03b">
   <rect x="307.8" y="10.777356" width="16.2" height="50.085288"/>
  </clipPath>
  <clipPath id="p62ea232fc5">
   <rect x="329.606938" y="8.64" width="4.986124" height="54.36"/>
  </clipPath>
  <clipPath id="pd8f1f60c46">
   <rect x="342.938979" y="8.64" width="10.722041" height="54.36"/>
  </clipPath>
  <clipPath id="p9690bed745">
   <rect x="357.283241" y="8.64" width="14.433517" height="54.36"/>
  </clipPath>
  <clipPath id="p759fe4272a">
   <rect x="378.206938" y="8.64" width="4.986124" height="54.36"/>
  </clipPath>
  <clipPath id="p0f734c4017">
   <rect x="390.564248" y="8.64" width="12.671503" height="54.36"/>
  </clipPath>
  <clipPath id="p2a44757b1b">
   <rect x="421.2" y="9.949956" width="16.2" height="51.740088"/>
  </clipPath>
  <clipPath id="p88d6524d91">
   <rect x="438.002069" y="8.64" width="14.995862" height="54.36"/>
  </clipPath>
  <clipPath id="pd2f0abcce7">
   <rect x="456.338979" y="8.64" width="10.722041" height="54.36"/>
  </clipPath>
  <clipPath id="p46cefe00fd">
   <rect x="486" y="10.777356" width="16.2" height="50.085288"/>
  </clipPath>
  <clipPath id="pf5b7fd1bb5">
   <rect x="518.4" y="9.603482" width="16.2" height="52.433036"/>
  </clipPath>
  <clipPath id="pe06ffa6744">
   <rect x="535.202069" y="8.64" width="14.995862" height="54.36"/>
  </clipPath>
  <clipPath id="p19055f792e">
   <rect x="550.8" y="9.603482" width="16.2" height="52.433036"/>
  </clipPath>
  <clipPath id="p54b78863af">
   <rect x="567" y="8.881927" width="16.2" height="53.876147"/>
  </clipPath>
  <clipPath id="p67a49a3373">
   <rect x="584.964248" y="8.64" width="12.671503" height="54.36"/>
  </clipPath>
  <clipPath id="p3b2b6650c4">
   <rect x="600.789352" y="8.64" width="13.421297" height="54.36"/>
  </clipPath>
  <clipPath id="p85abb71111">
   <rect x="636.019821" y="8.64" width="7.760359" height="54.36"/>
  </clipPath>
  <clipPath id="pa63e790705">
   <rect x="648" y="10.777356" width="16.2" height="50.085288"/>
  </clipPath>
  <clipPath id="p2dfbdc835b">
   <rect x="680.4" y="9.603482" width="16.2" height="52.433036"/>
  </clipPath>
  <clipPath id="p0c9be0eaa2">
   <rect x="697.202069" y="8.64" width="14.995862" height="54.36"/>
  </clipPath>
  <clipPath id="p9abb61215a">
   <rect x="714.751697" y="8.64" width="12.296607" height="54.36"/>
  </clipPath>
  <clipPath id="pdd8f74d700">
   <rect x="729" y="8.881927" width="16.2" height="53.876147"/>
  </clipPath>
 </defs>
</svg>
