<?xml version="1.0" encoding="utf-8" standalone="no"?>
<!DOCTYPE svg PUBLIC "-//W3C//DTD SVG 1.1//EN"
  "http://www.w3.org/Graphics/SVG/1.1/DTD/svg11.dtd">
<svg xmlns:xlink="http://www.w3.org/1999/xlink" width="810pt" height="72pt" viewBox="0 0 810 72" xmlns="http://www.w3.org/2000/svg" version="1.1">
 <metadata>
  <rdf:RDF xmlns:dc="http://purl.org/dc/elements/1.1/" xmlns:cc="http://creativecommons.org/ns#" xmlns:rdf="http://www.w3.org/1999/02/22-rdf-syntax-ns#">
   <cc:Work>
    <dc:type rdf:resource="http://purl.org/dc/dcmitype/StillImage"/>
    <dc:date>2023-12-21T11:48:51.452305</dc:date>
    <dc:format>image/svg+xml</dc:format>
    <dc:creator>
     <cc:Agent>
      <dc:title>Matplotlib v3.5.1, https://matplotlib.org/</dc:title>
     </cc:Agent>
    </dc:creator>
   </cc:Work>
  </rdf:RDF>
 </metadata>
 <defs>
  <style type="text/css">*{stroke-linejoin: round; stroke-linecap: butt}</style>
 </defs>
 <g id="figure_1">
  <g id="patch_1">
   <path d="M 0 72 
L 810 72 
L 810 0 
L 0 0 
z
" style="fill: #8fff9f"/>
  </g>
  <g id="axes_1">
   <g id="patch_2">
    <path d="M 1.716102 36.437797 
L 2.951695 44.778051 
Q 3.054661 45.567458 3.054661 45.60178 
Q 3.054661 45.704746 3.363559 45.704746 
Q 4.22161 45.704746 4.942373 44.778051 
Q 5.663136 43.851356 6.075 42.718729 
Q 6.486864 41.586102 7.001695 40.659407 
Q 7.516525 39.732712 7.997034 39.732712 
Q 8.614831 39.732712 9.249788 40.607924 
Q 9.884746 41.483136 10.348093 42.512797 
Q 10.811441 43.542458 11.48072 44.417669 
Q 12.15 45.292881 12.836441 45.292881 
Q 13.111017 43.782712 13.540042 39.69839 
Q 13.969068 35.614068 14.483898 33.554746 
" clip-path="url(#p7e2ae276ff)" style="fill: none; stroke: #000000; stroke-linejoin: miter"/>
   </g>
  </g>
  <g id="axes_2">
   <g id="patch_3">
    <path d="M 29.843923 36.441748 
Q 28.634968 35.094627 24.662687 35.094627 
Q 23.142857 35.094627 22.365672 35.146439 
Q 21.588486 35.198252 20.58678 35.440043 
Q 19.585075 35.681834 19.101493 36.182687 
Q 18.61791 36.683539 18.272495 37.616162 
Q 17.927079 38.548785 17.927079 39.964989 
Q 17.927079 42.037484 19.343284 43.280981 
Q 20.759488 44.524478 22.693817 44.524478 
Q 25.353518 44.524478 28.116844 38.721493 
Q 29.463966 35.854542 29.463966 35.82 
Q 29.809382 35.578209 29.843923 36.441748 
Q 29.843923 37.512537 30.258422 40.362217 
Q 30.672921 43.211898 30.672921 44.524478 
" clip-path="url(#pfbc746a7e9)" style="fill: none; stroke: #000000; stroke-linejoin: miter"/>
   </g>
  </g>
  <g id="axes_3">
   <g id="patch_4">
    <path d="M 35.663834 37.95691 
L 36.338648 37.95691 
Q 37.050952 37.95691 37.838234 37.881931 
Q 38.625517 37.806952 39.581503 37.675738 
Q 40.53749 37.544524 41.062345 37.507034 
L 45.336166 35.82 
M 41.287283 30.42149 
L 41.287283 31.43371 
Q 41.287283 33.383172 40.612469 37.207117 
Q 39.937655 41.031062 39.937655 43.018014 
Q 39.937655 43.805297 39.937655 44.105214 
Q 39.937655 44.405131 40.031379 45.042455 
Q 40.125103 45.679779 40.312552 45.960952 
Q 40.5 46.242124 40.893641 46.485807 
Q 41.287283 46.72949 41.849628 46.72949 
Q 41.962097 46.692 42.280759 46.72949 
Q 42.599421 46.766979 42.786869 46.710745 
Q 42.974317 46.65451 42.974317 46.392083 
" clip-path="url(#pe4dace648b)" style="fill: none; stroke: #000000; stroke-linejoin: miter"/>
   </g>
  </g>
  <g id="axes_4">
   <g id="patch_5">
    <path d="M 61.956735 34.365306 
Q 61.956735 34.365306 61.460816 34.365306 
Q 60.667347 34.365306 59.179592 34.067755 
Q 57.691837 33.770204 56.898367 33.770204 
Q 54.121224 33.770204 52.187143 35.224898 
Q 50.253061 36.679592 50.253061 39.423673 
Q 50.253061 40.94449 51.740816 42.399184 
Q 53.228571 43.853878 55.162653 44.663878 
Q 57.096735 45.473878 58.58449 45.473878 
Q 59.510204 45.473878 60.20449 45.110204 
Q 60.898776 44.746531 61.642653 44.118367 
Q 62.386531 43.490204 62.948571 43.192653 
L 63.146939 42.696735 
" clip-path="url(#p69a92b06ae)" style="fill: none; stroke: #000000; stroke-linejoin: miter"/>
   </g>
  </g>
  <g id="axes_5">
   <g id="patch_6">
    <path d="M 69.413462 35.932469 
Q 70.013297 35.257655 71.006772 34.826524 
Q 72.000248 34.395393 72.9 34.470372 
Q 73.537324 34.470372 74.02469 34.639076 
Q 74.512055 34.807779 74.830717 34.995228 
Q 75.149379 35.182676 75.374317 35.670041 
Q 75.599255 36.157407 75.711724 36.419834 
Q 75.824193 36.682262 75.880428 37.375821 
Q 75.936662 38.069379 75.955407 38.331807 
Q 75.974152 38.594234 75.955407 39.419007 
Q 75.936662 40.243779 75.936662 40.431228 
Q 75.936662 41.368469 75.767959 43.242952 
Q 75.599255 45.117434 75.599255 46.054676 
Q 75.599255 46.467062 75.65549 46.823214 
Q 75.711724 47.179366 75.805448 47.610497 
Q 75.899172 48.041628 75.936662 48.304055 
L 76.386538 48.528993 
M 69.863338 23.111007 
Q 70.088276 24.798041 70.088276 29.971614 
L 70.088276 42.3432 
L 69.750869 46.841959 
L 69.525931 47.74171 
" clip-path="url(#pb647aa845e)" style="fill: none; stroke: #000000; stroke-linejoin: miter"/>
   </g>
  </g>
  <g id="axes_6">
   <g id="patch_7">
    <path d="M 89.718579 29.071862 
Q 89.343683 29.146841 89.212469 29.577972 
Q 89.081255 30.009103 89.156234 30.42149 
Q 89.156234 30.571448 89.193724 30.702662 
Q 89.231214 30.833876 89.287448 30.89011 
Q 89.343683 30.946345 89.399917 31.040069 
Q 89.456152 31.133793 89.493641 31.208772 
L 89.60611 29.859145 
M 89.60611 34.020497 
Q 88.706359 39.006621 88.481421 42.793076 
L 88.931297 45.379862 
L 89.268703 46.054676 
" clip-path="url(#pc81e596c2c)" style="fill: none; stroke: #000000; stroke-linejoin: miter"/>
   </g>
  </g>
  <g id="axes_7">
   <g id="patch_8">
    <path d="M 100.838731 37.282097 
L 100.838731 37.844441 
Q 101.101159 39.868883 101.138648 41.312234 
Q 101.176138 42.755586 101.082414 44.667559 
Q 100.98869 46.579531 100.98869 48.191586 
L 101.063669 39.643945 
Q 101.063669 38.144359 102.656979 37.507034 
Q 104.25029 36.86971 105.674897 37.282097 
Q 107.586869 37.844441 108.505366 39.04411 
Q 109.423862 40.243779 109.480097 41.668386 
Q 109.536331 43.092993 109.573821 44.817517 
Q 109.61131 46.542041 109.761269 48.191586 
" clip-path="url(#p617972cc09)" style="fill: none; stroke: #000000; stroke-linejoin: miter"/>
   </g>
  </g>
  <g id="axes_8">
   <g id="patch_9">
    <path d="M 126.287191 39.096404 
Q 126.03236 39.023596 125.06764 38.623146 
Q 124.102921 38.222697 123.44764 38.077079 
Q 122.79236 37.931461 122.137079 38.00427 
Q 119.515955 38.00427 117.877753 40.388764 
Q 116.239551 42.773258 116.239551 45.430787 
Q 116.239551 47.068989 121.481798 47.068989 
Q 123.047191 47.068989 124.375955 45.558202 
Q 125.704719 44.047416 126.378202 42.172584 
Q 127.051685 40.297753 127.051685 38.768764 
Q 127.051685 37.27618 127.015281 36.984944 
L 126.942472 38.077079 
Q 126.942472 38.550337 126.942472 38.987191 
Q 126.978876 40.188539 127.179101 42.281798 
Q 127.379326 44.375056 127.543146 46.049663 
Q 127.706966 47.72427 127.743371 49.872135 
Q 127.779775 52.02 127.615955 53.658202 
Q 127.452135 55.296404 126.887865 56.971011 
Q 126.323596 58.645618 125.395281 59.737753 
Q 124.466966 60.829888 122.865169 61.521573 
Q 121.263371 62.213258 119.115506 62.213258 
Q 117.477303 62.213258 116.385169 61.466966 
Q 115.293034 60.720674 115.293034 59.155281 
Q 115.220225 58.936854 115.256629 58.936854 
Q 115.293034 58.936854 115.402247 58.936854 
Q 115.511461 58.936854 115.511461 58.82764 
" clip-path="url(#p1c6e96c0b1)" style="fill: none; stroke: #000000; stroke-linejoin: miter"/>
   </g>
  </g>
  <g id="axes_9"/>
  <g id="axes_10">
   <g id="patch_10">
    <path d="M 149.063834 37.95691 
L 149.738648 37.95691 
Q 150.450952 37.95691 151.238234 37.881931 
Q 152.025517 37.806952 152.981503 37.675738 
Q 153.93749 37.544524 154.462345 37.507034 
L 158.736166 35.82 
M 154.687283 30.42149 
L 154.687283 31.43371 
Q 154.687283 33.383172 154.012469 37.207117 
Q 153.337655 41.031062 153.337655 43.018014 
Q 153.337655 43.805297 153.337655 44.105214 
Q 153.337655 44.405131 153.431379 45.042455 
Q 153.525103 45.679779 153.712552 45.960952 
Q 153.9 46.242124 154.293641 46.485807 
Q 154.687283 46.72949 155.249628 46.72949 
Q 155.362097 46.692 155.680759 46.72949 
Q 155.999421 46.766979 156.186869 46.710745 
Q 156.374317 46.65451 156.374317 46.392083 
" clip-path="url(#p1c45e8e095)" style="fill: none; stroke: #000000; stroke-linejoin: miter"/>
   </g>
  </g>
  <g id="axes_11">
   <g id="patch_11">
    <path d="M 166.613462 35.932469 
Q 167.213297 35.257655 168.206772 34.826524 
Q 169.200248 34.395393 170.1 34.470372 
Q 170.737324 34.470372 171.22469 34.639076 
Q 171.712055 34.807779 172.030717 34.995228 
Q 172.349379 35.182676 172.574317 35.670041 
Q 172.799255 36.157407 172.911724 36.419834 
Q 173.024193 36.682262 173.080428 37.375821 
Q 173.136662 38.069379 173.155407 38.331807 
Q 173.174152 38.594234 173.155407 39.419007 
Q 173.136662 40.243779 173.136662 40.431228 
Q 173.136662 41.368469 172.967959 43.242952 
Q 172.799255 45.117434 172.799255 46.054676 
Q 172.799255 46.467062 172.85549 46.823214 
Q 172.911724 47.179366 173.005448 47.610497 
Q 173.099172 48.041628 173.136662 48.304055 
L 173.586538 48.528993 
M 167.063338 23.111007 
Q 167.288276 24.798041 167.288276 29.971614 
L 167.288276 42.3432 
L 166.950869 46.841959 
L 166.725931 47.74171 
" clip-path="url(#p2e10017cbd)" style="fill: none; stroke: #000000; stroke-linejoin: miter"/>
   </g>
  </g>
  <g id="axes_12">
   <g id="patch_12">
    <path d="M 180.057798 38.160826 
Q 183.030275 39.535596 187.749083 39.721376 
Q 189.272477 39.721376 189.959862 38.550963 
Q 190.647248 37.38055 190.647248 35.82 
Q 190.647248 35.299817 190.554358 34.909679 
Q 190.461468 34.519541 190.219954 34.296606 
Q 189.97844 34.07367 189.811239 33.943624 
Q 189.644037 33.813578 189.198165 33.757844 
Q 188.752294 33.70211 188.547936 33.683532 
Q 188.343578 33.664954 187.767661 33.683532 
Q 187.191743 33.70211 186.968807 33.70211 
Q 184.925229 33.70211 183.438991 35.578486 
Q 181.952752 37.454862 181.952752 39.609908 
Q 181.952752 42.619541 183.884862 44.570229 
Q 185.816972 46.520917 188.863761 46.520917 
Q 191.018807 46.818165 192.542202 44.29156 
" clip-path="url(#pf17552da0d)" style="fill: none; stroke: #000000; stroke-linejoin: miter"/>
   </g>
  </g>
  <g id="axes_13"/>
  <g id="axes_14">
   <g id="patch_13">
    <path d="M 214.257476 43.917766 
Q 214.557393 44.180193 215.569614 45.154924 
Q 216.581834 46.129655 217.144179 46.560786 
Q 217.706524 46.991917 218.73749 47.385559 
Q 219.768455 47.7792 220.780676 47.629241 
Q 221.45549 47.629241 221.92411 47.404303 
Q 222.392731 47.179366 222.617669 46.879448 
Q 222.842607 46.579531 222.973821 45.979697 
Q 223.105034 45.379862 223.123779 44.967476 
Q 223.142524 44.55509 223.142524 43.805297 
Q 223.142524 42.718097 222.242772 42.043283 
Q 221.343021 41.368469 220.049628 41.031062 
Q 218.756234 40.693655 217.462841 40.300014 
Q 216.169448 39.906372 215.269697 38.987876 
Q 214.369945 38.069379 214.369945 36.607283 
Q 214.369945 36.082428 214.538648 35.726276 
Q 214.707352 35.370124 215.100993 35.145186 
Q 215.494634 34.920248 215.775807 34.807779 
Q 216.056979 34.69531 216.713048 34.639076 
Q 217.369117 34.582841 217.556566 34.582841 
Q 217.744014 34.582841 218.418828 34.582841 
Q 219.618497 34.582841 220.199586 34.995228 
Q 220.780676 35.407614 221.099338 36.026193 
Q 221.418 36.644772 221.680428 36.832221 
" clip-path="url(#p840b6b6ab0)" style="fill: none; stroke: #000000; stroke-linejoin: miter"/>
   </g>
  </g>
  <g id="axes_15">
   <g id="patch_14">
    <path d="M 240.156735 34.365306 
Q 240.156735 34.365306 239.660816 34.365306 
Q 238.867347 34.365306 237.379592 34.067755 
Q 235.891837 33.770204 235.098367 33.770204 
Q 232.321224 33.770204 230.387143 35.224898 
Q 228.453061 36.679592 228.453061 39.423673 
Q 228.453061 40.94449 229.940816 42.399184 
Q 231.428571 43.853878 233.362653 44.663878 
Q 235.296735 45.473878 236.78449 45.473878 
Q 237.710204 45.473878 238.40449 45.110204 
Q 239.098776 44.746531 239.842653 44.118367 
Q 240.586531 43.490204 241.148571 43.192653 
L 241.346939 42.696735 
" clip-path="url(#pa5d11d8322)" style="fill: none; stroke: #000000; stroke-linejoin: miter"/>
   </g>
  </g>
  <g id="axes_16">
   <g id="patch_15">
    <path d="M 244.857798 38.160826 
Q 247.830275 39.535596 252.549083 39.721376 
Q 254.072477 39.721376 254.759862 38.550963 
Q 255.447248 37.38055 255.447248 35.82 
Q 255.447248 35.299817 255.354358 34.909679 
Q 255.261468 34.519541 255.019954 34.296606 
Q 254.77844 34.07367 254.611239 33.943624 
Q 254.444037 33.813578 253.998165 33.757844 
Q 253.552294 33.70211 253.347936 33.683532 
Q 253.143578 33.664954 252.567661 33.683532 
Q 251.991743 33.70211 251.768807 33.70211 
Q 249.725229 33.70211 248.238991 35.578486 
Q 246.752752 37.454862 246.752752 39.609908 
Q 246.752752 42.619541 248.684862 44.570229 
Q 250.616972 46.520917 253.663761 46.520917 
Q 255.818807 46.818165 257.342202 44.29156 
" clip-path="url(#p16e17d71c3)" style="fill: none; stroke: #000000; stroke-linejoin: miter"/>
   </g>
  </g>
  <g id="axes_17">
   <g id="patch_16">
    <path d="M 262.838731 37.282097 
L 262.838731 37.844441 
Q 263.101159 39.868883 263.138648 41.312234 
Q 263.176138 42.755586 263.082414 44.667559 
Q 262.98869 46.579531 262.98869 48.191586 
L 263.063669 39.643945 
Q 263.063669 38.144359 264.656979 37.507034 
Q 266.25029 36.86971 267.674897 37.282097 
Q 269.586869 37.844441 270.505366 39.04411 
Q 271.423862 40.243779 271.480097 41.668386 
Q 271.536331 43.092993 271.573821 44.817517 
Q 271.61131 46.542041 271.761269 48.191586 
" clip-path="url(#pb9891d07bb)" style="fill: none; stroke: #000000; stroke-linejoin: miter"/>
   </g>
  </g>
  <g id="axes_18">
   <g id="patch_17">
    <path d="M 277.257798 38.160826 
Q 280.230275 39.535596 284.949083 39.721376 
Q 286.472477 39.721376 287.159862 38.550963 
Q 287.847248 37.38055 287.847248 35.82 
Q 287.847248 35.299817 287.754358 34.909679 
Q 287.661468 34.519541 287.419954 34.296606 
Q 287.17844 34.07367 287.011239 33.943624 
Q 286.844037 33.813578 286.398165 33.757844 
Q 285.952294 33.70211 285.747936 33.683532 
Q 285.543578 33.664954 284.967661 33.683532 
Q 284.391743 33.70211 284.168807 33.70211 
Q 282.125229 33.70211 280.638991 35.578486 
Q 279.152752 37.454862 279.152752 39.609908 
Q 279.152752 42.619541 281.084862 44.570229 
Q 283.016972 46.520917 286.063761 46.520917 
Q 288.218807 46.818165 289.742202 44.29156 
" clip-path="url(#p7961da7c9f)" style="fill: none; stroke: #000000; stroke-linejoin: miter"/>
   </g>
  </g>
  <g id="axes_19">
   <g id="patch_18">
    <path d="M 296.213462 32.783338 
Q 296.738317 34.507862 296.869531 36.457324 
Q 297.000745 38.406786 296.925766 40.956083 
Q 296.850786 43.505379 296.888276 44.705048 
L 297.000745 46.054676 
L 297.000745 45.829738 
Q 297.000745 44.667559 296.719572 42.30571 
Q 296.4384 39.943862 296.4384 38.744193 
Q 296.4384 36.419834 297.450621 34.882759 
Q 298.462841 33.345683 300.487283 33.345683 
Q 301.199586 33.345683 301.536993 33.626855 
Q 301.8744 33.908028 302.136828 34.432883 
Q 302.399255 34.957738 302.736662 35.257655 
L 303.186538 36.832221 
" clip-path="url(#pe3c32f333e)" style="fill: none; stroke: #000000; stroke-linejoin: miter"/>
   </g>
  </g>
  <g id="axes_20">
   <g id="patch_19">
    <path d="M 310.763917 36.382345 
Q 310.726428 36.494814 310.857641 36.701007 
Q 310.988855 36.9072 310.876386 37.057159 
L 310.876386 39.306538 
Q 310.876386 40.506207 311.213793 41.724621 
Q 311.5512 42.943034 312.413462 43.93651 
Q 313.275724 44.929986 314.475393 44.929986 
Q 315.712552 44.929986 316.387366 43.861531 
Q 317.062179 42.793076 317.512055 41.143531 
Q 317.961931 39.493986 318.299338 38.969131 
L 319.086621 36.382345 
L 318.861683 42.680607 
L 318.861683 45.154924 
Q 318.861683 47.066897 319.592731 51.00331 
Q 320.323779 54.939724 320.323779 56.964166 
Q 321.073572 59.213545 319.986372 60.188276 
Q 318.899172 61.163007 316.837241 60.78811 
Q 315.037738 60.488193 314.119241 60.169531 
Q 313.200745 59.850869 311.213793 58.988607 
L 311.101324 58.426262 
" clip-path="url(#p71518a4b17)" style="fill: none; stroke: #000000; stroke-linejoin: miter"/>
   </g>
  </g>
  <g id="axes_21"/>
  <g id="axes_22">
   <g id="patch_20">
    <path d="M 343.520069 39.868883 
L 343.520069 39.419007 
Q 343.520069 37.769462 345.263338 36.682262 
Q 347.006607 35.595062 348.693641 35.595062 
Q 350.905531 35.595062 352.273903 36.794731 
Q 353.642276 37.9944 353.642276 40.20629 
Q 353.642276 42.30571 351.824028 43.336676 
Q 350.005779 44.367641 347.79389 44.367641 
Q 347.119076 44.367641 346.612966 44.255172 
Q 346.106855 44.142703 345.488276 43.917766 
Q 344.869697 43.692828 344.419821 43.580359 
L 343.295131 42.568138 
M 342.957724 36.832221 
Q 343.4076 38.444276 343.670028 40.262524 
Q 343.932455 42.080772 343.98869 43.749062 
Q 344.044924 45.417352 344.082414 47.27309 
Q 344.119903 49.128828 344.082414 50.778372 
L 343.969945 57.863917 
" clip-path="url(#p42a525a8d0)" style="fill: none; stroke: #000000; stroke-linejoin: miter"/>
   </g>
  </g>
  <g id="axes_23">
   <g id="patch_21">
    <path d="M 370.043923 36.441748 
Q 368.834968 35.094627 364.862687 35.094627 
Q 363.342857 35.094627 362.565672 35.146439 
Q 361.788486 35.198252 360.78678 35.440043 
Q 359.785075 35.681834 359.301493 36.182687 
Q 358.81791 36.683539 358.472495 37.616162 
Q 358.127079 38.548785 358.127079 39.964989 
Q 358.127079 42.037484 359.543284 43.280981 
Q 360.959488 44.524478 362.893817 44.524478 
Q 365.553518 44.524478 368.316844 38.721493 
Q 369.663966 35.854542 369.663966 35.82 
Q 370.009382 35.578209 370.043923 36.441748 
Q 370.043923 37.512537 370.458422 40.362217 
Q 370.872921 43.211898 370.872921 44.524478 
" clip-path="url(#pa5294038f4)" style="fill: none; stroke: #000000; stroke-linejoin: miter"/>
   </g>
  </g>
  <g id="axes_24">
   <g id="patch_22">
    <path d="M 376.257476 43.917766 
Q 376.557393 44.180193 377.569614 45.154924 
Q 378.581834 46.129655 379.144179 46.560786 
Q 379.706524 46.991917 380.73749 47.385559 
Q 381.768455 47.7792 382.780676 47.629241 
Q 383.45549 47.629241 383.92411 47.404303 
Q 384.392731 47.179366 384.617669 46.879448 
Q 384.842607 46.579531 384.973821 45.979697 
Q 385.105034 45.379862 385.123779 44.967476 
Q 385.142524 44.55509 385.142524 43.805297 
Q 385.142524 42.718097 384.242772 42.043283 
Q 383.343021 41.368469 382.049628 41.031062 
Q 380.756234 40.693655 379.462841 40.300014 
Q 378.169448 39.906372 377.269697 38.987876 
Q 376.369945 38.069379 376.369945 36.607283 
Q 376.369945 36.082428 376.538648 35.726276 
Q 376.707352 35.370124 377.100993 35.145186 
Q 377.494634 34.920248 377.775807 34.807779 
Q 378.056979 34.69531 378.713048 34.639076 
Q 379.369117 34.582841 379.556566 34.582841 
Q 379.744014 34.582841 380.418828 34.582841 
Q 381.618497 34.582841 382.199586 34.995228 
Q 382.780676 35.407614 383.099338 36.026193 
Q 383.418 36.644772 383.680428 36.832221 
" clip-path="url(#p99b527187b)" style="fill: none; stroke: #000000; stroke-linejoin: miter"/>
   </g>
  </g>
  <g id="axes_25">
   <g id="patch_23">
    <path d="M 392.457476 43.917766 
Q 392.757393 44.180193 393.769614 45.154924 
Q 394.781834 46.129655 395.344179 46.560786 
Q 395.906524 46.991917 396.93749 47.385559 
Q 397.968455 47.7792 398.980676 47.629241 
Q 399.65549 47.629241 400.12411 47.404303 
Q 400.592731 47.179366 400.817669 46.879448 
Q 401.042607 46.579531 401.173821 45.979697 
Q 401.305034 45.379862 401.323779 44.967476 
Q 401.342524 44.55509 401.342524 43.805297 
Q 401.342524 42.718097 400.442772 42.043283 
Q 399.543021 41.368469 398.249628 41.031062 
Q 396.956234 40.693655 395.662841 40.300014 
Q 394.369448 39.906372 393.469697 38.987876 
Q 392.569945 38.069379 392.569945 36.607283 
Q 392.569945 36.082428 392.738648 35.726276 
Q 392.907352 35.370124 393.300993 35.145186 
Q 393.694634 34.920248 393.975807 34.807779 
Q 394.256979 34.69531 394.913048 34.639076 
Q 395.569117 34.582841 395.756566 34.582841 
Q 395.944014 34.582841 396.618828 34.582841 
Q 397.818497 34.582841 398.399586 34.995228 
Q 398.980676 35.407614 399.299338 36.026193 
Q 399.618 36.644772 399.880428 36.832221 
" clip-path="url(#p2b5ee04d48)" style="fill: none; stroke: #000000; stroke-linejoin: miter"/>
   </g>
  </g>
  <g id="axes_26"/>
  <g id="axes_27">
   <g id="patch_24">
    <path d="M 425.757228 37.244607 
Q 426.806938 37.207117 426.994386 37.132138 
Q 430.405945 37.132138 432.186703 39.212814 
Q 433.967462 41.29349 433.967462 44.780028 
Q 433.967462 47.704221 429.356234 47.704221 
Q 428.71891 47.704221 428.17531 47.591752 
Q 427.63171 47.479283 426.994386 47.254345 
Q 426.357062 47.029407 425.869697 46.916938 
L 424.632538 45.679779 
M 425.644759 25.435366 
L 425.644759 26.560055 
Q 425.644759 29.409269 425.757228 33.008276 
Q 425.869697 36.607283 426.057145 40.899848 
Q 426.244593 45.192414 426.319572 47.141876 
" clip-path="url(#pd57a9958f6)" style="fill: none; stroke: #000000; stroke-linejoin: miter"/>
   </g>
  </g>
  <g id="axes_28">
   <g id="patch_25">
    <path d="M 440.363917 36.382345 
Q 440.326428 36.494814 440.457641 36.701007 
Q 440.588855 36.9072 440.476386 37.057159 
L 440.476386 39.306538 
Q 440.476386 40.506207 440.813793 41.724621 
Q 441.1512 42.943034 442.013462 43.93651 
Q 442.875724 44.929986 444.075393 44.929986 
Q 445.312552 44.929986 445.987366 43.861531 
Q 446.662179 42.793076 447.112055 41.143531 
Q 447.561931 39.493986 447.899338 38.969131 
L 448.686621 36.382345 
L 448.461683 42.680607 
L 448.461683 45.154924 
Q 448.461683 47.066897 449.192731 51.00331 
Q 449.923779 54.939724 449.923779 56.964166 
Q 450.673572 59.213545 449.586372 60.188276 
Q 448.499172 61.163007 446.437241 60.78811 
Q 444.637738 60.488193 443.719241 60.169531 
Q 442.800745 59.850869 440.813793 58.988607 
L 440.701324 58.426262 
" clip-path="url(#pcc5c7ac3fe)" style="fill: none; stroke: #000000; stroke-linejoin: miter"/>
   </g>
  </g>
  <g id="axes_29"/>
  <g id="axes_30">
   <g id="patch_26">
    <path d="M 474.413462 35.932469 
Q 475.013297 35.257655 476.006772 34.826524 
Q 477.000248 34.395393 477.9 34.470372 
Q 478.537324 34.470372 479.02469 34.639076 
Q 479.512055 34.807779 479.830717 34.995228 
Q 480.149379 35.182676 480.374317 35.670041 
Q 480.599255 36.157407 480.711724 36.419834 
Q 480.824193 36.682262 480.880428 37.375821 
Q 480.936662 38.069379 480.955407 38.331807 
Q 480.974152 38.594234 480.955407 39.419007 
Q 480.936662 40.243779 480.936662 40.431228 
Q 480.936662 41.368469 480.767959 43.242952 
Q 480.599255 45.117434 480.599255 46.054676 
Q 480.599255 46.467062 480.65549 46.823214 
Q 480.711724 47.179366 480.805448 47.610497 
Q 480.899172 48.041628 480.936662 48.304055 
L 481.386538 48.528993 
M 474.863338 23.111007 
Q 475.088276 24.798041 475.088276 29.971614 
L 475.088276 42.3432 
L 474.750869 46.841959 
L 474.525931 47.74171 
" clip-path="url(#p490a2584af)" style="fill: none; stroke: #000000; stroke-linejoin: miter"/>
   </g>
  </g>
  <g id="axes_31">
   <g id="patch_27">
    <path d="M 487.857798 38.160826 
Q 490.830275 39.535596 495.549083 39.721376 
Q 497.072477 39.721376 497.759862 38.550963 
Q 498.447248 37.38055 498.447248 35.82 
Q 498.447248 35.299817 498.354358 34.909679 
Q 498.261468 34.519541 498.019954 34.296606 
Q 497.77844 34.07367 497.611239 33.943624 
Q 497.444037 33.813578 496.998165 33.757844 
Q 496.552294 33.70211 496.347936 33.683532 
Q 496.143578 33.664954 495.567661 33.683532 
Q 494.991743 33.70211 494.768807 33.70211 
Q 492.725229 33.70211 491.238991 35.578486 
Q 489.752752 37.454862 489.752752 39.609908 
Q 489.752752 42.619541 491.684862 44.570229 
Q 493.616972 46.520917 496.663761 46.520917 
Q 498.818807 46.818165 500.342202 44.29156 
" clip-path="url(#pfd52ddf7fc)" style="fill: none; stroke: #000000; stroke-linejoin: miter"/>
   </g>
  </g>
  <g id="axes_32">
   <g id="patch_28">
    <path d="M 506.813462 32.783338 
Q 507.338317 34.507862 507.469531 36.457324 
Q 507.600745 38.406786 507.525766 40.956083 
Q 507.450786 43.505379 507.488276 44.705048 
L 507.600745 46.054676 
L 507.600745 45.829738 
Q 507.600745 44.667559 507.319572 42.30571 
Q 507.0384 39.943862 507.0384 38.744193 
Q 507.0384 36.419834 508.050621 34.882759 
Q 509.062841 33.345683 511.087283 33.345683 
Q 511.799586 33.345683 512.136993 33.626855 
Q 512.4744 33.908028 512.736828 34.432883 
Q 512.999255 34.957738 513.336662 35.257655 
L 513.786538 36.832221 
" clip-path="url(#p162998475c)" style="fill: none; stroke: #000000; stroke-linejoin: miter"/>
   </g>
  </g>
  <g id="axes_33"/>
  <g id="axes_34">
   <g id="patch_29">
    <path d="M 538.257476 43.917766 
Q 538.557393 44.180193 539.569614 45.154924 
Q 540.581834 46.129655 541.144179 46.560786 
Q 541.706524 46.991917 542.73749 47.385559 
Q 543.768455 47.7792 544.780676 47.629241 
Q 545.45549 47.629241 545.92411 47.404303 
Q 546.392731 47.179366 546.617669 46.879448 
Q 546.842607 46.579531 546.973821 45.979697 
Q 547.105034 45.379862 547.123779 44.967476 
Q 547.142524 44.55509 547.142524 43.805297 
Q 547.142524 42.718097 546.242772 42.043283 
Q 545.343021 41.368469 544.049628 41.031062 
Q 542.756234 40.693655 541.462841 40.300014 
Q 540.169448 39.906372 539.269697 38.987876 
Q 538.369945 38.069379 538.369945 36.607283 
Q 538.369945 36.082428 538.538648 35.726276 
Q 538.707352 35.370124 539.100993 35.145186 
Q 539.494634 34.920248 539.775807 34.807779 
Q 540.056979 34.69531 540.713048 34.639076 
Q 541.369117 34.582841 541.556566 34.582841 
Q 541.744014 34.582841 542.418828 34.582841 
Q 543.618497 34.582841 544.199586 34.995228 
Q 544.780676 35.407614 545.099338 36.026193 
Q 545.418 36.644772 545.680428 36.832221 
" clip-path="url(#p94d8cc8e06)" style="fill: none; stroke: #000000; stroke-linejoin: miter"/>
   </g>
  </g>
  <g id="axes_35">
   <g id="patch_30">
    <path d="M 559.518579 29.071862 
Q 559.143683 29.146841 559.012469 29.577972 
Q 558.881255 30.009103 558.956234 30.42149 
Q 558.956234 30.571448 558.993724 30.702662 
Q 559.031214 30.833876 559.087448 30.89011 
Q 559.143683 30.946345 559.199917 31.040069 
Q 559.256152 31.133793 559.293641 31.208772 
L 559.40611 29.859145 
M 559.40611 34.020497 
Q 558.506359 39.006621 558.281421 42.793076 
L 558.731297 45.379862 
L 559.068703 46.054676 
" clip-path="url(#p26adfcff38)" style="fill: none; stroke: #000000; stroke-linejoin: miter"/>
   </g>
  </g>
  <g id="axes_36">
   <g id="patch_31">
    <path d="M 578.699007 39.568966 
Q 577.349379 38.181848 575.1 38.444276 
Q 572.250786 38.444276 571.088607 39.793903 
Q 569.926428 41.143531 569.926428 44.067724 
Q 569.926428 45.56731 571.219821 46.279614 
Q 572.513214 46.991917 574.087779 46.991917 
Q 575.399917 46.991917 576.412138 45.736014 
Q 577.424359 44.48011 578.005448 42.30571 
Q 578.586538 40.13131 578.961434 37.938166 
Q 579.336331 35.745021 579.48629 33.045766 
Q 579.636248 30.34651 579.673738 28.978138 
Q 579.711228 27.609766 579.711228 26.185159 
Q 579.48629 26.260138 579.48629 29.896634 
L 579.48629 44.292662 
L 580.273572 48.229076 
" clip-path="url(#p484bd3203d)" style="fill: none; stroke: #000000; stroke-linejoin: miter"/>
   </g>
  </g>
  <g id="axes_37">
   <g id="patch_32">
    <path d="M 585.057798 38.160826 
Q 588.030275 39.535596 592.749083 39.721376 
Q 594.272477 39.721376 594.959862 38.550963 
Q 595.647248 37.38055 595.647248 35.82 
Q 595.647248 35.299817 595.554358 34.909679 
Q 595.461468 34.519541 595.219954 34.296606 
Q 594.97844 34.07367 594.811239 33.943624 
Q 594.644037 33.813578 594.198165 33.757844 
Q 593.752294 33.70211 593.547936 33.683532 
Q 593.343578 33.664954 592.767661 33.683532 
Q 592.191743 33.70211 591.968807 33.70211 
Q 589.925229 33.70211 588.438991 35.578486 
Q 586.952752 37.454862 586.952752 39.609908 
Q 586.952752 42.619541 588.884862 44.570229 
Q 590.816972 46.520917 593.863761 46.520917 
Q 596.018807 46.818165 597.542202 44.29156 
" clip-path="url(#p5874bb7a00)" style="fill: none; stroke: #000000; stroke-linejoin: miter"/>
   </g>
  </g>
  <g id="axes_38"/>
  <g id="axes_39">
   <g id="patch_33">
    <path d="M 617.316102 36.437797 
L 618.551695 44.778051 
Q 618.654661 45.567458 618.654661 45.60178 
Q 618.654661 45.704746 618.963559 45.704746 
Q 619.82161 45.704746 620.542373 44.778051 
Q 621.263136 43.851356 621.675 42.718729 
Q 622.086864 41.586102 622.601695 40.659407 
Q 623.116525 39.732712 623.597034 39.732712 
Q 624.214831 39.732712 624.849788 40.607924 
Q 625.484746 41.483136 625.948093 42.512797 
Q 626.411441 43.542458 627.08072 44.417669 
Q 627.75 45.292881 628.436441 45.292881 
Q 628.711017 43.782712 629.140042 39.69839 
Q 629.569068 35.614068 630.083898 33.554746 
" clip-path="url(#pd2bb3396b1)" style="fill: none; stroke: #000000; stroke-linejoin: miter"/>
   </g>
  </g>
  <g id="axes_40">
   <g id="patch_34">
    <path d="M 640.518579 29.071862 
Q 640.143683 29.146841 640.012469 29.577972 
Q 639.881255 30.009103 639.956234 30.42149 
Q 639.956234 30.571448 639.993724 30.702662 
Q 640.031214 30.833876 640.087448 30.89011 
Q 640.143683 30.946345 640.199917 31.040069 
Q 640.256152 31.133793 640.293641 31.208772 
L 640.40611 29.859145 
M 640.40611 34.020497 
Q 639.506359 39.006621 639.281421 42.793076 
L 639.731297 45.379862 
L 640.068703 46.054676 
" clip-path="url(#p45b5481a59)" style="fill: none; stroke: #000000; stroke-linejoin: miter"/>
   </g>
  </g>
  <g id="axes_41">
   <g id="patch_35">
    <path d="M 651.638731 37.282097 
L 651.638731 37.844441 
Q 651.901159 39.868883 651.938648 41.312234 
Q 651.976138 42.755586 651.882414 44.667559 
Q 651.78869 46.579531 651.78869 48.191586 
L 651.863669 39.643945 
Q 651.863669 38.144359 653.456979 37.507034 
Q 655.05029 36.86971 656.474897 37.282097 
Q 658.386869 37.844441 659.305366 39.04411 
Q 660.223862 40.243779 660.280097 41.668386 
Q 660.336331 43.092993 660.373821 44.817517 
Q 660.41131 46.542041 660.561269 48.191586 
" clip-path="url(#p3d8b51e3e1)" style="fill: none; stroke: #000000; stroke-linejoin: miter"/>
   </g>
  </g>
  <g id="axes_42">
   <g id="patch_36">
    <path d="M 675.899007 39.568966 
Q 674.549379 38.181848 672.3 38.444276 
Q 669.450786 38.444276 668.288607 39.793903 
Q 667.126428 41.143531 667.126428 44.067724 
Q 667.126428 45.56731 668.419821 46.279614 
Q 669.713214 46.991917 671.287779 46.991917 
Q 672.599917 46.991917 673.612138 45.736014 
Q 674.624359 44.48011 675.205448 42.30571 
Q 675.786538 40.13131 676.161434 37.938166 
Q 676.536331 35.745021 676.68629 33.045766 
Q 676.836248 30.34651 676.873738 28.978138 
Q 676.911228 27.609766 676.911228 26.185159 
Q 676.68629 26.260138 676.68629 29.896634 
L 676.68629 44.292662 
L 677.473572 48.229076 
" clip-path="url(#pcf6a6f1f62)" style="fill: none; stroke: #000000; stroke-linejoin: miter"/>
   </g>
  </g>
  <g id="axes_43">
   <g id="patch_37">
    <path d="M 691.7616 35.032717 
Q 690.71189 34.582841 689.737159 34.69531 
Q 686.700497 35.032717 684.788524 36.701007 
Q 682.876552 38.369297 682.876552 41.330979 
Q 682.876552 43.917766 684.882248 45.6048 
Q 686.887945 47.291834 689.512221 47.291834 
Q 691.874069 47.291834 692.998759 45.361117 
Q 694.123448 43.4304 694.123448 40.881103 
Q 694.123448 39.643945 693.711062 38.706703 
Q 693.298676 37.769462 692.773821 37.300841 
Q 692.248966 36.832221 691.499172 36.119917 
Q 690.749379 35.407614 690.299503 34.69531 
L 689.062345 34.245434 
" clip-path="url(#pd409014cd4)" style="fill: none; stroke: #000000; stroke-linejoin: miter"/>
   </g>
  </g>
  <g id="axes_44">
   <g id="patch_38">
    <path d="M 698.316102 36.437797 
L 699.551695 44.778051 
Q 699.654661 45.567458 699.654661 45.60178 
Q 699.654661 45.704746 699.963559 45.704746 
Q 700.82161 45.704746 701.542373 44.778051 
Q 702.263136 43.851356 702.675 42.718729 
Q 703.086864 41.586102 703.601695 40.659407 
Q 704.116525 39.732712 704.597034 39.732712 
Q 705.214831 39.732712 705.849788 40.607924 
Q 706.484746 41.483136 706.948093 42.512797 
Q 707.411441 43.542458 708.08072 44.417669 
Q 708.75 45.292881 709.436441 45.292881 
Q 709.711017 43.782712 710.140042 39.69839 
Q 710.569068 35.614068 711.083898 33.554746 
" clip-path="url(#p3fee3bda71)" style="fill: none; stroke: #000000; stroke-linejoin: miter"/>
   </g>
  </g>
  <g id="axes_45">
   <g id="patch_39">
    <path d="M 720.787531 45.979697 
Q 720.750041 46.017186 720.618828 46.054676 
Q 720.487614 46.092166 720.525103 46.167145 
Q 720.525103 46.579531 720.9 46.579531 
Q 721.237407 46.579531 721.237407 46.092166 
Q 721.312386 45.867228 721.031214 45.754759 
Q 720.750041 45.64229 720.562593 45.754759 
" clip-path="url(#p344c703a43)" style="fill: none; stroke: #000000; stroke-linejoin: miter"/>
   </g>
  </g>
 </g>
 <defs>
  <clipPath id="p7e2ae276ff">
   <rect x="0" y="10.936525" width="16.2" height="49.766949"/>
  </clipPath>
  <clipPath id="pfbc746a7e9">
   <rect x="16.2" y="10.777356" width="16.2" height="50.085288"/>
  </clipPath>
  <clipPath id="pe4dace648b">
   <rect x="33.789352" y="8.64" width="13.421297" height="54.36"/>
  </clipPath>
  <clipPath id="p69a92b06ae">
   <rect x="48.6" y="11.850612" width="16.2" height="47.938776"/>
  </clipPath>
  <clipPath id="pb647aa845e">
   <rect x="67.538979" y="8.64" width="10.722041" height="54.36"/>
  </clipPath>
  <clipPath id="pc81e596c2c">
   <rect x="86.606938" y="8.64" width="4.986124" height="54.36"/>
  </clipPath>
  <clipPath id="p617972cc09">
   <rect x="98.964248" y="8.64" width="12.671503" height="54.36"/>
  </clipPath>
  <clipPath id="p1c6e96c0b1">
   <rect x="113.4" y="9.426742" width="16.2" height="52.786517"/>
  </clipPath>
  <clipPath id="p1c45e8e095">
   <rect x="147.189352" y="8.64" width="13.421297" height="54.36"/>
  </clipPath>
  <clipPath id="p2e10017cbd">
   <rect x="164.738979" y="8.64" width="10.722041" height="54.36"/>
  </clipPath>
  <clipPath id="pf17552da0d">
   <rect x="178.2" y="8.881927" width="16.2" height="53.876147"/>
  </clipPath>
  <clipPath id="p840b6b6ab0">
   <rect x="212.382993" y="8.64" width="12.634014" height="54.36"/>
  </clipPath>
  <clipPath id="pa5d11d8322">
   <rect x="226.8" y="11.850612" width="16.2" height="47.938776"/>
  </clipPath>
  <clipPath id="p16e17d71c3">
   <rect x="243" y="8.881927" width="16.2" height="53.876147"/>
  </clipPath>
  <clipPath id="pb9891d07bb">
   <rect x="260.964248" y="8.64" width="12.671503" height="54.36"/>
  </clipPath>
  <clipPath id="p7961da7c9f">
   <rect x="275.4" y="8.881927" width="16.2" height="53.876147"/>
  </clipPath>
  <clipPath id="pe3c32f333e">
   <rect x="294.338979" y="8.64" width="10.722041" height="54.36"/>
  </clipPath>
  <clipPath id="p71518a4b17">
   <rect x="308.851945" y="8.64" width="14.09611" height="54.36"/>
  </clipPath>
  <clipPath id="p42a525a8d0">
   <rect x="341.083241" y="8.64" width="14.433517" height="54.36"/>
  </clipPath>
  <clipPath id="pa5294038f4">
   <rect x="356.4" y="10.777356" width="16.2" height="50.085288"/>
  </clipPath>
  <clipPath id="p99b527187b">
   <rect x="374.382993" y="8.64" width="12.634014" height="54.36"/>
  </clipPath>
  <clipPath id="p2b5ee04d48">
   <rect x="390.582993" y="8.64" width="12.634014" height="54.36"/>
  </clipPath>
  <clipPath id="pd57a9958f6">
   <rect x="422.758055" y="8.64" width="13.08389" height="54.36"/>
  </clipPath>
  <clipPath id="pcc5c7ac3fe">
   <rect x="438.451945" y="8.64" width="14.09611" height="54.36"/>
  </clipPath>
  <clipPath id="p490a2584af">
   <rect x="472.538979" y="8.64" width="10.722041" height="54.36"/>
  </clipPath>
  <clipPath id="pfd52ddf7fc">
   <rect x="486" y="8.881927" width="16.2" height="53.876147"/>
  </clipPath>
  <clipPath id="p162998475c">
   <rect x="504.938979" y="8.64" width="10.722041" height="54.36"/>
  </clipPath>
  <clipPath id="p94d8cc8e06">
   <rect x="536.382993" y="8.64" width="12.634014" height="54.36"/>
  </clipPath>
  <clipPath id="p26adfcff38">
   <rect x="556.406938" y="8.64" width="4.986124" height="54.36"/>
  </clipPath>
  <clipPath id="p484bd3203d">
   <rect x="568.051945" y="8.64" width="14.09611" height="54.36"/>
  </clipPath>
  <clipPath id="p5874bb7a00">
   <rect x="583.2" y="8.881927" width="16.2" height="53.876147"/>
  </clipPath>
  <clipPath id="pd2bb3396b1">
   <rect x="615.6" y="10.936525" width="16.2" height="49.766949"/>
  </clipPath>
  <clipPath id="p45b5481a59">
   <rect x="637.406938" y="8.64" width="4.986124" height="54.36"/>
  </clipPath>
  <clipPath id="p3d8b51e3e1">
   <rect x="649.764248" y="8.64" width="12.671503" height="54.36"/>
  </clipPath>
  <clipPath id="pcf6a6f1f62">
   <rect x="665.251945" y="8.64" width="14.09611" height="54.36"/>
  </clipPath>
  <clipPath id="pd409014cd4">
   <rect x="681.002069" y="8.64" width="14.995862" height="54.36"/>
  </clipPath>
  <clipPath id="p3fee3bda71">
   <rect x="696.6" y="10.936525" width="16.2" height="49.766949"/>
  </clipPath>
  <clipPath id="p344c703a43">
   <rect x="718.613131" y="8.64" width="4.573738" height="54.36"/>
  </clipPath>
 </defs>
</svg>
