<?xml version="1.0" encoding="utf-8" standalone="no"?>
<!DOCTYPE svg PUBLIC "-//W3C//DTD SVG 1.1//EN"
  "http://www.w3.org/Graphics/SVG/1.1/DTD/svg11.dtd">
<svg xmlns:xlink="http://www.w3.org/1999/xlink" width="828pt" height="72pt" viewBox="0 0 828 72" xmlns="http://www.w3.org/2000/svg" version="1.1">
 <metadata>
  <rdf:RDF xmlns:dc="http://purl.org/dc/elements/1.1/" xmlns:cc="http://creativecommons.org/ns#" xmlns:rdf="http://www.w3.org/1999/02/22-rdf-syntax-ns#">
   <cc:Work>
    <dc:type rdf:resource="http://purl.org/dc/dcmitype/StillImage"/>
    <dc:date>2023-12-21T11:48:55.324331</dc:date>
    <dc:format>image/svg+xml</dc:format>
    <dc:creator>
     <cc:Agent>
      <dc:title>Matplotlib v3.5.1, https://matplotlib.org/</dc:title>
     </cc:Agent>
    </dc:creator>
   </cc:Work>
  </rdf:RDF>
 </metadata>
 <defs>
  <style type="text/css">*{stroke-linejoin: round; stroke-linecap: butt}</style>
 </defs>
 <g id="figure_1">
  <g id="patch_1">
   <path d="M 0 72 
L 828 72 
L 828 0 
L 0 0 
z
" style="fill: #8fff9f"/>
  </g>
  <g id="axes_1">
   <g id="patch_2">
    <path d="M 1.087248 30.470738 
L 2.261477 30.601208 
Q 4.088054 30.601208 5.925503 30.709933 
Q 7.762953 30.818658 10.002685 30.992617 
Q 12.242416 31.166577 13.677584 31.253557 
L 15.112752 31.123087 
M 7.871678 31.057852 
Q 7.936913 31.405772 7.675973 32.177718 
Q 7.415034 32.949664 7.610738 33.406309 
Q 7.610738 34.711007 7.752081 36.363624 
Q 7.893423 38.016242 8.110872 39.973289 
Q 8.328322 41.930336 8.393557 42.800134 
" clip-path="url(#pbbb51de532)" style="fill: none; stroke: #000000; stroke-linejoin: miter"/>
   </g>
  </g>
  <g id="axes_2">
   <g id="patch_3">
    <path d="M 20.813462 35.932469 
Q 21.413297 35.257655 22.406772 34.826524 
Q 23.400248 34.395393 24.3 34.470372 
Q 24.937324 34.470372 25.42469 34.639076 
Q 25.912055 34.807779 26.230717 34.995228 
Q 26.549379 35.182676 26.774317 35.670041 
Q 26.999255 36.157407 27.111724 36.419834 
Q 27.224193 36.682262 27.280428 37.375821 
Q 27.336662 38.069379 27.355407 38.331807 
Q 27.374152 38.594234 27.355407 39.419007 
Q 27.336662 40.243779 27.336662 40.431228 
Q 27.336662 41.368469 27.167959 43.242952 
Q 26.999255 45.117434 26.999255 46.054676 
Q 26.999255 46.467062 27.05549 46.823214 
Q 27.111724 47.179366 27.205448 47.610497 
Q 27.299172 48.041628 27.336662 48.304055 
L 27.786538 48.528993 
M 21.263338 23.111007 
Q 21.488276 24.798041 21.488276 29.971614 
L 21.488276 42.3432 
L 21.150869 46.841959 
L 20.925931 47.74171 
" clip-path="url(#pdd4294516a)" style="fill: none; stroke: #000000; stroke-linejoin: miter"/>
   </g>
  </g>
  <g id="axes_3">
   <g id="patch_4">
    <path d="M 34.257798 38.160826 
Q 37.230275 39.535596 41.949083 39.721376 
Q 43.472477 39.721376 44.159862 38.550963 
Q 44.847248 37.38055 44.847248 35.82 
Q 44.847248 35.299817 44.754358 34.909679 
Q 44.661468 34.519541 44.419954 34.296606 
Q 44.17844 34.07367 44.011239 33.943624 
Q 43.844037 33.813578 43.398165 33.757844 
Q 42.952294 33.70211 42.747936 33.683532 
Q 42.543578 33.664954 41.967661 33.683532 
Q 41.391743 33.70211 41.168807 33.70211 
Q 39.125229 33.70211 37.638991 35.578486 
Q 36.152752 37.454862 36.152752 39.609908 
Q 36.152752 42.619541 38.084862 44.570229 
Q 40.016972 46.520917 43.063761 46.520917 
Q 45.218807 46.818165 46.742202 44.29156 
" clip-path="url(#p3a8a36eecf)" style="fill: none; stroke: #000000; stroke-linejoin: miter"/>
   </g>
  </g>
  <g id="axes_4">
   <g id="patch_5">
    <path d="M 51.563917 36.382345 
Q 51.526428 36.494814 51.657641 36.701007 
Q 51.788855 36.9072 51.676386 37.057159 
L 51.676386 39.306538 
Q 51.676386 40.506207 52.013793 41.724621 
Q 52.3512 42.943034 53.213462 43.93651 
Q 54.075724 44.929986 55.275393 44.929986 
Q 56.512552 44.929986 57.187366 43.861531 
Q 57.862179 42.793076 58.312055 41.143531 
Q 58.761931 39.493986 59.099338 38.969131 
L 59.886621 36.382345 
L 59.661683 42.680607 
L 59.661683 45.154924 
Q 59.661683 47.066897 60.392731 51.00331 
Q 61.123779 54.939724 61.123779 56.964166 
Q 61.873572 59.213545 60.786372 60.188276 
Q 59.699172 61.163007 57.637241 60.78811 
Q 55.837738 60.488193 54.919241 60.169531 
Q 54.000745 59.850869 52.013793 58.988607 
L 51.901324 58.426262 
" clip-path="url(#p30c7d3ab6e)" style="fill: none; stroke: #000000; stroke-linejoin: miter"/>
   </g>
  </g>
  <g id="axes_5">
   <g id="patch_6">
    <path d="M 72.825021 26.147669 
Q 72.787531 26.597545 72.825021 27.384828 
Q 72.86251 27.572276 72.806276 27.965917 
Q 72.750041 28.359559 72.787531 28.678221 
Q 72.825021 28.996883 73.049959 29.184331 
" clip-path="url(#p055b32eeaa)" style="fill: none; stroke: #000000; stroke-linejoin: miter"/>
   </g>
  </g>
  <g id="axes_6">
   <g id="patch_7">
    <path d="M 85.613462 32.783338 
Q 86.138317 34.507862 86.269531 36.457324 
Q 86.400745 38.406786 86.325766 40.956083 
Q 86.250786 43.505379 86.288276 44.705048 
L 86.400745 46.054676 
L 86.400745 45.829738 
Q 86.400745 44.667559 86.119572 42.30571 
Q 85.8384 39.943862 85.8384 38.744193 
Q 85.8384 36.419834 86.850621 34.882759 
Q 87.862841 33.345683 89.887283 33.345683 
Q 90.599586 33.345683 90.936993 33.626855 
Q 91.2744 33.908028 91.536828 34.432883 
Q 91.799255 34.957738 92.136662 35.257655 
L 92.586538 36.832221 
" clip-path="url(#pdc15bdfd13)" style="fill: none; stroke: #000000; stroke-linejoin: miter"/>
   </g>
  </g>
  <g id="axes_7">
   <g id="patch_8">
    <path d="M 99.057798 38.160826 
Q 102.030275 39.535596 106.749083 39.721376 
Q 108.272477 39.721376 108.959862 38.550963 
Q 109.647248 37.38055 109.647248 35.82 
Q 109.647248 35.299817 109.554358 34.909679 
Q 109.461468 34.519541 109.219954 34.296606 
Q 108.97844 34.07367 108.811239 33.943624 
Q 108.644037 33.813578 108.198165 33.757844 
Q 107.752294 33.70211 107.547936 33.683532 
Q 107.343578 33.664954 106.767661 33.683532 
Q 106.191743 33.70211 105.968807 33.70211 
Q 103.925229 33.70211 102.438991 35.578486 
Q 100.952752 37.454862 100.952752 39.609908 
Q 100.952752 42.619541 102.884862 44.570229 
Q 104.816972 46.520917 107.863761 46.520917 
Q 110.018807 46.818165 111.542202 44.29156 
" clip-path="url(#p5f1f65e8f1)" style="fill: none; stroke: #000000; stroke-linejoin: miter"/>
   </g>
  </g>
  <g id="axes_8"/>
  <g id="axes_9">
   <g id="patch_9">
    <path d="M 133.088772 35.145186 
Q 133.088772 35.145186 133.088772 35.595062 
Q 133.088772 36.269876 132.976303 37.619503 
Q 132.863834 38.969131 132.863834 39.643945 
Q 132.863834 41.930814 134.100993 43.599103 
Q 135.338152 45.267393 137.475062 45.267393 
Q 138.862179 45.154924 139.630717 43.917766 
Q 140.399255 42.680607 140.549214 41.237255 
Q 140.699172 39.793903 140.9616 37.9944 
Q 141.224028 36.194897 141.636414 35.370124 
Q 141.786372 35.070207 141.786372 35.670041 
Q 141.786372 36.269876 141.523945 38.706703 
Q 141.299007 41.031062 141.299007 41.555917 
Q 141.149048 42.643117 141.486455 43.767807 
Q 141.823862 44.892497 142.536166 45.6048 
" clip-path="url(#p41c019ecdb)" style="fill: none; stroke: #000000; stroke-linejoin: miter"/>
   </g>
  </g>
  <g id="axes_10">
   <g id="patch_10">
    <path d="M 149.120069 39.868883 
L 149.120069 39.419007 
Q 149.120069 37.769462 150.863338 36.682262 
Q 152.606607 35.595062 154.293641 35.595062 
Q 156.505531 35.595062 157.873903 36.794731 
Q 159.242276 37.9944 159.242276 40.20629 
Q 159.242276 42.30571 157.424028 43.336676 
Q 155.605779 44.367641 153.39389 44.367641 
Q 152.719076 44.367641 152.212966 44.255172 
Q 151.706855 44.142703 151.088276 43.917766 
Q 150.469697 43.692828 150.019821 43.580359 
L 148.895131 42.568138 
M 148.557724 36.832221 
Q 149.0076 38.444276 149.270028 40.262524 
Q 149.532455 42.080772 149.58869 43.749062 
Q 149.644924 45.417352 149.682414 47.27309 
Q 149.719903 49.128828 149.682414 50.778372 
L 149.569945 57.863917 
" clip-path="url(#p0125cb1873)" style="fill: none; stroke: #000000; stroke-linejoin: miter"/>
   </g>
  </g>
  <g id="axes_11"/>
  <g id="axes_12">
   <g id="patch_11">
    <path d="M 186.918579 29.071862 
Q 186.543683 29.146841 186.412469 29.577972 
Q 186.281255 30.009103 186.356234 30.42149 
Q 186.356234 30.571448 186.393724 30.702662 
Q 186.431214 30.833876 186.487448 30.89011 
Q 186.543683 30.946345 186.599917 31.040069 
Q 186.656152 31.133793 186.693641 31.208772 
L 186.80611 29.859145 
M 186.80611 34.020497 
Q 185.906359 39.006621 185.681421 42.793076 
L 186.131297 45.379862 
L 186.468703 46.054676 
" clip-path="url(#pb3f4fd90f1)" style="fill: none; stroke: #000000; stroke-linejoin: miter"/>
   </g>
  </g>
  <g id="axes_13">
   <g id="patch_12">
    <path d="M 198.038731 37.282097 
L 198.038731 37.844441 
Q 198.301159 39.868883 198.338648 41.312234 
Q 198.376138 42.755586 198.282414 44.667559 
Q 198.18869 46.579531 198.18869 48.191586 
L 198.263669 39.643945 
Q 198.263669 38.144359 199.856979 37.507034 
Q 201.45029 36.86971 202.874897 37.282097 
Q 204.786869 37.844441 205.705366 39.04411 
Q 206.623862 40.243779 206.680097 41.668386 
Q 206.736331 43.092993 206.773821 44.817517 
Q 206.81131 46.542041 206.961269 48.191586 
" clip-path="url(#pb01b8b33e6)" style="fill: none; stroke: #000000; stroke-linejoin: miter"/>
   </g>
  </g>
  <g id="axes_14">
   <g id="patch_13">
    <path d="M 213.863834 37.95691 
L 214.538648 37.95691 
Q 215.250952 37.95691 216.038234 37.881931 
Q 216.825517 37.806952 217.781503 37.675738 
Q 218.73749 37.544524 219.262345 37.507034 
L 223.536166 35.82 
M 219.487283 30.42149 
L 219.487283 31.43371 
Q 219.487283 33.383172 218.812469 37.207117 
Q 218.137655 41.031062 218.137655 43.018014 
Q 218.137655 43.805297 218.137655 44.105214 
Q 218.137655 44.405131 218.231379 45.042455 
Q 218.325103 45.679779 218.512552 45.960952 
Q 218.7 46.242124 219.093641 46.485807 
Q 219.487283 46.72949 220.049628 46.72949 
Q 220.162097 46.692 220.480759 46.72949 
Q 220.799421 46.766979 220.986869 46.710745 
Q 221.174317 46.65451 221.174317 46.392083 
" clip-path="url(#pe088440fcb)" style="fill: none; stroke: #000000; stroke-linejoin: miter"/>
   </g>
  </g>
  <g id="axes_15">
   <g id="patch_14">
    <path d="M 238.1616 35.032717 
Q 237.11189 34.582841 236.137159 34.69531 
Q 233.100497 35.032717 231.188524 36.701007 
Q 229.276552 38.369297 229.276552 41.330979 
Q 229.276552 43.917766 231.282248 45.6048 
Q 233.287945 47.291834 235.912221 47.291834 
Q 238.274069 47.291834 239.398759 45.361117 
Q 240.523448 43.4304 240.523448 40.881103 
Q 240.523448 39.643945 240.111062 38.706703 
Q 239.698676 37.769462 239.173821 37.300841 
Q 238.648966 36.832221 237.899172 36.119917 
Q 237.149379 35.407614 236.699503 34.69531 
L 235.462345 34.245434 
" clip-path="url(#pdd50eecdaa)" style="fill: none; stroke: #000000; stroke-linejoin: miter"/>
   </g>
  </g>
  <g id="axes_16"/>
  <g id="axes_17">
   <g id="patch_15">
    <path d="M 262.463834 37.95691 
L 263.138648 37.95691 
Q 263.850952 37.95691 264.638234 37.881931 
Q 265.425517 37.806952 266.381503 37.675738 
Q 267.33749 37.544524 267.862345 37.507034 
L 272.136166 35.82 
M 268.087283 30.42149 
L 268.087283 31.43371 
Q 268.087283 33.383172 267.412469 37.207117 
Q 266.737655 41.031062 266.737655 43.018014 
Q 266.737655 43.805297 266.737655 44.105214 
Q 266.737655 44.405131 266.831379 45.042455 
Q 266.925103 45.679779 267.112552 45.960952 
Q 267.3 46.242124 267.693641 46.485807 
Q 268.087283 46.72949 268.649628 46.72949 
Q 268.762097 46.692 269.080759 46.72949 
Q 269.399421 46.766979 269.586869 46.710745 
Q 269.774317 46.65451 269.774317 46.392083 
" clip-path="url(#p50e01245b9)" style="fill: none; stroke: #000000; stroke-linejoin: miter"/>
   </g>
  </g>
  <g id="axes_18">
   <g id="patch_16">
    <path d="M 280.013462 35.932469 
Q 280.613297 35.257655 281.606772 34.826524 
Q 282.600248 34.395393 283.5 34.470372 
Q 284.137324 34.470372 284.62469 34.639076 
Q 285.112055 34.807779 285.430717 34.995228 
Q 285.749379 35.182676 285.974317 35.670041 
Q 286.199255 36.157407 286.311724 36.419834 
Q 286.424193 36.682262 286.480428 37.375821 
Q 286.536662 38.069379 286.555407 38.331807 
Q 286.574152 38.594234 286.555407 39.419007 
Q 286.536662 40.243779 286.536662 40.431228 
Q 286.536662 41.368469 286.367959 43.242952 
Q 286.199255 45.117434 286.199255 46.054676 
Q 286.199255 46.467062 286.25549 46.823214 
Q 286.311724 47.179366 286.405448 47.610497 
Q 286.499172 48.041628 286.536662 48.304055 
L 286.986538 48.528993 
M 280.463338 23.111007 
Q 280.688276 24.798041 280.688276 29.971614 
L 280.688276 42.3432 
L 280.350869 46.841959 
L 280.125931 47.74171 
" clip-path="url(#p7f7fe26117)" style="fill: none; stroke: #000000; stroke-linejoin: miter"/>
   </g>
  </g>
  <g id="axes_19">
   <g id="patch_17">
    <path d="M 293.457798 38.160826 
Q 296.430275 39.535596 301.149083 39.721376 
Q 302.672477 39.721376 303.359862 38.550963 
Q 304.047248 37.38055 304.047248 35.82 
Q 304.047248 35.299817 303.954358 34.909679 
Q 303.861468 34.519541 303.619954 34.296606 
Q 303.37844 34.07367 303.211239 33.943624 
Q 303.044037 33.813578 302.598165 33.757844 
Q 302.152294 33.70211 301.947936 33.683532 
Q 301.743578 33.664954 301.167661 33.683532 
Q 300.591743 33.70211 300.368807 33.70211 
Q 298.325229 33.70211 296.838991 35.578486 
Q 295.352752 37.454862 295.352752 39.609908 
Q 295.352752 42.619541 297.284862 44.570229 
Q 299.216972 46.520917 302.263761 46.520917 
Q 304.418807 46.818165 305.942202 44.29156 
" clip-path="url(#pa9ab6afe50)" style="fill: none; stroke: #000000; stroke-linejoin: miter"/>
   </g>
  </g>
  <g id="axes_20"/>
  <g id="axes_21">
   <g id="patch_18">
    <path d="M 325.784141 38.85304 
L 326.212335 38.85304 
Q 327.03304 38.85304 327.996476 38.745991 
Q 328.959912 38.638943 330.119604 38.460529 
Q 331.279295 38.282115 331.885903 38.210749 
L 338.415859 35.427489 
M 338.094714 25.793128 
Q 337.809251 25.721762 336.774449 25.275727 
Q 335.739648 24.829692 335.097357 24.93674 
Q 334.455066 24.93674 333.937665 25.150837 
Q 333.420264 25.364934 333.081278 25.793128 
Q 332.742291 26.221322 332.47467 26.685198 
Q 332.207048 27.149075 332.064317 27.862731 
Q 331.921586 28.576388 331.814537 29.129471 
Q 331.707489 29.682555 331.689648 30.50326 
Q 331.671806 31.323965 331.653965 31.77 
Q 331.636123 32.216035 331.653965 32.965374 
Q 331.671806 33.714714 331.671806 33.928811 
Q 331.671806 36.605022 332.367621 41.850396 
Q 333.063436 47.095771 333.063436 49.771982 
Q 332.99207 50.057445 332.956388 50.681894 
Q 332.920705 51.306344 332.813656 51.805903 
Q 332.706608 52.305463 332.421145 52.555242 
" clip-path="url(#pe6a769a674)" style="fill: none; stroke: #000000; stroke-linejoin: miter"/>
   </g>
  </g>
  <g id="axes_22">
   <g id="patch_19">
    <path d="M 351.5616 35.032717 
Q 350.51189 34.582841 349.537159 34.69531 
Q 346.500497 35.032717 344.588524 36.701007 
Q 342.676552 38.369297 342.676552 41.330979 
Q 342.676552 43.917766 344.682248 45.6048 
Q 346.687945 47.291834 349.312221 47.291834 
Q 351.674069 47.291834 352.798759 45.361117 
Q 353.923448 43.4304 353.923448 40.881103 
Q 353.923448 39.643945 353.511062 38.706703 
Q 353.098676 37.769462 352.573821 37.300841 
Q 352.048966 36.832221 351.299172 36.119917 
Q 350.549379 35.407614 350.099503 34.69531 
L 348.862345 34.245434 
" clip-path="url(#p1a3ea358bd)" style="fill: none; stroke: #000000; stroke-linejoin: miter"/>
   </g>
  </g>
  <g id="axes_23">
   <g id="patch_20">
    <path d="M 369.287191 39.096404 
Q 369.03236 39.023596 368.06764 38.623146 
Q 367.102921 38.222697 366.44764 38.077079 
Q 365.79236 37.931461 365.137079 38.00427 
Q 362.515955 38.00427 360.877753 40.388764 
Q 359.239551 42.773258 359.239551 45.430787 
Q 359.239551 47.068989 364.481798 47.068989 
Q 366.047191 47.068989 367.375955 45.558202 
Q 368.704719 44.047416 369.378202 42.172584 
Q 370.051685 40.297753 370.051685 38.768764 
Q 370.051685 37.27618 370.015281 36.984944 
L 369.942472 38.077079 
Q 369.942472 38.550337 369.942472 38.987191 
Q 369.978876 40.188539 370.179101 42.281798 
Q 370.379326 44.375056 370.543146 46.049663 
Q 370.706966 47.72427 370.743371 49.872135 
Q 370.779775 52.02 370.615955 53.658202 
Q 370.452135 55.296404 369.887865 56.971011 
Q 369.323596 58.645618 368.395281 59.737753 
Q 367.466966 60.829888 365.865169 61.521573 
Q 364.263371 62.213258 362.115506 62.213258 
Q 360.477303 62.213258 359.385169 61.466966 
Q 358.293034 60.720674 358.293034 59.155281 
Q 358.220225 58.936854 358.256629 58.936854 
Q 358.293034 58.936854 358.402247 58.936854 
Q 358.511461 58.936854 358.511461 58.82764 
" clip-path="url(#p62c23a38fd)" style="fill: none; stroke: #000000; stroke-linejoin: miter"/>
   </g>
  </g>
  <g id="axes_24"/>
  <g id="axes_25">
   <g id="patch_21">
    <path d="M 392.438731 37.282097 
L 392.438731 37.844441 
Q 392.701159 39.868883 392.738648 41.312234 
Q 392.776138 42.755586 392.682414 44.667559 
Q 392.58869 46.579531 392.58869 48.191586 
L 392.663669 39.643945 
Q 392.663669 38.144359 394.256979 37.507034 
Q 395.85029 36.86971 397.274897 37.282097 
Q 399.186869 37.844441 400.105366 39.04411 
Q 401.023862 40.243779 401.080097 41.668386 
Q 401.136331 43.092993 401.173821 44.817517 
Q 401.21131 46.542041 401.361269 48.191586 
" clip-path="url(#pac0bb0ffc9)" style="fill: none; stroke: #000000; stroke-linejoin: miter"/>
   </g>
  </g>
  <g id="axes_26">
   <g id="patch_22">
    <path d="M 416.3616 35.032717 
Q 415.31189 34.582841 414.337159 34.69531 
Q 411.300497 35.032717 409.388524 36.701007 
Q 407.476552 38.369297 407.476552 41.330979 
Q 407.476552 43.917766 409.482248 45.6048 
Q 411.487945 47.291834 414.112221 47.291834 
Q 416.474069 47.291834 417.598759 45.361117 
Q 418.723448 43.4304 418.723448 40.881103 
Q 418.723448 39.643945 418.311062 38.706703 
Q 417.898676 37.769462 417.373821 37.300841 
Q 416.848966 36.832221 416.099172 36.119917 
Q 415.349379 35.407614 414.899503 34.69531 
L 413.662345 34.245434 
" clip-path="url(#pfe1ff333d2)" style="fill: none; stroke: #000000; stroke-linejoin: miter"/>
   </g>
  </g>
  <g id="axes_27">
   <g id="patch_23">
    <path d="M 422.916102 36.437797 
L 424.151695 44.778051 
Q 424.254661 45.567458 424.254661 45.60178 
Q 424.254661 45.704746 424.563559 45.704746 
Q 425.42161 45.704746 426.142373 44.778051 
Q 426.863136 43.851356 427.275 42.718729 
Q 427.686864 41.586102 428.201695 40.659407 
Q 428.716525 39.732712 429.197034 39.732712 
Q 429.814831 39.732712 430.449788 40.607924 
Q 431.084746 41.483136 431.548093 42.512797 
Q 432.011441 43.542458 432.68072 44.417669 
Q 433.35 45.292881 434.036441 45.292881 
Q 434.311017 43.782712 434.740042 39.69839 
Q 435.169068 35.614068 435.683898 33.554746 
" clip-path="url(#p34186b585e)" style="fill: none; stroke: #000000; stroke-linejoin: miter"/>
   </g>
  </g>
  <g id="axes_28">
   <g id="patch_24">
    <path d="M 445.387531 45.979697 
Q 445.350041 46.017186 445.218828 46.054676 
Q 445.087614 46.092166 445.125103 46.167145 
Q 445.125103 46.579531 445.5 46.579531 
Q 445.837407 46.579531 445.837407 46.092166 
Q 445.912386 45.867228 445.631214 45.754759 
Q 445.350041 45.64229 445.162593 45.754759 
" clip-path="url(#p6bb3268594)" style="fill: none; stroke: #000000; stroke-linejoin: miter"/>
   </g>
  </g>
  <g id="axes_29"/>
  <g id="axes_30">
   <g id="patch_25">
    <path d="M 470.887248 30.470738 
L 472.061477 30.601208 
Q 473.888054 30.601208 475.725503 30.709933 
Q 477.562953 30.818658 479.802685 30.992617 
Q 482.042416 31.166577 483.477584 31.253557 
L 484.912752 31.123087 
M 477.671678 31.057852 
Q 477.736913 31.405772 477.475973 32.177718 
Q 477.215034 32.949664 477.410738 33.406309 
Q 477.410738 34.711007 477.552081 36.363624 
Q 477.693423 38.016242 477.910872 39.973289 
Q 478.128322 41.930336 478.193557 42.800134 
" clip-path="url(#pcfd618c1f4)" style="fill: none; stroke: #000000; stroke-linejoin: miter"/>
   </g>
  </g>
  <g id="axes_31">
   <g id="patch_26">
    <path d="M 490.613462 35.932469 
Q 491.213297 35.257655 492.206772 34.826524 
Q 493.200248 34.395393 494.1 34.470372 
Q 494.737324 34.470372 495.22469 34.639076 
Q 495.712055 34.807779 496.030717 34.995228 
Q 496.349379 35.182676 496.574317 35.670041 
Q 496.799255 36.157407 496.911724 36.419834 
Q 497.024193 36.682262 497.080428 37.375821 
Q 497.136662 38.069379 497.155407 38.331807 
Q 497.174152 38.594234 497.155407 39.419007 
Q 497.136662 40.243779 497.136662 40.431228 
Q 497.136662 41.368469 496.967959 43.242952 
Q 496.799255 45.117434 496.799255 46.054676 
Q 496.799255 46.467062 496.85549 46.823214 
Q 496.911724 47.179366 497.005448 47.610497 
Q 497.099172 48.041628 497.136662 48.304055 
L 497.586538 48.528993 
M 491.063338 23.111007 
Q 491.288276 24.798041 491.288276 29.971614 
L 491.288276 42.3432 
L 490.950869 46.841959 
L 490.725931 47.74171 
" clip-path="url(#p0ca28a05f0)" style="fill: none; stroke: #000000; stroke-linejoin: miter"/>
   </g>
  </g>
  <g id="axes_32">
   <g id="patch_27">
    <path d="M 504.057798 38.160826 
Q 507.030275 39.535596 511.749083 39.721376 
Q 513.272477 39.721376 513.959862 38.550963 
Q 514.647248 37.38055 514.647248 35.82 
Q 514.647248 35.299817 514.554358 34.909679 
Q 514.461468 34.519541 514.219954 34.296606 
Q 513.97844 34.07367 513.811239 33.943624 
Q 513.644037 33.813578 513.198165 33.757844 
Q 512.752294 33.70211 512.547936 33.683532 
Q 512.343578 33.664954 511.767661 33.683532 
Q 511.191743 33.70211 510.968807 33.70211 
Q 508.925229 33.70211 507.438991 35.578486 
Q 505.952752 37.454862 505.952752 39.609908 
Q 505.952752 42.619541 507.884862 44.570229 
Q 509.816972 46.520917 512.863761 46.520917 
Q 515.018807 46.818165 516.542202 44.29156 
" clip-path="url(#pb2b973b80f)" style="fill: none; stroke: #000000; stroke-linejoin: miter"/>
   </g>
  </g>
  <g id="axes_33"/>
  <g id="axes_34">
   <g id="patch_28">
    <path d="M 536.408036 34.879821 
Q 536.914286 36.073125 537.203571 42.871339 
Q 537.348214 46.632054 537.6375 46.632054 
Q 537.673661 46.632054 537.709821 46.595893 
Q 538.216071 46.017321 538.270313 44.588973 
Q 538.324554 43.160625 538.107589 41.750357 
Q 537.890625 40.340089 537.6375 38.712857 
Q 537.384375 37.085625 537.384375 36.398571 
Q 537.384375 35.169107 537.764063 33.939643 
Q 538.14375 32.710179 539.120089 32.710179 
Q 540.349554 32.710179 541.072768 34.355491 
Q 541.795982 36.000804 541.958705 37.971562 
Q 542.121429 39.942321 542.229911 41.587634 
Q 542.338393 43.232946 542.483036 43.232946 
Q 542.627679 43.232946 542.71808 41.497232 
Q 542.808482 39.761518 542.935045 37.700357 
Q 543.061607 35.639196 543.784821 33.903482 
Q 544.508036 32.167768 545.7375 32.167768 
Q 547.292411 33.035625 547.961384 34.771339 
Q 548.630357 36.507054 548.594196 38.188527 
Q 548.558036 39.87 548.576116 42.057723 
Q 548.594196 44.245446 548.991964 45.511071 
" clip-path="url(#p9188524827)" style="fill: none; stroke: #000000; stroke-linejoin: miter"/>
   </g>
  </g>
  <g id="axes_35">
   <g id="patch_29">
    <path d="M 559.518579 29.071862 
Q 559.143683 29.146841 559.012469 29.577972 
Q 558.881255 30.009103 558.956234 30.42149 
Q 558.956234 30.571448 558.993724 30.702662 
Q 559.031214 30.833876 559.087448 30.89011 
Q 559.143683 30.946345 559.199917 31.040069 
Q 559.256152 31.133793 559.293641 31.208772 
L 559.40611 29.859145 
M 559.40611 34.020497 
Q 558.506359 39.006621 558.281421 42.793076 
L 558.731297 45.379862 
L 559.068703 46.054676 
" clip-path="url(#paea44ee0b9)" style="fill: none; stroke: #000000; stroke-linejoin: miter"/>
   </g>
  </g>
  <g id="axes_36">
   <g id="patch_30">
    <path d="M 570.657476 43.917766 
Q 570.957393 44.180193 571.969614 45.154924 
Q 572.981834 46.129655 573.544179 46.560786 
Q 574.106524 46.991917 575.13749 47.385559 
Q 576.168455 47.7792 577.180676 47.629241 
Q 577.85549 47.629241 578.32411 47.404303 
Q 578.792731 47.179366 579.017669 46.879448 
Q 579.242607 46.579531 579.373821 45.979697 
Q 579.505034 45.379862 579.523779 44.967476 
Q 579.542524 44.55509 579.542524 43.805297 
Q 579.542524 42.718097 578.642772 42.043283 
Q 577.743021 41.368469 576.449628 41.031062 
Q 575.156234 40.693655 573.862841 40.300014 
Q 572.569448 39.906372 571.669697 38.987876 
Q 570.769945 38.069379 570.769945 36.607283 
Q 570.769945 36.082428 570.938648 35.726276 
Q 571.107352 35.370124 571.500993 35.145186 
Q 571.894634 34.920248 572.175807 34.807779 
Q 572.456979 34.69531 573.113048 34.639076 
Q 573.769117 34.582841 573.956566 34.582841 
Q 574.144014 34.582841 574.818828 34.582841 
Q 576.018497 34.582841 576.599586 34.995228 
Q 577.180676 35.407614 577.499338 36.026193 
Q 577.818 36.644772 578.080428 36.832221 
" clip-path="url(#p60212da6aa)" style="fill: none; stroke: #000000; stroke-linejoin: miter"/>
   </g>
  </g>
  <g id="axes_37">
   <g id="patch_31">
    <path d="M 586.463834 37.95691 
L 587.138648 37.95691 
Q 587.850952 37.95691 588.638234 37.881931 
Q 589.425517 37.806952 590.381503 37.675738 
Q 591.33749 37.544524 591.862345 37.507034 
L 596.136166 35.82 
M 592.087283 30.42149 
L 592.087283 31.43371 
Q 592.087283 33.383172 591.412469 37.207117 
Q 590.737655 41.031062 590.737655 43.018014 
Q 590.737655 43.805297 590.737655 44.105214 
Q 590.737655 44.405131 590.831379 45.042455 
Q 590.925103 45.679779 591.112552 45.960952 
Q 591.3 46.242124 591.693641 46.485807 
Q 592.087283 46.72949 592.649628 46.72949 
Q 592.762097 46.692 593.080759 46.72949 
Q 593.399421 46.766979 593.586869 46.710745 
Q 593.774317 46.65451 593.774317 46.392083 
" clip-path="url(#p3b0d13c5f5)" style="fill: none; stroke: #000000; stroke-linejoin: miter"/>
   </g>
  </g>
  <g id="axes_38"/>
  <g id="axes_39">
   <g id="patch_32">
    <path d="M 624.318579 29.071862 
Q 623.943683 29.146841 623.812469 29.577972 
Q 623.681255 30.009103 623.756234 30.42149 
Q 623.756234 30.571448 623.793724 30.702662 
Q 623.831214 30.833876 623.887448 30.89011 
Q 623.943683 30.946345 623.999917 31.040069 
Q 624.056152 31.133793 624.093641 31.208772 
L 624.20611 29.859145 
M 624.20611 34.020497 
Q 623.306359 39.006621 623.081421 42.793076 
L 623.531297 45.379862 
L 623.868703 46.054676 
" clip-path="url(#pd87fee3d69)" style="fill: none; stroke: #000000; stroke-linejoin: miter"/>
   </g>
  </g>
  <g id="axes_40">
   <g id="patch_33">
    <path d="M 635.457476 43.917766 
Q 635.757393 44.180193 636.769614 45.154924 
Q 637.781834 46.129655 638.344179 46.560786 
Q 638.906524 46.991917 639.93749 47.385559 
Q 640.968455 47.7792 641.980676 47.629241 
Q 642.65549 47.629241 643.12411 47.404303 
Q 643.592731 47.179366 643.817669 46.879448 
Q 644.042607 46.579531 644.173821 45.979697 
Q 644.305034 45.379862 644.323779 44.967476 
Q 644.342524 44.55509 644.342524 43.805297 
Q 644.342524 42.718097 643.442772 42.043283 
Q 642.543021 41.368469 641.249628 41.031062 
Q 639.956234 40.693655 638.662841 40.300014 
Q 637.369448 39.906372 636.469697 38.987876 
Q 635.569945 38.069379 635.569945 36.607283 
Q 635.569945 36.082428 635.738648 35.726276 
Q 635.907352 35.370124 636.300993 35.145186 
Q 636.694634 34.920248 636.975807 34.807779 
Q 637.256979 34.69531 637.913048 34.639076 
Q 638.569117 34.582841 638.756566 34.582841 
Q 638.944014 34.582841 639.618828 34.582841 
Q 640.818497 34.582841 641.399586 34.995228 
Q 641.980676 35.407614 642.299338 36.026193 
Q 642.618 36.644772 642.880428 36.832221 
" clip-path="url(#p5c023c75fd)" style="fill: none; stroke: #000000; stroke-linejoin: miter"/>
   </g>
  </g>
  <g id="axes_41"/>
  <g id="axes_42">
   <g id="patch_34">
    <path d="M 667.857476 43.917766 
Q 668.157393 44.180193 669.169614 45.154924 
Q 670.181834 46.129655 670.744179 46.560786 
Q 671.306524 46.991917 672.33749 47.385559 
Q 673.368455 47.7792 674.380676 47.629241 
Q 675.05549 47.629241 675.52411 47.404303 
Q 675.992731 47.179366 676.217669 46.879448 
Q 676.442607 46.579531 676.573821 45.979697 
Q 676.705034 45.379862 676.723779 44.967476 
Q 676.742524 44.55509 676.742524 43.805297 
Q 676.742524 42.718097 675.842772 42.043283 
Q 674.943021 41.368469 673.649628 41.031062 
Q 672.356234 40.693655 671.062841 40.300014 
Q 669.769448 39.906372 668.869697 38.987876 
Q 667.969945 38.069379 667.969945 36.607283 
Q 667.969945 36.082428 668.138648 35.726276 
Q 668.307352 35.370124 668.700993 35.145186 
Q 669.094634 34.920248 669.375807 34.807779 
Q 669.656979 34.69531 670.313048 34.639076 
Q 670.969117 34.582841 671.156566 34.582841 
Q 671.344014 34.582841 672.018828 34.582841 
Q 673.218497 34.582841 673.799586 34.995228 
Q 674.380676 35.407614 674.699338 36.026193 
Q 675.018 36.644772 675.280428 36.832221 
" clip-path="url(#p4bab270be8)" style="fill: none; stroke: #000000; stroke-linejoin: miter"/>
   </g>
  </g>
  <g id="axes_43">
   <g id="patch_35">
    <path d="M 682.257798 38.160826 
Q 685.230275 39.535596 689.949083 39.721376 
Q 691.472477 39.721376 692.159862 38.550963 
Q 692.847248 37.38055 692.847248 35.82 
Q 692.847248 35.299817 692.754358 34.909679 
Q 692.661468 34.519541 692.419954 34.296606 
Q 692.17844 34.07367 692.011239 33.943624 
Q 691.844037 33.813578 691.398165 33.757844 
Q 690.952294 33.70211 690.747936 33.683532 
Q 690.543578 33.664954 689.967661 33.683532 
Q 689.391743 33.70211 689.168807 33.70211 
Q 687.125229 33.70211 685.638991 35.578486 
Q 684.152752 37.454862 684.152752 39.609908 
Q 684.152752 42.619541 686.084862 44.570229 
Q 688.016972 46.520917 691.063761 46.520917 
Q 693.218807 46.818165 694.742202 44.29156 
" clip-path="url(#pd63e293807)" style="fill: none; stroke: #000000; stroke-linejoin: miter"/>
   </g>
  </g>
  <g id="axes_44">
   <g id="patch_36">
    <path d="M 698.457798 38.160826 
Q 701.430275 39.535596 706.149083 39.721376 
Q 707.672477 39.721376 708.359862 38.550963 
Q 709.047248 37.38055 709.047248 35.82 
Q 709.047248 35.299817 708.954358 34.909679 
Q 708.861468 34.519541 708.619954 34.296606 
Q 708.37844 34.07367 708.211239 33.943624 
Q 708.044037 33.813578 707.598165 33.757844 
Q 707.152294 33.70211 706.947936 33.683532 
Q 706.743578 33.664954 706.167661 33.683532 
Q 705.591743 33.70211 705.368807 33.70211 
Q 703.325229 33.70211 701.838991 35.578486 
Q 700.352752 37.454862 700.352752 39.609908 
Q 700.352752 42.619541 702.284862 44.570229 
Q 704.216972 46.520917 707.263761 46.520917 
Q 709.418807 46.818165 710.942202 44.29156 
" clip-path="url(#p53f3a24fcf)" style="fill: none; stroke: #000000; stroke-linejoin: miter"/>
   </g>
  </g>
  <g id="axes_45">
   <g id="patch_37">
    <path d="M 716.120069 39.868883 
L 716.120069 39.419007 
Q 716.120069 37.769462 717.863338 36.682262 
Q 719.606607 35.595062 721.293641 35.595062 
Q 723.505531 35.595062 724.873903 36.794731 
Q 726.242276 37.9944 726.242276 40.20629 
Q 726.242276 42.30571 724.424028 43.336676 
Q 722.605779 44.367641 720.39389 44.367641 
Q 719.719076 44.367641 719.212966 44.255172 
Q 718.706855 44.142703 718.088276 43.917766 
Q 717.469697 43.692828 717.019821 43.580359 
L 715.895131 42.568138 
M 715.557724 36.832221 
Q 716.0076 38.444276 716.270028 40.262524 
Q 716.532455 42.080772 716.58869 43.749062 
Q 716.644924 45.417352 716.682414 47.27309 
Q 716.719903 49.128828 716.682414 50.778372 
L 716.569945 57.863917 
" clip-path="url(#pf9b4055329)" style="fill: none; stroke: #000000; stroke-linejoin: miter"/>
   </g>
  </g>
  <g id="axes_46">
   <g id="patch_38">
    <path d="M 734.794386 35.595062 
L 739.405614 35.707531 
" clip-path="url(#pcdfbfcdc73)" style="fill: none; stroke: #000000; stroke-linejoin: miter"/>
   </g>
  </g>
 </g>
 <defs>
  <clipPath id="pbbb51de532">
   <rect x="0" y="20.054899" width="16.2" height="31.530201"/>
  </clipPath>
  <clipPath id="pdd4294516a">
   <rect x="18.938979" y="8.64" width="10.722041" height="54.36"/>
  </clipPath>
  <clipPath id="p3a8a36eecf">
   <rect x="32.4" y="8.881927" width="16.2" height="53.876147"/>
  </clipPath>
  <clipPath id="p30c7d3ab6e">
   <rect x="49.651945" y="8.64" width="14.09611" height="54.36"/>
  </clipPath>
  <clipPath id="p055b32eeaa">
   <rect x="70.875559" y="8.64" width="4.048883" height="54.36"/>
  </clipPath>
  <clipPath id="pdc15bdfd13">
   <rect x="83.738979" y="8.64" width="10.722041" height="54.36"/>
  </clipPath>
  <clipPath id="p5f1f65e8f1">
   <rect x="97.2" y="8.881927" width="16.2" height="53.876147"/>
  </clipPath>
  <clipPath id="p41c019ecdb">
   <rect x="130.989352" y="8.64" width="13.421297" height="54.36"/>
  </clipPath>
  <clipPath id="p0125cb1873">
   <rect x="146.683241" y="8.64" width="14.433517" height="54.36"/>
  </clipPath>
  <clipPath id="pb3f4fd90f1">
   <rect x="183.806938" y="8.64" width="4.986124" height="54.36"/>
  </clipPath>
  <clipPath id="pb01b8b33e6">
   <rect x="196.164248" y="8.64" width="12.671503" height="54.36"/>
  </clipPath>
  <clipPath id="pe088440fcb">
   <rect x="211.989352" y="8.64" width="13.421297" height="54.36"/>
  </clipPath>
  <clipPath id="pdd50eecdaa">
   <rect x="227.402069" y="8.64" width="14.995862" height="54.36"/>
  </clipPath>
  <clipPath id="p50e01245b9">
   <rect x="260.589352" y="8.64" width="13.421297" height="54.36"/>
  </clipPath>
  <clipPath id="p7f7fe26117">
   <rect x="278.138979" y="8.64" width="10.722041" height="54.36"/>
  </clipPath>
  <clipPath id="pa9ab6afe50">
   <rect x="291.6" y="8.881927" width="16.2" height="53.876147"/>
  </clipPath>
  <clipPath id="pe6a769a674">
   <rect x="324" y="9.949956" width="16.2" height="51.740088"/>
  </clipPath>
  <clipPath id="p1a3ea358bd">
   <rect x="340.802069" y="8.64" width="14.995862" height="54.36"/>
  </clipPath>
  <clipPath id="p62c23a38fd">
   <rect x="356.4" y="9.426742" width="16.2" height="52.786517"/>
  </clipPath>
  <clipPath id="pac0bb0ffc9">
   <rect x="390.564248" y="8.64" width="12.671503" height="54.36"/>
  </clipPath>
  <clipPath id="pfe1ff333d2">
   <rect x="405.602069" y="8.64" width="14.995862" height="54.36"/>
  </clipPath>
  <clipPath id="p34186b585e">
   <rect x="421.2" y="10.936525" width="16.2" height="49.766949"/>
  </clipPath>
  <clipPath id="p6bb3268594">
   <rect x="443.213131" y="8.64" width="4.573738" height="54.36"/>
  </clipPath>
  <clipPath id="pcfd618c1f4">
   <rect x="469.8" y="20.054899" width="16.2" height="31.530201"/>
  </clipPath>
  <clipPath id="p0ca28a05f0">
   <rect x="488.738979" y="8.64" width="10.722041" height="54.36"/>
  </clipPath>
  <clipPath id="pb2b973b80f">
   <rect x="502.2" y="8.881927" width="16.2" height="53.876147"/>
  </clipPath>
  <clipPath id="p9188524827">
   <rect x="534.6" y="9.603482" width="16.2" height="52.433036"/>
  </clipPath>
  <clipPath id="paea44ee0b9">
   <rect x="556.406938" y="8.64" width="4.986124" height="54.36"/>
  </clipPath>
  <clipPath id="p60212da6aa">
   <rect x="568.782993" y="8.64" width="12.634014" height="54.36"/>
  </clipPath>
  <clipPath id="p3b0d13c5f5">
   <rect x="584.589352" y="8.64" width="13.421297" height="54.36"/>
  </clipPath>
  <clipPath id="pd87fee3d69">
   <rect x="621.206938" y="8.64" width="4.986124" height="54.36"/>
  </clipPath>
  <clipPath id="p5c023c75fd">
   <rect x="633.582993" y="8.64" width="12.634014" height="54.36"/>
  </clipPath>
  <clipPath id="p4bab270be8">
   <rect x="665.982993" y="8.64" width="12.634014" height="54.36"/>
  </clipPath>
  <clipPath id="pd63e293807">
   <rect x="680.4" y="8.881927" width="16.2" height="53.876147"/>
  </clipPath>
  <clipPath id="p53f3a24fcf">
   <rect x="696.6" y="8.881927" width="16.2" height="53.876147"/>
  </clipPath>
  <clipPath id="pf9b4055329">
   <rect x="713.683241" y="8.64" width="14.433517" height="54.36"/>
  </clipPath>
  <clipPath id="pcdfbfcdc73">
   <rect x="732.919903" y="8.64" width="8.360193" height="54.36"/>
  </clipPath>
 </defs>
</svg>
