<?xml version="1.0" encoding="utf-8" standalone="no"?>
<!DOCTYPE svg PUBLIC "-//W3C//DTD SVG 1.1//EN"
  "http://www.w3.org/Graphics/SVG/1.1/DTD/svg11.dtd">
<svg xmlns:xlink="http://www.w3.org/1999/xlink" width="828pt" height="72pt" viewBox="0 0 828 72" xmlns="http://www.w3.org/2000/svg" version="1.1">
 <metadata>
  <rdf:RDF xmlns:dc="http://purl.org/dc/elements/1.1/" xmlns:cc="http://creativecommons.org/ns#" xmlns:rdf="http://www.w3.org/1999/02/22-rdf-syntax-ns#">
   <cc:Work>
    <dc:type rdf:resource="http://purl.org/dc/dcmitype/StillImage"/>
    <dc:date>2023-12-21T11:48:35.039608</dc:date>
    <dc:format>image/svg+xml</dc:format>
    <dc:creator>
     <cc:Agent>
      <dc:title>Matplotlib v3.5.1, https://matplotlib.org/</dc:title>
     </cc:Agent>
    </dc:creator>
   </cc:Work>
  </rdf:RDF>
 </metadata>
 <defs>
  <style type="text/css">*{stroke-linejoin: round; stroke-linecap: butt}</style>
 </defs>
 <g id="figure_1">
  <g id="patch_1">
   <path d="M 0 72 
L 828 72 
L 828 0 
L 0 0 
z
" style="fill: #8fff9f"/>
  </g>
  <g id="axes_1">
   <g id="patch_2">
    <path d="M 12.887191 39.096404 
Q 12.63236 39.023596 11.66764 38.623146 
Q 10.702921 38.222697 10.04764 38.077079 
Q 9.39236 37.931461 8.737079 38.00427 
Q 6.115955 38.00427 4.477753 40.388764 
Q 2.839551 42.773258 2.839551 45.430787 
Q 2.839551 47.068989 8.081798 47.068989 
Q 9.647191 47.068989 10.975955 45.558202 
Q 12.304719 44.047416 12.978202 42.172584 
Q 13.651685 40.297753 13.651685 38.768764 
Q 13.651685 37.27618 13.615281 36.984944 
L 13.542472 38.077079 
Q 13.542472 38.550337 13.542472 38.987191 
Q 13.578876 40.188539 13.779101 42.281798 
Q 13.979326 44.375056 14.143146 46.049663 
Q 14.306966 47.72427 14.343371 49.872135 
Q 14.379775 52.02 14.215955 53.658202 
Q 14.052135 55.296404 13.487865 56.971011 
Q 12.923596 58.645618 11.995281 59.737753 
Q 11.066966 60.829888 9.465169 61.521573 
Q 7.863371 62.213258 5.715506 62.213258 
Q 4.077303 62.213258 2.985169 61.466966 
Q 1.893034 60.720674 1.893034 59.155281 
Q 1.820225 58.936854 1.856629 58.936854 
Q 1.893034 58.936854 2.002247 58.936854 
Q 2.111461 58.936854 2.111461 58.82764 
" clip-path="url(#pd7792bdbce)" style="fill: none; stroke: #000000; stroke-linejoin: miter"/>
   </g>
  </g>
  <g id="axes_2">
   <g id="patch_3">
    <path d="M 20.813462 32.783338 
Q 21.338317 34.507862 21.469531 36.457324 
Q 21.600745 38.406786 21.525766 40.956083 
Q 21.450786 43.505379 21.488276 44.705048 
L 21.600745 46.054676 
L 21.600745 45.829738 
Q 21.600745 44.667559 21.319572 42.30571 
Q 21.0384 39.943862 21.0384 38.744193 
Q 21.0384 36.419834 22.050621 34.882759 
Q 23.062841 33.345683 25.087283 33.345683 
Q 25.799586 33.345683 26.136993 33.626855 
Q 26.4744 33.908028 26.736828 34.432883 
Q 26.999255 34.957738 27.336662 35.257655 
L 27.786538 36.832221 
" clip-path="url(#p7ddce17a24)" style="fill: none; stroke: #000000; stroke-linejoin: miter"/>
   </g>
  </g>
  <g id="axes_3">
   <g id="patch_4">
    <path d="M 34.257798 38.160826 
Q 37.230275 39.535596 41.949083 39.721376 
Q 43.472477 39.721376 44.159862 38.550963 
Q 44.847248 37.38055 44.847248 35.82 
Q 44.847248 35.299817 44.754358 34.909679 
Q 44.661468 34.519541 44.419954 34.296606 
Q 44.17844 34.07367 44.011239 33.943624 
Q 43.844037 33.813578 43.398165 33.757844 
Q 42.952294 33.70211 42.747936 33.683532 
Q 42.543578 33.664954 41.967661 33.683532 
Q 41.391743 33.70211 41.168807 33.70211 
Q 39.125229 33.70211 37.638991 35.578486 
Q 36.152752 37.454862 36.152752 39.609908 
Q 36.152752 42.619541 38.084862 44.570229 
Q 40.016972 46.520917 43.063761 46.520917 
Q 45.218807 46.818165 46.742202 44.29156 
" clip-path="url(#pdc7b9c6314)" style="fill: none; stroke: #000000; stroke-linejoin: miter"/>
   </g>
  </g>
  <g id="axes_4">
   <g id="patch_5">
    <path d="M 50.457798 38.160826 
Q 53.430275 39.535596 58.149083 39.721376 
Q 59.672477 39.721376 60.359862 38.550963 
Q 61.047248 37.38055 61.047248 35.82 
Q 61.047248 35.299817 60.954358 34.909679 
Q 60.861468 34.519541 60.619954 34.296606 
Q 60.37844 34.07367 60.211239 33.943624 
Q 60.044037 33.813578 59.598165 33.757844 
Q 59.152294 33.70211 58.947936 33.683532 
Q 58.743578 33.664954 58.167661 33.683532 
Q 57.591743 33.70211 57.368807 33.70211 
Q 55.325229 33.70211 53.838991 35.578486 
Q 52.352752 37.454862 52.352752 39.609908 
Q 52.352752 42.619541 54.284862 44.570229 
Q 56.216972 46.520917 59.263761 46.520917 
Q 61.418807 46.818165 62.942202 44.29156 
" clip-path="url(#pfe541b6289)" style="fill: none; stroke: #000000; stroke-linejoin: miter"/>
   </g>
  </g>
  <g id="axes_5">
   <g id="patch_6">
    <path d="M 68.063834 37.95691 
L 68.738648 37.95691 
Q 69.450952 37.95691 70.238234 37.881931 
Q 71.025517 37.806952 71.981503 37.675738 
Q 72.93749 37.544524 73.462345 37.507034 
L 77.736166 35.82 
M 73.687283 30.42149 
L 73.687283 31.43371 
Q 73.687283 33.383172 73.012469 37.207117 
Q 72.337655 41.031062 72.337655 43.018014 
Q 72.337655 43.805297 72.337655 44.105214 
Q 72.337655 44.405131 72.431379 45.042455 
Q 72.525103 45.679779 72.712552 45.960952 
Q 72.9 46.242124 73.293641 46.485807 
Q 73.687283 46.72949 74.249628 46.72949 
Q 74.362097 46.692 74.680759 46.72949 
Q 74.999421 46.766979 75.186869 46.710745 
Q 75.374317 46.65451 75.374317 46.392083 
" clip-path="url(#paf733d1317)" style="fill: none; stroke: #000000; stroke-linejoin: miter"/>
   </g>
  </g>
  <g id="axes_6">
   <g id="patch_7">
    <path d="M 82.857798 38.160826 
Q 85.830275 39.535596 90.549083 39.721376 
Q 92.072477 39.721376 92.759862 38.550963 
Q 93.447248 37.38055 93.447248 35.82 
Q 93.447248 35.299817 93.354358 34.909679 
Q 93.261468 34.519541 93.019954 34.296606 
Q 92.77844 34.07367 92.611239 33.943624 
Q 92.444037 33.813578 91.998165 33.757844 
Q 91.552294 33.70211 91.347936 33.683532 
Q 91.143578 33.664954 90.567661 33.683532 
Q 89.991743 33.70211 89.768807 33.70211 
Q 87.725229 33.70211 86.238991 35.578486 
Q 84.752752 37.454862 84.752752 39.609908 
Q 84.752752 42.619541 86.684862 44.570229 
Q 88.616972 46.520917 91.663761 46.520917 
Q 93.818807 46.818165 95.342202 44.29156 
" clip-path="url(#pcd0606f5a6)" style="fill: none; stroke: #000000; stroke-linejoin: miter"/>
   </g>
  </g>
  <g id="axes_7">
   <g id="patch_8">
    <path d="M 108.899007 39.568966 
Q 107.549379 38.181848 105.3 38.444276 
Q 102.450786 38.444276 101.288607 39.793903 
Q 100.126428 41.143531 100.126428 44.067724 
Q 100.126428 45.56731 101.419821 46.279614 
Q 102.713214 46.991917 104.287779 46.991917 
Q 105.599917 46.991917 106.612138 45.736014 
Q 107.624359 44.48011 108.205448 42.30571 
Q 108.786538 40.13131 109.161434 37.938166 
Q 109.536331 35.745021 109.68629 33.045766 
Q 109.836248 30.34651 109.873738 28.978138 
Q 109.911228 27.609766 109.911228 26.185159 
Q 109.68629 26.260138 109.68629 29.896634 
L 109.68629 44.292662 
L 110.473572 48.229076 
" clip-path="url(#p16fe6e3561)" style="fill: none; stroke: #000000; stroke-linejoin: miter"/>
   </g>
  </g>
  <g id="axes_8"/>
  <g id="axes_9">
   <g id="patch_9">
    <path d="M 131.316102 36.437797 
L 132.551695 44.778051 
Q 132.654661 45.567458 132.654661 45.60178 
Q 132.654661 45.704746 132.963559 45.704746 
Q 133.82161 45.704746 134.542373 44.778051 
Q 135.263136 43.851356 135.675 42.718729 
Q 136.086864 41.586102 136.601695 40.659407 
Q 137.116525 39.732712 137.597034 39.732712 
Q 138.214831 39.732712 138.849788 40.607924 
Q 139.484746 41.483136 139.948093 42.512797 
Q 140.411441 43.542458 141.08072 44.417669 
Q 141.75 45.292881 142.436441 45.292881 
Q 142.711017 43.782712 143.140042 39.69839 
Q 143.569068 35.614068 144.083898 33.554746 
" clip-path="url(#p9ae51934d1)" style="fill: none; stroke: #000000; stroke-linejoin: miter"/>
   </g>
  </g>
  <g id="axes_10">
   <g id="patch_10">
    <path d="M 154.518579 29.071862 
Q 154.143683 29.146841 154.012469 29.577972 
Q 153.881255 30.009103 153.956234 30.42149 
Q 153.956234 30.571448 153.993724 30.702662 
Q 154.031214 30.833876 154.087448 30.89011 
Q 154.143683 30.946345 154.199917 31.040069 
Q 154.256152 31.133793 154.293641 31.208772 
L 154.40611 29.859145 
M 154.40611 34.020497 
Q 153.506359 39.006621 153.281421 42.793076 
L 153.731297 45.379862 
L 154.068703 46.054676 
" clip-path="url(#p762204ac5d)" style="fill: none; stroke: #000000; stroke-linejoin: miter"/>
   </g>
  </g>
  <g id="axes_11">
   <g id="patch_11">
    <path d="M 165.263834 37.95691 
L 165.938648 37.95691 
Q 166.650952 37.95691 167.438234 37.881931 
Q 168.225517 37.806952 169.181503 37.675738 
Q 170.13749 37.544524 170.662345 37.507034 
L 174.936166 35.82 
M 170.887283 30.42149 
L 170.887283 31.43371 
Q 170.887283 33.383172 170.212469 37.207117 
Q 169.537655 41.031062 169.537655 43.018014 
Q 169.537655 43.805297 169.537655 44.105214 
Q 169.537655 44.405131 169.631379 45.042455 
Q 169.725103 45.679779 169.912552 45.960952 
Q 170.1 46.242124 170.493641 46.485807 
Q 170.887283 46.72949 171.449628 46.72949 
Q 171.562097 46.692 171.880759 46.72949 
Q 172.199421 46.766979 172.386869 46.710745 
Q 172.574317 46.65451 172.574317 46.392083 
" clip-path="url(#p048e80a902)" style="fill: none; stroke: #000000; stroke-linejoin: miter"/>
   </g>
  </g>
  <g id="axes_12">
   <g id="patch_12">
    <path d="M 182.813462 35.932469 
Q 183.413297 35.257655 184.406772 34.826524 
Q 185.400248 34.395393 186.3 34.470372 
Q 186.937324 34.470372 187.42469 34.639076 
Q 187.912055 34.807779 188.230717 34.995228 
Q 188.549379 35.182676 188.774317 35.670041 
Q 188.999255 36.157407 189.111724 36.419834 
Q 189.224193 36.682262 189.280428 37.375821 
Q 189.336662 38.069379 189.355407 38.331807 
Q 189.374152 38.594234 189.355407 39.419007 
Q 189.336662 40.243779 189.336662 40.431228 
Q 189.336662 41.368469 189.167959 43.242952 
Q 188.999255 45.117434 188.999255 46.054676 
Q 188.999255 46.467062 189.05549 46.823214 
Q 189.111724 47.179366 189.205448 47.610497 
Q 189.299172 48.041628 189.336662 48.304055 
L 189.786538 48.528993 
M 183.263338 23.111007 
Q 183.488276 24.798041 183.488276 29.971614 
L 183.488276 42.3432 
L 183.150869 46.841959 
L 182.925931 47.74171 
" clip-path="url(#p102bb8ed3b)" style="fill: none; stroke: #000000; stroke-linejoin: miter"/>
   </g>
  </g>
  <g id="axes_13"/>
  <g id="axes_14">
   <g id="patch_13">
    <path d="M 215.213462 35.932469 
Q 215.813297 35.257655 216.806772 34.826524 
Q 217.800248 34.395393 218.7 34.470372 
Q 219.337324 34.470372 219.82469 34.639076 
Q 220.312055 34.807779 220.630717 34.995228 
Q 220.949379 35.182676 221.174317 35.670041 
Q 221.399255 36.157407 221.511724 36.419834 
Q 221.624193 36.682262 221.680428 37.375821 
Q 221.736662 38.069379 221.755407 38.331807 
Q 221.774152 38.594234 221.755407 39.419007 
Q 221.736662 40.243779 221.736662 40.431228 
Q 221.736662 41.368469 221.567959 43.242952 
Q 221.399255 45.117434 221.399255 46.054676 
Q 221.399255 46.467062 221.45549 46.823214 
Q 221.511724 47.179366 221.605448 47.610497 
Q 221.699172 48.041628 221.736662 48.304055 
L 222.186538 48.528993 
M 215.663338 23.111007 
Q 215.888276 24.798041 215.888276 29.971614 
L 215.888276 42.3432 
L 215.550869 46.841959 
L 215.325931 47.74171 
" clip-path="url(#p288476c65d)" style="fill: none; stroke: #000000; stroke-linejoin: miter"/>
   </g>
  </g>
  <g id="axes_15">
   <g id="patch_14">
    <path d="M 238.1616 35.032717 
Q 237.11189 34.582841 236.137159 34.69531 
Q 233.100497 35.032717 231.188524 36.701007 
Q 229.276552 38.369297 229.276552 41.330979 
Q 229.276552 43.917766 231.282248 45.6048 
Q 233.287945 47.291834 235.912221 47.291834 
Q 238.274069 47.291834 239.398759 45.361117 
Q 240.523448 43.4304 240.523448 40.881103 
Q 240.523448 39.643945 240.111062 38.706703 
Q 239.698676 37.769462 239.173821 37.300841 
Q 238.648966 36.832221 237.899172 36.119917 
Q 237.149379 35.407614 236.699503 34.69531 
L 235.462345 34.245434 
" clip-path="url(#p4f86761896)" style="fill: none; stroke: #000000; stroke-linejoin: miter"/>
   </g>
  </g>
  <g id="axes_16">
   <g id="patch_15">
    <path d="M 254.3616 35.032717 
Q 253.31189 34.582841 252.337159 34.69531 
Q 249.300497 35.032717 247.388524 36.701007 
Q 245.476552 38.369297 245.476552 41.330979 
Q 245.476552 43.917766 247.482248 45.6048 
Q 249.487945 47.291834 252.112221 47.291834 
Q 254.474069 47.291834 255.598759 45.361117 
Q 256.723448 43.4304 256.723448 40.881103 
Q 256.723448 39.643945 256.311062 38.706703 
Q 255.898676 37.769462 255.373821 37.300841 
Q 254.848966 36.832221 254.099172 36.119917 
Q 253.349379 35.407614 252.899503 34.69531 
L 251.662345 34.245434 
" clip-path="url(#p021f7748fc)" style="fill: none; stroke: #000000; stroke-linejoin: miter"/>
   </g>
  </g>
  <g id="axes_17">
   <g id="patch_16">
    <path d="M 262.463834 37.95691 
L 263.138648 37.95691 
Q 263.850952 37.95691 264.638234 37.881931 
Q 265.425517 37.806952 266.381503 37.675738 
Q 267.33749 37.544524 267.862345 37.507034 
L 272.136166 35.82 
M 268.087283 30.42149 
L 268.087283 31.43371 
Q 268.087283 33.383172 267.412469 37.207117 
Q 266.737655 41.031062 266.737655 43.018014 
Q 266.737655 43.805297 266.737655 44.105214 
Q 266.737655 44.405131 266.831379 45.042455 
Q 266.925103 45.679779 267.112552 45.960952 
Q 267.3 46.242124 267.693641 46.485807 
Q 268.087283 46.72949 268.649628 46.72949 
Q 268.762097 46.692 269.080759 46.72949 
Q 269.399421 46.766979 269.586869 46.710745 
Q 269.774317 46.65451 269.774317 46.392083 
" clip-path="url(#pb0402c68be)" style="fill: none; stroke: #000000; stroke-linejoin: miter"/>
   </g>
  </g>
  <g id="axes_18">
   <g id="patch_17">
    <path d="M 284.118579 29.071862 
Q 283.743683 29.146841 283.612469 29.577972 
Q 283.481255 30.009103 283.556234 30.42149 
Q 283.556234 30.571448 283.593724 30.702662 
Q 283.631214 30.833876 283.687448 30.89011 
Q 283.743683 30.946345 283.799917 31.040069 
Q 283.856152 31.133793 283.893641 31.208772 
L 284.00611 29.859145 
M 284.00611 34.020497 
Q 283.106359 39.006621 282.881421 42.793076 
L 283.331297 45.379862 
L 283.668703 46.054676 
" clip-path="url(#p1bf6e76726)" style="fill: none; stroke: #000000; stroke-linejoin: miter"/>
   </g>
  </g>
  <g id="axes_19">
   <g id="patch_18">
    <path d="M 295.238731 37.282097 
L 295.238731 37.844441 
Q 295.501159 39.868883 295.538648 41.312234 
Q 295.576138 42.755586 295.482414 44.667559 
Q 295.38869 46.579531 295.38869 48.191586 
L 295.463669 39.643945 
Q 295.463669 38.144359 297.056979 37.507034 
Q 298.65029 36.86971 300.074897 37.282097 
Q 301.986869 37.844441 302.905366 39.04411 
Q 303.823862 40.243779 303.880097 41.668386 
Q 303.936331 43.092993 303.973821 44.817517 
Q 304.01131 46.542041 304.161269 48.191586 
" clip-path="url(#pc3be405419)" style="fill: none; stroke: #000000; stroke-linejoin: miter"/>
   </g>
  </g>
  <g id="axes_20">
   <g id="patch_19">
    <path d="M 320.687191 39.096404 
Q 320.43236 39.023596 319.46764 38.623146 
Q 318.502921 38.222697 317.84764 38.077079 
Q 317.19236 37.931461 316.537079 38.00427 
Q 313.915955 38.00427 312.277753 40.388764 
Q 310.639551 42.773258 310.639551 45.430787 
Q 310.639551 47.068989 315.881798 47.068989 
Q 317.447191 47.068989 318.775955 45.558202 
Q 320.104719 44.047416 320.778202 42.172584 
Q 321.451685 40.297753 321.451685 38.768764 
Q 321.451685 37.27618 321.415281 36.984944 
L 321.342472 38.077079 
Q 321.342472 38.550337 321.342472 38.987191 
Q 321.378876 40.188539 321.579101 42.281798 
Q 321.779326 44.375056 321.943146 46.049663 
Q 322.106966 47.72427 322.143371 49.872135 
Q 322.179775 52.02 322.015955 53.658202 
Q 321.852135 55.296404 321.287865 56.971011 
Q 320.723596 58.645618 319.795281 59.737753 
Q 318.866966 60.829888 317.265169 61.521573 
Q 315.663371 62.213258 313.515506 62.213258 
Q 311.877303 62.213258 310.785169 61.466966 
Q 309.693034 60.720674 309.693034 59.155281 
Q 309.620225 58.936854 309.656629 58.936854 
Q 309.693034 58.936854 309.802247 58.936854 
Q 309.911461 58.936854 309.911461 58.82764 
" clip-path="url(#p8805cee33e)" style="fill: none; stroke: #000000; stroke-linejoin: miter"/>
   </g>
  </g>
  <g id="axes_21"/>
  <g id="axes_22">
   <g id="patch_20">
    <path d="M 353.843923 36.441748 
Q 352.634968 35.094627 348.662687 35.094627 
Q 347.142857 35.094627 346.365672 35.146439 
Q 345.588486 35.198252 344.58678 35.440043 
Q 343.585075 35.681834 343.101493 36.182687 
Q 342.61791 36.683539 342.272495 37.616162 
Q 341.927079 38.548785 341.927079 39.964989 
Q 341.927079 42.037484 343.343284 43.280981 
Q 344.759488 44.524478 346.693817 44.524478 
Q 349.353518 44.524478 352.116844 38.721493 
Q 353.463966 35.854542 353.463966 35.82 
Q 353.809382 35.578209 353.843923 36.441748 
Q 353.843923 37.512537 354.258422 40.362217 
Q 354.672921 43.211898 354.672921 44.524478 
" clip-path="url(#p8787cc9c2d)" style="fill: none; stroke: #000000; stroke-linejoin: miter"/>
   </g>
  </g>
  <g id="axes_23">
   <g id="patch_21">
    <path d="M 359.720069 39.868883 
L 359.720069 39.419007 
Q 359.720069 37.769462 361.463338 36.682262 
Q 363.206607 35.595062 364.893641 35.595062 
Q 367.105531 35.595062 368.473903 36.794731 
Q 369.842276 37.9944 369.842276 40.20629 
Q 369.842276 42.30571 368.024028 43.336676 
Q 366.205779 44.367641 363.99389 44.367641 
Q 363.319076 44.367641 362.812966 44.255172 
Q 362.306855 44.142703 361.688276 43.917766 
Q 361.069697 43.692828 360.619821 43.580359 
L 359.495131 42.568138 
M 359.157724 36.832221 
Q 359.6076 38.444276 359.870028 40.262524 
Q 360.132455 42.080772 360.18869 43.749062 
Q 360.244924 45.417352 360.282414 47.27309 
Q 360.319903 49.128828 360.282414 50.778372 
L 360.169945 57.863917 
" clip-path="url(#p64167b9e02)" style="fill: none; stroke: #000000; stroke-linejoin: miter"/>
   </g>
  </g>
  <g id="axes_24">
   <g id="patch_22">
    <path d="M 375.920069 39.868883 
L 375.920069 39.419007 
Q 375.920069 37.769462 377.663338 36.682262 
Q 379.406607 35.595062 381.093641 35.595062 
Q 383.305531 35.595062 384.673903 36.794731 
Q 386.042276 37.9944 386.042276 40.20629 
Q 386.042276 42.30571 384.224028 43.336676 
Q 382.405779 44.367641 380.19389 44.367641 
Q 379.519076 44.367641 379.012966 44.255172 
Q 378.506855 44.142703 377.888276 43.917766 
Q 377.269697 43.692828 376.819821 43.580359 
L 375.695131 42.568138 
M 375.357724 36.832221 
Q 375.8076 38.444276 376.070028 40.262524 
Q 376.332455 42.080772 376.38869 43.749062 
Q 376.444924 45.417352 376.482414 47.27309 
Q 376.519903 49.128828 376.482414 50.778372 
L 376.369945 57.863917 
" clip-path="url(#pcc8a6f41de)" style="fill: none; stroke: #000000; stroke-linejoin: miter"/>
   </g>
  </g>
  <g id="axes_25">
   <g id="patch_23">
    <path d="M 396.506359 28.621986 
Q 396.731297 30.34651 396.806276 32.146014 
Q 396.881255 33.945517 396.86251 36.551048 
Q 396.843766 39.156579 396.843766 40.093821 
Q 396.843766 40.13131 397.068703 45.829738 
L 397.293641 46.841959 
" clip-path="url(#p3fa31d12fe)" style="fill: none; stroke: #000000; stroke-linejoin: miter"/>
   </g>
  </g>
  <g id="axes_26">
   <g id="patch_24">
    <path d="M 418.643923 36.441748 
Q 417.434968 35.094627 413.462687 35.094627 
Q 411.942857 35.094627 411.165672 35.146439 
Q 410.388486 35.198252 409.38678 35.440043 
Q 408.385075 35.681834 407.901493 36.182687 
Q 407.41791 36.683539 407.072495 37.616162 
Q 406.727079 38.548785 406.727079 39.964989 
Q 406.727079 42.037484 408.143284 43.280981 
Q 409.559488 44.524478 411.493817 44.524478 
Q 414.153518 44.524478 416.916844 38.721493 
Q 418.263966 35.854542 418.263966 35.82 
Q 418.609382 35.578209 418.643923 36.441748 
Q 418.643923 37.512537 419.058422 40.362217 
Q 419.472921 43.211898 419.472921 44.524478 
" clip-path="url(#pa9e4c0e3f7)" style="fill: none; stroke: #000000; stroke-linejoin: miter"/>
   </g>
  </g>
  <g id="axes_27">
   <g id="patch_25">
    <path d="M 424.688772 35.145186 
Q 424.688772 35.145186 424.688772 35.595062 
Q 424.688772 36.269876 424.576303 37.619503 
Q 424.463834 38.969131 424.463834 39.643945 
Q 424.463834 41.930814 425.700993 43.599103 
Q 426.938152 45.267393 429.075062 45.267393 
Q 430.462179 45.154924 431.230717 43.917766 
Q 431.999255 42.680607 432.149214 41.237255 
Q 432.299172 39.793903 432.5616 37.9944 
Q 432.824028 36.194897 433.236414 35.370124 
Q 433.386372 35.070207 433.386372 35.670041 
Q 433.386372 36.269876 433.123945 38.706703 
Q 432.899007 41.031062 432.899007 41.555917 
Q 432.749048 42.643117 433.086455 43.767807 
Q 433.423862 44.892497 434.136166 45.6048 
" clip-path="url(#pc566312f73)" style="fill: none; stroke: #000000; stroke-linejoin: miter"/>
   </g>
  </g>
  <g id="axes_28">
   <g id="patch_26">
    <path d="M 441.057476 43.917766 
Q 441.357393 44.180193 442.369614 45.154924 
Q 443.381834 46.129655 443.944179 46.560786 
Q 444.506524 46.991917 445.53749 47.385559 
Q 446.568455 47.7792 447.580676 47.629241 
Q 448.25549 47.629241 448.72411 47.404303 
Q 449.192731 47.179366 449.417669 46.879448 
Q 449.642607 46.579531 449.773821 45.979697 
Q 449.905034 45.379862 449.923779 44.967476 
Q 449.942524 44.55509 449.942524 43.805297 
Q 449.942524 42.718097 449.042772 42.043283 
Q 448.143021 41.368469 446.849628 41.031062 
Q 445.556234 40.693655 444.262841 40.300014 
Q 442.969448 39.906372 442.069697 38.987876 
Q 441.169945 38.069379 441.169945 36.607283 
Q 441.169945 36.082428 441.338648 35.726276 
Q 441.507352 35.370124 441.900993 35.145186 
Q 442.294634 34.920248 442.575807 34.807779 
Q 442.856979 34.69531 443.513048 34.639076 
Q 444.169117 34.582841 444.356566 34.582841 
Q 444.544014 34.582841 445.218828 34.582841 
Q 446.418497 34.582841 446.999586 34.995228 
Q 447.580676 35.407614 447.899338 36.026193 
Q 448.218 36.644772 448.480428 36.832221 
" clip-path="url(#p273dd48c91)" style="fill: none; stroke: #000000; stroke-linejoin: miter"/>
   </g>
  </g>
  <g id="axes_29">
   <g id="patch_27">
    <path d="M 455.457798 38.160826 
Q 458.430275 39.535596 463.149083 39.721376 
Q 464.672477 39.721376 465.359862 38.550963 
Q 466.047248 37.38055 466.047248 35.82 
Q 466.047248 35.299817 465.954358 34.909679 
Q 465.861468 34.519541 465.619954 34.296606 
Q 465.37844 34.07367 465.211239 33.943624 
Q 465.044037 33.813578 464.598165 33.757844 
Q 464.152294 33.70211 463.947936 33.683532 
Q 463.743578 33.664954 463.167661 33.683532 
Q 462.591743 33.70211 462.368807 33.70211 
Q 460.325229 33.70211 458.838991 35.578486 
Q 457.352752 37.454862 457.352752 39.609908 
Q 457.352752 42.619541 459.284862 44.570229 
Q 461.216972 46.520917 464.263761 46.520917 
Q 466.418807 46.818165 467.942202 44.29156 
" clip-path="url(#pa4b6bc8ce2)" style="fill: none; stroke: #000000; stroke-linejoin: miter"/>
   </g>
  </g>
  <g id="axes_30"/>
  <g id="axes_31">
   <g id="patch_28">
    <path d="M 487.784141 38.85304 
L 488.212335 38.85304 
Q 489.03304 38.85304 489.996476 38.745991 
Q 490.959912 38.638943 492.119604 38.460529 
Q 493.279295 38.282115 493.885903 38.210749 
L 500.415859 35.427489 
M 500.094714 25.793128 
Q 499.809251 25.721762 498.774449 25.275727 
Q 497.739648 24.829692 497.097357 24.93674 
Q 496.455066 24.93674 495.937665 25.150837 
Q 495.420264 25.364934 495.081278 25.793128 
Q 494.742291 26.221322 494.47467 26.685198 
Q 494.207048 27.149075 494.064317 27.862731 
Q 493.921586 28.576388 493.814537 29.129471 
Q 493.707489 29.682555 493.689648 30.50326 
Q 493.671806 31.323965 493.653965 31.77 
Q 493.636123 32.216035 493.653965 32.965374 
Q 493.671806 33.714714 493.671806 33.928811 
Q 493.671806 36.605022 494.367621 41.850396 
Q 495.063436 47.095771 495.063436 49.771982 
Q 494.99207 50.057445 494.956388 50.681894 
Q 494.920705 51.306344 494.813656 51.805903 
Q 494.706608 52.305463 494.421145 52.555242 
" clip-path="url(#pa3c40c2815)" style="fill: none; stroke: #000000; stroke-linejoin: miter"/>
   </g>
  </g>
  <g id="axes_32">
   <g id="patch_29">
    <path d="M 506.813462 32.783338 
Q 507.338317 34.507862 507.469531 36.457324 
Q 507.600745 38.406786 507.525766 40.956083 
Q 507.450786 43.505379 507.488276 44.705048 
L 507.600745 46.054676 
L 507.600745 45.829738 
Q 507.600745 44.667559 507.319572 42.30571 
Q 507.0384 39.943862 507.0384 38.744193 
Q 507.0384 36.419834 508.050621 34.882759 
Q 509.062841 33.345683 511.087283 33.345683 
Q 511.799586 33.345683 512.136993 33.626855 
Q 512.4744 33.908028 512.736828 34.432883 
Q 512.999255 34.957738 513.336662 35.257655 
L 513.786538 36.832221 
" clip-path="url(#p887d70ead1)" style="fill: none; stroke: #000000; stroke-linejoin: miter"/>
   </g>
  </g>
  <g id="axes_33">
   <g id="patch_30">
    <path d="M 529.7616 35.032717 
Q 528.71189 34.582841 527.737159 34.69531 
Q 524.700497 35.032717 522.788524 36.701007 
Q 520.876552 38.369297 520.876552 41.330979 
Q 520.876552 43.917766 522.882248 45.6048 
Q 524.887945 47.291834 527.512221 47.291834 
Q 529.874069 47.291834 530.998759 45.361117 
Q 532.123448 43.4304 532.123448 40.881103 
Q 532.123448 39.643945 531.711062 38.706703 
Q 531.298676 37.769462 530.773821 37.300841 
Q 530.248966 36.832221 529.499172 36.119917 
Q 528.749379 35.407614 528.299503 34.69531 
L 527.062345 34.245434 
" clip-path="url(#p863e0e80f2)" style="fill: none; stroke: #000000; stroke-linejoin: miter"/>
   </g>
  </g>
  <g id="axes_34">
   <g id="patch_31">
    <path d="M 536.408036 34.879821 
Q 536.914286 36.073125 537.203571 42.871339 
Q 537.348214 46.632054 537.6375 46.632054 
Q 537.673661 46.632054 537.709821 46.595893 
Q 538.216071 46.017321 538.270313 44.588973 
Q 538.324554 43.160625 538.107589 41.750357 
Q 537.890625 40.340089 537.6375 38.712857 
Q 537.384375 37.085625 537.384375 36.398571 
Q 537.384375 35.169107 537.764063 33.939643 
Q 538.14375 32.710179 539.120089 32.710179 
Q 540.349554 32.710179 541.072768 34.355491 
Q 541.795982 36.000804 541.958705 37.971562 
Q 542.121429 39.942321 542.229911 41.587634 
Q 542.338393 43.232946 542.483036 43.232946 
Q 542.627679 43.232946 542.71808 41.497232 
Q 542.808482 39.761518 542.935045 37.700357 
Q 543.061607 35.639196 543.784821 33.903482 
Q 544.508036 32.167768 545.7375 32.167768 
Q 547.292411 33.035625 547.961384 34.771339 
Q 548.630357 36.507054 548.594196 38.188527 
Q 548.558036 39.87 548.576116 42.057723 
Q 548.594196 44.245446 548.991964 45.511071 
" clip-path="url(#pdaf6908195)" style="fill: none; stroke: #000000; stroke-linejoin: miter"/>
   </g>
  </g>
  <g id="axes_35"/>
  <g id="axes_36">
   <g id="patch_32">
    <path d="M 570.263834 37.95691 
L 570.938648 37.95691 
Q 571.650952 37.95691 572.438234 37.881931 
Q 573.225517 37.806952 574.181503 37.675738 
Q 575.13749 37.544524 575.662345 37.507034 
L 579.936166 35.82 
M 575.887283 30.42149 
L 575.887283 31.43371 
Q 575.887283 33.383172 575.212469 37.207117 
Q 574.537655 41.031062 574.537655 43.018014 
Q 574.537655 43.805297 574.537655 44.105214 
Q 574.537655 44.405131 574.631379 45.042455 
Q 574.725103 45.679779 574.912552 45.960952 
Q 575.1 46.242124 575.493641 46.485807 
Q 575.887283 46.72949 576.449628 46.72949 
Q 576.562097 46.692 576.880759 46.72949 
Q 577.199421 46.766979 577.386869 46.710745 
Q 577.574317 46.65451 577.574317 46.392083 
" clip-path="url(#p927e996b1b)" style="fill: none; stroke: #000000; stroke-linejoin: miter"/>
   </g>
  </g>
  <g id="axes_37">
   <g id="patch_33">
    <path d="M 587.813462 35.932469 
Q 588.413297 35.257655 589.406772 34.826524 
Q 590.400248 34.395393 591.3 34.470372 
Q 591.937324 34.470372 592.42469 34.639076 
Q 592.912055 34.807779 593.230717 34.995228 
Q 593.549379 35.182676 593.774317 35.670041 
Q 593.999255 36.157407 594.111724 36.419834 
Q 594.224193 36.682262 594.280428 37.375821 
Q 594.336662 38.069379 594.355407 38.331807 
Q 594.374152 38.594234 594.355407 39.419007 
Q 594.336662 40.243779 594.336662 40.431228 
Q 594.336662 41.368469 594.167959 43.242952 
Q 593.999255 45.117434 593.999255 46.054676 
Q 593.999255 46.467062 594.05549 46.823214 
Q 594.111724 47.179366 594.205448 47.610497 
Q 594.299172 48.041628 594.336662 48.304055 
L 594.786538 48.528993 
M 588.263338 23.111007 
Q 588.488276 24.798041 588.488276 29.971614 
L 588.488276 42.3432 
L 588.150869 46.841959 
L 587.925931 47.74171 
" clip-path="url(#p78a440ab1a)" style="fill: none; stroke: #000000; stroke-linejoin: miter"/>
   </g>
  </g>
  <g id="axes_38">
   <g id="patch_34">
    <path d="M 601.257798 38.160826 
Q 604.230275 39.535596 608.949083 39.721376 
Q 610.472477 39.721376 611.159862 38.550963 
Q 611.847248 37.38055 611.847248 35.82 
Q 611.847248 35.299817 611.754358 34.909679 
Q 611.661468 34.519541 611.419954 34.296606 
Q 611.17844 34.07367 611.011239 33.943624 
Q 610.844037 33.813578 610.398165 33.757844 
Q 609.952294 33.70211 609.747936 33.683532 
Q 609.543578 33.664954 608.967661 33.683532 
Q 608.391743 33.70211 608.168807 33.70211 
Q 606.125229 33.70211 604.638991 35.578486 
Q 603.152752 37.454862 603.152752 39.609908 
Q 603.152752 42.619541 605.084862 44.570229 
Q 607.016972 46.520917 610.063761 46.520917 
Q 612.218807 46.818165 613.742202 44.29156 
" clip-path="url(#p66943e582f)" style="fill: none; stroke: #000000; stroke-linejoin: miter"/>
   </g>
  </g>
  <g id="axes_39"/>
  <g id="axes_40">
   <g id="patch_35">
    <path d="M 635.120069 39.868883 
L 635.120069 39.419007 
Q 635.120069 37.769462 636.863338 36.682262 
Q 638.606607 35.595062 640.293641 35.595062 
Q 642.505531 35.595062 643.873903 36.794731 
Q 645.242276 37.9944 645.242276 40.20629 
Q 645.242276 42.30571 643.424028 43.336676 
Q 641.605779 44.367641 639.39389 44.367641 
Q 638.719076 44.367641 638.212966 44.255172 
Q 637.706855 44.142703 637.088276 43.917766 
Q 636.469697 43.692828 636.019821 43.580359 
L 634.895131 42.568138 
M 634.557724 36.832221 
Q 635.0076 38.444276 635.270028 40.262524 
Q 635.532455 42.080772 635.58869 43.749062 
Q 635.644924 45.417352 635.682414 47.27309 
Q 635.719903 49.128828 635.682414 50.778372 
L 635.569945 57.863917 
" clip-path="url(#p0c5101b155)" style="fill: none; stroke: #000000; stroke-linejoin: miter"/>
   </g>
  </g>
  <g id="axes_41">
   <g id="patch_36">
    <path d="M 661.643923 36.441748 
Q 660.434968 35.094627 656.462687 35.094627 
Q 654.942857 35.094627 654.165672 35.146439 
Q 653.388486 35.198252 652.38678 35.440043 
Q 651.385075 35.681834 650.901493 36.182687 
Q 650.41791 36.683539 650.072495 37.616162 
Q 649.727079 38.548785 649.727079 39.964989 
Q 649.727079 42.037484 651.143284 43.280981 
Q 652.559488 44.524478 654.493817 44.524478 
Q 657.153518 44.524478 659.916844 38.721493 
Q 661.263966 35.854542 661.263966 35.82 
Q 661.609382 35.578209 661.643923 36.441748 
Q 661.643923 37.512537 662.058422 40.362217 
Q 662.472921 43.211898 662.472921 44.524478 
" clip-path="url(#pbcabfec2e6)" style="fill: none; stroke: #000000; stroke-linejoin: miter"/>
   </g>
  </g>
  <g id="axes_42">
   <g id="patch_37">
    <path d="M 667.857476 43.917766 
Q 668.157393 44.180193 669.169614 45.154924 
Q 670.181834 46.129655 670.744179 46.560786 
Q 671.306524 46.991917 672.33749 47.385559 
Q 673.368455 47.7792 674.380676 47.629241 
Q 675.05549 47.629241 675.52411 47.404303 
Q 675.992731 47.179366 676.217669 46.879448 
Q 676.442607 46.579531 676.573821 45.979697 
Q 676.705034 45.379862 676.723779 44.967476 
Q 676.742524 44.55509 676.742524 43.805297 
Q 676.742524 42.718097 675.842772 42.043283 
Q 674.943021 41.368469 673.649628 41.031062 
Q 672.356234 40.693655 671.062841 40.300014 
Q 669.769448 39.906372 668.869697 38.987876 
Q 667.969945 38.069379 667.969945 36.607283 
Q 667.969945 36.082428 668.138648 35.726276 
Q 668.307352 35.370124 668.700993 35.145186 
Q 669.094634 34.920248 669.375807 34.807779 
Q 669.656979 34.69531 670.313048 34.639076 
Q 670.969117 34.582841 671.156566 34.582841 
Q 671.344014 34.582841 672.018828 34.582841 
Q 673.218497 34.582841 673.799586 34.995228 
Q 674.380676 35.407614 674.699338 36.026193 
Q 675.018 36.644772 675.280428 36.832221 
" clip-path="url(#p03b5a62ae5)" style="fill: none; stroke: #000000; stroke-linejoin: miter"/>
   </g>
  </g>
  <g id="axes_43">
   <g id="patch_38">
    <path d="M 684.057476 43.917766 
Q 684.357393 44.180193 685.369614 45.154924 
Q 686.381834 46.129655 686.944179 46.560786 
Q 687.506524 46.991917 688.53749 47.385559 
Q 689.568455 47.7792 690.580676 47.629241 
Q 691.25549 47.629241 691.72411 47.404303 
Q 692.192731 47.179366 692.417669 46.879448 
Q 692.642607 46.579531 692.773821 45.979697 
Q 692.905034 45.379862 692.923779 44.967476 
Q 692.942524 44.55509 692.942524 43.805297 
Q 692.942524 42.718097 692.042772 42.043283 
Q 691.143021 41.368469 689.849628 41.031062 
Q 688.556234 40.693655 687.262841 40.300014 
Q 685.969448 39.906372 685.069697 38.987876 
Q 684.169945 38.069379 684.169945 36.607283 
Q 684.169945 36.082428 684.338648 35.726276 
Q 684.507352 35.370124 684.900993 35.145186 
Q 685.294634 34.920248 685.575807 34.807779 
Q 685.856979 34.69531 686.513048 34.639076 
Q 687.169117 34.582841 687.356566 34.582841 
Q 687.544014 34.582841 688.218828 34.582841 
Q 689.418497 34.582841 689.999586 34.995228 
Q 690.580676 35.407614 690.899338 36.026193 
Q 691.218 36.644772 691.480428 36.832221 
" clip-path="url(#peb7e3fa820)" style="fill: none; stroke: #000000; stroke-linejoin: miter"/>
   </g>
  </g>
  <g id="axes_44">
   <g id="patch_39">
    <path d="M 705.318579 29.071862 
Q 704.943683 29.146841 704.812469 29.577972 
Q 704.681255 30.009103 704.756234 30.42149 
Q 704.756234 30.571448 704.793724 30.702662 
Q 704.831214 30.833876 704.887448 30.89011 
Q 704.943683 30.946345 704.999917 31.040069 
Q 705.056152 31.133793 705.093641 31.208772 
L 705.20611 29.859145 
M 705.20611 34.020497 
Q 704.306359 39.006621 704.081421 42.793076 
L 704.531297 45.379862 
L 704.868703 46.054676 
" clip-path="url(#p91e77b5c0c)" style="fill: none; stroke: #000000; stroke-linejoin: miter"/>
   </g>
  </g>
  <g id="axes_45">
   <g id="patch_40">
    <path d="M 716.438731 37.282097 
L 716.438731 37.844441 
Q 716.701159 39.868883 716.738648 41.312234 
Q 716.776138 42.755586 716.682414 44.667559 
Q 716.58869 46.579531 716.58869 48.191586 
L 716.663669 39.643945 
Q 716.663669 38.144359 718.256979 37.507034 
Q 719.85029 36.86971 721.274897 37.282097 
Q 723.186869 37.844441 724.105366 39.04411 
Q 725.023862 40.243779 725.080097 41.668386 
Q 725.136331 43.092993 725.173821 44.817517 
Q 725.21131 46.542041 725.361269 48.191586 
" clip-path="url(#pf2ae2a9cda)" style="fill: none; stroke: #000000; stroke-linejoin: miter"/>
   </g>
  </g>
  <g id="axes_46">
   <g id="patch_41">
    <path d="M 741.887191 39.096404 
Q 741.63236 39.023596 740.66764 38.623146 
Q 739.702921 38.222697 739.04764 38.077079 
Q 738.39236 37.931461 737.737079 38.00427 
Q 735.115955 38.00427 733.477753 40.388764 
Q 731.839551 42.773258 731.839551 45.430787 
Q 731.839551 47.068989 737.081798 47.068989 
Q 738.647191 47.068989 739.975955 45.558202 
Q 741.304719 44.047416 741.978202 42.172584 
Q 742.651685 40.297753 742.651685 38.768764 
Q 742.651685 37.27618 742.615281 36.984944 
L 742.542472 38.077079 
Q 742.542472 38.550337 742.542472 38.987191 
Q 742.578876 40.188539 742.779101 42.281798 
Q 742.979326 44.375056 743.143146 46.049663 
Q 743.306966 47.72427 743.343371 49.872135 
Q 743.379775 52.02 743.215955 53.658202 
Q 743.052135 55.296404 742.487865 56.971011 
Q 741.923596 58.645618 740.995281 59.737753 
Q 740.066966 60.829888 738.465169 61.521573 
Q 736.863371 62.213258 734.715506 62.213258 
Q 733.077303 62.213258 731.985169 61.466966 
Q 730.893034 60.720674 730.893034 59.155281 
Q 730.820225 58.936854 730.856629 58.936854 
Q 730.893034 58.936854 731.002247 58.936854 
Q 731.111461 58.936854 731.111461 58.82764 
" clip-path="url(#paba5bbc965)" style="fill: none; stroke: #000000; stroke-linejoin: miter"/>
   </g>
  </g>
 </g>
 <defs>
  <clipPath id="pd7792bdbce">
   <rect x="0" y="9.426742" width="16.2" height="52.786517"/>
  </clipPath>
  <clipPath id="p7ddce17a24">
   <rect x="18.938979" y="8.64" width="10.722041" height="54.36"/>
  </clipPath>
  <clipPath id="pdc7b9c6314">
   <rect x="32.4" y="8.881927" width="16.2" height="53.876147"/>
  </clipPath>
  <clipPath id="pfe541b6289">
   <rect x="48.6" y="8.881927" width="16.2" height="53.876147"/>
  </clipPath>
  <clipPath id="paf733d1317">
   <rect x="66.189352" y="8.64" width="13.421297" height="54.36"/>
  </clipPath>
  <clipPath id="pcd0606f5a6">
   <rect x="81" y="8.881927" width="16.2" height="53.876147"/>
  </clipPath>
  <clipPath id="p16fe6e3561">
   <rect x="98.251945" y="8.64" width="14.09611" height="54.36"/>
  </clipPath>
  <clipPath id="p9ae51934d1">
   <rect x="129.6" y="10.936525" width="16.2" height="49.766949"/>
  </clipPath>
  <clipPath id="p762204ac5d">
   <rect x="151.406938" y="8.64" width="4.986124" height="54.36"/>
  </clipPath>
  <clipPath id="p048e80a902">
   <rect x="163.389352" y="8.64" width="13.421297" height="54.36"/>
  </clipPath>
  <clipPath id="p102bb8ed3b">
   <rect x="180.938979" y="8.64" width="10.722041" height="54.36"/>
  </clipPath>
  <clipPath id="p288476c65d">
   <rect x="213.338979" y="8.64" width="10.722041" height="54.36"/>
  </clipPath>
  <clipPath id="p4f86761896">
   <rect x="227.402069" y="8.64" width="14.995862" height="54.36"/>
  </clipPath>
  <clipPath id="p021f7748fc">
   <rect x="243.602069" y="8.64" width="14.995862" height="54.36"/>
  </clipPath>
  <clipPath id="pb0402c68be">
   <rect x="260.589352" y="8.64" width="13.421297" height="54.36"/>
  </clipPath>
  <clipPath id="p1bf6e76726">
   <rect x="281.006938" y="8.64" width="4.986124" height="54.36"/>
  </clipPath>
  <clipPath id="pc3be405419">
   <rect x="293.364248" y="8.64" width="12.671503" height="54.36"/>
  </clipPath>
  <clipPath id="p8805cee33e">
   <rect x="307.8" y="9.426742" width="16.2" height="52.786517"/>
  </clipPath>
  <clipPath id="p8787cc9c2d">
   <rect x="340.2" y="10.777356" width="16.2" height="50.085288"/>
  </clipPath>
  <clipPath id="p64167b9e02">
   <rect x="357.283241" y="8.64" width="14.433517" height="54.36"/>
  </clipPath>
  <clipPath id="pcc8a6f41de">
   <rect x="373.483241" y="8.64" width="14.433517" height="54.36"/>
  </clipPath>
  <clipPath id="p3fa31d12fe">
   <rect x="394.631876" y="8.64" width="4.536248" height="54.36"/>
  </clipPath>
  <clipPath id="pa9e4c0e3f7">
   <rect x="405" y="10.777356" width="16.2" height="50.085288"/>
  </clipPath>
  <clipPath id="pc566312f73">
   <rect x="422.589352" y="8.64" width="13.421297" height="54.36"/>
  </clipPath>
  <clipPath id="p273dd48c91">
   <rect x="439.182993" y="8.64" width="12.634014" height="54.36"/>
  </clipPath>
  <clipPath id="pa4b6bc8ce2">
   <rect x="453.6" y="8.881927" width="16.2" height="53.876147"/>
  </clipPath>
  <clipPath id="pa3c40c2815">
   <rect x="486" y="9.949956" width="16.2" height="51.740088"/>
  </clipPath>
  <clipPath id="p887d70ead1">
   <rect x="504.938979" y="8.64" width="10.722041" height="54.36"/>
  </clipPath>
  <clipPath id="p863e0e80f2">
   <rect x="519.002069" y="8.64" width="14.995862" height="54.36"/>
  </clipPath>
  <clipPath id="pdaf6908195">
   <rect x="534.6" y="9.603482" width="16.2" height="52.433036"/>
  </clipPath>
  <clipPath id="p927e996b1b">
   <rect x="568.389352" y="8.64" width="13.421297" height="54.36"/>
  </clipPath>
  <clipPath id="p78a440ab1a">
   <rect x="585.938979" y="8.64" width="10.722041" height="54.36"/>
  </clipPath>
  <clipPath id="p66943e582f">
   <rect x="599.4" y="8.881927" width="16.2" height="53.876147"/>
  </clipPath>
  <clipPath id="p0c5101b155">
   <rect x="632.683241" y="8.64" width="14.433517" height="54.36"/>
  </clipPath>
  <clipPath id="pbcabfec2e6">
   <rect x="648" y="10.777356" width="16.2" height="50.085288"/>
  </clipPath>
  <clipPath id="p03b5a62ae5">
   <rect x="665.982993" y="8.64" width="12.634014" height="54.36"/>
  </clipPath>
  <clipPath id="peb7e3fa820">
   <rect x="682.182993" y="8.64" width="12.634014" height="54.36"/>
  </clipPath>
  <clipPath id="p91e77b5c0c">
   <rect x="702.206938" y="8.64" width="4.986124" height="54.36"/>
  </clipPath>
  <clipPath id="pf2ae2a9cda">
   <rect x="714.564248" y="8.64" width="12.671503" height="54.36"/>
  </clipPath>
  <clipPath id="paba5bbc965">
   <rect x="729" y="9.426742" width="16.2" height="52.786517"/>
  </clipPath>
 </defs>
</svg>
