<?xml version="1.0" encoding="utf-8" standalone="no"?>
<!DOCTYPE svg PUBLIC "-//W3C//DTD SVG 1.1//EN"
  "http://www.w3.org/Graphics/SVG/1.1/DTD/svg11.dtd">
<svg xmlns:xlink="http://www.w3.org/1999/xlink" width="936pt" height="72pt" viewBox="0 0 936 72" xmlns="http://www.w3.org/2000/svg" version="1.1">
 <metadata>
  <rdf:RDF xmlns:dc="http://purl.org/dc/elements/1.1/" xmlns:cc="http://creativecommons.org/ns#" xmlns:rdf="http://www.w3.org/1999/02/22-rdf-syntax-ns#">
   <cc:Work>
    <dc:type rdf:resource="http://purl.org/dc/dcmitype/StillImage"/>
    <dc:date>2023-12-21T11:49:48.744451</dc:date>
    <dc:format>image/svg+xml</dc:format>
    <dc:creator>
     <cc:Agent>
      <dc:title>Matplotlib v3.5.1, https://matplotlib.org/</dc:title>
     </cc:Agent>
    </dc:creator>
   </cc:Work>
  </rdf:RDF>
 </metadata>
 <defs>
  <style type="text/css">*{stroke-linejoin: round; stroke-linecap: butt}</style>
 </defs>
 <g id="figure_1">
  <g id="patch_1">
   <path d="M 0 72 
L 936 72 
L 936 0 
L 0 0 
z
" style="fill: #8fff9f"/>
  </g>
  <g id="axes_1">
   <g id="patch_2">
    <path d="M 3.320069 39.868883 
L 3.320069 39.419007 
Q 3.320069 37.769462 5.063338 36.682262 
Q 6.806607 35.595062 8.493641 35.595062 
Q 10.705531 35.595062 12.073903 36.794731 
Q 13.442276 37.9944 13.442276 40.20629 
Q 13.442276 42.30571 11.624028 43.336676 
Q 9.805779 44.367641 7.59389 44.367641 
Q 6.919076 44.367641 6.412966 44.255172 
Q 5.906855 44.142703 5.288276 43.917766 
Q 4.669697 43.692828 4.219821 43.580359 
L 3.095131 42.568138 
M 2.757724 36.832221 
Q 3.2076 38.444276 3.470028 40.262524 
Q 3.732455 42.080772 3.78869 43.749062 
Q 3.844924 45.417352 3.882414 47.27309 
Q 3.919903 49.128828 3.882414 50.778372 
L 3.769945 57.863917 
" clip-path="url(#pe0c8be6e1f)" style="fill: none; stroke: #000000; stroke-linejoin: miter"/>
   </g>
  </g>
  <g id="axes_2">
   <g id="patch_3">
    <path d="M 29.843923 36.441748 
Q 28.634968 35.094627 24.662687 35.094627 
Q 23.142857 35.094627 22.365672 35.146439 
Q 21.588486 35.198252 20.58678 35.440043 
Q 19.585075 35.681834 19.101493 36.182687 
Q 18.61791 36.683539 18.272495 37.616162 
Q 17.927079 38.548785 17.927079 39.964989 
Q 17.927079 42.037484 19.343284 43.280981 
Q 20.759488 44.524478 22.693817 44.524478 
Q 25.353518 44.524478 28.116844 38.721493 
Q 29.463966 35.854542 29.463966 35.82 
Q 29.809382 35.578209 29.843923 36.441748 
Q 29.843923 37.512537 30.258422 40.362217 
Q 30.672921 43.211898 30.672921 44.524478 
" clip-path="url(#p5b1c03a62c)" style="fill: none; stroke: #000000; stroke-linejoin: miter"/>
   </g>
  </g>
  <g id="axes_3">
   <g id="patch_4">
    <path d="M 37.013462 32.783338 
Q 37.538317 34.507862 37.669531 36.457324 
Q 37.800745 38.406786 37.725766 40.956083 
Q 37.650786 43.505379 37.688276 44.705048 
L 37.800745 46.054676 
L 37.800745 45.829738 
Q 37.800745 44.667559 37.519572 42.30571 
Q 37.2384 39.943862 37.2384 38.744193 
Q 37.2384 36.419834 38.250621 34.882759 
Q 39.262841 33.345683 41.287283 33.345683 
Q 41.999586 33.345683 42.336993 33.626855 
Q 42.6744 33.908028 42.936828 34.432883 
Q 43.199255 34.957738 43.536662 35.257655 
L 43.986538 36.832221 
" clip-path="url(#peed642e07f)" style="fill: none; stroke: #000000; stroke-linejoin: miter"/>
   </g>
  </g>
  <g id="axes_4">
   <g id="patch_5">
    <path d="M 54.731793 37.169628 
Q 56.756234 39.194069 58.518248 41.76211 
Q 60.280262 44.330152 61.142524 46.72949 
M 57.768455 31.321241 
L 57.768455 31.546179 
Q 57.768455 32.333462 57.131131 33.514386 
Q 56.493807 34.69531 55.519076 36.101172 
Q 54.544345 37.507034 54.281917 37.95691 
L 53.044759 39.643945 
M 52.257476 26.710014 
Q 54.094469 36.269876 54.281917 48.641462 
" clip-path="url(#pbe1c78da22)" style="fill: none; stroke: #000000; stroke-linejoin: miter"/>
   </g>
  </g>
  <g id="axes_5"/>
  <g id="axes_6">
   <g id="patch_6">
    <path d="M 84.488772 35.145186 
Q 84.488772 35.145186 84.488772 35.595062 
Q 84.488772 36.269876 84.376303 37.619503 
Q 84.263834 38.969131 84.263834 39.643945 
Q 84.263834 41.930814 85.500993 43.599103 
Q 86.738152 45.267393 88.875062 45.267393 
Q 90.262179 45.154924 91.030717 43.917766 
Q 91.799255 42.680607 91.949214 41.237255 
Q 92.099172 39.793903 92.3616 37.9944 
Q 92.624028 36.194897 93.036414 35.370124 
Q 93.186372 35.070207 93.186372 35.670041 
Q 93.186372 36.269876 92.923945 38.706703 
Q 92.699007 41.031062 92.699007 41.555917 
Q 92.549048 42.643117 92.886455 43.767807 
Q 93.223862 44.892497 93.936166 45.6048 
" clip-path="url(#pb1f848e93b)" style="fill: none; stroke: #000000; stroke-linejoin: miter"/>
   </g>
  </g>
  <g id="axes_7">
   <g id="patch_7">
    <path d="M 100.520069 39.868883 
L 100.520069 39.419007 
Q 100.520069 37.769462 102.263338 36.682262 
Q 104.006607 35.595062 105.693641 35.595062 
Q 107.905531 35.595062 109.273903 36.794731 
Q 110.642276 37.9944 110.642276 40.20629 
Q 110.642276 42.30571 108.824028 43.336676 
Q 107.005779 44.367641 104.79389 44.367641 
Q 104.119076 44.367641 103.612966 44.255172 
Q 103.106855 44.142703 102.488276 43.917766 
Q 101.869697 43.692828 101.419821 43.580359 
L 100.295131 42.568138 
M 99.957724 36.832221 
Q 100.4076 38.444276 100.670028 40.262524 
Q 100.932455 42.080772 100.98869 43.749062 
Q 101.044924 45.417352 101.082414 47.27309 
Q 101.119903 49.128828 101.082414 50.778372 
L 100.969945 57.863917 
" clip-path="url(#p19dd6ee471)" style="fill: none; stroke: #000000; stroke-linejoin: miter"/>
   </g>
  </g>
  <g id="axes_8"/>
  <g id="axes_9">
   <g id="patch_8">
    <path d="M 143.243923 36.441748 
Q 142.034968 35.094627 138.062687 35.094627 
Q 136.542857 35.094627 135.765672 35.146439 
Q 134.988486 35.198252 133.98678 35.440043 
Q 132.985075 35.681834 132.501493 36.182687 
Q 132.01791 36.683539 131.672495 37.616162 
Q 131.327079 38.548785 131.327079 39.964989 
Q 131.327079 42.037484 132.743284 43.280981 
Q 134.159488 44.524478 136.093817 44.524478 
Q 138.753518 44.524478 141.516844 38.721493 
Q 142.863966 35.854542 142.863966 35.82 
Q 143.209382 35.578209 143.243923 36.441748 
Q 143.243923 37.512537 143.658422 40.362217 
Q 144.072921 43.211898 144.072921 44.524478 
" clip-path="url(#p45fb93c03c)" style="fill: none; stroke: #000000; stroke-linejoin: miter"/>
   </g>
  </g>
  <g id="axes_10">
   <g id="patch_9">
    <path d="M 149.438731 37.282097 
L 149.438731 37.844441 
Q 149.701159 39.868883 149.738648 41.312234 
Q 149.776138 42.755586 149.682414 44.667559 
Q 149.58869 46.579531 149.58869 48.191586 
L 149.663669 39.643945 
Q 149.663669 38.144359 151.256979 37.507034 
Q 152.85029 36.86971 154.274897 37.282097 
Q 156.186869 37.844441 157.105366 39.04411 
Q 158.023862 40.243779 158.080097 41.668386 
Q 158.136331 43.092993 158.173821 44.817517 
Q 158.21131 46.542041 158.361269 48.191586 
" clip-path="url(#p24c8d2508c)" style="fill: none; stroke: #000000; stroke-linejoin: miter"/>
   </g>
  </g>
  <g id="axes_11">
   <g id="patch_10">
    <path d="M 173.699007 39.568966 
Q 172.349379 38.181848 170.1 38.444276 
Q 167.250786 38.444276 166.088607 39.793903 
Q 164.926428 41.143531 164.926428 44.067724 
Q 164.926428 45.56731 166.219821 46.279614 
Q 167.513214 46.991917 169.087779 46.991917 
Q 170.399917 46.991917 171.412138 45.736014 
Q 172.424359 44.48011 173.005448 42.30571 
Q 173.586538 40.13131 173.961434 37.938166 
Q 174.336331 35.745021 174.48629 33.045766 
Q 174.636248 30.34651 174.673738 28.978138 
Q 174.711228 27.609766 174.711228 26.185159 
Q 174.48629 26.260138 174.48629 29.896634 
L 174.48629 44.292662 
L 175.273572 48.229076 
" clip-path="url(#pee8f1fb1ea)" style="fill: none; stroke: #000000; stroke-linejoin: miter"/>
   </g>
  </g>
  <g id="axes_12"/>
  <g id="axes_13">
   <g id="patch_11">
    <path d="M 195.714935 43.209935 
L 209.285065 43.209935 
M 197.056169 30.007987 
L 207.943831 29.929091 
M 201.947727 30.323571 
L 201.947727 30.718052 
Q 201.947727 32.243377 202.039773 33.99224 
Q 202.131818 35.741104 202.28961 37.910747 
Q 202.447403 40.08039 202.5 41.211234 
L 202.657792 43.025844 
" clip-path="url(#p73fa143ea8)" style="fill: none; stroke: #000000; stroke-linejoin: miter"/>
   </g>
  </g>
  <g id="axes_14">
   <g id="patch_12">
    <path d="M 218.625021 26.147669 
Q 218.587531 26.597545 218.625021 27.384828 
Q 218.66251 27.572276 218.606276 27.965917 
Q 218.550041 28.359559 218.587531 28.678221 
Q 218.625021 28.996883 218.849959 29.184331 
" clip-path="url(#p6f68687e44)" style="fill: none; stroke: #000000; stroke-linejoin: miter"/>
   </g>
  </g>
  <g id="axes_15">
   <g id="patch_13">
    <path d="M 238.499007 39.568966 
Q 237.149379 38.181848 234.9 38.444276 
Q 232.050786 38.444276 230.888607 39.793903 
Q 229.726428 41.143531 229.726428 44.067724 
Q 229.726428 45.56731 231.019821 46.279614 
Q 232.313214 46.991917 233.887779 46.991917 
Q 235.199917 46.991917 236.212138 45.736014 
Q 237.224359 44.48011 237.805448 42.30571 
Q 238.386538 40.13131 238.761434 37.938166 
Q 239.136331 35.745021 239.28629 33.045766 
Q 239.436248 30.34651 239.473738 28.978138 
Q 239.511228 27.609766 239.511228 26.185159 
Q 239.28629 26.260138 239.28629 29.896634 
L 239.28629 44.292662 
L 240.073572 48.229076 
" clip-path="url(#pe4ff0ef4cb)" style="fill: none; stroke: #000000; stroke-linejoin: miter"/>
   </g>
  </g>
  <g id="axes_16"/>
  <g id="axes_17">
   <g id="patch_14">
    <path d="M 266.906359 28.621986 
Q 267.131297 30.34651 267.206276 32.146014 
Q 267.281255 33.945517 267.26251 36.551048 
Q 267.243766 39.156579 267.243766 40.093821 
Q 267.243766 40.13131 267.468703 45.829738 
L 267.693641 46.841959 
" clip-path="url(#p76010af1cf)" style="fill: none; stroke: #000000; stroke-linejoin: miter"/>
   </g>
  </g>
  <g id="axes_18">
   <g id="patch_15">
    <path d="M 284.118579 29.071862 
Q 283.743683 29.146841 283.612469 29.577972 
Q 283.481255 30.009103 283.556234 30.42149 
Q 283.556234 30.571448 283.593724 30.702662 
Q 283.631214 30.833876 283.687448 30.89011 
Q 283.743683 30.946345 283.799917 31.040069 
Q 283.856152 31.133793 283.893641 31.208772 
L 284.00611 29.859145 
M 284.00611 34.020497 
Q 283.106359 39.006621 282.881421 42.793076 
L 283.331297 45.379862 
L 283.668703 46.054676 
" clip-path="url(#p0d1002c05e)" style="fill: none; stroke: #000000; stroke-linejoin: miter"/>
   </g>
  </g>
  <g id="axes_19">
   <g id="patch_16">
    <path d="M 297.731793 37.169628 
Q 299.756234 39.194069 301.518248 41.76211 
Q 303.280262 44.330152 304.142524 46.72949 
M 300.768455 31.321241 
L 300.768455 31.546179 
Q 300.768455 32.333462 300.131131 33.514386 
Q 299.493807 34.69531 298.519076 36.101172 
Q 297.544345 37.507034 297.281917 37.95691 
L 296.044759 39.643945 
M 295.257476 26.710014 
Q 297.094469 36.269876 297.281917 48.641462 
" clip-path="url(#p93beb53916)" style="fill: none; stroke: #000000; stroke-linejoin: miter"/>
   </g>
  </g>
  <g id="axes_20">
   <g id="patch_17">
    <path d="M 309.657798 38.160826 
Q 312.630275 39.535596 317.349083 39.721376 
Q 318.872477 39.721376 319.559862 38.550963 
Q 320.247248 37.38055 320.247248 35.82 
Q 320.247248 35.299817 320.154358 34.909679 
Q 320.061468 34.519541 319.819954 34.296606 
Q 319.57844 34.07367 319.411239 33.943624 
Q 319.244037 33.813578 318.798165 33.757844 
Q 318.352294 33.70211 318.147936 33.683532 
Q 317.943578 33.664954 317.367661 33.683532 
Q 316.791743 33.70211 316.568807 33.70211 
Q 314.525229 33.70211 313.038991 35.578486 
Q 311.552752 37.454862 311.552752 39.609908 
Q 311.552752 42.619541 313.484862 44.570229 
Q 315.416972 46.520917 318.463761 46.520917 
Q 320.618807 46.818165 322.142202 44.29156 
" clip-path="url(#p7d8f4b8ad0)" style="fill: none; stroke: #000000; stroke-linejoin: miter"/>
   </g>
  </g>
  <g id="axes_21"/>
  <g id="axes_22">
   <g id="patch_18">
    <path d="M 343.463834 37.95691 
L 344.138648 37.95691 
Q 344.850952 37.95691 345.638234 37.881931 
Q 346.425517 37.806952 347.381503 37.675738 
Q 348.33749 37.544524 348.862345 37.507034 
L 353.136166 35.82 
M 349.087283 30.42149 
L 349.087283 31.43371 
Q 349.087283 33.383172 348.412469 37.207117 
Q 347.737655 41.031062 347.737655 43.018014 
Q 347.737655 43.805297 347.737655 44.105214 
Q 347.737655 44.405131 347.831379 45.042455 
Q 347.925103 45.679779 348.112552 45.960952 
Q 348.3 46.242124 348.693641 46.485807 
Q 349.087283 46.72949 349.649628 46.72949 
Q 349.762097 46.692 350.080759 46.72949 
Q 350.399421 46.766979 350.586869 46.710745 
Q 350.774317 46.65451 350.774317 46.392083 
" clip-path="url(#p4a3ff8416c)" style="fill: none; stroke: #000000; stroke-linejoin: miter"/>
   </g>
  </g>
  <g id="axes_23">
   <g id="patch_19">
    <path d="M 367.7616 35.032717 
Q 366.71189 34.582841 365.737159 34.69531 
Q 362.700497 35.032717 360.788524 36.701007 
Q 358.876552 38.369297 358.876552 41.330979 
Q 358.876552 43.917766 360.882248 45.6048 
Q 362.887945 47.291834 365.512221 47.291834 
Q 367.874069 47.291834 368.998759 45.361117 
Q 370.123448 43.4304 370.123448 40.881103 
Q 370.123448 39.643945 369.711062 38.706703 
Q 369.298676 37.769462 368.773821 37.300841 
Q 368.248966 36.832221 367.499172 36.119917 
Q 366.749379 35.407614 366.299503 34.69531 
L 365.062345 34.245434 
" clip-path="url(#p93338ccaf1)" style="fill: none; stroke: #000000; stroke-linejoin: miter"/>
   </g>
  </g>
  <g id="axes_24"/>
  <g id="axes_25">
   <g id="patch_20">
    <path d="M 394.931793 37.169628 
Q 396.956234 39.194069 398.718248 41.76211 
Q 400.480262 44.330152 401.342524 46.72949 
M 397.968455 31.321241 
L 397.968455 31.546179 
Q 397.968455 32.333462 397.331131 33.514386 
Q 396.693807 34.69531 395.719076 36.101172 
Q 394.744345 37.507034 394.481917 37.95691 
L 393.244759 39.643945 
M 392.457476 26.710014 
Q 394.294469 36.269876 394.481917 48.641462 
" clip-path="url(#p73a6112328)" style="fill: none; stroke: #000000; stroke-linejoin: miter"/>
   </g>
  </g>
  <g id="axes_26">
   <g id="patch_21">
    <path d="M 408.638731 37.282097 
L 408.638731 37.844441 
Q 408.901159 39.868883 408.938648 41.312234 
Q 408.976138 42.755586 408.882414 44.667559 
Q 408.78869 46.579531 408.78869 48.191586 
L 408.863669 39.643945 
Q 408.863669 38.144359 410.456979 37.507034 
Q 412.05029 36.86971 413.474897 37.282097 
Q 415.386869 37.844441 416.305366 39.04411 
Q 417.223862 40.243779 417.280097 41.668386 
Q 417.336331 43.092993 417.373821 44.817517 
Q 417.41131 46.542041 417.561269 48.191586 
" clip-path="url(#p1ec6ab1ebc)" style="fill: none; stroke: #000000; stroke-linejoin: miter"/>
   </g>
  </g>
  <g id="axes_27">
   <g id="patch_22">
    <path d="M 432.5616 35.032717 
Q 431.51189 34.582841 430.537159 34.69531 
Q 427.500497 35.032717 425.588524 36.701007 
Q 423.676552 38.369297 423.676552 41.330979 
Q 423.676552 43.917766 425.682248 45.6048 
Q 427.687945 47.291834 430.312221 47.291834 
Q 432.674069 47.291834 433.798759 45.361117 
Q 434.923448 43.4304 434.923448 40.881103 
Q 434.923448 39.643945 434.511062 38.706703 
Q 434.098676 37.769462 433.573821 37.300841 
Q 433.048966 36.832221 432.299172 36.119917 
Q 431.549379 35.407614 431.099503 34.69531 
L 429.862345 34.245434 
" clip-path="url(#p2ad4a8c535)" style="fill: none; stroke: #000000; stroke-linejoin: miter"/>
   </g>
  </g>
  <g id="axes_28">
   <g id="patch_23">
    <path d="M 439.116102 36.437797 
L 440.351695 44.778051 
Q 440.454661 45.567458 440.454661 45.60178 
Q 440.454661 45.704746 440.763559 45.704746 
Q 441.62161 45.704746 442.342373 44.778051 
Q 443.063136 43.851356 443.475 42.718729 
Q 443.886864 41.586102 444.401695 40.659407 
Q 444.916525 39.732712 445.397034 39.732712 
Q 446.014831 39.732712 446.649788 40.607924 
Q 447.284746 41.483136 447.748093 42.512797 
Q 448.211441 43.542458 448.88072 44.417669 
Q 449.55 45.292881 450.236441 45.292881 
Q 450.511017 43.782712 450.940042 39.69839 
Q 451.369068 35.614068 451.883898 33.554746 
" clip-path="url(#p76318a1efd)" style="fill: none; stroke: #000000; stroke-linejoin: miter"/>
   </g>
  </g>
  <g id="axes_29"/>
  <g id="axes_30">
   <g id="patch_24">
    <path d="M 478.518579 29.071862 
Q 478.143683 29.146841 478.012469 29.577972 
Q 477.881255 30.009103 477.956234 30.42149 
Q 477.956234 30.571448 477.993724 30.702662 
Q 478.031214 30.833876 478.087448 30.89011 
Q 478.143683 30.946345 478.199917 31.040069 
Q 478.256152 31.133793 478.293641 31.208772 
L 478.40611 29.859145 
M 478.40611 34.020497 
Q 477.506359 39.006621 477.281421 42.793076 
L 477.731297 45.379862 
L 478.068703 46.054676 
" clip-path="url(#p5028069c3e)" style="fill: none; stroke: #000000; stroke-linejoin: miter"/>
   </g>
  </g>
  <g id="axes_31">
   <g id="patch_25">
    <path d="M 487.784141 38.85304 
L 488.212335 38.85304 
Q 489.03304 38.85304 489.996476 38.745991 
Q 490.959912 38.638943 492.119604 38.460529 
Q 493.279295 38.282115 493.885903 38.210749 
L 500.415859 35.427489 
M 500.094714 25.793128 
Q 499.809251 25.721762 498.774449 25.275727 
Q 497.739648 24.829692 497.097357 24.93674 
Q 496.455066 24.93674 495.937665 25.150837 
Q 495.420264 25.364934 495.081278 25.793128 
Q 494.742291 26.221322 494.47467 26.685198 
Q 494.207048 27.149075 494.064317 27.862731 
Q 493.921586 28.576388 493.814537 29.129471 
Q 493.707489 29.682555 493.689648 30.50326 
Q 493.671806 31.323965 493.653965 31.77 
Q 493.636123 32.216035 493.653965 32.965374 
Q 493.671806 33.714714 493.671806 33.928811 
Q 493.671806 36.605022 494.367621 41.850396 
Q 495.063436 47.095771 495.063436 49.771982 
Q 494.99207 50.057445 494.956388 50.681894 
Q 494.920705 51.306344 494.813656 51.805903 
Q 494.706608 52.305463 494.421145 52.555242 
" clip-path="url(#pedf37bbc39)" style="fill: none; stroke: #000000; stroke-linejoin: miter"/>
   </g>
  </g>
  <g id="axes_32"/>
  <g id="axes_33">
   <g id="patch_26">
    <path d="M 521.663834 37.95691 
L 522.338648 37.95691 
Q 523.050952 37.95691 523.838234 37.881931 
Q 524.625517 37.806952 525.581503 37.675738 
Q 526.53749 37.544524 527.062345 37.507034 
L 531.336166 35.82 
M 527.287283 30.42149 
L 527.287283 31.43371 
Q 527.287283 33.383172 526.612469 37.207117 
Q 525.937655 41.031062 525.937655 43.018014 
Q 525.937655 43.805297 525.937655 44.105214 
Q 525.937655 44.405131 526.031379 45.042455 
Q 526.125103 45.679779 526.312552 45.960952 
Q 526.5 46.242124 526.893641 46.485807 
Q 527.287283 46.72949 527.849628 46.72949 
Q 527.962097 46.692 528.280759 46.72949 
Q 528.599421 46.766979 528.786869 46.710745 
Q 528.974317 46.65451 528.974317 46.392083 
" clip-path="url(#p2c68b86b80)" style="fill: none; stroke: #000000; stroke-linejoin: miter"/>
   </g>
  </g>
  <g id="axes_34">
   <g id="patch_27">
    <path d="M 539.213462 35.932469 
Q 539.813297 35.257655 540.806772 34.826524 
Q 541.800248 34.395393 542.7 34.470372 
Q 543.337324 34.470372 543.82469 34.639076 
Q 544.312055 34.807779 544.630717 34.995228 
Q 544.949379 35.182676 545.174317 35.670041 
Q 545.399255 36.157407 545.511724 36.419834 
Q 545.624193 36.682262 545.680428 37.375821 
Q 545.736662 38.069379 545.755407 38.331807 
Q 545.774152 38.594234 545.755407 39.419007 
Q 545.736662 40.243779 545.736662 40.431228 
Q 545.736662 41.368469 545.567959 43.242952 
Q 545.399255 45.117434 545.399255 46.054676 
Q 545.399255 46.467062 545.45549 46.823214 
Q 545.511724 47.179366 545.605448 47.610497 
Q 545.699172 48.041628 545.736662 48.304055 
L 546.186538 48.528993 
M 539.663338 23.111007 
Q 539.888276 24.798041 539.888276 29.971614 
L 539.888276 42.3432 
L 539.550869 46.841959 
L 539.325931 47.74171 
" clip-path="url(#p3cdbcae162)" style="fill: none; stroke: #000000; stroke-linejoin: miter"/>
   </g>
  </g>
  <g id="axes_35">
   <g id="patch_28">
    <path d="M 552.657798 38.160826 
Q 555.630275 39.535596 560.349083 39.721376 
Q 561.872477 39.721376 562.559862 38.550963 
Q 563.247248 37.38055 563.247248 35.82 
Q 563.247248 35.299817 563.154358 34.909679 
Q 563.061468 34.519541 562.819954 34.296606 
Q 562.57844 34.07367 562.411239 33.943624 
Q 562.244037 33.813578 561.798165 33.757844 
Q 561.352294 33.70211 561.147936 33.683532 
Q 560.943578 33.664954 560.367661 33.683532 
Q 559.791743 33.70211 559.568807 33.70211 
Q 557.525229 33.70211 556.038991 35.578486 
Q 554.552752 37.454862 554.552752 39.609908 
Q 554.552752 42.619541 556.484862 44.570229 
Q 558.416972 46.520917 561.463761 46.520917 
Q 563.618807 46.818165 565.142202 44.29156 
" clip-path="url(#p911e71e924)" style="fill: none; stroke: #000000; stroke-linejoin: miter"/>
   </g>
  </g>
  <g id="axes_36">
   <g id="patch_29">
    <path d="M 571.613462 32.783338 
Q 572.138317 34.507862 572.269531 36.457324 
Q 572.400745 38.406786 572.325766 40.956083 
Q 572.250786 43.505379 572.288276 44.705048 
L 572.400745 46.054676 
L 572.400745 45.829738 
Q 572.400745 44.667559 572.119572 42.30571 
Q 571.8384 39.943862 571.8384 38.744193 
Q 571.8384 36.419834 572.850621 34.882759 
Q 573.862841 33.345683 575.887283 33.345683 
Q 576.599586 33.345683 576.936993 33.626855 
Q 577.2744 33.908028 577.536828 34.432883 
Q 577.799255 34.957738 578.136662 35.257655 
L 578.586538 36.832221 
" clip-path="url(#p884bc31330)" style="fill: none; stroke: #000000; stroke-linejoin: miter"/>
   </g>
  </g>
  <g id="axes_37">
   <g id="patch_30">
    <path d="M 585.057798 38.160826 
Q 588.030275 39.535596 592.749083 39.721376 
Q 594.272477 39.721376 594.959862 38.550963 
Q 595.647248 37.38055 595.647248 35.82 
Q 595.647248 35.299817 595.554358 34.909679 
Q 595.461468 34.519541 595.219954 34.296606 
Q 594.97844 34.07367 594.811239 33.943624 
Q 594.644037 33.813578 594.198165 33.757844 
Q 593.752294 33.70211 593.547936 33.683532 
Q 593.343578 33.664954 592.767661 33.683532 
Q 592.191743 33.70211 591.968807 33.70211 
Q 589.925229 33.70211 588.438991 35.578486 
Q 586.952752 37.454862 586.952752 39.609908 
Q 586.952752 42.619541 588.884862 44.570229 
Q 590.816972 46.520917 593.863761 46.520917 
Q 596.018807 46.818165 597.542202 44.29156 
" clip-path="url(#p360505037d)" style="fill: none; stroke: #000000; stroke-linejoin: miter"/>
   </g>
  </g>
  <g id="axes_38"/>
  <g id="axes_39">
   <g id="patch_31">
    <path d="M 624.318579 29.071862 
Q 623.943683 29.146841 623.812469 29.577972 
Q 623.681255 30.009103 623.756234 30.42149 
Q 623.756234 30.571448 623.793724 30.702662 
Q 623.831214 30.833876 623.887448 30.89011 
Q 623.943683 30.946345 623.999917 31.040069 
Q 624.056152 31.133793 624.093641 31.208772 
L 624.20611 29.859145 
M 624.20611 34.020497 
Q 623.306359 39.006621 623.081421 42.793076 
L 623.531297 45.379862 
L 623.868703 46.054676 
" clip-path="url(#pbbad0ec4b5)" style="fill: none; stroke: #000000; stroke-linejoin: miter"/>
   </g>
  </g>
  <g id="axes_40">
   <g id="patch_32">
    <path d="M 635.457476 43.917766 
Q 635.757393 44.180193 636.769614 45.154924 
Q 637.781834 46.129655 638.344179 46.560786 
Q 638.906524 46.991917 639.93749 47.385559 
Q 640.968455 47.7792 641.980676 47.629241 
Q 642.65549 47.629241 643.12411 47.404303 
Q 643.592731 47.179366 643.817669 46.879448 
Q 644.042607 46.579531 644.173821 45.979697 
Q 644.305034 45.379862 644.323779 44.967476 
Q 644.342524 44.55509 644.342524 43.805297 
Q 644.342524 42.718097 643.442772 42.043283 
Q 642.543021 41.368469 641.249628 41.031062 
Q 639.956234 40.693655 638.662841 40.300014 
Q 637.369448 39.906372 636.469697 38.987876 
Q 635.569945 38.069379 635.569945 36.607283 
Q 635.569945 36.082428 635.738648 35.726276 
Q 635.907352 35.370124 636.300993 35.145186 
Q 636.694634 34.920248 636.975807 34.807779 
Q 637.256979 34.69531 637.913048 34.639076 
Q 638.569117 34.582841 638.756566 34.582841 
Q 638.944014 34.582841 639.618828 34.582841 
Q 640.818497 34.582841 641.399586 34.995228 
Q 641.980676 35.407614 642.299338 36.026193 
Q 642.618 36.644772 642.880428 36.832221 
" clip-path="url(#pa63a6c22d3)" style="fill: none; stroke: #000000; stroke-linejoin: miter"/>
   </g>
  </g>
  <g id="axes_41"/>
  <g id="axes_42">
   <g id="patch_33">
    <path d="M 677.843923 36.441748 
Q 676.634968 35.094627 672.662687 35.094627 
Q 671.142857 35.094627 670.365672 35.146439 
Q 669.588486 35.198252 668.58678 35.440043 
Q 667.585075 35.681834 667.101493 36.182687 
Q 666.61791 36.683539 666.272495 37.616162 
Q 665.927079 38.548785 665.927079 39.964989 
Q 665.927079 42.037484 667.343284 43.280981 
Q 668.759488 44.524478 670.693817 44.524478 
Q 673.353518 44.524478 676.116844 38.721493 
Q 677.463966 35.854542 677.463966 35.82 
Q 677.809382 35.578209 677.843923 36.441748 
Q 677.843923 37.512537 678.258422 40.362217 
Q 678.672921 43.211898 678.672921 44.524478 
" clip-path="url(#p290068c292)" style="fill: none; stroke: #000000; stroke-linejoin: miter"/>
   </g>
  </g>
  <g id="axes_43">
   <g id="patch_34">
    <path d="M 684.038731 37.282097 
L 684.038731 37.844441 
Q 684.301159 39.868883 684.338648 41.312234 
Q 684.376138 42.755586 684.282414 44.667559 
Q 684.18869 46.579531 684.18869 48.191586 
L 684.263669 39.643945 
Q 684.263669 38.144359 685.856979 37.507034 
Q 687.45029 36.86971 688.874897 37.282097 
Q 690.786869 37.844441 691.705366 39.04411 
Q 692.623862 40.243779 692.680097 41.668386 
Q 692.736331 43.092993 692.773821 44.817517 
Q 692.81131 46.542041 692.961269 48.191586 
" clip-path="url(#pea3adb7865)" style="fill: none; stroke: #000000; stroke-linejoin: miter"/>
   </g>
  </g>
  <g id="axes_44">
   <g id="patch_35">
    <path d="M 699.563917 36.382345 
Q 699.526428 36.494814 699.657641 36.701007 
Q 699.788855 36.9072 699.676386 37.057159 
L 699.676386 39.306538 
Q 699.676386 40.506207 700.013793 41.724621 
Q 700.3512 42.943034 701.213462 43.93651 
Q 702.075724 44.929986 703.275393 44.929986 
Q 704.512552 44.929986 705.187366 43.861531 
Q 705.862179 42.793076 706.312055 41.143531 
Q 706.761931 39.493986 707.099338 38.969131 
L 707.886621 36.382345 
L 707.661683 42.680607 
L 707.661683 45.154924 
Q 707.661683 47.066897 708.392731 51.00331 
Q 709.123779 54.939724 709.123779 56.964166 
Q 709.873572 59.213545 708.786372 60.188276 
Q 707.699172 61.163007 705.637241 60.78811 
Q 703.837738 60.488193 702.919241 60.169531 
Q 702.000745 59.850869 700.013793 58.988607 
L 699.901324 58.426262 
" clip-path="url(#p1822e41000)" style="fill: none; stroke: #000000; stroke-linejoin: miter"/>
   </g>
  </g>
  <g id="axes_45">
   <g id="patch_36">
    <path d="M 716.063834 37.95691 
L 716.738648 37.95691 
Q 717.450952 37.95691 718.238234 37.881931 
Q 719.025517 37.806952 719.981503 37.675738 
Q 720.93749 37.544524 721.462345 37.507034 
L 725.736166 35.82 
M 721.687283 30.42149 
L 721.687283 31.43371 
Q 721.687283 33.383172 721.012469 37.207117 
Q 720.337655 41.031062 720.337655 43.018014 
Q 720.337655 43.805297 720.337655 44.105214 
Q 720.337655 44.405131 720.431379 45.042455 
Q 720.525103 45.679779 720.712552 45.960952 
Q 720.9 46.242124 721.293641 46.485807 
Q 721.687283 46.72949 722.249628 46.72949 
Q 722.362097 46.692 722.680759 46.72949 
Q 722.999421 46.766979 723.186869 46.710745 
Q 723.374317 46.65451 723.374317 46.392083 
" clip-path="url(#pd1e9b098fc)" style="fill: none; stroke: #000000; stroke-linejoin: miter"/>
   </g>
  </g>
  <g id="axes_46">
   <g id="patch_37">
    <path d="M 733.613462 35.932469 
Q 734.213297 35.257655 735.206772 34.826524 
Q 736.200248 34.395393 737.1 34.470372 
Q 737.737324 34.470372 738.22469 34.639076 
Q 738.712055 34.807779 739.030717 34.995228 
Q 739.349379 35.182676 739.574317 35.670041 
Q 739.799255 36.157407 739.911724 36.419834 
Q 740.024193 36.682262 740.080428 37.375821 
Q 740.136662 38.069379 740.155407 38.331807 
Q 740.174152 38.594234 740.155407 39.419007 
Q 740.136662 40.243779 740.136662 40.431228 
Q 740.136662 41.368469 739.967959 43.242952 
Q 739.799255 45.117434 739.799255 46.054676 
Q 739.799255 46.467062 739.85549 46.823214 
Q 739.911724 47.179366 740.005448 47.610497 
Q 740.099172 48.041628 740.136662 48.304055 
L 740.586538 48.528993 
M 734.063338 23.111007 
Q 734.288276 24.798041 734.288276 29.971614 
L 734.288276 42.3432 
L 733.950869 46.841959 
L 733.725931 47.74171 
" clip-path="url(#pbbf0253492)" style="fill: none; stroke: #000000; stroke-linejoin: miter"/>
   </g>
  </g>
  <g id="axes_47">
   <g id="patch_38">
    <path d="M 753.918579 29.071862 
Q 753.543683 29.146841 753.412469 29.577972 
Q 753.281255 30.009103 753.356234 30.42149 
Q 753.356234 30.571448 753.393724 30.702662 
Q 753.431214 30.833876 753.487448 30.89011 
Q 753.543683 30.946345 753.599917 31.040069 
Q 753.656152 31.133793 753.693641 31.208772 
L 753.80611 29.859145 
M 753.80611 34.020497 
Q 752.906359 39.006621 752.681421 42.793076 
L 753.131297 45.379862 
L 753.468703 46.054676 
" clip-path="url(#p716faa8852)" style="fill: none; stroke: #000000; stroke-linejoin: miter"/>
   </g>
  </g>
  <g id="axes_48">
   <g id="patch_39">
    <path d="M 765.038731 37.282097 
L 765.038731 37.844441 
Q 765.301159 39.868883 765.338648 41.312234 
Q 765.376138 42.755586 765.282414 44.667559 
Q 765.18869 46.579531 765.18869 48.191586 
L 765.263669 39.643945 
Q 765.263669 38.144359 766.856979 37.507034 
Q 768.45029 36.86971 769.874897 37.282097 
Q 771.786869 37.844441 772.705366 39.04411 
Q 773.623862 40.243779 773.680097 41.668386 
Q 773.736331 43.092993 773.773821 44.817517 
Q 773.81131 46.542041 773.961269 48.191586 
" clip-path="url(#pa1dad3aefa)" style="fill: none; stroke: #000000; stroke-linejoin: miter"/>
   </g>
  </g>
  <g id="axes_49">
   <g id="patch_40">
    <path d="M 790.487191 39.096404 
Q 790.23236 39.023596 789.26764 38.623146 
Q 788.302921 38.222697 787.64764 38.077079 
Q 786.99236 37.931461 786.337079 38.00427 
Q 783.715955 38.00427 782.077753 40.388764 
Q 780.439551 42.773258 780.439551 45.430787 
Q 780.439551 47.068989 785.681798 47.068989 
Q 787.247191 47.068989 788.575955 45.558202 
Q 789.904719 44.047416 790.578202 42.172584 
Q 791.251685 40.297753 791.251685 38.768764 
Q 791.251685 37.27618 791.215281 36.984944 
L 791.142472 38.077079 
Q 791.142472 38.550337 791.142472 38.987191 
Q 791.178876 40.188539 791.379101 42.281798 
Q 791.579326 44.375056 791.743146 46.049663 
Q 791.906966 47.72427 791.943371 49.872135 
Q 791.979775 52.02 791.815955 53.658202 
Q 791.652135 55.296404 791.087865 56.971011 
Q 790.523596 58.645618 789.595281 59.737753 
Q 788.666966 60.829888 787.065169 61.521573 
Q 785.463371 62.213258 783.315506 62.213258 
Q 781.677303 62.213258 780.585169 61.466966 
Q 779.493034 60.720674 779.493034 59.155281 
Q 779.420225 58.936854 779.456629 58.936854 
Q 779.493034 58.936854 779.602247 58.936854 
Q 779.711461 58.936854 779.711461 58.82764 
" clip-path="url(#p80bc55162a)" style="fill: none; stroke: #000000; stroke-linejoin: miter"/>
   </g>
  </g>
  <g id="axes_50"/>
  <g id="axes_51">
   <g id="patch_41">
    <path d="M 811.716102 36.437797 
L 812.951695 44.778051 
Q 813.054661 45.567458 813.054661 45.60178 
Q 813.054661 45.704746 813.363559 45.704746 
Q 814.22161 45.704746 814.942373 44.778051 
Q 815.663136 43.851356 816.075 42.718729 
Q 816.486864 41.586102 817.001695 40.659407 
Q 817.516525 39.732712 817.997034 39.732712 
Q 818.614831 39.732712 819.249788 40.607924 
Q 819.884746 41.483136 820.348093 42.512797 
Q 820.811441 43.542458 821.48072 44.417669 
Q 822.15 45.292881 822.836441 45.292881 
Q 823.111017 43.782712 823.540042 39.69839 
Q 823.969068 35.614068 824.483898 33.554746 
" clip-path="url(#pbffa4ce970)" style="fill: none; stroke: #000000; stroke-linejoin: miter"/>
   </g>
  </g>
  <g id="axes_52">
   <g id="patch_42">
    <path d="M 828.057798 38.160826 
Q 831.030275 39.535596 835.749083 39.721376 
Q 837.272477 39.721376 837.959862 38.550963 
Q 838.647248 37.38055 838.647248 35.82 
Q 838.647248 35.299817 838.554358 34.909679 
Q 838.461468 34.519541 838.219954 34.296606 
Q 837.97844 34.07367 837.811239 33.943624 
Q 837.644037 33.813578 837.198165 33.757844 
Q 836.752294 33.70211 836.547936 33.683532 
Q 836.343578 33.664954 835.767661 33.683532 
Q 835.191743 33.70211 834.968807 33.70211 
Q 832.925229 33.70211 831.438991 35.578486 
Q 829.952752 37.454862 829.952752 39.609908 
Q 829.952752 42.619541 831.884862 44.570229 
Q 833.816972 46.520917 836.863761 46.520917 
Q 839.018807 46.818165 840.542202 44.29156 
" clip-path="url(#p7010f9bdbd)" style="fill: none; stroke: #000000; stroke-linejoin: miter"/>
   </g>
  </g>
 </g>
 <defs>
  <clipPath id="pe0c8be6e1f">
   <rect x="0.883241" y="8.64" width="14.433517" height="54.36"/>
  </clipPath>
  <clipPath id="p5b1c03a62c">
   <rect x="16.2" y="10.777356" width="16.2" height="50.085288"/>
  </clipPath>
  <clipPath id="peed642e07f">
   <rect x="35.138979" y="8.64" width="10.722041" height="54.36"/>
  </clipPath>
  <clipPath id="pbe1c78da22">
   <rect x="50.382993" y="8.64" width="12.634014" height="54.36"/>
  </clipPath>
  <clipPath id="pb1f848e93b">
   <rect x="82.389352" y="8.64" width="13.421297" height="54.36"/>
  </clipPath>
  <clipPath id="p19dd6ee471">
   <rect x="98.083241" y="8.64" width="14.433517" height="54.36"/>
  </clipPath>
  <clipPath id="p45fb93c03c">
   <rect x="129.6" y="10.777356" width="16.2" height="50.085288"/>
  </clipPath>
  <clipPath id="p24c8d2508c">
   <rect x="147.564248" y="8.64" width="12.671503" height="54.36"/>
  </clipPath>
  <clipPath id="pee8f1fb1ea">
   <rect x="163.051945" y="8.64" width="14.09611" height="54.36"/>
  </clipPath>
  <clipPath id="p73fa143ea8">
   <rect x="194.4" y="16.753442" width="16.2" height="38.133117"/>
  </clipPath>
  <clipPath id="p6f68687e44">
   <rect x="216.675559" y="8.64" width="4.048883" height="54.36"/>
  </clipPath>
  <clipPath id="pe4ff0ef4cb">
   <rect x="227.851945" y="8.64" width="14.09611" height="54.36"/>
  </clipPath>
  <clipPath id="p76010af1cf">
   <rect x="265.031876" y="8.64" width="4.536248" height="54.36"/>
  </clipPath>
  <clipPath id="p0d1002c05e">
   <rect x="281.006938" y="8.64" width="4.986124" height="54.36"/>
  </clipPath>
  <clipPath id="p93beb53916">
   <rect x="293.382993" y="8.64" width="12.634014" height="54.36"/>
  </clipPath>
  <clipPath id="p7d8f4b8ad0">
   <rect x="307.8" y="8.881927" width="16.2" height="53.876147"/>
  </clipPath>
  <clipPath id="p4a3ff8416c">
   <rect x="341.589352" y="8.64" width="13.421297" height="54.36"/>
  </clipPath>
  <clipPath id="p93338ccaf1">
   <rect x="357.002069" y="8.64" width="14.995862" height="54.36"/>
  </clipPath>
  <clipPath id="p73a6112328">
   <rect x="390.582993" y="8.64" width="12.634014" height="54.36"/>
  </clipPath>
  <clipPath id="p1ec6ab1ebc">
   <rect x="406.764248" y="8.64" width="12.671503" height="54.36"/>
  </clipPath>
  <clipPath id="p2ad4a8c535">
   <rect x="421.802069" y="8.64" width="14.995862" height="54.36"/>
  </clipPath>
  <clipPath id="p76318a1efd">
   <rect x="437.4" y="10.936525" width="16.2" height="49.766949"/>
  </clipPath>
  <clipPath id="p5028069c3e">
   <rect x="475.406938" y="8.64" width="4.986124" height="54.36"/>
  </clipPath>
  <clipPath id="pedf37bbc39">
   <rect x="486" y="9.949956" width="16.2" height="51.740088"/>
  </clipPath>
  <clipPath id="p2c68b86b80">
   <rect x="519.789352" y="8.64" width="13.421297" height="54.36"/>
  </clipPath>
  <clipPath id="p3cdbcae162">
   <rect x="537.338979" y="8.64" width="10.722041" height="54.36"/>
  </clipPath>
  <clipPath id="p911e71e924">
   <rect x="550.8" y="8.881927" width="16.2" height="53.876147"/>
  </clipPath>
  <clipPath id="p884bc31330">
   <rect x="569.738979" y="8.64" width="10.722041" height="54.36"/>
  </clipPath>
  <clipPath id="p360505037d">
   <rect x="583.2" y="8.881927" width="16.2" height="53.876147"/>
  </clipPath>
  <clipPath id="pbbad0ec4b5">
   <rect x="621.206938" y="8.64" width="4.986124" height="54.36"/>
  </clipPath>
  <clipPath id="pa63a6c22d3">
   <rect x="633.582993" y="8.64" width="12.634014" height="54.36"/>
  </clipPath>
  <clipPath id="p290068c292">
   <rect x="664.2" y="10.777356" width="16.2" height="50.085288"/>
  </clipPath>
  <clipPath id="pea3adb7865">
   <rect x="682.164248" y="8.64" width="12.671503" height="54.36"/>
  </clipPath>
  <clipPath id="p1822e41000">
   <rect x="697.651945" y="8.64" width="14.09611" height="54.36"/>
  </clipPath>
  <clipPath id="pd1e9b098fc">
   <rect x="714.189352" y="8.64" width="13.421297" height="54.36"/>
  </clipPath>
  <clipPath id="pbbf0253492">
   <rect x="731.738979" y="8.64" width="10.722041" height="54.36"/>
  </clipPath>
  <clipPath id="p716faa8852">
   <rect x="750.806938" y="8.64" width="4.986124" height="54.36"/>
  </clipPath>
  <clipPath id="pa1dad3aefa">
   <rect x="763.164248" y="8.64" width="12.671503" height="54.36"/>
  </clipPath>
  <clipPath id="p80bc55162a">
   <rect x="777.6" y="9.426742" width="16.2" height="52.786517"/>
  </clipPath>
  <clipPath id="pbffa4ce970">
   <rect x="810" y="10.936525" width="16.2" height="49.766949"/>
  </clipPath>
  <clipPath id="p7010f9bdbd">
   <rect x="826.2" y="8.881927" width="16.2" height="53.876147"/>
  </clipPath>
 </defs>
</svg>
