<?xml version="1.0" encoding="utf-8" standalone="no"?>
<!DOCTYPE svg PUBLIC "-//W3C//DTD SVG 1.1//EN"
  "http://www.w3.org/Graphics/SVG/1.1/DTD/svg11.dtd">
<svg xmlns:xlink="http://www.w3.org/1999/xlink" width="144pt" height="72pt" viewBox="0 0 144 72" xmlns="http://www.w3.org/2000/svg" version="1.1">
 <metadata>
  <rdf:RDF xmlns:dc="http://purl.org/dc/elements/1.1/" xmlns:cc="http://creativecommons.org/ns#" xmlns:rdf="http://www.w3.org/1999/02/22-rdf-syntax-ns#">
   <cc:Work>
    <dc:type rdf:resource="http://purl.org/dc/dcmitype/StillImage"/>
    <dc:date>2023-12-21T11:49:13.533895</dc:date>
    <dc:format>image/svg+xml</dc:format>
    <dc:creator>
     <cc:Agent>
      <dc:title>Matplotlib v3.5.1, https://matplotlib.org/</dc:title>
     </cc:Agent>
    </dc:creator>
   </cc:Work>
  </rdf:RDF>
 </metadata>
 <defs>
  <style type="text/css">*{stroke-linejoin: round; stroke-linecap: butt}</style>
 </defs>
 <g id="figure_1">
  <g id="patch_1">
   <path d="M 0 72 
L 144 72 
L 144 0 
L 0 0 
z
" style="fill: #8fff9f"/>
  </g>
  <g id="axes_1">
   <g id="patch_2">
    <path d="M 3.263834 37.95691 
L 3.938648 37.95691 
Q 4.650952 37.95691 5.438234 37.881931 
Q 6.225517 37.806952 7.181503 37.675738 
Q 8.13749 37.544524 8.662345 37.507034 
L 12.936166 35.82 
M 8.887283 30.42149 
L 8.887283 31.43371 
Q 8.887283 33.383172 8.212469 37.207117 
Q 7.537655 41.031062 7.537655 43.018014 
Q 7.537655 43.805297 7.537655 44.105214 
Q 7.537655 44.405131 7.631379 45.042455 
Q 7.725103 45.679779 7.912552 45.960952 
Q 8.1 46.242124 8.493641 46.485807 
Q 8.887283 46.72949 9.449628 46.72949 
Q 9.562097 46.692 9.880759 46.72949 
Q 10.199421 46.766979 10.386869 46.710745 
Q 10.574317 46.65451 10.574317 46.392083 
" clip-path="url(#p5bcee71866)" style="fill: none; stroke: #000000; stroke-linejoin: miter"/>
   </g>
  </g>
  <g id="axes_2">
   <g id="patch_3">
    <path d="M 20.813462 35.932469 
Q 21.413297 35.257655 22.406772 34.826524 
Q 23.400248 34.395393 24.3 34.470372 
Q 24.937324 34.470372 25.42469 34.639076 
Q 25.912055 34.807779 26.230717 34.995228 
Q 26.549379 35.182676 26.774317 35.670041 
Q 26.999255 36.157407 27.111724 36.419834 
Q 27.224193 36.682262 27.280428 37.375821 
Q 27.336662 38.069379 27.355407 38.331807 
Q 27.374152 38.594234 27.355407 39.419007 
Q 27.336662 40.243779 27.336662 40.431228 
Q 27.336662 41.368469 27.167959 43.242952 
Q 26.999255 45.117434 26.999255 46.054676 
Q 26.999255 46.467062 27.05549 46.823214 
Q 27.111724 47.179366 27.205448 47.610497 
Q 27.299172 48.041628 27.336662 48.304055 
L 27.786538 48.528993 
M 21.263338 23.111007 
Q 21.488276 24.798041 21.488276 29.971614 
L 21.488276 42.3432 
L 21.150869 46.841959 
L 20.925931 47.74171 
" clip-path="url(#p6d7346ecfb)" style="fill: none; stroke: #000000; stroke-linejoin: miter"/>
   </g>
  </g>
  <g id="axes_3">
   <g id="patch_4">
    <path d="M 34.257798 38.160826 
Q 37.230275 39.535596 41.949083 39.721376 
Q 43.472477 39.721376 44.159862 38.550963 
Q 44.847248 37.38055 44.847248 35.82 
Q 44.847248 35.299817 44.754358 34.909679 
Q 44.661468 34.519541 44.419954 34.296606 
Q 44.17844 34.07367 44.011239 33.943624 
Q 43.844037 33.813578 43.398165 33.757844 
Q 42.952294 33.70211 42.747936 33.683532 
Q 42.543578 33.664954 41.967661 33.683532 
Q 41.391743 33.70211 41.168807 33.70211 
Q 39.125229 33.70211 37.638991 35.578486 
Q 36.152752 37.454862 36.152752 39.609908 
Q 36.152752 42.619541 38.084862 44.570229 
Q 40.016972 46.520917 43.063761 46.520917 
Q 45.218807 46.818165 46.742202 44.29156 
" clip-path="url(#p3cb0d09ed5)" style="fill: none; stroke: #000000; stroke-linejoin: miter"/>
   </g>
  </g>
  <g id="axes_4"/>
  <g id="axes_5">
   <g id="patch_5">
    <path d="M 78.443923 36.441748 
Q 77.234968 35.094627 73.262687 35.094627 
Q 71.742857 35.094627 70.965672 35.146439 
Q 70.188486 35.198252 69.18678 35.440043 
Q 68.185075 35.681834 67.701493 36.182687 
Q 67.21791 36.683539 66.872495 37.616162 
Q 66.527079 38.548785 66.527079 39.964989 
Q 66.527079 42.037484 67.943284 43.280981 
Q 69.359488 44.524478 71.293817 44.524478 
Q 73.953518 44.524478 76.716844 38.721493 
Q 78.063966 35.854542 78.063966 35.82 
Q 78.409382 35.578209 78.443923 36.441748 
Q 78.443923 37.512537 78.858422 40.362217 
Q 79.272921 43.211898 79.272921 44.524478 
" clip-path="url(#p25c9de2962)" style="fill: none; stroke: #000000; stroke-linejoin: miter"/>
   </g>
  </g>
  <g id="axes_6">
   <g id="patch_6">
    <path d="M 89.718579 29.071862 
Q 89.343683 29.146841 89.212469 29.577972 
Q 89.081255 30.009103 89.156234 30.42149 
Q 89.156234 30.571448 89.193724 30.702662 
Q 89.231214 30.833876 89.287448 30.89011 
Q 89.343683 30.946345 89.399917 31.040069 
Q 89.456152 31.133793 89.493641 31.208772 
L 89.60611 29.859145 
M 89.60611 34.020497 
Q 88.706359 39.006621 88.481421 42.793076 
L 88.931297 45.379862 
L 89.268703 46.054676 
" clip-path="url(#p8905ce566a)" style="fill: none; stroke: #000000; stroke-linejoin: miter"/>
   </g>
  </g>
  <g id="axes_7">
   <g id="patch_7">
    <path d="M 101.813462 32.783338 
Q 102.338317 34.507862 102.469531 36.457324 
Q 102.600745 38.406786 102.525766 40.956083 
Q 102.450786 43.505379 102.488276 44.705048 
L 102.600745 46.054676 
L 102.600745 45.829738 
Q 102.600745 44.667559 102.319572 42.30571 
Q 102.0384 39.943862 102.0384 38.744193 
Q 102.0384 36.419834 103.050621 34.882759 
Q 104.062841 33.345683 106.087283 33.345683 
Q 106.799586 33.345683 107.136993 33.626855 
Q 107.4744 33.908028 107.736828 34.432883 
Q 107.999255 34.957738 108.336662 35.257655 
L 108.786538 36.832221 
" clip-path="url(#p7e2e630919)" style="fill: none; stroke: #000000; stroke-linejoin: miter"/>
   </g>
  </g>
  <g id="axes_8">
   <g id="patch_8">
    <path d="M 121.387531 45.979697 
Q 121.350041 46.017186 121.218828 46.054676 
Q 121.087614 46.092166 121.125103 46.167145 
Q 121.125103 46.579531 121.5 46.579531 
Q 121.837407 46.579531 121.837407 46.092166 
Q 121.912386 45.867228 121.631214 45.754759 
Q 121.350041 45.64229 121.162593 45.754759 
" clip-path="url(#p63d8c25c34)" style="fill: none; stroke: #000000; stroke-linejoin: miter"/>
   </g>
  </g>
 </g>
 <defs>
  <clipPath id="p5bcee71866">
   <rect x="1.389352" y="8.64" width="13.421297" height="54.36"/>
  </clipPath>
  <clipPath id="p6d7346ecfb">
   <rect x="18.938979" y="8.64" width="10.722041" height="54.36"/>
  </clipPath>
  <clipPath id="p3cb0d09ed5">
   <rect x="32.4" y="8.881927" width="16.2" height="53.876147"/>
  </clipPath>
  <clipPath id="p25c9de2962">
   <rect x="64.8" y="10.777356" width="16.2" height="50.085288"/>
  </clipPath>
  <clipPath id="p8905ce566a">
   <rect x="86.606938" y="8.64" width="4.986124" height="54.36"/>
  </clipPath>
  <clipPath id="p7e2e630919">
   <rect x="99.938979" y="8.64" width="10.722041" height="54.36"/>
  </clipPath>
  <clipPath id="p63d8c25c34">
   <rect x="119.213131" y="8.64" width="4.573738" height="54.36"/>
  </clipPath>
 </defs>
</svg>
