<?xml version="1.0" encoding="utf-8" standalone="no"?>
<!DOCTYPE svg PUBLIC "-//W3C//DTD SVG 1.1//EN"
  "http://www.w3.org/Graphics/SVG/1.1/DTD/svg11.dtd">
<svg xmlns:xlink="http://www.w3.org/1999/xlink" width="846pt" height="72pt" viewBox="0 0 846 72" xmlns="http://www.w3.org/2000/svg" version="1.1">
 <metadata>
  <rdf:RDF xmlns:dc="http://purl.org/dc/elements/1.1/" xmlns:cc="http://creativecommons.org/ns#" xmlns:rdf="http://www.w3.org/1999/02/22-rdf-syntax-ns#">
   <cc:Work>
    <dc:type rdf:resource="http://purl.org/dc/dcmitype/StillImage"/>
    <dc:date>2023-12-21T11:49:33.043434</dc:date>
    <dc:format>image/svg+xml</dc:format>
    <dc:creator>
     <cc:Agent>
      <dc:title>Matplotlib v3.5.1, https://matplotlib.org/</dc:title>
     </cc:Agent>
    </dc:creator>
   </cc:Work>
  </rdf:RDF>
 </metadata>
 <defs>
  <style type="text/css">*{stroke-linejoin: round; stroke-linecap: butt}</style>
 </defs>
 <g id="figure_1">
  <g id="patch_1">
   <path d="M 0 72 
L 846 72 
L 846 0 
L 0 0 
z
" style="fill: #8fff9f"/>
  </g>
  <g id="axes_1">
   <g id="patch_2">
    <path d="M 1.314935 43.209935 
L 14.885065 43.209935 
M 2.656169 30.007987 
L 13.543831 29.929091 
M 7.547727 30.323571 
L 7.547727 30.718052 
Q 7.547727 32.243377 7.639773 33.99224 
Q 7.731818 35.741104 7.88961 37.910747 
Q 8.047403 40.08039 8.1 41.211234 
L 8.257792 43.025844 
" clip-path="url(#pe44bf894ed)" style="fill: none; stroke: #000000; stroke-linejoin: miter"/>
   </g>
  </g>
  <g id="axes_2">
   <g id="patch_3">
    <path d="M 19.838731 37.282097 
L 19.838731 37.844441 
Q 20.101159 39.868883 20.138648 41.312234 
Q 20.176138 42.755586 20.082414 44.667559 
Q 19.98869 46.579531 19.98869 48.191586 
L 20.063669 39.643945 
Q 20.063669 38.144359 21.656979 37.507034 
Q 23.25029 36.86971 24.674897 37.282097 
Q 26.586869 37.844441 27.505366 39.04411 
Q 28.423862 40.243779 28.480097 41.668386 
Q 28.536331 43.092993 28.573821 44.817517 
Q 28.61131 46.542041 28.761269 48.191586 
" clip-path="url(#p806e984e5b)" style="fill: none; stroke: #000000; stroke-linejoin: miter"/>
   </g>
  </g>
  <g id="axes_3">
   <g id="patch_4">
    <path d="M 34.184141 38.85304 
L 34.612335 38.85304 
Q 35.43304 38.85304 36.396476 38.745991 
Q 37.359912 38.638943 38.519604 38.460529 
Q 39.679295 38.282115 40.285903 38.210749 
L 46.815859 35.427489 
M 46.494714 25.793128 
Q 46.209251 25.721762 45.174449 25.275727 
Q 44.139648 24.829692 43.497357 24.93674 
Q 42.855066 24.93674 42.337665 25.150837 
Q 41.820264 25.364934 41.481278 25.793128 
Q 41.142291 26.221322 40.87467 26.685198 
Q 40.607048 27.149075 40.464317 27.862731 
Q 40.321586 28.576388 40.214537 29.129471 
Q 40.107489 29.682555 40.089648 30.50326 
Q 40.071806 31.323965 40.053965 31.77 
Q 40.036123 32.216035 40.053965 32.965374 
Q 40.071806 33.714714 40.071806 33.928811 
Q 40.071806 36.605022 40.767621 41.850396 
Q 41.463436 47.095771 41.463436 49.771982 
Q 41.39207 50.057445 41.356388 50.681894 
Q 41.320705 51.306344 41.213656 51.805903 
Q 41.106608 52.305463 40.821145 52.555242 
" clip-path="url(#p8f07136127)" style="fill: none; stroke: #000000; stroke-linejoin: miter"/>
   </g>
  </g>
  <g id="axes_4">
   <g id="patch_5">
    <path d="M 59.9616 35.032717 
Q 58.91189 34.582841 57.937159 34.69531 
Q 54.900497 35.032717 52.988524 36.701007 
Q 51.076552 38.369297 51.076552 41.330979 
Q 51.076552 43.917766 53.082248 45.6048 
Q 55.087945 47.291834 57.712221 47.291834 
Q 60.074069 47.291834 61.198759 45.361117 
Q 62.323448 43.4304 62.323448 40.881103 
Q 62.323448 39.643945 61.911062 38.706703 
Q 61.498676 37.769462 60.973821 37.300841 
Q 60.448966 36.832221 59.699172 36.119917 
Q 58.949379 35.407614 58.499503 34.69531 
L 57.262345 34.245434 
" clip-path="url(#p1c9b179be5)" style="fill: none; stroke: #000000; stroke-linejoin: miter"/>
   </g>
  </g>
  <g id="axes_5"/>
  <g id="axes_6">
   <g id="patch_6">
    <path d="M 82.354515 35.196923 
Q 82.354515 35.196923 83.898662 35.196923 
Q 83.925753 35.196923 95.276589 35.440736 
M 94.057525 28.61398 
Q 94.057525 28.61398 94.057525 35.115652 
Q 94.057525 36.551438 94.287793 37.960134 
Q 94.51806 39.368829 94.870234 40.940067 
Q 95.222408 42.511304 95.35786 43.324013 
L 95.845485 43.730368 
M 84.223746 28.451438 
Q 84.657191 29.453779 84.779097 31.580368 
Q 84.901003 33.706957 85.117726 34.546756 
L 85.52408 44.949431 
" clip-path="url(#p51c68ed375)" style="fill: none; stroke: #000000; stroke-linejoin: miter"/>
   </g>
  </g>
  <g id="axes_7">
   <g id="patch_7">
    <path d="M 100.688772 35.145186 
Q 100.688772 35.145186 100.688772 35.595062 
Q 100.688772 36.269876 100.576303 37.619503 
Q 100.463834 38.969131 100.463834 39.643945 
Q 100.463834 41.930814 101.700993 43.599103 
Q 102.938152 45.267393 105.075062 45.267393 
Q 106.462179 45.154924 107.230717 43.917766 
Q 107.999255 42.680607 108.149214 41.237255 
Q 108.299172 39.793903 108.5616 37.9944 
Q 108.824028 36.194897 109.236414 35.370124 
Q 109.386372 35.070207 109.386372 35.670041 
Q 109.386372 36.269876 109.123945 38.706703 
Q 108.899007 41.031062 108.899007 41.555917 
Q 108.749048 42.643117 109.086455 43.767807 
Q 109.423862 44.892497 110.136166 45.6048 
" clip-path="url(#p75dffa126e)" style="fill: none; stroke: #000000; stroke-linejoin: miter"/>
   </g>
  </g>
  <g id="axes_8">
   <g id="patch_8">
    <path d="M 116.663834 37.95691 
L 117.338648 37.95691 
Q 118.050952 37.95691 118.838234 37.881931 
Q 119.625517 37.806952 120.581503 37.675738 
Q 121.53749 37.544524 122.062345 37.507034 
L 126.336166 35.82 
M 122.287283 30.42149 
L 122.287283 31.43371 
Q 122.287283 33.383172 121.612469 37.207117 
Q 120.937655 41.031062 120.937655 43.018014 
Q 120.937655 43.805297 120.937655 44.105214 
Q 120.937655 44.405131 121.031379 45.042455 
Q 121.125103 45.679779 121.312552 45.960952 
Q 121.5 46.242124 121.893641 46.485807 
Q 122.287283 46.72949 122.849628 46.72949 
Q 122.962097 46.692 123.280759 46.72949 
Q 123.599421 46.766979 123.786869 46.710745 
Q 123.974317 46.65451 123.974317 46.392083 
" clip-path="url(#pbb228d504a)" style="fill: none; stroke: #000000; stroke-linejoin: miter"/>
   </g>
  </g>
  <g id="axes_9">
   <g id="patch_9">
    <path d="M 136.987697 39.981352 
Q 137.999917 40.956083 138.337324 42.905545 
Q 138.524772 43.955255 138.112386 46.167145 
L 136.875228 47.629241 
" clip-path="url(#p5b26f13d6f)" style="fill: none; stroke: #000000; stroke-linejoin: miter"/>
   </g>
  </g>
  <g id="axes_10"/>
  <g id="axes_11">
   <g id="patch_10">
    <path d="M 170.718579 29.071862 
Q 170.343683 29.146841 170.212469 29.577972 
Q 170.081255 30.009103 170.156234 30.42149 
Q 170.156234 30.571448 170.193724 30.702662 
Q 170.231214 30.833876 170.287448 30.89011 
Q 170.343683 30.946345 170.399917 31.040069 
Q 170.456152 31.133793 170.493641 31.208772 
L 170.60611 29.859145 
M 170.60611 34.020497 
Q 169.706359 39.006621 169.481421 42.793076 
L 169.931297 45.379862 
L 170.268703 46.054676 
" clip-path="url(#p76ad9a22f3)" style="fill: none; stroke: #000000; stroke-linejoin: miter"/>
   </g>
  </g>
  <g id="axes_12">
   <g id="patch_11">
    <path d="M 181.463834 37.95691 
L 182.138648 37.95691 
Q 182.850952 37.95691 183.638234 37.881931 
Q 184.425517 37.806952 185.381503 37.675738 
Q 186.33749 37.544524 186.862345 37.507034 
L 191.136166 35.82 
M 187.087283 30.42149 
L 187.087283 31.43371 
Q 187.087283 33.383172 186.412469 37.207117 
Q 185.737655 41.031062 185.737655 43.018014 
Q 185.737655 43.805297 185.737655 44.105214 
Q 185.737655 44.405131 185.831379 45.042455 
Q 185.925103 45.679779 186.112552 45.960952 
Q 186.3 46.242124 186.693641 46.485807 
Q 187.087283 46.72949 187.649628 46.72949 
Q 187.762097 46.692 188.080759 46.72949 
Q 188.399421 46.766979 188.586869 46.710745 
Q 188.774317 46.65451 188.774317 46.392083 
" clip-path="url(#pb34f0cc94a)" style="fill: none; stroke: #000000; stroke-linejoin: miter"/>
   </g>
  </g>
  <g id="axes_13"/>
  <g id="axes_14">
   <g id="patch_12">
    <path d="M 212.316102 36.437797 
L 213.551695 44.778051 
Q 213.654661 45.567458 213.654661 45.60178 
Q 213.654661 45.704746 213.963559 45.704746 
Q 214.82161 45.704746 215.542373 44.778051 
Q 216.263136 43.851356 216.675 42.718729 
Q 217.086864 41.586102 217.601695 40.659407 
Q 218.116525 39.732712 218.597034 39.732712 
Q 219.214831 39.732712 219.849788 40.607924 
Q 220.484746 41.483136 220.948093 42.512797 
Q 221.411441 43.542458 222.08072 44.417669 
Q 222.75 45.292881 223.436441 45.292881 
Q 223.711017 43.782712 224.140042 39.69839 
Q 224.569068 35.614068 225.083898 33.554746 
" clip-path="url(#p537e60e144)" style="fill: none; stroke: #000000; stroke-linejoin: miter"/>
   </g>
  </g>
  <g id="axes_15">
   <g id="patch_13">
    <path d="M 238.1616 35.032717 
Q 237.11189 34.582841 236.137159 34.69531 
Q 233.100497 35.032717 231.188524 36.701007 
Q 229.276552 38.369297 229.276552 41.330979 
Q 229.276552 43.917766 231.282248 45.6048 
Q 233.287945 47.291834 235.912221 47.291834 
Q 238.274069 47.291834 239.398759 45.361117 
Q 240.523448 43.4304 240.523448 40.881103 
Q 240.523448 39.643945 240.111062 38.706703 
Q 239.698676 37.769462 239.173821 37.300841 
Q 238.648966 36.832221 237.899172 36.119917 
Q 237.149379 35.407614 236.699503 34.69531 
L 235.462345 34.245434 
" clip-path="url(#pbeb14f06ad)" style="fill: none; stroke: #000000; stroke-linejoin: miter"/>
   </g>
  </g>
  <g id="axes_16">
   <g id="patch_14">
    <path d="M 246.488772 35.145186 
Q 246.488772 35.145186 246.488772 35.595062 
Q 246.488772 36.269876 246.376303 37.619503 
Q 246.263834 38.969131 246.263834 39.643945 
Q 246.263834 41.930814 247.500993 43.599103 
Q 248.738152 45.267393 250.875062 45.267393 
Q 252.262179 45.154924 253.030717 43.917766 
Q 253.799255 42.680607 253.949214 41.237255 
Q 254.099172 39.793903 254.3616 37.9944 
Q 254.624028 36.194897 255.036414 35.370124 
Q 255.186372 35.070207 255.186372 35.670041 
Q 255.186372 36.269876 254.923945 38.706703 
Q 254.699007 41.031062 254.699007 41.555917 
Q 254.549048 42.643117 254.886455 43.767807 
Q 255.223862 44.892497 255.936166 45.6048 
" clip-path="url(#p4a87c51119)" style="fill: none; stroke: #000000; stroke-linejoin: miter"/>
   </g>
  </g>
  <g id="axes_17">
   <g id="patch_15">
    <path d="M 266.906359 28.621986 
Q 267.131297 30.34651 267.206276 32.146014 
Q 267.281255 33.945517 267.26251 36.551048 
Q 267.243766 39.156579 267.243766 40.093821 
Q 267.243766 40.13131 267.468703 45.829738 
L 267.693641 46.841959 
" clip-path="url(#p2718a27d15)" style="fill: none; stroke: #000000; stroke-linejoin: miter"/>
   </g>
  </g>
  <g id="axes_18">
   <g id="patch_16">
    <path d="M 287.099007 39.568966 
Q 285.749379 38.181848 283.5 38.444276 
Q 280.650786 38.444276 279.488607 39.793903 
Q 278.326428 41.143531 278.326428 44.067724 
Q 278.326428 45.56731 279.619821 46.279614 
Q 280.913214 46.991917 282.487779 46.991917 
Q 283.799917 46.991917 284.812138 45.736014 
Q 285.824359 44.48011 286.405448 42.30571 
Q 286.986538 40.13131 287.361434 37.938166 
Q 287.736331 35.745021 287.88629 33.045766 
Q 288.036248 30.34651 288.073738 28.978138 
Q 288.111228 27.609766 288.111228 26.185159 
Q 287.88629 26.260138 287.88629 29.896634 
L 287.88629 44.292662 
L 288.673572 48.229076 
" clip-path="url(#p447ccfe754)" style="fill: none; stroke: #000000; stroke-linejoin: miter"/>
   </g>
  </g>
  <g id="axes_19"/>
  <g id="axes_20">
   <g id="patch_17">
    <path d="M 312.357228 37.244607 
Q 313.406938 37.207117 313.594386 37.132138 
Q 317.005945 37.132138 318.786703 39.212814 
Q 320.567462 41.29349 320.567462 44.780028 
Q 320.567462 47.704221 315.956234 47.704221 
Q 315.31891 47.704221 314.77531 47.591752 
Q 314.23171 47.479283 313.594386 47.254345 
Q 312.957062 47.029407 312.469697 46.916938 
L 311.232538 45.679779 
M 312.244759 25.435366 
L 312.244759 26.560055 
Q 312.244759 29.409269 312.357228 33.008276 
Q 312.469697 36.607283 312.657145 40.899848 
Q 312.844593 45.192414 312.919572 47.141876 
" clip-path="url(#p99950c850c)" style="fill: none; stroke: #000000; stroke-linejoin: miter"/>
   </g>
  </g>
  <g id="axes_21">
   <g id="patch_18">
    <path d="M 325.857798 38.160826 
Q 328.830275 39.535596 333.549083 39.721376 
Q 335.072477 39.721376 335.759862 38.550963 
Q 336.447248 37.38055 336.447248 35.82 
Q 336.447248 35.299817 336.354358 34.909679 
Q 336.261468 34.519541 336.019954 34.296606 
Q 335.77844 34.07367 335.611239 33.943624 
Q 335.444037 33.813578 334.998165 33.757844 
Q 334.552294 33.70211 334.347936 33.683532 
Q 334.143578 33.664954 333.567661 33.683532 
Q 332.991743 33.70211 332.768807 33.70211 
Q 330.725229 33.70211 329.238991 35.578486 
Q 327.752752 37.454862 327.752752 39.609908 
Q 327.752752 42.619541 329.684862 44.570229 
Q 331.616972 46.520917 334.663761 46.520917 
Q 336.818807 46.818165 338.342202 44.29156 
" clip-path="url(#p121aac0fa5)" style="fill: none; stroke: #000000; stroke-linejoin: miter"/>
   </g>
  </g>
  <g id="axes_22"/>
  <g id="axes_23">
   <g id="patch_19">
    <path d="M 360.038731 37.282097 
L 360.038731 37.844441 
Q 360.301159 39.868883 360.338648 41.312234 
Q 360.376138 42.755586 360.282414 44.667559 
Q 360.18869 46.579531 360.18869 48.191586 
L 360.263669 39.643945 
Q 360.263669 38.144359 361.856979 37.507034 
Q 363.45029 36.86971 364.874897 37.282097 
Q 366.786869 37.844441 367.705366 39.04411 
Q 368.623862 40.243779 368.680097 41.668386 
Q 368.736331 43.092993 368.773821 44.817517 
Q 368.81131 46.542041 368.961269 48.191586 
" clip-path="url(#p526354d63c)" style="fill: none; stroke: #000000; stroke-linejoin: miter"/>
   </g>
  </g>
  <g id="axes_24">
   <g id="patch_20">
    <path d="M 381.318579 29.071862 
Q 380.943683 29.146841 380.812469 29.577972 
Q 380.681255 30.009103 380.756234 30.42149 
Q 380.756234 30.571448 380.793724 30.702662 
Q 380.831214 30.833876 380.887448 30.89011 
Q 380.943683 30.946345 380.999917 31.040069 
Q 381.056152 31.133793 381.093641 31.208772 
L 381.20611 29.859145 
M 381.20611 34.020497 
Q 380.306359 39.006621 380.081421 42.793076 
L 380.531297 45.379862 
L 380.868703 46.054676 
" clip-path="url(#p977e8f1c12)" style="fill: none; stroke: #000000; stroke-linejoin: miter"/>
   </g>
  </g>
  <g id="axes_25">
   <g id="patch_21">
    <path d="M 402.156735 34.365306 
Q 402.156735 34.365306 401.660816 34.365306 
Q 400.867347 34.365306 399.379592 34.067755 
Q 397.891837 33.770204 397.098367 33.770204 
Q 394.321224 33.770204 392.387143 35.224898 
Q 390.453061 36.679592 390.453061 39.423673 
Q 390.453061 40.94449 391.940816 42.399184 
Q 393.428571 43.853878 395.362653 44.663878 
Q 397.296735 45.473878 398.78449 45.473878 
Q 399.710204 45.473878 400.40449 45.110204 
Q 401.098776 44.746531 401.842653 44.118367 
Q 402.586531 43.490204 403.148571 43.192653 
L 403.346939 42.696735 
" clip-path="url(#pf3dc286cbe)" style="fill: none; stroke: #000000; stroke-linejoin: miter"/>
   </g>
  </g>
  <g id="axes_26">
   <g id="patch_22">
    <path d="M 406.857798 38.160826 
Q 409.830275 39.535596 414.549083 39.721376 
Q 416.072477 39.721376 416.759862 38.550963 
Q 417.447248 37.38055 417.447248 35.82 
Q 417.447248 35.299817 417.354358 34.909679 
Q 417.261468 34.519541 417.019954 34.296606 
Q 416.77844 34.07367 416.611239 33.943624 
Q 416.444037 33.813578 415.998165 33.757844 
Q 415.552294 33.70211 415.347936 33.683532 
Q 415.143578 33.664954 414.567661 33.683532 
Q 413.991743 33.70211 413.768807 33.70211 
Q 411.725229 33.70211 410.238991 35.578486 
Q 408.752752 37.454862 408.752752 39.609908 
Q 408.752752 42.619541 410.684862 44.570229 
Q 412.616972 46.520917 415.663761 46.520917 
Q 417.818807 46.818165 419.342202 44.29156 
" clip-path="url(#p20a7b5ab20)" style="fill: none; stroke: #000000; stroke-linejoin: miter"/>
   </g>
  </g>
  <g id="axes_27"/>
  <g id="axes_28">
   <g id="patch_23">
    <path d="M 440.663834 37.95691 
L 441.338648 37.95691 
Q 442.050952 37.95691 442.838234 37.881931 
Q 443.625517 37.806952 444.581503 37.675738 
Q 445.53749 37.544524 446.062345 37.507034 
L 450.336166 35.82 
M 446.287283 30.42149 
L 446.287283 31.43371 
Q 446.287283 33.383172 445.612469 37.207117 
Q 444.937655 41.031062 444.937655 43.018014 
Q 444.937655 43.805297 444.937655 44.105214 
Q 444.937655 44.405131 445.031379 45.042455 
Q 445.125103 45.679779 445.312552 45.960952 
Q 445.5 46.242124 445.893641 46.485807 
Q 446.287283 46.72949 446.849628 46.72949 
Q 446.962097 46.692 447.280759 46.72949 
Q 447.599421 46.766979 447.786869 46.710745 
Q 447.974317 46.65451 447.974317 46.392083 
" clip-path="url(#p45f34e1dea)" style="fill: none; stroke: #000000; stroke-linejoin: miter"/>
   </g>
  </g>
  <g id="axes_29">
   <g id="patch_24">
    <path d="M 464.9616 35.032717 
Q 463.91189 34.582841 462.937159 34.69531 
Q 459.900497 35.032717 457.988524 36.701007 
Q 456.076552 38.369297 456.076552 41.330979 
Q 456.076552 43.917766 458.082248 45.6048 
Q 460.087945 47.291834 462.712221 47.291834 
Q 465.074069 47.291834 466.198759 45.361117 
Q 467.323448 43.4304 467.323448 40.881103 
Q 467.323448 39.643945 466.911062 38.706703 
Q 466.498676 37.769462 465.973821 37.300841 
Q 465.448966 36.832221 464.699172 36.119917 
Q 463.949379 35.407614 463.499503 34.69531 
L 462.262345 34.245434 
" clip-path="url(#p8c4929749e)" style="fill: none; stroke: #000000; stroke-linejoin: miter"/>
   </g>
  </g>
  <g id="axes_30"/>
  <g id="axes_31">
   <g id="patch_25">
    <path d="M 492.131793 37.169628 
Q 494.156234 39.194069 495.918248 41.76211 
Q 497.680262 44.330152 498.542524 46.72949 
M 495.168455 31.321241 
L 495.168455 31.546179 
Q 495.168455 32.333462 494.531131 33.514386 
Q 493.893807 34.69531 492.919076 36.101172 
Q 491.944345 37.507034 491.681917 37.95691 
L 490.444759 39.643945 
M 489.657476 26.710014 
Q 491.494469 36.269876 491.681917 48.641462 
" clip-path="url(#p47c82590d4)" style="fill: none; stroke: #000000; stroke-linejoin: miter"/>
   </g>
  </g>
  <g id="axes_32">
   <g id="patch_26">
    <path d="M 505.838731 37.282097 
L 505.838731 37.844441 
Q 506.101159 39.868883 506.138648 41.312234 
Q 506.176138 42.755586 506.082414 44.667559 
Q 505.98869 46.579531 505.98869 48.191586 
L 506.063669 39.643945 
Q 506.063669 38.144359 507.656979 37.507034 
Q 509.25029 36.86971 510.674897 37.282097 
Q 512.586869 37.844441 513.505366 39.04411 
Q 514.423862 40.243779 514.480097 41.668386 
Q 514.536331 43.092993 514.573821 44.817517 
Q 514.61131 46.542041 514.761269 48.191586 
" clip-path="url(#p4ca8b1f0c5)" style="fill: none; stroke: #000000; stroke-linejoin: miter"/>
   </g>
  </g>
  <g id="axes_33">
   <g id="patch_27">
    <path d="M 529.7616 35.032717 
Q 528.71189 34.582841 527.737159 34.69531 
Q 524.700497 35.032717 522.788524 36.701007 
Q 520.876552 38.369297 520.876552 41.330979 
Q 520.876552 43.917766 522.882248 45.6048 
Q 524.887945 47.291834 527.512221 47.291834 
Q 529.874069 47.291834 530.998759 45.361117 
Q 532.123448 43.4304 532.123448 40.881103 
Q 532.123448 39.643945 531.711062 38.706703 
Q 531.298676 37.769462 530.773821 37.300841 
Q 530.248966 36.832221 529.499172 36.119917 
Q 528.749379 35.407614 528.299503 34.69531 
L 527.062345 34.245434 
" clip-path="url(#p28461ae6a9)" style="fill: none; stroke: #000000; stroke-linejoin: miter"/>
   </g>
  </g>
  <g id="axes_34">
   <g id="patch_28">
    <path d="M 536.316102 36.437797 
L 537.551695 44.778051 
Q 537.654661 45.567458 537.654661 45.60178 
Q 537.654661 45.704746 537.963559 45.704746 
Q 538.82161 45.704746 539.542373 44.778051 
Q 540.263136 43.851356 540.675 42.718729 
Q 541.086864 41.586102 541.601695 40.659407 
Q 542.116525 39.732712 542.597034 39.732712 
Q 543.214831 39.732712 543.849788 40.607924 
Q 544.484746 41.483136 544.948093 42.512797 
Q 545.411441 43.542458 546.08072 44.417669 
Q 546.75 45.292881 547.436441 45.292881 
Q 547.711017 43.782712 548.140042 39.69839 
Q 548.569068 35.614068 549.083898 33.554746 
" clip-path="url(#p86a79b9afd)" style="fill: none; stroke: #000000; stroke-linejoin: miter"/>
   </g>
  </g>
  <g id="axes_35"/>
  <g id="axes_36">
   <g id="patch_29">
    <path d="M 568.716102 36.437797 
L 569.951695 44.778051 
Q 570.054661 45.567458 570.054661 45.60178 
Q 570.054661 45.704746 570.363559 45.704746 
Q 571.22161 45.704746 571.942373 44.778051 
Q 572.663136 43.851356 573.075 42.718729 
Q 573.486864 41.586102 574.001695 40.659407 
Q 574.516525 39.732712 574.997034 39.732712 
Q 575.614831 39.732712 576.249788 40.607924 
Q 576.884746 41.483136 577.348093 42.512797 
Q 577.811441 43.542458 578.48072 44.417669 
Q 579.15 45.292881 579.836441 45.292881 
Q 580.111017 43.782712 580.540042 39.69839 
Q 580.969068 35.614068 581.483898 33.554746 
" clip-path="url(#p4e123c1551)" style="fill: none; stroke: #000000; stroke-linejoin: miter"/>
   </g>
  </g>
  <g id="axes_37">
   <g id="patch_30">
    <path d="M 587.813462 35.932469 
Q 588.413297 35.257655 589.406772 34.826524 
Q 590.400248 34.395393 591.3 34.470372 
Q 591.937324 34.470372 592.42469 34.639076 
Q 592.912055 34.807779 593.230717 34.995228 
Q 593.549379 35.182676 593.774317 35.670041 
Q 593.999255 36.157407 594.111724 36.419834 
Q 594.224193 36.682262 594.280428 37.375821 
Q 594.336662 38.069379 594.355407 38.331807 
Q 594.374152 38.594234 594.355407 39.419007 
Q 594.336662 40.243779 594.336662 40.431228 
Q 594.336662 41.368469 594.167959 43.242952 
Q 593.999255 45.117434 593.999255 46.054676 
Q 593.999255 46.467062 594.05549 46.823214 
Q 594.111724 47.179366 594.205448 47.610497 
Q 594.299172 48.041628 594.336662 48.304055 
L 594.786538 48.528993 
M 588.263338 23.111007 
Q 588.488276 24.798041 588.488276 29.971614 
L 588.488276 42.3432 
L 588.150869 46.841959 
L 587.925931 47.74171 
" clip-path="url(#pf0d20b9ebd)" style="fill: none; stroke: #000000; stroke-linejoin: miter"/>
   </g>
  </g>
  <g id="axes_38">
   <g id="patch_31">
    <path d="M 601.257798 38.160826 
Q 604.230275 39.535596 608.949083 39.721376 
Q 610.472477 39.721376 611.159862 38.550963 
Q 611.847248 37.38055 611.847248 35.82 
Q 611.847248 35.299817 611.754358 34.909679 
Q 611.661468 34.519541 611.419954 34.296606 
Q 611.17844 34.07367 611.011239 33.943624 
Q 610.844037 33.813578 610.398165 33.757844 
Q 609.952294 33.70211 609.747936 33.683532 
Q 609.543578 33.664954 608.967661 33.683532 
Q 608.391743 33.70211 608.168807 33.70211 
Q 606.125229 33.70211 604.638991 35.578486 
Q 603.152752 37.454862 603.152752 39.609908 
Q 603.152752 42.619541 605.084862 44.570229 
Q 607.016972 46.520917 610.063761 46.520917 
Q 612.218807 46.818165 613.742202 44.29156 
" clip-path="url(#p199e9d0cda)" style="fill: none; stroke: #000000; stroke-linejoin: miter"/>
   </g>
  </g>
  <g id="axes_39">
   <g id="patch_32">
    <path d="M 620.213462 32.783338 
Q 620.738317 34.507862 620.869531 36.457324 
Q 621.000745 38.406786 620.925766 40.956083 
Q 620.850786 43.505379 620.888276 44.705048 
L 621.000745 46.054676 
L 621.000745 45.829738 
Q 621.000745 44.667559 620.719572 42.30571 
Q 620.4384 39.943862 620.4384 38.744193 
Q 620.4384 36.419834 621.450621 34.882759 
Q 622.462841 33.345683 624.487283 33.345683 
Q 625.199586 33.345683 625.536993 33.626855 
Q 625.8744 33.908028 626.136828 34.432883 
Q 626.399255 34.957738 626.736662 35.257655 
L 627.186538 36.832221 
" clip-path="url(#p89bd98cc11)" style="fill: none; stroke: #000000; stroke-linejoin: miter"/>
   </g>
  </g>
  <g id="axes_40">
   <g id="patch_33">
    <path d="M 633.657798 38.160826 
Q 636.630275 39.535596 641.349083 39.721376 
Q 642.872477 39.721376 643.559862 38.550963 
Q 644.247248 37.38055 644.247248 35.82 
Q 644.247248 35.299817 644.154358 34.909679 
Q 644.061468 34.519541 643.819954 34.296606 
Q 643.57844 34.07367 643.411239 33.943624 
Q 643.244037 33.813578 642.798165 33.757844 
Q 642.352294 33.70211 642.147936 33.683532 
Q 641.943578 33.664954 641.367661 33.683532 
Q 640.791743 33.70211 640.568807 33.70211 
Q 638.525229 33.70211 637.038991 35.578486 
Q 635.552752 37.454862 635.552752 39.609908 
Q 635.552752 42.619541 637.484862 44.570229 
Q 639.416972 46.520917 642.463761 46.520917 
Q 644.618807 46.818165 646.142202 44.29156 
" clip-path="url(#p5ffde183f8)" style="fill: none; stroke: #000000; stroke-linejoin: miter"/>
   </g>
  </g>
  <g id="axes_41"/>
  <g id="axes_42">
   <g id="patch_34">
    <path d="M 665.916102 36.437797 
L 667.151695 44.778051 
Q 667.254661 45.567458 667.254661 45.60178 
Q 667.254661 45.704746 667.563559 45.704746 
Q 668.42161 45.704746 669.142373 44.778051 
Q 669.863136 43.851356 670.275 42.718729 
Q 670.686864 41.586102 671.201695 40.659407 
Q 671.716525 39.732712 672.197034 39.732712 
Q 672.814831 39.732712 673.449788 40.607924 
Q 674.084746 41.483136 674.548093 42.512797 
Q 675.011441 43.542458 675.68072 44.417669 
Q 676.35 45.292881 677.036441 45.292881 
Q 677.311017 43.782712 677.740042 39.69839 
Q 678.169068 35.614068 678.683898 33.554746 
" clip-path="url(#pffffdb572a)" style="fill: none; stroke: #000000; stroke-linejoin: miter"/>
   </g>
  </g>
  <g id="axes_43">
   <g id="patch_35">
    <path d="M 682.257798 38.160826 
Q 685.230275 39.535596 689.949083 39.721376 
Q 691.472477 39.721376 692.159862 38.550963 
Q 692.847248 37.38055 692.847248 35.82 
Q 692.847248 35.299817 692.754358 34.909679 
Q 692.661468 34.519541 692.419954 34.296606 
Q 692.17844 34.07367 692.011239 33.943624 
Q 691.844037 33.813578 691.398165 33.757844 
Q 690.952294 33.70211 690.747936 33.683532 
Q 690.543578 33.664954 689.967661 33.683532 
Q 689.391743 33.70211 689.168807 33.70211 
Q 687.125229 33.70211 685.638991 35.578486 
Q 684.152752 37.454862 684.152752 39.609908 
Q 684.152752 42.619541 686.084862 44.570229 
Q 688.016972 46.520917 691.063761 46.520917 
Q 693.218807 46.818165 694.742202 44.29156 
" clip-path="url(#p4afadd9043)" style="fill: none; stroke: #000000; stroke-linejoin: miter"/>
   </g>
  </g>
  <g id="axes_44"/>
  <g id="axes_45">
   <g id="patch_36">
    <path d="M 726.156735 34.365306 
Q 726.156735 34.365306 725.660816 34.365306 
Q 724.867347 34.365306 723.379592 34.067755 
Q 721.891837 33.770204 721.098367 33.770204 
Q 718.321224 33.770204 716.387143 35.224898 
Q 714.453061 36.679592 714.453061 39.423673 
Q 714.453061 40.94449 715.940816 42.399184 
Q 717.428571 43.853878 719.362653 44.663878 
Q 721.296735 45.473878 722.78449 45.473878 
Q 723.710204 45.473878 724.40449 45.110204 
Q 725.098776 44.746531 725.842653 44.118367 
Q 726.586531 43.490204 727.148571 43.192653 
L 727.346939 42.696735 
" clip-path="url(#p78145115e5)" style="fill: none; stroke: #000000; stroke-linejoin: miter"/>
   </g>
  </g>
  <g id="axes_46">
   <g id="patch_37">
    <path d="M 742.643923 36.441748 
Q 741.434968 35.094627 737.462687 35.094627 
Q 735.942857 35.094627 735.165672 35.146439 
Q 734.388486 35.198252 733.38678 35.440043 
Q 732.385075 35.681834 731.901493 36.182687 
Q 731.41791 36.683539 731.072495 37.616162 
Q 730.727079 38.548785 730.727079 39.964989 
Q 730.727079 42.037484 732.143284 43.280981 
Q 733.559488 44.524478 735.493817 44.524478 
Q 738.153518 44.524478 740.916844 38.721493 
Q 742.263966 35.854542 742.263966 35.82 
Q 742.609382 35.578209 742.643923 36.441748 
Q 742.643923 37.512537 743.058422 40.362217 
Q 743.472921 43.211898 743.472921 44.524478 
" clip-path="url(#pdd092797e0)" style="fill: none; stroke: #000000; stroke-linejoin: miter"/>
   </g>
  </g>
  <g id="axes_47">
   <g id="patch_38">
    <path d="M 748.838731 37.282097 
L 748.838731 37.844441 
Q 749.101159 39.868883 749.138648 41.312234 
Q 749.176138 42.755586 749.082414 44.667559 
Q 748.98869 46.579531 748.98869 48.191586 
L 749.063669 39.643945 
Q 749.063669 38.144359 750.656979 37.507034 
Q 752.25029 36.86971 753.674897 37.282097 
Q 755.586869 37.844441 756.505366 39.04411 
Q 757.423862 40.243779 757.480097 41.668386 
Q 757.536331 43.092993 757.573821 44.817517 
Q 757.61131 46.542041 757.761269 48.191586 
" clip-path="url(#p4066fc4dfa)" style="fill: none; stroke: #000000; stroke-linejoin: miter"/>
   </g>
  </g>
 </g>
 <defs>
  <clipPath id="pe44bf894ed">
   <rect x="0" y="16.753442" width="16.2" height="38.133117"/>
  </clipPath>
  <clipPath id="p806e984e5b">
   <rect x="17.964248" y="8.64" width="12.671503" height="54.36"/>
  </clipPath>
  <clipPath id="p8f07136127">
   <rect x="32.4" y="9.949956" width="16.2" height="51.740088"/>
  </clipPath>
  <clipPath id="p1c9b179be5">
   <rect x="49.202069" y="8.64" width="14.995862" height="54.36"/>
  </clipPath>
  <clipPath id="p51c68ed375">
   <rect x="81" y="16.179532" width="16.2" height="39.280936"/>
  </clipPath>
  <clipPath id="p75dffa126e">
   <rect x="98.589352" y="8.64" width="13.421297" height="54.36"/>
  </clipPath>
  <clipPath id="pbb228d504a">
   <rect x="114.789352" y="8.64" width="13.421297" height="54.36"/>
  </clipPath>
  <clipPath id="p5b26f13d6f">
   <rect x="135.000745" y="8.64" width="5.39851" height="54.36"/>
  </clipPath>
  <clipPath id="p76ad9a22f3">
   <rect x="167.606938" y="8.64" width="4.986124" height="54.36"/>
  </clipPath>
  <clipPath id="pb34f0cc94a">
   <rect x="179.589352" y="8.64" width="13.421297" height="54.36"/>
  </clipPath>
  <clipPath id="p537e60e144">
   <rect x="210.6" y="10.936525" width="16.2" height="49.766949"/>
  </clipPath>
  <clipPath id="pbeb14f06ad">
   <rect x="227.402069" y="8.64" width="14.995862" height="54.36"/>
  </clipPath>
  <clipPath id="p4a87c51119">
   <rect x="244.389352" y="8.64" width="13.421297" height="54.36"/>
  </clipPath>
  <clipPath id="p2718a27d15">
   <rect x="265.031876" y="8.64" width="4.536248" height="54.36"/>
  </clipPath>
  <clipPath id="p447ccfe754">
   <rect x="276.451945" y="8.64" width="14.09611" height="54.36"/>
  </clipPath>
  <clipPath id="p99950c850c">
   <rect x="309.358055" y="8.64" width="13.08389" height="54.36"/>
  </clipPath>
  <clipPath id="p121aac0fa5">
   <rect x="324" y="8.881927" width="16.2" height="53.876147"/>
  </clipPath>
  <clipPath id="p526354d63c">
   <rect x="358.164248" y="8.64" width="12.671503" height="54.36"/>
  </clipPath>
  <clipPath id="p977e8f1c12">
   <rect x="378.206938" y="8.64" width="4.986124" height="54.36"/>
  </clipPath>
  <clipPath id="pf3dc286cbe">
   <rect x="388.8" y="11.850612" width="16.2" height="47.938776"/>
  </clipPath>
  <clipPath id="p20a7b5ab20">
   <rect x="405" y="8.881927" width="16.2" height="53.876147"/>
  </clipPath>
  <clipPath id="p45f34e1dea">
   <rect x="438.789352" y="8.64" width="13.421297" height="54.36"/>
  </clipPath>
  <clipPath id="p8c4929749e">
   <rect x="454.202069" y="8.64" width="14.995862" height="54.36"/>
  </clipPath>
  <clipPath id="p47c82590d4">
   <rect x="487.782993" y="8.64" width="12.634014" height="54.36"/>
  </clipPath>
  <clipPath id="p4ca8b1f0c5">
   <rect x="503.964248" y="8.64" width="12.671503" height="54.36"/>
  </clipPath>
  <clipPath id="p28461ae6a9">
   <rect x="519.002069" y="8.64" width="14.995862" height="54.36"/>
  </clipPath>
  <clipPath id="p86a79b9afd">
   <rect x="534.6" y="10.936525" width="16.2" height="49.766949"/>
  </clipPath>
  <clipPath id="p4e123c1551">
   <rect x="567" y="10.936525" width="16.2" height="49.766949"/>
  </clipPath>
  <clipPath id="pf0d20b9ebd">
   <rect x="585.938979" y="8.64" width="10.722041" height="54.36"/>
  </clipPath>
  <clipPath id="p199e9d0cda">
   <rect x="599.4" y="8.881927" width="16.2" height="53.876147"/>
  </clipPath>
  <clipPath id="p89bd98cc11">
   <rect x="618.338979" y="8.64" width="10.722041" height="54.36"/>
  </clipPath>
  <clipPath id="p5ffde183f8">
   <rect x="631.8" y="8.881927" width="16.2" height="53.876147"/>
  </clipPath>
  <clipPath id="pffffdb572a">
   <rect x="664.2" y="10.936525" width="16.2" height="49.766949"/>
  </clipPath>
  <clipPath id="p4afadd9043">
   <rect x="680.4" y="8.881927" width="16.2" height="53.876147"/>
  </clipPath>
  <clipPath id="p78145115e5">
   <rect x="712.8" y="11.850612" width="16.2" height="47.938776"/>
  </clipPath>
  <clipPath id="pdd092797e0">
   <rect x="729" y="10.777356" width="16.2" height="50.085288"/>
  </clipPath>
  <clipPath id="p4066fc4dfa">
   <rect x="746.964248" y="8.64" width="12.671503" height="54.36"/>
  </clipPath>
 </defs>
</svg>
