<?xml version="1.0" encoding="utf-8" standalone="no"?>
<!DOCTYPE svg PUBLIC "-//W3C//DTD SVG 1.1//EN"
  "http://www.w3.org/Graphics/SVG/1.1/DTD/svg11.dtd">
<svg xmlns:xlink="http://www.w3.org/1999/xlink" width="108pt" height="72pt" viewBox="0 0 108 72" xmlns="http://www.w3.org/2000/svg" version="1.1">
 <metadata>
  <rdf:RDF xmlns:dc="http://purl.org/dc/elements/1.1/" xmlns:cc="http://creativecommons.org/ns#" xmlns:rdf="http://www.w3.org/1999/02/22-rdf-syntax-ns#">
   <cc:Work>
    <dc:type rdf:resource="http://purl.org/dc/dcmitype/StillImage"/>
    <dc:date>2023-12-21T11:50:13.188738</dc:date>
    <dc:format>image/svg+xml</dc:format>
    <dc:creator>
     <cc:Agent>
      <dc:title>Matplotlib v3.5.1, https://matplotlib.org/</dc:title>
     </cc:Agent>
    </dc:creator>
   </cc:Work>
  </rdf:RDF>
 </metadata>
 <defs>
  <style type="text/css">*{stroke-linejoin: round; stroke-linecap: butt}</style>
 </defs>
 <g id="figure_1">
  <g id="patch_1">
   <path d="M 0 72 
L 108 72 
L 108 0 
L 0 0 
z
" style="fill: #8fff9f"/>
  </g>
  <g id="axes_1">
   <g id="patch_2">
    <path d="M 4.613462 35.932469 
Q 5.213297 35.257655 6.206772 34.826524 
Q 7.200248 34.395393 8.1 34.470372 
Q 8.737324 34.470372 9.22469 34.639076 
Q 9.712055 34.807779 10.030717 34.995228 
Q 10.349379 35.182676 10.574317 35.670041 
Q 10.799255 36.157407 10.911724 36.419834 
Q 11.024193 36.682262 11.080428 37.375821 
Q 11.136662 38.069379 11.155407 38.331807 
Q 11.174152 38.594234 11.155407 39.419007 
Q 11.136662 40.243779 11.136662 40.431228 
Q 11.136662 41.368469 10.967959 43.242952 
Q 10.799255 45.117434 10.799255 46.054676 
Q 10.799255 46.467062 10.85549 46.823214 
Q 10.911724 47.179366 11.005448 47.610497 
Q 11.099172 48.041628 11.136662 48.304055 
L 11.586538 48.528993 
M 5.063338 23.111007 
Q 5.288276 24.798041 5.288276 29.971614 
L 5.288276 42.3432 
L 4.950869 46.841959 
L 4.725931 47.74171 
" clip-path="url(#p4fec2c7ca3)" style="fill: none; stroke: #000000; stroke-linejoin: miter"/>
   </g>
  </g>
  <g id="axes_2">
   <g id="patch_3">
    <path d="M 18.057798 38.160826 
Q 21.030275 39.535596 25.749083 39.721376 
Q 27.272477 39.721376 27.959862 38.550963 
Q 28.647248 37.38055 28.647248 35.82 
Q 28.647248 35.299817 28.554358 34.909679 
Q 28.461468 34.519541 28.219954 34.296606 
Q 27.97844 34.07367 27.811239 33.943624 
Q 27.644037 33.813578 27.198165 33.757844 
Q 26.752294 33.70211 26.547936 33.683532 
Q 26.343578 33.664954 25.767661 33.683532 
Q 25.191743 33.70211 24.968807 33.70211 
Q 22.925229 33.70211 21.438991 35.578486 
Q 19.952752 37.454862 19.952752 39.609908 
Q 19.952752 42.619541 21.884862 44.570229 
Q 23.816972 46.520917 26.863761 46.520917 
Q 29.018807 46.818165 30.542202 44.29156 
" clip-path="url(#p3d91fbcdd4)" style="fill: none; stroke: #000000; stroke-linejoin: miter"/>
   </g>
  </g>
  <g id="axes_3">
   <g id="patch_4">
    <path d="M 37.013462 32.783338 
Q 37.538317 34.507862 37.669531 36.457324 
Q 37.800745 38.406786 37.725766 40.956083 
Q 37.650786 43.505379 37.688276 44.705048 
L 37.800745 46.054676 
L 37.800745 45.829738 
Q 37.800745 44.667559 37.519572 42.30571 
Q 37.2384 39.943862 37.2384 38.744193 
Q 37.2384 36.419834 38.250621 34.882759 
Q 39.262841 33.345683 41.287283 33.345683 
Q 41.999586 33.345683 42.336993 33.626855 
Q 42.6744 33.908028 42.936828 34.432883 
Q 43.199255 34.957738 43.536662 35.257655 
L 43.986538 36.832221 
" clip-path="url(#p31a44857a3)" style="fill: none; stroke: #000000; stroke-linejoin: miter"/>
   </g>
  </g>
  <g id="axes_4">
   <g id="patch_5">
    <path d="M 50.457798 38.160826 
Q 53.430275 39.535596 58.149083 39.721376 
Q 59.672477 39.721376 60.359862 38.550963 
Q 61.047248 37.38055 61.047248 35.82 
Q 61.047248 35.299817 60.954358 34.909679 
Q 60.861468 34.519541 60.619954 34.296606 
Q 60.37844 34.07367 60.211239 33.943624 
Q 60.044037 33.813578 59.598165 33.757844 
Q 59.152294 33.70211 58.947936 33.683532 
Q 58.743578 33.664954 58.167661 33.683532 
Q 57.591743 33.70211 57.368807 33.70211 
Q 55.325229 33.70211 53.838991 35.578486 
Q 52.352752 37.454862 52.352752 39.609908 
Q 52.352752 42.619541 54.284862 44.570229 
Q 56.216972 46.520917 59.263761 46.520917 
Q 61.418807 46.818165 62.942202 44.29156 
" clip-path="url(#pe442dfd647)" style="fill: none; stroke: #000000; stroke-linejoin: miter"/>
   </g>
  </g>
  <g id="axes_5">
   <g id="patch_6">
    <path d="M 71.175476 45.379862 
Q 70.913048 45.304883 70.631876 45.64229 
Q 70.350703 45.979697 70.425683 46.279614 
Q 70.425683 46.429572 70.875559 46.429572 
Q 71.025517 46.467062 71.137986 46.392083 
Q 71.250455 46.317103 71.250455 46.129655 
M 67.951366 26.934952 
Q 70.875559 25.922731 73.199917 26.0352 
Q 75.224359 26.0352 76.536497 27.197379 
Q 77.848634 28.359559 77.848634 30.309021 
Q 77.848634 32.745848 76.255324 34.001752 
Q 74.662014 35.257655 72.150207 35.257655 
L 70.650621 35.257655 
Q 70.500662 35.257655 70.463172 36.194897 
Q 70.425683 37.132138 70.463172 38.069379 
L 70.500662 39.006621 
L 70.500662 41.405959 
L 70.800579 42.230731 
" clip-path="url(#p5299ddac01)" style="fill: none; stroke: #000000; stroke-linejoin: miter"/>
   </g>
  </g>
  <g id="axes_6">
   <g id="patch_7">
    <path d="M 89.624855 27.009931 
Q 89.699834 27.347338 89.774814 28.265834 
Q 89.849793 29.184331 89.999752 29.634207 
L 89.924772 31.058814 
M 88.275228 27.309848 
Q 88.237738 27.309848 88.200248 27.534786 
Q 88.237738 27.684745 88.350207 28.828179 
Q 88.462676 29.971614 88.725103 30.533959 
" clip-path="url(#pb02d27392b)" style="fill: none; stroke: #000000; stroke-linejoin: miter"/>
   </g>
  </g>
 </g>
 <defs>
  <clipPath id="p4fec2c7ca3">
   <rect x="2.738979" y="8.64" width="10.722041" height="54.36"/>
  </clipPath>
  <clipPath id="p3d91fbcdd4">
   <rect x="16.2" y="8.881927" width="16.2" height="53.876147"/>
  </clipPath>
  <clipPath id="p31a44857a3">
   <rect x="35.138979" y="8.64" width="10.722041" height="54.36"/>
  </clipPath>
  <clipPath id="pe442dfd647">
   <rect x="48.6" y="8.881927" width="16.2" height="53.876147"/>
  </clipPath>
  <clipPath id="p5299ddac01">
   <rect x="66.076883" y="8.64" width="13.646234" height="54.36"/>
  </clipPath>
  <clipPath id="pb02d27392b">
   <rect x="86.325766" y="8.64" width="5.548469" height="54.36"/>
  </clipPath>
 </defs>
</svg>
