<?xml version="1.0" encoding="utf-8" standalone="no"?>
<!DOCTYPE svg PUBLIC "-//W3C//DTD SVG 1.1//EN"
  "http://www.w3.org/Graphics/SVG/1.1/DTD/svg11.dtd">
<svg xmlns:xlink="http://www.w3.org/1999/xlink" width="738pt" height="72pt" viewBox="0 0 738 72" xmlns="http://www.w3.org/2000/svg" version="1.1">
 <metadata>
  <rdf:RDF xmlns:dc="http://purl.org/dc/elements/1.1/" xmlns:cc="http://creativecommons.org/ns#" xmlns:rdf="http://www.w3.org/1999/02/22-rdf-syntax-ns#">
   <cc:Work>
    <dc:type rdf:resource="http://purl.org/dc/dcmitype/StillImage"/>
    <dc:date>2023-12-21T11:49:53.958935</dc:date>
    <dc:format>image/svg+xml</dc:format>
    <dc:creator>
     <cc:Agent>
      <dc:title>Matplotlib v3.5.1, https://matplotlib.org/</dc:title>
     </cc:Agent>
    </dc:creator>
   </cc:Work>
  </rdf:RDF>
 </metadata>
 <defs>
  <style type="text/css">*{stroke-linejoin: round; stroke-linecap: butt}</style>
 </defs>
 <g id="figure_1">
  <g id="patch_1">
   <path d="M 0 72 
L 738 72 
L 738 0 
L 0 0 
z
" style="fill: #8fff9f"/>
  </g>
  <g id="axes_1">
   <g id="patch_2">
    <path d="M 4.781498 38.139383 
Q 4.781498 38.139383 6.815419 38.139383 
Q 7.636123 37.889604 9.955507 38.085859 
Q 12.27489 38.282115 13.238326 38.139383 
M 1.784141 46.489163 
L 1.891189 46.168018 
Q 1.891189 45.275947 3.818062 40.797753 
Q 5.744934 36.319559 7.707489 32.251718 
Q 9.670044 28.183877 9.812775 28.183877 
Q 10.669163 28.183877 11.364978 29.646872 
Q 12.060793 31.109868 12.52467 33.393568 
Q 12.988546 35.677269 13.327533 37.943128 
Q 13.66652 40.208987 13.951982 42.332115 
Q 14.237445 44.455242 14.415859 45.097533 
" clip-path="url(#p6592b8bf51)" style="fill: none; stroke: #000000; stroke-linejoin: miter"/>
   </g>
  </g>
  <g id="axes_2">
   <g id="patch_3">
    <path d="M 19.520069 39.868883 
L 19.520069 39.419007 
Q 19.520069 37.769462 21.263338 36.682262 
Q 23.006607 35.595062 24.693641 35.595062 
Q 26.905531 35.595062 28.273903 36.794731 
Q 29.642276 37.9944 29.642276 40.20629 
Q 29.642276 42.30571 27.824028 43.336676 
Q 26.005779 44.367641 23.79389 44.367641 
Q 23.119076 44.367641 22.612966 44.255172 
Q 22.106855 44.142703 21.488276 43.917766 
Q 20.869697 43.692828 20.419821 43.580359 
L 19.295131 42.568138 
M 18.957724 36.832221 
Q 19.4076 38.444276 19.670028 40.262524 
Q 19.932455 42.080772 19.98869 43.749062 
Q 20.044924 45.417352 20.082414 47.27309 
Q 20.119903 49.128828 20.082414 50.778372 
L 19.969945 57.863917 
" clip-path="url(#p04cb38e90a)" style="fill: none; stroke: #000000; stroke-linejoin: miter"/>
   </g>
  </g>
  <g id="axes_3">
   <g id="patch_4">
    <path d="M 34.257798 38.160826 
Q 37.230275 39.535596 41.949083 39.721376 
Q 43.472477 39.721376 44.159862 38.550963 
Q 44.847248 37.38055 44.847248 35.82 
Q 44.847248 35.299817 44.754358 34.909679 
Q 44.661468 34.519541 44.419954 34.296606 
Q 44.17844 34.07367 44.011239 33.943624 
Q 43.844037 33.813578 43.398165 33.757844 
Q 42.952294 33.70211 42.747936 33.683532 
Q 42.543578 33.664954 41.967661 33.683532 
Q 41.391743 33.70211 41.168807 33.70211 
Q 39.125229 33.70211 37.638991 35.578486 
Q 36.152752 37.454862 36.152752 39.609908 
Q 36.152752 42.619541 38.084862 44.570229 
Q 40.016972 46.520917 43.063761 46.520917 
Q 45.218807 46.818165 46.742202 44.29156 
" clip-path="url(#pe72e04888a)" style="fill: none; stroke: #000000; stroke-linejoin: miter"/>
   </g>
  </g>
  <g id="axes_4">
   <g id="patch_5">
    <path d="M 60.299007 34.920248 
Q 59.436745 36.007448 56.325103 40.018841 
Q 53.213462 44.030234 51.526428 46.054676 
M 52.426179 36.044938 
Q 54.300662 37.319586 56.793724 40.843614 
Q 59.286786 44.367641 60.861352 45.6048 
L 61.873572 45.942207 
" clip-path="url(#p4b59dc08f0)" style="fill: none; stroke: #000000; stroke-linejoin: miter"/>
   </g>
  </g>
  <g id="axes_5"/>
  <g id="axes_6">
   <g id="patch_6">
    <path d="M 82.784141 38.85304 
L 83.212335 38.85304 
Q 84.03304 38.85304 84.996476 38.745991 
Q 85.959912 38.638943 87.119604 38.460529 
Q 88.279295 38.282115 88.885903 38.210749 
L 95.415859 35.427489 
M 95.094714 25.793128 
Q 94.809251 25.721762 93.774449 25.275727 
Q 92.739648 24.829692 92.097357 24.93674 
Q 91.455066 24.93674 90.937665 25.150837 
Q 90.420264 25.364934 90.081278 25.793128 
Q 89.742291 26.221322 89.47467 26.685198 
Q 89.207048 27.149075 89.064317 27.862731 
Q 88.921586 28.576388 88.814537 29.129471 
Q 88.707489 29.682555 88.689648 30.50326 
Q 88.671806 31.323965 88.653965 31.77 
Q 88.636123 32.216035 88.653965 32.965374 
Q 88.671806 33.714714 88.671806 33.928811 
Q 88.671806 36.605022 89.367621 41.850396 
Q 90.063436 47.095771 90.063436 49.771982 
Q 89.99207 50.057445 89.956388 50.681894 
Q 89.920705 51.306344 89.813656 51.805903 
Q 89.706608 52.305463 89.421145 52.555242 
" clip-path="url(#pfc4342bbb5)" style="fill: none; stroke: #000000; stroke-linejoin: miter"/>
   </g>
  </g>
  <g id="axes_7">
   <g id="patch_7">
    <path d="M 101.813462 32.783338 
Q 102.338317 34.507862 102.469531 36.457324 
Q 102.600745 38.406786 102.525766 40.956083 
Q 102.450786 43.505379 102.488276 44.705048 
L 102.600745 46.054676 
L 102.600745 45.829738 
Q 102.600745 44.667559 102.319572 42.30571 
Q 102.0384 39.943862 102.0384 38.744193 
Q 102.0384 36.419834 103.050621 34.882759 
Q 104.062841 33.345683 106.087283 33.345683 
Q 106.799586 33.345683 107.136993 33.626855 
Q 107.4744 33.908028 107.736828 34.432883 
Q 107.999255 34.957738 108.336662 35.257655 
L 108.786538 36.832221 
" clip-path="url(#p286da10649)" style="fill: none; stroke: #000000; stroke-linejoin: miter"/>
   </g>
  </g>
  <g id="axes_8">
   <g id="patch_8">
    <path d="M 127.043923 36.441748 
Q 125.834968 35.094627 121.862687 35.094627 
Q 120.342857 35.094627 119.565672 35.146439 
Q 118.788486 35.198252 117.78678 35.440043 
Q 116.785075 35.681834 116.301493 36.182687 
Q 115.81791 36.683539 115.472495 37.616162 
Q 115.127079 38.548785 115.127079 39.964989 
Q 115.127079 42.037484 116.543284 43.280981 
Q 117.959488 44.524478 119.893817 44.524478 
Q 122.553518 44.524478 125.316844 38.721493 
Q 126.663966 35.854542 126.663966 35.82 
Q 127.009382 35.578209 127.043923 36.441748 
Q 127.043923 37.512537 127.458422 40.362217 
Q 127.872921 43.211898 127.872921 44.524478 
" clip-path="url(#pbe81a735d7)" style="fill: none; stroke: #000000; stroke-linejoin: miter"/>
   </g>
  </g>
  <g id="axes_9">
   <g id="patch_9">
    <path d="M 131.408036 34.879821 
Q 131.914286 36.073125 132.203571 42.871339 
Q 132.348214 46.632054 132.6375 46.632054 
Q 132.673661 46.632054 132.709821 46.595893 
Q 133.216071 46.017321 133.270312 44.588973 
Q 133.324554 43.160625 133.107589 41.750357 
Q 132.890625 40.340089 132.6375 38.712857 
Q 132.384375 37.085625 132.384375 36.398571 
Q 132.384375 35.169107 132.764062 33.939643 
Q 133.14375 32.710179 134.120089 32.710179 
Q 135.349554 32.710179 136.072768 34.355491 
Q 136.795982 36.000804 136.958705 37.971563 
Q 137.121429 39.942321 137.229911 41.587634 
Q 137.338393 43.232946 137.483036 43.232946 
Q 137.627679 43.232946 137.71808 41.497232 
Q 137.808482 39.761518 137.935045 37.700357 
Q 138.061607 35.639196 138.784821 33.903482 
Q 139.508036 32.167768 140.7375 32.167768 
Q 142.292411 33.035625 142.961384 34.771339 
Q 143.630357 36.507054 143.594196 38.188527 
Q 143.558036 39.87 143.576116 42.057723 
Q 143.594196 44.245446 143.991964 45.511071 
" clip-path="url(#p45ec861450)" style="fill: none; stroke: #000000; stroke-linejoin: miter"/>
   </g>
  </g>
  <g id="axes_10">
   <g id="patch_10">
    <path d="M 147.657798 38.160826 
Q 150.630275 39.535596 155.349083 39.721376 
Q 156.872477 39.721376 157.559862 38.550963 
Q 158.247248 37.38055 158.247248 35.82 
Q 158.247248 35.299817 158.154358 34.909679 
Q 158.061468 34.519541 157.819954 34.296606 
Q 157.57844 34.07367 157.411239 33.943624 
Q 157.244037 33.813578 156.798165 33.757844 
Q 156.352294 33.70211 156.147936 33.683532 
Q 155.943578 33.664954 155.367661 33.683532 
Q 154.791743 33.70211 154.568807 33.70211 
Q 152.525229 33.70211 151.038991 35.578486 
Q 149.552752 37.454862 149.552752 39.609908 
Q 149.552752 42.619541 151.484862 44.570229 
Q 153.416972 46.520917 156.463761 46.520917 
Q 158.618807 46.818165 160.142202 44.29156 
" clip-path="url(#paf4da7f415)" style="fill: none; stroke: #000000; stroke-linejoin: miter"/>
   </g>
  </g>
  <g id="axes_11"/>
  <g id="axes_12">
   <g id="patch_11">
    <path d="M 182.813462 35.932469 
Q 183.413297 35.257655 184.406772 34.826524 
Q 185.400248 34.395393 186.3 34.470372 
Q 186.937324 34.470372 187.42469 34.639076 
Q 187.912055 34.807779 188.230717 34.995228 
Q 188.549379 35.182676 188.774317 35.670041 
Q 188.999255 36.157407 189.111724 36.419834 
Q 189.224193 36.682262 189.280428 37.375821 
Q 189.336662 38.069379 189.355407 38.331807 
Q 189.374152 38.594234 189.355407 39.419007 
Q 189.336662 40.243779 189.336662 40.431228 
Q 189.336662 41.368469 189.167959 43.242952 
Q 188.999255 45.117434 188.999255 46.054676 
Q 188.999255 46.467062 189.05549 46.823214 
Q 189.111724 47.179366 189.205448 47.610497 
Q 189.299172 48.041628 189.336662 48.304055 
L 189.786538 48.528993 
M 183.263338 23.111007 
Q 183.488276 24.798041 183.488276 29.971614 
L 183.488276 42.3432 
L 183.150869 46.841959 
L 182.925931 47.74171 
" clip-path="url(#pc0a080425f)" style="fill: none; stroke: #000000; stroke-linejoin: miter"/>
   </g>
  </g>
  <g id="axes_13">
   <g id="patch_12">
    <path d="M 205.7616 35.032717 
Q 204.71189 34.582841 203.737159 34.69531 
Q 200.700497 35.032717 198.788524 36.701007 
Q 196.876552 38.369297 196.876552 41.330979 
Q 196.876552 43.917766 198.882248 45.6048 
Q 200.887945 47.291834 203.512221 47.291834 
Q 205.874069 47.291834 206.998759 45.361117 
Q 208.123448 43.4304 208.123448 40.881103 
Q 208.123448 39.643945 207.711062 38.706703 
Q 207.298676 37.769462 206.773821 37.300841 
Q 206.248966 36.832221 205.499172 36.119917 
Q 204.749379 35.407614 204.299503 34.69531 
L 203.062345 34.245434 
" clip-path="url(#pa4b8add430)" style="fill: none; stroke: #000000; stroke-linejoin: miter"/>
   </g>
  </g>
  <g id="axes_14">
   <g id="patch_13">
    <path d="M 214.088772 35.145186 
Q 214.088772 35.145186 214.088772 35.595062 
Q 214.088772 36.269876 213.976303 37.619503 
Q 213.863834 38.969131 213.863834 39.643945 
Q 213.863834 41.930814 215.100993 43.599103 
Q 216.338152 45.267393 218.475062 45.267393 
Q 219.862179 45.154924 220.630717 43.917766 
Q 221.399255 42.680607 221.549214 41.237255 
Q 221.699172 39.793903 221.9616 37.9944 
Q 222.224028 36.194897 222.636414 35.370124 
Q 222.786372 35.070207 222.786372 35.670041 
Q 222.786372 36.269876 222.523945 38.706703 
Q 222.299007 41.031062 222.299007 41.555917 
Q 222.149048 42.643117 222.486455 43.767807 
Q 222.823862 44.892497 223.536166 45.6048 
" clip-path="url(#p5f8a11d249)" style="fill: none; stroke: #000000; stroke-linejoin: miter"/>
   </g>
  </g>
  <g id="axes_15">
   <g id="patch_14">
    <path d="M 230.457476 43.917766 
Q 230.757393 44.180193 231.769614 45.154924 
Q 232.781834 46.129655 233.344179 46.560786 
Q 233.906524 46.991917 234.93749 47.385559 
Q 235.968455 47.7792 236.980676 47.629241 
Q 237.65549 47.629241 238.12411 47.404303 
Q 238.592731 47.179366 238.817669 46.879448 
Q 239.042607 46.579531 239.173821 45.979697 
Q 239.305034 45.379862 239.323779 44.967476 
Q 239.342524 44.55509 239.342524 43.805297 
Q 239.342524 42.718097 238.442772 42.043283 
Q 237.543021 41.368469 236.249628 41.031062 
Q 234.956234 40.693655 233.662841 40.300014 
Q 232.369448 39.906372 231.469697 38.987876 
Q 230.569945 38.069379 230.569945 36.607283 
Q 230.569945 36.082428 230.738648 35.726276 
Q 230.907352 35.370124 231.300993 35.145186 
Q 231.694634 34.920248 231.975807 34.807779 
Q 232.256979 34.69531 232.913048 34.639076 
Q 233.569117 34.582841 233.756566 34.582841 
Q 233.944014 34.582841 234.618828 34.582841 
Q 235.818497 34.582841 236.399586 34.995228 
Q 236.980676 35.407614 237.299338 36.026193 
Q 237.618 36.644772 237.880428 36.832221 
" clip-path="url(#p14e26b90af)" style="fill: none; stroke: #000000; stroke-linejoin: miter"/>
   </g>
  </g>
  <g id="axes_16">
   <g id="patch_15">
    <path d="M 244.857798 38.160826 
Q 247.830275 39.535596 252.549083 39.721376 
Q 254.072477 39.721376 254.759862 38.550963 
Q 255.447248 37.38055 255.447248 35.82 
Q 255.447248 35.299817 255.354358 34.909679 
Q 255.261468 34.519541 255.019954 34.296606 
Q 254.77844 34.07367 254.611239 33.943624 
Q 254.444037 33.813578 253.998165 33.757844 
Q 253.552294 33.70211 253.347936 33.683532 
Q 253.143578 33.664954 252.567661 33.683532 
Q 251.991743 33.70211 251.768807 33.70211 
Q 249.725229 33.70211 248.238991 35.578486 
Q 246.752752 37.454862 246.752752 39.609908 
Q 246.752752 42.619541 248.684862 44.570229 
Q 250.616972 46.520917 253.663761 46.520917 
Q 255.818807 46.818165 257.342202 44.29156 
" clip-path="url(#pd5d232bd81)" style="fill: none; stroke: #000000; stroke-linejoin: miter"/>
   </g>
  </g>
  <g id="axes_17">
   <g id="patch_16">
    <path d="M 262.857476 43.917766 
Q 263.157393 44.180193 264.169614 45.154924 
Q 265.181834 46.129655 265.744179 46.560786 
Q 266.306524 46.991917 267.33749 47.385559 
Q 268.368455 47.7792 269.380676 47.629241 
Q 270.05549 47.629241 270.52411 47.404303 
Q 270.992731 47.179366 271.217669 46.879448 
Q 271.442607 46.579531 271.573821 45.979697 
Q 271.705034 45.379862 271.723779 44.967476 
Q 271.742524 44.55509 271.742524 43.805297 
Q 271.742524 42.718097 270.842772 42.043283 
Q 269.943021 41.368469 268.649628 41.031062 
Q 267.356234 40.693655 266.062841 40.300014 
Q 264.769448 39.906372 263.869697 38.987876 
Q 262.969945 38.069379 262.969945 36.607283 
Q 262.969945 36.082428 263.138648 35.726276 
Q 263.307352 35.370124 263.700993 35.145186 
Q 264.094634 34.920248 264.375807 34.807779 
Q 264.656979 34.69531 265.313048 34.639076 
Q 265.969117 34.582841 266.156566 34.582841 
Q 266.344014 34.582841 267.018828 34.582841 
Q 268.218497 34.582841 268.799586 34.995228 
Q 269.380676 35.407614 269.699338 36.026193 
Q 270.018 36.644772 270.280428 36.832221 
" clip-path="url(#p1294796183)" style="fill: none; stroke: #000000; stroke-linejoin: miter"/>
   </g>
  </g>
  <g id="axes_18"/>
  <g id="axes_19">
   <g id="patch_17">
    <path d="M 295.257476 43.917766 
Q 295.557393 44.180193 296.569614 45.154924 
Q 297.581834 46.129655 298.144179 46.560786 
Q 298.706524 46.991917 299.73749 47.385559 
Q 300.768455 47.7792 301.780676 47.629241 
Q 302.45549 47.629241 302.92411 47.404303 
Q 303.392731 47.179366 303.617669 46.879448 
Q 303.842607 46.579531 303.973821 45.979697 
Q 304.105034 45.379862 304.123779 44.967476 
Q 304.142524 44.55509 304.142524 43.805297 
Q 304.142524 42.718097 303.242772 42.043283 
Q 302.343021 41.368469 301.049628 41.031062 
Q 299.756234 40.693655 298.462841 40.300014 
Q 297.169448 39.906372 296.269697 38.987876 
Q 295.369945 38.069379 295.369945 36.607283 
Q 295.369945 36.082428 295.538648 35.726276 
Q 295.707352 35.370124 296.100993 35.145186 
Q 296.494634 34.920248 296.775807 34.807779 
Q 297.056979 34.69531 297.713048 34.639076 
Q 298.369117 34.582841 298.556566 34.582841 
Q 298.744014 34.582841 299.418828 34.582841 
Q 300.618497 34.582841 301.199586 34.995228 
Q 301.780676 35.407614 302.099338 36.026193 
Q 302.418 36.644772 302.680428 36.832221 
" clip-path="url(#pe6a597d2eb)" style="fill: none; stroke: #000000; stroke-linejoin: miter"/>
   </g>
  </g>
  <g id="axes_20">
   <g id="patch_18">
    <path d="M 311.063834 37.95691 
L 311.738648 37.95691 
Q 312.450952 37.95691 313.238234 37.881931 
Q 314.025517 37.806952 314.981503 37.675738 
Q 315.93749 37.544524 316.462345 37.507034 
L 320.736166 35.82 
M 316.687283 30.42149 
L 316.687283 31.43371 
Q 316.687283 33.383172 316.012469 37.207117 
Q 315.337655 41.031062 315.337655 43.018014 
Q 315.337655 43.805297 315.337655 44.105214 
Q 315.337655 44.405131 315.431379 45.042455 
Q 315.525103 45.679779 315.712552 45.960952 
Q 315.9 46.242124 316.293641 46.485807 
Q 316.687283 46.72949 317.249628 46.72949 
Q 317.362097 46.692 317.680759 46.72949 
Q 317.999421 46.766979 318.186869 46.710745 
Q 318.374317 46.65451 318.374317 46.392083 
" clip-path="url(#p1fbf7460d2)" style="fill: none; stroke: #000000; stroke-linejoin: miter"/>
   </g>
  </g>
  <g id="axes_21">
   <g id="patch_19">
    <path d="M 337.643923 36.441748 
Q 336.434968 35.094627 332.462687 35.094627 
Q 330.942857 35.094627 330.165672 35.146439 
Q 329.388486 35.198252 328.38678 35.440043 
Q 327.385075 35.681834 326.901493 36.182687 
Q 326.41791 36.683539 326.072495 37.616162 
Q 325.727079 38.548785 325.727079 39.964989 
Q 325.727079 42.037484 327.143284 43.280981 
Q 328.559488 44.524478 330.493817 44.524478 
Q 333.153518 44.524478 335.916844 38.721493 
Q 337.263966 35.854542 337.263966 35.82 
Q 337.609382 35.578209 337.643923 36.441748 
Q 337.643923 37.512537 338.058422 40.362217 
Q 338.472921 43.211898 338.472921 44.524478 
" clip-path="url(#p60e6a378ce)" style="fill: none; stroke: #000000; stroke-linejoin: miter"/>
   </g>
  </g>
  <g id="axes_22">
   <g id="patch_20">
    <path d="M 344.813462 32.783338 
Q 345.338317 34.507862 345.469531 36.457324 
Q 345.600745 38.406786 345.525766 40.956083 
Q 345.450786 43.505379 345.488276 44.705048 
L 345.600745 46.054676 
L 345.600745 45.829738 
Q 345.600745 44.667559 345.319572 42.30571 
Q 345.0384 39.943862 345.0384 38.744193 
Q 345.0384 36.419834 346.050621 34.882759 
Q 347.062841 33.345683 349.087283 33.345683 
Q 349.799586 33.345683 350.136993 33.626855 
Q 350.4744 33.908028 350.736828 34.432883 
Q 350.999255 34.957738 351.336662 35.257655 
L 351.786538 36.832221 
" clip-path="url(#p107ba2823d)" style="fill: none; stroke: #000000; stroke-linejoin: miter"/>
   </g>
  </g>
  <g id="axes_23">
   <g id="patch_21">
    <path d="M 359.663834 37.95691 
L 360.338648 37.95691 
Q 361.050952 37.95691 361.838234 37.881931 
Q 362.625517 37.806952 363.581503 37.675738 
Q 364.53749 37.544524 365.062345 37.507034 
L 369.336166 35.82 
M 365.287283 30.42149 
L 365.287283 31.43371 
Q 365.287283 33.383172 364.612469 37.207117 
Q 363.937655 41.031062 363.937655 43.018014 
Q 363.937655 43.805297 363.937655 44.105214 
Q 363.937655 44.405131 364.031379 45.042455 
Q 364.125103 45.679779 364.312552 45.960952 
Q 364.5 46.242124 364.893641 46.485807 
Q 365.287283 46.72949 365.849628 46.72949 
Q 365.962097 46.692 366.280759 46.72949 
Q 366.599421 46.766979 366.786869 46.710745 
Q 366.974317 46.65451 366.974317 46.392083 
" clip-path="url(#pbf74eeab36)" style="fill: none; stroke: #000000; stroke-linejoin: miter"/>
   </g>
  </g>
  <g id="axes_24"/>
  <g id="axes_25">
   <g id="patch_22">
    <path d="M 392.063834 37.95691 
L 392.738648 37.95691 
Q 393.450952 37.95691 394.238234 37.881931 
Q 395.025517 37.806952 395.981503 37.675738 
Q 396.93749 37.544524 397.462345 37.507034 
L 401.736166 35.82 
M 397.687283 30.42149 
L 397.687283 31.43371 
Q 397.687283 33.383172 397.012469 37.207117 
Q 396.337655 41.031062 396.337655 43.018014 
Q 396.337655 43.805297 396.337655 44.105214 
Q 396.337655 44.405131 396.431379 45.042455 
Q 396.525103 45.679779 396.712552 45.960952 
Q 396.9 46.242124 397.293641 46.485807 
Q 397.687283 46.72949 398.249628 46.72949 
Q 398.362097 46.692 398.680759 46.72949 
Q 398.999421 46.766979 399.186869 46.710745 
Q 399.374317 46.65451 399.374317 46.392083 
" clip-path="url(#p83a498745d)" style="fill: none; stroke: #000000; stroke-linejoin: miter"/>
   </g>
  </g>
  <g id="axes_26">
   <g id="patch_23">
    <path d="M 416.3616 35.032717 
Q 415.31189 34.582841 414.337159 34.69531 
Q 411.300497 35.032717 409.388524 36.701007 
Q 407.476552 38.369297 407.476552 41.330979 
Q 407.476552 43.917766 409.482248 45.6048 
Q 411.487945 47.291834 414.112221 47.291834 
Q 416.474069 47.291834 417.598759 45.361117 
Q 418.723448 43.4304 418.723448 40.881103 
Q 418.723448 39.643945 418.311062 38.706703 
Q 417.898676 37.769462 417.373821 37.300841 
Q 416.848966 36.832221 416.099172 36.119917 
Q 415.349379 35.407614 414.899503 34.69531 
L 413.662345 34.245434 
" clip-path="url(#pa7a0b85d16)" style="fill: none; stroke: #000000; stroke-linejoin: miter"/>
   </g>
  </g>
  <g id="axes_27"/>
  <g id="axes_28">
   <g id="patch_24">
    <path d="M 439.257798 38.160826 
Q 442.230275 39.535596 446.949083 39.721376 
Q 448.472477 39.721376 449.159862 38.550963 
Q 449.847248 37.38055 449.847248 35.82 
Q 449.847248 35.299817 449.754358 34.909679 
Q 449.661468 34.519541 449.419954 34.296606 
Q 449.17844 34.07367 449.011239 33.943624 
Q 448.844037 33.813578 448.398165 33.757844 
Q 447.952294 33.70211 447.747936 33.683532 
Q 447.543578 33.664954 446.967661 33.683532 
Q 446.391743 33.70211 446.168807 33.70211 
Q 444.125229 33.70211 442.638991 35.578486 
Q 441.152752 37.454862 441.152752 39.609908 
Q 441.152752 42.619541 443.084862 44.570229 
Q 445.016972 46.520917 448.063761 46.520917 
Q 450.218807 46.818165 451.742202 44.29156 
" clip-path="url(#p6d540147fa)" style="fill: none; stroke: #000000; stroke-linejoin: miter"/>
   </g>
  </g>
  <g id="axes_29">
   <g id="patch_25">
    <path d="M 455.408036 34.879821 
Q 455.914286 36.073125 456.203571 42.871339 
Q 456.348214 46.632054 456.6375 46.632054 
Q 456.673661 46.632054 456.709821 46.595893 
Q 457.216071 46.017321 457.270313 44.588973 
Q 457.324554 43.160625 457.107589 41.750357 
Q 456.890625 40.340089 456.6375 38.712857 
Q 456.384375 37.085625 456.384375 36.398571 
Q 456.384375 35.169107 456.764063 33.939643 
Q 457.14375 32.710179 458.120089 32.710179 
Q 459.349554 32.710179 460.072768 34.355491 
Q 460.795982 36.000804 460.958705 37.971563 
Q 461.121429 39.942321 461.229911 41.587634 
Q 461.338393 43.232946 461.483036 43.232946 
Q 461.627679 43.232946 461.71808 41.497232 
Q 461.808482 39.761518 461.935045 37.700357 
Q 462.061607 35.639196 462.784821 33.903482 
Q 463.508036 32.167768 464.7375 32.167768 
Q 466.292411 33.035625 466.961384 34.771339 
Q 467.630357 36.507054 467.594196 38.188527 
Q 467.558036 39.87 467.576116 42.057723 
Q 467.594196 44.245446 467.991964 45.511071 
" clip-path="url(#p4e3cc5b459)" style="fill: none; stroke: #000000; stroke-linejoin: miter"/>
   </g>
  </g>
  <g id="axes_30">
   <g id="patch_26">
    <path d="M 471.657798 38.160826 
Q 474.630275 39.535596 479.349083 39.721376 
Q 480.872477 39.721376 481.559862 38.550963 
Q 482.247248 37.38055 482.247248 35.82 
Q 482.247248 35.299817 482.154358 34.909679 
Q 482.061468 34.519541 481.819954 34.296606 
Q 481.57844 34.07367 481.411239 33.943624 
Q 481.244037 33.813578 480.798165 33.757844 
Q 480.352294 33.70211 480.147936 33.683532 
Q 479.943578 33.664954 479.367661 33.683532 
Q 478.791743 33.70211 478.568807 33.70211 
Q 476.525229 33.70211 475.038991 35.578486 
Q 473.552752 37.454862 473.552752 39.609908 
Q 473.552752 42.619541 475.484862 44.570229 
Q 477.416972 46.520917 480.463761 46.520917 
Q 482.618807 46.818165 484.142202 44.29156 
" clip-path="url(#pf301ee6711)" style="fill: none; stroke: #000000; stroke-linejoin: miter"/>
   </g>
  </g>
  <g id="axes_31">
   <g id="patch_27">
    <path d="M 490.613462 32.783338 
Q 491.138317 34.507862 491.269531 36.457324 
Q 491.400745 38.406786 491.325766 40.956083 
Q 491.250786 43.505379 491.288276 44.705048 
L 491.400745 46.054676 
L 491.400745 45.829738 
Q 491.400745 44.667559 491.119572 42.30571 
Q 490.8384 39.943862 490.8384 38.744193 
Q 490.8384 36.419834 491.850621 34.882759 
Q 492.862841 33.345683 494.887283 33.345683 
Q 495.599586 33.345683 495.936993 33.626855 
Q 496.2744 33.908028 496.536828 34.432883 
Q 496.799255 34.957738 497.136662 35.257655 
L 497.586538 36.832221 
" clip-path="url(#p3b93715412)" style="fill: none; stroke: #000000; stroke-linejoin: miter"/>
   </g>
  </g>
  <g id="axes_32">
   <g id="patch_28">
    <path d="M 515.087191 39.096404 
Q 514.83236 39.023596 513.86764 38.623146 
Q 512.902921 38.222697 512.24764 38.077079 
Q 511.59236 37.931461 510.937079 38.00427 
Q 508.315955 38.00427 506.677753 40.388764 
Q 505.039551 42.773258 505.039551 45.430787 
Q 505.039551 47.068989 510.281798 47.068989 
Q 511.847191 47.068989 513.175955 45.558202 
Q 514.504719 44.047416 515.178202 42.172584 
Q 515.851685 40.297753 515.851685 38.768764 
Q 515.851685 37.27618 515.815281 36.984944 
L 515.742472 38.077079 
Q 515.742472 38.550337 515.742472 38.987191 
Q 515.778876 40.188539 515.979101 42.281798 
Q 516.179326 44.375056 516.343146 46.049663 
Q 516.506966 47.72427 516.543371 49.872135 
Q 516.579775 52.02 516.415955 53.658202 
Q 516.252135 55.296404 515.687865 56.971011 
Q 515.123596 58.645618 514.195281 59.737753 
Q 513.266966 60.829888 511.665169 61.521573 
Q 510.063371 62.213258 507.915506 62.213258 
Q 506.277303 62.213258 505.185169 61.466966 
Q 504.093034 60.720674 504.093034 59.155281 
Q 504.020225 58.936854 504.056629 58.936854 
Q 504.093034 58.936854 504.202247 58.936854 
Q 504.311461 58.936854 504.311461 58.82764 
" clip-path="url(#p03fb17d7cf)" style="fill: none; stroke: #000000; stroke-linejoin: miter"/>
   </g>
  </g>
  <g id="axes_33">
   <g id="patch_29">
    <path d="M 520.257798 38.160826 
Q 523.230275 39.535596 527.949083 39.721376 
Q 529.472477 39.721376 530.159862 38.550963 
Q 530.847248 37.38055 530.847248 35.82 
Q 530.847248 35.299817 530.754358 34.909679 
Q 530.661468 34.519541 530.419954 34.296606 
Q 530.17844 34.07367 530.011239 33.943624 
Q 529.844037 33.813578 529.398165 33.757844 
Q 528.952294 33.70211 528.747936 33.683532 
Q 528.543578 33.664954 527.967661 33.683532 
Q 527.391743 33.70211 527.168807 33.70211 
Q 525.125229 33.70211 523.638991 35.578486 
Q 522.152752 37.454862 522.152752 39.609908 
Q 522.152752 42.619541 524.084862 44.570229 
Q 526.016972 46.520917 529.063761 46.520917 
Q 531.218807 46.818165 532.742202 44.29156 
" clip-path="url(#p8b1be074ed)" style="fill: none; stroke: #000000; stroke-linejoin: miter"/>
   </g>
  </g>
  <g id="axes_34"/>
  <g id="axes_35">
   <g id="patch_30">
    <path d="M 562.1616 35.032717 
Q 561.11189 34.582841 560.137159 34.69531 
Q 557.100497 35.032717 555.188524 36.701007 
Q 553.276552 38.369297 553.276552 41.330979 
Q 553.276552 43.917766 555.282248 45.6048 
Q 557.287945 47.291834 559.912221 47.291834 
Q 562.274069 47.291834 563.398759 45.361117 
Q 564.523448 43.4304 564.523448 40.881103 
Q 564.523448 39.643945 564.111062 38.706703 
Q 563.698676 37.769462 563.173821 37.300841 
Q 562.648966 36.832221 561.899172 36.119917 
Q 561.149379 35.407614 560.699503 34.69531 
L 559.462345 34.245434 
" clip-path="url(#p367c279168)" style="fill: none; stroke: #000000; stroke-linejoin: miter"/>
   </g>
  </g>
  <g id="axes_36">
   <g id="patch_31">
    <path d="M 570.488772 35.145186 
Q 570.488772 35.145186 570.488772 35.595062 
Q 570.488772 36.269876 570.376303 37.619503 
Q 570.263834 38.969131 570.263834 39.643945 
Q 570.263834 41.930814 571.500993 43.599103 
Q 572.738152 45.267393 574.875062 45.267393 
Q 576.262179 45.154924 577.030717 43.917766 
Q 577.799255 42.680607 577.949214 41.237255 
Q 578.099172 39.793903 578.3616 37.9944 
Q 578.624028 36.194897 579.036414 35.370124 
Q 579.186372 35.070207 579.186372 35.670041 
Q 579.186372 36.269876 578.923945 38.706703 
Q 578.699007 41.031062 578.699007 41.555917 
Q 578.549048 42.643117 578.886455 43.767807 
Q 579.223862 44.892497 579.936166 45.6048 
" clip-path="url(#pfb9046b58d)" style="fill: none; stroke: #000000; stroke-linejoin: miter"/>
   </g>
  </g>
  <g id="axes_37">
   <g id="patch_32">
    <path d="M 586.463834 37.95691 
L 587.138648 37.95691 
Q 587.850952 37.95691 588.638234 37.881931 
Q 589.425517 37.806952 590.381503 37.675738 
Q 591.33749 37.544524 591.862345 37.507034 
L 596.136166 35.82 
M 592.087283 30.42149 
L 592.087283 31.43371 
Q 592.087283 33.383172 591.412469 37.207117 
Q 590.737655 41.031062 590.737655 43.018014 
Q 590.737655 43.805297 590.737655 44.105214 
Q 590.737655 44.405131 590.831379 45.042455 
Q 590.925103 45.679779 591.112552 45.960952 
Q 591.3 46.242124 591.693641 46.485807 
Q 592.087283 46.72949 592.649628 46.72949 
Q 592.762097 46.692 593.080759 46.72949 
Q 593.399421 46.766979 593.586869 46.710745 
Q 593.774317 46.65451 593.774317 46.392083 
" clip-path="url(#p91edee9dd2)" style="fill: none; stroke: #000000; stroke-linejoin: miter"/>
   </g>
  </g>
  <g id="axes_38"/>
  <g id="axes_39">
   <g id="patch_33">
    <path d="M 618.863834 37.95691 
L 619.538648 37.95691 
Q 620.250952 37.95691 621.038234 37.881931 
Q 621.825517 37.806952 622.781503 37.675738 
Q 623.73749 37.544524 624.262345 37.507034 
L 628.536166 35.82 
M 624.487283 30.42149 
L 624.487283 31.43371 
Q 624.487283 33.383172 623.812469 37.207117 
Q 623.137655 41.031062 623.137655 43.018014 
Q 623.137655 43.805297 623.137655 44.105214 
Q 623.137655 44.405131 623.231379 45.042455 
Q 623.325103 45.679779 623.512552 45.960952 
Q 623.7 46.242124 624.093641 46.485807 
Q 624.487283 46.72949 625.049628 46.72949 
Q 625.162097 46.692 625.480759 46.72949 
Q 625.799421 46.766979 625.986869 46.710745 
Q 626.174317 46.65451 626.174317 46.392083 
" clip-path="url(#p8b1191fd8c)" style="fill: none; stroke: #000000; stroke-linejoin: miter"/>
   </g>
  </g>
  <g id="axes_40">
   <g id="patch_34">
    <path d="M 636.413462 35.932469 
Q 637.013297 35.257655 638.006772 34.826524 
Q 639.000248 34.395393 639.9 34.470372 
Q 640.537324 34.470372 641.02469 34.639076 
Q 641.512055 34.807779 641.830717 34.995228 
Q 642.149379 35.182676 642.374317 35.670041 
Q 642.599255 36.157407 642.711724 36.419834 
Q 642.824193 36.682262 642.880428 37.375821 
Q 642.936662 38.069379 642.955407 38.331807 
Q 642.974152 38.594234 642.955407 39.419007 
Q 642.936662 40.243779 642.936662 40.431228 
Q 642.936662 41.368469 642.767959 43.242952 
Q 642.599255 45.117434 642.599255 46.054676 
Q 642.599255 46.467062 642.65549 46.823214 
Q 642.711724 47.179366 642.805448 47.610497 
Q 642.899172 48.041628 642.936662 48.304055 
L 643.386538 48.528993 
M 636.863338 23.111007 
Q 637.088276 24.798041 637.088276 29.971614 
L 637.088276 42.3432 
L 636.750869 46.841959 
L 636.525931 47.74171 
" clip-path="url(#p49f6e6f291)" style="fill: none; stroke: #000000; stroke-linejoin: miter"/>
   </g>
  </g>
  <g id="axes_41">
   <g id="patch_35">
    <path d="M 649.857798 38.160826 
Q 652.830275 39.535596 657.549083 39.721376 
Q 659.072477 39.721376 659.759862 38.550963 
Q 660.447248 37.38055 660.447248 35.82 
Q 660.447248 35.299817 660.354358 34.909679 
Q 660.261468 34.519541 660.019954 34.296606 
Q 659.77844 34.07367 659.611239 33.943624 
Q 659.444037 33.813578 658.998165 33.757844 
Q 658.552294 33.70211 658.347936 33.683532 
Q 658.143578 33.664954 657.567661 33.683532 
Q 656.991743 33.70211 656.768807 33.70211 
Q 654.725229 33.70211 653.238991 35.578486 
Q 651.752752 37.454862 651.752752 39.609908 
Q 651.752752 42.619541 653.684862 44.570229 
Q 655.616972 46.520917 658.663761 46.520917 
Q 660.818807 46.818165 662.342202 44.29156 
" clip-path="url(#pd2f05f24b2)" style="fill: none; stroke: #000000; stroke-linejoin: miter"/>
   </g>
  </g>
 </g>
 <defs>
  <clipPath id="p6592b8bf51">
   <rect x="0" y="9.949956" width="16.2" height="51.740088"/>
  </clipPath>
  <clipPath id="p04cb38e90a">
   <rect x="17.083241" y="8.64" width="14.433517" height="54.36"/>
  </clipPath>
  <clipPath id="pe72e04888a">
   <rect x="32.4" y="8.881927" width="16.2" height="53.876147"/>
  </clipPath>
  <clipPath id="p4b59dc08f0">
   <rect x="49.651945" y="8.64" width="14.09611" height="54.36"/>
  </clipPath>
  <clipPath id="pfc4342bbb5">
   <rect x="81" y="9.949956" width="16.2" height="51.740088"/>
  </clipPath>
  <clipPath id="p286da10649">
   <rect x="99.938979" y="8.64" width="10.722041" height="54.36"/>
  </clipPath>
  <clipPath id="pbe81a735d7">
   <rect x="113.4" y="10.777356" width="16.2" height="50.085288"/>
  </clipPath>
  <clipPath id="p45ec861450">
   <rect x="129.6" y="9.603482" width="16.2" height="52.433036"/>
  </clipPath>
  <clipPath id="paf4da7f415">
   <rect x="145.8" y="8.881927" width="16.2" height="53.876147"/>
  </clipPath>
  <clipPath id="pc0a080425f">
   <rect x="180.938979" y="8.64" width="10.722041" height="54.36"/>
  </clipPath>
  <clipPath id="pa4b8add430">
   <rect x="195.002069" y="8.64" width="14.995862" height="54.36"/>
  </clipPath>
  <clipPath id="p5f8a11d249">
   <rect x="211.989352" y="8.64" width="13.421297" height="54.36"/>
  </clipPath>
  <clipPath id="p14e26b90af">
   <rect x="228.582993" y="8.64" width="12.634014" height="54.36"/>
  </clipPath>
  <clipPath id="pd5d232bd81">
   <rect x="243" y="8.881927" width="16.2" height="53.876147"/>
  </clipPath>
  <clipPath id="p1294796183">
   <rect x="260.982993" y="8.64" width="12.634014" height="54.36"/>
  </clipPath>
  <clipPath id="pe6a597d2eb">
   <rect x="293.382993" y="8.64" width="12.634014" height="54.36"/>
  </clipPath>
  <clipPath id="p1fbf7460d2">
   <rect x="309.189352" y="8.64" width="13.421297" height="54.36"/>
  </clipPath>
  <clipPath id="p60e6a378ce">
   <rect x="324" y="10.777356" width="16.2" height="50.085288"/>
  </clipPath>
  <clipPath id="p107ba2823d">
   <rect x="342.938979" y="8.64" width="10.722041" height="54.36"/>
  </clipPath>
  <clipPath id="pbf74eeab36">
   <rect x="357.789352" y="8.64" width="13.421297" height="54.36"/>
  </clipPath>
  <clipPath id="p83a498745d">
   <rect x="390.189352" y="8.64" width="13.421297" height="54.36"/>
  </clipPath>
  <clipPath id="pa7a0b85d16">
   <rect x="405.602069" y="8.64" width="14.995862" height="54.36"/>
  </clipPath>
  <clipPath id="p6d540147fa">
   <rect x="437.4" y="8.881927" width="16.2" height="53.876147"/>
  </clipPath>
  <clipPath id="p4e3cc5b459">
   <rect x="453.6" y="9.603482" width="16.2" height="52.433036"/>
  </clipPath>
  <clipPath id="pf301ee6711">
   <rect x="469.8" y="8.881927" width="16.2" height="53.876147"/>
  </clipPath>
  <clipPath id="p3b93715412">
   <rect x="488.738979" y="8.64" width="10.722041" height="54.36"/>
  </clipPath>
  <clipPath id="p03fb17d7cf">
   <rect x="502.2" y="9.426742" width="16.2" height="52.786517"/>
  </clipPath>
  <clipPath id="p8b1be074ed">
   <rect x="518.4" y="8.881927" width="16.2" height="53.876147"/>
  </clipPath>
  <clipPath id="p367c279168">
   <rect x="551.402069" y="8.64" width="14.995862" height="54.36"/>
  </clipPath>
  <clipPath id="pfb9046b58d">
   <rect x="568.389352" y="8.64" width="13.421297" height="54.36"/>
  </clipPath>
  <clipPath id="p91edee9dd2">
   <rect x="584.589352" y="8.64" width="13.421297" height="54.36"/>
  </clipPath>
  <clipPath id="p8b1191fd8c">
   <rect x="616.989352" y="8.64" width="13.421297" height="54.36"/>
  </clipPath>
  <clipPath id="p49f6e6f291">
   <rect x="634.538979" y="8.64" width="10.722041" height="54.36"/>
  </clipPath>
  <clipPath id="pd2f05f24b2">
   <rect x="648" y="8.881927" width="16.2" height="53.876147"/>
  </clipPath>
 </defs>
</svg>
