<?xml version="1.0" encoding="utf-8" standalone="no"?>
<!DOCTYPE svg PUBLIC "-//W3C//DTD SVG 1.1//EN"
  "http://www.w3.org/Graphics/SVG/1.1/DTD/svg11.dtd">
<svg xmlns:xlink="http://www.w3.org/1999/xlink" width="828pt" height="72pt" viewBox="0 0 828 72" xmlns="http://www.w3.org/2000/svg" version="1.1">
 <metadata>
  <rdf:RDF xmlns:dc="http://purl.org/dc/elements/1.1/" xmlns:cc="http://creativecommons.org/ns#" xmlns:rdf="http://www.w3.org/1999/02/22-rdf-syntax-ns#">
   <cc:Work>
    <dc:type rdf:resource="http://purl.org/dc/dcmitype/StillImage"/>
    <dc:date>2023-12-21T11:50:26.113180</dc:date>
    <dc:format>image/svg+xml</dc:format>
    <dc:creator>
     <cc:Agent>
      <dc:title>Matplotlib v3.5.1, https://matplotlib.org/</dc:title>
     </cc:Agent>
    </dc:creator>
   </cc:Work>
  </rdf:RDF>
 </metadata>
 <defs>
  <style type="text/css">*{stroke-linejoin: round; stroke-linecap: butt}</style>
 </defs>
 <g id="figure_1">
  <g id="patch_1">
   <path d="M 0 72 
L 828 72 
L 828 0 
L 0 0 
z
" style="fill: #8fff9f"/>
  </g>
  <g id="axes_1">
   <g id="patch_2">
    <path d="M 1.087248 30.470738 
L 2.261477 30.601208 
Q 4.088054 30.601208 5.925503 30.709933 
Q 7.762953 30.818658 10.002685 30.992617 
Q 12.242416 31.166577 13.677584 31.253557 
L 15.112752 31.123087 
M 7.871678 31.057852 
Q 7.936913 31.405772 7.675973 32.177718 
Q 7.415034 32.949664 7.610738 33.406309 
Q 7.610738 34.711007 7.752081 36.363624 
Q 7.893423 38.016242 8.110872 39.973289 
Q 8.328322 41.930336 8.393557 42.800134 
" clip-path="url(#pfa29b4e4f8)" style="fill: none; stroke: #000000; stroke-linejoin: miter"/>
   </g>
  </g>
  <g id="axes_2">
   <g id="patch_3">
    <path d="M 20.813462 35.932469 
Q 21.413297 35.257655 22.406772 34.826524 
Q 23.400248 34.395393 24.3 34.470372 
Q 24.937324 34.470372 25.42469 34.639076 
Q 25.912055 34.807779 26.230717 34.995228 
Q 26.549379 35.182676 26.774317 35.670041 
Q 26.999255 36.157407 27.111724 36.419834 
Q 27.224193 36.682262 27.280428 37.375821 
Q 27.336662 38.069379 27.355407 38.331807 
Q 27.374152 38.594234 27.355407 39.419007 
Q 27.336662 40.243779 27.336662 40.431228 
Q 27.336662 41.368469 27.167959 43.242952 
Q 26.999255 45.117434 26.999255 46.054676 
Q 26.999255 46.467062 27.05549 46.823214 
Q 27.111724 47.179366 27.205448 47.610497 
Q 27.299172 48.041628 27.336662 48.304055 
L 27.786538 48.528993 
M 21.263338 23.111007 
Q 21.488276 24.798041 21.488276 29.971614 
L 21.488276 42.3432 
L 21.150869 46.841959 
L 20.925931 47.74171 
" clip-path="url(#p771ad5d5c1)" style="fill: none; stroke: #000000; stroke-linejoin: miter"/>
   </g>
  </g>
  <g id="axes_3">
   <g id="patch_4">
    <path d="M 34.257798 38.160826 
Q 37.230275 39.535596 41.949083 39.721376 
Q 43.472477 39.721376 44.159862 38.550963 
Q 44.847248 37.38055 44.847248 35.82 
Q 44.847248 35.299817 44.754358 34.909679 
Q 44.661468 34.519541 44.419954 34.296606 
Q 44.17844 34.07367 44.011239 33.943624 
Q 43.844037 33.813578 43.398165 33.757844 
Q 42.952294 33.70211 42.747936 33.683532 
Q 42.543578 33.664954 41.967661 33.683532 
Q 41.391743 33.70211 41.168807 33.70211 
Q 39.125229 33.70211 37.638991 35.578486 
Q 36.152752 37.454862 36.152752 39.609908 
Q 36.152752 42.619541 38.084862 44.570229 
Q 40.016972 46.520917 43.063761 46.520917 
Q 45.218807 46.818165 46.742202 44.29156 
" clip-path="url(#p6799f37f07)" style="fill: none; stroke: #000000; stroke-linejoin: miter"/>
   </g>
  </g>
  <g id="axes_4"/>
  <g id="axes_5">
   <g id="patch_5">
    <path d="M 69.357228 37.244607 
Q 70.406938 37.207117 70.594386 37.132138 
Q 74.005945 37.132138 75.786703 39.212814 
Q 77.567462 41.29349 77.567462 44.780028 
Q 77.567462 47.704221 72.956234 47.704221 
Q 72.31891 47.704221 71.77531 47.591752 
Q 71.23171 47.479283 70.594386 47.254345 
Q 69.957062 47.029407 69.469697 46.916938 
L 68.232538 45.679779 
M 69.244759 25.435366 
L 69.244759 26.560055 
Q 69.244759 29.409269 69.357228 33.008276 
Q 69.469697 36.607283 69.657145 40.899848 
Q 69.844593 45.192414 69.919572 47.141876 
" clip-path="url(#p6fa5de2de5)" style="fill: none; stroke: #000000; stroke-linejoin: miter"/>
   </g>
  </g>
  <g id="axes_6">
   <g id="patch_6">
    <path d="M 82.857798 38.160826 
Q 85.830275 39.535596 90.549083 39.721376 
Q 92.072477 39.721376 92.759862 38.550963 
Q 93.447248 37.38055 93.447248 35.82 
Q 93.447248 35.299817 93.354358 34.909679 
Q 93.261468 34.519541 93.019954 34.296606 
Q 92.77844 34.07367 92.611239 33.943624 
Q 92.444037 33.813578 91.998165 33.757844 
Q 91.552294 33.70211 91.347936 33.683532 
Q 91.143578 33.664954 90.567661 33.683532 
Q 89.991743 33.70211 89.768807 33.70211 
Q 87.725229 33.70211 86.238991 35.578486 
Q 84.752752 37.454862 84.752752 39.609908 
Q 84.752752 42.619541 86.684862 44.570229 
Q 88.616972 46.520917 91.663761 46.520917 
Q 93.818807 46.818165 95.342202 44.29156 
" clip-path="url(#p18cd269e9e)" style="fill: none; stroke: #000000; stroke-linejoin: miter"/>
   </g>
  </g>
  <g id="axes_7">
   <g id="patch_7">
    <path d="M 104.906359 28.621986 
Q 105.131297 30.34651 105.206276 32.146014 
Q 105.281255 33.945517 105.26251 36.551048 
Q 105.243766 39.156579 105.243766 40.093821 
Q 105.243766 40.13131 105.468703 45.829738 
L 105.693641 46.841959 
" clip-path="url(#p56f7c201d2)" style="fill: none; stroke: #000000; stroke-linejoin: miter"/>
   </g>
  </g>
  <g id="axes_8">
   <g id="patch_8">
    <path d="M 121.106359 28.621986 
Q 121.331297 30.34651 121.406276 32.146014 
Q 121.481255 33.945517 121.46251 36.551048 
Q 121.443766 39.156579 121.443766 40.093821 
Q 121.443766 40.13131 121.668703 45.829738 
L 121.893641 46.841959 
" clip-path="url(#p8e85588d6b)" style="fill: none; stroke: #000000; stroke-linejoin: miter"/>
   </g>
  </g>
  <g id="axes_9"/>
  <g id="axes_10">
   <g id="patch_9">
    <path d="M 150.413462 32.783338 
Q 150.938317 34.507862 151.069531 36.457324 
Q 151.200745 38.406786 151.125766 40.956083 
Q 151.050786 43.505379 151.088276 44.705048 
L 151.200745 46.054676 
L 151.200745 45.829738 
Q 151.200745 44.667559 150.919572 42.30571 
Q 150.6384 39.943862 150.6384 38.744193 
Q 150.6384 36.419834 151.650621 34.882759 
Q 152.662841 33.345683 154.687283 33.345683 
Q 155.399586 33.345683 155.736993 33.626855 
Q 156.0744 33.908028 156.336828 34.432883 
Q 156.599255 34.957738 156.936662 35.257655 
L 157.386538 36.832221 
" clip-path="url(#p93ca74df91)" style="fill: none; stroke: #000000; stroke-linejoin: miter"/>
   </g>
  </g>
  <g id="axes_11">
   <g id="patch_10">
    <path d="M 170.718579 29.071862 
Q 170.343683 29.146841 170.212469 29.577972 
Q 170.081255 30.009103 170.156234 30.42149 
Q 170.156234 30.571448 170.193724 30.702662 
Q 170.231214 30.833876 170.287448 30.89011 
Q 170.343683 30.946345 170.399917 31.040069 
Q 170.456152 31.133793 170.493641 31.208772 
L 170.60611 29.859145 
M 170.60611 34.020497 
Q 169.706359 39.006621 169.481421 42.793076 
L 169.931297 45.379862 
L 170.268703 46.054676 
" clip-path="url(#p8673062da7)" style="fill: none; stroke: #000000; stroke-linejoin: miter"/>
   </g>
  </g>
  <g id="axes_12">
   <g id="patch_11">
    <path d="M 181.838731 37.282097 
L 181.838731 37.844441 
Q 182.101159 39.868883 182.138648 41.312234 
Q 182.176138 42.755586 182.082414 44.667559 
Q 181.98869 46.579531 181.98869 48.191586 
L 182.063669 39.643945 
Q 182.063669 38.144359 183.656979 37.507034 
Q 185.25029 36.86971 186.674897 37.282097 
Q 188.586869 37.844441 189.505366 39.04411 
Q 190.423862 40.243779 190.480097 41.668386 
Q 190.536331 43.092993 190.573821 44.817517 
Q 190.61131 46.542041 190.761269 48.191586 
" clip-path="url(#p54731cc0a8)" style="fill: none; stroke: #000000; stroke-linejoin: miter"/>
   </g>
  </g>
  <g id="axes_13">
   <g id="patch_12">
    <path d="M 207.287191 39.096404 
Q 207.03236 39.023596 206.06764 38.623146 
Q 205.102921 38.222697 204.44764 38.077079 
Q 203.79236 37.931461 203.137079 38.00427 
Q 200.515955 38.00427 198.877753 40.388764 
Q 197.239551 42.773258 197.239551 45.430787 
Q 197.239551 47.068989 202.481798 47.068989 
Q 204.047191 47.068989 205.375955 45.558202 
Q 206.704719 44.047416 207.378202 42.172584 
Q 208.051685 40.297753 208.051685 38.768764 
Q 208.051685 37.27618 208.015281 36.984944 
L 207.942472 38.077079 
Q 207.942472 38.550337 207.942472 38.987191 
Q 207.978876 40.188539 208.179101 42.281798 
Q 208.379326 44.375056 208.543146 46.049663 
Q 208.706966 47.72427 208.743371 49.872135 
Q 208.779775 52.02 208.615955 53.658202 
Q 208.452135 55.296404 207.887865 56.971011 
Q 207.323596 58.645618 206.395281 59.737753 
Q 205.466966 60.829888 203.865169 61.521573 
Q 202.263371 62.213258 200.115506 62.213258 
Q 198.477303 62.213258 197.385169 61.466966 
Q 196.293034 60.720674 196.293034 59.155281 
Q 196.220225 58.936854 196.256629 58.936854 
Q 196.293034 58.936854 196.402247 58.936854 
Q 196.511461 58.936854 196.511461 58.82764 
" clip-path="url(#p5b5c1db18a)" style="fill: none; stroke: #000000; stroke-linejoin: miter"/>
   </g>
  </g>
  <g id="axes_14">
   <g id="patch_13">
    <path d="M 214.257476 43.917766 
Q 214.557393 44.180193 215.569614 45.154924 
Q 216.581834 46.129655 217.144179 46.560786 
Q 217.706524 46.991917 218.73749 47.385559 
Q 219.768455 47.7792 220.780676 47.629241 
Q 221.45549 47.629241 221.92411 47.404303 
Q 222.392731 47.179366 222.617669 46.879448 
Q 222.842607 46.579531 222.973821 45.979697 
Q 223.105034 45.379862 223.123779 44.967476 
Q 223.142524 44.55509 223.142524 43.805297 
Q 223.142524 42.718097 222.242772 42.043283 
Q 221.343021 41.368469 220.049628 41.031062 
Q 218.756234 40.693655 217.462841 40.300014 
Q 216.169448 39.906372 215.269697 38.987876 
Q 214.369945 38.069379 214.369945 36.607283 
Q 214.369945 36.082428 214.538648 35.726276 
Q 214.707352 35.370124 215.100993 35.145186 
Q 215.494634 34.920248 215.775807 34.807779 
Q 216.056979 34.69531 216.713048 34.639076 
Q 217.369117 34.582841 217.556566 34.582841 
Q 217.744014 34.582841 218.418828 34.582841 
Q 219.618497 34.582841 220.199586 34.995228 
Q 220.780676 35.407614 221.099338 36.026193 
Q 221.418 36.644772 221.680428 36.832221 
" clip-path="url(#p1fff98e1ad)" style="fill: none; stroke: #000000; stroke-linejoin: miter"/>
   </g>
  </g>
  <g id="axes_15"/>
  <g id="axes_16">
   <g id="patch_14">
    <path d="M 256.643923 36.441748 
Q 255.434968 35.094627 251.462687 35.094627 
Q 249.942857 35.094627 249.165672 35.146439 
Q 248.388486 35.198252 247.38678 35.440043 
Q 246.385075 35.681834 245.901493 36.182687 
Q 245.41791 36.683539 245.072495 37.616162 
Q 244.727079 38.548785 244.727079 39.964989 
Q 244.727079 42.037484 246.143284 43.280981 
Q 247.559488 44.524478 249.493817 44.524478 
Q 252.153518 44.524478 254.916844 38.721493 
Q 256.263966 35.854542 256.263966 35.82 
Q 256.609382 35.578209 256.643923 36.441748 
Q 256.643923 37.512537 257.058422 40.362217 
Q 257.472921 43.211898 257.472921 44.524478 
" clip-path="url(#p05f70db2ab)" style="fill: none; stroke: #000000; stroke-linejoin: miter"/>
   </g>
  </g>
  <g id="axes_17">
   <g id="patch_15">
    <path d="M 262.857476 43.917766 
Q 263.157393 44.180193 264.169614 45.154924 
Q 265.181834 46.129655 265.744179 46.560786 
Q 266.306524 46.991917 267.33749 47.385559 
Q 268.368455 47.7792 269.380676 47.629241 
Q 270.05549 47.629241 270.52411 47.404303 
Q 270.992731 47.179366 271.217669 46.879448 
Q 271.442607 46.579531 271.573821 45.979697 
Q 271.705034 45.379862 271.723779 44.967476 
Q 271.742524 44.55509 271.742524 43.805297 
Q 271.742524 42.718097 270.842772 42.043283 
Q 269.943021 41.368469 268.649628 41.031062 
Q 267.356234 40.693655 266.062841 40.300014 
Q 264.769448 39.906372 263.869697 38.987876 
Q 262.969945 38.069379 262.969945 36.607283 
Q 262.969945 36.082428 263.138648 35.726276 
Q 263.307352 35.370124 263.700993 35.145186 
Q 264.094634 34.920248 264.375807 34.807779 
Q 264.656979 34.69531 265.313048 34.639076 
Q 265.969117 34.582841 266.156566 34.582841 
Q 266.344014 34.582841 267.018828 34.582841 
Q 268.218497 34.582841 268.799586 34.995228 
Q 269.380676 35.407614 269.699338 36.026193 
Q 270.018 36.644772 270.280428 36.832221 
" clip-path="url(#p890c2cc47d)" style="fill: none; stroke: #000000; stroke-linejoin: miter"/>
   </g>
  </g>
  <g id="axes_18"/>
  <g id="axes_19">
   <g id="patch_16">
    <path d="M 296.381498 38.139383 
Q 296.381498 38.139383 298.415419 38.139383 
Q 299.236123 37.889604 301.555507 38.085859 
Q 303.87489 38.282115 304.838326 38.139383 
M 293.384141 46.489163 
L 293.491189 46.168018 
Q 293.491189 45.275947 295.418062 40.797753 
Q 297.344934 36.319559 299.307489 32.251718 
Q 301.270044 28.183877 301.412775 28.183877 
Q 302.269163 28.183877 302.964978 29.646872 
Q 303.660793 31.109868 304.12467 33.393568 
Q 304.588546 35.677269 304.927533 37.943128 
Q 305.26652 40.208987 305.551982 42.332115 
Q 305.837445 44.455242 306.015859 45.097533 
" clip-path="url(#p3b207be4bd)" style="fill: none; stroke: #000000; stroke-linejoin: miter"/>
   </g>
  </g>
  <g id="axes_20">
   <g id="patch_17">
    <path d="M 311.438731 37.282097 
L 311.438731 37.844441 
Q 311.701159 39.868883 311.738648 41.312234 
Q 311.776138 42.755586 311.682414 44.667559 
Q 311.58869 46.579531 311.58869 48.191586 
L 311.663669 39.643945 
Q 311.663669 38.144359 313.256979 37.507034 
Q 314.85029 36.86971 316.274897 37.282097 
Q 318.186869 37.844441 319.105366 39.04411 
Q 320.023862 40.243779 320.080097 41.668386 
Q 320.136331 43.092993 320.173821 44.817517 
Q 320.21131 46.542041 320.361269 48.191586 
" clip-path="url(#pb2fc1c4def)" style="fill: none; stroke: #000000; stroke-linejoin: miter"/>
   </g>
  </g>
  <g id="axes_21">
   <g id="patch_18">
    <path d="M 336.887191 39.096404 
Q 336.63236 39.023596 335.66764 38.623146 
Q 334.702921 38.222697 334.04764 38.077079 
Q 333.39236 37.931461 332.737079 38.00427 
Q 330.115955 38.00427 328.477753 40.388764 
Q 326.839551 42.773258 326.839551 45.430787 
Q 326.839551 47.068989 332.081798 47.068989 
Q 333.647191 47.068989 334.975955 45.558202 
Q 336.304719 44.047416 336.978202 42.172584 
Q 337.651685 40.297753 337.651685 38.768764 
Q 337.651685 37.27618 337.615281 36.984944 
L 337.542472 38.077079 
Q 337.542472 38.550337 337.542472 38.987191 
Q 337.578876 40.188539 337.779101 42.281798 
Q 337.979326 44.375056 338.143146 46.049663 
Q 338.306966 47.72427 338.343371 49.872135 
Q 338.379775 52.02 338.215955 53.658202 
Q 338.052135 55.296404 337.487865 56.971011 
Q 336.923596 58.645618 335.995281 59.737753 
Q 335.066966 60.829888 333.465169 61.521573 
Q 331.863371 62.213258 329.715506 62.213258 
Q 328.077303 62.213258 326.985169 61.466966 
Q 325.893034 60.720674 325.893034 59.155281 
Q 325.820225 58.936854 325.856629 58.936854 
Q 325.893034 58.936854 326.002247 58.936854 
Q 326.111461 58.936854 326.111461 58.82764 
" clip-path="url(#p2076c05ade)" style="fill: none; stroke: #000000; stroke-linejoin: miter"/>
   </g>
  </g>
  <g id="axes_22">
   <g id="patch_19">
    <path d="M 342.057798 38.160826 
Q 345.030275 39.535596 349.749083 39.721376 
Q 351.272477 39.721376 351.959862 38.550963 
Q 352.647248 37.38055 352.647248 35.82 
Q 352.647248 35.299817 352.554358 34.909679 
Q 352.461468 34.519541 352.219954 34.296606 
Q 351.97844 34.07367 351.811239 33.943624 
Q 351.644037 33.813578 351.198165 33.757844 
Q 350.752294 33.70211 350.547936 33.683532 
Q 350.343578 33.664954 349.767661 33.683532 
Q 349.191743 33.70211 348.968807 33.70211 
Q 346.925229 33.70211 345.438991 35.578486 
Q 343.952752 37.454862 343.952752 39.609908 
Q 343.952752 42.619541 345.884862 44.570229 
Q 347.816972 46.520917 350.863761 46.520917 
Q 353.018807 46.818165 354.542202 44.29156 
" clip-path="url(#pcaf084dbcf)" style="fill: none; stroke: #000000; stroke-linejoin: miter"/>
   </g>
  </g>
  <g id="axes_23">
   <g id="patch_20">
    <path d="M 364.106359 28.621986 
Q 364.331297 30.34651 364.406276 32.146014 
Q 364.481255 33.945517 364.46251 36.551048 
Q 364.443766 39.156579 364.443766 40.093821 
Q 364.443766 40.13131 364.668703 45.829738 
L 364.893641 46.841959 
" clip-path="url(#pe539f1e4eb)" style="fill: none; stroke: #000000; stroke-linejoin: miter"/>
   </g>
  </g>
  <g id="axes_24">
   <g id="patch_21">
    <path d="M 386.243923 36.441748 
Q 385.034968 35.094627 381.062687 35.094627 
Q 379.542857 35.094627 378.765672 35.146439 
Q 377.988486 35.198252 376.98678 35.440043 
Q 375.985075 35.681834 375.501493 36.182687 
Q 375.01791 36.683539 374.672495 37.616162 
Q 374.327079 38.548785 374.327079 39.964989 
Q 374.327079 42.037484 375.743284 43.280981 
Q 377.159488 44.524478 379.093817 44.524478 
Q 381.753518 44.524478 384.516844 38.721493 
Q 385.863966 35.854542 385.863966 35.82 
Q 386.209382 35.578209 386.243923 36.441748 
Q 386.243923 37.512537 386.658422 40.362217 
Q 387.072921 43.211898 387.072921 44.524478 
" clip-path="url(#p14c66728ed)" style="fill: none; stroke: #000000; stroke-linejoin: miter"/>
   </g>
  </g>
  <g id="axes_25"/>
  <g id="axes_26">
   <g id="patch_22">
    <path d="M 409.557228 37.244607 
Q 410.606938 37.207117 410.794386 37.132138 
Q 414.205945 37.132138 415.986703 39.212814 
Q 417.767462 41.29349 417.767462 44.780028 
Q 417.767462 47.704221 413.156234 47.704221 
Q 412.51891 47.704221 411.97531 47.591752 
Q 411.43171 47.479283 410.794386 47.254345 
Q 410.157062 47.029407 409.669697 46.916938 
L 408.432538 45.679779 
M 409.444759 25.435366 
L 409.444759 26.560055 
Q 409.444759 29.409269 409.557228 33.008276 
Q 409.669697 36.607283 409.857145 40.899848 
Q 410.044593 45.192414 410.119572 47.141876 
" clip-path="url(#p11c80da977)" style="fill: none; stroke: #000000; stroke-linejoin: miter"/>
   </g>
  </g>
  <g id="axes_27">
   <g id="patch_23">
    <path d="M 424.688772 35.145186 
Q 424.688772 35.145186 424.688772 35.595062 
Q 424.688772 36.269876 424.576303 37.619503 
Q 424.463834 38.969131 424.463834 39.643945 
Q 424.463834 41.930814 425.700993 43.599103 
Q 426.938152 45.267393 429.075062 45.267393 
Q 430.462179 45.154924 431.230717 43.917766 
Q 431.999255 42.680607 432.149214 41.237255 
Q 432.299172 39.793903 432.5616 37.9944 
Q 432.824028 36.194897 433.236414 35.370124 
Q 433.386372 35.070207 433.386372 35.670041 
Q 433.386372 36.269876 433.123945 38.706703 
Q 432.899007 41.031062 432.899007 41.555917 
Q 432.749048 42.643117 433.086455 43.767807 
Q 433.423862 44.892497 434.136166 45.6048 
" clip-path="url(#pf35e94d846)" style="fill: none; stroke: #000000; stroke-linejoin: miter"/>
   </g>
  </g>
  <g id="axes_28">
   <g id="patch_24">
    <path d="M 442.013462 32.783338 
Q 442.538317 34.507862 442.669531 36.457324 
Q 442.800745 38.406786 442.725766 40.956083 
Q 442.650786 43.505379 442.688276 44.705048 
L 442.800745 46.054676 
L 442.800745 45.829738 
Q 442.800745 44.667559 442.519572 42.30571 
Q 442.2384 39.943862 442.2384 38.744193 
Q 442.2384 36.419834 443.250621 34.882759 
Q 444.262841 33.345683 446.287283 33.345683 
Q 446.999586 33.345683 447.336993 33.626855 
Q 447.6744 33.908028 447.936828 34.432883 
Q 448.199255 34.957738 448.536662 35.257655 
L 448.986538 36.832221 
" clip-path="url(#pc193639dbb)" style="fill: none; stroke: #000000; stroke-linejoin: miter"/>
   </g>
  </g>
  <g id="axes_29">
   <g id="patch_25">
    <path d="M 457.257476 43.917766 
Q 457.557393 44.180193 458.569614 45.154924 
Q 459.581834 46.129655 460.144179 46.560786 
Q 460.706524 46.991917 461.73749 47.385559 
Q 462.768455 47.7792 463.780676 47.629241 
Q 464.45549 47.629241 464.92411 47.404303 
Q 465.392731 47.179366 465.617669 46.879448 
Q 465.842607 46.579531 465.973821 45.979697 
Q 466.105034 45.379862 466.123779 44.967476 
Q 466.142524 44.55509 466.142524 43.805297 
Q 466.142524 42.718097 465.242772 42.043283 
Q 464.343021 41.368469 463.049628 41.031062 
Q 461.756234 40.693655 460.462841 40.300014 
Q 459.169448 39.906372 458.269697 38.987876 
Q 457.369945 38.069379 457.369945 36.607283 
Q 457.369945 36.082428 457.538648 35.726276 
Q 457.707352 35.370124 458.100993 35.145186 
Q 458.494634 34.920248 458.775807 34.807779 
Q 459.056979 34.69531 459.713048 34.639076 
Q 460.369117 34.582841 460.556566 34.582841 
Q 460.744014 34.582841 461.418828 34.582841 
Q 462.618497 34.582841 463.199586 34.995228 
Q 463.780676 35.407614 464.099338 36.026193 
Q 464.418 36.644772 464.680428 36.832221 
" clip-path="url(#pbb48e4ea4f)" style="fill: none; stroke: #000000; stroke-linejoin: miter"/>
   </g>
  </g>
  <g id="axes_30">
   <g id="patch_26">
    <path d="M 473.063834 37.95691 
L 473.738648 37.95691 
Q 474.450952 37.95691 475.238234 37.881931 
Q 476.025517 37.806952 476.981503 37.675738 
Q 477.93749 37.544524 478.462345 37.507034 
L 482.736166 35.82 
M 478.687283 30.42149 
L 478.687283 31.43371 
Q 478.687283 33.383172 478.012469 37.207117 
Q 477.337655 41.031062 477.337655 43.018014 
Q 477.337655 43.805297 477.337655 44.105214 
Q 477.337655 44.405131 477.431379 45.042455 
Q 477.525103 45.679779 477.712552 45.960952 
Q 477.9 46.242124 478.293641 46.485807 
Q 478.687283 46.72949 479.249628 46.72949 
Q 479.362097 46.692 479.680759 46.72949 
Q 479.999421 46.766979 480.186869 46.710745 
Q 480.374317 46.65451 480.374317 46.392083 
" clip-path="url(#p6dd899c01d)" style="fill: none; stroke: #000000; stroke-linejoin: miter"/>
   </g>
  </g>
  <g id="axes_31">
   <g id="patch_27">
    <path d="M 489.657476 43.917766 
Q 489.957393 44.180193 490.969614 45.154924 
Q 491.981834 46.129655 492.544179 46.560786 
Q 493.106524 46.991917 494.13749 47.385559 
Q 495.168455 47.7792 496.180676 47.629241 
Q 496.85549 47.629241 497.32411 47.404303 
Q 497.792731 47.179366 498.017669 46.879448 
Q 498.242607 46.579531 498.373821 45.979697 
Q 498.505034 45.379862 498.523779 44.967476 
Q 498.542524 44.55509 498.542524 43.805297 
Q 498.542524 42.718097 497.642772 42.043283 
Q 496.743021 41.368469 495.449628 41.031062 
Q 494.156234 40.693655 492.862841 40.300014 
Q 491.569448 39.906372 490.669697 38.987876 
Q 489.769945 38.069379 489.769945 36.607283 
Q 489.769945 36.082428 489.938648 35.726276 
Q 490.107352 35.370124 490.500993 35.145186 
Q 490.894634 34.920248 491.175807 34.807779 
Q 491.456979 34.69531 492.113048 34.639076 
Q 492.769117 34.582841 492.956566 34.582841 
Q 493.144014 34.582841 493.818828 34.582841 
Q 495.018497 34.582841 495.599586 34.995228 
Q 496.180676 35.407614 496.499338 36.026193 
Q 496.818 36.644772 497.080428 36.832221 
" clip-path="url(#p6ab1ece9ca)" style="fill: none; stroke: #000000; stroke-linejoin: miter"/>
   </g>
  </g>
  <g id="axes_32"/>
  <g id="axes_33">
   <g id="patch_28">
    <path d="M 527.118579 29.071862 
Q 526.743683 29.146841 526.612469 29.577972 
Q 526.481255 30.009103 526.556234 30.42149 
Q 526.556234 30.571448 526.593724 30.702662 
Q 526.631214 30.833876 526.687448 30.89011 
Q 526.743683 30.946345 526.799917 31.040069 
Q 526.856152 31.133793 526.893641 31.208772 
L 527.00611 29.859145 
M 527.00611 34.020497 
Q 526.106359 39.006621 525.881421 42.793076 
L 526.331297 45.379862 
L 526.668703 46.054676 
" clip-path="url(#p632dcc6887)" style="fill: none; stroke: #000000; stroke-linejoin: miter"/>
   </g>
  </g>
  <g id="axes_34">
   <g id="patch_29">
    <path d="M 538.238731 37.282097 
L 538.238731 37.844441 
Q 538.501159 39.868883 538.538648 41.312234 
Q 538.576138 42.755586 538.482414 44.667559 
Q 538.38869 46.579531 538.38869 48.191586 
L 538.463669 39.643945 
Q 538.463669 38.144359 540.056979 37.507034 
Q 541.65029 36.86971 543.074897 37.282097 
Q 544.986869 37.844441 545.905366 39.04411 
Q 546.823862 40.243779 546.880097 41.668386 
Q 546.936331 43.092993 546.973821 44.817517 
Q 547.01131 46.542041 547.161269 48.191586 
" clip-path="url(#p238601121e)" style="fill: none; stroke: #000000; stroke-linejoin: miter"/>
   </g>
  </g>
  <g id="axes_35"/>
  <g id="axes_36">
   <g id="patch_30">
    <path d="M 570.263834 37.95691 
L 570.938648 37.95691 
Q 571.650952 37.95691 572.438234 37.881931 
Q 573.225517 37.806952 574.181503 37.675738 
Q 575.13749 37.544524 575.662345 37.507034 
L 579.936166 35.82 
M 575.887283 30.42149 
L 575.887283 31.43371 
Q 575.887283 33.383172 575.212469 37.207117 
Q 574.537655 41.031062 574.537655 43.018014 
Q 574.537655 43.805297 574.537655 44.105214 
Q 574.537655 44.405131 574.631379 45.042455 
Q 574.725103 45.679779 574.912552 45.960952 
Q 575.1 46.242124 575.493641 46.485807 
Q 575.887283 46.72949 576.449628 46.72949 
Q 576.562097 46.692 576.880759 46.72949 
Q 577.199421 46.766979 577.386869 46.710745 
Q 577.574317 46.65451 577.574317 46.392083 
" clip-path="url(#pf4881eeae6)" style="fill: none; stroke: #000000; stroke-linejoin: miter"/>
   </g>
  </g>
  <g id="axes_37">
   <g id="patch_31">
    <path d="M 587.813462 35.932469 
Q 588.413297 35.257655 589.406772 34.826524 
Q 590.400248 34.395393 591.3 34.470372 
Q 591.937324 34.470372 592.42469 34.639076 
Q 592.912055 34.807779 593.230717 34.995228 
Q 593.549379 35.182676 593.774317 35.670041 
Q 593.999255 36.157407 594.111724 36.419834 
Q 594.224193 36.682262 594.280428 37.375821 
Q 594.336662 38.069379 594.355407 38.331807 
Q 594.374152 38.594234 594.355407 39.419007 
Q 594.336662 40.243779 594.336662 40.431228 
Q 594.336662 41.368469 594.167959 43.242952 
Q 593.999255 45.117434 593.999255 46.054676 
Q 593.999255 46.467062 594.05549 46.823214 
Q 594.111724 47.179366 594.205448 47.610497 
Q 594.299172 48.041628 594.336662 48.304055 
L 594.786538 48.528993 
M 588.263338 23.111007 
Q 588.488276 24.798041 588.488276 29.971614 
L 588.488276 42.3432 
L 588.150869 46.841959 
L 587.925931 47.74171 
" clip-path="url(#p21730be979)" style="fill: none; stroke: #000000; stroke-linejoin: miter"/>
   </g>
  </g>
  <g id="axes_38">
   <g id="patch_32">
    <path d="M 604.013462 32.783338 
Q 604.538317 34.507862 604.669531 36.457324 
Q 604.800745 38.406786 604.725766 40.956083 
Q 604.650786 43.505379 604.688276 44.705048 
L 604.800745 46.054676 
L 604.800745 45.829738 
Q 604.800745 44.667559 604.519572 42.30571 
Q 604.2384 39.943862 604.2384 38.744193 
Q 604.2384 36.419834 605.250621 34.882759 
Q 606.262841 33.345683 608.287283 33.345683 
Q 608.999586 33.345683 609.336993 33.626855 
Q 609.6744 33.908028 609.936828 34.432883 
Q 610.199255 34.957738 610.536662 35.257655 
L 610.986538 36.832221 
" clip-path="url(#pc6acf758b7)" style="fill: none; stroke: #000000; stroke-linejoin: miter"/>
   </g>
  </g>
  <g id="axes_39">
   <g id="patch_33">
    <path d="M 626.9616 35.032717 
Q 625.91189 34.582841 624.937159 34.69531 
Q 621.900497 35.032717 619.988524 36.701007 
Q 618.076552 38.369297 618.076552 41.330979 
Q 618.076552 43.917766 620.082248 45.6048 
Q 622.087945 47.291834 624.712221 47.291834 
Q 627.074069 47.291834 628.198759 45.361117 
Q 629.323448 43.4304 629.323448 40.881103 
Q 629.323448 39.643945 628.911062 38.706703 
Q 628.498676 37.769462 627.973821 37.300841 
Q 627.448966 36.832221 626.699172 36.119917 
Q 625.949379 35.407614 625.499503 34.69531 
L 624.262345 34.245434 
" clip-path="url(#p00cfd29620)" style="fill: none; stroke: #000000; stroke-linejoin: miter"/>
   </g>
  </g>
  <g id="axes_40">
   <g id="patch_34">
    <path d="M 635.288772 35.145186 
Q 635.288772 35.145186 635.288772 35.595062 
Q 635.288772 36.269876 635.176303 37.619503 
Q 635.063834 38.969131 635.063834 39.643945 
Q 635.063834 41.930814 636.300993 43.599103 
Q 637.538152 45.267393 639.675062 45.267393 
Q 641.062179 45.154924 641.830717 43.917766 
Q 642.599255 42.680607 642.749214 41.237255 
Q 642.899172 39.793903 643.1616 37.9944 
Q 643.424028 36.194897 643.836414 35.370124 
Q 643.986372 35.070207 643.986372 35.670041 
Q 643.986372 36.269876 643.723945 38.706703 
Q 643.499007 41.031062 643.499007 41.555917 
Q 643.349048 42.643117 643.686455 43.767807 
Q 644.023862 44.892497 644.736166 45.6048 
" clip-path="url(#pb65a614d4c)" style="fill: none; stroke: #000000; stroke-linejoin: miter"/>
   </g>
  </g>
  <g id="axes_41">
   <g id="patch_35">
    <path d="M 660.887191 39.096404 
Q 660.63236 39.023596 659.66764 38.623146 
Q 658.702921 38.222697 658.04764 38.077079 
Q 657.39236 37.931461 656.737079 38.00427 
Q 654.115955 38.00427 652.477753 40.388764 
Q 650.839551 42.773258 650.839551 45.430787 
Q 650.839551 47.068989 656.081798 47.068989 
Q 657.647191 47.068989 658.975955 45.558202 
Q 660.304719 44.047416 660.978202 42.172584 
Q 661.651685 40.297753 661.651685 38.768764 
Q 661.651685 37.27618 661.615281 36.984944 
L 661.542472 38.077079 
Q 661.542472 38.550337 661.542472 38.987191 
Q 661.578876 40.188539 661.779101 42.281798 
Q 661.979326 44.375056 662.143146 46.049663 
Q 662.306966 47.72427 662.343371 49.872135 
Q 662.379775 52.02 662.215955 53.658202 
Q 662.052135 55.296404 661.487865 56.971011 
Q 660.923596 58.645618 659.995281 59.737753 
Q 659.066966 60.829888 657.465169 61.521573 
Q 655.863371 62.213258 653.715506 62.213258 
Q 652.077303 62.213258 650.985169 61.466966 
Q 649.893034 60.720674 649.893034 59.155281 
Q 649.820225 58.936854 649.856629 58.936854 
Q 649.893034 58.936854 650.002247 58.936854 
Q 650.111461 58.936854 650.111461 58.82764 
" clip-path="url(#p9091848015)" style="fill: none; stroke: #000000; stroke-linejoin: miter"/>
   </g>
  </g>
  <g id="axes_42">
   <g id="patch_36">
    <path d="M 668.813462 35.932469 
Q 669.413297 35.257655 670.406772 34.826524 
Q 671.400248 34.395393 672.3 34.470372 
Q 672.937324 34.470372 673.42469 34.639076 
Q 673.912055 34.807779 674.230717 34.995228 
Q 674.549379 35.182676 674.774317 35.670041 
Q 674.999255 36.157407 675.111724 36.419834 
Q 675.224193 36.682262 675.280428 37.375821 
Q 675.336662 38.069379 675.355407 38.331807 
Q 675.374152 38.594234 675.355407 39.419007 
Q 675.336662 40.243779 675.336662 40.431228 
Q 675.336662 41.368469 675.167959 43.242952 
Q 674.999255 45.117434 674.999255 46.054676 
Q 674.999255 46.467062 675.05549 46.823214 
Q 675.111724 47.179366 675.205448 47.610497 
Q 675.299172 48.041628 675.336662 48.304055 
L 675.786538 48.528993 
M 669.263338 23.111007 
Q 669.488276 24.798041 669.488276 29.971614 
L 669.488276 42.3432 
L 669.150869 46.841959 
L 668.925931 47.74171 
" clip-path="url(#p22b364d863)" style="fill: none; stroke: #000000; stroke-linejoin: miter"/>
   </g>
  </g>
  <g id="axes_43"/>
  <g id="axes_44">
   <g id="patch_37">
    <path d="M 699.863834 37.95691 
L 700.538648 37.95691 
Q 701.250952 37.95691 702.038234 37.881931 
Q 702.825517 37.806952 703.781503 37.675738 
Q 704.73749 37.544524 705.262345 37.507034 
L 709.536166 35.82 
M 705.487283 30.42149 
L 705.487283 31.43371 
Q 705.487283 33.383172 704.812469 37.207117 
Q 704.137655 41.031062 704.137655 43.018014 
Q 704.137655 43.805297 704.137655 44.105214 
Q 704.137655 44.405131 704.231379 45.042455 
Q 704.325103 45.679779 704.512552 45.960952 
Q 704.7 46.242124 705.093641 46.485807 
Q 705.487283 46.72949 706.049628 46.72949 
Q 706.162097 46.692 706.480759 46.72949 
Q 706.799421 46.766979 706.986869 46.710745 
Q 707.174317 46.65451 707.174317 46.392083 
" clip-path="url(#p8ac394396f)" style="fill: none; stroke: #000000; stroke-linejoin: miter"/>
   </g>
  </g>
  <g id="axes_45">
   <g id="patch_38">
    <path d="M 717.413462 35.932469 
Q 718.013297 35.257655 719.006772 34.826524 
Q 720.000248 34.395393 720.9 34.470372 
Q 721.537324 34.470372 722.02469 34.639076 
Q 722.512055 34.807779 722.830717 34.995228 
Q 723.149379 35.182676 723.374317 35.670041 
Q 723.599255 36.157407 723.711724 36.419834 
Q 723.824193 36.682262 723.880428 37.375821 
Q 723.936662 38.069379 723.955407 38.331807 
Q 723.974152 38.594234 723.955407 39.419007 
Q 723.936662 40.243779 723.936662 40.431228 
Q 723.936662 41.368469 723.767959 43.242952 
Q 723.599255 45.117434 723.599255 46.054676 
Q 723.599255 46.467062 723.65549 46.823214 
Q 723.711724 47.179366 723.805448 47.610497 
Q 723.899172 48.041628 723.936662 48.304055 
L 724.386538 48.528993 
M 717.863338 23.111007 
Q 718.088276 24.798041 718.088276 29.971614 
L 718.088276 42.3432 
L 717.750869 46.841959 
L 717.525931 47.74171 
" clip-path="url(#p9edc4637e1)" style="fill: none; stroke: #000000; stroke-linejoin: miter"/>
   </g>
  </g>
  <g id="axes_46">
   <g id="patch_39">
    <path d="M 730.857798 38.160826 
Q 733.830275 39.535596 738.549083 39.721376 
Q 740.072477 39.721376 740.759862 38.550963 
Q 741.447248 37.38055 741.447248 35.82 
Q 741.447248 35.299817 741.354358 34.909679 
Q 741.261468 34.519541 741.019954 34.296606 
Q 740.77844 34.07367 740.611239 33.943624 
Q 740.444037 33.813578 739.998165 33.757844 
Q 739.552294 33.70211 739.347936 33.683532 
Q 739.143578 33.664954 738.567661 33.683532 
Q 737.991743 33.70211 737.768807 33.70211 
Q 735.725229 33.70211 734.238991 35.578486 
Q 732.752752 37.454862 732.752752 39.609908 
Q 732.752752 42.619541 734.684862 44.570229 
Q 736.616972 46.520917 739.663761 46.520917 
Q 741.818807 46.818165 743.342202 44.29156 
" clip-path="url(#padfc178f8d)" style="fill: none; stroke: #000000; stroke-linejoin: miter"/>
   </g>
  </g>
 </g>
 <defs>
  <clipPath id="pfa29b4e4f8">
   <rect x="0" y="20.054899" width="16.2" height="31.530201"/>
  </clipPath>
  <clipPath id="p771ad5d5c1">
   <rect x="18.938979" y="8.64" width="10.722041" height="54.36"/>
  </clipPath>
  <clipPath id="p6799f37f07">
   <rect x="32.4" y="8.881927" width="16.2" height="53.876147"/>
  </clipPath>
  <clipPath id="p6fa5de2de5">
   <rect x="66.358055" y="8.64" width="13.08389" height="54.36"/>
  </clipPath>
  <clipPath id="p18cd269e9e">
   <rect x="81" y="8.881927" width="16.2" height="53.876147"/>
  </clipPath>
  <clipPath id="p56f7c201d2">
   <rect x="103.031876" y="8.64" width="4.536248" height="54.36"/>
  </clipPath>
  <clipPath id="p8e85588d6b">
   <rect x="119.231876" y="8.64" width="4.536248" height="54.36"/>
  </clipPath>
  <clipPath id="p93ca74df91">
   <rect x="148.538979" y="8.64" width="10.722041" height="54.36"/>
  </clipPath>
  <clipPath id="p8673062da7">
   <rect x="167.606938" y="8.64" width="4.986124" height="54.36"/>
  </clipPath>
  <clipPath id="p54731cc0a8">
   <rect x="179.964248" y="8.64" width="12.671503" height="54.36"/>
  </clipPath>
  <clipPath id="p5b5c1db18a">
   <rect x="194.4" y="9.426742" width="16.2" height="52.786517"/>
  </clipPath>
  <clipPath id="p1fff98e1ad">
   <rect x="212.382993" y="8.64" width="12.634014" height="54.36"/>
  </clipPath>
  <clipPath id="p05f70db2ab">
   <rect x="243" y="10.777356" width="16.2" height="50.085288"/>
  </clipPath>
  <clipPath id="p890c2cc47d">
   <rect x="260.982993" y="8.64" width="12.634014" height="54.36"/>
  </clipPath>
  <clipPath id="p3b207be4bd">
   <rect x="291.6" y="9.949956" width="16.2" height="51.740088"/>
  </clipPath>
  <clipPath id="pb2fc1c4def">
   <rect x="309.564248" y="8.64" width="12.671503" height="54.36"/>
  </clipPath>
  <clipPath id="p2076c05ade">
   <rect x="324" y="9.426742" width="16.2" height="52.786517"/>
  </clipPath>
  <clipPath id="pcaf084dbcf">
   <rect x="340.2" y="8.881927" width="16.2" height="53.876147"/>
  </clipPath>
  <clipPath id="pe539f1e4eb">
   <rect x="362.231876" y="8.64" width="4.536248" height="54.36"/>
  </clipPath>
  <clipPath id="p14c66728ed">
   <rect x="372.6" y="10.777356" width="16.2" height="50.085288"/>
  </clipPath>
  <clipPath id="p11c80da977">
   <rect x="406.558055" y="8.64" width="13.08389" height="54.36"/>
  </clipPath>
  <clipPath id="pf35e94d846">
   <rect x="422.589352" y="8.64" width="13.421297" height="54.36"/>
  </clipPath>
  <clipPath id="pc193639dbb">
   <rect x="440.138979" y="8.64" width="10.722041" height="54.36"/>
  </clipPath>
  <clipPath id="pbb48e4ea4f">
   <rect x="455.382993" y="8.64" width="12.634014" height="54.36"/>
  </clipPath>
  <clipPath id="p6dd899c01d">
   <rect x="471.189352" y="8.64" width="13.421297" height="54.36"/>
  </clipPath>
  <clipPath id="p6ab1ece9ca">
   <rect x="487.782993" y="8.64" width="12.634014" height="54.36"/>
  </clipPath>
  <clipPath id="p632dcc6887">
   <rect x="524.006938" y="8.64" width="4.986124" height="54.36"/>
  </clipPath>
  <clipPath id="p238601121e">
   <rect x="536.364248" y="8.64" width="12.671503" height="54.36"/>
  </clipPath>
  <clipPath id="pf4881eeae6">
   <rect x="568.389352" y="8.64" width="13.421297" height="54.36"/>
  </clipPath>
  <clipPath id="p21730be979">
   <rect x="585.938979" y="8.64" width="10.722041" height="54.36"/>
  </clipPath>
  <clipPath id="pc6acf758b7">
   <rect x="602.138979" y="8.64" width="10.722041" height="54.36"/>
  </clipPath>
  <clipPath id="p00cfd29620">
   <rect x="616.202069" y="8.64" width="14.995862" height="54.36"/>
  </clipPath>
  <clipPath id="pb65a614d4c">
   <rect x="633.189352" y="8.64" width="13.421297" height="54.36"/>
  </clipPath>
  <clipPath id="p9091848015">
   <rect x="648" y="9.426742" width="16.2" height="52.786517"/>
  </clipPath>
  <clipPath id="p22b364d863">
   <rect x="666.938979" y="8.64" width="10.722041" height="54.36"/>
  </clipPath>
  <clipPath id="p8ac394396f">
   <rect x="697.989352" y="8.64" width="13.421297" height="54.36"/>
  </clipPath>
  <clipPath id="p9edc4637e1">
   <rect x="715.538979" y="8.64" width="10.722041" height="54.36"/>
  </clipPath>
  <clipPath id="padfc178f8d">
   <rect x="729" y="8.881927" width="16.2" height="53.876147"/>
  </clipPath>
 </defs>
</svg>
