<?xml version="1.0" encoding="utf-8" standalone="no"?>
<!DOCTYPE svg PUBLIC "-//W3C//DTD SVG 1.1//EN"
  "http://www.w3.org/Graphics/SVG/1.1/DTD/svg11.dtd">
<svg xmlns:xlink="http://www.w3.org/1999/xlink" width="864pt" height="72pt" viewBox="0 0 864 72" xmlns="http://www.w3.org/2000/svg" version="1.1">
 <metadata>
  <rdf:RDF xmlns:dc="http://purl.org/dc/elements/1.1/" xmlns:cc="http://creativecommons.org/ns#" xmlns:rdf="http://www.w3.org/1999/02/22-rdf-syntax-ns#">
   <cc:Work>
    <dc:type rdf:resource="http://purl.org/dc/dcmitype/StillImage"/>
    <dc:date>2023-12-21T11:50:51.768480</dc:date>
    <dc:format>image/svg+xml</dc:format>
    <dc:creator>
     <cc:Agent>
      <dc:title>Matplotlib v3.5.1, https://matplotlib.org/</dc:title>
     </cc:Agent>
    </dc:creator>
   </cc:Work>
  </rdf:RDF>
 </metadata>
 <defs>
  <style type="text/css">*{stroke-linejoin: round; stroke-linecap: butt}</style>
 </defs>
 <g id="figure_1">
  <g id="patch_1">
   <path d="M 0 72 
L 864 72 
L 864 0 
L 0 0 
z
" style="fill: #8fff9f"/>
  </g>
  <g id="axes_1">
   <g id="patch_2">
    <path d="M 13.356735 34.365306 
Q 13.356735 34.365306 12.860816 34.365306 
Q 12.067347 34.365306 10.579592 34.067755 
Q 9.091837 33.770204 8.298367 33.770204 
Q 5.521224 33.770204 3.587143 35.224898 
Q 1.653061 36.679592 1.653061 39.423673 
Q 1.653061 40.94449 3.140816 42.399184 
Q 4.628571 43.853878 6.562653 44.663878 
Q 8.496735 45.473878 9.98449 45.473878 
Q 10.910204 45.473878 11.60449 45.110204 
Q 12.298776 44.746531 13.042653 44.118367 
Q 13.786531 43.490204 14.348571 43.192653 
L 14.546939 42.696735 
" clip-path="url(#p437c5b390d)" style="fill: none; stroke: #000000; stroke-linejoin: miter"/>
   </g>
  </g>
  <g id="axes_2">
   <g id="patch_3">
    <path d="M 19.688772 35.145186 
Q 19.688772 35.145186 19.688772 35.595062 
Q 19.688772 36.269876 19.576303 37.619503 
Q 19.463834 38.969131 19.463834 39.643945 
Q 19.463834 41.930814 20.700993 43.599103 
Q 21.938152 45.267393 24.075062 45.267393 
Q 25.462179 45.154924 26.230717 43.917766 
Q 26.999255 42.680607 27.149214 41.237255 
Q 27.299172 39.793903 27.5616 37.9944 
Q 27.824028 36.194897 28.236414 35.370124 
Q 28.386372 35.070207 28.386372 35.670041 
Q 28.386372 36.269876 28.123945 38.706703 
Q 27.899007 41.031062 27.899007 41.555917 
Q 27.749048 42.643117 28.086455 43.767807 
Q 28.423862 44.892497 29.136166 45.6048 
" clip-path="url(#p4078d3248f)" style="fill: none; stroke: #000000; stroke-linejoin: miter"/>
   </g>
  </g>
  <g id="axes_3">
   <g id="patch_4">
    <path d="M 35.663834 37.95691 
L 36.338648 37.95691 
Q 37.050952 37.95691 37.838234 37.881931 
Q 38.625517 37.806952 39.581503 37.675738 
Q 40.53749 37.544524 41.062345 37.507034 
L 45.336166 35.82 
M 41.287283 30.42149 
L 41.287283 31.43371 
Q 41.287283 33.383172 40.612469 37.207117 
Q 39.937655 41.031062 39.937655 43.018014 
Q 39.937655 43.805297 39.937655 44.105214 
Q 39.937655 44.405131 40.031379 45.042455 
Q 40.125103 45.679779 40.312552 45.960952 
Q 40.5 46.242124 40.893641 46.485807 
Q 41.287283 46.72949 41.849628 46.72949 
Q 41.962097 46.692 42.280759 46.72949 
Q 42.599421 46.766979 42.786869 46.710745 
Q 42.974317 46.65451 42.974317 46.392083 
" clip-path="url(#p6e8881e706)" style="fill: none; stroke: #000000; stroke-linejoin: miter"/>
   </g>
  </g>
  <g id="axes_4">
   <g id="patch_5">
    <path d="M 50.457798 38.160826 
Q 53.430275 39.535596 58.149083 39.721376 
Q 59.672477 39.721376 60.359862 38.550963 
Q 61.047248 37.38055 61.047248 35.82 
Q 61.047248 35.299817 60.954358 34.909679 
Q 60.861468 34.519541 60.619954 34.296606 
Q 60.37844 34.07367 60.211239 33.943624 
Q 60.044037 33.813578 59.598165 33.757844 
Q 59.152294 33.70211 58.947936 33.683532 
Q 58.743578 33.664954 58.167661 33.683532 
Q 57.591743 33.70211 57.368807 33.70211 
Q 55.325229 33.70211 53.838991 35.578486 
Q 52.352752 37.454862 52.352752 39.609908 
Q 52.352752 42.619541 54.284862 44.570229 
Q 56.216972 46.520917 59.263761 46.520917 
Q 61.418807 46.818165 62.942202 44.29156 
" clip-path="url(#p35b7b12096)" style="fill: none; stroke: #000000; stroke-linejoin: miter"/>
   </g>
  </g>
  <g id="axes_5">
   <g id="patch_6">
    <path d="M 68.457476 43.917766 
Q 68.757393 44.180193 69.769614 45.154924 
Q 70.781834 46.129655 71.344179 46.560786 
Q 71.906524 46.991917 72.93749 47.385559 
Q 73.968455 47.7792 74.980676 47.629241 
Q 75.65549 47.629241 76.12411 47.404303 
Q 76.592731 47.179366 76.817669 46.879448 
Q 77.042607 46.579531 77.173821 45.979697 
Q 77.305034 45.379862 77.323779 44.967476 
Q 77.342524 44.55509 77.342524 43.805297 
Q 77.342524 42.718097 76.442772 42.043283 
Q 75.543021 41.368469 74.249628 41.031062 
Q 72.956234 40.693655 71.662841 40.300014 
Q 70.369448 39.906372 69.469697 38.987876 
Q 68.569945 38.069379 68.569945 36.607283 
Q 68.569945 36.082428 68.738648 35.726276 
Q 68.907352 35.370124 69.300993 35.145186 
Q 69.694634 34.920248 69.975807 34.807779 
Q 70.256979 34.69531 70.913048 34.639076 
Q 71.569117 34.582841 71.756566 34.582841 
Q 71.944014 34.582841 72.618828 34.582841 
Q 73.818497 34.582841 74.399586 34.995228 
Q 74.980676 35.407614 75.299338 36.026193 
Q 75.618 36.644772 75.880428 36.832221 
" clip-path="url(#p98f6a1ddd3)" style="fill: none; stroke: #000000; stroke-linejoin: miter"/>
   </g>
  </g>
  <g id="axes_6">
   <g id="patch_7">
    <path d="M 84.263834 37.95691 
L 84.938648 37.95691 
Q 85.650952 37.95691 86.438234 37.881931 
Q 87.225517 37.806952 88.181503 37.675738 
Q 89.13749 37.544524 89.662345 37.507034 
L 93.936166 35.82 
M 89.887283 30.42149 
L 89.887283 31.43371 
Q 89.887283 33.383172 89.212469 37.207117 
Q 88.537655 41.031062 88.537655 43.018014 
Q 88.537655 43.805297 88.537655 44.105214 
Q 88.537655 44.405131 88.631379 45.042455 
Q 88.725103 45.679779 88.912552 45.960952 
Q 89.1 46.242124 89.493641 46.485807 
Q 89.887283 46.72949 90.449628 46.72949 
Q 90.562097 46.692 90.880759 46.72949 
Q 91.199421 46.766979 91.386869 46.710745 
Q 91.574317 46.65451 91.574317 46.392083 
" clip-path="url(#p3b16452397)" style="fill: none; stroke: #000000; stroke-linejoin: miter"/>
   </g>
  </g>
  <g id="axes_7"/>
  <g id="axes_8">
   <g id="patch_8">
    <path d="M 122.118579 29.071862 
Q 121.743683 29.146841 121.612469 29.577972 
Q 121.481255 30.009103 121.556234 30.42149 
Q 121.556234 30.571448 121.593724 30.702662 
Q 121.631214 30.833876 121.687448 30.89011 
Q 121.743683 30.946345 121.799917 31.040069 
Q 121.856152 31.133793 121.893641 31.208772 
L 122.00611 29.859145 
M 122.00611 34.020497 
Q 121.106359 39.006621 120.881421 42.793076 
L 121.331297 45.379862 
L 121.668703 46.054676 
" clip-path="url(#p99a9516b24)" style="fill: none; stroke: #000000; stroke-linejoin: miter"/>
   </g>
  </g>
  <g id="axes_9">
   <g id="patch_9">
    <path d="M 133.238731 37.282097 
L 133.238731 37.844441 
Q 133.501159 39.868883 133.538648 41.312234 
Q 133.576138 42.755586 133.482414 44.667559 
Q 133.38869 46.579531 133.38869 48.191586 
L 133.463669 39.643945 
Q 133.463669 38.144359 135.056979 37.507034 
Q 136.65029 36.86971 138.074897 37.282097 
Q 139.986869 37.844441 140.905366 39.04411 
Q 141.823862 40.243779 141.880097 41.668386 
Q 141.936331 43.092993 141.973821 44.817517 
Q 142.01131 46.542041 142.161269 48.191586 
" clip-path="url(#pec2ba52e35)" style="fill: none; stroke: #000000; stroke-linejoin: miter"/>
   </g>
  </g>
  <g id="axes_10"/>
  <g id="axes_11">
   <g id="patch_10">
    <path d="M 165.263834 37.95691 
L 165.938648 37.95691 
Q 166.650952 37.95691 167.438234 37.881931 
Q 168.225517 37.806952 169.181503 37.675738 
Q 170.13749 37.544524 170.662345 37.507034 
L 174.936166 35.82 
M 170.887283 30.42149 
L 170.887283 31.43371 
Q 170.887283 33.383172 170.212469 37.207117 
Q 169.537655 41.031062 169.537655 43.018014 
Q 169.537655 43.805297 169.537655 44.105214 
Q 169.537655 44.405131 169.631379 45.042455 
Q 169.725103 45.679779 169.912552 45.960952 
Q 170.1 46.242124 170.493641 46.485807 
Q 170.887283 46.72949 171.449628 46.72949 
Q 171.562097 46.692 171.880759 46.72949 
Q 172.199421 46.766979 172.386869 46.710745 
Q 172.574317 46.65451 172.574317 46.392083 
" clip-path="url(#p1dcc555b54)" style="fill: none; stroke: #000000; stroke-linejoin: miter"/>
   </g>
  </g>
  <g id="axes_12">
   <g id="patch_11">
    <path d="M 182.813462 35.932469 
Q 183.413297 35.257655 184.406772 34.826524 
Q 185.400248 34.395393 186.3 34.470372 
Q 186.937324 34.470372 187.42469 34.639076 
Q 187.912055 34.807779 188.230717 34.995228 
Q 188.549379 35.182676 188.774317 35.670041 
Q 188.999255 36.157407 189.111724 36.419834 
Q 189.224193 36.682262 189.280428 37.375821 
Q 189.336662 38.069379 189.355407 38.331807 
Q 189.374152 38.594234 189.355407 39.419007 
Q 189.336662 40.243779 189.336662 40.431228 
Q 189.336662 41.368469 189.167959 43.242952 
Q 188.999255 45.117434 188.999255 46.054676 
Q 188.999255 46.467062 189.05549 46.823214 
Q 189.111724 47.179366 189.205448 47.610497 
Q 189.299172 48.041628 189.336662 48.304055 
L 189.786538 48.528993 
M 183.263338 23.111007 
Q 183.488276 24.798041 183.488276 29.971614 
L 183.488276 42.3432 
L 183.150869 46.841959 
L 182.925931 47.74171 
" clip-path="url(#p7e6781f8b7)" style="fill: none; stroke: #000000; stroke-linejoin: miter"/>
   </g>
  </g>
  <g id="axes_13">
   <g id="patch_12">
    <path d="M 205.7616 35.032717 
Q 204.71189 34.582841 203.737159 34.69531 
Q 200.700497 35.032717 198.788524 36.701007 
Q 196.876552 38.369297 196.876552 41.330979 
Q 196.876552 43.917766 198.882248 45.6048 
Q 200.887945 47.291834 203.512221 47.291834 
Q 205.874069 47.291834 206.998759 45.361117 
Q 208.123448 43.4304 208.123448 40.881103 
Q 208.123448 39.643945 207.711062 38.706703 
Q 207.298676 37.769462 206.773821 37.300841 
Q 206.248966 36.832221 205.499172 36.119917 
Q 204.749379 35.407614 204.299503 34.69531 
L 203.062345 34.245434 
" clip-path="url(#p27efd9aa13)" style="fill: none; stroke: #000000; stroke-linejoin: miter"/>
   </g>
  </g>
  <g id="axes_14">
   <g id="patch_13">
    <path d="M 214.257476 43.917766 
Q 214.557393 44.180193 215.569614 45.154924 
Q 216.581834 46.129655 217.144179 46.560786 
Q 217.706524 46.991917 218.73749 47.385559 
Q 219.768455 47.7792 220.780676 47.629241 
Q 221.45549 47.629241 221.92411 47.404303 
Q 222.392731 47.179366 222.617669 46.879448 
Q 222.842607 46.579531 222.973821 45.979697 
Q 223.105034 45.379862 223.123779 44.967476 
Q 223.142524 44.55509 223.142524 43.805297 
Q 223.142524 42.718097 222.242772 42.043283 
Q 221.343021 41.368469 220.049628 41.031062 
Q 218.756234 40.693655 217.462841 40.300014 
Q 216.169448 39.906372 215.269697 38.987876 
Q 214.369945 38.069379 214.369945 36.607283 
Q 214.369945 36.082428 214.538648 35.726276 
Q 214.707352 35.370124 215.100993 35.145186 
Q 215.494634 34.920248 215.775807 34.807779 
Q 216.056979 34.69531 216.713048 34.639076 
Q 217.369117 34.582841 217.556566 34.582841 
Q 217.744014 34.582841 218.418828 34.582841 
Q 219.618497 34.582841 220.199586 34.995228 
Q 220.780676 35.407614 221.099338 36.026193 
Q 221.418 36.644772 221.680428 36.832221 
" clip-path="url(#p4fca839e11)" style="fill: none; stroke: #000000; stroke-linejoin: miter"/>
   </g>
  </g>
  <g id="axes_15">
   <g id="patch_14">
    <path d="M 228.657798 38.160826 
Q 231.630275 39.535596 236.349083 39.721376 
Q 237.872477 39.721376 238.559862 38.550963 
Q 239.247248 37.38055 239.247248 35.82 
Q 239.247248 35.299817 239.154358 34.909679 
Q 239.061468 34.519541 238.819954 34.296606 
Q 238.57844 34.07367 238.411239 33.943624 
Q 238.244037 33.813578 237.798165 33.757844 
Q 237.352294 33.70211 237.147936 33.683532 
Q 236.943578 33.664954 236.367661 33.683532 
Q 235.791743 33.70211 235.568807 33.70211 
Q 233.525229 33.70211 232.038991 35.578486 
Q 230.552752 37.454862 230.552752 39.609908 
Q 230.552752 42.619541 232.484862 44.570229 
Q 234.416972 46.520917 237.463761 46.520917 
Q 239.618807 46.818165 241.142202 44.29156 
" clip-path="url(#p208983950c)" style="fill: none; stroke: #000000; stroke-linejoin: miter"/>
   </g>
  </g>
  <g id="axes_16"/>
  <g id="axes_17">
   <g id="patch_15">
    <path d="M 261.008036 34.879821 
Q 261.514286 36.073125 261.803571 42.871339 
Q 261.948214 46.632054 262.2375 46.632054 
Q 262.273661 46.632054 262.309821 46.595893 
Q 262.816071 46.017321 262.870312 44.588973 
Q 262.924554 43.160625 262.707589 41.750357 
Q 262.490625 40.340089 262.2375 38.712857 
Q 261.984375 37.085625 261.984375 36.398571 
Q 261.984375 35.169107 262.364062 33.939643 
Q 262.74375 32.710179 263.720089 32.710179 
Q 264.949554 32.710179 265.672768 34.355491 
Q 266.395982 36.000804 266.558705 37.971563 
Q 266.721429 39.942321 266.829911 41.587634 
Q 266.938393 43.232946 267.083036 43.232946 
Q 267.227679 43.232946 267.31808 41.497232 
Q 267.408482 39.761518 267.535045 37.700357 
Q 267.661607 35.639196 268.384821 33.903482 
Q 269.108036 32.167768 270.3375 32.167768 
Q 271.892411 33.035625 272.561384 34.771339 
Q 273.230357 36.507054 273.194196 38.188527 
Q 273.158036 39.87 273.176116 42.057723 
Q 273.194196 44.245446 273.591964 45.511071 
" clip-path="url(#pdf83b2acef)" style="fill: none; stroke: #000000; stroke-linejoin: miter"/>
   </g>
  </g>
  <g id="axes_18">
   <g id="patch_16">
    <path d="M 289.043923 36.441748 
Q 287.834968 35.094627 283.862687 35.094627 
Q 282.342857 35.094627 281.565672 35.146439 
Q 280.788486 35.198252 279.78678 35.440043 
Q 278.785075 35.681834 278.301493 36.182687 
Q 277.81791 36.683539 277.472495 37.616162 
Q 277.127079 38.548785 277.127079 39.964989 
Q 277.127079 42.037484 278.543284 43.280981 
Q 279.959488 44.524478 281.893817 44.524478 
Q 284.553518 44.524478 287.316844 38.721493 
Q 288.663966 35.854542 288.663966 35.82 
Q 289.009382 35.578209 289.043923 36.441748 
Q 289.043923 37.512537 289.458422 40.362217 
Q 289.872921 43.211898 289.872921 44.524478 
" clip-path="url(#p41e713d377)" style="fill: none; stroke: #000000; stroke-linejoin: miter"/>
   </g>
  </g>
  <g id="axes_19">
   <g id="patch_17">
    <path d="M 294.863834 37.95691 
L 295.538648 37.95691 
Q 296.250952 37.95691 297.038234 37.881931 
Q 297.825517 37.806952 298.781503 37.675738 
Q 299.73749 37.544524 300.262345 37.507034 
L 304.536166 35.82 
M 300.487283 30.42149 
L 300.487283 31.43371 
Q 300.487283 33.383172 299.812469 37.207117 
Q 299.137655 41.031062 299.137655 43.018014 
Q 299.137655 43.805297 299.137655 44.105214 
Q 299.137655 44.405131 299.231379 45.042455 
Q 299.325103 45.679779 299.512552 45.960952 
Q 299.7 46.242124 300.093641 46.485807 
Q 300.487283 46.72949 301.049628 46.72949 
Q 301.162097 46.692 301.480759 46.72949 
Q 301.799421 46.766979 301.986869 46.710745 
Q 302.174317 46.65451 302.174317 46.392083 
" clip-path="url(#pa55eb51a12)" style="fill: none; stroke: #000000; stroke-linejoin: miter"/>
   </g>
  </g>
  <g id="axes_20">
   <g id="patch_18">
    <path d="M 321.156735 34.365306 
Q 321.156735 34.365306 320.660816 34.365306 
Q 319.867347 34.365306 318.379592 34.067755 
Q 316.891837 33.770204 316.098367 33.770204 
Q 313.321224 33.770204 311.387143 35.224898 
Q 309.453061 36.679592 309.453061 39.423673 
Q 309.453061 40.94449 310.940816 42.399184 
Q 312.428571 43.853878 314.362653 44.663878 
Q 316.296735 45.473878 317.78449 45.473878 
Q 318.710204 45.473878 319.40449 45.110204 
Q 320.098776 44.746531 320.842653 44.118367 
Q 321.586531 43.490204 322.148571 43.192653 
L 322.346939 42.696735 
" clip-path="url(#p01a7b3a8b3)" style="fill: none; stroke: #000000; stroke-linejoin: miter"/>
   </g>
  </g>
  <g id="axes_21">
   <g id="patch_19">
    <path d="M 328.613462 35.932469 
Q 329.213297 35.257655 330.206772 34.826524 
Q 331.200248 34.395393 332.1 34.470372 
Q 332.737324 34.470372 333.22469 34.639076 
Q 333.712055 34.807779 334.030717 34.995228 
Q 334.349379 35.182676 334.574317 35.670041 
Q 334.799255 36.157407 334.911724 36.419834 
Q 335.024193 36.682262 335.080428 37.375821 
Q 335.136662 38.069379 335.155407 38.331807 
Q 335.174152 38.594234 335.155407 39.419007 
Q 335.136662 40.243779 335.136662 40.431228 
Q 335.136662 41.368469 334.967959 43.242952 
Q 334.799255 45.117434 334.799255 46.054676 
Q 334.799255 46.467062 334.85549 46.823214 
Q 334.911724 47.179366 335.005448 47.610497 
Q 335.099172 48.041628 335.136662 48.304055 
L 335.586538 48.528993 
M 329.063338 23.111007 
Q 329.288276 24.798041 329.288276 29.971614 
L 329.288276 42.3432 
L 328.950869 46.841959 
L 328.725931 47.74171 
" clip-path="url(#p876386ef9d)" style="fill: none; stroke: #000000; stroke-linejoin: miter"/>
   </g>
  </g>
  <g id="axes_22">
   <g id="patch_20">
    <path d="M 348.918579 29.071862 
Q 348.543683 29.146841 348.412469 29.577972 
Q 348.281255 30.009103 348.356234 30.42149 
Q 348.356234 30.571448 348.393724 30.702662 
Q 348.431214 30.833876 348.487448 30.89011 
Q 348.543683 30.946345 348.599917 31.040069 
Q 348.656152 31.133793 348.693641 31.208772 
L 348.80611 29.859145 
M 348.80611 34.020497 
Q 347.906359 39.006621 347.681421 42.793076 
L 348.131297 45.379862 
L 348.468703 46.054676 
" clip-path="url(#p630c12d632)" style="fill: none; stroke: #000000; stroke-linejoin: miter"/>
   </g>
  </g>
  <g id="axes_23">
   <g id="patch_21">
    <path d="M 360.038731 37.282097 
L 360.038731 37.844441 
Q 360.301159 39.868883 360.338648 41.312234 
Q 360.376138 42.755586 360.282414 44.667559 
Q 360.18869 46.579531 360.18869 48.191586 
L 360.263669 39.643945 
Q 360.263669 38.144359 361.856979 37.507034 
Q 363.45029 36.86971 364.874897 37.282097 
Q 366.786869 37.844441 367.705366 39.04411 
Q 368.623862 40.243779 368.680097 41.668386 
Q 368.736331 43.092993 368.773821 44.817517 
Q 368.81131 46.542041 368.961269 48.191586 
" clip-path="url(#p8ae6b9bb41)" style="fill: none; stroke: #000000; stroke-linejoin: miter"/>
   </g>
  </g>
  <g id="axes_24">
   <g id="patch_22">
    <path d="M 385.487191 39.096404 
Q 385.23236 39.023596 384.26764 38.623146 
Q 383.302921 38.222697 382.64764 38.077079 
Q 381.99236 37.931461 381.337079 38.00427 
Q 378.715955 38.00427 377.077753 40.388764 
Q 375.439551 42.773258 375.439551 45.430787 
Q 375.439551 47.068989 380.681798 47.068989 
Q 382.247191 47.068989 383.575955 45.558202 
Q 384.904719 44.047416 385.578202 42.172584 
Q 386.251685 40.297753 386.251685 38.768764 
Q 386.251685 37.27618 386.215281 36.984944 
L 386.142472 38.077079 
Q 386.142472 38.550337 386.142472 38.987191 
Q 386.178876 40.188539 386.379101 42.281798 
Q 386.579326 44.375056 386.743146 46.049663 
Q 386.906966 47.72427 386.943371 49.872135 
Q 386.979775 52.02 386.815955 53.658202 
Q 386.652135 55.296404 386.087865 56.971011 
Q 385.523596 58.645618 384.595281 59.737753 
Q 383.666966 60.829888 382.065169 61.521573 
Q 380.463371 62.213258 378.315506 62.213258 
Q 376.677303 62.213258 375.585169 61.466966 
Q 374.493034 60.720674 374.493034 59.155281 
Q 374.420225 58.936854 374.456629 58.936854 
Q 374.493034 58.936854 374.602247 58.936854 
Q 374.711461 58.936854 374.711461 58.82764 
" clip-path="url(#pb77fdf0fc9)" style="fill: none; stroke: #000000; stroke-linejoin: miter"/>
   </g>
  </g>
  <g id="axes_25"/>
  <g id="axes_26">
   <g id="patch_23">
    <path d="M 408.263834 37.95691 
L 408.938648 37.95691 
Q 409.650952 37.95691 410.438234 37.881931 
Q 411.225517 37.806952 412.181503 37.675738 
Q 413.13749 37.544524 413.662345 37.507034 
L 417.936166 35.82 
M 413.887283 30.42149 
L 413.887283 31.43371 
Q 413.887283 33.383172 413.212469 37.207117 
Q 412.537655 41.031062 412.537655 43.018014 
Q 412.537655 43.805297 412.537655 44.105214 
Q 412.537655 44.405131 412.631379 45.042455 
Q 412.725103 45.679779 412.912552 45.960952 
Q 413.1 46.242124 413.493641 46.485807 
Q 413.887283 46.72949 414.449628 46.72949 
Q 414.562097 46.692 414.880759 46.72949 
Q 415.199421 46.766979 415.386869 46.710745 
Q 415.574317 46.65451 415.574317 46.392083 
" clip-path="url(#p474ccb9038)" style="fill: none; stroke: #000000; stroke-linejoin: miter"/>
   </g>
  </g>
  <g id="axes_27">
   <g id="patch_24">
    <path d="M 425.813462 32.783338 
Q 426.338317 34.507862 426.469531 36.457324 
Q 426.600745 38.406786 426.525766 40.956083 
Q 426.450786 43.505379 426.488276 44.705048 
L 426.600745 46.054676 
L 426.600745 45.829738 
Q 426.600745 44.667559 426.319572 42.30571 
Q 426.0384 39.943862 426.0384 38.744193 
Q 426.0384 36.419834 427.050621 34.882759 
Q 428.062841 33.345683 430.087283 33.345683 
Q 430.799586 33.345683 431.136993 33.626855 
Q 431.4744 33.908028 431.736828 34.432883 
Q 431.999255 34.957738 432.336662 35.257655 
L 432.786538 36.832221 
" clip-path="url(#pf70df76e80)" style="fill: none; stroke: #000000; stroke-linejoin: miter"/>
   </g>
  </g>
  <g id="axes_28">
   <g id="patch_25">
    <path d="M 451.043923 36.441748 
Q 449.834968 35.094627 445.862687 35.094627 
Q 444.342857 35.094627 443.565672 35.146439 
Q 442.788486 35.198252 441.78678 35.440043 
Q 440.785075 35.681834 440.301493 36.182687 
Q 439.81791 36.683539 439.472495 37.616162 
Q 439.127079 38.548785 439.127079 39.964989 
Q 439.127079 42.037484 440.543284 43.280981 
Q 441.959488 44.524478 443.893817 44.524478 
Q 446.553518 44.524478 449.316844 38.721493 
Q 450.663966 35.854542 450.663966 35.82 
Q 451.009382 35.578209 451.043923 36.441748 
Q 451.043923 37.512537 451.458422 40.362217 
Q 451.872921 43.211898 451.872921 44.524478 
" clip-path="url(#pbae365003a)" style="fill: none; stroke: #000000; stroke-linejoin: miter"/>
   </g>
  </g>
  <g id="axes_29">
   <g id="patch_26">
    <path d="M 466.956735 34.365306 
Q 466.956735 34.365306 466.460816 34.365306 
Q 465.667347 34.365306 464.179592 34.067755 
Q 462.691837 33.770204 461.898367 33.770204 
Q 459.121224 33.770204 457.187143 35.224898 
Q 455.253061 36.679592 455.253061 39.423673 
Q 455.253061 40.94449 456.740816 42.399184 
Q 458.228571 43.853878 460.162653 44.663878 
Q 462.096735 45.473878 463.58449 45.473878 
Q 464.510204 45.473878 465.20449 45.110204 
Q 465.898776 44.746531 466.642653 44.118367 
Q 467.386531 43.490204 467.948571 43.192653 
L 468.146939 42.696735 
" clip-path="url(#p9304d142a8)" style="fill: none; stroke: #000000; stroke-linejoin: miter"/>
   </g>
  </g>
  <g id="axes_30">
   <g id="patch_27">
    <path d="M 475.931793 37.169628 
Q 477.956234 39.194069 479.718248 41.76211 
Q 481.480262 44.330152 482.342524 46.72949 
M 478.968455 31.321241 
L 478.968455 31.546179 
Q 478.968455 32.333462 478.331131 33.514386 
Q 477.693807 34.69531 476.719076 36.101172 
Q 475.744345 37.507034 475.481917 37.95691 
L 474.244759 39.643945 
M 473.457476 26.710014 
Q 475.294469 36.269876 475.481917 48.641462 
" clip-path="url(#pa76d012219)" style="fill: none; stroke: #000000; stroke-linejoin: miter"/>
   </g>
  </g>
  <g id="axes_31">
   <g id="patch_28">
    <path d="M 489.657476 43.917766 
Q 489.957393 44.180193 490.969614 45.154924 
Q 491.981834 46.129655 492.544179 46.560786 
Q 493.106524 46.991917 494.13749 47.385559 
Q 495.168455 47.7792 496.180676 47.629241 
Q 496.85549 47.629241 497.32411 47.404303 
Q 497.792731 47.179366 498.017669 46.879448 
Q 498.242607 46.579531 498.373821 45.979697 
Q 498.505034 45.379862 498.523779 44.967476 
Q 498.542524 44.55509 498.542524 43.805297 
Q 498.542524 42.718097 497.642772 42.043283 
Q 496.743021 41.368469 495.449628 41.031062 
Q 494.156234 40.693655 492.862841 40.300014 
Q 491.569448 39.906372 490.669697 38.987876 
Q 489.769945 38.069379 489.769945 36.607283 
Q 489.769945 36.082428 489.938648 35.726276 
Q 490.107352 35.370124 490.500993 35.145186 
Q 490.894634 34.920248 491.175807 34.807779 
Q 491.456979 34.69531 492.113048 34.639076 
Q 492.769117 34.582841 492.956566 34.582841 
Q 493.144014 34.582841 493.818828 34.582841 
Q 495.018497 34.582841 495.599586 34.995228 
Q 496.180676 35.407614 496.499338 36.026193 
Q 496.818 36.644772 497.080428 36.832221 
" clip-path="url(#pc513d1ff00)" style="fill: none; stroke: #000000; stroke-linejoin: miter"/>
   </g>
  </g>
  <g id="axes_32">
   <g id="patch_29">
    <path d="M 505.688772 35.145186 
Q 505.688772 35.145186 505.688772 35.595062 
Q 505.688772 36.269876 505.576303 37.619503 
Q 505.463834 38.969131 505.463834 39.643945 
Q 505.463834 41.930814 506.700993 43.599103 
Q 507.938152 45.267393 510.075062 45.267393 
Q 511.462179 45.154924 512.230717 43.917766 
Q 512.999255 42.680607 513.149214 41.237255 
Q 513.299172 39.793903 513.5616 37.9944 
Q 513.824028 36.194897 514.236414 35.370124 
Q 514.386372 35.070207 514.386372 35.670041 
Q 514.386372 36.269876 514.123945 38.706703 
Q 513.899007 41.031062 513.899007 41.555917 
Q 513.749048 42.643117 514.086455 43.767807 
Q 514.423862 44.892497 515.136166 45.6048 
" clip-path="url(#p62c7fcf657)" style="fill: none; stroke: #000000; stroke-linejoin: miter"/>
   </g>
  </g>
  <g id="axes_33">
   <g id="patch_30">
    <path d="M 527.118579 29.071862 
Q 526.743683 29.146841 526.612469 29.577972 
Q 526.481255 30.009103 526.556234 30.42149 
Q 526.556234 30.571448 526.593724 30.702662 
Q 526.631214 30.833876 526.687448 30.89011 
Q 526.743683 30.946345 526.799917 31.040069 
Q 526.856152 31.133793 526.893641 31.208772 
L 527.00611 29.859145 
M 527.00611 34.020497 
Q 526.106359 39.006621 525.881421 42.793076 
L 526.331297 45.379862 
L 526.668703 46.054676 
" clip-path="url(#p8421732944)" style="fill: none; stroke: #000000; stroke-linejoin: miter"/>
   </g>
  </g>
  <g id="axes_34">
   <g id="patch_31">
    <path d="M 537.863834 37.95691 
L 538.538648 37.95691 
Q 539.250952 37.95691 540.038234 37.881931 
Q 540.825517 37.806952 541.781503 37.675738 
Q 542.73749 37.544524 543.262345 37.507034 
L 547.536166 35.82 
M 543.487283 30.42149 
L 543.487283 31.43371 
Q 543.487283 33.383172 542.812469 37.207117 
Q 542.137655 41.031062 542.137655 43.018014 
Q 542.137655 43.805297 542.137655 44.105214 
Q 542.137655 44.405131 542.231379 45.042455 
Q 542.325103 45.679779 542.512552 45.960952 
Q 542.7 46.242124 543.093641 46.485807 
Q 543.487283 46.72949 544.049628 46.72949 
Q 544.162097 46.692 544.480759 46.72949 
Q 544.799421 46.766979 544.986869 46.710745 
Q 545.174317 46.65451 545.174317 46.392083 
" clip-path="url(#pfec730e5be)" style="fill: none; stroke: #000000; stroke-linejoin: miter"/>
   </g>
  </g>
  <g id="axes_35">
   <g id="patch_32">
    <path d="M 554.457476 43.917766 
Q 554.757393 44.180193 555.769614 45.154924 
Q 556.781834 46.129655 557.344179 46.560786 
Q 557.906524 46.991917 558.93749 47.385559 
Q 559.968455 47.7792 560.980676 47.629241 
Q 561.65549 47.629241 562.12411 47.404303 
Q 562.592731 47.179366 562.817669 46.879448 
Q 563.042607 46.579531 563.173821 45.979697 
Q 563.305034 45.379862 563.323779 44.967476 
Q 563.342524 44.55509 563.342524 43.805297 
Q 563.342524 42.718097 562.442772 42.043283 
Q 561.543021 41.368469 560.249628 41.031062 
Q 558.956234 40.693655 557.662841 40.300014 
Q 556.369448 39.906372 555.469697 38.987876 
Q 554.569945 38.069379 554.569945 36.607283 
Q 554.569945 36.082428 554.738648 35.726276 
Q 554.907352 35.370124 555.300993 35.145186 
Q 555.694634 34.920248 555.975807 34.807779 
Q 556.256979 34.69531 556.913048 34.639076 
Q 557.569117 34.582841 557.756566 34.582841 
Q 557.944014 34.582841 558.618828 34.582841 
Q 559.818497 34.582841 560.399586 34.995228 
Q 560.980676 35.407614 561.299338 36.026193 
Q 561.618 36.644772 561.880428 36.832221 
" clip-path="url(#p4460abec2b)" style="fill: none; stroke: #000000; stroke-linejoin: miter"/>
   </g>
  </g>
  <g id="axes_36"/>
  <g id="axes_37">
   <g id="patch_33">
    <path d="M 594.5616 35.032717 
Q 593.51189 34.582841 592.537159 34.69531 
Q 589.500497 35.032717 587.588524 36.701007 
Q 585.676552 38.369297 585.676552 41.330979 
Q 585.676552 43.917766 587.682248 45.6048 
Q 589.687945 47.291834 592.312221 47.291834 
Q 594.674069 47.291834 595.798759 45.361117 
Q 596.923448 43.4304 596.923448 40.881103 
Q 596.923448 39.643945 596.511062 38.706703 
Q 596.098676 37.769462 595.573821 37.300841 
Q 595.048966 36.832221 594.299172 36.119917 
Q 593.549379 35.407614 593.099503 34.69531 
L 591.862345 34.245434 
" clip-path="url(#p833df90e8e)" style="fill: none; stroke: #000000; stroke-linejoin: miter"/>
   </g>
  </g>
  <g id="axes_38">
   <g id="patch_34">
    <path d="M 601.184141 38.85304 
L 601.612335 38.85304 
Q 602.43304 38.85304 603.396476 38.745991 
Q 604.359912 38.638943 605.519604 38.460529 
Q 606.679295 38.282115 607.285903 38.210749 
L 613.815859 35.427489 
M 613.494714 25.793128 
Q 613.209251 25.721762 612.174449 25.275727 
Q 611.139648 24.829692 610.497357 24.93674 
Q 609.855066 24.93674 609.337665 25.150837 
Q 608.820264 25.364934 608.481278 25.793128 
Q 608.142291 26.221322 607.87467 26.685198 
Q 607.607048 27.149075 607.464317 27.862731 
Q 607.321586 28.576388 607.214537 29.129471 
Q 607.107489 29.682555 607.089648 30.50326 
Q 607.071806 31.323965 607.053965 31.77 
Q 607.036123 32.216035 607.053965 32.965374 
Q 607.071806 33.714714 607.071806 33.928811 
Q 607.071806 36.605022 607.767621 41.850396 
Q 608.463436 47.095771 608.463436 49.771982 
Q 608.39207 50.057445 608.356388 50.681894 
Q 608.320705 51.306344 608.213656 51.805903 
Q 608.106608 52.305463 607.821145 52.555242 
" clip-path="url(#p5e50408f78)" style="fill: none; stroke: #000000; stroke-linejoin: miter"/>
   </g>
  </g>
  <g id="axes_39"/>
  <g id="axes_40">
   <g id="patch_35">
    <path d="M 634.763917 36.382345 
Q 634.726428 36.494814 634.857641 36.701007 
Q 634.988855 36.9072 634.876386 37.057159 
L 634.876386 39.306538 
Q 634.876386 40.506207 635.213793 41.724621 
Q 635.5512 42.943034 636.413462 43.93651 
Q 637.275724 44.929986 638.475393 44.929986 
Q 639.712552 44.929986 640.387366 43.861531 
Q 641.062179 42.793076 641.512055 41.143531 
Q 641.961931 39.493986 642.299338 38.969131 
L 643.086621 36.382345 
L 642.861683 42.680607 
L 642.861683 45.154924 
Q 642.861683 47.066897 643.592731 51.00331 
Q 644.323779 54.939724 644.323779 56.964166 
Q 645.073572 59.213545 643.986372 60.188276 
Q 642.899172 61.163007 640.837241 60.78811 
Q 639.037738 60.488193 638.119241 60.169531 
Q 637.200745 59.850869 635.213793 58.988607 
L 635.101324 58.426262 
" clip-path="url(#p05e35b8f22)" style="fill: none; stroke: #000000; stroke-linejoin: miter"/>
   </g>
  </g>
  <g id="axes_41">
   <g id="patch_36">
    <path d="M 659.3616 35.032717 
Q 658.31189 34.582841 657.337159 34.69531 
Q 654.300497 35.032717 652.388524 36.701007 
Q 650.476552 38.369297 650.476552 41.330979 
Q 650.476552 43.917766 652.482248 45.6048 
Q 654.487945 47.291834 657.112221 47.291834 
Q 659.474069 47.291834 660.598759 45.361117 
Q 661.723448 43.4304 661.723448 40.881103 
Q 661.723448 39.643945 661.311062 38.706703 
Q 660.898676 37.769462 660.373821 37.300841 
Q 659.848966 36.832221 659.099172 36.119917 
Q 658.349379 35.407614 657.899503 34.69531 
L 656.662345 34.245434 
" clip-path="url(#pc71b4de4c7)" style="fill: none; stroke: #000000; stroke-linejoin: miter"/>
   </g>
  </g>
  <g id="axes_42">
   <g id="patch_37">
    <path d="M 667.688772 35.145186 
Q 667.688772 35.145186 667.688772 35.595062 
Q 667.688772 36.269876 667.576303 37.619503 
Q 667.463834 38.969131 667.463834 39.643945 
Q 667.463834 41.930814 668.700993 43.599103 
Q 669.938152 45.267393 672.075062 45.267393 
Q 673.462179 45.154924 674.230717 43.917766 
Q 674.999255 42.680607 675.149214 41.237255 
Q 675.299172 39.793903 675.5616 37.9944 
Q 675.824028 36.194897 676.236414 35.370124 
Q 676.386372 35.070207 676.386372 35.670041 
Q 676.386372 36.269876 676.123945 38.706703 
Q 675.899007 41.031062 675.899007 41.555917 
Q 675.749048 42.643117 676.086455 43.767807 
Q 676.423862 44.892497 677.136166 45.6048 
" clip-path="url(#p57763b84b7)" style="fill: none; stroke: #000000; stroke-linejoin: miter"/>
   </g>
  </g>
  <g id="axes_43">
   <g id="patch_38">
    <path d="M 685.013462 32.783338 
Q 685.538317 34.507862 685.669531 36.457324 
Q 685.800745 38.406786 685.725766 40.956083 
Q 685.650786 43.505379 685.688276 44.705048 
L 685.800745 46.054676 
L 685.800745 45.829738 
Q 685.800745 44.667559 685.519572 42.30571 
Q 685.2384 39.943862 685.2384 38.744193 
Q 685.2384 36.419834 686.250621 34.882759 
Q 687.262841 33.345683 689.287283 33.345683 
Q 689.999586 33.345683 690.336993 33.626855 
Q 690.6744 33.908028 690.936828 34.432883 
Q 691.199255 34.957738 691.536662 35.257655 
L 691.986538 36.832221 
" clip-path="url(#pf0745557fa)" style="fill: none; stroke: #000000; stroke-linejoin: miter"/>
   </g>
  </g>
  <g id="axes_44">
   <g id="patch_39">
    <path d="M 700.257476 43.917766 
Q 700.557393 44.180193 701.569614 45.154924 
Q 702.581834 46.129655 703.144179 46.560786 
Q 703.706524 46.991917 704.73749 47.385559 
Q 705.768455 47.7792 706.780676 47.629241 
Q 707.45549 47.629241 707.92411 47.404303 
Q 708.392731 47.179366 708.617669 46.879448 
Q 708.842607 46.579531 708.973821 45.979697 
Q 709.105034 45.379862 709.123779 44.967476 
Q 709.142524 44.55509 709.142524 43.805297 
Q 709.142524 42.718097 708.242772 42.043283 
Q 707.343021 41.368469 706.049628 41.031062 
Q 704.756234 40.693655 703.462841 40.300014 
Q 702.169448 39.906372 701.269697 38.987876 
Q 700.369945 38.069379 700.369945 36.607283 
Q 700.369945 36.082428 700.538648 35.726276 
Q 700.707352 35.370124 701.100993 35.145186 
Q 701.494634 34.920248 701.775807 34.807779 
Q 702.056979 34.69531 702.713048 34.639076 
Q 703.369117 34.582841 703.556566 34.582841 
Q 703.744014 34.582841 704.418828 34.582841 
Q 705.618497 34.582841 706.199586 34.995228 
Q 706.780676 35.407614 707.099338 36.026193 
Q 707.418 36.644772 707.680428 36.832221 
" clip-path="url(#pb5da642a42)" style="fill: none; stroke: #000000; stroke-linejoin: miter"/>
   </g>
  </g>
  <g id="axes_45">
   <g id="patch_40">
    <path d="M 720.787531 45.979697 
Q 720.750041 46.017186 720.618828 46.054676 
Q 720.487614 46.092166 720.525103 46.167145 
Q 720.525103 46.579531 720.9 46.579531 
Q 721.237407 46.579531 721.237407 46.092166 
Q 721.312386 45.867228 721.031214 45.754759 
Q 720.750041 45.64229 720.562593 45.754759 
" clip-path="url(#pfaa6a3a402)" style="fill: none; stroke: #000000; stroke-linejoin: miter"/>
   </g>
  </g>
  <g id="axes_46"/>
  <g id="axes_47">
   <g id="patch_41">
    <path d="M 746.649016 45.151664 
L 746.909839 29.50229 
L 746.909839 28.893703 
Q 746.909839 28.66186 747.01127 28.299606 
Q 747.112701 27.937352 747.257603 27.937352 
Q 748.155993 27.937352 749.039893 29.270447 
Q 749.923792 30.603542 750.459928 32.19746 
Q 750.996064 33.791377 751.5322 35.124472 
Q 752.068336 36.457567 752.38712 36.457567 
Q 752.879785 36.457567 753.560823 35.023041 
Q 754.24186 33.588515 754.835957 31.849696 
Q 755.430054 30.110877 756.241503 28.676351 
Q 757.052952 27.241825 757.77746 27.241825 
Q 758.472987 27.241825 758.922182 30.632522 
Q 759.371377 34.02322 759.58873 38.50068 
Q 759.806082 42.97814 759.864043 43.325903 
L 759.950984 46.108014 
" clip-path="url(#p5b5c74501e)" style="fill: none; stroke: #000000; stroke-linejoin: miter"/>
   </g>
  </g>
  <g id="axes_48">
   <g id="patch_42">
    <path d="M 764.363917 36.382345 
Q 764.326428 36.494814 764.457641 36.701007 
Q 764.588855 36.9072 764.476386 37.057159 
L 764.476386 39.306538 
Q 764.476386 40.506207 764.813793 41.724621 
Q 765.1512 42.943034 766.013462 43.93651 
Q 766.875724 44.929986 768.075393 44.929986 
Q 769.312552 44.929986 769.987366 43.861531 
Q 770.662179 42.793076 771.112055 41.143531 
Q 771.561931 39.493986 771.899338 38.969131 
L 772.686621 36.382345 
L 772.461683 42.680607 
L 772.461683 45.154924 
Q 772.461683 47.066897 773.192731 51.00331 
Q 773.923779 54.939724 773.923779 56.964166 
Q 774.673572 59.213545 773.586372 60.188276 
Q 772.499172 61.163007 770.437241 60.78811 
Q 768.637738 60.488193 767.719241 60.169531 
Q 766.800745 59.850869 764.813793 58.988607 
L 764.701324 58.426262 
" clip-path="url(#p1870b1b64e)" style="fill: none; stroke: #000000; stroke-linejoin: miter"/>
   </g>
  </g>
 </g>
 <defs>
  <clipPath id="p437c5b390d">
   <rect x="0" y="11.850612" width="16.2" height="47.938776"/>
  </clipPath>
  <clipPath id="p4078d3248f">
   <rect x="17.589352" y="8.64" width="13.421297" height="54.36"/>
  </clipPath>
  <clipPath id="p6e8881e706">
   <rect x="33.789352" y="8.64" width="13.421297" height="54.36"/>
  </clipPath>
  <clipPath id="p35b7b12096">
   <rect x="48.6" y="8.881927" width="16.2" height="53.876147"/>
  </clipPath>
  <clipPath id="p98f6a1ddd3">
   <rect x="66.582993" y="8.64" width="12.634014" height="54.36"/>
  </clipPath>
  <clipPath id="p3b16452397">
   <rect x="82.389352" y="8.64" width="13.421297" height="54.36"/>
  </clipPath>
  <clipPath id="p99a9516b24">
   <rect x="119.006938" y="8.64" width="4.986124" height="54.36"/>
  </clipPath>
  <clipPath id="pec2ba52e35">
   <rect x="131.364248" y="8.64" width="12.671503" height="54.36"/>
  </clipPath>
  <clipPath id="p1dcc555b54">
   <rect x="163.389352" y="8.64" width="13.421297" height="54.36"/>
  </clipPath>
  <clipPath id="p7e6781f8b7">
   <rect x="180.938979" y="8.64" width="10.722041" height="54.36"/>
  </clipPath>
  <clipPath id="p27efd9aa13">
   <rect x="195.002069" y="8.64" width="14.995862" height="54.36"/>
  </clipPath>
  <clipPath id="p4fca839e11">
   <rect x="212.382993" y="8.64" width="12.634014" height="54.36"/>
  </clipPath>
  <clipPath id="p208983950c">
   <rect x="226.8" y="8.881927" width="16.2" height="53.876147"/>
  </clipPath>
  <clipPath id="pdf83b2acef">
   <rect x="259.2" y="9.603482" width="16.2" height="52.433036"/>
  </clipPath>
  <clipPath id="p41e713d377">
   <rect x="275.4" y="10.777356" width="16.2" height="50.085288"/>
  </clipPath>
  <clipPath id="pa55eb51a12">
   <rect x="292.989352" y="8.64" width="13.421297" height="54.36"/>
  </clipPath>
  <clipPath id="p01a7b3a8b3">
   <rect x="307.8" y="11.850612" width="16.2" height="47.938776"/>
  </clipPath>
  <clipPath id="p876386ef9d">
   <rect x="326.738979" y="8.64" width="10.722041" height="54.36"/>
  </clipPath>
  <clipPath id="p630c12d632">
   <rect x="345.806938" y="8.64" width="4.986124" height="54.36"/>
  </clipPath>
  <clipPath id="p8ae6b9bb41">
   <rect x="358.164248" y="8.64" width="12.671503" height="54.36"/>
  </clipPath>
  <clipPath id="pb77fdf0fc9">
   <rect x="372.6" y="9.426742" width="16.2" height="52.786517"/>
  </clipPath>
  <clipPath id="p474ccb9038">
   <rect x="406.389352" y="8.64" width="13.421297" height="54.36"/>
  </clipPath>
  <clipPath id="pf70df76e80">
   <rect x="423.938979" y="8.64" width="10.722041" height="54.36"/>
  </clipPath>
  <clipPath id="pbae365003a">
   <rect x="437.4" y="10.777356" width="16.2" height="50.085288"/>
  </clipPath>
  <clipPath id="p9304d142a8">
   <rect x="453.6" y="11.850612" width="16.2" height="47.938776"/>
  </clipPath>
  <clipPath id="pa76d012219">
   <rect x="471.582993" y="8.64" width="12.634014" height="54.36"/>
  </clipPath>
  <clipPath id="pc513d1ff00">
   <rect x="487.782993" y="8.64" width="12.634014" height="54.36"/>
  </clipPath>
  <clipPath id="p62c7fcf657">
   <rect x="503.589352" y="8.64" width="13.421297" height="54.36"/>
  </clipPath>
  <clipPath id="p8421732944">
   <rect x="524.006938" y="8.64" width="4.986124" height="54.36"/>
  </clipPath>
  <clipPath id="pfec730e5be">
   <rect x="535.989352" y="8.64" width="13.421297" height="54.36"/>
  </clipPath>
  <clipPath id="p4460abec2b">
   <rect x="552.582993" y="8.64" width="12.634014" height="54.36"/>
  </clipPath>
  <clipPath id="p833df90e8e">
   <rect x="583.802069" y="8.64" width="14.995862" height="54.36"/>
  </clipPath>
  <clipPath id="p5e50408f78">
   <rect x="599.4" y="9.949956" width="16.2" height="51.740088"/>
  </clipPath>
  <clipPath id="p05e35b8f22">
   <rect x="632.851945" y="8.64" width="14.09611" height="54.36"/>
  </clipPath>
  <clipPath id="pc71b4de4c7">
   <rect x="648.602069" y="8.64" width="14.995862" height="54.36"/>
  </clipPath>
  <clipPath id="p57763b84b7">
   <rect x="665.589352" y="8.64" width="13.421297" height="54.36"/>
  </clipPath>
  <clipPath id="pf0745557fa">
   <rect x="683.138979" y="8.64" width="10.722041" height="54.36"/>
  </clipPath>
  <clipPath id="pb5da642a42">
   <rect x="698.382993" y="8.64" width="12.634014" height="54.36"/>
  </clipPath>
  <clipPath id="pfaa6a3a402">
   <rect x="718.613131" y="8.64" width="4.573738" height="54.36"/>
  </clipPath>
  <clipPath id="p5b5c74501e">
   <rect x="745.2" y="14.809267" width="16.2" height="42.021467"/>
  </clipPath>
  <clipPath id="p1870b1b64e">
   <rect x="762.451945" y="8.64" width="14.09611" height="54.36"/>
  </clipPath>
 </defs>
</svg>
