<?xml version="1.0" encoding="utf-8" standalone="no"?>
<!DOCTYPE svg PUBLIC "-//W3C//DTD SVG 1.1//EN"
  "http://www.w3.org/Graphics/SVG/1.1/DTD/svg11.dtd">
<svg xmlns:xlink="http://www.w3.org/1999/xlink" width="846pt" height="72pt" viewBox="0 0 846 72" xmlns="http://www.w3.org/2000/svg" version="1.1">
 <metadata>
  <rdf:RDF xmlns:dc="http://purl.org/dc/elements/1.1/" xmlns:cc="http://creativecommons.org/ns#" xmlns:rdf="http://www.w3.org/1999/02/22-rdf-syntax-ns#">
   <cc:Work>
    <dc:type rdf:resource="http://purl.org/dc/dcmitype/StillImage"/>
    <dc:date>2023-12-21T11:50:58.993699</dc:date>
    <dc:format>image/svg+xml</dc:format>
    <dc:creator>
     <cc:Agent>
      <dc:title>Matplotlib v3.5.1, https://matplotlib.org/</dc:title>
     </cc:Agent>
    </dc:creator>
   </cc:Work>
  </rdf:RDF>
 </metadata>
 <defs>
  <style type="text/css">*{stroke-linejoin: round; stroke-linecap: butt}</style>
 </defs>
 <g id="figure_1">
  <g id="patch_1">
   <path d="M 0 72 
L 846 72 
L 846 0 
L 0 0 
z
" style="fill: #8fff9f"/>
  </g>
  <g id="axes_1">
   <g id="patch_2">
    <path d="M 8.624855 27.009931 
Q 8.699834 27.347338 8.774814 28.265834 
Q 8.849793 29.184331 8.999752 29.634207 
L 8.924772 31.058814 
M 7.275228 27.309848 
Q 7.237738 27.309848 7.200248 27.534786 
Q 7.237738 27.684745 7.350207 28.828179 
Q 7.462676 29.971614 7.725103 30.533959 
" clip-path="url(#p424f787be5)" style="fill: none; stroke: #000000; stroke-linejoin: miter"/>
   </g>
  </g>
  <g id="axes_2">
   <g id="patch_3">
    <path d="M 17.287248 30.470738 
L 18.461477 30.601208 
Q 20.288054 30.601208 22.125503 30.709933 
Q 23.962953 30.818658 26.202685 30.992617 
Q 28.442416 31.166577 29.877584 31.253557 
L 31.312752 31.123087 
M 24.071678 31.057852 
Q 24.136913 31.405772 23.875973 32.177718 
Q 23.615034 32.949664 23.810738 33.406309 
Q 23.810738 34.711007 23.952081 36.363624 
Q 24.093423 38.016242 24.310872 39.973289 
Q 24.528322 41.930336 24.593557 42.800134 
" clip-path="url(#pe82429d3c3)" style="fill: none; stroke: #000000; stroke-linejoin: miter"/>
   </g>
  </g>
  <g id="axes_3">
   <g id="patch_4">
    <path d="M 37.013462 35.932469 
Q 37.613297 35.257655 38.606772 34.826524 
Q 39.600248 34.395393 40.5 34.470372 
Q 41.137324 34.470372 41.62469 34.639076 
Q 42.112055 34.807779 42.430717 34.995228 
Q 42.749379 35.182676 42.974317 35.670041 
Q 43.199255 36.157407 43.311724 36.419834 
Q 43.424193 36.682262 43.480428 37.375821 
Q 43.536662 38.069379 43.555407 38.331807 
Q 43.574152 38.594234 43.555407 39.419007 
Q 43.536662 40.243779 43.536662 40.431228 
Q 43.536662 41.368469 43.367959 43.242952 
Q 43.199255 45.117434 43.199255 46.054676 
Q 43.199255 46.467062 43.25549 46.823214 
Q 43.311724 47.179366 43.405448 47.610497 
Q 43.499172 48.041628 43.536662 48.304055 
L 43.986538 48.528993 
M 37.463338 23.111007 
Q 37.688276 24.798041 37.688276 29.971614 
L 37.688276 42.3432 
L 37.350869 46.841959 
L 37.125931 47.74171 
" clip-path="url(#p8a13145f10)" style="fill: none; stroke: #000000; stroke-linejoin: miter"/>
   </g>
  </g>
  <g id="axes_4">
   <g id="patch_5">
    <path d="M 62.243923 36.441748 
Q 61.034968 35.094627 57.062687 35.094627 
Q 55.542857 35.094627 54.765672 35.146439 
Q 53.988486 35.198252 52.98678 35.440043 
Q 51.985075 35.681834 51.501493 36.182687 
Q 51.01791 36.683539 50.672495 37.616162 
Q 50.327079 38.548785 50.327079 39.964989 
Q 50.327079 42.037484 51.743284 43.280981 
Q 53.159488 44.524478 55.093817 44.524478 
Q 57.753518 44.524478 60.516844 38.721493 
Q 61.863966 35.854542 61.863966 35.82 
Q 62.209382 35.578209 62.243923 36.441748 
Q 62.243923 37.512537 62.658422 40.362217 
Q 63.072921 43.211898 63.072921 44.524478 
" clip-path="url(#p908a603754)" style="fill: none; stroke: #000000; stroke-linejoin: miter"/>
   </g>
  </g>
  <g id="axes_5">
   <g id="patch_6">
    <path d="M 68.438731 37.282097 
L 68.438731 37.844441 
Q 68.701159 39.868883 68.738648 41.312234 
Q 68.776138 42.755586 68.682414 44.667559 
Q 68.58869 46.579531 68.58869 48.191586 
L 68.663669 39.643945 
Q 68.663669 38.144359 70.256979 37.507034 
Q 71.85029 36.86971 73.274897 37.282097 
Q 75.186869 37.844441 76.105366 39.04411 
Q 77.023862 40.243779 77.080097 41.668386 
Q 77.136331 43.092993 77.173821 44.817517 
Q 77.21131 46.542041 77.361269 48.191586 
" clip-path="url(#p19dfceeefe)" style="fill: none; stroke: #000000; stroke-linejoin: miter"/>
   </g>
  </g>
  <g id="axes_6">
   <g id="patch_7">
    <path d="M 87.131793 37.169628 
Q 89.156234 39.194069 90.918248 41.76211 
Q 92.680262 44.330152 93.542524 46.72949 
M 90.168455 31.321241 
L 90.168455 31.546179 
Q 90.168455 32.333462 89.531131 33.514386 
Q 88.893807 34.69531 87.919076 36.101172 
Q 86.944345 37.507034 86.681917 37.95691 
L 85.444759 39.643945 
M 84.657476 26.710014 
Q 86.494469 36.269876 86.681917 48.641462 
" clip-path="url(#p4fac2c2f4c)" style="fill: none; stroke: #000000; stroke-linejoin: miter"/>
   </g>
  </g>
  <g id="axes_7"/>
  <g id="axes_8">
   <g id="patch_8">
    <path d="M 116.363917 36.382345 
Q 116.326428 36.494814 116.457641 36.701007 
Q 116.588855 36.9072 116.476386 37.057159 
L 116.476386 39.306538 
Q 116.476386 40.506207 116.813793 41.724621 
Q 117.1512 42.943034 118.013462 43.93651 
Q 118.875724 44.929986 120.075393 44.929986 
Q 121.312552 44.929986 121.987366 43.861531 
Q 122.662179 42.793076 123.112055 41.143531 
Q 123.561931 39.493986 123.899338 38.969131 
L 124.686621 36.382345 
L 124.461683 42.680607 
L 124.461683 45.154924 
Q 124.461683 47.066897 125.192731 51.00331 
Q 125.923779 54.939724 125.923779 56.964166 
Q 126.673572 59.213545 125.586372 60.188276 
Q 124.499172 61.163007 122.437241 60.78811 
Q 120.637738 60.488193 119.719241 60.169531 
Q 118.800745 59.850869 116.813793 58.988607 
L 116.701324 58.426262 
" clip-path="url(#p71c38a4bc5)" style="fill: none; stroke: #000000; stroke-linejoin: miter"/>
   </g>
  </g>
  <g id="axes_9">
   <g id="patch_9">
    <path d="M 140.9616 35.032717 
Q 139.91189 34.582841 138.937159 34.69531 
Q 135.900497 35.032717 133.988524 36.701007 
Q 132.076552 38.369297 132.076552 41.330979 
Q 132.076552 43.917766 134.082248 45.6048 
Q 136.087945 47.291834 138.712221 47.291834 
Q 141.074069 47.291834 142.198759 45.361117 
Q 143.323448 43.4304 143.323448 40.881103 
Q 143.323448 39.643945 142.911062 38.706703 
Q 142.498676 37.769462 141.973821 37.300841 
Q 141.448966 36.832221 140.699172 36.119917 
Q 139.949379 35.407614 139.499503 34.69531 
L 138.262345 34.245434 
" clip-path="url(#p6932fef1e4)" style="fill: none; stroke: #000000; stroke-linejoin: miter"/>
   </g>
  </g>
  <g id="axes_10">
   <g id="patch_10">
    <path d="M 149.288772 35.145186 
Q 149.288772 35.145186 149.288772 35.595062 
Q 149.288772 36.269876 149.176303 37.619503 
Q 149.063834 38.969131 149.063834 39.643945 
Q 149.063834 41.930814 150.300993 43.599103 
Q 151.538152 45.267393 153.675062 45.267393 
Q 155.062179 45.154924 155.830717 43.917766 
Q 156.599255 42.680607 156.749214 41.237255 
Q 156.899172 39.793903 157.1616 37.9944 
Q 157.424028 36.194897 157.836414 35.370124 
Q 157.986372 35.070207 157.986372 35.670041 
Q 157.986372 36.269876 157.723945 38.706703 
Q 157.499007 41.031062 157.499007 41.555917 
Q 157.349048 42.643117 157.686455 43.767807 
Q 158.023862 44.892497 158.736166 45.6048 
" clip-path="url(#p6eb02e87ae)" style="fill: none; stroke: #000000; stroke-linejoin: miter"/>
   </g>
  </g>
  <g id="axes_11">
   <g id="patch_11">
    <path d="M 169.387697 39.981352 
Q 170.399917 40.956083 170.737324 42.905545 
Q 170.924772 43.955255 170.512386 46.167145 
L 169.275228 47.629241 
" clip-path="url(#p5b130e5869)" style="fill: none; stroke: #000000; stroke-linejoin: miter"/>
   </g>
  </g>
  <g id="axes_12">
   <g id="patch_12">
    <path d="M 186.824855 27.009931 
Q 186.899834 27.347338 186.974814 28.265834 
Q 187.049793 29.184331 187.199752 29.634207 
L 187.124772 31.058814 
M 185.475228 27.309848 
Q 185.437738 27.309848 185.400248 27.534786 
Q 185.437738 27.684745 185.550207 28.828179 
Q 185.662676 29.971614 185.925103 30.533959 
" clip-path="url(#pda4c3fc569)" style="fill: none; stroke: #000000; stroke-linejoin: miter"/>
   </g>
  </g>
  <g id="axes_13"/>
  <g id="axes_14">
   <g id="patch_13">
    <path d="M 215.381498 38.139383 
Q 215.381498 38.139383 217.415419 38.139383 
Q 218.236123 37.889604 220.555507 38.085859 
Q 222.87489 38.282115 223.838326 38.139383 
M 212.384141 46.489163 
L 212.491189 46.168018 
Q 212.491189 45.275947 214.418062 40.797753 
Q 216.344934 36.319559 218.307489 32.251718 
Q 220.270044 28.183877 220.412775 28.183877 
Q 221.269163 28.183877 221.964978 29.646872 
Q 222.660793 31.109868 223.12467 33.393568 
Q 223.588546 35.677269 223.927533 37.943128 
Q 224.26652 40.208987 224.551982 42.332115 
Q 224.837445 44.455242 225.015859 45.097533 
" clip-path="url(#pad5df6a11d)" style="fill: none; stroke: #000000; stroke-linejoin: miter"/>
   </g>
  </g>
  <g id="axes_15">
   <g id="patch_14">
    <path d="M 230.438731 37.282097 
L 230.438731 37.844441 
Q 230.701159 39.868883 230.738648 41.312234 
Q 230.776138 42.755586 230.682414 44.667559 
Q 230.58869 46.579531 230.58869 48.191586 
L 230.663669 39.643945 
Q 230.663669 38.144359 232.256979 37.507034 
Q 233.85029 36.86971 235.274897 37.282097 
Q 237.186869 37.844441 238.105366 39.04411 
Q 239.023862 40.243779 239.080097 41.668386 
Q 239.136331 43.092993 239.173821 44.817517 
Q 239.21131 46.542041 239.361269 48.191586 
" clip-path="url(#pb01549390f)" style="fill: none; stroke: #000000; stroke-linejoin: miter"/>
   </g>
  </g>
  <g id="axes_16">
   <g id="patch_15">
    <path d="M 255.887191 39.096404 
Q 255.63236 39.023596 254.66764 38.623146 
Q 253.702921 38.222697 253.04764 38.077079 
Q 252.39236 37.931461 251.737079 38.00427 
Q 249.115955 38.00427 247.477753 40.388764 
Q 245.839551 42.773258 245.839551 45.430787 
Q 245.839551 47.068989 251.081798 47.068989 
Q 252.647191 47.068989 253.975955 45.558202 
Q 255.304719 44.047416 255.978202 42.172584 
Q 256.651685 40.297753 256.651685 38.768764 
Q 256.651685 37.27618 256.615281 36.984944 
L 256.542472 38.077079 
Q 256.542472 38.550337 256.542472 38.987191 
Q 256.578876 40.188539 256.779101 42.281798 
Q 256.979326 44.375056 257.143146 46.049663 
Q 257.306966 47.72427 257.343371 49.872135 
Q 257.379775 52.02 257.215955 53.658202 
Q 257.052135 55.296404 256.487865 56.971011 
Q 255.923596 58.645618 254.995281 59.737753 
Q 254.066966 60.829888 252.465169 61.521573 
Q 250.863371 62.213258 248.715506 62.213258 
Q 247.077303 62.213258 245.985169 61.466966 
Q 244.893034 60.720674 244.893034 59.155281 
Q 244.820225 58.936854 244.856629 58.936854 
Q 244.893034 58.936854 245.002247 58.936854 
Q 245.111461 58.936854 245.111461 58.82764 
" clip-path="url(#p03bc646950)" style="fill: none; stroke: #000000; stroke-linejoin: miter"/>
   </g>
  </g>
  <g id="axes_17">
   <g id="patch_16">
    <path d="M 261.057798 38.160826 
Q 264.030275 39.535596 268.749083 39.721376 
Q 270.272477 39.721376 270.959862 38.550963 
Q 271.647248 37.38055 271.647248 35.82 
Q 271.647248 35.299817 271.554358 34.909679 
Q 271.461468 34.519541 271.219954 34.296606 
Q 270.97844 34.07367 270.811239 33.943624 
Q 270.644037 33.813578 270.198165 33.757844 
Q 269.752294 33.70211 269.547936 33.683532 
Q 269.343578 33.664954 268.767661 33.683532 
Q 268.191743 33.70211 267.968807 33.70211 
Q 265.925229 33.70211 264.438991 35.578486 
Q 262.952752 37.454862 262.952752 39.609908 
Q 262.952752 42.619541 264.884862 44.570229 
Q 266.816972 46.520917 269.863761 46.520917 
Q 272.018807 46.818165 273.542202 44.29156 
" clip-path="url(#pd1f01ff0a5)" style="fill: none; stroke: #000000; stroke-linejoin: miter"/>
   </g>
  </g>
  <g id="axes_18">
   <g id="patch_17">
    <path d="M 283.106359 28.621986 
Q 283.331297 30.34651 283.406276 32.146014 
Q 283.481255 33.945517 283.46251 36.551048 
Q 283.443766 39.156579 283.443766 40.093821 
Q 283.443766 40.13131 283.668703 45.829738 
L 283.893641 46.841959 
" clip-path="url(#pc92770a289)" style="fill: none; stroke: #000000; stroke-linejoin: miter"/>
   </g>
  </g>
  <g id="axes_19">
   <g id="patch_18">
    <path d="M 305.243923 36.441748 
Q 304.034968 35.094627 300.062687 35.094627 
Q 298.542857 35.094627 297.765672 35.146439 
Q 296.988486 35.198252 295.98678 35.440043 
Q 294.985075 35.681834 294.501493 36.182687 
Q 294.01791 36.683539 293.672495 37.616162 
Q 293.327079 38.548785 293.327079 39.964989 
Q 293.327079 42.037484 294.743284 43.280981 
Q 296.159488 44.524478 298.093817 44.524478 
Q 300.753518 44.524478 303.516844 38.721493 
Q 304.863966 35.854542 304.863966 35.82 
Q 305.209382 35.578209 305.243923 36.441748 
Q 305.243923 37.512537 305.658422 40.362217 
Q 306.072921 43.211898 306.072921 44.524478 
" clip-path="url(#pfa1e3642cd)" style="fill: none; stroke: #000000; stroke-linejoin: miter"/>
   </g>
  </g>
  <g id="axes_20"/>
  <g id="axes_21">
   <g id="patch_19">
    <path d="M 327.657476 43.917766 
Q 327.957393 44.180193 328.969614 45.154924 
Q 329.981834 46.129655 330.544179 46.560786 
Q 331.106524 46.991917 332.13749 47.385559 
Q 333.168455 47.7792 334.180676 47.629241 
Q 334.85549 47.629241 335.32411 47.404303 
Q 335.792731 47.179366 336.017669 46.879448 
Q 336.242607 46.579531 336.373821 45.979697 
Q 336.505034 45.379862 336.523779 44.967476 
Q 336.542524 44.55509 336.542524 43.805297 
Q 336.542524 42.718097 335.642772 42.043283 
Q 334.743021 41.368469 333.449628 41.031062 
Q 332.156234 40.693655 330.862841 40.300014 
Q 329.569448 39.906372 328.669697 38.987876 
Q 327.769945 38.069379 327.769945 36.607283 
Q 327.769945 36.082428 327.938648 35.726276 
Q 328.107352 35.370124 328.500993 35.145186 
Q 328.894634 34.920248 329.175807 34.807779 
Q 329.456979 34.69531 330.113048 34.639076 
Q 330.769117 34.582841 330.956566 34.582841 
Q 331.144014 34.582841 331.818828 34.582841 
Q 333.018497 34.582841 333.599586 34.995228 
Q 334.180676 35.407614 334.499338 36.026193 
Q 334.818 36.644772 335.080428 36.832221 
" clip-path="url(#p758857c505)" style="fill: none; stroke: #000000; stroke-linejoin: miter"/>
   </g>
  </g>
  <g id="axes_22">
   <g id="patch_20">
    <path d="M 353.843923 36.441748 
Q 352.634968 35.094627 348.662687 35.094627 
Q 347.142857 35.094627 346.365672 35.146439 
Q 345.588486 35.198252 344.58678 35.440043 
Q 343.585075 35.681834 343.101493 36.182687 
Q 342.61791 36.683539 342.272495 37.616162 
Q 341.927079 38.548785 341.927079 39.964989 
Q 341.927079 42.037484 343.343284 43.280981 
Q 344.759488 44.524478 346.693817 44.524478 
Q 349.353518 44.524478 352.116844 38.721493 
Q 353.463966 35.854542 353.463966 35.82 
Q 353.809382 35.578209 353.843923 36.441748 
Q 353.843923 37.512537 354.258422 40.362217 
Q 354.672921 43.211898 354.672921 44.524478 
" clip-path="url(#p85ece9a37b)" style="fill: none; stroke: #000000; stroke-linejoin: miter"/>
   </g>
  </g>
  <g id="axes_23">
   <g id="patch_21">
    <path d="M 359.363917 36.382345 
Q 359.326428 36.494814 359.457641 36.701007 
Q 359.588855 36.9072 359.476386 37.057159 
L 359.476386 39.306538 
Q 359.476386 40.506207 359.813793 41.724621 
Q 360.1512 42.943034 361.013462 43.93651 
Q 361.875724 44.929986 363.075393 44.929986 
Q 364.312552 44.929986 364.987366 43.861531 
Q 365.662179 42.793076 366.112055 41.143531 
Q 366.561931 39.493986 366.899338 38.969131 
L 367.686621 36.382345 
L 367.461683 42.680607 
L 367.461683 45.154924 
Q 367.461683 47.066897 368.192731 51.00331 
Q 368.923779 54.939724 368.923779 56.964166 
Q 369.673572 59.213545 368.586372 60.188276 
Q 367.499172 61.163007 365.437241 60.78811 
Q 363.637738 60.488193 362.719241 60.169531 
Q 361.800745 59.850869 359.813793 58.988607 
L 359.701324 58.426262 
" clip-path="url(#pd16010eeef)" style="fill: none; stroke: #000000; stroke-linejoin: miter"/>
   </g>
  </g>
  <g id="axes_24">
   <g id="patch_22">
    <path d="M 376.257476 43.917766 
Q 376.557393 44.180193 377.569614 45.154924 
Q 378.581834 46.129655 379.144179 46.560786 
Q 379.706524 46.991917 380.73749 47.385559 
Q 381.768455 47.7792 382.780676 47.629241 
Q 383.45549 47.629241 383.92411 47.404303 
Q 384.392731 47.179366 384.617669 46.879448 
Q 384.842607 46.579531 384.973821 45.979697 
Q 385.105034 45.379862 385.123779 44.967476 
Q 385.142524 44.55509 385.142524 43.805297 
Q 385.142524 42.718097 384.242772 42.043283 
Q 383.343021 41.368469 382.049628 41.031062 
Q 380.756234 40.693655 379.462841 40.300014 
Q 378.169448 39.906372 377.269697 38.987876 
Q 376.369945 38.069379 376.369945 36.607283 
Q 376.369945 36.082428 376.538648 35.726276 
Q 376.707352 35.370124 377.100993 35.145186 
Q 377.494634 34.920248 377.775807 34.807779 
Q 378.056979 34.69531 378.713048 34.639076 
Q 379.369117 34.582841 379.556566 34.582841 
Q 379.744014 34.582841 380.418828 34.582841 
Q 381.618497 34.582841 382.199586 34.995228 
Q 382.780676 35.407614 383.099338 36.026193 
Q 383.418 36.644772 383.680428 36.832221 
" clip-path="url(#p36c2c9cf2c)" style="fill: none; stroke: #000000; stroke-linejoin: miter"/>
   </g>
  </g>
  <g id="axes_25">
   <g id="patch_23">
    <path d="M 396.187697 39.981352 
Q 397.199917 40.956083 397.537324 42.905545 
Q 397.724772 43.955255 397.312386 46.167145 
L 396.075228 47.629241 
" clip-path="url(#p02ce8ba11c)" style="fill: none; stroke: #000000; stroke-linejoin: miter"/>
   </g>
  </g>
  <g id="axes_26"/>
  <g id="axes_27">
   <g id="patch_24">
    <path d="M 434.843923 36.441748 
Q 433.634968 35.094627 429.662687 35.094627 
Q 428.142857 35.094627 427.365672 35.146439 
Q 426.588486 35.198252 425.58678 35.440043 
Q 424.585075 35.681834 424.101493 36.182687 
Q 423.61791 36.683539 423.272495 37.616162 
Q 422.927079 38.548785 422.927079 39.964989 
Q 422.927079 42.037484 424.343284 43.280981 
Q 425.759488 44.524478 427.693817 44.524478 
Q 430.353518 44.524478 433.116844 38.721493 
Q 434.463966 35.854542 434.463966 35.82 
Q 434.809382 35.578209 434.843923 36.441748 
Q 434.843923 37.512537 435.258422 40.362217 
Q 435.672921 43.211898 435.672921 44.524478 
" clip-path="url(#p89a440df84)" style="fill: none; stroke: #000000; stroke-linejoin: miter"/>
   </g>
  </g>
  <g id="axes_28">
   <g id="patch_25">
    <path d="M 441.057476 43.917766 
Q 441.357393 44.180193 442.369614 45.154924 
Q 443.381834 46.129655 443.944179 46.560786 
Q 444.506524 46.991917 445.53749 47.385559 
Q 446.568455 47.7792 447.580676 47.629241 
Q 448.25549 47.629241 448.72411 47.404303 
Q 449.192731 47.179366 449.417669 46.879448 
Q 449.642607 46.579531 449.773821 45.979697 
Q 449.905034 45.379862 449.923779 44.967476 
Q 449.942524 44.55509 449.942524 43.805297 
Q 449.942524 42.718097 449.042772 42.043283 
Q 448.143021 41.368469 446.849628 41.031062 
Q 445.556234 40.693655 444.262841 40.300014 
Q 442.969448 39.906372 442.069697 38.987876 
Q 441.169945 38.069379 441.169945 36.607283 
Q 441.169945 36.082428 441.338648 35.726276 
Q 441.507352 35.370124 441.900993 35.145186 
Q 442.294634 34.920248 442.575807 34.807779 
Q 442.856979 34.69531 443.513048 34.639076 
Q 444.169117 34.582841 444.356566 34.582841 
Q 444.544014 34.582841 445.218828 34.582841 
Q 446.418497 34.582841 446.999586 34.995228 
Q 447.580676 35.407614 447.899338 36.026193 
Q 448.218 36.644772 448.480428 36.832221 
" clip-path="url(#p8d55edc957)" style="fill: none; stroke: #000000; stroke-linejoin: miter"/>
   </g>
  </g>
  <g id="axes_29"/>
  <g id="axes_30">
   <g id="patch_26">
    <path d="M 471.848638 35.788482 
L 472.037743 35.788482 
Q 472.920233 35.788482 474.685214 35.69393 
Q 476.450195 35.599377 477.332685 35.599377 
Q 478.877043 35.599377 480.074708 35.835759 
Q 481.272374 36.07214 482.296693 36.655214 
Q 483.321012 37.238288 483.872568 38.35716 
Q 484.424125 39.476031 484.424125 41.083424 
Q 484.424125 46.567471 474.307004 46.567471 
Q 474.275486 46.567471 472.415953 46.283813 
L 471.848638 46.000156 
M 471.848638 27.562412 
Q 473.487549 26.679922 475.441634 26.71144 
Q 477.710895 26.71144 479.743774 28.035175 
Q 481.776654 29.358911 481.776654 31.533619 
Q 481.776654 32.825837 481.225097 33.582257 
Q 480.673541 34.338677 479.948638 34.527782 
Q 479.223735 34.716887 478.230934 35.06358 
Q 477.238132 35.410272 476.670817 35.883035 
L 471.848638 35.788482 
M 471.375875 27.656965 
Q 471.596498 28.949183 471.533463 32.494903 
Q 471.470428 36.040623 472.037743 37.301323 
Q 472.037743 38.309883 471.990467 40.358521 
Q 471.943191 42.40716 471.943191 43.447237 
L 471.943191 45.243735 
L 471.754086 46.000156 
" clip-path="url(#p494512292d)" style="fill: none; stroke: #000000; stroke-linejoin: miter"/>
   </g>
  </g>
  <g id="axes_31">
   <g id="patch_27">
    <path d="M 489.488772 35.145186 
Q 489.488772 35.145186 489.488772 35.595062 
Q 489.488772 36.269876 489.376303 37.619503 
Q 489.263834 38.969131 489.263834 39.643945 
Q 489.263834 41.930814 490.500993 43.599103 
Q 491.738152 45.267393 493.875062 45.267393 
Q 495.262179 45.154924 496.030717 43.917766 
Q 496.799255 42.680607 496.949214 41.237255 
Q 497.099172 39.793903 497.3616 37.9944 
Q 497.624028 36.194897 498.036414 35.370124 
Q 498.186372 35.070207 498.186372 35.670041 
Q 498.186372 36.269876 497.923945 38.706703 
Q 497.699007 41.031062 497.699007 41.555917 
Q 497.549048 42.643117 497.886455 43.767807 
Q 498.223862 44.892497 498.936166 45.6048 
" clip-path="url(#p384a841253)" style="fill: none; stroke: #000000; stroke-linejoin: miter"/>
   </g>
  </g>
  <g id="axes_32">
   <g id="patch_28">
    <path d="M 506.813462 32.783338 
Q 507.338317 34.507862 507.469531 36.457324 
Q 507.600745 38.406786 507.525766 40.956083 
Q 507.450786 43.505379 507.488276 44.705048 
L 507.600745 46.054676 
L 507.600745 45.829738 
Q 507.600745 44.667559 507.319572 42.30571 
Q 507.0384 39.943862 507.0384 38.744193 
Q 507.0384 36.419834 508.050621 34.882759 
Q 509.062841 33.345683 511.087283 33.345683 
Q 511.799586 33.345683 512.136993 33.626855 
Q 512.4744 33.908028 512.736828 34.432883 
Q 512.999255 34.957738 513.336662 35.257655 
L 513.786538 36.832221 
" clip-path="url(#p893331a628)" style="fill: none; stroke: #000000; stroke-linejoin: miter"/>
   </g>
  </g>
  <g id="axes_33">
   <g id="patch_29">
    <path d="M 521.663834 37.95691 
L 522.338648 37.95691 
Q 523.050952 37.95691 523.838234 37.881931 
Q 524.625517 37.806952 525.581503 37.675738 
Q 526.53749 37.544524 527.062345 37.507034 
L 531.336166 35.82 
M 527.287283 30.42149 
L 527.287283 31.43371 
Q 527.287283 33.383172 526.612469 37.207117 
Q 525.937655 41.031062 525.937655 43.018014 
Q 525.937655 43.805297 525.937655 44.105214 
Q 525.937655 44.405131 526.031379 45.042455 
Q 526.125103 45.679779 526.312552 45.960952 
Q 526.5 46.242124 526.893641 46.485807 
Q 527.287283 46.72949 527.849628 46.72949 
Q 527.962097 46.692 528.280759 46.72949 
Q 528.599421 46.766979 528.786869 46.710745 
Q 528.974317 46.65451 528.974317 46.392083 
" clip-path="url(#pcd04638b74)" style="fill: none; stroke: #000000; stroke-linejoin: miter"/>
   </g>
  </g>
  <g id="axes_34"/>
  <g id="axes_35">
   <g id="patch_30">
    <path d="M 554.457476 43.917766 
Q 554.757393 44.180193 555.769614 45.154924 
Q 556.781834 46.129655 557.344179 46.560786 
Q 557.906524 46.991917 558.93749 47.385559 
Q 559.968455 47.7792 560.980676 47.629241 
Q 561.65549 47.629241 562.12411 47.404303 
Q 562.592731 47.179366 562.817669 46.879448 
Q 563.042607 46.579531 563.173821 45.979697 
Q 563.305034 45.379862 563.323779 44.967476 
Q 563.342524 44.55509 563.342524 43.805297 
Q 563.342524 42.718097 562.442772 42.043283 
Q 561.543021 41.368469 560.249628 41.031062 
Q 558.956234 40.693655 557.662841 40.300014 
Q 556.369448 39.906372 555.469697 38.987876 
Q 554.569945 38.069379 554.569945 36.607283 
Q 554.569945 36.082428 554.738648 35.726276 
Q 554.907352 35.370124 555.300993 35.145186 
Q 555.694634 34.920248 555.975807 34.807779 
Q 556.256979 34.69531 556.913048 34.639076 
Q 557.569117 34.582841 557.756566 34.582841 
Q 557.944014 34.582841 558.618828 34.582841 
Q 559.818497 34.582841 560.399586 34.995228 
Q 560.980676 35.407614 561.299338 36.026193 
Q 561.618 36.644772 561.880428 36.832221 
" clip-path="url(#pc62a9359a1)" style="fill: none; stroke: #000000; stroke-linejoin: miter"/>
   </g>
  </g>
  <g id="axes_36">
   <g id="patch_31">
    <path d="M 570.263834 37.95691 
L 570.938648 37.95691 
Q 571.650952 37.95691 572.438234 37.881931 
Q 573.225517 37.806952 574.181503 37.675738 
Q 575.13749 37.544524 575.662345 37.507034 
L 579.936166 35.82 
M 575.887283 30.42149 
L 575.887283 31.43371 
Q 575.887283 33.383172 575.212469 37.207117 
Q 574.537655 41.031062 574.537655 43.018014 
Q 574.537655 43.805297 574.537655 44.105214 
Q 574.537655 44.405131 574.631379 45.042455 
Q 574.725103 45.679779 574.912552 45.960952 
Q 575.1 46.242124 575.493641 46.485807 
Q 575.887283 46.72949 576.449628 46.72949 
Q 576.562097 46.692 576.880759 46.72949 
Q 577.199421 46.766979 577.386869 46.710745 
Q 577.574317 46.65451 577.574317 46.392083 
" clip-path="url(#p364bc4a9b3)" style="fill: none; stroke: #000000; stroke-linejoin: miter"/>
   </g>
  </g>
  <g id="axes_37">
   <g id="patch_32">
    <path d="M 596.843923 36.441748 
Q 595.634968 35.094627 591.662687 35.094627 
Q 590.142857 35.094627 589.365672 35.146439 
Q 588.588486 35.198252 587.58678 35.440043 
Q 586.585075 35.681834 586.101493 36.182687 
Q 585.61791 36.683539 585.272495 37.616162 
Q 584.927079 38.548785 584.927079 39.964989 
Q 584.927079 42.037484 586.343284 43.280981 
Q 587.759488 44.524478 589.693817 44.524478 
Q 592.353518 44.524478 595.116844 38.721493 
Q 596.463966 35.854542 596.463966 35.82 
Q 596.809382 35.578209 596.843923 36.441748 
Q 596.843923 37.512537 597.258422 40.362217 
Q 597.672921 43.211898 597.672921 44.524478 
" clip-path="url(#pcea3192a97)" style="fill: none; stroke: #000000; stroke-linejoin: miter"/>
   </g>
  </g>
  <g id="axes_38">
   <g id="patch_33">
    <path d="M 604.013462 32.783338 
Q 604.538317 34.507862 604.669531 36.457324 
Q 604.800745 38.406786 604.725766 40.956083 
Q 604.650786 43.505379 604.688276 44.705048 
L 604.800745 46.054676 
L 604.800745 45.829738 
Q 604.800745 44.667559 604.519572 42.30571 
Q 604.2384 39.943862 604.2384 38.744193 
Q 604.2384 36.419834 605.250621 34.882759 
Q 606.262841 33.345683 608.287283 33.345683 
Q 608.999586 33.345683 609.336993 33.626855 
Q 609.6744 33.908028 609.936828 34.432883 
Q 610.199255 34.957738 610.536662 35.257655 
L 610.986538 36.832221 
" clip-path="url(#p8441ae0579)" style="fill: none; stroke: #000000; stroke-linejoin: miter"/>
   </g>
  </g>
  <g id="axes_39">
   <g id="patch_34">
    <path d="M 618.863834 37.95691 
L 619.538648 37.95691 
Q 620.250952 37.95691 621.038234 37.881931 
Q 621.825517 37.806952 622.781503 37.675738 
Q 623.73749 37.544524 624.262345 37.507034 
L 628.536166 35.82 
M 624.487283 30.42149 
L 624.487283 31.43371 
Q 624.487283 33.383172 623.812469 37.207117 
Q 623.137655 41.031062 623.137655 43.018014 
Q 623.137655 43.805297 623.137655 44.105214 
Q 623.137655 44.405131 623.231379 45.042455 
Q 623.325103 45.679779 623.512552 45.960952 
Q 623.7 46.242124 624.093641 46.485807 
Q 624.487283 46.72949 625.049628 46.72949 
Q 625.162097 46.692 625.480759 46.72949 
Q 625.799421 46.766979 625.986869 46.710745 
Q 626.174317 46.65451 626.174317 46.392083 
" clip-path="url(#p26df9854fa)" style="fill: none; stroke: #000000; stroke-linejoin: miter"/>
   </g>
  </g>
  <g id="axes_40">
   <g id="patch_35">
    <path d="M 635.457476 43.917766 
Q 635.757393 44.180193 636.769614 45.154924 
Q 637.781834 46.129655 638.344179 46.560786 
Q 638.906524 46.991917 639.93749 47.385559 
Q 640.968455 47.7792 641.980676 47.629241 
Q 642.65549 47.629241 643.12411 47.404303 
Q 643.592731 47.179366 643.817669 46.879448 
Q 644.042607 46.579531 644.173821 45.979697 
Q 644.305034 45.379862 644.323779 44.967476 
Q 644.342524 44.55509 644.342524 43.805297 
Q 644.342524 42.718097 643.442772 42.043283 
Q 642.543021 41.368469 641.249628 41.031062 
Q 639.956234 40.693655 638.662841 40.300014 
Q 637.369448 39.906372 636.469697 38.987876 
Q 635.569945 38.069379 635.569945 36.607283 
Q 635.569945 36.082428 635.738648 35.726276 
Q 635.907352 35.370124 636.300993 35.145186 
Q 636.694634 34.920248 636.975807 34.807779 
Q 637.256979 34.69531 637.913048 34.639076 
Q 638.569117 34.582841 638.756566 34.582841 
Q 638.944014 34.582841 639.618828 34.582841 
Q 640.818497 34.582841 641.399586 34.995228 
Q 641.980676 35.407614 642.299338 36.026193 
Q 642.618 36.644772 642.880428 36.832221 
" clip-path="url(#p06d9ee5cd6)" style="fill: none; stroke: #000000; stroke-linejoin: miter"/>
   </g>
  </g>
  <g id="axes_41"/>
  <g id="axes_42">
   <g id="patch_36">
    <path d="M 665.984141 38.85304 
L 666.412335 38.85304 
Q 667.23304 38.85304 668.196476 38.745991 
Q 669.159912 38.638943 670.319604 38.460529 
Q 671.479295 38.282115 672.085903 38.210749 
L 678.615859 35.427489 
M 678.294714 25.793128 
Q 678.009251 25.721762 676.974449 25.275727 
Q 675.939648 24.829692 675.297357 24.93674 
Q 674.655066 24.93674 674.137665 25.150837 
Q 673.620264 25.364934 673.281278 25.793128 
Q 672.942291 26.221322 672.67467 26.685198 
Q 672.407048 27.149075 672.264317 27.862731 
Q 672.121586 28.576388 672.014537 29.129471 
Q 671.907489 29.682555 671.889648 30.50326 
Q 671.871806 31.323965 671.853965 31.77 
Q 671.836123 32.216035 671.853965 32.965374 
Q 671.871806 33.714714 671.871806 33.928811 
Q 671.871806 36.605022 672.567621 41.850396 
Q 673.263436 47.095771 673.263436 49.771982 
Q 673.19207 50.057445 673.156388 50.681894 
Q 673.120705 51.306344 673.013656 51.805903 
Q 672.906608 52.305463 672.621145 52.555242 
" clip-path="url(#p1565946928)" style="fill: none; stroke: #000000; stroke-linejoin: miter"/>
   </g>
  </g>
  <g id="axes_43">
   <g id="patch_37">
    <path d="M 688.106359 28.621986 
Q 688.331297 30.34651 688.406276 32.146014 
Q 688.481255 33.945517 688.46251 36.551048 
Q 688.443766 39.156579 688.443766 40.093821 
Q 688.443766 40.13131 688.668703 45.829738 
L 688.893641 46.841959 
" clip-path="url(#pcdb2496f0d)" style="fill: none; stroke: #000000; stroke-linejoin: miter"/>
   </g>
  </g>
  <g id="axes_44">
   <g id="patch_38">
    <path d="M 705.318579 29.071862 
Q 704.943683 29.146841 704.812469 29.577972 
Q 704.681255 30.009103 704.756234 30.42149 
Q 704.756234 30.571448 704.793724 30.702662 
Q 704.831214 30.833876 704.887448 30.89011 
Q 704.943683 30.946345 704.999917 31.040069 
Q 705.056152 31.133793 705.093641 31.208772 
L 705.20611 29.859145 
M 705.20611 34.020497 
Q 704.306359 39.006621 704.081421 42.793076 
L 704.531297 45.379862 
L 704.868703 46.054676 
" clip-path="url(#p2f115d1338)" style="fill: none; stroke: #000000; stroke-linejoin: miter"/>
   </g>
  </g>
  <g id="axes_45">
   <g id="patch_39">
    <path d="M 726.156735 34.365306 
Q 726.156735 34.365306 725.660816 34.365306 
Q 724.867347 34.365306 723.379592 34.067755 
Q 721.891837 33.770204 721.098367 33.770204 
Q 718.321224 33.770204 716.387143 35.224898 
Q 714.453061 36.679592 714.453061 39.423673 
Q 714.453061 40.94449 715.940816 42.399184 
Q 717.428571 43.853878 719.362653 44.663878 
Q 721.296735 45.473878 722.78449 45.473878 
Q 723.710204 45.473878 724.40449 45.110204 
Q 725.098776 44.746531 725.842653 44.118367 
Q 726.586531 43.490204 727.148571 43.192653 
L 727.346939 42.696735 
" clip-path="url(#p9e80c0b541)" style="fill: none; stroke: #000000; stroke-linejoin: miter"/>
   </g>
  </g>
  <g id="axes_46">
   <g id="patch_40">
    <path d="M 735.131793 37.169628 
Q 737.156234 39.194069 738.918248 41.76211 
Q 740.680262 44.330152 741.542524 46.72949 
M 738.168455 31.321241 
L 738.168455 31.546179 
Q 738.168455 32.333462 737.531131 33.514386 
Q 736.893807 34.69531 735.919076 36.101172 
Q 734.944345 37.507034 734.681917 37.95691 
L 733.444759 39.643945 
M 732.657476 26.710014 
Q 734.494469 36.269876 734.681917 48.641462 
" clip-path="url(#p8d733d3256)" style="fill: none; stroke: #000000; stroke-linejoin: miter"/>
   </g>
  </g>
  <g id="axes_47">
   <g id="patch_41">
    <path d="M 750.994386 35.595062 
L 755.605614 35.707531 
" clip-path="url(#p512a5bb0a1)" style="fill: none; stroke: #000000; stroke-linejoin: miter"/>
   </g>
  </g>
 </g>
 <defs>
  <clipPath id="p424f787be5">
   <rect x="5.325766" y="8.64" width="5.548469" height="54.36"/>
  </clipPath>
  <clipPath id="pe82429d3c3">
   <rect x="16.2" y="20.054899" width="16.2" height="31.530201"/>
  </clipPath>
  <clipPath id="p8a13145f10">
   <rect x="35.138979" y="8.64" width="10.722041" height="54.36"/>
  </clipPath>
  <clipPath id="p908a603754">
   <rect x="48.6" y="10.777356" width="16.2" height="50.085288"/>
  </clipPath>
  <clipPath id="p19dfceeefe">
   <rect x="66.564248" y="8.64" width="12.671503" height="54.36"/>
  </clipPath>
  <clipPath id="p4fac2c2f4c">
   <rect x="82.782993" y="8.64" width="12.634014" height="54.36"/>
  </clipPath>
  <clipPath id="p71c38a4bc5">
   <rect x="114.451945" y="8.64" width="14.09611" height="54.36"/>
  </clipPath>
  <clipPath id="p6932fef1e4">
   <rect x="130.202069" y="8.64" width="14.995862" height="54.36"/>
  </clipPath>
  <clipPath id="p6eb02e87ae">
   <rect x="147.189352" y="8.64" width="13.421297" height="54.36"/>
  </clipPath>
  <clipPath id="p5b130e5869">
   <rect x="167.400745" y="8.64" width="5.39851" height="54.36"/>
  </clipPath>
  <clipPath id="pda4c3fc569">
   <rect x="183.525766" y="8.64" width="5.548469" height="54.36"/>
  </clipPath>
  <clipPath id="pad5df6a11d">
   <rect x="210.6" y="9.949956" width="16.2" height="51.740088"/>
  </clipPath>
  <clipPath id="pb01549390f">
   <rect x="228.564248" y="8.64" width="12.671503" height="54.36"/>
  </clipPath>
  <clipPath id="p03bc646950">
   <rect x="243" y="9.426742" width="16.2" height="52.786517"/>
  </clipPath>
  <clipPath id="pd1f01ff0a5">
   <rect x="259.2" y="8.881927" width="16.2" height="53.876147"/>
  </clipPath>
  <clipPath id="pc92770a289">
   <rect x="281.231876" y="8.64" width="4.536248" height="54.36"/>
  </clipPath>
  <clipPath id="pfa1e3642cd">
   <rect x="291.6" y="10.777356" width="16.2" height="50.085288"/>
  </clipPath>
  <clipPath id="p758857c505">
   <rect x="325.782993" y="8.64" width="12.634014" height="54.36"/>
  </clipPath>
  <clipPath id="p85ece9a37b">
   <rect x="340.2" y="10.777356" width="16.2" height="50.085288"/>
  </clipPath>
  <clipPath id="pd16010eeef">
   <rect x="357.451945" y="8.64" width="14.09611" height="54.36"/>
  </clipPath>
  <clipPath id="p36c2c9cf2c">
   <rect x="374.382993" y="8.64" width="12.634014" height="54.36"/>
  </clipPath>
  <clipPath id="p02ce8ba11c">
   <rect x="394.200745" y="8.64" width="5.39851" height="54.36"/>
  </clipPath>
  <clipPath id="p89a440df84">
   <rect x="421.2" y="10.777356" width="16.2" height="50.085288"/>
  </clipPath>
  <clipPath id="p8d55edc957">
   <rect x="439.182993" y="8.64" width="12.634014" height="54.36"/>
  </clipPath>
  <clipPath id="p494512292d">
   <rect x="469.8" y="12.969805" width="16.2" height="45.700389"/>
  </clipPath>
  <clipPath id="p384a841253">
   <rect x="487.389352" y="8.64" width="13.421297" height="54.36"/>
  </clipPath>
  <clipPath id="p893331a628">
   <rect x="504.938979" y="8.64" width="10.722041" height="54.36"/>
  </clipPath>
  <clipPath id="pcd04638b74">
   <rect x="519.789352" y="8.64" width="13.421297" height="54.36"/>
  </clipPath>
  <clipPath id="pc62a9359a1">
   <rect x="552.582993" y="8.64" width="12.634014" height="54.36"/>
  </clipPath>
  <clipPath id="p364bc4a9b3">
   <rect x="568.389352" y="8.64" width="13.421297" height="54.36"/>
  </clipPath>
  <clipPath id="pcea3192a97">
   <rect x="583.2" y="10.777356" width="16.2" height="50.085288"/>
  </clipPath>
  <clipPath id="p8441ae0579">
   <rect x="602.138979" y="8.64" width="10.722041" height="54.36"/>
  </clipPath>
  <clipPath id="p26df9854fa">
   <rect x="616.989352" y="8.64" width="13.421297" height="54.36"/>
  </clipPath>
  <clipPath id="p06d9ee5cd6">
   <rect x="633.582993" y="8.64" width="12.634014" height="54.36"/>
  </clipPath>
  <clipPath id="p1565946928">
   <rect x="664.2" y="9.949956" width="16.2" height="51.740088"/>
  </clipPath>
  <clipPath id="pcdb2496f0d">
   <rect x="686.231876" y="8.64" width="4.536248" height="54.36"/>
  </clipPath>
  <clipPath id="p2f115d1338">
   <rect x="702.206938" y="8.64" width="4.986124" height="54.36"/>
  </clipPath>
  <clipPath id="p9e80c0b541">
   <rect x="712.8" y="11.850612" width="16.2" height="47.938776"/>
  </clipPath>
  <clipPath id="p8d733d3256">
   <rect x="730.782993" y="8.64" width="12.634014" height="54.36"/>
  </clipPath>
  <clipPath id="p512a5bb0a1">
   <rect x="749.119903" y="8.64" width="8.360193" height="54.36"/>
  </clipPath>
 </defs>
</svg>
