<?xml version="1.0" encoding="utf-8" standalone="no"?>
<!DOCTYPE svg PUBLIC "-//W3C//DTD SVG 1.1//EN"
  "http://www.w3.org/Graphics/SVG/1.1/DTD/svg11.dtd">
<svg xmlns:xlink="http://www.w3.org/1999/xlink" width="864pt" height="72pt" viewBox="0 0 864 72" xmlns="http://www.w3.org/2000/svg" version="1.1">
 <metadata>
  <rdf:RDF xmlns:dc="http://purl.org/dc/elements/1.1/" xmlns:cc="http://creativecommons.org/ns#" xmlns:rdf="http://www.w3.org/1999/02/22-rdf-syntax-ns#">
   <cc:Work>
    <dc:type rdf:resource="http://purl.org/dc/dcmitype/StillImage"/>
    <dc:date>2023-12-21T11:51:02.713494</dc:date>
    <dc:format>image/svg+xml</dc:format>
    <dc:creator>
     <cc:Agent>
      <dc:title>Matplotlib v3.5.1, https://matplotlib.org/</dc:title>
     </cc:Agent>
    </dc:creator>
   </cc:Work>
  </rdf:RDF>
 </metadata>
 <defs>
  <style type="text/css">*{stroke-linejoin: round; stroke-linecap: butt}</style>
 </defs>
 <g id="figure_1">
  <g id="patch_1">
   <path d="M 0 72 
L 864 72 
L 864 0 
L 0 0 
z
" style="fill: #8fff9f"/>
  </g>
  <g id="axes_1">
   <g id="patch_2">
    <path d="M 8.718579 29.071862 
Q 8.343683 29.146841 8.212469 29.577972 
Q 8.081255 30.009103 8.156234 30.42149 
Q 8.156234 30.571448 8.193724 30.702662 
Q 8.231214 30.833876 8.287448 30.89011 
Q 8.343683 30.946345 8.399917 31.040069 
Q 8.456152 31.133793 8.493641 31.208772 
L 8.60611 29.859145 
M 8.60611 34.020497 
Q 7.706359 39.006621 7.481421 42.793076 
L 7.931297 45.379862 
L 8.268703 46.054676 
" clip-path="url(#p16e5e0e79f)" style="fill: none; stroke: #000000; stroke-linejoin: miter"/>
   </g>
  </g>
  <g id="axes_2">
   <g id="patch_3">
    <path d="M 19.838731 37.282097 
L 19.838731 37.844441 
Q 20.101159 39.868883 20.138648 41.312234 
Q 20.176138 42.755586 20.082414 44.667559 
Q 19.98869 46.579531 19.98869 48.191586 
L 20.063669 39.643945 
Q 20.063669 38.144359 21.656979 37.507034 
Q 23.25029 36.86971 24.674897 37.282097 
Q 26.586869 37.844441 27.505366 39.04411 
Q 28.423862 40.243779 28.480097 41.668386 
Q 28.536331 43.092993 28.573821 44.817517 
Q 28.61131 46.542041 28.761269 48.191586 
" clip-path="url(#p7029ff0953)" style="fill: none; stroke: #000000; stroke-linejoin: miter"/>
   </g>
  </g>
  <g id="axes_3">
   <g id="patch_4">
    <path d="M 45.287191 39.096404 
Q 45.03236 39.023596 44.06764 38.623146 
Q 43.102921 38.222697 42.44764 38.077079 
Q 41.79236 37.931461 41.137079 38.00427 
Q 38.515955 38.00427 36.877753 40.388764 
Q 35.239551 42.773258 35.239551 45.430787 
Q 35.239551 47.068989 40.481798 47.068989 
Q 42.047191 47.068989 43.375955 45.558202 
Q 44.704719 44.047416 45.378202 42.172584 
Q 46.051685 40.297753 46.051685 38.768764 
Q 46.051685 37.27618 46.015281 36.984944 
L 45.942472 38.077079 
Q 45.942472 38.550337 45.942472 38.987191 
Q 45.978876 40.188539 46.179101 42.281798 
Q 46.379326 44.375056 46.543146 46.049663 
Q 46.706966 47.72427 46.743371 49.872135 
Q 46.779775 52.02 46.615955 53.658202 
Q 46.452135 55.296404 45.887865 56.971011 
Q 45.323596 58.645618 44.395281 59.737753 
Q 43.466966 60.829888 41.865169 61.521573 
Q 40.263371 62.213258 38.115506 62.213258 
Q 36.477303 62.213258 35.385169 61.466966 
Q 34.293034 60.720674 34.293034 59.155281 
Q 34.220225 58.936854 34.256629 58.936854 
Q 34.293034 58.936854 34.402247 58.936854 
Q 34.511461 58.936854 34.511461 58.82764 
" clip-path="url(#p43ad4e1e8d)" style="fill: none; stroke: #000000; stroke-linejoin: miter"/>
   </g>
  </g>
  <g id="axes_4"/>
  <g id="axes_5">
   <g id="patch_5">
    <path d="M 68.063834 37.95691 
L 68.738648 37.95691 
Q 69.450952 37.95691 70.238234 37.881931 
Q 71.025517 37.806952 71.981503 37.675738 
Q 72.93749 37.544524 73.462345 37.507034 
L 77.736166 35.82 
M 73.687283 30.42149 
L 73.687283 31.43371 
Q 73.687283 33.383172 73.012469 37.207117 
Q 72.337655 41.031062 72.337655 43.018014 
Q 72.337655 43.805297 72.337655 44.105214 
Q 72.337655 44.405131 72.431379 45.042455 
Q 72.525103 45.679779 72.712552 45.960952 
Q 72.9 46.242124 73.293641 46.485807 
Q 73.687283 46.72949 74.249628 46.72949 
Q 74.362097 46.692 74.680759 46.72949 
Q 74.999421 46.766979 75.186869 46.710745 
Q 75.374317 46.65451 75.374317 46.392083 
" clip-path="url(#pbc2c0db679)" style="fill: none; stroke: #000000; stroke-linejoin: miter"/>
   </g>
  </g>
  <g id="axes_6">
   <g id="patch_6">
    <path d="M 85.613462 35.932469 
Q 86.213297 35.257655 87.206772 34.826524 
Q 88.200248 34.395393 89.1 34.470372 
Q 89.737324 34.470372 90.22469 34.639076 
Q 90.712055 34.807779 91.030717 34.995228 
Q 91.349379 35.182676 91.574317 35.670041 
Q 91.799255 36.157407 91.911724 36.419834 
Q 92.024193 36.682262 92.080428 37.375821 
Q 92.136662 38.069379 92.155407 38.331807 
Q 92.174152 38.594234 92.155407 39.419007 
Q 92.136662 40.243779 92.136662 40.431228 
Q 92.136662 41.368469 91.967959 43.242952 
Q 91.799255 45.117434 91.799255 46.054676 
Q 91.799255 46.467062 91.85549 46.823214 
Q 91.911724 47.179366 92.005448 47.610497 
Q 92.099172 48.041628 92.136662 48.304055 
L 92.586538 48.528993 
M 86.063338 23.111007 
Q 86.288276 24.798041 86.288276 29.971614 
L 86.288276 42.3432 
L 85.950869 46.841959 
L 85.725931 47.74171 
" clip-path="url(#p6a7eb1107c)" style="fill: none; stroke: #000000; stroke-linejoin: miter"/>
   </g>
  </g>
  <g id="axes_7">
   <g id="patch_7">
    <path d="M 101.813462 32.783338 
Q 102.338317 34.507862 102.469531 36.457324 
Q 102.600745 38.406786 102.525766 40.956083 
Q 102.450786 43.505379 102.488276 44.705048 
L 102.600745 46.054676 
L 102.600745 45.829738 
Q 102.600745 44.667559 102.319572 42.30571 
Q 102.0384 39.943862 102.0384 38.744193 
Q 102.0384 36.419834 103.050621 34.882759 
Q 104.062841 33.345683 106.087283 33.345683 
Q 106.799586 33.345683 107.136993 33.626855 
Q 107.4744 33.908028 107.736828 34.432883 
Q 107.999255 34.957738 108.336662 35.257655 
L 108.786538 36.832221 
" clip-path="url(#p53b0c56f7a)" style="fill: none; stroke: #000000; stroke-linejoin: miter"/>
   </g>
  </g>
  <g id="axes_8">
   <g id="patch_8">
    <path d="M 124.7616 35.032717 
Q 123.71189 34.582841 122.737159 34.69531 
Q 119.700497 35.032717 117.788524 36.701007 
Q 115.876552 38.369297 115.876552 41.330979 
Q 115.876552 43.917766 117.882248 45.6048 
Q 119.887945 47.291834 122.512221 47.291834 
Q 124.874069 47.291834 125.998759 45.361117 
Q 127.123448 43.4304 127.123448 40.881103 
Q 127.123448 39.643945 126.711062 38.706703 
Q 126.298676 37.769462 125.773821 37.300841 
Q 125.248966 36.832221 124.499172 36.119917 
Q 123.749379 35.407614 123.299503 34.69531 
L 122.062345 34.245434 
" clip-path="url(#p82559c72b9)" style="fill: none; stroke: #000000; stroke-linejoin: miter"/>
   </g>
  </g>
  <g id="axes_9">
   <g id="patch_9">
    <path d="M 133.088772 35.145186 
Q 133.088772 35.145186 133.088772 35.595062 
Q 133.088772 36.269876 132.976303 37.619503 
Q 132.863834 38.969131 132.863834 39.643945 
Q 132.863834 41.930814 134.100993 43.599103 
Q 135.338152 45.267393 137.475062 45.267393 
Q 138.862179 45.154924 139.630717 43.917766 
Q 140.399255 42.680607 140.549214 41.237255 
Q 140.699172 39.793903 140.9616 37.9944 
Q 141.224028 36.194897 141.636414 35.370124 
Q 141.786372 35.070207 141.786372 35.670041 
Q 141.786372 36.269876 141.523945 38.706703 
Q 141.299007 41.031062 141.299007 41.555917 
Q 141.149048 42.643117 141.486455 43.767807 
Q 141.823862 44.892497 142.536166 45.6048 
" clip-path="url(#pc27fa5b498)" style="fill: none; stroke: #000000; stroke-linejoin: miter"/>
   </g>
  </g>
  <g id="axes_10">
   <g id="patch_10">
    <path d="M 158.687191 39.096404 
Q 158.43236 39.023596 157.46764 38.623146 
Q 156.502921 38.222697 155.84764 38.077079 
Q 155.19236 37.931461 154.537079 38.00427 
Q 151.915955 38.00427 150.277753 40.388764 
Q 148.639551 42.773258 148.639551 45.430787 
Q 148.639551 47.068989 153.881798 47.068989 
Q 155.447191 47.068989 156.775955 45.558202 
Q 158.104719 44.047416 158.778202 42.172584 
Q 159.451685 40.297753 159.451685 38.768764 
Q 159.451685 37.27618 159.415281 36.984944 
L 159.342472 38.077079 
Q 159.342472 38.550337 159.342472 38.987191 
Q 159.378876 40.188539 159.579101 42.281798 
Q 159.779326 44.375056 159.943146 46.049663 
Q 160.106966 47.72427 160.143371 49.872135 
Q 160.179775 52.02 160.015955 53.658202 
Q 159.852135 55.296404 159.287865 56.971011 
Q 158.723596 58.645618 157.795281 59.737753 
Q 156.866966 60.829888 155.265169 61.521573 
Q 153.663371 62.213258 151.515506 62.213258 
Q 149.877303 62.213258 148.785169 61.466966 
Q 147.693034 60.720674 147.693034 59.155281 
Q 147.620225 58.936854 147.656629 58.936854 
Q 147.693034 58.936854 147.802247 58.936854 
Q 147.911461 58.936854 147.911461 58.82764 
" clip-path="url(#pccf9fdc9dc)" style="fill: none; stroke: #000000; stroke-linejoin: miter"/>
   </g>
  </g>
  <g id="axes_11">
   <g id="patch_11">
    <path d="M 166.613462 35.932469 
Q 167.213297 35.257655 168.206772 34.826524 
Q 169.200248 34.395393 170.1 34.470372 
Q 170.737324 34.470372 171.22469 34.639076 
Q 171.712055 34.807779 172.030717 34.995228 
Q 172.349379 35.182676 172.574317 35.670041 
Q 172.799255 36.157407 172.911724 36.419834 
Q 173.024193 36.682262 173.080428 37.375821 
Q 173.136662 38.069379 173.155407 38.331807 
Q 173.174152 38.594234 173.155407 39.419007 
Q 173.136662 40.243779 173.136662 40.431228 
Q 173.136662 41.368469 172.967959 43.242952 
Q 172.799255 45.117434 172.799255 46.054676 
Q 172.799255 46.467062 172.85549 46.823214 
Q 172.911724 47.179366 173.005448 47.610497 
Q 173.099172 48.041628 173.136662 48.304055 
L 173.586538 48.528993 
M 167.063338 23.111007 
Q 167.288276 24.798041 167.288276 29.971614 
L 167.288276 42.3432 
L 166.950869 46.841959 
L 166.725931 47.74171 
" clip-path="url(#p50bd33421b)" style="fill: none; stroke: #000000; stroke-linejoin: miter"/>
   </g>
  </g>
  <g id="axes_12"/>
  <g id="axes_13">
   <g id="patch_12">
    <path d="M 198.057476 43.917766 
Q 198.357393 44.180193 199.369614 45.154924 
Q 200.381834 46.129655 200.944179 46.560786 
Q 201.506524 46.991917 202.53749 47.385559 
Q 203.568455 47.7792 204.580676 47.629241 
Q 205.25549 47.629241 205.72411 47.404303 
Q 206.192731 47.179366 206.417669 46.879448 
Q 206.642607 46.579531 206.773821 45.979697 
Q 206.905034 45.379862 206.923779 44.967476 
Q 206.942524 44.55509 206.942524 43.805297 
Q 206.942524 42.718097 206.042772 42.043283 
Q 205.143021 41.368469 203.849628 41.031062 
Q 202.556234 40.693655 201.262841 40.300014 
Q 199.969448 39.906372 199.069697 38.987876 
Q 198.169945 38.069379 198.169945 36.607283 
Q 198.169945 36.082428 198.338648 35.726276 
Q 198.507352 35.370124 198.900993 35.145186 
Q 199.294634 34.920248 199.575807 34.807779 
Q 199.856979 34.69531 200.513048 34.639076 
Q 201.169117 34.582841 201.356566 34.582841 
Q 201.544014 34.582841 202.218828 34.582841 
Q 203.418497 34.582841 203.999586 34.995228 
Q 204.580676 35.407614 204.899338 36.026193 
Q 205.218 36.644772 205.480428 36.832221 
" clip-path="url(#p54f264adaa)" style="fill: none; stroke: #000000; stroke-linejoin: miter"/>
   </g>
  </g>
  <g id="axes_14">
   <g id="patch_13">
    <path d="M 221.9616 35.032717 
Q 220.91189 34.582841 219.937159 34.69531 
Q 216.900497 35.032717 214.988524 36.701007 
Q 213.076552 38.369297 213.076552 41.330979 
Q 213.076552 43.917766 215.082248 45.6048 
Q 217.087945 47.291834 219.712221 47.291834 
Q 222.074069 47.291834 223.198759 45.361117 
Q 224.323448 43.4304 224.323448 40.881103 
Q 224.323448 39.643945 223.911062 38.706703 
Q 223.498676 37.769462 222.973821 37.300841 
Q 222.448966 36.832221 221.699172 36.119917 
Q 220.949379 35.407614 220.499503 34.69531 
L 219.262345 34.245434 
" clip-path="url(#p87c142889c)" style="fill: none; stroke: #000000; stroke-linejoin: miter"/>
   </g>
  </g>
  <g id="axes_15">
   <g id="patch_14">
    <path d="M 228.608036 34.879821 
Q 229.114286 36.073125 229.403571 42.871339 
Q 229.548214 46.632054 229.8375 46.632054 
Q 229.873661 46.632054 229.909821 46.595893 
Q 230.416071 46.017321 230.470312 44.588973 
Q 230.524554 43.160625 230.307589 41.750357 
Q 230.090625 40.340089 229.8375 38.712857 
Q 229.584375 37.085625 229.584375 36.398571 
Q 229.584375 35.169107 229.964062 33.939643 
Q 230.34375 32.710179 231.320089 32.710179 
Q 232.549554 32.710179 233.272768 34.355491 
Q 233.995982 36.000804 234.158705 37.971563 
Q 234.321429 39.942321 234.429911 41.587634 
Q 234.538393 43.232946 234.683036 43.232946 
Q 234.827679 43.232946 234.91808 41.497232 
Q 235.008482 39.761518 235.135045 37.700357 
Q 235.261607 35.639196 235.984821 33.903482 
Q 236.708036 32.167768 237.9375 32.167768 
Q 239.492411 33.035625 240.161384 34.771339 
Q 240.830357 36.507054 240.794196 38.188527 
Q 240.758036 39.87 240.776116 42.057723 
Q 240.794196 44.245446 241.191964 45.511071 
" clip-path="url(#p357c0fa574)" style="fill: none; stroke: #000000; stroke-linejoin: miter"/>
   </g>
  </g>
  <g id="axes_16">
   <g id="patch_15">
    <path d="M 244.857798 38.160826 
Q 247.830275 39.535596 252.549083 39.721376 
Q 254.072477 39.721376 254.759862 38.550963 
Q 255.447248 37.38055 255.447248 35.82 
Q 255.447248 35.299817 255.354358 34.909679 
Q 255.261468 34.519541 255.019954 34.296606 
Q 254.77844 34.07367 254.611239 33.943624 
Q 254.444037 33.813578 253.998165 33.757844 
Q 253.552294 33.70211 253.347936 33.683532 
Q 253.143578 33.664954 252.567661 33.683532 
Q 251.991743 33.70211 251.768807 33.70211 
Q 249.725229 33.70211 248.238991 35.578486 
Q 246.752752 37.454862 246.752752 39.609908 
Q 246.752752 42.619541 248.684862 44.570229 
Q 250.616972 46.520917 253.663761 46.520917 
Q 255.818807 46.818165 257.342202 44.29156 
" clip-path="url(#p72a911cb52)" style="fill: none; stroke: #000000; stroke-linejoin: miter"/>
   </g>
  </g>
  <g id="axes_17"/>
  <g id="axes_18">
   <g id="patch_16">
    <path d="M 286.7616 35.032717 
Q 285.71189 34.582841 284.737159 34.69531 
Q 281.700497 35.032717 279.788524 36.701007 
Q 277.876552 38.369297 277.876552 41.330979 
Q 277.876552 43.917766 279.882248 45.6048 
Q 281.887945 47.291834 284.512221 47.291834 
Q 286.874069 47.291834 287.998759 45.361117 
Q 289.123448 43.4304 289.123448 40.881103 
Q 289.123448 39.643945 288.711062 38.706703 
Q 288.298676 37.769462 287.773821 37.300841 
Q 287.248966 36.832221 286.499172 36.119917 
Q 285.749379 35.407614 285.299503 34.69531 
L 284.062345 34.245434 
" clip-path="url(#pa6adf5e7fd)" style="fill: none; stroke: #000000; stroke-linejoin: miter"/>
   </g>
  </g>
  <g id="axes_19">
   <g id="patch_17">
    <path d="M 293.384141 38.85304 
L 293.812335 38.85304 
Q 294.63304 38.85304 295.596476 38.745991 
Q 296.559912 38.638943 297.719604 38.460529 
Q 298.879295 38.282115 299.485903 38.210749 
L 306.015859 35.427489 
M 305.694714 25.793128 
Q 305.409251 25.721762 304.374449 25.275727 
Q 303.339648 24.829692 302.697357 24.93674 
Q 302.055066 24.93674 301.537665 25.150837 
Q 301.020264 25.364934 300.681278 25.793128 
Q 300.342291 26.221322 300.07467 26.685198 
Q 299.807048 27.149075 299.664317 27.862731 
Q 299.521586 28.576388 299.414537 29.129471 
Q 299.307489 29.682555 299.289648 30.50326 
Q 299.271806 31.323965 299.253965 31.77 
Q 299.236123 32.216035 299.253965 32.965374 
Q 299.271806 33.714714 299.271806 33.928811 
Q 299.271806 36.605022 299.967621 41.850396 
Q 300.663436 47.095771 300.663436 49.771982 
Q 300.59207 50.057445 300.556388 50.681894 
Q 300.520705 51.306344 300.413656 51.805903 
Q 300.306608 52.305463 300.021145 52.555242 
" clip-path="url(#pe7a2b6558b)" style="fill: none; stroke: #000000; stroke-linejoin: miter"/>
   </g>
  </g>
  <g id="axes_20"/>
  <g id="axes_21">
   <g id="patch_18">
    <path d="M 327.263834 37.95691 
L 327.938648 37.95691 
Q 328.650952 37.95691 329.438234 37.881931 
Q 330.225517 37.806952 331.181503 37.675738 
Q 332.13749 37.544524 332.662345 37.507034 
L 336.936166 35.82 
M 332.887283 30.42149 
L 332.887283 31.43371 
Q 332.887283 33.383172 332.212469 37.207117 
Q 331.537655 41.031062 331.537655 43.018014 
Q 331.537655 43.805297 331.537655 44.105214 
Q 331.537655 44.405131 331.631379 45.042455 
Q 331.725103 45.679779 331.912552 45.960952 
Q 332.1 46.242124 332.493641 46.485807 
Q 332.887283 46.72949 333.449628 46.72949 
Q 333.562097 46.692 333.880759 46.72949 
Q 334.199421 46.766979 334.386869 46.710745 
Q 334.574317 46.65451 334.574317 46.392083 
" clip-path="url(#p066c1ae4c6)" style="fill: none; stroke: #000000; stroke-linejoin: miter"/>
   </g>
  </g>
  <g id="axes_22">
   <g id="patch_19">
    <path d="M 344.813462 35.932469 
Q 345.413297 35.257655 346.406772 34.826524 
Q 347.400248 34.395393 348.3 34.470372 
Q 348.937324 34.470372 349.42469 34.639076 
Q 349.912055 34.807779 350.230717 34.995228 
Q 350.549379 35.182676 350.774317 35.670041 
Q 350.999255 36.157407 351.111724 36.419834 
Q 351.224193 36.682262 351.280428 37.375821 
Q 351.336662 38.069379 351.355407 38.331807 
Q 351.374152 38.594234 351.355407 39.419007 
Q 351.336662 40.243779 351.336662 40.431228 
Q 351.336662 41.368469 351.167959 43.242952 
Q 350.999255 45.117434 350.999255 46.054676 
Q 350.999255 46.467062 351.05549 46.823214 
Q 351.111724 47.179366 351.205448 47.610497 
Q 351.299172 48.041628 351.336662 48.304055 
L 351.786538 48.528993 
M 345.263338 23.111007 
Q 345.488276 24.798041 345.488276 29.971614 
L 345.488276 42.3432 
L 345.150869 46.841959 
L 344.925931 47.74171 
" clip-path="url(#pf732b89b5a)" style="fill: none; stroke: #000000; stroke-linejoin: miter"/>
   </g>
  </g>
  <g id="axes_23">
   <g id="patch_20">
    <path d="M 358.257798 38.160826 
Q 361.230275 39.535596 365.949083 39.721376 
Q 367.472477 39.721376 368.159862 38.550963 
Q 368.847248 37.38055 368.847248 35.82 
Q 368.847248 35.299817 368.754358 34.909679 
Q 368.661468 34.519541 368.419954 34.296606 
Q 368.17844 34.07367 368.011239 33.943624 
Q 367.844037 33.813578 367.398165 33.757844 
Q 366.952294 33.70211 366.747936 33.683532 
Q 366.543578 33.664954 365.967661 33.683532 
Q 365.391743 33.70211 365.168807 33.70211 
Q 363.125229 33.70211 361.638991 35.578486 
Q 360.152752 37.454862 360.152752 39.609908 
Q 360.152752 42.619541 362.084862 44.570229 
Q 364.016972 46.520917 367.063761 46.520917 
Q 369.218807 46.818165 370.742202 44.29156 
" clip-path="url(#pa585dd6c55)" style="fill: none; stroke: #000000; stroke-linejoin: miter"/>
   </g>
  </g>
  <g id="axes_24"/>
  <g id="axes_25">
   <g id="patch_21">
    <path d="M 392.457476 43.917766 
Q 392.757393 44.180193 393.769614 45.154924 
Q 394.781834 46.129655 395.344179 46.560786 
Q 395.906524 46.991917 396.93749 47.385559 
Q 397.968455 47.7792 398.980676 47.629241 
Q 399.65549 47.629241 400.12411 47.404303 
Q 400.592731 47.179366 400.817669 46.879448 
Q 401.042607 46.579531 401.173821 45.979697 
Q 401.305034 45.379862 401.323779 44.967476 
Q 401.342524 44.55509 401.342524 43.805297 
Q 401.342524 42.718097 400.442772 42.043283 
Q 399.543021 41.368469 398.249628 41.031062 
Q 396.956234 40.693655 395.662841 40.300014 
Q 394.369448 39.906372 393.469697 38.987876 
Q 392.569945 38.069379 392.569945 36.607283 
Q 392.569945 36.082428 392.738648 35.726276 
Q 392.907352 35.370124 393.300993 35.145186 
Q 393.694634 34.920248 393.975807 34.807779 
Q 394.256979 34.69531 394.913048 34.639076 
Q 395.569117 34.582841 395.756566 34.582841 
Q 395.944014 34.582841 396.618828 34.582841 
Q 397.818497 34.582841 398.399586 34.995228 
Q 398.980676 35.407614 399.299338 36.026193 
Q 399.618 36.644772 399.880428 36.832221 
" clip-path="url(#pa731dce00a)" style="fill: none; stroke: #000000; stroke-linejoin: miter"/>
   </g>
  </g>
  <g id="axes_26">
   <g id="patch_22">
    <path d="M 409.613462 35.932469 
Q 410.213297 35.257655 411.206772 34.826524 
Q 412.200248 34.395393 413.1 34.470372 
Q 413.737324 34.470372 414.22469 34.639076 
Q 414.712055 34.807779 415.030717 34.995228 
Q 415.349379 35.182676 415.574317 35.670041 
Q 415.799255 36.157407 415.911724 36.419834 
Q 416.024193 36.682262 416.080428 37.375821 
Q 416.136662 38.069379 416.155407 38.331807 
Q 416.174152 38.594234 416.155407 39.419007 
Q 416.136662 40.243779 416.136662 40.431228 
Q 416.136662 41.368469 415.967959 43.242952 
Q 415.799255 45.117434 415.799255 46.054676 
Q 415.799255 46.467062 415.85549 46.823214 
Q 415.911724 47.179366 416.005448 47.610497 
Q 416.099172 48.041628 416.136662 48.304055 
L 416.586538 48.528993 
M 410.063338 23.111007 
Q 410.288276 24.798041 410.288276 29.971614 
L 410.288276 42.3432 
L 409.950869 46.841959 
L 409.725931 47.74171 
" clip-path="url(#pb64c98df4f)" style="fill: none; stroke: #000000; stroke-linejoin: miter"/>
   </g>
  </g>
  <g id="axes_27">
   <g id="patch_23">
    <path d="M 423.057798 38.160826 
Q 426.030275 39.535596 430.749083 39.721376 
Q 432.272477 39.721376 432.959862 38.550963 
Q 433.647248 37.38055 433.647248 35.82 
Q 433.647248 35.299817 433.554358 34.909679 
Q 433.461468 34.519541 433.219954 34.296606 
Q 432.97844 34.07367 432.811239 33.943624 
Q 432.644037 33.813578 432.198165 33.757844 
Q 431.752294 33.70211 431.547936 33.683532 
Q 431.343578 33.664954 430.767661 33.683532 
Q 430.191743 33.70211 429.968807 33.70211 
Q 427.925229 33.70211 426.438991 35.578486 
Q 424.952752 37.454862 424.952752 39.609908 
Q 424.952752 42.619541 426.884862 44.570229 
Q 428.816972 46.520917 431.863761 46.520917 
Q 434.018807 46.818165 435.542202 44.29156 
" clip-path="url(#pddabd70af1)" style="fill: none; stroke: #000000; stroke-linejoin: miter"/>
   </g>
  </g>
  <g id="axes_28">
   <g id="patch_24">
    <path d="M 445.106359 28.621986 
Q 445.331297 30.34651 445.406276 32.146014 
Q 445.481255 33.945517 445.46251 36.551048 
Q 445.443766 39.156579 445.443766 40.093821 
Q 445.443766 40.13131 445.668703 45.829738 
L 445.893641 46.841959 
" clip-path="url(#p46718c7922)" style="fill: none; stroke: #000000; stroke-linejoin: miter"/>
   </g>
  </g>
  <g id="axes_29">
   <g id="patch_25">
    <path d="M 457.426179 34.807779 
Q 459.038234 36.719752 460.331628 39.6252 
Q 461.625021 42.530648 461.924938 45.154924 
Q 462.974648 43.655338 463.893145 38.819172 
Q 464.811641 33.983007 465.973821 32.108524 
" clip-path="url(#p5f119b49f5)" style="fill: none; stroke: #000000; stroke-linejoin: miter"/>
   </g>
  </g>
  <g id="axes_30">
   <g id="patch_26">
    <path d="M 471.657798 38.160826 
Q 474.630275 39.535596 479.349083 39.721376 
Q 480.872477 39.721376 481.559862 38.550963 
Q 482.247248 37.38055 482.247248 35.82 
Q 482.247248 35.299817 482.154358 34.909679 
Q 482.061468 34.519541 481.819954 34.296606 
Q 481.57844 34.07367 481.411239 33.943624 
Q 481.244037 33.813578 480.798165 33.757844 
Q 480.352294 33.70211 480.147936 33.683532 
Q 479.943578 33.664954 479.367661 33.683532 
Q 478.791743 33.70211 478.568807 33.70211 
Q 476.525229 33.70211 475.038991 35.578486 
Q 473.552752 37.454862 473.552752 39.609908 
Q 473.552752 42.619541 475.484862 44.570229 
Q 477.416972 46.520917 480.463761 46.520917 
Q 482.618807 46.818165 484.142202 44.29156 
" clip-path="url(#pba7cc80c94)" style="fill: none; stroke: #000000; stroke-linejoin: miter"/>
   </g>
  </g>
  <g id="axes_31">
   <g id="patch_27">
    <path d="M 489.657476 43.917766 
Q 489.957393 44.180193 490.969614 45.154924 
Q 491.981834 46.129655 492.544179 46.560786 
Q 493.106524 46.991917 494.13749 47.385559 
Q 495.168455 47.7792 496.180676 47.629241 
Q 496.85549 47.629241 497.32411 47.404303 
Q 497.792731 47.179366 498.017669 46.879448 
Q 498.242607 46.579531 498.373821 45.979697 
Q 498.505034 45.379862 498.523779 44.967476 
Q 498.542524 44.55509 498.542524 43.805297 
Q 498.542524 42.718097 497.642772 42.043283 
Q 496.743021 41.368469 495.449628 41.031062 
Q 494.156234 40.693655 492.862841 40.300014 
Q 491.569448 39.906372 490.669697 38.987876 
Q 489.769945 38.069379 489.769945 36.607283 
Q 489.769945 36.082428 489.938648 35.726276 
Q 490.107352 35.370124 490.500993 35.145186 
Q 490.894634 34.920248 491.175807 34.807779 
Q 491.456979 34.69531 492.113048 34.639076 
Q 492.769117 34.582841 492.956566 34.582841 
Q 493.144014 34.582841 493.818828 34.582841 
Q 495.018497 34.582841 495.599586 34.995228 
Q 496.180676 35.407614 496.499338 36.026193 
Q 496.818 36.644772 497.080428 36.832221 
" clip-path="url(#p9e19f83910)" style="fill: none; stroke: #000000; stroke-linejoin: miter"/>
   </g>
  </g>
  <g id="axes_32">
   <g id="patch_28">
    <path d="M 509.587697 39.981352 
Q 510.599917 40.956083 510.937324 42.905545 
Q 511.124772 43.955255 510.712386 46.167145 
L 509.475228 47.629241 
" clip-path="url(#p6099185250)" style="fill: none; stroke: #000000; stroke-linejoin: miter"/>
   </g>
  </g>
  <g id="axes_33"/>
  <g id="axes_34">
   <g id="patch_29">
    <path d="M 543.224855 27.009931 
Q 543.299834 27.347338 543.374814 28.265834 
Q 543.449793 29.184331 543.599752 29.634207 
L 543.524772 31.058814 
M 541.875228 27.309848 
Q 541.837738 27.309848 541.800248 27.534786 
Q 541.837738 27.684745 541.950207 28.828179 
Q 542.062676 29.971614 542.325103 30.533959 
" clip-path="url(#peb8dd7c58a)" style="fill: none; stroke: #000000; stroke-linejoin: miter"/>
   </g>
  </g>
  <g id="axes_35">
   <g id="patch_30">
    <path d="M 552.114935 43.209935 
L 565.685065 43.209935 
M 553.456169 30.007987 
L 564.343831 29.929091 
M 558.347727 30.323571 
L 558.347727 30.718052 
Q 558.347727 32.243377 558.439773 33.99224 
Q 558.531818 35.741104 558.68961 37.910747 
Q 558.847403 40.08039 558.9 41.211234 
L 559.057792 43.025844 
" clip-path="url(#p21bf56a1e8)" style="fill: none; stroke: #000000; stroke-linejoin: miter"/>
   </g>
  </g>
  <g id="axes_36">
   <g id="patch_31">
    <path d="M 575.025021 26.147669 
Q 574.987531 26.597545 575.025021 27.384828 
Q 575.06251 27.572276 575.006276 27.965917 
Q 574.950041 28.359559 574.987531 28.678221 
Q 575.025021 28.996883 575.249959 29.184331 
" clip-path="url(#pbecde77e72)" style="fill: none; stroke: #000000; stroke-linejoin: miter"/>
   </g>
  </g>
  <g id="axes_37">
   <g id="patch_32">
    <path d="M 585.008036 34.879821 
Q 585.514286 36.073125 585.803571 42.871339 
Q 585.948214 46.632054 586.2375 46.632054 
Q 586.273661 46.632054 586.309821 46.595893 
Q 586.816071 46.017321 586.870313 44.588973 
Q 586.924554 43.160625 586.707589 41.750357 
Q 586.490625 40.340089 586.2375 38.712857 
Q 585.984375 37.085625 585.984375 36.398571 
Q 585.984375 35.169107 586.364063 33.939643 
Q 586.74375 32.710179 587.720089 32.710179 
Q 588.949554 32.710179 589.672768 34.355491 
Q 590.395982 36.000804 590.558705 37.971563 
Q 590.721429 39.942321 590.829911 41.587634 
Q 590.938393 43.232946 591.083036 43.232946 
Q 591.227679 43.232946 591.31808 41.497232 
Q 591.408482 39.761518 591.535045 37.700357 
Q 591.661607 35.639196 592.384821 33.903482 
Q 593.108036 32.167768 594.3375 32.167768 
Q 595.892411 33.035625 596.561384 34.771339 
Q 597.230357 36.507054 597.194196 38.188527 
Q 597.158036 39.87 597.176116 42.057723 
Q 597.194196 44.245446 597.591964 45.511071 
" clip-path="url(#pafde0fc055)" style="fill: none; stroke: #000000; stroke-linejoin: miter"/>
   </g>
  </g>
  <g id="axes_38"/>
  <g id="axes_39">
   <g id="patch_33">
    <path d="M 620.381498 38.139383 
Q 620.381498 38.139383 622.415419 38.139383 
Q 623.236123 37.889604 625.555507 38.085859 
Q 627.87489 38.282115 628.838326 38.139383 
M 617.384141 46.489163 
L 617.491189 46.168018 
Q 617.491189 45.275947 619.418062 40.797753 
Q 621.344934 36.319559 623.307489 32.251718 
Q 625.270044 28.183877 625.412775 28.183877 
Q 626.269163 28.183877 626.964978 29.646872 
Q 627.660793 31.109868 628.12467 33.393568 
Q 628.588546 35.677269 628.927533 37.943128 
Q 629.26652 40.208987 629.551982 42.332115 
Q 629.837445 44.455242 630.015859 45.097533 
" clip-path="url(#p965c18a982)" style="fill: none; stroke: #000000; stroke-linejoin: miter"/>
   </g>
  </g>
  <g id="axes_40">
   <g id="patch_34">
    <path d="M 635.438731 37.282097 
L 635.438731 37.844441 
Q 635.701159 39.868883 635.738648 41.312234 
Q 635.776138 42.755586 635.682414 44.667559 
Q 635.58869 46.579531 635.58869 48.191586 
L 635.663669 39.643945 
Q 635.663669 38.144359 637.256979 37.507034 
Q 638.85029 36.86971 640.274897 37.282097 
Q 642.186869 37.844441 643.105366 39.04411 
Q 644.023862 40.243779 644.080097 41.668386 
Q 644.136331 43.092993 644.173821 44.817517 
Q 644.21131 46.542041 644.361269 48.191586 
" clip-path="url(#p9ffe99d847)" style="fill: none; stroke: #000000; stroke-linejoin: miter"/>
   </g>
  </g>
  <g id="axes_41">
   <g id="patch_35">
    <path d="M 660.887191 39.096404 
Q 660.63236 39.023596 659.66764 38.623146 
Q 658.702921 38.222697 658.04764 38.077079 
Q 657.39236 37.931461 656.737079 38.00427 
Q 654.115955 38.00427 652.477753 40.388764 
Q 650.839551 42.773258 650.839551 45.430787 
Q 650.839551 47.068989 656.081798 47.068989 
Q 657.647191 47.068989 658.975955 45.558202 
Q 660.304719 44.047416 660.978202 42.172584 
Q 661.651685 40.297753 661.651685 38.768764 
Q 661.651685 37.27618 661.615281 36.984944 
L 661.542472 38.077079 
Q 661.542472 38.550337 661.542472 38.987191 
Q 661.578876 40.188539 661.779101 42.281798 
Q 661.979326 44.375056 662.143146 46.049663 
Q 662.306966 47.72427 662.343371 49.872135 
Q 662.379775 52.02 662.215955 53.658202 
Q 662.052135 55.296404 661.487865 56.971011 
Q 660.923596 58.645618 659.995281 59.737753 
Q 659.066966 60.829888 657.465169 61.521573 
Q 655.863371 62.213258 653.715506 62.213258 
Q 652.077303 62.213258 650.985169 61.466966 
Q 649.893034 60.720674 649.893034 59.155281 
Q 649.820225 58.936854 649.856629 58.936854 
Q 649.893034 58.936854 650.002247 58.936854 
Q 650.111461 58.936854 650.111461 58.82764 
" clip-path="url(#pad55d3ed0c)" style="fill: none; stroke: #000000; stroke-linejoin: miter"/>
   </g>
  </g>
  <g id="axes_42">
   <g id="patch_36">
    <path d="M 666.057798 38.160826 
Q 669.030275 39.535596 673.749083 39.721376 
Q 675.272477 39.721376 675.959862 38.550963 
Q 676.647248 37.38055 676.647248 35.82 
Q 676.647248 35.299817 676.554358 34.909679 
Q 676.461468 34.519541 676.219954 34.296606 
Q 675.97844 34.07367 675.811239 33.943624 
Q 675.644037 33.813578 675.198165 33.757844 
Q 674.752294 33.70211 674.547936 33.683532 
Q 674.343578 33.664954 673.767661 33.683532 
Q 673.191743 33.70211 672.968807 33.70211 
Q 670.925229 33.70211 669.438991 35.578486 
Q 667.952752 37.454862 667.952752 39.609908 
Q 667.952752 42.619541 669.884862 44.570229 
Q 671.816972 46.520917 674.863761 46.520917 
Q 677.018807 46.818165 678.542202 44.29156 
" clip-path="url(#p9ad4d56dba)" style="fill: none; stroke: #000000; stroke-linejoin: miter"/>
   </g>
  </g>
  <g id="axes_43">
   <g id="patch_37">
    <path d="M 688.106359 28.621986 
Q 688.331297 30.34651 688.406276 32.146014 
Q 688.481255 33.945517 688.46251 36.551048 
Q 688.443766 39.156579 688.443766 40.093821 
Q 688.443766 40.13131 688.668703 45.829738 
L 688.893641 46.841959 
" clip-path="url(#paac69e3fbc)" style="fill: none; stroke: #000000; stroke-linejoin: miter"/>
   </g>
  </g>
  <g id="axes_44">
   <g id="patch_38">
    <path d="M 710.243923 36.441748 
Q 709.034968 35.094627 705.062687 35.094627 
Q 703.542857 35.094627 702.765672 35.146439 
Q 701.988486 35.198252 700.98678 35.440043 
Q 699.985075 35.681834 699.501493 36.182687 
Q 699.01791 36.683539 698.672495 37.616162 
Q 698.327079 38.548785 698.327079 39.964989 
Q 698.327079 42.037484 699.743284 43.280981 
Q 701.159488 44.524478 703.093817 44.524478 
Q 705.753518 44.524478 708.516844 38.721493 
Q 709.863966 35.854542 709.863966 35.82 
Q 710.209382 35.578209 710.243923 36.441748 
Q 710.243923 37.512537 710.658422 40.362217 
Q 711.072921 43.211898 711.072921 44.524478 
" clip-path="url(#p48b38edf36)" style="fill: none; stroke: #000000; stroke-linejoin: miter"/>
   </g>
  </g>
  <g id="axes_45"/>
  <g id="axes_46">
   <g id="patch_39">
    <path d="M 742.643923 36.441748 
Q 741.434968 35.094627 737.462687 35.094627 
Q 735.942857 35.094627 735.165672 35.146439 
Q 734.388486 35.198252 733.38678 35.440043 
Q 732.385075 35.681834 731.901493 36.182687 
Q 731.41791 36.683539 731.072495 37.616162 
Q 730.727079 38.548785 730.727079 39.964989 
Q 730.727079 42.037484 732.143284 43.280981 
Q 733.559488 44.524478 735.493817 44.524478 
Q 738.153518 44.524478 740.916844 38.721493 
Q 742.263966 35.854542 742.263966 35.82 
Q 742.609382 35.578209 742.643923 36.441748 
Q 742.643923 37.512537 743.058422 40.362217 
Q 743.472921 43.211898 743.472921 44.524478 
" clip-path="url(#p5545827b51)" style="fill: none; stroke: #000000; stroke-linejoin: miter"/>
   </g>
  </g>
  <g id="axes_47">
   <g id="patch_40">
    <path d="M 748.838731 37.282097 
L 748.838731 37.844441 
Q 749.101159 39.868883 749.138648 41.312234 
Q 749.176138 42.755586 749.082414 44.667559 
Q 748.98869 46.579531 748.98869 48.191586 
L 749.063669 39.643945 
Q 749.063669 38.144359 750.656979 37.507034 
Q 752.25029 36.86971 753.674897 37.282097 
Q 755.586869 37.844441 756.505366 39.04411 
Q 757.423862 40.243779 757.480097 41.668386 
Q 757.536331 43.092993 757.573821 44.817517 
Q 757.61131 46.542041 757.761269 48.191586 
" clip-path="url(#p1354505581)" style="fill: none; stroke: #000000; stroke-linejoin: miter"/>
   </g>
  </g>
  <g id="axes_48">
   <g id="patch_41">
    <path d="M 773.099007 39.568966 
Q 771.749379 38.181848 769.5 38.444276 
Q 766.650786 38.444276 765.488607 39.793903 
Q 764.326428 41.143531 764.326428 44.067724 
Q 764.326428 45.56731 765.619821 46.279614 
Q 766.913214 46.991917 768.487779 46.991917 
Q 769.799917 46.991917 770.812138 45.736014 
Q 771.824359 44.48011 772.405448 42.30571 
Q 772.986538 40.13131 773.361434 37.938166 
Q 773.736331 35.745021 773.88629 33.045766 
Q 774.036248 30.34651 774.073738 28.978138 
Q 774.111228 27.609766 774.111228 26.185159 
Q 773.88629 26.260138 773.88629 29.896634 
L 773.88629 44.292662 
L 774.673572 48.229076 
" clip-path="url(#p5f28ef4ed6)" style="fill: none; stroke: #000000; stroke-linejoin: miter"/>
   </g>
  </g>
 </g>
 <defs>
  <clipPath id="p16e5e0e79f">
   <rect x="5.606938" y="8.64" width="4.986124" height="54.36"/>
  </clipPath>
  <clipPath id="p7029ff0953">
   <rect x="17.964248" y="8.64" width="12.671503" height="54.36"/>
  </clipPath>
  <clipPath id="p43ad4e1e8d">
   <rect x="32.4" y="9.426742" width="16.2" height="52.786517"/>
  </clipPath>
  <clipPath id="pbc2c0db679">
   <rect x="66.189352" y="8.64" width="13.421297" height="54.36"/>
  </clipPath>
  <clipPath id="p6a7eb1107c">
   <rect x="83.738979" y="8.64" width="10.722041" height="54.36"/>
  </clipPath>
  <clipPath id="p53b0c56f7a">
   <rect x="99.938979" y="8.64" width="10.722041" height="54.36"/>
  </clipPath>
  <clipPath id="p82559c72b9">
   <rect x="114.002069" y="8.64" width="14.995862" height="54.36"/>
  </clipPath>
  <clipPath id="pc27fa5b498">
   <rect x="130.989352" y="8.64" width="13.421297" height="54.36"/>
  </clipPath>
  <clipPath id="pccf9fdc9dc">
   <rect x="145.8" y="9.426742" width="16.2" height="52.786517"/>
  </clipPath>
  <clipPath id="p50bd33421b">
   <rect x="164.738979" y="8.64" width="10.722041" height="54.36"/>
  </clipPath>
  <clipPath id="p54f264adaa">
   <rect x="196.182993" y="8.64" width="12.634014" height="54.36"/>
  </clipPath>
  <clipPath id="p87c142889c">
   <rect x="211.202069" y="8.64" width="14.995862" height="54.36"/>
  </clipPath>
  <clipPath id="p357c0fa574">
   <rect x="226.8" y="9.603482" width="16.2" height="52.433036"/>
  </clipPath>
  <clipPath id="p72a911cb52">
   <rect x="243" y="8.881927" width="16.2" height="53.876147"/>
  </clipPath>
  <clipPath id="pa6adf5e7fd">
   <rect x="276.002069" y="8.64" width="14.995862" height="54.36"/>
  </clipPath>
  <clipPath id="pe7a2b6558b">
   <rect x="291.6" y="9.949956" width="16.2" height="51.740088"/>
  </clipPath>
  <clipPath id="p066c1ae4c6">
   <rect x="325.389352" y="8.64" width="13.421297" height="54.36"/>
  </clipPath>
  <clipPath id="pf732b89b5a">
   <rect x="342.938979" y="8.64" width="10.722041" height="54.36"/>
  </clipPath>
  <clipPath id="pa585dd6c55">
   <rect x="356.4" y="8.881927" width="16.2" height="53.876147"/>
  </clipPath>
  <clipPath id="pa731dce00a">
   <rect x="390.582993" y="8.64" width="12.634014" height="54.36"/>
  </clipPath>
  <clipPath id="pb64c98df4f">
   <rect x="407.738979" y="8.64" width="10.722041" height="54.36"/>
  </clipPath>
  <clipPath id="pddabd70af1">
   <rect x="421.2" y="8.881927" width="16.2" height="53.876147"/>
  </clipPath>
  <clipPath id="p46718c7922">
   <rect x="443.231876" y="8.64" width="4.536248" height="54.36"/>
  </clipPath>
  <clipPath id="p5f119b49f5">
   <rect x="455.551697" y="8.64" width="12.296607" height="54.36"/>
  </clipPath>
  <clipPath id="pba7cc80c94">
   <rect x="469.8" y="8.881927" width="16.2" height="53.876147"/>
  </clipPath>
  <clipPath id="p9e19f83910">
   <rect x="487.782993" y="8.64" width="12.634014" height="54.36"/>
  </clipPath>
  <clipPath id="p6099185250">
   <rect x="507.600745" y="8.64" width="5.39851" height="54.36"/>
  </clipPath>
  <clipPath id="peb8dd7c58a">
   <rect x="539.925766" y="8.64" width="5.548469" height="54.36"/>
  </clipPath>
  <clipPath id="p21bf56a1e8">
   <rect x="550.8" y="16.753442" width="16.2" height="38.133117"/>
  </clipPath>
  <clipPath id="pbecde77e72">
   <rect x="573.075559" y="8.64" width="4.048883" height="54.36"/>
  </clipPath>
  <clipPath id="pafde0fc055">
   <rect x="583.2" y="9.603482" width="16.2" height="52.433036"/>
  </clipPath>
  <clipPath id="p965c18a982">
   <rect x="615.6" y="9.949956" width="16.2" height="51.740088"/>
  </clipPath>
  <clipPath id="p9ffe99d847">
   <rect x="633.564248" y="8.64" width="12.671503" height="54.36"/>
  </clipPath>
  <clipPath id="pad55d3ed0c">
   <rect x="648" y="9.426742" width="16.2" height="52.786517"/>
  </clipPath>
  <clipPath id="p9ad4d56dba">
   <rect x="664.2" y="8.881927" width="16.2" height="53.876147"/>
  </clipPath>
  <clipPath id="paac69e3fbc">
   <rect x="686.231876" y="8.64" width="4.536248" height="54.36"/>
  </clipPath>
  <clipPath id="p48b38edf36">
   <rect x="696.6" y="10.777356" width="16.2" height="50.085288"/>
  </clipPath>
  <clipPath id="p5545827b51">
   <rect x="729" y="10.777356" width="16.2" height="50.085288"/>
  </clipPath>
  <clipPath id="p1354505581">
   <rect x="746.964248" y="8.64" width="12.671503" height="54.36"/>
  </clipPath>
  <clipPath id="p5f28ef4ed6">
   <rect x="762.451945" y="8.64" width="14.09611" height="54.36"/>
  </clipPath>
 </defs>
</svg>
