<?xml version="1.0" encoding="utf-8" standalone="no"?>
<!DOCTYPE svg PUBLIC "-//W3C//DTD SVG 1.1//EN"
  "http://www.w3.org/Graphics/SVG/1.1/DTD/svg11.dtd">
<svg xmlns:xlink="http://www.w3.org/1999/xlink" width="864pt" height="72pt" viewBox="0 0 864 72" xmlns="http://www.w3.org/2000/svg" version="1.1">
 <metadata>
  <rdf:RDF xmlns:dc="http://purl.org/dc/elements/1.1/" xmlns:cc="http://creativecommons.org/ns#" xmlns:rdf="http://www.w3.org/1999/02/22-rdf-syntax-ns#">
   <cc:Work>
    <dc:type rdf:resource="http://purl.org/dc/dcmitype/StillImage"/>
    <dc:date>2023-12-21T11:51:55.691290</dc:date>
    <dc:format>image/svg+xml</dc:format>
    <dc:creator>
     <cc:Agent>
      <dc:title>Matplotlib v3.5.1, https://matplotlib.org/</dc:title>
     </cc:Agent>
    </dc:creator>
   </cc:Work>
  </rdf:RDF>
 </metadata>
 <defs>
  <style type="text/css">*{stroke-linejoin: round; stroke-linecap: butt}</style>
 </defs>
 <g id="figure_1">
  <g id="patch_1">
   <path d="M 0 72 
L 864 72 
L 864 0 
L 0 0 
z
" style="fill: #8fff9f"/>
  </g>
  <g id="axes_1">
   <g id="patch_2">
    <path d="M 13.643923 36.441748 
Q 12.434968 35.094627 8.462687 35.094627 
Q 6.942857 35.094627 6.165672 35.146439 
Q 5.388486 35.198252 4.38678 35.440043 
Q 3.385075 35.681834 2.901493 36.182687 
Q 2.41791 36.683539 2.072495 37.616162 
Q 1.727079 38.548785 1.727079 39.964989 
Q 1.727079 42.037484 3.143284 43.280981 
Q 4.559488 44.524478 6.493817 44.524478 
Q 9.153518 44.524478 11.916844 38.721493 
Q 13.263966 35.854542 13.263966 35.82 
Q 13.609382 35.578209 13.643923 36.441748 
Q 13.643923 37.512537 14.058422 40.362217 
Q 14.472921 43.211898 14.472921 44.524478 
" clip-path="url(#p7bcbe93477)" style="fill: none; stroke: #000000; stroke-linejoin: miter"/>
   </g>
  </g>
  <g id="axes_2">
   <g id="patch_3">
    <path d="M 19.838731 37.282097 
L 19.838731 37.844441 
Q 20.101159 39.868883 20.138648 41.312234 
Q 20.176138 42.755586 20.082414 44.667559 
Q 19.98869 46.579531 19.98869 48.191586 
L 20.063669 39.643945 
Q 20.063669 38.144359 21.656979 37.507034 
Q 23.25029 36.86971 24.674897 37.282097 
Q 26.586869 37.844441 27.505366 39.04411 
Q 28.423862 40.243779 28.480097 41.668386 
Q 28.536331 43.092993 28.573821 44.817517 
Q 28.61131 46.542041 28.761269 48.191586 
" clip-path="url(#p0f25bc6582)" style="fill: none; stroke: #000000; stroke-linejoin: miter"/>
   </g>
  </g>
  <g id="axes_3">
   <g id="patch_4">
    <path d="M 35.363917 36.382345 
Q 35.326428 36.494814 35.457641 36.701007 
Q 35.588855 36.9072 35.476386 37.057159 
L 35.476386 39.306538 
Q 35.476386 40.506207 35.813793 41.724621 
Q 36.1512 42.943034 37.013462 43.93651 
Q 37.875724 44.929986 39.075393 44.929986 
Q 40.312552 44.929986 40.987366 43.861531 
Q 41.662179 42.793076 42.112055 41.143531 
Q 42.561931 39.493986 42.899338 38.969131 
L 43.686621 36.382345 
L 43.461683 42.680607 
L 43.461683 45.154924 
Q 43.461683 47.066897 44.192731 51.00331 
Q 44.923779 54.939724 44.923779 56.964166 
Q 45.673572 59.213545 44.586372 60.188276 
Q 43.499172 61.163007 41.437241 60.78811 
Q 39.637738 60.488193 38.719241 60.169531 
Q 37.800745 59.850869 35.813793 58.988607 
L 35.701324 58.426262 
" clip-path="url(#pefd6d909e8)" style="fill: none; stroke: #000000; stroke-linejoin: miter"/>
   </g>
  </g>
  <g id="axes_4"/>
  <g id="axes_5">
   <g id="patch_5">
    <path d="M 77.687191 39.096404 
Q 77.43236 39.023596 76.46764 38.623146 
Q 75.502921 38.222697 74.84764 38.077079 
Q 74.19236 37.931461 73.537079 38.00427 
Q 70.915955 38.00427 69.277753 40.388764 
Q 67.639551 42.773258 67.639551 45.430787 
Q 67.639551 47.068989 72.881798 47.068989 
Q 74.447191 47.068989 75.775955 45.558202 
Q 77.104719 44.047416 77.778202 42.172584 
Q 78.451685 40.297753 78.451685 38.768764 
Q 78.451685 37.27618 78.415281 36.984944 
L 78.342472 38.077079 
Q 78.342472 38.550337 78.342472 38.987191 
Q 78.378876 40.188539 78.579101 42.281798 
Q 78.779326 44.375056 78.943146 46.049663 
Q 79.106966 47.72427 79.143371 49.872135 
Q 79.179775 52.02 79.015955 53.658202 
Q 78.852135 55.296404 78.287865 56.971011 
Q 77.723596 58.645618 76.795281 59.737753 
Q 75.866966 60.829888 74.265169 61.521573 
Q 72.663371 62.213258 70.515506 62.213258 
Q 68.877303 62.213258 67.785169 61.466966 
Q 66.693034 60.720674 66.693034 59.155281 
Q 66.620225 58.936854 66.656629 58.936854 
Q 66.693034 58.936854 66.802247 58.936854 
Q 66.911461 58.936854 66.911461 58.82764 
" clip-path="url(#p7546e8b895)" style="fill: none; stroke: #000000; stroke-linejoin: miter"/>
   </g>
  </g>
  <g id="axes_6">
   <g id="patch_6">
    <path d="M 92.3616 35.032717 
Q 91.31189 34.582841 90.337159 34.69531 
Q 87.300497 35.032717 85.388524 36.701007 
Q 83.476552 38.369297 83.476552 41.330979 
Q 83.476552 43.917766 85.482248 45.6048 
Q 87.487945 47.291834 90.112221 47.291834 
Q 92.474069 47.291834 93.598759 45.361117 
Q 94.723448 43.4304 94.723448 40.881103 
Q 94.723448 39.643945 94.311062 38.706703 
Q 93.898676 37.769462 93.373821 37.300841 
Q 92.848966 36.832221 92.099172 36.119917 
Q 91.349379 35.407614 90.899503 34.69531 
L 89.662345 34.245434 
" clip-path="url(#p0a893fbdfe)" style="fill: none; stroke: #000000; stroke-linejoin: miter"/>
   </g>
  </g>
  <g id="axes_7">
   <g id="patch_7">
    <path d="M 108.5616 35.032717 
Q 107.51189 34.582841 106.537159 34.69531 
Q 103.500497 35.032717 101.588524 36.701007 
Q 99.676552 38.369297 99.676552 41.330979 
Q 99.676552 43.917766 101.682248 45.6048 
Q 103.687945 47.291834 106.312221 47.291834 
Q 108.674069 47.291834 109.798759 45.361117 
Q 110.923448 43.4304 110.923448 40.881103 
Q 110.923448 39.643945 110.511062 38.706703 
Q 110.098676 37.769462 109.573821 37.300841 
Q 109.048966 36.832221 108.299172 36.119917 
Q 107.549379 35.407614 107.099503 34.69531 
L 105.862345 34.245434 
" clip-path="url(#pe3e7a70928)" style="fill: none; stroke: #000000; stroke-linejoin: miter"/>
   </g>
  </g>
  <g id="axes_8">
   <g id="patch_8">
    <path d="M 125.099007 39.568966 
Q 123.749379 38.181848 121.5 38.444276 
Q 118.650786 38.444276 117.488607 39.793903 
Q 116.326428 41.143531 116.326428 44.067724 
Q 116.326428 45.56731 117.619821 46.279614 
Q 118.913214 46.991917 120.487779 46.991917 
Q 121.799917 46.991917 122.812138 45.736014 
Q 123.824359 44.48011 124.405448 42.30571 
Q 124.986538 40.13131 125.361434 37.938166 
Q 125.736331 35.745021 125.88629 33.045766 
Q 126.036248 30.34651 126.073738 28.978138 
Q 126.111228 27.609766 126.111228 26.185159 
Q 125.88629 26.260138 125.88629 29.896634 
L 125.88629 44.292662 
L 126.673572 48.229076 
" clip-path="url(#p3baced7721)" style="fill: none; stroke: #000000; stroke-linejoin: miter"/>
   </g>
  </g>
  <g id="axes_9"/>
  <g id="axes_10">
   <g id="patch_9">
    <path d="M 149.457476 43.917766 
Q 149.757393 44.180193 150.769614 45.154924 
Q 151.781834 46.129655 152.344179 46.560786 
Q 152.906524 46.991917 153.93749 47.385559 
Q 154.968455 47.7792 155.980676 47.629241 
Q 156.65549 47.629241 157.12411 47.404303 
Q 157.592731 47.179366 157.817669 46.879448 
Q 158.042607 46.579531 158.173821 45.979697 
Q 158.305034 45.379862 158.323779 44.967476 
Q 158.342524 44.55509 158.342524 43.805297 
Q 158.342524 42.718097 157.442772 42.043283 
Q 156.543021 41.368469 155.249628 41.031062 
Q 153.956234 40.693655 152.662841 40.300014 
Q 151.369448 39.906372 150.469697 38.987876 
Q 149.569945 38.069379 149.569945 36.607283 
Q 149.569945 36.082428 149.738648 35.726276 
Q 149.907352 35.370124 150.300993 35.145186 
Q 150.694634 34.920248 150.975807 34.807779 
Q 151.256979 34.69531 151.913048 34.639076 
Q 152.569117 34.582841 152.756566 34.582841 
Q 152.944014 34.582841 153.618828 34.582841 
Q 154.818497 34.582841 155.399586 34.995228 
Q 155.980676 35.407614 156.299338 36.026193 
Q 156.618 36.644772 156.880428 36.832221 
" clip-path="url(#pba6823c7ad)" style="fill: none; stroke: #000000; stroke-linejoin: miter"/>
   </g>
  </g>
  <g id="axes_11">
   <g id="patch_10">
    <path d="M 165.320069 39.868883 
L 165.320069 39.419007 
Q 165.320069 37.769462 167.063338 36.682262 
Q 168.806607 35.595062 170.493641 35.595062 
Q 172.705531 35.595062 174.073903 36.794731 
Q 175.442276 37.9944 175.442276 40.20629 
Q 175.442276 42.30571 173.624028 43.336676 
Q 171.805779 44.367641 169.59389 44.367641 
Q 168.919076 44.367641 168.412966 44.255172 
Q 167.906855 44.142703 167.288276 43.917766 
Q 166.669697 43.692828 166.219821 43.580359 
L 165.095131 42.568138 
M 164.757724 36.832221 
Q 165.2076 38.444276 165.470028 40.262524 
Q 165.732455 42.080772 165.78869 43.749062 
Q 165.844924 45.417352 165.882414 47.27309 
Q 165.919903 49.128828 165.882414 50.778372 
L 165.769945 57.863917 
" clip-path="url(#p9a4987c82c)" style="fill: none; stroke: #000000; stroke-linejoin: miter"/>
   </g>
  </g>
  <g id="axes_12">
   <g id="patch_11">
    <path d="M 189.5616 35.032717 
Q 188.51189 34.582841 187.537159 34.69531 
Q 184.500497 35.032717 182.588524 36.701007 
Q 180.676552 38.369297 180.676552 41.330979 
Q 180.676552 43.917766 182.682248 45.6048 
Q 184.687945 47.291834 187.312221 47.291834 
Q 189.674069 47.291834 190.798759 45.361117 
Q 191.923448 43.4304 191.923448 40.881103 
Q 191.923448 39.643945 191.511062 38.706703 
Q 191.098676 37.769462 190.573821 37.300841 
Q 190.048966 36.832221 189.299172 36.119917 
Q 188.549379 35.407614 188.099503 34.69531 
L 186.862345 34.245434 
" clip-path="url(#p6935b5f7a5)" style="fill: none; stroke: #000000; stroke-linejoin: miter"/>
   </g>
  </g>
  <g id="axes_13">
   <g id="patch_12">
    <path d="M 197.663834 37.95691 
L 198.338648 37.95691 
Q 199.050952 37.95691 199.838234 37.881931 
Q 200.625517 37.806952 201.581503 37.675738 
Q 202.53749 37.544524 203.062345 37.507034 
L 207.336166 35.82 
M 203.287283 30.42149 
L 203.287283 31.43371 
Q 203.287283 33.383172 202.612469 37.207117 
Q 201.937655 41.031062 201.937655 43.018014 
Q 201.937655 43.805297 201.937655 44.105214 
Q 201.937655 44.405131 202.031379 45.042455 
Q 202.125103 45.679779 202.312552 45.960952 
Q 202.5 46.242124 202.893641 46.485807 
Q 203.287283 46.72949 203.849628 46.72949 
Q 203.962097 46.692 204.280759 46.72949 
Q 204.599421 46.766979 204.786869 46.710745 
Q 204.974317 46.65451 204.974317 46.392083 
" clip-path="url(#pa77779cdcd)" style="fill: none; stroke: #000000; stroke-linejoin: miter"/>
   </g>
  </g>
  <g id="axes_14">
   <g id="patch_13">
    <path d="M 214.257476 43.917766 
Q 214.557393 44.180193 215.569614 45.154924 
Q 216.581834 46.129655 217.144179 46.560786 
Q 217.706524 46.991917 218.73749 47.385559 
Q 219.768455 47.7792 220.780676 47.629241 
Q 221.45549 47.629241 221.92411 47.404303 
Q 222.392731 47.179366 222.617669 46.879448 
Q 222.842607 46.579531 222.973821 45.979697 
Q 223.105034 45.379862 223.123779 44.967476 
Q 223.142524 44.55509 223.142524 43.805297 
Q 223.142524 42.718097 222.242772 42.043283 
Q 221.343021 41.368469 220.049628 41.031062 
Q 218.756234 40.693655 217.462841 40.300014 
Q 216.169448 39.906372 215.269697 38.987876 
Q 214.369945 38.069379 214.369945 36.607283 
Q 214.369945 36.082428 214.538648 35.726276 
Q 214.707352 35.370124 215.100993 35.145186 
Q 215.494634 34.920248 215.775807 34.807779 
Q 216.056979 34.69531 216.713048 34.639076 
Q 217.369117 34.582841 217.556566 34.582841 
Q 217.744014 34.582841 218.418828 34.582841 
Q 219.618497 34.582841 220.199586 34.995228 
Q 220.780676 35.407614 221.099338 36.026193 
Q 221.418 36.644772 221.680428 36.832221 
" clip-path="url(#pe730f70883)" style="fill: none; stroke: #000000; stroke-linejoin: miter"/>
   </g>
  </g>
  <g id="axes_15"/>
  <g id="axes_16">
   <g id="patch_14">
    <path d="M 254.3616 35.032717 
Q 253.31189 34.582841 252.337159 34.69531 
Q 249.300497 35.032717 247.388524 36.701007 
Q 245.476552 38.369297 245.476552 41.330979 
Q 245.476552 43.917766 247.482248 45.6048 
Q 249.487945 47.291834 252.112221 47.291834 
Q 254.474069 47.291834 255.598759 45.361117 
Q 256.723448 43.4304 256.723448 40.881103 
Q 256.723448 39.643945 256.311062 38.706703 
Q 255.898676 37.769462 255.373821 37.300841 
Q 254.848966 36.832221 254.099172 36.119917 
Q 253.349379 35.407614 252.899503 34.69531 
L 251.662345 34.245434 
" clip-path="url(#p9e82e9e07a)" style="fill: none; stroke: #000000; stroke-linejoin: miter"/>
   </g>
  </g>
  <g id="axes_17">
   <g id="patch_15">
    <path d="M 262.838731 37.282097 
L 262.838731 37.844441 
Q 263.101159 39.868883 263.138648 41.312234 
Q 263.176138 42.755586 263.082414 44.667559 
Q 262.98869 46.579531 262.98869 48.191586 
L 263.063669 39.643945 
Q 263.063669 38.144359 264.656979 37.507034 
Q 266.25029 36.86971 267.674897 37.282097 
Q 269.586869 37.844441 270.505366 39.04411 
Q 271.423862 40.243779 271.480097 41.668386 
Q 271.536331 43.092993 271.573821 44.817517 
Q 271.61131 46.542041 271.761269 48.191586 
" clip-path="url(#p9765e8254c)" style="fill: none; stroke: #000000; stroke-linejoin: miter"/>
   </g>
  </g>
  <g id="axes_18"/>
  <g id="axes_19">
   <g id="patch_16">
    <path d="M 294.863834 37.95691 
L 295.538648 37.95691 
Q 296.250952 37.95691 297.038234 37.881931 
Q 297.825517 37.806952 298.781503 37.675738 
Q 299.73749 37.544524 300.262345 37.507034 
L 304.536166 35.82 
M 300.487283 30.42149 
L 300.487283 31.43371 
Q 300.487283 33.383172 299.812469 37.207117 
Q 299.137655 41.031062 299.137655 43.018014 
Q 299.137655 43.805297 299.137655 44.105214 
Q 299.137655 44.405131 299.231379 45.042455 
Q 299.325103 45.679779 299.512552 45.960952 
Q 299.7 46.242124 300.093641 46.485807 
Q 300.487283 46.72949 301.049628 46.72949 
Q 301.162097 46.692 301.480759 46.72949 
Q 301.799421 46.766979 301.986869 46.710745 
Q 302.174317 46.65451 302.174317 46.392083 
" clip-path="url(#p5c6084facf)" style="fill: none; stroke: #000000; stroke-linejoin: miter"/>
   </g>
  </g>
  <g id="axes_20">
   <g id="patch_17">
    <path d="M 312.413462 35.932469 
Q 313.013297 35.257655 314.006772 34.826524 
Q 315.000248 34.395393 315.9 34.470372 
Q 316.537324 34.470372 317.02469 34.639076 
Q 317.512055 34.807779 317.830717 34.995228 
Q 318.149379 35.182676 318.374317 35.670041 
Q 318.599255 36.157407 318.711724 36.419834 
Q 318.824193 36.682262 318.880428 37.375821 
Q 318.936662 38.069379 318.955407 38.331807 
Q 318.974152 38.594234 318.955407 39.419007 
Q 318.936662 40.243779 318.936662 40.431228 
Q 318.936662 41.368469 318.767959 43.242952 
Q 318.599255 45.117434 318.599255 46.054676 
Q 318.599255 46.467062 318.65549 46.823214 
Q 318.711724 47.179366 318.805448 47.610497 
Q 318.899172 48.041628 318.936662 48.304055 
L 319.386538 48.528993 
M 312.863338 23.111007 
Q 313.088276 24.798041 313.088276 29.971614 
L 313.088276 42.3432 
L 312.750869 46.841959 
L 312.525931 47.74171 
" clip-path="url(#pa6da7a00a0)" style="fill: none; stroke: #000000; stroke-linejoin: miter"/>
   </g>
  </g>
  <g id="axes_21">
   <g id="patch_18">
    <path d="M 325.857798 38.160826 
Q 328.830275 39.535596 333.549083 39.721376 
Q 335.072477 39.721376 335.759862 38.550963 
Q 336.447248 37.38055 336.447248 35.82 
Q 336.447248 35.299817 336.354358 34.909679 
Q 336.261468 34.519541 336.019954 34.296606 
Q 335.77844 34.07367 335.611239 33.943624 
Q 335.444037 33.813578 334.998165 33.757844 
Q 334.552294 33.70211 334.347936 33.683532 
Q 334.143578 33.664954 333.567661 33.683532 
Q 332.991743 33.70211 332.768807 33.70211 
Q 330.725229 33.70211 329.238991 35.578486 
Q 327.752752 37.454862 327.752752 39.609908 
Q 327.752752 42.619541 329.684862 44.570229 
Q 331.616972 46.520917 334.663761 46.520917 
Q 336.818807 46.818165 338.342202 44.29156 
" clip-path="url(#pa6dd71bf3b)" style="fill: none; stroke: #000000; stroke-linejoin: miter"/>
   </g>
  </g>
  <g id="axes_22">
   <g id="patch_19">
    <path d="M 347.587697 39.981352 
Q 348.599917 40.956083 348.937324 42.905545 
Q 349.124772 43.955255 348.712386 46.167145 
L 347.475228 47.629241 
" clip-path="url(#pcd5e5b8ad5)" style="fill: none; stroke: #000000; stroke-linejoin: miter"/>
   </g>
  </g>
  <g id="axes_23"/>
  <g id="axes_24">
   <g id="patch_20">
    <path d="M 374.316102 36.437797 
L 375.551695 44.778051 
Q 375.654661 45.567458 375.654661 45.60178 
Q 375.654661 45.704746 375.963559 45.704746 
Q 376.82161 45.704746 377.542373 44.778051 
Q 378.263136 43.851356 378.675 42.718729 
Q 379.086864 41.586102 379.601695 40.659407 
Q 380.116525 39.732712 380.597034 39.732712 
Q 381.214831 39.732712 381.849788 40.607924 
Q 382.484746 41.483136 382.948093 42.512797 
Q 383.411441 43.542458 384.08072 44.417669 
Q 384.75 45.292881 385.436441 45.292881 
Q 385.711017 43.782712 386.140042 39.69839 
Q 386.569068 35.614068 387.083898 33.554746 
" clip-path="url(#p73c8ac5580)" style="fill: none; stroke: #000000; stroke-linejoin: miter"/>
   </g>
  </g>
  <g id="axes_25">
   <g id="patch_21">
    <path d="M 393.413462 35.932469 
Q 394.013297 35.257655 395.006772 34.826524 
Q 396.000248 34.395393 396.9 34.470372 
Q 397.537324 34.470372 398.02469 34.639076 
Q 398.512055 34.807779 398.830717 34.995228 
Q 399.149379 35.182676 399.374317 35.670041 
Q 399.599255 36.157407 399.711724 36.419834 
Q 399.824193 36.682262 399.880428 37.375821 
Q 399.936662 38.069379 399.955407 38.331807 
Q 399.974152 38.594234 399.955407 39.419007 
Q 399.936662 40.243779 399.936662 40.431228 
Q 399.936662 41.368469 399.767959 43.242952 
Q 399.599255 45.117434 399.599255 46.054676 
Q 399.599255 46.467062 399.65549 46.823214 
Q 399.711724 47.179366 399.805448 47.610497 
Q 399.899172 48.041628 399.936662 48.304055 
L 400.386538 48.528993 
M 393.863338 23.111007 
Q 394.088276 24.798041 394.088276 29.971614 
L 394.088276 42.3432 
L 393.750869 46.841959 
L 393.525931 47.74171 
" clip-path="url(#p1e4e826676)" style="fill: none; stroke: #000000; stroke-linejoin: miter"/>
   </g>
  </g>
  <g id="axes_26">
   <g id="patch_22">
    <path d="M 418.643923 36.441748 
Q 417.434968 35.094627 413.462687 35.094627 
Q 411.942857 35.094627 411.165672 35.146439 
Q 410.388486 35.198252 409.38678 35.440043 
Q 408.385075 35.681834 407.901493 36.182687 
Q 407.41791 36.683539 407.072495 37.616162 
Q 406.727079 38.548785 406.727079 39.964989 
Q 406.727079 42.037484 408.143284 43.280981 
Q 409.559488 44.524478 411.493817 44.524478 
Q 414.153518 44.524478 416.916844 38.721493 
Q 418.263966 35.854542 418.263966 35.82 
Q 418.609382 35.578209 418.643923 36.441748 
Q 418.643923 37.512537 419.058422 40.362217 
Q 419.472921 43.211898 419.472921 44.524478 
" clip-path="url(#p6b000bee48)" style="fill: none; stroke: #000000; stroke-linejoin: miter"/>
   </g>
  </g>
  <g id="axes_27">
   <g id="patch_23">
    <path d="M 424.463834 37.95691 
L 425.138648 37.95691 
Q 425.850952 37.95691 426.638234 37.881931 
Q 427.425517 37.806952 428.381503 37.675738 
Q 429.33749 37.544524 429.862345 37.507034 
L 434.136166 35.82 
M 430.087283 30.42149 
L 430.087283 31.43371 
Q 430.087283 33.383172 429.412469 37.207117 
Q 428.737655 41.031062 428.737655 43.018014 
Q 428.737655 43.805297 428.737655 44.105214 
Q 428.737655 44.405131 428.831379 45.042455 
Q 428.925103 45.679779 429.112552 45.960952 
Q 429.3 46.242124 429.693641 46.485807 
Q 430.087283 46.72949 430.649628 46.72949 
Q 430.762097 46.692 431.080759 46.72949 
Q 431.399421 46.766979 431.586869 46.710745 
Q 431.774317 46.65451 431.774317 46.392083 
" clip-path="url(#p4ace7efeb2)" style="fill: none; stroke: #000000; stroke-linejoin: miter"/>
   </g>
  </g>
  <g id="axes_28">
   <g id="patch_24">
    <path d="M 445.425021 26.147669 
Q 445.387531 26.597545 445.425021 27.384828 
Q 445.46251 27.572276 445.406276 27.965917 
Q 445.350041 28.359559 445.387531 28.678221 
Q 445.425021 28.996883 445.649959 29.184331 
" clip-path="url(#p04ddc741e6)" style="fill: none; stroke: #000000; stroke-linejoin: miter"/>
   </g>
  </g>
  <g id="axes_29">
   <g id="patch_25">
    <path d="M 457.257476 43.917766 
Q 457.557393 44.180193 458.569614 45.154924 
Q 459.581834 46.129655 460.144179 46.560786 
Q 460.706524 46.991917 461.73749 47.385559 
Q 462.768455 47.7792 463.780676 47.629241 
Q 464.45549 47.629241 464.92411 47.404303 
Q 465.392731 47.179366 465.617669 46.879448 
Q 465.842607 46.579531 465.973821 45.979697 
Q 466.105034 45.379862 466.123779 44.967476 
Q 466.142524 44.55509 466.142524 43.805297 
Q 466.142524 42.718097 465.242772 42.043283 
Q 464.343021 41.368469 463.049628 41.031062 
Q 461.756234 40.693655 460.462841 40.300014 
Q 459.169448 39.906372 458.269697 38.987876 
Q 457.369945 38.069379 457.369945 36.607283 
Q 457.369945 36.082428 457.538648 35.726276 
Q 457.707352 35.370124 458.100993 35.145186 
Q 458.494634 34.920248 458.775807 34.807779 
Q 459.056979 34.69531 459.713048 34.639076 
Q 460.369117 34.582841 460.556566 34.582841 
Q 460.744014 34.582841 461.418828 34.582841 
Q 462.618497 34.582841 463.199586 34.995228 
Q 463.780676 35.407614 464.099338 36.026193 
Q 464.418 36.644772 464.680428 36.832221 
" clip-path="url(#p6778698468)" style="fill: none; stroke: #000000; stroke-linejoin: miter"/>
   </g>
  </g>
  <g id="axes_30"/>
  <g id="axes_31">
   <g id="patch_26">
    <path d="M 489.263834 37.95691 
L 489.938648 37.95691 
Q 490.650952 37.95691 491.438234 37.881931 
Q 492.225517 37.806952 493.181503 37.675738 
Q 494.13749 37.544524 494.662345 37.507034 
L 498.936166 35.82 
M 494.887283 30.42149 
L 494.887283 31.43371 
Q 494.887283 33.383172 494.212469 37.207117 
Q 493.537655 41.031062 493.537655 43.018014 
Q 493.537655 43.805297 493.537655 44.105214 
Q 493.537655 44.405131 493.631379 45.042455 
Q 493.725103 45.679779 493.912552 45.960952 
Q 494.1 46.242124 494.493641 46.485807 
Q 494.887283 46.72949 495.449628 46.72949 
Q 495.562097 46.692 495.880759 46.72949 
Q 496.199421 46.766979 496.386869 46.710745 
Q 496.574317 46.65451 496.574317 46.392083 
" clip-path="url(#pac6ecc21e0)" style="fill: none; stroke: #000000; stroke-linejoin: miter"/>
   </g>
  </g>
  <g id="axes_32">
   <g id="patch_27">
    <path d="M 506.813462 35.932469 
Q 507.413297 35.257655 508.406772 34.826524 
Q 509.400248 34.395393 510.3 34.470372 
Q 510.937324 34.470372 511.42469 34.639076 
Q 511.912055 34.807779 512.230717 34.995228 
Q 512.549379 35.182676 512.774317 35.670041 
Q 512.999255 36.157407 513.111724 36.419834 
Q 513.224193 36.682262 513.280428 37.375821 
Q 513.336662 38.069379 513.355407 38.331807 
Q 513.374152 38.594234 513.355407 39.419007 
Q 513.336662 40.243779 513.336662 40.431228 
Q 513.336662 41.368469 513.167959 43.242952 
Q 512.999255 45.117434 512.999255 46.054676 
Q 512.999255 46.467062 513.05549 46.823214 
Q 513.111724 47.179366 513.205448 47.610497 
Q 513.299172 48.041628 513.336662 48.304055 
L 513.786538 48.528993 
M 507.263338 23.111007 
Q 507.488276 24.798041 507.488276 29.971614 
L 507.488276 42.3432 
L 507.150869 46.841959 
L 506.925931 47.74171 
" clip-path="url(#pbf03a1bea9)" style="fill: none; stroke: #000000; stroke-linejoin: miter"/>
   </g>
  </g>
  <g id="axes_33">
   <g id="patch_28">
    <path d="M 527.118579 29.071862 
Q 526.743683 29.146841 526.612469 29.577972 
Q 526.481255 30.009103 526.556234 30.42149 
Q 526.556234 30.571448 526.593724 30.702662 
Q 526.631214 30.833876 526.687448 30.89011 
Q 526.743683 30.946345 526.799917 31.040069 
Q 526.856152 31.133793 526.893641 31.208772 
L 527.00611 29.859145 
M 527.00611 34.020497 
Q 526.106359 39.006621 525.881421 42.793076 
L 526.331297 45.379862 
L 526.668703 46.054676 
" clip-path="url(#p88f84f93b6)" style="fill: none; stroke: #000000; stroke-linejoin: miter"/>
   </g>
  </g>
  <g id="axes_34">
   <g id="patch_29">
    <path d="M 538.257476 43.917766 
Q 538.557393 44.180193 539.569614 45.154924 
Q 540.581834 46.129655 541.144179 46.560786 
Q 541.706524 46.991917 542.73749 47.385559 
Q 543.768455 47.7792 544.780676 47.629241 
Q 545.45549 47.629241 545.92411 47.404303 
Q 546.392731 47.179366 546.617669 46.879448 
Q 546.842607 46.579531 546.973821 45.979697 
Q 547.105034 45.379862 547.123779 44.967476 
Q 547.142524 44.55509 547.142524 43.805297 
Q 547.142524 42.718097 546.242772 42.043283 
Q 545.343021 41.368469 544.049628 41.031062 
Q 542.756234 40.693655 541.462841 40.300014 
Q 540.169448 39.906372 539.269697 38.987876 
Q 538.369945 38.069379 538.369945 36.607283 
Q 538.369945 36.082428 538.538648 35.726276 
Q 538.707352 35.370124 539.100993 35.145186 
Q 539.494634 34.920248 539.775807 34.807779 
Q 540.056979 34.69531 540.713048 34.639076 
Q 541.369117 34.582841 541.556566 34.582841 
Q 541.744014 34.582841 542.418828 34.582841 
Q 543.618497 34.582841 544.199586 34.995228 
Q 544.780676 35.407614 545.099338 36.026193 
Q 545.418 36.644772 545.680428 36.832221 
" clip-path="url(#pf7343f87d7)" style="fill: none; stroke: #000000; stroke-linejoin: miter"/>
   </g>
  </g>
  <g id="axes_35">
   <g id="patch_30">
    <path d="M 558.187697 39.981352 
Q 559.199917 40.956083 559.537324 42.905545 
Q 559.724772 43.955255 559.312386 46.167145 
L 558.075228 47.629241 
" clip-path="url(#p79cab2e875)" style="fill: none; stroke: #000000; stroke-linejoin: miter"/>
   </g>
  </g>
  <g id="axes_36"/>
  <g id="axes_37">
   <g id="patch_31">
    <path d="M 586.463834 37.95691 
L 587.138648 37.95691 
Q 587.850952 37.95691 588.638234 37.881931 
Q 589.425517 37.806952 590.381503 37.675738 
Q 591.33749 37.544524 591.862345 37.507034 
L 596.136166 35.82 
M 592.087283 30.42149 
L 592.087283 31.43371 
Q 592.087283 33.383172 591.412469 37.207117 
Q 590.737655 41.031062 590.737655 43.018014 
Q 590.737655 43.805297 590.737655 44.105214 
Q 590.737655 44.405131 590.831379 45.042455 
Q 590.925103 45.679779 591.112552 45.960952 
Q 591.3 46.242124 591.693641 46.485807 
Q 592.087283 46.72949 592.649628 46.72949 
Q 592.762097 46.692 593.080759 46.72949 
Q 593.399421 46.766979 593.586869 46.710745 
Q 593.774317 46.65451 593.774317 46.392083 
" clip-path="url(#p1bf4e8e648)" style="fill: none; stroke: #000000; stroke-linejoin: miter"/>
   </g>
  </g>
  <g id="axes_38">
   <g id="patch_32">
    <path d="M 604.013462 35.932469 
Q 604.613297 35.257655 605.606772 34.826524 
Q 606.600248 34.395393 607.5 34.470372 
Q 608.137324 34.470372 608.62469 34.639076 
Q 609.112055 34.807779 609.430717 34.995228 
Q 609.749379 35.182676 609.974317 35.670041 
Q 610.199255 36.157407 610.311724 36.419834 
Q 610.424193 36.682262 610.480428 37.375821 
Q 610.536662 38.069379 610.555407 38.331807 
Q 610.574152 38.594234 610.555407 39.419007 
Q 610.536662 40.243779 610.536662 40.431228 
Q 610.536662 41.368469 610.367959 43.242952 
Q 610.199255 45.117434 610.199255 46.054676 
Q 610.199255 46.467062 610.25549 46.823214 
Q 610.311724 47.179366 610.405448 47.610497 
Q 610.499172 48.041628 610.536662 48.304055 
L 610.986538 48.528993 
M 604.463338 23.111007 
Q 604.688276 24.798041 604.688276 29.971614 
L 604.688276 42.3432 
L 604.350869 46.841959 
L 604.125931 47.74171 
" clip-path="url(#p703fc25796)" style="fill: none; stroke: #000000; stroke-linejoin: miter"/>
   </g>
  </g>
  <g id="axes_39">
   <g id="patch_33">
    <path d="M 617.457798 38.160826 
Q 620.430275 39.535596 625.149083 39.721376 
Q 626.672477 39.721376 627.359862 38.550963 
Q 628.047248 37.38055 628.047248 35.82 
Q 628.047248 35.299817 627.954358 34.909679 
Q 627.861468 34.519541 627.619954 34.296606 
Q 627.37844 34.07367 627.211239 33.943624 
Q 627.044037 33.813578 626.598165 33.757844 
Q 626.152294 33.70211 625.947936 33.683532 
Q 625.743578 33.664954 625.167661 33.683532 
Q 624.591743 33.70211 624.368807 33.70211 
Q 622.325229 33.70211 620.838991 35.578486 
Q 619.352752 37.454862 619.352752 39.609908 
Q 619.352752 42.619541 621.284862 44.570229 
Q 623.216972 46.520917 626.263761 46.520917 
Q 628.418807 46.818165 629.942202 44.29156 
" clip-path="url(#pb5915caae6)" style="fill: none; stroke: #000000; stroke-linejoin: miter"/>
   </g>
  </g>
  <g id="axes_40">
   <g id="patch_34">
    <path d="M 639.787531 45.979697 
Q 639.750041 46.017186 639.618828 46.054676 
Q 639.487614 46.092166 639.525103 46.167145 
Q 639.525103 46.579531 639.9 46.579531 
Q 640.237407 46.579531 640.237407 46.092166 
Q 640.312386 45.867228 640.031214 45.754759 
Q 639.750041 45.64229 639.562593 45.754759 
" clip-path="url(#pc35f25b605)" style="fill: none; stroke: #000000; stroke-linejoin: miter"/>
   </g>
  </g>
  <g id="axes_41">
   <g id="patch_35">
    <path d="M 655.987531 45.979697 
Q 655.950041 46.017186 655.818828 46.054676 
Q 655.687614 46.092166 655.725103 46.167145 
Q 655.725103 46.579531 656.1 46.579531 
Q 656.437407 46.579531 656.437407 46.092166 
Q 656.512386 45.867228 656.231214 45.754759 
Q 655.950041 45.64229 655.762593 45.754759 
" clip-path="url(#p89899a3dac)" style="fill: none; stroke: #000000; stroke-linejoin: miter"/>
   </g>
  </g>
  <g id="axes_42">
   <g id="patch_36">
    <path d="M 672.187531 45.979697 
Q 672.150041 46.017186 672.018828 46.054676 
Q 671.887614 46.092166 671.925103 46.167145 
Q 671.925103 46.579531 672.3 46.579531 
Q 672.637407 46.579531 672.637407 46.092166 
Q 672.712386 45.867228 672.431214 45.754759 
Q 672.150041 45.64229 671.962593 45.754759 
" clip-path="url(#p207ded313b)" style="fill: none; stroke: #000000; stroke-linejoin: miter"/>
   </g>
  </g>
  <g id="axes_43"/>
  <g id="axes_44">
   <g id="patch_37">
    <path d="M 698.114019 27.825981 
Q 699.900561 29.461121 701.535701 31.80785 
Q 703.170841 34.154579 704.245794 36.213645 
Q 705.320748 38.27271 706.789346 40.831402 
Q 708.257944 43.390093 709.56 45.085794 
Q 710.619813 34.729907 710.740935 33.36729 
L 711.285981 27.825981 
M 699.204112 29.097757 
L 699.204112 30.732897 
Q 699.204112 32.913084 699.128411 35.380935 
Q 699.05271 37.848785 698.931589 40.831402 
Q 698.810467 43.814019 698.749907 45.449159 
" clip-path="url(#p2f5fad4fd0)" style="fill: none; stroke: #000000; stroke-linejoin: miter"/>
   </g>
  </g>
  <g id="axes_45">
   <g id="patch_38">
    <path d="M 726.443923 36.441748 
Q 725.234968 35.094627 721.262687 35.094627 
Q 719.742857 35.094627 718.965672 35.146439 
Q 718.188486 35.198252 717.18678 35.440043 
Q 716.185075 35.681834 715.701493 36.182687 
Q 715.21791 36.683539 714.872495 37.616162 
Q 714.527079 38.548785 714.527079 39.964989 
Q 714.527079 42.037484 715.943284 43.280981 
Q 717.359488 44.524478 719.293817 44.524478 
Q 721.953518 44.524478 724.716844 38.721493 
Q 726.063966 35.854542 726.063966 35.82 
Q 726.409382 35.578209 726.443923 36.441748 
Q 726.443923 37.512537 726.858422 40.362217 
Q 727.272921 43.211898 727.272921 44.524478 
" clip-path="url(#p61fea2caed)" style="fill: none; stroke: #000000; stroke-linejoin: miter"/>
   </g>
  </g>
  <g id="axes_46">
   <g id="patch_39">
    <path d="M 732.638731 37.282097 
L 732.638731 37.844441 
Q 732.901159 39.868883 732.938648 41.312234 
Q 732.976138 42.755586 732.882414 44.667559 
Q 732.78869 46.579531 732.78869 48.191586 
L 732.863669 39.643945 
Q 732.863669 38.144359 734.456979 37.507034 
Q 736.05029 36.86971 737.474897 37.282097 
Q 739.386869 37.844441 740.305366 39.04411 
Q 741.223862 40.243779 741.280097 41.668386 
Q 741.336331 43.092993 741.373821 44.817517 
Q 741.41131 46.542041 741.561269 48.191586 
" clip-path="url(#p1f7e5d67ee)" style="fill: none; stroke: #000000; stroke-linejoin: miter"/>
   </g>
  </g>
  <g id="axes_47">
   <g id="patch_40">
    <path d="M 748.463834 37.95691 
L 749.138648 37.95691 
Q 749.850952 37.95691 750.638234 37.881931 
Q 751.425517 37.806952 752.381503 37.675738 
Q 753.33749 37.544524 753.862345 37.507034 
L 758.136166 35.82 
M 754.087283 30.42149 
L 754.087283 31.43371 
Q 754.087283 33.383172 753.412469 37.207117 
Q 752.737655 41.031062 752.737655 43.018014 
Q 752.737655 43.805297 752.737655 44.105214 
Q 752.737655 44.405131 752.831379 45.042455 
Q 752.925103 45.679779 753.112552 45.960952 
Q 753.3 46.242124 753.693641 46.485807 
Q 754.087283 46.72949 754.649628 46.72949 
Q 754.762097 46.692 755.080759 46.72949 
Q 755.399421 46.766979 755.586869 46.710745 
Q 755.774317 46.65451 755.774317 46.392083 
" clip-path="url(#pfc53a42f11)" style="fill: none; stroke: #000000; stroke-linejoin: miter"/>
   </g>
  </g>
  <g id="axes_48">
   <g id="patch_41">
    <path d="M 767.194386 35.595062 
L 771.805614 35.707531 
" clip-path="url(#p0ef72bd6fc)" style="fill: none; stroke: #000000; stroke-linejoin: miter"/>
   </g>
  </g>
 </g>
 <defs>
  <clipPath id="p7bcbe93477">
   <rect x="0" y="10.777356" width="16.2" height="50.085288"/>
  </clipPath>
  <clipPath id="p0f25bc6582">
   <rect x="17.964248" y="8.64" width="12.671503" height="54.36"/>
  </clipPath>
  <clipPath id="pefd6d909e8">
   <rect x="33.451945" y="8.64" width="14.09611" height="54.36"/>
  </clipPath>
  <clipPath id="p7546e8b895">
   <rect x="64.8" y="9.426742" width="16.2" height="52.786517"/>
  </clipPath>
  <clipPath id="p0a893fbdfe">
   <rect x="81.602069" y="8.64" width="14.995862" height="54.36"/>
  </clipPath>
  <clipPath id="pe3e7a70928">
   <rect x="97.802069" y="8.64" width="14.995862" height="54.36"/>
  </clipPath>
  <clipPath id="p3baced7721">
   <rect x="114.451945" y="8.64" width="14.09611" height="54.36"/>
  </clipPath>
  <clipPath id="pba6823c7ad">
   <rect x="147.582993" y="8.64" width="12.634014" height="54.36"/>
  </clipPath>
  <clipPath id="p9a4987c82c">
   <rect x="162.883241" y="8.64" width="14.433517" height="54.36"/>
  </clipPath>
  <clipPath id="p6935b5f7a5">
   <rect x="178.802069" y="8.64" width="14.995862" height="54.36"/>
  </clipPath>
  <clipPath id="pa77779cdcd">
   <rect x="195.789352" y="8.64" width="13.421297" height="54.36"/>
  </clipPath>
  <clipPath id="pe730f70883">
   <rect x="212.382993" y="8.64" width="12.634014" height="54.36"/>
  </clipPath>
  <clipPath id="p9e82e9e07a">
   <rect x="243.602069" y="8.64" width="14.995862" height="54.36"/>
  </clipPath>
  <clipPath id="p9765e8254c">
   <rect x="260.964248" y="8.64" width="12.671503" height="54.36"/>
  </clipPath>
  <clipPath id="p5c6084facf">
   <rect x="292.989352" y="8.64" width="13.421297" height="54.36"/>
  </clipPath>
  <clipPath id="pa6da7a00a0">
   <rect x="310.538979" y="8.64" width="10.722041" height="54.36"/>
  </clipPath>
  <clipPath id="pa6dd71bf3b">
   <rect x="324" y="8.881927" width="16.2" height="53.876147"/>
  </clipPath>
  <clipPath id="pcd5e5b8ad5">
   <rect x="345.600745" y="8.64" width="5.39851" height="54.36"/>
  </clipPath>
  <clipPath id="p73c8ac5580">
   <rect x="372.6" y="10.936525" width="16.2" height="49.766949"/>
  </clipPath>
  <clipPath id="p1e4e826676">
   <rect x="391.538979" y="8.64" width="10.722041" height="54.36"/>
  </clipPath>
  <clipPath id="p6b000bee48">
   <rect x="405" y="10.777356" width="16.2" height="50.085288"/>
  </clipPath>
  <clipPath id="p4ace7efeb2">
   <rect x="422.589352" y="8.64" width="13.421297" height="54.36"/>
  </clipPath>
  <clipPath id="p04ddc741e6">
   <rect x="443.475559" y="8.64" width="4.048883" height="54.36"/>
  </clipPath>
  <clipPath id="p6778698468">
   <rect x="455.382993" y="8.64" width="12.634014" height="54.36"/>
  </clipPath>
  <clipPath id="pac6ecc21e0">
   <rect x="487.389352" y="8.64" width="13.421297" height="54.36"/>
  </clipPath>
  <clipPath id="pbf03a1bea9">
   <rect x="504.938979" y="8.64" width="10.722041" height="54.36"/>
  </clipPath>
  <clipPath id="p88f84f93b6">
   <rect x="524.006938" y="8.64" width="4.986124" height="54.36"/>
  </clipPath>
  <clipPath id="pf7343f87d7">
   <rect x="536.382993" y="8.64" width="12.634014" height="54.36"/>
  </clipPath>
  <clipPath id="p79cab2e875">
   <rect x="556.200745" y="8.64" width="5.39851" height="54.36"/>
  </clipPath>
  <clipPath id="p1bf4e8e648">
   <rect x="584.589352" y="8.64" width="13.421297" height="54.36"/>
  </clipPath>
  <clipPath id="p703fc25796">
   <rect x="602.138979" y="8.64" width="10.722041" height="54.36"/>
  </clipPath>
  <clipPath id="pb5915caae6">
   <rect x="615.6" y="8.881927" width="16.2" height="53.876147"/>
  </clipPath>
  <clipPath id="pc35f25b605">
   <rect x="637.613131" y="8.64" width="4.573738" height="54.36"/>
  </clipPath>
  <clipPath id="p89899a3dac">
   <rect x="653.813131" y="8.64" width="4.573738" height="54.36"/>
  </clipPath>
  <clipPath id="p207ded313b">
   <rect x="670.013131" y="8.64" width="4.573738" height="54.36"/>
  </clipPath>
  <clipPath id="p2f5fad4fd0">
   <rect x="696.6" y="13.866729" width="16.2" height="43.906542"/>
  </clipPath>
  <clipPath id="p61fea2caed">
   <rect x="712.8" y="10.777356" width="16.2" height="50.085288"/>
  </clipPath>
  <clipPath id="p1f7e5d67ee">
   <rect x="730.764248" y="8.64" width="12.671503" height="54.36"/>
  </clipPath>
  <clipPath id="pfc53a42f11">
   <rect x="746.589352" y="8.64" width="13.421297" height="54.36"/>
  </clipPath>
  <clipPath id="p0ef72bd6fc">
   <rect x="765.319903" y="8.64" width="8.360193" height="54.36"/>
  </clipPath>
 </defs>
</svg>
