<?xml version="1.0" encoding="utf-8" standalone="no"?>
<!DOCTYPE svg PUBLIC "-//W3C//DTD SVG 1.1//EN"
  "http://www.w3.org/Graphics/SVG/1.1/DTD/svg11.dtd">
<svg xmlns:xlink="http://www.w3.org/1999/xlink" width="810pt" height="72pt" viewBox="0 0 810 72" xmlns="http://www.w3.org/2000/svg" version="1.1">
 <metadata>
  <rdf:RDF xmlns:dc="http://purl.org/dc/elements/1.1/" xmlns:cc="http://creativecommons.org/ns#" xmlns:rdf="http://www.w3.org/1999/02/22-rdf-syntax-ns#">
   <cc:Work>
    <dc:type rdf:resource="http://purl.org/dc/dcmitype/StillImage"/>
    <dc:date>2023-12-21T11:52:12.757286</dc:date>
    <dc:format>image/svg+xml</dc:format>
    <dc:creator>
     <cc:Agent>
      <dc:title>Matplotlib v3.5.1, https://matplotlib.org/</dc:title>
     </cc:Agent>
    </dc:creator>
   </cc:Work>
  </rdf:RDF>
 </metadata>
 <defs>
  <style type="text/css">*{stroke-linejoin: round; stroke-linecap: butt}</style>
 </defs>
 <g id="figure_1">
  <g id="patch_1">
   <path d="M 0 72 
L 810 72 
L 810 0 
L 0 0 
z
" style="fill: #8fff9f"/>
  </g>
  <g id="axes_1">
   <g id="patch_2">
    <path d="M 4.781498 38.139383 
Q 4.781498 38.139383 6.815419 38.139383 
Q 7.636123 37.889604 9.955507 38.085859 
Q 12.27489 38.282115 13.238326 38.139383 
M 1.784141 46.489163 
L 1.891189 46.168018 
Q 1.891189 45.275947 3.818062 40.797753 
Q 5.744934 36.319559 7.707489 32.251718 
Q 9.670044 28.183877 9.812775 28.183877 
Q 10.669163 28.183877 11.364978 29.646872 
Q 12.060793 31.109868 12.52467 33.393568 
Q 12.988546 35.677269 13.327533 37.943128 
Q 13.66652 40.208987 13.951982 42.332115 
Q 14.237445 44.455242 14.415859 45.097533 
" clip-path="url(#p00c12b8f99)" style="fill: none; stroke: #000000; stroke-linejoin: miter"/>
   </g>
  </g>
  <g id="axes_2">
   <g id="patch_3">
    <path d="M 19.838731 37.282097 
L 19.838731 37.844441 
Q 20.101159 39.868883 20.138648 41.312234 
Q 20.176138 42.755586 20.082414 44.667559 
Q 19.98869 46.579531 19.98869 48.191586 
L 20.063669 39.643945 
Q 20.063669 38.144359 21.656979 37.507034 
Q 23.25029 36.86971 24.674897 37.282097 
Q 26.586869 37.844441 27.505366 39.04411 
Q 28.423862 40.243779 28.480097 41.668386 
Q 28.536331 43.092993 28.573821 44.817517 
Q 28.61131 46.542041 28.761269 48.191586 
" clip-path="url(#p7563f4ec1e)" style="fill: none; stroke: #000000; stroke-linejoin: miter"/>
   </g>
  </g>
  <g id="axes_3">
   <g id="patch_4">
    <path d="M 44.099007 39.568966 
Q 42.749379 38.181848 40.5 38.444276 
Q 37.650786 38.444276 36.488607 39.793903 
Q 35.326428 41.143531 35.326428 44.067724 
Q 35.326428 45.56731 36.619821 46.279614 
Q 37.913214 46.991917 39.487779 46.991917 
Q 40.799917 46.991917 41.812138 45.736014 
Q 42.824359 44.48011 43.405448 42.30571 
Q 43.986538 40.13131 44.361434 37.938166 
Q 44.736331 35.745021 44.88629 33.045766 
Q 45.036248 30.34651 45.073738 28.978138 
Q 45.111228 27.609766 45.111228 26.185159 
Q 44.88629 26.260138 44.88629 29.896634 
L 44.88629 44.292662 
L 45.673572 48.229076 
" clip-path="url(#p1753d15750)" style="fill: none; stroke: #000000; stroke-linejoin: miter"/>
   </g>
  </g>
  <g id="axes_4">
   <g id="patch_5">
    <path d="M 55.987697 39.981352 
Q 56.999917 40.956083 57.337324 42.905545 
Q 57.524772 43.955255 57.112386 46.167145 
L 55.875228 47.629241 
" clip-path="url(#pf7ee14218a)" style="fill: none; stroke: #000000; stroke-linejoin: miter"/>
   </g>
  </g>
  <g id="axes_5"/>
  <g id="axes_6">
   <g id="patch_6">
    <path d="M 85.557228 37.244607 
Q 86.606938 37.207117 86.794386 37.132138 
Q 90.205945 37.132138 91.986703 39.212814 
Q 93.767462 41.29349 93.767462 44.780028 
Q 93.767462 47.704221 89.156234 47.704221 
Q 88.51891 47.704221 87.97531 47.591752 
Q 87.43171 47.479283 86.794386 47.254345 
Q 86.157062 47.029407 85.669697 46.916938 
L 84.432538 45.679779 
M 85.444759 25.435366 
L 85.444759 26.560055 
Q 85.444759 29.409269 85.557228 33.008276 
Q 85.669697 36.607283 85.857145 40.899848 
Q 86.044593 45.192414 86.119572 47.141876 
" clip-path="url(#p0001750548)" style="fill: none; stroke: #000000; stroke-linejoin: miter"/>
   </g>
  </g>
  <g id="axes_7">
   <g id="patch_7">
    <path d="M 99.057798 38.160826 
Q 102.030275 39.535596 106.749083 39.721376 
Q 108.272477 39.721376 108.959862 38.550963 
Q 109.647248 37.38055 109.647248 35.82 
Q 109.647248 35.299817 109.554358 34.909679 
Q 109.461468 34.519541 109.219954 34.296606 
Q 108.97844 34.07367 108.811239 33.943624 
Q 108.644037 33.813578 108.198165 33.757844 
Q 107.752294 33.70211 107.547936 33.683532 
Q 107.343578 33.664954 106.767661 33.683532 
Q 106.191743 33.70211 105.968807 33.70211 
Q 103.925229 33.70211 102.438991 35.578486 
Q 100.952752 37.454862 100.952752 39.609908 
Q 100.952752 42.619541 102.884862 44.570229 
Q 104.816972 46.520917 107.863761 46.520917 
Q 110.018807 46.818165 111.542202 44.29156 
" clip-path="url(#pd1651d2235)" style="fill: none; stroke: #000000; stroke-linejoin: miter"/>
   </g>
  </g>
  <g id="axes_8">
   <g id="patch_8">
    <path d="M 117.057476 43.917766 
Q 117.357393 44.180193 118.369614 45.154924 
Q 119.381834 46.129655 119.944179 46.560786 
Q 120.506524 46.991917 121.53749 47.385559 
Q 122.568455 47.7792 123.580676 47.629241 
Q 124.25549 47.629241 124.72411 47.404303 
Q 125.192731 47.179366 125.417669 46.879448 
Q 125.642607 46.579531 125.773821 45.979697 
Q 125.905034 45.379862 125.923779 44.967476 
Q 125.942524 44.55509 125.942524 43.805297 
Q 125.942524 42.718097 125.042772 42.043283 
Q 124.143021 41.368469 122.849628 41.031062 
Q 121.556234 40.693655 120.262841 40.300014 
Q 118.969448 39.906372 118.069697 38.987876 
Q 117.169945 38.069379 117.169945 36.607283 
Q 117.169945 36.082428 117.338648 35.726276 
Q 117.507352 35.370124 117.900993 35.145186 
Q 118.294634 34.920248 118.575807 34.807779 
Q 118.856979 34.69531 119.513048 34.639076 
Q 120.169117 34.582841 120.356566 34.582841 
Q 120.544014 34.582841 121.218828 34.582841 
Q 122.418497 34.582841 122.999586 34.995228 
Q 123.580676 35.407614 123.899338 36.026193 
Q 124.218 36.644772 124.480428 36.832221 
" clip-path="url(#p2f0a53da2a)" style="fill: none; stroke: #000000; stroke-linejoin: miter"/>
   </g>
  </g>
  <g id="axes_9">
   <g id="patch_9">
    <path d="M 138.318579 29.071862 
Q 137.943683 29.146841 137.812469 29.577972 
Q 137.681255 30.009103 137.756234 30.42149 
Q 137.756234 30.571448 137.793724 30.702662 
Q 137.831214 30.833876 137.887448 30.89011 
Q 137.943683 30.946345 137.999917 31.040069 
Q 138.056152 31.133793 138.093641 31.208772 
L 138.20611 29.859145 
M 138.20611 34.020497 
Q 137.306359 39.006621 137.081421 42.793076 
L 137.531297 45.379862 
L 137.868703 46.054676 
" clip-path="url(#p6ad0a2910e)" style="fill: none; stroke: #000000; stroke-linejoin: miter"/>
   </g>
  </g>
  <g id="axes_10">
   <g id="patch_10">
    <path d="M 157.499007 39.568966 
Q 156.149379 38.181848 153.9 38.444276 
Q 151.050786 38.444276 149.888607 39.793903 
Q 148.726428 41.143531 148.726428 44.067724 
Q 148.726428 45.56731 150.019821 46.279614 
Q 151.313214 46.991917 152.887779 46.991917 
Q 154.199917 46.991917 155.212138 45.736014 
Q 156.224359 44.48011 156.805448 42.30571 
Q 157.386538 40.13131 157.761434 37.938166 
Q 158.136331 35.745021 158.28629 33.045766 
Q 158.436248 30.34651 158.473738 28.978138 
Q 158.511228 27.609766 158.511228 26.185159 
Q 158.28629 26.260138 158.28629 29.896634 
L 158.28629 44.292662 
L 159.073572 48.229076 
" clip-path="url(#p62614e79d6)" style="fill: none; stroke: #000000; stroke-linejoin: miter"/>
   </g>
  </g>
  <g id="axes_11">
   <g id="patch_11">
    <path d="M 163.857798 38.160826 
Q 166.830275 39.535596 171.549083 39.721376 
Q 173.072477 39.721376 173.759862 38.550963 
Q 174.447248 37.38055 174.447248 35.82 
Q 174.447248 35.299817 174.354358 34.909679 
Q 174.261468 34.519541 174.019954 34.296606 
Q 173.77844 34.07367 173.611239 33.943624 
Q 173.444037 33.813578 172.998165 33.757844 
Q 172.552294 33.70211 172.347936 33.683532 
Q 172.143578 33.664954 171.567661 33.683532 
Q 170.991743 33.70211 170.768807 33.70211 
Q 168.725229 33.70211 167.238991 35.578486 
Q 165.752752 37.454862 165.752752 39.609908 
Q 165.752752 42.619541 167.684862 44.570229 
Q 169.616972 46.520917 172.663761 46.520917 
Q 174.818807 46.818165 176.342202 44.29156 
" clip-path="url(#p2ab73ad152)" style="fill: none; stroke: #000000; stroke-linejoin: miter"/>
   </g>
  </g>
  <g id="axes_12">
   <g id="patch_12">
    <path d="M 181.857476 43.917766 
Q 182.157393 44.180193 183.169614 45.154924 
Q 184.181834 46.129655 184.744179 46.560786 
Q 185.306524 46.991917 186.33749 47.385559 
Q 187.368455 47.7792 188.380676 47.629241 
Q 189.05549 47.629241 189.52411 47.404303 
Q 189.992731 47.179366 190.217669 46.879448 
Q 190.442607 46.579531 190.573821 45.979697 
Q 190.705034 45.379862 190.723779 44.967476 
Q 190.742524 44.55509 190.742524 43.805297 
Q 190.742524 42.718097 189.842772 42.043283 
Q 188.943021 41.368469 187.649628 41.031062 
Q 186.356234 40.693655 185.062841 40.300014 
Q 183.769448 39.906372 182.869697 38.987876 
Q 181.969945 38.069379 181.969945 36.607283 
Q 181.969945 36.082428 182.138648 35.726276 
Q 182.307352 35.370124 182.700993 35.145186 
Q 183.094634 34.920248 183.375807 34.807779 
Q 183.656979 34.69531 184.313048 34.639076 
Q 184.969117 34.582841 185.156566 34.582841 
Q 185.344014 34.582841 186.018828 34.582841 
Q 187.218497 34.582841 187.799586 34.995228 
Q 188.380676 35.407614 188.699338 36.026193 
Q 189.018 36.644772 189.280428 36.832221 
" clip-path="url(#p9735600f9e)" style="fill: none; stroke: #000000; stroke-linejoin: miter"/>
   </g>
  </g>
  <g id="axes_13">
   <g id="patch_13">
    <path d="M 201.787697 39.981352 
Q 202.799917 40.956083 203.137324 42.905545 
Q 203.324772 43.955255 202.912386 46.167145 
L 201.675228 47.629241 
" clip-path="url(#p490c9f20b8)" style="fill: none; stroke: #000000; stroke-linejoin: miter"/>
   </g>
  </g>
  <g id="axes_14"/>
  <g id="axes_15">
   <g id="patch_14">
    <path d="M 228.516102 36.437797 
L 229.751695 44.778051 
Q 229.854661 45.567458 229.854661 45.60178 
Q 229.854661 45.704746 230.163559 45.704746 
Q 231.02161 45.704746 231.742373 44.778051 
Q 232.463136 43.851356 232.875 42.718729 
Q 233.286864 41.586102 233.801695 40.659407 
Q 234.316525 39.732712 234.797034 39.732712 
Q 235.414831 39.732712 236.049788 40.607924 
Q 236.684746 41.483136 237.148093 42.512797 
Q 237.611441 43.542458 238.28072 44.417669 
Q 238.95 45.292881 239.636441 45.292881 
Q 239.911017 43.782712 240.340042 39.69839 
Q 240.769068 35.614068 241.283898 33.554746 
" clip-path="url(#p95af198e9b)" style="fill: none; stroke: #000000; stroke-linejoin: miter"/>
   </g>
  </g>
  <g id="axes_16">
   <g id="patch_15">
    <path d="M 247.613462 35.932469 
Q 248.213297 35.257655 249.206772 34.826524 
Q 250.200248 34.395393 251.1 34.470372 
Q 251.737324 34.470372 252.22469 34.639076 
Q 252.712055 34.807779 253.030717 34.995228 
Q 253.349379 35.182676 253.574317 35.670041 
Q 253.799255 36.157407 253.911724 36.419834 
Q 254.024193 36.682262 254.080428 37.375821 
Q 254.136662 38.069379 254.155407 38.331807 
Q 254.174152 38.594234 254.155407 39.419007 
Q 254.136662 40.243779 254.136662 40.431228 
Q 254.136662 41.368469 253.967959 43.242952 
Q 253.799255 45.117434 253.799255 46.054676 
Q 253.799255 46.467062 253.85549 46.823214 
Q 253.911724 47.179366 254.005448 47.610497 
Q 254.099172 48.041628 254.136662 48.304055 
L 254.586538 48.528993 
M 248.063338 23.111007 
Q 248.288276 24.798041 248.288276 29.971614 
L 248.288276 42.3432 
L 247.950869 46.841959 
L 247.725931 47.74171 
" clip-path="url(#p7502bf9c36)" style="fill: none; stroke: #000000; stroke-linejoin: miter"/>
   </g>
  </g>
  <g id="axes_17">
   <g id="patch_16">
    <path d="M 262.163917 36.382345 
Q 262.126428 36.494814 262.257641 36.701007 
Q 262.388855 36.9072 262.276386 37.057159 
L 262.276386 39.306538 
Q 262.276386 40.506207 262.613793 41.724621 
Q 262.9512 42.943034 263.813462 43.93651 
Q 264.675724 44.929986 265.875393 44.929986 
Q 267.112552 44.929986 267.787366 43.861531 
Q 268.462179 42.793076 268.912055 41.143531 
Q 269.361931 39.493986 269.699338 38.969131 
L 270.486621 36.382345 
L 270.261683 42.680607 
L 270.261683 45.154924 
Q 270.261683 47.066897 270.992731 51.00331 
Q 271.723779 54.939724 271.723779 56.964166 
Q 272.473572 59.213545 271.386372 60.188276 
Q 270.299172 61.163007 268.237241 60.78811 
Q 266.437738 60.488193 265.519241 60.169531 
Q 264.600745 59.850869 262.613793 58.988607 
L 262.501324 58.426262 
" clip-path="url(#p8e0e4ea56f)" style="fill: none; stroke: #000000; stroke-linejoin: miter"/>
   </g>
  </g>
  <g id="axes_18"/>
  <g id="axes_19">
   <g id="patch_17">
    <path d="M 296.157228 37.244607 
Q 297.206938 37.207117 297.394386 37.132138 
Q 300.805945 37.132138 302.586703 39.212814 
Q 304.367462 41.29349 304.367462 44.780028 
Q 304.367462 47.704221 299.756234 47.704221 
Q 299.11891 47.704221 298.57531 47.591752 
Q 298.03171 47.479283 297.394386 47.254345 
Q 296.757062 47.029407 296.269697 46.916938 
L 295.032538 45.679779 
M 296.044759 25.435366 
L 296.044759 26.560055 
Q 296.044759 29.409269 296.157228 33.008276 
Q 296.269697 36.607283 296.457145 40.899848 
Q 296.644593 45.192414 296.719572 47.141876 
" clip-path="url(#pe61dfba82d)" style="fill: none; stroke: #000000; stroke-linejoin: miter"/>
   </g>
  </g>
  <g id="axes_20">
   <g id="patch_18">
    <path d="M 319.1616 35.032717 
Q 318.11189 34.582841 317.137159 34.69531 
Q 314.100497 35.032717 312.188524 36.701007 
Q 310.276552 38.369297 310.276552 41.330979 
Q 310.276552 43.917766 312.282248 45.6048 
Q 314.287945 47.291834 316.912221 47.291834 
Q 319.274069 47.291834 320.398759 45.361117 
Q 321.523448 43.4304 321.523448 40.881103 
Q 321.523448 39.643945 321.111062 38.706703 
Q 320.698676 37.769462 320.173821 37.300841 
Q 319.648966 36.832221 318.899172 36.119917 
Q 318.149379 35.407614 317.699503 34.69531 
L 316.462345 34.245434 
" clip-path="url(#p68071b6caf)" style="fill: none; stroke: #000000; stroke-linejoin: miter"/>
   </g>
  </g>
  <g id="axes_21">
   <g id="patch_19">
    <path d="M 327.263834 37.95691 
L 327.938648 37.95691 
Q 328.650952 37.95691 329.438234 37.881931 
Q 330.225517 37.806952 331.181503 37.675738 
Q 332.13749 37.544524 332.662345 37.507034 
L 336.936166 35.82 
M 332.887283 30.42149 
L 332.887283 31.43371 
Q 332.887283 33.383172 332.212469 37.207117 
Q 331.537655 41.031062 331.537655 43.018014 
Q 331.537655 43.805297 331.537655 44.105214 
Q 331.537655 44.405131 331.631379 45.042455 
Q 331.725103 45.679779 331.912552 45.960952 
Q 332.1 46.242124 332.493641 46.485807 
Q 332.887283 46.72949 333.449628 46.72949 
Q 333.562097 46.692 333.880759 46.72949 
Q 334.199421 46.766979 334.386869 46.710745 
Q 334.574317 46.65451 334.574317 46.392083 
" clip-path="url(#pab2066974e)" style="fill: none; stroke: #000000; stroke-linejoin: miter"/>
   </g>
  </g>
  <g id="axes_22">
   <g id="patch_20">
    <path d="M 344.813462 35.932469 
Q 345.413297 35.257655 346.406772 34.826524 
Q 347.400248 34.395393 348.3 34.470372 
Q 348.937324 34.470372 349.42469 34.639076 
Q 349.912055 34.807779 350.230717 34.995228 
Q 350.549379 35.182676 350.774317 35.670041 
Q 350.999255 36.157407 351.111724 36.419834 
Q 351.224193 36.682262 351.280428 37.375821 
Q 351.336662 38.069379 351.355407 38.331807 
Q 351.374152 38.594234 351.355407 39.419007 
Q 351.336662 40.243779 351.336662 40.431228 
Q 351.336662 41.368469 351.167959 43.242952 
Q 350.999255 45.117434 350.999255 46.054676 
Q 350.999255 46.467062 351.05549 46.823214 
Q 351.111724 47.179366 351.205448 47.610497 
Q 351.299172 48.041628 351.336662 48.304055 
L 351.786538 48.528993 
M 345.263338 23.111007 
Q 345.488276 24.798041 345.488276 29.971614 
L 345.488276 42.3432 
L 345.150869 46.841959 
L 344.925931 47.74171 
" clip-path="url(#p3183157bf9)" style="fill: none; stroke: #000000; stroke-linejoin: miter"/>
   </g>
  </g>
  <g id="axes_23">
   <g id="patch_21">
    <path d="M 358.257798 38.160826 
Q 361.230275 39.535596 365.949083 39.721376 
Q 367.472477 39.721376 368.159862 38.550963 
Q 368.847248 37.38055 368.847248 35.82 
Q 368.847248 35.299817 368.754358 34.909679 
Q 368.661468 34.519541 368.419954 34.296606 
Q 368.17844 34.07367 368.011239 33.943624 
Q 367.844037 33.813578 367.398165 33.757844 
Q 366.952294 33.70211 366.747936 33.683532 
Q 366.543578 33.664954 365.967661 33.683532 
Q 365.391743 33.70211 365.168807 33.70211 
Q 363.125229 33.70211 361.638991 35.578486 
Q 360.152752 37.454862 360.152752 39.609908 
Q 360.152752 42.619541 362.084862 44.570229 
Q 364.016972 46.520917 367.063761 46.520917 
Q 369.218807 46.818165 370.742202 44.29156 
" clip-path="url(#p8727675c2a)" style="fill: none; stroke: #000000; stroke-linejoin: miter"/>
   </g>
  </g>
  <g id="axes_24">
   <g id="patch_22">
    <path d="M 377.213462 32.783338 
Q 377.738317 34.507862 377.869531 36.457324 
Q 378.000745 38.406786 377.925766 40.956083 
Q 377.850786 43.505379 377.888276 44.705048 
L 378.000745 46.054676 
L 378.000745 45.829738 
Q 378.000745 44.667559 377.719572 42.30571 
Q 377.4384 39.943862 377.4384 38.744193 
Q 377.4384 36.419834 378.450621 34.882759 
Q 379.462841 33.345683 381.487283 33.345683 
Q 382.199586 33.345683 382.536993 33.626855 
Q 382.8744 33.908028 383.136828 34.432883 
Q 383.399255 34.957738 383.736662 35.257655 
L 384.186538 36.832221 
" clip-path="url(#p1ecc6e17e5)" style="fill: none; stroke: #000000; stroke-linejoin: miter"/>
   </g>
  </g>
  <g id="axes_25"/>
  <g id="axes_26">
   <g id="patch_23">
    <path d="M 418.356735 34.365306 
Q 418.356735 34.365306 417.860816 34.365306 
Q 417.067347 34.365306 415.579592 34.067755 
Q 414.091837 33.770204 413.298367 33.770204 
Q 410.521224 33.770204 408.587143 35.224898 
Q 406.653061 36.679592 406.653061 39.423673 
Q 406.653061 40.94449 408.140816 42.399184 
Q 409.628571 43.853878 411.562653 44.663878 
Q 413.496735 45.473878 414.98449 45.473878 
Q 415.910204 45.473878 416.60449 45.110204 
Q 417.298776 44.746531 418.042653 44.118367 
Q 418.786531 43.490204 419.348571 43.192653 
L 419.546939 42.696735 
" clip-path="url(#p32e161e986)" style="fill: none; stroke: #000000; stroke-linejoin: miter"/>
   </g>
  </g>
  <g id="axes_27">
   <g id="patch_24">
    <path d="M 434.843923 36.441748 
Q 433.634968 35.094627 429.662687 35.094627 
Q 428.142857 35.094627 427.365672 35.146439 
Q 426.588486 35.198252 425.58678 35.440043 
Q 424.585075 35.681834 424.101493 36.182687 
Q 423.61791 36.683539 423.272495 37.616162 
Q 422.927079 38.548785 422.927079 39.964989 
Q 422.927079 42.037484 424.343284 43.280981 
Q 425.759488 44.524478 427.693817 44.524478 
Q 430.353518 44.524478 433.116844 38.721493 
Q 434.463966 35.854542 434.463966 35.82 
Q 434.809382 35.578209 434.843923 36.441748 
Q 434.843923 37.512537 435.258422 40.362217 
Q 435.672921 43.211898 435.672921 44.524478 
" clip-path="url(#p778c60fbae)" style="fill: none; stroke: #000000; stroke-linejoin: miter"/>
   </g>
  </g>
  <g id="axes_28">
   <g id="patch_25">
    <path d="M 440.663834 37.95691 
L 441.338648 37.95691 
Q 442.050952 37.95691 442.838234 37.881931 
Q 443.625517 37.806952 444.581503 37.675738 
Q 445.53749 37.544524 446.062345 37.507034 
L 450.336166 35.82 
M 446.287283 30.42149 
L 446.287283 31.43371 
Q 446.287283 33.383172 445.612469 37.207117 
Q 444.937655 41.031062 444.937655 43.018014 
Q 444.937655 43.805297 444.937655 44.105214 
Q 444.937655 44.405131 445.031379 45.042455 
Q 445.125103 45.679779 445.312552 45.960952 
Q 445.5 46.242124 445.893641 46.485807 
Q 446.287283 46.72949 446.849628 46.72949 
Q 446.962097 46.692 447.280759 46.72949 
Q 447.599421 46.766979 447.786869 46.710745 
Q 447.974317 46.65451 447.974317 46.392083 
" clip-path="url(#p84e5498471)" style="fill: none; stroke: #000000; stroke-linejoin: miter"/>
   </g>
  </g>
  <g id="axes_29">
   <g id="patch_26">
    <path d="M 466.956735 34.365306 
Q 466.956735 34.365306 466.460816 34.365306 
Q 465.667347 34.365306 464.179592 34.067755 
Q 462.691837 33.770204 461.898367 33.770204 
Q 459.121224 33.770204 457.187143 35.224898 
Q 455.253061 36.679592 455.253061 39.423673 
Q 455.253061 40.94449 456.740816 42.399184 
Q 458.228571 43.853878 460.162653 44.663878 
Q 462.096735 45.473878 463.58449 45.473878 
Q 464.510204 45.473878 465.20449 45.110204 
Q 465.898776 44.746531 466.642653 44.118367 
Q 467.386531 43.490204 467.948571 43.192653 
L 468.146939 42.696735 
" clip-path="url(#pb43ffe882d)" style="fill: none; stroke: #000000; stroke-linejoin: miter"/>
   </g>
  </g>
  <g id="axes_30">
   <g id="patch_27">
    <path d="M 474.413462 35.932469 
Q 475.013297 35.257655 476.006772 34.826524 
Q 477.000248 34.395393 477.9 34.470372 
Q 478.537324 34.470372 479.02469 34.639076 
Q 479.512055 34.807779 479.830717 34.995228 
Q 480.149379 35.182676 480.374317 35.670041 
Q 480.599255 36.157407 480.711724 36.419834 
Q 480.824193 36.682262 480.880428 37.375821 
Q 480.936662 38.069379 480.955407 38.331807 
Q 480.974152 38.594234 480.955407 39.419007 
Q 480.936662 40.243779 480.936662 40.431228 
Q 480.936662 41.368469 480.767959 43.242952 
Q 480.599255 45.117434 480.599255 46.054676 
Q 480.599255 46.467062 480.65549 46.823214 
Q 480.711724 47.179366 480.805448 47.610497 
Q 480.899172 48.041628 480.936662 48.304055 
L 481.386538 48.528993 
M 474.863338 23.111007 
Q 475.088276 24.798041 475.088276 29.971614 
L 475.088276 42.3432 
L 474.750869 46.841959 
L 474.525931 47.74171 
" clip-path="url(#pc4306099a0)" style="fill: none; stroke: #000000; stroke-linejoin: miter"/>
   </g>
  </g>
  <g id="axes_31">
   <g id="patch_28">
    <path d="M 494.718579 29.071862 
Q 494.343683 29.146841 494.212469 29.577972 
Q 494.081255 30.009103 494.156234 30.42149 
Q 494.156234 30.571448 494.193724 30.702662 
Q 494.231214 30.833876 494.287448 30.89011 
Q 494.343683 30.946345 494.399917 31.040069 
Q 494.456152 31.133793 494.493641 31.208772 
L 494.60611 29.859145 
M 494.60611 34.020497 
Q 493.706359 39.006621 493.481421 42.793076 
L 493.931297 45.379862 
L 494.268703 46.054676 
" clip-path="url(#pfcca40662d)" style="fill: none; stroke: #000000; stroke-linejoin: miter"/>
   </g>
  </g>
  <g id="axes_32">
   <g id="patch_29">
    <path d="M 505.838731 37.282097 
L 505.838731 37.844441 
Q 506.101159 39.868883 506.138648 41.312234 
Q 506.176138 42.755586 506.082414 44.667559 
Q 505.98869 46.579531 505.98869 48.191586 
L 506.063669 39.643945 
Q 506.063669 38.144359 507.656979 37.507034 
Q 509.25029 36.86971 510.674897 37.282097 
Q 512.586869 37.844441 513.505366 39.04411 
Q 514.423862 40.243779 514.480097 41.668386 
Q 514.536331 43.092993 514.573821 44.817517 
Q 514.61131 46.542041 514.761269 48.191586 
" clip-path="url(#pb1142f14a6)" style="fill: none; stroke: #000000; stroke-linejoin: miter"/>
   </g>
  </g>
  <g id="axes_33">
   <g id="patch_30">
    <path d="M 531.287191 39.096404 
Q 531.03236 39.023596 530.06764 38.623146 
Q 529.102921 38.222697 528.44764 38.077079 
Q 527.79236 37.931461 527.137079 38.00427 
Q 524.515955 38.00427 522.877753 40.388764 
Q 521.239551 42.773258 521.239551 45.430787 
Q 521.239551 47.068989 526.481798 47.068989 
Q 528.047191 47.068989 529.375955 45.558202 
Q 530.704719 44.047416 531.378202 42.172584 
Q 532.051685 40.297753 532.051685 38.768764 
Q 532.051685 37.27618 532.015281 36.984944 
L 531.942472 38.077079 
Q 531.942472 38.550337 531.942472 38.987191 
Q 531.978876 40.188539 532.179101 42.281798 
Q 532.379326 44.375056 532.543146 46.049663 
Q 532.706966 47.72427 532.743371 49.872135 
Q 532.779775 52.02 532.615955 53.658202 
Q 532.452135 55.296404 531.887865 56.971011 
Q 531.323596 58.645618 530.395281 59.737753 
Q 529.466966 60.829888 527.865169 61.521573 
Q 526.263371 62.213258 524.115506 62.213258 
Q 522.477303 62.213258 521.385169 61.466966 
Q 520.293034 60.720674 520.293034 59.155281 
Q 520.220225 58.936854 520.256629 58.936854 
Q 520.293034 58.936854 520.402247 58.936854 
Q 520.511461 58.936854 520.511461 58.82764 
" clip-path="url(#p88ec9f38bf)" style="fill: none; stroke: #000000; stroke-linejoin: miter"/>
   </g>
  </g>
  <g id="axes_34"/>
  <g id="axes_35">
   <g id="patch_31">
    <path d="M 564.443923 36.441748 
Q 563.234968 35.094627 559.262687 35.094627 
Q 557.742857 35.094627 556.965672 35.146439 
Q 556.188486 35.198252 555.18678 35.440043 
Q 554.185075 35.681834 553.701493 36.182687 
Q 553.21791 36.683539 552.872495 37.616162 
Q 552.527079 38.548785 552.527079 39.964989 
Q 552.527079 42.037484 553.943284 43.280981 
Q 555.359488 44.524478 557.293817 44.524478 
Q 559.953518 44.524478 562.716844 38.721493 
Q 564.063966 35.854542 564.063966 35.82 
Q 564.409382 35.578209 564.443923 36.441748 
Q 564.443923 37.512537 564.858422 40.362217 
Q 565.272921 43.211898 565.272921 44.524478 
" clip-path="url(#p106e23da9f)" style="fill: none; stroke: #000000; stroke-linejoin: miter"/>
   </g>
  </g>
  <g id="axes_36"/>
  <g id="axes_37">
   <g id="patch_32">
    <path d="M 585.008036 34.879821 
Q 585.514286 36.073125 585.803571 42.871339 
Q 585.948214 46.632054 586.2375 46.632054 
Q 586.273661 46.632054 586.309821 46.595893 
Q 586.816071 46.017321 586.870313 44.588973 
Q 586.924554 43.160625 586.707589 41.750357 
Q 586.490625 40.340089 586.2375 38.712857 
Q 585.984375 37.085625 585.984375 36.398571 
Q 585.984375 35.169107 586.364063 33.939643 
Q 586.74375 32.710179 587.720089 32.710179 
Q 588.949554 32.710179 589.672768 34.355491 
Q 590.395982 36.000804 590.558705 37.971563 
Q 590.721429 39.942321 590.829911 41.587634 
Q 590.938393 43.232946 591.083036 43.232946 
Q 591.227679 43.232946 591.31808 41.497232 
Q 591.408482 39.761518 591.535045 37.700357 
Q 591.661607 35.639196 592.384821 33.903482 
Q 593.108036 32.167768 594.3375 32.167768 
Q 595.892411 33.035625 596.561384 34.771339 
Q 597.230357 36.507054 597.194196 38.188527 
Q 597.158036 39.87 597.176116 42.057723 
Q 597.194196 44.245446 597.591964 45.511071 
" clip-path="url(#p279c7cc764)" style="fill: none; stroke: #000000; stroke-linejoin: miter"/>
   </g>
  </g>
  <g id="axes_38">
   <g id="patch_33">
    <path d="M 601.257798 38.160826 
Q 604.230275 39.535596 608.949083 39.721376 
Q 610.472477 39.721376 611.159862 38.550963 
Q 611.847248 37.38055 611.847248 35.82 
Q 611.847248 35.299817 611.754358 34.909679 
Q 611.661468 34.519541 611.419954 34.296606 
Q 611.17844 34.07367 611.011239 33.943624 
Q 610.844037 33.813578 610.398165 33.757844 
Q 609.952294 33.70211 609.747936 33.683532 
Q 609.543578 33.664954 608.967661 33.683532 
Q 608.391743 33.70211 608.168807 33.70211 
Q 606.125229 33.70211 604.638991 35.578486 
Q 603.152752 37.454862 603.152752 39.609908 
Q 603.152752 42.619541 605.084862 44.570229 
Q 607.016972 46.520917 610.063761 46.520917 
Q 612.218807 46.818165 613.742202 44.29156 
" clip-path="url(#p2cf616b1ce)" style="fill: none; stroke: #000000; stroke-linejoin: miter"/>
   </g>
  </g>
  <g id="axes_39">
   <g id="patch_34">
    <path d="M 629.243923 36.441748 
Q 628.034968 35.094627 624.062687 35.094627 
Q 622.542857 35.094627 621.765672 35.146439 
Q 620.988486 35.198252 619.98678 35.440043 
Q 618.985075 35.681834 618.501493 36.182687 
Q 618.01791 36.683539 617.672495 37.616162 
Q 617.327079 38.548785 617.327079 39.964989 
Q 617.327079 42.037484 618.743284 43.280981 
Q 620.159488 44.524478 622.093817 44.524478 
Q 624.753518 44.524478 627.516844 38.721493 
Q 628.863966 35.854542 628.863966 35.82 
Q 629.209382 35.578209 629.243923 36.441748 
Q 629.243923 37.512537 629.658422 40.362217 
Q 630.072921 43.211898 630.072921 44.524478 
" clip-path="url(#p38dd6f4664)" style="fill: none; stroke: #000000; stroke-linejoin: miter"/>
   </g>
  </g>
  <g id="axes_40">
   <g id="patch_35">
    <path d="M 639.506359 28.621986 
Q 639.731297 30.34651 639.806276 32.146014 
Q 639.881255 33.945517 639.86251 36.551048 
Q 639.843766 39.156579 639.843766 40.093821 
Q 639.843766 40.13131 640.068703 45.829738 
L 640.293641 46.841959 
" clip-path="url(#p7b49dbce0e)" style="fill: none; stroke: #000000; stroke-linejoin: miter"/>
   </g>
  </g>
  <g id="axes_41"/>
  <g id="axes_42">
   <g id="patch_36">
    <path d="M 665.916102 36.437797 
L 667.151695 44.778051 
Q 667.254661 45.567458 667.254661 45.60178 
Q 667.254661 45.704746 667.563559 45.704746 
Q 668.42161 45.704746 669.142373 44.778051 
Q 669.863136 43.851356 670.275 42.718729 
Q 670.686864 41.586102 671.201695 40.659407 
Q 671.716525 39.732712 672.197034 39.732712 
Q 672.814831 39.732712 673.449788 40.607924 
Q 674.084746 41.483136 674.548093 42.512797 
Q 675.011441 43.542458 675.68072 44.417669 
Q 676.35 45.292881 677.036441 45.292881 
Q 677.311017 43.782712 677.740042 39.69839 
Q 678.169068 35.614068 678.683898 33.554746 
" clip-path="url(#p8d9585ed65)" style="fill: none; stroke: #000000; stroke-linejoin: miter"/>
   </g>
  </g>
  <g id="axes_43">
   <g id="patch_37">
    <path d="M 685.013462 35.932469 
Q 685.613297 35.257655 686.606772 34.826524 
Q 687.600248 34.395393 688.5 34.470372 
Q 689.137324 34.470372 689.62469 34.639076 
Q 690.112055 34.807779 690.430717 34.995228 
Q 690.749379 35.182676 690.974317 35.670041 
Q 691.199255 36.157407 691.311724 36.419834 
Q 691.424193 36.682262 691.480428 37.375821 
Q 691.536662 38.069379 691.555407 38.331807 
Q 691.574152 38.594234 691.555407 39.419007 
Q 691.536662 40.243779 691.536662 40.431228 
Q 691.536662 41.368469 691.367959 43.242952 
Q 691.199255 45.117434 691.199255 46.054676 
Q 691.199255 46.467062 691.25549 46.823214 
Q 691.311724 47.179366 691.405448 47.610497 
Q 691.499172 48.041628 691.536662 48.304055 
L 691.986538 48.528993 
M 685.463338 23.111007 
Q 685.688276 24.798041 685.688276 29.971614 
L 685.688276 42.3432 
L 685.350869 46.841959 
L 685.125931 47.74171 
" clip-path="url(#p80af5fc976)" style="fill: none; stroke: #000000; stroke-linejoin: miter"/>
   </g>
  </g>
  <g id="axes_44">
   <g id="patch_38">
    <path d="M 698.457798 38.160826 
Q 701.430275 39.535596 706.149083 39.721376 
Q 707.672477 39.721376 708.359862 38.550963 
Q 709.047248 37.38055 709.047248 35.82 
Q 709.047248 35.299817 708.954358 34.909679 
Q 708.861468 34.519541 708.619954 34.296606 
Q 708.37844 34.07367 708.211239 33.943624 
Q 708.044037 33.813578 707.598165 33.757844 
Q 707.152294 33.70211 706.947936 33.683532 
Q 706.743578 33.664954 706.167661 33.683532 
Q 705.591743 33.70211 705.368807 33.70211 
Q 703.325229 33.70211 701.838991 35.578486 
Q 700.352752 37.454862 700.352752 39.609908 
Q 700.352752 42.619541 702.284862 44.570229 
Q 704.216972 46.520917 707.263761 46.520917 
Q 709.418807 46.818165 710.942202 44.29156 
" clip-path="url(#p34e305b0df)" style="fill: none; stroke: #000000; stroke-linejoin: miter"/>
   </g>
  </g>
  <g id="axes_45">
   <g id="patch_39">
    <path d="M 716.438731 37.282097 
L 716.438731 37.844441 
Q 716.701159 39.868883 716.738648 41.312234 
Q 716.776138 42.755586 716.682414 44.667559 
Q 716.58869 46.579531 716.58869 48.191586 
L 716.663669 39.643945 
Q 716.663669 38.144359 718.256979 37.507034 
Q 719.85029 36.86971 721.274897 37.282097 
Q 723.186869 37.844441 724.105366 39.04411 
Q 725.023862 40.243779 725.080097 41.668386 
Q 725.136331 43.092993 725.173821 44.817517 
Q 725.21131 46.542041 725.361269 48.191586 
" clip-path="url(#p7c564182f0)" style="fill: none; stroke: #000000; stroke-linejoin: miter"/>
   </g>
  </g>
 </g>
 <defs>
  <clipPath id="p00c12b8f99">
   <rect x="0" y="9.949956" width="16.2" height="51.740088"/>
  </clipPath>
  <clipPath id="p7563f4ec1e">
   <rect x="17.964248" y="8.64" width="12.671503" height="54.36"/>
  </clipPath>
  <clipPath id="p1753d15750">
   <rect x="33.451945" y="8.64" width="14.09611" height="54.36"/>
  </clipPath>
  <clipPath id="pf7ee14218a">
   <rect x="54.000745" y="8.64" width="5.39851" height="54.36"/>
  </clipPath>
  <clipPath id="p0001750548">
   <rect x="82.558055" y="8.64" width="13.08389" height="54.36"/>
  </clipPath>
  <clipPath id="pd1651d2235">
   <rect x="97.2" y="8.881927" width="16.2" height="53.876147"/>
  </clipPath>
  <clipPath id="p2f0a53da2a">
   <rect x="115.182993" y="8.64" width="12.634014" height="54.36"/>
  </clipPath>
  <clipPath id="p6ad0a2910e">
   <rect x="135.206938" y="8.64" width="4.986124" height="54.36"/>
  </clipPath>
  <clipPath id="p62614e79d6">
   <rect x="146.851945" y="8.64" width="14.09611" height="54.36"/>
  </clipPath>
  <clipPath id="p2ab73ad152">
   <rect x="162" y="8.881927" width="16.2" height="53.876147"/>
  </clipPath>
  <clipPath id="p9735600f9e">
   <rect x="179.982993" y="8.64" width="12.634014" height="54.36"/>
  </clipPath>
  <clipPath id="p490c9f20b8">
   <rect x="199.800745" y="8.64" width="5.39851" height="54.36"/>
  </clipPath>
  <clipPath id="p95af198e9b">
   <rect x="226.8" y="10.936525" width="16.2" height="49.766949"/>
  </clipPath>
  <clipPath id="p7502bf9c36">
   <rect x="245.738979" y="8.64" width="10.722041" height="54.36"/>
  </clipPath>
  <clipPath id="p8e0e4ea56f">
   <rect x="260.251945" y="8.64" width="14.09611" height="54.36"/>
  </clipPath>
  <clipPath id="pe61dfba82d">
   <rect x="293.158055" y="8.64" width="13.08389" height="54.36"/>
  </clipPath>
  <clipPath id="p68071b6caf">
   <rect x="308.402069" y="8.64" width="14.995862" height="54.36"/>
  </clipPath>
  <clipPath id="pab2066974e">
   <rect x="325.389352" y="8.64" width="13.421297" height="54.36"/>
  </clipPath>
  <clipPath id="p3183157bf9">
   <rect x="342.938979" y="8.64" width="10.722041" height="54.36"/>
  </clipPath>
  <clipPath id="p8727675c2a">
   <rect x="356.4" y="8.881927" width="16.2" height="53.876147"/>
  </clipPath>
  <clipPath id="p1ecc6e17e5">
   <rect x="375.338979" y="8.64" width="10.722041" height="54.36"/>
  </clipPath>
  <clipPath id="p32e161e986">
   <rect x="405" y="11.850612" width="16.2" height="47.938776"/>
  </clipPath>
  <clipPath id="p778c60fbae">
   <rect x="421.2" y="10.777356" width="16.2" height="50.085288"/>
  </clipPath>
  <clipPath id="p84e5498471">
   <rect x="438.789352" y="8.64" width="13.421297" height="54.36"/>
  </clipPath>
  <clipPath id="pb43ffe882d">
   <rect x="453.6" y="11.850612" width="16.2" height="47.938776"/>
  </clipPath>
  <clipPath id="pc4306099a0">
   <rect x="472.538979" y="8.64" width="10.722041" height="54.36"/>
  </clipPath>
  <clipPath id="pfcca40662d">
   <rect x="491.606938" y="8.64" width="4.986124" height="54.36"/>
  </clipPath>
  <clipPath id="pb1142f14a6">
   <rect x="503.964248" y="8.64" width="12.671503" height="54.36"/>
  </clipPath>
  <clipPath id="p88ec9f38bf">
   <rect x="518.4" y="9.426742" width="16.2" height="52.786517"/>
  </clipPath>
  <clipPath id="p106e23da9f">
   <rect x="550.8" y="10.777356" width="16.2" height="50.085288"/>
  </clipPath>
  <clipPath id="p279c7cc764">
   <rect x="583.2" y="9.603482" width="16.2" height="52.433036"/>
  </clipPath>
  <clipPath id="p2cf616b1ce">
   <rect x="599.4" y="8.881927" width="16.2" height="53.876147"/>
  </clipPath>
  <clipPath id="p38dd6f4664">
   <rect x="615.6" y="10.777356" width="16.2" height="50.085288"/>
  </clipPath>
  <clipPath id="p7b49dbce0e">
   <rect x="637.631876" y="8.64" width="4.536248" height="54.36"/>
  </clipPath>
  <clipPath id="p8d9585ed65">
   <rect x="664.2" y="10.936525" width="16.2" height="49.766949"/>
  </clipPath>
  <clipPath id="p80af5fc976">
   <rect x="683.138979" y="8.64" width="10.722041" height="54.36"/>
  </clipPath>
  <clipPath id="p34e305b0df">
   <rect x="696.6" y="8.881927" width="16.2" height="53.876147"/>
  </clipPath>
  <clipPath id="p7c564182f0">
   <rect x="714.564248" y="8.64" width="12.671503" height="54.36"/>
  </clipPath>
 </defs>
</svg>
