<?xml version="1.0" encoding="utf-8" standalone="no"?>
<!DOCTYPE svg PUBLIC "-//W3C//DTD SVG 1.1//EN"
  "http://www.w3.org/Graphics/SVG/1.1/DTD/svg11.dtd">
<svg xmlns:xlink="http://www.w3.org/1999/xlink" width="918pt" height="72pt" viewBox="0 0 918 72" xmlns="http://www.w3.org/2000/svg" version="1.1">
 <metadata>
  <rdf:RDF xmlns:dc="http://purl.org/dc/elements/1.1/" xmlns:cc="http://creativecommons.org/ns#" xmlns:rdf="http://www.w3.org/1999/02/22-rdf-syntax-ns#">
   <cc:Work>
    <dc:type rdf:resource="http://purl.org/dc/dcmitype/StillImage"/>
    <dc:date>2023-12-21T11:52:16.644143</dc:date>
    <dc:format>image/svg+xml</dc:format>
    <dc:creator>
     <cc:Agent>
      <dc:title>Matplotlib v3.5.1, https://matplotlib.org/</dc:title>
     </cc:Agent>
    </dc:creator>
   </cc:Work>
  </rdf:RDF>
 </metadata>
 <defs>
  <style type="text/css">*{stroke-linejoin: round; stroke-linecap: butt}</style>
 </defs>
 <g id="figure_1">
  <g id="patch_1">
   <path d="M 0 72 
L 918 72 
L 918 0 
L 0 0 
z
" style="fill: #8fff9f"/>
  </g>
  <g id="axes_1">
   <g id="patch_2">
    <path d="M 3.263834 37.95691 
L 3.938648 37.95691 
Q 4.650952 37.95691 5.438234 37.881931 
Q 6.225517 37.806952 7.181503 37.675738 
Q 8.13749 37.544524 8.662345 37.507034 
L 12.936166 35.82 
M 8.887283 30.42149 
L 8.887283 31.43371 
Q 8.887283 33.383172 8.212469 37.207117 
Q 7.537655 41.031062 7.537655 43.018014 
Q 7.537655 43.805297 7.537655 44.105214 
Q 7.537655 44.405131 7.631379 45.042455 
Q 7.725103 45.679779 7.912552 45.960952 
Q 8.1 46.242124 8.493641 46.485807 
Q 8.887283 46.72949 9.449628 46.72949 
Q 9.562097 46.692 9.880759 46.72949 
Q 10.199421 46.766979 10.386869 46.710745 
Q 10.574317 46.65451 10.574317 46.392083 
" clip-path="url(#p32bf1f6808)" style="fill: none; stroke: #000000; stroke-linejoin: miter"/>
   </g>
  </g>
  <g id="axes_2">
   <g id="patch_3">
    <path d="M 20.813462 35.932469 
Q 21.413297 35.257655 22.406772 34.826524 
Q 23.400248 34.395393 24.3 34.470372 
Q 24.937324 34.470372 25.42469 34.639076 
Q 25.912055 34.807779 26.230717 34.995228 
Q 26.549379 35.182676 26.774317 35.670041 
Q 26.999255 36.157407 27.111724 36.419834 
Q 27.224193 36.682262 27.280428 37.375821 
Q 27.336662 38.069379 27.355407 38.331807 
Q 27.374152 38.594234 27.355407 39.419007 
Q 27.336662 40.243779 27.336662 40.431228 
Q 27.336662 41.368469 27.167959 43.242952 
Q 26.999255 45.117434 26.999255 46.054676 
Q 26.999255 46.467062 27.05549 46.823214 
Q 27.111724 47.179366 27.205448 47.610497 
Q 27.299172 48.041628 27.336662 48.304055 
L 27.786538 48.528993 
M 21.263338 23.111007 
Q 21.488276 24.798041 21.488276 29.971614 
L 21.488276 42.3432 
L 21.150869 46.841959 
L 20.925931 47.74171 
" clip-path="url(#pc0752c6e7b)" style="fill: none; stroke: #000000; stroke-linejoin: miter"/>
   </g>
  </g>
  <g id="axes_3">
   <g id="patch_4">
    <path d="M 34.257798 38.160826 
Q 37.230275 39.535596 41.949083 39.721376 
Q 43.472477 39.721376 44.159862 38.550963 
Q 44.847248 37.38055 44.847248 35.82 
Q 44.847248 35.299817 44.754358 34.909679 
Q 44.661468 34.519541 44.419954 34.296606 
Q 44.17844 34.07367 44.011239 33.943624 
Q 43.844037 33.813578 43.398165 33.757844 
Q 42.952294 33.70211 42.747936 33.683532 
Q 42.543578 33.664954 41.967661 33.683532 
Q 41.391743 33.70211 41.168807 33.70211 
Q 39.125229 33.70211 37.638991 35.578486 
Q 36.152752 37.454862 36.152752 39.609908 
Q 36.152752 42.619541 38.084862 44.570229 
Q 40.016972 46.520917 43.063761 46.520917 
Q 45.218807 46.818165 46.742202 44.29156 
" clip-path="url(#pa766bb1fb0)" style="fill: none; stroke: #000000; stroke-linejoin: miter"/>
   </g>
  </g>
  <g id="axes_4">
   <g id="patch_5">
    <path d="M 53.213462 32.783338 
Q 53.738317 34.507862 53.869531 36.457324 
Q 54.000745 38.406786 53.925766 40.956083 
Q 53.850786 43.505379 53.888276 44.705048 
L 54.000745 46.054676 
L 54.000745 45.829738 
Q 54.000745 44.667559 53.719572 42.30571 
Q 53.4384 39.943862 53.4384 38.744193 
Q 53.4384 36.419834 54.450621 34.882759 
Q 55.462841 33.345683 57.487283 33.345683 
Q 58.199586 33.345683 58.536993 33.626855 
Q 58.8744 33.908028 59.136828 34.432883 
Q 59.399255 34.957738 59.736662 35.257655 
L 60.186538 36.832221 
" clip-path="url(#pd84738bf06)" style="fill: none; stroke: #000000; stroke-linejoin: miter"/>
   </g>
  </g>
  <g id="axes_5">
   <g id="patch_6">
    <path d="M 66.657798 38.160826 
Q 69.630275 39.535596 74.349083 39.721376 
Q 75.872477 39.721376 76.559862 38.550963 
Q 77.247248 37.38055 77.247248 35.82 
Q 77.247248 35.299817 77.154358 34.909679 
Q 77.061468 34.519541 76.819954 34.296606 
Q 76.57844 34.07367 76.411239 33.943624 
Q 76.244037 33.813578 75.798165 33.757844 
Q 75.352294 33.70211 75.147936 33.683532 
Q 74.943578 33.664954 74.367661 33.683532 
Q 73.791743 33.70211 73.568807 33.70211 
Q 71.525229 33.70211 70.038991 35.578486 
Q 68.552752 37.454862 68.552752 39.609908 
Q 68.552752 42.619541 70.484862 44.570229 
Q 72.416972 46.520917 75.463761 46.520917 
Q 77.618807 46.818165 79.142202 44.29156 
" clip-path="url(#p1816de943c)" style="fill: none; stroke: #000000; stroke-linejoin: miter"/>
   </g>
  </g>
  <g id="axes_6">
   <g id="patch_7">
    <path d="M 89.025021 26.147669 
Q 88.987531 26.597545 89.025021 27.384828 
Q 89.06251 27.572276 89.006276 27.965917 
Q 88.950041 28.359559 88.987531 28.678221 
Q 89.025021 28.996883 89.249959 29.184331 
" clip-path="url(#p3e199fc233)" style="fill: none; stroke: #000000; stroke-linejoin: miter"/>
   </g>
  </g>
  <g id="axes_7">
   <g id="patch_8">
    <path d="M 100.857476 43.917766 
Q 101.157393 44.180193 102.169614 45.154924 
Q 103.181834 46.129655 103.744179 46.560786 
Q 104.306524 46.991917 105.33749 47.385559 
Q 106.368455 47.7792 107.380676 47.629241 
Q 108.05549 47.629241 108.52411 47.404303 
Q 108.992731 47.179366 109.217669 46.879448 
Q 109.442607 46.579531 109.573821 45.979697 
Q 109.705034 45.379862 109.723779 44.967476 
Q 109.742524 44.55509 109.742524 43.805297 
Q 109.742524 42.718097 108.842772 42.043283 
Q 107.943021 41.368469 106.649628 41.031062 
Q 105.356234 40.693655 104.062841 40.300014 
Q 102.769448 39.906372 101.869697 38.987876 
Q 100.969945 38.069379 100.969945 36.607283 
Q 100.969945 36.082428 101.138648 35.726276 
Q 101.307352 35.370124 101.700993 35.145186 
Q 102.094634 34.920248 102.375807 34.807779 
Q 102.656979 34.69531 103.313048 34.639076 
Q 103.969117 34.582841 104.156566 34.582841 
Q 104.344014 34.582841 105.018828 34.582841 
Q 106.218497 34.582841 106.799586 34.995228 
Q 107.380676 35.407614 107.699338 36.026193 
Q 108.018 36.644772 108.280428 36.832221 
" clip-path="url(#peeb713a6b5)" style="fill: none; stroke: #000000; stroke-linejoin: miter"/>
   </g>
  </g>
  <g id="axes_8"/>
  <g id="axes_9">
   <g id="patch_9">
    <path d="M 133.257476 43.917766 
Q 133.557393 44.180193 134.569614 45.154924 
Q 135.581834 46.129655 136.144179 46.560786 
Q 136.706524 46.991917 137.73749 47.385559 
Q 138.768455 47.7792 139.780676 47.629241 
Q 140.45549 47.629241 140.92411 47.404303 
Q 141.392731 47.179366 141.617669 46.879448 
Q 141.842607 46.579531 141.973821 45.979697 
Q 142.105034 45.379862 142.123779 44.967476 
Q 142.142524 44.55509 142.142524 43.805297 
Q 142.142524 42.718097 141.242772 42.043283 
Q 140.343021 41.368469 139.049628 41.031062 
Q 137.756234 40.693655 136.462841 40.300014 
Q 135.169448 39.906372 134.269697 38.987876 
Q 133.369945 38.069379 133.369945 36.607283 
Q 133.369945 36.082428 133.538648 35.726276 
Q 133.707352 35.370124 134.100993 35.145186 
Q 134.494634 34.920248 134.775807 34.807779 
Q 135.056979 34.69531 135.713048 34.639076 
Q 136.369117 34.582841 136.556566 34.582841 
Q 136.744014 34.582841 137.418828 34.582841 
Q 138.618497 34.582841 139.199586 34.995228 
Q 139.780676 35.407614 140.099338 36.026193 
Q 140.418 36.644772 140.680428 36.832221 
" clip-path="url(#p7b87179d26)" style="fill: none; stroke: #000000; stroke-linejoin: miter"/>
   </g>
  </g>
  <g id="axes_10">
   <g id="patch_10">
    <path d="M 149.288772 35.145186 
Q 149.288772 35.145186 149.288772 35.595062 
Q 149.288772 36.269876 149.176303 37.619503 
Q 149.063834 38.969131 149.063834 39.643945 
Q 149.063834 41.930814 150.300993 43.599103 
Q 151.538152 45.267393 153.675062 45.267393 
Q 155.062179 45.154924 155.830717 43.917766 
Q 156.599255 42.680607 156.749214 41.237255 
Q 156.899172 39.793903 157.1616 37.9944 
Q 157.424028 36.194897 157.836414 35.370124 
Q 157.986372 35.070207 157.986372 35.670041 
Q 157.986372 36.269876 157.723945 38.706703 
Q 157.499007 41.031062 157.499007 41.555917 
Q 157.349048 42.643117 157.686455 43.767807 
Q 158.023862 44.892497 158.736166 45.6048 
" clip-path="url(#p7a88990340)" style="fill: none; stroke: #000000; stroke-linejoin: miter"/>
   </g>
  </g>
  <g id="axes_11">
   <g id="patch_11">
    <path d="M 175.356735 34.365306 
Q 175.356735 34.365306 174.860816 34.365306 
Q 174.067347 34.365306 172.579592 34.067755 
Q 171.091837 33.770204 170.298367 33.770204 
Q 167.521224 33.770204 165.587143 35.224898 
Q 163.653061 36.679592 163.653061 39.423673 
Q 163.653061 40.94449 165.140816 42.399184 
Q 166.628571 43.853878 168.562653 44.663878 
Q 170.496735 45.473878 171.98449 45.473878 
Q 172.910204 45.473878 173.60449 45.110204 
Q 174.298776 44.746531 175.042653 44.118367 
Q 175.786531 43.490204 176.348571 43.192653 
L 176.546939 42.696735 
" clip-path="url(#p915f8f9604)" style="fill: none; stroke: #000000; stroke-linejoin: miter"/>
   </g>
  </g>
  <g id="axes_12">
   <g id="patch_12">
    <path d="M 182.813462 35.932469 
Q 183.413297 35.257655 184.406772 34.826524 
Q 185.400248 34.395393 186.3 34.470372 
Q 186.937324 34.470372 187.42469 34.639076 
Q 187.912055 34.807779 188.230717 34.995228 
Q 188.549379 35.182676 188.774317 35.670041 
Q 188.999255 36.157407 189.111724 36.419834 
Q 189.224193 36.682262 189.280428 37.375821 
Q 189.336662 38.069379 189.355407 38.331807 
Q 189.374152 38.594234 189.355407 39.419007 
Q 189.336662 40.243779 189.336662 40.431228 
Q 189.336662 41.368469 189.167959 43.242952 
Q 188.999255 45.117434 188.999255 46.054676 
Q 188.999255 46.467062 189.05549 46.823214 
Q 189.111724 47.179366 189.205448 47.610497 
Q 189.299172 48.041628 189.336662 48.304055 
L 189.786538 48.528993 
M 183.263338 23.111007 
Q 183.488276 24.798041 183.488276 29.971614 
L 183.488276 42.3432 
L 183.150869 46.841959 
L 182.925931 47.74171 
" clip-path="url(#p713f529c4a)" style="fill: none; stroke: #000000; stroke-linejoin: miter"/>
   </g>
  </g>
  <g id="axes_13"/>
  <g id="axes_14">
   <g id="patch_13">
    <path d="M 212.384141 38.85304 
L 212.812335 38.85304 
Q 213.63304 38.85304 214.596476 38.745991 
Q 215.559912 38.638943 216.719604 38.460529 
Q 217.879295 38.282115 218.485903 38.210749 
L 225.015859 35.427489 
M 224.694714 25.793128 
Q 224.409251 25.721762 223.374449 25.275727 
Q 222.339648 24.829692 221.697357 24.93674 
Q 221.055066 24.93674 220.537665 25.150837 
Q 220.020264 25.364934 219.681278 25.793128 
Q 219.342291 26.221322 219.07467 26.685198 
Q 218.807048 27.149075 218.664317 27.862731 
Q 218.521586 28.576388 218.414537 29.129471 
Q 218.307489 29.682555 218.289648 30.50326 
Q 218.271806 31.323965 218.253965 31.77 
Q 218.236123 32.216035 218.253965 32.965374 
Q 218.271806 33.714714 218.271806 33.928811 
Q 218.271806 36.605022 218.967621 41.850396 
Q 219.663436 47.095771 219.663436 49.771982 
Q 219.59207 50.057445 219.556388 50.681894 
Q 219.520705 51.306344 219.413656 51.805903 
Q 219.306608 52.305463 219.021145 52.555242 
" clip-path="url(#p3cb40ce034)" style="fill: none; stroke: #000000; stroke-linejoin: miter"/>
   </g>
  </g>
  <g id="axes_15">
   <g id="patch_14">
    <path d="M 235.518579 29.071862 
Q 235.143683 29.146841 235.012469 29.577972 
Q 234.881255 30.009103 234.956234 30.42149 
Q 234.956234 30.571448 234.993724 30.702662 
Q 235.031214 30.833876 235.087448 30.89011 
Q 235.143683 30.946345 235.199917 31.040069 
Q 235.256152 31.133793 235.293641 31.208772 
L 235.40611 29.859145 
M 235.40611 34.020497 
Q 234.506359 39.006621 234.281421 42.793076 
L 234.731297 45.379862 
L 235.068703 46.054676 
" clip-path="url(#p4bf44e0838)" style="fill: none; stroke: #000000; stroke-linejoin: miter"/>
   </g>
  </g>
  <g id="axes_16">
   <g id="patch_15">
    <path d="M 246.638731 37.282097 
L 246.638731 37.844441 
Q 246.901159 39.868883 246.938648 41.312234 
Q 246.976138 42.755586 246.882414 44.667559 
Q 246.78869 46.579531 246.78869 48.191586 
L 246.863669 39.643945 
Q 246.863669 38.144359 248.456979 37.507034 
Q 250.05029 36.86971 251.474897 37.282097 
Q 253.386869 37.844441 254.305366 39.04411 
Q 255.223862 40.243779 255.280097 41.668386 
Q 255.336331 43.092993 255.373821 44.817517 
Q 255.41131 46.542041 255.561269 48.191586 
" clip-path="url(#p5959e5ca98)" style="fill: none; stroke: #000000; stroke-linejoin: miter"/>
   </g>
  </g>
  <g id="axes_17">
   <g id="patch_16">
    <path d="M 261.057798 38.160826 
Q 264.030275 39.535596 268.749083 39.721376 
Q 270.272477 39.721376 270.959862 38.550963 
Q 271.647248 37.38055 271.647248 35.82 
Q 271.647248 35.299817 271.554358 34.909679 
Q 271.461468 34.519541 271.219954 34.296606 
Q 270.97844 34.07367 270.811239 33.943624 
Q 270.644037 33.813578 270.198165 33.757844 
Q 269.752294 33.70211 269.547936 33.683532 
Q 269.343578 33.664954 268.767661 33.683532 
Q 268.191743 33.70211 267.968807 33.70211 
Q 265.925229 33.70211 264.438991 35.578486 
Q 262.952752 37.454862 262.952752 39.609908 
Q 262.952752 42.619541 264.884862 44.570229 
Q 266.816972 46.520917 269.863761 46.520917 
Q 272.018807 46.818165 273.542202 44.29156 
" clip-path="url(#pa239fc9d69)" style="fill: none; stroke: #000000; stroke-linejoin: miter"/>
   </g>
  </g>
  <g id="axes_18"/>
  <g id="axes_19">
   <g id="patch_17">
    <path d="M 293.457798 38.160826 
Q 296.430275 39.535596 301.149083 39.721376 
Q 302.672477 39.721376 303.359862 38.550963 
Q 304.047248 37.38055 304.047248 35.82 
Q 304.047248 35.299817 303.954358 34.909679 
Q 303.861468 34.519541 303.619954 34.296606 
Q 303.37844 34.07367 303.211239 33.943624 
Q 303.044037 33.813578 302.598165 33.757844 
Q 302.152294 33.70211 301.947936 33.683532 
Q 301.743578 33.664954 301.167661 33.683532 
Q 300.591743 33.70211 300.368807 33.70211 
Q 298.325229 33.70211 296.838991 35.578486 
Q 295.352752 37.454862 295.352752 39.609908 
Q 295.352752 42.619541 297.284862 44.570229 
Q 299.216972 46.520917 302.263761 46.520917 
Q 304.418807 46.818165 305.942202 44.29156 
" clip-path="url(#pe97f9c7bfd)" style="fill: none; stroke: #000000; stroke-linejoin: miter"/>
   </g>
  </g>
  <g id="axes_20">
   <g id="patch_18">
    <path d="M 321.443923 36.441748 
Q 320.234968 35.094627 316.262687 35.094627 
Q 314.742857 35.094627 313.965672 35.146439 
Q 313.188486 35.198252 312.18678 35.440043 
Q 311.185075 35.681834 310.701493 36.182687 
Q 310.21791 36.683539 309.872495 37.616162 
Q 309.527079 38.548785 309.527079 39.964989 
Q 309.527079 42.037484 310.943284 43.280981 
Q 312.359488 44.524478 314.293817 44.524478 
Q 316.953518 44.524478 319.716844 38.721493 
Q 321.063966 35.854542 321.063966 35.82 
Q 321.409382 35.578209 321.443923 36.441748 
Q 321.443923 37.512537 321.858422 40.362217 
Q 322.272921 43.211898 322.272921 44.524478 
" clip-path="url(#paebb7fd76f)" style="fill: none; stroke: #000000; stroke-linejoin: miter"/>
   </g>
  </g>
  <g id="axes_21">
   <g id="patch_19">
    <path d="M 327.263834 37.95691 
L 327.938648 37.95691 
Q 328.650952 37.95691 329.438234 37.881931 
Q 330.225517 37.806952 331.181503 37.675738 
Q 332.13749 37.544524 332.662345 37.507034 
L 336.936166 35.82 
M 332.887283 30.42149 
L 332.887283 31.43371 
Q 332.887283 33.383172 332.212469 37.207117 
Q 331.537655 41.031062 331.537655 43.018014 
Q 331.537655 43.805297 331.537655 44.105214 
Q 331.537655 44.405131 331.631379 45.042455 
Q 331.725103 45.679779 331.912552 45.960952 
Q 332.1 46.242124 332.493641 46.485807 
Q 332.887283 46.72949 333.449628 46.72949 
Q 333.562097 46.692 333.880759 46.72949 
Q 334.199421 46.766979 334.386869 46.710745 
Q 334.574317 46.65451 334.574317 46.392083 
" clip-path="url(#pe3a4f5a470)" style="fill: none; stroke: #000000; stroke-linejoin: miter"/>
   </g>
  </g>
  <g id="axes_22">
   <g id="patch_20">
    <path d="M 348.918579 29.071862 
Q 348.543683 29.146841 348.412469 29.577972 
Q 348.281255 30.009103 348.356234 30.42149 
Q 348.356234 30.571448 348.393724 30.702662 
Q 348.431214 30.833876 348.487448 30.89011 
Q 348.543683 30.946345 348.599917 31.040069 
Q 348.656152 31.133793 348.693641 31.208772 
L 348.80611 29.859145 
M 348.80611 34.020497 
Q 347.906359 39.006621 347.681421 42.793076 
L 348.131297 45.379862 
L 348.468703 46.054676 
" clip-path="url(#p30a14118df)" style="fill: none; stroke: #000000; stroke-linejoin: miter"/>
   </g>
  </g>
  <g id="axes_23">
   <g id="patch_21">
    <path d="M 360.038731 37.282097 
L 360.038731 37.844441 
Q 360.301159 39.868883 360.338648 41.312234 
Q 360.376138 42.755586 360.282414 44.667559 
Q 360.18869 46.579531 360.18869 48.191586 
L 360.263669 39.643945 
Q 360.263669 38.144359 361.856979 37.507034 
Q 363.45029 36.86971 364.874897 37.282097 
Q 366.786869 37.844441 367.705366 39.04411 
Q 368.623862 40.243779 368.680097 41.668386 
Q 368.736331 43.092993 368.773821 44.817517 
Q 368.81131 46.542041 368.961269 48.191586 
" clip-path="url(#p2f479e0ac2)" style="fill: none; stroke: #000000; stroke-linejoin: miter"/>
   </g>
  </g>
  <g id="axes_24">
   <g id="patch_22">
    <path d="M 385.487191 39.096404 
Q 385.23236 39.023596 384.26764 38.623146 
Q 383.302921 38.222697 382.64764 38.077079 
Q 381.99236 37.931461 381.337079 38.00427 
Q 378.715955 38.00427 377.077753 40.388764 
Q 375.439551 42.773258 375.439551 45.430787 
Q 375.439551 47.068989 380.681798 47.068989 
Q 382.247191 47.068989 383.575955 45.558202 
Q 384.904719 44.047416 385.578202 42.172584 
Q 386.251685 40.297753 386.251685 38.768764 
Q 386.251685 37.27618 386.215281 36.984944 
L 386.142472 38.077079 
Q 386.142472 38.550337 386.142472 38.987191 
Q 386.178876 40.188539 386.379101 42.281798 
Q 386.579326 44.375056 386.743146 46.049663 
Q 386.906966 47.72427 386.943371 49.872135 
Q 386.979775 52.02 386.815955 53.658202 
Q 386.652135 55.296404 386.087865 56.971011 
Q 385.523596 58.645618 384.595281 59.737753 
Q 383.666966 60.829888 382.065169 61.521573 
Q 380.463371 62.213258 378.315506 62.213258 
Q 376.677303 62.213258 375.585169 61.466966 
Q 374.493034 60.720674 374.493034 59.155281 
Q 374.420225 58.936854 374.456629 58.936854 
Q 374.493034 58.936854 374.602247 58.936854 
Q 374.711461 58.936854 374.711461 58.82764 
" clip-path="url(#p3d987d6af4)" style="fill: none; stroke: #000000; stroke-linejoin: miter"/>
   </g>
  </g>
  <g id="axes_25"/>
  <g id="axes_26">
   <g id="patch_23">
    <path d="M 408.263834 37.95691 
L 408.938648 37.95691 
Q 409.650952 37.95691 410.438234 37.881931 
Q 411.225517 37.806952 412.181503 37.675738 
Q 413.13749 37.544524 413.662345 37.507034 
L 417.936166 35.82 
M 413.887283 30.42149 
L 413.887283 31.43371 
Q 413.887283 33.383172 413.212469 37.207117 
Q 412.537655 41.031062 412.537655 43.018014 
Q 412.537655 43.805297 412.537655 44.105214 
Q 412.537655 44.405131 412.631379 45.042455 
Q 412.725103 45.679779 412.912552 45.960952 
Q 413.1 46.242124 413.493641 46.485807 
Q 413.887283 46.72949 414.449628 46.72949 
Q 414.562097 46.692 414.880759 46.72949 
Q 415.199421 46.766979 415.386869 46.710745 
Q 415.574317 46.65451 415.574317 46.392083 
" clip-path="url(#pd187f633ab)" style="fill: none; stroke: #000000; stroke-linejoin: miter"/>
   </g>
  </g>
  <g id="axes_27">
   <g id="patch_24">
    <path d="M 432.5616 35.032717 
Q 431.51189 34.582841 430.537159 34.69531 
Q 427.500497 35.032717 425.588524 36.701007 
Q 423.676552 38.369297 423.676552 41.330979 
Q 423.676552 43.917766 425.682248 45.6048 
Q 427.687945 47.291834 430.312221 47.291834 
Q 432.674069 47.291834 433.798759 45.361117 
Q 434.923448 43.4304 434.923448 40.881103 
Q 434.923448 39.643945 434.511062 38.706703 
Q 434.098676 37.769462 433.573821 37.300841 
Q 433.048966 36.832221 432.299172 36.119917 
Q 431.549379 35.407614 431.099503 34.69531 
L 429.862345 34.245434 
" clip-path="url(#pce466a411b)" style="fill: none; stroke: #000000; stroke-linejoin: miter"/>
   </g>
  </g>
  <g id="axes_28"/>
  <g id="axes_29">
   <g id="patch_25">
    <path d="M 458.157228 37.244607 
Q 459.206938 37.207117 459.394386 37.132138 
Q 462.805945 37.132138 464.586703 39.212814 
Q 466.367462 41.29349 466.367462 44.780028 
Q 466.367462 47.704221 461.756234 47.704221 
Q 461.11891 47.704221 460.57531 47.591752 
Q 460.03171 47.479283 459.394386 47.254345 
Q 458.757062 47.029407 458.269697 46.916938 
L 457.032538 45.679779 
M 458.044759 25.435366 
L 458.044759 26.560055 
Q 458.044759 29.409269 458.157228 33.008276 
Q 458.269697 36.607283 458.457145 40.899848 
Q 458.644593 45.192414 458.719572 47.141876 
" clip-path="url(#pbef40b00be)" style="fill: none; stroke: #000000; stroke-linejoin: miter"/>
   </g>
  </g>
  <g id="axes_30">
   <g id="patch_26">
    <path d="M 471.657798 38.160826 
Q 474.630275 39.535596 479.349083 39.721376 
Q 480.872477 39.721376 481.559862 38.550963 
Q 482.247248 37.38055 482.247248 35.82 
Q 482.247248 35.299817 482.154358 34.909679 
Q 482.061468 34.519541 481.819954 34.296606 
Q 481.57844 34.07367 481.411239 33.943624 
Q 481.244037 33.813578 480.798165 33.757844 
Q 480.352294 33.70211 480.147936 33.683532 
Q 479.943578 33.664954 479.367661 33.683532 
Q 478.791743 33.70211 478.568807 33.70211 
Q 476.525229 33.70211 475.038991 35.578486 
Q 473.552752 37.454862 473.552752 39.609908 
Q 473.552752 42.619541 475.484862 44.570229 
Q 477.416972 46.520917 480.463761 46.520917 
Q 482.618807 46.818165 484.142202 44.29156 
" clip-path="url(#pf3e8b56190)" style="fill: none; stroke: #000000; stroke-linejoin: miter"/>
   </g>
  </g>
  <g id="axes_31"/>
  <g id="axes_32">
   <g id="patch_27">
    <path d="M 506.813462 35.932469 
Q 507.413297 35.257655 508.406772 34.826524 
Q 509.400248 34.395393 510.3 34.470372 
Q 510.937324 34.470372 511.42469 34.639076 
Q 511.912055 34.807779 512.230717 34.995228 
Q 512.549379 35.182676 512.774317 35.670041 
Q 512.999255 36.157407 513.111724 36.419834 
Q 513.224193 36.682262 513.280428 37.375821 
Q 513.336662 38.069379 513.355407 38.331807 
Q 513.374152 38.594234 513.355407 39.419007 
Q 513.336662 40.243779 513.336662 40.431228 
Q 513.336662 41.368469 513.167959 43.242952 
Q 512.999255 45.117434 512.999255 46.054676 
Q 512.999255 46.467062 513.05549 46.823214 
Q 513.111724 47.179366 513.205448 47.610497 
Q 513.299172 48.041628 513.336662 48.304055 
L 513.786538 48.528993 
M 507.263338 23.111007 
Q 507.488276 24.798041 507.488276 29.971614 
L 507.488276 42.3432 
L 507.150869 46.841959 
L 506.925931 47.74171 
" clip-path="url(#pb7f27c920d)" style="fill: none; stroke: #000000; stroke-linejoin: miter"/>
   </g>
  </g>
  <g id="axes_33">
   <g id="patch_28">
    <path d="M 532.043923 36.441748 
Q 530.834968 35.094627 526.862687 35.094627 
Q 525.342857 35.094627 524.565672 35.146439 
Q 523.788486 35.198252 522.78678 35.440043 
Q 521.785075 35.681834 521.301493 36.182687 
Q 520.81791 36.683539 520.472495 37.616162 
Q 520.127079 38.548785 520.127079 39.964989 
Q 520.127079 42.037484 521.543284 43.280981 
Q 522.959488 44.524478 524.893817 44.524478 
Q 527.553518 44.524478 530.316844 38.721493 
Q 531.663966 35.854542 531.663966 35.82 
Q 532.009382 35.578209 532.043923 36.441748 
Q 532.043923 37.512537 532.458422 40.362217 
Q 532.872921 43.211898 532.872921 44.524478 
" clip-path="url(#p5f6696f3cc)" style="fill: none; stroke: #000000; stroke-linejoin: miter"/>
   </g>
  </g>
  <g id="axes_34">
   <g id="patch_29">
    <path d="M 546.299007 39.568966 
Q 544.949379 38.181848 542.7 38.444276 
Q 539.850786 38.444276 538.688607 39.793903 
Q 537.526428 41.143531 537.526428 44.067724 
Q 537.526428 45.56731 538.819821 46.279614 
Q 540.113214 46.991917 541.687779 46.991917 
Q 542.999917 46.991917 544.012138 45.736014 
Q 545.024359 44.48011 545.605448 42.30571 
Q 546.186538 40.13131 546.561434 37.938166 
Q 546.936331 35.745021 547.08629 33.045766 
Q 547.236248 30.34651 547.273738 28.978138 
Q 547.311228 27.609766 547.311228 26.185159 
Q 547.08629 26.260138 547.08629 29.896634 
L 547.08629 44.292662 
L 547.873572 48.229076 
" clip-path="url(#pd6faac42d4)" style="fill: none; stroke: #000000; stroke-linejoin: miter"/>
   </g>
  </g>
  <g id="axes_35"/>
  <g id="axes_36">
   <g id="patch_30">
    <path d="M 580.643923 36.441748 
Q 579.434968 35.094627 575.462687 35.094627 
Q 573.942857 35.094627 573.165672 35.146439 
Q 572.388486 35.198252 571.38678 35.440043 
Q 570.385075 35.681834 569.901493 36.182687 
Q 569.41791 36.683539 569.072495 37.616162 
Q 568.727079 38.548785 568.727079 39.964989 
Q 568.727079 42.037484 570.143284 43.280981 
Q 571.559488 44.524478 573.493817 44.524478 
Q 576.153518 44.524478 578.916844 38.721493 
Q 580.263966 35.854542 580.263966 35.82 
Q 580.609382 35.578209 580.643923 36.441748 
Q 580.643923 37.512537 581.058422 40.362217 
Q 581.472921 43.211898 581.472921 44.524478 
" clip-path="url(#pf6e029520b)" style="fill: none; stroke: #000000; stroke-linejoin: miter"/>
   </g>
  </g>
  <g id="axes_37">
   <g id="patch_31">
    <path d="M 586.463834 37.95691 
L 587.138648 37.95691 
Q 587.850952 37.95691 588.638234 37.881931 
Q 589.425517 37.806952 590.381503 37.675738 
Q 591.33749 37.544524 591.862345 37.507034 
L 596.136166 35.82 
M 592.087283 30.42149 
L 592.087283 31.43371 
Q 592.087283 33.383172 591.412469 37.207117 
Q 590.737655 41.031062 590.737655 43.018014 
Q 590.737655 43.805297 590.737655 44.105214 
Q 590.737655 44.405131 590.831379 45.042455 
Q 590.925103 45.679779 591.112552 45.960952 
Q 591.3 46.242124 591.693641 46.485807 
Q 592.087283 46.72949 592.649628 46.72949 
Q 592.762097 46.692 593.080759 46.72949 
Q 593.399421 46.766979 593.586869 46.710745 
Q 593.774317 46.65451 593.774317 46.392083 
" clip-path="url(#p4f2d67d4f9)" style="fill: none; stroke: #000000; stroke-linejoin: miter"/>
   </g>
  </g>
  <g id="axes_38"/>
  <g id="axes_39">
   <g id="patch_32">
    <path d="M 617.139924 40.439772 
Q 622.036882 46.999848 627.580608 46.168289 
Q 628.904943 46.168289 629.58251 45.382928 
Q 630.260076 44.597567 630.260076 43.30403 
Q 630.260076 41.979696 629.628707 40.947947 
Q 628.997338 39.916198 627.996388 39.238631 
Q 626.995437 38.561065 625.794297 37.975894 
Q 624.593156 37.390722 623.376616 36.820951 
Q 622.160076 36.251179 621.159125 35.589011 
Q 620.158175 34.926844 619.526806 33.895095 
Q 618.895437 32.863346 618.895437 31.56981 
Q 618.895437 29.906692 621.374715 28.382167 
Q 623.853992 26.857643 625.640304 26.857643 
Q 626.718251 26.796046 627.272624 27.627605 
Q 627.826996 28.459163 627.811597 29.490913 
Q 627.796198 30.522662 627.765399 31.385019 
" clip-path="url(#pda5ee6c922)" style="fill: none; stroke: #000000; stroke-linejoin: miter"/>
   </g>
  </g>
  <g id="axes_40">
   <g id="patch_33">
    <path d="M 636.413462 35.932469 
Q 637.013297 35.257655 638.006772 34.826524 
Q 639.000248 34.395393 639.9 34.470372 
Q 640.537324 34.470372 641.02469 34.639076 
Q 641.512055 34.807779 641.830717 34.995228 
Q 642.149379 35.182676 642.374317 35.670041 
Q 642.599255 36.157407 642.711724 36.419834 
Q 642.824193 36.682262 642.880428 37.375821 
Q 642.936662 38.069379 642.955407 38.331807 
Q 642.974152 38.594234 642.955407 39.419007 
Q 642.936662 40.243779 642.936662 40.431228 
Q 642.936662 41.368469 642.767959 43.242952 
Q 642.599255 45.117434 642.599255 46.054676 
Q 642.599255 46.467062 642.65549 46.823214 
Q 642.711724 47.179366 642.805448 47.610497 
Q 642.899172 48.041628 642.936662 48.304055 
L 643.386538 48.528993 
M 636.863338 23.111007 
Q 637.088276 24.798041 637.088276 29.971614 
L 637.088276 42.3432 
L 636.750869 46.841959 
L 636.525931 47.74171 
" clip-path="url(#pc5143db459)" style="fill: none; stroke: #000000; stroke-linejoin: miter"/>
   </g>
  </g>
  <g id="axes_41">
   <g id="patch_34">
    <path d="M 656.718579 29.071862 
Q 656.343683 29.146841 656.212469 29.577972 
Q 656.081255 30.009103 656.156234 30.42149 
Q 656.156234 30.571448 656.193724 30.702662 
Q 656.231214 30.833876 656.287448 30.89011 
Q 656.343683 30.946345 656.399917 31.040069 
Q 656.456152 31.133793 656.493641 31.208772 
L 656.60611 29.859145 
M 656.60611 34.020497 
Q 655.706359 39.006621 655.481421 42.793076 
L 655.931297 45.379862 
L 656.268703 46.054676 
" clip-path="url(#p0bcf6eae3e)" style="fill: none; stroke: #000000; stroke-linejoin: miter"/>
   </g>
  </g>
  <g id="axes_42">
   <g id="patch_35">
    <path d="M 668.813462 32.783338 
Q 669.338317 34.507862 669.469531 36.457324 
Q 669.600745 38.406786 669.525766 40.956083 
Q 669.450786 43.505379 669.488276 44.705048 
L 669.600745 46.054676 
L 669.600745 45.829738 
Q 669.600745 44.667559 669.319572 42.30571 
Q 669.0384 39.943862 669.0384 38.744193 
Q 669.0384 36.419834 670.050621 34.882759 
Q 671.062841 33.345683 673.087283 33.345683 
Q 673.799586 33.345683 674.136993 33.626855 
Q 674.4744 33.908028 674.736828 34.432883 
Q 674.999255 34.957738 675.336662 35.257655 
L 675.786538 36.832221 
" clip-path="url(#p2e7e9d62b2)" style="fill: none; stroke: #000000; stroke-linejoin: miter"/>
   </g>
  </g>
  <g id="axes_43">
   <g id="patch_36">
    <path d="M 688.106359 28.621986 
Q 688.331297 30.34651 688.406276 32.146014 
Q 688.481255 33.945517 688.46251 36.551048 
Q 688.443766 39.156579 688.443766 40.093821 
Q 688.443766 40.13131 688.668703 45.829738 
L 688.893641 46.841959 
" clip-path="url(#pd631cec821)" style="fill: none; stroke: #000000; stroke-linejoin: miter"/>
   </g>
  </g>
  <g id="axes_44">
   <g id="patch_37">
    <path d="M 698.457798 38.160826 
Q 701.430275 39.535596 706.149083 39.721376 
Q 707.672477 39.721376 708.359862 38.550963 
Q 709.047248 37.38055 709.047248 35.82 
Q 709.047248 35.299817 708.954358 34.909679 
Q 708.861468 34.519541 708.619954 34.296606 
Q 708.37844 34.07367 708.211239 33.943624 
Q 708.044037 33.813578 707.598165 33.757844 
Q 707.152294 33.70211 706.947936 33.683532 
Q 706.743578 33.664954 706.167661 33.683532 
Q 705.591743 33.70211 705.368807 33.70211 
Q 703.325229 33.70211 701.838991 35.578486 
Q 700.352752 37.454862 700.352752 39.609908 
Q 700.352752 42.619541 702.284862 44.570229 
Q 704.216972 46.520917 707.263761 46.520917 
Q 709.418807 46.818165 710.942202 44.29156 
" clip-path="url(#p9c8d8b6d00)" style="fill: none; stroke: #000000; stroke-linejoin: miter"/>
   </g>
  </g>
  <g id="axes_45">
   <g id="patch_38">
    <path d="M 715.763917 36.382345 
Q 715.726428 36.494814 715.857641 36.701007 
Q 715.988855 36.9072 715.876386 37.057159 
L 715.876386 39.306538 
Q 715.876386 40.506207 716.213793 41.724621 
Q 716.5512 42.943034 717.413462 43.93651 
Q 718.275724 44.929986 719.475393 44.929986 
Q 720.712552 44.929986 721.387366 43.861531 
Q 722.062179 42.793076 722.512055 41.143531 
Q 722.961931 39.493986 723.299338 38.969131 
L 724.086621 36.382345 
L 723.861683 42.680607 
L 723.861683 45.154924 
Q 723.861683 47.066897 724.592731 51.00331 
Q 725.323779 54.939724 725.323779 56.964166 
Q 726.073572 59.213545 724.986372 60.188276 
Q 723.899172 61.163007 721.837241 60.78811 
Q 720.037738 60.488193 719.119241 60.169531 
Q 718.200745 59.850869 716.213793 58.988607 
L 716.101324 58.426262 
" clip-path="url(#pd12b44c5bd)" style="fill: none; stroke: #000000; stroke-linejoin: miter"/>
   </g>
  </g>
  <g id="axes_46">
   <g id="patch_39">
    <path d="M 734.794386 35.595062 
L 739.405614 35.707531 
" clip-path="url(#pe91559cdef)" style="fill: none; stroke: #000000; stroke-linejoin: miter"/>
   </g>
  </g>
  <g id="axes_47">
   <g id="patch_40">
    <path d="M 746.739924 40.439772 
Q 751.636882 46.999848 757.180608 46.168289 
Q 758.504943 46.168289 759.18251 45.382928 
Q 759.860076 44.597567 759.860076 43.30403 
Q 759.860076 41.979696 759.228707 40.947947 
Q 758.597338 39.916198 757.596388 39.238631 
Q 756.595437 38.561065 755.394297 37.975894 
Q 754.193156 37.390722 752.976616 36.820951 
Q 751.760076 36.251179 750.759125 35.589011 
Q 749.758175 34.926844 749.126806 33.895095 
Q 748.495437 32.863346 748.495437 31.56981 
Q 748.495437 29.906692 750.974715 28.382167 
Q 753.453992 26.857643 755.240304 26.857643 
Q 756.318251 26.796046 756.872624 27.627605 
Q 757.426996 28.459163 757.411597 29.490913 
Q 757.396198 30.522662 757.365399 31.385019 
" clip-path="url(#p76fc59d384)" style="fill: none; stroke: #000000; stroke-linejoin: miter"/>
   </g>
  </g>
  <g id="axes_48">
   <g id="patch_41">
    <path d="M 764.888772 35.145186 
Q 764.888772 35.145186 764.888772 35.595062 
Q 764.888772 36.269876 764.776303 37.619503 
Q 764.663834 38.969131 764.663834 39.643945 
Q 764.663834 41.930814 765.900993 43.599103 
Q 767.138152 45.267393 769.275062 45.267393 
Q 770.662179 45.154924 771.430717 43.917766 
Q 772.199255 42.680607 772.349214 41.237255 
Q 772.499172 39.793903 772.7616 37.9944 
Q 773.024028 36.194897 773.436414 35.370124 
Q 773.586372 35.070207 773.586372 35.670041 
Q 773.586372 36.269876 773.323945 38.706703 
Q 773.099007 41.031062 773.099007 41.555917 
Q 772.949048 42.643117 773.286455 43.767807 
Q 773.623862 44.892497 774.336166 45.6048 
" clip-path="url(#p7ecfbc7968)" style="fill: none; stroke: #000000; stroke-linejoin: miter"/>
   </g>
  </g>
  <g id="axes_49">
   <g id="patch_42">
    <path d="M 779.457798 38.160826 
Q 782.430275 39.535596 787.149083 39.721376 
Q 788.672477 39.721376 789.359862 38.550963 
Q 790.047248 37.38055 790.047248 35.82 
Q 790.047248 35.299817 789.954358 34.909679 
Q 789.861468 34.519541 789.619954 34.296606 
Q 789.37844 34.07367 789.211239 33.943624 
Q 789.044037 33.813578 788.598165 33.757844 
Q 788.152294 33.70211 787.947936 33.683532 
Q 787.743578 33.664954 787.167661 33.683532 
Q 786.591743 33.70211 786.368807 33.70211 
Q 784.325229 33.70211 782.838991 35.578486 
Q 781.352752 37.454862 781.352752 39.609908 
Q 781.352752 42.619541 783.284862 44.570229 
Q 785.216972 46.520917 788.263761 46.520917 
Q 790.418807 46.818165 791.942202 44.29156 
" clip-path="url(#p2be21e1b35)" style="fill: none; stroke: #000000; stroke-linejoin: miter"/>
   </g>
  </g>
  <g id="axes_50">
   <g id="patch_43">
    <path d="M 801.825021 26.147669 
Q 801.787531 26.597545 801.825021 27.384828 
Q 801.86251 27.572276 801.806276 27.965917 
Q 801.750041 28.359559 801.787531 28.678221 
Q 801.825021 28.996883 802.049959 29.184331 
" clip-path="url(#p189799998a)" style="fill: none; stroke: #000000; stroke-linejoin: miter"/>
   </g>
  </g>
  <g id="axes_51">
   <g id="patch_44">
    <path d="M 813.657476 43.917766 
Q 813.957393 44.180193 814.969614 45.154924 
Q 815.981834 46.129655 816.544179 46.560786 
Q 817.106524 46.991917 818.13749 47.385559 
Q 819.168455 47.7792 820.180676 47.629241 
Q 820.85549 47.629241 821.32411 47.404303 
Q 821.792731 47.179366 822.017669 46.879448 
Q 822.242607 46.579531 822.373821 45.979697 
Q 822.505034 45.379862 822.523779 44.967476 
Q 822.542524 44.55509 822.542524 43.805297 
Q 822.542524 42.718097 821.642772 42.043283 
Q 820.743021 41.368469 819.449628 41.031062 
Q 818.156234 40.693655 816.862841 40.300014 
Q 815.569448 39.906372 814.669697 38.987876 
Q 813.769945 38.069379 813.769945 36.607283 
Q 813.769945 36.082428 813.938648 35.726276 
Q 814.107352 35.370124 814.500993 35.145186 
Q 814.894634 34.920248 815.175807 34.807779 
Q 815.456979 34.69531 816.113048 34.639076 
Q 816.769117 34.582841 816.956566 34.582841 
Q 817.144014 34.582841 817.818828 34.582841 
Q 819.018497 34.582841 819.599586 34.995228 
Q 820.180676 35.407614 820.499338 36.026193 
Q 820.818 36.644772 821.080428 36.832221 
" clip-path="url(#pc846c46358)" style="fill: none; stroke: #000000; stroke-linejoin: miter"/>
   </g>
  </g>
 </g>
 <defs>
  <clipPath id="p32bf1f6808">
   <rect x="1.389352" y="8.64" width="13.421297" height="54.36"/>
  </clipPath>
  <clipPath id="pc0752c6e7b">
   <rect x="18.938979" y="8.64" width="10.722041" height="54.36"/>
  </clipPath>
  <clipPath id="pa766bb1fb0">
   <rect x="32.4" y="8.881927" width="16.2" height="53.876147"/>
  </clipPath>
  <clipPath id="pd84738bf06">
   <rect x="51.338979" y="8.64" width="10.722041" height="54.36"/>
  </clipPath>
  <clipPath id="p1816de943c">
   <rect x="64.8" y="8.881927" width="16.2" height="53.876147"/>
  </clipPath>
  <clipPath id="p3e199fc233">
   <rect x="87.075559" y="8.64" width="4.048883" height="54.36"/>
  </clipPath>
  <clipPath id="peeb713a6b5">
   <rect x="98.982993" y="8.64" width="12.634014" height="54.36"/>
  </clipPath>
  <clipPath id="p7b87179d26">
   <rect x="131.382993" y="8.64" width="12.634014" height="54.36"/>
  </clipPath>
  <clipPath id="p7a88990340">
   <rect x="147.189352" y="8.64" width="13.421297" height="54.36"/>
  </clipPath>
  <clipPath id="p915f8f9604">
   <rect x="162" y="11.850612" width="16.2" height="47.938776"/>
  </clipPath>
  <clipPath id="p713f529c4a">
   <rect x="180.938979" y="8.64" width="10.722041" height="54.36"/>
  </clipPath>
  <clipPath id="p3cb40ce034">
   <rect x="210.6" y="9.949956" width="16.2" height="51.740088"/>
  </clipPath>
  <clipPath id="p4bf44e0838">
   <rect x="232.406938" y="8.64" width="4.986124" height="54.36"/>
  </clipPath>
  <clipPath id="p5959e5ca98">
   <rect x="244.764248" y="8.64" width="12.671503" height="54.36"/>
  </clipPath>
  <clipPath id="pa239fc9d69">
   <rect x="259.2" y="8.881927" width="16.2" height="53.876147"/>
  </clipPath>
  <clipPath id="pe97f9c7bfd">
   <rect x="291.6" y="8.881927" width="16.2" height="53.876147"/>
  </clipPath>
  <clipPath id="paebb7fd76f">
   <rect x="307.8" y="10.777356" width="16.2" height="50.085288"/>
  </clipPath>
  <clipPath id="pe3a4f5a470">
   <rect x="325.389352" y="8.64" width="13.421297" height="54.36"/>
  </clipPath>
  <clipPath id="p30a14118df">
   <rect x="345.806938" y="8.64" width="4.986124" height="54.36"/>
  </clipPath>
  <clipPath id="p2f479e0ac2">
   <rect x="358.164248" y="8.64" width="12.671503" height="54.36"/>
  </clipPath>
  <clipPath id="p3d987d6af4">
   <rect x="372.6" y="9.426742" width="16.2" height="52.786517"/>
  </clipPath>
  <clipPath id="pd187f633ab">
   <rect x="406.389352" y="8.64" width="13.421297" height="54.36"/>
  </clipPath>
  <clipPath id="pce466a411b">
   <rect x="421.802069" y="8.64" width="14.995862" height="54.36"/>
  </clipPath>
  <clipPath id="pbef40b00be">
   <rect x="455.158055" y="8.64" width="13.08389" height="54.36"/>
  </clipPath>
  <clipPath id="pf3e8b56190">
   <rect x="469.8" y="8.881927" width="16.2" height="53.876147"/>
  </clipPath>
  <clipPath id="pb7f27c920d">
   <rect x="504.938979" y="8.64" width="10.722041" height="54.36"/>
  </clipPath>
  <clipPath id="p5f6696f3cc">
   <rect x="518.4" y="10.777356" width="16.2" height="50.085288"/>
  </clipPath>
  <clipPath id="pd6faac42d4">
   <rect x="535.651945" y="8.64" width="14.09611" height="54.36"/>
  </clipPath>
  <clipPath id="pf6e029520b">
   <rect x="567" y="10.777356" width="16.2" height="50.085288"/>
  </clipPath>
  <clipPath id="p4f2d67d4f9">
   <rect x="584.589352" y="8.64" width="13.421297" height="54.36"/>
  </clipPath>
  <clipPath id="pda5ee6c922">
   <rect x="615.6" y="13.491103" width="16.2" height="44.657795"/>
  </clipPath>
  <clipPath id="pc5143db459">
   <rect x="634.538979" y="8.64" width="10.722041" height="54.36"/>
  </clipPath>
  <clipPath id="p0bcf6eae3e">
   <rect x="653.606938" y="8.64" width="4.986124" height="54.36"/>
  </clipPath>
  <clipPath id="p2e7e9d62b2">
   <rect x="666.938979" y="8.64" width="10.722041" height="54.36"/>
  </clipPath>
  <clipPath id="pd631cec821">
   <rect x="686.231876" y="8.64" width="4.536248" height="54.36"/>
  </clipPath>
  <clipPath id="p9c8d8b6d00">
   <rect x="696.6" y="8.881927" width="16.2" height="53.876147"/>
  </clipPath>
  <clipPath id="pd12b44c5bd">
   <rect x="713.851945" y="8.64" width="14.09611" height="54.36"/>
  </clipPath>
  <clipPath id="pe91559cdef">
   <rect x="732.919903" y="8.64" width="8.360193" height="54.36"/>
  </clipPath>
  <clipPath id="p76fc59d384">
   <rect x="745.2" y="13.491103" width="16.2" height="44.657795"/>
  </clipPath>
  <clipPath id="p7ecfbc7968">
   <rect x="762.789352" y="8.64" width="13.421297" height="54.36"/>
  </clipPath>
  <clipPath id="p2be21e1b35">
   <rect x="777.6" y="8.881927" width="16.2" height="53.876147"/>
  </clipPath>
  <clipPath id="p189799998a">
   <rect x="799.875559" y="8.64" width="4.048883" height="54.36"/>
  </clipPath>
  <clipPath id="pc846c46358">
   <rect x="811.782993" y="8.64" width="12.634014" height="54.36"/>
  </clipPath>
 </defs>
</svg>
