<?xml version="1.0" encoding="utf-8" standalone="no"?>
<!DOCTYPE svg PUBLIC "-//W3C//DTD SVG 1.1//EN"
  "http://www.w3.org/Graphics/SVG/1.1/DTD/svg11.dtd">
<svg xmlns:xlink="http://www.w3.org/1999/xlink" width="972pt" height="72pt" viewBox="0 0 972 72" xmlns="http://www.w3.org/2000/svg" version="1.1">
 <metadata>
  <rdf:RDF xmlns:dc="http://purl.org/dc/elements/1.1/" xmlns:cc="http://creativecommons.org/ns#" xmlns:rdf="http://www.w3.org/1999/02/22-rdf-syntax-ns#">
   <cc:Work>
    <dc:type rdf:resource="http://purl.org/dc/dcmitype/StillImage"/>
    <dc:date>2023-12-21T11:51:21.299852</dc:date>
    <dc:format>image/svg+xml</dc:format>
    <dc:creator>
     <cc:Agent>
      <dc:title>Matplotlib v3.5.1, https://matplotlib.org/</dc:title>
     </cc:Agent>
    </dc:creator>
   </cc:Work>
  </rdf:RDF>
 </metadata>
 <defs>
  <style type="text/css">*{stroke-linejoin: round; stroke-linecap: butt}</style>
 </defs>
 <g id="figure_1">
  <g id="patch_1">
   <path d="M 0 72 
L 972 72 
L 972 0 
L 0 0 
z
" style="fill: #8fff9f"/>
  </g>
  <g id="axes_1">
   <g id="patch_2">
    <path d="M 3.263834 37.95691 
L 3.938648 37.95691 
Q 4.650952 37.95691 5.438234 37.881931 
Q 6.225517 37.806952 7.181503 37.675738 
Q 8.13749 37.544524 8.662345 37.507034 
L 12.936166 35.82 
M 8.887283 30.42149 
L 8.887283 31.43371 
Q 8.887283 33.383172 8.212469 37.207117 
Q 7.537655 41.031062 7.537655 43.018014 
Q 7.537655 43.805297 7.537655 44.105214 
Q 7.537655 44.405131 7.631379 45.042455 
Q 7.725103 45.679779 7.912552 45.960952 
Q 8.1 46.242124 8.493641 46.485807 
Q 8.887283 46.72949 9.449628 46.72949 
Q 9.562097 46.692 9.880759 46.72949 
Q 10.199421 46.766979 10.386869 46.710745 
Q 10.574317 46.65451 10.574317 46.392083 
" clip-path="url(#pa148ebecb7)" style="fill: none; stroke: #000000; stroke-linejoin: miter"/>
   </g>
  </g>
  <g id="axes_2">
   <g id="patch_3">
    <path d="M 20.813462 35.932469 
Q 21.413297 35.257655 22.406772 34.826524 
Q 23.400248 34.395393 24.3 34.470372 
Q 24.937324 34.470372 25.42469 34.639076 
Q 25.912055 34.807779 26.230717 34.995228 
Q 26.549379 35.182676 26.774317 35.670041 
Q 26.999255 36.157407 27.111724 36.419834 
Q 27.224193 36.682262 27.280428 37.375821 
Q 27.336662 38.069379 27.355407 38.331807 
Q 27.374152 38.594234 27.355407 39.419007 
Q 27.336662 40.243779 27.336662 40.431228 
Q 27.336662 41.368469 27.167959 43.242952 
Q 26.999255 45.117434 26.999255 46.054676 
Q 26.999255 46.467062 27.05549 46.823214 
Q 27.111724 47.179366 27.205448 47.610497 
Q 27.299172 48.041628 27.336662 48.304055 
L 27.786538 48.528993 
M 21.263338 23.111007 
Q 21.488276 24.798041 21.488276 29.971614 
L 21.488276 42.3432 
L 21.150869 46.841959 
L 20.925931 47.74171 
" clip-path="url(#pf96221263c)" style="fill: none; stroke: #000000; stroke-linejoin: miter"/>
   </g>
  </g>
  <g id="axes_3">
   <g id="patch_4">
    <path d="M 46.043923 36.441748 
Q 44.834968 35.094627 40.862687 35.094627 
Q 39.342857 35.094627 38.565672 35.146439 
Q 37.788486 35.198252 36.78678 35.440043 
Q 35.785075 35.681834 35.301493 36.182687 
Q 34.81791 36.683539 34.472495 37.616162 
Q 34.127079 38.548785 34.127079 39.964989 
Q 34.127079 42.037484 35.543284 43.280981 
Q 36.959488 44.524478 38.893817 44.524478 
Q 41.553518 44.524478 44.316844 38.721493 
Q 45.663966 35.854542 45.663966 35.82 
Q 46.009382 35.578209 46.043923 36.441748 
Q 46.043923 37.512537 46.458422 40.362217 
Q 46.872921 43.211898 46.872921 44.524478 
" clip-path="url(#p18c2a33ef3)" style="fill: none; stroke: #000000; stroke-linejoin: miter"/>
   </g>
  </g>
  <g id="axes_4">
   <g id="patch_5">
    <path d="M 51.863834 37.95691 
L 52.538648 37.95691 
Q 53.250952 37.95691 54.038234 37.881931 
Q 54.825517 37.806952 55.781503 37.675738 
Q 56.73749 37.544524 57.262345 37.507034 
L 61.536166 35.82 
M 57.487283 30.42149 
L 57.487283 31.43371 
Q 57.487283 33.383172 56.812469 37.207117 
Q 56.137655 41.031062 56.137655 43.018014 
Q 56.137655 43.805297 56.137655 44.105214 
Q 56.137655 44.405131 56.231379 45.042455 
Q 56.325103 45.679779 56.512552 45.960952 
Q 56.7 46.242124 57.093641 46.485807 
Q 57.487283 46.72949 58.049628 46.72949 
Q 58.162097 46.692 58.480759 46.72949 
Q 58.799421 46.766979 58.986869 46.710745 
Q 59.174317 46.65451 59.174317 46.392083 
" clip-path="url(#p78455689f4)" style="fill: none; stroke: #000000; stroke-linejoin: miter"/>
   </g>
  </g>
  <g id="axes_5">
   <g id="patch_6">
    <path d="M 72.825021 26.147669 
Q 72.787531 26.597545 72.825021 27.384828 
Q 72.86251 27.572276 72.806276 27.965917 
Q 72.750041 28.359559 72.787531 28.678221 
Q 72.825021 28.996883 73.049959 29.184331 
" clip-path="url(#p650a6e08cb)" style="fill: none; stroke: #000000; stroke-linejoin: miter"/>
   </g>
  </g>
  <g id="axes_6">
   <g id="patch_7">
    <path d="M 84.657476 43.917766 
Q 84.957393 44.180193 85.969614 45.154924 
Q 86.981834 46.129655 87.544179 46.560786 
Q 88.106524 46.991917 89.13749 47.385559 
Q 90.168455 47.7792 91.180676 47.629241 
Q 91.85549 47.629241 92.32411 47.404303 
Q 92.792731 47.179366 93.017669 46.879448 
Q 93.242607 46.579531 93.373821 45.979697 
Q 93.505034 45.379862 93.523779 44.967476 
Q 93.542524 44.55509 93.542524 43.805297 
Q 93.542524 42.718097 92.642772 42.043283 
Q 91.743021 41.368469 90.449628 41.031062 
Q 89.156234 40.693655 87.862841 40.300014 
Q 86.569448 39.906372 85.669697 38.987876 
Q 84.769945 38.069379 84.769945 36.607283 
Q 84.769945 36.082428 84.938648 35.726276 
Q 85.107352 35.370124 85.500993 35.145186 
Q 85.894634 34.920248 86.175807 34.807779 
Q 86.456979 34.69531 87.113048 34.639076 
Q 87.769117 34.582841 87.956566 34.582841 
Q 88.144014 34.582841 88.818828 34.582841 
Q 90.018497 34.582841 90.599586 34.995228 
Q 91.180676 35.407614 91.499338 36.026193 
Q 91.818 36.644772 92.080428 36.832221 
" clip-path="url(#p9cdfe5cb67)" style="fill: none; stroke: #000000; stroke-linejoin: miter"/>
   </g>
  </g>
  <g id="axes_7"/>
  <g id="axes_8">
   <g id="patch_8">
    <path d="M 116.363917 36.382345 
Q 116.326428 36.494814 116.457641 36.701007 
Q 116.588855 36.9072 116.476386 37.057159 
L 116.476386 39.306538 
Q 116.476386 40.506207 116.813793 41.724621 
Q 117.1512 42.943034 118.013462 43.93651 
Q 118.875724 44.929986 120.075393 44.929986 
Q 121.312552 44.929986 121.987366 43.861531 
Q 122.662179 42.793076 123.112055 41.143531 
Q 123.561931 39.493986 123.899338 38.969131 
L 124.686621 36.382345 
L 124.461683 42.680607 
L 124.461683 45.154924 
Q 124.461683 47.066897 125.192731 51.00331 
Q 125.923779 54.939724 125.923779 56.964166 
Q 126.673572 59.213545 125.586372 60.188276 
Q 124.499172 61.163007 122.437241 60.78811 
Q 120.637738 60.488193 119.719241 60.169531 
Q 118.800745 59.850869 116.813793 58.988607 
L 116.701324 58.426262 
" clip-path="url(#p2d3a4803ed)" style="fill: none; stroke: #000000; stroke-linejoin: miter"/>
   </g>
  </g>
  <g id="axes_9">
   <g id="patch_9">
    <path d="M 137.625021 26.147669 
Q 137.587531 26.597545 137.625021 27.384828 
Q 137.66251 27.572276 137.606276 27.965917 
Q 137.550041 28.359559 137.587531 28.678221 
Q 137.625021 28.996883 137.849959 29.184331 
" clip-path="url(#p7c5f3081c3)" style="fill: none; stroke: #000000; stroke-linejoin: miter"/>
   </g>
  </g>
  <g id="axes_10">
   <g id="patch_10">
    <path d="M 159.443923 36.441748 
Q 158.234968 35.094627 154.262687 35.094627 
Q 152.742857 35.094627 151.965672 35.146439 
Q 151.188486 35.198252 150.18678 35.440043 
Q 149.185075 35.681834 148.701493 36.182687 
Q 148.21791 36.683539 147.872495 37.616162 
Q 147.527079 38.548785 147.527079 39.964989 
Q 147.527079 42.037484 148.943284 43.280981 
Q 150.359488 44.524478 152.293817 44.524478 
Q 154.953518 44.524478 157.716844 38.721493 
Q 159.063966 35.854542 159.063966 35.82 
Q 159.409382 35.578209 159.443923 36.441748 
Q 159.443923 37.512537 159.858422 40.362217 
Q 160.272921 43.211898 160.272921 44.524478 
" clip-path="url(#p7e5509d83a)" style="fill: none; stroke: #000000; stroke-linejoin: miter"/>
   </g>
  </g>
  <g id="axes_11">
   <g id="patch_11">
    <path d="M 169.706359 28.621986 
Q 169.931297 30.34651 170.006276 32.146014 
Q 170.081255 33.945517 170.06251 36.551048 
Q 170.043766 39.156579 170.043766 40.093821 
Q 170.043766 40.13131 170.268703 45.829738 
L 170.493641 46.841959 
" clip-path="url(#pbea3ab94f7)" style="fill: none; stroke: #000000; stroke-linejoin: miter"/>
   </g>
  </g>
  <g id="axes_12">
   <g id="patch_12">
    <path d="M 185.906359 28.621986 
Q 186.131297 30.34651 186.206276 32.146014 
Q 186.281255 33.945517 186.26251 36.551048 
Q 186.243766 39.156579 186.243766 40.093821 
Q 186.243766 40.13131 186.468703 45.829738 
L 186.693641 46.841959 
" clip-path="url(#p6b6e29377a)" style="fill: none; stroke: #000000; stroke-linejoin: miter"/>
   </g>
  </g>
  <g id="axes_13"/>
  <g id="axes_14">
   <g id="patch_13">
    <path d="M 219.318579 29.071862 
Q 218.943683 29.146841 218.812469 29.577972 
Q 218.681255 30.009103 218.756234 30.42149 
Q 218.756234 30.571448 218.793724 30.702662 
Q 218.831214 30.833876 218.887448 30.89011 
Q 218.943683 30.946345 218.999917 31.040069 
Q 219.056152 31.133793 219.093641 31.208772 
L 219.20611 29.859145 
M 219.20611 34.020497 
Q 218.306359 39.006621 218.081421 42.793076 
L 218.531297 45.379862 
L 218.868703 46.054676 
" clip-path="url(#pf1d67f4b73)" style="fill: none; stroke: #000000; stroke-linejoin: miter"/>
   </g>
  </g>
  <g id="axes_15">
   <g id="patch_14">
    <path d="M 230.438731 37.282097 
L 230.438731 37.844441 
Q 230.701159 39.868883 230.738648 41.312234 
Q 230.776138 42.755586 230.682414 44.667559 
Q 230.58869 46.579531 230.58869 48.191586 
L 230.663669 39.643945 
Q 230.663669 38.144359 232.256979 37.507034 
Q 233.85029 36.86971 235.274897 37.282097 
Q 237.186869 37.844441 238.105366 39.04411 
Q 239.023862 40.243779 239.080097 41.668386 
Q 239.136331 43.092993 239.173821 44.817517 
Q 239.21131 46.542041 239.361269 48.191586 
" clip-path="url(#p2b34ac6009)" style="fill: none; stroke: #000000; stroke-linejoin: miter"/>
   </g>
  </g>
  <g id="axes_16"/>
  <g id="axes_17">
   <g id="patch_15">
    <path d="M 262.463834 37.95691 
L 263.138648 37.95691 
Q 263.850952 37.95691 264.638234 37.881931 
Q 265.425517 37.806952 266.381503 37.675738 
Q 267.33749 37.544524 267.862345 37.507034 
L 272.136166 35.82 
M 268.087283 30.42149 
L 268.087283 31.43371 
Q 268.087283 33.383172 267.412469 37.207117 
Q 266.737655 41.031062 266.737655 43.018014 
Q 266.737655 43.805297 266.737655 44.105214 
Q 266.737655 44.405131 266.831379 45.042455 
Q 266.925103 45.679779 267.112552 45.960952 
Q 267.3 46.242124 267.693641 46.485807 
Q 268.087283 46.72949 268.649628 46.72949 
Q 268.762097 46.692 269.080759 46.72949 
Q 269.399421 46.766979 269.586869 46.710745 
Q 269.774317 46.65451 269.774317 46.392083 
" clip-path="url(#p089014b1be)" style="fill: none; stroke: #000000; stroke-linejoin: miter"/>
   </g>
  </g>
  <g id="axes_18">
   <g id="patch_16">
    <path d="M 280.013462 35.932469 
Q 280.613297 35.257655 281.606772 34.826524 
Q 282.600248 34.395393 283.5 34.470372 
Q 284.137324 34.470372 284.62469 34.639076 
Q 285.112055 34.807779 285.430717 34.995228 
Q 285.749379 35.182676 285.974317 35.670041 
Q 286.199255 36.157407 286.311724 36.419834 
Q 286.424193 36.682262 286.480428 37.375821 
Q 286.536662 38.069379 286.555407 38.331807 
Q 286.574152 38.594234 286.555407 39.419007 
Q 286.536662 40.243779 286.536662 40.431228 
Q 286.536662 41.368469 286.367959 43.242952 
Q 286.199255 45.117434 286.199255 46.054676 
Q 286.199255 46.467062 286.25549 46.823214 
Q 286.311724 47.179366 286.405448 47.610497 
Q 286.499172 48.041628 286.536662 48.304055 
L 286.986538 48.528993 
M 280.463338 23.111007 
Q 280.688276 24.798041 280.688276 29.971614 
L 280.688276 42.3432 
L 280.350869 46.841959 
L 280.125931 47.74171 
" clip-path="url(#p59451e7c2c)" style="fill: none; stroke: #000000; stroke-linejoin: miter"/>
   </g>
  </g>
  <g id="axes_19">
   <g id="patch_17">
    <path d="M 293.457798 38.160826 
Q 296.430275 39.535596 301.149083 39.721376 
Q 302.672477 39.721376 303.359862 38.550963 
Q 304.047248 37.38055 304.047248 35.82 
Q 304.047248 35.299817 303.954358 34.909679 
Q 303.861468 34.519541 303.619954 34.296606 
Q 303.37844 34.07367 303.211239 33.943624 
Q 303.044037 33.813578 302.598165 33.757844 
Q 302.152294 33.70211 301.947936 33.683532 
Q 301.743578 33.664954 301.167661 33.683532 
Q 300.591743 33.70211 300.368807 33.70211 
Q 298.325229 33.70211 296.838991 35.578486 
Q 295.352752 37.454862 295.352752 39.609908 
Q 295.352752 42.619541 297.284862 44.570229 
Q 299.216972 46.520917 302.263761 46.520917 
Q 304.418807 46.818165 305.942202 44.29156 
" clip-path="url(#pbf563ee8c7)" style="fill: none; stroke: #000000; stroke-linejoin: miter"/>
   </g>
  </g>
  <g id="axes_20"/>
  <g id="axes_21">
   <g id="patch_18">
    <path d="M 325.808036 34.879821 
Q 326.314286 36.073125 326.603571 42.871339 
Q 326.748214 46.632054 327.0375 46.632054 
Q 327.073661 46.632054 327.109821 46.595893 
Q 327.616071 46.017321 327.670312 44.588973 
Q 327.724554 43.160625 327.507589 41.750357 
Q 327.290625 40.340089 327.0375 38.712857 
Q 326.784375 37.085625 326.784375 36.398571 
Q 326.784375 35.169107 327.164062 33.939643 
Q 327.54375 32.710179 328.520089 32.710179 
Q 329.749554 32.710179 330.472768 34.355491 
Q 331.195982 36.000804 331.358705 37.971562 
Q 331.521429 39.942321 331.629911 41.587634 
Q 331.738393 43.232946 331.883036 43.232946 
Q 332.027679 43.232946 332.11808 41.497232 
Q 332.208482 39.761518 332.335045 37.700357 
Q 332.461607 35.639196 333.184821 33.903482 
Q 333.908036 32.167768 335.1375 32.167768 
Q 336.692411 33.035625 337.361384 34.771339 
Q 338.030357 36.507054 337.994196 38.188527 
Q 337.958036 39.87 337.976116 42.057723 
Q 337.994196 44.245446 338.391964 45.511071 
" clip-path="url(#p8a3eb9dc93)" style="fill: none; stroke: #000000; stroke-linejoin: miter"/>
   </g>
  </g>
  <g id="axes_22">
   <g id="patch_19">
    <path d="M 343.688772 35.145186 
Q 343.688772 35.145186 343.688772 35.595062 
Q 343.688772 36.269876 343.576303 37.619503 
Q 343.463834 38.969131 343.463834 39.643945 
Q 343.463834 41.930814 344.700993 43.599103 
Q 345.938152 45.267393 348.075062 45.267393 
Q 349.462179 45.154924 350.230717 43.917766 
Q 350.999255 42.680607 351.149214 41.237255 
Q 351.299172 39.793903 351.5616 37.9944 
Q 351.824028 36.194897 352.236414 35.370124 
Q 352.386372 35.070207 352.386372 35.670041 
Q 352.386372 36.269876 352.123945 38.706703 
Q 351.899007 41.031062 351.899007 41.555917 
Q 351.749048 42.643117 352.086455 43.767807 
Q 352.423862 44.892497 353.136166 45.6048 
" clip-path="url(#p92f12e6622)" style="fill: none; stroke: #000000; stroke-linejoin: miter"/>
   </g>
  </g>
  <g id="axes_23">
   <g id="patch_20">
    <path d="M 360.057476 43.917766 
Q 360.357393 44.180193 361.369614 45.154924 
Q 362.381834 46.129655 362.944179 46.560786 
Q 363.506524 46.991917 364.53749 47.385559 
Q 365.568455 47.7792 366.580676 47.629241 
Q 367.25549 47.629241 367.72411 47.404303 
Q 368.192731 47.179366 368.417669 46.879448 
Q 368.642607 46.579531 368.773821 45.979697 
Q 368.905034 45.379862 368.923779 44.967476 
Q 368.942524 44.55509 368.942524 43.805297 
Q 368.942524 42.718097 368.042772 42.043283 
Q 367.143021 41.368469 365.849628 41.031062 
Q 364.556234 40.693655 363.262841 40.300014 
Q 361.969448 39.906372 361.069697 38.987876 
Q 360.169945 38.069379 360.169945 36.607283 
Q 360.169945 36.082428 360.338648 35.726276 
Q 360.507352 35.370124 360.900993 35.145186 
Q 361.294634 34.920248 361.575807 34.807779 
Q 361.856979 34.69531 362.513048 34.639076 
Q 363.169117 34.582841 363.356566 34.582841 
Q 363.544014 34.582841 364.218828 34.582841 
Q 365.418497 34.582841 365.999586 34.995228 
Q 366.580676 35.407614 366.899338 36.026193 
Q 367.218 36.644772 367.480428 36.832221 
" clip-path="url(#pc52da64db6)" style="fill: none; stroke: #000000; stroke-linejoin: miter"/>
   </g>
  </g>
  <g id="axes_24">
   <g id="patch_21">
    <path d="M 375.863834 37.95691 
L 376.538648 37.95691 
Q 377.250952 37.95691 378.038234 37.881931 
Q 378.825517 37.806952 379.781503 37.675738 
Q 380.73749 37.544524 381.262345 37.507034 
L 385.536166 35.82 
M 381.487283 30.42149 
L 381.487283 31.43371 
Q 381.487283 33.383172 380.812469 37.207117 
Q 380.137655 41.031062 380.137655 43.018014 
Q 380.137655 43.805297 380.137655 44.105214 
Q 380.137655 44.405131 380.231379 45.042455 
Q 380.325103 45.679779 380.512552 45.960952 
Q 380.7 46.242124 381.093641 46.485807 
Q 381.487283 46.72949 382.049628 46.72949 
Q 382.162097 46.692 382.480759 46.72949 
Q 382.799421 46.766979 382.986869 46.710745 
Q 383.174317 46.65451 383.174317 46.392083 
" clip-path="url(#p5bce6024f0)" style="fill: none; stroke: #000000; stroke-linejoin: miter"/>
   </g>
  </g>
  <g id="axes_25">
   <g id="patch_22">
    <path d="M 402.443923 36.441748 
Q 401.234968 35.094627 397.262687 35.094627 
Q 395.742857 35.094627 394.965672 35.146439 
Q 394.188486 35.198252 393.18678 35.440043 
Q 392.185075 35.681834 391.701493 36.182687 
Q 391.21791 36.683539 390.872495 37.616162 
Q 390.527079 38.548785 390.527079 39.964989 
Q 390.527079 42.037484 391.943284 43.280981 
Q 393.359488 44.524478 395.293817 44.524478 
Q 397.953518 44.524478 400.716844 38.721493 
Q 402.063966 35.854542 402.063966 35.82 
Q 402.409382 35.578209 402.443923 36.441748 
Q 402.443923 37.512537 402.858422 40.362217 
Q 403.272921 43.211898 403.272921 44.524478 
" clip-path="url(#p4d67117a87)" style="fill: none; stroke: #000000; stroke-linejoin: miter"/>
   </g>
  </g>
  <g id="axes_26">
   <g id="patch_23">
    <path d="M 409.613462 32.783338 
Q 410.138317 34.507862 410.269531 36.457324 
Q 410.400745 38.406786 410.325766 40.956083 
Q 410.250786 43.505379 410.288276 44.705048 
L 410.400745 46.054676 
L 410.400745 45.829738 
Q 410.400745 44.667559 410.119572 42.30571 
Q 409.8384 39.943862 409.8384 38.744193 
Q 409.8384 36.419834 410.850621 34.882759 
Q 411.862841 33.345683 413.887283 33.345683 
Q 414.599586 33.345683 414.936993 33.626855 
Q 415.2744 33.908028 415.536828 34.432883 
Q 415.799255 34.957738 416.136662 35.257655 
L 416.586538 36.832221 
" clip-path="url(#p8a65b1ca47)" style="fill: none; stroke: #000000; stroke-linejoin: miter"/>
   </g>
  </g>
  <g id="axes_27">
   <g id="patch_24">
    <path d="M 432.899007 39.568966 
Q 431.549379 38.181848 429.3 38.444276 
Q 426.450786 38.444276 425.288607 39.793903 
Q 424.126428 41.143531 424.126428 44.067724 
Q 424.126428 45.56731 425.419821 46.279614 
Q 426.713214 46.991917 428.287779 46.991917 
Q 429.599917 46.991917 430.612138 45.736014 
Q 431.624359 44.48011 432.205448 42.30571 
Q 432.786538 40.13131 433.161434 37.938166 
Q 433.536331 35.745021 433.68629 33.045766 
Q 433.836248 30.34651 433.873738 28.978138 
Q 433.911228 27.609766 433.911228 26.185159 
Q 433.68629 26.260138 433.68629 29.896634 
L 433.68629 44.292662 
L 434.473572 48.229076 
" clip-path="url(#pde21818114)" style="fill: none; stroke: #000000; stroke-linejoin: miter"/>
   </g>
  </g>
  <g id="axes_28"/>
  <g id="axes_29">
   <g id="patch_25">
    <path d="M 461.253309 35.164853 
Q 461.908456 36.207132 463.129412 38.723493 
Q 464.350368 41.239853 465.541544 42.981949 
Q 466.732721 44.724044 468.311029 45.796103 
M 455.535662 28.017794 
Q 455.535662 27.898676 455.729228 27.913566 
Q 455.922794 27.928456 456.086581 27.973125 
Q 456.250368 28.017794 456.339706 27.928456 
Q 456.994853 27.928456 458.334926 27.749779 
Q 459.675 27.571103 460.359926 27.571103 
Q 462.7125 27.571103 464.663051 29.030294 
Q 466.613603 30.489485 466.613603 32.663382 
Q 466.613603 33.407868 466.047794 33.988566 
Q 465.481985 34.569265 464.484375 34.896838 
Q 463.486765 35.224412 462.489154 35.447757 
Q 461.491544 35.671103 460.19614 35.760441 
Q 458.900735 35.849779 458.230699 35.864669 
Q 457.560662 35.879559 456.786397 35.879559 
Q 456.6375 35.849779 456.235478 35.849779 
Q 455.833456 35.849779 455.565441 35.80511 
Q 455.297426 35.760441 455.088971 35.611544 
M 457.769118 27.571103 
L 457.769118 28.017794 
Q 457.769118 28.702721 457.992463 30.057684 
Q 458.215809 31.412647 458.215809 32.127353 
Q 458.215809 33.735441 458.037132 36.951618 
Q 457.858456 40.167794 457.858456 41.775882 
L 457.858456 42.758603 
L 458.126471 45.617426 
" clip-path="url(#p26569a6f75)" style="fill: none; stroke: #000000; stroke-linejoin: miter"/>
   </g>
  </g>
  <g id="axes_30">
   <g id="patch_26">
    <path d="M 471.331191 28.654026 
Q 472.433648 30.154594 473.337051 32.635123 
Q 474.240454 35.115652 474.745747 37.259319 
Q 475.25104 39.402987 476.231002 41.684461 
Q 477.210964 43.965936 478.497164 45.28276 
Q 478.834026 45.28276 479.951796 42.036635 
Q 481.069565 38.79051 482.462949 34.196938 
Q 483.856333 29.603365 484.101323 28.837769 
L 484.468809 28.562155 
" clip-path="url(#pb4591ce9d1)" style="fill: none; stroke: #000000; stroke-linejoin: miter"/>
   </g>
  </g>
  <g id="axes_31">
   <g id="patch_27">
    <path d="M 493.387697 39.981352 
Q 494.399917 40.956083 494.737324 42.905545 
Q 494.924772 43.955255 494.512386 46.167145 
L 493.275228 47.629241 
" clip-path="url(#p128ec6f472)" style="fill: none; stroke: #000000; stroke-linejoin: miter"/>
   </g>
  </g>
  <g id="axes_32"/>
  <g id="axes_33">
   <g id="patch_28">
    <path d="M 523.013462 35.932469 
Q 523.613297 35.257655 524.606772 34.826524 
Q 525.600248 34.395393 526.5 34.470372 
Q 527.137324 34.470372 527.62469 34.639076 
Q 528.112055 34.807779 528.430717 34.995228 
Q 528.749379 35.182676 528.974317 35.670041 
Q 529.199255 36.157407 529.311724 36.419834 
Q 529.424193 36.682262 529.480428 37.375821 
Q 529.536662 38.069379 529.555407 38.331807 
Q 529.574152 38.594234 529.555407 39.419007 
Q 529.536662 40.243779 529.536662 40.431228 
Q 529.536662 41.368469 529.367959 43.242952 
Q 529.199255 45.117434 529.199255 46.054676 
Q 529.199255 46.467062 529.25549 46.823214 
Q 529.311724 47.179366 529.405448 47.610497 
Q 529.499172 48.041628 529.536662 48.304055 
L 529.986538 48.528993 
M 523.463338 23.111007 
Q 523.688276 24.798041 523.688276 29.971614 
L 523.688276 42.3432 
L 523.350869 46.841959 
L 523.125931 47.74171 
" clip-path="url(#pfe10dfbe9a)" style="fill: none; stroke: #000000; stroke-linejoin: miter"/>
   </g>
  </g>
  <g id="axes_34">
   <g id="patch_29">
    <path d="M 538.088772 35.145186 
Q 538.088772 35.145186 538.088772 35.595062 
Q 538.088772 36.269876 537.976303 37.619503 
Q 537.863834 38.969131 537.863834 39.643945 
Q 537.863834 41.930814 539.100993 43.599103 
Q 540.338152 45.267393 542.475062 45.267393 
Q 543.862179 45.154924 544.630717 43.917766 
Q 545.399255 42.680607 545.549214 41.237255 
Q 545.699172 39.793903 545.9616 37.9944 
Q 546.224028 36.194897 546.636414 35.370124 
Q 546.786372 35.070207 546.786372 35.670041 
Q 546.786372 36.269876 546.523945 38.706703 
Q 546.299007 41.031062 546.299007 41.555917 
Q 546.149048 42.643117 546.486455 43.767807 
Q 546.823862 44.892497 547.536166 45.6048 
" clip-path="url(#p4a2c139a97)" style="fill: none; stroke: #000000; stroke-linejoin: miter"/>
   </g>
  </g>
  <g id="axes_35">
   <g id="patch_30">
    <path d="M 555.413462 35.932469 
Q 556.013297 35.257655 557.006772 34.826524 
Q 558.000248 34.395393 558.9 34.470372 
Q 559.537324 34.470372 560.02469 34.639076 
Q 560.512055 34.807779 560.830717 34.995228 
Q 561.149379 35.182676 561.374317 35.670041 
Q 561.599255 36.157407 561.711724 36.419834 
Q 561.824193 36.682262 561.880428 37.375821 
Q 561.936662 38.069379 561.955407 38.331807 
Q 561.974152 38.594234 561.955407 39.419007 
Q 561.936662 40.243779 561.936662 40.431228 
Q 561.936662 41.368469 561.767959 43.242952 
Q 561.599255 45.117434 561.599255 46.054676 
Q 561.599255 46.467062 561.65549 46.823214 
Q 561.711724 47.179366 561.805448 47.610497 
Q 561.899172 48.041628 561.936662 48.304055 
L 562.386538 48.528993 
M 555.863338 23.111007 
Q 556.088276 24.798041 556.088276 29.971614 
L 556.088276 42.3432 
L 555.750869 46.841959 
L 555.525931 47.74171 
" clip-path="url(#pd12f7a8b43)" style="fill: none; stroke: #000000; stroke-linejoin: miter"/>
   </g>
  </g>
  <g id="axes_36">
   <g id="patch_31">
    <path d="M 573.375476 45.379862 
Q 573.113048 45.304883 572.831876 45.64229 
Q 572.550703 45.979697 572.625683 46.279614 
Q 572.625683 46.429572 573.075559 46.429572 
Q 573.225517 46.467062 573.337986 46.392083 
Q 573.450455 46.317103 573.450455 46.129655 
M 570.151366 26.934952 
Q 573.075559 25.922731 575.399917 26.0352 
Q 577.424359 26.0352 578.736497 27.197379 
Q 580.048634 28.359559 580.048634 30.309021 
Q 580.048634 32.745848 578.455324 34.001752 
Q 576.862014 35.257655 574.350207 35.257655 
L 572.850621 35.257655 
Q 572.700662 35.257655 572.663172 36.194897 
Q 572.625683 37.132138 572.663172 38.069379 
L 572.700662 39.006621 
L 572.700662 41.405959 
L 573.000579 42.230731 
" clip-path="url(#pbff580c51d)" style="fill: none; stroke: #000000; stroke-linejoin: miter"/>
   </g>
  </g>
  <g id="axes_37"/>
  <g id="axes_38">
   <g id="patch_32">
    <path d="M 600.496076 29.835426 
Q 601.548309 32.005656 602.458051 36.631096 
Q 603.367794 41.256536 604.244655 43.251394 
Q 604.924222 43.251394 605.62571 41.979946 
Q 606.327199 40.708498 606.798512 39.173992 
Q 607.269824 37.639486 607.774019 36.368038 
Q 608.278214 35.09659 608.585115 35.09659 
Q 608.80433 35.09659 609.045467 36.378999 
Q 609.286604 37.661407 609.538701 39.206874 
Q 609.790798 40.752341 610.382679 42.03475 
Q 610.97456 43.317158 611.807578 43.317158 
Q 612.114479 43.317158 612.585792 43.130825 
Q 613.057104 42.944493 613.057104 42.725277 
L 613.057104 42.199161 
Q 613.057104 40.576969 613.276319 38.647876 
Q 613.495535 36.718782 613.8682 34.362219 
Q 614.240866 32.005656 614.372395 30.821894 
L 614.503924 29.572368 
" clip-path="url(#p512d0251bb)" style="fill: none; stroke: #000000; stroke-linejoin: miter"/>
   </g>
  </g>
  <g id="axes_39">
   <g id="patch_33">
    <path d="M 617.457798 38.160826 
Q 620.430275 39.535596 625.149083 39.721376 
Q 626.672477 39.721376 627.359862 38.550963 
Q 628.047248 37.38055 628.047248 35.82 
Q 628.047248 35.299817 627.954358 34.909679 
Q 627.861468 34.519541 627.619954 34.296606 
Q 627.37844 34.07367 627.211239 33.943624 
Q 627.044037 33.813578 626.598165 33.757844 
Q 626.152294 33.70211 625.947936 33.683532 
Q 625.743578 33.664954 625.167661 33.683532 
Q 624.591743 33.70211 624.368807 33.70211 
Q 622.325229 33.70211 620.838991 35.578486 
Q 619.352752 37.454862 619.352752 39.609908 
Q 619.352752 42.619541 621.284862 44.570229 
Q 623.216972 46.520917 626.263761 46.520917 
Q 628.418807 46.818165 629.942202 44.29156 
" clip-path="url(#p380ae520fa)" style="fill: none; stroke: #000000; stroke-linejoin: miter"/>
   </g>
  </g>
  <g id="axes_40">
   <g id="patch_34">
    <path d="M 639.506359 28.621986 
Q 639.731297 30.34651 639.806276 32.146014 
Q 639.881255 33.945517 639.86251 36.551048 
Q 639.843766 39.156579 639.843766 40.093821 
Q 639.843766 40.13131 640.068703 45.829738 
L 640.293641 46.841959 
" clip-path="url(#p4cde8ace4c)" style="fill: none; stroke: #000000; stroke-linejoin: miter"/>
   </g>
  </g>
  <g id="axes_41">
   <g id="patch_35">
    <path d="M 655.706359 28.621986 
Q 655.931297 30.34651 656.006276 32.146014 
Q 656.081255 33.945517 656.06251 36.551048 
Q 656.043766 39.156579 656.043766 40.093821 
Q 656.043766 40.13131 656.268703 45.829738 
L 656.493641 46.841959 
" clip-path="url(#pdae6482e34)" style="fill: none; stroke: #000000; stroke-linejoin: miter"/>
   </g>
  </g>
  <g id="axes_42">
   <g id="patch_36">
    <path d="M 671.587697 39.981352 
Q 672.599917 40.956083 672.937324 42.905545 
Q 673.124772 43.955255 672.712386 46.167145 
L 671.475228 47.629241 
" clip-path="url(#p380848678a)" style="fill: none; stroke: #000000; stroke-linejoin: miter"/>
   </g>
  </g>
  <g id="axes_43"/>
  <g id="axes_44">
   <g id="patch_37">
    <path d="M 699.563917 36.382345 
Q 699.526428 36.494814 699.657641 36.701007 
Q 699.788855 36.9072 699.676386 37.057159 
L 699.676386 39.306538 
Q 699.676386 40.506207 700.013793 41.724621 
Q 700.3512 42.943034 701.213462 43.93651 
Q 702.075724 44.929986 703.275393 44.929986 
Q 704.512552 44.929986 705.187366 43.861531 
Q 705.862179 42.793076 706.312055 41.143531 
Q 706.761931 39.493986 707.099338 38.969131 
L 707.886621 36.382345 
L 707.661683 42.680607 
L 707.661683 45.154924 
Q 707.661683 47.066897 708.392731 51.00331 
Q 709.123779 54.939724 709.123779 56.964166 
Q 709.873572 59.213545 708.786372 60.188276 
Q 707.699172 61.163007 705.637241 60.78811 
Q 703.837738 60.488193 702.919241 60.169531 
Q 702.000745 59.850869 700.013793 58.988607 
L 699.901324 58.426262 
" clip-path="url(#pa90acdd57e)" style="fill: none; stroke: #000000; stroke-linejoin: miter"/>
   </g>
  </g>
  <g id="axes_45">
   <g id="patch_38">
    <path d="M 720.825021 26.147669 
Q 720.787531 26.597545 720.825021 27.384828 
Q 720.86251 27.572276 720.806276 27.965917 
Q 720.750041 28.359559 720.787531 28.678221 
Q 720.825021 28.996883 721.049959 29.184331 
" clip-path="url(#p57397b1ad3)" style="fill: none; stroke: #000000; stroke-linejoin: miter"/>
   </g>
  </g>
  <g id="axes_46">
   <g id="patch_39">
    <path d="M 742.643923 36.441748 
Q 741.434968 35.094627 737.462687 35.094627 
Q 735.942857 35.094627 735.165672 35.146439 
Q 734.388486 35.198252 733.38678 35.440043 
Q 732.385075 35.681834 731.901493 36.182687 
Q 731.41791 36.683539 731.072495 37.616162 
Q 730.727079 38.548785 730.727079 39.964989 
Q 730.727079 42.037484 732.143284 43.280981 
Q 733.559488 44.524478 735.493817 44.524478 
Q 738.153518 44.524478 740.916844 38.721493 
Q 742.263966 35.854542 742.263966 35.82 
Q 742.609382 35.578209 742.643923 36.441748 
Q 742.643923 37.512537 743.058422 40.362217 
Q 743.472921 43.211898 743.472921 44.524478 
" clip-path="url(#p0e33e097f8)" style="fill: none; stroke: #000000; stroke-linejoin: miter"/>
   </g>
  </g>
  <g id="axes_47">
   <g id="patch_40">
    <path d="M 752.906359 28.621986 
Q 753.131297 30.34651 753.206276 32.146014 
Q 753.281255 33.945517 753.26251 36.551048 
Q 753.243766 39.156579 753.243766 40.093821 
Q 753.243766 40.13131 753.468703 45.829738 
L 753.693641 46.841959 
" clip-path="url(#p62de95a213)" style="fill: none; stroke: #000000; stroke-linejoin: miter"/>
   </g>
  </g>
  <g id="axes_48">
   <g id="patch_41">
    <path d="M 769.106359 28.621986 
Q 769.331297 30.34651 769.406276 32.146014 
Q 769.481255 33.945517 769.46251 36.551048 
Q 769.443766 39.156579 769.443766 40.093821 
Q 769.443766 40.13131 769.668703 45.829738 
L 769.893641 46.841959 
" clip-path="url(#pc147082197)" style="fill: none; stroke: #000000; stroke-linejoin: miter"/>
   </g>
  </g>
  <g id="axes_49">
   <g id="patch_42">
    <path d="M 785.625021 26.147669 
Q 785.587531 26.597545 785.625021 27.384828 
Q 785.66251 27.572276 785.606276 27.965917 
Q 785.550041 28.359559 785.587531 28.678221 
Q 785.625021 28.996883 785.849959 29.184331 
" clip-path="url(#p287da5adda)" style="fill: none; stroke: #000000; stroke-linejoin: miter"/>
   </g>
  </g>
  <g id="axes_50">
   <g id="patch_43">
    <path d="M 801.506359 28.621986 
Q 801.731297 30.34651 801.806276 32.146014 
Q 801.881255 33.945517 801.86251 36.551048 
Q 801.843766 39.156579 801.843766 40.093821 
Q 801.843766 40.13131 802.068703 45.829738 
L 802.293641 46.841959 
" clip-path="url(#p3de490024c)" style="fill: none; stroke: #000000; stroke-linejoin: miter"/>
   </g>
  </g>
  <g id="axes_51">
   <g id="patch_44">
    <path d="M 817.706359 28.621986 
Q 817.931297 30.34651 818.006276 32.146014 
Q 818.081255 33.945517 818.06251 36.551048 
Q 818.043766 39.156579 818.043766 40.093821 
Q 818.043766 40.13131 818.268703 45.829738 
L 818.493641 46.841959 
" clip-path="url(#p2bff2b5ba6)" style="fill: none; stroke: #000000; stroke-linejoin: miter"/>
   </g>
  </g>
  <g id="axes_52"/>
  <g id="axes_53">
   <g id="patch_45">
    <path d="M 846.957228 37.244607 
Q 848.006938 37.207117 848.194386 37.132138 
Q 851.605945 37.132138 853.386703 39.212814 
Q 855.167462 41.29349 855.167462 44.780028 
Q 855.167462 47.704221 850.556234 47.704221 
Q 849.91891 47.704221 849.37531 47.591752 
Q 848.83171 47.479283 848.194386 47.254345 
Q 847.557062 47.029407 847.069697 46.916938 
L 845.832538 45.679779 
M 846.844759 25.435366 
L 846.844759 26.560055 
Q 846.844759 29.409269 846.957228 33.008276 
Q 847.069697 36.607283 847.257145 40.899848 
Q 847.444593 45.192414 847.519572 47.141876 
" clip-path="url(#pf8cdbed8ea)" style="fill: none; stroke: #000000; stroke-linejoin: miter"/>
   </g>
  </g>
  <g id="axes_54">
   <g id="patch_46">
    <path d="M 860.457798 38.160826 
Q 863.430275 39.535596 868.149083 39.721376 
Q 869.672477 39.721376 870.359862 38.550963 
Q 871.047248 37.38055 871.047248 35.82 
Q 871.047248 35.299817 870.954358 34.909679 
Q 870.861468 34.519541 870.619954 34.296606 
Q 870.37844 34.07367 870.211239 33.943624 
Q 870.044037 33.813578 869.598165 33.757844 
Q 869.152294 33.70211 868.947936 33.683532 
Q 868.743578 33.664954 868.167661 33.683532 
Q 867.591743 33.70211 867.368807 33.70211 
Q 865.325229 33.70211 863.838991 35.578486 
Q 862.352752 37.454862 862.352752 39.609908 
Q 862.352752 42.619541 864.284862 44.570229 
Q 866.216972 46.520917 869.263761 46.520917 
Q 871.418807 46.818165 872.942202 44.29156 
" clip-path="url(#p9c02adbc72)" style="fill: none; stroke: #000000; stroke-linejoin: miter"/>
   </g>
  </g>
 </g>
 <defs>
  <clipPath id="pa148ebecb7">
   <rect x="1.389352" y="8.64" width="13.421297" height="54.36"/>
  </clipPath>
  <clipPath id="pf96221263c">
   <rect x="18.938979" y="8.64" width="10.722041" height="54.36"/>
  </clipPath>
  <clipPath id="p18c2a33ef3">
   <rect x="32.4" y="10.777356" width="16.2" height="50.085288"/>
  </clipPath>
  <clipPath id="p78455689f4">
   <rect x="49.989352" y="8.64" width="13.421297" height="54.36"/>
  </clipPath>
  <clipPath id="p650a6e08cb">
   <rect x="70.875559" y="8.64" width="4.048883" height="54.36"/>
  </clipPath>
  <clipPath id="p9cdfe5cb67">
   <rect x="82.782993" y="8.64" width="12.634014" height="54.36"/>
  </clipPath>
  <clipPath id="p2d3a4803ed">
   <rect x="114.451945" y="8.64" width="14.09611" height="54.36"/>
  </clipPath>
  <clipPath id="p7c5f3081c3">
   <rect x="135.675559" y="8.64" width="4.048883" height="54.36"/>
  </clipPath>
  <clipPath id="p7e5509d83a">
   <rect x="145.8" y="10.777356" width="16.2" height="50.085288"/>
  </clipPath>
  <clipPath id="pbea3ab94f7">
   <rect x="167.831876" y="8.64" width="4.536248" height="54.36"/>
  </clipPath>
  <clipPath id="p6b6e29377a">
   <rect x="184.031876" y="8.64" width="4.536248" height="54.36"/>
  </clipPath>
  <clipPath id="pf1d67f4b73">
   <rect x="216.206938" y="8.64" width="4.986124" height="54.36"/>
  </clipPath>
  <clipPath id="p2b34ac6009">
   <rect x="228.564248" y="8.64" width="12.671503" height="54.36"/>
  </clipPath>
  <clipPath id="p089014b1be">
   <rect x="260.589352" y="8.64" width="13.421297" height="54.36"/>
  </clipPath>
  <clipPath id="p59451e7c2c">
   <rect x="278.138979" y="8.64" width="10.722041" height="54.36"/>
  </clipPath>
  <clipPath id="pbf563ee8c7">
   <rect x="291.6" y="8.881927" width="16.2" height="53.876147"/>
  </clipPath>
  <clipPath id="p8a3eb9dc93">
   <rect x="324" y="9.603482" width="16.2" height="52.433036"/>
  </clipPath>
  <clipPath id="p92f12e6622">
   <rect x="341.589352" y="8.64" width="13.421297" height="54.36"/>
  </clipPath>
  <clipPath id="pc52da64db6">
   <rect x="358.182993" y="8.64" width="12.634014" height="54.36"/>
  </clipPath>
  <clipPath id="p5bce6024f0">
   <rect x="373.989352" y="8.64" width="13.421297" height="54.36"/>
  </clipPath>
  <clipPath id="p4d67117a87">
   <rect x="388.8" y="10.777356" width="16.2" height="50.085288"/>
  </clipPath>
  <clipPath id="p8a65b1ca47">
   <rect x="407.738979" y="8.64" width="10.722041" height="54.36"/>
  </clipPath>
  <clipPath id="pde21818114">
   <rect x="422.251945" y="8.64" width="14.09611" height="54.36"/>
  </clipPath>
  <clipPath id="p26569a6f75">
   <rect x="453.6" y="14.229926" width="16.2" height="43.180147"/>
  </clipPath>
  <clipPath id="pb4591ce9d1">
   <rect x="469.8" y="13.617732" width="16.2" height="44.404537"/>
  </clipPath>
  <clipPath id="p128ec6f472">
   <rect x="491.400745" y="8.64" width="5.39851" height="54.36"/>
  </clipPath>
  <clipPath id="pfe10dfbe9a">
   <rect x="521.138979" y="8.64" width="10.722041" height="54.36"/>
  </clipPath>
  <clipPath id="p4a2c139a97">
   <rect x="535.989352" y="8.64" width="13.421297" height="54.36"/>
  </clipPath>
  <clipPath id="pd12f7a8b43">
   <rect x="553.538979" y="8.64" width="10.722041" height="54.36"/>
  </clipPath>
  <clipPath id="pbff580c51d">
   <rect x="568.276883" y="8.64" width="13.646234" height="54.36"/>
  </clipPath>
  <clipPath id="p512d0251bb">
   <rect x="599.4" y="19.926901" width="16.2" height="31.786198"/>
  </clipPath>
  <clipPath id="p380ae520fa">
   <rect x="615.6" y="8.881927" width="16.2" height="53.876147"/>
  </clipPath>
  <clipPath id="p4cde8ace4c">
   <rect x="637.631876" y="8.64" width="4.536248" height="54.36"/>
  </clipPath>
  <clipPath id="pdae6482e34">
   <rect x="653.831876" y="8.64" width="4.536248" height="54.36"/>
  </clipPath>
  <clipPath id="p380848678a">
   <rect x="669.600745" y="8.64" width="5.39851" height="54.36"/>
  </clipPath>
  <clipPath id="pa90acdd57e">
   <rect x="697.651945" y="8.64" width="14.09611" height="54.36"/>
  </clipPath>
  <clipPath id="p57397b1ad3">
   <rect x="718.875559" y="8.64" width="4.048883" height="54.36"/>
  </clipPath>
  <clipPath id="p0e33e097f8">
   <rect x="729" y="10.777356" width="16.2" height="50.085288"/>
  </clipPath>
  <clipPath id="p62de95a213">
   <rect x="751.031876" y="8.64" width="4.536248" height="54.36"/>
  </clipPath>
  <clipPath id="pc147082197">
   <rect x="767.231876" y="8.64" width="4.536248" height="54.36"/>
  </clipPath>
  <clipPath id="p287da5adda">
   <rect x="783.675559" y="8.64" width="4.048883" height="54.36"/>
  </clipPath>
  <clipPath id="p3de490024c">
   <rect x="799.631876" y="8.64" width="4.536248" height="54.36"/>
  </clipPath>
  <clipPath id="p2bff2b5ba6">
   <rect x="815.831876" y="8.64" width="4.536248" height="54.36"/>
  </clipPath>
  <clipPath id="pf8cdbed8ea">
   <rect x="843.958055" y="8.64" width="13.08389" height="54.36"/>
  </clipPath>
  <clipPath id="p9c02adbc72">
   <rect x="858.6" y="8.881927" width="16.2" height="53.876147"/>
  </clipPath>
 </defs>
</svg>
