<?xml version="1.0" encoding="utf-8" standalone="no"?>
<!DOCTYPE svg PUBLIC "-//W3C//DTD SVG 1.1//EN"
  "http://www.w3.org/Graphics/SVG/1.1/DTD/svg11.dtd">
<svg xmlns:xlink="http://www.w3.org/1999/xlink" width="774pt" height="72pt" viewBox="0 0 774 72" xmlns="http://www.w3.org/2000/svg" version="1.1">
 <metadata>
  <rdf:RDF xmlns:dc="http://purl.org/dc/elements/1.1/" xmlns:cc="http://creativecommons.org/ns#" xmlns:rdf="http://www.w3.org/1999/02/22-rdf-syntax-ns#">
   <cc:Work>
    <dc:type rdf:resource="http://purl.org/dc/dcmitype/StillImage"/>
    <dc:date>2023-12-21T11:51:10.162986</dc:date>
    <dc:format>image/svg+xml</dc:format>
    <dc:creator>
     <cc:Agent>
      <dc:title>Matplotlib v3.5.1, https://matplotlib.org/</dc:title>
     </cc:Agent>
    </dc:creator>
   </cc:Work>
  </rdf:RDF>
 </metadata>
 <defs>
  <style type="text/css">*{stroke-linejoin: round; stroke-linecap: butt}</style>
 </defs>
 <g id="figure_1">
  <g id="patch_1">
   <path d="M 0 72 
L 774 72 
L 774 0 
L 0 0 
z
" style="fill: #8fff9f"/>
  </g>
  <g id="axes_1">
   <g id="patch_2">
    <path d="M 1.314935 43.209935 
L 14.885065 43.209935 
M 2.656169 30.007987 
L 13.543831 29.929091 
M 7.547727 30.323571 
L 7.547727 30.718052 
Q 7.547727 32.243377 7.639773 33.99224 
Q 7.731818 35.741104 7.88961 37.910747 
Q 8.047403 40.08039 8.1 41.211234 
L 8.257792 43.025844 
" clip-path="url(#p2735f34ea8)" style="fill: none; stroke: #000000; stroke-linejoin: miter"/>
   </g>
  </g>
  <g id="axes_2">
   <g id="patch_3">
    <path d="M 24.225021 26.147669 
Q 24.187531 26.597545 24.225021 27.384828 
Q 24.26251 27.572276 24.206276 27.965917 
Q 24.150041 28.359559 24.187531 28.678221 
Q 24.225021 28.996883 24.449959 29.184331 
" clip-path="url(#p016a783817)" style="fill: none; stroke: #000000; stroke-linejoin: miter"/>
   </g>
  </g>
  <g id="axes_3">
   <g id="patch_4">
    <path d="M 34.208036 34.879821 
Q 34.714286 36.073125 35.003571 42.871339 
Q 35.148214 46.632054 35.4375 46.632054 
Q 35.473661 46.632054 35.509821 46.595893 
Q 36.016071 46.017321 36.070312 44.588973 
Q 36.124554 43.160625 35.907589 41.750357 
Q 35.690625 40.340089 35.4375 38.712857 
Q 35.184375 37.085625 35.184375 36.398571 
Q 35.184375 35.169107 35.564062 33.939643 
Q 35.94375 32.710179 36.920089 32.710179 
Q 38.149554 32.710179 38.872768 34.355491 
Q 39.595982 36.000804 39.758705 37.971563 
Q 39.921429 39.942321 40.029911 41.587634 
Q 40.138393 43.232946 40.283036 43.232946 
Q 40.427679 43.232946 40.51808 41.497232 
Q 40.608482 39.761518 40.735045 37.700357 
Q 40.861607 35.639196 41.584821 33.903482 
Q 42.308036 32.167768 43.5375 32.167768 
Q 45.092411 33.035625 45.761384 34.771339 
Q 46.430357 36.507054 46.394196 38.188527 
Q 46.358036 39.87 46.376116 42.057723 
Q 46.394196 44.245446 46.791964 45.511071 
" clip-path="url(#pa2f58578d9)" style="fill: none; stroke: #000000; stroke-linejoin: miter"/>
   </g>
  </g>
  <g id="axes_4"/>
  <g id="axes_5">
   <g id="patch_5">
    <path d="M 68.063834 37.95691 
L 68.738648 37.95691 
Q 69.450952 37.95691 70.238234 37.881931 
Q 71.025517 37.806952 71.981503 37.675738 
Q 72.93749 37.544524 73.462345 37.507034 
L 77.736166 35.82 
M 73.687283 30.42149 
L 73.687283 31.43371 
Q 73.687283 33.383172 73.012469 37.207117 
Q 72.337655 41.031062 72.337655 43.018014 
Q 72.337655 43.805297 72.337655 44.105214 
Q 72.337655 44.405131 72.431379 45.042455 
Q 72.525103 45.679779 72.712552 45.960952 
Q 72.9 46.242124 73.293641 46.485807 
Q 73.687283 46.72949 74.249628 46.72949 
Q 74.362097 46.692 74.680759 46.72949 
Q 74.999421 46.766979 75.186869 46.710745 
Q 75.374317 46.65451 75.374317 46.392083 
" clip-path="url(#p79e325a61f)" style="fill: none; stroke: #000000; stroke-linejoin: miter"/>
   </g>
  </g>
  <g id="axes_6">
   <g id="patch_6">
    <path d="M 85.613462 35.932469 
Q 86.213297 35.257655 87.206772 34.826524 
Q 88.200248 34.395393 89.1 34.470372 
Q 89.737324 34.470372 90.22469 34.639076 
Q 90.712055 34.807779 91.030717 34.995228 
Q 91.349379 35.182676 91.574317 35.670041 
Q 91.799255 36.157407 91.911724 36.419834 
Q 92.024193 36.682262 92.080428 37.375821 
Q 92.136662 38.069379 92.155407 38.331807 
Q 92.174152 38.594234 92.155407 39.419007 
Q 92.136662 40.243779 92.136662 40.431228 
Q 92.136662 41.368469 91.967959 43.242952 
Q 91.799255 45.117434 91.799255 46.054676 
Q 91.799255 46.467062 91.85549 46.823214 
Q 91.911724 47.179366 92.005448 47.610497 
Q 92.099172 48.041628 92.136662 48.304055 
L 92.586538 48.528993 
M 86.063338 23.111007 
Q 86.288276 24.798041 86.288276 29.971614 
L 86.288276 42.3432 
L 85.950869 46.841959 
L 85.725931 47.74171 
" clip-path="url(#p7b3857a32a)" style="fill: none; stroke: #000000; stroke-linejoin: miter"/>
   </g>
  </g>
  <g id="axes_7">
   <g id="patch_7">
    <path d="M 105.918579 29.071862 
Q 105.543683 29.146841 105.412469 29.577972 
Q 105.281255 30.009103 105.356234 30.42149 
Q 105.356234 30.571448 105.393724 30.702662 
Q 105.431214 30.833876 105.487448 30.89011 
Q 105.543683 30.946345 105.599917 31.040069 
Q 105.656152 31.133793 105.693641 31.208772 
L 105.80611 29.859145 
M 105.80611 34.020497 
Q 104.906359 39.006621 104.681421 42.793076 
L 105.131297 45.379862 
L 105.468703 46.054676 
" clip-path="url(#p97c8718cdb)" style="fill: none; stroke: #000000; stroke-linejoin: miter"/>
   </g>
  </g>
  <g id="axes_8">
   <g id="patch_8">
    <path d="M 117.038731 37.282097 
L 117.038731 37.844441 
Q 117.301159 39.868883 117.338648 41.312234 
Q 117.376138 42.755586 117.282414 44.667559 
Q 117.18869 46.579531 117.18869 48.191586 
L 117.263669 39.643945 
Q 117.263669 38.144359 118.856979 37.507034 
Q 120.45029 36.86971 121.874897 37.282097 
Q 123.786869 37.844441 124.705366 39.04411 
Q 125.623862 40.243779 125.680097 41.668386 
Q 125.736331 43.092993 125.773821 44.817517 
Q 125.81131 46.542041 125.961269 48.191586 
" clip-path="url(#pfa943231a7)" style="fill: none; stroke: #000000; stroke-linejoin: miter"/>
   </g>
  </g>
  <g id="axes_9">
   <g id="patch_9">
    <path d="M 135.731793 37.169628 
Q 137.756234 39.194069 139.518248 41.76211 
Q 141.280262 44.330152 142.142524 46.72949 
M 138.768455 31.321241 
L 138.768455 31.546179 
Q 138.768455 32.333462 138.131131 33.514386 
Q 137.493807 34.69531 136.519076 36.101172 
Q 135.544345 37.507034 135.281917 37.95691 
L 134.044759 39.643945 
M 133.257476 26.710014 
Q 135.094469 36.269876 135.281917 48.641462 
" clip-path="url(#p6bf7fe24df)" style="fill: none; stroke: #000000; stroke-linejoin: miter"/>
   </g>
  </g>
  <g id="axes_10">
   <g id="patch_10">
    <path d="M 154.518579 29.071862 
Q 154.143683 29.146841 154.012469 29.577972 
Q 153.881255 30.009103 153.956234 30.42149 
Q 153.956234 30.571448 153.993724 30.702662 
Q 154.031214 30.833876 154.087448 30.89011 
Q 154.143683 30.946345 154.199917 31.040069 
Q 154.256152 31.133793 154.293641 31.208772 
L 154.40611 29.859145 
M 154.40611 34.020497 
Q 153.506359 39.006621 153.281421 42.793076 
L 153.731297 45.379862 
L 154.068703 46.054676 
" clip-path="url(#p096f99d437)" style="fill: none; stroke: #000000; stroke-linejoin: miter"/>
   </g>
  </g>
  <g id="axes_11">
   <g id="patch_11">
    <path d="M 165.638731 37.282097 
L 165.638731 37.844441 
Q 165.901159 39.868883 165.938648 41.312234 
Q 165.976138 42.755586 165.882414 44.667559 
Q 165.78869 46.579531 165.78869 48.191586 
L 165.863669 39.643945 
Q 165.863669 38.144359 167.456979 37.507034 
Q 169.05029 36.86971 170.474897 37.282097 
Q 172.386869 37.844441 173.305366 39.04411 
Q 174.223862 40.243779 174.280097 41.668386 
Q 174.336331 43.092993 174.373821 44.817517 
Q 174.41131 46.542041 174.561269 48.191586 
" clip-path="url(#p9ad509454a)" style="fill: none; stroke: #000000; stroke-linejoin: miter"/>
   </g>
  </g>
  <g id="axes_12">
   <g id="patch_12">
    <path d="M 191.087191 39.096404 
Q 190.83236 39.023596 189.86764 38.623146 
Q 188.902921 38.222697 188.24764 38.077079 
Q 187.59236 37.931461 186.937079 38.00427 
Q 184.315955 38.00427 182.677753 40.388764 
Q 181.039551 42.773258 181.039551 45.430787 
Q 181.039551 47.068989 186.281798 47.068989 
Q 187.847191 47.068989 189.175955 45.558202 
Q 190.504719 44.047416 191.178202 42.172584 
Q 191.851685 40.297753 191.851685 38.768764 
Q 191.851685 37.27618 191.815281 36.984944 
L 191.742472 38.077079 
Q 191.742472 38.550337 191.742472 38.987191 
Q 191.778876 40.188539 191.979101 42.281798 
Q 192.179326 44.375056 192.343146 46.049663 
Q 192.506966 47.72427 192.543371 49.872135 
Q 192.579775 52.02 192.415955 53.658202 
Q 192.252135 55.296404 191.687865 56.971011 
Q 191.123596 58.645618 190.195281 59.737753 
Q 189.266966 60.829888 187.665169 61.521573 
Q 186.063371 62.213258 183.915506 62.213258 
Q 182.277303 62.213258 181.185169 61.466966 
Q 180.093034 60.720674 180.093034 59.155281 
Q 180.020225 58.936854 180.056629 58.936854 
Q 180.093034 58.936854 180.202247 58.936854 
Q 180.311461 58.936854 180.311461 58.82764 
" clip-path="url(#pe43bc8e02e)" style="fill: none; stroke: #000000; stroke-linejoin: miter"/>
   </g>
  </g>
  <g id="axes_13"/>
  <g id="axes_14">
   <g id="patch_13">
    <path d="M 212.316102 36.437797 
L 213.551695 44.778051 
Q 213.654661 45.567458 213.654661 45.60178 
Q 213.654661 45.704746 213.963559 45.704746 
Q 214.82161 45.704746 215.542373 44.778051 
Q 216.263136 43.851356 216.675 42.718729 
Q 217.086864 41.586102 217.601695 40.659407 
Q 218.116525 39.732712 218.597034 39.732712 
Q 219.214831 39.732712 219.849788 40.607924 
Q 220.484746 41.483136 220.948093 42.512797 
Q 221.411441 43.542458 222.08072 44.417669 
Q 222.75 45.292881 223.436441 45.292881 
Q 223.711017 43.782712 224.140042 39.69839 
Q 224.569068 35.614068 225.083898 33.554746 
" clip-path="url(#pe11c5cfa50)" style="fill: none; stroke: #000000; stroke-linejoin: miter"/>
   </g>
  </g>
  <g id="axes_15">
   <g id="patch_14">
    <path d="M 228.657798 38.160826 
Q 231.630275 39.535596 236.349083 39.721376 
Q 237.872477 39.721376 238.559862 38.550963 
Q 239.247248 37.38055 239.247248 35.82 
Q 239.247248 35.299817 239.154358 34.909679 
Q 239.061468 34.519541 238.819954 34.296606 
Q 238.57844 34.07367 238.411239 33.943624 
Q 238.244037 33.813578 237.798165 33.757844 
Q 237.352294 33.70211 237.147936 33.683532 
Q 236.943578 33.664954 236.367661 33.683532 
Q 235.791743 33.70211 235.568807 33.70211 
Q 233.525229 33.70211 232.038991 35.578486 
Q 230.552752 37.454862 230.552752 39.609908 
Q 230.552752 42.619541 232.484862 44.570229 
Q 234.416972 46.520917 237.463761 46.520917 
Q 239.618807 46.818165 241.142202 44.29156 
" clip-path="url(#p4b457a1f6b)" style="fill: none; stroke: #000000; stroke-linejoin: miter"/>
   </g>
  </g>
  <g id="axes_16"/>
  <g id="axes_17">
   <g id="patch_15">
    <path d="M 261.008036 34.879821 
Q 261.514286 36.073125 261.803571 42.871339 
Q 261.948214 46.632054 262.2375 46.632054 
Q 262.273661 46.632054 262.309821 46.595893 
Q 262.816071 46.017321 262.870312 44.588973 
Q 262.924554 43.160625 262.707589 41.750357 
Q 262.490625 40.340089 262.2375 38.712857 
Q 261.984375 37.085625 261.984375 36.398571 
Q 261.984375 35.169107 262.364062 33.939643 
Q 262.74375 32.710179 263.720089 32.710179 
Q 264.949554 32.710179 265.672768 34.355491 
Q 266.395982 36.000804 266.558705 37.971563 
Q 266.721429 39.942321 266.829911 41.587634 
Q 266.938393 43.232946 267.083036 43.232946 
Q 267.227679 43.232946 267.31808 41.497232 
Q 267.408482 39.761518 267.535045 37.700357 
Q 267.661607 35.639196 268.384821 33.903482 
Q 269.108036 32.167768 270.3375 32.167768 
Q 271.892411 33.035625 272.561384 34.771339 
Q 273.230357 36.507054 273.194196 38.188527 
Q 273.158036 39.87 273.176116 42.057723 
Q 273.194196 44.245446 273.591964 45.511071 
" clip-path="url(#p9219947a6d)" style="fill: none; stroke: #000000; stroke-linejoin: miter"/>
   </g>
  </g>
  <g id="axes_18">
   <g id="patch_16">
    <path d="M 284.118579 29.071862 
Q 283.743683 29.146841 283.612469 29.577972 
Q 283.481255 30.009103 283.556234 30.42149 
Q 283.556234 30.571448 283.593724 30.702662 
Q 283.631214 30.833876 283.687448 30.89011 
Q 283.743683 30.946345 283.799917 31.040069 
Q 283.856152 31.133793 283.893641 31.208772 
L 284.00611 29.859145 
M 284.00611 34.020497 
Q 283.106359 39.006621 282.881421 42.793076 
L 283.331297 45.379862 
L 283.668703 46.054676 
" clip-path="url(#p43fd102c82)" style="fill: none; stroke: #000000; stroke-linejoin: miter"/>
   </g>
  </g>
  <g id="axes_19">
   <g id="patch_17">
    <path d="M 304.487191 39.096404 
Q 304.23236 39.023596 303.26764 38.623146 
Q 302.302921 38.222697 301.64764 38.077079 
Q 300.99236 37.931461 300.337079 38.00427 
Q 297.715955 38.00427 296.077753 40.388764 
Q 294.439551 42.773258 294.439551 45.430787 
Q 294.439551 47.068989 299.681798 47.068989 
Q 301.247191 47.068989 302.575955 45.558202 
Q 303.904719 44.047416 304.578202 42.172584 
Q 305.251685 40.297753 305.251685 38.768764 
Q 305.251685 37.27618 305.215281 36.984944 
L 305.142472 38.077079 
Q 305.142472 38.550337 305.142472 38.987191 
Q 305.178876 40.188539 305.379101 42.281798 
Q 305.579326 44.375056 305.743146 46.049663 
Q 305.906966 47.72427 305.943371 49.872135 
Q 305.979775 52.02 305.815955 53.658202 
Q 305.652135 55.296404 305.087865 56.971011 
Q 304.523596 58.645618 303.595281 59.737753 
Q 302.666966 60.829888 301.065169 61.521573 
Q 299.463371 62.213258 297.315506 62.213258 
Q 295.677303 62.213258 294.585169 61.466966 
Q 293.493034 60.720674 293.493034 59.155281 
Q 293.420225 58.936854 293.456629 58.936854 
Q 293.493034 58.936854 293.602247 58.936854 
Q 293.711461 58.936854 293.711461 58.82764 
" clip-path="url(#p01692b148d)" style="fill: none; stroke: #000000; stroke-linejoin: miter"/>
   </g>
  </g>
  <g id="axes_20">
   <g id="patch_18">
    <path d="M 312.413462 35.932469 
Q 313.013297 35.257655 314.006772 34.826524 
Q 315.000248 34.395393 315.9 34.470372 
Q 316.537324 34.470372 317.02469 34.639076 
Q 317.512055 34.807779 317.830717 34.995228 
Q 318.149379 35.182676 318.374317 35.670041 
Q 318.599255 36.157407 318.711724 36.419834 
Q 318.824193 36.682262 318.880428 37.375821 
Q 318.936662 38.069379 318.955407 38.331807 
Q 318.974152 38.594234 318.955407 39.419007 
Q 318.936662 40.243779 318.936662 40.431228 
Q 318.936662 41.368469 318.767959 43.242952 
Q 318.599255 45.117434 318.599255 46.054676 
Q 318.599255 46.467062 318.65549 46.823214 
Q 318.711724 47.179366 318.805448 47.610497 
Q 318.899172 48.041628 318.936662 48.304055 
L 319.386538 48.528993 
M 312.863338 23.111007 
Q 313.088276 24.798041 313.088276 29.971614 
L 313.088276 42.3432 
L 312.750869 46.841959 
L 312.525931 47.74171 
" clip-path="url(#p4e0939fa47)" style="fill: none; stroke: #000000; stroke-linejoin: miter"/>
   </g>
  </g>
  <g id="axes_21">
   <g id="patch_19">
    <path d="M 327.263834 37.95691 
L 327.938648 37.95691 
Q 328.650952 37.95691 329.438234 37.881931 
Q 330.225517 37.806952 331.181503 37.675738 
Q 332.13749 37.544524 332.662345 37.507034 
L 336.936166 35.82 
M 332.887283 30.42149 
L 332.887283 31.43371 
Q 332.887283 33.383172 332.212469 37.207117 
Q 331.537655 41.031062 331.537655 43.018014 
Q 331.537655 43.805297 331.537655 44.105214 
Q 331.537655 44.405131 331.631379 45.042455 
Q 331.725103 45.679779 331.912552 45.960952 
Q 332.1 46.242124 332.493641 46.485807 
Q 332.887283 46.72949 333.449628 46.72949 
Q 333.562097 46.692 333.880759 46.72949 
Q 334.199421 46.766979 334.386869 46.710745 
Q 334.574317 46.65451 334.574317 46.392083 
" clip-path="url(#p3685654a36)" style="fill: none; stroke: #000000; stroke-linejoin: miter"/>
   </g>
  </g>
  <g id="axes_22"/>
  <g id="axes_23">
   <g id="patch_20">
    <path d="M 370.043923 36.441748 
Q 368.834968 35.094627 364.862687 35.094627 
Q 363.342857 35.094627 362.565672 35.146439 
Q 361.788486 35.198252 360.78678 35.440043 
Q 359.785075 35.681834 359.301493 36.182687 
Q 358.81791 36.683539 358.472495 37.616162 
Q 358.127079 38.548785 358.127079 39.964989 
Q 358.127079 42.037484 359.543284 43.280981 
Q 360.959488 44.524478 362.893817 44.524478 
Q 365.553518 44.524478 368.316844 38.721493 
Q 369.663966 35.854542 369.663966 35.82 
Q 370.009382 35.578209 370.043923 36.441748 
Q 370.043923 37.512537 370.458422 40.362217 
Q 370.872921 43.211898 370.872921 44.524478 
" clip-path="url(#pad190682bb)" style="fill: none; stroke: #000000; stroke-linejoin: miter"/>
   </g>
  </g>
  <g id="axes_24">
   <g id="patch_21">
    <path d="M 376.257476 43.917766 
Q 376.557393 44.180193 377.569614 45.154924 
Q 378.581834 46.129655 379.144179 46.560786 
Q 379.706524 46.991917 380.73749 47.385559 
Q 381.768455 47.7792 382.780676 47.629241 
Q 383.45549 47.629241 383.92411 47.404303 
Q 384.392731 47.179366 384.617669 46.879448 
Q 384.842607 46.579531 384.973821 45.979697 
Q 385.105034 45.379862 385.123779 44.967476 
Q 385.142524 44.55509 385.142524 43.805297 
Q 385.142524 42.718097 384.242772 42.043283 
Q 383.343021 41.368469 382.049628 41.031062 
Q 380.756234 40.693655 379.462841 40.300014 
Q 378.169448 39.906372 377.269697 38.987876 
Q 376.369945 38.069379 376.369945 36.607283 
Q 376.369945 36.082428 376.538648 35.726276 
Q 376.707352 35.370124 377.100993 35.145186 
Q 377.494634 34.920248 377.775807 34.807779 
Q 378.056979 34.69531 378.713048 34.639076 
Q 379.369117 34.582841 379.556566 34.582841 
Q 379.744014 34.582841 380.418828 34.582841 
Q 381.618497 34.582841 382.199586 34.995228 
Q 382.780676 35.407614 383.099338 36.026193 
Q 383.418 36.644772 383.680428 36.832221 
" clip-path="url(#p0deceba4c8)" style="fill: none; stroke: #000000; stroke-linejoin: miter"/>
   </g>
  </g>
  <g id="axes_25"/>
  <g id="axes_26">
   <g id="patch_22">
    <path d="M 406.716102 36.437797 
L 407.951695 44.778051 
Q 408.054661 45.567458 408.054661 45.60178 
Q 408.054661 45.704746 408.363559 45.704746 
Q 409.22161 45.704746 409.942373 44.778051 
Q 410.663136 43.851356 411.075 42.718729 
Q 411.486864 41.586102 412.001695 40.659407 
Q 412.516525 39.732712 412.997034 39.732712 
Q 413.614831 39.732712 414.249788 40.607924 
Q 414.884746 41.483136 415.348093 42.512797 
Q 415.811441 43.542458 416.48072 44.417669 
Q 417.15 45.292881 417.836441 45.292881 
Q 418.111017 43.782712 418.540042 39.69839 
Q 418.969068 35.614068 419.483898 33.554746 
" clip-path="url(#p92c1a8d2a2)" style="fill: none; stroke: #000000; stroke-linejoin: miter"/>
   </g>
  </g>
  <g id="axes_27">
   <g id="patch_23">
    <path d="M 423.057798 38.160826 
Q 426.030275 39.535596 430.749083 39.721376 
Q 432.272477 39.721376 432.959862 38.550963 
Q 433.647248 37.38055 433.647248 35.82 
Q 433.647248 35.299817 433.554358 34.909679 
Q 433.461468 34.519541 433.219954 34.296606 
Q 432.97844 34.07367 432.811239 33.943624 
Q 432.644037 33.813578 432.198165 33.757844 
Q 431.752294 33.70211 431.547936 33.683532 
Q 431.343578 33.664954 430.767661 33.683532 
Q 430.191743 33.70211 429.968807 33.70211 
Q 427.925229 33.70211 426.438991 35.578486 
Q 424.952752 37.454862 424.952752 39.609908 
Q 424.952752 42.619541 426.884862 44.570229 
Q 428.816972 46.520917 431.863761 46.520917 
Q 434.018807 46.818165 435.542202 44.29156 
" clip-path="url(#p8ecf45072c)" style="fill: none; stroke: #000000; stroke-linejoin: miter"/>
   </g>
  </g>
  <g id="axes_28">
   <g id="patch_24">
    <path d="M 445.106359 28.621986 
Q 445.331297 30.34651 445.406276 32.146014 
Q 445.481255 33.945517 445.46251 36.551048 
Q 445.443766 39.156579 445.443766 40.093821 
Q 445.443766 40.13131 445.668703 45.829738 
L 445.893641 46.841959 
" clip-path="url(#p4f21eef0dd)" style="fill: none; stroke: #000000; stroke-linejoin: miter"/>
   </g>
  </g>
  <g id="axes_29">
   <g id="patch_25">
    <path d="M 461.306359 28.621986 
Q 461.531297 30.34651 461.606276 32.146014 
Q 461.681255 33.945517 461.66251 36.551048 
Q 461.643766 39.156579 461.643766 40.093821 
Q 461.643766 40.13131 461.868703 45.829738 
L 462.093641 46.841959 
" clip-path="url(#p31089d50dd)" style="fill: none; stroke: #000000; stroke-linejoin: miter"/>
   </g>
  </g>
  <g id="axes_30"/>
  <g id="axes_31">
   <g id="patch_26">
    <path d="M 489.657476 43.917766 
Q 489.957393 44.180193 490.969614 45.154924 
Q 491.981834 46.129655 492.544179 46.560786 
Q 493.106524 46.991917 494.13749 47.385559 
Q 495.168455 47.7792 496.180676 47.629241 
Q 496.85549 47.629241 497.32411 47.404303 
Q 497.792731 47.179366 498.017669 46.879448 
Q 498.242607 46.579531 498.373821 45.979697 
Q 498.505034 45.379862 498.523779 44.967476 
Q 498.542524 44.55509 498.542524 43.805297 
Q 498.542524 42.718097 497.642772 42.043283 
Q 496.743021 41.368469 495.449628 41.031062 
Q 494.156234 40.693655 492.862841 40.300014 
Q 491.569448 39.906372 490.669697 38.987876 
Q 489.769945 38.069379 489.769945 36.607283 
Q 489.769945 36.082428 489.938648 35.726276 
Q 490.107352 35.370124 490.500993 35.145186 
Q 490.894634 34.920248 491.175807 34.807779 
Q 491.456979 34.69531 492.113048 34.639076 
Q 492.769117 34.582841 492.956566 34.582841 
Q 493.144014 34.582841 493.818828 34.582841 
Q 495.018497 34.582841 495.599586 34.995228 
Q 496.180676 35.407614 496.499338 36.026193 
Q 496.818 36.644772 497.080428 36.832221 
" clip-path="url(#p5e50e4cf2d)" style="fill: none; stroke: #000000; stroke-linejoin: miter"/>
   </g>
  </g>
  <g id="axes_32">
   <g id="patch_27">
    <path d="M 505.463834 37.95691 
L 506.138648 37.95691 
Q 506.850952 37.95691 507.638234 37.881931 
Q 508.425517 37.806952 509.381503 37.675738 
Q 510.33749 37.544524 510.862345 37.507034 
L 515.136166 35.82 
M 511.087283 30.42149 
L 511.087283 31.43371 
Q 511.087283 33.383172 510.412469 37.207117 
Q 509.737655 41.031062 509.737655 43.018014 
Q 509.737655 43.805297 509.737655 44.105214 
Q 509.737655 44.405131 509.831379 45.042455 
Q 509.925103 45.679779 510.112552 45.960952 
Q 510.3 46.242124 510.693641 46.485807 
Q 511.087283 46.72949 511.649628 46.72949 
Q 511.762097 46.692 512.080759 46.72949 
Q 512.399421 46.766979 512.586869 46.710745 
Q 512.774317 46.65451 512.774317 46.392083 
" clip-path="url(#p829eb92722)" style="fill: none; stroke: #000000; stroke-linejoin: miter"/>
   </g>
  </g>
  <g id="axes_33">
   <g id="patch_28">
    <path d="M 532.043923 36.441748 
Q 530.834968 35.094627 526.862687 35.094627 
Q 525.342857 35.094627 524.565672 35.146439 
Q 523.788486 35.198252 522.78678 35.440043 
Q 521.785075 35.681834 521.301493 36.182687 
Q 520.81791 36.683539 520.472495 37.616162 
Q 520.127079 38.548785 520.127079 39.964989 
Q 520.127079 42.037484 521.543284 43.280981 
Q 522.959488 44.524478 524.893817 44.524478 
Q 527.553518 44.524478 530.316844 38.721493 
Q 531.663966 35.854542 531.663966 35.82 
Q 532.009382 35.578209 532.043923 36.441748 
Q 532.043923 37.512537 532.458422 40.362217 
Q 532.872921 43.211898 532.872921 44.524478 
" clip-path="url(#p298ffb008c)" style="fill: none; stroke: #000000; stroke-linejoin: miter"/>
   </g>
  </g>
  <g id="axes_34">
   <g id="patch_29">
    <path d="M 537.563917 36.382345 
Q 537.526428 36.494814 537.657641 36.701007 
Q 537.788855 36.9072 537.676386 37.057159 
L 537.676386 39.306538 
Q 537.676386 40.506207 538.013793 41.724621 
Q 538.3512 42.943034 539.213462 43.93651 
Q 540.075724 44.929986 541.275393 44.929986 
Q 542.512552 44.929986 543.187366 43.861531 
Q 543.862179 42.793076 544.312055 41.143531 
Q 544.761931 39.493986 545.099338 38.969131 
L 545.886621 36.382345 
L 545.661683 42.680607 
L 545.661683 45.154924 
Q 545.661683 47.066897 546.392731 51.00331 
Q 547.123779 54.939724 547.123779 56.964166 
Q 547.873572 59.213545 546.786372 60.188276 
Q 545.699172 61.163007 543.637241 60.78811 
Q 541.837738 60.488193 540.919241 60.169531 
Q 540.000745 59.850869 538.013793 58.988607 
L 537.901324 58.426262 
" clip-path="url(#p66dd90f08f)" style="fill: none; stroke: #000000; stroke-linejoin: miter"/>
   </g>
  </g>
  <g id="axes_35"/>
  <g id="axes_36">
   <g id="patch_30">
    <path d="M 580.643923 36.441748 
Q 579.434968 35.094627 575.462687 35.094627 
Q 573.942857 35.094627 573.165672 35.146439 
Q 572.388486 35.198252 571.38678 35.440043 
Q 570.385075 35.681834 569.901493 36.182687 
Q 569.41791 36.683539 569.072495 37.616162 
Q 568.727079 38.548785 568.727079 39.964989 
Q 568.727079 42.037484 570.143284 43.280981 
Q 571.559488 44.524478 573.493817 44.524478 
Q 576.153518 44.524478 578.916844 38.721493 
Q 580.263966 35.854542 580.263966 35.82 
Q 580.609382 35.578209 580.643923 36.441748 
Q 580.643923 37.512537 581.058422 40.362217 
Q 581.472921 43.211898 581.472921 44.524478 
" clip-path="url(#pd958d820ba)" style="fill: none; stroke: #000000; stroke-linejoin: miter"/>
   </g>
  </g>
  <g id="axes_37"/>
  <g id="axes_38">
   <g id="patch_31">
    <path d="M 602.663834 37.95691 
L 603.338648 37.95691 
Q 604.050952 37.95691 604.838234 37.881931 
Q 605.625517 37.806952 606.581503 37.675738 
Q 607.53749 37.544524 608.062345 37.507034 
L 612.336166 35.82 
M 608.287283 30.42149 
L 608.287283 31.43371 
Q 608.287283 33.383172 607.612469 37.207117 
Q 606.937655 41.031062 606.937655 43.018014 
Q 606.937655 43.805297 606.937655 44.105214 
Q 606.937655 44.405131 607.031379 45.042455 
Q 607.125103 45.679779 607.312552 45.960952 
Q 607.5 46.242124 607.893641 46.485807 
Q 608.287283 46.72949 608.849628 46.72949 
Q 608.962097 46.692 609.280759 46.72949 
Q 609.599421 46.766979 609.786869 46.710745 
Q 609.974317 46.65451 609.974317 46.392083 
" clip-path="url(#pf6bca0f5b8)" style="fill: none; stroke: #000000; stroke-linejoin: miter"/>
   </g>
  </g>
  <g id="axes_39">
   <g id="patch_32">
    <path d="M 624.318579 29.071862 
Q 623.943683 29.146841 623.812469 29.577972 
Q 623.681255 30.009103 623.756234 30.42149 
Q 623.756234 30.571448 623.793724 30.702662 
Q 623.831214 30.833876 623.887448 30.89011 
Q 623.943683 30.946345 623.999917 31.040069 
Q 624.056152 31.133793 624.093641 31.208772 
L 624.20611 29.859145 
M 624.20611 34.020497 
Q 623.306359 39.006621 623.081421 42.793076 
L 623.531297 45.379862 
L 623.868703 46.054676 
" clip-path="url(#pad57af8f02)" style="fill: none; stroke: #000000; stroke-linejoin: miter"/>
   </g>
  </g>
  <g id="axes_40">
   <g id="patch_33">
    <path d="M 645.156735 34.365306 
Q 645.156735 34.365306 644.660816 34.365306 
Q 643.867347 34.365306 642.379592 34.067755 
Q 640.891837 33.770204 640.098367 33.770204 
Q 637.321224 33.770204 635.387143 35.224898 
Q 633.453061 36.679592 633.453061 39.423673 
Q 633.453061 40.94449 634.940816 42.399184 
Q 636.428571 43.853878 638.362653 44.663878 
Q 640.296735 45.473878 641.78449 45.473878 
Q 642.710204 45.473878 643.40449 45.110204 
Q 644.098776 44.746531 644.842653 44.118367 
Q 645.586531 43.490204 646.148571 43.192653 
L 646.346939 42.696735 
" clip-path="url(#pa8425a981a)" style="fill: none; stroke: #000000; stroke-linejoin: miter"/>
   </g>
  </g>
  <g id="axes_41">
   <g id="patch_34">
    <path d="M 654.131793 37.169628 
Q 656.156234 39.194069 657.918248 41.76211 
Q 659.680262 44.330152 660.542524 46.72949 
M 657.168455 31.321241 
L 657.168455 31.546179 
Q 657.168455 32.333462 656.531131 33.514386 
Q 655.893807 34.69531 654.919076 36.101172 
Q 653.944345 37.507034 653.681917 37.95691 
L 652.444759 39.643945 
M 651.657476 26.710014 
Q 653.494469 36.269876 653.681917 48.641462 
" clip-path="url(#p7841f90ae0)" style="fill: none; stroke: #000000; stroke-linejoin: miter"/>
   </g>
  </g>
  <g id="axes_42">
   <g id="patch_35">
    <path d="M 672.187531 45.979697 
Q 672.150041 46.017186 672.018828 46.054676 
Q 671.887614 46.092166 671.925103 46.167145 
Q 671.925103 46.579531 672.3 46.579531 
Q 672.637407 46.579531 672.637407 46.092166 
Q 672.712386 45.867228 672.431214 45.754759 
Q 672.150041 45.64229 671.962593 45.754759 
" clip-path="url(#p8bf1b6352a)" style="fill: none; stroke: #000000; stroke-linejoin: miter"/>
   </g>
  </g>
  <g id="axes_43">
   <g id="patch_36">
    <path d="M 689.024855 27.009931 
Q 689.099834 27.347338 689.174814 28.265834 
Q 689.249793 29.184331 689.399752 29.634207 
L 689.324772 31.058814 
M 687.675228 27.309848 
Q 687.637738 27.309848 687.600248 27.534786 
Q 687.637738 27.684745 687.750207 28.828179 
Q 687.862676 29.971614 688.125103 30.533959 
" clip-path="url(#peb7f765676)" style="fill: none; stroke: #000000; stroke-linejoin: miter"/>
   </g>
  </g>
 </g>
 <defs>
  <clipPath id="p2735f34ea8">
   <rect x="0" y="16.753442" width="16.2" height="38.133117"/>
  </clipPath>
  <clipPath id="p016a783817">
   <rect x="22.275559" y="8.64" width="4.048883" height="54.36"/>
  </clipPath>
  <clipPath id="pa2f58578d9">
   <rect x="32.4" y="9.603482" width="16.2" height="52.433036"/>
  </clipPath>
  <clipPath id="p79e325a61f">
   <rect x="66.189352" y="8.64" width="13.421297" height="54.36"/>
  </clipPath>
  <clipPath id="p7b3857a32a">
   <rect x="83.738979" y="8.64" width="10.722041" height="54.36"/>
  </clipPath>
  <clipPath id="p97c8718cdb">
   <rect x="102.806938" y="8.64" width="4.986124" height="54.36"/>
  </clipPath>
  <clipPath id="pfa943231a7">
   <rect x="115.164248" y="8.64" width="12.671503" height="54.36"/>
  </clipPath>
  <clipPath id="p6bf7fe24df">
   <rect x="131.382993" y="8.64" width="12.634014" height="54.36"/>
  </clipPath>
  <clipPath id="p096f99d437">
   <rect x="151.406938" y="8.64" width="4.986124" height="54.36"/>
  </clipPath>
  <clipPath id="p9ad509454a">
   <rect x="163.764248" y="8.64" width="12.671503" height="54.36"/>
  </clipPath>
  <clipPath id="pe43bc8e02e">
   <rect x="178.2" y="9.426742" width="16.2" height="52.786517"/>
  </clipPath>
  <clipPath id="pe11c5cfa50">
   <rect x="210.6" y="10.936525" width="16.2" height="49.766949"/>
  </clipPath>
  <clipPath id="p4b457a1f6b">
   <rect x="226.8" y="8.881927" width="16.2" height="53.876147"/>
  </clipPath>
  <clipPath id="p9219947a6d">
   <rect x="259.2" y="9.603482" width="16.2" height="52.433036"/>
  </clipPath>
  <clipPath id="p43fd102c82">
   <rect x="281.006938" y="8.64" width="4.986124" height="54.36"/>
  </clipPath>
  <clipPath id="p01692b148d">
   <rect x="291.6" y="9.426742" width="16.2" height="52.786517"/>
  </clipPath>
  <clipPath id="p4e0939fa47">
   <rect x="310.538979" y="8.64" width="10.722041" height="54.36"/>
  </clipPath>
  <clipPath id="p3685654a36">
   <rect x="325.389352" y="8.64" width="13.421297" height="54.36"/>
  </clipPath>
  <clipPath id="pad190682bb">
   <rect x="356.4" y="10.777356" width="16.2" height="50.085288"/>
  </clipPath>
  <clipPath id="p0deceba4c8">
   <rect x="374.382993" y="8.64" width="12.634014" height="54.36"/>
  </clipPath>
  <clipPath id="p92c1a8d2a2">
   <rect x="405" y="10.936525" width="16.2" height="49.766949"/>
  </clipPath>
  <clipPath id="p8ecf45072c">
   <rect x="421.2" y="8.881927" width="16.2" height="53.876147"/>
  </clipPath>
  <clipPath id="p4f21eef0dd">
   <rect x="443.231876" y="8.64" width="4.536248" height="54.36"/>
  </clipPath>
  <clipPath id="p31089d50dd">
   <rect x="459.431876" y="8.64" width="4.536248" height="54.36"/>
  </clipPath>
  <clipPath id="p5e50e4cf2d">
   <rect x="487.782993" y="8.64" width="12.634014" height="54.36"/>
  </clipPath>
  <clipPath id="p829eb92722">
   <rect x="503.589352" y="8.64" width="13.421297" height="54.36"/>
  </clipPath>
  <clipPath id="p298ffb008c">
   <rect x="518.4" y="10.777356" width="16.2" height="50.085288"/>
  </clipPath>
  <clipPath id="p66dd90f08f">
   <rect x="535.651945" y="8.64" width="14.09611" height="54.36"/>
  </clipPath>
  <clipPath id="pd958d820ba">
   <rect x="567" y="10.777356" width="16.2" height="50.085288"/>
  </clipPath>
  <clipPath id="pf6bca0f5b8">
   <rect x="600.789352" y="8.64" width="13.421297" height="54.36"/>
  </clipPath>
  <clipPath id="pad57af8f02">
   <rect x="621.206938" y="8.64" width="4.986124" height="54.36"/>
  </clipPath>
  <clipPath id="pa8425a981a">
   <rect x="631.8" y="11.850612" width="16.2" height="47.938776"/>
  </clipPath>
  <clipPath id="p7841f90ae0">
   <rect x="649.782993" y="8.64" width="12.634014" height="54.36"/>
  </clipPath>
  <clipPath id="p8bf1b6352a">
   <rect x="670.013131" y="8.64" width="4.573738" height="54.36"/>
  </clipPath>
  <clipPath id="peb7f765676">
   <rect x="685.725766" y="8.64" width="5.548469" height="54.36"/>
  </clipPath>
 </defs>
</svg>
