<?xml version="1.0" encoding="utf-8" standalone="no"?>
<!DOCTYPE svg PUBLIC "-//W3C//DTD SVG 1.1//EN"
  "http://www.w3.org/Graphics/SVG/1.1/DTD/svg11.dtd">
<svg xmlns:xlink="http://www.w3.org/1999/xlink" width="126pt" height="72pt" viewBox="0 0 126 72" xmlns="http://www.w3.org/2000/svg" version="1.1">
 <metadata>
  <rdf:RDF xmlns:dc="http://purl.org/dc/elements/1.1/" xmlns:cc="http://creativecommons.org/ns#" xmlns:rdf="http://www.w3.org/1999/02/22-rdf-syntax-ns#">
   <cc:Work>
    <dc:type rdf:resource="http://purl.org/dc/dcmitype/StillImage"/>
    <dc:date>2023-12-21T11:52:17.562665</dc:date>
    <dc:format>image/svg+xml</dc:format>
    <dc:creator>
     <cc:Agent>
      <dc:title>Matplotlib v3.5.1, https://matplotlib.org/</dc:title>
     </cc:Agent>
    </dc:creator>
   </cc:Work>
  </rdf:RDF>
 </metadata>
 <defs>
  <style type="text/css">*{stroke-linejoin: round; stroke-linecap: butt}</style>
 </defs>
 <g id="figure_1">
  <g id="patch_1">
   <path d="M 0 72 
L 126 72 
L 126 0 
L 0 0 
z
" style="fill: #8fff9f"/>
  </g>
  <g id="axes_1">
   <g id="patch_2">
    <path d="M 1.389365 28.678662 
Q 1.611664 28.511938 2.403602 28.609194 
Q 3.19554 28.706449 3.473413 28.5953 
Q 6.391081 28.5953 8.989194 29.984666 
Q 11.587307 31.374031 13.198971 33.888782 
Q 14.810635 36.403533 14.810635 39.43235 
Q 14.810635 41.377461 13.601887 42.669571 
Q 12.393139 43.961681 10.781475 44.447959 
Q 9.169811 44.934237 7.308062 44.934237 
Q 7.002401 44.906449 5.557461 44.836981 
Q 4.112521 44.767513 3.237221 44.503533 
Q 2.361921 44.239554 1.889537 43.600446 
M 4.64048 28.845386 
L 4.64048 29.01211 
Q 4.64048 30.401475 4.515437 33.513654 
Q 4.390395 36.625832 4.390395 38.098559 
Q 4.390395 38.904391 4.459863 39.821372 
Q 4.529331 40.738353 4.654374 41.822058 
Q 4.779417 42.905763 4.807204 43.433722 
L 4.890566 44.434065 
" clip-path="url(#p74436e30d5)" style="fill: none; stroke: #000000; stroke-linejoin: miter"/>
   </g>
  </g>
  <g id="axes_2">
   <g id="patch_3">
    <path d="M 24.918579 29.071862 
Q 24.543683 29.146841 24.412469 29.577972 
Q 24.281255 30.009103 24.356234 30.42149 
Q 24.356234 30.571448 24.393724 30.702662 
Q 24.431214 30.833876 24.487448 30.89011 
Q 24.543683 30.946345 24.599917 31.040069 
Q 24.656152 31.133793 24.693641 31.208772 
L 24.80611 29.859145 
M 24.80611 34.020497 
Q 23.906359 39.006621 23.681421 42.793076 
L 24.131297 45.379862 
L 24.468703 46.054676 
" clip-path="url(#pc479683778)" style="fill: none; stroke: #000000; stroke-linejoin: miter"/>
   </g>
  </g>
  <g id="axes_3">
   <g id="patch_4">
    <path d="M 36.038731 37.282097 
L 36.038731 37.844441 
Q 36.301159 39.868883 36.338648 41.312234 
Q 36.376138 42.755586 36.282414 44.667559 
Q 36.18869 46.579531 36.18869 48.191586 
L 36.263669 39.643945 
Q 36.263669 38.144359 37.856979 37.507034 
Q 39.45029 36.86971 40.874897 37.282097 
Q 42.786869 37.844441 43.705366 39.04411 
Q 44.623862 40.243779 44.680097 41.668386 
Q 44.736331 43.092993 44.773821 44.817517 
Q 44.81131 46.542041 44.961269 48.191586 
" clip-path="url(#p57a64a4b51)" style="fill: none; stroke: #000000; stroke-linejoin: miter"/>
   </g>
  </g>
  <g id="axes_4">
   <g id="patch_5">
    <path d="M 50.457798 38.160826 
Q 53.430275 39.535596 58.149083 39.721376 
Q 59.672477 39.721376 60.359862 38.550963 
Q 61.047248 37.38055 61.047248 35.82 
Q 61.047248 35.299817 60.954358 34.909679 
Q 60.861468 34.519541 60.619954 34.296606 
Q 60.37844 34.07367 60.211239 33.943624 
Q 60.044037 33.813578 59.598165 33.757844 
Q 59.152294 33.70211 58.947936 33.683532 
Q 58.743578 33.664954 58.167661 33.683532 
Q 57.591743 33.70211 57.368807 33.70211 
Q 55.325229 33.70211 53.838991 35.578486 
Q 52.352752 37.454862 52.352752 39.609908 
Q 52.352752 42.619541 54.284862 44.570229 
Q 56.216972 46.520917 59.263761 46.520917 
Q 61.418807 46.818165 62.942202 44.29156 
" clip-path="url(#p7750edf36c)" style="fill: none; stroke: #000000; stroke-linejoin: miter"/>
   </g>
  </g>
  <g id="axes_5">
   <g id="patch_6">
    <path d="M 69.413462 32.783338 
Q 69.938317 34.507862 70.069531 36.457324 
Q 70.200745 38.406786 70.125766 40.956083 
Q 70.050786 43.505379 70.088276 44.705048 
L 70.200745 46.054676 
L 70.200745 45.829738 
Q 70.200745 44.667559 69.919572 42.30571 
Q 69.6384 39.943862 69.6384 38.744193 
Q 69.6384 36.419834 70.650621 34.882759 
Q 71.662841 33.345683 73.687283 33.345683 
Q 74.399586 33.345683 74.736993 33.626855 
Q 75.0744 33.908028 75.336828 34.432883 
Q 75.599255 34.957738 75.936662 35.257655 
L 76.386538 36.832221 
" clip-path="url(#p78e5ef8fbe)" style="fill: none; stroke: #000000; stroke-linejoin: miter"/>
   </g>
  </g>
  <g id="axes_6">
   <g id="patch_7">
    <path d="M 88.987531 45.979697 
Q 88.950041 46.017186 88.818828 46.054676 
Q 88.687614 46.092166 88.725103 46.167145 
Q 88.725103 46.579531 89.1 46.579531 
Q 89.437407 46.579531 89.437407 46.092166 
Q 89.512386 45.867228 89.231214 45.754759 
Q 88.950041 45.64229 88.762593 45.754759 
" clip-path="url(#p7894ebfc3e)" style="fill: none; stroke: #000000; stroke-linejoin: miter"/>
   </g>
  </g>
  <g id="axes_7">
   <g id="patch_8">
    <path d="M 105.824855 27.009931 
Q 105.899834 27.347338 105.974814 28.265834 
Q 106.049793 29.184331 106.199752 29.634207 
L 106.124772 31.058814 
M 104.475228 27.309848 
Q 104.437738 27.309848 104.400248 27.534786 
Q 104.437738 27.684745 104.550207 28.828179 
Q 104.662676 29.971614 104.925103 30.533959 
" clip-path="url(#pdfbfa2084e)" style="fill: none; stroke: #000000; stroke-linejoin: miter"/>
   </g>
  </g>
 </g>
 <defs>
  <clipPath id="p74436e30d5">
   <rect x="0" y="15.674202" width="16.2" height="40.291595"/>
  </clipPath>
  <clipPath id="pc479683778">
   <rect x="21.806938" y="8.64" width="4.986124" height="54.36"/>
  </clipPath>
  <clipPath id="p57a64a4b51">
   <rect x="34.164248" y="8.64" width="12.671503" height="54.36"/>
  </clipPath>
  <clipPath id="p7750edf36c">
   <rect x="48.6" y="8.881927" width="16.2" height="53.876147"/>
  </clipPath>
  <clipPath id="p78e5ef8fbe">
   <rect x="67.538979" y="8.64" width="10.722041" height="54.36"/>
  </clipPath>
  <clipPath id="p7894ebfc3e">
   <rect x="86.813131" y="8.64" width="4.573738" height="54.36"/>
  </clipPath>
  <clipPath id="pdfbfa2084e">
   <rect x="102.525766" y="8.64" width="5.548469" height="54.36"/>
  </clipPath>
 </defs>
</svg>
