<?xml version="1.0" encoding="utf-8" standalone="no"?>
<!DOCTYPE svg PUBLIC "-//W3C//DTD SVG 1.1//EN"
  "http://www.w3.org/Graphics/SVG/1.1/DTD/svg11.dtd">
<svg xmlns:xlink="http://www.w3.org/1999/xlink" width="954pt" height="72pt" viewBox="0 0 954 72" xmlns="http://www.w3.org/2000/svg" version="1.1">
 <metadata>
  <rdf:RDF xmlns:dc="http://purl.org/dc/elements/1.1/" xmlns:cc="http://creativecommons.org/ns#" xmlns:rdf="http://www.w3.org/1999/02/22-rdf-syntax-ns#">
   <cc:Work>
    <dc:type rdf:resource="http://purl.org/dc/dcmitype/StillImage"/>
    <dc:date>2023-12-21T11:51:06.759837</dc:date>
    <dc:format>image/svg+xml</dc:format>
    <dc:creator>
     <cc:Agent>
      <dc:title>Matplotlib v3.5.1, https://matplotlib.org/</dc:title>
     </cc:Agent>
    </dc:creator>
   </cc:Work>
  </rdf:RDF>
 </metadata>
 <defs>
  <style type="text/css">*{stroke-linejoin: round; stroke-linecap: butt}</style>
 </defs>
 <g id="figure_1">
  <g id="patch_1">
   <path d="M 0 72 
L 954 72 
L 954 0 
L 0 0 
z
" style="fill: #8fff9f"/>
  </g>
  <g id="axes_1">
   <g id="patch_2">
    <path d="M 3.263834 37.95691 
L 3.938648 37.95691 
Q 4.650952 37.95691 5.438234 37.881931 
Q 6.225517 37.806952 7.181503 37.675738 
Q 8.13749 37.544524 8.662345 37.507034 
L 12.936166 35.82 
M 8.887283 30.42149 
L 8.887283 31.43371 
Q 8.887283 33.383172 8.212469 37.207117 
Q 7.537655 41.031062 7.537655 43.018014 
Q 7.537655 43.805297 7.537655 44.105214 
Q 7.537655 44.405131 7.631379 45.042455 
Q 7.725103 45.679779 7.912552 45.960952 
Q 8.1 46.242124 8.493641 46.485807 
Q 8.887283 46.72949 9.449628 46.72949 
Q 9.562097 46.692 9.880759 46.72949 
Q 10.199421 46.766979 10.386869 46.710745 
Q 10.574317 46.65451 10.574317 46.392083 
" clip-path="url(#pd3605c8c48)" style="fill: none; stroke: #000000; stroke-linejoin: miter"/>
   </g>
  </g>
  <g id="axes_2">
   <g id="patch_3">
    <path d="M 20.813462 35.932469 
Q 21.413297 35.257655 22.406772 34.826524 
Q 23.400248 34.395393 24.3 34.470372 
Q 24.937324 34.470372 25.42469 34.639076 
Q 25.912055 34.807779 26.230717 34.995228 
Q 26.549379 35.182676 26.774317 35.670041 
Q 26.999255 36.157407 27.111724 36.419834 
Q 27.224193 36.682262 27.280428 37.375821 
Q 27.336662 38.069379 27.355407 38.331807 
Q 27.374152 38.594234 27.355407 39.419007 
Q 27.336662 40.243779 27.336662 40.431228 
Q 27.336662 41.368469 27.167959 43.242952 
Q 26.999255 45.117434 26.999255 46.054676 
Q 26.999255 46.467062 27.05549 46.823214 
Q 27.111724 47.179366 27.205448 47.610497 
Q 27.299172 48.041628 27.336662 48.304055 
L 27.786538 48.528993 
M 21.263338 23.111007 
Q 21.488276 24.798041 21.488276 29.971614 
L 21.488276 42.3432 
L 21.150869 46.841959 
L 20.925931 47.74171 
" clip-path="url(#p401fbbcb7a)" style="fill: none; stroke: #000000; stroke-linejoin: miter"/>
   </g>
  </g>
  <g id="axes_3">
   <g id="patch_4">
    <path d="M 41.118579 29.071862 
Q 40.743683 29.146841 40.612469 29.577972 
Q 40.481255 30.009103 40.556234 30.42149 
Q 40.556234 30.571448 40.593724 30.702662 
Q 40.631214 30.833876 40.687448 30.89011 
Q 40.743683 30.946345 40.799917 31.040069 
Q 40.856152 31.133793 40.893641 31.208772 
L 41.00611 29.859145 
M 41.00611 34.020497 
Q 40.106359 39.006621 39.881421 42.793076 
L 40.331297 45.379862 
L 40.668703 46.054676 
" clip-path="url(#p4d3b10ccc3)" style="fill: none; stroke: #000000; stroke-linejoin: miter"/>
   </g>
  </g>
  <g id="axes_4">
   <g id="patch_5">
    <path d="M 52.257476 43.917766 
Q 52.557393 44.180193 53.569614 45.154924 
Q 54.581834 46.129655 55.144179 46.560786 
Q 55.706524 46.991917 56.73749 47.385559 
Q 57.768455 47.7792 58.780676 47.629241 
Q 59.45549 47.629241 59.92411 47.404303 
Q 60.392731 47.179366 60.617669 46.879448 
Q 60.842607 46.579531 60.973821 45.979697 
Q 61.105034 45.379862 61.123779 44.967476 
Q 61.142524 44.55509 61.142524 43.805297 
Q 61.142524 42.718097 60.242772 42.043283 
Q 59.343021 41.368469 58.049628 41.031062 
Q 56.756234 40.693655 55.462841 40.300014 
Q 54.169448 39.906372 53.269697 38.987876 
Q 52.369945 38.069379 52.369945 36.607283 
Q 52.369945 36.082428 52.538648 35.726276 
Q 52.707352 35.370124 53.100993 35.145186 
Q 53.494634 34.920248 53.775807 34.807779 
Q 54.056979 34.69531 54.713048 34.639076 
Q 55.369117 34.582841 55.556566 34.582841 
Q 55.744014 34.582841 56.418828 34.582841 
Q 57.618497 34.582841 58.199586 34.995228 
Q 58.780676 35.407614 59.099338 36.026193 
Q 59.418 36.644772 59.680428 36.832221 
" clip-path="url(#pef975dfcbc)" style="fill: none; stroke: #000000; stroke-linejoin: miter"/>
   </g>
  </g>
  <g id="axes_5"/>
  <g id="axes_6">
   <g id="patch_6">
    <path d="M 89.718579 29.071862 
Q 89.343683 29.146841 89.212469 29.577972 
Q 89.081255 30.009103 89.156234 30.42149 
Q 89.156234 30.571448 89.193724 30.702662 
Q 89.231214 30.833876 89.287448 30.89011 
Q 89.343683 30.946345 89.399917 31.040069 
Q 89.456152 31.133793 89.493641 31.208772 
L 89.60611 29.859145 
M 89.60611 34.020497 
Q 88.706359 39.006621 88.481421 42.793076 
L 88.931297 45.379862 
L 89.268703 46.054676 
" clip-path="url(#p70e1b43926)" style="fill: none; stroke: #000000; stroke-linejoin: miter"/>
   </g>
  </g>
  <g id="axes_7">
   <g id="patch_7">
    <path d="M 100.857476 43.917766 
Q 101.157393 44.180193 102.169614 45.154924 
Q 103.181834 46.129655 103.744179 46.560786 
Q 104.306524 46.991917 105.33749 47.385559 
Q 106.368455 47.7792 107.380676 47.629241 
Q 108.05549 47.629241 108.52411 47.404303 
Q 108.992731 47.179366 109.217669 46.879448 
Q 109.442607 46.579531 109.573821 45.979697 
Q 109.705034 45.379862 109.723779 44.967476 
Q 109.742524 44.55509 109.742524 43.805297 
Q 109.742524 42.718097 108.842772 42.043283 
Q 107.943021 41.368469 106.649628 41.031062 
Q 105.356234 40.693655 104.062841 40.300014 
Q 102.769448 39.906372 101.869697 38.987876 
Q 100.969945 38.069379 100.969945 36.607283 
Q 100.969945 36.082428 101.138648 35.726276 
Q 101.307352 35.370124 101.700993 35.145186 
Q 102.094634 34.920248 102.375807 34.807779 
Q 102.656979 34.69531 103.313048 34.639076 
Q 103.969117 34.582841 104.156566 34.582841 
Q 104.344014 34.582841 105.018828 34.582841 
Q 106.218497 34.582841 106.799586 34.995228 
Q 107.380676 35.407614 107.699338 36.026193 
Q 108.018 36.644772 108.280428 36.832221 
" clip-path="url(#p9f412a01a7)" style="fill: none; stroke: #000000; stroke-linejoin: miter"/>
   </g>
  </g>
  <g id="axes_8"/>
  <g id="axes_9">
   <g id="patch_8">
    <path d="M 131.648638 35.788482 
L 131.837743 35.788482 
Q 132.720233 35.788482 134.485214 35.69393 
Q 136.250195 35.599377 137.132685 35.599377 
Q 138.677043 35.599377 139.874708 35.835759 
Q 141.072374 36.07214 142.096693 36.655214 
Q 143.121012 37.238288 143.672568 38.35716 
Q 144.224125 39.476031 144.224125 41.083424 
Q 144.224125 46.567471 134.107004 46.567471 
Q 134.075486 46.567471 132.215953 46.283813 
L 131.648638 46.000156 
M 131.648638 27.562412 
Q 133.287549 26.679922 135.241634 26.71144 
Q 137.510895 26.71144 139.543774 28.035175 
Q 141.576654 29.358911 141.576654 31.533619 
Q 141.576654 32.825837 141.025097 33.582257 
Q 140.473541 34.338677 139.748638 34.527782 
Q 139.023735 34.716887 138.030934 35.06358 
Q 137.038132 35.410272 136.470817 35.883035 
L 131.648638 35.788482 
M 131.175875 27.656965 
Q 131.396498 28.949183 131.333463 32.494903 
Q 131.270428 36.040623 131.837743 37.301323 
Q 131.837743 38.309883 131.790467 40.358521 
Q 131.743191 42.40716 131.743191 43.447237 
L 131.743191 45.243735 
L 131.554086 46.000156 
" clip-path="url(#p2b70b271a6)" style="fill: none; stroke: #000000; stroke-linejoin: miter"/>
   </g>
  </g>
  <g id="axes_10">
   <g id="patch_9">
    <path d="M 149.288772 35.145186 
Q 149.288772 35.145186 149.288772 35.595062 
Q 149.288772 36.269876 149.176303 37.619503 
Q 149.063834 38.969131 149.063834 39.643945 
Q 149.063834 41.930814 150.300993 43.599103 
Q 151.538152 45.267393 153.675062 45.267393 
Q 155.062179 45.154924 155.830717 43.917766 
Q 156.599255 42.680607 156.749214 41.237255 
Q 156.899172 39.793903 157.1616 37.9944 
Q 157.424028 36.194897 157.836414 35.370124 
Q 157.986372 35.070207 157.986372 35.670041 
Q 157.986372 36.269876 157.723945 38.706703 
Q 157.499007 41.031062 157.499007 41.555917 
Q 157.349048 42.643117 157.686455 43.767807 
Q 158.023862 44.892497 158.736166 45.6048 
" clip-path="url(#pdf818ced23)" style="fill: none; stroke: #000000; stroke-linejoin: miter"/>
   </g>
  </g>
  <g id="axes_11">
   <g id="patch_10">
    <path d="M 166.613462 32.783338 
Q 167.138317 34.507862 167.269531 36.457324 
Q 167.400745 38.406786 167.325766 40.956083 
Q 167.250786 43.505379 167.288276 44.705048 
L 167.400745 46.054676 
L 167.400745 45.829738 
Q 167.400745 44.667559 167.119572 42.30571 
Q 166.8384 39.943862 166.8384 38.744193 
Q 166.8384 36.419834 167.850621 34.882759 
Q 168.862841 33.345683 170.887283 33.345683 
Q 171.599586 33.345683 171.936993 33.626855 
Q 172.2744 33.908028 172.536828 34.432883 
Q 172.799255 34.957738 173.136662 35.257655 
L 173.586538 36.832221 
" clip-path="url(#p1290956499)" style="fill: none; stroke: #000000; stroke-linejoin: miter"/>
   </g>
  </g>
  <g id="axes_12">
   <g id="patch_11">
    <path d="M 181.463834 37.95691 
L 182.138648 37.95691 
Q 182.850952 37.95691 183.638234 37.881931 
Q 184.425517 37.806952 185.381503 37.675738 
Q 186.33749 37.544524 186.862345 37.507034 
L 191.136166 35.82 
M 187.087283 30.42149 
L 187.087283 31.43371 
Q 187.087283 33.383172 186.412469 37.207117 
Q 185.737655 41.031062 185.737655 43.018014 
Q 185.737655 43.805297 185.737655 44.105214 
Q 185.737655 44.405131 185.831379 45.042455 
Q 185.925103 45.679779 186.112552 45.960952 
Q 186.3 46.242124 186.693641 46.485807 
Q 187.087283 46.72949 187.649628 46.72949 
Q 187.762097 46.692 188.080759 46.72949 
Q 188.399421 46.766979 188.586869 46.710745 
Q 188.774317 46.65451 188.774317 46.392083 
" clip-path="url(#pce684e4483)" style="fill: none; stroke: #000000; stroke-linejoin: miter"/>
   </g>
  </g>
  <g id="axes_13">
   <g id="patch_12">
    <path d="M 201.787697 39.981352 
Q 202.799917 40.956083 203.137324 42.905545 
Q 203.324772 43.955255 202.912386 46.167145 
L 201.675228 47.629241 
" clip-path="url(#pe249cde46e)" style="fill: none; stroke: #000000; stroke-linejoin: miter"/>
   </g>
  </g>
  <g id="axes_14"/>
  <g id="axes_15">
   <g id="patch_13">
    <path d="M 228.516102 36.437797 
L 229.751695 44.778051 
Q 229.854661 45.567458 229.854661 45.60178 
Q 229.854661 45.704746 230.163559 45.704746 
Q 231.02161 45.704746 231.742373 44.778051 
Q 232.463136 43.851356 232.875 42.718729 
Q 233.286864 41.586102 233.801695 40.659407 
Q 234.316525 39.732712 234.797034 39.732712 
Q 235.414831 39.732712 236.049788 40.607924 
Q 236.684746 41.483136 237.148093 42.512797 
Q 237.611441 43.542458 238.28072 44.417669 
Q 238.95 45.292881 239.636441 45.292881 
Q 239.911017 43.782712 240.340042 39.69839 
Q 240.769068 35.614068 241.283898 33.554746 
" clip-path="url(#pcef1a07d37)" style="fill: none; stroke: #000000; stroke-linejoin: miter"/>
   </g>
  </g>
  <g id="axes_16">
   <g id="patch_14">
    <path d="M 244.857798 38.160826 
Q 247.830275 39.535596 252.549083 39.721376 
Q 254.072477 39.721376 254.759862 38.550963 
Q 255.447248 37.38055 255.447248 35.82 
Q 255.447248 35.299817 255.354358 34.909679 
Q 255.261468 34.519541 255.019954 34.296606 
Q 254.77844 34.07367 254.611239 33.943624 
Q 254.444037 33.813578 253.998165 33.757844 
Q 253.552294 33.70211 253.347936 33.683532 
Q 253.143578 33.664954 252.567661 33.683532 
Q 251.991743 33.70211 251.768807 33.70211 
Q 249.725229 33.70211 248.238991 35.578486 
Q 246.752752 37.454862 246.752752 39.609908 
Q 246.752752 42.619541 248.684862 44.570229 
Q 250.616972 46.520917 253.663761 46.520917 
Q 255.818807 46.818165 257.342202 44.29156 
" clip-path="url(#pfed6f7cabb)" style="fill: none; stroke: #000000; stroke-linejoin: miter"/>
   </g>
  </g>
  <g id="axes_17"/>
  <g id="axes_18">
   <g id="patch_15">
    <path d="M 283.856152 30.309021 
Q 283.368786 30.42149 283.781172 30.833876 
Q 284.156069 31.208772 284.231048 30.946345 
Q 284.268538 30.871366 284.193559 30.646428 
Q 284.193559 30.458979 284.118579 30.42149 
Q 284.0436 30.384 283.912386 30.42149 
Q 283.781172 30.458979 283.631214 30.42149 
L 283.518745 30.646428 
M 284.418497 33.345683 
Q 285.468207 37.731972 285.993062 40.13131 
Q 286.517917 42.530648 286.967793 46.317103 
Q 287.417669 50.103559 287.230221 53.25269 
Q 287.230221 53.440138 287.230221 54.021228 
Q 287.230221 54.602317 287.230221 54.902234 
Q 287.230221 55.202152 287.211476 55.783241 
Q 287.192731 56.364331 287.117752 56.701738 
Q 287.042772 57.039145 286.930303 57.52651 
Q 286.817834 58.013876 286.611641 58.313793 
Q 286.405448 58.61371 286.143021 58.894883 
Q 285.880593 59.176055 285.505697 59.307269 
Q 285.1308 59.438483 284.643434 59.438483 
Q 283.668703 59.438483 282.91891 59.251034 
Q 282.169117 59.063586 281.306855 58.707434 
Q 280.444593 58.351283 279.807269 58.201324 
L 279.582331 57.751448 
" clip-path="url(#p62e62eb7e2)" style="fill: none; stroke: #000000; stroke-linejoin: miter"/>
   </g>
  </g>
  <g id="axes_19">
   <g id="patch_16">
    <path d="M 295.088772 35.145186 
Q 295.088772 35.145186 295.088772 35.595062 
Q 295.088772 36.269876 294.976303 37.619503 
Q 294.863834 38.969131 294.863834 39.643945 
Q 294.863834 41.930814 296.100993 43.599103 
Q 297.338152 45.267393 299.475062 45.267393 
Q 300.862179 45.154924 301.630717 43.917766 
Q 302.399255 42.680607 302.549214 41.237255 
Q 302.699172 39.793903 302.9616 37.9944 
Q 303.224028 36.194897 303.636414 35.370124 
Q 303.786372 35.070207 303.786372 35.670041 
Q 303.786372 36.269876 303.523945 38.706703 
Q 303.299007 41.031062 303.299007 41.555917 
Q 303.149048 42.643117 303.486455 43.767807 
Q 303.823862 44.892497 304.536166 45.6048 
" clip-path="url(#p1813967709)" style="fill: none; stroke: #000000; stroke-linejoin: miter"/>
   </g>
  </g>
  <g id="axes_20">
   <g id="patch_17">
    <path d="M 311.457476 43.917766 
Q 311.757393 44.180193 312.769614 45.154924 
Q 313.781834 46.129655 314.344179 46.560786 
Q 314.906524 46.991917 315.93749 47.385559 
Q 316.968455 47.7792 317.980676 47.629241 
Q 318.65549 47.629241 319.12411 47.404303 
Q 319.592731 47.179366 319.817669 46.879448 
Q 320.042607 46.579531 320.173821 45.979697 
Q 320.305034 45.379862 320.323779 44.967476 
Q 320.342524 44.55509 320.342524 43.805297 
Q 320.342524 42.718097 319.442772 42.043283 
Q 318.543021 41.368469 317.249628 41.031062 
Q 315.956234 40.693655 314.662841 40.300014 
Q 313.369448 39.906372 312.469697 38.987876 
Q 311.569945 38.069379 311.569945 36.607283 
Q 311.569945 36.082428 311.738648 35.726276 
Q 311.907352 35.370124 312.300993 35.145186 
Q 312.694634 34.920248 312.975807 34.807779 
Q 313.256979 34.69531 313.913048 34.639076 
Q 314.569117 34.582841 314.756566 34.582841 
Q 314.944014 34.582841 315.618828 34.582841 
Q 316.818497 34.582841 317.399586 34.995228 
Q 317.980676 35.407614 318.299338 36.026193 
Q 318.618 36.644772 318.880428 36.832221 
" clip-path="url(#pac7413235a)" style="fill: none; stroke: #000000; stroke-linejoin: miter"/>
   </g>
  </g>
  <g id="axes_21">
   <g id="patch_18">
    <path d="M 327.263834 37.95691 
L 327.938648 37.95691 
Q 328.650952 37.95691 329.438234 37.881931 
Q 330.225517 37.806952 331.181503 37.675738 
Q 332.13749 37.544524 332.662345 37.507034 
L 336.936166 35.82 
M 332.887283 30.42149 
L 332.887283 31.43371 
Q 332.887283 33.383172 332.212469 37.207117 
Q 331.537655 41.031062 331.537655 43.018014 
Q 331.537655 43.805297 331.537655 44.105214 
Q 331.537655 44.405131 331.631379 45.042455 
Q 331.725103 45.679779 331.912552 45.960952 
Q 332.1 46.242124 332.493641 46.485807 
Q 332.887283 46.72949 333.449628 46.72949 
Q 333.562097 46.692 333.880759 46.72949 
Q 334.199421 46.766979 334.386869 46.710745 
Q 334.574317 46.65451 334.574317 46.392083 
" clip-path="url(#p9cecb6ee64)" style="fill: none; stroke: #000000; stroke-linejoin: miter"/>
   </g>
  </g>
  <g id="axes_22"/>
  <g id="axes_23">
   <g id="patch_19">
    <path d="M 369.287191 39.096404 
Q 369.03236 39.023596 368.06764 38.623146 
Q 367.102921 38.222697 366.44764 38.077079 
Q 365.79236 37.931461 365.137079 38.00427 
Q 362.515955 38.00427 360.877753 40.388764 
Q 359.239551 42.773258 359.239551 45.430787 
Q 359.239551 47.068989 364.481798 47.068989 
Q 366.047191 47.068989 367.375955 45.558202 
Q 368.704719 44.047416 369.378202 42.172584 
Q 370.051685 40.297753 370.051685 38.768764 
Q 370.051685 37.27618 370.015281 36.984944 
L 369.942472 38.077079 
Q 369.942472 38.550337 369.942472 38.987191 
Q 369.978876 40.188539 370.179101 42.281798 
Q 370.379326 44.375056 370.543146 46.049663 
Q 370.706966 47.72427 370.743371 49.872135 
Q 370.779775 52.02 370.615955 53.658202 
Q 370.452135 55.296404 369.887865 56.971011 
Q 369.323596 58.645618 368.395281 59.737753 
Q 367.466966 60.829888 365.865169 61.521573 
Q 364.263371 62.213258 362.115506 62.213258 
Q 360.477303 62.213258 359.385169 61.466966 
Q 358.293034 60.720674 358.293034 59.155281 
Q 358.220225 58.936854 358.256629 58.936854 
Q 358.293034 58.936854 358.402247 58.936854 
Q 358.511461 58.936854 358.511461 58.82764 
" clip-path="url(#p7c24ab7606)" style="fill: none; stroke: #000000; stroke-linejoin: miter"/>
   </g>
  </g>
  <g id="axes_24">
   <g id="patch_20">
    <path d="M 383.9616 35.032717 
Q 382.91189 34.582841 381.937159 34.69531 
Q 378.900497 35.032717 376.988524 36.701007 
Q 375.076552 38.369297 375.076552 41.330979 
Q 375.076552 43.917766 377.082248 45.6048 
Q 379.087945 47.291834 381.712221 47.291834 
Q 384.074069 47.291834 385.198759 45.361117 
Q 386.323448 43.4304 386.323448 40.881103 
Q 386.323448 39.643945 385.911062 38.706703 
Q 385.498676 37.769462 384.973821 37.300841 
Q 384.448966 36.832221 383.699172 36.119917 
Q 382.949379 35.407614 382.499503 34.69531 
L 381.262345 34.245434 
" clip-path="url(#p2fc461a969)" style="fill: none; stroke: #000000; stroke-linejoin: miter"/>
   </g>
  </g>
  <g id="axes_25">
   <g id="patch_21">
    <path d="M 392.063834 37.95691 
L 392.738648 37.95691 
Q 393.450952 37.95691 394.238234 37.881931 
Q 395.025517 37.806952 395.981503 37.675738 
Q 396.93749 37.544524 397.462345 37.507034 
L 401.736166 35.82 
M 397.687283 30.42149 
L 397.687283 31.43371 
Q 397.687283 33.383172 397.012469 37.207117 
Q 396.337655 41.031062 396.337655 43.018014 
Q 396.337655 43.805297 396.337655 44.105214 
Q 396.337655 44.405131 396.431379 45.042455 
Q 396.525103 45.679779 396.712552 45.960952 
Q 396.9 46.242124 397.293641 46.485807 
Q 397.687283 46.72949 398.249628 46.72949 
Q 398.362097 46.692 398.680759 46.72949 
Q 398.999421 46.766979 399.186869 46.710745 
Q 399.374317 46.65451 399.374317 46.392083 
" clip-path="url(#p34d4f732c0)" style="fill: none; stroke: #000000; stroke-linejoin: miter"/>
   </g>
  </g>
  <g id="axes_26"/>
  <g id="axes_27">
   <g id="patch_22">
    <path d="M 429.918579 29.071862 
Q 429.543683 29.146841 429.412469 29.577972 
Q 429.281255 30.009103 429.356234 30.42149 
Q 429.356234 30.571448 429.393724 30.702662 
Q 429.431214 30.833876 429.487448 30.89011 
Q 429.543683 30.946345 429.599917 31.040069 
Q 429.656152 31.133793 429.693641 31.208772 
L 429.80611 29.859145 
M 429.80611 34.020497 
Q 428.906359 39.006621 428.681421 42.793076 
L 429.131297 45.379862 
L 429.468703 46.054676 
" clip-path="url(#pdeb0071a72)" style="fill: none; stroke: #000000; stroke-linejoin: miter"/>
   </g>
  </g>
  <g id="axes_28">
   <g id="patch_23">
    <path d="M 441.038731 37.282097 
L 441.038731 37.844441 
Q 441.301159 39.868883 441.338648 41.312234 
Q 441.376138 42.755586 441.282414 44.667559 
Q 441.18869 46.579531 441.18869 48.191586 
L 441.263669 39.643945 
Q 441.263669 38.144359 442.856979 37.507034 
Q 444.45029 36.86971 445.874897 37.282097 
Q 447.786869 37.844441 448.705366 39.04411 
Q 449.623862 40.243779 449.680097 41.668386 
Q 449.736331 43.092993 449.773821 44.817517 
Q 449.81131 46.542041 449.961269 48.191586 
" clip-path="url(#pe3805c1aee)" style="fill: none; stroke: #000000; stroke-linejoin: miter"/>
   </g>
  </g>
  <g id="axes_29">
   <g id="patch_24">
    <path d="M 461.11891 38.669214 
Q 461.11891 38.631724 461.006441 38.612979 
Q 460.893972 38.594234 460.893972 38.519255 
Q 460.893972 38.144359 461.606276 38.144359 
Q 462.506028 38.144359 462.506028 40.056331 
Q 462.506028 40.093821 462.28109 41.256 
L 461.493807 43.242952 
M 461.456317 33.795559 
Q 461.306359 33.795559 461.306359 34.057986 
Q 461.306359 34.320414 461.531297 34.320414 
Q 461.831214 34.320414 461.868703 34.020497 
Q 461.868703 33.945517 461.868703 33.908028 
Q 461.906193 33.6456 461.868703 33.570621 
Q 461.831214 33.495641 461.568786 33.308193 
" clip-path="url(#pf7ceec65d4)" style="fill: none; stroke: #000000; stroke-linejoin: miter"/>
   </g>
  </g>
  <g id="axes_30"/>
  <g id="axes_31">
   <g id="patch_25">
    <path d="M 499.643923 36.441748 
Q 498.434968 35.094627 494.462687 35.094627 
Q 492.942857 35.094627 492.165672 35.146439 
Q 491.388486 35.198252 490.38678 35.440043 
Q 489.385075 35.681834 488.901493 36.182687 
Q 488.41791 36.683539 488.072495 37.616162 
Q 487.727079 38.548785 487.727079 39.964989 
Q 487.727079 42.037484 489.143284 43.280981 
Q 490.559488 44.524478 492.493817 44.524478 
Q 495.153518 44.524478 497.916844 38.721493 
Q 499.263966 35.854542 499.263966 35.82 
Q 499.609382 35.578209 499.643923 36.441748 
Q 499.643923 37.512537 500.058422 40.362217 
Q 500.472921 43.211898 500.472921 44.524478 
" clip-path="url(#p750b2c1a2b)" style="fill: none; stroke: #000000; stroke-linejoin: miter"/>
   </g>
  </g>
  <g id="axes_32">
   <g id="patch_26">
    <path d="M 505.838731 37.282097 
L 505.838731 37.844441 
Q 506.101159 39.868883 506.138648 41.312234 
Q 506.176138 42.755586 506.082414 44.667559 
Q 505.98869 46.579531 505.98869 48.191586 
L 506.063669 39.643945 
Q 506.063669 38.144359 507.656979 37.507034 
Q 509.25029 36.86971 510.674897 37.282097 
Q 512.586869 37.844441 513.505366 39.04411 
Q 514.423862 40.243779 514.480097 41.668386 
Q 514.536331 43.092993 514.573821 44.817517 
Q 514.61131 46.542041 514.761269 48.191586 
" clip-path="url(#p1ee61c5787)" style="fill: none; stroke: #000000; stroke-linejoin: miter"/>
   </g>
  </g>
  <g id="axes_33">
   <g id="patch_27">
    <path d="M 530.099007 39.568966 
Q 528.749379 38.181848 526.5 38.444276 
Q 523.650786 38.444276 522.488607 39.793903 
Q 521.326428 41.143531 521.326428 44.067724 
Q 521.326428 45.56731 522.619821 46.279614 
Q 523.913214 46.991917 525.487779 46.991917 
Q 526.799917 46.991917 527.812138 45.736014 
Q 528.824359 44.48011 529.405448 42.30571 
Q 529.986538 40.13131 530.361434 37.938166 
Q 530.736331 35.745021 530.88629 33.045766 
Q 531.036248 30.34651 531.073738 28.978138 
Q 531.111228 27.609766 531.111228 26.185159 
Q 530.88629 26.260138 530.88629 29.896634 
L 530.88629 44.292662 
L 531.673572 48.229076 
" clip-path="url(#p6174621f59)" style="fill: none; stroke: #000000; stroke-linejoin: miter"/>
   </g>
  </g>
  <g id="axes_34"/>
  <g id="axes_35">
   <g id="patch_28">
    <path d="M 554.457476 43.917766 
Q 554.757393 44.180193 555.769614 45.154924 
Q 556.781834 46.129655 557.344179 46.560786 
Q 557.906524 46.991917 558.93749 47.385559 
Q 559.968455 47.7792 560.980676 47.629241 
Q 561.65549 47.629241 562.12411 47.404303 
Q 562.592731 47.179366 562.817669 46.879448 
Q 563.042607 46.579531 563.173821 45.979697 
Q 563.305034 45.379862 563.323779 44.967476 
Q 563.342524 44.55509 563.342524 43.805297 
Q 563.342524 42.718097 562.442772 42.043283 
Q 561.543021 41.368469 560.249628 41.031062 
Q 558.956234 40.693655 557.662841 40.300014 
Q 556.369448 39.906372 555.469697 38.987876 
Q 554.569945 38.069379 554.569945 36.607283 
Q 554.569945 36.082428 554.738648 35.726276 
Q 554.907352 35.370124 555.300993 35.145186 
Q 555.694634 34.920248 555.975807 34.807779 
Q 556.256979 34.69531 556.913048 34.639076 
Q 557.569117 34.582841 557.756566 34.582841 
Q 557.944014 34.582841 558.618828 34.582841 
Q 559.818497 34.582841 560.399586 34.995228 
Q 560.980676 35.407614 561.299338 36.026193 
Q 561.618 36.644772 561.880428 36.832221 
" clip-path="url(#p85a9c5fdc0)" style="fill: none; stroke: #000000; stroke-linejoin: miter"/>
   </g>
  </g>
  <g id="axes_36">
   <g id="patch_29">
    <path d="M 568.857798 38.160826 
Q 571.830275 39.535596 576.549083 39.721376 
Q 578.072477 39.721376 578.759862 38.550963 
Q 579.447248 37.38055 579.447248 35.82 
Q 579.447248 35.299817 579.354358 34.909679 
Q 579.261468 34.519541 579.019954 34.296606 
Q 578.77844 34.07367 578.611239 33.943624 
Q 578.444037 33.813578 577.998165 33.757844 
Q 577.552294 33.70211 577.347936 33.683532 
Q 577.143578 33.664954 576.567661 33.683532 
Q 575.991743 33.70211 575.768807 33.70211 
Q 573.725229 33.70211 572.238991 35.578486 
Q 570.752752 37.454862 570.752752 39.609908 
Q 570.752752 42.619541 572.684862 44.570229 
Q 574.616972 46.520917 577.663761 46.520917 
Q 579.818807 46.818165 581.342202 44.29156 
" clip-path="url(#pb40937b1b1)" style="fill: none; stroke: #000000; stroke-linejoin: miter"/>
   </g>
  </g>
  <g id="axes_37">
   <g id="patch_30">
    <path d="M 585.057798 38.160826 
Q 588.030275 39.535596 592.749083 39.721376 
Q 594.272477 39.721376 594.959862 38.550963 
Q 595.647248 37.38055 595.647248 35.82 
Q 595.647248 35.299817 595.554358 34.909679 
Q 595.461468 34.519541 595.219954 34.296606 
Q 594.97844 34.07367 594.811239 33.943624 
Q 594.644037 33.813578 594.198165 33.757844 
Q 593.752294 33.70211 593.547936 33.683532 
Q 593.343578 33.664954 592.767661 33.683532 
Q 592.191743 33.70211 591.968807 33.70211 
Q 589.925229 33.70211 588.438991 35.578486 
Q 586.952752 37.454862 586.952752 39.609908 
Q 586.952752 42.619541 588.884862 44.570229 
Q 590.816972 46.520917 593.863761 46.520917 
Q 596.018807 46.818165 597.542202 44.29156 
" clip-path="url(#p1aa4b69c74)" style="fill: none; stroke: #000000; stroke-linejoin: miter"/>
   </g>
  </g>
  <g id="axes_38">
   <g id="patch_31">
    <path d="M 608.118579 29.071862 
Q 607.743683 29.146841 607.612469 29.577972 
Q 607.481255 30.009103 607.556234 30.42149 
Q 607.556234 30.571448 607.593724 30.702662 
Q 607.631214 30.833876 607.687448 30.89011 
Q 607.743683 30.946345 607.799917 31.040069 
Q 607.856152 31.133793 607.893641 31.208772 
L 608.00611 29.859145 
M 608.00611 34.020497 
Q 607.106359 39.006621 606.881421 42.793076 
L 607.331297 45.379862 
L 607.668703 46.054676 
" clip-path="url(#pd38b4476fa)" style="fill: none; stroke: #000000; stroke-linejoin: miter"/>
   </g>
  </g>
  <g id="axes_39">
   <g id="patch_32">
    <path d="M 619.238731 37.282097 
L 619.238731 37.844441 
Q 619.501159 39.868883 619.538648 41.312234 
Q 619.576138 42.755586 619.482414 44.667559 
Q 619.38869 46.579531 619.38869 48.191586 
L 619.463669 39.643945 
Q 619.463669 38.144359 621.056979 37.507034 
Q 622.65029 36.86971 624.074897 37.282097 
Q 625.986869 37.844441 626.905366 39.04411 
Q 627.823862 40.243779 627.880097 41.668386 
Q 627.936331 43.092993 627.973821 44.817517 
Q 628.01131 46.542041 628.161269 48.191586 
" clip-path="url(#pa62a4fc90c)" style="fill: none; stroke: #000000; stroke-linejoin: miter"/>
   </g>
  </g>
  <g id="axes_40">
   <g id="patch_33">
    <path d="M 644.687191 39.096404 
Q 644.43236 39.023596 643.46764 38.623146 
Q 642.502921 38.222697 641.84764 38.077079 
Q 641.19236 37.931461 640.537079 38.00427 
Q 637.915955 38.00427 636.277753 40.388764 
Q 634.639551 42.773258 634.639551 45.430787 
Q 634.639551 47.068989 639.881798 47.068989 
Q 641.447191 47.068989 642.775955 45.558202 
Q 644.104719 44.047416 644.778202 42.172584 
Q 645.451685 40.297753 645.451685 38.768764 
Q 645.451685 37.27618 645.415281 36.984944 
L 645.342472 38.077079 
Q 645.342472 38.550337 645.342472 38.987191 
Q 645.378876 40.188539 645.579101 42.281798 
Q 645.779326 44.375056 645.943146 46.049663 
Q 646.106966 47.72427 646.143371 49.872135 
Q 646.179775 52.02 646.015955 53.658202 
Q 645.852135 55.296404 645.287865 56.971011 
Q 644.723596 58.645618 643.795281 59.737753 
Q 642.866966 60.829888 641.265169 61.521573 
Q 639.663371 62.213258 637.515506 62.213258 
Q 635.877303 62.213258 634.785169 61.466966 
Q 633.693034 60.720674 633.693034 59.155281 
Q 633.620225 58.936854 633.656629 58.936854 
Q 633.693034 58.936854 633.802247 58.936854 
Q 633.911461 58.936854 633.911461 58.82764 
" clip-path="url(#p4955ebda3b)" style="fill: none; stroke: #000000; stroke-linejoin: miter"/>
   </g>
  </g>
  <g id="axes_41"/>
  <g id="axes_42">
   <g id="patch_34">
    <path d="M 677.843923 36.441748 
Q 676.634968 35.094627 672.662687 35.094627 
Q 671.142857 35.094627 670.365672 35.146439 
Q 669.588486 35.198252 668.58678 35.440043 
Q 667.585075 35.681834 667.101493 36.182687 
Q 666.61791 36.683539 666.272495 37.616162 
Q 665.927079 38.548785 665.927079 39.964989 
Q 665.927079 42.037484 667.343284 43.280981 
Q 668.759488 44.524478 670.693817 44.524478 
Q 673.353518 44.524478 676.116844 38.721493 
Q 677.463966 35.854542 677.463966 35.82 
Q 677.809382 35.578209 677.843923 36.441748 
Q 677.843923 37.512537 678.258422 40.362217 
Q 678.672921 43.211898 678.672921 44.524478 
" clip-path="url(#ped56af8488)" style="fill: none; stroke: #000000; stroke-linejoin: miter"/>
   </g>
  </g>
  <g id="axes_43">
   <g id="patch_35">
    <path d="M 684.057476 43.917766 
Q 684.357393 44.180193 685.369614 45.154924 
Q 686.381834 46.129655 686.944179 46.560786 
Q 687.506524 46.991917 688.53749 47.385559 
Q 689.568455 47.7792 690.580676 47.629241 
Q 691.25549 47.629241 691.72411 47.404303 
Q 692.192731 47.179366 692.417669 46.879448 
Q 692.642607 46.579531 692.773821 45.979697 
Q 692.905034 45.379862 692.923779 44.967476 
Q 692.942524 44.55509 692.942524 43.805297 
Q 692.942524 42.718097 692.042772 42.043283 
Q 691.143021 41.368469 689.849628 41.031062 
Q 688.556234 40.693655 687.262841 40.300014 
Q 685.969448 39.906372 685.069697 38.987876 
Q 684.169945 38.069379 684.169945 36.607283 
Q 684.169945 36.082428 684.338648 35.726276 
Q 684.507352 35.370124 684.900993 35.145186 
Q 685.294634 34.920248 685.575807 34.807779 
Q 685.856979 34.69531 686.513048 34.639076 
Q 687.169117 34.582841 687.356566 34.582841 
Q 687.544014 34.582841 688.218828 34.582841 
Q 689.418497 34.582841 689.999586 34.995228 
Q 690.580676 35.407614 690.899338 36.026193 
Q 691.218 36.644772 691.480428 36.832221 
" clip-path="url(#p58e1010cdc)" style="fill: none; stroke: #000000; stroke-linejoin: miter"/>
   </g>
  </g>
  <g id="axes_44"/>
  <g id="axes_45">
   <g id="patch_36">
    <path d="M 714.516102 36.437797 
L 715.751695 44.778051 
Q 715.854661 45.567458 715.854661 45.60178 
Q 715.854661 45.704746 716.163559 45.704746 
Q 717.02161 45.704746 717.742373 44.778051 
Q 718.463136 43.851356 718.875 42.718729 
Q 719.286864 41.586102 719.801695 40.659407 
Q 720.316525 39.732712 720.797034 39.732712 
Q 721.414831 39.732712 722.049788 40.607924 
Q 722.684746 41.483136 723.148093 42.512797 
Q 723.611441 43.542458 724.28072 44.417669 
Q 724.95 45.292881 725.636441 45.292881 
Q 725.911017 43.782712 726.340042 39.69839 
Q 726.769068 35.614068 727.283898 33.554746 
" clip-path="url(#pc4cec1c663)" style="fill: none; stroke: #000000; stroke-linejoin: miter"/>
   </g>
  </g>
  <g id="axes_46">
   <g id="patch_37">
    <path d="M 730.857798 38.160826 
Q 733.830275 39.535596 738.549083 39.721376 
Q 740.072477 39.721376 740.759862 38.550963 
Q 741.447248 37.38055 741.447248 35.82 
Q 741.447248 35.299817 741.354358 34.909679 
Q 741.261468 34.519541 741.019954 34.296606 
Q 740.77844 34.07367 740.611239 33.943624 
Q 740.444037 33.813578 739.998165 33.757844 
Q 739.552294 33.70211 739.347936 33.683532 
Q 739.143578 33.664954 738.567661 33.683532 
Q 737.991743 33.70211 737.768807 33.70211 
Q 735.725229 33.70211 734.238991 35.578486 
Q 732.752752 37.454862 732.752752 39.609908 
Q 732.752752 42.619541 734.684862 44.570229 
Q 736.616972 46.520917 739.663761 46.520917 
Q 741.818807 46.818165 743.342202 44.29156 
" clip-path="url(#p045e93e6e1)" style="fill: none; stroke: #000000; stroke-linejoin: miter"/>
   </g>
  </g>
  <g id="axes_47">
   <g id="patch_38">
    <path d="M 753.225021 26.147669 
Q 753.187531 26.597545 753.225021 27.384828 
Q 753.26251 27.572276 753.206276 27.965917 
Q 753.150041 28.359559 753.187531 28.678221 
Q 753.225021 28.996883 753.449959 29.184331 
" clip-path="url(#pf7569598ea)" style="fill: none; stroke: #000000; stroke-linejoin: miter"/>
   </g>
  </g>
  <g id="axes_48">
   <g id="patch_39">
    <path d="M 766.013462 32.783338 
Q 766.538317 34.507862 766.669531 36.457324 
Q 766.800745 38.406786 766.725766 40.956083 
Q 766.650786 43.505379 766.688276 44.705048 
L 766.800745 46.054676 
L 766.800745 45.829738 
Q 766.800745 44.667559 766.519572 42.30571 
Q 766.2384 39.943862 766.2384 38.744193 
Q 766.2384 36.419834 767.250621 34.882759 
Q 768.262841 33.345683 770.287283 33.345683 
Q 770.999586 33.345683 771.336993 33.626855 
Q 771.6744 33.908028 771.936828 34.432883 
Q 772.199255 34.957738 772.536662 35.257655 
L 772.986538 36.832221 
" clip-path="url(#pdbb34b1b7d)" style="fill: none; stroke: #000000; stroke-linejoin: miter"/>
   </g>
  </g>
  <g id="axes_49">
   <g id="patch_40">
    <path d="M 779.457798 38.160826 
Q 782.430275 39.535596 787.149083 39.721376 
Q 788.672477 39.721376 789.359862 38.550963 
Q 790.047248 37.38055 790.047248 35.82 
Q 790.047248 35.299817 789.954358 34.909679 
Q 789.861468 34.519541 789.619954 34.296606 
Q 789.37844 34.07367 789.211239 33.943624 
Q 789.044037 33.813578 788.598165 33.757844 
Q 788.152294 33.70211 787.947936 33.683532 
Q 787.743578 33.664954 787.167661 33.683532 
Q 786.591743 33.70211 786.368807 33.70211 
Q 784.325229 33.70211 782.838991 35.578486 
Q 781.352752 37.454862 781.352752 39.609908 
Q 781.352752 42.619541 783.284862 44.570229 
Q 785.216972 46.520917 788.263761 46.520917 
Q 790.418807 46.818165 791.942202 44.29156 
" clip-path="url(#p2c788f0517)" style="fill: none; stroke: #000000; stroke-linejoin: miter"/>
   </g>
  </g>
  <g id="axes_50"/>
  <g id="axes_51">
   <g id="patch_41">
    <path d="M 818.718579 29.071862 
Q 818.343683 29.146841 818.212469 29.577972 
Q 818.081255 30.009103 818.156234 30.42149 
Q 818.156234 30.571448 818.193724 30.702662 
Q 818.231214 30.833876 818.287448 30.89011 
Q 818.343683 30.946345 818.399917 31.040069 
Q 818.456152 31.133793 818.493641 31.208772 
L 818.60611 29.859145 
M 818.60611 34.020497 
Q 817.706359 39.006621 817.481421 42.793076 
L 817.931297 45.379862 
L 818.268703 46.054676 
" clip-path="url(#p5aaa2b9807)" style="fill: none; stroke: #000000; stroke-linejoin: miter"/>
   </g>
  </g>
  <g id="axes_52">
   <g id="patch_42">
    <path d="M 829.838731 37.282097 
L 829.838731 37.844441 
Q 830.101159 39.868883 830.138648 41.312234 
Q 830.176138 42.755586 830.082414 44.667559 
Q 829.98869 46.579531 829.98869 48.191586 
L 830.063669 39.643945 
Q 830.063669 38.144359 831.656979 37.507034 
Q 833.25029 36.86971 834.674897 37.282097 
Q 836.586869 37.844441 837.505366 39.04411 
Q 838.423862 40.243779 838.480097 41.668386 
Q 838.536331 43.092993 838.573821 44.817517 
Q 838.61131 46.542041 838.761269 48.191586 
" clip-path="url(#p68be38de97)" style="fill: none; stroke: #000000; stroke-linejoin: miter"/>
   </g>
  </g>
  <g id="axes_53">
   <g id="patch_43">
    <path d="M 849.787697 39.981352 
Q 850.799917 40.956083 851.137324 42.905545 
Q 851.324772 43.955255 850.912386 46.167145 
L 849.675228 47.629241 
" clip-path="url(#p688f1934df)" style="fill: none; stroke: #000000; stroke-linejoin: miter"/>
   </g>
  </g>
 </g>
 <defs>
  <clipPath id="pd3605c8c48">
   <rect x="1.389352" y="8.64" width="13.421297" height="54.36"/>
  </clipPath>
  <clipPath id="p401fbbcb7a">
   <rect x="18.938979" y="8.64" width="10.722041" height="54.36"/>
  </clipPath>
  <clipPath id="p4d3b10ccc3">
   <rect x="38.006938" y="8.64" width="4.986124" height="54.36"/>
  </clipPath>
  <clipPath id="pef975dfcbc">
   <rect x="50.382993" y="8.64" width="12.634014" height="54.36"/>
  </clipPath>
  <clipPath id="p70e1b43926">
   <rect x="86.606938" y="8.64" width="4.986124" height="54.36"/>
  </clipPath>
  <clipPath id="p9f412a01a7">
   <rect x="98.982993" y="8.64" width="12.634014" height="54.36"/>
  </clipPath>
  <clipPath id="p2b70b271a6">
   <rect x="129.6" y="12.969805" width="16.2" height="45.700389"/>
  </clipPath>
  <clipPath id="pdf818ced23">
   <rect x="147.189352" y="8.64" width="13.421297" height="54.36"/>
  </clipPath>
  <clipPath id="p1290956499">
   <rect x="164.738979" y="8.64" width="10.722041" height="54.36"/>
  </clipPath>
  <clipPath id="pce684e4483">
   <rect x="179.589352" y="8.64" width="13.421297" height="54.36"/>
  </clipPath>
  <clipPath id="pe249cde46e">
   <rect x="199.800745" y="8.64" width="5.39851" height="54.36"/>
  </clipPath>
  <clipPath id="pcef1a07d37">
   <rect x="226.8" y="10.936525" width="16.2" height="49.766949"/>
  </clipPath>
  <clipPath id="pfed6f7cabb">
   <rect x="243" y="8.881927" width="16.2" height="53.876147"/>
  </clipPath>
  <clipPath id="p62e62eb7e2">
   <rect x="277.707848" y="8.64" width="11.584303" height="54.36"/>
  </clipPath>
  <clipPath id="p1813967709">
   <rect x="292.989352" y="8.64" width="13.421297" height="54.36"/>
  </clipPath>
  <clipPath id="pac7413235a">
   <rect x="309.582993" y="8.64" width="12.634014" height="54.36"/>
  </clipPath>
  <clipPath id="p9cecb6ee64">
   <rect x="325.389352" y="8.64" width="13.421297" height="54.36"/>
  </clipPath>
  <clipPath id="p7c24ab7606">
   <rect x="356.4" y="9.426742" width="16.2" height="52.786517"/>
  </clipPath>
  <clipPath id="p2fc461a969">
   <rect x="373.202069" y="8.64" width="14.995862" height="54.36"/>
  </clipPath>
  <clipPath id="p34d4f732c0">
   <rect x="390.189352" y="8.64" width="13.421297" height="54.36"/>
  </clipPath>
  <clipPath id="pdeb0071a72">
   <rect x="426.806938" y="8.64" width="4.986124" height="54.36"/>
  </clipPath>
  <clipPath id="pe3805c1aee">
   <rect x="439.164248" y="8.64" width="12.671503" height="54.36"/>
  </clipPath>
  <clipPath id="pf7ceec65d4">
   <rect x="459.01949" y="8.64" width="5.361021" height="54.36"/>
  </clipPath>
  <clipPath id="p750b2c1a2b">
   <rect x="486" y="10.777356" width="16.2" height="50.085288"/>
  </clipPath>
  <clipPath id="p1ee61c5787">
   <rect x="503.964248" y="8.64" width="12.671503" height="54.36"/>
  </clipPath>
  <clipPath id="p6174621f59">
   <rect x="519.451945" y="8.64" width="14.09611" height="54.36"/>
  </clipPath>
  <clipPath id="p85a9c5fdc0">
   <rect x="552.582993" y="8.64" width="12.634014" height="54.36"/>
  </clipPath>
  <clipPath id="pb40937b1b1">
   <rect x="567" y="8.881927" width="16.2" height="53.876147"/>
  </clipPath>
  <clipPath id="p1aa4b69c74">
   <rect x="583.2" y="8.881927" width="16.2" height="53.876147"/>
  </clipPath>
  <clipPath id="pd38b4476fa">
   <rect x="605.006938" y="8.64" width="4.986124" height="54.36"/>
  </clipPath>
  <clipPath id="pa62a4fc90c">
   <rect x="617.364248" y="8.64" width="12.671503" height="54.36"/>
  </clipPath>
  <clipPath id="p4955ebda3b">
   <rect x="631.8" y="9.426742" width="16.2" height="52.786517"/>
  </clipPath>
  <clipPath id="ped56af8488">
   <rect x="664.2" y="10.777356" width="16.2" height="50.085288"/>
  </clipPath>
  <clipPath id="p58e1010cdc">
   <rect x="682.182993" y="8.64" width="12.634014" height="54.36"/>
  </clipPath>
  <clipPath id="pc4cec1c663">
   <rect x="712.8" y="10.936525" width="16.2" height="49.766949"/>
  </clipPath>
  <clipPath id="p045e93e6e1">
   <rect x="729" y="8.881927" width="16.2" height="53.876147"/>
  </clipPath>
  <clipPath id="pf7569598ea">
   <rect x="751.275559" y="8.64" width="4.048883" height="54.36"/>
  </clipPath>
  <clipPath id="pdbb34b1b7d">
   <rect x="764.138979" y="8.64" width="10.722041" height="54.36"/>
  </clipPath>
  <clipPath id="p2c788f0517">
   <rect x="777.6" y="8.881927" width="16.2" height="53.876147"/>
  </clipPath>
  <clipPath id="p5aaa2b9807">
   <rect x="815.606938" y="8.64" width="4.986124" height="54.36"/>
  </clipPath>
  <clipPath id="p68be38de97">
   <rect x="827.964248" y="8.64" width="12.671503" height="54.36"/>
  </clipPath>
  <clipPath id="p688f1934df">
   <rect x="847.800745" y="8.64" width="5.39851" height="54.36"/>
  </clipPath>
 </defs>
</svg>
