<?xml version="1.0" encoding="utf-8" standalone="no"?>
<!DOCTYPE svg PUBLIC "-//W3C//DTD SVG 1.1//EN"
  "http://www.w3.org/Graphics/SVG/1.1/DTD/svg11.dtd">
<svg xmlns:xlink="http://www.w3.org/1999/xlink" width="828pt" height="72pt" viewBox="0 0 828 72" xmlns="http://www.w3.org/2000/svg" version="1.1">
 <metadata>
  <rdf:RDF xmlns:dc="http://purl.org/dc/elements/1.1/" xmlns:cc="http://creativecommons.org/ns#" xmlns:rdf="http://www.w3.org/1999/02/22-rdf-syntax-ns#">
   <cc:Work>
    <dc:type rdf:resource="http://purl.org/dc/dcmitype/StillImage"/>
    <dc:date>2023-12-21T11:53:50.721303</dc:date>
    <dc:format>image/svg+xml</dc:format>
    <dc:creator>
     <cc:Agent>
      <dc:title>Matplotlib v3.5.1, https://matplotlib.org/</dc:title>
     </cc:Agent>
    </dc:creator>
   </cc:Work>
  </rdf:RDF>
 </metadata>
 <defs>
  <style type="text/css">*{stroke-linejoin: round; stroke-linecap: butt}</style>
 </defs>
 <g id="figure_1">
  <g id="patch_1">
   <path d="M 0 72 
L 828 72 
L 828 0 
L 0 0 
z
" style="fill: #8fff9f"/>
  </g>
  <g id="axes_1">
   <g id="patch_2">
    <path d="M 4.781498 38.139383 
Q 4.781498 38.139383 6.815419 38.139383 
Q 7.636123 37.889604 9.955507 38.085859 
Q 12.27489 38.282115 13.238326 38.139383 
M 1.784141 46.489163 
L 1.891189 46.168018 
Q 1.891189 45.275947 3.818062 40.797753 
Q 5.744934 36.319559 7.707489 32.251718 
Q 9.670044 28.183877 9.812775 28.183877 
Q 10.669163 28.183877 11.364978 29.646872 
Q 12.060793 31.109868 12.52467 33.393568 
Q 12.988546 35.677269 13.327533 37.943128 
Q 13.66652 40.208987 13.951982 42.332115 
Q 14.237445 44.455242 14.415859 45.097533 
" clip-path="url(#p1404b3033e)" style="fill: none; stroke: #000000; stroke-linejoin: miter"/>
   </g>
  </g>
  <g id="axes_2">
   <g id="patch_3">
    <path d="M 19.838731 37.282097 
L 19.838731 37.844441 
Q 20.101159 39.868883 20.138648 41.312234 
Q 20.176138 42.755586 20.082414 44.667559 
Q 19.98869 46.579531 19.98869 48.191586 
L 20.063669 39.643945 
Q 20.063669 38.144359 21.656979 37.507034 
Q 23.25029 36.86971 24.674897 37.282097 
Q 26.586869 37.844441 27.505366 39.04411 
Q 28.423862 40.243779 28.480097 41.668386 
Q 28.536331 43.092993 28.573821 44.817517 
Q 28.61131 46.542041 28.761269 48.191586 
" clip-path="url(#p975531e7c8)" style="fill: none; stroke: #000000; stroke-linejoin: miter"/>
   </g>
  </g>
  <g id="axes_3">
   <g id="patch_4">
    <path d="M 45.287191 39.096404 
Q 45.03236 39.023596 44.06764 38.623146 
Q 43.102921 38.222697 42.44764 38.077079 
Q 41.79236 37.931461 41.137079 38.00427 
Q 38.515955 38.00427 36.877753 40.388764 
Q 35.239551 42.773258 35.239551 45.430787 
Q 35.239551 47.068989 40.481798 47.068989 
Q 42.047191 47.068989 43.375955 45.558202 
Q 44.704719 44.047416 45.378202 42.172584 
Q 46.051685 40.297753 46.051685 38.768764 
Q 46.051685 37.27618 46.015281 36.984944 
L 45.942472 38.077079 
Q 45.942472 38.550337 45.942472 38.987191 
Q 45.978876 40.188539 46.179101 42.281798 
Q 46.379326 44.375056 46.543146 46.049663 
Q 46.706966 47.72427 46.743371 49.872135 
Q 46.779775 52.02 46.615955 53.658202 
Q 46.452135 55.296404 45.887865 56.971011 
Q 45.323596 58.645618 44.395281 59.737753 
Q 43.466966 60.829888 41.865169 61.521573 
Q 40.263371 62.213258 38.115506 62.213258 
Q 36.477303 62.213258 35.385169 61.466966 
Q 34.293034 60.720674 34.293034 59.155281 
Q 34.220225 58.936854 34.256629 58.936854 
Q 34.293034 58.936854 34.402247 58.936854 
Q 34.511461 58.936854 34.511461 58.82764 
" clip-path="url(#pedf3a68196)" style="fill: none; stroke: #000000; stroke-linejoin: miter"/>
   </g>
  </g>
  <g id="axes_4">
   <g id="patch_5">
    <path d="M 50.457798 38.160826 
Q 53.430275 39.535596 58.149083 39.721376 
Q 59.672477 39.721376 60.359862 38.550963 
Q 61.047248 37.38055 61.047248 35.82 
Q 61.047248 35.299817 60.954358 34.909679 
Q 60.861468 34.519541 60.619954 34.296606 
Q 60.37844 34.07367 60.211239 33.943624 
Q 60.044037 33.813578 59.598165 33.757844 
Q 59.152294 33.70211 58.947936 33.683532 
Q 58.743578 33.664954 58.167661 33.683532 
Q 57.591743 33.70211 57.368807 33.70211 
Q 55.325229 33.70211 53.838991 35.578486 
Q 52.352752 37.454862 52.352752 39.609908 
Q 52.352752 42.619541 54.284862 44.570229 
Q 56.216972 46.520917 59.263761 46.520917 
Q 61.418807 46.818165 62.942202 44.29156 
" clip-path="url(#pc1d70c5363)" style="fill: none; stroke: #000000; stroke-linejoin: miter"/>
   </g>
  </g>
  <g id="axes_5">
   <g id="patch_6">
    <path d="M 72.506359 28.621986 
Q 72.731297 30.34651 72.806276 32.146014 
Q 72.881255 33.945517 72.86251 36.551048 
Q 72.843766 39.156579 72.843766 40.093821 
Q 72.843766 40.13131 73.068703 45.829738 
L 73.293641 46.841959 
" clip-path="url(#p87344c32b8)" style="fill: none; stroke: #000000; stroke-linejoin: miter"/>
   </g>
  </g>
  <g id="axes_6">
   <g id="patch_7">
    <path d="M 94.643923 36.441748 
Q 93.434968 35.094627 89.462687 35.094627 
Q 87.942857 35.094627 87.165672 35.146439 
Q 86.388486 35.198252 85.38678 35.440043 
Q 84.385075 35.681834 83.901493 36.182687 
Q 83.41791 36.683539 83.072495 37.616162 
Q 82.727079 38.548785 82.727079 39.964989 
Q 82.727079 42.037484 84.143284 43.280981 
Q 85.559488 44.524478 87.493817 44.524478 
Q 90.153518 44.524478 92.916844 38.721493 
Q 94.263966 35.854542 94.263966 35.82 
Q 94.609382 35.578209 94.643923 36.441748 
Q 94.643923 37.512537 95.058422 40.362217 
Q 95.472921 43.211898 95.472921 44.524478 
" clip-path="url(#p1c7fa862b2)" style="fill: none; stroke: #000000; stroke-linejoin: miter"/>
   </g>
  </g>
  <g id="axes_7"/>
  <g id="axes_8">
   <g id="patch_8">
    <path d="M 127.043923 36.441748 
Q 125.834968 35.094627 121.862687 35.094627 
Q 120.342857 35.094627 119.565672 35.146439 
Q 118.788486 35.198252 117.78678 35.440043 
Q 116.785075 35.681834 116.301493 36.182687 
Q 115.81791 36.683539 115.472495 37.616162 
Q 115.127079 38.548785 115.127079 39.964989 
Q 115.127079 42.037484 116.543284 43.280981 
Q 117.959488 44.524478 119.893817 44.524478 
Q 122.553518 44.524478 125.316844 38.721493 
Q 126.663966 35.854542 126.663966 35.82 
Q 127.009382 35.578209 127.043923 36.441748 
Q 127.043923 37.512537 127.458422 40.362217 
Q 127.872921 43.211898 127.872921 44.524478 
" clip-path="url(#p36fa4b231a)" style="fill: none; stroke: #000000; stroke-linejoin: miter"/>
   </g>
  </g>
  <g id="axes_9">
   <g id="patch_9">
    <path d="M 133.238731 37.282097 
L 133.238731 37.844441 
Q 133.501159 39.868883 133.538648 41.312234 
Q 133.576138 42.755586 133.482414 44.667559 
Q 133.38869 46.579531 133.38869 48.191586 
L 133.463669 39.643945 
Q 133.463669 38.144359 135.056979 37.507034 
Q 136.65029 36.86971 138.074897 37.282097 
Q 139.986869 37.844441 140.905366 39.04411 
Q 141.823862 40.243779 141.880097 41.668386 
Q 141.936331 43.092993 141.973821 44.817517 
Q 142.01131 46.542041 142.161269 48.191586 
" clip-path="url(#p8cdcce65b3)" style="fill: none; stroke: #000000; stroke-linejoin: miter"/>
   </g>
  </g>
  <g id="axes_10">
   <g id="patch_10">
    <path d="M 157.499007 39.568966 
Q 156.149379 38.181848 153.9 38.444276 
Q 151.050786 38.444276 149.888607 39.793903 
Q 148.726428 41.143531 148.726428 44.067724 
Q 148.726428 45.56731 150.019821 46.279614 
Q 151.313214 46.991917 152.887779 46.991917 
Q 154.199917 46.991917 155.212138 45.736014 
Q 156.224359 44.48011 156.805448 42.30571 
Q 157.386538 40.13131 157.761434 37.938166 
Q 158.136331 35.745021 158.28629 33.045766 
Q 158.436248 30.34651 158.473738 28.978138 
Q 158.511228 27.609766 158.511228 26.185159 
Q 158.28629 26.260138 158.28629 29.896634 
L 158.28629 44.292662 
L 159.073572 48.229076 
" clip-path="url(#pdbdc34dc97)" style="fill: none; stroke: #000000; stroke-linejoin: miter"/>
   </g>
  </g>
  <g id="axes_11"/>
  <g id="axes_12">
   <g id="patch_11">
    <path d="M 180.248638 35.788482 
L 180.437743 35.788482 
Q 181.320233 35.788482 183.085214 35.69393 
Q 184.850195 35.599377 185.732685 35.599377 
Q 187.277043 35.599377 188.474708 35.835759 
Q 189.672374 36.07214 190.696693 36.655214 
Q 191.721012 37.238288 192.272568 38.35716 
Q 192.824125 39.476031 192.824125 41.083424 
Q 192.824125 46.567471 182.707004 46.567471 
Q 182.675486 46.567471 180.815953 46.283813 
L 180.248638 46.000156 
M 180.248638 27.562412 
Q 181.887549 26.679922 183.841634 26.71144 
Q 186.110895 26.71144 188.143774 28.035175 
Q 190.176654 29.358911 190.176654 31.533619 
Q 190.176654 32.825837 189.625097 33.582257 
Q 189.073541 34.338677 188.348638 34.527782 
Q 187.623735 34.716887 186.630934 35.06358 
Q 185.638132 35.410272 185.070817 35.883035 
L 180.248638 35.788482 
M 179.775875 27.656965 
Q 179.996498 28.949183 179.933463 32.494903 
Q 179.870428 36.040623 180.437743 37.301323 
Q 180.437743 38.309883 180.390467 40.358521 
Q 180.343191 42.40716 180.343191 43.447237 
L 180.343191 45.243735 
L 180.154086 46.000156 
" clip-path="url(#pf47c271f2e)" style="fill: none; stroke: #000000; stroke-linejoin: miter"/>
   </g>
  </g>
  <g id="axes_13">
   <g id="patch_12">
    <path d="M 197.888772 35.145186 
Q 197.888772 35.145186 197.888772 35.595062 
Q 197.888772 36.269876 197.776303 37.619503 
Q 197.663834 38.969131 197.663834 39.643945 
Q 197.663834 41.930814 198.900993 43.599103 
Q 200.138152 45.267393 202.275062 45.267393 
Q 203.662179 45.154924 204.430717 43.917766 
Q 205.199255 42.680607 205.349214 41.237255 
Q 205.499172 39.793903 205.7616 37.9944 
Q 206.024028 36.194897 206.436414 35.370124 
Q 206.586372 35.070207 206.586372 35.670041 
Q 206.586372 36.269876 206.323945 38.706703 
Q 206.099007 41.031062 206.099007 41.555917 
Q 205.949048 42.643117 206.286455 43.767807 
Q 206.623862 44.892497 207.336166 45.6048 
" clip-path="url(#pbc6add93c0)" style="fill: none; stroke: #000000; stroke-linejoin: miter"/>
   </g>
  </g>
  <g id="axes_14">
   <g id="patch_13">
    <path d="M 215.213462 32.783338 
Q 215.738317 34.507862 215.869531 36.457324 
Q 216.000745 38.406786 215.925766 40.956083 
Q 215.850786 43.505379 215.888276 44.705048 
L 216.000745 46.054676 
L 216.000745 45.829738 
Q 216.000745 44.667559 215.719572 42.30571 
Q 215.4384 39.943862 215.4384 38.744193 
Q 215.4384 36.419834 216.450621 34.882759 
Q 217.462841 33.345683 219.487283 33.345683 
Q 220.199586 33.345683 220.536993 33.626855 
Q 220.8744 33.908028 221.136828 34.432883 
Q 221.399255 34.957738 221.736662 35.257655 
L 222.186538 36.832221 
" clip-path="url(#pef94ec5d12)" style="fill: none; stroke: #000000; stroke-linejoin: miter"/>
   </g>
  </g>
  <g id="axes_15">
   <g id="patch_14">
    <path d="M 230.063834 37.95691 
L 230.738648 37.95691 
Q 231.450952 37.95691 232.238234 37.881931 
Q 233.025517 37.806952 233.981503 37.675738 
Q 234.93749 37.544524 235.462345 37.507034 
L 239.736166 35.82 
M 235.687283 30.42149 
L 235.687283 31.43371 
Q 235.687283 33.383172 235.012469 37.207117 
Q 234.337655 41.031062 234.337655 43.018014 
Q 234.337655 43.805297 234.337655 44.105214 
Q 234.337655 44.405131 234.431379 45.042455 
Q 234.525103 45.679779 234.712552 45.960952 
Q 234.9 46.242124 235.293641 46.485807 
Q 235.687283 46.72949 236.249628 46.72949 
Q 236.362097 46.692 236.680759 46.72949 
Q 236.999421 46.766979 237.186869 46.710745 
Q 237.374317 46.65451 237.374317 46.392083 
" clip-path="url(#p011ee69020)" style="fill: none; stroke: #000000; stroke-linejoin: miter"/>
   </g>
  </g>
  <g id="axes_16"/>
  <g id="axes_17">
   <g id="patch_15">
    <path d="M 263.813462 35.932469 
Q 264.413297 35.257655 265.406772 34.826524 
Q 266.400248 34.395393 267.3 34.470372 
Q 267.937324 34.470372 268.42469 34.639076 
Q 268.912055 34.807779 269.230717 34.995228 
Q 269.549379 35.182676 269.774317 35.670041 
Q 269.999255 36.157407 270.111724 36.419834 
Q 270.224193 36.682262 270.280428 37.375821 
Q 270.336662 38.069379 270.355407 38.331807 
Q 270.374152 38.594234 270.355407 39.419007 
Q 270.336662 40.243779 270.336662 40.431228 
Q 270.336662 41.368469 270.167959 43.242952 
Q 269.999255 45.117434 269.999255 46.054676 
Q 269.999255 46.467062 270.05549 46.823214 
Q 270.111724 47.179366 270.205448 47.610497 
Q 270.299172 48.041628 270.336662 48.304055 
L 270.786538 48.528993 
M 264.263338 23.111007 
Q 264.488276 24.798041 264.488276 29.971614 
L 264.488276 42.3432 
L 264.150869 46.841959 
L 263.925931 47.74171 
" clip-path="url(#pb0fef4cfe3)" style="fill: none; stroke: #000000; stroke-linejoin: miter"/>
   </g>
  </g>
  <g id="axes_18">
   <g id="patch_16">
    <path d="M 289.043923 36.441748 
Q 287.834968 35.094627 283.862687 35.094627 
Q 282.342857 35.094627 281.565672 35.146439 
Q 280.788486 35.198252 279.78678 35.440043 
Q 278.785075 35.681834 278.301493 36.182687 
Q 277.81791 36.683539 277.472495 37.616162 
Q 277.127079 38.548785 277.127079 39.964989 
Q 277.127079 42.037484 278.543284 43.280981 
Q 279.959488 44.524478 281.893817 44.524478 
Q 284.553518 44.524478 287.316844 38.721493 
Q 288.663966 35.854542 288.663966 35.82 
Q 289.009382 35.578209 289.043923 36.441748 
Q 289.043923 37.512537 289.458422 40.362217 
Q 289.872921 43.211898 289.872921 44.524478 
" clip-path="url(#p43f747ea2d)" style="fill: none; stroke: #000000; stroke-linejoin: miter"/>
   </g>
  </g>
  <g id="axes_19">
   <g id="patch_17">
    <path d="M 303.299007 39.568966 
Q 301.949379 38.181848 299.7 38.444276 
Q 296.850786 38.444276 295.688607 39.793903 
Q 294.526428 41.143531 294.526428 44.067724 
Q 294.526428 45.56731 295.819821 46.279614 
Q 297.113214 46.991917 298.687779 46.991917 
Q 299.999917 46.991917 301.012138 45.736014 
Q 302.024359 44.48011 302.605448 42.30571 
Q 303.186538 40.13131 303.561434 37.938166 
Q 303.936331 35.745021 304.08629 33.045766 
Q 304.236248 30.34651 304.273738 28.978138 
Q 304.311228 27.609766 304.311228 26.185159 
Q 304.08629 26.260138 304.08629 29.896634 
L 304.08629 44.292662 
L 304.873572 48.229076 
" clip-path="url(#pd376eed884)" style="fill: none; stroke: #000000; stroke-linejoin: miter"/>
   </g>
  </g>
  <g id="axes_20"/>
  <g id="axes_21">
   <g id="patch_18">
    <path d="M 325.784141 38.85304 
L 326.212335 38.85304 
Q 327.03304 38.85304 327.996476 38.745991 
Q 328.959912 38.638943 330.119604 38.460529 
Q 331.279295 38.282115 331.885903 38.210749 
L 338.415859 35.427489 
M 338.094714 25.793128 
Q 337.809251 25.721762 336.774449 25.275727 
Q 335.739648 24.829692 335.097357 24.93674 
Q 334.455066 24.93674 333.937665 25.150837 
Q 333.420264 25.364934 333.081278 25.793128 
Q 332.742291 26.221322 332.47467 26.685198 
Q 332.207048 27.149075 332.064317 27.862731 
Q 331.921586 28.576388 331.814537 29.129471 
Q 331.707489 29.682555 331.689648 30.50326 
Q 331.671806 31.323965 331.653965 31.77 
Q 331.636123 32.216035 331.653965 32.965374 
Q 331.671806 33.714714 331.671806 33.928811 
Q 331.671806 36.605022 332.367621 41.850396 
Q 333.063436 47.095771 333.063436 49.771982 
Q 332.99207 50.057445 332.956388 50.681894 
Q 332.920705 51.306344 332.813656 51.805903 
Q 332.706608 52.305463 332.421145 52.555242 
" clip-path="url(#pad12f0f43b)" style="fill: none; stroke: #000000; stroke-linejoin: miter"/>
   </g>
  </g>
  <g id="axes_22">
   <g id="patch_19">
    <path d="M 353.843923 36.441748 
Q 352.634968 35.094627 348.662687 35.094627 
Q 347.142857 35.094627 346.365672 35.146439 
Q 345.588486 35.198252 344.58678 35.440043 
Q 343.585075 35.681834 343.101493 36.182687 
Q 342.61791 36.683539 342.272495 37.616162 
Q 341.927079 38.548785 341.927079 39.964989 
Q 341.927079 42.037484 343.343284 43.280981 
Q 344.759488 44.524478 346.693817 44.524478 
Q 349.353518 44.524478 352.116844 38.721493 
Q 353.463966 35.854542 353.463966 35.82 
Q 353.809382 35.578209 353.843923 36.441748 
Q 353.843923 37.512537 354.258422 40.362217 
Q 354.672921 43.211898 354.672921 44.524478 
" clip-path="url(#p0806092026)" style="fill: none; stroke: #000000; stroke-linejoin: miter"/>
   </g>
  </g>
  <g id="axes_23">
   <g id="patch_20">
    <path d="M 364.106359 28.621986 
Q 364.331297 30.34651 364.406276 32.146014 
Q 364.481255 33.945517 364.46251 36.551048 
Q 364.443766 39.156579 364.443766 40.093821 
Q 364.443766 40.13131 364.668703 45.829738 
L 364.893641 46.841959 
" clip-path="url(#pf2eaab60bb)" style="fill: none; stroke: #000000; stroke-linejoin: miter"/>
   </g>
  </g>
  <g id="axes_24">
   <g id="patch_21">
    <path d="M 380.306359 28.621986 
Q 380.531297 30.34651 380.606276 32.146014 
Q 380.681255 33.945517 380.66251 36.551048 
Q 380.643766 39.156579 380.643766 40.093821 
Q 380.643766 40.13131 380.868703 45.829738 
L 381.093641 46.841959 
" clip-path="url(#p91d60a463e)" style="fill: none; stroke: #000000; stroke-linejoin: miter"/>
   </g>
  </g>
  <g id="axes_25">
   <g id="patch_22">
    <path d="M 390.657798 38.160826 
Q 393.630275 39.535596 398.349083 39.721376 
Q 399.872477 39.721376 400.559862 38.550963 
Q 401.247248 37.38055 401.247248 35.82 
Q 401.247248 35.299817 401.154358 34.909679 
Q 401.061468 34.519541 400.819954 34.296606 
Q 400.57844 34.07367 400.411239 33.943624 
Q 400.244037 33.813578 399.798165 33.757844 
Q 399.352294 33.70211 399.147936 33.683532 
Q 398.943578 33.664954 398.367661 33.683532 
Q 397.791743 33.70211 397.568807 33.70211 
Q 395.525229 33.70211 394.038991 35.578486 
Q 392.552752 37.454862 392.552752 39.609908 
Q 392.552752 42.619541 394.484862 44.570229 
Q 396.416972 46.520917 399.463761 46.520917 
Q 401.618807 46.818165 403.142202 44.29156 
" clip-path="url(#pc49990b4eb)" style="fill: none; stroke: #000000; stroke-linejoin: miter"/>
   </g>
  </g>
  <g id="axes_26">
   <g id="patch_23">
    <path d="M 408.638731 37.282097 
L 408.638731 37.844441 
Q 408.901159 39.868883 408.938648 41.312234 
Q 408.976138 42.755586 408.882414 44.667559 
Q 408.78869 46.579531 408.78869 48.191586 
L 408.863669 39.643945 
Q 408.863669 38.144359 410.456979 37.507034 
Q 412.05029 36.86971 413.474897 37.282097 
Q 415.386869 37.844441 416.305366 39.04411 
Q 417.223862 40.243779 417.280097 41.668386 
Q 417.336331 43.092993 417.373821 44.817517 
Q 417.41131 46.542041 417.561269 48.191586 
" clip-path="url(#pf4a51ed4d0)" style="fill: none; stroke: #000000; stroke-linejoin: miter"/>
   </g>
  </g>
  <g id="axes_27"/>
  <g id="axes_28">
   <g id="patch_24">
    <path d="M 439.184141 38.85304 
L 439.612335 38.85304 
Q 440.43304 38.85304 441.396476 38.745991 
Q 442.359912 38.638943 443.519604 38.460529 
Q 444.679295 38.282115 445.285903 38.210749 
L 451.815859 35.427489 
M 451.494714 25.793128 
Q 451.209251 25.721762 450.174449 25.275727 
Q 449.139648 24.829692 448.497357 24.93674 
Q 447.855066 24.93674 447.337665 25.150837 
Q 446.820264 25.364934 446.481278 25.793128 
Q 446.142291 26.221322 445.87467 26.685198 
Q 445.607048 27.149075 445.464317 27.862731 
Q 445.321586 28.576388 445.214537 29.129471 
Q 445.107489 29.682555 445.089648 30.50326 
Q 445.071806 31.323965 445.053965 31.77 
Q 445.036123 32.216035 445.053965 32.965374 
Q 445.071806 33.714714 445.071806 33.928811 
Q 445.071806 36.605022 445.767621 41.850396 
Q 446.463436 47.095771 446.463436 49.771982 
Q 446.39207 50.057445 446.356388 50.681894 
Q 446.320705 51.306344 446.213656 51.805903 
Q 446.106608 52.305463 445.821145 52.555242 
" clip-path="url(#p4ab660fe82)" style="fill: none; stroke: #000000; stroke-linejoin: miter"/>
   </g>
  </g>
  <g id="axes_29">
   <g id="patch_25">
    <path d="M 467.243923 36.441748 
Q 466.034968 35.094627 462.062687 35.094627 
Q 460.542857 35.094627 459.765672 35.146439 
Q 458.988486 35.198252 457.98678 35.440043 
Q 456.985075 35.681834 456.501493 36.182687 
Q 456.01791 36.683539 455.672495 37.616162 
Q 455.327079 38.548785 455.327079 39.964989 
Q 455.327079 42.037484 456.743284 43.280981 
Q 458.159488 44.524478 460.093817 44.524478 
Q 462.753518 44.524478 465.516844 38.721493 
Q 466.863966 35.854542 466.863966 35.82 
Q 467.209382 35.578209 467.243923 36.441748 
Q 467.243923 37.512537 467.658422 40.362217 
Q 468.072921 43.211898 468.072921 44.524478 
" clip-path="url(#p4d528e0d98)" style="fill: none; stroke: #000000; stroke-linejoin: miter"/>
   </g>
  </g>
  <g id="axes_30">
   <g id="patch_26">
    <path d="M 473.457476 43.917766 
Q 473.757393 44.180193 474.769614 45.154924 
Q 475.781834 46.129655 476.344179 46.560786 
Q 476.906524 46.991917 477.93749 47.385559 
Q 478.968455 47.7792 479.980676 47.629241 
Q 480.65549 47.629241 481.12411 47.404303 
Q 481.592731 47.179366 481.817669 46.879448 
Q 482.042607 46.579531 482.173821 45.979697 
Q 482.305034 45.379862 482.323779 44.967476 
Q 482.342524 44.55509 482.342524 43.805297 
Q 482.342524 42.718097 481.442772 42.043283 
Q 480.543021 41.368469 479.249628 41.031062 
Q 477.956234 40.693655 476.662841 40.300014 
Q 475.369448 39.906372 474.469697 38.987876 
Q 473.569945 38.069379 473.569945 36.607283 
Q 473.569945 36.082428 473.738648 35.726276 
Q 473.907352 35.370124 474.300993 35.145186 
Q 474.694634 34.920248 474.975807 34.807779 
Q 475.256979 34.69531 475.913048 34.639076 
Q 476.569117 34.582841 476.756566 34.582841 
Q 476.944014 34.582841 477.618828 34.582841 
Q 478.818497 34.582841 479.399586 34.995228 
Q 479.980676 35.407614 480.299338 36.026193 
Q 480.618 36.644772 480.880428 36.832221 
" clip-path="url(#p04217a160c)" style="fill: none; stroke: #000000; stroke-linejoin: miter"/>
   </g>
  </g>
  <g id="axes_31">
   <g id="patch_27">
    <path d="M 489.263834 37.95691 
L 489.938648 37.95691 
Q 490.650952 37.95691 491.438234 37.881931 
Q 492.225517 37.806952 493.181503 37.675738 
Q 494.13749 37.544524 494.662345 37.507034 
L 498.936166 35.82 
M 494.887283 30.42149 
L 494.887283 31.43371 
Q 494.887283 33.383172 494.212469 37.207117 
Q 493.537655 41.031062 493.537655 43.018014 
Q 493.537655 43.805297 493.537655 44.105214 
Q 493.537655 44.405131 493.631379 45.042455 
Q 493.725103 45.679779 493.912552 45.960952 
Q 494.1 46.242124 494.493641 46.485807 
Q 494.887283 46.72949 495.449628 46.72949 
Q 495.562097 46.692 495.880759 46.72949 
Q 496.199421 46.766979 496.386869 46.710745 
Q 496.574317 46.65451 496.574317 46.392083 
" clip-path="url(#p79a3c8aa70)" style="fill: none; stroke: #000000; stroke-linejoin: miter"/>
   </g>
  </g>
  <g id="axes_32"/>
  <g id="axes_33">
   <g id="patch_28">
    <path d="M 532.043923 36.441748 
Q 530.834968 35.094627 526.862687 35.094627 
Q 525.342857 35.094627 524.565672 35.146439 
Q 523.788486 35.198252 522.78678 35.440043 
Q 521.785075 35.681834 521.301493 36.182687 
Q 520.81791 36.683539 520.472495 37.616162 
Q 520.127079 38.548785 520.127079 39.964989 
Q 520.127079 42.037484 521.543284 43.280981 
Q 522.959488 44.524478 524.893817 44.524478 
Q 527.553518 44.524478 530.316844 38.721493 
Q 531.663966 35.854542 531.663966 35.82 
Q 532.009382 35.578209 532.043923 36.441748 
Q 532.043923 37.512537 532.458422 40.362217 
Q 532.872921 43.211898 532.872921 44.524478 
" clip-path="url(#pbb249ef36b)" style="fill: none; stroke: #000000; stroke-linejoin: miter"/>
   </g>
  </g>
  <g id="axes_34">
   <g id="patch_29">
    <path d="M 538.257476 43.917766 
Q 538.557393 44.180193 539.569614 45.154924 
Q 540.581834 46.129655 541.144179 46.560786 
Q 541.706524 46.991917 542.73749 47.385559 
Q 543.768455 47.7792 544.780676 47.629241 
Q 545.45549 47.629241 545.92411 47.404303 
Q 546.392731 47.179366 546.617669 46.879448 
Q 546.842607 46.579531 546.973821 45.979697 
Q 547.105034 45.379862 547.123779 44.967476 
Q 547.142524 44.55509 547.142524 43.805297 
Q 547.142524 42.718097 546.242772 42.043283 
Q 545.343021 41.368469 544.049628 41.031062 
Q 542.756234 40.693655 541.462841 40.300014 
Q 540.169448 39.906372 539.269697 38.987876 
Q 538.369945 38.069379 538.369945 36.607283 
Q 538.369945 36.082428 538.538648 35.726276 
Q 538.707352 35.370124 539.100993 35.145186 
Q 539.494634 34.920248 539.775807 34.807779 
Q 540.056979 34.69531 540.713048 34.639076 
Q 541.369117 34.582841 541.556566 34.582841 
Q 541.744014 34.582841 542.418828 34.582841 
Q 543.618497 34.582841 544.199586 34.995228 
Q 544.780676 35.407614 545.099338 36.026193 
Q 545.418 36.644772 545.680428 36.832221 
" clip-path="url(#p57d0a3233b)" style="fill: none; stroke: #000000; stroke-linejoin: miter"/>
   </g>
  </g>
  <g id="axes_35">
   <g id="patch_30">
    <path d="M 558.506359 28.621986 
Q 558.731297 30.34651 558.806276 32.146014 
Q 558.881255 33.945517 558.86251 36.551048 
Q 558.843766 39.156579 558.843766 40.093821 
Q 558.843766 40.13131 559.068703 45.829738 
L 559.293641 46.841959 
" clip-path="url(#pb412310ba2)" style="fill: none; stroke: #000000; stroke-linejoin: miter"/>
   </g>
  </g>
  <g id="axes_36">
   <g id="patch_31">
    <path d="M 568.857798 38.160826 
Q 571.830275 39.535596 576.549083 39.721376 
Q 578.072477 39.721376 578.759862 38.550963 
Q 579.447248 37.38055 579.447248 35.82 
Q 579.447248 35.299817 579.354358 34.909679 
Q 579.261468 34.519541 579.019954 34.296606 
Q 578.77844 34.07367 578.611239 33.943624 
Q 578.444037 33.813578 577.998165 33.757844 
Q 577.552294 33.70211 577.347936 33.683532 
Q 577.143578 33.664954 576.567661 33.683532 
Q 575.991743 33.70211 575.768807 33.70211 
Q 573.725229 33.70211 572.238991 35.578486 
Q 570.752752 37.454862 570.752752 39.609908 
Q 570.752752 42.619541 572.684862 44.570229 
Q 574.616972 46.520917 577.663761 46.520917 
Q 579.818807 46.818165 581.342202 44.29156 
" clip-path="url(#pb14ff2bab0)" style="fill: none; stroke: #000000; stroke-linejoin: miter"/>
   </g>
  </g>
  <g id="axes_37">
   <g id="patch_32">
    <path d="M 585.057798 38.160826 
Q 588.030275 39.535596 592.749083 39.721376 
Q 594.272477 39.721376 594.959862 38.550963 
Q 595.647248 37.38055 595.647248 35.82 
Q 595.647248 35.299817 595.554358 34.909679 
Q 595.461468 34.519541 595.219954 34.296606 
Q 594.97844 34.07367 594.811239 33.943624 
Q 594.644037 33.813578 594.198165 33.757844 
Q 593.752294 33.70211 593.547936 33.683532 
Q 593.343578 33.664954 592.767661 33.683532 
Q 592.191743 33.70211 591.968807 33.70211 
Q 589.925229 33.70211 588.438991 35.578486 
Q 586.952752 37.454862 586.952752 39.609908 
Q 586.952752 42.619541 588.884862 44.570229 
Q 590.816972 46.520917 593.863761 46.520917 
Q 596.018807 46.818165 597.542202 44.29156 
" clip-path="url(#p6c3f3f3920)" style="fill: none; stroke: #000000; stroke-linejoin: miter"/>
   </g>
  </g>
  <g id="axes_38">
   <g id="patch_33">
    <path d="M 602.720069 39.868883 
L 602.720069 39.419007 
Q 602.720069 37.769462 604.463338 36.682262 
Q 606.206607 35.595062 607.893641 35.595062 
Q 610.105531 35.595062 611.473903 36.794731 
Q 612.842276 37.9944 612.842276 40.20629 
Q 612.842276 42.30571 611.024028 43.336676 
Q 609.205779 44.367641 606.99389 44.367641 
Q 606.319076 44.367641 605.812966 44.255172 
Q 605.306855 44.142703 604.688276 43.917766 
Q 604.069697 43.692828 603.619821 43.580359 
L 602.495131 42.568138 
M 602.157724 36.832221 
Q 602.6076 38.444276 602.870028 40.262524 
Q 603.132455 42.080772 603.18869 43.749062 
Q 603.244924 45.417352 603.282414 47.27309 
Q 603.319903 49.128828 603.282414 50.778372 
L 603.169945 57.863917 
" clip-path="url(#p92d10583b6)" style="fill: none; stroke: #000000; stroke-linejoin: miter"/>
   </g>
  </g>
  <g id="axes_39">
   <g id="patch_34">
    <path d="M 623.587531 45.979697 
Q 623.550041 46.017186 623.418828 46.054676 
Q 623.287614 46.092166 623.325103 46.167145 
Q 623.325103 46.579531 623.7 46.579531 
Q 624.037407 46.579531 624.037407 46.092166 
Q 624.112386 45.867228 623.831214 45.754759 
Q 623.550041 45.64229 623.362593 45.754759 
" clip-path="url(#paf81ee66e1)" style="fill: none; stroke: #000000; stroke-linejoin: miter"/>
   </g>
  </g>
  <g id="axes_40"/>
  <g id="axes_41">
   <g id="patch_35">
    <path d="M 652.781498 38.139383 
Q 652.781498 38.139383 654.815419 38.139383 
Q 655.636123 37.889604 657.955507 38.085859 
Q 660.27489 38.282115 661.238326 38.139383 
M 649.784141 46.489163 
L 649.891189 46.168018 
Q 649.891189 45.275947 651.818062 40.797753 
Q 653.744934 36.319559 655.707489 32.251718 
Q 657.670044 28.183877 657.812775 28.183877 
Q 658.669163 28.183877 659.364978 29.646872 
Q 660.060793 31.109868 660.52467 33.393568 
Q 660.988546 35.677269 661.327533 37.943128 
Q 661.66652 40.208987 661.951982 42.332115 
Q 662.237445 44.455242 662.415859 45.097533 
" clip-path="url(#p068f15398c)" style="fill: none; stroke: #000000; stroke-linejoin: miter"/>
   </g>
  </g>
  <g id="axes_42">
   <g id="patch_36">
    <path d="M 667.838731 37.282097 
L 667.838731 37.844441 
Q 668.101159 39.868883 668.138648 41.312234 
Q 668.176138 42.755586 668.082414 44.667559 
Q 667.98869 46.579531 667.98869 48.191586 
L 668.063669 39.643945 
Q 668.063669 38.144359 669.656979 37.507034 
Q 671.25029 36.86971 672.674897 37.282097 
Q 674.586869 37.844441 675.505366 39.04411 
Q 676.423862 40.243779 676.480097 41.668386 
Q 676.536331 43.092993 676.573821 44.817517 
Q 676.61131 46.542041 676.761269 48.191586 
" clip-path="url(#pe8b455823c)" style="fill: none; stroke: #000000; stroke-linejoin: miter"/>
   </g>
  </g>
  <g id="axes_43">
   <g id="patch_37">
    <path d="M 692.099007 39.568966 
Q 690.749379 38.181848 688.5 38.444276 
Q 685.650786 38.444276 684.488607 39.793903 
Q 683.326428 41.143531 683.326428 44.067724 
Q 683.326428 45.56731 684.619821 46.279614 
Q 685.913214 46.991917 687.487779 46.991917 
Q 688.799917 46.991917 689.812138 45.736014 
Q 690.824359 44.48011 691.405448 42.30571 
Q 691.986538 40.13131 692.361434 37.938166 
Q 692.736331 35.745021 692.88629 33.045766 
Q 693.036248 30.34651 693.073738 28.978138 
Q 693.111228 27.609766 693.111228 26.185159 
Q 692.88629 26.260138 692.88629 29.896634 
L 692.88629 44.292662 
L 693.673572 48.229076 
" clip-path="url(#p982bf62aea)" style="fill: none; stroke: #000000; stroke-linejoin: miter"/>
   </g>
  </g>
  <g id="axes_44"/>
  <g id="axes_45">
   <g id="patch_38">
    <path d="M 716.457476 43.917766 
Q 716.757393 44.180193 717.769614 45.154924 
Q 718.781834 46.129655 719.344179 46.560786 
Q 719.906524 46.991917 720.93749 47.385559 
Q 721.968455 47.7792 722.980676 47.629241 
Q 723.65549 47.629241 724.12411 47.404303 
Q 724.592731 47.179366 724.817669 46.879448 
Q 725.042607 46.579531 725.173821 45.979697 
Q 725.305034 45.379862 725.323779 44.967476 
Q 725.342524 44.55509 725.342524 43.805297 
Q 725.342524 42.718097 724.442772 42.043283 
Q 723.543021 41.368469 722.249628 41.031062 
Q 720.956234 40.693655 719.662841 40.300014 
Q 718.369448 39.906372 717.469697 38.987876 
Q 716.569945 38.069379 716.569945 36.607283 
Q 716.569945 36.082428 716.738648 35.726276 
Q 716.907352 35.370124 717.300993 35.145186 
Q 717.694634 34.920248 717.975807 34.807779 
Q 718.256979 34.69531 718.913048 34.639076 
Q 719.569117 34.582841 719.756566 34.582841 
Q 719.944014 34.582841 720.618828 34.582841 
Q 721.818497 34.582841 722.399586 34.995228 
Q 722.980676 35.407614 723.299338 36.026193 
Q 723.618 36.644772 723.880428 36.832221 
" clip-path="url(#pfa690f0cb9)" style="fill: none; stroke: #000000; stroke-linejoin: miter"/>
   </g>
  </g>
  <g id="axes_46">
   <g id="patch_39">
    <path d="M 740.3616 35.032717 
Q 739.31189 34.582841 738.337159 34.69531 
Q 735.300497 35.032717 733.388524 36.701007 
Q 731.476552 38.369297 731.476552 41.330979 
Q 731.476552 43.917766 733.482248 45.6048 
Q 735.487945 47.291834 738.112221 47.291834 
Q 740.474069 47.291834 741.598759 45.361117 
Q 742.723448 43.4304 742.723448 40.881103 
Q 742.723448 39.643945 742.311062 38.706703 
Q 741.898676 37.769462 741.373821 37.300841 
Q 740.848966 36.832221 740.099172 36.119917 
Q 739.349379 35.407614 738.899503 34.69531 
L 737.662345 34.245434 
" clip-path="url(#p6e22c6aa96)" style="fill: none; stroke: #000000; stroke-linejoin: miter"/>
   </g>
  </g>
 </g>
 <defs>
  <clipPath id="p1404b3033e">
   <rect x="0" y="9.949956" width="16.2" height="51.740088"/>
  </clipPath>
  <clipPath id="p975531e7c8">
   <rect x="17.964248" y="8.64" width="12.671503" height="54.36"/>
  </clipPath>
  <clipPath id="pedf3a68196">
   <rect x="32.4" y="9.426742" width="16.2" height="52.786517"/>
  </clipPath>
  <clipPath id="pc1d70c5363">
   <rect x="48.6" y="8.881927" width="16.2" height="53.876147"/>
  </clipPath>
  <clipPath id="p87344c32b8">
   <rect x="70.631876" y="8.64" width="4.536248" height="54.36"/>
  </clipPath>
  <clipPath id="p1c7fa862b2">
   <rect x="81" y="10.777356" width="16.2" height="50.085288"/>
  </clipPath>
  <clipPath id="p36fa4b231a">
   <rect x="113.4" y="10.777356" width="16.2" height="50.085288"/>
  </clipPath>
  <clipPath id="p8cdcce65b3">
   <rect x="131.364248" y="8.64" width="12.671503" height="54.36"/>
  </clipPath>
  <clipPath id="pdbdc34dc97">
   <rect x="146.851945" y="8.64" width="14.09611" height="54.36"/>
  </clipPath>
  <clipPath id="pf47c271f2e">
   <rect x="178.2" y="12.969805" width="16.2" height="45.700389"/>
  </clipPath>
  <clipPath id="pbc6add93c0">
   <rect x="195.789352" y="8.64" width="13.421297" height="54.36"/>
  </clipPath>
  <clipPath id="pef94ec5d12">
   <rect x="213.338979" y="8.64" width="10.722041" height="54.36"/>
  </clipPath>
  <clipPath id="p011ee69020">
   <rect x="228.189352" y="8.64" width="13.421297" height="54.36"/>
  </clipPath>
  <clipPath id="pb0fef4cfe3">
   <rect x="261.938979" y="8.64" width="10.722041" height="54.36"/>
  </clipPath>
  <clipPath id="p43f747ea2d">
   <rect x="275.4" y="10.777356" width="16.2" height="50.085288"/>
  </clipPath>
  <clipPath id="pd376eed884">
   <rect x="292.651945" y="8.64" width="14.09611" height="54.36"/>
  </clipPath>
  <clipPath id="pad12f0f43b">
   <rect x="324" y="9.949956" width="16.2" height="51.740088"/>
  </clipPath>
  <clipPath id="p0806092026">
   <rect x="340.2" y="10.777356" width="16.2" height="50.085288"/>
  </clipPath>
  <clipPath id="pf2eaab60bb">
   <rect x="362.231876" y="8.64" width="4.536248" height="54.36"/>
  </clipPath>
  <clipPath id="p91d60a463e">
   <rect x="378.431876" y="8.64" width="4.536248" height="54.36"/>
  </clipPath>
  <clipPath id="pc49990b4eb">
   <rect x="388.8" y="8.881927" width="16.2" height="53.876147"/>
  </clipPath>
  <clipPath id="pf4a51ed4d0">
   <rect x="406.764248" y="8.64" width="12.671503" height="54.36"/>
  </clipPath>
  <clipPath id="p4ab660fe82">
   <rect x="437.4" y="9.949956" width="16.2" height="51.740088"/>
  </clipPath>
  <clipPath id="p4d528e0d98">
   <rect x="453.6" y="10.777356" width="16.2" height="50.085288"/>
  </clipPath>
  <clipPath id="p04217a160c">
   <rect x="471.582993" y="8.64" width="12.634014" height="54.36"/>
  </clipPath>
  <clipPath id="p79a3c8aa70">
   <rect x="487.389352" y="8.64" width="13.421297" height="54.36"/>
  </clipPath>
  <clipPath id="pbb249ef36b">
   <rect x="518.4" y="10.777356" width="16.2" height="50.085288"/>
  </clipPath>
  <clipPath id="p57d0a3233b">
   <rect x="536.382993" y="8.64" width="12.634014" height="54.36"/>
  </clipPath>
  <clipPath id="pb412310ba2">
   <rect x="556.631876" y="8.64" width="4.536248" height="54.36"/>
  </clipPath>
  <clipPath id="pb14ff2bab0">
   <rect x="567" y="8.881927" width="16.2" height="53.876147"/>
  </clipPath>
  <clipPath id="p6c3f3f3920">
   <rect x="583.2" y="8.881927" width="16.2" height="53.876147"/>
  </clipPath>
  <clipPath id="p92d10583b6">
   <rect x="600.283241" y="8.64" width="14.433517" height="54.36"/>
  </clipPath>
  <clipPath id="paf81ee66e1">
   <rect x="621.413131" y="8.64" width="4.573738" height="54.36"/>
  </clipPath>
  <clipPath id="p068f15398c">
   <rect x="648" y="9.949956" width="16.2" height="51.740088"/>
  </clipPath>
  <clipPath id="pe8b455823c">
   <rect x="665.964248" y="8.64" width="12.671503" height="54.36"/>
  </clipPath>
  <clipPath id="p982bf62aea">
   <rect x="681.451945" y="8.64" width="14.09611" height="54.36"/>
  </clipPath>
  <clipPath id="pfa690f0cb9">
   <rect x="714.582993" y="8.64" width="12.634014" height="54.36"/>
  </clipPath>
  <clipPath id="p6e22c6aa96">
   <rect x="729.602069" y="8.64" width="14.995862" height="54.36"/>
  </clipPath>
 </defs>
</svg>
