<?xml version="1.0" encoding="utf-8" standalone="no"?>
<!DOCTYPE svg PUBLIC "-//W3C//DTD SVG 1.1//EN"
  "http://www.w3.org/Graphics/SVG/1.1/DTD/svg11.dtd">
<svg xmlns:xlink="http://www.w3.org/1999/xlink" width="756pt" height="72pt" viewBox="0 0 756 72" xmlns="http://www.w3.org/2000/svg" version="1.1">
 <metadata>
  <rdf:RDF xmlns:dc="http://purl.org/dc/elements/1.1/" xmlns:cc="http://creativecommons.org/ns#" xmlns:rdf="http://www.w3.org/1999/02/22-rdf-syntax-ns#">
   <cc:Work>
    <dc:type rdf:resource="http://purl.org/dc/dcmitype/StillImage"/>
    <dc:date>2023-12-21T11:52:57.339923</dc:date>
    <dc:format>image/svg+xml</dc:format>
    <dc:creator>
     <cc:Agent>
      <dc:title>Matplotlib v3.5.1, https://matplotlib.org/</dc:title>
     </cc:Agent>
    </dc:creator>
   </cc:Work>
  </rdf:RDF>
 </metadata>
 <defs>
  <style type="text/css">*{stroke-linejoin: round; stroke-linecap: butt}</style>
 </defs>
 <g id="figure_1">
  <g id="patch_1">
   <path d="M 0 72 
L 756 72 
L 756 0 
L 0 0 
z
" style="fill: #8fff9f"/>
  </g>
  <g id="axes_1">
   <g id="patch_2">
    <path d="M 1.716102 36.437797 
L 2.951695 44.778051 
Q 3.054661 45.567458 3.054661 45.60178 
Q 3.054661 45.704746 3.363559 45.704746 
Q 4.22161 45.704746 4.942373 44.778051 
Q 5.663136 43.851356 6.075 42.718729 
Q 6.486864 41.586102 7.001695 40.659407 
Q 7.516525 39.732712 7.997034 39.732712 
Q 8.614831 39.732712 9.249788 40.607924 
Q 9.884746 41.483136 10.348093 42.512797 
Q 10.811441 43.542458 11.48072 44.417669 
Q 12.15 45.292881 12.836441 45.292881 
Q 13.111017 43.782712 13.540042 39.69839 
Q 13.969068 35.614068 14.483898 33.554746 
" clip-path="url(#pbad58a9e14)" style="fill: none; stroke: #000000; stroke-linejoin: miter"/>
   </g>
  </g>
  <g id="axes_2">
   <g id="patch_3">
    <path d="M 20.813462 35.932469 
Q 21.413297 35.257655 22.406772 34.826524 
Q 23.400248 34.395393 24.3 34.470372 
Q 24.937324 34.470372 25.42469 34.639076 
Q 25.912055 34.807779 26.230717 34.995228 
Q 26.549379 35.182676 26.774317 35.670041 
Q 26.999255 36.157407 27.111724 36.419834 
Q 27.224193 36.682262 27.280428 37.375821 
Q 27.336662 38.069379 27.355407 38.331807 
Q 27.374152 38.594234 27.355407 39.419007 
Q 27.336662 40.243779 27.336662 40.431228 
Q 27.336662 41.368469 27.167959 43.242952 
Q 26.999255 45.117434 26.999255 46.054676 
Q 26.999255 46.467062 27.05549 46.823214 
Q 27.111724 47.179366 27.205448 47.610497 
Q 27.299172 48.041628 27.336662 48.304055 
L 27.786538 48.528993 
M 21.263338 23.111007 
Q 21.488276 24.798041 21.488276 29.971614 
L 21.488276 42.3432 
L 21.150869 46.841959 
L 20.925931 47.74171 
" clip-path="url(#p7210312a60)" style="fill: none; stroke: #000000; stroke-linejoin: miter"/>
   </g>
  </g>
  <g id="axes_3">
   <g id="patch_4">
    <path d="M 43.7616 35.032717 
Q 42.71189 34.582841 41.737159 34.69531 
Q 38.700497 35.032717 36.788524 36.701007 
Q 34.876552 38.369297 34.876552 41.330979 
Q 34.876552 43.917766 36.882248 45.6048 
Q 38.887945 47.291834 41.512221 47.291834 
Q 43.874069 47.291834 44.998759 45.361117 
Q 46.123448 43.4304 46.123448 40.881103 
Q 46.123448 39.643945 45.711062 38.706703 
Q 45.298676 37.769462 44.773821 37.300841 
Q 44.248966 36.832221 43.499172 36.119917 
Q 42.749379 35.407614 42.299503 34.69531 
L 41.062345 34.245434 
" clip-path="url(#pe782029e28)" style="fill: none; stroke: #000000; stroke-linejoin: miter"/>
   </g>
  </g>
  <g id="axes_4"/>
  <g id="axes_5">
   <g id="patch_5">
    <path d="M 69.413462 32.783338 
Q 69.938317 34.507862 70.069531 36.457324 
Q 70.200745 38.406786 70.125766 40.956083 
Q 70.050786 43.505379 70.088276 44.705048 
L 70.200745 46.054676 
L 70.200745 45.829738 
Q 70.200745 44.667559 69.919572 42.30571 
Q 69.6384 39.943862 69.6384 38.744193 
Q 69.6384 36.419834 70.650621 34.882759 
Q 71.662841 33.345683 73.687283 33.345683 
Q 74.399586 33.345683 74.736993 33.626855 
Q 75.0744 33.908028 75.336828 34.432883 
Q 75.599255 34.957738 75.936662 35.257655 
L 76.386538 36.832221 
" clip-path="url(#pda63ddaacf)" style="fill: none; stroke: #000000; stroke-linejoin: miter"/>
   </g>
  </g>
  <g id="axes_6">
   <g id="patch_6">
    <path d="M 84.488772 35.145186 
Q 84.488772 35.145186 84.488772 35.595062 
Q 84.488772 36.269876 84.376303 37.619503 
Q 84.263834 38.969131 84.263834 39.643945 
Q 84.263834 41.930814 85.500993 43.599103 
Q 86.738152 45.267393 88.875062 45.267393 
Q 90.262179 45.154924 91.030717 43.917766 
Q 91.799255 42.680607 91.949214 41.237255 
Q 92.099172 39.793903 92.3616 37.9944 
Q 92.624028 36.194897 93.036414 35.370124 
Q 93.186372 35.070207 93.186372 35.670041 
Q 93.186372 36.269876 92.923945 38.706703 
Q 92.699007 41.031062 92.699007 41.555917 
Q 92.549048 42.643117 92.886455 43.767807 
Q 93.223862 44.892497 93.936166 45.6048 
" clip-path="url(#p3f40ba38f3)" style="fill: none; stroke: #000000; stroke-linejoin: miter"/>
   </g>
  </g>
  <g id="axes_7">
   <g id="patch_7">
    <path d="M 100.838731 37.282097 
L 100.838731 37.844441 
Q 101.101159 39.868883 101.138648 41.312234 
Q 101.176138 42.755586 101.082414 44.667559 
Q 100.98869 46.579531 100.98869 48.191586 
L 101.063669 39.643945 
Q 101.063669 38.144359 102.656979 37.507034 
Q 104.25029 36.86971 105.674897 37.282097 
Q 107.586869 37.844441 108.505366 39.04411 
Q 109.423862 40.243779 109.480097 41.668386 
Q 109.536331 43.092993 109.573821 44.817517 
Q 109.61131 46.542041 109.761269 48.191586 
" clip-path="url(#p04071d6a08)" style="fill: none; stroke: #000000; stroke-linejoin: miter"/>
   </g>
  </g>
  <g id="axes_8">
   <g id="patch_8">
    <path d="M 117.057476 43.917766 
Q 117.357393 44.180193 118.369614 45.154924 
Q 119.381834 46.129655 119.944179 46.560786 
Q 120.506524 46.991917 121.53749 47.385559 
Q 122.568455 47.7792 123.580676 47.629241 
Q 124.25549 47.629241 124.72411 47.404303 
Q 125.192731 47.179366 125.417669 46.879448 
Q 125.642607 46.579531 125.773821 45.979697 
Q 125.905034 45.379862 125.923779 44.967476 
Q 125.942524 44.55509 125.942524 43.805297 
Q 125.942524 42.718097 125.042772 42.043283 
Q 124.143021 41.368469 122.849628 41.031062 
Q 121.556234 40.693655 120.262841 40.300014 
Q 118.969448 39.906372 118.069697 38.987876 
Q 117.169945 38.069379 117.169945 36.607283 
Q 117.169945 36.082428 117.338648 35.726276 
Q 117.507352 35.370124 117.900993 35.145186 
Q 118.294634 34.920248 118.575807 34.807779 
Q 118.856979 34.69531 119.513048 34.639076 
Q 120.169117 34.582841 120.356566 34.582841 
Q 120.544014 34.582841 121.218828 34.582841 
Q 122.418497 34.582841 122.999586 34.995228 
Q 123.580676 35.407614 123.899338 36.026193 
Q 124.218 36.644772 124.480428 36.832221 
" clip-path="url(#p04f174dd39)" style="fill: none; stroke: #000000; stroke-linejoin: miter"/>
   </g>
  </g>
  <g id="axes_9"/>
  <g id="axes_10">
   <g id="patch_9">
    <path d="M 149.063834 37.95691 
L 149.738648 37.95691 
Q 150.450952 37.95691 151.238234 37.881931 
Q 152.025517 37.806952 152.981503 37.675738 
Q 153.93749 37.544524 154.462345 37.507034 
L 158.736166 35.82 
M 154.687283 30.42149 
L 154.687283 31.43371 
Q 154.687283 33.383172 154.012469 37.207117 
Q 153.337655 41.031062 153.337655 43.018014 
Q 153.337655 43.805297 153.337655 44.105214 
Q 153.337655 44.405131 153.431379 45.042455 
Q 153.525103 45.679779 153.712552 45.960952 
Q 153.9 46.242124 154.293641 46.485807 
Q 154.687283 46.72949 155.249628 46.72949 
Q 155.362097 46.692 155.680759 46.72949 
Q 155.999421 46.766979 156.186869 46.710745 
Q 156.374317 46.65451 156.374317 46.392083 
" clip-path="url(#p2a2e58dbaa)" style="fill: none; stroke: #000000; stroke-linejoin: miter"/>
   </g>
  </g>
  <g id="axes_11">
   <g id="patch_10">
    <path d="M 166.613462 35.932469 
Q 167.213297 35.257655 168.206772 34.826524 
Q 169.200248 34.395393 170.1 34.470372 
Q 170.737324 34.470372 171.22469 34.639076 
Q 171.712055 34.807779 172.030717 34.995228 
Q 172.349379 35.182676 172.574317 35.670041 
Q 172.799255 36.157407 172.911724 36.419834 
Q 173.024193 36.682262 173.080428 37.375821 
Q 173.136662 38.069379 173.155407 38.331807 
Q 173.174152 38.594234 173.155407 39.419007 
Q 173.136662 40.243779 173.136662 40.431228 
Q 173.136662 41.368469 172.967959 43.242952 
Q 172.799255 45.117434 172.799255 46.054676 
Q 172.799255 46.467062 172.85549 46.823214 
Q 172.911724 47.179366 173.005448 47.610497 
Q 173.099172 48.041628 173.136662 48.304055 
L 173.586538 48.528993 
M 167.063338 23.111007 
Q 167.288276 24.798041 167.288276 29.971614 
L 167.288276 42.3432 
L 166.950869 46.841959 
L 166.725931 47.74171 
" clip-path="url(#p8d0d523d57)" style="fill: none; stroke: #000000; stroke-linejoin: miter"/>
   </g>
  </g>
  <g id="axes_12">
   <g id="patch_11">
    <path d="M 180.057798 38.160826 
Q 183.030275 39.535596 187.749083 39.721376 
Q 189.272477 39.721376 189.959862 38.550963 
Q 190.647248 37.38055 190.647248 35.82 
Q 190.647248 35.299817 190.554358 34.909679 
Q 190.461468 34.519541 190.219954 34.296606 
Q 189.97844 34.07367 189.811239 33.943624 
Q 189.644037 33.813578 189.198165 33.757844 
Q 188.752294 33.70211 188.547936 33.683532 
Q 188.343578 33.664954 187.767661 33.683532 
Q 187.191743 33.70211 186.968807 33.70211 
Q 184.925229 33.70211 183.438991 35.578486 
Q 181.952752 37.454862 181.952752 39.609908 
Q 181.952752 42.619541 183.884862 44.570229 
Q 185.816972 46.520917 188.863761 46.520917 
Q 191.018807 46.818165 192.542202 44.29156 
" clip-path="url(#pba5c8e98e3)" style="fill: none; stroke: #000000; stroke-linejoin: miter"/>
   </g>
  </g>
  <g id="axes_13"/>
  <g id="axes_14">
   <g id="patch_12">
    <path d="M 212.049016 45.151664 
L 212.309839 29.50229 
L 212.309839 28.893703 
Q 212.309839 28.66186 212.41127 28.299606 
Q 212.512701 27.937352 212.657603 27.937352 
Q 213.555993 27.937352 214.439893 29.270447 
Q 215.323792 30.603542 215.859928 32.19746 
Q 216.396064 33.791377 216.9322 35.124472 
Q 217.468336 36.457567 217.78712 36.457567 
Q 218.279785 36.457567 218.960823 35.023041 
Q 219.64186 33.588515 220.235957 31.849696 
Q 220.830054 30.110877 221.641503 28.676351 
Q 222.452952 27.241825 223.17746 27.241825 
Q 223.872987 27.241825 224.322182 30.632522 
Q 224.771377 34.02322 224.98873 38.50068 
Q 225.206082 42.97814 225.264043 43.325903 
L 225.350984 46.108014 
" clip-path="url(#p4fe696e31b)" style="fill: none; stroke: #000000; stroke-linejoin: miter"/>
   </g>
  </g>
  <g id="axes_15">
   <g id="patch_13">
    <path d="M 238.1616 35.032717 
Q 237.11189 34.582841 236.137159 34.69531 
Q 233.100497 35.032717 231.188524 36.701007 
Q 229.276552 38.369297 229.276552 41.330979 
Q 229.276552 43.917766 231.282248 45.6048 
Q 233.287945 47.291834 235.912221 47.291834 
Q 238.274069 47.291834 239.398759 45.361117 
Q 240.523448 43.4304 240.523448 40.881103 
Q 240.523448 39.643945 240.111062 38.706703 
Q 239.698676 37.769462 239.173821 37.300841 
Q 238.648966 36.832221 237.899172 36.119917 
Q 237.149379 35.407614 236.699503 34.69531 
L 235.462345 34.245434 
" clip-path="url(#p3da69e82b3)" style="fill: none; stroke: #000000; stroke-linejoin: miter"/>
   </g>
  </g>
  <g id="axes_16">
   <g id="patch_14">
    <path d="M 246.488772 35.145186 
Q 246.488772 35.145186 246.488772 35.595062 
Q 246.488772 36.269876 246.376303 37.619503 
Q 246.263834 38.969131 246.263834 39.643945 
Q 246.263834 41.930814 247.500993 43.599103 
Q 248.738152 45.267393 250.875062 45.267393 
Q 252.262179 45.154924 253.030717 43.917766 
Q 253.799255 42.680607 253.949214 41.237255 
Q 254.099172 39.793903 254.3616 37.9944 
Q 254.624028 36.194897 255.036414 35.370124 
Q 255.186372 35.070207 255.186372 35.670041 
Q 255.186372 36.269876 254.923945 38.706703 
Q 254.699007 41.031062 254.699007 41.555917 
Q 254.549048 42.643117 254.886455 43.767807 
Q 255.223862 44.892497 255.936166 45.6048 
" clip-path="url(#p916868283b)" style="fill: none; stroke: #000000; stroke-linejoin: miter"/>
   </g>
  </g>
  <g id="axes_17">
   <g id="patch_15">
    <path d="M 262.838731 37.282097 
L 262.838731 37.844441 
Q 263.101159 39.868883 263.138648 41.312234 
Q 263.176138 42.755586 263.082414 44.667559 
Q 262.98869 46.579531 262.98869 48.191586 
L 263.063669 39.643945 
Q 263.063669 38.144359 264.656979 37.507034 
Q 266.25029 36.86971 267.674897 37.282097 
Q 269.586869 37.844441 270.505366 39.04411 
Q 271.423862 40.243779 271.480097 41.668386 
Q 271.536331 43.092993 271.573821 44.817517 
Q 271.61131 46.542041 271.761269 48.191586 
" clip-path="url(#pe76a55a429)" style="fill: none; stroke: #000000; stroke-linejoin: miter"/>
   </g>
  </g>
  <g id="axes_18">
   <g id="patch_16">
    <path d="M 278.663834 37.95691 
L 279.338648 37.95691 
Q 280.050952 37.95691 280.838234 37.881931 
Q 281.625517 37.806952 282.581503 37.675738 
Q 283.53749 37.544524 284.062345 37.507034 
L 288.336166 35.82 
M 284.287283 30.42149 
L 284.287283 31.43371 
Q 284.287283 33.383172 283.612469 37.207117 
Q 282.937655 41.031062 282.937655 43.018014 
Q 282.937655 43.805297 282.937655 44.105214 
Q 282.937655 44.405131 283.031379 45.042455 
Q 283.125103 45.679779 283.312552 45.960952 
Q 283.5 46.242124 283.893641 46.485807 
Q 284.287283 46.72949 284.849628 46.72949 
Q 284.962097 46.692 285.280759 46.72949 
Q 285.599421 46.766979 285.786869 46.710745 
Q 285.974317 46.65451 285.974317 46.392083 
" clip-path="url(#pa05ed05a9a)" style="fill: none; stroke: #000000; stroke-linejoin: miter"/>
   </g>
  </g>
  <g id="axes_19">
   <g id="patch_17">
    <path d="M 305.243923 36.441748 
Q 304.034968 35.094627 300.062687 35.094627 
Q 298.542857 35.094627 297.765672 35.146439 
Q 296.988486 35.198252 295.98678 35.440043 
Q 294.985075 35.681834 294.501493 36.182687 
Q 294.01791 36.683539 293.672495 37.616162 
Q 293.327079 38.548785 293.327079 39.964989 
Q 293.327079 42.037484 294.743284 43.280981 
Q 296.159488 44.524478 298.093817 44.524478 
Q 300.753518 44.524478 303.516844 38.721493 
Q 304.863966 35.854542 304.863966 35.82 
Q 305.209382 35.578209 305.243923 36.441748 
Q 305.243923 37.512537 305.658422 40.362217 
Q 306.072921 43.211898 306.072921 44.524478 
" clip-path="url(#p159c12c2db)" style="fill: none; stroke: #000000; stroke-linejoin: miter"/>
   </g>
  </g>
  <g id="axes_20">
   <g id="patch_18">
    <path d="M 316.518579 29.071862 
Q 316.143683 29.146841 316.012469 29.577972 
Q 315.881255 30.009103 315.956234 30.42149 
Q 315.956234 30.571448 315.993724 30.702662 
Q 316.031214 30.833876 316.087448 30.89011 
Q 316.143683 30.946345 316.199917 31.040069 
Q 316.256152 31.133793 316.293641 31.208772 
L 316.40611 29.859145 
M 316.40611 34.020497 
Q 315.506359 39.006621 315.281421 42.793076 
L 315.731297 45.379862 
L 316.068703 46.054676 
" clip-path="url(#p71c4db2c4d)" style="fill: none; stroke: #000000; stroke-linejoin: miter"/>
   </g>
  </g>
  <g id="axes_21">
   <g id="patch_19">
    <path d="M 327.638731 37.282097 
L 327.638731 37.844441 
Q 327.901159 39.868883 327.938648 41.312234 
Q 327.976138 42.755586 327.882414 44.667559 
Q 327.78869 46.579531 327.78869 48.191586 
L 327.863669 39.643945 
Q 327.863669 38.144359 329.456979 37.507034 
Q 331.05029 36.86971 332.474897 37.282097 
Q 334.386869 37.844441 335.305366 39.04411 
Q 336.223862 40.243779 336.280097 41.668386 
Q 336.336331 43.092993 336.373821 44.817517 
Q 336.41131 46.542041 336.561269 48.191586 
" clip-path="url(#pb19af49a27)" style="fill: none; stroke: #000000; stroke-linejoin: miter"/>
   </g>
  </g>
  <g id="axes_22"/>
  <g id="axes_23">
   <g id="patch_20">
    <path d="M 358.884861 27.235936 
Q 358.884861 27.235936 361.208367 27.235936 
Q 362.499203 27.235936 363.112351 27.252072 
Q 363.725498 27.268207 364.967928 27.36502 
Q 366.210359 27.461833 366.855777 27.639323 
Q 367.501195 27.816813 368.420916 28.204064 
Q 369.340637 28.591315 369.808566 29.13992 
Q 370.276494 29.688526 370.631474 30.559841 
Q 370.986454 31.431155 370.986454 32.560637 
Q 370.986454 33.464223 370.663745 34.158048 
Q 370.341036 34.851873 369.873108 35.28753 
Q 369.405179 35.723187 368.630677 36.013625 
Q 367.856175 36.304064 367.162351 36.449283 
Q 366.468526 36.594502 365.484263 36.642908 
Q 364.5 36.691315 363.838446 36.691315 
Q 363.176892 36.691315 362.192629 36.659044 
Q 361.208367 36.626773 360.821116 36.626773 
Q 360.788845 36.626773 359.175299 36.52996 
L 358.013546 35.852271 
M 359.465737 27.526375 
L 359.465737 28.010438 
Q 359.465737 29.785339 359.691633 31.818406 
Q 359.91753 33.851474 360.288645 36.336335 
Q 360.659761 38.821195 360.821116 40.112032 
L 361.240637 46.921195 
" clip-path="url(#p72b1320a85)" style="fill: none; stroke: #000000; stroke-linejoin: miter"/>
   </g>
  </g>
  <g id="axes_24">
   <g id="patch_21">
    <path d="M 386.243923 36.441748 
Q 385.034968 35.094627 381.062687 35.094627 
Q 379.542857 35.094627 378.765672 35.146439 
Q 377.988486 35.198252 376.98678 35.440043 
Q 375.985075 35.681834 375.501493 36.182687 
Q 375.01791 36.683539 374.672495 37.616162 
Q 374.327079 38.548785 374.327079 39.964989 
Q 374.327079 42.037484 375.743284 43.280981 
Q 377.159488 44.524478 379.093817 44.524478 
Q 381.753518 44.524478 384.516844 38.721493 
Q 385.863966 35.854542 385.863966 35.82 
Q 386.209382 35.578209 386.243923 36.441748 
Q 386.243923 37.512537 386.658422 40.362217 
Q 387.072921 43.211898 387.072921 44.524478 
" clip-path="url(#pa12a0e7962)" style="fill: none; stroke: #000000; stroke-linejoin: miter"/>
   </g>
  </g>
  <g id="axes_25">
   <g id="patch_22">
    <path d="M 392.457476 43.917766 
Q 392.757393 44.180193 393.769614 45.154924 
Q 394.781834 46.129655 395.344179 46.560786 
Q 395.906524 46.991917 396.93749 47.385559 
Q 397.968455 47.7792 398.980676 47.629241 
Q 399.65549 47.629241 400.12411 47.404303 
Q 400.592731 47.179366 400.817669 46.879448 
Q 401.042607 46.579531 401.173821 45.979697 
Q 401.305034 45.379862 401.323779 44.967476 
Q 401.342524 44.55509 401.342524 43.805297 
Q 401.342524 42.718097 400.442772 42.043283 
Q 399.543021 41.368469 398.249628 41.031062 
Q 396.956234 40.693655 395.662841 40.300014 
Q 394.369448 39.906372 393.469697 38.987876 
Q 392.569945 38.069379 392.569945 36.607283 
Q 392.569945 36.082428 392.738648 35.726276 
Q 392.907352 35.370124 393.300993 35.145186 
Q 393.694634 34.920248 393.975807 34.807779 
Q 394.256979 34.69531 394.913048 34.639076 
Q 395.569117 34.582841 395.756566 34.582841 
Q 395.944014 34.582841 396.618828 34.582841 
Q 397.818497 34.582841 398.399586 34.995228 
Q 398.980676 35.407614 399.299338 36.026193 
Q 399.618 36.644772 399.880428 36.832221 
" clip-path="url(#pa4742dcaa8)" style="fill: none; stroke: #000000; stroke-linejoin: miter"/>
   </g>
  </g>
  <g id="axes_26">
   <g id="patch_23">
    <path d="M 408.657476 43.917766 
Q 408.957393 44.180193 409.969614 45.154924 
Q 410.981834 46.129655 411.544179 46.560786 
Q 412.106524 46.991917 413.13749 47.385559 
Q 414.168455 47.7792 415.180676 47.629241 
Q 415.85549 47.629241 416.32411 47.404303 
Q 416.792731 47.179366 417.017669 46.879448 
Q 417.242607 46.579531 417.373821 45.979697 
Q 417.505034 45.379862 417.523779 44.967476 
Q 417.542524 44.55509 417.542524 43.805297 
Q 417.542524 42.718097 416.642772 42.043283 
Q 415.743021 41.368469 414.449628 41.031062 
Q 413.156234 40.693655 411.862841 40.300014 
Q 410.569448 39.906372 409.669697 38.987876 
Q 408.769945 38.069379 408.769945 36.607283 
Q 408.769945 36.082428 408.938648 35.726276 
Q 409.107352 35.370124 409.500993 35.145186 
Q 409.894634 34.920248 410.175807 34.807779 
Q 410.456979 34.69531 411.113048 34.639076 
Q 411.769117 34.582841 411.956566 34.582841 
Q 412.144014 34.582841 412.818828 34.582841 
Q 414.018497 34.582841 414.599586 34.995228 
Q 415.180676 35.407614 415.499338 36.026193 
Q 415.818 36.644772 416.080428 36.832221 
" clip-path="url(#p74f577242e)" style="fill: none; stroke: #000000; stroke-linejoin: miter"/>
   </g>
  </g>
  <g id="axes_27"/>
  <g id="axes_28">
   <g id="patch_24">
    <path d="M 451.748571 31.763193 
Q 450.00605 29.585042 448.059328 28.972437 
Q 446.112605 28.359832 443.335462 29.285546 
Q 441.456807 29.966218 440.109076 31.817647 
Q 438.761345 33.669076 438.761345 35.411597 
Q 438.761345 38.760504 441.388739 41.415126 
Q 444.016134 44.069748 447.256134 44.069748 
Q 448.100168 44.069748 448.78084 43.729412 
Q 449.461513 43.389076 449.856303 42.953445 
Q 450.251092 42.517815 450.822857 41.918824 
Q 451.394622 41.319832 451.911933 40.965882 
L 452.238655 40.149076 
" clip-path="url(#p9115f656a4)" style="fill: none; stroke: #000000; stroke-linejoin: miter"/>
   </g>
  </g>
  <g id="axes_29">
   <g id="patch_25">
    <path d="M 467.243923 36.441748 
Q 466.034968 35.094627 462.062687 35.094627 
Q 460.542857 35.094627 459.765672 35.146439 
Q 458.988486 35.198252 457.98678 35.440043 
Q 456.985075 35.681834 456.501493 36.182687 
Q 456.01791 36.683539 455.672495 37.616162 
Q 455.327079 38.548785 455.327079 39.964989 
Q 455.327079 42.037484 456.743284 43.280981 
Q 458.159488 44.524478 460.093817 44.524478 
Q 462.753518 44.524478 465.516844 38.721493 
Q 466.863966 35.854542 466.863966 35.82 
Q 467.209382 35.578209 467.243923 36.441748 
Q 467.243923 37.512537 467.658422 40.362217 
Q 468.072921 43.211898 468.072921 44.524478 
" clip-path="url(#p2d60b0c440)" style="fill: none; stroke: #000000; stroke-linejoin: miter"/>
   </g>
  </g>
  <g id="axes_30">
   <g id="patch_26">
    <path d="M 471.608036 34.879821 
Q 472.114286 36.073125 472.403571 42.871339 
Q 472.548214 46.632054 472.8375 46.632054 
Q 472.873661 46.632054 472.909821 46.595893 
Q 473.416071 46.017321 473.470313 44.588973 
Q 473.524554 43.160625 473.307589 41.750357 
Q 473.090625 40.340089 472.8375 38.712857 
Q 472.584375 37.085625 472.584375 36.398571 
Q 472.584375 35.169107 472.964063 33.939643 
Q 473.34375 32.710179 474.320089 32.710179 
Q 475.549554 32.710179 476.272768 34.355491 
Q 476.995982 36.000804 477.158705 37.971563 
Q 477.321429 39.942321 477.429911 41.587634 
Q 477.538393 43.232946 477.683036 43.232946 
Q 477.827679 43.232946 477.91808 41.497232 
Q 478.008482 39.761518 478.135045 37.700357 
Q 478.261607 35.639196 478.984821 33.903482 
Q 479.708036 32.167768 480.9375 32.167768 
Q 482.492411 33.035625 483.161384 34.771339 
Q 483.830357 36.507054 483.794196 38.188527 
Q 483.758036 39.87 483.776116 42.057723 
Q 483.794196 44.245446 484.191964 45.511071 
" clip-path="url(#pa7e118c4fe)" style="fill: none; stroke: #000000; stroke-linejoin: miter"/>
   </g>
  </g>
  <g id="axes_31">
   <g id="patch_27">
    <path d="M 489.320069 39.868883 
L 489.320069 39.419007 
Q 489.320069 37.769462 491.063338 36.682262 
Q 492.806607 35.595062 494.493641 35.595062 
Q 496.705531 35.595062 498.073903 36.794731 
Q 499.442276 37.9944 499.442276 40.20629 
Q 499.442276 42.30571 497.624028 43.336676 
Q 495.805779 44.367641 493.59389 44.367641 
Q 492.919076 44.367641 492.412966 44.255172 
Q 491.906855 44.142703 491.288276 43.917766 
Q 490.669697 43.692828 490.219821 43.580359 
L 489.095131 42.568138 
M 488.757724 36.832221 
Q 489.2076 38.444276 489.470028 40.262524 
Q 489.732455 42.080772 489.78869 43.749062 
Q 489.844924 45.417352 489.882414 47.27309 
Q 489.919903 49.128828 489.882414 50.778372 
L 489.769945 57.863917 
" clip-path="url(#pcfb8ea20fa)" style="fill: none; stroke: #000000; stroke-linejoin: miter"/>
   </g>
  </g>
  <g id="axes_32">
   <g id="patch_28">
    <path d="M 510.918579 29.071862 
Q 510.543683 29.146841 510.412469 29.577972 
Q 510.281255 30.009103 510.356234 30.42149 
Q 510.356234 30.571448 510.393724 30.702662 
Q 510.431214 30.833876 510.487448 30.89011 
Q 510.543683 30.946345 510.599917 31.040069 
Q 510.656152 31.133793 510.693641 31.208772 
L 510.80611 29.859145 
M 510.80611 34.020497 
Q 509.906359 39.006621 509.681421 42.793076 
L 510.131297 45.379862 
L 510.468703 46.054676 
" clip-path="url(#pc85fa6bc46)" style="fill: none; stroke: #000000; stroke-linejoin: miter"/>
   </g>
  </g>
  <g id="axes_33">
   <g id="patch_29">
    <path d="M 522.038731 37.282097 
L 522.038731 37.844441 
Q 522.301159 39.868883 522.338648 41.312234 
Q 522.376138 42.755586 522.282414 44.667559 
Q 522.18869 46.579531 522.18869 48.191586 
L 522.263669 39.643945 
Q 522.263669 38.144359 523.856979 37.507034 
Q 525.45029 36.86971 526.874897 37.282097 
Q 528.786869 37.844441 529.705366 39.04411 
Q 530.623862 40.243779 530.680097 41.668386 
Q 530.736331 43.092993 530.773821 44.817517 
Q 530.81131 46.542041 530.961269 48.191586 
" clip-path="url(#p9f029778d7)" style="fill: none; stroke: #000000; stroke-linejoin: miter"/>
   </g>
  </g>
  <g id="axes_34">
   <g id="patch_30">
    <path d="M 547.487191 39.096404 
Q 547.23236 39.023596 546.26764 38.623146 
Q 545.302921 38.222697 544.64764 38.077079 
Q 543.99236 37.931461 543.337079 38.00427 
Q 540.715955 38.00427 539.077753 40.388764 
Q 537.439551 42.773258 537.439551 45.430787 
Q 537.439551 47.068989 542.681798 47.068989 
Q 544.247191 47.068989 545.575955 45.558202 
Q 546.904719 44.047416 547.578202 42.172584 
Q 548.251685 40.297753 548.251685 38.768764 
Q 548.251685 37.27618 548.215281 36.984944 
L 548.142472 38.077079 
Q 548.142472 38.550337 548.142472 38.987191 
Q 548.178876 40.188539 548.379101 42.281798 
Q 548.579326 44.375056 548.743146 46.049663 
Q 548.906966 47.72427 548.943371 49.872135 
Q 548.979775 52.02 548.815955 53.658202 
Q 548.652135 55.296404 548.087865 56.971011 
Q 547.523596 58.645618 546.595281 59.737753 
Q 545.666966 60.829888 544.065169 61.521573 
Q 542.463371 62.213258 540.315506 62.213258 
Q 538.677303 62.213258 537.585169 61.466966 
Q 536.493034 60.720674 536.493034 59.155281 
Q 536.420225 58.936854 536.456629 58.936854 
Q 536.493034 58.936854 536.602247 58.936854 
Q 536.711461 58.936854 536.711461 58.82764 
" clip-path="url(#pb3f19410d5)" style="fill: none; stroke: #000000; stroke-linejoin: miter"/>
   </g>
  </g>
  <g id="axes_35"/>
  <g id="axes_36">
   <g id="patch_31">
    <path d="M 580.690534 37.074733 
L 577.344578 37.158382 
L 580.021343 37.158382 
Q 580.049225 37.158382 580.258348 37.144441 
Q 580.46747 37.130499 580.634768 37.144441 
Q 580.802065 37.158382 581.011188 37.172324 
Q 581.22031 37.186265 581.331842 37.242031 
Q 581.443373 37.297797 581.443373 37.409329 
L 581.443373 41.340826 
Q 581.638554 42.205198 581.652496 43.585404 
Q 581.666437 44.965611 581.805852 45.718451 
M 581.108778 28.207952 
Q 578.320482 27.34358 576.424441 27.538761 
Q 568.394148 27.538761 568.394148 35.82 
Q 568.394148 37.074733 568.8821 38.678003 
Q 569.370052 40.281274 570.178657 41.759071 
Q 570.987263 43.236867 572.241997 44.254596 
Q 573.49673 45.272324 574.835112 45.272324 
Q 575.894664 45.272324 576.898451 44.533425 
Q 577.902238 43.794527 578.529604 42.88833 
Q 579.156971 41.982134 579.951635 40.824991 
Q 580.746299 39.667849 581.276076 39.165955 
L 581.108778 37.409329 
L 580.690534 37.074733 
" clip-path="url(#pd07c85b386)" style="fill: none; stroke: #000000; stroke-linejoin: miter"/>
   </g>
  </g>
  <g id="axes_37">
   <g id="patch_32">
    <path d="M 587.813462 32.783338 
Q 588.338317 34.507862 588.469531 36.457324 
Q 588.600745 38.406786 588.525766 40.956083 
Q 588.450786 43.505379 588.488276 44.705048 
L 588.600745 46.054676 
L 588.600745 45.829738 
Q 588.600745 44.667559 588.319572 42.30571 
Q 588.0384 39.943862 588.0384 38.744193 
Q 588.0384 36.419834 589.050621 34.882759 
Q 590.062841 33.345683 592.087283 33.345683 
Q 592.799586 33.345683 593.136993 33.626855 
Q 593.4744 33.908028 593.736828 34.432883 
Q 593.999255 34.957738 594.336662 35.257655 
L 594.786538 36.832221 
" clip-path="url(#pc5e5a3e9d8)" style="fill: none; stroke: #000000; stroke-linejoin: miter"/>
   </g>
  </g>
  <g id="axes_38">
   <g id="patch_33">
    <path d="M 610.7616 35.032717 
Q 609.71189 34.582841 608.737159 34.69531 
Q 605.700497 35.032717 603.788524 36.701007 
Q 601.876552 38.369297 601.876552 41.330979 
Q 601.876552 43.917766 603.882248 45.6048 
Q 605.887945 47.291834 608.512221 47.291834 
Q 610.874069 47.291834 611.998759 45.361117 
Q 613.123448 43.4304 613.123448 40.881103 
Q 613.123448 39.643945 612.711062 38.706703 
Q 612.298676 37.769462 611.773821 37.300841 
Q 611.248966 36.832221 610.499172 36.119917 
Q 609.749379 35.407614 609.299503 34.69531 
L 608.062345 34.245434 
" clip-path="url(#p5cd5a9f268)" style="fill: none; stroke: #000000; stroke-linejoin: miter"/>
   </g>
  </g>
  <g id="axes_39">
   <g id="patch_34">
    <path d="M 619.088772 35.145186 
Q 619.088772 35.145186 619.088772 35.595062 
Q 619.088772 36.269876 618.976303 37.619503 
Q 618.863834 38.969131 618.863834 39.643945 
Q 618.863834 41.930814 620.100993 43.599103 
Q 621.338152 45.267393 623.475062 45.267393 
Q 624.862179 45.154924 625.630717 43.917766 
Q 626.399255 42.680607 626.549214 41.237255 
Q 626.699172 39.793903 626.9616 37.9944 
Q 627.224028 36.194897 627.636414 35.370124 
Q 627.786372 35.070207 627.786372 35.670041 
Q 627.786372 36.269876 627.523945 38.706703 
Q 627.299007 41.031062 627.299007 41.555917 
Q 627.149048 42.643117 627.486455 43.767807 
Q 627.823862 44.892497 628.536166 45.6048 
" clip-path="url(#p6a421c32f3)" style="fill: none; stroke: #000000; stroke-linejoin: miter"/>
   </g>
  </g>
  <g id="axes_40">
   <g id="patch_35">
    <path d="M 635.438731 37.282097 
L 635.438731 37.844441 
Q 635.701159 39.868883 635.738648 41.312234 
Q 635.776138 42.755586 635.682414 44.667559 
Q 635.58869 46.579531 635.58869 48.191586 
L 635.663669 39.643945 
Q 635.663669 38.144359 637.256979 37.507034 
Q 638.85029 36.86971 640.274897 37.282097 
Q 642.186869 37.844441 643.105366 39.04411 
Q 644.023862 40.243779 644.080097 41.668386 
Q 644.136331 43.092993 644.173821 44.817517 
Q 644.21131 46.542041 644.361269 48.191586 
" clip-path="url(#p56ed2a7081)" style="fill: none; stroke: #000000; stroke-linejoin: miter"/>
   </g>
  </g>
  <g id="axes_41">
   <g id="patch_36">
    <path d="M 659.699007 39.568966 
Q 658.349379 38.181848 656.1 38.444276 
Q 653.250786 38.444276 652.088607 39.793903 
Q 650.926428 41.143531 650.926428 44.067724 
Q 650.926428 45.56731 652.219821 46.279614 
Q 653.513214 46.991917 655.087779 46.991917 
Q 656.399917 46.991917 657.412138 45.736014 
Q 658.424359 44.48011 659.005448 42.30571 
Q 659.586538 40.13131 659.961434 37.938166 
Q 660.336331 35.745021 660.48629 33.045766 
Q 660.636248 30.34651 660.673738 28.978138 
Q 660.711228 27.609766 660.711228 26.185159 
Q 660.48629 26.260138 660.48629 29.896634 
L 660.48629 44.292662 
L 661.273572 48.229076 
" clip-path="url(#ped79045b1a)" style="fill: none; stroke: #000000; stroke-linejoin: miter"/>
   </g>
  </g>
  <g id="axes_42">
   <g id="patch_37">
    <path d="M 671.587697 39.981352 
Q 672.599917 40.956083 672.937324 42.905545 
Q 673.124772 43.955255 672.712386 46.167145 
L 671.475228 47.629241 
" clip-path="url(#p7615172a0a)" style="fill: none; stroke: #000000; stroke-linejoin: miter"/>
   </g>
  </g>
 </g>
 <defs>
  <clipPath id="pbad58a9e14">
   <rect x="0" y="10.936525" width="16.2" height="49.766949"/>
  </clipPath>
  <clipPath id="p7210312a60">
   <rect x="18.938979" y="8.64" width="10.722041" height="54.36"/>
  </clipPath>
  <clipPath id="pe782029e28">
   <rect x="33.002069" y="8.64" width="14.995862" height="54.36"/>
  </clipPath>
  <clipPath id="pda63ddaacf">
   <rect x="67.538979" y="8.64" width="10.722041" height="54.36"/>
  </clipPath>
  <clipPath id="p3f40ba38f3">
   <rect x="82.389352" y="8.64" width="13.421297" height="54.36"/>
  </clipPath>
  <clipPath id="p04071d6a08">
   <rect x="98.964248" y="8.64" width="12.671503" height="54.36"/>
  </clipPath>
  <clipPath id="p04f174dd39">
   <rect x="115.182993" y="8.64" width="12.634014" height="54.36"/>
  </clipPath>
  <clipPath id="p2a2e58dbaa">
   <rect x="147.189352" y="8.64" width="13.421297" height="54.36"/>
  </clipPath>
  <clipPath id="p8d0d523d57">
   <rect x="164.738979" y="8.64" width="10.722041" height="54.36"/>
  </clipPath>
  <clipPath id="pba5c8e98e3">
   <rect x="178.2" y="8.881927" width="16.2" height="53.876147"/>
  </clipPath>
  <clipPath id="p4fe696e31b">
   <rect x="210.6" y="14.809267" width="16.2" height="42.021467"/>
  </clipPath>
  <clipPath id="p3da69e82b3">
   <rect x="227.402069" y="8.64" width="14.995862" height="54.36"/>
  </clipPath>
  <clipPath id="p916868283b">
   <rect x="244.389352" y="8.64" width="13.421297" height="54.36"/>
  </clipPath>
  <clipPath id="pe76a55a429">
   <rect x="260.964248" y="8.64" width="12.671503" height="54.36"/>
  </clipPath>
  <clipPath id="pa05ed05a9a">
   <rect x="276.789352" y="8.64" width="13.421297" height="54.36"/>
  </clipPath>
  <clipPath id="p159c12c2db">
   <rect x="291.6" y="10.777356" width="16.2" height="50.085288"/>
  </clipPath>
  <clipPath id="p71c4db2c4d">
   <rect x="313.406938" y="8.64" width="4.986124" height="54.36"/>
  </clipPath>
  <clipPath id="pb19af49a27">
   <rect x="325.764248" y="8.64" width="12.671503" height="54.36"/>
  </clipPath>
  <clipPath id="p72b1320a85">
   <rect x="356.4" y="12.423586" width="16.2" height="46.792829"/>
  </clipPath>
  <clipPath id="pa12a0e7962">
   <rect x="372.6" y="10.777356" width="16.2" height="50.085288"/>
  </clipPath>
  <clipPath id="pa4742dcaa8">
   <rect x="390.582993" y="8.64" width="12.634014" height="54.36"/>
  </clipPath>
  <clipPath id="p74f577242e">
   <rect x="406.782993" y="8.64" width="12.634014" height="54.36"/>
  </clipPath>
  <clipPath id="p9115f656a4">
   <rect x="437.4" y="16.080504" width="16.2" height="39.478992"/>
  </clipPath>
  <clipPath id="p2d60b0c440">
   <rect x="453.6" y="10.777356" width="16.2" height="50.085288"/>
  </clipPath>
  <clipPath id="pa7e118c4fe">
   <rect x="469.8" y="9.603482" width="16.2" height="52.433036"/>
  </clipPath>
  <clipPath id="pcfb8ea20fa">
   <rect x="486.883241" y="8.64" width="14.433517" height="54.36"/>
  </clipPath>
  <clipPath id="pc85fa6bc46">
   <rect x="507.806938" y="8.64" width="4.986124" height="54.36"/>
  </clipPath>
  <clipPath id="p9f029778d7">
   <rect x="520.164248" y="8.64" width="12.671503" height="54.36"/>
  </clipPath>
  <clipPath id="pb3f19410d5">
   <rect x="534.6" y="9.426742" width="16.2" height="52.786517"/>
  </clipPath>
  <clipPath id="pd07c85b386">
   <rect x="567" y="15.604854" width="16.2" height="40.430293"/>
  </clipPath>
  <clipPath id="pc5e5a3e9d8">
   <rect x="585.938979" y="8.64" width="10.722041" height="54.36"/>
  </clipPath>
  <clipPath id="p5cd5a9f268">
   <rect x="600.002069" y="8.64" width="14.995862" height="54.36"/>
  </clipPath>
  <clipPath id="p6a421c32f3">
   <rect x="616.989352" y="8.64" width="13.421297" height="54.36"/>
  </clipPath>
  <clipPath id="p56ed2a7081">
   <rect x="633.564248" y="8.64" width="12.671503" height="54.36"/>
  </clipPath>
  <clipPath id="ped79045b1a">
   <rect x="649.051945" y="8.64" width="14.09611" height="54.36"/>
  </clipPath>
  <clipPath id="p7615172a0a">
   <rect x="669.600745" y="8.64" width="5.39851" height="54.36"/>
  </clipPath>
 </defs>
</svg>
