<?xml version="1.0" encoding="utf-8" standalone="no"?>
<!DOCTYPE svg PUBLIC "-//W3C//DTD SVG 1.1//EN"
  "http://www.w3.org/Graphics/SVG/1.1/DTD/svg11.dtd">
<svg xmlns:xlink="http://www.w3.org/1999/xlink" width="792pt" height="72pt" viewBox="0 0 792 72" xmlns="http://www.w3.org/2000/svg" version="1.1">
 <metadata>
  <rdf:RDF xmlns:dc="http://purl.org/dc/elements/1.1/" xmlns:cc="http://creativecommons.org/ns#" xmlns:rdf="http://www.w3.org/1999/02/22-rdf-syntax-ns#">
   <cc:Work>
    <dc:type rdf:resource="http://purl.org/dc/dcmitype/StillImage"/>
    <dc:date>2023-12-21T11:52:40.739057</dc:date>
    <dc:format>image/svg+xml</dc:format>
    <dc:creator>
     <cc:Agent>
      <dc:title>Matplotlib v3.5.1, https://matplotlib.org/</dc:title>
     </cc:Agent>
    </dc:creator>
   </cc:Work>
  </rdf:RDF>
 </metadata>
 <defs>
  <style type="text/css">*{stroke-linejoin: round; stroke-linecap: butt}</style>
 </defs>
 <g id="figure_1">
  <g id="patch_1">
   <path d="M 0 72 
L 792 72 
L 792 0 
L 0 0 
z
" style="fill: #8fff9f"/>
  </g>
  <g id="axes_1">
   <g id="patch_2">
    <path d="M 8.624855 27.009931 
Q 8.699834 27.347338 8.774814 28.265834 
Q 8.849793 29.184331 8.999752 29.634207 
L 8.924772 31.058814 
M 7.275228 27.309848 
Q 7.237738 27.309848 7.200248 27.534786 
Q 7.237738 27.684745 7.350207 28.828179 
Q 7.462676 29.971614 7.725103 30.533959 
" clip-path="url(#pee582251ee)" style="fill: none; stroke: #000000; stroke-linejoin: miter"/>
   </g>
  </g>
  <g id="axes_2">
   <g id="patch_3">
    <path d="M 17.649016 45.151664 
L 17.909839 29.50229 
L 17.909839 28.893703 
Q 17.909839 28.66186 18.01127 28.299606 
Q 18.112701 27.937352 18.257603 27.937352 
Q 19.155993 27.937352 20.039893 29.270447 
Q 20.923792 30.603542 21.459928 32.19746 
Q 21.996064 33.791377 22.5322 35.124472 
Q 23.068336 36.457567 23.38712 36.457567 
Q 23.879785 36.457567 24.560823 35.023041 
Q 25.24186 33.588515 25.835957 31.849696 
Q 26.430054 30.110877 27.241503 28.676351 
Q 28.052952 27.241825 28.77746 27.241825 
Q 29.472987 27.241825 29.922182 30.632522 
Q 30.371377 34.02322 30.58873 38.50068 
Q 30.806082 42.97814 30.864043 43.325903 
L 30.950984 46.108014 
" clip-path="url(#pc620247413)" style="fill: none; stroke: #000000; stroke-linejoin: miter"/>
   </g>
  </g>
  <g id="axes_3">
   <g id="patch_4">
    <path d="M 46.043923 36.441748 
Q 44.834968 35.094627 40.862687 35.094627 
Q 39.342857 35.094627 38.565672 35.146439 
Q 37.788486 35.198252 36.78678 35.440043 
Q 35.785075 35.681834 35.301493 36.182687 
Q 34.81791 36.683539 34.472495 37.616162 
Q 34.127079 38.548785 34.127079 39.964989 
Q 34.127079 42.037484 35.543284 43.280981 
Q 36.959488 44.524478 38.893817 44.524478 
Q 41.553518 44.524478 44.316844 38.721493 
Q 45.663966 35.854542 45.663966 35.82 
Q 46.009382 35.578209 46.043923 36.441748 
Q 46.043923 37.512537 46.458422 40.362217 
Q 46.872921 43.211898 46.872921 44.524478 
" clip-path="url(#pa03c495ec4)" style="fill: none; stroke: #000000; stroke-linejoin: miter"/>
   </g>
  </g>
  <g id="axes_4">
   <g id="patch_5">
    <path d="M 51.563917 36.382345 
Q 51.526428 36.494814 51.657641 36.701007 
Q 51.788855 36.9072 51.676386 37.057159 
L 51.676386 39.306538 
Q 51.676386 40.506207 52.013793 41.724621 
Q 52.3512 42.943034 53.213462 43.93651 
Q 54.075724 44.929986 55.275393 44.929986 
Q 56.512552 44.929986 57.187366 43.861531 
Q 57.862179 42.793076 58.312055 41.143531 
Q 58.761931 39.493986 59.099338 38.969131 
L 59.886621 36.382345 
L 59.661683 42.680607 
L 59.661683 45.154924 
Q 59.661683 47.066897 60.392731 51.00331 
Q 61.123779 54.939724 61.123779 56.964166 
Q 61.873572 59.213545 60.786372 60.188276 
Q 59.699172 61.163007 57.637241 60.78811 
Q 55.837738 60.488193 54.919241 60.169531 
Q 54.000745 59.850869 52.013793 58.988607 
L 51.901324 58.426262 
" clip-path="url(#pded495911c)" style="fill: none; stroke: #000000; stroke-linejoin: miter"/>
   </g>
  </g>
  <g id="axes_5">
   <g id="patch_6">
    <path d="M 69.357228 37.244607 
Q 70.406938 37.207117 70.594386 37.132138 
Q 74.005945 37.132138 75.786703 39.212814 
Q 77.567462 41.29349 77.567462 44.780028 
Q 77.567462 47.704221 72.956234 47.704221 
Q 72.31891 47.704221 71.77531 47.591752 
Q 71.23171 47.479283 70.594386 47.254345 
Q 69.957062 47.029407 69.469697 46.916938 
L 68.232538 45.679779 
M 69.244759 25.435366 
L 69.244759 26.560055 
Q 69.244759 29.409269 69.357228 33.008276 
Q 69.469697 36.607283 69.657145 40.899848 
Q 69.844593 45.192414 69.919572 47.141876 
" clip-path="url(#pc2cf2f597c)" style="fill: none; stroke: #000000; stroke-linejoin: miter"/>
   </g>
  </g>
  <g id="axes_6">
   <g id="patch_7">
    <path d="M 82.857798 38.160826 
Q 85.830275 39.535596 90.549083 39.721376 
Q 92.072477 39.721376 92.759862 38.550963 
Q 93.447248 37.38055 93.447248 35.82 
Q 93.447248 35.299817 93.354358 34.909679 
Q 93.261468 34.519541 93.019954 34.296606 
Q 92.77844 34.07367 92.611239 33.943624 
Q 92.444037 33.813578 91.998165 33.757844 
Q 91.552294 33.70211 91.347936 33.683532 
Q 91.143578 33.664954 90.567661 33.683532 
Q 89.991743 33.70211 89.768807 33.70211 
Q 87.725229 33.70211 86.238991 35.578486 
Q 84.752752 37.454862 84.752752 39.609908 
Q 84.752752 42.619541 86.684862 44.570229 
Q 88.616972 46.520917 91.663761 46.520917 
Q 93.818807 46.818165 95.342202 44.29156 
" clip-path="url(#pe3dc0f992f)" style="fill: none; stroke: #000000; stroke-linejoin: miter"/>
   </g>
  </g>
  <g id="axes_7">
   <g id="patch_8">
    <path d="M 105.187531 45.979697 
Q 105.150041 46.017186 105.018828 46.054676 
Q 104.887614 46.092166 104.925103 46.167145 
Q 104.925103 46.579531 105.3 46.579531 
Q 105.637407 46.579531 105.637407 46.092166 
Q 105.712386 45.867228 105.431214 45.754759 
Q 105.150041 45.64229 104.962593 45.754759 
" clip-path="url(#p4a32fecc90)" style="fill: none; stroke: #000000; stroke-linejoin: miter"/>
   </g>
  </g>
  <g id="axes_8">
   <g id="patch_9">
    <path d="M 121.387531 45.979697 
Q 121.350041 46.017186 121.218828 46.054676 
Q 121.087614 46.092166 121.125103 46.167145 
Q 121.125103 46.579531 121.5 46.579531 
Q 121.837407 46.579531 121.837407 46.092166 
Q 121.912386 45.867228 121.631214 45.754759 
Q 121.350041 45.64229 121.162593 45.754759 
" clip-path="url(#p12afee45a8)" style="fill: none; stroke: #000000; stroke-linejoin: miter"/>
   </g>
  </g>
  <g id="axes_9">
   <g id="patch_10">
    <path d="M 137.587531 45.979697 
Q 137.550041 46.017186 137.418828 46.054676 
Q 137.287614 46.092166 137.325103 46.167145 
Q 137.325103 46.579531 137.7 46.579531 
Q 138.037407 46.579531 138.037407 46.092166 
Q 138.112386 45.867228 137.831214 45.754759 
Q 137.550041 45.64229 137.362593 45.754759 
" clip-path="url(#pb7123da8c4)" style="fill: none; stroke: #000000; stroke-linejoin: miter"/>
   </g>
  </g>
  <g id="axes_10"/>
  <g id="axes_11">
   <g id="patch_11">
    <path d="M 170.624855 27.009931 
Q 170.699834 27.347338 170.774814 28.265834 
Q 170.849793 29.184331 170.999752 29.634207 
L 170.924772 31.058814 
M 169.275228 27.309848 
Q 169.237738 27.309848 169.200248 27.534786 
Q 169.237738 27.684745 169.350207 28.828179 
Q 169.462676 29.971614 169.725103 30.533959 
" clip-path="url(#p4e03a82a05)" style="fill: none; stroke: #000000; stroke-linejoin: miter"/>
   </g>
  </g>
  <g id="axes_12"/>
  <g id="axes_13">
   <g id="patch_12">
    <path d="M 198.057476 43.917766 
Q 198.357393 44.180193 199.369614 45.154924 
Q 200.381834 46.129655 200.944179 46.560786 
Q 201.506524 46.991917 202.53749 47.385559 
Q 203.568455 47.7792 204.580676 47.629241 
Q 205.25549 47.629241 205.72411 47.404303 
Q 206.192731 47.179366 206.417669 46.879448 
Q 206.642607 46.579531 206.773821 45.979697 
Q 206.905034 45.379862 206.923779 44.967476 
Q 206.942524 44.55509 206.942524 43.805297 
Q 206.942524 42.718097 206.042772 42.043283 
Q 205.143021 41.368469 203.849628 41.031062 
Q 202.556234 40.693655 201.262841 40.300014 
Q 199.969448 39.906372 199.069697 38.987876 
Q 198.169945 38.069379 198.169945 36.607283 
Q 198.169945 36.082428 198.338648 35.726276 
Q 198.507352 35.370124 198.900993 35.145186 
Q 199.294634 34.920248 199.575807 34.807779 
Q 199.856979 34.69531 200.513048 34.639076 
Q 201.169117 34.582841 201.356566 34.582841 
Q 201.544014 34.582841 202.218828 34.582841 
Q 203.418497 34.582841 203.999586 34.995228 
Q 204.580676 35.407614 204.899338 36.026193 
Q 205.218 36.644772 205.480428 36.832221 
" clip-path="url(#p242be750c8)" style="fill: none; stroke: #000000; stroke-linejoin: miter"/>
   </g>
  </g>
  <g id="axes_14">
   <g id="patch_13">
    <path d="M 224.243923 36.441748 
Q 223.034968 35.094627 219.062687 35.094627 
Q 217.542857 35.094627 216.765672 35.146439 
Q 215.988486 35.198252 214.98678 35.440043 
Q 213.985075 35.681834 213.501493 36.182687 
Q 213.01791 36.683539 212.672495 37.616162 
Q 212.327079 38.548785 212.327079 39.964989 
Q 212.327079 42.037484 213.743284 43.280981 
Q 215.159488 44.524478 217.093817 44.524478 
Q 219.753518 44.524478 222.516844 38.721493 
Q 223.863966 35.854542 223.863966 35.82 
Q 224.209382 35.578209 224.243923 36.441748 
Q 224.243923 37.512537 224.658422 40.362217 
Q 225.072921 43.211898 225.072921 44.524478 
" clip-path="url(#p24de181cb3)" style="fill: none; stroke: #000000; stroke-linejoin: miter"/>
   </g>
  </g>
  <g id="axes_15">
   <g id="patch_14">
    <path d="M 229.763917 36.382345 
Q 229.726428 36.494814 229.857641 36.701007 
Q 229.988855 36.9072 229.876386 37.057159 
L 229.876386 39.306538 
Q 229.876386 40.506207 230.213793 41.724621 
Q 230.5512 42.943034 231.413462 43.93651 
Q 232.275724 44.929986 233.475393 44.929986 
Q 234.712552 44.929986 235.387366 43.861531 
Q 236.062179 42.793076 236.512055 41.143531 
Q 236.961931 39.493986 237.299338 38.969131 
L 238.086621 36.382345 
L 237.861683 42.680607 
L 237.861683 45.154924 
Q 237.861683 47.066897 238.592731 51.00331 
Q 239.323779 54.939724 239.323779 56.964166 
Q 240.073572 59.213545 238.986372 60.188276 
Q 237.899172 61.163007 235.837241 60.78811 
Q 234.037738 60.488193 233.119241 60.169531 
Q 232.200745 59.850869 230.213793 58.988607 
L 230.101324 58.426262 
" clip-path="url(#p86f5097e9b)" style="fill: none; stroke: #000000; stroke-linejoin: miter"/>
   </g>
  </g>
  <g id="axes_16">
   <g id="patch_15">
    <path d="M 246.657476 43.917766 
Q 246.957393 44.180193 247.969614 45.154924 
Q 248.981834 46.129655 249.544179 46.560786 
Q 250.106524 46.991917 251.13749 47.385559 
Q 252.168455 47.7792 253.180676 47.629241 
Q 253.85549 47.629241 254.32411 47.404303 
Q 254.792731 47.179366 255.017669 46.879448 
Q 255.242607 46.579531 255.373821 45.979697 
Q 255.505034 45.379862 255.523779 44.967476 
Q 255.542524 44.55509 255.542524 43.805297 
Q 255.542524 42.718097 254.642772 42.043283 
Q 253.743021 41.368469 252.449628 41.031062 
Q 251.156234 40.693655 249.862841 40.300014 
Q 248.569448 39.906372 247.669697 38.987876 
Q 246.769945 38.069379 246.769945 36.607283 
Q 246.769945 36.082428 246.938648 35.726276 
Q 247.107352 35.370124 247.500993 35.145186 
Q 247.894634 34.920248 248.175807 34.807779 
Q 248.456979 34.69531 249.113048 34.639076 
Q 249.769117 34.582841 249.956566 34.582841 
Q 250.144014 34.582841 250.818828 34.582841 
Q 252.018497 34.582841 252.599586 34.995228 
Q 253.180676 35.407614 253.499338 36.026193 
Q 253.818 36.644772 254.080428 36.832221 
" clip-path="url(#p5c10e48755)" style="fill: none; stroke: #000000; stroke-linejoin: miter"/>
   </g>
  </g>
  <g id="axes_17"/>
  <g id="axes_18">
   <g id="patch_16">
    <path d="M 277.448638 35.788482 
L 277.637743 35.788482 
Q 278.520233 35.788482 280.285214 35.69393 
Q 282.050195 35.599377 282.932685 35.599377 
Q 284.477043 35.599377 285.674708 35.835759 
Q 286.872374 36.07214 287.896693 36.655214 
Q 288.921012 37.238288 289.472568 38.35716 
Q 290.024125 39.476031 290.024125 41.083424 
Q 290.024125 46.567471 279.907004 46.567471 
Q 279.875486 46.567471 278.015953 46.283813 
L 277.448638 46.000156 
M 277.448638 27.562412 
Q 279.087549 26.679922 281.041634 26.71144 
Q 283.310895 26.71144 285.343774 28.035175 
Q 287.376654 29.358911 287.376654 31.533619 
Q 287.376654 32.825837 286.825097 33.582257 
Q 286.273541 34.338677 285.548638 34.527782 
Q 284.823735 34.716887 283.830934 35.06358 
Q 282.838132 35.410272 282.270817 35.883035 
L 277.448638 35.788482 
M 276.975875 27.656965 
Q 277.196498 28.949183 277.133463 32.494903 
Q 277.070428 36.040623 277.637743 37.301323 
Q 277.637743 38.309883 277.590467 40.358521 
Q 277.543191 42.40716 277.543191 43.447237 
L 277.543191 45.243735 
L 277.354086 46.000156 
" clip-path="url(#pa3aa7a19eb)" style="fill: none; stroke: #000000; stroke-linejoin: miter"/>
   </g>
  </g>
  <g id="axes_19">
   <g id="patch_17">
    <path d="M 295.088772 35.145186 
Q 295.088772 35.145186 295.088772 35.595062 
Q 295.088772 36.269876 294.976303 37.619503 
Q 294.863834 38.969131 294.863834 39.643945 
Q 294.863834 41.930814 296.100993 43.599103 
Q 297.338152 45.267393 299.475062 45.267393 
Q 300.862179 45.154924 301.630717 43.917766 
Q 302.399255 42.680607 302.549214 41.237255 
Q 302.699172 39.793903 302.9616 37.9944 
Q 303.224028 36.194897 303.636414 35.370124 
Q 303.786372 35.070207 303.786372 35.670041 
Q 303.786372 36.269876 303.523945 38.706703 
Q 303.299007 41.031062 303.299007 41.555917 
Q 303.149048 42.643117 303.486455 43.767807 
Q 303.823862 44.892497 304.536166 45.6048 
" clip-path="url(#paf14fdeb82)" style="fill: none; stroke: #000000; stroke-linejoin: miter"/>
   </g>
  </g>
  <g id="axes_20">
   <g id="patch_18">
    <path d="M 312.413462 32.783338 
Q 312.938317 34.507862 313.069531 36.457324 
Q 313.200745 38.406786 313.125766 40.956083 
Q 313.050786 43.505379 313.088276 44.705048 
L 313.200745 46.054676 
L 313.200745 45.829738 
Q 313.200745 44.667559 312.919572 42.30571 
Q 312.6384 39.943862 312.6384 38.744193 
Q 312.6384 36.419834 313.650621 34.882759 
Q 314.662841 33.345683 316.687283 33.345683 
Q 317.399586 33.345683 317.736993 33.626855 
Q 318.0744 33.908028 318.336828 34.432883 
Q 318.599255 34.957738 318.936662 35.257655 
L 319.386538 36.832221 
" clip-path="url(#p137f88a957)" style="fill: none; stroke: #000000; stroke-linejoin: miter"/>
   </g>
  </g>
  <g id="axes_21">
   <g id="patch_19">
    <path d="M 327.263834 37.95691 
L 327.938648 37.95691 
Q 328.650952 37.95691 329.438234 37.881931 
Q 330.225517 37.806952 331.181503 37.675738 
Q 332.13749 37.544524 332.662345 37.507034 
L 336.936166 35.82 
M 332.887283 30.42149 
L 332.887283 31.43371 
Q 332.887283 33.383172 332.212469 37.207117 
Q 331.537655 41.031062 331.537655 43.018014 
Q 331.537655 43.805297 331.537655 44.105214 
Q 331.537655 44.405131 331.631379 45.042455 
Q 331.725103 45.679779 331.912552 45.960952 
Q 332.1 46.242124 332.493641 46.485807 
Q 332.887283 46.72949 333.449628 46.72949 
Q 333.562097 46.692 333.880759 46.72949 
Q 334.199421 46.766979 334.386869 46.710745 
Q 334.574317 46.65451 334.574317 46.392083 
" clip-path="url(#pb34879dffa)" style="fill: none; stroke: #000000; stroke-linejoin: miter"/>
   </g>
  </g>
  <g id="axes_22">
   <g id="patch_20">
    <path d="M 347.587697 39.981352 
Q 348.599917 40.956083 348.937324 42.905545 
Q 349.124772 43.955255 348.712386 46.167145 
L 347.475228 47.629241 
" clip-path="url(#p6476475f6e)" style="fill: none; stroke: #000000; stroke-linejoin: miter"/>
   </g>
  </g>
  <g id="axes_23"/>
  <g id="axes_24">
   <g id="patch_21">
    <path d="M 377.213462 35.932469 
Q 377.813297 35.257655 378.806772 34.826524 
Q 379.800248 34.395393 380.7 34.470372 
Q 381.337324 34.470372 381.82469 34.639076 
Q 382.312055 34.807779 382.630717 34.995228 
Q 382.949379 35.182676 383.174317 35.670041 
Q 383.399255 36.157407 383.511724 36.419834 
Q 383.624193 36.682262 383.680428 37.375821 
Q 383.736662 38.069379 383.755407 38.331807 
Q 383.774152 38.594234 383.755407 39.419007 
Q 383.736662 40.243779 383.736662 40.431228 
Q 383.736662 41.368469 383.567959 43.242952 
Q 383.399255 45.117434 383.399255 46.054676 
Q 383.399255 46.467062 383.45549 46.823214 
Q 383.511724 47.179366 383.605448 47.610497 
Q 383.699172 48.041628 383.736662 48.304055 
L 384.186538 48.528993 
M 377.663338 23.111007 
Q 377.888276 24.798041 377.888276 29.971614 
L 377.888276 42.3432 
L 377.550869 46.841959 
L 377.325931 47.74171 
" clip-path="url(#p98412fb42d)" style="fill: none; stroke: #000000; stroke-linejoin: miter"/>
   </g>
  </g>
  <g id="axes_25">
   <g id="patch_22">
    <path d="M 400.1616 35.032717 
Q 399.11189 34.582841 398.137159 34.69531 
Q 395.100497 35.032717 393.188524 36.701007 
Q 391.276552 38.369297 391.276552 41.330979 
Q 391.276552 43.917766 393.282248 45.6048 
Q 395.287945 47.291834 397.912221 47.291834 
Q 400.274069 47.291834 401.398759 45.361117 
Q 402.523448 43.4304 402.523448 40.881103 
Q 402.523448 39.643945 402.111062 38.706703 
Q 401.698676 37.769462 401.173821 37.300841 
Q 400.648966 36.832221 399.899172 36.119917 
Q 399.149379 35.407614 398.699503 34.69531 
L 397.462345 34.245434 
" clip-path="url(#p2fee3a058e)" style="fill: none; stroke: #000000; stroke-linejoin: miter"/>
   </g>
  </g>
  <g id="axes_26">
   <g id="patch_23">
    <path d="M 412.706359 28.621986 
Q 412.931297 30.34651 413.006276 32.146014 
Q 413.081255 33.945517 413.06251 36.551048 
Q 413.043766 39.156579 413.043766 40.093821 
Q 413.043766 40.13131 413.268703 45.829738 
L 413.493641 46.841959 
" clip-path="url(#p7c12e22668)" style="fill: none; stroke: #000000; stroke-linejoin: miter"/>
   </g>
  </g>
  <g id="axes_27">
   <g id="patch_24">
    <path d="M 432.899007 39.568966 
Q 431.549379 38.181848 429.3 38.444276 
Q 426.450786 38.444276 425.288607 39.793903 
Q 424.126428 41.143531 424.126428 44.067724 
Q 424.126428 45.56731 425.419821 46.279614 
Q 426.713214 46.991917 428.287779 46.991917 
Q 429.599917 46.991917 430.612138 45.736014 
Q 431.624359 44.48011 432.205448 42.30571 
Q 432.786538 40.13131 433.161434 37.938166 
Q 433.536331 35.745021 433.68629 33.045766 
Q 433.836248 30.34651 433.873738 28.978138 
Q 433.911228 27.609766 433.911228 26.185159 
Q 433.68629 26.260138 433.68629 29.896634 
L 433.68629 44.292662 
L 434.473572 48.229076 
" clip-path="url(#p77ff3e51b9)" style="fill: none; stroke: #000000; stroke-linejoin: miter"/>
   </g>
  </g>
  <g id="axes_28">
   <g id="patch_25">
    <path d="M 446.118579 29.071862 
Q 445.743683 29.146841 445.612469 29.577972 
Q 445.481255 30.009103 445.556234 30.42149 
Q 445.556234 30.571448 445.593724 30.702662 
Q 445.631214 30.833876 445.687448 30.89011 
Q 445.743683 30.946345 445.799917 31.040069 
Q 445.856152 31.133793 445.893641 31.208772 
L 446.00611 29.859145 
M 446.00611 34.020497 
Q 445.106359 39.006621 444.881421 42.793076 
L 445.331297 45.379862 
L 445.668703 46.054676 
" clip-path="url(#pe52af7be3d)" style="fill: none; stroke: #000000; stroke-linejoin: miter"/>
   </g>
  </g>
  <g id="axes_29">
   <g id="patch_26">
    <path d="M 457.238731 37.282097 
L 457.238731 37.844441 
Q 457.501159 39.868883 457.538648 41.312234 
Q 457.576138 42.755586 457.482414 44.667559 
Q 457.38869 46.579531 457.38869 48.191586 
L 457.463669 39.643945 
Q 457.463669 38.144359 459.056979 37.507034 
Q 460.65029 36.86971 462.074897 37.282097 
Q 463.986869 37.844441 464.905366 39.04411 
Q 465.823862 40.243779 465.880097 41.668386 
Q 465.936331 43.092993 465.973821 44.817517 
Q 466.01131 46.542041 466.161269 48.191586 
" clip-path="url(#pe4575c924c)" style="fill: none; stroke: #000000; stroke-linejoin: miter"/>
   </g>
  </g>
  <g id="axes_30">
   <g id="patch_27">
    <path d="M 482.687191 39.096404 
Q 482.43236 39.023596 481.46764 38.623146 
Q 480.502921 38.222697 479.84764 38.077079 
Q 479.19236 37.931461 478.537079 38.00427 
Q 475.915955 38.00427 474.277753 40.388764 
Q 472.639551 42.773258 472.639551 45.430787 
Q 472.639551 47.068989 477.881798 47.068989 
Q 479.447191 47.068989 480.775955 45.558202 
Q 482.104719 44.047416 482.778202 42.172584 
Q 483.451685 40.297753 483.451685 38.768764 
Q 483.451685 37.27618 483.415281 36.984944 
L 483.342472 38.077079 
Q 483.342472 38.550337 483.342472 38.987191 
Q 483.378876 40.188539 483.579101 42.281798 
Q 483.779326 44.375056 483.943146 46.049663 
Q 484.106966 47.72427 484.143371 49.872135 
Q 484.179775 52.02 484.015955 53.658202 
Q 483.852135 55.296404 483.287865 56.971011 
Q 482.723596 58.645618 481.795281 59.737753 
Q 480.866966 60.829888 479.265169 61.521573 
Q 477.663371 62.213258 475.515506 62.213258 
Q 473.877303 62.213258 472.785169 61.466966 
Q 471.693034 60.720674 471.693034 59.155281 
Q 471.620225 58.936854 471.656629 58.936854 
Q 471.693034 58.936854 471.802247 58.936854 
Q 471.911461 58.936854 471.911461 58.82764 
" clip-path="url(#pefb568ab45)" style="fill: none; stroke: #000000; stroke-linejoin: miter"/>
   </g>
  </g>
  <g id="axes_31"/>
  <g id="axes_32">
   <g id="patch_28">
    <path d="M 505.463834 37.95691 
L 506.138648 37.95691 
Q 506.850952 37.95691 507.638234 37.881931 
Q 508.425517 37.806952 509.381503 37.675738 
Q 510.33749 37.544524 510.862345 37.507034 
L 515.136166 35.82 
M 511.087283 30.42149 
L 511.087283 31.43371 
Q 511.087283 33.383172 510.412469 37.207117 
Q 509.737655 41.031062 509.737655 43.018014 
Q 509.737655 43.805297 509.737655 44.105214 
Q 509.737655 44.405131 509.831379 45.042455 
Q 509.925103 45.679779 510.112552 45.960952 
Q 510.3 46.242124 510.693641 46.485807 
Q 511.087283 46.72949 511.649628 46.72949 
Q 511.762097 46.692 512.080759 46.72949 
Q 512.399421 46.766979 512.586869 46.710745 
Q 512.774317 46.65451 512.774317 46.392083 
" clip-path="url(#p63fe06c90d)" style="fill: none; stroke: #000000; stroke-linejoin: miter"/>
   </g>
  </g>
  <g id="axes_33">
   <g id="patch_29">
    <path d="M 523.013462 35.932469 
Q 523.613297 35.257655 524.606772 34.826524 
Q 525.600248 34.395393 526.5 34.470372 
Q 527.137324 34.470372 527.62469 34.639076 
Q 528.112055 34.807779 528.430717 34.995228 
Q 528.749379 35.182676 528.974317 35.670041 
Q 529.199255 36.157407 529.311724 36.419834 
Q 529.424193 36.682262 529.480428 37.375821 
Q 529.536662 38.069379 529.555407 38.331807 
Q 529.574152 38.594234 529.555407 39.419007 
Q 529.536662 40.243779 529.536662 40.431228 
Q 529.536662 41.368469 529.367959 43.242952 
Q 529.199255 45.117434 529.199255 46.054676 
Q 529.199255 46.467062 529.25549 46.823214 
Q 529.311724 47.179366 529.405448 47.610497 
Q 529.499172 48.041628 529.536662 48.304055 
L 529.986538 48.528993 
M 523.463338 23.111007 
Q 523.688276 24.798041 523.688276 29.971614 
L 523.688276 42.3432 
L 523.350869 46.841959 
L 523.125931 47.74171 
" clip-path="url(#p9f3c0078d1)" style="fill: none; stroke: #000000; stroke-linejoin: miter"/>
   </g>
  </g>
  <g id="axes_34">
   <g id="patch_30">
    <path d="M 536.457798 38.160826 
Q 539.430275 39.535596 544.149083 39.721376 
Q 545.672477 39.721376 546.359862 38.550963 
Q 547.047248 37.38055 547.047248 35.82 
Q 547.047248 35.299817 546.954358 34.909679 
Q 546.861468 34.519541 546.619954 34.296606 
Q 546.37844 34.07367 546.211239 33.943624 
Q 546.044037 33.813578 545.598165 33.757844 
Q 545.152294 33.70211 544.947936 33.683532 
Q 544.743578 33.664954 544.167661 33.683532 
Q 543.591743 33.70211 543.368807 33.70211 
Q 541.325229 33.70211 539.838991 35.578486 
Q 538.352752 37.454862 538.352752 39.609908 
Q 538.352752 42.619541 540.284862 44.570229 
Q 542.216972 46.520917 545.263761 46.520917 
Q 547.418807 46.818165 548.942202 44.29156 
" clip-path="url(#pf377e78a71)" style="fill: none; stroke: #000000; stroke-linejoin: miter"/>
   </g>
  </g>
  <g id="axes_35"/>
  <g id="axes_36">
   <g id="patch_31">
    <path d="M 570.320069 39.868883 
L 570.320069 39.419007 
Q 570.320069 37.769462 572.063338 36.682262 
Q 573.806607 35.595062 575.493641 35.595062 
Q 577.705531 35.595062 579.073903 36.794731 
Q 580.442276 37.9944 580.442276 40.20629 
Q 580.442276 42.30571 578.624028 43.336676 
Q 576.805779 44.367641 574.59389 44.367641 
Q 573.919076 44.367641 573.412966 44.255172 
Q 572.906855 44.142703 572.288276 43.917766 
Q 571.669697 43.692828 571.219821 43.580359 
L 570.095131 42.568138 
M 569.757724 36.832221 
Q 570.2076 38.444276 570.470028 40.262524 
Q 570.732455 42.080772 570.78869 43.749062 
Q 570.844924 45.417352 570.882414 47.27309 
Q 570.919903 49.128828 570.882414 50.778372 
L 570.769945 57.863917 
" clip-path="url(#p4da01b049c)" style="fill: none; stroke: #000000; stroke-linejoin: miter"/>
   </g>
  </g>
  <g id="axes_37">
   <g id="patch_32">
    <path d="M 596.843923 36.441748 
Q 595.634968 35.094627 591.662687 35.094627 
Q 590.142857 35.094627 589.365672 35.146439 
Q 588.588486 35.198252 587.58678 35.440043 
Q 586.585075 35.681834 586.101493 36.182687 
Q 585.61791 36.683539 585.272495 37.616162 
Q 584.927079 38.548785 584.927079 39.964989 
Q 584.927079 42.037484 586.343284 43.280981 
Q 587.759488 44.524478 589.693817 44.524478 
Q 592.353518 44.524478 595.116844 38.721493 
Q 596.463966 35.854542 596.463966 35.82 
Q 596.809382 35.578209 596.843923 36.441748 
Q 596.843923 37.512537 597.258422 40.362217 
Q 597.672921 43.211898 597.672921 44.524478 
" clip-path="url(#pfb3e0cc31b)" style="fill: none; stroke: #000000; stroke-linejoin: miter"/>
   </g>
  </g>
  <g id="axes_38">
   <g id="patch_33">
    <path d="M 601.208036 34.879821 
Q 601.714286 36.073125 602.003571 42.871339 
Q 602.148214 46.632054 602.4375 46.632054 
Q 602.473661 46.632054 602.509821 46.595893 
Q 603.016071 46.017321 603.070313 44.588973 
Q 603.124554 43.160625 602.907589 41.750357 
Q 602.690625 40.340089 602.4375 38.712857 
Q 602.184375 37.085625 602.184375 36.398571 
Q 602.184375 35.169107 602.564063 33.939643 
Q 602.94375 32.710179 603.920089 32.710179 
Q 605.149554 32.710179 605.872768 34.355491 
Q 606.595982 36.000804 606.758705 37.971563 
Q 606.921429 39.942321 607.029911 41.587634 
Q 607.138393 43.232946 607.283036 43.232946 
Q 607.427679 43.232946 607.51808 41.497232 
Q 607.608482 39.761518 607.735045 37.700357 
Q 607.861607 35.639196 608.584821 33.903482 
Q 609.308036 32.167768 610.5375 32.167768 
Q 612.092411 33.035625 612.761384 34.771339 
Q 613.430357 36.507054 613.394196 38.188527 
Q 613.358036 39.87 613.376116 42.057723 
Q 613.394196 44.245446 613.791964 45.511071 
" clip-path="url(#p3beb749465)" style="fill: none; stroke: #000000; stroke-linejoin: miter"/>
   </g>
  </g>
  <g id="axes_39">
   <g id="patch_34">
    <path d="M 618.920069 39.868883 
L 618.920069 39.419007 
Q 618.920069 37.769462 620.663338 36.682262 
Q 622.406607 35.595062 624.093641 35.595062 
Q 626.305531 35.595062 627.673903 36.794731 
Q 629.042276 37.9944 629.042276 40.20629 
Q 629.042276 42.30571 627.224028 43.336676 
Q 625.405779 44.367641 623.19389 44.367641 
Q 622.519076 44.367641 622.012966 44.255172 
Q 621.506855 44.142703 620.888276 43.917766 
Q 620.269697 43.692828 619.819821 43.580359 
L 618.695131 42.568138 
M 618.357724 36.832221 
Q 618.8076 38.444276 619.070028 40.262524 
Q 619.332455 42.080772 619.38869 43.749062 
Q 619.444924 45.417352 619.482414 47.27309 
Q 619.519903 49.128828 619.482414 50.778372 
L 619.369945 57.863917 
" clip-path="url(#pc19e72daab)" style="fill: none; stroke: #000000; stroke-linejoin: miter"/>
   </g>
  </g>
  <g id="axes_40">
   <g id="patch_35">
    <path d="M 639.506359 28.621986 
Q 639.731297 30.34651 639.806276 32.146014 
Q 639.881255 33.945517 639.86251 36.551048 
Q 639.843766 39.156579 639.843766 40.093821 
Q 639.843766 40.13131 640.068703 45.829738 
L 640.293641 46.841959 
" clip-path="url(#pc5db7ad0cf)" style="fill: none; stroke: #000000; stroke-linejoin: miter"/>
   </g>
  </g>
  <g id="axes_41">
   <g id="patch_36">
    <path d="M 649.857798 38.160826 
Q 652.830275 39.535596 657.549083 39.721376 
Q 659.072477 39.721376 659.759862 38.550963 
Q 660.447248 37.38055 660.447248 35.82 
Q 660.447248 35.299817 660.354358 34.909679 
Q 660.261468 34.519541 660.019954 34.296606 
Q 659.77844 34.07367 659.611239 33.943624 
Q 659.444037 33.813578 658.998165 33.757844 
Q 658.552294 33.70211 658.347936 33.683532 
Q 658.143578 33.664954 657.567661 33.683532 
Q 656.991743 33.70211 656.768807 33.70211 
Q 654.725229 33.70211 653.238991 35.578486 
Q 651.752752 37.454862 651.752752 39.609908 
Q 651.752752 42.619541 653.684862 44.570229 
Q 655.616972 46.520917 658.663761 46.520917 
Q 660.818807 46.818165 662.342202 44.29156 
" clip-path="url(#p134c58e1e7)" style="fill: none; stroke: #000000; stroke-linejoin: miter"/>
   </g>
  </g>
  <g id="axes_42">
   <g id="patch_37">
    <path d="M 667.463834 37.95691 
L 668.138648 37.95691 
Q 668.850952 37.95691 669.638234 37.881931 
Q 670.425517 37.806952 671.381503 37.675738 
Q 672.33749 37.544524 672.862345 37.507034 
L 677.136166 35.82 
M 673.087283 30.42149 
L 673.087283 31.43371 
Q 673.087283 33.383172 672.412469 37.207117 
Q 671.737655 41.031062 671.737655 43.018014 
Q 671.737655 43.805297 671.737655 44.105214 
Q 671.737655 44.405131 671.831379 45.042455 
Q 671.925103 45.679779 672.112552 45.960952 
Q 672.3 46.242124 672.693641 46.485807 
Q 673.087283 46.72949 673.649628 46.72949 
Q 673.762097 46.692 674.080759 46.72949 
Q 674.399421 46.766979 674.586869 46.710745 
Q 674.774317 46.65451 674.774317 46.392083 
" clip-path="url(#p3a3ac61d5c)" style="fill: none; stroke: #000000; stroke-linejoin: miter"/>
   </g>
  </g>
  <g id="axes_43">
   <g id="patch_38">
    <path d="M 684.057476 43.917766 
Q 684.357393 44.180193 685.369614 45.154924 
Q 686.381834 46.129655 686.944179 46.560786 
Q 687.506524 46.991917 688.53749 47.385559 
Q 689.568455 47.7792 690.580676 47.629241 
Q 691.25549 47.629241 691.72411 47.404303 
Q 692.192731 47.179366 692.417669 46.879448 
Q 692.642607 46.579531 692.773821 45.979697 
Q 692.905034 45.379862 692.923779 44.967476 
Q 692.942524 44.55509 692.942524 43.805297 
Q 692.942524 42.718097 692.042772 42.043283 
Q 691.143021 41.368469 689.849628 41.031062 
Q 688.556234 40.693655 687.262841 40.300014 
Q 685.969448 39.906372 685.069697 38.987876 
Q 684.169945 38.069379 684.169945 36.607283 
Q 684.169945 36.082428 684.338648 35.726276 
Q 684.507352 35.370124 684.900993 35.145186 
Q 685.294634 34.920248 685.575807 34.807779 
Q 685.856979 34.69531 686.513048 34.639076 
Q 687.169117 34.582841 687.356566 34.582841 
Q 687.544014 34.582841 688.218828 34.582841 
Q 689.418497 34.582841 689.999586 34.995228 
Q 690.580676 35.407614 690.899338 36.026193 
Q 691.218 36.644772 691.480428 36.832221 
" clip-path="url(#p09546c2cee)" style="fill: none; stroke: #000000; stroke-linejoin: miter"/>
   </g>
  </g>
  <g id="axes_44">
   <g id="patch_39">
    <path d="M 703.987697 39.981352 
Q 704.999917 40.956083 705.337324 42.905545 
Q 705.524772 43.955255 705.112386 46.167145 
L 703.875228 47.629241 
" clip-path="url(#p7f7efd4810)" style="fill: none; stroke: #000000; stroke-linejoin: miter"/>
   </g>
  </g>
 </g>
 <defs>
  <clipPath id="pee582251ee">
   <rect x="5.325766" y="8.64" width="5.548469" height="54.36"/>
  </clipPath>
  <clipPath id="pc620247413">
   <rect x="16.2" y="14.809267" width="16.2" height="42.021467"/>
  </clipPath>
  <clipPath id="pa03c495ec4">
   <rect x="32.4" y="10.777356" width="16.2" height="50.085288"/>
  </clipPath>
  <clipPath id="pded495911c">
   <rect x="49.651945" y="8.64" width="14.09611" height="54.36"/>
  </clipPath>
  <clipPath id="pc2cf2f597c">
   <rect x="66.358055" y="8.64" width="13.08389" height="54.36"/>
  </clipPath>
  <clipPath id="pe3dc0f992f">
   <rect x="81" y="8.881927" width="16.2" height="53.876147"/>
  </clipPath>
  <clipPath id="p4a32fecc90">
   <rect x="103.013131" y="8.64" width="4.573738" height="54.36"/>
  </clipPath>
  <clipPath id="p12afee45a8">
   <rect x="119.213131" y="8.64" width="4.573738" height="54.36"/>
  </clipPath>
  <clipPath id="pb7123da8c4">
   <rect x="135.413131" y="8.64" width="4.573738" height="54.36"/>
  </clipPath>
  <clipPath id="p4e03a82a05">
   <rect x="167.325766" y="8.64" width="5.548469" height="54.36"/>
  </clipPath>
  <clipPath id="p242be750c8">
   <rect x="196.182993" y="8.64" width="12.634014" height="54.36"/>
  </clipPath>
  <clipPath id="p24de181cb3">
   <rect x="210.6" y="10.777356" width="16.2" height="50.085288"/>
  </clipPath>
  <clipPath id="p86f5097e9b">
   <rect x="227.851945" y="8.64" width="14.09611" height="54.36"/>
  </clipPath>
  <clipPath id="p5c10e48755">
   <rect x="244.782993" y="8.64" width="12.634014" height="54.36"/>
  </clipPath>
  <clipPath id="pa3aa7a19eb">
   <rect x="275.4" y="12.969805" width="16.2" height="45.700389"/>
  </clipPath>
  <clipPath id="paf14fdeb82">
   <rect x="292.989352" y="8.64" width="13.421297" height="54.36"/>
  </clipPath>
  <clipPath id="p137f88a957">
   <rect x="310.538979" y="8.64" width="10.722041" height="54.36"/>
  </clipPath>
  <clipPath id="pb34879dffa">
   <rect x="325.389352" y="8.64" width="13.421297" height="54.36"/>
  </clipPath>
  <clipPath id="p6476475f6e">
   <rect x="345.600745" y="8.64" width="5.39851" height="54.36"/>
  </clipPath>
  <clipPath id="p98412fb42d">
   <rect x="375.338979" y="8.64" width="10.722041" height="54.36"/>
  </clipPath>
  <clipPath id="p2fee3a058e">
   <rect x="389.402069" y="8.64" width="14.995862" height="54.36"/>
  </clipPath>
  <clipPath id="p7c12e22668">
   <rect x="410.831876" y="8.64" width="4.536248" height="54.36"/>
  </clipPath>
  <clipPath id="p77ff3e51b9">
   <rect x="422.251945" y="8.64" width="14.09611" height="54.36"/>
  </clipPath>
  <clipPath id="pe52af7be3d">
   <rect x="443.006938" y="8.64" width="4.986124" height="54.36"/>
  </clipPath>
  <clipPath id="pe4575c924c">
   <rect x="455.364248" y="8.64" width="12.671503" height="54.36"/>
  </clipPath>
  <clipPath id="pefb568ab45">
   <rect x="469.8" y="9.426742" width="16.2" height="52.786517"/>
  </clipPath>
  <clipPath id="p63fe06c90d">
   <rect x="503.589352" y="8.64" width="13.421297" height="54.36"/>
  </clipPath>
  <clipPath id="p9f3c0078d1">
   <rect x="521.138979" y="8.64" width="10.722041" height="54.36"/>
  </clipPath>
  <clipPath id="pf377e78a71">
   <rect x="534.6" y="8.881927" width="16.2" height="53.876147"/>
  </clipPath>
  <clipPath id="p4da01b049c">
   <rect x="567.883241" y="8.64" width="14.433517" height="54.36"/>
  </clipPath>
  <clipPath id="pfb3e0cc31b">
   <rect x="583.2" y="10.777356" width="16.2" height="50.085288"/>
  </clipPath>
  <clipPath id="p3beb749465">
   <rect x="599.4" y="9.603482" width="16.2" height="52.433036"/>
  </clipPath>
  <clipPath id="pc19e72daab">
   <rect x="616.483241" y="8.64" width="14.433517" height="54.36"/>
  </clipPath>
  <clipPath id="pc5db7ad0cf">
   <rect x="637.631876" y="8.64" width="4.536248" height="54.36"/>
  </clipPath>
  <clipPath id="p134c58e1e7">
   <rect x="648" y="8.881927" width="16.2" height="53.876147"/>
  </clipPath>
  <clipPath id="p3a3ac61d5c">
   <rect x="665.589352" y="8.64" width="13.421297" height="54.36"/>
  </clipPath>
  <clipPath id="p09546c2cee">
   <rect x="682.182993" y="8.64" width="12.634014" height="54.36"/>
  </clipPath>
  <clipPath id="p7f7efd4810">
   <rect x="702.000745" y="8.64" width="5.39851" height="54.36"/>
  </clipPath>
 </defs>
</svg>
