<?xml version="1.0" encoding="utf-8" standalone="no"?>
<!DOCTYPE svg PUBLIC "-//W3C//DTD SVG 1.1//EN"
  "http://www.w3.org/Graphics/SVG/1.1/DTD/svg11.dtd">
<svg xmlns:xlink="http://www.w3.org/1999/xlink" width="36pt" height="72pt" viewBox="0 0 36 72" xmlns="http://www.w3.org/2000/svg" version="1.1">
 <metadata>
  <rdf:RDF xmlns:dc="http://purl.org/dc/elements/1.1/" xmlns:cc="http://creativecommons.org/ns#" xmlns:rdf="http://www.w3.org/1999/02/22-rdf-syntax-ns#">
   <cc:Work>
    <dc:type rdf:resource="http://purl.org/dc/dcmitype/StillImage"/>
    <dc:date>2023-12-21T11:53:55.375675</dc:date>
    <dc:format>image/svg+xml</dc:format>
    <dc:creator>
     <cc:Agent>
      <dc:title>Matplotlib v3.5.1, https://matplotlib.org/</dc:title>
     </cc:Agent>
    </dc:creator>
   </cc:Work>
  </rdf:RDF>
 </metadata>
 <defs>
  <style type="text/css">*{stroke-linejoin: round; stroke-linecap: butt}</style>
 </defs>
 <g id="figure_1">
  <g id="patch_1">
   <path d="M 0 72 
L 36 72 
L 36 0 
L 0 0 
z
" style="fill: #8fff9f"/>
  </g>
  <g id="axes_1">
   <g id="patch_2">
    <path d="M 6.581669 29.409269 
L 6.581669 29.184331 
Q 6.581669 29.184331 8.381172 26.822483 
Q 8.568621 26.822483 8.718579 28.303324 
Q 8.868538 29.784166 8.962262 31.996055 
Q 9.055986 34.207945 9.130966 36.32611 
Q 9.205945 38.444276 9.243434 40.093821 
Q 9.280924 41.743366 9.280924 41.780855 
L 9.618331 44.48011 
" clip-path="url(#p0386f7a8dd)" style="fill: none; stroke: #000000; stroke-linejoin: miter"/>
   </g>
  </g>
  <g id="axes_2">
   <g id="patch_3">
    <path d="M 20.476055 30.309021 
Q 22.08811 28.509517 25.312221 28.621986 
Q 26.174483 28.621986 26.699338 29.465503 
Q 27.224193 30.309021 27.336662 31.115048 
Q 27.449131 31.921076 27.449131 32.783338 
Q 27.449131 34.507862 26.699338 36.157407 
Q 25.949545 37.806952 25.012303 38.912897 
Q 24.075062 40.018841 22.819159 41.518428 
Q 21.563255 43.018014 20.925931 44.142703 
L 28.123945 43.917766 
" clip-path="url(#p7244e2537f)" style="fill: none; stroke: #000000; stroke-linejoin: miter"/>
   </g>
  </g>
 </g>
 <defs>
  <clipPath id="p0386f7a8dd">
   <rect x="4.707186" y="8.64" width="6.785628" height="54.36"/>
  </clipPath>
  <clipPath id="p7244e2537f">
   <rect x="18.601572" y="8.64" width="11.396855" height="54.36"/>
  </clipPath>
 </defs>
</svg>
