<?xml version="1.0" encoding="utf-8" standalone="no"?>
<!DOCTYPE svg PUBLIC "-//W3C//DTD SVG 1.1//EN"
  "http://www.w3.org/Graphics/SVG/1.1/DTD/svg11.dtd">
<svg xmlns:xlink="http://www.w3.org/1999/xlink" width="846pt" height="72pt" viewBox="0 0 846 72" xmlns="http://www.w3.org/2000/svg" version="1.1">
 <metadata>
  <rdf:RDF xmlns:dc="http://purl.org/dc/elements/1.1/" xmlns:cc="http://creativecommons.org/ns#" xmlns:rdf="http://www.w3.org/1999/02/22-rdf-syntax-ns#">
   <cc:Work>
    <dc:type rdf:resource="http://purl.org/dc/dcmitype/StillImage"/>
    <dc:date>2023-12-21T11:52:50.193860</dc:date>
    <dc:format>image/svg+xml</dc:format>
    <dc:creator>
     <cc:Agent>
      <dc:title>Matplotlib v3.5.1, https://matplotlib.org/</dc:title>
     </cc:Agent>
    </dc:creator>
   </cc:Work>
  </rdf:RDF>
 </metadata>
 <defs>
  <style type="text/css">*{stroke-linejoin: round; stroke-linecap: butt}</style>
 </defs>
 <g id="figure_1">
  <g id="patch_1">
   <path d="M 0 72 
L 846 72 
L 846 0 
L 0 0 
z
" style="fill: #8fff9f"/>
  </g>
  <g id="axes_1">
   <g id="patch_2">
    <path d="M 1.808036 34.879821 
Q 2.314286 36.073125 2.603571 42.871339 
Q 2.748214 46.632054 3.0375 46.632054 
Q 3.073661 46.632054 3.109821 46.595893 
Q 3.616071 46.017321 3.670312 44.588973 
Q 3.724554 43.160625 3.507589 41.750357 
Q 3.290625 40.340089 3.0375 38.712857 
Q 2.784375 37.085625 2.784375 36.398571 
Q 2.784375 35.169107 3.164062 33.939643 
Q 3.54375 32.710179 4.520089 32.710179 
Q 5.749554 32.710179 6.472768 34.355491 
Q 7.195982 36.000804 7.358705 37.971563 
Q 7.521429 39.942321 7.629911 41.587634 
Q 7.738393 43.232946 7.883036 43.232946 
Q 8.027679 43.232946 8.11808 41.497232 
Q 8.208482 39.761518 8.335045 37.700357 
Q 8.461607 35.639196 9.184821 33.903482 
Q 9.908036 32.167768 11.1375 32.167768 
Q 12.692411 33.035625 13.361384 34.771339 
Q 14.030357 36.507054 13.994196 38.188527 
Q 13.958036 39.87 13.976116 42.057723 
Q 13.994196 44.245446 14.391964 45.511071 
" clip-path="url(#p6c5bfb1f12)" style="fill: none; stroke: #000000; stroke-linejoin: miter"/>
   </g>
  </g>
  <g id="axes_2">
   <g id="patch_3">
    <path d="M 27.5616 35.032717 
Q 26.51189 34.582841 25.537159 34.69531 
Q 22.500497 35.032717 20.588524 36.701007 
Q 18.676552 38.369297 18.676552 41.330979 
Q 18.676552 43.917766 20.682248 45.6048 
Q 22.687945 47.291834 25.312221 47.291834 
Q 27.674069 47.291834 28.798759 45.361117 
Q 29.923448 43.4304 29.923448 40.881103 
Q 29.923448 39.643945 29.511062 38.706703 
Q 29.098676 37.769462 28.573821 37.300841 
Q 28.048966 36.832221 27.299172 36.119917 
Q 26.549379 35.407614 26.099503 34.69531 
L 24.862345 34.245434 
" clip-path="url(#p2a7da9d79f)" style="fill: none; stroke: #000000; stroke-linejoin: miter"/>
   </g>
  </g>
  <g id="axes_3">
   <g id="patch_4">
    <path d="M 36.038731 37.282097 
L 36.038731 37.844441 
Q 36.301159 39.868883 36.338648 41.312234 
Q 36.376138 42.755586 36.282414 44.667559 
Q 36.18869 46.579531 36.18869 48.191586 
L 36.263669 39.643945 
Q 36.263669 38.144359 37.856979 37.507034 
Q 39.45029 36.86971 40.874897 37.282097 
Q 42.786869 37.844441 43.705366 39.04411 
Q 44.623862 40.243779 44.680097 41.668386 
Q 44.736331 43.092993 44.773821 44.817517 
Q 44.81131 46.542041 44.961269 48.191586 
" clip-path="url(#p1edc9cdc72)" style="fill: none; stroke: #000000; stroke-linejoin: miter"/>
   </g>
  </g>
  <g id="axes_4">
   <g id="patch_5">
    <path d="M 52.257476 43.917766 
Q 52.557393 44.180193 53.569614 45.154924 
Q 54.581834 46.129655 55.144179 46.560786 
Q 55.706524 46.991917 56.73749 47.385559 
Q 57.768455 47.7792 58.780676 47.629241 
Q 59.45549 47.629241 59.92411 47.404303 
Q 60.392731 47.179366 60.617669 46.879448 
Q 60.842607 46.579531 60.973821 45.979697 
Q 61.105034 45.379862 61.123779 44.967476 
Q 61.142524 44.55509 61.142524 43.805297 
Q 61.142524 42.718097 60.242772 42.043283 
Q 59.343021 41.368469 58.049628 41.031062 
Q 56.756234 40.693655 55.462841 40.300014 
Q 54.169448 39.906372 53.269697 38.987876 
Q 52.369945 38.069379 52.369945 36.607283 
Q 52.369945 36.082428 52.538648 35.726276 
Q 52.707352 35.370124 53.100993 35.145186 
Q 53.494634 34.920248 53.775807 34.807779 
Q 54.056979 34.69531 54.713048 34.639076 
Q 55.369117 34.582841 55.556566 34.582841 
Q 55.744014 34.582841 56.418828 34.582841 
Q 57.618497 34.582841 58.199586 34.995228 
Q 58.780676 35.407614 59.099338 36.026193 
Q 59.418 36.644772 59.680428 36.832221 
" clip-path="url(#p632dc19ecf)" style="fill: none; stroke: #000000; stroke-linejoin: miter"/>
   </g>
  </g>
  <g id="axes_5">
   <g id="patch_6">
    <path d="M 76.1616 35.032717 
Q 75.11189 34.582841 74.137159 34.69531 
Q 71.100497 35.032717 69.188524 36.701007 
Q 67.276552 38.369297 67.276552 41.330979 
Q 67.276552 43.917766 69.282248 45.6048 
Q 71.287945 47.291834 73.912221 47.291834 
Q 76.274069 47.291834 77.398759 45.361117 
Q 78.523448 43.4304 78.523448 40.881103 
Q 78.523448 39.643945 78.111062 38.706703 
Q 77.698676 37.769462 77.173821 37.300841 
Q 76.648966 36.832221 75.899172 36.119917 
Q 75.149379 35.407614 74.699503 34.69531 
L 73.462345 34.245434 
" clip-path="url(#p9572963fb1)" style="fill: none; stroke: #000000; stroke-linejoin: miter"/>
   </g>
  </g>
  <g id="axes_6">
   <g id="patch_7">
    <path d="M 84.638731 37.282097 
L 84.638731 37.844441 
Q 84.901159 39.868883 84.938648 41.312234 
Q 84.976138 42.755586 84.882414 44.667559 
Q 84.78869 46.579531 84.78869 48.191586 
L 84.863669 39.643945 
Q 84.863669 38.144359 86.456979 37.507034 
Q 88.05029 36.86971 89.474897 37.282097 
Q 91.386869 37.844441 92.305366 39.04411 
Q 93.223862 40.243779 93.280097 41.668386 
Q 93.336331 43.092993 93.373821 44.817517 
Q 93.41131 46.542041 93.561269 48.191586 
" clip-path="url(#p27a91ffc58)" style="fill: none; stroke: #000000; stroke-linejoin: miter"/>
   </g>
  </g>
  <g id="axes_7"/>
  <g id="axes_8">
   <g id="patch_8">
    <path d="M 117.057476 43.917766 
Q 117.357393 44.180193 118.369614 45.154924 
Q 119.381834 46.129655 119.944179 46.560786 
Q 120.506524 46.991917 121.53749 47.385559 
Q 122.568455 47.7792 123.580676 47.629241 
Q 124.25549 47.629241 124.72411 47.404303 
Q 125.192731 47.179366 125.417669 46.879448 
Q 125.642607 46.579531 125.773821 45.979697 
Q 125.905034 45.379862 125.923779 44.967476 
Q 125.942524 44.55509 125.942524 43.805297 
Q 125.942524 42.718097 125.042772 42.043283 
Q 124.143021 41.368469 122.849628 41.031062 
Q 121.556234 40.693655 120.262841 40.300014 
Q 118.969448 39.906372 118.069697 38.987876 
Q 117.169945 38.069379 117.169945 36.607283 
Q 117.169945 36.082428 117.338648 35.726276 
Q 117.507352 35.370124 117.900993 35.145186 
Q 118.294634 34.920248 118.575807 34.807779 
Q 118.856979 34.69531 119.513048 34.639076 
Q 120.169117 34.582841 120.356566 34.582841 
Q 120.544014 34.582841 121.218828 34.582841 
Q 122.418497 34.582841 122.999586 34.995228 
Q 123.580676 35.407614 123.899338 36.026193 
Q 124.218 36.644772 124.480428 36.832221 
" clip-path="url(#p7a77906a50)" style="fill: none; stroke: #000000; stroke-linejoin: miter"/>
   </g>
  </g>
  <g id="axes_9">
   <g id="patch_9">
    <path d="M 143.243923 36.441748 
Q 142.034968 35.094627 138.062687 35.094627 
Q 136.542857 35.094627 135.765672 35.146439 
Q 134.988486 35.198252 133.98678 35.440043 
Q 132.985075 35.681834 132.501493 36.182687 
Q 132.01791 36.683539 131.672495 37.616162 
Q 131.327079 38.548785 131.327079 39.964989 
Q 131.327079 42.037484 132.743284 43.280981 
Q 134.159488 44.524478 136.093817 44.524478 
Q 138.753518 44.524478 141.516844 38.721493 
Q 142.863966 35.854542 142.863966 35.82 
Q 143.209382 35.578209 143.243923 36.441748 
Q 143.243923 37.512537 143.658422 40.362217 
Q 144.072921 43.211898 144.072921 44.524478 
" clip-path="url(#p3c9ab3b008)" style="fill: none; stroke: #000000; stroke-linejoin: miter"/>
   </g>
  </g>
  <g id="axes_10">
   <g id="patch_10">
    <path d="M 148.763917 36.382345 
Q 148.726428 36.494814 148.857641 36.701007 
Q 148.988855 36.9072 148.876386 37.057159 
L 148.876386 39.306538 
Q 148.876386 40.506207 149.213793 41.724621 
Q 149.5512 42.943034 150.413462 43.93651 
Q 151.275724 44.929986 152.475393 44.929986 
Q 153.712552 44.929986 154.387366 43.861531 
Q 155.062179 42.793076 155.512055 41.143531 
Q 155.961931 39.493986 156.299338 38.969131 
L 157.086621 36.382345 
L 156.861683 42.680607 
L 156.861683 45.154924 
Q 156.861683 47.066897 157.592731 51.00331 
Q 158.323779 54.939724 158.323779 56.964166 
Q 159.073572 59.213545 157.986372 60.188276 
Q 156.899172 61.163007 154.837241 60.78811 
Q 153.037738 60.488193 152.119241 60.169531 
Q 151.200745 59.850869 149.213793 58.988607 
L 149.101324 58.426262 
" clip-path="url(#pd1d3d61416)" style="fill: none; stroke: #000000; stroke-linejoin: miter"/>
   </g>
  </g>
  <g id="axes_11">
   <g id="patch_11">
    <path d="M 165.657476 43.917766 
Q 165.957393 44.180193 166.969614 45.154924 
Q 167.981834 46.129655 168.544179 46.560786 
Q 169.106524 46.991917 170.13749 47.385559 
Q 171.168455 47.7792 172.180676 47.629241 
Q 172.85549 47.629241 173.32411 47.404303 
Q 173.792731 47.179366 174.017669 46.879448 
Q 174.242607 46.579531 174.373821 45.979697 
Q 174.505034 45.379862 174.523779 44.967476 
Q 174.542524 44.55509 174.542524 43.805297 
Q 174.542524 42.718097 173.642772 42.043283 
Q 172.743021 41.368469 171.449628 41.031062 
Q 170.156234 40.693655 168.862841 40.300014 
Q 167.569448 39.906372 166.669697 38.987876 
Q 165.769945 38.069379 165.769945 36.607283 
Q 165.769945 36.082428 165.938648 35.726276 
Q 166.107352 35.370124 166.500993 35.145186 
Q 166.894634 34.920248 167.175807 34.807779 
Q 167.456979 34.69531 168.113048 34.639076 
Q 168.769117 34.582841 168.956566 34.582841 
Q 169.144014 34.582841 169.818828 34.582841 
Q 171.018497 34.582841 171.599586 34.995228 
Q 172.180676 35.407614 172.499338 36.026193 
Q 172.818 36.644772 173.080428 36.832221 
" clip-path="url(#p8c2ddc5317)" style="fill: none; stroke: #000000; stroke-linejoin: miter"/>
   </g>
  </g>
  <g id="axes_12">
   <g id="patch_12">
    <path d="M 185.587697 39.981352 
Q 186.599917 40.956083 186.937324 42.905545 
Q 187.124772 43.955255 186.712386 46.167145 
L 185.475228 47.629241 
" clip-path="url(#pfa0e90cb4c)" style="fill: none; stroke: #000000; stroke-linejoin: miter"/>
   </g>
  </g>
  <g id="axes_13"/>
  <g id="axes_14">
   <g id="patch_13">
    <path d="M 212.316102 36.437797 
L 213.551695 44.778051 
Q 213.654661 45.567458 213.654661 45.60178 
Q 213.654661 45.704746 213.963559 45.704746 
Q 214.82161 45.704746 215.542373 44.778051 
Q 216.263136 43.851356 216.675 42.718729 
Q 217.086864 41.586102 217.601695 40.659407 
Q 218.116525 39.732712 218.597034 39.732712 
Q 219.214831 39.732712 219.849788 40.607924 
Q 220.484746 41.483136 220.948093 42.512797 
Q 221.411441 43.542458 222.08072 44.417669 
Q 222.75 45.292881 223.436441 45.292881 
Q 223.711017 43.782712 224.140042 39.69839 
Q 224.569068 35.614068 225.083898 33.554746 
" clip-path="url(#p6bd7879c39)" style="fill: none; stroke: #000000; stroke-linejoin: miter"/>
   </g>
  </g>
  <g id="axes_15">
   <g id="patch_14">
    <path d="M 235.518579 29.071862 
Q 235.143683 29.146841 235.012469 29.577972 
Q 234.881255 30.009103 234.956234 30.42149 
Q 234.956234 30.571448 234.993724 30.702662 
Q 235.031214 30.833876 235.087448 30.89011 
Q 235.143683 30.946345 235.199917 31.040069 
Q 235.256152 31.133793 235.293641 31.208772 
L 235.40611 29.859145 
M 235.40611 34.020497 
Q 234.506359 39.006621 234.281421 42.793076 
L 234.731297 45.379862 
L 235.068703 46.054676 
" clip-path="url(#p01c6024f8c)" style="fill: none; stroke: #000000; stroke-linejoin: miter"/>
   </g>
  </g>
  <g id="axes_16">
   <g id="patch_15">
    <path d="M 246.320069 39.868883 
L 246.320069 39.419007 
Q 246.320069 37.769462 248.063338 36.682262 
Q 249.806607 35.595062 251.493641 35.595062 
Q 253.705531 35.595062 255.073903 36.794731 
Q 256.442276 37.9944 256.442276 40.20629 
Q 256.442276 42.30571 254.624028 43.336676 
Q 252.805779 44.367641 250.59389 44.367641 
Q 249.919076 44.367641 249.412966 44.255172 
Q 248.906855 44.142703 248.288276 43.917766 
Q 247.669697 43.692828 247.219821 43.580359 
L 246.095131 42.568138 
M 245.757724 36.832221 
Q 246.2076 38.444276 246.470028 40.262524 
Q 246.732455 42.080772 246.78869 43.749062 
Q 246.844924 45.417352 246.882414 47.27309 
Q 246.919903 49.128828 246.882414 50.778372 
L 246.769945 57.863917 
" clip-path="url(#pd8b7fad9cf)" style="fill: none; stroke: #000000; stroke-linejoin: miter"/>
   </g>
  </g>
  <g id="axes_17">
   <g id="patch_16">
    <path d="M 267.918579 29.071862 
Q 267.543683 29.146841 267.412469 29.577972 
Q 267.281255 30.009103 267.356234 30.42149 
Q 267.356234 30.571448 267.393724 30.702662 
Q 267.431214 30.833876 267.487448 30.89011 
Q 267.543683 30.946345 267.599917 31.040069 
Q 267.656152 31.133793 267.693641 31.208772 
L 267.80611 29.859145 
M 267.80611 34.020497 
Q 266.906359 39.006621 266.681421 42.793076 
L 267.131297 45.379862 
L 267.468703 46.054676 
" clip-path="url(#pf2adc20261)" style="fill: none; stroke: #000000; stroke-linejoin: miter"/>
   </g>
  </g>
  <g id="axes_18">
   <g id="patch_17">
    <path d="M 279.038731 37.282097 
L 279.038731 37.844441 
Q 279.301159 39.868883 279.338648 41.312234 
Q 279.376138 42.755586 279.282414 44.667559 
Q 279.18869 46.579531 279.18869 48.191586 
L 279.263669 39.643945 
Q 279.263669 38.144359 280.856979 37.507034 
Q 282.45029 36.86971 283.874897 37.282097 
Q 285.786869 37.844441 286.705366 39.04411 
Q 287.623862 40.243779 287.680097 41.668386 
Q 287.736331 43.092993 287.773821 44.817517 
Q 287.81131 46.542041 287.961269 48.191586 
" clip-path="url(#p9c4f95b88f)" style="fill: none; stroke: #000000; stroke-linejoin: miter"/>
   </g>
  </g>
  <g id="axes_19">
   <g id="patch_18">
    <path d="M 304.487191 39.096404 
Q 304.23236 39.023596 303.26764 38.623146 
Q 302.302921 38.222697 301.64764 38.077079 
Q 300.99236 37.931461 300.337079 38.00427 
Q 297.715955 38.00427 296.077753 40.388764 
Q 294.439551 42.773258 294.439551 45.430787 
Q 294.439551 47.068989 299.681798 47.068989 
Q 301.247191 47.068989 302.575955 45.558202 
Q 303.904719 44.047416 304.578202 42.172584 
Q 305.251685 40.297753 305.251685 38.768764 
Q 305.251685 37.27618 305.215281 36.984944 
L 305.142472 38.077079 
Q 305.142472 38.550337 305.142472 38.987191 
Q 305.178876 40.188539 305.379101 42.281798 
Q 305.579326 44.375056 305.743146 46.049663 
Q 305.906966 47.72427 305.943371 49.872135 
Q 305.979775 52.02 305.815955 53.658202 
Q 305.652135 55.296404 305.087865 56.971011 
Q 304.523596 58.645618 303.595281 59.737753 
Q 302.666966 60.829888 301.065169 61.521573 
Q 299.463371 62.213258 297.315506 62.213258 
Q 295.677303 62.213258 294.585169 61.466966 
Q 293.493034 60.720674 293.493034 59.155281 
Q 293.420225 58.936854 293.456629 58.936854 
Q 293.493034 58.936854 293.602247 58.936854 
Q 293.711461 58.936854 293.711461 58.82764 
" clip-path="url(#pdb4991df8b)" style="fill: none; stroke: #000000; stroke-linejoin: miter"/>
   </g>
  </g>
  <g id="axes_20"/>
  <g id="axes_21">
   <g id="patch_19">
    <path d="M 328.613462 35.932469 
Q 329.213297 35.257655 330.206772 34.826524 
Q 331.200248 34.395393 332.1 34.470372 
Q 332.737324 34.470372 333.22469 34.639076 
Q 333.712055 34.807779 334.030717 34.995228 
Q 334.349379 35.182676 334.574317 35.670041 
Q 334.799255 36.157407 334.911724 36.419834 
Q 335.024193 36.682262 335.080428 37.375821 
Q 335.136662 38.069379 335.155407 38.331807 
Q 335.174152 38.594234 335.155407 39.419007 
Q 335.136662 40.243779 335.136662 40.431228 
Q 335.136662 41.368469 334.967959 43.242952 
Q 334.799255 45.117434 334.799255 46.054676 
Q 334.799255 46.467062 334.85549 46.823214 
Q 334.911724 47.179366 335.005448 47.610497 
Q 335.099172 48.041628 335.136662 48.304055 
L 335.586538 48.528993 
M 329.063338 23.111007 
Q 329.288276 24.798041 329.288276 29.971614 
L 329.288276 42.3432 
L 328.950869 46.841959 
L 328.725931 47.74171 
" clip-path="url(#p2d691d4af8)" style="fill: none; stroke: #000000; stroke-linejoin: miter"/>
   </g>
  </g>
  <g id="axes_22">
   <g id="patch_20">
    <path d="M 348.918579 29.071862 
Q 348.543683 29.146841 348.412469 29.577972 
Q 348.281255 30.009103 348.356234 30.42149 
Q 348.356234 30.571448 348.393724 30.702662 
Q 348.431214 30.833876 348.487448 30.89011 
Q 348.543683 30.946345 348.599917 31.040069 
Q 348.656152 31.133793 348.693641 31.208772 
L 348.80611 29.859145 
M 348.80611 34.020497 
Q 347.906359 39.006621 347.681421 42.793076 
L 348.131297 45.379862 
L 348.468703 46.054676 
" clip-path="url(#p14cb6a437e)" style="fill: none; stroke: #000000; stroke-linejoin: miter"/>
   </g>
  </g>
  <g id="axes_23">
   <g id="patch_21">
    <path d="M 360.057476 43.917766 
Q 360.357393 44.180193 361.369614 45.154924 
Q 362.381834 46.129655 362.944179 46.560786 
Q 363.506524 46.991917 364.53749 47.385559 
Q 365.568455 47.7792 366.580676 47.629241 
Q 367.25549 47.629241 367.72411 47.404303 
Q 368.192731 47.179366 368.417669 46.879448 
Q 368.642607 46.579531 368.773821 45.979697 
Q 368.905034 45.379862 368.923779 44.967476 
Q 368.942524 44.55509 368.942524 43.805297 
Q 368.942524 42.718097 368.042772 42.043283 
Q 367.143021 41.368469 365.849628 41.031062 
Q 364.556234 40.693655 363.262841 40.300014 
Q 361.969448 39.906372 361.069697 38.987876 
Q 360.169945 38.069379 360.169945 36.607283 
Q 360.169945 36.082428 360.338648 35.726276 
Q 360.507352 35.370124 360.900993 35.145186 
Q 361.294634 34.920248 361.575807 34.807779 
Q 361.856979 34.69531 362.513048 34.639076 
Q 363.169117 34.582841 363.356566 34.582841 
Q 363.544014 34.582841 364.218828 34.582841 
Q 365.418497 34.582841 365.999586 34.995228 
Q 366.580676 35.407614 366.899338 36.026193 
Q 367.218 36.644772 367.480428 36.832221 
" clip-path="url(#p878c505990)" style="fill: none; stroke: #000000; stroke-linejoin: miter"/>
   </g>
  </g>
  <g id="axes_24"/>
  <g id="axes_25">
   <g id="patch_22">
    <path d="M 393.357228 37.244607 
Q 394.406938 37.207117 394.594386 37.132138 
Q 398.005945 37.132138 399.786703 39.212814 
Q 401.567462 41.29349 401.567462 44.780028 
Q 401.567462 47.704221 396.956234 47.704221 
Q 396.31891 47.704221 395.77531 47.591752 
Q 395.23171 47.479283 394.594386 47.254345 
Q 393.957062 47.029407 393.469697 46.916938 
L 392.232538 45.679779 
M 393.244759 25.435366 
L 393.244759 26.560055 
Q 393.244759 29.409269 393.357228 33.008276 
Q 393.469697 36.607283 393.657145 40.899848 
Q 393.844593 45.192414 393.919572 47.141876 
" clip-path="url(#p9b4f164935)" style="fill: none; stroke: #000000; stroke-linejoin: miter"/>
   </g>
  </g>
  <g id="axes_26">
   <g id="patch_23">
    <path d="M 409.613462 32.783338 
Q 410.138317 34.507862 410.269531 36.457324 
Q 410.400745 38.406786 410.325766 40.956083 
Q 410.250786 43.505379 410.288276 44.705048 
L 410.400745 46.054676 
L 410.400745 45.829738 
Q 410.400745 44.667559 410.119572 42.30571 
Q 409.8384 39.943862 409.8384 38.744193 
Q 409.8384 36.419834 410.850621 34.882759 
Q 411.862841 33.345683 413.887283 33.345683 
Q 414.599586 33.345683 414.936993 33.626855 
Q 415.2744 33.908028 415.536828 34.432883 
Q 415.799255 34.957738 416.136662 35.257655 
L 416.586538 36.832221 
" clip-path="url(#pe693c7483c)" style="fill: none; stroke: #000000; stroke-linejoin: miter"/>
   </g>
  </g>
  <g id="axes_27">
   <g id="patch_24">
    <path d="M 432.5616 35.032717 
Q 431.51189 34.582841 430.537159 34.69531 
Q 427.500497 35.032717 425.588524 36.701007 
Q 423.676552 38.369297 423.676552 41.330979 
Q 423.676552 43.917766 425.682248 45.6048 
Q 427.687945 47.291834 430.312221 47.291834 
Q 432.674069 47.291834 433.798759 45.361117 
Q 434.923448 43.4304 434.923448 40.881103 
Q 434.923448 39.643945 434.511062 38.706703 
Q 434.098676 37.769462 433.573821 37.300841 
Q 433.048966 36.832221 432.299172 36.119917 
Q 431.549379 35.407614 431.099503 34.69531 
L 429.862345 34.245434 
" clip-path="url(#pa854c40d76)" style="fill: none; stroke: #000000; stroke-linejoin: miter"/>
   </g>
  </g>
  <g id="axes_28">
   <g id="patch_25">
    <path d="M 439.116102 36.437797 
L 440.351695 44.778051 
Q 440.454661 45.567458 440.454661 45.60178 
Q 440.454661 45.704746 440.763559 45.704746 
Q 441.62161 45.704746 442.342373 44.778051 
Q 443.063136 43.851356 443.475 42.718729 
Q 443.886864 41.586102 444.401695 40.659407 
Q 444.916525 39.732712 445.397034 39.732712 
Q 446.014831 39.732712 446.649788 40.607924 
Q 447.284746 41.483136 447.748093 42.512797 
Q 448.211441 43.542458 448.88072 44.417669 
Q 449.55 45.292881 450.236441 45.292881 
Q 450.511017 43.782712 450.940042 39.69839 
Q 451.369068 35.614068 451.883898 33.554746 
" clip-path="url(#pba24504e14)" style="fill: none; stroke: #000000; stroke-linejoin: miter"/>
   </g>
  </g>
  <g id="axes_29"/>
  <g id="axes_30">
   <g id="patch_26">
    <path d="M 483.443923 36.441748 
Q 482.234968 35.094627 478.262687 35.094627 
Q 476.742857 35.094627 475.965672 35.146439 
Q 475.188486 35.198252 474.18678 35.440043 
Q 473.185075 35.681834 472.701493 36.182687 
Q 472.21791 36.683539 471.872495 37.616162 
Q 471.527079 38.548785 471.527079 39.964989 
Q 471.527079 42.037484 472.943284 43.280981 
Q 474.359488 44.524478 476.293817 44.524478 
Q 478.953518 44.524478 481.716844 38.721493 
Q 483.063966 35.854542 483.063966 35.82 
Q 483.409382 35.578209 483.443923 36.441748 
Q 483.443923 37.512537 483.858422 40.362217 
Q 484.272921 43.211898 484.272921 44.524478 
" clip-path="url(#p173eebca48)" style="fill: none; stroke: #000000; stroke-linejoin: miter"/>
   </g>
  </g>
  <g id="axes_31">
   <g id="patch_27">
    <path d="M 489.638731 37.282097 
L 489.638731 37.844441 
Q 489.901159 39.868883 489.938648 41.312234 
Q 489.976138 42.755586 489.882414 44.667559 
Q 489.78869 46.579531 489.78869 48.191586 
L 489.863669 39.643945 
Q 489.863669 38.144359 491.456979 37.507034 
Q 493.05029 36.86971 494.474897 37.282097 
Q 496.386869 37.844441 497.305366 39.04411 
Q 498.223862 40.243779 498.280097 41.668386 
Q 498.336331 43.092993 498.373821 44.817517 
Q 498.41131 46.542041 498.561269 48.191586 
" clip-path="url(#p9b7cb9ccad)" style="fill: none; stroke: #000000; stroke-linejoin: miter"/>
   </g>
  </g>
  <g id="axes_32">
   <g id="patch_28">
    <path d="M 513.899007 39.568966 
Q 512.549379 38.181848 510.3 38.444276 
Q 507.450786 38.444276 506.288607 39.793903 
Q 505.126428 41.143531 505.126428 44.067724 
Q 505.126428 45.56731 506.419821 46.279614 
Q 507.713214 46.991917 509.287779 46.991917 
Q 510.599917 46.991917 511.612138 45.736014 
Q 512.624359 44.48011 513.205448 42.30571 
Q 513.786538 40.13131 514.161434 37.938166 
Q 514.536331 35.745021 514.68629 33.045766 
Q 514.836248 30.34651 514.873738 28.978138 
Q 514.911228 27.609766 514.911228 26.185159 
Q 514.68629 26.260138 514.68629 29.896634 
L 514.68629 44.292662 
L 515.473572 48.229076 
" clip-path="url(#pc96db16f29)" style="fill: none; stroke: #000000; stroke-linejoin: miter"/>
   </g>
  </g>
  <g id="axes_33"/>
  <g id="axes_34">
   <g id="patch_29">
    <path d="M 542.306359 28.621986 
Q 542.531297 30.34651 542.606276 32.146014 
Q 542.681255 33.945517 542.66251 36.551048 
Q 542.643766 39.156579 542.643766 40.093821 
Q 542.643766 40.13131 542.868703 45.829738 
L 543.093641 46.841959 
" clip-path="url(#p37138c3c22)" style="fill: none; stroke: #000000; stroke-linejoin: miter"/>
   </g>
  </g>
  <g id="axes_35">
   <g id="patch_30">
    <path d="M 552.657798 38.160826 
Q 555.630275 39.535596 560.349083 39.721376 
Q 561.872477 39.721376 562.559862 38.550963 
Q 563.247248 37.38055 563.247248 35.82 
Q 563.247248 35.299817 563.154358 34.909679 
Q 563.061468 34.519541 562.819954 34.296606 
Q 562.57844 34.07367 562.411239 33.943624 
Q 562.244037 33.813578 561.798165 33.757844 
Q 561.352294 33.70211 561.147936 33.683532 
Q 560.943578 33.664954 560.367661 33.683532 
Q 559.791743 33.70211 559.568807 33.70211 
Q 557.525229 33.70211 556.038991 35.578486 
Q 554.552752 37.454862 554.552752 39.609908 
Q 554.552752 42.619541 556.484862 44.570229 
Q 558.416972 46.520917 561.463761 46.520917 
Q 563.618807 46.818165 565.142202 44.29156 
" clip-path="url(#p2b1e6fb9d9)" style="fill: none; stroke: #000000; stroke-linejoin: miter"/>
   </g>
  </g>
  <g id="axes_36">
   <g id="patch_31">
    <path d="M 580.643923 36.441748 
Q 579.434968 35.094627 575.462687 35.094627 
Q 573.942857 35.094627 573.165672 35.146439 
Q 572.388486 35.198252 571.38678 35.440043 
Q 570.385075 35.681834 569.901493 36.182687 
Q 569.41791 36.683539 569.072495 37.616162 
Q 568.727079 38.548785 568.727079 39.964989 
Q 568.727079 42.037484 570.143284 43.280981 
Q 571.559488 44.524478 573.493817 44.524478 
Q 576.153518 44.524478 578.916844 38.721493 
Q 580.263966 35.854542 580.263966 35.82 
Q 580.609382 35.578209 580.643923 36.441748 
Q 580.643923 37.512537 581.058422 40.362217 
Q 581.472921 43.211898 581.472921 44.524478 
" clip-path="url(#p77e3a4cfe4)" style="fill: none; stroke: #000000; stroke-linejoin: miter"/>
   </g>
  </g>
  <g id="axes_37">
   <g id="patch_32">
    <path d="M 594.899007 39.568966 
Q 593.549379 38.181848 591.3 38.444276 
Q 588.450786 38.444276 587.288607 39.793903 
Q 586.126428 41.143531 586.126428 44.067724 
Q 586.126428 45.56731 587.419821 46.279614 
Q 588.713214 46.991917 590.287779 46.991917 
Q 591.599917 46.991917 592.612138 45.736014 
Q 593.624359 44.48011 594.205448 42.30571 
Q 594.786538 40.13131 595.161434 37.938166 
Q 595.536331 35.745021 595.68629 33.045766 
Q 595.836248 30.34651 595.873738 28.978138 
Q 595.911228 27.609766 595.911228 26.185159 
Q 595.68629 26.260138 595.68629 29.896634 
L 595.68629 44.292662 
L 596.473572 48.229076 
" clip-path="url(#p992147264e)" style="fill: none; stroke: #000000; stroke-linejoin: miter"/>
   </g>
  </g>
  <g id="axes_38">
   <g id="patch_33">
    <path d="M 608.118579 29.071862 
Q 607.743683 29.146841 607.612469 29.577972 
Q 607.481255 30.009103 607.556234 30.42149 
Q 607.556234 30.571448 607.593724 30.702662 
Q 607.631214 30.833876 607.687448 30.89011 
Q 607.743683 30.946345 607.799917 31.040069 
Q 607.856152 31.133793 607.893641 31.208772 
L 608.00611 29.859145 
M 608.00611 34.020497 
Q 607.106359 39.006621 606.881421 42.793076 
L 607.331297 45.379862 
L 607.668703 46.054676 
" clip-path="url(#p961577258b)" style="fill: none; stroke: #000000; stroke-linejoin: miter"/>
   </g>
  </g>
  <g id="axes_39">
   <g id="patch_34">
    <path d="M 619.238731 37.282097 
L 619.238731 37.844441 
Q 619.501159 39.868883 619.538648 41.312234 
Q 619.576138 42.755586 619.482414 44.667559 
Q 619.38869 46.579531 619.38869 48.191586 
L 619.463669 39.643945 
Q 619.463669 38.144359 621.056979 37.507034 
Q 622.65029 36.86971 624.074897 37.282097 
Q 625.986869 37.844441 626.905366 39.04411 
Q 627.823862 40.243779 627.880097 41.668386 
Q 627.936331 43.092993 627.973821 44.817517 
Q 628.01131 46.542041 628.161269 48.191586 
" clip-path="url(#p3a37ba4f11)" style="fill: none; stroke: #000000; stroke-linejoin: miter"/>
   </g>
  </g>
  <g id="axes_40">
   <g id="patch_35">
    <path d="M 644.687191 39.096404 
Q 644.43236 39.023596 643.46764 38.623146 
Q 642.502921 38.222697 641.84764 38.077079 
Q 641.19236 37.931461 640.537079 38.00427 
Q 637.915955 38.00427 636.277753 40.388764 
Q 634.639551 42.773258 634.639551 45.430787 
Q 634.639551 47.068989 639.881798 47.068989 
Q 641.447191 47.068989 642.775955 45.558202 
Q 644.104719 44.047416 644.778202 42.172584 
Q 645.451685 40.297753 645.451685 38.768764 
Q 645.451685 37.27618 645.415281 36.984944 
L 645.342472 38.077079 
Q 645.342472 38.550337 645.342472 38.987191 
Q 645.378876 40.188539 645.579101 42.281798 
Q 645.779326 44.375056 645.943146 46.049663 
Q 646.106966 47.72427 646.143371 49.872135 
Q 646.179775 52.02 646.015955 53.658202 
Q 645.852135 55.296404 645.287865 56.971011 
Q 644.723596 58.645618 643.795281 59.737753 
Q 642.866966 60.829888 641.265169 61.521573 
Q 639.663371 62.213258 637.515506 62.213258 
Q 635.877303 62.213258 634.785169 61.466966 
Q 633.693034 60.720674 633.693034 59.155281 
Q 633.620225 58.936854 633.656629 58.936854 
Q 633.693034 58.936854 633.802247 58.936854 
Q 633.911461 58.936854 633.911461 58.82764 
" clip-path="url(#p78b1f238df)" style="fill: none; stroke: #000000; stroke-linejoin: miter"/>
   </g>
  </g>
  <g id="axes_41"/>
  <g id="axes_42">
   <g id="patch_36">
    <path d="M 668.981498 38.139383 
Q 668.981498 38.139383 671.015419 38.139383 
Q 671.836123 37.889604 674.155507 38.085859 
Q 676.47489 38.282115 677.438326 38.139383 
M 665.984141 46.489163 
L 666.091189 46.168018 
Q 666.091189 45.275947 668.018062 40.797753 
Q 669.944934 36.319559 671.907489 32.251718 
Q 673.870044 28.183877 674.012775 28.183877 
Q 674.869163 28.183877 675.564978 29.646872 
Q 676.260793 31.109868 676.72467 33.393568 
Q 677.188546 35.677269 677.527533 37.943128 
Q 677.86652 40.208987 678.151982 42.332115 
Q 678.437445 44.455242 678.615859 45.097533 
" clip-path="url(#p04bbd44ffa)" style="fill: none; stroke: #000000; stroke-linejoin: miter"/>
   </g>
  </g>
  <g id="axes_43">
   <g id="patch_37">
    <path d="M 684.038731 37.282097 
L 684.038731 37.844441 
Q 684.301159 39.868883 684.338648 41.312234 
Q 684.376138 42.755586 684.282414 44.667559 
Q 684.18869 46.579531 684.18869 48.191586 
L 684.263669 39.643945 
Q 684.263669 38.144359 685.856979 37.507034 
Q 687.45029 36.86971 688.874897 37.282097 
Q 690.786869 37.844441 691.705366 39.04411 
Q 692.623862 40.243779 692.680097 41.668386 
Q 692.736331 43.092993 692.773821 44.817517 
Q 692.81131 46.542041 692.961269 48.191586 
" clip-path="url(#pc5e655fcf4)" style="fill: none; stroke: #000000; stroke-linejoin: miter"/>
   </g>
  </g>
  <g id="axes_44">
   <g id="patch_38">
    <path d="M 709.487191 39.096404 
Q 709.23236 39.023596 708.26764 38.623146 
Q 707.302921 38.222697 706.64764 38.077079 
Q 705.99236 37.931461 705.337079 38.00427 
Q 702.715955 38.00427 701.077753 40.388764 
Q 699.439551 42.773258 699.439551 45.430787 
Q 699.439551 47.068989 704.681798 47.068989 
Q 706.247191 47.068989 707.575955 45.558202 
Q 708.904719 44.047416 709.578202 42.172584 
Q 710.251685 40.297753 710.251685 38.768764 
Q 710.251685 37.27618 710.215281 36.984944 
L 710.142472 38.077079 
Q 710.142472 38.550337 710.142472 38.987191 
Q 710.178876 40.188539 710.379101 42.281798 
Q 710.579326 44.375056 710.743146 46.049663 
Q 710.906966 47.72427 710.943371 49.872135 
Q 710.979775 52.02 710.815955 53.658202 
Q 710.652135 55.296404 710.087865 56.971011 
Q 709.523596 58.645618 708.595281 59.737753 
Q 707.666966 60.829888 706.065169 61.521573 
Q 704.463371 62.213258 702.315506 62.213258 
Q 700.677303 62.213258 699.585169 61.466966 
Q 698.493034 60.720674 698.493034 59.155281 
Q 698.420225 58.936854 698.456629 58.936854 
Q 698.493034 58.936854 698.602247 58.936854 
Q 698.711461 58.936854 698.711461 58.82764 
" clip-path="url(#pb0cfdcbe51)" style="fill: none; stroke: #000000; stroke-linejoin: miter"/>
   </g>
  </g>
  <g id="axes_45">
   <g id="patch_39">
    <path d="M 714.657798 38.160826 
Q 717.630275 39.535596 722.349083 39.721376 
Q 723.872477 39.721376 724.559862 38.550963 
Q 725.247248 37.38055 725.247248 35.82 
Q 725.247248 35.299817 725.154358 34.909679 
Q 725.061468 34.519541 724.819954 34.296606 
Q 724.57844 34.07367 724.411239 33.943624 
Q 724.244037 33.813578 723.798165 33.757844 
Q 723.352294 33.70211 723.147936 33.683532 
Q 722.943578 33.664954 722.367661 33.683532 
Q 721.791743 33.70211 721.568807 33.70211 
Q 719.525229 33.70211 718.038991 35.578486 
Q 716.552752 37.454862 716.552752 39.609908 
Q 716.552752 42.619541 718.484862 44.570229 
Q 720.416972 46.520917 723.463761 46.520917 
Q 725.618807 46.818165 727.142202 44.29156 
" clip-path="url(#p0bb22fd539)" style="fill: none; stroke: #000000; stroke-linejoin: miter"/>
   </g>
  </g>
  <g id="axes_46">
   <g id="patch_40">
    <path d="M 736.706359 28.621986 
Q 736.931297 30.34651 737.006276 32.146014 
Q 737.081255 33.945517 737.06251 36.551048 
Q 737.043766 39.156579 737.043766 40.093821 
Q 737.043766 40.13131 737.268703 45.829738 
L 737.493641 46.841959 
" clip-path="url(#p562b522145)" style="fill: none; stroke: #000000; stroke-linejoin: miter"/>
   </g>
  </g>
  <g id="axes_47">
   <g id="patch_41">
    <path d="M 758.843923 36.441748 
Q 757.634968 35.094627 753.662687 35.094627 
Q 752.142857 35.094627 751.365672 35.146439 
Q 750.588486 35.198252 749.58678 35.440043 
Q 748.585075 35.681834 748.101493 36.182687 
Q 747.61791 36.683539 747.272495 37.616162 
Q 746.927079 38.548785 746.927079 39.964989 
Q 746.927079 42.037484 748.343284 43.280981 
Q 749.759488 44.524478 751.693817 44.524478 
Q 754.353518 44.524478 757.116844 38.721493 
Q 758.463966 35.854542 758.463966 35.82 
Q 758.809382 35.578209 758.843923 36.441748 
Q 758.843923 37.512537 759.258422 40.362217 
Q 759.672921 43.211898 759.672921 44.524478 
" clip-path="url(#p850e21b3a4)" style="fill: none; stroke: #000000; stroke-linejoin: miter"/>
   </g>
  </g>
 </g>
 <defs>
  <clipPath id="p6c5bfb1f12">
   <rect x="0" y="9.603482" width="16.2" height="52.433036"/>
  </clipPath>
  <clipPath id="p2a7da9d79f">
   <rect x="16.802069" y="8.64" width="14.995862" height="54.36"/>
  </clipPath>
  <clipPath id="p1edc9cdc72">
   <rect x="34.164248" y="8.64" width="12.671503" height="54.36"/>
  </clipPath>
  <clipPath id="p632dc19ecf">
   <rect x="50.382993" y="8.64" width="12.634014" height="54.36"/>
  </clipPath>
  <clipPath id="p9572963fb1">
   <rect x="65.402069" y="8.64" width="14.995862" height="54.36"/>
  </clipPath>
  <clipPath id="p27a91ffc58">
   <rect x="82.764248" y="8.64" width="12.671503" height="54.36"/>
  </clipPath>
  <clipPath id="p7a77906a50">
   <rect x="115.182993" y="8.64" width="12.634014" height="54.36"/>
  </clipPath>
  <clipPath id="p3c9ab3b008">
   <rect x="129.6" y="10.777356" width="16.2" height="50.085288"/>
  </clipPath>
  <clipPath id="pd1d3d61416">
   <rect x="146.851945" y="8.64" width="14.09611" height="54.36"/>
  </clipPath>
  <clipPath id="p8c2ddc5317">
   <rect x="163.782993" y="8.64" width="12.634014" height="54.36"/>
  </clipPath>
  <clipPath id="pfa0e90cb4c">
   <rect x="183.600745" y="8.64" width="5.39851" height="54.36"/>
  </clipPath>
  <clipPath id="p6bd7879c39">
   <rect x="210.6" y="10.936525" width="16.2" height="49.766949"/>
  </clipPath>
  <clipPath id="p01c6024f8c">
   <rect x="232.406938" y="8.64" width="4.986124" height="54.36"/>
  </clipPath>
  <clipPath id="pd8b7fad9cf">
   <rect x="243.883241" y="8.64" width="14.433517" height="54.36"/>
  </clipPath>
  <clipPath id="pf2adc20261">
   <rect x="264.806938" y="8.64" width="4.986124" height="54.36"/>
  </clipPath>
  <clipPath id="p9c4f95b88f">
   <rect x="277.164248" y="8.64" width="12.671503" height="54.36"/>
  </clipPath>
  <clipPath id="pdb4991df8b">
   <rect x="291.6" y="9.426742" width="16.2" height="52.786517"/>
  </clipPath>
  <clipPath id="p2d691d4af8">
   <rect x="326.738979" y="8.64" width="10.722041" height="54.36"/>
  </clipPath>
  <clipPath id="p14cb6a437e">
   <rect x="345.806938" y="8.64" width="4.986124" height="54.36"/>
  </clipPath>
  <clipPath id="p878c505990">
   <rect x="358.182993" y="8.64" width="12.634014" height="54.36"/>
  </clipPath>
  <clipPath id="p9b4f164935">
   <rect x="390.358055" y="8.64" width="13.08389" height="54.36"/>
  </clipPath>
  <clipPath id="pe693c7483c">
   <rect x="407.738979" y="8.64" width="10.722041" height="54.36"/>
  </clipPath>
  <clipPath id="pa854c40d76">
   <rect x="421.802069" y="8.64" width="14.995862" height="54.36"/>
  </clipPath>
  <clipPath id="pba24504e14">
   <rect x="437.4" y="10.936525" width="16.2" height="49.766949"/>
  </clipPath>
  <clipPath id="p173eebca48">
   <rect x="469.8" y="10.777356" width="16.2" height="50.085288"/>
  </clipPath>
  <clipPath id="p9b7cb9ccad">
   <rect x="487.764248" y="8.64" width="12.671503" height="54.36"/>
  </clipPath>
  <clipPath id="pc96db16f29">
   <rect x="503.251945" y="8.64" width="14.09611" height="54.36"/>
  </clipPath>
  <clipPath id="p37138c3c22">
   <rect x="540.431876" y="8.64" width="4.536248" height="54.36"/>
  </clipPath>
  <clipPath id="p2b1e6fb9d9">
   <rect x="550.8" y="8.881927" width="16.2" height="53.876147"/>
  </clipPath>
  <clipPath id="p77e3a4cfe4">
   <rect x="567" y="10.777356" width="16.2" height="50.085288"/>
  </clipPath>
  <clipPath id="p992147264e">
   <rect x="584.251945" y="8.64" width="14.09611" height="54.36"/>
  </clipPath>
  <clipPath id="p961577258b">
   <rect x="605.006938" y="8.64" width="4.986124" height="54.36"/>
  </clipPath>
  <clipPath id="p3a37ba4f11">
   <rect x="617.364248" y="8.64" width="12.671503" height="54.36"/>
  </clipPath>
  <clipPath id="p78b1f238df">
   <rect x="631.8" y="9.426742" width="16.2" height="52.786517"/>
  </clipPath>
  <clipPath id="p04bbd44ffa">
   <rect x="664.2" y="9.949956" width="16.2" height="51.740088"/>
  </clipPath>
  <clipPath id="pc5e655fcf4">
   <rect x="682.164248" y="8.64" width="12.671503" height="54.36"/>
  </clipPath>
  <clipPath id="pb0cfdcbe51">
   <rect x="696.6" y="9.426742" width="16.2" height="52.786517"/>
  </clipPath>
  <clipPath id="p0bb22fd539">
   <rect x="712.8" y="8.881927" width="16.2" height="53.876147"/>
  </clipPath>
  <clipPath id="p562b522145">
   <rect x="734.831876" y="8.64" width="4.536248" height="54.36"/>
  </clipPath>
  <clipPath id="p850e21b3a4">
   <rect x="745.2" y="10.777356" width="16.2" height="50.085288"/>
  </clipPath>
 </defs>
</svg>
