<?xml version="1.0" encoding="utf-8" standalone="no"?>
<!DOCTYPE svg PUBLIC "-//W3C//DTD SVG 1.1//EN"
  "http://www.w3.org/Graphics/SVG/1.1/DTD/svg11.dtd">
<svg xmlns:xlink="http://www.w3.org/1999/xlink" width="846pt" height="72pt" viewBox="0 0 846 72" xmlns="http://www.w3.org/2000/svg" version="1.1">
 <metadata>
  <rdf:RDF xmlns:dc="http://purl.org/dc/elements/1.1/" xmlns:cc="http://creativecommons.org/ns#" xmlns:rdf="http://www.w3.org/1999/02/22-rdf-syntax-ns#">
   <cc:Work>
    <dc:type rdf:resource="http://purl.org/dc/dcmitype/StillImage"/>
    <dc:date>2023-12-21T11:53:43.022697</dc:date>
    <dc:format>image/svg+xml</dc:format>
    <dc:creator>
     <cc:Agent>
      <dc:title>Matplotlib v3.5.1, https://matplotlib.org/</dc:title>
     </cc:Agent>
    </dc:creator>
   </cc:Work>
  </rdf:RDF>
 </metadata>
 <defs>
  <style type="text/css">*{stroke-linejoin: round; stroke-linecap: butt}</style>
 </defs>
 <g id="figure_1">
  <g id="patch_1">
   <path d="M 0 72 
L 846 72 
L 846 0 
L 0 0 
z
" style="fill: #8fff9f"/>
  </g>
  <g id="axes_1">
   <g id="patch_2">
    <path d="M 13.643923 36.441748 
Q 12.434968 35.094627 8.462687 35.094627 
Q 6.942857 35.094627 6.165672 35.146439 
Q 5.388486 35.198252 4.38678 35.440043 
Q 3.385075 35.681834 2.901493 36.182687 
Q 2.41791 36.683539 2.072495 37.616162 
Q 1.727079 38.548785 1.727079 39.964989 
Q 1.727079 42.037484 3.143284 43.280981 
Q 4.559488 44.524478 6.493817 44.524478 
Q 9.153518 44.524478 11.916844 38.721493 
Q 13.263966 35.854542 13.263966 35.82 
Q 13.609382 35.578209 13.643923 36.441748 
Q 13.643923 37.512537 14.058422 40.362217 
Q 14.472921 43.211898 14.472921 44.524478 
" clip-path="url(#p8cf51499ed)" style="fill: none; stroke: #000000; stroke-linejoin: miter"/>
   </g>
  </g>
  <g id="axes_2">
   <g id="patch_3">
    <path d="M 19.463834 37.95691 
L 20.138648 37.95691 
Q 20.850952 37.95691 21.638234 37.881931 
Q 22.425517 37.806952 23.381503 37.675738 
Q 24.33749 37.544524 24.862345 37.507034 
L 29.136166 35.82 
M 25.087283 30.42149 
L 25.087283 31.43371 
Q 25.087283 33.383172 24.412469 37.207117 
Q 23.737655 41.031062 23.737655 43.018014 
Q 23.737655 43.805297 23.737655 44.105214 
Q 23.737655 44.405131 23.831379 45.042455 
Q 23.925103 45.679779 24.112552 45.960952 
Q 24.3 46.242124 24.693641 46.485807 
Q 25.087283 46.72949 25.649628 46.72949 
Q 25.762097 46.692 26.080759 46.72949 
Q 26.399421 46.766979 26.586869 46.710745 
Q 26.774317 46.65451 26.774317 46.392083 
" clip-path="url(#p93c2562337)" style="fill: none; stroke: #000000; stroke-linejoin: miter"/>
   </g>
  </g>
  <g id="axes_3"/>
  <g id="axes_4">
   <g id="patch_4">
    <path d="M 51.920069 39.868883 
L 51.920069 39.419007 
Q 51.920069 37.769462 53.663338 36.682262 
Q 55.406607 35.595062 57.093641 35.595062 
Q 59.305531 35.595062 60.673903 36.794731 
Q 62.042276 37.9944 62.042276 40.20629 
Q 62.042276 42.30571 60.224028 43.336676 
Q 58.405779 44.367641 56.19389 44.367641 
Q 55.519076 44.367641 55.012966 44.255172 
Q 54.506855 44.142703 53.888276 43.917766 
Q 53.269697 43.692828 52.819821 43.580359 
L 51.695131 42.568138 
M 51.357724 36.832221 
Q 51.8076 38.444276 52.070028 40.262524 
Q 52.332455 42.080772 52.38869 43.749062 
Q 52.444924 45.417352 52.482414 47.27309 
Q 52.519903 49.128828 52.482414 50.778372 
L 52.369945 57.863917 
" clip-path="url(#pa5def6cbc2)" style="fill: none; stroke: #000000; stroke-linejoin: miter"/>
   </g>
  </g>
  <g id="axes_5">
   <g id="patch_5">
    <path d="M 72.506359 28.621986 
Q 72.731297 30.34651 72.806276 32.146014 
Q 72.881255 33.945517 72.86251 36.551048 
Q 72.843766 39.156579 72.843766 40.093821 
Q 72.843766 40.13131 73.068703 45.829738 
L 73.293641 46.841959 
" clip-path="url(#pf2c5dfadc1)" style="fill: none; stroke: #000000; stroke-linejoin: miter"/>
   </g>
  </g>
  <g id="axes_6">
   <g id="patch_6">
    <path d="M 94.643923 36.441748 
Q 93.434968 35.094627 89.462687 35.094627 
Q 87.942857 35.094627 87.165672 35.146439 
Q 86.388486 35.198252 85.38678 35.440043 
Q 84.385075 35.681834 83.901493 36.182687 
Q 83.41791 36.683539 83.072495 37.616162 
Q 82.727079 38.548785 82.727079 39.964989 
Q 82.727079 42.037484 84.143284 43.280981 
Q 85.559488 44.524478 87.493817 44.524478 
Q 90.153518 44.524478 92.916844 38.721493 
Q 94.263966 35.854542 94.263966 35.82 
Q 94.609382 35.578209 94.643923 36.441748 
Q 94.643923 37.512537 95.058422 40.362217 
Q 95.472921 43.211898 95.472921 44.524478 
" clip-path="url(#pf8da8dae5e)" style="fill: none; stroke: #000000; stroke-linejoin: miter"/>
   </g>
  </g>
  <g id="axes_7">
   <g id="patch_7">
    <path d="M 100.163917 36.382345 
Q 100.126428 36.494814 100.257641 36.701007 
Q 100.388855 36.9072 100.276386 37.057159 
L 100.276386 39.306538 
Q 100.276386 40.506207 100.613793 41.724621 
Q 100.9512 42.943034 101.813462 43.93651 
Q 102.675724 44.929986 103.875393 44.929986 
Q 105.112552 44.929986 105.787366 43.861531 
Q 106.462179 42.793076 106.912055 41.143531 
Q 107.361931 39.493986 107.699338 38.969131 
L 108.486621 36.382345 
L 108.261683 42.680607 
L 108.261683 45.154924 
Q 108.261683 47.066897 108.992731 51.00331 
Q 109.723779 54.939724 109.723779 56.964166 
Q 110.473572 59.213545 109.386372 60.188276 
Q 108.299172 61.163007 106.237241 60.78811 
Q 104.437738 60.488193 103.519241 60.169531 
Q 102.600745 59.850869 100.613793 58.988607 
L 100.501324 58.426262 
" clip-path="url(#p72dda8c140)" style="fill: none; stroke: #000000; stroke-linejoin: miter"/>
   </g>
  </g>
  <g id="axes_8">
   <g id="patch_8">
    <path d="M 121.387531 45.979697 
Q 121.350041 46.017186 121.218828 46.054676 
Q 121.087614 46.092166 121.125103 46.167145 
Q 121.125103 46.579531 121.5 46.579531 
Q 121.837407 46.579531 121.837407 46.092166 
Q 121.912386 45.867228 121.631214 45.754759 
Q 121.350041 45.64229 121.162593 45.754759 
" clip-path="url(#p2a16ae5955)" style="fill: none; stroke: #000000; stroke-linejoin: miter"/>
   </g>
  </g>
  <g id="axes_9"/>
  <g id="axes_10">
   <g id="patch_9">
    <path d="M 147.848638 35.788482 
L 148.037743 35.788482 
Q 148.920233 35.788482 150.685214 35.69393 
Q 152.450195 35.599377 153.332685 35.599377 
Q 154.877043 35.599377 156.074708 35.835759 
Q 157.272374 36.07214 158.296693 36.655214 
Q 159.321012 37.238288 159.872568 38.35716 
Q 160.424125 39.476031 160.424125 41.083424 
Q 160.424125 46.567471 150.307004 46.567471 
Q 150.275486 46.567471 148.415953 46.283813 
L 147.848638 46.000156 
M 147.848638 27.562412 
Q 149.487549 26.679922 151.441634 26.71144 
Q 153.710895 26.71144 155.743774 28.035175 
Q 157.776654 29.358911 157.776654 31.533619 
Q 157.776654 32.825837 157.225097 33.582257 
Q 156.673541 34.338677 155.948638 34.527782 
Q 155.223735 34.716887 154.230934 35.06358 
Q 153.238132 35.410272 152.670817 35.883035 
L 147.848638 35.788482 
M 147.375875 27.656965 
Q 147.596498 28.949183 147.533463 32.494903 
Q 147.470428 36.040623 148.037743 37.301323 
Q 148.037743 38.309883 147.990467 40.358521 
Q 147.943191 42.40716 147.943191 43.447237 
L 147.943191 45.243735 
L 147.754086 46.000156 
" clip-path="url(#p62af783da9)" style="fill: none; stroke: #000000; stroke-linejoin: miter"/>
   </g>
  </g>
  <g id="axes_11">
   <g id="patch_10">
    <path d="M 165.488772 35.145186 
Q 165.488772 35.145186 165.488772 35.595062 
Q 165.488772 36.269876 165.376303 37.619503 
Q 165.263834 38.969131 165.263834 39.643945 
Q 165.263834 41.930814 166.500993 43.599103 
Q 167.738152 45.267393 169.875062 45.267393 
Q 171.262179 45.154924 172.030717 43.917766 
Q 172.799255 42.680607 172.949214 41.237255 
Q 173.099172 39.793903 173.3616 37.9944 
Q 173.624028 36.194897 174.036414 35.370124 
Q 174.186372 35.070207 174.186372 35.670041 
Q 174.186372 36.269876 173.923945 38.706703 
Q 173.699007 41.031062 173.699007 41.555917 
Q 173.549048 42.643117 173.886455 43.767807 
Q 174.223862 44.892497 174.936166 45.6048 
" clip-path="url(#p719f1059e4)" style="fill: none; stroke: #000000; stroke-linejoin: miter"/>
   </g>
  </g>
  <g id="axes_12">
   <g id="patch_11">
    <path d="M 181.463834 37.95691 
L 182.138648 37.95691 
Q 182.850952 37.95691 183.638234 37.881931 
Q 184.425517 37.806952 185.381503 37.675738 
Q 186.33749 37.544524 186.862345 37.507034 
L 191.136166 35.82 
M 187.087283 30.42149 
L 187.087283 31.43371 
Q 187.087283 33.383172 186.412469 37.207117 
Q 185.737655 41.031062 185.737655 43.018014 
Q 185.737655 43.805297 185.737655 44.105214 
Q 185.737655 44.405131 185.831379 45.042455 
Q 185.925103 45.679779 186.112552 45.960952 
Q 186.3 46.242124 186.693641 46.485807 
Q 187.087283 46.72949 187.649628 46.72949 
Q 187.762097 46.692 188.080759 46.72949 
Q 188.399421 46.766979 188.586869 46.710745 
Q 188.774317 46.65451 188.774317 46.392083 
" clip-path="url(#p1a63c2f672)" style="fill: none; stroke: #000000; stroke-linejoin: miter"/>
   </g>
  </g>
  <g id="axes_13"/>
  <g id="axes_14">
   <g id="patch_12">
    <path d="M 214.257476 43.917766 
Q 214.557393 44.180193 215.569614 45.154924 
Q 216.581834 46.129655 217.144179 46.560786 
Q 217.706524 46.991917 218.73749 47.385559 
Q 219.768455 47.7792 220.780676 47.629241 
Q 221.45549 47.629241 221.92411 47.404303 
Q 222.392731 47.179366 222.617669 46.879448 
Q 222.842607 46.579531 222.973821 45.979697 
Q 223.105034 45.379862 223.123779 44.967476 
Q 223.142524 44.55509 223.142524 43.805297 
Q 223.142524 42.718097 222.242772 42.043283 
Q 221.343021 41.368469 220.049628 41.031062 
Q 218.756234 40.693655 217.462841 40.300014 
Q 216.169448 39.906372 215.269697 38.987876 
Q 214.369945 38.069379 214.369945 36.607283 
Q 214.369945 36.082428 214.538648 35.726276 
Q 214.707352 35.370124 215.100993 35.145186 
Q 215.494634 34.920248 215.775807 34.807779 
Q 216.056979 34.69531 216.713048 34.639076 
Q 217.369117 34.582841 217.556566 34.582841 
Q 217.744014 34.582841 218.418828 34.582841 
Q 219.618497 34.582841 220.199586 34.995228 
Q 220.780676 35.407614 221.099338 36.026193 
Q 221.418 36.644772 221.680428 36.832221 
" clip-path="url(#pd592b1cf80)" style="fill: none; stroke: #000000; stroke-linejoin: miter"/>
   </g>
  </g>
  <g id="axes_15">
   <g id="patch_13">
    <path d="M 238.1616 35.032717 
Q 237.11189 34.582841 236.137159 34.69531 
Q 233.100497 35.032717 231.188524 36.701007 
Q 229.276552 38.369297 229.276552 41.330979 
Q 229.276552 43.917766 231.282248 45.6048 
Q 233.287945 47.291834 235.912221 47.291834 
Q 238.274069 47.291834 239.398759 45.361117 
Q 240.523448 43.4304 240.523448 40.881103 
Q 240.523448 39.643945 240.111062 38.706703 
Q 239.698676 37.769462 239.173821 37.300841 
Q 238.648966 36.832221 237.899172 36.119917 
Q 237.149379 35.407614 236.699503 34.69531 
L 235.462345 34.245434 
" clip-path="url(#p39db21f974)" style="fill: none; stroke: #000000; stroke-linejoin: miter"/>
   </g>
  </g>
  <g id="axes_16"/>
  <g id="axes_17">
   <g id="patch_14">
    <path d="M 267.918579 29.071862 
Q 267.543683 29.146841 267.412469 29.577972 
Q 267.281255 30.009103 267.356234 30.42149 
Q 267.356234 30.571448 267.393724 30.702662 
Q 267.431214 30.833876 267.487448 30.89011 
Q 267.543683 30.946345 267.599917 31.040069 
Q 267.656152 31.133793 267.693641 31.208772 
L 267.80611 29.859145 
M 267.80611 34.020497 
Q 266.906359 39.006621 266.681421 42.793076 
L 267.131297 45.379862 
L 267.468703 46.054676 
" clip-path="url(#p4920c2953e)" style="fill: none; stroke: #000000; stroke-linejoin: miter"/>
   </g>
  </g>
  <g id="axes_18">
   <g id="patch_15">
    <path d="M 278.663834 37.95691 
L 279.338648 37.95691 
Q 280.050952 37.95691 280.838234 37.881931 
Q 281.625517 37.806952 282.581503 37.675738 
Q 283.53749 37.544524 284.062345 37.507034 
L 288.336166 35.82 
M 284.287283 30.42149 
L 284.287283 31.43371 
Q 284.287283 33.383172 283.612469 37.207117 
Q 282.937655 41.031062 282.937655 43.018014 
Q 282.937655 43.805297 282.937655 44.105214 
Q 282.937655 44.405131 283.031379 45.042455 
Q 283.125103 45.679779 283.312552 45.960952 
Q 283.5 46.242124 283.893641 46.485807 
Q 284.287283 46.72949 284.849628 46.72949 
Q 284.962097 46.692 285.280759 46.72949 
Q 285.599421 46.766979 285.786869 46.710745 
Q 285.974317 46.65451 285.974317 46.392083 
" clip-path="url(#p74dc2a2166)" style="fill: none; stroke: #000000; stroke-linejoin: miter"/>
   </g>
  </g>
  <g id="axes_19"/>
  <g id="axes_20">
   <g id="patch_16">
    <path d="M 309.516102 36.437797 
L 310.751695 44.778051 
Q 310.854661 45.567458 310.854661 45.60178 
Q 310.854661 45.704746 311.163559 45.704746 
Q 312.02161 45.704746 312.742373 44.778051 
Q 313.463136 43.851356 313.875 42.718729 
Q 314.286864 41.586102 314.801695 40.659407 
Q 315.316525 39.732712 315.797034 39.732712 
Q 316.414831 39.732712 317.049788 40.607924 
Q 317.684746 41.483136 318.148093 42.512797 
Q 318.611441 43.542458 319.28072 44.417669 
Q 319.95 45.292881 320.636441 45.292881 
Q 320.911017 43.782712 321.340042 39.69839 
Q 321.769068 35.614068 322.283898 33.554746 
" clip-path="url(#p61f0a01c91)" style="fill: none; stroke: #000000; stroke-linejoin: miter"/>
   </g>
  </g>
  <g id="axes_21">
   <g id="patch_17">
    <path d="M 337.643923 36.441748 
Q 336.434968 35.094627 332.462687 35.094627 
Q 330.942857 35.094627 330.165672 35.146439 
Q 329.388486 35.198252 328.38678 35.440043 
Q 327.385075 35.681834 326.901493 36.182687 
Q 326.41791 36.683539 326.072495 37.616162 
Q 325.727079 38.548785 325.727079 39.964989 
Q 325.727079 42.037484 327.143284 43.280981 
Q 328.559488 44.524478 330.493817 44.524478 
Q 333.153518 44.524478 335.916844 38.721493 
Q 337.263966 35.854542 337.263966 35.82 
Q 337.609382 35.578209 337.643923 36.441748 
Q 337.643923 37.512537 338.058422 40.362217 
Q 338.472921 43.211898 338.472921 44.524478 
" clip-path="url(#p9fff27d2d3)" style="fill: none; stroke: #000000; stroke-linejoin: miter"/>
   </g>
  </g>
  <g id="axes_22">
   <g id="patch_18">
    <path d="M 343.857476 43.917766 
Q 344.157393 44.180193 345.169614 45.154924 
Q 346.181834 46.129655 346.744179 46.560786 
Q 347.306524 46.991917 348.33749 47.385559 
Q 349.368455 47.7792 350.380676 47.629241 
Q 351.05549 47.629241 351.52411 47.404303 
Q 351.992731 47.179366 352.217669 46.879448 
Q 352.442607 46.579531 352.573821 45.979697 
Q 352.705034 45.379862 352.723779 44.967476 
Q 352.742524 44.55509 352.742524 43.805297 
Q 352.742524 42.718097 351.842772 42.043283 
Q 350.943021 41.368469 349.649628 41.031062 
Q 348.356234 40.693655 347.062841 40.300014 
Q 345.769448 39.906372 344.869697 38.987876 
Q 343.969945 38.069379 343.969945 36.607283 
Q 343.969945 36.082428 344.138648 35.726276 
Q 344.307352 35.370124 344.700993 35.145186 
Q 345.094634 34.920248 345.375807 34.807779 
Q 345.656979 34.69531 346.313048 34.639076 
Q 346.969117 34.582841 347.156566 34.582841 
Q 347.344014 34.582841 348.018828 34.582841 
Q 349.218497 34.582841 349.799586 34.995228 
Q 350.380676 35.407614 350.699338 36.026193 
Q 351.018 36.644772 351.280428 36.832221 
" clip-path="url(#p85d8a5efd7)" style="fill: none; stroke: #000000; stroke-linejoin: miter"/>
   </g>
  </g>
  <g id="axes_23"/>
  <g id="axes_24">
   <g id="patch_19">
    <path d="M 375.863834 37.95691 
L 376.538648 37.95691 
Q 377.250952 37.95691 378.038234 37.881931 
Q 378.825517 37.806952 379.781503 37.675738 
Q 380.73749 37.544524 381.262345 37.507034 
L 385.536166 35.82 
M 381.487283 30.42149 
L 381.487283 31.43371 
Q 381.487283 33.383172 380.812469 37.207117 
Q 380.137655 41.031062 380.137655 43.018014 
Q 380.137655 43.805297 380.137655 44.105214 
Q 380.137655 44.405131 380.231379 45.042455 
Q 380.325103 45.679779 380.512552 45.960952 
Q 380.7 46.242124 381.093641 46.485807 
Q 381.487283 46.72949 382.049628 46.72949 
Q 382.162097 46.692 382.480759 46.72949 
Q 382.799421 46.766979 382.986869 46.710745 
Q 383.174317 46.65451 383.174317 46.392083 
" clip-path="url(#p47f9b2f20b)" style="fill: none; stroke: #000000; stroke-linejoin: miter"/>
   </g>
  </g>
  <g id="axes_25">
   <g id="patch_20">
    <path d="M 393.413462 35.932469 
Q 394.013297 35.257655 395.006772 34.826524 
Q 396.000248 34.395393 396.9 34.470372 
Q 397.537324 34.470372 398.02469 34.639076 
Q 398.512055 34.807779 398.830717 34.995228 
Q 399.149379 35.182676 399.374317 35.670041 
Q 399.599255 36.157407 399.711724 36.419834 
Q 399.824193 36.682262 399.880428 37.375821 
Q 399.936662 38.069379 399.955407 38.331807 
Q 399.974152 38.594234 399.955407 39.419007 
Q 399.936662 40.243779 399.936662 40.431228 
Q 399.936662 41.368469 399.767959 43.242952 
Q 399.599255 45.117434 399.599255 46.054676 
Q 399.599255 46.467062 399.65549 46.823214 
Q 399.711724 47.179366 399.805448 47.610497 
Q 399.899172 48.041628 399.936662 48.304055 
L 400.386538 48.528993 
M 393.863338 23.111007 
Q 394.088276 24.798041 394.088276 29.971614 
L 394.088276 42.3432 
L 393.750869 46.841959 
L 393.525931 47.74171 
" clip-path="url(#p63cf9c8efe)" style="fill: none; stroke: #000000; stroke-linejoin: miter"/>
   </g>
  </g>
  <g id="axes_26">
   <g id="patch_21">
    <path d="M 418.643923 36.441748 
Q 417.434968 35.094627 413.462687 35.094627 
Q 411.942857 35.094627 411.165672 35.146439 
Q 410.388486 35.198252 409.38678 35.440043 
Q 408.385075 35.681834 407.901493 36.182687 
Q 407.41791 36.683539 407.072495 37.616162 
Q 406.727079 38.548785 406.727079 39.964989 
Q 406.727079 42.037484 408.143284 43.280981 
Q 409.559488 44.524478 411.493817 44.524478 
Q 414.153518 44.524478 416.916844 38.721493 
Q 418.263966 35.854542 418.263966 35.82 
Q 418.609382 35.578209 418.643923 36.441748 
Q 418.643923 37.512537 419.058422 40.362217 
Q 419.472921 43.211898 419.472921 44.524478 
" clip-path="url(#p419b092b5a)" style="fill: none; stroke: #000000; stroke-linejoin: miter"/>
   </g>
  </g>
  <g id="axes_27">
   <g id="patch_22">
    <path d="M 424.463834 37.95691 
L 425.138648 37.95691 
Q 425.850952 37.95691 426.638234 37.881931 
Q 427.425517 37.806952 428.381503 37.675738 
Q 429.33749 37.544524 429.862345 37.507034 
L 434.136166 35.82 
M 430.087283 30.42149 
L 430.087283 31.43371 
Q 430.087283 33.383172 429.412469 37.207117 
Q 428.737655 41.031062 428.737655 43.018014 
Q 428.737655 43.805297 428.737655 44.105214 
Q 428.737655 44.405131 428.831379 45.042455 
Q 428.925103 45.679779 429.112552 45.960952 
Q 429.3 46.242124 429.693641 46.485807 
Q 430.087283 46.72949 430.649628 46.72949 
Q 430.762097 46.692 431.080759 46.72949 
Q 431.399421 46.766979 431.586869 46.710745 
Q 431.774317 46.65451 431.774317 46.392083 
" clip-path="url(#p5d25dc5d25)" style="fill: none; stroke: #000000; stroke-linejoin: miter"/>
   </g>
  </g>
  <g id="axes_28">
   <g id="patch_23">
    <path d="M 444.787697 39.981352 
Q 445.799917 40.956083 446.137324 42.905545 
Q 446.324772 43.955255 445.912386 46.167145 
L 444.675228 47.629241 
" clip-path="url(#p0263c04520)" style="fill: none; stroke: #000000; stroke-linejoin: miter"/>
   </g>
  </g>
  <g id="axes_29"/>
  <g id="axes_30">
   <g id="patch_24">
    <path d="M 473.438731 37.282097 
L 473.438731 37.844441 
Q 473.701159 39.868883 473.738648 41.312234 
Q 473.776138 42.755586 473.682414 44.667559 
Q 473.58869 46.579531 473.58869 48.191586 
L 473.663669 39.643945 
Q 473.663669 38.144359 475.256979 37.507034 
Q 476.85029 36.86971 478.274897 37.282097 
Q 480.186869 37.844441 481.105366 39.04411 
Q 482.023862 40.243779 482.080097 41.668386 
Q 482.136331 43.092993 482.173821 44.817517 
Q 482.21131 46.542041 482.361269 48.191586 
" clip-path="url(#p07b08384e6)" style="fill: none; stroke: #000000; stroke-linejoin: miter"/>
   </g>
  </g>
  <g id="axes_31">
   <g id="patch_25">
    <path d="M 497.3616 35.032717 
Q 496.31189 34.582841 495.337159 34.69531 
Q 492.300497 35.032717 490.388524 36.701007 
Q 488.476552 38.369297 488.476552 41.330979 
Q 488.476552 43.917766 490.482248 45.6048 
Q 492.487945 47.291834 495.112221 47.291834 
Q 497.474069 47.291834 498.598759 45.361117 
Q 499.723448 43.4304 499.723448 40.881103 
Q 499.723448 39.643945 499.311062 38.706703 
Q 498.898676 37.769462 498.373821 37.300841 
Q 497.848966 36.832221 497.099172 36.119917 
Q 496.349379 35.407614 495.899503 34.69531 
L 494.662345 34.245434 
" clip-path="url(#pd32c5e1c46)" style="fill: none; stroke: #000000; stroke-linejoin: miter"/>
   </g>
  </g>
  <g id="axes_32"/>
  <g id="axes_33">
   <g id="patch_26">
    <path d="M 522.057476 43.917766 
Q 522.357393 44.180193 523.369614 45.154924 
Q 524.381834 46.129655 524.944179 46.560786 
Q 525.506524 46.991917 526.53749 47.385559 
Q 527.568455 47.7792 528.580676 47.629241 
Q 529.25549 47.629241 529.72411 47.404303 
Q 530.192731 47.179366 530.417669 46.879448 
Q 530.642607 46.579531 530.773821 45.979697 
Q 530.905034 45.379862 530.923779 44.967476 
Q 530.942524 44.55509 530.942524 43.805297 
Q 530.942524 42.718097 530.042772 42.043283 
Q 529.143021 41.368469 527.849628 41.031062 
Q 526.556234 40.693655 525.262841 40.300014 
Q 523.969448 39.906372 523.069697 38.987876 
Q 522.169945 38.069379 522.169945 36.607283 
Q 522.169945 36.082428 522.338648 35.726276 
Q 522.507352 35.370124 522.900993 35.145186 
Q 523.294634 34.920248 523.575807 34.807779 
Q 523.856979 34.69531 524.513048 34.639076 
Q 525.169117 34.582841 525.356566 34.582841 
Q 525.544014 34.582841 526.218828 34.582841 
Q 527.418497 34.582841 527.999586 34.995228 
Q 528.580676 35.407614 528.899338 36.026193 
Q 529.218 36.644772 529.480428 36.832221 
" clip-path="url(#p4d8472e55a)" style="fill: none; stroke: #000000; stroke-linejoin: miter"/>
   </g>
  </g>
  <g id="axes_34">
   <g id="patch_27">
    <path d="M 545.9616 35.032717 
Q 544.91189 34.582841 543.937159 34.69531 
Q 540.900497 35.032717 538.988524 36.701007 
Q 537.076552 38.369297 537.076552 41.330979 
Q 537.076552 43.917766 539.082248 45.6048 
Q 541.087945 47.291834 543.712221 47.291834 
Q 546.074069 47.291834 547.198759 45.361117 
Q 548.323448 43.4304 548.323448 40.881103 
Q 548.323448 39.643945 547.911062 38.706703 
Q 547.498676 37.769462 546.973821 37.300841 
Q 546.448966 36.832221 545.699172 36.119917 
Q 544.949379 35.407614 544.499503 34.69531 
L 543.262345 34.245434 
" clip-path="url(#p4a02390ab6)" style="fill: none; stroke: #000000; stroke-linejoin: miter"/>
   </g>
  </g>
  <g id="axes_35">
   <g id="patch_28">
    <path d="M 562.1616 35.032717 
Q 561.11189 34.582841 560.137159 34.69531 
Q 557.100497 35.032717 555.188524 36.701007 
Q 553.276552 38.369297 553.276552 41.330979 
Q 553.276552 43.917766 555.282248 45.6048 
Q 557.287945 47.291834 559.912221 47.291834 
Q 562.274069 47.291834 563.398759 45.361117 
Q 564.523448 43.4304 564.523448 40.881103 
Q 564.523448 39.643945 564.111062 38.706703 
Q 563.698676 37.769462 563.173821 37.300841 
Q 562.648966 36.832221 561.899172 36.119917 
Q 561.149379 35.407614 560.699503 34.69531 
L 559.462345 34.245434 
" clip-path="url(#pfd4fc64fa6)" style="fill: none; stroke: #000000; stroke-linejoin: miter"/>
   </g>
  </g>
  <g id="axes_36">
   <g id="patch_29">
    <path d="M 570.638731 37.282097 
L 570.638731 37.844441 
Q 570.901159 39.868883 570.938648 41.312234 
Q 570.976138 42.755586 570.882414 44.667559 
Q 570.78869 46.579531 570.78869 48.191586 
L 570.863669 39.643945 
Q 570.863669 38.144359 572.456979 37.507034 
Q 574.05029 36.86971 575.474897 37.282097 
Q 577.386869 37.844441 578.305366 39.04411 
Q 579.223862 40.243779 579.280097 41.668386 
Q 579.336331 43.092993 579.373821 44.817517 
Q 579.41131 46.542041 579.561269 48.191586 
" clip-path="url(#p68b5dc772c)" style="fill: none; stroke: #000000; stroke-linejoin: miter"/>
   </g>
  </g>
  <g id="axes_37">
   <g id="patch_30">
    <path d="M 585.057798 38.160826 
Q 588.030275 39.535596 592.749083 39.721376 
Q 594.272477 39.721376 594.959862 38.550963 
Q 595.647248 37.38055 595.647248 35.82 
Q 595.647248 35.299817 595.554358 34.909679 
Q 595.461468 34.519541 595.219954 34.296606 
Q 594.97844 34.07367 594.811239 33.943624 
Q 594.644037 33.813578 594.198165 33.757844 
Q 593.752294 33.70211 593.547936 33.683532 
Q 593.343578 33.664954 592.767661 33.683532 
Q 592.191743 33.70211 591.968807 33.70211 
Q 589.925229 33.70211 588.438991 35.578486 
Q 586.952752 37.454862 586.952752 39.609908 
Q 586.952752 42.619541 588.884862 44.570229 
Q 590.816972 46.520917 593.863761 46.520917 
Q 596.018807 46.818165 597.542202 44.29156 
" clip-path="url(#pc76f4bdc91)" style="fill: none; stroke: #000000; stroke-linejoin: miter"/>
   </g>
  </g>
  <g id="axes_38">
   <g id="patch_31">
    <path d="M 604.013462 32.783338 
Q 604.538317 34.507862 604.669531 36.457324 
Q 604.800745 38.406786 604.725766 40.956083 
Q 604.650786 43.505379 604.688276 44.705048 
L 604.800745 46.054676 
L 604.800745 45.829738 
Q 604.800745 44.667559 604.519572 42.30571 
Q 604.2384 39.943862 604.2384 38.744193 
Q 604.2384 36.419834 605.250621 34.882759 
Q 606.262841 33.345683 608.287283 33.345683 
Q 608.999586 33.345683 609.336993 33.626855 
Q 609.6744 33.908028 609.936828 34.432883 
Q 610.199255 34.957738 610.536662 35.257655 
L 610.986538 36.832221 
" clip-path="url(#p28b6a5a98c)" style="fill: none; stroke: #000000; stroke-linejoin: miter"/>
   </g>
  </g>
  <g id="axes_39"/>
  <g id="axes_40">
   <g id="patch_32">
    <path d="M 636.413462 35.932469 
Q 637.013297 35.257655 638.006772 34.826524 
Q 639.000248 34.395393 639.9 34.470372 
Q 640.537324 34.470372 641.02469 34.639076 
Q 641.512055 34.807779 641.830717 34.995228 
Q 642.149379 35.182676 642.374317 35.670041 
Q 642.599255 36.157407 642.711724 36.419834 
Q 642.824193 36.682262 642.880428 37.375821 
Q 642.936662 38.069379 642.955407 38.331807 
Q 642.974152 38.594234 642.955407 39.419007 
Q 642.936662 40.243779 642.936662 40.431228 
Q 642.936662 41.368469 642.767959 43.242952 
Q 642.599255 45.117434 642.599255 46.054676 
Q 642.599255 46.467062 642.65549 46.823214 
Q 642.711724 47.179366 642.805448 47.610497 
Q 642.899172 48.041628 642.936662 48.304055 
L 643.386538 48.528993 
M 636.863338 23.111007 
Q 637.088276 24.798041 637.088276 29.971614 
L 637.088276 42.3432 
L 636.750869 46.841959 
L 636.525931 47.74171 
" clip-path="url(#pe661d3a1fa)" style="fill: none; stroke: #000000; stroke-linejoin: miter"/>
   </g>
  </g>
  <g id="axes_41">
   <g id="patch_33">
    <path d="M 661.643923 36.441748 
Q 660.434968 35.094627 656.462687 35.094627 
Q 654.942857 35.094627 654.165672 35.146439 
Q 653.388486 35.198252 652.38678 35.440043 
Q 651.385075 35.681834 650.901493 36.182687 
Q 650.41791 36.683539 650.072495 37.616162 
Q 649.727079 38.548785 649.727079 39.964989 
Q 649.727079 42.037484 651.143284 43.280981 
Q 652.559488 44.524478 654.493817 44.524478 
Q 657.153518 44.524478 659.916844 38.721493 
Q 661.263966 35.854542 661.263966 35.82 
Q 661.609382 35.578209 661.643923 36.441748 
Q 661.643923 37.512537 662.058422 40.362217 
Q 662.472921 43.211898 662.472921 44.524478 
" clip-path="url(#p1354a61dd5)" style="fill: none; stroke: #000000; stroke-linejoin: miter"/>
   </g>
  </g>
  <g id="axes_42">
   <g id="patch_34">
    <path d="M 675.899007 39.568966 
Q 674.549379 38.181848 672.3 38.444276 
Q 669.450786 38.444276 668.288607 39.793903 
Q 667.126428 41.143531 667.126428 44.067724 
Q 667.126428 45.56731 668.419821 46.279614 
Q 669.713214 46.991917 671.287779 46.991917 
Q 672.599917 46.991917 673.612138 45.736014 
Q 674.624359 44.48011 675.205448 42.30571 
Q 675.786538 40.13131 676.161434 37.938166 
Q 676.536331 35.745021 676.68629 33.045766 
Q 676.836248 30.34651 676.873738 28.978138 
Q 676.911228 27.609766 676.911228 26.185159 
Q 676.68629 26.260138 676.68629 29.896634 
L 676.68629 44.292662 
L 677.473572 48.229076 
" clip-path="url(#pfcdf84c36e)" style="fill: none; stroke: #000000; stroke-linejoin: miter"/>
   </g>
  </g>
  <g id="axes_43"/>
  <g id="axes_44">
   <g id="patch_35">
    <path d="M 699.863834 37.95691 
L 700.538648 37.95691 
Q 701.250952 37.95691 702.038234 37.881931 
Q 702.825517 37.806952 703.781503 37.675738 
Q 704.73749 37.544524 705.262345 37.507034 
L 709.536166 35.82 
M 705.487283 30.42149 
L 705.487283 31.43371 
Q 705.487283 33.383172 704.812469 37.207117 
Q 704.137655 41.031062 704.137655 43.018014 
Q 704.137655 43.805297 704.137655 44.105214 
Q 704.137655 44.405131 704.231379 45.042455 
Q 704.325103 45.679779 704.512552 45.960952 
Q 704.7 46.242124 705.093641 46.485807 
Q 705.487283 46.72949 706.049628 46.72949 
Q 706.162097 46.692 706.480759 46.72949 
Q 706.799421 46.766979 706.986869 46.710745 
Q 707.174317 46.65451 707.174317 46.392083 
" clip-path="url(#p65198f2617)" style="fill: none; stroke: #000000; stroke-linejoin: miter"/>
   </g>
  </g>
  <g id="axes_45">
   <g id="patch_36">
    <path d="M 717.413462 35.932469 
Q 718.013297 35.257655 719.006772 34.826524 
Q 720.000248 34.395393 720.9 34.470372 
Q 721.537324 34.470372 722.02469 34.639076 
Q 722.512055 34.807779 722.830717 34.995228 
Q 723.149379 35.182676 723.374317 35.670041 
Q 723.599255 36.157407 723.711724 36.419834 
Q 723.824193 36.682262 723.880428 37.375821 
Q 723.936662 38.069379 723.955407 38.331807 
Q 723.974152 38.594234 723.955407 39.419007 
Q 723.936662 40.243779 723.936662 40.431228 
Q 723.936662 41.368469 723.767959 43.242952 
Q 723.599255 45.117434 723.599255 46.054676 
Q 723.599255 46.467062 723.65549 46.823214 
Q 723.711724 47.179366 723.805448 47.610497 
Q 723.899172 48.041628 723.936662 48.304055 
L 724.386538 48.528993 
M 717.863338 23.111007 
Q 718.088276 24.798041 718.088276 29.971614 
L 718.088276 42.3432 
L 717.750869 46.841959 
L 717.525931 47.74171 
" clip-path="url(#p5e2f46834b)" style="fill: none; stroke: #000000; stroke-linejoin: miter"/>
   </g>
  </g>
  <g id="axes_46">
   <g id="patch_37">
    <path d="M 730.857798 38.160826 
Q 733.830275 39.535596 738.549083 39.721376 
Q 740.072477 39.721376 740.759862 38.550963 
Q 741.447248 37.38055 741.447248 35.82 
Q 741.447248 35.299817 741.354358 34.909679 
Q 741.261468 34.519541 741.019954 34.296606 
Q 740.77844 34.07367 740.611239 33.943624 
Q 740.444037 33.813578 739.998165 33.757844 
Q 739.552294 33.70211 739.347936 33.683532 
Q 739.143578 33.664954 738.567661 33.683532 
Q 737.991743 33.70211 737.768807 33.70211 
Q 735.725229 33.70211 734.238991 35.578486 
Q 732.752752 37.454862 732.752752 39.609908 
Q 732.752752 42.619541 734.684862 44.570229 
Q 736.616972 46.520917 739.663761 46.520917 
Q 741.818807 46.818165 743.342202 44.29156 
" clip-path="url(#p01c9266aa7)" style="fill: none; stroke: #000000; stroke-linejoin: miter"/>
   </g>
  </g>
  <g id="axes_47">
   <g id="patch_38">
    <path d="M 748.163917 36.382345 
Q 748.126428 36.494814 748.257641 36.701007 
Q 748.388855 36.9072 748.276386 37.057159 
L 748.276386 39.306538 
Q 748.276386 40.506207 748.613793 41.724621 
Q 748.9512 42.943034 749.813462 43.93651 
Q 750.675724 44.929986 751.875393 44.929986 
Q 753.112552 44.929986 753.787366 43.861531 
Q 754.462179 42.793076 754.912055 41.143531 
Q 755.361931 39.493986 755.699338 38.969131 
L 756.486621 36.382345 
L 756.261683 42.680607 
L 756.261683 45.154924 
Q 756.261683 47.066897 756.992731 51.00331 
Q 757.723779 54.939724 757.723779 56.964166 
Q 758.473572 59.213545 757.386372 60.188276 
Q 756.299172 61.163007 754.237241 60.78811 
Q 752.437738 60.488193 751.519241 60.169531 
Q 750.600745 59.850869 748.613793 58.988607 
L 748.501324 58.426262 
" clip-path="url(#p26a8a15434)" style="fill: none; stroke: #000000; stroke-linejoin: miter"/>
   </g>
  </g>
 </g>
 <defs>
  <clipPath id="p8cf51499ed">
   <rect x="0" y="10.777356" width="16.2" height="50.085288"/>
  </clipPath>
  <clipPath id="p93c2562337">
   <rect x="17.589352" y="8.64" width="13.421297" height="54.36"/>
  </clipPath>
  <clipPath id="pa5def6cbc2">
   <rect x="49.483241" y="8.64" width="14.433517" height="54.36"/>
  </clipPath>
  <clipPath id="pf2c5dfadc1">
   <rect x="70.631876" y="8.64" width="4.536248" height="54.36"/>
  </clipPath>
  <clipPath id="pf8da8dae5e">
   <rect x="81" y="10.777356" width="16.2" height="50.085288"/>
  </clipPath>
  <clipPath id="p72dda8c140">
   <rect x="98.251945" y="8.64" width="14.09611" height="54.36"/>
  </clipPath>
  <clipPath id="p2a16ae5955">
   <rect x="119.213131" y="8.64" width="4.573738" height="54.36"/>
  </clipPath>
  <clipPath id="p62af783da9">
   <rect x="145.8" y="12.969805" width="16.2" height="45.700389"/>
  </clipPath>
  <clipPath id="p719f1059e4">
   <rect x="163.389352" y="8.64" width="13.421297" height="54.36"/>
  </clipPath>
  <clipPath id="p1a63c2f672">
   <rect x="179.589352" y="8.64" width="13.421297" height="54.36"/>
  </clipPath>
  <clipPath id="pd592b1cf80">
   <rect x="212.382993" y="8.64" width="12.634014" height="54.36"/>
  </clipPath>
  <clipPath id="p39db21f974">
   <rect x="227.402069" y="8.64" width="14.995862" height="54.36"/>
  </clipPath>
  <clipPath id="p4920c2953e">
   <rect x="264.806938" y="8.64" width="4.986124" height="54.36"/>
  </clipPath>
  <clipPath id="p74dc2a2166">
   <rect x="276.789352" y="8.64" width="13.421297" height="54.36"/>
  </clipPath>
  <clipPath id="p61f0a01c91">
   <rect x="307.8" y="10.936525" width="16.2" height="49.766949"/>
  </clipPath>
  <clipPath id="p9fff27d2d3">
   <rect x="324" y="10.777356" width="16.2" height="50.085288"/>
  </clipPath>
  <clipPath id="p85d8a5efd7">
   <rect x="341.982993" y="8.64" width="12.634014" height="54.36"/>
  </clipPath>
  <clipPath id="p47f9b2f20b">
   <rect x="373.989352" y="8.64" width="13.421297" height="54.36"/>
  </clipPath>
  <clipPath id="p63cf9c8efe">
   <rect x="391.538979" y="8.64" width="10.722041" height="54.36"/>
  </clipPath>
  <clipPath id="p419b092b5a">
   <rect x="405" y="10.777356" width="16.2" height="50.085288"/>
  </clipPath>
  <clipPath id="p5d25dc5d25">
   <rect x="422.589352" y="8.64" width="13.421297" height="54.36"/>
  </clipPath>
  <clipPath id="p0263c04520">
   <rect x="442.800745" y="8.64" width="5.39851" height="54.36"/>
  </clipPath>
  <clipPath id="p07b08384e6">
   <rect x="471.564248" y="8.64" width="12.671503" height="54.36"/>
  </clipPath>
  <clipPath id="pd32c5e1c46">
   <rect x="486.602069" y="8.64" width="14.995862" height="54.36"/>
  </clipPath>
  <clipPath id="p4d8472e55a">
   <rect x="520.182993" y="8.64" width="12.634014" height="54.36"/>
  </clipPath>
  <clipPath id="p4a02390ab6">
   <rect x="535.202069" y="8.64" width="14.995862" height="54.36"/>
  </clipPath>
  <clipPath id="pfd4fc64fa6">
   <rect x="551.402069" y="8.64" width="14.995862" height="54.36"/>
  </clipPath>
  <clipPath id="p68b5dc772c">
   <rect x="568.764248" y="8.64" width="12.671503" height="54.36"/>
  </clipPath>
  <clipPath id="pc76f4bdc91">
   <rect x="583.2" y="8.881927" width="16.2" height="53.876147"/>
  </clipPath>
  <clipPath id="p28b6a5a98c">
   <rect x="602.138979" y="8.64" width="10.722041" height="54.36"/>
  </clipPath>
  <clipPath id="pe661d3a1fa">
   <rect x="634.538979" y="8.64" width="10.722041" height="54.36"/>
  </clipPath>
  <clipPath id="p1354a61dd5">
   <rect x="648" y="10.777356" width="16.2" height="50.085288"/>
  </clipPath>
  <clipPath id="pfcdf84c36e">
   <rect x="665.251945" y="8.64" width="14.09611" height="54.36"/>
  </clipPath>
  <clipPath id="p65198f2617">
   <rect x="697.989352" y="8.64" width="13.421297" height="54.36"/>
  </clipPath>
  <clipPath id="p5e2f46834b">
   <rect x="715.538979" y="8.64" width="10.722041" height="54.36"/>
  </clipPath>
  <clipPath id="p01c9266aa7">
   <rect x="729" y="8.881927" width="16.2" height="53.876147"/>
  </clipPath>
  <clipPath id="p26a8a15434">
   <rect x="746.251945" y="8.64" width="14.09611" height="54.36"/>
  </clipPath>
 </defs>
</svg>
