<?xml version="1.0" encoding="utf-8" standalone="no"?>
<!DOCTYPE svg PUBLIC "-//W3C//DTD SVG 1.1//EN"
  "http://www.w3.org/Graphics/SVG/1.1/DTD/svg11.dtd">
<svg xmlns:xlink="http://www.w3.org/1999/xlink" width="882pt" height="72pt" viewBox="0 0 882 72" xmlns="http://www.w3.org/2000/svg" version="1.1">
 <metadata>
  <rdf:RDF xmlns:dc="http://purl.org/dc/elements/1.1/" xmlns:cc="http://creativecommons.org/ns#" xmlns:rdf="http://www.w3.org/1999/02/22-rdf-syntax-ns#">
   <cc:Work>
    <dc:type rdf:resource="http://purl.org/dc/dcmitype/StillImage"/>
    <dc:date>2023-12-21T11:52:54.130686</dc:date>
    <dc:format>image/svg+xml</dc:format>
    <dc:creator>
     <cc:Agent>
      <dc:title>Matplotlib v3.5.1, https://matplotlib.org/</dc:title>
     </cc:Agent>
    </dc:creator>
   </cc:Work>
  </rdf:RDF>
 </metadata>
 <defs>
  <style type="text/css">*{stroke-linejoin: round; stroke-linecap: butt}</style>
 </defs>
 <g id="figure_1">
  <g id="patch_1">
   <path d="M 0 72 
L 882 72 
L 882 0 
L 0 0 
z
" style="fill: #8fff9f"/>
  </g>
  <g id="axes_1">
   <g id="patch_2">
    <path d="M 13.643923 36.441748 
Q 12.434968 35.094627 8.462687 35.094627 
Q 6.942857 35.094627 6.165672 35.146439 
Q 5.388486 35.198252 4.38678 35.440043 
Q 3.385075 35.681834 2.901493 36.182687 
Q 2.41791 36.683539 2.072495 37.616162 
Q 1.727079 38.548785 1.727079 39.964989 
Q 1.727079 42.037484 3.143284 43.280981 
Q 4.559488 44.524478 6.493817 44.524478 
Q 9.153518 44.524478 11.916844 38.721493 
Q 13.263966 35.854542 13.263966 35.82 
Q 13.609382 35.578209 13.643923 36.441748 
Q 13.643923 37.512537 14.058422 40.362217 
Q 14.472921 43.211898 14.472921 44.524478 
" clip-path="url(#p8ba82523ee)" style="fill: none; stroke: #000000; stroke-linejoin: miter"/>
   </g>
  </g>
  <g id="axes_2">
   <g id="patch_3">
    <path d="M 19.838731 37.282097 
L 19.838731 37.844441 
Q 20.101159 39.868883 20.138648 41.312234 
Q 20.176138 42.755586 20.082414 44.667559 
Q 19.98869 46.579531 19.98869 48.191586 
L 20.063669 39.643945 
Q 20.063669 38.144359 21.656979 37.507034 
Q 23.25029 36.86971 24.674897 37.282097 
Q 26.586869 37.844441 27.505366 39.04411 
Q 28.423862 40.243779 28.480097 41.668386 
Q 28.536331 43.092993 28.573821 44.817517 
Q 28.61131 46.542041 28.761269 48.191586 
" clip-path="url(#pb57e1a39e6)" style="fill: none; stroke: #000000; stroke-linejoin: miter"/>
   </g>
  </g>
  <g id="axes_3">
   <g id="patch_4">
    <path d="M 44.099007 39.568966 
Q 42.749379 38.181848 40.5 38.444276 
Q 37.650786 38.444276 36.488607 39.793903 
Q 35.326428 41.143531 35.326428 44.067724 
Q 35.326428 45.56731 36.619821 46.279614 
Q 37.913214 46.991917 39.487779 46.991917 
Q 40.799917 46.991917 41.812138 45.736014 
Q 42.824359 44.48011 43.405448 42.30571 
Q 43.986538 40.13131 44.361434 37.938166 
Q 44.736331 35.745021 44.88629 33.045766 
Q 45.036248 30.34651 45.073738 28.978138 
Q 45.111228 27.609766 45.111228 26.185159 
Q 44.88629 26.260138 44.88629 29.896634 
L 44.88629 44.292662 
L 45.673572 48.229076 
" clip-path="url(#p284981519c)" style="fill: none; stroke: #000000; stroke-linejoin: miter"/>
   </g>
  </g>
  <g id="axes_4"/>
  <g id="axes_5">
   <g id="patch_5">
    <path d="M 66.848638 35.788482 
L 67.037743 35.788482 
Q 67.920233 35.788482 69.685214 35.69393 
Q 71.450195 35.599377 72.332685 35.599377 
Q 73.877043 35.599377 75.074708 35.835759 
Q 76.272374 36.07214 77.296693 36.655214 
Q 78.321012 37.238288 78.872568 38.35716 
Q 79.424125 39.476031 79.424125 41.083424 
Q 79.424125 46.567471 69.307004 46.567471 
Q 69.275486 46.567471 67.415953 46.283813 
L 66.848638 46.000156 
M 66.848638 27.562412 
Q 68.487549 26.679922 70.441634 26.71144 
Q 72.710895 26.71144 74.743774 28.035175 
Q 76.776654 29.358911 76.776654 31.533619 
Q 76.776654 32.825837 76.225097 33.582257 
Q 75.673541 34.338677 74.948638 34.527782 
Q 74.223735 34.716887 73.230934 35.06358 
Q 72.238132 35.410272 71.670817 35.883035 
L 66.848638 35.788482 
M 66.375875 27.656965 
Q 66.596498 28.949183 66.533463 32.494903 
Q 66.470428 36.040623 67.037743 37.301323 
Q 67.037743 38.309883 66.990467 40.358521 
Q 66.943191 42.40716 66.943191 43.447237 
L 66.943191 45.243735 
L 66.754086 46.000156 
" clip-path="url(#p114d615c25)" style="fill: none; stroke: #000000; stroke-linejoin: miter"/>
   </g>
  </g>
  <g id="axes_6">
   <g id="patch_6">
    <path d="M 84.488772 35.145186 
Q 84.488772 35.145186 84.488772 35.595062 
Q 84.488772 36.269876 84.376303 37.619503 
Q 84.263834 38.969131 84.263834 39.643945 
Q 84.263834 41.930814 85.500993 43.599103 
Q 86.738152 45.267393 88.875062 45.267393 
Q 90.262179 45.154924 91.030717 43.917766 
Q 91.799255 42.680607 91.949214 41.237255 
Q 92.099172 39.793903 92.3616 37.9944 
Q 92.624028 36.194897 93.036414 35.370124 
Q 93.186372 35.070207 93.186372 35.670041 
Q 93.186372 36.269876 92.923945 38.706703 
Q 92.699007 41.031062 92.699007 41.555917 
Q 92.549048 42.643117 92.886455 43.767807 
Q 93.223862 44.892497 93.936166 45.6048 
" clip-path="url(#p45c67de7d6)" style="fill: none; stroke: #000000; stroke-linejoin: miter"/>
   </g>
  </g>
  <g id="axes_7">
   <g id="patch_7">
    <path d="M 101.813462 32.783338 
Q 102.338317 34.507862 102.469531 36.457324 
Q 102.600745 38.406786 102.525766 40.956083 
Q 102.450786 43.505379 102.488276 44.705048 
L 102.600745 46.054676 
L 102.600745 45.829738 
Q 102.600745 44.667559 102.319572 42.30571 
Q 102.0384 39.943862 102.0384 38.744193 
Q 102.0384 36.419834 103.050621 34.882759 
Q 104.062841 33.345683 106.087283 33.345683 
Q 106.799586 33.345683 107.136993 33.626855 
Q 107.4744 33.908028 107.736828 34.432883 
Q 107.999255 34.957738 108.336662 35.257655 
L 108.786538 36.832221 
" clip-path="url(#p56a480b5f8)" style="fill: none; stroke: #000000; stroke-linejoin: miter"/>
   </g>
  </g>
  <g id="axes_8">
   <g id="patch_8">
    <path d="M 116.663834 37.95691 
L 117.338648 37.95691 
Q 118.050952 37.95691 118.838234 37.881931 
Q 119.625517 37.806952 120.581503 37.675738 
Q 121.53749 37.544524 122.062345 37.507034 
L 126.336166 35.82 
M 122.287283 30.42149 
L 122.287283 31.43371 
Q 122.287283 33.383172 121.612469 37.207117 
Q 120.937655 41.031062 120.937655 43.018014 
Q 120.937655 43.805297 120.937655 44.105214 
Q 120.937655 44.405131 121.031379 45.042455 
Q 121.125103 45.679779 121.312552 45.960952 
Q 121.5 46.242124 121.893641 46.485807 
Q 122.287283 46.72949 122.849628 46.72949 
Q 122.962097 46.692 123.280759 46.72949 
Q 123.599421 46.766979 123.786869 46.710745 
Q 123.974317 46.65451 123.974317 46.392083 
" clip-path="url(#p7fdfc45f49)" style="fill: none; stroke: #000000; stroke-linejoin: miter"/>
   </g>
  </g>
  <g id="axes_9"/>
  <g id="axes_10">
   <g id="patch_9">
    <path d="M 149.063834 37.95691 
L 149.738648 37.95691 
Q 150.450952 37.95691 151.238234 37.881931 
Q 152.025517 37.806952 152.981503 37.675738 
Q 153.93749 37.544524 154.462345 37.507034 
L 158.736166 35.82 
M 154.687283 30.42149 
L 154.687283 31.43371 
Q 154.687283 33.383172 154.012469 37.207117 
Q 153.337655 41.031062 153.337655 43.018014 
Q 153.337655 43.805297 153.337655 44.105214 
Q 153.337655 44.405131 153.431379 45.042455 
Q 153.525103 45.679779 153.712552 45.960952 
Q 153.9 46.242124 154.293641 46.485807 
Q 154.687283 46.72949 155.249628 46.72949 
Q 155.362097 46.692 155.680759 46.72949 
Q 155.999421 46.766979 156.186869 46.710745 
Q 156.374317 46.65451 156.374317 46.392083 
" clip-path="url(#p4c9c50207a)" style="fill: none; stroke: #000000; stroke-linejoin: miter"/>
   </g>
  </g>
  <g id="axes_11">
   <g id="patch_10">
    <path d="M 173.3616 35.032717 
Q 172.31189 34.582841 171.337159 34.69531 
Q 168.300497 35.032717 166.388524 36.701007 
Q 164.476552 38.369297 164.476552 41.330979 
Q 164.476552 43.917766 166.482248 45.6048 
Q 168.487945 47.291834 171.112221 47.291834 
Q 173.474069 47.291834 174.598759 45.361117 
Q 175.723448 43.4304 175.723448 40.881103 
Q 175.723448 39.643945 175.311062 38.706703 
Q 174.898676 37.769462 174.373821 37.300841 
Q 173.848966 36.832221 173.099172 36.119917 
Q 172.349379 35.407614 171.899503 34.69531 
L 170.662345 34.245434 
" clip-path="url(#p61eeaa1072)" style="fill: none; stroke: #000000; stroke-linejoin: miter"/>
   </g>
  </g>
  <g id="axes_12"/>
  <g id="axes_13">
   <g id="patch_11">
    <path d="M 197.663834 37.95691 
L 198.338648 37.95691 
Q 199.050952 37.95691 199.838234 37.881931 
Q 200.625517 37.806952 201.581503 37.675738 
Q 202.53749 37.544524 203.062345 37.507034 
L 207.336166 35.82 
M 203.287283 30.42149 
L 203.287283 31.43371 
Q 203.287283 33.383172 202.612469 37.207117 
Q 201.937655 41.031062 201.937655 43.018014 
Q 201.937655 43.805297 201.937655 44.105214 
Q 201.937655 44.405131 202.031379 45.042455 
Q 202.125103 45.679779 202.312552 45.960952 
Q 202.5 46.242124 202.893641 46.485807 
Q 203.287283 46.72949 203.849628 46.72949 
Q 203.962097 46.692 204.280759 46.72949 
Q 204.599421 46.766979 204.786869 46.710745 
Q 204.974317 46.65451 204.974317 46.392083 
" clip-path="url(#p12ae784346)" style="fill: none; stroke: #000000; stroke-linejoin: miter"/>
   </g>
  </g>
  <g id="axes_14">
   <g id="patch_12">
    <path d="M 215.213462 35.932469 
Q 215.813297 35.257655 216.806772 34.826524 
Q 217.800248 34.395393 218.7 34.470372 
Q 219.337324 34.470372 219.82469 34.639076 
Q 220.312055 34.807779 220.630717 34.995228 
Q 220.949379 35.182676 221.174317 35.670041 
Q 221.399255 36.157407 221.511724 36.419834 
Q 221.624193 36.682262 221.680428 37.375821 
Q 221.736662 38.069379 221.755407 38.331807 
Q 221.774152 38.594234 221.755407 39.419007 
Q 221.736662 40.243779 221.736662 40.431228 
Q 221.736662 41.368469 221.567959 43.242952 
Q 221.399255 45.117434 221.399255 46.054676 
Q 221.399255 46.467062 221.45549 46.823214 
Q 221.511724 47.179366 221.605448 47.610497 
Q 221.699172 48.041628 221.736662 48.304055 
L 222.186538 48.528993 
M 215.663338 23.111007 
Q 215.888276 24.798041 215.888276 29.971614 
L 215.888276 42.3432 
L 215.550869 46.841959 
L 215.325931 47.74171 
" clip-path="url(#p480bf97b24)" style="fill: none; stroke: #000000; stroke-linejoin: miter"/>
   </g>
  </g>
  <g id="axes_15">
   <g id="patch_13">
    <path d="M 228.657798 38.160826 
Q 231.630275 39.535596 236.349083 39.721376 
Q 237.872477 39.721376 238.559862 38.550963 
Q 239.247248 37.38055 239.247248 35.82 
Q 239.247248 35.299817 239.154358 34.909679 
Q 239.061468 34.519541 238.819954 34.296606 
Q 238.57844 34.07367 238.411239 33.943624 
Q 238.244037 33.813578 237.798165 33.757844 
Q 237.352294 33.70211 237.147936 33.683532 
Q 236.943578 33.664954 236.367661 33.683532 
Q 235.791743 33.70211 235.568807 33.70211 
Q 233.525229 33.70211 232.038991 35.578486 
Q 230.552752 37.454862 230.552752 39.609908 
Q 230.552752 42.619541 232.484862 44.570229 
Q 234.416972 46.520917 237.463761 46.520917 
Q 239.618807 46.818165 241.142202 44.29156 
" clip-path="url(#pe5784c0637)" style="fill: none; stroke: #000000; stroke-linejoin: miter"/>
   </g>
  </g>
  <g id="axes_16"/>
  <g id="axes_17">
   <g id="patch_14">
    <path d="M 270.899007 39.568966 
Q 269.549379 38.181848 267.3 38.444276 
Q 264.450786 38.444276 263.288607 39.793903 
Q 262.126428 41.143531 262.126428 44.067724 
Q 262.126428 45.56731 263.419821 46.279614 
Q 264.713214 46.991917 266.287779 46.991917 
Q 267.599917 46.991917 268.612138 45.736014 
Q 269.624359 44.48011 270.205448 42.30571 
Q 270.786538 40.13131 271.161434 37.938166 
Q 271.536331 35.745021 271.68629 33.045766 
Q 271.836248 30.34651 271.873738 28.978138 
Q 271.911228 27.609766 271.911228 26.185159 
Q 271.68629 26.260138 271.68629 29.896634 
L 271.68629 44.292662 
L 272.473572 48.229076 
" clip-path="url(#p7428c6ecc7)" style="fill: none; stroke: #000000; stroke-linejoin: miter"/>
   </g>
  </g>
  <g id="axes_18">
   <g id="patch_15">
    <path d="M 286.7616 35.032717 
Q 285.71189 34.582841 284.737159 34.69531 
Q 281.700497 35.032717 279.788524 36.701007 
Q 277.876552 38.369297 277.876552 41.330979 
Q 277.876552 43.917766 279.882248 45.6048 
Q 281.887945 47.291834 284.512221 47.291834 
Q 286.874069 47.291834 287.998759 45.361117 
Q 289.123448 43.4304 289.123448 40.881103 
Q 289.123448 39.643945 288.711062 38.706703 
Q 288.298676 37.769462 287.773821 37.300841 
Q 287.248966 36.832221 286.499172 36.119917 
Q 285.749379 35.407614 285.299503 34.69531 
L 284.062345 34.245434 
" clip-path="url(#pe10059f25b)" style="fill: none; stroke: #000000; stroke-linejoin: miter"/>
   </g>
  </g>
  <g id="axes_19">
   <g id="patch_16">
    <path d="M 302.9616 35.032717 
Q 301.91189 34.582841 300.937159 34.69531 
Q 297.900497 35.032717 295.988524 36.701007 
Q 294.076552 38.369297 294.076552 41.330979 
Q 294.076552 43.917766 296.082248 45.6048 
Q 298.087945 47.291834 300.712221 47.291834 
Q 303.074069 47.291834 304.198759 45.361117 
Q 305.323448 43.4304 305.323448 40.881103 
Q 305.323448 39.643945 304.911062 38.706703 
Q 304.498676 37.769462 303.973821 37.300841 
Q 303.448966 36.832221 302.699172 36.119917 
Q 301.949379 35.407614 301.499503 34.69531 
L 300.262345 34.245434 
" clip-path="url(#pa63e40a694)" style="fill: none; stroke: #000000; stroke-linejoin: miter"/>
   </g>
  </g>
  <g id="axes_20">
   <g id="patch_17">
    <path d="M 312.413462 32.783338 
Q 312.938317 34.507862 313.069531 36.457324 
Q 313.200745 38.406786 313.125766 40.956083 
Q 313.050786 43.505379 313.088276 44.705048 
L 313.200745 46.054676 
L 313.200745 45.829738 
Q 313.200745 44.667559 312.919572 42.30571 
Q 312.6384 39.943862 312.6384 38.744193 
Q 312.6384 36.419834 313.650621 34.882759 
Q 314.662841 33.345683 316.687283 33.345683 
Q 317.399586 33.345683 317.736993 33.626855 
Q 318.0744 33.908028 318.336828 34.432883 
Q 318.599255 34.957738 318.936662 35.257655 
L 319.386538 36.832221 
" clip-path="url(#pe2b25a365e)" style="fill: none; stroke: #000000; stroke-linejoin: miter"/>
   </g>
  </g>
  <g id="axes_21">
   <g id="patch_18">
    <path d="M 331.387697 39.981352 
Q 332.399917 40.956083 332.737324 42.905545 
Q 332.924772 43.955255 332.512386 46.167145 
L 331.275228 47.629241 
" clip-path="url(#pbff51c7bd9)" style="fill: none; stroke: #000000; stroke-linejoin: miter"/>
   </g>
  </g>
  <g id="axes_22"/>
  <g id="axes_23">
   <g id="patch_19">
    <path d="M 365.024855 27.009931 
Q 365.099834 27.347338 365.174814 28.265834 
Q 365.249793 29.184331 365.399752 29.634207 
L 365.324772 31.058814 
M 363.675228 27.309848 
Q 363.637738 27.309848 363.600248 27.534786 
Q 363.637738 27.684745 363.750207 28.828179 
Q 363.862676 29.971614 364.125103 30.533959 
" clip-path="url(#pbee53cc47b)" style="fill: none; stroke: #000000; stroke-linejoin: miter"/>
   </g>
  </g>
  <g id="axes_24">
   <g id="patch_20">
    <path d="M 383.9616 35.032717 
Q 382.91189 34.582841 381.937159 34.69531 
Q 378.900497 35.032717 376.988524 36.701007 
Q 375.076552 38.369297 375.076552 41.330979 
Q 375.076552 43.917766 377.082248 45.6048 
Q 379.087945 47.291834 381.712221 47.291834 
Q 384.074069 47.291834 385.198759 45.361117 
Q 386.323448 43.4304 386.323448 40.881103 
Q 386.323448 39.643945 385.911062 38.706703 
Q 385.498676 37.769462 384.973821 37.300841 
Q 384.448966 36.832221 383.699172 36.119917 
Q 382.949379 35.407614 382.499503 34.69531 
L 381.262345 34.245434 
" clip-path="url(#p4382055aaa)" style="fill: none; stroke: #000000; stroke-linejoin: miter"/>
   </g>
  </g>
  <g id="axes_25">
   <g id="patch_21">
    <path d="M 393.413462 35.932469 
Q 394.013297 35.257655 395.006772 34.826524 
Q 396.000248 34.395393 396.9 34.470372 
Q 397.537324 34.470372 398.02469 34.639076 
Q 398.512055 34.807779 398.830717 34.995228 
Q 399.149379 35.182676 399.374317 35.670041 
Q 399.599255 36.157407 399.711724 36.419834 
Q 399.824193 36.682262 399.880428 37.375821 
Q 399.936662 38.069379 399.955407 38.331807 
Q 399.974152 38.594234 399.955407 39.419007 
Q 399.936662 40.243779 399.936662 40.431228 
Q 399.936662 41.368469 399.767959 43.242952 
Q 399.599255 45.117434 399.599255 46.054676 
Q 399.599255 46.467062 399.65549 46.823214 
Q 399.711724 47.179366 399.805448 47.610497 
Q 399.899172 48.041628 399.936662 48.304055 
L 400.386538 48.528993 
M 393.863338 23.111007 
Q 394.088276 24.798041 394.088276 29.971614 
L 394.088276 42.3432 
L 393.750869 46.841959 
L 393.525931 47.74171 
" clip-path="url(#p06be142910)" style="fill: none; stroke: #000000; stroke-linejoin: miter"/>
   </g>
  </g>
  <g id="axes_26">
   <g id="patch_22">
    <path d="M 412.387697 39.981352 
Q 413.399917 40.956083 413.737324 42.905545 
Q 413.924772 43.955255 413.512386 46.167145 
L 412.275228 47.629241 
" clip-path="url(#p63b217f369)" style="fill: none; stroke: #000000; stroke-linejoin: miter"/>
   </g>
  </g>
  <g id="axes_27"/>
  <g id="axes_28">
   <g id="patch_23">
    <path d="M 451.043923 36.441748 
Q 449.834968 35.094627 445.862687 35.094627 
Q 444.342857 35.094627 443.565672 35.146439 
Q 442.788486 35.198252 441.78678 35.440043 
Q 440.785075 35.681834 440.301493 36.182687 
Q 439.81791 36.683539 439.472495 37.616162 
Q 439.127079 38.548785 439.127079 39.964989 
Q 439.127079 42.037484 440.543284 43.280981 
Q 441.959488 44.524478 443.893817 44.524478 
Q 446.553518 44.524478 449.316844 38.721493 
Q 450.663966 35.854542 450.663966 35.82 
Q 451.009382 35.578209 451.043923 36.441748 
Q 451.043923 37.512537 451.458422 40.362217 
Q 451.872921 43.211898 451.872921 44.524478 
" clip-path="url(#p2cf4b13a13)" style="fill: none; stroke: #000000; stroke-linejoin: miter"/>
   </g>
  </g>
  <g id="axes_29">
   <g id="patch_24">
    <path d="M 457.238731 37.282097 
L 457.238731 37.844441 
Q 457.501159 39.868883 457.538648 41.312234 
Q 457.576138 42.755586 457.482414 44.667559 
Q 457.38869 46.579531 457.38869 48.191586 
L 457.463669 39.643945 
Q 457.463669 38.144359 459.056979 37.507034 
Q 460.65029 36.86971 462.074897 37.282097 
Q 463.986869 37.844441 464.905366 39.04411 
Q 465.823862 40.243779 465.880097 41.668386 
Q 465.936331 43.092993 465.973821 44.817517 
Q 466.01131 46.542041 466.161269 48.191586 
" clip-path="url(#pc2faf2d6fc)" style="fill: none; stroke: #000000; stroke-linejoin: miter"/>
   </g>
  </g>
  <g id="axes_30">
   <g id="patch_25">
    <path d="M 481.499007 39.568966 
Q 480.149379 38.181848 477.9 38.444276 
Q 475.050786 38.444276 473.888607 39.793903 
Q 472.726428 41.143531 472.726428 44.067724 
Q 472.726428 45.56731 474.019821 46.279614 
Q 475.313214 46.991917 476.887779 46.991917 
Q 478.199917 46.991917 479.212138 45.736014 
Q 480.224359 44.48011 480.805448 42.30571 
Q 481.386538 40.13131 481.761434 37.938166 
Q 482.136331 35.745021 482.28629 33.045766 
Q 482.436248 30.34651 482.473738 28.978138 
Q 482.511228 27.609766 482.511228 26.185159 
Q 482.28629 26.260138 482.28629 29.896634 
L 482.28629 44.292662 
L 483.073572 48.229076 
" clip-path="url(#p7312dabe7c)" style="fill: none; stroke: #000000; stroke-linejoin: miter"/>
   </g>
  </g>
  <g id="axes_31"/>
  <g id="axes_32">
   <g id="patch_26">
    <path d="M 510.918579 29.071862 
Q 510.543683 29.146841 510.412469 29.577972 
Q 510.281255 30.009103 510.356234 30.42149 
Q 510.356234 30.571448 510.393724 30.702662 
Q 510.431214 30.833876 510.487448 30.89011 
Q 510.543683 30.946345 510.599917 31.040069 
Q 510.656152 31.133793 510.693641 31.208772 
L 510.80611 29.859145 
M 510.80611 34.020497 
Q 509.906359 39.006621 509.681421 42.793076 
L 510.131297 45.379862 
L 510.468703 46.054676 
" clip-path="url(#p6c825d40ab)" style="fill: none; stroke: #000000; stroke-linejoin: miter"/>
   </g>
  </g>
  <g id="axes_33">
   <g id="patch_27">
    <path d="M 521.663834 37.95691 
L 522.338648 37.95691 
Q 523.050952 37.95691 523.838234 37.881931 
Q 524.625517 37.806952 525.581503 37.675738 
Q 526.53749 37.544524 527.062345 37.507034 
L 531.336166 35.82 
M 527.287283 30.42149 
L 527.287283 31.43371 
Q 527.287283 33.383172 526.612469 37.207117 
Q 525.937655 41.031062 525.937655 43.018014 
Q 525.937655 43.805297 525.937655 44.105214 
Q 525.937655 44.405131 526.031379 45.042455 
Q 526.125103 45.679779 526.312552 45.960952 
Q 526.5 46.242124 526.893641 46.485807 
Q 527.287283 46.72949 527.849628 46.72949 
Q 527.962097 46.692 528.280759 46.72949 
Q 528.599421 46.766979 528.786869 46.710745 
Q 528.974317 46.65451 528.974317 46.392083 
" clip-path="url(#p9bb68f3351)" style="fill: none; stroke: #000000; stroke-linejoin: miter"/>
   </g>
  </g>
  <g id="axes_34">
   <g id="patch_28">
    <path d="M 542.625021 26.147669 
Q 542.587531 26.597545 542.625021 27.384828 
Q 542.66251 27.572276 542.606276 27.965917 
Q 542.550041 28.359559 542.587531 28.678221 
Q 542.625021 28.996883 542.849959 29.184331 
" clip-path="url(#p2f816feb86)" style="fill: none; stroke: #000000; stroke-linejoin: miter"/>
   </g>
  </g>
  <g id="axes_35">
   <g id="patch_29">
    <path d="M 554.457476 43.917766 
Q 554.757393 44.180193 555.769614 45.154924 
Q 556.781834 46.129655 557.344179 46.560786 
Q 557.906524 46.991917 558.93749 47.385559 
Q 559.968455 47.7792 560.980676 47.629241 
Q 561.65549 47.629241 562.12411 47.404303 
Q 562.592731 47.179366 562.817669 46.879448 
Q 563.042607 46.579531 563.173821 45.979697 
Q 563.305034 45.379862 563.323779 44.967476 
Q 563.342524 44.55509 563.342524 43.805297 
Q 563.342524 42.718097 562.442772 42.043283 
Q 561.543021 41.368469 560.249628 41.031062 
Q 558.956234 40.693655 557.662841 40.300014 
Q 556.369448 39.906372 555.469697 38.987876 
Q 554.569945 38.069379 554.569945 36.607283 
Q 554.569945 36.082428 554.738648 35.726276 
Q 554.907352 35.370124 555.300993 35.145186 
Q 555.694634 34.920248 555.975807 34.807779 
Q 556.256979 34.69531 556.913048 34.639076 
Q 557.569117 34.582841 557.756566 34.582841 
Q 557.944014 34.582841 558.618828 34.582841 
Q 559.818497 34.582841 560.399586 34.995228 
Q 560.980676 35.407614 561.299338 36.026193 
Q 561.618 36.644772 561.880428 36.832221 
" clip-path="url(#pd48d0fae62)" style="fill: none; stroke: #000000; stroke-linejoin: miter"/>
   </g>
  </g>
  <g id="axes_36"/>
  <g id="axes_37">
   <g id="patch_30">
    <path d="M 585.784049 31.819693 
Q 587.25 31.223374 588.939571 31.037025 
Q 590.629141 30.850675 591.933589 30.925215 
Q 593.238037 30.999755 594.952454 30.838252 
Q 596.666871 30.676748 598.157669 30.105276 
M 584.442331 43.000675 
L 584.442331 43.149755 
Q 584.442331 44.590859 586.032515 45.696534 
Q 587.622699 46.802209 589.063804 46.802209 
Q 589.759509 46.802209 590.318558 46.466779 
Q 590.877607 46.13135 591.250307 45.559877 
Q 591.623006 44.988405 591.908742 44.230583 
Q 592.194479 43.472761 592.343558 42.603129 
Q 592.492638 41.733497 592.616871 40.814172 
Q 592.741104 39.894847 592.753528 39.012791 
Q 592.765951 38.130736 592.790798 37.348067 
Q 592.815644 36.565399 592.790798 35.944233 
Q 592.790798 35.571534 592.790798 35.397607 
Q 592.790798 35.124294 592.753528 34.552822 
Q 592.716258 33.98135 592.716258 33.68319 
Q 592.716258 33.434724 592.554755 33.062025 
Q 592.393252 32.689325 592.144785 32.254509 
Q 591.896319 31.819693 591.821779 31.670613 
L 591.747239 30.925215 
" clip-path="url(#pee0095c94d)" style="fill: none; stroke: #000000; stroke-linejoin: miter"/>
   </g>
  </g>
  <g id="axes_38">
   <g id="patch_31">
    <path d="M 610.7616 35.032717 
Q 609.71189 34.582841 608.737159 34.69531 
Q 605.700497 35.032717 603.788524 36.701007 
Q 601.876552 38.369297 601.876552 41.330979 
Q 601.876552 43.917766 603.882248 45.6048 
Q 605.887945 47.291834 608.512221 47.291834 
Q 610.874069 47.291834 611.998759 45.361117 
Q 613.123448 43.4304 613.123448 40.881103 
Q 613.123448 39.643945 612.711062 38.706703 
Q 612.298676 37.769462 611.773821 37.300841 
Q 611.248966 36.832221 610.499172 36.119917 
Q 609.749379 35.407614 609.299503 34.69531 
L 608.062345 34.245434 
" clip-path="url(#p14a5cae3a0)" style="fill: none; stroke: #000000; stroke-linejoin: miter"/>
   </g>
  </g>
  <g id="axes_39">
   <g id="patch_32">
    <path d="M 623.306359 28.621986 
Q 623.531297 30.34651 623.606276 32.146014 
Q 623.681255 33.945517 623.66251 36.551048 
Q 623.643766 39.156579 623.643766 40.093821 
Q 623.643766 40.13131 623.868703 45.829738 
L 624.093641 46.841959 
" clip-path="url(#p4d5bdf5c0f)" style="fill: none; stroke: #000000; stroke-linejoin: miter"/>
   </g>
  </g>
  <g id="axes_40">
   <g id="patch_33">
    <path d="M 633.657798 38.160826 
Q 636.630275 39.535596 641.349083 39.721376 
Q 642.872477 39.721376 643.559862 38.550963 
Q 644.247248 37.38055 644.247248 35.82 
Q 644.247248 35.299817 644.154358 34.909679 
Q 644.061468 34.519541 643.819954 34.296606 
Q 643.57844 34.07367 643.411239 33.943624 
Q 643.244037 33.813578 642.798165 33.757844 
Q 642.352294 33.70211 642.147936 33.683532 
Q 641.943578 33.664954 641.367661 33.683532 
Q 640.791743 33.70211 640.568807 33.70211 
Q 638.525229 33.70211 637.038991 35.578486 
Q 635.552752 37.454862 635.552752 39.609908 
Q 635.552752 42.619541 637.484862 44.570229 
Q 639.416972 46.520917 642.463761 46.520917 
Q 644.618807 46.818165 646.142202 44.29156 
" clip-path="url(#pfb38034e54)" style="fill: none; stroke: #000000; stroke-linejoin: miter"/>
   </g>
  </g>
  <g id="axes_41">
   <g id="patch_34">
    <path d="M 651.638731 37.282097 
L 651.638731 37.844441 
Q 651.901159 39.868883 651.938648 41.312234 
Q 651.976138 42.755586 651.882414 44.667559 
Q 651.78869 46.579531 651.78869 48.191586 
L 651.863669 39.643945 
Q 651.863669 38.144359 653.456979 37.507034 
Q 655.05029 36.86971 656.474897 37.282097 
Q 658.386869 37.844441 659.305366 39.04411 
Q 660.223862 40.243779 660.280097 41.668386 
Q 660.336331 43.092993 660.373821 44.817517 
Q 660.41131 46.542041 660.561269 48.191586 
" clip-path="url(#p7486aea155)" style="fill: none; stroke: #000000; stroke-linejoin: miter"/>
   </g>
  </g>
  <g id="axes_42">
   <g id="patch_35">
    <path d="M 666.057798 38.160826 
Q 669.030275 39.535596 673.749083 39.721376 
Q 675.272477 39.721376 675.959862 38.550963 
Q 676.647248 37.38055 676.647248 35.82 
Q 676.647248 35.299817 676.554358 34.909679 
Q 676.461468 34.519541 676.219954 34.296606 
Q 675.97844 34.07367 675.811239 33.943624 
Q 675.644037 33.813578 675.198165 33.757844 
Q 674.752294 33.70211 674.547936 33.683532 
Q 674.343578 33.664954 673.767661 33.683532 
Q 673.191743 33.70211 672.968807 33.70211 
Q 670.925229 33.70211 669.438991 35.578486 
Q 667.952752 37.454862 667.952752 39.609908 
Q 667.952752 42.619541 669.884862 44.570229 
Q 671.816972 46.520917 674.863761 46.520917 
Q 677.018807 46.818165 678.542202 44.29156 
" clip-path="url(#p435592e581)" style="fill: none; stroke: #000000; stroke-linejoin: miter"/>
   </g>
  </g>
  <g id="axes_43"/>
  <g id="axes_44">
   <g id="patch_36">
    <path d="M 697.687248 30.470738 
L 698.861477 30.601208 
Q 700.688054 30.601208 702.525503 30.709933 
Q 704.362953 30.818658 706.602685 30.992617 
Q 708.842416 31.166577 710.277584 31.253557 
L 711.712752 31.123087 
M 704.471678 31.057852 
Q 704.536913 31.405772 704.275973 32.177718 
Q 704.015034 32.949664 704.210738 33.406309 
Q 704.210738 34.711007 704.352081 36.363624 
Q 704.493423 38.016242 704.710872 39.973289 
Q 704.928322 41.930336 704.993557 42.800134 
" clip-path="url(#p6cad6e0bfb)" style="fill: none; stroke: #000000; stroke-linejoin: miter"/>
   </g>
  </g>
  <g id="axes_45">
   <g id="patch_37">
    <path d="M 716.288772 35.145186 
Q 716.288772 35.145186 716.288772 35.595062 
Q 716.288772 36.269876 716.176303 37.619503 
Q 716.063834 38.969131 716.063834 39.643945 
Q 716.063834 41.930814 717.300993 43.599103 
Q 718.538152 45.267393 720.675062 45.267393 
Q 722.062179 45.154924 722.830717 43.917766 
Q 723.599255 42.680607 723.749214 41.237255 
Q 723.899172 39.793903 724.1616 37.9944 
Q 724.424028 36.194897 724.836414 35.370124 
Q 724.986372 35.070207 724.986372 35.670041 
Q 724.986372 36.269876 724.723945 38.706703 
Q 724.499007 41.031062 724.499007 41.555917 
Q 724.349048 42.643117 724.686455 43.767807 
Q 725.023862 44.892497 725.736166 45.6048 
" clip-path="url(#p20e9fa2763)" style="fill: none; stroke: #000000; stroke-linejoin: miter"/>
   </g>
  </g>
  <g id="axes_46">
   <g id="patch_38">
    <path d="M 733.613462 32.783338 
Q 734.138317 34.507862 734.269531 36.457324 
Q 734.400745 38.406786 734.325766 40.956083 
Q 734.250786 43.505379 734.288276 44.705048 
L 734.400745 46.054676 
L 734.400745 45.829738 
Q 734.400745 44.667559 734.119572 42.30571 
Q 733.8384 39.943862 733.8384 38.744193 
Q 733.8384 36.419834 734.850621 34.882759 
Q 735.862841 33.345683 737.887283 33.345683 
Q 738.599586 33.345683 738.936993 33.626855 
Q 739.2744 33.908028 739.536828 34.432883 
Q 739.799255 34.957738 740.136662 35.257655 
L 740.586538 36.832221 
" clip-path="url(#p4a646e6a3c)" style="fill: none; stroke: #000000; stroke-linejoin: miter"/>
   </g>
  </g>
  <g id="axes_47">
   <g id="patch_39">
    <path d="M 748.838731 37.282097 
L 748.838731 37.844441 
Q 749.101159 39.868883 749.138648 41.312234 
Q 749.176138 42.755586 749.082414 44.667559 
Q 748.98869 46.579531 748.98869 48.191586 
L 749.063669 39.643945 
Q 749.063669 38.144359 750.656979 37.507034 
Q 752.25029 36.86971 753.674897 37.282097 
Q 755.586869 37.844441 756.505366 39.04411 
Q 757.423862 40.243779 757.480097 41.668386 
Q 757.536331 43.092993 757.573821 44.817517 
Q 757.61131 46.542041 757.761269 48.191586 
" clip-path="url(#p66a0c00307)" style="fill: none; stroke: #000000; stroke-linejoin: miter"/>
   </g>
  </g>
  <g id="axes_48">
   <g id="patch_40">
    <path d="M 763.257798 38.160826 
Q 766.230275 39.535596 770.949083 39.721376 
Q 772.472477 39.721376 773.159862 38.550963 
Q 773.847248 37.38055 773.847248 35.82 
Q 773.847248 35.299817 773.754358 34.909679 
Q 773.661468 34.519541 773.419954 34.296606 
Q 773.17844 34.07367 773.011239 33.943624 
Q 772.844037 33.813578 772.398165 33.757844 
Q 771.952294 33.70211 771.747936 33.683532 
Q 771.543578 33.664954 770.967661 33.683532 
Q 770.391743 33.70211 770.168807 33.70211 
Q 768.125229 33.70211 766.638991 35.578486 
Q 765.152752 37.454862 765.152752 39.609908 
Q 765.152752 42.619541 767.084862 44.570229 
Q 769.016972 46.520917 772.063761 46.520917 
Q 774.218807 46.818165 775.742202 44.29156 
" clip-path="url(#pcb713611db)" style="fill: none; stroke: #000000; stroke-linejoin: miter"/>
   </g>
  </g>
  <g id="axes_49">
   <g id="patch_41">
    <path d="M 782.213462 32.783338 
Q 782.738317 34.507862 782.869531 36.457324 
Q 783.000745 38.406786 782.925766 40.956083 
Q 782.850786 43.505379 782.888276 44.705048 
L 783.000745 46.054676 
L 783.000745 45.829738 
Q 783.000745 44.667559 782.719572 42.30571 
Q 782.4384 39.943862 782.4384 38.744193 
Q 782.4384 36.419834 783.450621 34.882759 
Q 784.462841 33.345683 786.487283 33.345683 
Q 787.199586 33.345683 787.536993 33.626855 
Q 787.8744 33.908028 788.136828 34.432883 
Q 788.399255 34.957738 788.736662 35.257655 
L 789.186538 36.832221 
" clip-path="url(#p0522ea1182)" style="fill: none; stroke: #000000; stroke-linejoin: miter"/>
   </g>
  </g>
 </g>
 <defs>
  <clipPath id="p8ba82523ee">
   <rect x="0" y="10.777356" width="16.2" height="50.085288"/>
  </clipPath>
  <clipPath id="pb57e1a39e6">
   <rect x="17.964248" y="8.64" width="12.671503" height="54.36"/>
  </clipPath>
  <clipPath id="p284981519c">
   <rect x="33.451945" y="8.64" width="14.09611" height="54.36"/>
  </clipPath>
  <clipPath id="p114d615c25">
   <rect x="64.8" y="12.969805" width="16.2" height="45.700389"/>
  </clipPath>
  <clipPath id="p45c67de7d6">
   <rect x="82.389352" y="8.64" width="13.421297" height="54.36"/>
  </clipPath>
  <clipPath id="p56a480b5f8">
   <rect x="99.938979" y="8.64" width="10.722041" height="54.36"/>
  </clipPath>
  <clipPath id="p7fdfc45f49">
   <rect x="114.789352" y="8.64" width="13.421297" height="54.36"/>
  </clipPath>
  <clipPath id="p4c9c50207a">
   <rect x="147.189352" y="8.64" width="13.421297" height="54.36"/>
  </clipPath>
  <clipPath id="p61eeaa1072">
   <rect x="162.602069" y="8.64" width="14.995862" height="54.36"/>
  </clipPath>
  <clipPath id="p12ae784346">
   <rect x="195.789352" y="8.64" width="13.421297" height="54.36"/>
  </clipPath>
  <clipPath id="p480bf97b24">
   <rect x="213.338979" y="8.64" width="10.722041" height="54.36"/>
  </clipPath>
  <clipPath id="pe5784c0637">
   <rect x="226.8" y="8.881927" width="16.2" height="53.876147"/>
  </clipPath>
  <clipPath id="p7428c6ecc7">
   <rect x="260.251945" y="8.64" width="14.09611" height="54.36"/>
  </clipPath>
  <clipPath id="pe10059f25b">
   <rect x="276.002069" y="8.64" width="14.995862" height="54.36"/>
  </clipPath>
  <clipPath id="pa63e40a694">
   <rect x="292.202069" y="8.64" width="14.995862" height="54.36"/>
  </clipPath>
  <clipPath id="pe2b25a365e">
   <rect x="310.538979" y="8.64" width="10.722041" height="54.36"/>
  </clipPath>
  <clipPath id="pbff51c7bd9">
   <rect x="329.400745" y="8.64" width="5.39851" height="54.36"/>
  </clipPath>
  <clipPath id="pbee53cc47b">
   <rect x="361.725766" y="8.64" width="5.548469" height="54.36"/>
  </clipPath>
  <clipPath id="p4382055aaa">
   <rect x="373.202069" y="8.64" width="14.995862" height="54.36"/>
  </clipPath>
  <clipPath id="p06be142910">
   <rect x="391.538979" y="8.64" width="10.722041" height="54.36"/>
  </clipPath>
  <clipPath id="p63b217f369">
   <rect x="410.400745" y="8.64" width="5.39851" height="54.36"/>
  </clipPath>
  <clipPath id="p2cf4b13a13">
   <rect x="437.4" y="10.777356" width="16.2" height="50.085288"/>
  </clipPath>
  <clipPath id="pc2faf2d6fc">
   <rect x="455.364248" y="8.64" width="12.671503" height="54.36"/>
  </clipPath>
  <clipPath id="p7312dabe7c">
   <rect x="470.851945" y="8.64" width="14.09611" height="54.36"/>
  </clipPath>
  <clipPath id="p6c825d40ab">
   <rect x="507.806938" y="8.64" width="4.986124" height="54.36"/>
  </clipPath>
  <clipPath id="p9bb68f3351">
   <rect x="519.789352" y="8.64" width="13.421297" height="54.36"/>
  </clipPath>
  <clipPath id="p2f816feb86">
   <rect x="540.675559" y="8.64" width="4.048883" height="54.36"/>
  </clipPath>
  <clipPath id="pd48d0fae62">
   <rect x="552.582993" y="8.64" width="12.634014" height="54.36"/>
  </clipPath>
  <clipPath id="pee0095c94d">
   <rect x="583.2" y="17.806196" width="16.2" height="36.027607"/>
  </clipPath>
  <clipPath id="p14a5cae3a0">
   <rect x="600.002069" y="8.64" width="14.995862" height="54.36"/>
  </clipPath>
  <clipPath id="p4d5bdf5c0f">
   <rect x="621.431876" y="8.64" width="4.536248" height="54.36"/>
  </clipPath>
  <clipPath id="pfb38034e54">
   <rect x="631.8" y="8.881927" width="16.2" height="53.876147"/>
  </clipPath>
  <clipPath id="p7486aea155">
   <rect x="649.764248" y="8.64" width="12.671503" height="54.36"/>
  </clipPath>
  <clipPath id="p435592e581">
   <rect x="664.2" y="8.881927" width="16.2" height="53.876147"/>
  </clipPath>
  <clipPath id="p6cad6e0bfb">
   <rect x="696.6" y="20.054899" width="16.2" height="31.530201"/>
  </clipPath>
  <clipPath id="p20e9fa2763">
   <rect x="714.189352" y="8.64" width="13.421297" height="54.36"/>
  </clipPath>
  <clipPath id="p4a646e6a3c">
   <rect x="731.738979" y="8.64" width="10.722041" height="54.36"/>
  </clipPath>
  <clipPath id="p66a0c00307">
   <rect x="746.964248" y="8.64" width="12.671503" height="54.36"/>
  </clipPath>
  <clipPath id="pcb713611db">
   <rect x="761.4" y="8.881927" width="16.2" height="53.876147"/>
  </clipPath>
  <clipPath id="p0522ea1182">
   <rect x="780.338979" y="8.64" width="10.722041" height="54.36"/>
  </clipPath>
 </defs>
</svg>
