<?xml version="1.0" encoding="utf-8" standalone="no"?>
<!DOCTYPE svg PUBLIC "-//W3C//DTD SVG 1.1//EN"
  "http://www.w3.org/Graphics/SVG/1.1/DTD/svg11.dtd">
<svg xmlns:xlink="http://www.w3.org/1999/xlink" width="828pt" height="72pt" viewBox="0 0 828 72" xmlns="http://www.w3.org/2000/svg" version="1.1">
 <metadata>
  <rdf:RDF xmlns:dc="http://purl.org/dc/elements/1.1/" xmlns:cc="http://creativecommons.org/ns#" xmlns:rdf="http://www.w3.org/1999/02/22-rdf-syntax-ns#">
   <cc:Work>
    <dc:type rdf:resource="http://purl.org/dc/dcmitype/StillImage"/>
    <dc:date>2023-12-21T11:53:08.921972</dc:date>
    <dc:format>image/svg+xml</dc:format>
    <dc:creator>
     <cc:Agent>
      <dc:title>Matplotlib v3.5.1, https://matplotlib.org/</dc:title>
     </cc:Agent>
    </dc:creator>
   </cc:Work>
  </rdf:RDF>
 </metadata>
 <defs>
  <style type="text/css">*{stroke-linejoin: round; stroke-linecap: butt}</style>
 </defs>
 <g id="figure_1">
  <g id="patch_1">
   <path d="M 0 72 
L 828 72 
L 828 0 
L 0 0 
z
" style="fill: #8fff9f"/>
  </g>
  <g id="axes_1">
   <g id="patch_2">
    <path d="M 1.087248 30.470738 
L 2.261477 30.601208 
Q 4.088054 30.601208 5.925503 30.709933 
Q 7.762953 30.818658 10.002685 30.992617 
Q 12.242416 31.166577 13.677584 31.253557 
L 15.112752 31.123087 
M 7.871678 31.057852 
Q 7.936913 31.405772 7.675973 32.177718 
Q 7.415034 32.949664 7.610738 33.406309 
Q 7.610738 34.711007 7.752081 36.363624 
Q 7.893423 38.016242 8.110872 39.973289 
Q 8.328322 41.930336 8.393557 42.800134 
" clip-path="url(#p36c3779094)" style="fill: none; stroke: #000000; stroke-linejoin: miter"/>
   </g>
  </g>
  <g id="axes_2">
   <g id="patch_3">
    <path d="M 20.813462 35.932469 
Q 21.413297 35.257655 22.406772 34.826524 
Q 23.400248 34.395393 24.3 34.470372 
Q 24.937324 34.470372 25.42469 34.639076 
Q 25.912055 34.807779 26.230717 34.995228 
Q 26.549379 35.182676 26.774317 35.670041 
Q 26.999255 36.157407 27.111724 36.419834 
Q 27.224193 36.682262 27.280428 37.375821 
Q 27.336662 38.069379 27.355407 38.331807 
Q 27.374152 38.594234 27.355407 39.419007 
Q 27.336662 40.243779 27.336662 40.431228 
Q 27.336662 41.368469 27.167959 43.242952 
Q 26.999255 45.117434 26.999255 46.054676 
Q 26.999255 46.467062 27.05549 46.823214 
Q 27.111724 47.179366 27.205448 47.610497 
Q 27.299172 48.041628 27.336662 48.304055 
L 27.786538 48.528993 
M 21.263338 23.111007 
Q 21.488276 24.798041 21.488276 29.971614 
L 21.488276 42.3432 
L 21.150869 46.841959 
L 20.925931 47.74171 
" clip-path="url(#p35de5760b9)" style="fill: none; stroke: #000000; stroke-linejoin: miter"/>
   </g>
  </g>
  <g id="axes_3">
   <g id="patch_4">
    <path d="M 46.043923 36.441748 
Q 44.834968 35.094627 40.862687 35.094627 
Q 39.342857 35.094627 38.565672 35.146439 
Q 37.788486 35.198252 36.78678 35.440043 
Q 35.785075 35.681834 35.301493 36.182687 
Q 34.81791 36.683539 34.472495 37.616162 
Q 34.127079 38.548785 34.127079 39.964989 
Q 34.127079 42.037484 35.543284 43.280981 
Q 36.959488 44.524478 38.893817 44.524478 
Q 41.553518 44.524478 44.316844 38.721493 
Q 45.663966 35.854542 45.663966 35.82 
Q 46.009382 35.578209 46.043923 36.441748 
Q 46.043923 37.512537 46.458422 40.362217 
Q 46.872921 43.211898 46.872921 44.524478 
" clip-path="url(#pb8f7719598)" style="fill: none; stroke: #000000; stroke-linejoin: miter"/>
   </g>
  </g>
  <g id="axes_4">
   <g id="patch_5">
    <path d="M 51.863834 37.95691 
L 52.538648 37.95691 
Q 53.250952 37.95691 54.038234 37.881931 
Q 54.825517 37.806952 55.781503 37.675738 
Q 56.73749 37.544524 57.262345 37.507034 
L 61.536166 35.82 
M 57.487283 30.42149 
L 57.487283 31.43371 
Q 57.487283 33.383172 56.812469 37.207117 
Q 56.137655 41.031062 56.137655 43.018014 
Q 56.137655 43.805297 56.137655 44.105214 
Q 56.137655 44.405131 56.231379 45.042455 
Q 56.325103 45.679779 56.512552 45.960952 
Q 56.7 46.242124 57.093641 46.485807 
Q 57.487283 46.72949 58.049628 46.72949 
Q 58.162097 46.692 58.480759 46.72949 
Q 58.799421 46.766979 58.986869 46.710745 
Q 59.174317 46.65451 59.174317 46.392083 
" clip-path="url(#pdeeada5153)" style="fill: none; stroke: #000000; stroke-linejoin: miter"/>
   </g>
  </g>
  <g id="axes_5"/>
  <g id="axes_6">
   <g id="patch_6">
    <path d="M 82.857798 38.160826 
Q 85.830275 39.535596 90.549083 39.721376 
Q 92.072477 39.721376 92.759862 38.550963 
Q 93.447248 37.38055 93.447248 35.82 
Q 93.447248 35.299817 93.354358 34.909679 
Q 93.261468 34.519541 93.019954 34.296606 
Q 92.77844 34.07367 92.611239 33.943624 
Q 92.444037 33.813578 91.998165 33.757844 
Q 91.552294 33.70211 91.347936 33.683532 
Q 91.143578 33.664954 90.567661 33.683532 
Q 89.991743 33.70211 89.768807 33.70211 
Q 87.725229 33.70211 86.238991 35.578486 
Q 84.752752 37.454862 84.752752 39.609908 
Q 84.752752 42.619541 86.684862 44.570229 
Q 88.616972 46.520917 91.663761 46.520917 
Q 93.818807 46.818165 95.342202 44.29156 
" clip-path="url(#p44ebf1b5a8)" style="fill: none; stroke: #000000; stroke-linejoin: miter"/>
   </g>
  </g>
  <g id="axes_7">
   <g id="patch_7">
    <path d="M 101.026179 34.807779 
Q 102.638234 36.719752 103.931628 39.6252 
Q 105.225021 42.530648 105.524938 45.154924 
Q 106.574648 43.655338 107.493145 38.819172 
Q 108.411641 33.983007 109.573821 32.108524 
" clip-path="url(#p5758eebe1e)" style="fill: none; stroke: #000000; stroke-linejoin: miter"/>
   </g>
  </g>
  <g id="axes_8">
   <g id="patch_8">
    <path d="M 115.257798 38.160826 
Q 118.230275 39.535596 122.949083 39.721376 
Q 124.472477 39.721376 125.159862 38.550963 
Q 125.847248 37.38055 125.847248 35.82 
Q 125.847248 35.299817 125.754358 34.909679 
Q 125.661468 34.519541 125.419954 34.296606 
Q 125.17844 34.07367 125.011239 33.943624 
Q 124.844037 33.813578 124.398165 33.757844 
Q 123.952294 33.70211 123.747936 33.683532 
Q 123.543578 33.664954 122.967661 33.683532 
Q 122.391743 33.70211 122.168807 33.70211 
Q 120.125229 33.70211 118.638991 35.578486 
Q 117.152752 37.454862 117.152752 39.609908 
Q 117.152752 42.619541 119.084862 44.570229 
Q 121.016972 46.520917 124.063761 46.520917 
Q 126.218807 46.818165 127.742202 44.29156 
" clip-path="url(#pb7bd887cec)" style="fill: none; stroke: #000000; stroke-linejoin: miter"/>
   </g>
  </g>
  <g id="axes_9">
   <g id="patch_9">
    <path d="M 133.238731 37.282097 
L 133.238731 37.844441 
Q 133.501159 39.868883 133.538648 41.312234 
Q 133.576138 42.755586 133.482414 44.667559 
Q 133.38869 46.579531 133.38869 48.191586 
L 133.463669 39.643945 
Q 133.463669 38.144359 135.056979 37.507034 
Q 136.65029 36.86971 138.074897 37.282097 
Q 139.986869 37.844441 140.905366 39.04411 
Q 141.823862 40.243779 141.880097 41.668386 
Q 141.936331 43.092993 141.973821 44.817517 
Q 142.01131 46.542041 142.161269 48.191586 
" clip-path="url(#p93ae4425a4)" style="fill: none; stroke: #000000; stroke-linejoin: miter"/>
   </g>
  </g>
  <g id="axes_10">
   <g id="patch_10">
    <path d="M 154.518579 29.071862 
Q 154.143683 29.146841 154.012469 29.577972 
Q 153.881255 30.009103 153.956234 30.42149 
Q 153.956234 30.571448 153.993724 30.702662 
Q 154.031214 30.833876 154.087448 30.89011 
Q 154.143683 30.946345 154.199917 31.040069 
Q 154.256152 31.133793 154.293641 31.208772 
L 154.40611 29.859145 
M 154.40611 34.020497 
Q 153.506359 39.006621 153.281421 42.793076 
L 153.731297 45.379862 
L 154.068703 46.054676 
" clip-path="url(#p24b31bcc60)" style="fill: none; stroke: #000000; stroke-linejoin: miter"/>
   </g>
  </g>
  <g id="axes_11">
   <g id="patch_11">
    <path d="M 165.638731 37.282097 
L 165.638731 37.844441 
Q 165.901159 39.868883 165.938648 41.312234 
Q 165.976138 42.755586 165.882414 44.667559 
Q 165.78869 46.579531 165.78869 48.191586 
L 165.863669 39.643945 
Q 165.863669 38.144359 167.456979 37.507034 
Q 169.05029 36.86971 170.474897 37.282097 
Q 172.386869 37.844441 173.305366 39.04411 
Q 174.223862 40.243779 174.280097 41.668386 
Q 174.336331 43.092993 174.373821 44.817517 
Q 174.41131 46.542041 174.561269 48.191586 
" clip-path="url(#p800f4b1f7a)" style="fill: none; stroke: #000000; stroke-linejoin: miter"/>
   </g>
  </g>
  <g id="axes_12">
   <g id="patch_12">
    <path d="M 191.087191 39.096404 
Q 190.83236 39.023596 189.86764 38.623146 
Q 188.902921 38.222697 188.24764 38.077079 
Q 187.59236 37.931461 186.937079 38.00427 
Q 184.315955 38.00427 182.677753 40.388764 
Q 181.039551 42.773258 181.039551 45.430787 
Q 181.039551 47.068989 186.281798 47.068989 
Q 187.847191 47.068989 189.175955 45.558202 
Q 190.504719 44.047416 191.178202 42.172584 
Q 191.851685 40.297753 191.851685 38.768764 
Q 191.851685 37.27618 191.815281 36.984944 
L 191.742472 38.077079 
Q 191.742472 38.550337 191.742472 38.987191 
Q 191.778876 40.188539 191.979101 42.281798 
Q 192.179326 44.375056 192.343146 46.049663 
Q 192.506966 47.72427 192.543371 49.872135 
Q 192.579775 52.02 192.415955 53.658202 
Q 192.252135 55.296404 191.687865 56.971011 
Q 191.123596 58.645618 190.195281 59.737753 
Q 189.266966 60.829888 187.665169 61.521573 
Q 186.063371 62.213258 183.915506 62.213258 
Q 182.277303 62.213258 181.185169 61.466966 
Q 180.093034 60.720674 180.093034 59.155281 
Q 180.020225 58.936854 180.056629 58.936854 
Q 180.093034 58.936854 180.202247 58.936854 
Q 180.311461 58.936854 180.311461 58.82764 
" clip-path="url(#p6b15d4b6a6)" style="fill: none; stroke: #000000; stroke-linejoin: miter"/>
   </g>
  </g>
  <g id="axes_13">
   <g id="patch_13">
    <path d="M 201.787697 39.981352 
Q 202.799917 40.956083 203.137324 42.905545 
Q 203.324772 43.955255 202.912386 46.167145 
L 201.675228 47.629241 
" clip-path="url(#p4163b0dac8)" style="fill: none; stroke: #000000; stroke-linejoin: miter"/>
   </g>
  </g>
  <g id="axes_14"/>
  <g id="axes_15">
   <g id="patch_14">
    <path d="M 230.063834 37.95691 
L 230.738648 37.95691 
Q 231.450952 37.95691 232.238234 37.881931 
Q 233.025517 37.806952 233.981503 37.675738 
Q 234.93749 37.544524 235.462345 37.507034 
L 239.736166 35.82 
M 235.687283 30.42149 
L 235.687283 31.43371 
Q 235.687283 33.383172 235.012469 37.207117 
Q 234.337655 41.031062 234.337655 43.018014 
Q 234.337655 43.805297 234.337655 44.105214 
Q 234.337655 44.405131 234.431379 45.042455 
Q 234.525103 45.679779 234.712552 45.960952 
Q 234.9 46.242124 235.293641 46.485807 
Q 235.687283 46.72949 236.249628 46.72949 
Q 236.362097 46.692 236.680759 46.72949 
Q 236.999421 46.766979 237.186869 46.710745 
Q 237.374317 46.65451 237.374317 46.392083 
" clip-path="url(#pd13a29ab3d)" style="fill: none; stroke: #000000; stroke-linejoin: miter"/>
   </g>
  </g>
  <g id="axes_16">
   <g id="patch_15">
    <path d="M 247.613462 35.932469 
Q 248.213297 35.257655 249.206772 34.826524 
Q 250.200248 34.395393 251.1 34.470372 
Q 251.737324 34.470372 252.22469 34.639076 
Q 252.712055 34.807779 253.030717 34.995228 
Q 253.349379 35.182676 253.574317 35.670041 
Q 253.799255 36.157407 253.911724 36.419834 
Q 254.024193 36.682262 254.080428 37.375821 
Q 254.136662 38.069379 254.155407 38.331807 
Q 254.174152 38.594234 254.155407 39.419007 
Q 254.136662 40.243779 254.136662 40.431228 
Q 254.136662 41.368469 253.967959 43.242952 
Q 253.799255 45.117434 253.799255 46.054676 
Q 253.799255 46.467062 253.85549 46.823214 
Q 253.911724 47.179366 254.005448 47.610497 
Q 254.099172 48.041628 254.136662 48.304055 
L 254.586538 48.528993 
M 248.063338 23.111007 
Q 248.288276 24.798041 248.288276 29.971614 
L 248.288276 42.3432 
L 247.950869 46.841959 
L 247.725931 47.74171 
" clip-path="url(#pa9932e15cc)" style="fill: none; stroke: #000000; stroke-linejoin: miter"/>
   </g>
  </g>
  <g id="axes_17">
   <g id="patch_16">
    <path d="M 261.057798 38.160826 
Q 264.030275 39.535596 268.749083 39.721376 
Q 270.272477 39.721376 270.959862 38.550963 
Q 271.647248 37.38055 271.647248 35.82 
Q 271.647248 35.299817 271.554358 34.909679 
Q 271.461468 34.519541 271.219954 34.296606 
Q 270.97844 34.07367 270.811239 33.943624 
Q 270.644037 33.813578 270.198165 33.757844 
Q 269.752294 33.70211 269.547936 33.683532 
Q 269.343578 33.664954 268.767661 33.683532 
Q 268.191743 33.70211 267.968807 33.70211 
Q 265.925229 33.70211 264.438991 35.578486 
Q 262.952752 37.454862 262.952752 39.609908 
Q 262.952752 42.619541 264.884862 44.570229 
Q 266.816972 46.520917 269.863761 46.520917 
Q 272.018807 46.818165 273.542202 44.29156 
" clip-path="url(#p3b398b6f09)" style="fill: none; stroke: #000000; stroke-linejoin: miter"/>
   </g>
  </g>
  <g id="axes_18"/>
  <g id="axes_19">
   <g id="patch_17">
    <path d="M 304.487191 39.096404 
Q 304.23236 39.023596 303.26764 38.623146 
Q 302.302921 38.222697 301.64764 38.077079 
Q 300.99236 37.931461 300.337079 38.00427 
Q 297.715955 38.00427 296.077753 40.388764 
Q 294.439551 42.773258 294.439551 45.430787 
Q 294.439551 47.068989 299.681798 47.068989 
Q 301.247191 47.068989 302.575955 45.558202 
Q 303.904719 44.047416 304.578202 42.172584 
Q 305.251685 40.297753 305.251685 38.768764 
Q 305.251685 37.27618 305.215281 36.984944 
L 305.142472 38.077079 
Q 305.142472 38.550337 305.142472 38.987191 
Q 305.178876 40.188539 305.379101 42.281798 
Q 305.579326 44.375056 305.743146 46.049663 
Q 305.906966 47.72427 305.943371 49.872135 
Q 305.979775 52.02 305.815955 53.658202 
Q 305.652135 55.296404 305.087865 56.971011 
Q 304.523596 58.645618 303.595281 59.737753 
Q 302.666966 60.829888 301.065169 61.521573 
Q 299.463371 62.213258 297.315506 62.213258 
Q 295.677303 62.213258 294.585169 61.466966 
Q 293.493034 60.720674 293.493034 59.155281 
Q 293.420225 58.936854 293.456629 58.936854 
Q 293.493034 58.936854 293.602247 58.936854 
Q 293.711461 58.936854 293.711461 58.82764 
" clip-path="url(#p4b89dd510f)" style="fill: none; stroke: #000000; stroke-linejoin: miter"/>
   </g>
  </g>
  <g id="axes_20">
   <g id="patch_18">
    <path d="M 312.413462 32.783338 
Q 312.938317 34.507862 313.069531 36.457324 
Q 313.200745 38.406786 313.125766 40.956083 
Q 313.050786 43.505379 313.088276 44.705048 
L 313.200745 46.054676 
L 313.200745 45.829738 
Q 313.200745 44.667559 312.919572 42.30571 
Q 312.6384 39.943862 312.6384 38.744193 
Q 312.6384 36.419834 313.650621 34.882759 
Q 314.662841 33.345683 316.687283 33.345683 
Q 317.399586 33.345683 317.736993 33.626855 
Q 318.0744 33.908028 318.336828 34.432883 
Q 318.599255 34.957738 318.936662 35.257655 
L 319.386538 36.832221 
" clip-path="url(#pc79967daa8)" style="fill: none; stroke: #000000; stroke-linejoin: miter"/>
   </g>
  </g>
  <g id="axes_21">
   <g id="patch_19">
    <path d="M 325.857798 38.160826 
Q 328.830275 39.535596 333.549083 39.721376 
Q 335.072477 39.721376 335.759862 38.550963 
Q 336.447248 37.38055 336.447248 35.82 
Q 336.447248 35.299817 336.354358 34.909679 
Q 336.261468 34.519541 336.019954 34.296606 
Q 335.77844 34.07367 335.611239 33.943624 
Q 335.444037 33.813578 334.998165 33.757844 
Q 334.552294 33.70211 334.347936 33.683532 
Q 334.143578 33.664954 333.567661 33.683532 
Q 332.991743 33.70211 332.768807 33.70211 
Q 330.725229 33.70211 329.238991 35.578486 
Q 327.752752 37.454862 327.752752 39.609908 
Q 327.752752 42.619541 329.684862 44.570229 
Q 331.616972 46.520917 334.663761 46.520917 
Q 336.818807 46.818165 338.342202 44.29156 
" clip-path="url(#pc3ee054e6d)" style="fill: none; stroke: #000000; stroke-linejoin: miter"/>
   </g>
  </g>
  <g id="axes_22">
   <g id="patch_20">
    <path d="M 343.163917 36.382345 
Q 343.126428 36.494814 343.257641 36.701007 
Q 343.388855 36.9072 343.276386 37.057159 
L 343.276386 39.306538 
Q 343.276386 40.506207 343.613793 41.724621 
Q 343.9512 42.943034 344.813462 43.93651 
Q 345.675724 44.929986 346.875393 44.929986 
Q 348.112552 44.929986 348.787366 43.861531 
Q 349.462179 42.793076 349.912055 41.143531 
Q 350.361931 39.493986 350.699338 38.969131 
L 351.486621 36.382345 
L 351.261683 42.680607 
L 351.261683 45.154924 
Q 351.261683 47.066897 351.992731 51.00331 
Q 352.723779 54.939724 352.723779 56.964166 
Q 353.473572 59.213545 352.386372 60.188276 
Q 351.299172 61.163007 349.237241 60.78811 
Q 347.437738 60.488193 346.519241 60.169531 
Q 345.600745 59.850869 343.613793 58.988607 
L 343.501324 58.426262 
" clip-path="url(#pce8ab901eb)" style="fill: none; stroke: #000000; stroke-linejoin: miter"/>
   </g>
  </g>
  <g id="axes_23"/>
  <g id="axes_24">
   <g id="patch_21">
    <path d="M 374.384141 38.85304 
L 374.812335 38.85304 
Q 375.63304 38.85304 376.596476 38.745991 
Q 377.559912 38.638943 378.719604 38.460529 
Q 379.879295 38.282115 380.485903 38.210749 
L 387.015859 35.427489 
M 386.694714 25.793128 
Q 386.409251 25.721762 385.374449 25.275727 
Q 384.339648 24.829692 383.697357 24.93674 
Q 383.055066 24.93674 382.537665 25.150837 
Q 382.020264 25.364934 381.681278 25.793128 
Q 381.342291 26.221322 381.07467 26.685198 
Q 380.807048 27.149075 380.664317 27.862731 
Q 380.521586 28.576388 380.414537 29.129471 
Q 380.307489 29.682555 380.289648 30.50326 
Q 380.271806 31.323965 380.253965 31.77 
Q 380.236123 32.216035 380.253965 32.965374 
Q 380.271806 33.714714 380.271806 33.928811 
Q 380.271806 36.605022 380.967621 41.850396 
Q 381.663436 47.095771 381.663436 49.771982 
Q 381.59207 50.057445 381.556388 50.681894 
Q 381.520705 51.306344 381.413656 51.805903 
Q 381.306608 52.305463 381.021145 52.555242 
" clip-path="url(#pc8792171e6)" style="fill: none; stroke: #000000; stroke-linejoin: miter"/>
   </g>
  </g>
  <g id="axes_25">
   <g id="patch_22">
    <path d="M 400.1616 35.032717 
Q 399.11189 34.582841 398.137159 34.69531 
Q 395.100497 35.032717 393.188524 36.701007 
Q 391.276552 38.369297 391.276552 41.330979 
Q 391.276552 43.917766 393.282248 45.6048 
Q 395.287945 47.291834 397.912221 47.291834 
Q 400.274069 47.291834 401.398759 45.361117 
Q 402.523448 43.4304 402.523448 40.881103 
Q 402.523448 39.643945 402.111062 38.706703 
Q 401.698676 37.769462 401.173821 37.300841 
Q 400.648966 36.832221 399.899172 36.119917 
Q 399.149379 35.407614 398.699503 34.69531 
L 397.462345 34.245434 
" clip-path="url(#pd5b6334675)" style="fill: none; stroke: #000000; stroke-linejoin: miter"/>
   </g>
  </g>
  <g id="axes_26">
   <g id="patch_23">
    <path d="M 417.887191 39.096404 
Q 417.63236 39.023596 416.66764 38.623146 
Q 415.702921 38.222697 415.04764 38.077079 
Q 414.39236 37.931461 413.737079 38.00427 
Q 411.115955 38.00427 409.477753 40.388764 
Q 407.839551 42.773258 407.839551 45.430787 
Q 407.839551 47.068989 413.081798 47.068989 
Q 414.647191 47.068989 415.975955 45.558202 
Q 417.304719 44.047416 417.978202 42.172584 
Q 418.651685 40.297753 418.651685 38.768764 
Q 418.651685 37.27618 418.615281 36.984944 
L 418.542472 38.077079 
Q 418.542472 38.550337 418.542472 38.987191 
Q 418.578876 40.188539 418.779101 42.281798 
Q 418.979326 44.375056 419.143146 46.049663 
Q 419.306966 47.72427 419.343371 49.872135 
Q 419.379775 52.02 419.215955 53.658202 
Q 419.052135 55.296404 418.487865 56.971011 
Q 417.923596 58.645618 416.995281 59.737753 
Q 416.066966 60.829888 414.465169 61.521573 
Q 412.863371 62.213258 410.715506 62.213258 
Q 409.077303 62.213258 407.985169 61.466966 
Q 406.893034 60.720674 406.893034 59.155281 
Q 406.820225 58.936854 406.856629 58.936854 
Q 406.893034 58.936854 407.002247 58.936854 
Q 407.111461 58.936854 407.111461 58.82764 
" clip-path="url(#p194584eb6a)" style="fill: none; stroke: #000000; stroke-linejoin: miter"/>
   </g>
  </g>
  <g id="axes_27"/>
  <g id="axes_28">
   <g id="patch_24">
    <path d="M 450.287191 39.096404 
Q 450.03236 39.023596 449.06764 38.623146 
Q 448.102921 38.222697 447.44764 38.077079 
Q 446.79236 37.931461 446.137079 38.00427 
Q 443.515955 38.00427 441.877753 40.388764 
Q 440.239551 42.773258 440.239551 45.430787 
Q 440.239551 47.068989 445.481798 47.068989 
Q 447.047191 47.068989 448.375955 45.558202 
Q 449.704719 44.047416 450.378202 42.172584 
Q 451.051685 40.297753 451.051685 38.768764 
Q 451.051685 37.27618 451.015281 36.984944 
L 450.942472 38.077079 
Q 450.942472 38.550337 450.942472 38.987191 
Q 450.978876 40.188539 451.179101 42.281798 
Q 451.379326 44.375056 451.543146 46.049663 
Q 451.706966 47.72427 451.743371 49.872135 
Q 451.779775 52.02 451.615955 53.658202 
Q 451.452135 55.296404 450.887865 56.971011 
Q 450.323596 58.645618 449.395281 59.737753 
Q 448.466966 60.829888 446.865169 61.521573 
Q 445.263371 62.213258 443.115506 62.213258 
Q 441.477303 62.213258 440.385169 61.466966 
Q 439.293034 60.720674 439.293034 59.155281 
Q 439.220225 58.936854 439.256629 58.936854 
Q 439.293034 58.936854 439.402247 58.936854 
Q 439.511461 58.936854 439.511461 58.82764 
" clip-path="url(#pe56887bf25)" style="fill: none; stroke: #000000; stroke-linejoin: miter"/>
   </g>
  </g>
  <g id="axes_29">
   <g id="patch_25">
    <path d="M 467.243923 36.441748 
Q 466.034968 35.094627 462.062687 35.094627 
Q 460.542857 35.094627 459.765672 35.146439 
Q 458.988486 35.198252 457.98678 35.440043 
Q 456.985075 35.681834 456.501493 36.182687 
Q 456.01791 36.683539 455.672495 37.616162 
Q 455.327079 38.548785 455.327079 39.964989 
Q 455.327079 42.037484 456.743284 43.280981 
Q 458.159488 44.524478 460.093817 44.524478 
Q 462.753518 44.524478 465.516844 38.721493 
Q 466.863966 35.854542 466.863966 35.82 
Q 467.209382 35.578209 467.243923 36.441748 
Q 467.243923 37.512537 467.658422 40.362217 
Q 468.072921 43.211898 468.072921 44.524478 
" clip-path="url(#paa425a9d87)" style="fill: none; stroke: #000000; stroke-linejoin: miter"/>
   </g>
  </g>
  <g id="axes_30">
   <g id="patch_26">
    <path d="M 473.626179 34.807779 
Q 475.238234 36.719752 476.531628 39.6252 
Q 477.825021 42.530648 478.124938 45.154924 
Q 479.174648 43.655338 480.093145 38.819172 
Q 481.011641 33.983007 482.173821 32.108524 
" clip-path="url(#p4051597cfd)" style="fill: none; stroke: #000000; stroke-linejoin: miter"/>
   </g>
  </g>
  <g id="axes_31">
   <g id="patch_27">
    <path d="M 487.857798 38.160826 
Q 490.830275 39.535596 495.549083 39.721376 
Q 497.072477 39.721376 497.759862 38.550963 
Q 498.447248 37.38055 498.447248 35.82 
Q 498.447248 35.299817 498.354358 34.909679 
Q 498.261468 34.519541 498.019954 34.296606 
Q 497.77844 34.07367 497.611239 33.943624 
Q 497.444037 33.813578 496.998165 33.757844 
Q 496.552294 33.70211 496.347936 33.683532 
Q 496.143578 33.664954 495.567661 33.683532 
Q 494.991743 33.70211 494.768807 33.70211 
Q 492.725229 33.70211 491.238991 35.578486 
Q 489.752752 37.454862 489.752752 39.609908 
Q 489.752752 42.619541 491.684862 44.570229 
Q 493.616972 46.520917 496.663761 46.520917 
Q 498.818807 46.818165 500.342202 44.29156 
" clip-path="url(#p68ae7929c1)" style="fill: none; stroke: #000000; stroke-linejoin: miter"/>
   </g>
  </g>
  <g id="axes_32"/>
  <g id="axes_33">
   <g id="patch_28">
    <path d="M 520.116102 36.437797 
L 521.351695 44.778051 
Q 521.454661 45.567458 521.454661 45.60178 
Q 521.454661 45.704746 521.763559 45.704746 
Q 522.62161 45.704746 523.342373 44.778051 
Q 524.063136 43.851356 524.475 42.718729 
Q 524.886864 41.586102 525.401695 40.659407 
Q 525.916525 39.732712 526.397034 39.732712 
Q 527.014831 39.732712 527.649788 40.607924 
Q 528.284746 41.483136 528.748093 42.512797 
Q 529.211441 43.542458 529.88072 44.417669 
Q 530.55 45.292881 531.236441 45.292881 
Q 531.511017 43.782712 531.940042 39.69839 
Q 532.369068 35.614068 532.883898 33.554746 
" clip-path="url(#pd921c3c01d)" style="fill: none; stroke: #000000; stroke-linejoin: miter"/>
   </g>
  </g>
  <g id="axes_34">
   <g id="patch_29">
    <path d="M 548.243923 36.441748 
Q 547.034968 35.094627 543.062687 35.094627 
Q 541.542857 35.094627 540.765672 35.146439 
Q 539.988486 35.198252 538.98678 35.440043 
Q 537.985075 35.681834 537.501493 36.182687 
Q 537.01791 36.683539 536.672495 37.616162 
Q 536.327079 38.548785 536.327079 39.964989 
Q 536.327079 42.037484 537.743284 43.280981 
Q 539.159488 44.524478 541.093817 44.524478 
Q 543.753518 44.524478 546.516844 38.721493 
Q 547.863966 35.854542 547.863966 35.82 
Q 548.209382 35.578209 548.243923 36.441748 
Q 548.243923 37.512537 548.658422 40.362217 
Q 549.072921 43.211898 549.072921 44.524478 
" clip-path="url(#p42c5c3401b)" style="fill: none; stroke: #000000; stroke-linejoin: miter"/>
   </g>
  </g>
  <g id="axes_35">
   <g id="patch_30">
    <path d="M 553.763917 36.382345 
Q 553.726428 36.494814 553.857641 36.701007 
Q 553.988855 36.9072 553.876386 37.057159 
L 553.876386 39.306538 
Q 553.876386 40.506207 554.213793 41.724621 
Q 554.5512 42.943034 555.413462 43.93651 
Q 556.275724 44.929986 557.475393 44.929986 
Q 558.712552 44.929986 559.387366 43.861531 
Q 560.062179 42.793076 560.512055 41.143531 
Q 560.961931 39.493986 561.299338 38.969131 
L 562.086621 36.382345 
L 561.861683 42.680607 
L 561.861683 45.154924 
Q 561.861683 47.066897 562.592731 51.00331 
Q 563.323779 54.939724 563.323779 56.964166 
Q 564.073572 59.213545 562.986372 60.188276 
Q 561.899172 61.163007 559.837241 60.78811 
Q 558.037738 60.488193 557.119241 60.169531 
Q 556.200745 59.850869 554.213793 58.988607 
L 554.101324 58.426262 
" clip-path="url(#p367484895e)" style="fill: none; stroke: #000000; stroke-linejoin: miter"/>
   </g>
  </g>
  <g id="axes_36"/>
  <g id="axes_37">
   <g id="patch_31">
    <path d="M 586.463834 37.95691 
L 587.138648 37.95691 
Q 587.850952 37.95691 588.638234 37.881931 
Q 589.425517 37.806952 590.381503 37.675738 
Q 591.33749 37.544524 591.862345 37.507034 
L 596.136166 35.82 
M 592.087283 30.42149 
L 592.087283 31.43371 
Q 592.087283 33.383172 591.412469 37.207117 
Q 590.737655 41.031062 590.737655 43.018014 
Q 590.737655 43.805297 590.737655 44.105214 
Q 590.737655 44.405131 590.831379 45.042455 
Q 590.925103 45.679779 591.112552 45.960952 
Q 591.3 46.242124 591.693641 46.485807 
Q 592.087283 46.72949 592.649628 46.72949 
Q 592.762097 46.692 593.080759 46.72949 
Q 593.399421 46.766979 593.586869 46.710745 
Q 593.774317 46.65451 593.774317 46.392083 
" clip-path="url(#pe00e0c0a7e)" style="fill: none; stroke: #000000; stroke-linejoin: miter"/>
   </g>
  </g>
  <g id="axes_38">
   <g id="patch_32">
    <path d="M 610.7616 35.032717 
Q 609.71189 34.582841 608.737159 34.69531 
Q 605.700497 35.032717 603.788524 36.701007 
Q 601.876552 38.369297 601.876552 41.330979 
Q 601.876552 43.917766 603.882248 45.6048 
Q 605.887945 47.291834 608.512221 47.291834 
Q 610.874069 47.291834 611.998759 45.361117 
Q 613.123448 43.4304 613.123448 40.881103 
Q 613.123448 39.643945 612.711062 38.706703 
Q 612.298676 37.769462 611.773821 37.300841 
Q 611.248966 36.832221 610.499172 36.119917 
Q 609.749379 35.407614 609.299503 34.69531 
L 608.062345 34.245434 
" clip-path="url(#pfaa43fe588)" style="fill: none; stroke: #000000; stroke-linejoin: miter"/>
   </g>
  </g>
  <g id="axes_39"/>
  <g id="axes_40">
   <g id="patch_33">
    <path d="M 645.443923 36.441748 
Q 644.234968 35.094627 640.262687 35.094627 
Q 638.742857 35.094627 637.965672 35.146439 
Q 637.188486 35.198252 636.18678 35.440043 
Q 635.185075 35.681834 634.701493 36.182687 
Q 634.21791 36.683539 633.872495 37.616162 
Q 633.527079 38.548785 633.527079 39.964989 
Q 633.527079 42.037484 634.943284 43.280981 
Q 636.359488 44.524478 638.293817 44.524478 
Q 640.953518 44.524478 643.716844 38.721493 
Q 645.063966 35.854542 645.063966 35.82 
Q 645.409382 35.578209 645.443923 36.441748 
Q 645.443923 37.512537 645.858422 40.362217 
Q 646.272921 43.211898 646.272921 44.524478 
" clip-path="url(#p052a97ac0b)" style="fill: none; stroke: #000000; stroke-linejoin: miter"/>
   </g>
  </g>
  <g id="axes_41"/>
  <g id="axes_42">
   <g id="patch_34">
    <path d="M 667.838731 37.282097 
L 667.838731 37.844441 
Q 668.101159 39.868883 668.138648 41.312234 
Q 668.176138 42.755586 668.082414 44.667559 
Q 667.98869 46.579531 667.98869 48.191586 
L 668.063669 39.643945 
Q 668.063669 38.144359 669.656979 37.507034 
Q 671.25029 36.86971 672.674897 37.282097 
Q 674.586869 37.844441 675.505366 39.04411 
Q 676.423862 40.243779 676.480097 41.668386 
Q 676.536331 43.092993 676.573821 44.817517 
Q 676.61131 46.542041 676.761269 48.191586 
" clip-path="url(#pcbd622b1a4)" style="fill: none; stroke: #000000; stroke-linejoin: miter"/>
   </g>
  </g>
  <g id="axes_43">
   <g id="patch_35">
    <path d="M 689.118579 29.071862 
Q 688.743683 29.146841 688.612469 29.577972 
Q 688.481255 30.009103 688.556234 30.42149 
Q 688.556234 30.571448 688.593724 30.702662 
Q 688.631214 30.833876 688.687448 30.89011 
Q 688.743683 30.946345 688.799917 31.040069 
Q 688.856152 31.133793 688.893641 31.208772 
L 689.00611 29.859145 
M 689.00611 34.020497 
Q 688.106359 39.006621 687.881421 42.793076 
L 688.331297 45.379862 
L 688.668703 46.054676 
" clip-path="url(#p2bfb0063c7)" style="fill: none; stroke: #000000; stroke-linejoin: miter"/>
   </g>
  </g>
  <g id="axes_44">
   <g id="patch_36">
    <path d="M 709.487191 39.096404 
Q 709.23236 39.023596 708.26764 38.623146 
Q 707.302921 38.222697 706.64764 38.077079 
Q 705.99236 37.931461 705.337079 38.00427 
Q 702.715955 38.00427 701.077753 40.388764 
Q 699.439551 42.773258 699.439551 45.430787 
Q 699.439551 47.068989 704.681798 47.068989 
Q 706.247191 47.068989 707.575955 45.558202 
Q 708.904719 44.047416 709.578202 42.172584 
Q 710.251685 40.297753 710.251685 38.768764 
Q 710.251685 37.27618 710.215281 36.984944 
L 710.142472 38.077079 
Q 710.142472 38.550337 710.142472 38.987191 
Q 710.178876 40.188539 710.379101 42.281798 
Q 710.579326 44.375056 710.743146 46.049663 
Q 710.906966 47.72427 710.943371 49.872135 
Q 710.979775 52.02 710.815955 53.658202 
Q 710.652135 55.296404 710.087865 56.971011 
Q 709.523596 58.645618 708.595281 59.737753 
Q 707.666966 60.829888 706.065169 61.521573 
Q 704.463371 62.213258 702.315506 62.213258 
Q 700.677303 62.213258 699.585169 61.466966 
Q 698.493034 60.720674 698.493034 59.155281 
Q 698.420225 58.936854 698.456629 58.936854 
Q 698.493034 58.936854 698.602247 58.936854 
Q 698.711461 58.936854 698.711461 58.82764 
" clip-path="url(#p88a5f56321)" style="fill: none; stroke: #000000; stroke-linejoin: miter"/>
   </g>
  </g>
  <g id="axes_45">
   <g id="patch_37">
    <path d="M 717.413462 35.932469 
Q 718.013297 35.257655 719.006772 34.826524 
Q 720.000248 34.395393 720.9 34.470372 
Q 721.537324 34.470372 722.02469 34.639076 
Q 722.512055 34.807779 722.830717 34.995228 
Q 723.149379 35.182676 723.374317 35.670041 
Q 723.599255 36.157407 723.711724 36.419834 
Q 723.824193 36.682262 723.880428 37.375821 
Q 723.936662 38.069379 723.955407 38.331807 
Q 723.974152 38.594234 723.955407 39.419007 
Q 723.936662 40.243779 723.936662 40.431228 
Q 723.936662 41.368469 723.767959 43.242952 
Q 723.599255 45.117434 723.599255 46.054676 
Q 723.599255 46.467062 723.65549 46.823214 
Q 723.711724 47.179366 723.805448 47.610497 
Q 723.899172 48.041628 723.936662 48.304055 
L 724.386538 48.528993 
M 717.863338 23.111007 
Q 718.088276 24.798041 718.088276 29.971614 
L 718.088276 42.3432 
L 717.750869 46.841959 
L 717.525931 47.74171 
" clip-path="url(#p32d8a2c29e)" style="fill: none; stroke: #000000; stroke-linejoin: miter"/>
   </g>
  </g>
  <g id="axes_46">
   <g id="patch_38">
    <path d="M 732.263834 37.95691 
L 732.938648 37.95691 
Q 733.650952 37.95691 734.438234 37.881931 
Q 735.225517 37.806952 736.181503 37.675738 
Q 737.13749 37.544524 737.662345 37.507034 
L 741.936166 35.82 
M 737.887283 30.42149 
L 737.887283 31.43371 
Q 737.887283 33.383172 737.212469 37.207117 
Q 736.537655 41.031062 736.537655 43.018014 
Q 736.537655 43.805297 736.537655 44.105214 
Q 736.537655 44.405131 736.631379 45.042455 
Q 736.725103 45.679779 736.912552 45.960952 
Q 737.1 46.242124 737.493641 46.485807 
Q 737.887283 46.72949 738.449628 46.72949 
Q 738.562097 46.692 738.880759 46.72949 
Q 739.199421 46.766979 739.386869 46.710745 
Q 739.574317 46.65451 739.574317 46.392083 
" clip-path="url(#p3ccf900ad3)" style="fill: none; stroke: #000000; stroke-linejoin: miter"/>
   </g>
  </g>
 </g>
 <defs>
  <clipPath id="p36c3779094">
   <rect x="0" y="20.054899" width="16.2" height="31.530201"/>
  </clipPath>
  <clipPath id="p35de5760b9">
   <rect x="18.938979" y="8.64" width="10.722041" height="54.36"/>
  </clipPath>
  <clipPath id="pb8f7719598">
   <rect x="32.4" y="10.777356" width="16.2" height="50.085288"/>
  </clipPath>
  <clipPath id="pdeeada5153">
   <rect x="49.989352" y="8.64" width="13.421297" height="54.36"/>
  </clipPath>
  <clipPath id="p44ebf1b5a8">
   <rect x="81" y="8.881927" width="16.2" height="53.876147"/>
  </clipPath>
  <clipPath id="p5758eebe1e">
   <rect x="99.151697" y="8.64" width="12.296607" height="54.36"/>
  </clipPath>
  <clipPath id="pb7bd887cec">
   <rect x="113.4" y="8.881927" width="16.2" height="53.876147"/>
  </clipPath>
  <clipPath id="p93ae4425a4">
   <rect x="131.364248" y="8.64" width="12.671503" height="54.36"/>
  </clipPath>
  <clipPath id="p24b31bcc60">
   <rect x="151.406938" y="8.64" width="4.986124" height="54.36"/>
  </clipPath>
  <clipPath id="p800f4b1f7a">
   <rect x="163.764248" y="8.64" width="12.671503" height="54.36"/>
  </clipPath>
  <clipPath id="p6b15d4b6a6">
   <rect x="178.2" y="9.426742" width="16.2" height="52.786517"/>
  </clipPath>
  <clipPath id="p4163b0dac8">
   <rect x="199.800745" y="8.64" width="5.39851" height="54.36"/>
  </clipPath>
  <clipPath id="pd13a29ab3d">
   <rect x="228.189352" y="8.64" width="13.421297" height="54.36"/>
  </clipPath>
  <clipPath id="pa9932e15cc">
   <rect x="245.738979" y="8.64" width="10.722041" height="54.36"/>
  </clipPath>
  <clipPath id="p3b398b6f09">
   <rect x="259.2" y="8.881927" width="16.2" height="53.876147"/>
  </clipPath>
  <clipPath id="p4b89dd510f">
   <rect x="291.6" y="9.426742" width="16.2" height="52.786517"/>
  </clipPath>
  <clipPath id="pc79967daa8">
   <rect x="310.538979" y="8.64" width="10.722041" height="54.36"/>
  </clipPath>
  <clipPath id="pc3ee054e6d">
   <rect x="324" y="8.881927" width="16.2" height="53.876147"/>
  </clipPath>
  <clipPath id="pce8ab901eb">
   <rect x="341.251945" y="8.64" width="14.09611" height="54.36"/>
  </clipPath>
  <clipPath id="pc8792171e6">
   <rect x="372.6" y="9.949956" width="16.2" height="51.740088"/>
  </clipPath>
  <clipPath id="pd5b6334675">
   <rect x="389.402069" y="8.64" width="14.995862" height="54.36"/>
  </clipPath>
  <clipPath id="p194584eb6a">
   <rect x="405" y="9.426742" width="16.2" height="52.786517"/>
  </clipPath>
  <clipPath id="pe56887bf25">
   <rect x="437.4" y="9.426742" width="16.2" height="52.786517"/>
  </clipPath>
  <clipPath id="paa425a9d87">
   <rect x="453.6" y="10.777356" width="16.2" height="50.085288"/>
  </clipPath>
  <clipPath id="p4051597cfd">
   <rect x="471.751697" y="8.64" width="12.296607" height="54.36"/>
  </clipPath>
  <clipPath id="p68ae7929c1">
   <rect x="486" y="8.881927" width="16.2" height="53.876147"/>
  </clipPath>
  <clipPath id="pd921c3c01d">
   <rect x="518.4" y="10.936525" width="16.2" height="49.766949"/>
  </clipPath>
  <clipPath id="p42c5c3401b">
   <rect x="534.6" y="10.777356" width="16.2" height="50.085288"/>
  </clipPath>
  <clipPath id="p367484895e">
   <rect x="551.851945" y="8.64" width="14.09611" height="54.36"/>
  </clipPath>
  <clipPath id="pe00e0c0a7e">
   <rect x="584.589352" y="8.64" width="13.421297" height="54.36"/>
  </clipPath>
  <clipPath id="pfaa43fe588">
   <rect x="600.002069" y="8.64" width="14.995862" height="54.36"/>
  </clipPath>
  <clipPath id="p052a97ac0b">
   <rect x="631.8" y="10.777356" width="16.2" height="50.085288"/>
  </clipPath>
  <clipPath id="pcbd622b1a4">
   <rect x="665.964248" y="8.64" width="12.671503" height="54.36"/>
  </clipPath>
  <clipPath id="p2bfb0063c7">
   <rect x="686.006938" y="8.64" width="4.986124" height="54.36"/>
  </clipPath>
  <clipPath id="p88a5f56321">
   <rect x="696.6" y="9.426742" width="16.2" height="52.786517"/>
  </clipPath>
  <clipPath id="p32d8a2c29e">
   <rect x="715.538979" y="8.64" width="10.722041" height="54.36"/>
  </clipPath>
  <clipPath id="p3ccf900ad3">
   <rect x="730.389352" y="8.64" width="13.421297" height="54.36"/>
  </clipPath>
 </defs>
</svg>
