<?xml version="1.0" encoding="utf-8" standalone="no"?>
<!DOCTYPE svg PUBLIC "-//W3C//DTD SVG 1.1//EN"
  "http://www.w3.org/Graphics/SVG/1.1/DTD/svg11.dtd">
<svg xmlns:xlink="http://www.w3.org/1999/xlink" width="900pt" height="72pt" viewBox="0 0 900 72" xmlns="http://www.w3.org/2000/svg" version="1.1">
 <metadata>
  <rdf:RDF xmlns:dc="http://purl.org/dc/elements/1.1/" xmlns:cc="http://creativecommons.org/ns#" xmlns:rdf="http://www.w3.org/1999/02/22-rdf-syntax-ns#">
   <cc:Work>
    <dc:type rdf:resource="http://purl.org/dc/dcmitype/StillImage"/>
    <dc:date>2023-12-21T12:06:23.237552</dc:date>
    <dc:format>image/svg+xml</dc:format>
    <dc:creator>
     <cc:Agent>
      <dc:title>Matplotlib v3.5.1, https://matplotlib.org/</dc:title>
     </cc:Agent>
    </dc:creator>
   </cc:Work>
  </rdf:RDF>
 </metadata>
 <defs>
  <style type="text/css">*{stroke-linejoin: round; stroke-linecap: butt}</style>
 </defs>
 <g id="figure_1">
  <g id="patch_1">
   <path d="M 0 72 
L 900 72 
L 900 0 
L 0 0 
z
" style="fill: #8fff9f"/>
  </g>
  <g id="axes_1">
   <g id="patch_2">
    <path d="M 4.613462 35.932469 
Q 5.213297 35.257655 6.206772 34.826524 
Q 7.200248 34.395393 8.1 34.470372 
Q 8.737324 34.470372 9.22469 34.639076 
Q 9.712055 34.807779 10.030717 34.995228 
Q 10.349379 35.182676 10.574317 35.670041 
Q 10.799255 36.157407 10.911724 36.419834 
Q 11.024193 36.682262 11.080428 37.375821 
Q 11.136662 38.069379 11.155407 38.331807 
Q 11.174152 38.594234 11.155407 39.419007 
Q 11.136662 40.243779 11.136662 40.431228 
Q 11.136662 41.368469 10.967959 43.242952 
Q 10.799255 45.117434 10.799255 46.054676 
Q 10.799255 46.467062 10.85549 46.823214 
Q 10.911724 47.179366 11.005448 47.610497 
Q 11.099172 48.041628 11.136662 48.304055 
L 11.586538 48.528993 
M 5.063338 23.111007 
Q 5.288276 24.798041 5.288276 29.971614 
L 5.288276 42.3432 
L 4.950869 46.841959 
L 4.725931 47.74171 
" clip-path="url(#p2588a7acea)" style="fill: none; stroke: #000000; stroke-linejoin: miter"/>
   </g>
  </g>
  <g id="axes_2">
   <g id="patch_3">
    <path d="M 29.843923 36.441748 
Q 28.634968 35.094627 24.662687 35.094627 
Q 23.142857 35.094627 22.365672 35.146439 
Q 21.588486 35.198252 20.58678 35.440043 
Q 19.585075 35.681834 19.101493 36.182687 
Q 18.61791 36.683539 18.272495 37.616162 
Q 17.927079 38.548785 17.927079 39.964989 
Q 17.927079 42.037484 19.343284 43.280981 
Q 20.759488 44.524478 22.693817 44.524478 
Q 25.353518 44.524478 28.116844 38.721493 
Q 29.463966 35.854542 29.463966 35.82 
Q 29.809382 35.578209 29.843923 36.441748 
Q 29.843923 37.512537 30.258422 40.362217 
Q 30.672921 43.211898 30.672921 44.524478 
" clip-path="url(#p258bfb2b6f)" style="fill: none; stroke: #000000; stroke-linejoin: miter"/>
   </g>
  </g>
  <g id="axes_3">
   <g id="patch_4">
    <path d="M 36.057476 43.917766 
Q 36.357393 44.180193 37.369614 45.154924 
Q 38.381834 46.129655 38.944179 46.560786 
Q 39.506524 46.991917 40.53749 47.385559 
Q 41.568455 47.7792 42.580676 47.629241 
Q 43.25549 47.629241 43.72411 47.404303 
Q 44.192731 47.179366 44.417669 46.879448 
Q 44.642607 46.579531 44.773821 45.979697 
Q 44.905034 45.379862 44.923779 44.967476 
Q 44.942524 44.55509 44.942524 43.805297 
Q 44.942524 42.718097 44.042772 42.043283 
Q 43.143021 41.368469 41.849628 41.031062 
Q 40.556234 40.693655 39.262841 40.300014 
Q 37.969448 39.906372 37.069697 38.987876 
Q 36.169945 38.069379 36.169945 36.607283 
Q 36.169945 36.082428 36.338648 35.726276 
Q 36.507352 35.370124 36.900993 35.145186 
Q 37.294634 34.920248 37.575807 34.807779 
Q 37.856979 34.69531 38.513048 34.639076 
Q 39.169117 34.582841 39.356566 34.582841 
Q 39.544014 34.582841 40.218828 34.582841 
Q 41.418497 34.582841 41.999586 34.995228 
Q 42.580676 35.407614 42.899338 36.026193 
Q 43.218 36.644772 43.480428 36.832221 
" clip-path="url(#p0b57f8bb77)" style="fill: none; stroke: #000000; stroke-linejoin: miter"/>
   </g>
  </g>
  <g id="axes_4"/>
  <g id="axes_5">
   <g id="patch_5">
    <path d="M 78.443923 36.441748 
Q 77.234968 35.094627 73.262687 35.094627 
Q 71.742857 35.094627 70.965672 35.146439 
Q 70.188486 35.198252 69.18678 35.440043 
Q 68.185075 35.681834 67.701493 36.182687 
Q 67.21791 36.683539 66.872495 37.616162 
Q 66.527079 38.548785 66.527079 39.964989 
Q 66.527079 42.037484 67.943284 43.280981 
Q 69.359488 44.524478 71.293817 44.524478 
Q 73.953518 44.524478 76.716844 38.721493 
Q 78.063966 35.854542 78.063966 35.82 
Q 78.409382 35.578209 78.443923 36.441748 
Q 78.443923 37.512537 78.858422 40.362217 
Q 79.272921 43.211898 79.272921 44.524478 
" clip-path="url(#p64db66366a)" style="fill: none; stroke: #000000; stroke-linejoin: miter"/>
   </g>
  </g>
  <g id="axes_6"/>
  <g id="axes_7">
   <g id="patch_6">
    <path d="M 110.556735 34.365306 
Q 110.556735 34.365306 110.060816 34.365306 
Q 109.267347 34.365306 107.779592 34.067755 
Q 106.291837 33.770204 105.498367 33.770204 
Q 102.721224 33.770204 100.787143 35.224898 
Q 98.853061 36.679592 98.853061 39.423673 
Q 98.853061 40.94449 100.340816 42.399184 
Q 101.828571 43.853878 103.762653 44.663878 
Q 105.696735 45.473878 107.18449 45.473878 
Q 108.110204 45.473878 108.80449 45.110204 
Q 109.498776 44.746531 110.242653 44.118367 
Q 110.986531 43.490204 111.548571 43.192653 
L 111.746939 42.696735 
" clip-path="url(#pc6b42c0d5a)" style="fill: none; stroke: #000000; stroke-linejoin: miter"/>
   </g>
  </g>
  <g id="axes_8">
   <g id="patch_7">
    <path d="M 127.043923 36.441748 
Q 125.834968 35.094627 121.862687 35.094627 
Q 120.342857 35.094627 119.565672 35.146439 
Q 118.788486 35.198252 117.78678 35.440043 
Q 116.785075 35.681834 116.301493 36.182687 
Q 115.81791 36.683539 115.472495 37.616162 
Q 115.127079 38.548785 115.127079 39.964989 
Q 115.127079 42.037484 116.543284 43.280981 
Q 117.959488 44.524478 119.893817 44.524478 
Q 122.553518 44.524478 125.316844 38.721493 
Q 126.663966 35.854542 126.663966 35.82 
Q 127.009382 35.578209 127.043923 36.441748 
Q 127.043923 37.512537 127.458422 40.362217 
Q 127.872921 43.211898 127.872921 44.524478 
" clip-path="url(#p98aa6165b6)" style="fill: none; stroke: #000000; stroke-linejoin: miter"/>
   </g>
  </g>
  <g id="axes_9">
   <g id="patch_8">
    <path d="M 134.213462 32.783338 
Q 134.738317 34.507862 134.869531 36.457324 
Q 135.000745 38.406786 134.925766 40.956083 
Q 134.850786 43.505379 134.888276 44.705048 
L 135.000745 46.054676 
L 135.000745 45.829738 
Q 135.000745 44.667559 134.719572 42.30571 
Q 134.4384 39.943862 134.4384 38.744193 
Q 134.4384 36.419834 135.450621 34.882759 
Q 136.462841 33.345683 138.487283 33.345683 
Q 139.199586 33.345683 139.536993 33.626855 
Q 139.8744 33.908028 140.136828 34.432883 
Q 140.399255 34.957738 140.736662 35.257655 
L 141.186538 36.832221 
" clip-path="url(#pb98ec9e8c6)" style="fill: none; stroke: #000000; stroke-linejoin: miter"/>
   </g>
  </g>
  <g id="axes_10">
   <g id="patch_9">
    <path d="M 149.063834 37.95691 
L 149.738648 37.95691 
Q 150.450952 37.95691 151.238234 37.881931 
Q 152.025517 37.806952 152.981503 37.675738 
Q 153.93749 37.544524 154.462345 37.507034 
L 158.736166 35.82 
M 154.687283 30.42149 
L 154.687283 31.43371 
Q 154.687283 33.383172 154.012469 37.207117 
Q 153.337655 41.031062 153.337655 43.018014 
Q 153.337655 43.805297 153.337655 44.105214 
Q 153.337655 44.405131 153.431379 45.042455 
Q 153.525103 45.679779 153.712552 45.960952 
Q 153.9 46.242124 154.293641 46.485807 
Q 154.687283 46.72949 155.249628 46.72949 
Q 155.362097 46.692 155.680759 46.72949 
Q 155.999421 46.766979 156.186869 46.710745 
Q 156.374317 46.65451 156.374317 46.392083 
" clip-path="url(#pda862f6acc)" style="fill: none; stroke: #000000; stroke-linejoin: miter"/>
   </g>
  </g>
  <g id="axes_11">
   <g id="patch_10">
    <path d="M 169.387697 39.981352 
Q 170.399917 40.956083 170.737324 42.905545 
Q 170.924772 43.955255 170.512386 46.167145 
L 169.275228 47.629241 
" clip-path="url(#pe28499dc1c)" style="fill: none; stroke: #000000; stroke-linejoin: miter"/>
   </g>
  </g>
  <g id="axes_12"/>
  <g id="axes_13">
   <g id="patch_11">
    <path d="M 208.043923 36.441748 
Q 206.834968 35.094627 202.862687 35.094627 
Q 201.342857 35.094627 200.565672 35.146439 
Q 199.788486 35.198252 198.78678 35.440043 
Q 197.785075 35.681834 197.301493 36.182687 
Q 196.81791 36.683539 196.472495 37.616162 
Q 196.127079 38.548785 196.127079 39.964989 
Q 196.127079 42.037484 197.543284 43.280981 
Q 198.959488 44.524478 200.893817 44.524478 
Q 203.553518 44.524478 206.316844 38.721493 
Q 207.663966 35.854542 207.663966 35.82 
Q 208.009382 35.578209 208.043923 36.441748 
Q 208.043923 37.512537 208.458422 40.362217 
Q 208.872921 43.211898 208.872921 44.524478 
" clip-path="url(#pd67689b7d7)" style="fill: none; stroke: #000000; stroke-linejoin: miter"/>
   </g>
  </g>
  <g id="axes_14">
   <g id="patch_12">
    <path d="M 214.238731 37.282097 
L 214.238731 37.844441 
Q 214.501159 39.868883 214.538648 41.312234 
Q 214.576138 42.755586 214.482414 44.667559 
Q 214.38869 46.579531 214.38869 48.191586 
L 214.463669 39.643945 
Q 214.463669 38.144359 216.056979 37.507034 
Q 217.65029 36.86971 219.074897 37.282097 
Q 220.986869 37.844441 221.905366 39.04411 
Q 222.823862 40.243779 222.880097 41.668386 
Q 222.936331 43.092993 222.973821 44.817517 
Q 223.01131 46.542041 223.161269 48.191586 
" clip-path="url(#p055814e290)" style="fill: none; stroke: #000000; stroke-linejoin: miter"/>
   </g>
  </g>
  <g id="axes_15">
   <g id="patch_13">
    <path d="M 238.499007 39.568966 
Q 237.149379 38.181848 234.9 38.444276 
Q 232.050786 38.444276 230.888607 39.793903 
Q 229.726428 41.143531 229.726428 44.067724 
Q 229.726428 45.56731 231.019821 46.279614 
Q 232.313214 46.991917 233.887779 46.991917 
Q 235.199917 46.991917 236.212138 45.736014 
Q 237.224359 44.48011 237.805448 42.30571 
Q 238.386538 40.13131 238.761434 37.938166 
Q 239.136331 35.745021 239.28629 33.045766 
Q 239.436248 30.34651 239.473738 28.978138 
Q 239.511228 27.609766 239.511228 26.185159 
Q 239.28629 26.260138 239.28629 29.896634 
L 239.28629 44.292662 
L 240.073572 48.229076 
" clip-path="url(#pcf3e62f5cd)" style="fill: none; stroke: #000000; stroke-linejoin: miter"/>
   </g>
  </g>
  <g id="axes_16"/>
  <g id="axes_17">
   <g id="patch_14">
    <path d="M 262.463834 37.95691 
L 263.138648 37.95691 
Q 263.850952 37.95691 264.638234 37.881931 
Q 265.425517 37.806952 266.381503 37.675738 
Q 267.33749 37.544524 267.862345 37.507034 
L 272.136166 35.82 
M 268.087283 30.42149 
L 268.087283 31.43371 
Q 268.087283 33.383172 267.412469 37.207117 
Q 266.737655 41.031062 266.737655 43.018014 
Q 266.737655 43.805297 266.737655 44.105214 
Q 266.737655 44.405131 266.831379 45.042455 
Q 266.925103 45.679779 267.112552 45.960952 
Q 267.3 46.242124 267.693641 46.485807 
Q 268.087283 46.72949 268.649628 46.72949 
Q 268.762097 46.692 269.080759 46.72949 
Q 269.399421 46.766979 269.586869 46.710745 
Q 269.774317 46.65451 269.774317 46.392083 
" clip-path="url(#p863ca8375b)" style="fill: none; stroke: #000000; stroke-linejoin: miter"/>
   </g>
  </g>
  <g id="axes_18">
   <g id="patch_15">
    <path d="M 280.013462 32.783338 
Q 280.538317 34.507862 280.669531 36.457324 
Q 280.800745 38.406786 280.725766 40.956083 
Q 280.650786 43.505379 280.688276 44.705048 
L 280.800745 46.054676 
L 280.800745 45.829738 
Q 280.800745 44.667559 280.519572 42.30571 
Q 280.2384 39.943862 280.2384 38.744193 
Q 280.2384 36.419834 281.250621 34.882759 
Q 282.262841 33.345683 284.287283 33.345683 
Q 284.999586 33.345683 285.336993 33.626855 
Q 285.6744 33.908028 285.936828 34.432883 
Q 286.199255 34.957738 286.536662 35.257655 
L 286.986538 36.832221 
" clip-path="url(#pd1f54d8b11)" style="fill: none; stroke: #000000; stroke-linejoin: miter"/>
   </g>
  </g>
  <g id="axes_19">
   <g id="patch_16">
    <path d="M 295.088772 35.145186 
Q 295.088772 35.145186 295.088772 35.595062 
Q 295.088772 36.269876 294.976303 37.619503 
Q 294.863834 38.969131 294.863834 39.643945 
Q 294.863834 41.930814 296.100993 43.599103 
Q 297.338152 45.267393 299.475062 45.267393 
Q 300.862179 45.154924 301.630717 43.917766 
Q 302.399255 42.680607 302.549214 41.237255 
Q 302.699172 39.793903 302.9616 37.9944 
Q 303.224028 36.194897 303.636414 35.370124 
Q 303.786372 35.070207 303.786372 35.670041 
Q 303.786372 36.269876 303.523945 38.706703 
Q 303.299007 41.031062 303.299007 41.555917 
Q 303.149048 42.643117 303.486455 43.767807 
Q 303.823862 44.892497 304.536166 45.6048 
" clip-path="url(#pbda53408d3)" style="fill: none; stroke: #000000; stroke-linejoin: miter"/>
   </g>
  </g>
  <g id="axes_20">
   <g id="patch_17">
    <path d="M 311.438731 37.282097 
L 311.438731 37.844441 
Q 311.701159 39.868883 311.738648 41.312234 
Q 311.776138 42.755586 311.682414 44.667559 
Q 311.58869 46.579531 311.58869 48.191586 
L 311.663669 39.643945 
Q 311.663669 38.144359 313.256979 37.507034 
Q 314.85029 36.86971 316.274897 37.282097 
Q 318.186869 37.844441 319.105366 39.04411 
Q 320.023862 40.243779 320.080097 41.668386 
Q 320.136331 43.092993 320.173821 44.817517 
Q 320.21131 46.542041 320.361269 48.191586 
" clip-path="url(#p842359454c)" style="fill: none; stroke: #000000; stroke-linejoin: miter"/>
   </g>
  </g>
  <g id="axes_21">
   <g id="patch_18">
    <path d="M 335.699007 39.568966 
Q 334.349379 38.181848 332.1 38.444276 
Q 329.250786 38.444276 328.088607 39.793903 
Q 326.926428 41.143531 326.926428 44.067724 
Q 326.926428 45.56731 328.219821 46.279614 
Q 329.513214 46.991917 331.087779 46.991917 
Q 332.399917 46.991917 333.412138 45.736014 
Q 334.424359 44.48011 335.005448 42.30571 
Q 335.586538 40.13131 335.961434 37.938166 
Q 336.336331 35.745021 336.48629 33.045766 
Q 336.636248 30.34651 336.673738 28.978138 
Q 336.711228 27.609766 336.711228 26.185159 
Q 336.48629 26.260138 336.48629 29.896634 
L 336.48629 44.292662 
L 337.273572 48.229076 
" clip-path="url(#p1659b1b2ff)" style="fill: none; stroke: #000000; stroke-linejoin: miter"/>
   </g>
  </g>
  <g id="axes_22">
   <g id="patch_19">
    <path d="M 347.906359 28.621986 
Q 348.131297 30.34651 348.206276 32.146014 
Q 348.281255 33.945517 348.26251 36.551048 
Q 348.243766 39.156579 348.243766 40.093821 
Q 348.243766 40.13131 348.468703 45.829738 
L 348.693641 46.841959 
" clip-path="url(#pa7b7c6389d)" style="fill: none; stroke: #000000; stroke-linejoin: miter"/>
   </g>
  </g>
  <g id="axes_23">
   <g id="patch_20">
    <path d="M 358.257798 38.160826 
Q 361.230275 39.535596 365.949083 39.721376 
Q 367.472477 39.721376 368.159862 38.550963 
Q 368.847248 37.38055 368.847248 35.82 
Q 368.847248 35.299817 368.754358 34.909679 
Q 368.661468 34.519541 368.419954 34.296606 
Q 368.17844 34.07367 368.011239 33.943624 
Q 367.844037 33.813578 367.398165 33.757844 
Q 366.952294 33.70211 366.747936 33.683532 
Q 366.543578 33.664954 365.967661 33.683532 
Q 365.391743 33.70211 365.168807 33.70211 
Q 363.125229 33.70211 361.638991 35.578486 
Q 360.152752 37.454862 360.152752 39.609908 
Q 360.152752 42.619541 362.084862 44.570229 
Q 364.016972 46.520917 367.063761 46.520917 
Q 369.218807 46.818165 370.742202 44.29156 
" clip-path="url(#pcfe2420794)" style="fill: none; stroke: #000000; stroke-linejoin: miter"/>
   </g>
  </g>
  <g id="axes_24">
   <g id="patch_21">
    <path d="M 377.213462 32.783338 
Q 377.738317 34.507862 377.869531 36.457324 
Q 378.000745 38.406786 377.925766 40.956083 
Q 377.850786 43.505379 377.888276 44.705048 
L 378.000745 46.054676 
L 378.000745 45.829738 
Q 378.000745 44.667559 377.719572 42.30571 
Q 377.4384 39.943862 377.4384 38.744193 
Q 377.4384 36.419834 378.450621 34.882759 
Q 379.462841 33.345683 381.487283 33.345683 
Q 382.199586 33.345683 382.536993 33.626855 
Q 382.8744 33.908028 383.136828 34.432883 
Q 383.399255 34.957738 383.736662 35.257655 
L 384.186538 36.832221 
" clip-path="url(#p39c0813348)" style="fill: none; stroke: #000000; stroke-linejoin: miter"/>
   </g>
  </g>
  <g id="axes_25">
   <g id="patch_22">
    <path d="M 392.457476 43.917766 
Q 392.757393 44.180193 393.769614 45.154924 
Q 394.781834 46.129655 395.344179 46.560786 
Q 395.906524 46.991917 396.93749 47.385559 
Q 397.968455 47.7792 398.980676 47.629241 
Q 399.65549 47.629241 400.12411 47.404303 
Q 400.592731 47.179366 400.817669 46.879448 
Q 401.042607 46.579531 401.173821 45.979697 
Q 401.305034 45.379862 401.323779 44.967476 
Q 401.342524 44.55509 401.342524 43.805297 
Q 401.342524 42.718097 400.442772 42.043283 
Q 399.543021 41.368469 398.249628 41.031062 
Q 396.956234 40.693655 395.662841 40.300014 
Q 394.369448 39.906372 393.469697 38.987876 
Q 392.569945 38.069379 392.569945 36.607283 
Q 392.569945 36.082428 392.738648 35.726276 
Q 392.907352 35.370124 393.300993 35.145186 
Q 393.694634 34.920248 393.975807 34.807779 
Q 394.256979 34.69531 394.913048 34.639076 
Q 395.569117 34.582841 395.756566 34.582841 
Q 395.944014 34.582841 396.618828 34.582841 
Q 397.818497 34.582841 398.399586 34.995228 
Q 398.980676 35.407614 399.299338 36.026193 
Q 399.618 36.644772 399.880428 36.832221 
" clip-path="url(#pd4bf3faef0)" style="fill: none; stroke: #000000; stroke-linejoin: miter"/>
   </g>
  </g>
  <g id="axes_26"/>
  <g id="axes_27">
   <g id="patch_23">
    <path d="M 424.463834 37.95691 
L 425.138648 37.95691 
Q 425.850952 37.95691 426.638234 37.881931 
Q 427.425517 37.806952 428.381503 37.675738 
Q 429.33749 37.544524 429.862345 37.507034 
L 434.136166 35.82 
M 430.087283 30.42149 
L 430.087283 31.43371 
Q 430.087283 33.383172 429.412469 37.207117 
Q 428.737655 41.031062 428.737655 43.018014 
Q 428.737655 43.805297 428.737655 44.105214 
Q 428.737655 44.405131 428.831379 45.042455 
Q 428.925103 45.679779 429.112552 45.960952 
Q 429.3 46.242124 429.693641 46.485807 
Q 430.087283 46.72949 430.649628 46.72949 
Q 430.762097 46.692 431.080759 46.72949 
Q 431.399421 46.766979 431.586869 46.710745 
Q 431.774317 46.65451 431.774317 46.392083 
" clip-path="url(#pa68d4bf2e1)" style="fill: none; stroke: #000000; stroke-linejoin: miter"/>
   </g>
  </g>
  <g id="axes_28">
   <g id="patch_24">
    <path d="M 448.7616 35.032717 
Q 447.71189 34.582841 446.737159 34.69531 
Q 443.700497 35.032717 441.788524 36.701007 
Q 439.876552 38.369297 439.876552 41.330979 
Q 439.876552 43.917766 441.882248 45.6048 
Q 443.887945 47.291834 446.512221 47.291834 
Q 448.874069 47.291834 449.998759 45.361117 
Q 451.123448 43.4304 451.123448 40.881103 
Q 451.123448 39.643945 450.711062 38.706703 
Q 450.298676 37.769462 449.773821 37.300841 
Q 449.248966 36.832221 448.499172 36.119917 
Q 447.749379 35.407614 447.299503 34.69531 
L 446.062345 34.245434 
" clip-path="url(#p1ccaa2e2f7)" style="fill: none; stroke: #000000; stroke-linejoin: miter"/>
   </g>
  </g>
  <g id="axes_29">
   <g id="patch_25">
    <path d="M 464.9616 35.032717 
Q 463.91189 34.582841 462.937159 34.69531 
Q 459.900497 35.032717 457.988524 36.701007 
Q 456.076552 38.369297 456.076552 41.330979 
Q 456.076552 43.917766 458.082248 45.6048 
Q 460.087945 47.291834 462.712221 47.291834 
Q 465.074069 47.291834 466.198759 45.361117 
Q 467.323448 43.4304 467.323448 40.881103 
Q 467.323448 39.643945 466.911062 38.706703 
Q 466.498676 37.769462 465.973821 37.300841 
Q 465.448966 36.832221 464.699172 36.119917 
Q 463.949379 35.407614 463.499503 34.69531 
L 462.262345 34.245434 
" clip-path="url(#peee34da554)" style="fill: none; stroke: #000000; stroke-linejoin: miter"/>
   </g>
  </g>
  <g id="axes_30">
   <g id="patch_26">
    <path d="M 477.187697 39.981352 
Q 478.199917 40.956083 478.537324 42.905545 
Q 478.724772 43.955255 478.312386 46.167145 
L 477.075228 47.629241 
" clip-path="url(#pe4e59edd7c)" style="fill: none; stroke: #000000; stroke-linejoin: miter"/>
   </g>
  </g>
  <g id="axes_31"/>
  <g id="axes_32">
   <g id="patch_27">
    <path d="M 510.918579 29.071862 
Q 510.543683 29.146841 510.412469 29.577972 
Q 510.281255 30.009103 510.356234 30.42149 
Q 510.356234 30.571448 510.393724 30.702662 
Q 510.431214 30.833876 510.487448 30.89011 
Q 510.543683 30.946345 510.599917 31.040069 
Q 510.656152 31.133793 510.693641 31.208772 
L 510.80611 29.859145 
M 510.80611 34.020497 
Q 509.906359 39.006621 509.681421 42.793076 
L 510.131297 45.379862 
L 510.468703 46.054676 
" clip-path="url(#p0d39db52bb)" style="fill: none; stroke: #000000; stroke-linejoin: miter"/>
   </g>
  </g>
  <g id="axes_33">
   <g id="patch_28">
    <path d="M 520.184141 38.85304 
L 520.612335 38.85304 
Q 521.43304 38.85304 522.396476 38.745991 
Q 523.359912 38.638943 524.519604 38.460529 
Q 525.679295 38.282115 526.285903 38.210749 
L 532.815859 35.427489 
M 532.494714 25.793128 
Q 532.209251 25.721762 531.174449 25.275727 
Q 530.139648 24.829692 529.497357 24.93674 
Q 528.855066 24.93674 528.337665 25.150837 
Q 527.820264 25.364934 527.481278 25.793128 
Q 527.142291 26.221322 526.87467 26.685198 
Q 526.607048 27.149075 526.464317 27.862731 
Q 526.321586 28.576388 526.214537 29.129471 
Q 526.107489 29.682555 526.089648 30.50326 
Q 526.071806 31.323965 526.053965 31.77 
Q 526.036123 32.216035 526.053965 32.965374 
Q 526.071806 33.714714 526.071806 33.928811 
Q 526.071806 36.605022 526.767621 41.850396 
Q 527.463436 47.095771 527.463436 49.771982 
Q 527.39207 50.057445 527.356388 50.681894 
Q 527.320705 51.306344 527.213656 51.805903 
Q 527.106608 52.305463 526.821145 52.555242 
" clip-path="url(#p14a4e768b1)" style="fill: none; stroke: #000000; stroke-linejoin: miter"/>
   </g>
  </g>
  <g id="axes_34"/>
  <g id="axes_35">
   <g id="patch_29">
    <path d="M 552.516102 36.437797 
L 553.751695 44.778051 
Q 553.854661 45.567458 553.854661 45.60178 
Q 553.854661 45.704746 554.163559 45.704746 
Q 555.02161 45.704746 555.742373 44.778051 
Q 556.463136 43.851356 556.875 42.718729 
Q 557.286864 41.586102 557.801695 40.659407 
Q 558.316525 39.732712 558.797034 39.732712 
Q 559.414831 39.732712 560.049788 40.607924 
Q 560.684746 41.483136 561.148093 42.512797 
Q 561.611441 43.542458 562.28072 44.417669 
Q 562.95 45.292881 563.636441 45.292881 
Q 563.911017 43.782712 564.340042 39.69839 
Q 564.769068 35.614068 565.283898 33.554746 
" clip-path="url(#p251ba744c4)" style="fill: none; stroke: #000000; stroke-linejoin: miter"/>
   </g>
  </g>
  <g id="axes_36">
   <g id="patch_30">
    <path d="M 568.857798 38.160826 
Q 571.830275 39.535596 576.549083 39.721376 
Q 578.072477 39.721376 578.759862 38.550963 
Q 579.447248 37.38055 579.447248 35.82 
Q 579.447248 35.299817 579.354358 34.909679 
Q 579.261468 34.519541 579.019954 34.296606 
Q 578.77844 34.07367 578.611239 33.943624 
Q 578.444037 33.813578 577.998165 33.757844 
Q 577.552294 33.70211 577.347936 33.683532 
Q 577.143578 33.664954 576.567661 33.683532 
Q 575.991743 33.70211 575.768807 33.70211 
Q 573.725229 33.70211 572.238991 35.578486 
Q 570.752752 37.454862 570.752752 39.609908 
Q 570.752752 42.619541 572.684862 44.570229 
Q 574.616972 46.520917 577.663761 46.520917 
Q 579.818807 46.818165 581.342202 44.29156 
" clip-path="url(#pcd4d1efe74)" style="fill: none; stroke: #000000; stroke-linejoin: miter"/>
   </g>
  </g>
  <g id="axes_37"/>
  <g id="axes_38">
   <g id="patch_31">
    <path d="M 601.116102 36.437797 
L 602.351695 44.778051 
Q 602.454661 45.567458 602.454661 45.60178 
Q 602.454661 45.704746 602.763559 45.704746 
Q 603.62161 45.704746 604.342373 44.778051 
Q 605.063136 43.851356 605.475 42.718729 
Q 605.886864 41.586102 606.401695 40.659407 
Q 606.916525 39.732712 607.397034 39.732712 
Q 608.014831 39.732712 608.649788 40.607924 
Q 609.284746 41.483136 609.748093 42.512797 
Q 610.211441 43.542458 610.88072 44.417669 
Q 611.55 45.292881 612.236441 45.292881 
Q 612.511017 43.782712 612.940042 39.69839 
Q 613.369068 35.614068 613.883898 33.554746 
" clip-path="url(#p4754df68f6)" style="fill: none; stroke: #000000; stroke-linejoin: miter"/>
   </g>
  </g>
  <g id="axes_39">
   <g id="patch_32">
    <path d="M 629.243923 36.441748 
Q 628.034968 35.094627 624.062687 35.094627 
Q 622.542857 35.094627 621.765672 35.146439 
Q 620.988486 35.198252 619.98678 35.440043 
Q 618.985075 35.681834 618.501493 36.182687 
Q 618.01791 36.683539 617.672495 37.616162 
Q 617.327079 38.548785 617.327079 39.964989 
Q 617.327079 42.037484 618.743284 43.280981 
Q 620.159488 44.524478 622.093817 44.524478 
Q 624.753518 44.524478 627.516844 38.721493 
Q 628.863966 35.854542 628.863966 35.82 
Q 629.209382 35.578209 629.243923 36.441748 
Q 629.243923 37.512537 629.658422 40.362217 
Q 630.072921 43.211898 630.072921 44.524478 
" clip-path="url(#pe2bc5ecba2)" style="fill: none; stroke: #000000; stroke-linejoin: miter"/>
   </g>
  </g>
  <g id="axes_40">
   <g id="patch_33">
    <path d="M 635.438731 37.282097 
L 635.438731 37.844441 
Q 635.701159 39.868883 635.738648 41.312234 
Q 635.776138 42.755586 635.682414 44.667559 
Q 635.58869 46.579531 635.58869 48.191586 
L 635.663669 39.643945 
Q 635.663669 38.144359 637.256979 37.507034 
Q 638.85029 36.86971 640.274897 37.282097 
Q 642.186869 37.844441 643.105366 39.04411 
Q 644.023862 40.243779 644.080097 41.668386 
Q 644.136331 43.092993 644.173821 44.817517 
Q 644.21131 46.542041 644.361269 48.191586 
" clip-path="url(#p08f4b3e3b5)" style="fill: none; stroke: #000000; stroke-linejoin: miter"/>
   </g>
  </g>
  <g id="axes_41">
   <g id="patch_34">
    <path d="M 651.263834 37.95691 
L 651.938648 37.95691 
Q 652.650952 37.95691 653.438234 37.881931 
Q 654.225517 37.806952 655.181503 37.675738 
Q 656.13749 37.544524 656.662345 37.507034 
L 660.936166 35.82 
M 656.887283 30.42149 
L 656.887283 31.43371 
Q 656.887283 33.383172 656.212469 37.207117 
Q 655.537655 41.031062 655.537655 43.018014 
Q 655.537655 43.805297 655.537655 44.105214 
Q 655.537655 44.405131 655.631379 45.042455 
Q 655.725103 45.679779 655.912552 45.960952 
Q 656.1 46.242124 656.493641 46.485807 
Q 656.887283 46.72949 657.449628 46.72949 
Q 657.562097 46.692 657.880759 46.72949 
Q 658.199421 46.766979 658.386869 46.710745 
Q 658.574317 46.65451 658.574317 46.392083 
" clip-path="url(#pb08b65564d)" style="fill: none; stroke: #000000; stroke-linejoin: miter"/>
   </g>
  </g>
  <g id="axes_42">
   <g id="patch_35">
    <path d="M 672.187531 45.979697 
Q 672.150041 46.017186 672.018828 46.054676 
Q 671.887614 46.092166 671.925103 46.167145 
Q 671.925103 46.579531 672.3 46.579531 
Q 672.637407 46.579531 672.637407 46.092166 
Q 672.712386 45.867228 672.431214 45.754759 
Q 672.150041 45.64229 671.962593 45.754759 
" clip-path="url(#pd5ef9a14c6)" style="fill: none; stroke: #000000; stroke-linejoin: miter"/>
   </g>
  </g>
  <g id="axes_43"/>
  <g id="axes_44">
   <g id="patch_36">
    <path d="M 697.696076 29.835426 
Q 698.748309 32.005656 699.658051 36.631096 
Q 700.567794 41.256536 701.444655 43.251394 
Q 702.124222 43.251394 702.82571 41.979946 
Q 703.527199 40.708498 703.998512 39.173992 
Q 704.469824 37.639486 704.974019 36.368038 
Q 705.478214 35.09659 705.785115 35.09659 
Q 706.00433 35.09659 706.245467 36.378999 
Q 706.486604 37.661407 706.738701 39.206874 
Q 706.990798 40.752341 707.582679 42.03475 
Q 708.17456 43.317158 709.007578 43.317158 
Q 709.314479 43.317158 709.785792 43.130825 
Q 710.257104 42.944493 710.257104 42.725277 
L 710.257104 42.199161 
Q 710.257104 40.576969 710.476319 38.647876 
Q 710.695535 36.718782 711.0682 34.362219 
Q 711.440866 32.005656 711.572395 30.821894 
L 711.703924 29.572368 
" clip-path="url(#p96c81325a9)" style="fill: none; stroke: #000000; stroke-linejoin: miter"/>
   </g>
  </g>
  <g id="axes_45">
   <g id="patch_37">
    <path d="M 714.657798 38.160826 
Q 717.630275 39.535596 722.349083 39.721376 
Q 723.872477 39.721376 724.559862 38.550963 
Q 725.247248 37.38055 725.247248 35.82 
Q 725.247248 35.299817 725.154358 34.909679 
Q 725.061468 34.519541 724.819954 34.296606 
Q 724.57844 34.07367 724.411239 33.943624 
Q 724.244037 33.813578 723.798165 33.757844 
Q 723.352294 33.70211 723.147936 33.683532 
Q 722.943578 33.664954 722.367661 33.683532 
Q 721.791743 33.70211 721.568807 33.70211 
Q 719.525229 33.70211 718.038991 35.578486 
Q 716.552752 37.454862 716.552752 39.609908 
Q 716.552752 42.619541 718.484862 44.570229 
Q 720.416972 46.520917 723.463761 46.520917 
Q 725.618807 46.818165 727.142202 44.29156 
" clip-path="url(#p01373c3c12)" style="fill: none; stroke: #000000; stroke-linejoin: miter"/>
   </g>
  </g>
  <g id="axes_46">
   <g id="patch_38">
    <path d="M 736.706359 28.621986 
Q 736.931297 30.34651 737.006276 32.146014 
Q 737.081255 33.945517 737.06251 36.551048 
Q 737.043766 39.156579 737.043766 40.093821 
Q 737.043766 40.13131 737.268703 45.829738 
L 737.493641 46.841959 
" clip-path="url(#p9077d15bf4)" style="fill: none; stroke: #000000; stroke-linejoin: miter"/>
   </g>
  </g>
  <g id="axes_47">
   <g id="patch_39">
    <path d="M 752.906359 28.621986 
Q 753.131297 30.34651 753.206276 32.146014 
Q 753.281255 33.945517 753.26251 36.551048 
Q 753.243766 39.156579 753.243766 40.093821 
Q 753.243766 40.13131 753.468703 45.829738 
L 753.693641 46.841959 
" clip-path="url(#pef05b050fd)" style="fill: none; stroke: #000000; stroke-linejoin: miter"/>
   </g>
  </g>
  <g id="axes_48">
   <g id="patch_40">
    <path d="M 769.387531 45.979697 
Q 769.350041 46.017186 769.218828 46.054676 
Q 769.087614 46.092166 769.125103 46.167145 
Q 769.125103 46.579531 769.5 46.579531 
Q 769.837407 46.579531 769.837407 46.092166 
Q 769.912386 45.867228 769.631214 45.754759 
Q 769.350041 45.64229 769.162593 45.754759 
" clip-path="url(#p4af3d3d21b)" style="fill: none; stroke: #000000; stroke-linejoin: miter"/>
   </g>
  </g>
  <g id="axes_49">
   <g id="patch_41">
    <path d="M 785.587531 45.979697 
Q 785.550041 46.017186 785.418828 46.054676 
Q 785.287614 46.092166 785.325103 46.167145 
Q 785.325103 46.579531 785.7 46.579531 
Q 786.037407 46.579531 786.037407 46.092166 
Q 786.112386 45.867228 785.831214 45.754759 
Q 785.550041 45.64229 785.362593 45.754759 
" clip-path="url(#pb6f816a0af)" style="fill: none; stroke: #000000; stroke-linejoin: miter"/>
   </g>
  </g>
  <g id="axes_50">
   <g id="patch_42">
    <path d="M 801.787531 45.979697 
Q 801.750041 46.017186 801.618828 46.054676 
Q 801.487614 46.092166 801.525103 46.167145 
Q 801.525103 46.579531 801.9 46.579531 
Q 802.237407 46.579531 802.237407 46.092166 
Q 802.312386 45.867228 802.031214 45.754759 
Q 801.750041 45.64229 801.562593 45.754759 
" clip-path="url(#pc3fac077fc)" style="fill: none; stroke: #000000; stroke-linejoin: miter"/>
   </g>
  </g>
 </g>
 <defs>
  <clipPath id="p2588a7acea">
   <rect x="2.738979" y="8.64" width="10.722041" height="54.36"/>
  </clipPath>
  <clipPath id="p258bfb2b6f">
   <rect x="16.2" y="10.777356" width="16.2" height="50.085288"/>
  </clipPath>
  <clipPath id="p0b57f8bb77">
   <rect x="34.182993" y="8.64" width="12.634014" height="54.36"/>
  </clipPath>
  <clipPath id="p64db66366a">
   <rect x="64.8" y="10.777356" width="16.2" height="50.085288"/>
  </clipPath>
  <clipPath id="pc6b42c0d5a">
   <rect x="97.2" y="11.850612" width="16.2" height="47.938776"/>
  </clipPath>
  <clipPath id="p98aa6165b6">
   <rect x="113.4" y="10.777356" width="16.2" height="50.085288"/>
  </clipPath>
  <clipPath id="pb98ec9e8c6">
   <rect x="132.338979" y="8.64" width="10.722041" height="54.36"/>
  </clipPath>
  <clipPath id="pda862f6acc">
   <rect x="147.189352" y="8.64" width="13.421297" height="54.36"/>
  </clipPath>
  <clipPath id="pe28499dc1c">
   <rect x="167.400745" y="8.64" width="5.39851" height="54.36"/>
  </clipPath>
  <clipPath id="pd67689b7d7">
   <rect x="194.4" y="10.777356" width="16.2" height="50.085288"/>
  </clipPath>
  <clipPath id="p055814e290">
   <rect x="212.364248" y="8.64" width="12.671503" height="54.36"/>
  </clipPath>
  <clipPath id="pcf3e62f5cd">
   <rect x="227.851945" y="8.64" width="14.09611" height="54.36"/>
  </clipPath>
  <clipPath id="p863ca8375b">
   <rect x="260.589352" y="8.64" width="13.421297" height="54.36"/>
  </clipPath>
  <clipPath id="pd1f54d8b11">
   <rect x="278.138979" y="8.64" width="10.722041" height="54.36"/>
  </clipPath>
  <clipPath id="pbda53408d3">
   <rect x="292.989352" y="8.64" width="13.421297" height="54.36"/>
  </clipPath>
  <clipPath id="p842359454c">
   <rect x="309.564248" y="8.64" width="12.671503" height="54.36"/>
  </clipPath>
  <clipPath id="p1659b1b2ff">
   <rect x="325.051945" y="8.64" width="14.09611" height="54.36"/>
  </clipPath>
  <clipPath id="pa7b7c6389d">
   <rect x="346.031876" y="8.64" width="4.536248" height="54.36"/>
  </clipPath>
  <clipPath id="pcfe2420794">
   <rect x="356.4" y="8.881927" width="16.2" height="53.876147"/>
  </clipPath>
  <clipPath id="p39c0813348">
   <rect x="375.338979" y="8.64" width="10.722041" height="54.36"/>
  </clipPath>
  <clipPath id="pd4bf3faef0">
   <rect x="390.582993" y="8.64" width="12.634014" height="54.36"/>
  </clipPath>
  <clipPath id="pa68d4bf2e1">
   <rect x="422.589352" y="8.64" width="13.421297" height="54.36"/>
  </clipPath>
  <clipPath id="p1ccaa2e2f7">
   <rect x="438.002069" y="8.64" width="14.995862" height="54.36"/>
  </clipPath>
  <clipPath id="peee34da554">
   <rect x="454.202069" y="8.64" width="14.995862" height="54.36"/>
  </clipPath>
  <clipPath id="pe4e59edd7c">
   <rect x="475.200745" y="8.64" width="5.39851" height="54.36"/>
  </clipPath>
  <clipPath id="p0d39db52bb">
   <rect x="507.806938" y="8.64" width="4.986124" height="54.36"/>
  </clipPath>
  <clipPath id="p14a4e768b1">
   <rect x="518.4" y="9.949956" width="16.2" height="51.740088"/>
  </clipPath>
  <clipPath id="p251ba744c4">
   <rect x="550.8" y="10.936525" width="16.2" height="49.766949"/>
  </clipPath>
  <clipPath id="pcd4d1efe74">
   <rect x="567" y="8.881927" width="16.2" height="53.876147"/>
  </clipPath>
  <clipPath id="p4754df68f6">
   <rect x="599.4" y="10.936525" width="16.2" height="49.766949"/>
  </clipPath>
  <clipPath id="pe2bc5ecba2">
   <rect x="615.6" y="10.777356" width="16.2" height="50.085288"/>
  </clipPath>
  <clipPath id="p08f4b3e3b5">
   <rect x="633.564248" y="8.64" width="12.671503" height="54.36"/>
  </clipPath>
  <clipPath id="pb08b65564d">
   <rect x="649.389352" y="8.64" width="13.421297" height="54.36"/>
  </clipPath>
  <clipPath id="pd5ef9a14c6">
   <rect x="670.013131" y="8.64" width="4.573738" height="54.36"/>
  </clipPath>
  <clipPath id="p96c81325a9">
   <rect x="696.6" y="19.926901" width="16.2" height="31.786198"/>
  </clipPath>
  <clipPath id="p01373c3c12">
   <rect x="712.8" y="8.881927" width="16.2" height="53.876147"/>
  </clipPath>
  <clipPath id="p9077d15bf4">
   <rect x="734.831876" y="8.64" width="4.536248" height="54.36"/>
  </clipPath>
  <clipPath id="pef05b050fd">
   <rect x="751.031876" y="8.64" width="4.536248" height="54.36"/>
  </clipPath>
  <clipPath id="p4af3d3d21b">
   <rect x="767.213131" y="8.64" width="4.573738" height="54.36"/>
  </clipPath>
  <clipPath id="pb6f816a0af">
   <rect x="783.413131" y="8.64" width="4.573738" height="54.36"/>
  </clipPath>
  <clipPath id="pc3fac077fc">
   <rect x="799.613131" y="8.64" width="4.573738" height="54.36"/>
  </clipPath>
 </defs>
</svg>
