<?xml version="1.0" encoding="utf-8" standalone="no"?>
<!DOCTYPE svg PUBLIC "-//W3C//DTD SVG 1.1//EN"
  "http://www.w3.org/Graphics/SVG/1.1/DTD/svg11.dtd">
<svg xmlns:xlink="http://www.w3.org/1999/xlink" width="864pt" height="72pt" viewBox="0 0 864 72" xmlns="http://www.w3.org/2000/svg" version="1.1">
 <metadata>
  <rdf:RDF xmlns:dc="http://purl.org/dc/elements/1.1/" xmlns:cc="http://creativecommons.org/ns#" xmlns:rdf="http://www.w3.org/1999/02/22-rdf-syntax-ns#">
   <cc:Work>
    <dc:type rdf:resource="http://purl.org/dc/dcmitype/StillImage"/>
    <dc:date>2023-12-21T12:07:02.249639</dc:date>
    <dc:format>image/svg+xml</dc:format>
    <dc:creator>
     <cc:Agent>
      <dc:title>Matplotlib v3.5.1, https://matplotlib.org/</dc:title>
     </cc:Agent>
    </dc:creator>
   </cc:Work>
  </rdf:RDF>
 </metadata>
 <defs>
  <style type="text/css">*{stroke-linejoin: round; stroke-linecap: butt}</style>
 </defs>
 <g id="figure_1">
  <g id="patch_1">
   <path d="M 0 72 
L 864 72 
L 864 0 
L 0 0 
z
" style="fill: #8fff9f"/>
  </g>
  <g id="axes_1">
   <g id="patch_2">
    <path d="M 3.657476 43.917766 
Q 3.957393 44.180193 4.969614 45.154924 
Q 5.981834 46.129655 6.544179 46.560786 
Q 7.106524 46.991917 8.13749 47.385559 
Q 9.168455 47.7792 10.180676 47.629241 
Q 10.85549 47.629241 11.32411 47.404303 
Q 11.792731 47.179366 12.017669 46.879448 
Q 12.242607 46.579531 12.373821 45.979697 
Q 12.505034 45.379862 12.523779 44.967476 
Q 12.542524 44.55509 12.542524 43.805297 
Q 12.542524 42.718097 11.642772 42.043283 
Q 10.743021 41.368469 9.449628 41.031062 
Q 8.156234 40.693655 6.862841 40.300014 
Q 5.569448 39.906372 4.669697 38.987876 
Q 3.769945 38.069379 3.769945 36.607283 
Q 3.769945 36.082428 3.938648 35.726276 
Q 4.107352 35.370124 4.500993 35.145186 
Q 4.894634 34.920248 5.175807 34.807779 
Q 5.456979 34.69531 6.113048 34.639076 
Q 6.769117 34.582841 6.956566 34.582841 
Q 7.144014 34.582841 7.818828 34.582841 
Q 9.018497 34.582841 9.599586 34.995228 
Q 10.180676 35.407614 10.499338 36.026193 
Q 10.818 36.644772 11.080428 36.832221 
" clip-path="url(#p5987f775a0)" style="fill: none; stroke: #000000; stroke-linejoin: miter"/>
   </g>
  </g>
  <g id="axes_2">
   <g id="patch_3">
    <path d="M 29.843923 36.441748 
Q 28.634968 35.094627 24.662687 35.094627 
Q 23.142857 35.094627 22.365672 35.146439 
Q 21.588486 35.198252 20.58678 35.440043 
Q 19.585075 35.681834 19.101493 36.182687 
Q 18.61791 36.683539 18.272495 37.616162 
Q 17.927079 38.548785 17.927079 39.964989 
Q 17.927079 42.037484 19.343284 43.280981 
Q 20.759488 44.524478 22.693817 44.524478 
Q 25.353518 44.524478 28.116844 38.721493 
Q 29.463966 35.854542 29.463966 35.82 
Q 29.809382 35.578209 29.843923 36.441748 
Q 29.843923 37.512537 30.258422 40.362217 
Q 30.672921 43.211898 30.672921 44.524478 
" clip-path="url(#p714018b15b)" style="fill: none; stroke: #000000; stroke-linejoin: miter"/>
   </g>
  </g>
  <g id="axes_3">
   <g id="patch_4">
    <path d="M 35.363917 36.382345 
Q 35.326428 36.494814 35.457641 36.701007 
Q 35.588855 36.9072 35.476386 37.057159 
L 35.476386 39.306538 
Q 35.476386 40.506207 35.813793 41.724621 
Q 36.1512 42.943034 37.013462 43.93651 
Q 37.875724 44.929986 39.075393 44.929986 
Q 40.312552 44.929986 40.987366 43.861531 
Q 41.662179 42.793076 42.112055 41.143531 
Q 42.561931 39.493986 42.899338 38.969131 
L 43.686621 36.382345 
L 43.461683 42.680607 
L 43.461683 45.154924 
Q 43.461683 47.066897 44.192731 51.00331 
Q 44.923779 54.939724 44.923779 56.964166 
Q 45.673572 59.213545 44.586372 60.188276 
Q 43.499172 61.163007 41.437241 60.78811 
Q 39.637738 60.488193 38.719241 60.169531 
Q 37.800745 59.850869 35.813793 58.988607 
L 35.701324 58.426262 
" clip-path="url(#p4da56ecf45)" style="fill: none; stroke: #000000; stroke-linejoin: miter"/>
   </g>
  </g>
  <g id="axes_4">
   <g id="patch_5">
    <path d="M 52.257476 43.917766 
Q 52.557393 44.180193 53.569614 45.154924 
Q 54.581834 46.129655 55.144179 46.560786 
Q 55.706524 46.991917 56.73749 47.385559 
Q 57.768455 47.7792 58.780676 47.629241 
Q 59.45549 47.629241 59.92411 47.404303 
Q 60.392731 47.179366 60.617669 46.879448 
Q 60.842607 46.579531 60.973821 45.979697 
Q 61.105034 45.379862 61.123779 44.967476 
Q 61.142524 44.55509 61.142524 43.805297 
Q 61.142524 42.718097 60.242772 42.043283 
Q 59.343021 41.368469 58.049628 41.031062 
Q 56.756234 40.693655 55.462841 40.300014 
Q 54.169448 39.906372 53.269697 38.987876 
Q 52.369945 38.069379 52.369945 36.607283 
Q 52.369945 36.082428 52.538648 35.726276 
Q 52.707352 35.370124 53.100993 35.145186 
Q 53.494634 34.920248 53.775807 34.807779 
Q 54.056979 34.69531 54.713048 34.639076 
Q 55.369117 34.582841 55.556566 34.582841 
Q 55.744014 34.582841 56.418828 34.582841 
Q 57.618497 34.582841 58.199586 34.995228 
Q 58.780676 35.407614 59.099338 36.026193 
Q 59.418 36.644772 59.680428 36.832221 
" clip-path="url(#pd9881f03af)" style="fill: none; stroke: #000000; stroke-linejoin: miter"/>
   </g>
  </g>
  <g id="axes_5">
   <g id="patch_6">
    <path d="M 72.187697 39.981352 
Q 73.199917 40.956083 73.537324 42.905545 
Q 73.724772 43.955255 73.312386 46.167145 
L 72.075228 47.629241 
" clip-path="url(#p4c9595a69d)" style="fill: none; stroke: #000000; stroke-linejoin: miter"/>
   </g>
  </g>
  <g id="axes_6"/>
  <g id="axes_7">
   <g id="patch_7">
    <path d="M 105.824855 27.009931 
Q 105.899834 27.347338 105.974814 28.265834 
Q 106.049793 29.184331 106.199752 29.634207 
L 106.124772 31.058814 
M 104.475228 27.309848 
Q 104.437738 27.309848 104.400248 27.534786 
Q 104.437738 27.684745 104.550207 28.828179 
Q 104.662676 29.971614 104.925103 30.533959 
" clip-path="url(#p1bb5c884dd)" style="fill: none; stroke: #000000; stroke-linejoin: miter"/>
   </g>
  </g>
  <g id="axes_8">
   <g id="patch_8">
    <path d="M 117.038731 37.282097 
L 117.038731 37.844441 
Q 117.301159 39.868883 117.338648 41.312234 
Q 117.376138 42.755586 117.282414 44.667559 
Q 117.18869 46.579531 117.18869 48.191586 
L 117.263669 39.643945 
Q 117.263669 38.144359 118.856979 37.507034 
Q 120.45029 36.86971 121.874897 37.282097 
Q 123.786869 37.844441 124.705366 39.04411 
Q 125.623862 40.243779 125.680097 41.668386 
Q 125.736331 43.092993 125.773821 44.817517 
Q 125.81131 46.542041 125.961269 48.191586 
" clip-path="url(#p293b78d184)" style="fill: none; stroke: #000000; stroke-linejoin: miter"/>
   </g>
  </g>
  <g id="axes_9">
   <g id="patch_9">
    <path d="M 133.088772 35.145186 
Q 133.088772 35.145186 133.088772 35.595062 
Q 133.088772 36.269876 132.976303 37.619503 
Q 132.863834 38.969131 132.863834 39.643945 
Q 132.863834 41.930814 134.100993 43.599103 
Q 135.338152 45.267393 137.475062 45.267393 
Q 138.862179 45.154924 139.630717 43.917766 
Q 140.399255 42.680607 140.549214 41.237255 
Q 140.699172 39.793903 140.9616 37.9944 
Q 141.224028 36.194897 141.636414 35.370124 
Q 141.786372 35.070207 141.786372 35.670041 
Q 141.786372 36.269876 141.523945 38.706703 
Q 141.299007 41.031062 141.299007 41.555917 
Q 141.149048 42.643117 141.486455 43.767807 
Q 141.823862 44.892497 142.536166 45.6048 
" clip-path="url(#p885d52e5a0)" style="fill: none; stroke: #000000; stroke-linejoin: miter"/>
   </g>
  </g>
  <g id="axes_10">
   <g id="patch_10">
    <path d="M 147.608036 34.879821 
Q 148.114286 36.073125 148.403571 42.871339 
Q 148.548214 46.632054 148.8375 46.632054 
Q 148.873661 46.632054 148.909821 46.595893 
Q 149.416071 46.017321 149.470312 44.588973 
Q 149.524554 43.160625 149.307589 41.750357 
Q 149.090625 40.340089 148.8375 38.712857 
Q 148.584375 37.085625 148.584375 36.398571 
Q 148.584375 35.169107 148.964062 33.939643 
Q 149.34375 32.710179 150.320089 32.710179 
Q 151.549554 32.710179 152.272768 34.355491 
Q 152.995982 36.000804 153.158705 37.971563 
Q 153.321429 39.942321 153.429911 41.587634 
Q 153.538393 43.232946 153.683036 43.232946 
Q 153.827679 43.232946 153.91808 41.497232 
Q 154.008482 39.761518 154.135045 37.700357 
Q 154.261607 35.639196 154.984821 33.903482 
Q 155.708036 32.167768 156.9375 32.167768 
Q 158.492411 33.035625 159.161384 34.771339 
Q 159.830357 36.507054 159.794196 38.188527 
Q 159.758036 39.87 159.776116 42.057723 
Q 159.794196 44.245446 160.191964 45.511071 
" clip-path="url(#p2441d39af5)" style="fill: none; stroke: #000000; stroke-linejoin: miter"/>
   </g>
  </g>
  <g id="axes_11">
   <g id="patch_11">
    <path d="M 166.557228 37.244607 
Q 167.606938 37.207117 167.794386 37.132138 
Q 171.205945 37.132138 172.986703 39.212814 
Q 174.767462 41.29349 174.767462 44.780028 
Q 174.767462 47.704221 170.156234 47.704221 
Q 169.51891 47.704221 168.97531 47.591752 
Q 168.43171 47.479283 167.794386 47.254345 
Q 167.157062 47.029407 166.669697 46.916938 
L 165.432538 45.679779 
M 166.444759 25.435366 
L 166.444759 26.560055 
Q 166.444759 29.409269 166.557228 33.008276 
Q 166.669697 36.607283 166.857145 40.899848 
Q 167.044593 45.192414 167.119572 47.141876 
" clip-path="url(#p3ea72cd930)" style="fill: none; stroke: #000000; stroke-linejoin: miter"/>
   </g>
  </g>
  <g id="axes_12">
   <g id="patch_12">
    <path d="M 180.057798 38.160826 
Q 183.030275 39.535596 187.749083 39.721376 
Q 189.272477 39.721376 189.959862 38.550963 
Q 190.647248 37.38055 190.647248 35.82 
Q 190.647248 35.299817 190.554358 34.909679 
Q 190.461468 34.519541 190.219954 34.296606 
Q 189.97844 34.07367 189.811239 33.943624 
Q 189.644037 33.813578 189.198165 33.757844 
Q 188.752294 33.70211 188.547936 33.683532 
Q 188.343578 33.664954 187.767661 33.683532 
Q 187.191743 33.70211 186.968807 33.70211 
Q 184.925229 33.70211 183.438991 35.578486 
Q 181.952752 37.454862 181.952752 39.609908 
Q 181.952752 42.619541 183.884862 44.570229 
Q 185.816972 46.520917 188.863761 46.520917 
Q 191.018807 46.818165 192.542202 44.29156 
" clip-path="url(#p0ac6ea8e62)" style="fill: none; stroke: #000000; stroke-linejoin: miter"/>
   </g>
  </g>
  <g id="axes_13">
   <g id="patch_13">
    <path d="M 199.013462 32.783338 
Q 199.538317 34.507862 199.669531 36.457324 
Q 199.800745 38.406786 199.725766 40.956083 
Q 199.650786 43.505379 199.688276 44.705048 
L 199.800745 46.054676 
L 199.800745 45.829738 
Q 199.800745 44.667559 199.519572 42.30571 
Q 199.2384 39.943862 199.2384 38.744193 
Q 199.2384 36.419834 200.250621 34.882759 
Q 201.262841 33.345683 203.287283 33.345683 
Q 203.999586 33.345683 204.336993 33.626855 
Q 204.6744 33.908028 204.936828 34.432883 
Q 205.199255 34.957738 205.536662 35.257655 
L 205.986538 36.832221 
" clip-path="url(#p0c3b95b4a6)" style="fill: none; stroke: #000000; stroke-linejoin: miter"/>
   </g>
  </g>
  <g id="axes_14"/>
  <g id="axes_15">
   <g id="patch_14">
    <path d="M 236.305862 30.009103 
Q 232.856814 33.795559 232.594386 40.356248 
Q 232.594386 41.780855 232.781834 42.774331 
Q 232.969283 43.767807 233.737821 44.592579 
Q 234.506359 45.417352 235.855986 45.417352 
Q 236.830717 45.417352 237.411807 44.686303 
Q 237.992897 43.955255 237.992897 42.943034 
Q 237.992897 39.756414 236.230883 38.706703 
Q 234.468869 37.656993 231.807103 38.331807 
" clip-path="url(#p0a26d22bd1)" style="fill: none; stroke: #000000; stroke-linejoin: miter"/>
   </g>
  </g>
  <g id="axes_16">
   <g id="patch_15">
    <path d="M 250.387697 39.981352 
Q 251.399917 40.956083 251.737324 42.905545 
Q 251.924772 43.955255 251.512386 46.167145 
L 250.275228 47.629241 
" clip-path="url(#p4620f9d7f8)" style="fill: none; stroke: #000000; stroke-linejoin: miter"/>
   </g>
  </g>
  <g id="axes_17"/>
  <g id="axes_18">
   <g id="patch_16">
    <path d="M 287.099007 39.568966 
Q 285.749379 38.181848 283.5 38.444276 
Q 280.650786 38.444276 279.488607 39.793903 
Q 278.326428 41.143531 278.326428 44.067724 
Q 278.326428 45.56731 279.619821 46.279614 
Q 280.913214 46.991917 282.487779 46.991917 
Q 283.799917 46.991917 284.812138 45.736014 
Q 285.824359 44.48011 286.405448 42.30571 
Q 286.986538 40.13131 287.361434 37.938166 
Q 287.736331 35.745021 287.88629 33.045766 
Q 288.036248 30.34651 288.073738 28.978138 
Q 288.111228 27.609766 288.111228 26.185159 
Q 287.88629 26.260138 287.88629 29.896634 
L 287.88629 44.292662 
L 288.673572 48.229076 
" clip-path="url(#pa3ea330ec1)" style="fill: none; stroke: #000000; stroke-linejoin: miter"/>
   </g>
  </g>
  <g id="axes_19">
   <g id="patch_17">
    <path d="M 302.9616 35.032717 
Q 301.91189 34.582841 300.937159 34.69531 
Q 297.900497 35.032717 295.988524 36.701007 
Q 294.076552 38.369297 294.076552 41.330979 
Q 294.076552 43.917766 296.082248 45.6048 
Q 298.087945 47.291834 300.712221 47.291834 
Q 303.074069 47.291834 304.198759 45.361117 
Q 305.323448 43.4304 305.323448 40.881103 
Q 305.323448 39.643945 304.911062 38.706703 
Q 304.498676 37.769462 303.973821 37.300841 
Q 303.448966 36.832221 302.699172 36.119917 
Q 301.949379 35.407614 301.499503 34.69531 
L 300.262345 34.245434 
" clip-path="url(#p1a0bec3e0f)" style="fill: none; stroke: #000000; stroke-linejoin: miter"/>
   </g>
  </g>
  <g id="axes_20">
   <g id="patch_18">
    <path d="M 309.516102 36.437797 
L 310.751695 44.778051 
Q 310.854661 45.567458 310.854661 45.60178 
Q 310.854661 45.704746 311.163559 45.704746 
Q 312.02161 45.704746 312.742373 44.778051 
Q 313.463136 43.851356 313.875 42.718729 
Q 314.286864 41.586102 314.801695 40.659407 
Q 315.316525 39.732712 315.797034 39.732712 
Q 316.414831 39.732712 317.049788 40.607924 
Q 317.684746 41.483136 318.148093 42.512797 
Q 318.611441 43.542458 319.28072 44.417669 
Q 319.95 45.292881 320.636441 45.292881 
Q 320.911017 43.782712 321.340042 39.69839 
Q 321.769068 35.614068 322.283898 33.554746 
" clip-path="url(#p6806483380)" style="fill: none; stroke: #000000; stroke-linejoin: miter"/>
   </g>
  </g>
  <g id="axes_21">
   <g id="patch_19">
    <path d="M 327.638731 37.282097 
L 327.638731 37.844441 
Q 327.901159 39.868883 327.938648 41.312234 
Q 327.976138 42.755586 327.882414 44.667559 
Q 327.78869 46.579531 327.78869 48.191586 
L 327.863669 39.643945 
Q 327.863669 38.144359 329.456979 37.507034 
Q 331.05029 36.86971 332.474897 37.282097 
Q 334.386869 37.844441 335.305366 39.04411 
Q 336.223862 40.243779 336.280097 41.668386 
Q 336.336331 43.092993 336.373821 44.817517 
Q 336.41131 46.542041 336.561269 48.191586 
" clip-path="url(#pbb28177cdc)" style="fill: none; stroke: #000000; stroke-linejoin: miter"/>
   </g>
  </g>
  <g id="axes_22">
   <g id="patch_20">
    <path d="M 347.71891 38.669214 
Q 347.71891 38.631724 347.606441 38.612979 
Q 347.493972 38.594234 347.493972 38.519255 
Q 347.493972 38.144359 348.206276 38.144359 
Q 349.106028 38.144359 349.106028 40.056331 
Q 349.106028 40.093821 348.88109 41.256 
L 348.093807 43.242952 
M 348.056317 33.795559 
Q 347.906359 33.795559 347.906359 34.057986 
Q 347.906359 34.320414 348.131297 34.320414 
Q 348.431214 34.320414 348.468703 34.020497 
Q 348.468703 33.945517 348.468703 33.908028 
Q 348.506193 33.6456 348.468703 33.570621 
Q 348.431214 33.495641 348.168786 33.308193 
" clip-path="url(#p3a5f41ecf5)" style="fill: none; stroke: #000000; stroke-linejoin: miter"/>
   </g>
  </g>
  <g id="axes_23"/>
  <g id="axes_24">
   <g id="patch_21">
    <path d="M 380.625021 26.147669 
Q 380.587531 26.597545 380.625021 27.384828 
Q 380.66251 27.572276 380.606276 27.965917 
Q 380.550041 28.359559 380.587531 28.678221 
Q 380.625021 28.996883 380.849959 29.184331 
" clip-path="url(#pd5a5e9abb3)" style="fill: none; stroke: #000000; stroke-linejoin: miter"/>
   </g>
  </g>
  <g id="axes_25">
   <g id="patch_22">
    <path d="M 390.516102 36.437797 
L 391.751695 44.778051 
Q 391.854661 45.567458 391.854661 45.60178 
Q 391.854661 45.704746 392.163559 45.704746 
Q 393.02161 45.704746 393.742373 44.778051 
Q 394.463136 43.851356 394.875 42.718729 
Q 395.286864 41.586102 395.801695 40.659407 
Q 396.316525 39.732712 396.797034 39.732712 
Q 397.414831 39.732712 398.049788 40.607924 
Q 398.684746 41.483136 399.148093 42.512797 
Q 399.611441 43.542458 400.28072 44.417669 
Q 400.95 45.292881 401.636441 45.292881 
Q 401.911017 43.782712 402.340042 39.69839 
Q 402.769068 35.614068 403.283898 33.554746 
" clip-path="url(#pe7b90d7d59)" style="fill: none; stroke: #000000; stroke-linejoin: miter"/>
   </g>
  </g>
  <g id="axes_26">
   <g id="patch_23">
    <path d="M 418.643923 36.441748 
Q 417.434968 35.094627 413.462687 35.094627 
Q 411.942857 35.094627 411.165672 35.146439 
Q 410.388486 35.198252 409.38678 35.440043 
Q 408.385075 35.681834 407.901493 36.182687 
Q 407.41791 36.683539 407.072495 37.616162 
Q 406.727079 38.548785 406.727079 39.964989 
Q 406.727079 42.037484 408.143284 43.280981 
Q 409.559488 44.524478 411.493817 44.524478 
Q 414.153518 44.524478 416.916844 38.721493 
Q 418.263966 35.854542 418.263966 35.82 
Q 418.609382 35.578209 418.643923 36.441748 
Q 418.643923 37.512537 419.058422 40.362217 
Q 419.472921 43.211898 419.472921 44.524478 
" clip-path="url(#p34febecb50)" style="fill: none; stroke: #000000; stroke-linejoin: miter"/>
   </g>
  </g>
  <g id="axes_27">
   <g id="patch_24">
    <path d="M 424.463834 37.95691 
L 425.138648 37.95691 
Q 425.850952 37.95691 426.638234 37.881931 
Q 427.425517 37.806952 428.381503 37.675738 
Q 429.33749 37.544524 429.862345 37.507034 
L 434.136166 35.82 
M 430.087283 30.42149 
L 430.087283 31.43371 
Q 430.087283 33.383172 429.412469 37.207117 
Q 428.737655 41.031062 428.737655 43.018014 
Q 428.737655 43.805297 428.737655 44.105214 
Q 428.737655 44.405131 428.831379 45.042455 
Q 428.925103 45.679779 429.112552 45.960952 
Q 429.3 46.242124 429.693641 46.485807 
Q 430.087283 46.72949 430.649628 46.72949 
Q 430.762097 46.692 431.080759 46.72949 
Q 431.399421 46.766979 431.586869 46.710745 
Q 431.774317 46.65451 431.774317 46.392083 
" clip-path="url(#p025f9c7c42)" style="fill: none; stroke: #000000; stroke-linejoin: miter"/>
   </g>
  </g>
  <g id="axes_28">
   <g id="patch_25">
    <path d="M 450.756735 34.365306 
Q 450.756735 34.365306 450.260816 34.365306 
Q 449.467347 34.365306 447.979592 34.067755 
Q 446.491837 33.770204 445.698367 33.770204 
Q 442.921224 33.770204 440.987143 35.224898 
Q 439.053061 36.679592 439.053061 39.423673 
Q 439.053061 40.94449 440.540816 42.399184 
Q 442.028571 43.853878 443.962653 44.663878 
Q 445.896735 45.473878 447.38449 45.473878 
Q 448.310204 45.473878 449.00449 45.110204 
Q 449.698776 44.746531 450.442653 44.118367 
Q 451.186531 43.490204 451.748571 43.192653 
L 451.946939 42.696735 
" clip-path="url(#ped2654ab0e)" style="fill: none; stroke: #000000; stroke-linejoin: miter"/>
   </g>
  </g>
  <g id="axes_29">
   <g id="patch_26">
    <path d="M 458.213462 35.932469 
Q 458.813297 35.257655 459.806772 34.826524 
Q 460.800248 34.395393 461.7 34.470372 
Q 462.337324 34.470372 462.82469 34.639076 
Q 463.312055 34.807779 463.630717 34.995228 
Q 463.949379 35.182676 464.174317 35.670041 
Q 464.399255 36.157407 464.511724 36.419834 
Q 464.624193 36.682262 464.680428 37.375821 
Q 464.736662 38.069379 464.755407 38.331807 
Q 464.774152 38.594234 464.755407 39.419007 
Q 464.736662 40.243779 464.736662 40.431228 
Q 464.736662 41.368469 464.567959 43.242952 
Q 464.399255 45.117434 464.399255 46.054676 
Q 464.399255 46.467062 464.45549 46.823214 
Q 464.511724 47.179366 464.605448 47.610497 
Q 464.699172 48.041628 464.736662 48.304055 
L 465.186538 48.528993 
M 458.663338 23.111007 
Q 458.888276 24.798041 458.888276 29.971614 
L 458.888276 42.3432 
L 458.550869 46.841959 
L 458.325931 47.74171 
" clip-path="url(#p5654c8b81c)" style="fill: none; stroke: #000000; stroke-linejoin: miter"/>
   </g>
  </g>
  <g id="axes_30"/>
  <g id="axes_31">
   <g id="patch_27">
    <path d="M 497.3616 35.032717 
Q 496.31189 34.582841 495.337159 34.69531 
Q 492.300497 35.032717 490.388524 36.701007 
Q 488.476552 38.369297 488.476552 41.330979 
Q 488.476552 43.917766 490.482248 45.6048 
Q 492.487945 47.291834 495.112221 47.291834 
Q 497.474069 47.291834 498.598759 45.361117 
Q 499.723448 43.4304 499.723448 40.881103 
Q 499.723448 39.643945 499.311062 38.706703 
Q 498.898676 37.769462 498.373821 37.300841 
Q 497.848966 36.832221 497.099172 36.119917 
Q 496.349379 35.407614 495.899503 34.69531 
L 494.662345 34.245434 
" clip-path="url(#pd5a05662c3)" style="fill: none; stroke: #000000; stroke-linejoin: miter"/>
   </g>
  </g>
  <g id="axes_32">
   <g id="patch_28">
    <path d="M 505.688772 35.145186 
Q 505.688772 35.145186 505.688772 35.595062 
Q 505.688772 36.269876 505.576303 37.619503 
Q 505.463834 38.969131 505.463834 39.643945 
Q 505.463834 41.930814 506.700993 43.599103 
Q 507.938152 45.267393 510.075062 45.267393 
Q 511.462179 45.154924 512.230717 43.917766 
Q 512.999255 42.680607 513.149214 41.237255 
Q 513.299172 39.793903 513.5616 37.9944 
Q 513.824028 36.194897 514.236414 35.370124 
Q 514.386372 35.070207 514.386372 35.670041 
Q 514.386372 36.269876 514.123945 38.706703 
Q 513.899007 41.031062 513.899007 41.555917 
Q 513.749048 42.643117 514.086455 43.767807 
Q 514.423862 44.892497 515.136166 45.6048 
" clip-path="url(#pa147bddfaa)" style="fill: none; stroke: #000000; stroke-linejoin: miter"/>
   </g>
  </g>
  <g id="axes_33">
   <g id="patch_29">
    <path d="M 521.663834 37.95691 
L 522.338648 37.95691 
Q 523.050952 37.95691 523.838234 37.881931 
Q 524.625517 37.806952 525.581503 37.675738 
Q 526.53749 37.544524 527.062345 37.507034 
L 531.336166 35.82 
M 527.287283 30.42149 
L 527.287283 31.43371 
Q 527.287283 33.383172 526.612469 37.207117 
Q 525.937655 41.031062 525.937655 43.018014 
Q 525.937655 43.805297 525.937655 44.105214 
Q 525.937655 44.405131 526.031379 45.042455 
Q 526.125103 45.679779 526.312552 45.960952 
Q 526.5 46.242124 526.893641 46.485807 
Q 527.287283 46.72949 527.849628 46.72949 
Q 527.962097 46.692 528.280759 46.72949 
Q 528.599421 46.766979 528.786869 46.710745 
Q 528.974317 46.65451 528.974317 46.392083 
" clip-path="url(#pd0cf8098f7)" style="fill: none; stroke: #000000; stroke-linejoin: miter"/>
   </g>
  </g>
  <g id="axes_34"/>
  <g id="axes_35">
   <g id="patch_30">
    <path d="M 552.584141 38.85304 
L 553.012335 38.85304 
Q 553.83304 38.85304 554.796476 38.745991 
Q 555.759912 38.638943 556.919604 38.460529 
Q 558.079295 38.282115 558.685903 38.210749 
L 565.215859 35.427489 
M 564.894714 25.793128 
Q 564.609251 25.721762 563.574449 25.275727 
Q 562.539648 24.829692 561.897357 24.93674 
Q 561.255066 24.93674 560.737665 25.150837 
Q 560.220264 25.364934 559.881278 25.793128 
Q 559.542291 26.221322 559.27467 26.685198 
Q 559.007048 27.149075 558.864317 27.862731 
Q 558.721586 28.576388 558.614537 29.129471 
Q 558.507489 29.682555 558.489648 30.50326 
Q 558.471806 31.323965 558.453965 31.77 
Q 558.436123 32.216035 558.453965 32.965374 
Q 558.471806 33.714714 558.471806 33.928811 
Q 558.471806 36.605022 559.167621 41.850396 
Q 559.863436 47.095771 559.863436 49.771982 
Q 559.79207 50.057445 559.756388 50.681894 
Q 559.720705 51.306344 559.613656 51.805903 
Q 559.506608 52.305463 559.221145 52.555242 
" clip-path="url(#pad3b64d382)" style="fill: none; stroke: #000000; stroke-linejoin: miter"/>
   </g>
  </g>
  <g id="axes_36">
   <g id="patch_31">
    <path d="M 578.3616 35.032717 
Q 577.31189 34.582841 576.337159 34.69531 
Q 573.300497 35.032717 571.388524 36.701007 
Q 569.476552 38.369297 569.476552 41.330979 
Q 569.476552 43.917766 571.482248 45.6048 
Q 573.487945 47.291834 576.112221 47.291834 
Q 578.474069 47.291834 579.598759 45.361117 
Q 580.723448 43.4304 580.723448 40.881103 
Q 580.723448 39.643945 580.311062 38.706703 
Q 579.898676 37.769462 579.373821 37.300841 
Q 578.848966 36.832221 578.099172 36.119917 
Q 577.349379 35.407614 576.899503 34.69531 
L 575.662345 34.245434 
" clip-path="url(#p5e3d5ec52d)" style="fill: none; stroke: #000000; stroke-linejoin: miter"/>
   </g>
  </g>
  <g id="axes_37">
   <g id="patch_32">
    <path d="M 587.813462 32.783338 
Q 588.338317 34.507862 588.469531 36.457324 
Q 588.600745 38.406786 588.525766 40.956083 
Q 588.450786 43.505379 588.488276 44.705048 
L 588.600745 46.054676 
L 588.600745 45.829738 
Q 588.600745 44.667559 588.319572 42.30571 
Q 588.0384 39.943862 588.0384 38.744193 
Q 588.0384 36.419834 589.050621 34.882759 
Q 590.062841 33.345683 592.087283 33.345683 
Q 592.799586 33.345683 593.136993 33.626855 
Q 593.4744 33.908028 593.736828 34.432883 
Q 593.999255 34.957738 594.336662 35.257655 
L 594.786538 36.832221 
" clip-path="url(#p97f0eea02a)" style="fill: none; stroke: #000000; stroke-linejoin: miter"/>
   </g>
  </g>
  <g id="axes_38"/>
  <g id="axes_39">
   <g id="patch_33">
    <path d="M 627.299007 39.568966 
Q 625.949379 38.181848 623.7 38.444276 
Q 620.850786 38.444276 619.688607 39.793903 
Q 618.526428 41.143531 618.526428 44.067724 
Q 618.526428 45.56731 619.819821 46.279614 
Q 621.113214 46.991917 622.687779 46.991917 
Q 623.999917 46.991917 625.012138 45.736014 
Q 626.024359 44.48011 626.605448 42.30571 
Q 627.186538 40.13131 627.561434 37.938166 
Q 627.936331 35.745021 628.08629 33.045766 
Q 628.236248 30.34651 628.273738 28.978138 
Q 628.311228 27.609766 628.311228 26.185159 
Q 628.08629 26.260138 628.08629 29.896634 
L 628.08629 44.292662 
L 628.873572 48.229076 
" clip-path="url(#p22fe39e92d)" style="fill: none; stroke: #000000; stroke-linejoin: miter"/>
   </g>
  </g>
  <g id="axes_40">
   <g id="patch_34">
    <path d="M 645.443923 36.441748 
Q 644.234968 35.094627 640.262687 35.094627 
Q 638.742857 35.094627 637.965672 35.146439 
Q 637.188486 35.198252 636.18678 35.440043 
Q 635.185075 35.681834 634.701493 36.182687 
Q 634.21791 36.683539 633.872495 37.616162 
Q 633.527079 38.548785 633.527079 39.964989 
Q 633.527079 42.037484 634.943284 43.280981 
Q 636.359488 44.524478 638.293817 44.524478 
Q 640.953518 44.524478 643.716844 38.721493 
Q 645.063966 35.854542 645.063966 35.82 
Q 645.409382 35.578209 645.443923 36.441748 
Q 645.443923 37.512537 645.858422 40.362217 
Q 646.272921 43.211898 646.272921 44.524478 
" clip-path="url(#p4d61f87063)" style="fill: none; stroke: #000000; stroke-linejoin: miter"/>
   </g>
  </g>
  <g id="axes_41">
   <g id="patch_35">
    <path d="M 651.638731 37.282097 
L 651.638731 37.844441 
Q 651.901159 39.868883 651.938648 41.312234 
Q 651.976138 42.755586 651.882414 44.667559 
Q 651.78869 46.579531 651.78869 48.191586 
L 651.863669 39.643945 
Q 651.863669 38.144359 653.456979 37.507034 
Q 655.05029 36.86971 656.474897 37.282097 
Q 658.386869 37.844441 659.305366 39.04411 
Q 660.223862 40.243779 660.280097 41.668386 
Q 660.336331 43.092993 660.373821 44.817517 
Q 660.41131 46.542041 660.561269 48.191586 
" clip-path="url(#pbc8f0400b7)" style="fill: none; stroke: #000000; stroke-linejoin: miter"/>
   </g>
  </g>
  <g id="axes_42">
   <g id="patch_36">
    <path d="M 677.087191 39.096404 
Q 676.83236 39.023596 675.86764 38.623146 
Q 674.902921 38.222697 674.24764 38.077079 
Q 673.59236 37.931461 672.937079 38.00427 
Q 670.315955 38.00427 668.677753 40.388764 
Q 667.039551 42.773258 667.039551 45.430787 
Q 667.039551 47.068989 672.281798 47.068989 
Q 673.847191 47.068989 675.175955 45.558202 
Q 676.504719 44.047416 677.178202 42.172584 
Q 677.851685 40.297753 677.851685 38.768764 
Q 677.851685 37.27618 677.815281 36.984944 
L 677.742472 38.077079 
Q 677.742472 38.550337 677.742472 38.987191 
Q 677.778876 40.188539 677.979101 42.281798 
Q 678.179326 44.375056 678.343146 46.049663 
Q 678.506966 47.72427 678.543371 49.872135 
Q 678.579775 52.02 678.415955 53.658202 
Q 678.252135 55.296404 677.687865 56.971011 
Q 677.123596 58.645618 676.195281 59.737753 
Q 675.266966 60.829888 673.665169 61.521573 
Q 672.063371 62.213258 669.915506 62.213258 
Q 668.277303 62.213258 667.185169 61.466966 
Q 666.093034 60.720674 666.093034 59.155281 
Q 666.020225 58.936854 666.056629 58.936854 
Q 666.093034 58.936854 666.202247 58.936854 
Q 666.311461 58.936854 666.311461 58.82764 
" clip-path="url(#paccab21a0a)" style="fill: none; stroke: #000000; stroke-linejoin: miter"/>
   </g>
  </g>
  <g id="axes_43">
   <g id="patch_37">
    <path d="M 682.257798 38.160826 
Q 685.230275 39.535596 689.949083 39.721376 
Q 691.472477 39.721376 692.159862 38.550963 
Q 692.847248 37.38055 692.847248 35.82 
Q 692.847248 35.299817 692.754358 34.909679 
Q 692.661468 34.519541 692.419954 34.296606 
Q 692.17844 34.07367 692.011239 33.943624 
Q 691.844037 33.813578 691.398165 33.757844 
Q 690.952294 33.70211 690.747936 33.683532 
Q 690.543578 33.664954 689.967661 33.683532 
Q 689.391743 33.70211 689.168807 33.70211 
Q 687.125229 33.70211 685.638991 35.578486 
Q 684.152752 37.454862 684.152752 39.609908 
Q 684.152752 42.619541 686.084862 44.570229 
Q 688.016972 46.520917 691.063761 46.520917 
Q 693.218807 46.818165 694.742202 44.29156 
" clip-path="url(#pe84b4b992d)" style="fill: none; stroke: #000000; stroke-linejoin: miter"/>
   </g>
  </g>
  <g id="axes_44">
   <g id="patch_38">
    <path d="M 701.213462 32.783338 
Q 701.738317 34.507862 701.869531 36.457324 
Q 702.000745 38.406786 701.925766 40.956083 
Q 701.850786 43.505379 701.888276 44.705048 
L 702.000745 46.054676 
L 702.000745 45.829738 
Q 702.000745 44.667559 701.719572 42.30571 
Q 701.4384 39.943862 701.4384 38.744193 
Q 701.4384 36.419834 702.450621 34.882759 
Q 703.462841 33.345683 705.487283 33.345683 
Q 706.199586 33.345683 706.536993 33.626855 
Q 706.8744 33.908028 707.136828 34.432883 
Q 707.399255 34.957738 707.736662 35.257655 
L 708.186538 36.832221 
" clip-path="url(#p779df40ae9)" style="fill: none; stroke: #000000; stroke-linejoin: miter"/>
   </g>
  </g>
  <g id="axes_45">
   <g id="patch_39">
    <path d="M 720.825021 26.147669 
Q 720.787531 26.597545 720.825021 27.384828 
Q 720.86251 27.572276 720.806276 27.965917 
Q 720.750041 28.359559 720.787531 28.678221 
Q 720.825021 28.996883 721.049959 29.184331 
" clip-path="url(#p03a6ad9c24)" style="fill: none; stroke: #000000; stroke-linejoin: miter"/>
   </g>
  </g>
  <g id="axes_46">
   <g id="patch_40">
    <path d="M 736.51891 38.669214 
Q 736.51891 38.631724 736.406441 38.612979 
Q 736.293972 38.594234 736.293972 38.519255 
Q 736.293972 38.144359 737.006276 38.144359 
Q 737.906028 38.144359 737.906028 40.056331 
Q 737.906028 40.093821 737.68109 41.256 
L 736.893807 43.242952 
M 736.856317 33.795559 
Q 736.706359 33.795559 736.706359 34.057986 
Q 736.706359 34.320414 736.931297 34.320414 
Q 737.231214 34.320414 737.268703 34.020497 
Q 737.268703 33.945517 737.268703 33.908028 
Q 737.306193 33.6456 737.268703 33.570621 
Q 737.231214 33.495641 736.968786 33.308193 
" clip-path="url(#pfb9bbdc40d)" style="fill: none; stroke: #000000; stroke-linejoin: miter"/>
   </g>
  </g>
  <g id="axes_47"/>
  <g id="axes_48">
   <g id="patch_41">
    <path d="M 775.043923 36.441748 
Q 773.834968 35.094627 769.862687 35.094627 
Q 768.342857 35.094627 767.565672 35.146439 
Q 766.788486 35.198252 765.78678 35.440043 
Q 764.785075 35.681834 764.301493 36.182687 
Q 763.81791 36.683539 763.472495 37.616162 
Q 763.127079 38.548785 763.127079 39.964989 
Q 763.127079 42.037484 764.543284 43.280981 
Q 765.959488 44.524478 767.893817 44.524478 
Q 770.553518 44.524478 773.316844 38.721493 
Q 774.663966 35.854542 774.663966 35.82 
Q 775.009382 35.578209 775.043923 36.441748 
Q 775.043923 37.512537 775.458422 40.362217 
Q 775.872921 43.211898 775.872921 44.524478 
" clip-path="url(#pd834da0e77)" style="fill: none; stroke: #000000; stroke-linejoin: miter"/>
   </g>
  </g>
 </g>
 <defs>
  <clipPath id="p5987f775a0">
   <rect x="1.782993" y="8.64" width="12.634014" height="54.36"/>
  </clipPath>
  <clipPath id="p714018b15b">
   <rect x="16.2" y="10.777356" width="16.2" height="50.085288"/>
  </clipPath>
  <clipPath id="p4da56ecf45">
   <rect x="33.451945" y="8.64" width="14.09611" height="54.36"/>
  </clipPath>
  <clipPath id="pd9881f03af">
   <rect x="50.382993" y="8.64" width="12.634014" height="54.36"/>
  </clipPath>
  <clipPath id="p4c9595a69d">
   <rect x="70.200745" y="8.64" width="5.39851" height="54.36"/>
  </clipPath>
  <clipPath id="p1bb5c884dd">
   <rect x="102.525766" y="8.64" width="5.548469" height="54.36"/>
  </clipPath>
  <clipPath id="p293b78d184">
   <rect x="115.164248" y="8.64" width="12.671503" height="54.36"/>
  </clipPath>
  <clipPath id="p885d52e5a0">
   <rect x="130.989352" y="8.64" width="13.421297" height="54.36"/>
  </clipPath>
  <clipPath id="p2441d39af5">
   <rect x="145.8" y="9.603482" width="16.2" height="52.433036"/>
  </clipPath>
  <clipPath id="p3ea72cd930">
   <rect x="163.558055" y="8.64" width="13.08389" height="54.36"/>
  </clipPath>
  <clipPath id="p0ac6ea8e62">
   <rect x="178.2" y="8.881927" width="16.2" height="53.876147"/>
  </clipPath>
  <clipPath id="p0c3b95b4a6">
   <rect x="197.138979" y="8.64" width="10.722041" height="54.36"/>
  </clipPath>
  <clipPath id="p0a26d22bd1">
   <rect x="229.932621" y="8.64" width="9.934759" height="54.36"/>
  </clipPath>
  <clipPath id="p4620f9d7f8">
   <rect x="248.400745" y="8.64" width="5.39851" height="54.36"/>
  </clipPath>
  <clipPath id="pa3ea330ec1">
   <rect x="276.451945" y="8.64" width="14.09611" height="54.36"/>
  </clipPath>
  <clipPath id="p1a0bec3e0f">
   <rect x="292.202069" y="8.64" width="14.995862" height="54.36"/>
  </clipPath>
  <clipPath id="p6806483380">
   <rect x="307.8" y="10.936525" width="16.2" height="49.766949"/>
  </clipPath>
  <clipPath id="pbb28177cdc">
   <rect x="325.764248" y="8.64" width="12.671503" height="54.36"/>
  </clipPath>
  <clipPath id="p3a5f41ecf5">
   <rect x="345.61949" y="8.64" width="5.361021" height="54.36"/>
  </clipPath>
  <clipPath id="pd5a5e9abb3">
   <rect x="378.675559" y="8.64" width="4.048883" height="54.36"/>
  </clipPath>
  <clipPath id="pe7b90d7d59">
   <rect x="388.8" y="10.936525" width="16.2" height="49.766949"/>
  </clipPath>
  <clipPath id="p34febecb50">
   <rect x="405" y="10.777356" width="16.2" height="50.085288"/>
  </clipPath>
  <clipPath id="p025f9c7c42">
   <rect x="422.589352" y="8.64" width="13.421297" height="54.36"/>
  </clipPath>
  <clipPath id="ped2654ab0e">
   <rect x="437.4" y="11.850612" width="16.2" height="47.938776"/>
  </clipPath>
  <clipPath id="p5654c8b81c">
   <rect x="456.338979" y="8.64" width="10.722041" height="54.36"/>
  </clipPath>
  <clipPath id="pd5a05662c3">
   <rect x="486.602069" y="8.64" width="14.995862" height="54.36"/>
  </clipPath>
  <clipPath id="pa147bddfaa">
   <rect x="503.589352" y="8.64" width="13.421297" height="54.36"/>
  </clipPath>
  <clipPath id="pd0cf8098f7">
   <rect x="519.789352" y="8.64" width="13.421297" height="54.36"/>
  </clipPath>
  <clipPath id="pad3b64d382">
   <rect x="550.8" y="9.949956" width="16.2" height="51.740088"/>
  </clipPath>
  <clipPath id="p5e3d5ec52d">
   <rect x="567.602069" y="8.64" width="14.995862" height="54.36"/>
  </clipPath>
  <clipPath id="p97f0eea02a">
   <rect x="585.938979" y="8.64" width="10.722041" height="54.36"/>
  </clipPath>
  <clipPath id="p22fe39e92d">
   <rect x="616.651945" y="8.64" width="14.09611" height="54.36"/>
  </clipPath>
  <clipPath id="p4d61f87063">
   <rect x="631.8" y="10.777356" width="16.2" height="50.085288"/>
  </clipPath>
  <clipPath id="pbc8f0400b7">
   <rect x="649.764248" y="8.64" width="12.671503" height="54.36"/>
  </clipPath>
  <clipPath id="paccab21a0a">
   <rect x="664.2" y="9.426742" width="16.2" height="52.786517"/>
  </clipPath>
  <clipPath id="pe84b4b992d">
   <rect x="680.4" y="8.881927" width="16.2" height="53.876147"/>
  </clipPath>
  <clipPath id="p779df40ae9">
   <rect x="699.338979" y="8.64" width="10.722041" height="54.36"/>
  </clipPath>
  <clipPath id="p03a6ad9c24">
   <rect x="718.875559" y="8.64" width="4.048883" height="54.36"/>
  </clipPath>
  <clipPath id="pfb9bbdc40d">
   <rect x="734.41949" y="8.64" width="5.361021" height="54.36"/>
  </clipPath>
  <clipPath id="pd834da0e77">
   <rect x="761.4" y="10.777356" width="16.2" height="50.085288"/>
  </clipPath>
 </defs>
</svg>
