<?xml version="1.0" encoding="utf-8" standalone="no"?>
<!DOCTYPE svg PUBLIC "-//W3C//DTD SVG 1.1//EN"
  "http://www.w3.org/Graphics/SVG/1.1/DTD/svg11.dtd">
<svg xmlns:xlink="http://www.w3.org/1999/xlink" width="846pt" height="72pt" viewBox="0 0 846 72" xmlns="http://www.w3.org/2000/svg" version="1.1">
 <metadata>
  <rdf:RDF xmlns:dc="http://purl.org/dc/elements/1.1/" xmlns:cc="http://creativecommons.org/ns#" xmlns:rdf="http://www.w3.org/1999/02/22-rdf-syntax-ns#">
   <cc:Work>
    <dc:type rdf:resource="http://purl.org/dc/dcmitype/StillImage"/>
    <dc:date>2023-12-21T12:06:48.579079</dc:date>
    <dc:format>image/svg+xml</dc:format>
    <dc:creator>
     <cc:Agent>
      <dc:title>Matplotlib v3.5.1, https://matplotlib.org/</dc:title>
     </cc:Agent>
    </dc:creator>
   </cc:Work>
  </rdf:RDF>
 </metadata>
 <defs>
  <style type="text/css">*{stroke-linejoin: round; stroke-linecap: butt}</style>
 </defs>
 <g id="figure_1">
  <g id="patch_1">
   <path d="M 0 72 
L 846 72 
L 846 0 
L 0 0 
z
" style="fill: #8fff9f"/>
  </g>
  <g id="axes_1">
   <g id="patch_2">
    <path d="M 2.048638 35.788482 
L 2.237743 35.788482 
Q 3.120233 35.788482 4.885214 35.69393 
Q 6.650195 35.599377 7.532685 35.599377 
Q 9.077043 35.599377 10.274708 35.835759 
Q 11.472374 36.07214 12.496693 36.655214 
Q 13.521012 37.238288 14.072568 38.35716 
Q 14.624125 39.476031 14.624125 41.083424 
Q 14.624125 46.567471 4.507004 46.567471 
Q 4.475486 46.567471 2.615953 46.283813 
L 2.048638 46.000156 
M 2.048638 27.562412 
Q 3.687549 26.679922 5.641634 26.71144 
Q 7.910895 26.71144 9.943774 28.035175 
Q 11.976654 29.358911 11.976654 31.533619 
Q 11.976654 32.825837 11.425097 33.582257 
Q 10.873541 34.338677 10.148638 34.527782 
Q 9.423735 34.716887 8.430934 35.06358 
Q 7.438132 35.410272 6.870817 35.883035 
L 2.048638 35.788482 
M 1.575875 27.656965 
Q 1.796498 28.949183 1.733463 32.494903 
Q 1.670428 36.040623 2.237743 37.301323 
Q 2.237743 38.309883 2.190467 40.358521 
Q 2.143191 42.40716 2.143191 43.447237 
L 2.143191 45.243735 
L 1.954086 46.000156 
" clip-path="url(#pbef01560cf)" style="fill: none; stroke: #000000; stroke-linejoin: miter"/>
   </g>
  </g>
  <g id="axes_2">
   <g id="patch_3">
    <path d="M 19.688772 35.145186 
Q 19.688772 35.145186 19.688772 35.595062 
Q 19.688772 36.269876 19.576303 37.619503 
Q 19.463834 38.969131 19.463834 39.643945 
Q 19.463834 41.930814 20.700993 43.599103 
Q 21.938152 45.267393 24.075062 45.267393 
Q 25.462179 45.154924 26.230717 43.917766 
Q 26.999255 42.680607 27.149214 41.237255 
Q 27.299172 39.793903 27.5616 37.9944 
Q 27.824028 36.194897 28.236414 35.370124 
Q 28.386372 35.070207 28.386372 35.670041 
Q 28.386372 36.269876 28.123945 38.706703 
Q 27.899007 41.031062 27.899007 41.555917 
Q 27.749048 42.643117 28.086455 43.767807 
Q 28.423862 44.892497 29.136166 45.6048 
" clip-path="url(#pf2b428b364)" style="fill: none; stroke: #000000; stroke-linejoin: miter"/>
   </g>
  </g>
  <g id="axes_3">
   <g id="patch_4">
    <path d="M 37.013462 32.783338 
Q 37.538317 34.507862 37.669531 36.457324 
Q 37.800745 38.406786 37.725766 40.956083 
Q 37.650786 43.505379 37.688276 44.705048 
L 37.800745 46.054676 
L 37.800745 45.829738 
Q 37.800745 44.667559 37.519572 42.30571 
Q 37.2384 39.943862 37.2384 38.744193 
Q 37.2384 36.419834 38.250621 34.882759 
Q 39.262841 33.345683 41.287283 33.345683 
Q 41.999586 33.345683 42.336993 33.626855 
Q 42.6744 33.908028 42.936828 34.432883 
Q 43.199255 34.957738 43.536662 35.257655 
L 43.986538 36.832221 
" clip-path="url(#pe33feb37c6)" style="fill: none; stroke: #000000; stroke-linejoin: miter"/>
   </g>
  </g>
  <g id="axes_4">
   <g id="patch_5">
    <path d="M 51.863834 37.95691 
L 52.538648 37.95691 
Q 53.250952 37.95691 54.038234 37.881931 
Q 54.825517 37.806952 55.781503 37.675738 
Q 56.73749 37.544524 57.262345 37.507034 
L 61.536166 35.82 
M 57.487283 30.42149 
L 57.487283 31.43371 
Q 57.487283 33.383172 56.812469 37.207117 
Q 56.137655 41.031062 56.137655 43.018014 
Q 56.137655 43.805297 56.137655 44.105214 
Q 56.137655 44.405131 56.231379 45.042455 
Q 56.325103 45.679779 56.512552 45.960952 
Q 56.7 46.242124 57.093641 46.485807 
Q 57.487283 46.72949 58.049628 46.72949 
Q 58.162097 46.692 58.480759 46.72949 
Q 58.799421 46.766979 58.986869 46.710745 
Q 59.174317 46.65451 59.174317 46.392083 
" clip-path="url(#pb74e193491)" style="fill: none; stroke: #000000; stroke-linejoin: miter"/>
   </g>
  </g>
  <g id="axes_5"/>
  <g id="axes_6">
   <g id="patch_6">
    <path d="M 84.657476 43.917766 
Q 84.957393 44.180193 85.969614 45.154924 
Q 86.981834 46.129655 87.544179 46.560786 
Q 88.106524 46.991917 89.13749 47.385559 
Q 90.168455 47.7792 91.180676 47.629241 
Q 91.85549 47.629241 92.32411 47.404303 
Q 92.792731 47.179366 93.017669 46.879448 
Q 93.242607 46.579531 93.373821 45.979697 
Q 93.505034 45.379862 93.523779 44.967476 
Q 93.542524 44.55509 93.542524 43.805297 
Q 93.542524 42.718097 92.642772 42.043283 
Q 91.743021 41.368469 90.449628 41.031062 
Q 89.156234 40.693655 87.862841 40.300014 
Q 86.569448 39.906372 85.669697 38.987876 
Q 84.769945 38.069379 84.769945 36.607283 
Q 84.769945 36.082428 84.938648 35.726276 
Q 85.107352 35.370124 85.500993 35.145186 
Q 85.894634 34.920248 86.175807 34.807779 
Q 86.456979 34.69531 87.113048 34.639076 
Q 87.769117 34.582841 87.956566 34.582841 
Q 88.144014 34.582841 88.818828 34.582841 
Q 90.018497 34.582841 90.599586 34.995228 
Q 91.180676 35.407614 91.499338 36.026193 
Q 91.818 36.644772 92.080428 36.832221 
" clip-path="url(#pf88a723446)" style="fill: none; stroke: #000000; stroke-linejoin: miter"/>
   </g>
  </g>
  <g id="axes_7">
   <g id="patch_7">
    <path d="M 104.906359 28.621986 
Q 105.131297 30.34651 105.206276 32.146014 
Q 105.281255 33.945517 105.26251 36.551048 
Q 105.243766 39.156579 105.243766 40.093821 
Q 105.243766 40.13131 105.468703 45.829738 
L 105.693641 46.841959 
" clip-path="url(#p9e765b8271)" style="fill: none; stroke: #000000; stroke-linejoin: miter"/>
   </g>
  </g>
  <g id="axes_8">
   <g id="patch_8">
    <path d="M 122.118579 29.071862 
Q 121.743683 29.146841 121.612469 29.577972 
Q 121.481255 30.009103 121.556234 30.42149 
Q 121.556234 30.571448 121.593724 30.702662 
Q 121.631214 30.833876 121.687448 30.89011 
Q 121.743683 30.946345 121.799917 31.040069 
Q 121.856152 31.133793 121.893641 31.208772 
L 122.00611 29.859145 
M 122.00611 34.020497 
Q 121.106359 39.006621 120.881421 42.793076 
L 121.331297 45.379862 
L 121.668703 46.054676 
" clip-path="url(#p6ba306eee6)" style="fill: none; stroke: #000000; stroke-linejoin: miter"/>
   </g>
  </g>
  <g id="axes_9">
   <g id="patch_9">
    <path d="M 132.920069 39.868883 
L 132.920069 39.419007 
Q 132.920069 37.769462 134.663338 36.682262 
Q 136.406607 35.595062 138.093641 35.595062 
Q 140.305531 35.595062 141.673903 36.794731 
Q 143.042276 37.9944 143.042276 40.20629 
Q 143.042276 42.30571 141.224028 43.336676 
Q 139.405779 44.367641 137.19389 44.367641 
Q 136.519076 44.367641 136.012966 44.255172 
Q 135.506855 44.142703 134.888276 43.917766 
Q 134.269697 43.692828 133.819821 43.580359 
L 132.695131 42.568138 
M 132.357724 36.832221 
Q 132.8076 38.444276 133.070028 40.262524 
Q 133.332455 42.080772 133.38869 43.749062 
Q 133.444924 45.417352 133.482414 47.27309 
Q 133.519903 49.128828 133.482414 50.778372 
L 133.369945 57.863917 
" clip-path="url(#p10e01acce3)" style="fill: none; stroke: #000000; stroke-linejoin: miter"/>
   </g>
  </g>
  <g id="axes_10">
   <g id="patch_10">
    <path d="M 149.457476 43.917766 
Q 149.757393 44.180193 150.769614 45.154924 
Q 151.781834 46.129655 152.344179 46.560786 
Q 152.906524 46.991917 153.93749 47.385559 
Q 154.968455 47.7792 155.980676 47.629241 
Q 156.65549 47.629241 157.12411 47.404303 
Q 157.592731 47.179366 157.817669 46.879448 
Q 158.042607 46.579531 158.173821 45.979697 
Q 158.305034 45.379862 158.323779 44.967476 
Q 158.342524 44.55509 158.342524 43.805297 
Q 158.342524 42.718097 157.442772 42.043283 
Q 156.543021 41.368469 155.249628 41.031062 
Q 153.956234 40.693655 152.662841 40.300014 
Q 151.369448 39.906372 150.469697 38.987876 
Q 149.569945 38.069379 149.569945 36.607283 
Q 149.569945 36.082428 149.738648 35.726276 
Q 149.907352 35.370124 150.300993 35.145186 
Q 150.694634 34.920248 150.975807 34.807779 
Q 151.256979 34.69531 151.913048 34.639076 
Q 152.569117 34.582841 152.756566 34.582841 
Q 152.944014 34.582841 153.618828 34.582841 
Q 154.818497 34.582841 155.399586 34.995228 
Q 155.980676 35.407614 156.299338 36.026193 
Q 156.618 36.644772 156.880428 36.832221 
" clip-path="url(#p18ab7be120)" style="fill: none; stroke: #000000; stroke-linejoin: miter"/>
   </g>
  </g>
  <g id="axes_11"/>
  <g id="axes_12">
   <g id="patch_11">
    <path d="M 182.813462 35.932469 
Q 183.413297 35.257655 184.406772 34.826524 
Q 185.400248 34.395393 186.3 34.470372 
Q 186.937324 34.470372 187.42469 34.639076 
Q 187.912055 34.807779 188.230717 34.995228 
Q 188.549379 35.182676 188.774317 35.670041 
Q 188.999255 36.157407 189.111724 36.419834 
Q 189.224193 36.682262 189.280428 37.375821 
Q 189.336662 38.069379 189.355407 38.331807 
Q 189.374152 38.594234 189.355407 39.419007 
Q 189.336662 40.243779 189.336662 40.431228 
Q 189.336662 41.368469 189.167959 43.242952 
Q 188.999255 45.117434 188.999255 46.054676 
Q 188.999255 46.467062 189.05549 46.823214 
Q 189.111724 47.179366 189.205448 47.610497 
Q 189.299172 48.041628 189.336662 48.304055 
L 189.786538 48.528993 
M 183.263338 23.111007 
Q 183.488276 24.798041 183.488276 29.971614 
L 183.488276 42.3432 
L 183.150869 46.841959 
L 182.925931 47.74171 
" clip-path="url(#p2ab73e6457)" style="fill: none; stroke: #000000; stroke-linejoin: miter"/>
   </g>
  </g>
  <g id="axes_13">
   <g id="patch_12">
    <path d="M 203.118579 29.071862 
Q 202.743683 29.146841 202.612469 29.577972 
Q 202.481255 30.009103 202.556234 30.42149 
Q 202.556234 30.571448 202.593724 30.702662 
Q 202.631214 30.833876 202.687448 30.89011 
Q 202.743683 30.946345 202.799917 31.040069 
Q 202.856152 31.133793 202.893641 31.208772 
L 203.00611 29.859145 
M 203.00611 34.020497 
Q 202.106359 39.006621 201.881421 42.793076 
L 202.331297 45.379862 
L 202.668703 46.054676 
" clip-path="url(#p52d5fe54fc)" style="fill: none; stroke: #000000; stroke-linejoin: miter"/>
   </g>
  </g>
  <g id="axes_14">
   <g id="patch_13">
    <path d="M 214.257476 43.917766 
Q 214.557393 44.180193 215.569614 45.154924 
Q 216.581834 46.129655 217.144179 46.560786 
Q 217.706524 46.991917 218.73749 47.385559 
Q 219.768455 47.7792 220.780676 47.629241 
Q 221.45549 47.629241 221.92411 47.404303 
Q 222.392731 47.179366 222.617669 46.879448 
Q 222.842607 46.579531 222.973821 45.979697 
Q 223.105034 45.379862 223.123779 44.967476 
Q 223.142524 44.55509 223.142524 43.805297 
Q 223.142524 42.718097 222.242772 42.043283 
Q 221.343021 41.368469 220.049628 41.031062 
Q 218.756234 40.693655 217.462841 40.300014 
Q 216.169448 39.906372 215.269697 38.987876 
Q 214.369945 38.069379 214.369945 36.607283 
Q 214.369945 36.082428 214.538648 35.726276 
Q 214.707352 35.370124 215.100993 35.145186 
Q 215.494634 34.920248 215.775807 34.807779 
Q 216.056979 34.69531 216.713048 34.639076 
Q 217.369117 34.582841 217.556566 34.582841 
Q 217.744014 34.582841 218.418828 34.582841 
Q 219.618497 34.582841 220.199586 34.995228 
Q 220.780676 35.407614 221.099338 36.026193 
Q 221.418 36.644772 221.680428 36.832221 
" clip-path="url(#p17a9949cd0)" style="fill: none; stroke: #000000; stroke-linejoin: miter"/>
   </g>
  </g>
  <g id="axes_15"/>
  <g id="axes_16">
   <g id="patch_14">
    <path d="M 246.657476 43.917766 
Q 246.957393 44.180193 247.969614 45.154924 
Q 248.981834 46.129655 249.544179 46.560786 
Q 250.106524 46.991917 251.13749 47.385559 
Q 252.168455 47.7792 253.180676 47.629241 
Q 253.85549 47.629241 254.32411 47.404303 
Q 254.792731 47.179366 255.017669 46.879448 
Q 255.242607 46.579531 255.373821 45.979697 
Q 255.505034 45.379862 255.523779 44.967476 
Q 255.542524 44.55509 255.542524 43.805297 
Q 255.542524 42.718097 254.642772 42.043283 
Q 253.743021 41.368469 252.449628 41.031062 
Q 251.156234 40.693655 249.862841 40.300014 
Q 248.569448 39.906372 247.669697 38.987876 
Q 246.769945 38.069379 246.769945 36.607283 
Q 246.769945 36.082428 246.938648 35.726276 
Q 247.107352 35.370124 247.500993 35.145186 
Q 247.894634 34.920248 248.175807 34.807779 
Q 248.456979 34.69531 249.113048 34.639076 
Q 249.769117 34.582841 249.956566 34.582841 
Q 250.144014 34.582841 250.818828 34.582841 
Q 252.018497 34.582841 252.599586 34.995228 
Q 253.180676 35.407614 253.499338 36.026193 
Q 253.818 36.644772 254.080428 36.832221 
" clip-path="url(#pbf51b25560)" style="fill: none; stroke: #000000; stroke-linejoin: miter"/>
   </g>
  </g>
  <g id="axes_17">
   <g id="patch_15">
    <path d="M 266.906359 28.621986 
Q 267.131297 30.34651 267.206276 32.146014 
Q 267.281255 33.945517 267.26251 36.551048 
Q 267.243766 39.156579 267.243766 40.093821 
Q 267.243766 40.13131 267.468703 45.829738 
L 267.693641 46.841959 
" clip-path="url(#p0ac302fed5)" style="fill: none; stroke: #000000; stroke-linejoin: miter"/>
   </g>
  </g>
  <g id="axes_18">
   <g id="patch_16">
    <path d="M 284.118579 29.071862 
Q 283.743683 29.146841 283.612469 29.577972 
Q 283.481255 30.009103 283.556234 30.42149 
Q 283.556234 30.571448 283.593724 30.702662 
Q 283.631214 30.833876 283.687448 30.89011 
Q 283.743683 30.946345 283.799917 31.040069 
Q 283.856152 31.133793 283.893641 31.208772 
L 284.00611 29.859145 
M 284.00611 34.020497 
Q 283.106359 39.006621 282.881421 42.793076 
L 283.331297 45.379862 
L 283.668703 46.054676 
" clip-path="url(#pc8b5dd6683)" style="fill: none; stroke: #000000; stroke-linejoin: miter"/>
   </g>
  </g>
  <g id="axes_19">
   <g id="patch_17">
    <path d="M 294.920069 39.868883 
L 294.920069 39.419007 
Q 294.920069 37.769462 296.663338 36.682262 
Q 298.406607 35.595062 300.093641 35.595062 
Q 302.305531 35.595062 303.673903 36.794731 
Q 305.042276 37.9944 305.042276 40.20629 
Q 305.042276 42.30571 303.224028 43.336676 
Q 301.405779 44.367641 299.19389 44.367641 
Q 298.519076 44.367641 298.012966 44.255172 
Q 297.506855 44.142703 296.888276 43.917766 
Q 296.269697 43.692828 295.819821 43.580359 
L 294.695131 42.568138 
M 294.357724 36.832221 
Q 294.8076 38.444276 295.070028 40.262524 
Q 295.332455 42.080772 295.38869 43.749062 
Q 295.444924 45.417352 295.482414 47.27309 
Q 295.519903 49.128828 295.482414 50.778372 
L 295.369945 57.863917 
" clip-path="url(#p620fcca65e)" style="fill: none; stroke: #000000; stroke-linejoin: miter"/>
   </g>
  </g>
  <g id="axes_20">
   <g id="patch_18">
    <path d="M 311.120069 39.868883 
L 311.120069 39.419007 
Q 311.120069 37.769462 312.863338 36.682262 
Q 314.606607 35.595062 316.293641 35.595062 
Q 318.505531 35.595062 319.873903 36.794731 
Q 321.242276 37.9944 321.242276 40.20629 
Q 321.242276 42.30571 319.424028 43.336676 
Q 317.605779 44.367641 315.39389 44.367641 
Q 314.719076 44.367641 314.212966 44.255172 
Q 313.706855 44.142703 313.088276 43.917766 
Q 312.469697 43.692828 312.019821 43.580359 
L 310.895131 42.568138 
M 310.557724 36.832221 
Q 311.0076 38.444276 311.270028 40.262524 
Q 311.532455 42.080772 311.58869 43.749062 
Q 311.644924 45.417352 311.682414 47.27309 
Q 311.719903 49.128828 311.682414 50.778372 
L 311.569945 57.863917 
" clip-path="url(#pf572d810e2)" style="fill: none; stroke: #000000; stroke-linejoin: miter"/>
   </g>
  </g>
  <g id="axes_21">
   <g id="patch_19">
    <path d="M 325.857798 38.160826 
Q 328.830275 39.535596 333.549083 39.721376 
Q 335.072477 39.721376 335.759862 38.550963 
Q 336.447248 37.38055 336.447248 35.82 
Q 336.447248 35.299817 336.354358 34.909679 
Q 336.261468 34.519541 336.019954 34.296606 
Q 335.77844 34.07367 335.611239 33.943624 
Q 335.444037 33.813578 334.998165 33.757844 
Q 334.552294 33.70211 334.347936 33.683532 
Q 334.143578 33.664954 333.567661 33.683532 
Q 332.991743 33.70211 332.768807 33.70211 
Q 330.725229 33.70211 329.238991 35.578486 
Q 327.752752 37.454862 327.752752 39.609908 
Q 327.752752 42.619541 329.684862 44.570229 
Q 331.616972 46.520917 334.663761 46.520917 
Q 336.818807 46.818165 338.342202 44.29156 
" clip-path="url(#pae441d2a11)" style="fill: none; stroke: #000000; stroke-linejoin: miter"/>
   </g>
  </g>
  <g id="axes_22">
   <g id="patch_20">
    <path d="M 344.813462 32.783338 
Q 345.338317 34.507862 345.469531 36.457324 
Q 345.600745 38.406786 345.525766 40.956083 
Q 345.450786 43.505379 345.488276 44.705048 
L 345.600745 46.054676 
L 345.600745 45.829738 
Q 345.600745 44.667559 345.319572 42.30571 
Q 345.0384 39.943862 345.0384 38.744193 
Q 345.0384 36.419834 346.050621 34.882759 
Q 347.062841 33.345683 349.087283 33.345683 
Q 349.799586 33.345683 350.136993 33.626855 
Q 350.4744 33.908028 350.736828 34.432883 
Q 350.999255 34.957738 351.336662 35.257655 
L 351.786538 36.832221 
" clip-path="url(#p627ac953b5)" style="fill: none; stroke: #000000; stroke-linejoin: miter"/>
   </g>
  </g>
  <g id="axes_23">
   <g id="patch_21">
    <path d="M 360.057476 43.917766 
Q 360.357393 44.180193 361.369614 45.154924 
Q 362.381834 46.129655 362.944179 46.560786 
Q 363.506524 46.991917 364.53749 47.385559 
Q 365.568455 47.7792 366.580676 47.629241 
Q 367.25549 47.629241 367.72411 47.404303 
Q 368.192731 47.179366 368.417669 46.879448 
Q 368.642607 46.579531 368.773821 45.979697 
Q 368.905034 45.379862 368.923779 44.967476 
Q 368.942524 44.55509 368.942524 43.805297 
Q 368.942524 42.718097 368.042772 42.043283 
Q 367.143021 41.368469 365.849628 41.031062 
Q 364.556234 40.693655 363.262841 40.300014 
Q 361.969448 39.906372 361.069697 38.987876 
Q 360.169945 38.069379 360.169945 36.607283 
Q 360.169945 36.082428 360.338648 35.726276 
Q 360.507352 35.370124 360.900993 35.145186 
Q 361.294634 34.920248 361.575807 34.807779 
Q 361.856979 34.69531 362.513048 34.639076 
Q 363.169117 34.582841 363.356566 34.582841 
Q 363.544014 34.582841 364.218828 34.582841 
Q 365.418497 34.582841 365.999586 34.995228 
Q 366.580676 35.407614 366.899338 36.026193 
Q 367.218 36.644772 367.480428 36.832221 
" clip-path="url(#p18a0a03740)" style="fill: none; stroke: #000000; stroke-linejoin: miter"/>
   </g>
  </g>
  <g id="axes_24"/>
  <g id="axes_25">
   <g id="patch_22">
    <path d="M 400.1616 35.032717 
Q 399.11189 34.582841 398.137159 34.69531 
Q 395.100497 35.032717 393.188524 36.701007 
Q 391.276552 38.369297 391.276552 41.330979 
Q 391.276552 43.917766 393.282248 45.6048 
Q 395.287945 47.291834 397.912221 47.291834 
Q 400.274069 47.291834 401.398759 45.361117 
Q 402.523448 43.4304 402.523448 40.881103 
Q 402.523448 39.643945 402.111062 38.706703 
Q 401.698676 37.769462 401.173821 37.300841 
Q 400.648966 36.832221 399.899172 36.119917 
Q 399.149379 35.407614 398.699503 34.69531 
L 397.462345 34.245434 
" clip-path="url(#p446dcd13be)" style="fill: none; stroke: #000000; stroke-linejoin: miter"/>
   </g>
  </g>
  <g id="axes_26">
   <g id="patch_23">
    <path d="M 408.638731 37.282097 
L 408.638731 37.844441 
Q 408.901159 39.868883 408.938648 41.312234 
Q 408.976138 42.755586 408.882414 44.667559 
Q 408.78869 46.579531 408.78869 48.191586 
L 408.863669 39.643945 
Q 408.863669 38.144359 410.456979 37.507034 
Q 412.05029 36.86971 413.474897 37.282097 
Q 415.386869 37.844441 416.305366 39.04411 
Q 417.223862 40.243779 417.280097 41.668386 
Q 417.336331 43.092993 417.373821 44.817517 
Q 417.41131 46.542041 417.561269 48.191586 
" clip-path="url(#pbb28b46f04)" style="fill: none; stroke: #000000; stroke-linejoin: miter"/>
   </g>
  </g>
  <g id="axes_27"/>
  <g id="axes_28">
   <g id="patch_24">
    <path d="M 451.043923 36.441748 
Q 449.834968 35.094627 445.862687 35.094627 
Q 444.342857 35.094627 443.565672 35.146439 
Q 442.788486 35.198252 441.78678 35.440043 
Q 440.785075 35.681834 440.301493 36.182687 
Q 439.81791 36.683539 439.472495 37.616162 
Q 439.127079 38.548785 439.127079 39.964989 
Q 439.127079 42.037484 440.543284 43.280981 
Q 441.959488 44.524478 443.893817 44.524478 
Q 446.553518 44.524478 449.316844 38.721493 
Q 450.663966 35.854542 450.663966 35.82 
Q 451.009382 35.578209 451.043923 36.441748 
Q 451.043923 37.512537 451.458422 40.362217 
Q 451.872921 43.211898 451.872921 44.524478 
" clip-path="url(#p8db2a665dd)" style="fill: none; stroke: #000000; stroke-linejoin: miter"/>
   </g>
  </g>
  <g id="axes_29">
   <g id="patch_25">
    <path d="M 457.238731 37.282097 
L 457.238731 37.844441 
Q 457.501159 39.868883 457.538648 41.312234 
Q 457.576138 42.755586 457.482414 44.667559 
Q 457.38869 46.579531 457.38869 48.191586 
L 457.463669 39.643945 
Q 457.463669 38.144359 459.056979 37.507034 
Q 460.65029 36.86971 462.074897 37.282097 
Q 463.986869 37.844441 464.905366 39.04411 
Q 465.823862 40.243779 465.880097 41.668386 
Q 465.936331 43.092993 465.973821 44.817517 
Q 466.01131 46.542041 466.161269 48.191586 
" clip-path="url(#pd90bdaaff8)" style="fill: none; stroke: #000000; stroke-linejoin: miter"/>
   </g>
  </g>
  <g id="axes_30">
   <g id="patch_26">
    <path d="M 481.499007 39.568966 
Q 480.149379 38.181848 477.9 38.444276 
Q 475.050786 38.444276 473.888607 39.793903 
Q 472.726428 41.143531 472.726428 44.067724 
Q 472.726428 45.56731 474.019821 46.279614 
Q 475.313214 46.991917 476.887779 46.991917 
Q 478.199917 46.991917 479.212138 45.736014 
Q 480.224359 44.48011 480.805448 42.30571 
Q 481.386538 40.13131 481.761434 37.938166 
Q 482.136331 35.745021 482.28629 33.045766 
Q 482.436248 30.34651 482.473738 28.978138 
Q 482.511228 27.609766 482.511228 26.185159 
Q 482.28629 26.260138 482.28629 29.896634 
L 482.28629 44.292662 
L 483.073572 48.229076 
" clip-path="url(#p49395cc9a3)" style="fill: none; stroke: #000000; stroke-linejoin: miter"/>
   </g>
  </g>
  <g id="axes_31"/>
  <g id="axes_32">
   <g id="patch_27">
    <path d="M 505.857476 43.917766 
Q 506.157393 44.180193 507.169614 45.154924 
Q 508.181834 46.129655 508.744179 46.560786 
Q 509.306524 46.991917 510.33749 47.385559 
Q 511.368455 47.7792 512.380676 47.629241 
Q 513.05549 47.629241 513.52411 47.404303 
Q 513.992731 47.179366 514.217669 46.879448 
Q 514.442607 46.579531 514.573821 45.979697 
Q 514.705034 45.379862 514.723779 44.967476 
Q 514.742524 44.55509 514.742524 43.805297 
Q 514.742524 42.718097 513.842772 42.043283 
Q 512.943021 41.368469 511.649628 41.031062 
Q 510.356234 40.693655 509.062841 40.300014 
Q 507.769448 39.906372 506.869697 38.987876 
Q 505.969945 38.069379 505.969945 36.607283 
Q 505.969945 36.082428 506.138648 35.726276 
Q 506.307352 35.370124 506.700993 35.145186 
Q 507.094634 34.920248 507.375807 34.807779 
Q 507.656979 34.69531 508.313048 34.639076 
Q 508.969117 34.582841 509.156566 34.582841 
Q 509.344014 34.582841 510.018828 34.582841 
Q 511.218497 34.582841 511.799586 34.995228 
Q 512.380676 35.407614 512.699338 36.026193 
Q 513.018 36.644772 513.280428 36.832221 
" clip-path="url(#p030e16c17d)" style="fill: none; stroke: #000000; stroke-linejoin: miter"/>
   </g>
  </g>
  <g id="axes_33">
   <g id="patch_28">
    <path d="M 523.013462 35.932469 
Q 523.613297 35.257655 524.606772 34.826524 
Q 525.600248 34.395393 526.5 34.470372 
Q 527.137324 34.470372 527.62469 34.639076 
Q 528.112055 34.807779 528.430717 34.995228 
Q 528.749379 35.182676 528.974317 35.670041 
Q 529.199255 36.157407 529.311724 36.419834 
Q 529.424193 36.682262 529.480428 37.375821 
Q 529.536662 38.069379 529.555407 38.331807 
Q 529.574152 38.594234 529.555407 39.419007 
Q 529.536662 40.243779 529.536662 40.431228 
Q 529.536662 41.368469 529.367959 43.242952 
Q 529.199255 45.117434 529.199255 46.054676 
Q 529.199255 46.467062 529.25549 46.823214 
Q 529.311724 47.179366 529.405448 47.610497 
Q 529.499172 48.041628 529.536662 48.304055 
L 529.986538 48.528993 
M 523.463338 23.111007 
Q 523.688276 24.798041 523.688276 29.971614 
L 523.688276 42.3432 
L 523.350869 46.841959 
L 523.125931 47.74171 
" clip-path="url(#p8accd1122b)" style="fill: none; stroke: #000000; stroke-linejoin: miter"/>
   </g>
  </g>
  <g id="axes_34">
   <g id="patch_29">
    <path d="M 538.088772 35.145186 
Q 538.088772 35.145186 538.088772 35.595062 
Q 538.088772 36.269876 537.976303 37.619503 
Q 537.863834 38.969131 537.863834 39.643945 
Q 537.863834 41.930814 539.100993 43.599103 
Q 540.338152 45.267393 542.475062 45.267393 
Q 543.862179 45.154924 544.630717 43.917766 
Q 545.399255 42.680607 545.549214 41.237255 
Q 545.699172 39.793903 545.9616 37.9944 
Q 546.224028 36.194897 546.636414 35.370124 
Q 546.786372 35.070207 546.786372 35.670041 
Q 546.786372 36.269876 546.523945 38.706703 
Q 546.299007 41.031062 546.299007 41.555917 
Q 546.149048 42.643117 546.486455 43.767807 
Q 546.823862 44.892497 547.536166 45.6048 
" clip-path="url(#pd3b69f19eb)" style="fill: none; stroke: #000000; stroke-linejoin: miter"/>
   </g>
  </g>
  <g id="axes_35">
   <g id="patch_30">
    <path d="M 552.584141 38.85304 
L 553.012335 38.85304 
Q 553.83304 38.85304 554.796476 38.745991 
Q 555.759912 38.638943 556.919604 38.460529 
Q 558.079295 38.282115 558.685903 38.210749 
L 565.215859 35.427489 
M 564.894714 25.793128 
Q 564.609251 25.721762 563.574449 25.275727 
Q 562.539648 24.829692 561.897357 24.93674 
Q 561.255066 24.93674 560.737665 25.150837 
Q 560.220264 25.364934 559.881278 25.793128 
Q 559.542291 26.221322 559.27467 26.685198 
Q 559.007048 27.149075 558.864317 27.862731 
Q 558.721586 28.576388 558.614537 29.129471 
Q 558.507489 29.682555 558.489648 30.50326 
Q 558.471806 31.323965 558.453965 31.77 
Q 558.436123 32.216035 558.453965 32.965374 
Q 558.471806 33.714714 558.471806 33.928811 
Q 558.471806 36.605022 559.167621 41.850396 
Q 559.863436 47.095771 559.863436 49.771982 
Q 559.79207 50.057445 559.756388 50.681894 
Q 559.720705 51.306344 559.613656 51.805903 
Q 559.506608 52.305463 559.221145 52.555242 
" clip-path="url(#pe87225cae6)" style="fill: none; stroke: #000000; stroke-linejoin: miter"/>
   </g>
  </g>
  <g id="axes_36">
   <g id="patch_31">
    <path d="M 568.784141 38.85304 
L 569.212335 38.85304 
Q 570.03304 38.85304 570.996476 38.745991 
Q 571.959912 38.638943 573.119604 38.460529 
Q 574.279295 38.282115 574.885903 38.210749 
L 581.415859 35.427489 
M 581.094714 25.793128 
Q 580.809251 25.721762 579.774449 25.275727 
Q 578.739648 24.829692 578.097357 24.93674 
Q 577.455066 24.93674 576.937665 25.150837 
Q 576.420264 25.364934 576.081278 25.793128 
Q 575.742291 26.221322 575.47467 26.685198 
Q 575.207048 27.149075 575.064317 27.862731 
Q 574.921586 28.576388 574.814537 29.129471 
Q 574.707489 29.682555 574.689648 30.50326 
Q 574.671806 31.323965 574.653965 31.77 
Q 574.636123 32.216035 574.653965 32.965374 
Q 574.671806 33.714714 574.671806 33.928811 
Q 574.671806 36.605022 575.367621 41.850396 
Q 576.063436 47.095771 576.063436 49.771982 
Q 575.99207 50.057445 575.956388 50.681894 
Q 575.920705 51.306344 575.813656 51.805903 
Q 575.706608 52.305463 575.421145 52.555242 
" clip-path="url(#p1943471b14)" style="fill: none; stroke: #000000; stroke-linejoin: miter"/>
   </g>
  </g>
  <g id="axes_37">
   <g id="patch_32">
    <path d="M 590.906359 28.621986 
Q 591.131297 30.34651 591.206276 32.146014 
Q 591.281255 33.945517 591.26251 36.551048 
Q 591.243766 39.156579 591.243766 40.093821 
Q 591.243766 40.13131 591.468703 45.829738 
L 591.693641 46.841959 
" clip-path="url(#p12cca809b0)" style="fill: none; stroke: #000000; stroke-linejoin: miter"/>
   </g>
  </g>
  <g id="axes_38">
   <g id="patch_33">
    <path d="M 601.257798 38.160826 
Q 604.230275 39.535596 608.949083 39.721376 
Q 610.472477 39.721376 611.159862 38.550963 
Q 611.847248 37.38055 611.847248 35.82 
Q 611.847248 35.299817 611.754358 34.909679 
Q 611.661468 34.519541 611.419954 34.296606 
Q 611.17844 34.07367 611.011239 33.943624 
Q 610.844037 33.813578 610.398165 33.757844 
Q 609.952294 33.70211 609.747936 33.683532 
Q 609.543578 33.664954 608.967661 33.683532 
Q 608.391743 33.70211 608.168807 33.70211 
Q 606.125229 33.70211 604.638991 35.578486 
Q 603.152752 37.454862 603.152752 39.609908 
Q 603.152752 42.619541 605.084862 44.570229 
Q 607.016972 46.520917 610.063761 46.520917 
Q 612.218807 46.818165 613.742202 44.29156 
" clip-path="url(#p77b6b272ad)" style="fill: none; stroke: #000000; stroke-linejoin: miter"/>
   </g>
  </g>
  <g id="axes_39">
   <g id="patch_34">
    <path d="M 619.257476 43.917766 
Q 619.557393 44.180193 620.569614 45.154924 
Q 621.581834 46.129655 622.144179 46.560786 
Q 622.706524 46.991917 623.73749 47.385559 
Q 624.768455 47.7792 625.780676 47.629241 
Q 626.45549 47.629241 626.92411 47.404303 
Q 627.392731 47.179366 627.617669 46.879448 
Q 627.842607 46.579531 627.973821 45.979697 
Q 628.105034 45.379862 628.123779 44.967476 
Q 628.142524 44.55509 628.142524 43.805297 
Q 628.142524 42.718097 627.242772 42.043283 
Q 626.343021 41.368469 625.049628 41.031062 
Q 623.756234 40.693655 622.462841 40.300014 
Q 621.169448 39.906372 620.269697 38.987876 
Q 619.369945 38.069379 619.369945 36.607283 
Q 619.369945 36.082428 619.538648 35.726276 
Q 619.707352 35.370124 620.100993 35.145186 
Q 620.494634 34.920248 620.775807 34.807779 
Q 621.056979 34.69531 621.713048 34.639076 
Q 622.369117 34.582841 622.556566 34.582841 
Q 622.744014 34.582841 623.418828 34.582841 
Q 624.618497 34.582841 625.199586 34.995228 
Q 625.780676 35.407614 626.099338 36.026193 
Q 626.418 36.644772 626.680428 36.832221 
" clip-path="url(#pa968cee43c)" style="fill: none; stroke: #000000; stroke-linejoin: miter"/>
   </g>
  </g>
  <g id="axes_40"/>
  <g id="axes_41">
   <g id="patch_35">
    <path d="M 659.3616 35.032717 
Q 658.31189 34.582841 657.337159 34.69531 
Q 654.300497 35.032717 652.388524 36.701007 
Q 650.476552 38.369297 650.476552 41.330979 
Q 650.476552 43.917766 652.482248 45.6048 
Q 654.487945 47.291834 657.112221 47.291834 
Q 659.474069 47.291834 660.598759 45.361117 
Q 661.723448 43.4304 661.723448 40.881103 
Q 661.723448 39.643945 661.311062 38.706703 
Q 660.898676 37.769462 660.373821 37.300841 
Q 659.848966 36.832221 659.099172 36.119917 
Q 658.349379 35.407614 657.899503 34.69531 
L 656.662345 34.245434 
" clip-path="url(#p7088e06ccc)" style="fill: none; stroke: #000000; stroke-linejoin: miter"/>
   </g>
  </g>
  <g id="axes_42">
   <g id="patch_36">
    <path d="M 668.026179 34.807779 
Q 669.638234 36.719752 670.931628 39.6252 
Q 672.225021 42.530648 672.524938 45.154924 
Q 673.574648 43.655338 674.493145 38.819172 
Q 675.411641 33.983007 676.573821 32.108524 
" clip-path="url(#pefb798d7bd)" style="fill: none; stroke: #000000; stroke-linejoin: miter"/>
   </g>
  </g>
  <g id="axes_43">
   <g id="patch_37">
    <path d="M 682.257798 38.160826 
Q 685.230275 39.535596 689.949083 39.721376 
Q 691.472477 39.721376 692.159862 38.550963 
Q 692.847248 37.38055 692.847248 35.82 
Q 692.847248 35.299817 692.754358 34.909679 
Q 692.661468 34.519541 692.419954 34.296606 
Q 692.17844 34.07367 692.011239 33.943624 
Q 691.844037 33.813578 691.398165 33.757844 
Q 690.952294 33.70211 690.747936 33.683532 
Q 690.543578 33.664954 689.967661 33.683532 
Q 689.391743 33.70211 689.168807 33.70211 
Q 687.125229 33.70211 685.638991 35.578486 
Q 684.152752 37.454862 684.152752 39.609908 
Q 684.152752 42.619541 686.084862 44.570229 
Q 688.016972 46.520917 691.063761 46.520917 
Q 693.218807 46.818165 694.742202 44.29156 
" clip-path="url(#p728f6bf05c)" style="fill: none; stroke: #000000; stroke-linejoin: miter"/>
   </g>
  </g>
  <g id="axes_44">
   <g id="patch_38">
    <path d="M 701.213462 32.783338 
Q 701.738317 34.507862 701.869531 36.457324 
Q 702.000745 38.406786 701.925766 40.956083 
Q 701.850786 43.505379 701.888276 44.705048 
L 702.000745 46.054676 
L 702.000745 45.829738 
Q 702.000745 44.667559 701.719572 42.30571 
Q 701.4384 39.943862 701.4384 38.744193 
Q 701.4384 36.419834 702.450621 34.882759 
Q 703.462841 33.345683 705.487283 33.345683 
Q 706.199586 33.345683 706.536993 33.626855 
Q 706.8744 33.908028 707.136828 34.432883 
Q 707.399255 34.957738 707.736662 35.257655 
L 708.186538 36.832221 
" clip-path="url(#p4f52831c7f)" style="fill: none; stroke: #000000; stroke-linejoin: miter"/>
   </g>
  </g>
  <g id="axes_45"/>
  <g id="axes_46">
   <g id="patch_39">
    <path d="M 732.263834 37.95691 
L 732.938648 37.95691 
Q 733.650952 37.95691 734.438234 37.881931 
Q 735.225517 37.806952 736.181503 37.675738 
Q 737.13749 37.544524 737.662345 37.507034 
L 741.936166 35.82 
M 737.887283 30.42149 
L 737.887283 31.43371 
Q 737.887283 33.383172 737.212469 37.207117 
Q 736.537655 41.031062 736.537655 43.018014 
Q 736.537655 43.805297 736.537655 44.105214 
Q 736.537655 44.405131 736.631379 45.042455 
Q 736.725103 45.679779 736.912552 45.960952 
Q 737.1 46.242124 737.493641 46.485807 
Q 737.887283 46.72949 738.449628 46.72949 
Q 738.562097 46.692 738.880759 46.72949 
Q 739.199421 46.766979 739.386869 46.710745 
Q 739.574317 46.65451 739.574317 46.392083 
" clip-path="url(#p10e3e77f06)" style="fill: none; stroke: #000000; stroke-linejoin: miter"/>
   </g>
  </g>
  <g id="axes_47">
   <g id="patch_40">
    <path d="M 756.5616 35.032717 
Q 755.51189 34.582841 754.537159 34.69531 
Q 751.500497 35.032717 749.588524 36.701007 
Q 747.676552 38.369297 747.676552 41.330979 
Q 747.676552 43.917766 749.682248 45.6048 
Q 751.687945 47.291834 754.312221 47.291834 
Q 756.674069 47.291834 757.798759 45.361117 
Q 758.923448 43.4304 758.923448 40.881103 
Q 758.923448 39.643945 758.511062 38.706703 
Q 758.098676 37.769462 757.573821 37.300841 
Q 757.048966 36.832221 756.299172 36.119917 
Q 755.549379 35.407614 755.099503 34.69531 
L 753.862345 34.245434 
" clip-path="url(#p0db3351896)" style="fill: none; stroke: #000000; stroke-linejoin: miter"/>
   </g>
  </g>
 </g>
 <defs>
  <clipPath id="pbef01560cf">
   <rect x="0" y="12.969805" width="16.2" height="45.700389"/>
  </clipPath>
  <clipPath id="pf2b428b364">
   <rect x="17.589352" y="8.64" width="13.421297" height="54.36"/>
  </clipPath>
  <clipPath id="pe33feb37c6">
   <rect x="35.138979" y="8.64" width="10.722041" height="54.36"/>
  </clipPath>
  <clipPath id="pb74e193491">
   <rect x="49.989352" y="8.64" width="13.421297" height="54.36"/>
  </clipPath>
  <clipPath id="pf88a723446">
   <rect x="82.782993" y="8.64" width="12.634014" height="54.36"/>
  </clipPath>
  <clipPath id="p9e765b8271">
   <rect x="103.031876" y="8.64" width="4.536248" height="54.36"/>
  </clipPath>
  <clipPath id="p6ba306eee6">
   <rect x="119.006938" y="8.64" width="4.986124" height="54.36"/>
  </clipPath>
  <clipPath id="p10e01acce3">
   <rect x="130.483241" y="8.64" width="14.433517" height="54.36"/>
  </clipPath>
  <clipPath id="p18ab7be120">
   <rect x="147.582993" y="8.64" width="12.634014" height="54.36"/>
  </clipPath>
  <clipPath id="p2ab73e6457">
   <rect x="180.938979" y="8.64" width="10.722041" height="54.36"/>
  </clipPath>
  <clipPath id="p52d5fe54fc">
   <rect x="200.006938" y="8.64" width="4.986124" height="54.36"/>
  </clipPath>
  <clipPath id="p17a9949cd0">
   <rect x="212.382993" y="8.64" width="12.634014" height="54.36"/>
  </clipPath>
  <clipPath id="pbf51b25560">
   <rect x="244.782993" y="8.64" width="12.634014" height="54.36"/>
  </clipPath>
  <clipPath id="p0ac302fed5">
   <rect x="265.031876" y="8.64" width="4.536248" height="54.36"/>
  </clipPath>
  <clipPath id="pc8b5dd6683">
   <rect x="281.006938" y="8.64" width="4.986124" height="54.36"/>
  </clipPath>
  <clipPath id="p620fcca65e">
   <rect x="292.483241" y="8.64" width="14.433517" height="54.36"/>
  </clipPath>
  <clipPath id="pf572d810e2">
   <rect x="308.683241" y="8.64" width="14.433517" height="54.36"/>
  </clipPath>
  <clipPath id="pae441d2a11">
   <rect x="324" y="8.881927" width="16.2" height="53.876147"/>
  </clipPath>
  <clipPath id="p627ac953b5">
   <rect x="342.938979" y="8.64" width="10.722041" height="54.36"/>
  </clipPath>
  <clipPath id="p18a0a03740">
   <rect x="358.182993" y="8.64" width="12.634014" height="54.36"/>
  </clipPath>
  <clipPath id="p446dcd13be">
   <rect x="389.402069" y="8.64" width="14.995862" height="54.36"/>
  </clipPath>
  <clipPath id="pbb28b46f04">
   <rect x="406.764248" y="8.64" width="12.671503" height="54.36"/>
  </clipPath>
  <clipPath id="p8db2a665dd">
   <rect x="437.4" y="10.777356" width="16.2" height="50.085288"/>
  </clipPath>
  <clipPath id="pd90bdaaff8">
   <rect x="455.364248" y="8.64" width="12.671503" height="54.36"/>
  </clipPath>
  <clipPath id="p49395cc9a3">
   <rect x="470.851945" y="8.64" width="14.09611" height="54.36"/>
  </clipPath>
  <clipPath id="p030e16c17d">
   <rect x="503.982993" y="8.64" width="12.634014" height="54.36"/>
  </clipPath>
  <clipPath id="p8accd1122b">
   <rect x="521.138979" y="8.64" width="10.722041" height="54.36"/>
  </clipPath>
  <clipPath id="pd3b69f19eb">
   <rect x="535.989352" y="8.64" width="13.421297" height="54.36"/>
  </clipPath>
  <clipPath id="pe87225cae6">
   <rect x="550.8" y="9.949956" width="16.2" height="51.740088"/>
  </clipPath>
  <clipPath id="p1943471b14">
   <rect x="567" y="9.949956" width="16.2" height="51.740088"/>
  </clipPath>
  <clipPath id="p12cca809b0">
   <rect x="589.031876" y="8.64" width="4.536248" height="54.36"/>
  </clipPath>
  <clipPath id="p77b6b272ad">
   <rect x="599.4" y="8.881927" width="16.2" height="53.876147"/>
  </clipPath>
  <clipPath id="pa968cee43c">
   <rect x="617.382993" y="8.64" width="12.634014" height="54.36"/>
  </clipPath>
  <clipPath id="p7088e06ccc">
   <rect x="648.602069" y="8.64" width="14.995862" height="54.36"/>
  </clipPath>
  <clipPath id="pefb798d7bd">
   <rect x="666.151697" y="8.64" width="12.296607" height="54.36"/>
  </clipPath>
  <clipPath id="p728f6bf05c">
   <rect x="680.4" y="8.881927" width="16.2" height="53.876147"/>
  </clipPath>
  <clipPath id="p4f52831c7f">
   <rect x="699.338979" y="8.64" width="10.722041" height="54.36"/>
  </clipPath>
  <clipPath id="p10e3e77f06">
   <rect x="730.389352" y="8.64" width="13.421297" height="54.36"/>
  </clipPath>
  <clipPath id="p0db3351896">
   <rect x="745.802069" y="8.64" width="14.995862" height="54.36"/>
  </clipPath>
 </defs>
</svg>
