<?xml version="1.0" encoding="utf-8" standalone="no"?>
<!DOCTYPE svg PUBLIC "-//W3C//DTD SVG 1.1//EN"
  "http://www.w3.org/Graphics/SVG/1.1/DTD/svg11.dtd">
<svg xmlns:xlink="http://www.w3.org/1999/xlink" width="900pt" height="72pt" viewBox="0 0 900 72" xmlns="http://www.w3.org/2000/svg" version="1.1">
 <metadata>
  <rdf:RDF xmlns:dc="http://purl.org/dc/elements/1.1/" xmlns:cc="http://creativecommons.org/ns#" xmlns:rdf="http://www.w3.org/1999/02/22-rdf-syntax-ns#">
   <cc:Work>
    <dc:type rdf:resource="http://purl.org/dc/dcmitype/StillImage"/>
    <dc:date>2023-12-21T12:06:39.565212</dc:date>
    <dc:format>image/svg+xml</dc:format>
    <dc:creator>
     <cc:Agent>
      <dc:title>Matplotlib v3.5.1, https://matplotlib.org/</dc:title>
     </cc:Agent>
    </dc:creator>
   </cc:Work>
  </rdf:RDF>
 </metadata>
 <defs>
  <style type="text/css">*{stroke-linejoin: round; stroke-linecap: butt}</style>
 </defs>
 <g id="figure_1">
  <g id="patch_1">
   <path d="M 0 72 
L 900 72 
L 900 0 
L 0 0 
z
" style="fill: #8fff9f"/>
  </g>
  <g id="axes_1">
   <g id="patch_2">
    <path d="M 4.613462 35.932469 
Q 5.213297 35.257655 6.206772 34.826524 
Q 7.200248 34.395393 8.1 34.470372 
Q 8.737324 34.470372 9.22469 34.639076 
Q 9.712055 34.807779 10.030717 34.995228 
Q 10.349379 35.182676 10.574317 35.670041 
Q 10.799255 36.157407 10.911724 36.419834 
Q 11.024193 36.682262 11.080428 37.375821 
Q 11.136662 38.069379 11.155407 38.331807 
Q 11.174152 38.594234 11.155407 39.419007 
Q 11.136662 40.243779 11.136662 40.431228 
Q 11.136662 41.368469 10.967959 43.242952 
Q 10.799255 45.117434 10.799255 46.054676 
Q 10.799255 46.467062 10.85549 46.823214 
Q 10.911724 47.179366 11.005448 47.610497 
Q 11.099172 48.041628 11.136662 48.304055 
L 11.586538 48.528993 
M 5.063338 23.111007 
Q 5.288276 24.798041 5.288276 29.971614 
L 5.288276 42.3432 
L 4.950869 46.841959 
L 4.725931 47.74171 
" clip-path="url(#p04b74ad6f7)" style="fill: none; stroke: #000000; stroke-linejoin: miter"/>
   </g>
  </g>
  <g id="axes_2">
   <g id="patch_3">
    <path d="M 18.057798 38.160826 
Q 21.030275 39.535596 25.749083 39.721376 
Q 27.272477 39.721376 27.959862 38.550963 
Q 28.647248 37.38055 28.647248 35.82 
Q 28.647248 35.299817 28.554358 34.909679 
Q 28.461468 34.519541 28.219954 34.296606 
Q 27.97844 34.07367 27.811239 33.943624 
Q 27.644037 33.813578 27.198165 33.757844 
Q 26.752294 33.70211 26.547936 33.683532 
Q 26.343578 33.664954 25.767661 33.683532 
Q 25.191743 33.70211 24.968807 33.70211 
Q 22.925229 33.70211 21.438991 35.578486 
Q 19.952752 37.454862 19.952752 39.609908 
Q 19.952752 42.619541 21.884862 44.570229 
Q 23.816972 46.520917 26.863761 46.520917 
Q 29.018807 46.818165 30.542202 44.29156 
" clip-path="url(#p48fa32c6d6)" style="fill: none; stroke: #000000; stroke-linejoin: miter"/>
   </g>
  </g>
  <g id="axes_3">
   <g id="patch_4">
    <path d="M 46.043923 36.441748 
Q 44.834968 35.094627 40.862687 35.094627 
Q 39.342857 35.094627 38.565672 35.146439 
Q 37.788486 35.198252 36.78678 35.440043 
Q 35.785075 35.681834 35.301493 36.182687 
Q 34.81791 36.683539 34.472495 37.616162 
Q 34.127079 38.548785 34.127079 39.964989 
Q 34.127079 42.037484 35.543284 43.280981 
Q 36.959488 44.524478 38.893817 44.524478 
Q 41.553518 44.524478 44.316844 38.721493 
Q 45.663966 35.854542 45.663966 35.82 
Q 46.009382 35.578209 46.043923 36.441748 
Q 46.043923 37.512537 46.458422 40.362217 
Q 46.872921 43.211898 46.872921 44.524478 
" clip-path="url(#pcdec170a35)" style="fill: none; stroke: #000000; stroke-linejoin: miter"/>
   </g>
  </g>
  <g id="axes_4">
   <g id="patch_5">
    <path d="M 60.299007 39.568966 
Q 58.949379 38.181848 56.7 38.444276 
Q 53.850786 38.444276 52.688607 39.793903 
Q 51.526428 41.143531 51.526428 44.067724 
Q 51.526428 45.56731 52.819821 46.279614 
Q 54.113214 46.991917 55.687779 46.991917 
Q 56.999917 46.991917 58.012138 45.736014 
Q 59.024359 44.48011 59.605448 42.30571 
Q 60.186538 40.13131 60.561434 37.938166 
Q 60.936331 35.745021 61.08629 33.045766 
Q 61.236248 30.34651 61.273738 28.978138 
Q 61.311228 27.609766 61.311228 26.185159 
Q 61.08629 26.260138 61.08629 29.896634 
L 61.08629 44.292662 
L 61.873572 48.229076 
" clip-path="url(#p5198290374)" style="fill: none; stroke: #000000; stroke-linejoin: miter"/>
   </g>
  </g>
  <g id="axes_5">
   <g id="patch_6">
    <path d="M 72.787531 45.979697 
Q 72.750041 46.017186 72.618828 46.054676 
Q 72.487614 46.092166 72.525103 46.167145 
Q 72.525103 46.579531 72.9 46.579531 
Q 73.237407 46.579531 73.237407 46.092166 
Q 73.312386 45.867228 73.031214 45.754759 
Q 72.750041 45.64229 72.562593 45.754759 
" clip-path="url(#p7376afb2e5)" style="fill: none; stroke: #000000; stroke-linejoin: miter"/>
   </g>
  </g>
  <g id="axes_6"/>
  <g id="axes_7">
   <g id="patch_7">
    <path d="M 98.287248 30.470738 
L 99.461477 30.601208 
Q 101.288054 30.601208 103.125503 30.709933 
Q 104.962953 30.818658 107.202685 30.992617 
Q 109.442416 31.166577 110.877584 31.253557 
L 112.312752 31.123087 
M 105.071678 31.057852 
Q 105.136913 31.405772 104.875973 32.177718 
Q 104.615034 32.949664 104.810738 33.406309 
Q 104.810738 34.711007 104.952081 36.363624 
Q 105.093423 38.016242 105.310872 39.973289 
Q 105.528322 41.930336 105.593557 42.800134 
" clip-path="url(#p75459b0a9a)" style="fill: none; stroke: #000000; stroke-linejoin: miter"/>
   </g>
  </g>
  <g id="axes_8">
   <g id="patch_8">
    <path d="M 118.013462 35.932469 
Q 118.613297 35.257655 119.606772 34.826524 
Q 120.600248 34.395393 121.5 34.470372 
Q 122.137324 34.470372 122.62469 34.639076 
Q 123.112055 34.807779 123.430717 34.995228 
Q 123.749379 35.182676 123.974317 35.670041 
Q 124.199255 36.157407 124.311724 36.419834 
Q 124.424193 36.682262 124.480428 37.375821 
Q 124.536662 38.069379 124.555407 38.331807 
Q 124.574152 38.594234 124.555407 39.419007 
Q 124.536662 40.243779 124.536662 40.431228 
Q 124.536662 41.368469 124.367959 43.242952 
Q 124.199255 45.117434 124.199255 46.054676 
Q 124.199255 46.467062 124.25549 46.823214 
Q 124.311724 47.179366 124.405448 47.610497 
Q 124.499172 48.041628 124.536662 48.304055 
L 124.986538 48.528993 
M 118.463338 23.111007 
Q 118.688276 24.798041 118.688276 29.971614 
L 118.688276 42.3432 
L 118.350869 46.841959 
L 118.125931 47.74171 
" clip-path="url(#p076d0ab177)" style="fill: none; stroke: #000000; stroke-linejoin: miter"/>
   </g>
  </g>
  <g id="axes_9">
   <g id="patch_9">
    <path d="M 131.457798 38.160826 
Q 134.430275 39.535596 139.149083 39.721376 
Q 140.672477 39.721376 141.359862 38.550963 
Q 142.047248 37.38055 142.047248 35.82 
Q 142.047248 35.299817 141.954358 34.909679 
Q 141.861468 34.519541 141.619954 34.296606 
Q 141.37844 34.07367 141.211239 33.943624 
Q 141.044037 33.813578 140.598165 33.757844 
Q 140.152294 33.70211 139.947936 33.683532 
Q 139.743578 33.664954 139.167661 33.683532 
Q 138.591743 33.70211 138.368807 33.70211 
Q 136.325229 33.70211 134.838991 35.578486 
Q 133.352752 37.454862 133.352752 39.609908 
Q 133.352752 42.619541 135.284862 44.570229 
Q 137.216972 46.520917 140.263761 46.520917 
Q 142.418807 46.818165 143.942202 44.29156 
" clip-path="url(#p2c8955015e)" style="fill: none; stroke: #000000; stroke-linejoin: miter"/>
   </g>
  </g>
  <g id="axes_10">
   <g id="patch_10">
    <path d="M 150.413462 32.783338 
Q 150.938317 34.507862 151.069531 36.457324 
Q 151.200745 38.406786 151.125766 40.956083 
Q 151.050786 43.505379 151.088276 44.705048 
L 151.200745 46.054676 
L 151.200745 45.829738 
Q 151.200745 44.667559 150.919572 42.30571 
Q 150.6384 39.943862 150.6384 38.744193 
Q 150.6384 36.419834 151.650621 34.882759 
Q 152.662841 33.345683 154.687283 33.345683 
Q 155.399586 33.345683 155.736993 33.626855 
Q 156.0744 33.908028 156.336828 34.432883 
Q 156.599255 34.957738 156.936662 35.257655 
L 157.386538 36.832221 
" clip-path="url(#pe05394f84a)" style="fill: none; stroke: #000000; stroke-linejoin: miter"/>
   </g>
  </g>
  <g id="axes_11">
   <g id="patch_11">
    <path d="M 163.857798 38.160826 
Q 166.830275 39.535596 171.549083 39.721376 
Q 173.072477 39.721376 173.759862 38.550963 
Q 174.447248 37.38055 174.447248 35.82 
Q 174.447248 35.299817 174.354358 34.909679 
Q 174.261468 34.519541 174.019954 34.296606 
Q 173.77844 34.07367 173.611239 33.943624 
Q 173.444037 33.813578 172.998165 33.757844 
Q 172.552294 33.70211 172.347936 33.683532 
Q 172.143578 33.664954 171.567661 33.683532 
Q 170.991743 33.70211 170.768807 33.70211 
Q 168.725229 33.70211 167.238991 35.578486 
Q 165.752752 37.454862 165.752752 39.609908 
Q 165.752752 42.619541 167.684862 44.570229 
Q 169.616972 46.520917 172.663761 46.520917 
Q 174.818807 46.818165 176.342202 44.29156 
" clip-path="url(#p5470cf920a)" style="fill: none; stroke: #000000; stroke-linejoin: miter"/>
   </g>
  </g>
  <g id="axes_12">
   <g id="patch_12">
    <path d="M 186.225021 26.147669 
Q 186.187531 26.597545 186.225021 27.384828 
Q 186.26251 27.572276 186.206276 27.965917 
Q 186.150041 28.359559 186.187531 28.678221 
Q 186.225021 28.996883 186.449959 29.184331 
" clip-path="url(#p6bf76efb08)" style="fill: none; stroke: #000000; stroke-linejoin: miter"/>
   </g>
  </g>
  <g id="axes_13">
   <g id="patch_13">
    <path d="M 198.057476 43.917766 
Q 198.357393 44.180193 199.369614 45.154924 
Q 200.381834 46.129655 200.944179 46.560786 
Q 201.506524 46.991917 202.53749 47.385559 
Q 203.568455 47.7792 204.580676 47.629241 
Q 205.25549 47.629241 205.72411 47.404303 
Q 206.192731 47.179366 206.417669 46.879448 
Q 206.642607 46.579531 206.773821 45.979697 
Q 206.905034 45.379862 206.923779 44.967476 
Q 206.942524 44.55509 206.942524 43.805297 
Q 206.942524 42.718097 206.042772 42.043283 
Q 205.143021 41.368469 203.849628 41.031062 
Q 202.556234 40.693655 201.262841 40.300014 
Q 199.969448 39.906372 199.069697 38.987876 
Q 198.169945 38.069379 198.169945 36.607283 
Q 198.169945 36.082428 198.338648 35.726276 
Q 198.507352 35.370124 198.900993 35.145186 
Q 199.294634 34.920248 199.575807 34.807779 
Q 199.856979 34.69531 200.513048 34.639076 
Q 201.169117 34.582841 201.356566 34.582841 
Q 201.544014 34.582841 202.218828 34.582841 
Q 203.418497 34.582841 203.999586 34.995228 
Q 204.580676 35.407614 204.899338 36.026193 
Q 205.218 36.644772 205.480428 36.832221 
" clip-path="url(#p87afb322d5)" style="fill: none; stroke: #000000; stroke-linejoin: miter"/>
   </g>
  </g>
  <g id="axes_14"/>
  <g id="axes_15">
   <g id="patch_14">
    <path d="M 230.063834 37.95691 
L 230.738648 37.95691 
Q 231.450952 37.95691 232.238234 37.881931 
Q 233.025517 37.806952 233.981503 37.675738 
Q 234.93749 37.544524 235.462345 37.507034 
L 239.736166 35.82 
M 235.687283 30.42149 
L 235.687283 31.43371 
Q 235.687283 33.383172 235.012469 37.207117 
Q 234.337655 41.031062 234.337655 43.018014 
Q 234.337655 43.805297 234.337655 44.105214 
Q 234.337655 44.405131 234.431379 45.042455 
Q 234.525103 45.679779 234.712552 45.960952 
Q 234.9 46.242124 235.293641 46.485807 
Q 235.687283 46.72949 236.249628 46.72949 
Q 236.362097 46.692 236.680759 46.72949 
Q 236.999421 46.766979 237.186869 46.710745 
Q 237.374317 46.65451 237.374317 46.392083 
" clip-path="url(#pa08fdc06f5)" style="fill: none; stroke: #000000; stroke-linejoin: miter"/>
   </g>
  </g>
  <g id="axes_16">
   <g id="patch_15">
    <path d="M 244.857798 38.160826 
Q 247.830275 39.535596 252.549083 39.721376 
Q 254.072477 39.721376 254.759862 38.550963 
Q 255.447248 37.38055 255.447248 35.82 
Q 255.447248 35.299817 255.354358 34.909679 
Q 255.261468 34.519541 255.019954 34.296606 
Q 254.77844 34.07367 254.611239 33.943624 
Q 254.444037 33.813578 253.998165 33.757844 
Q 253.552294 33.70211 253.347936 33.683532 
Q 253.143578 33.664954 252.567661 33.683532 
Q 251.991743 33.70211 251.768807 33.70211 
Q 249.725229 33.70211 248.238991 35.578486 
Q 246.752752 37.454862 246.752752 39.609908 
Q 246.752752 42.619541 248.684862 44.570229 
Q 250.616972 46.520917 253.663761 46.520917 
Q 255.818807 46.818165 257.342202 44.29156 
" clip-path="url(#p7d4b276949)" style="fill: none; stroke: #000000; stroke-linejoin: miter"/>
   </g>
  </g>
  <g id="axes_17">
   <g id="patch_16">
    <path d="M 272.843923 36.441748 
Q 271.634968 35.094627 267.662687 35.094627 
Q 266.142857 35.094627 265.365672 35.146439 
Q 264.588486 35.198252 263.58678 35.440043 
Q 262.585075 35.681834 262.101493 36.182687 
Q 261.61791 36.683539 261.272495 37.616162 
Q 260.927079 38.548785 260.927079 39.964989 
Q 260.927079 42.037484 262.343284 43.280981 
Q 263.759488 44.524478 265.693817 44.524478 
Q 268.353518 44.524478 271.116844 38.721493 
Q 272.463966 35.854542 272.463966 35.82 
Q 272.809382 35.578209 272.843923 36.441748 
Q 272.843923 37.512537 273.258422 40.362217 
Q 273.672921 43.211898 273.672921 44.524478 
" clip-path="url(#p2f8ad02b06)" style="fill: none; stroke: #000000; stroke-linejoin: miter"/>
   </g>
  </g>
  <g id="axes_18"/>
  <g id="axes_19">
   <g id="patch_17">
    <path d="M 300.318579 29.071862 
Q 299.943683 29.146841 299.812469 29.577972 
Q 299.681255 30.009103 299.756234 30.42149 
Q 299.756234 30.571448 299.793724 30.702662 
Q 299.831214 30.833876 299.887448 30.89011 
Q 299.943683 30.946345 299.999917 31.040069 
Q 300.056152 31.133793 300.093641 31.208772 
L 300.20611 29.859145 
M 300.20611 34.020497 
Q 299.306359 39.006621 299.081421 42.793076 
L 299.531297 45.379862 
L 299.868703 46.054676 
" clip-path="url(#p223017d9b3)" style="fill: none; stroke: #000000; stroke-linejoin: miter"/>
   </g>
  </g>
  <g id="axes_20">
   <g id="patch_18">
    <path d="M 311.438731 37.282097 
L 311.438731 37.844441 
Q 311.701159 39.868883 311.738648 41.312234 
Q 311.776138 42.755586 311.682414 44.667559 
Q 311.58869 46.579531 311.58869 48.191586 
L 311.663669 39.643945 
Q 311.663669 38.144359 313.256979 37.507034 
Q 314.85029 36.86971 316.274897 37.282097 
Q 318.186869 37.844441 319.105366 39.04411 
Q 320.023862 40.243779 320.080097 41.668386 
Q 320.136331 43.092993 320.173821 44.817517 
Q 320.21131 46.542041 320.361269 48.191586 
" clip-path="url(#p6228e33f09)" style="fill: none; stroke: #000000; stroke-linejoin: miter"/>
   </g>
  </g>
  <g id="axes_21"/>
  <g id="axes_22">
   <g id="patch_19">
    <path d="M 343.463834 37.95691 
L 344.138648 37.95691 
Q 344.850952 37.95691 345.638234 37.881931 
Q 346.425517 37.806952 347.381503 37.675738 
Q 348.33749 37.544524 348.862345 37.507034 
L 353.136166 35.82 
M 349.087283 30.42149 
L 349.087283 31.43371 
Q 349.087283 33.383172 348.412469 37.207117 
Q 347.737655 41.031062 347.737655 43.018014 
Q 347.737655 43.805297 347.737655 44.105214 
Q 347.737655 44.405131 347.831379 45.042455 
Q 347.925103 45.679779 348.112552 45.960952 
Q 348.3 46.242124 348.693641 46.485807 
Q 349.087283 46.72949 349.649628 46.72949 
Q 349.762097 46.692 350.080759 46.72949 
Q 350.399421 46.766979 350.586869 46.710745 
Q 350.774317 46.65451 350.774317 46.392083 
" clip-path="url(#p91a54acb9b)" style="fill: none; stroke: #000000; stroke-linejoin: miter"/>
   </g>
  </g>
  <g id="axes_23">
   <g id="patch_20">
    <path d="M 361.013462 35.932469 
Q 361.613297 35.257655 362.606772 34.826524 
Q 363.600248 34.395393 364.5 34.470372 
Q 365.137324 34.470372 365.62469 34.639076 
Q 366.112055 34.807779 366.430717 34.995228 
Q 366.749379 35.182676 366.974317 35.670041 
Q 367.199255 36.157407 367.311724 36.419834 
Q 367.424193 36.682262 367.480428 37.375821 
Q 367.536662 38.069379 367.555407 38.331807 
Q 367.574152 38.594234 367.555407 39.419007 
Q 367.536662 40.243779 367.536662 40.431228 
Q 367.536662 41.368469 367.367959 43.242952 
Q 367.199255 45.117434 367.199255 46.054676 
Q 367.199255 46.467062 367.25549 46.823214 
Q 367.311724 47.179366 367.405448 47.610497 
Q 367.499172 48.041628 367.536662 48.304055 
L 367.986538 48.528993 
M 361.463338 23.111007 
Q 361.688276 24.798041 361.688276 29.971614 
L 361.688276 42.3432 
L 361.350869 46.841959 
L 361.125931 47.74171 
" clip-path="url(#p3b3252c31e)" style="fill: none; stroke: #000000; stroke-linejoin: miter"/>
   </g>
  </g>
  <g id="axes_24">
   <g id="patch_21">
    <path d="M 374.457798 38.160826 
Q 377.430275 39.535596 382.149083 39.721376 
Q 383.672477 39.721376 384.359862 38.550963 
Q 385.047248 37.38055 385.047248 35.82 
Q 385.047248 35.299817 384.954358 34.909679 
Q 384.861468 34.519541 384.619954 34.296606 
Q 384.37844 34.07367 384.211239 33.943624 
Q 384.044037 33.813578 383.598165 33.757844 
Q 383.152294 33.70211 382.947936 33.683532 
Q 382.743578 33.664954 382.167661 33.683532 
Q 381.591743 33.70211 381.368807 33.70211 
Q 379.325229 33.70211 377.838991 35.578486 
Q 376.352752 37.454862 376.352752 39.609908 
Q 376.352752 42.619541 378.284862 44.570229 
Q 380.216972 46.520917 383.263761 46.520917 
Q 385.418807 46.818165 386.942202 44.29156 
" clip-path="url(#p9795a6e070)" style="fill: none; stroke: #000000; stroke-linejoin: miter"/>
   </g>
  </g>
  <g id="axes_25"/>
  <g id="axes_26">
   <g id="patch_22">
    <path d="M 408.320069 39.868883 
L 408.320069 39.419007 
Q 408.320069 37.769462 410.063338 36.682262 
Q 411.806607 35.595062 413.493641 35.595062 
Q 415.705531 35.595062 417.073903 36.794731 
Q 418.442276 37.9944 418.442276 40.20629 
Q 418.442276 42.30571 416.624028 43.336676 
Q 414.805779 44.367641 412.59389 44.367641 
Q 411.919076 44.367641 411.412966 44.255172 
Q 410.906855 44.142703 410.288276 43.917766 
Q 409.669697 43.692828 409.219821 43.580359 
L 408.095131 42.568138 
M 407.757724 36.832221 
Q 408.2076 38.444276 408.470028 40.262524 
Q 408.732455 42.080772 408.78869 43.749062 
Q 408.844924 45.417352 408.882414 47.27309 
Q 408.919903 49.128828 408.882414 50.778372 
L 408.769945 57.863917 
" clip-path="url(#p52178417f2)" style="fill: none; stroke: #000000; stroke-linejoin: miter"/>
   </g>
  </g>
  <g id="axes_27">
   <g id="patch_23">
    <path d="M 432.5616 35.032717 
Q 431.51189 34.582841 430.537159 34.69531 
Q 427.500497 35.032717 425.588524 36.701007 
Q 423.676552 38.369297 423.676552 41.330979 
Q 423.676552 43.917766 425.682248 45.6048 
Q 427.687945 47.291834 430.312221 47.291834 
Q 432.674069 47.291834 433.798759 45.361117 
Q 434.923448 43.4304 434.923448 40.881103 
Q 434.923448 39.643945 434.511062 38.706703 
Q 434.098676 37.769462 433.573821 37.300841 
Q 433.048966 36.832221 432.299172 36.119917 
Q 431.549379 35.407614 431.099503 34.69531 
L 429.862345 34.245434 
" clip-path="url(#p53f4eebc61)" style="fill: none; stroke: #000000; stroke-linejoin: miter"/>
   </g>
  </g>
  <g id="axes_28">
   <g id="patch_24">
    <path d="M 440.663834 37.95691 
L 441.338648 37.95691 
Q 442.050952 37.95691 442.838234 37.881931 
Q 443.625517 37.806952 444.581503 37.675738 
Q 445.53749 37.544524 446.062345 37.507034 
L 450.336166 35.82 
M 446.287283 30.42149 
L 446.287283 31.43371 
Q 446.287283 33.383172 445.612469 37.207117 
Q 444.937655 41.031062 444.937655 43.018014 
Q 444.937655 43.805297 444.937655 44.105214 
Q 444.937655 44.405131 445.031379 45.042455 
Q 445.125103 45.679779 445.312552 45.960952 
Q 445.5 46.242124 445.893641 46.485807 
Q 446.287283 46.72949 446.849628 46.72949 
Q 446.962097 46.692 447.280759 46.72949 
Q 447.599421 46.766979 447.786869 46.710745 
Q 447.974317 46.65451 447.974317 46.392083 
" clip-path="url(#pda1f7f0b87)" style="fill: none; stroke: #000000; stroke-linejoin: miter"/>
   </g>
  </g>
  <g id="axes_29">
   <g id="patch_25">
    <path d="M 460.987697 39.981352 
Q 461.999917 40.956083 462.337324 42.905545 
Q 462.524772 43.955255 462.112386 46.167145 
L 460.875228 47.629241 
" clip-path="url(#p47d8611e5d)" style="fill: none; stroke: #000000; stroke-linejoin: miter"/>
   </g>
  </g>
  <g id="axes_30"/>
  <g id="axes_31">
   <g id="patch_26">
    <path d="M 499.643923 36.441748 
Q 498.434968 35.094627 494.462687 35.094627 
Q 492.942857 35.094627 492.165672 35.146439 
Q 491.388486 35.198252 490.38678 35.440043 
Q 489.385075 35.681834 488.901493 36.182687 
Q 488.41791 36.683539 488.072495 37.616162 
Q 487.727079 38.548785 487.727079 39.964989 
Q 487.727079 42.037484 489.143284 43.280981 
Q 490.559488 44.524478 492.493817 44.524478 
Q 495.153518 44.524478 497.916844 38.721493 
Q 499.263966 35.854542 499.263966 35.82 
Q 499.609382 35.578209 499.643923 36.441748 
Q 499.643923 37.512537 500.058422 40.362217 
Q 500.472921 43.211898 500.472921 44.524478 
" clip-path="url(#pb59b940ae2)" style="fill: none; stroke: #000000; stroke-linejoin: miter"/>
   </g>
  </g>
  <g id="axes_32">
   <g id="patch_27">
    <path d="M 505.838731 37.282097 
L 505.838731 37.844441 
Q 506.101159 39.868883 506.138648 41.312234 
Q 506.176138 42.755586 506.082414 44.667559 
Q 505.98869 46.579531 505.98869 48.191586 
L 506.063669 39.643945 
Q 506.063669 38.144359 507.656979 37.507034 
Q 509.25029 36.86971 510.674897 37.282097 
Q 512.586869 37.844441 513.505366 39.04411 
Q 514.423862 40.243779 514.480097 41.668386 
Q 514.536331 43.092993 514.573821 44.817517 
Q 514.61131 46.542041 514.761269 48.191586 
" clip-path="url(#p11267414f2)" style="fill: none; stroke: #000000; stroke-linejoin: miter"/>
   </g>
  </g>
  <g id="axes_33">
   <g id="patch_28">
    <path d="M 530.099007 39.568966 
Q 528.749379 38.181848 526.5 38.444276 
Q 523.650786 38.444276 522.488607 39.793903 
Q 521.326428 41.143531 521.326428 44.067724 
Q 521.326428 45.56731 522.619821 46.279614 
Q 523.913214 46.991917 525.487779 46.991917 
Q 526.799917 46.991917 527.812138 45.736014 
Q 528.824359 44.48011 529.405448 42.30571 
Q 529.986538 40.13131 530.361434 37.938166 
Q 530.736331 35.745021 530.88629 33.045766 
Q 531.036248 30.34651 531.073738 28.978138 
Q 531.111228 27.609766 531.111228 26.185159 
Q 530.88629 26.260138 530.88629 29.896634 
L 530.88629 44.292662 
L 531.673572 48.229076 
" clip-path="url(#p525213357f)" style="fill: none; stroke: #000000; stroke-linejoin: miter"/>
   </g>
  </g>
  <g id="axes_34"/>
  <g id="axes_35">
   <g id="patch_29">
    <path d="M 564.443923 36.441748 
Q 563.234968 35.094627 559.262687 35.094627 
Q 557.742857 35.094627 556.965672 35.146439 
Q 556.188486 35.198252 555.18678 35.440043 
Q 554.185075 35.681834 553.701493 36.182687 
Q 553.21791 36.683539 552.872495 37.616162 
Q 552.527079 38.548785 552.527079 39.964989 
Q 552.527079 42.037484 553.943284 43.280981 
Q 555.359488 44.524478 557.293817 44.524478 
Q 559.953518 44.524478 562.716844 38.721493 
Q 564.063966 35.854542 564.063966 35.82 
Q 564.409382 35.578209 564.443923 36.441748 
Q 564.443923 37.512537 564.858422 40.362217 
Q 565.272921 43.211898 565.272921 44.524478 
" clip-path="url(#pbec32c451b)" style="fill: none; stroke: #000000; stroke-linejoin: miter"/>
   </g>
  </g>
  <g id="axes_36"/>
  <g id="axes_37">
   <g id="patch_30">
    <path d="M 587.757228 37.244607 
Q 588.806938 37.207117 588.994386 37.132138 
Q 592.405945 37.132138 594.186703 39.212814 
Q 595.967462 41.29349 595.967462 44.780028 
Q 595.967462 47.704221 591.356234 47.704221 
Q 590.71891 47.704221 590.17531 47.591752 
Q 589.63171 47.479283 588.994386 47.254345 
Q 588.357062 47.029407 587.869697 46.916938 
L 586.632538 45.679779 
M 587.644759 25.435366 
L 587.644759 26.560055 
Q 587.644759 29.409269 587.757228 33.008276 
Q 587.869697 36.607283 588.057145 40.899848 
Q 588.244593 45.192414 588.319572 47.141876 
" clip-path="url(#pf92b6cb1e5)" style="fill: none; stroke: #000000; stroke-linejoin: miter"/>
   </g>
  </g>
  <g id="axes_38">
   <g id="patch_31">
    <path d="M 610.7616 35.032717 
Q 609.71189 34.582841 608.737159 34.69531 
Q 605.700497 35.032717 603.788524 36.701007 
Q 601.876552 38.369297 601.876552 41.330979 
Q 601.876552 43.917766 603.882248 45.6048 
Q 605.887945 47.291834 608.512221 47.291834 
Q 610.874069 47.291834 611.998759 45.361117 
Q 613.123448 43.4304 613.123448 40.881103 
Q 613.123448 39.643945 612.711062 38.706703 
Q 612.298676 37.769462 611.773821 37.300841 
Q 611.248966 36.832221 610.499172 36.119917 
Q 609.749379 35.407614 609.299503 34.69531 
L 608.062345 34.245434 
" clip-path="url(#p2fadc9bd4f)" style="fill: none; stroke: #000000; stroke-linejoin: miter"/>
   </g>
  </g>
  <g id="axes_39">
   <g id="patch_32">
    <path d="M 624.318579 29.071862 
Q 623.943683 29.146841 623.812469 29.577972 
Q 623.681255 30.009103 623.756234 30.42149 
Q 623.756234 30.571448 623.793724 30.702662 
Q 623.831214 30.833876 623.887448 30.89011 
Q 623.943683 30.946345 623.999917 31.040069 
Q 624.056152 31.133793 624.093641 31.208772 
L 624.20611 29.859145 
M 624.20611 34.020497 
Q 623.306359 39.006621 623.081421 42.793076 
L 623.531297 45.379862 
L 623.868703 46.054676 
" clip-path="url(#p5385f39f24)" style="fill: none; stroke: #000000; stroke-linejoin: miter"/>
   </g>
  </g>
  <g id="axes_40">
   <g id="patch_33">
    <path d="M 639.506359 28.621986 
Q 639.731297 30.34651 639.806276 32.146014 
Q 639.881255 33.945517 639.86251 36.551048 
Q 639.843766 39.156579 639.843766 40.093821 
Q 639.843766 40.13131 640.068703 45.829738 
L 640.293641 46.841959 
" clip-path="url(#p859dd5ecbb)" style="fill: none; stroke: #000000; stroke-linejoin: miter"/>
   </g>
  </g>
  <g id="axes_41">
   <g id="patch_34">
    <path d="M 649.857798 38.160826 
Q 652.830275 39.535596 657.549083 39.721376 
Q 659.072477 39.721376 659.759862 38.550963 
Q 660.447248 37.38055 660.447248 35.82 
Q 660.447248 35.299817 660.354358 34.909679 
Q 660.261468 34.519541 660.019954 34.296606 
Q 659.77844 34.07367 659.611239 33.943624 
Q 659.444037 33.813578 658.998165 33.757844 
Q 658.552294 33.70211 658.347936 33.683532 
Q 658.143578 33.664954 657.567661 33.683532 
Q 656.991743 33.70211 656.768807 33.70211 
Q 654.725229 33.70211 653.238991 35.578486 
Q 651.752752 37.454862 651.752752 39.609908 
Q 651.752752 42.619541 653.684862 44.570229 
Q 655.616972 46.520917 658.663761 46.520917 
Q 660.818807 46.818165 662.342202 44.29156 
" clip-path="url(#p16837d1154)" style="fill: none; stroke: #000000; stroke-linejoin: miter"/>
   </g>
  </g>
  <g id="axes_42">
   <g id="patch_35">
    <path d="M 675.899007 39.568966 
Q 674.549379 38.181848 672.3 38.444276 
Q 669.450786 38.444276 668.288607 39.793903 
Q 667.126428 41.143531 667.126428 44.067724 
Q 667.126428 45.56731 668.419821 46.279614 
Q 669.713214 46.991917 671.287779 46.991917 
Q 672.599917 46.991917 673.612138 45.736014 
Q 674.624359 44.48011 675.205448 42.30571 
Q 675.786538 40.13131 676.161434 37.938166 
Q 676.536331 35.745021 676.68629 33.045766 
Q 676.836248 30.34651 676.873738 28.978138 
Q 676.911228 27.609766 676.911228 26.185159 
Q 676.68629 26.260138 676.68629 29.896634 
L 676.68629 44.292662 
L 677.473572 48.229076 
" clip-path="url(#pad892823c4)" style="fill: none; stroke: #000000; stroke-linejoin: miter"/>
   </g>
  </g>
  <g id="axes_43"/>
  <g id="axes_44">
   <g id="patch_36">
    <path d="M 698.457798 38.160826 
Q 701.430275 39.535596 706.149083 39.721376 
Q 707.672477 39.721376 708.359862 38.550963 
Q 709.047248 37.38055 709.047248 35.82 
Q 709.047248 35.299817 708.954358 34.909679 
Q 708.861468 34.519541 708.619954 34.296606 
Q 708.37844 34.07367 708.211239 33.943624 
Q 708.044037 33.813578 707.598165 33.757844 
Q 707.152294 33.70211 706.947936 33.683532 
Q 706.743578 33.664954 706.167661 33.683532 
Q 705.591743 33.70211 705.368807 33.70211 
Q 703.325229 33.70211 701.838991 35.578486 
Q 700.352752 37.454862 700.352752 39.609908 
Q 700.352752 42.619541 702.284862 44.570229 
Q 704.216972 46.520917 707.263761 46.520917 
Q 709.418807 46.818165 710.942202 44.29156 
" clip-path="url(#p77c20c81e1)" style="fill: none; stroke: #000000; stroke-linejoin: miter"/>
   </g>
  </g>
  <g id="axes_45">
   <g id="patch_37">
    <path d="M 725.687191 39.096404 
Q 725.43236 39.023596 724.46764 38.623146 
Q 723.502921 38.222697 722.84764 38.077079 
Q 722.19236 37.931461 721.537079 38.00427 
Q 718.915955 38.00427 717.277753 40.388764 
Q 715.639551 42.773258 715.639551 45.430787 
Q 715.639551 47.068989 720.881798 47.068989 
Q 722.447191 47.068989 723.775955 45.558202 
Q 725.104719 44.047416 725.778202 42.172584 
Q 726.451685 40.297753 726.451685 38.768764 
Q 726.451685 37.27618 726.415281 36.984944 
L 726.342472 38.077079 
Q 726.342472 38.550337 726.342472 38.987191 
Q 726.378876 40.188539 726.579101 42.281798 
Q 726.779326 44.375056 726.943146 46.049663 
Q 727.106966 47.72427 727.143371 49.872135 
Q 727.179775 52.02 727.015955 53.658202 
Q 726.852135 55.296404 726.287865 56.971011 
Q 725.723596 58.645618 724.795281 59.737753 
Q 723.866966 60.829888 722.265169 61.521573 
Q 720.663371 62.213258 718.515506 62.213258 
Q 716.877303 62.213258 715.785169 61.466966 
Q 714.693034 60.720674 714.693034 59.155281 
Q 714.620225 58.936854 714.656629 58.936854 
Q 714.693034 58.936854 714.802247 58.936854 
Q 714.911461 58.936854 714.911461 58.82764 
" clip-path="url(#pa32ec112c7)" style="fill: none; stroke: #000000; stroke-linejoin: miter"/>
   </g>
  </g>
  <g id="axes_46">
   <g id="patch_38">
    <path d="M 741.887191 39.096404 
Q 741.63236 39.023596 740.66764 38.623146 
Q 739.702921 38.222697 739.04764 38.077079 
Q 738.39236 37.931461 737.737079 38.00427 
Q 735.115955 38.00427 733.477753 40.388764 
Q 731.839551 42.773258 731.839551 45.430787 
Q 731.839551 47.068989 737.081798 47.068989 
Q 738.647191 47.068989 739.975955 45.558202 
Q 741.304719 44.047416 741.978202 42.172584 
Q 742.651685 40.297753 742.651685 38.768764 
Q 742.651685 37.27618 742.615281 36.984944 
L 742.542472 38.077079 
Q 742.542472 38.550337 742.542472 38.987191 
Q 742.578876 40.188539 742.779101 42.281798 
Q 742.979326 44.375056 743.143146 46.049663 
Q 743.306966 47.72427 743.343371 49.872135 
Q 743.379775 52.02 743.215955 53.658202 
Q 743.052135 55.296404 742.487865 56.971011 
Q 741.923596 58.645618 740.995281 59.737753 
Q 740.066966 60.829888 738.465169 61.521573 
Q 736.863371 62.213258 734.715506 62.213258 
Q 733.077303 62.213258 731.985169 61.466966 
Q 730.893034 60.720674 730.893034 59.155281 
Q 730.820225 58.936854 730.856629 58.936854 
Q 730.893034 58.936854 731.002247 58.936854 
Q 731.111461 58.936854 731.111461 58.82764 
" clip-path="url(#pd523537957)" style="fill: none; stroke: #000000; stroke-linejoin: miter"/>
   </g>
  </g>
  <g id="axes_47"/>
  <g id="axes_48">
   <g id="patch_39">
    <path d="M 763.184141 38.85304 
L 763.612335 38.85304 
Q 764.43304 38.85304 765.396476 38.745991 
Q 766.359912 38.638943 767.519604 38.460529 
Q 768.679295 38.282115 769.285903 38.210749 
L 775.815859 35.427489 
M 775.494714 25.793128 
Q 775.209251 25.721762 774.174449 25.275727 
Q 773.139648 24.829692 772.497357 24.93674 
Q 771.855066 24.93674 771.337665 25.150837 
Q 770.820264 25.364934 770.481278 25.793128 
Q 770.142291 26.221322 769.87467 26.685198 
Q 769.607048 27.149075 769.464317 27.862731 
Q 769.321586 28.576388 769.214537 29.129471 
Q 769.107489 29.682555 769.089648 30.50326 
Q 769.071806 31.323965 769.053965 31.77 
Q 769.036123 32.216035 769.053965 32.965374 
Q 769.071806 33.714714 769.071806 33.928811 
Q 769.071806 36.605022 769.767621 41.850396 
Q 770.463436 47.095771 770.463436 49.771982 
Q 770.39207 50.057445 770.356388 50.681894 
Q 770.320705 51.306344 770.213656 51.805903 
Q 770.106608 52.305463 769.821145 52.555242 
" clip-path="url(#pb7b34620d9)" style="fill: none; stroke: #000000; stroke-linejoin: miter"/>
   </g>
  </g>
  <g id="axes_49">
   <g id="patch_40">
    <path d="M 788.9616 35.032717 
Q 787.91189 34.582841 786.937159 34.69531 
Q 783.900497 35.032717 781.988524 36.701007 
Q 780.076552 38.369297 780.076552 41.330979 
Q 780.076552 43.917766 782.082248 45.6048 
Q 784.087945 47.291834 786.712221 47.291834 
Q 789.074069 47.291834 790.198759 45.361117 
Q 791.323448 43.4304 791.323448 40.881103 
Q 791.323448 39.643945 790.911062 38.706703 
Q 790.498676 37.769462 789.973821 37.300841 
Q 789.448966 36.832221 788.699172 36.119917 
Q 787.949379 35.407614 787.499503 34.69531 
L 786.262345 34.245434 
" clip-path="url(#padc1831a04)" style="fill: none; stroke: #000000; stroke-linejoin: miter"/>
   </g>
  </g>
  <g id="axes_50">
   <g id="patch_41">
    <path d="M 798.413462 32.783338 
Q 798.938317 34.507862 799.069531 36.457324 
Q 799.200745 38.406786 799.125766 40.956083 
Q 799.050786 43.505379 799.088276 44.705048 
L 799.200745 46.054676 
L 799.200745 45.829738 
Q 799.200745 44.667559 798.919572 42.30571 
Q 798.6384 39.943862 798.6384 38.744193 
Q 798.6384 36.419834 799.650621 34.882759 
Q 800.662841 33.345683 802.687283 33.345683 
Q 803.399586 33.345683 803.736993 33.626855 
Q 804.0744 33.908028 804.336828 34.432883 
Q 804.599255 34.957738 804.936662 35.257655 
L 805.386538 36.832221 
" clip-path="url(#p99e908d790)" style="fill: none; stroke: #000000; stroke-linejoin: miter"/>
   </g>
  </g>
 </g>
 <defs>
  <clipPath id="p04b74ad6f7">
   <rect x="2.738979" y="8.64" width="10.722041" height="54.36"/>
  </clipPath>
  <clipPath id="p48fa32c6d6">
   <rect x="16.2" y="8.881927" width="16.2" height="53.876147"/>
  </clipPath>
  <clipPath id="pcdec170a35">
   <rect x="32.4" y="10.777356" width="16.2" height="50.085288"/>
  </clipPath>
  <clipPath id="p5198290374">
   <rect x="49.651945" y="8.64" width="14.09611" height="54.36"/>
  </clipPath>
  <clipPath id="p7376afb2e5">
   <rect x="70.613131" y="8.64" width="4.573738" height="54.36"/>
  </clipPath>
  <clipPath id="p75459b0a9a">
   <rect x="97.2" y="20.054899" width="16.2" height="31.530201"/>
  </clipPath>
  <clipPath id="p076d0ab177">
   <rect x="116.138979" y="8.64" width="10.722041" height="54.36"/>
  </clipPath>
  <clipPath id="p2c8955015e">
   <rect x="129.6" y="8.881927" width="16.2" height="53.876147"/>
  </clipPath>
  <clipPath id="pe05394f84a">
   <rect x="148.538979" y="8.64" width="10.722041" height="54.36"/>
  </clipPath>
  <clipPath id="p5470cf920a">
   <rect x="162" y="8.881927" width="16.2" height="53.876147"/>
  </clipPath>
  <clipPath id="p6bf76efb08">
   <rect x="184.275559" y="8.64" width="4.048883" height="54.36"/>
  </clipPath>
  <clipPath id="p87afb322d5">
   <rect x="196.182993" y="8.64" width="12.634014" height="54.36"/>
  </clipPath>
  <clipPath id="pa08fdc06f5">
   <rect x="228.189352" y="8.64" width="13.421297" height="54.36"/>
  </clipPath>
  <clipPath id="p7d4b276949">
   <rect x="243" y="8.881927" width="16.2" height="53.876147"/>
  </clipPath>
  <clipPath id="p2f8ad02b06">
   <rect x="259.2" y="10.777356" width="16.2" height="50.085288"/>
  </clipPath>
  <clipPath id="p223017d9b3">
   <rect x="297.206938" y="8.64" width="4.986124" height="54.36"/>
  </clipPath>
  <clipPath id="p6228e33f09">
   <rect x="309.564248" y="8.64" width="12.671503" height="54.36"/>
  </clipPath>
  <clipPath id="p91a54acb9b">
   <rect x="341.589352" y="8.64" width="13.421297" height="54.36"/>
  </clipPath>
  <clipPath id="p3b3252c31e">
   <rect x="359.138979" y="8.64" width="10.722041" height="54.36"/>
  </clipPath>
  <clipPath id="p9795a6e070">
   <rect x="372.6" y="8.881927" width="16.2" height="53.876147"/>
  </clipPath>
  <clipPath id="p52178417f2">
   <rect x="405.883241" y="8.64" width="14.433517" height="54.36"/>
  </clipPath>
  <clipPath id="p53f4eebc61">
   <rect x="421.802069" y="8.64" width="14.995862" height="54.36"/>
  </clipPath>
  <clipPath id="pda1f7f0b87">
   <rect x="438.789352" y="8.64" width="13.421297" height="54.36"/>
  </clipPath>
  <clipPath id="p47d8611e5d">
   <rect x="459.000745" y="8.64" width="5.39851" height="54.36"/>
  </clipPath>
  <clipPath id="pb59b940ae2">
   <rect x="486" y="10.777356" width="16.2" height="50.085288"/>
  </clipPath>
  <clipPath id="p11267414f2">
   <rect x="503.964248" y="8.64" width="12.671503" height="54.36"/>
  </clipPath>
  <clipPath id="p525213357f">
   <rect x="519.451945" y="8.64" width="14.09611" height="54.36"/>
  </clipPath>
  <clipPath id="pbec32c451b">
   <rect x="550.8" y="10.777356" width="16.2" height="50.085288"/>
  </clipPath>
  <clipPath id="pf92b6cb1e5">
   <rect x="584.758055" y="8.64" width="13.08389" height="54.36"/>
  </clipPath>
  <clipPath id="p2fadc9bd4f">
   <rect x="600.002069" y="8.64" width="14.995862" height="54.36"/>
  </clipPath>
  <clipPath id="p5385f39f24">
   <rect x="621.206938" y="8.64" width="4.986124" height="54.36"/>
  </clipPath>
  <clipPath id="p859dd5ecbb">
   <rect x="637.631876" y="8.64" width="4.536248" height="54.36"/>
  </clipPath>
  <clipPath id="p16837d1154">
   <rect x="648" y="8.881927" width="16.2" height="53.876147"/>
  </clipPath>
  <clipPath id="pad892823c4">
   <rect x="665.251945" y="8.64" width="14.09611" height="54.36"/>
  </clipPath>
  <clipPath id="p77c20c81e1">
   <rect x="696.6" y="8.881927" width="16.2" height="53.876147"/>
  </clipPath>
  <clipPath id="pa32ec112c7">
   <rect x="712.8" y="9.426742" width="16.2" height="52.786517"/>
  </clipPath>
  <clipPath id="pd523537957">
   <rect x="729" y="9.426742" width="16.2" height="52.786517"/>
  </clipPath>
  <clipPath id="pb7b34620d9">
   <rect x="761.4" y="9.949956" width="16.2" height="51.740088"/>
  </clipPath>
  <clipPath id="padc1831a04">
   <rect x="778.202069" y="8.64" width="14.995862" height="54.36"/>
  </clipPath>
  <clipPath id="p99e908d790">
   <rect x="796.538979" y="8.64" width="10.722041" height="54.36"/>
  </clipPath>
 </defs>
</svg>
