<?xml version="1.0" encoding="utf-8" standalone="no"?>
<!DOCTYPE svg PUBLIC "-//W3C//DTD SVG 1.1//EN"
  "http://www.w3.org/Graphics/SVG/1.1/DTD/svg11.dtd">
<svg xmlns:xlink="http://www.w3.org/1999/xlink" width="90pt" height="72pt" viewBox="0 0 90 72" xmlns="http://www.w3.org/2000/svg" version="1.1">
 <metadata>
  <rdf:RDF xmlns:dc="http://purl.org/dc/elements/1.1/" xmlns:cc="http://creativecommons.org/ns#" xmlns:rdf="http://www.w3.org/1999/02/22-rdf-syntax-ns#">
   <cc:Work>
    <dc:type rdf:resource="http://purl.org/dc/dcmitype/StillImage"/>
    <dc:date>2023-12-21T12:06:30.348750</dc:date>
    <dc:format>image/svg+xml</dc:format>
    <dc:creator>
     <cc:Agent>
      <dc:title>Matplotlib v3.5.1, https://matplotlib.org/</dc:title>
     </cc:Agent>
    </dc:creator>
   </cc:Work>
  </rdf:RDF>
 </metadata>
 <defs>
  <style type="text/css">*{stroke-linejoin: round; stroke-linecap: butt}</style>
 </defs>
 <g id="figure_1">
  <g id="patch_1">
   <path d="M 0 72 
L 90 72 
L 90 0 
L 0 0 
z
" style="fill: #8fff9f"/>
  </g>
  <g id="axes_1">
   <g id="patch_2">
    <path d="M 1.784141 38.85304 
L 2.212335 38.85304 
Q 3.03304 38.85304 3.996476 38.745991 
Q 4.959912 38.638943 6.119604 38.460529 
Q 7.279295 38.282115 7.885903 38.210749 
L 14.415859 35.427489 
M 14.094714 25.793128 
Q 13.809251 25.721762 12.774449 25.275727 
Q 11.739648 24.829692 11.097357 24.93674 
Q 10.455066 24.93674 9.937665 25.150837 
Q 9.420264 25.364934 9.081278 25.793128 
Q 8.742291 26.221322 8.47467 26.685198 
Q 8.207048 27.149075 8.064317 27.862731 
Q 7.921586 28.576388 7.814537 29.129471 
Q 7.707489 29.682555 7.689648 30.50326 
Q 7.671806 31.323965 7.653965 31.77 
Q 7.636123 32.216035 7.653965 32.965374 
Q 7.671806 33.714714 7.671806 33.928811 
Q 7.671806 36.605022 8.367621 41.850396 
Q 9.063436 47.095771 9.063436 49.771982 
Q 8.99207 50.057445 8.956388 50.681894 
Q 8.920705 51.306344 8.813656 51.805903 
Q 8.706608 52.305463 8.421145 52.555242 
" clip-path="url(#pee1381c1fb)" style="fill: none; stroke: #000000; stroke-linejoin: miter"/>
   </g>
  </g>
  <g id="axes_2">
   <g id="patch_3">
    <path d="M 29.843923 36.441748 
Q 28.634968 35.094627 24.662687 35.094627 
Q 23.142857 35.094627 22.365672 35.146439 
Q 21.588486 35.198252 20.58678 35.440043 
Q 19.585075 35.681834 19.101493 36.182687 
Q 18.61791 36.683539 18.272495 37.616162 
Q 17.927079 38.548785 17.927079 39.964989 
Q 17.927079 42.037484 19.343284 43.280981 
Q 20.759488 44.524478 22.693817 44.524478 
Q 25.353518 44.524478 28.116844 38.721493 
Q 29.463966 35.854542 29.463966 35.82 
Q 29.809382 35.578209 29.843923 36.441748 
Q 29.843923 37.512537 30.258422 40.362217 
Q 30.672921 43.211898 30.672921 44.524478 
" clip-path="url(#p47c49650f8)" style="fill: none; stroke: #000000; stroke-linejoin: miter"/>
   </g>
  </g>
  <g id="axes_3">
   <g id="patch_4">
    <path d="M 45.756735 34.365306 
Q 45.756735 34.365306 45.260816 34.365306 
Q 44.467347 34.365306 42.979592 34.067755 
Q 41.491837 33.770204 40.698367 33.770204 
Q 37.921224 33.770204 35.987143 35.224898 
Q 34.053061 36.679592 34.053061 39.423673 
Q 34.053061 40.94449 35.540816 42.399184 
Q 37.028571 43.853878 38.962653 44.663878 
Q 40.896735 45.473878 42.38449 45.473878 
Q 43.310204 45.473878 44.00449 45.110204 
Q 44.698776 44.746531 45.442653 44.118367 
Q 46.186531 43.490204 46.748571 43.192653 
L 46.946939 42.696735 
" clip-path="url(#p4585ae1cbf)" style="fill: none; stroke: #000000; stroke-linejoin: miter"/>
   </g>
  </g>
  <g id="axes_4">
   <g id="patch_5">
    <path d="M 50.457798 38.160826 
Q 53.430275 39.535596 58.149083 39.721376 
Q 59.672477 39.721376 60.359862 38.550963 
Q 61.047248 37.38055 61.047248 35.82 
Q 61.047248 35.299817 60.954358 34.909679 
Q 60.861468 34.519541 60.619954 34.296606 
Q 60.37844 34.07367 60.211239 33.943624 
Q 60.044037 33.813578 59.598165 33.757844 
Q 59.152294 33.70211 58.947936 33.683532 
Q 58.743578 33.664954 58.167661 33.683532 
Q 57.591743 33.70211 57.368807 33.70211 
Q 55.325229 33.70211 53.838991 35.578486 
Q 52.352752 37.454862 52.352752 39.609908 
Q 52.352752 42.619541 54.284862 44.570229 
Q 56.216972 46.520917 59.263761 46.520917 
Q 61.418807 46.818165 62.942202 44.29156 
" clip-path="url(#p1bf6b55ee1)" style="fill: none; stroke: #000000; stroke-linejoin: miter"/>
   </g>
  </g>
  <g id="axes_5">
   <g id="patch_6">
    <path d="M 72.787531 45.979697 
Q 72.750041 46.017186 72.618828 46.054676 
Q 72.487614 46.092166 72.525103 46.167145 
Q 72.525103 46.579531 72.9 46.579531 
Q 73.237407 46.579531 73.237407 46.092166 
Q 73.312386 45.867228 73.031214 45.754759 
Q 72.750041 45.64229 72.562593 45.754759 
" clip-path="url(#p8f4d8c5139)" style="fill: none; stroke: #000000; stroke-linejoin: miter"/>
   </g>
  </g>
 </g>
 <defs>
  <clipPath id="pee1381c1fb">
   <rect x="0" y="9.949956" width="16.2" height="51.740088"/>
  </clipPath>
  <clipPath id="p47c49650f8">
   <rect x="16.2" y="10.777356" width="16.2" height="50.085288"/>
  </clipPath>
  <clipPath id="p4585ae1cbf">
   <rect x="32.4" y="11.850612" width="16.2" height="47.938776"/>
  </clipPath>
  <clipPath id="p1bf6b55ee1">
   <rect x="48.6" y="8.881927" width="16.2" height="53.876147"/>
  </clipPath>
  <clipPath id="p8f4d8c5139">
   <rect x="70.613131" y="8.64" width="4.573738" height="54.36"/>
  </clipPath>
 </defs>
</svg>
