<?xml version="1.0" encoding="utf-8" standalone="no"?>
<!DOCTYPE svg PUBLIC "-//W3C//DTD SVG 1.1//EN"
  "http://www.w3.org/Graphics/SVG/1.1/DTD/svg11.dtd">
<svg xmlns:xlink="http://www.w3.org/1999/xlink" width="774pt" height="72pt" viewBox="0 0 774 72" xmlns="http://www.w3.org/2000/svg" version="1.1">
 <metadata>
  <rdf:RDF xmlns:dc="http://purl.org/dc/elements/1.1/" xmlns:cc="http://creativecommons.org/ns#" xmlns:rdf="http://www.w3.org/1999/02/22-rdf-syntax-ns#">
   <cc:Work>
    <dc:type rdf:resource="http://purl.org/dc/dcmitype/StillImage"/>
    <dc:date>2023-12-21T12:07:38.969238</dc:date>
    <dc:format>image/svg+xml</dc:format>
    <dc:creator>
     <cc:Agent>
      <dc:title>Matplotlib v3.5.1, https://matplotlib.org/</dc:title>
     </cc:Agent>
    </dc:creator>
   </cc:Work>
  </rdf:RDF>
 </metadata>
 <defs>
  <style type="text/css">*{stroke-linejoin: round; stroke-linecap: butt}</style>
 </defs>
 <g id="figure_1">
  <g id="patch_1">
   <path d="M 0 72 
L 774 72 
L 774 0 
L 0 0 
z
" style="fill: #8fff9f"/>
  </g>
  <g id="axes_1">
   <g id="patch_2">
    <path d="M 8.624855 27.009931 
Q 8.699834 27.347338 8.774814 28.265834 
Q 8.849793 29.184331 8.999752 29.634207 
L 8.924772 31.058814 
M 7.275228 27.309848 
Q 7.237738 27.309848 7.200248 27.534786 
Q 7.237738 27.684745 7.350207 28.828179 
Q 7.462676 29.971614 7.725103 30.533959 
" clip-path="url(#p36eeb04774)" style="fill: none; stroke: #000000; stroke-linejoin: miter"/>
   </g>
  </g>
  <g id="axes_2">
   <g id="patch_3">
    <path d="M 17.739924 40.439772 
Q 22.636882 46.999848 28.180608 46.168289 
Q 29.504943 46.168289 30.18251 45.382928 
Q 30.860076 44.597567 30.860076 43.30403 
Q 30.860076 41.979696 30.228707 40.947947 
Q 29.597338 39.916198 28.596388 39.238631 
Q 27.595437 38.561065 26.394297 37.975894 
Q 25.193156 37.390722 23.976616 36.820951 
Q 22.760076 36.251179 21.759125 35.589011 
Q 20.758175 34.926844 20.126806 33.895095 
Q 19.495437 32.863346 19.495437 31.56981 
Q 19.495437 29.906692 21.974715 28.382167 
Q 24.453992 26.857643 26.240304 26.857643 
Q 27.318251 26.796046 27.872624 27.627605 
Q 28.426996 28.459163 28.411597 29.490913 
Q 28.396198 30.522662 28.365399 31.385019 
" clip-path="url(#pa9f6c7b0fc)" style="fill: none; stroke: #000000; stroke-linejoin: miter"/>
   </g>
  </g>
  <g id="axes_3">
   <g id="patch_4">
    <path d="M 43.7616 35.032717 
Q 42.71189 34.582841 41.737159 34.69531 
Q 38.700497 35.032717 36.788524 36.701007 
Q 34.876552 38.369297 34.876552 41.330979 
Q 34.876552 43.917766 36.882248 45.6048 
Q 38.887945 47.291834 41.512221 47.291834 
Q 43.874069 47.291834 44.998759 45.361117 
Q 46.123448 43.4304 46.123448 40.881103 
Q 46.123448 39.643945 45.711062 38.706703 
Q 45.298676 37.769462 44.773821 37.300841 
Q 44.248966 36.832221 43.499172 36.119917 
Q 42.749379 35.407614 42.299503 34.69531 
L 41.062345 34.245434 
" clip-path="url(#pec9bf851d7)" style="fill: none; stroke: #000000; stroke-linejoin: miter"/>
   </g>
  </g>
  <g id="axes_4">
   <g id="patch_5">
    <path d="M 53.213462 32.783338 
Q 53.738317 34.507862 53.869531 36.457324 
Q 54.000745 38.406786 53.925766 40.956083 
Q 53.850786 43.505379 53.888276 44.705048 
L 54.000745 46.054676 
L 54.000745 45.829738 
Q 54.000745 44.667559 53.719572 42.30571 
Q 53.4384 39.943862 53.4384 38.744193 
Q 53.4384 36.419834 54.450621 34.882759 
Q 55.462841 33.345683 57.487283 33.345683 
Q 58.199586 33.345683 58.536993 33.626855 
Q 58.8744 33.908028 59.136828 34.432883 
Q 59.399255 34.957738 59.736662 35.257655 
L 60.186538 36.832221 
" clip-path="url(#p1040802c0e)" style="fill: none; stroke: #000000; stroke-linejoin: miter"/>
   </g>
  </g>
  <g id="axes_5">
   <g id="patch_6">
    <path d="M 69.413462 32.783338 
Q 69.938317 34.507862 70.069531 36.457324 
Q 70.200745 38.406786 70.125766 40.956083 
Q 70.050786 43.505379 70.088276 44.705048 
L 70.200745 46.054676 
L 70.200745 45.829738 
Q 70.200745 44.667559 69.919572 42.30571 
Q 69.6384 39.943862 69.6384 38.744193 
Q 69.6384 36.419834 70.650621 34.882759 
Q 71.662841 33.345683 73.687283 33.345683 
Q 74.399586 33.345683 74.736993 33.626855 
Q 75.0744 33.908028 75.336828 34.432883 
Q 75.599255 34.957738 75.936662 35.257655 
L 76.386538 36.832221 
" clip-path="url(#p92714f6bdb)" style="fill: none; stroke: #000000; stroke-linejoin: miter"/>
   </g>
  </g>
  <g id="axes_6">
   <g id="patch_7">
    <path d="M 83.963917 36.382345 
Q 83.926428 36.494814 84.057641 36.701007 
Q 84.188855 36.9072 84.076386 37.057159 
L 84.076386 39.306538 
Q 84.076386 40.506207 84.413793 41.724621 
Q 84.7512 42.943034 85.613462 43.93651 
Q 86.475724 44.929986 87.675393 44.929986 
Q 88.912552 44.929986 89.587366 43.861531 
Q 90.262179 42.793076 90.712055 41.143531 
Q 91.161931 39.493986 91.499338 38.969131 
L 92.286621 36.382345 
L 92.061683 42.680607 
L 92.061683 45.154924 
Q 92.061683 47.066897 92.792731 51.00331 
Q 93.523779 54.939724 93.523779 56.964166 
Q 94.273572 59.213545 93.186372 60.188276 
Q 92.099172 61.163007 90.037241 60.78811 
Q 88.237738 60.488193 87.319241 60.169531 
Q 86.400745 59.850869 84.413793 58.988607 
L 84.301324 58.426262 
" clip-path="url(#pe420815fdd)" style="fill: none; stroke: #000000; stroke-linejoin: miter"/>
   </g>
  </g>
  <g id="axes_7"/>
  <g id="axes_8">
   <g id="patch_8">
    <path d="M 116.663834 37.95691 
L 117.338648 37.95691 
Q 118.050952 37.95691 118.838234 37.881931 
Q 119.625517 37.806952 120.581503 37.675738 
Q 121.53749 37.544524 122.062345 37.507034 
L 126.336166 35.82 
M 122.287283 30.42149 
L 122.287283 31.43371 
Q 122.287283 33.383172 121.612469 37.207117 
Q 120.937655 41.031062 120.937655 43.018014 
Q 120.937655 43.805297 120.937655 44.105214 
Q 120.937655 44.405131 121.031379 45.042455 
Q 121.125103 45.679779 121.312552 45.960952 
Q 121.5 46.242124 121.893641 46.485807 
Q 122.287283 46.72949 122.849628 46.72949 
Q 122.962097 46.692 123.280759 46.72949 
Q 123.599421 46.766979 123.786869 46.710745 
Q 123.974317 46.65451 123.974317 46.392083 
" clip-path="url(#pd1da7e41f4)" style="fill: none; stroke: #000000; stroke-linejoin: miter"/>
   </g>
  </g>
  <g id="axes_9">
   <g id="patch_9">
    <path d="M 140.9616 35.032717 
Q 139.91189 34.582841 138.937159 34.69531 
Q 135.900497 35.032717 133.988524 36.701007 
Q 132.076552 38.369297 132.076552 41.330979 
Q 132.076552 43.917766 134.082248 45.6048 
Q 136.087945 47.291834 138.712221 47.291834 
Q 141.074069 47.291834 142.198759 45.361117 
Q 143.323448 43.4304 143.323448 40.881103 
Q 143.323448 39.643945 142.911062 38.706703 
Q 142.498676 37.769462 141.973821 37.300841 
Q 141.448966 36.832221 140.699172 36.119917 
Q 139.949379 35.407614 139.499503 34.69531 
L 138.262345 34.245434 
" clip-path="url(#p5b73419068)" style="fill: none; stroke: #000000; stroke-linejoin: miter"/>
   </g>
  </g>
  <g id="axes_10"/>
  <g id="axes_11">
   <g id="patch_10">
    <path d="M 170.718579 29.071862 
Q 170.343683 29.146841 170.212469 29.577972 
Q 170.081255 30.009103 170.156234 30.42149 
Q 170.156234 30.571448 170.193724 30.702662 
Q 170.231214 30.833876 170.287448 30.89011 
Q 170.343683 30.946345 170.399917 31.040069 
Q 170.456152 31.133793 170.493641 31.208772 
L 170.60611 29.859145 
M 170.60611 34.020497 
Q 169.706359 39.006621 169.481421 42.793076 
L 169.931297 45.379862 
L 170.268703 46.054676 
" clip-path="url(#p611f9c05c4)" style="fill: none; stroke: #000000; stroke-linejoin: miter"/>
   </g>
  </g>
  <g id="axes_12">
   <g id="patch_11">
    <path d="M 181.838731 37.282097 
L 181.838731 37.844441 
Q 182.101159 39.868883 182.138648 41.312234 
Q 182.176138 42.755586 182.082414 44.667559 
Q 181.98869 46.579531 181.98869 48.191586 
L 182.063669 39.643945 
Q 182.063669 38.144359 183.656979 37.507034 
Q 185.25029 36.86971 186.674897 37.282097 
Q 188.586869 37.844441 189.505366 39.04411 
Q 190.423862 40.243779 190.480097 41.668386 
Q 190.536331 43.092993 190.573821 44.817517 
Q 190.61131 46.542041 190.761269 48.191586 
" clip-path="url(#p38a8b022f4)" style="fill: none; stroke: #000000; stroke-linejoin: miter"/>
   </g>
  </g>
  <g id="axes_13">
   <g id="patch_12">
    <path d="M 197.663834 37.95691 
L 198.338648 37.95691 
Q 199.050952 37.95691 199.838234 37.881931 
Q 200.625517 37.806952 201.581503 37.675738 
Q 202.53749 37.544524 203.062345 37.507034 
L 207.336166 35.82 
M 203.287283 30.42149 
L 203.287283 31.43371 
Q 203.287283 33.383172 202.612469 37.207117 
Q 201.937655 41.031062 201.937655 43.018014 
Q 201.937655 43.805297 201.937655 44.105214 
Q 201.937655 44.405131 202.031379 45.042455 
Q 202.125103 45.679779 202.312552 45.960952 
Q 202.5 46.242124 202.893641 46.485807 
Q 203.287283 46.72949 203.849628 46.72949 
Q 203.962097 46.692 204.280759 46.72949 
Q 204.599421 46.766979 204.786869 46.710745 
Q 204.974317 46.65451 204.974317 46.392083 
" clip-path="url(#p9cccf70a65)" style="fill: none; stroke: #000000; stroke-linejoin: miter"/>
   </g>
  </g>
  <g id="axes_14">
   <g id="patch_13">
    <path d="M 215.213462 32.783338 
Q 215.738317 34.507862 215.869531 36.457324 
Q 216.000745 38.406786 215.925766 40.956083 
Q 215.850786 43.505379 215.888276 44.705048 
L 216.000745 46.054676 
L 216.000745 45.829738 
Q 216.000745 44.667559 215.719572 42.30571 
Q 215.4384 39.943862 215.4384 38.744193 
Q 215.4384 36.419834 216.450621 34.882759 
Q 217.462841 33.345683 219.487283 33.345683 
Q 220.199586 33.345683 220.536993 33.626855 
Q 220.8744 33.908028 221.136828 34.432883 
Q 221.399255 34.957738 221.736662 35.257655 
L 222.186538 36.832221 
" clip-path="url(#p15add467bc)" style="fill: none; stroke: #000000; stroke-linejoin: miter"/>
   </g>
  </g>
  <g id="axes_15">
   <g id="patch_14">
    <path d="M 230.288772 35.145186 
Q 230.288772 35.145186 230.288772 35.595062 
Q 230.288772 36.269876 230.176303 37.619503 
Q 230.063834 38.969131 230.063834 39.643945 
Q 230.063834 41.930814 231.300993 43.599103 
Q 232.538152 45.267393 234.675062 45.267393 
Q 236.062179 45.154924 236.830717 43.917766 
Q 237.599255 42.680607 237.749214 41.237255 
Q 237.899172 39.793903 238.1616 37.9944 
Q 238.424028 36.194897 238.836414 35.370124 
Q 238.986372 35.070207 238.986372 35.670041 
Q 238.986372 36.269876 238.723945 38.706703 
Q 238.499007 41.031062 238.499007 41.555917 
Q 238.349048 42.643117 238.686455 43.767807 
Q 239.023862 44.892497 239.736166 45.6048 
" clip-path="url(#pfe0d955887)" style="fill: none; stroke: #000000; stroke-linejoin: miter"/>
   </g>
  </g>
  <g id="axes_16">
   <g id="patch_15">
    <path d="M 254.699007 39.568966 
Q 253.349379 38.181848 251.1 38.444276 
Q 248.250786 38.444276 247.088607 39.793903 
Q 245.926428 41.143531 245.926428 44.067724 
Q 245.926428 45.56731 247.219821 46.279614 
Q 248.513214 46.991917 250.087779 46.991917 
Q 251.399917 46.991917 252.412138 45.736014 
Q 253.424359 44.48011 254.005448 42.30571 
Q 254.586538 40.13131 254.961434 37.938166 
Q 255.336331 35.745021 255.48629 33.045766 
Q 255.636248 30.34651 255.673738 28.978138 
Q 255.711228 27.609766 255.711228 26.185159 
Q 255.48629 26.260138 255.48629 29.896634 
L 255.48629 44.292662 
L 256.273572 48.229076 
" clip-path="url(#p747c5ff851)" style="fill: none; stroke: #000000; stroke-linejoin: miter"/>
   </g>
  </g>
  <g id="axes_17">
   <g id="patch_16">
    <path d="M 261.057798 38.160826 
Q 264.030275 39.535596 268.749083 39.721376 
Q 270.272477 39.721376 270.959862 38.550963 
Q 271.647248 37.38055 271.647248 35.82 
Q 271.647248 35.299817 271.554358 34.909679 
Q 271.461468 34.519541 271.219954 34.296606 
Q 270.97844 34.07367 270.811239 33.943624 
Q 270.644037 33.813578 270.198165 33.757844 
Q 269.752294 33.70211 269.547936 33.683532 
Q 269.343578 33.664954 268.767661 33.683532 
Q 268.191743 33.70211 267.968807 33.70211 
Q 265.925229 33.70211 264.438991 35.578486 
Q 262.952752 37.454862 262.952752 39.609908 
Q 262.952752 42.619541 264.884862 44.570229 
Q 266.816972 46.520917 269.863761 46.520917 
Q 272.018807 46.818165 273.542202 44.29156 
" clip-path="url(#p30497d92b7)" style="fill: none; stroke: #000000; stroke-linejoin: miter"/>
   </g>
  </g>
  <g id="axes_18">
   <g id="patch_17">
    <path d="M 283.387531 45.979697 
Q 283.350041 46.017186 283.218828 46.054676 
Q 283.087614 46.092166 283.125103 46.167145 
Q 283.125103 46.579531 283.5 46.579531 
Q 283.837407 46.579531 283.837407 46.092166 
Q 283.912386 45.867228 283.631214 45.754759 
Q 283.350041 45.64229 283.162593 45.754759 
" clip-path="url(#pfc198e2e6b)" style="fill: none; stroke: #000000; stroke-linejoin: miter"/>
   </g>
  </g>
  <g id="axes_19"/>
  <g id="axes_20">
   <g id="patch_18">
    <path d="M 309.249016 45.151664 
L 309.509839 29.50229 
L 309.509839 28.893703 
Q 309.509839 28.66186 309.61127 28.299606 
Q 309.712701 27.937352 309.857603 27.937352 
Q 310.755993 27.937352 311.639893 29.270447 
Q 312.523792 30.603542 313.059928 32.19746 
Q 313.596064 33.791377 314.1322 35.124472 
Q 314.668336 36.457567 314.98712 36.457567 
Q 315.479785 36.457567 316.160823 35.023041 
Q 316.84186 33.588515 317.435957 31.849696 
Q 318.030054 30.110877 318.841503 28.676351 
Q 319.652952 27.241825 320.37746 27.241825 
Q 321.072987 27.241825 321.522182 30.632522 
Q 321.971377 34.02322 322.18873 38.50068 
Q 322.406082 42.97814 322.464043 43.325903 
L 322.550984 46.108014 
" clip-path="url(#p057d68b8d3)" style="fill: none; stroke: #000000; stroke-linejoin: miter"/>
   </g>
  </g>
  <g id="axes_21">
   <g id="patch_19">
    <path d="M 326.963917 36.382345 
Q 326.926428 36.494814 327.057641 36.701007 
Q 327.188855 36.9072 327.076386 37.057159 
L 327.076386 39.306538 
Q 327.076386 40.506207 327.413793 41.724621 
Q 327.7512 42.943034 328.613462 43.93651 
Q 329.475724 44.929986 330.675393 44.929986 
Q 331.912552 44.929986 332.587366 43.861531 
Q 333.262179 42.793076 333.712055 41.143531 
Q 334.161931 39.493986 334.499338 38.969131 
L 335.286621 36.382345 
L 335.061683 42.680607 
L 335.061683 45.154924 
Q 335.061683 47.066897 335.792731 51.00331 
Q 336.523779 54.939724 336.523779 56.964166 
Q 337.273572 59.213545 336.186372 60.188276 
Q 335.099172 61.163007 333.037241 60.78811 
Q 331.237738 60.488193 330.319241 60.169531 
Q 329.400745 59.850869 327.413793 58.988607 
L 327.301324 58.426262 
" clip-path="url(#pe7094f1485)" style="fill: none; stroke: #000000; stroke-linejoin: miter"/>
   </g>
  </g>
  <g id="axes_22"/>
  <g id="axes_23">
   <g id="patch_20">
    <path d="M 360.038731 37.282097 
L 360.038731 37.844441 
Q 360.301159 39.868883 360.338648 41.312234 
Q 360.376138 42.755586 360.282414 44.667559 
Q 360.18869 46.579531 360.18869 48.191586 
L 360.263669 39.643945 
Q 360.263669 38.144359 361.856979 37.507034 
Q 363.45029 36.86971 364.874897 37.282097 
Q 366.786869 37.844441 367.705366 39.04411 
Q 368.623862 40.243779 368.680097 41.668386 
Q 368.736331 43.092993 368.773821 44.817517 
Q 368.81131 46.542041 368.961269 48.191586 
" clip-path="url(#pcf5d16ca75)" style="fill: none; stroke: #000000; stroke-linejoin: miter"/>
   </g>
  </g>
  <g id="axes_24">
   <g id="patch_21">
    <path d="M 386.243923 36.441748 
Q 385.034968 35.094627 381.062687 35.094627 
Q 379.542857 35.094627 378.765672 35.146439 
Q 377.988486 35.198252 376.98678 35.440043 
Q 375.985075 35.681834 375.501493 36.182687 
Q 375.01791 36.683539 374.672495 37.616162 
Q 374.327079 38.548785 374.327079 39.964989 
Q 374.327079 42.037484 375.743284 43.280981 
Q 377.159488 44.524478 379.093817 44.524478 
Q 381.753518 44.524478 384.516844 38.721493 
Q 385.863966 35.854542 385.863966 35.82 
Q 386.209382 35.578209 386.243923 36.441748 
Q 386.243923 37.512537 386.658422 40.362217 
Q 387.072921 43.211898 387.072921 44.524478 
" clip-path="url(#paced877660)" style="fill: none; stroke: #000000; stroke-linejoin: miter"/>
   </g>
  </g>
  <g id="axes_25">
   <g id="patch_22">
    <path d="M 390.608036 34.879821 
Q 391.114286 36.073125 391.403571 42.871339 
Q 391.548214 46.632054 391.8375 46.632054 
Q 391.873661 46.632054 391.909821 46.595893 
Q 392.416071 46.017321 392.470312 44.588973 
Q 392.524554 43.160625 392.307589 41.750357 
Q 392.090625 40.340089 391.8375 38.712857 
Q 391.584375 37.085625 391.584375 36.398571 
Q 391.584375 35.169107 391.964062 33.939643 
Q 392.34375 32.710179 393.320089 32.710179 
Q 394.549554 32.710179 395.272768 34.355491 
Q 395.995982 36.000804 396.158705 37.971563 
Q 396.321429 39.942321 396.429911 41.587634 
Q 396.538393 43.232946 396.683036 43.232946 
Q 396.827679 43.232946 396.91808 41.497232 
Q 397.008482 39.761518 397.135045 37.700357 
Q 397.261607 35.639196 397.984821 33.903482 
Q 398.708036 32.167768 399.9375 32.167768 
Q 401.492411 33.035625 402.161384 34.771339 
Q 402.830357 36.507054 402.794196 38.188527 
Q 402.758036 39.87 402.776116 42.057723 
Q 402.794196 44.245446 403.191964 45.511071 
" clip-path="url(#p4dd0875efa)" style="fill: none; stroke: #000000; stroke-linejoin: miter"/>
   </g>
  </g>
  <g id="axes_26">
   <g id="patch_23">
    <path d="M 406.857798 38.160826 
Q 409.830275 39.535596 414.549083 39.721376 
Q 416.072477 39.721376 416.759862 38.550963 
Q 417.447248 37.38055 417.447248 35.82 
Q 417.447248 35.299817 417.354358 34.909679 
Q 417.261468 34.519541 417.019954 34.296606 
Q 416.77844 34.07367 416.611239 33.943624 
Q 416.444037 33.813578 415.998165 33.757844 
Q 415.552294 33.70211 415.347936 33.683532 
Q 415.143578 33.664954 414.567661 33.683532 
Q 413.991743 33.70211 413.768807 33.70211 
Q 411.725229 33.70211 410.238991 35.578486 
Q 408.752752 37.454862 408.752752 39.609908 
Q 408.752752 42.619541 410.684862 44.570229 
Q 412.616972 46.520917 415.663761 46.520917 
Q 417.818807 46.818165 419.342202 44.29156 
" clip-path="url(#p26afff65cd)" style="fill: none; stroke: #000000; stroke-linejoin: miter"/>
   </g>
  </g>
  <g id="axes_27"/>
  <g id="axes_28">
   <g id="patch_24">
    <path d="M 446.118579 29.071862 
Q 445.743683 29.146841 445.612469 29.577972 
Q 445.481255 30.009103 445.556234 30.42149 
Q 445.556234 30.571448 445.593724 30.702662 
Q 445.631214 30.833876 445.687448 30.89011 
Q 445.743683 30.946345 445.799917 31.040069 
Q 445.856152 31.133793 445.893641 31.208772 
L 446.00611 29.859145 
M 446.00611 34.020497 
Q 445.106359 39.006621 444.881421 42.793076 
L 445.331297 45.379862 
L 445.668703 46.054676 
" clip-path="url(#p1f35fdadfb)" style="fill: none; stroke: #000000; stroke-linejoin: miter"/>
   </g>
  </g>
  <g id="axes_29">
   <g id="patch_25">
    <path d="M 457.257476 43.917766 
Q 457.557393 44.180193 458.569614 45.154924 
Q 459.581834 46.129655 460.144179 46.560786 
Q 460.706524 46.991917 461.73749 47.385559 
Q 462.768455 47.7792 463.780676 47.629241 
Q 464.45549 47.629241 464.92411 47.404303 
Q 465.392731 47.179366 465.617669 46.879448 
Q 465.842607 46.579531 465.973821 45.979697 
Q 466.105034 45.379862 466.123779 44.967476 
Q 466.142524 44.55509 466.142524 43.805297 
Q 466.142524 42.718097 465.242772 42.043283 
Q 464.343021 41.368469 463.049628 41.031062 
Q 461.756234 40.693655 460.462841 40.300014 
Q 459.169448 39.906372 458.269697 38.987876 
Q 457.369945 38.069379 457.369945 36.607283 
Q 457.369945 36.082428 457.538648 35.726276 
Q 457.707352 35.370124 458.100993 35.145186 
Q 458.494634 34.920248 458.775807 34.807779 
Q 459.056979 34.69531 459.713048 34.639076 
Q 460.369117 34.582841 460.556566 34.582841 
Q 460.744014 34.582841 461.418828 34.582841 
Q 462.618497 34.582841 463.199586 34.995228 
Q 463.780676 35.407614 464.099338 36.026193 
Q 464.418 36.644772 464.680428 36.832221 
" clip-path="url(#pfa4ec91604)" style="fill: none; stroke: #000000; stroke-linejoin: miter"/>
   </g>
  </g>
  <g id="axes_30"/>
  <g id="axes_31">
   <g id="patch_26">
    <path d="M 488.584049 31.819693 
Q 490.05 31.223374 491.739571 31.037025 
Q 493.429141 30.850675 494.733589 30.925215 
Q 496.038037 30.999755 497.752454 30.838252 
Q 499.466871 30.676748 500.957669 30.105276 
M 487.242331 43.000675 
L 487.242331 43.149755 
Q 487.242331 44.590859 488.832515 45.696534 
Q 490.422699 46.802209 491.863804 46.802209 
Q 492.559509 46.802209 493.118558 46.466779 
Q 493.677607 46.13135 494.050307 45.559877 
Q 494.423006 44.988405 494.708742 44.230583 
Q 494.994479 43.472761 495.143558 42.603129 
Q 495.292638 41.733497 495.416871 40.814172 
Q 495.541104 39.894847 495.553528 39.012791 
Q 495.565951 38.130736 495.590798 37.348067 
Q 495.615644 36.565399 495.590798 35.944233 
Q 495.590798 35.571534 495.590798 35.397607 
Q 495.590798 35.124294 495.553528 34.552822 
Q 495.516258 33.98135 495.516258 33.68319 
Q 495.516258 33.434724 495.354755 33.062025 
Q 495.193252 32.689325 494.944785 32.254509 
Q 494.696319 31.819693 494.621779 31.670613 
L 494.547239 30.925215 
" clip-path="url(#p93765969d3)" style="fill: none; stroke: #000000; stroke-linejoin: miter"/>
   </g>
  </g>
  <g id="axes_32">
   <g id="patch_27">
    <path d="M 515.843923 36.441748 
Q 514.634968 35.094627 510.662687 35.094627 
Q 509.142857 35.094627 508.365672 35.146439 
Q 507.588486 35.198252 506.58678 35.440043 
Q 505.585075 35.681834 505.101493 36.182687 
Q 504.61791 36.683539 504.272495 37.616162 
Q 503.927079 38.548785 503.927079 39.964989 
Q 503.927079 42.037484 505.343284 43.280981 
Q 506.759488 44.524478 508.693817 44.524478 
Q 511.353518 44.524478 514.116844 38.721493 
Q 515.463966 35.854542 515.463966 35.82 
Q 515.809382 35.578209 515.843923 36.441748 
Q 515.843923 37.512537 516.258422 40.362217 
Q 516.672921 43.211898 516.672921 44.524478 
" clip-path="url(#p28eade8f54)" style="fill: none; stroke: #000000; stroke-linejoin: miter"/>
   </g>
  </g>
  <g id="axes_33">
   <g id="patch_28">
    <path d="M 520.208036 34.879821 
Q 520.714286 36.073125 521.003571 42.871339 
Q 521.148214 46.632054 521.4375 46.632054 
Q 521.473661 46.632054 521.509821 46.595893 
Q 522.016071 46.017321 522.070312 44.588973 
Q 522.124554 43.160625 521.907589 41.750357 
Q 521.690625 40.340089 521.4375 38.712857 
Q 521.184375 37.085625 521.184375 36.398571 
Q 521.184375 35.169107 521.564062 33.939643 
Q 521.94375 32.710179 522.920089 32.710179 
Q 524.149554 32.710179 524.872768 34.355491 
Q 525.595982 36.000804 525.758705 37.971563 
Q 525.921429 39.942321 526.029911 41.587634 
Q 526.138393 43.232946 526.283036 43.232946 
Q 526.427679 43.232946 526.51808 41.497232 
Q 526.608482 39.761518 526.735045 37.700357 
Q 526.861607 35.639196 527.584821 33.903482 
Q 528.308036 32.167768 529.5375 32.167768 
Q 531.092411 33.035625 531.761384 34.771339 
Q 532.430357 36.507054 532.394196 38.188527 
Q 532.358036 39.87 532.376116 42.057723 
Q 532.394196 44.245446 532.791964 45.511071 
" clip-path="url(#pa704b2254a)" style="fill: none; stroke: #000000; stroke-linejoin: miter"/>
   </g>
  </g>
  <g id="axes_34">
   <g id="patch_29">
    <path d="M 536.457798 38.160826 
Q 539.430275 39.535596 544.149083 39.721376 
Q 545.672477 39.721376 546.359862 38.550963 
Q 547.047248 37.38055 547.047248 35.82 
Q 547.047248 35.299817 546.954358 34.909679 
Q 546.861468 34.519541 546.619954 34.296606 
Q 546.37844 34.07367 546.211239 33.943624 
Q 546.044037 33.813578 545.598165 33.757844 
Q 545.152294 33.70211 544.947936 33.683532 
Q 544.743578 33.664954 544.167661 33.683532 
Q 543.591743 33.70211 543.368807 33.70211 
Q 541.325229 33.70211 539.838991 35.578486 
Q 538.352752 37.454862 538.352752 39.609908 
Q 538.352752 42.619541 540.284862 44.570229 
Q 542.216972 46.520917 545.263761 46.520917 
Q 547.418807 46.818165 548.942202 44.29156 
" clip-path="url(#p6ca088e9d0)" style="fill: none; stroke: #000000; stroke-linejoin: miter"/>
   </g>
  </g>
  <g id="axes_35">
   <g id="patch_30">
    <path d="M 554.457476 43.917766 
Q 554.757393 44.180193 555.769614 45.154924 
Q 556.781834 46.129655 557.344179 46.560786 
Q 557.906524 46.991917 558.93749 47.385559 
Q 559.968455 47.7792 560.980676 47.629241 
Q 561.65549 47.629241 562.12411 47.404303 
Q 562.592731 47.179366 562.817669 46.879448 
Q 563.042607 46.579531 563.173821 45.979697 
Q 563.305034 45.379862 563.323779 44.967476 
Q 563.342524 44.55509 563.342524 43.805297 
Q 563.342524 42.718097 562.442772 42.043283 
Q 561.543021 41.368469 560.249628 41.031062 
Q 558.956234 40.693655 557.662841 40.300014 
Q 556.369448 39.906372 555.469697 38.987876 
Q 554.569945 38.069379 554.569945 36.607283 
Q 554.569945 36.082428 554.738648 35.726276 
Q 554.907352 35.370124 555.300993 35.145186 
Q 555.694634 34.920248 555.975807 34.807779 
Q 556.256979 34.69531 556.913048 34.639076 
Q 557.569117 34.582841 557.756566 34.582841 
Q 557.944014 34.582841 558.618828 34.582841 
Q 559.818497 34.582841 560.399586 34.995228 
Q 560.980676 35.407614 561.299338 36.026193 
Q 561.618 36.644772 561.880428 36.832221 
" clip-path="url(#p8935a9c8f1)" style="fill: none; stroke: #000000; stroke-linejoin: miter"/>
   </g>
  </g>
  <g id="axes_36">
   <g id="patch_31">
    <path d="M 574.387697 39.981352 
Q 575.399917 40.956083 575.737324 42.905545 
Q 575.924772 43.955255 575.512386 46.167145 
L 574.275228 47.629241 
" clip-path="url(#pb7c4a899c9)" style="fill: none; stroke: #000000; stroke-linejoin: miter"/>
   </g>
  </g>
  <g id="axes_37"/>
  <g id="axes_38">
   <g id="patch_32">
    <path d="M 600.714935 43.209935 
L 614.285065 43.209935 
M 602.056169 30.007987 
L 612.943831 29.929091 
M 606.947727 30.323571 
L 606.947727 30.718052 
Q 606.947727 32.243377 607.039773 33.99224 
Q 607.131818 35.741104 607.28961 37.910747 
Q 607.447403 40.08039 607.5 41.211234 
L 607.657792 43.025844 
" clip-path="url(#pd836489576)" style="fill: none; stroke: #000000; stroke-linejoin: miter"/>
   </g>
  </g>
  <g id="axes_39"/>
  <g id="axes_40">
   <g id="patch_33">
    <path d="M 640.256152 30.309021 
Q 639.768786 30.42149 640.181172 30.833876 
Q 640.556069 31.208772 640.631048 30.946345 
Q 640.668538 30.871366 640.593559 30.646428 
Q 640.593559 30.458979 640.518579 30.42149 
Q 640.4436 30.384 640.312386 30.42149 
Q 640.181172 30.458979 640.031214 30.42149 
L 639.918745 30.646428 
M 640.818497 33.345683 
Q 641.868207 37.731972 642.393062 40.13131 
Q 642.917917 42.530648 643.367793 46.317103 
Q 643.817669 50.103559 643.630221 53.25269 
Q 643.630221 53.440138 643.630221 54.021228 
Q 643.630221 54.602317 643.630221 54.902234 
Q 643.630221 55.202152 643.611476 55.783241 
Q 643.592731 56.364331 643.517752 56.701738 
Q 643.442772 57.039145 643.330303 57.52651 
Q 643.217834 58.013876 643.011641 58.313793 
Q 642.805448 58.61371 642.543021 58.894883 
Q 642.280593 59.176055 641.905697 59.307269 
Q 641.5308 59.438483 641.043434 59.438483 
Q 640.068703 59.438483 639.31891 59.251034 
Q 638.569117 59.063586 637.706855 58.707434 
Q 636.844593 58.351283 636.207269 58.201324 
L 635.982331 57.751448 
" clip-path="url(#p424aed6886)" style="fill: none; stroke: #000000; stroke-linejoin: miter"/>
   </g>
  </g>
  <g id="axes_41">
   <g id="patch_34">
    <path d="M 651.488772 35.145186 
Q 651.488772 35.145186 651.488772 35.595062 
Q 651.488772 36.269876 651.376303 37.619503 
Q 651.263834 38.969131 651.263834 39.643945 
Q 651.263834 41.930814 652.500993 43.599103 
Q 653.738152 45.267393 655.875062 45.267393 
Q 657.262179 45.154924 658.030717 43.917766 
Q 658.799255 42.680607 658.949214 41.237255 
Q 659.099172 39.793903 659.3616 37.9944 
Q 659.624028 36.194897 660.036414 35.370124 
Q 660.186372 35.070207 660.186372 35.670041 
Q 660.186372 36.269876 659.923945 38.706703 
Q 659.699007 41.031062 659.699007 41.555917 
Q 659.549048 42.643117 659.886455 43.767807 
Q 660.223862 44.892497 660.936166 45.6048 
" clip-path="url(#pe3b5913f6c)" style="fill: none; stroke: #000000; stroke-linejoin: miter"/>
   </g>
  </g>
  <g id="axes_42">
   <g id="patch_35">
    <path d="M 667.857476 43.917766 
Q 668.157393 44.180193 669.169614 45.154924 
Q 670.181834 46.129655 670.744179 46.560786 
Q 671.306524 46.991917 672.33749 47.385559 
Q 673.368455 47.7792 674.380676 47.629241 
Q 675.05549 47.629241 675.52411 47.404303 
Q 675.992731 47.179366 676.217669 46.879448 
Q 676.442607 46.579531 676.573821 45.979697 
Q 676.705034 45.379862 676.723779 44.967476 
Q 676.742524 44.55509 676.742524 43.805297 
Q 676.742524 42.718097 675.842772 42.043283 
Q 674.943021 41.368469 673.649628 41.031062 
Q 672.356234 40.693655 671.062841 40.300014 
Q 669.769448 39.906372 668.869697 38.987876 
Q 667.969945 38.069379 667.969945 36.607283 
Q 667.969945 36.082428 668.138648 35.726276 
Q 668.307352 35.370124 668.700993 35.145186 
Q 669.094634 34.920248 669.375807 34.807779 
Q 669.656979 34.69531 670.313048 34.639076 
Q 670.969117 34.582841 671.156566 34.582841 
Q 671.344014 34.582841 672.018828 34.582841 
Q 673.218497 34.582841 673.799586 34.995228 
Q 674.380676 35.407614 674.699338 36.026193 
Q 675.018 36.644772 675.280428 36.832221 
" clip-path="url(#p9796d7ca69)" style="fill: none; stroke: #000000; stroke-linejoin: miter"/>
   </g>
  </g>
  <g id="axes_43">
   <g id="patch_36">
    <path d="M 683.663834 37.95691 
L 684.338648 37.95691 
Q 685.050952 37.95691 685.838234 37.881931 
Q 686.625517 37.806952 687.581503 37.675738 
Q 688.53749 37.544524 689.062345 37.507034 
L 693.336166 35.82 
M 689.287283 30.42149 
L 689.287283 31.43371 
Q 689.287283 33.383172 688.612469 37.207117 
Q 687.937655 41.031062 687.937655 43.018014 
Q 687.937655 43.805297 687.937655 44.105214 
Q 687.937655 44.405131 688.031379 45.042455 
Q 688.125103 45.679779 688.312552 45.960952 
Q 688.5 46.242124 688.893641 46.485807 
Q 689.287283 46.72949 689.849628 46.72949 
Q 689.962097 46.692 690.280759 46.72949 
Q 690.599421 46.766979 690.786869 46.710745 
Q 690.974317 46.65451 690.974317 46.392083 
" clip-path="url(#pdf66fe39ea)" style="fill: none; stroke: #000000; stroke-linejoin: miter"/>
   </g>
  </g>
 </g>
 <defs>
  <clipPath id="p36eeb04774">
   <rect x="5.325766" y="8.64" width="5.548469" height="54.36"/>
  </clipPath>
  <clipPath id="pa9f6c7b0fc">
   <rect x="16.2" y="13.491103" width="16.2" height="44.657795"/>
  </clipPath>
  <clipPath id="pec9bf851d7">
   <rect x="33.002069" y="8.64" width="14.995862" height="54.36"/>
  </clipPath>
  <clipPath id="p1040802c0e">
   <rect x="51.338979" y="8.64" width="10.722041" height="54.36"/>
  </clipPath>
  <clipPath id="p92714f6bdb">
   <rect x="67.538979" y="8.64" width="10.722041" height="54.36"/>
  </clipPath>
  <clipPath id="pe420815fdd">
   <rect x="82.051945" y="8.64" width="14.09611" height="54.36"/>
  </clipPath>
  <clipPath id="pd1da7e41f4">
   <rect x="114.789352" y="8.64" width="13.421297" height="54.36"/>
  </clipPath>
  <clipPath id="p5b73419068">
   <rect x="130.202069" y="8.64" width="14.995862" height="54.36"/>
  </clipPath>
  <clipPath id="p611f9c05c4">
   <rect x="167.606938" y="8.64" width="4.986124" height="54.36"/>
  </clipPath>
  <clipPath id="p38a8b022f4">
   <rect x="179.964248" y="8.64" width="12.671503" height="54.36"/>
  </clipPath>
  <clipPath id="p9cccf70a65">
   <rect x="195.789352" y="8.64" width="13.421297" height="54.36"/>
  </clipPath>
  <clipPath id="p15add467bc">
   <rect x="213.338979" y="8.64" width="10.722041" height="54.36"/>
  </clipPath>
  <clipPath id="pfe0d955887">
   <rect x="228.189352" y="8.64" width="13.421297" height="54.36"/>
  </clipPath>
  <clipPath id="p747c5ff851">
   <rect x="244.051945" y="8.64" width="14.09611" height="54.36"/>
  </clipPath>
  <clipPath id="p30497d92b7">
   <rect x="259.2" y="8.881927" width="16.2" height="53.876147"/>
  </clipPath>
  <clipPath id="pfc198e2e6b">
   <rect x="281.213131" y="8.64" width="4.573738" height="54.36"/>
  </clipPath>
  <clipPath id="p057d68b8d3">
   <rect x="307.8" y="14.809267" width="16.2" height="42.021467"/>
  </clipPath>
  <clipPath id="pe7094f1485">
   <rect x="325.051945" y="8.64" width="14.09611" height="54.36"/>
  </clipPath>
  <clipPath id="pcf5d16ca75">
   <rect x="358.164248" y="8.64" width="12.671503" height="54.36"/>
  </clipPath>
  <clipPath id="paced877660">
   <rect x="372.6" y="10.777356" width="16.2" height="50.085288"/>
  </clipPath>
  <clipPath id="p4dd0875efa">
   <rect x="388.8" y="9.603482" width="16.2" height="52.433036"/>
  </clipPath>
  <clipPath id="p26afff65cd">
   <rect x="405" y="8.881927" width="16.2" height="53.876147"/>
  </clipPath>
  <clipPath id="p1f35fdadfb">
   <rect x="443.006938" y="8.64" width="4.986124" height="54.36"/>
  </clipPath>
  <clipPath id="pfa4ec91604">
   <rect x="455.382993" y="8.64" width="12.634014" height="54.36"/>
  </clipPath>
  <clipPath id="p93765969d3">
   <rect x="486" y="17.806196" width="16.2" height="36.027607"/>
  </clipPath>
  <clipPath id="p28eade8f54">
   <rect x="502.2" y="10.777356" width="16.2" height="50.085288"/>
  </clipPath>
  <clipPath id="pa704b2254a">
   <rect x="518.4" y="9.603482" width="16.2" height="52.433036"/>
  </clipPath>
  <clipPath id="p6ca088e9d0">
   <rect x="534.6" y="8.881927" width="16.2" height="53.876147"/>
  </clipPath>
  <clipPath id="p8935a9c8f1">
   <rect x="552.582993" y="8.64" width="12.634014" height="54.36"/>
  </clipPath>
  <clipPath id="pb7c4a899c9">
   <rect x="572.400745" y="8.64" width="5.39851" height="54.36"/>
  </clipPath>
  <clipPath id="pd836489576">
   <rect x="599.4" y="16.753442" width="16.2" height="38.133117"/>
  </clipPath>
  <clipPath id="p424aed6886">
   <rect x="634.107848" y="8.64" width="11.584303" height="54.36"/>
  </clipPath>
  <clipPath id="pe3b5913f6c">
   <rect x="649.389352" y="8.64" width="13.421297" height="54.36"/>
  </clipPath>
  <clipPath id="p9796d7ca69">
   <rect x="665.982993" y="8.64" width="12.634014" height="54.36"/>
  </clipPath>
  <clipPath id="pdf66fe39ea">
   <rect x="681.789352" y="8.64" width="13.421297" height="54.36"/>
  </clipPath>
 </defs>
</svg>
