<?xml version="1.0" encoding="utf-8" standalone="no"?>
<!DOCTYPE svg PUBLIC "-//W3C//DTD SVG 1.1//EN"
  "http://www.w3.org/Graphics/SVG/1.1/DTD/svg11.dtd">
<svg xmlns:xlink="http://www.w3.org/1999/xlink" width="918pt" height="72pt" viewBox="0 0 918 72" xmlns="http://www.w3.org/2000/svg" version="1.1">
 <metadata>
  <rdf:RDF xmlns:dc="http://purl.org/dc/elements/1.1/" xmlns:cc="http://creativecommons.org/ns#" xmlns:rdf="http://www.w3.org/1999/02/22-rdf-syntax-ns#">
   <cc:Work>
    <dc:type rdf:resource="http://purl.org/dc/dcmitype/StillImage"/>
    <dc:date>2023-12-21T12:08:02.704241</dc:date>
    <dc:format>image/svg+xml</dc:format>
    <dc:creator>
     <cc:Agent>
      <dc:title>Matplotlib v3.5.1, https://matplotlib.org/</dc:title>
     </cc:Agent>
    </dc:creator>
   </cc:Work>
  </rdf:RDF>
 </metadata>
 <defs>
  <style type="text/css">*{stroke-linejoin: round; stroke-linecap: butt}</style>
 </defs>
 <g id="figure_1">
  <g id="patch_1">
   <path d="M 0 72 
L 918 72 
L 918 0 
L 0 0 
z
" style="fill: #8fff9f"/>
  </g>
  <g id="axes_1">
   <g id="patch_2">
    <path d="M 8.718579 29.071862 
Q 8.343683 29.146841 8.212469 29.577972 
Q 8.081255 30.009103 8.156234 30.42149 
Q 8.156234 30.571448 8.193724 30.702662 
Q 8.231214 30.833876 8.287448 30.89011 
Q 8.343683 30.946345 8.399917 31.040069 
Q 8.456152 31.133793 8.493641 31.208772 
L 8.60611 29.859145 
M 8.60611 34.020497 
Q 7.706359 39.006621 7.481421 42.793076 
L 7.931297 45.379862 
L 8.268703 46.054676 
" clip-path="url(#pc454b2ce69)" style="fill: none; stroke: #000000; stroke-linejoin: miter"/>
   </g>
  </g>
  <g id="axes_2">
   <g id="patch_3">
    <path d="M 19.838731 37.282097 
L 19.838731 37.844441 
Q 20.101159 39.868883 20.138648 41.312234 
Q 20.176138 42.755586 20.082414 44.667559 
Q 19.98869 46.579531 19.98869 48.191586 
L 20.063669 39.643945 
Q 20.063669 38.144359 21.656979 37.507034 
Q 23.25029 36.86971 24.674897 37.282097 
Q 26.586869 37.844441 27.505366 39.04411 
Q 28.423862 40.243779 28.480097 41.668386 
Q 28.536331 43.092993 28.573821 44.817517 
Q 28.61131 46.542041 28.761269 48.191586 
" clip-path="url(#paaaadad7d2)" style="fill: none; stroke: #000000; stroke-linejoin: miter"/>
   </g>
  </g>
  <g id="axes_3">
   <g id="patch_4">
    <path d="M 45.287191 39.096404 
Q 45.03236 39.023596 44.06764 38.623146 
Q 43.102921 38.222697 42.44764 38.077079 
Q 41.79236 37.931461 41.137079 38.00427 
Q 38.515955 38.00427 36.877753 40.388764 
Q 35.239551 42.773258 35.239551 45.430787 
Q 35.239551 47.068989 40.481798 47.068989 
Q 42.047191 47.068989 43.375955 45.558202 
Q 44.704719 44.047416 45.378202 42.172584 
Q 46.051685 40.297753 46.051685 38.768764 
Q 46.051685 37.27618 46.015281 36.984944 
L 45.942472 38.077079 
Q 45.942472 38.550337 45.942472 38.987191 
Q 45.978876 40.188539 46.179101 42.281798 
Q 46.379326 44.375056 46.543146 46.049663 
Q 46.706966 47.72427 46.743371 49.872135 
Q 46.779775 52.02 46.615955 53.658202 
Q 46.452135 55.296404 45.887865 56.971011 
Q 45.323596 58.645618 44.395281 59.737753 
Q 43.466966 60.829888 41.865169 61.521573 
Q 40.263371 62.213258 38.115506 62.213258 
Q 36.477303 62.213258 35.385169 61.466966 
Q 34.293034 60.720674 34.293034 59.155281 
Q 34.220225 58.936854 34.256629 58.936854 
Q 34.293034 58.936854 34.402247 58.936854 
Q 34.511461 58.936854 34.511461 58.82764 
" clip-path="url(#p7e7ff7230b)" style="fill: none; stroke: #000000; stroke-linejoin: miter"/>
   </g>
  </g>
  <g id="axes_4"/>
  <g id="axes_5">
   <g id="patch_5">
    <path d="M 73.518579 29.071862 
Q 73.143683 29.146841 73.012469 29.577972 
Q 72.881255 30.009103 72.956234 30.42149 
Q 72.956234 30.571448 72.993724 30.702662 
Q 73.031214 30.833876 73.087448 30.89011 
Q 73.143683 30.946345 73.199917 31.040069 
Q 73.256152 31.133793 73.293641 31.208772 
L 73.40611 29.859145 
M 73.40611 34.020497 
Q 72.506359 39.006621 72.281421 42.793076 
L 72.731297 45.379862 
L 73.068703 46.054676 
" clip-path="url(#p75d63ab2ad)" style="fill: none; stroke: #000000; stroke-linejoin: miter"/>
   </g>
  </g>
  <g id="axes_6">
   <g id="patch_6">
    <path d="M 84.638731 37.282097 
L 84.638731 37.844441 
Q 84.901159 39.868883 84.938648 41.312234 
Q 84.976138 42.755586 84.882414 44.667559 
Q 84.78869 46.579531 84.78869 48.191586 
L 84.863669 39.643945 
Q 84.863669 38.144359 86.456979 37.507034 
Q 88.05029 36.86971 89.474897 37.282097 
Q 91.386869 37.844441 92.305366 39.04411 
Q 93.223862 40.243779 93.280097 41.668386 
Q 93.336331 43.092993 93.373821 44.817517 
Q 93.41131 46.542041 93.561269 48.191586 
" clip-path="url(#pbdeae4f073)" style="fill: none; stroke: #000000; stroke-linejoin: miter"/>
   </g>
  </g>
  <g id="axes_7"/>
  <g id="axes_8">
   <g id="patch_7">
    <path d="M 117.038731 37.282097 
L 117.038731 37.844441 
Q 117.301159 39.868883 117.338648 41.312234 
Q 117.376138 42.755586 117.282414 44.667559 
Q 117.18869 46.579531 117.18869 48.191586 
L 117.263669 39.643945 
Q 117.263669 38.144359 118.856979 37.507034 
Q 120.45029 36.86971 121.874897 37.282097 
Q 123.786869 37.844441 124.705366 39.04411 
Q 125.623862 40.243779 125.680097 41.668386 
Q 125.736331 43.092993 125.773821 44.817517 
Q 125.81131 46.542041 125.961269 48.191586 
" clip-path="url(#p18270bfedc)" style="fill: none; stroke: #000000; stroke-linejoin: miter"/>
   </g>
  </g>
  <g id="axes_9">
   <g id="patch_8">
    <path d="M 131.457798 38.160826 
Q 134.430275 39.535596 139.149083 39.721376 
Q 140.672477 39.721376 141.359862 38.550963 
Q 142.047248 37.38055 142.047248 35.82 
Q 142.047248 35.299817 141.954358 34.909679 
Q 141.861468 34.519541 141.619954 34.296606 
Q 141.37844 34.07367 141.211239 33.943624 
Q 141.044037 33.813578 140.598165 33.757844 
Q 140.152294 33.70211 139.947936 33.683532 
Q 139.743578 33.664954 139.167661 33.683532 
Q 138.591743 33.70211 138.368807 33.70211 
Q 136.325229 33.70211 134.838991 35.578486 
Q 133.352752 37.454862 133.352752 39.609908 
Q 133.352752 42.619541 135.284862 44.570229 
Q 137.216972 46.520917 140.263761 46.520917 
Q 142.418807 46.818165 143.942202 44.29156 
" clip-path="url(#p124d4e095d)" style="fill: none; stroke: #000000; stroke-linejoin: miter"/>
   </g>
  </g>
  <g id="axes_10">
   <g id="patch_9">
    <path d="M 157.499007 34.920248 
Q 156.636745 36.007448 153.525103 40.018841 
Q 150.413462 44.030234 148.726428 46.054676 
M 149.626179 36.044938 
Q 151.500662 37.319586 153.993724 40.843614 
Q 156.486786 44.367641 158.061352 45.6048 
L 159.073572 45.942207 
" clip-path="url(#p0656237e1c)" style="fill: none; stroke: #000000; stroke-linejoin: miter"/>
   </g>
  </g>
  <g id="axes_11">
   <g id="patch_10">
    <path d="M 165.263834 37.95691 
L 165.938648 37.95691 
Q 166.650952 37.95691 167.438234 37.881931 
Q 168.225517 37.806952 169.181503 37.675738 
Q 170.13749 37.544524 170.662345 37.507034 
L 174.936166 35.82 
M 170.887283 30.42149 
L 170.887283 31.43371 
Q 170.887283 33.383172 170.212469 37.207117 
Q 169.537655 41.031062 169.537655 43.018014 
Q 169.537655 43.805297 169.537655 44.105214 
Q 169.537655 44.405131 169.631379 45.042455 
Q 169.725103 45.679779 169.912552 45.960952 
Q 170.1 46.242124 170.493641 46.485807 
Q 170.887283 46.72949 171.449628 46.72949 
Q 171.562097 46.692 171.880759 46.72949 
Q 172.199421 46.766979 172.386869 46.710745 
Q 172.574317 46.65451 172.574317 46.392083 
" clip-path="url(#p8182348b00)" style="fill: none; stroke: #000000; stroke-linejoin: miter"/>
   </g>
  </g>
  <g id="axes_12"/>
  <g id="axes_13">
   <g id="patch_11">
    <path d="M 197.663834 37.95691 
L 198.338648 37.95691 
Q 199.050952 37.95691 199.838234 37.881931 
Q 200.625517 37.806952 201.581503 37.675738 
Q 202.53749 37.544524 203.062345 37.507034 
L 207.336166 35.82 
M 203.287283 30.42149 
L 203.287283 31.43371 
Q 203.287283 33.383172 202.612469 37.207117 
Q 201.937655 41.031062 201.937655 43.018014 
Q 201.937655 43.805297 201.937655 44.105214 
Q 201.937655 44.405131 202.031379 45.042455 
Q 202.125103 45.679779 202.312552 45.960952 
Q 202.5 46.242124 202.893641 46.485807 
Q 203.287283 46.72949 203.849628 46.72949 
Q 203.962097 46.692 204.280759 46.72949 
Q 204.599421 46.766979 204.786869 46.710745 
Q 204.974317 46.65451 204.974317 46.392083 
" clip-path="url(#pf41e61c2ad)" style="fill: none; stroke: #000000; stroke-linejoin: miter"/>
   </g>
  </g>
  <g id="axes_14">
   <g id="patch_12">
    <path d="M 221.9616 35.032717 
Q 220.91189 34.582841 219.937159 34.69531 
Q 216.900497 35.032717 214.988524 36.701007 
Q 213.076552 38.369297 213.076552 41.330979 
Q 213.076552 43.917766 215.082248 45.6048 
Q 217.087945 47.291834 219.712221 47.291834 
Q 222.074069 47.291834 223.198759 45.361117 
Q 224.323448 43.4304 224.323448 40.881103 
Q 224.323448 39.643945 223.911062 38.706703 
Q 223.498676 37.769462 222.973821 37.300841 
Q 222.448966 36.832221 221.699172 36.119917 
Q 220.949379 35.407614 220.499503 34.69531 
L 219.262345 34.245434 
" clip-path="url(#p0d82c79221)" style="fill: none; stroke: #000000; stroke-linejoin: miter"/>
   </g>
  </g>
  <g id="axes_15"/>
  <g id="axes_16">
   <g id="patch_13">
    <path d="M 245.048638 35.788482 
L 245.237743 35.788482 
Q 246.120233 35.788482 247.885214 35.69393 
Q 249.650195 35.599377 250.532685 35.599377 
Q 252.077043 35.599377 253.274708 35.835759 
Q 254.472374 36.07214 255.496693 36.655214 
Q 256.521012 37.238288 257.072568 38.35716 
Q 257.624125 39.476031 257.624125 41.083424 
Q 257.624125 46.567471 247.507004 46.567471 
Q 247.475486 46.567471 245.615953 46.283813 
L 245.048638 46.000156 
M 245.048638 27.562412 
Q 246.687549 26.679922 248.641634 26.71144 
Q 250.910895 26.71144 252.943774 28.035175 
Q 254.976654 29.358911 254.976654 31.533619 
Q 254.976654 32.825837 254.425097 33.582257 
Q 253.873541 34.338677 253.148638 34.527782 
Q 252.423735 34.716887 251.430934 35.06358 
Q 250.438132 35.410272 249.870817 35.883035 
L 245.048638 35.788482 
M 244.575875 27.656965 
Q 244.796498 28.949183 244.733463 32.494903 
Q 244.670428 36.040623 245.237743 37.301323 
Q 245.237743 38.309883 245.190467 40.358521 
Q 245.143191 42.40716 245.143191 43.447237 
L 245.143191 45.243735 
L 244.954086 46.000156 
" clip-path="url(#p70803b0ecb)" style="fill: none; stroke: #000000; stroke-linejoin: miter"/>
   </g>
  </g>
  <g id="axes_17">
   <g id="patch_14">
    <path d="M 262.688772 35.145186 
Q 262.688772 35.145186 262.688772 35.595062 
Q 262.688772 36.269876 262.576303 37.619503 
Q 262.463834 38.969131 262.463834 39.643945 
Q 262.463834 41.930814 263.700993 43.599103 
Q 264.938152 45.267393 267.075062 45.267393 
Q 268.462179 45.154924 269.230717 43.917766 
Q 269.999255 42.680607 270.149214 41.237255 
Q 270.299172 39.793903 270.5616 37.9944 
Q 270.824028 36.194897 271.236414 35.370124 
Q 271.386372 35.070207 271.386372 35.670041 
Q 271.386372 36.269876 271.123945 38.706703 
Q 270.899007 41.031062 270.899007 41.555917 
Q 270.749048 42.643117 271.086455 43.767807 
Q 271.423862 44.892497 272.136166 45.6048 
" clip-path="url(#pa284b3a666)" style="fill: none; stroke: #000000; stroke-linejoin: miter"/>
   </g>
  </g>
  <g id="axes_18">
   <g id="patch_15">
    <path d="M 280.013462 32.783338 
Q 280.538317 34.507862 280.669531 36.457324 
Q 280.800745 38.406786 280.725766 40.956083 
Q 280.650786 43.505379 280.688276 44.705048 
L 280.800745 46.054676 
L 280.800745 45.829738 
Q 280.800745 44.667559 280.519572 42.30571 
Q 280.2384 39.943862 280.2384 38.744193 
Q 280.2384 36.419834 281.250621 34.882759 
Q 282.262841 33.345683 284.287283 33.345683 
Q 284.999586 33.345683 285.336993 33.626855 
Q 285.6744 33.908028 285.936828 34.432883 
Q 286.199255 34.957738 286.536662 35.257655 
L 286.986538 36.832221 
" clip-path="url(#pd3a0050823)" style="fill: none; stroke: #000000; stroke-linejoin: miter"/>
   </g>
  </g>
  <g id="axes_19">
   <g id="patch_16">
    <path d="M 294.863834 37.95691 
L 295.538648 37.95691 
Q 296.250952 37.95691 297.038234 37.881931 
Q 297.825517 37.806952 298.781503 37.675738 
Q 299.73749 37.544524 300.262345 37.507034 
L 304.536166 35.82 
M 300.487283 30.42149 
L 300.487283 31.43371 
Q 300.487283 33.383172 299.812469 37.207117 
Q 299.137655 41.031062 299.137655 43.018014 
Q 299.137655 43.805297 299.137655 44.105214 
Q 299.137655 44.405131 299.231379 45.042455 
Q 299.325103 45.679779 299.512552 45.960952 
Q 299.7 46.242124 300.093641 46.485807 
Q 300.487283 46.72949 301.049628 46.72949 
Q 301.162097 46.692 301.480759 46.72949 
Q 301.799421 46.766979 301.986869 46.710745 
Q 302.174317 46.65451 302.174317 46.392083 
" clip-path="url(#p8b9af2e736)" style="fill: none; stroke: #000000; stroke-linejoin: miter"/>
   </g>
  </g>
  <g id="axes_20"/>
  <g id="axes_21">
   <g id="patch_17">
    <path d="M 337.643923 36.441748 
Q 336.434968 35.094627 332.462687 35.094627 
Q 330.942857 35.094627 330.165672 35.146439 
Q 329.388486 35.198252 328.38678 35.440043 
Q 327.385075 35.681834 326.901493 36.182687 
Q 326.41791 36.683539 326.072495 37.616162 
Q 325.727079 38.548785 325.727079 39.964989 
Q 325.727079 42.037484 327.143284 43.280981 
Q 328.559488 44.524478 330.493817 44.524478 
Q 333.153518 44.524478 335.916844 38.721493 
Q 337.263966 35.854542 337.263966 35.82 
Q 337.609382 35.578209 337.643923 36.441748 
Q 337.643923 37.512537 338.058422 40.362217 
Q 338.472921 43.211898 338.472921 44.524478 
" clip-path="url(#p4c41648d5f)" style="fill: none; stroke: #000000; stroke-linejoin: miter"/>
   </g>
  </g>
  <g id="axes_22">
   <g id="patch_18">
    <path d="M 343.838731 37.282097 
L 343.838731 37.844441 
Q 344.101159 39.868883 344.138648 41.312234 
Q 344.176138 42.755586 344.082414 44.667559 
Q 343.98869 46.579531 343.98869 48.191586 
L 344.063669 39.643945 
Q 344.063669 38.144359 345.656979 37.507034 
Q 347.25029 36.86971 348.674897 37.282097 
Q 350.586869 37.844441 351.505366 39.04411 
Q 352.423862 40.243779 352.480097 41.668386 
Q 352.536331 43.092993 352.573821 44.817517 
Q 352.61131 46.542041 352.761269 48.191586 
" clip-path="url(#p7a368e56a5)" style="fill: none; stroke: #000000; stroke-linejoin: miter"/>
   </g>
  </g>
  <g id="axes_23">
   <g id="patch_19">
    <path d="M 368.099007 39.568966 
Q 366.749379 38.181848 364.5 38.444276 
Q 361.650786 38.444276 360.488607 39.793903 
Q 359.326428 41.143531 359.326428 44.067724 
Q 359.326428 45.56731 360.619821 46.279614 
Q 361.913214 46.991917 363.487779 46.991917 
Q 364.799917 46.991917 365.812138 45.736014 
Q 366.824359 44.48011 367.405448 42.30571 
Q 367.986538 40.13131 368.361434 37.938166 
Q 368.736331 35.745021 368.88629 33.045766 
Q 369.036248 30.34651 369.073738 28.978138 
Q 369.111228 27.609766 369.111228 26.185159 
Q 368.88629 26.260138 368.88629 29.896634 
L 368.88629 44.292662 
L 369.673572 48.229076 
" clip-path="url(#pd53f683c09)" style="fill: none; stroke: #000000; stroke-linejoin: miter"/>
   </g>
  </g>
  <g id="axes_24"/>
  <g id="axes_25">
   <g id="patch_20">
    <path d="M 400.1616 35.032717 
Q 399.11189 34.582841 398.137159 34.69531 
Q 395.100497 35.032717 393.188524 36.701007 
Q 391.276552 38.369297 391.276552 41.330979 
Q 391.276552 43.917766 393.282248 45.6048 
Q 395.287945 47.291834 397.912221 47.291834 
Q 400.274069 47.291834 401.398759 45.361117 
Q 402.523448 43.4304 402.523448 40.881103 
Q 402.523448 39.643945 402.111062 38.706703 
Q 401.698676 37.769462 401.173821 37.300841 
Q 400.648966 36.832221 399.899172 36.119917 
Q 399.149379 35.407614 398.699503 34.69531 
L 397.462345 34.245434 
" clip-path="url(#p34fb26e6b2)" style="fill: none; stroke: #000000; stroke-linejoin: miter"/>
   </g>
  </g>
  <g id="axes_26">
   <g id="patch_21">
    <path d="M 406.784141 38.85304 
L 407.212335 38.85304 
Q 408.03304 38.85304 408.996476 38.745991 
Q 409.959912 38.638943 411.119604 38.460529 
Q 412.279295 38.282115 412.885903 38.210749 
L 419.415859 35.427489 
M 419.094714 25.793128 
Q 418.809251 25.721762 417.774449 25.275727 
Q 416.739648 24.829692 416.097357 24.93674 
Q 415.455066 24.93674 414.937665 25.150837 
Q 414.420264 25.364934 414.081278 25.793128 
Q 413.742291 26.221322 413.47467 26.685198 
Q 413.207048 27.149075 413.064317 27.862731 
Q 412.921586 28.576388 412.814537 29.129471 
Q 412.707489 29.682555 412.689648 30.50326 
Q 412.671806 31.323965 412.653965 31.77 
Q 412.636123 32.216035 412.653965 32.965374 
Q 412.671806 33.714714 412.671806 33.928811 
Q 412.671806 36.605022 413.367621 41.850396 
Q 414.063436 47.095771 414.063436 49.771982 
Q 413.99207 50.057445 413.956388 50.681894 
Q 413.920705 51.306344 413.813656 51.805903 
Q 413.706608 52.305463 413.421145 52.555242 
" clip-path="url(#pe19309f6c4)" style="fill: none; stroke: #000000; stroke-linejoin: miter"/>
   </g>
  </g>
  <g id="axes_27">
   <g id="patch_22">
    <path d="M 422.984141 38.85304 
L 423.412335 38.85304 
Q 424.23304 38.85304 425.196476 38.745991 
Q 426.159912 38.638943 427.319604 38.460529 
Q 428.479295 38.282115 429.085903 38.210749 
L 435.615859 35.427489 
M 435.294714 25.793128 
Q 435.009251 25.721762 433.974449 25.275727 
Q 432.939648 24.829692 432.297357 24.93674 
Q 431.655066 24.93674 431.137665 25.150837 
Q 430.620264 25.364934 430.281278 25.793128 
Q 429.942291 26.221322 429.67467 26.685198 
Q 429.407048 27.149075 429.264317 27.862731 
Q 429.121586 28.576388 429.014537 29.129471 
Q 428.907489 29.682555 428.889648 30.50326 
Q 428.871806 31.323965 428.853965 31.77 
Q 428.836123 32.216035 428.853965 32.965374 
Q 428.871806 33.714714 428.871806 33.928811 
Q 428.871806 36.605022 429.567621 41.850396 
Q 430.263436 47.095771 430.263436 49.771982 
Q 430.19207 50.057445 430.156388 50.681894 
Q 430.120705 51.306344 430.013656 51.805903 
Q 429.906608 52.305463 429.621145 52.555242 
" clip-path="url(#p68760beca6)" style="fill: none; stroke: #000000; stroke-linejoin: miter"/>
   </g>
  </g>
  <g id="axes_28">
   <g id="patch_23">
    <path d="M 439.257798 38.160826 
Q 442.230275 39.535596 446.949083 39.721376 
Q 448.472477 39.721376 449.159862 38.550963 
Q 449.847248 37.38055 449.847248 35.82 
Q 449.847248 35.299817 449.754358 34.909679 
Q 449.661468 34.519541 449.419954 34.296606 
Q 449.17844 34.07367 449.011239 33.943624 
Q 448.844037 33.813578 448.398165 33.757844 
Q 447.952294 33.70211 447.747936 33.683532 
Q 447.543578 33.664954 446.967661 33.683532 
Q 446.391743 33.70211 446.168807 33.70211 
Q 444.125229 33.70211 442.638991 35.578486 
Q 441.152752 37.454862 441.152752 39.609908 
Q 441.152752 42.619541 443.084862 44.570229 
Q 445.016972 46.520917 448.063761 46.520917 
Q 450.218807 46.818165 451.742202 44.29156 
" clip-path="url(#p067e7c21c0)" style="fill: none; stroke: #000000; stroke-linejoin: miter"/>
   </g>
  </g>
  <g id="axes_29">
   <g id="patch_24">
    <path d="M 458.213462 32.783338 
Q 458.738317 34.507862 458.869531 36.457324 
Q 459.000745 38.406786 458.925766 40.956083 
Q 458.850786 43.505379 458.888276 44.705048 
L 459.000745 46.054676 
L 459.000745 45.829738 
Q 459.000745 44.667559 458.719572 42.30571 
Q 458.4384 39.943862 458.4384 38.744193 
Q 458.4384 36.419834 459.450621 34.882759 
Q 460.462841 33.345683 462.487283 33.345683 
Q 463.199586 33.345683 463.536993 33.626855 
Q 463.8744 33.908028 464.136828 34.432883 
Q 464.399255 34.957738 464.736662 35.257655 
L 465.186538 36.832221 
" clip-path="url(#p7af2b8388b)" style="fill: none; stroke: #000000; stroke-linejoin: miter"/>
   </g>
  </g>
  <g id="axes_30">
   <g id="patch_25">
    <path d="M 478.518579 29.071862 
Q 478.143683 29.146841 478.012469 29.577972 
Q 477.881255 30.009103 477.956234 30.42149 
Q 477.956234 30.571448 477.993724 30.702662 
Q 478.031214 30.833876 478.087448 30.89011 
Q 478.143683 30.946345 478.199917 31.040069 
Q 478.256152 31.133793 478.293641 31.208772 
L 478.40611 29.859145 
M 478.40611 34.020497 
Q 477.506359 39.006621 477.281421 42.793076 
L 477.731297 45.379862 
L 478.068703 46.054676 
" clip-path="url(#p52472b14dc)" style="fill: none; stroke: #000000; stroke-linejoin: miter"/>
   </g>
  </g>
  <g id="axes_31">
   <g id="patch_26">
    <path d="M 489.638731 37.282097 
L 489.638731 37.844441 
Q 489.901159 39.868883 489.938648 41.312234 
Q 489.976138 42.755586 489.882414 44.667559 
Q 489.78869 46.579531 489.78869 48.191586 
L 489.863669 39.643945 
Q 489.863669 38.144359 491.456979 37.507034 
Q 493.05029 36.86971 494.474897 37.282097 
Q 496.386869 37.844441 497.305366 39.04411 
Q 498.223862 40.243779 498.280097 41.668386 
Q 498.336331 43.092993 498.373821 44.817517 
Q 498.41131 46.542041 498.561269 48.191586 
" clip-path="url(#p358142a24d)" style="fill: none; stroke: #000000; stroke-linejoin: miter"/>
   </g>
  </g>
  <g id="axes_32">
   <g id="patch_27">
    <path d="M 515.087191 39.096404 
Q 514.83236 39.023596 513.86764 38.623146 
Q 512.902921 38.222697 512.24764 38.077079 
Q 511.59236 37.931461 510.937079 38.00427 
Q 508.315955 38.00427 506.677753 40.388764 
Q 505.039551 42.773258 505.039551 45.430787 
Q 505.039551 47.068989 510.281798 47.068989 
Q 511.847191 47.068989 513.175955 45.558202 
Q 514.504719 44.047416 515.178202 42.172584 
Q 515.851685 40.297753 515.851685 38.768764 
Q 515.851685 37.27618 515.815281 36.984944 
L 515.742472 38.077079 
Q 515.742472 38.550337 515.742472 38.987191 
Q 515.778876 40.188539 515.979101 42.281798 
Q 516.179326 44.375056 516.343146 46.049663 
Q 516.506966 47.72427 516.543371 49.872135 
Q 516.579775 52.02 516.415955 53.658202 
Q 516.252135 55.296404 515.687865 56.971011 
Q 515.123596 58.645618 514.195281 59.737753 
Q 513.266966 60.829888 511.665169 61.521573 
Q 510.063371 62.213258 507.915506 62.213258 
Q 506.277303 62.213258 505.185169 61.466966 
Q 504.093034 60.720674 504.093034 59.155281 
Q 504.020225 58.936854 504.056629 58.936854 
Q 504.093034 58.936854 504.202247 58.936854 
Q 504.311461 58.936854 504.311461 58.82764 
" clip-path="url(#p32415bcea3)" style="fill: none; stroke: #000000; stroke-linejoin: miter"/>
   </g>
  </g>
  <g id="axes_33"/>
  <g id="axes_34">
   <g id="patch_28">
    <path d="M 539.213462 35.932469 
Q 539.813297 35.257655 540.806772 34.826524 
Q 541.800248 34.395393 542.7 34.470372 
Q 543.337324 34.470372 543.82469 34.639076 
Q 544.312055 34.807779 544.630717 34.995228 
Q 544.949379 35.182676 545.174317 35.670041 
Q 545.399255 36.157407 545.511724 36.419834 
Q 545.624193 36.682262 545.680428 37.375821 
Q 545.736662 38.069379 545.755407 38.331807 
Q 545.774152 38.594234 545.755407 39.419007 
Q 545.736662 40.243779 545.736662 40.431228 
Q 545.736662 41.368469 545.567959 43.242952 
Q 545.399255 45.117434 545.399255 46.054676 
Q 545.399255 46.467062 545.45549 46.823214 
Q 545.511724 47.179366 545.605448 47.610497 
Q 545.699172 48.041628 545.736662 48.304055 
L 546.186538 48.528993 
M 539.663338 23.111007 
Q 539.888276 24.798041 539.888276 29.971614 
L 539.888276 42.3432 
L 539.550869 46.841959 
L 539.325931 47.74171 
" clip-path="url(#pc54a312cdc)" style="fill: none; stroke: #000000; stroke-linejoin: miter"/>
   </g>
  </g>
  <g id="axes_35">
   <g id="patch_29">
    <path d="M 559.518579 29.071862 
Q 559.143683 29.146841 559.012469 29.577972 
Q 558.881255 30.009103 558.956234 30.42149 
Q 558.956234 30.571448 558.993724 30.702662 
Q 559.031214 30.833876 559.087448 30.89011 
Q 559.143683 30.946345 559.199917 31.040069 
Q 559.256152 31.133793 559.293641 31.208772 
L 559.40611 29.859145 
M 559.40611 34.020497 
Q 558.506359 39.006621 558.281421 42.793076 
L 558.731297 45.379862 
L 559.068703 46.054676 
" clip-path="url(#p2e843226b2)" style="fill: none; stroke: #000000; stroke-linejoin: miter"/>
   </g>
  </g>
  <g id="axes_36">
   <g id="patch_30">
    <path d="M 570.657476 43.917766 
Q 570.957393 44.180193 571.969614 45.154924 
Q 572.981834 46.129655 573.544179 46.560786 
Q 574.106524 46.991917 575.13749 47.385559 
Q 576.168455 47.7792 577.180676 47.629241 
Q 577.85549 47.629241 578.32411 47.404303 
Q 578.792731 47.179366 579.017669 46.879448 
Q 579.242607 46.579531 579.373821 45.979697 
Q 579.505034 45.379862 579.523779 44.967476 
Q 579.542524 44.55509 579.542524 43.805297 
Q 579.542524 42.718097 578.642772 42.043283 
Q 577.743021 41.368469 576.449628 41.031062 
Q 575.156234 40.693655 573.862841 40.300014 
Q 572.569448 39.906372 571.669697 38.987876 
Q 570.769945 38.069379 570.769945 36.607283 
Q 570.769945 36.082428 570.938648 35.726276 
Q 571.107352 35.370124 571.500993 35.145186 
Q 571.894634 34.920248 572.175807 34.807779 
Q 572.456979 34.69531 573.113048 34.639076 
Q 573.769117 34.582841 573.956566 34.582841 
Q 574.144014 34.582841 574.818828 34.582841 
Q 576.018497 34.582841 576.599586 34.995228 
Q 577.180676 35.407614 577.499338 36.026193 
Q 577.818 36.644772 578.080428 36.832221 
" clip-path="url(#p952108f7f5)" style="fill: none; stroke: #000000; stroke-linejoin: miter"/>
   </g>
  </g>
  <g id="axes_37"/>
  <g id="axes_38">
   <g id="patch_31">
    <path d="M 604.013462 35.932469 
Q 604.613297 35.257655 605.606772 34.826524 
Q 606.600248 34.395393 607.5 34.470372 
Q 608.137324 34.470372 608.62469 34.639076 
Q 609.112055 34.807779 609.430717 34.995228 
Q 609.749379 35.182676 609.974317 35.670041 
Q 610.199255 36.157407 610.311724 36.419834 
Q 610.424193 36.682262 610.480428 37.375821 
Q 610.536662 38.069379 610.555407 38.331807 
Q 610.574152 38.594234 610.555407 39.419007 
Q 610.536662 40.243779 610.536662 40.431228 
Q 610.536662 41.368469 610.367959 43.242952 
Q 610.199255 45.117434 610.199255 46.054676 
Q 610.199255 46.467062 610.25549 46.823214 
Q 610.311724 47.179366 610.405448 47.610497 
Q 610.499172 48.041628 610.536662 48.304055 
L 610.986538 48.528993 
M 604.463338 23.111007 
Q 604.688276 24.798041 604.688276 29.971614 
L 604.688276 42.3432 
L 604.350869 46.841959 
L 604.125931 47.74171 
" clip-path="url(#p4039238b38)" style="fill: none; stroke: #000000; stroke-linejoin: miter"/>
   </g>
  </g>
  <g id="axes_39">
   <g id="patch_32">
    <path d="M 629.243923 36.441748 
Q 628.034968 35.094627 624.062687 35.094627 
Q 622.542857 35.094627 621.765672 35.146439 
Q 620.988486 35.198252 619.98678 35.440043 
Q 618.985075 35.681834 618.501493 36.182687 
Q 618.01791 36.683539 617.672495 37.616162 
Q 617.327079 38.548785 617.327079 39.964989 
Q 617.327079 42.037484 618.743284 43.280981 
Q 620.159488 44.524478 622.093817 44.524478 
Q 624.753518 44.524478 627.516844 38.721493 
Q 628.863966 35.854542 628.863966 35.82 
Q 629.209382 35.578209 629.243923 36.441748 
Q 629.243923 37.512537 629.658422 40.362217 
Q 630.072921 43.211898 630.072921 44.524478 
" clip-path="url(#p3ce83113e9)" style="fill: none; stroke: #000000; stroke-linejoin: miter"/>
   </g>
  </g>
  <g id="axes_40">
   <g id="patch_33">
    <path d="M 635.438731 37.282097 
L 635.438731 37.844441 
Q 635.701159 39.868883 635.738648 41.312234 
Q 635.776138 42.755586 635.682414 44.667559 
Q 635.58869 46.579531 635.58869 48.191586 
L 635.663669 39.643945 
Q 635.663669 38.144359 637.256979 37.507034 
Q 638.85029 36.86971 640.274897 37.282097 
Q 642.186869 37.844441 643.105366 39.04411 
Q 644.023862 40.243779 644.080097 41.668386 
Q 644.136331 43.092993 644.173821 44.817517 
Q 644.21131 46.542041 644.361269 48.191586 
" clip-path="url(#ped0c29bcd0)" style="fill: none; stroke: #000000; stroke-linejoin: miter"/>
   </g>
  </g>
  <g id="axes_41">
   <g id="patch_34">
    <path d="M 659.699007 39.568966 
Q 658.349379 38.181848 656.1 38.444276 
Q 653.250786 38.444276 652.088607 39.793903 
Q 650.926428 41.143531 650.926428 44.067724 
Q 650.926428 45.56731 652.219821 46.279614 
Q 653.513214 46.991917 655.087779 46.991917 
Q 656.399917 46.991917 657.412138 45.736014 
Q 658.424359 44.48011 659.005448 42.30571 
Q 659.586538 40.13131 659.961434 37.938166 
Q 660.336331 35.745021 660.48629 33.045766 
Q 660.636248 30.34651 660.673738 28.978138 
Q 660.711228 27.609766 660.711228 26.185159 
Q 660.48629 26.260138 660.48629 29.896634 
L 660.48629 44.292662 
L 661.273572 48.229076 
" clip-path="url(#pb681c56534)" style="fill: none; stroke: #000000; stroke-linejoin: miter"/>
   </g>
  </g>
  <g id="axes_42"/>
  <g id="axes_43">
   <g id="patch_35">
    <path d="M 683.663834 37.95691 
L 684.338648 37.95691 
Q 685.050952 37.95691 685.838234 37.881931 
Q 686.625517 37.806952 687.581503 37.675738 
Q 688.53749 37.544524 689.062345 37.507034 
L 693.336166 35.82 
M 689.287283 30.42149 
L 689.287283 31.43371 
Q 689.287283 33.383172 688.612469 37.207117 
Q 687.937655 41.031062 687.937655 43.018014 
Q 687.937655 43.805297 687.937655 44.105214 
Q 687.937655 44.405131 688.031379 45.042455 
Q 688.125103 45.679779 688.312552 45.960952 
Q 688.5 46.242124 688.893641 46.485807 
Q 689.287283 46.72949 689.849628 46.72949 
Q 689.962097 46.692 690.280759 46.72949 
Q 690.599421 46.766979 690.786869 46.710745 
Q 690.974317 46.65451 690.974317 46.392083 
" clip-path="url(#p1d8af6e307)" style="fill: none; stroke: #000000; stroke-linejoin: miter"/>
   </g>
  </g>
  <g id="axes_44">
   <g id="patch_36">
    <path d="M 707.9616 35.032717 
Q 706.91189 34.582841 705.937159 34.69531 
Q 702.900497 35.032717 700.988524 36.701007 
Q 699.076552 38.369297 699.076552 41.330979 
Q 699.076552 43.917766 701.082248 45.6048 
Q 703.087945 47.291834 705.712221 47.291834 
Q 708.074069 47.291834 709.198759 45.361117 
Q 710.323448 43.4304 710.323448 40.881103 
Q 710.323448 39.643945 709.911062 38.706703 
Q 709.498676 37.769462 708.973821 37.300841 
Q 708.448966 36.832221 707.699172 36.119917 
Q 706.949379 35.407614 706.499503 34.69531 
L 705.262345 34.245434 
" clip-path="url(#pfdf2c19643)" style="fill: none; stroke: #000000; stroke-linejoin: miter"/>
   </g>
  </g>
  <g id="axes_45"/>
  <g id="axes_46">
   <g id="patch_37">
    <path d="M 732.657476 43.917766 
Q 732.957393 44.180193 733.969614 45.154924 
Q 734.981834 46.129655 735.544179 46.560786 
Q 736.106524 46.991917 737.13749 47.385559 
Q 738.168455 47.7792 739.180676 47.629241 
Q 739.85549 47.629241 740.32411 47.404303 
Q 740.792731 47.179366 741.017669 46.879448 
Q 741.242607 46.579531 741.373821 45.979697 
Q 741.505034 45.379862 741.523779 44.967476 
Q 741.542524 44.55509 741.542524 43.805297 
Q 741.542524 42.718097 740.642772 42.043283 
Q 739.743021 41.368469 738.449628 41.031062 
Q 737.156234 40.693655 735.862841 40.300014 
Q 734.569448 39.906372 733.669697 38.987876 
Q 732.769945 38.069379 732.769945 36.607283 
Q 732.769945 36.082428 732.938648 35.726276 
Q 733.107352 35.370124 733.500993 35.145186 
Q 733.894634 34.920248 734.175807 34.807779 
Q 734.456979 34.69531 735.113048 34.639076 
Q 735.769117 34.582841 735.956566 34.582841 
Q 736.144014 34.582841 736.818828 34.582841 
Q 738.018497 34.582841 738.599586 34.995228 
Q 739.180676 35.407614 739.499338 36.026193 
Q 739.818 36.644772 740.080428 36.832221 
" clip-path="url(#p6195421be2)" style="fill: none; stroke: #000000; stroke-linejoin: miter"/>
   </g>
  </g>
  <g id="axes_47">
   <g id="patch_38">
    <path d="M 749.813462 35.932469 
Q 750.413297 35.257655 751.406772 34.826524 
Q 752.400248 34.395393 753.3 34.470372 
Q 753.937324 34.470372 754.42469 34.639076 
Q 754.912055 34.807779 755.230717 34.995228 
Q 755.549379 35.182676 755.774317 35.670041 
Q 755.999255 36.157407 756.111724 36.419834 
Q 756.224193 36.682262 756.280428 37.375821 
Q 756.336662 38.069379 756.355407 38.331807 
Q 756.374152 38.594234 756.355407 39.419007 
Q 756.336662 40.243779 756.336662 40.431228 
Q 756.336662 41.368469 756.167959 43.242952 
Q 755.999255 45.117434 755.999255 46.054676 
Q 755.999255 46.467062 756.05549 46.823214 
Q 756.111724 47.179366 756.205448 47.610497 
Q 756.299172 48.041628 756.336662 48.304055 
L 756.786538 48.528993 
M 750.263338 23.111007 
Q 750.488276 24.798041 750.488276 29.971614 
L 750.488276 42.3432 
L 750.150869 46.841959 
L 749.925931 47.74171 
" clip-path="url(#p8652e93396)" style="fill: none; stroke: #000000; stroke-linejoin: miter"/>
   </g>
  </g>
  <g id="axes_48">
   <g id="patch_39">
    <path d="M 775.043923 36.441748 
Q 773.834968 35.094627 769.862687 35.094627 
Q 768.342857 35.094627 767.565672 35.146439 
Q 766.788486 35.198252 765.78678 35.440043 
Q 764.785075 35.681834 764.301493 36.182687 
Q 763.81791 36.683539 763.472495 37.616162 
Q 763.127079 38.548785 763.127079 39.964989 
Q 763.127079 42.037484 764.543284 43.280981 
Q 765.959488 44.524478 767.893817 44.524478 
Q 770.553518 44.524478 773.316844 38.721493 
Q 774.663966 35.854542 774.663966 35.82 
Q 775.009382 35.578209 775.043923 36.441748 
Q 775.043923 37.512537 775.458422 40.362217 
Q 775.872921 43.211898 775.872921 44.524478 
" clip-path="url(#pc8adf17103)" style="fill: none; stroke: #000000; stroke-linejoin: miter"/>
   </g>
  </g>
  <g id="axes_49">
   <g id="patch_40">
    <path d="M 783.731793 37.169628 
Q 785.756234 39.194069 787.518248 41.76211 
Q 789.280262 44.330152 790.142524 46.72949 
M 786.768455 31.321241 
L 786.768455 31.546179 
Q 786.768455 32.333462 786.131131 33.514386 
Q 785.493807 34.69531 784.519076 36.101172 
Q 783.544345 37.507034 783.281917 37.95691 
L 782.044759 39.643945 
M 781.257476 26.710014 
Q 783.094469 36.269876 783.281917 48.641462 
" clip-path="url(#p4692d4511c)" style="fill: none; stroke: #000000; stroke-linejoin: miter"/>
   </g>
  </g>
  <g id="axes_50">
   <g id="patch_41">
    <path d="M 795.657798 38.160826 
Q 798.630275 39.535596 803.349083 39.721376 
Q 804.872477 39.721376 805.559862 38.550963 
Q 806.247248 37.38055 806.247248 35.82 
Q 806.247248 35.299817 806.154358 34.909679 
Q 806.061468 34.519541 805.819954 34.296606 
Q 805.57844 34.07367 805.411239 33.943624 
Q 805.244037 33.813578 804.798165 33.757844 
Q 804.352294 33.70211 804.147936 33.683532 
Q 803.943578 33.664954 803.367661 33.683532 
Q 802.791743 33.70211 802.568807 33.70211 
Q 800.525229 33.70211 799.038991 35.578486 
Q 797.552752 37.454862 797.552752 39.609908 
Q 797.552752 42.619541 799.484862 44.570229 
Q 801.416972 46.520917 804.463761 46.520917 
Q 806.618807 46.818165 808.142202 44.29156 
" clip-path="url(#p17f65f875c)" style="fill: none; stroke: #000000; stroke-linejoin: miter"/>
   </g>
  </g>
  <g id="axes_51">
   <g id="patch_42">
    <path d="M 817.387697 39.981352 
Q 818.399917 40.956083 818.737324 42.905545 
Q 818.924772 43.955255 818.512386 46.167145 
L 817.275228 47.629241 
" clip-path="url(#pcaf28cfdec)" style="fill: none; stroke: #000000; stroke-linejoin: miter"/>
   </g>
  </g>
 </g>
 <defs>
  <clipPath id="pc454b2ce69">
   <rect x="5.606938" y="8.64" width="4.986124" height="54.36"/>
  </clipPath>
  <clipPath id="paaaadad7d2">
   <rect x="17.964248" y="8.64" width="12.671503" height="54.36"/>
  </clipPath>
  <clipPath id="p7e7ff7230b">
   <rect x="32.4" y="9.426742" width="16.2" height="52.786517"/>
  </clipPath>
  <clipPath id="p75d63ab2ad">
   <rect x="70.406938" y="8.64" width="4.986124" height="54.36"/>
  </clipPath>
  <clipPath id="pbdeae4f073">
   <rect x="82.764248" y="8.64" width="12.671503" height="54.36"/>
  </clipPath>
  <clipPath id="p18270bfedc">
   <rect x="115.164248" y="8.64" width="12.671503" height="54.36"/>
  </clipPath>
  <clipPath id="p124d4e095d">
   <rect x="129.6" y="8.881927" width="16.2" height="53.876147"/>
  </clipPath>
  <clipPath id="p0656237e1c">
   <rect x="146.851945" y="8.64" width="14.09611" height="54.36"/>
  </clipPath>
  <clipPath id="p8182348b00">
   <rect x="163.389352" y="8.64" width="13.421297" height="54.36"/>
  </clipPath>
  <clipPath id="pf41e61c2ad">
   <rect x="195.789352" y="8.64" width="13.421297" height="54.36"/>
  </clipPath>
  <clipPath id="p0d82c79221">
   <rect x="211.202069" y="8.64" width="14.995862" height="54.36"/>
  </clipPath>
  <clipPath id="p70803b0ecb">
   <rect x="243" y="12.969805" width="16.2" height="45.700389"/>
  </clipPath>
  <clipPath id="pa284b3a666">
   <rect x="260.589352" y="8.64" width="13.421297" height="54.36"/>
  </clipPath>
  <clipPath id="pd3a0050823">
   <rect x="278.138979" y="8.64" width="10.722041" height="54.36"/>
  </clipPath>
  <clipPath id="p8b9af2e736">
   <rect x="292.989352" y="8.64" width="13.421297" height="54.36"/>
  </clipPath>
  <clipPath id="p4c41648d5f">
   <rect x="324" y="10.777356" width="16.2" height="50.085288"/>
  </clipPath>
  <clipPath id="p7a368e56a5">
   <rect x="341.964248" y="8.64" width="12.671503" height="54.36"/>
  </clipPath>
  <clipPath id="pd53f683c09">
   <rect x="357.451945" y="8.64" width="14.09611" height="54.36"/>
  </clipPath>
  <clipPath id="p34fb26e6b2">
   <rect x="389.402069" y="8.64" width="14.995862" height="54.36"/>
  </clipPath>
  <clipPath id="pe19309f6c4">
   <rect x="405" y="9.949956" width="16.2" height="51.740088"/>
  </clipPath>
  <clipPath id="p68760beca6">
   <rect x="421.2" y="9.949956" width="16.2" height="51.740088"/>
  </clipPath>
  <clipPath id="p067e7c21c0">
   <rect x="437.4" y="8.881927" width="16.2" height="53.876147"/>
  </clipPath>
  <clipPath id="p7af2b8388b">
   <rect x="456.338979" y="8.64" width="10.722041" height="54.36"/>
  </clipPath>
  <clipPath id="p52472b14dc">
   <rect x="475.406938" y="8.64" width="4.986124" height="54.36"/>
  </clipPath>
  <clipPath id="p358142a24d">
   <rect x="487.764248" y="8.64" width="12.671503" height="54.36"/>
  </clipPath>
  <clipPath id="p32415bcea3">
   <rect x="502.2" y="9.426742" width="16.2" height="52.786517"/>
  </clipPath>
  <clipPath id="pc54a312cdc">
   <rect x="537.338979" y="8.64" width="10.722041" height="54.36"/>
  </clipPath>
  <clipPath id="p2e843226b2">
   <rect x="556.406938" y="8.64" width="4.986124" height="54.36"/>
  </clipPath>
  <clipPath id="p952108f7f5">
   <rect x="568.782993" y="8.64" width="12.634014" height="54.36"/>
  </clipPath>
  <clipPath id="p4039238b38">
   <rect x="602.138979" y="8.64" width="10.722041" height="54.36"/>
  </clipPath>
  <clipPath id="p3ce83113e9">
   <rect x="615.6" y="10.777356" width="16.2" height="50.085288"/>
  </clipPath>
  <clipPath id="ped0c29bcd0">
   <rect x="633.564248" y="8.64" width="12.671503" height="54.36"/>
  </clipPath>
  <clipPath id="pb681c56534">
   <rect x="649.051945" y="8.64" width="14.09611" height="54.36"/>
  </clipPath>
  <clipPath id="p1d8af6e307">
   <rect x="681.789352" y="8.64" width="13.421297" height="54.36"/>
  </clipPath>
  <clipPath id="pfdf2c19643">
   <rect x="697.202069" y="8.64" width="14.995862" height="54.36"/>
  </clipPath>
  <clipPath id="p6195421be2">
   <rect x="730.782993" y="8.64" width="12.634014" height="54.36"/>
  </clipPath>
  <clipPath id="p8652e93396">
   <rect x="747.938979" y="8.64" width="10.722041" height="54.36"/>
  </clipPath>
  <clipPath id="pc8adf17103">
   <rect x="761.4" y="10.777356" width="16.2" height="50.085288"/>
  </clipPath>
  <clipPath id="p4692d4511c">
   <rect x="779.382993" y="8.64" width="12.634014" height="54.36"/>
  </clipPath>
  <clipPath id="p17f65f875c">
   <rect x="793.8" y="8.881927" width="16.2" height="53.876147"/>
  </clipPath>
  <clipPath id="pcaf28cfdec">
   <rect x="815.400745" y="8.64" width="5.39851" height="54.36"/>
  </clipPath>
 </defs>
</svg>
