<?xml version="1.0" encoding="utf-8" standalone="no"?>
<!DOCTYPE svg PUBLIC "-//W3C//DTD SVG 1.1//EN"
  "http://www.w3.org/Graphics/SVG/1.1/DTD/svg11.dtd">
<svg xmlns:xlink="http://www.w3.org/1999/xlink" width="774pt" height="72pt" viewBox="0 0 774 72" xmlns="http://www.w3.org/2000/svg" version="1.1">
 <metadata>
  <rdf:RDF xmlns:dc="http://purl.org/dc/elements/1.1/" xmlns:cc="http://creativecommons.org/ns#" xmlns:rdf="http://www.w3.org/1999/02/22-rdf-syntax-ns#">
   <cc:Work>
    <dc:type rdf:resource="http://purl.org/dc/dcmitype/StillImage"/>
    <dc:date>2023-12-21T12:08:00.225465</dc:date>
    <dc:format>image/svg+xml</dc:format>
    <dc:creator>
     <cc:Agent>
      <dc:title>Matplotlib v3.5.1, https://matplotlib.org/</dc:title>
     </cc:Agent>
    </dc:creator>
   </cc:Work>
  </rdf:RDF>
 </metadata>
 <defs>
  <style type="text/css">*{stroke-linejoin: round; stroke-linecap: butt}</style>
 </defs>
 <g id="figure_1">
  <g id="patch_1">
   <path d="M 0 72 
L 774 72 
L 774 0 
L 0 0 
z
" style="fill: #8fff9f"/>
  </g>
  <g id="axes_1">
   <g id="patch_2">
    <path d="M 8.624855 27.009931 
Q 8.699834 27.347338 8.774814 28.265834 
Q 8.849793 29.184331 8.999752 29.634207 
L 8.924772 31.058814 
M 7.275228 27.309848 
Q 7.237738 27.309848 7.200248 27.534786 
Q 7.237738 27.684745 7.350207 28.828179 
Q 7.462676 29.971614 7.725103 30.533959 
" clip-path="url(#pf2117d99e2)" style="fill: none; stroke: #000000; stroke-linejoin: miter"/>
   </g>
  </g>
  <g id="axes_2">
   <g id="patch_3">
    <path d="M 17.287248 30.470738 
L 18.461477 30.601208 
Q 20.288054 30.601208 22.125503 30.709933 
Q 23.962953 30.818658 26.202685 30.992617 
Q 28.442416 31.166577 29.877584 31.253557 
L 31.312752 31.123087 
M 24.071678 31.057852 
Q 24.136913 31.405772 23.875973 32.177718 
Q 23.615034 32.949664 23.810738 33.406309 
Q 23.810738 34.711007 23.952081 36.363624 
Q 24.093423 38.016242 24.310872 39.973289 
Q 24.528322 41.930336 24.593557 42.800134 
" clip-path="url(#p15640c3d78)" style="fill: none; stroke: #000000; stroke-linejoin: miter"/>
   </g>
  </g>
  <g id="axes_3">
   <g id="patch_4">
    <path d="M 37.013462 35.932469 
Q 37.613297 35.257655 38.606772 34.826524 
Q 39.600248 34.395393 40.5 34.470372 
Q 41.137324 34.470372 41.62469 34.639076 
Q 42.112055 34.807779 42.430717 34.995228 
Q 42.749379 35.182676 42.974317 35.670041 
Q 43.199255 36.157407 43.311724 36.419834 
Q 43.424193 36.682262 43.480428 37.375821 
Q 43.536662 38.069379 43.555407 38.331807 
Q 43.574152 38.594234 43.555407 39.419007 
Q 43.536662 40.243779 43.536662 40.431228 
Q 43.536662 41.368469 43.367959 43.242952 
Q 43.199255 45.117434 43.199255 46.054676 
Q 43.199255 46.467062 43.25549 46.823214 
Q 43.311724 47.179366 43.405448 47.610497 
Q 43.499172 48.041628 43.536662 48.304055 
L 43.986538 48.528993 
M 37.463338 23.111007 
Q 37.688276 24.798041 37.688276 29.971614 
L 37.688276 42.3432 
L 37.350869 46.841959 
L 37.125931 47.74171 
" clip-path="url(#pab5878777a)" style="fill: none; stroke: #000000; stroke-linejoin: miter"/>
   </g>
  </g>
  <g id="axes_4">
   <g id="patch_5">
    <path d="M 62.243923 36.441748 
Q 61.034968 35.094627 57.062687 35.094627 
Q 55.542857 35.094627 54.765672 35.146439 
Q 53.988486 35.198252 52.98678 35.440043 
Q 51.985075 35.681834 51.501493 36.182687 
Q 51.01791 36.683539 50.672495 37.616162 
Q 50.327079 38.548785 50.327079 39.964989 
Q 50.327079 42.037484 51.743284 43.280981 
Q 53.159488 44.524478 55.093817 44.524478 
Q 57.753518 44.524478 60.516844 38.721493 
Q 61.863966 35.854542 61.863966 35.82 
Q 62.209382 35.578209 62.243923 36.441748 
Q 62.243923 37.512537 62.658422 40.362217 
Q 63.072921 43.211898 63.072921 44.524478 
" clip-path="url(#p4845f33176)" style="fill: none; stroke: #000000; stroke-linejoin: miter"/>
   </g>
  </g>
  <g id="axes_5">
   <g id="patch_6">
    <path d="M 68.063834 37.95691 
L 68.738648 37.95691 
Q 69.450952 37.95691 70.238234 37.881931 
Q 71.025517 37.806952 71.981503 37.675738 
Q 72.93749 37.544524 73.462345 37.507034 
L 77.736166 35.82 
M 73.687283 30.42149 
L 73.687283 31.43371 
Q 73.687283 33.383172 73.012469 37.207117 
Q 72.337655 41.031062 72.337655 43.018014 
Q 72.337655 43.805297 72.337655 44.105214 
Q 72.337655 44.405131 72.431379 45.042455 
Q 72.525103 45.679779 72.712552 45.960952 
Q 72.9 46.242124 73.293641 46.485807 
Q 73.687283 46.72949 74.249628 46.72949 
Q 74.362097 46.692 74.680759 46.72949 
Q 74.999421 46.766979 75.186869 46.710745 
Q 75.374317 46.65451 75.374317 46.392083 
" clip-path="url(#pba9187ff0b)" style="fill: none; stroke: #000000; stroke-linejoin: miter"/>
   </g>
  </g>
  <g id="axes_6"/>
  <g id="axes_7">
   <g id="patch_7">
    <path d="M 98.916102 36.437797 
L 100.151695 44.778051 
Q 100.254661 45.567458 100.254661 45.60178 
Q 100.254661 45.704746 100.563559 45.704746 
Q 101.42161 45.704746 102.142373 44.778051 
Q 102.863136 43.851356 103.275 42.718729 
Q 103.686864 41.586102 104.201695 40.659407 
Q 104.716525 39.732712 105.197034 39.732712 
Q 105.814831 39.732712 106.449788 40.607924 
Q 107.084746 41.483136 107.548093 42.512797 
Q 108.011441 43.542458 108.68072 44.417669 
Q 109.35 45.292881 110.036441 45.292881 
Q 110.311017 43.782712 110.740042 39.69839 
Q 111.169068 35.614068 111.683898 33.554746 
" clip-path="url(#p4d6eb5c502)" style="fill: none; stroke: #000000; stroke-linejoin: miter"/>
   </g>
  </g>
  <g id="axes_8">
   <g id="patch_8">
    <path d="M 124.7616 35.032717 
Q 123.71189 34.582841 122.737159 34.69531 
Q 119.700497 35.032717 117.788524 36.701007 
Q 115.876552 38.369297 115.876552 41.330979 
Q 115.876552 43.917766 117.882248 45.6048 
Q 119.887945 47.291834 122.512221 47.291834 
Q 124.874069 47.291834 125.998759 45.361117 
Q 127.123448 43.4304 127.123448 40.881103 
Q 127.123448 39.643945 126.711062 38.706703 
Q 126.298676 37.769462 125.773821 37.300841 
Q 125.248966 36.832221 124.499172 36.119917 
Q 123.749379 35.407614 123.299503 34.69531 
L 122.062345 34.245434 
" clip-path="url(#pe16f3ac608)" style="fill: none; stroke: #000000; stroke-linejoin: miter"/>
   </g>
  </g>
  <g id="axes_9">
   <g id="patch_9">
    <path d="M 133.088772 35.145186 
Q 133.088772 35.145186 133.088772 35.595062 
Q 133.088772 36.269876 132.976303 37.619503 
Q 132.863834 38.969131 132.863834 39.643945 
Q 132.863834 41.930814 134.100993 43.599103 
Q 135.338152 45.267393 137.475062 45.267393 
Q 138.862179 45.154924 139.630717 43.917766 
Q 140.399255 42.680607 140.549214 41.237255 
Q 140.699172 39.793903 140.9616 37.9944 
Q 141.224028 36.194897 141.636414 35.370124 
Q 141.786372 35.070207 141.786372 35.670041 
Q 141.786372 36.269876 141.523945 38.706703 
Q 141.299007 41.031062 141.299007 41.555917 
Q 141.149048 42.643117 141.486455 43.767807 
Q 141.823862 44.892497 142.536166 45.6048 
" clip-path="url(#pdf7f884c13)" style="fill: none; stroke: #000000; stroke-linejoin: miter"/>
   </g>
  </g>
  <g id="axes_10">
   <g id="patch_10">
    <path d="M 153.506359 28.621986 
Q 153.731297 30.34651 153.806276 32.146014 
Q 153.881255 33.945517 153.86251 36.551048 
Q 153.843766 39.156579 153.843766 40.093821 
Q 153.843766 40.13131 154.068703 45.829738 
L 154.293641 46.841959 
" clip-path="url(#p74aa206bba)" style="fill: none; stroke: #000000; stroke-linejoin: miter"/>
   </g>
  </g>
  <g id="axes_11">
   <g id="patch_11">
    <path d="M 173.699007 39.568966 
Q 172.349379 38.181848 170.1 38.444276 
Q 167.250786 38.444276 166.088607 39.793903 
Q 164.926428 41.143531 164.926428 44.067724 
Q 164.926428 45.56731 166.219821 46.279614 
Q 167.513214 46.991917 169.087779 46.991917 
Q 170.399917 46.991917 171.412138 45.736014 
Q 172.424359 44.48011 173.005448 42.30571 
Q 173.586538 40.13131 173.961434 37.938166 
Q 174.336331 35.745021 174.48629 33.045766 
Q 174.636248 30.34651 174.673738 28.978138 
Q 174.711228 27.609766 174.711228 26.185159 
Q 174.48629 26.260138 174.48629 29.896634 
L 174.48629 44.292662 
L 175.273572 48.229076 
" clip-path="url(#p490cb138c5)" style="fill: none; stroke: #000000; stroke-linejoin: miter"/>
   </g>
  </g>
  <g id="axes_12"/>
  <g id="axes_13">
   <g id="patch_12">
    <path d="M 198.957228 37.244607 
Q 200.006938 37.207117 200.194386 37.132138 
Q 203.605945 37.132138 205.386703 39.212814 
Q 207.167462 41.29349 207.167462 44.780028 
Q 207.167462 47.704221 202.556234 47.704221 
Q 201.91891 47.704221 201.37531 47.591752 
Q 200.83171 47.479283 200.194386 47.254345 
Q 199.557062 47.029407 199.069697 46.916938 
L 197.832538 45.679779 
M 198.844759 25.435366 
L 198.844759 26.560055 
Q 198.844759 29.409269 198.957228 33.008276 
Q 199.069697 36.607283 199.257145 40.899848 
Q 199.444593 45.192414 199.519572 47.141876 
" clip-path="url(#p1766f119d1)" style="fill: none; stroke: #000000; stroke-linejoin: miter"/>
   </g>
  </g>
  <g id="axes_14">
   <g id="patch_13">
    <path d="M 212.457798 38.160826 
Q 215.430275 39.535596 220.149083 39.721376 
Q 221.672477 39.721376 222.359862 38.550963 
Q 223.047248 37.38055 223.047248 35.82 
Q 223.047248 35.299817 222.954358 34.909679 
Q 222.861468 34.519541 222.619954 34.296606 
Q 222.37844 34.07367 222.211239 33.943624 
Q 222.044037 33.813578 221.598165 33.757844 
Q 221.152294 33.70211 220.947936 33.683532 
Q 220.743578 33.664954 220.167661 33.683532 
Q 219.591743 33.70211 219.368807 33.70211 
Q 217.325229 33.70211 215.838991 35.578486 
Q 214.352752 37.454862 214.352752 39.609908 
Q 214.352752 42.619541 216.284862 44.570229 
Q 218.216972 46.520917 221.263761 46.520917 
Q 223.418807 46.818165 224.942202 44.29156 
" clip-path="url(#p2060e0b9e7)" style="fill: none; stroke: #000000; stroke-linejoin: miter"/>
   </g>
  </g>
  <g id="axes_15"/>
  <g id="axes_16">
   <g id="patch_14">
    <path d="M 250.706359 28.621986 
Q 250.931297 30.34651 251.006276 32.146014 
Q 251.081255 33.945517 251.06251 36.551048 
Q 251.043766 39.156579 251.043766 40.093821 
Q 251.043766 40.13131 251.268703 45.829738 
L 251.493641 46.841959 
" clip-path="url(#p73f5d4969d)" style="fill: none; stroke: #000000; stroke-linejoin: miter"/>
   </g>
  </g>
  <g id="axes_17">
   <g id="patch_15">
    <path d="M 270.5616 35.032717 
Q 269.51189 34.582841 268.537159 34.69531 
Q 265.500497 35.032717 263.588524 36.701007 
Q 261.676552 38.369297 261.676552 41.330979 
Q 261.676552 43.917766 263.682248 45.6048 
Q 265.687945 47.291834 268.312221 47.291834 
Q 270.674069 47.291834 271.798759 45.361117 
Q 272.923448 43.4304 272.923448 40.881103 
Q 272.923448 39.643945 272.511062 38.706703 
Q 272.098676 37.769462 271.573821 37.300841 
Q 271.048966 36.832221 270.299172 36.119917 
Q 269.549379 35.407614 269.099503 34.69531 
L 267.862345 34.245434 
" clip-path="url(#p4603f34a72)" style="fill: none; stroke: #000000; stroke-linejoin: miter"/>
   </g>
  </g>
  <g id="axes_18">
   <g id="patch_16">
    <path d="M 279.226179 34.807779 
Q 280.838234 36.719752 282.131628 39.6252 
Q 283.425021 42.530648 283.724938 45.154924 
Q 284.774648 43.655338 285.693145 38.819172 
Q 286.611641 33.983007 287.773821 32.108524 
" clip-path="url(#p0e105fe3a7)" style="fill: none; stroke: #000000; stroke-linejoin: miter"/>
   </g>
  </g>
  <g id="axes_19">
   <g id="patch_17">
    <path d="M 293.457798 38.160826 
Q 296.430275 39.535596 301.149083 39.721376 
Q 302.672477 39.721376 303.359862 38.550963 
Q 304.047248 37.38055 304.047248 35.82 
Q 304.047248 35.299817 303.954358 34.909679 
Q 303.861468 34.519541 303.619954 34.296606 
Q 303.37844 34.07367 303.211239 33.943624 
Q 303.044037 33.813578 302.598165 33.757844 
Q 302.152294 33.70211 301.947936 33.683532 
Q 301.743578 33.664954 301.167661 33.683532 
Q 300.591743 33.70211 300.368807 33.70211 
Q 298.325229 33.70211 296.838991 35.578486 
Q 295.352752 37.454862 295.352752 39.609908 
Q 295.352752 42.619541 297.284862 44.570229 
Q 299.216972 46.520917 302.263761 46.520917 
Q 304.418807 46.818165 305.942202 44.29156 
" clip-path="url(#p37b46159ce)" style="fill: none; stroke: #000000; stroke-linejoin: miter"/>
   </g>
  </g>
  <g id="axes_20">
   <g id="patch_18">
    <path d="M 315.506359 28.621986 
Q 315.731297 30.34651 315.806276 32.146014 
Q 315.881255 33.945517 315.86251 36.551048 
Q 315.843766 39.156579 315.843766 40.093821 
Q 315.843766 40.13131 316.068703 45.829738 
L 316.293641 46.841959 
" clip-path="url(#p090b96f600)" style="fill: none; stroke: #000000; stroke-linejoin: miter"/>
   </g>
  </g>
  <g id="axes_21">
   <g id="patch_19">
    <path d="M 326.963917 36.382345 
Q 326.926428 36.494814 327.057641 36.701007 
Q 327.188855 36.9072 327.076386 37.057159 
L 327.076386 39.306538 
Q 327.076386 40.506207 327.413793 41.724621 
Q 327.7512 42.943034 328.613462 43.93651 
Q 329.475724 44.929986 330.675393 44.929986 
Q 331.912552 44.929986 332.587366 43.861531 
Q 333.262179 42.793076 333.712055 41.143531 
Q 334.161931 39.493986 334.499338 38.969131 
L 335.286621 36.382345 
L 335.061683 42.680607 
L 335.061683 45.154924 
Q 335.061683 47.066897 335.792731 51.00331 
Q 336.523779 54.939724 336.523779 56.964166 
Q 337.273572 59.213545 336.186372 60.188276 
Q 335.099172 61.163007 333.037241 60.78811 
Q 331.237738 60.488193 330.319241 60.169531 
Q 329.400745 59.850869 327.413793 58.988607 
L 327.301324 58.426262 
" clip-path="url(#p4fbee8318e)" style="fill: none; stroke: #000000; stroke-linejoin: miter"/>
   </g>
  </g>
  <g id="axes_22">
   <g id="patch_20">
    <path d="M 347.587697 39.981352 
Q 348.599917 40.956083 348.937324 42.905545 
Q 349.124772 43.955255 348.712386 46.167145 
L 347.475228 47.629241 
" clip-path="url(#p3b423e630c)" style="fill: none; stroke: #000000; stroke-linejoin: miter"/>
   </g>
  </g>
  <g id="axes_23">
   <g id="patch_21">
    <path d="M 365.024855 27.009931 
Q 365.099834 27.347338 365.174814 28.265834 
Q 365.249793 29.184331 365.399752 29.634207 
L 365.324772 31.058814 
M 363.675228 27.309848 
Q 363.637738 27.309848 363.600248 27.534786 
Q 363.637738 27.684745 363.750207 28.828179 
Q 363.862676 29.971614 364.125103 30.533959 
" clip-path="url(#pbc14e7ba53)" style="fill: none; stroke: #000000; stroke-linejoin: miter"/>
   </g>
  </g>
  <g id="axes_24"/>
  <g id="axes_25">
   <g id="patch_22">
    <path d="M 391.384049 31.819693 
Q 392.85 31.223374 394.539571 31.037025 
Q 396.229141 30.850675 397.533589 30.925215 
Q 398.838037 30.999755 400.552454 30.838252 
Q 402.266871 30.676748 403.757669 30.105276 
M 390.042331 43.000675 
L 390.042331 43.149755 
Q 390.042331 44.590859 391.632515 45.696534 
Q 393.222699 46.802209 394.663804 46.802209 
Q 395.359509 46.802209 395.918558 46.466779 
Q 396.477607 46.13135 396.850307 45.559877 
Q 397.223006 44.988405 397.508742 44.230583 
Q 397.794479 43.472761 397.943558 42.603129 
Q 398.092638 41.733497 398.216871 40.814172 
Q 398.341104 39.894847 398.353528 39.012791 
Q 398.365951 38.130736 398.390798 37.348067 
Q 398.415644 36.565399 398.390798 35.944233 
Q 398.390798 35.571534 398.390798 35.397607 
Q 398.390798 35.124294 398.353528 34.552822 
Q 398.316258 33.98135 398.316258 33.68319 
Q 398.316258 33.434724 398.154755 33.062025 
Q 397.993252 32.689325 397.744785 32.254509 
Q 397.496319 31.819693 397.421779 31.670613 
L 397.347239 30.925215 
" clip-path="url(#paefd5bd70a)" style="fill: none; stroke: #000000; stroke-linejoin: miter"/>
   </g>
  </g>
  <g id="axes_26">
   <g id="patch_23">
    <path d="M 418.643923 36.441748 
Q 417.434968 35.094627 413.462687 35.094627 
Q 411.942857 35.094627 411.165672 35.146439 
Q 410.388486 35.198252 409.38678 35.440043 
Q 408.385075 35.681834 407.901493 36.182687 
Q 407.41791 36.683539 407.072495 37.616162 
Q 406.727079 38.548785 406.727079 39.964989 
Q 406.727079 42.037484 408.143284 43.280981 
Q 409.559488 44.524478 411.493817 44.524478 
Q 414.153518 44.524478 416.916844 38.721493 
Q 418.263966 35.854542 418.263966 35.82 
Q 418.609382 35.578209 418.643923 36.441748 
Q 418.643923 37.512537 419.058422 40.362217 
Q 419.472921 43.211898 419.472921 44.524478 
" clip-path="url(#p790d85aa68)" style="fill: none; stroke: #000000; stroke-linejoin: miter"/>
   </g>
  </g>
  <g id="axes_27">
   <g id="patch_24">
    <path d="M 423.008036 34.879821 
Q 423.514286 36.073125 423.803571 42.871339 
Q 423.948214 46.632054 424.2375 46.632054 
Q 424.273661 46.632054 424.309821 46.595893 
Q 424.816071 46.017321 424.870312 44.588973 
Q 424.924554 43.160625 424.707589 41.750357 
Q 424.490625 40.340089 424.2375 38.712857 
Q 423.984375 37.085625 423.984375 36.398571 
Q 423.984375 35.169107 424.364062 33.939643 
Q 424.74375 32.710179 425.720089 32.710179 
Q 426.949554 32.710179 427.672768 34.355491 
Q 428.395982 36.000804 428.558705 37.971563 
Q 428.721429 39.942321 428.829911 41.587634 
Q 428.938393 43.232946 429.083036 43.232946 
Q 429.227679 43.232946 429.31808 41.497232 
Q 429.408482 39.761518 429.535045 37.700357 
Q 429.661607 35.639196 430.384821 33.903482 
Q 431.108036 32.167768 432.3375 32.167768 
Q 433.892411 33.035625 434.561384 34.771339 
Q 435.230357 36.507054 435.194196 38.188527 
Q 435.158036 39.87 435.176116 42.057723 
Q 435.194196 44.245446 435.591964 45.511071 
" clip-path="url(#pd8ffb58422)" style="fill: none; stroke: #000000; stroke-linejoin: miter"/>
   </g>
  </g>
  <g id="axes_28">
   <g id="patch_25">
    <path d="M 439.257798 38.160826 
Q 442.230275 39.535596 446.949083 39.721376 
Q 448.472477 39.721376 449.159862 38.550963 
Q 449.847248 37.38055 449.847248 35.82 
Q 449.847248 35.299817 449.754358 34.909679 
Q 449.661468 34.519541 449.419954 34.296606 
Q 449.17844 34.07367 449.011239 33.943624 
Q 448.844037 33.813578 448.398165 33.757844 
Q 447.952294 33.70211 447.747936 33.683532 
Q 447.543578 33.664954 446.967661 33.683532 
Q 446.391743 33.70211 446.168807 33.70211 
Q 444.125229 33.70211 442.638991 35.578486 
Q 441.152752 37.454862 441.152752 39.609908 
Q 441.152752 42.619541 443.084862 44.570229 
Q 445.016972 46.520917 448.063761 46.520917 
Q 450.218807 46.818165 451.742202 44.29156 
" clip-path="url(#paeb4d6ec52)" style="fill: none; stroke: #000000; stroke-linejoin: miter"/>
   </g>
  </g>
  <g id="axes_29">
   <g id="patch_26">
    <path d="M 457.257476 43.917766 
Q 457.557393 44.180193 458.569614 45.154924 
Q 459.581834 46.129655 460.144179 46.560786 
Q 460.706524 46.991917 461.73749 47.385559 
Q 462.768455 47.7792 463.780676 47.629241 
Q 464.45549 47.629241 464.92411 47.404303 
Q 465.392731 47.179366 465.617669 46.879448 
Q 465.842607 46.579531 465.973821 45.979697 
Q 466.105034 45.379862 466.123779 44.967476 
Q 466.142524 44.55509 466.142524 43.805297 
Q 466.142524 42.718097 465.242772 42.043283 
Q 464.343021 41.368469 463.049628 41.031062 
Q 461.756234 40.693655 460.462841 40.300014 
Q 459.169448 39.906372 458.269697 38.987876 
Q 457.369945 38.069379 457.369945 36.607283 
Q 457.369945 36.082428 457.538648 35.726276 
Q 457.707352 35.370124 458.100993 35.145186 
Q 458.494634 34.920248 458.775807 34.807779 
Q 459.056979 34.69531 459.713048 34.639076 
Q 460.369117 34.582841 460.556566 34.582841 
Q 460.744014 34.582841 461.418828 34.582841 
Q 462.618497 34.582841 463.199586 34.995228 
Q 463.780676 35.407614 464.099338 36.026193 
Q 464.418 36.644772 464.680428 36.832221 
" clip-path="url(#p8632c2cba4)" style="fill: none; stroke: #000000; stroke-linejoin: miter"/>
   </g>
  </g>
  <g id="axes_30"/>
  <g id="axes_31">
   <g id="patch_27">
    <path d="M 489.657476 43.917766 
Q 489.957393 44.180193 490.969614 45.154924 
Q 491.981834 46.129655 492.544179 46.560786 
Q 493.106524 46.991917 494.13749 47.385559 
Q 495.168455 47.7792 496.180676 47.629241 
Q 496.85549 47.629241 497.32411 47.404303 
Q 497.792731 47.179366 498.017669 46.879448 
Q 498.242607 46.579531 498.373821 45.979697 
Q 498.505034 45.379862 498.523779 44.967476 
Q 498.542524 44.55509 498.542524 43.805297 
Q 498.542524 42.718097 497.642772 42.043283 
Q 496.743021 41.368469 495.449628 41.031062 
Q 494.156234 40.693655 492.862841 40.300014 
Q 491.569448 39.906372 490.669697 38.987876 
Q 489.769945 38.069379 489.769945 36.607283 
Q 489.769945 36.082428 489.938648 35.726276 
Q 490.107352 35.370124 490.500993 35.145186 
Q 490.894634 34.920248 491.175807 34.807779 
Q 491.456979 34.69531 492.113048 34.639076 
Q 492.769117 34.582841 492.956566 34.582841 
Q 493.144014 34.582841 493.818828 34.582841 
Q 495.018497 34.582841 495.599586 34.995228 
Q 496.180676 35.407614 496.499338 36.026193 
Q 496.818 36.644772 497.080428 36.832221 
" clip-path="url(#p3f67c94f46)" style="fill: none; stroke: #000000; stroke-linejoin: miter"/>
   </g>
  </g>
  <g id="axes_32">
   <g id="patch_28">
    <path d="M 515.843923 36.441748 
Q 514.634968 35.094627 510.662687 35.094627 
Q 509.142857 35.094627 508.365672 35.146439 
Q 507.588486 35.198252 506.58678 35.440043 
Q 505.585075 35.681834 505.101493 36.182687 
Q 504.61791 36.683539 504.272495 37.616162 
Q 503.927079 38.548785 503.927079 39.964989 
Q 503.927079 42.037484 505.343284 43.280981 
Q 506.759488 44.524478 508.693817 44.524478 
Q 511.353518 44.524478 514.116844 38.721493 
Q 515.463966 35.854542 515.463966 35.82 
Q 515.809382 35.578209 515.843923 36.441748 
Q 515.843923 37.512537 516.258422 40.362217 
Q 516.672921 43.211898 516.672921 44.524478 
" clip-path="url(#pa190375603)" style="fill: none; stroke: #000000; stroke-linejoin: miter"/>
   </g>
  </g>
  <g id="axes_33">
   <g id="patch_29">
    <path d="M 521.363917 36.382345 
Q 521.326428 36.494814 521.457641 36.701007 
Q 521.588855 36.9072 521.476386 37.057159 
L 521.476386 39.306538 
Q 521.476386 40.506207 521.813793 41.724621 
Q 522.1512 42.943034 523.013462 43.93651 
Q 523.875724 44.929986 525.075393 44.929986 
Q 526.312552 44.929986 526.987366 43.861531 
Q 527.662179 42.793076 528.112055 41.143531 
Q 528.561931 39.493986 528.899338 38.969131 
L 529.686621 36.382345 
L 529.461683 42.680607 
L 529.461683 45.154924 
Q 529.461683 47.066897 530.192731 51.00331 
Q 530.923779 54.939724 530.923779 56.964166 
Q 531.673572 59.213545 530.586372 60.188276 
Q 529.499172 61.163007 527.437241 60.78811 
Q 525.637738 60.488193 524.719241 60.169531 
Q 523.800745 59.850869 521.813793 58.988607 
L 521.701324 58.426262 
" clip-path="url(#p5d4e1a7c0e)" style="fill: none; stroke: #000000; stroke-linejoin: miter"/>
   </g>
  </g>
  <g id="axes_34">
   <g id="patch_30">
    <path d="M 538.257476 43.917766 
Q 538.557393 44.180193 539.569614 45.154924 
Q 540.581834 46.129655 541.144179 46.560786 
Q 541.706524 46.991917 542.73749 47.385559 
Q 543.768455 47.7792 544.780676 47.629241 
Q 545.45549 47.629241 545.92411 47.404303 
Q 546.392731 47.179366 546.617669 46.879448 
Q 546.842607 46.579531 546.973821 45.979697 
Q 547.105034 45.379862 547.123779 44.967476 
Q 547.142524 44.55509 547.142524 43.805297 
Q 547.142524 42.718097 546.242772 42.043283 
Q 545.343021 41.368469 544.049628 41.031062 
Q 542.756234 40.693655 541.462841 40.300014 
Q 540.169448 39.906372 539.269697 38.987876 
Q 538.369945 38.069379 538.369945 36.607283 
Q 538.369945 36.082428 538.538648 35.726276 
Q 538.707352 35.370124 539.100993 35.145186 
Q 539.494634 34.920248 539.775807 34.807779 
Q 540.056979 34.69531 540.713048 34.639076 
Q 541.369117 34.582841 541.556566 34.582841 
Q 541.744014 34.582841 542.418828 34.582841 
Q 543.618497 34.582841 544.199586 34.995228 
Q 544.780676 35.407614 545.099338 36.026193 
Q 545.418 36.644772 545.680428 36.832221 
" clip-path="url(#pacd1cdcfc2)" style="fill: none; stroke: #000000; stroke-linejoin: miter"/>
   </g>
  </g>
  <g id="axes_35">
   <g id="patch_31">
    <path d="M 558.187697 39.981352 
Q 559.199917 40.956083 559.537324 42.905545 
Q 559.724772 43.955255 559.312386 46.167145 
L 558.075228 47.629241 
" clip-path="url(#pa15eb1dcbc)" style="fill: none; stroke: #000000; stroke-linejoin: miter"/>
   </g>
  </g>
  <g id="axes_36"/>
  <g id="axes_37">
   <g id="patch_32">
    <path d="M 586.857476 43.917766 
Q 587.157393 44.180193 588.169614 45.154924 
Q 589.181834 46.129655 589.744179 46.560786 
Q 590.306524 46.991917 591.33749 47.385559 
Q 592.368455 47.7792 593.380676 47.629241 
Q 594.05549 47.629241 594.52411 47.404303 
Q 594.992731 47.179366 595.217669 46.879448 
Q 595.442607 46.579531 595.573821 45.979697 
Q 595.705034 45.379862 595.723779 44.967476 
Q 595.742524 44.55509 595.742524 43.805297 
Q 595.742524 42.718097 594.842772 42.043283 
Q 593.943021 41.368469 592.649628 41.031062 
Q 591.356234 40.693655 590.062841 40.300014 
Q 588.769448 39.906372 587.869697 38.987876 
Q 586.969945 38.069379 586.969945 36.607283 
Q 586.969945 36.082428 587.138648 35.726276 
Q 587.307352 35.370124 587.700993 35.145186 
Q 588.094634 34.920248 588.375807 34.807779 
Q 588.656979 34.69531 589.313048 34.639076 
Q 589.969117 34.582841 590.156566 34.582841 
Q 590.344014 34.582841 591.018828 34.582841 
Q 592.218497 34.582841 592.799586 34.995228 
Q 593.380676 35.407614 593.699338 36.026193 
Q 594.018 36.644772 594.280428 36.832221 
" clip-path="url(#pbf5619bc10)" style="fill: none; stroke: #000000; stroke-linejoin: miter"/>
   </g>
  </g>
  <g id="axes_38">
   <g id="patch_33">
    <path d="M 607.698305 38.108136 
Q 606.050847 37.345424 604.586441 37.375932 
Q 602.786441 37.375932 601.855932 38.91661 
Q 600.925424 40.457288 600.925424 42.409831 
Q 600.925424 43.782712 601.657627 44.652203 
Q 602.389831 45.521695 603.762712 45.521695 
Q 604.738983 45.521695 605.776271 43.386102 
Q 606.813559 41.250508 607.39322 38.962373 
Q 607.972881 36.674237 607.972881 35.728475 
L 607.972881 38.565763 
Q 608.277966 40.365763 608.430508 42.379322 
Q 608.583051 44.392881 608.598305 45.430169 
Q 608.613559 46.467458 608.552542 49.243729 
Q 608.491525 52.02 608.491525 52.721695 
Q 608.4 60.775932 608.674576 60.775932 
Q 609.162712 60.775932 610.30678 58.609831 
Q 611.450847 56.443729 612.671186 53.606441 
Q 613.891525 50.769153 613.983051 50.61661 
L 614.074576 50.250508 
" clip-path="url(#p61f67b5a43)" style="fill: none; stroke: #000000; stroke-linejoin: miter"/>
   </g>
  </g>
  <g id="axes_39">
   <g id="patch_34">
    <path d="M 619.088772 35.145186 
Q 619.088772 35.145186 619.088772 35.595062 
Q 619.088772 36.269876 618.976303 37.619503 
Q 618.863834 38.969131 618.863834 39.643945 
Q 618.863834 41.930814 620.100993 43.599103 
Q 621.338152 45.267393 623.475062 45.267393 
Q 624.862179 45.154924 625.630717 43.917766 
Q 626.399255 42.680607 626.549214 41.237255 
Q 626.699172 39.793903 626.9616 37.9944 
Q 627.224028 36.194897 627.636414 35.370124 
Q 627.786372 35.070207 627.786372 35.670041 
Q 627.786372 36.269876 627.523945 38.706703 
Q 627.299007 41.031062 627.299007 41.555917 
Q 627.149048 42.643117 627.486455 43.767807 
Q 627.823862 44.892497 628.536166 45.6048 
" clip-path="url(#p929f4cf938)" style="fill: none; stroke: #000000; stroke-linejoin: miter"/>
   </g>
  </g>
  <g id="axes_40">
   <g id="patch_35">
    <path d="M 633.657798 38.160826 
Q 636.630275 39.535596 641.349083 39.721376 
Q 642.872477 39.721376 643.559862 38.550963 
Q 644.247248 37.38055 644.247248 35.82 
Q 644.247248 35.299817 644.154358 34.909679 
Q 644.061468 34.519541 643.819954 34.296606 
Q 643.57844 34.07367 643.411239 33.943624 
Q 643.244037 33.813578 642.798165 33.757844 
Q 642.352294 33.70211 642.147936 33.683532 
Q 641.943578 33.664954 641.367661 33.683532 
Q 640.791743 33.70211 640.568807 33.70211 
Q 638.525229 33.70211 637.038991 35.578486 
Q 635.552752 37.454862 635.552752 39.609908 
Q 635.552752 42.619541 637.484862 44.570229 
Q 639.416972 46.520917 642.463761 46.520917 
Q 644.618807 46.818165 646.142202 44.29156 
" clip-path="url(#p88b22510e6)" style="fill: none; stroke: #000000; stroke-linejoin: miter"/>
   </g>
  </g>
  <g id="axes_41">
   <g id="patch_36">
    <path d="M 649.857798 38.160826 
Q 652.830275 39.535596 657.549083 39.721376 
Q 659.072477 39.721376 659.759862 38.550963 
Q 660.447248 37.38055 660.447248 35.82 
Q 660.447248 35.299817 660.354358 34.909679 
Q 660.261468 34.519541 660.019954 34.296606 
Q 659.77844 34.07367 659.611239 33.943624 
Q 659.444037 33.813578 658.998165 33.757844 
Q 658.552294 33.70211 658.347936 33.683532 
Q 658.143578 33.664954 657.567661 33.683532 
Q 656.991743 33.70211 656.768807 33.70211 
Q 654.725229 33.70211 653.238991 35.578486 
Q 651.752752 37.454862 651.752752 39.609908 
Q 651.752752 42.619541 653.684862 44.570229 
Q 655.616972 46.520917 658.663761 46.520917 
Q 660.818807 46.818165 662.342202 44.29156 
" clip-path="url(#p7af69b4910)" style="fill: none; stroke: #000000; stroke-linejoin: miter"/>
   </g>
  </g>
  <g id="axes_42">
   <g id="patch_37">
    <path d="M 667.4076 35.032717 
Q 667.4076 35.032717 670.781669 35.032717 
Q 670.894138 35.032717 672.637407 34.826524 
Q 674.380676 34.620331 675.392897 34.789034 
Q 676.405117 34.957738 676.405117 35.707531 
Q 676.405117 36.86971 675.392897 38.144359 
Q 674.380676 39.419007 672.918579 40.506207 
Q 671.456483 41.593407 669.994386 42.605628 
Q 668.53229 43.617848 667.520069 44.573834 
Q 666.507848 45.529821 666.507848 46.279614 
L 667.632538 46.279614 
Q 667.670028 46.279614 669.881917 46.054676 
L 678.092152 45.942207 
" clip-path="url(#pb7f7068632)" style="fill: none; stroke: #000000; stroke-linejoin: miter"/>
   </g>
  </g>
  <g id="axes_43">
   <g id="patch_38">
    <path d="M 686.194386 35.595062 
L 690.805614 35.707531 
" clip-path="url(#p6a5b11351f)" style="fill: none; stroke: #000000; stroke-linejoin: miter"/>
   </g>
  </g>
 </g>
 <defs>
  <clipPath id="pf2117d99e2">
   <rect x="5.325766" y="8.64" width="5.548469" height="54.36"/>
  </clipPath>
  <clipPath id="p15640c3d78">
   <rect x="16.2" y="20.054899" width="16.2" height="31.530201"/>
  </clipPath>
  <clipPath id="pab5878777a">
   <rect x="35.138979" y="8.64" width="10.722041" height="54.36"/>
  </clipPath>
  <clipPath id="p4845f33176">
   <rect x="48.6" y="10.777356" width="16.2" height="50.085288"/>
  </clipPath>
  <clipPath id="pba9187ff0b">
   <rect x="66.189352" y="8.64" width="13.421297" height="54.36"/>
  </clipPath>
  <clipPath id="p4d6eb5c502">
   <rect x="97.2" y="10.936525" width="16.2" height="49.766949"/>
  </clipPath>
  <clipPath id="pe16f3ac608">
   <rect x="114.002069" y="8.64" width="14.995862" height="54.36"/>
  </clipPath>
  <clipPath id="pdf7f884c13">
   <rect x="130.989352" y="8.64" width="13.421297" height="54.36"/>
  </clipPath>
  <clipPath id="p74aa206bba">
   <rect x="151.631876" y="8.64" width="4.536248" height="54.36"/>
  </clipPath>
  <clipPath id="p490cb138c5">
   <rect x="163.051945" y="8.64" width="14.09611" height="54.36"/>
  </clipPath>
  <clipPath id="p1766f119d1">
   <rect x="195.958055" y="8.64" width="13.08389" height="54.36"/>
  </clipPath>
  <clipPath id="p2060e0b9e7">
   <rect x="210.6" y="8.881927" width="16.2" height="53.876147"/>
  </clipPath>
  <clipPath id="p73f5d4969d">
   <rect x="248.831876" y="8.64" width="4.536248" height="54.36"/>
  </clipPath>
  <clipPath id="p4603f34a72">
   <rect x="259.802069" y="8.64" width="14.995862" height="54.36"/>
  </clipPath>
  <clipPath id="p0e105fe3a7">
   <rect x="277.351697" y="8.64" width="12.296607" height="54.36"/>
  </clipPath>
  <clipPath id="p37b46159ce">
   <rect x="291.6" y="8.881927" width="16.2" height="53.876147"/>
  </clipPath>
  <clipPath id="p090b96f600">
   <rect x="313.631876" y="8.64" width="4.536248" height="54.36"/>
  </clipPath>
  <clipPath id="p4fbee8318e">
   <rect x="325.051945" y="8.64" width="14.09611" height="54.36"/>
  </clipPath>
  <clipPath id="p3b423e630c">
   <rect x="345.600745" y="8.64" width="5.39851" height="54.36"/>
  </clipPath>
  <clipPath id="pbc14e7ba53">
   <rect x="361.725766" y="8.64" width="5.548469" height="54.36"/>
  </clipPath>
  <clipPath id="paefd5bd70a">
   <rect x="388.8" y="17.806196" width="16.2" height="36.027607"/>
  </clipPath>
  <clipPath id="p790d85aa68">
   <rect x="405" y="10.777356" width="16.2" height="50.085288"/>
  </clipPath>
  <clipPath id="pd8ffb58422">
   <rect x="421.2" y="9.603482" width="16.2" height="52.433036"/>
  </clipPath>
  <clipPath id="paeb4d6ec52">
   <rect x="437.4" y="8.881927" width="16.2" height="53.876147"/>
  </clipPath>
  <clipPath id="p8632c2cba4">
   <rect x="455.382993" y="8.64" width="12.634014" height="54.36"/>
  </clipPath>
  <clipPath id="p3f67c94f46">
   <rect x="487.782993" y="8.64" width="12.634014" height="54.36"/>
  </clipPath>
  <clipPath id="pa190375603">
   <rect x="502.2" y="10.777356" width="16.2" height="50.085288"/>
  </clipPath>
  <clipPath id="p5d4e1a7c0e">
   <rect x="519.451945" y="8.64" width="14.09611" height="54.36"/>
  </clipPath>
  <clipPath id="pacd1cdcfc2">
   <rect x="536.382993" y="8.64" width="12.634014" height="54.36"/>
  </clipPath>
  <clipPath id="pa15eb1dcbc">
   <rect x="556.200745" y="8.64" width="5.39851" height="54.36"/>
  </clipPath>
  <clipPath id="pbf5619bc10">
   <rect x="584.982993" y="8.64" width="12.634014" height="54.36"/>
  </clipPath>
  <clipPath id="p61f67b5a43">
   <rect x="599.4" y="13.701356" width="16.2" height="44.237288"/>
  </clipPath>
  <clipPath id="p929f4cf938">
   <rect x="616.989352" y="8.64" width="13.421297" height="54.36"/>
  </clipPath>
  <clipPath id="p88b22510e6">
   <rect x="631.8" y="8.881927" width="16.2" height="53.876147"/>
  </clipPath>
  <clipPath id="p7af69b4910">
   <rect x="648" y="8.881927" width="16.2" height="53.876147"/>
  </clipPath>
  <clipPath id="pb7f7068632">
   <rect x="664.633366" y="8.64" width="15.333269" height="54.36"/>
  </clipPath>
  <clipPath id="p6a5b11351f">
   <rect x="684.319903" y="8.64" width="8.360193" height="54.36"/>
  </clipPath>
 </defs>
</svg>
