<?xml version="1.0" encoding="utf-8" standalone="no"?>
<!DOCTYPE svg PUBLIC "-//W3C//DTD SVG 1.1//EN"
  "http://www.w3.org/Graphics/SVG/1.1/DTD/svg11.dtd">
<svg xmlns:xlink="http://www.w3.org/1999/xlink" width="180pt" height="72pt" viewBox="0 0 180 72" xmlns="http://www.w3.org/2000/svg" version="1.1">
 <metadata>
  <rdf:RDF xmlns:dc="http://purl.org/dc/elements/1.1/" xmlns:cc="http://creativecommons.org/ns#" xmlns:rdf="http://www.w3.org/1999/02/22-rdf-syntax-ns#">
   <cc:Work>
    <dc:type rdf:resource="http://purl.org/dc/dcmitype/StillImage"/>
    <dc:date>2023-12-21T12:07:36.360519</dc:date>
    <dc:format>image/svg+xml</dc:format>
    <dc:creator>
     <cc:Agent>
      <dc:title>Matplotlib v3.5.1, https://matplotlib.org/</dc:title>
     </cc:Agent>
    </dc:creator>
   </cc:Work>
  </rdf:RDF>
 </metadata>
 <defs>
  <style type="text/css">*{stroke-linejoin: round; stroke-linecap: butt}</style>
 </defs>
 <g id="figure_1">
  <g id="patch_1">
   <path d="M 0 72 
L 180 72 
L 180 0 
L 0 0 
z
" style="fill: #8fff9f"/>
  </g>
  <g id="axes_1">
   <g id="patch_2">
    <path d="M 4.557228 37.244607 
Q 5.606938 37.207117 5.794386 37.132138 
Q 9.205945 37.132138 10.986703 39.212814 
Q 12.767462 41.29349 12.767462 44.780028 
Q 12.767462 47.704221 8.156234 47.704221 
Q 7.51891 47.704221 6.97531 47.591752 
Q 6.43171 47.479283 5.794386 47.254345 
Q 5.157062 47.029407 4.669697 46.916938 
L 3.432538 45.679779 
M 4.444759 25.435366 
L 4.444759 26.560055 
Q 4.444759 29.409269 4.557228 33.008276 
Q 4.669697 36.607283 4.857145 40.899848 
Q 5.044593 45.192414 5.119572 47.141876 
" clip-path="url(#pbc238d60c2)" style="fill: none; stroke: #000000; stroke-linejoin: miter"/>
   </g>
  </g>
  <g id="axes_2">
   <g id="patch_3">
    <path d="M 20.813462 32.783338 
Q 21.338317 34.507862 21.469531 36.457324 
Q 21.600745 38.406786 21.525766 40.956083 
Q 21.450786 43.505379 21.488276 44.705048 
L 21.600745 46.054676 
L 21.600745 45.829738 
Q 21.600745 44.667559 21.319572 42.30571 
Q 21.0384 39.943862 21.0384 38.744193 
Q 21.0384 36.419834 22.050621 34.882759 
Q 23.062841 33.345683 25.087283 33.345683 
Q 25.799586 33.345683 26.136993 33.626855 
Q 26.4744 33.908028 26.736828 34.432883 
Q 26.999255 34.957738 27.336662 35.257655 
L 27.786538 36.832221 
" clip-path="url(#p541e92c0c2)" style="fill: none; stroke: #000000; stroke-linejoin: miter"/>
   </g>
  </g>
  <g id="axes_3">
   <g id="patch_4">
    <path d="M 34.257798 38.160826 
Q 37.230275 39.535596 41.949083 39.721376 
Q 43.472477 39.721376 44.159862 38.550963 
Q 44.847248 37.38055 44.847248 35.82 
Q 44.847248 35.299817 44.754358 34.909679 
Q 44.661468 34.519541 44.419954 34.296606 
Q 44.17844 34.07367 44.011239 33.943624 
Q 43.844037 33.813578 43.398165 33.757844 
Q 42.952294 33.70211 42.747936 33.683532 
Q 42.543578 33.664954 41.967661 33.683532 
Q 41.391743 33.70211 41.168807 33.70211 
Q 39.125229 33.70211 37.638991 35.578486 
Q 36.152752 37.454862 36.152752 39.609908 
Q 36.152752 42.619541 38.084862 44.570229 
Q 40.016972 46.520917 43.063761 46.520917 
Q 45.218807 46.818165 46.742202 44.29156 
" clip-path="url(#pe2b0461728)" style="fill: none; stroke: #000000; stroke-linejoin: miter"/>
   </g>
  </g>
  <g id="axes_4">
   <g id="patch_5">
    <path d="M 62.243923 36.441748 
Q 61.034968 35.094627 57.062687 35.094627 
Q 55.542857 35.094627 54.765672 35.146439 
Q 53.988486 35.198252 52.98678 35.440043 
Q 51.985075 35.681834 51.501493 36.182687 
Q 51.01791 36.683539 50.672495 37.616162 
Q 50.327079 38.548785 50.327079 39.964989 
Q 50.327079 42.037484 51.743284 43.280981 
Q 53.159488 44.524478 55.093817 44.524478 
Q 57.753518 44.524478 60.516844 38.721493 
Q 61.863966 35.854542 61.863966 35.82 
Q 62.209382 35.578209 62.243923 36.441748 
Q 62.243923 37.512537 62.658422 40.362217 
Q 63.072921 43.211898 63.072921 44.524478 
" clip-path="url(#pf1a0c30313)" style="fill: none; stroke: #000000; stroke-linejoin: miter"/>
   </g>
  </g>
  <g id="axes_5">
   <g id="patch_6">
    <path d="M 70.931793 37.169628 
Q 72.956234 39.194069 74.718248 41.76211 
Q 76.480262 44.330152 77.342524 46.72949 
M 73.968455 31.321241 
L 73.968455 31.546179 
Q 73.968455 32.333462 73.331131 33.514386 
Q 72.693807 34.69531 71.719076 36.101172 
Q 70.744345 37.507034 70.481917 37.95691 
L 69.244759 39.643945 
M 68.457476 26.710014 
Q 70.294469 36.269876 70.481917 48.641462 
" clip-path="url(#pacbecf1e78)" style="fill: none; stroke: #000000; stroke-linejoin: miter"/>
   </g>
  </g>
  <g id="axes_6">
   <g id="patch_7">
    <path d="M 82.784141 38.85304 
L 83.212335 38.85304 
Q 84.03304 38.85304 84.996476 38.745991 
Q 85.959912 38.638943 87.119604 38.460529 
Q 88.279295 38.282115 88.885903 38.210749 
L 95.415859 35.427489 
M 95.094714 25.793128 
Q 94.809251 25.721762 93.774449 25.275727 
Q 92.739648 24.829692 92.097357 24.93674 
Q 91.455066 24.93674 90.937665 25.150837 
Q 90.420264 25.364934 90.081278 25.793128 
Q 89.742291 26.221322 89.47467 26.685198 
Q 89.207048 27.149075 89.064317 27.862731 
Q 88.921586 28.576388 88.814537 29.129471 
Q 88.707489 29.682555 88.689648 30.50326 
Q 88.671806 31.323965 88.653965 31.77 
Q 88.636123 32.216035 88.653965 32.965374 
Q 88.671806 33.714714 88.671806 33.928811 
Q 88.671806 36.605022 89.367621 41.850396 
Q 90.063436 47.095771 90.063436 49.771982 
Q 89.99207 50.057445 89.956388 50.681894 
Q 89.920705 51.306344 89.813656 51.805903 
Q 89.706608 52.305463 89.421145 52.555242 
" clip-path="url(#p7367dbf6a5)" style="fill: none; stroke: #000000; stroke-linejoin: miter"/>
   </g>
  </g>
  <g id="axes_7">
   <g id="patch_8">
    <path d="M 110.843923 36.441748 
Q 109.634968 35.094627 105.662687 35.094627 
Q 104.142857 35.094627 103.365672 35.146439 
Q 102.588486 35.198252 101.58678 35.440043 
Q 100.585075 35.681834 100.101493 36.182687 
Q 99.61791 36.683539 99.272495 37.616162 
Q 98.927079 38.548785 98.927079 39.964989 
Q 98.927079 42.037484 100.343284 43.280981 
Q 101.759488 44.524478 103.693817 44.524478 
Q 106.353518 44.524478 109.116844 38.721493 
Q 110.463966 35.854542 110.463966 35.82 
Q 110.809382 35.578209 110.843923 36.441748 
Q 110.843923 37.512537 111.258422 40.362217 
Q 111.672921 43.211898 111.672921 44.524478 
" clip-path="url(#p284ad7a8ae)" style="fill: none; stroke: #000000; stroke-linejoin: miter"/>
   </g>
  </g>
  <g id="axes_8">
   <g id="patch_9">
    <path d="M 117.057476 43.917766 
Q 117.357393 44.180193 118.369614 45.154924 
Q 119.381834 46.129655 119.944179 46.560786 
Q 120.506524 46.991917 121.53749 47.385559 
Q 122.568455 47.7792 123.580676 47.629241 
Q 124.25549 47.629241 124.72411 47.404303 
Q 125.192731 47.179366 125.417669 46.879448 
Q 125.642607 46.579531 125.773821 45.979697 
Q 125.905034 45.379862 125.923779 44.967476 
Q 125.942524 44.55509 125.942524 43.805297 
Q 125.942524 42.718097 125.042772 42.043283 
Q 124.143021 41.368469 122.849628 41.031062 
Q 121.556234 40.693655 120.262841 40.300014 
Q 118.969448 39.906372 118.069697 38.987876 
Q 117.169945 38.069379 117.169945 36.607283 
Q 117.169945 36.082428 117.338648 35.726276 
Q 117.507352 35.370124 117.900993 35.145186 
Q 118.294634 34.920248 118.575807 34.807779 
Q 118.856979 34.69531 119.513048 34.639076 
Q 120.169117 34.582841 120.356566 34.582841 
Q 120.544014 34.582841 121.218828 34.582841 
Q 122.418497 34.582841 122.999586 34.995228 
Q 123.580676 35.407614 123.899338 36.026193 
Q 124.218 36.644772 124.480428 36.832221 
" clip-path="url(#pafabe3c01f)" style="fill: none; stroke: #000000; stroke-linejoin: miter"/>
   </g>
  </g>
  <g id="axes_9">
   <g id="patch_10">
    <path d="M 132.863834 37.95691 
L 133.538648 37.95691 
Q 134.250952 37.95691 135.038234 37.881931 
Q 135.825517 37.806952 136.781503 37.675738 
Q 137.73749 37.544524 138.262345 37.507034 
L 142.536166 35.82 
M 138.487283 30.42149 
L 138.487283 31.43371 
Q 138.487283 33.383172 137.812469 37.207117 
Q 137.137655 41.031062 137.137655 43.018014 
Q 137.137655 43.805297 137.137655 44.105214 
Q 137.137655 44.405131 137.231379 45.042455 
Q 137.325103 45.679779 137.512552 45.960952 
Q 137.7 46.242124 138.093641 46.485807 
Q 138.487283 46.72949 139.049628 46.72949 
Q 139.162097 46.692 139.480759 46.72949 
Q 139.799421 46.766979 139.986869 46.710745 
Q 140.174317 46.65451 140.174317 46.392083 
" clip-path="url(#p71d5416729)" style="fill: none; stroke: #000000; stroke-linejoin: miter"/>
   </g>
  </g>
  <g id="axes_10">
   <g id="patch_11">
    <path d="M 153.787531 45.979697 
Q 153.750041 46.017186 153.618828 46.054676 
Q 153.487614 46.092166 153.525103 46.167145 
Q 153.525103 46.579531 153.9 46.579531 
Q 154.237407 46.579531 154.237407 46.092166 
Q 154.312386 45.867228 154.031214 45.754759 
Q 153.750041 45.64229 153.562593 45.754759 
" clip-path="url(#p2ed7b9b9f8)" style="fill: none; stroke: #000000; stroke-linejoin: miter"/>
   </g>
  </g>
 </g>
 <defs>
  <clipPath id="pbc238d60c2">
   <rect x="1.558055" y="8.64" width="13.08389" height="54.36"/>
  </clipPath>
  <clipPath id="p541e92c0c2">
   <rect x="18.938979" y="8.64" width="10.722041" height="54.36"/>
  </clipPath>
  <clipPath id="pe2b0461728">
   <rect x="32.4" y="8.881927" width="16.2" height="53.876147"/>
  </clipPath>
  <clipPath id="pf1a0c30313">
   <rect x="48.6" y="10.777356" width="16.2" height="50.085288"/>
  </clipPath>
  <clipPath id="pacbecf1e78">
   <rect x="66.582993" y="8.64" width="12.634014" height="54.36"/>
  </clipPath>
  <clipPath id="p7367dbf6a5">
   <rect x="81" y="9.949956" width="16.2" height="51.740088"/>
  </clipPath>
  <clipPath id="p284ad7a8ae">
   <rect x="97.2" y="10.777356" width="16.2" height="50.085288"/>
  </clipPath>
  <clipPath id="pafabe3c01f">
   <rect x="115.182993" y="8.64" width="12.634014" height="54.36"/>
  </clipPath>
  <clipPath id="p71d5416729">
   <rect x="130.989352" y="8.64" width="13.421297" height="54.36"/>
  </clipPath>
  <clipPath id="p2ed7b9b9f8">
   <rect x="151.613131" y="8.64" width="4.573738" height="54.36"/>
  </clipPath>
 </defs>
</svg>
