<?xml version="1.0" encoding="utf-8" standalone="no"?>
<!DOCTYPE svg PUBLIC "-//W3C//DTD SVG 1.1//EN"
  "http://www.w3.org/Graphics/SVG/1.1/DTD/svg11.dtd">
<svg xmlns:xlink="http://www.w3.org/1999/xlink" width="918pt" height="72pt" viewBox="0 0 918 72" xmlns="http://www.w3.org/2000/svg" version="1.1">
 <metadata>
  <rdf:RDF xmlns:dc="http://purl.org/dc/elements/1.1/" xmlns:cc="http://creativecommons.org/ns#" xmlns:rdf="http://www.w3.org/1999/02/22-rdf-syntax-ns#">
   <cc:Work>
    <dc:type rdf:resource="http://purl.org/dc/dcmitype/StillImage"/>
    <dc:date>2023-12-21T12:07:18.309345</dc:date>
    <dc:format>image/svg+xml</dc:format>
    <dc:creator>
     <cc:Agent>
      <dc:title>Matplotlib v3.5.1, https://matplotlib.org/</dc:title>
     </cc:Agent>
    </dc:creator>
   </cc:Work>
  </rdf:RDF>
 </metadata>
 <defs>
  <style type="text/css">*{stroke-linejoin: round; stroke-linecap: butt}</style>
 </defs>
 <g id="figure_1">
  <g id="patch_1">
   <path d="M 0 72 
L 918 72 
L 918 0 
L 0 0 
z
" style="fill: #8fff9f"/>
  </g>
  <g id="axes_1">
   <g id="patch_2">
    <path d="M 11.699007 39.568966 
Q 10.349379 38.181848 8.1 38.444276 
Q 5.250786 38.444276 4.088607 39.793903 
Q 2.926428 41.143531 2.926428 44.067724 
Q 2.926428 45.56731 4.219821 46.279614 
Q 5.513214 46.991917 7.087779 46.991917 
Q 8.399917 46.991917 9.412138 45.736014 
Q 10.424359 44.48011 11.005448 42.30571 
Q 11.586538 40.13131 11.961434 37.938166 
Q 12.336331 35.745021 12.48629 33.045766 
Q 12.636248 30.34651 12.673738 28.978138 
Q 12.711228 27.609766 12.711228 26.185159 
Q 12.48629 26.260138 12.48629 29.896634 
L 12.48629 44.292662 
L 13.273572 48.229076 
" clip-path="url(#pf917a9049a)" style="fill: none; stroke: #000000; stroke-linejoin: miter"/>
   </g>
  </g>
  <g id="axes_2">
   <g id="patch_3">
    <path d="M 24.918579 29.071862 
Q 24.543683 29.146841 24.412469 29.577972 
Q 24.281255 30.009103 24.356234 30.42149 
Q 24.356234 30.571448 24.393724 30.702662 
Q 24.431214 30.833876 24.487448 30.89011 
Q 24.543683 30.946345 24.599917 31.040069 
Q 24.656152 31.133793 24.693641 31.208772 
L 24.80611 29.859145 
M 24.80611 34.020497 
Q 23.906359 39.006621 23.681421 42.793076 
L 24.131297 45.379862 
L 24.468703 46.054676 
" clip-path="url(#p1828dcbca6)" style="fill: none; stroke: #000000; stroke-linejoin: miter"/>
   </g>
  </g>
  <g id="axes_3">
   <g id="patch_4">
    <path d="M 36.038731 37.282097 
L 36.038731 37.844441 
Q 36.301159 39.868883 36.338648 41.312234 
Q 36.376138 42.755586 36.282414 44.667559 
Q 36.18869 46.579531 36.18869 48.191586 
L 36.263669 39.643945 
Q 36.263669 38.144359 37.856979 37.507034 
Q 39.45029 36.86971 40.874897 37.282097 
Q 42.786869 37.844441 43.705366 39.04411 
Q 44.623862 40.243779 44.680097 41.668386 
Q 44.736331 43.092993 44.773821 44.817517 
Q 44.81131 46.542041 44.961269 48.191586 
" clip-path="url(#p0e24661127)" style="fill: none; stroke: #000000; stroke-linejoin: miter"/>
   </g>
  </g>
  <g id="axes_4">
   <g id="patch_5">
    <path d="M 50.457798 38.160826 
Q 53.430275 39.535596 58.149083 39.721376 
Q 59.672477 39.721376 60.359862 38.550963 
Q 61.047248 37.38055 61.047248 35.82 
Q 61.047248 35.299817 60.954358 34.909679 
Q 60.861468 34.519541 60.619954 34.296606 
Q 60.37844 34.07367 60.211239 33.943624 
Q 60.044037 33.813578 59.598165 33.757844 
Q 59.152294 33.70211 58.947936 33.683532 
Q 58.743578 33.664954 58.167661 33.683532 
Q 57.591743 33.70211 57.368807 33.70211 
Q 55.325229 33.70211 53.838991 35.578486 
Q 52.352752 37.454862 52.352752 39.609908 
Q 52.352752 42.619541 54.284862 44.570229 
Q 56.216972 46.520917 59.263761 46.520917 
Q 61.418807 46.818165 62.942202 44.29156 
" clip-path="url(#pdd5bc18634)" style="fill: none; stroke: #000000; stroke-linejoin: miter"/>
   </g>
  </g>
  <g id="axes_5">
   <g id="patch_6">
    <path d="M 68.063834 37.95691 
L 68.738648 37.95691 
Q 69.450952 37.95691 70.238234 37.881931 
Q 71.025517 37.806952 71.981503 37.675738 
Q 72.93749 37.544524 73.462345 37.507034 
L 77.736166 35.82 
M 73.687283 30.42149 
L 73.687283 31.43371 
Q 73.687283 33.383172 73.012469 37.207117 
Q 72.337655 41.031062 72.337655 43.018014 
Q 72.337655 43.805297 72.337655 44.105214 
Q 72.337655 44.405131 72.431379 45.042455 
Q 72.525103 45.679779 72.712552 45.960952 
Q 72.9 46.242124 73.293641 46.485807 
Q 73.687283 46.72949 74.249628 46.72949 
Q 74.362097 46.692 74.680759 46.72949 
Q 74.999421 46.766979 75.186869 46.710745 
Q 75.374317 46.65451 75.374317 46.392083 
" clip-path="url(#pd61afed1bb)" style="fill: none; stroke: #000000; stroke-linejoin: miter"/>
   </g>
  </g>
  <g id="axes_6">
   <g id="patch_7">
    <path d="M 84.263834 37.95691 
L 84.938648 37.95691 
Q 85.650952 37.95691 86.438234 37.881931 
Q 87.225517 37.806952 88.181503 37.675738 
Q 89.13749 37.544524 89.662345 37.507034 
L 93.936166 35.82 
M 89.887283 30.42149 
L 89.887283 31.43371 
Q 89.887283 33.383172 89.212469 37.207117 
Q 88.537655 41.031062 88.537655 43.018014 
Q 88.537655 43.805297 88.537655 44.105214 
Q 88.537655 44.405131 88.631379 45.042455 
Q 88.725103 45.679779 88.912552 45.960952 
Q 89.1 46.242124 89.493641 46.485807 
Q 89.887283 46.72949 90.449628 46.72949 
Q 90.562097 46.692 90.880759 46.72949 
Q 91.199421 46.766979 91.386869 46.710745 
Q 91.574317 46.65451 91.574317 46.392083 
" clip-path="url(#ped144ae218)" style="fill: none; stroke: #000000; stroke-linejoin: miter"/>
   </g>
  </g>
  <g id="axes_7">
   <g id="patch_8">
    <path d="M 99.057798 38.160826 
Q 102.030275 39.535596 106.749083 39.721376 
Q 108.272477 39.721376 108.959862 38.550963 
Q 109.647248 37.38055 109.647248 35.82 
Q 109.647248 35.299817 109.554358 34.909679 
Q 109.461468 34.519541 109.219954 34.296606 
Q 108.97844 34.07367 108.811239 33.943624 
Q 108.644037 33.813578 108.198165 33.757844 
Q 107.752294 33.70211 107.547936 33.683532 
Q 107.343578 33.664954 106.767661 33.683532 
Q 106.191743 33.70211 105.968807 33.70211 
Q 103.925229 33.70211 102.438991 35.578486 
Q 100.952752 37.454862 100.952752 39.609908 
Q 100.952752 42.619541 102.884862 44.570229 
Q 104.816972 46.520917 107.863761 46.520917 
Q 110.018807 46.818165 111.542202 44.29156 
" clip-path="url(#pe71f7e09a2)" style="fill: none; stroke: #000000; stroke-linejoin: miter"/>
   </g>
  </g>
  <g id="axes_8">
   <g id="patch_9">
    <path d="M 120.787697 39.981352 
Q 121.799917 40.956083 122.137324 42.905545 
Q 122.324772 43.955255 121.912386 46.167145 
L 120.675228 47.629241 
" clip-path="url(#pf0be070f08)" style="fill: none; stroke: #000000; stroke-linejoin: miter"/>
   </g>
  </g>
  <g id="axes_9"/>
  <g id="axes_10">
   <g id="patch_10">
    <path d="M 157.1616 35.032717 
Q 156.11189 34.582841 155.137159 34.69531 
Q 152.100497 35.032717 150.188524 36.701007 
Q 148.276552 38.369297 148.276552 41.330979 
Q 148.276552 43.917766 150.282248 45.6048 
Q 152.287945 47.291834 154.912221 47.291834 
Q 157.274069 47.291834 158.398759 45.361117 
Q 159.523448 43.4304 159.523448 40.881103 
Q 159.523448 39.643945 159.111062 38.706703 
Q 158.698676 37.769462 158.173821 37.300841 
Q 157.648966 36.832221 156.899172 36.119917 
Q 156.149379 35.407614 155.699503 34.69531 
L 154.462345 34.245434 
" clip-path="url(#p722e4a038f)" style="fill: none; stroke: #000000; stroke-linejoin: miter"/>
   </g>
  </g>
  <g id="axes_11">
   <g id="patch_11">
    <path d="M 165.320069 39.868883 
L 165.320069 39.419007 
Q 165.320069 37.769462 167.063338 36.682262 
Q 168.806607 35.595062 170.493641 35.595062 
Q 172.705531 35.595062 174.073903 36.794731 
Q 175.442276 37.9944 175.442276 40.20629 
Q 175.442276 42.30571 173.624028 43.336676 
Q 171.805779 44.367641 169.59389 44.367641 
Q 168.919076 44.367641 168.412966 44.255172 
Q 167.906855 44.142703 167.288276 43.917766 
Q 166.669697 43.692828 166.219821 43.580359 
L 165.095131 42.568138 
M 164.757724 36.832221 
Q 165.2076 38.444276 165.470028 40.262524 
Q 165.732455 42.080772 165.78869 43.749062 
Q 165.844924 45.417352 165.882414 47.27309 
Q 165.919903 49.128828 165.882414 50.778372 
L 165.769945 57.863917 
" clip-path="url(#p5fa8561d59)" style="fill: none; stroke: #000000; stroke-linejoin: miter"/>
   </g>
  </g>
  <g id="axes_12">
   <g id="patch_12">
    <path d="M 181.520069 39.868883 
L 181.520069 39.419007 
Q 181.520069 37.769462 183.263338 36.682262 
Q 185.006607 35.595062 186.693641 35.595062 
Q 188.905531 35.595062 190.273903 36.794731 
Q 191.642276 37.9944 191.642276 40.20629 
Q 191.642276 42.30571 189.824028 43.336676 
Q 188.005779 44.367641 185.79389 44.367641 
Q 185.119076 44.367641 184.612966 44.255172 
Q 184.106855 44.142703 183.488276 43.917766 
Q 182.869697 43.692828 182.419821 43.580359 
L 181.295131 42.568138 
M 180.957724 36.832221 
Q 181.4076 38.444276 181.670028 40.262524 
Q 181.932455 42.080772 181.98869 43.749062 
Q 182.044924 45.417352 182.082414 47.27309 
Q 182.119903 49.128828 182.082414 50.778372 
L 181.969945 57.863917 
" clip-path="url(#p7bdda93a37)" style="fill: none; stroke: #000000; stroke-linejoin: miter"/>
   </g>
  </g>
  <g id="axes_13">
   <g id="patch_13">
    <path d="M 205.7616 35.032717 
Q 204.71189 34.582841 203.737159 34.69531 
Q 200.700497 35.032717 198.788524 36.701007 
Q 196.876552 38.369297 196.876552 41.330979 
Q 196.876552 43.917766 198.882248 45.6048 
Q 200.887945 47.291834 203.512221 47.291834 
Q 205.874069 47.291834 206.998759 45.361117 
Q 208.123448 43.4304 208.123448 40.881103 
Q 208.123448 39.643945 207.711062 38.706703 
Q 207.298676 37.769462 206.773821 37.300841 
Q 206.248966 36.832221 205.499172 36.119917 
Q 204.749379 35.407614 204.299503 34.69531 
L 203.062345 34.245434 
" clip-path="url(#pe158eca97e)" style="fill: none; stroke: #000000; stroke-linejoin: miter"/>
   </g>
  </g>
  <g id="axes_14">
   <g id="patch_14">
    <path d="M 214.257476 43.917766 
Q 214.557393 44.180193 215.569614 45.154924 
Q 216.581834 46.129655 217.144179 46.560786 
Q 217.706524 46.991917 218.73749 47.385559 
Q 219.768455 47.7792 220.780676 47.629241 
Q 221.45549 47.629241 221.92411 47.404303 
Q 222.392731 47.179366 222.617669 46.879448 
Q 222.842607 46.579531 222.973821 45.979697 
Q 223.105034 45.379862 223.123779 44.967476 
Q 223.142524 44.55509 223.142524 43.805297 
Q 223.142524 42.718097 222.242772 42.043283 
Q 221.343021 41.368469 220.049628 41.031062 
Q 218.756234 40.693655 217.462841 40.300014 
Q 216.169448 39.906372 215.269697 38.987876 
Q 214.369945 38.069379 214.369945 36.607283 
Q 214.369945 36.082428 214.538648 35.726276 
Q 214.707352 35.370124 215.100993 35.145186 
Q 215.494634 34.920248 215.775807 34.807779 
Q 216.056979 34.69531 216.713048 34.639076 
Q 217.369117 34.582841 217.556566 34.582841 
Q 217.744014 34.582841 218.418828 34.582841 
Q 219.618497 34.582841 220.199586 34.995228 
Q 220.780676 35.407614 221.099338 36.026193 
Q 221.418 36.644772 221.680428 36.832221 
" clip-path="url(#p6ccef84e0f)" style="fill: none; stroke: #000000; stroke-linejoin: miter"/>
   </g>
  </g>
  <g id="axes_15">
   <g id="patch_15">
    <path d="M 235.518579 29.071862 
Q 235.143683 29.146841 235.012469 29.577972 
Q 234.881255 30.009103 234.956234 30.42149 
Q 234.956234 30.571448 234.993724 30.702662 
Q 235.031214 30.833876 235.087448 30.89011 
Q 235.143683 30.946345 235.199917 31.040069 
Q 235.256152 31.133793 235.293641 31.208772 
L 235.40611 29.859145 
M 235.40611 34.020497 
Q 234.506359 39.006621 234.281421 42.793076 
L 234.731297 45.379862 
L 235.068703 46.054676 
" clip-path="url(#p0fcbdeb3f1)" style="fill: none; stroke: #000000; stroke-linejoin: miter"/>
   </g>
  </g>
  <g id="axes_16">
   <g id="patch_16">
    <path d="M 246.263834 37.95691 
L 246.938648 37.95691 
Q 247.650952 37.95691 248.438234 37.881931 
Q 249.225517 37.806952 250.181503 37.675738 
Q 251.13749 37.544524 251.662345 37.507034 
L 255.936166 35.82 
M 251.887283 30.42149 
L 251.887283 31.43371 
Q 251.887283 33.383172 251.212469 37.207117 
Q 250.537655 41.031062 250.537655 43.018014 
Q 250.537655 43.805297 250.537655 44.105214 
Q 250.537655 44.405131 250.631379 45.042455 
Q 250.725103 45.679779 250.912552 45.960952 
Q 251.1 46.242124 251.493641 46.485807 
Q 251.887283 46.72949 252.449628 46.72949 
Q 252.562097 46.692 252.880759 46.72949 
Q 253.199421 46.766979 253.386869 46.710745 
Q 253.574317 46.65451 253.574317 46.392083 
" clip-path="url(#p53cfd19a23)" style="fill: none; stroke: #000000; stroke-linejoin: miter"/>
   </g>
  </g>
  <g id="axes_17">
   <g id="patch_17">
    <path d="M 261.057798 38.160826 
Q 264.030275 39.535596 268.749083 39.721376 
Q 270.272477 39.721376 270.959862 38.550963 
Q 271.647248 37.38055 271.647248 35.82 
Q 271.647248 35.299817 271.554358 34.909679 
Q 271.461468 34.519541 271.219954 34.296606 
Q 270.97844 34.07367 270.811239 33.943624 
Q 270.644037 33.813578 270.198165 33.757844 
Q 269.752294 33.70211 269.547936 33.683532 
Q 269.343578 33.664954 268.767661 33.683532 
Q 268.191743 33.70211 267.968807 33.70211 
Q 265.925229 33.70211 264.438991 35.578486 
Q 262.952752 37.454862 262.952752 39.609908 
Q 262.952752 42.619541 264.884862 44.570229 
Q 266.816972 46.520917 269.863761 46.520917 
Q 272.018807 46.818165 273.542202 44.29156 
" clip-path="url(#p9e8d09dcf3)" style="fill: none; stroke: #000000; stroke-linejoin: miter"/>
   </g>
  </g>
  <g id="axes_18"/>
  <g id="axes_19">
   <g id="patch_18">
    <path d="M 296.381498 38.139383 
Q 296.381498 38.139383 298.415419 38.139383 
Q 299.236123 37.889604 301.555507 38.085859 
Q 303.87489 38.282115 304.838326 38.139383 
M 293.384141 46.489163 
L 293.491189 46.168018 
Q 293.491189 45.275947 295.418062 40.797753 
Q 297.344934 36.319559 299.307489 32.251718 
Q 301.270044 28.183877 301.412775 28.183877 
Q 302.269163 28.183877 302.964978 29.646872 
Q 303.660793 31.109868 304.12467 33.393568 
Q 304.588546 35.677269 304.927533 37.943128 
Q 305.26652 40.208987 305.551982 42.332115 
Q 305.837445 44.455242 306.015859 45.097533 
" clip-path="url(#p0418f3e24c)" style="fill: none; stroke: #000000; stroke-linejoin: miter"/>
   </g>
  </g>
  <g id="axes_20">
   <g id="patch_19">
    <path d="M 311.438731 37.282097 
L 311.438731 37.844441 
Q 311.701159 39.868883 311.738648 41.312234 
Q 311.776138 42.755586 311.682414 44.667559 
Q 311.58869 46.579531 311.58869 48.191586 
L 311.663669 39.643945 
Q 311.663669 38.144359 313.256979 37.507034 
Q 314.85029 36.86971 316.274897 37.282097 
Q 318.186869 37.844441 319.105366 39.04411 
Q 320.023862 40.243779 320.080097 41.668386 
Q 320.136331 43.092993 320.173821 44.817517 
Q 320.21131 46.542041 320.361269 48.191586 
" clip-path="url(#pbdbd234b19)" style="fill: none; stroke: #000000; stroke-linejoin: miter"/>
   </g>
  </g>
  <g id="axes_21">
   <g id="patch_20">
    <path d="M 336.887191 39.096404 
Q 336.63236 39.023596 335.66764 38.623146 
Q 334.702921 38.222697 334.04764 38.077079 
Q 333.39236 37.931461 332.737079 38.00427 
Q 330.115955 38.00427 328.477753 40.388764 
Q 326.839551 42.773258 326.839551 45.430787 
Q 326.839551 47.068989 332.081798 47.068989 
Q 333.647191 47.068989 334.975955 45.558202 
Q 336.304719 44.047416 336.978202 42.172584 
Q 337.651685 40.297753 337.651685 38.768764 
Q 337.651685 37.27618 337.615281 36.984944 
L 337.542472 38.077079 
Q 337.542472 38.550337 337.542472 38.987191 
Q 337.578876 40.188539 337.779101 42.281798 
Q 337.979326 44.375056 338.143146 46.049663 
Q 338.306966 47.72427 338.343371 49.872135 
Q 338.379775 52.02 338.215955 53.658202 
Q 338.052135 55.296404 337.487865 56.971011 
Q 336.923596 58.645618 335.995281 59.737753 
Q 335.066966 60.829888 333.465169 61.521573 
Q 331.863371 62.213258 329.715506 62.213258 
Q 328.077303 62.213258 326.985169 61.466966 
Q 325.893034 60.720674 325.893034 59.155281 
Q 325.820225 58.936854 325.856629 58.936854 
Q 325.893034 58.936854 326.002247 58.936854 
Q 326.111461 58.936854 326.111461 58.82764 
" clip-path="url(#pb65812c287)" style="fill: none; stroke: #000000; stroke-linejoin: miter"/>
   </g>
  </g>
  <g id="axes_22">
   <g id="patch_21">
    <path d="M 342.057798 38.160826 
Q 345.030275 39.535596 349.749083 39.721376 
Q 351.272477 39.721376 351.959862 38.550963 
Q 352.647248 37.38055 352.647248 35.82 
Q 352.647248 35.299817 352.554358 34.909679 
Q 352.461468 34.519541 352.219954 34.296606 
Q 351.97844 34.07367 351.811239 33.943624 
Q 351.644037 33.813578 351.198165 33.757844 
Q 350.752294 33.70211 350.547936 33.683532 
Q 350.343578 33.664954 349.767661 33.683532 
Q 349.191743 33.70211 348.968807 33.70211 
Q 346.925229 33.70211 345.438991 35.578486 
Q 343.952752 37.454862 343.952752 39.609908 
Q 343.952752 42.619541 345.884862 44.570229 
Q 347.816972 46.520917 350.863761 46.520917 
Q 353.018807 46.818165 354.542202 44.29156 
" clip-path="url(#pe0d699917d)" style="fill: none; stroke: #000000; stroke-linejoin: miter"/>
   </g>
  </g>
  <g id="axes_23">
   <g id="patch_22">
    <path d="M 364.106359 28.621986 
Q 364.331297 30.34651 364.406276 32.146014 
Q 364.481255 33.945517 364.46251 36.551048 
Q 364.443766 39.156579 364.443766 40.093821 
Q 364.443766 40.13131 364.668703 45.829738 
L 364.893641 46.841959 
" clip-path="url(#pbd923c7b0d)" style="fill: none; stroke: #000000; stroke-linejoin: miter"/>
   </g>
  </g>
  <g id="axes_24">
   <g id="patch_23">
    <path d="M 386.243923 36.441748 
Q 385.034968 35.094627 381.062687 35.094627 
Q 379.542857 35.094627 378.765672 35.146439 
Q 377.988486 35.198252 376.98678 35.440043 
Q 375.985075 35.681834 375.501493 36.182687 
Q 375.01791 36.683539 374.672495 37.616162 
Q 374.327079 38.548785 374.327079 39.964989 
Q 374.327079 42.037484 375.743284 43.280981 
Q 377.159488 44.524478 379.093817 44.524478 
Q 381.753518 44.524478 384.516844 38.721493 
Q 385.863966 35.854542 385.863966 35.82 
Q 386.209382 35.578209 386.243923 36.441748 
Q 386.243923 37.512537 386.658422 40.362217 
Q 387.072921 43.211898 387.072921 44.524478 
" clip-path="url(#p92e93f7a8c)" style="fill: none; stroke: #000000; stroke-linejoin: miter"/>
   </g>
  </g>
  <g id="axes_25">
   <g id="patch_24">
    <path d="M 396.187697 39.981352 
Q 397.199917 40.956083 397.537324 42.905545 
Q 397.724772 43.955255 397.312386 46.167145 
L 396.075228 47.629241 
" clip-path="url(#p9d4e5f35c6)" style="fill: none; stroke: #000000; stroke-linejoin: miter"/>
   </g>
  </g>
  <g id="axes_26"/>
  <g id="axes_27">
   <g id="patch_25">
    <path d="M 423.248638 35.788482 
L 423.437743 35.788482 
Q 424.320233 35.788482 426.085214 35.69393 
Q 427.850195 35.599377 428.732685 35.599377 
Q 430.277043 35.599377 431.474708 35.835759 
Q 432.672374 36.07214 433.696693 36.655214 
Q 434.721012 37.238288 435.272568 38.35716 
Q 435.824125 39.476031 435.824125 41.083424 
Q 435.824125 46.567471 425.707004 46.567471 
Q 425.675486 46.567471 423.815953 46.283813 
L 423.248638 46.000156 
M 423.248638 27.562412 
Q 424.887549 26.679922 426.841634 26.71144 
Q 429.110895 26.71144 431.143774 28.035175 
Q 433.176654 29.358911 433.176654 31.533619 
Q 433.176654 32.825837 432.625097 33.582257 
Q 432.073541 34.338677 431.348638 34.527782 
Q 430.623735 34.716887 429.630934 35.06358 
Q 428.638132 35.410272 428.070817 35.883035 
L 423.248638 35.788482 
M 422.775875 27.656965 
Q 422.996498 28.949183 422.933463 32.494903 
Q 422.870428 36.040623 423.437743 37.301323 
Q 423.437743 38.309883 423.390467 40.358521 
Q 423.343191 42.40716 423.343191 43.447237 
L 423.343191 45.243735 
L 423.154086 46.000156 
" clip-path="url(#pac22087770)" style="fill: none; stroke: #000000; stroke-linejoin: miter"/>
   </g>
  </g>
  <g id="axes_28">
   <g id="patch_26">
    <path d="M 440.888772 35.145186 
Q 440.888772 35.145186 440.888772 35.595062 
Q 440.888772 36.269876 440.776303 37.619503 
Q 440.663834 38.969131 440.663834 39.643945 
Q 440.663834 41.930814 441.900993 43.599103 
Q 443.138152 45.267393 445.275062 45.267393 
Q 446.662179 45.154924 447.430717 43.917766 
Q 448.199255 42.680607 448.349214 41.237255 
Q 448.499172 39.793903 448.7616 37.9944 
Q 449.024028 36.194897 449.436414 35.370124 
Q 449.586372 35.070207 449.586372 35.670041 
Q 449.586372 36.269876 449.323945 38.706703 
Q 449.099007 41.031062 449.099007 41.555917 
Q 448.949048 42.643117 449.286455 43.767807 
Q 449.623862 44.892497 450.336166 45.6048 
" clip-path="url(#pfc4994e907)" style="fill: none; stroke: #000000; stroke-linejoin: miter"/>
   </g>
  </g>
  <g id="axes_29">
   <g id="patch_27">
    <path d="M 458.213462 32.783338 
Q 458.738317 34.507862 458.869531 36.457324 
Q 459.000745 38.406786 458.925766 40.956083 
Q 458.850786 43.505379 458.888276 44.705048 
L 459.000745 46.054676 
L 459.000745 45.829738 
Q 459.000745 44.667559 458.719572 42.30571 
Q 458.4384 39.943862 458.4384 38.744193 
Q 458.4384 36.419834 459.450621 34.882759 
Q 460.462841 33.345683 462.487283 33.345683 
Q 463.199586 33.345683 463.536993 33.626855 
Q 463.8744 33.908028 464.136828 34.432883 
Q 464.399255 34.957738 464.736662 35.257655 
L 465.186538 36.832221 
" clip-path="url(#p558de5f5a7)" style="fill: none; stroke: #000000; stroke-linejoin: miter"/>
   </g>
  </g>
  <g id="axes_30">
   <g id="patch_28">
    <path d="M 473.063834 37.95691 
L 473.738648 37.95691 
Q 474.450952 37.95691 475.238234 37.881931 
Q 476.025517 37.806952 476.981503 37.675738 
Q 477.93749 37.544524 478.462345 37.507034 
L 482.736166 35.82 
M 478.687283 30.42149 
L 478.687283 31.43371 
Q 478.687283 33.383172 478.012469 37.207117 
Q 477.337655 41.031062 477.337655 43.018014 
Q 477.337655 43.805297 477.337655 44.105214 
Q 477.337655 44.405131 477.431379 45.042455 
Q 477.525103 45.679779 477.712552 45.960952 
Q 477.9 46.242124 478.293641 46.485807 
Q 478.687283 46.72949 479.249628 46.72949 
Q 479.362097 46.692 479.680759 46.72949 
Q 479.999421 46.766979 480.186869 46.710745 
Q 480.374317 46.65451 480.374317 46.392083 
" clip-path="url(#p9365bac544)" style="fill: none; stroke: #000000; stroke-linejoin: miter"/>
   </g>
  </g>
  <g id="axes_31"/>
  <g id="axes_32">
   <g id="patch_29">
    <path d="M 515.843923 36.441748 
Q 514.634968 35.094627 510.662687 35.094627 
Q 509.142857 35.094627 508.365672 35.146439 
Q 507.588486 35.198252 506.58678 35.440043 
Q 505.585075 35.681834 505.101493 36.182687 
Q 504.61791 36.683539 504.272495 37.616162 
Q 503.927079 38.548785 503.927079 39.964989 
Q 503.927079 42.037484 505.343284 43.280981 
Q 506.759488 44.524478 508.693817 44.524478 
Q 511.353518 44.524478 514.116844 38.721493 
Q 515.463966 35.854542 515.463966 35.82 
Q 515.809382 35.578209 515.843923 36.441748 
Q 515.843923 37.512537 516.258422 40.362217 
Q 516.672921 43.211898 516.672921 44.524478 
" clip-path="url(#p6a38eb7a9e)" style="fill: none; stroke: #000000; stroke-linejoin: miter"/>
   </g>
  </g>
  <g id="axes_33">
   <g id="patch_30">
    <path d="M 526.106359 28.621986 
Q 526.331297 30.34651 526.406276 32.146014 
Q 526.481255 33.945517 526.46251 36.551048 
Q 526.443766 39.156579 526.443766 40.093821 
Q 526.443766 40.13131 526.668703 45.829738 
L 526.893641 46.841959 
" clip-path="url(#p0f88e3db64)" style="fill: none; stroke: #000000; stroke-linejoin: miter"/>
   </g>
  </g>
  <g id="axes_34">
   <g id="patch_31">
    <path d="M 536.408036 34.879821 
Q 536.914286 36.073125 537.203571 42.871339 
Q 537.348214 46.632054 537.6375 46.632054 
Q 537.673661 46.632054 537.709821 46.595893 
Q 538.216071 46.017321 538.270313 44.588973 
Q 538.324554 43.160625 538.107589 41.750357 
Q 537.890625 40.340089 537.6375 38.712857 
Q 537.384375 37.085625 537.384375 36.398571 
Q 537.384375 35.169107 537.764063 33.939643 
Q 538.14375 32.710179 539.120089 32.710179 
Q 540.349554 32.710179 541.072768 34.355491 
Q 541.795982 36.000804 541.958705 37.971563 
Q 542.121429 39.942321 542.229911 41.587634 
Q 542.338393 43.232946 542.483036 43.232946 
Q 542.627679 43.232946 542.71808 41.497232 
Q 542.808482 39.761518 542.935045 37.700357 
Q 543.061607 35.639196 543.784821 33.903482 
Q 544.508036 32.167768 545.7375 32.167768 
Q 547.292411 33.035625 547.961384 34.771339 
Q 548.630357 36.507054 548.594196 38.188527 
Q 548.558036 39.87 548.576116 42.057723 
Q 548.594196 44.245446 548.991964 45.511071 
" clip-path="url(#p709e667262)" style="fill: none; stroke: #000000; stroke-linejoin: miter"/>
   </g>
  </g>
  <g id="axes_35">
   <g id="patch_32">
    <path d="M 562.1616 35.032717 
Q 561.11189 34.582841 560.137159 34.69531 
Q 557.100497 35.032717 555.188524 36.701007 
Q 553.276552 38.369297 553.276552 41.330979 
Q 553.276552 43.917766 555.282248 45.6048 
Q 557.287945 47.291834 559.912221 47.291834 
Q 562.274069 47.291834 563.398759 45.361117 
Q 564.523448 43.4304 564.523448 40.881103 
Q 564.523448 39.643945 564.111062 38.706703 
Q 563.698676 37.769462 563.173821 37.300841 
Q 562.648966 36.832221 561.899172 36.119917 
Q 561.149379 35.407614 560.699503 34.69531 
L 559.462345 34.245434 
" clip-path="url(#p65acb8bd9f)" style="fill: none; stroke: #000000; stroke-linejoin: miter"/>
   </g>
  </g>
  <g id="axes_36">
   <g id="patch_33">
    <path d="M 570.657476 43.917766 
Q 570.957393 44.180193 571.969614 45.154924 
Q 572.981834 46.129655 573.544179 46.560786 
Q 574.106524 46.991917 575.13749 47.385559 
Q 576.168455 47.7792 577.180676 47.629241 
Q 577.85549 47.629241 578.32411 47.404303 
Q 578.792731 47.179366 579.017669 46.879448 
Q 579.242607 46.579531 579.373821 45.979697 
Q 579.505034 45.379862 579.523779 44.967476 
Q 579.542524 44.55509 579.542524 43.805297 
Q 579.542524 42.718097 578.642772 42.043283 
Q 577.743021 41.368469 576.449628 41.031062 
Q 575.156234 40.693655 573.862841 40.300014 
Q 572.569448 39.906372 571.669697 38.987876 
Q 570.769945 38.069379 570.769945 36.607283 
Q 570.769945 36.082428 570.938648 35.726276 
Q 571.107352 35.370124 571.500993 35.145186 
Q 571.894634 34.920248 572.175807 34.807779 
Q 572.456979 34.69531 573.113048 34.639076 
Q 573.769117 34.582841 573.956566 34.582841 
Q 574.144014 34.582841 574.818828 34.582841 
Q 576.018497 34.582841 576.599586 34.995228 
Q 577.180676 35.407614 577.499338 36.026193 
Q 577.818 36.644772 578.080428 36.832221 
" clip-path="url(#pb254eeaf31)" style="fill: none; stroke: #000000; stroke-linejoin: miter"/>
   </g>
  </g>
  <g id="axes_37">
   <g id="patch_34">
    <path d="M 586.463834 37.95691 
L 587.138648 37.95691 
Q 587.850952 37.95691 588.638234 37.881931 
Q 589.425517 37.806952 590.381503 37.675738 
Q 591.33749 37.544524 591.862345 37.507034 
L 596.136166 35.82 
M 592.087283 30.42149 
L 592.087283 31.43371 
Q 592.087283 33.383172 591.412469 37.207117 
Q 590.737655 41.031062 590.737655 43.018014 
Q 590.737655 43.805297 590.737655 44.105214 
Q 590.737655 44.405131 590.831379 45.042455 
Q 590.925103 45.679779 591.112552 45.960952 
Q 591.3 46.242124 591.693641 46.485807 
Q 592.087283 46.72949 592.649628 46.72949 
Q 592.762097 46.692 593.080759 46.72949 
Q 593.399421 46.766979 593.586869 46.710745 
Q 593.774317 46.65451 593.774317 46.392083 
" clip-path="url(#p1e44554317)" style="fill: none; stroke: #000000; stroke-linejoin: miter"/>
   </g>
  </g>
  <g id="axes_38"/>
  <g id="axes_39">
   <g id="patch_35">
    <path d="M 620.213462 35.932469 
Q 620.813297 35.257655 621.806772 34.826524 
Q 622.800248 34.395393 623.7 34.470372 
Q 624.337324 34.470372 624.82469 34.639076 
Q 625.312055 34.807779 625.630717 34.995228 
Q 625.949379 35.182676 626.174317 35.670041 
Q 626.399255 36.157407 626.511724 36.419834 
Q 626.624193 36.682262 626.680428 37.375821 
Q 626.736662 38.069379 626.755407 38.331807 
Q 626.774152 38.594234 626.755407 39.419007 
Q 626.736662 40.243779 626.736662 40.431228 
Q 626.736662 41.368469 626.567959 43.242952 
Q 626.399255 45.117434 626.399255 46.054676 
Q 626.399255 46.467062 626.45549 46.823214 
Q 626.511724 47.179366 626.605448 47.610497 
Q 626.699172 48.041628 626.736662 48.304055 
L 627.186538 48.528993 
M 620.663338 23.111007 
Q 620.888276 24.798041 620.888276 29.971614 
L 620.888276 42.3432 
L 620.550869 46.841959 
L 620.325931 47.74171 
" clip-path="url(#pc34481d075)" style="fill: none; stroke: #000000; stroke-linejoin: miter"/>
   </g>
  </g>
  <g id="axes_40">
   <g id="patch_36">
    <path d="M 645.443923 36.441748 
Q 644.234968 35.094627 640.262687 35.094627 
Q 638.742857 35.094627 637.965672 35.146439 
Q 637.188486 35.198252 636.18678 35.440043 
Q 635.185075 35.681834 634.701493 36.182687 
Q 634.21791 36.683539 633.872495 37.616162 
Q 633.527079 38.548785 633.527079 39.964989 
Q 633.527079 42.037484 634.943284 43.280981 
Q 636.359488 44.524478 638.293817 44.524478 
Q 640.953518 44.524478 643.716844 38.721493 
Q 645.063966 35.854542 645.063966 35.82 
Q 645.409382 35.578209 645.443923 36.441748 
Q 645.443923 37.512537 645.858422 40.362217 
Q 646.272921 43.211898 646.272921 44.524478 
" clip-path="url(#pdb3a070e78)" style="fill: none; stroke: #000000; stroke-linejoin: miter"/>
   </g>
  </g>
  <g id="axes_41">
   <g id="patch_37">
    <path d="M 651.657476 43.917766 
Q 651.957393 44.180193 652.969614 45.154924 
Q 653.981834 46.129655 654.544179 46.560786 
Q 655.106524 46.991917 656.13749 47.385559 
Q 657.168455 47.7792 658.180676 47.629241 
Q 658.85549 47.629241 659.32411 47.404303 
Q 659.792731 47.179366 660.017669 46.879448 
Q 660.242607 46.579531 660.373821 45.979697 
Q 660.505034 45.379862 660.523779 44.967476 
Q 660.542524 44.55509 660.542524 43.805297 
Q 660.542524 42.718097 659.642772 42.043283 
Q 658.743021 41.368469 657.449628 41.031062 
Q 656.156234 40.693655 654.862841 40.300014 
Q 653.569448 39.906372 652.669697 38.987876 
Q 651.769945 38.069379 651.769945 36.607283 
Q 651.769945 36.082428 651.938648 35.726276 
Q 652.107352 35.370124 652.500993 35.145186 
Q 652.894634 34.920248 653.175807 34.807779 
Q 653.456979 34.69531 654.113048 34.639076 
Q 654.769117 34.582841 654.956566 34.582841 
Q 655.144014 34.582841 655.818828 34.582841 
Q 657.018497 34.582841 657.599586 34.995228 
Q 658.180676 35.407614 658.499338 36.026193 
Q 658.818 36.644772 659.080428 36.832221 
" clip-path="url(#p32764fc6ea)" style="fill: none; stroke: #000000; stroke-linejoin: miter"/>
   </g>
  </g>
  <g id="axes_42"/>
  <g id="axes_43">
   <g id="patch_38">
    <path d="M 694.043923 36.441748 
Q 692.834968 35.094627 688.862687 35.094627 
Q 687.342857 35.094627 686.565672 35.146439 
Q 685.788486 35.198252 684.78678 35.440043 
Q 683.785075 35.681834 683.301493 36.182687 
Q 682.81791 36.683539 682.472495 37.616162 
Q 682.127079 38.548785 682.127079 39.964989 
Q 682.127079 42.037484 683.543284 43.280981 
Q 684.959488 44.524478 686.893817 44.524478 
Q 689.553518 44.524478 692.316844 38.721493 
Q 693.663966 35.854542 693.663966 35.82 
Q 694.009382 35.578209 694.043923 36.441748 
Q 694.043923 37.512537 694.458422 40.362217 
Q 694.872921 43.211898 694.872921 44.524478 
" clip-path="url(#p702439cc94)" style="fill: none; stroke: #000000; stroke-linejoin: miter"/>
   </g>
  </g>
  <g id="axes_44"/>
  <g id="axes_45">
   <g id="patch_39">
    <path d="M 717.357228 37.244607 
Q 718.406938 37.207117 718.594386 37.132138 
Q 722.005945 37.132138 723.786703 39.212814 
Q 725.567462 41.29349 725.567462 44.780028 
Q 725.567462 47.704221 720.956234 47.704221 
Q 720.31891 47.704221 719.77531 47.591752 
Q 719.23171 47.479283 718.594386 47.254345 
Q 717.957062 47.029407 717.469697 46.916938 
L 716.232538 45.679779 
M 717.244759 25.435366 
L 717.244759 26.560055 
Q 717.244759 29.409269 717.357228 33.008276 
Q 717.469697 36.607283 717.657145 40.899848 
Q 717.844593 45.192414 717.919572 47.141876 
" clip-path="url(#pcbe03d7fa2)" style="fill: none; stroke: #000000; stroke-linejoin: miter"/>
   </g>
  </g>
  <g id="axes_46">
   <g id="patch_40">
    <path d="M 737.718579 29.071862 
Q 737.343683 29.146841 737.212469 29.577972 
Q 737.081255 30.009103 737.156234 30.42149 
Q 737.156234 30.571448 737.193724 30.702662 
Q 737.231214 30.833876 737.287448 30.89011 
Q 737.343683 30.946345 737.399917 31.040069 
Q 737.456152 31.133793 737.493641 31.208772 
L 737.60611 29.859145 
M 737.60611 34.020497 
Q 736.706359 39.006621 736.481421 42.793076 
L 736.931297 45.379862 
L 737.268703 46.054676 
" clip-path="url(#p3599ec8e27)" style="fill: none; stroke: #000000; stroke-linejoin: miter"/>
   </g>
  </g>
  <g id="axes_47">
   <g id="patch_41">
    <path d="M 748.463834 37.95691 
L 749.138648 37.95691 
Q 749.850952 37.95691 750.638234 37.881931 
Q 751.425517 37.806952 752.381503 37.675738 
Q 753.33749 37.544524 753.862345 37.507034 
L 758.136166 35.82 
M 754.087283 30.42149 
L 754.087283 31.43371 
Q 754.087283 33.383172 753.412469 37.207117 
Q 752.737655 41.031062 752.737655 43.018014 
Q 752.737655 43.805297 752.737655 44.105214 
Q 752.737655 44.405131 752.831379 45.042455 
Q 752.925103 45.679779 753.112552 45.960952 
Q 753.3 46.242124 753.693641 46.485807 
Q 754.087283 46.72949 754.649628 46.72949 
Q 754.762097 46.692 755.080759 46.72949 
Q 755.399421 46.766979 755.586869 46.710745 
Q 755.774317 46.65451 755.774317 46.392083 
" clip-path="url(#p3ffd95de38)" style="fill: none; stroke: #000000; stroke-linejoin: miter"/>
   </g>
  </g>
  <g id="axes_48">
   <g id="patch_42">
    <path d="M 763.257798 38.160826 
Q 766.230275 39.535596 770.949083 39.721376 
Q 772.472477 39.721376 773.159862 38.550963 
Q 773.847248 37.38055 773.847248 35.82 
Q 773.847248 35.299817 773.754358 34.909679 
Q 773.661468 34.519541 773.419954 34.296606 
Q 773.17844 34.07367 773.011239 33.943624 
Q 772.844037 33.813578 772.398165 33.757844 
Q 771.952294 33.70211 771.747936 33.683532 
Q 771.543578 33.664954 770.967661 33.683532 
Q 770.391743 33.70211 770.168807 33.70211 
Q 768.125229 33.70211 766.638991 35.578486 
Q 765.152752 37.454862 765.152752 39.609908 
Q 765.152752 42.619541 767.084862 44.570229 
Q 769.016972 46.520917 772.063761 46.520917 
Q 774.218807 46.818165 775.742202 44.29156 
" clip-path="url(#p559e99bb06)" style="fill: none; stroke: #000000; stroke-linejoin: miter"/>
   </g>
  </g>
  <g id="axes_49"/>
  <g id="axes_50">
   <g id="patch_43">
    <path d="M 802.518579 29.071862 
Q 802.143683 29.146841 802.012469 29.577972 
Q 801.881255 30.009103 801.956234 30.42149 
Q 801.956234 30.571448 801.993724 30.702662 
Q 802.031214 30.833876 802.087448 30.89011 
Q 802.143683 30.946345 802.199917 31.040069 
Q 802.256152 31.133793 802.293641 31.208772 
L 802.40611 29.859145 
M 802.40611 34.020497 
Q 801.506359 39.006621 801.281421 42.793076 
L 801.731297 45.379862 
L 802.068703 46.054676 
" clip-path="url(#p7e05000892)" style="fill: none; stroke: #000000; stroke-linejoin: miter"/>
   </g>
  </g>
  <g id="axes_51">
   <g id="patch_44">
    <path d="M 813.638731 37.282097 
L 813.638731 37.844441 
Q 813.901159 39.868883 813.938648 41.312234 
Q 813.976138 42.755586 813.882414 44.667559 
Q 813.78869 46.579531 813.78869 48.191586 
L 813.863669 39.643945 
Q 813.863669 38.144359 815.456979 37.507034 
Q 817.05029 36.86971 818.474897 37.282097 
Q 820.386869 37.844441 821.305366 39.04411 
Q 822.223862 40.243779 822.280097 41.668386 
Q 822.336331 43.092993 822.373821 44.817517 
Q 822.41131 46.542041 822.561269 48.191586 
" clip-path="url(#pbd0aeca208)" style="fill: none; stroke: #000000; stroke-linejoin: miter"/>
   </g>
  </g>
 </g>
 <defs>
  <clipPath id="pf917a9049a">
   <rect x="1.051945" y="8.64" width="14.09611" height="54.36"/>
  </clipPath>
  <clipPath id="p1828dcbca6">
   <rect x="21.806938" y="8.64" width="4.986124" height="54.36"/>
  </clipPath>
  <clipPath id="p0e24661127">
   <rect x="34.164248" y="8.64" width="12.671503" height="54.36"/>
  </clipPath>
  <clipPath id="pdd5bc18634">
   <rect x="48.6" y="8.881927" width="16.2" height="53.876147"/>
  </clipPath>
  <clipPath id="pd61afed1bb">
   <rect x="66.189352" y="8.64" width="13.421297" height="54.36"/>
  </clipPath>
  <clipPath id="ped144ae218">
   <rect x="82.389352" y="8.64" width="13.421297" height="54.36"/>
  </clipPath>
  <clipPath id="pe71f7e09a2">
   <rect x="97.2" y="8.881927" width="16.2" height="53.876147"/>
  </clipPath>
  <clipPath id="pf0be070f08">
   <rect x="118.800745" y="8.64" width="5.39851" height="54.36"/>
  </clipPath>
  <clipPath id="p722e4a038f">
   <rect x="146.402069" y="8.64" width="14.995862" height="54.36"/>
  </clipPath>
  <clipPath id="p5fa8561d59">
   <rect x="162.883241" y="8.64" width="14.433517" height="54.36"/>
  </clipPath>
  <clipPath id="p7bdda93a37">
   <rect x="179.083241" y="8.64" width="14.433517" height="54.36"/>
  </clipPath>
  <clipPath id="pe158eca97e">
   <rect x="195.002069" y="8.64" width="14.995862" height="54.36"/>
  </clipPath>
  <clipPath id="p6ccef84e0f">
   <rect x="212.382993" y="8.64" width="12.634014" height="54.36"/>
  </clipPath>
  <clipPath id="p0fcbdeb3f1">
   <rect x="232.406938" y="8.64" width="4.986124" height="54.36"/>
  </clipPath>
  <clipPath id="p53cfd19a23">
   <rect x="244.389352" y="8.64" width="13.421297" height="54.36"/>
  </clipPath>
  <clipPath id="p9e8d09dcf3">
   <rect x="259.2" y="8.881927" width="16.2" height="53.876147"/>
  </clipPath>
  <clipPath id="p0418f3e24c">
   <rect x="291.6" y="9.949956" width="16.2" height="51.740088"/>
  </clipPath>
  <clipPath id="pbdbd234b19">
   <rect x="309.564248" y="8.64" width="12.671503" height="54.36"/>
  </clipPath>
  <clipPath id="pb65812c287">
   <rect x="324" y="9.426742" width="16.2" height="52.786517"/>
  </clipPath>
  <clipPath id="pe0d699917d">
   <rect x="340.2" y="8.881927" width="16.2" height="53.876147"/>
  </clipPath>
  <clipPath id="pbd923c7b0d">
   <rect x="362.231876" y="8.64" width="4.536248" height="54.36"/>
  </clipPath>
  <clipPath id="p92e93f7a8c">
   <rect x="372.6" y="10.777356" width="16.2" height="50.085288"/>
  </clipPath>
  <clipPath id="p9d4e5f35c6">
   <rect x="394.200745" y="8.64" width="5.39851" height="54.36"/>
  </clipPath>
  <clipPath id="pac22087770">
   <rect x="421.2" y="12.969805" width="16.2" height="45.700389"/>
  </clipPath>
  <clipPath id="pfc4994e907">
   <rect x="438.789352" y="8.64" width="13.421297" height="54.36"/>
  </clipPath>
  <clipPath id="p558de5f5a7">
   <rect x="456.338979" y="8.64" width="10.722041" height="54.36"/>
  </clipPath>
  <clipPath id="p9365bac544">
   <rect x="471.189352" y="8.64" width="13.421297" height="54.36"/>
  </clipPath>
  <clipPath id="p6a38eb7a9e">
   <rect x="502.2" y="10.777356" width="16.2" height="50.085288"/>
  </clipPath>
  <clipPath id="p0f88e3db64">
   <rect x="524.231876" y="8.64" width="4.536248" height="54.36"/>
  </clipPath>
  <clipPath id="p709e667262">
   <rect x="534.6" y="9.603482" width="16.2" height="52.433036"/>
  </clipPath>
  <clipPath id="p65acb8bd9f">
   <rect x="551.402069" y="8.64" width="14.995862" height="54.36"/>
  </clipPath>
  <clipPath id="pb254eeaf31">
   <rect x="568.782993" y="8.64" width="12.634014" height="54.36"/>
  </clipPath>
  <clipPath id="p1e44554317">
   <rect x="584.589352" y="8.64" width="13.421297" height="54.36"/>
  </clipPath>
  <clipPath id="pc34481d075">
   <rect x="618.338979" y="8.64" width="10.722041" height="54.36"/>
  </clipPath>
  <clipPath id="pdb3a070e78">
   <rect x="631.8" y="10.777356" width="16.2" height="50.085288"/>
  </clipPath>
  <clipPath id="p32764fc6ea">
   <rect x="649.782993" y="8.64" width="12.634014" height="54.36"/>
  </clipPath>
  <clipPath id="p702439cc94">
   <rect x="680.4" y="10.777356" width="16.2" height="50.085288"/>
  </clipPath>
  <clipPath id="pcbe03d7fa2">
   <rect x="714.358055" y="8.64" width="13.08389" height="54.36"/>
  </clipPath>
  <clipPath id="p3599ec8e27">
   <rect x="734.606938" y="8.64" width="4.986124" height="54.36"/>
  </clipPath>
  <clipPath id="p3ffd95de38">
   <rect x="746.589352" y="8.64" width="13.421297" height="54.36"/>
  </clipPath>
  <clipPath id="p559e99bb06">
   <rect x="761.4" y="8.881927" width="16.2" height="53.876147"/>
  </clipPath>
  <clipPath id="p7e05000892">
   <rect x="799.406938" y="8.64" width="4.986124" height="54.36"/>
  </clipPath>
  <clipPath id="pbd0aeca208">
   <rect x="811.764248" y="8.64" width="12.671503" height="54.36"/>
  </clipPath>
 </defs>
</svg>
