<?xml version="1.0" encoding="utf-8" standalone="no"?>
<!DOCTYPE svg PUBLIC "-//W3C//DTD SVG 1.1//EN"
  "http://www.w3.org/Graphics/SVG/1.1/DTD/svg11.dtd">
<svg xmlns:xlink="http://www.w3.org/1999/xlink" width="918pt" height="72pt" viewBox="0 0 918 72" xmlns="http://www.w3.org/2000/svg" version="1.1">
 <metadata>
  <rdf:RDF xmlns:dc="http://purl.org/dc/elements/1.1/" xmlns:cc="http://creativecommons.org/ns#" xmlns:rdf="http://www.w3.org/1999/02/22-rdf-syntax-ns#">
   <cc:Work>
    <dc:type rdf:resource="http://purl.org/dc/dcmitype/StillImage"/>
    <dc:date>2023-12-21T12:07:41.444261</dc:date>
    <dc:format>image/svg+xml</dc:format>
    <dc:creator>
     <cc:Agent>
      <dc:title>Matplotlib v3.5.1, https://matplotlib.org/</dc:title>
     </cc:Agent>
    </dc:creator>
   </cc:Work>
  </rdf:RDF>
 </metadata>
 <defs>
  <style type="text/css">*{stroke-linejoin: round; stroke-linecap: butt}</style>
 </defs>
 <g id="figure_1">
  <g id="patch_1">
   <path d="M 0 72 
L 918 72 
L 918 0 
L 0 0 
z
" style="fill: #8fff9f"/>
  </g>
  <g id="axes_1">
   <g id="patch_2">
    <path d="M 1.716102 36.437797 
L 2.951695 44.778051 
Q 3.054661 45.567458 3.054661 45.60178 
Q 3.054661 45.704746 3.363559 45.704746 
Q 4.22161 45.704746 4.942373 44.778051 
Q 5.663136 43.851356 6.075 42.718729 
Q 6.486864 41.586102 7.001695 40.659407 
Q 7.516525 39.732712 7.997034 39.732712 
Q 8.614831 39.732712 9.249788 40.607924 
Q 9.884746 41.483136 10.348093 42.512797 
Q 10.811441 43.542458 11.48072 44.417669 
Q 12.15 45.292881 12.836441 45.292881 
Q 13.111017 43.782712 13.540042 39.69839 
Q 13.969068 35.614068 14.483898 33.554746 
" clip-path="url(#pa60ead5364)" style="fill: none; stroke: #000000; stroke-linejoin: miter"/>
   </g>
  </g>
  <g id="axes_2">
   <g id="patch_3">
    <path d="M 29.843923 36.441748 
Q 28.634968 35.094627 24.662687 35.094627 
Q 23.142857 35.094627 22.365672 35.146439 
Q 21.588486 35.198252 20.58678 35.440043 
Q 19.585075 35.681834 19.101493 36.182687 
Q 18.61791 36.683539 18.272495 37.616162 
Q 17.927079 38.548785 17.927079 39.964989 
Q 17.927079 42.037484 19.343284 43.280981 
Q 20.759488 44.524478 22.693817 44.524478 
Q 25.353518 44.524478 28.116844 38.721493 
Q 29.463966 35.854542 29.463966 35.82 
Q 29.809382 35.578209 29.843923 36.441748 
Q 29.843923 37.512537 30.258422 40.362217 
Q 30.672921 43.211898 30.672921 44.524478 
" clip-path="url(#p1a6a189477)" style="fill: none; stroke: #000000; stroke-linejoin: miter"/>
   </g>
  </g>
  <g id="axes_3">
   <g id="patch_4">
    <path d="M 36.038731 37.282097 
L 36.038731 37.844441 
Q 36.301159 39.868883 36.338648 41.312234 
Q 36.376138 42.755586 36.282414 44.667559 
Q 36.18869 46.579531 36.18869 48.191586 
L 36.263669 39.643945 
Q 36.263669 38.144359 37.856979 37.507034 
Q 39.45029 36.86971 40.874897 37.282097 
Q 42.786869 37.844441 43.705366 39.04411 
Q 44.623862 40.243779 44.680097 41.668386 
Q 44.736331 43.092993 44.773821 44.817517 
Q 44.81131 46.542041 44.961269 48.191586 
" clip-path="url(#p7967104ff8)" style="fill: none; stroke: #000000; stroke-linejoin: miter"/>
   </g>
  </g>
  <g id="axes_4">
   <g id="patch_5">
    <path d="M 51.863834 37.95691 
L 52.538648 37.95691 
Q 53.250952 37.95691 54.038234 37.881931 
Q 54.825517 37.806952 55.781503 37.675738 
Q 56.73749 37.544524 57.262345 37.507034 
L 61.536166 35.82 
M 57.487283 30.42149 
L 57.487283 31.43371 
Q 57.487283 33.383172 56.812469 37.207117 
Q 56.137655 41.031062 56.137655 43.018014 
Q 56.137655 43.805297 56.137655 44.105214 
Q 56.137655 44.405131 56.231379 45.042455 
Q 56.325103 45.679779 56.512552 45.960952 
Q 56.7 46.242124 57.093641 46.485807 
Q 57.487283 46.72949 58.049628 46.72949 
Q 58.162097 46.692 58.480759 46.72949 
Q 58.799421 46.766979 58.986869 46.710745 
Q 59.174317 46.65451 59.174317 46.392083 
" clip-path="url(#p70ee305f80)" style="fill: none; stroke: #000000; stroke-linejoin: miter"/>
   </g>
  </g>
  <g id="axes_5">
   <g id="patch_6">
    <path d="M 66.657798 38.160826 
Q 69.630275 39.535596 74.349083 39.721376 
Q 75.872477 39.721376 76.559862 38.550963 
Q 77.247248 37.38055 77.247248 35.82 
Q 77.247248 35.299817 77.154358 34.909679 
Q 77.061468 34.519541 76.819954 34.296606 
Q 76.57844 34.07367 76.411239 33.943624 
Q 76.244037 33.813578 75.798165 33.757844 
Q 75.352294 33.70211 75.147936 33.683532 
Q 74.943578 33.664954 74.367661 33.683532 
Q 73.791743 33.70211 73.568807 33.70211 
Q 71.525229 33.70211 70.038991 35.578486 
Q 68.552752 37.454862 68.552752 39.609908 
Q 68.552752 42.619541 70.484862 44.570229 
Q 72.416972 46.520917 75.463761 46.520917 
Q 77.618807 46.818165 79.142202 44.29156 
" clip-path="url(#pcf9fa90df4)" style="fill: none; stroke: #000000; stroke-linejoin: miter"/>
   </g>
  </g>
  <g id="axes_6">
   <g id="patch_7">
    <path d="M 92.699007 39.568966 
Q 91.349379 38.181848 89.1 38.444276 
Q 86.250786 38.444276 85.088607 39.793903 
Q 83.926428 41.143531 83.926428 44.067724 
Q 83.926428 45.56731 85.219821 46.279614 
Q 86.513214 46.991917 88.087779 46.991917 
Q 89.399917 46.991917 90.412138 45.736014 
Q 91.424359 44.48011 92.005448 42.30571 
Q 92.586538 40.13131 92.961434 37.938166 
Q 93.336331 35.745021 93.48629 33.045766 
Q 93.636248 30.34651 93.673738 28.978138 
Q 93.711228 27.609766 93.711228 26.185159 
Q 93.48629 26.260138 93.48629 29.896634 
L 93.48629 44.292662 
L 94.273572 48.229076 
" clip-path="url(#p870594a8fa)" style="fill: none; stroke: #000000; stroke-linejoin: miter"/>
   </g>
  </g>
  <g id="axes_7"/>
  <g id="axes_8">
   <g id="patch_8">
    <path d="M 116.663834 37.95691 
L 117.338648 37.95691 
Q 118.050952 37.95691 118.838234 37.881931 
Q 119.625517 37.806952 120.581503 37.675738 
Q 121.53749 37.544524 122.062345 37.507034 
L 126.336166 35.82 
M 122.287283 30.42149 
L 122.287283 31.43371 
Q 122.287283 33.383172 121.612469 37.207117 
Q 120.937655 41.031062 120.937655 43.018014 
Q 120.937655 43.805297 120.937655 44.105214 
Q 120.937655 44.405131 121.031379 45.042455 
Q 121.125103 45.679779 121.312552 45.960952 
Q 121.5 46.242124 121.893641 46.485807 
Q 122.287283 46.72949 122.849628 46.72949 
Q 122.962097 46.692 123.280759 46.72949 
Q 123.599421 46.766979 123.786869 46.710745 
Q 123.974317 46.65451 123.974317 46.392083 
" clip-path="url(#pf64dcfc9a1)" style="fill: none; stroke: #000000; stroke-linejoin: miter"/>
   </g>
  </g>
  <g id="axes_9">
   <g id="patch_9">
    <path d="M 140.9616 35.032717 
Q 139.91189 34.582841 138.937159 34.69531 
Q 135.900497 35.032717 133.988524 36.701007 
Q 132.076552 38.369297 132.076552 41.330979 
Q 132.076552 43.917766 134.082248 45.6048 
Q 136.087945 47.291834 138.712221 47.291834 
Q 141.074069 47.291834 142.198759 45.361117 
Q 143.323448 43.4304 143.323448 40.881103 
Q 143.323448 39.643945 142.911062 38.706703 
Q 142.498676 37.769462 141.973821 37.300841 
Q 141.448966 36.832221 140.699172 36.119917 
Q 139.949379 35.407614 139.499503 34.69531 
L 138.262345 34.245434 
" clip-path="url(#p7eafc5fd84)" style="fill: none; stroke: #000000; stroke-linejoin: miter"/>
   </g>
  </g>
  <g id="axes_10"/>
  <g id="axes_11">
   <g id="patch_10">
    <path d="M 165.657476 43.917766 
Q 165.957393 44.180193 166.969614 45.154924 
Q 167.981834 46.129655 168.544179 46.560786 
Q 169.106524 46.991917 170.13749 47.385559 
Q 171.168455 47.7792 172.180676 47.629241 
Q 172.85549 47.629241 173.32411 47.404303 
Q 173.792731 47.179366 174.017669 46.879448 
Q 174.242607 46.579531 174.373821 45.979697 
Q 174.505034 45.379862 174.523779 44.967476 
Q 174.542524 44.55509 174.542524 43.805297 
Q 174.542524 42.718097 173.642772 42.043283 
Q 172.743021 41.368469 171.449628 41.031062 
Q 170.156234 40.693655 168.862841 40.300014 
Q 167.569448 39.906372 166.669697 38.987876 
Q 165.769945 38.069379 165.769945 36.607283 
Q 165.769945 36.082428 165.938648 35.726276 
Q 166.107352 35.370124 166.500993 35.145186 
Q 166.894634 34.920248 167.175807 34.807779 
Q 167.456979 34.69531 168.113048 34.639076 
Q 168.769117 34.582841 168.956566 34.582841 
Q 169.144014 34.582841 169.818828 34.582841 
Q 171.018497 34.582841 171.599586 34.995228 
Q 172.180676 35.407614 172.499338 36.026193 
Q 172.818 36.644772 173.080428 36.832221 
" clip-path="url(#p473d8f62e9)" style="fill: none; stroke: #000000; stroke-linejoin: miter"/>
   </g>
  </g>
  <g id="axes_12">
   <g id="patch_11">
    <path d="M 191.843923 36.441748 
Q 190.634968 35.094627 186.662687 35.094627 
Q 185.142857 35.094627 184.365672 35.146439 
Q 183.588486 35.198252 182.58678 35.440043 
Q 181.585075 35.681834 181.101493 36.182687 
Q 180.61791 36.683539 180.272495 37.616162 
Q 179.927079 38.548785 179.927079 39.964989 
Q 179.927079 42.037484 181.343284 43.280981 
Q 182.759488 44.524478 184.693817 44.524478 
Q 187.353518 44.524478 190.116844 38.721493 
Q 191.463966 35.854542 191.463966 35.82 
Q 191.809382 35.578209 191.843923 36.441748 
Q 191.843923 37.512537 192.258422 40.362217 
Q 192.672921 43.211898 192.672921 44.524478 
" clip-path="url(#p0f980eda54)" style="fill: none; stroke: #000000; stroke-linejoin: miter"/>
   </g>
  </g>
  <g id="axes_13">
   <g id="patch_12">
    <path d="M 197.363917 36.382345 
Q 197.326428 36.494814 197.457641 36.701007 
Q 197.588855 36.9072 197.476386 37.057159 
L 197.476386 39.306538 
Q 197.476386 40.506207 197.813793 41.724621 
Q 198.1512 42.943034 199.013462 43.93651 
Q 199.875724 44.929986 201.075393 44.929986 
Q 202.312552 44.929986 202.987366 43.861531 
Q 203.662179 42.793076 204.112055 41.143531 
Q 204.561931 39.493986 204.899338 38.969131 
L 205.686621 36.382345 
L 205.461683 42.680607 
L 205.461683 45.154924 
Q 205.461683 47.066897 206.192731 51.00331 
Q 206.923779 54.939724 206.923779 56.964166 
Q 207.673572 59.213545 206.586372 60.188276 
Q 205.499172 61.163007 203.437241 60.78811 
Q 201.637738 60.488193 200.719241 60.169531 
Q 199.800745 59.850869 197.813793 58.988607 
L 197.701324 58.426262 
" clip-path="url(#pf68e7eec3e)" style="fill: none; stroke: #000000; stroke-linejoin: miter"/>
   </g>
  </g>
  <g id="axes_14"/>
  <g id="axes_15">
   <g id="patch_13">
    <path d="M 234.825021 26.147669 
Q 234.787531 26.597545 234.825021 27.384828 
Q 234.86251 27.572276 234.806276 27.965917 
Q 234.750041 28.359559 234.787531 28.678221 
Q 234.825021 28.996883 235.049959 29.184331 
" clip-path="url(#p107bb58044)" style="fill: none; stroke: #000000; stroke-linejoin: miter"/>
   </g>
  </g>
  <g id="axes_16">
   <g id="patch_14">
    <path d="M 247.613462 35.932469 
Q 248.213297 35.257655 249.206772 34.826524 
Q 250.200248 34.395393 251.1 34.470372 
Q 251.737324 34.470372 252.22469 34.639076 
Q 252.712055 34.807779 253.030717 34.995228 
Q 253.349379 35.182676 253.574317 35.670041 
Q 253.799255 36.157407 253.911724 36.419834 
Q 254.024193 36.682262 254.080428 37.375821 
Q 254.136662 38.069379 254.155407 38.331807 
Q 254.174152 38.594234 254.155407 39.419007 
Q 254.136662 40.243779 254.136662 40.431228 
Q 254.136662 41.368469 253.967959 43.242952 
Q 253.799255 45.117434 253.799255 46.054676 
Q 253.799255 46.467062 253.85549 46.823214 
Q 253.911724 47.179366 254.005448 47.610497 
Q 254.099172 48.041628 254.136662 48.304055 
L 254.586538 48.528993 
M 248.063338 23.111007 
Q 248.288276 24.798041 248.288276 29.971614 
L 248.288276 42.3432 
L 247.950869 46.841959 
L 247.725931 47.74171 
" clip-path="url(#p96f8ca5e9c)" style="fill: none; stroke: #000000; stroke-linejoin: miter"/>
   </g>
  </g>
  <g id="axes_17">
   <g id="patch_15">
    <path d="M 267.918579 29.071862 
Q 267.543683 29.146841 267.412469 29.577972 
Q 267.281255 30.009103 267.356234 30.42149 
Q 267.356234 30.571448 267.393724 30.702662 
Q 267.431214 30.833876 267.487448 30.89011 
Q 267.543683 30.946345 267.599917 31.040069 
Q 267.656152 31.133793 267.693641 31.208772 
L 267.80611 29.859145 
M 267.80611 34.020497 
Q 266.906359 39.006621 266.681421 42.793076 
L 267.131297 45.379862 
L 267.468703 46.054676 
" clip-path="url(#p44800a4c05)" style="fill: none; stroke: #000000; stroke-linejoin: miter"/>
   </g>
  </g>
  <g id="axes_18">
   <g id="patch_16">
    <path d="M 283.425021 26.147669 
Q 283.387531 26.597545 283.425021 27.384828 
Q 283.46251 27.572276 283.406276 27.965917 
Q 283.350041 28.359559 283.387531 28.678221 
Q 283.425021 28.996883 283.649959 29.184331 
" clip-path="url(#pfe6be0b49a)" style="fill: none; stroke: #000000; stroke-linejoin: miter"/>
   </g>
  </g>
  <g id="axes_19">
   <g id="patch_17">
    <path d="M 299.11891 38.669214 
Q 299.11891 38.631724 299.006441 38.612979 
Q 298.893972 38.594234 298.893972 38.519255 
Q 298.893972 38.144359 299.606276 38.144359 
Q 300.506028 38.144359 300.506028 40.056331 
Q 300.506028 40.093821 300.28109 41.256 
L 299.493807 43.242952 
M 299.456317 33.795559 
Q 299.306359 33.795559 299.306359 34.057986 
Q 299.306359 34.320414 299.531297 34.320414 
Q 299.831214 34.320414 299.868703 34.020497 
Q 299.868703 33.945517 299.868703 33.908028 
Q 299.906193 33.6456 299.868703 33.570621 
Q 299.831214 33.495641 299.568786 33.308193 
" clip-path="url(#p8908a5a8e3)" style="fill: none; stroke: #000000; stroke-linejoin: miter"/>
   </g>
  </g>
  <g id="axes_20"/>
  <g id="axes_21">
   <g id="patch_18">
    <path d="M 332.718579 29.071862 
Q 332.343683 29.146841 332.212469 29.577972 
Q 332.081255 30.009103 332.156234 30.42149 
Q 332.156234 30.571448 332.193724 30.702662 
Q 332.231214 30.833876 332.287448 30.89011 
Q 332.343683 30.946345 332.399917 31.040069 
Q 332.456152 31.133793 332.493641 31.208772 
L 332.60611 29.859145 
M 332.60611 34.020497 
Q 331.706359 39.006621 331.481421 42.793076 
L 331.931297 45.379862 
L 332.268703 46.054676 
" clip-path="url(#pbba4d3e126)" style="fill: none; stroke: #000000; stroke-linejoin: miter"/>
   </g>
  </g>
  <g id="axes_22">
   <g id="patch_19">
    <path d="M 343.463834 37.95691 
L 344.138648 37.95691 
Q 344.850952 37.95691 345.638234 37.881931 
Q 346.425517 37.806952 347.381503 37.675738 
Q 348.33749 37.544524 348.862345 37.507034 
L 353.136166 35.82 
M 349.087283 30.42149 
L 349.087283 31.43371 
Q 349.087283 33.383172 348.412469 37.207117 
Q 347.737655 41.031062 347.737655 43.018014 
Q 347.737655 43.805297 347.737655 44.105214 
Q 347.737655 44.405131 347.831379 45.042455 
Q 347.925103 45.679779 348.112552 45.960952 
Q 348.3 46.242124 348.693641 46.485807 
Q 349.087283 46.72949 349.649628 46.72949 
Q 349.762097 46.692 350.080759 46.72949 
Q 350.399421 46.766979 350.586869 46.710745 
Q 350.774317 46.65451 350.774317 46.392083 
" clip-path="url(#p3d4a23df63)" style="fill: none; stroke: #000000; stroke-linejoin: miter"/>
   </g>
  </g>
  <g id="axes_23"/>
  <g id="axes_24">
   <g id="patch_20">
    <path d="M 380.306359 28.621986 
Q 380.531297 30.34651 380.606276 32.146014 
Q 380.681255 33.945517 380.66251 36.551048 
Q 380.643766 39.156579 380.643766 40.093821 
Q 380.643766 40.13131 380.868703 45.829738 
L 381.093641 46.841959 
" clip-path="url(#pae672c425c)" style="fill: none; stroke: #000000; stroke-linejoin: miter"/>
   </g>
  </g>
  <g id="axes_25">
   <g id="patch_21">
    <path d="M 400.1616 35.032717 
Q 399.11189 34.582841 398.137159 34.69531 
Q 395.100497 35.032717 393.188524 36.701007 
Q 391.276552 38.369297 391.276552 41.330979 
Q 391.276552 43.917766 393.282248 45.6048 
Q 395.287945 47.291834 397.912221 47.291834 
Q 400.274069 47.291834 401.398759 45.361117 
Q 402.523448 43.4304 402.523448 40.881103 
Q 402.523448 39.643945 402.111062 38.706703 
Q 401.698676 37.769462 401.173821 37.300841 
Q 400.648966 36.832221 399.899172 36.119917 
Q 399.149379 35.407614 398.699503 34.69531 
L 397.462345 34.245434 
" clip-path="url(#p368d8d537c)" style="fill: none; stroke: #000000; stroke-linejoin: miter"/>
   </g>
  </g>
  <g id="axes_26">
   <g id="patch_22">
    <path d="M 416.3616 35.032717 
Q 415.31189 34.582841 414.337159 34.69531 
Q 411.300497 35.032717 409.388524 36.701007 
Q 407.476552 38.369297 407.476552 41.330979 
Q 407.476552 43.917766 409.482248 45.6048 
Q 411.487945 47.291834 414.112221 47.291834 
Q 416.474069 47.291834 417.598759 45.361117 
Q 418.723448 43.4304 418.723448 40.881103 
Q 418.723448 39.643945 418.311062 38.706703 
Q 417.898676 37.769462 417.373821 37.300841 
Q 416.848966 36.832221 416.099172 36.119917 
Q 415.349379 35.407614 414.899503 34.69531 
L 413.662345 34.245434 
" clip-path="url(#pfd71e5718b)" style="fill: none; stroke: #000000; stroke-linejoin: miter"/>
   </g>
  </g>
  <g id="axes_27">
   <g id="patch_23">
    <path d="M 427.331793 37.169628 
Q 429.356234 39.194069 431.118248 41.76211 
Q 432.880262 44.330152 433.742524 46.72949 
M 430.368455 31.321241 
L 430.368455 31.546179 
Q 430.368455 32.333462 429.731131 33.514386 
Q 429.093807 34.69531 428.119076 36.101172 
Q 427.144345 37.507034 426.881917 37.95691 
L 425.644759 39.643945 
M 424.857476 26.710014 
Q 426.694469 36.269876 426.881917 48.641462 
" clip-path="url(#p2930e0af52)" style="fill: none; stroke: #000000; stroke-linejoin: miter"/>
   </g>
  </g>
  <g id="axes_28">
   <g id="patch_24">
    <path d="M 441.057476 43.917766 
Q 441.357393 44.180193 442.369614 45.154924 
Q 443.381834 46.129655 443.944179 46.560786 
Q 444.506524 46.991917 445.53749 47.385559 
Q 446.568455 47.7792 447.580676 47.629241 
Q 448.25549 47.629241 448.72411 47.404303 
Q 449.192731 47.179366 449.417669 46.879448 
Q 449.642607 46.579531 449.773821 45.979697 
Q 449.905034 45.379862 449.923779 44.967476 
Q 449.942524 44.55509 449.942524 43.805297 
Q 449.942524 42.718097 449.042772 42.043283 
Q 448.143021 41.368469 446.849628 41.031062 
Q 445.556234 40.693655 444.262841 40.300014 
Q 442.969448 39.906372 442.069697 38.987876 
Q 441.169945 38.069379 441.169945 36.607283 
Q 441.169945 36.082428 441.338648 35.726276 
Q 441.507352 35.370124 441.900993 35.145186 
Q 442.294634 34.920248 442.575807 34.807779 
Q 442.856979 34.69531 443.513048 34.639076 
Q 444.169117 34.582841 444.356566 34.582841 
Q 444.544014 34.582841 445.218828 34.582841 
Q 446.418497 34.582841 446.999586 34.995228 
Q 447.580676 35.407614 447.899338 36.026193 
Q 448.218 36.644772 448.480428 36.832221 
" clip-path="url(#pbb4a54303c)" style="fill: none; stroke: #000000; stroke-linejoin: miter"/>
   </g>
  </g>
  <g id="axes_29"/>
  <g id="axes_30">
   <g id="patch_25">
    <path d="M 483.443923 36.441748 
Q 482.234968 35.094627 478.262687 35.094627 
Q 476.742857 35.094627 475.965672 35.146439 
Q 475.188486 35.198252 474.18678 35.440043 
Q 473.185075 35.681834 472.701493 36.182687 
Q 472.21791 36.683539 471.872495 37.616162 
Q 471.527079 38.548785 471.527079 39.964989 
Q 471.527079 42.037484 472.943284 43.280981 
Q 474.359488 44.524478 476.293817 44.524478 
Q 478.953518 44.524478 481.716844 38.721493 
Q 483.063966 35.854542 483.063966 35.82 
Q 483.409382 35.578209 483.443923 36.441748 
Q 483.443923 37.512537 483.858422 40.362217 
Q 484.272921 43.211898 484.272921 44.524478 
" clip-path="url(#p7e829b95b5)" style="fill: none; stroke: #000000; stroke-linejoin: miter"/>
   </g>
  </g>
  <g id="axes_31">
   <g id="patch_26">
    <path d="M 489.657476 43.917766 
Q 489.957393 44.180193 490.969614 45.154924 
Q 491.981834 46.129655 492.544179 46.560786 
Q 493.106524 46.991917 494.13749 47.385559 
Q 495.168455 47.7792 496.180676 47.629241 
Q 496.85549 47.629241 497.32411 47.404303 
Q 497.792731 47.179366 498.017669 46.879448 
Q 498.242607 46.579531 498.373821 45.979697 
Q 498.505034 45.379862 498.523779 44.967476 
Q 498.542524 44.55509 498.542524 43.805297 
Q 498.542524 42.718097 497.642772 42.043283 
Q 496.743021 41.368469 495.449628 41.031062 
Q 494.156234 40.693655 492.862841 40.300014 
Q 491.569448 39.906372 490.669697 38.987876 
Q 489.769945 38.069379 489.769945 36.607283 
Q 489.769945 36.082428 489.938648 35.726276 
Q 490.107352 35.370124 490.500993 35.145186 
Q 490.894634 34.920248 491.175807 34.807779 
Q 491.456979 34.69531 492.113048 34.639076 
Q 492.769117 34.582841 492.956566 34.582841 
Q 493.144014 34.582841 493.818828 34.582841 
Q 495.018497 34.582841 495.599586 34.995228 
Q 496.180676 35.407614 496.499338 36.026193 
Q 496.818 36.644772 497.080428 36.832221 
" clip-path="url(#p2b8ca3a4bd)" style="fill: none; stroke: #000000; stroke-linejoin: miter"/>
   </g>
  </g>
  <g id="axes_32"/>
  <g id="axes_33">
   <g id="patch_27">
    <path d="M 521.663834 37.95691 
L 522.338648 37.95691 
Q 523.050952 37.95691 523.838234 37.881931 
Q 524.625517 37.806952 525.581503 37.675738 
Q 526.53749 37.544524 527.062345 37.507034 
L 531.336166 35.82 
M 527.287283 30.42149 
L 527.287283 31.43371 
Q 527.287283 33.383172 526.612469 37.207117 
Q 525.937655 41.031062 525.937655 43.018014 
Q 525.937655 43.805297 525.937655 44.105214 
Q 525.937655 44.405131 526.031379 45.042455 
Q 526.125103 45.679779 526.312552 45.960952 
Q 526.5 46.242124 526.893641 46.485807 
Q 527.287283 46.72949 527.849628 46.72949 
Q 527.962097 46.692 528.280759 46.72949 
Q 528.599421 46.766979 528.786869 46.710745 
Q 528.974317 46.65451 528.974317 46.392083 
" clip-path="url(#pa624bec28e)" style="fill: none; stroke: #000000; stroke-linejoin: miter"/>
   </g>
  </g>
  <g id="axes_34">
   <g id="patch_28">
    <path d="M 539.213462 35.932469 
Q 539.813297 35.257655 540.806772 34.826524 
Q 541.800248 34.395393 542.7 34.470372 
Q 543.337324 34.470372 543.82469 34.639076 
Q 544.312055 34.807779 544.630717 34.995228 
Q 544.949379 35.182676 545.174317 35.670041 
Q 545.399255 36.157407 545.511724 36.419834 
Q 545.624193 36.682262 545.680428 37.375821 
Q 545.736662 38.069379 545.755407 38.331807 
Q 545.774152 38.594234 545.755407 39.419007 
Q 545.736662 40.243779 545.736662 40.431228 
Q 545.736662 41.368469 545.567959 43.242952 
Q 545.399255 45.117434 545.399255 46.054676 
Q 545.399255 46.467062 545.45549 46.823214 
Q 545.511724 47.179366 545.605448 47.610497 
Q 545.699172 48.041628 545.736662 48.304055 
L 546.186538 48.528993 
M 539.663338 23.111007 
Q 539.888276 24.798041 539.888276 29.971614 
L 539.888276 42.3432 
L 539.550869 46.841959 
L 539.325931 47.74171 
" clip-path="url(#p55f1a654a2)" style="fill: none; stroke: #000000; stroke-linejoin: miter"/>
   </g>
  </g>
  <g id="axes_35">
   <g id="patch_29">
    <path d="M 562.1616 35.032717 
Q 561.11189 34.582841 560.137159 34.69531 
Q 557.100497 35.032717 555.188524 36.701007 
Q 553.276552 38.369297 553.276552 41.330979 
Q 553.276552 43.917766 555.282248 45.6048 
Q 557.287945 47.291834 559.912221 47.291834 
Q 562.274069 47.291834 563.398759 45.361117 
Q 564.523448 43.4304 564.523448 40.881103 
Q 564.523448 39.643945 564.111062 38.706703 
Q 563.698676 37.769462 563.173821 37.300841 
Q 562.648966 36.832221 561.899172 36.119917 
Q 561.149379 35.407614 560.699503 34.69531 
L 559.462345 34.245434 
" clip-path="url(#pe4225bc64b)" style="fill: none; stroke: #000000; stroke-linejoin: miter"/>
   </g>
  </g>
  <g id="axes_36">
   <g id="patch_30">
    <path d="M 570.488772 35.145186 
Q 570.488772 35.145186 570.488772 35.595062 
Q 570.488772 36.269876 570.376303 37.619503 
Q 570.263834 38.969131 570.263834 39.643945 
Q 570.263834 41.930814 571.500993 43.599103 
Q 572.738152 45.267393 574.875062 45.267393 
Q 576.262179 45.154924 577.030717 43.917766 
Q 577.799255 42.680607 577.949214 41.237255 
Q 578.099172 39.793903 578.3616 37.9944 
Q 578.624028 36.194897 579.036414 35.370124 
Q 579.186372 35.070207 579.186372 35.670041 
Q 579.186372 36.269876 578.923945 38.706703 
Q 578.699007 41.031062 578.699007 41.555917 
Q 578.549048 42.643117 578.886455 43.767807 
Q 579.223862 44.892497 579.936166 45.6048 
" clip-path="url(#p88b1b180e1)" style="fill: none; stroke: #000000; stroke-linejoin: miter"/>
   </g>
  </g>
  <g id="axes_37">
   <g id="patch_31">
    <path d="M 596.087191 39.096404 
Q 595.83236 39.023596 594.86764 38.623146 
Q 593.902921 38.222697 593.24764 38.077079 
Q 592.59236 37.931461 591.937079 38.00427 
Q 589.315955 38.00427 587.677753 40.388764 
Q 586.039551 42.773258 586.039551 45.430787 
Q 586.039551 47.068989 591.281798 47.068989 
Q 592.847191 47.068989 594.175955 45.558202 
Q 595.504719 44.047416 596.178202 42.172584 
Q 596.851685 40.297753 596.851685 38.768764 
Q 596.851685 37.27618 596.815281 36.984944 
L 596.742472 38.077079 
Q 596.742472 38.550337 596.742472 38.987191 
Q 596.778876 40.188539 596.979101 42.281798 
Q 597.179326 44.375056 597.343146 46.049663 
Q 597.506966 47.72427 597.543371 49.872135 
Q 597.579775 52.02 597.415955 53.658202 
Q 597.252135 55.296404 596.687865 56.971011 
Q 596.123596 58.645618 595.195281 59.737753 
Q 594.266966 60.829888 592.665169 61.521573 
Q 591.063371 62.213258 588.915506 62.213258 
Q 587.277303 62.213258 586.185169 61.466966 
Q 585.093034 60.720674 585.093034 59.155281 
Q 585.020225 58.936854 585.056629 58.936854 
Q 585.093034 58.936854 585.202247 58.936854 
Q 585.311461 58.936854 585.311461 58.82764 
" clip-path="url(#pa6af17cb32)" style="fill: none; stroke: #000000; stroke-linejoin: miter"/>
   </g>
  </g>
  <g id="axes_38">
   <g id="patch_32">
    <path d="M 604.013462 35.932469 
Q 604.613297 35.257655 605.606772 34.826524 
Q 606.600248 34.395393 607.5 34.470372 
Q 608.137324 34.470372 608.62469 34.639076 
Q 609.112055 34.807779 609.430717 34.995228 
Q 609.749379 35.182676 609.974317 35.670041 
Q 610.199255 36.157407 610.311724 36.419834 
Q 610.424193 36.682262 610.480428 37.375821 
Q 610.536662 38.069379 610.555407 38.331807 
Q 610.574152 38.594234 610.555407 39.419007 
Q 610.536662 40.243779 610.536662 40.431228 
Q 610.536662 41.368469 610.367959 43.242952 
Q 610.199255 45.117434 610.199255 46.054676 
Q 610.199255 46.467062 610.25549 46.823214 
Q 610.311724 47.179366 610.405448 47.610497 
Q 610.499172 48.041628 610.536662 48.304055 
L 610.986538 48.528993 
M 604.463338 23.111007 
Q 604.688276 24.798041 604.688276 29.971614 
L 604.688276 42.3432 
L 604.350869 46.841959 
L 604.125931 47.74171 
" clip-path="url(#pa0e79d4c8c)" style="fill: none; stroke: #000000; stroke-linejoin: miter"/>
   </g>
  </g>
  <g id="axes_39"/>
  <g id="axes_40">
   <g id="patch_33">
    <path d="M 633.516102 36.437797 
L 634.751695 44.778051 
Q 634.854661 45.567458 634.854661 45.60178 
Q 634.854661 45.704746 635.163559 45.704746 
Q 636.02161 45.704746 636.742373 44.778051 
Q 637.463136 43.851356 637.875 42.718729 
Q 638.286864 41.586102 638.801695 40.659407 
Q 639.316525 39.732712 639.797034 39.732712 
Q 640.414831 39.732712 641.049788 40.607924 
Q 641.684746 41.483136 642.148093 42.512797 
Q 642.611441 43.542458 643.28072 44.417669 
Q 643.95 45.292881 644.636441 45.292881 
Q 644.911017 43.782712 645.340042 39.69839 
Q 645.769068 35.614068 646.283898 33.554746 
" clip-path="url(#pac04d36f18)" style="fill: none; stroke: #000000; stroke-linejoin: miter"/>
   </g>
  </g>
  <g id="axes_41">
   <g id="patch_34">
    <path d="M 649.857798 38.160826 
Q 652.830275 39.535596 657.549083 39.721376 
Q 659.072477 39.721376 659.759862 38.550963 
Q 660.447248 37.38055 660.447248 35.82 
Q 660.447248 35.299817 660.354358 34.909679 
Q 660.261468 34.519541 660.019954 34.296606 
Q 659.77844 34.07367 659.611239 33.943624 
Q 659.444037 33.813578 658.998165 33.757844 
Q 658.552294 33.70211 658.347936 33.683532 
Q 658.143578 33.664954 657.567661 33.683532 
Q 656.991743 33.70211 656.768807 33.70211 
Q 654.725229 33.70211 653.238991 35.578486 
Q 651.752752 37.454862 651.752752 39.609908 
Q 651.752752 42.619541 653.684862 44.570229 
Q 655.616972 46.520917 658.663761 46.520917 
Q 660.818807 46.818165 662.342202 44.29156 
" clip-path="url(#pe78050a8ce)" style="fill: none; stroke: #000000; stroke-linejoin: miter"/>
   </g>
  </g>
  <g id="axes_42">
   <g id="patch_35">
    <path d="M 672.225021 26.147669 
Q 672.187531 26.597545 672.225021 27.384828 
Q 672.26251 27.572276 672.206276 27.965917 
Q 672.150041 28.359559 672.187531 28.678221 
Q 672.225021 28.996883 672.449959 29.184331 
" clip-path="url(#p9e668e907b)" style="fill: none; stroke: #000000; stroke-linejoin: miter"/>
   </g>
  </g>
  <g id="axes_43">
   <g id="patch_36">
    <path d="M 685.013462 32.783338 
Q 685.538317 34.507862 685.669531 36.457324 
Q 685.800745 38.406786 685.725766 40.956083 
Q 685.650786 43.505379 685.688276 44.705048 
L 685.800745 46.054676 
L 685.800745 45.829738 
Q 685.800745 44.667559 685.519572 42.30571 
Q 685.2384 39.943862 685.2384 38.744193 
Q 685.2384 36.419834 686.250621 34.882759 
Q 687.262841 33.345683 689.287283 33.345683 
Q 689.999586 33.345683 690.336993 33.626855 
Q 690.6744 33.908028 690.936828 34.432883 
Q 691.199255 34.957738 691.536662 35.257655 
L 691.986538 36.832221 
" clip-path="url(#p54e2f9bb08)" style="fill: none; stroke: #000000; stroke-linejoin: miter"/>
   </g>
  </g>
  <g id="axes_44">
   <g id="patch_37">
    <path d="M 698.457798 38.160826 
Q 701.430275 39.535596 706.149083 39.721376 
Q 707.672477 39.721376 708.359862 38.550963 
Q 709.047248 37.38055 709.047248 35.82 
Q 709.047248 35.299817 708.954358 34.909679 
Q 708.861468 34.519541 708.619954 34.296606 
Q 708.37844 34.07367 708.211239 33.943624 
Q 708.044037 33.813578 707.598165 33.757844 
Q 707.152294 33.70211 706.947936 33.683532 
Q 706.743578 33.664954 706.167661 33.683532 
Q 705.591743 33.70211 705.368807 33.70211 
Q 703.325229 33.70211 701.838991 35.578486 
Q 700.352752 37.454862 700.352752 39.609908 
Q 700.352752 42.619541 702.284862 44.570229 
Q 704.216972 46.520917 707.263761 46.520917 
Q 709.418807 46.818165 710.942202 44.29156 
" clip-path="url(#p27fd52fe9c)" style="fill: none; stroke: #000000; stroke-linejoin: miter"/>
   </g>
  </g>
  <g id="axes_45"/>
  <g id="axes_46">
   <g id="patch_38">
    <path d="M 732.638731 37.282097 
L 732.638731 37.844441 
Q 732.901159 39.868883 732.938648 41.312234 
Q 732.976138 42.755586 732.882414 44.667559 
Q 732.78869 46.579531 732.78869 48.191586 
L 732.863669 39.643945 
Q 732.863669 38.144359 734.456979 37.507034 
Q 736.05029 36.86971 737.474897 37.282097 
Q 739.386869 37.844441 740.305366 39.04411 
Q 741.223862 40.243779 741.280097 41.668386 
Q 741.336331 43.092993 741.373821 44.817517 
Q 741.41131 46.542041 741.561269 48.191586 
" clip-path="url(#pef6d6b12fb)" style="fill: none; stroke: #000000; stroke-linejoin: miter"/>
   </g>
  </g>
  <g id="axes_47">
   <g id="patch_39">
    <path d="M 747.057798 38.160826 
Q 750.030275 39.535596 754.749083 39.721376 
Q 756.272477 39.721376 756.959862 38.550963 
Q 757.647248 37.38055 757.647248 35.82 
Q 757.647248 35.299817 757.554358 34.909679 
Q 757.461468 34.519541 757.219954 34.296606 
Q 756.97844 34.07367 756.811239 33.943624 
Q 756.644037 33.813578 756.198165 33.757844 
Q 755.752294 33.70211 755.547936 33.683532 
Q 755.343578 33.664954 754.767661 33.683532 
Q 754.191743 33.70211 753.968807 33.70211 
Q 751.925229 33.70211 750.438991 35.578486 
Q 748.952752 37.454862 748.952752 39.609908 
Q 748.952752 42.619541 750.884862 44.570229 
Q 752.816972 46.520917 755.863761 46.520917 
Q 758.018807 46.818165 759.542202 44.29156 
" clip-path="url(#p5254cba145)" style="fill: none; stroke: #000000; stroke-linejoin: miter"/>
   </g>
  </g>
  <g id="axes_48">
   <g id="patch_40">
    <path d="M 770.118579 29.071862 
Q 769.743683 29.146841 769.612469 29.577972 
Q 769.481255 30.009103 769.556234 30.42149 
Q 769.556234 30.571448 769.593724 30.702662 
Q 769.631214 30.833876 769.687448 30.89011 
Q 769.743683 30.946345 769.799917 31.040069 
Q 769.856152 31.133793 769.893641 31.208772 
L 770.00611 29.859145 
M 770.00611 34.020497 
Q 769.106359 39.006621 768.881421 42.793076 
L 769.331297 45.379862 
L 769.668703 46.054676 
" clip-path="url(#p933dd85c7d)" style="fill: none; stroke: #000000; stroke-linejoin: miter"/>
   </g>
  </g>
  <g id="axes_49">
   <g id="patch_41">
    <path d="M 790.487191 39.096404 
Q 790.23236 39.023596 789.26764 38.623146 
Q 788.302921 38.222697 787.64764 38.077079 
Q 786.99236 37.931461 786.337079 38.00427 
Q 783.715955 38.00427 782.077753 40.388764 
Q 780.439551 42.773258 780.439551 45.430787 
Q 780.439551 47.068989 785.681798 47.068989 
Q 787.247191 47.068989 788.575955 45.558202 
Q 789.904719 44.047416 790.578202 42.172584 
Q 791.251685 40.297753 791.251685 38.768764 
Q 791.251685 37.27618 791.215281 36.984944 
L 791.142472 38.077079 
Q 791.142472 38.550337 791.142472 38.987191 
Q 791.178876 40.188539 791.379101 42.281798 
Q 791.579326 44.375056 791.743146 46.049663 
Q 791.906966 47.72427 791.943371 49.872135 
Q 791.979775 52.02 791.815955 53.658202 
Q 791.652135 55.296404 791.087865 56.971011 
Q 790.523596 58.645618 789.595281 59.737753 
Q 788.666966 60.829888 787.065169 61.521573 
Q 785.463371 62.213258 783.315506 62.213258 
Q 781.677303 62.213258 780.585169 61.466966 
Q 779.493034 60.720674 779.493034 59.155281 
Q 779.420225 58.936854 779.456629 58.936854 
Q 779.493034 58.936854 779.602247 58.936854 
Q 779.711461 58.936854 779.711461 58.82764 
" clip-path="url(#p431c670326)" style="fill: none; stroke: #000000; stroke-linejoin: miter"/>
   </g>
  </g>
  <g id="axes_50">
   <g id="patch_42">
    <path d="M 798.413462 35.932469 
Q 799.013297 35.257655 800.006772 34.826524 
Q 801.000248 34.395393 801.9 34.470372 
Q 802.537324 34.470372 803.02469 34.639076 
Q 803.512055 34.807779 803.830717 34.995228 
Q 804.149379 35.182676 804.374317 35.670041 
Q 804.599255 36.157407 804.711724 36.419834 
Q 804.824193 36.682262 804.880428 37.375821 
Q 804.936662 38.069379 804.955407 38.331807 
Q 804.974152 38.594234 804.955407 39.419007 
Q 804.936662 40.243779 804.936662 40.431228 
Q 804.936662 41.368469 804.767959 43.242952 
Q 804.599255 45.117434 804.599255 46.054676 
Q 804.599255 46.467062 804.65549 46.823214 
Q 804.711724 47.179366 804.805448 47.610497 
Q 804.899172 48.041628 804.936662 48.304055 
L 805.386538 48.528993 
M 798.863338 23.111007 
Q 799.088276 24.798041 799.088276 29.971614 
L 799.088276 42.3432 
L 798.750869 46.841959 
L 798.525931 47.74171 
" clip-path="url(#p8c9c51d273)" style="fill: none; stroke: #000000; stroke-linejoin: miter"/>
   </g>
  </g>
  <g id="axes_51">
   <g id="patch_43">
    <path d="M 815.794386 35.595062 
L 820.405614 35.707531 
" clip-path="url(#p2a2440384d)" style="fill: none; stroke: #000000; stroke-linejoin: miter"/>
   </g>
  </g>
 </g>
 <defs>
  <clipPath id="pa60ead5364">
   <rect x="0" y="10.936525" width="16.2" height="49.766949"/>
  </clipPath>
  <clipPath id="p1a6a189477">
   <rect x="16.2" y="10.777356" width="16.2" height="50.085288"/>
  </clipPath>
  <clipPath id="p7967104ff8">
   <rect x="34.164248" y="8.64" width="12.671503" height="54.36"/>
  </clipPath>
  <clipPath id="p70ee305f80">
   <rect x="49.989352" y="8.64" width="13.421297" height="54.36"/>
  </clipPath>
  <clipPath id="pcf9fa90df4">
   <rect x="64.8" y="8.881927" width="16.2" height="53.876147"/>
  </clipPath>
  <clipPath id="p870594a8fa">
   <rect x="82.051945" y="8.64" width="14.09611" height="54.36"/>
  </clipPath>
  <clipPath id="pf64dcfc9a1">
   <rect x="114.789352" y="8.64" width="13.421297" height="54.36"/>
  </clipPath>
  <clipPath id="p7eafc5fd84">
   <rect x="130.202069" y="8.64" width="14.995862" height="54.36"/>
  </clipPath>
  <clipPath id="p473d8f62e9">
   <rect x="163.782993" y="8.64" width="12.634014" height="54.36"/>
  </clipPath>
  <clipPath id="p0f980eda54">
   <rect x="178.2" y="10.777356" width="16.2" height="50.085288"/>
  </clipPath>
  <clipPath id="pf68e7eec3e">
   <rect x="195.451945" y="8.64" width="14.09611" height="54.36"/>
  </clipPath>
  <clipPath id="p107bb58044">
   <rect x="232.875559" y="8.64" width="4.048883" height="54.36"/>
  </clipPath>
  <clipPath id="p96f8ca5e9c">
   <rect x="245.738979" y="8.64" width="10.722041" height="54.36"/>
  </clipPath>
  <clipPath id="p44800a4c05">
   <rect x="264.806938" y="8.64" width="4.986124" height="54.36"/>
  </clipPath>
  <clipPath id="pfe6be0b49a">
   <rect x="281.475559" y="8.64" width="4.048883" height="54.36"/>
  </clipPath>
  <clipPath id="p8908a5a8e3">
   <rect x="297.01949" y="8.64" width="5.361021" height="54.36"/>
  </clipPath>
  <clipPath id="pbba4d3e126">
   <rect x="329.606938" y="8.64" width="4.986124" height="54.36"/>
  </clipPath>
  <clipPath id="p3d4a23df63">
   <rect x="341.589352" y="8.64" width="13.421297" height="54.36"/>
  </clipPath>
  <clipPath id="pae672c425c">
   <rect x="378.431876" y="8.64" width="4.536248" height="54.36"/>
  </clipPath>
  <clipPath id="p368d8d537c">
   <rect x="389.402069" y="8.64" width="14.995862" height="54.36"/>
  </clipPath>
  <clipPath id="pfd71e5718b">
   <rect x="405.602069" y="8.64" width="14.995862" height="54.36"/>
  </clipPath>
  <clipPath id="p2930e0af52">
   <rect x="422.982993" y="8.64" width="12.634014" height="54.36"/>
  </clipPath>
  <clipPath id="pbb4a54303c">
   <rect x="439.182993" y="8.64" width="12.634014" height="54.36"/>
  </clipPath>
  <clipPath id="p7e829b95b5">
   <rect x="469.8" y="10.777356" width="16.2" height="50.085288"/>
  </clipPath>
  <clipPath id="p2b8ca3a4bd">
   <rect x="487.782993" y="8.64" width="12.634014" height="54.36"/>
  </clipPath>
  <clipPath id="pa624bec28e">
   <rect x="519.789352" y="8.64" width="13.421297" height="54.36"/>
  </clipPath>
  <clipPath id="p55f1a654a2">
   <rect x="537.338979" y="8.64" width="10.722041" height="54.36"/>
  </clipPath>
  <clipPath id="pe4225bc64b">
   <rect x="551.402069" y="8.64" width="14.995862" height="54.36"/>
  </clipPath>
  <clipPath id="p88b1b180e1">
   <rect x="568.389352" y="8.64" width="13.421297" height="54.36"/>
  </clipPath>
  <clipPath id="pa6af17cb32">
   <rect x="583.2" y="9.426742" width="16.2" height="52.786517"/>
  </clipPath>
  <clipPath id="pa0e79d4c8c">
   <rect x="602.138979" y="8.64" width="10.722041" height="54.36"/>
  </clipPath>
  <clipPath id="pac04d36f18">
   <rect x="631.8" y="10.936525" width="16.2" height="49.766949"/>
  </clipPath>
  <clipPath id="pe78050a8ce">
   <rect x="648" y="8.881927" width="16.2" height="53.876147"/>
  </clipPath>
  <clipPath id="p9e668e907b">
   <rect x="670.275559" y="8.64" width="4.048883" height="54.36"/>
  </clipPath>
  <clipPath id="p54e2f9bb08">
   <rect x="683.138979" y="8.64" width="10.722041" height="54.36"/>
  </clipPath>
  <clipPath id="p27fd52fe9c">
   <rect x="696.6" y="8.881927" width="16.2" height="53.876147"/>
  </clipPath>
  <clipPath id="pef6d6b12fb">
   <rect x="730.764248" y="8.64" width="12.671503" height="54.36"/>
  </clipPath>
  <clipPath id="p5254cba145">
   <rect x="745.2" y="8.881927" width="16.2" height="53.876147"/>
  </clipPath>
  <clipPath id="p933dd85c7d">
   <rect x="767.006938" y="8.64" width="4.986124" height="54.36"/>
  </clipPath>
  <clipPath id="p431c670326">
   <rect x="777.6" y="9.426742" width="16.2" height="52.786517"/>
  </clipPath>
  <clipPath id="p8c9c51d273">
   <rect x="796.538979" y="8.64" width="10.722041" height="54.36"/>
  </clipPath>
  <clipPath id="p2a2440384d">
   <rect x="813.919903" y="8.64" width="8.360193" height="54.36"/>
  </clipPath>
 </defs>
</svg>
