<?xml version="1.0" encoding="utf-8" standalone="no"?>
<!DOCTYPE svg PUBLIC "-//W3C//DTD SVG 1.1//EN"
  "http://www.w3.org/Graphics/SVG/1.1/DTD/svg11.dtd">
<svg xmlns:xlink="http://www.w3.org/1999/xlink" width="918pt" height="72pt" viewBox="0 0 918 72" xmlns="http://www.w3.org/2000/svg" version="1.1">
 <metadata>
  <rdf:RDF xmlns:dc="http://purl.org/dc/elements/1.1/" xmlns:cc="http://creativecommons.org/ns#" xmlns:rdf="http://www.w3.org/1999/02/22-rdf-syntax-ns#">
   <cc:Work>
    <dc:type rdf:resource="http://purl.org/dc/dcmitype/StillImage"/>
    <dc:date>2023-12-21T12:09:13.840840</dc:date>
    <dc:format>image/svg+xml</dc:format>
    <dc:creator>
     <cc:Agent>
      <dc:title>Matplotlib v3.5.1, https://matplotlib.org/</dc:title>
     </cc:Agent>
    </dc:creator>
   </cc:Work>
  </rdf:RDF>
 </metadata>
 <defs>
  <style type="text/css">*{stroke-linejoin: round; stroke-linecap: butt}</style>
 </defs>
 <g id="figure_1">
  <g id="patch_1">
   <path d="M 0 72 
L 918 72 
L 918 0 
L 0 0 
z
" style="fill: #8fff9f"/>
  </g>
  <g id="axes_1">
   <g id="patch_2">
    <path d="M 8.718579 29.071862 
Q 8.343683 29.146841 8.212469 29.577972 
Q 8.081255 30.009103 8.156234 30.42149 
Q 8.156234 30.571448 8.193724 30.702662 
Q 8.231214 30.833876 8.287448 30.89011 
Q 8.343683 30.946345 8.399917 31.040069 
Q 8.456152 31.133793 8.493641 31.208772 
L 8.60611 29.859145 
M 8.60611 34.020497 
Q 7.706359 39.006621 7.481421 42.793076 
L 7.931297 45.379862 
L 8.268703 46.054676 
" clip-path="url(#p2b987e5d3a)" style="fill: none; stroke: #000000; stroke-linejoin: miter"/>
   </g>
  </g>
  <g id="axes_2">
   <g id="patch_3">
    <path d="M 19.463834 37.95691 
L 20.138648 37.95691 
Q 20.850952 37.95691 21.638234 37.881931 
Q 22.425517 37.806952 23.381503 37.675738 
Q 24.33749 37.544524 24.862345 37.507034 
L 29.136166 35.82 
M 25.087283 30.42149 
L 25.087283 31.43371 
Q 25.087283 33.383172 24.412469 37.207117 
Q 23.737655 41.031062 23.737655 43.018014 
Q 23.737655 43.805297 23.737655 44.105214 
Q 23.737655 44.405131 23.831379 45.042455 
Q 23.925103 45.679779 24.112552 45.960952 
Q 24.3 46.242124 24.693641 46.485807 
Q 25.087283 46.72949 25.649628 46.72949 
Q 25.762097 46.692 26.080759 46.72949 
Q 26.399421 46.766979 26.586869 46.710745 
Q 26.774317 46.65451 26.774317 46.392083 
" clip-path="url(#pd9d994c142)" style="fill: none; stroke: #000000; stroke-linejoin: miter"/>
   </g>
  </g>
  <g id="axes_3">
   <g id="patch_4">
    <path d="M 35.363917 36.382345 
Q 35.326428 36.494814 35.457641 36.701007 
Q 35.588855 36.9072 35.476386 37.057159 
L 35.476386 39.306538 
Q 35.476386 40.506207 35.813793 41.724621 
Q 36.1512 42.943034 37.013462 43.93651 
Q 37.875724 44.929986 39.075393 44.929986 
Q 40.312552 44.929986 40.987366 43.861531 
Q 41.662179 42.793076 42.112055 41.143531 
Q 42.561931 39.493986 42.899338 38.969131 
L 43.686621 36.382345 
L 43.461683 42.680607 
L 43.461683 45.154924 
Q 43.461683 47.066897 44.192731 51.00331 
Q 44.923779 54.939724 44.923779 56.964166 
Q 45.673572 59.213545 44.586372 60.188276 
Q 43.499172 61.163007 41.437241 60.78811 
Q 39.637738 60.488193 38.719241 60.169531 
Q 37.800745 59.850869 35.813793 58.988607 
L 35.701324 58.426262 
" clip-path="url(#pbfe5e41573)" style="fill: none; stroke: #000000; stroke-linejoin: miter"/>
   </g>
  </g>
  <g id="axes_4"/>
  <g id="axes_5">
   <g id="patch_5">
    <path d="M 68.063834 37.95691 
L 68.738648 37.95691 
Q 69.450952 37.95691 70.238234 37.881931 
Q 71.025517 37.806952 71.981503 37.675738 
Q 72.93749 37.544524 73.462345 37.507034 
L 77.736166 35.82 
M 73.687283 30.42149 
L 73.687283 31.43371 
Q 73.687283 33.383172 73.012469 37.207117 
Q 72.337655 41.031062 72.337655 43.018014 
Q 72.337655 43.805297 72.337655 44.105214 
Q 72.337655 44.405131 72.431379 45.042455 
Q 72.525103 45.679779 72.712552 45.960952 
Q 72.9 46.242124 73.293641 46.485807 
Q 73.687283 46.72949 74.249628 46.72949 
Q 74.362097 46.692 74.680759 46.72949 
Q 74.999421 46.766979 75.186869 46.710745 
Q 75.374317 46.65451 75.374317 46.392083 
" clip-path="url(#p3d1e767dc6)" style="fill: none; stroke: #000000; stroke-linejoin: miter"/>
   </g>
  </g>
  <g id="axes_6">
   <g id="patch_6">
    <path d="M 89.718579 29.071862 
Q 89.343683 29.146841 89.212469 29.577972 
Q 89.081255 30.009103 89.156234 30.42149 
Q 89.156234 30.571448 89.193724 30.702662 
Q 89.231214 30.833876 89.287448 30.89011 
Q 89.343683 30.946345 89.399917 31.040069 
Q 89.456152 31.133793 89.493641 31.208772 
L 89.60611 29.859145 
M 89.60611 34.020497 
Q 88.706359 39.006621 88.481421 42.793076 
L 88.931297 45.379862 
L 89.268703 46.054676 
" clip-path="url(#p66f7b308c6)" style="fill: none; stroke: #000000; stroke-linejoin: miter"/>
   </g>
  </g>
  <g id="axes_7">
   <g id="patch_7">
    <path d="M 99.008036 34.879821 
Q 99.514286 36.073125 99.803571 42.871339 
Q 99.948214 46.632054 100.2375 46.632054 
Q 100.273661 46.632054 100.309821 46.595893 
Q 100.816071 46.017321 100.870312 44.588973 
Q 100.924554 43.160625 100.707589 41.750357 
Q 100.490625 40.340089 100.2375 38.712857 
Q 99.984375 37.085625 99.984375 36.398571 
Q 99.984375 35.169107 100.364062 33.939643 
Q 100.74375 32.710179 101.720089 32.710179 
Q 102.949554 32.710179 103.672768 34.355491 
Q 104.395982 36.000804 104.558705 37.971563 
Q 104.721429 39.942321 104.829911 41.587634 
Q 104.938393 43.232946 105.083036 43.232946 
Q 105.227679 43.232946 105.31808 41.497232 
Q 105.408482 39.761518 105.535045 37.700357 
Q 105.661607 35.639196 106.384821 33.903482 
Q 107.108036 32.167768 108.3375 32.167768 
Q 109.892411 33.035625 110.561384 34.771339 
Q 111.230357 36.507054 111.194196 38.188527 
Q 111.158036 39.87 111.176116 42.057723 
Q 111.194196 44.245446 111.591964 45.511071 
" clip-path="url(#p20a4eeb539)" style="fill: none; stroke: #000000; stroke-linejoin: miter"/>
   </g>
  </g>
  <g id="axes_8">
   <g id="patch_8">
    <path d="M 115.257798 38.160826 
Q 118.230275 39.535596 122.949083 39.721376 
Q 124.472477 39.721376 125.159862 38.550963 
Q 125.847248 37.38055 125.847248 35.82 
Q 125.847248 35.299817 125.754358 34.909679 
Q 125.661468 34.519541 125.419954 34.296606 
Q 125.17844 34.07367 125.011239 33.943624 
Q 124.844037 33.813578 124.398165 33.757844 
Q 123.952294 33.70211 123.747936 33.683532 
Q 123.543578 33.664954 122.967661 33.683532 
Q 122.391743 33.70211 122.168807 33.70211 
Q 120.125229 33.70211 118.638991 35.578486 
Q 117.152752 37.454862 117.152752 39.609908 
Q 117.152752 42.619541 119.084862 44.570229 
Q 121.016972 46.520917 124.063761 46.520917 
Q 126.218807 46.818165 127.742202 44.29156 
" clip-path="url(#p7159c1341c)" style="fill: none; stroke: #000000; stroke-linejoin: miter"/>
   </g>
  </g>
  <g id="axes_9">
   <g id="patch_9">
    <path d="M 136.987697 39.981352 
Q 137.999917 40.956083 138.337324 42.905545 
Q 138.524772 43.955255 138.112386 46.167145 
L 136.875228 47.629241 
" clip-path="url(#p19e8d99e73)" style="fill: none; stroke: #000000; stroke-linejoin: miter"/>
   </g>
  </g>
  <g id="axes_10">
   <g id="patch_10">
    <path d="M 154.424855 27.009931 
Q 154.499834 27.347338 154.574814 28.265834 
Q 154.649793 29.184331 154.799752 29.634207 
L 154.724772 31.058814 
M 153.075228 27.309848 
Q 153.037738 27.309848 153.000248 27.534786 
Q 153.037738 27.684745 153.150207 28.828179 
Q 153.262676 29.971614 153.525103 30.533959 
" clip-path="url(#p42e529ae79)" style="fill: none; stroke: #000000; stroke-linejoin: miter"/>
   </g>
  </g>
  <g id="axes_11"/>
  <g id="axes_12">
   <g id="patch_11">
    <path d="M 181.857476 43.917766 
Q 182.157393 44.180193 183.169614 45.154924 
Q 184.181834 46.129655 184.744179 46.560786 
Q 185.306524 46.991917 186.33749 47.385559 
Q 187.368455 47.7792 188.380676 47.629241 
Q 189.05549 47.629241 189.52411 47.404303 
Q 189.992731 47.179366 190.217669 46.879448 
Q 190.442607 46.579531 190.573821 45.979697 
Q 190.705034 45.379862 190.723779 44.967476 
Q 190.742524 44.55509 190.742524 43.805297 
Q 190.742524 42.718097 189.842772 42.043283 
Q 188.943021 41.368469 187.649628 41.031062 
Q 186.356234 40.693655 185.062841 40.300014 
Q 183.769448 39.906372 182.869697 38.987876 
Q 181.969945 38.069379 181.969945 36.607283 
Q 181.969945 36.082428 182.138648 35.726276 
Q 182.307352 35.370124 182.700993 35.145186 
Q 183.094634 34.920248 183.375807 34.807779 
Q 183.656979 34.69531 184.313048 34.639076 
Q 184.969117 34.582841 185.156566 34.582841 
Q 185.344014 34.582841 186.018828 34.582841 
Q 187.218497 34.582841 187.799586 34.995228 
Q 188.380676 35.407614 188.699338 36.026193 
Q 189.018 36.644772 189.280428 36.832221 
" clip-path="url(#pf9fe3ee5d8)" style="fill: none; stroke: #000000; stroke-linejoin: miter"/>
   </g>
  </g>
  <g id="axes_13">
   <g id="patch_12">
    <path d="M 208.043923 36.441748 
Q 206.834968 35.094627 202.862687 35.094627 
Q 201.342857 35.094627 200.565672 35.146439 
Q 199.788486 35.198252 198.78678 35.440043 
Q 197.785075 35.681834 197.301493 36.182687 
Q 196.81791 36.683539 196.472495 37.616162 
Q 196.127079 38.548785 196.127079 39.964989 
Q 196.127079 42.037484 197.543284 43.280981 
Q 198.959488 44.524478 200.893817 44.524478 
Q 203.553518 44.524478 206.316844 38.721493 
Q 207.663966 35.854542 207.663966 35.82 
Q 208.009382 35.578209 208.043923 36.441748 
Q 208.043923 37.512537 208.458422 40.362217 
Q 208.872921 43.211898 208.872921 44.524478 
" clip-path="url(#pf2c7da358e)" style="fill: none; stroke: #000000; stroke-linejoin: miter"/>
   </g>
  </g>
  <g id="axes_14">
   <g id="patch_13">
    <path d="M 213.563917 36.382345 
Q 213.526428 36.494814 213.657641 36.701007 
Q 213.788855 36.9072 213.676386 37.057159 
L 213.676386 39.306538 
Q 213.676386 40.506207 214.013793 41.724621 
Q 214.3512 42.943034 215.213462 43.93651 
Q 216.075724 44.929986 217.275393 44.929986 
Q 218.512552 44.929986 219.187366 43.861531 
Q 219.862179 42.793076 220.312055 41.143531 
Q 220.761931 39.493986 221.099338 38.969131 
L 221.886621 36.382345 
L 221.661683 42.680607 
L 221.661683 45.154924 
Q 221.661683 47.066897 222.392731 51.00331 
Q 223.123779 54.939724 223.123779 56.964166 
Q 223.873572 59.213545 222.786372 60.188276 
Q 221.699172 61.163007 219.637241 60.78811 
Q 217.837738 60.488193 216.919241 60.169531 
Q 216.000745 59.850869 214.013793 58.988607 
L 213.901324 58.426262 
" clip-path="url(#p06bc3e316f)" style="fill: none; stroke: #000000; stroke-linejoin: miter"/>
   </g>
  </g>
  <g id="axes_15">
   <g id="patch_14">
    <path d="M 230.457476 43.917766 
Q 230.757393 44.180193 231.769614 45.154924 
Q 232.781834 46.129655 233.344179 46.560786 
Q 233.906524 46.991917 234.93749 47.385559 
Q 235.968455 47.7792 236.980676 47.629241 
Q 237.65549 47.629241 238.12411 47.404303 
Q 238.592731 47.179366 238.817669 46.879448 
Q 239.042607 46.579531 239.173821 45.979697 
Q 239.305034 45.379862 239.323779 44.967476 
Q 239.342524 44.55509 239.342524 43.805297 
Q 239.342524 42.718097 238.442772 42.043283 
Q 237.543021 41.368469 236.249628 41.031062 
Q 234.956234 40.693655 233.662841 40.300014 
Q 232.369448 39.906372 231.469697 38.987876 
Q 230.569945 38.069379 230.569945 36.607283 
Q 230.569945 36.082428 230.738648 35.726276 
Q 230.907352 35.370124 231.300993 35.145186 
Q 231.694634 34.920248 231.975807 34.807779 
Q 232.256979 34.69531 232.913048 34.639076 
Q 233.569117 34.582841 233.756566 34.582841 
Q 233.944014 34.582841 234.618828 34.582841 
Q 235.818497 34.582841 236.399586 34.995228 
Q 236.980676 35.407614 237.299338 36.026193 
Q 237.618 36.644772 237.880428 36.832221 
" clip-path="url(#p7b9f5e1437)" style="fill: none; stroke: #000000; stroke-linejoin: miter"/>
   </g>
  </g>
  <g id="axes_16"/>
  <g id="axes_17">
   <g id="patch_15">
    <path d="M 261.784049 31.819693 
Q 263.25 31.223374 264.939571 31.037025 
Q 266.629141 30.850675 267.933589 30.925215 
Q 269.238037 30.999755 270.952454 30.838252 
Q 272.666871 30.676748 274.157669 30.105276 
M 260.442331 43.000675 
L 260.442331 43.149755 
Q 260.442331 44.590859 262.032515 45.696534 
Q 263.622699 46.802209 265.063804 46.802209 
Q 265.759509 46.802209 266.318558 46.466779 
Q 266.877607 46.13135 267.250307 45.559877 
Q 267.623006 44.988405 267.908742 44.230583 
Q 268.194479 43.472761 268.343558 42.603129 
Q 268.492638 41.733497 268.616871 40.814172 
Q 268.741104 39.894847 268.753528 39.012791 
Q 268.765951 38.130736 268.790798 37.348067 
Q 268.815644 36.565399 268.790798 35.944233 
Q 268.790798 35.571534 268.790798 35.397607 
Q 268.790798 35.124294 268.753528 34.552822 
Q 268.716258 33.98135 268.716258 33.68319 
Q 268.716258 33.434724 268.554755 33.062025 
Q 268.393252 32.689325 268.144785 32.254509 
Q 267.896319 31.819693 267.821779 31.670613 
L 267.747239 30.925215 
" clip-path="url(#p1e74024f4a)" style="fill: none; stroke: #000000; stroke-linejoin: miter"/>
   </g>
  </g>
  <g id="axes_18">
   <g id="patch_16">
    <path d="M 289.043923 36.441748 
Q 287.834968 35.094627 283.862687 35.094627 
Q 282.342857 35.094627 281.565672 35.146439 
Q 280.788486 35.198252 279.78678 35.440043 
Q 278.785075 35.681834 278.301493 36.182687 
Q 277.81791 36.683539 277.472495 37.616162 
Q 277.127079 38.548785 277.127079 39.964989 
Q 277.127079 42.037484 278.543284 43.280981 
Q 279.959488 44.524478 281.893817 44.524478 
Q 284.553518 44.524478 287.316844 38.721493 
Q 288.663966 35.854542 288.663966 35.82 
Q 289.009382 35.578209 289.043923 36.441748 
Q 289.043923 37.512537 289.458422 40.362217 
Q 289.872921 43.211898 289.872921 44.524478 
" clip-path="url(#p0b5081873c)" style="fill: none; stroke: #000000; stroke-linejoin: miter"/>
   </g>
  </g>
  <g id="axes_19">
   <g id="patch_17">
    <path d="M 293.408036 34.879821 
Q 293.914286 36.073125 294.203571 42.871339 
Q 294.348214 46.632054 294.6375 46.632054 
Q 294.673661 46.632054 294.709821 46.595893 
Q 295.216071 46.017321 295.270312 44.588973 
Q 295.324554 43.160625 295.107589 41.750357 
Q 294.890625 40.340089 294.6375 38.712857 
Q 294.384375 37.085625 294.384375 36.398571 
Q 294.384375 35.169107 294.764062 33.939643 
Q 295.14375 32.710179 296.120089 32.710179 
Q 297.349554 32.710179 298.072768 34.355491 
Q 298.795982 36.000804 298.958705 37.971563 
Q 299.121429 39.942321 299.229911 41.587634 
Q 299.338393 43.232946 299.483036 43.232946 
Q 299.627679 43.232946 299.71808 41.497232 
Q 299.808482 39.761518 299.935045 37.700357 
Q 300.061607 35.639196 300.784821 33.903482 
Q 301.508036 32.167768 302.7375 32.167768 
Q 304.292411 33.035625 304.961384 34.771339 
Q 305.630357 36.507054 305.594196 38.188527 
Q 305.558036 39.87 305.576116 42.057723 
Q 305.594196 44.245446 305.991964 45.511071 
" clip-path="url(#p48dcb69019)" style="fill: none; stroke: #000000; stroke-linejoin: miter"/>
   </g>
  </g>
  <g id="axes_20">
   <g id="patch_18">
    <path d="M 309.657798 38.160826 
Q 312.630275 39.535596 317.349083 39.721376 
Q 318.872477 39.721376 319.559862 38.550963 
Q 320.247248 37.38055 320.247248 35.82 
Q 320.247248 35.299817 320.154358 34.909679 
Q 320.061468 34.519541 319.819954 34.296606 
Q 319.57844 34.07367 319.411239 33.943624 
Q 319.244037 33.813578 318.798165 33.757844 
Q 318.352294 33.70211 318.147936 33.683532 
Q 317.943578 33.664954 317.367661 33.683532 
Q 316.791743 33.70211 316.568807 33.70211 
Q 314.525229 33.70211 313.038991 35.578486 
Q 311.552752 37.454862 311.552752 39.609908 
Q 311.552752 42.619541 313.484862 44.570229 
Q 315.416972 46.520917 318.463761 46.520917 
Q 320.618807 46.818165 322.142202 44.29156 
" clip-path="url(#pf2702c1ed3)" style="fill: none; stroke: #000000; stroke-linejoin: miter"/>
   </g>
  </g>
  <g id="axes_21">
   <g id="patch_19">
    <path d="M 327.657476 43.917766 
Q 327.957393 44.180193 328.969614 45.154924 
Q 329.981834 46.129655 330.544179 46.560786 
Q 331.106524 46.991917 332.13749 47.385559 
Q 333.168455 47.7792 334.180676 47.629241 
Q 334.85549 47.629241 335.32411 47.404303 
Q 335.792731 47.179366 336.017669 46.879448 
Q 336.242607 46.579531 336.373821 45.979697 
Q 336.505034 45.379862 336.523779 44.967476 
Q 336.542524 44.55509 336.542524 43.805297 
Q 336.542524 42.718097 335.642772 42.043283 
Q 334.743021 41.368469 333.449628 41.031062 
Q 332.156234 40.693655 330.862841 40.300014 
Q 329.569448 39.906372 328.669697 38.987876 
Q 327.769945 38.069379 327.769945 36.607283 
Q 327.769945 36.082428 327.938648 35.726276 
Q 328.107352 35.370124 328.500993 35.145186 
Q 328.894634 34.920248 329.175807 34.807779 
Q 329.456979 34.69531 330.113048 34.639076 
Q 330.769117 34.582841 330.956566 34.582841 
Q 331.144014 34.582841 331.818828 34.582841 
Q 333.018497 34.582841 333.599586 34.995228 
Q 334.180676 35.407614 334.499338 36.026193 
Q 334.818 36.644772 335.080428 36.832221 
" clip-path="url(#p5c8ef463a5)" style="fill: none; stroke: #000000; stroke-linejoin: miter"/>
   </g>
  </g>
  <g id="axes_22">
   <g id="patch_20">
    <path d="M 347.587697 39.981352 
Q 348.599917 40.956083 348.937324 42.905545 
Q 349.124772 43.955255 348.712386 46.167145 
L 347.475228 47.629241 
" clip-path="url(#p7f617ff2f9)" style="fill: none; stroke: #000000; stroke-linejoin: miter"/>
   </g>
  </g>
  <g id="axes_23"/>
  <g id="axes_24">
   <g id="patch_21">
    <path d="M 381.224855 27.009931 
Q 381.299834 27.347338 381.374814 28.265834 
Q 381.449793 29.184331 381.599752 29.634207 
L 381.524772 31.058814 
M 379.875228 27.309848 
Q 379.837738 27.309848 379.800248 27.534786 
Q 379.837738 27.684745 379.950207 28.828179 
Q 380.062676 29.971614 380.325103 30.533959 
" clip-path="url(#pbcf1dbb44c)" style="fill: none; stroke: #000000; stroke-linejoin: miter"/>
   </g>
  </g>
  <g id="axes_25">
   <g id="patch_22">
    <path d="M 392.063834 37.95691 
L 392.738648 37.95691 
Q 393.450952 37.95691 394.238234 37.881931 
Q 395.025517 37.806952 395.981503 37.675738 
Q 396.93749 37.544524 397.462345 37.507034 
L 401.736166 35.82 
M 397.687283 30.42149 
L 397.687283 31.43371 
Q 397.687283 33.383172 397.012469 37.207117 
Q 396.337655 41.031062 396.337655 43.018014 
Q 396.337655 43.805297 396.337655 44.105214 
Q 396.337655 44.405131 396.431379 45.042455 
Q 396.525103 45.679779 396.712552 45.960952 
Q 396.9 46.242124 397.293641 46.485807 
Q 397.687283 46.72949 398.249628 46.72949 
Q 398.362097 46.692 398.680759 46.72949 
Q 398.999421 46.766979 399.186869 46.710745 
Q 399.374317 46.65451 399.374317 46.392083 
" clip-path="url(#p5a934ba8f6)" style="fill: none; stroke: #000000; stroke-linejoin: miter"/>
   </g>
  </g>
  <g id="axes_26">
   <g id="patch_23">
    <path d="M 409.613462 35.932469 
Q 410.213297 35.257655 411.206772 34.826524 
Q 412.200248 34.395393 413.1 34.470372 
Q 413.737324 34.470372 414.22469 34.639076 
Q 414.712055 34.807779 415.030717 34.995228 
Q 415.349379 35.182676 415.574317 35.670041 
Q 415.799255 36.157407 415.911724 36.419834 
Q 416.024193 36.682262 416.080428 37.375821 
Q 416.136662 38.069379 416.155407 38.331807 
Q 416.174152 38.594234 416.155407 39.419007 
Q 416.136662 40.243779 416.136662 40.431228 
Q 416.136662 41.368469 415.967959 43.242952 
Q 415.799255 45.117434 415.799255 46.054676 
Q 415.799255 46.467062 415.85549 46.823214 
Q 415.911724 47.179366 416.005448 47.610497 
Q 416.099172 48.041628 416.136662 48.304055 
L 416.586538 48.528993 
M 410.063338 23.111007 
Q 410.288276 24.798041 410.288276 29.971614 
L 410.288276 42.3432 
L 409.950869 46.841959 
L 409.725931 47.74171 
" clip-path="url(#pf58770e588)" style="fill: none; stroke: #000000; stroke-linejoin: miter"/>
   </g>
  </g>
  <g id="axes_27">
   <g id="patch_24">
    <path d="M 423.057798 38.160826 
Q 426.030275 39.535596 430.749083 39.721376 
Q 432.272477 39.721376 432.959862 38.550963 
Q 433.647248 37.38055 433.647248 35.82 
Q 433.647248 35.299817 433.554358 34.909679 
Q 433.461468 34.519541 433.219954 34.296606 
Q 432.97844 34.07367 432.811239 33.943624 
Q 432.644037 33.813578 432.198165 33.757844 
Q 431.752294 33.70211 431.547936 33.683532 
Q 431.343578 33.664954 430.767661 33.683532 
Q 430.191743 33.70211 429.968807 33.70211 
Q 427.925229 33.70211 426.438991 35.578486 
Q 424.952752 37.454862 424.952752 39.609908 
Q 424.952752 42.619541 426.884862 44.570229 
Q 428.816972 46.520917 431.863761 46.520917 
Q 434.018807 46.818165 435.542202 44.29156 
" clip-path="url(#p37b7d8e30f)" style="fill: none; stroke: #000000; stroke-linejoin: miter"/>
   </g>
  </g>
  <g id="axes_28">
   <g id="patch_25">
    <path d="M 440.363917 36.382345 
Q 440.326428 36.494814 440.457641 36.701007 
Q 440.588855 36.9072 440.476386 37.057159 
L 440.476386 39.306538 
Q 440.476386 40.506207 440.813793 41.724621 
Q 441.1512 42.943034 442.013462 43.93651 
Q 442.875724 44.929986 444.075393 44.929986 
Q 445.312552 44.929986 445.987366 43.861531 
Q 446.662179 42.793076 447.112055 41.143531 
Q 447.561931 39.493986 447.899338 38.969131 
L 448.686621 36.382345 
L 448.461683 42.680607 
L 448.461683 45.154924 
Q 448.461683 47.066897 449.192731 51.00331 
Q 449.923779 54.939724 449.923779 56.964166 
Q 450.673572 59.213545 449.586372 60.188276 
Q 448.499172 61.163007 446.437241 60.78811 
Q 444.637738 60.488193 443.719241 60.169531 
Q 442.800745 59.850869 440.813793 58.988607 
L 440.701324 58.426262 
" clip-path="url(#pbe2fc99fa7)" style="fill: none; stroke: #000000; stroke-linejoin: miter"/>
   </g>
  </g>
  <g id="axes_29"/>
  <g id="axes_30">
   <g id="patch_26">
    <path d="M 482.687191 39.096404 
Q 482.43236 39.023596 481.46764 38.623146 
Q 480.502921 38.222697 479.84764 38.077079 
Q 479.19236 37.931461 478.537079 38.00427 
Q 475.915955 38.00427 474.277753 40.388764 
Q 472.639551 42.773258 472.639551 45.430787 
Q 472.639551 47.068989 477.881798 47.068989 
Q 479.447191 47.068989 480.775955 45.558202 
Q 482.104719 44.047416 482.778202 42.172584 
Q 483.451685 40.297753 483.451685 38.768764 
Q 483.451685 37.27618 483.415281 36.984944 
L 483.342472 38.077079 
Q 483.342472 38.550337 483.342472 38.987191 
Q 483.378876 40.188539 483.579101 42.281798 
Q 483.779326 44.375056 483.943146 46.049663 
Q 484.106966 47.72427 484.143371 49.872135 
Q 484.179775 52.02 484.015955 53.658202 
Q 483.852135 55.296404 483.287865 56.971011 
Q 482.723596 58.645618 481.795281 59.737753 
Q 480.866966 60.829888 479.265169 61.521573 
Q 477.663371 62.213258 475.515506 62.213258 
Q 473.877303 62.213258 472.785169 61.466966 
Q 471.693034 60.720674 471.693034 59.155281 
Q 471.620225 58.936854 471.656629 58.936854 
Q 471.693034 58.936854 471.802247 58.936854 
Q 471.911461 58.936854 471.911461 58.82764 
" clip-path="url(#pafa504e978)" style="fill: none; stroke: #000000; stroke-linejoin: miter"/>
   </g>
  </g>
  <g id="axes_31">
   <g id="patch_27">
    <path d="M 490.613462 32.783338 
Q 491.138317 34.507862 491.269531 36.457324 
Q 491.400745 38.406786 491.325766 40.956083 
Q 491.250786 43.505379 491.288276 44.705048 
L 491.400745 46.054676 
L 491.400745 45.829738 
Q 491.400745 44.667559 491.119572 42.30571 
Q 490.8384 39.943862 490.8384 38.744193 
Q 490.8384 36.419834 491.850621 34.882759 
Q 492.862841 33.345683 494.887283 33.345683 
Q 495.599586 33.345683 495.936993 33.626855 
Q 496.2744 33.908028 496.536828 34.432883 
Q 496.799255 34.957738 497.136662 35.257655 
L 497.586538 36.832221 
" clip-path="url(#pbfd3435d59)" style="fill: none; stroke: #000000; stroke-linejoin: miter"/>
   </g>
  </g>
  <g id="axes_32">
   <g id="patch_28">
    <path d="M 513.5616 35.032717 
Q 512.51189 34.582841 511.537159 34.69531 
Q 508.500497 35.032717 506.588524 36.701007 
Q 504.676552 38.369297 504.676552 41.330979 
Q 504.676552 43.917766 506.682248 45.6048 
Q 508.687945 47.291834 511.312221 47.291834 
Q 513.674069 47.291834 514.798759 45.361117 
Q 515.923448 43.4304 515.923448 40.881103 
Q 515.923448 39.643945 515.511062 38.706703 
Q 515.098676 37.769462 514.573821 37.300841 
Q 514.048966 36.832221 513.299172 36.119917 
Q 512.549379 35.407614 512.099503 34.69531 
L 510.862345 34.245434 
" clip-path="url(#p2281d281e6)" style="fill: none; stroke: #000000; stroke-linejoin: miter"/>
   </g>
  </g>
  <g id="axes_33">
   <g id="patch_29">
    <path d="M 520.116102 36.437797 
L 521.351695 44.778051 
Q 521.454661 45.567458 521.454661 45.60178 
Q 521.454661 45.704746 521.763559 45.704746 
Q 522.62161 45.704746 523.342373 44.778051 
Q 524.063136 43.851356 524.475 42.718729 
Q 524.886864 41.586102 525.401695 40.659407 
Q 525.916525 39.732712 526.397034 39.732712 
Q 527.014831 39.732712 527.649788 40.607924 
Q 528.284746 41.483136 528.748093 42.512797 
Q 529.211441 43.542458 529.88072 44.417669 
Q 530.55 45.292881 531.236441 45.292881 
Q 531.511017 43.782712 531.940042 39.69839 
Q 532.369068 35.614068 532.883898 33.554746 
" clip-path="url(#pedd1e92a52)" style="fill: none; stroke: #000000; stroke-linejoin: miter"/>
   </g>
  </g>
  <g id="axes_34"/>
  <g id="axes_35">
   <g id="patch_30">
    <path d="M 554.288772 35.145186 
Q 554.288772 35.145186 554.288772 35.595062 
Q 554.288772 36.269876 554.176303 37.619503 
Q 554.063834 38.969131 554.063834 39.643945 
Q 554.063834 41.930814 555.300993 43.599103 
Q 556.538152 45.267393 558.675062 45.267393 
Q 560.062179 45.154924 560.830717 43.917766 
Q 561.599255 42.680607 561.749214 41.237255 
Q 561.899172 39.793903 562.1616 37.9944 
Q 562.424028 36.194897 562.836414 35.370124 
Q 562.986372 35.070207 562.986372 35.670041 
Q 562.986372 36.269876 562.723945 38.706703 
Q 562.499007 41.031062 562.499007 41.555917 
Q 562.349048 42.643117 562.686455 43.767807 
Q 563.023862 44.892497 563.736166 45.6048 
" clip-path="url(#p038b02fdcc)" style="fill: none; stroke: #000000; stroke-linejoin: miter"/>
   </g>
  </g>
  <g id="axes_36">
   <g id="patch_31">
    <path d="M 570.320069 39.868883 
L 570.320069 39.419007 
Q 570.320069 37.769462 572.063338 36.682262 
Q 573.806607 35.595062 575.493641 35.595062 
Q 577.705531 35.595062 579.073903 36.794731 
Q 580.442276 37.9944 580.442276 40.20629 
Q 580.442276 42.30571 578.624028 43.336676 
Q 576.805779 44.367641 574.59389 44.367641 
Q 573.919076 44.367641 573.412966 44.255172 
Q 572.906855 44.142703 572.288276 43.917766 
Q 571.669697 43.692828 571.219821 43.580359 
L 570.095131 42.568138 
M 569.757724 36.832221 
Q 570.2076 38.444276 570.470028 40.262524 
Q 570.732455 42.080772 570.78869 43.749062 
Q 570.844924 45.417352 570.882414 47.27309 
Q 570.919903 49.128828 570.882414 50.778372 
L 570.769945 57.863917 
" clip-path="url(#p61d49b9930)" style="fill: none; stroke: #000000; stroke-linejoin: miter"/>
   </g>
  </g>
  <g id="axes_37"/>
  <g id="axes_38">
   <g id="patch_32">
    <path d="M 603.057476 43.917766 
Q 603.357393 44.180193 604.369614 45.154924 
Q 605.381834 46.129655 605.944179 46.560786 
Q 606.506524 46.991917 607.53749 47.385559 
Q 608.568455 47.7792 609.580676 47.629241 
Q 610.25549 47.629241 610.72411 47.404303 
Q 611.192731 47.179366 611.417669 46.879448 
Q 611.642607 46.579531 611.773821 45.979697 
Q 611.905034 45.379862 611.923779 44.967476 
Q 611.942524 44.55509 611.942524 43.805297 
Q 611.942524 42.718097 611.042772 42.043283 
Q 610.143021 41.368469 608.849628 41.031062 
Q 607.556234 40.693655 606.262841 40.300014 
Q 604.969448 39.906372 604.069697 38.987876 
Q 603.169945 38.069379 603.169945 36.607283 
Q 603.169945 36.082428 603.338648 35.726276 
Q 603.507352 35.370124 603.900993 35.145186 
Q 604.294634 34.920248 604.575807 34.807779 
Q 604.856979 34.69531 605.513048 34.639076 
Q 606.169117 34.582841 606.356566 34.582841 
Q 606.544014 34.582841 607.218828 34.582841 
Q 608.418497 34.582841 608.999586 34.995228 
Q 609.580676 35.407614 609.899338 36.026193 
Q 610.218 36.644772 610.480428 36.832221 
" clip-path="url(#p4f08deee68)" style="fill: none; stroke: #000000; stroke-linejoin: miter"/>
   </g>
  </g>
  <g id="axes_39">
   <g id="patch_33">
    <path d="M 626.9616 35.032717 
Q 625.91189 34.582841 624.937159 34.69531 
Q 621.900497 35.032717 619.988524 36.701007 
Q 618.076552 38.369297 618.076552 41.330979 
Q 618.076552 43.917766 620.082248 45.6048 
Q 622.087945 47.291834 624.712221 47.291834 
Q 627.074069 47.291834 628.198759 45.361117 
Q 629.323448 43.4304 629.323448 40.881103 
Q 629.323448 39.643945 628.911062 38.706703 
Q 628.498676 37.769462 627.973821 37.300841 
Q 627.448966 36.832221 626.699172 36.119917 
Q 625.949379 35.407614 625.499503 34.69531 
L 624.262345 34.245434 
" clip-path="url(#p1f4ec30a21)" style="fill: none; stroke: #000000; stroke-linejoin: miter"/>
   </g>
  </g>
  <g id="axes_40"/>
  <g id="axes_41">
   <g id="patch_34">
    <path d="M 649.784141 38.85304 
L 650.212335 38.85304 
Q 651.03304 38.85304 651.996476 38.745991 
Q 652.959912 38.638943 654.119604 38.460529 
Q 655.279295 38.282115 655.885903 38.210749 
L 662.415859 35.427489 
M 662.094714 25.793128 
Q 661.809251 25.721762 660.774449 25.275727 
Q 659.739648 24.829692 659.097357 24.93674 
Q 658.455066 24.93674 657.937665 25.150837 
Q 657.420264 25.364934 657.081278 25.793128 
Q 656.742291 26.221322 656.47467 26.685198 
Q 656.207048 27.149075 656.064317 27.862731 
Q 655.921586 28.576388 655.814537 29.129471 
Q 655.707489 29.682555 655.689648 30.50326 
Q 655.671806 31.323965 655.653965 31.77 
Q 655.636123 32.216035 655.653965 32.965374 
Q 655.671806 33.714714 655.671806 33.928811 
Q 655.671806 36.605022 656.367621 41.850396 
Q 657.063436 47.095771 657.063436 49.771982 
Q 656.99207 50.057445 656.956388 50.681894 
Q 656.920705 51.306344 656.813656 51.805903 
Q 656.706608 52.305463 656.421145 52.555242 
" clip-path="url(#pc1b8868032)" style="fill: none; stroke: #000000; stroke-linejoin: miter"/>
   </g>
  </g>
  <g id="axes_42">
   <g id="patch_35">
    <path d="M 677.843923 36.441748 
Q 676.634968 35.094627 672.662687 35.094627 
Q 671.142857 35.094627 670.365672 35.146439 
Q 669.588486 35.198252 668.58678 35.440043 
Q 667.585075 35.681834 667.101493 36.182687 
Q 666.61791 36.683539 666.272495 37.616162 
Q 665.927079 38.548785 665.927079 39.964989 
Q 665.927079 42.037484 667.343284 43.280981 
Q 668.759488 44.524478 670.693817 44.524478 
Q 673.353518 44.524478 676.116844 38.721493 
Q 677.463966 35.854542 677.463966 35.82 
Q 677.809382 35.578209 677.843923 36.441748 
Q 677.843923 37.512537 678.258422 40.362217 
Q 678.672921 43.211898 678.672921 44.524478 
" clip-path="url(#p495643a530)" style="fill: none; stroke: #000000; stroke-linejoin: miter"/>
   </g>
  </g>
  <g id="axes_43">
   <g id="patch_36">
    <path d="M 684.057476 43.917766 
Q 684.357393 44.180193 685.369614 45.154924 
Q 686.381834 46.129655 686.944179 46.560786 
Q 687.506524 46.991917 688.53749 47.385559 
Q 689.568455 47.7792 690.580676 47.629241 
Q 691.25549 47.629241 691.72411 47.404303 
Q 692.192731 47.179366 692.417669 46.879448 
Q 692.642607 46.579531 692.773821 45.979697 
Q 692.905034 45.379862 692.923779 44.967476 
Q 692.942524 44.55509 692.942524 43.805297 
Q 692.942524 42.718097 692.042772 42.043283 
Q 691.143021 41.368469 689.849628 41.031062 
Q 688.556234 40.693655 687.262841 40.300014 
Q 685.969448 39.906372 685.069697 38.987876 
Q 684.169945 38.069379 684.169945 36.607283 
Q 684.169945 36.082428 684.338648 35.726276 
Q 684.507352 35.370124 684.900993 35.145186 
Q 685.294634 34.920248 685.575807 34.807779 
Q 685.856979 34.69531 686.513048 34.639076 
Q 687.169117 34.582841 687.356566 34.582841 
Q 687.544014 34.582841 688.218828 34.582841 
Q 689.418497 34.582841 689.999586 34.995228 
Q 690.580676 35.407614 690.899338 36.026193 
Q 691.218 36.644772 691.480428 36.832221 
" clip-path="url(#p07da4a21bb)" style="fill: none; stroke: #000000; stroke-linejoin: miter"/>
   </g>
  </g>
  <g id="axes_44">
   <g id="patch_37">
    <path d="M 699.863834 37.95691 
L 700.538648 37.95691 
Q 701.250952 37.95691 702.038234 37.881931 
Q 702.825517 37.806952 703.781503 37.675738 
Q 704.73749 37.544524 705.262345 37.507034 
L 709.536166 35.82 
M 705.487283 30.42149 
L 705.487283 31.43371 
Q 705.487283 33.383172 704.812469 37.207117 
Q 704.137655 41.031062 704.137655 43.018014 
Q 704.137655 43.805297 704.137655 44.105214 
Q 704.137655 44.405131 704.231379 45.042455 
Q 704.325103 45.679779 704.512552 45.960952 
Q 704.7 46.242124 705.093641 46.485807 
Q 705.487283 46.72949 706.049628 46.72949 
Q 706.162097 46.692 706.480759 46.72949 
Q 706.799421 46.766979 706.986869 46.710745 
Q 707.174317 46.65451 707.174317 46.392083 
" clip-path="url(#p1724bfc5cf)" style="fill: none; stroke: #000000; stroke-linejoin: miter"/>
   </g>
  </g>
  <g id="axes_45">
   <g id="patch_38">
    <path d="M 720.187697 39.981352 
Q 721.199917 40.956083 721.537324 42.905545 
Q 721.724772 43.955255 721.312386 46.167145 
L 720.075228 47.629241 
" clip-path="url(#pb564eaf41f)" style="fill: none; stroke: #000000; stroke-linejoin: miter"/>
   </g>
  </g>
  <g id="axes_46"/>
  <g id="axes_47">
   <g id="patch_39">
    <path d="M 756.899007 39.568966 
Q 755.549379 38.181848 753.3 38.444276 
Q 750.450786 38.444276 749.288607 39.793903 
Q 748.126428 41.143531 748.126428 44.067724 
Q 748.126428 45.56731 749.419821 46.279614 
Q 750.713214 46.991917 752.287779 46.991917 
Q 753.599917 46.991917 754.612138 45.736014 
Q 755.624359 44.48011 756.205448 42.30571 
Q 756.786538 40.13131 757.161434 37.938166 
Q 757.536331 35.745021 757.68629 33.045766 
Q 757.836248 30.34651 757.873738 28.978138 
Q 757.911228 27.609766 757.911228 26.185159 
Q 757.68629 26.260138 757.68629 29.896634 
L 757.68629 44.292662 
L 758.473572 48.229076 
" clip-path="url(#p424a502085)" style="fill: none; stroke: #000000; stroke-linejoin: miter"/>
   </g>
  </g>
  <g id="axes_48">
   <g id="patch_40">
    <path d="M 772.7616 35.032717 
Q 771.71189 34.582841 770.737159 34.69531 
Q 767.700497 35.032717 765.788524 36.701007 
Q 763.876552 38.369297 763.876552 41.330979 
Q 763.876552 43.917766 765.882248 45.6048 
Q 767.887945 47.291834 770.512221 47.291834 
Q 772.874069 47.291834 773.998759 45.361117 
Q 775.123448 43.4304 775.123448 40.881103 
Q 775.123448 39.643945 774.711062 38.706703 
Q 774.298676 37.769462 773.773821 37.300841 
Q 773.248966 36.832221 772.499172 36.119917 
Q 771.749379 35.407614 771.299503 34.69531 
L 770.062345 34.245434 
" clip-path="url(#pa2dcef36fb)" style="fill: none; stroke: #000000; stroke-linejoin: miter"/>
   </g>
  </g>
  <g id="axes_49">
   <g id="patch_41">
    <path d="M 781.238731 37.282097 
L 781.238731 37.844441 
Q 781.501159 39.868883 781.538648 41.312234 
Q 781.576138 42.755586 781.482414 44.667559 
Q 781.38869 46.579531 781.38869 48.191586 
L 781.463669 39.643945 
Q 781.463669 38.144359 783.056979 37.507034 
Q 784.65029 36.86971 786.074897 37.282097 
Q 787.986869 37.844441 788.905366 39.04411 
Q 789.823862 40.243779 789.880097 41.668386 
Q 789.936331 43.092993 789.973821 44.817517 
Q 790.01131 46.542041 790.161269 48.191586 
" clip-path="url(#p34f3f117de)" style="fill: none; stroke: #000000; stroke-linejoin: miter"/>
   </g>
  </g>
  <g id="axes_50">
   <g id="patch_42">
    <path d="M 801.825021 26.147669 
Q 801.787531 26.597545 801.825021 27.384828 
Q 801.86251 27.572276 801.806276 27.965917 
Q 801.750041 28.359559 801.787531 28.678221 
Q 801.825021 28.996883 802.049959 29.184331 
" clip-path="url(#p7d86396cb2)" style="fill: none; stroke: #000000; stroke-linejoin: miter"/>
   </g>
  </g>
  <g id="axes_51">
   <g id="patch_43">
    <path d="M 813.263834 37.95691 
L 813.938648 37.95691 
Q 814.650952 37.95691 815.438234 37.881931 
Q 816.225517 37.806952 817.181503 37.675738 
Q 818.13749 37.544524 818.662345 37.507034 
L 822.936166 35.82 
M 818.887283 30.42149 
L 818.887283 31.43371 
Q 818.887283 33.383172 818.212469 37.207117 
Q 817.537655 41.031062 817.537655 43.018014 
Q 817.537655 43.805297 817.537655 44.105214 
Q 817.537655 44.405131 817.631379 45.042455 
Q 817.725103 45.679779 817.912552 45.960952 
Q 818.1 46.242124 818.493641 46.485807 
Q 818.887283 46.72949 819.449628 46.72949 
Q 819.562097 46.692 819.880759 46.72949 
Q 820.199421 46.766979 820.386869 46.710745 
Q 820.574317 46.65451 820.574317 46.392083 
" clip-path="url(#p15cd9beb20)" style="fill: none; stroke: #000000; stroke-linejoin: miter"/>
   </g>
  </g>
 </g>
 <defs>
  <clipPath id="p2b987e5d3a">
   <rect x="5.606938" y="8.64" width="4.986124" height="54.36"/>
  </clipPath>
  <clipPath id="pd9d994c142">
   <rect x="17.589352" y="8.64" width="13.421297" height="54.36"/>
  </clipPath>
  <clipPath id="pbfe5e41573">
   <rect x="33.451945" y="8.64" width="14.09611" height="54.36"/>
  </clipPath>
  <clipPath id="p3d1e767dc6">
   <rect x="66.189352" y="8.64" width="13.421297" height="54.36"/>
  </clipPath>
  <clipPath id="p66f7b308c6">
   <rect x="86.606938" y="8.64" width="4.986124" height="54.36"/>
  </clipPath>
  <clipPath id="p20a4eeb539">
   <rect x="97.2" y="9.603482" width="16.2" height="52.433036"/>
  </clipPath>
  <clipPath id="p7159c1341c">
   <rect x="113.4" y="8.881927" width="16.2" height="53.876147"/>
  </clipPath>
  <clipPath id="p19e8d99e73">
   <rect x="135.000745" y="8.64" width="5.39851" height="54.36"/>
  </clipPath>
  <clipPath id="p42e529ae79">
   <rect x="151.125766" y="8.64" width="5.548469" height="54.36"/>
  </clipPath>
  <clipPath id="pf9fe3ee5d8">
   <rect x="179.982993" y="8.64" width="12.634014" height="54.36"/>
  </clipPath>
  <clipPath id="pf2c7da358e">
   <rect x="194.4" y="10.777356" width="16.2" height="50.085288"/>
  </clipPath>
  <clipPath id="p06bc3e316f">
   <rect x="211.651945" y="8.64" width="14.09611" height="54.36"/>
  </clipPath>
  <clipPath id="p7b9f5e1437">
   <rect x="228.582993" y="8.64" width="12.634014" height="54.36"/>
  </clipPath>
  <clipPath id="p1e74024f4a">
   <rect x="259.2" y="17.806196" width="16.2" height="36.027607"/>
  </clipPath>
  <clipPath id="p0b5081873c">
   <rect x="275.4" y="10.777356" width="16.2" height="50.085288"/>
  </clipPath>
  <clipPath id="p48dcb69019">
   <rect x="291.6" y="9.603482" width="16.2" height="52.433036"/>
  </clipPath>
  <clipPath id="pf2702c1ed3">
   <rect x="307.8" y="8.881927" width="16.2" height="53.876147"/>
  </clipPath>
  <clipPath id="p5c8ef463a5">
   <rect x="325.782993" y="8.64" width="12.634014" height="54.36"/>
  </clipPath>
  <clipPath id="p7f617ff2f9">
   <rect x="345.600745" y="8.64" width="5.39851" height="54.36"/>
  </clipPath>
  <clipPath id="pbcf1dbb44c">
   <rect x="377.925766" y="8.64" width="5.548469" height="54.36"/>
  </clipPath>
  <clipPath id="p5a934ba8f6">
   <rect x="390.189352" y="8.64" width="13.421297" height="54.36"/>
  </clipPath>
  <clipPath id="pf58770e588">
   <rect x="407.738979" y="8.64" width="10.722041" height="54.36"/>
  </clipPath>
  <clipPath id="p37b7d8e30f">
   <rect x="421.2" y="8.881927" width="16.2" height="53.876147"/>
  </clipPath>
  <clipPath id="pbe2fc99fa7">
   <rect x="438.451945" y="8.64" width="14.09611" height="54.36"/>
  </clipPath>
  <clipPath id="pafa504e978">
   <rect x="469.8" y="9.426742" width="16.2" height="52.786517"/>
  </clipPath>
  <clipPath id="pbfd3435d59">
   <rect x="488.738979" y="8.64" width="10.722041" height="54.36"/>
  </clipPath>
  <clipPath id="p2281d281e6">
   <rect x="502.802069" y="8.64" width="14.995862" height="54.36"/>
  </clipPath>
  <clipPath id="pedd1e92a52">
   <rect x="518.4" y="10.936525" width="16.2" height="49.766949"/>
  </clipPath>
  <clipPath id="p038b02fdcc">
   <rect x="552.189352" y="8.64" width="13.421297" height="54.36"/>
  </clipPath>
  <clipPath id="p61d49b9930">
   <rect x="567.883241" y="8.64" width="14.433517" height="54.36"/>
  </clipPath>
  <clipPath id="p4f08deee68">
   <rect x="601.182993" y="8.64" width="12.634014" height="54.36"/>
  </clipPath>
  <clipPath id="p1f4ec30a21">
   <rect x="616.202069" y="8.64" width="14.995862" height="54.36"/>
  </clipPath>
  <clipPath id="pc1b8868032">
   <rect x="648" y="9.949956" width="16.2" height="51.740088"/>
  </clipPath>
  <clipPath id="p495643a530">
   <rect x="664.2" y="10.777356" width="16.2" height="50.085288"/>
  </clipPath>
  <clipPath id="p07da4a21bb">
   <rect x="682.182993" y="8.64" width="12.634014" height="54.36"/>
  </clipPath>
  <clipPath id="p1724bfc5cf">
   <rect x="697.989352" y="8.64" width="13.421297" height="54.36"/>
  </clipPath>
  <clipPath id="pb564eaf41f">
   <rect x="718.200745" y="8.64" width="5.39851" height="54.36"/>
  </clipPath>
  <clipPath id="p424a502085">
   <rect x="746.251945" y="8.64" width="14.09611" height="54.36"/>
  </clipPath>
  <clipPath id="pa2dcef36fb">
   <rect x="762.002069" y="8.64" width="14.995862" height="54.36"/>
  </clipPath>
  <clipPath id="p34f3f117de">
   <rect x="779.364248" y="8.64" width="12.671503" height="54.36"/>
  </clipPath>
  <clipPath id="p7d86396cb2">
   <rect x="799.875559" y="8.64" width="4.048883" height="54.36"/>
  </clipPath>
  <clipPath id="p15cd9beb20">
   <rect x="811.389352" y="8.64" width="13.421297" height="54.36"/>
  </clipPath>
 </defs>
</svg>
