<?xml version="1.0" encoding="utf-8" standalone="no"?>
<!DOCTYPE svg PUBLIC "-//W3C//DTD SVG 1.1//EN"
  "http://www.w3.org/Graphics/SVG/1.1/DTD/svg11.dtd">
<svg xmlns:xlink="http://www.w3.org/1999/xlink" width="882pt" height="72pt" viewBox="0 0 882 72" xmlns="http://www.w3.org/2000/svg" version="1.1">
 <metadata>
  <rdf:RDF xmlns:dc="http://purl.org/dc/elements/1.1/" xmlns:cc="http://creativecommons.org/ns#" xmlns:rdf="http://www.w3.org/1999/02/22-rdf-syntax-ns#">
   <cc:Work>
    <dc:type rdf:resource="http://purl.org/dc/dcmitype/StillImage"/>
    <dc:date>2023-12-21T12:08:48.365376</dc:date>
    <dc:format>image/svg+xml</dc:format>
    <dc:creator>
     <cc:Agent>
      <dc:title>Matplotlib v3.5.1, https://matplotlib.org/</dc:title>
     </cc:Agent>
    </dc:creator>
   </cc:Work>
  </rdf:RDF>
 </metadata>
 <defs>
  <style type="text/css">*{stroke-linejoin: round; stroke-linecap: butt}</style>
 </defs>
 <g id="figure_1">
  <g id="patch_1">
   <path d="M 0 72 
L 882 72 
L 882 0 
L 0 0 
z
" style="fill: #8fff9f"/>
  </g>
  <g id="axes_1">
   <g id="patch_2">
    <path d="M 13.643923 36.441748 
Q 12.434968 35.094627 8.462687 35.094627 
Q 6.942857 35.094627 6.165672 35.146439 
Q 5.388486 35.198252 4.38678 35.440043 
Q 3.385075 35.681834 2.901493 36.182687 
Q 2.41791 36.683539 2.072495 37.616162 
Q 1.727079 38.548785 1.727079 39.964989 
Q 1.727079 42.037484 3.143284 43.280981 
Q 4.559488 44.524478 6.493817 44.524478 
Q 9.153518 44.524478 11.916844 38.721493 
Q 13.263966 35.854542 13.263966 35.82 
Q 13.609382 35.578209 13.643923 36.441748 
Q 13.643923 37.512537 14.058422 40.362217 
Q 14.472921 43.211898 14.472921 44.524478 
" clip-path="url(#p0958440da4)" style="fill: none; stroke: #000000; stroke-linejoin: miter"/>
   </g>
  </g>
  <g id="axes_2">
   <g id="patch_3">
    <path d="M 19.838731 37.282097 
L 19.838731 37.844441 
Q 20.101159 39.868883 20.138648 41.312234 
Q 20.176138 42.755586 20.082414 44.667559 
Q 19.98869 46.579531 19.98869 48.191586 
L 20.063669 39.643945 
Q 20.063669 38.144359 21.656979 37.507034 
Q 23.25029 36.86971 24.674897 37.282097 
Q 26.586869 37.844441 27.505366 39.04411 
Q 28.423862 40.243779 28.480097 41.668386 
Q 28.536331 43.092993 28.573821 44.817517 
Q 28.61131 46.542041 28.761269 48.191586 
" clip-path="url(#pd7d94c5dcd)" style="fill: none; stroke: #000000; stroke-linejoin: miter"/>
   </g>
  </g>
  <g id="axes_3">
   <g id="patch_4">
    <path d="M 35.363917 36.382345 
Q 35.326428 36.494814 35.457641 36.701007 
Q 35.588855 36.9072 35.476386 37.057159 
L 35.476386 39.306538 
Q 35.476386 40.506207 35.813793 41.724621 
Q 36.1512 42.943034 37.013462 43.93651 
Q 37.875724 44.929986 39.075393 44.929986 
Q 40.312552 44.929986 40.987366 43.861531 
Q 41.662179 42.793076 42.112055 41.143531 
Q 42.561931 39.493986 42.899338 38.969131 
L 43.686621 36.382345 
L 43.461683 42.680607 
L 43.461683 45.154924 
Q 43.461683 47.066897 44.192731 51.00331 
Q 44.923779 54.939724 44.923779 56.964166 
Q 45.673572 59.213545 44.586372 60.188276 
Q 43.499172 61.163007 41.437241 60.78811 
Q 39.637738 60.488193 38.719241 60.169531 
Q 37.800745 59.850869 35.813793 58.988607 
L 35.701324 58.426262 
" clip-path="url(#p77ecc27580)" style="fill: none; stroke: #000000; stroke-linejoin: miter"/>
   </g>
  </g>
  <g id="axes_4">
   <g id="patch_5">
    <path d="M 50.316102 36.437797 
L 51.551695 44.778051 
Q 51.654661 45.567458 51.654661 45.60178 
Q 51.654661 45.704746 51.963559 45.704746 
Q 52.82161 45.704746 53.542373 44.778051 
Q 54.263136 43.851356 54.675 42.718729 
Q 55.086864 41.586102 55.601695 40.659407 
Q 56.116525 39.732712 56.597034 39.732712 
Q 57.214831 39.732712 57.849788 40.607924 
Q 58.484746 41.483136 58.948093 42.512797 
Q 59.411441 43.542458 60.08072 44.417669 
Q 60.75 45.292881 61.436441 45.292881 
Q 61.711017 43.782712 62.140042 39.69839 
Q 62.569068 35.614068 63.083898 33.554746 
" clip-path="url(#p0553011256)" style="fill: none; stroke: #000000; stroke-linejoin: miter"/>
   </g>
  </g>
  <g id="axes_5">
   <g id="patch_6">
    <path d="M 78.443923 36.441748 
Q 77.234968 35.094627 73.262687 35.094627 
Q 71.742857 35.094627 70.965672 35.146439 
Q 70.188486 35.198252 69.18678 35.440043 
Q 68.185075 35.681834 67.701493 36.182687 
Q 67.21791 36.683539 66.872495 37.616162 
Q 66.527079 38.548785 66.527079 39.964989 
Q 66.527079 42.037484 67.943284 43.280981 
Q 69.359488 44.524478 71.293817 44.524478 
Q 73.953518 44.524478 76.716844 38.721493 
Q 78.063966 35.854542 78.063966 35.82 
Q 78.409382 35.578209 78.443923 36.441748 
Q 78.443923 37.512537 78.858422 40.362217 
Q 79.272921 43.211898 79.272921 44.524478 
" clip-path="url(#pe4cfd74dca)" style="fill: none; stroke: #000000; stroke-linejoin: miter"/>
   </g>
  </g>
  <g id="axes_6">
   <g id="patch_7">
    <path d="M 83.963917 36.382345 
Q 83.926428 36.494814 84.057641 36.701007 
Q 84.188855 36.9072 84.076386 37.057159 
L 84.076386 39.306538 
Q 84.076386 40.506207 84.413793 41.724621 
Q 84.7512 42.943034 85.613462 43.93651 
Q 86.475724 44.929986 87.675393 44.929986 
Q 88.912552 44.929986 89.587366 43.861531 
Q 90.262179 42.793076 90.712055 41.143531 
Q 91.161931 39.493986 91.499338 38.969131 
L 92.286621 36.382345 
L 92.061683 42.680607 
L 92.061683 45.154924 
Q 92.061683 47.066897 92.792731 51.00331 
Q 93.523779 54.939724 93.523779 56.964166 
Q 94.273572 59.213545 93.186372 60.188276 
Q 92.099172 61.163007 90.037241 60.78811 
Q 88.237738 60.488193 87.319241 60.169531 
Q 86.400745 59.850869 84.413793 58.988607 
L 84.301324 58.426262 
" clip-path="url(#pc0dba68038)" style="fill: none; stroke: #000000; stroke-linejoin: miter"/>
   </g>
  </g>
  <g id="axes_7">
   <g id="patch_8">
    <path d="M 103.575476 45.379862 
Q 103.313048 45.304883 103.031876 45.64229 
Q 102.750703 45.979697 102.825683 46.279614 
Q 102.825683 46.429572 103.275559 46.429572 
Q 103.425517 46.467062 103.537986 46.392083 
Q 103.650455 46.317103 103.650455 46.129655 
M 100.351366 26.934952 
Q 103.275559 25.922731 105.599917 26.0352 
Q 107.624359 26.0352 108.936497 27.197379 
Q 110.248634 28.359559 110.248634 30.309021 
Q 110.248634 32.745848 108.655324 34.001752 
Q 107.062014 35.257655 104.550207 35.257655 
L 103.050621 35.257655 
Q 102.900662 35.257655 102.863172 36.194897 
Q 102.825683 37.132138 102.863172 38.069379 
L 102.900662 39.006621 
L 102.900662 41.405959 
L 103.200579 42.230731 
" clip-path="url(#p7b77712739)" style="fill: none; stroke: #000000; stroke-linejoin: miter"/>
   </g>
  </g>
  <g id="axes_8">
   <g id="patch_9">
    <path d="M 122.024855 27.009931 
Q 122.099834 27.347338 122.174814 28.265834 
Q 122.249793 29.184331 122.399752 29.634207 
L 122.324772 31.058814 
M 120.675228 27.309848 
Q 120.637738 27.309848 120.600248 27.534786 
Q 120.637738 27.684745 120.750207 28.828179 
Q 120.862676 29.971614 121.125103 30.533959 
" clip-path="url(#p6c1b36f44c)" style="fill: none; stroke: #000000; stroke-linejoin: miter"/>
   </g>
  </g>
  <g id="axes_9"/>
  <g id="axes_10">
   <g id="patch_10">
    <path d="M 159.443923 36.441748 
Q 158.234968 35.094627 154.262687 35.094627 
Q 152.742857 35.094627 151.965672 35.146439 
Q 151.188486 35.198252 150.18678 35.440043 
Q 149.185075 35.681834 148.701493 36.182687 
Q 148.21791 36.683539 147.872495 37.616162 
Q 147.527079 38.548785 147.527079 39.964989 
Q 147.527079 42.037484 148.943284 43.280981 
Q 150.359488 44.524478 152.293817 44.524478 
Q 154.953518 44.524478 157.716844 38.721493 
Q 159.063966 35.854542 159.063966 35.82 
Q 159.409382 35.578209 159.443923 36.441748 
Q 159.443923 37.512537 159.858422 40.362217 
Q 160.272921 43.211898 160.272921 44.524478 
" clip-path="url(#p56a46fa491)" style="fill: none; stroke: #000000; stroke-linejoin: miter"/>
   </g>
  </g>
  <g id="axes_11">
   <g id="patch_11">
    <path d="M 165.657476 43.917766 
Q 165.957393 44.180193 166.969614 45.154924 
Q 167.981834 46.129655 168.544179 46.560786 
Q 169.106524 46.991917 170.13749 47.385559 
Q 171.168455 47.7792 172.180676 47.629241 
Q 172.85549 47.629241 173.32411 47.404303 
Q 173.792731 47.179366 174.017669 46.879448 
Q 174.242607 46.579531 174.373821 45.979697 
Q 174.505034 45.379862 174.523779 44.967476 
Q 174.542524 44.55509 174.542524 43.805297 
Q 174.542524 42.718097 173.642772 42.043283 
Q 172.743021 41.368469 171.449628 41.031062 
Q 170.156234 40.693655 168.862841 40.300014 
Q 167.569448 39.906372 166.669697 38.987876 
Q 165.769945 38.069379 165.769945 36.607283 
Q 165.769945 36.082428 165.938648 35.726276 
Q 166.107352 35.370124 166.500993 35.145186 
Q 166.894634 34.920248 167.175807 34.807779 
Q 167.456979 34.69531 168.113048 34.639076 
Q 168.769117 34.582841 168.956566 34.582841 
Q 169.144014 34.582841 169.818828 34.582841 
Q 171.018497 34.582841 171.599586 34.995228 
Q 172.180676 35.407614 172.499338 36.026193 
Q 172.818 36.644772 173.080428 36.832221 
" clip-path="url(#p335b8511d3)" style="fill: none; stroke: #000000; stroke-linejoin: miter"/>
   </g>
  </g>
  <g id="axes_12">
   <g id="patch_12">
    <path d="M 184.331793 37.169628 
Q 186.356234 39.194069 188.118248 41.76211 
Q 189.880262 44.330152 190.742524 46.72949 
M 187.368455 31.321241 
L 187.368455 31.546179 
Q 187.368455 32.333462 186.731131 33.514386 
Q 186.093807 34.69531 185.119076 36.101172 
Q 184.144345 37.507034 183.881917 37.95691 
L 182.644759 39.643945 
M 181.857476 26.710014 
Q 183.694469 36.269876 183.881917 48.641462 
" clip-path="url(#pba794b4cd4)" style="fill: none; stroke: #000000; stroke-linejoin: miter"/>
   </g>
  </g>
  <g id="axes_13">
   <g id="patch_13">
    <path d="M 198.057476 43.917766 
Q 198.357393 44.180193 199.369614 45.154924 
Q 200.381834 46.129655 200.944179 46.560786 
Q 201.506524 46.991917 202.53749 47.385559 
Q 203.568455 47.7792 204.580676 47.629241 
Q 205.25549 47.629241 205.72411 47.404303 
Q 206.192731 47.179366 206.417669 46.879448 
Q 206.642607 46.579531 206.773821 45.979697 
Q 206.905034 45.379862 206.923779 44.967476 
Q 206.942524 44.55509 206.942524 43.805297 
Q 206.942524 42.718097 206.042772 42.043283 
Q 205.143021 41.368469 203.849628 41.031062 
Q 202.556234 40.693655 201.262841 40.300014 
Q 199.969448 39.906372 199.069697 38.987876 
Q 198.169945 38.069379 198.169945 36.607283 
Q 198.169945 36.082428 198.338648 35.726276 
Q 198.507352 35.370124 198.900993 35.145186 
Q 199.294634 34.920248 199.575807 34.807779 
Q 199.856979 34.69531 200.513048 34.639076 
Q 201.169117 34.582841 201.356566 34.582841 
Q 201.544014 34.582841 202.218828 34.582841 
Q 203.418497 34.582841 203.999586 34.995228 
Q 204.580676 35.407614 204.899338 36.026193 
Q 205.218 36.644772 205.480428 36.832221 
" clip-path="url(#p02df1d6ed2)" style="fill: none; stroke: #000000; stroke-linejoin: miter"/>
   </g>
  </g>
  <g id="axes_14"/>
  <g id="axes_15">
   <g id="patch_14">
    <path d="M 228.848638 35.788482 
L 229.037743 35.788482 
Q 229.920233 35.788482 231.685214 35.69393 
Q 233.450195 35.599377 234.332685 35.599377 
Q 235.877043 35.599377 237.074708 35.835759 
Q 238.272374 36.07214 239.296693 36.655214 
Q 240.321012 37.238288 240.872568 38.35716 
Q 241.424125 39.476031 241.424125 41.083424 
Q 241.424125 46.567471 231.307004 46.567471 
Q 231.275486 46.567471 229.415953 46.283813 
L 228.848638 46.000156 
M 228.848638 27.562412 
Q 230.487549 26.679922 232.441634 26.71144 
Q 234.710895 26.71144 236.743774 28.035175 
Q 238.776654 29.358911 238.776654 31.533619 
Q 238.776654 32.825837 238.225097 33.582257 
Q 237.673541 34.338677 236.948638 34.527782 
Q 236.223735 34.716887 235.230934 35.06358 
Q 234.238132 35.410272 233.670817 35.883035 
L 228.848638 35.788482 
M 228.375875 27.656965 
Q 228.596498 28.949183 228.533463 32.494903 
Q 228.470428 36.040623 229.037743 37.301323 
Q 229.037743 38.309883 228.990467 40.358521 
Q 228.943191 42.40716 228.943191 43.447237 
L 228.943191 45.243735 
L 228.754086 46.000156 
" clip-path="url(#pa7df572e50)" style="fill: none; stroke: #000000; stroke-linejoin: miter"/>
   </g>
  </g>
  <g id="axes_16">
   <g id="patch_15">
    <path d="M 246.488772 35.145186 
Q 246.488772 35.145186 246.488772 35.595062 
Q 246.488772 36.269876 246.376303 37.619503 
Q 246.263834 38.969131 246.263834 39.643945 
Q 246.263834 41.930814 247.500993 43.599103 
Q 248.738152 45.267393 250.875062 45.267393 
Q 252.262179 45.154924 253.030717 43.917766 
Q 253.799255 42.680607 253.949214 41.237255 
Q 254.099172 39.793903 254.3616 37.9944 
Q 254.624028 36.194897 255.036414 35.370124 
Q 255.186372 35.070207 255.186372 35.670041 
Q 255.186372 36.269876 254.923945 38.706703 
Q 254.699007 41.031062 254.699007 41.555917 
Q 254.549048 42.643117 254.886455 43.767807 
Q 255.223862 44.892497 255.936166 45.6048 
" clip-path="url(#p1eff7eba58)" style="fill: none; stroke: #000000; stroke-linejoin: miter"/>
   </g>
  </g>
  <g id="axes_17">
   <g id="patch_16">
    <path d="M 263.813462 32.783338 
Q 264.338317 34.507862 264.469531 36.457324 
Q 264.600745 38.406786 264.525766 40.956083 
Q 264.450786 43.505379 264.488276 44.705048 
L 264.600745 46.054676 
L 264.600745 45.829738 
Q 264.600745 44.667559 264.319572 42.30571 
Q 264.0384 39.943862 264.0384 38.744193 
Q 264.0384 36.419834 265.050621 34.882759 
Q 266.062841 33.345683 268.087283 33.345683 
Q 268.799586 33.345683 269.136993 33.626855 
Q 269.4744 33.908028 269.736828 34.432883 
Q 269.999255 34.957738 270.336662 35.257655 
L 270.786538 36.832221 
" clip-path="url(#pd8d82798e4)" style="fill: none; stroke: #000000; stroke-linejoin: miter"/>
   </g>
  </g>
  <g id="axes_18">
   <g id="patch_17">
    <path d="M 278.663834 37.95691 
L 279.338648 37.95691 
Q 280.050952 37.95691 280.838234 37.881931 
Q 281.625517 37.806952 282.581503 37.675738 
Q 283.53749 37.544524 284.062345 37.507034 
L 288.336166 35.82 
M 284.287283 30.42149 
L 284.287283 31.43371 
Q 284.287283 33.383172 283.612469 37.207117 
Q 282.937655 41.031062 282.937655 43.018014 
Q 282.937655 43.805297 282.937655 44.105214 
Q 282.937655 44.405131 283.031379 45.042455 
Q 283.125103 45.679779 283.312552 45.960952 
Q 283.5 46.242124 283.893641 46.485807 
Q 284.287283 46.72949 284.849628 46.72949 
Q 284.962097 46.692 285.280759 46.72949 
Q 285.599421 46.766979 285.786869 46.710745 
Q 285.974317 46.65451 285.974317 46.392083 
" clip-path="url(#p908bb9ccec)" style="fill: none; stroke: #000000; stroke-linejoin: miter"/>
   </g>
  </g>
  <g id="axes_19">
   <g id="patch_18">
    <path d="M 298.987697 39.981352 
Q 299.999917 40.956083 300.337324 42.905545 
Q 300.524772 43.955255 300.112386 46.167145 
L 298.875228 47.629241 
" clip-path="url(#pa005657954)" style="fill: none; stroke: #000000; stroke-linejoin: miter"/>
   </g>
  </g>
  <g id="axes_20"/>
  <g id="axes_21">
   <g id="patch_19">
    <path d="M 337.356735 34.365306 
Q 337.356735 34.365306 336.860816 34.365306 
Q 336.067347 34.365306 334.579592 34.067755 
Q 333.091837 33.770204 332.298367 33.770204 
Q 329.521224 33.770204 327.587143 35.224898 
Q 325.653061 36.679592 325.653061 39.423673 
Q 325.653061 40.94449 327.140816 42.399184 
Q 328.628571 43.853878 330.562653 44.663878 
Q 332.496735 45.473878 333.98449 45.473878 
Q 334.910204 45.473878 335.60449 45.110204 
Q 336.298776 44.746531 337.042653 44.118367 
Q 337.786531 43.490204 338.348571 43.192653 
L 338.546939 42.696735 
" clip-path="url(#p3373b6ad01)" style="fill: none; stroke: #000000; stroke-linejoin: miter"/>
   </g>
  </g>
  <g id="axes_22">
   <g id="patch_20">
    <path d="M 351.5616 35.032717 
Q 350.51189 34.582841 349.537159 34.69531 
Q 346.500497 35.032717 344.588524 36.701007 
Q 342.676552 38.369297 342.676552 41.330979 
Q 342.676552 43.917766 344.682248 45.6048 
Q 346.687945 47.291834 349.312221 47.291834 
Q 351.674069 47.291834 352.798759 45.361117 
Q 353.923448 43.4304 353.923448 40.881103 
Q 353.923448 39.643945 353.511062 38.706703 
Q 353.098676 37.769462 352.573821 37.300841 
Q 352.048966 36.832221 351.299172 36.119917 
Q 350.549379 35.407614 350.099503 34.69531 
L 348.862345 34.245434 
" clip-path="url(#pd32e0c8c72)" style="fill: none; stroke: #000000; stroke-linejoin: miter"/>
   </g>
  </g>
  <g id="axes_23">
   <g id="patch_21">
    <path d="M 359.888772 35.145186 
Q 359.888772 35.145186 359.888772 35.595062 
Q 359.888772 36.269876 359.776303 37.619503 
Q 359.663834 38.969131 359.663834 39.643945 
Q 359.663834 41.930814 360.900993 43.599103 
Q 362.138152 45.267393 364.275062 45.267393 
Q 365.662179 45.154924 366.430717 43.917766 
Q 367.199255 42.680607 367.349214 41.237255 
Q 367.499172 39.793903 367.7616 37.9944 
Q 368.024028 36.194897 368.436414 35.370124 
Q 368.586372 35.070207 368.586372 35.670041 
Q 368.586372 36.269876 368.323945 38.706703 
Q 368.099007 41.031062 368.099007 41.555917 
Q 367.949048 42.643117 368.286455 43.767807 
Q 368.623862 44.892497 369.336166 45.6048 
" clip-path="url(#p75e387d0da)" style="fill: none; stroke: #000000; stroke-linejoin: miter"/>
   </g>
  </g>
  <g id="axes_24">
   <g id="patch_22">
    <path d="M 385.487191 39.096404 
Q 385.23236 39.023596 384.26764 38.623146 
Q 383.302921 38.222697 382.64764 38.077079 
Q 381.99236 37.931461 381.337079 38.00427 
Q 378.715955 38.00427 377.077753 40.388764 
Q 375.439551 42.773258 375.439551 45.430787 
Q 375.439551 47.068989 380.681798 47.068989 
Q 382.247191 47.068989 383.575955 45.558202 
Q 384.904719 44.047416 385.578202 42.172584 
Q 386.251685 40.297753 386.251685 38.768764 
Q 386.251685 37.27618 386.215281 36.984944 
L 386.142472 38.077079 
Q 386.142472 38.550337 386.142472 38.987191 
Q 386.178876 40.188539 386.379101 42.281798 
Q 386.579326 44.375056 386.743146 46.049663 
Q 386.906966 47.72427 386.943371 49.872135 
Q 386.979775 52.02 386.815955 53.658202 
Q 386.652135 55.296404 386.087865 56.971011 
Q 385.523596 58.645618 384.595281 59.737753 
Q 383.666966 60.829888 382.065169 61.521573 
Q 380.463371 62.213258 378.315506 62.213258 
Q 376.677303 62.213258 375.585169 61.466966 
Q 374.493034 60.720674 374.493034 59.155281 
Q 374.420225 58.936854 374.456629 58.936854 
Q 374.493034 58.936854 374.602247 58.936854 
Q 374.711461 58.936854 374.711461 58.82764 
" clip-path="url(#p5d88f86b1a)" style="fill: none; stroke: #000000; stroke-linejoin: miter"/>
   </g>
  </g>
  <g id="axes_25">
   <g id="patch_23">
    <path d="M 393.413462 35.932469 
Q 394.013297 35.257655 395.006772 34.826524 
Q 396.000248 34.395393 396.9 34.470372 
Q 397.537324 34.470372 398.02469 34.639076 
Q 398.512055 34.807779 398.830717 34.995228 
Q 399.149379 35.182676 399.374317 35.670041 
Q 399.599255 36.157407 399.711724 36.419834 
Q 399.824193 36.682262 399.880428 37.375821 
Q 399.936662 38.069379 399.955407 38.331807 
Q 399.974152 38.594234 399.955407 39.419007 
Q 399.936662 40.243779 399.936662 40.431228 
Q 399.936662 41.368469 399.767959 43.242952 
Q 399.599255 45.117434 399.599255 46.054676 
Q 399.599255 46.467062 399.65549 46.823214 
Q 399.711724 47.179366 399.805448 47.610497 
Q 399.899172 48.041628 399.936662 48.304055 
L 400.386538 48.528993 
M 393.863338 23.111007 
Q 394.088276 24.798041 394.088276 29.971614 
L 394.088276 42.3432 
L 393.750869 46.841959 
L 393.525931 47.74171 
" clip-path="url(#pf13fc399bc)" style="fill: none; stroke: #000000; stroke-linejoin: miter"/>
   </g>
  </g>
  <g id="axes_26">
   <g id="patch_24">
    <path d="M 413.718579 29.071862 
Q 413.343683 29.146841 413.212469 29.577972 
Q 413.081255 30.009103 413.156234 30.42149 
Q 413.156234 30.571448 413.193724 30.702662 
Q 413.231214 30.833876 413.287448 30.89011 
Q 413.343683 30.946345 413.399917 31.040069 
Q 413.456152 31.133793 413.493641 31.208772 
L 413.60611 29.859145 
M 413.60611 34.020497 
Q 412.706359 39.006621 412.481421 42.793076 
L 412.931297 45.379862 
L 413.268703 46.054676 
" clip-path="url(#pf5f644518b)" style="fill: none; stroke: #000000; stroke-linejoin: miter"/>
   </g>
  </g>
  <g id="axes_27">
   <g id="patch_25">
    <path d="M 424.838731 37.282097 
L 424.838731 37.844441 
Q 425.101159 39.868883 425.138648 41.312234 
Q 425.176138 42.755586 425.082414 44.667559 
Q 424.98869 46.579531 424.98869 48.191586 
L 425.063669 39.643945 
Q 425.063669 38.144359 426.656979 37.507034 
Q 428.25029 36.86971 429.674897 37.282097 
Q 431.586869 37.844441 432.505366 39.04411 
Q 433.423862 40.243779 433.480097 41.668386 
Q 433.536331 43.092993 433.573821 44.817517 
Q 433.61131 46.542041 433.761269 48.191586 
" clip-path="url(#pd2bf432bfd)" style="fill: none; stroke: #000000; stroke-linejoin: miter"/>
   </g>
  </g>
  <g id="axes_28">
   <g id="patch_26">
    <path d="M 450.287191 39.096404 
Q 450.03236 39.023596 449.06764 38.623146 
Q 448.102921 38.222697 447.44764 38.077079 
Q 446.79236 37.931461 446.137079 38.00427 
Q 443.515955 38.00427 441.877753 40.388764 
Q 440.239551 42.773258 440.239551 45.430787 
Q 440.239551 47.068989 445.481798 47.068989 
Q 447.047191 47.068989 448.375955 45.558202 
Q 449.704719 44.047416 450.378202 42.172584 
Q 451.051685 40.297753 451.051685 38.768764 
Q 451.051685 37.27618 451.015281 36.984944 
L 450.942472 38.077079 
Q 450.942472 38.550337 450.942472 38.987191 
Q 450.978876 40.188539 451.179101 42.281798 
Q 451.379326 44.375056 451.543146 46.049663 
Q 451.706966 47.72427 451.743371 49.872135 
Q 451.779775 52.02 451.615955 53.658202 
Q 451.452135 55.296404 450.887865 56.971011 
Q 450.323596 58.645618 449.395281 59.737753 
Q 448.466966 60.829888 446.865169 61.521573 
Q 445.263371 62.213258 443.115506 62.213258 
Q 441.477303 62.213258 440.385169 61.466966 
Q 439.293034 60.720674 439.293034 59.155281 
Q 439.220225 58.936854 439.256629 58.936854 
Q 439.293034 58.936854 439.402247 58.936854 
Q 439.511461 58.936854 439.511461 58.82764 
" clip-path="url(#pcce8c9ef06)" style="fill: none; stroke: #000000; stroke-linejoin: miter"/>
   </g>
  </g>
  <g id="axes_29"/>
  <g id="axes_30">
   <g id="patch_27">
    <path d="M 473.063834 37.95691 
L 473.738648 37.95691 
Q 474.450952 37.95691 475.238234 37.881931 
Q 476.025517 37.806952 476.981503 37.675738 
Q 477.93749 37.544524 478.462345 37.507034 
L 482.736166 35.82 
M 478.687283 30.42149 
L 478.687283 31.43371 
Q 478.687283 33.383172 478.012469 37.207117 
Q 477.337655 41.031062 477.337655 43.018014 
Q 477.337655 43.805297 477.337655 44.105214 
Q 477.337655 44.405131 477.431379 45.042455 
Q 477.525103 45.679779 477.712552 45.960952 
Q 477.9 46.242124 478.293641 46.485807 
Q 478.687283 46.72949 479.249628 46.72949 
Q 479.362097 46.692 479.680759 46.72949 
Q 479.999421 46.766979 480.186869 46.710745 
Q 480.374317 46.65451 480.374317 46.392083 
" clip-path="url(#pe798e0e082)" style="fill: none; stroke: #000000; stroke-linejoin: miter"/>
   </g>
  </g>
  <g id="axes_31">
   <g id="patch_28">
    <path d="M 497.3616 35.032717 
Q 496.31189 34.582841 495.337159 34.69531 
Q 492.300497 35.032717 490.388524 36.701007 
Q 488.476552 38.369297 488.476552 41.330979 
Q 488.476552 43.917766 490.482248 45.6048 
Q 492.487945 47.291834 495.112221 47.291834 
Q 497.474069 47.291834 498.598759 45.361117 
Q 499.723448 43.4304 499.723448 40.881103 
Q 499.723448 39.643945 499.311062 38.706703 
Q 498.898676 37.769462 498.373821 37.300841 
Q 497.848966 36.832221 497.099172 36.119917 
Q 496.349379 35.407614 495.899503 34.69531 
L 494.662345 34.245434 
" clip-path="url(#p778b2ca846)" style="fill: none; stroke: #000000; stroke-linejoin: miter"/>
   </g>
  </g>
  <g id="axes_32"/>
  <g id="axes_33">
   <g id="patch_29">
    <path d="M 531.756735 34.365306 
Q 531.756735 34.365306 531.260816 34.365306 
Q 530.467347 34.365306 528.979592 34.067755 
Q 527.491837 33.770204 526.698367 33.770204 
Q 523.921224 33.770204 521.987143 35.224898 
Q 520.053061 36.679592 520.053061 39.423673 
Q 520.053061 40.94449 521.540816 42.399184 
Q 523.028571 43.853878 524.962653 44.663878 
Q 526.896735 45.473878 528.38449 45.473878 
Q 529.310204 45.473878 530.00449 45.110204 
Q 530.698776 44.746531 531.442653 44.118367 
Q 532.186531 43.490204 532.748571 43.192653 
L 532.946939 42.696735 
" clip-path="url(#p6654d53b82)" style="fill: none; stroke: #000000; stroke-linejoin: miter"/>
   </g>
  </g>
  <g id="axes_34">
   <g id="patch_30">
    <path d="M 542.306359 28.621986 
Q 542.531297 30.34651 542.606276 32.146014 
Q 542.681255 33.945517 542.66251 36.551048 
Q 542.643766 39.156579 542.643766 40.093821 
Q 542.643766 40.13131 542.868703 45.829738 
L 543.093641 46.841959 
" clip-path="url(#p85e954100e)" style="fill: none; stroke: #000000; stroke-linejoin: miter"/>
   </g>
  </g>
  <g id="axes_35">
   <g id="patch_31">
    <path d="M 552.657798 38.160826 
Q 555.630275 39.535596 560.349083 39.721376 
Q 561.872477 39.721376 562.559862 38.550963 
Q 563.247248 37.38055 563.247248 35.82 
Q 563.247248 35.299817 563.154358 34.909679 
Q 563.061468 34.519541 562.819954 34.296606 
Q 562.57844 34.07367 562.411239 33.943624 
Q 562.244037 33.813578 561.798165 33.757844 
Q 561.352294 33.70211 561.147936 33.683532 
Q 560.943578 33.664954 560.367661 33.683532 
Q 559.791743 33.70211 559.568807 33.70211 
Q 557.525229 33.70211 556.038991 35.578486 
Q 554.552752 37.454862 554.552752 39.609908 
Q 554.552752 42.619541 556.484862 44.570229 
Q 558.416972 46.520917 561.463761 46.520917 
Q 563.618807 46.818165 565.142202 44.29156 
" clip-path="url(#p8a3b4d0438)" style="fill: none; stroke: #000000; stroke-linejoin: miter"/>
   </g>
  </g>
  <g id="axes_36">
   <g id="patch_32">
    <path d="M 580.643923 36.441748 
Q 579.434968 35.094627 575.462687 35.094627 
Q 573.942857 35.094627 573.165672 35.146439 
Q 572.388486 35.198252 571.38678 35.440043 
Q 570.385075 35.681834 569.901493 36.182687 
Q 569.41791 36.683539 569.072495 37.616162 
Q 568.727079 38.548785 568.727079 39.964989 
Q 568.727079 42.037484 570.143284 43.280981 
Q 571.559488 44.524478 573.493817 44.524478 
Q 576.153518 44.524478 578.916844 38.721493 
Q 580.263966 35.854542 580.263966 35.82 
Q 580.609382 35.578209 580.643923 36.441748 
Q 580.643923 37.512537 581.058422 40.362217 
Q 581.472921 43.211898 581.472921 44.524478 
" clip-path="url(#pfa5740c8f1)" style="fill: none; stroke: #000000; stroke-linejoin: miter"/>
   </g>
  </g>
  <g id="axes_37">
   <g id="patch_33">
    <path d="M 587.813462 32.783338 
Q 588.338317 34.507862 588.469531 36.457324 
Q 588.600745 38.406786 588.525766 40.956083 
Q 588.450786 43.505379 588.488276 44.705048 
L 588.600745 46.054676 
L 588.600745 45.829738 
Q 588.600745 44.667559 588.319572 42.30571 
Q 588.0384 39.943862 588.0384 38.744193 
Q 588.0384 36.419834 589.050621 34.882759 
Q 590.062841 33.345683 592.087283 33.345683 
Q 592.799586 33.345683 593.136993 33.626855 
Q 593.4744 33.908028 593.736828 34.432883 
Q 593.999255 34.957738 594.336662 35.257655 
L 594.786538 36.832221 
" clip-path="url(#p17dc08c851)" style="fill: none; stroke: #000000; stroke-linejoin: miter"/>
   </g>
  </g>
  <g id="axes_38"/>
  <g id="axes_39">
   <g id="patch_34">
    <path d="M 620.213462 35.932469 
Q 620.813297 35.257655 621.806772 34.826524 
Q 622.800248 34.395393 623.7 34.470372 
Q 624.337324 34.470372 624.82469 34.639076 
Q 625.312055 34.807779 625.630717 34.995228 
Q 625.949379 35.182676 626.174317 35.670041 
Q 626.399255 36.157407 626.511724 36.419834 
Q 626.624193 36.682262 626.680428 37.375821 
Q 626.736662 38.069379 626.755407 38.331807 
Q 626.774152 38.594234 626.755407 39.419007 
Q 626.736662 40.243779 626.736662 40.431228 
Q 626.736662 41.368469 626.567959 43.242952 
Q 626.399255 45.117434 626.399255 46.054676 
Q 626.399255 46.467062 626.45549 46.823214 
Q 626.511724 47.179366 626.605448 47.610497 
Q 626.699172 48.041628 626.736662 48.304055 
L 627.186538 48.528993 
M 620.663338 23.111007 
Q 620.888276 24.798041 620.888276 29.971614 
L 620.888276 42.3432 
L 620.550869 46.841959 
L 620.325931 47.74171 
" clip-path="url(#pb3b817604a)" style="fill: none; stroke: #000000; stroke-linejoin: miter"/>
   </g>
  </g>
  <g id="axes_40">
   <g id="patch_35">
    <path d="M 640.518579 29.071862 
Q 640.143683 29.146841 640.012469 29.577972 
Q 639.881255 30.009103 639.956234 30.42149 
Q 639.956234 30.571448 639.993724 30.702662 
Q 640.031214 30.833876 640.087448 30.89011 
Q 640.143683 30.946345 640.199917 31.040069 
Q 640.256152 31.133793 640.293641 31.208772 
L 640.40611 29.859145 
M 640.40611 34.020497 
Q 639.506359 39.006621 639.281421 42.793076 
L 639.731297 45.379862 
L 640.068703 46.054676 
" clip-path="url(#p1ebbc4f31c)" style="fill: none; stroke: #000000; stroke-linejoin: miter"/>
   </g>
  </g>
  <g id="axes_41">
   <g id="patch_36">
    <path d="M 651.657476 43.917766 
Q 651.957393 44.180193 652.969614 45.154924 
Q 653.981834 46.129655 654.544179 46.560786 
Q 655.106524 46.991917 656.13749 47.385559 
Q 657.168455 47.7792 658.180676 47.629241 
Q 658.85549 47.629241 659.32411 47.404303 
Q 659.792731 47.179366 660.017669 46.879448 
Q 660.242607 46.579531 660.373821 45.979697 
Q 660.505034 45.379862 660.523779 44.967476 
Q 660.542524 44.55509 660.542524 43.805297 
Q 660.542524 42.718097 659.642772 42.043283 
Q 658.743021 41.368469 657.449628 41.031062 
Q 656.156234 40.693655 654.862841 40.300014 
Q 653.569448 39.906372 652.669697 38.987876 
Q 651.769945 38.069379 651.769945 36.607283 
Q 651.769945 36.082428 651.938648 35.726276 
Q 652.107352 35.370124 652.500993 35.145186 
Q 652.894634 34.920248 653.175807 34.807779 
Q 653.456979 34.69531 654.113048 34.639076 
Q 654.769117 34.582841 654.956566 34.582841 
Q 655.144014 34.582841 655.818828 34.582841 
Q 657.018497 34.582841 657.599586 34.995228 
Q 658.180676 35.407614 658.499338 36.026193 
Q 658.818 36.644772 659.080428 36.832221 
" clip-path="url(#pee3409b442)" style="fill: none; stroke: #000000; stroke-linejoin: miter"/>
   </g>
  </g>
  <g id="axes_42"/>
  <g id="axes_43">
   <g id="patch_37">
    <path d="M 683.663834 37.95691 
L 684.338648 37.95691 
Q 685.050952 37.95691 685.838234 37.881931 
Q 686.625517 37.806952 687.581503 37.675738 
Q 688.53749 37.544524 689.062345 37.507034 
L 693.336166 35.82 
M 689.287283 30.42149 
L 689.287283 31.43371 
Q 689.287283 33.383172 688.612469 37.207117 
Q 687.937655 41.031062 687.937655 43.018014 
Q 687.937655 43.805297 687.937655 44.105214 
Q 687.937655 44.405131 688.031379 45.042455 
Q 688.125103 45.679779 688.312552 45.960952 
Q 688.5 46.242124 688.893641 46.485807 
Q 689.287283 46.72949 689.849628 46.72949 
Q 689.962097 46.692 690.280759 46.72949 
Q 690.599421 46.766979 690.786869 46.710745 
Q 690.974317 46.65451 690.974317 46.392083 
" clip-path="url(#pcda1bad0a2)" style="fill: none; stroke: #000000; stroke-linejoin: miter"/>
   </g>
  </g>
  <g id="axes_44">
   <g id="patch_38">
    <path d="M 701.213462 35.932469 
Q 701.813297 35.257655 702.806772 34.826524 
Q 703.800248 34.395393 704.7 34.470372 
Q 705.337324 34.470372 705.82469 34.639076 
Q 706.312055 34.807779 706.630717 34.995228 
Q 706.949379 35.182676 707.174317 35.670041 
Q 707.399255 36.157407 707.511724 36.419834 
Q 707.624193 36.682262 707.680428 37.375821 
Q 707.736662 38.069379 707.755407 38.331807 
Q 707.774152 38.594234 707.755407 39.419007 
Q 707.736662 40.243779 707.736662 40.431228 
Q 707.736662 41.368469 707.567959 43.242952 
Q 707.399255 45.117434 707.399255 46.054676 
Q 707.399255 46.467062 707.45549 46.823214 
Q 707.511724 47.179366 707.605448 47.610497 
Q 707.699172 48.041628 707.736662 48.304055 
L 708.186538 48.528993 
M 701.663338 23.111007 
Q 701.888276 24.798041 701.888276 29.971614 
L 701.888276 42.3432 
L 701.550869 46.841959 
L 701.325931 47.74171 
" clip-path="url(#pc97c7c6e68)" style="fill: none; stroke: #000000; stroke-linejoin: miter"/>
   </g>
  </g>
  <g id="axes_45">
   <g id="patch_39">
    <path d="M 717.413462 32.783338 
Q 717.938317 34.507862 718.069531 36.457324 
Q 718.200745 38.406786 718.125766 40.956083 
Q 718.050786 43.505379 718.088276 44.705048 
L 718.200745 46.054676 
L 718.200745 45.829738 
Q 718.200745 44.667559 717.919572 42.30571 
Q 717.6384 39.943862 717.6384 38.744193 
Q 717.6384 36.419834 718.650621 34.882759 
Q 719.662841 33.345683 721.687283 33.345683 
Q 722.399586 33.345683 722.736993 33.626855 
Q 723.0744 33.908028 723.336828 34.432883 
Q 723.599255 34.957738 723.936662 35.257655 
L 724.386538 36.832221 
" clip-path="url(#pf0ac290739)" style="fill: none; stroke: #000000; stroke-linejoin: miter"/>
   </g>
  </g>
  <g id="axes_46">
   <g id="patch_40">
    <path d="M 740.3616 35.032717 
Q 739.31189 34.582841 738.337159 34.69531 
Q 735.300497 35.032717 733.388524 36.701007 
Q 731.476552 38.369297 731.476552 41.330979 
Q 731.476552 43.917766 733.482248 45.6048 
Q 735.487945 47.291834 738.112221 47.291834 
Q 740.474069 47.291834 741.598759 45.361117 
Q 742.723448 43.4304 742.723448 40.881103 
Q 742.723448 39.643945 742.311062 38.706703 
Q 741.898676 37.769462 741.373821 37.300841 
Q 740.848966 36.832221 740.099172 36.119917 
Q 739.349379 35.407614 738.899503 34.69531 
L 737.662345 34.245434 
" clip-path="url(#p2540f55023)" style="fill: none; stroke: #000000; stroke-linejoin: miter"/>
   </g>
  </g>
  <g id="axes_47">
   <g id="patch_41">
    <path d="M 758.843923 36.441748 
Q 757.634968 35.094627 753.662687 35.094627 
Q 752.142857 35.094627 751.365672 35.146439 
Q 750.588486 35.198252 749.58678 35.440043 
Q 748.585075 35.681834 748.101493 36.182687 
Q 747.61791 36.683539 747.272495 37.616162 
Q 746.927079 38.548785 746.927079 39.964989 
Q 746.927079 42.037484 748.343284 43.280981 
Q 749.759488 44.524478 751.693817 44.524478 
Q 754.353518 44.524478 757.116844 38.721493 
Q 758.463966 35.854542 758.463966 35.82 
Q 758.809382 35.578209 758.843923 36.441748 
Q 758.843923 37.512537 759.258422 40.362217 
Q 759.672921 43.211898 759.672921 44.524478 
" clip-path="url(#p509f88e172)" style="fill: none; stroke: #000000; stroke-linejoin: miter"/>
   </g>
  </g>
  <g id="axes_48">
   <g id="patch_42">
    <path d="M 764.663834 37.95691 
L 765.338648 37.95691 
Q 766.050952 37.95691 766.838234 37.881931 
Q 767.625517 37.806952 768.581503 37.675738 
Q 769.53749 37.544524 770.062345 37.507034 
L 774.336166 35.82 
M 770.287283 30.42149 
L 770.287283 31.43371 
Q 770.287283 33.383172 769.612469 37.207117 
Q 768.937655 41.031062 768.937655 43.018014 
Q 768.937655 43.805297 768.937655 44.105214 
Q 768.937655 44.405131 769.031379 45.042455 
Q 769.125103 45.679779 769.312552 45.960952 
Q 769.5 46.242124 769.893641 46.485807 
Q 770.287283 46.72949 770.849628 46.72949 
Q 770.962097 46.692 771.280759 46.72949 
Q 771.599421 46.766979 771.786869 46.710745 
Q 771.974317 46.65451 771.974317 46.392083 
" clip-path="url(#p4d16454143)" style="fill: none; stroke: #000000; stroke-linejoin: miter"/>
   </g>
  </g>
  <g id="axes_49">
   <g id="patch_43">
    <path d="M 785.587531 45.979697 
Q 785.550041 46.017186 785.418828 46.054676 
Q 785.287614 46.092166 785.325103 46.167145 
Q 785.325103 46.579531 785.7 46.579531 
Q 786.037407 46.579531 786.037407 46.092166 
Q 786.112386 45.867228 785.831214 45.754759 
Q 785.550041 45.64229 785.362593 45.754759 
" clip-path="url(#p5e729145f6)" style="fill: none; stroke: #000000; stroke-linejoin: miter"/>
   </g>
  </g>
 </g>
 <defs>
  <clipPath id="p0958440da4">
   <rect x="0" y="10.777356" width="16.2" height="50.085288"/>
  </clipPath>
  <clipPath id="pd7d94c5dcd">
   <rect x="17.964248" y="8.64" width="12.671503" height="54.36"/>
  </clipPath>
  <clipPath id="p77ecc27580">
   <rect x="33.451945" y="8.64" width="14.09611" height="54.36"/>
  </clipPath>
  <clipPath id="p0553011256">
   <rect x="48.6" y="10.936525" width="16.2" height="49.766949"/>
  </clipPath>
  <clipPath id="pe4cfd74dca">
   <rect x="64.8" y="10.777356" width="16.2" height="50.085288"/>
  </clipPath>
  <clipPath id="pc0dba68038">
   <rect x="82.051945" y="8.64" width="14.09611" height="54.36"/>
  </clipPath>
  <clipPath id="p7b77712739">
   <rect x="98.476883" y="8.64" width="13.646234" height="54.36"/>
  </clipPath>
  <clipPath id="p6c1b36f44c">
   <rect x="118.725766" y="8.64" width="5.548469" height="54.36"/>
  </clipPath>
  <clipPath id="p56a46fa491">
   <rect x="145.8" y="10.777356" width="16.2" height="50.085288"/>
  </clipPath>
  <clipPath id="p335b8511d3">
   <rect x="163.782993" y="8.64" width="12.634014" height="54.36"/>
  </clipPath>
  <clipPath id="pba794b4cd4">
   <rect x="179.982993" y="8.64" width="12.634014" height="54.36"/>
  </clipPath>
  <clipPath id="p02df1d6ed2">
   <rect x="196.182993" y="8.64" width="12.634014" height="54.36"/>
  </clipPath>
  <clipPath id="pa7df572e50">
   <rect x="226.8" y="12.969805" width="16.2" height="45.700389"/>
  </clipPath>
  <clipPath id="p1eff7eba58">
   <rect x="244.389352" y="8.64" width="13.421297" height="54.36"/>
  </clipPath>
  <clipPath id="pd8d82798e4">
   <rect x="261.938979" y="8.64" width="10.722041" height="54.36"/>
  </clipPath>
  <clipPath id="p908bb9ccec">
   <rect x="276.789352" y="8.64" width="13.421297" height="54.36"/>
  </clipPath>
  <clipPath id="pa005657954">
   <rect x="297.000745" y="8.64" width="5.39851" height="54.36"/>
  </clipPath>
  <clipPath id="p3373b6ad01">
   <rect x="324" y="11.850612" width="16.2" height="47.938776"/>
  </clipPath>
  <clipPath id="pd32e0c8c72">
   <rect x="340.802069" y="8.64" width="14.995862" height="54.36"/>
  </clipPath>
  <clipPath id="p75e387d0da">
   <rect x="357.789352" y="8.64" width="13.421297" height="54.36"/>
  </clipPath>
  <clipPath id="p5d88f86b1a">
   <rect x="372.6" y="9.426742" width="16.2" height="52.786517"/>
  </clipPath>
  <clipPath id="pf13fc399bc">
   <rect x="391.538979" y="8.64" width="10.722041" height="54.36"/>
  </clipPath>
  <clipPath id="pf5f644518b">
   <rect x="410.606938" y="8.64" width="4.986124" height="54.36"/>
  </clipPath>
  <clipPath id="pd2bf432bfd">
   <rect x="422.964248" y="8.64" width="12.671503" height="54.36"/>
  </clipPath>
  <clipPath id="pcce8c9ef06">
   <rect x="437.4" y="9.426742" width="16.2" height="52.786517"/>
  </clipPath>
  <clipPath id="pe798e0e082">
   <rect x="471.189352" y="8.64" width="13.421297" height="54.36"/>
  </clipPath>
  <clipPath id="p778b2ca846">
   <rect x="486.602069" y="8.64" width="14.995862" height="54.36"/>
  </clipPath>
  <clipPath id="p6654d53b82">
   <rect x="518.4" y="11.850612" width="16.2" height="47.938776"/>
  </clipPath>
  <clipPath id="p85e954100e">
   <rect x="540.431876" y="8.64" width="4.536248" height="54.36"/>
  </clipPath>
  <clipPath id="p8a3b4d0438">
   <rect x="550.8" y="8.881927" width="16.2" height="53.876147"/>
  </clipPath>
  <clipPath id="pfa5740c8f1">
   <rect x="567" y="10.777356" width="16.2" height="50.085288"/>
  </clipPath>
  <clipPath id="p17dc08c851">
   <rect x="585.938979" y="8.64" width="10.722041" height="54.36"/>
  </clipPath>
  <clipPath id="pb3b817604a">
   <rect x="618.338979" y="8.64" width="10.722041" height="54.36"/>
  </clipPath>
  <clipPath id="p1ebbc4f31c">
   <rect x="637.406938" y="8.64" width="4.986124" height="54.36"/>
  </clipPath>
  <clipPath id="pee3409b442">
   <rect x="649.782993" y="8.64" width="12.634014" height="54.36"/>
  </clipPath>
  <clipPath id="pcda1bad0a2">
   <rect x="681.789352" y="8.64" width="13.421297" height="54.36"/>
  </clipPath>
  <clipPath id="pc97c7c6e68">
   <rect x="699.338979" y="8.64" width="10.722041" height="54.36"/>
  </clipPath>
  <clipPath id="pf0ac290739">
   <rect x="715.538979" y="8.64" width="10.722041" height="54.36"/>
  </clipPath>
  <clipPath id="p2540f55023">
   <rect x="729.602069" y="8.64" width="14.995862" height="54.36"/>
  </clipPath>
  <clipPath id="p509f88e172">
   <rect x="745.2" y="10.777356" width="16.2" height="50.085288"/>
  </clipPath>
  <clipPath id="p4d16454143">
   <rect x="762.789352" y="8.64" width="13.421297" height="54.36"/>
  </clipPath>
  <clipPath id="p5e729145f6">
   <rect x="783.413131" y="8.64" width="4.573738" height="54.36"/>
  </clipPath>
 </defs>
</svg>
