<?xml version="1.0" encoding="utf-8" standalone="no"?>
<!DOCTYPE svg PUBLIC "-//W3C//DTD SVG 1.1//EN"
  "http://www.w3.org/Graphics/SVG/1.1/DTD/svg11.dtd">
<svg xmlns:xlink="http://www.w3.org/1999/xlink" width="882pt" height="72pt" viewBox="0 0 882 72" xmlns="http://www.w3.org/2000/svg" version="1.1">
 <metadata>
  <rdf:RDF xmlns:dc="http://purl.org/dc/elements/1.1/" xmlns:cc="http://creativecommons.org/ns#" xmlns:rdf="http://www.w3.org/1999/02/22-rdf-syntax-ns#">
   <cc:Work>
    <dc:type rdf:resource="http://purl.org/dc/dcmitype/StillImage"/>
    <dc:date>2023-12-21T12:08:30.563950</dc:date>
    <dc:format>image/svg+xml</dc:format>
    <dc:creator>
     <cc:Agent>
      <dc:title>Matplotlib v3.5.1, https://matplotlib.org/</dc:title>
     </cc:Agent>
    </dc:creator>
   </cc:Work>
  </rdf:RDF>
 </metadata>
 <defs>
  <style type="text/css">*{stroke-linejoin: round; stroke-linecap: butt}</style>
 </defs>
 <g id="figure_1">
  <g id="patch_1">
   <path d="M 0 72 
L 882 72 
L 882 0 
L 0 0 
z
" style="fill: #8fff9f"/>
  </g>
  <g id="axes_1">
   <g id="patch_2">
    <path d="M 3.488772 35.145186 
Q 3.488772 35.145186 3.488772 35.595062 
Q 3.488772 36.269876 3.376303 37.619503 
Q 3.263834 38.969131 3.263834 39.643945 
Q 3.263834 41.930814 4.500993 43.599103 
Q 5.738152 45.267393 7.875062 45.267393 
Q 9.262179 45.154924 10.030717 43.917766 
Q 10.799255 42.680607 10.949214 41.237255 
Q 11.099172 39.793903 11.3616 37.9944 
Q 11.624028 36.194897 12.036414 35.370124 
Q 12.186372 35.070207 12.186372 35.670041 
Q 12.186372 36.269876 11.923945 38.706703 
Q 11.699007 41.031062 11.699007 41.555917 
Q 11.549048 42.643117 11.886455 43.767807 
Q 12.223862 44.892497 12.936166 45.6048 
" clip-path="url(#pcb43b1f3cf)" style="fill: none; stroke: #000000; stroke-linejoin: miter"/>
   </g>
  </g>
  <g id="axes_2">
   <g id="patch_3">
    <path d="M 19.520069 39.868883 
L 19.520069 39.419007 
Q 19.520069 37.769462 21.263338 36.682262 
Q 23.006607 35.595062 24.693641 35.595062 
Q 26.905531 35.595062 28.273903 36.794731 
Q 29.642276 37.9944 29.642276 40.20629 
Q 29.642276 42.30571 27.824028 43.336676 
Q 26.005779 44.367641 23.79389 44.367641 
Q 23.119076 44.367641 22.612966 44.255172 
Q 22.106855 44.142703 21.488276 43.917766 
Q 20.869697 43.692828 20.419821 43.580359 
L 19.295131 42.568138 
M 18.957724 36.832221 
Q 19.4076 38.444276 19.670028 40.262524 
Q 19.932455 42.080772 19.98869 43.749062 
Q 20.044924 45.417352 20.082414 47.27309 
Q 20.119903 49.128828 20.082414 50.778372 
L 19.969945 57.863917 
" clip-path="url(#p0d2193a8e4)" style="fill: none; stroke: #000000; stroke-linejoin: miter"/>
   </g>
  </g>
  <g id="axes_3"/>
  <g id="axes_4">
   <g id="patch_4">
    <path d="M 50.384141 38.85304 
L 50.812335 38.85304 
Q 51.63304 38.85304 52.596476 38.745991 
Q 53.559912 38.638943 54.719604 38.460529 
Q 55.879295 38.282115 56.485903 38.210749 
L 63.015859 35.427489 
M 62.694714 25.793128 
Q 62.409251 25.721762 61.374449 25.275727 
Q 60.339648 24.829692 59.697357 24.93674 
Q 59.055066 24.93674 58.537665 25.150837 
Q 58.020264 25.364934 57.681278 25.793128 
Q 57.342291 26.221322 57.07467 26.685198 
Q 56.807048 27.149075 56.664317 27.862731 
Q 56.521586 28.576388 56.414537 29.129471 
Q 56.307489 29.682555 56.289648 30.50326 
Q 56.271806 31.323965 56.253965 31.77 
Q 56.236123 32.216035 56.253965 32.965374 
Q 56.271806 33.714714 56.271806 33.928811 
Q 56.271806 36.605022 56.967621 41.850396 
Q 57.663436 47.095771 57.663436 49.771982 
Q 57.59207 50.057445 57.556388 50.681894 
Q 57.520705 51.306344 57.413656 51.805903 
Q 57.306608 52.305463 57.021145 52.555242 
" clip-path="url(#p3ad9e435a9)" style="fill: none; stroke: #000000; stroke-linejoin: miter"/>
   </g>
  </g>
  <g id="axes_5">
   <g id="patch_5">
    <path d="M 69.413462 32.783338 
Q 69.938317 34.507862 70.069531 36.457324 
Q 70.200745 38.406786 70.125766 40.956083 
Q 70.050786 43.505379 70.088276 44.705048 
L 70.200745 46.054676 
L 70.200745 45.829738 
Q 70.200745 44.667559 69.919572 42.30571 
Q 69.6384 39.943862 69.6384 38.744193 
Q 69.6384 36.419834 70.650621 34.882759 
Q 71.662841 33.345683 73.687283 33.345683 
Q 74.399586 33.345683 74.736993 33.626855 
Q 75.0744 33.908028 75.336828 34.432883 
Q 75.599255 34.957738 75.936662 35.257655 
L 76.386538 36.832221 
" clip-path="url(#p94914770f7)" style="fill: none; stroke: #000000; stroke-linejoin: miter"/>
   </g>
  </g>
  <g id="axes_6">
   <g id="patch_6">
    <path d="M 92.3616 35.032717 
Q 91.31189 34.582841 90.337159 34.69531 
Q 87.300497 35.032717 85.388524 36.701007 
Q 83.476552 38.369297 83.476552 41.330979 
Q 83.476552 43.917766 85.482248 45.6048 
Q 87.487945 47.291834 90.112221 47.291834 
Q 92.474069 47.291834 93.598759 45.361117 
Q 94.723448 43.4304 94.723448 40.881103 
Q 94.723448 39.643945 94.311062 38.706703 
Q 93.898676 37.769462 93.373821 37.300841 
Q 92.848966 36.832221 92.099172 36.119917 
Q 91.349379 35.407614 90.899503 34.69531 
L 89.662345 34.245434 
" clip-path="url(#pc171fcf221)" style="fill: none; stroke: #000000; stroke-linejoin: miter"/>
   </g>
  </g>
  <g id="axes_7">
   <g id="patch_7">
    <path d="M 99.008036 34.879821 
Q 99.514286 36.073125 99.803571 42.871339 
Q 99.948214 46.632054 100.2375 46.632054 
Q 100.273661 46.632054 100.309821 46.595893 
Q 100.816071 46.017321 100.870313 44.588973 
Q 100.924554 43.160625 100.707589 41.750357 
Q 100.490625 40.340089 100.2375 38.712857 
Q 99.984375 37.085625 99.984375 36.398571 
Q 99.984375 35.169107 100.364063 33.939643 
Q 100.74375 32.710179 101.720089 32.710179 
Q 102.949554 32.710179 103.672768 34.355491 
Q 104.395982 36.000804 104.558705 37.971563 
Q 104.721429 39.942321 104.829911 41.587634 
Q 104.938393 43.232946 105.083036 43.232946 
Q 105.227679 43.232946 105.31808 41.497232 
Q 105.408482 39.761518 105.535045 37.700357 
Q 105.661607 35.639196 106.384821 33.903482 
Q 107.108036 32.167768 108.3375 32.167768 
Q 109.892411 33.035625 110.561384 34.771339 
Q 111.230357 36.507054 111.194196 38.188527 
Q 111.158036 39.87 111.176116 42.057723 
Q 111.194196 44.245446 111.591964 45.511071 
" clip-path="url(#p2071bb59ad)" style="fill: none; stroke: #000000; stroke-linejoin: miter"/>
   </g>
  </g>
  <g id="axes_8"/>
  <g id="axes_9">
   <g id="patch_8">
    <path d="M 143.290534 37.074733 
L 139.944578 37.158382 
L 142.621343 37.158382 
Q 142.649225 37.158382 142.858348 37.144441 
Q 143.06747 37.130499 143.234768 37.144441 
Q 143.402065 37.158382 143.611188 37.172324 
Q 143.82031 37.186265 143.931842 37.242031 
Q 144.043373 37.297797 144.043373 37.409329 
L 144.043373 41.340826 
Q 144.238554 42.205198 144.252496 43.585404 
Q 144.266437 44.965611 144.405852 45.718451 
M 143.708778 28.207952 
Q 140.920482 27.34358 139.024441 27.538761 
Q 130.994148 27.538761 130.994148 35.82 
Q 130.994148 37.074733 131.4821 38.678003 
Q 131.970052 40.281274 132.778657 41.759071 
Q 133.587263 43.236867 134.841997 44.254596 
Q 136.09673 45.272324 137.435112 45.272324 
Q 138.494664 45.272324 139.498451 44.533425 
Q 140.502238 43.794527 141.129604 42.88833 
Q 141.756971 41.982134 142.551635 40.824991 
Q 143.346299 39.667849 143.876076 39.165955 
L 143.708778 37.409329 
L 143.290534 37.074733 
" clip-path="url(#p3007efafdd)" style="fill: none; stroke: #000000; stroke-linejoin: miter"/>
   </g>
  </g>
  <g id="axes_10">
   <g id="patch_9">
    <path d="M 150.413462 32.783338 
Q 150.938317 34.507862 151.069531 36.457324 
Q 151.200745 38.406786 151.125766 40.956083 
Q 151.050786 43.505379 151.088276 44.705048 
L 151.200745 46.054676 
L 151.200745 45.829738 
Q 151.200745 44.667559 150.919572 42.30571 
Q 150.6384 39.943862 150.6384 38.744193 
Q 150.6384 36.419834 151.650621 34.882759 
Q 152.662841 33.345683 154.687283 33.345683 
Q 155.399586 33.345683 155.736993 33.626855 
Q 156.0744 33.908028 156.336828 34.432883 
Q 156.599255 34.957738 156.936662 35.257655 
L 157.386538 36.832221 
" clip-path="url(#pfeebd79f9e)" style="fill: none; stroke: #000000; stroke-linejoin: miter"/>
   </g>
  </g>
  <g id="axes_11">
   <g id="patch_10">
    <path d="M 170.718579 29.071862 
Q 170.343683 29.146841 170.212469 29.577972 
Q 170.081255 30.009103 170.156234 30.42149 
Q 170.156234 30.571448 170.193724 30.702662 
Q 170.231214 30.833876 170.287448 30.89011 
Q 170.343683 30.946345 170.399917 31.040069 
Q 170.456152 31.133793 170.493641 31.208772 
L 170.60611 29.859145 
M 170.60611 34.020497 
Q 169.706359 39.006621 169.481421 42.793076 
L 169.931297 45.379862 
L 170.268703 46.054676 
" clip-path="url(#p040d4c8106)" style="fill: none; stroke: #000000; stroke-linejoin: miter"/>
   </g>
  </g>
  <g id="axes_12">
   <g id="patch_11">
    <path d="M 180.008036 34.879821 
Q 180.514286 36.073125 180.803571 42.871339 
Q 180.948214 46.632054 181.2375 46.632054 
Q 181.273661 46.632054 181.309821 46.595893 
Q 181.816071 46.017321 181.870313 44.588973 
Q 181.924554 43.160625 181.707589 41.750357 
Q 181.490625 40.340089 181.2375 38.712857 
Q 180.984375 37.085625 180.984375 36.398571 
Q 180.984375 35.169107 181.364063 33.939643 
Q 181.74375 32.710179 182.720089 32.710179 
Q 183.949554 32.710179 184.672768 34.355491 
Q 185.395982 36.000804 185.558705 37.971562 
Q 185.721429 39.942321 185.829911 41.587634 
Q 185.938393 43.232946 186.083036 43.232946 
Q 186.227679 43.232946 186.31808 41.497232 
Q 186.408482 39.761518 186.535045 37.700357 
Q 186.661607 35.639196 187.384821 33.903482 
Q 188.108036 32.167768 189.3375 32.167768 
Q 190.892411 33.035625 191.561384 34.771339 
Q 192.230357 36.507054 192.194196 38.188527 
Q 192.158036 39.87 192.176116 42.057723 
Q 192.194196 44.245446 192.591964 45.511071 
" clip-path="url(#p43efe2596e)" style="fill: none; stroke: #000000; stroke-linejoin: miter"/>
   </g>
  </g>
  <g id="axes_13">
   <g id="patch_12">
    <path d="M 198.057476 43.917766 
Q 198.357393 44.180193 199.369614 45.154924 
Q 200.381834 46.129655 200.944179 46.560786 
Q 201.506524 46.991917 202.53749 47.385559 
Q 203.568455 47.7792 204.580676 47.629241 
Q 205.25549 47.629241 205.72411 47.404303 
Q 206.192731 47.179366 206.417669 46.879448 
Q 206.642607 46.579531 206.773821 45.979697 
Q 206.905034 45.379862 206.923779 44.967476 
Q 206.942524 44.55509 206.942524 43.805297 
Q 206.942524 42.718097 206.042772 42.043283 
Q 205.143021 41.368469 203.849628 41.031062 
Q 202.556234 40.693655 201.262841 40.300014 
Q 199.969448 39.906372 199.069697 38.987876 
Q 198.169945 38.069379 198.169945 36.607283 
Q 198.169945 36.082428 198.338648 35.726276 
Q 198.507352 35.370124 198.900993 35.145186 
Q 199.294634 34.920248 199.575807 34.807779 
Q 199.856979 34.69531 200.513048 34.639076 
Q 201.169117 34.582841 201.356566 34.582841 
Q 201.544014 34.582841 202.218828 34.582841 
Q 203.418497 34.582841 203.999586 34.995228 
Q 204.580676 35.407614 204.899338 36.026193 
Q 205.218 36.644772 205.480428 36.832221 
" clip-path="url(#pc3901ebbbb)" style="fill: none; stroke: #000000; stroke-linejoin: miter"/>
   </g>
  </g>
  <g id="axes_14">
   <g id="patch_13">
    <path d="M 215.157228 37.244607 
Q 216.206938 37.207117 216.394386 37.132138 
Q 219.805945 37.132138 221.586703 39.212814 
Q 223.367462 41.29349 223.367462 44.780028 
Q 223.367462 47.704221 218.756234 47.704221 
Q 218.11891 47.704221 217.57531 47.591752 
Q 217.03171 47.479283 216.394386 47.254345 
Q 215.757062 47.029407 215.269697 46.916938 
L 214.032538 45.679779 
M 215.044759 25.435366 
L 215.044759 26.560055 
Q 215.044759 29.409269 215.157228 33.008276 
Q 215.269697 36.607283 215.457145 40.899848 
Q 215.644593 45.192414 215.719572 47.141876 
" clip-path="url(#p4809781134)" style="fill: none; stroke: #000000; stroke-linejoin: miter"/>
   </g>
  </g>
  <g id="axes_15">
   <g id="patch_14">
    <path d="M 229.763917 36.382345 
Q 229.726428 36.494814 229.857641 36.701007 
Q 229.988855 36.9072 229.876386 37.057159 
L 229.876386 39.306538 
Q 229.876386 40.506207 230.213793 41.724621 
Q 230.5512 42.943034 231.413462 43.93651 
Q 232.275724 44.929986 233.475393 44.929986 
Q 234.712552 44.929986 235.387366 43.861531 
Q 236.062179 42.793076 236.512055 41.143531 
Q 236.961931 39.493986 237.299338 38.969131 
L 238.086621 36.382345 
L 237.861683 42.680607 
L 237.861683 45.154924 
Q 237.861683 47.066897 238.592731 51.00331 
Q 239.323779 54.939724 239.323779 56.964166 
Q 240.073572 59.213545 238.986372 60.188276 
Q 237.899172 61.163007 235.837241 60.78811 
Q 234.037738 60.488193 233.119241 60.169531 
Q 232.200745 59.850869 230.213793 58.988607 
L 230.101324 58.426262 
" clip-path="url(#p24c96c20ee)" style="fill: none; stroke: #000000; stroke-linejoin: miter"/>
   </g>
  </g>
  <g id="axes_16">
   <g id="patch_15">
    <path d="M 250.51891 38.669214 
Q 250.51891 38.631724 250.406441 38.612979 
Q 250.293972 38.594234 250.293972 38.519255 
Q 250.293972 38.144359 251.006276 38.144359 
Q 251.906028 38.144359 251.906028 40.056331 
Q 251.906028 40.093821 251.68109 41.256 
L 250.893807 43.242952 
M 250.856317 33.795559 
Q 250.706359 33.795559 250.706359 34.057986 
Q 250.706359 34.320414 250.931297 34.320414 
Q 251.231214 34.320414 251.268703 34.020497 
Q 251.268703 33.945517 251.268703 33.908028 
Q 251.306193 33.6456 251.268703 33.570621 
Q 251.231214 33.495641 250.968786 33.308193 
" clip-path="url(#p57d20b8ac9)" style="fill: none; stroke: #000000; stroke-linejoin: miter"/>
   </g>
  </g>
  <g id="axes_17"/>
  <g id="axes_18">
   <g id="patch_16">
    <path d="M 284.118579 29.071862 
Q 283.743683 29.146841 283.612469 29.577972 
Q 283.481255 30.009103 283.556234 30.42149 
Q 283.556234 30.571448 283.593724 30.702662 
Q 283.631214 30.833876 283.687448 30.89011 
Q 283.743683 30.946345 283.799917 31.040069 
Q 283.856152 31.133793 283.893641 31.208772 
L 284.00611 29.859145 
M 284.00611 34.020497 
Q 283.106359 39.006621 282.881421 42.793076 
L 283.331297 45.379862 
L 283.668703 46.054676 
" clip-path="url(#p81d425b7fa)" style="fill: none; stroke: #000000; stroke-linejoin: miter"/>
   </g>
  </g>
  <g id="axes_19">
   <g id="patch_17">
    <path d="M 294.863834 37.95691 
L 295.538648 37.95691 
Q 296.250952 37.95691 297.038234 37.881931 
Q 297.825517 37.806952 298.781503 37.675738 
Q 299.73749 37.544524 300.262345 37.507034 
L 304.536166 35.82 
M 300.487283 30.42149 
L 300.487283 31.43371 
Q 300.487283 33.383172 299.812469 37.207117 
Q 299.137655 41.031062 299.137655 43.018014 
Q 299.137655 43.805297 299.137655 44.105214 
Q 299.137655 44.405131 299.231379 45.042455 
Q 299.325103 45.679779 299.512552 45.960952 
Q 299.7 46.242124 300.093641 46.485807 
Q 300.487283 46.72949 301.049628 46.72949 
Q 301.162097 46.692 301.480759 46.72949 
Q 301.799421 46.766979 301.986869 46.710745 
Q 302.174317 46.65451 302.174317 46.392083 
" clip-path="url(#pc59b4a00c8)" style="fill: none; stroke: #000000; stroke-linejoin: miter"/>
   </g>
  </g>
  <g id="axes_20">
   <g id="patch_18">
    <path d="M 315.825021 26.147669 
Q 315.787531 26.597545 315.825021 27.384828 
Q 315.86251 27.572276 315.806276 27.965917 
Q 315.750041 28.359559 315.787531 28.678221 
Q 315.825021 28.996883 316.049959 29.184331 
" clip-path="url(#p5c403a8853)" style="fill: none; stroke: #000000; stroke-linejoin: miter"/>
   </g>
  </g>
  <g id="axes_21">
   <g id="patch_19">
    <path d="M 327.657476 43.917766 
Q 327.957393 44.180193 328.969614 45.154924 
Q 329.981834 46.129655 330.544179 46.560786 
Q 331.106524 46.991917 332.13749 47.385559 
Q 333.168455 47.7792 334.180676 47.629241 
Q 334.85549 47.629241 335.32411 47.404303 
Q 335.792731 47.179366 336.017669 46.879448 
Q 336.242607 46.579531 336.373821 45.979697 
Q 336.505034 45.379862 336.523779 44.967476 
Q 336.542524 44.55509 336.542524 43.805297 
Q 336.542524 42.718097 335.642772 42.043283 
Q 334.743021 41.368469 333.449628 41.031062 
Q 332.156234 40.693655 330.862841 40.300014 
Q 329.569448 39.906372 328.669697 38.987876 
Q 327.769945 38.069379 327.769945 36.607283 
Q 327.769945 36.082428 327.938648 35.726276 
Q 328.107352 35.370124 328.500993 35.145186 
Q 328.894634 34.920248 329.175807 34.807779 
Q 329.456979 34.69531 330.113048 34.639076 
Q 330.769117 34.582841 330.956566 34.582841 
Q 331.144014 34.582841 331.818828 34.582841 
Q 333.018497 34.582841 333.599586 34.995228 
Q 334.180676 35.407614 334.499338 36.026193 
Q 334.818 36.644772 335.080428 36.832221 
" clip-path="url(#p70c5dd7d28)" style="fill: none; stroke: #000000; stroke-linejoin: miter"/>
   </g>
  </g>
  <g id="axes_22"/>
  <g id="axes_23">
   <g id="patch_20">
    <path d="M 358.208036 34.879821 
Q 358.714286 36.073125 359.003571 42.871339 
Q 359.148214 46.632054 359.4375 46.632054 
Q 359.473661 46.632054 359.509821 46.595893 
Q 360.016071 46.017321 360.070312 44.588973 
Q 360.124554 43.160625 359.907589 41.750357 
Q 359.690625 40.340089 359.4375 38.712857 
Q 359.184375 37.085625 359.184375 36.398571 
Q 359.184375 35.169107 359.564062 33.939643 
Q 359.94375 32.710179 360.920089 32.710179 
Q 362.149554 32.710179 362.872768 34.355491 
Q 363.595982 36.000804 363.758705 37.971562 
Q 363.921429 39.942321 364.029911 41.587634 
Q 364.138393 43.232946 364.283036 43.232946 
Q 364.427679 43.232946 364.51808 41.497232 
Q 364.608482 39.761518 364.735045 37.700357 
Q 364.861607 35.639196 365.584821 33.903482 
Q 366.308036 32.167768 367.5375 32.167768 
Q 369.092411 33.035625 369.761384 34.771339 
Q 370.430357 36.507054 370.394196 38.188527 
Q 370.358036 39.87 370.376116 42.057723 
Q 370.394196 44.245446 370.791964 45.511071 
" clip-path="url(#pa4b944d1ab)" style="fill: none; stroke: #000000; stroke-linejoin: miter"/>
   </g>
  </g>
  <g id="axes_24">
   <g id="patch_21">
    <path d="M 375.563917 36.382345 
Q 375.526428 36.494814 375.657641 36.701007 
Q 375.788855 36.9072 375.676386 37.057159 
L 375.676386 39.306538 
Q 375.676386 40.506207 376.013793 41.724621 
Q 376.3512 42.943034 377.213462 43.93651 
Q 378.075724 44.929986 379.275393 44.929986 
Q 380.512552 44.929986 381.187366 43.861531 
Q 381.862179 42.793076 382.312055 41.143531 
Q 382.761931 39.493986 383.099338 38.969131 
L 383.886621 36.382345 
L 383.661683 42.680607 
L 383.661683 45.154924 
Q 383.661683 47.066897 384.392731 51.00331 
Q 385.123779 54.939724 385.123779 56.964166 
Q 385.873572 59.213545 384.786372 60.188276 
Q 383.699172 61.163007 381.637241 60.78811 
Q 379.837738 60.488193 378.919241 60.169531 
Q 378.000745 59.850869 376.013793 58.988607 
L 375.901324 58.426262 
" clip-path="url(#pba148d1133)" style="fill: none; stroke: #000000; stroke-linejoin: miter"/>
   </g>
  </g>
  <g id="axes_25"/>
  <g id="axes_26">
   <g id="patch_22">
    <path d="M 406.716102 36.437797 
L 407.951695 44.778051 
Q 408.054661 45.567458 408.054661 45.60178 
Q 408.054661 45.704746 408.363559 45.704746 
Q 409.22161 45.704746 409.942373 44.778051 
Q 410.663136 43.851356 411.075 42.718729 
Q 411.486864 41.586102 412.001695 40.659407 
Q 412.516525 39.732712 412.997034 39.732712 
Q 413.614831 39.732712 414.249788 40.607924 
Q 414.884746 41.483136 415.348093 42.512797 
Q 415.811441 43.542458 416.48072 44.417669 
Q 417.15 45.292881 417.836441 45.292881 
Q 418.111017 43.782712 418.540042 39.69839 
Q 418.969068 35.614068 419.483898 33.554746 
" clip-path="url(#pedb863f803)" style="fill: none; stroke: #000000; stroke-linejoin: miter"/>
   </g>
  </g>
  <g id="axes_27">
   <g id="patch_23">
    <path d="M 423.057798 38.160826 
Q 426.030275 39.535596 430.749083 39.721376 
Q 432.272477 39.721376 432.959862 38.550963 
Q 433.647248 37.38055 433.647248 35.82 
Q 433.647248 35.299817 433.554358 34.909679 
Q 433.461468 34.519541 433.219954 34.296606 
Q 432.97844 34.07367 432.811239 33.943624 
Q 432.644037 33.813578 432.198165 33.757844 
Q 431.752294 33.70211 431.547936 33.683532 
Q 431.343578 33.664954 430.767661 33.683532 
Q 430.191743 33.70211 429.968807 33.70211 
Q 427.925229 33.70211 426.438991 35.578486 
Q 424.952752 37.454862 424.952752 39.609908 
Q 424.952752 42.619541 426.884862 44.570229 
Q 428.816972 46.520917 431.863761 46.520917 
Q 434.018807 46.818165 435.542202 44.29156 
" clip-path="url(#p5306d7a676)" style="fill: none; stroke: #000000; stroke-linejoin: miter"/>
   </g>
  </g>
  <g id="axes_28">
   <g id="patch_24">
    <path d="M 439.257798 38.160826 
Q 442.230275 39.535596 446.949083 39.721376 
Q 448.472477 39.721376 449.159862 38.550963 
Q 449.847248 37.38055 449.847248 35.82 
Q 449.847248 35.299817 449.754358 34.909679 
Q 449.661468 34.519541 449.419954 34.296606 
Q 449.17844 34.07367 449.011239 33.943624 
Q 448.844037 33.813578 448.398165 33.757844 
Q 447.952294 33.70211 447.747936 33.683532 
Q 447.543578 33.664954 446.967661 33.683532 
Q 446.391743 33.70211 446.168807 33.70211 
Q 444.125229 33.70211 442.638991 35.578486 
Q 441.152752 37.454862 441.152752 39.609908 
Q 441.152752 42.619541 443.084862 44.570229 
Q 445.016972 46.520917 448.063761 46.520917 
Q 450.218807 46.818165 451.742202 44.29156 
" clip-path="url(#pe7400ace61)" style="fill: none; stroke: #000000; stroke-linejoin: miter"/>
   </g>
  </g>
  <g id="axes_29">
   <g id="patch_25">
    <path d="M 459.731793 37.169628 
Q 461.756234 39.194069 463.518248 41.76211 
Q 465.280262 44.330152 466.142524 46.72949 
M 462.768455 31.321241 
L 462.768455 31.546179 
Q 462.768455 32.333462 462.131131 33.514386 
Q 461.493807 34.69531 460.519076 36.101172 
Q 459.544345 37.507034 459.281917 37.95691 
L 458.044759 39.643945 
M 457.257476 26.710014 
Q 459.094469 36.269876 459.281917 48.641462 
" clip-path="url(#pd3732a913a)" style="fill: none; stroke: #000000; stroke-linejoin: miter"/>
   </g>
  </g>
  <g id="axes_30"/>
  <g id="axes_31">
   <g id="patch_26">
    <path d="M 487.716102 36.437797 
L 488.951695 44.778051 
Q 489.054661 45.567458 489.054661 45.60178 
Q 489.054661 45.704746 489.363559 45.704746 
Q 490.22161 45.704746 490.942373 44.778051 
Q 491.663136 43.851356 492.075 42.718729 
Q 492.486864 41.586102 493.001695 40.659407 
Q 493.516525 39.732712 493.997034 39.732712 
Q 494.614831 39.732712 495.249788 40.607924 
Q 495.884746 41.483136 496.348093 42.512797 
Q 496.811441 43.542458 497.48072 44.417669 
Q 498.15 45.292881 498.836441 45.292881 
Q 499.111017 43.782712 499.540042 39.69839 
Q 499.969068 35.614068 500.483898 33.554746 
" clip-path="url(#p856838e66c)" style="fill: none; stroke: #000000; stroke-linejoin: miter"/>
   </g>
  </g>
  <g id="axes_32">
   <g id="patch_27">
    <path d="M 510.918579 29.071862 
Q 510.543683 29.146841 510.412469 29.577972 
Q 510.281255 30.009103 510.356234 30.42149 
Q 510.356234 30.571448 510.393724 30.702662 
Q 510.431214 30.833876 510.487448 30.89011 
Q 510.543683 30.946345 510.599917 31.040069 
Q 510.656152 31.133793 510.693641 31.208772 
L 510.80611 29.859145 
M 510.80611 34.020497 
Q 509.906359 39.006621 509.681421 42.793076 
L 510.131297 45.379862 
L 510.468703 46.054676 
" clip-path="url(#pff2ce4fbb9)" style="fill: none; stroke: #000000; stroke-linejoin: miter"/>
   </g>
  </g>
  <g id="axes_33">
   <g id="patch_28">
    <path d="M 521.663834 37.95691 
L 522.338648 37.95691 
Q 523.050952 37.95691 523.838234 37.881931 
Q 524.625517 37.806952 525.581503 37.675738 
Q 526.53749 37.544524 527.062345 37.507034 
L 531.336166 35.82 
M 527.287283 30.42149 
L 527.287283 31.43371 
Q 527.287283 33.383172 526.612469 37.207117 
Q 525.937655 41.031062 525.937655 43.018014 
Q 525.937655 43.805297 525.937655 44.105214 
Q 525.937655 44.405131 526.031379 45.042455 
Q 526.125103 45.679779 526.312552 45.960952 
Q 526.5 46.242124 526.893641 46.485807 
Q 527.287283 46.72949 527.849628 46.72949 
Q 527.962097 46.692 528.280759 46.72949 
Q 528.599421 46.766979 528.786869 46.710745 
Q 528.974317 46.65451 528.974317 46.392083 
" clip-path="url(#p45055b741a)" style="fill: none; stroke: #000000; stroke-linejoin: miter"/>
   </g>
  </g>
  <g id="axes_34">
   <g id="patch_29">
    <path d="M 539.213462 35.932469 
Q 539.813297 35.257655 540.806772 34.826524 
Q 541.800248 34.395393 542.7 34.470372 
Q 543.337324 34.470372 543.82469 34.639076 
Q 544.312055 34.807779 544.630717 34.995228 
Q 544.949379 35.182676 545.174317 35.670041 
Q 545.399255 36.157407 545.511724 36.419834 
Q 545.624193 36.682262 545.680428 37.375821 
Q 545.736662 38.069379 545.755407 38.331807 
Q 545.774152 38.594234 545.755407 39.419007 
Q 545.736662 40.243779 545.736662 40.431228 
Q 545.736662 41.368469 545.567959 43.242952 
Q 545.399255 45.117434 545.399255 46.054676 
Q 545.399255 46.467062 545.45549 46.823214 
Q 545.511724 47.179366 545.605448 47.610497 
Q 545.699172 48.041628 545.736662 48.304055 
L 546.186538 48.528993 
M 539.663338 23.111007 
Q 539.888276 24.798041 539.888276 29.971614 
L 539.888276 42.3432 
L 539.550869 46.841959 
L 539.325931 47.74171 
" clip-path="url(#pf8780c2b7c)" style="fill: none; stroke: #000000; stroke-linejoin: miter"/>
   </g>
  </g>
  <g id="axes_35"/>
  <g id="axes_36">
   <g id="patch_30">
    <path d="M 570.263834 37.95691 
L 570.938648 37.95691 
Q 571.650952 37.95691 572.438234 37.881931 
Q 573.225517 37.806952 574.181503 37.675738 
Q 575.13749 37.544524 575.662345 37.507034 
L 579.936166 35.82 
M 575.887283 30.42149 
L 575.887283 31.43371 
Q 575.887283 33.383172 575.212469 37.207117 
Q 574.537655 41.031062 574.537655 43.018014 
Q 574.537655 43.805297 574.537655 44.105214 
Q 574.537655 44.405131 574.631379 45.042455 
Q 574.725103 45.679779 574.912552 45.960952 
Q 575.1 46.242124 575.493641 46.485807 
Q 575.887283 46.72949 576.449628 46.72949 
Q 576.562097 46.692 576.880759 46.72949 
Q 577.199421 46.766979 577.386869 46.710745 
Q 577.574317 46.65451 577.574317 46.392083 
" clip-path="url(#p74023f72c6)" style="fill: none; stroke: #000000; stroke-linejoin: miter"/>
   </g>
  </g>
  <g id="axes_37">
   <g id="patch_31">
    <path d="M 587.813462 35.932469 
Q 588.413297 35.257655 589.406772 34.826524 
Q 590.400248 34.395393 591.3 34.470372 
Q 591.937324 34.470372 592.42469 34.639076 
Q 592.912055 34.807779 593.230717 34.995228 
Q 593.549379 35.182676 593.774317 35.670041 
Q 593.999255 36.157407 594.111724 36.419834 
Q 594.224193 36.682262 594.280428 37.375821 
Q 594.336662 38.069379 594.355407 38.331807 
Q 594.374152 38.594234 594.355407 39.419007 
Q 594.336662 40.243779 594.336662 40.431228 
Q 594.336662 41.368469 594.167959 43.242952 
Q 593.999255 45.117434 593.999255 46.054676 
Q 593.999255 46.467062 594.05549 46.823214 
Q 594.111724 47.179366 594.205448 47.610497 
Q 594.299172 48.041628 594.336662 48.304055 
L 594.786538 48.528993 
M 588.263338 23.111007 
Q 588.488276 24.798041 588.488276 29.971614 
L 588.488276 42.3432 
L 588.150869 46.841959 
L 587.925931 47.74171 
" clip-path="url(#pdd3ac0d350)" style="fill: none; stroke: #000000; stroke-linejoin: miter"/>
   </g>
  </g>
  <g id="axes_38">
   <g id="patch_32">
    <path d="M 601.257798 38.160826 
Q 604.230275 39.535596 608.949083 39.721376 
Q 610.472477 39.721376 611.159862 38.550963 
Q 611.847248 37.38055 611.847248 35.82 
Q 611.847248 35.299817 611.754358 34.909679 
Q 611.661468 34.519541 611.419954 34.296606 
Q 611.17844 34.07367 611.011239 33.943624 
Q 610.844037 33.813578 610.398165 33.757844 
Q 609.952294 33.70211 609.747936 33.683532 
Q 609.543578 33.664954 608.967661 33.683532 
Q 608.391743 33.70211 608.168807 33.70211 
Q 606.125229 33.70211 604.638991 35.578486 
Q 603.152752 37.454862 603.152752 39.609908 
Q 603.152752 42.619541 605.084862 44.570229 
Q 607.016972 46.520917 610.063761 46.520917 
Q 612.218807 46.818165 613.742202 44.29156 
" clip-path="url(#pfe669db920)" style="fill: none; stroke: #000000; stroke-linejoin: miter"/>
   </g>
  </g>
  <g id="axes_39">
   <g id="patch_33">
    <path d="M 617.408036 34.879821 
Q 617.914286 36.073125 618.203571 42.871339 
Q 618.348214 46.632054 618.6375 46.632054 
Q 618.673661 46.632054 618.709821 46.595893 
Q 619.216071 46.017321 619.270313 44.588973 
Q 619.324554 43.160625 619.107589 41.750357 
Q 618.890625 40.340089 618.6375 38.712857 
Q 618.384375 37.085625 618.384375 36.398571 
Q 618.384375 35.169107 618.764063 33.939643 
Q 619.14375 32.710179 620.120089 32.710179 
Q 621.349554 32.710179 622.072768 34.355491 
Q 622.795982 36.000804 622.958705 37.971562 
Q 623.121429 39.942321 623.229911 41.587634 
Q 623.338393 43.232946 623.483036 43.232946 
Q 623.627679 43.232946 623.71808 41.497232 
Q 623.808482 39.761518 623.935045 37.700357 
Q 624.061607 35.639196 624.784821 33.903482 
Q 625.508036 32.167768 626.7375 32.167768 
Q 628.292411 33.035625 628.961384 34.771339 
Q 629.630357 36.507054 629.594196 38.188527 
Q 629.558036 39.87 629.576116 42.057723 
Q 629.594196 44.245446 629.991964 45.511071 
" clip-path="url(#p84ac0b9696)" style="fill: none; stroke: #000000; stroke-linejoin: miter"/>
   </g>
  </g>
  <g id="axes_40">
   <g id="patch_34">
    <path d="M 639.187697 39.981352 
Q 640.199917 40.956083 640.537324 42.905545 
Q 640.724772 43.955255 640.312386 46.167145 
L 639.075228 47.629241 
" clip-path="url(#pbdcca12bb1)" style="fill: none; stroke: #000000; stroke-linejoin: miter"/>
   </g>
  </g>
  <g id="axes_41"/>
  <g id="axes_42">
   <g id="patch_35">
    <path d="M 667.163917 36.382345 
Q 667.126428 36.494814 667.257641 36.701007 
Q 667.388855 36.9072 667.276386 37.057159 
L 667.276386 39.306538 
Q 667.276386 40.506207 667.613793 41.724621 
Q 667.9512 42.943034 668.813462 43.93651 
Q 669.675724 44.929986 670.875393 44.929986 
Q 672.112552 44.929986 672.787366 43.861531 
Q 673.462179 42.793076 673.912055 41.143531 
Q 674.361931 39.493986 674.699338 38.969131 
L 675.486621 36.382345 
L 675.261683 42.680607 
L 675.261683 45.154924 
Q 675.261683 47.066897 675.992731 51.00331 
Q 676.723779 54.939724 676.723779 56.964166 
Q 677.473572 59.213545 676.386372 60.188276 
Q 675.299172 61.163007 673.237241 60.78811 
Q 671.437738 60.488193 670.519241 60.169531 
Q 669.600745 59.850869 667.613793 58.988607 
L 667.501324 58.426262 
" clip-path="url(#pd9dbf7ac65)" style="fill: none; stroke: #000000; stroke-linejoin: miter"/>
   </g>
  </g>
  <g id="axes_43">
   <g id="patch_36">
    <path d="M 691.7616 35.032717 
Q 690.71189 34.582841 689.737159 34.69531 
Q 686.700497 35.032717 684.788524 36.701007 
Q 682.876552 38.369297 682.876552 41.330979 
Q 682.876552 43.917766 684.882248 45.6048 
Q 686.887945 47.291834 689.512221 47.291834 
Q 691.874069 47.291834 692.998759 45.361117 
Q 694.123448 43.4304 694.123448 40.881103 
Q 694.123448 39.643945 693.711062 38.706703 
Q 693.298676 37.769462 692.773821 37.300841 
Q 692.248966 36.832221 691.499172 36.119917 
Q 690.749379 35.407614 690.299503 34.69531 
L 689.062345 34.245434 
" clip-path="url(#paf20a906e1)" style="fill: none; stroke: #000000; stroke-linejoin: miter"/>
   </g>
  </g>
  <g id="axes_44">
   <g id="patch_37">
    <path d="M 700.088772 35.145186 
Q 700.088772 35.145186 700.088772 35.595062 
Q 700.088772 36.269876 699.976303 37.619503 
Q 699.863834 38.969131 699.863834 39.643945 
Q 699.863834 41.930814 701.100993 43.599103 
Q 702.338152 45.267393 704.475062 45.267393 
Q 705.862179 45.154924 706.630717 43.917766 
Q 707.399255 42.680607 707.549214 41.237255 
Q 707.699172 39.793903 707.9616 37.9944 
Q 708.224028 36.194897 708.636414 35.370124 
Q 708.786372 35.070207 708.786372 35.670041 
Q 708.786372 36.269876 708.523945 38.706703 
Q 708.299007 41.031062 708.299007 41.555917 
Q 708.149048 42.643117 708.486455 43.767807 
Q 708.823862 44.892497 709.536166 45.6048 
" clip-path="url(#p2c01563036)" style="fill: none; stroke: #000000; stroke-linejoin: miter"/>
   </g>
  </g>
  <g id="axes_45"/>
  <g id="axes_46">
   <g id="patch_38">
    <path d="M 732.657476 43.917766 
Q 732.957393 44.180193 733.969614 45.154924 
Q 734.981834 46.129655 735.544179 46.560786 
Q 736.106524 46.991917 737.13749 47.385559 
Q 738.168455 47.7792 739.180676 47.629241 
Q 739.85549 47.629241 740.32411 47.404303 
Q 740.792731 47.179366 741.017669 46.879448 
Q 741.242607 46.579531 741.373821 45.979697 
Q 741.505034 45.379862 741.523779 44.967476 
Q 741.542524 44.55509 741.542524 43.805297 
Q 741.542524 42.718097 740.642772 42.043283 
Q 739.743021 41.368469 738.449628 41.031062 
Q 737.156234 40.693655 735.862841 40.300014 
Q 734.569448 39.906372 733.669697 38.987876 
Q 732.769945 38.069379 732.769945 36.607283 
Q 732.769945 36.082428 732.938648 35.726276 
Q 733.107352 35.370124 733.500993 35.145186 
Q 733.894634 34.920248 734.175807 34.807779 
Q 734.456979 34.69531 735.113048 34.639076 
Q 735.769117 34.582841 735.956566 34.582841 
Q 736.144014 34.582841 736.818828 34.582841 
Q 738.018497 34.582841 738.599586 34.995228 
Q 739.180676 35.407614 739.499338 36.026193 
Q 739.818 36.644772 740.080428 36.832221 
" clip-path="url(#pc42c991767)" style="fill: none; stroke: #000000; stroke-linejoin: miter"/>
   </g>
  </g>
  <g id="axes_47">
   <g id="patch_39">
    <path d="M 747.057798 38.160826 
Q 750.030275 39.535596 754.749083 39.721376 
Q 756.272477 39.721376 756.959862 38.550963 
Q 757.647248 37.38055 757.647248 35.82 
Q 757.647248 35.299817 757.554358 34.909679 
Q 757.461468 34.519541 757.219954 34.296606 
Q 756.97844 34.07367 756.811239 33.943624 
Q 756.644037 33.813578 756.198165 33.757844 
Q 755.752294 33.70211 755.547936 33.683532 
Q 755.343578 33.664954 754.767661 33.683532 
Q 754.191743 33.70211 753.968807 33.70211 
Q 751.925229 33.70211 750.438991 35.578486 
Q 748.952752 37.454862 748.952752 39.609908 
Q 748.952752 42.619541 750.884862 44.570229 
Q 752.816972 46.520917 755.863761 46.520917 
Q 758.018807 46.818165 759.542202 44.29156 
" clip-path="url(#p85bd78b3ba)" style="fill: none; stroke: #000000; stroke-linejoin: miter"/>
   </g>
  </g>
  <g id="axes_48">
   <g id="patch_40">
    <path d="M 763.257798 38.160826 
Q 766.230275 39.535596 770.949083 39.721376 
Q 772.472477 39.721376 773.159862 38.550963 
Q 773.847248 37.38055 773.847248 35.82 
Q 773.847248 35.299817 773.754358 34.909679 
Q 773.661468 34.519541 773.419954 34.296606 
Q 773.17844 34.07367 773.011239 33.943624 
Q 772.844037 33.813578 772.398165 33.757844 
Q 771.952294 33.70211 771.747936 33.683532 
Q 771.543578 33.664954 770.967661 33.683532 
Q 770.391743 33.70211 770.168807 33.70211 
Q 768.125229 33.70211 766.638991 35.578486 
Q 765.152752 37.454862 765.152752 39.609908 
Q 765.152752 42.619541 767.084862 44.570229 
Q 769.016972 46.520917 772.063761 46.520917 
Q 774.218807 46.818165 775.742202 44.29156 
" clip-path="url(#pc573256e99)" style="fill: none; stroke: #000000; stroke-linejoin: miter"/>
   </g>
  </g>
  <g id="axes_49">
   <g id="patch_41">
    <path d="M 785.587531 45.979697 
Q 785.550041 46.017186 785.418828 46.054676 
Q 785.287614 46.092166 785.325103 46.167145 
Q 785.325103 46.579531 785.7 46.579531 
Q 786.037407 46.579531 786.037407 46.092166 
Q 786.112386 45.867228 785.831214 45.754759 
Q 785.550041 45.64229 785.362593 45.754759 
" clip-path="url(#pa403918768)" style="fill: none; stroke: #000000; stroke-linejoin: miter"/>
   </g>
  </g>
 </g>
 <defs>
  <clipPath id="pcb43b1f3cf">
   <rect x="1.389352" y="8.64" width="13.421297" height="54.36"/>
  </clipPath>
  <clipPath id="p0d2193a8e4">
   <rect x="17.083241" y="8.64" width="14.433517" height="54.36"/>
  </clipPath>
  <clipPath id="p3ad9e435a9">
   <rect x="48.6" y="9.949956" width="16.2" height="51.740088"/>
  </clipPath>
  <clipPath id="p94914770f7">
   <rect x="67.538979" y="8.64" width="10.722041" height="54.36"/>
  </clipPath>
  <clipPath id="pc171fcf221">
   <rect x="81.602069" y="8.64" width="14.995862" height="54.36"/>
  </clipPath>
  <clipPath id="p2071bb59ad">
   <rect x="97.2" y="9.603482" width="16.2" height="52.433036"/>
  </clipPath>
  <clipPath id="p3007efafdd">
   <rect x="129.6" y="15.604854" width="16.2" height="40.430293"/>
  </clipPath>
  <clipPath id="pfeebd79f9e">
   <rect x="148.538979" y="8.64" width="10.722041" height="54.36"/>
  </clipPath>
  <clipPath id="p040d4c8106">
   <rect x="167.606938" y="8.64" width="4.986124" height="54.36"/>
  </clipPath>
  <clipPath id="p43efe2596e">
   <rect x="178.2" y="9.603482" width="16.2" height="52.433036"/>
  </clipPath>
  <clipPath id="pc3901ebbbb">
   <rect x="196.182993" y="8.64" width="12.634014" height="54.36"/>
  </clipPath>
  <clipPath id="p4809781134">
   <rect x="212.158055" y="8.64" width="13.08389" height="54.36"/>
  </clipPath>
  <clipPath id="p24c96c20ee">
   <rect x="227.851945" y="8.64" width="14.09611" height="54.36"/>
  </clipPath>
  <clipPath id="p57d20b8ac9">
   <rect x="248.41949" y="8.64" width="5.361021" height="54.36"/>
  </clipPath>
  <clipPath id="p81d425b7fa">
   <rect x="281.006938" y="8.64" width="4.986124" height="54.36"/>
  </clipPath>
  <clipPath id="pc59b4a00c8">
   <rect x="292.989352" y="8.64" width="13.421297" height="54.36"/>
  </clipPath>
  <clipPath id="p5c403a8853">
   <rect x="313.875559" y="8.64" width="4.048883" height="54.36"/>
  </clipPath>
  <clipPath id="p70c5dd7d28">
   <rect x="325.782993" y="8.64" width="12.634014" height="54.36"/>
  </clipPath>
  <clipPath id="pa4b944d1ab">
   <rect x="356.4" y="9.603482" width="16.2" height="52.433036"/>
  </clipPath>
  <clipPath id="pba148d1133">
   <rect x="373.651945" y="8.64" width="14.09611" height="54.36"/>
  </clipPath>
  <clipPath id="pedb863f803">
   <rect x="405" y="10.936525" width="16.2" height="49.766949"/>
  </clipPath>
  <clipPath id="p5306d7a676">
   <rect x="421.2" y="8.881927" width="16.2" height="53.876147"/>
  </clipPath>
  <clipPath id="pe7400ace61">
   <rect x="437.4" y="8.881927" width="16.2" height="53.876147"/>
  </clipPath>
  <clipPath id="pd3732a913a">
   <rect x="455.382993" y="8.64" width="12.634014" height="54.36"/>
  </clipPath>
  <clipPath id="p856838e66c">
   <rect x="486" y="10.936525" width="16.2" height="49.766949"/>
  </clipPath>
  <clipPath id="pff2ce4fbb9">
   <rect x="507.806938" y="8.64" width="4.986124" height="54.36"/>
  </clipPath>
  <clipPath id="p45055b741a">
   <rect x="519.789352" y="8.64" width="13.421297" height="54.36"/>
  </clipPath>
  <clipPath id="pf8780c2b7c">
   <rect x="537.338979" y="8.64" width="10.722041" height="54.36"/>
  </clipPath>
  <clipPath id="p74023f72c6">
   <rect x="568.389352" y="8.64" width="13.421297" height="54.36"/>
  </clipPath>
  <clipPath id="pdd3ac0d350">
   <rect x="585.938979" y="8.64" width="10.722041" height="54.36"/>
  </clipPath>
  <clipPath id="pfe669db920">
   <rect x="599.4" y="8.881927" width="16.2" height="53.876147"/>
  </clipPath>
  <clipPath id="p84ac0b9696">
   <rect x="615.6" y="9.603482" width="16.2" height="52.433036"/>
  </clipPath>
  <clipPath id="pbdcca12bb1">
   <rect x="637.200745" y="8.64" width="5.39851" height="54.36"/>
  </clipPath>
  <clipPath id="pd9dbf7ac65">
   <rect x="665.251945" y="8.64" width="14.09611" height="54.36"/>
  </clipPath>
  <clipPath id="paf20a906e1">
   <rect x="681.002069" y="8.64" width="14.995862" height="54.36"/>
  </clipPath>
  <clipPath id="p2c01563036">
   <rect x="697.989352" y="8.64" width="13.421297" height="54.36"/>
  </clipPath>
  <clipPath id="pc42c991767">
   <rect x="730.782993" y="8.64" width="12.634014" height="54.36"/>
  </clipPath>
  <clipPath id="p85bd78b3ba">
   <rect x="745.2" y="8.881927" width="16.2" height="53.876147"/>
  </clipPath>
  <clipPath id="pc573256e99">
   <rect x="761.4" y="8.881927" width="16.2" height="53.876147"/>
  </clipPath>
  <clipPath id="pa403918768">
   <rect x="783.413131" y="8.64" width="4.573738" height="54.36"/>
  </clipPath>
 </defs>
</svg>
