<?xml version="1.0" encoding="utf-8" standalone="no"?>
<!DOCTYPE svg PUBLIC "-//W3C//DTD SVG 1.1//EN"
  "http://www.w3.org/Graphics/SVG/1.1/DTD/svg11.dtd">
<svg xmlns:xlink="http://www.w3.org/1999/xlink" width="882pt" height="72pt" viewBox="0 0 882 72" xmlns="http://www.w3.org/2000/svg" version="1.1">
 <metadata>
  <rdf:RDF xmlns:dc="http://purl.org/dc/elements/1.1/" xmlns:cc="http://creativecommons.org/ns#" xmlns:rdf="http://www.w3.org/1999/02/22-rdf-syntax-ns#">
   <cc:Work>
    <dc:type rdf:resource="http://purl.org/dc/dcmitype/StillImage"/>
    <dc:date>2023-12-21T12:08:36.596178</dc:date>
    <dc:format>image/svg+xml</dc:format>
    <dc:creator>
     <cc:Agent>
      <dc:title>Matplotlib v3.5.1, https://matplotlib.org/</dc:title>
     </cc:Agent>
    </dc:creator>
   </cc:Work>
  </rdf:RDF>
 </metadata>
 <defs>
  <style type="text/css">*{stroke-linejoin: round; stroke-linecap: butt}</style>
 </defs>
 <g id="figure_1">
  <g id="patch_1">
   <path d="M 0 72 
L 882 72 
L 882 0 
L 0 0 
z
" style="fill: #8fff9f"/>
  </g>
  <g id="axes_1">
   <g id="patch_2">
    <path d="M 1.716102 36.437797 
L 2.951695 44.778051 
Q 3.054661 45.567458 3.054661 45.60178 
Q 3.054661 45.704746 3.363559 45.704746 
Q 4.22161 45.704746 4.942373 44.778051 
Q 5.663136 43.851356 6.075 42.718729 
Q 6.486864 41.586102 7.001695 40.659407 
Q 7.516525 39.732712 7.997034 39.732712 
Q 8.614831 39.732712 9.249788 40.607924 
Q 9.884746 41.483136 10.348093 42.512797 
Q 10.811441 43.542458 11.48072 44.417669 
Q 12.15 45.292881 12.836441 45.292881 
Q 13.111017 43.782712 13.540042 39.69839 
Q 13.969068 35.614068 14.483898 33.554746 
" clip-path="url(#p0d20c532d7)" style="fill: none; stroke: #000000; stroke-linejoin: miter"/>
   </g>
  </g>
  <g id="axes_2">
   <g id="patch_3">
    <path d="M 18.057798 38.160826 
Q 21.030275 39.535596 25.749083 39.721376 
Q 27.272477 39.721376 27.959862 38.550963 
Q 28.647248 37.38055 28.647248 35.82 
Q 28.647248 35.299817 28.554358 34.909679 
Q 28.461468 34.519541 28.219954 34.296606 
Q 27.97844 34.07367 27.811239 33.943624 
Q 27.644037 33.813578 27.198165 33.757844 
Q 26.752294 33.70211 26.547936 33.683532 
Q 26.343578 33.664954 25.767661 33.683532 
Q 25.191743 33.70211 24.968807 33.70211 
Q 22.925229 33.70211 21.438991 35.578486 
Q 19.952752 37.454862 19.952752 39.609908 
Q 19.952752 42.619541 21.884862 44.570229 
Q 23.816972 46.520917 26.863761 46.520917 
Q 29.018807 46.818165 30.542202 44.29156 
" clip-path="url(#p373a8f785c)" style="fill: none; stroke: #000000; stroke-linejoin: miter"/>
   </g>
  </g>
  <g id="axes_3">
   <g id="patch_4">
    <path d="M 40.425021 26.147669 
Q 40.387531 26.597545 40.425021 27.384828 
Q 40.46251 27.572276 40.406276 27.965917 
Q 40.350041 28.359559 40.387531 28.678221 
Q 40.425021 28.996883 40.649959 29.184331 
" clip-path="url(#pd1e980f265)" style="fill: none; stroke: #000000; stroke-linejoin: miter"/>
   </g>
  </g>
  <g id="axes_4">
   <g id="patch_5">
    <path d="M 52.426179 34.807779 
Q 54.038234 36.719752 55.331628 39.6252 
Q 56.625021 42.530648 56.924938 45.154924 
Q 57.974648 43.655338 58.893145 38.819172 
Q 59.811641 33.983007 60.973821 32.108524 
" clip-path="url(#pd539b80406)" style="fill: none; stroke: #000000; stroke-linejoin: miter"/>
   </g>
  </g>
  <g id="axes_5">
   <g id="patch_6">
    <path d="M 66.657798 38.160826 
Q 69.630275 39.535596 74.349083 39.721376 
Q 75.872477 39.721376 76.559862 38.550963 
Q 77.247248 37.38055 77.247248 35.82 
Q 77.247248 35.299817 77.154358 34.909679 
Q 77.061468 34.519541 76.819954 34.296606 
Q 76.57844 34.07367 76.411239 33.943624 
Q 76.244037 33.813578 75.798165 33.757844 
Q 75.352294 33.70211 75.147936 33.683532 
Q 74.943578 33.664954 74.367661 33.683532 
Q 73.791743 33.70211 73.568807 33.70211 
Q 71.525229 33.70211 70.038991 35.578486 
Q 68.552752 37.454862 68.552752 39.609908 
Q 68.552752 42.619541 70.484862 44.570229 
Q 72.416972 46.520917 75.463761 46.520917 
Q 77.618807 46.818165 79.142202 44.29156 
" clip-path="url(#p978f921d83)" style="fill: none; stroke: #000000; stroke-linejoin: miter"/>
   </g>
  </g>
  <g id="axes_6"/>
  <g id="axes_7">
   <g id="patch_7">
    <path d="M 101.757228 37.244607 
Q 102.806938 37.207117 102.994386 37.132138 
Q 106.405945 37.132138 108.186703 39.212814 
Q 109.967462 41.29349 109.967462 44.780028 
Q 109.967462 47.704221 105.356234 47.704221 
Q 104.71891 47.704221 104.17531 47.591752 
Q 103.63171 47.479283 102.994386 47.254345 
Q 102.357062 47.029407 101.869697 46.916938 
L 100.632538 45.679779 
M 101.644759 25.435366 
L 101.644759 26.560055 
Q 101.644759 29.409269 101.757228 33.008276 
Q 101.869697 36.607283 102.057145 40.899848 
Q 102.244593 45.192414 102.319572 47.141876 
" clip-path="url(#p8da45a184e)" style="fill: none; stroke: #000000; stroke-linejoin: miter"/>
   </g>
  </g>
  <g id="axes_8">
   <g id="patch_8">
    <path d="M 115.257798 38.160826 
Q 118.230275 39.535596 122.949083 39.721376 
Q 124.472477 39.721376 125.159862 38.550963 
Q 125.847248 37.38055 125.847248 35.82 
Q 125.847248 35.299817 125.754358 34.909679 
Q 125.661468 34.519541 125.419954 34.296606 
Q 125.17844 34.07367 125.011239 33.943624 
Q 124.844037 33.813578 124.398165 33.757844 
Q 123.952294 33.70211 123.747936 33.683532 
Q 123.543578 33.664954 122.967661 33.683532 
Q 122.391743 33.70211 122.168807 33.70211 
Q 120.125229 33.70211 118.638991 35.578486 
Q 117.152752 37.454862 117.152752 39.609908 
Q 117.152752 42.619541 119.084862 44.570229 
Q 121.016972 46.520917 124.063761 46.520917 
Q 126.218807 46.818165 127.742202 44.29156 
" clip-path="url(#paf04cafce9)" style="fill: none; stroke: #000000; stroke-linejoin: miter"/>
   </g>
  </g>
  <g id="axes_9">
   <g id="patch_9">
    <path d="M 131.457798 38.160826 
Q 134.430275 39.535596 139.149083 39.721376 
Q 140.672477 39.721376 141.359862 38.550963 
Q 142.047248 37.38055 142.047248 35.82 
Q 142.047248 35.299817 141.954358 34.909679 
Q 141.861468 34.519541 141.619954 34.296606 
Q 141.37844 34.07367 141.211239 33.943624 
Q 141.044037 33.813578 140.598165 33.757844 
Q 140.152294 33.70211 139.947936 33.683532 
Q 139.743578 33.664954 139.167661 33.683532 
Q 138.591743 33.70211 138.368807 33.70211 
Q 136.325229 33.70211 134.838991 35.578486 
Q 133.352752 37.454862 133.352752 39.609908 
Q 133.352752 42.619541 135.284862 44.570229 
Q 137.216972 46.520917 140.263761 46.520917 
Q 142.418807 46.818165 143.942202 44.29156 
" clip-path="url(#p95d585f586)" style="fill: none; stroke: #000000; stroke-linejoin: miter"/>
   </g>
  </g>
  <g id="axes_10">
   <g id="patch_10">
    <path d="M 149.438731 37.282097 
L 149.438731 37.844441 
Q 149.701159 39.868883 149.738648 41.312234 
Q 149.776138 42.755586 149.682414 44.667559 
Q 149.58869 46.579531 149.58869 48.191586 
L 149.663669 39.643945 
Q 149.663669 38.144359 151.256979 37.507034 
Q 152.85029 36.86971 154.274897 37.282097 
Q 156.186869 37.844441 157.105366 39.04411 
Q 158.023862 40.243779 158.080097 41.668386 
Q 158.136331 43.092993 158.173821 44.817517 
Q 158.21131 46.542041 158.361269 48.191586 
" clip-path="url(#p02b57745bc)" style="fill: none; stroke: #000000; stroke-linejoin: miter"/>
   </g>
  </g>
  <g id="axes_11"/>
  <g id="axes_12">
   <g id="patch_11">
    <path d="M 181.463834 37.95691 
L 182.138648 37.95691 
Q 182.850952 37.95691 183.638234 37.881931 
Q 184.425517 37.806952 185.381503 37.675738 
Q 186.33749 37.544524 186.862345 37.507034 
L 191.136166 35.82 
M 187.087283 30.42149 
L 187.087283 31.43371 
Q 187.087283 33.383172 186.412469 37.207117 
Q 185.737655 41.031062 185.737655 43.018014 
Q 185.737655 43.805297 185.737655 44.105214 
Q 185.737655 44.405131 185.831379 45.042455 
Q 185.925103 45.679779 186.112552 45.960952 
Q 186.3 46.242124 186.693641 46.485807 
Q 187.087283 46.72949 187.649628 46.72949 
Q 187.762097 46.692 188.080759 46.72949 
Q 188.399421 46.766979 188.586869 46.710745 
Q 188.774317 46.65451 188.774317 46.392083 
" clip-path="url(#p0c6de79b52)" style="fill: none; stroke: #000000; stroke-linejoin: miter"/>
   </g>
  </g>
  <g id="axes_13">
   <g id="patch_12">
    <path d="M 205.7616 35.032717 
Q 204.71189 34.582841 203.737159 34.69531 
Q 200.700497 35.032717 198.788524 36.701007 
Q 196.876552 38.369297 196.876552 41.330979 
Q 196.876552 43.917766 198.882248 45.6048 
Q 200.887945 47.291834 203.512221 47.291834 
Q 205.874069 47.291834 206.998759 45.361117 
Q 208.123448 43.4304 208.123448 40.881103 
Q 208.123448 39.643945 207.711062 38.706703 
Q 207.298676 37.769462 206.773821 37.300841 
Q 206.248966 36.832221 205.499172 36.119917 
Q 204.749379 35.407614 204.299503 34.69531 
L 203.062345 34.245434 
" clip-path="url(#pfa581247b9)" style="fill: none; stroke: #000000; stroke-linejoin: miter"/>
   </g>
  </g>
  <g id="axes_14">
   <g id="patch_13">
    <path d="M 214.088772 35.145186 
Q 214.088772 35.145186 214.088772 35.595062 
Q 214.088772 36.269876 213.976303 37.619503 
Q 213.863834 38.969131 213.863834 39.643945 
Q 213.863834 41.930814 215.100993 43.599103 
Q 216.338152 45.267393 218.475062 45.267393 
Q 219.862179 45.154924 220.630717 43.917766 
Q 221.399255 42.680607 221.549214 41.237255 
Q 221.699172 39.793903 221.9616 37.9944 
Q 222.224028 36.194897 222.636414 35.370124 
Q 222.786372 35.070207 222.786372 35.670041 
Q 222.786372 36.269876 222.523945 38.706703 
Q 222.299007 41.031062 222.299007 41.555917 
Q 222.149048 42.643117 222.486455 43.767807 
Q 222.823862 44.892497 223.536166 45.6048 
" clip-path="url(#p1ccd50cd0e)" style="fill: none; stroke: #000000; stroke-linejoin: miter"/>
   </g>
  </g>
  <g id="axes_15">
   <g id="patch_14">
    <path d="M 231.413462 32.783338 
Q 231.938317 34.507862 232.069531 36.457324 
Q 232.200745 38.406786 232.125766 40.956083 
Q 232.050786 43.505379 232.088276 44.705048 
L 232.200745 46.054676 
L 232.200745 45.829738 
Q 232.200745 44.667559 231.919572 42.30571 
Q 231.6384 39.943862 231.6384 38.744193 
Q 231.6384 36.419834 232.650621 34.882759 
Q 233.662841 33.345683 235.687283 33.345683 
Q 236.399586 33.345683 236.736993 33.626855 
Q 237.0744 33.908028 237.336828 34.432883 
Q 237.599255 34.957738 237.936662 35.257655 
L 238.386538 36.832221 
" clip-path="url(#p61bcb837e4)" style="fill: none; stroke: #000000; stroke-linejoin: miter"/>
   </g>
  </g>
  <g id="axes_16">
   <g id="patch_15">
    <path d="M 251.718579 29.071862 
Q 251.343683 29.146841 251.212469 29.577972 
Q 251.081255 30.009103 251.156234 30.42149 
Q 251.156234 30.571448 251.193724 30.702662 
Q 251.231214 30.833876 251.287448 30.89011 
Q 251.343683 30.946345 251.399917 31.040069 
Q 251.456152 31.133793 251.493641 31.208772 
L 251.60611 29.859145 
M 251.60611 34.020497 
Q 250.706359 39.006621 250.481421 42.793076 
L 250.931297 45.379862 
L 251.268703 46.054676 
" clip-path="url(#ped65558c0c)" style="fill: none; stroke: #000000; stroke-linejoin: miter"/>
   </g>
  </g>
  <g id="axes_17">
   <g id="patch_16">
    <path d="M 262.838731 37.282097 
L 262.838731 37.844441 
Q 263.101159 39.868883 263.138648 41.312234 
Q 263.176138 42.755586 263.082414 44.667559 
Q 262.98869 46.579531 262.98869 48.191586 
L 263.063669 39.643945 
Q 263.063669 38.144359 264.656979 37.507034 
Q 266.25029 36.86971 267.674897 37.282097 
Q 269.586869 37.844441 270.505366 39.04411 
Q 271.423862 40.243779 271.480097 41.668386 
Q 271.536331 43.092993 271.573821 44.817517 
Q 271.61131 46.542041 271.761269 48.191586 
" clip-path="url(#pcc5e4b4d26)" style="fill: none; stroke: #000000; stroke-linejoin: miter"/>
   </g>
  </g>
  <g id="axes_18">
   <g id="patch_17">
    <path d="M 288.287191 39.096404 
Q 288.03236 39.023596 287.06764 38.623146 
Q 286.102921 38.222697 285.44764 38.077079 
Q 284.79236 37.931461 284.137079 38.00427 
Q 281.515955 38.00427 279.877753 40.388764 
Q 278.239551 42.773258 278.239551 45.430787 
Q 278.239551 47.068989 283.481798 47.068989 
Q 285.047191 47.068989 286.375955 45.558202 
Q 287.704719 44.047416 288.378202 42.172584 
Q 289.051685 40.297753 289.051685 38.768764 
Q 289.051685 37.27618 289.015281 36.984944 
L 288.942472 38.077079 
Q 288.942472 38.550337 288.942472 38.987191 
Q 288.978876 40.188539 289.179101 42.281798 
Q 289.379326 44.375056 289.543146 46.049663 
Q 289.706966 47.72427 289.743371 49.872135 
Q 289.779775 52.02 289.615955 53.658202 
Q 289.452135 55.296404 288.887865 56.971011 
Q 288.323596 58.645618 287.395281 59.737753 
Q 286.466966 60.829888 284.865169 61.521573 
Q 283.263371 62.213258 281.115506 62.213258 
Q 279.477303 62.213258 278.385169 61.466966 
Q 277.293034 60.720674 277.293034 59.155281 
Q 277.220225 58.936854 277.256629 58.936854 
Q 277.293034 58.936854 277.402247 58.936854 
Q 277.511461 58.936854 277.511461 58.82764 
" clip-path="url(#p25f2be88b5)" style="fill: none; stroke: #000000; stroke-linejoin: miter"/>
   </g>
  </g>
  <g id="axes_19"/>
  <g id="axes_20">
   <g id="patch_18">
    <path d="M 321.443923 36.441748 
Q 320.234968 35.094627 316.262687 35.094627 
Q 314.742857 35.094627 313.965672 35.146439 
Q 313.188486 35.198252 312.18678 35.440043 
Q 311.185075 35.681834 310.701493 36.182687 
Q 310.21791 36.683539 309.872495 37.616162 
Q 309.527079 38.548785 309.527079 39.964989 
Q 309.527079 42.037484 310.943284 43.280981 
Q 312.359488 44.524478 314.293817 44.524478 
Q 316.953518 44.524478 319.716844 38.721493 
Q 321.063966 35.854542 321.063966 35.82 
Q 321.409382 35.578209 321.443923 36.441748 
Q 321.443923 37.512537 321.858422 40.362217 
Q 322.272921 43.211898 322.272921 44.524478 
" clip-path="url(#p04fa9433e4)" style="fill: none; stroke: #000000; stroke-linejoin: miter"/>
   </g>
  </g>
  <g id="axes_21">
   <g id="patch_19">
    <path d="M 328.557228 37.244607 
Q 329.606938 37.207117 329.794386 37.132138 
Q 333.205945 37.132138 334.986703 39.212814 
Q 336.767462 41.29349 336.767462 44.780028 
Q 336.767462 47.704221 332.156234 47.704221 
Q 331.51891 47.704221 330.97531 47.591752 
Q 330.43171 47.479283 329.794386 47.254345 
Q 329.157062 47.029407 328.669697 46.916938 
L 327.432538 45.679779 
M 328.444759 25.435366 
L 328.444759 26.560055 
Q 328.444759 29.409269 328.557228 33.008276 
Q 328.669697 36.607283 328.857145 40.899848 
Q 329.044593 45.192414 329.119572 47.141876 
" clip-path="url(#p10ac8a26ec)" style="fill: none; stroke: #000000; stroke-linejoin: miter"/>
   </g>
  </g>
  <g id="axes_22">
   <g id="patch_20">
    <path d="M 351.5616 35.032717 
Q 350.51189 34.582841 349.537159 34.69531 
Q 346.500497 35.032717 344.588524 36.701007 
Q 342.676552 38.369297 342.676552 41.330979 
Q 342.676552 43.917766 344.682248 45.6048 
Q 346.687945 47.291834 349.312221 47.291834 
Q 351.674069 47.291834 352.798759 45.361117 
Q 353.923448 43.4304 353.923448 40.881103 
Q 353.923448 39.643945 353.511062 38.706703 
Q 353.098676 37.769462 352.573821 37.300841 
Q 352.048966 36.832221 351.299172 36.119917 
Q 350.549379 35.407614 350.099503 34.69531 
L 348.862345 34.245434 
" clip-path="url(#p4c39f6c42e)" style="fill: none; stroke: #000000; stroke-linejoin: miter"/>
   </g>
  </g>
  <g id="axes_23">
   <g id="patch_21">
    <path d="M 359.888772 35.145186 
Q 359.888772 35.145186 359.888772 35.595062 
Q 359.888772 36.269876 359.776303 37.619503 
Q 359.663834 38.969131 359.663834 39.643945 
Q 359.663834 41.930814 360.900993 43.599103 
Q 362.138152 45.267393 364.275062 45.267393 
Q 365.662179 45.154924 366.430717 43.917766 
Q 367.199255 42.680607 367.349214 41.237255 
Q 367.499172 39.793903 367.7616 37.9944 
Q 368.024028 36.194897 368.436414 35.370124 
Q 368.586372 35.070207 368.586372 35.670041 
Q 368.586372 36.269876 368.323945 38.706703 
Q 368.099007 41.031062 368.099007 41.555917 
Q 367.949048 42.643117 368.286455 43.767807 
Q 368.623862 44.892497 369.336166 45.6048 
" clip-path="url(#pd3a1910ced)" style="fill: none; stroke: #000000; stroke-linejoin: miter"/>
   </g>
  </g>
  <g id="axes_24">
   <g id="patch_22">
    <path d="M 375.863834 37.95691 
L 376.538648 37.95691 
Q 377.250952 37.95691 378.038234 37.881931 
Q 378.825517 37.806952 379.781503 37.675738 
Q 380.73749 37.544524 381.262345 37.507034 
L 385.536166 35.82 
M 381.487283 30.42149 
L 381.487283 31.43371 
Q 381.487283 33.383172 380.812469 37.207117 
Q 380.137655 41.031062 380.137655 43.018014 
Q 380.137655 43.805297 380.137655 44.105214 
Q 380.137655 44.405131 380.231379 45.042455 
Q 380.325103 45.679779 380.512552 45.960952 
Q 380.7 46.242124 381.093641 46.485807 
Q 381.487283 46.72949 382.049628 46.72949 
Q 382.162097 46.692 382.480759 46.72949 
Q 382.799421 46.766979 382.986869 46.710745 
Q 383.174317 46.65451 383.174317 46.392083 
" clip-path="url(#pd6032ed963)" style="fill: none; stroke: #000000; stroke-linejoin: miter"/>
   </g>
  </g>
  <g id="axes_25"/>
  <g id="axes_26">
   <g id="patch_23">
    <path d="M 408.263834 37.95691 
L 408.938648 37.95691 
Q 409.650952 37.95691 410.438234 37.881931 
Q 411.225517 37.806952 412.181503 37.675738 
Q 413.13749 37.544524 413.662345 37.507034 
L 417.936166 35.82 
M 413.887283 30.42149 
L 413.887283 31.43371 
Q 413.887283 33.383172 413.212469 37.207117 
Q 412.537655 41.031062 412.537655 43.018014 
Q 412.537655 43.805297 412.537655 44.105214 
Q 412.537655 44.405131 412.631379 45.042455 
Q 412.725103 45.679779 412.912552 45.960952 
Q 413.1 46.242124 413.493641 46.485807 
Q 413.887283 46.72949 414.449628 46.72949 
Q 414.562097 46.692 414.880759 46.72949 
Q 415.199421 46.766979 415.386869 46.710745 
Q 415.574317 46.65451 415.574317 46.392083 
" clip-path="url(#p7b534db868)" style="fill: none; stroke: #000000; stroke-linejoin: miter"/>
   </g>
  </g>
  <g id="axes_27">
   <g id="patch_24">
    <path d="M 425.813462 35.932469 
Q 426.413297 35.257655 427.406772 34.826524 
Q 428.400248 34.395393 429.3 34.470372 
Q 429.937324 34.470372 430.42469 34.639076 
Q 430.912055 34.807779 431.230717 34.995228 
Q 431.549379 35.182676 431.774317 35.670041 
Q 431.999255 36.157407 432.111724 36.419834 
Q 432.224193 36.682262 432.280428 37.375821 
Q 432.336662 38.069379 432.355407 38.331807 
Q 432.374152 38.594234 432.355407 39.419007 
Q 432.336662 40.243779 432.336662 40.431228 
Q 432.336662 41.368469 432.167959 43.242952 
Q 431.999255 45.117434 431.999255 46.054676 
Q 431.999255 46.467062 432.05549 46.823214 
Q 432.111724 47.179366 432.205448 47.610497 
Q 432.299172 48.041628 432.336662 48.304055 
L 432.786538 48.528993 
M 426.263338 23.111007 
Q 426.488276 24.798041 426.488276 29.971614 
L 426.488276 42.3432 
L 426.150869 46.841959 
L 425.925931 47.74171 
" clip-path="url(#p74df771e50)" style="fill: none; stroke: #000000; stroke-linejoin: miter"/>
   </g>
  </g>
  <g id="axes_28">
   <g id="patch_25">
    <path d="M 439.257798 38.160826 
Q 442.230275 39.535596 446.949083 39.721376 
Q 448.472477 39.721376 449.159862 38.550963 
Q 449.847248 37.38055 449.847248 35.82 
Q 449.847248 35.299817 449.754358 34.909679 
Q 449.661468 34.519541 449.419954 34.296606 
Q 449.17844 34.07367 449.011239 33.943624 
Q 448.844037 33.813578 448.398165 33.757844 
Q 447.952294 33.70211 447.747936 33.683532 
Q 447.543578 33.664954 446.967661 33.683532 
Q 446.391743 33.70211 446.168807 33.70211 
Q 444.125229 33.70211 442.638991 35.578486 
Q 441.152752 37.454862 441.152752 39.609908 
Q 441.152752 42.619541 443.084862 44.570229 
Q 445.016972 46.520917 448.063761 46.520917 
Q 450.218807 46.818165 451.742202 44.29156 
" clip-path="url(#p7125c82192)" style="fill: none; stroke: #000000; stroke-linejoin: miter"/>
   </g>
  </g>
  <g id="axes_29"/>
  <g id="axes_30">
   <g id="patch_26">
    <path d="M 473.120069 39.868883 
L 473.120069 39.419007 
Q 473.120069 37.769462 474.863338 36.682262 
Q 476.606607 35.595062 478.293641 35.595062 
Q 480.505531 35.595062 481.873903 36.794731 
Q 483.242276 37.9944 483.242276 40.20629 
Q 483.242276 42.30571 481.424028 43.336676 
Q 479.605779 44.367641 477.39389 44.367641 
Q 476.719076 44.367641 476.212966 44.255172 
Q 475.706855 44.142703 475.088276 43.917766 
Q 474.469697 43.692828 474.019821 43.580359 
L 472.895131 42.568138 
M 472.557724 36.832221 
Q 473.0076 38.444276 473.270028 40.262524 
Q 473.532455 42.080772 473.58869 43.749062 
Q 473.644924 45.417352 473.682414 47.27309 
Q 473.719903 49.128828 473.682414 50.778372 
L 473.569945 57.863917 
" clip-path="url(#p185a1c7424)" style="fill: none; stroke: #000000; stroke-linejoin: miter"/>
   </g>
  </g>
  <g id="axes_31">
   <g id="patch_27">
    <path d="M 493.706359 28.621986 
Q 493.931297 30.34651 494.006276 32.146014 
Q 494.081255 33.945517 494.06251 36.551048 
Q 494.043766 39.156579 494.043766 40.093821 
Q 494.043766 40.13131 494.268703 45.829738 
L 494.493641 46.841959 
" clip-path="url(#p1fd0786c45)" style="fill: none; stroke: #000000; stroke-linejoin: miter"/>
   </g>
  </g>
  <g id="axes_32">
   <g id="patch_28">
    <path d="M 515.843923 36.441748 
Q 514.634968 35.094627 510.662687 35.094627 
Q 509.142857 35.094627 508.365672 35.146439 
Q 507.588486 35.198252 506.58678 35.440043 
Q 505.585075 35.681834 505.101493 36.182687 
Q 504.61791 36.683539 504.272495 37.616162 
Q 503.927079 38.548785 503.927079 39.964989 
Q 503.927079 42.037484 505.343284 43.280981 
Q 506.759488 44.524478 508.693817 44.524478 
Q 511.353518 44.524478 514.116844 38.721493 
Q 515.463966 35.854542 515.463966 35.82 
Q 515.809382 35.578209 515.843923 36.441748 
Q 515.843923 37.512537 516.258422 40.362217 
Q 516.672921 43.211898 516.672921 44.524478 
" clip-path="url(#p0652d9ec92)" style="fill: none; stroke: #000000; stroke-linejoin: miter"/>
   </g>
  </g>
  <g id="axes_33">
   <g id="patch_29">
    <path d="M 531.756735 34.365306 
Q 531.756735 34.365306 531.260816 34.365306 
Q 530.467347 34.365306 528.979592 34.067755 
Q 527.491837 33.770204 526.698367 33.770204 
Q 523.921224 33.770204 521.987143 35.224898 
Q 520.053061 36.679592 520.053061 39.423673 
Q 520.053061 40.94449 521.540816 42.399184 
Q 523.028571 43.853878 524.962653 44.663878 
Q 526.896735 45.473878 528.38449 45.473878 
Q 529.310204 45.473878 530.00449 45.110204 
Q 530.698776 44.746531 531.442653 44.118367 
Q 532.186531 43.490204 532.748571 43.192653 
L 532.946939 42.696735 
" clip-path="url(#p953291a98f)" style="fill: none; stroke: #000000; stroke-linejoin: miter"/>
   </g>
  </g>
  <g id="axes_34">
   <g id="patch_30">
    <path d="M 536.457798 38.160826 
Q 539.430275 39.535596 544.149083 39.721376 
Q 545.672477 39.721376 546.359862 38.550963 
Q 547.047248 37.38055 547.047248 35.82 
Q 547.047248 35.299817 546.954358 34.909679 
Q 546.861468 34.519541 546.619954 34.296606 
Q 546.37844 34.07367 546.211239 33.943624 
Q 546.044037 33.813578 545.598165 33.757844 
Q 545.152294 33.70211 544.947936 33.683532 
Q 544.743578 33.664954 544.167661 33.683532 
Q 543.591743 33.70211 543.368807 33.70211 
Q 541.325229 33.70211 539.838991 35.578486 
Q 538.352752 37.454862 538.352752 39.609908 
Q 538.352752 42.619541 540.284862 44.570229 
Q 542.216972 46.520917 545.263761 46.520917 
Q 547.418807 46.818165 548.942202 44.29156 
" clip-path="url(#pc48ad71f75)" style="fill: none; stroke: #000000; stroke-linejoin: miter"/>
   </g>
  </g>
  <g id="axes_35">
   <g id="patch_31">
    <path d="M 558.187697 39.981352 
Q 559.199917 40.956083 559.537324 42.905545 
Q 559.724772 43.955255 559.312386 46.167145 
L 558.075228 47.629241 
" clip-path="url(#pa1ecba9a1a)" style="fill: none; stroke: #000000; stroke-linejoin: miter"/>
   </g>
  </g>
  <g id="axes_36">
   <g id="patch_32">
    <path d="M 575.624855 27.009931 
Q 575.699834 27.347338 575.774814 28.265834 
Q 575.849793 29.184331 575.999752 29.634207 
L 575.924772 31.058814 
M 574.275228 27.309848 
Q 574.237738 27.309848 574.200248 27.534786 
Q 574.237738 27.684745 574.350207 28.828179 
Q 574.462676 29.971614 574.725103 30.533959 
" clip-path="url(#pe4f161ddc3)" style="fill: none; stroke: #000000; stroke-linejoin: miter"/>
   </g>
  </g>
  <g id="axes_37"/>
  <g id="axes_38">
   <g id="patch_33">
    <path d="M 603.057476 43.917766 
Q 603.357393 44.180193 604.369614 45.154924 
Q 605.381834 46.129655 605.944179 46.560786 
Q 606.506524 46.991917 607.53749 47.385559 
Q 608.568455 47.7792 609.580676 47.629241 
Q 610.25549 47.629241 610.72411 47.404303 
Q 611.192731 47.179366 611.417669 46.879448 
Q 611.642607 46.579531 611.773821 45.979697 
Q 611.905034 45.379862 611.923779 44.967476 
Q 611.942524 44.55509 611.942524 43.805297 
Q 611.942524 42.718097 611.042772 42.043283 
Q 610.143021 41.368469 608.849628 41.031062 
Q 607.556234 40.693655 606.262841 40.300014 
Q 604.969448 39.906372 604.069697 38.987876 
Q 603.169945 38.069379 603.169945 36.607283 
Q 603.169945 36.082428 603.338648 35.726276 
Q 603.507352 35.370124 603.900993 35.145186 
Q 604.294634 34.920248 604.575807 34.807779 
Q 604.856979 34.69531 605.513048 34.639076 
Q 606.169117 34.582841 606.356566 34.582841 
Q 606.544014 34.582841 607.218828 34.582841 
Q 608.418497 34.582841 608.999586 34.995228 
Q 609.580676 35.407614 609.899338 36.026193 
Q 610.218 36.644772 610.480428 36.832221 
" clip-path="url(#p022460cbed)" style="fill: none; stroke: #000000; stroke-linejoin: miter"/>
   </g>
  </g>
  <g id="axes_39">
   <g id="patch_34">
    <path d="M 629.243923 36.441748 
Q 628.034968 35.094627 624.062687 35.094627 
Q 622.542857 35.094627 621.765672 35.146439 
Q 620.988486 35.198252 619.98678 35.440043 
Q 618.985075 35.681834 618.501493 36.182687 
Q 618.01791 36.683539 617.672495 37.616162 
Q 617.327079 38.548785 617.327079 39.964989 
Q 617.327079 42.037484 618.743284 43.280981 
Q 620.159488 44.524478 622.093817 44.524478 
Q 624.753518 44.524478 627.516844 38.721493 
Q 628.863966 35.854542 628.863966 35.82 
Q 629.209382 35.578209 629.243923 36.441748 
Q 629.243923 37.512537 629.658422 40.362217 
Q 630.072921 43.211898 630.072921 44.524478 
" clip-path="url(#pc19c781fc2)" style="fill: none; stroke: #000000; stroke-linejoin: miter"/>
   </g>
  </g>
  <g id="axes_40">
   <g id="patch_35">
    <path d="M 634.763917 36.382345 
Q 634.726428 36.494814 634.857641 36.701007 
Q 634.988855 36.9072 634.876386 37.057159 
L 634.876386 39.306538 
Q 634.876386 40.506207 635.213793 41.724621 
Q 635.5512 42.943034 636.413462 43.93651 
Q 637.275724 44.929986 638.475393 44.929986 
Q 639.712552 44.929986 640.387366 43.861531 
Q 641.062179 42.793076 641.512055 41.143531 
Q 641.961931 39.493986 642.299338 38.969131 
L 643.086621 36.382345 
L 642.861683 42.680607 
L 642.861683 45.154924 
Q 642.861683 47.066897 643.592731 51.00331 
Q 644.323779 54.939724 644.323779 56.964166 
Q 645.073572 59.213545 643.986372 60.188276 
Q 642.899172 61.163007 640.837241 60.78811 
Q 639.037738 60.488193 638.119241 60.169531 
Q 637.200745 59.850869 635.213793 58.988607 
L 635.101324 58.426262 
" clip-path="url(#p66c5caa0d2)" style="fill: none; stroke: #000000; stroke-linejoin: miter"/>
   </g>
  </g>
  <g id="axes_41">
   <g id="patch_36">
    <path d="M 651.657476 43.917766 
Q 651.957393 44.180193 652.969614 45.154924 
Q 653.981834 46.129655 654.544179 46.560786 
Q 655.106524 46.991917 656.13749 47.385559 
Q 657.168455 47.7792 658.180676 47.629241 
Q 658.85549 47.629241 659.32411 47.404303 
Q 659.792731 47.179366 660.017669 46.879448 
Q 660.242607 46.579531 660.373821 45.979697 
Q 660.505034 45.379862 660.523779 44.967476 
Q 660.542524 44.55509 660.542524 43.805297 
Q 660.542524 42.718097 659.642772 42.043283 
Q 658.743021 41.368469 657.449628 41.031062 
Q 656.156234 40.693655 654.862841 40.300014 
Q 653.569448 39.906372 652.669697 38.987876 
Q 651.769945 38.069379 651.769945 36.607283 
Q 651.769945 36.082428 651.938648 35.726276 
Q 652.107352 35.370124 652.500993 35.145186 
Q 652.894634 34.920248 653.175807 34.807779 
Q 653.456979 34.69531 654.113048 34.639076 
Q 654.769117 34.582841 654.956566 34.582841 
Q 655.144014 34.582841 655.818828 34.582841 
Q 657.018497 34.582841 657.599586 34.995228 
Q 658.180676 35.407614 658.499338 36.026193 
Q 658.818 36.644772 659.080428 36.832221 
" clip-path="url(#p283f9d51a1)" style="fill: none; stroke: #000000; stroke-linejoin: miter"/>
   </g>
  </g>
  <g id="axes_42"/>
  <g id="axes_43">
   <g id="patch_37">
    <path d="M 685.181498 38.139383 
Q 685.181498 38.139383 687.215419 38.139383 
Q 688.036123 37.889604 690.355507 38.085859 
Q 692.67489 38.282115 693.638326 38.139383 
M 682.184141 46.489163 
L 682.291189 46.168018 
Q 682.291189 45.275947 684.218062 40.797753 
Q 686.144934 36.319559 688.107489 32.251718 
Q 690.070044 28.183877 690.212775 28.183877 
Q 691.069163 28.183877 691.764978 29.646872 
Q 692.460793 31.109868 692.92467 33.393568 
Q 693.388546 35.677269 693.727533 37.943128 
Q 694.06652 40.208987 694.351982 42.332115 
Q 694.637445 44.455242 694.815859 45.097533 
" clip-path="url(#pd4a780a4ac)" style="fill: none; stroke: #000000; stroke-linejoin: miter"/>
   </g>
  </g>
  <g id="axes_44">
   <g id="patch_38">
    <path d="M 700.238731 37.282097 
L 700.238731 37.844441 
Q 700.501159 39.868883 700.538648 41.312234 
Q 700.576138 42.755586 700.482414 44.667559 
Q 700.38869 46.579531 700.38869 48.191586 
L 700.463669 39.643945 
Q 700.463669 38.144359 702.056979 37.507034 
Q 703.65029 36.86971 705.074897 37.282097 
Q 706.986869 37.844441 707.905366 39.04411 
Q 708.823862 40.243779 708.880097 41.668386 
Q 708.936331 43.092993 708.973821 44.817517 
Q 709.01131 46.542041 709.161269 48.191586 
" clip-path="url(#p8a9c7ef97a)" style="fill: none; stroke: #000000; stroke-linejoin: miter"/>
   </g>
  </g>
  <g id="axes_45">
   <g id="patch_39">
    <path d="M 725.687191 39.096404 
Q 725.43236 39.023596 724.46764 38.623146 
Q 723.502921 38.222697 722.84764 38.077079 
Q 722.19236 37.931461 721.537079 38.00427 
Q 718.915955 38.00427 717.277753 40.388764 
Q 715.639551 42.773258 715.639551 45.430787 
Q 715.639551 47.068989 720.881798 47.068989 
Q 722.447191 47.068989 723.775955 45.558202 
Q 725.104719 44.047416 725.778202 42.172584 
Q 726.451685 40.297753 726.451685 38.768764 
Q 726.451685 37.27618 726.415281 36.984944 
L 726.342472 38.077079 
Q 726.342472 38.550337 726.342472 38.987191 
Q 726.378876 40.188539 726.579101 42.281798 
Q 726.779326 44.375056 726.943146 46.049663 
Q 727.106966 47.72427 727.143371 49.872135 
Q 727.179775 52.02 727.015955 53.658202 
Q 726.852135 55.296404 726.287865 56.971011 
Q 725.723596 58.645618 724.795281 59.737753 
Q 723.866966 60.829888 722.265169 61.521573 
Q 720.663371 62.213258 718.515506 62.213258 
Q 716.877303 62.213258 715.785169 61.466966 
Q 714.693034 60.720674 714.693034 59.155281 
Q 714.620225 58.936854 714.656629 58.936854 
Q 714.693034 58.936854 714.802247 58.936854 
Q 714.911461 58.936854 714.911461 58.82764 
" clip-path="url(#pd6c0d24c92)" style="fill: none; stroke: #000000; stroke-linejoin: miter"/>
   </g>
  </g>
  <g id="axes_46">
   <g id="patch_40">
    <path d="M 730.857798 38.160826 
Q 733.830275 39.535596 738.549083 39.721376 
Q 740.072477 39.721376 740.759862 38.550963 
Q 741.447248 37.38055 741.447248 35.82 
Q 741.447248 35.299817 741.354358 34.909679 
Q 741.261468 34.519541 741.019954 34.296606 
Q 740.77844 34.07367 740.611239 33.943624 
Q 740.444037 33.813578 739.998165 33.757844 
Q 739.552294 33.70211 739.347936 33.683532 
Q 739.143578 33.664954 738.567661 33.683532 
Q 737.991743 33.70211 737.768807 33.70211 
Q 735.725229 33.70211 734.238991 35.578486 
Q 732.752752 37.454862 732.752752 39.609908 
Q 732.752752 42.619541 734.684862 44.570229 
Q 736.616972 46.520917 739.663761 46.520917 
Q 741.818807 46.818165 743.342202 44.29156 
" clip-path="url(#p9539321b10)" style="fill: none; stroke: #000000; stroke-linejoin: miter"/>
   </g>
  </g>
  <g id="axes_47">
   <g id="patch_41">
    <path d="M 752.906359 28.621986 
Q 753.131297 30.34651 753.206276 32.146014 
Q 753.281255 33.945517 753.26251 36.551048 
Q 753.243766 39.156579 753.243766 40.093821 
Q 753.243766 40.13131 753.468703 45.829738 
L 753.693641 46.841959 
" clip-path="url(#p14ce6885c1)" style="fill: none; stroke: #000000; stroke-linejoin: miter"/>
   </g>
  </g>
  <g id="axes_48">
   <g id="patch_42">
    <path d="M 775.043923 36.441748 
Q 773.834968 35.094627 769.862687 35.094627 
Q 768.342857 35.094627 767.565672 35.146439 
Q 766.788486 35.198252 765.78678 35.440043 
Q 764.785075 35.681834 764.301493 36.182687 
Q 763.81791 36.683539 763.472495 37.616162 
Q 763.127079 38.548785 763.127079 39.964989 
Q 763.127079 42.037484 764.543284 43.280981 
Q 765.959488 44.524478 767.893817 44.524478 
Q 770.553518 44.524478 773.316844 38.721493 
Q 774.663966 35.854542 774.663966 35.82 
Q 775.009382 35.578209 775.043923 36.441748 
Q 775.043923 37.512537 775.458422 40.362217 
Q 775.872921 43.211898 775.872921 44.524478 
" clip-path="url(#p55704424a2)" style="fill: none; stroke: #000000; stroke-linejoin: miter"/>
   </g>
  </g>
  <g id="axes_49">
   <g id="patch_43">
    <path d="M 784.987697 39.981352 
Q 785.999917 40.956083 786.337324 42.905545 
Q 786.524772 43.955255 786.112386 46.167145 
L 784.875228 47.629241 
" clip-path="url(#pac1f698554)" style="fill: none; stroke: #000000; stroke-linejoin: miter"/>
   </g>
  </g>
 </g>
 <defs>
  <clipPath id="p0d20c532d7">
   <rect x="0" y="10.936525" width="16.2" height="49.766949"/>
  </clipPath>
  <clipPath id="p373a8f785c">
   <rect x="16.2" y="8.881927" width="16.2" height="53.876147"/>
  </clipPath>
  <clipPath id="pd1e980f265">
   <rect x="38.475559" y="8.64" width="4.048883" height="54.36"/>
  </clipPath>
  <clipPath id="pd539b80406">
   <rect x="50.551697" y="8.64" width="12.296607" height="54.36"/>
  </clipPath>
  <clipPath id="p978f921d83">
   <rect x="64.8" y="8.881927" width="16.2" height="53.876147"/>
  </clipPath>
  <clipPath id="p8da45a184e">
   <rect x="98.758055" y="8.64" width="13.08389" height="54.36"/>
  </clipPath>
  <clipPath id="paf04cafce9">
   <rect x="113.4" y="8.881927" width="16.2" height="53.876147"/>
  </clipPath>
  <clipPath id="p95d585f586">
   <rect x="129.6" y="8.881927" width="16.2" height="53.876147"/>
  </clipPath>
  <clipPath id="p02b57745bc">
   <rect x="147.564248" y="8.64" width="12.671503" height="54.36"/>
  </clipPath>
  <clipPath id="p0c6de79b52">
   <rect x="179.589352" y="8.64" width="13.421297" height="54.36"/>
  </clipPath>
  <clipPath id="pfa581247b9">
   <rect x="195.002069" y="8.64" width="14.995862" height="54.36"/>
  </clipPath>
  <clipPath id="p1ccd50cd0e">
   <rect x="211.989352" y="8.64" width="13.421297" height="54.36"/>
  </clipPath>
  <clipPath id="p61bcb837e4">
   <rect x="229.538979" y="8.64" width="10.722041" height="54.36"/>
  </clipPath>
  <clipPath id="ped65558c0c">
   <rect x="248.606938" y="8.64" width="4.986124" height="54.36"/>
  </clipPath>
  <clipPath id="pcc5e4b4d26">
   <rect x="260.964248" y="8.64" width="12.671503" height="54.36"/>
  </clipPath>
  <clipPath id="p25f2be88b5">
   <rect x="275.4" y="9.426742" width="16.2" height="52.786517"/>
  </clipPath>
  <clipPath id="p04fa9433e4">
   <rect x="307.8" y="10.777356" width="16.2" height="50.085288"/>
  </clipPath>
  <clipPath id="p10ac8a26ec">
   <rect x="325.558055" y="8.64" width="13.08389" height="54.36"/>
  </clipPath>
  <clipPath id="p4c39f6c42e">
   <rect x="340.802069" y="8.64" width="14.995862" height="54.36"/>
  </clipPath>
  <clipPath id="pd3a1910ced">
   <rect x="357.789352" y="8.64" width="13.421297" height="54.36"/>
  </clipPath>
  <clipPath id="pd6032ed963">
   <rect x="373.989352" y="8.64" width="13.421297" height="54.36"/>
  </clipPath>
  <clipPath id="p7b534db868">
   <rect x="406.389352" y="8.64" width="13.421297" height="54.36"/>
  </clipPath>
  <clipPath id="p74df771e50">
   <rect x="423.938979" y="8.64" width="10.722041" height="54.36"/>
  </clipPath>
  <clipPath id="p7125c82192">
   <rect x="437.4" y="8.881927" width="16.2" height="53.876147"/>
  </clipPath>
  <clipPath id="p185a1c7424">
   <rect x="470.683241" y="8.64" width="14.433517" height="54.36"/>
  </clipPath>
  <clipPath id="p1fd0786c45">
   <rect x="491.831876" y="8.64" width="4.536248" height="54.36"/>
  </clipPath>
  <clipPath id="p0652d9ec92">
   <rect x="502.2" y="10.777356" width="16.2" height="50.085288"/>
  </clipPath>
  <clipPath id="p953291a98f">
   <rect x="518.4" y="11.850612" width="16.2" height="47.938776"/>
  </clipPath>
  <clipPath id="pc48ad71f75">
   <rect x="534.6" y="8.881927" width="16.2" height="53.876147"/>
  </clipPath>
  <clipPath id="pa1ecba9a1a">
   <rect x="556.200745" y="8.64" width="5.39851" height="54.36"/>
  </clipPath>
  <clipPath id="pe4f161ddc3">
   <rect x="572.325766" y="8.64" width="5.548469" height="54.36"/>
  </clipPath>
  <clipPath id="p022460cbed">
   <rect x="601.182993" y="8.64" width="12.634014" height="54.36"/>
  </clipPath>
  <clipPath id="pc19c781fc2">
   <rect x="615.6" y="10.777356" width="16.2" height="50.085288"/>
  </clipPath>
  <clipPath id="p66c5caa0d2">
   <rect x="632.851945" y="8.64" width="14.09611" height="54.36"/>
  </clipPath>
  <clipPath id="p283f9d51a1">
   <rect x="649.782993" y="8.64" width="12.634014" height="54.36"/>
  </clipPath>
  <clipPath id="pd4a780a4ac">
   <rect x="680.4" y="9.949956" width="16.2" height="51.740088"/>
  </clipPath>
  <clipPath id="p8a9c7ef97a">
   <rect x="698.364248" y="8.64" width="12.671503" height="54.36"/>
  </clipPath>
  <clipPath id="pd6c0d24c92">
   <rect x="712.8" y="9.426742" width="16.2" height="52.786517"/>
  </clipPath>
  <clipPath id="p9539321b10">
   <rect x="729" y="8.881927" width="16.2" height="53.876147"/>
  </clipPath>
  <clipPath id="p14ce6885c1">
   <rect x="751.031876" y="8.64" width="4.536248" height="54.36"/>
  </clipPath>
  <clipPath id="p55704424a2">
   <rect x="761.4" y="10.777356" width="16.2" height="50.085288"/>
  </clipPath>
  <clipPath id="pac1f698554">
   <rect x="783.000745" y="8.64" width="5.39851" height="54.36"/>
  </clipPath>
 </defs>
</svg>
