<?xml version="1.0" encoding="utf-8" standalone="no"?>
<!DOCTYPE svg PUBLIC "-//W3C//DTD SVG 1.1//EN"
  "http://www.w3.org/Graphics/SVG/1.1/DTD/svg11.dtd">
<svg xmlns:xlink="http://www.w3.org/1999/xlink" width="630pt" height="72pt" viewBox="0 0 630 72" xmlns="http://www.w3.org/2000/svg" version="1.1">
 <metadata>
  <rdf:RDF xmlns:dc="http://purl.org/dc/elements/1.1/" xmlns:cc="http://creativecommons.org/ns#" xmlns:rdf="http://www.w3.org/1999/02/22-rdf-syntax-ns#">
   <cc:Work>
    <dc:type rdf:resource="http://purl.org/dc/dcmitype/StillImage"/>
    <dc:date>2023-12-21T12:08:41.218591</dc:date>
    <dc:format>image/svg+xml</dc:format>
    <dc:creator>
     <cc:Agent>
      <dc:title>Matplotlib v3.5.1, https://matplotlib.org/</dc:title>
     </cc:Agent>
    </dc:creator>
   </cc:Work>
  </rdf:RDF>
 </metadata>
 <defs>
  <style type="text/css">*{stroke-linejoin: round; stroke-linecap: butt}</style>
 </defs>
 <g id="figure_1">
  <g id="patch_1">
   <path d="M 0 72 
L 630 72 
L 630 0 
L 0 0 
z
" style="fill: #8fff9f"/>
  </g>
  <g id="axes_1">
   <g id="patch_2">
    <path d="M 4.613462 32.783338 
Q 5.138317 34.507862 5.269531 36.457324 
Q 5.400745 38.406786 5.325766 40.956083 
Q 5.250786 43.505379 5.288276 44.705048 
L 5.400745 46.054676 
L 5.400745 45.829738 
Q 5.400745 44.667559 5.119572 42.30571 
Q 4.8384 39.943862 4.8384 38.744193 
Q 4.8384 36.419834 5.850621 34.882759 
Q 6.862841 33.345683 8.887283 33.345683 
Q 9.599586 33.345683 9.936993 33.626855 
Q 10.2744 33.908028 10.536828 34.432883 
Q 10.799255 34.957738 11.136662 35.257655 
L 11.586538 36.832221 
" clip-path="url(#pd5f43aacbf)" style="fill: none; stroke: #000000; stroke-linejoin: miter"/>
   </g>
  </g>
  <g id="axes_2">
   <g id="patch_3">
    <path d="M 18.057798 38.160826 
Q 21.030275 39.535596 25.749083 39.721376 
Q 27.272477 39.721376 27.959862 38.550963 
Q 28.647248 37.38055 28.647248 35.82 
Q 28.647248 35.299817 28.554358 34.909679 
Q 28.461468 34.519541 28.219954 34.296606 
Q 27.97844 34.07367 27.811239 33.943624 
Q 27.644037 33.813578 27.198165 33.757844 
Q 26.752294 33.70211 26.547936 33.683532 
Q 26.343578 33.664954 25.767661 33.683532 
Q 25.191743 33.70211 24.968807 33.70211 
Q 22.925229 33.70211 21.438991 35.578486 
Q 19.952752 37.454862 19.952752 39.609908 
Q 19.952752 42.619541 21.884862 44.570229 
Q 23.816972 46.520917 26.863761 46.520917 
Q 29.018807 46.818165 30.542202 44.29156 
" clip-path="url(#pa5e9ce9c77)" style="fill: none; stroke: #000000; stroke-linejoin: miter"/>
   </g>
  </g>
  <g id="axes_3">
   <g id="patch_4">
    <path d="M 35.663834 37.95691 
L 36.338648 37.95691 
Q 37.050952 37.95691 37.838234 37.881931 
Q 38.625517 37.806952 39.581503 37.675738 
Q 40.53749 37.544524 41.062345 37.507034 
L 45.336166 35.82 
M 41.287283 30.42149 
L 41.287283 31.43371 
Q 41.287283 33.383172 40.612469 37.207117 
Q 39.937655 41.031062 39.937655 43.018014 
Q 39.937655 43.805297 39.937655 44.105214 
Q 39.937655 44.405131 40.031379 45.042455 
Q 40.125103 45.679779 40.312552 45.960952 
Q 40.5 46.242124 40.893641 46.485807 
Q 41.287283 46.72949 41.849628 46.72949 
Q 41.962097 46.692 42.280759 46.72949 
Q 42.599421 46.766979 42.786869 46.710745 
Q 42.974317 46.65451 42.974317 46.392083 
" clip-path="url(#p29ac7bbc0d)" style="fill: none; stroke: #000000; stroke-linejoin: miter"/>
   </g>
  </g>
  <g id="axes_4">
   <g id="patch_5">
    <path d="M 57.318579 29.071862 
Q 56.943683 29.146841 56.812469 29.577972 
Q 56.681255 30.009103 56.756234 30.42149 
Q 56.756234 30.571448 56.793724 30.702662 
Q 56.831214 30.833876 56.887448 30.89011 
Q 56.943683 30.946345 56.999917 31.040069 
Q 57.056152 31.133793 57.093641 31.208772 
L 57.20611 29.859145 
M 57.20611 34.020497 
Q 56.306359 39.006621 56.081421 42.793076 
L 56.531297 45.379862 
L 56.868703 46.054676 
" clip-path="url(#p052be13fa4)" style="fill: none; stroke: #000000; stroke-linejoin: miter"/>
   </g>
  </g>
  <g id="axes_5">
   <g id="patch_6">
    <path d="M 69.413462 32.783338 
Q 69.938317 34.507862 70.069531 36.457324 
Q 70.200745 38.406786 70.125766 40.956083 
Q 70.050786 43.505379 70.088276 44.705048 
L 70.200745 46.054676 
L 70.200745 45.829738 
Q 70.200745 44.667559 69.919572 42.30571 
Q 69.6384 39.943862 69.6384 38.744193 
Q 69.6384 36.419834 70.650621 34.882759 
Q 71.662841 33.345683 73.687283 33.345683 
Q 74.399586 33.345683 74.736993 33.626855 
Q 75.0744 33.908028 75.336828 34.432883 
Q 75.599255 34.957738 75.936662 35.257655 
L 76.386538 36.832221 
" clip-path="url(#p29a27d8d87)" style="fill: none; stroke: #000000; stroke-linejoin: miter"/>
   </g>
  </g>
  <g id="axes_6">
   <g id="patch_7">
    <path d="M 82.857798 38.160826 
Q 85.830275 39.535596 90.549083 39.721376 
Q 92.072477 39.721376 92.759862 38.550963 
Q 93.447248 37.38055 93.447248 35.82 
Q 93.447248 35.299817 93.354358 34.909679 
Q 93.261468 34.519541 93.019954 34.296606 
Q 92.77844 34.07367 92.611239 33.943624 
Q 92.444037 33.813578 91.998165 33.757844 
Q 91.552294 33.70211 91.347936 33.683532 
Q 91.143578 33.664954 90.567661 33.683532 
Q 89.991743 33.70211 89.768807 33.70211 
Q 87.725229 33.70211 86.238991 35.578486 
Q 84.752752 37.454862 84.752752 39.609908 
Q 84.752752 42.619541 86.684862 44.570229 
Q 88.616972 46.520917 91.663761 46.520917 
Q 93.818807 46.818165 95.342202 44.29156 
" clip-path="url(#p3cf20fdee2)" style="fill: none; stroke: #000000; stroke-linejoin: miter"/>
   </g>
  </g>
  <g id="axes_7">
   <g id="patch_8">
    <path d="M 99.008036 34.879821 
Q 99.514286 36.073125 99.803571 42.871339 
Q 99.948214 46.632054 100.2375 46.632054 
Q 100.273661 46.632054 100.309821 46.595893 
Q 100.816071 46.017321 100.870312 44.588973 
Q 100.924554 43.160625 100.707589 41.750357 
Q 100.490625 40.340089 100.2375 38.712857 
Q 99.984375 37.085625 99.984375 36.398571 
Q 99.984375 35.169107 100.364062 33.939643 
Q 100.74375 32.710179 101.720089 32.710179 
Q 102.949554 32.710179 103.672768 34.355491 
Q 104.395982 36.000804 104.558705 37.971563 
Q 104.721429 39.942321 104.829911 41.587634 
Q 104.938393 43.232946 105.083036 43.232946 
Q 105.227679 43.232946 105.31808 41.497232 
Q 105.408482 39.761518 105.535045 37.700357 
Q 105.661607 35.639196 106.384821 33.903482 
Q 107.108036 32.167768 108.3375 32.167768 
Q 109.892411 33.035625 110.561384 34.771339 
Q 111.230357 36.507054 111.194196 38.188527 
Q 111.158036 39.87 111.176116 42.057723 
Q 111.194196 44.245446 111.591964 45.511071 
" clip-path="url(#p3a17fc53f2)" style="fill: none; stroke: #000000; stroke-linejoin: miter"/>
   </g>
  </g>
  <g id="axes_8">
   <g id="patch_9">
    <path d="M 115.257798 38.160826 
Q 118.230275 39.535596 122.949083 39.721376 
Q 124.472477 39.721376 125.159862 38.550963 
Q 125.847248 37.38055 125.847248 35.82 
Q 125.847248 35.299817 125.754358 34.909679 
Q 125.661468 34.519541 125.419954 34.296606 
Q 125.17844 34.07367 125.011239 33.943624 
Q 124.844037 33.813578 124.398165 33.757844 
Q 123.952294 33.70211 123.747936 33.683532 
Q 123.543578 33.664954 122.967661 33.683532 
Q 122.391743 33.70211 122.168807 33.70211 
Q 120.125229 33.70211 118.638991 35.578486 
Q 117.152752 37.454862 117.152752 39.609908 
Q 117.152752 42.619541 119.084862 44.570229 
Q 121.016972 46.520917 124.063761 46.520917 
Q 126.218807 46.818165 127.742202 44.29156 
" clip-path="url(#pdc1c87a14c)" style="fill: none; stroke: #000000; stroke-linejoin: miter"/>
   </g>
  </g>
  <g id="axes_9">
   <g id="patch_10">
    <path d="M 133.238731 37.282097 
L 133.238731 37.844441 
Q 133.501159 39.868883 133.538648 41.312234 
Q 133.576138 42.755586 133.482414 44.667559 
Q 133.38869 46.579531 133.38869 48.191586 
L 133.463669 39.643945 
Q 133.463669 38.144359 135.056979 37.507034 
Q 136.65029 36.86971 138.074897 37.282097 
Q 139.986869 37.844441 140.905366 39.04411 
Q 141.823862 40.243779 141.880097 41.668386 
Q 141.936331 43.092993 141.973821 44.817517 
Q 142.01131 46.542041 142.161269 48.191586 
" clip-path="url(#pc9b6fdede0)" style="fill: none; stroke: #000000; stroke-linejoin: miter"/>
   </g>
  </g>
  <g id="axes_10">
   <g id="patch_11">
    <path d="M 149.063834 37.95691 
L 149.738648 37.95691 
Q 150.450952 37.95691 151.238234 37.881931 
Q 152.025517 37.806952 152.981503 37.675738 
Q 153.93749 37.544524 154.462345 37.507034 
L 158.736166 35.82 
M 154.687283 30.42149 
L 154.687283 31.43371 
Q 154.687283 33.383172 154.012469 37.207117 
Q 153.337655 41.031062 153.337655 43.018014 
Q 153.337655 43.805297 153.337655 44.105214 
Q 153.337655 44.405131 153.431379 45.042455 
Q 153.525103 45.679779 153.712552 45.960952 
Q 153.9 46.242124 154.293641 46.485807 
Q 154.687283 46.72949 155.249628 46.72949 
Q 155.362097 46.692 155.680759 46.72949 
Q 155.999421 46.766979 156.186869 46.710745 
Q 156.374317 46.65451 156.374317 46.392083 
" clip-path="url(#pc25af702c1)" style="fill: none; stroke: #000000; stroke-linejoin: miter"/>
   </g>
  </g>
  <g id="axes_11"/>
  <g id="axes_12">
   <g id="patch_12">
    <path d="M 186.918579 29.071862 
Q 186.543683 29.146841 186.412469 29.577972 
Q 186.281255 30.009103 186.356234 30.42149 
Q 186.356234 30.571448 186.393724 30.702662 
Q 186.431214 30.833876 186.487448 30.89011 
Q 186.543683 30.946345 186.599917 31.040069 
Q 186.656152 31.133793 186.693641 31.208772 
L 186.80611 29.859145 
M 186.80611 34.020497 
Q 185.906359 39.006621 185.681421 42.793076 
L 186.131297 45.379862 
L 186.468703 46.054676 
" clip-path="url(#pbe66e35571)" style="fill: none; stroke: #000000; stroke-linejoin: miter"/>
   </g>
  </g>
  <g id="axes_13">
   <g id="patch_13">
    <path d="M 198.057476 43.917766 
Q 198.357393 44.180193 199.369614 45.154924 
Q 200.381834 46.129655 200.944179 46.560786 
Q 201.506524 46.991917 202.53749 47.385559 
Q 203.568455 47.7792 204.580676 47.629241 
Q 205.25549 47.629241 205.72411 47.404303 
Q 206.192731 47.179366 206.417669 46.879448 
Q 206.642607 46.579531 206.773821 45.979697 
Q 206.905034 45.379862 206.923779 44.967476 
Q 206.942524 44.55509 206.942524 43.805297 
Q 206.942524 42.718097 206.042772 42.043283 
Q 205.143021 41.368469 203.849628 41.031062 
Q 202.556234 40.693655 201.262841 40.300014 
Q 199.969448 39.906372 199.069697 38.987876 
Q 198.169945 38.069379 198.169945 36.607283 
Q 198.169945 36.082428 198.338648 35.726276 
Q 198.507352 35.370124 198.900993 35.145186 
Q 199.294634 34.920248 199.575807 34.807779 
Q 199.856979 34.69531 200.513048 34.639076 
Q 201.169117 34.582841 201.356566 34.582841 
Q 201.544014 34.582841 202.218828 34.582841 
Q 203.418497 34.582841 203.999586 34.995228 
Q 204.580676 35.407614 204.899338 36.026193 
Q 205.218 36.644772 205.480428 36.832221 
" clip-path="url(#pb75e84440a)" style="fill: none; stroke: #000000; stroke-linejoin: miter"/>
   </g>
  </g>
  <g id="axes_14"/>
  <g id="axes_15">
   <g id="patch_14">
    <path d="M 238.1616 35.032717 
Q 237.11189 34.582841 236.137159 34.69531 
Q 233.100497 35.032717 231.188524 36.701007 
Q 229.276552 38.369297 229.276552 41.330979 
Q 229.276552 43.917766 231.282248 45.6048 
Q 233.287945 47.291834 235.912221 47.291834 
Q 238.274069 47.291834 239.398759 45.361117 
Q 240.523448 43.4304 240.523448 40.881103 
Q 240.523448 39.643945 240.111062 38.706703 
Q 239.698676 37.769462 239.173821 37.300841 
Q 238.648966 36.832221 237.899172 36.119917 
Q 237.149379 35.407614 236.699503 34.69531 
L 235.462345 34.245434 
" clip-path="url(#pf4d9d3cc34)" style="fill: none; stroke: #000000; stroke-linejoin: miter"/>
   </g>
  </g>
  <g id="axes_16">
   <g id="patch_15">
    <path d="M 246.488772 35.145186 
Q 246.488772 35.145186 246.488772 35.595062 
Q 246.488772 36.269876 246.376303 37.619503 
Q 246.263834 38.969131 246.263834 39.643945 
Q 246.263834 41.930814 247.500993 43.599103 
Q 248.738152 45.267393 250.875062 45.267393 
Q 252.262179 45.154924 253.030717 43.917766 
Q 253.799255 42.680607 253.949214 41.237255 
Q 254.099172 39.793903 254.3616 37.9944 
Q 254.624028 36.194897 255.036414 35.370124 
Q 255.186372 35.070207 255.186372 35.670041 
Q 255.186372 36.269876 254.923945 38.706703 
Q 254.699007 41.031062 254.699007 41.555917 
Q 254.549048 42.643117 254.886455 43.767807 
Q 255.223862 44.892497 255.936166 45.6048 
" clip-path="url(#padf380ebb6)" style="fill: none; stroke: #000000; stroke-linejoin: miter"/>
   </g>
  </g>
  <g id="axes_17">
   <g id="patch_16">
    <path d="M 263.813462 32.783338 
Q 264.338317 34.507862 264.469531 36.457324 
Q 264.600745 38.406786 264.525766 40.956083 
Q 264.450786 43.505379 264.488276 44.705048 
L 264.600745 46.054676 
L 264.600745 45.829738 
Q 264.600745 44.667559 264.319572 42.30571 
Q 264.0384 39.943862 264.0384 38.744193 
Q 264.0384 36.419834 265.050621 34.882759 
Q 266.062841 33.345683 268.087283 33.345683 
Q 268.799586 33.345683 269.136993 33.626855 
Q 269.4744 33.908028 269.736828 34.432883 
Q 269.999255 34.957738 270.336662 35.257655 
L 270.786538 36.832221 
" clip-path="url(#p0fb7717a0e)" style="fill: none; stroke: #000000; stroke-linejoin: miter"/>
   </g>
  </g>
  <g id="axes_18"/>
  <g id="axes_19">
   <g id="patch_17">
    <path d="M 304.956735 34.365306 
Q 304.956735 34.365306 304.460816 34.365306 
Q 303.667347 34.365306 302.179592 34.067755 
Q 300.691837 33.770204 299.898367 33.770204 
Q 297.121224 33.770204 295.187143 35.224898 
Q 293.253061 36.679592 293.253061 39.423673 
Q 293.253061 40.94449 294.740816 42.399184 
Q 296.228571 43.853878 298.162653 44.663878 
Q 300.096735 45.473878 301.58449 45.473878 
Q 302.510204 45.473878 303.20449 45.110204 
Q 303.898776 44.746531 304.642653 44.118367 
Q 305.386531 43.490204 305.948571 43.192653 
L 306.146939 42.696735 
" clip-path="url(#p1c72cd67de)" style="fill: none; stroke: #000000; stroke-linejoin: miter"/>
   </g>
  </g>
  <g id="axes_20">
   <g id="patch_18">
    <path d="M 312.413462 35.932469 
Q 313.013297 35.257655 314.006772 34.826524 
Q 315.000248 34.395393 315.9 34.470372 
Q 316.537324 34.470372 317.02469 34.639076 
Q 317.512055 34.807779 317.830717 34.995228 
Q 318.149379 35.182676 318.374317 35.670041 
Q 318.599255 36.157407 318.711724 36.419834 
Q 318.824193 36.682262 318.880428 37.375821 
Q 318.936662 38.069379 318.955407 38.331807 
Q 318.974152 38.594234 318.955407 39.419007 
Q 318.936662 40.243779 318.936662 40.431228 
Q 318.936662 41.368469 318.767959 43.242952 
Q 318.599255 45.117434 318.599255 46.054676 
Q 318.599255 46.467062 318.65549 46.823214 
Q 318.711724 47.179366 318.805448 47.610497 
Q 318.899172 48.041628 318.936662 48.304055 
L 319.386538 48.528993 
M 312.863338 23.111007 
Q 313.088276 24.798041 313.088276 29.971614 
L 313.088276 42.3432 
L 312.750869 46.841959 
L 312.525931 47.74171 
" clip-path="url(#p6329a01403)" style="fill: none; stroke: #000000; stroke-linejoin: miter"/>
   </g>
  </g>
  <g id="axes_21">
   <g id="patch_19">
    <path d="M 337.643923 36.441748 
Q 336.434968 35.094627 332.462687 35.094627 
Q 330.942857 35.094627 330.165672 35.146439 
Q 329.388486 35.198252 328.38678 35.440043 
Q 327.385075 35.681834 326.901493 36.182687 
Q 326.41791 36.683539 326.072495 37.616162 
Q 325.727079 38.548785 325.727079 39.964989 
Q 325.727079 42.037484 327.143284 43.280981 
Q 328.559488 44.524478 330.493817 44.524478 
Q 333.153518 44.524478 335.916844 38.721493 
Q 337.263966 35.854542 337.263966 35.82 
Q 337.609382 35.578209 337.643923 36.441748 
Q 337.643923 37.512537 338.058422 40.362217 
Q 338.472921 43.211898 338.472921 44.524478 
" clip-path="url(#pf92fc159fc)" style="fill: none; stroke: #000000; stroke-linejoin: miter"/>
   </g>
  </g>
  <g id="axes_22">
   <g id="patch_20">
    <path d="M 343.838731 37.282097 
L 343.838731 37.844441 
Q 344.101159 39.868883 344.138648 41.312234 
Q 344.176138 42.755586 344.082414 44.667559 
Q 343.98869 46.579531 343.98869 48.191586 
L 344.063669 39.643945 
Q 344.063669 38.144359 345.656979 37.507034 
Q 347.25029 36.86971 348.674897 37.282097 
Q 350.586869 37.844441 351.505366 39.04411 
Q 352.423862 40.243779 352.480097 41.668386 
Q 352.536331 43.092993 352.573821 44.817517 
Q 352.61131 46.542041 352.761269 48.191586 
" clip-path="url(#p441da1118f)" style="fill: none; stroke: #000000; stroke-linejoin: miter"/>
   </g>
  </g>
  <g id="axes_23">
   <g id="patch_21">
    <path d="M 369.756735 34.365306 
Q 369.756735 34.365306 369.260816 34.365306 
Q 368.467347 34.365306 366.979592 34.067755 
Q 365.491837 33.770204 364.698367 33.770204 
Q 361.921224 33.770204 359.987143 35.224898 
Q 358.053061 36.679592 358.053061 39.423673 
Q 358.053061 40.94449 359.540816 42.399184 
Q 361.028571 43.853878 362.962653 44.663878 
Q 364.896735 45.473878 366.38449 45.473878 
Q 367.310204 45.473878 368.00449 45.110204 
Q 368.698776 44.746531 369.442653 44.118367 
Q 370.186531 43.490204 370.748571 43.192653 
L 370.946939 42.696735 
" clip-path="url(#p0b85cfb1f6)" style="fill: none; stroke: #000000; stroke-linejoin: miter"/>
   </g>
  </g>
  <g id="axes_24">
   <g id="patch_22">
    <path d="M 374.457798 38.160826 
Q 377.430275 39.535596 382.149083 39.721376 
Q 383.672477 39.721376 384.359862 38.550963 
Q 385.047248 37.38055 385.047248 35.82 
Q 385.047248 35.299817 384.954358 34.909679 
Q 384.861468 34.519541 384.619954 34.296606 
Q 384.37844 34.07367 384.211239 33.943624 
Q 384.044037 33.813578 383.598165 33.757844 
Q 383.152294 33.70211 382.947936 33.683532 
Q 382.743578 33.664954 382.167661 33.683532 
Q 381.591743 33.70211 381.368807 33.70211 
Q 379.325229 33.70211 377.838991 35.578486 
Q 376.352752 37.454862 376.352752 39.609908 
Q 376.352752 42.619541 378.284862 44.570229 
Q 380.216972 46.520917 383.263761 46.520917 
Q 385.418807 46.818165 386.942202 44.29156 
" clip-path="url(#p34e560c1a4)" style="fill: none; stroke: #000000; stroke-linejoin: miter"/>
   </g>
  </g>
  <g id="axes_25"/>
  <g id="axes_26">
   <g id="patch_23">
    <path d="M 408.263834 37.95691 
L 408.938648 37.95691 
Q 409.650952 37.95691 410.438234 37.881931 
Q 411.225517 37.806952 412.181503 37.675738 
Q 413.13749 37.544524 413.662345 37.507034 
L 417.936166 35.82 
M 413.887283 30.42149 
L 413.887283 31.43371 
Q 413.887283 33.383172 413.212469 37.207117 
Q 412.537655 41.031062 412.537655 43.018014 
Q 412.537655 43.805297 412.537655 44.105214 
Q 412.537655 44.405131 412.631379 45.042455 
Q 412.725103 45.679779 412.912552 45.960952 
Q 413.1 46.242124 413.493641 46.485807 
Q 413.887283 46.72949 414.449628 46.72949 
Q 414.562097 46.692 414.880759 46.72949 
Q 415.199421 46.766979 415.386869 46.710745 
Q 415.574317 46.65451 415.574317 46.392083 
" clip-path="url(#pe6a00134f7)" style="fill: none; stroke: #000000; stroke-linejoin: miter"/>
   </g>
  </g>
  <g id="axes_27">
   <g id="patch_24">
    <path d="M 432.5616 35.032717 
Q 431.51189 34.582841 430.537159 34.69531 
Q 427.500497 35.032717 425.588524 36.701007 
Q 423.676552 38.369297 423.676552 41.330979 
Q 423.676552 43.917766 425.682248 45.6048 
Q 427.687945 47.291834 430.312221 47.291834 
Q 432.674069 47.291834 433.798759 45.361117 
Q 434.923448 43.4304 434.923448 40.881103 
Q 434.923448 39.643945 434.511062 38.706703 
Q 434.098676 37.769462 433.573821 37.300841 
Q 433.048966 36.832221 432.299172 36.119917 
Q 431.549379 35.407614 431.099503 34.69531 
L 429.862345 34.245434 
" clip-path="url(#pdf125ccf60)" style="fill: none; stroke: #000000; stroke-linejoin: miter"/>
   </g>
  </g>
  <g id="axes_28"/>
  <g id="axes_29">
   <g id="patch_25">
    <path d="M 465.299007 39.568966 
Q 463.949379 38.181848 461.7 38.444276 
Q 458.850786 38.444276 457.688607 39.793903 
Q 456.526428 41.143531 456.526428 44.067724 
Q 456.526428 45.56731 457.819821 46.279614 
Q 459.113214 46.991917 460.687779 46.991917 
Q 461.999917 46.991917 463.012138 45.736014 
Q 464.024359 44.48011 464.605448 42.30571 
Q 465.186538 40.13131 465.561434 37.938166 
Q 465.936331 35.745021 466.08629 33.045766 
Q 466.236248 30.34651 466.273738 28.978138 
Q 466.311228 27.609766 466.311228 26.185159 
Q 466.08629 26.260138 466.08629 29.896634 
L 466.08629 44.292662 
L 466.873572 48.229076 
" clip-path="url(#pc5b95ca1da)" style="fill: none; stroke: #000000; stroke-linejoin: miter"/>
   </g>
  </g>
  <g id="axes_30">
   <g id="patch_26">
    <path d="M 481.1616 35.032717 
Q 480.11189 34.582841 479.137159 34.69531 
Q 476.100497 35.032717 474.188524 36.701007 
Q 472.276552 38.369297 472.276552 41.330979 
Q 472.276552 43.917766 474.282248 45.6048 
Q 476.287945 47.291834 478.912221 47.291834 
Q 481.274069 47.291834 482.398759 45.361117 
Q 483.523448 43.4304 483.523448 40.881103 
Q 483.523448 39.643945 483.111062 38.706703 
Q 482.698676 37.769462 482.173821 37.300841 
Q 481.648966 36.832221 480.899172 36.119917 
Q 480.149379 35.407614 479.699503 34.69531 
L 478.462345 34.245434 
" clip-path="url(#pcb1e9728fb)" style="fill: none; stroke: #000000; stroke-linejoin: miter"/>
   </g>
  </g>
  <g id="axes_31"/>
  <g id="axes_32">
   <g id="patch_27">
    <path d="M 510.918579 29.071862 
Q 510.543683 29.146841 510.412469 29.577972 
Q 510.281255 30.009103 510.356234 30.42149 
Q 510.356234 30.571448 510.393724 30.702662 
Q 510.431214 30.833876 510.487448 30.89011 
Q 510.543683 30.946345 510.599917 31.040069 
Q 510.656152 31.133793 510.693641 31.208772 
L 510.80611 29.859145 
M 510.80611 34.020497 
Q 509.906359 39.006621 509.681421 42.793076 
L 510.131297 45.379862 
L 510.468703 46.054676 
" clip-path="url(#p1bfda7c4cd)" style="fill: none; stroke: #000000; stroke-linejoin: miter"/>
   </g>
  </g>
  <g id="axes_33">
   <g id="patch_28">
    <path d="M 521.663834 37.95691 
L 522.338648 37.95691 
Q 523.050952 37.95691 523.838234 37.881931 
Q 524.625517 37.806952 525.581503 37.675738 
Q 526.53749 37.544524 527.062345 37.507034 
L 531.336166 35.82 
M 527.287283 30.42149 
L 527.287283 31.43371 
Q 527.287283 33.383172 526.612469 37.207117 
Q 525.937655 41.031062 525.937655 43.018014 
Q 525.937655 43.805297 525.937655 44.105214 
Q 525.937655 44.405131 526.031379 45.042455 
Q 526.125103 45.679779 526.312552 45.960952 
Q 526.5 46.242124 526.893641 46.485807 
Q 527.287283 46.72949 527.849628 46.72949 
Q 527.962097 46.692 528.280759 46.72949 
Q 528.599421 46.766979 528.786869 46.710745 
Q 528.974317 46.65451 528.974317 46.392083 
" clip-path="url(#pa4dcf37255)" style="fill: none; stroke: #000000; stroke-linejoin: miter"/>
   </g>
  </g>
  <g id="axes_34">
   <g id="patch_29">
    <path d="M 542.587531 45.979697 
Q 542.550041 46.017186 542.418828 46.054676 
Q 542.287614 46.092166 542.325103 46.167145 
Q 542.325103 46.579531 542.7 46.579531 
Q 543.037407 46.579531 543.037407 46.092166 
Q 543.112386 45.867228 542.831214 45.754759 
Q 542.550041 45.64229 542.362593 45.754759 
" clip-path="url(#pe6fa3197af)" style="fill: none; stroke: #000000; stroke-linejoin: miter"/>
   </g>
  </g>
  <g id="axes_35">
   <g id="patch_30">
    <path d="M 559.424855 27.009931 
Q 559.499834 27.347338 559.574814 28.265834 
Q 559.649793 29.184331 559.799752 29.634207 
L 559.724772 31.058814 
M 558.075228 27.309848 
Q 558.037738 27.309848 558.000248 27.534786 
Q 558.037738 27.684745 558.150207 28.828179 
Q 558.262676 29.971614 558.525103 30.533959 
" clip-path="url(#pb1c85b15c7)" style="fill: none; stroke: #000000; stroke-linejoin: miter"/>
   </g>
  </g>
 </g>
 <defs>
  <clipPath id="pd5f43aacbf">
   <rect x="2.738979" y="8.64" width="10.722041" height="54.36"/>
  </clipPath>
  <clipPath id="pa5e9ce9c77">
   <rect x="16.2" y="8.881927" width="16.2" height="53.876147"/>
  </clipPath>
  <clipPath id="p29ac7bbc0d">
   <rect x="33.789352" y="8.64" width="13.421297" height="54.36"/>
  </clipPath>
  <clipPath id="p052be13fa4">
   <rect x="54.206938" y="8.64" width="4.986124" height="54.36"/>
  </clipPath>
  <clipPath id="p29a27d8d87">
   <rect x="67.538979" y="8.64" width="10.722041" height="54.36"/>
  </clipPath>
  <clipPath id="p3cf20fdee2">
   <rect x="81" y="8.881927" width="16.2" height="53.876147"/>
  </clipPath>
  <clipPath id="p3a17fc53f2">
   <rect x="97.2" y="9.603482" width="16.2" height="52.433036"/>
  </clipPath>
  <clipPath id="pdc1c87a14c">
   <rect x="113.4" y="8.881927" width="16.2" height="53.876147"/>
  </clipPath>
  <clipPath id="pc9b6fdede0">
   <rect x="131.364248" y="8.64" width="12.671503" height="54.36"/>
  </clipPath>
  <clipPath id="pc25af702c1">
   <rect x="147.189352" y="8.64" width="13.421297" height="54.36"/>
  </clipPath>
  <clipPath id="pbe66e35571">
   <rect x="183.806938" y="8.64" width="4.986124" height="54.36"/>
  </clipPath>
  <clipPath id="pb75e84440a">
   <rect x="196.182993" y="8.64" width="12.634014" height="54.36"/>
  </clipPath>
  <clipPath id="pf4d9d3cc34">
   <rect x="227.402069" y="8.64" width="14.995862" height="54.36"/>
  </clipPath>
  <clipPath id="padf380ebb6">
   <rect x="244.389352" y="8.64" width="13.421297" height="54.36"/>
  </clipPath>
  <clipPath id="p0fb7717a0e">
   <rect x="261.938979" y="8.64" width="10.722041" height="54.36"/>
  </clipPath>
  <clipPath id="p1c72cd67de">
   <rect x="291.6" y="11.850612" width="16.2" height="47.938776"/>
  </clipPath>
  <clipPath id="p6329a01403">
   <rect x="310.538979" y="8.64" width="10.722041" height="54.36"/>
  </clipPath>
  <clipPath id="pf92fc159fc">
   <rect x="324" y="10.777356" width="16.2" height="50.085288"/>
  </clipPath>
  <clipPath id="p441da1118f">
   <rect x="341.964248" y="8.64" width="12.671503" height="54.36"/>
  </clipPath>
  <clipPath id="p0b85cfb1f6">
   <rect x="356.4" y="11.850612" width="16.2" height="47.938776"/>
  </clipPath>
  <clipPath id="p34e560c1a4">
   <rect x="372.6" y="8.881927" width="16.2" height="53.876147"/>
  </clipPath>
  <clipPath id="pe6a00134f7">
   <rect x="406.389352" y="8.64" width="13.421297" height="54.36"/>
  </clipPath>
  <clipPath id="pdf125ccf60">
   <rect x="421.802069" y="8.64" width="14.995862" height="54.36"/>
  </clipPath>
  <clipPath id="pc5b95ca1da">
   <rect x="454.651945" y="8.64" width="14.09611" height="54.36"/>
  </clipPath>
  <clipPath id="pcb1e9728fb">
   <rect x="470.402069" y="8.64" width="14.995862" height="54.36"/>
  </clipPath>
  <clipPath id="p1bfda7c4cd">
   <rect x="507.806938" y="8.64" width="4.986124" height="54.36"/>
  </clipPath>
  <clipPath id="pa4dcf37255">
   <rect x="519.789352" y="8.64" width="13.421297" height="54.36"/>
  </clipPath>
  <clipPath id="pe6fa3197af">
   <rect x="540.413131" y="8.64" width="4.573738" height="54.36"/>
  </clipPath>
  <clipPath id="pb1c85b15c7">
   <rect x="556.125766" y="8.64" width="5.548469" height="54.36"/>
  </clipPath>
 </defs>
</svg>
