<?xml version="1.0" encoding="utf-8" standalone="no"?>
<!DOCTYPE svg PUBLIC "-//W3C//DTD SVG 1.1//EN"
  "http://www.w3.org/Graphics/SVG/1.1/DTD/svg11.dtd">
<svg xmlns:xlink="http://www.w3.org/1999/xlink" width="936pt" height="72pt" viewBox="0 0 936 72" xmlns="http://www.w3.org/2000/svg" version="1.1">
 <metadata>
  <rdf:RDF xmlns:dc="http://purl.org/dc/elements/1.1/" xmlns:cc="http://creativecommons.org/ns#" xmlns:rdf="http://www.w3.org/1999/02/22-rdf-syntax-ns#">
   <cc:Work>
    <dc:type rdf:resource="http://purl.org/dc/dcmitype/StillImage"/>
    <dc:date>2023-12-21T12:08:58.459274</dc:date>
    <dc:format>image/svg+xml</dc:format>
    <dc:creator>
     <cc:Agent>
      <dc:title>Matplotlib v3.5.1, https://matplotlib.org/</dc:title>
     </cc:Agent>
    </dc:creator>
   </cc:Work>
  </rdf:RDF>
 </metadata>
 <defs>
  <style type="text/css">*{stroke-linejoin: round; stroke-linecap: butt}</style>
 </defs>
 <g id="figure_1">
  <g id="patch_1">
   <path d="M 0 72 
L 936 72 
L 936 0 
L 0 0 
z
" style="fill: #8fff9f"/>
  </g>
  <g id="axes_1">
   <g id="patch_2">
    <path d="M 8.718579 29.071862 
Q 8.343683 29.146841 8.212469 29.577972 
Q 8.081255 30.009103 8.156234 30.42149 
Q 8.156234 30.571448 8.193724 30.702662 
Q 8.231214 30.833876 8.287448 30.89011 
Q 8.343683 30.946345 8.399917 31.040069 
Q 8.456152 31.133793 8.493641 31.208772 
L 8.60611 29.859145 
M 8.60611 34.020497 
Q 7.706359 39.006621 7.481421 42.793076 
L 7.931297 45.379862 
L 8.268703 46.054676 
" clip-path="url(#p7e36e44ff8)" style="fill: none; stroke: #000000; stroke-linejoin: miter"/>
   </g>
  </g>
  <g id="axes_2">
   <g id="patch_3">
    <path d="M 19.463834 37.95691 
L 20.138648 37.95691 
Q 20.850952 37.95691 21.638234 37.881931 
Q 22.425517 37.806952 23.381503 37.675738 
Q 24.33749 37.544524 24.862345 37.507034 
L 29.136166 35.82 
M 25.087283 30.42149 
L 25.087283 31.43371 
Q 25.087283 33.383172 24.412469 37.207117 
Q 23.737655 41.031062 23.737655 43.018014 
Q 23.737655 43.805297 23.737655 44.105214 
Q 23.737655 44.405131 23.831379 45.042455 
Q 23.925103 45.679779 24.112552 45.960952 
Q 24.3 46.242124 24.693641 46.485807 
Q 25.087283 46.72949 25.649628 46.72949 
Q 25.762097 46.692 26.080759 46.72949 
Q 26.399421 46.766979 26.586869 46.710745 
Q 26.774317 46.65451 26.774317 46.392083 
" clip-path="url(#p6493d2fa2e)" style="fill: none; stroke: #000000; stroke-linejoin: miter"/>
   </g>
  </g>
  <g id="axes_3"/>
  <g id="axes_4">
   <g id="patch_4">
    <path d="M 50.316102 36.437797 
L 51.551695 44.778051 
Q 51.654661 45.567458 51.654661 45.60178 
Q 51.654661 45.704746 51.963559 45.704746 
Q 52.82161 45.704746 53.542373 44.778051 
Q 54.263136 43.851356 54.675 42.718729 
Q 55.086864 41.586102 55.601695 40.659407 
Q 56.116525 39.732712 56.597034 39.732712 
Q 57.214831 39.732712 57.849788 40.607924 
Q 58.484746 41.483136 58.948093 42.512797 
Q 59.411441 43.542458 60.08072 44.417669 
Q 60.75 45.292881 61.436441 45.292881 
Q 61.711017 43.782712 62.140042 39.69839 
Q 62.569068 35.614068 63.083898 33.554746 
" clip-path="url(#pd66d7204b3)" style="fill: none; stroke: #000000; stroke-linejoin: miter"/>
   </g>
  </g>
  <g id="axes_5">
   <g id="patch_5">
    <path d="M 78.443923 36.441748 
Q 77.234968 35.094627 73.262687 35.094627 
Q 71.742857 35.094627 70.965672 35.146439 
Q 70.188486 35.198252 69.18678 35.440043 
Q 68.185075 35.681834 67.701493 36.182687 
Q 67.21791 36.683539 66.872495 37.616162 
Q 66.527079 38.548785 66.527079 39.964989 
Q 66.527079 42.037484 67.943284 43.280981 
Q 69.359488 44.524478 71.293817 44.524478 
Q 73.953518 44.524478 76.716844 38.721493 
Q 78.063966 35.854542 78.063966 35.82 
Q 78.409382 35.578209 78.443923 36.441748 
Q 78.443923 37.512537 78.858422 40.362217 
Q 79.272921 43.211898 79.272921 44.524478 
" clip-path="url(#pd47cc0fb25)" style="fill: none; stroke: #000000; stroke-linejoin: miter"/>
   </g>
  </g>
  <g id="axes_6">
   <g id="patch_6">
    <path d="M 84.657476 43.917766 
Q 84.957393 44.180193 85.969614 45.154924 
Q 86.981834 46.129655 87.544179 46.560786 
Q 88.106524 46.991917 89.13749 47.385559 
Q 90.168455 47.7792 91.180676 47.629241 
Q 91.85549 47.629241 92.32411 47.404303 
Q 92.792731 47.179366 93.017669 46.879448 
Q 93.242607 46.579531 93.373821 45.979697 
Q 93.505034 45.379862 93.523779 44.967476 
Q 93.542524 44.55509 93.542524 43.805297 
Q 93.542524 42.718097 92.642772 42.043283 
Q 91.743021 41.368469 90.449628 41.031062 
Q 89.156234 40.693655 87.862841 40.300014 
Q 86.569448 39.906372 85.669697 38.987876 
Q 84.769945 38.069379 84.769945 36.607283 
Q 84.769945 36.082428 84.938648 35.726276 
Q 85.107352 35.370124 85.500993 35.145186 
Q 85.894634 34.920248 86.175807 34.807779 
Q 86.456979 34.69531 87.113048 34.639076 
Q 87.769117 34.582841 87.956566 34.582841 
Q 88.144014 34.582841 88.818828 34.582841 
Q 90.018497 34.582841 90.599586 34.995228 
Q 91.180676 35.407614 91.499338 36.026193 
Q 91.818 36.644772 92.080428 36.832221 
" clip-path="url(#pf02d6ced66)" style="fill: none; stroke: #000000; stroke-linejoin: miter"/>
   </g>
  </g>
  <g id="axes_7"/>
  <g id="axes_8">
   <g id="patch_7">
    <path d="M 115.184141 38.85304 
L 115.612335 38.85304 
Q 116.43304 38.85304 117.396476 38.745991 
Q 118.359912 38.638943 119.519604 38.460529 
Q 120.679295 38.282115 121.285903 38.210749 
L 127.815859 35.427489 
M 127.494714 25.793128 
Q 127.209251 25.721762 126.174449 25.275727 
Q 125.139648 24.829692 124.497357 24.93674 
Q 123.855066 24.93674 123.337665 25.150837 
Q 122.820264 25.364934 122.481278 25.793128 
Q 122.142291 26.221322 121.87467 26.685198 
Q 121.607048 27.149075 121.464317 27.862731 
Q 121.321586 28.576388 121.214537 29.129471 
Q 121.107489 29.682555 121.089648 30.50326 
Q 121.071806 31.323965 121.053965 31.77 
Q 121.036123 32.216035 121.053965 32.965374 
Q 121.071806 33.714714 121.071806 33.928811 
Q 121.071806 36.605022 121.767621 41.850396 
Q 122.463436 47.095771 122.463436 49.771982 
Q 122.39207 50.057445 122.356388 50.681894 
Q 122.320705 51.306344 122.213656 51.805903 
Q 122.106608 52.305463 121.821145 52.555242 
" clip-path="url(#pa1b4208fb8)" style="fill: none; stroke: #000000; stroke-linejoin: miter"/>
   </g>
  </g>
  <g id="axes_9">
   <g id="patch_8">
    <path d="M 137.306359 28.621986 
Q 137.531297 30.34651 137.606276 32.146014 
Q 137.681255 33.945517 137.66251 36.551048 
Q 137.643766 39.156579 137.643766 40.093821 
Q 137.643766 40.13131 137.868703 45.829738 
L 138.093641 46.841959 
" clip-path="url(#p0041cc2074)" style="fill: none; stroke: #000000; stroke-linejoin: miter"/>
   </g>
  </g>
  <g id="axes_10">
   <g id="patch_9">
    <path d="M 157.1616 35.032717 
Q 156.11189 34.582841 155.137159 34.69531 
Q 152.100497 35.032717 150.188524 36.701007 
Q 148.276552 38.369297 148.276552 41.330979 
Q 148.276552 43.917766 150.282248 45.6048 
Q 152.287945 47.291834 154.912221 47.291834 
Q 157.274069 47.291834 158.398759 45.361117 
Q 159.523448 43.4304 159.523448 40.881103 
Q 159.523448 39.643945 159.111062 38.706703 
Q 158.698676 37.769462 158.173821 37.300841 
Q 157.648966 36.832221 156.899172 36.119917 
Q 156.149379 35.407614 155.699503 34.69531 
L 154.462345 34.245434 
" clip-path="url(#pa1f492d226)" style="fill: none; stroke: #000000; stroke-linejoin: miter"/>
   </g>
  </g>
  <g id="axes_11">
   <g id="patch_10">
    <path d="M 173.3616 35.032717 
Q 172.31189 34.582841 171.337159 34.69531 
Q 168.300497 35.032717 166.388524 36.701007 
Q 164.476552 38.369297 164.476552 41.330979 
Q 164.476552 43.917766 166.482248 45.6048 
Q 168.487945 47.291834 171.112221 47.291834 
Q 173.474069 47.291834 174.598759 45.361117 
Q 175.723448 43.4304 175.723448 40.881103 
Q 175.723448 39.643945 175.311062 38.706703 
Q 174.898676 37.769462 174.373821 37.300841 
Q 173.848966 36.832221 173.099172 36.119917 
Q 172.349379 35.407614 171.899503 34.69531 
L 170.662345 34.245434 
" clip-path="url(#pd90cd8eaa8)" style="fill: none; stroke: #000000; stroke-linejoin: miter"/>
   </g>
  </g>
  <g id="axes_12">
   <g id="patch_11">
    <path d="M 189.899007 39.568966 
Q 188.549379 38.181848 186.3 38.444276 
Q 183.450786 38.444276 182.288607 39.793903 
Q 181.126428 41.143531 181.126428 44.067724 
Q 181.126428 45.56731 182.419821 46.279614 
Q 183.713214 46.991917 185.287779 46.991917 
Q 186.599917 46.991917 187.612138 45.736014 
Q 188.624359 44.48011 189.205448 42.30571 
Q 189.786538 40.13131 190.161434 37.938166 
Q 190.536331 35.745021 190.68629 33.045766 
Q 190.836248 30.34651 190.873738 28.978138 
Q 190.911228 27.609766 190.911228 26.185159 
Q 190.68629 26.260138 190.68629 29.896634 
L 190.68629 44.292662 
L 191.473572 48.229076 
" clip-path="url(#pb73897cdc9)" style="fill: none; stroke: #000000; stroke-linejoin: miter"/>
   </g>
  </g>
  <g id="axes_13">
   <g id="patch_12">
    <path d="M 203.118579 29.071862 
Q 202.743683 29.146841 202.612469 29.577972 
Q 202.481255 30.009103 202.556234 30.42149 
Q 202.556234 30.571448 202.593724 30.702662 
Q 202.631214 30.833876 202.687448 30.89011 
Q 202.743683 30.946345 202.799917 31.040069 
Q 202.856152 31.133793 202.893641 31.208772 
L 203.00611 29.859145 
M 203.00611 34.020497 
Q 202.106359 39.006621 201.881421 42.793076 
L 202.331297 45.379862 
L 202.668703 46.054676 
" clip-path="url(#pef3723eb07)" style="fill: none; stroke: #000000; stroke-linejoin: miter"/>
   </g>
  </g>
  <g id="axes_14">
   <g id="patch_13">
    <path d="M 214.238731 37.282097 
L 214.238731 37.844441 
Q 214.501159 39.868883 214.538648 41.312234 
Q 214.576138 42.755586 214.482414 44.667559 
Q 214.38869 46.579531 214.38869 48.191586 
L 214.463669 39.643945 
Q 214.463669 38.144359 216.056979 37.507034 
Q 217.65029 36.86971 219.074897 37.282097 
Q 220.986869 37.844441 221.905366 39.04411 
Q 222.823862 40.243779 222.880097 41.668386 
Q 222.936331 43.092993 222.973821 44.817517 
Q 223.01131 46.542041 223.161269 48.191586 
" clip-path="url(#p024ee7bec1)" style="fill: none; stroke: #000000; stroke-linejoin: miter"/>
   </g>
  </g>
  <g id="axes_15">
   <g id="patch_14">
    <path d="M 239.687191 39.096404 
Q 239.43236 39.023596 238.46764 38.623146 
Q 237.502921 38.222697 236.84764 38.077079 
Q 236.19236 37.931461 235.537079 38.00427 
Q 232.915955 38.00427 231.277753 40.388764 
Q 229.639551 42.773258 229.639551 45.430787 
Q 229.639551 47.068989 234.881798 47.068989 
Q 236.447191 47.068989 237.775955 45.558202 
Q 239.104719 44.047416 239.778202 42.172584 
Q 240.451685 40.297753 240.451685 38.768764 
Q 240.451685 37.27618 240.415281 36.984944 
L 240.342472 38.077079 
Q 240.342472 38.550337 240.342472 38.987191 
Q 240.378876 40.188539 240.579101 42.281798 
Q 240.779326 44.375056 240.943146 46.049663 
Q 241.106966 47.72427 241.143371 49.872135 
Q 241.179775 52.02 241.015955 53.658202 
Q 240.852135 55.296404 240.287865 56.971011 
Q 239.723596 58.645618 238.795281 59.737753 
Q 237.866966 60.829888 236.265169 61.521573 
Q 234.663371 62.213258 232.515506 62.213258 
Q 230.877303 62.213258 229.785169 61.466966 
Q 228.693034 60.720674 228.693034 59.155281 
Q 228.620225 58.936854 228.656629 58.936854 
Q 228.693034 58.936854 228.802247 58.936854 
Q 228.911461 58.936854 228.911461 58.82764 
" clip-path="url(#pffd077ad1a)" style="fill: none; stroke: #000000; stroke-linejoin: miter"/>
   </g>
  </g>
  <g id="axes_16"/>
  <g id="axes_17">
   <g id="patch_15">
    <path d="M 270.5616 35.032717 
Q 269.51189 34.582841 268.537159 34.69531 
Q 265.500497 35.032717 263.588524 36.701007 
Q 261.676552 38.369297 261.676552 41.330979 
Q 261.676552 43.917766 263.682248 45.6048 
Q 265.687945 47.291834 268.312221 47.291834 
Q 270.674069 47.291834 271.798759 45.361117 
Q 272.923448 43.4304 272.923448 40.881103 
Q 272.923448 39.643945 272.511062 38.706703 
Q 272.098676 37.769462 271.573821 37.300841 
Q 271.048966 36.832221 270.299172 36.119917 
Q 269.549379 35.407614 269.099503 34.69531 
L 267.862345 34.245434 
" clip-path="url(#p3aafde602f)" style="fill: none; stroke: #000000; stroke-linejoin: miter"/>
   </g>
  </g>
  <g id="axes_18">
   <g id="patch_16">
    <path d="M 279.038731 37.282097 
L 279.038731 37.844441 
Q 279.301159 39.868883 279.338648 41.312234 
Q 279.376138 42.755586 279.282414 44.667559 
Q 279.18869 46.579531 279.18869 48.191586 
L 279.263669 39.643945 
Q 279.263669 38.144359 280.856979 37.507034 
Q 282.45029 36.86971 283.874897 37.282097 
Q 285.786869 37.844441 286.705366 39.04411 
Q 287.623862 40.243779 287.680097 41.668386 
Q 287.736331 43.092993 287.773821 44.817517 
Q 287.81131 46.542041 287.961269 48.191586 
" clip-path="url(#pea61e72f63)" style="fill: none; stroke: #000000; stroke-linejoin: miter"/>
   </g>
  </g>
  <g id="axes_19"/>
  <g id="axes_20">
   <g id="patch_17">
    <path d="M 311.063834 37.95691 
L 311.738648 37.95691 
Q 312.450952 37.95691 313.238234 37.881931 
Q 314.025517 37.806952 314.981503 37.675738 
Q 315.93749 37.544524 316.462345 37.507034 
L 320.736166 35.82 
M 316.687283 30.42149 
L 316.687283 31.43371 
Q 316.687283 33.383172 316.012469 37.207117 
Q 315.337655 41.031062 315.337655 43.018014 
Q 315.337655 43.805297 315.337655 44.105214 
Q 315.337655 44.405131 315.431379 45.042455 
Q 315.525103 45.679779 315.712552 45.960952 
Q 315.9 46.242124 316.293641 46.485807 
Q 316.687283 46.72949 317.249628 46.72949 
Q 317.362097 46.692 317.680759 46.72949 
Q 317.999421 46.766979 318.186869 46.710745 
Q 318.374317 46.65451 318.374317 46.392083 
" clip-path="url(#p182c74c883)" style="fill: none; stroke: #000000; stroke-linejoin: miter"/>
   </g>
  </g>
  <g id="axes_21">
   <g id="patch_18">
    <path d="M 328.613462 35.932469 
Q 329.213297 35.257655 330.206772 34.826524 
Q 331.200248 34.395393 332.1 34.470372 
Q 332.737324 34.470372 333.22469 34.639076 
Q 333.712055 34.807779 334.030717 34.995228 
Q 334.349379 35.182676 334.574317 35.670041 
Q 334.799255 36.157407 334.911724 36.419834 
Q 335.024193 36.682262 335.080428 37.375821 
Q 335.136662 38.069379 335.155407 38.331807 
Q 335.174152 38.594234 335.155407 39.419007 
Q 335.136662 40.243779 335.136662 40.431228 
Q 335.136662 41.368469 334.967959 43.242952 
Q 334.799255 45.117434 334.799255 46.054676 
Q 334.799255 46.467062 334.85549 46.823214 
Q 334.911724 47.179366 335.005448 47.610497 
Q 335.099172 48.041628 335.136662 48.304055 
L 335.586538 48.528993 
M 329.063338 23.111007 
Q 329.288276 24.798041 329.288276 29.971614 
L 329.288276 42.3432 
L 328.950869 46.841959 
L 328.725931 47.74171 
" clip-path="url(#pd782e2c443)" style="fill: none; stroke: #000000; stroke-linejoin: miter"/>
   </g>
  </g>
  <g id="axes_22">
   <g id="patch_19">
    <path d="M 342.057798 38.160826 
Q 345.030275 39.535596 349.749083 39.721376 
Q 351.272477 39.721376 351.959862 38.550963 
Q 352.647248 37.38055 352.647248 35.82 
Q 352.647248 35.299817 352.554358 34.909679 
Q 352.461468 34.519541 352.219954 34.296606 
Q 351.97844 34.07367 351.811239 33.943624 
Q 351.644037 33.813578 351.198165 33.757844 
Q 350.752294 33.70211 350.547936 33.683532 
Q 350.343578 33.664954 349.767661 33.683532 
Q 349.191743 33.70211 348.968807 33.70211 
Q 346.925229 33.70211 345.438991 35.578486 
Q 343.952752 37.454862 343.952752 39.609908 
Q 343.952752 42.619541 345.884862 44.570229 
Q 347.816972 46.520917 350.863761 46.520917 
Q 353.018807 46.818165 354.542202 44.29156 
" clip-path="url(#pf8c74d07a5)" style="fill: none; stroke: #000000; stroke-linejoin: miter"/>
   </g>
  </g>
  <g id="axes_23"/>
  <g id="axes_24">
   <g id="patch_20">
    <path d="M 373.954515 35.196923 
Q 373.954515 35.196923 375.498662 35.196923 
Q 375.525753 35.196923 386.876589 35.440736 
M 385.657525 28.61398 
Q 385.657525 28.61398 385.657525 35.115652 
Q 385.657525 36.551438 385.887793 37.960134 
Q 386.11806 39.368829 386.470234 40.940067 
Q 386.822408 42.511304 386.95786 43.324013 
L 387.445485 43.730368 
M 375.823746 28.451438 
Q 376.257191 29.453779 376.379097 31.580368 
Q 376.501003 33.706957 376.717726 34.546756 
L 377.12408 44.949431 
" clip-path="url(#p507f886cae)" style="fill: none; stroke: #000000; stroke-linejoin: miter"/>
   </g>
  </g>
  <g id="axes_25">
   <g id="patch_21">
    <path d="M 398.305862 30.009103 
Q 394.856814 33.795559 394.594386 40.356248 
Q 394.594386 41.780855 394.781834 42.774331 
Q 394.969283 43.767807 395.737821 44.592579 
Q 396.506359 45.417352 397.855986 45.417352 
Q 398.830717 45.417352 399.411807 44.686303 
Q 399.992897 43.955255 399.992897 42.943034 
Q 399.992897 39.756414 398.230883 38.706703 
Q 396.468869 37.656993 393.807103 38.331807 
" clip-path="url(#p23ffe43da2)" style="fill: none; stroke: #000000; stroke-linejoin: miter"/>
   </g>
  </g>
  <g id="axes_26">
   <g id="patch_22">
    <path d="M 412.612634 36.044938 
Q 412.575145 36.269876 412.59389 37.000924 
Q 412.612634 37.731972 412.612634 37.95691 
L 412.05029 44.817517 
M 411.600414 30.196552 
Q 411.487945 31.546179 410.232041 34.901503 
Q 408.976138 38.256828 409.238566 39.756414 
L 417.223862 38.856662 
" clip-path="url(#peed1036c8d)" style="fill: none; stroke: #000000; stroke-linejoin: miter"/>
   </g>
  </g>
  <g id="axes_27">
   <g id="patch_23">
    <path d="M 429.187531 45.979697 
Q 429.150041 46.017186 429.018828 46.054676 
Q 428.887614 46.092166 428.925103 46.167145 
Q 428.925103 46.579531 429.3 46.579531 
Q 429.637407 46.579531 429.637407 46.092166 
Q 429.712386 45.867228 429.431214 45.754759 
Q 429.150041 45.64229 428.962593 45.754759 
" clip-path="url(#p5f1fc822cb)" style="fill: none; stroke: #000000; stroke-linejoin: miter"/>
   </g>
  </g>
  <g id="axes_28"/>
  <g id="axes_29">
   <g id="patch_24">
    <path d="M 455.648638 35.788482 
L 455.837743 35.788482 
Q 456.720233 35.788482 458.485214 35.69393 
Q 460.250195 35.599377 461.132685 35.599377 
Q 462.677043 35.599377 463.874708 35.835759 
Q 465.072374 36.07214 466.096693 36.655214 
Q 467.121012 37.238288 467.672568 38.35716 
Q 468.224125 39.476031 468.224125 41.083424 
Q 468.224125 46.567471 458.107004 46.567471 
Q 458.075486 46.567471 456.215953 46.283813 
L 455.648638 46.000156 
M 455.648638 27.562412 
Q 457.287549 26.679922 459.241634 26.71144 
Q 461.510895 26.71144 463.543774 28.035175 
Q 465.576654 29.358911 465.576654 31.533619 
Q 465.576654 32.825837 465.025097 33.582257 
Q 464.473541 34.338677 463.748638 34.527782 
Q 463.023735 34.716887 462.030934 35.06358 
Q 461.038132 35.410272 460.470817 35.883035 
L 455.648638 35.788482 
M 455.175875 27.656965 
Q 455.396498 28.949183 455.333463 32.494903 
Q 455.270428 36.040623 455.837743 37.301323 
Q 455.837743 38.309883 455.790467 40.358521 
Q 455.743191 42.40716 455.743191 43.447237 
L 455.743191 45.243735 
L 455.554086 46.000156 
" clip-path="url(#p438aa39804)" style="fill: none; stroke: #000000; stroke-linejoin: miter"/>
   </g>
  </g>
  <g id="axes_30">
   <g id="patch_25">
    <path d="M 473.288772 35.145186 
Q 473.288772 35.145186 473.288772 35.595062 
Q 473.288772 36.269876 473.176303 37.619503 
Q 473.063834 38.969131 473.063834 39.643945 
Q 473.063834 41.930814 474.300993 43.599103 
Q 475.538152 45.267393 477.675062 45.267393 
Q 479.062179 45.154924 479.830717 43.917766 
Q 480.599255 42.680607 480.749214 41.237255 
Q 480.899172 39.793903 481.1616 37.9944 
Q 481.424028 36.194897 481.836414 35.370124 
Q 481.986372 35.070207 481.986372 35.670041 
Q 481.986372 36.269876 481.723945 38.706703 
Q 481.499007 41.031062 481.499007 41.555917 
Q 481.349048 42.643117 481.686455 43.767807 
Q 482.023862 44.892497 482.736166 45.6048 
" clip-path="url(#pbb087af197)" style="fill: none; stroke: #000000; stroke-linejoin: miter"/>
   </g>
  </g>
  <g id="axes_31">
   <g id="patch_26">
    <path d="M 489.263834 37.95691 
L 489.938648 37.95691 
Q 490.650952 37.95691 491.438234 37.881931 
Q 492.225517 37.806952 493.181503 37.675738 
Q 494.13749 37.544524 494.662345 37.507034 
L 498.936166 35.82 
M 494.887283 30.42149 
L 494.887283 31.43371 
Q 494.887283 33.383172 494.212469 37.207117 
Q 493.537655 41.031062 493.537655 43.018014 
Q 493.537655 43.805297 493.537655 44.105214 
Q 493.537655 44.405131 493.631379 45.042455 
Q 493.725103 45.679779 493.912552 45.960952 
Q 494.1 46.242124 494.493641 46.485807 
Q 494.887283 46.72949 495.449628 46.72949 
Q 495.562097 46.692 495.880759 46.72949 
Q 496.199421 46.766979 496.386869 46.710745 
Q 496.574317 46.65451 496.574317 46.392083 
" clip-path="url(#p1d062a295f)" style="fill: none; stroke: #000000; stroke-linejoin: miter"/>
   </g>
  </g>
  <g id="axes_32"/>
  <g id="axes_33">
   <g id="patch_27">
    <path d="M 527.118579 29.071862 
Q 526.743683 29.146841 526.612469 29.577972 
Q 526.481255 30.009103 526.556234 30.42149 
Q 526.556234 30.571448 526.593724 30.702662 
Q 526.631214 30.833876 526.687448 30.89011 
Q 526.743683 30.946345 526.799917 31.040069 
Q 526.856152 31.133793 526.893641 31.208772 
L 527.00611 29.859145 
M 527.00611 34.020497 
Q 526.106359 39.006621 525.881421 42.793076 
L 526.331297 45.379862 
L 526.668703 46.054676 
" clip-path="url(#p805c912f88)" style="fill: none; stroke: #000000; stroke-linejoin: miter"/>
   </g>
  </g>
  <g id="axes_34">
   <g id="patch_28">
    <path d="M 537.863834 37.95691 
L 538.538648 37.95691 
Q 539.250952 37.95691 540.038234 37.881931 
Q 540.825517 37.806952 541.781503 37.675738 
Q 542.73749 37.544524 543.262345 37.507034 
L 547.536166 35.82 
M 543.487283 30.42149 
L 543.487283 31.43371 
Q 543.487283 33.383172 542.812469 37.207117 
Q 542.137655 41.031062 542.137655 43.018014 
Q 542.137655 43.805297 542.137655 44.105214 
Q 542.137655 44.405131 542.231379 45.042455 
Q 542.325103 45.679779 542.512552 45.960952 
Q 542.7 46.242124 543.093641 46.485807 
Q 543.487283 46.72949 544.049628 46.72949 
Q 544.162097 46.692 544.480759 46.72949 
Q 544.799421 46.766979 544.986869 46.710745 
Q 545.174317 46.65451 545.174317 46.392083 
" clip-path="url(#pfc9647dd16)" style="fill: none; stroke: #000000; stroke-linejoin: miter"/>
   </g>
  </g>
  <g id="axes_35"/>
  <g id="axes_36">
   <g id="patch_29">
    <path d="M 571.613462 35.932469 
Q 572.213297 35.257655 573.206772 34.826524 
Q 574.200248 34.395393 575.1 34.470372 
Q 575.737324 34.470372 576.22469 34.639076 
Q 576.712055 34.807779 577.030717 34.995228 
Q 577.349379 35.182676 577.574317 35.670041 
Q 577.799255 36.157407 577.911724 36.419834 
Q 578.024193 36.682262 578.080428 37.375821 
Q 578.136662 38.069379 578.155407 38.331807 
Q 578.174152 38.594234 578.155407 39.419007 
Q 578.136662 40.243779 578.136662 40.431228 
Q 578.136662 41.368469 577.967959 43.242952 
Q 577.799255 45.117434 577.799255 46.054676 
Q 577.799255 46.467062 577.85549 46.823214 
Q 577.911724 47.179366 578.005448 47.610497 
Q 578.099172 48.041628 578.136662 48.304055 
L 578.586538 48.528993 
M 572.063338 23.111007 
Q 572.288276 24.798041 572.288276 29.971614 
L 572.288276 42.3432 
L 571.950869 46.841959 
L 571.725931 47.74171 
" clip-path="url(#p72ad517ef9)" style="fill: none; stroke: #000000; stroke-linejoin: miter"/>
   </g>
  </g>
  <g id="axes_37">
   <g id="patch_30">
    <path d="M 596.843923 36.441748 
Q 595.634968 35.094627 591.662687 35.094627 
Q 590.142857 35.094627 589.365672 35.146439 
Q 588.588486 35.198252 587.58678 35.440043 
Q 586.585075 35.681834 586.101493 36.182687 
Q 585.61791 36.683539 585.272495 37.616162 
Q 584.927079 38.548785 584.927079 39.964989 
Q 584.927079 42.037484 586.343284 43.280981 
Q 587.759488 44.524478 589.693817 44.524478 
Q 592.353518 44.524478 595.116844 38.721493 
Q 596.463966 35.854542 596.463966 35.82 
Q 596.809382 35.578209 596.843923 36.441748 
Q 596.843923 37.512537 597.258422 40.362217 
Q 597.672921 43.211898 597.672921 44.524478 
" clip-path="url(#p5745d70993)" style="fill: none; stroke: #000000; stroke-linejoin: miter"/>
   </g>
  </g>
  <g id="axes_38">
   <g id="patch_31">
    <path d="M 603.057476 43.917766 
Q 603.357393 44.180193 604.369614 45.154924 
Q 605.381834 46.129655 605.944179 46.560786 
Q 606.506524 46.991917 607.53749 47.385559 
Q 608.568455 47.7792 609.580676 47.629241 
Q 610.25549 47.629241 610.72411 47.404303 
Q 611.192731 47.179366 611.417669 46.879448 
Q 611.642607 46.579531 611.773821 45.979697 
Q 611.905034 45.379862 611.923779 44.967476 
Q 611.942524 44.55509 611.942524 43.805297 
Q 611.942524 42.718097 611.042772 42.043283 
Q 610.143021 41.368469 608.849628 41.031062 
Q 607.556234 40.693655 606.262841 40.300014 
Q 604.969448 39.906372 604.069697 38.987876 
Q 603.169945 38.069379 603.169945 36.607283 
Q 603.169945 36.082428 603.338648 35.726276 
Q 603.507352 35.370124 603.900993 35.145186 
Q 604.294634 34.920248 604.575807 34.807779 
Q 604.856979 34.69531 605.513048 34.639076 
Q 606.169117 34.582841 606.356566 34.582841 
Q 606.544014 34.582841 607.218828 34.582841 
Q 608.418497 34.582841 608.999586 34.995228 
Q 609.580676 35.407614 609.899338 36.026193 
Q 610.218 36.644772 610.480428 36.832221 
" clip-path="url(#p7da86930d5)" style="fill: none; stroke: #000000; stroke-linejoin: miter"/>
   </g>
  </g>
  <g id="axes_39">
   <g id="patch_32">
    <path d="M 619.238731 37.282097 
L 619.238731 37.844441 
Q 619.501159 39.868883 619.538648 41.312234 
Q 619.576138 42.755586 619.482414 44.667559 
Q 619.38869 46.579531 619.38869 48.191586 
L 619.463669 39.643945 
Q 619.463669 38.144359 621.056979 37.507034 
Q 622.65029 36.86971 624.074897 37.282097 
Q 625.986869 37.844441 626.905366 39.04411 
Q 627.823862 40.243779 627.880097 41.668386 
Q 627.936331 43.092993 627.973821 44.817517 
Q 628.01131 46.542041 628.161269 48.191586 
" clip-path="url(#p829d9f431f)" style="fill: none; stroke: #000000; stroke-linejoin: miter"/>
   </g>
  </g>
  <g id="axes_40">
   <g id="patch_33">
    <path d="M 639.825021 26.147669 
Q 639.787531 26.597545 639.825021 27.384828 
Q 639.86251 27.572276 639.806276 27.965917 
Q 639.750041 28.359559 639.787531 28.678221 
Q 639.825021 28.996883 640.049959 29.184331 
" clip-path="url(#p00d615a600)" style="fill: none; stroke: #000000; stroke-linejoin: miter"/>
   </g>
  </g>
  <g id="axes_41">
   <g id="patch_34">
    <path d="M 651.263834 37.95691 
L 651.938648 37.95691 
Q 652.650952 37.95691 653.438234 37.881931 
Q 654.225517 37.806952 655.181503 37.675738 
Q 656.13749 37.544524 656.662345 37.507034 
L 660.936166 35.82 
M 656.887283 30.42149 
L 656.887283 31.43371 
Q 656.887283 33.383172 656.212469 37.207117 
Q 655.537655 41.031062 655.537655 43.018014 
Q 655.537655 43.805297 655.537655 44.105214 
Q 655.537655 44.405131 655.631379 45.042455 
Q 655.725103 45.679779 655.912552 45.960952 
Q 656.1 46.242124 656.493641 46.485807 
Q 656.887283 46.72949 657.449628 46.72949 
Q 657.562097 46.692 657.880759 46.72949 
Q 658.199421 46.766979 658.386869 46.710745 
Q 658.574317 46.65451 658.574317 46.392083 
" clip-path="url(#p9703b7e20a)" style="fill: none; stroke: #000000; stroke-linejoin: miter"/>
   </g>
  </g>
  <g id="axes_42"/>
  <g id="axes_43">
   <g id="patch_35">
    <path d="M 684.957228 37.244607 
Q 686.006938 37.207117 686.194386 37.132138 
Q 689.605945 37.132138 691.386703 39.212814 
Q 693.167462 41.29349 693.167462 44.780028 
Q 693.167462 47.704221 688.556234 47.704221 
Q 687.91891 47.704221 687.37531 47.591752 
Q 686.83171 47.479283 686.194386 47.254345 
Q 685.557062 47.029407 685.069697 46.916938 
L 683.832538 45.679779 
M 684.844759 25.435366 
L 684.844759 26.560055 
Q 684.844759 29.409269 684.957228 33.008276 
Q 685.069697 36.607283 685.257145 40.899848 
Q 685.444593 45.192414 685.519572 47.141876 
" clip-path="url(#pc9d0075b1a)" style="fill: none; stroke: #000000; stroke-linejoin: miter"/>
   </g>
  </g>
  <g id="axes_44">
   <g id="patch_36">
    <path d="M 698.457798 38.160826 
Q 701.430275 39.535596 706.149083 39.721376 
Q 707.672477 39.721376 708.359862 38.550963 
Q 709.047248 37.38055 709.047248 35.82 
Q 709.047248 35.299817 708.954358 34.909679 
Q 708.861468 34.519541 708.619954 34.296606 
Q 708.37844 34.07367 708.211239 33.943624 
Q 708.044037 33.813578 707.598165 33.757844 
Q 707.152294 33.70211 706.947936 33.683532 
Q 706.743578 33.664954 706.167661 33.683532 
Q 705.591743 33.70211 705.368807 33.70211 
Q 703.325229 33.70211 701.838991 35.578486 
Q 700.352752 37.454862 700.352752 39.609908 
Q 700.352752 42.619541 702.284862 44.570229 
Q 704.216972 46.520917 707.263761 46.520917 
Q 709.418807 46.818165 710.942202 44.29156 
" clip-path="url(#p5acf4c7900)" style="fill: none; stroke: #000000; stroke-linejoin: miter"/>
   </g>
  </g>
  <g id="axes_45">
   <g id="patch_37">
    <path d="M 714.657798 38.160826 
Q 717.630275 39.535596 722.349083 39.721376 
Q 723.872477 39.721376 724.559862 38.550963 
Q 725.247248 37.38055 725.247248 35.82 
Q 725.247248 35.299817 725.154358 34.909679 
Q 725.061468 34.519541 724.819954 34.296606 
Q 724.57844 34.07367 724.411239 33.943624 
Q 724.244037 33.813578 723.798165 33.757844 
Q 723.352294 33.70211 723.147936 33.683532 
Q 722.943578 33.664954 722.367661 33.683532 
Q 721.791743 33.70211 721.568807 33.70211 
Q 719.525229 33.70211 718.038991 35.578486 
Q 716.552752 37.454862 716.552752 39.609908 
Q 716.552752 42.619541 718.484862 44.570229 
Q 720.416972 46.520917 723.463761 46.520917 
Q 725.618807 46.818165 727.142202 44.29156 
" clip-path="url(#p8d22671715)" style="fill: none; stroke: #000000; stroke-linejoin: miter"/>
   </g>
  </g>
  <g id="axes_46">
   <g id="patch_38">
    <path d="M 732.638731 37.282097 
L 732.638731 37.844441 
Q 732.901159 39.868883 732.938648 41.312234 
Q 732.976138 42.755586 732.882414 44.667559 
Q 732.78869 46.579531 732.78869 48.191586 
L 732.863669 39.643945 
Q 732.863669 38.144359 734.456979 37.507034 
Q 736.05029 36.86971 737.474897 37.282097 
Q 739.386869 37.844441 740.305366 39.04411 
Q 741.223862 40.243779 741.280097 41.668386 
Q 741.336331 43.092993 741.373821 44.817517 
Q 741.41131 46.542041 741.561269 48.191586 
" clip-path="url(#p46a0d77e30)" style="fill: none; stroke: #000000; stroke-linejoin: miter"/>
   </g>
  </g>
  <g id="axes_47"/>
  <g id="axes_48">
   <g id="patch_39">
    <path d="M 766.013462 32.783338 
Q 766.538317 34.507862 766.669531 36.457324 
Q 766.800745 38.406786 766.725766 40.956083 
Q 766.650786 43.505379 766.688276 44.705048 
L 766.800745 46.054676 
L 766.800745 45.829738 
Q 766.800745 44.667559 766.519572 42.30571 
Q 766.2384 39.943862 766.2384 38.744193 
Q 766.2384 36.419834 767.250621 34.882759 
Q 768.262841 33.345683 770.287283 33.345683 
Q 770.999586 33.345683 771.336993 33.626855 
Q 771.6744 33.908028 771.936828 34.432883 
Q 772.199255 34.957738 772.536662 35.257655 
L 772.986538 36.832221 
" clip-path="url(#pd78da597d9)" style="fill: none; stroke: #000000; stroke-linejoin: miter"/>
   </g>
  </g>
  <g id="axes_49">
   <g id="patch_40">
    <path d="M 791.243923 36.441748 
Q 790.034968 35.094627 786.062687 35.094627 
Q 784.542857 35.094627 783.765672 35.146439 
Q 782.988486 35.198252 781.98678 35.440043 
Q 780.985075 35.681834 780.501493 36.182687 
Q 780.01791 36.683539 779.672495 37.616162 
Q 779.327079 38.548785 779.327079 39.964989 
Q 779.327079 42.037484 780.743284 43.280981 
Q 782.159488 44.524478 784.093817 44.524478 
Q 786.753518 44.524478 789.516844 38.721493 
Q 790.863966 35.854542 790.863966 35.82 
Q 791.209382 35.578209 791.243923 36.441748 
Q 791.243923 37.512537 791.658422 40.362217 
Q 792.072921 43.211898 792.072921 44.524478 
" clip-path="url(#pfe0f319a07)" style="fill: none; stroke: #000000; stroke-linejoin: miter"/>
   </g>
  </g>
  <g id="axes_50">
   <g id="patch_41">
    <path d="M 802.518579 29.071862 
Q 802.143683 29.146841 802.012469 29.577972 
Q 801.881255 30.009103 801.956234 30.42149 
Q 801.956234 30.571448 801.993724 30.702662 
Q 802.031214 30.833876 802.087448 30.89011 
Q 802.143683 30.946345 802.199917 31.040069 
Q 802.256152 31.133793 802.293641 31.208772 
L 802.40611 29.859145 
M 802.40611 34.020497 
Q 801.506359 39.006621 801.281421 42.793076 
L 801.731297 45.379862 
L 802.068703 46.054676 
" clip-path="url(#p6dda2889b5)" style="fill: none; stroke: #000000; stroke-linejoin: miter"/>
   </g>
  </g>
  <g id="axes_51">
   <g id="patch_42">
    <path d="M 813.638731 37.282097 
L 813.638731 37.844441 
Q 813.901159 39.868883 813.938648 41.312234 
Q 813.976138 42.755586 813.882414 44.667559 
Q 813.78869 46.579531 813.78869 48.191586 
L 813.863669 39.643945 
Q 813.863669 38.144359 815.456979 37.507034 
Q 817.05029 36.86971 818.474897 37.282097 
Q 820.386869 37.844441 821.305366 39.04411 
Q 822.223862 40.243779 822.280097 41.668386 
Q 822.336331 43.092993 822.373821 44.817517 
Q 822.41131 46.542041 822.561269 48.191586 
" clip-path="url(#pa7942c793e)" style="fill: none; stroke: #000000; stroke-linejoin: miter"/>
   </g>
  </g>
  <g id="axes_52">
   <g id="patch_43">
    <path d="M 831.994386 35.595062 
L 836.605614 35.707531 
" clip-path="url(#pb79a545e28)" style="fill: none; stroke: #000000; stroke-linejoin: miter"/>
   </g>
  </g>
 </g>
 <defs>
  <clipPath id="p7e36e44ff8">
   <rect x="5.606938" y="8.64" width="4.986124" height="54.36"/>
  </clipPath>
  <clipPath id="p6493d2fa2e">
   <rect x="17.589352" y="8.64" width="13.421297" height="54.36"/>
  </clipPath>
  <clipPath id="pd66d7204b3">
   <rect x="48.6" y="10.936525" width="16.2" height="49.766949"/>
  </clipPath>
  <clipPath id="pd47cc0fb25">
   <rect x="64.8" y="10.777356" width="16.2" height="50.085288"/>
  </clipPath>
  <clipPath id="pf02d6ced66">
   <rect x="82.782993" y="8.64" width="12.634014" height="54.36"/>
  </clipPath>
  <clipPath id="pa1b4208fb8">
   <rect x="113.4" y="9.949956" width="16.2" height="51.740088"/>
  </clipPath>
  <clipPath id="p0041cc2074">
   <rect x="135.431876" y="8.64" width="4.536248" height="54.36"/>
  </clipPath>
  <clipPath id="pa1f492d226">
   <rect x="146.402069" y="8.64" width="14.995862" height="54.36"/>
  </clipPath>
  <clipPath id="pd90cd8eaa8">
   <rect x="162.602069" y="8.64" width="14.995862" height="54.36"/>
  </clipPath>
  <clipPath id="pb73897cdc9">
   <rect x="179.251945" y="8.64" width="14.09611" height="54.36"/>
  </clipPath>
  <clipPath id="pef3723eb07">
   <rect x="200.006938" y="8.64" width="4.986124" height="54.36"/>
  </clipPath>
  <clipPath id="p024ee7bec1">
   <rect x="212.364248" y="8.64" width="12.671503" height="54.36"/>
  </clipPath>
  <clipPath id="pffd077ad1a">
   <rect x="226.8" y="9.426742" width="16.2" height="52.786517"/>
  </clipPath>
  <clipPath id="p3aafde602f">
   <rect x="259.802069" y="8.64" width="14.995862" height="54.36"/>
  </clipPath>
  <clipPath id="pea61e72f63">
   <rect x="277.164248" y="8.64" width="12.671503" height="54.36"/>
  </clipPath>
  <clipPath id="p182c74c883">
   <rect x="309.189352" y="8.64" width="13.421297" height="54.36"/>
  </clipPath>
  <clipPath id="pd782e2c443">
   <rect x="326.738979" y="8.64" width="10.722041" height="54.36"/>
  </clipPath>
  <clipPath id="pf8c74d07a5">
   <rect x="340.2" y="8.881927" width="16.2" height="53.876147"/>
  </clipPath>
  <clipPath id="p507f886cae">
   <rect x="372.6" y="16.179532" width="16.2" height="39.280936"/>
  </clipPath>
  <clipPath id="p23ffe43da2">
   <rect x="391.932621" y="8.64" width="9.934759" height="54.36"/>
  </clipPath>
  <clipPath id="peed1036c8d">
   <rect x="407.101655" y="8.64" width="11.99669" height="54.36"/>
  </clipPath>
  <clipPath id="p5f1fc822cb">
   <rect x="427.013131" y="8.64" width="4.573738" height="54.36"/>
  </clipPath>
  <clipPath id="p438aa39804">
   <rect x="453.6" y="12.969805" width="16.2" height="45.700389"/>
  </clipPath>
  <clipPath id="pbb087af197">
   <rect x="471.189352" y="8.64" width="13.421297" height="54.36"/>
  </clipPath>
  <clipPath id="p1d062a295f">
   <rect x="487.389352" y="8.64" width="13.421297" height="54.36"/>
  </clipPath>
  <clipPath id="p805c912f88">
   <rect x="524.006938" y="8.64" width="4.986124" height="54.36"/>
  </clipPath>
  <clipPath id="pfc9647dd16">
   <rect x="535.989352" y="8.64" width="13.421297" height="54.36"/>
  </clipPath>
  <clipPath id="p72ad517ef9">
   <rect x="569.738979" y="8.64" width="10.722041" height="54.36"/>
  </clipPath>
  <clipPath id="p5745d70993">
   <rect x="583.2" y="10.777356" width="16.2" height="50.085288"/>
  </clipPath>
  <clipPath id="p7da86930d5">
   <rect x="601.182993" y="8.64" width="12.634014" height="54.36"/>
  </clipPath>
  <clipPath id="p829d9f431f">
   <rect x="617.364248" y="8.64" width="12.671503" height="54.36"/>
  </clipPath>
  <clipPath id="p00d615a600">
   <rect x="637.875559" y="8.64" width="4.048883" height="54.36"/>
  </clipPath>
  <clipPath id="p9703b7e20a">
   <rect x="649.389352" y="8.64" width="13.421297" height="54.36"/>
  </clipPath>
  <clipPath id="pc9d0075b1a">
   <rect x="681.958055" y="8.64" width="13.08389" height="54.36"/>
  </clipPath>
  <clipPath id="p5acf4c7900">
   <rect x="696.6" y="8.881927" width="16.2" height="53.876147"/>
  </clipPath>
  <clipPath id="p8d22671715">
   <rect x="712.8" y="8.881927" width="16.2" height="53.876147"/>
  </clipPath>
  <clipPath id="p46a0d77e30">
   <rect x="730.764248" y="8.64" width="12.671503" height="54.36"/>
  </clipPath>
  <clipPath id="pd78da597d9">
   <rect x="764.138979" y="8.64" width="10.722041" height="54.36"/>
  </clipPath>
  <clipPath id="pfe0f319a07">
   <rect x="777.6" y="10.777356" width="16.2" height="50.085288"/>
  </clipPath>
  <clipPath id="p6dda2889b5">
   <rect x="799.406938" y="8.64" width="4.986124" height="54.36"/>
  </clipPath>
  <clipPath id="pa7942c793e">
   <rect x="811.764248" y="8.64" width="12.671503" height="54.36"/>
  </clipPath>
  <clipPath id="pb79a545e28">
   <rect x="830.119903" y="8.64" width="8.360193" height="54.36"/>
  </clipPath>
 </defs>
</svg>
