<?xml version="1.0" encoding="utf-8" standalone="no"?>
<!DOCTYPE svg PUBLIC "-//W3C//DTD SVG 1.1//EN"
  "http://www.w3.org/Graphics/SVG/1.1/DTD/svg11.dtd">
<svg xmlns:xlink="http://www.w3.org/1999/xlink" width="882pt" height="72pt" viewBox="0 0 882 72" xmlns="http://www.w3.org/2000/svg" version="1.1">
 <metadata>
  <rdf:RDF xmlns:dc="http://purl.org/dc/elements/1.1/" xmlns:cc="http://creativecommons.org/ns#" xmlns:rdf="http://www.w3.org/1999/02/22-rdf-syntax-ns#">
   <cc:Work>
    <dc:type rdf:resource="http://purl.org/dc/dcmitype/StillImage"/>
    <dc:date>2023-12-21T12:08:43.683921</dc:date>
    <dc:format>image/svg+xml</dc:format>
    <dc:creator>
     <cc:Agent>
      <dc:title>Matplotlib v3.5.1, https://matplotlib.org/</dc:title>
     </cc:Agent>
    </dc:creator>
   </cc:Work>
  </rdf:RDF>
 </metadata>
 <defs>
  <style type="text/css">*{stroke-linejoin: round; stroke-linecap: butt}</style>
 </defs>
 <g id="figure_1">
  <g id="patch_1">
   <path d="M 0 72 
L 882 72 
L 882 0 
L 0 0 
z
" style="fill: #8fff9f"/>
  </g>
  <g id="axes_1">
   <g id="patch_2">
    <path d="M 8.624855 27.009931 
Q 8.699834 27.347338 8.774814 28.265834 
Q 8.849793 29.184331 8.999752 29.634207 
L 8.924772 31.058814 
M 7.275228 27.309848 
Q 7.237738 27.309848 7.200248 27.534786 
Q 7.237738 27.684745 7.350207 28.828179 
Q 7.462676 29.971614 7.725103 30.533959 
" clip-path="url(#pa857718bb7)" style="fill: none; stroke: #000000; stroke-linejoin: miter"/>
   </g>
  </g>
  <g id="axes_2">
   <g id="patch_3">
    <path d="M 29.890534 37.074733 
L 26.544578 37.158382 
L 29.221343 37.158382 
Q 29.249225 37.158382 29.458348 37.144441 
Q 29.66747 37.130499 29.834768 37.144441 
Q 30.002065 37.158382 30.211188 37.172324 
Q 30.42031 37.186265 30.531842 37.242031 
Q 30.643373 37.297797 30.643373 37.409329 
L 30.643373 41.340826 
Q 30.838554 42.205198 30.852496 43.585404 
Q 30.866437 44.965611 31.005852 45.718451 
M 30.308778 28.207952 
Q 27.520482 27.34358 25.624441 27.538761 
Q 17.594148 27.538761 17.594148 35.82 
Q 17.594148 37.074733 18.0821 38.678003 
Q 18.570052 40.281274 19.378657 41.759071 
Q 20.187263 43.236867 21.441997 44.254596 
Q 22.69673 45.272324 24.035112 45.272324 
Q 25.094664 45.272324 26.098451 44.533425 
Q 27.102238 43.794527 27.729604 42.88833 
Q 28.356971 41.982134 29.151635 40.824991 
Q 29.946299 39.667849 30.476076 39.165955 
L 30.308778 37.409329 
L 29.890534 37.074733 
" clip-path="url(#pe43bfe55ee)" style="fill: none; stroke: #000000; stroke-linejoin: miter"/>
   </g>
  </g>
  <g id="axes_3">
   <g id="patch_4">
    <path d="M 43.7616 35.032717 
Q 42.71189 34.582841 41.737159 34.69531 
Q 38.700497 35.032717 36.788524 36.701007 
Q 34.876552 38.369297 34.876552 41.330979 
Q 34.876552 43.917766 36.882248 45.6048 
Q 38.887945 47.291834 41.512221 47.291834 
Q 43.874069 47.291834 44.998759 45.361117 
Q 46.123448 43.4304 46.123448 40.881103 
Q 46.123448 39.643945 45.711062 38.706703 
Q 45.298676 37.769462 44.773821 37.300841 
Q 44.248966 36.832221 43.499172 36.119917 
Q 42.749379 35.407614 42.299503 34.69531 
L 41.062345 34.245434 
" clip-path="url(#p79ceceb816)" style="fill: none; stroke: #000000; stroke-linejoin: miter"/>
   </g>
  </g>
  <g id="axes_4">
   <g id="patch_5">
    <path d="M 59.9616 35.032717 
Q 58.91189 34.582841 57.937159 34.69531 
Q 54.900497 35.032717 52.988524 36.701007 
Q 51.076552 38.369297 51.076552 41.330979 
Q 51.076552 43.917766 53.082248 45.6048 
Q 55.087945 47.291834 57.712221 47.291834 
Q 60.074069 47.291834 61.198759 45.361117 
Q 62.323448 43.4304 62.323448 40.881103 
Q 62.323448 39.643945 61.911062 38.706703 
Q 61.498676 37.769462 60.973821 37.300841 
Q 60.448966 36.832221 59.699172 36.119917 
Q 58.949379 35.407614 58.499503 34.69531 
L 57.262345 34.245434 
" clip-path="url(#p78fa9c8a9f)" style="fill: none; stroke: #000000; stroke-linejoin: miter"/>
   </g>
  </g>
  <g id="axes_5">
   <g id="patch_6">
    <path d="M 76.499007 39.568966 
Q 75.149379 38.181848 72.9 38.444276 
Q 70.050786 38.444276 68.888607 39.793903 
Q 67.726428 41.143531 67.726428 44.067724 
Q 67.726428 45.56731 69.019821 46.279614 
Q 70.313214 46.991917 71.887779 46.991917 
Q 73.199917 46.991917 74.212138 45.736014 
Q 75.224359 44.48011 75.805448 42.30571 
Q 76.386538 40.13131 76.761434 37.938166 
Q 77.136331 35.745021 77.28629 33.045766 
Q 77.436248 30.34651 77.473738 28.978138 
Q 77.511228 27.609766 77.511228 26.185159 
Q 77.28629 26.260138 77.28629 29.896634 
L 77.28629 44.292662 
L 78.073572 48.229076 
" clip-path="url(#p392846886e)" style="fill: none; stroke: #000000; stroke-linejoin: miter"/>
   </g>
  </g>
  <g id="axes_6"/>
  <g id="axes_7">
   <g id="patch_7">
    <path d="M 98.984141 38.85304 
L 99.412335 38.85304 
Q 100.23304 38.85304 101.196476 38.745991 
Q 102.159912 38.638943 103.319604 38.460529 
Q 104.479295 38.282115 105.085903 38.210749 
L 111.615859 35.427489 
M 111.294714 25.793128 
Q 111.009251 25.721762 109.974449 25.275727 
Q 108.939648 24.829692 108.297357 24.93674 
Q 107.655066 24.93674 107.137665 25.150837 
Q 106.620264 25.364934 106.281278 25.793128 
Q 105.942291 26.221322 105.67467 26.685198 
Q 105.407048 27.149075 105.264317 27.862731 
Q 105.121586 28.576388 105.014537 29.129471 
Q 104.907489 29.682555 104.889648 30.50326 
Q 104.871806 31.323965 104.853965 31.77 
Q 104.836123 32.216035 104.853965 32.965374 
Q 104.871806 33.714714 104.871806 33.928811 
Q 104.871806 36.605022 105.567621 41.850396 
Q 106.263436 47.095771 106.263436 49.771982 
Q 106.19207 50.057445 106.156388 50.681894 
Q 106.120705 51.306344 106.013656 51.805903 
Q 105.906608 52.305463 105.621145 52.555242 
" clip-path="url(#p132f2509cc)" style="fill: none; stroke: #000000; stroke-linejoin: miter"/>
   </g>
  </g>
  <g id="axes_8">
   <g id="patch_8">
    <path d="M 124.7616 35.032717 
Q 123.71189 34.582841 122.737159 34.69531 
Q 119.700497 35.032717 117.788524 36.701007 
Q 115.876552 38.369297 115.876552 41.330979 
Q 115.876552 43.917766 117.882248 45.6048 
Q 119.887945 47.291834 122.512221 47.291834 
Q 124.874069 47.291834 125.998759 45.361117 
Q 127.123448 43.4304 127.123448 40.881103 
Q 127.123448 39.643945 126.711062 38.706703 
Q 126.298676 37.769462 125.773821 37.300841 
Q 125.248966 36.832221 124.499172 36.119917 
Q 123.749379 35.407614 123.299503 34.69531 
L 122.062345 34.245434 
" clip-path="url(#pa725a9a929)" style="fill: none; stroke: #000000; stroke-linejoin: miter"/>
   </g>
  </g>
  <g id="axes_9">
   <g id="patch_9">
    <path d="M 134.213462 32.783338 
Q 134.738317 34.507862 134.869531 36.457324 
Q 135.000745 38.406786 134.925766 40.956083 
Q 134.850786 43.505379 134.888276 44.705048 
L 135.000745 46.054676 
L 135.000745 45.829738 
Q 135.000745 44.667559 134.719572 42.30571 
Q 134.4384 39.943862 134.4384 38.744193 
Q 134.4384 36.419834 135.450621 34.882759 
Q 136.462841 33.345683 138.487283 33.345683 
Q 139.199586 33.345683 139.536993 33.626855 
Q 139.8744 33.908028 140.136828 34.432883 
Q 140.399255 34.957738 140.736662 35.257655 
L 141.186538 36.832221 
" clip-path="url(#pc7d7d483b6)" style="fill: none; stroke: #000000; stroke-linejoin: miter"/>
   </g>
  </g>
  <g id="axes_10"/>
  <g id="axes_11">
   <g id="patch_10">
    <path d="M 164.963917 36.382345 
Q 164.926428 36.494814 165.057641 36.701007 
Q 165.188855 36.9072 165.076386 37.057159 
L 165.076386 39.306538 
Q 165.076386 40.506207 165.413793 41.724621 
Q 165.7512 42.943034 166.613462 43.93651 
Q 167.475724 44.929986 168.675393 44.929986 
Q 169.912552 44.929986 170.587366 43.861531 
Q 171.262179 42.793076 171.712055 41.143531 
Q 172.161931 39.493986 172.499338 38.969131 
L 173.286621 36.382345 
L 173.061683 42.680607 
L 173.061683 45.154924 
Q 173.061683 47.066897 173.792731 51.00331 
Q 174.523779 54.939724 174.523779 56.964166 
Q 175.273572 59.213545 174.186372 60.188276 
Q 173.099172 61.163007 171.037241 60.78811 
Q 169.237738 60.488193 168.319241 60.169531 
Q 167.400745 59.850869 165.413793 58.988607 
L 165.301324 58.426262 
" clip-path="url(#p218967a13d)" style="fill: none; stroke: #000000; stroke-linejoin: miter"/>
   </g>
  </g>
  <g id="axes_12">
   <g id="patch_11">
    <path d="M 189.5616 35.032717 
Q 188.51189 34.582841 187.537159 34.69531 
Q 184.500497 35.032717 182.588524 36.701007 
Q 180.676552 38.369297 180.676552 41.330979 
Q 180.676552 43.917766 182.682248 45.6048 
Q 184.687945 47.291834 187.312221 47.291834 
Q 189.674069 47.291834 190.798759 45.361117 
Q 191.923448 43.4304 191.923448 40.881103 
Q 191.923448 39.643945 191.511062 38.706703 
Q 191.098676 37.769462 190.573821 37.300841 
Q 190.048966 36.832221 189.299172 36.119917 
Q 188.549379 35.407614 188.099503 34.69531 
L 186.862345 34.245434 
" clip-path="url(#p39250a1c7e)" style="fill: none; stroke: #000000; stroke-linejoin: miter"/>
   </g>
  </g>
  <g id="axes_13">
   <g id="patch_12">
    <path d="M 197.888772 35.145186 
Q 197.888772 35.145186 197.888772 35.595062 
Q 197.888772 36.269876 197.776303 37.619503 
Q 197.663834 38.969131 197.663834 39.643945 
Q 197.663834 41.930814 198.900993 43.599103 
Q 200.138152 45.267393 202.275062 45.267393 
Q 203.662179 45.154924 204.430717 43.917766 
Q 205.199255 42.680607 205.349214 41.237255 
Q 205.499172 39.793903 205.7616 37.9944 
Q 206.024028 36.194897 206.436414 35.370124 
Q 206.586372 35.070207 206.586372 35.670041 
Q 206.586372 36.269876 206.323945 38.706703 
Q 206.099007 41.031062 206.099007 41.555917 
Q 205.949048 42.643117 206.286455 43.767807 
Q 206.623862 44.892497 207.336166 45.6048 
" clip-path="url(#p2212db6360)" style="fill: none; stroke: #000000; stroke-linejoin: miter"/>
   </g>
  </g>
  <g id="axes_14">
   <g id="patch_13">
    <path d="M 217.987697 39.981352 
Q 218.999917 40.956083 219.337324 42.905545 
Q 219.524772 43.955255 219.112386 46.167145 
L 217.875228 47.629241 
" clip-path="url(#pfdf45b28e9)" style="fill: none; stroke: #000000; stroke-linejoin: miter"/>
   </g>
  </g>
  <g id="axes_15">
   <g id="patch_14">
    <path d="M 235.424855 27.009931 
Q 235.499834 27.347338 235.574814 28.265834 
Q 235.649793 29.184331 235.799752 29.634207 
L 235.724772 31.058814 
M 234.075228 27.309848 
Q 234.037738 27.309848 234.000248 27.534786 
Q 234.037738 27.684745 234.150207 28.828179 
Q 234.262676 29.971614 234.525103 30.533959 
" clip-path="url(#pada617dbb3)" style="fill: none; stroke: #000000; stroke-linejoin: miter"/>
   </g>
  </g>
  <g id="axes_16"/>
  <g id="axes_17">
   <g id="patch_15">
    <path d="M 262.857476 43.917766 
Q 263.157393 44.180193 264.169614 45.154924 
Q 265.181834 46.129655 265.744179 46.560786 
Q 266.306524 46.991917 267.33749 47.385559 
Q 268.368455 47.7792 269.380676 47.629241 
Q 270.05549 47.629241 270.52411 47.404303 
Q 270.992731 47.179366 271.217669 46.879448 
Q 271.442607 46.579531 271.573821 45.979697 
Q 271.705034 45.379862 271.723779 44.967476 
Q 271.742524 44.55509 271.742524 43.805297 
Q 271.742524 42.718097 270.842772 42.043283 
Q 269.943021 41.368469 268.649628 41.031062 
Q 267.356234 40.693655 266.062841 40.300014 
Q 264.769448 39.906372 263.869697 38.987876 
Q 262.969945 38.069379 262.969945 36.607283 
Q 262.969945 36.082428 263.138648 35.726276 
Q 263.307352 35.370124 263.700993 35.145186 
Q 264.094634 34.920248 264.375807 34.807779 
Q 264.656979 34.69531 265.313048 34.639076 
Q 265.969117 34.582841 266.156566 34.582841 
Q 266.344014 34.582841 267.018828 34.582841 
Q 268.218497 34.582841 268.799586 34.995228 
Q 269.380676 35.407614 269.699338 36.026193 
Q 270.018 36.644772 270.280428 36.832221 
" clip-path="url(#p070c525b37)" style="fill: none; stroke: #000000; stroke-linejoin: miter"/>
   </g>
  </g>
  <g id="axes_18">
   <g id="patch_16">
    <path d="M 289.043923 36.441748 
Q 287.834968 35.094627 283.862687 35.094627 
Q 282.342857 35.094627 281.565672 35.146439 
Q 280.788486 35.198252 279.78678 35.440043 
Q 278.785075 35.681834 278.301493 36.182687 
Q 277.81791 36.683539 277.472495 37.616162 
Q 277.127079 38.548785 277.127079 39.964989 
Q 277.127079 42.037484 278.543284 43.280981 
Q 279.959488 44.524478 281.893817 44.524478 
Q 284.553518 44.524478 287.316844 38.721493 
Q 288.663966 35.854542 288.663966 35.82 
Q 289.009382 35.578209 289.043923 36.441748 
Q 289.043923 37.512537 289.458422 40.362217 
Q 289.872921 43.211898 289.872921 44.524478 
" clip-path="url(#p13421b2a1b)" style="fill: none; stroke: #000000; stroke-linejoin: miter"/>
   </g>
  </g>
  <g id="axes_19">
   <g id="patch_17">
    <path d="M 294.563917 36.382345 
Q 294.526428 36.494814 294.657641 36.701007 
Q 294.788855 36.9072 294.676386 37.057159 
L 294.676386 39.306538 
Q 294.676386 40.506207 295.013793 41.724621 
Q 295.3512 42.943034 296.213462 43.93651 
Q 297.075724 44.929986 298.275393 44.929986 
Q 299.512552 44.929986 300.187366 43.861531 
Q 300.862179 42.793076 301.312055 41.143531 
Q 301.761931 39.493986 302.099338 38.969131 
L 302.886621 36.382345 
L 302.661683 42.680607 
L 302.661683 45.154924 
Q 302.661683 47.066897 303.392731 51.00331 
Q 304.123779 54.939724 304.123779 56.964166 
Q 304.873572 59.213545 303.786372 60.188276 
Q 302.699172 61.163007 300.637241 60.78811 
Q 298.837738 60.488193 297.919241 60.169531 
Q 297.000745 59.850869 295.013793 58.988607 
L 294.901324 58.426262 
" clip-path="url(#pe3738b6859)" style="fill: none; stroke: #000000; stroke-linejoin: miter"/>
   </g>
  </g>
  <g id="axes_20">
   <g id="patch_18">
    <path d="M 311.457476 43.917766 
Q 311.757393 44.180193 312.769614 45.154924 
Q 313.781834 46.129655 314.344179 46.560786 
Q 314.906524 46.991917 315.93749 47.385559 
Q 316.968455 47.7792 317.980676 47.629241 
Q 318.65549 47.629241 319.12411 47.404303 
Q 319.592731 47.179366 319.817669 46.879448 
Q 320.042607 46.579531 320.173821 45.979697 
Q 320.305034 45.379862 320.323779 44.967476 
Q 320.342524 44.55509 320.342524 43.805297 
Q 320.342524 42.718097 319.442772 42.043283 
Q 318.543021 41.368469 317.249628 41.031062 
Q 315.956234 40.693655 314.662841 40.300014 
Q 313.369448 39.906372 312.469697 38.987876 
Q 311.569945 38.069379 311.569945 36.607283 
Q 311.569945 36.082428 311.738648 35.726276 
Q 311.907352 35.370124 312.300993 35.145186 
Q 312.694634 34.920248 312.975807 34.807779 
Q 313.256979 34.69531 313.913048 34.639076 
Q 314.569117 34.582841 314.756566 34.582841 
Q 314.944014 34.582841 315.618828 34.582841 
Q 316.818497 34.582841 317.399586 34.995228 
Q 317.980676 35.407614 318.299338 36.026193 
Q 318.618 36.644772 318.880428 36.832221 
" clip-path="url(#pe3f07f9912)" style="fill: none; stroke: #000000; stroke-linejoin: miter"/>
   </g>
  </g>
  <g id="axes_21"/>
  <g id="axes_22">
   <g id="patch_19">
    <path d="M 342.784049 31.819693 
Q 344.25 31.223374 345.939571 31.037025 
Q 347.629141 30.850675 348.933589 30.925215 
Q 350.238037 30.999755 351.952454 30.838252 
Q 353.666871 30.676748 355.157669 30.105276 
M 341.442331 43.000675 
L 341.442331 43.149755 
Q 341.442331 44.590859 343.032515 45.696534 
Q 344.622699 46.802209 346.063804 46.802209 
Q 346.759509 46.802209 347.318558 46.466779 
Q 347.877607 46.13135 348.250307 45.559877 
Q 348.623006 44.988405 348.908742 44.230583 
Q 349.194479 43.472761 349.343558 42.603129 
Q 349.492638 41.733497 349.616871 40.814172 
Q 349.741104 39.894847 349.753528 39.012791 
Q 349.765951 38.130736 349.790798 37.348067 
Q 349.815644 36.565399 349.790798 35.944233 
Q 349.790798 35.571534 349.790798 35.397607 
Q 349.790798 35.124294 349.753528 34.552822 
Q 349.716258 33.98135 349.716258 33.68319 
Q 349.716258 33.434724 349.554755 33.062025 
Q 349.393252 32.689325 349.144785 32.254509 
Q 348.896319 31.819693 348.821779 31.670613 
L 348.747239 30.925215 
" clip-path="url(#pba00ce5f37)" style="fill: none; stroke: #000000; stroke-linejoin: miter"/>
   </g>
  </g>
  <g id="axes_23">
   <g id="patch_20">
    <path d="M 370.043923 36.441748 
Q 368.834968 35.094627 364.862687 35.094627 
Q 363.342857 35.094627 362.565672 35.146439 
Q 361.788486 35.198252 360.78678 35.440043 
Q 359.785075 35.681834 359.301493 36.182687 
Q 358.81791 36.683539 358.472495 37.616162 
Q 358.127079 38.548785 358.127079 39.964989 
Q 358.127079 42.037484 359.543284 43.280981 
Q 360.959488 44.524478 362.893817 44.524478 
Q 365.553518 44.524478 368.316844 38.721493 
Q 369.663966 35.854542 369.663966 35.82 
Q 370.009382 35.578209 370.043923 36.441748 
Q 370.043923 37.512537 370.458422 40.362217 
Q 370.872921 43.211898 370.872921 44.524478 
" clip-path="url(#p2e851aaa38)" style="fill: none; stroke: #000000; stroke-linejoin: miter"/>
   </g>
  </g>
  <g id="axes_24">
   <g id="patch_21">
    <path d="M 374.408036 34.879821 
Q 374.914286 36.073125 375.203571 42.871339 
Q 375.348214 46.632054 375.6375 46.632054 
Q 375.673661 46.632054 375.709821 46.595893 
Q 376.216071 46.017321 376.270312 44.588973 
Q 376.324554 43.160625 376.107589 41.750357 
Q 375.890625 40.340089 375.6375 38.712857 
Q 375.384375 37.085625 375.384375 36.398571 
Q 375.384375 35.169107 375.764062 33.939643 
Q 376.14375 32.710179 377.120089 32.710179 
Q 378.349554 32.710179 379.072768 34.355491 
Q 379.795982 36.000804 379.958705 37.971562 
Q 380.121429 39.942321 380.229911 41.587634 
Q 380.338393 43.232946 380.483036 43.232946 
Q 380.627679 43.232946 380.71808 41.497232 
Q 380.808482 39.761518 380.935045 37.700357 
Q 381.061607 35.639196 381.784821 33.903482 
Q 382.508036 32.167768 383.7375 32.167768 
Q 385.292411 33.035625 385.961384 34.771339 
Q 386.630357 36.507054 386.594196 38.188527 
Q 386.558036 39.87 386.576116 42.057723 
Q 386.594196 44.245446 386.991964 45.511071 
" clip-path="url(#p179f276810)" style="fill: none; stroke: #000000; stroke-linejoin: miter"/>
   </g>
  </g>
  <g id="axes_25">
   <g id="patch_22">
    <path d="M 390.657798 38.160826 
Q 393.630275 39.535596 398.349083 39.721376 
Q 399.872477 39.721376 400.559862 38.550963 
Q 401.247248 37.38055 401.247248 35.82 
Q 401.247248 35.299817 401.154358 34.909679 
Q 401.061468 34.519541 400.819954 34.296606 
Q 400.57844 34.07367 400.411239 33.943624 
Q 400.244037 33.813578 399.798165 33.757844 
Q 399.352294 33.70211 399.147936 33.683532 
Q 398.943578 33.664954 398.367661 33.683532 
Q 397.791743 33.70211 397.568807 33.70211 
Q 395.525229 33.70211 394.038991 35.578486 
Q 392.552752 37.454862 392.552752 39.609908 
Q 392.552752 42.619541 394.484862 44.570229 
Q 396.416972 46.520917 399.463761 46.520917 
Q 401.618807 46.818165 403.142202 44.29156 
" clip-path="url(#p3e66e93683)" style="fill: none; stroke: #000000; stroke-linejoin: miter"/>
   </g>
  </g>
  <g id="axes_26">
   <g id="patch_23">
    <path d="M 408.657476 43.917766 
Q 408.957393 44.180193 409.969614 45.154924 
Q 410.981834 46.129655 411.544179 46.560786 
Q 412.106524 46.991917 413.13749 47.385559 
Q 414.168455 47.7792 415.180676 47.629241 
Q 415.85549 47.629241 416.32411 47.404303 
Q 416.792731 47.179366 417.017669 46.879448 
Q 417.242607 46.579531 417.373821 45.979697 
Q 417.505034 45.379862 417.523779 44.967476 
Q 417.542524 44.55509 417.542524 43.805297 
Q 417.542524 42.718097 416.642772 42.043283 
Q 415.743021 41.368469 414.449628 41.031062 
Q 413.156234 40.693655 411.862841 40.300014 
Q 410.569448 39.906372 409.669697 38.987876 
Q 408.769945 38.069379 408.769945 36.607283 
Q 408.769945 36.082428 408.938648 35.726276 
Q 409.107352 35.370124 409.500993 35.145186 
Q 409.894634 34.920248 410.175807 34.807779 
Q 410.456979 34.69531 411.113048 34.639076 
Q 411.769117 34.582841 411.956566 34.582841 
Q 412.144014 34.582841 412.818828 34.582841 
Q 414.018497 34.582841 414.599586 34.995228 
Q 415.180676 35.407614 415.499338 36.026193 
Q 415.818 36.644772 416.080428 36.832221 
" clip-path="url(#pe4bff744ea)" style="fill: none; stroke: #000000; stroke-linejoin: miter"/>
   </g>
  </g>
  <g id="axes_27">
   <g id="patch_24">
    <path d="M 428.587697 39.981352 
Q 429.599917 40.956083 429.937324 42.905545 
Q 430.124772 43.955255 429.712386 46.167145 
L 428.475228 47.629241 
" clip-path="url(#pc856115e4f)" style="fill: none; stroke: #000000; stroke-linejoin: miter"/>
   </g>
  </g>
  <g id="axes_28"/>
  <g id="axes_29">
   <g id="patch_25">
    <path d="M 462.224855 27.009931 
Q 462.299834 27.347338 462.374814 28.265834 
Q 462.449793 29.184331 462.599752 29.634207 
L 462.524772 31.058814 
M 460.875228 27.309848 
Q 460.837738 27.309848 460.800248 27.534786 
Q 460.837738 27.684745 460.950207 28.828179 
Q 461.062676 29.971614 461.325103 30.533959 
" clip-path="url(#p4ddd4ebb3e)" style="fill: none; stroke: #000000; stroke-linejoin: miter"/>
   </g>
  </g>
  <g id="axes_30">
   <g id="patch_26">
    <path d="M 473.063834 37.95691 
L 473.738648 37.95691 
Q 474.450952 37.95691 475.238234 37.881931 
Q 476.025517 37.806952 476.981503 37.675738 
Q 477.93749 37.544524 478.462345 37.507034 
L 482.736166 35.82 
M 478.687283 30.42149 
L 478.687283 31.43371 
Q 478.687283 33.383172 478.012469 37.207117 
Q 477.337655 41.031062 477.337655 43.018014 
Q 477.337655 43.805297 477.337655 44.105214 
Q 477.337655 44.405131 477.431379 45.042455 
Q 477.525103 45.679779 477.712552 45.960952 
Q 477.9 46.242124 478.293641 46.485807 
Q 478.687283 46.72949 479.249628 46.72949 
Q 479.362097 46.692 479.680759 46.72949 
Q 479.999421 46.766979 480.186869 46.710745 
Q 480.374317 46.65451 480.374317 46.392083 
" clip-path="url(#pcff82d3842)" style="fill: none; stroke: #000000; stroke-linejoin: miter"/>
   </g>
  </g>
  <g id="axes_31">
   <g id="patch_27">
    <path d="M 490.613462 35.932469 
Q 491.213297 35.257655 492.206772 34.826524 
Q 493.200248 34.395393 494.1 34.470372 
Q 494.737324 34.470372 495.22469 34.639076 
Q 495.712055 34.807779 496.030717 34.995228 
Q 496.349379 35.182676 496.574317 35.670041 
Q 496.799255 36.157407 496.911724 36.419834 
Q 497.024193 36.682262 497.080428 37.375821 
Q 497.136662 38.069379 497.155407 38.331807 
Q 497.174152 38.594234 497.155407 39.419007 
Q 497.136662 40.243779 497.136662 40.431228 
Q 497.136662 41.368469 496.967959 43.242952 
Q 496.799255 45.117434 496.799255 46.054676 
Q 496.799255 46.467062 496.85549 46.823214 
Q 496.911724 47.179366 497.005448 47.610497 
Q 497.099172 48.041628 497.136662 48.304055 
L 497.586538 48.528993 
M 491.063338 23.111007 
Q 491.288276 24.798041 491.288276 29.971614 
L 491.288276 42.3432 
L 490.950869 46.841959 
L 490.725931 47.74171 
" clip-path="url(#p4f57a5c325)" style="fill: none; stroke: #000000; stroke-linejoin: miter"/>
   </g>
  </g>
  <g id="axes_32">
   <g id="patch_28">
    <path d="M 515.843923 36.441748 
Q 514.634968 35.094627 510.662687 35.094627 
Q 509.142857 35.094627 508.365672 35.146439 
Q 507.588486 35.198252 506.58678 35.440043 
Q 505.585075 35.681834 505.101493 36.182687 
Q 504.61791 36.683539 504.272495 37.616162 
Q 503.927079 38.548785 503.927079 39.964989 
Q 503.927079 42.037484 505.343284 43.280981 
Q 506.759488 44.524478 508.693817 44.524478 
Q 511.353518 44.524478 514.116844 38.721493 
Q 515.463966 35.854542 515.463966 35.82 
Q 515.809382 35.578209 515.843923 36.441748 
Q 515.843923 37.512537 516.258422 40.362217 
Q 516.672921 43.211898 516.672921 44.524478 
" clip-path="url(#p93872b8710)" style="fill: none; stroke: #000000; stroke-linejoin: miter"/>
   </g>
  </g>
  <g id="axes_33">
   <g id="patch_29">
    <path d="M 521.663834 37.95691 
L 522.338648 37.95691 
Q 523.050952 37.95691 523.838234 37.881931 
Q 524.625517 37.806952 525.581503 37.675738 
Q 526.53749 37.544524 527.062345 37.507034 
L 531.336166 35.82 
M 527.287283 30.42149 
L 527.287283 31.43371 
Q 527.287283 33.383172 526.612469 37.207117 
Q 525.937655 41.031062 525.937655 43.018014 
Q 525.937655 43.805297 525.937655 44.105214 
Q 525.937655 44.405131 526.031379 45.042455 
Q 526.125103 45.679779 526.312552 45.960952 
Q 526.5 46.242124 526.893641 46.485807 
Q 527.287283 46.72949 527.849628 46.72949 
Q 527.962097 46.692 528.280759 46.72949 
Q 528.599421 46.766979 528.786869 46.710745 
Q 528.974317 46.65451 528.974317 46.392083 
" clip-path="url(#pb9328a816d)" style="fill: none; stroke: #000000; stroke-linejoin: miter"/>
   </g>
  </g>
  <g id="axes_34">
   <g id="patch_30">
    <path d="M 542.625021 26.147669 
Q 542.587531 26.597545 542.625021 27.384828 
Q 542.66251 27.572276 542.606276 27.965917 
Q 542.550041 28.359559 542.587531 28.678221 
Q 542.625021 28.996883 542.849959 29.184331 
" clip-path="url(#pff1182b80a)" style="fill: none; stroke: #000000; stroke-linejoin: miter"/>
   </g>
  </g>
  <g id="axes_35">
   <g id="patch_31">
    <path d="M 554.457476 43.917766 
Q 554.757393 44.180193 555.769614 45.154924 
Q 556.781834 46.129655 557.344179 46.560786 
Q 557.906524 46.991917 558.93749 47.385559 
Q 559.968455 47.7792 560.980676 47.629241 
Q 561.65549 47.629241 562.12411 47.404303 
Q 562.592731 47.179366 562.817669 46.879448 
Q 563.042607 46.579531 563.173821 45.979697 
Q 563.305034 45.379862 563.323779 44.967476 
Q 563.342524 44.55509 563.342524 43.805297 
Q 563.342524 42.718097 562.442772 42.043283 
Q 561.543021 41.368469 560.249628 41.031062 
Q 558.956234 40.693655 557.662841 40.300014 
Q 556.369448 39.906372 555.469697 38.987876 
Q 554.569945 38.069379 554.569945 36.607283 
Q 554.569945 36.082428 554.738648 35.726276 
Q 554.907352 35.370124 555.300993 35.145186 
Q 555.694634 34.920248 555.975807 34.807779 
Q 556.256979 34.69531 556.913048 34.639076 
Q 557.569117 34.582841 557.756566 34.582841 
Q 557.944014 34.582841 558.618828 34.582841 
Q 559.818497 34.582841 560.399586 34.995228 
Q 560.980676 35.407614 561.299338 36.026193 
Q 561.618 36.644772 561.880428 36.832221 
" clip-path="url(#p6850e094bb)" style="fill: none; stroke: #000000; stroke-linejoin: miter"/>
   </g>
  </g>
  <g id="axes_36"/>
  <g id="axes_37">
   <g id="patch_32">
    <path d="M 591.656152 30.309021 
Q 591.168786 30.42149 591.581172 30.833876 
Q 591.956069 31.208772 592.031048 30.946345 
Q 592.068538 30.871366 591.993559 30.646428 
Q 591.993559 30.458979 591.918579 30.42149 
Q 591.8436 30.384 591.712386 30.42149 
Q 591.581172 30.458979 591.431214 30.42149 
L 591.318745 30.646428 
M 592.218497 33.345683 
Q 593.268207 37.731972 593.793062 40.13131 
Q 594.317917 42.530648 594.767793 46.317103 
Q 595.217669 50.103559 595.030221 53.25269 
Q 595.030221 53.440138 595.030221 54.021228 
Q 595.030221 54.602317 595.030221 54.902234 
Q 595.030221 55.202152 595.011476 55.783241 
Q 594.992731 56.364331 594.917752 56.701738 
Q 594.842772 57.039145 594.730303 57.52651 
Q 594.617834 58.013876 594.411641 58.313793 
Q 594.205448 58.61371 593.943021 58.894883 
Q 593.680593 59.176055 593.305697 59.307269 
Q 592.9308 59.438483 592.443434 59.438483 
Q 591.468703 59.438483 590.71891 59.251034 
Q 589.969117 59.063586 589.106855 58.707434 
Q 588.244593 58.351283 587.607269 58.201324 
L 587.382331 57.751448 
" clip-path="url(#p5f5c6c3448)" style="fill: none; stroke: #000000; stroke-linejoin: miter"/>
   </g>
  </g>
  <g id="axes_38">
   <g id="patch_33">
    <path d="M 602.888772 35.145186 
Q 602.888772 35.145186 602.888772 35.595062 
Q 602.888772 36.269876 602.776303 37.619503 
Q 602.663834 38.969131 602.663834 39.643945 
Q 602.663834 41.930814 603.900993 43.599103 
Q 605.138152 45.267393 607.275062 45.267393 
Q 608.662179 45.154924 609.430717 43.917766 
Q 610.199255 42.680607 610.349214 41.237255 
Q 610.499172 39.793903 610.7616 37.9944 
Q 611.024028 36.194897 611.436414 35.370124 
Q 611.586372 35.070207 611.586372 35.670041 
Q 611.586372 36.269876 611.323945 38.706703 
Q 611.099007 41.031062 611.099007 41.555917 
Q 610.949048 42.643117 611.286455 43.767807 
Q 611.623862 44.892497 612.336166 45.6048 
" clip-path="url(#pcd02ddd553)" style="fill: none; stroke: #000000; stroke-linejoin: miter"/>
   </g>
  </g>
  <g id="axes_39">
   <g id="patch_34">
    <path d="M 619.257476 43.917766 
Q 619.557393 44.180193 620.569614 45.154924 
Q 621.581834 46.129655 622.144179 46.560786 
Q 622.706524 46.991917 623.73749 47.385559 
Q 624.768455 47.7792 625.780676 47.629241 
Q 626.45549 47.629241 626.92411 47.404303 
Q 627.392731 47.179366 627.617669 46.879448 
Q 627.842607 46.579531 627.973821 45.979697 
Q 628.105034 45.379862 628.123779 44.967476 
Q 628.142524 44.55509 628.142524 43.805297 
Q 628.142524 42.718097 627.242772 42.043283 
Q 626.343021 41.368469 625.049628 41.031062 
Q 623.756234 40.693655 622.462841 40.300014 
Q 621.169448 39.906372 620.269697 38.987876 
Q 619.369945 38.069379 619.369945 36.607283 
Q 619.369945 36.082428 619.538648 35.726276 
Q 619.707352 35.370124 620.100993 35.145186 
Q 620.494634 34.920248 620.775807 34.807779 
Q 621.056979 34.69531 621.713048 34.639076 
Q 622.369117 34.582841 622.556566 34.582841 
Q 622.744014 34.582841 623.418828 34.582841 
Q 624.618497 34.582841 625.199586 34.995228 
Q 625.780676 35.407614 626.099338 36.026193 
Q 626.418 36.644772 626.680428 36.832221 
" clip-path="url(#pbd5ce68aa6)" style="fill: none; stroke: #000000; stroke-linejoin: miter"/>
   </g>
  </g>
  <g id="axes_40">
   <g id="patch_35">
    <path d="M 635.063834 37.95691 
L 635.738648 37.95691 
Q 636.450952 37.95691 637.238234 37.881931 
Q 638.025517 37.806952 638.981503 37.675738 
Q 639.93749 37.544524 640.462345 37.507034 
L 644.736166 35.82 
M 640.687283 30.42149 
L 640.687283 31.43371 
Q 640.687283 33.383172 640.012469 37.207117 
Q 639.337655 41.031062 639.337655 43.018014 
Q 639.337655 43.805297 639.337655 44.105214 
Q 639.337655 44.405131 639.431379 45.042455 
Q 639.525103 45.679779 639.712552 45.960952 
Q 639.9 46.242124 640.293641 46.485807 
Q 640.687283 46.72949 641.249628 46.72949 
Q 641.362097 46.692 641.680759 46.72949 
Q 641.999421 46.766979 642.186869 46.710745 
Q 642.374317 46.65451 642.374317 46.392083 
" clip-path="url(#p452a921468)" style="fill: none; stroke: #000000; stroke-linejoin: miter"/>
   </g>
  </g>
  <g id="axes_41"/>
  <g id="axes_42">
   <g id="patch_36">
    <path d="M 671.906359 28.621986 
Q 672.131297 30.34651 672.206276 32.146014 
Q 672.281255 33.945517 672.26251 36.551048 
Q 672.243766 39.156579 672.243766 40.093821 
Q 672.243766 40.13131 672.468703 45.829738 
L 672.693641 46.841959 
" clip-path="url(#p24dea89839)" style="fill: none; stroke: #000000; stroke-linejoin: miter"/>
   </g>
  </g>
  <g id="axes_43">
   <g id="patch_37">
    <path d="M 691.7616 35.032717 
Q 690.71189 34.582841 689.737159 34.69531 
Q 686.700497 35.032717 684.788524 36.701007 
Q 682.876552 38.369297 682.876552 41.330979 
Q 682.876552 43.917766 684.882248 45.6048 
Q 686.887945 47.291834 689.512221 47.291834 
Q 691.874069 47.291834 692.998759 45.361117 
Q 694.123448 43.4304 694.123448 40.881103 
Q 694.123448 39.643945 693.711062 38.706703 
Q 693.298676 37.769462 692.773821 37.300841 
Q 692.248966 36.832221 691.499172 36.119917 
Q 690.749379 35.407614 690.299503 34.69531 
L 689.062345 34.245434 
" clip-path="url(#pf86a7fbfc5)" style="fill: none; stroke: #000000; stroke-linejoin: miter"/>
   </g>
  </g>
  <g id="axes_44">
   <g id="patch_38">
    <path d="M 700.426179 34.807779 
Q 702.038234 36.719752 703.331628 39.6252 
Q 704.625021 42.530648 704.924938 45.154924 
Q 705.974648 43.655338 706.893145 38.819172 
Q 707.811641 33.983007 708.973821 32.108524 
" clip-path="url(#pfde90cfff6)" style="fill: none; stroke: #000000; stroke-linejoin: miter"/>
   </g>
  </g>
  <g id="axes_45">
   <g id="patch_39">
    <path d="M 714.657798 38.160826 
Q 717.630275 39.535596 722.349083 39.721376 
Q 723.872477 39.721376 724.559862 38.550963 
Q 725.247248 37.38055 725.247248 35.82 
Q 725.247248 35.299817 725.154358 34.909679 
Q 725.061468 34.519541 724.819954 34.296606 
Q 724.57844 34.07367 724.411239 33.943624 
Q 724.244037 33.813578 723.798165 33.757844 
Q 723.352294 33.70211 723.147936 33.683532 
Q 722.943578 33.664954 722.367661 33.683532 
Q 721.791743 33.70211 721.568807 33.70211 
Q 719.525229 33.70211 718.038991 35.578486 
Q 716.552752 37.454862 716.552752 39.609908 
Q 716.552752 42.619541 718.484862 44.570229 
Q 720.416972 46.520917 723.463761 46.520917 
Q 725.618807 46.818165 727.142202 44.29156 
" clip-path="url(#pc96975123a)" style="fill: none; stroke: #000000; stroke-linejoin: miter"/>
   </g>
  </g>
  <g id="axes_46">
   <g id="patch_40">
    <path d="M 736.706359 28.621986 
Q 736.931297 30.34651 737.006276 32.146014 
Q 737.081255 33.945517 737.06251 36.551048 
Q 737.043766 39.156579 737.043766 40.093821 
Q 737.043766 40.13131 737.268703 45.829738 
L 737.493641 46.841959 
" clip-path="url(#p4e4779162d)" style="fill: none; stroke: #000000; stroke-linejoin: miter"/>
   </g>
  </g>
  <g id="axes_47">
   <g id="patch_41">
    <path d="M 748.163917 36.382345 
Q 748.126428 36.494814 748.257641 36.701007 
Q 748.388855 36.9072 748.276386 37.057159 
L 748.276386 39.306538 
Q 748.276386 40.506207 748.613793 41.724621 
Q 748.9512 42.943034 749.813462 43.93651 
Q 750.675724 44.929986 751.875393 44.929986 
Q 753.112552 44.929986 753.787366 43.861531 
Q 754.462179 42.793076 754.912055 41.143531 
Q 755.361931 39.493986 755.699338 38.969131 
L 756.486621 36.382345 
L 756.261683 42.680607 
L 756.261683 45.154924 
Q 756.261683 47.066897 756.992731 51.00331 
Q 757.723779 54.939724 757.723779 56.964166 
Q 758.473572 59.213545 757.386372 60.188276 
Q 756.299172 61.163007 754.237241 60.78811 
Q 752.437738 60.488193 751.519241 60.169531 
Q 750.600745 59.850869 748.613793 58.988607 
L 748.501324 58.426262 
" clip-path="url(#pdf4dd9284a)" style="fill: none; stroke: #000000; stroke-linejoin: miter"/>
   </g>
  </g>
  <g id="axes_48">
   <g id="patch_42">
    <path d="M 769.387531 45.979697 
Q 769.350041 46.017186 769.218828 46.054676 
Q 769.087614 46.092166 769.125103 46.167145 
Q 769.125103 46.579531 769.5 46.579531 
Q 769.837407 46.579531 769.837407 46.092166 
Q 769.912386 45.867228 769.631214 45.754759 
Q 769.350041 45.64229 769.162593 45.754759 
" clip-path="url(#p27bda47f18)" style="fill: none; stroke: #000000; stroke-linejoin: miter"/>
   </g>
  </g>
  <g id="axes_49">
   <g id="patch_43">
    <path d="M 786.224855 27.009931 
Q 786.299834 27.347338 786.374814 28.265834 
Q 786.449793 29.184331 786.599752 29.634207 
L 786.524772 31.058814 
M 784.875228 27.309848 
Q 784.837738 27.309848 784.800248 27.534786 
Q 784.837738 27.684745 784.950207 28.828179 
Q 785.062676 29.971614 785.325103 30.533959 
" clip-path="url(#p6874a32f63)" style="fill: none; stroke: #000000; stroke-linejoin: miter"/>
   </g>
  </g>
 </g>
 <defs>
  <clipPath id="pa857718bb7">
   <rect x="5.325766" y="8.64" width="5.548469" height="54.36"/>
  </clipPath>
  <clipPath id="pe43bfe55ee">
   <rect x="16.2" y="15.604854" width="16.2" height="40.430293"/>
  </clipPath>
  <clipPath id="p79ceceb816">
   <rect x="33.002069" y="8.64" width="14.995862" height="54.36"/>
  </clipPath>
  <clipPath id="p78fa9c8a9f">
   <rect x="49.202069" y="8.64" width="14.995862" height="54.36"/>
  </clipPath>
  <clipPath id="p392846886e">
   <rect x="65.851945" y="8.64" width="14.09611" height="54.36"/>
  </clipPath>
  <clipPath id="p132f2509cc">
   <rect x="97.2" y="9.949956" width="16.2" height="51.740088"/>
  </clipPath>
  <clipPath id="pa725a9a929">
   <rect x="114.002069" y="8.64" width="14.995862" height="54.36"/>
  </clipPath>
  <clipPath id="pc7d7d483b6">
   <rect x="132.338979" y="8.64" width="10.722041" height="54.36"/>
  </clipPath>
  <clipPath id="p218967a13d">
   <rect x="163.051945" y="8.64" width="14.09611" height="54.36"/>
  </clipPath>
  <clipPath id="p39250a1c7e">
   <rect x="178.802069" y="8.64" width="14.995862" height="54.36"/>
  </clipPath>
  <clipPath id="p2212db6360">
   <rect x="195.789352" y="8.64" width="13.421297" height="54.36"/>
  </clipPath>
  <clipPath id="pfdf45b28e9">
   <rect x="216.000745" y="8.64" width="5.39851" height="54.36"/>
  </clipPath>
  <clipPath id="pada617dbb3">
   <rect x="232.125766" y="8.64" width="5.548469" height="54.36"/>
  </clipPath>
  <clipPath id="p070c525b37">
   <rect x="260.982993" y="8.64" width="12.634014" height="54.36"/>
  </clipPath>
  <clipPath id="p13421b2a1b">
   <rect x="275.4" y="10.777356" width="16.2" height="50.085288"/>
  </clipPath>
  <clipPath id="pe3738b6859">
   <rect x="292.651945" y="8.64" width="14.09611" height="54.36"/>
  </clipPath>
  <clipPath id="pe3f07f9912">
   <rect x="309.582993" y="8.64" width="12.634014" height="54.36"/>
  </clipPath>
  <clipPath id="pba00ce5f37">
   <rect x="340.2" y="17.806196" width="16.2" height="36.027607"/>
  </clipPath>
  <clipPath id="p2e851aaa38">
   <rect x="356.4" y="10.777356" width="16.2" height="50.085288"/>
  </clipPath>
  <clipPath id="p179f276810">
   <rect x="372.6" y="9.603482" width="16.2" height="52.433036"/>
  </clipPath>
  <clipPath id="p3e66e93683">
   <rect x="388.8" y="8.881927" width="16.2" height="53.876147"/>
  </clipPath>
  <clipPath id="pe4bff744ea">
   <rect x="406.782993" y="8.64" width="12.634014" height="54.36"/>
  </clipPath>
  <clipPath id="pc856115e4f">
   <rect x="426.600745" y="8.64" width="5.39851" height="54.36"/>
  </clipPath>
  <clipPath id="p4ddd4ebb3e">
   <rect x="458.925766" y="8.64" width="5.548469" height="54.36"/>
  </clipPath>
  <clipPath id="pcff82d3842">
   <rect x="471.189352" y="8.64" width="13.421297" height="54.36"/>
  </clipPath>
  <clipPath id="p4f57a5c325">
   <rect x="488.738979" y="8.64" width="10.722041" height="54.36"/>
  </clipPath>
  <clipPath id="p93872b8710">
   <rect x="502.2" y="10.777356" width="16.2" height="50.085288"/>
  </clipPath>
  <clipPath id="pb9328a816d">
   <rect x="519.789352" y="8.64" width="13.421297" height="54.36"/>
  </clipPath>
  <clipPath id="pff1182b80a">
   <rect x="540.675559" y="8.64" width="4.048883" height="54.36"/>
  </clipPath>
  <clipPath id="p6850e094bb">
   <rect x="552.582993" y="8.64" width="12.634014" height="54.36"/>
  </clipPath>
  <clipPath id="p5f5c6c3448">
   <rect x="585.507848" y="8.64" width="11.584303" height="54.36"/>
  </clipPath>
  <clipPath id="pcd02ddd553">
   <rect x="600.789352" y="8.64" width="13.421297" height="54.36"/>
  </clipPath>
  <clipPath id="pbd5ce68aa6">
   <rect x="617.382993" y="8.64" width="12.634014" height="54.36"/>
  </clipPath>
  <clipPath id="p452a921468">
   <rect x="633.189352" y="8.64" width="13.421297" height="54.36"/>
  </clipPath>
  <clipPath id="p24dea89839">
   <rect x="670.031876" y="8.64" width="4.536248" height="54.36"/>
  </clipPath>
  <clipPath id="pf86a7fbfc5">
   <rect x="681.002069" y="8.64" width="14.995862" height="54.36"/>
  </clipPath>
  <clipPath id="pfde90cfff6">
   <rect x="698.551697" y="8.64" width="12.296607" height="54.36"/>
  </clipPath>
  <clipPath id="pc96975123a">
   <rect x="712.8" y="8.881927" width="16.2" height="53.876147"/>
  </clipPath>
  <clipPath id="p4e4779162d">
   <rect x="734.831876" y="8.64" width="4.536248" height="54.36"/>
  </clipPath>
  <clipPath id="pdf4dd9284a">
   <rect x="746.251945" y="8.64" width="14.09611" height="54.36"/>
  </clipPath>
  <clipPath id="p27bda47f18">
   <rect x="767.213131" y="8.64" width="4.573738" height="54.36"/>
  </clipPath>
  <clipPath id="p6874a32f63">
   <rect x="782.925766" y="8.64" width="5.548469" height="54.36"/>
  </clipPath>
 </defs>
</svg>
