<?xml version="1.0" encoding="utf-8" standalone="no"?>
<!DOCTYPE svg PUBLIC "-//W3C//DTD SVG 1.1//EN"
  "http://www.w3.org/Graphics/SVG/1.1/DTD/svg11.dtd">
<svg xmlns:xlink="http://www.w3.org/1999/xlink" width="864pt" height="72pt" viewBox="0 0 864 72" xmlns="http://www.w3.org/2000/svg" version="1.1">
 <metadata>
  <rdf:RDF xmlns:dc="http://purl.org/dc/elements/1.1/" xmlns:cc="http://creativecommons.org/ns#" xmlns:rdf="http://www.w3.org/1999/02/22-rdf-syntax-ns#">
   <cc:Work>
    <dc:type rdf:resource="http://purl.org/dc/dcmitype/StillImage"/>
    <dc:date>2023-12-21T12:08:25.677360</dc:date>
    <dc:format>image/svg+xml</dc:format>
    <dc:creator>
     <cc:Agent>
      <dc:title>Matplotlib v3.5.1, https://matplotlib.org/</dc:title>
     </cc:Agent>
    </dc:creator>
   </cc:Work>
  </rdf:RDF>
 </metadata>
 <defs>
  <style type="text/css">*{stroke-linejoin: round; stroke-linecap: butt}</style>
 </defs>
 <g id="figure_1">
  <g id="patch_1">
   <path d="M 0 72 
L 864 72 
L 864 0 
L 0 0 
z
" style="fill: #8fff9f"/>
  </g>
  <g id="axes_1">
   <g id="patch_2">
    <path d="M 3.638731 37.282097 
L 3.638731 37.844441 
Q 3.901159 39.868883 3.938648 41.312234 
Q 3.976138 42.755586 3.882414 44.667559 
Q 3.78869 46.579531 3.78869 48.191586 
L 3.863669 39.643945 
Q 3.863669 38.144359 5.456979 37.507034 
Q 7.05029 36.86971 8.474897 37.282097 
Q 10.386869 37.844441 11.305366 39.04411 
Q 12.223862 40.243779 12.280097 41.668386 
Q 12.336331 43.092993 12.373821 44.817517 
Q 12.41131 46.542041 12.561269 48.191586 
" clip-path="url(#pd7f77b1ae0)" style="fill: none; stroke: #000000; stroke-linejoin: miter"/>
   </g>
  </g>
  <g id="axes_2">
   <g id="patch_3">
    <path d="M 27.5616 35.032717 
Q 26.51189 34.582841 25.537159 34.69531 
Q 22.500497 35.032717 20.588524 36.701007 
Q 18.676552 38.369297 18.676552 41.330979 
Q 18.676552 43.917766 20.682248 45.6048 
Q 22.687945 47.291834 25.312221 47.291834 
Q 27.674069 47.291834 28.798759 45.361117 
Q 29.923448 43.4304 29.923448 40.881103 
Q 29.923448 39.643945 29.511062 38.706703 
Q 29.098676 37.769462 28.573821 37.300841 
Q 28.048966 36.832221 27.299172 36.119917 
Q 26.549379 35.407614 26.099503 34.69531 
L 24.862345 34.245434 
" clip-path="url(#p38ded5dd98)" style="fill: none; stroke: #000000; stroke-linejoin: miter"/>
   </g>
  </g>
  <g id="axes_3">
   <g id="patch_4">
    <path d="M 35.663834 37.95691 
L 36.338648 37.95691 
Q 37.050952 37.95691 37.838234 37.881931 
Q 38.625517 37.806952 39.581503 37.675738 
Q 40.53749 37.544524 41.062345 37.507034 
L 45.336166 35.82 
M 41.287283 30.42149 
L 41.287283 31.43371 
Q 41.287283 33.383172 40.612469 37.207117 
Q 39.937655 41.031062 39.937655 43.018014 
Q 39.937655 43.805297 39.937655 44.105214 
Q 39.937655 44.405131 40.031379 45.042455 
Q 40.125103 45.679779 40.312552 45.960952 
Q 40.5 46.242124 40.893641 46.485807 
Q 41.287283 46.72949 41.849628 46.72949 
Q 41.962097 46.692 42.280759 46.72949 
Q 42.599421 46.766979 42.786869 46.710745 
Q 42.974317 46.65451 42.974317 46.392083 
" clip-path="url(#p045dbfed81)" style="fill: none; stroke: #000000; stroke-linejoin: miter"/>
   </g>
  </g>
  <g id="axes_4"/>
  <g id="axes_5">
   <g id="patch_5">
    <path d="M 66.516102 36.437797 
L 67.751695 44.778051 
Q 67.854661 45.567458 67.854661 45.60178 
Q 67.854661 45.704746 68.163559 45.704746 
Q 69.02161 45.704746 69.742373 44.778051 
Q 70.463136 43.851356 70.875 42.718729 
Q 71.286864 41.586102 71.801695 40.659407 
Q 72.316525 39.732712 72.797034 39.732712 
Q 73.414831 39.732712 74.049788 40.607924 
Q 74.684746 41.483136 75.148093 42.512797 
Q 75.611441 43.542458 76.28072 44.417669 
Q 76.95 45.292881 77.636441 45.292881 
Q 77.911017 43.782712 78.340042 39.69839 
Q 78.769068 35.614068 79.283898 33.554746 
" clip-path="url(#pc388e915a7)" style="fill: none; stroke: #000000; stroke-linejoin: miter"/>
   </g>
  </g>
  <g id="axes_6">
   <g id="patch_6">
    <path d="M 85.613462 35.932469 
Q 86.213297 35.257655 87.206772 34.826524 
Q 88.200248 34.395393 89.1 34.470372 
Q 89.737324 34.470372 90.22469 34.639076 
Q 90.712055 34.807779 91.030717 34.995228 
Q 91.349379 35.182676 91.574317 35.670041 
Q 91.799255 36.157407 91.911724 36.419834 
Q 92.024193 36.682262 92.080428 37.375821 
Q 92.136662 38.069379 92.155407 38.331807 
Q 92.174152 38.594234 92.155407 39.419007 
Q 92.136662 40.243779 92.136662 40.431228 
Q 92.136662 41.368469 91.967959 43.242952 
Q 91.799255 45.117434 91.799255 46.054676 
Q 91.799255 46.467062 91.85549 46.823214 
Q 91.911724 47.179366 92.005448 47.610497 
Q 92.099172 48.041628 92.136662 48.304055 
L 92.586538 48.528993 
M 86.063338 23.111007 
Q 86.288276 24.798041 86.288276 29.971614 
L 86.288276 42.3432 
L 85.950869 46.841959 
L 85.725931 47.74171 
" clip-path="url(#p181cdefddc)" style="fill: none; stroke: #000000; stroke-linejoin: miter"/>
   </g>
  </g>
  <g id="axes_7">
   <g id="patch_7">
    <path d="M 110.843923 36.441748 
Q 109.634968 35.094627 105.662687 35.094627 
Q 104.142857 35.094627 103.365672 35.146439 
Q 102.588486 35.198252 101.58678 35.440043 
Q 100.585075 35.681834 100.101493 36.182687 
Q 99.61791 36.683539 99.272495 37.616162 
Q 98.927079 38.548785 98.927079 39.964989 
Q 98.927079 42.037484 100.343284 43.280981 
Q 101.759488 44.524478 103.693817 44.524478 
Q 106.353518 44.524478 109.116844 38.721493 
Q 110.463966 35.854542 110.463966 35.82 
Q 110.809382 35.578209 110.843923 36.441748 
Q 110.843923 37.512537 111.258422 40.362217 
Q 111.672921 43.211898 111.672921 44.524478 
" clip-path="url(#p509cbe1e3b)" style="fill: none; stroke: #000000; stroke-linejoin: miter"/>
   </g>
  </g>
  <g id="axes_8">
   <g id="patch_8">
    <path d="M 116.663834 37.95691 
L 117.338648 37.95691 
Q 118.050952 37.95691 118.838234 37.881931 
Q 119.625517 37.806952 120.581503 37.675738 
Q 121.53749 37.544524 122.062345 37.507034 
L 126.336166 35.82 
M 122.287283 30.42149 
L 122.287283 31.43371 
Q 122.287283 33.383172 121.612469 37.207117 
Q 120.937655 41.031062 120.937655 43.018014 
Q 120.937655 43.805297 120.937655 44.105214 
Q 120.937655 44.405131 121.031379 45.042455 
Q 121.125103 45.679779 121.312552 45.960952 
Q 121.5 46.242124 121.893641 46.485807 
Q 122.287283 46.72949 122.849628 46.72949 
Q 122.962097 46.692 123.280759 46.72949 
Q 123.599421 46.766979 123.786869 46.710745 
Q 123.974317 46.65451 123.974317 46.392083 
" clip-path="url(#p889425dad0)" style="fill: none; stroke: #000000; stroke-linejoin: miter"/>
   </g>
  </g>
  <g id="axes_9"/>
  <g id="axes_10">
   <g id="patch_9">
    <path d="M 148.763917 36.382345 
Q 148.726428 36.494814 148.857641 36.701007 
Q 148.988855 36.9072 148.876386 37.057159 
L 148.876386 39.306538 
Q 148.876386 40.506207 149.213793 41.724621 
Q 149.5512 42.943034 150.413462 43.93651 
Q 151.275724 44.929986 152.475393 44.929986 
Q 153.712552 44.929986 154.387366 43.861531 
Q 155.062179 42.793076 155.512055 41.143531 
Q 155.961931 39.493986 156.299338 38.969131 
L 157.086621 36.382345 
L 156.861683 42.680607 
L 156.861683 45.154924 
Q 156.861683 47.066897 157.592731 51.00331 
Q 158.323779 54.939724 158.323779 56.964166 
Q 159.073572 59.213545 157.986372 60.188276 
Q 156.899172 61.163007 154.837241 60.78811 
Q 153.037738 60.488193 152.119241 60.169531 
Q 151.200745 59.850869 149.213793 58.988607 
L 149.101324 58.426262 
" clip-path="url(#p291b700b93)" style="fill: none; stroke: #000000; stroke-linejoin: miter"/>
   </g>
  </g>
  <g id="axes_11">
   <g id="patch_10">
    <path d="M 173.3616 35.032717 
Q 172.31189 34.582841 171.337159 34.69531 
Q 168.300497 35.032717 166.388524 36.701007 
Q 164.476552 38.369297 164.476552 41.330979 
Q 164.476552 43.917766 166.482248 45.6048 
Q 168.487945 47.291834 171.112221 47.291834 
Q 173.474069 47.291834 174.598759 45.361117 
Q 175.723448 43.4304 175.723448 40.881103 
Q 175.723448 39.643945 175.311062 38.706703 
Q 174.898676 37.769462 174.373821 37.300841 
Q 173.848966 36.832221 173.099172 36.119917 
Q 172.349379 35.407614 171.899503 34.69531 
L 170.662345 34.245434 
" clip-path="url(#pc4e3d8ef1f)" style="fill: none; stroke: #000000; stroke-linejoin: miter"/>
   </g>
  </g>
  <g id="axes_12">
   <g id="patch_11">
    <path d="M 181.688772 35.145186 
Q 181.688772 35.145186 181.688772 35.595062 
Q 181.688772 36.269876 181.576303 37.619503 
Q 181.463834 38.969131 181.463834 39.643945 
Q 181.463834 41.930814 182.700993 43.599103 
Q 183.938152 45.267393 186.075062 45.267393 
Q 187.462179 45.154924 188.230717 43.917766 
Q 188.999255 42.680607 189.149214 41.237255 
Q 189.299172 39.793903 189.5616 37.9944 
Q 189.824028 36.194897 190.236414 35.370124 
Q 190.386372 35.070207 190.386372 35.670041 
Q 190.386372 36.269876 190.123945 38.706703 
Q 189.899007 41.031062 189.899007 41.555917 
Q 189.749048 42.643117 190.086455 43.767807 
Q 190.423862 44.892497 191.136166 45.6048 
" clip-path="url(#p705bf3072c)" style="fill: none; stroke: #000000; stroke-linejoin: miter"/>
   </g>
  </g>
  <g id="axes_13"/>
  <g id="axes_14">
   <g id="patch_12">
    <path d="M 212.408036 34.879821 
Q 212.914286 36.073125 213.203571 42.871339 
Q 213.348214 46.632054 213.6375 46.632054 
Q 213.673661 46.632054 213.709821 46.595893 
Q 214.216071 46.017321 214.270312 44.588973 
Q 214.324554 43.160625 214.107589 41.750357 
Q 213.890625 40.340089 213.6375 38.712857 
Q 213.384375 37.085625 213.384375 36.398571 
Q 213.384375 35.169107 213.764062 33.939643 
Q 214.14375 32.710179 215.120089 32.710179 
Q 216.349554 32.710179 217.072768 34.355491 
Q 217.795982 36.000804 217.958705 37.971563 
Q 218.121429 39.942321 218.229911 41.587634 
Q 218.338393 43.232946 218.483036 43.232946 
Q 218.627679 43.232946 218.71808 41.497232 
Q 218.808482 39.761518 218.935045 37.700357 
Q 219.061607 35.639196 219.784821 33.903482 
Q 220.508036 32.167768 221.7375 32.167768 
Q 223.292411 33.035625 223.961384 34.771339 
Q 224.630357 36.507054 224.594196 38.188527 
Q 224.558036 39.87 224.576116 42.057723 
Q 224.594196 44.245446 224.991964 45.511071 
" clip-path="url(#p912f3a06b9)" style="fill: none; stroke: #000000; stroke-linejoin: miter"/>
   </g>
  </g>
  <g id="axes_15">
   <g id="patch_13">
    <path d="M 228.657798 38.160826 
Q 231.630275 39.535596 236.349083 39.721376 
Q 237.872477 39.721376 238.559862 38.550963 
Q 239.247248 37.38055 239.247248 35.82 
Q 239.247248 35.299817 239.154358 34.909679 
Q 239.061468 34.519541 238.819954 34.296606 
Q 238.57844 34.07367 238.411239 33.943624 
Q 238.244037 33.813578 237.798165 33.757844 
Q 237.352294 33.70211 237.147936 33.683532 
Q 236.943578 33.664954 236.367661 33.683532 
Q 235.791743 33.70211 235.568807 33.70211 
Q 233.525229 33.70211 232.038991 35.578486 
Q 230.552752 37.454862 230.552752 39.609908 
Q 230.552752 42.619541 232.484862 44.570229 
Q 234.416972 46.520917 237.463761 46.520917 
Q 239.618807 46.818165 241.142202 44.29156 
" clip-path="url(#p16410254d5)" style="fill: none; stroke: #000000; stroke-linejoin: miter"/>
   </g>
  </g>
  <g id="axes_16">
   <g id="patch_14">
    <path d="M 256.643923 36.441748 
Q 255.434968 35.094627 251.462687 35.094627 
Q 249.942857 35.094627 249.165672 35.146439 
Q 248.388486 35.198252 247.38678 35.440043 
Q 246.385075 35.681834 245.901493 36.182687 
Q 245.41791 36.683539 245.072495 37.616162 
Q 244.727079 38.548785 244.727079 39.964989 
Q 244.727079 42.037484 246.143284 43.280981 
Q 247.559488 44.524478 249.493817 44.524478 
Q 252.153518 44.524478 254.916844 38.721493 
Q 256.263966 35.854542 256.263966 35.82 
Q 256.609382 35.578209 256.643923 36.441748 
Q 256.643923 37.512537 257.058422 40.362217 
Q 257.472921 43.211898 257.472921 44.524478 
" clip-path="url(#pbfc479546e)" style="fill: none; stroke: #000000; stroke-linejoin: miter"/>
   </g>
  </g>
  <g id="axes_17">
   <g id="patch_15">
    <path d="M 262.838731 37.282097 
L 262.838731 37.844441 
Q 263.101159 39.868883 263.138648 41.312234 
Q 263.176138 42.755586 263.082414 44.667559 
Q 262.98869 46.579531 262.98869 48.191586 
L 263.063669 39.643945 
Q 263.063669 38.144359 264.656979 37.507034 
Q 266.25029 36.86971 267.674897 37.282097 
Q 269.586869 37.844441 270.505366 39.04411 
Q 271.423862 40.243779 271.480097 41.668386 
Q 271.536331 43.092993 271.573821 44.817517 
Q 271.61131 46.542041 271.761269 48.191586 
" clip-path="url(#pe5f5210d96)" style="fill: none; stroke: #000000; stroke-linejoin: miter"/>
   </g>
  </g>
  <g id="axes_18">
   <g id="patch_16">
    <path d="M 282.787697 39.981352 
Q 283.799917 40.956083 284.137324 42.905545 
Q 284.324772 43.955255 283.912386 46.167145 
L 282.675228 47.629241 
" clip-path="url(#pc429aae916)" style="fill: none; stroke: #000000; stroke-linejoin: miter"/>
   </g>
  </g>
  <g id="axes_19">
   <g id="patch_17">
    <path d="M 300.224855 27.009931 
Q 300.299834 27.347338 300.374814 28.265834 
Q 300.449793 29.184331 300.599752 29.634207 
L 300.524772 31.058814 
M 298.875228 27.309848 
Q 298.837738 27.309848 298.800248 27.534786 
Q 298.837738 27.684745 298.950207 28.828179 
Q 299.062676 29.971614 299.325103 30.533959 
" clip-path="url(#p0509c4d07d)" style="fill: none; stroke: #000000; stroke-linejoin: miter"/>
   </g>
  </g>
  <g id="axes_20"/>
  <g id="axes_21">
   <g id="patch_18">
    <path d="M 326.584049 31.819693 
Q 328.05 31.223374 329.739571 31.037025 
Q 331.429141 30.850675 332.733589 30.925215 
Q 334.038037 30.999755 335.752454 30.838252 
Q 337.466871 30.676748 338.957669 30.105276 
M 325.242331 43.000675 
L 325.242331 43.149755 
Q 325.242331 44.590859 326.832515 45.696534 
Q 328.422699 46.802209 329.863804 46.802209 
Q 330.559509 46.802209 331.118558 46.466779 
Q 331.677607 46.13135 332.050307 45.559877 
Q 332.423006 44.988405 332.708742 44.230583 
Q 332.994479 43.472761 333.143558 42.603129 
Q 333.292638 41.733497 333.416871 40.814172 
Q 333.541104 39.894847 333.553528 39.012791 
Q 333.565951 38.130736 333.590798 37.348067 
Q 333.615644 36.565399 333.590798 35.944233 
Q 333.590798 35.571534 333.590798 35.397607 
Q 333.590798 35.124294 333.553528 34.552822 
Q 333.516258 33.98135 333.516258 33.68319 
Q 333.516258 33.434724 333.354755 33.062025 
Q 333.193252 32.689325 332.944785 32.254509 
Q 332.696319 31.819693 332.621779 31.670613 
L 332.547239 30.925215 
" clip-path="url(#p33e9c1d09a)" style="fill: none; stroke: #000000; stroke-linejoin: miter"/>
   </g>
  </g>
  <g id="axes_22">
   <g id="patch_19">
    <path d="M 353.843923 36.441748 
Q 352.634968 35.094627 348.662687 35.094627 
Q 347.142857 35.094627 346.365672 35.146439 
Q 345.588486 35.198252 344.58678 35.440043 
Q 343.585075 35.681834 343.101493 36.182687 
Q 342.61791 36.683539 342.272495 37.616162 
Q 341.927079 38.548785 341.927079 39.964989 
Q 341.927079 42.037484 343.343284 43.280981 
Q 344.759488 44.524478 346.693817 44.524478 
Q 349.353518 44.524478 352.116844 38.721493 
Q 353.463966 35.854542 353.463966 35.82 
Q 353.809382 35.578209 353.843923 36.441748 
Q 353.843923 37.512537 354.258422 40.362217 
Q 354.672921 43.211898 354.672921 44.524478 
" clip-path="url(#pe069d2b4a4)" style="fill: none; stroke: #000000; stroke-linejoin: miter"/>
   </g>
  </g>
  <g id="axes_23">
   <g id="patch_20">
    <path d="M 358.208036 34.879821 
Q 358.714286 36.073125 359.003571 42.871339 
Q 359.148214 46.632054 359.4375 46.632054 
Q 359.473661 46.632054 359.509821 46.595893 
Q 360.016071 46.017321 360.070312 44.588973 
Q 360.124554 43.160625 359.907589 41.750357 
Q 359.690625 40.340089 359.4375 38.712857 
Q 359.184375 37.085625 359.184375 36.398571 
Q 359.184375 35.169107 359.564062 33.939643 
Q 359.94375 32.710179 360.920089 32.710179 
Q 362.149554 32.710179 362.872768 34.355491 
Q 363.595982 36.000804 363.758705 37.971563 
Q 363.921429 39.942321 364.029911 41.587634 
Q 364.138393 43.232946 364.283036 43.232946 
Q 364.427679 43.232946 364.51808 41.497232 
Q 364.608482 39.761518 364.735045 37.700357 
Q 364.861607 35.639196 365.584821 33.903482 
Q 366.308036 32.167768 367.5375 32.167768 
Q 369.092411 33.035625 369.761384 34.771339 
Q 370.430357 36.507054 370.394196 38.188527 
Q 370.358036 39.87 370.376116 42.057723 
Q 370.394196 44.245446 370.791964 45.511071 
" clip-path="url(#p40de13eb2d)" style="fill: none; stroke: #000000; stroke-linejoin: miter"/>
   </g>
  </g>
  <g id="axes_24">
   <g id="patch_21">
    <path d="M 374.457798 38.160826 
Q 377.430275 39.535596 382.149083 39.721376 
Q 383.672477 39.721376 384.359862 38.550963 
Q 385.047248 37.38055 385.047248 35.82 
Q 385.047248 35.299817 384.954358 34.909679 
Q 384.861468 34.519541 384.619954 34.296606 
Q 384.37844 34.07367 384.211239 33.943624 
Q 384.044037 33.813578 383.598165 33.757844 
Q 383.152294 33.70211 382.947936 33.683532 
Q 382.743578 33.664954 382.167661 33.683532 
Q 381.591743 33.70211 381.368807 33.70211 
Q 379.325229 33.70211 377.838991 35.578486 
Q 376.352752 37.454862 376.352752 39.609908 
Q 376.352752 42.619541 378.284862 44.570229 
Q 380.216972 46.520917 383.263761 46.520917 
Q 385.418807 46.818165 386.942202 44.29156 
" clip-path="url(#p35a506c322)" style="fill: none; stroke: #000000; stroke-linejoin: miter"/>
   </g>
  </g>
  <g id="axes_25">
   <g id="patch_22">
    <path d="M 392.457476 43.917766 
Q 392.757393 44.180193 393.769614 45.154924 
Q 394.781834 46.129655 395.344179 46.560786 
Q 395.906524 46.991917 396.93749 47.385559 
Q 397.968455 47.7792 398.980676 47.629241 
Q 399.65549 47.629241 400.12411 47.404303 
Q 400.592731 47.179366 400.817669 46.879448 
Q 401.042607 46.579531 401.173821 45.979697 
Q 401.305034 45.379862 401.323779 44.967476 
Q 401.342524 44.55509 401.342524 43.805297 
Q 401.342524 42.718097 400.442772 42.043283 
Q 399.543021 41.368469 398.249628 41.031062 
Q 396.956234 40.693655 395.662841 40.300014 
Q 394.369448 39.906372 393.469697 38.987876 
Q 392.569945 38.069379 392.569945 36.607283 
Q 392.569945 36.082428 392.738648 35.726276 
Q 392.907352 35.370124 393.300993 35.145186 
Q 393.694634 34.920248 393.975807 34.807779 
Q 394.256979 34.69531 394.913048 34.639076 
Q 395.569117 34.582841 395.756566 34.582841 
Q 395.944014 34.582841 396.618828 34.582841 
Q 397.818497 34.582841 398.399586 34.995228 
Q 398.980676 35.407614 399.299338 36.026193 
Q 399.618 36.644772 399.880428 36.832221 
" clip-path="url(#p38e6137bb7)" style="fill: none; stroke: #000000; stroke-linejoin: miter"/>
   </g>
  </g>
  <g id="axes_26"/>
  <g id="axes_27">
   <g id="patch_23">
    <path d="M 424.857476 43.917766 
Q 425.157393 44.180193 426.169614 45.154924 
Q 427.181834 46.129655 427.744179 46.560786 
Q 428.306524 46.991917 429.33749 47.385559 
Q 430.368455 47.7792 431.380676 47.629241 
Q 432.05549 47.629241 432.52411 47.404303 
Q 432.992731 47.179366 433.217669 46.879448 
Q 433.442607 46.579531 433.573821 45.979697 
Q 433.705034 45.379862 433.723779 44.967476 
Q 433.742524 44.55509 433.742524 43.805297 
Q 433.742524 42.718097 432.842772 42.043283 
Q 431.943021 41.368469 430.649628 41.031062 
Q 429.356234 40.693655 428.062841 40.300014 
Q 426.769448 39.906372 425.869697 38.987876 
Q 424.969945 38.069379 424.969945 36.607283 
Q 424.969945 36.082428 425.138648 35.726276 
Q 425.307352 35.370124 425.700993 35.145186 
Q 426.094634 34.920248 426.375807 34.807779 
Q 426.656979 34.69531 427.313048 34.639076 
Q 427.969117 34.582841 428.156566 34.582841 
Q 428.344014 34.582841 429.018828 34.582841 
Q 430.218497 34.582841 430.799586 34.995228 
Q 431.380676 35.407614 431.699338 36.026193 
Q 432.018 36.644772 432.280428 36.832221 
" clip-path="url(#pe704270950)" style="fill: none; stroke: #000000; stroke-linejoin: miter"/>
   </g>
  </g>
  <g id="axes_28">
   <g id="patch_24">
    <path d="M 451.043923 36.441748 
Q 449.834968 35.094627 445.862687 35.094627 
Q 444.342857 35.094627 443.565672 35.146439 
Q 442.788486 35.198252 441.78678 35.440043 
Q 440.785075 35.681834 440.301493 36.182687 
Q 439.81791 36.683539 439.472495 37.616162 
Q 439.127079 38.548785 439.127079 39.964989 
Q 439.127079 42.037484 440.543284 43.280981 
Q 441.959488 44.524478 443.893817 44.524478 
Q 446.553518 44.524478 449.316844 38.721493 
Q 450.663966 35.854542 450.663966 35.82 
Q 451.009382 35.578209 451.043923 36.441748 
Q 451.043923 37.512537 451.458422 40.362217 
Q 451.872921 43.211898 451.872921 44.524478 
" clip-path="url(#p35a7b1d6af)" style="fill: none; stroke: #000000; stroke-linejoin: miter"/>
   </g>
  </g>
  <g id="axes_29">
   <g id="patch_25">
    <path d="M 456.563917 36.382345 
Q 456.526428 36.494814 456.657641 36.701007 
Q 456.788855 36.9072 456.676386 37.057159 
L 456.676386 39.306538 
Q 456.676386 40.506207 457.013793 41.724621 
Q 457.3512 42.943034 458.213462 43.93651 
Q 459.075724 44.929986 460.275393 44.929986 
Q 461.512552 44.929986 462.187366 43.861531 
Q 462.862179 42.793076 463.312055 41.143531 
Q 463.761931 39.493986 464.099338 38.969131 
L 464.886621 36.382345 
L 464.661683 42.680607 
L 464.661683 45.154924 
Q 464.661683 47.066897 465.392731 51.00331 
Q 466.123779 54.939724 466.123779 56.964166 
Q 466.873572 59.213545 465.786372 60.188276 
Q 464.699172 61.163007 462.637241 60.78811 
Q 460.837738 60.488193 459.919241 60.169531 
Q 459.000745 59.850869 457.013793 58.988607 
L 456.901324 58.426262 
" clip-path="url(#p1f55be4b9e)" style="fill: none; stroke: #000000; stroke-linejoin: miter"/>
   </g>
  </g>
  <g id="axes_30">
   <g id="patch_26">
    <path d="M 473.457476 43.917766 
Q 473.757393 44.180193 474.769614 45.154924 
Q 475.781834 46.129655 476.344179 46.560786 
Q 476.906524 46.991917 477.93749 47.385559 
Q 478.968455 47.7792 479.980676 47.629241 
Q 480.65549 47.629241 481.12411 47.404303 
Q 481.592731 47.179366 481.817669 46.879448 
Q 482.042607 46.579531 482.173821 45.979697 
Q 482.305034 45.379862 482.323779 44.967476 
Q 482.342524 44.55509 482.342524 43.805297 
Q 482.342524 42.718097 481.442772 42.043283 
Q 480.543021 41.368469 479.249628 41.031062 
Q 477.956234 40.693655 476.662841 40.300014 
Q 475.369448 39.906372 474.469697 38.987876 
Q 473.569945 38.069379 473.569945 36.607283 
Q 473.569945 36.082428 473.738648 35.726276 
Q 473.907352 35.370124 474.300993 35.145186 
Q 474.694634 34.920248 474.975807 34.807779 
Q 475.256979 34.69531 475.913048 34.639076 
Q 476.569117 34.582841 476.756566 34.582841 
Q 476.944014 34.582841 477.618828 34.582841 
Q 478.818497 34.582841 479.399586 34.995228 
Q 479.980676 35.407614 480.299338 36.026193 
Q 480.618 36.644772 480.880428 36.832221 
" clip-path="url(#p65ebf7b8ae)" style="fill: none; stroke: #000000; stroke-linejoin: miter"/>
   </g>
  </g>
  <g id="axes_31">
   <g id="patch_27">
    <path d="M 493.387697 39.981352 
Q 494.399917 40.956083 494.737324 42.905545 
Q 494.924772 43.955255 494.512386 46.167145 
L 493.275228 47.629241 
" clip-path="url(#pbc87371133)" style="fill: none; stroke: #000000; stroke-linejoin: miter"/>
   </g>
  </g>
  <g id="axes_32"/>
  <g id="axes_33">
   <g id="patch_28">
    <path d="M 522.057476 43.917766 
Q 522.357393 44.180193 523.369614 45.154924 
Q 524.381834 46.129655 524.944179 46.560786 
Q 525.506524 46.991917 526.53749 47.385559 
Q 527.568455 47.7792 528.580676 47.629241 
Q 529.25549 47.629241 529.72411 47.404303 
Q 530.192731 47.179366 530.417669 46.879448 
Q 530.642607 46.579531 530.773821 45.979697 
Q 530.905034 45.379862 530.923779 44.967476 
Q 530.942524 44.55509 530.942524 43.805297 
Q 530.942524 42.718097 530.042772 42.043283 
Q 529.143021 41.368469 527.849628 41.031062 
Q 526.556234 40.693655 525.262841 40.300014 
Q 523.969448 39.906372 523.069697 38.987876 
Q 522.169945 38.069379 522.169945 36.607283 
Q 522.169945 36.082428 522.338648 35.726276 
Q 522.507352 35.370124 522.900993 35.145186 
Q 523.294634 34.920248 523.575807 34.807779 
Q 523.856979 34.69531 524.513048 34.639076 
Q 525.169117 34.582841 525.356566 34.582841 
Q 525.544014 34.582841 526.218828 34.582841 
Q 527.418497 34.582841 527.999586 34.995228 
Q 528.580676 35.407614 528.899338 36.026193 
Q 529.218 36.644772 529.480428 36.832221 
" clip-path="url(#pd24e79d8b5)" style="fill: none; stroke: #000000; stroke-linejoin: miter"/>
   </g>
  </g>
  <g id="axes_34">
   <g id="patch_29">
    <path d="M 542.306359 28.621986 
Q 542.531297 30.34651 542.606276 32.146014 
Q 542.681255 33.945517 542.66251 36.551048 
Q 542.643766 39.156579 542.643766 40.093821 
Q 542.643766 40.13131 542.868703 45.829738 
L 543.093641 46.841959 
" clip-path="url(#pd3c5426a62)" style="fill: none; stroke: #000000; stroke-linejoin: miter"/>
   </g>
  </g>
  <g id="axes_35">
   <g id="patch_30">
    <path d="M 564.443923 36.441748 
Q 563.234968 35.094627 559.262687 35.094627 
Q 557.742857 35.094627 556.965672 35.146439 
Q 556.188486 35.198252 555.18678 35.440043 
Q 554.185075 35.681834 553.701493 36.182687 
Q 553.21791 36.683539 552.872495 37.616162 
Q 552.527079 38.548785 552.527079 39.964989 
Q 552.527079 42.037484 553.943284 43.280981 
Q 555.359488 44.524478 557.293817 44.524478 
Q 559.953518 44.524478 562.716844 38.721493 
Q 564.063966 35.854542 564.063966 35.82 
Q 564.409382 35.578209 564.443923 36.441748 
Q 564.443923 37.512537 564.858422 40.362217 
Q 565.272921 43.211898 565.272921 44.524478 
" clip-path="url(#pf9f37767d8)" style="fill: none; stroke: #000000; stroke-linejoin: miter"/>
   </g>
  </g>
  <g id="axes_36">
   <g id="patch_31">
    <path d="M 570.320069 39.868883 
L 570.320069 39.419007 
Q 570.320069 37.769462 572.063338 36.682262 
Q 573.806607 35.595062 575.493641 35.595062 
Q 577.705531 35.595062 579.073903 36.794731 
Q 580.442276 37.9944 580.442276 40.20629 
Q 580.442276 42.30571 578.624028 43.336676 
Q 576.805779 44.367641 574.59389 44.367641 
Q 573.919076 44.367641 573.412966 44.255172 
Q 572.906855 44.142703 572.288276 43.917766 
Q 571.669697 43.692828 571.219821 43.580359 
L 570.095131 42.568138 
M 569.757724 36.832221 
Q 570.2076 38.444276 570.470028 40.262524 
Q 570.732455 42.080772 570.78869 43.749062 
Q 570.844924 45.417352 570.882414 47.27309 
Q 570.919903 49.128828 570.882414 50.778372 
L 570.769945 57.863917 
" clip-path="url(#p1e0351b280)" style="fill: none; stroke: #000000; stroke-linejoin: miter"/>
   </g>
  </g>
  <g id="axes_37">
   <g id="patch_32">
    <path d="M 586.520069 39.868883 
L 586.520069 39.419007 
Q 586.520069 37.769462 588.263338 36.682262 
Q 590.006607 35.595062 591.693641 35.595062 
Q 593.905531 35.595062 595.273903 36.794731 
Q 596.642276 37.9944 596.642276 40.20629 
Q 596.642276 42.30571 594.824028 43.336676 
Q 593.005779 44.367641 590.79389 44.367641 
Q 590.119076 44.367641 589.612966 44.255172 
Q 589.106855 44.142703 588.488276 43.917766 
Q 587.869697 43.692828 587.419821 43.580359 
L 586.295131 42.568138 
M 585.957724 36.832221 
Q 586.4076 38.444276 586.670028 40.262524 
Q 586.932455 42.080772 586.98869 43.749062 
Q 587.044924 45.417352 587.082414 47.27309 
Q 587.119903 49.128828 587.082414 50.778372 
L 586.969945 57.863917 
" clip-path="url(#p925ccae3ed)" style="fill: none; stroke: #000000; stroke-linejoin: miter"/>
   </g>
  </g>
  <g id="axes_38">
   <g id="patch_33">
    <path d="M 608.118579 29.071862 
Q 607.743683 29.146841 607.612469 29.577972 
Q 607.481255 30.009103 607.556234 30.42149 
Q 607.556234 30.571448 607.593724 30.702662 
Q 607.631214 30.833876 607.687448 30.89011 
Q 607.743683 30.946345 607.799917 31.040069 
Q 607.856152 31.133793 607.893641 31.208772 
L 608.00611 29.859145 
M 608.00611 34.020497 
Q 607.106359 39.006621 606.881421 42.793076 
L 607.331297 45.379862 
L 607.668703 46.054676 
" clip-path="url(#p7874ea6007)" style="fill: none; stroke: #000000; stroke-linejoin: miter"/>
   </g>
  </g>
  <g id="axes_39">
   <g id="patch_34">
    <path d="M 619.238731 37.282097 
L 619.238731 37.844441 
Q 619.501159 39.868883 619.538648 41.312234 
Q 619.576138 42.755586 619.482414 44.667559 
Q 619.38869 46.579531 619.38869 48.191586 
L 619.463669 39.643945 
Q 619.463669 38.144359 621.056979 37.507034 
Q 622.65029 36.86971 624.074897 37.282097 
Q 625.986869 37.844441 626.905366 39.04411 
Q 627.823862 40.243779 627.880097 41.668386 
Q 627.936331 43.092993 627.973821 44.817517 
Q 628.01131 46.542041 628.161269 48.191586 
" clip-path="url(#pe59cd539d6)" style="fill: none; stroke: #000000; stroke-linejoin: miter"/>
   </g>
  </g>
  <g id="axes_40">
   <g id="patch_35">
    <path d="M 644.687191 39.096404 
Q 644.43236 39.023596 643.46764 38.623146 
Q 642.502921 38.222697 641.84764 38.077079 
Q 641.19236 37.931461 640.537079 38.00427 
Q 637.915955 38.00427 636.277753 40.388764 
Q 634.639551 42.773258 634.639551 45.430787 
Q 634.639551 47.068989 639.881798 47.068989 
Q 641.447191 47.068989 642.775955 45.558202 
Q 644.104719 44.047416 644.778202 42.172584 
Q 645.451685 40.297753 645.451685 38.768764 
Q 645.451685 37.27618 645.415281 36.984944 
L 645.342472 38.077079 
Q 645.342472 38.550337 645.342472 38.987191 
Q 645.378876 40.188539 645.579101 42.281798 
Q 645.779326 44.375056 645.943146 46.049663 
Q 646.106966 47.72427 646.143371 49.872135 
Q 646.179775 52.02 646.015955 53.658202 
Q 645.852135 55.296404 645.287865 56.971011 
Q 644.723596 58.645618 643.795281 59.737753 
Q 642.866966 60.829888 641.265169 61.521573 
Q 639.663371 62.213258 637.515506 62.213258 
Q 635.877303 62.213258 634.785169 61.466966 
Q 633.693034 60.720674 633.693034 59.155281 
Q 633.620225 58.936854 633.656629 58.936854 
Q 633.693034 58.936854 633.802247 58.936854 
Q 633.911461 58.936854 633.911461 58.82764 
" clip-path="url(#pfccb80bdbf)" style="fill: none; stroke: #000000; stroke-linejoin: miter"/>
   </g>
  </g>
  <g id="axes_41"/>
  <g id="axes_42">
   <g id="patch_36">
    <path d="M 667.463834 37.95691 
L 668.138648 37.95691 
Q 668.850952 37.95691 669.638234 37.881931 
Q 670.425517 37.806952 671.381503 37.675738 
Q 672.33749 37.544524 672.862345 37.507034 
L 677.136166 35.82 
M 673.087283 30.42149 
L 673.087283 31.43371 
Q 673.087283 33.383172 672.412469 37.207117 
Q 671.737655 41.031062 671.737655 43.018014 
Q 671.737655 43.805297 671.737655 44.105214 
Q 671.737655 44.405131 671.831379 45.042455 
Q 671.925103 45.679779 672.112552 45.960952 
Q 672.3 46.242124 672.693641 46.485807 
Q 673.087283 46.72949 673.649628 46.72949 
Q 673.762097 46.692 674.080759 46.72949 
Q 674.399421 46.766979 674.586869 46.710745 
Q 674.774317 46.65451 674.774317 46.392083 
" clip-path="url(#pe6fc8f7db3)" style="fill: none; stroke: #000000; stroke-linejoin: miter"/>
   </g>
  </g>
  <g id="axes_43">
   <g id="patch_37">
    <path d="M 685.013462 35.932469 
Q 685.613297 35.257655 686.606772 34.826524 
Q 687.600248 34.395393 688.5 34.470372 
Q 689.137324 34.470372 689.62469 34.639076 
Q 690.112055 34.807779 690.430717 34.995228 
Q 690.749379 35.182676 690.974317 35.670041 
Q 691.199255 36.157407 691.311724 36.419834 
Q 691.424193 36.682262 691.480428 37.375821 
Q 691.536662 38.069379 691.555407 38.331807 
Q 691.574152 38.594234 691.555407 39.419007 
Q 691.536662 40.243779 691.536662 40.431228 
Q 691.536662 41.368469 691.367959 43.242952 
Q 691.199255 45.117434 691.199255 46.054676 
Q 691.199255 46.467062 691.25549 46.823214 
Q 691.311724 47.179366 691.405448 47.610497 
Q 691.499172 48.041628 691.536662 48.304055 
L 691.986538 48.528993 
M 685.463338 23.111007 
Q 685.688276 24.798041 685.688276 29.971614 
L 685.688276 42.3432 
L 685.350869 46.841959 
L 685.125931 47.74171 
" clip-path="url(#pec82a0d46b)" style="fill: none; stroke: #000000; stroke-linejoin: miter"/>
   </g>
  </g>
  <g id="axes_44">
   <g id="patch_38">
    <path d="M 698.457798 38.160826 
Q 701.430275 39.535596 706.149083 39.721376 
Q 707.672477 39.721376 708.359862 38.550963 
Q 709.047248 37.38055 709.047248 35.82 
Q 709.047248 35.299817 708.954358 34.909679 
Q 708.861468 34.519541 708.619954 34.296606 
Q 708.37844 34.07367 708.211239 33.943624 
Q 708.044037 33.813578 707.598165 33.757844 
Q 707.152294 33.70211 706.947936 33.683532 
Q 706.743578 33.664954 706.167661 33.683532 
Q 705.591743 33.70211 705.368807 33.70211 
Q 703.325229 33.70211 701.838991 35.578486 
Q 700.352752 37.454862 700.352752 39.609908 
Q 700.352752 42.619541 702.284862 44.570229 
Q 704.216972 46.520917 707.263761 46.520917 
Q 709.418807 46.818165 710.942202 44.29156 
" clip-path="url(#pc751fefa04)" style="fill: none; stroke: #000000; stroke-linejoin: miter"/>
   </g>
  </g>
  <g id="axes_45"/>
  <g id="axes_46">
   <g id="patch_39">
    <path d="M 732.263834 37.95691 
L 732.938648 37.95691 
Q 733.650952 37.95691 734.438234 37.881931 
Q 735.225517 37.806952 736.181503 37.675738 
Q 737.13749 37.544524 737.662345 37.507034 
L 741.936166 35.82 
M 737.887283 30.42149 
L 737.887283 31.43371 
Q 737.887283 33.383172 737.212469 37.207117 
Q 736.537655 41.031062 736.537655 43.018014 
Q 736.537655 43.805297 736.537655 44.105214 
Q 736.537655 44.405131 736.631379 45.042455 
Q 736.725103 45.679779 736.912552 45.960952 
Q 737.1 46.242124 737.493641 46.485807 
Q 737.887283 46.72949 738.449628 46.72949 
Q 738.562097 46.692 738.880759 46.72949 
Q 739.199421 46.766979 739.386869 46.710745 
Q 739.574317 46.65451 739.574317 46.392083 
" clip-path="url(#pfa3c787267)" style="fill: none; stroke: #000000; stroke-linejoin: miter"/>
   </g>
  </g>
  <g id="axes_47">
   <g id="patch_40">
    <path d="M 758.843923 36.441748 
Q 757.634968 35.094627 753.662687 35.094627 
Q 752.142857 35.094627 751.365672 35.146439 
Q 750.588486 35.198252 749.58678 35.440043 
Q 748.585075 35.681834 748.101493 36.182687 
Q 747.61791 36.683539 747.272495 37.616162 
Q 746.927079 38.548785 746.927079 39.964989 
Q 746.927079 42.037484 748.343284 43.280981 
Q 749.759488 44.524478 751.693817 44.524478 
Q 754.353518 44.524478 757.116844 38.721493 
Q 758.463966 35.854542 758.463966 35.82 
Q 758.809382 35.578209 758.843923 36.441748 
Q 758.843923 37.512537 759.258422 40.362217 
Q 759.672921 43.211898 759.672921 44.524478 
" clip-path="url(#p2d2af59262)" style="fill: none; stroke: #000000; stroke-linejoin: miter"/>
   </g>
  </g>
  <g id="axes_48">
   <g id="patch_41">
    <path d="M 767.194386 35.595062 
L 771.805614 35.707531 
" clip-path="url(#p9a54ebc0ce)" style="fill: none; stroke: #000000; stroke-linejoin: miter"/>
   </g>
  </g>
 </g>
 <defs>
  <clipPath id="pd7f77b1ae0">
   <rect x="1.764248" y="8.64" width="12.671503" height="54.36"/>
  </clipPath>
  <clipPath id="p38ded5dd98">
   <rect x="16.802069" y="8.64" width="14.995862" height="54.36"/>
  </clipPath>
  <clipPath id="p045dbfed81">
   <rect x="33.789352" y="8.64" width="13.421297" height="54.36"/>
  </clipPath>
  <clipPath id="pc388e915a7">
   <rect x="64.8" y="10.936525" width="16.2" height="49.766949"/>
  </clipPath>
  <clipPath id="p181cdefddc">
   <rect x="83.738979" y="8.64" width="10.722041" height="54.36"/>
  </clipPath>
  <clipPath id="p509cbe1e3b">
   <rect x="97.2" y="10.777356" width="16.2" height="50.085288"/>
  </clipPath>
  <clipPath id="p889425dad0">
   <rect x="114.789352" y="8.64" width="13.421297" height="54.36"/>
  </clipPath>
  <clipPath id="p291b700b93">
   <rect x="146.851945" y="8.64" width="14.09611" height="54.36"/>
  </clipPath>
  <clipPath id="pc4e3d8ef1f">
   <rect x="162.602069" y="8.64" width="14.995862" height="54.36"/>
  </clipPath>
  <clipPath id="p705bf3072c">
   <rect x="179.589352" y="8.64" width="13.421297" height="54.36"/>
  </clipPath>
  <clipPath id="p912f3a06b9">
   <rect x="210.6" y="9.603482" width="16.2" height="52.433036"/>
  </clipPath>
  <clipPath id="p16410254d5">
   <rect x="226.8" y="8.881927" width="16.2" height="53.876147"/>
  </clipPath>
  <clipPath id="pbfc479546e">
   <rect x="243" y="10.777356" width="16.2" height="50.085288"/>
  </clipPath>
  <clipPath id="pe5f5210d96">
   <rect x="260.964248" y="8.64" width="12.671503" height="54.36"/>
  </clipPath>
  <clipPath id="pc429aae916">
   <rect x="280.800745" y="8.64" width="5.39851" height="54.36"/>
  </clipPath>
  <clipPath id="p0509c4d07d">
   <rect x="296.925766" y="8.64" width="5.548469" height="54.36"/>
  </clipPath>
  <clipPath id="p33e9c1d09a">
   <rect x="324" y="17.806196" width="16.2" height="36.027607"/>
  </clipPath>
  <clipPath id="pe069d2b4a4">
   <rect x="340.2" y="10.777356" width="16.2" height="50.085288"/>
  </clipPath>
  <clipPath id="p40de13eb2d">
   <rect x="356.4" y="9.603482" width="16.2" height="52.433036"/>
  </clipPath>
  <clipPath id="p35a506c322">
   <rect x="372.6" y="8.881927" width="16.2" height="53.876147"/>
  </clipPath>
  <clipPath id="p38e6137bb7">
   <rect x="390.582993" y="8.64" width="12.634014" height="54.36"/>
  </clipPath>
  <clipPath id="pe704270950">
   <rect x="422.982993" y="8.64" width="12.634014" height="54.36"/>
  </clipPath>
  <clipPath id="p35a7b1d6af">
   <rect x="437.4" y="10.777356" width="16.2" height="50.085288"/>
  </clipPath>
  <clipPath id="p1f55be4b9e">
   <rect x="454.651945" y="8.64" width="14.09611" height="54.36"/>
  </clipPath>
  <clipPath id="p65ebf7b8ae">
   <rect x="471.582993" y="8.64" width="12.634014" height="54.36"/>
  </clipPath>
  <clipPath id="pbc87371133">
   <rect x="491.400745" y="8.64" width="5.39851" height="54.36"/>
  </clipPath>
  <clipPath id="pd24e79d8b5">
   <rect x="520.182993" y="8.64" width="12.634014" height="54.36"/>
  </clipPath>
  <clipPath id="pd3c5426a62">
   <rect x="540.431876" y="8.64" width="4.536248" height="54.36"/>
  </clipPath>
  <clipPath id="pf9f37767d8">
   <rect x="550.8" y="10.777356" width="16.2" height="50.085288"/>
  </clipPath>
  <clipPath id="p1e0351b280">
   <rect x="567.883241" y="8.64" width="14.433517" height="54.36"/>
  </clipPath>
  <clipPath id="p925ccae3ed">
   <rect x="584.083241" y="8.64" width="14.433517" height="54.36"/>
  </clipPath>
  <clipPath id="p7874ea6007">
   <rect x="605.006938" y="8.64" width="4.986124" height="54.36"/>
  </clipPath>
  <clipPath id="pe59cd539d6">
   <rect x="617.364248" y="8.64" width="12.671503" height="54.36"/>
  </clipPath>
  <clipPath id="pfccb80bdbf">
   <rect x="631.8" y="9.426742" width="16.2" height="52.786517"/>
  </clipPath>
  <clipPath id="pe6fc8f7db3">
   <rect x="665.589352" y="8.64" width="13.421297" height="54.36"/>
  </clipPath>
  <clipPath id="pec82a0d46b">
   <rect x="683.138979" y="8.64" width="10.722041" height="54.36"/>
  </clipPath>
  <clipPath id="pc751fefa04">
   <rect x="696.6" y="8.881927" width="16.2" height="53.876147"/>
  </clipPath>
  <clipPath id="pfa3c787267">
   <rect x="730.389352" y="8.64" width="13.421297" height="54.36"/>
  </clipPath>
  <clipPath id="p2d2af59262">
   <rect x="745.2" y="10.777356" width="16.2" height="50.085288"/>
  </clipPath>
  <clipPath id="p9a54ebc0ce">
   <rect x="765.319903" y="8.64" width="8.360193" height="54.36"/>
  </clipPath>
 </defs>
</svg>
