<?xml version="1.0" encoding="utf-8" standalone="no"?>
<!DOCTYPE svg PUBLIC "-//W3C//DTD SVG 1.1//EN"
  "http://www.w3.org/Graphics/SVG/1.1/DTD/svg11.dtd">
<svg xmlns:xlink="http://www.w3.org/1999/xlink" width="486pt" height="72pt" viewBox="0 0 486 72" xmlns="http://www.w3.org/2000/svg" version="1.1">
 <metadata>
  <rdf:RDF xmlns:dc="http://purl.org/dc/elements/1.1/" xmlns:cc="http://creativecommons.org/ns#" xmlns:rdf="http://www.w3.org/1999/02/22-rdf-syntax-ns#">
   <cc:Work>
    <dc:type rdf:resource="http://purl.org/dc/dcmitype/StillImage"/>
    <dc:date>2023-12-21T12:09:51.190774</dc:date>
    <dc:format>image/svg+xml</dc:format>
    <dc:creator>
     <cc:Agent>
      <dc:title>Matplotlib v3.5.1, https://matplotlib.org/</dc:title>
     </cc:Agent>
    </dc:creator>
   </cc:Work>
  </rdf:RDF>
 </metadata>
 <defs>
  <style type="text/css">*{stroke-linejoin: round; stroke-linecap: butt}</style>
 </defs>
 <g id="figure_1">
  <g id="patch_1">
   <path d="M 0 72 
L 486 72 
L 486 0 
L 0 0 
z
" style="fill: #8fff9f"/>
  </g>
  <g id="axes_1">
   <g id="patch_2">
    <path d="M 13.356735 34.365306 
Q 13.356735 34.365306 12.860816 34.365306 
Q 12.067347 34.365306 10.579592 34.067755 
Q 9.091837 33.770204 8.298367 33.770204 
Q 5.521224 33.770204 3.587143 35.224898 
Q 1.653061 36.679592 1.653061 39.423673 
Q 1.653061 40.94449 3.140816 42.399184 
Q 4.628571 43.853878 6.562653 44.663878 
Q 8.496735 45.473878 9.98449 45.473878 
Q 10.910204 45.473878 11.60449 45.110204 
Q 12.298776 44.746531 13.042653 44.118367 
Q 13.786531 43.490204 14.348571 43.192653 
L 14.546939 42.696735 
" clip-path="url(#pc3e741b446)" style="fill: none; stroke: #000000; stroke-linejoin: miter"/>
   </g>
  </g>
  <g id="axes_2">
   <g id="patch_3">
    <path d="M 19.688772 35.145186 
Q 19.688772 35.145186 19.688772 35.595062 
Q 19.688772 36.269876 19.576303 37.619503 
Q 19.463834 38.969131 19.463834 39.643945 
Q 19.463834 41.930814 20.700993 43.599103 
Q 21.938152 45.267393 24.075062 45.267393 
Q 25.462179 45.154924 26.230717 43.917766 
Q 26.999255 42.680607 27.149214 41.237255 
Q 27.299172 39.793903 27.5616 37.9944 
Q 27.824028 36.194897 28.236414 35.370124 
Q 28.386372 35.070207 28.386372 35.670041 
Q 28.386372 36.269876 28.123945 38.706703 
Q 27.899007 41.031062 27.899007 41.555917 
Q 27.749048 42.643117 28.086455 43.767807 
Q 28.423862 44.892497 29.136166 45.6048 
" clip-path="url(#pa5df567d4f)" style="fill: none; stroke: #000000; stroke-linejoin: miter"/>
   </g>
  </g>
  <g id="axes_3">
   <g id="patch_4">
    <path d="M 35.720069 39.868883 
L 35.720069 39.419007 
Q 35.720069 37.769462 37.463338 36.682262 
Q 39.206607 35.595062 40.893641 35.595062 
Q 43.105531 35.595062 44.473903 36.794731 
Q 45.842276 37.9944 45.842276 40.20629 
Q 45.842276 42.30571 44.024028 43.336676 
Q 42.205779 44.367641 39.99389 44.367641 
Q 39.319076 44.367641 38.812966 44.255172 
Q 38.306855 44.142703 37.688276 43.917766 
Q 37.069697 43.692828 36.619821 43.580359 
L 35.495131 42.568138 
M 35.157724 36.832221 
Q 35.6076 38.444276 35.870028 40.262524 
Q 36.132455 42.080772 36.18869 43.749062 
Q 36.244924 45.417352 36.282414 47.27309 
Q 36.319903 49.128828 36.282414 50.778372 
L 36.169945 57.863917 
" clip-path="url(#pe682d30735)" style="fill: none; stroke: #000000; stroke-linejoin: miter"/>
   </g>
  </g>
  <g id="axes_4"/>
  <g id="axes_5">
   <g id="patch_5">
    <path d="M 76.1616 35.032717 
Q 75.11189 34.582841 74.137159 34.69531 
Q 71.100497 35.032717 69.188524 36.701007 
Q 67.276552 38.369297 67.276552 41.330979 
Q 67.276552 43.917766 69.282248 45.6048 
Q 71.287945 47.291834 73.912221 47.291834 
Q 76.274069 47.291834 77.398759 45.361117 
Q 78.523448 43.4304 78.523448 40.881103 
Q 78.523448 39.643945 78.111062 38.706703 
Q 77.698676 37.769462 77.173821 37.300841 
Q 76.648966 36.832221 75.899172 36.119917 
Q 75.149379 35.407614 74.699503 34.69531 
L 73.462345 34.245434 
" clip-path="url(#pcf38f1d85c)" style="fill: none; stroke: #000000; stroke-linejoin: miter"/>
   </g>
  </g>
  <g id="axes_6">
   <g id="patch_6">
    <path d="M 82.784141 38.85304 
L 83.212335 38.85304 
Q 84.03304 38.85304 84.996476 38.745991 
Q 85.959912 38.638943 87.119604 38.460529 
Q 88.279295 38.282115 88.885903 38.210749 
L 95.415859 35.427489 
M 95.094714 25.793128 
Q 94.809251 25.721762 93.774449 25.275727 
Q 92.739648 24.829692 92.097357 24.93674 
Q 91.455066 24.93674 90.937665 25.150837 
Q 90.420264 25.364934 90.081278 25.793128 
Q 89.742291 26.221322 89.47467 26.685198 
Q 89.207048 27.149075 89.064317 27.862731 
Q 88.921586 28.576388 88.814537 29.129471 
Q 88.707489 29.682555 88.689648 30.50326 
Q 88.671806 31.323965 88.653965 31.77 
Q 88.636123 32.216035 88.653965 32.965374 
Q 88.671806 33.714714 88.671806 33.928811 
Q 88.671806 36.605022 89.367621 41.850396 
Q 90.063436 47.095771 90.063436 49.771982 
Q 89.99207 50.057445 89.956388 50.681894 
Q 89.920705 51.306344 89.813656 51.805903 
Q 89.706608 52.305463 89.421145 52.555242 
" clip-path="url(#p3e177cd590)" style="fill: none; stroke: #000000; stroke-linejoin: miter"/>
   </g>
  </g>
  <g id="axes_7"/>
  <g id="axes_8">
   <g id="patch_7">
    <path d="M 116.663834 37.95691 
L 117.338648 37.95691 
Q 118.050952 37.95691 118.838234 37.881931 
Q 119.625517 37.806952 120.581503 37.675738 
Q 121.53749 37.544524 122.062345 37.507034 
L 126.336166 35.82 
M 122.287283 30.42149 
L 122.287283 31.43371 
Q 122.287283 33.383172 121.612469 37.207117 
Q 120.937655 41.031062 120.937655 43.018014 
Q 120.937655 43.805297 120.937655 44.105214 
Q 120.937655 44.405131 121.031379 45.042455 
Q 121.125103 45.679779 121.312552 45.960952 
Q 121.5 46.242124 121.893641 46.485807 
Q 122.287283 46.72949 122.849628 46.72949 
Q 122.962097 46.692 123.280759 46.72949 
Q 123.599421 46.766979 123.786869 46.710745 
Q 123.974317 46.65451 123.974317 46.392083 
" clip-path="url(#p83f979f65c)" style="fill: none; stroke: #000000; stroke-linejoin: miter"/>
   </g>
  </g>
  <g id="axes_9">
   <g id="patch_8">
    <path d="M 131.457798 38.160826 
Q 134.430275 39.535596 139.149083 39.721376 
Q 140.672477 39.721376 141.359862 38.550963 
Q 142.047248 37.38055 142.047248 35.82 
Q 142.047248 35.299817 141.954358 34.909679 
Q 141.861468 34.519541 141.619954 34.296606 
Q 141.37844 34.07367 141.211239 33.943624 
Q 141.044037 33.813578 140.598165 33.757844 
Q 140.152294 33.70211 139.947936 33.683532 
Q 139.743578 33.664954 139.167661 33.683532 
Q 138.591743 33.70211 138.368807 33.70211 
Q 136.325229 33.70211 134.838991 35.578486 
Q 133.352752 37.454862 133.352752 39.609908 
Q 133.352752 42.619541 135.284862 44.570229 
Q 137.216972 46.520917 140.263761 46.520917 
Q 142.418807 46.818165 143.942202 44.29156 
" clip-path="url(#pb06899ced6)" style="fill: none; stroke: #000000; stroke-linejoin: miter"/>
   </g>
  </g>
  <g id="axes_10">
   <g id="patch_9">
    <path d="M 159.443923 36.441748 
Q 158.234968 35.094627 154.262687 35.094627 
Q 152.742857 35.094627 151.965672 35.146439 
Q 151.188486 35.198252 150.18678 35.440043 
Q 149.185075 35.681834 148.701493 36.182687 
Q 148.21791 36.683539 147.872495 37.616162 
Q 147.527079 38.548785 147.527079 39.964989 
Q 147.527079 42.037484 148.943284 43.280981 
Q 150.359488 44.524478 152.293817 44.524478 
Q 154.953518 44.524478 157.716844 38.721493 
Q 159.063966 35.854542 159.063966 35.82 
Q 159.409382 35.578209 159.443923 36.441748 
Q 159.443923 37.512537 159.858422 40.362217 
Q 160.272921 43.211898 160.272921 44.524478 
" clip-path="url(#pd260382149)" style="fill: none; stroke: #000000; stroke-linejoin: miter"/>
   </g>
  </g>
  <g id="axes_11"/>
  <g id="axes_12">
   <g id="patch_10">
    <path d="M 186.918579 29.071862 
Q 186.543683 29.146841 186.412469 29.577972 
Q 186.281255 30.009103 186.356234 30.42149 
Q 186.356234 30.571448 186.393724 30.702662 
Q 186.431214 30.833876 186.487448 30.89011 
Q 186.543683 30.946345 186.599917 31.040069 
Q 186.656152 31.133793 186.693641 31.208772 
L 186.80611 29.859145 
M 186.80611 34.020497 
Q 185.906359 39.006621 185.681421 42.793076 
L 186.131297 45.379862 
L 186.468703 46.054676 
" clip-path="url(#p7edaec19e9)" style="fill: none; stroke: #000000; stroke-linejoin: miter"/>
   </g>
  </g>
  <g id="axes_13">
   <g id="patch_11">
    <path d="M 198.038731 37.282097 
L 198.038731 37.844441 
Q 198.301159 39.868883 198.338648 41.312234 
Q 198.376138 42.755586 198.282414 44.667559 
Q 198.18869 46.579531 198.18869 48.191586 
L 198.263669 39.643945 
Q 198.263669 38.144359 199.856979 37.507034 
Q 201.45029 36.86971 202.874897 37.282097 
Q 204.786869 37.844441 205.705366 39.04411 
Q 206.623862 40.243779 206.680097 41.668386 
Q 206.736331 43.092993 206.773821 44.817517 
Q 206.81131 46.542041 206.961269 48.191586 
" clip-path="url(#p08656483d4)" style="fill: none; stroke: #000000; stroke-linejoin: miter"/>
   </g>
  </g>
  <g id="axes_14"/>
  <g id="axes_15">
   <g id="patch_12">
    <path d="M 230.063834 37.95691 
L 230.738648 37.95691 
Q 231.450952 37.95691 232.238234 37.881931 
Q 233.025517 37.806952 233.981503 37.675738 
Q 234.93749 37.544524 235.462345 37.507034 
L 239.736166 35.82 
M 235.687283 30.42149 
L 235.687283 31.43371 
Q 235.687283 33.383172 235.012469 37.207117 
Q 234.337655 41.031062 234.337655 43.018014 
Q 234.337655 43.805297 234.337655 44.105214 
Q 234.337655 44.405131 234.431379 45.042455 
Q 234.525103 45.679779 234.712552 45.960952 
Q 234.9 46.242124 235.293641 46.485807 
Q 235.687283 46.72949 236.249628 46.72949 
Q 236.362097 46.692 236.680759 46.72949 
Q 236.999421 46.766979 237.186869 46.710745 
Q 237.374317 46.65451 237.374317 46.392083 
" clip-path="url(#p21ccc0f0ec)" style="fill: none; stroke: #000000; stroke-linejoin: miter"/>
   </g>
  </g>
  <g id="axes_16">
   <g id="patch_13">
    <path d="M 247.613462 35.932469 
Q 248.213297 35.257655 249.206772 34.826524 
Q 250.200248 34.395393 251.1 34.470372 
Q 251.737324 34.470372 252.22469 34.639076 
Q 252.712055 34.807779 253.030717 34.995228 
Q 253.349379 35.182676 253.574317 35.670041 
Q 253.799255 36.157407 253.911724 36.419834 
Q 254.024193 36.682262 254.080428 37.375821 
Q 254.136662 38.069379 254.155407 38.331807 
Q 254.174152 38.594234 254.155407 39.419007 
Q 254.136662 40.243779 254.136662 40.431228 
Q 254.136662 41.368469 253.967959 43.242952 
Q 253.799255 45.117434 253.799255 46.054676 
Q 253.799255 46.467062 253.85549 46.823214 
Q 253.911724 47.179366 254.005448 47.610497 
Q 254.099172 48.041628 254.136662 48.304055 
L 254.586538 48.528993 
M 248.063338 23.111007 
Q 248.288276 24.798041 248.288276 29.971614 
L 248.288276 42.3432 
L 247.950869 46.841959 
L 247.725931 47.74171 
" clip-path="url(#p98cebf6660)" style="fill: none; stroke: #000000; stroke-linejoin: miter"/>
   </g>
  </g>
  <g id="axes_17">
   <g id="patch_14">
    <path d="M 261.057798 38.160826 
Q 264.030275 39.535596 268.749083 39.721376 
Q 270.272477 39.721376 270.959862 38.550963 
Q 271.647248 37.38055 271.647248 35.82 
Q 271.647248 35.299817 271.554358 34.909679 
Q 271.461468 34.519541 271.219954 34.296606 
Q 270.97844 34.07367 270.811239 33.943624 
Q 270.644037 33.813578 270.198165 33.757844 
Q 269.752294 33.70211 269.547936 33.683532 
Q 269.343578 33.664954 268.767661 33.683532 
Q 268.191743 33.70211 267.968807 33.70211 
Q 265.925229 33.70211 264.438991 35.578486 
Q 262.952752 37.454862 262.952752 39.609908 
Q 262.952752 42.619541 264.884862 44.570229 
Q 266.816972 46.520917 269.863761 46.520917 
Q 272.018807 46.818165 273.542202 44.29156 
" clip-path="url(#p65d580b25b)" style="fill: none; stroke: #000000; stroke-linejoin: miter"/>
   </g>
  </g>
  <g id="axes_18"/>
  <g id="axes_19">
   <g id="patch_15">
    <path d="M 293.408036 34.879821 
Q 293.914286 36.073125 294.203571 42.871339 
Q 294.348214 46.632054 294.6375 46.632054 
Q 294.673661 46.632054 294.709821 46.595893 
Q 295.216071 46.017321 295.270312 44.588973 
Q 295.324554 43.160625 295.107589 41.750357 
Q 294.890625 40.340089 294.6375 38.712857 
Q 294.384375 37.085625 294.384375 36.398571 
Q 294.384375 35.169107 294.764063 33.939643 
Q 295.14375 32.710179 296.120089 32.710179 
Q 297.349554 32.710179 298.072768 34.355491 
Q 298.795982 36.000804 298.958705 37.971562 
Q 299.121429 39.942321 299.229911 41.587634 
Q 299.338393 43.232946 299.483036 43.232946 
Q 299.627679 43.232946 299.71808 41.497232 
Q 299.808482 39.761518 299.935045 37.700357 
Q 300.061607 35.639196 300.784821 33.903482 
Q 301.508036 32.167768 302.7375 32.167768 
Q 304.292411 33.035625 304.961384 34.771339 
Q 305.630357 36.507054 305.594196 38.188527 
Q 305.558036 39.87 305.576116 42.057723 
Q 305.594196 44.245446 305.991964 45.511071 
" clip-path="url(#p7739f816e4)" style="fill: none; stroke: #000000; stroke-linejoin: miter"/>
   </g>
  </g>
  <g id="axes_20">
   <g id="patch_16">
    <path d="M 319.1616 35.032717 
Q 318.11189 34.582841 317.137159 34.69531 
Q 314.100497 35.032717 312.188524 36.701007 
Q 310.276552 38.369297 310.276552 41.330979 
Q 310.276552 43.917766 312.282248 45.6048 
Q 314.287945 47.291834 316.912221 47.291834 
Q 319.274069 47.291834 320.398759 45.361117 
Q 321.523448 43.4304 321.523448 40.881103 
Q 321.523448 39.643945 321.111062 38.706703 
Q 320.698676 37.769462 320.173821 37.300841 
Q 319.648966 36.832221 318.899172 36.119917 
Q 318.149379 35.407614 317.699503 34.69531 
L 316.462345 34.245434 
" clip-path="url(#p86e732f53b)" style="fill: none; stroke: #000000; stroke-linejoin: miter"/>
   </g>
  </g>
  <g id="axes_21">
   <g id="patch_17">
    <path d="M 328.613462 32.783338 
Q 329.138317 34.507862 329.269531 36.457324 
Q 329.400745 38.406786 329.325766 40.956083 
Q 329.250786 43.505379 329.288276 44.705048 
L 329.400745 46.054676 
L 329.400745 45.829738 
Q 329.400745 44.667559 329.119572 42.30571 
Q 328.8384 39.943862 328.8384 38.744193 
Q 328.8384 36.419834 329.850621 34.882759 
Q 330.862841 33.345683 332.887283 33.345683 
Q 333.599586 33.345683 333.936993 33.626855 
Q 334.2744 33.908028 334.536828 34.432883 
Q 334.799255 34.957738 335.136662 35.257655 
L 335.586538 36.832221 
" clip-path="url(#pa6fe61948d)" style="fill: none; stroke: #000000; stroke-linejoin: miter"/>
   </g>
  </g>
  <g id="axes_22">
   <g id="patch_18">
    <path d="M 343.838731 37.282097 
L 343.838731 37.844441 
Q 344.101159 39.868883 344.138648 41.312234 
Q 344.176138 42.755586 344.082414 44.667559 
Q 343.98869 46.579531 343.98869 48.191586 
L 344.063669 39.643945 
Q 344.063669 38.144359 345.656979 37.507034 
Q 347.25029 36.86971 348.674897 37.282097 
Q 350.586869 37.844441 351.505366 39.04411 
Q 352.423862 40.243779 352.480097 41.668386 
Q 352.536331 43.092993 352.573821 44.817517 
Q 352.61131 46.542041 352.761269 48.191586 
" clip-path="url(#p289faa96c0)" style="fill: none; stroke: #000000; stroke-linejoin: miter"/>
   </g>
  </g>
  <g id="axes_23">
   <g id="patch_19">
    <path d="M 365.118579 29.071862 
Q 364.743683 29.146841 364.612469 29.577972 
Q 364.481255 30.009103 364.556234 30.42149 
Q 364.556234 30.571448 364.593724 30.702662 
Q 364.631214 30.833876 364.687448 30.89011 
Q 364.743683 30.946345 364.799917 31.040069 
Q 364.856152 31.133793 364.893641 31.208772 
L 365.00611 29.859145 
M 365.00611 34.020497 
Q 364.106359 39.006621 363.881421 42.793076 
L 364.331297 45.379862 
L 364.668703 46.054676 
" clip-path="url(#ped3291ec90)" style="fill: none; stroke: #000000; stroke-linejoin: miter"/>
   </g>
  </g>
  <g id="axes_24">
   <g id="patch_20">
    <path d="M 376.238731 37.282097 
L 376.238731 37.844441 
Q 376.501159 39.868883 376.538648 41.312234 
Q 376.576138 42.755586 376.482414 44.667559 
Q 376.38869 46.579531 376.38869 48.191586 
L 376.463669 39.643945 
Q 376.463669 38.144359 378.056979 37.507034 
Q 379.65029 36.86971 381.074897 37.282097 
Q 382.986869 37.844441 383.905366 39.04411 
Q 384.823862 40.243779 384.880097 41.668386 
Q 384.936331 43.092993 384.973821 44.817517 
Q 385.01131 46.542041 385.161269 48.191586 
" clip-path="url(#p775d44d9b0)" style="fill: none; stroke: #000000; stroke-linejoin: miter"/>
   </g>
  </g>
  <g id="axes_25">
   <g id="patch_21">
    <path d="M 401.687191 39.096404 
Q 401.43236 39.023596 400.46764 38.623146 
Q 399.502921 38.222697 398.84764 38.077079 
Q 398.19236 37.931461 397.537079 38.00427 
Q 394.915955 38.00427 393.277753 40.388764 
Q 391.639551 42.773258 391.639551 45.430787 
Q 391.639551 47.068989 396.881798 47.068989 
Q 398.447191 47.068989 399.775955 45.558202 
Q 401.104719 44.047416 401.778202 42.172584 
Q 402.451685 40.297753 402.451685 38.768764 
Q 402.451685 37.27618 402.415281 36.984944 
L 402.342472 38.077079 
Q 402.342472 38.550337 402.342472 38.987191 
Q 402.378876 40.188539 402.579101 42.281798 
Q 402.779326 44.375056 402.943146 46.049663 
Q 403.106966 47.72427 403.143371 49.872135 
Q 403.179775 52.02 403.015955 53.658202 
Q 402.852135 55.296404 402.287865 56.971011 
Q 401.723596 58.645618 400.795281 59.737753 
Q 399.866966 60.829888 398.265169 61.521573 
Q 396.663371 62.213258 394.515506 62.213258 
Q 392.877303 62.213258 391.785169 61.466966 
Q 390.693034 60.720674 390.693034 59.155281 
Q 390.620225 58.936854 390.656629 58.936854 
Q 390.693034 58.936854 390.802247 58.936854 
Q 390.911461 58.936854 390.911461 58.82764 
" clip-path="url(#p38b175ac59)" style="fill: none; stroke: #000000; stroke-linejoin: miter"/>
   </g>
  </g>
  <g id="axes_26">
   <g id="patch_22">
    <path d="M 412.987531 45.979697 
Q 412.950041 46.017186 412.818828 46.054676 
Q 412.687614 46.092166 412.725103 46.167145 
Q 412.725103 46.579531 413.1 46.579531 
Q 413.437407 46.579531 413.437407 46.092166 
Q 413.512386 45.867228 413.231214 45.754759 
Q 412.950041 45.64229 412.762593 45.754759 
" clip-path="url(#pb8af8eae1c)" style="fill: none; stroke: #000000; stroke-linejoin: miter"/>
   </g>
  </g>
  <g id="axes_27">
   <g id="patch_23">
    <path d="M 429.824855 27.009931 
Q 429.899834 27.347338 429.974814 28.265834 
Q 430.049793 29.184331 430.199752 29.634207 
L 430.124772 31.058814 
M 428.475228 27.309848 
Q 428.437738 27.309848 428.400248 27.534786 
Q 428.437738 27.684745 428.550207 28.828179 
Q 428.662676 29.971614 428.925103 30.533959 
" clip-path="url(#pe29cae441e)" style="fill: none; stroke: #000000; stroke-linejoin: miter"/>
   </g>
  </g>
 </g>
 <defs>
  <clipPath id="pc3e741b446">
   <rect x="0" y="11.850612" width="16.2" height="47.938776"/>
  </clipPath>
  <clipPath id="pa5df567d4f">
   <rect x="17.589352" y="8.64" width="13.421297" height="54.36"/>
  </clipPath>
  <clipPath id="pe682d30735">
   <rect x="33.283241" y="8.64" width="14.433517" height="54.36"/>
  </clipPath>
  <clipPath id="pcf38f1d85c">
   <rect x="65.402069" y="8.64" width="14.995862" height="54.36"/>
  </clipPath>
  <clipPath id="p3e177cd590">
   <rect x="81" y="9.949956" width="16.2" height="51.740088"/>
  </clipPath>
  <clipPath id="p83f979f65c">
   <rect x="114.789352" y="8.64" width="13.421297" height="54.36"/>
  </clipPath>
  <clipPath id="pb06899ced6">
   <rect x="129.6" y="8.881927" width="16.2" height="53.876147"/>
  </clipPath>
  <clipPath id="pd260382149">
   <rect x="145.8" y="10.777356" width="16.2" height="50.085288"/>
  </clipPath>
  <clipPath id="p7edaec19e9">
   <rect x="183.806938" y="8.64" width="4.986124" height="54.36"/>
  </clipPath>
  <clipPath id="p08656483d4">
   <rect x="196.164248" y="8.64" width="12.671503" height="54.36"/>
  </clipPath>
  <clipPath id="p21ccc0f0ec">
   <rect x="228.189352" y="8.64" width="13.421297" height="54.36"/>
  </clipPath>
  <clipPath id="p98cebf6660">
   <rect x="245.738979" y="8.64" width="10.722041" height="54.36"/>
  </clipPath>
  <clipPath id="p65d580b25b">
   <rect x="259.2" y="8.881927" width="16.2" height="53.876147"/>
  </clipPath>
  <clipPath id="p7739f816e4">
   <rect x="291.6" y="9.603482" width="16.2" height="52.433036"/>
  </clipPath>
  <clipPath id="p86e732f53b">
   <rect x="308.402069" y="8.64" width="14.995862" height="54.36"/>
  </clipPath>
  <clipPath id="pa6fe61948d">
   <rect x="326.738979" y="8.64" width="10.722041" height="54.36"/>
  </clipPath>
  <clipPath id="p289faa96c0">
   <rect x="341.964248" y="8.64" width="12.671503" height="54.36"/>
  </clipPath>
  <clipPath id="ped3291ec90">
   <rect x="362.006938" y="8.64" width="4.986124" height="54.36"/>
  </clipPath>
  <clipPath id="p775d44d9b0">
   <rect x="374.364248" y="8.64" width="12.671503" height="54.36"/>
  </clipPath>
  <clipPath id="p38b175ac59">
   <rect x="388.8" y="9.426742" width="16.2" height="52.786517"/>
  </clipPath>
  <clipPath id="pb8af8eae1c">
   <rect x="410.813131" y="8.64" width="4.573738" height="54.36"/>
  </clipPath>
  <clipPath id="pe29cae441e">
   <rect x="426.525766" y="8.64" width="5.548469" height="54.36"/>
  </clipPath>
 </defs>
</svg>
