<?xml version="1.0" encoding="utf-8" standalone="no"?>
<!DOCTYPE svg PUBLIC "-//W3C//DTD SVG 1.1//EN"
  "http://www.w3.org/Graphics/SVG/1.1/DTD/svg11.dtd">
<svg xmlns:xlink="http://www.w3.org/1999/xlink" width="144pt" height="72pt" viewBox="0 0 144 72" xmlns="http://www.w3.org/2000/svg" version="1.1">
 <metadata>
  <rdf:RDF xmlns:dc="http://purl.org/dc/elements/1.1/" xmlns:cc="http://creativecommons.org/ns#" xmlns:rdf="http://www.w3.org/1999/02/22-rdf-syntax-ns#">
   <cc:Work>
    <dc:type rdf:resource="http://purl.org/dc/dcmitype/StillImage"/>
    <dc:date>2023-12-21T12:09:20.346769</dc:date>
    <dc:format>image/svg+xml</dc:format>
    <dc:creator>
     <cc:Agent>
      <dc:title>Matplotlib v3.5.1, https://matplotlib.org/</dc:title>
     </cc:Agent>
    </dc:creator>
   </cc:Work>
  </rdf:RDF>
 </metadata>
 <defs>
  <style type="text/css">*{stroke-linejoin: round; stroke-linecap: butt}</style>
 </defs>
 <g id="figure_1">
  <g id="patch_1">
   <path d="M 0 72 
L 144 72 
L 144 0 
L 0 0 
z
" style="fill: #8fff9f"/>
  </g>
  <g id="axes_1">
   <g id="patch_2">
    <path d="M 11.3616 35.032717 
Q 10.31189 34.582841 9.337159 34.69531 
Q 6.300497 35.032717 4.388524 36.701007 
Q 2.476552 38.369297 2.476552 41.330979 
Q 2.476552 43.917766 4.482248 45.6048 
Q 6.487945 47.291834 9.112221 47.291834 
Q 11.474069 47.291834 12.598759 45.361117 
Q 13.723448 43.4304 13.723448 40.881103 
Q 13.723448 39.643945 13.311062 38.706703 
Q 12.898676 37.769462 12.373821 37.300841 
Q 11.848966 36.832221 11.099172 36.119917 
Q 10.349379 35.407614 9.899503 34.69531 
L 8.662345 34.245434 
" clip-path="url(#pac21910790)" style="fill: none; stroke: #000000; stroke-linejoin: miter"/>
   </g>
  </g>
  <g id="axes_2">
   <g id="patch_3">
    <path d="M 19.688772 35.145186 
Q 19.688772 35.145186 19.688772 35.595062 
Q 19.688772 36.269876 19.576303 37.619503 
Q 19.463834 38.969131 19.463834 39.643945 
Q 19.463834 41.930814 20.700993 43.599103 
Q 21.938152 45.267393 24.075062 45.267393 
Q 25.462179 45.154924 26.230717 43.917766 
Q 26.999255 42.680607 27.149214 41.237255 
Q 27.299172 39.793903 27.5616 37.9944 
Q 27.824028 36.194897 28.236414 35.370124 
Q 28.386372 35.070207 28.386372 35.670041 
Q 28.386372 36.269876 28.123945 38.706703 
Q 27.899007 41.031062 27.899007 41.555917 
Q 27.749048 42.643117 28.086455 43.767807 
Q 28.423862 44.892497 29.136166 45.6048 
" clip-path="url(#p0373aa8e35)" style="fill: none; stroke: #000000; stroke-linejoin: miter"/>
   </g>
  </g>
  <g id="axes_3">
   <g id="patch_4">
    <path d="M 35.663834 37.95691 
L 36.338648 37.95691 
Q 37.050952 37.95691 37.838234 37.881931 
Q 38.625517 37.806952 39.581503 37.675738 
Q 40.53749 37.544524 41.062345 37.507034 
L 45.336166 35.82 
M 41.287283 30.42149 
L 41.287283 31.43371 
Q 41.287283 33.383172 40.612469 37.207117 
Q 39.937655 41.031062 39.937655 43.018014 
Q 39.937655 43.805297 39.937655 44.105214 
Q 39.937655 44.405131 40.031379 45.042455 
Q 40.125103 45.679779 40.312552 45.960952 
Q 40.5 46.242124 40.893641 46.485807 
Q 41.287283 46.72949 41.849628 46.72949 
Q 41.962097 46.692 42.280759 46.72949 
Q 42.599421 46.766979 42.786869 46.710745 
Q 42.974317 46.65451 42.974317 46.392083 
" clip-path="url(#p507fbd0a62)" style="fill: none; stroke: #000000; stroke-linejoin: miter"/>
   </g>
  </g>
  <g id="axes_4">
   <g id="patch_5">
    <path d="M 52.257476 43.917766 
Q 52.557393 44.180193 53.569614 45.154924 
Q 54.581834 46.129655 55.144179 46.560786 
Q 55.706524 46.991917 56.73749 47.385559 
Q 57.768455 47.7792 58.780676 47.629241 
Q 59.45549 47.629241 59.92411 47.404303 
Q 60.392731 47.179366 60.617669 46.879448 
Q 60.842607 46.579531 60.973821 45.979697 
Q 61.105034 45.379862 61.123779 44.967476 
Q 61.142524 44.55509 61.142524 43.805297 
Q 61.142524 42.718097 60.242772 42.043283 
Q 59.343021 41.368469 58.049628 41.031062 
Q 56.756234 40.693655 55.462841 40.300014 
Q 54.169448 39.906372 53.269697 38.987876 
Q 52.369945 38.069379 52.369945 36.607283 
Q 52.369945 36.082428 52.538648 35.726276 
Q 52.707352 35.370124 53.100993 35.145186 
Q 53.494634 34.920248 53.775807 34.807779 
Q 54.056979 34.69531 54.713048 34.639076 
Q 55.369117 34.582841 55.556566 34.582841 
Q 55.744014 34.582841 56.418828 34.582841 
Q 57.618497 34.582841 58.199586 34.995228 
Q 58.780676 35.407614 59.099338 36.026193 
Q 59.418 36.644772 59.680428 36.832221 
" clip-path="url(#p711761c68b)" style="fill: none; stroke: #000000; stroke-linejoin: miter"/>
   </g>
  </g>
  <g id="axes_5">
   <g id="patch_6">
    <path d="M 73.518579 29.071862 
Q 73.143683 29.146841 73.012469 29.577972 
Q 72.881255 30.009103 72.956234 30.42149 
Q 72.956234 30.571448 72.993724 30.702662 
Q 73.031214 30.833876 73.087448 30.89011 
Q 73.143683 30.946345 73.199917 31.040069 
Q 73.256152 31.133793 73.293641 31.208772 
L 73.40611 29.859145 
M 73.40611 34.020497 
Q 72.506359 39.006621 72.281421 42.793076 
L 72.731297 45.379862 
L 73.068703 46.054676 
" clip-path="url(#p586b420c98)" style="fill: none; stroke: #000000; stroke-linejoin: miter"/>
   </g>
  </g>
  <g id="axes_6">
   <g id="patch_7">
    <path d="M 92.699007 39.568966 
Q 91.349379 38.181848 89.1 38.444276 
Q 86.250786 38.444276 85.088607 39.793903 
Q 83.926428 41.143531 83.926428 44.067724 
Q 83.926428 45.56731 85.219821 46.279614 
Q 86.513214 46.991917 88.087779 46.991917 
Q 89.399917 46.991917 90.412138 45.736014 
Q 91.424359 44.48011 92.005448 42.30571 
Q 92.586538 40.13131 92.961434 37.938166 
Q 93.336331 35.745021 93.48629 33.045766 
Q 93.636248 30.34651 93.673738 28.978138 
Q 93.711228 27.609766 93.711228 26.185159 
Q 93.48629 26.260138 93.48629 29.896634 
L 93.48629 44.292662 
L 94.273572 48.229076 
" clip-path="url(#p27eb2f8999)" style="fill: none; stroke: #000000; stroke-linejoin: miter"/>
   </g>
  </g>
  <g id="axes_7">
   <g id="patch_8">
    <path d="M 99.057798 38.160826 
Q 102.030275 39.535596 106.749083 39.721376 
Q 108.272477 39.721376 108.959862 38.550963 
Q 109.647248 37.38055 109.647248 35.82 
Q 109.647248 35.299817 109.554358 34.909679 
Q 109.461468 34.519541 109.219954 34.296606 
Q 108.97844 34.07367 108.811239 33.943624 
Q 108.644037 33.813578 108.198165 33.757844 
Q 107.752294 33.70211 107.547936 33.683532 
Q 107.343578 33.664954 106.767661 33.683532 
Q 106.191743 33.70211 105.968807 33.70211 
Q 103.925229 33.70211 102.438991 35.578486 
Q 100.952752 37.454862 100.952752 39.609908 
Q 100.952752 42.619541 102.884862 44.570229 
Q 104.816972 46.520917 107.863761 46.520917 
Q 110.018807 46.818165 111.542202 44.29156 
" clip-path="url(#pd7bc525e94)" style="fill: none; stroke: #000000; stroke-linejoin: miter"/>
   </g>
  </g>
  <g id="axes_8">
   <g id="patch_9">
    <path d="M 121.387531 45.979697 
Q 121.350041 46.017186 121.218828 46.054676 
Q 121.087614 46.092166 121.125103 46.167145 
Q 121.125103 46.579531 121.5 46.579531 
Q 121.837407 46.579531 121.837407 46.092166 
Q 121.912386 45.867228 121.631214 45.754759 
Q 121.350041 45.64229 121.162593 45.754759 
" clip-path="url(#pec4adf677c)" style="fill: none; stroke: #000000; stroke-linejoin: miter"/>
   </g>
  </g>
 </g>
 <defs>
  <clipPath id="pac21910790">
   <rect x="0.602069" y="8.64" width="14.995862" height="54.36"/>
  </clipPath>
  <clipPath id="p0373aa8e35">
   <rect x="17.589352" y="8.64" width="13.421297" height="54.36"/>
  </clipPath>
  <clipPath id="p507fbd0a62">
   <rect x="33.789352" y="8.64" width="13.421297" height="54.36"/>
  </clipPath>
  <clipPath id="p711761c68b">
   <rect x="50.382993" y="8.64" width="12.634014" height="54.36"/>
  </clipPath>
  <clipPath id="p586b420c98">
   <rect x="70.406938" y="8.64" width="4.986124" height="54.36"/>
  </clipPath>
  <clipPath id="p27eb2f8999">
   <rect x="82.051945" y="8.64" width="14.09611" height="54.36"/>
  </clipPath>
  <clipPath id="pd7bc525e94">
   <rect x="97.2" y="8.881927" width="16.2" height="53.876147"/>
  </clipPath>
  <clipPath id="pec4adf677c">
   <rect x="119.213131" y="8.64" width="4.573738" height="54.36"/>
  </clipPath>
 </defs>
</svg>
