<?xml version="1.0" encoding="utf-8" standalone="no"?>
<!DOCTYPE svg PUBLIC "-//W3C//DTD SVG 1.1//EN"
  "http://www.w3.org/Graphics/SVG/1.1/DTD/svg11.dtd">
<svg xmlns:xlink="http://www.w3.org/1999/xlink" width="918pt" height="72pt" viewBox="0 0 918 72" xmlns="http://www.w3.org/2000/svg" version="1.1">
 <metadata>
  <rdf:RDF xmlns:dc="http://purl.org/dc/elements/1.1/" xmlns:cc="http://creativecommons.org/ns#" xmlns:rdf="http://www.w3.org/1999/02/22-rdf-syntax-ns#">
   <cc:Work>
    <dc:type rdf:resource="http://purl.org/dc/dcmitype/StillImage"/>
    <dc:date>2023-12-21T12:09:43.432496</dc:date>
    <dc:format>image/svg+xml</dc:format>
    <dc:creator>
     <cc:Agent>
      <dc:title>Matplotlib v3.5.1, https://matplotlib.org/</dc:title>
     </cc:Agent>
    </dc:creator>
   </cc:Work>
  </rdf:RDF>
 </metadata>
 <defs>
  <style type="text/css">*{stroke-linejoin: round; stroke-linecap: butt}</style>
 </defs>
 <g id="figure_1">
  <g id="patch_1">
   <path d="M 0 72 
L 918 72 
L 918 0 
L 0 0 
z
" style="fill: #8fff9f"/>
  </g>
  <g id="axes_1">
   <g id="patch_2">
    <path d="M 7.706359 28.621986 
Q 7.931297 30.34651 8.006276 32.146014 
Q 8.081255 33.945517 8.06251 36.551048 
Q 8.043766 39.156579 8.043766 40.093821 
Q 8.043766 40.13131 8.268703 45.829738 
L 8.493641 46.841959 
" clip-path="url(#p62fd0fb9c7)" style="fill: none; stroke: #000000; stroke-linejoin: miter"/>
   </g>
  </g>
  <g id="axes_2">
   <g id="patch_3">
    <path d="M 18.057798 38.160826 
Q 21.030275 39.535596 25.749083 39.721376 
Q 27.272477 39.721376 27.959862 38.550963 
Q 28.647248 37.38055 28.647248 35.82 
Q 28.647248 35.299817 28.554358 34.909679 
Q 28.461468 34.519541 28.219954 34.296606 
Q 27.97844 34.07367 27.811239 33.943624 
Q 27.644037 33.813578 27.198165 33.757844 
Q 26.752294 33.70211 26.547936 33.683532 
Q 26.343578 33.664954 25.767661 33.683532 
Q 25.191743 33.70211 24.968807 33.70211 
Q 22.925229 33.70211 21.438991 35.578486 
Q 19.952752 37.454862 19.952752 39.609908 
Q 19.952752 42.619541 21.884862 44.570229 
Q 23.816972 46.520917 26.863761 46.520917 
Q 29.018807 46.818165 30.542202 44.29156 
" clip-path="url(#p0f8a742c23)" style="fill: none; stroke: #000000; stroke-linejoin: miter"/>
   </g>
  </g>
  <g id="axes_3">
   <g id="patch_4">
    <path d="M 46.043923 36.441748 
Q 44.834968 35.094627 40.862687 35.094627 
Q 39.342857 35.094627 38.565672 35.146439 
Q 37.788486 35.198252 36.78678 35.440043 
Q 35.785075 35.681834 35.301493 36.182687 
Q 34.81791 36.683539 34.472495 37.616162 
Q 34.127079 38.548785 34.127079 39.964989 
Q 34.127079 42.037484 35.543284 43.280981 
Q 36.959488 44.524478 38.893817 44.524478 
Q 41.553518 44.524478 44.316844 38.721493 
Q 45.663966 35.854542 45.663966 35.82 
Q 46.009382 35.578209 46.043923 36.441748 
Q 46.043923 37.512537 46.458422 40.362217 
Q 46.872921 43.211898 46.872921 44.524478 
" clip-path="url(#pf6982732be)" style="fill: none; stroke: #000000; stroke-linejoin: miter"/>
   </g>
  </g>
  <g id="axes_4">
   <g id="patch_5">
    <path d="M 52.426179 34.807779 
Q 54.038234 36.719752 55.331628 39.6252 
Q 56.625021 42.530648 56.924938 45.154924 
Q 57.974648 43.655338 58.893145 38.819172 
Q 59.811641 33.983007 60.973821 32.108524 
" clip-path="url(#p22909913e5)" style="fill: none; stroke: #000000; stroke-linejoin: miter"/>
   </g>
  </g>
  <g id="axes_5">
   <g id="patch_6">
    <path d="M 73.518579 29.071862 
Q 73.143683 29.146841 73.012469 29.577972 
Q 72.881255 30.009103 72.956234 30.42149 
Q 72.956234 30.571448 72.993724 30.702662 
Q 73.031214 30.833876 73.087448 30.89011 
Q 73.143683 30.946345 73.199917 31.040069 
Q 73.256152 31.133793 73.293641 31.208772 
L 73.40611 29.859145 
M 73.40611 34.020497 
Q 72.506359 39.006621 72.281421 42.793076 
L 72.731297 45.379862 
L 73.068703 46.054676 
" clip-path="url(#p30bfecd29e)" style="fill: none; stroke: #000000; stroke-linejoin: miter"/>
   </g>
  </g>
  <g id="axes_6">
   <g id="patch_7">
    <path d="M 84.638731 37.282097 
L 84.638731 37.844441 
Q 84.901159 39.868883 84.938648 41.312234 
Q 84.976138 42.755586 84.882414 44.667559 
Q 84.78869 46.579531 84.78869 48.191586 
L 84.863669 39.643945 
Q 84.863669 38.144359 86.456979 37.507034 
Q 88.05029 36.86971 89.474897 37.282097 
Q 91.386869 37.844441 92.305366 39.04411 
Q 93.223862 40.243779 93.280097 41.668386 
Q 93.336331 43.092993 93.373821 44.817517 
Q 93.41131 46.542041 93.561269 48.191586 
" clip-path="url(#p3efdbe4973)" style="fill: none; stroke: #000000; stroke-linejoin: miter"/>
   </g>
  </g>
  <g id="axes_7">
   <g id="patch_8">
    <path d="M 110.087191 39.096404 
Q 109.83236 39.023596 108.86764 38.623146 
Q 107.902921 38.222697 107.24764 38.077079 
Q 106.59236 37.931461 105.937079 38.00427 
Q 103.315955 38.00427 101.677753 40.388764 
Q 100.039551 42.773258 100.039551 45.430787 
Q 100.039551 47.068989 105.281798 47.068989 
Q 106.847191 47.068989 108.175955 45.558202 
Q 109.504719 44.047416 110.178202 42.172584 
Q 110.851685 40.297753 110.851685 38.768764 
Q 110.851685 37.27618 110.815281 36.984944 
L 110.742472 38.077079 
Q 110.742472 38.550337 110.742472 38.987191 
Q 110.778876 40.188539 110.979101 42.281798 
Q 111.179326 44.375056 111.343146 46.049663 
Q 111.506966 47.72427 111.543371 49.872135 
Q 111.579775 52.02 111.415955 53.658202 
Q 111.252135 55.296404 110.687865 56.971011 
Q 110.123596 58.645618 109.195281 59.737753 
Q 108.266966 60.829888 106.665169 61.521573 
Q 105.063371 62.213258 102.915506 62.213258 
Q 101.277303 62.213258 100.185169 61.466966 
Q 99.093034 60.720674 99.093034 59.155281 
Q 99.020225 58.936854 99.056629 58.936854 
Q 99.093034 58.936854 99.202247 58.936854 
Q 99.311461 58.936854 99.311461 58.82764 
" clip-path="url(#p5172a72d24)" style="fill: none; stroke: #000000; stroke-linejoin: miter"/>
   </g>
  </g>
  <g id="axes_8">
   <g id="patch_9">
    <path d="M 120.787697 39.981352 
Q 121.799917 40.956083 122.137324 42.905545 
Q 122.324772 43.955255 121.912386 46.167145 
L 120.675228 47.629241 
" clip-path="url(#pd852a28738)" style="fill: none; stroke: #000000; stroke-linejoin: miter"/>
   </g>
  </g>
  <g id="axes_9"/>
  <g id="axes_10">
   <g id="patch_10">
    <path d="M 154.424855 27.009931 
Q 154.499834 27.347338 154.574814 28.265834 
Q 154.649793 29.184331 154.799752 29.634207 
L 154.724772 31.058814 
M 153.075228 27.309848 
Q 153.037738 27.309848 153.000248 27.534786 
Q 153.037738 27.684745 153.150207 28.828179 
Q 153.262676 29.971614 153.525103 30.533959 
" clip-path="url(#p99f141e46e)" style="fill: none; stroke: #000000; stroke-linejoin: miter"/>
   </g>
  </g>
  <g id="axes_11">
   <g id="patch_11">
    <path d="M 165.638731 37.282097 
L 165.638731 37.844441 
Q 165.901159 39.868883 165.938648 41.312234 
Q 165.976138 42.755586 165.882414 44.667559 
Q 165.78869 46.579531 165.78869 48.191586 
L 165.863669 39.643945 
Q 165.863669 38.144359 167.456979 37.507034 
Q 169.05029 36.86971 170.474897 37.282097 
Q 172.386869 37.844441 173.305366 39.04411 
Q 174.223862 40.243779 174.280097 41.668386 
Q 174.336331 43.092993 174.373821 44.817517 
Q 174.41131 46.542041 174.561269 48.191586 
" clip-path="url(#p58b1e1e81d)" style="fill: none; stroke: #000000; stroke-linejoin: miter"/>
   </g>
  </g>
  <g id="axes_12">
   <g id="patch_12">
    <path d="M 189.5616 35.032717 
Q 188.51189 34.582841 187.537159 34.69531 
Q 184.500497 35.032717 182.588524 36.701007 
Q 180.676552 38.369297 180.676552 41.330979 
Q 180.676552 43.917766 182.682248 45.6048 
Q 184.687945 47.291834 187.312221 47.291834 
Q 189.674069 47.291834 190.798759 45.361117 
Q 191.923448 43.4304 191.923448 40.881103 
Q 191.923448 39.643945 191.511062 38.706703 
Q 191.098676 37.769462 190.573821 37.300841 
Q 190.048966 36.832221 189.299172 36.119917 
Q 188.549379 35.407614 188.099503 34.69531 
L 186.862345 34.245434 
" clip-path="url(#p5ff6e01546)" style="fill: none; stroke: #000000; stroke-linejoin: miter"/>
   </g>
  </g>
  <g id="axes_13">
   <g id="patch_13">
    <path d="M 196.116102 36.437797 
L 197.351695 44.778051 
Q 197.454661 45.567458 197.454661 45.60178 
Q 197.454661 45.704746 197.763559 45.704746 
Q 198.62161 45.704746 199.342373 44.778051 
Q 200.063136 43.851356 200.475 42.718729 
Q 200.886864 41.586102 201.401695 40.659407 
Q 201.916525 39.732712 202.397034 39.732712 
Q 203.014831 39.732712 203.649788 40.607924 
Q 204.284746 41.483136 204.748093 42.512797 
Q 205.211441 43.542458 205.88072 44.417669 
Q 206.55 45.292881 207.236441 45.292881 
Q 207.511017 43.782712 207.940042 39.69839 
Q 208.369068 35.614068 208.883898 33.554746 
" clip-path="url(#p9c394eed4c)" style="fill: none; stroke: #000000; stroke-linejoin: miter"/>
   </g>
  </g>
  <g id="axes_14"/>
  <g id="axes_15">
   <g id="patch_14">
    <path d="M 232.594386 35.595062 
L 237.205614 35.707531 
" clip-path="url(#p15720f6dc4)" style="fill: none; stroke: #000000; stroke-linejoin: miter"/>
   </g>
  </g>
  <g id="axes_16"/>
  <g id="axes_17">
   <g id="patch_15">
    <path d="M 260.916102 36.437797 
L 262.151695 44.778051 
Q 262.254661 45.567458 262.254661 45.60178 
Q 262.254661 45.704746 262.563559 45.704746 
Q 263.42161 45.704746 264.142373 44.778051 
Q 264.863136 43.851356 265.275 42.718729 
Q 265.686864 41.586102 266.201695 40.659407 
Q 266.716525 39.732712 267.197034 39.732712 
Q 267.814831 39.732712 268.449788 40.607924 
Q 269.084746 41.483136 269.548093 42.512797 
Q 270.011441 43.542458 270.68072 44.417669 
Q 271.35 45.292881 272.036441 45.292881 
Q 272.311017 43.782712 272.740042 39.69839 
Q 273.169068 35.614068 273.683898 33.554746 
" clip-path="url(#pb5ec2e7832)" style="fill: none; stroke: #000000; stroke-linejoin: miter"/>
   </g>
  </g>
  <g id="axes_18">
   <g id="patch_16">
    <path d="M 280.013462 35.932469 
Q 280.613297 35.257655 281.606772 34.826524 
Q 282.600248 34.395393 283.5 34.470372 
Q 284.137324 34.470372 284.62469 34.639076 
Q 285.112055 34.807779 285.430717 34.995228 
Q 285.749379 35.182676 285.974317 35.670041 
Q 286.199255 36.157407 286.311724 36.419834 
Q 286.424193 36.682262 286.480428 37.375821 
Q 286.536662 38.069379 286.555407 38.331807 
Q 286.574152 38.594234 286.555407 39.419007 
Q 286.536662 40.243779 286.536662 40.431228 
Q 286.536662 41.368469 286.367959 43.242952 
Q 286.199255 45.117434 286.199255 46.054676 
Q 286.199255 46.467062 286.25549 46.823214 
Q 286.311724 47.179366 286.405448 47.610497 
Q 286.499172 48.041628 286.536662 48.304055 
L 286.986538 48.528993 
M 280.463338 23.111007 
Q 280.688276 24.798041 280.688276 29.971614 
L 280.688276 42.3432 
L 280.350869 46.841959 
L 280.125931 47.74171 
" clip-path="url(#pfad6aa4fdd)" style="fill: none; stroke: #000000; stroke-linejoin: miter"/>
   </g>
  </g>
  <g id="axes_19">
   <g id="patch_17">
    <path d="M 305.243923 36.441748 
Q 304.034968 35.094627 300.062687 35.094627 
Q 298.542857 35.094627 297.765672 35.146439 
Q 296.988486 35.198252 295.98678 35.440043 
Q 294.985075 35.681834 294.501493 36.182687 
Q 294.01791 36.683539 293.672495 37.616162 
Q 293.327079 38.548785 293.327079 39.964989 
Q 293.327079 42.037484 294.743284 43.280981 
Q 296.159488 44.524478 298.093817 44.524478 
Q 300.753518 44.524478 303.516844 38.721493 
Q 304.863966 35.854542 304.863966 35.82 
Q 305.209382 35.578209 305.243923 36.441748 
Q 305.243923 37.512537 305.658422 40.362217 
Q 306.072921 43.211898 306.072921 44.524478 
" clip-path="url(#pc14d64f56b)" style="fill: none; stroke: #000000; stroke-linejoin: miter"/>
   </g>
  </g>
  <g id="axes_20">
   <g id="patch_18">
    <path d="M 311.063834 37.95691 
L 311.738648 37.95691 
Q 312.450952 37.95691 313.238234 37.881931 
Q 314.025517 37.806952 314.981503 37.675738 
Q 315.93749 37.544524 316.462345 37.507034 
L 320.736166 35.82 
M 316.687283 30.42149 
L 316.687283 31.43371 
Q 316.687283 33.383172 316.012469 37.207117 
Q 315.337655 41.031062 315.337655 43.018014 
Q 315.337655 43.805297 315.337655 44.105214 
Q 315.337655 44.405131 315.431379 45.042455 
Q 315.525103 45.679779 315.712552 45.960952 
Q 315.9 46.242124 316.293641 46.485807 
Q 316.687283 46.72949 317.249628 46.72949 
Q 317.362097 46.692 317.680759 46.72949 
Q 317.999421 46.766979 318.186869 46.710745 
Q 318.374317 46.65451 318.374317 46.392083 
" clip-path="url(#p7630e390a5)" style="fill: none; stroke: #000000; stroke-linejoin: miter"/>
   </g>
  </g>
  <g id="axes_21"/>
  <g id="axes_22">
   <g id="patch_19">
    <path d="M 344.813462 35.932469 
Q 345.413297 35.257655 346.406772 34.826524 
Q 347.400248 34.395393 348.3 34.470372 
Q 348.937324 34.470372 349.42469 34.639076 
Q 349.912055 34.807779 350.230717 34.995228 
Q 350.549379 35.182676 350.774317 35.670041 
Q 350.999255 36.157407 351.111724 36.419834 
Q 351.224193 36.682262 351.280428 37.375821 
Q 351.336662 38.069379 351.355407 38.331807 
Q 351.374152 38.594234 351.355407 39.419007 
Q 351.336662 40.243779 351.336662 40.431228 
Q 351.336662 41.368469 351.167959 43.242952 
Q 350.999255 45.117434 350.999255 46.054676 
Q 350.999255 46.467062 351.05549 46.823214 
Q 351.111724 47.179366 351.205448 47.610497 
Q 351.299172 48.041628 351.336662 48.304055 
L 351.786538 48.528993 
M 345.263338 23.111007 
Q 345.488276 24.798041 345.488276 29.971614 
L 345.488276 42.3432 
L 345.150869 46.841959 
L 344.925931 47.74171 
" clip-path="url(#p60ef10672e)" style="fill: none; stroke: #000000; stroke-linejoin: miter"/>
   </g>
  </g>
  <g id="axes_23">
   <g id="patch_20">
    <path d="M 370.043923 36.441748 
Q 368.834968 35.094627 364.862687 35.094627 
Q 363.342857 35.094627 362.565672 35.146439 
Q 361.788486 35.198252 360.78678 35.440043 
Q 359.785075 35.681834 359.301493 36.182687 
Q 358.81791 36.683539 358.472495 37.616162 
Q 358.127079 38.548785 358.127079 39.964989 
Q 358.127079 42.037484 359.543284 43.280981 
Q 360.959488 44.524478 362.893817 44.524478 
Q 365.553518 44.524478 368.316844 38.721493 
Q 369.663966 35.854542 369.663966 35.82 
Q 370.009382 35.578209 370.043923 36.441748 
Q 370.043923 37.512537 370.458422 40.362217 
Q 370.872921 43.211898 370.872921 44.524478 
" clip-path="url(#p2ea77cdb81)" style="fill: none; stroke: #000000; stroke-linejoin: miter"/>
   </g>
  </g>
  <g id="axes_24">
   <g id="patch_21">
    <path d="M 376.426179 34.807779 
Q 378.038234 36.719752 379.331628 39.6252 
Q 380.625021 42.530648 380.924938 45.154924 
Q 381.974648 43.655338 382.893145 38.819172 
Q 383.811641 33.983007 384.973821 32.108524 
" clip-path="url(#p1495a0c641)" style="fill: none; stroke: #000000; stroke-linejoin: miter"/>
   </g>
  </g>
  <g id="axes_25">
   <g id="patch_22">
    <path d="M 390.657798 38.160826 
Q 393.630275 39.535596 398.349083 39.721376 
Q 399.872477 39.721376 400.559862 38.550963 
Q 401.247248 37.38055 401.247248 35.82 
Q 401.247248 35.299817 401.154358 34.909679 
Q 401.061468 34.519541 400.819954 34.296606 
Q 400.57844 34.07367 400.411239 33.943624 
Q 400.244037 33.813578 399.798165 33.757844 
Q 399.352294 33.70211 399.147936 33.683532 
Q 398.943578 33.664954 398.367661 33.683532 
Q 397.791743 33.70211 397.568807 33.70211 
Q 395.525229 33.70211 394.038991 35.578486 
Q 392.552752 37.454862 392.552752 39.609908 
Q 392.552752 42.619541 394.484862 44.570229 
Q 396.416972 46.520917 399.463761 46.520917 
Q 401.618807 46.818165 403.142202 44.29156 
" clip-path="url(#pa8d6e0fda9)" style="fill: none; stroke: #000000; stroke-linejoin: miter"/>
   </g>
  </g>
  <g id="axes_26"/>
  <g id="axes_27">
   <g id="patch_23">
    <path d="M 422.514935 43.209935 
L 436.085065 43.209935 
M 423.856169 30.007987 
L 434.743831 29.929091 
M 428.747727 30.323571 
L 428.747727 30.718052 
Q 428.747727 32.243377 428.839773 33.99224 
Q 428.931818 35.741104 429.08961 37.910747 
Q 429.247403 40.08039 429.3 41.211234 
L 429.457792 43.025844 
" clip-path="url(#pacb5984ac1)" style="fill: none; stroke: #000000; stroke-linejoin: miter"/>
   </g>
  </g>
  <g id="axes_28"/>
  <g id="axes_29">
   <g id="patch_24">
    <path d="M 456.863834 37.95691 
L 457.538648 37.95691 
Q 458.250952 37.95691 459.038234 37.881931 
Q 459.825517 37.806952 460.781503 37.675738 
Q 461.73749 37.544524 462.262345 37.507034 
L 466.536166 35.82 
M 462.487283 30.42149 
L 462.487283 31.43371 
Q 462.487283 33.383172 461.812469 37.207117 
Q 461.137655 41.031062 461.137655 43.018014 
Q 461.137655 43.805297 461.137655 44.105214 
Q 461.137655 44.405131 461.231379 45.042455 
Q 461.325103 45.679779 461.512552 45.960952 
Q 461.7 46.242124 462.093641 46.485807 
Q 462.487283 46.72949 463.049628 46.72949 
Q 463.162097 46.692 463.480759 46.72949 
Q 463.799421 46.766979 463.986869 46.710745 
Q 464.174317 46.65451 464.174317 46.392083 
" clip-path="url(#pdd026f3cb3)" style="fill: none; stroke: #000000; stroke-linejoin: miter"/>
   </g>
  </g>
  <g id="axes_30">
   <g id="patch_25">
    <path d="M 481.1616 35.032717 
Q 480.11189 34.582841 479.137159 34.69531 
Q 476.100497 35.032717 474.188524 36.701007 
Q 472.276552 38.369297 472.276552 41.330979 
Q 472.276552 43.917766 474.282248 45.6048 
Q 476.287945 47.291834 478.912221 47.291834 
Q 481.274069 47.291834 482.398759 45.361117 
Q 483.523448 43.4304 483.523448 40.881103 
Q 483.523448 39.643945 483.111062 38.706703 
Q 482.698676 37.769462 482.173821 37.300841 
Q 481.648966 36.832221 480.899172 36.119917 
Q 480.149379 35.407614 479.699503 34.69531 
L 478.462345 34.245434 
" clip-path="url(#pc3cf67ae9d)" style="fill: none; stroke: #000000; stroke-linejoin: miter"/>
   </g>
  </g>
  <g id="axes_31">
   <g id="patch_26">
    <path d="M 493.706359 28.621986 
Q 493.931297 30.34651 494.006276 32.146014 
Q 494.081255 33.945517 494.06251 36.551048 
Q 494.043766 39.156579 494.043766 40.093821 
Q 494.043766 40.13131 494.268703 45.829738 
L 494.493641 46.841959 
" clip-path="url(#pb06b3a8463)" style="fill: none; stroke: #000000; stroke-linejoin: miter"/>
   </g>
  </g>
  <g id="axes_32">
   <g id="patch_27">
    <path d="M 513.899007 39.568966 
Q 512.549379 38.181848 510.3 38.444276 
Q 507.450786 38.444276 506.288607 39.793903 
Q 505.126428 41.143531 505.126428 44.067724 
Q 505.126428 45.56731 506.419821 46.279614 
Q 507.713214 46.991917 509.287779 46.991917 
Q 510.599917 46.991917 511.612138 45.736014 
Q 512.624359 44.48011 513.205448 42.30571 
Q 513.786538 40.13131 514.161434 37.938166 
Q 514.536331 35.745021 514.68629 33.045766 
Q 514.836248 30.34651 514.873738 28.978138 
Q 514.911228 27.609766 514.911228 26.185159 
Q 514.68629 26.260138 514.68629 29.896634 
L 514.68629 44.292662 
L 515.473572 48.229076 
" clip-path="url(#p38ffb9e5a3)" style="fill: none; stroke: #000000; stroke-linejoin: miter"/>
   </g>
  </g>
  <g id="axes_33"/>
  <g id="axes_34">
   <g id="patch_28">
    <path d="M 537.563917 36.382345 
Q 537.526428 36.494814 537.657641 36.701007 
Q 537.788855 36.9072 537.676386 37.057159 
L 537.676386 39.306538 
Q 537.676386 40.506207 538.013793 41.724621 
Q 538.3512 42.943034 539.213462 43.93651 
Q 540.075724 44.929986 541.275393 44.929986 
Q 542.512552 44.929986 543.187366 43.861531 
Q 543.862179 42.793076 544.312055 41.143531 
Q 544.761931 39.493986 545.099338 38.969131 
L 545.886621 36.382345 
L 545.661683 42.680607 
L 545.661683 45.154924 
Q 545.661683 47.066897 546.392731 51.00331 
Q 547.123779 54.939724 547.123779 56.964166 
Q 547.873572 59.213545 546.786372 60.188276 
Q 545.699172 61.163007 543.637241 60.78811 
Q 541.837738 60.488193 540.919241 60.169531 
Q 540.000745 59.850869 538.013793 58.988607 
L 537.901324 58.426262 
" clip-path="url(#p9112c36ae9)" style="fill: none; stroke: #000000; stroke-linejoin: miter"/>
   </g>
  </g>
  <g id="axes_35">
   <g id="patch_29">
    <path d="M 562.1616 35.032717 
Q 561.11189 34.582841 560.137159 34.69531 
Q 557.100497 35.032717 555.188524 36.701007 
Q 553.276552 38.369297 553.276552 41.330979 
Q 553.276552 43.917766 555.282248 45.6048 
Q 557.287945 47.291834 559.912221 47.291834 
Q 562.274069 47.291834 563.398759 45.361117 
Q 564.523448 43.4304 564.523448 40.881103 
Q 564.523448 39.643945 564.111062 38.706703 
Q 563.698676 37.769462 563.173821 37.300841 
Q 562.648966 36.832221 561.899172 36.119917 
Q 561.149379 35.407614 560.699503 34.69531 
L 559.462345 34.245434 
" clip-path="url(#p10b7251b7b)" style="fill: none; stroke: #000000; stroke-linejoin: miter"/>
   </g>
  </g>
  <g id="axes_36">
   <g id="patch_30">
    <path d="M 570.488772 35.145186 
Q 570.488772 35.145186 570.488772 35.595062 
Q 570.488772 36.269876 570.376303 37.619503 
Q 570.263834 38.969131 570.263834 39.643945 
Q 570.263834 41.930814 571.500993 43.599103 
Q 572.738152 45.267393 574.875062 45.267393 
Q 576.262179 45.154924 577.030717 43.917766 
Q 577.799255 42.680607 577.949214 41.237255 
Q 578.099172 39.793903 578.3616 37.9944 
Q 578.624028 36.194897 579.036414 35.370124 
Q 579.186372 35.070207 579.186372 35.670041 
Q 579.186372 36.269876 578.923945 38.706703 
Q 578.699007 41.031062 578.699007 41.555917 
Q 578.549048 42.643117 578.886455 43.767807 
Q 579.223862 44.892497 579.936166 45.6048 
" clip-path="url(#pe421891d09)" style="fill: none; stroke: #000000; stroke-linejoin: miter"/>
   </g>
  </g>
  <g id="axes_37"/>
  <g id="axes_38">
   <g id="patch_31">
    <path d="M 602.663834 37.95691 
L 603.338648 37.95691 
Q 604.050952 37.95691 604.838234 37.881931 
Q 605.625517 37.806952 606.581503 37.675738 
Q 607.53749 37.544524 608.062345 37.507034 
L 612.336166 35.82 
M 608.287283 30.42149 
L 608.287283 31.43371 
Q 608.287283 33.383172 607.612469 37.207117 
Q 606.937655 41.031062 606.937655 43.018014 
Q 606.937655 43.805297 606.937655 44.105214 
Q 606.937655 44.405131 607.031379 45.042455 
Q 607.125103 45.679779 607.312552 45.960952 
Q 607.5 46.242124 607.893641 46.485807 
Q 608.287283 46.72949 608.849628 46.72949 
Q 608.962097 46.692 609.280759 46.72949 
Q 609.599421 46.766979 609.786869 46.710745 
Q 609.974317 46.65451 609.974317 46.392083 
" clip-path="url(#p264382c3d4)" style="fill: none; stroke: #000000; stroke-linejoin: miter"/>
   </g>
  </g>
  <g id="axes_39">
   <g id="patch_32">
    <path d="M 617.316102 36.437797 
L 618.551695 44.778051 
Q 618.654661 45.567458 618.654661 45.60178 
Q 618.654661 45.704746 618.963559 45.704746 
Q 619.82161 45.704746 620.542373 44.778051 
Q 621.263136 43.851356 621.675 42.718729 
Q 622.086864 41.586102 622.601695 40.659407 
Q 623.116525 39.732712 623.597034 39.732712 
Q 624.214831 39.732712 624.849788 40.607924 
Q 625.484746 41.483136 625.948093 42.512797 
Q 626.411441 43.542458 627.08072 44.417669 
Q 627.75 45.292881 628.436441 45.292881 
Q 628.711017 43.782712 629.140042 39.69839 
Q 629.569068 35.614068 630.083898 33.554746 
" clip-path="url(#pc0a950ecd6)" style="fill: none; stroke: #000000; stroke-linejoin: miter"/>
   </g>
  </g>
  <g id="axes_40">
   <g id="patch_33">
    <path d="M 643.1616 35.032717 
Q 642.11189 34.582841 641.137159 34.69531 
Q 638.100497 35.032717 636.188524 36.701007 
Q 634.276552 38.369297 634.276552 41.330979 
Q 634.276552 43.917766 636.282248 45.6048 
Q 638.287945 47.291834 640.912221 47.291834 
Q 643.274069 47.291834 644.398759 45.361117 
Q 645.523448 43.4304 645.523448 40.881103 
Q 645.523448 39.643945 645.111062 38.706703 
Q 644.698676 37.769462 644.173821 37.300841 
Q 643.648966 36.832221 642.899172 36.119917 
Q 642.149379 35.407614 641.699503 34.69531 
L 640.462345 34.245434 
" clip-path="url(#p8add5c7763)" style="fill: none; stroke: #000000; stroke-linejoin: miter"/>
   </g>
  </g>
  <g id="axes_41"/>
  <g id="axes_42">
   <g id="patch_34">
    <path d="M 677.843923 36.441748 
Q 676.634968 35.094627 672.662687 35.094627 
Q 671.142857 35.094627 670.365672 35.146439 
Q 669.588486 35.198252 668.58678 35.440043 
Q 667.585075 35.681834 667.101493 36.182687 
Q 666.61791 36.683539 666.272495 37.616162 
Q 665.927079 38.548785 665.927079 39.964989 
Q 665.927079 42.037484 667.343284 43.280981 
Q 668.759488 44.524478 670.693817 44.524478 
Q 673.353518 44.524478 676.116844 38.721493 
Q 677.463966 35.854542 677.463966 35.82 
Q 677.809382 35.578209 677.843923 36.441748 
Q 677.843923 37.512537 678.258422 40.362217 
Q 678.672921 43.211898 678.672921 44.524478 
" clip-path="url(#pd0b48bf7ac)" style="fill: none; stroke: #000000; stroke-linejoin: miter"/>
   </g>
  </g>
  <g id="axes_43">
   <g id="patch_35">
    <path d="M 684.957228 37.244607 
Q 686.006938 37.207117 686.194386 37.132138 
Q 689.605945 37.132138 691.386703 39.212814 
Q 693.167462 41.29349 693.167462 44.780028 
Q 693.167462 47.704221 688.556234 47.704221 
Q 687.91891 47.704221 687.37531 47.591752 
Q 686.83171 47.479283 686.194386 47.254345 
Q 685.557062 47.029407 685.069697 46.916938 
L 683.832538 45.679779 
M 684.844759 25.435366 
L 684.844759 26.560055 
Q 684.844759 29.409269 684.957228 33.008276 
Q 685.069697 36.607283 685.257145 40.899848 
Q 685.444593 45.192414 685.519572 47.141876 
" clip-path="url(#p0d66d3ace0)" style="fill: none; stroke: #000000; stroke-linejoin: miter"/>
   </g>
  </g>
  <g id="axes_44">
   <g id="patch_36">
    <path d="M 707.9616 35.032717 
Q 706.91189 34.582841 705.937159 34.69531 
Q 702.900497 35.032717 700.988524 36.701007 
Q 699.076552 38.369297 699.076552 41.330979 
Q 699.076552 43.917766 701.082248 45.6048 
Q 703.087945 47.291834 705.712221 47.291834 
Q 708.074069 47.291834 709.198759 45.361117 
Q 710.323448 43.4304 710.323448 40.881103 
Q 710.323448 39.643945 709.911062 38.706703 
Q 709.498676 37.769462 708.973821 37.300841 
Q 708.448966 36.832221 707.699172 36.119917 
Q 706.949379 35.407614 706.499503 34.69531 
L 705.262345 34.245434 
" clip-path="url(#pbd44d4fd7e)" style="fill: none; stroke: #000000; stroke-linejoin: miter"/>
   </g>
  </g>
  <g id="axes_45">
   <g id="patch_37">
    <path d="M 716.288772 35.145186 
Q 716.288772 35.145186 716.288772 35.595062 
Q 716.288772 36.269876 716.176303 37.619503 
Q 716.063834 38.969131 716.063834 39.643945 
Q 716.063834 41.930814 717.300993 43.599103 
Q 718.538152 45.267393 720.675062 45.267393 
Q 722.062179 45.154924 722.830717 43.917766 
Q 723.599255 42.680607 723.749214 41.237255 
Q 723.899172 39.793903 724.1616 37.9944 
Q 724.424028 36.194897 724.836414 35.370124 
Q 724.986372 35.070207 724.986372 35.670041 
Q 724.986372 36.269876 724.723945 38.706703 
Q 724.499007 41.031062 724.499007 41.555917 
Q 724.349048 42.643117 724.686455 43.767807 
Q 725.023862 44.892497 725.736166 45.6048 
" clip-path="url(#pb75826b16b)" style="fill: none; stroke: #000000; stroke-linejoin: miter"/>
   </g>
  </g>
  <g id="axes_46">
   <g id="patch_38">
    <path d="M 732.263834 37.95691 
L 732.938648 37.95691 
Q 733.650952 37.95691 734.438234 37.881931 
Q 735.225517 37.806952 736.181503 37.675738 
Q 737.13749 37.544524 737.662345 37.507034 
L 741.936166 35.82 
M 737.887283 30.42149 
L 737.887283 31.43371 
Q 737.887283 33.383172 737.212469 37.207117 
Q 736.537655 41.031062 736.537655 43.018014 
Q 736.537655 43.805297 736.537655 44.105214 
Q 736.537655 44.405131 736.631379 45.042455 
Q 736.725103 45.679779 736.912552 45.960952 
Q 737.1 46.242124 737.493641 46.485807 
Q 737.887283 46.72949 738.449628 46.72949 
Q 738.562097 46.692 738.880759 46.72949 
Q 739.199421 46.766979 739.386869 46.710745 
Q 739.574317 46.65451 739.574317 46.392083 
" clip-path="url(#p06396cf815)" style="fill: none; stroke: #000000; stroke-linejoin: miter"/>
   </g>
  </g>
  <g id="axes_47"/>
  <g id="axes_48">
   <g id="patch_39">
    <path d="M 774.287191 39.096404 
Q 774.03236 39.023596 773.06764 38.623146 
Q 772.102921 38.222697 771.44764 38.077079 
Q 770.79236 37.931461 770.137079 38.00427 
Q 767.515955 38.00427 765.877753 40.388764 
Q 764.239551 42.773258 764.239551 45.430787 
Q 764.239551 47.068989 769.481798 47.068989 
Q 771.047191 47.068989 772.375955 45.558202 
Q 773.704719 44.047416 774.378202 42.172584 
Q 775.051685 40.297753 775.051685 38.768764 
Q 775.051685 37.27618 775.015281 36.984944 
L 774.942472 38.077079 
Q 774.942472 38.550337 774.942472 38.987191 
Q 774.978876 40.188539 775.179101 42.281798 
Q 775.379326 44.375056 775.543146 46.049663 
Q 775.706966 47.72427 775.743371 49.872135 
Q 775.779775 52.02 775.615955 53.658202 
Q 775.452135 55.296404 774.887865 56.971011 
Q 774.323596 58.645618 773.395281 59.737753 
Q 772.466966 60.829888 770.865169 61.521573 
Q 769.263371 62.213258 767.115506 62.213258 
Q 765.477303 62.213258 764.385169 61.466966 
Q 763.293034 60.720674 763.293034 59.155281 
Q 763.220225 58.936854 763.256629 58.936854 
Q 763.293034 58.936854 763.402247 58.936854 
Q 763.511461 58.936854 763.511461 58.82764 
" clip-path="url(#p4df9309edd)" style="fill: none; stroke: #000000; stroke-linejoin: miter"/>
   </g>
  </g>
  <g id="axes_49">
   <g id="patch_40">
    <path d="M 779.457798 38.160826 
Q 782.430275 39.535596 787.149083 39.721376 
Q 788.672477 39.721376 789.359862 38.550963 
Q 790.047248 37.38055 790.047248 35.82 
Q 790.047248 35.299817 789.954358 34.909679 
Q 789.861468 34.519541 789.619954 34.296606 
Q 789.37844 34.07367 789.211239 33.943624 
Q 789.044037 33.813578 788.598165 33.757844 
Q 788.152294 33.70211 787.947936 33.683532 
Q 787.743578 33.664954 787.167661 33.683532 
Q 786.591743 33.70211 786.368807 33.70211 
Q 784.325229 33.70211 782.838991 35.578486 
Q 781.352752 37.454862 781.352752 39.609908 
Q 781.352752 42.619541 783.284862 44.570229 
Q 785.216972 46.520917 788.263761 46.520917 
Q 790.418807 46.818165 791.942202 44.29156 
" clip-path="url(#p95f043ff2f)" style="fill: none; stroke: #000000; stroke-linejoin: miter"/>
   </g>
  </g>
  <g id="axes_50">
   <g id="patch_41">
    <path d="M 797.063834 37.95691 
L 797.738648 37.95691 
Q 798.450952 37.95691 799.238234 37.881931 
Q 800.025517 37.806952 800.981503 37.675738 
Q 801.93749 37.544524 802.462345 37.507034 
L 806.736166 35.82 
M 802.687283 30.42149 
L 802.687283 31.43371 
Q 802.687283 33.383172 802.012469 37.207117 
Q 801.337655 41.031062 801.337655 43.018014 
Q 801.337655 43.805297 801.337655 44.105214 
Q 801.337655 44.405131 801.431379 45.042455 
Q 801.525103 45.679779 801.712552 45.960952 
Q 801.9 46.242124 802.293641 46.485807 
Q 802.687283 46.72949 803.249628 46.72949 
Q 803.362097 46.692 803.680759 46.72949 
Q 803.999421 46.766979 804.186869 46.710745 
Q 804.374317 46.65451 804.374317 46.392083 
" clip-path="url(#pa478c751ec)" style="fill: none; stroke: #000000; stroke-linejoin: miter"/>
   </g>
  </g>
  <g id="axes_51">
   <g id="patch_42">
    <path d="M 815.794386 35.595062 
L 820.405614 35.707531 
" clip-path="url(#p1b90878ea3)" style="fill: none; stroke: #000000; stroke-linejoin: miter"/>
   </g>
  </g>
 </g>
 <defs>
  <clipPath id="p62fd0fb9c7">
   <rect x="5.831876" y="8.64" width="4.536248" height="54.36"/>
  </clipPath>
  <clipPath id="p0f8a742c23">
   <rect x="16.2" y="8.881927" width="16.2" height="53.876147"/>
  </clipPath>
  <clipPath id="pf6982732be">
   <rect x="32.4" y="10.777356" width="16.2" height="50.085288"/>
  </clipPath>
  <clipPath id="p22909913e5">
   <rect x="50.551697" y="8.64" width="12.296607" height="54.36"/>
  </clipPath>
  <clipPath id="p30bfecd29e">
   <rect x="70.406938" y="8.64" width="4.986124" height="54.36"/>
  </clipPath>
  <clipPath id="p3efdbe4973">
   <rect x="82.764248" y="8.64" width="12.671503" height="54.36"/>
  </clipPath>
  <clipPath id="p5172a72d24">
   <rect x="97.2" y="9.426742" width="16.2" height="52.786517"/>
  </clipPath>
  <clipPath id="pd852a28738">
   <rect x="118.800745" y="8.64" width="5.39851" height="54.36"/>
  </clipPath>
  <clipPath id="p99f141e46e">
   <rect x="151.125766" y="8.64" width="5.548469" height="54.36"/>
  </clipPath>
  <clipPath id="p58b1e1e81d">
   <rect x="163.764248" y="8.64" width="12.671503" height="54.36"/>
  </clipPath>
  <clipPath id="p5ff6e01546">
   <rect x="178.802069" y="8.64" width="14.995862" height="54.36"/>
  </clipPath>
  <clipPath id="p9c394eed4c">
   <rect x="194.4" y="10.936525" width="16.2" height="49.766949"/>
  </clipPath>
  <clipPath id="p15720f6dc4">
   <rect x="230.719903" y="8.64" width="8.360193" height="54.36"/>
  </clipPath>
  <clipPath id="pb5ec2e7832">
   <rect x="259.2" y="10.936525" width="16.2" height="49.766949"/>
  </clipPath>
  <clipPath id="pfad6aa4fdd">
   <rect x="278.138979" y="8.64" width="10.722041" height="54.36"/>
  </clipPath>
  <clipPath id="pc14d64f56b">
   <rect x="291.6" y="10.777356" width="16.2" height="50.085288"/>
  </clipPath>
  <clipPath id="p7630e390a5">
   <rect x="309.189352" y="8.64" width="13.421297" height="54.36"/>
  </clipPath>
  <clipPath id="p60ef10672e">
   <rect x="342.938979" y="8.64" width="10.722041" height="54.36"/>
  </clipPath>
  <clipPath id="p2ea77cdb81">
   <rect x="356.4" y="10.777356" width="16.2" height="50.085288"/>
  </clipPath>
  <clipPath id="p1495a0c641">
   <rect x="374.551697" y="8.64" width="12.296607" height="54.36"/>
  </clipPath>
  <clipPath id="pa8d6e0fda9">
   <rect x="388.8" y="8.881927" width="16.2" height="53.876147"/>
  </clipPath>
  <clipPath id="pacb5984ac1">
   <rect x="421.2" y="16.753442" width="16.2" height="38.133117"/>
  </clipPath>
  <clipPath id="pdd026f3cb3">
   <rect x="454.989352" y="8.64" width="13.421297" height="54.36"/>
  </clipPath>
  <clipPath id="pc3cf67ae9d">
   <rect x="470.402069" y="8.64" width="14.995862" height="54.36"/>
  </clipPath>
  <clipPath id="pb06b3a8463">
   <rect x="491.831876" y="8.64" width="4.536248" height="54.36"/>
  </clipPath>
  <clipPath id="p38ffb9e5a3">
   <rect x="503.251945" y="8.64" width="14.09611" height="54.36"/>
  </clipPath>
  <clipPath id="p9112c36ae9">
   <rect x="535.651945" y="8.64" width="14.09611" height="54.36"/>
  </clipPath>
  <clipPath id="p10b7251b7b">
   <rect x="551.402069" y="8.64" width="14.995862" height="54.36"/>
  </clipPath>
  <clipPath id="pe421891d09">
   <rect x="568.389352" y="8.64" width="13.421297" height="54.36"/>
  </clipPath>
  <clipPath id="p264382c3d4">
   <rect x="600.789352" y="8.64" width="13.421297" height="54.36"/>
  </clipPath>
  <clipPath id="pc0a950ecd6">
   <rect x="615.6" y="10.936525" width="16.2" height="49.766949"/>
  </clipPath>
  <clipPath id="p8add5c7763">
   <rect x="632.402069" y="8.64" width="14.995862" height="54.36"/>
  </clipPath>
  <clipPath id="pd0b48bf7ac">
   <rect x="664.2" y="10.777356" width="16.2" height="50.085288"/>
  </clipPath>
  <clipPath id="p0d66d3ace0">
   <rect x="681.958055" y="8.64" width="13.08389" height="54.36"/>
  </clipPath>
  <clipPath id="pbd44d4fd7e">
   <rect x="697.202069" y="8.64" width="14.995862" height="54.36"/>
  </clipPath>
  <clipPath id="pb75826b16b">
   <rect x="714.189352" y="8.64" width="13.421297" height="54.36"/>
  </clipPath>
  <clipPath id="p06396cf815">
   <rect x="730.389352" y="8.64" width="13.421297" height="54.36"/>
  </clipPath>
  <clipPath id="p4df9309edd">
   <rect x="761.4" y="9.426742" width="16.2" height="52.786517"/>
  </clipPath>
  <clipPath id="p95f043ff2f">
   <rect x="777.6" y="8.881927" width="16.2" height="53.876147"/>
  </clipPath>
  <clipPath id="pa478c751ec">
   <rect x="795.189352" y="8.64" width="13.421297" height="54.36"/>
  </clipPath>
  <clipPath id="p1b90878ea3">
   <rect x="813.919903" y="8.64" width="8.360193" height="54.36"/>
  </clipPath>
 </defs>
</svg>
