<?xml version="1.0" encoding="utf-8" standalone="no"?>
<!DOCTYPE svg PUBLIC "-//W3C//DTD SVG 1.1//EN"
  "http://www.w3.org/Graphics/SVG/1.1/DTD/svg11.dtd">
<svg xmlns:xlink="http://www.w3.org/1999/xlink" width="810pt" height="72pt" viewBox="0 0 810 72" xmlns="http://www.w3.org/2000/svg" version="1.1">
 <metadata>
  <rdf:RDF xmlns:dc="http://purl.org/dc/elements/1.1/" xmlns:cc="http://creativecommons.org/ns#" xmlns:rdf="http://www.w3.org/1999/02/22-rdf-syntax-ns#">
   <cc:Work>
    <dc:type rdf:resource="http://purl.org/dc/dcmitype/StillImage"/>
    <dc:date>2023-12-21T12:09:22.767279</dc:date>
    <dc:format>image/svg+xml</dc:format>
    <dc:creator>
     <cc:Agent>
      <dc:title>Matplotlib v3.5.1, https://matplotlib.org/</dc:title>
     </cc:Agent>
    </dc:creator>
   </cc:Work>
  </rdf:RDF>
 </metadata>
 <defs>
  <style type="text/css">*{stroke-linejoin: round; stroke-linecap: butt}</style>
 </defs>
 <g id="figure_1">
  <g id="patch_1">
   <path d="M 0 72 
L 810 72 
L 810 0 
L 0 0 
z
" style="fill: #8fff9f"/>
  </g>
  <g id="axes_1">
   <g id="patch_2">
    <path d="M 8.624855 27.009931 
Q 8.699834 27.347338 8.774814 28.265834 
Q 8.849793 29.184331 8.999752 29.634207 
L 8.924772 31.058814 
M 7.275228 27.309848 
Q 7.237738 27.309848 7.200248 27.534786 
Q 7.237738 27.684745 7.350207 28.828179 
Q 7.462676 29.971614 7.725103 30.533959 
" clip-path="url(#p769c2d6e7b)" style="fill: none; stroke: #000000; stroke-linejoin: miter"/>
   </g>
  </g>
  <g id="axes_2">
   <g id="patch_3">
    <path d="M 27.542543 30.047002 
Q 26.983046 29.843548 26.627002 29.894411 
Q 26.016641 29.894411 24.694192 29.474788 
Q 23.371743 29.055165 22.659655 29.055165 
Q 20.80314 29.055165 19.595133 30.110581 
Q 18.387127 31.165997 17.929356 32.704615 
Q 17.471586 34.243234 17.471586 36.226907 
Q 17.471586 39.889074 19.17551 42.13978 
Q 20.879435 44.390487 24.185557 44.390487 
Q 27.669702 44.390487 29.20832 42.635699 
Q 30.746939 40.880911 30.746939 37.295039 
Q 31.128414 35.08248 29.818681 32.742763 
Q 28.508948 30.403046 26.627002 28.826279 
" clip-path="url(#pfe7ca1656e)" style="fill: none; stroke: #000000; stroke-linejoin: miter"/>
   </g>
  </g>
  <g id="axes_3">
   <g id="patch_4">
    <path d="M 37.013462 35.932469 
Q 37.613297 35.257655 38.606772 34.826524 
Q 39.600248 34.395393 40.5 34.470372 
Q 41.137324 34.470372 41.62469 34.639076 
Q 42.112055 34.807779 42.430717 34.995228 
Q 42.749379 35.182676 42.974317 35.670041 
Q 43.199255 36.157407 43.311724 36.419834 
Q 43.424193 36.682262 43.480428 37.375821 
Q 43.536662 38.069379 43.555407 38.331807 
Q 43.574152 38.594234 43.555407 39.419007 
Q 43.536662 40.243779 43.536662 40.431228 
Q 43.536662 41.368469 43.367959 43.242952 
Q 43.199255 45.117434 43.199255 46.054676 
Q 43.199255 46.467062 43.25549 46.823214 
Q 43.311724 47.179366 43.405448 47.610497 
Q 43.499172 48.041628 43.536662 48.304055 
L 43.986538 48.528993 
M 37.463338 23.111007 
Q 37.688276 24.798041 37.688276 29.971614 
L 37.688276 42.3432 
L 37.350869 46.841959 
L 37.125931 47.74171 
" clip-path="url(#p6c782193b4)" style="fill: none; stroke: #000000; stroke-linejoin: miter"/>
   </g>
  </g>
  <g id="axes_4"/>
  <g id="axes_5">
   <g id="patch_5">
    <path d="M 76.499007 39.568966 
Q 75.149379 38.181848 72.9 38.444276 
Q 70.050786 38.444276 68.888607 39.793903 
Q 67.726428 41.143531 67.726428 44.067724 
Q 67.726428 45.56731 69.019821 46.279614 
Q 70.313214 46.991917 71.887779 46.991917 
Q 73.199917 46.991917 74.212138 45.736014 
Q 75.224359 44.48011 75.805448 42.30571 
Q 76.386538 40.13131 76.761434 37.938166 
Q 77.136331 35.745021 77.28629 33.045766 
Q 77.436248 30.34651 77.473738 28.978138 
Q 77.511228 27.609766 77.511228 26.185159 
Q 77.28629 26.260138 77.28629 29.896634 
L 77.28629 44.292662 
L 78.073572 48.229076 
" clip-path="url(#p42513797c2)" style="fill: none; stroke: #000000; stroke-linejoin: miter"/>
   </g>
  </g>
  <g id="axes_6">
   <g id="patch_6">
    <path d="M 82.857798 38.160826 
Q 85.830275 39.535596 90.549083 39.721376 
Q 92.072477 39.721376 92.759862 38.550963 
Q 93.447248 37.38055 93.447248 35.82 
Q 93.447248 35.299817 93.354358 34.909679 
Q 93.261468 34.519541 93.019954 34.296606 
Q 92.77844 34.07367 92.611239 33.943624 
Q 92.444037 33.813578 91.998165 33.757844 
Q 91.552294 33.70211 91.347936 33.683532 
Q 91.143578 33.664954 90.567661 33.683532 
Q 89.991743 33.70211 89.768807 33.70211 
Q 87.725229 33.70211 86.238991 35.578486 
Q 84.752752 37.454862 84.752752 39.609908 
Q 84.752752 42.619541 86.684862 44.570229 
Q 88.616972 46.520917 91.663761 46.520917 
Q 93.818807 46.818165 95.342202 44.29156 
" clip-path="url(#p796548bbb4)" style="fill: none; stroke: #000000; stroke-linejoin: miter"/>
   </g>
  </g>
  <g id="axes_7">
   <g id="patch_7">
    <path d="M 110.843923 36.441748 
Q 109.634968 35.094627 105.662687 35.094627 
Q 104.142857 35.094627 103.365672 35.146439 
Q 102.588486 35.198252 101.58678 35.440043 
Q 100.585075 35.681834 100.101493 36.182687 
Q 99.61791 36.683539 99.272495 37.616162 
Q 98.927079 38.548785 98.927079 39.964989 
Q 98.927079 42.037484 100.343284 43.280981 
Q 101.759488 44.524478 103.693817 44.524478 
Q 106.353518 44.524478 109.116844 38.721493 
Q 110.463966 35.854542 110.463966 35.82 
Q 110.809382 35.578209 110.843923 36.441748 
Q 110.843923 37.512537 111.258422 40.362217 
Q 111.672921 43.211898 111.672921 44.524478 
" clip-path="url(#p68d4e68910)" style="fill: none; stroke: #000000; stroke-linejoin: miter"/>
   </g>
  </g>
  <g id="axes_8">
   <g id="patch_8">
    <path d="M 118.013462 32.783338 
Q 118.538317 34.507862 118.669531 36.457324 
Q 118.800745 38.406786 118.725766 40.956083 
Q 118.650786 43.505379 118.688276 44.705048 
L 118.800745 46.054676 
L 118.800745 45.829738 
Q 118.800745 44.667559 118.519572 42.30571 
Q 118.2384 39.943862 118.2384 38.744193 
Q 118.2384 36.419834 119.250621 34.882759 
Q 120.262841 33.345683 122.287283 33.345683 
Q 122.999586 33.345683 123.336993 33.626855 
Q 123.6744 33.908028 123.936828 34.432883 
Q 124.199255 34.957738 124.536662 35.257655 
L 124.986538 36.832221 
" clip-path="url(#p1b5bdd8533)" style="fill: none; stroke: #000000; stroke-linejoin: miter"/>
   </g>
  </g>
  <g id="axes_9">
   <g id="patch_9">
    <path d="M 136.987697 39.981352 
Q 137.999917 40.956083 138.337324 42.905545 
Q 138.524772 43.955255 138.112386 46.167145 
L 136.875228 47.629241 
" clip-path="url(#pe00030118c)" style="fill: none; stroke: #000000; stroke-linejoin: miter"/>
   </g>
  </g>
  <g id="axes_10"/>
  <g id="axes_11">
   <g id="patch_10">
    <path d="M 163.314935 43.209935 
L 176.885065 43.209935 
M 164.656169 30.007987 
L 175.543831 29.929091 
M 169.547727 30.323571 
L 169.547727 30.718052 
Q 169.547727 32.243377 169.639773 33.99224 
Q 169.731818 35.741104 169.88961 37.910747 
Q 170.047403 40.08039 170.1 41.211234 
L 170.257792 43.025844 
" clip-path="url(#pd7708947e7)" style="fill: none; stroke: #000000; stroke-linejoin: miter"/>
   </g>
  </g>
  <g id="axes_12"/>
  <g id="axes_13">
   <g id="patch_11">
    <path d="M 207.756735 34.365306 
Q 207.756735 34.365306 207.260816 34.365306 
Q 206.467347 34.365306 204.979592 34.067755 
Q 203.491837 33.770204 202.698367 33.770204 
Q 199.921224 33.770204 197.987143 35.224898 
Q 196.053061 36.679592 196.053061 39.423673 
Q 196.053061 40.94449 197.540816 42.399184 
Q 199.028571 43.853878 200.962653 44.663878 
Q 202.896735 45.473878 204.38449 45.473878 
Q 205.310204 45.473878 206.00449 45.110204 
Q 206.698776 44.746531 207.442653 44.118367 
Q 208.186531 43.490204 208.748571 43.192653 
L 208.946939 42.696735 
" clip-path="url(#p2c1973f5cd)" style="fill: none; stroke: #000000; stroke-linejoin: miter"/>
   </g>
  </g>
  <g id="axes_14">
   <g id="patch_12">
    <path d="M 224.243923 36.441748 
Q 223.034968 35.094627 219.062687 35.094627 
Q 217.542857 35.094627 216.765672 35.146439 
Q 215.988486 35.198252 214.98678 35.440043 
Q 213.985075 35.681834 213.501493 36.182687 
Q 213.01791 36.683539 212.672495 37.616162 
Q 212.327079 38.548785 212.327079 39.964989 
Q 212.327079 42.037484 213.743284 43.280981 
Q 215.159488 44.524478 217.093817 44.524478 
Q 219.753518 44.524478 222.516844 38.721493 
Q 223.863966 35.854542 223.863966 35.82 
Q 224.209382 35.578209 224.243923 36.441748 
Q 224.243923 37.512537 224.658422 40.362217 
Q 225.072921 43.211898 225.072921 44.524478 
" clip-path="url(#pd362ff55d8)" style="fill: none; stroke: #000000; stroke-linejoin: miter"/>
   </g>
  </g>
  <g id="axes_15">
   <g id="patch_13">
    <path d="M 230.438731 37.282097 
L 230.438731 37.844441 
Q 230.701159 39.868883 230.738648 41.312234 
Q 230.776138 42.755586 230.682414 44.667559 
Q 230.58869 46.579531 230.58869 48.191586 
L 230.663669 39.643945 
Q 230.663669 38.144359 232.256979 37.507034 
Q 233.85029 36.86971 235.274897 37.282097 
Q 237.186869 37.844441 238.105366 39.04411 
Q 239.023862 40.243779 239.080097 41.668386 
Q 239.136331 43.092993 239.173821 44.817517 
Q 239.21131 46.542041 239.361269 48.191586 
" clip-path="url(#pf57ae9e761)" style="fill: none; stroke: #000000; stroke-linejoin: miter"/>
   </g>
  </g>
  <g id="axes_16">
   <g id="patch_14">
    <path d="M 251.025021 26.147669 
Q 250.987531 26.597545 251.025021 27.384828 
Q 251.06251 27.572276 251.006276 27.965917 
Q 250.950041 28.359559 250.987531 28.678221 
Q 251.025021 28.996883 251.249959 29.184331 
" clip-path="url(#p63fe856ac0)" style="fill: none; stroke: #000000; stroke-linejoin: miter"/>
   </g>
  </g>
  <g id="axes_17">
   <g id="patch_15">
    <path d="M 262.463834 37.95691 
L 263.138648 37.95691 
Q 263.850952 37.95691 264.638234 37.881931 
Q 265.425517 37.806952 266.381503 37.675738 
Q 267.33749 37.544524 267.862345 37.507034 
L 272.136166 35.82 
M 268.087283 30.42149 
L 268.087283 31.43371 
Q 268.087283 33.383172 267.412469 37.207117 
Q 266.737655 41.031062 266.737655 43.018014 
Q 266.737655 43.805297 266.737655 44.105214 
Q 266.737655 44.405131 266.831379 45.042455 
Q 266.925103 45.679779 267.112552 45.960952 
Q 267.3 46.242124 267.693641 46.485807 
Q 268.087283 46.72949 268.649628 46.72949 
Q 268.762097 46.692 269.080759 46.72949 
Q 269.399421 46.766979 269.586869 46.710745 
Q 269.774317 46.65451 269.774317 46.392083 
" clip-path="url(#p8cfa83476d)" style="fill: none; stroke: #000000; stroke-linejoin: miter"/>
   </g>
  </g>
  <g id="axes_18"/>
  <g id="axes_19">
   <g id="patch_16">
    <path d="M 293.457798 38.160826 
Q 296.430275 39.535596 301.149083 39.721376 
Q 302.672477 39.721376 303.359862 38.550963 
Q 304.047248 37.38055 304.047248 35.82 
Q 304.047248 35.299817 303.954358 34.909679 
Q 303.861468 34.519541 303.619954 34.296606 
Q 303.37844 34.07367 303.211239 33.943624 
Q 303.044037 33.813578 302.598165 33.757844 
Q 302.152294 33.70211 301.947936 33.683532 
Q 301.743578 33.664954 301.167661 33.683532 
Q 300.591743 33.70211 300.368807 33.70211 
Q 298.325229 33.70211 296.838991 35.578486 
Q 295.352752 37.454862 295.352752 39.609908 
Q 295.352752 42.619541 297.284862 44.570229 
Q 299.216972 46.520917 302.263761 46.520917 
Q 304.418807 46.818165 305.942202 44.29156 
" clip-path="url(#p8bad7f420a)" style="fill: none; stroke: #000000; stroke-linejoin: miter"/>
   </g>
  </g>
  <g id="axes_20">
   <g id="patch_17">
    <path d="M 311.626179 34.807779 
Q 313.238234 36.719752 314.531628 39.6252 
Q 315.825021 42.530648 316.124938 45.154924 
Q 317.174648 43.655338 318.093145 38.819172 
Q 319.011641 33.983007 320.173821 32.108524 
" clip-path="url(#p2e5d546f77)" style="fill: none; stroke: #000000; stroke-linejoin: miter"/>
   </g>
  </g>
  <g id="axes_21">
   <g id="patch_18">
    <path d="M 325.857798 38.160826 
Q 328.830275 39.535596 333.549083 39.721376 
Q 335.072477 39.721376 335.759862 38.550963 
Q 336.447248 37.38055 336.447248 35.82 
Q 336.447248 35.299817 336.354358 34.909679 
Q 336.261468 34.519541 336.019954 34.296606 
Q 335.77844 34.07367 335.611239 33.943624 
Q 335.444037 33.813578 334.998165 33.757844 
Q 334.552294 33.70211 334.347936 33.683532 
Q 334.143578 33.664954 333.567661 33.683532 
Q 332.991743 33.70211 332.768807 33.70211 
Q 330.725229 33.70211 329.238991 35.578486 
Q 327.752752 37.454862 327.752752 39.609908 
Q 327.752752 42.619541 329.684862 44.570229 
Q 331.616972 46.520917 334.663761 46.520917 
Q 336.818807 46.818165 338.342202 44.29156 
" clip-path="url(#p0476ef07a9)" style="fill: none; stroke: #000000; stroke-linejoin: miter"/>
   </g>
  </g>
  <g id="axes_22">
   <g id="patch_19">
    <path d="M 343.838731 37.282097 
L 343.838731 37.844441 
Q 344.101159 39.868883 344.138648 41.312234 
Q 344.176138 42.755586 344.082414 44.667559 
Q 343.98869 46.579531 343.98869 48.191586 
L 344.063669 39.643945 
Q 344.063669 38.144359 345.656979 37.507034 
Q 347.25029 36.86971 348.674897 37.282097 
Q 350.586869 37.844441 351.505366 39.04411 
Q 352.423862 40.243779 352.480097 41.668386 
Q 352.536331 43.092993 352.573821 44.817517 
Q 352.61131 46.542041 352.761269 48.191586 
" clip-path="url(#p324ef13e05)" style="fill: none; stroke: #000000; stroke-linejoin: miter"/>
   </g>
  </g>
  <g id="axes_23"/>
  <g id="axes_24">
   <g id="patch_20">
    <path d="M 380.306359 28.621986 
Q 380.531297 30.34651 380.606276 32.146014 
Q 380.681255 33.945517 380.66251 36.551048 
Q 380.643766 39.156579 380.643766 40.093821 
Q 380.643766 40.13131 380.868703 45.829738 
L 381.093641 46.841959 
" clip-path="url(#p1bf3558961)" style="fill: none; stroke: #000000; stroke-linejoin: miter"/>
   </g>
  </g>
  <g id="axes_25">
   <g id="patch_21">
    <path d="M 390.657798 38.160826 
Q 393.630275 39.535596 398.349083 39.721376 
Q 399.872477 39.721376 400.559862 38.550963 
Q 401.247248 37.38055 401.247248 35.82 
Q 401.247248 35.299817 401.154358 34.909679 
Q 401.061468 34.519541 400.819954 34.296606 
Q 400.57844 34.07367 400.411239 33.943624 
Q 400.244037 33.813578 399.798165 33.757844 
Q 399.352294 33.70211 399.147936 33.683532 
Q 398.943578 33.664954 398.367661 33.683532 
Q 397.791743 33.70211 397.568807 33.70211 
Q 395.525229 33.70211 394.038991 35.578486 
Q 392.552752 37.454862 392.552752 39.609908 
Q 392.552752 42.619541 394.484862 44.570229 
Q 396.416972 46.520917 399.463761 46.520917 
Q 401.618807 46.818165 403.142202 44.29156 
" clip-path="url(#pa2a2ea4c73)" style="fill: none; stroke: #000000; stroke-linejoin: miter"/>
   </g>
  </g>
  <g id="axes_26">
   <g id="patch_22">
    <path d="M 418.643923 36.441748 
Q 417.434968 35.094627 413.462687 35.094627 
Q 411.942857 35.094627 411.165672 35.146439 
Q 410.388486 35.198252 409.38678 35.440043 
Q 408.385075 35.681834 407.901493 36.182687 
Q 407.41791 36.683539 407.072495 37.616162 
Q 406.727079 38.548785 406.727079 39.964989 
Q 406.727079 42.037484 408.143284 43.280981 
Q 409.559488 44.524478 411.493817 44.524478 
Q 414.153518 44.524478 416.916844 38.721493 
Q 418.263966 35.854542 418.263966 35.82 
Q 418.609382 35.578209 418.643923 36.441748 
Q 418.643923 37.512537 419.058422 40.362217 
Q 419.472921 43.211898 419.472921 44.524478 
" clip-path="url(#p1ffe752058)" style="fill: none; stroke: #000000; stroke-linejoin: miter"/>
   </g>
  </g>
  <g id="axes_27">
   <g id="patch_23">
    <path d="M 425.026179 34.807779 
Q 426.638234 36.719752 427.931628 39.6252 
Q 429.225021 42.530648 429.524938 45.154924 
Q 430.574648 43.655338 431.493145 38.819172 
Q 432.411641 33.983007 433.573821 32.108524 
" clip-path="url(#p917b136bde)" style="fill: none; stroke: #000000; stroke-linejoin: miter"/>
   </g>
  </g>
  <g id="axes_28">
   <g id="patch_24">
    <path d="M 439.257798 38.160826 
Q 442.230275 39.535596 446.949083 39.721376 
Q 448.472477 39.721376 449.159862 38.550963 
Q 449.847248 37.38055 449.847248 35.82 
Q 449.847248 35.299817 449.754358 34.909679 
Q 449.661468 34.519541 449.419954 34.296606 
Q 449.17844 34.07367 449.011239 33.943624 
Q 448.844037 33.813578 448.398165 33.757844 
Q 447.952294 33.70211 447.747936 33.683532 
Q 447.543578 33.664954 446.967661 33.683532 
Q 446.391743 33.70211 446.168807 33.70211 
Q 444.125229 33.70211 442.638991 35.578486 
Q 441.152752 37.454862 441.152752 39.609908 
Q 441.152752 42.619541 443.084862 44.570229 
Q 445.016972 46.520917 448.063761 46.520917 
Q 450.218807 46.818165 451.742202 44.29156 
" clip-path="url(#p475f0ddc7c)" style="fill: none; stroke: #000000; stroke-linejoin: miter"/>
   </g>
  </g>
  <g id="axes_29"/>
  <g id="axes_30">
   <g id="patch_25">
    <path d="M 473.063834 37.95691 
L 473.738648 37.95691 
Q 474.450952 37.95691 475.238234 37.881931 
Q 476.025517 37.806952 476.981503 37.675738 
Q 477.93749 37.544524 478.462345 37.507034 
L 482.736166 35.82 
M 478.687283 30.42149 
L 478.687283 31.43371 
Q 478.687283 33.383172 478.012469 37.207117 
Q 477.337655 41.031062 477.337655 43.018014 
Q 477.337655 43.805297 477.337655 44.105214 
Q 477.337655 44.405131 477.431379 45.042455 
Q 477.525103 45.679779 477.712552 45.960952 
Q 477.9 46.242124 478.293641 46.485807 
Q 478.687283 46.72949 479.249628 46.72949 
Q 479.362097 46.692 479.680759 46.72949 
Q 479.999421 46.766979 480.186869 46.710745 
Q 480.374317 46.65451 480.374317 46.392083 
" clip-path="url(#p1f01d48b2f)" style="fill: none; stroke: #000000; stroke-linejoin: miter"/>
   </g>
  </g>
  <g id="axes_31">
   <g id="patch_26">
    <path d="M 490.613462 35.932469 
Q 491.213297 35.257655 492.206772 34.826524 
Q 493.200248 34.395393 494.1 34.470372 
Q 494.737324 34.470372 495.22469 34.639076 
Q 495.712055 34.807779 496.030717 34.995228 
Q 496.349379 35.182676 496.574317 35.670041 
Q 496.799255 36.157407 496.911724 36.419834 
Q 497.024193 36.682262 497.080428 37.375821 
Q 497.136662 38.069379 497.155407 38.331807 
Q 497.174152 38.594234 497.155407 39.419007 
Q 497.136662 40.243779 497.136662 40.431228 
Q 497.136662 41.368469 496.967959 43.242952 
Q 496.799255 45.117434 496.799255 46.054676 
Q 496.799255 46.467062 496.85549 46.823214 
Q 496.911724 47.179366 497.005448 47.610497 
Q 497.099172 48.041628 497.136662 48.304055 
L 497.586538 48.528993 
M 491.063338 23.111007 
Q 491.288276 24.798041 491.288276 29.971614 
L 491.288276 42.3432 
L 490.950869 46.841959 
L 490.725931 47.74171 
" clip-path="url(#p91cbe00080)" style="fill: none; stroke: #000000; stroke-linejoin: miter"/>
   </g>
  </g>
  <g id="axes_32">
   <g id="patch_27">
    <path d="M 504.057798 38.160826 
Q 507.030275 39.535596 511.749083 39.721376 
Q 513.272477 39.721376 513.959862 38.550963 
Q 514.647248 37.38055 514.647248 35.82 
Q 514.647248 35.299817 514.554358 34.909679 
Q 514.461468 34.519541 514.219954 34.296606 
Q 513.97844 34.07367 513.811239 33.943624 
Q 513.644037 33.813578 513.198165 33.757844 
Q 512.752294 33.70211 512.547936 33.683532 
Q 512.343578 33.664954 511.767661 33.683532 
Q 511.191743 33.70211 510.968807 33.70211 
Q 508.925229 33.70211 507.438991 35.578486 
Q 505.952752 37.454862 505.952752 39.609908 
Q 505.952752 42.619541 507.884862 44.570229 
Q 509.816972 46.520917 512.863761 46.520917 
Q 515.018807 46.818165 516.542202 44.29156 
" clip-path="url(#pd28d158da4)" style="fill: none; stroke: #000000; stroke-linejoin: miter"/>
   </g>
  </g>
  <g id="axes_33">
   <g id="patch_28">
    <path d="M 520.208036 34.879821 
Q 520.714286 36.073125 521.003571 42.871339 
Q 521.148214 46.632054 521.4375 46.632054 
Q 521.473661 46.632054 521.509821 46.595893 
Q 522.016071 46.017321 522.070313 44.588973 
Q 522.124554 43.160625 521.907589 41.750357 
Q 521.690625 40.340089 521.4375 38.712857 
Q 521.184375 37.085625 521.184375 36.398571 
Q 521.184375 35.169107 521.564063 33.939643 
Q 521.94375 32.710179 522.920089 32.710179 
Q 524.149554 32.710179 524.872768 34.355491 
Q 525.595982 36.000804 525.758705 37.971563 
Q 525.921429 39.942321 526.029911 41.587634 
Q 526.138393 43.232946 526.283036 43.232946 
Q 526.427679 43.232946 526.51808 41.497232 
Q 526.608482 39.761518 526.735045 37.700357 
Q 526.861607 35.639196 527.584821 33.903482 
Q 528.308036 32.167768 529.5375 32.167768 
Q 531.092411 33.035625 531.761384 34.771339 
Q 532.430357 36.507054 532.394196 38.188527 
Q 532.358036 39.87 532.376116 42.057723 
Q 532.394196 44.245446 532.791964 45.511071 
" clip-path="url(#p07906d4720)" style="fill: none; stroke: #000000; stroke-linejoin: miter"/>
   </g>
  </g>
  <g id="axes_34"/>
  <g id="axes_35">
   <g id="patch_29">
    <path d="M 564.443923 36.441748 
Q 563.234968 35.094627 559.262687 35.094627 
Q 557.742857 35.094627 556.965672 35.146439 
Q 556.188486 35.198252 555.18678 35.440043 
Q 554.185075 35.681834 553.701493 36.182687 
Q 553.21791 36.683539 552.872495 37.616162 
Q 552.527079 38.548785 552.527079 39.964989 
Q 552.527079 42.037484 553.943284 43.280981 
Q 555.359488 44.524478 557.293817 44.524478 
Q 559.953518 44.524478 562.716844 38.721493 
Q 564.063966 35.854542 564.063966 35.82 
Q 564.409382 35.578209 564.443923 36.441748 
Q 564.443923 37.512537 564.858422 40.362217 
Q 565.272921 43.211898 565.272921 44.524478 
" clip-path="url(#pf2af31ed28)" style="fill: none; stroke: #000000; stroke-linejoin: miter"/>
   </g>
  </g>
  <g id="axes_36">
   <g id="patch_30">
    <path d="M 574.706359 28.621986 
Q 574.931297 30.34651 575.006276 32.146014 
Q 575.081255 33.945517 575.06251 36.551048 
Q 575.043766 39.156579 575.043766 40.093821 
Q 575.043766 40.13131 575.268703 45.829738 
L 575.493641 46.841959 
" clip-path="url(#p2c12d7e23e)" style="fill: none; stroke: #000000; stroke-linejoin: miter"/>
   </g>
  </g>
  <g id="axes_37">
   <g id="patch_31">
    <path d="M 594.5616 35.032717 
Q 593.51189 34.582841 592.537159 34.69531 
Q 589.500497 35.032717 587.588524 36.701007 
Q 585.676552 38.369297 585.676552 41.330979 
Q 585.676552 43.917766 587.682248 45.6048 
Q 589.687945 47.291834 592.312221 47.291834 
Q 594.674069 47.291834 595.798759 45.361117 
Q 596.923448 43.4304 596.923448 40.881103 
Q 596.923448 39.643945 596.511062 38.706703 
Q 596.098676 37.769462 595.573821 37.300841 
Q 595.048966 36.832221 594.299172 36.119917 
Q 593.549379 35.407614 593.099503 34.69531 
L 591.862345 34.245434 
" clip-path="url(#p099ff477d1)" style="fill: none; stroke: #000000; stroke-linejoin: miter"/>
   </g>
  </g>
  <g id="axes_38">
   <g id="patch_32">
    <path d="M 603.038731 37.282097 
L 603.038731 37.844441 
Q 603.301159 39.868883 603.338648 41.312234 
Q 603.376138 42.755586 603.282414 44.667559 
Q 603.18869 46.579531 603.18869 48.191586 
L 603.263669 39.643945 
Q 603.263669 38.144359 604.856979 37.507034 
Q 606.45029 36.86971 607.874897 37.282097 
Q 609.786869 37.844441 610.705366 39.04411 
Q 611.623862 40.243779 611.680097 41.668386 
Q 611.736331 43.092993 611.773821 44.817517 
Q 611.81131 46.542041 611.961269 48.191586 
" clip-path="url(#pd7d3b99251)" style="fill: none; stroke: #000000; stroke-linejoin: miter"/>
   </g>
  </g>
  <g id="axes_39">
   <g id="patch_33">
    <path d="M 617.457798 38.160826 
Q 620.430275 39.535596 625.149083 39.721376 
Q 626.672477 39.721376 627.359862 38.550963 
Q 628.047248 37.38055 628.047248 35.82 
Q 628.047248 35.299817 627.954358 34.909679 
Q 627.861468 34.519541 627.619954 34.296606 
Q 627.37844 34.07367 627.211239 33.943624 
Q 627.044037 33.813578 626.598165 33.757844 
Q 626.152294 33.70211 625.947936 33.683532 
Q 625.743578 33.664954 625.167661 33.683532 
Q 624.591743 33.70211 624.368807 33.70211 
Q 622.325229 33.70211 620.838991 35.578486 
Q 619.352752 37.454862 619.352752 39.609908 
Q 619.352752 42.619541 621.284862 44.570229 
Q 623.216972 46.520917 626.263761 46.520917 
Q 628.418807 46.818165 629.942202 44.29156 
" clip-path="url(#paedef268af)" style="fill: none; stroke: #000000; stroke-linejoin: miter"/>
   </g>
  </g>
  <g id="axes_40"/>
  <g id="axes_41">
   <g id="patch_34">
    <path d="M 649.784141 38.85304 
L 650.212335 38.85304 
Q 651.03304 38.85304 651.996476 38.745991 
Q 652.959912 38.638943 654.119604 38.460529 
Q 655.279295 38.282115 655.885903 38.210749 
L 662.415859 35.427489 
M 662.094714 25.793128 
Q 661.809251 25.721762 660.774449 25.275727 
Q 659.739648 24.829692 659.097357 24.93674 
Q 658.455066 24.93674 657.937665 25.150837 
Q 657.420264 25.364934 657.081278 25.793128 
Q 656.742291 26.221322 656.47467 26.685198 
Q 656.207048 27.149075 656.064317 27.862731 
Q 655.921586 28.576388 655.814537 29.129471 
Q 655.707489 29.682555 655.689648 30.50326 
Q 655.671806 31.323965 655.653965 31.77 
Q 655.636123 32.216035 655.653965 32.965374 
Q 655.671806 33.714714 655.671806 33.928811 
Q 655.671806 36.605022 656.367621 41.850396 
Q 657.063436 47.095771 657.063436 49.771982 
Q 656.99207 50.057445 656.956388 50.681894 
Q 656.920705 51.306344 656.813656 51.805903 
Q 656.706608 52.305463 656.421145 52.555242 
" clip-path="url(#p1d4302c68b)" style="fill: none; stroke: #000000; stroke-linejoin: miter"/>
   </g>
  </g>
  <g id="axes_42">
   <g id="patch_35">
    <path d="M 675.5616 35.032717 
Q 674.51189 34.582841 673.537159 34.69531 
Q 670.500497 35.032717 668.588524 36.701007 
Q 666.676552 38.369297 666.676552 41.330979 
Q 666.676552 43.917766 668.682248 45.6048 
Q 670.687945 47.291834 673.312221 47.291834 
Q 675.674069 47.291834 676.798759 45.361117 
Q 677.923448 43.4304 677.923448 40.881103 
Q 677.923448 39.643945 677.511062 38.706703 
Q 677.098676 37.769462 676.573821 37.300841 
Q 676.048966 36.832221 675.299172 36.119917 
Q 674.549379 35.407614 674.099503 34.69531 
L 672.862345 34.245434 
" clip-path="url(#p6cda90b6f7)" style="fill: none; stroke: #000000; stroke-linejoin: miter"/>
   </g>
  </g>
  <g id="axes_43">
   <g id="patch_36">
    <path d="M 685.013462 32.783338 
Q 685.538317 34.507862 685.669531 36.457324 
Q 685.800745 38.406786 685.725766 40.956083 
Q 685.650786 43.505379 685.688276 44.705048 
L 685.800745 46.054676 
L 685.800745 45.829738 
Q 685.800745 44.667559 685.519572 42.30571 
Q 685.2384 39.943862 685.2384 38.744193 
Q 685.2384 36.419834 686.250621 34.882759 
Q 687.262841 33.345683 689.287283 33.345683 
Q 689.999586 33.345683 690.336993 33.626855 
Q 690.6744 33.908028 690.936828 34.432883 
Q 691.199255 34.957738 691.536662 35.257655 
L 691.986538 36.832221 
" clip-path="url(#pee206521bb)" style="fill: none; stroke: #000000; stroke-linejoin: miter"/>
   </g>
  </g>
  <g id="axes_44"/>
  <g id="axes_45">
   <g id="patch_37">
    <path d="M 726.443923 36.441748 
Q 725.234968 35.094627 721.262687 35.094627 
Q 719.742857 35.094627 718.965672 35.146439 
Q 718.188486 35.198252 717.18678 35.440043 
Q 716.185075 35.681834 715.701493 36.182687 
Q 715.21791 36.683539 714.872495 37.616162 
Q 714.527079 38.548785 714.527079 39.964989 
Q 714.527079 42.037484 715.943284 43.280981 
Q 717.359488 44.524478 719.293817 44.524478 
Q 721.953518 44.524478 724.716844 38.721493 
Q 726.063966 35.854542 726.063966 35.82 
Q 726.409382 35.578209 726.443923 36.441748 
Q 726.443923 37.512537 726.858422 40.362217 
Q 727.272921 43.211898 727.272921 44.524478 
" clip-path="url(#p8d574eb844)" style="fill: none; stroke: #000000; stroke-linejoin: miter"/>
   </g>
  </g>
 </g>
 <defs>
  <clipPath id="p769c2d6e7b">
   <rect x="5.325766" y="8.64" width="5.548469" height="54.36"/>
  </clipPath>
  <clipPath id="pfe7ca1656e">
   <rect x="16.2" y="17.382009" width="16.2" height="36.875981"/>
  </clipPath>
  <clipPath id="p6c782193b4">
   <rect x="35.138979" y="8.64" width="10.722041" height="54.36"/>
  </clipPath>
  <clipPath id="p42513797c2">
   <rect x="65.851945" y="8.64" width="14.09611" height="54.36"/>
  </clipPath>
  <clipPath id="p796548bbb4">
   <rect x="81" y="8.881927" width="16.2" height="53.876147"/>
  </clipPath>
  <clipPath id="p68d4e68910">
   <rect x="97.2" y="10.777356" width="16.2" height="50.085288"/>
  </clipPath>
  <clipPath id="p1b5bdd8533">
   <rect x="116.138979" y="8.64" width="10.722041" height="54.36"/>
  </clipPath>
  <clipPath id="pe00030118c">
   <rect x="135.000745" y="8.64" width="5.39851" height="54.36"/>
  </clipPath>
  <clipPath id="pd7708947e7">
   <rect x="162" y="16.753442" width="16.2" height="38.133117"/>
  </clipPath>
  <clipPath id="p2c1973f5cd">
   <rect x="194.4" y="11.850612" width="16.2" height="47.938776"/>
  </clipPath>
  <clipPath id="pd362ff55d8">
   <rect x="210.6" y="10.777356" width="16.2" height="50.085288"/>
  </clipPath>
  <clipPath id="pf57ae9e761">
   <rect x="228.564248" y="8.64" width="12.671503" height="54.36"/>
  </clipPath>
  <clipPath id="p63fe856ac0">
   <rect x="249.075559" y="8.64" width="4.048883" height="54.36"/>
  </clipPath>
  <clipPath id="p8cfa83476d">
   <rect x="260.589352" y="8.64" width="13.421297" height="54.36"/>
  </clipPath>
  <clipPath id="p8bad7f420a">
   <rect x="291.6" y="8.881927" width="16.2" height="53.876147"/>
  </clipPath>
  <clipPath id="p2e5d546f77">
   <rect x="309.751697" y="8.64" width="12.296607" height="54.36"/>
  </clipPath>
  <clipPath id="p0476ef07a9">
   <rect x="324" y="8.881927" width="16.2" height="53.876147"/>
  </clipPath>
  <clipPath id="p324ef13e05">
   <rect x="341.964248" y="8.64" width="12.671503" height="54.36"/>
  </clipPath>
  <clipPath id="p1bf3558961">
   <rect x="378.431876" y="8.64" width="4.536248" height="54.36"/>
  </clipPath>
  <clipPath id="pa2a2ea4c73">
   <rect x="388.8" y="8.881927" width="16.2" height="53.876147"/>
  </clipPath>
  <clipPath id="p1ffe752058">
   <rect x="405" y="10.777356" width="16.2" height="50.085288"/>
  </clipPath>
  <clipPath id="p917b136bde">
   <rect x="423.151697" y="8.64" width="12.296607" height="54.36"/>
  </clipPath>
  <clipPath id="p475f0ddc7c">
   <rect x="437.4" y="8.881927" width="16.2" height="53.876147"/>
  </clipPath>
  <clipPath id="p1f01d48b2f">
   <rect x="471.189352" y="8.64" width="13.421297" height="54.36"/>
  </clipPath>
  <clipPath id="p91cbe00080">
   <rect x="488.738979" y="8.64" width="10.722041" height="54.36"/>
  </clipPath>
  <clipPath id="pd28d158da4">
   <rect x="502.2" y="8.881927" width="16.2" height="53.876147"/>
  </clipPath>
  <clipPath id="p07906d4720">
   <rect x="518.4" y="9.603482" width="16.2" height="52.433036"/>
  </clipPath>
  <clipPath id="pf2af31ed28">
   <rect x="550.8" y="10.777356" width="16.2" height="50.085288"/>
  </clipPath>
  <clipPath id="p2c12d7e23e">
   <rect x="572.831876" y="8.64" width="4.536248" height="54.36"/>
  </clipPath>
  <clipPath id="p099ff477d1">
   <rect x="583.802069" y="8.64" width="14.995862" height="54.36"/>
  </clipPath>
  <clipPath id="pd7d3b99251">
   <rect x="601.164248" y="8.64" width="12.671503" height="54.36"/>
  </clipPath>
  <clipPath id="paedef268af">
   <rect x="615.6" y="8.881927" width="16.2" height="53.876147"/>
  </clipPath>
  <clipPath id="p1d4302c68b">
   <rect x="648" y="9.949956" width="16.2" height="51.740088"/>
  </clipPath>
  <clipPath id="p6cda90b6f7">
   <rect x="664.802069" y="8.64" width="14.995862" height="54.36"/>
  </clipPath>
  <clipPath id="pee206521bb">
   <rect x="683.138979" y="8.64" width="10.722041" height="54.36"/>
  </clipPath>
  <clipPath id="p8d574eb844">
   <rect x="712.8" y="10.777356" width="16.2" height="50.085288"/>
  </clipPath>
 </defs>
</svg>
