<?xml version="1.0" encoding="utf-8" standalone="no"?>
<!DOCTYPE svg PUBLIC "-//W3C//DTD SVG 1.1//EN"
  "http://www.w3.org/Graphics/SVG/1.1/DTD/svg11.dtd">
<svg xmlns:xlink="http://www.w3.org/1999/xlink" width="540pt" height="72pt" viewBox="0 0 540 72" xmlns="http://www.w3.org/2000/svg" version="1.1">
 <metadata>
  <rdf:RDF xmlns:dc="http://purl.org/dc/elements/1.1/" xmlns:cc="http://creativecommons.org/ns#" xmlns:rdf="http://www.w3.org/1999/02/22-rdf-syntax-ns#">
   <cc:Work>
    <dc:type rdf:resource="http://purl.org/dc/dcmitype/StillImage"/>
    <dc:date>2023-12-21T12:09:16.603719</dc:date>
    <dc:format>image/svg+xml</dc:format>
    <dc:creator>
     <cc:Agent>
      <dc:title>Matplotlib v3.5.1, https://matplotlib.org/</dc:title>
     </cc:Agent>
    </dc:creator>
   </cc:Work>
  </rdf:RDF>
 </metadata>
 <defs>
  <style type="text/css">*{stroke-linejoin: round; stroke-linecap: butt}</style>
 </defs>
 <g id="figure_1">
  <g id="patch_1">
   <path d="M 0 72 
L 540 72 
L 540 0 
L 0 0 
z
" style="fill: #8fff9f"/>
  </g>
  <g id="axes_1">
   <g id="patch_2">
    <path d="M 8.624855 27.009931 
Q 8.699834 27.347338 8.774814 28.265834 
Q 8.849793 29.184331 8.999752 29.634207 
L 8.924772 31.058814 
M 7.275228 27.309848 
Q 7.237738 27.309848 7.200248 27.534786 
Q 7.237738 27.684745 7.350207 28.828179 
Q 7.462676 29.971614 7.725103 30.533959 
" clip-path="url(#pfd289311eb)" style="fill: none; stroke: #000000; stroke-linejoin: miter"/>
   </g>
  </g>
  <g id="axes_2">
   <g id="patch_3">
    <path d="M 17.287248 30.470738 
L 18.461477 30.601208 
Q 20.288054 30.601208 22.125503 30.709933 
Q 23.962953 30.818658 26.202685 30.992617 
Q 28.442416 31.166577 29.877584 31.253557 
L 31.312752 31.123087 
M 24.071678 31.057852 
Q 24.136913 31.405772 23.875973 32.177718 
Q 23.615034 32.949664 23.810738 33.406309 
Q 23.810738 34.711007 23.952081 36.363624 
Q 24.093423 38.016242 24.310872 39.973289 
Q 24.528322 41.930336 24.593557 42.800134 
" clip-path="url(#pa09d809342)" style="fill: none; stroke: #000000; stroke-linejoin: miter"/>
   </g>
  </g>
  <g id="axes_3">
   <g id="patch_4">
    <path d="M 37.013462 35.932469 
Q 37.613297 35.257655 38.606772 34.826524 
Q 39.600248 34.395393 40.5 34.470372 
Q 41.137324 34.470372 41.62469 34.639076 
Q 42.112055 34.807779 42.430717 34.995228 
Q 42.749379 35.182676 42.974317 35.670041 
Q 43.199255 36.157407 43.311724 36.419834 
Q 43.424193 36.682262 43.480428 37.375821 
Q 43.536662 38.069379 43.555407 38.331807 
Q 43.574152 38.594234 43.555407 39.419007 
Q 43.536662 40.243779 43.536662 40.431228 
Q 43.536662 41.368469 43.367959 43.242952 
Q 43.199255 45.117434 43.199255 46.054676 
Q 43.199255 46.467062 43.25549 46.823214 
Q 43.311724 47.179366 43.405448 47.610497 
Q 43.499172 48.041628 43.536662 48.304055 
L 43.986538 48.528993 
M 37.463338 23.111007 
Q 37.688276 24.798041 37.688276 29.971614 
L 37.688276 42.3432 
L 37.350869 46.841959 
L 37.125931 47.74171 
" clip-path="url(#p795e975d9e)" style="fill: none; stroke: #000000; stroke-linejoin: miter"/>
   </g>
  </g>
  <g id="axes_4">
   <g id="patch_5">
    <path d="M 50.457798 38.160826 
Q 53.430275 39.535596 58.149083 39.721376 
Q 59.672477 39.721376 60.359862 38.550963 
Q 61.047248 37.38055 61.047248 35.82 
Q 61.047248 35.299817 60.954358 34.909679 
Q 60.861468 34.519541 60.619954 34.296606 
Q 60.37844 34.07367 60.211239 33.943624 
Q 60.044037 33.813578 59.598165 33.757844 
Q 59.152294 33.70211 58.947936 33.683532 
Q 58.743578 33.664954 58.167661 33.683532 
Q 57.591743 33.70211 57.368807 33.70211 
Q 55.325229 33.70211 53.838991 35.578486 
Q 52.352752 37.454862 52.352752 39.609908 
Q 52.352752 42.619541 54.284862 44.570229 
Q 56.216972 46.520917 59.263761 46.520917 
Q 61.418807 46.818165 62.942202 44.29156 
" clip-path="url(#p1a0aa3af16)" style="fill: none; stroke: #000000; stroke-linejoin: miter"/>
   </g>
  </g>
  <g id="axes_5">
   <g id="patch_6">
    <path d="M 67.763917 36.382345 
Q 67.726428 36.494814 67.857641 36.701007 
Q 67.988855 36.9072 67.876386 37.057159 
L 67.876386 39.306538 
Q 67.876386 40.506207 68.213793 41.724621 
Q 68.5512 42.943034 69.413462 43.93651 
Q 70.275724 44.929986 71.475393 44.929986 
Q 72.712552 44.929986 73.387366 43.861531 
Q 74.062179 42.793076 74.512055 41.143531 
Q 74.961931 39.493986 75.299338 38.969131 
L 76.086621 36.382345 
L 75.861683 42.680607 
L 75.861683 45.154924 
Q 75.861683 47.066897 76.592731 51.00331 
Q 77.323779 54.939724 77.323779 56.964166 
Q 78.073572 59.213545 76.986372 60.188276 
Q 75.899172 61.163007 73.837241 60.78811 
Q 72.037738 60.488193 71.119241 60.169531 
Q 70.200745 59.850869 68.213793 58.988607 
L 68.101324 58.426262 
" clip-path="url(#pb0104315b5)" style="fill: none; stroke: #000000; stroke-linejoin: miter"/>
   </g>
  </g>
  <g id="axes_6"/>
  <g id="axes_7">
   <g id="patch_7">
    <path d="M 100.857476 43.917766 
Q 101.157393 44.180193 102.169614 45.154924 
Q 103.181834 46.129655 103.744179 46.560786 
Q 104.306524 46.991917 105.33749 47.385559 
Q 106.368455 47.7792 107.380676 47.629241 
Q 108.05549 47.629241 108.52411 47.404303 
Q 108.992731 47.179366 109.217669 46.879448 
Q 109.442607 46.579531 109.573821 45.979697 
Q 109.705034 45.379862 109.723779 44.967476 
Q 109.742524 44.55509 109.742524 43.805297 
Q 109.742524 42.718097 108.842772 42.043283 
Q 107.943021 41.368469 106.649628 41.031062 
Q 105.356234 40.693655 104.062841 40.300014 
Q 102.769448 39.906372 101.869697 38.987876 
Q 100.969945 38.069379 100.969945 36.607283 
Q 100.969945 36.082428 101.138648 35.726276 
Q 101.307352 35.370124 101.700993 35.145186 
Q 102.094634 34.920248 102.375807 34.807779 
Q 102.656979 34.69531 103.313048 34.639076 
Q 103.969117 34.582841 104.156566 34.582841 
Q 104.344014 34.582841 105.018828 34.582841 
Q 106.218497 34.582841 106.799586 34.995228 
Q 107.380676 35.407614 107.699338 36.026193 
Q 108.018 36.644772 108.280428 36.832221 
" clip-path="url(#pcb1bb923cb)" style="fill: none; stroke: #000000; stroke-linejoin: miter"/>
   </g>
  </g>
  <g id="axes_8">
   <g id="patch_8">
    <path d="M 116.888772 35.145186 
Q 116.888772 35.145186 116.888772 35.595062 
Q 116.888772 36.269876 116.776303 37.619503 
Q 116.663834 38.969131 116.663834 39.643945 
Q 116.663834 41.930814 117.900993 43.599103 
Q 119.138152 45.267393 121.275062 45.267393 
Q 122.662179 45.154924 123.430717 43.917766 
Q 124.199255 42.680607 124.349214 41.237255 
Q 124.499172 39.793903 124.7616 37.9944 
Q 125.024028 36.194897 125.436414 35.370124 
Q 125.586372 35.070207 125.586372 35.670041 
Q 125.586372 36.269876 125.323945 38.706703 
Q 125.099007 41.031062 125.099007 41.555917 
Q 124.949048 42.643117 125.286455 43.767807 
Q 125.623862 44.892497 126.336166 45.6048 
" clip-path="url(#p3262c44661)" style="fill: none; stroke: #000000; stroke-linejoin: miter"/>
   </g>
  </g>
  <g id="axes_9">
   <g id="patch_9">
    <path d="M 134.213462 32.783338 
Q 134.738317 34.507862 134.869531 36.457324 
Q 135.000745 38.406786 134.925766 40.956083 
Q 134.850786 43.505379 134.888276 44.705048 
L 135.000745 46.054676 
L 135.000745 45.829738 
Q 135.000745 44.667559 134.719572 42.30571 
Q 134.4384 39.943862 134.4384 38.744193 
Q 134.4384 36.419834 135.450621 34.882759 
Q 136.462841 33.345683 138.487283 33.345683 
Q 139.199586 33.345683 139.536993 33.626855 
Q 139.8744 33.908028 140.136828 34.432883 
Q 140.399255 34.957738 140.736662 35.257655 
L 141.186538 36.832221 
" clip-path="url(#pca8ffa87d3)" style="fill: none; stroke: #000000; stroke-linejoin: miter"/>
   </g>
  </g>
  <g id="axes_10">
   <g id="patch_10">
    <path d="M 147.657798 38.160826 
Q 150.630275 39.535596 155.349083 39.721376 
Q 156.872477 39.721376 157.559862 38.550963 
Q 158.247248 37.38055 158.247248 35.82 
Q 158.247248 35.299817 158.154358 34.909679 
Q 158.061468 34.519541 157.819954 34.296606 
Q 157.57844 34.07367 157.411239 33.943624 
Q 157.244037 33.813578 156.798165 33.757844 
Q 156.352294 33.70211 156.147936 33.683532 
Q 155.943578 33.664954 155.367661 33.683532 
Q 154.791743 33.70211 154.568807 33.70211 
Q 152.525229 33.70211 151.038991 35.578486 
Q 149.552752 37.454862 149.552752 39.609908 
Q 149.552752 42.619541 151.484862 44.570229 
Q 153.416972 46.520917 156.463761 46.520917 
Q 158.618807 46.818165 160.142202 44.29156 
" clip-path="url(#p25744ad167)" style="fill: none; stroke: #000000; stroke-linejoin: miter"/>
   </g>
  </g>
  <g id="axes_11"/>
  <g id="axes_12">
   <g id="patch_11">
    <path d="M 189.899007 39.568966 
Q 188.549379 38.181848 186.3 38.444276 
Q 183.450786 38.444276 182.288607 39.793903 
Q 181.126428 41.143531 181.126428 44.067724 
Q 181.126428 45.56731 182.419821 46.279614 
Q 183.713214 46.991917 185.287779 46.991917 
Q 186.599917 46.991917 187.612138 45.736014 
Q 188.624359 44.48011 189.205448 42.30571 
Q 189.786538 40.13131 190.161434 37.938166 
Q 190.536331 35.745021 190.68629 33.045766 
Q 190.836248 30.34651 190.873738 28.978138 
Q 190.911228 27.609766 190.911228 26.185159 
Q 190.68629 26.260138 190.68629 29.896634 
L 190.68629 44.292662 
L 191.473572 48.229076 
" clip-path="url(#p774a285be9)" style="fill: none; stroke: #000000; stroke-linejoin: miter"/>
   </g>
  </g>
  <g id="axes_13">
   <g id="patch_12">
    <path d="M 205.7616 35.032717 
Q 204.71189 34.582841 203.737159 34.69531 
Q 200.700497 35.032717 198.788524 36.701007 
Q 196.876552 38.369297 196.876552 41.330979 
Q 196.876552 43.917766 198.882248 45.6048 
Q 200.887945 47.291834 203.512221 47.291834 
Q 205.874069 47.291834 206.998759 45.361117 
Q 208.123448 43.4304 208.123448 40.881103 
Q 208.123448 39.643945 207.711062 38.706703 
Q 207.298676 37.769462 206.773821 37.300841 
Q 206.248966 36.832221 205.499172 36.119917 
Q 204.749379 35.407614 204.299503 34.69531 
L 203.062345 34.245434 
" clip-path="url(#pd54669c589)" style="fill: none; stroke: #000000; stroke-linejoin: miter"/>
   </g>
  </g>
  <g id="axes_14">
   <g id="patch_13">
    <path d="M 217.987697 39.981352 
Q 218.999917 40.956083 219.337324 42.905545 
Q 219.524772 43.955255 219.112386 46.167145 
L 217.875228 47.629241 
" clip-path="url(#p40383f9a3e)" style="fill: none; stroke: #000000; stroke-linejoin: miter"/>
   </g>
  </g>
  <g id="axes_15">
   <g id="patch_14">
    <path d="M 235.424855 27.009931 
Q 235.499834 27.347338 235.574814 28.265834 
Q 235.649793 29.184331 235.799752 29.634207 
L 235.724772 31.058814 
M 234.075228 27.309848 
Q 234.037738 27.309848 234.000248 27.534786 
Q 234.037738 27.684745 234.150207 28.828179 
Q 234.262676 29.971614 234.525103 30.533959 
" clip-path="url(#p16254a35aa)" style="fill: none; stroke: #000000; stroke-linejoin: miter"/>
   </g>
  </g>
  <g id="axes_16"/>
  <g id="axes_17">
   <g id="patch_15">
    <path d="M 262.857476 43.917766 
Q 263.157393 44.180193 264.169614 45.154924 
Q 265.181834 46.129655 265.744179 46.560786 
Q 266.306524 46.991917 267.33749 47.385559 
Q 268.368455 47.7792 269.380676 47.629241 
Q 270.05549 47.629241 270.52411 47.404303 
Q 270.992731 47.179366 271.217669 46.879448 
Q 271.442607 46.579531 271.573821 45.979697 
Q 271.705034 45.379862 271.723779 44.967476 
Q 271.742524 44.55509 271.742524 43.805297 
Q 271.742524 42.718097 270.842772 42.043283 
Q 269.943021 41.368469 268.649628 41.031062 
Q 267.356234 40.693655 266.062841 40.300014 
Q 264.769448 39.906372 263.869697 38.987876 
Q 262.969945 38.069379 262.969945 36.607283 
Q 262.969945 36.082428 263.138648 35.726276 
Q 263.307352 35.370124 263.700993 35.145186 
Q 264.094634 34.920248 264.375807 34.807779 
Q 264.656979 34.69531 265.313048 34.639076 
Q 265.969117 34.582841 266.156566 34.582841 
Q 266.344014 34.582841 267.018828 34.582841 
Q 268.218497 34.582841 268.799586 34.995228 
Q 269.380676 35.407614 269.699338 36.026193 
Q 270.018 36.644772 270.280428 36.832221 
" clip-path="url(#p653f7d878d)" style="fill: none; stroke: #000000; stroke-linejoin: miter"/>
   </g>
  </g>
  <g id="axes_18">
   <g id="patch_16">
    <path d="M 277.208036 34.879821 
Q 277.714286 36.073125 278.003571 42.871339 
Q 278.148214 46.632054 278.4375 46.632054 
Q 278.473661 46.632054 278.509821 46.595893 
Q 279.016071 46.017321 279.070313 44.588973 
Q 279.124554 43.160625 278.907589 41.750357 
Q 278.690625 40.340089 278.4375 38.712857 
Q 278.184375 37.085625 278.184375 36.398571 
Q 278.184375 35.169107 278.564063 33.939643 
Q 278.94375 32.710179 279.920089 32.710179 
Q 281.149554 32.710179 281.872768 34.355491 
Q 282.595982 36.000804 282.758705 37.971563 
Q 282.921429 39.942321 283.029911 41.587634 
Q 283.138393 43.232946 283.283036 43.232946 
Q 283.427679 43.232946 283.51808 41.497232 
Q 283.608482 39.761518 283.735045 37.700357 
Q 283.861607 35.639196 284.584821 33.903482 
Q 285.308036 32.167768 286.5375 32.167768 
Q 288.092411 33.035625 288.761384 34.771339 
Q 289.430357 36.507054 289.394196 38.188527 
Q 289.358036 39.87 289.376116 42.057723 
Q 289.394196 44.245446 289.791964 45.511071 
" clip-path="url(#pb787992f50)" style="fill: none; stroke: #000000; stroke-linejoin: miter"/>
   </g>
  </g>
  <g id="axes_19">
   <g id="patch_17">
    <path d="M 300.318579 29.071862 
Q 299.943683 29.146841 299.812469 29.577972 
Q 299.681255 30.009103 299.756234 30.42149 
Q 299.756234 30.571448 299.793724 30.702662 
Q 299.831214 30.833876 299.887448 30.89011 
Q 299.943683 30.946345 299.999917 31.040069 
Q 300.056152 31.133793 300.093641 31.208772 
L 300.20611 29.859145 
M 300.20611 34.020497 
Q 299.306359 39.006621 299.081421 42.793076 
L 299.531297 45.379862 
L 299.868703 46.054676 
" clip-path="url(#p4857b35552)" style="fill: none; stroke: #000000; stroke-linejoin: miter"/>
   </g>
  </g>
  <g id="axes_20">
   <g id="patch_18">
    <path d="M 315.506359 28.621986 
Q 315.731297 30.34651 315.806276 32.146014 
Q 315.881255 33.945517 315.86251 36.551048 
Q 315.843766 39.156579 315.843766 40.093821 
Q 315.843766 40.13131 316.068703 45.829738 
L 316.293641 46.841959 
" clip-path="url(#pc12624c79b)" style="fill: none; stroke: #000000; stroke-linejoin: miter"/>
   </g>
  </g>
  <g id="axes_21">
   <g id="patch_19">
    <path d="M 325.857798 38.160826 
Q 328.830275 39.535596 333.549083 39.721376 
Q 335.072477 39.721376 335.759862 38.550963 
Q 336.447248 37.38055 336.447248 35.82 
Q 336.447248 35.299817 336.354358 34.909679 
Q 336.261468 34.519541 336.019954 34.296606 
Q 335.77844 34.07367 335.611239 33.943624 
Q 335.444037 33.813578 334.998165 33.757844 
Q 334.552294 33.70211 334.347936 33.683532 
Q 334.143578 33.664954 333.567661 33.683532 
Q 332.991743 33.70211 332.768807 33.70211 
Q 330.725229 33.70211 329.238991 35.578486 
Q 327.752752 37.454862 327.752752 39.609908 
Q 327.752752 42.619541 329.684862 44.570229 
Q 331.616972 46.520917 334.663761 46.520917 
Q 336.818807 46.818165 338.342202 44.29156 
" clip-path="url(#p0810c9b3c3)" style="fill: none; stroke: #000000; stroke-linejoin: miter"/>
   </g>
  </g>
  <g id="axes_22">
   <g id="patch_20">
    <path d="M 343.857476 43.917766 
Q 344.157393 44.180193 345.169614 45.154924 
Q 346.181834 46.129655 346.744179 46.560786 
Q 347.306524 46.991917 348.33749 47.385559 
Q 349.368455 47.7792 350.380676 47.629241 
Q 351.05549 47.629241 351.52411 47.404303 
Q 351.992731 47.179366 352.217669 46.879448 
Q 352.442607 46.579531 352.573821 45.979697 
Q 352.705034 45.379862 352.723779 44.967476 
Q 352.742524 44.55509 352.742524 43.805297 
Q 352.742524 42.718097 351.842772 42.043283 
Q 350.943021 41.368469 349.649628 41.031062 
Q 348.356234 40.693655 347.062841 40.300014 
Q 345.769448 39.906372 344.869697 38.987876 
Q 343.969945 38.069379 343.969945 36.607283 
Q 343.969945 36.082428 344.138648 35.726276 
Q 344.307352 35.370124 344.700993 35.145186 
Q 345.094634 34.920248 345.375807 34.807779 
Q 345.656979 34.69531 346.313048 34.639076 
Q 346.969117 34.582841 347.156566 34.582841 
Q 347.344014 34.582841 348.018828 34.582841 
Q 349.218497 34.582841 349.799586 34.995228 
Q 350.380676 35.407614 350.699338 36.026193 
Q 351.018 36.644772 351.280428 36.832221 
" clip-path="url(#p8486c1c674)" style="fill: none; stroke: #000000; stroke-linejoin: miter"/>
   </g>
  </g>
  <g id="axes_23"/>
  <g id="axes_24">
   <g id="patch_21">
    <path d="M 377.381498 38.139383 
Q 377.381498 38.139383 379.415419 38.139383 
Q 380.236123 37.889604 382.555507 38.085859 
Q 384.87489 38.282115 385.838326 38.139383 
M 374.384141 46.489163 
L 374.491189 46.168018 
Q 374.491189 45.275947 376.418062 40.797753 
Q 378.344934 36.319559 380.307489 32.251718 
Q 382.270044 28.183877 382.412775 28.183877 
Q 383.269163 28.183877 383.964978 29.646872 
Q 384.660793 31.109868 385.12467 33.393568 
Q 385.588546 35.677269 385.927533 37.943128 
Q 386.26652 40.208987 386.551982 42.332115 
Q 386.837445 44.455242 387.015859 45.097533 
" clip-path="url(#pb52487c0b9)" style="fill: none; stroke: #000000; stroke-linejoin: miter"/>
   </g>
  </g>
  <g id="axes_25">
   <g id="patch_22">
    <path d="M 392.438731 37.282097 
L 392.438731 37.844441 
Q 392.701159 39.868883 392.738648 41.312234 
Q 392.776138 42.755586 392.682414 44.667559 
Q 392.58869 46.579531 392.58869 48.191586 
L 392.663669 39.643945 
Q 392.663669 38.144359 394.256979 37.507034 
Q 395.85029 36.86971 397.274897 37.282097 
Q 399.186869 37.844441 400.105366 39.04411 
Q 401.023862 40.243779 401.080097 41.668386 
Q 401.136331 43.092993 401.173821 44.817517 
Q 401.21131 46.542041 401.361269 48.191586 
" clip-path="url(#p16fb289501)" style="fill: none; stroke: #000000; stroke-linejoin: miter"/>
   </g>
  </g>
  <g id="axes_26">
   <g id="patch_23">
    <path d="M 417.887191 39.096404 
Q 417.63236 39.023596 416.66764 38.623146 
Q 415.702921 38.222697 415.04764 38.077079 
Q 414.39236 37.931461 413.737079 38.00427 
Q 411.115955 38.00427 409.477753 40.388764 
Q 407.839551 42.773258 407.839551 45.430787 
Q 407.839551 47.068989 413.081798 47.068989 
Q 414.647191 47.068989 415.975955 45.558202 
Q 417.304719 44.047416 417.978202 42.172584 
Q 418.651685 40.297753 418.651685 38.768764 
Q 418.651685 37.27618 418.615281 36.984944 
L 418.542472 38.077079 
Q 418.542472 38.550337 418.542472 38.987191 
Q 418.578876 40.188539 418.779101 42.281798 
Q 418.979326 44.375056 419.143146 46.049663 
Q 419.306966 47.72427 419.343371 49.872135 
Q 419.379775 52.02 419.215955 53.658202 
Q 419.052135 55.296404 418.487865 56.971011 
Q 417.923596 58.645618 416.995281 59.737753 
Q 416.066966 60.829888 414.465169 61.521573 
Q 412.863371 62.213258 410.715506 62.213258 
Q 409.077303 62.213258 407.985169 61.466966 
Q 406.893034 60.720674 406.893034 59.155281 
Q 406.820225 58.936854 406.856629 58.936854 
Q 406.893034 58.936854 407.002247 58.936854 
Q 407.111461 58.936854 407.111461 58.82764 
" clip-path="url(#p4924796845)" style="fill: none; stroke: #000000; stroke-linejoin: miter"/>
   </g>
  </g>
  <g id="axes_27">
   <g id="patch_24">
    <path d="M 423.057798 38.160826 
Q 426.030275 39.535596 430.749083 39.721376 
Q 432.272477 39.721376 432.959862 38.550963 
Q 433.647248 37.38055 433.647248 35.82 
Q 433.647248 35.299817 433.554358 34.909679 
Q 433.461468 34.519541 433.219954 34.296606 
Q 432.97844 34.07367 432.811239 33.943624 
Q 432.644037 33.813578 432.198165 33.757844 
Q 431.752294 33.70211 431.547936 33.683532 
Q 431.343578 33.664954 430.767661 33.683532 
Q 430.191743 33.70211 429.968807 33.70211 
Q 427.925229 33.70211 426.438991 35.578486 
Q 424.952752 37.454862 424.952752 39.609908 
Q 424.952752 42.619541 426.884862 44.570229 
Q 428.816972 46.520917 431.863761 46.520917 
Q 434.018807 46.818165 435.542202 44.29156 
" clip-path="url(#p63d326b26c)" style="fill: none; stroke: #000000; stroke-linejoin: miter"/>
   </g>
  </g>
  <g id="axes_28">
   <g id="patch_25">
    <path d="M 445.106359 28.621986 
Q 445.331297 30.34651 445.406276 32.146014 
Q 445.481255 33.945517 445.46251 36.551048 
Q 445.443766 39.156579 445.443766 40.093821 
Q 445.443766 40.13131 445.668703 45.829738 
L 445.893641 46.841959 
" clip-path="url(#p72b27c2997)" style="fill: none; stroke: #000000; stroke-linejoin: miter"/>
   </g>
  </g>
  <g id="axes_29">
   <g id="patch_26">
    <path d="M 467.243923 36.441748 
Q 466.034968 35.094627 462.062687 35.094627 
Q 460.542857 35.094627 459.765672 35.146439 
Q 458.988486 35.198252 457.98678 35.440043 
Q 456.985075 35.681834 456.501493 36.182687 
Q 456.01791 36.683539 455.672495 37.616162 
Q 455.327079 38.548785 455.327079 39.964989 
Q 455.327079 42.037484 456.743284 43.280981 
Q 458.159488 44.524478 460.093817 44.524478 
Q 462.753518 44.524478 465.516844 38.721493 
Q 466.863966 35.854542 466.863966 35.82 
Q 467.209382 35.578209 467.243923 36.441748 
Q 467.243923 37.512537 467.658422 40.362217 
Q 468.072921 43.211898 468.072921 44.524478 
" clip-path="url(#pfd9536fb9f)" style="fill: none; stroke: #000000; stroke-linejoin: miter"/>
   </g>
  </g>
  <g id="axes_30">
   <g id="patch_27">
    <path d="M 477.787531 45.979697 
Q 477.750041 46.017186 477.618828 46.054676 
Q 477.487614 46.092166 477.525103 46.167145 
Q 477.525103 46.579531 477.9 46.579531 
Q 478.237407 46.579531 478.237407 46.092166 
Q 478.312386 45.867228 478.031214 45.754759 
Q 477.750041 45.64229 477.562593 45.754759 
" clip-path="url(#p648f48c1af)" style="fill: none; stroke: #000000; stroke-linejoin: miter"/>
   </g>
  </g>
 </g>
 <defs>
  <clipPath id="pfd289311eb">
   <rect x="5.325766" y="8.64" width="5.548469" height="54.36"/>
  </clipPath>
  <clipPath id="pa09d809342">
   <rect x="16.2" y="20.054899" width="16.2" height="31.530201"/>
  </clipPath>
  <clipPath id="p795e975d9e">
   <rect x="35.138979" y="8.64" width="10.722041" height="54.36"/>
  </clipPath>
  <clipPath id="p1a0aa3af16">
   <rect x="48.6" y="8.881927" width="16.2" height="53.876147"/>
  </clipPath>
  <clipPath id="pb0104315b5">
   <rect x="65.851945" y="8.64" width="14.09611" height="54.36"/>
  </clipPath>
  <clipPath id="pcb1bb923cb">
   <rect x="98.982993" y="8.64" width="12.634014" height="54.36"/>
  </clipPath>
  <clipPath id="p3262c44661">
   <rect x="114.789352" y="8.64" width="13.421297" height="54.36"/>
  </clipPath>
  <clipPath id="pca8ffa87d3">
   <rect x="132.338979" y="8.64" width="10.722041" height="54.36"/>
  </clipPath>
  <clipPath id="p25744ad167">
   <rect x="145.8" y="8.881927" width="16.2" height="53.876147"/>
  </clipPath>
  <clipPath id="p774a285be9">
   <rect x="179.251945" y="8.64" width="14.09611" height="54.36"/>
  </clipPath>
  <clipPath id="pd54669c589">
   <rect x="195.002069" y="8.64" width="14.995862" height="54.36"/>
  </clipPath>
  <clipPath id="p40383f9a3e">
   <rect x="216.000745" y="8.64" width="5.39851" height="54.36"/>
  </clipPath>
  <clipPath id="p16254a35aa">
   <rect x="232.125766" y="8.64" width="5.548469" height="54.36"/>
  </clipPath>
  <clipPath id="p653f7d878d">
   <rect x="260.982993" y="8.64" width="12.634014" height="54.36"/>
  </clipPath>
  <clipPath id="pb787992f50">
   <rect x="275.4" y="9.603482" width="16.2" height="52.433036"/>
  </clipPath>
  <clipPath id="p4857b35552">
   <rect x="297.206938" y="8.64" width="4.986124" height="54.36"/>
  </clipPath>
  <clipPath id="pc12624c79b">
   <rect x="313.631876" y="8.64" width="4.536248" height="54.36"/>
  </clipPath>
  <clipPath id="p0810c9b3c3">
   <rect x="324" y="8.881927" width="16.2" height="53.876147"/>
  </clipPath>
  <clipPath id="p8486c1c674">
   <rect x="341.982993" y="8.64" width="12.634014" height="54.36"/>
  </clipPath>
  <clipPath id="pb52487c0b9">
   <rect x="372.6" y="9.949956" width="16.2" height="51.740088"/>
  </clipPath>
  <clipPath id="p16fb289501">
   <rect x="390.564248" y="8.64" width="12.671503" height="54.36"/>
  </clipPath>
  <clipPath id="p4924796845">
   <rect x="405" y="9.426742" width="16.2" height="52.786517"/>
  </clipPath>
  <clipPath id="p63d326b26c">
   <rect x="421.2" y="8.881927" width="16.2" height="53.876147"/>
  </clipPath>
  <clipPath id="p72b27c2997">
   <rect x="443.231876" y="8.64" width="4.536248" height="54.36"/>
  </clipPath>
  <clipPath id="pfd9536fb9f">
   <rect x="453.6" y="10.777356" width="16.2" height="50.085288"/>
  </clipPath>
  <clipPath id="p648f48c1af">
   <rect x="475.613131" y="8.64" width="4.573738" height="54.36"/>
  </clipPath>
 </defs>
</svg>
