<?xml version="1.0" encoding="utf-8" standalone="no"?>
<!DOCTYPE svg PUBLIC "-//W3C//DTD SVG 1.1//EN"
  "http://www.w3.org/Graphics/SVG/1.1/DTD/svg11.dtd">
<svg xmlns:xlink="http://www.w3.org/1999/xlink" width="324pt" height="72pt" viewBox="0 0 324 72" xmlns="http://www.w3.org/2000/svg" version="1.1">
 <metadata>
  <rdf:RDF xmlns:dc="http://purl.org/dc/elements/1.1/" xmlns:cc="http://creativecommons.org/ns#" xmlns:rdf="http://www.w3.org/1999/02/22-rdf-syntax-ns#">
   <cc:Work>
    <dc:type rdf:resource="http://purl.org/dc/dcmitype/StillImage"/>
    <dc:date>2023-01-02T13:25:23.532943</dc:date>
    <dc:format>image/svg+xml</dc:format>
    <dc:creator>
     <cc:Agent>
      <dc:title>Matplotlib v3.6.1, https://matplotlib.org/</dc:title>
     </cc:Agent>
    </dc:creator>
   </cc:Work>
  </rdf:RDF>
 </metadata>
 <defs>
  <style type="text/css">*{stroke-linejoin: round; stroke-linecap: butt}</style>
 </defs>
 <g id="figure_1">
  <g id="patch_1">
   <path d="M 0 72 
L 324 72 
L 324 0 
L 0 0 
L 0 72 
z
" style="fill: none"/>
  </g>
  <g id="axes_1">
   <g id="patch_2">
    <path d="M 4.163586 25.585324 
Q 5.325766 26.0352 7.443931 27.965917 
Q 9.562097 29.896634 11.024193 30.309021 
M 4.388524 47.74171 
Q 5.775641 47.704221 8.437407 46.991917 
Q 11.099172 46.279614 11.586538 46.167145 
L 13.610979 45.267393 
M 3.938648 39.981352 
L 10.461848 38.856662 
M 2.589021 32.333462 
Q 2.888938 32.295972 3.863669 32.52091 
Q 4.8384 32.745848 5.175807 32.445931 
Q 5.213297 32.445931 9.337159 32.333462 
L 11.586538 31.883586 
M 2.813959 32.895807 
Q 3.113876 35.295145 3.338814 40.431228 
Q 3.563752 45.56731 3.938648 48.191586 
" clip-path="url(#p5a57bc4125)" style="fill: none; stroke: #000000; stroke-linejoin: miter"/>
   </g>
  </g>
  <g id="axes_2">
   <g id="patch_3">
    <path d="M 20.813462 32.783338 
Q 21.338317 34.507862 21.469531 36.457324 
Q 21.600745 38.406786 21.525766 40.956083 
Q 21.450786 43.505379 21.488276 44.705048 
L 21.600745 46.054676 
L 21.600745 45.829738 
Q 21.600745 44.667559 21.319572 42.30571 
Q 21.0384 39.943862 21.0384 38.744193 
Q 21.0384 36.419834 22.050621 34.882759 
Q 23.062841 33.345683 25.087283 33.345683 
Q 25.799586 33.345683 26.136993 33.626855 
Q 26.4744 33.908028 26.736828 34.432883 
Q 26.999255 34.957738 27.336662 35.257655 
L 27.786538 36.832221 
" clip-path="url(#pf69cb126f2)" style="fill: none; stroke: #000000; stroke-linejoin: miter"/>
   </g>
  </g>
  <g id="axes_3"/>
  <g id="axes_4">
   <g id="patch_4">
    <path d="M 56.306359 28.621986 
Q 56.531297 30.34651 56.606276 32.146014 
Q 56.681255 33.945517 56.66251 36.551048 
Q 56.643766 39.156579 56.643766 40.093821 
Q 56.643766 40.13131 56.868703 45.829738 
L 57.093641 46.841959 
" clip-path="url(#p2cba5d0403)" style="fill: none; stroke: #000000; stroke-linejoin: miter"/>
   </g>
  </g>
  <g id="axes_5">
   <g id="patch_5">
    <path d="M 70.875559 33.68309 
Q 71.325434 33.270703 72.806276 32.183503 
Q 74.287117 31.096303 74.924441 30.309021 
M 71.212966 36.157407 
Q 71.175476 36.269876 71.194221 37.338331 
Q 71.212966 38.406786 71.212966 38.519255 
Q 71.212966 39.643945 71.475393 40.693655 
Q 71.737821 41.743366 72.168952 43.018014 
Q 72.600083 44.292662 72.787531 45.042455 
L 73.237407 45.492331 
" clip-path="url(#p95e7cfe7a6)" style="fill: none; stroke: #000000; stroke-linejoin: miter"/>
   </g>
  </g>
  <g id="axes_6">
   <g id="patch_6">
    <path d="M 84.263834 32.783338 
L 84.263834 33.345683 
Q 85.126097 39.718924 85.163586 47.066897 
Q 85.163586 47.81669 85.088607 47.029407 
Q 84.638731 42.080772 84.488772 35.82 
L 84.488772 35.145186 
Q 84.488772 33.6456 86.082083 33.008276 
Q 87.675393 32.370952 89.1 32.783338 
Q 90.637076 33.233214 91.611807 34.414138 
Q 92.586538 35.595062 92.961434 37.282097 
Q 93.336331 38.969131 93.467545 40.543697 
Q 93.598759 42.118262 93.673738 44.067724 
Q 93.748717 46.017186 93.936166 47.066897 
" clip-path="url(#p4146d47031)" style="fill: none; stroke: #000000; stroke-linejoin: miter"/>
   </g>
  </g>
  <g id="axes_7">
   <g id="patch_7">
    <path d="M 110.91018 35.173293 
Q 110.683832 35.108623 109.826946 34.752934 
Q 108.97006 34.397246 108.388024 34.267904 
Q 107.805988 34.138563 107.223952 34.203234 
Q 104.895808 34.203234 103.440719 36.321198 
Q 101.985629 38.439162 101.985629 40.799641 
Q 101.985629 42.254731 106.641916 42.254731 
Q 108.032335 42.254731 109.212575 40.912814 
Q 110.392814 39.570898 110.991018 37.905629 
Q 111.589222 36.240359 111.589222 34.882275 
Q 111.589222 33.556527 111.556886 33.297844 
L 111.492216 34.267904 
Q 111.492216 34.688263 111.492216 35.076287 
Q 111.783234 42.287066 111.45988 45.64994 
Q 110.360479 57.969701 102.276647 57.969701 
Q 100.821557 57.969701 99.851497 57.306826 
Q 98.881437 56.643952 98.881437 55.253533 
Q 98.816766 55.059521 98.849102 55.059521 
Q 98.881437 55.059521 98.978443 55.059521 
Q 99.075449 55.059521 99.075449 54.962515 
" clip-path="url(#pdf008a9764)" style="fill: none; stroke: #000000; stroke-linejoin: miter"/>
   </g>
  </g>
  <g id="axes_8"/>
  <g id="axes_9">
   <g id="patch_8">
    <path d="M 134.269697 27.047421 
Q 135.131959 27.647255 135.956731 28.547007 
Q 136.781503 29.446759 137.73749 30.646428 
Q 138.693476 31.846097 139.218331 32.445931 
M 134.607103 39.0816 
L 134.832041 39.0816 
Q 135.094469 39.04411 135.619324 39.137834 
Q 136.144179 39.231559 136.406607 39.194069 
Q 137.006441 39.11909 137.587531 39.156579 
Q 138.168621 39.194069 138.730966 39.11909 
Q 139.29331 39.04411 139.724441 38.819172 
Q 140.155572 38.594234 140.418 38.013145 
Q 140.680428 37.432055 140.680428 36.494814 
Q 140.567959 35.257655 139.649462 34.69531 
Q 138.730966 34.132966 137.531297 34.245434 
Q 136.181669 34.357903 135.281917 35.370124 
Q 134.382166 36.382345 134.382166 37.731972 
Q 134.382166 46.204634 141.130303 44.142703 
" clip-path="url(#p19c3469014)" style="fill: none; stroke: #000000; stroke-linejoin: miter"/>
   </g>
  </g>
  <g id="axes_10">
   <g id="patch_9">
    <path d="M 150.413462 32.783338 
Q 150.938317 34.507862 151.069531 36.457324 
Q 151.200745 38.406786 151.125766 40.956083 
Q 151.050786 43.505379 151.088276 44.705048 
L 151.200745 46.054676 
L 151.200745 45.829738 
Q 151.200745 44.667559 150.919572 42.30571 
Q 150.6384 39.943862 150.6384 38.744193 
Q 150.6384 36.419834 151.650621 34.882759 
Q 152.662841 33.345683 154.687283 33.345683 
Q 155.399586 33.345683 155.736993 33.626855 
Q 156.0744 33.908028 156.336828 34.432883 
Q 156.599255 34.957738 156.936662 35.257655 
L 157.386538 36.832221 
" clip-path="url(#pba3a29b41c)" style="fill: none; stroke: #000000; stroke-linejoin: miter"/>
   </g>
  </g>
  <g id="axes_11">
   <g id="patch_10">
    <path d="M 165.657476 43.917766 
Q 165.957393 44.180193 166.969614 45.154924 
Q 167.981834 46.129655 168.544179 46.560786 
Q 169.106524 46.991917 170.13749 47.385559 
Q 171.168455 47.7792 172.180676 47.629241 
Q 172.85549 47.629241 173.32411 47.404303 
Q 173.792731 47.179366 174.017669 46.879448 
Q 174.242607 46.579531 174.373821 45.979697 
Q 174.505034 45.379862 174.523779 44.967476 
Q 174.542524 44.55509 174.542524 43.805297 
Q 174.542524 42.718097 173.642772 42.043283 
Q 172.743021 41.368469 171.449628 41.031062 
Q 170.156234 40.693655 168.862841 40.300014 
Q 167.569448 39.906372 166.669697 38.987876 
Q 165.769945 38.069379 165.769945 36.607283 
Q 165.769945 36.082428 165.938648 35.726276 
Q 166.107352 35.370124 166.500993 35.145186 
Q 166.894634 34.920248 167.175807 34.807779 
Q 167.456979 34.69531 168.113048 34.639076 
Q 168.769117 34.582841 168.956566 34.582841 
Q 169.144014 34.582841 169.818828 34.582841 
Q 171.018497 34.582841 171.599586 34.995228 
Q 172.180676 35.407614 172.499338 36.026193 
Q 172.818 36.644772 173.080428 36.832221 
" clip-path="url(#p37fb1559e0)" style="fill: none; stroke: #000000; stroke-linejoin: miter"/>
   </g>
  </g>
  <g id="axes_12">
   <g id="patch_11">
    <path d="M 180.377221 29.066925 
L 190.562187 29.066925 
M 189.787244 33.384465 
Q 189.787244 33.384465 186.908884 33.384465 
Q 183.919818 33.384465 181.98246 35.026606 
Q 180.045103 36.668747 180.045103 39.584009 
Q 180.045103 41.318405 181.779499 42.222506 
Q 183.513895 43.126606 185.469704 43.126606 
Q 186.982688 42.83139 187.849886 41.650524 
Q 188.717084 40.469658 188.938497 39.251891 
Q 189.159909 38.034123 189.36287 36.115216 
Q 189.565831 34.19631 189.787244 33.384465 
Q 192.333485 42.978998 192.444191 43.901549 
L 192.554897 45.00861 
" clip-path="url(#pfdf0dbead6)" style="fill: none; stroke: #000000; stroke-linejoin: miter"/>
   </g>
  </g>
  <g id="axes_13">
   <g id="patch_12">
    <path d="M 197.663834 32.783338 
L 197.663834 33.345683 
Q 198.526097 39.718924 198.563586 47.066897 
Q 198.563586 47.81669 198.488607 47.029407 
Q 198.038731 42.080772 197.888772 35.82 
L 197.888772 35.145186 
Q 197.888772 33.6456 199.482083 33.008276 
Q 201.075393 32.370952 202.5 32.783338 
Q 204.037076 33.233214 205.011807 34.414138 
Q 205.986538 35.595062 206.361434 37.282097 
Q 206.736331 38.969131 206.867545 40.543697 
Q 206.998759 42.118262 207.073738 44.067724 
Q 207.148717 46.017186 207.336166 47.066897 
" clip-path="url(#pdc18077e3d)" style="fill: none; stroke: #000000; stroke-linejoin: miter"/>
   </g>
  </g>
  <g id="axes_14"/>
  <g id="axes_15">
   <g id="patch_13">
    <path d="M 230.063834 32.783338 
L 230.063834 33.345683 
Q 230.926097 39.718924 230.963586 47.066897 
Q 230.963586 47.81669 230.888607 47.029407 
Q 230.438731 42.080772 230.288772 35.82 
L 230.288772 35.145186 
Q 230.288772 33.6456 231.882083 33.008276 
Q 233.475393 32.370952 234.9 32.783338 
Q 236.437076 33.233214 237.411807 34.414138 
Q 238.386538 35.595062 238.761434 37.282097 
Q 239.136331 38.969131 239.267545 40.543697 
Q 239.398759 42.118262 239.473738 44.067724 
Q 239.548717 46.017186 239.736166 47.066897 
" clip-path="url(#p6182cc1ba7)" style="fill: none; stroke: #000000; stroke-linejoin: miter"/>
   </g>
  </g>
  <g id="axes_16">
   <g id="patch_14">
    <path d="M 251.718579 29.071862 
Q 251.343683 29.146841 251.212469 29.577972 
Q 251.081255 30.009103 251.156234 30.42149 
Q 251.156234 30.571448 251.193724 30.702662 
Q 251.231214 30.833876 251.287448 30.89011 
Q 251.343683 30.946345 251.399917 31.040069 
Q 251.456152 31.133793 251.493641 31.208772 
L 251.60611 29.859145 
M 251.60611 34.020497 
Q 250.706359 39.006621 250.481421 42.793076 
L 250.931297 45.379862 
L 251.268703 46.054676 
" clip-path="url(#p2643cc351b)" style="fill: none; stroke: #000000; stroke-linejoin: miter"/>
   </g>
  </g>
  <g id="axes_17">
   <g id="patch_15">
    <path d="M 264.319572 31.546179 
L 264.319572 31.321241 
Q 264.319572 31.133793 264.375807 31.040069 
Q 264.432041 30.946345 264.507021 30.89011 
Q 264.582 30.833876 264.731959 30.740152 
Q 264.881917 30.646428 264.994386 30.533959 
L 269.155738 25.810262 
M 271.06771 35.370124 
L 267.918579 35.370124 
Q 267.80611 35.407614 267.543683 35.482593 
Q 264.319572 36.419834 263.419821 37.132138 
Q 261.882745 38.481766 261.845255 41.893324 
Q 261.845255 43.018014 262.707517 43.917766 
Q 263.569779 44.817517 264.656979 44.817517 
Q 265.519241 44.705048 266.306524 44.236428 
Q 267.093807 43.767807 267.599917 43.224207 
Q 268.106028 42.680607 268.649628 41.687131 
Q 269.193228 40.693655 269.4744 40.075076 
Q 269.755572 39.456497 270.205448 38.294317 
Q 270.655324 37.132138 270.842772 36.719752 
Q 271.180179 35.894979 271.292648 35.951214 
Q 271.405117 36.007448 271.292648 37.207117 
L 271.180179 38.744193 
Q 271.180179 38.781683 271.517586 42.455669 
L 272.754745 44.817517 
" clip-path="url(#p76c54600a5)" style="fill: none; stroke: #000000; stroke-linejoin: miter"/>
   </g>
  </g>
  <g id="axes_18">
   <g id="patch_16">
    <path d="M 278.663834 32.783338 
L 278.663834 33.345683 
Q 279.526097 39.718924 279.563586 47.066897 
Q 279.563586 47.81669 279.488607 47.029407 
Q 279.038731 42.080772 278.888772 35.82 
L 278.888772 35.145186 
Q 278.888772 33.6456 280.482083 33.008276 
Q 282.075393 32.370952 283.5 32.783338 
Q 285.037076 33.233214 286.011807 34.414138 
Q 286.986538 35.595062 287.361434 37.282097 
Q 287.736331 38.969131 287.867545 40.543697 
Q 287.998759 42.118262 288.073738 44.067724 
Q 288.148717 46.017186 288.336166 47.066897 
" clip-path="url(#pff8c358354)" style="fill: none; stroke: #000000; stroke-linejoin: miter"/>
   </g>
  </g>
 </g>
 <defs>
  <clipPath id="p5a57bc4125">
   <rect x="0.714538" y="8.64" width="14.770924" height="54.36"/>
  </clipPath>
  <clipPath id="pf69cb126f2">
   <rect x="18.938979" y="8.64" width="10.722041" height="54.36"/>
  </clipPath>
  <clipPath id="p2cba5d0403">
   <rect x="54.431876" y="8.64" width="4.536248" height="54.36"/>
  </clipPath>
  <clipPath id="p95e7cfe7a6">
   <rect x="69.001076" y="8.64" width="7.797848" height="54.36"/>
  </clipPath>
  <clipPath id="p4146d47031">
   <rect x="82.389352" y="8.64" width="13.421297" height="54.36"/>
  </clipPath>
  <clipPath id="pdf008a9764">
   <rect x="97.2" y="12.376886" width="16.2" height="46.886228"/>
  </clipPath>
  <clipPath id="p19c3469014">
   <rect x="132.395214" y="8.64" width="10.609572" height="54.36"/>
  </clipPath>
  <clipPath id="pba3a29b41c">
   <rect x="148.538979" y="8.64" width="10.722041" height="54.36"/>
  </clipPath>
  <clipPath id="p37fb1559e0">
   <rect x="163.782993" y="8.64" width="12.634014" height="54.36"/>
  </clipPath>
  <clipPath id="pfdf0dbead6">
   <rect x="178.2" y="9.066014" width="16.2" height="53.507973"/>
  </clipPath>
  <clipPath id="pdc18077e3d">
   <rect x="195.789352" y="8.64" width="13.421297" height="54.36"/>
  </clipPath>
  <clipPath id="p6182cc1ba7">
   <rect x="228.189352" y="8.64" width="13.421297" height="54.36"/>
  </clipPath>
  <clipPath id="p2643cc351b">
   <rect x="248.606938" y="8.64" width="4.986124" height="54.36"/>
  </clipPath>
  <clipPath id="p76c54600a5">
   <rect x="259.970772" y="8.64" width="14.658455" height="54.36"/>
  </clipPath>
  <clipPath id="pff8c358354">
   <rect x="276.789352" y="8.64" width="13.421297" height="54.36"/>
  </clipPath>
 </defs>
</svg>
