<?xml version="1.0" encoding="utf-8" standalone="no"?>
<!DOCTYPE svg PUBLIC "-//W3C//DTD SVG 1.1//EN"
  "http://www.w3.org/Graphics/SVG/1.1/DTD/svg11.dtd">
<svg xmlns:xlink="http://www.w3.org/1999/xlink" width="1170pt" height="72pt" viewBox="0 0 1170 72" xmlns="http://www.w3.org/2000/svg" version="1.1">
 <metadata>
  <rdf:RDF xmlns:dc="http://purl.org/dc/elements/1.1/" xmlns:cc="http://creativecommons.org/ns#" xmlns:rdf="http://www.w3.org/1999/02/22-rdf-syntax-ns#">
   <cc:Work>
    <dc:type rdf:resource="http://purl.org/dc/dcmitype/StillImage"/>
    <dc:date>2023-01-02T13:37:54.397967</dc:date>
    <dc:format>image/svg+xml</dc:format>
    <dc:creator>
     <cc:Agent>
      <dc:title>Matplotlib v3.6.1, https://matplotlib.org/</dc:title>
     </cc:Agent>
    </dc:creator>
   </cc:Work>
  </rdf:RDF>
 </metadata>
 <defs>
  <style type="text/css">*{stroke-linejoin: round; stroke-linecap: butt}</style>
 </defs>
 <g id="figure_1">
  <g id="patch_1">
   <path d="M 0 72 
L 1170 72 
L 1170 0 
L 0 0 
L 0 72 
z
" style="fill: none"/>
  </g>
  <g id="axes_1">
   <g id="patch_2">
    <path d="M 1.539924 40.439772 
Q 6.436882 46.999848 11.980608 46.168289 
Q 13.304943 46.168289 13.98251 45.382928 
Q 14.660076 44.597567 14.660076 43.30403 
Q 14.660076 41.979696 14.028707 40.947947 
Q 13.397338 39.916198 12.396388 39.238631 
Q 11.395437 38.561065 10.194297 37.975894 
Q 8.993156 37.390722 7.776616 36.820951 
Q 6.560076 36.251179 5.559125 35.589011 
Q 4.558175 34.926844 3.926806 33.895095 
Q 3.295437 32.863346 3.295437 31.56981 
Q 3.295437 29.906692 5.774715 28.382167 
Q 8.253992 26.857643 10.040304 26.857643 
Q 11.118251 26.796046 11.672624 27.627605 
Q 12.226996 28.459163 12.211597 29.490913 
Q 12.196198 30.522662 12.165399 31.385019 
" clip-path="url(#pa0dbfe69c3)" style="fill: none; stroke: #000000; stroke-linejoin: miter"/>
   </g>
  </g>
  <g id="axes_2">
   <g id="patch_3">
    <path d="M 27.5616 35.032717 
Q 26.51189 34.582841 25.537159 34.69531 
Q 22.500497 35.032717 20.588524 36.701007 
Q 18.676552 38.369297 18.676552 41.330979 
Q 18.676552 43.917766 20.682248 45.6048 
Q 22.687945 47.291834 25.312221 47.291834 
Q 27.674069 47.291834 28.798759 45.361117 
Q 29.923448 43.4304 29.923448 40.881103 
Q 29.923448 39.643945 29.511062 38.706703 
Q 29.098676 37.769462 28.573821 37.300841 
Q 28.048966 36.832221 27.299172 36.119917 
Q 26.549379 35.407614 26.099503 34.69531 
L 24.862345 34.245434 
" clip-path="url(#p41ac678625)" style="fill: none; stroke: #000000; stroke-linejoin: miter"/>
   </g>
  </g>
  <g id="axes_3">
   <g id="patch_4">
    <path d="M 34.208036 34.879821 
Q 34.714286 36.109286 34.967411 42.256607 
Q 35.148214 46.632054 35.4375 46.632054 
L 35.509821 46.595893 
Q 36.016071 46.017321 36.070312 44.588973 
Q 36.124554 43.160625 35.907589 41.750357 
Q 35.690625 40.340089 35.4375 38.712857 
Q 35.184375 37.085625 35.184375 36.398571 
Q 35.184375 35.169107 35.564062 33.939643 
Q 35.94375 32.710179 36.920089 32.710179 
Q 38.149554 32.710179 38.872768 34.355491 
Q 39.595982 36.000804 39.758705 37.971562 
Q 39.921429 39.942321 40.029911 41.587634 
Q 40.138393 43.232946 40.283036 43.232946 
Q 40.427679 43.232946 40.51808 41.497232 
Q 40.608482 39.761518 40.735045 37.700357 
Q 40.861607 35.639196 41.584821 33.903482 
Q 42.308036 32.167768 43.5375 32.167768 
Q 45.092411 33.035625 45.761384 34.771339 
Q 46.430357 36.507054 46.394196 38.188527 
Q 46.358036 39.87 46.376116 42.057723 
Q 46.394196 44.245446 46.791964 45.511071 
" clip-path="url(#p7fedba7fd5)" style="fill: none; stroke: #000000; stroke-linejoin: miter"/>
   </g>
  </g>
  <g id="axes_4">
   <g id="patch_5">
    <path d="M 50.457798 38.160826 
Q 53.430275 39.535596 58.149083 39.721376 
Q 59.672477 39.721376 60.359862 38.550963 
Q 61.047248 37.38055 61.047248 35.82 
Q 61.047248 35.299817 60.954358 34.909679 
Q 60.861468 34.519541 60.619954 34.296606 
Q 60.37844 34.07367 60.211239 33.943624 
Q 60.044037 33.813578 59.598165 33.757844 
Q 59.152294 33.70211 58.947936 33.683532 
Q 58.743578 33.664954 58.167661 33.683532 
Q 57.591743 33.70211 57.368807 33.70211 
Q 55.325229 33.70211 53.838991 35.578486 
Q 52.352752 37.454862 52.352752 39.609908 
Q 52.352752 42.619541 54.284862 44.570229 
Q 56.216972 46.520917 59.263761 46.520917 
Q 61.418807 46.818165 62.942202 44.29156 
" clip-path="url(#p953b119f31)" style="fill: none; stroke: #000000; stroke-linejoin: miter"/>
   </g>
  </g>
  <g id="axes_5"/>
  <g id="axes_6">
   <g id="patch_6">
    <path d="M 84.320069 39.868883 
L 84.320069 39.419007 
Q 84.320069 37.769462 86.063338 36.682262 
Q 87.806607 35.595062 89.493641 35.595062 
Q 91.705531 35.595062 93.073903 36.794731 
Q 94.442276 37.9944 94.442276 40.20629 
Q 94.442276 42.30571 92.624028 43.336676 
Q 90.805779 44.367641 88.59389 44.367641 
Q 87.919076 44.367641 87.412966 44.255172 
Q 86.906855 44.142703 86.288276 43.917766 
Q 85.669697 43.692828 85.219821 43.580359 
L 84.095131 42.568138 
M 83.757724 36.832221 
Q 84.2076 38.444276 84.470028 40.262524 
Q 84.732455 42.080772 84.78869 43.749062 
Q 84.844924 45.417352 84.882414 47.27309 
Q 84.919903 49.128828 84.882414 50.778372 
L 84.769945 57.863917 
" clip-path="url(#pee9c3b4454)" style="fill: none; stroke: #000000; stroke-linejoin: miter"/>
   </g>
  </g>
  <g id="axes_7">
   <g id="patch_7">
    <path d="M 99.057798 38.160826 
Q 102.030275 39.535596 106.749083 39.721376 
Q 108.272477 39.721376 108.959862 38.550963 
Q 109.647248 37.38055 109.647248 35.82 
Q 109.647248 35.299817 109.554358 34.909679 
Q 109.461468 34.519541 109.219954 34.296606 
Q 108.97844 34.07367 108.811239 33.943624 
Q 108.644037 33.813578 108.198165 33.757844 
Q 107.752294 33.70211 107.547936 33.683532 
Q 107.343578 33.664954 106.767661 33.683532 
Q 106.191743 33.70211 105.968807 33.70211 
Q 103.925229 33.70211 102.438991 35.578486 
Q 100.952752 37.454862 100.952752 39.609908 
Q 100.952752 42.619541 102.884862 44.570229 
Q 104.816972 46.520917 107.863761 46.520917 
Q 110.018807 46.818165 111.542202 44.29156 
" clip-path="url(#p6740c4dd84)" style="fill: none; stroke: #000000; stroke-linejoin: miter"/>
   </g>
  </g>
  <g id="axes_8">
   <g id="patch_8">
    <path d="M 124.7616 35.032717 
Q 123.71189 34.582841 122.737159 34.69531 
Q 119.700497 35.032717 117.788524 36.701007 
Q 115.876552 38.369297 115.876552 41.330979 
Q 115.876552 43.917766 117.882248 45.6048 
Q 119.887945 47.291834 122.512221 47.291834 
Q 124.874069 47.291834 125.998759 45.361117 
Q 127.123448 43.4304 127.123448 40.881103 
Q 127.123448 39.643945 126.711062 38.706703 
Q 126.298676 37.769462 125.773821 37.300841 
Q 125.248966 36.832221 124.499172 36.119917 
Q 123.749379 35.407614 123.299503 34.69531 
L 122.062345 34.245434 
" clip-path="url(#p33a714553d)" style="fill: none; stroke: #000000; stroke-linejoin: miter"/>
   </g>
  </g>
  <g id="axes_9">
   <g id="patch_9">
    <path d="M 132.920069 39.868883 
L 132.920069 39.419007 
Q 132.920069 37.769462 134.663338 36.682262 
Q 136.406607 35.595062 138.093641 35.595062 
Q 140.305531 35.595062 141.673903 36.794731 
Q 143.042276 37.9944 143.042276 40.20629 
Q 143.042276 42.30571 141.224028 43.336676 
Q 139.405779 44.367641 137.19389 44.367641 
Q 136.519076 44.367641 136.012966 44.255172 
Q 135.506855 44.142703 134.888276 43.917766 
Q 134.269697 43.692828 133.819821 43.580359 
L 132.695131 42.568138 
M 132.357724 36.832221 
Q 132.8076 38.444276 133.070028 40.262524 
Q 133.332455 42.080772 133.38869 43.749062 
Q 133.444924 45.417352 133.482414 47.27309 
Q 133.519903 49.128828 133.482414 50.778372 
L 133.369945 57.863917 
" clip-path="url(#p016b30cc4a)" style="fill: none; stroke: #000000; stroke-linejoin: miter"/>
   </g>
  </g>
  <g id="axes_10">
   <g id="patch_10">
    <path d="M 153.506359 28.621986 
Q 153.731297 30.34651 153.806276 32.146014 
Q 153.881255 33.945517 153.86251 36.551048 
Q 153.843766 39.156579 153.843766 40.093821 
Q 153.843766 40.13131 154.068703 45.829738 
L 154.293641 46.841959 
" clip-path="url(#p58008d0d94)" style="fill: none; stroke: #000000; stroke-linejoin: miter"/>
   </g>
  </g>
  <g id="axes_11">
   <g id="patch_11">
    <path d="M 163.857798 38.160826 
Q 166.830275 39.535596 171.549083 39.721376 
Q 173.072477 39.721376 173.759862 38.550963 
Q 174.447248 37.38055 174.447248 35.82 
Q 174.447248 35.299817 174.354358 34.909679 
Q 174.261468 34.519541 174.019954 34.296606 
Q 173.77844 34.07367 173.611239 33.943624 
Q 173.444037 33.813578 172.998165 33.757844 
Q 172.552294 33.70211 172.347936 33.683532 
Q 172.143578 33.664954 171.567661 33.683532 
Q 170.991743 33.70211 170.768807 33.70211 
Q 168.725229 33.70211 167.238991 35.578486 
Q 165.752752 37.454862 165.752752 39.609908 
Q 165.752752 42.619541 167.684862 44.570229 
Q 169.616972 46.520917 172.663761 46.520917 
Q 174.818807 46.818165 176.342202 44.29156 
" clip-path="url(#p1f0065b7ad)" style="fill: none; stroke: #000000; stroke-linejoin: miter"/>
   </g>
  </g>
  <g id="axes_12"/>
  <g id="axes_13">
   <g id="patch_12">
    <path d="M 198.957228 36.494814 
Q 200.006938 36.457324 200.194386 36.382345 
Q 203.605945 36.382345 205.386703 38.463021 
Q 207.167462 40.543697 207.167462 44.030234 
Q 207.167462 46.954428 202.556234 46.954428 
Q 201.91891 46.954428 201.37531 46.841959 
Q 200.83171 46.72949 200.194386 46.504552 
Q 199.557062 46.279614 199.069697 46.167145 
L 197.832538 44.929986 
M 198.844759 24.685572 
L 198.844759 25.810262 
Q 198.844759 28.659476 198.957228 32.258483 
Q 199.069697 35.85749 199.257145 40.150055 
Q 199.444593 44.442621 199.519572 46.392083 
" clip-path="url(#pde03e382fc)" style="fill: none; stroke: #000000; stroke-linejoin: miter"/>
   </g>
  </g>
  <g id="axes_14">
   <g id="patch_13">
    <path d="M 212.457798 38.160826 
Q 215.430275 39.535596 220.149083 39.721376 
Q 221.672477 39.721376 222.359862 38.550963 
Q 223.047248 37.38055 223.047248 35.82 
Q 223.047248 35.299817 222.954358 34.909679 
Q 222.861468 34.519541 222.619954 34.296606 
Q 222.37844 34.07367 222.211239 33.943624 
Q 222.044037 33.813578 221.598165 33.757844 
Q 221.152294 33.70211 220.947936 33.683532 
Q 220.743578 33.664954 220.167661 33.683532 
Q 219.591743 33.70211 219.368807 33.70211 
Q 217.325229 33.70211 215.838991 35.578486 
Q 214.352752 37.454862 214.352752 39.609908 
Q 214.352752 42.619541 216.284862 44.570229 
Q 218.216972 46.520917 221.263761 46.520917 
Q 223.418807 46.818165 224.942202 44.29156 
" clip-path="url(#p87a61025bc)" style="fill: none; stroke: #000000; stroke-linejoin: miter"/>
   </g>
  </g>
  <g id="axes_15">
   <g id="patch_14">
    <path d="M 234.506359 28.621986 
Q 234.731297 30.34651 234.806276 32.146014 
Q 234.881255 33.945517 234.86251 36.551048 
Q 234.843766 39.156579 234.843766 40.093821 
Q 234.843766 40.13131 235.068703 45.829738 
L 235.293641 46.841959 
" clip-path="url(#pef456ae370)" style="fill: none; stroke: #000000; stroke-linejoin: miter"/>
   </g>
  </g>
  <g id="axes_16">
   <g id="patch_15">
    <path d="M 251.718579 29.071862 
Q 251.343683 29.146841 251.212469 29.577972 
Q 251.081255 30.009103 251.156234 30.42149 
Q 251.156234 30.571448 251.193724 30.702662 
Q 251.231214 30.833876 251.287448 30.89011 
Q 251.343683 30.946345 251.399917 31.040069 
Q 251.456152 31.133793 251.493641 31.208772 
L 251.60611 29.859145 
M 251.60611 34.020497 
Q 250.706359 39.006621 250.481421 42.793076 
L 250.931297 45.379862 
L 251.268703 46.054676 
" clip-path="url(#p7b0bc949d6)" style="fill: none; stroke: #000000; stroke-linejoin: miter"/>
   </g>
  </g>
  <g id="axes_17">
   <g id="patch_16">
    <path d="M 261.057798 38.160826 
Q 264.030275 39.535596 268.749083 39.721376 
Q 270.272477 39.721376 270.959862 38.550963 
Q 271.647248 37.38055 271.647248 35.82 
Q 271.647248 35.299817 271.554358 34.909679 
Q 271.461468 34.519541 271.219954 34.296606 
Q 270.97844 34.07367 270.811239 33.943624 
Q 270.644037 33.813578 270.198165 33.757844 
Q 269.752294 33.70211 269.547936 33.683532 
Q 269.343578 33.664954 268.767661 33.683532 
Q 268.191743 33.70211 267.968807 33.70211 
Q 265.925229 33.70211 264.438991 35.578486 
Q 262.952752 37.454862 262.952752 39.609908 
Q 262.952752 42.619541 264.884862 44.570229 
Q 266.816972 46.520917 269.863761 46.520917 
Q 272.018807 46.818165 273.542202 44.29156 
" clip-path="url(#pbf9a705f92)" style="fill: none; stroke: #000000; stroke-linejoin: miter"/>
   </g>
  </g>
  <g id="axes_18">
   <g id="patch_17">
    <path d="M 279.226179 34.807779 
Q 280.838234 36.719752 282.131628 39.6252 
Q 283.425021 42.530648 283.724938 45.154924 
Q 284.774648 43.655338 285.693145 38.819172 
Q 286.611641 33.983007 287.773821 32.108524 
" clip-path="url(#p17df49445a)" style="fill: none; stroke: #000000; stroke-linejoin: miter"/>
   </g>
  </g>
  <g id="axes_19">
   <g id="patch_18">
    <path d="M 293.457798 38.160826 
Q 296.430275 39.535596 301.149083 39.721376 
Q 302.672477 39.721376 303.359862 38.550963 
Q 304.047248 37.38055 304.047248 35.82 
Q 304.047248 35.299817 303.954358 34.909679 
Q 303.861468 34.519541 303.619954 34.296606 
Q 303.37844 34.07367 303.211239 33.943624 
Q 303.044037 33.813578 302.598165 33.757844 
Q 302.152294 33.70211 301.947936 33.683532 
Q 301.743578 33.664954 301.167661 33.683532 
Q 300.591743 33.70211 300.368807 33.70211 
Q 298.325229 33.70211 296.838991 35.578486 
Q 295.352752 37.454862 295.352752 39.609908 
Q 295.352752 42.619541 297.284862 44.570229 
Q 299.216972 46.520917 302.263761 46.520917 
Q 304.418807 46.818165 305.942202 44.29156 
" clip-path="url(#p988891af78)" style="fill: none; stroke: #000000; stroke-linejoin: miter"/>
   </g>
  </g>
  <g id="axes_20"/>
  <g id="axes_21">
   <g id="patch_19">
    <path d="M 327.263834 37.95691 
L 327.938648 37.95691 
Q 328.650952 37.95691 329.438234 37.881931 
Q 330.225517 37.806952 331.181503 37.675738 
Q 332.13749 37.544524 332.662345 37.507034 
L 336.936166 35.82 
M 332.887283 30.42149 
L 332.887283 31.43371 
Q 332.887283 33.383172 332.212469 37.207117 
Q 331.537655 41.031062 331.537655 43.018014 
Q 331.537655 43.805297 331.537655 44.105214 
Q 331.537655 44.405131 331.631379 45.042455 
Q 331.725103 45.679779 331.912552 45.960952 
Q 332.1 46.242124 332.493641 46.485807 
Q 332.887283 46.72949 333.449628 46.72949 
Q 333.562097 46.692 333.880759 46.72949 
Q 334.199421 46.766979 334.386869 46.710745 
Q 334.574317 46.65451 334.574317 46.392083 
" clip-path="url(#p191711a274)" style="fill: none; stroke: #000000; stroke-linejoin: miter"/>
   </g>
  </g>
  <g id="axes_22">
   <g id="patch_20">
    <path d="M 344.813462 35.932469 
Q 345.413297 35.257655 346.406772 34.826524 
Q 347.400248 34.395393 348.3 34.470372 
Q 348.937324 34.470372 349.42469 34.639076 
Q 349.912055 34.807779 350.230717 34.995228 
Q 350.549379 35.182676 350.774317 35.670041 
Q 350.999255 36.157407 351.111724 36.419834 
Q 351.224193 36.682262 351.280428 37.375821 
Q 351.336662 38.069379 351.355407 38.331807 
Q 351.374152 38.594234 351.355407 39.419007 
Q 351.336662 40.243779 351.336662 40.431228 
Q 351.336662 41.368469 351.167959 43.242952 
Q 350.999255 45.117434 350.999255 46.054676 
Q 350.999255 46.467062 351.05549 46.823214 
Q 351.111724 47.179366 351.205448 47.610497 
Q 351.299172 48.041628 351.336662 48.304055 
L 351.786538 48.528993 
M 345.263338 23.111007 
Q 345.488276 24.798041 345.488276 29.971614 
L 345.488276 42.3432 
L 345.150869 46.841959 
L 344.925931 47.74171 
" clip-path="url(#p2ad0b0e895)" style="fill: none; stroke: #000000; stroke-linejoin: miter"/>
   </g>
  </g>
  <g id="axes_23">
   <g id="patch_21">
    <path d="M 368.496408 36.371229 
Q 367.424575 35.1769 363.902836 35.1769 
Q 362.555388 35.1769 361.866352 35.222836 
Q 361.177316 35.268771 360.289225 35.483138 
Q 359.401134 35.697505 358.972401 36.14155 
Q 358.543667 36.585595 358.237429 37.412439 
Q 357.931191 38.239282 357.931191 39.494858 
Q 357.931191 41.332287 359.186767 42.434745 
Q 360.442344 43.537202 362.157278 43.537202 
Q 364.515312 43.537202 366.965217 38.392401 
Q 368.159546 35.850624 368.159546 35.82 
Q 368.465784 35.605633 368.496408 36.371229 
Q 368.496408 37.320567 368.863894 39.847032 
Q 369.23138 42.373497 369.23138 43.537202 
M 371.068809 44.731531 
" clip-path="url(#p9def9b9ac1)" style="fill: none; stroke: #000000; stroke-linejoin: miter"/>
   </g>
  </g>
  <g id="axes_24">
   <g id="patch_22">
    <path d="M 375.863834 37.95691 
L 376.538648 37.95691 
Q 377.250952 37.95691 378.038234 37.881931 
Q 378.825517 37.806952 379.781503 37.675738 
Q 380.73749 37.544524 381.262345 37.507034 
L 385.536166 35.82 
M 381.487283 30.42149 
L 381.487283 31.43371 
Q 381.487283 33.383172 380.812469 37.207117 
Q 380.137655 41.031062 380.137655 43.018014 
Q 380.137655 43.805297 380.137655 44.105214 
Q 380.137655 44.405131 380.231379 45.042455 
Q 380.325103 45.679779 380.512552 45.960952 
Q 380.7 46.242124 381.093641 46.485807 
Q 381.487283 46.72949 382.049628 46.72949 
Q 382.162097 46.692 382.480759 46.72949 
Q 382.799421 46.766979 382.986869 46.710745 
Q 383.174317 46.65451 383.174317 46.392083 
" clip-path="url(#p5b0e96a778)" style="fill: none; stroke: #000000; stroke-linejoin: miter"/>
   </g>
  </g>
  <g id="axes_25"/>
  <g id="axes_26">
   <g id="patch_23">
    <path d="M 417.096408 36.371229 
Q 416.024575 35.1769 412.502836 35.1769 
Q 411.155388 35.1769 410.466352 35.222836 
Q 409.777316 35.268771 408.889225 35.483138 
Q 408.001134 35.697505 407.572401 36.14155 
Q 407.143667 36.585595 406.837429 37.412439 
Q 406.531191 38.239282 406.531191 39.494858 
Q 406.531191 41.332287 407.786767 42.434745 
Q 409.042344 43.537202 410.757278 43.537202 
Q 413.115312 43.537202 415.565217 38.392401 
Q 416.759546 35.850624 416.759546 35.82 
Q 417.065784 35.605633 417.096408 36.371229 
Q 417.096408 37.320567 417.463894 39.847032 
Q 417.83138 42.373497 417.83138 43.537202 
M 419.668809 44.731531 
" clip-path="url(#p579083f803)" style="fill: none; stroke: #000000; stroke-linejoin: miter"/>
   </g>
  </g>
  <g id="axes_27"/>
  <g id="axes_28">
   <g id="patch_24">
    <path d="M 440.720069 39.868883 
L 440.720069 39.419007 
Q 440.720069 37.769462 442.463338 36.682262 
Q 444.206607 35.595062 445.893641 35.595062 
Q 448.105531 35.595062 449.473903 36.794731 
Q 450.842276 37.9944 450.842276 40.20629 
Q 450.842276 42.30571 449.024028 43.336676 
Q 447.205779 44.367641 444.99389 44.367641 
Q 444.319076 44.367641 443.812966 44.255172 
Q 443.306855 44.142703 442.688276 43.917766 
Q 442.069697 43.692828 441.619821 43.580359 
L 440.495131 42.568138 
M 440.157724 36.832221 
Q 440.6076 38.444276 440.870028 40.262524 
Q 441.132455 42.080772 441.18869 43.749062 
Q 441.244924 45.417352 441.282414 47.27309 
Q 441.319903 49.128828 441.282414 50.778372 
L 441.169945 57.863917 
" clip-path="url(#p622e3ace07)" style="fill: none; stroke: #000000; stroke-linejoin: miter"/>
   </g>
  </g>
  <g id="axes_29">
   <g id="patch_25">
    <path d="M 455.457798 38.160826 
Q 458.430275 39.535596 463.149083 39.721376 
Q 464.672477 39.721376 465.359862 38.550963 
Q 466.047248 37.38055 466.047248 35.82 
Q 466.047248 35.299817 465.954358 34.909679 
Q 465.861468 34.519541 465.619954 34.296606 
Q 465.37844 34.07367 465.211239 33.943624 
Q 465.044037 33.813578 464.598165 33.757844 
Q 464.152294 33.70211 463.947936 33.683532 
Q 463.743578 33.664954 463.167661 33.683532 
Q 462.591743 33.70211 462.368807 33.70211 
Q 460.325229 33.70211 458.838991 35.578486 
Q 457.352752 37.454862 457.352752 39.609908 
Q 457.352752 42.619541 459.284862 44.570229 
Q 461.216972 46.520917 464.263761 46.520917 
Q 466.418807 46.818165 467.942202 44.29156 
" clip-path="url(#p87067df2fc)" style="fill: none; stroke: #000000; stroke-linejoin: miter"/>
   </g>
  </g>
  <g id="axes_30">
   <g id="patch_26">
    <path d="M 474.413462 32.783338 
Q 474.938317 34.507862 475.069531 36.457324 
Q 475.200745 38.406786 475.125766 40.956083 
Q 475.050786 43.505379 475.088276 44.705048 
L 475.200745 46.054676 
L 475.200745 45.829738 
Q 475.200745 44.667559 474.919572 42.30571 
Q 474.6384 39.943862 474.6384 38.744193 
Q 474.6384 36.419834 475.650621 34.882759 
Q 476.662841 33.345683 478.687283 33.345683 
Q 479.399586 33.345683 479.736993 33.626855 
Q 480.0744 33.908028 480.336828 34.432883 
Q 480.599255 34.957738 480.936662 35.257655 
L 481.386538 36.832221 
" clip-path="url(#p11b9ec6c16)" style="fill: none; stroke: #000000; stroke-linejoin: miter"/>
   </g>
  </g>
  <g id="axes_31">
   <g id="patch_27">
    <path d="M 489.657476 43.917766 
Q 489.957393 44.180193 490.969614 45.154924 
Q 491.981834 46.129655 492.544179 46.560786 
Q 493.106524 46.991917 494.13749 47.385559 
Q 495.168455 47.7792 496.180676 47.629241 
Q 496.85549 47.629241 497.32411 47.404303 
Q 497.792731 47.179366 498.017669 46.879448 
Q 498.242607 46.579531 498.373821 45.979697 
Q 498.505034 45.379862 498.523779 44.967476 
Q 498.542524 44.55509 498.542524 43.805297 
Q 498.542524 42.718097 497.642772 42.043283 
Q 496.743021 41.368469 495.449628 41.031062 
Q 494.156234 40.693655 492.862841 40.300014 
Q 491.569448 39.906372 490.669697 38.987876 
Q 489.769945 38.069379 489.769945 36.607283 
Q 489.769945 36.082428 489.938648 35.726276 
Q 490.107352 35.370124 490.500993 35.145186 
Q 490.894634 34.920248 491.175807 34.807779 
Q 491.456979 34.69531 492.113048 34.639076 
Q 492.769117 34.582841 492.956566 34.582841 
Q 493.144014 34.582841 493.818828 34.582841 
Q 495.018497 34.582841 495.599586 34.995228 
Q 496.180676 35.407614 496.499338 36.026193 
Q 496.818 36.644772 497.080428 36.832221 
" clip-path="url(#pc64b01087b)" style="fill: none; stroke: #000000; stroke-linejoin: miter"/>
   </g>
  </g>
  <g id="axes_32">
   <g id="patch_28">
    <path d="M 513.5616 35.032717 
Q 512.51189 34.582841 511.537159 34.69531 
Q 508.500497 35.032717 506.588524 36.701007 
Q 504.676552 38.369297 504.676552 41.330979 
Q 504.676552 43.917766 506.682248 45.6048 
Q 508.687945 47.291834 511.312221 47.291834 
Q 513.674069 47.291834 514.798759 45.361117 
Q 515.923448 43.4304 515.923448 40.881103 
Q 515.923448 39.643945 515.511062 38.706703 
Q 515.098676 37.769462 514.573821 37.300841 
Q 514.048966 36.832221 513.299172 36.119917 
Q 512.549379 35.407614 512.099503 34.69531 
L 510.862345 34.245434 
" clip-path="url(#p5b53c67c68)" style="fill: none; stroke: #000000; stroke-linejoin: miter"/>
   </g>
  </g>
  <g id="axes_33">
   <g id="patch_29">
    <path d="M 521.663834 32.783338 
L 521.663834 33.345683 
Q 522.526097 39.718924 522.563586 47.066897 
Q 522.563586 47.81669 522.488607 47.029407 
Q 522.038731 42.080772 521.888772 35.82 
L 521.888772 35.145186 
Q 521.888772 33.6456 523.482083 33.008276 
Q 525.075393 32.370952 526.5 32.783338 
Q 528.037076 33.233214 529.011807 34.414138 
Q 529.986538 35.595062 530.361434 37.282097 
Q 530.736331 38.969131 530.867545 40.543697 
Q 530.998759 42.118262 531.073738 44.067724 
Q 531.148717 46.017186 531.336166 47.066897 
" clip-path="url(#p194663ee3a)" style="fill: none; stroke: #000000; stroke-linejoin: miter"/>
   </g>
  </g>
  <g id="axes_34"/>
  <g id="axes_35">
   <g id="patch_30">
    <path d="M 552.657798 38.160826 
Q 555.630275 39.535596 560.349083 39.721376 
Q 561.872477 39.721376 562.559862 38.550963 
Q 563.247248 37.38055 563.247248 35.82 
Q 563.247248 35.299817 563.154358 34.909679 
Q 563.061468 34.519541 562.819954 34.296606 
Q 562.57844 34.07367 562.411239 33.943624 
Q 562.244037 33.813578 561.798165 33.757844 
Q 561.352294 33.70211 561.147936 33.683532 
Q 560.943578 33.664954 560.367661 33.683532 
Q 559.791743 33.70211 559.568807 33.70211 
Q 557.525229 33.70211 556.038991 35.578486 
Q 554.552752 37.454862 554.552752 39.609908 
Q 554.552752 42.619541 556.484862 44.570229 
Q 558.416972 46.520917 561.463761 46.520917 
Q 563.618807 46.818165 565.142202 44.29156 
" clip-path="url(#p8b29f84915)" style="fill: none; stroke: #000000; stroke-linejoin: miter"/>
   </g>
  </g>
  <g id="axes_36">
   <g id="patch_31">
    <path d="M 578.699007 34.920248 
Q 577.836745 36.007448 574.725103 40.018841 
Q 571.613462 44.030234 569.926428 46.054676 
M 570.826179 36.044938 
Q 572.700662 37.319586 575.193724 40.843614 
Q 577.686786 44.367641 579.261352 45.6048 
L 580.273572 45.942207 
" clip-path="url(#p7fbacf5db0)" style="fill: none; stroke: #000000; stroke-linejoin: miter"/>
   </g>
  </g>
  <g id="axes_37">
   <g id="patch_32">
    <path d="M 591.918579 29.071862 
Q 591.543683 29.146841 591.412469 29.577972 
Q 591.281255 30.009103 591.356234 30.42149 
Q 591.356234 30.571448 591.393724 30.702662 
Q 591.431214 30.833876 591.487448 30.89011 
Q 591.543683 30.946345 591.599917 31.040069 
Q 591.656152 31.133793 591.693641 31.208772 
L 591.80611 29.859145 
M 591.80611 34.020497 
Q 590.906359 39.006621 590.681421 42.793076 
L 591.131297 45.379862 
L 591.468703 46.054676 
" clip-path="url(#p24acfee52e)" style="fill: none; stroke: #000000; stroke-linejoin: miter"/>
   </g>
  </g>
  <g id="axes_38">
   <g id="patch_33">
    <path d="M 603.057476 43.917766 
Q 603.357393 44.180193 604.369614 45.154924 
Q 605.381834 46.129655 605.944179 46.560786 
Q 606.506524 46.991917 607.53749 47.385559 
Q 608.568455 47.7792 609.580676 47.629241 
Q 610.25549 47.629241 610.72411 47.404303 
Q 611.192731 47.179366 611.417669 46.879448 
Q 611.642607 46.579531 611.773821 45.979697 
Q 611.905034 45.379862 611.923779 44.967476 
Q 611.942524 44.55509 611.942524 43.805297 
Q 611.942524 42.718097 611.042772 42.043283 
Q 610.143021 41.368469 608.849628 41.031062 
Q 607.556234 40.693655 606.262841 40.300014 
Q 604.969448 39.906372 604.069697 38.987876 
Q 603.169945 38.069379 603.169945 36.607283 
Q 603.169945 36.082428 603.338648 35.726276 
Q 603.507352 35.370124 603.900993 35.145186 
Q 604.294634 34.920248 604.575807 34.807779 
Q 604.856979 34.69531 605.513048 34.639076 
Q 606.169117 34.582841 606.356566 34.582841 
Q 606.544014 34.582841 607.218828 34.582841 
Q 608.418497 34.582841 608.999586 34.995228 
Q 609.580676 35.407614 609.899338 36.026193 
Q 610.218 36.644772 610.480428 36.832221 
" clip-path="url(#pfabd0cb076)" style="fill: none; stroke: #000000; stroke-linejoin: miter"/>
   </g>
  </g>
  <g id="axes_39">
   <g id="patch_34">
    <path d="M 618.863834 37.95691 
L 619.538648 37.95691 
Q 620.250952 37.95691 621.038234 37.881931 
Q 621.825517 37.806952 622.781503 37.675738 
Q 623.73749 37.544524 624.262345 37.507034 
L 628.536166 35.82 
M 624.487283 30.42149 
L 624.487283 31.43371 
Q 624.487283 33.383172 623.812469 37.207117 
Q 623.137655 41.031062 623.137655 43.018014 
Q 623.137655 43.805297 623.137655 44.105214 
Q 623.137655 44.405131 623.231379 45.042455 
Q 623.325103 45.679779 623.512552 45.960952 
Q 623.7 46.242124 624.093641 46.485807 
Q 624.487283 46.72949 625.049628 46.72949 
Q 625.162097 46.692 625.480759 46.72949 
Q 625.799421 46.766979 625.986869 46.710745 
Q 626.174317 46.65451 626.174317 46.392083 
" clip-path="url(#pe092e89cc2)" style="fill: none; stroke: #000000; stroke-linejoin: miter"/>
   </g>
  </g>
  <g id="axes_40">
   <g id="patch_35">
    <path d="M 635.457476 43.917766 
Q 635.757393 44.180193 636.769614 45.154924 
Q 637.781834 46.129655 638.344179 46.560786 
Q 638.906524 46.991917 639.93749 47.385559 
Q 640.968455 47.7792 641.980676 47.629241 
Q 642.65549 47.629241 643.12411 47.404303 
Q 643.592731 47.179366 643.817669 46.879448 
Q 644.042607 46.579531 644.173821 45.979697 
Q 644.305034 45.379862 644.323779 44.967476 
Q 644.342524 44.55509 644.342524 43.805297 
Q 644.342524 42.718097 643.442772 42.043283 
Q 642.543021 41.368469 641.249628 41.031062 
Q 639.956234 40.693655 638.662841 40.300014 
Q 637.369448 39.906372 636.469697 38.987876 
Q 635.569945 38.069379 635.569945 36.607283 
Q 635.569945 36.082428 635.738648 35.726276 
Q 635.907352 35.370124 636.300993 35.145186 
Q 636.694634 34.920248 636.975807 34.807779 
Q 637.256979 34.69531 637.913048 34.639076 
Q 638.569117 34.582841 638.756566 34.582841 
Q 638.944014 34.582841 639.618828 34.582841 
Q 640.818497 34.582841 641.399586 34.995228 
Q 641.980676 35.407614 642.299338 36.026193 
Q 642.618 36.644772 642.880428 36.832221 
" clip-path="url(#pc785acf555)" style="fill: none; stroke: #000000; stroke-linejoin: miter"/>
   </g>
  </g>
  <g id="axes_41"/>
  <g id="axes_42">
   <g id="patch_36">
    <path d="M 667.463834 37.95691 
L 668.138648 37.95691 
Q 668.850952 37.95691 669.638234 37.881931 
Q 670.425517 37.806952 671.381503 37.675738 
Q 672.33749 37.544524 672.862345 37.507034 
L 677.136166 35.82 
M 673.087283 30.42149 
L 673.087283 31.43371 
Q 673.087283 33.383172 672.412469 37.207117 
Q 671.737655 41.031062 671.737655 43.018014 
Q 671.737655 43.805297 671.737655 44.105214 
Q 671.737655 44.405131 671.831379 45.042455 
Q 671.925103 45.679779 672.112552 45.960952 
Q 672.3 46.242124 672.693641 46.485807 
Q 673.087283 46.72949 673.649628 46.72949 
Q 673.762097 46.692 674.080759 46.72949 
Q 674.399421 46.766979 674.586869 46.710745 
Q 674.774317 46.65451 674.774317 46.392083 
" clip-path="url(#pb62dc696a3)" style="fill: none; stroke: #000000; stroke-linejoin: miter"/>
   </g>
  </g>
  <g id="axes_43">
   <g id="patch_37">
    <path d="M 691.7616 35.032717 
Q 690.71189 34.582841 689.737159 34.69531 
Q 686.700497 35.032717 684.788524 36.701007 
Q 682.876552 38.369297 682.876552 41.330979 
Q 682.876552 43.917766 684.882248 45.6048 
Q 686.887945 47.291834 689.512221 47.291834 
Q 691.874069 47.291834 692.998759 45.361117 
Q 694.123448 43.4304 694.123448 40.881103 
Q 694.123448 39.643945 693.711062 38.706703 
Q 693.298676 37.769462 692.773821 37.300841 
Q 692.248966 36.832221 691.499172 36.119917 
Q 690.749379 35.407614 690.299503 34.69531 
L 689.062345 34.245434 
" clip-path="url(#p8cf59e802b)" style="fill: none; stroke: #000000; stroke-linejoin: miter"/>
   </g>
  </g>
  <g id="axes_44"/>
  <g id="axes_45">
   <g id="patch_38">
    <path d="M 714.584141 38.85304 
L 715.012335 38.85304 
Q 715.83304 38.85304 716.796476 38.745991 
Q 717.759912 38.638943 718.919604 38.460529 
Q 720.079295 38.282115 720.685903 38.210749 
L 727.215859 35.427489 
M 726.894714 25.793128 
Q 726.609251 25.721762 725.574449 25.275727 
Q 724.539648 24.829692 723.897357 24.93674 
Q 723.255066 24.93674 722.737665 25.150837 
Q 722.220264 25.364934 721.881278 25.793128 
Q 721.542291 26.221322 721.27467 26.685198 
Q 721.007048 27.149075 720.864317 27.862731 
Q 720.721586 28.576388 720.614537 29.129471 
Q 720.507489 29.682555 720.489648 30.50326 
Q 720.471806 31.323965 720.453965 31.77 
Q 720.436123 32.216035 720.453965 32.965374 
Q 720.471806 33.714714 720.471806 33.928811 
Q 720.471806 36.605022 721.167621 41.850396 
Q 721.863436 47.095771 721.863436 49.771982 
Q 721.79207 50.057445 721.756388 50.681894 
Q 721.720705 51.306344 721.613656 51.805903 
Q 721.506608 52.305463 721.221145 52.555242 
" clip-path="url(#p33293e9161)" style="fill: none; stroke: #000000; stroke-linejoin: miter"/>
   </g>
  </g>
  <g id="axes_46">
   <g id="patch_39">
    <path d="M 732.488772 35.145186 
Q 732.488772 35.145186 732.488772 35.595062 
Q 732.488772 36.269876 732.376303 37.619503 
Q 732.263834 38.969131 732.263834 39.643945 
Q 732.263834 41.930814 733.500993 43.599103 
Q 734.738152 45.267393 736.875062 45.267393 
Q 738.262179 45.154924 739.030717 43.917766 
Q 739.799255 42.680607 739.949214 41.237255 
Q 740.099172 39.793903 740.3616 37.9944 
Q 740.624028 36.194897 741.036414 35.370124 
Q 741.186372 35.070207 741.186372 35.670041 
Q 741.186372 36.269876 740.923945 38.706703 
Q 740.699007 41.031062 740.699007 41.555917 
Q 740.549048 42.643117 740.886455 43.767807 
Q 741.223862 44.892497 741.936166 45.6048 
" clip-path="url(#p250a758e92)" style="fill: none; stroke: #000000; stroke-linejoin: miter"/>
   </g>
  </g>
  <g id="axes_47">
   <g id="patch_40">
    <path d="M 752.906359 28.621986 
Q 753.131297 30.34651 753.206276 32.146014 
Q 753.281255 33.945517 753.26251 36.551048 
Q 753.243766 39.156579 753.243766 40.093821 
Q 753.243766 40.13131 753.468703 45.829738 
L 753.693641 46.841959 
" clip-path="url(#p9699511da9)" style="fill: none; stroke: #000000; stroke-linejoin: miter"/>
   </g>
  </g>
  <g id="axes_48">
   <g id="patch_41">
    <path d="M 763.184141 38.85304 
L 763.612335 38.85304 
Q 764.43304 38.85304 765.396476 38.745991 
Q 766.359912 38.638943 767.519604 38.460529 
Q 768.679295 38.282115 769.285903 38.210749 
L 775.815859 35.427489 
M 775.494714 25.793128 
Q 775.209251 25.721762 774.174449 25.275727 
Q 773.139648 24.829692 772.497357 24.93674 
Q 771.855066 24.93674 771.337665 25.150837 
Q 770.820264 25.364934 770.481278 25.793128 
Q 770.142291 26.221322 769.87467 26.685198 
Q 769.607048 27.149075 769.464317 27.862731 
Q 769.321586 28.576388 769.214537 29.129471 
Q 769.107489 29.682555 769.089648 30.50326 
Q 769.071806 31.323965 769.053965 31.77 
Q 769.036123 32.216035 769.053965 32.965374 
Q 769.071806 33.714714 769.071806 33.928811 
Q 769.071806 36.605022 769.767621 41.850396 
Q 770.463436 47.095771 770.463436 49.771982 
Q 770.39207 50.057445 770.356388 50.681894 
Q 770.320705 51.306344 770.213656 51.805903 
Q 770.106608 52.305463 769.821145 52.555242 
" clip-path="url(#p52bc3ebd59)" style="fill: none; stroke: #000000; stroke-linejoin: miter"/>
   </g>
  </g>
  <g id="axes_49">
   <g id="patch_42">
    <path d="M 786.318579 29.071862 
Q 785.943683 29.146841 785.812469 29.577972 
Q 785.681255 30.009103 785.756234 30.42149 
Q 785.756234 30.571448 785.793724 30.702662 
Q 785.831214 30.833876 785.887448 30.89011 
Q 785.943683 30.946345 785.999917 31.040069 
Q 786.056152 31.133793 786.093641 31.208772 
L 786.20611 29.859145 
M 786.20611 34.020497 
Q 785.306359 39.006621 785.081421 42.793076 
L 785.531297 45.379862 
L 785.868703 46.054676 
" clip-path="url(#p5c93a0bfa9)" style="fill: none; stroke: #000000; stroke-linejoin: miter"/>
   </g>
  </g>
  <g id="axes_50">
   <g id="patch_43">
    <path d="M 801.506359 28.621986 
Q 801.731297 30.34651 801.806276 32.146014 
Q 801.881255 33.945517 801.86251 36.551048 
Q 801.843766 39.156579 801.843766 40.093821 
Q 801.843766 40.13131 802.068703 45.829738 
L 802.293641 46.841959 
" clip-path="url(#pa8e7917569)" style="fill: none; stroke: #000000; stroke-linejoin: miter"/>
   </g>
  </g>
  <g id="axes_51">
   <g id="patch_44">
    <path d="M 817.706359 28.621986 
Q 817.931297 30.34651 818.006276 32.146014 
Q 818.081255 33.945517 818.06251 36.551048 
Q 818.043766 39.156579 818.043766 40.093821 
Q 818.043766 40.13131 818.268703 45.829738 
L 818.493641 46.841959 
" clip-path="url(#pb66f45c31e)" style="fill: none; stroke: #000000; stroke-linejoin: miter"/>
   </g>
  </g>
  <g id="axes_52"/>
  <g id="axes_53">
   <g id="patch_45">
    <path d="M 846.057476 43.917766 
Q 846.357393 44.180193 847.369614 45.154924 
Q 848.381834 46.129655 848.944179 46.560786 
Q 849.506524 46.991917 850.53749 47.385559 
Q 851.568455 47.7792 852.580676 47.629241 
Q 853.25549 47.629241 853.72411 47.404303 
Q 854.192731 47.179366 854.417669 46.879448 
Q 854.642607 46.579531 854.773821 45.979697 
Q 854.905034 45.379862 854.923779 44.967476 
Q 854.942524 44.55509 854.942524 43.805297 
Q 854.942524 42.718097 854.042772 42.043283 
Q 853.143021 41.368469 851.849628 41.031062 
Q 850.556234 40.693655 849.262841 40.300014 
Q 847.969448 39.906372 847.069697 38.987876 
Q 846.169945 38.069379 846.169945 36.607283 
Q 846.169945 36.082428 846.338648 35.726276 
Q 846.507352 35.370124 846.900993 35.145186 
Q 847.294634 34.920248 847.575807 34.807779 
Q 847.856979 34.69531 848.513048 34.639076 
Q 849.169117 34.582841 849.356566 34.582841 
Q 849.544014 34.582841 850.218828 34.582841 
Q 851.418497 34.582841 851.999586 34.995228 
Q 852.580676 35.407614 852.899338 36.026193 
Q 853.218 36.644772 853.480428 36.832221 
" clip-path="url(#paeb06d6549)" style="fill: none; stroke: #000000; stroke-linejoin: miter"/>
   </g>
  </g>
  <g id="axes_54">
   <g id="patch_46">
    <path d="M 869.9616 35.032717 
Q 868.91189 34.582841 867.937159 34.69531 
Q 864.900497 35.032717 862.988524 36.701007 
Q 861.076552 38.369297 861.076552 41.330979 
Q 861.076552 43.917766 863.082248 45.6048 
Q 865.087945 47.291834 867.712221 47.291834 
Q 870.074069 47.291834 871.198759 45.361117 
Q 872.323448 43.4304 872.323448 40.881103 
Q 872.323448 39.643945 871.911062 38.706703 
Q 871.498676 37.769462 870.973821 37.300841 
Q 870.448966 36.832221 869.699172 36.119917 
Q 868.949379 35.407614 868.499503 34.69531 
L 867.262345 34.245434 
" clip-path="url(#p1e3a3f9123)" style="fill: none; stroke: #000000; stroke-linejoin: miter"/>
   </g>
  </g>
  <g id="axes_55">
   <g id="patch_47">
    <path d="M 876.608036 34.879821 
Q 877.114286 36.109286 877.367411 42.256607 
Q 877.548214 46.632054 877.8375 46.632054 
L 877.909821 46.595893 
Q 878.416071 46.017321 878.470312 44.588973 
Q 878.524554 43.160625 878.307589 41.750357 
Q 878.090625 40.340089 877.8375 38.712857 
Q 877.584375 37.085625 877.584375 36.398571 
Q 877.584375 35.169107 877.964062 33.939643 
Q 878.34375 32.710179 879.320089 32.710179 
Q 880.549554 32.710179 881.272768 34.355491 
Q 881.995982 36.000804 882.158705 37.971563 
Q 882.321429 39.942321 882.429911 41.587634 
Q 882.538393 43.232946 882.683036 43.232946 
Q 882.827679 43.232946 882.91808 41.497232 
Q 883.008482 39.761518 883.135045 37.700357 
Q 883.261607 35.639196 883.984821 33.903482 
Q 884.708036 32.167768 885.9375 32.167768 
Q 887.492411 33.035625 888.161384 34.771339 
Q 888.830357 36.507054 888.794196 38.188527 
Q 888.758036 39.87 888.776116 42.057723 
Q 888.794196 44.245446 889.191964 45.511071 
" clip-path="url(#p50a9a2f18e)" style="fill: none; stroke: #000000; stroke-linejoin: miter"/>
   </g>
  </g>
  <g id="axes_56">
   <g id="patch_48">
    <path d="M 892.857798 38.160826 
Q 895.830275 39.535596 900.549083 39.721376 
Q 902.072477 39.721376 902.759862 38.550963 
Q 903.447248 37.38055 903.447248 35.82 
Q 903.447248 35.299817 903.354358 34.909679 
Q 903.261468 34.519541 903.019954 34.296606 
Q 902.77844 34.07367 902.611239 33.943624 
Q 902.444037 33.813578 901.998165 33.757844 
Q 901.552294 33.70211 901.347936 33.683532 
Q 901.143578 33.664954 900.567661 33.683532 
Q 899.991743 33.70211 899.768807 33.70211 
Q 897.725229 33.70211 896.238991 35.578486 
Q 894.752752 37.454862 894.752752 39.609908 
Q 894.752752 42.619541 896.684862 44.570229 
Q 898.616972 46.520917 901.663761 46.520917 
Q 903.818807 46.818165 905.342202 44.29156 
" clip-path="url(#pc250fff32e)" style="fill: none; stroke: #000000; stroke-linejoin: miter"/>
   </g>
  </g>
  <g id="axes_57"/>
  <g id="axes_58">
   <g id="patch_49">
    <path d="M 926.720069 39.868883 
L 926.720069 39.419007 
Q 926.720069 37.769462 928.463338 36.682262 
Q 930.206607 35.595062 931.893641 35.595062 
Q 934.105531 35.595062 935.473903 36.794731 
Q 936.842276 37.9944 936.842276 40.20629 
Q 936.842276 42.30571 935.024028 43.336676 
Q 933.205779 44.367641 930.99389 44.367641 
Q 930.319076 44.367641 929.812966 44.255172 
Q 929.306855 44.142703 928.688276 43.917766 
Q 928.069697 43.692828 927.619821 43.580359 
L 926.495131 42.568138 
M 926.157724 36.832221 
Q 926.6076 38.444276 926.870028 40.262524 
Q 927.132455 42.080772 927.18869 43.749062 
Q 927.244924 45.417352 927.282414 47.27309 
Q 927.319903 49.128828 927.282414 50.778372 
L 927.169945 57.863917 
" clip-path="url(#p295027e829)" style="fill: none; stroke: #000000; stroke-linejoin: miter"/>
   </g>
  </g>
  <g id="axes_59">
   <g id="patch_50">
    <path d="M 943.088772 35.145186 
Q 943.088772 35.145186 943.088772 35.595062 
Q 943.088772 36.269876 942.976303 37.619503 
Q 942.863834 38.969131 942.863834 39.643945 
Q 942.863834 41.930814 944.100993 43.599103 
Q 945.338152 45.267393 947.475062 45.267393 
Q 948.862179 45.154924 949.630717 43.917766 
Q 950.399255 42.680607 950.549214 41.237255 
Q 950.699172 39.793903 950.9616 37.9944 
Q 951.224028 36.194897 951.636414 35.370124 
Q 951.786372 35.070207 951.786372 35.670041 
Q 951.786372 36.269876 951.523945 38.706703 
Q 951.299007 41.031062 951.299007 41.555917 
Q 951.149048 42.643117 951.486455 43.767807 
Q 951.823862 44.892497 952.536166 45.6048 
" clip-path="url(#pe83323dfde)" style="fill: none; stroke: #000000; stroke-linejoin: miter"/>
   </g>
  </g>
  <g id="axes_60">
   <g id="patch_51">
    <path d="M 960.413462 32.783338 
Q 960.938317 34.507862 961.069531 36.457324 
Q 961.200745 38.406786 961.125766 40.956083 
Q 961.050786 43.505379 961.088276 44.705048 
L 961.200745 46.054676 
L 961.200745 45.829738 
Q 961.200745 44.667559 960.919572 42.30571 
Q 960.6384 39.943862 960.6384 38.744193 
Q 960.6384 36.419834 961.650621 34.882759 
Q 962.662841 33.345683 964.687283 33.345683 
Q 965.399586 33.345683 965.736993 33.626855 
Q 966.0744 33.908028 966.336828 34.432883 
Q 966.599255 34.957738 966.936662 35.257655 
L 967.386538 36.832221 
" clip-path="url(#p09d08f8298)" style="fill: none; stroke: #000000; stroke-linejoin: miter"/>
   </g>
  </g>
  <g id="axes_61">
   <g id="patch_52">
    <path d="M 975.320069 39.868883 
L 975.320069 39.419007 
Q 975.320069 37.769462 977.063338 36.682262 
Q 978.806607 35.595062 980.493641 35.595062 
Q 982.705531 35.595062 984.073903 36.794731 
Q 985.442276 37.9944 985.442276 40.20629 
Q 985.442276 42.30571 983.624028 43.336676 
Q 981.805779 44.367641 979.59389 44.367641 
Q 978.919076 44.367641 978.412966 44.255172 
Q 977.906855 44.142703 977.288276 43.917766 
Q 976.669697 43.692828 976.219821 43.580359 
L 975.095131 42.568138 
M 974.757724 36.832221 
Q 975.2076 38.444276 975.470028 40.262524 
Q 975.732455 42.080772 975.78869 43.749062 
Q 975.844924 45.417352 975.882414 47.27309 
Q 975.919903 49.128828 975.882414 50.778372 
L 975.769945 57.863917 
" clip-path="url(#p580630463d)" style="fill: none; stroke: #000000; stroke-linejoin: miter"/>
   </g>
  </g>
  <g id="axes_62">
   <g id="patch_53">
    <path d="M 999.5616 35.032717 
Q 998.51189 34.582841 997.537159 34.69531 
Q 994.500497 35.032717 992.588524 36.701007 
Q 990.676552 38.369297 990.676552 41.330979 
Q 990.676552 43.917766 992.682248 45.6048 
Q 994.687945 47.291834 997.312221 47.291834 
Q 999.674069 47.291834 1000.798759 45.361117 
Q 1001.923448 43.4304 1001.923448 40.881103 
Q 1001.923448 39.643945 1001.511062 38.706703 
Q 1001.098676 37.769462 1000.573821 37.300841 
Q 1000.048966 36.832221 999.299172 36.119917 
Q 998.549379 35.407614 998.099503 34.69531 
L 996.862345 34.245434 
" clip-path="url(#pb46c0b4113)" style="fill: none; stroke: #000000; stroke-linejoin: miter"/>
   </g>
  </g>
  <g id="axes_63">
   <g id="patch_54">
    <path d="M 1008.057476 43.917766 
Q 1008.357393 44.180193 1009.369614 45.154924 
Q 1010.381834 46.129655 1010.944179 46.560786 
Q 1011.506524 46.991917 1012.53749 47.385559 
Q 1013.568455 47.7792 1014.580676 47.629241 
Q 1015.25549 47.629241 1015.72411 47.404303 
Q 1016.192731 47.179366 1016.417669 46.879448 
Q 1016.642607 46.579531 1016.773821 45.979697 
Q 1016.905034 45.379862 1016.923779 44.967476 
Q 1016.942524 44.55509 1016.942524 43.805297 
Q 1016.942524 42.718097 1016.042772 42.043283 
Q 1015.143021 41.368469 1013.849628 41.031062 
Q 1012.556234 40.693655 1011.262841 40.300014 
Q 1009.969448 39.906372 1009.069697 38.987876 
Q 1008.169945 38.069379 1008.169945 36.607283 
Q 1008.169945 36.082428 1008.338648 35.726276 
Q 1008.507352 35.370124 1008.900993 35.145186 
Q 1009.294634 34.920248 1009.575807 34.807779 
Q 1009.856979 34.69531 1010.513048 34.639076 
Q 1011.169117 34.582841 1011.356566 34.582841 
Q 1011.544014 34.582841 1012.218828 34.582841 
Q 1013.418497 34.582841 1013.999586 34.995228 
Q 1014.580676 35.407614 1014.899338 36.026193 
Q 1015.218 36.644772 1015.480428 36.832221 
" clip-path="url(#pc461d8a4f5)" style="fill: none; stroke: #000000; stroke-linejoin: miter"/>
   </g>
  </g>
  <g id="axes_64">
   <g id="patch_55">
    <path d="M 1022.457798 38.160826 
Q 1025.430275 39.535596 1030.149083 39.721376 
Q 1031.672477 39.721376 1032.359862 38.550963 
Q 1033.047248 37.38055 1033.047248 35.82 
Q 1033.047248 35.299817 1032.954358 34.909679 
Q 1032.861468 34.519541 1032.619954 34.296606 
Q 1032.37844 34.07367 1032.211239 33.943624 
Q 1032.044037 33.813578 1031.598165 33.757844 
Q 1031.152294 33.70211 1030.947936 33.683532 
Q 1030.743578 33.664954 1030.167661 33.683532 
Q 1029.591743 33.70211 1029.368807 33.70211 
Q 1027.325229 33.70211 1025.838991 35.578486 
Q 1024.352752 37.454862 1024.352752 39.609908 
Q 1024.352752 42.619541 1026.284862 44.570229 
Q 1028.216972 46.520917 1031.263761 46.520917 
Q 1033.418807 46.818165 1034.942202 44.29156 
" clip-path="url(#p11b1024f1b)" style="fill: none; stroke: #000000; stroke-linejoin: miter"/>
   </g>
  </g>
  <g id="axes_65">
   <g id="patch_56">
    <path d="M 1044.337655 40.656166 
Q 1044.450124 40.806124 1044.806276 41.031062 
Q 1045.162428 41.256 1045.312386 41.499683 
Q 1045.462345 41.743366 1045.349876 42.118262 
Q 1045.387366 42.3432 1045.368621 42.624372 
Q 1045.349876 42.905545 1045.312386 43.149228 
Q 1045.274897 43.39291 1045.087448 43.542869 
Q 1044.9 43.692828 1044.562593 43.692828 
" clip-path="url(#p94ea041e0a)" style="fill: none; stroke: #000000; stroke-linejoin: miter"/>
   </g>
  </g>
 </g>
 <defs>
  <clipPath id="pa0dbfe69c3">
   <rect x="0" y="13.491103" width="16.2" height="44.657795"/>
  </clipPath>
  <clipPath id="p41ac678625">
   <rect x="16.802069" y="8.64" width="14.995862" height="54.36"/>
  </clipPath>
  <clipPath id="p7fedba7fd5">
   <rect x="32.4" y="9.603482" width="16.2" height="52.433036"/>
  </clipPath>
  <clipPath id="p953b119f31">
   <rect x="48.6" y="8.881927" width="16.2" height="53.876147"/>
  </clipPath>
  <clipPath id="pee9c3b4454">
   <rect x="81.883241" y="8.64" width="14.433517" height="54.36"/>
  </clipPath>
  <clipPath id="p6740c4dd84">
   <rect x="97.2" y="8.881927" width="16.2" height="53.876147"/>
  </clipPath>
  <clipPath id="p33a714553d">
   <rect x="114.002069" y="8.64" width="14.995862" height="54.36"/>
  </clipPath>
  <clipPath id="p016b30cc4a">
   <rect x="130.483241" y="8.64" width="14.433517" height="54.36"/>
  </clipPath>
  <clipPath id="p58008d0d94">
   <rect x="151.631876" y="8.64" width="4.536248" height="54.36"/>
  </clipPath>
  <clipPath id="p1f0065b7ad">
   <rect x="162" y="8.881927" width="16.2" height="53.876147"/>
  </clipPath>
  <clipPath id="pde03e382fc">
   <rect x="195.958055" y="8.64" width="13.08389" height="54.36"/>
  </clipPath>
  <clipPath id="p87a61025bc">
   <rect x="210.6" y="8.881927" width="16.2" height="53.876147"/>
  </clipPath>
  <clipPath id="pef456ae370">
   <rect x="232.631876" y="8.64" width="4.536248" height="54.36"/>
  </clipPath>
  <clipPath id="p7b0bc949d6">
   <rect x="248.606938" y="8.64" width="4.986124" height="54.36"/>
  </clipPath>
  <clipPath id="pbf9a705f92">
   <rect x="259.2" y="8.881927" width="16.2" height="53.876147"/>
  </clipPath>
  <clipPath id="p17df49445a">
   <rect x="277.351697" y="8.64" width="12.296607" height="54.36"/>
  </clipPath>
  <clipPath id="p988891af78">
   <rect x="291.6" y="8.881927" width="16.2" height="53.876147"/>
  </clipPath>
  <clipPath id="p191711a274">
   <rect x="325.389352" y="8.64" width="13.421297" height="54.36"/>
  </clipPath>
  <clipPath id="p2ad0b0e895">
   <rect x="342.938979" y="8.64" width="10.722041" height="54.36"/>
  </clipPath>
  <clipPath id="p9def9b9ac1">
   <rect x="356.4" y="13.617732" width="16.2" height="44.404537"/>
  </clipPath>
  <clipPath id="p5b0e96a778">
   <rect x="373.989352" y="8.64" width="13.421297" height="54.36"/>
  </clipPath>
  <clipPath id="p579083f803">
   <rect x="405" y="13.617732" width="16.2" height="44.404537"/>
  </clipPath>
  <clipPath id="p622e3ace07">
   <rect x="438.283241" y="8.64" width="14.433517" height="54.36"/>
  </clipPath>
  <clipPath id="p87067df2fc">
   <rect x="453.6" y="8.881927" width="16.2" height="53.876147"/>
  </clipPath>
  <clipPath id="p11b9ec6c16">
   <rect x="472.538979" y="8.64" width="10.722041" height="54.36"/>
  </clipPath>
  <clipPath id="pc64b01087b">
   <rect x="487.782993" y="8.64" width="12.634014" height="54.36"/>
  </clipPath>
  <clipPath id="p5b53c67c68">
   <rect x="502.802069" y="8.64" width="14.995862" height="54.36"/>
  </clipPath>
  <clipPath id="p194663ee3a">
   <rect x="519.789352" y="8.64" width="13.421297" height="54.36"/>
  </clipPath>
  <clipPath id="p8b29f84915">
   <rect x="550.8" y="8.881927" width="16.2" height="53.876147"/>
  </clipPath>
  <clipPath id="p7fbacf5db0">
   <rect x="568.051945" y="8.64" width="14.09611" height="54.36"/>
  </clipPath>
  <clipPath id="p24acfee52e">
   <rect x="588.806938" y="8.64" width="4.986124" height="54.36"/>
  </clipPath>
  <clipPath id="pfabd0cb076">
   <rect x="601.182993" y="8.64" width="12.634014" height="54.36"/>
  </clipPath>
  <clipPath id="pe092e89cc2">
   <rect x="616.989352" y="8.64" width="13.421297" height="54.36"/>
  </clipPath>
  <clipPath id="pc785acf555">
   <rect x="633.582993" y="8.64" width="12.634014" height="54.36"/>
  </clipPath>
  <clipPath id="pb62dc696a3">
   <rect x="665.589352" y="8.64" width="13.421297" height="54.36"/>
  </clipPath>
  <clipPath id="p8cf59e802b">
   <rect x="681.002069" y="8.64" width="14.995862" height="54.36"/>
  </clipPath>
  <clipPath id="p33293e9161">
   <rect x="712.8" y="9.949956" width="16.2" height="51.740088"/>
  </clipPath>
  <clipPath id="p250a758e92">
   <rect x="730.389352" y="8.64" width="13.421297" height="54.36"/>
  </clipPath>
  <clipPath id="p9699511da9">
   <rect x="751.031876" y="8.64" width="4.536248" height="54.36"/>
  </clipPath>
  <clipPath id="p52bc3ebd59">
   <rect x="761.4" y="9.949956" width="16.2" height="51.740088"/>
  </clipPath>
  <clipPath id="p5c93a0bfa9">
   <rect x="783.206938" y="8.64" width="4.986124" height="54.36"/>
  </clipPath>
  <clipPath id="pa8e7917569">
   <rect x="799.631876" y="8.64" width="4.536248" height="54.36"/>
  </clipPath>
  <clipPath id="pb66f45c31e">
   <rect x="815.831876" y="8.64" width="4.536248" height="54.36"/>
  </clipPath>
  <clipPath id="paeb06d6549">
   <rect x="844.182993" y="8.64" width="12.634014" height="54.36"/>
  </clipPath>
  <clipPath id="p1e3a3f9123">
   <rect x="859.202069" y="8.64" width="14.995862" height="54.36"/>
  </clipPath>
  <clipPath id="p50a9a2f18e">
   <rect x="874.8" y="9.603482" width="16.2" height="52.433036"/>
  </clipPath>
  <clipPath id="pc250fff32e">
   <rect x="891" y="8.881927" width="16.2" height="53.876147"/>
  </clipPath>
  <clipPath id="p295027e829">
   <rect x="924.283241" y="8.64" width="14.433517" height="54.36"/>
  </clipPath>
  <clipPath id="pe83323dfde">
   <rect x="940.989352" y="8.64" width="13.421297" height="54.36"/>
  </clipPath>
  <clipPath id="p09d08f8298">
   <rect x="958.538979" y="8.64" width="10.722041" height="54.36"/>
  </clipPath>
  <clipPath id="p580630463d">
   <rect x="972.883241" y="8.64" width="14.433517" height="54.36"/>
  </clipPath>
  <clipPath id="pb46c0b4113">
   <rect x="988.802069" y="8.64" width="14.995862" height="54.36"/>
  </clipPath>
  <clipPath id="pc461d8a4f5">
   <rect x="1006.182993" y="8.64" width="12.634014" height="54.36"/>
  </clipPath>
  <clipPath id="p11b1024f1b">
   <rect x="1020.6" y="8.881927" width="16.2" height="53.876147"/>
  </clipPath>
  <clipPath id="p94ea041e0a">
   <rect x="1042.463172" y="8.64" width="4.873655" height="54.36"/>
  </clipPath>
 </defs>
</svg>
