<?xml version="1.0" encoding="utf-8" standalone="no"?>
<!DOCTYPE svg PUBLIC "-//W3C//DTD SVG 1.1//EN"
  "http://www.w3.org/Graphics/SVG/1.1/DTD/svg11.dtd">
<svg xmlns:xlink="http://www.w3.org/1999/xlink" width="414pt" height="72pt" viewBox="0 0 414 72" xmlns="http://www.w3.org/2000/svg" version="1.1">
 <metadata>
  <rdf:RDF xmlns:dc="http://purl.org/dc/elements/1.1/" xmlns:cc="http://creativecommons.org/ns#" xmlns:rdf="http://www.w3.org/1999/02/22-rdf-syntax-ns#">
   <cc:Work>
    <dc:type rdf:resource="http://purl.org/dc/dcmitype/StillImage"/>
    <dc:date>2023-01-02T13:37:22.364641</dc:date>
    <dc:format>image/svg+xml</dc:format>
    <dc:creator>
     <cc:Agent>
      <dc:title>Matplotlib v3.6.1, https://matplotlib.org/</dc:title>
     </cc:Agent>
    </dc:creator>
   </cc:Work>
  </rdf:RDF>
 </metadata>
 <defs>
  <style type="text/css">*{stroke-linejoin: round; stroke-linecap: butt}</style>
 </defs>
 <g id="figure_1">
  <g id="patch_1">
   <path d="M 0 72 
L 414 72 
L 414 0 
L 0 0 
L 0 72 
z
" style="fill: none"/>
  </g>
  <g id="axes_1">
   <g id="patch_2">
    <path d="M 1.087248 30.470738 
L 2.261477 30.601208 
Q 4.088054 30.601208 5.925503 30.709933 
Q 7.762953 30.818658 10.002685 30.992617 
Q 12.242416 31.166577 13.677584 31.253557 
L 15.112752 31.123087 
M 7.871678 31.057852 
Q 7.936913 31.405772 7.675973 32.177718 
Q 7.415034 32.949664 7.610738 33.406309 
Q 7.610738 34.711007 7.752081 36.363624 
Q 7.893423 38.016242 8.110872 39.973289 
Q 8.328322 41.930336 8.393557 42.800134 
" clip-path="url(#p4056dc3a8d)" style="fill: none; stroke: #000000; stroke-linejoin: miter"/>
   </g>
  </g>
  <g id="axes_2">
   <g id="patch_3">
    <path d="M 20.813462 35.932469 
Q 21.413297 35.257655 22.406772 34.826524 
Q 23.400248 34.395393 24.3 34.470372 
Q 24.937324 34.470372 25.42469 34.639076 
Q 25.912055 34.807779 26.230717 34.995228 
Q 26.549379 35.182676 26.774317 35.670041 
Q 26.999255 36.157407 27.111724 36.419834 
Q 27.224193 36.682262 27.280428 37.375821 
Q 27.336662 38.069379 27.355407 38.331807 
Q 27.374152 38.594234 27.355407 39.419007 
Q 27.336662 40.243779 27.336662 40.431228 
Q 27.336662 41.368469 27.167959 43.242952 
Q 26.999255 45.117434 26.999255 46.054676 
Q 26.999255 46.467062 27.05549 46.823214 
Q 27.111724 47.179366 27.205448 47.610497 
Q 27.299172 48.041628 27.336662 48.304055 
L 27.786538 48.528993 
M 21.263338 23.111007 
Q 21.488276 24.798041 21.488276 29.971614 
L 21.488276 42.3432 
L 21.150869 46.841959 
L 20.925931 47.74171 
" clip-path="url(#p97ca8b3647)" style="fill: none; stroke: #000000; stroke-linejoin: miter"/>
   </g>
  </g>
  <g id="axes_3">
   <g id="patch_4">
    <path d="M 34.257798 38.160826 
Q 37.230275 39.535596 41.949083 39.721376 
Q 43.472477 39.721376 44.159862 38.550963 
Q 44.847248 37.38055 44.847248 35.82 
Q 44.847248 35.299817 44.754358 34.909679 
Q 44.661468 34.519541 44.419954 34.296606 
Q 44.17844 34.07367 44.011239 33.943624 
Q 43.844037 33.813578 43.398165 33.757844 
Q 42.952294 33.70211 42.747936 33.683532 
Q 42.543578 33.664954 41.967661 33.683532 
Q 41.391743 33.70211 41.168807 33.70211 
Q 39.125229 33.70211 37.638991 35.578486 
Q 36.152752 37.454862 36.152752 39.609908 
Q 36.152752 42.619541 38.084862 44.570229 
Q 40.016972 46.520917 43.063761 46.520917 
Q 45.218807 46.818165 46.742202 44.29156 
" clip-path="url(#p1df08cf3bc)" style="fill: none; stroke: #000000; stroke-linejoin: miter"/>
   </g>
  </g>
  <g id="axes_4">
   <g id="patch_5">
    <path d="M 51.863834 32.783338 
L 51.863834 33.345683 
Q 52.726097 39.718924 52.763586 47.066897 
Q 52.763586 47.81669 52.688607 47.029407 
Q 52.238731 42.080772 52.088772 35.82 
L 52.088772 35.145186 
Q 52.088772 33.6456 53.682083 33.008276 
Q 55.275393 32.370952 56.7 32.783338 
Q 58.237076 33.233214 59.211807 34.414138 
Q 60.186538 35.595062 60.561434 37.282097 
Q 60.936331 38.969131 61.067545 40.543697 
Q 61.198759 42.118262 61.273738 44.067724 
Q 61.348717 46.017186 61.536166 47.066897 
" clip-path="url(#p208c6a5b42)" style="fill: none; stroke: #000000; stroke-linejoin: miter"/>
   </g>
  </g>
  <g id="axes_5">
   <g id="patch_6">
    <path d="M 72.337655 40.656166 
Q 72.450124 40.806124 72.806276 41.031062 
Q 73.162428 41.256 73.312386 41.499683 
Q 73.462345 41.743366 73.349876 42.118262 
Q 73.387366 42.3432 73.368621 42.624372 
Q 73.349876 42.905545 73.312386 43.149228 
Q 73.274897 43.39291 73.087448 43.542869 
Q 72.9 43.692828 72.562593 43.692828 
" clip-path="url(#p5800ae51c1)" style="fill: none; stroke: #000000; stroke-linejoin: miter"/>
   </g>
  </g>
  <g id="axes_6"/>
  <g id="axes_7">
   <g id="patch_7">
    <path d="M 98.916102 36.437797 
L 100.151695 44.778051 
Q 100.254661 45.567458 100.254661 45.60178 
Q 100.254661 45.704746 100.563559 45.704746 
Q 101.42161 45.704746 102.142373 44.778051 
Q 102.863136 43.851356 103.275 42.718729 
Q 103.686864 41.586102 104.201695 40.659407 
Q 104.716525 39.732712 105.197034 39.732712 
Q 105.814831 39.732712 106.449788 40.607924 
Q 107.084746 41.483136 107.548093 42.512797 
Q 108.011441 43.542458 108.68072 44.417669 
Q 109.35 45.292881 110.036441 45.292881 
Q 110.311017 43.782712 110.740042 39.69839 
Q 111.169068 35.614068 111.683898 33.554746 
" clip-path="url(#pa2d64013f9)" style="fill: none; stroke: #000000; stroke-linejoin: miter"/>
   </g>
  </g>
  <g id="axes_8">
   <g id="patch_8">
    <path d="M 118.013462 35.932469 
Q 118.613297 35.257655 119.606772 34.826524 
Q 120.600248 34.395393 121.5 34.470372 
Q 122.137324 34.470372 122.62469 34.639076 
Q 123.112055 34.807779 123.430717 34.995228 
Q 123.749379 35.182676 123.974317 35.670041 
Q 124.199255 36.157407 124.311724 36.419834 
Q 124.424193 36.682262 124.480428 37.375821 
Q 124.536662 38.069379 124.555407 38.331807 
Q 124.574152 38.594234 124.555407 39.419007 
Q 124.536662 40.243779 124.536662 40.431228 
Q 124.536662 41.368469 124.367959 43.242952 
Q 124.199255 45.117434 124.199255 46.054676 
Q 124.199255 46.467062 124.25549 46.823214 
Q 124.311724 47.179366 124.405448 47.610497 
Q 124.499172 48.041628 124.536662 48.304055 
L 124.986538 48.528993 
M 118.463338 23.111007 
Q 118.688276 24.798041 118.688276 29.971614 
L 118.688276 42.3432 
L 118.350869 46.841959 
L 118.125931 47.74171 
" clip-path="url(#pd9cd9872cc)" style="fill: none; stroke: #000000; stroke-linejoin: miter"/>
   </g>
  </g>
  <g id="axes_9">
   <g id="patch_9">
    <path d="M 141.696408 36.371229 
Q 140.624575 35.1769 137.102836 35.1769 
Q 135.755388 35.1769 135.066352 35.222836 
Q 134.377316 35.268771 133.489225 35.483138 
Q 132.601134 35.697505 132.172401 36.14155 
Q 131.743667 36.585595 131.437429 37.412439 
Q 131.131191 38.239282 131.131191 39.494858 
Q 131.131191 41.332287 132.386767 42.434745 
Q 133.642344 43.537202 135.357278 43.537202 
Q 137.715312 43.537202 140.165217 38.392401 
Q 141.359546 35.850624 141.359546 35.82 
Q 141.665784 35.605633 141.696408 36.371229 
Q 141.696408 37.320567 142.063894 39.847032 
Q 142.43138 42.373497 142.43138 43.537202 
M 144.268809 44.731531 
" clip-path="url(#p45e6c84330)" style="fill: none; stroke: #000000; stroke-linejoin: miter"/>
   </g>
  </g>
  <g id="axes_10">
   <g id="patch_10">
    <path d="M 149.063834 37.95691 
L 149.738648 37.95691 
Q 150.450952 37.95691 151.238234 37.881931 
Q 152.025517 37.806952 152.981503 37.675738 
Q 153.93749 37.544524 154.462345 37.507034 
L 158.736166 35.82 
M 154.687283 30.42149 
L 154.687283 31.43371 
Q 154.687283 33.383172 154.012469 37.207117 
Q 153.337655 41.031062 153.337655 43.018014 
Q 153.337655 43.805297 153.337655 44.105214 
Q 153.337655 44.405131 153.431379 45.042455 
Q 153.525103 45.679779 153.712552 45.960952 
Q 153.9 46.242124 154.293641 46.485807 
Q 154.687283 46.72949 155.249628 46.72949 
Q 155.362097 46.692 155.680759 46.72949 
Q 155.999421 46.766979 156.186869 46.710745 
Q 156.374317 46.65451 156.374317 46.392083 
" clip-path="url(#p42fbbc8a22)" style="fill: none; stroke: #000000; stroke-linejoin: miter"/>
   </g>
  </g>
  <g id="axes_11"/>
  <g id="axes_12">
   <g id="patch_11">
    <path d="M 186.918579 29.071862 
Q 186.543683 29.146841 186.412469 29.577972 
Q 186.281255 30.009103 186.356234 30.42149 
Q 186.356234 30.571448 186.393724 30.702662 
Q 186.431214 30.833876 186.487448 30.89011 
Q 186.543683 30.946345 186.599917 31.040069 
Q 186.656152 31.133793 186.693641 31.208772 
L 186.80611 29.859145 
M 186.80611 34.020497 
Q 185.906359 39.006621 185.681421 42.793076 
L 186.131297 45.379862 
L 186.468703 46.054676 
" clip-path="url(#pf308b7df07)" style="fill: none; stroke: #000000; stroke-linejoin: miter"/>
   </g>
  </g>
  <g id="axes_13">
   <g id="patch_12">
    <path d="M 198.057476 43.917766 
Q 198.357393 44.180193 199.369614 45.154924 
Q 200.381834 46.129655 200.944179 46.560786 
Q 201.506524 46.991917 202.53749 47.385559 
Q 203.568455 47.7792 204.580676 47.629241 
Q 205.25549 47.629241 205.72411 47.404303 
Q 206.192731 47.179366 206.417669 46.879448 
Q 206.642607 46.579531 206.773821 45.979697 
Q 206.905034 45.379862 206.923779 44.967476 
Q 206.942524 44.55509 206.942524 43.805297 
Q 206.942524 42.718097 206.042772 42.043283 
Q 205.143021 41.368469 203.849628 41.031062 
Q 202.556234 40.693655 201.262841 40.300014 
Q 199.969448 39.906372 199.069697 38.987876 
Q 198.169945 38.069379 198.169945 36.607283 
Q 198.169945 36.082428 198.338648 35.726276 
Q 198.507352 35.370124 198.900993 35.145186 
Q 199.294634 34.920248 199.575807 34.807779 
Q 199.856979 34.69531 200.513048 34.639076 
Q 201.169117 34.582841 201.356566 34.582841 
Q 201.544014 34.582841 202.218828 34.582841 
Q 203.418497 34.582841 203.999586 34.995228 
Q 204.580676 35.407614 204.899338 36.026193 
Q 205.218 36.644772 205.480428 36.832221 
" clip-path="url(#p887daafc4d)" style="fill: none; stroke: #000000; stroke-linejoin: miter"/>
   </g>
  </g>
  <g id="axes_14"/>
  <g id="axes_15">
   <g id="patch_13">
    <path d="M 238.896408 36.371229 
Q 237.824575 35.1769 234.302836 35.1769 
Q 232.955388 35.1769 232.266352 35.222836 
Q 231.577316 35.268771 230.689225 35.483138 
Q 229.801134 35.697505 229.372401 36.14155 
Q 228.943667 36.585595 228.637429 37.412439 
Q 228.331191 38.239282 228.331191 39.494858 
Q 228.331191 41.332287 229.586767 42.434745 
Q 230.842344 43.537202 232.557278 43.537202 
Q 234.915312 43.537202 237.365217 38.392401 
Q 238.559546 35.850624 238.559546 35.82 
Q 238.865784 35.605633 238.896408 36.371229 
Q 238.896408 37.320567 239.263894 39.847032 
Q 239.63138 42.373497 239.63138 43.537202 
M 241.468809 44.731531 
" clip-path="url(#pb17eb19b07)" style="fill: none; stroke: #000000; stroke-linejoin: miter"/>
   </g>
  </g>
  <g id="axes_16"/>
  <g id="axes_17">
   <g id="patch_14">
    <path d="M 262.520069 39.868883 
L 262.520069 39.419007 
Q 262.520069 37.769462 264.263338 36.682262 
Q 266.006607 35.595062 267.693641 35.595062 
Q 269.905531 35.595062 271.273903 36.794731 
Q 272.642276 37.9944 272.642276 40.20629 
Q 272.642276 42.30571 270.824028 43.336676 
Q 269.005779 44.367641 266.79389 44.367641 
Q 266.119076 44.367641 265.612966 44.255172 
Q 265.106855 44.142703 264.488276 43.917766 
Q 263.869697 43.692828 263.419821 43.580359 
L 262.295131 42.568138 
M 261.957724 36.832221 
Q 262.4076 38.444276 262.670028 40.262524 
Q 262.932455 42.080772 262.98869 43.749062 
Q 263.044924 45.417352 263.082414 47.27309 
Q 263.119903 49.128828 263.082414 50.778372 
L 262.969945 57.863917 
" clip-path="url(#pac2194973c)" style="fill: none; stroke: #000000; stroke-linejoin: miter"/>
   </g>
  </g>
  <g id="axes_18">
   <g id="patch_15">
    <path d="M 277.257798 38.160826 
Q 280.230275 39.535596 284.949083 39.721376 
Q 286.472477 39.721376 287.159862 38.550963 
Q 287.847248 37.38055 287.847248 35.82 
Q 287.847248 35.299817 287.754358 34.909679 
Q 287.661468 34.519541 287.419954 34.296606 
Q 287.17844 34.07367 287.011239 33.943624 
Q 286.844037 33.813578 286.398165 33.757844 
Q 285.952294 33.70211 285.747936 33.683532 
Q 285.543578 33.664954 284.967661 33.683532 
Q 284.391743 33.70211 284.168807 33.70211 
Q 282.125229 33.70211 280.638991 35.578486 
Q 279.152752 37.454862 279.152752 39.609908 
Q 279.152752 42.619541 281.084862 44.570229 
Q 283.016972 46.520917 286.063761 46.520917 
Q 288.218807 46.818165 289.742202 44.29156 
" clip-path="url(#p231a3b28b3)" style="fill: none; stroke: #000000; stroke-linejoin: miter"/>
   </g>
  </g>
  <g id="axes_19">
   <g id="patch_16">
    <path d="M 296.213462 32.783338 
Q 296.738317 34.507862 296.869531 36.457324 
Q 297.000745 38.406786 296.925766 40.956083 
Q 296.850786 43.505379 296.888276 44.705048 
L 297.000745 46.054676 
L 297.000745 45.829738 
Q 297.000745 44.667559 296.719572 42.30571 
Q 296.4384 39.943862 296.4384 38.744193 
Q 296.4384 36.419834 297.450621 34.882759 
Q 298.462841 33.345683 300.487283 33.345683 
Q 301.199586 33.345683 301.536993 33.626855 
Q 301.8744 33.908028 302.136828 34.432883 
Q 302.399255 34.957738 302.736662 35.257655 
L 303.186538 36.832221 
" clip-path="url(#p98d39a44d5)" style="fill: none; stroke: #000000; stroke-linejoin: miter"/>
   </g>
  </g>
  <g id="axes_20">
   <g id="patch_17">
    <path d="M 311.457476 43.917766 
Q 311.757393 44.180193 312.769614 45.154924 
Q 313.781834 46.129655 314.344179 46.560786 
Q 314.906524 46.991917 315.93749 47.385559 
Q 316.968455 47.7792 317.980676 47.629241 
Q 318.65549 47.629241 319.12411 47.404303 
Q 319.592731 47.179366 319.817669 46.879448 
Q 320.042607 46.579531 320.173821 45.979697 
Q 320.305034 45.379862 320.323779 44.967476 
Q 320.342524 44.55509 320.342524 43.805297 
Q 320.342524 42.718097 319.442772 42.043283 
Q 318.543021 41.368469 317.249628 41.031062 
Q 315.956234 40.693655 314.662841 40.300014 
Q 313.369448 39.906372 312.469697 38.987876 
Q 311.569945 38.069379 311.569945 36.607283 
Q 311.569945 36.082428 311.738648 35.726276 
Q 311.907352 35.370124 312.300993 35.145186 
Q 312.694634 34.920248 312.975807 34.807779 
Q 313.256979 34.69531 313.913048 34.639076 
Q 314.569117 34.582841 314.756566 34.582841 
Q 314.944014 34.582841 315.618828 34.582841 
Q 316.818497 34.582841 317.399586 34.995228 
Q 317.980676 35.407614 318.299338 36.026193 
Q 318.618 36.644772 318.880428 36.832221 
" clip-path="url(#p08b7f790ca)" style="fill: none; stroke: #000000; stroke-linejoin: miter"/>
   </g>
  </g>
  <g id="axes_21">
   <g id="patch_18">
    <path d="M 335.3616 35.032717 
Q 334.31189 34.582841 333.337159 34.69531 
Q 330.300497 35.032717 328.388524 36.701007 
Q 326.476552 38.369297 326.476552 41.330979 
Q 326.476552 43.917766 328.482248 45.6048 
Q 330.487945 47.291834 333.112221 47.291834 
Q 335.474069 47.291834 336.598759 45.361117 
Q 337.723448 43.4304 337.723448 40.881103 
Q 337.723448 39.643945 337.311062 38.706703 
Q 336.898676 37.769462 336.373821 37.300841 
Q 335.848966 36.832221 335.099172 36.119917 
Q 334.349379 35.407614 333.899503 34.69531 
L 332.662345 34.245434 
" clip-path="url(#p6f4b976289)" style="fill: none; stroke: #000000; stroke-linejoin: miter"/>
   </g>
  </g>
  <g id="axes_22">
   <g id="patch_19">
    <path d="M 343.463834 32.783338 
L 343.463834 33.345683 
Q 344.326097 39.718924 344.363586 47.066897 
Q 344.363586 47.81669 344.288607 47.029407 
Q 343.838731 42.080772 343.688772 35.82 
L 343.688772 35.145186 
Q 343.688772 33.6456 345.282083 33.008276 
Q 346.875393 32.370952 348.3 32.783338 
Q 349.837076 33.233214 350.811807 34.414138 
Q 351.786538 35.595062 352.161434 37.282097 
Q 352.536331 38.969131 352.667545 40.543697 
Q 352.798759 42.118262 352.873738 44.067724 
Q 352.948717 46.017186 353.136166 47.066897 
" clip-path="url(#p305efdcd48)" style="fill: none; stroke: #000000; stroke-linejoin: miter"/>
   </g>
  </g>
  <g id="axes_23">
   <g id="patch_20">
    <path d="M 362.775476 45.379862 
Q 362.513048 45.304883 362.231876 45.64229 
Q 361.950703 45.979697 362.025683 46.279614 
Q 362.025683 46.429572 362.475559 46.429572 
Q 362.625517 46.467062 362.737986 46.392083 
Q 362.850455 46.317103 362.850455 46.129655 
M 359.551366 26.934952 
Q 362.475559 25.922731 364.799917 26.0352 
Q 366.824359 26.0352 368.136497 27.197379 
Q 369.448634 28.359559 369.448634 30.309021 
Q 369.448634 32.745848 367.855324 34.001752 
Q 366.262014 35.257655 363.750207 35.257655 
L 362.250621 35.257655 
Q 362.100662 35.257655 362.063172 36.194897 
Q 362.025683 37.132138 362.063172 38.069379 
L 362.100662 39.006621 
L 362.100662 41.405959 
L 362.400579 42.230731 
" clip-path="url(#p345d40f9d3)" style="fill: none; stroke: #000000; stroke-linejoin: miter"/>
   </g>
  </g>
 </g>
 <defs>
  <clipPath id="p4056dc3a8d">
   <rect x="0" y="20.054899" width="16.2" height="31.530201"/>
  </clipPath>
  <clipPath id="p97ca8b3647">
   <rect x="18.938979" y="8.64" width="10.722041" height="54.36"/>
  </clipPath>
  <clipPath id="p1df08cf3bc">
   <rect x="32.4" y="8.881927" width="16.2" height="53.876147"/>
  </clipPath>
  <clipPath id="p208c6a5b42">
   <rect x="49.989352" y="8.64" width="13.421297" height="54.36"/>
  </clipPath>
  <clipPath id="p5800ae51c1">
   <rect x="70.463172" y="8.64" width="4.873655" height="54.36"/>
  </clipPath>
  <clipPath id="pa2d64013f9">
   <rect x="97.2" y="10.936525" width="16.2" height="49.766949"/>
  </clipPath>
  <clipPath id="pd9cd9872cc">
   <rect x="116.138979" y="8.64" width="10.722041" height="54.36"/>
  </clipPath>
  <clipPath id="p45e6c84330">
   <rect x="129.6" y="13.617732" width="16.2" height="44.404537"/>
  </clipPath>
  <clipPath id="p42fbbc8a22">
   <rect x="147.189352" y="8.64" width="13.421297" height="54.36"/>
  </clipPath>
  <clipPath id="pf308b7df07">
   <rect x="183.806938" y="8.64" width="4.986124" height="54.36"/>
  </clipPath>
  <clipPath id="p887daafc4d">
   <rect x="196.182993" y="8.64" width="12.634014" height="54.36"/>
  </clipPath>
  <clipPath id="pb17eb19b07">
   <rect x="226.8" y="13.617732" width="16.2" height="44.404537"/>
  </clipPath>
  <clipPath id="pac2194973c">
   <rect x="260.083241" y="8.64" width="14.433517" height="54.36"/>
  </clipPath>
  <clipPath id="p231a3b28b3">
   <rect x="275.4" y="8.881927" width="16.2" height="53.876147"/>
  </clipPath>
  <clipPath id="p98d39a44d5">
   <rect x="294.338979" y="8.64" width="10.722041" height="54.36"/>
  </clipPath>
  <clipPath id="p08b7f790ca">
   <rect x="309.582993" y="8.64" width="12.634014" height="54.36"/>
  </clipPath>
  <clipPath id="p6f4b976289">
   <rect x="324.602069" y="8.64" width="14.995862" height="54.36"/>
  </clipPath>
  <clipPath id="p305efdcd48">
   <rect x="341.589352" y="8.64" width="13.421297" height="54.36"/>
  </clipPath>
  <clipPath id="p345d40f9d3">
   <rect x="357.676883" y="8.64" width="13.646234" height="54.36"/>
  </clipPath>
 </defs>
</svg>
