<?xml version="1.0" encoding="utf-8" standalone="no"?>
<!DOCTYPE svg PUBLIC "-//W3C//DTD SVG 1.1//EN"
  "http://www.w3.org/Graphics/SVG/1.1/DTD/svg11.dtd">
<svg xmlns:xlink="http://www.w3.org/1999/xlink" width="162pt" height="72pt" viewBox="0 0 162 72" xmlns="http://www.w3.org/2000/svg" version="1.1">
 <metadata>
  <rdf:RDF xmlns:dc="http://purl.org/dc/elements/1.1/" xmlns:cc="http://creativecommons.org/ns#" xmlns:rdf="http://www.w3.org/1999/02/22-rdf-syntax-ns#">
   <cc:Work>
    <dc:type rdf:resource="http://purl.org/dc/dcmitype/StillImage"/>
    <dc:date>2023-01-02T13:25:27.676005</dc:date>
    <dc:format>image/svg+xml</dc:format>
    <dc:creator>
     <cc:Agent>
      <dc:title>Matplotlib v3.6.1, https://matplotlib.org/</dc:title>
     </cc:Agent>
    </dc:creator>
   </cc:Work>
  </rdf:RDF>
 </metadata>
 <defs>
  <style type="text/css">*{stroke-linejoin: round; stroke-linecap: butt}</style>
 </defs>
 <g id="figure_1">
  <g id="patch_1">
   <path d="M 0 72 
L 162 72 
L 162 0 
L 0 0 
L 0 72 
z
" style="fill: none"/>
  </g>
  <g id="axes_1">
   <g id="patch_2">
    <path d="M 7.537655 40.656166 
Q 7.650124 40.806124 8.006276 41.031062 
Q 8.362428 41.256 8.512386 41.499683 
Q 8.662345 41.743366 8.549876 42.118262 
Q 8.587366 42.3432 8.568621 42.624372 
Q 8.549876 42.905545 8.512386 43.149228 
Q 8.474897 43.39291 8.287448 43.542869 
Q 8.1 43.692828 7.762593 43.692828 
" clip-path="url(#pec4fda7742)" style="fill: none; stroke: #000000; stroke-linejoin: miter"/>
   </g>
  </g>
  <g id="axes_2"/>
  <g id="axes_3">
   <g id="patch_3">
    <path d="M 36.73229 26.372607 
L 43.367959 26.372607 
M 37.632041 37.731972 
L 43.480428 37.731972 
M 35.945007 42.793076 
Q 36.919738 41.405959 37.688276 39.512731 
Q 38.456814 37.619503 38.794221 36.213641 
Q 39.131628 34.807779 39.637738 32.483421 
Q 40.143848 30.159062 40.443766 29.071862 
Q 40.556234 29.071862 40.556234 30.196552 
L 45.054993 44.705048 
" clip-path="url(#pf8af591063)" style="fill: none; stroke: #000000; stroke-linejoin: miter"/>
   </g>
  </g>
  <g id="axes_4">
   <g id="patch_4">
    <path d="M 56.744917 36.269168 
Q 55.127911 35.520555 53.690573 35.550499 
Q 51.923845 35.550499 51.010536 37.062699 
Q 50.097227 38.574898 50.097227 40.491349 
Q 50.097227 41.838854 50.815896 42.692274 
Q 51.534566 43.545693 52.88207 43.545693 
Q 53.840296 43.545693 54.85841 41.449575 
Q 55.876525 39.353457 56.445471 37.107616 
Q 57.014418 34.861774 57.014418 33.933494 
L 57.014418 36.718336 
Q 57.942699 41.898743 57.822921 51.810388 
Q 57.733087 59.715749 58.002588 59.715749 
Q 58.481701 59.715749 59.604621 57.589686 
Q 60.727542 55.463623 61.925323 52.67878 
Q 63.123105 49.893937 63.212939 49.744214 
L 63.302773 49.38488 
" clip-path="url(#ped9fee5d3f)" style="fill: none; stroke: #000000; stroke-linejoin: miter"/>
   </g>
  </g>
  <g id="axes_5">
   <g id="patch_5">
    <path d="M 73.518579 29.071862 
Q 73.143683 29.146841 73.012469 29.577972 
Q 72.881255 30.009103 72.956234 30.42149 
Q 72.956234 30.571448 72.993724 30.702662 
Q 73.031214 30.833876 73.087448 30.89011 
Q 73.143683 30.946345 73.199917 31.040069 
Q 73.256152 31.133793 73.293641 31.208772 
L 73.40611 29.859145 
M 73.40611 34.020497 
Q 72.506359 39.006621 72.281421 42.793076 
L 72.731297 45.379862 
L 73.068703 46.054676 
" clip-path="url(#p287934b77c)" style="fill: none; stroke: #000000; stroke-linejoin: miter"/>
   </g>
  </g>
  <g id="axes_6">
   <g id="patch_6">
    <path d="M 86.119572 31.546179 
L 86.119572 31.321241 
Q 86.119572 31.133793 86.175807 31.040069 
Q 86.232041 30.946345 86.307021 30.89011 
Q 86.382 30.833876 86.531959 30.740152 
Q 86.681917 30.646428 86.794386 30.533959 
L 90.955738 25.810262 
M 92.86771 35.370124 
L 89.718579 35.370124 
Q 89.60611 35.407614 89.343683 35.482593 
Q 86.119572 36.419834 85.219821 37.132138 
Q 83.682745 38.481766 83.645255 41.893324 
Q 83.645255 43.018014 84.507517 43.917766 
Q 85.369779 44.817517 86.456979 44.817517 
Q 87.319241 44.705048 88.106524 44.236428 
Q 88.893807 43.767807 89.399917 43.224207 
Q 89.906028 42.680607 90.449628 41.687131 
Q 90.993228 40.693655 91.2744 40.075076 
Q 91.555572 39.456497 92.005448 38.294317 
Q 92.455324 37.132138 92.642772 36.719752 
Q 92.980179 35.894979 93.092648 35.951214 
Q 93.205117 36.007448 93.092648 37.207117 
L 92.980179 38.744193 
Q 92.980179 38.781683 93.317586 42.455669 
L 94.554745 44.817517 
" clip-path="url(#pb54fc8a5c6)" style="fill: none; stroke: #000000; stroke-linejoin: miter"/>
   </g>
  </g>
  <g id="axes_7">
   <g id="patch_7">
    <path d="M 100.463834 32.783338 
L 100.463834 33.345683 
Q 101.326097 39.718924 101.363586 47.066897 
Q 101.363586 47.81669 101.288607 47.029407 
Q 100.838731 42.080772 100.688772 35.82 
L 100.688772 35.145186 
Q 100.688772 33.6456 102.282083 33.008276 
Q 103.875393 32.370952 105.3 32.783338 
Q 106.837076 33.233214 107.811807 34.414138 
Q 108.786538 35.595062 109.161434 37.282097 
Q 109.536331 38.969131 109.667545 40.543697 
Q 109.798759 42.118262 109.873738 44.067724 
Q 109.948717 46.017186 110.136166 47.066897 
" clip-path="url(#p6bd9eb1f6a)" style="fill: none; stroke: #000000; stroke-linejoin: miter"/>
   </g>
  </g>
  <g id="axes_8">
   <g id="patch_8">
    <path d="M 127.11018 35.173293 
Q 126.883832 35.108623 126.026946 34.752934 
Q 125.17006 34.397246 124.588024 34.267904 
Q 124.005988 34.138563 123.423952 34.203234 
Q 121.095808 34.203234 119.640719 36.321198 
Q 118.185629 38.439162 118.185629 40.799641 
Q 118.185629 42.254731 122.841916 42.254731 
Q 124.232335 42.254731 125.412575 40.912814 
Q 126.592814 39.570898 127.191018 37.905629 
Q 127.789222 36.240359 127.789222 34.882275 
Q 127.789222 33.556527 127.756886 33.297844 
L 127.692216 34.267904 
Q 127.692216 34.688263 127.692216 35.076287 
Q 127.983234 42.287066 127.65988 45.64994 
Q 126.560479 57.969701 118.476647 57.969701 
Q 117.021557 57.969701 116.051497 57.306826 
Q 115.081437 56.643952 115.081437 55.253533 
Q 115.016766 55.059521 115.049102 55.059521 
Q 115.081437 55.059521 115.178443 55.059521 
Q 115.275449 55.059521 115.275449 54.962515 
" clip-path="url(#pa16b42f951)" style="fill: none; stroke: #000000; stroke-linejoin: miter"/>
   </g>
  </g>
  <g id="axes_9">
   <g id="patch_9">
    <path d="M 137.568786 38.969131 
Q 137.531297 38.969131 137.531297 39.11909 
Q 137.531297 39.344028 137.943683 39.344028 
Q 138.018662 39.344028 138.018662 39.006621 
L 138.018662 38.819172 
L 137.531297 38.706703 
M 137.681255 34.807779 
L 137.606276 34.807779 
Q 137.418828 34.807779 137.418828 35.295145 
Q 137.418828 35.295145 137.418828 35.332634 
Q 137.418828 35.482593 137.456317 35.520083 
Q 137.493807 35.557572 137.681255 35.557572 
Q 137.906193 35.557572 137.906193 35.070207 
Q 137.756234 34.245434 137.381338 34.132966 
" clip-path="url(#p1088b0f76d)" style="fill: none; stroke: #000000; stroke-linejoin: miter"/>
   </g>
  </g>
 </g>
 <defs>
  <clipPath id="pec4fda7742">
   <rect x="5.663172" y="8.64" width="4.873655" height="54.36"/>
  </clipPath>
  <clipPath id="pf8af591063">
   <rect x="34.070524" y="8.64" width="12.858952" height="54.36"/>
  </clipPath>
  <clipPath id="ped9fee5d3f">
   <rect x="48.6" y="14.110203" width="16.2" height="43.419593"/>
  </clipPath>
  <clipPath id="p287934b77c">
   <rect x="70.406938" y="8.64" width="4.986124" height="54.36"/>
  </clipPath>
  <clipPath id="pb54fc8a5c6">
   <rect x="81.770772" y="8.64" width="14.658455" height="54.36"/>
  </clipPath>
  <clipPath id="p6bd9eb1f6a">
   <rect x="98.589352" y="8.64" width="13.421297" height="54.36"/>
  </clipPath>
  <clipPath id="pa16b42f951">
   <rect x="113.4" y="12.376886" width="16.2" height="46.886228"/>
  </clipPath>
  <clipPath id="p1088b0f76d">
   <rect x="135.506855" y="8.64" width="4.38629" height="54.36"/>
  </clipPath>
 </defs>
</svg>
