<?xml version="1.0" encoding="utf-8" standalone="no"?>
<!DOCTYPE svg PUBLIC "-//W3C//DTD SVG 1.1//EN"
  "http://www.w3.org/Graphics/SVG/1.1/DTD/svg11.dtd">
<svg xmlns:xlink="http://www.w3.org/1999/xlink" width="918pt" height="72pt" viewBox="0 0 918 72" xmlns="http://www.w3.org/2000/svg" version="1.1">
 <metadata>
  <rdf:RDF xmlns:dc="http://purl.org/dc/elements/1.1/" xmlns:cc="http://creativecommons.org/ns#" xmlns:rdf="http://www.w3.org/1999/02/22-rdf-syntax-ns#">
   <cc:Work>
    <dc:type rdf:resource="http://purl.org/dc/dcmitype/StillImage"/>
    <dc:date>2023-01-02T13:37:29.368446</dc:date>
    <dc:format>image/svg+xml</dc:format>
    <dc:creator>
     <cc:Agent>
      <dc:title>Matplotlib v3.6.1, https://matplotlib.org/</dc:title>
     </cc:Agent>
    </dc:creator>
   </cc:Work>
  </rdf:RDF>
 </metadata>
 <defs>
  <style type="text/css">*{stroke-linejoin: round; stroke-linecap: butt}</style>
 </defs>
 <g id="figure_1">
  <g id="patch_1">
   <path d="M 0 72 
L 918 72 
L 918 0 
L 0 0 
L 0 72 
z
" style="fill: none"/>
  </g>
  <g id="axes_1">
   <g id="patch_2">
    <path d="M 4.781498 35.641586 
Q 4.781498 35.641586 6.815419 35.641586 
Q 7.636123 35.391806 9.955507 35.588062 
Q 12.27489 35.784317 13.238326 35.641586 
M 1.784141 43.991366 
L 1.891189 43.67022 
Q 1.891189 42.77815 3.818062 38.299956 
Q 5.744934 33.821762 7.707489 29.753921 
Q 9.670044 25.686079 9.812775 25.686079 
Q 10.669163 25.686079 11.364978 27.149075 
Q 12.060793 28.61207 12.52467 30.895771 
Q 12.988546 33.179471 13.327533 35.44533 
Q 13.66652 37.711189 13.951982 39.834317 
Q 14.237445 41.957445 14.415859 42.599736 
" clip-path="url(#p83435f4df4)" style="fill: none; stroke: #000000; stroke-linejoin: miter"/>
   </g>
  </g>
  <g id="axes_2"/>
  <g id="axes_3">
   <g id="patch_3">
    <path d="M 35.720069 39.868883 
L 35.720069 39.419007 
Q 35.720069 37.769462 37.463338 36.682262 
Q 39.206607 35.595062 40.893641 35.595062 
Q 43.105531 35.595062 44.473903 36.794731 
Q 45.842276 37.9944 45.842276 40.20629 
Q 45.842276 42.30571 44.024028 43.336676 
Q 42.205779 44.367641 39.99389 44.367641 
Q 39.319076 44.367641 38.812966 44.255172 
Q 38.306855 44.142703 37.688276 43.917766 
Q 37.069697 43.692828 36.619821 43.580359 
L 35.495131 42.568138 
M 35.157724 36.832221 
Q 35.6076 38.444276 35.870028 40.262524 
Q 36.132455 42.080772 36.18869 43.749062 
Q 36.244924 45.417352 36.282414 47.27309 
Q 36.319903 49.128828 36.282414 50.778372 
L 36.169945 57.863917 
" clip-path="url(#pfe8d4525d3)" style="fill: none; stroke: #000000; stroke-linejoin: miter"/>
   </g>
  </g>
  <g id="axes_4">
   <g id="patch_4">
    <path d="M 50.457798 38.160826 
Q 53.430275 39.535596 58.149083 39.721376 
Q 59.672477 39.721376 60.359862 38.550963 
Q 61.047248 37.38055 61.047248 35.82 
Q 61.047248 35.299817 60.954358 34.909679 
Q 60.861468 34.519541 60.619954 34.296606 
Q 60.37844 34.07367 60.211239 33.943624 
Q 60.044037 33.813578 59.598165 33.757844 
Q 59.152294 33.70211 58.947936 33.683532 
Q 58.743578 33.664954 58.167661 33.683532 
Q 57.591743 33.70211 57.368807 33.70211 
Q 55.325229 33.70211 53.838991 35.578486 
Q 52.352752 37.454862 52.352752 39.609908 
Q 52.352752 42.619541 54.284862 44.570229 
Q 56.216972 46.520917 59.263761 46.520917 
Q 61.418807 46.818165 62.942202 44.29156 
" clip-path="url(#p5192015c33)" style="fill: none; stroke: #000000; stroke-linejoin: miter"/>
   </g>
  </g>
  <g id="axes_5">
   <g id="patch_5">
    <path d="M 69.413462 32.783338 
Q 69.938317 34.507862 70.069531 36.457324 
Q 70.200745 38.406786 70.125766 40.956083 
Q 70.050786 43.505379 70.088276 44.705048 
L 70.200745 46.054676 
L 70.200745 45.829738 
Q 70.200745 44.667559 69.919572 42.30571 
Q 69.6384 39.943862 69.6384 38.744193 
Q 69.6384 36.419834 70.650621 34.882759 
Q 71.662841 33.345683 73.687283 33.345683 
Q 74.399586 33.345683 74.736993 33.626855 
Q 75.0744 33.908028 75.336828 34.432883 
Q 75.599255 34.957738 75.936662 35.257655 
L 76.386538 36.832221 
" clip-path="url(#p89a72cfd27)" style="fill: none; stroke: #000000; stroke-linejoin: miter"/>
   </g>
  </g>
  <g id="axes_6">
   <g id="patch_6">
    <path d="M 84.657476 43.917766 
Q 84.957393 44.180193 85.969614 45.154924 
Q 86.981834 46.129655 87.544179 46.560786 
Q 88.106524 46.991917 89.13749 47.385559 
Q 90.168455 47.7792 91.180676 47.629241 
Q 91.85549 47.629241 92.32411 47.404303 
Q 92.792731 47.179366 93.017669 46.879448 
Q 93.242607 46.579531 93.373821 45.979697 
Q 93.505034 45.379862 93.523779 44.967476 
Q 93.542524 44.55509 93.542524 43.805297 
Q 93.542524 42.718097 92.642772 42.043283 
Q 91.743021 41.368469 90.449628 41.031062 
Q 89.156234 40.693655 87.862841 40.300014 
Q 86.569448 39.906372 85.669697 38.987876 
Q 84.769945 38.069379 84.769945 36.607283 
Q 84.769945 36.082428 84.938648 35.726276 
Q 85.107352 35.370124 85.500993 35.145186 
Q 85.894634 34.920248 86.175807 34.807779 
Q 86.456979 34.69531 87.113048 34.639076 
Q 87.769117 34.582841 87.956566 34.582841 
Q 88.144014 34.582841 88.818828 34.582841 
Q 90.018497 34.582841 90.599586 34.995228 
Q 91.180676 35.407614 91.499338 36.026193 
Q 91.818 36.644772 92.080428 36.832221 
" clip-path="url(#pc382a00c06)" style="fill: none; stroke: #000000; stroke-linejoin: miter"/>
   </g>
  </g>
  <g id="axes_7">
   <g id="patch_7">
    <path d="M 108.5616 35.032717 
Q 107.51189 34.582841 106.537159 34.69531 
Q 103.500497 35.032717 101.588524 36.701007 
Q 99.676552 38.369297 99.676552 41.330979 
Q 99.676552 43.917766 101.682248 45.6048 
Q 103.687945 47.291834 106.312221 47.291834 
Q 108.674069 47.291834 109.798759 45.361117 
Q 110.923448 43.4304 110.923448 40.881103 
Q 110.923448 39.643945 110.511062 38.706703 
Q 110.098676 37.769462 109.573821 37.300841 
Q 109.048966 36.832221 108.299172 36.119917 
Q 107.549379 35.407614 107.099503 34.69531 
L 105.862345 34.245434 
" clip-path="url(#p092c348b0a)" style="fill: none; stroke: #000000; stroke-linejoin: miter"/>
   </g>
  </g>
  <g id="axes_8">
   <g id="patch_8">
    <path d="M 116.663834 32.783338 
L 116.663834 33.345683 
Q 117.526097 39.718924 117.563586 47.066897 
Q 117.563586 47.81669 117.488607 47.029407 
Q 117.038731 42.080772 116.888772 35.82 
L 116.888772 35.145186 
Q 116.888772 33.6456 118.482083 33.008276 
Q 120.075393 32.370952 121.5 32.783338 
Q 123.037076 33.233214 124.011807 34.414138 
Q 124.986538 35.595062 125.361434 37.282097 
Q 125.736331 38.969131 125.867545 40.543697 
Q 125.998759 42.118262 126.073738 44.067724 
Q 126.148717 46.017186 126.336166 47.066897 
" clip-path="url(#pc070d90f81)" style="fill: none; stroke: #000000; stroke-linejoin: miter"/>
   </g>
  </g>
  <g id="axes_9"/>
  <g id="axes_10">
   <g id="patch_9">
    <path d="M 154.518579 29.071862 
Q 154.143683 29.146841 154.012469 29.577972 
Q 153.881255 30.009103 153.956234 30.42149 
Q 153.956234 30.571448 153.993724 30.702662 
Q 154.031214 30.833876 154.087448 30.89011 
Q 154.143683 30.946345 154.199917 31.040069 
Q 154.256152 31.133793 154.293641 31.208772 
L 154.40611 29.859145 
M 154.40611 34.020497 
Q 153.506359 39.006621 153.281421 42.793076 
L 153.731297 45.379862 
L 154.068703 46.054676 
" clip-path="url(#pe64eb8505f)" style="fill: none; stroke: #000000; stroke-linejoin: miter"/>
   </g>
  </g>
  <g id="axes_11">
   <g id="patch_10">
    <path d="M 165.657476 43.917766 
Q 165.957393 44.180193 166.969614 45.154924 
Q 167.981834 46.129655 168.544179 46.560786 
Q 169.106524 46.991917 170.13749 47.385559 
Q 171.168455 47.7792 172.180676 47.629241 
Q 172.85549 47.629241 173.32411 47.404303 
Q 173.792731 47.179366 174.017669 46.879448 
Q 174.242607 46.579531 174.373821 45.979697 
Q 174.505034 45.379862 174.523779 44.967476 
Q 174.542524 44.55509 174.542524 43.805297 
Q 174.542524 42.718097 173.642772 42.043283 
Q 172.743021 41.368469 171.449628 41.031062 
Q 170.156234 40.693655 168.862841 40.300014 
Q 167.569448 39.906372 166.669697 38.987876 
Q 165.769945 38.069379 165.769945 36.607283 
Q 165.769945 36.082428 165.938648 35.726276 
Q 166.107352 35.370124 166.500993 35.145186 
Q 166.894634 34.920248 167.175807 34.807779 
Q 167.456979 34.69531 168.113048 34.639076 
Q 168.769117 34.582841 168.956566 34.582841 
Q 169.144014 34.582841 169.818828 34.582841 
Q 171.018497 34.582841 171.599586 34.995228 
Q 172.180676 35.407614 172.499338 36.026193 
Q 172.818 36.644772 173.080428 36.832221 
" clip-path="url(#p34d558aa50)" style="fill: none; stroke: #000000; stroke-linejoin: miter"/>
   </g>
  </g>
  <g id="axes_12"/>
  <g id="axes_13">
   <g id="patch_11">
    <path d="M 206.496408 36.371229 
Q 205.424575 35.1769 201.902836 35.1769 
Q 200.555388 35.1769 199.866352 35.222836 
Q 199.177316 35.268771 198.289225 35.483138 
Q 197.401134 35.697505 196.972401 36.14155 
Q 196.543667 36.585595 196.237429 37.412439 
Q 195.931191 38.239282 195.931191 39.494858 
Q 195.931191 41.332287 197.186767 42.434745 
Q 198.442344 43.537202 200.157278 43.537202 
Q 202.515312 43.537202 204.965217 38.392401 
Q 206.159546 35.850624 206.159546 35.82 
Q 206.465784 35.605633 206.496408 36.371229 
Q 206.496408 37.320567 206.863894 39.847032 
Q 207.23138 42.373497 207.23138 43.537202 
M 209.068809 44.731531 
" clip-path="url(#pc990d53184)" style="fill: none; stroke: #000000; stroke-linejoin: miter"/>
   </g>
  </g>
  <g id="axes_14"/>
  <g id="axes_15">
   <g id="patch_12">
    <path d="M 230.120069 39.868883 
L 230.120069 39.419007 
Q 230.120069 37.769462 231.863338 36.682262 
Q 233.606607 35.595062 235.293641 35.595062 
Q 237.505531 35.595062 238.873903 36.794731 
Q 240.242276 37.9944 240.242276 40.20629 
Q 240.242276 42.30571 238.424028 43.336676 
Q 236.605779 44.367641 234.39389 44.367641 
Q 233.719076 44.367641 233.212966 44.255172 
Q 232.706855 44.142703 232.088276 43.917766 
Q 231.469697 43.692828 231.019821 43.580359 
L 229.895131 42.568138 
M 229.557724 36.832221 
Q 230.0076 38.444276 230.270028 40.262524 
Q 230.532455 42.080772 230.58869 43.749062 
Q 230.644924 45.417352 230.682414 47.27309 
Q 230.719903 49.128828 230.682414 50.778372 
L 230.569945 57.863917 
" clip-path="url(#p951454a1e1)" style="fill: none; stroke: #000000; stroke-linejoin: miter"/>
   </g>
  </g>
  <g id="axes_16">
   <g id="patch_13">
    <path d="M 255.096408 36.371229 
Q 254.024575 35.1769 250.502836 35.1769 
Q 249.155388 35.1769 248.466352 35.222836 
Q 247.777316 35.268771 246.889225 35.483138 
Q 246.001134 35.697505 245.572401 36.14155 
Q 245.143667 36.585595 244.837429 37.412439 
Q 244.531191 38.239282 244.531191 39.494858 
Q 244.531191 41.332287 245.786767 42.434745 
Q 247.042344 43.537202 248.757278 43.537202 
Q 251.115312 43.537202 253.565217 38.392401 
Q 254.759546 35.850624 254.759546 35.82 
Q 255.065784 35.605633 255.096408 36.371229 
Q 255.096408 37.320567 255.463894 39.847032 
Q 255.83138 42.373497 255.83138 43.537202 
M 257.668809 44.731531 
" clip-path="url(#pf0580a06ed)" style="fill: none; stroke: #000000; stroke-linejoin: miter"/>
   </g>
  </g>
  <g id="axes_17">
   <g id="patch_14">
    <path d="M 263.813462 32.783338 
Q 264.338317 34.507862 264.469531 36.457324 
Q 264.600745 38.406786 264.525766 40.956083 
Q 264.450786 43.505379 264.488276 44.705048 
L 264.600745 46.054676 
L 264.600745 45.829738 
Q 264.600745 44.667559 264.319572 42.30571 
Q 264.0384 39.943862 264.0384 38.744193 
Q 264.0384 36.419834 265.050621 34.882759 
Q 266.062841 33.345683 268.087283 33.345683 
Q 268.799586 33.345683 269.136993 33.626855 
Q 269.4744 33.908028 269.736828 34.432883 
Q 269.999255 34.957738 270.336662 35.257655 
L 270.786538 36.832221 
" clip-path="url(#p2221f89fbd)" style="fill: none; stroke: #000000; stroke-linejoin: miter"/>
   </g>
  </g>
  <g id="axes_18">
   <g id="patch_15">
    <path d="M 278.663834 37.95691 
L 279.338648 37.95691 
Q 280.050952 37.95691 280.838234 37.881931 
Q 281.625517 37.806952 282.581503 37.675738 
Q 283.53749 37.544524 284.062345 37.507034 
L 288.336166 35.82 
M 284.287283 30.42149 
L 284.287283 31.43371 
Q 284.287283 33.383172 283.612469 37.207117 
Q 282.937655 41.031062 282.937655 43.018014 
Q 282.937655 43.805297 282.937655 44.105214 
Q 282.937655 44.405131 283.031379 45.042455 
Q 283.125103 45.679779 283.312552 45.960952 
Q 283.5 46.242124 283.893641 46.485807 
Q 284.287283 46.72949 284.849628 46.72949 
Q 284.962097 46.692 285.280759 46.72949 
Q 285.599421 46.766979 285.786869 46.710745 
Q 285.974317 46.65451 285.974317 46.392083 
" clip-path="url(#pb5f8699a7b)" style="fill: none; stroke: #000000; stroke-linejoin: miter"/>
   </g>
  </g>
  <g id="axes_19"/>
  <g id="axes_20">
   <g id="patch_16">
    <path d="M 319.1616 35.032717 
Q 318.11189 34.582841 317.137159 34.69531 
Q 314.100497 35.032717 312.188524 36.701007 
Q 310.276552 38.369297 310.276552 41.330979 
Q 310.276552 43.917766 312.282248 45.6048 
Q 314.287945 47.291834 316.912221 47.291834 
Q 319.274069 47.291834 320.398759 45.361117 
Q 321.523448 43.4304 321.523448 40.881103 
Q 321.523448 39.643945 321.111062 38.706703 
Q 320.698676 37.769462 320.173821 37.300841 
Q 319.648966 36.832221 318.899172 36.119917 
Q 318.149379 35.407614 317.699503 34.69531 
L 316.462345 34.245434 
" clip-path="url(#p8251f05d9c)" style="fill: none; stroke: #000000; stroke-linejoin: miter"/>
   </g>
  </g>
  <g id="axes_21">
   <g id="patch_17">
    <path d="M 325.784141 38.85304 
L 326.212335 38.85304 
Q 327.03304 38.85304 327.996476 38.745991 
Q 328.959912 38.638943 330.119604 38.460529 
Q 331.279295 38.282115 331.885903 38.210749 
L 338.415859 35.427489 
M 338.094714 25.793128 
Q 337.809251 25.721762 336.774449 25.275727 
Q 335.739648 24.829692 335.097357 24.93674 
Q 334.455066 24.93674 333.937665 25.150837 
Q 333.420264 25.364934 333.081278 25.793128 
Q 332.742291 26.221322 332.47467 26.685198 
Q 332.207048 27.149075 332.064317 27.862731 
Q 331.921586 28.576388 331.814537 29.129471 
Q 331.707489 29.682555 331.689648 30.50326 
Q 331.671806 31.323965 331.653965 31.77 
Q 331.636123 32.216035 331.653965 32.965374 
Q 331.671806 33.714714 331.671806 33.928811 
Q 331.671806 36.605022 332.367621 41.850396 
Q 333.063436 47.095771 333.063436 49.771982 
Q 332.99207 50.057445 332.956388 50.681894 
Q 332.920705 51.306344 332.813656 51.805903 
Q 332.706608 52.305463 332.421145 52.555242 
" clip-path="url(#p5144fb9fe0)" style="fill: none; stroke: #000000; stroke-linejoin: miter"/>
   </g>
  </g>
  <g id="axes_22"/>
  <g id="axes_23">
   <g id="patch_18">
    <path d="M 359.663834 37.95691 
L 360.338648 37.95691 
Q 361.050952 37.95691 361.838234 37.881931 
Q 362.625517 37.806952 363.581503 37.675738 
Q 364.53749 37.544524 365.062345 37.507034 
L 369.336166 35.82 
M 365.287283 30.42149 
L 365.287283 31.43371 
Q 365.287283 33.383172 364.612469 37.207117 
Q 363.937655 41.031062 363.937655 43.018014 
Q 363.937655 43.805297 363.937655 44.105214 
Q 363.937655 44.405131 364.031379 45.042455 
Q 364.125103 45.679779 364.312552 45.960952 
Q 364.5 46.242124 364.893641 46.485807 
Q 365.287283 46.72949 365.849628 46.72949 
Q 365.962097 46.692 366.280759 46.72949 
Q 366.599421 46.766979 366.786869 46.710745 
Q 366.974317 46.65451 366.974317 46.392083 
" clip-path="url(#p213eb45c43)" style="fill: none; stroke: #000000; stroke-linejoin: miter"/>
   </g>
  </g>
  <g id="axes_24">
   <g id="patch_19">
    <path d="M 377.213462 35.932469 
Q 377.813297 35.257655 378.806772 34.826524 
Q 379.800248 34.395393 380.7 34.470372 
Q 381.337324 34.470372 381.82469 34.639076 
Q 382.312055 34.807779 382.630717 34.995228 
Q 382.949379 35.182676 383.174317 35.670041 
Q 383.399255 36.157407 383.511724 36.419834 
Q 383.624193 36.682262 383.680428 37.375821 
Q 383.736662 38.069379 383.755407 38.331807 
Q 383.774152 38.594234 383.755407 39.419007 
Q 383.736662 40.243779 383.736662 40.431228 
Q 383.736662 41.368469 383.567959 43.242952 
Q 383.399255 45.117434 383.399255 46.054676 
Q 383.399255 46.467062 383.45549 46.823214 
Q 383.511724 47.179366 383.605448 47.610497 
Q 383.699172 48.041628 383.736662 48.304055 
L 384.186538 48.528993 
M 377.663338 23.111007 
Q 377.888276 24.798041 377.888276 29.971614 
L 377.888276 42.3432 
L 377.550869 46.841959 
L 377.325931 47.74171 
" clip-path="url(#p76e9abdfd4)" style="fill: none; stroke: #000000; stroke-linejoin: miter"/>
   </g>
  </g>
  <g id="axes_25">
   <g id="patch_20">
    <path d="M 390.657798 38.160826 
Q 393.630275 39.535596 398.349083 39.721376 
Q 399.872477 39.721376 400.559862 38.550963 
Q 401.247248 37.38055 401.247248 35.82 
Q 401.247248 35.299817 401.154358 34.909679 
Q 401.061468 34.519541 400.819954 34.296606 
Q 400.57844 34.07367 400.411239 33.943624 
Q 400.244037 33.813578 399.798165 33.757844 
Q 399.352294 33.70211 399.147936 33.683532 
Q 398.943578 33.664954 398.367661 33.683532 
Q 397.791743 33.70211 397.568807 33.70211 
Q 395.525229 33.70211 394.038991 35.578486 
Q 392.552752 37.454862 392.552752 39.609908 
Q 392.552752 42.619541 394.484862 44.570229 
Q 396.416972 46.520917 399.463761 46.520917 
Q 401.618807 46.818165 403.142202 44.29156 
" clip-path="url(#p4e8370c36d)" style="fill: none; stroke: #000000; stroke-linejoin: miter"/>
   </g>
  </g>
  <g id="axes_26"/>
  <g id="axes_27">
   <g id="patch_21">
    <path d="M 422.916102 36.437797 
L 424.151695 44.778051 
Q 424.254661 45.567458 424.254661 45.60178 
Q 424.254661 45.704746 424.563559 45.704746 
Q 425.42161 45.704746 426.142373 44.778051 
Q 426.863136 43.851356 427.275 42.718729 
Q 427.686864 41.586102 428.201695 40.659407 
Q 428.716525 39.732712 429.197034 39.732712 
Q 429.814831 39.732712 430.449788 40.607924 
Q 431.084746 41.483136 431.548093 42.512797 
Q 432.011441 43.542458 432.68072 44.417669 
Q 433.35 45.292881 434.036441 45.292881 
Q 434.311017 43.782712 434.740042 39.69839 
Q 435.169068 35.614068 435.683898 33.554746 
" clip-path="url(#p18d1b4392f)" style="fill: none; stroke: #000000; stroke-linejoin: miter"/>
   </g>
  </g>
  <g id="axes_28">
   <g id="patch_22">
    <path d="M 448.7616 35.032717 
Q 447.71189 34.582841 446.737159 34.69531 
Q 443.700497 35.032717 441.788524 36.701007 
Q 439.876552 38.369297 439.876552 41.330979 
Q 439.876552 43.917766 441.882248 45.6048 
Q 443.887945 47.291834 446.512221 47.291834 
Q 448.874069 47.291834 449.998759 45.361117 
Q 451.123448 43.4304 451.123448 40.881103 
Q 451.123448 39.643945 450.711062 38.706703 
Q 450.298676 37.769462 449.773821 37.300841 
Q 449.248966 36.832221 448.499172 36.119917 
Q 447.749379 35.407614 447.299503 34.69531 
L 446.062345 34.245434 
" clip-path="url(#pe1f50e482d)" style="fill: none; stroke: #000000; stroke-linejoin: miter"/>
   </g>
  </g>
  <g id="axes_29">
   <g id="patch_23">
    <path d="M 458.213462 32.783338 
Q 458.738317 34.507862 458.869531 36.457324 
Q 459.000745 38.406786 458.925766 40.956083 
Q 458.850786 43.505379 458.888276 44.705048 
L 459.000745 46.054676 
L 459.000745 45.829738 
Q 459.000745 44.667559 458.719572 42.30571 
Q 458.4384 39.943862 458.4384 38.744193 
Q 458.4384 36.419834 459.450621 34.882759 
Q 460.462841 33.345683 462.487283 33.345683 
Q 463.199586 33.345683 463.536993 33.626855 
Q 463.8744 33.908028 464.136828 34.432883 
Q 464.399255 34.957738 464.736662 35.257655 
L 465.186538 36.832221 
" clip-path="url(#p9d34d11c97)" style="fill: none; stroke: #000000; stroke-linejoin: miter"/>
   </g>
  </g>
  <g id="axes_30">
   <g id="patch_24">
    <path d="M 477.506359 28.621986 
Q 477.731297 30.34651 477.806276 32.146014 
Q 477.881255 33.945517 477.86251 36.551048 
Q 477.843766 39.156579 477.843766 40.093821 
Q 477.843766 40.13131 478.068703 45.829738 
L 478.293641 46.841959 
" clip-path="url(#p459e610d18)" style="fill: none; stroke: #000000; stroke-linejoin: miter"/>
   </g>
  </g>
  <g id="axes_31">
   <g id="patch_25">
    <path d="M 497.699007 38.444276 
Q 496.349379 37.057159 494.1 37.319586 
Q 491.250786 37.319586 490.088607 38.669214 
Q 488.926428 40.018841 488.926428 42.943034 
Q 488.926428 44.442621 490.219821 45.154924 
Q 491.513214 45.867228 493.087779 45.867228 
Q 494.399917 45.867228 495.412138 44.611324 
Q 496.424359 43.355421 497.005448 41.181021 
Q 497.586538 39.006621 497.961434 36.813476 
Q 498.336331 34.620331 498.48629 31.921076 
Q 498.636248 29.221821 498.673738 27.853448 
Q 498.711228 26.485076 498.711228 25.060469 
Q 498.48629 25.135448 498.48629 28.771945 
L 498.48629 43.167972 
L 499.273572 47.104386 
" clip-path="url(#pf4491e6af0)" style="fill: none; stroke: #000000; stroke-linejoin: miter"/>
   </g>
  </g>
  <g id="axes_32">
   <g id="patch_26">
    <path d="M 509.737655 40.656166 
Q 509.850124 40.806124 510.206276 41.031062 
Q 510.562428 41.256 510.712386 41.499683 
Q 510.862345 41.743366 510.749876 42.118262 
Q 510.787366 42.3432 510.768621 42.624372 
Q 510.749876 42.905545 510.712386 43.149228 
Q 510.674897 43.39291 510.487448 43.542869 
Q 510.3 43.692828 509.962593 43.692828 
" clip-path="url(#pfa1df36759)" style="fill: none; stroke: #000000; stroke-linejoin: miter"/>
   </g>
  </g>
  <g id="axes_33"/>
  <g id="axes_34">
   <g id="patch_27">
    <path d="M 546.696408 36.371229 
Q 545.624575 35.1769 542.102836 35.1769 
Q 540.755388 35.1769 540.066352 35.222836 
Q 539.377316 35.268771 538.489225 35.483138 
Q 537.601134 35.697505 537.172401 36.14155 
Q 536.743667 36.585595 536.437429 37.412439 
Q 536.131191 38.239282 536.131191 39.494858 
Q 536.131191 41.332287 537.386767 42.434745 
Q 538.642344 43.537202 540.357278 43.537202 
Q 542.715312 43.537202 545.165217 38.392401 
Q 546.359546 35.850624 546.359546 35.82 
Q 546.665784 35.605633 546.696408 36.371229 
Q 546.696408 37.320567 547.063894 39.847032 
Q 547.43138 42.373497 547.43138 43.537202 
M 549.268809 44.731531 
" clip-path="url(#p2aa900a048)" style="fill: none; stroke: #000000; stroke-linejoin: miter"/>
   </g>
  </g>
  <g id="axes_35"/>
  <g id="axes_36">
   <g id="patch_28">
    <path d="M 580.356735 34.365306 
Q 580.356735 34.365306 579.860816 34.365306 
Q 579.067347 34.365306 577.579592 34.067755 
Q 576.091837 33.770204 575.298367 33.770204 
Q 572.521224 33.770204 570.587143 35.224898 
Q 568.653061 36.679592 568.653061 39.423673 
Q 568.653061 40.94449 570.140816 42.399184 
Q 571.628571 43.853878 573.562653 44.663878 
Q 575.496735 45.473878 576.98449 45.473878 
Q 577.910204 45.473878 578.60449 45.110204 
Q 579.298776 44.746531 580.042653 44.118367 
Q 580.786531 43.490204 581.348571 43.192653 
L 581.546939 42.696735 
" clip-path="url(#p8cf9cc48ad)" style="fill: none; stroke: #000000; stroke-linejoin: miter"/>
   </g>
  </g>
  <g id="axes_37">
   <g id="patch_29">
    <path d="M 594.5616 35.032717 
Q 593.51189 34.582841 592.537159 34.69531 
Q 589.500497 35.032717 587.588524 36.701007 
Q 585.676552 38.369297 585.676552 41.330979 
Q 585.676552 43.917766 587.682248 45.6048 
Q 589.687945 47.291834 592.312221 47.291834 
Q 594.674069 47.291834 595.798759 45.361117 
Q 596.923448 43.4304 596.923448 40.881103 
Q 596.923448 39.643945 596.511062 38.706703 
Q 596.098676 37.769462 595.573821 37.300841 
Q 595.048966 36.832221 594.299172 36.119917 
Q 593.549379 35.407614 593.099503 34.69531 
L 591.862345 34.245434 
" clip-path="url(#p58cec83c21)" style="fill: none; stroke: #000000; stroke-linejoin: miter"/>
   </g>
  </g>
  <g id="axes_38">
   <g id="patch_30">
    <path d="M 602.663834 32.783338 
L 602.663834 33.345683 
Q 603.526097 39.718924 603.563586 47.066897 
Q 603.563586 47.81669 603.488607 47.029407 
Q 603.038731 42.080772 602.888772 35.82 
L 602.888772 35.145186 
Q 602.888772 33.6456 604.482083 33.008276 
Q 606.075393 32.370952 607.5 32.783338 
Q 609.037076 33.233214 610.011807 34.414138 
Q 610.986538 35.595062 611.361434 37.282097 
Q 611.736331 38.969131 611.867545 40.543697 
Q 611.998759 42.118262 612.073738 44.067724 
Q 612.148717 46.017186 612.336166 47.066897 
" clip-path="url(#p0c09e9b4f3)" style="fill: none; stroke: #000000; stroke-linejoin: miter"/>
   </g>
  </g>
  <g id="axes_39">
   <g id="patch_31">
    <path d="M 619.257476 43.917766 
Q 619.557393 44.180193 620.569614 45.154924 
Q 621.581834 46.129655 622.144179 46.560786 
Q 622.706524 46.991917 623.73749 47.385559 
Q 624.768455 47.7792 625.780676 47.629241 
Q 626.45549 47.629241 626.92411 47.404303 
Q 627.392731 47.179366 627.617669 46.879448 
Q 627.842607 46.579531 627.973821 45.979697 
Q 628.105034 45.379862 628.123779 44.967476 
Q 628.142524 44.55509 628.142524 43.805297 
Q 628.142524 42.718097 627.242772 42.043283 
Q 626.343021 41.368469 625.049628 41.031062 
Q 623.756234 40.693655 622.462841 40.300014 
Q 621.169448 39.906372 620.269697 38.987876 
Q 619.369945 38.069379 619.369945 36.607283 
Q 619.369945 36.082428 619.538648 35.726276 
Q 619.707352 35.370124 620.100993 35.145186 
Q 620.494634 34.920248 620.775807 34.807779 
Q 621.056979 34.69531 621.713048 34.639076 
Q 622.369117 34.582841 622.556566 34.582841 
Q 622.744014 34.582841 623.418828 34.582841 
Q 624.618497 34.582841 625.199586 34.995228 
Q 625.780676 35.407614 626.099338 36.026193 
Q 626.418 36.644772 626.680428 36.832221 
" clip-path="url(#p00814456d1)" style="fill: none; stroke: #000000; stroke-linejoin: miter"/>
   </g>
  </g>
  <g id="axes_40">
   <g id="patch_32">
    <path d="M 645.156735 34.365306 
Q 645.156735 34.365306 644.660816 34.365306 
Q 643.867347 34.365306 642.379592 34.067755 
Q 640.891837 33.770204 640.098367 33.770204 
Q 637.321224 33.770204 635.387143 35.224898 
Q 633.453061 36.679592 633.453061 39.423673 
Q 633.453061 40.94449 634.940816 42.399184 
Q 636.428571 43.853878 638.362653 44.663878 
Q 640.296735 45.473878 641.78449 45.473878 
Q 642.710204 45.473878 643.40449 45.110204 
Q 644.098776 44.746531 644.842653 44.118367 
Q 645.586531 43.490204 646.148571 43.192653 
L 646.346939 42.696735 
" clip-path="url(#p3f1ba36aa7)" style="fill: none; stroke: #000000; stroke-linejoin: miter"/>
   </g>
  </g>
  <g id="axes_41">
   <g id="patch_33">
    <path d="M 656.718579 29.071862 
Q 656.343683 29.146841 656.212469 29.577972 
Q 656.081255 30.009103 656.156234 30.42149 
Q 656.156234 30.571448 656.193724 30.702662 
Q 656.231214 30.833876 656.287448 30.89011 
Q 656.343683 30.946345 656.399917 31.040069 
Q 656.456152 31.133793 656.493641 31.208772 
L 656.60611 29.859145 
M 656.60611 34.020497 
Q 655.706359 39.006621 655.481421 42.793076 
L 655.931297 45.379862 
L 656.268703 46.054676 
" clip-path="url(#p5f25ccca10)" style="fill: none; stroke: #000000; stroke-linejoin: miter"/>
   </g>
  </g>
  <g id="axes_42">
   <g id="patch_34">
    <path d="M 675.5616 35.032717 
Q 674.51189 34.582841 673.537159 34.69531 
Q 670.500497 35.032717 668.588524 36.701007 
Q 666.676552 38.369297 666.676552 41.330979 
Q 666.676552 43.917766 668.682248 45.6048 
Q 670.687945 47.291834 673.312221 47.291834 
Q 675.674069 47.291834 676.798759 45.361117 
Q 677.923448 43.4304 677.923448 40.881103 
Q 677.923448 39.643945 677.511062 38.706703 
Q 677.098676 37.769462 676.573821 37.300841 
Q 676.048966 36.832221 675.299172 36.119917 
Q 674.549379 35.407614 674.099503 34.69531 
L 672.862345 34.245434 
" clip-path="url(#pd94e02f8e0)" style="fill: none; stroke: #000000; stroke-linejoin: miter"/>
   </g>
  </g>
  <g id="axes_43">
   <g id="patch_35">
    <path d="M 683.888772 35.145186 
Q 683.888772 35.145186 683.888772 35.595062 
Q 683.888772 36.269876 683.776303 37.619503 
Q 683.663834 38.969131 683.663834 39.643945 
Q 683.663834 41.930814 684.900993 43.599103 
Q 686.138152 45.267393 688.275062 45.267393 
Q 689.662179 45.154924 690.430717 43.917766 
Q 691.199255 42.680607 691.349214 41.237255 
Q 691.499172 39.793903 691.7616 37.9944 
Q 692.024028 36.194897 692.436414 35.370124 
Q 692.586372 35.070207 692.586372 35.670041 
Q 692.586372 36.269876 692.323945 38.706703 
Q 692.099007 41.031062 692.099007 41.555917 
Q 691.949048 42.643117 692.286455 43.767807 
Q 692.623862 44.892497 693.336166 45.6048 
" clip-path="url(#p615ccf1081)" style="fill: none; stroke: #000000; stroke-linejoin: miter"/>
   </g>
  </g>
  <g id="axes_44">
   <g id="patch_36">
    <path d="M 700.257476 43.917766 
Q 700.557393 44.180193 701.569614 45.154924 
Q 702.581834 46.129655 703.144179 46.560786 
Q 703.706524 46.991917 704.73749 47.385559 
Q 705.768455 47.7792 706.780676 47.629241 
Q 707.45549 47.629241 707.92411 47.404303 
Q 708.392731 47.179366 708.617669 46.879448 
Q 708.842607 46.579531 708.973821 45.979697 
Q 709.105034 45.379862 709.123779 44.967476 
Q 709.142524 44.55509 709.142524 43.805297 
Q 709.142524 42.718097 708.242772 42.043283 
Q 707.343021 41.368469 706.049628 41.031062 
Q 704.756234 40.693655 703.462841 40.300014 
Q 702.169448 39.906372 701.269697 38.987876 
Q 700.369945 38.069379 700.369945 36.607283 
Q 700.369945 36.082428 700.538648 35.726276 
Q 700.707352 35.370124 701.100993 35.145186 
Q 701.494634 34.920248 701.775807 34.807779 
Q 702.056979 34.69531 702.713048 34.639076 
Q 703.369117 34.582841 703.556566 34.582841 
Q 703.744014 34.582841 704.418828 34.582841 
Q 705.618497 34.582841 706.199586 34.995228 
Q 706.780676 35.407614 707.099338 36.026193 
Q 707.418 36.644772 707.680428 36.832221 
" clip-path="url(#p5c71469ed6)" style="fill: none; stroke: #000000; stroke-linejoin: miter"/>
   </g>
  </g>
  <g id="axes_45"/>
  <g id="axes_46">
   <g id="patch_37">
    <path d="M 733.557228 36.494814 
Q 734.606938 36.457324 734.794386 36.382345 
Q 738.205945 36.382345 739.986703 38.463021 
Q 741.767462 40.543697 741.767462 44.030234 
Q 741.767462 46.954428 737.156234 46.954428 
Q 736.51891 46.954428 735.97531 46.841959 
Q 735.43171 46.72949 734.794386 46.504552 
Q 734.157062 46.279614 733.669697 46.167145 
L 732.432538 44.929986 
M 733.444759 24.685572 
L 733.444759 25.810262 
Q 733.444759 28.659476 733.557228 32.258483 
Q 733.669697 35.85749 733.857145 40.150055 
Q 734.044593 44.442621 734.119572 46.392083 
" clip-path="url(#p7879e9941b)" style="fill: none; stroke: #000000; stroke-linejoin: miter"/>
   </g>
  </g>
  <g id="axes_47">
   <g id="patch_38">
    <path d="M 747.057798 38.160826 
Q 750.030275 39.535596 754.749083 39.721376 
Q 756.272477 39.721376 756.959862 38.550963 
Q 757.647248 37.38055 757.647248 35.82 
Q 757.647248 35.299817 757.554358 34.909679 
Q 757.461468 34.519541 757.219954 34.296606 
Q 756.97844 34.07367 756.811239 33.943624 
Q 756.644037 33.813578 756.198165 33.757844 
Q 755.752294 33.70211 755.547936 33.683532 
Q 755.343578 33.664954 754.767661 33.683532 
Q 754.191743 33.70211 753.968807 33.70211 
Q 751.925229 33.70211 750.438991 35.578486 
Q 748.952752 37.454862 748.952752 39.609908 
Q 748.952752 42.619541 750.884862 44.570229 
Q 752.816972 46.520917 755.863761 46.520917 
Q 758.018807 46.818165 759.542202 44.29156 
" clip-path="url(#p4b693a75cc)" style="fill: none; stroke: #000000; stroke-linejoin: miter"/>
   </g>
  </g>
  <g id="axes_48">
   <g id="patch_39">
    <path d="M 770.118579 29.071862 
Q 769.743683 29.146841 769.612469 29.577972 
Q 769.481255 30.009103 769.556234 30.42149 
Q 769.556234 30.571448 769.593724 30.702662 
Q 769.631214 30.833876 769.687448 30.89011 
Q 769.743683 30.946345 769.799917 31.040069 
Q 769.856152 31.133793 769.893641 31.208772 
L 770.00611 29.859145 
M 770.00611 34.020497 
Q 769.106359 39.006621 768.881421 42.793076 
L 769.331297 45.379862 
L 769.668703 46.054676 
" clip-path="url(#pa982e0a71a)" style="fill: none; stroke: #000000; stroke-linejoin: miter"/>
   </g>
  </g>
  <g id="axes_49">
   <g id="patch_40">
    <path d="M 780.863834 32.783338 
L 780.863834 33.345683 
Q 781.726097 39.718924 781.763586 47.066897 
Q 781.763586 47.81669 781.688607 47.029407 
Q 781.238731 42.080772 781.088772 35.82 
L 781.088772 35.145186 
Q 781.088772 33.6456 782.682083 33.008276 
Q 784.275393 32.370952 785.7 32.783338 
Q 787.237076 33.233214 788.211807 34.414138 
Q 789.186538 35.595062 789.561434 37.282097 
Q 789.936331 38.969131 790.067545 40.543697 
Q 790.198759 42.118262 790.273738 44.067724 
Q 790.348717 46.017186 790.536166 47.066897 
" clip-path="url(#p74e269d563)" style="fill: none; stroke: #000000; stroke-linejoin: miter"/>
   </g>
  </g>
  <g id="axes_50">
   <g id="patch_41">
    <path d="M 807.51018 35.173293 
Q 807.283832 35.108623 806.426946 34.752934 
Q 805.57006 34.397246 804.988024 34.267904 
Q 804.405988 34.138563 803.823952 34.203234 
Q 801.495808 34.203234 800.040719 36.321198 
Q 798.585629 38.439162 798.585629 40.799641 
Q 798.585629 42.254731 803.241916 42.254731 
Q 804.632335 42.254731 805.812575 40.912814 
Q 806.992814 39.570898 807.591018 37.905629 
Q 808.189222 36.240359 808.189222 34.882275 
Q 808.189222 33.556527 808.156886 33.297844 
L 808.092216 34.267904 
Q 808.092216 34.688263 808.092216 35.076287 
Q 808.383234 42.287066 808.05988 45.64994 
Q 806.960479 57.969701 798.876647 57.969701 
Q 797.421557 57.969701 796.451497 57.306826 
Q 795.481437 56.643952 795.481437 55.253533 
Q 795.416766 55.059521 795.449102 55.059521 
Q 795.481437 55.059521 795.578443 55.059521 
Q 795.675449 55.059521 795.675449 54.962515 
" clip-path="url(#pc5c3f97064)" style="fill: none; stroke: #000000; stroke-linejoin: miter"/>
   </g>
  </g>
  <g id="axes_51">
   <g id="patch_42">
    <path d="M 818.025021 46.054676 
Q 818.025021 46.092166 817.950041 46.092166 
Q 817.875062 46.129655 817.875062 46.167145 
Q 817.875062 46.392083 818.1 46.392083 
Q 818.287448 46.392083 818.287448 46.129655 
Q 818.324938 46.017186 818.174979 45.942207 
Q 818.025021 45.867228 817.912552 45.942207 
" clip-path="url(#p7c1030e6a3)" style="fill: none; stroke: #000000; stroke-linejoin: miter"/>
   </g>
  </g>
 </g>
 <defs>
  <clipPath id="p83435f4df4">
   <rect x="0" y="9.949956" width="16.2" height="51.740088"/>
  </clipPath>
  <clipPath id="pfe8d4525d3">
   <rect x="33.283241" y="8.64" width="14.433517" height="54.36"/>
  </clipPath>
  <clipPath id="p5192015c33">
   <rect x="48.6" y="8.881927" width="16.2" height="53.876147"/>
  </clipPath>
  <clipPath id="p89a72cfd27">
   <rect x="67.538979" y="8.64" width="10.722041" height="54.36"/>
  </clipPath>
  <clipPath id="pc382a00c06">
   <rect x="82.782993" y="8.64" width="12.634014" height="54.36"/>
  </clipPath>
  <clipPath id="p092c348b0a">
   <rect x="97.802069" y="8.64" width="14.995862" height="54.36"/>
  </clipPath>
  <clipPath id="pc070d90f81">
   <rect x="114.789352" y="8.64" width="13.421297" height="54.36"/>
  </clipPath>
  <clipPath id="pe64eb8505f">
   <rect x="151.406938" y="8.64" width="4.986124" height="54.36"/>
  </clipPath>
  <clipPath id="p34d558aa50">
   <rect x="163.782993" y="8.64" width="12.634014" height="54.36"/>
  </clipPath>
  <clipPath id="pc990d53184">
   <rect x="194.4" y="13.617732" width="16.2" height="44.404537"/>
  </clipPath>
  <clipPath id="p951454a1e1">
   <rect x="227.683241" y="8.64" width="14.433517" height="54.36"/>
  </clipPath>
  <clipPath id="pf0580a06ed">
   <rect x="243" y="13.617732" width="16.2" height="44.404537"/>
  </clipPath>
  <clipPath id="p2221f89fbd">
   <rect x="261.938979" y="8.64" width="10.722041" height="54.36"/>
  </clipPath>
  <clipPath id="pb5f8699a7b">
   <rect x="276.789352" y="8.64" width="13.421297" height="54.36"/>
  </clipPath>
  <clipPath id="p8251f05d9c">
   <rect x="308.402069" y="8.64" width="14.995862" height="54.36"/>
  </clipPath>
  <clipPath id="p5144fb9fe0">
   <rect x="324" y="9.949956" width="16.2" height="51.740088"/>
  </clipPath>
  <clipPath id="p213eb45c43">
   <rect x="357.789352" y="8.64" width="13.421297" height="54.36"/>
  </clipPath>
  <clipPath id="p76e9abdfd4">
   <rect x="375.338979" y="8.64" width="10.722041" height="54.36"/>
  </clipPath>
  <clipPath id="p4e8370c36d">
   <rect x="388.8" y="8.881927" width="16.2" height="53.876147"/>
  </clipPath>
  <clipPath id="p18d1b4392f">
   <rect x="421.2" y="10.936525" width="16.2" height="49.766949"/>
  </clipPath>
  <clipPath id="pe1f50e482d">
   <rect x="438.002069" y="8.64" width="14.995862" height="54.36"/>
  </clipPath>
  <clipPath id="p9d34d11c97">
   <rect x="456.338979" y="8.64" width="10.722041" height="54.36"/>
  </clipPath>
  <clipPath id="p459e610d18">
   <rect x="475.631876" y="8.64" width="4.536248" height="54.36"/>
  </clipPath>
  <clipPath id="pf4491e6af0">
   <rect x="487.051945" y="8.64" width="14.09611" height="54.36"/>
  </clipPath>
  <clipPath id="pfa1df36759">
   <rect x="507.863172" y="8.64" width="4.873655" height="54.36"/>
  </clipPath>
  <clipPath id="p2aa900a048">
   <rect x="534.6" y="13.617732" width="16.2" height="44.404537"/>
  </clipPath>
  <clipPath id="p8cf9cc48ad">
   <rect x="567" y="11.850612" width="16.2" height="47.938776"/>
  </clipPath>
  <clipPath id="p58cec83c21">
   <rect x="583.802069" y="8.64" width="14.995862" height="54.36"/>
  </clipPath>
  <clipPath id="p0c09e9b4f3">
   <rect x="600.789352" y="8.64" width="13.421297" height="54.36"/>
  </clipPath>
  <clipPath id="p00814456d1">
   <rect x="617.382993" y="8.64" width="12.634014" height="54.36"/>
  </clipPath>
  <clipPath id="p3f1ba36aa7">
   <rect x="631.8" y="11.850612" width="16.2" height="47.938776"/>
  </clipPath>
  <clipPath id="p5f25ccca10">
   <rect x="653.606938" y="8.64" width="4.986124" height="54.36"/>
  </clipPath>
  <clipPath id="pd94e02f8e0">
   <rect x="664.802069" y="8.64" width="14.995862" height="54.36"/>
  </clipPath>
  <clipPath id="p615ccf1081">
   <rect x="681.789352" y="8.64" width="13.421297" height="54.36"/>
  </clipPath>
  <clipPath id="p5c71469ed6">
   <rect x="698.382993" y="8.64" width="12.634014" height="54.36"/>
  </clipPath>
  <clipPath id="p7879e9941b">
   <rect x="730.558055" y="8.64" width="13.08389" height="54.36"/>
  </clipPath>
  <clipPath id="p4b693a75cc">
   <rect x="745.2" y="8.881927" width="16.2" height="53.876147"/>
  </clipPath>
  <clipPath id="pa982e0a71a">
   <rect x="767.006938" y="8.64" width="4.986124" height="54.36"/>
  </clipPath>
  <clipPath id="p74e269d563">
   <rect x="778.989352" y="8.64" width="13.421297" height="54.36"/>
  </clipPath>
  <clipPath id="pc5c3f97064">
   <rect x="793.8" y="12.376886" width="16.2" height="46.886228"/>
  </clipPath>
  <clipPath id="p7c1030e6a3">
   <rect x="816.000579" y="8.64" width="4.198841" height="54.36"/>
  </clipPath>
 </defs>
</svg>
