<?xml version="1.0" encoding="utf-8" standalone="no"?>
<!DOCTYPE svg PUBLIC "-//W3C//DTD SVG 1.1//EN"
  "http://www.w3.org/Graphics/SVG/1.1/DTD/svg11.dtd">
<svg xmlns:xlink="http://www.w3.org/1999/xlink" width="216pt" height="72pt" viewBox="0 0 216 72" xmlns="http://www.w3.org/2000/svg" version="1.1">
 <metadata>
  <rdf:RDF xmlns:dc="http://purl.org/dc/elements/1.1/" xmlns:cc="http://creativecommons.org/ns#" xmlns:rdf="http://www.w3.org/1999/02/22-rdf-syntax-ns#">
   <cc:Work>
    <dc:type rdf:resource="http://purl.org/dc/dcmitype/StillImage"/>
    <dc:date>2024-01-04T19:57:04.025367</dc:date>
    <dc:format>image/svg+xml</dc:format>
    <dc:creator>
     <cc:Agent>
      <dc:title>Matplotlib v3.7.1, https://matplotlib.org/</dc:title>
     </cc:Agent>
    </dc:creator>
   </cc:Work>
  </rdf:RDF>
 </metadata>
 <defs>
  <style type="text/css">*{stroke-linejoin: round; stroke-linecap: butt}</style>
 </defs>
 <g id="figure_1">
  <g id="patch_1">
   <path d="M 0 72 
L 216 72 
L 216 0 
L 0 0 
z
" style="fill: #8fff9f"/>
  </g>
  <g id="axes_1">
   <g id="patch_2">
    <path d="M 1.087248 30.470738 
L 2.261477 30.601208 
Q 4.088054 30.601208 5.925503 30.709933 
Q 7.762953 30.818658 10.002685 30.992617 
Q 12.242416 31.166577 13.677584 31.253557 
L 15.112752 31.123087 
M 7.871678 31.057852 
Q 7.936913 31.405772 7.675973 32.177718 
Q 7.415034 32.949664 7.610738 33.406309 
Q 7.610738 34.711007 7.752081 36.363624 
Q 7.893423 38.016242 8.110872 39.973289 
Q 8.328322 41.930336 8.393557 42.800134 
" clip-path="url(#p03d036e19f)" style="fill: none; stroke: #000000; stroke-linejoin: miter"/>
   </g>
  </g>
  <g id="axes_2">
   <g id="patch_3">
    <path d="M 20.813462 32.783338 
Q 21.338317 34.507862 21.469531 36.457324 
Q 21.600745 38.406786 21.525766 40.956083 
Q 21.450786 43.505379 21.488276 44.705048 
L 21.600745 46.054676 
L 21.600745 45.829738 
Q 21.600745 44.667559 21.319572 42.30571 
Q 21.0384 39.943862 21.0384 38.744193 
Q 21.0384 36.419834 22.050621 34.882759 
Q 23.062841 33.345683 25.087283 33.345683 
Q 25.799586 33.345683 26.136993 33.626855 
Q 26.4744 33.908028 26.736828 34.432883 
Q 26.999255 34.957738 27.336662 35.257655 
L 27.786538 36.832221 
" clip-path="url(#p179bb887fc)" style="fill: none; stroke: #000000; stroke-linejoin: miter"/>
   </g>
  </g>
  <g id="axes_3">
   <g id="patch_4">
    <path d="M 34.257798 38.160826 
Q 37.230275 39.535596 41.949083 39.721376 
Q 43.472477 39.721376 44.159862 38.550963 
Q 44.847248 37.38055 44.847248 35.82 
Q 44.847248 35.299817 44.754358 34.909679 
Q 44.661468 34.519541 44.419954 34.296606 
Q 44.17844 34.07367 44.011239 33.943624 
Q 43.844037 33.813578 43.398165 33.757844 
Q 42.952294 33.70211 42.747936 33.683532 
Q 42.543578 33.664954 41.967661 33.683532 
Q 41.391743 33.70211 41.168807 33.70211 
Q 39.125229 33.70211 37.638991 35.578486 
Q 36.152752 37.454862 36.152752 39.609908 
Q 36.152752 42.619541 38.084862 44.570229 
Q 40.016972 46.520917 43.063761 46.520917 
Q 45.218807 46.818165 46.742202 44.29156 
" clip-path="url(#p8b3eeddb25)" style="fill: none; stroke: #000000; stroke-linejoin: miter"/>
   </g>
  </g>
  <g id="axes_4">
   <g id="patch_5">
    <path d="M 52.238731 37.282097 
L 52.238731 37.844441 
Q 52.501159 39.868883 52.538648 41.312234 
Q 52.576138 42.755586 52.482414 44.667559 
Q 52.38869 46.579531 52.38869 48.191586 
L 52.463669 39.643945 
Q 52.463669 38.144359 54.056979 37.507034 
Q 55.65029 36.86971 57.074897 37.282097 
Q 58.986869 37.844441 59.905366 39.04411 
Q 60.823862 40.243779 60.880097 41.668386 
Q 60.936331 43.092993 60.973821 44.817517 
Q 61.01131 46.542041 61.161269 48.191586 
" clip-path="url(#p9b21c00525)" style="fill: none; stroke: #000000; stroke-linejoin: miter"/>
   </g>
  </g>
  <g id="axes_5">
   <g id="patch_6">
    <path d="M 68.063834 37.95691 
L 68.738648 37.95691 
Q 69.450952 37.95691 70.238234 37.881931 
Q 71.025517 37.806952 71.981503 37.675738 
Q 72.93749 37.544524 73.462345 37.507034 
L 77.736166 35.82 
M 73.687283 30.42149 
L 73.687283 31.43371 
Q 73.687283 33.383172 73.012469 37.207117 
Q 72.337655 41.031062 72.337655 43.018014 
Q 72.337655 43.805297 72.337655 44.105214 
Q 72.337655 44.405131 72.431379 45.042455 
Q 72.525103 45.679779 72.712552 45.960952 
Q 72.9 46.242124 73.293641 46.485807 
Q 73.687283 46.72949 74.249628 46.72949 
Q 74.362097 46.692 74.680759 46.72949 
Q 74.999421 46.766979 75.186869 46.710745 
Q 75.374317 46.65451 75.374317 46.392083 
" clip-path="url(#p7185c31b13)" style="fill: none; stroke: #000000; stroke-linejoin: miter"/>
   </g>
  </g>
  <g id="axes_6"/>
  <g id="axes_7">
   <g id="patch_7">
    <path d="M 98.714019 27.825981 
Q 100.500561 29.461121 102.135701 31.80785 
Q 103.770841 34.154579 104.845794 36.213645 
Q 105.920748 38.27271 107.389346 40.831402 
Q 108.857944 43.390093 110.16 45.085794 
Q 111.219813 34.729907 111.340935 33.36729 
L 111.885981 27.825981 
M 99.804112 29.097757 
L 99.804112 30.732897 
Q 99.804112 32.913084 99.728411 35.380935 
Q 99.65271 37.848785 99.531589 40.831402 
Q 99.410467 43.814019 99.349907 45.449159 
" clip-path="url(#pbac520324f)" style="fill: none; stroke: #000000; stroke-linejoin: miter"/>
   </g>
  </g>
  <g id="axes_8">
   <g id="patch_8">
    <path d="M 115.257798 38.160826 
Q 118.230275 39.535596 122.949083 39.721376 
Q 124.472477 39.721376 125.159862 38.550963 
Q 125.847248 37.38055 125.847248 35.82 
Q 125.847248 35.299817 125.754358 34.909679 
Q 125.661468 34.519541 125.419954 34.296606 
Q 125.17844 34.07367 125.011239 33.943624 
Q 124.844037 33.813578 124.398165 33.757844 
Q 123.952294 33.70211 123.747936 33.683532 
Q 123.543578 33.664954 122.967661 33.683532 
Q 122.391743 33.70211 122.168807 33.70211 
Q 120.125229 33.70211 118.638991 35.578486 
Q 117.152752 37.454862 117.152752 39.609908 
Q 117.152752 42.619541 119.084862 44.570229 
Q 121.016972 46.520917 124.063761 46.520917 
Q 126.218807 46.818165 127.742202 44.29156 
" clip-path="url(#p0d31dda45d)" style="fill: none; stroke: #000000; stroke-linejoin: miter"/>
   </g>
  </g>
  <g id="axes_9">
   <g id="patch_9">
    <path d="M 131.316102 36.437797 
L 132.551695 44.778051 
Q 132.654661 45.567458 132.654661 45.60178 
Q 132.654661 45.704746 132.963559 45.704746 
Q 133.82161 45.704746 134.542373 44.778051 
Q 135.263136 43.851356 135.675 42.718729 
Q 136.086864 41.586102 136.601695 40.659407 
Q 137.116525 39.732712 137.597034 39.732712 
Q 138.214831 39.732712 138.849788 40.607924 
Q 139.484746 41.483136 139.948093 42.512797 
Q 140.411441 43.542458 141.08072 44.417669 
Q 141.75 45.292881 142.436441 45.292881 
Q 142.711017 43.782712 143.140042 39.69839 
Q 143.569068 35.614068 144.083898 33.554746 
" clip-path="url(#pd5f0e599a3)" style="fill: none; stroke: #000000; stroke-linejoin: miter"/>
   </g>
  </g>
  <g id="axes_10">
   <g id="patch_10">
    <path d="M 147.608036 34.879821 
Q 148.114286 36.073125 148.403571 42.871339 
Q 148.548214 46.632054 148.8375 46.632054 
Q 148.873661 46.632054 148.909821 46.595893 
Q 149.416071 46.017321 149.470312 44.588973 
Q 149.524554 43.160625 149.307589 41.750357 
Q 149.090625 40.340089 148.8375 38.712857 
Q 148.584375 37.085625 148.584375 36.398571 
Q 148.584375 35.169107 148.964062 33.939643 
Q 149.34375 32.710179 150.320089 32.710179 
Q 151.549554 32.710179 152.272768 34.355491 
Q 152.995982 36.000804 153.158705 37.971563 
Q 153.321429 39.942321 153.429911 41.587634 
Q 153.538393 43.232946 153.683036 43.232946 
Q 153.827679 43.232946 153.91808 41.497232 
Q 154.008482 39.761518 154.135045 37.700357 
Q 154.261607 35.639196 154.984821 33.903482 
Q 155.708036 32.167768 156.9375 32.167768 
Q 158.492411 33.035625 159.161384 34.771339 
Q 159.830357 36.507054 159.794196 38.188527 
Q 159.758036 39.87 159.776116 42.057723 
Q 159.794196 44.245446 160.191964 45.511071 
" clip-path="url(#p0f403fe909)" style="fill: none; stroke: #000000; stroke-linejoin: miter"/>
   </g>
  </g>
  <g id="axes_11">
   <g id="patch_11">
    <path d="M 175.643923 36.441748 
Q 174.434968 35.094627 170.462687 35.094627 
Q 168.942857 35.094627 168.165672 35.146439 
Q 167.388486 35.198252 166.38678 35.440043 
Q 165.385075 35.681834 164.901493 36.182687 
Q 164.41791 36.683539 164.072495 37.616162 
Q 163.727079 38.548785 163.727079 39.964989 
Q 163.727079 42.037484 165.143284 43.280981 
Q 166.559488 44.524478 168.493817 44.524478 
Q 171.153518 44.524478 173.916844 38.721493 
Q 175.263966 35.854542 175.263966 35.82 
Q 175.609382 35.578209 175.643923 36.441748 
Q 175.643923 37.512537 176.058422 40.362217 
Q 176.472921 43.211898 176.472921 44.524478 
" clip-path="url(#pbb2ec56ade)" style="fill: none; stroke: #000000; stroke-linejoin: miter"/>
   </g>
  </g>
  <g id="axes_12">
   <g id="patch_12">
    <path d="M 181.838731 37.282097 
L 181.838731 37.844441 
Q 182.101159 39.868883 182.138648 41.312234 
Q 182.176138 42.755586 182.082414 44.667559 
Q 181.98869 46.579531 181.98869 48.191586 
L 182.063669 39.643945 
Q 182.063669 38.144359 183.656979 37.507034 
Q 185.25029 36.86971 186.674897 37.282097 
Q 188.586869 37.844441 189.505366 39.04411 
Q 190.423862 40.243779 190.480097 41.668386 
Q 190.536331 43.092993 190.573821 44.817517 
Q 190.61131 46.542041 190.761269 48.191586 
" clip-path="url(#p8dea74148c)" style="fill: none; stroke: #000000; stroke-linejoin: miter"/>
   </g>
  </g>
 </g>
 <defs>
  <clipPath id="p03d036e19f">
   <rect x="0" y="20.054899" width="16.2" height="31.530201"/>
  </clipPath>
  <clipPath id="p179bb887fc">
   <rect x="18.938979" y="8.64" width="10.722041" height="54.36"/>
  </clipPath>
  <clipPath id="p8b3eeddb25">
   <rect x="32.4" y="8.881927" width="16.2" height="53.876147"/>
  </clipPath>
  <clipPath id="p9b21c00525">
   <rect x="50.364248" y="8.64" width="12.671503" height="54.36"/>
  </clipPath>
  <clipPath id="p7185c31b13">
   <rect x="66.189352" y="8.64" width="13.421297" height="54.36"/>
  </clipPath>
  <clipPath id="pbac520324f">
   <rect x="97.2" y="13.866729" width="16.2" height="43.906542"/>
  </clipPath>
  <clipPath id="p0d31dda45d">
   <rect x="113.4" y="8.881927" width="16.2" height="53.876147"/>
  </clipPath>
  <clipPath id="pd5f0e599a3">
   <rect x="129.6" y="10.936525" width="16.2" height="49.766949"/>
  </clipPath>
  <clipPath id="p0f403fe909">
   <rect x="145.8" y="9.603482" width="16.2" height="52.433036"/>
  </clipPath>
  <clipPath id="pbb2ec56ade">
   <rect x="162" y="10.777356" width="16.2" height="50.085288"/>
  </clipPath>
  <clipPath id="p8dea74148c">
   <rect x="179.964248" y="8.64" width="12.671503" height="54.36"/>
  </clipPath>
 </defs>
</svg>
