<?xml version="1.0" encoding="utf-8" standalone="no"?>
<!DOCTYPE svg PUBLIC "-//W3C//DTD SVG 1.1//EN"
  "http://www.w3.org/Graphics/SVG/1.1/DTD/svg11.dtd">
<svg xmlns:xlink="http://www.w3.org/1999/xlink" width="720pt" height="72pt" viewBox="0 0 720 72" xmlns="http://www.w3.org/2000/svg" version="1.1">
 <metadata>
  <rdf:RDF xmlns:dc="http://purl.org/dc/elements/1.1/" xmlns:cc="http://creativecommons.org/ns#" xmlns:rdf="http://www.w3.org/1999/02/22-rdf-syntax-ns#">
   <cc:Work>
    <dc:type rdf:resource="http://purl.org/dc/dcmitype/StillImage"/>
    <dc:date>2024-01-04T18:41:18.845499</dc:date>
    <dc:format>image/svg+xml</dc:format>
    <dc:creator>
     <cc:Agent>
      <dc:title>Matplotlib v3.7.1, https://matplotlib.org/</dc:title>
     </cc:Agent>
    </dc:creator>
   </cc:Work>
  </rdf:RDF>
 </metadata>
 <defs>
  <style type="text/css">*{stroke-linejoin: round; stroke-linecap: butt}</style>
 </defs>
 <g id="figure_1">
  <g id="patch_1">
   <path d="M 0 72 
L 720 72 
L 720 0 
L 0 0 
z
" style="fill: #8fff9f"/>
  </g>
  <g id="axes_1">
   <g id="patch_2">
    <path d="M 3.638731 37.282097 
L 3.638731 37.844441 
Q 3.901159 39.868883 3.938648 41.312234 
Q 3.976138 42.755586 3.882414 44.667559 
Q 3.78869 46.579531 3.78869 48.191586 
L 3.863669 39.643945 
Q 3.863669 38.144359 5.456979 37.507034 
Q 7.05029 36.86971 8.474897 37.282097 
Q 10.386869 37.844441 11.305366 39.04411 
Q 12.223862 40.243779 12.280097 41.668386 
Q 12.336331 43.092993 12.373821 44.817517 
Q 12.41131 46.542041 12.561269 48.191586 
" clip-path="url(#pe6cf1bba70)" style="fill: none; stroke: #000000; stroke-linejoin: miter"/>
   </g>
  </g>
  <g id="axes_2">
   <g id="patch_3">
    <path d="M 24.918579 29.071862 
Q 24.543683 29.146841 24.412469 29.577972 
Q 24.281255 30.009103 24.356234 30.42149 
Q 24.356234 30.571448 24.393724 30.702662 
Q 24.431214 30.833876 24.487448 30.89011 
Q 24.543683 30.946345 24.599917 31.040069 
Q 24.656152 31.133793 24.693641 31.208772 
L 24.80611 29.859145 
M 24.80611 34.020497 
Q 23.906359 39.006621 23.681421 42.793076 
L 24.131297 45.379862 
L 24.468703 46.054676 
" clip-path="url(#p366243c93b)" style="fill: none; stroke: #000000; stroke-linejoin: miter"/>
   </g>
  </g>
  <g id="axes_3">
   <g id="patch_4">
    <path d="M 45.287191 39.096404 
Q 45.03236 39.023596 44.06764 38.623146 
Q 43.102921 38.222697 42.44764 38.077079 
Q 41.79236 37.931461 41.137079 38.00427 
Q 38.515955 38.00427 36.877753 40.388764 
Q 35.239551 42.773258 35.239551 45.430787 
Q 35.239551 47.068989 40.481798 47.068989 
Q 42.047191 47.068989 43.375955 45.558202 
Q 44.704719 44.047416 45.378202 42.172584 
Q 46.051685 40.297753 46.051685 38.768764 
Q 46.051685 37.27618 46.015281 36.984944 
L 45.942472 38.077079 
Q 45.942472 38.550337 45.942472 38.987191 
Q 45.978876 40.188539 46.179101 42.281798 
Q 46.379326 44.375056 46.543146 46.049663 
Q 46.706966 47.72427 46.743371 49.872135 
Q 46.779775 52.02 46.615955 53.658202 
Q 46.452135 55.296404 45.887865 56.971011 
Q 45.323596 58.645618 44.395281 59.737753 
Q 43.466966 60.829888 41.865169 61.521573 
Q 40.263371 62.213258 38.115506 62.213258 
Q 36.477303 62.213258 35.385169 61.466966 
Q 34.293034 60.720674 34.293034 59.155281 
Q 34.220225 58.936854 34.256629 58.936854 
Q 34.293034 58.936854 34.402247 58.936854 
Q 34.511461 58.936854 34.511461 58.82764 
" clip-path="url(#pa4bac80485)" style="fill: none; stroke: #000000; stroke-linejoin: miter"/>
   </g>
  </g>
  <g id="axes_4">
   <g id="patch_5">
    <path d="M 53.213462 35.932469 
Q 53.813297 35.257655 54.806772 34.826524 
Q 55.800248 34.395393 56.7 34.470372 
Q 57.337324 34.470372 57.82469 34.639076 
Q 58.312055 34.807779 58.630717 34.995228 
Q 58.949379 35.182676 59.174317 35.670041 
Q 59.399255 36.157407 59.511724 36.419834 
Q 59.624193 36.682262 59.680428 37.375821 
Q 59.736662 38.069379 59.755407 38.331807 
Q 59.774152 38.594234 59.755407 39.419007 
Q 59.736662 40.243779 59.736662 40.431228 
Q 59.736662 41.368469 59.567959 43.242952 
Q 59.399255 45.117434 59.399255 46.054676 
Q 59.399255 46.467062 59.45549 46.823214 
Q 59.511724 47.179366 59.605448 47.610497 
Q 59.699172 48.041628 59.736662 48.304055 
L 60.186538 48.528993 
M 53.663338 23.111007 
Q 53.888276 24.798041 53.888276 29.971614 
L 53.888276 42.3432 
L 53.550869 46.841959 
L 53.325931 47.74171 
" clip-path="url(#p34512485ca)" style="fill: none; stroke: #000000; stroke-linejoin: miter"/>
   </g>
  </g>
  <g id="axes_5">
   <g id="patch_6">
    <path d="M 68.063834 37.95691 
L 68.738648 37.95691 
Q 69.450952 37.95691 70.238234 37.881931 
Q 71.025517 37.806952 71.981503 37.675738 
Q 72.93749 37.544524 73.462345 37.507034 
L 77.736166 35.82 
M 73.687283 30.42149 
L 73.687283 31.43371 
Q 73.687283 33.383172 73.012469 37.207117 
Q 72.337655 41.031062 72.337655 43.018014 
Q 72.337655 43.805297 72.337655 44.105214 
Q 72.337655 44.405131 72.431379 45.042455 
Q 72.525103 45.679779 72.712552 45.960952 
Q 72.9 46.242124 73.293641 46.485807 
Q 73.687283 46.72949 74.249628 46.72949 
Q 74.362097 46.692 74.680759 46.72949 
Q 74.999421 46.766979 75.186869 46.710745 
Q 75.374317 46.65451 75.374317 46.392083 
" clip-path="url(#p86ed3ee327)" style="fill: none; stroke: #000000; stroke-linejoin: miter"/>
   </g>
  </g>
  <g id="axes_6"/>
  <g id="axes_7">
   <g id="patch_7">
    <path d="M 98.916102 36.437797 
L 100.151695 44.778051 
Q 100.254661 45.567458 100.254661 45.60178 
Q 100.254661 45.704746 100.563559 45.704746 
Q 101.42161 45.704746 102.142373 44.778051 
Q 102.863136 43.851356 103.275 42.718729 
Q 103.686864 41.586102 104.201695 40.659407 
Q 104.716525 39.732712 105.197034 39.732712 
Q 105.814831 39.732712 106.449788 40.607924 
Q 107.084746 41.483136 107.548093 42.512797 
Q 108.011441 43.542458 108.68072 44.417669 
Q 109.35 45.292881 110.036441 45.292881 
Q 110.311017 43.782712 110.740042 39.69839 
Q 111.169068 35.614068 111.683898 33.554746 
" clip-path="url(#pa092ba4f8f)" style="fill: none; stroke: #000000; stroke-linejoin: miter"/>
   </g>
  </g>
  <g id="axes_8">
   <g id="patch_8">
    <path d="M 118.013462 35.932469 
Q 118.613297 35.257655 119.606772 34.826524 
Q 120.600248 34.395393 121.5 34.470372 
Q 122.137324 34.470372 122.62469 34.639076 
Q 123.112055 34.807779 123.430717 34.995228 
Q 123.749379 35.182676 123.974317 35.670041 
Q 124.199255 36.157407 124.311724 36.419834 
Q 124.424193 36.682262 124.480428 37.375821 
Q 124.536662 38.069379 124.555407 38.331807 
Q 124.574152 38.594234 124.555407 39.419007 
Q 124.536662 40.243779 124.536662 40.431228 
Q 124.536662 41.368469 124.367959 43.242952 
Q 124.199255 45.117434 124.199255 46.054676 
Q 124.199255 46.467062 124.25549 46.823214 
Q 124.311724 47.179366 124.405448 47.610497 
Q 124.499172 48.041628 124.536662 48.304055 
L 124.986538 48.528993 
M 118.463338 23.111007 
Q 118.688276 24.798041 118.688276 29.971614 
L 118.688276 42.3432 
L 118.350869 46.841959 
L 118.125931 47.74171 
" clip-path="url(#p8d7a085990)" style="fill: none; stroke: #000000; stroke-linejoin: miter"/>
   </g>
  </g>
  <g id="axes_9">
   <g id="patch_9">
    <path d="M 131.457798 38.160826 
Q 134.430275 39.535596 139.149083 39.721376 
Q 140.672477 39.721376 141.359862 38.550963 
Q 142.047248 37.38055 142.047248 35.82 
Q 142.047248 35.299817 141.954358 34.909679 
Q 141.861468 34.519541 141.619954 34.296606 
Q 141.37844 34.07367 141.211239 33.943624 
Q 141.044037 33.813578 140.598165 33.757844 
Q 140.152294 33.70211 139.947936 33.683532 
Q 139.743578 33.664954 139.167661 33.683532 
Q 138.591743 33.70211 138.368807 33.70211 
Q 136.325229 33.70211 134.838991 35.578486 
Q 133.352752 37.454862 133.352752 39.609908 
Q 133.352752 42.619541 135.284862 44.570229 
Q 137.216972 46.520917 140.263761 46.520917 
Q 142.418807 46.818165 143.942202 44.29156 
" clip-path="url(#pc9099fd90a)" style="fill: none; stroke: #000000; stroke-linejoin: miter"/>
   </g>
  </g>
  <g id="axes_10">
   <g id="patch_10">
    <path d="M 149.438731 37.282097 
L 149.438731 37.844441 
Q 149.701159 39.868883 149.738648 41.312234 
Q 149.776138 42.755586 149.682414 44.667559 
Q 149.58869 46.579531 149.58869 48.191586 
L 149.663669 39.643945 
Q 149.663669 38.144359 151.256979 37.507034 
Q 152.85029 36.86971 154.274897 37.282097 
Q 156.186869 37.844441 157.105366 39.04411 
Q 158.023862 40.243779 158.080097 41.668386 
Q 158.136331 43.092993 158.173821 44.817517 
Q 158.21131 46.542041 158.361269 48.191586 
" clip-path="url(#pe999afed25)" style="fill: none; stroke: #000000; stroke-linejoin: miter"/>
   </g>
  </g>
  <g id="axes_11">
   <g id="patch_11">
    <path d="M 169.387697 39.981352 
Q 170.399917 40.956083 170.737324 42.905545 
Q 170.924772 43.955255 170.512386 46.167145 
L 169.275228 47.629241 
" clip-path="url(#p3538d443ba)" style="fill: none; stroke: #000000; stroke-linejoin: miter"/>
   </g>
  </g>
  <g id="axes_12"/>
  <g id="axes_13">
   <g id="patch_12">
    <path d="M 196.116102 36.437797 
L 197.351695 44.778051 
Q 197.454661 45.567458 197.454661 45.60178 
Q 197.454661 45.704746 197.763559 45.704746 
Q 198.62161 45.704746 199.342373 44.778051 
Q 200.063136 43.851356 200.475 42.718729 
Q 200.886864 41.586102 201.401695 40.659407 
Q 201.916525 39.732712 202.397034 39.732712 
Q 203.014831 39.732712 203.649788 40.607924 
Q 204.284746 41.483136 204.748093 42.512797 
Q 205.211441 43.542458 205.88072 44.417669 
Q 206.55 45.292881 207.236441 45.292881 
Q 207.511017 43.782712 207.940042 39.69839 
Q 208.369068 35.614068 208.883898 33.554746 
" clip-path="url(#p1ddc0dd838)" style="fill: none; stroke: #000000; stroke-linejoin: miter"/>
   </g>
  </g>
  <g id="axes_14">
   <g id="patch_13">
    <path d="M 219.318579 29.071862 
Q 218.943683 29.146841 218.812469 29.577972 
Q 218.681255 30.009103 218.756234 30.42149 
Q 218.756234 30.571448 218.793724 30.702662 
Q 218.831214 30.833876 218.887448 30.89011 
Q 218.943683 30.946345 218.999917 31.040069 
Q 219.056152 31.133793 219.093641 31.208772 
L 219.20611 29.859145 
M 219.20611 34.020497 
Q 218.306359 39.006621 218.081421 42.793076 
L 218.531297 45.379862 
L 218.868703 46.054676 
" clip-path="url(#p41928eff63)" style="fill: none; stroke: #000000; stroke-linejoin: miter"/>
   </g>
  </g>
  <g id="axes_15">
   <g id="patch_14">
    <path d="M 230.063834 37.95691 
L 230.738648 37.95691 
Q 231.450952 37.95691 232.238234 37.881931 
Q 233.025517 37.806952 233.981503 37.675738 
Q 234.93749 37.544524 235.462345 37.507034 
L 239.736166 35.82 
M 235.687283 30.42149 
L 235.687283 31.43371 
Q 235.687283 33.383172 235.012469 37.207117 
Q 234.337655 41.031062 234.337655 43.018014 
Q 234.337655 43.805297 234.337655 44.105214 
Q 234.337655 44.405131 234.431379 45.042455 
Q 234.525103 45.679779 234.712552 45.960952 
Q 234.9 46.242124 235.293641 46.485807 
Q 235.687283 46.72949 236.249628 46.72949 
Q 236.362097 46.692 236.680759 46.72949 
Q 236.999421 46.766979 237.186869 46.710745 
Q 237.374317 46.65451 237.374317 46.392083 
" clip-path="url(#pb50b095aa0)" style="fill: none; stroke: #000000; stroke-linejoin: miter"/>
   </g>
  </g>
  <g id="axes_16">
   <g id="patch_15">
    <path d="M 247.613462 35.932469 
Q 248.213297 35.257655 249.206772 34.826524 
Q 250.200248 34.395393 251.1 34.470372 
Q 251.737324 34.470372 252.22469 34.639076 
Q 252.712055 34.807779 253.030717 34.995228 
Q 253.349379 35.182676 253.574317 35.670041 
Q 253.799255 36.157407 253.911724 36.419834 
Q 254.024193 36.682262 254.080428 37.375821 
Q 254.136662 38.069379 254.155407 38.331807 
Q 254.174152 38.594234 254.155407 39.419007 
Q 254.136662 40.243779 254.136662 40.431228 
Q 254.136662 41.368469 253.967959 43.242952 
Q 253.799255 45.117434 253.799255 46.054676 
Q 253.799255 46.467062 253.85549 46.823214 
Q 253.911724 47.179366 254.005448 47.610497 
Q 254.099172 48.041628 254.136662 48.304055 
L 254.586538 48.528993 
M 248.063338 23.111007 
Q 248.288276 24.798041 248.288276 29.971614 
L 248.288276 42.3432 
L 247.950869 46.841959 
L 247.725931 47.74171 
" clip-path="url(#pf131feab63)" style="fill: none; stroke: #000000; stroke-linejoin: miter"/>
   </g>
  </g>
  <g id="axes_17"/>
  <g id="axes_18">
   <g id="patch_16">
    <path d="M 280.013462 35.932469 
Q 280.613297 35.257655 281.606772 34.826524 
Q 282.600248 34.395393 283.5 34.470372 
Q 284.137324 34.470372 284.62469 34.639076 
Q 285.112055 34.807779 285.430717 34.995228 
Q 285.749379 35.182676 285.974317 35.670041 
Q 286.199255 36.157407 286.311724 36.419834 
Q 286.424193 36.682262 286.480428 37.375821 
Q 286.536662 38.069379 286.555407 38.331807 
Q 286.574152 38.594234 286.555407 39.419007 
Q 286.536662 40.243779 286.536662 40.431228 
Q 286.536662 41.368469 286.367959 43.242952 
Q 286.199255 45.117434 286.199255 46.054676 
Q 286.199255 46.467062 286.25549 46.823214 
Q 286.311724 47.179366 286.405448 47.610497 
Q 286.499172 48.041628 286.536662 48.304055 
L 286.986538 48.528993 
M 280.463338 23.111007 
Q 280.688276 24.798041 280.688276 29.971614 
L 280.688276 42.3432 
L 280.350869 46.841959 
L 280.125931 47.74171 
" clip-path="url(#p33df447931)" style="fill: none; stroke: #000000; stroke-linejoin: miter"/>
   </g>
  </g>
  <g id="axes_19">
   <g id="patch_17">
    <path d="M 293.457798 38.160826 
Q 296.430275 39.535596 301.149083 39.721376 
Q 302.672477 39.721376 303.359862 38.550963 
Q 304.047248 37.38055 304.047248 35.82 
Q 304.047248 35.299817 303.954358 34.909679 
Q 303.861468 34.519541 303.619954 34.296606 
Q 303.37844 34.07367 303.211239 33.943624 
Q 303.044037 33.813578 302.598165 33.757844 
Q 302.152294 33.70211 301.947936 33.683532 
Q 301.743578 33.664954 301.167661 33.683532 
Q 300.591743 33.70211 300.368807 33.70211 
Q 298.325229 33.70211 296.838991 35.578486 
Q 295.352752 37.454862 295.352752 39.609908 
Q 295.352752 42.619541 297.284862 44.570229 
Q 299.216972 46.520917 302.263761 46.520917 
Q 304.418807 46.818165 305.942202 44.29156 
" clip-path="url(#p9b8f962fb9)" style="fill: none; stroke: #000000; stroke-linejoin: miter"/>
   </g>
  </g>
  <g id="axes_20">
   <g id="patch_18">
    <path d="M 312.413462 32.783338 
Q 312.938317 34.507862 313.069531 36.457324 
Q 313.200745 38.406786 313.125766 40.956083 
Q 313.050786 43.505379 313.088276 44.705048 
L 313.200745 46.054676 
L 313.200745 45.829738 
Q 313.200745 44.667559 312.919572 42.30571 
Q 312.6384 39.943862 312.6384 38.744193 
Q 312.6384 36.419834 313.650621 34.882759 
Q 314.662841 33.345683 316.687283 33.345683 
Q 317.399586 33.345683 317.736993 33.626855 
Q 318.0744 33.908028 318.336828 34.432883 
Q 318.599255 34.957738 318.936662 35.257655 
L 319.386538 36.832221 
" clip-path="url(#pbbc9598e2c)" style="fill: none; stroke: #000000; stroke-linejoin: miter"/>
   </g>
  </g>
  <g id="axes_21"/>
  <g id="axes_22">
   <g id="patch_19">
    <path d="M 342.008036 34.879821 
Q 342.514286 36.073125 342.803571 42.871339 
Q 342.948214 46.632054 343.2375 46.632054 
Q 343.273661 46.632054 343.309821 46.595893 
Q 343.816071 46.017321 343.870313 44.588973 
Q 343.924554 43.160625 343.707589 41.750357 
Q 343.490625 40.340089 343.2375 38.712857 
Q 342.984375 37.085625 342.984375 36.398571 
Q 342.984375 35.169107 343.364063 33.939643 
Q 343.74375 32.710179 344.720089 32.710179 
Q 345.949554 32.710179 346.672768 34.355491 
Q 347.395982 36.000804 347.558705 37.971563 
Q 347.721429 39.942321 347.829911 41.587634 
Q 347.938393 43.232946 348.083036 43.232946 
Q 348.227679 43.232946 348.31808 41.497232 
Q 348.408482 39.761518 348.535045 37.700357 
Q 348.661607 35.639196 349.384821 33.903482 
Q 350.108036 32.167768 351.3375 32.167768 
Q 352.892411 33.035625 353.561384 34.771339 
Q 354.230357 36.507054 354.194196 38.188527 
Q 354.158036 39.87 354.176116 42.057723 
Q 354.194196 44.245446 354.591964 45.511071 
" clip-path="url(#pb33a1d1aac)" style="fill: none; stroke: #000000; stroke-linejoin: miter"/>
   </g>
  </g>
  <g id="axes_23">
   <g id="patch_20">
    <path d="M 367.7616 35.032717 
Q 366.71189 34.582841 365.737159 34.69531 
Q 362.700497 35.032717 360.788524 36.701007 
Q 358.876552 38.369297 358.876552 41.330979 
Q 358.876552 43.917766 360.882248 45.6048 
Q 362.887945 47.291834 365.512221 47.291834 
Q 367.874069 47.291834 368.998759 45.361117 
Q 370.123448 43.4304 370.123448 40.881103 
Q 370.123448 39.643945 369.711062 38.706703 
Q 369.298676 37.769462 368.773821 37.300841 
Q 368.248966 36.832221 367.499172 36.119917 
Q 366.749379 35.407614 366.299503 34.69531 
L 365.062345 34.245434 
" clip-path="url(#pfe582abe90)" style="fill: none; stroke: #000000; stroke-linejoin: miter"/>
   </g>
  </g>
  <g id="axes_24">
   <g id="patch_21">
    <path d="M 376.257476 43.917766 
Q 376.557393 44.180193 377.569614 45.154924 
Q 378.581834 46.129655 379.144179 46.560786 
Q 379.706524 46.991917 380.73749 47.385559 
Q 381.768455 47.7792 382.780676 47.629241 
Q 383.45549 47.629241 383.92411 47.404303 
Q 384.392731 47.179366 384.617669 46.879448 
Q 384.842607 46.579531 384.973821 45.979697 
Q 385.105034 45.379862 385.123779 44.967476 
Q 385.142524 44.55509 385.142524 43.805297 
Q 385.142524 42.718097 384.242772 42.043283 
Q 383.343021 41.368469 382.049628 41.031062 
Q 380.756234 40.693655 379.462841 40.300014 
Q 378.169448 39.906372 377.269697 38.987876 
Q 376.369945 38.069379 376.369945 36.607283 
Q 376.369945 36.082428 376.538648 35.726276 
Q 376.707352 35.370124 377.100993 35.145186 
Q 377.494634 34.920248 377.775807 34.807779 
Q 378.056979 34.69531 378.713048 34.639076 
Q 379.369117 34.582841 379.556566 34.582841 
Q 379.744014 34.582841 380.418828 34.582841 
Q 381.618497 34.582841 382.199586 34.995228 
Q 382.780676 35.407614 383.099338 36.026193 
Q 383.418 36.644772 383.680428 36.832221 
" clip-path="url(#p34ca890525)" style="fill: none; stroke: #000000; stroke-linejoin: miter"/>
   </g>
  </g>
  <g id="axes_25">
   <g id="patch_22">
    <path d="M 392.063834 37.95691 
L 392.738648 37.95691 
Q 393.450952 37.95691 394.238234 37.881931 
Q 395.025517 37.806952 395.981503 37.675738 
Q 396.93749 37.544524 397.462345 37.507034 
L 401.736166 35.82 
M 397.687283 30.42149 
L 397.687283 31.43371 
Q 397.687283 33.383172 397.012469 37.207117 
Q 396.337655 41.031062 396.337655 43.018014 
Q 396.337655 43.805297 396.337655 44.105214 
Q 396.337655 44.405131 396.431379 45.042455 
Q 396.525103 45.679779 396.712552 45.960952 
Q 396.9 46.242124 397.293641 46.485807 
Q 397.687283 46.72949 398.249628 46.72949 
Q 398.362097 46.692 398.680759 46.72949 
Q 398.999421 46.766979 399.186869 46.710745 
Q 399.374317 46.65451 399.374317 46.392083 
" clip-path="url(#pe9d19e909d)" style="fill: none; stroke: #000000; stroke-linejoin: miter"/>
   </g>
  </g>
  <g id="axes_26"/>
  <g id="axes_27">
   <g id="patch_23">
    <path d="M 424.520069 39.868883 
L 424.520069 39.419007 
Q 424.520069 37.769462 426.263338 36.682262 
Q 428.006607 35.595062 429.693641 35.595062 
Q 431.905531 35.595062 433.273903 36.794731 
Q 434.642276 37.9944 434.642276 40.20629 
Q 434.642276 42.30571 432.824028 43.336676 
Q 431.005779 44.367641 428.79389 44.367641 
Q 428.119076 44.367641 427.612966 44.255172 
Q 427.106855 44.142703 426.488276 43.917766 
Q 425.869697 43.692828 425.419821 43.580359 
L 424.295131 42.568138 
M 423.957724 36.832221 
Q 424.4076 38.444276 424.670028 40.262524 
Q 424.932455 42.080772 424.98869 43.749062 
Q 425.044924 45.417352 425.082414 47.27309 
Q 425.119903 49.128828 425.082414 50.778372 
L 424.969945 57.863917 
" clip-path="url(#p3b3f72d4b7)" style="fill: none; stroke: #000000; stroke-linejoin: miter"/>
   </g>
  </g>
  <g id="axes_28">
   <g id="patch_24">
    <path d="M 439.257798 38.160826 
Q 442.230275 39.535596 446.949083 39.721376 
Q 448.472477 39.721376 449.159862 38.550963 
Q 449.847248 37.38055 449.847248 35.82 
Q 449.847248 35.299817 449.754358 34.909679 
Q 449.661468 34.519541 449.419954 34.296606 
Q 449.17844 34.07367 449.011239 33.943624 
Q 448.844037 33.813578 448.398165 33.757844 
Q 447.952294 33.70211 447.747936 33.683532 
Q 447.543578 33.664954 446.967661 33.683532 
Q 446.391743 33.70211 446.168807 33.70211 
Q 444.125229 33.70211 442.638991 35.578486 
Q 441.152752 37.454862 441.152752 39.609908 
Q 441.152752 42.619541 443.084862 44.570229 
Q 445.016972 46.520917 448.063761 46.520917 
Q 450.218807 46.818165 451.742202 44.29156 
" clip-path="url(#p7fdb8d4cee)" style="fill: none; stroke: #000000; stroke-linejoin: miter"/>
   </g>
  </g>
  <g id="axes_29">
   <g id="patch_25">
    <path d="M 458.213462 32.783338 
Q 458.738317 34.507862 458.869531 36.457324 
Q 459.000745 38.406786 458.925766 40.956083 
Q 458.850786 43.505379 458.888276 44.705048 
L 459.000745 46.054676 
L 459.000745 45.829738 
Q 459.000745 44.667559 458.719572 42.30571 
Q 458.4384 39.943862 458.4384 38.744193 
Q 458.4384 36.419834 459.450621 34.882759 
Q 460.462841 33.345683 462.487283 33.345683 
Q 463.199586 33.345683 463.536993 33.626855 
Q 463.8744 33.908028 464.136828 34.432883 
Q 464.399255 34.957738 464.736662 35.257655 
L 465.186538 36.832221 
" clip-path="url(#pda4faeea34)" style="fill: none; stroke: #000000; stroke-linejoin: miter"/>
   </g>
  </g>
  <g id="axes_30">
   <g id="patch_26">
    <path d="M 471.584141 38.85304 
L 472.012335 38.85304 
Q 472.83304 38.85304 473.796476 38.745991 
Q 474.759912 38.638943 475.919604 38.460529 
Q 477.079295 38.282115 477.685903 38.210749 
L 484.215859 35.427489 
M 483.894714 25.793128 
Q 483.609251 25.721762 482.574449 25.275727 
Q 481.539648 24.829692 480.897357 24.93674 
Q 480.255066 24.93674 479.737665 25.150837 
Q 479.220264 25.364934 478.881278 25.793128 
Q 478.542291 26.221322 478.27467 26.685198 
Q 478.007048 27.149075 477.864317 27.862731 
Q 477.721586 28.576388 477.614537 29.129471 
Q 477.507489 29.682555 477.489648 30.50326 
Q 477.471806 31.323965 477.453965 31.77 
Q 477.436123 32.216035 477.453965 32.965374 
Q 477.471806 33.714714 477.471806 33.928811 
Q 477.471806 36.605022 478.167621 41.850396 
Q 478.863436 47.095771 478.863436 49.771982 
Q 478.79207 50.057445 478.756388 50.681894 
Q 478.720705 51.306344 478.613656 51.805903 
Q 478.506608 52.305463 478.221145 52.555242 
" clip-path="url(#p841fb68c84)" style="fill: none; stroke: #000000; stroke-linejoin: miter"/>
   </g>
  </g>
  <g id="axes_31">
   <g id="patch_27">
    <path d="M 487.857798 38.160826 
Q 490.830275 39.535596 495.549083 39.721376 
Q 497.072477 39.721376 497.759862 38.550963 
Q 498.447248 37.38055 498.447248 35.82 
Q 498.447248 35.299817 498.354358 34.909679 
Q 498.261468 34.519541 498.019954 34.296606 
Q 497.77844 34.07367 497.611239 33.943624 
Q 497.444037 33.813578 496.998165 33.757844 
Q 496.552294 33.70211 496.347936 33.683532 
Q 496.143578 33.664954 495.567661 33.683532 
Q 494.991743 33.70211 494.768807 33.70211 
Q 492.725229 33.70211 491.238991 35.578486 
Q 489.752752 37.454862 489.752752 39.609908 
Q 489.752752 42.619541 491.684862 44.570229 
Q 493.616972 46.520917 496.663761 46.520917 
Q 498.818807 46.818165 500.342202 44.29156 
" clip-path="url(#p4583975bff)" style="fill: none; stroke: #000000; stroke-linejoin: miter"/>
   </g>
  </g>
  <g id="axes_32">
   <g id="patch_28">
    <path d="M 515.556735 34.365306 
Q 515.556735 34.365306 515.060816 34.365306 
Q 514.267347 34.365306 512.779592 34.067755 
Q 511.291837 33.770204 510.498367 33.770204 
Q 507.721224 33.770204 505.787143 35.224898 
Q 503.853061 36.679592 503.853061 39.423673 
Q 503.853061 40.94449 505.340816 42.399184 
Q 506.828571 43.853878 508.762653 44.663878 
Q 510.696735 45.473878 512.18449 45.473878 
Q 513.110204 45.473878 513.80449 45.110204 
Q 514.498776 44.746531 515.242653 44.118367 
Q 515.986531 43.490204 516.548571 43.192653 
L 516.746939 42.696735 
" clip-path="url(#p8b88529e6a)" style="fill: none; stroke: #000000; stroke-linejoin: miter"/>
   </g>
  </g>
  <g id="axes_33">
   <g id="patch_29">
    <path d="M 521.663834 37.95691 
L 522.338648 37.95691 
Q 523.050952 37.95691 523.838234 37.881931 
Q 524.625517 37.806952 525.581503 37.675738 
Q 526.53749 37.544524 527.062345 37.507034 
L 531.336166 35.82 
M 527.287283 30.42149 
L 527.287283 31.43371 
Q 527.287283 33.383172 526.612469 37.207117 
Q 525.937655 41.031062 525.937655 43.018014 
Q 525.937655 43.805297 525.937655 44.105214 
Q 525.937655 44.405131 526.031379 45.042455 
Q 526.125103 45.679779 526.312552 45.960952 
Q 526.5 46.242124 526.893641 46.485807 
Q 527.287283 46.72949 527.849628 46.72949 
Q 527.962097 46.692 528.280759 46.72949 
Q 528.599421 46.766979 528.786869 46.710745 
Q 528.974317 46.65451 528.974317 46.392083 
" clip-path="url(#p7d114e4869)" style="fill: none; stroke: #000000; stroke-linejoin: miter"/>
   </g>
  </g>
  <g id="axes_34">
   <g id="patch_30">
    <path d="M 542.306359 28.621986 
Q 542.531297 30.34651 542.606276 32.146014 
Q 542.681255 33.945517 542.66251 36.551048 
Q 542.643766 39.156579 542.643766 40.093821 
Q 542.643766 40.13131 542.868703 45.829738 
L 543.093641 46.841959 
" clip-path="url(#pedfd577cf5)" style="fill: none; stroke: #000000; stroke-linejoin: miter"/>
   </g>
  </g>
  <g id="axes_35">
   <g id="patch_31">
    <path d="M 553.763917 36.382345 
Q 553.726428 36.494814 553.857641 36.701007 
Q 553.988855 36.9072 553.876386 37.057159 
L 553.876386 39.306538 
Q 553.876386 40.506207 554.213793 41.724621 
Q 554.5512 42.943034 555.413462 43.93651 
Q 556.275724 44.929986 557.475393 44.929986 
Q 558.712552 44.929986 559.387366 43.861531 
Q 560.062179 42.793076 560.512055 41.143531 
Q 560.961931 39.493986 561.299338 38.969131 
L 562.086621 36.382345 
L 561.861683 42.680607 
L 561.861683 45.154924 
Q 561.861683 47.066897 562.592731 51.00331 
Q 563.323779 54.939724 563.323779 56.964166 
Q 564.073572 59.213545 562.986372 60.188276 
Q 561.899172 61.163007 559.837241 60.78811 
Q 558.037738 60.488193 557.119241 60.169531 
Q 556.200745 59.850869 554.213793 58.988607 
L 554.101324 58.426262 
" clip-path="url(#pf97d6c71fe)" style="fill: none; stroke: #000000; stroke-linejoin: miter"/>
   </g>
  </g>
  <g id="axes_36"/>
  <g id="axes_37">
   <g id="patch_32">
    <path d="M 596.556735 34.365306 
Q 596.556735 34.365306 596.060816 34.365306 
Q 595.267347 34.365306 593.779592 34.067755 
Q 592.291837 33.770204 591.498367 33.770204 
Q 588.721224 33.770204 586.787143 35.224898 
Q 584.853061 36.679592 584.853061 39.423673 
Q 584.853061 40.94449 586.340816 42.399184 
Q 587.828571 43.853878 589.762653 44.663878 
Q 591.696735 45.473878 593.18449 45.473878 
Q 594.110204 45.473878 594.80449 45.110204 
Q 595.498776 44.746531 596.242653 44.118367 
Q 596.986531 43.490204 597.548571 43.192653 
L 597.746939 42.696735 
" clip-path="url(#p5589c49185)" style="fill: none; stroke: #000000; stroke-linejoin: miter"/>
   </g>
  </g>
  <g id="axes_38">
   <g id="patch_33">
    <path d="M 602.888772 35.145186 
Q 602.888772 35.145186 602.888772 35.595062 
Q 602.888772 36.269876 602.776303 37.619503 
Q 602.663834 38.969131 602.663834 39.643945 
Q 602.663834 41.930814 603.900993 43.599103 
Q 605.138152 45.267393 607.275062 45.267393 
Q 608.662179 45.154924 609.430717 43.917766 
Q 610.199255 42.680607 610.349214 41.237255 
Q 610.499172 39.793903 610.7616 37.9944 
Q 611.024028 36.194897 611.436414 35.370124 
Q 611.586372 35.070207 611.586372 35.670041 
Q 611.586372 36.269876 611.323945 38.706703 
Q 611.099007 41.031062 611.099007 41.555917 
Q 610.949048 42.643117 611.286455 43.767807 
Q 611.623862 44.892497 612.336166 45.6048 
" clip-path="url(#p4969bb6596)" style="fill: none; stroke: #000000; stroke-linejoin: miter"/>
   </g>
  </g>
  <g id="axes_39">
   <g id="patch_34">
    <path d="M 618.863834 37.95691 
L 619.538648 37.95691 
Q 620.250952 37.95691 621.038234 37.881931 
Q 621.825517 37.806952 622.781503 37.675738 
Q 623.73749 37.544524 624.262345 37.507034 
L 628.536166 35.82 
M 624.487283 30.42149 
L 624.487283 31.43371 
Q 624.487283 33.383172 623.812469 37.207117 
Q 623.137655 41.031062 623.137655 43.018014 
Q 623.137655 43.805297 623.137655 44.105214 
Q 623.137655 44.405131 623.231379 45.042455 
Q 623.325103 45.679779 623.512552 45.960952 
Q 623.7 46.242124 624.093641 46.485807 
Q 624.487283 46.72949 625.049628 46.72949 
Q 625.162097 46.692 625.480759 46.72949 
Q 625.799421 46.766979 625.986869 46.710745 
Q 626.174317 46.65451 626.174317 46.392083 
" clip-path="url(#padf5490068)" style="fill: none; stroke: #000000; stroke-linejoin: miter"/>
   </g>
  </g>
  <g id="axes_40">
   <g id="patch_35">
    <path d="M 633.657798 38.160826 
Q 636.630275 39.535596 641.349083 39.721376 
Q 642.872477 39.721376 643.559862 38.550963 
Q 644.247248 37.38055 644.247248 35.82 
Q 644.247248 35.299817 644.154358 34.909679 
Q 644.061468 34.519541 643.819954 34.296606 
Q 643.57844 34.07367 643.411239 33.943624 
Q 643.244037 33.813578 642.798165 33.757844 
Q 642.352294 33.70211 642.147936 33.683532 
Q 641.943578 33.664954 641.367661 33.683532 
Q 640.791743 33.70211 640.568807 33.70211 
Q 638.525229 33.70211 637.038991 35.578486 
Q 635.552752 37.454862 635.552752 39.609908 
Q 635.552752 42.619541 637.484862 44.570229 
Q 639.416972 46.520917 642.463761 46.520917 
Q 644.618807 46.818165 646.142202 44.29156 
" clip-path="url(#p4b66cabfd1)" style="fill: none; stroke: #000000; stroke-linejoin: miter"/>
   </g>
  </g>
 </g>
 <defs>
  <clipPath id="pe6cf1bba70">
   <rect x="1.764248" y="8.64" width="12.671503" height="54.36"/>
  </clipPath>
  <clipPath id="p366243c93b">
   <rect x="21.806938" y="8.64" width="4.986124" height="54.36"/>
  </clipPath>
  <clipPath id="pa4bac80485">
   <rect x="32.4" y="9.426742" width="16.2" height="52.786517"/>
  </clipPath>
  <clipPath id="p34512485ca">
   <rect x="51.338979" y="8.64" width="10.722041" height="54.36"/>
  </clipPath>
  <clipPath id="p86ed3ee327">
   <rect x="66.189352" y="8.64" width="13.421297" height="54.36"/>
  </clipPath>
  <clipPath id="pa092ba4f8f">
   <rect x="97.2" y="10.936525" width="16.2" height="49.766949"/>
  </clipPath>
  <clipPath id="p8d7a085990">
   <rect x="116.138979" y="8.64" width="10.722041" height="54.36"/>
  </clipPath>
  <clipPath id="pc9099fd90a">
   <rect x="129.6" y="8.881927" width="16.2" height="53.876147"/>
  </clipPath>
  <clipPath id="pe999afed25">
   <rect x="147.564248" y="8.64" width="12.671503" height="54.36"/>
  </clipPath>
  <clipPath id="p3538d443ba">
   <rect x="167.400745" y="8.64" width="5.39851" height="54.36"/>
  </clipPath>
  <clipPath id="p1ddc0dd838">
   <rect x="194.4" y="10.936525" width="16.2" height="49.766949"/>
  </clipPath>
  <clipPath id="p41928eff63">
   <rect x="216.206938" y="8.64" width="4.986124" height="54.36"/>
  </clipPath>
  <clipPath id="pb50b095aa0">
   <rect x="228.189352" y="8.64" width="13.421297" height="54.36"/>
  </clipPath>
  <clipPath id="pf131feab63">
   <rect x="245.738979" y="8.64" width="10.722041" height="54.36"/>
  </clipPath>
  <clipPath id="p33df447931">
   <rect x="278.138979" y="8.64" width="10.722041" height="54.36"/>
  </clipPath>
  <clipPath id="p9b8f962fb9">
   <rect x="291.6" y="8.881927" width="16.2" height="53.876147"/>
  </clipPath>
  <clipPath id="pbbc9598e2c">
   <rect x="310.538979" y="8.64" width="10.722041" height="54.36"/>
  </clipPath>
  <clipPath id="pb33a1d1aac">
   <rect x="340.2" y="9.603482" width="16.2" height="52.433036"/>
  </clipPath>
  <clipPath id="pfe582abe90">
   <rect x="357.002069" y="8.64" width="14.995862" height="54.36"/>
  </clipPath>
  <clipPath id="p34ca890525">
   <rect x="374.382993" y="8.64" width="12.634014" height="54.36"/>
  </clipPath>
  <clipPath id="pe9d19e909d">
   <rect x="390.189352" y="8.64" width="13.421297" height="54.36"/>
  </clipPath>
  <clipPath id="p3b3f72d4b7">
   <rect x="422.083241" y="8.64" width="14.433517" height="54.36"/>
  </clipPath>
  <clipPath id="p7fdb8d4cee">
   <rect x="437.4" y="8.881927" width="16.2" height="53.876147"/>
  </clipPath>
  <clipPath id="pda4faeea34">
   <rect x="456.338979" y="8.64" width="10.722041" height="54.36"/>
  </clipPath>
  <clipPath id="p841fb68c84">
   <rect x="469.8" y="9.949956" width="16.2" height="51.740088"/>
  </clipPath>
  <clipPath id="p4583975bff">
   <rect x="486" y="8.881927" width="16.2" height="53.876147"/>
  </clipPath>
  <clipPath id="p8b88529e6a">
   <rect x="502.2" y="11.850612" width="16.2" height="47.938776"/>
  </clipPath>
  <clipPath id="p7d114e4869">
   <rect x="519.789352" y="8.64" width="13.421297" height="54.36"/>
  </clipPath>
  <clipPath id="pedfd577cf5">
   <rect x="540.431876" y="8.64" width="4.536248" height="54.36"/>
  </clipPath>
  <clipPath id="pf97d6c71fe">
   <rect x="551.851945" y="8.64" width="14.09611" height="54.36"/>
  </clipPath>
  <clipPath id="p5589c49185">
   <rect x="583.2" y="11.850612" width="16.2" height="47.938776"/>
  </clipPath>
  <clipPath id="p4969bb6596">
   <rect x="600.789352" y="8.64" width="13.421297" height="54.36"/>
  </clipPath>
  <clipPath id="padf5490068">
   <rect x="616.989352" y="8.64" width="13.421297" height="54.36"/>
  </clipPath>
  <clipPath id="p4b66cabfd1">
   <rect x="631.8" y="8.881927" width="16.2" height="53.876147"/>
  </clipPath>
 </defs>
</svg>
