<?xml version="1.0" encoding="utf-8" standalone="no"?>
<!DOCTYPE svg PUBLIC "-//W3C//DTD SVG 1.1//EN"
  "http://www.w3.org/Graphics/SVG/1.1/DTD/svg11.dtd">
<svg xmlns:xlink="http://www.w3.org/1999/xlink" width="594pt" height="72pt" viewBox="0 0 594 72" xmlns="http://www.w3.org/2000/svg" version="1.1">
 <metadata>
  <rdf:RDF xmlns:dc="http://purl.org/dc/elements/1.1/" xmlns:cc="http://creativecommons.org/ns#" xmlns:rdf="http://www.w3.org/1999/02/22-rdf-syntax-ns#">
   <cc:Work>
    <dc:type rdf:resource="http://purl.org/dc/dcmitype/StillImage"/>
    <dc:date>2024-01-04T18:41:33.668052</dc:date>
    <dc:format>image/svg+xml</dc:format>
    <dc:creator>
     <cc:Agent>
      <dc:title>Matplotlib v3.7.1, https://matplotlib.org/</dc:title>
     </cc:Agent>
    </dc:creator>
   </cc:Work>
  </rdf:RDF>
 </metadata>
 <defs>
  <style type="text/css">*{stroke-linejoin: round; stroke-linecap: butt}</style>
 </defs>
 <g id="figure_1">
  <g id="patch_1">
   <path d="M 0 72 
L 594 72 
L 594 0 
L 0 0 
z
" style="fill: #8fff9f"/>
  </g>
  <g id="axes_1">
   <g id="patch_2">
    <path d="M 8.624855 27.009931 
Q 8.699834 27.347338 8.774814 28.265834 
Q 8.849793 29.184331 8.999752 29.634207 
L 8.924772 31.058814 
M 7.275228 27.309848 
Q 7.237738 27.309848 7.200248 27.534786 
Q 7.237738 27.684745 7.350207 28.828179 
Q 7.462676 29.971614 7.725103 30.533959 
" clip-path="url(#p275b305613)" style="fill: none; stroke: #000000; stroke-linejoin: miter"/>
   </g>
  </g>
  <g id="axes_2">
   <g id="patch_3">
    <path d="M 17.649016 45.151664 
L 17.909839 29.50229 
L 17.909839 28.893703 
Q 17.909839 28.66186 18.01127 28.299606 
Q 18.112701 27.937352 18.257603 27.937352 
Q 19.155993 27.937352 20.039893 29.270447 
Q 20.923792 30.603542 21.459928 32.19746 
Q 21.996064 33.791377 22.5322 35.124472 
Q 23.068336 36.457567 23.38712 36.457567 
Q 23.879785 36.457567 24.560823 35.023041 
Q 25.24186 33.588515 25.835957 31.849696 
Q 26.430054 30.110877 27.241503 28.676351 
Q 28.052952 27.241825 28.77746 27.241825 
Q 29.472987 27.241825 29.922182 30.632522 
Q 30.371377 34.02322 30.58873 38.50068 
Q 30.806082 42.97814 30.864043 43.325903 
L 30.950984 46.108014 
" clip-path="url(#p10bfb7cde0)" style="fill: none; stroke: #000000; stroke-linejoin: miter"/>
   </g>
  </g>
  <g id="axes_3">
   <g id="patch_4">
    <path d="M 35.363917 36.382345 
Q 35.326428 36.494814 35.457641 36.701007 
Q 35.588855 36.9072 35.476386 37.057159 
L 35.476386 39.306538 
Q 35.476386 40.506207 35.813793 41.724621 
Q 36.1512 42.943034 37.013462 43.93651 
Q 37.875724 44.929986 39.075393 44.929986 
Q 40.312552 44.929986 40.987366 43.861531 
Q 41.662179 42.793076 42.112055 41.143531 
Q 42.561931 39.493986 42.899338 38.969131 
L 43.686621 36.382345 
L 43.461683 42.680607 
L 43.461683 45.154924 
Q 43.461683 47.066897 44.192731 51.00331 
Q 44.923779 54.939724 44.923779 56.964166 
Q 45.673572 59.213545 44.586372 60.188276 
Q 43.499172 61.163007 41.437241 60.78811 
Q 39.637738 60.488193 38.719241 60.169531 
Q 37.800745 59.850869 35.813793 58.988607 
L 35.701324 58.426262 
" clip-path="url(#pb6ad123ce2)" style="fill: none; stroke: #000000; stroke-linejoin: miter"/>
   </g>
  </g>
  <g id="axes_4">
   <g id="patch_5">
    <path d="M 55.987697 39.981352 
Q 56.999917 40.956083 57.337324 42.905545 
Q 57.524772 43.955255 57.112386 46.167145 
L 55.875228 47.629241 
" clip-path="url(#p8a7edf75d1)" style="fill: none; stroke: #000000; stroke-linejoin: miter"/>
   </g>
  </g>
  <g id="axes_5"/>
  <g id="axes_6">
   <g id="patch_6">
    <path d="M 82.716102 36.437797 
L 83.951695 44.778051 
Q 84.054661 45.567458 84.054661 45.60178 
Q 84.054661 45.704746 84.363559 45.704746 
Q 85.22161 45.704746 85.942373 44.778051 
Q 86.663136 43.851356 87.075 42.718729 
Q 87.486864 41.586102 88.001695 40.659407 
Q 88.516525 39.732712 88.997034 39.732712 
Q 89.614831 39.732712 90.249788 40.607924 
Q 90.884746 41.483136 91.348093 42.512797 
Q 91.811441 43.542458 92.48072 44.417669 
Q 93.15 45.292881 93.836441 45.292881 
Q 94.111017 43.782712 94.540042 39.69839 
Q 94.969068 35.614068 95.483898 33.554746 
" clip-path="url(#pce7780fbbb)" style="fill: none; stroke: #000000; stroke-linejoin: miter"/>
   </g>
  </g>
  <g id="axes_7">
   <g id="patch_7">
    <path d="M 101.813462 35.932469 
Q 102.413297 35.257655 103.406772 34.826524 
Q 104.400248 34.395393 105.3 34.470372 
Q 105.937324 34.470372 106.42469 34.639076 
Q 106.912055 34.807779 107.230717 34.995228 
Q 107.549379 35.182676 107.774317 35.670041 
Q 107.999255 36.157407 108.111724 36.419834 
Q 108.224193 36.682262 108.280428 37.375821 
Q 108.336662 38.069379 108.355407 38.331807 
Q 108.374152 38.594234 108.355407 39.419007 
Q 108.336662 40.243779 108.336662 40.431228 
Q 108.336662 41.368469 108.167959 43.242952 
Q 107.999255 45.117434 107.999255 46.054676 
Q 107.999255 46.467062 108.05549 46.823214 
Q 108.111724 47.179366 108.205448 47.610497 
Q 108.299172 48.041628 108.336662 48.304055 
L 108.786538 48.528993 
M 102.263338 23.111007 
Q 102.488276 24.798041 102.488276 29.971614 
L 102.488276 42.3432 
L 102.150869 46.841959 
L 101.925931 47.74171 
" clip-path="url(#p7d01afee7c)" style="fill: none; stroke: #000000; stroke-linejoin: miter"/>
   </g>
  </g>
  <g id="axes_8">
   <g id="patch_8">
    <path d="M 115.257798 38.160826 
Q 118.230275 39.535596 122.949083 39.721376 
Q 124.472477 39.721376 125.159862 38.550963 
Q 125.847248 37.38055 125.847248 35.82 
Q 125.847248 35.299817 125.754358 34.909679 
Q 125.661468 34.519541 125.419954 34.296606 
Q 125.17844 34.07367 125.011239 33.943624 
Q 124.844037 33.813578 124.398165 33.757844 
Q 123.952294 33.70211 123.747936 33.683532 
Q 123.543578 33.664954 122.967661 33.683532 
Q 122.391743 33.70211 122.168807 33.70211 
Q 120.125229 33.70211 118.638991 35.578486 
Q 117.152752 37.454862 117.152752 39.609908 
Q 117.152752 42.619541 119.084862 44.570229 
Q 121.016972 46.520917 124.063761 46.520917 
Q 126.218807 46.818165 127.742202 44.29156 
" clip-path="url(#pdf6b2f1609)" style="fill: none; stroke: #000000; stroke-linejoin: miter"/>
   </g>
  </g>
  <g id="axes_9">
   <g id="patch_9">
    <path d="M 134.213462 32.783338 
Q 134.738317 34.507862 134.869531 36.457324 
Q 135.000745 38.406786 134.925766 40.956083 
Q 134.850786 43.505379 134.888276 44.705048 
L 135.000745 46.054676 
L 135.000745 45.829738 
Q 135.000745 44.667559 134.719572 42.30571 
Q 134.4384 39.943862 134.4384 38.744193 
Q 134.4384 36.419834 135.450621 34.882759 
Q 136.462841 33.345683 138.487283 33.345683 
Q 139.199586 33.345683 139.536993 33.626855 
Q 139.8744 33.908028 140.136828 34.432883 
Q 140.399255 34.957738 140.736662 35.257655 
L 141.186538 36.832221 
" clip-path="url(#pfc2a70290d)" style="fill: none; stroke: #000000; stroke-linejoin: miter"/>
   </g>
  </g>
  <g id="axes_10">
   <g id="patch_10">
    <path d="M 147.657798 38.160826 
Q 150.630275 39.535596 155.349083 39.721376 
Q 156.872477 39.721376 157.559862 38.550963 
Q 158.247248 37.38055 158.247248 35.82 
Q 158.247248 35.299817 158.154358 34.909679 
Q 158.061468 34.519541 157.819954 34.296606 
Q 157.57844 34.07367 157.411239 33.943624 
Q 157.244037 33.813578 156.798165 33.757844 
Q 156.352294 33.70211 156.147936 33.683532 
Q 155.943578 33.664954 155.367661 33.683532 
Q 154.791743 33.70211 154.568807 33.70211 
Q 152.525229 33.70211 151.038991 35.578486 
Q 149.552752 37.454862 149.552752 39.609908 
Q 149.552752 42.619541 151.484862 44.570229 
Q 153.416972 46.520917 156.463761 46.520917 
Q 158.618807 46.818165 160.142202 44.29156 
" clip-path="url(#p0455eeb3fd)" style="fill: none; stroke: #000000; stroke-linejoin: miter"/>
   </g>
  </g>
  <g id="axes_11"/>
  <g id="axes_12">
   <g id="patch_11">
    <path d="M 191.843923 36.441748 
Q 190.634968 35.094627 186.662687 35.094627 
Q 185.142857 35.094627 184.365672 35.146439 
Q 183.588486 35.198252 182.58678 35.440043 
Q 181.585075 35.681834 181.101493 36.182687 
Q 180.61791 36.683539 180.272495 37.616162 
Q 179.927079 38.548785 179.927079 39.964989 
Q 179.927079 42.037484 181.343284 43.280981 
Q 182.759488 44.524478 184.693817 44.524478 
Q 187.353518 44.524478 190.116844 38.721493 
Q 191.463966 35.854542 191.463966 35.82 
Q 191.809382 35.578209 191.843923 36.441748 
Q 191.843923 37.512537 192.258422 40.362217 
Q 192.672921 43.211898 192.672921 44.524478 
" clip-path="url(#p20e21644d7)" style="fill: none; stroke: #000000; stroke-linejoin: miter"/>
   </g>
  </g>
  <g id="axes_13">
   <g id="patch_12">
    <path d="M 199.013462 32.783338 
Q 199.538317 34.507862 199.669531 36.457324 
Q 199.800745 38.406786 199.725766 40.956083 
Q 199.650786 43.505379 199.688276 44.705048 
L 199.800745 46.054676 
L 199.800745 45.829738 
Q 199.800745 44.667559 199.519572 42.30571 
Q 199.2384 39.943862 199.2384 38.744193 
Q 199.2384 36.419834 200.250621 34.882759 
Q 201.262841 33.345683 203.287283 33.345683 
Q 203.999586 33.345683 204.336993 33.626855 
Q 204.6744 33.908028 204.936828 34.432883 
Q 205.199255 34.957738 205.536662 35.257655 
L 205.986538 36.832221 
" clip-path="url(#p44e700e2d4)" style="fill: none; stroke: #000000; stroke-linejoin: miter"/>
   </g>
  </g>
  <g id="axes_14">
   <g id="patch_13">
    <path d="M 212.457798 38.160826 
Q 215.430275 39.535596 220.149083 39.721376 
Q 221.672477 39.721376 222.359862 38.550963 
Q 223.047248 37.38055 223.047248 35.82 
Q 223.047248 35.299817 222.954358 34.909679 
Q 222.861468 34.519541 222.619954 34.296606 
Q 222.37844 34.07367 222.211239 33.943624 
Q 222.044037 33.813578 221.598165 33.757844 
Q 221.152294 33.70211 220.947936 33.683532 
Q 220.743578 33.664954 220.167661 33.683532 
Q 219.591743 33.70211 219.368807 33.70211 
Q 217.325229 33.70211 215.838991 35.578486 
Q 214.352752 37.454862 214.352752 39.609908 
Q 214.352752 42.619541 216.284862 44.570229 
Q 218.216972 46.520917 221.263761 46.520917 
Q 223.418807 46.818165 224.942202 44.29156 
" clip-path="url(#paed7fa0197)" style="fill: none; stroke: #000000; stroke-linejoin: miter"/>
   </g>
  </g>
  <g id="axes_15"/>
  <g id="axes_16">
   <g id="patch_14">
    <path d="M 245.963917 36.382345 
Q 245.926428 36.494814 246.057641 36.701007 
Q 246.188855 36.9072 246.076386 37.057159 
L 246.076386 39.306538 
Q 246.076386 40.506207 246.413793 41.724621 
Q 246.7512 42.943034 247.613462 43.93651 
Q 248.475724 44.929986 249.675393 44.929986 
Q 250.912552 44.929986 251.587366 43.861531 
Q 252.262179 42.793076 252.712055 41.143531 
Q 253.161931 39.493986 253.499338 38.969131 
L 254.286621 36.382345 
L 254.061683 42.680607 
L 254.061683 45.154924 
Q 254.061683 47.066897 254.792731 51.00331 
Q 255.523779 54.939724 255.523779 56.964166 
Q 256.273572 59.213545 255.186372 60.188276 
Q 254.099172 61.163007 252.037241 60.78811 
Q 250.237738 60.488193 249.319241 60.169531 
Q 248.400745 59.850869 246.413793 58.988607 
L 246.301324 58.426262 
" clip-path="url(#p74046d2006)" style="fill: none; stroke: #000000; stroke-linejoin: miter"/>
   </g>
  </g>
  <g id="axes_17">
   <g id="patch_15">
    <path d="M 270.5616 35.032717 
Q 269.51189 34.582841 268.537159 34.69531 
Q 265.500497 35.032717 263.588524 36.701007 
Q 261.676552 38.369297 261.676552 41.330979 
Q 261.676552 43.917766 263.682248 45.6048 
Q 265.687945 47.291834 268.312221 47.291834 
Q 270.674069 47.291834 271.798759 45.361117 
Q 272.923448 43.4304 272.923448 40.881103 
Q 272.923448 39.643945 272.511062 38.706703 
Q 272.098676 37.769462 271.573821 37.300841 
Q 271.048966 36.832221 270.299172 36.119917 
Q 269.549379 35.407614 269.099503 34.69531 
L 267.862345 34.245434 
" clip-path="url(#p35f338aa33)" style="fill: none; stroke: #000000; stroke-linejoin: miter"/>
   </g>
  </g>
  <g id="axes_18">
   <g id="patch_16">
    <path d="M 278.888772 35.145186 
Q 278.888772 35.145186 278.888772 35.595062 
Q 278.888772 36.269876 278.776303 37.619503 
Q 278.663834 38.969131 278.663834 39.643945 
Q 278.663834 41.930814 279.900993 43.599103 
Q 281.138152 45.267393 283.275062 45.267393 
Q 284.662179 45.154924 285.430717 43.917766 
Q 286.199255 42.680607 286.349214 41.237255 
Q 286.499172 39.793903 286.7616 37.9944 
Q 287.024028 36.194897 287.436414 35.370124 
Q 287.586372 35.070207 287.586372 35.670041 
Q 287.586372 36.269876 287.323945 38.706703 
Q 287.099007 41.031062 287.099007 41.555917 
Q 286.949048 42.643117 287.286455 43.767807 
Q 287.623862 44.892497 288.336166 45.6048 
" clip-path="url(#p3f484f360c)" style="fill: none; stroke: #000000; stroke-linejoin: miter"/>
   </g>
  </g>
  <g id="axes_19">
   <g id="patch_17">
    <path d="M 296.213462 32.783338 
Q 296.738317 34.507862 296.869531 36.457324 
Q 297.000745 38.406786 296.925766 40.956083 
Q 296.850786 43.505379 296.888276 44.705048 
L 297.000745 46.054676 
L 297.000745 45.829738 
Q 297.000745 44.667559 296.719572 42.30571 
Q 296.4384 39.943862 296.4384 38.744193 
Q 296.4384 36.419834 297.450621 34.882759 
Q 298.462841 33.345683 300.487283 33.345683 
Q 301.199586 33.345683 301.536993 33.626855 
Q 301.8744 33.908028 302.136828 34.432883 
Q 302.399255 34.957738 302.736662 35.257655 
L 303.186538 36.832221 
" clip-path="url(#padcb1f4acc)" style="fill: none; stroke: #000000; stroke-linejoin: miter"/>
   </g>
  </g>
  <g id="axes_20"/>
  <g id="axes_21">
   <g id="patch_18">
    <path d="M 325.808036 34.879821 
Q 326.314286 36.073125 326.603571 42.871339 
Q 326.748214 46.632054 327.0375 46.632054 
Q 327.073661 46.632054 327.109821 46.595893 
Q 327.616071 46.017321 327.670313 44.588973 
Q 327.724554 43.160625 327.507589 41.750357 
Q 327.290625 40.340089 327.0375 38.712857 
Q 326.784375 37.085625 326.784375 36.398571 
Q 326.784375 35.169107 327.164062 33.939643 
Q 327.54375 32.710179 328.520089 32.710179 
Q 329.749554 32.710179 330.472768 34.355491 
Q 331.195982 36.000804 331.358705 37.971562 
Q 331.521429 39.942321 331.629911 41.587634 
Q 331.738393 43.232946 331.883036 43.232946 
Q 332.027679 43.232946 332.11808 41.497232 
Q 332.208482 39.761518 332.335045 37.700357 
Q 332.461607 35.639196 333.184821 33.903482 
Q 333.908036 32.167768 335.1375 32.167768 
Q 336.692411 33.035625 337.361384 34.771339 
Q 338.030357 36.507054 337.994196 38.188527 
Q 337.958036 39.87 337.976116 42.057723 
Q 337.994196 44.245446 338.391964 45.511071 
" clip-path="url(#p2b03d4bf01)" style="fill: none; stroke: #000000; stroke-linejoin: miter"/>
   </g>
  </g>
  <g id="axes_22">
   <g id="patch_19">
    <path d="M 353.843923 36.441748 
Q 352.634968 35.094627 348.662687 35.094627 
Q 347.142857 35.094627 346.365672 35.146439 
Q 345.588486 35.198252 344.58678 35.440043 
Q 343.585075 35.681834 343.101493 36.182687 
Q 342.61791 36.683539 342.272495 37.616162 
Q 341.927079 38.548785 341.927079 39.964989 
Q 341.927079 42.037484 343.343284 43.280981 
Q 344.759488 44.524478 346.693817 44.524478 
Q 349.353518 44.524478 352.116844 38.721493 
Q 353.463966 35.854542 353.463966 35.82 
Q 353.809382 35.578209 353.843923 36.441748 
Q 353.843923 37.512537 354.258422 40.362217 
Q 354.672921 43.211898 354.672921 44.524478 
" clip-path="url(#pb79dcb44b2)" style="fill: none; stroke: #000000; stroke-linejoin: miter"/>
   </g>
  </g>
  <g id="axes_23">
   <g id="patch_20">
    <path d="M 360.038731 37.282097 
L 360.038731 37.844441 
Q 360.301159 39.868883 360.338648 41.312234 
Q 360.376138 42.755586 360.282414 44.667559 
Q 360.18869 46.579531 360.18869 48.191586 
L 360.263669 39.643945 
Q 360.263669 38.144359 361.856979 37.507034 
Q 363.45029 36.86971 364.874897 37.282097 
Q 366.786869 37.844441 367.705366 39.04411 
Q 368.623862 40.243779 368.680097 41.668386 
Q 368.736331 43.092993 368.773821 44.817517 
Q 368.81131 46.542041 368.961269 48.191586 
" clip-path="url(#pdce83ebd1f)" style="fill: none; stroke: #000000; stroke-linejoin: miter"/>
   </g>
  </g>
  <g id="axes_24">
   <g id="patch_21">
    <path d="M 376.238731 37.282097 
L 376.238731 37.844441 
Q 376.501159 39.868883 376.538648 41.312234 
Q 376.576138 42.755586 376.482414 44.667559 
Q 376.38869 46.579531 376.38869 48.191586 
L 376.463669 39.643945 
Q 376.463669 38.144359 378.056979 37.507034 
Q 379.65029 36.86971 381.074897 37.282097 
Q 382.986869 37.844441 383.905366 39.04411 
Q 384.823862 40.243779 384.880097 41.668386 
Q 384.936331 43.092993 384.973821 44.817517 
Q 385.01131 46.542041 385.161269 48.191586 
" clip-path="url(#p4d9fc83d81)" style="fill: none; stroke: #000000; stroke-linejoin: miter"/>
   </g>
  </g>
  <g id="axes_25">
   <g id="patch_22">
    <path d="M 390.657798 38.160826 
Q 393.630275 39.535596 398.349083 39.721376 
Q 399.872477 39.721376 400.559862 38.550963 
Q 401.247248 37.38055 401.247248 35.82 
Q 401.247248 35.299817 401.154358 34.909679 
Q 401.061468 34.519541 400.819954 34.296606 
Q 400.57844 34.07367 400.411239 33.943624 
Q 400.244037 33.813578 399.798165 33.757844 
Q 399.352294 33.70211 399.147936 33.683532 
Q 398.943578 33.664954 398.367661 33.683532 
Q 397.791743 33.70211 397.568807 33.70211 
Q 395.525229 33.70211 394.038991 35.578486 
Q 392.552752 37.454862 392.552752 39.609908 
Q 392.552752 42.619541 394.484862 44.570229 
Q 396.416972 46.520917 399.463761 46.520917 
Q 401.618807 46.818165 403.142202 44.29156 
" clip-path="url(#pe725746842)" style="fill: none; stroke: #000000; stroke-linejoin: miter"/>
   </g>
  </g>
  <g id="axes_26">
   <g id="patch_23">
    <path d="M 409.613462 32.783338 
Q 410.138317 34.507862 410.269531 36.457324 
Q 410.400745 38.406786 410.325766 40.956083 
Q 410.250786 43.505379 410.288276 44.705048 
L 410.400745 46.054676 
L 410.400745 45.829738 
Q 410.400745 44.667559 410.119572 42.30571 
Q 409.8384 39.943862 409.8384 38.744193 
Q 409.8384 36.419834 410.850621 34.882759 
Q 411.862841 33.345683 413.887283 33.345683 
Q 414.599586 33.345683 414.936993 33.626855 
Q 415.2744 33.908028 415.536828 34.432883 
Q 415.799255 34.957738 416.136662 35.257655 
L 416.586538 36.832221 
" clip-path="url(#pfa0c2ed83a)" style="fill: none; stroke: #000000; stroke-linejoin: miter"/>
   </g>
  </g>
  <g id="axes_27">
   <g id="patch_24">
    <path d="M 424.857476 43.917766 
Q 425.157393 44.180193 426.169614 45.154924 
Q 427.181834 46.129655 427.744179 46.560786 
Q 428.306524 46.991917 429.33749 47.385559 
Q 430.368455 47.7792 431.380676 47.629241 
Q 432.05549 47.629241 432.52411 47.404303 
Q 432.992731 47.179366 433.217669 46.879448 
Q 433.442607 46.579531 433.573821 45.979697 
Q 433.705034 45.379862 433.723779 44.967476 
Q 433.742524 44.55509 433.742524 43.805297 
Q 433.742524 42.718097 432.842772 42.043283 
Q 431.943021 41.368469 430.649628 41.031062 
Q 429.356234 40.693655 428.062841 40.300014 
Q 426.769448 39.906372 425.869697 38.987876 
Q 424.969945 38.069379 424.969945 36.607283 
Q 424.969945 36.082428 425.138648 35.726276 
Q 425.307352 35.370124 425.700993 35.145186 
Q 426.094634 34.920248 426.375807 34.807779 
Q 426.656979 34.69531 427.313048 34.639076 
Q 427.969117 34.582841 428.156566 34.582841 
Q 428.344014 34.582841 429.018828 34.582841 
Q 430.218497 34.582841 430.799586 34.995228 
Q 431.380676 35.407614 431.699338 36.026193 
Q 432.018 36.644772 432.280428 36.832221 
" clip-path="url(#pb3afb77edf)" style="fill: none; stroke: #000000; stroke-linejoin: miter"/>
   </g>
  </g>
  <g id="axes_28">
   <g id="patch_25">
    <path d="M 443.775476 45.379862 
Q 443.513048 45.304883 443.231876 45.64229 
Q 442.950703 45.979697 443.025683 46.279614 
Q 443.025683 46.429572 443.475559 46.429572 
Q 443.625517 46.467062 443.737986 46.392083 
Q 443.850455 46.317103 443.850455 46.129655 
M 440.551366 26.934952 
Q 443.475559 25.922731 445.799917 26.0352 
Q 447.824359 26.0352 449.136497 27.197379 
Q 450.448634 28.359559 450.448634 30.309021 
Q 450.448634 32.745848 448.855324 34.001752 
Q 447.262014 35.257655 444.750207 35.257655 
L 443.250621 35.257655 
Q 443.100662 35.257655 443.063172 36.194897 
Q 443.025683 37.132138 443.063172 38.069379 
L 443.100662 39.006621 
L 443.100662 41.405959 
L 443.400579 42.230731 
" clip-path="url(#pd64a04c09c)" style="fill: none; stroke: #000000; stroke-linejoin: miter"/>
   </g>
  </g>
  <g id="axes_29">
   <g id="patch_26">
    <path d="M 462.224855 27.009931 
Q 462.299834 27.347338 462.374814 28.265834 
Q 462.449793 29.184331 462.599752 29.634207 
L 462.524772 31.058814 
M 460.875228 27.309848 
Q 460.837738 27.309848 460.800248 27.534786 
Q 460.837738 27.684745 460.950207 28.828179 
Q 461.062676 29.971614 461.325103 30.533959 
" clip-path="url(#p22fa75d917)" style="fill: none; stroke: #000000; stroke-linejoin: miter"/>
   </g>
  </g>
  <g id="axes_30"/>
  <g id="axes_31">
   <g id="patch_27">
    <path d="M 487.087248 30.470738 
L 488.261477 30.601208 
Q 490.088054 30.601208 491.925503 30.709933 
Q 493.762953 30.818658 496.002685 30.992617 
Q 498.242416 31.166577 499.677584 31.253557 
L 501.112752 31.123087 
M 493.871678 31.057852 
Q 493.936913 31.405772 493.675973 32.177718 
Q 493.415034 32.949664 493.610738 33.406309 
Q 493.610738 34.711007 493.752081 36.363624 
Q 493.893423 38.016242 494.110872 39.973289 
Q 494.328322 41.930336 494.393557 42.800134 
" clip-path="url(#pd110c5a59d)" style="fill: none; stroke: #000000; stroke-linejoin: miter"/>
   </g>
  </g>
  <g id="axes_32">
   <g id="patch_28">
    <path d="M 506.813462 35.932469 
Q 507.413297 35.257655 508.406772 34.826524 
Q 509.400248 34.395393 510.3 34.470372 
Q 510.937324 34.470372 511.42469 34.639076 
Q 511.912055 34.807779 512.230717 34.995228 
Q 512.549379 35.182676 512.774317 35.670041 
Q 512.999255 36.157407 513.111724 36.419834 
Q 513.224193 36.682262 513.280428 37.375821 
Q 513.336662 38.069379 513.355407 38.331807 
Q 513.374152 38.594234 513.355407 39.419007 
Q 513.336662 40.243779 513.336662 40.431228 
Q 513.336662 41.368469 513.167959 43.242952 
Q 512.999255 45.117434 512.999255 46.054676 
Q 512.999255 46.467062 513.05549 46.823214 
Q 513.111724 47.179366 513.205448 47.610497 
Q 513.299172 48.041628 513.336662 48.304055 
L 513.786538 48.528993 
M 507.263338 23.111007 
Q 507.488276 24.798041 507.488276 29.971614 
L 507.488276 42.3432 
L 507.150869 46.841959 
L 506.925931 47.74171 
" clip-path="url(#p2a9da0dec9)" style="fill: none; stroke: #000000; stroke-linejoin: miter"/>
   </g>
  </g>
  <g id="axes_33">
   <g id="patch_29">
    <path d="M 520.257798 38.160826 
Q 523.230275 39.535596 527.949083 39.721376 
Q 529.472477 39.721376 530.159862 38.550963 
Q 530.847248 37.38055 530.847248 35.82 
Q 530.847248 35.299817 530.754358 34.909679 
Q 530.661468 34.519541 530.419954 34.296606 
Q 530.17844 34.07367 530.011239 33.943624 
Q 529.844037 33.813578 529.398165 33.757844 
Q 528.952294 33.70211 528.747936 33.683532 
Q 528.543578 33.664954 527.967661 33.683532 
Q 527.391743 33.70211 527.168807 33.70211 
Q 525.125229 33.70211 523.638991 35.578486 
Q 522.152752 37.454862 522.152752 39.609908 
Q 522.152752 42.619541 524.084862 44.570229 
Q 526.016972 46.520917 529.063761 46.520917 
Q 531.218807 46.818165 532.742202 44.29156 
" clip-path="url(#p2fe42fcb71)" style="fill: none; stroke: #000000; stroke-linejoin: miter"/>
   </g>
  </g>
 </g>
 <defs>
  <clipPath id="p275b305613">
   <rect x="5.325766" y="8.64" width="5.548469" height="54.36"/>
  </clipPath>
  <clipPath id="p10bfb7cde0">
   <rect x="16.2" y="14.809267" width="16.2" height="42.021467"/>
  </clipPath>
  <clipPath id="pb6ad123ce2">
   <rect x="33.451945" y="8.64" width="14.09611" height="54.36"/>
  </clipPath>
  <clipPath id="p8a7edf75d1">
   <rect x="54.000745" y="8.64" width="5.39851" height="54.36"/>
  </clipPath>
  <clipPath id="pce7780fbbb">
   <rect x="81" y="10.936525" width="16.2" height="49.766949"/>
  </clipPath>
  <clipPath id="p7d01afee7c">
   <rect x="99.938979" y="8.64" width="10.722041" height="54.36"/>
  </clipPath>
  <clipPath id="pdf6b2f1609">
   <rect x="113.4" y="8.881927" width="16.2" height="53.876147"/>
  </clipPath>
  <clipPath id="pfc2a70290d">
   <rect x="132.338979" y="8.64" width="10.722041" height="54.36"/>
  </clipPath>
  <clipPath id="p0455eeb3fd">
   <rect x="145.8" y="8.881927" width="16.2" height="53.876147"/>
  </clipPath>
  <clipPath id="p20e21644d7">
   <rect x="178.2" y="10.777356" width="16.2" height="50.085288"/>
  </clipPath>
  <clipPath id="p44e700e2d4">
   <rect x="197.138979" y="8.64" width="10.722041" height="54.36"/>
  </clipPath>
  <clipPath id="paed7fa0197">
   <rect x="210.6" y="8.881927" width="16.2" height="53.876147"/>
  </clipPath>
  <clipPath id="p74046d2006">
   <rect x="244.051945" y="8.64" width="14.09611" height="54.36"/>
  </clipPath>
  <clipPath id="p35f338aa33">
   <rect x="259.802069" y="8.64" width="14.995862" height="54.36"/>
  </clipPath>
  <clipPath id="p3f484f360c">
   <rect x="276.789352" y="8.64" width="13.421297" height="54.36"/>
  </clipPath>
  <clipPath id="padcb1f4acc">
   <rect x="294.338979" y="8.64" width="10.722041" height="54.36"/>
  </clipPath>
  <clipPath id="p2b03d4bf01">
   <rect x="324" y="9.603482" width="16.2" height="52.433036"/>
  </clipPath>
  <clipPath id="pb79dcb44b2">
   <rect x="340.2" y="10.777356" width="16.2" height="50.085288"/>
  </clipPath>
  <clipPath id="pdce83ebd1f">
   <rect x="358.164248" y="8.64" width="12.671503" height="54.36"/>
  </clipPath>
  <clipPath id="p4d9fc83d81">
   <rect x="374.364248" y="8.64" width="12.671503" height="54.36"/>
  </clipPath>
  <clipPath id="pe725746842">
   <rect x="388.8" y="8.881927" width="16.2" height="53.876147"/>
  </clipPath>
  <clipPath id="pfa0c2ed83a">
   <rect x="407.738979" y="8.64" width="10.722041" height="54.36"/>
  </clipPath>
  <clipPath id="pb3afb77edf">
   <rect x="422.982993" y="8.64" width="12.634014" height="54.36"/>
  </clipPath>
  <clipPath id="pd64a04c09c">
   <rect x="438.676883" y="8.64" width="13.646234" height="54.36"/>
  </clipPath>
  <clipPath id="p22fa75d917">
   <rect x="458.925766" y="8.64" width="5.548469" height="54.36"/>
  </clipPath>
  <clipPath id="pd110c5a59d">
   <rect x="486" y="20.054899" width="16.2" height="31.530201"/>
  </clipPath>
  <clipPath id="p2a9da0dec9">
   <rect x="504.938979" y="8.64" width="10.722041" height="54.36"/>
  </clipPath>
  <clipPath id="p2fe42fcb71">
   <rect x="518.4" y="8.881927" width="16.2" height="53.876147"/>
  </clipPath>
 </defs>
</svg>
