<?xml version="1.0" encoding="utf-8" standalone="no"?>
<!DOCTYPE svg PUBLIC "-//W3C//DTD SVG 1.1//EN"
  "http://www.w3.org/Graphics/SVG/1.1/DTD/svg11.dtd">
<svg xmlns:xlink="http://www.w3.org/1999/xlink" width="666pt" height="72pt" viewBox="0 0 666 72" xmlns="http://www.w3.org/2000/svg" version="1.1">
 <metadata>
  <rdf:RDF xmlns:dc="http://purl.org/dc/elements/1.1/" xmlns:cc="http://creativecommons.org/ns#" xmlns:rdf="http://www.w3.org/1999/02/22-rdf-syntax-ns#">
   <cc:Work>
    <dc:type rdf:resource="http://purl.org/dc/dcmitype/StillImage"/>
    <dc:date>2024-01-04T18:41:24.128056</dc:date>
    <dc:format>image/svg+xml</dc:format>
    <dc:creator>
     <cc:Agent>
      <dc:title>Matplotlib v3.7.1, https://matplotlib.org/</dc:title>
     </cc:Agent>
    </dc:creator>
   </cc:Work>
  </rdf:RDF>
 </metadata>
 <defs>
  <style type="text/css">*{stroke-linejoin: round; stroke-linecap: butt}</style>
 </defs>
 <g id="figure_1">
  <g id="patch_1">
   <path d="M 0 72 
L 666 72 
L 666 0 
L 0 0 
z
" style="fill: #8fff9f"/>
  </g>
  <g id="axes_1">
   <g id="patch_2">
    <path d="M 1.716102 36.437797 
L 2.951695 44.778051 
Q 3.054661 45.567458 3.054661 45.60178 
Q 3.054661 45.704746 3.363559 45.704746 
Q 4.22161 45.704746 4.942373 44.778051 
Q 5.663136 43.851356 6.075 42.718729 
Q 6.486864 41.586102 7.001695 40.659407 
Q 7.516525 39.732712 7.997034 39.732712 
Q 8.614831 39.732712 9.249788 40.607924 
Q 9.884746 41.483136 10.348093 42.512797 
Q 10.811441 43.542458 11.48072 44.417669 
Q 12.15 45.292881 12.836441 45.292881 
Q 13.111017 43.782712 13.540042 39.69839 
Q 13.969068 35.614068 14.483898 33.554746 
" clip-path="url(#pd41ce2677d)" style="fill: none; stroke: #000000; stroke-linejoin: miter"/>
   </g>
  </g>
  <g id="axes_2">
   <g id="patch_3">
    <path d="M 29.843923 36.441748 
Q 28.634968 35.094627 24.662687 35.094627 
Q 23.142857 35.094627 22.365672 35.146439 
Q 21.588486 35.198252 20.58678 35.440043 
Q 19.585075 35.681834 19.101493 36.182687 
Q 18.61791 36.683539 18.272495 37.616162 
Q 17.927079 38.548785 17.927079 39.964989 
Q 17.927079 42.037484 19.343284 43.280981 
Q 20.759488 44.524478 22.693817 44.524478 
Q 25.353518 44.524478 28.116844 38.721493 
Q 29.463966 35.854542 29.463966 35.82 
Q 29.809382 35.578209 29.843923 36.441748 
Q 29.843923 37.512537 30.258422 40.362217 
Q 30.672921 43.211898 30.672921 44.524478 
" clip-path="url(#pb53c5dfadf)" style="fill: none; stroke: #000000; stroke-linejoin: miter"/>
   </g>
  </g>
  <g id="axes_3">
   <g id="patch_4">
    <path d="M 35.363917 36.382345 
Q 35.326428 36.494814 35.457641 36.701007 
Q 35.588855 36.9072 35.476386 37.057159 
L 35.476386 39.306538 
Q 35.476386 40.506207 35.813793 41.724621 
Q 36.1512 42.943034 37.013462 43.93651 
Q 37.875724 44.929986 39.075393 44.929986 
Q 40.312552 44.929986 40.987366 43.861531 
Q 41.662179 42.793076 42.112055 41.143531 
Q 42.561931 39.493986 42.899338 38.969131 
L 43.686621 36.382345 
L 43.461683 42.680607 
L 43.461683 45.154924 
Q 43.461683 47.066897 44.192731 51.00331 
Q 44.923779 54.939724 44.923779 56.964166 
Q 45.673572 59.213545 44.586372 60.188276 
Q 43.499172 61.163007 41.437241 60.78811 
Q 39.637738 60.488193 38.719241 60.169531 
Q 37.800745 59.850869 35.813793 58.988607 
L 35.701324 58.426262 
" clip-path="url(#pd1278f2937)" style="fill: none; stroke: #000000; stroke-linejoin: miter"/>
   </g>
  </g>
  <g id="axes_4"/>
  <g id="axes_5">
   <g id="patch_5">
    <path d="M 76.1616 35.032717 
Q 75.11189 34.582841 74.137159 34.69531 
Q 71.100497 35.032717 69.188524 36.701007 
Q 67.276552 38.369297 67.276552 41.330979 
Q 67.276552 43.917766 69.282248 45.6048 
Q 71.287945 47.291834 73.912221 47.291834 
Q 76.274069 47.291834 77.398759 45.361117 
Q 78.523448 43.4304 78.523448 40.881103 
Q 78.523448 39.643945 78.111062 38.706703 
Q 77.698676 37.769462 77.173821 37.300841 
Q 76.648966 36.832221 75.899172 36.119917 
Q 75.149379 35.407614 74.699503 34.69531 
L 73.462345 34.245434 
" clip-path="url(#p2cbad21366)" style="fill: none; stroke: #000000; stroke-linejoin: miter"/>
   </g>
  </g>
  <g id="axes_6">
   <g id="patch_6">
    <path d="M 84.638731 37.282097 
L 84.638731 37.844441 
Q 84.901159 39.868883 84.938648 41.312234 
Q 84.976138 42.755586 84.882414 44.667559 
Q 84.78869 46.579531 84.78869 48.191586 
L 84.863669 39.643945 
Q 84.863669 38.144359 86.456979 37.507034 
Q 88.05029 36.86971 89.474897 37.282097 
Q 91.386869 37.844441 92.305366 39.04411 
Q 93.223862 40.243779 93.280097 41.668386 
Q 93.336331 43.092993 93.373821 44.817517 
Q 93.41131 46.542041 93.561269 48.191586 
" clip-path="url(#p64622c84c7)" style="fill: none; stroke: #000000; stroke-linejoin: miter"/>
   </g>
  </g>
  <g id="axes_7">
   <g id="patch_7">
    <path d="M 100.463834 37.95691 
L 101.138648 37.95691 
Q 101.850952 37.95691 102.638234 37.881931 
Q 103.425517 37.806952 104.381503 37.675738 
Q 105.33749 37.544524 105.862345 37.507034 
L 110.136166 35.82 
M 106.087283 30.42149 
L 106.087283 31.43371 
Q 106.087283 33.383172 105.412469 37.207117 
Q 104.737655 41.031062 104.737655 43.018014 
Q 104.737655 43.805297 104.737655 44.105214 
Q 104.737655 44.405131 104.831379 45.042455 
Q 104.925103 45.679779 105.112552 45.960952 
Q 105.3 46.242124 105.693641 46.485807 
Q 106.087283 46.72949 106.649628 46.72949 
Q 106.762097 46.692 107.080759 46.72949 
Q 107.399421 46.766979 107.586869 46.710745 
Q 107.774317 46.65451 107.774317 46.392083 
" clip-path="url(#p2f41de7393)" style="fill: none; stroke: #000000; stroke-linejoin: miter"/>
   </g>
  </g>
  <g id="axes_8">
   <g id="patch_8">
    <path d="M 124.7616 35.032717 
Q 123.71189 34.582841 122.737159 34.69531 
Q 119.700497 35.032717 117.788524 36.701007 
Q 115.876552 38.369297 115.876552 41.330979 
Q 115.876552 43.917766 117.882248 45.6048 
Q 119.887945 47.291834 122.512221 47.291834 
Q 124.874069 47.291834 125.998759 45.361117 
Q 127.123448 43.4304 127.123448 40.881103 
Q 127.123448 39.643945 126.711062 38.706703 
Q 126.298676 37.769462 125.773821 37.300841 
Q 125.248966 36.832221 124.499172 36.119917 
Q 123.749379 35.407614 123.299503 34.69531 
L 122.062345 34.245434 
" clip-path="url(#p1bdcd2eaa8)" style="fill: none; stroke: #000000; stroke-linejoin: miter"/>
   </g>
  </g>
  <g id="axes_9"/>
  <g id="axes_10">
   <g id="patch_9">
    <path d="M 149.063834 37.95691 
L 149.738648 37.95691 
Q 150.450952 37.95691 151.238234 37.881931 
Q 152.025517 37.806952 152.981503 37.675738 
Q 153.93749 37.544524 154.462345 37.507034 
L 158.736166 35.82 
M 154.687283 30.42149 
L 154.687283 31.43371 
Q 154.687283 33.383172 154.012469 37.207117 
Q 153.337655 41.031062 153.337655 43.018014 
Q 153.337655 43.805297 153.337655 44.105214 
Q 153.337655 44.405131 153.431379 45.042455 
Q 153.525103 45.679779 153.712552 45.960952 
Q 153.9 46.242124 154.293641 46.485807 
Q 154.687283 46.72949 155.249628 46.72949 
Q 155.362097 46.692 155.680759 46.72949 
Q 155.999421 46.766979 156.186869 46.710745 
Q 156.374317 46.65451 156.374317 46.392083 
" clip-path="url(#p94da495d3e)" style="fill: none; stroke: #000000; stroke-linejoin: miter"/>
   </g>
  </g>
  <g id="axes_11">
   <g id="patch_10">
    <path d="M 166.613462 35.932469 
Q 167.213297 35.257655 168.206772 34.826524 
Q 169.200248 34.395393 170.1 34.470372 
Q 170.737324 34.470372 171.22469 34.639076 
Q 171.712055 34.807779 172.030717 34.995228 
Q 172.349379 35.182676 172.574317 35.670041 
Q 172.799255 36.157407 172.911724 36.419834 
Q 173.024193 36.682262 173.080428 37.375821 
Q 173.136662 38.069379 173.155407 38.331807 
Q 173.174152 38.594234 173.155407 39.419007 
Q 173.136662 40.243779 173.136662 40.431228 
Q 173.136662 41.368469 172.967959 43.242952 
Q 172.799255 45.117434 172.799255 46.054676 
Q 172.799255 46.467062 172.85549 46.823214 
Q 172.911724 47.179366 173.005448 47.610497 
Q 173.099172 48.041628 173.136662 48.304055 
L 173.586538 48.528993 
M 167.063338 23.111007 
Q 167.288276 24.798041 167.288276 29.971614 
L 167.288276 42.3432 
L 166.950869 46.841959 
L 166.725931 47.74171 
" clip-path="url(#p8d65fa7dde)" style="fill: none; stroke: #000000; stroke-linejoin: miter"/>
   </g>
  </g>
  <g id="axes_12">
   <g id="patch_11">
    <path d="M 180.057798 38.160826 
Q 183.030275 39.535596 187.749083 39.721376 
Q 189.272477 39.721376 189.959862 38.550963 
Q 190.647248 37.38055 190.647248 35.82 
Q 190.647248 35.299817 190.554358 34.909679 
Q 190.461468 34.519541 190.219954 34.296606 
Q 189.97844 34.07367 189.811239 33.943624 
Q 189.644037 33.813578 189.198165 33.757844 
Q 188.752294 33.70211 188.547936 33.683532 
Q 188.343578 33.664954 187.767661 33.683532 
Q 187.191743 33.70211 186.968807 33.70211 
Q 184.925229 33.70211 183.438991 35.578486 
Q 181.952752 37.454862 181.952752 39.609908 
Q 181.952752 42.619541 183.884862 44.570229 
Q 185.816972 46.520917 188.863761 46.520917 
Q 191.018807 46.818165 192.542202 44.29156 
" clip-path="url(#pc40332ce08)" style="fill: none; stroke: #000000; stroke-linejoin: miter"/>
   </g>
  </g>
  <g id="axes_13"/>
  <g id="axes_14">
   <g id="patch_12">
    <path d="M 214.257476 43.917766 
Q 214.557393 44.180193 215.569614 45.154924 
Q 216.581834 46.129655 217.144179 46.560786 
Q 217.706524 46.991917 218.73749 47.385559 
Q 219.768455 47.7792 220.780676 47.629241 
Q 221.45549 47.629241 221.92411 47.404303 
Q 222.392731 47.179366 222.617669 46.879448 
Q 222.842607 46.579531 222.973821 45.979697 
Q 223.105034 45.379862 223.123779 44.967476 
Q 223.142524 44.55509 223.142524 43.805297 
Q 223.142524 42.718097 222.242772 42.043283 
Q 221.343021 41.368469 220.049628 41.031062 
Q 218.756234 40.693655 217.462841 40.300014 
Q 216.169448 39.906372 215.269697 38.987876 
Q 214.369945 38.069379 214.369945 36.607283 
Q 214.369945 36.082428 214.538648 35.726276 
Q 214.707352 35.370124 215.100993 35.145186 
Q 215.494634 34.920248 215.775807 34.807779 
Q 216.056979 34.69531 216.713048 34.639076 
Q 217.369117 34.582841 217.556566 34.582841 
Q 217.744014 34.582841 218.418828 34.582841 
Q 219.618497 34.582841 220.199586 34.995228 
Q 220.780676 35.407614 221.099338 36.026193 
Q 221.418 36.644772 221.680428 36.832221 
" clip-path="url(#p60942954ff)" style="fill: none; stroke: #000000; stroke-linejoin: miter"/>
   </g>
  </g>
  <g id="axes_15">
   <g id="patch_13">
    <path d="M 235.518579 29.071862 
Q 235.143683 29.146841 235.012469 29.577972 
Q 234.881255 30.009103 234.956234 30.42149 
Q 234.956234 30.571448 234.993724 30.702662 
Q 235.031214 30.833876 235.087448 30.89011 
Q 235.143683 30.946345 235.199917 31.040069 
Q 235.256152 31.133793 235.293641 31.208772 
L 235.40611 29.859145 
M 235.40611 34.020497 
Q 234.506359 39.006621 234.281421 42.793076 
L 234.731297 45.379862 
L 235.068703 46.054676 
" clip-path="url(#p7b6f9611a5)" style="fill: none; stroke: #000000; stroke-linejoin: miter"/>
   </g>
  </g>
  <g id="axes_16">
   <g id="patch_14">
    <path d="M 254.699007 39.568966 
Q 253.349379 38.181848 251.1 38.444276 
Q 248.250786 38.444276 247.088607 39.793903 
Q 245.926428 41.143531 245.926428 44.067724 
Q 245.926428 45.56731 247.219821 46.279614 
Q 248.513214 46.991917 250.087779 46.991917 
Q 251.399917 46.991917 252.412138 45.736014 
Q 253.424359 44.48011 254.005448 42.30571 
Q 254.586538 40.13131 254.961434 37.938166 
Q 255.336331 35.745021 255.48629 33.045766 
Q 255.636248 30.34651 255.673738 28.978138 
Q 255.711228 27.609766 255.711228 26.185159 
Q 255.48629 26.260138 255.48629 29.896634 
L 255.48629 44.292662 
L 256.273572 48.229076 
" clip-path="url(#p1a73db2df6)" style="fill: none; stroke: #000000; stroke-linejoin: miter"/>
   </g>
  </g>
  <g id="axes_17">
   <g id="patch_15">
    <path d="M 261.057798 38.160826 
Q 264.030275 39.535596 268.749083 39.721376 
Q 270.272477 39.721376 270.959862 38.550963 
Q 271.647248 37.38055 271.647248 35.82 
Q 271.647248 35.299817 271.554358 34.909679 
Q 271.461468 34.519541 271.219954 34.296606 
Q 270.97844 34.07367 270.811239 33.943624 
Q 270.644037 33.813578 270.198165 33.757844 
Q 269.752294 33.70211 269.547936 33.683532 
Q 269.343578 33.664954 268.767661 33.683532 
Q 268.191743 33.70211 267.968807 33.70211 
Q 265.925229 33.70211 264.438991 35.578486 
Q 262.952752 37.454862 262.952752 39.609908 
Q 262.952752 42.619541 264.884862 44.570229 
Q 266.816972 46.520917 269.863761 46.520917 
Q 272.018807 46.818165 273.542202 44.29156 
" clip-path="url(#p067e591d49)" style="fill: none; stroke: #000000; stroke-linejoin: miter"/>
   </g>
  </g>
  <g id="axes_18"/>
  <g id="axes_19">
   <g id="patch_16">
    <path d="M 294.863834 37.95691 
L 295.538648 37.95691 
Q 296.250952 37.95691 297.038234 37.881931 
Q 297.825517 37.806952 298.781503 37.675738 
Q 299.73749 37.544524 300.262345 37.507034 
L 304.536166 35.82 
M 300.487283 30.42149 
L 300.487283 31.43371 
Q 300.487283 33.383172 299.812469 37.207117 
Q 299.137655 41.031062 299.137655 43.018014 
Q 299.137655 43.805297 299.137655 44.105214 
Q 299.137655 44.405131 299.231379 45.042455 
Q 299.325103 45.679779 299.512552 45.960952 
Q 299.7 46.242124 300.093641 46.485807 
Q 300.487283 46.72949 301.049628 46.72949 
Q 301.162097 46.692 301.480759 46.72949 
Q 301.799421 46.766979 301.986869 46.710745 
Q 302.174317 46.65451 302.174317 46.392083 
" clip-path="url(#paefdd40bbc)" style="fill: none; stroke: #000000; stroke-linejoin: miter"/>
   </g>
  </g>
  <g id="axes_20">
   <g id="patch_17">
    <path d="M 321.443923 36.441748 
Q 320.234968 35.094627 316.262687 35.094627 
Q 314.742857 35.094627 313.965672 35.146439 
Q 313.188486 35.198252 312.18678 35.440043 
Q 311.185075 35.681834 310.701493 36.182687 
Q 310.21791 36.683539 309.872495 37.616162 
Q 309.527079 38.548785 309.527079 39.964989 
Q 309.527079 42.037484 310.943284 43.280981 
Q 312.359488 44.524478 314.293817 44.524478 
Q 316.953518 44.524478 319.716844 38.721493 
Q 321.063966 35.854542 321.063966 35.82 
Q 321.409382 35.578209 321.443923 36.441748 
Q 321.443923 37.512537 321.858422 40.362217 
Q 322.272921 43.211898 322.272921 44.524478 
" clip-path="url(#p9b0e41910b)" style="fill: none; stroke: #000000; stroke-linejoin: miter"/>
   </g>
  </g>
  <g id="axes_21">
   <g id="patch_18">
    <path d="M 328.557228 37.244607 
Q 329.606938 37.207117 329.794386 37.132138 
Q 333.205945 37.132138 334.986703 39.212814 
Q 336.767462 41.29349 336.767462 44.780028 
Q 336.767462 47.704221 332.156234 47.704221 
Q 331.51891 47.704221 330.97531 47.591752 
Q 330.43171 47.479283 329.794386 47.254345 
Q 329.157062 47.029407 328.669697 46.916938 
L 327.432538 45.679779 
M 328.444759 25.435366 
L 328.444759 26.560055 
Q 328.444759 29.409269 328.557228 33.008276 
Q 328.669697 36.607283 328.857145 40.899848 
Q 329.044593 45.192414 329.119572 47.141876 
" clip-path="url(#p95a5ec3a21)" style="fill: none; stroke: #000000; stroke-linejoin: miter"/>
   </g>
  </g>
  <g id="axes_22">
   <g id="patch_19">
    <path d="M 347.906359 28.621986 
Q 348.131297 30.34651 348.206276 32.146014 
Q 348.281255 33.945517 348.26251 36.551048 
Q 348.243766 39.156579 348.243766 40.093821 
Q 348.243766 40.13131 348.468703 45.829738 
L 348.693641 46.841959 
" clip-path="url(#p2b80846cb6)" style="fill: none; stroke: #000000; stroke-linejoin: miter"/>
   </g>
  </g>
  <g id="axes_23">
   <g id="patch_20">
    <path d="M 358.257798 38.160826 
Q 361.230275 39.535596 365.949083 39.721376 
Q 367.472477 39.721376 368.159862 38.550963 
Q 368.847248 37.38055 368.847248 35.82 
Q 368.847248 35.299817 368.754358 34.909679 
Q 368.661468 34.519541 368.419954 34.296606 
Q 368.17844 34.07367 368.011239 33.943624 
Q 367.844037 33.813578 367.398165 33.757844 
Q 366.952294 33.70211 366.747936 33.683532 
Q 366.543578 33.664954 365.967661 33.683532 
Q 365.391743 33.70211 365.168807 33.70211 
Q 363.125229 33.70211 361.638991 35.578486 
Q 360.152752 37.454862 360.152752 39.609908 
Q 360.152752 42.619541 362.084862 44.570229 
Q 364.016972 46.520917 367.063761 46.520917 
Q 369.218807 46.818165 370.742202 44.29156 
" clip-path="url(#pa20fd83d43)" style="fill: none; stroke: #000000; stroke-linejoin: miter"/>
   </g>
  </g>
  <g id="axes_24"/>
  <g id="axes_25">
   <g id="patch_21">
    <path d="M 402.443923 36.441748 
Q 401.234968 35.094627 397.262687 35.094627 
Q 395.742857 35.094627 394.965672 35.146439 
Q 394.188486 35.198252 393.18678 35.440043 
Q 392.185075 35.681834 391.701493 36.182687 
Q 391.21791 36.683539 390.872495 37.616162 
Q 390.527079 38.548785 390.527079 39.964989 
Q 390.527079 42.037484 391.943284 43.280981 
Q 393.359488 44.524478 395.293817 44.524478 
Q 397.953518 44.524478 400.716844 38.721493 
Q 402.063966 35.854542 402.063966 35.82 
Q 402.409382 35.578209 402.443923 36.441748 
Q 402.443923 37.512537 402.858422 40.362217 
Q 403.272921 43.211898 403.272921 44.524478 
" clip-path="url(#p21717a0790)" style="fill: none; stroke: #000000; stroke-linejoin: miter"/>
   </g>
  </g>
  <g id="axes_26">
   <g id="patch_22">
    <path d="M 408.638731 37.282097 
L 408.638731 37.844441 
Q 408.901159 39.868883 408.938648 41.312234 
Q 408.976138 42.755586 408.882414 44.667559 
Q 408.78869 46.579531 408.78869 48.191586 
L 408.863669 39.643945 
Q 408.863669 38.144359 410.456979 37.507034 
Q 412.05029 36.86971 413.474897 37.282097 
Q 415.386869 37.844441 416.305366 39.04411 
Q 417.223862 40.243779 417.280097 41.668386 
Q 417.336331 43.092993 417.373821 44.817517 
Q 417.41131 46.542041 417.561269 48.191586 
" clip-path="url(#pcf233bb100)" style="fill: none; stroke: #000000; stroke-linejoin: miter"/>
   </g>
  </g>
  <g id="axes_27">
   <g id="patch_23">
    <path d="M 432.899007 39.568966 
Q 431.549379 38.181848 429.3 38.444276 
Q 426.450786 38.444276 425.288607 39.793903 
Q 424.126428 41.143531 424.126428 44.067724 
Q 424.126428 45.56731 425.419821 46.279614 
Q 426.713214 46.991917 428.287779 46.991917 
Q 429.599917 46.991917 430.612138 45.736014 
Q 431.624359 44.48011 432.205448 42.30571 
Q 432.786538 40.13131 433.161434 37.938166 
Q 433.536331 35.745021 433.68629 33.045766 
Q 433.836248 30.34651 433.873738 28.978138 
Q 433.911228 27.609766 433.911228 26.185159 
Q 433.68629 26.260138 433.68629 29.896634 
L 433.68629 44.292662 
L 434.473572 48.229076 
" clip-path="url(#pec004d92ce)" style="fill: none; stroke: #000000; stroke-linejoin: miter"/>
   </g>
  </g>
  <g id="axes_28"/>
  <g id="axes_29">
   <g id="patch_24">
    <path d="M 456.920069 39.868883 
L 456.920069 39.419007 
Q 456.920069 37.769462 458.663338 36.682262 
Q 460.406607 35.595062 462.093641 35.595062 
Q 464.305531 35.595062 465.673903 36.794731 
Q 467.042276 37.9944 467.042276 40.20629 
Q 467.042276 42.30571 465.224028 43.336676 
Q 463.405779 44.367641 461.19389 44.367641 
Q 460.519076 44.367641 460.012966 44.255172 
Q 459.506855 44.142703 458.888276 43.917766 
Q 458.269697 43.692828 457.819821 43.580359 
L 456.695131 42.568138 
M 456.357724 36.832221 
Q 456.8076 38.444276 457.070028 40.262524 
Q 457.332455 42.080772 457.38869 43.749062 
Q 457.444924 45.417352 457.482414 47.27309 
Q 457.519903 49.128828 457.482414 50.778372 
L 457.369945 57.863917 
" clip-path="url(#p15132b0547)" style="fill: none; stroke: #000000; stroke-linejoin: miter"/>
   </g>
  </g>
  <g id="axes_30">
   <g id="patch_25">
    <path d="M 474.413462 32.783338 
Q 474.938317 34.507862 475.069531 36.457324 
Q 475.200745 38.406786 475.125766 40.956083 
Q 475.050786 43.505379 475.088276 44.705048 
L 475.200745 46.054676 
L 475.200745 45.829738 
Q 475.200745 44.667559 474.919572 42.30571 
Q 474.6384 39.943862 474.6384 38.744193 
Q 474.6384 36.419834 475.650621 34.882759 
Q 476.662841 33.345683 478.687283 33.345683 
Q 479.399586 33.345683 479.736993 33.626855 
Q 480.0744 33.908028 480.336828 34.432883 
Q 480.599255 34.957738 480.936662 35.257655 
L 481.386538 36.832221 
" clip-path="url(#pa2290f1f49)" style="fill: none; stroke: #000000; stroke-linejoin: miter"/>
   </g>
  </g>
  <g id="axes_31">
   <g id="patch_26">
    <path d="M 497.3616 35.032717 
Q 496.31189 34.582841 495.337159 34.69531 
Q 492.300497 35.032717 490.388524 36.701007 
Q 488.476552 38.369297 488.476552 41.330979 
Q 488.476552 43.917766 490.482248 45.6048 
Q 492.487945 47.291834 495.112221 47.291834 
Q 497.474069 47.291834 498.598759 45.361117 
Q 499.723448 43.4304 499.723448 40.881103 
Q 499.723448 39.643945 499.311062 38.706703 
Q 498.898676 37.769462 498.373821 37.300841 
Q 497.848966 36.832221 497.099172 36.119917 
Q 496.349379 35.407614 495.899503 34.69531 
L 494.662345 34.245434 
" clip-path="url(#p0878187251)" style="fill: none; stroke: #000000; stroke-linejoin: miter"/>
   </g>
  </g>
  <g id="axes_32">
   <g id="patch_27">
    <path d="M 515.556735 34.365306 
Q 515.556735 34.365306 515.060816 34.365306 
Q 514.267347 34.365306 512.779592 34.067755 
Q 511.291837 33.770204 510.498367 33.770204 
Q 507.721224 33.770204 505.787143 35.224898 
Q 503.853061 36.679592 503.853061 39.423673 
Q 503.853061 40.94449 505.340816 42.399184 
Q 506.828571 43.853878 508.762653 44.663878 
Q 510.696735 45.473878 512.18449 45.473878 
Q 513.110204 45.473878 513.80449 45.110204 
Q 514.498776 44.746531 515.242653 44.118367 
Q 515.986531 43.490204 516.548571 43.192653 
L 516.746939 42.696735 
" clip-path="url(#pbd8c9595ce)" style="fill: none; stroke: #000000; stroke-linejoin: miter"/>
   </g>
  </g>
  <g id="axes_33">
   <g id="patch_28">
    <path d="M 520.257798 38.160826 
Q 523.230275 39.535596 527.949083 39.721376 
Q 529.472477 39.721376 530.159862 38.550963 
Q 530.847248 37.38055 530.847248 35.82 
Q 530.847248 35.299817 530.754358 34.909679 
Q 530.661468 34.519541 530.419954 34.296606 
Q 530.17844 34.07367 530.011239 33.943624 
Q 529.844037 33.813578 529.398165 33.757844 
Q 528.952294 33.70211 528.747936 33.683532 
Q 528.543578 33.664954 527.967661 33.683532 
Q 527.391743 33.70211 527.168807 33.70211 
Q 525.125229 33.70211 523.638991 35.578486 
Q 522.152752 37.454862 522.152752 39.609908 
Q 522.152752 42.619541 524.084862 44.570229 
Q 526.016972 46.520917 529.063761 46.520917 
Q 531.218807 46.818165 532.742202 44.29156 
" clip-path="url(#p2d57cf2c7c)" style="fill: none; stroke: #000000; stroke-linejoin: miter"/>
   </g>
  </g>
  <g id="axes_34">
   <g id="patch_29">
    <path d="M 536.457798 38.160826 
Q 539.430275 39.535596 544.149083 39.721376 
Q 545.672477 39.721376 546.359862 38.550963 
Q 547.047248 37.38055 547.047248 35.82 
Q 547.047248 35.299817 546.954358 34.909679 
Q 546.861468 34.519541 546.619954 34.296606 
Q 546.37844 34.07367 546.211239 33.943624 
Q 546.044037 33.813578 545.598165 33.757844 
Q 545.152294 33.70211 544.947936 33.683532 
Q 544.743578 33.664954 544.167661 33.683532 
Q 543.591743 33.70211 543.368807 33.70211 
Q 541.325229 33.70211 539.838991 35.578486 
Q 538.352752 37.454862 538.352752 39.609908 
Q 538.352752 42.619541 540.284862 44.570229 
Q 542.216972 46.520917 545.263761 46.520917 
Q 547.418807 46.818165 548.942202 44.29156 
" clip-path="url(#p3662de4668)" style="fill: none; stroke: #000000; stroke-linejoin: miter"/>
   </g>
  </g>
  <g id="axes_35">
   <g id="patch_30">
    <path d="M 562.499007 39.568966 
Q 561.149379 38.181848 558.9 38.444276 
Q 556.050786 38.444276 554.888607 39.793903 
Q 553.726428 41.143531 553.726428 44.067724 
Q 553.726428 45.56731 555.019821 46.279614 
Q 556.313214 46.991917 557.887779 46.991917 
Q 559.199917 46.991917 560.212138 45.736014 
Q 561.224359 44.48011 561.805448 42.30571 
Q 562.386538 40.13131 562.761434 37.938166 
Q 563.136331 35.745021 563.28629 33.045766 
Q 563.436248 30.34651 563.473738 28.978138 
Q 563.511228 27.609766 563.511228 26.185159 
Q 563.28629 26.260138 563.28629 29.896634 
L 563.28629 44.292662 
L 564.073572 48.229076 
" clip-path="url(#p0066fa2dd6)" style="fill: none; stroke: #000000; stroke-linejoin: miter"/>
   </g>
  </g>
  <g id="axes_36">
   <g id="patch_31">
    <path d="M 568.857798 38.160826 
Q 571.830275 39.535596 576.549083 39.721376 
Q 578.072477 39.721376 578.759862 38.550963 
Q 579.447248 37.38055 579.447248 35.82 
Q 579.447248 35.299817 579.354358 34.909679 
Q 579.261468 34.519541 579.019954 34.296606 
Q 578.77844 34.07367 578.611239 33.943624 
Q 578.444037 33.813578 577.998165 33.757844 
Q 577.552294 33.70211 577.347936 33.683532 
Q 577.143578 33.664954 576.567661 33.683532 
Q 575.991743 33.70211 575.768807 33.70211 
Q 573.725229 33.70211 572.238991 35.578486 
Q 570.752752 37.454862 570.752752 39.609908 
Q 570.752752 42.619541 572.684862 44.570229 
Q 574.616972 46.520917 577.663761 46.520917 
Q 579.818807 46.818165 581.342202 44.29156 
" clip-path="url(#pc7e2a01137)" style="fill: none; stroke: #000000; stroke-linejoin: miter"/>
   </g>
  </g>
  <g id="axes_37">
   <g id="patch_32">
    <path d="M 594.899007 39.568966 
Q 593.549379 38.181848 591.3 38.444276 
Q 588.450786 38.444276 587.288607 39.793903 
Q 586.126428 41.143531 586.126428 44.067724 
Q 586.126428 45.56731 587.419821 46.279614 
Q 588.713214 46.991917 590.287779 46.991917 
Q 591.599917 46.991917 592.612138 45.736014 
Q 593.624359 44.48011 594.205448 42.30571 
Q 594.786538 40.13131 595.161434 37.938166 
Q 595.536331 35.745021 595.68629 33.045766 
Q 595.836248 30.34651 595.873738 28.978138 
Q 595.911228 27.609766 595.911228 26.185159 
Q 595.68629 26.260138 595.68629 29.896634 
L 595.68629 44.292662 
L 596.473572 48.229076 
" clip-path="url(#p799761e492)" style="fill: none; stroke: #000000; stroke-linejoin: miter"/>
   </g>
  </g>
 </g>
 <defs>
  <clipPath id="pd41ce2677d">
   <rect x="0" y="10.936525" width="16.2" height="49.766949"/>
  </clipPath>
  <clipPath id="pb53c5dfadf">
   <rect x="16.2" y="10.777356" width="16.2" height="50.085288"/>
  </clipPath>
  <clipPath id="pd1278f2937">
   <rect x="33.451945" y="8.64" width="14.09611" height="54.36"/>
  </clipPath>
  <clipPath id="p2cbad21366">
   <rect x="65.402069" y="8.64" width="14.995862" height="54.36"/>
  </clipPath>
  <clipPath id="p64622c84c7">
   <rect x="82.764248" y="8.64" width="12.671503" height="54.36"/>
  </clipPath>
  <clipPath id="p2f41de7393">
   <rect x="98.589352" y="8.64" width="13.421297" height="54.36"/>
  </clipPath>
  <clipPath id="p1bdcd2eaa8">
   <rect x="114.002069" y="8.64" width="14.995862" height="54.36"/>
  </clipPath>
  <clipPath id="p94da495d3e">
   <rect x="147.189352" y="8.64" width="13.421297" height="54.36"/>
  </clipPath>
  <clipPath id="p8d65fa7dde">
   <rect x="164.738979" y="8.64" width="10.722041" height="54.36"/>
  </clipPath>
  <clipPath id="pc40332ce08">
   <rect x="178.2" y="8.881927" width="16.2" height="53.876147"/>
  </clipPath>
  <clipPath id="p60942954ff">
   <rect x="212.382993" y="8.64" width="12.634014" height="54.36"/>
  </clipPath>
  <clipPath id="p7b6f9611a5">
   <rect x="232.406938" y="8.64" width="4.986124" height="54.36"/>
  </clipPath>
  <clipPath id="p1a73db2df6">
   <rect x="244.051945" y="8.64" width="14.09611" height="54.36"/>
  </clipPath>
  <clipPath id="p067e591d49">
   <rect x="259.2" y="8.881927" width="16.2" height="53.876147"/>
  </clipPath>
  <clipPath id="paefdd40bbc">
   <rect x="292.989352" y="8.64" width="13.421297" height="54.36"/>
  </clipPath>
  <clipPath id="p9b0e41910b">
   <rect x="307.8" y="10.777356" width="16.2" height="50.085288"/>
  </clipPath>
  <clipPath id="p95a5ec3a21">
   <rect x="325.558055" y="8.64" width="13.08389" height="54.36"/>
  </clipPath>
  <clipPath id="p2b80846cb6">
   <rect x="346.031876" y="8.64" width="4.536248" height="54.36"/>
  </clipPath>
  <clipPath id="pa20fd83d43">
   <rect x="356.4" y="8.881927" width="16.2" height="53.876147"/>
  </clipPath>
  <clipPath id="p21717a0790">
   <rect x="388.8" y="10.777356" width="16.2" height="50.085288"/>
  </clipPath>
  <clipPath id="pcf233bb100">
   <rect x="406.764248" y="8.64" width="12.671503" height="54.36"/>
  </clipPath>
  <clipPath id="pec004d92ce">
   <rect x="422.251945" y="8.64" width="14.09611" height="54.36"/>
  </clipPath>
  <clipPath id="p15132b0547">
   <rect x="454.483241" y="8.64" width="14.433517" height="54.36"/>
  </clipPath>
  <clipPath id="pa2290f1f49">
   <rect x="472.538979" y="8.64" width="10.722041" height="54.36"/>
  </clipPath>
  <clipPath id="p0878187251">
   <rect x="486.602069" y="8.64" width="14.995862" height="54.36"/>
  </clipPath>
  <clipPath id="pbd8c9595ce">
   <rect x="502.2" y="11.850612" width="16.2" height="47.938776"/>
  </clipPath>
  <clipPath id="p2d57cf2c7c">
   <rect x="518.4" y="8.881927" width="16.2" height="53.876147"/>
  </clipPath>
  <clipPath id="p3662de4668">
   <rect x="534.6" y="8.881927" width="16.2" height="53.876147"/>
  </clipPath>
  <clipPath id="p0066fa2dd6">
   <rect x="551.851945" y="8.64" width="14.09611" height="54.36"/>
  </clipPath>
  <clipPath id="pc7e2a01137">
   <rect x="567" y="8.881927" width="16.2" height="53.876147"/>
  </clipPath>
  <clipPath id="p799761e492">
   <rect x="584.251945" y="8.64" width="14.09611" height="54.36"/>
  </clipPath>
 </defs>
</svg>
