<?xml version="1.0" encoding="utf-8" standalone="no"?>
<!DOCTYPE svg PUBLIC "-//W3C//DTD SVG 1.1//EN"
  "http://www.w3.org/Graphics/SVG/1.1/DTD/svg11.dtd">
<svg xmlns:xlink="http://www.w3.org/1999/xlink" width="774pt" height="72pt" viewBox="0 0 774 72" xmlns="http://www.w3.org/2000/svg" version="1.1">
 <metadata>
  <rdf:RDF xmlns:dc="http://purl.org/dc/elements/1.1/" xmlns:cc="http://creativecommons.org/ns#" xmlns:rdf="http://www.w3.org/1999/02/22-rdf-syntax-ns#">
   <cc:Work>
    <dc:type rdf:resource="http://purl.org/dc/dcmitype/StillImage"/>
    <dc:date>2024-01-04T18:41:34.930293</dc:date>
    <dc:format>image/svg+xml</dc:format>
    <dc:creator>
     <cc:Agent>
      <dc:title>Matplotlib v3.7.1, https://matplotlib.org/</dc:title>
     </cc:Agent>
    </dc:creator>
   </cc:Work>
  </rdf:RDF>
 </metadata>
 <defs>
  <style type="text/css">*{stroke-linejoin: round; stroke-linecap: butt}</style>
 </defs>
 <g id="figure_1">
  <g id="patch_1">
   <path d="M 0 72 
L 774 72 
L 774 0 
L 0 0 
z
" style="fill: #8fff9f"/>
  </g>
  <g id="axes_1">
   <g id="patch_2">
    <path d="M 3.320069 39.868883 
L 3.320069 39.419007 
Q 3.320069 37.769462 5.063338 36.682262 
Q 6.806607 35.595062 8.493641 35.595062 
Q 10.705531 35.595062 12.073903 36.794731 
Q 13.442276 37.9944 13.442276 40.20629 
Q 13.442276 42.30571 11.624028 43.336676 
Q 9.805779 44.367641 7.59389 44.367641 
Q 6.919076 44.367641 6.412966 44.255172 
Q 5.906855 44.142703 5.288276 43.917766 
Q 4.669697 43.692828 4.219821 43.580359 
L 3.095131 42.568138 
M 2.757724 36.832221 
Q 3.2076 38.444276 3.470028 40.262524 
Q 3.732455 42.080772 3.78869 43.749062 
Q 3.844924 45.417352 3.882414 47.27309 
Q 3.919903 49.128828 3.882414 50.778372 
L 3.769945 57.863917 
" clip-path="url(#p9b36687cf9)" style="fill: none; stroke: #000000; stroke-linejoin: miter"/>
   </g>
  </g>
  <g id="axes_2">
   <g id="patch_3">
    <path d="M 20.813462 32.783338 
Q 21.338317 34.507862 21.469531 36.457324 
Q 21.600745 38.406786 21.525766 40.956083 
Q 21.450786 43.505379 21.488276 44.705048 
L 21.600745 46.054676 
L 21.600745 45.829738 
Q 21.600745 44.667559 21.319572 42.30571 
Q 21.0384 39.943862 21.0384 38.744193 
Q 21.0384 36.419834 22.050621 34.882759 
Q 23.062841 33.345683 25.087283 33.345683 
Q 25.799586 33.345683 26.136993 33.626855 
Q 26.4744 33.908028 26.736828 34.432883 
Q 26.999255 34.957738 27.336662 35.257655 
L 27.786538 36.832221 
" clip-path="url(#p2efa8b8ec0)" style="fill: none; stroke: #000000; stroke-linejoin: miter"/>
   </g>
  </g>
  <g id="axes_3">
   <g id="patch_4">
    <path d="M 34.257798 38.160826 
Q 37.230275 39.535596 41.949083 39.721376 
Q 43.472477 39.721376 44.159862 38.550963 
Q 44.847248 37.38055 44.847248 35.82 
Q 44.847248 35.299817 44.754358 34.909679 
Q 44.661468 34.519541 44.419954 34.296606 
Q 44.17844 34.07367 44.011239 33.943624 
Q 43.844037 33.813578 43.398165 33.757844 
Q 42.952294 33.70211 42.747936 33.683532 
Q 42.543578 33.664954 41.967661 33.683532 
Q 41.391743 33.70211 41.168807 33.70211 
Q 39.125229 33.70211 37.638991 35.578486 
Q 36.152752 37.454862 36.152752 39.609908 
Q 36.152752 42.619541 38.084862 44.570229 
Q 40.016972 46.520917 43.063761 46.520917 
Q 45.218807 46.818165 46.742202 44.29156 
" clip-path="url(#p621b78dd80)" style="fill: none; stroke: #000000; stroke-linejoin: miter"/>
   </g>
  </g>
  <g id="axes_4">
   <g id="patch_5">
    <path d="M 51.863834 37.95691 
L 52.538648 37.95691 
Q 53.250952 37.95691 54.038234 37.881931 
Q 54.825517 37.806952 55.781503 37.675738 
Q 56.73749 37.544524 57.262345 37.507034 
L 61.536166 35.82 
M 57.487283 30.42149 
L 57.487283 31.43371 
Q 57.487283 33.383172 56.812469 37.207117 
Q 56.137655 41.031062 56.137655 43.018014 
Q 56.137655 43.805297 56.137655 44.105214 
Q 56.137655 44.405131 56.231379 45.042455 
Q 56.325103 45.679779 56.512552 45.960952 
Q 56.7 46.242124 57.093641 46.485807 
Q 57.487283 46.72949 58.049628 46.72949 
Q 58.162097 46.692 58.480759 46.72949 
Q 58.799421 46.766979 58.986869 46.710745 
Q 59.174317 46.65451 59.174317 46.392083 
" clip-path="url(#p614673d3f1)" style="fill: none; stroke: #000000; stroke-linejoin: miter"/>
   </g>
  </g>
  <g id="axes_5">
   <g id="patch_6">
    <path d="M 68.063834 37.95691 
L 68.738648 37.95691 
Q 69.450952 37.95691 70.238234 37.881931 
Q 71.025517 37.806952 71.981503 37.675738 
Q 72.93749 37.544524 73.462345 37.507034 
L 77.736166 35.82 
M 73.687283 30.42149 
L 73.687283 31.43371 
Q 73.687283 33.383172 73.012469 37.207117 
Q 72.337655 41.031062 72.337655 43.018014 
Q 72.337655 43.805297 72.337655 44.105214 
Q 72.337655 44.405131 72.431379 45.042455 
Q 72.525103 45.679779 72.712552 45.960952 
Q 72.9 46.242124 73.293641 46.485807 
Q 73.687283 46.72949 74.249628 46.72949 
Q 74.362097 46.692 74.680759 46.72949 
Q 74.999421 46.766979 75.186869 46.710745 
Q 75.374317 46.65451 75.374317 46.392083 
" clip-path="url(#p7bb6762fcb)" style="fill: none; stroke: #000000; stroke-linejoin: miter"/>
   </g>
  </g>
  <g id="axes_6">
   <g id="patch_7">
    <path d="M 83.963917 36.382345 
Q 83.926428 36.494814 84.057641 36.701007 
Q 84.188855 36.9072 84.076386 37.057159 
L 84.076386 39.306538 
Q 84.076386 40.506207 84.413793 41.724621 
Q 84.7512 42.943034 85.613462 43.93651 
Q 86.475724 44.929986 87.675393 44.929986 
Q 88.912552 44.929986 89.587366 43.861531 
Q 90.262179 42.793076 90.712055 41.143531 
Q 91.161931 39.493986 91.499338 38.969131 
L 92.286621 36.382345 
L 92.061683 42.680607 
L 92.061683 45.154924 
Q 92.061683 47.066897 92.792731 51.00331 
Q 93.523779 54.939724 93.523779 56.964166 
Q 94.273572 59.213545 93.186372 60.188276 
Q 92.099172 61.163007 90.037241 60.78811 
Q 88.237738 60.488193 87.319241 60.169531 
Q 86.400745 59.850869 84.413793 58.988607 
L 84.301324 58.426262 
" clip-path="url(#p9fa7b05926)" style="fill: none; stroke: #000000; stroke-linejoin: miter"/>
   </g>
  </g>
  <g id="axes_7"/>
  <g id="axes_8">
   <g id="patch_8">
    <path d="M 121.106359 28.621986 
Q 121.331297 30.34651 121.406276 32.146014 
Q 121.481255 33.945517 121.46251 36.551048 
Q 121.443766 39.156579 121.443766 40.093821 
Q 121.443766 40.13131 121.668703 45.829738 
L 121.893641 46.841959 
" clip-path="url(#p89fc6c2b11)" style="fill: none; stroke: #000000; stroke-linejoin: miter"/>
   </g>
  </g>
  <g id="axes_9">
   <g id="patch_9">
    <path d="M 143.243923 36.441748 
Q 142.034968 35.094627 138.062687 35.094627 
Q 136.542857 35.094627 135.765672 35.146439 
Q 134.988486 35.198252 133.98678 35.440043 
Q 132.985075 35.681834 132.501493 36.182687 
Q 132.01791 36.683539 131.672495 37.616162 
Q 131.327079 38.548785 131.327079 39.964989 
Q 131.327079 42.037484 132.743284 43.280981 
Q 134.159488 44.524478 136.093817 44.524478 
Q 138.753518 44.524478 141.516844 38.721493 
Q 142.863966 35.854542 142.863966 35.82 
Q 143.209382 35.578209 143.243923 36.441748 
Q 143.243923 37.512537 143.658422 40.362217 
Q 144.072921 43.211898 144.072921 44.524478 
" clip-path="url(#p462ab91c33)" style="fill: none; stroke: #000000; stroke-linejoin: miter"/>
   </g>
  </g>
  <g id="axes_10">
   <g id="patch_10">
    <path d="M 157.499007 39.568966 
Q 156.149379 38.181848 153.9 38.444276 
Q 151.050786 38.444276 149.888607 39.793903 
Q 148.726428 41.143531 148.726428 44.067724 
Q 148.726428 45.56731 150.019821 46.279614 
Q 151.313214 46.991917 152.887779 46.991917 
Q 154.199917 46.991917 155.212138 45.736014 
Q 156.224359 44.48011 156.805448 42.30571 
Q 157.386538 40.13131 157.761434 37.938166 
Q 158.136331 35.745021 158.28629 33.045766 
Q 158.436248 30.34651 158.473738 28.978138 
Q 158.511228 27.609766 158.511228 26.185159 
Q 158.28629 26.260138 158.28629 29.896634 
L 158.28629 44.292662 
L 159.073572 48.229076 
" clip-path="url(#pc9a49c1fac)" style="fill: none; stroke: #000000; stroke-linejoin: miter"/>
   </g>
  </g>
  <g id="axes_11">
   <g id="patch_11">
    <path d="M 164.963917 36.382345 
Q 164.926428 36.494814 165.057641 36.701007 
Q 165.188855 36.9072 165.076386 37.057159 
L 165.076386 39.306538 
Q 165.076386 40.506207 165.413793 41.724621 
Q 165.7512 42.943034 166.613462 43.93651 
Q 167.475724 44.929986 168.675393 44.929986 
Q 169.912552 44.929986 170.587366 43.861531 
Q 171.262179 42.793076 171.712055 41.143531 
Q 172.161931 39.493986 172.499338 38.969131 
L 173.286621 36.382345 
L 173.061683 42.680607 
L 173.061683 45.154924 
Q 173.061683 47.066897 173.792731 51.00331 
Q 174.523779 54.939724 174.523779 56.964166 
Q 175.273572 59.213545 174.186372 60.188276 
Q 173.099172 61.163007 171.037241 60.78811 
Q 169.237738 60.488193 168.319241 60.169531 
Q 167.400745 59.850869 165.413793 58.988607 
L 165.301324 58.426262 
" clip-path="url(#p62bf320fb3)" style="fill: none; stroke: #000000; stroke-linejoin: miter"/>
   </g>
  </g>
  <g id="axes_12"/>
  <g id="axes_13">
   <g id="patch_12">
    <path d="M 199.013462 32.783338 
Q 199.538317 34.507862 199.669531 36.457324 
Q 199.800745 38.406786 199.725766 40.956083 
Q 199.650786 43.505379 199.688276 44.705048 
L 199.800745 46.054676 
L 199.800745 45.829738 
Q 199.800745 44.667559 199.519572 42.30571 
Q 199.2384 39.943862 199.2384 38.744193 
Q 199.2384 36.419834 200.250621 34.882759 
Q 201.262841 33.345683 203.287283 33.345683 
Q 203.999586 33.345683 204.336993 33.626855 
Q 204.6744 33.908028 204.936828 34.432883 
Q 205.199255 34.957738 205.536662 35.257655 
L 205.986538 36.832221 
" clip-path="url(#p1d64894f6a)" style="fill: none; stroke: #000000; stroke-linejoin: miter"/>
   </g>
  </g>
  <g id="axes_14">
   <g id="patch_13">
    <path d="M 212.457798 38.160826 
Q 215.430275 39.535596 220.149083 39.721376 
Q 221.672477 39.721376 222.359862 38.550963 
Q 223.047248 37.38055 223.047248 35.82 
Q 223.047248 35.299817 222.954358 34.909679 
Q 222.861468 34.519541 222.619954 34.296606 
Q 222.37844 34.07367 222.211239 33.943624 
Q 222.044037 33.813578 221.598165 33.757844 
Q 221.152294 33.70211 220.947936 33.683532 
Q 220.743578 33.664954 220.167661 33.683532 
Q 219.591743 33.70211 219.368807 33.70211 
Q 217.325229 33.70211 215.838991 35.578486 
Q 214.352752 37.454862 214.352752 39.609908 
Q 214.352752 42.619541 216.284862 44.570229 
Q 218.216972 46.520917 221.263761 46.520917 
Q 223.418807 46.818165 224.942202 44.29156 
" clip-path="url(#p1c82be7f42)" style="fill: none; stroke: #000000; stroke-linejoin: miter"/>
   </g>
  </g>
  <g id="axes_15">
   <g id="patch_14">
    <path d="M 230.120069 39.868883 
L 230.120069 39.419007 
Q 230.120069 37.769462 231.863338 36.682262 
Q 233.606607 35.595062 235.293641 35.595062 
Q 237.505531 35.595062 238.873903 36.794731 
Q 240.242276 37.9944 240.242276 40.20629 
Q 240.242276 42.30571 238.424028 43.336676 
Q 236.605779 44.367641 234.39389 44.367641 
Q 233.719076 44.367641 233.212966 44.255172 
Q 232.706855 44.142703 232.088276 43.917766 
Q 231.469697 43.692828 231.019821 43.580359 
L 229.895131 42.568138 
M 229.557724 36.832221 
Q 230.0076 38.444276 230.270028 40.262524 
Q 230.532455 42.080772 230.58869 43.749062 
Q 230.644924 45.417352 230.682414 47.27309 
Q 230.719903 49.128828 230.682414 50.778372 
L 230.569945 57.863917 
" clip-path="url(#p0b61fd61c5)" style="fill: none; stroke: #000000; stroke-linejoin: miter"/>
   </g>
  </g>
  <g id="axes_16">
   <g id="patch_15">
    <path d="M 250.706359 28.621986 
Q 250.931297 30.34651 251.006276 32.146014 
Q 251.081255 33.945517 251.06251 36.551048 
Q 251.043766 39.156579 251.043766 40.093821 
Q 251.043766 40.13131 251.268703 45.829738 
L 251.493641 46.841959 
" clip-path="url(#pe45ad9a48a)" style="fill: none; stroke: #000000; stroke-linejoin: miter"/>
   </g>
  </g>
  <g id="axes_17">
   <g id="patch_16">
    <path d="M 267.918579 29.071862 
Q 267.543683 29.146841 267.412469 29.577972 
Q 267.281255 30.009103 267.356234 30.42149 
Q 267.356234 30.571448 267.393724 30.702662 
Q 267.431214 30.833876 267.487448 30.89011 
Q 267.543683 30.946345 267.599917 31.040069 
Q 267.656152 31.133793 267.693641 31.208772 
L 267.80611 29.859145 
M 267.80611 34.020497 
Q 266.906359 39.006621 266.681421 42.793076 
L 267.131297 45.379862 
L 267.468703 46.054676 
" clip-path="url(#p9d14b1089c)" style="fill: none; stroke: #000000; stroke-linejoin: miter"/>
   </g>
  </g>
  <g id="axes_18">
   <g id="patch_17">
    <path d="M 277.257798 38.160826 
Q 280.230275 39.535596 284.949083 39.721376 
Q 286.472477 39.721376 287.159862 38.550963 
Q 287.847248 37.38055 287.847248 35.82 
Q 287.847248 35.299817 287.754358 34.909679 
Q 287.661468 34.519541 287.419954 34.296606 
Q 287.17844 34.07367 287.011239 33.943624 
Q 286.844037 33.813578 286.398165 33.757844 
Q 285.952294 33.70211 285.747936 33.683532 
Q 285.543578 33.664954 284.967661 33.683532 
Q 284.391743 33.70211 284.168807 33.70211 
Q 282.125229 33.70211 280.638991 35.578486 
Q 279.152752 37.454862 279.152752 39.609908 
Q 279.152752 42.619541 281.084862 44.570229 
Q 283.016972 46.520917 286.063761 46.520917 
Q 288.218807 46.818165 289.742202 44.29156 
" clip-path="url(#p544d8d9925)" style="fill: none; stroke: #000000; stroke-linejoin: miter"/>
   </g>
  </g>
  <g id="axes_19">
   <g id="patch_18">
    <path d="M 303.299007 39.568966 
Q 301.949379 38.181848 299.7 38.444276 
Q 296.850786 38.444276 295.688607 39.793903 
Q 294.526428 41.143531 294.526428 44.067724 
Q 294.526428 45.56731 295.819821 46.279614 
Q 297.113214 46.991917 298.687779 46.991917 
Q 299.999917 46.991917 301.012138 45.736014 
Q 302.024359 44.48011 302.605448 42.30571 
Q 303.186538 40.13131 303.561434 37.938166 
Q 303.936331 35.745021 304.08629 33.045766 
Q 304.236248 30.34651 304.273738 28.978138 
Q 304.311228 27.609766 304.311228 26.185159 
Q 304.08629 26.260138 304.08629 29.896634 
L 304.08629 44.292662 
L 304.873572 48.229076 
" clip-path="url(#p83e55b668c)" style="fill: none; stroke: #000000; stroke-linejoin: miter"/>
   </g>
  </g>
  <g id="axes_20">
   <g id="patch_19">
    <path d="M 315.187697 39.981352 
Q 316.199917 40.956083 316.537324 42.905545 
Q 316.724772 43.955255 316.312386 46.167145 
L 315.075228 47.629241 
" clip-path="url(#pdbc2b6b0c8)" style="fill: none; stroke: #000000; stroke-linejoin: miter"/>
   </g>
  </g>
  <g id="axes_21"/>
  <g id="axes_22">
   <g id="patch_20">
    <path d="M 348.824855 27.009931 
Q 348.899834 27.347338 348.974814 28.265834 
Q 349.049793 29.184331 349.199752 29.634207 
L 349.124772 31.058814 
M 347.475228 27.309848 
Q 347.437738 27.309848 347.400248 27.534786 
Q 347.437738 27.684745 347.550207 28.828179 
Q 347.662676 29.971614 347.925103 30.533959 
" clip-path="url(#pfa67e66105)" style="fill: none; stroke: #000000; stroke-linejoin: miter"/>
   </g>
  </g>
  <g id="axes_23">
   <g id="patch_21">
    <path d="M 357.714935 43.209935 
L 371.285065 43.209935 
M 359.056169 30.007987 
L 369.943831 29.929091 
M 363.947727 30.323571 
L 363.947727 30.718052 
Q 363.947727 32.243377 364.039773 33.99224 
Q 364.131818 35.741104 364.28961 37.910747 
Q 364.447403 40.08039 364.5 41.211234 
L 364.657792 43.025844 
" clip-path="url(#pc25f17174a)" style="fill: none; stroke: #000000; stroke-linejoin: miter"/>
   </g>
  </g>
  <g id="axes_24"/>
  <g id="axes_25">
   <g id="patch_22">
    <path d="M 390.516102 36.437797 
L 391.751695 44.778051 
Q 391.854661 45.567458 391.854661 45.60178 
Q 391.854661 45.704746 392.163559 45.704746 
Q 393.02161 45.704746 393.742373 44.778051 
Q 394.463136 43.851356 394.875 42.718729 
Q 395.286864 41.586102 395.801695 40.659407 
Q 396.316525 39.732712 396.797034 39.732712 
Q 397.414831 39.732712 398.049788 40.607924 
Q 398.684746 41.483136 399.148093 42.512797 
Q 399.611441 43.542458 400.28072 44.417669 
Q 400.95 45.292881 401.636441 45.292881 
Q 401.911017 43.782712 402.340042 39.69839 
Q 402.769068 35.614068 403.283898 33.554746 
" clip-path="url(#p37011927a3)" style="fill: none; stroke: #000000; stroke-linejoin: miter"/>
   </g>
  </g>
  <g id="axes_26">
   <g id="patch_23">
    <path d="M 418.643923 36.441748 
Q 417.434968 35.094627 413.462687 35.094627 
Q 411.942857 35.094627 411.165672 35.146439 
Q 410.388486 35.198252 409.38678 35.440043 
Q 408.385075 35.681834 407.901493 36.182687 
Q 407.41791 36.683539 407.072495 37.616162 
Q 406.727079 38.548785 406.727079 39.964989 
Q 406.727079 42.037484 408.143284 43.280981 
Q 409.559488 44.524478 411.493817 44.524478 
Q 414.153518 44.524478 416.916844 38.721493 
Q 418.263966 35.854542 418.263966 35.82 
Q 418.609382 35.578209 418.643923 36.441748 
Q 418.643923 37.512537 419.058422 40.362217 
Q 419.472921 43.211898 419.472921 44.524478 
" clip-path="url(#p3c16155461)" style="fill: none; stroke: #000000; stroke-linejoin: miter"/>
   </g>
  </g>
  <g id="axes_27">
   <g id="patch_24">
    <path d="M 424.857476 43.917766 
Q 425.157393 44.180193 426.169614 45.154924 
Q 427.181834 46.129655 427.744179 46.560786 
Q 428.306524 46.991917 429.33749 47.385559 
Q 430.368455 47.7792 431.380676 47.629241 
Q 432.05549 47.629241 432.52411 47.404303 
Q 432.992731 47.179366 433.217669 46.879448 
Q 433.442607 46.579531 433.573821 45.979697 
Q 433.705034 45.379862 433.723779 44.967476 
Q 433.742524 44.55509 433.742524 43.805297 
Q 433.742524 42.718097 432.842772 42.043283 
Q 431.943021 41.368469 430.649628 41.031062 
Q 429.356234 40.693655 428.062841 40.300014 
Q 426.769448 39.906372 425.869697 38.987876 
Q 424.969945 38.069379 424.969945 36.607283 
Q 424.969945 36.082428 425.138648 35.726276 
Q 425.307352 35.370124 425.700993 35.145186 
Q 426.094634 34.920248 426.375807 34.807779 
Q 426.656979 34.69531 427.313048 34.639076 
Q 427.969117 34.582841 428.156566 34.582841 
Q 428.344014 34.582841 429.018828 34.582841 
Q 430.218497 34.582841 430.799586 34.995228 
Q 431.380676 35.407614 431.699338 36.026193 
Q 432.018 36.644772 432.280428 36.832221 
" clip-path="url(#p5365957822)" style="fill: none; stroke: #000000; stroke-linejoin: miter"/>
   </g>
  </g>
  <g id="axes_28"/>
  <g id="axes_29">
   <g id="patch_25">
    <path d="M 457.238731 37.282097 
L 457.238731 37.844441 
Q 457.501159 39.868883 457.538648 41.312234 
Q 457.576138 42.755586 457.482414 44.667559 
Q 457.38869 46.579531 457.38869 48.191586 
L 457.463669 39.643945 
Q 457.463669 38.144359 459.056979 37.507034 
Q 460.65029 36.86971 462.074897 37.282097 
Q 463.986869 37.844441 464.905366 39.04411 
Q 465.823862 40.243779 465.880097 41.668386 
Q 465.936331 43.092993 465.973821 44.817517 
Q 466.01131 46.542041 466.161269 48.191586 
" clip-path="url(#p0d6da9f377)" style="fill: none; stroke: #000000; stroke-linejoin: miter"/>
   </g>
  </g>
  <g id="axes_30">
   <g id="patch_26">
    <path d="M 481.1616 35.032717 
Q 480.11189 34.582841 479.137159 34.69531 
Q 476.100497 35.032717 474.188524 36.701007 
Q 472.276552 38.369297 472.276552 41.330979 
Q 472.276552 43.917766 474.282248 45.6048 
Q 476.287945 47.291834 478.912221 47.291834 
Q 481.274069 47.291834 482.398759 45.361117 
Q 483.523448 43.4304 483.523448 40.881103 
Q 483.523448 39.643945 483.111062 38.706703 
Q 482.698676 37.769462 482.173821 37.300841 
Q 481.648966 36.832221 480.899172 36.119917 
Q 480.149379 35.407614 479.699503 34.69531 
L 478.462345 34.245434 
" clip-path="url(#p7bd0ca0154)" style="fill: none; stroke: #000000; stroke-linejoin: miter"/>
   </g>
  </g>
  <g id="axes_31">
   <g id="patch_27">
    <path d="M 489.263834 37.95691 
L 489.938648 37.95691 
Q 490.650952 37.95691 491.438234 37.881931 
Q 492.225517 37.806952 493.181503 37.675738 
Q 494.13749 37.544524 494.662345 37.507034 
L 498.936166 35.82 
M 494.887283 30.42149 
L 494.887283 31.43371 
Q 494.887283 33.383172 494.212469 37.207117 
Q 493.537655 41.031062 493.537655 43.018014 
Q 493.537655 43.805297 493.537655 44.105214 
Q 493.537655 44.405131 493.631379 45.042455 
Q 493.725103 45.679779 493.912552 45.960952 
Q 494.1 46.242124 494.493641 46.485807 
Q 494.887283 46.72949 495.449628 46.72949 
Q 495.562097 46.692 495.880759 46.72949 
Q 496.199421 46.766979 496.386869 46.710745 
Q 496.574317 46.65451 496.574317 46.392083 
" clip-path="url(#p9c252e605f)" style="fill: none; stroke: #000000; stroke-linejoin: miter"/>
   </g>
  </g>
  <g id="axes_32"/>
  <g id="axes_33">
   <g id="patch_28">
    <path d="M 520.257798 38.160826 
Q 523.230275 39.535596 527.949083 39.721376 
Q 529.472477 39.721376 530.159862 38.550963 
Q 530.847248 37.38055 530.847248 35.82 
Q 530.847248 35.299817 530.754358 34.909679 
Q 530.661468 34.519541 530.419954 34.296606 
Q 530.17844 34.07367 530.011239 33.943624 
Q 529.844037 33.813578 529.398165 33.757844 
Q 528.952294 33.70211 528.747936 33.683532 
Q 528.543578 33.664954 527.967661 33.683532 
Q 527.391743 33.70211 527.168807 33.70211 
Q 525.125229 33.70211 523.638991 35.578486 
Q 522.152752 37.454862 522.152752 39.609908 
Q 522.152752 42.619541 524.084862 44.570229 
Q 526.016972 46.520917 529.063761 46.520917 
Q 531.218807 46.818165 532.742202 44.29156 
" clip-path="url(#pe7b77217ed)" style="fill: none; stroke: #000000; stroke-linejoin: miter"/>
   </g>
  </g>
  <g id="axes_34">
   <g id="patch_29">
    <path d="M 546.299007 34.920248 
Q 545.436745 36.007448 542.325103 40.018841 
Q 539.213462 44.030234 537.526428 46.054676 
M 538.426179 36.044938 
Q 540.300662 37.319586 542.793724 40.843614 
Q 545.286786 44.367641 546.861352 45.6048 
L 547.873572 45.942207 
" clip-path="url(#pf8fd55e7df)" style="fill: none; stroke: #000000; stroke-linejoin: miter"/>
   </g>
  </g>
  <g id="axes_35">
   <g id="patch_30">
    <path d="M 554.120069 39.868883 
L 554.120069 39.419007 
Q 554.120069 37.769462 555.863338 36.682262 
Q 557.606607 35.595062 559.293641 35.595062 
Q 561.505531 35.595062 562.873903 36.794731 
Q 564.242276 37.9944 564.242276 40.20629 
Q 564.242276 42.30571 562.424028 43.336676 
Q 560.605779 44.367641 558.39389 44.367641 
Q 557.719076 44.367641 557.212966 44.255172 
Q 556.706855 44.142703 556.088276 43.917766 
Q 555.469697 43.692828 555.019821 43.580359 
L 553.895131 42.568138 
M 553.557724 36.832221 
Q 554.0076 38.444276 554.270028 40.262524 
Q 554.532455 42.080772 554.58869 43.749062 
Q 554.644924 45.417352 554.682414 47.27309 
Q 554.719903 49.128828 554.682414 50.778372 
L 554.569945 57.863917 
" clip-path="url(#p1794839bac)" style="fill: none; stroke: #000000; stroke-linejoin: miter"/>
   </g>
  </g>
  <g id="axes_36">
   <g id="patch_31">
    <path d="M 568.857798 38.160826 
Q 571.830275 39.535596 576.549083 39.721376 
Q 578.072477 39.721376 578.759862 38.550963 
Q 579.447248 37.38055 579.447248 35.82 
Q 579.447248 35.299817 579.354358 34.909679 
Q 579.261468 34.519541 579.019954 34.296606 
Q 578.77844 34.07367 578.611239 33.943624 
Q 578.444037 33.813578 577.998165 33.757844 
Q 577.552294 33.70211 577.347936 33.683532 
Q 577.143578 33.664954 576.567661 33.683532 
Q 575.991743 33.70211 575.768807 33.70211 
Q 573.725229 33.70211 572.238991 35.578486 
Q 570.752752 37.454862 570.752752 39.609908 
Q 570.752752 42.619541 572.684862 44.570229 
Q 574.616972 46.520917 577.663761 46.520917 
Q 579.818807 46.818165 581.342202 44.29156 
" clip-path="url(#p963dd96f7a)" style="fill: none; stroke: #000000; stroke-linejoin: miter"/>
   </g>
  </g>
  <g id="axes_37">
   <g id="patch_32">
    <path d="M 596.556735 34.365306 
Q 596.556735 34.365306 596.060816 34.365306 
Q 595.267347 34.365306 593.779592 34.067755 
Q 592.291837 33.770204 591.498367 33.770204 
Q 588.721224 33.770204 586.787143 35.224898 
Q 584.853061 36.679592 584.853061 39.423673 
Q 584.853061 40.94449 586.340816 42.399184 
Q 587.828571 43.853878 589.762653 44.663878 
Q 591.696735 45.473878 593.18449 45.473878 
Q 594.110204 45.473878 594.80449 45.110204 
Q 595.498776 44.746531 596.242653 44.118367 
Q 596.986531 43.490204 597.548571 43.192653 
L 597.746939 42.696735 
" clip-path="url(#pd171087c57)" style="fill: none; stroke: #000000; stroke-linejoin: miter"/>
   </g>
  </g>
  <g id="axes_38">
   <g id="patch_33">
    <path d="M 602.663834 37.95691 
L 603.338648 37.95691 
Q 604.050952 37.95691 604.838234 37.881931 
Q 605.625517 37.806952 606.581503 37.675738 
Q 607.53749 37.544524 608.062345 37.507034 
L 612.336166 35.82 
M 608.287283 30.42149 
L 608.287283 31.43371 
Q 608.287283 33.383172 607.612469 37.207117 
Q 606.937655 41.031062 606.937655 43.018014 
Q 606.937655 43.805297 606.937655 44.105214 
Q 606.937655 44.405131 607.031379 45.042455 
Q 607.125103 45.679779 607.312552 45.960952 
Q 607.5 46.242124 607.893641 46.485807 
Q 608.287283 46.72949 608.849628 46.72949 
Q 608.962097 46.692 609.280759 46.72949 
Q 609.599421 46.766979 609.786869 46.710745 
Q 609.974317 46.65451 609.974317 46.392083 
" clip-path="url(#pa60415f0ce)" style="fill: none; stroke: #000000; stroke-linejoin: miter"/>
   </g>
  </g>
  <g id="axes_39">
   <g id="patch_34">
    <path d="M 624.318579 29.071862 
Q 623.943683 29.146841 623.812469 29.577972 
Q 623.681255 30.009103 623.756234 30.42149 
Q 623.756234 30.571448 623.793724 30.702662 
Q 623.831214 30.833876 623.887448 30.89011 
Q 623.943683 30.946345 623.999917 31.040069 
Q 624.056152 31.133793 624.093641 31.208772 
L 624.20611 29.859145 
M 624.20611 34.020497 
Q 623.306359 39.006621 623.081421 42.793076 
L 623.531297 45.379862 
L 623.868703 46.054676 
" clip-path="url(#pc9b58818f9)" style="fill: none; stroke: #000000; stroke-linejoin: miter"/>
   </g>
  </g>
  <g id="axes_40">
   <g id="patch_35">
    <path d="M 635.438731 37.282097 
L 635.438731 37.844441 
Q 635.701159 39.868883 635.738648 41.312234 
Q 635.776138 42.755586 635.682414 44.667559 
Q 635.58869 46.579531 635.58869 48.191586 
L 635.663669 39.643945 
Q 635.663669 38.144359 637.256979 37.507034 
Q 638.85029 36.86971 640.274897 37.282097 
Q 642.186869 37.844441 643.105366 39.04411 
Q 644.023862 40.243779 644.080097 41.668386 
Q 644.136331 43.092993 644.173821 44.817517 
Q 644.21131 46.542041 644.361269 48.191586 
" clip-path="url(#p637719d67e)" style="fill: none; stroke: #000000; stroke-linejoin: miter"/>
   </g>
  </g>
  <g id="axes_41">
   <g id="patch_36">
    <path d="M 660.887191 39.096404 
Q 660.63236 39.023596 659.66764 38.623146 
Q 658.702921 38.222697 658.04764 38.077079 
Q 657.39236 37.931461 656.737079 38.00427 
Q 654.115955 38.00427 652.477753 40.388764 
Q 650.839551 42.773258 650.839551 45.430787 
Q 650.839551 47.068989 656.081798 47.068989 
Q 657.647191 47.068989 658.975955 45.558202 
Q 660.304719 44.047416 660.978202 42.172584 
Q 661.651685 40.297753 661.651685 38.768764 
Q 661.651685 37.27618 661.615281 36.984944 
L 661.542472 38.077079 
Q 661.542472 38.550337 661.542472 38.987191 
Q 661.578876 40.188539 661.779101 42.281798 
Q 661.979326 44.375056 662.143146 46.049663 
Q 662.306966 47.72427 662.343371 49.872135 
Q 662.379775 52.02 662.215955 53.658202 
Q 662.052135 55.296404 661.487865 56.971011 
Q 660.923596 58.645618 659.995281 59.737753 
Q 659.066966 60.829888 657.465169 61.521573 
Q 655.863371 62.213258 653.715506 62.213258 
Q 652.077303 62.213258 650.985169 61.466966 
Q 649.893034 60.720674 649.893034 59.155281 
Q 649.820225 58.936854 649.856629 58.936854 
Q 649.893034 58.936854 650.002247 58.936854 
Q 650.111461 58.936854 650.111461 58.82764 
" clip-path="url(#p1b07225e7a)" style="fill: none; stroke: #000000; stroke-linejoin: miter"/>
   </g>
  </g>
  <g id="axes_42"/>
  <g id="axes_43">
   <g id="patch_37">
    <path d="M 694.043923 36.441748 
Q 692.834968 35.094627 688.862687 35.094627 
Q 687.342857 35.094627 686.565672 35.146439 
Q 685.788486 35.198252 684.78678 35.440043 
Q 683.785075 35.681834 683.301493 36.182687 
Q 682.81791 36.683539 682.472495 37.616162 
Q 682.127079 38.548785 682.127079 39.964989 
Q 682.127079 42.037484 683.543284 43.280981 
Q 684.959488 44.524478 686.893817 44.524478 
Q 689.553518 44.524478 692.316844 38.721493 
Q 693.663966 35.854542 693.663966 35.82 
Q 694.009382 35.578209 694.043923 36.441748 
Q 694.043923 37.512537 694.458422 40.362217 
Q 694.872921 43.211898 694.872921 44.524478 
" clip-path="url(#p10cc875f87)" style="fill: none; stroke: #000000; stroke-linejoin: miter"/>
   </g>
  </g>
 </g>
 <defs>
  <clipPath id="p9b36687cf9">
   <rect x="0.883241" y="8.64" width="14.433517" height="54.36"/>
  </clipPath>
  <clipPath id="p2efa8b8ec0">
   <rect x="18.938979" y="8.64" width="10.722041" height="54.36"/>
  </clipPath>
  <clipPath id="p621b78dd80">
   <rect x="32.4" y="8.881927" width="16.2" height="53.876147"/>
  </clipPath>
  <clipPath id="p614673d3f1">
   <rect x="49.989352" y="8.64" width="13.421297" height="54.36"/>
  </clipPath>
  <clipPath id="p7bb6762fcb">
   <rect x="66.189352" y="8.64" width="13.421297" height="54.36"/>
  </clipPath>
  <clipPath id="p9fa7b05926">
   <rect x="82.051945" y="8.64" width="14.09611" height="54.36"/>
  </clipPath>
  <clipPath id="p89fc6c2b11">
   <rect x="119.231876" y="8.64" width="4.536248" height="54.36"/>
  </clipPath>
  <clipPath id="p462ab91c33">
   <rect x="129.6" y="10.777356" width="16.2" height="50.085288"/>
  </clipPath>
  <clipPath id="pc9a49c1fac">
   <rect x="146.851945" y="8.64" width="14.09611" height="54.36"/>
  </clipPath>
  <clipPath id="p62bf320fb3">
   <rect x="163.051945" y="8.64" width="14.09611" height="54.36"/>
  </clipPath>
  <clipPath id="p1d64894f6a">
   <rect x="197.138979" y="8.64" width="10.722041" height="54.36"/>
  </clipPath>
  <clipPath id="p1c82be7f42">
   <rect x="210.6" y="8.881927" width="16.2" height="53.876147"/>
  </clipPath>
  <clipPath id="p0b61fd61c5">
   <rect x="227.683241" y="8.64" width="14.433517" height="54.36"/>
  </clipPath>
  <clipPath id="pe45ad9a48a">
   <rect x="248.831876" y="8.64" width="4.536248" height="54.36"/>
  </clipPath>
  <clipPath id="p9d14b1089c">
   <rect x="264.806938" y="8.64" width="4.986124" height="54.36"/>
  </clipPath>
  <clipPath id="p544d8d9925">
   <rect x="275.4" y="8.881927" width="16.2" height="53.876147"/>
  </clipPath>
  <clipPath id="p83e55b668c">
   <rect x="292.651945" y="8.64" width="14.09611" height="54.36"/>
  </clipPath>
  <clipPath id="pdbc2b6b0c8">
   <rect x="313.200745" y="8.64" width="5.39851" height="54.36"/>
  </clipPath>
  <clipPath id="pfa67e66105">
   <rect x="345.525766" y="8.64" width="5.548469" height="54.36"/>
  </clipPath>
  <clipPath id="pc25f17174a">
   <rect x="356.4" y="16.753442" width="16.2" height="38.133117"/>
  </clipPath>
  <clipPath id="p37011927a3">
   <rect x="388.8" y="10.936525" width="16.2" height="49.766949"/>
  </clipPath>
  <clipPath id="p3c16155461">
   <rect x="405" y="10.777356" width="16.2" height="50.085288"/>
  </clipPath>
  <clipPath id="p5365957822">
   <rect x="422.982993" y="8.64" width="12.634014" height="54.36"/>
  </clipPath>
  <clipPath id="p0d6da9f377">
   <rect x="455.364248" y="8.64" width="12.671503" height="54.36"/>
  </clipPath>
  <clipPath id="p7bd0ca0154">
   <rect x="470.402069" y="8.64" width="14.995862" height="54.36"/>
  </clipPath>
  <clipPath id="p9c252e605f">
   <rect x="487.389352" y="8.64" width="13.421297" height="54.36"/>
  </clipPath>
  <clipPath id="pe7b77217ed">
   <rect x="518.4" y="8.881927" width="16.2" height="53.876147"/>
  </clipPath>
  <clipPath id="pf8fd55e7df">
   <rect x="535.651945" y="8.64" width="14.09611" height="54.36"/>
  </clipPath>
  <clipPath id="p1794839bac">
   <rect x="551.683241" y="8.64" width="14.433517" height="54.36"/>
  </clipPath>
  <clipPath id="p963dd96f7a">
   <rect x="567" y="8.881927" width="16.2" height="53.876147"/>
  </clipPath>
  <clipPath id="pd171087c57">
   <rect x="583.2" y="11.850612" width="16.2" height="47.938776"/>
  </clipPath>
  <clipPath id="pa60415f0ce">
   <rect x="600.789352" y="8.64" width="13.421297" height="54.36"/>
  </clipPath>
  <clipPath id="pc9b58818f9">
   <rect x="621.206938" y="8.64" width="4.986124" height="54.36"/>
  </clipPath>
  <clipPath id="p637719d67e">
   <rect x="633.564248" y="8.64" width="12.671503" height="54.36"/>
  </clipPath>
  <clipPath id="p1b07225e7a">
   <rect x="648" y="9.426742" width="16.2" height="52.786517"/>
  </clipPath>
  <clipPath id="p10cc875f87">
   <rect x="680.4" y="10.777356" width="16.2" height="50.085288"/>
  </clipPath>
 </defs>
</svg>
