<?xml version="1.0" encoding="utf-8" standalone="no"?>
<!DOCTYPE svg PUBLIC "-//W3C//DTD SVG 1.1//EN"
  "http://www.w3.org/Graphics/SVG/1.1/DTD/svg11.dtd">
<svg xmlns:xlink="http://www.w3.org/1999/xlink" width="774pt" height="72pt" viewBox="0 0 774 72" xmlns="http://www.w3.org/2000/svg" version="1.1">
 <metadata>
  <rdf:RDF xmlns:dc="http://purl.org/dc/elements/1.1/" xmlns:cc="http://creativecommons.org/ns#" xmlns:rdf="http://www.w3.org/1999/02/22-rdf-syntax-ns#">
   <cc:Work>
    <dc:type rdf:resource="http://purl.org/dc/dcmitype/StillImage"/>
    <dc:date>2024-01-04T18:41:36.188468</dc:date>
    <dc:format>image/svg+xml</dc:format>
    <dc:creator>
     <cc:Agent>
      <dc:title>Matplotlib v3.7.1, https://matplotlib.org/</dc:title>
     </cc:Agent>
    </dc:creator>
   </cc:Work>
  </rdf:RDF>
 </metadata>
 <defs>
  <style type="text/css">*{stroke-linejoin: round; stroke-linecap: butt}</style>
 </defs>
 <g id="figure_1">
  <g id="patch_1">
   <path d="M 0 72 
L 774 72 
L 774 0 
L 0 0 
z
" style="fill: #8fff9f"/>
  </g>
  <g id="axes_1">
   <g id="patch_2">
    <path d="M 12.887191 39.096404 
Q 12.63236 39.023596 11.66764 38.623146 
Q 10.702921 38.222697 10.04764 38.077079 
Q 9.39236 37.931461 8.737079 38.00427 
Q 6.115955 38.00427 4.477753 40.388764 
Q 2.839551 42.773258 2.839551 45.430787 
Q 2.839551 47.068989 8.081798 47.068989 
Q 9.647191 47.068989 10.975955 45.558202 
Q 12.304719 44.047416 12.978202 42.172584 
Q 13.651685 40.297753 13.651685 38.768764 
Q 13.651685 37.27618 13.615281 36.984944 
L 13.542472 38.077079 
Q 13.542472 38.550337 13.542472 38.987191 
Q 13.578876 40.188539 13.779101 42.281798 
Q 13.979326 44.375056 14.143146 46.049663 
Q 14.306966 47.72427 14.343371 49.872135 
Q 14.379775 52.02 14.215955 53.658202 
Q 14.052135 55.296404 13.487865 56.971011 
Q 12.923596 58.645618 11.995281 59.737753 
Q 11.066966 60.829888 9.465169 61.521573 
Q 7.863371 62.213258 5.715506 62.213258 
Q 4.077303 62.213258 2.985169 61.466966 
Q 1.893034 60.720674 1.893034 59.155281 
Q 1.820225 58.936854 1.856629 58.936854 
Q 1.893034 58.936854 2.002247 58.936854 
Q 2.111461 58.936854 2.111461 58.82764 
" clip-path="url(#p97a53183f0)" style="fill: none; stroke: #000000; stroke-linejoin: miter"/>
   </g>
  </g>
  <g id="axes_2">
   <g id="patch_3">
    <path d="M 19.688772 35.145186 
Q 19.688772 35.145186 19.688772 35.595062 
Q 19.688772 36.269876 19.576303 37.619503 
Q 19.463834 38.969131 19.463834 39.643945 
Q 19.463834 41.930814 20.700993 43.599103 
Q 21.938152 45.267393 24.075062 45.267393 
Q 25.462179 45.154924 26.230717 43.917766 
Q 26.999255 42.680607 27.149214 41.237255 
Q 27.299172 39.793903 27.5616 37.9944 
Q 27.824028 36.194897 28.236414 35.370124 
Q 28.386372 35.070207 28.386372 35.670041 
Q 28.386372 36.269876 28.123945 38.706703 
Q 27.899007 41.031062 27.899007 41.555917 
Q 27.749048 42.643117 28.086455 43.767807 
Q 28.423862 44.892497 29.136166 45.6048 
" clip-path="url(#pca43b71a6b)" style="fill: none; stroke: #000000; stroke-linejoin: miter"/>
   </g>
  </g>
  <g id="axes_3">
   <g id="patch_4">
    <path d="M 34.257798 38.160826 
Q 37.230275 39.535596 41.949083 39.721376 
Q 43.472477 39.721376 44.159862 38.550963 
Q 44.847248 37.38055 44.847248 35.82 
Q 44.847248 35.299817 44.754358 34.909679 
Q 44.661468 34.519541 44.419954 34.296606 
Q 44.17844 34.07367 44.011239 33.943624 
Q 43.844037 33.813578 43.398165 33.757844 
Q 42.952294 33.70211 42.747936 33.683532 
Q 42.543578 33.664954 41.967661 33.683532 
Q 41.391743 33.70211 41.168807 33.70211 
Q 39.125229 33.70211 37.638991 35.578486 
Q 36.152752 37.454862 36.152752 39.609908 
Q 36.152752 42.619541 38.084862 44.570229 
Q 40.016972 46.520917 43.063761 46.520917 
Q 45.218807 46.818165 46.742202 44.29156 
" clip-path="url(#pe574a41f09)" style="fill: none; stroke: #000000; stroke-linejoin: miter"/>
   </g>
  </g>
  <g id="axes_4">
   <g id="patch_5">
    <path d="M 52.257476 43.917766 
Q 52.557393 44.180193 53.569614 45.154924 
Q 54.581834 46.129655 55.144179 46.560786 
Q 55.706524 46.991917 56.73749 47.385559 
Q 57.768455 47.7792 58.780676 47.629241 
Q 59.45549 47.629241 59.92411 47.404303 
Q 60.392731 47.179366 60.617669 46.879448 
Q 60.842607 46.579531 60.973821 45.979697 
Q 61.105034 45.379862 61.123779 44.967476 
Q 61.142524 44.55509 61.142524 43.805297 
Q 61.142524 42.718097 60.242772 42.043283 
Q 59.343021 41.368469 58.049628 41.031062 
Q 56.756234 40.693655 55.462841 40.300014 
Q 54.169448 39.906372 53.269697 38.987876 
Q 52.369945 38.069379 52.369945 36.607283 
Q 52.369945 36.082428 52.538648 35.726276 
Q 52.707352 35.370124 53.100993 35.145186 
Q 53.494634 34.920248 53.775807 34.807779 
Q 54.056979 34.69531 54.713048 34.639076 
Q 55.369117 34.582841 55.556566 34.582841 
Q 55.744014 34.582841 56.418828 34.582841 
Q 57.618497 34.582841 58.199586 34.995228 
Q 58.780676 35.407614 59.099338 36.026193 
Q 59.418 36.644772 59.680428 36.832221 
" clip-path="url(#pb869a565ba)" style="fill: none; stroke: #000000; stroke-linejoin: miter"/>
   </g>
  </g>
  <g id="axes_5">
   <g id="patch_6">
    <path d="M 68.063834 37.95691 
L 68.738648 37.95691 
Q 69.450952 37.95691 70.238234 37.881931 
Q 71.025517 37.806952 71.981503 37.675738 
Q 72.93749 37.544524 73.462345 37.507034 
L 77.736166 35.82 
M 73.687283 30.42149 
L 73.687283 31.43371 
Q 73.687283 33.383172 73.012469 37.207117 
Q 72.337655 41.031062 72.337655 43.018014 
Q 72.337655 43.805297 72.337655 44.105214 
Q 72.337655 44.405131 72.431379 45.042455 
Q 72.525103 45.679779 72.712552 45.960952 
Q 72.9 46.242124 73.293641 46.485807 
Q 73.687283 46.72949 74.249628 46.72949 
Q 74.362097 46.692 74.680759 46.72949 
Q 74.999421 46.766979 75.186869 46.710745 
Q 75.374317 46.65451 75.374317 46.392083 
" clip-path="url(#pca06c89622)" style="fill: none; stroke: #000000; stroke-linejoin: miter"/>
   </g>
  </g>
  <g id="axes_6"/>
  <g id="axes_7">
   <g id="patch_7">
    <path d="M 110.843923 36.441748 
Q 109.634968 35.094627 105.662687 35.094627 
Q 104.142857 35.094627 103.365672 35.146439 
Q 102.588486 35.198252 101.58678 35.440043 
Q 100.585075 35.681834 100.101493 36.182687 
Q 99.61791 36.683539 99.272495 37.616162 
Q 98.927079 38.548785 98.927079 39.964989 
Q 98.927079 42.037484 100.343284 43.280981 
Q 101.759488 44.524478 103.693817 44.524478 
Q 106.353518 44.524478 109.116844 38.721493 
Q 110.463966 35.854542 110.463966 35.82 
Q 110.809382 35.578209 110.843923 36.441748 
Q 110.843923 37.512537 111.258422 40.362217 
Q 111.672921 43.211898 111.672921 44.524478 
" clip-path="url(#pbcc23d4f27)" style="fill: none; stroke: #000000; stroke-linejoin: miter"/>
   </g>
  </g>
  <g id="axes_8">
   <g id="patch_8">
    <path d="M 116.663834 37.95691 
L 117.338648 37.95691 
Q 118.050952 37.95691 118.838234 37.881931 
Q 119.625517 37.806952 120.581503 37.675738 
Q 121.53749 37.544524 122.062345 37.507034 
L 126.336166 35.82 
M 122.287283 30.42149 
L 122.287283 31.43371 
Q 122.287283 33.383172 121.612469 37.207117 
Q 120.937655 41.031062 120.937655 43.018014 
Q 120.937655 43.805297 120.937655 44.105214 
Q 120.937655 44.405131 121.031379 45.042455 
Q 121.125103 45.679779 121.312552 45.960952 
Q 121.5 46.242124 121.893641 46.485807 
Q 122.287283 46.72949 122.849628 46.72949 
Q 122.962097 46.692 123.280759 46.72949 
Q 123.599421 46.766979 123.786869 46.710745 
Q 123.974317 46.65451 123.974317 46.392083 
" clip-path="url(#pc38be959e6)" style="fill: none; stroke: #000000; stroke-linejoin: miter"/>
   </g>
  </g>
  <g id="axes_9"/>
  <g id="axes_10">
   <g id="patch_9">
    <path d="M 149.063834 37.95691 
L 149.738648 37.95691 
Q 150.450952 37.95691 151.238234 37.881931 
Q 152.025517 37.806952 152.981503 37.675738 
Q 153.93749 37.544524 154.462345 37.507034 
L 158.736166 35.82 
M 154.687283 30.42149 
L 154.687283 31.43371 
Q 154.687283 33.383172 154.012469 37.207117 
Q 153.337655 41.031062 153.337655 43.018014 
Q 153.337655 43.805297 153.337655 44.105214 
Q 153.337655 44.405131 153.431379 45.042455 
Q 153.525103 45.679779 153.712552 45.960952 
Q 153.9 46.242124 154.293641 46.485807 
Q 154.687283 46.72949 155.249628 46.72949 
Q 155.362097 46.692 155.680759 46.72949 
Q 155.999421 46.766979 156.186869 46.710745 
Q 156.374317 46.65451 156.374317 46.392083 
" clip-path="url(#pb8719d6147)" style="fill: none; stroke: #000000; stroke-linejoin: miter"/>
   </g>
  </g>
  <g id="axes_11">
   <g id="patch_10">
    <path d="M 166.613462 35.932469 
Q 167.213297 35.257655 168.206772 34.826524 
Q 169.200248 34.395393 170.1 34.470372 
Q 170.737324 34.470372 171.22469 34.639076 
Q 171.712055 34.807779 172.030717 34.995228 
Q 172.349379 35.182676 172.574317 35.670041 
Q 172.799255 36.157407 172.911724 36.419834 
Q 173.024193 36.682262 173.080428 37.375821 
Q 173.136662 38.069379 173.155407 38.331807 
Q 173.174152 38.594234 173.155407 39.419007 
Q 173.136662 40.243779 173.136662 40.431228 
Q 173.136662 41.368469 172.967959 43.242952 
Q 172.799255 45.117434 172.799255 46.054676 
Q 172.799255 46.467062 172.85549 46.823214 
Q 172.911724 47.179366 173.005448 47.610497 
Q 173.099172 48.041628 173.136662 48.304055 
L 173.586538 48.528993 
M 167.063338 23.111007 
Q 167.288276 24.798041 167.288276 29.971614 
L 167.288276 42.3432 
L 166.950869 46.841959 
L 166.725931 47.74171 
" clip-path="url(#p6eaae290fe)" style="fill: none; stroke: #000000; stroke-linejoin: miter"/>
   </g>
  </g>
  <g id="axes_12">
   <g id="patch_11">
    <path d="M 186.918579 29.071862 
Q 186.543683 29.146841 186.412469 29.577972 
Q 186.281255 30.009103 186.356234 30.42149 
Q 186.356234 30.571448 186.393724 30.702662 
Q 186.431214 30.833876 186.487448 30.89011 
Q 186.543683 30.946345 186.599917 31.040069 
Q 186.656152 31.133793 186.693641 31.208772 
L 186.80611 29.859145 
M 186.80611 34.020497 
Q 185.906359 39.006621 185.681421 42.793076 
L 186.131297 45.379862 
L 186.468703 46.054676 
" clip-path="url(#pd50215ad7a)" style="fill: none; stroke: #000000; stroke-linejoin: miter"/>
   </g>
  </g>
  <g id="axes_13">
   <g id="patch_12">
    <path d="M 198.057476 43.917766 
Q 198.357393 44.180193 199.369614 45.154924 
Q 200.381834 46.129655 200.944179 46.560786 
Q 201.506524 46.991917 202.53749 47.385559 
Q 203.568455 47.7792 204.580676 47.629241 
Q 205.25549 47.629241 205.72411 47.404303 
Q 206.192731 47.179366 206.417669 46.879448 
Q 206.642607 46.579531 206.773821 45.979697 
Q 206.905034 45.379862 206.923779 44.967476 
Q 206.942524 44.55509 206.942524 43.805297 
Q 206.942524 42.718097 206.042772 42.043283 
Q 205.143021 41.368469 203.849628 41.031062 
Q 202.556234 40.693655 201.262841 40.300014 
Q 199.969448 39.906372 199.069697 38.987876 
Q 198.169945 38.069379 198.169945 36.607283 
Q 198.169945 36.082428 198.338648 35.726276 
Q 198.507352 35.370124 198.900993 35.145186 
Q 199.294634 34.920248 199.575807 34.807779 
Q 199.856979 34.69531 200.513048 34.639076 
Q 201.169117 34.582841 201.356566 34.582841 
Q 201.544014 34.582841 202.218828 34.582841 
Q 203.418497 34.582841 203.999586 34.995228 
Q 204.580676 35.407614 204.899338 36.026193 
Q 205.218 36.644772 205.480428 36.832221 
" clip-path="url(#p2d2e42ecd0)" style="fill: none; stroke: #000000; stroke-linejoin: miter"/>
   </g>
  </g>
  <g id="axes_14"/>
  <g id="axes_15">
   <g id="patch_13">
    <path d="M 231.413462 35.932469 
Q 232.013297 35.257655 233.006772 34.826524 
Q 234.000248 34.395393 234.9 34.470372 
Q 235.537324 34.470372 236.02469 34.639076 
Q 236.512055 34.807779 236.830717 34.995228 
Q 237.149379 35.182676 237.374317 35.670041 
Q 237.599255 36.157407 237.711724 36.419834 
Q 237.824193 36.682262 237.880428 37.375821 
Q 237.936662 38.069379 237.955407 38.331807 
Q 237.974152 38.594234 237.955407 39.419007 
Q 237.936662 40.243779 237.936662 40.431228 
Q 237.936662 41.368469 237.767959 43.242952 
Q 237.599255 45.117434 237.599255 46.054676 
Q 237.599255 46.467062 237.65549 46.823214 
Q 237.711724 47.179366 237.805448 47.610497 
Q 237.899172 48.041628 237.936662 48.304055 
L 238.386538 48.528993 
M 231.863338 23.111007 
Q 232.088276 24.798041 232.088276 29.971614 
L 232.088276 42.3432 
L 231.750869 46.841959 
L 231.525931 47.74171 
" clip-path="url(#p9d701a716d)" style="fill: none; stroke: #000000; stroke-linejoin: miter"/>
   </g>
  </g>
  <g id="axes_16">
   <g id="patch_14">
    <path d="M 254.3616 35.032717 
Q 253.31189 34.582841 252.337159 34.69531 
Q 249.300497 35.032717 247.388524 36.701007 
Q 245.476552 38.369297 245.476552 41.330979 
Q 245.476552 43.917766 247.482248 45.6048 
Q 249.487945 47.291834 252.112221 47.291834 
Q 254.474069 47.291834 255.598759 45.361117 
Q 256.723448 43.4304 256.723448 40.881103 
Q 256.723448 39.643945 256.311062 38.706703 
Q 255.898676 37.769462 255.373821 37.300841 
Q 254.848966 36.832221 254.099172 36.119917 
Q 253.349379 35.407614 252.899503 34.69531 
L 251.662345 34.245434 
" clip-path="url(#pc84e9dd185)" style="fill: none; stroke: #000000; stroke-linejoin: miter"/>
   </g>
  </g>
  <g id="axes_17">
   <g id="patch_15">
    <path d="M 262.688772 35.145186 
Q 262.688772 35.145186 262.688772 35.595062 
Q 262.688772 36.269876 262.576303 37.619503 
Q 262.463834 38.969131 262.463834 39.643945 
Q 262.463834 41.930814 263.700993 43.599103 
Q 264.938152 45.267393 267.075062 45.267393 
Q 268.462179 45.154924 269.230717 43.917766 
Q 269.999255 42.680607 270.149214 41.237255 
Q 270.299172 39.793903 270.5616 37.9944 
Q 270.824028 36.194897 271.236414 35.370124 
Q 271.386372 35.070207 271.386372 35.670041 
Q 271.386372 36.269876 271.123945 38.706703 
Q 270.899007 41.031062 270.899007 41.555917 
Q 270.749048 42.643117 271.086455 43.767807 
Q 271.423862 44.892497 272.136166 45.6048 
" clip-path="url(#p5219e94f2d)" style="fill: none; stroke: #000000; stroke-linejoin: miter"/>
   </g>
  </g>
  <g id="axes_18">
   <g id="patch_16">
    <path d="M 280.013462 32.783338 
Q 280.538317 34.507862 280.669531 36.457324 
Q 280.800745 38.406786 280.725766 40.956083 
Q 280.650786 43.505379 280.688276 44.705048 
L 280.800745 46.054676 
L 280.800745 45.829738 
Q 280.800745 44.667559 280.519572 42.30571 
Q 280.2384 39.943862 280.2384 38.744193 
Q 280.2384 36.419834 281.250621 34.882759 
Q 282.262841 33.345683 284.287283 33.345683 
Q 284.999586 33.345683 285.336993 33.626855 
Q 285.6744 33.908028 285.936828 34.432883 
Q 286.199255 34.957738 286.536662 35.257655 
L 286.986538 36.832221 
" clip-path="url(#p8426e31eec)" style="fill: none; stroke: #000000; stroke-linejoin: miter"/>
   </g>
  </g>
  <g id="axes_19">
   <g id="patch_17">
    <path d="M 298.987697 39.981352 
Q 299.999917 40.956083 300.337324 42.905545 
Q 300.524772 43.955255 300.112386 46.167145 
L 298.875228 47.629241 
" clip-path="url(#p28165b7ecb)" style="fill: none; stroke: #000000; stroke-linejoin: miter"/>
   </g>
  </g>
  <g id="axes_20"/>
  <g id="axes_21">
   <g id="patch_18">
    <path d="M 331.706359 28.621986 
Q 331.931297 30.34651 332.006276 32.146014 
Q 332.081255 33.945517 332.06251 36.551048 
Q 332.043766 39.156579 332.043766 40.093821 
Q 332.043766 40.13131 332.268703 45.829738 
L 332.493641 46.841959 
" clip-path="url(#p3bdc4a88fa)" style="fill: none; stroke: #000000; stroke-linejoin: miter"/>
   </g>
  </g>
  <g id="axes_22">
   <g id="patch_19">
    <path d="M 342.057798 38.160826 
Q 345.030275 39.535596 349.749083 39.721376 
Q 351.272477 39.721376 351.959862 38.550963 
Q 352.647248 37.38055 352.647248 35.82 
Q 352.647248 35.299817 352.554358 34.909679 
Q 352.461468 34.519541 352.219954 34.296606 
Q 351.97844 34.07367 351.811239 33.943624 
Q 351.644037 33.813578 351.198165 33.757844 
Q 350.752294 33.70211 350.547936 33.683532 
Q 350.343578 33.664954 349.767661 33.683532 
Q 349.191743 33.70211 348.968807 33.70211 
Q 346.925229 33.70211 345.438991 35.578486 
Q 343.952752 37.454862 343.952752 39.609908 
Q 343.952752 42.619541 345.884862 44.570229 
Q 347.816972 46.520917 350.863761 46.520917 
Q 353.018807 46.818165 354.542202 44.29156 
" clip-path="url(#p4a9db2cb7b)" style="fill: none; stroke: #000000; stroke-linejoin: miter"/>
   </g>
  </g>
  <g id="axes_23">
   <g id="patch_20">
    <path d="M 359.663834 37.95691 
L 360.338648 37.95691 
Q 361.050952 37.95691 361.838234 37.881931 
Q 362.625517 37.806952 363.581503 37.675738 
Q 364.53749 37.544524 365.062345 37.507034 
L 369.336166 35.82 
M 365.287283 30.42149 
L 365.287283 31.43371 
Q 365.287283 33.383172 364.612469 37.207117 
Q 363.937655 41.031062 363.937655 43.018014 
Q 363.937655 43.805297 363.937655 44.105214 
Q 363.937655 44.405131 364.031379 45.042455 
Q 364.125103 45.679779 364.312552 45.960952 
Q 364.5 46.242124 364.893641 46.485807 
Q 365.287283 46.72949 365.849628 46.72949 
Q 365.962097 46.692 366.280759 46.72949 
Q 366.599421 46.766979 366.786869 46.710745 
Q 366.974317 46.65451 366.974317 46.392083 
" clip-path="url(#p8c08f4c00d)" style="fill: none; stroke: #000000; stroke-linejoin: miter"/>
   </g>
  </g>
  <g id="axes_24"/>
  <g id="axes_25">
   <g id="patch_21">
    <path d="M 402.443923 36.441748 
Q 401.234968 35.094627 397.262687 35.094627 
Q 395.742857 35.094627 394.965672 35.146439 
Q 394.188486 35.198252 393.18678 35.440043 
Q 392.185075 35.681834 391.701493 36.182687 
Q 391.21791 36.683539 390.872495 37.616162 
Q 390.527079 38.548785 390.527079 39.964989 
Q 390.527079 42.037484 391.943284 43.280981 
Q 393.359488 44.524478 395.293817 44.524478 
Q 397.953518 44.524478 400.716844 38.721493 
Q 402.063966 35.854542 402.063966 35.82 
Q 402.409382 35.578209 402.443923 36.441748 
Q 402.443923 37.512537 402.858422 40.362217 
Q 403.272921 43.211898 403.272921 44.524478 
" clip-path="url(#p021ed699d9)" style="fill: none; stroke: #000000; stroke-linejoin: miter"/>
   </g>
  </g>
  <g id="axes_26">
   <g id="patch_22">
    <path d="M 412.706359 28.621986 
Q 412.931297 30.34651 413.006276 32.146014 
Q 413.081255 33.945517 413.06251 36.551048 
Q 413.043766 39.156579 413.043766 40.093821 
Q 413.043766 40.13131 413.268703 45.829738 
L 413.493641 46.841959 
" clip-path="url(#p766d6eaa9a)" style="fill: none; stroke: #000000; stroke-linejoin: miter"/>
   </g>
  </g>
  <g id="axes_27">
   <g id="patch_23">
    <path d="M 432.5616 35.032717 
Q 431.51189 34.582841 430.537159 34.69531 
Q 427.500497 35.032717 425.588524 36.701007 
Q 423.676552 38.369297 423.676552 41.330979 
Q 423.676552 43.917766 425.682248 45.6048 
Q 427.687945 47.291834 430.312221 47.291834 
Q 432.674069 47.291834 433.798759 45.361117 
Q 434.923448 43.4304 434.923448 40.881103 
Q 434.923448 39.643945 434.511062 38.706703 
Q 434.098676 37.769462 433.573821 37.300841 
Q 433.048966 36.832221 432.299172 36.119917 
Q 431.549379 35.407614 431.099503 34.69531 
L 429.862345 34.245434 
" clip-path="url(#p4890cd1fd9)" style="fill: none; stroke: #000000; stroke-linejoin: miter"/>
   </g>
  </g>
  <g id="axes_28">
   <g id="patch_24">
    <path d="M 441.038731 37.282097 
L 441.038731 37.844441 
Q 441.301159 39.868883 441.338648 41.312234 
Q 441.376138 42.755586 441.282414 44.667559 
Q 441.18869 46.579531 441.18869 48.191586 
L 441.263669 39.643945 
Q 441.263669 38.144359 442.856979 37.507034 
Q 444.45029 36.86971 445.874897 37.282097 
Q 447.786869 37.844441 448.705366 39.04411 
Q 449.623862 40.243779 449.680097 41.668386 
Q 449.736331 43.092993 449.773821 44.817517 
Q 449.81131 46.542041 449.961269 48.191586 
" clip-path="url(#p540a34227a)" style="fill: none; stroke: #000000; stroke-linejoin: miter"/>
   </g>
  </g>
  <g id="axes_29">
   <g id="patch_25">
    <path d="M 455.457798 38.160826 
Q 458.430275 39.535596 463.149083 39.721376 
Q 464.672477 39.721376 465.359862 38.550963 
Q 466.047248 37.38055 466.047248 35.82 
Q 466.047248 35.299817 465.954358 34.909679 
Q 465.861468 34.519541 465.619954 34.296606 
Q 465.37844 34.07367 465.211239 33.943624 
Q 465.044037 33.813578 464.598165 33.757844 
Q 464.152294 33.70211 463.947936 33.683532 
Q 463.743578 33.664954 463.167661 33.683532 
Q 462.591743 33.70211 462.368807 33.70211 
Q 460.325229 33.70211 458.838991 35.578486 
Q 457.352752 37.454862 457.352752 39.609908 
Q 457.352752 42.619541 459.284862 44.570229 
Q 461.216972 46.520917 464.263761 46.520917 
Q 466.418807 46.818165 467.942202 44.29156 
" clip-path="url(#pc490632e3f)" style="fill: none; stroke: #000000; stroke-linejoin: miter"/>
   </g>
  </g>
  <g id="axes_30"/>
  <g id="axes_31">
   <g id="patch_26">
    <path d="M 497.3616 35.032717 
Q 496.31189 34.582841 495.337159 34.69531 
Q 492.300497 35.032717 490.388524 36.701007 
Q 488.476552 38.369297 488.476552 41.330979 
Q 488.476552 43.917766 490.482248 45.6048 
Q 492.487945 47.291834 495.112221 47.291834 
Q 497.474069 47.291834 498.598759 45.361117 
Q 499.723448 43.4304 499.723448 40.881103 
Q 499.723448 39.643945 499.311062 38.706703 
Q 498.898676 37.769462 498.373821 37.300841 
Q 497.848966 36.832221 497.099172 36.119917 
Q 496.349379 35.407614 495.899503 34.69531 
L 494.662345 34.245434 
" clip-path="url(#pd043011f14)" style="fill: none; stroke: #000000; stroke-linejoin: miter"/>
   </g>
  </g>
  <g id="axes_32">
   <g id="patch_27">
    <path d="M 505.838731 37.282097 
L 505.838731 37.844441 
Q 506.101159 39.868883 506.138648 41.312234 
Q 506.176138 42.755586 506.082414 44.667559 
Q 505.98869 46.579531 505.98869 48.191586 
L 506.063669 39.643945 
Q 506.063669 38.144359 507.656979 37.507034 
Q 509.25029 36.86971 510.674897 37.282097 
Q 512.586869 37.844441 513.505366 39.04411 
Q 514.423862 40.243779 514.480097 41.668386 
Q 514.536331 43.092993 514.573821 44.817517 
Q 514.61131 46.542041 514.761269 48.191586 
" clip-path="url(#pef168638d6)" style="fill: none; stroke: #000000; stroke-linejoin: miter"/>
   </g>
  </g>
  <g id="axes_33">
   <g id="patch_28">
    <path d="M 520.257798 38.160826 
Q 523.230275 39.535596 527.949083 39.721376 
Q 529.472477 39.721376 530.159862 38.550963 
Q 530.847248 37.38055 530.847248 35.82 
Q 530.847248 35.299817 530.754358 34.909679 
Q 530.661468 34.519541 530.419954 34.296606 
Q 530.17844 34.07367 530.011239 33.943624 
Q 529.844037 33.813578 529.398165 33.757844 
Q 528.952294 33.70211 528.747936 33.683532 
Q 528.543578 33.664954 527.967661 33.683532 
Q 527.391743 33.70211 527.168807 33.70211 
Q 525.125229 33.70211 523.638991 35.578486 
Q 522.152752 37.454862 522.152752 39.609908 
Q 522.152752 42.619541 524.084862 44.570229 
Q 526.016972 46.520917 529.063761 46.520917 
Q 531.218807 46.818165 532.742202 44.29156 
" clip-path="url(#p39726afa65)" style="fill: none; stroke: #000000; stroke-linejoin: miter"/>
   </g>
  </g>
  <g id="axes_34"/>
  <g id="axes_35">
   <g id="patch_29">
    <path d="M 562.1616 35.032717 
Q 561.11189 34.582841 560.137159 34.69531 
Q 557.100497 35.032717 555.188524 36.701007 
Q 553.276552 38.369297 553.276552 41.330979 
Q 553.276552 43.917766 555.282248 45.6048 
Q 557.287945 47.291834 559.912221 47.291834 
Q 562.274069 47.291834 563.398759 45.361117 
Q 564.523448 43.4304 564.523448 40.881103 
Q 564.523448 39.643945 564.111062 38.706703 
Q 563.698676 37.769462 563.173821 37.300841 
Q 562.648966 36.832221 561.899172 36.119917 
Q 561.149379 35.407614 560.699503 34.69531 
L 559.462345 34.245434 
" clip-path="url(#p8935cf44df)" style="fill: none; stroke: #000000; stroke-linejoin: miter"/>
   </g>
  </g>
  <g id="axes_36">
   <g id="patch_30">
    <path d="M 568.784141 38.85304 
L 569.212335 38.85304 
Q 570.03304 38.85304 570.996476 38.745991 
Q 571.959912 38.638943 573.119604 38.460529 
Q 574.279295 38.282115 574.885903 38.210749 
L 581.415859 35.427489 
M 581.094714 25.793128 
Q 580.809251 25.721762 579.774449 25.275727 
Q 578.739648 24.829692 578.097357 24.93674 
Q 577.455066 24.93674 576.937665 25.150837 
Q 576.420264 25.364934 576.081278 25.793128 
Q 575.742291 26.221322 575.47467 26.685198 
Q 575.207048 27.149075 575.064317 27.862731 
Q 574.921586 28.576388 574.814537 29.129471 
Q 574.707489 29.682555 574.689648 30.50326 
Q 574.671806 31.323965 574.653965 31.77 
Q 574.636123 32.216035 574.653965 32.965374 
Q 574.671806 33.714714 574.671806 33.928811 
Q 574.671806 36.605022 575.367621 41.850396 
Q 576.063436 47.095771 576.063436 49.771982 
Q 575.99207 50.057445 575.956388 50.681894 
Q 575.920705 51.306344 575.813656 51.805903 
Q 575.706608 52.305463 575.421145 52.555242 
" clip-path="url(#pee3d3e05b9)" style="fill: none; stroke: #000000; stroke-linejoin: miter"/>
   </g>
  </g>
  <g id="axes_37"/>
  <g id="axes_38">
   <g id="patch_31">
    <path d="M 613.043923 36.441748 
Q 611.834968 35.094627 607.862687 35.094627 
Q 606.342857 35.094627 605.565672 35.146439 
Q 604.788486 35.198252 603.78678 35.440043 
Q 602.785075 35.681834 602.301493 36.182687 
Q 601.81791 36.683539 601.472495 37.616162 
Q 601.127079 38.548785 601.127079 39.964989 
Q 601.127079 42.037484 602.543284 43.280981 
Q 603.959488 44.524478 605.893817 44.524478 
Q 608.553518 44.524478 611.316844 38.721493 
Q 612.663966 35.854542 612.663966 35.82 
Q 613.009382 35.578209 613.043923 36.441748 
Q 613.043923 37.512537 613.458422 40.362217 
Q 613.872921 43.211898 613.872921 44.524478 
" clip-path="url(#p0fa5268d37)" style="fill: none; stroke: #000000; stroke-linejoin: miter"/>
   </g>
  </g>
  <g id="axes_39"/>
  <g id="axes_40">
   <g id="patch_32">
    <path d="M 635.457476 43.917766 
Q 635.757393 44.180193 636.769614 45.154924 
Q 637.781834 46.129655 638.344179 46.560786 
Q 638.906524 46.991917 639.93749 47.385559 
Q 640.968455 47.7792 641.980676 47.629241 
Q 642.65549 47.629241 643.12411 47.404303 
Q 643.592731 47.179366 643.817669 46.879448 
Q 644.042607 46.579531 644.173821 45.979697 
Q 644.305034 45.379862 644.323779 44.967476 
Q 644.342524 44.55509 644.342524 43.805297 
Q 644.342524 42.718097 643.442772 42.043283 
Q 642.543021 41.368469 641.249628 41.031062 
Q 639.956234 40.693655 638.662841 40.300014 
Q 637.369448 39.906372 636.469697 38.987876 
Q 635.569945 38.069379 635.569945 36.607283 
Q 635.569945 36.082428 635.738648 35.726276 
Q 635.907352 35.370124 636.300993 35.145186 
Q 636.694634 34.920248 636.975807 34.807779 
Q 637.256979 34.69531 637.913048 34.639076 
Q 638.569117 34.582841 638.756566 34.582841 
Q 638.944014 34.582841 639.618828 34.582841 
Q 640.818497 34.582841 641.399586 34.995228 
Q 641.980676 35.407614 642.299338 36.026193 
Q 642.618 36.644772 642.880428 36.832221 
" clip-path="url(#p57fcdfbad1)" style="fill: none; stroke: #000000; stroke-linejoin: miter"/>
   </g>
  </g>
  <g id="axes_41">
   <g id="patch_33">
    <path d="M 649.857798 38.160826 
Q 652.830275 39.535596 657.549083 39.721376 
Q 659.072477 39.721376 659.759862 38.550963 
Q 660.447248 37.38055 660.447248 35.82 
Q 660.447248 35.299817 660.354358 34.909679 
Q 660.261468 34.519541 660.019954 34.296606 
Q 659.77844 34.07367 659.611239 33.943624 
Q 659.444037 33.813578 658.998165 33.757844 
Q 658.552294 33.70211 658.347936 33.683532 
Q 658.143578 33.664954 657.567661 33.683532 
Q 656.991743 33.70211 656.768807 33.70211 
Q 654.725229 33.70211 653.238991 35.578486 
Q 651.752752 37.454862 651.752752 39.609908 
Q 651.752752 42.619541 653.684862 44.570229 
Q 655.616972 46.520917 658.663761 46.520917 
Q 660.818807 46.818165 662.342202 44.29156 
" clip-path="url(#p0e56298168)" style="fill: none; stroke: #000000; stroke-linejoin: miter"/>
   </g>
  </g>
  <g id="axes_42">
   <g id="patch_34">
    <path d="M 666.057798 38.160826 
Q 669.030275 39.535596 673.749083 39.721376 
Q 675.272477 39.721376 675.959862 38.550963 
Q 676.647248 37.38055 676.647248 35.82 
Q 676.647248 35.299817 676.554358 34.909679 
Q 676.461468 34.519541 676.219954 34.296606 
Q 675.97844 34.07367 675.811239 33.943624 
Q 675.644037 33.813578 675.198165 33.757844 
Q 674.752294 33.70211 674.547936 33.683532 
Q 674.343578 33.664954 673.767661 33.683532 
Q 673.191743 33.70211 672.968807 33.70211 
Q 670.925229 33.70211 669.438991 35.578486 
Q 667.952752 37.454862 667.952752 39.609908 
Q 667.952752 42.619541 669.884862 44.570229 
Q 671.816972 46.520917 674.863761 46.520917 
Q 677.018807 46.818165 678.542202 44.29156 
" clip-path="url(#p7edca2b297)" style="fill: none; stroke: #000000; stroke-linejoin: miter"/>
   </g>
  </g>
  <g id="axes_43">
   <g id="patch_35">
    <path d="M 686.194386 35.595062 
L 690.805614 35.707531 
" clip-path="url(#p5d85d452ce)" style="fill: none; stroke: #000000; stroke-linejoin: miter"/>
   </g>
  </g>
 </g>
 <defs>
  <clipPath id="p97a53183f0">
   <rect x="0" y="9.426742" width="16.2" height="52.786517"/>
  </clipPath>
  <clipPath id="pca43b71a6b">
   <rect x="17.589352" y="8.64" width="13.421297" height="54.36"/>
  </clipPath>
  <clipPath id="pe574a41f09">
   <rect x="32.4" y="8.881927" width="16.2" height="53.876147"/>
  </clipPath>
  <clipPath id="pb869a565ba">
   <rect x="50.382993" y="8.64" width="12.634014" height="54.36"/>
  </clipPath>
  <clipPath id="pca06c89622">
   <rect x="66.189352" y="8.64" width="13.421297" height="54.36"/>
  </clipPath>
  <clipPath id="pbcc23d4f27">
   <rect x="97.2" y="10.777356" width="16.2" height="50.085288"/>
  </clipPath>
  <clipPath id="pc38be959e6">
   <rect x="114.789352" y="8.64" width="13.421297" height="54.36"/>
  </clipPath>
  <clipPath id="pb8719d6147">
   <rect x="147.189352" y="8.64" width="13.421297" height="54.36"/>
  </clipPath>
  <clipPath id="p6eaae290fe">
   <rect x="164.738979" y="8.64" width="10.722041" height="54.36"/>
  </clipPath>
  <clipPath id="pd50215ad7a">
   <rect x="183.806938" y="8.64" width="4.986124" height="54.36"/>
  </clipPath>
  <clipPath id="p2d2e42ecd0">
   <rect x="196.182993" y="8.64" width="12.634014" height="54.36"/>
  </clipPath>
  <clipPath id="p9d701a716d">
   <rect x="229.538979" y="8.64" width="10.722041" height="54.36"/>
  </clipPath>
  <clipPath id="pc84e9dd185">
   <rect x="243.602069" y="8.64" width="14.995862" height="54.36"/>
  </clipPath>
  <clipPath id="p5219e94f2d">
   <rect x="260.589352" y="8.64" width="13.421297" height="54.36"/>
  </clipPath>
  <clipPath id="p8426e31eec">
   <rect x="278.138979" y="8.64" width="10.722041" height="54.36"/>
  </clipPath>
  <clipPath id="p28165b7ecb">
   <rect x="297.000745" y="8.64" width="5.39851" height="54.36"/>
  </clipPath>
  <clipPath id="p3bdc4a88fa">
   <rect x="329.831876" y="8.64" width="4.536248" height="54.36"/>
  </clipPath>
  <clipPath id="p4a9db2cb7b">
   <rect x="340.2" y="8.881927" width="16.2" height="53.876147"/>
  </clipPath>
  <clipPath id="p8c08f4c00d">
   <rect x="357.789352" y="8.64" width="13.421297" height="54.36"/>
  </clipPath>
  <clipPath id="p021ed699d9">
   <rect x="388.8" y="10.777356" width="16.2" height="50.085288"/>
  </clipPath>
  <clipPath id="p766d6eaa9a">
   <rect x="410.831876" y="8.64" width="4.536248" height="54.36"/>
  </clipPath>
  <clipPath id="p4890cd1fd9">
   <rect x="421.802069" y="8.64" width="14.995862" height="54.36"/>
  </clipPath>
  <clipPath id="p540a34227a">
   <rect x="439.164248" y="8.64" width="12.671503" height="54.36"/>
  </clipPath>
  <clipPath id="pc490632e3f">
   <rect x="453.6" y="8.881927" width="16.2" height="53.876147"/>
  </clipPath>
  <clipPath id="pd043011f14">
   <rect x="486.602069" y="8.64" width="14.995862" height="54.36"/>
  </clipPath>
  <clipPath id="pef168638d6">
   <rect x="503.964248" y="8.64" width="12.671503" height="54.36"/>
  </clipPath>
  <clipPath id="p39726afa65">
   <rect x="518.4" y="8.881927" width="16.2" height="53.876147"/>
  </clipPath>
  <clipPath id="p8935cf44df">
   <rect x="551.402069" y="8.64" width="14.995862" height="54.36"/>
  </clipPath>
  <clipPath id="pee3d3e05b9">
   <rect x="567" y="9.949956" width="16.2" height="51.740088"/>
  </clipPath>
  <clipPath id="p0fa5268d37">
   <rect x="599.4" y="10.777356" width="16.2" height="50.085288"/>
  </clipPath>
  <clipPath id="p57fcdfbad1">
   <rect x="633.582993" y="8.64" width="12.634014" height="54.36"/>
  </clipPath>
  <clipPath id="p0e56298168">
   <rect x="648" y="8.881927" width="16.2" height="53.876147"/>
  </clipPath>
  <clipPath id="p7edca2b297">
   <rect x="664.2" y="8.881927" width="16.2" height="53.876147"/>
  </clipPath>
  <clipPath id="p5d85d452ce">
   <rect x="684.319903" y="8.64" width="8.360193" height="54.36"/>
  </clipPath>
 </defs>
</svg>
