<?xml version="1.0" encoding="utf-8" standalone="no"?>
<!DOCTYPE svg PUBLIC "-//W3C//DTD SVG 1.1//EN"
  "http://www.w3.org/Graphics/SVG/1.1/DTD/svg11.dtd">
<svg xmlns:xlink="http://www.w3.org/1999/xlink" width="648pt" height="72pt" viewBox="0 0 648 72" xmlns="http://www.w3.org/2000/svg" version="1.1">
 <metadata>
  <rdf:RDF xmlns:dc="http://purl.org/dc/elements/1.1/" xmlns:cc="http://creativecommons.org/ns#" xmlns:rdf="http://www.w3.org/1999/02/22-rdf-syntax-ns#">
   <cc:Work>
    <dc:type rdf:resource="http://purl.org/dc/dcmitype/StillImage"/>
    <dc:date>2024-01-04T18:41:20.430758</dc:date>
    <dc:format>image/svg+xml</dc:format>
    <dc:creator>
     <cc:Agent>
      <dc:title>Matplotlib v3.7.1, https://matplotlib.org/</dc:title>
     </cc:Agent>
    </dc:creator>
   </cc:Work>
  </rdf:RDF>
 </metadata>
 <defs>
  <style type="text/css">*{stroke-linejoin: round; stroke-linecap: butt}</style>
 </defs>
 <g id="figure_1">
  <g id="patch_1">
   <path d="M 0 72 
L 648 72 
L 648 0 
L 0 0 
z
" style="fill: #8fff9f"/>
  </g>
  <g id="axes_1">
   <g id="patch_2">
    <path d="M 1.857798 38.160826 
Q 4.830275 39.535596 9.549083 39.721376 
Q 11.072477 39.721376 11.759862 38.550963 
Q 12.447248 37.38055 12.447248 35.82 
Q 12.447248 35.299817 12.354358 34.909679 
Q 12.261468 34.519541 12.019954 34.296606 
Q 11.77844 34.07367 11.611239 33.943624 
Q 11.444037 33.813578 10.998165 33.757844 
Q 10.552294 33.70211 10.347936 33.683532 
Q 10.143578 33.664954 9.567661 33.683532 
Q 8.991743 33.70211 8.768807 33.70211 
Q 6.725229 33.70211 5.238991 35.578486 
Q 3.752752 37.454862 3.752752 39.609908 
Q 3.752752 42.619541 5.684862 44.570229 
Q 7.616972 46.520917 10.663761 46.520917 
Q 12.818807 46.818165 14.342202 44.29156 
" clip-path="url(#p0013ea8f09)" style="fill: none; stroke: #000000; stroke-linejoin: miter"/>
   </g>
  </g>
  <g id="axes_2">
   <g id="patch_3">
    <path d="M 29.843923 36.441748 
Q 28.634968 35.094627 24.662687 35.094627 
Q 23.142857 35.094627 22.365672 35.146439 
Q 21.588486 35.198252 20.58678 35.440043 
Q 19.585075 35.681834 19.101493 36.182687 
Q 18.61791 36.683539 18.272495 37.616162 
Q 17.927079 38.548785 17.927079 39.964989 
Q 17.927079 42.037484 19.343284 43.280981 
Q 20.759488 44.524478 22.693817 44.524478 
Q 25.353518 44.524478 28.116844 38.721493 
Q 29.463966 35.854542 29.463966 35.82 
Q 29.809382 35.578209 29.843923 36.441748 
Q 29.843923 37.512537 30.258422 40.362217 
Q 30.672921 43.211898 30.672921 44.524478 
" clip-path="url(#p5800e74756)" style="fill: none; stroke: #000000; stroke-linejoin: miter"/>
   </g>
  </g>
  <g id="axes_3">
   <g id="patch_4">
    <path d="M 37.013462 32.783338 
Q 37.538317 34.507862 37.669531 36.457324 
Q 37.800745 38.406786 37.725766 40.956083 
Q 37.650786 43.505379 37.688276 44.705048 
L 37.800745 46.054676 
L 37.800745 45.829738 
Q 37.800745 44.667559 37.519572 42.30571 
Q 37.2384 39.943862 37.2384 38.744193 
Q 37.2384 36.419834 38.250621 34.882759 
Q 39.262841 33.345683 41.287283 33.345683 
Q 41.999586 33.345683 42.336993 33.626855 
Q 42.6744 33.908028 42.936828 34.432883 
Q 43.199255 34.957738 43.536662 35.257655 
L 43.986538 36.832221 
" clip-path="url(#pafcef4d2f9)" style="fill: none; stroke: #000000; stroke-linejoin: miter"/>
   </g>
  </g>
  <g id="axes_4">
   <g id="patch_5">
    <path d="M 52.257476 43.917766 
Q 52.557393 44.180193 53.569614 45.154924 
Q 54.581834 46.129655 55.144179 46.560786 
Q 55.706524 46.991917 56.73749 47.385559 
Q 57.768455 47.7792 58.780676 47.629241 
Q 59.45549 47.629241 59.92411 47.404303 
Q 60.392731 47.179366 60.617669 46.879448 
Q 60.842607 46.579531 60.973821 45.979697 
Q 61.105034 45.379862 61.123779 44.967476 
Q 61.142524 44.55509 61.142524 43.805297 
Q 61.142524 42.718097 60.242772 42.043283 
Q 59.343021 41.368469 58.049628 41.031062 
Q 56.756234 40.693655 55.462841 40.300014 
Q 54.169448 39.906372 53.269697 38.987876 
Q 52.369945 38.069379 52.369945 36.607283 
Q 52.369945 36.082428 52.538648 35.726276 
Q 52.707352 35.370124 53.100993 35.145186 
Q 53.494634 34.920248 53.775807 34.807779 
Q 54.056979 34.69531 54.713048 34.639076 
Q 55.369117 34.582841 55.556566 34.582841 
Q 55.744014 34.582841 56.418828 34.582841 
Q 57.618497 34.582841 58.199586 34.995228 
Q 58.780676 35.407614 59.099338 36.026193 
Q 59.418 36.644772 59.680428 36.832221 
" clip-path="url(#pda0fec7297)" style="fill: none; stroke: #000000; stroke-linejoin: miter"/>
   </g>
  </g>
  <g id="axes_5">
   <g id="patch_6">
    <path d="M 72.187697 39.981352 
Q 73.199917 40.956083 73.537324 42.905545 
Q 73.724772 43.955255 73.312386 46.167145 
L 72.075228 47.629241 
" clip-path="url(#pe5777bca22)" style="fill: none; stroke: #000000; stroke-linejoin: miter"/>
   </g>
  </g>
  <g id="axes_6"/>
  <g id="axes_7">
   <g id="patch_7">
    <path d="M 100.857476 43.917766 
Q 101.157393 44.180193 102.169614 45.154924 
Q 103.181834 46.129655 103.744179 46.560786 
Q 104.306524 46.991917 105.33749 47.385559 
Q 106.368455 47.7792 107.380676 47.629241 
Q 108.05549 47.629241 108.52411 47.404303 
Q 108.992731 47.179366 109.217669 46.879448 
Q 109.442607 46.579531 109.573821 45.979697 
Q 109.705034 45.379862 109.723779 44.967476 
Q 109.742524 44.55509 109.742524 43.805297 
Q 109.742524 42.718097 108.842772 42.043283 
Q 107.943021 41.368469 106.649628 41.031062 
Q 105.356234 40.693655 104.062841 40.300014 
Q 102.769448 39.906372 101.869697 38.987876 
Q 100.969945 38.069379 100.969945 36.607283 
Q 100.969945 36.082428 101.138648 35.726276 
Q 101.307352 35.370124 101.700993 35.145186 
Q 102.094634 34.920248 102.375807 34.807779 
Q 102.656979 34.69531 103.313048 34.639076 
Q 103.969117 34.582841 104.156566 34.582841 
Q 104.344014 34.582841 105.018828 34.582841 
Q 106.218497 34.582841 106.799586 34.995228 
Q 107.380676 35.407614 107.699338 36.026193 
Q 108.018 36.644772 108.280428 36.832221 
" clip-path="url(#p3a01943988)" style="fill: none; stroke: #000000; stroke-linejoin: miter"/>
   </g>
  </g>
  <g id="axes_8">
   <g id="patch_8">
    <path d="M 118.013462 35.932469 
Q 118.613297 35.257655 119.606772 34.826524 
Q 120.600248 34.395393 121.5 34.470372 
Q 122.137324 34.470372 122.62469 34.639076 
Q 123.112055 34.807779 123.430717 34.995228 
Q 123.749379 35.182676 123.974317 35.670041 
Q 124.199255 36.157407 124.311724 36.419834 
Q 124.424193 36.682262 124.480428 37.375821 
Q 124.536662 38.069379 124.555407 38.331807 
Q 124.574152 38.594234 124.555407 39.419007 
Q 124.536662 40.243779 124.536662 40.431228 
Q 124.536662 41.368469 124.367959 43.242952 
Q 124.199255 45.117434 124.199255 46.054676 
Q 124.199255 46.467062 124.25549 46.823214 
Q 124.311724 47.179366 124.405448 47.610497 
Q 124.499172 48.041628 124.536662 48.304055 
L 124.986538 48.528993 
M 118.463338 23.111007 
Q 118.688276 24.798041 118.688276 29.971614 
L 118.688276 42.3432 
L 118.350869 46.841959 
L 118.125931 47.74171 
" clip-path="url(#p3adb799360)" style="fill: none; stroke: #000000; stroke-linejoin: miter"/>
   </g>
  </g>
  <g id="axes_9">
   <g id="patch_9">
    <path d="M 131.457798 38.160826 
Q 134.430275 39.535596 139.149083 39.721376 
Q 140.672477 39.721376 141.359862 38.550963 
Q 142.047248 37.38055 142.047248 35.82 
Q 142.047248 35.299817 141.954358 34.909679 
Q 141.861468 34.519541 141.619954 34.296606 
Q 141.37844 34.07367 141.211239 33.943624 
Q 141.044037 33.813578 140.598165 33.757844 
Q 140.152294 33.70211 139.947936 33.683532 
Q 139.743578 33.664954 139.167661 33.683532 
Q 138.591743 33.70211 138.368807 33.70211 
Q 136.325229 33.70211 134.838991 35.578486 
Q 133.352752 37.454862 133.352752 39.609908 
Q 133.352752 42.619541 135.284862 44.570229 
Q 137.216972 46.520917 140.263761 46.520917 
Q 142.418807 46.818165 143.942202 44.29156 
" clip-path="url(#p75c89d8dbd)" style="fill: none; stroke: #000000; stroke-linejoin: miter"/>
   </g>
  </g>
  <g id="axes_10"/>
  <g id="axes_11">
   <g id="patch_10">
    <path d="M 166.613462 35.932469 
Q 167.213297 35.257655 168.206772 34.826524 
Q 169.200248 34.395393 170.1 34.470372 
Q 170.737324 34.470372 171.22469 34.639076 
Q 171.712055 34.807779 172.030717 34.995228 
Q 172.349379 35.182676 172.574317 35.670041 
Q 172.799255 36.157407 172.911724 36.419834 
Q 173.024193 36.682262 173.080428 37.375821 
Q 173.136662 38.069379 173.155407 38.331807 
Q 173.174152 38.594234 173.155407 39.419007 
Q 173.136662 40.243779 173.136662 40.431228 
Q 173.136662 41.368469 172.967959 43.242952 
Q 172.799255 45.117434 172.799255 46.054676 
Q 172.799255 46.467062 172.85549 46.823214 
Q 172.911724 47.179366 173.005448 47.610497 
Q 173.099172 48.041628 173.136662 48.304055 
L 173.586538 48.528993 
M 167.063338 23.111007 
Q 167.288276 24.798041 167.288276 29.971614 
L 167.288276 42.3432 
L 166.950869 46.841959 
L 166.725931 47.74171 
" clip-path="url(#p62570b14cd)" style="fill: none; stroke: #000000; stroke-linejoin: miter"/>
   </g>
  </g>
  <g id="axes_12">
   <g id="patch_11">
    <path d="M 180.057798 38.160826 
Q 183.030275 39.535596 187.749083 39.721376 
Q 189.272477 39.721376 189.959862 38.550963 
Q 190.647248 37.38055 190.647248 35.82 
Q 190.647248 35.299817 190.554358 34.909679 
Q 190.461468 34.519541 190.219954 34.296606 
Q 189.97844 34.07367 189.811239 33.943624 
Q 189.644037 33.813578 189.198165 33.757844 
Q 188.752294 33.70211 188.547936 33.683532 
Q 188.343578 33.664954 187.767661 33.683532 
Q 187.191743 33.70211 186.968807 33.70211 
Q 184.925229 33.70211 183.438991 35.578486 
Q 181.952752 37.454862 181.952752 39.609908 
Q 181.952752 42.619541 183.884862 44.570229 
Q 185.816972 46.520917 188.863761 46.520917 
Q 191.018807 46.818165 192.542202 44.29156 
" clip-path="url(#p38173799ed)" style="fill: none; stroke: #000000; stroke-linejoin: miter"/>
   </g>
  </g>
  <g id="axes_13">
   <g id="patch_12">
    <path d="M 208.043923 36.441748 
Q 206.834968 35.094627 202.862687 35.094627 
Q 201.342857 35.094627 200.565672 35.146439 
Q 199.788486 35.198252 198.78678 35.440043 
Q 197.785075 35.681834 197.301493 36.182687 
Q 196.81791 36.683539 196.472495 37.616162 
Q 196.127079 38.548785 196.127079 39.964989 
Q 196.127079 42.037484 197.543284 43.280981 
Q 198.959488 44.524478 200.893817 44.524478 
Q 203.553518 44.524478 206.316844 38.721493 
Q 207.663966 35.854542 207.663966 35.82 
Q 208.009382 35.578209 208.043923 36.441748 
Q 208.043923 37.512537 208.458422 40.362217 
Q 208.872921 43.211898 208.872921 44.524478 
" clip-path="url(#p9407c8b61a)" style="fill: none; stroke: #000000; stroke-linejoin: miter"/>
   </g>
  </g>
  <g id="axes_14">
   <g id="patch_13">
    <path d="M 215.213462 32.783338 
Q 215.738317 34.507862 215.869531 36.457324 
Q 216.000745 38.406786 215.925766 40.956083 
Q 215.850786 43.505379 215.888276 44.705048 
L 216.000745 46.054676 
L 216.000745 45.829738 
Q 216.000745 44.667559 215.719572 42.30571 
Q 215.4384 39.943862 215.4384 38.744193 
Q 215.4384 36.419834 216.450621 34.882759 
Q 217.462841 33.345683 219.487283 33.345683 
Q 220.199586 33.345683 220.536993 33.626855 
Q 220.8744 33.908028 221.136828 34.432883 
Q 221.399255 34.957738 221.736662 35.257655 
L 222.186538 36.832221 
" clip-path="url(#pf726ca60bf)" style="fill: none; stroke: #000000; stroke-linejoin: miter"/>
   </g>
  </g>
  <g id="axes_15">
   <g id="patch_14">
    <path d="M 238.499007 39.568966 
Q 237.149379 38.181848 234.9 38.444276 
Q 232.050786 38.444276 230.888607 39.793903 
Q 229.726428 41.143531 229.726428 44.067724 
Q 229.726428 45.56731 231.019821 46.279614 
Q 232.313214 46.991917 233.887779 46.991917 
Q 235.199917 46.991917 236.212138 45.736014 
Q 237.224359 44.48011 237.805448 42.30571 
Q 238.386538 40.13131 238.761434 37.938166 
Q 239.136331 35.745021 239.28629 33.045766 
Q 239.436248 30.34651 239.473738 28.978138 
Q 239.511228 27.609766 239.511228 26.185159 
Q 239.28629 26.260138 239.28629 29.896634 
L 239.28629 44.292662 
L 240.073572 48.229076 
" clip-path="url(#p9972738dc8)" style="fill: none; stroke: #000000; stroke-linejoin: miter"/>
   </g>
  </g>
  <g id="axes_16"/>
  <g id="axes_17">
   <g id="patch_15">
    <path d="M 272.843923 36.441748 
Q 271.634968 35.094627 267.662687 35.094627 
Q 266.142857 35.094627 265.365672 35.146439 
Q 264.588486 35.198252 263.58678 35.440043 
Q 262.585075 35.681834 262.101493 36.182687 
Q 261.61791 36.683539 261.272495 37.616162 
Q 260.927079 38.548785 260.927079 39.964989 
Q 260.927079 42.037484 262.343284 43.280981 
Q 263.759488 44.524478 265.693817 44.524478 
Q 268.353518 44.524478 271.116844 38.721493 
Q 272.463966 35.854542 272.463966 35.82 
Q 272.809382 35.578209 272.843923 36.441748 
Q 272.843923 37.512537 273.258422 40.362217 
Q 273.672921 43.211898 273.672921 44.524478 
" clip-path="url(#pf302e8e62e)" style="fill: none; stroke: #000000; stroke-linejoin: miter"/>
   </g>
  </g>
  <g id="axes_18"/>
  <g id="axes_19">
   <g id="patch_16">
    <path d="M 304.956735 34.365306 
Q 304.956735 34.365306 304.460816 34.365306 
Q 303.667347 34.365306 302.179592 34.067755 
Q 300.691837 33.770204 299.898367 33.770204 
Q 297.121224 33.770204 295.187143 35.224898 
Q 293.253061 36.679592 293.253061 39.423673 
Q 293.253061 40.94449 294.740816 42.399184 
Q 296.228571 43.853878 298.162653 44.663878 
Q 300.096735 45.473878 301.58449 45.473878 
Q 302.510204 45.473878 303.20449 45.110204 
Q 303.898776 44.746531 304.642653 44.118367 
Q 305.386531 43.490204 305.948571 43.192653 
L 306.146939 42.696735 
" clip-path="url(#p96564d5c62)" style="fill: none; stroke: #000000; stroke-linejoin: miter"/>
   </g>
  </g>
  <g id="axes_20">
   <g id="patch_17">
    <path d="M 311.288772 35.145186 
Q 311.288772 35.145186 311.288772 35.595062 
Q 311.288772 36.269876 311.176303 37.619503 
Q 311.063834 38.969131 311.063834 39.643945 
Q 311.063834 41.930814 312.300993 43.599103 
Q 313.538152 45.267393 315.675062 45.267393 
Q 317.062179 45.154924 317.830717 43.917766 
Q 318.599255 42.680607 318.749214 41.237255 
Q 318.899172 39.793903 319.1616 37.9944 
Q 319.424028 36.194897 319.836414 35.370124 
Q 319.986372 35.070207 319.986372 35.670041 
Q 319.986372 36.269876 319.723945 38.706703 
Q 319.499007 41.031062 319.499007 41.555917 
Q 319.349048 42.643117 319.686455 43.767807 
Q 320.023862 44.892497 320.736166 45.6048 
" clip-path="url(#p61c9e92a8d)" style="fill: none; stroke: #000000; stroke-linejoin: miter"/>
   </g>
  </g>
  <g id="axes_21">
   <g id="patch_18">
    <path d="M 328.613462 32.783338 
Q 329.138317 34.507862 329.269531 36.457324 
Q 329.400745 38.406786 329.325766 40.956083 
Q 329.250786 43.505379 329.288276 44.705048 
L 329.400745 46.054676 
L 329.400745 45.829738 
Q 329.400745 44.667559 329.119572 42.30571 
Q 328.8384 39.943862 328.8384 38.744193 
Q 328.8384 36.419834 329.850621 34.882759 
Q 330.862841 33.345683 332.887283 33.345683 
Q 333.599586 33.345683 333.936993 33.626855 
Q 334.2744 33.908028 334.536828 34.432883 
Q 334.799255 34.957738 335.136662 35.257655 
L 335.586538 36.832221 
" clip-path="url(#pf5aa673c72)" style="fill: none; stroke: #000000; stroke-linejoin: miter"/>
   </g>
  </g>
  <g id="axes_22">
   <g id="patch_19">
    <path d="M 348.918579 29.071862 
Q 348.543683 29.146841 348.412469 29.577972 
Q 348.281255 30.009103 348.356234 30.42149 
Q 348.356234 30.571448 348.393724 30.702662 
Q 348.431214 30.833876 348.487448 30.89011 
Q 348.543683 30.946345 348.599917 31.040069 
Q 348.656152 31.133793 348.693641 31.208772 
L 348.80611 29.859145 
M 348.80611 34.020497 
Q 347.906359 39.006621 347.681421 42.793076 
L 348.131297 45.379862 
L 348.468703 46.054676 
" clip-path="url(#p17ffe29ea5)" style="fill: none; stroke: #000000; stroke-linejoin: miter"/>
   </g>
  </g>
  <g id="axes_23">
   <g id="patch_20">
    <path d="M 367.7616 35.032717 
Q 366.71189 34.582841 365.737159 34.69531 
Q 362.700497 35.032717 360.788524 36.701007 
Q 358.876552 38.369297 358.876552 41.330979 
Q 358.876552 43.917766 360.882248 45.6048 
Q 362.887945 47.291834 365.512221 47.291834 
Q 367.874069 47.291834 368.998759 45.361117 
Q 370.123448 43.4304 370.123448 40.881103 
Q 370.123448 39.643945 369.711062 38.706703 
Q 369.298676 37.769462 368.773821 37.300841 
Q 368.248966 36.832221 367.499172 36.119917 
Q 366.749379 35.407614 366.299503 34.69531 
L 365.062345 34.245434 
" clip-path="url(#p1b548daae5)" style="fill: none; stroke: #000000; stroke-linejoin: miter"/>
   </g>
  </g>
  <g id="axes_24">
   <g id="patch_21">
    <path d="M 376.088772 35.145186 
Q 376.088772 35.145186 376.088772 35.595062 
Q 376.088772 36.269876 375.976303 37.619503 
Q 375.863834 38.969131 375.863834 39.643945 
Q 375.863834 41.930814 377.100993 43.599103 
Q 378.338152 45.267393 380.475062 45.267393 
Q 381.862179 45.154924 382.630717 43.917766 
Q 383.399255 42.680607 383.549214 41.237255 
Q 383.699172 39.793903 383.9616 37.9944 
Q 384.224028 36.194897 384.636414 35.370124 
Q 384.786372 35.070207 384.786372 35.670041 
Q 384.786372 36.269876 384.523945 38.706703 
Q 384.299007 41.031062 384.299007 41.555917 
Q 384.149048 42.643117 384.486455 43.767807 
Q 384.823862 44.892497 385.536166 45.6048 
" clip-path="url(#p8853ecd358)" style="fill: none; stroke: #000000; stroke-linejoin: miter"/>
   </g>
  </g>
  <g id="axes_25">
   <g id="patch_22">
    <path d="M 392.457476 43.917766 
Q 392.757393 44.180193 393.769614 45.154924 
Q 394.781834 46.129655 395.344179 46.560786 
Q 395.906524 46.991917 396.93749 47.385559 
Q 397.968455 47.7792 398.980676 47.629241 
Q 399.65549 47.629241 400.12411 47.404303 
Q 400.592731 47.179366 400.817669 46.879448 
Q 401.042607 46.579531 401.173821 45.979697 
Q 401.305034 45.379862 401.323779 44.967476 
Q 401.342524 44.55509 401.342524 43.805297 
Q 401.342524 42.718097 400.442772 42.043283 
Q 399.543021 41.368469 398.249628 41.031062 
Q 396.956234 40.693655 395.662841 40.300014 
Q 394.369448 39.906372 393.469697 38.987876 
Q 392.569945 38.069379 392.569945 36.607283 
Q 392.569945 36.082428 392.738648 35.726276 
Q 392.907352 35.370124 393.300993 35.145186 
Q 393.694634 34.920248 393.975807 34.807779 
Q 394.256979 34.69531 394.913048 34.639076 
Q 395.569117 34.582841 395.756566 34.582841 
Q 395.944014 34.582841 396.618828 34.582841 
Q 397.818497 34.582841 398.399586 34.995228 
Q 398.980676 35.407614 399.299338 36.026193 
Q 399.618 36.644772 399.880428 36.832221 
" clip-path="url(#p5be689b51c)" style="fill: none; stroke: #000000; stroke-linejoin: miter"/>
   </g>
  </g>
  <g id="axes_26"/>
  <g id="axes_27">
   <g id="patch_23">
    <path d="M 424.857476 43.917766 
Q 425.157393 44.180193 426.169614 45.154924 
Q 427.181834 46.129655 427.744179 46.560786 
Q 428.306524 46.991917 429.33749 47.385559 
Q 430.368455 47.7792 431.380676 47.629241 
Q 432.05549 47.629241 432.52411 47.404303 
Q 432.992731 47.179366 433.217669 46.879448 
Q 433.442607 46.579531 433.573821 45.979697 
Q 433.705034 45.379862 433.723779 44.967476 
Q 433.742524 44.55509 433.742524 43.805297 
Q 433.742524 42.718097 432.842772 42.043283 
Q 431.943021 41.368469 430.649628 41.031062 
Q 429.356234 40.693655 428.062841 40.300014 
Q 426.769448 39.906372 425.869697 38.987876 
Q 424.969945 38.069379 424.969945 36.607283 
Q 424.969945 36.082428 425.138648 35.726276 
Q 425.307352 35.370124 425.700993 35.145186 
Q 426.094634 34.920248 426.375807 34.807779 
Q 426.656979 34.69531 427.313048 34.639076 
Q 427.969117 34.582841 428.156566 34.582841 
Q 428.344014 34.582841 429.018828 34.582841 
Q 430.218497 34.582841 430.799586 34.995228 
Q 431.380676 35.407614 431.699338 36.026193 
Q 432.018 36.644772 432.280428 36.832221 
" clip-path="url(#p455de05f87)" style="fill: none; stroke: #000000; stroke-linejoin: miter"/>
   </g>
  </g>
  <g id="axes_28">
   <g id="patch_24">
    <path d="M 448.7616 35.032717 
Q 447.71189 34.582841 446.737159 34.69531 
Q 443.700497 35.032717 441.788524 36.701007 
Q 439.876552 38.369297 439.876552 41.330979 
Q 439.876552 43.917766 441.882248 45.6048 
Q 443.887945 47.291834 446.512221 47.291834 
Q 448.874069 47.291834 449.998759 45.361117 
Q 451.123448 43.4304 451.123448 40.881103 
Q 451.123448 39.643945 450.711062 38.706703 
Q 450.298676 37.769462 449.773821 37.300841 
Q 449.248966 36.832221 448.499172 36.119917 
Q 447.749379 35.407614 447.299503 34.69531 
L 446.062345 34.245434 
" clip-path="url(#pd316342224)" style="fill: none; stroke: #000000; stroke-linejoin: miter"/>
   </g>
  </g>
  <g id="axes_29">
   <g id="patch_25">
    <path d="M 457.088772 35.145186 
Q 457.088772 35.145186 457.088772 35.595062 
Q 457.088772 36.269876 456.976303 37.619503 
Q 456.863834 38.969131 456.863834 39.643945 
Q 456.863834 41.930814 458.100993 43.599103 
Q 459.338152 45.267393 461.475062 45.267393 
Q 462.862179 45.154924 463.630717 43.917766 
Q 464.399255 42.680607 464.549214 41.237255 
Q 464.699172 39.793903 464.9616 37.9944 
Q 465.224028 36.194897 465.636414 35.370124 
Q 465.786372 35.070207 465.786372 35.670041 
Q 465.786372 36.269876 465.523945 38.706703 
Q 465.299007 41.031062 465.299007 41.555917 
Q 465.149048 42.643117 465.486455 43.767807 
Q 465.823862 44.892497 466.536166 45.6048 
" clip-path="url(#pf2a6930109)" style="fill: none; stroke: #000000; stroke-linejoin: miter"/>
   </g>
  </g>
  <g id="axes_30">
   <g id="patch_26">
    <path d="M 473.438731 37.282097 
L 473.438731 37.844441 
Q 473.701159 39.868883 473.738648 41.312234 
Q 473.776138 42.755586 473.682414 44.667559 
Q 473.58869 46.579531 473.58869 48.191586 
L 473.663669 39.643945 
Q 473.663669 38.144359 475.256979 37.507034 
Q 476.85029 36.86971 478.274897 37.282097 
Q 480.186869 37.844441 481.105366 39.04411 
Q 482.023862 40.243779 482.080097 41.668386 
Q 482.136331 43.092993 482.173821 44.817517 
Q 482.21131 46.542041 482.361269 48.191586 
" clip-path="url(#p81ff888481)" style="fill: none; stroke: #000000; stroke-linejoin: miter"/>
   </g>
  </g>
  <g id="axes_31">
   <g id="patch_27">
    <path d="M 497.699007 39.568966 
Q 496.349379 38.181848 494.1 38.444276 
Q 491.250786 38.444276 490.088607 39.793903 
Q 488.926428 41.143531 488.926428 44.067724 
Q 488.926428 45.56731 490.219821 46.279614 
Q 491.513214 46.991917 493.087779 46.991917 
Q 494.399917 46.991917 495.412138 45.736014 
Q 496.424359 44.48011 497.005448 42.30571 
Q 497.586538 40.13131 497.961434 37.938166 
Q 498.336331 35.745021 498.48629 33.045766 
Q 498.636248 30.34651 498.673738 28.978138 
Q 498.711228 27.609766 498.711228 26.185159 
Q 498.48629 26.260138 498.48629 29.896634 
L 498.48629 44.292662 
L 499.273572 48.229076 
" clip-path="url(#pea2e4c4915)" style="fill: none; stroke: #000000; stroke-linejoin: miter"/>
   </g>
  </g>
  <g id="axes_32">
   <g id="patch_28">
    <path d="M 510.187531 45.979697 
Q 510.150041 46.017186 510.018828 46.054676 
Q 509.887614 46.092166 509.925103 46.167145 
Q 509.925103 46.579531 510.3 46.579531 
Q 510.637407 46.579531 510.637407 46.092166 
Q 510.712386 45.867228 510.431214 45.754759 
Q 510.150041 45.64229 509.962593 45.754759 
" clip-path="url(#pcdab58845b)" style="fill: none; stroke: #000000; stroke-linejoin: miter"/>
   </g>
  </g>
  <g id="axes_33"/>
  <g id="axes_34">
   <g id="patch_29">
    <path d="M 536.139924 40.439772 
Q 541.036882 46.999848 546.580608 46.168289 
Q 547.904943 46.168289 548.58251 45.382928 
Q 549.260076 44.597567 549.260076 43.30403 
Q 549.260076 41.979696 548.628707 40.947947 
Q 547.997338 39.916198 546.996388 39.238631 
Q 545.995437 38.561065 544.794297 37.975894 
Q 543.593156 37.390722 542.376616 36.820951 
Q 541.160076 36.251179 540.159125 35.589011 
Q 539.158175 34.926844 538.526806 33.895095 
Q 537.895437 32.863346 537.895437 31.56981 
Q 537.895437 29.906692 540.374715 28.382167 
Q 542.853992 26.857643 544.640304 26.857643 
Q 545.718251 26.796046 546.272624 27.627605 
Q 546.826996 28.459163 546.811597 29.490913 
Q 546.796198 30.522662 546.765399 31.385019 
" clip-path="url(#p85b351e088)" style="fill: none; stroke: #000000; stroke-linejoin: miter"/>
   </g>
  </g>
  <g id="axes_35">
   <g id="patch_30">
    <path d="M 555.413462 35.932469 
Q 556.013297 35.257655 557.006772 34.826524 
Q 558.000248 34.395393 558.9 34.470372 
Q 559.537324 34.470372 560.02469 34.639076 
Q 560.512055 34.807779 560.830717 34.995228 
Q 561.149379 35.182676 561.374317 35.670041 
Q 561.599255 36.157407 561.711724 36.419834 
Q 561.824193 36.682262 561.880428 37.375821 
Q 561.936662 38.069379 561.955407 38.331807 
Q 561.974152 38.594234 561.955407 39.419007 
Q 561.936662 40.243779 561.936662 40.431228 
Q 561.936662 41.368469 561.767959 43.242952 
Q 561.599255 45.117434 561.599255 46.054676 
Q 561.599255 46.467062 561.65549 46.823214 
Q 561.711724 47.179366 561.805448 47.610497 
Q 561.899172 48.041628 561.936662 48.304055 
L 562.386538 48.528993 
M 555.863338 23.111007 
Q 556.088276 24.798041 556.088276 29.971614 
L 556.088276 42.3432 
L 555.750869 46.841959 
L 555.525931 47.74171 
" clip-path="url(#pb5deb89e97)" style="fill: none; stroke: #000000; stroke-linejoin: miter"/>
   </g>
  </g>
  <g id="axes_36">
   <g id="patch_31">
    <path d="M 568.857798 38.160826 
Q 571.830275 39.535596 576.549083 39.721376 
Q 578.072477 39.721376 578.759862 38.550963 
Q 579.447248 37.38055 579.447248 35.82 
Q 579.447248 35.299817 579.354358 34.909679 
Q 579.261468 34.519541 579.019954 34.296606 
Q 578.77844 34.07367 578.611239 33.943624 
Q 578.444037 33.813578 577.998165 33.757844 
Q 577.552294 33.70211 577.347936 33.683532 
Q 577.143578 33.664954 576.567661 33.683532 
Q 575.991743 33.70211 575.768807 33.70211 
Q 573.725229 33.70211 572.238991 35.578486 
Q 570.752752 37.454862 570.752752 39.609908 
Q 570.752752 42.619541 572.684862 44.570229 
Q 574.616972 46.520917 577.663761 46.520917 
Q 579.818807 46.818165 581.342202 44.29156 
" clip-path="url(#p532d5b3a39)" style="fill: none; stroke: #000000; stroke-linejoin: miter"/>
   </g>
  </g>
 </g>
 <defs>
  <clipPath id="p0013ea8f09">
   <rect x="0" y="8.881927" width="16.2" height="53.876147"/>
  </clipPath>
  <clipPath id="p5800e74756">
   <rect x="16.2" y="10.777356" width="16.2" height="50.085288"/>
  </clipPath>
  <clipPath id="pafcef4d2f9">
   <rect x="35.138979" y="8.64" width="10.722041" height="54.36"/>
  </clipPath>
  <clipPath id="pda0fec7297">
   <rect x="50.382993" y="8.64" width="12.634014" height="54.36"/>
  </clipPath>
  <clipPath id="pe5777bca22">
   <rect x="70.200745" y="8.64" width="5.39851" height="54.36"/>
  </clipPath>
  <clipPath id="p3a01943988">
   <rect x="98.982993" y="8.64" width="12.634014" height="54.36"/>
  </clipPath>
  <clipPath id="p3adb799360">
   <rect x="116.138979" y="8.64" width="10.722041" height="54.36"/>
  </clipPath>
  <clipPath id="p75c89d8dbd">
   <rect x="129.6" y="8.881927" width="16.2" height="53.876147"/>
  </clipPath>
  <clipPath id="p62570b14cd">
   <rect x="164.738979" y="8.64" width="10.722041" height="54.36"/>
  </clipPath>
  <clipPath id="p38173799ed">
   <rect x="178.2" y="8.881927" width="16.2" height="53.876147"/>
  </clipPath>
  <clipPath id="p9407c8b61a">
   <rect x="194.4" y="10.777356" width="16.2" height="50.085288"/>
  </clipPath>
  <clipPath id="pf726ca60bf">
   <rect x="213.338979" y="8.64" width="10.722041" height="54.36"/>
  </clipPath>
  <clipPath id="p9972738dc8">
   <rect x="227.851945" y="8.64" width="14.09611" height="54.36"/>
  </clipPath>
  <clipPath id="pf302e8e62e">
   <rect x="259.2" y="10.777356" width="16.2" height="50.085288"/>
  </clipPath>
  <clipPath id="p96564d5c62">
   <rect x="291.6" y="11.850612" width="16.2" height="47.938776"/>
  </clipPath>
  <clipPath id="p61c9e92a8d">
   <rect x="309.189352" y="8.64" width="13.421297" height="54.36"/>
  </clipPath>
  <clipPath id="pf5aa673c72">
   <rect x="326.738979" y="8.64" width="10.722041" height="54.36"/>
  </clipPath>
  <clipPath id="p17ffe29ea5">
   <rect x="345.806938" y="8.64" width="4.986124" height="54.36"/>
  </clipPath>
  <clipPath id="p1b548daae5">
   <rect x="357.002069" y="8.64" width="14.995862" height="54.36"/>
  </clipPath>
  <clipPath id="p8853ecd358">
   <rect x="373.989352" y="8.64" width="13.421297" height="54.36"/>
  </clipPath>
  <clipPath id="p5be689b51c">
   <rect x="390.582993" y="8.64" width="12.634014" height="54.36"/>
  </clipPath>
  <clipPath id="p455de05f87">
   <rect x="422.982993" y="8.64" width="12.634014" height="54.36"/>
  </clipPath>
  <clipPath id="pd316342224">
   <rect x="438.002069" y="8.64" width="14.995862" height="54.36"/>
  </clipPath>
  <clipPath id="pf2a6930109">
   <rect x="454.989352" y="8.64" width="13.421297" height="54.36"/>
  </clipPath>
  <clipPath id="p81ff888481">
   <rect x="471.564248" y="8.64" width="12.671503" height="54.36"/>
  </clipPath>
  <clipPath id="pea2e4c4915">
   <rect x="487.051945" y="8.64" width="14.09611" height="54.36"/>
  </clipPath>
  <clipPath id="pcdab58845b">
   <rect x="508.013131" y="8.64" width="4.573738" height="54.36"/>
  </clipPath>
  <clipPath id="p85b351e088">
   <rect x="534.6" y="13.491103" width="16.2" height="44.657795"/>
  </clipPath>
  <clipPath id="pb5deb89e97">
   <rect x="553.538979" y="8.64" width="10.722041" height="54.36"/>
  </clipPath>
  <clipPath id="p532d5b3a39">
   <rect x="567" y="8.881927" width="16.2" height="53.876147"/>
  </clipPath>
 </defs>
</svg>
