<?xml version="1.0" encoding="utf-8" standalone="no"?>
<!DOCTYPE svg PUBLIC "-//W3C//DTD SVG 1.1//EN"
  "http://www.w3.org/Graphics/SVG/1.1/DTD/svg11.dtd">
<svg xmlns:xlink="http://www.w3.org/1999/xlink" width="684pt" height="72pt" viewBox="0 0 684 72" xmlns="http://www.w3.org/2000/svg" version="1.1">
 <metadata>
  <rdf:RDF xmlns:dc="http://purl.org/dc/elements/1.1/" xmlns:cc="http://creativecommons.org/ns#" xmlns:rdf="http://www.w3.org/1999/02/22-rdf-syntax-ns#">
   <cc:Work>
    <dc:type rdf:resource="http://purl.org/dc/dcmitype/StillImage"/>
    <dc:date>2024-01-04T18:41:56.441512</dc:date>
    <dc:format>image/svg+xml</dc:format>
    <dc:creator>
     <cc:Agent>
      <dc:title>Matplotlib v3.7.1, https://matplotlib.org/</dc:title>
     </cc:Agent>
    </dc:creator>
   </cc:Work>
  </rdf:RDF>
 </metadata>
 <defs>
  <style type="text/css">*{stroke-linejoin: round; stroke-linecap: butt}</style>
 </defs>
 <g id="figure_1">
  <g id="patch_1">
   <path d="M 0 72 
L 684 72 
L 684 0 
L 0 0 
z
" style="fill: #8fff9f"/>
  </g>
  <g id="axes_1">
   <g id="patch_2">
    <path d="M 8.624855 27.009931 
Q 8.699834 27.347338 8.774814 28.265834 
Q 8.849793 29.184331 8.999752 29.634207 
L 8.924772 31.058814 
M 7.275228 27.309848 
Q 7.237738 27.309848 7.200248 27.534786 
Q 7.237738 27.684745 7.350207 28.828179 
Q 7.462676 29.971614 7.725103 30.533959 
" clip-path="url(#p009908ba7b)" style="fill: none; stroke: #000000; stroke-linejoin: miter"/>
   </g>
  </g>
  <g id="axes_2">
   <g id="patch_3">
    <path d="M 17.287248 30.470738 
L 18.461477 30.601208 
Q 20.288054 30.601208 22.125503 30.709933 
Q 23.962953 30.818658 26.202685 30.992617 
Q 28.442416 31.166577 29.877584 31.253557 
L 31.312752 31.123087 
M 24.071678 31.057852 
Q 24.136913 31.405772 23.875973 32.177718 
Q 23.615034 32.949664 23.810738 33.406309 
Q 23.810738 34.711007 23.952081 36.363624 
Q 24.093423 38.016242 24.310872 39.973289 
Q 24.528322 41.930336 24.593557 42.800134 
" clip-path="url(#p9540defe00)" style="fill: none; stroke: #000000; stroke-linejoin: miter"/>
   </g>
  </g>
  <g id="axes_3">
   <g id="patch_4">
    <path d="M 37.013462 35.932469 
Q 37.613297 35.257655 38.606772 34.826524 
Q 39.600248 34.395393 40.5 34.470372 
Q 41.137324 34.470372 41.62469 34.639076 
Q 42.112055 34.807779 42.430717 34.995228 
Q 42.749379 35.182676 42.974317 35.670041 
Q 43.199255 36.157407 43.311724 36.419834 
Q 43.424193 36.682262 43.480428 37.375821 
Q 43.536662 38.069379 43.555407 38.331807 
Q 43.574152 38.594234 43.555407 39.419007 
Q 43.536662 40.243779 43.536662 40.431228 
Q 43.536662 41.368469 43.367959 43.242952 
Q 43.199255 45.117434 43.199255 46.054676 
Q 43.199255 46.467062 43.25549 46.823214 
Q 43.311724 47.179366 43.405448 47.610497 
Q 43.499172 48.041628 43.536662 48.304055 
L 43.986538 48.528993 
M 37.463338 23.111007 
Q 37.688276 24.798041 37.688276 29.971614 
L 37.688276 42.3432 
L 37.350869 46.841959 
L 37.125931 47.74171 
" clip-path="url(#p4b4175f837)" style="fill: none; stroke: #000000; stroke-linejoin: miter"/>
   </g>
  </g>
  <g id="axes_4">
   <g id="patch_5">
    <path d="M 50.457798 38.160826 
Q 53.430275 39.535596 58.149083 39.721376 
Q 59.672477 39.721376 60.359862 38.550963 
Q 61.047248 37.38055 61.047248 35.82 
Q 61.047248 35.299817 60.954358 34.909679 
Q 60.861468 34.519541 60.619954 34.296606 
Q 60.37844 34.07367 60.211239 33.943624 
Q 60.044037 33.813578 59.598165 33.757844 
Q 59.152294 33.70211 58.947936 33.683532 
Q 58.743578 33.664954 58.167661 33.683532 
Q 57.591743 33.70211 57.368807 33.70211 
Q 55.325229 33.70211 53.838991 35.578486 
Q 52.352752 37.454862 52.352752 39.609908 
Q 52.352752 42.619541 54.284862 44.570229 
Q 56.216972 46.520917 59.263761 46.520917 
Q 61.418807 46.818165 62.942202 44.29156 
" clip-path="url(#p96be76fd83)" style="fill: none; stroke: #000000; stroke-linejoin: miter"/>
   </g>
  </g>
  <g id="axes_5"/>
  <g id="axes_6">
   <g id="patch_6">
    <path d="M 94.356735 34.365306 
Q 94.356735 34.365306 93.860816 34.365306 
Q 93.067347 34.365306 91.579592 34.067755 
Q 90.091837 33.770204 89.298367 33.770204 
Q 86.521224 33.770204 84.587143 35.224898 
Q 82.653061 36.679592 82.653061 39.423673 
Q 82.653061 40.94449 84.140816 42.399184 
Q 85.628571 43.853878 87.562653 44.663878 
Q 89.496735 45.473878 90.98449 45.473878 
Q 91.910204 45.473878 92.60449 45.110204 
Q 93.298776 44.746531 94.042653 44.118367 
Q 94.786531 43.490204 95.348571 43.192653 
L 95.546939 42.696735 
" clip-path="url(#pb7eaed2051)" style="fill: none; stroke: #000000; stroke-linejoin: miter"/>
   </g>
  </g>
  <g id="axes_7">
   <g id="patch_7">
    <path d="M 101.813462 35.932469 
Q 102.413297 35.257655 103.406772 34.826524 
Q 104.400248 34.395393 105.3 34.470372 
Q 105.937324 34.470372 106.42469 34.639076 
Q 106.912055 34.807779 107.230717 34.995228 
Q 107.549379 35.182676 107.774317 35.670041 
Q 107.999255 36.157407 108.111724 36.419834 
Q 108.224193 36.682262 108.280428 37.375821 
Q 108.336662 38.069379 108.355407 38.331807 
Q 108.374152 38.594234 108.355407 39.419007 
Q 108.336662 40.243779 108.336662 40.431228 
Q 108.336662 41.368469 108.167959 43.242952 
Q 107.999255 45.117434 107.999255 46.054676 
Q 107.999255 46.467062 108.05549 46.823214 
Q 108.111724 47.179366 108.205448 47.610497 
Q 108.299172 48.041628 108.336662 48.304055 
L 108.786538 48.528993 
M 102.263338 23.111007 
Q 102.488276 24.798041 102.488276 29.971614 
L 102.488276 42.3432 
L 102.150869 46.841959 
L 101.925931 47.74171 
" clip-path="url(#p2710248b92)" style="fill: none; stroke: #000000; stroke-linejoin: miter"/>
   </g>
  </g>
  <g id="axes_8">
   <g id="patch_8">
    <path d="M 115.257798 38.160826 
Q 118.230275 39.535596 122.949083 39.721376 
Q 124.472477 39.721376 125.159862 38.550963 
Q 125.847248 37.38055 125.847248 35.82 
Q 125.847248 35.299817 125.754358 34.909679 
Q 125.661468 34.519541 125.419954 34.296606 
Q 125.17844 34.07367 125.011239 33.943624 
Q 124.844037 33.813578 124.398165 33.757844 
Q 123.952294 33.70211 123.747936 33.683532 
Q 123.543578 33.664954 122.967661 33.683532 
Q 122.391743 33.70211 122.168807 33.70211 
Q 120.125229 33.70211 118.638991 35.578486 
Q 117.152752 37.454862 117.152752 39.609908 
Q 117.152752 42.619541 119.084862 44.570229 
Q 121.016972 46.520917 124.063761 46.520917 
Q 126.218807 46.818165 127.742202 44.29156 
" clip-path="url(#p383713d85c)" style="fill: none; stroke: #000000; stroke-linejoin: miter"/>
   </g>
  </g>
  <g id="axes_9">
   <g id="patch_9">
    <path d="M 131.457798 38.160826 
Q 134.430275 39.535596 139.149083 39.721376 
Q 140.672477 39.721376 141.359862 38.550963 
Q 142.047248 37.38055 142.047248 35.82 
Q 142.047248 35.299817 141.954358 34.909679 
Q 141.861468 34.519541 141.619954 34.296606 
Q 141.37844 34.07367 141.211239 33.943624 
Q 141.044037 33.813578 140.598165 33.757844 
Q 140.152294 33.70211 139.947936 33.683532 
Q 139.743578 33.664954 139.167661 33.683532 
Q 138.591743 33.70211 138.368807 33.70211 
Q 136.325229 33.70211 134.838991 35.578486 
Q 133.352752 37.454862 133.352752 39.609908 
Q 133.352752 42.619541 135.284862 44.570229 
Q 137.216972 46.520917 140.263761 46.520917 
Q 142.418807 46.818165 143.942202 44.29156 
" clip-path="url(#p1837dfb677)" style="fill: none; stroke: #000000; stroke-linejoin: miter"/>
   </g>
  </g>
  <g id="axes_10">
   <g id="patch_10">
    <path d="M 151.931793 37.169628 
Q 153.956234 39.194069 155.718248 41.76211 
Q 157.480262 44.330152 158.342524 46.72949 
M 154.968455 31.321241 
L 154.968455 31.546179 
Q 154.968455 32.333462 154.331131 33.514386 
Q 153.693807 34.69531 152.719076 36.101172 
Q 151.744345 37.507034 151.481917 37.95691 
L 150.244759 39.643945 
M 149.457476 26.710014 
Q 151.294469 36.269876 151.481917 48.641462 
" clip-path="url(#p23e515ffe4)" style="fill: none; stroke: #000000; stroke-linejoin: miter"/>
   </g>
  </g>
  <g id="axes_11"/>
  <g id="axes_12">
   <g id="patch_11">
    <path d="M 189.5616 35.032717 
Q 188.51189 34.582841 187.537159 34.69531 
Q 184.500497 35.032717 182.588524 36.701007 
Q 180.676552 38.369297 180.676552 41.330979 
Q 180.676552 43.917766 182.682248 45.6048 
Q 184.687945 47.291834 187.312221 47.291834 
Q 189.674069 47.291834 190.798759 45.361117 
Q 191.923448 43.4304 191.923448 40.881103 
Q 191.923448 39.643945 191.511062 38.706703 
Q 191.098676 37.769462 190.573821 37.300841 
Q 190.048966 36.832221 189.299172 36.119917 
Q 188.549379 35.407614 188.099503 34.69531 
L 186.862345 34.245434 
" clip-path="url(#p7c5d0ccf74)" style="fill: none; stroke: #000000; stroke-linejoin: miter"/>
   </g>
  </g>
  <g id="axes_13">
   <g id="patch_12">
    <path d="M 196.184141 38.85304 
L 196.612335 38.85304 
Q 197.43304 38.85304 198.396476 38.745991 
Q 199.359912 38.638943 200.519604 38.460529 
Q 201.679295 38.282115 202.285903 38.210749 
L 208.815859 35.427489 
M 208.494714 25.793128 
Q 208.209251 25.721762 207.174449 25.275727 
Q 206.139648 24.829692 205.497357 24.93674 
Q 204.855066 24.93674 204.337665 25.150837 
Q 203.820264 25.364934 203.481278 25.793128 
Q 203.142291 26.221322 202.87467 26.685198 
Q 202.607048 27.149075 202.464317 27.862731 
Q 202.321586 28.576388 202.214537 29.129471 
Q 202.107489 29.682555 202.089648 30.50326 
Q 202.071806 31.323965 202.053965 31.77 
Q 202.036123 32.216035 202.053965 32.965374 
Q 202.071806 33.714714 202.071806 33.928811 
Q 202.071806 36.605022 202.767621 41.850396 
Q 203.463436 47.095771 203.463436 49.771982 
Q 203.39207 50.057445 203.356388 50.681894 
Q 203.320705 51.306344 203.213656 51.805903 
Q 203.106608 52.305463 202.821145 52.555242 
" clip-path="url(#pf1a25ae112)" style="fill: none; stroke: #000000; stroke-linejoin: miter"/>
   </g>
  </g>
  <g id="axes_14"/>
  <g id="axes_15">
   <g id="patch_13">
    <path d="M 229.763917 36.382345 
Q 229.726428 36.494814 229.857641 36.701007 
Q 229.988855 36.9072 229.876386 37.057159 
L 229.876386 39.306538 
Q 229.876386 40.506207 230.213793 41.724621 
Q 230.5512 42.943034 231.413462 43.93651 
Q 232.275724 44.929986 233.475393 44.929986 
Q 234.712552 44.929986 235.387366 43.861531 
Q 236.062179 42.793076 236.512055 41.143531 
Q 236.961931 39.493986 237.299338 38.969131 
L 238.086621 36.382345 
L 237.861683 42.680607 
L 237.861683 45.154924 
Q 237.861683 47.066897 238.592731 51.00331 
Q 239.323779 54.939724 239.323779 56.964166 
Q 240.073572 59.213545 238.986372 60.188276 
Q 237.899172 61.163007 235.837241 60.78811 
Q 234.037738 60.488193 233.119241 60.169531 
Q 232.200745 59.850869 230.213793 58.988607 
L 230.101324 58.426262 
" clip-path="url(#p8faae7a3e6)" style="fill: none; stroke: #000000; stroke-linejoin: miter"/>
   </g>
  </g>
  <g id="axes_16">
   <g id="patch_14">
    <path d="M 254.3616 35.032717 
Q 253.31189 34.582841 252.337159 34.69531 
Q 249.300497 35.032717 247.388524 36.701007 
Q 245.476552 38.369297 245.476552 41.330979 
Q 245.476552 43.917766 247.482248 45.6048 
Q 249.487945 47.291834 252.112221 47.291834 
Q 254.474069 47.291834 255.598759 45.361117 
Q 256.723448 43.4304 256.723448 40.881103 
Q 256.723448 39.643945 256.311062 38.706703 
Q 255.898676 37.769462 255.373821 37.300841 
Q 254.848966 36.832221 254.099172 36.119917 
Q 253.349379 35.407614 252.899503 34.69531 
L 251.662345 34.245434 
" clip-path="url(#p149f0a57da)" style="fill: none; stroke: #000000; stroke-linejoin: miter"/>
   </g>
  </g>
  <g id="axes_17">
   <g id="patch_15">
    <path d="M 262.688772 35.145186 
Q 262.688772 35.145186 262.688772 35.595062 
Q 262.688772 36.269876 262.576303 37.619503 
Q 262.463834 38.969131 262.463834 39.643945 
Q 262.463834 41.930814 263.700993 43.599103 
Q 264.938152 45.267393 267.075062 45.267393 
Q 268.462179 45.154924 269.230717 43.917766 
Q 269.999255 42.680607 270.149214 41.237255 
Q 270.299172 39.793903 270.5616 37.9944 
Q 270.824028 36.194897 271.236414 35.370124 
Q 271.386372 35.070207 271.386372 35.670041 
Q 271.386372 36.269876 271.123945 38.706703 
Q 270.899007 41.031062 270.899007 41.555917 
Q 270.749048 42.643117 271.086455 43.767807 
Q 271.423862 44.892497 272.136166 45.6048 
" clip-path="url(#pc948c9372b)" style="fill: none; stroke: #000000; stroke-linejoin: miter"/>
   </g>
  </g>
  <g id="axes_18">
   <g id="patch_16">
    <path d="M 282.787697 39.981352 
Q 283.799917 40.956083 284.137324 42.905545 
Q 284.324772 43.955255 283.912386 46.167145 
L 282.675228 47.629241 
" clip-path="url(#pd0798e4c42)" style="fill: none; stroke: #000000; stroke-linejoin: miter"/>
   </g>
  </g>
  <g id="axes_19"/>
  <g id="axes_20">
   <g id="patch_17">
    <path d="M 310.763917 36.382345 
Q 310.726428 36.494814 310.857641 36.701007 
Q 310.988855 36.9072 310.876386 37.057159 
L 310.876386 39.306538 
Q 310.876386 40.506207 311.213793 41.724621 
Q 311.5512 42.943034 312.413462 43.93651 
Q 313.275724 44.929986 314.475393 44.929986 
Q 315.712552 44.929986 316.387366 43.861531 
Q 317.062179 42.793076 317.512055 41.143531 
Q 317.961931 39.493986 318.299338 38.969131 
L 319.086621 36.382345 
L 318.861683 42.680607 
L 318.861683 45.154924 
Q 318.861683 47.066897 319.592731 51.00331 
Q 320.323779 54.939724 320.323779 56.964166 
Q 321.073572 59.213545 319.986372 60.188276 
Q 318.899172 61.163007 316.837241 60.78811 
Q 315.037738 60.488193 314.119241 60.169531 
Q 313.200745 59.850869 311.213793 58.988607 
L 311.101324 58.426262 
" clip-path="url(#p3d6ec66763)" style="fill: none; stroke: #000000; stroke-linejoin: miter"/>
   </g>
  </g>
  <g id="axes_21">
   <g id="patch_18">
    <path d="M 335.3616 35.032717 
Q 334.31189 34.582841 333.337159 34.69531 
Q 330.300497 35.032717 328.388524 36.701007 
Q 326.476552 38.369297 326.476552 41.330979 
Q 326.476552 43.917766 328.482248 45.6048 
Q 330.487945 47.291834 333.112221 47.291834 
Q 335.474069 47.291834 336.598759 45.361117 
Q 337.723448 43.4304 337.723448 40.881103 
Q 337.723448 39.643945 337.311062 38.706703 
Q 336.898676 37.769462 336.373821 37.300841 
Q 335.848966 36.832221 335.099172 36.119917 
Q 334.349379 35.407614 333.899503 34.69531 
L 332.662345 34.245434 
" clip-path="url(#p65a3acf46b)" style="fill: none; stroke: #000000; stroke-linejoin: miter"/>
   </g>
  </g>
  <g id="axes_22">
   <g id="patch_19">
    <path d="M 343.688772 35.145186 
Q 343.688772 35.145186 343.688772 35.595062 
Q 343.688772 36.269876 343.576303 37.619503 
Q 343.463834 38.969131 343.463834 39.643945 
Q 343.463834 41.930814 344.700993 43.599103 
Q 345.938152 45.267393 348.075062 45.267393 
Q 349.462179 45.154924 350.230717 43.917766 
Q 350.999255 42.680607 351.149214 41.237255 
Q 351.299172 39.793903 351.5616 37.9944 
Q 351.824028 36.194897 352.236414 35.370124 
Q 352.386372 35.070207 352.386372 35.670041 
Q 352.386372 36.269876 352.123945 38.706703 
Q 351.899007 41.031062 351.899007 41.555917 
Q 351.749048 42.643117 352.086455 43.767807 
Q 352.423862 44.892497 353.136166 45.6048 
" clip-path="url(#p1a901a9453)" style="fill: none; stroke: #000000; stroke-linejoin: miter"/>
   </g>
  </g>
  <g id="axes_23">
   <g id="patch_20">
    <path d="M 364.387531 45.979697 
Q 364.350041 46.017186 364.218828 46.054676 
Q 364.087614 46.092166 364.125103 46.167145 
Q 364.125103 46.579531 364.5 46.579531 
Q 364.837407 46.579531 364.837407 46.092166 
Q 364.912386 45.867228 364.631214 45.754759 
Q 364.350041 45.64229 364.162593 45.754759 
" clip-path="url(#p2ae05a204f)" style="fill: none; stroke: #000000; stroke-linejoin: miter"/>
   </g>
  </g>
  <g id="axes_24">
   <g id="patch_21">
    <path d="M 380.587531 45.979697 
Q 380.550041 46.017186 380.418828 46.054676 
Q 380.287614 46.092166 380.325103 46.167145 
Q 380.325103 46.579531 380.7 46.579531 
Q 381.037407 46.579531 381.037407 46.092166 
Q 381.112386 45.867228 380.831214 45.754759 
Q 380.550041 45.64229 380.362593 45.754759 
" clip-path="url(#p735d536c2b)" style="fill: none; stroke: #000000; stroke-linejoin: miter"/>
   </g>
  </g>
  <g id="axes_25">
   <g id="patch_22">
    <path d="M 396.787531 45.979697 
Q 396.750041 46.017186 396.618828 46.054676 
Q 396.487614 46.092166 396.525103 46.167145 
Q 396.525103 46.579531 396.9 46.579531 
Q 397.237407 46.579531 397.237407 46.092166 
Q 397.312386 45.867228 397.031214 45.754759 
Q 396.750041 45.64229 396.562593 45.754759 
" clip-path="url(#pa9072c8ac8)" style="fill: none; stroke: #000000; stroke-linejoin: miter"/>
   </g>
  </g>
  <g id="axes_26"/>
  <g id="axes_27">
   <g id="patch_23">
    <path d="M 424.163917 36.382345 
Q 424.126428 36.494814 424.257641 36.701007 
Q 424.388855 36.9072 424.276386 37.057159 
L 424.276386 39.306538 
Q 424.276386 40.506207 424.613793 41.724621 
Q 424.9512 42.943034 425.813462 43.93651 
Q 426.675724 44.929986 427.875393 44.929986 
Q 429.112552 44.929986 429.787366 43.861531 
Q 430.462179 42.793076 430.912055 41.143531 
Q 431.361931 39.493986 431.699338 38.969131 
L 432.486621 36.382345 
L 432.261683 42.680607 
L 432.261683 45.154924 
Q 432.261683 47.066897 432.992731 51.00331 
Q 433.723779 54.939724 433.723779 56.964166 
Q 434.473572 59.213545 433.386372 60.188276 
Q 432.299172 61.163007 430.237241 60.78811 
Q 428.437738 60.488193 427.519241 60.169531 
Q 426.600745 59.850869 424.613793 58.988607 
L 424.501324 58.426262 
" clip-path="url(#pa3d45ab69f)" style="fill: none; stroke: #000000; stroke-linejoin: miter"/>
   </g>
  </g>
  <g id="axes_28">
   <g id="patch_24">
    <path d="M 448.7616 35.032717 
Q 447.71189 34.582841 446.737159 34.69531 
Q 443.700497 35.032717 441.788524 36.701007 
Q 439.876552 38.369297 439.876552 41.330979 
Q 439.876552 43.917766 441.882248 45.6048 
Q 443.887945 47.291834 446.512221 47.291834 
Q 448.874069 47.291834 449.998759 45.361117 
Q 451.123448 43.4304 451.123448 40.881103 
Q 451.123448 39.643945 450.711062 38.706703 
Q 450.298676 37.769462 449.773821 37.300841 
Q 449.248966 36.832221 448.499172 36.119917 
Q 447.749379 35.407614 447.299503 34.69531 
L 446.062345 34.245434 
" clip-path="url(#p9849997ade)" style="fill: none; stroke: #000000; stroke-linejoin: miter"/>
   </g>
  </g>
  <g id="axes_29">
   <g id="patch_25">
    <path d="M 457.088772 35.145186 
Q 457.088772 35.145186 457.088772 35.595062 
Q 457.088772 36.269876 456.976303 37.619503 
Q 456.863834 38.969131 456.863834 39.643945 
Q 456.863834 41.930814 458.100993 43.599103 
Q 459.338152 45.267393 461.475062 45.267393 
Q 462.862179 45.154924 463.630717 43.917766 
Q 464.399255 42.680607 464.549214 41.237255 
Q 464.699172 39.793903 464.9616 37.9944 
Q 465.224028 36.194897 465.636414 35.370124 
Q 465.786372 35.070207 465.786372 35.670041 
Q 465.786372 36.269876 465.523945 38.706703 
Q 465.299007 41.031062 465.299007 41.555917 
Q 465.149048 42.643117 465.486455 43.767807 
Q 465.823862 44.892497 466.536166 45.6048 
" clip-path="url(#p84271b3f96)" style="fill: none; stroke: #000000; stroke-linejoin: miter"/>
   </g>
  </g>
  <g id="axes_30"/>
  <g id="axes_31">
   <g id="patch_26">
    <path d="M 489.320069 39.868883 
L 489.320069 39.419007 
Q 489.320069 37.769462 491.063338 36.682262 
Q 492.806607 35.595062 494.493641 35.595062 
Q 496.705531 35.595062 498.073903 36.794731 
Q 499.442276 37.9944 499.442276 40.20629 
Q 499.442276 42.30571 497.624028 43.336676 
Q 495.805779 44.367641 493.59389 44.367641 
Q 492.919076 44.367641 492.412966 44.255172 
Q 491.906855 44.142703 491.288276 43.917766 
Q 490.669697 43.692828 490.219821 43.580359 
L 489.095131 42.568138 
M 488.757724 36.832221 
Q 489.2076 38.444276 489.470028 40.262524 
Q 489.732455 42.080772 489.78869 43.749062 
Q 489.844924 45.417352 489.882414 47.27309 
Q 489.919903 49.128828 489.882414 50.778372 
L 489.769945 57.863917 
" clip-path="url(#p38dcee6cf0)" style="fill: none; stroke: #000000; stroke-linejoin: miter"/>
   </g>
  </g>
  <g id="axes_32">
   <g id="patch_27">
    <path d="M 506.813462 35.932469 
Q 507.413297 35.257655 508.406772 34.826524 
Q 509.400248 34.395393 510.3 34.470372 
Q 510.937324 34.470372 511.42469 34.639076 
Q 511.912055 34.807779 512.230717 34.995228 
Q 512.549379 35.182676 512.774317 35.670041 
Q 512.999255 36.157407 513.111724 36.419834 
Q 513.224193 36.682262 513.280428 37.375821 
Q 513.336662 38.069379 513.355407 38.331807 
Q 513.374152 38.594234 513.355407 39.419007 
Q 513.336662 40.243779 513.336662 40.431228 
Q 513.336662 41.368469 513.167959 43.242952 
Q 512.999255 45.117434 512.999255 46.054676 
Q 512.999255 46.467062 513.05549 46.823214 
Q 513.111724 47.179366 513.205448 47.610497 
Q 513.299172 48.041628 513.336662 48.304055 
L 513.786538 48.528993 
M 507.263338 23.111007 
Q 507.488276 24.798041 507.488276 29.971614 
L 507.488276 42.3432 
L 507.150869 46.841959 
L 506.925931 47.74171 
" clip-path="url(#p6f455a4ed2)" style="fill: none; stroke: #000000; stroke-linejoin: miter"/>
   </g>
  </g>
  <g id="axes_33">
   <g id="patch_28">
    <path d="M 532.043923 36.441748 
Q 530.834968 35.094627 526.862687 35.094627 
Q 525.342857 35.094627 524.565672 35.146439 
Q 523.788486 35.198252 522.78678 35.440043 
Q 521.785075 35.681834 521.301493 36.182687 
Q 520.81791 36.683539 520.472495 37.616162 
Q 520.127079 38.548785 520.127079 39.964989 
Q 520.127079 42.037484 521.543284 43.280981 
Q 522.959488 44.524478 524.893817 44.524478 
Q 527.553518 44.524478 530.316844 38.721493 
Q 531.663966 35.854542 531.663966 35.82 
Q 532.009382 35.578209 532.043923 36.441748 
Q 532.043923 37.512537 532.458422 40.362217 
Q 532.872921 43.211898 532.872921 44.524478 
" clip-path="url(#pf07b49c90b)" style="fill: none; stroke: #000000; stroke-linejoin: miter"/>
   </g>
  </g>
  <g id="axes_34">
   <g id="patch_29">
    <path d="M 538.238731 37.282097 
L 538.238731 37.844441 
Q 538.501159 39.868883 538.538648 41.312234 
Q 538.576138 42.755586 538.482414 44.667559 
Q 538.38869 46.579531 538.38869 48.191586 
L 538.463669 39.643945 
Q 538.463669 38.144359 540.056979 37.507034 
Q 541.65029 36.86971 543.074897 37.282097 
Q 544.986869 37.844441 545.905366 39.04411 
Q 546.823862 40.243779 546.880097 41.668386 
Q 546.936331 43.092993 546.973821 44.817517 
Q 547.01131 46.542041 547.161269 48.191586 
" clip-path="url(#pb194fa78c7)" style="fill: none; stroke: #000000; stroke-linejoin: miter"/>
   </g>
  </g>
  <g id="axes_35">
   <g id="patch_30">
    <path d="M 554.063834 37.95691 
L 554.738648 37.95691 
Q 555.450952 37.95691 556.238234 37.881931 
Q 557.025517 37.806952 557.981503 37.675738 
Q 558.93749 37.544524 559.462345 37.507034 
L 563.736166 35.82 
M 559.687283 30.42149 
L 559.687283 31.43371 
Q 559.687283 33.383172 559.012469 37.207117 
Q 558.337655 41.031062 558.337655 43.018014 
Q 558.337655 43.805297 558.337655 44.105214 
Q 558.337655 44.405131 558.431379 45.042455 
Q 558.525103 45.679779 558.712552 45.960952 
Q 558.9 46.242124 559.293641 46.485807 
Q 559.687283 46.72949 560.249628 46.72949 
Q 560.362097 46.692 560.680759 46.72949 
Q 560.999421 46.766979 561.186869 46.710745 
Q 561.374317 46.65451 561.374317 46.392083 
" clip-path="url(#p9797e78f1f)" style="fill: none; stroke: #000000; stroke-linejoin: miter"/>
   </g>
  </g>
  <g id="axes_36">
   <g id="patch_31">
    <path d="M 578.3616 35.032717 
Q 577.31189 34.582841 576.337159 34.69531 
Q 573.300497 35.032717 571.388524 36.701007 
Q 569.476552 38.369297 569.476552 41.330979 
Q 569.476552 43.917766 571.482248 45.6048 
Q 573.487945 47.291834 576.112221 47.291834 
Q 578.474069 47.291834 579.598759 45.361117 
Q 580.723448 43.4304 580.723448 40.881103 
Q 580.723448 39.643945 580.311062 38.706703 
Q 579.898676 37.769462 579.373821 37.300841 
Q 578.848966 36.832221 578.099172 36.119917 
Q 577.349379 35.407614 576.899503 34.69531 
L 575.662345 34.245434 
" clip-path="url(#pc2ce5a5aa7)" style="fill: none; stroke: #000000; stroke-linejoin: miter"/>
   </g>
  </g>
  <g id="axes_37">
   <g id="patch_32">
    <path d="M 585.008036 34.879821 
Q 585.514286 36.073125 585.803571 42.871339 
Q 585.948214 46.632054 586.2375 46.632054 
Q 586.273661 46.632054 586.309821 46.595893 
Q 586.816071 46.017321 586.870312 44.588973 
Q 586.924554 43.160625 586.707589 41.750357 
Q 586.490625 40.340089 586.2375 38.712857 
Q 585.984375 37.085625 585.984375 36.398571 
Q 585.984375 35.169107 586.364062 33.939643 
Q 586.74375 32.710179 587.720089 32.710179 
Q 588.949554 32.710179 589.672768 34.355491 
Q 590.395982 36.000804 590.558705 37.971562 
Q 590.721429 39.942321 590.829911 41.587634 
Q 590.938393 43.232946 591.083036 43.232946 
Q 591.227679 43.232946 591.31808 41.497232 
Q 591.408482 39.761518 591.535045 37.700357 
Q 591.661607 35.639196 592.384821 33.903482 
Q 593.108036 32.167768 594.3375 32.167768 
Q 595.892411 33.035625 596.561384 34.771339 
Q 597.230357 36.507054 597.194196 38.188527 
Q 597.158036 39.87 597.176116 42.057723 
Q 597.194196 44.245446 597.591964 45.511071 
" clip-path="url(#pf365592521)" style="fill: none; stroke: #000000; stroke-linejoin: miter"/>
   </g>
  </g>
  <g id="axes_38">
   <g id="patch_33">
    <path d="M 606.787697 39.981352 
Q 607.799917 40.956083 608.137324 42.905545 
Q 608.324772 43.955255 607.912386 46.167145 
L 606.675228 47.629241 
" clip-path="url(#p2f0e4a8458)" style="fill: none; stroke: #000000; stroke-linejoin: miter"/>
   </g>
  </g>
 </g>
 <defs>
  <clipPath id="p009908ba7b">
   <rect x="5.325766" y="8.64" width="5.548469" height="54.36"/>
  </clipPath>
  <clipPath id="p9540defe00">
   <rect x="16.2" y="20.054899" width="16.2" height="31.530201"/>
  </clipPath>
  <clipPath id="p4b4175f837">
   <rect x="35.138979" y="8.64" width="10.722041" height="54.36"/>
  </clipPath>
  <clipPath id="p96be76fd83">
   <rect x="48.6" y="8.881927" width="16.2" height="53.876147"/>
  </clipPath>
  <clipPath id="pb7eaed2051">
   <rect x="81" y="11.850612" width="16.2" height="47.938776"/>
  </clipPath>
  <clipPath id="p2710248b92">
   <rect x="99.938979" y="8.64" width="10.722041" height="54.36"/>
  </clipPath>
  <clipPath id="p383713d85c">
   <rect x="113.4" y="8.881927" width="16.2" height="53.876147"/>
  </clipPath>
  <clipPath id="p1837dfb677">
   <rect x="129.6" y="8.881927" width="16.2" height="53.876147"/>
  </clipPath>
  <clipPath id="p23e515ffe4">
   <rect x="147.582993" y="8.64" width="12.634014" height="54.36"/>
  </clipPath>
  <clipPath id="p7c5d0ccf74">
   <rect x="178.802069" y="8.64" width="14.995862" height="54.36"/>
  </clipPath>
  <clipPath id="pf1a25ae112">
   <rect x="194.4" y="9.949956" width="16.2" height="51.740088"/>
  </clipPath>
  <clipPath id="p8faae7a3e6">
   <rect x="227.851945" y="8.64" width="14.09611" height="54.36"/>
  </clipPath>
  <clipPath id="p149f0a57da">
   <rect x="243.602069" y="8.64" width="14.995862" height="54.36"/>
  </clipPath>
  <clipPath id="pc948c9372b">
   <rect x="260.589352" y="8.64" width="13.421297" height="54.36"/>
  </clipPath>
  <clipPath id="pd0798e4c42">
   <rect x="280.800745" y="8.64" width="5.39851" height="54.36"/>
  </clipPath>
  <clipPath id="p3d6ec66763">
   <rect x="308.851945" y="8.64" width="14.09611" height="54.36"/>
  </clipPath>
  <clipPath id="p65a3acf46b">
   <rect x="324.602069" y="8.64" width="14.995862" height="54.36"/>
  </clipPath>
  <clipPath id="p1a901a9453">
   <rect x="341.589352" y="8.64" width="13.421297" height="54.36"/>
  </clipPath>
  <clipPath id="p2ae05a204f">
   <rect x="362.213131" y="8.64" width="4.573738" height="54.36"/>
  </clipPath>
  <clipPath id="p735d536c2b">
   <rect x="378.413131" y="8.64" width="4.573738" height="54.36"/>
  </clipPath>
  <clipPath id="pa9072c8ac8">
   <rect x="394.613131" y="8.64" width="4.573738" height="54.36"/>
  </clipPath>
  <clipPath id="pa3d45ab69f">
   <rect x="422.251945" y="8.64" width="14.09611" height="54.36"/>
  </clipPath>
  <clipPath id="p9849997ade">
   <rect x="438.002069" y="8.64" width="14.995862" height="54.36"/>
  </clipPath>
  <clipPath id="p84271b3f96">
   <rect x="454.989352" y="8.64" width="13.421297" height="54.36"/>
  </clipPath>
  <clipPath id="p38dcee6cf0">
   <rect x="486.883241" y="8.64" width="14.433517" height="54.36"/>
  </clipPath>
  <clipPath id="p6f455a4ed2">
   <rect x="504.938979" y="8.64" width="10.722041" height="54.36"/>
  </clipPath>
  <clipPath id="pf07b49c90b">
   <rect x="518.4" y="10.777356" width="16.2" height="50.085288"/>
  </clipPath>
  <clipPath id="pb194fa78c7">
   <rect x="536.364248" y="8.64" width="12.671503" height="54.36"/>
  </clipPath>
  <clipPath id="p9797e78f1f">
   <rect x="552.189352" y="8.64" width="13.421297" height="54.36"/>
  </clipPath>
  <clipPath id="pc2ce5a5aa7">
   <rect x="567.602069" y="8.64" width="14.995862" height="54.36"/>
  </clipPath>
  <clipPath id="pf365592521">
   <rect x="583.2" y="9.603482" width="16.2" height="52.433036"/>
  </clipPath>
  <clipPath id="p2f0e4a8458">
   <rect x="604.800745" y="8.64" width="5.39851" height="54.36"/>
  </clipPath>
 </defs>
</svg>
