<?xml version="1.0" encoding="utf-8" standalone="no"?>
<!DOCTYPE svg PUBLIC "-//W3C//DTD SVG 1.1//EN"
  "http://www.w3.org/Graphics/SVG/1.1/DTD/svg11.dtd">
<svg xmlns:xlink="http://www.w3.org/1999/xlink" width="684pt" height="72pt" viewBox="0 0 684 72" xmlns="http://www.w3.org/2000/svg" version="1.1">
 <metadata>
  <rdf:RDF xmlns:dc="http://purl.org/dc/elements/1.1/" xmlns:cc="http://creativecommons.org/ns#" xmlns:rdf="http://www.w3.org/1999/02/22-rdf-syntax-ns#">
   <cc:Work>
    <dc:type rdf:resource="http://purl.org/dc/dcmitype/StillImage"/>
    <dc:date>2024-01-04T18:41:44.039096</dc:date>
    <dc:format>image/svg+xml</dc:format>
    <dc:creator>
     <cc:Agent>
      <dc:title>Matplotlib v3.7.1, https://matplotlib.org/</dc:title>
     </cc:Agent>
    </dc:creator>
   </cc:Work>
  </rdf:RDF>
 </metadata>
 <defs>
  <style type="text/css">*{stroke-linejoin: round; stroke-linecap: butt}</style>
 </defs>
 <g id="figure_1">
  <g id="patch_1">
   <path d="M 0 72 
L 684 72 
L 684 0 
L 0 0 
z
" style="fill: #8fff9f"/>
  </g>
  <g id="axes_1">
   <g id="patch_2">
    <path d="M 3.638731 37.282097 
L 3.638731 37.844441 
Q 3.901159 39.868883 3.938648 41.312234 
Q 3.976138 42.755586 3.882414 44.667559 
Q 3.78869 46.579531 3.78869 48.191586 
L 3.863669 39.643945 
Q 3.863669 38.144359 5.456979 37.507034 
Q 7.05029 36.86971 8.474897 37.282097 
Q 10.386869 37.844441 11.305366 39.04411 
Q 12.223862 40.243779 12.280097 41.668386 
Q 12.336331 43.092993 12.373821 44.817517 
Q 12.41131 46.542041 12.561269 48.191586 
" clip-path="url(#pae6da892bb)" style="fill: none; stroke: #000000; stroke-linejoin: miter"/>
   </g>
  </g>
  <g id="axes_2">
   <g id="patch_3">
    <path d="M 24.918579 29.071862 
Q 24.543683 29.146841 24.412469 29.577972 
Q 24.281255 30.009103 24.356234 30.42149 
Q 24.356234 30.571448 24.393724 30.702662 
Q 24.431214 30.833876 24.487448 30.89011 
Q 24.543683 30.946345 24.599917 31.040069 
Q 24.656152 31.133793 24.693641 31.208772 
L 24.80611 29.859145 
M 24.80611 34.020497 
Q 23.906359 39.006621 23.681421 42.793076 
L 24.131297 45.379862 
L 24.468703 46.054676 
" clip-path="url(#pd744d82f64)" style="fill: none; stroke: #000000; stroke-linejoin: miter"/>
   </g>
  </g>
  <g id="axes_3">
   <g id="patch_4">
    <path d="M 34.257798 38.160826 
Q 37.230275 39.535596 41.949083 39.721376 
Q 43.472477 39.721376 44.159862 38.550963 
Q 44.847248 37.38055 44.847248 35.82 
Q 44.847248 35.299817 44.754358 34.909679 
Q 44.661468 34.519541 44.419954 34.296606 
Q 44.17844 34.07367 44.011239 33.943624 
Q 43.844037 33.813578 43.398165 33.757844 
Q 42.952294 33.70211 42.747936 33.683532 
Q 42.543578 33.664954 41.967661 33.683532 
Q 41.391743 33.70211 41.168807 33.70211 
Q 39.125229 33.70211 37.638991 35.578486 
Q 36.152752 37.454862 36.152752 39.609908 
Q 36.152752 42.619541 38.084862 44.570229 
Q 40.016972 46.520917 43.063761 46.520917 
Q 45.218807 46.818165 46.742202 44.29156 
" clip-path="url(#pb2ff31a687)" style="fill: none; stroke: #000000; stroke-linejoin: miter"/>
   </g>
  </g>
  <g id="axes_4">
   <g id="patch_5">
    <path d="M 52.238731 37.282097 
L 52.238731 37.844441 
Q 52.501159 39.868883 52.538648 41.312234 
Q 52.576138 42.755586 52.482414 44.667559 
Q 52.38869 46.579531 52.38869 48.191586 
L 52.463669 39.643945 
Q 52.463669 38.144359 54.056979 37.507034 
Q 55.65029 36.86971 57.074897 37.282097 
Q 58.986869 37.844441 59.905366 39.04411 
Q 60.823862 40.243779 60.880097 41.668386 
Q 60.936331 43.092993 60.973821 44.817517 
Q 61.01131 46.542041 61.161269 48.191586 
" clip-path="url(#p8fd4788895)" style="fill: none; stroke: #000000; stroke-linejoin: miter"/>
   </g>
  </g>
  <g id="axes_5">
   <g id="patch_6">
    <path d="M 78.156735 34.365306 
Q 78.156735 34.365306 77.660816 34.365306 
Q 76.867347 34.365306 75.379592 34.067755 
Q 73.891837 33.770204 73.098367 33.770204 
Q 70.321224 33.770204 68.387143 35.224898 
Q 66.453061 36.679592 66.453061 39.423673 
Q 66.453061 40.94449 67.940816 42.399184 
Q 69.428571 43.853878 71.362653 44.663878 
Q 73.296735 45.473878 74.78449 45.473878 
Q 75.710204 45.473878 76.40449 45.110204 
Q 77.098776 44.746531 77.842653 44.118367 
Q 78.586531 43.490204 79.148571 43.192653 
L 79.346939 42.696735 
" clip-path="url(#p11cebaa632)" style="fill: none; stroke: #000000; stroke-linejoin: miter"/>
   </g>
  </g>
  <g id="axes_6">
   <g id="patch_7">
    <path d="M 82.857798 38.160826 
Q 85.830275 39.535596 90.549083 39.721376 
Q 92.072477 39.721376 92.759862 38.550963 
Q 93.447248 37.38055 93.447248 35.82 
Q 93.447248 35.299817 93.354358 34.909679 
Q 93.261468 34.519541 93.019954 34.296606 
Q 92.77844 34.07367 92.611239 33.943624 
Q 92.444037 33.813578 91.998165 33.757844 
Q 91.552294 33.70211 91.347936 33.683532 
Q 91.143578 33.664954 90.567661 33.683532 
Q 89.991743 33.70211 89.768807 33.70211 
Q 87.725229 33.70211 86.238991 35.578486 
Q 84.752752 37.454862 84.752752 39.609908 
Q 84.752752 42.619541 86.684862 44.570229 
Q 88.616972 46.520917 91.663761 46.520917 
Q 93.818807 46.818165 95.342202 44.29156 
" clip-path="url(#p01f498b620)" style="fill: none; stroke: #000000; stroke-linejoin: miter"/>
   </g>
  </g>
  <g id="axes_7"/>
  <g id="axes_8">
   <g id="patch_8">
    <path d="M 124.7616 35.032717 
Q 123.71189 34.582841 122.737159 34.69531 
Q 119.700497 35.032717 117.788524 36.701007 
Q 115.876552 38.369297 115.876552 41.330979 
Q 115.876552 43.917766 117.882248 45.6048 
Q 119.887945 47.291834 122.512221 47.291834 
Q 124.874069 47.291834 125.998759 45.361117 
Q 127.123448 43.4304 127.123448 40.881103 
Q 127.123448 39.643945 126.711062 38.706703 
Q 126.298676 37.769462 125.773821 37.300841 
Q 125.248966 36.832221 124.499172 36.119917 
Q 123.749379 35.407614 123.299503 34.69531 
L 122.062345 34.245434 
" clip-path="url(#p938ae77a07)" style="fill: none; stroke: #000000; stroke-linejoin: miter"/>
   </g>
  </g>
  <g id="axes_9">
   <g id="patch_9">
    <path d="M 131.384141 38.85304 
L 131.812335 38.85304 
Q 132.63304 38.85304 133.596476 38.745991 
Q 134.559912 38.638943 135.719604 38.460529 
Q 136.879295 38.282115 137.485903 38.210749 
L 144.015859 35.427489 
M 143.694714 25.793128 
Q 143.409251 25.721762 142.374449 25.275727 
Q 141.339648 24.829692 140.697357 24.93674 
Q 140.055066 24.93674 139.537665 25.150837 
Q 139.020264 25.364934 138.681278 25.793128 
Q 138.342291 26.221322 138.07467 26.685198 
Q 137.807048 27.149075 137.664317 27.862731 
Q 137.521586 28.576388 137.414537 29.129471 
Q 137.307489 29.682555 137.289648 30.50326 
Q 137.271806 31.323965 137.253965 31.77 
Q 137.236123 32.216035 137.253965 32.965374 
Q 137.271806 33.714714 137.271806 33.928811 
Q 137.271806 36.605022 137.967621 41.850396 
Q 138.663436 47.095771 138.663436 49.771982 
Q 138.59207 50.057445 138.556388 50.681894 
Q 138.520705 51.306344 138.413656 51.805903 
Q 138.306608 52.305463 138.021145 52.555242 
" clip-path="url(#pb60675f341)" style="fill: none; stroke: #000000; stroke-linejoin: miter"/>
   </g>
  </g>
  <g id="axes_10"/>
  <g id="axes_11">
   <g id="patch_10">
    <path d="M 165.263834 37.95691 
L 165.938648 37.95691 
Q 166.650952 37.95691 167.438234 37.881931 
Q 168.225517 37.806952 169.181503 37.675738 
Q 170.13749 37.544524 170.662345 37.507034 
L 174.936166 35.82 
M 170.887283 30.42149 
L 170.887283 31.43371 
Q 170.887283 33.383172 170.212469 37.207117 
Q 169.537655 41.031062 169.537655 43.018014 
Q 169.537655 43.805297 169.537655 44.105214 
Q 169.537655 44.405131 169.631379 45.042455 
Q 169.725103 45.679779 169.912552 45.960952 
Q 170.1 46.242124 170.493641 46.485807 
Q 170.887283 46.72949 171.449628 46.72949 
Q 171.562097 46.692 171.880759 46.72949 
Q 172.199421 46.766979 172.386869 46.710745 
Q 172.574317 46.65451 172.574317 46.392083 
" clip-path="url(#p4891782290)" style="fill: none; stroke: #000000; stroke-linejoin: miter"/>
   </g>
  </g>
  <g id="axes_12">
   <g id="patch_11">
    <path d="M 182.813462 35.932469 
Q 183.413297 35.257655 184.406772 34.826524 
Q 185.400248 34.395393 186.3 34.470372 
Q 186.937324 34.470372 187.42469 34.639076 
Q 187.912055 34.807779 188.230717 34.995228 
Q 188.549379 35.182676 188.774317 35.670041 
Q 188.999255 36.157407 189.111724 36.419834 
Q 189.224193 36.682262 189.280428 37.375821 
Q 189.336662 38.069379 189.355407 38.331807 
Q 189.374152 38.594234 189.355407 39.419007 
Q 189.336662 40.243779 189.336662 40.431228 
Q 189.336662 41.368469 189.167959 43.242952 
Q 188.999255 45.117434 188.999255 46.054676 
Q 188.999255 46.467062 189.05549 46.823214 
Q 189.111724 47.179366 189.205448 47.610497 
Q 189.299172 48.041628 189.336662 48.304055 
L 189.786538 48.528993 
M 183.263338 23.111007 
Q 183.488276 24.798041 183.488276 29.971614 
L 183.488276 42.3432 
L 183.150869 46.841959 
L 182.925931 47.74171 
" clip-path="url(#pd4b87bbf70)" style="fill: none; stroke: #000000; stroke-linejoin: miter"/>
   </g>
  </g>
  <g id="axes_13">
   <g id="patch_12">
    <path d="M 203.118579 29.071862 
Q 202.743683 29.146841 202.612469 29.577972 
Q 202.481255 30.009103 202.556234 30.42149 
Q 202.556234 30.571448 202.593724 30.702662 
Q 202.631214 30.833876 202.687448 30.89011 
Q 202.743683 30.946345 202.799917 31.040069 
Q 202.856152 31.133793 202.893641 31.208772 
L 203.00611 29.859145 
M 203.00611 34.020497 
Q 202.106359 39.006621 201.881421 42.793076 
L 202.331297 45.379862 
L 202.668703 46.054676 
" clip-path="url(#p1a009ae4f3)" style="fill: none; stroke: #000000; stroke-linejoin: miter"/>
   </g>
  </g>
  <g id="axes_14">
   <g id="patch_13">
    <path d="M 214.257476 43.917766 
Q 214.557393 44.180193 215.569614 45.154924 
Q 216.581834 46.129655 217.144179 46.560786 
Q 217.706524 46.991917 218.73749 47.385559 
Q 219.768455 47.7792 220.780676 47.629241 
Q 221.45549 47.629241 221.92411 47.404303 
Q 222.392731 47.179366 222.617669 46.879448 
Q 222.842607 46.579531 222.973821 45.979697 
Q 223.105034 45.379862 223.123779 44.967476 
Q 223.142524 44.55509 223.142524 43.805297 
Q 223.142524 42.718097 222.242772 42.043283 
Q 221.343021 41.368469 220.049628 41.031062 
Q 218.756234 40.693655 217.462841 40.300014 
Q 216.169448 39.906372 215.269697 38.987876 
Q 214.369945 38.069379 214.369945 36.607283 
Q 214.369945 36.082428 214.538648 35.726276 
Q 214.707352 35.370124 215.100993 35.145186 
Q 215.494634 34.920248 215.775807 34.807779 
Q 216.056979 34.69531 216.713048 34.639076 
Q 217.369117 34.582841 217.556566 34.582841 
Q 217.744014 34.582841 218.418828 34.582841 
Q 219.618497 34.582841 220.199586 34.995228 
Q 220.780676 35.407614 221.099338 36.026193 
Q 221.418 36.644772 221.680428 36.832221 
" clip-path="url(#peaf12990b2)" style="fill: none; stroke: #000000; stroke-linejoin: miter"/>
   </g>
  </g>
  <g id="axes_15"/>
  <g id="axes_16">
   <g id="patch_14">
    <path d="M 246.488772 35.145186 
Q 246.488772 35.145186 246.488772 35.595062 
Q 246.488772 36.269876 246.376303 37.619503 
Q 246.263834 38.969131 246.263834 39.643945 
Q 246.263834 41.930814 247.500993 43.599103 
Q 248.738152 45.267393 250.875062 45.267393 
Q 252.262179 45.154924 253.030717 43.917766 
Q 253.799255 42.680607 253.949214 41.237255 
Q 254.099172 39.793903 254.3616 37.9944 
Q 254.624028 36.194897 255.036414 35.370124 
Q 255.186372 35.070207 255.186372 35.670041 
Q 255.186372 36.269876 254.923945 38.706703 
Q 254.699007 41.031062 254.699007 41.555917 
Q 254.549048 42.643117 254.886455 43.767807 
Q 255.223862 44.892497 255.936166 45.6048 
" clip-path="url(#p36012557cd)" style="fill: none; stroke: #000000; stroke-linejoin: miter"/>
   </g>
  </g>
  <g id="axes_17">
   <g id="patch_15">
    <path d="M 262.838731 37.282097 
L 262.838731 37.844441 
Q 263.101159 39.868883 263.138648 41.312234 
Q 263.176138 42.755586 263.082414 44.667559 
Q 262.98869 46.579531 262.98869 48.191586 
L 263.063669 39.643945 
Q 263.063669 38.144359 264.656979 37.507034 
Q 266.25029 36.86971 267.674897 37.282097 
Q 269.586869 37.844441 270.505366 39.04411 
Q 271.423862 40.243779 271.480097 41.668386 
Q 271.536331 43.092993 271.573821 44.817517 
Q 271.61131 46.542041 271.761269 48.191586 
" clip-path="url(#pfa6e3bc749)" style="fill: none; stroke: #000000; stroke-linejoin: miter"/>
   </g>
  </g>
  <g id="axes_18">
   <g id="patch_16">
    <path d="M 277.257798 38.160826 
Q 280.230275 39.535596 284.949083 39.721376 
Q 286.472477 39.721376 287.159862 38.550963 
Q 287.847248 37.38055 287.847248 35.82 
Q 287.847248 35.299817 287.754358 34.909679 
Q 287.661468 34.519541 287.419954 34.296606 
Q 287.17844 34.07367 287.011239 33.943624 
Q 286.844037 33.813578 286.398165 33.757844 
Q 285.952294 33.70211 285.747936 33.683532 
Q 285.543578 33.664954 284.967661 33.683532 
Q 284.391743 33.70211 284.168807 33.70211 
Q 282.125229 33.70211 280.638991 35.578486 
Q 279.152752 37.454862 279.152752 39.609908 
Q 279.152752 42.619541 281.084862 44.570229 
Q 283.016972 46.520917 286.063761 46.520917 
Q 288.218807 46.818165 289.742202 44.29156 
" clip-path="url(#p71c146d4ac)" style="fill: none; stroke: #000000; stroke-linejoin: miter"/>
   </g>
  </g>
  <g id="axes_19">
   <g id="patch_17">
    <path d="M 303.299007 34.920248 
Q 302.436745 36.007448 299.325103 40.018841 
Q 296.213462 44.030234 294.526428 46.054676 
M 295.426179 36.044938 
Q 297.300662 37.319586 299.793724 40.843614 
Q 302.286786 44.367641 303.861352 45.6048 
L 304.873572 45.942207 
" clip-path="url(#pef43e56148)" style="fill: none; stroke: #000000; stroke-linejoin: miter"/>
   </g>
  </g>
  <g id="axes_20">
   <g id="patch_18">
    <path d="M 311.120069 39.868883 
L 311.120069 39.419007 
Q 311.120069 37.769462 312.863338 36.682262 
Q 314.606607 35.595062 316.293641 35.595062 
Q 318.505531 35.595062 319.873903 36.794731 
Q 321.242276 37.9944 321.242276 40.20629 
Q 321.242276 42.30571 319.424028 43.336676 
Q 317.605779 44.367641 315.39389 44.367641 
Q 314.719076 44.367641 314.212966 44.255172 
Q 313.706855 44.142703 313.088276 43.917766 
Q 312.469697 43.692828 312.019821 43.580359 
L 310.895131 42.568138 
M 310.557724 36.832221 
Q 311.0076 38.444276 311.270028 40.262524 
Q 311.532455 42.080772 311.58869 43.749062 
Q 311.644924 45.417352 311.682414 47.27309 
Q 311.719903 49.128828 311.682414 50.778372 
L 311.569945 57.863917 
" clip-path="url(#p9290a48a93)" style="fill: none; stroke: #000000; stroke-linejoin: miter"/>
   </g>
  </g>
  <g id="axes_21">
   <g id="patch_19">
    <path d="M 325.857798 38.160826 
Q 328.830275 39.535596 333.549083 39.721376 
Q 335.072477 39.721376 335.759862 38.550963 
Q 336.447248 37.38055 336.447248 35.82 
Q 336.447248 35.299817 336.354358 34.909679 
Q 336.261468 34.519541 336.019954 34.296606 
Q 335.77844 34.07367 335.611239 33.943624 
Q 335.444037 33.813578 334.998165 33.757844 
Q 334.552294 33.70211 334.347936 33.683532 
Q 334.143578 33.664954 333.567661 33.683532 
Q 332.991743 33.70211 332.768807 33.70211 
Q 330.725229 33.70211 329.238991 35.578486 
Q 327.752752 37.454862 327.752752 39.609908 
Q 327.752752 42.619541 329.684862 44.570229 
Q 331.616972 46.520917 334.663761 46.520917 
Q 336.818807 46.818165 338.342202 44.29156 
" clip-path="url(#p455990544f)" style="fill: none; stroke: #000000; stroke-linejoin: miter"/>
   </g>
  </g>
  <g id="axes_22">
   <g id="patch_20">
    <path d="M 353.556735 34.365306 
Q 353.556735 34.365306 353.060816 34.365306 
Q 352.267347 34.365306 350.779592 34.067755 
Q 349.291837 33.770204 348.498367 33.770204 
Q 345.721224 33.770204 343.787143 35.224898 
Q 341.853061 36.679592 341.853061 39.423673 
Q 341.853061 40.94449 343.340816 42.399184 
Q 344.828571 43.853878 346.762653 44.663878 
Q 348.696735 45.473878 350.18449 45.473878 
Q 351.110204 45.473878 351.80449 45.110204 
Q 352.498776 44.746531 353.242653 44.118367 
Q 353.986531 43.490204 354.548571 43.192653 
L 354.746939 42.696735 
" clip-path="url(#p97100ac1b7)" style="fill: none; stroke: #000000; stroke-linejoin: miter"/>
   </g>
  </g>
  <g id="axes_23">
   <g id="patch_21">
    <path d="M 359.663834 37.95691 
L 360.338648 37.95691 
Q 361.050952 37.95691 361.838234 37.881931 
Q 362.625517 37.806952 363.581503 37.675738 
Q 364.53749 37.544524 365.062345 37.507034 
L 369.336166 35.82 
M 365.287283 30.42149 
L 365.287283 31.43371 
Q 365.287283 33.383172 364.612469 37.207117 
Q 363.937655 41.031062 363.937655 43.018014 
Q 363.937655 43.805297 363.937655 44.105214 
Q 363.937655 44.405131 364.031379 45.042455 
Q 364.125103 45.679779 364.312552 45.960952 
Q 364.5 46.242124 364.893641 46.485807 
Q 365.287283 46.72949 365.849628 46.72949 
Q 365.962097 46.692 366.280759 46.72949 
Q 366.599421 46.766979 366.786869 46.710745 
Q 366.974317 46.65451 366.974317 46.392083 
" clip-path="url(#p67fc838c82)" style="fill: none; stroke: #000000; stroke-linejoin: miter"/>
   </g>
  </g>
  <g id="axes_24">
   <g id="patch_22">
    <path d="M 374.457798 38.160826 
Q 377.430275 39.535596 382.149083 39.721376 
Q 383.672477 39.721376 384.359862 38.550963 
Q 385.047248 37.38055 385.047248 35.82 
Q 385.047248 35.299817 384.954358 34.909679 
Q 384.861468 34.519541 384.619954 34.296606 
Q 384.37844 34.07367 384.211239 33.943624 
Q 384.044037 33.813578 383.598165 33.757844 
Q 383.152294 33.70211 382.947936 33.683532 
Q 382.743578 33.664954 382.167661 33.683532 
Q 381.591743 33.70211 381.368807 33.70211 
Q 379.325229 33.70211 377.838991 35.578486 
Q 376.352752 37.454862 376.352752 39.609908 
Q 376.352752 42.619541 378.284862 44.570229 
Q 380.216972 46.520917 383.263761 46.520917 
Q 385.418807 46.818165 386.942202 44.29156 
" clip-path="url(#p96b39edeb0)" style="fill: none; stroke: #000000; stroke-linejoin: miter"/>
   </g>
  </g>
  <g id="axes_25">
   <g id="patch_23">
    <path d="M 400.499007 39.568966 
Q 399.149379 38.181848 396.9 38.444276 
Q 394.050786 38.444276 392.888607 39.793903 
Q 391.726428 41.143531 391.726428 44.067724 
Q 391.726428 45.56731 393.019821 46.279614 
Q 394.313214 46.991917 395.887779 46.991917 
Q 397.199917 46.991917 398.212138 45.736014 
Q 399.224359 44.48011 399.805448 42.30571 
Q 400.386538 40.13131 400.761434 37.938166 
Q 401.136331 35.745021 401.28629 33.045766 
Q 401.436248 30.34651 401.473738 28.978138 
Q 401.511228 27.609766 401.511228 26.185159 
Q 401.28629 26.260138 401.28629 29.896634 
L 401.28629 44.292662 
L 402.073572 48.229076 
" clip-path="url(#p4696c12b54)" style="fill: none; stroke: #000000; stroke-linejoin: miter"/>
   </g>
  </g>
  <g id="axes_26">
   <g id="patch_24">
    <path d="M 412.387697 39.981352 
Q 413.399917 40.956083 413.737324 42.905545 
Q 413.924772 43.955255 413.512386 46.167145 
L 412.275228 47.629241 
" clip-path="url(#p79b97168e0)" style="fill: none; stroke: #000000; stroke-linejoin: miter"/>
   </g>
  </g>
  <g id="axes_27"/>
  <g id="axes_28">
   <g id="patch_25">
    <path d="M 451.043923 36.441748 
Q 449.834968 35.094627 445.862687 35.094627 
Q 444.342857 35.094627 443.565672 35.146439 
Q 442.788486 35.198252 441.78678 35.440043 
Q 440.785075 35.681834 440.301493 36.182687 
Q 439.81791 36.683539 439.472495 37.616162 
Q 439.127079 38.548785 439.127079 39.964989 
Q 439.127079 42.037484 440.543284 43.280981 
Q 441.959488 44.524478 443.893817 44.524478 
Q 446.553518 44.524478 449.316844 38.721493 
Q 450.663966 35.854542 450.663966 35.82 
Q 451.009382 35.578209 451.043923 36.441748 
Q 451.043923 37.512537 451.458422 40.362217 
Q 451.872921 43.211898 451.872921 44.524478 
" clip-path="url(#pa6fb6c2198)" style="fill: none; stroke: #000000; stroke-linejoin: miter"/>
   </g>
  </g>
  <g id="axes_29">
   <g id="patch_26">
    <path d="M 457.238731 37.282097 
L 457.238731 37.844441 
Q 457.501159 39.868883 457.538648 41.312234 
Q 457.576138 42.755586 457.482414 44.667559 
Q 457.38869 46.579531 457.38869 48.191586 
L 457.463669 39.643945 
Q 457.463669 38.144359 459.056979 37.507034 
Q 460.65029 36.86971 462.074897 37.282097 
Q 463.986869 37.844441 464.905366 39.04411 
Q 465.823862 40.243779 465.880097 41.668386 
Q 465.936331 43.092993 465.973821 44.817517 
Q 466.01131 46.542041 466.161269 48.191586 
" clip-path="url(#p3905ada7f9)" style="fill: none; stroke: #000000; stroke-linejoin: miter"/>
   </g>
  </g>
  <g id="axes_30">
   <g id="patch_27">
    <path d="M 481.499007 39.568966 
Q 480.149379 38.181848 477.9 38.444276 
Q 475.050786 38.444276 473.888607 39.793903 
Q 472.726428 41.143531 472.726428 44.067724 
Q 472.726428 45.56731 474.019821 46.279614 
Q 475.313214 46.991917 476.887779 46.991917 
Q 478.199917 46.991917 479.212138 45.736014 
Q 480.224359 44.48011 480.805448 42.30571 
Q 481.386538 40.13131 481.761434 37.938166 
Q 482.136331 35.745021 482.28629 33.045766 
Q 482.436248 30.34651 482.473738 28.978138 
Q 482.511228 27.609766 482.511228 26.185159 
Q 482.28629 26.260138 482.28629 29.896634 
L 482.28629 44.292662 
L 483.073572 48.229076 
" clip-path="url(#pb3edfd4520)" style="fill: none; stroke: #000000; stroke-linejoin: miter"/>
   </g>
  </g>
  <g id="axes_31"/>
  <g id="axes_32">
   <g id="patch_28">
    <path d="M 503.514935 43.209935 
L 517.085065 43.209935 
M 504.856169 30.007987 
L 515.743831 29.929091 
M 509.747727 30.323571 
L 509.747727 30.718052 
Q 509.747727 32.243377 509.839773 33.99224 
Q 509.931818 35.741104 510.08961 37.910747 
Q 510.247403 40.08039 510.3 41.211234 
L 510.457792 43.025844 
" clip-path="url(#p573e4148b6)" style="fill: none; stroke: #000000; stroke-linejoin: miter"/>
   </g>
  </g>
  <g id="axes_33"/>
  <g id="axes_34">
   <g id="patch_29">
    <path d="M 536.408036 34.879821 
Q 536.914286 36.073125 537.203571 42.871339 
Q 537.348214 46.632054 537.6375 46.632054 
Q 537.673661 46.632054 537.709821 46.595893 
Q 538.216071 46.017321 538.270312 44.588973 
Q 538.324554 43.160625 538.107589 41.750357 
Q 537.890625 40.340089 537.6375 38.712857 
Q 537.384375 37.085625 537.384375 36.398571 
Q 537.384375 35.169107 537.764062 33.939643 
Q 538.14375 32.710179 539.120089 32.710179 
Q 540.349554 32.710179 541.072768 34.355491 
Q 541.795982 36.000804 541.958705 37.971562 
Q 542.121429 39.942321 542.229911 41.587634 
Q 542.338393 43.232946 542.483036 43.232946 
Q 542.627679 43.232946 542.71808 41.497232 
Q 542.808482 39.761518 542.935045 37.700357 
Q 543.061607 35.639196 543.784821 33.903482 
Q 544.508036 32.167768 545.7375 32.167768 
Q 547.292411 33.035625 547.961384 34.771339 
Q 548.630357 36.507054 548.594196 38.188527 
Q 548.558036 39.87 548.576116 42.057723 
Q 548.594196 44.245446 548.991964 45.511071 
" clip-path="url(#p13f6b774f9)" style="fill: none; stroke: #000000; stroke-linejoin: miter"/>
   </g>
  </g>
  <g id="axes_35">
   <g id="patch_30">
    <path d="M 559.518579 29.071862 
Q 559.143683 29.146841 559.012469 29.577972 
Q 558.881255 30.009103 558.956234 30.42149 
Q 558.956234 30.571448 558.993724 30.702662 
Q 559.031214 30.833876 559.087448 30.89011 
Q 559.143683 30.946345 559.199917 31.040069 
Q 559.256152 31.133793 559.293641 31.208772 
L 559.40611 29.859145 
M 559.40611 34.020497 
Q 558.506359 39.006621 558.281421 42.793076 
L 558.731297 45.379862 
L 559.068703 46.054676 
" clip-path="url(#pa9c365f84a)" style="fill: none; stroke: #000000; stroke-linejoin: miter"/>
   </g>
  </g>
  <g id="axes_36">
   <g id="patch_31">
    <path d="M 579.887191 39.096404 
Q 579.63236 39.023596 578.66764 38.623146 
Q 577.702921 38.222697 577.04764 38.077079 
Q 576.39236 37.931461 575.737079 38.00427 
Q 573.115955 38.00427 571.477753 40.388764 
Q 569.839551 42.773258 569.839551 45.430787 
Q 569.839551 47.068989 575.081798 47.068989 
Q 576.647191 47.068989 577.975955 45.558202 
Q 579.304719 44.047416 579.978202 42.172584 
Q 580.651685 40.297753 580.651685 38.768764 
Q 580.651685 37.27618 580.615281 36.984944 
L 580.542472 38.077079 
Q 580.542472 38.550337 580.542472 38.987191 
Q 580.578876 40.188539 580.779101 42.281798 
Q 580.979326 44.375056 581.143146 46.049663 
Q 581.306966 47.72427 581.343371 49.872135 
Q 581.379775 52.02 581.215955 53.658202 
Q 581.052135 55.296404 580.487865 56.971011 
Q 579.923596 58.645618 578.995281 59.737753 
Q 578.066966 60.829888 576.465169 61.521573 
Q 574.863371 62.213258 572.715506 62.213258 
Q 571.077303 62.213258 569.985169 61.466966 
Q 568.893034 60.720674 568.893034 59.155281 
Q 568.820225 58.936854 568.856629 58.936854 
Q 568.893034 58.936854 569.002247 58.936854 
Q 569.111461 58.936854 569.111461 58.82764 
" clip-path="url(#p3eb47749dd)" style="fill: none; stroke: #000000; stroke-linejoin: miter"/>
   </g>
  </g>
  <g id="axes_37">
   <g id="patch_32">
    <path d="M 587.813462 35.932469 
Q 588.413297 35.257655 589.406772 34.826524 
Q 590.400248 34.395393 591.3 34.470372 
Q 591.937324 34.470372 592.42469 34.639076 
Q 592.912055 34.807779 593.230717 34.995228 
Q 593.549379 35.182676 593.774317 35.670041 
Q 593.999255 36.157407 594.111724 36.419834 
Q 594.224193 36.682262 594.280428 37.375821 
Q 594.336662 38.069379 594.355407 38.331807 
Q 594.374152 38.594234 594.355407 39.419007 
Q 594.336662 40.243779 594.336662 40.431228 
Q 594.336662 41.368469 594.167959 43.242952 
Q 593.999255 45.117434 593.999255 46.054676 
Q 593.999255 46.467062 594.05549 46.823214 
Q 594.111724 47.179366 594.205448 47.610497 
Q 594.299172 48.041628 594.336662 48.304055 
L 594.786538 48.528993 
M 588.263338 23.111007 
Q 588.488276 24.798041 588.488276 29.971614 
L 588.488276 42.3432 
L 588.150869 46.841959 
L 587.925931 47.74171 
" clip-path="url(#p6322b4266f)" style="fill: none; stroke: #000000; stroke-linejoin: miter"/>
   </g>
  </g>
  <g id="axes_38">
   <g id="patch_33">
    <path d="M 602.663834 37.95691 
L 603.338648 37.95691 
Q 604.050952 37.95691 604.838234 37.881931 
Q 605.625517 37.806952 606.581503 37.675738 
Q 607.53749 37.544524 608.062345 37.507034 
L 612.336166 35.82 
M 608.287283 30.42149 
L 608.287283 31.43371 
Q 608.287283 33.383172 607.612469 37.207117 
Q 606.937655 41.031062 606.937655 43.018014 
Q 606.937655 43.805297 606.937655 44.105214 
Q 606.937655 44.405131 607.031379 45.042455 
Q 607.125103 45.679779 607.312552 45.960952 
Q 607.5 46.242124 607.893641 46.485807 
Q 608.287283 46.72949 608.849628 46.72949 
Q 608.962097 46.692 609.280759 46.72949 
Q 609.599421 46.766979 609.786869 46.710745 
Q 609.974317 46.65451 609.974317 46.392083 
" clip-path="url(#pf00f1ed1c2)" style="fill: none; stroke: #000000; stroke-linejoin: miter"/>
   </g>
  </g>
 </g>
 <defs>
  <clipPath id="pae6da892bb">
   <rect x="1.764248" y="8.64" width="12.671503" height="54.36"/>
  </clipPath>
  <clipPath id="pd744d82f64">
   <rect x="21.806938" y="8.64" width="4.986124" height="54.36"/>
  </clipPath>
  <clipPath id="pb2ff31a687">
   <rect x="32.4" y="8.881927" width="16.2" height="53.876147"/>
  </clipPath>
  <clipPath id="p8fd4788895">
   <rect x="50.364248" y="8.64" width="12.671503" height="54.36"/>
  </clipPath>
  <clipPath id="p11cebaa632">
   <rect x="64.8" y="11.850612" width="16.2" height="47.938776"/>
  </clipPath>
  <clipPath id="p01f498b620">
   <rect x="81" y="8.881927" width="16.2" height="53.876147"/>
  </clipPath>
  <clipPath id="p938ae77a07">
   <rect x="114.002069" y="8.64" width="14.995862" height="54.36"/>
  </clipPath>
  <clipPath id="pb60675f341">
   <rect x="129.6" y="9.949956" width="16.2" height="51.740088"/>
  </clipPath>
  <clipPath id="p4891782290">
   <rect x="163.389352" y="8.64" width="13.421297" height="54.36"/>
  </clipPath>
  <clipPath id="pd4b87bbf70">
   <rect x="180.938979" y="8.64" width="10.722041" height="54.36"/>
  </clipPath>
  <clipPath id="p1a009ae4f3">
   <rect x="200.006938" y="8.64" width="4.986124" height="54.36"/>
  </clipPath>
  <clipPath id="peaf12990b2">
   <rect x="212.382993" y="8.64" width="12.634014" height="54.36"/>
  </clipPath>
  <clipPath id="p36012557cd">
   <rect x="244.389352" y="8.64" width="13.421297" height="54.36"/>
  </clipPath>
  <clipPath id="pfa6e3bc749">
   <rect x="260.964248" y="8.64" width="12.671503" height="54.36"/>
  </clipPath>
  <clipPath id="p71c146d4ac">
   <rect x="275.4" y="8.881927" width="16.2" height="53.876147"/>
  </clipPath>
  <clipPath id="pef43e56148">
   <rect x="292.651945" y="8.64" width="14.09611" height="54.36"/>
  </clipPath>
  <clipPath id="p9290a48a93">
   <rect x="308.683241" y="8.64" width="14.433517" height="54.36"/>
  </clipPath>
  <clipPath id="p455990544f">
   <rect x="324" y="8.881927" width="16.2" height="53.876147"/>
  </clipPath>
  <clipPath id="p97100ac1b7">
   <rect x="340.2" y="11.850612" width="16.2" height="47.938776"/>
  </clipPath>
  <clipPath id="p67fc838c82">
   <rect x="357.789352" y="8.64" width="13.421297" height="54.36"/>
  </clipPath>
  <clipPath id="p96b39edeb0">
   <rect x="372.6" y="8.881927" width="16.2" height="53.876147"/>
  </clipPath>
  <clipPath id="p4696c12b54">
   <rect x="389.851945" y="8.64" width="14.09611" height="54.36"/>
  </clipPath>
  <clipPath id="p79b97168e0">
   <rect x="410.400745" y="8.64" width="5.39851" height="54.36"/>
  </clipPath>
  <clipPath id="pa6fb6c2198">
   <rect x="437.4" y="10.777356" width="16.2" height="50.085288"/>
  </clipPath>
  <clipPath id="p3905ada7f9">
   <rect x="455.364248" y="8.64" width="12.671503" height="54.36"/>
  </clipPath>
  <clipPath id="pb3edfd4520">
   <rect x="470.851945" y="8.64" width="14.09611" height="54.36"/>
  </clipPath>
  <clipPath id="p573e4148b6">
   <rect x="502.2" y="16.753442" width="16.2" height="38.133117"/>
  </clipPath>
  <clipPath id="p13f6b774f9">
   <rect x="534.6" y="9.603482" width="16.2" height="52.433036"/>
  </clipPath>
  <clipPath id="pa9c365f84a">
   <rect x="556.406938" y="8.64" width="4.986124" height="54.36"/>
  </clipPath>
  <clipPath id="p3eb47749dd">
   <rect x="567" y="9.426742" width="16.2" height="52.786517"/>
  </clipPath>
  <clipPath id="p6322b4266f">
   <rect x="585.938979" y="8.64" width="10.722041" height="54.36"/>
  </clipPath>
  <clipPath id="pf00f1ed1c2">
   <rect x="600.789352" y="8.64" width="13.421297" height="54.36"/>
  </clipPath>
 </defs>
</svg>
