<?xml version="1.0" encoding="utf-8" standalone="no"?>
<!DOCTYPE svg PUBLIC "-//W3C//DTD SVG 1.1//EN"
  "http://www.w3.org/Graphics/SVG/1.1/DTD/svg11.dtd">
<svg xmlns:xlink="http://www.w3.org/1999/xlink" width="720pt" height="72pt" viewBox="0 0 720 72" xmlns="http://www.w3.org/2000/svg" version="1.1">
 <metadata>
  <rdf:RDF xmlns:dc="http://purl.org/dc/elements/1.1/" xmlns:cc="http://creativecommons.org/ns#" xmlns:rdf="http://www.w3.org/1999/02/22-rdf-syntax-ns#">
   <cc:Work>
    <dc:type rdf:resource="http://purl.org/dc/dcmitype/StillImage"/>
    <dc:date>2024-01-04T18:41:46.532717</dc:date>
    <dc:format>image/svg+xml</dc:format>
    <dc:creator>
     <cc:Agent>
      <dc:title>Matplotlib v3.7.1, https://matplotlib.org/</dc:title>
     </cc:Agent>
    </dc:creator>
   </cc:Work>
  </rdf:RDF>
 </metadata>
 <defs>
  <style type="text/css">*{stroke-linejoin: round; stroke-linecap: butt}</style>
 </defs>
 <g id="figure_1">
  <g id="patch_1">
   <path d="M 0 72 
L 720 72 
L 720 0 
L 0 0 
z
" style="fill: #8fff9f"/>
  </g>
  <g id="axes_1">
   <g id="patch_2">
    <path d="M 3.320069 39.868883 
L 3.320069 39.419007 
Q 3.320069 37.769462 5.063338 36.682262 
Q 6.806607 35.595062 8.493641 35.595062 
Q 10.705531 35.595062 12.073903 36.794731 
Q 13.442276 37.9944 13.442276 40.20629 
Q 13.442276 42.30571 11.624028 43.336676 
Q 9.805779 44.367641 7.59389 44.367641 
Q 6.919076 44.367641 6.412966 44.255172 
Q 5.906855 44.142703 5.288276 43.917766 
Q 4.669697 43.692828 4.219821 43.580359 
L 3.095131 42.568138 
M 2.757724 36.832221 
Q 3.2076 38.444276 3.470028 40.262524 
Q 3.732455 42.080772 3.78869 43.749062 
Q 3.844924 45.417352 3.882414 47.27309 
Q 3.919903 49.128828 3.882414 50.778372 
L 3.769945 57.863917 
" clip-path="url(#pa552c0460c)" style="fill: none; stroke: #000000; stroke-linejoin: miter"/>
   </g>
  </g>
  <g id="axes_2">
   <g id="patch_3">
    <path d="M 20.813462 32.783338 
Q 21.338317 34.507862 21.469531 36.457324 
Q 21.600745 38.406786 21.525766 40.956083 
Q 21.450786 43.505379 21.488276 44.705048 
L 21.600745 46.054676 
L 21.600745 45.829738 
Q 21.600745 44.667559 21.319572 42.30571 
Q 21.0384 39.943862 21.0384 38.744193 
Q 21.0384 36.419834 22.050621 34.882759 
Q 23.062841 33.345683 25.087283 33.345683 
Q 25.799586 33.345683 26.136993 33.626855 
Q 26.4744 33.908028 26.736828 34.432883 
Q 26.999255 34.957738 27.336662 35.257655 
L 27.786538 36.832221 
" clip-path="url(#p6f3569aa90)" style="fill: none; stroke: #000000; stroke-linejoin: miter"/>
   </g>
  </g>
  <g id="axes_3">
   <g id="patch_4">
    <path d="M 34.257798 38.160826 
Q 37.230275 39.535596 41.949083 39.721376 
Q 43.472477 39.721376 44.159862 38.550963 
Q 44.847248 37.38055 44.847248 35.82 
Q 44.847248 35.299817 44.754358 34.909679 
Q 44.661468 34.519541 44.419954 34.296606 
Q 44.17844 34.07367 44.011239 33.943624 
Q 43.844037 33.813578 43.398165 33.757844 
Q 42.952294 33.70211 42.747936 33.683532 
Q 42.543578 33.664954 41.967661 33.683532 
Q 41.391743 33.70211 41.168807 33.70211 
Q 39.125229 33.70211 37.638991 35.578486 
Q 36.152752 37.454862 36.152752 39.609908 
Q 36.152752 42.619541 38.084862 44.570229 
Q 40.016972 46.520917 43.063761 46.520917 
Q 45.218807 46.818165 46.742202 44.29156 
" clip-path="url(#pecac8aca65)" style="fill: none; stroke: #000000; stroke-linejoin: miter"/>
   </g>
  </g>
  <g id="axes_4">
   <g id="patch_5">
    <path d="M 51.863834 37.95691 
L 52.538648 37.95691 
Q 53.250952 37.95691 54.038234 37.881931 
Q 54.825517 37.806952 55.781503 37.675738 
Q 56.73749 37.544524 57.262345 37.507034 
L 61.536166 35.82 
M 57.487283 30.42149 
L 57.487283 31.43371 
Q 57.487283 33.383172 56.812469 37.207117 
Q 56.137655 41.031062 56.137655 43.018014 
Q 56.137655 43.805297 56.137655 44.105214 
Q 56.137655 44.405131 56.231379 45.042455 
Q 56.325103 45.679779 56.512552 45.960952 
Q 56.7 46.242124 57.093641 46.485807 
Q 57.487283 46.72949 58.049628 46.72949 
Q 58.162097 46.692 58.480759 46.72949 
Q 58.799421 46.766979 58.986869 46.710745 
Q 59.174317 46.65451 59.174317 46.392083 
" clip-path="url(#p2124e56008)" style="fill: none; stroke: #000000; stroke-linejoin: miter"/>
   </g>
  </g>
  <g id="axes_5">
   <g id="patch_6">
    <path d="M 68.063834 37.95691 
L 68.738648 37.95691 
Q 69.450952 37.95691 70.238234 37.881931 
Q 71.025517 37.806952 71.981503 37.675738 
Q 72.93749 37.544524 73.462345 37.507034 
L 77.736166 35.82 
M 73.687283 30.42149 
L 73.687283 31.43371 
Q 73.687283 33.383172 73.012469 37.207117 
Q 72.337655 41.031062 72.337655 43.018014 
Q 72.337655 43.805297 72.337655 44.105214 
Q 72.337655 44.405131 72.431379 45.042455 
Q 72.525103 45.679779 72.712552 45.960952 
Q 72.9 46.242124 73.293641 46.485807 
Q 73.687283 46.72949 74.249628 46.72949 
Q 74.362097 46.692 74.680759 46.72949 
Q 74.999421 46.766979 75.186869 46.710745 
Q 75.374317 46.65451 75.374317 46.392083 
" clip-path="url(#p151a250df8)" style="fill: none; stroke: #000000; stroke-linejoin: miter"/>
   </g>
  </g>
  <g id="axes_6">
   <g id="patch_7">
    <path d="M 83.963917 36.382345 
Q 83.926428 36.494814 84.057641 36.701007 
Q 84.188855 36.9072 84.076386 37.057159 
L 84.076386 39.306538 
Q 84.076386 40.506207 84.413793 41.724621 
Q 84.7512 42.943034 85.613462 43.93651 
Q 86.475724 44.929986 87.675393 44.929986 
Q 88.912552 44.929986 89.587366 43.861531 
Q 90.262179 42.793076 90.712055 41.143531 
Q 91.161931 39.493986 91.499338 38.969131 
L 92.286621 36.382345 
L 92.061683 42.680607 
L 92.061683 45.154924 
Q 92.061683 47.066897 92.792731 51.00331 
Q 93.523779 54.939724 93.523779 56.964166 
Q 94.273572 59.213545 93.186372 60.188276 
Q 92.099172 61.163007 90.037241 60.78811 
Q 88.237738 60.488193 87.319241 60.169531 
Q 86.400745 59.850869 84.413793 58.988607 
L 84.301324 58.426262 
" clip-path="url(#p80b7ef9e24)" style="fill: none; stroke: #000000; stroke-linejoin: miter"/>
   </g>
  </g>
  <g id="axes_7"/>
  <g id="axes_8">
   <g id="patch_8">
    <path d="M 121.106359 28.621986 
Q 121.331297 30.34651 121.406276 32.146014 
Q 121.481255 33.945517 121.46251 36.551048 
Q 121.443766 39.156579 121.443766 40.093821 
Q 121.443766 40.13131 121.668703 45.829738 
L 121.893641 46.841959 
" clip-path="url(#p8bd92a606c)" style="fill: none; stroke: #000000; stroke-linejoin: miter"/>
   </g>
  </g>
  <g id="axes_9">
   <g id="patch_9">
    <path d="M 143.243923 36.441748 
Q 142.034968 35.094627 138.062687 35.094627 
Q 136.542857 35.094627 135.765672 35.146439 
Q 134.988486 35.198252 133.98678 35.440043 
Q 132.985075 35.681834 132.501493 36.182687 
Q 132.01791 36.683539 131.672495 37.616162 
Q 131.327079 38.548785 131.327079 39.964989 
Q 131.327079 42.037484 132.743284 43.280981 
Q 134.159488 44.524478 136.093817 44.524478 
Q 138.753518 44.524478 141.516844 38.721493 
Q 142.863966 35.854542 142.863966 35.82 
Q 143.209382 35.578209 143.243923 36.441748 
Q 143.243923 37.512537 143.658422 40.362217 
Q 144.072921 43.211898 144.072921 44.524478 
" clip-path="url(#p3c99179c4d)" style="fill: none; stroke: #000000; stroke-linejoin: miter"/>
   </g>
  </g>
  <g id="axes_10">
   <g id="patch_10">
    <path d="M 157.499007 39.568966 
Q 156.149379 38.181848 153.9 38.444276 
Q 151.050786 38.444276 149.888607 39.793903 
Q 148.726428 41.143531 148.726428 44.067724 
Q 148.726428 45.56731 150.019821 46.279614 
Q 151.313214 46.991917 152.887779 46.991917 
Q 154.199917 46.991917 155.212138 45.736014 
Q 156.224359 44.48011 156.805448 42.30571 
Q 157.386538 40.13131 157.761434 37.938166 
Q 158.136331 35.745021 158.28629 33.045766 
Q 158.436248 30.34651 158.473738 28.978138 
Q 158.511228 27.609766 158.511228 26.185159 
Q 158.28629 26.260138 158.28629 29.896634 
L 158.28629 44.292662 
L 159.073572 48.229076 
" clip-path="url(#p7ec419f5b8)" style="fill: none; stroke: #000000; stroke-linejoin: miter"/>
   </g>
  </g>
  <g id="axes_11">
   <g id="patch_11">
    <path d="M 164.963917 36.382345 
Q 164.926428 36.494814 165.057641 36.701007 
Q 165.188855 36.9072 165.076386 37.057159 
L 165.076386 39.306538 
Q 165.076386 40.506207 165.413793 41.724621 
Q 165.7512 42.943034 166.613462 43.93651 
Q 167.475724 44.929986 168.675393 44.929986 
Q 169.912552 44.929986 170.587366 43.861531 
Q 171.262179 42.793076 171.712055 41.143531 
Q 172.161931 39.493986 172.499338 38.969131 
L 173.286621 36.382345 
L 173.061683 42.680607 
L 173.061683 45.154924 
Q 173.061683 47.066897 173.792731 51.00331 
Q 174.523779 54.939724 174.523779 56.964166 
Q 175.273572 59.213545 174.186372 60.188276 
Q 173.099172 61.163007 171.037241 60.78811 
Q 169.237738 60.488193 168.319241 60.169531 
Q 167.400745 59.850869 165.413793 58.988607 
L 165.301324 58.426262 
" clip-path="url(#p6949538e53)" style="fill: none; stroke: #000000; stroke-linejoin: miter"/>
   </g>
  </g>
  <g id="axes_12"/>
  <g id="axes_13">
   <g id="patch_12">
    <path d="M 208.043923 36.441748 
Q 206.834968 35.094627 202.862687 35.094627 
Q 201.342857 35.094627 200.565672 35.146439 
Q 199.788486 35.198252 198.78678 35.440043 
Q 197.785075 35.681834 197.301493 36.182687 
Q 196.81791 36.683539 196.472495 37.616162 
Q 196.127079 38.548785 196.127079 39.964989 
Q 196.127079 42.037484 197.543284 43.280981 
Q 198.959488 44.524478 200.893817 44.524478 
Q 203.553518 44.524478 206.316844 38.721493 
Q 207.663966 35.854542 207.663966 35.82 
Q 208.009382 35.578209 208.043923 36.441748 
Q 208.043923 37.512537 208.458422 40.362217 
Q 208.872921 43.211898 208.872921 44.524478 
" clip-path="url(#pc2ecd3f2cd)" style="fill: none; stroke: #000000; stroke-linejoin: miter"/>
   </g>
  </g>
  <g id="axes_14">
   <g id="patch_13">
    <path d="M 214.257476 43.917766 
Q 214.557393 44.180193 215.569614 45.154924 
Q 216.581834 46.129655 217.144179 46.560786 
Q 217.706524 46.991917 218.73749 47.385559 
Q 219.768455 47.7792 220.780676 47.629241 
Q 221.45549 47.629241 221.92411 47.404303 
Q 222.392731 47.179366 222.617669 46.879448 
Q 222.842607 46.579531 222.973821 45.979697 
Q 223.105034 45.379862 223.123779 44.967476 
Q 223.142524 44.55509 223.142524 43.805297 
Q 223.142524 42.718097 222.242772 42.043283 
Q 221.343021 41.368469 220.049628 41.031062 
Q 218.756234 40.693655 217.462841 40.300014 
Q 216.169448 39.906372 215.269697 38.987876 
Q 214.369945 38.069379 214.369945 36.607283 
Q 214.369945 36.082428 214.538648 35.726276 
Q 214.707352 35.370124 215.100993 35.145186 
Q 215.494634 34.920248 215.775807 34.807779 
Q 216.056979 34.69531 216.713048 34.639076 
Q 217.369117 34.582841 217.556566 34.582841 
Q 217.744014 34.582841 218.418828 34.582841 
Q 219.618497 34.582841 220.199586 34.995228 
Q 220.780676 35.407614 221.099338 36.026193 
Q 221.418 36.644772 221.680428 36.832221 
" clip-path="url(#pf62efa6710)" style="fill: none; stroke: #000000; stroke-linejoin: miter"/>
   </g>
  </g>
  <g id="axes_15">
   <g id="patch_14">
    <path d="M 232.931793 37.169628 
Q 234.956234 39.194069 236.718248 41.76211 
Q 238.480262 44.330152 239.342524 46.72949 
M 235.968455 31.321241 
L 235.968455 31.546179 
Q 235.968455 32.333462 235.331131 33.514386 
Q 234.693807 34.69531 233.719076 36.101172 
Q 232.744345 37.507034 232.481917 37.95691 
L 231.244759 39.643945 
M 230.457476 26.710014 
Q 232.294469 36.269876 232.481917 48.641462 
" clip-path="url(#pd766988f36)" style="fill: none; stroke: #000000; stroke-linejoin: miter"/>
   </g>
  </g>
  <g id="axes_16">
   <g id="patch_15">
    <path d="M 244.857798 38.160826 
Q 247.830275 39.535596 252.549083 39.721376 
Q 254.072477 39.721376 254.759862 38.550963 
Q 255.447248 37.38055 255.447248 35.82 
Q 255.447248 35.299817 255.354358 34.909679 
Q 255.261468 34.519541 255.019954 34.296606 
Q 254.77844 34.07367 254.611239 33.943624 
Q 254.444037 33.813578 253.998165 33.757844 
Q 253.552294 33.70211 253.347936 33.683532 
Q 253.143578 33.664954 252.567661 33.683532 
Q 251.991743 33.70211 251.768807 33.70211 
Q 249.725229 33.70211 248.238991 35.578486 
Q 246.752752 37.454862 246.752752 39.609908 
Q 246.752752 42.619541 248.684862 44.570229 
Q 250.616972 46.520917 253.663761 46.520917 
Q 255.818807 46.818165 257.342202 44.29156 
" clip-path="url(#p167b54985f)" style="fill: none; stroke: #000000; stroke-linejoin: miter"/>
   </g>
  </g>
  <g id="axes_17">
   <g id="patch_16">
    <path d="M 270.899007 39.568966 
Q 269.549379 38.181848 267.3 38.444276 
Q 264.450786 38.444276 263.288607 39.793903 
Q 262.126428 41.143531 262.126428 44.067724 
Q 262.126428 45.56731 263.419821 46.279614 
Q 264.713214 46.991917 266.287779 46.991917 
Q 267.599917 46.991917 268.612138 45.736014 
Q 269.624359 44.48011 270.205448 42.30571 
Q 270.786538 40.13131 271.161434 37.938166 
Q 271.536331 35.745021 271.68629 33.045766 
Q 271.836248 30.34651 271.873738 28.978138 
Q 271.911228 27.609766 271.911228 26.185159 
Q 271.68629 26.260138 271.68629 29.896634 
L 271.68629 44.292662 
L 272.473572 48.229076 
" clip-path="url(#p727da74e72)" style="fill: none; stroke: #000000; stroke-linejoin: miter"/>
   </g>
  </g>
  <g id="axes_18">
   <g id="patch_17">
    <path d="M 282.787697 39.981352 
Q 283.799917 40.956083 284.137324 42.905545 
Q 284.324772 43.955255 283.912386 46.167145 
L 282.675228 47.629241 
" clip-path="url(#p83b650a5e1)" style="fill: none; stroke: #000000; stroke-linejoin: miter"/>
   </g>
  </g>
  <g id="axes_19"/>
  <g id="axes_20">
   <g id="patch_18">
    <path d="M 311.288772 35.145186 
Q 311.288772 35.145186 311.288772 35.595062 
Q 311.288772 36.269876 311.176303 37.619503 
Q 311.063834 38.969131 311.063834 39.643945 
Q 311.063834 41.930814 312.300993 43.599103 
Q 313.538152 45.267393 315.675062 45.267393 
Q 317.062179 45.154924 317.830717 43.917766 
Q 318.599255 42.680607 318.749214 41.237255 
Q 318.899172 39.793903 319.1616 37.9944 
Q 319.424028 36.194897 319.836414 35.370124 
Q 319.986372 35.070207 319.986372 35.670041 
Q 319.986372 36.269876 319.723945 38.706703 
Q 319.499007 41.031062 319.499007 41.555917 
Q 319.349048 42.643117 319.686455 43.767807 
Q 320.023862 44.892497 320.736166 45.6048 
" clip-path="url(#pf48ae5fc61)" style="fill: none; stroke: #000000; stroke-linejoin: miter"/>
   </g>
  </g>
  <g id="axes_21">
   <g id="patch_19">
    <path d="M 327.638731 37.282097 
L 327.638731 37.844441 
Q 327.901159 39.868883 327.938648 41.312234 
Q 327.976138 42.755586 327.882414 44.667559 
Q 327.78869 46.579531 327.78869 48.191586 
L 327.863669 39.643945 
Q 327.863669 38.144359 329.456979 37.507034 
Q 331.05029 36.86971 332.474897 37.282097 
Q 334.386869 37.844441 335.305366 39.04411 
Q 336.223862 40.243779 336.280097 41.668386 
Q 336.336331 43.092993 336.373821 44.817517 
Q 336.41131 46.542041 336.561269 48.191586 
" clip-path="url(#pc44d66278f)" style="fill: none; stroke: #000000; stroke-linejoin: miter"/>
   </g>
  </g>
  <g id="axes_22">
   <g id="patch_20">
    <path d="M 353.556735 34.365306 
Q 353.556735 34.365306 353.060816 34.365306 
Q 352.267347 34.365306 350.779592 34.067755 
Q 349.291837 33.770204 348.498367 33.770204 
Q 345.721224 33.770204 343.787143 35.224898 
Q 341.853061 36.679592 341.853061 39.423673 
Q 341.853061 40.94449 343.340816 42.399184 
Q 344.828571 43.853878 346.762653 44.663878 
Q 348.696735 45.473878 350.18449 45.473878 
Q 351.110204 45.473878 351.80449 45.110204 
Q 352.498776 44.746531 353.242653 44.118367 
Q 353.986531 43.490204 354.548571 43.192653 
L 354.746939 42.696735 
" clip-path="url(#p36e3ef7806)" style="fill: none; stroke: #000000; stroke-linejoin: miter"/>
   </g>
  </g>
  <g id="axes_23">
   <g id="patch_21">
    <path d="M 367.7616 35.032717 
Q 366.71189 34.582841 365.737159 34.69531 
Q 362.700497 35.032717 360.788524 36.701007 
Q 358.876552 38.369297 358.876552 41.330979 
Q 358.876552 43.917766 360.882248 45.6048 
Q 362.887945 47.291834 365.512221 47.291834 
Q 367.874069 47.291834 368.998759 45.361117 
Q 370.123448 43.4304 370.123448 40.881103 
Q 370.123448 39.643945 369.711062 38.706703 
Q 369.298676 37.769462 368.773821 37.300841 
Q 368.248966 36.832221 367.499172 36.119917 
Q 366.749379 35.407614 366.299503 34.69531 
L 365.062345 34.245434 
" clip-path="url(#p18ea781c1c)" style="fill: none; stroke: #000000; stroke-linejoin: miter"/>
   </g>
  </g>
  <g id="axes_24">
   <g id="patch_22">
    <path d="M 376.238731 37.282097 
L 376.238731 37.844441 
Q 376.501159 39.868883 376.538648 41.312234 
Q 376.576138 42.755586 376.482414 44.667559 
Q 376.38869 46.579531 376.38869 48.191586 
L 376.463669 39.643945 
Q 376.463669 38.144359 378.056979 37.507034 
Q 379.65029 36.86971 381.074897 37.282097 
Q 382.986869 37.844441 383.905366 39.04411 
Q 384.823862 40.243779 384.880097 41.668386 
Q 384.936331 43.092993 384.973821 44.817517 
Q 385.01131 46.542041 385.161269 48.191586 
" clip-path="url(#p4e9cda5d19)" style="fill: none; stroke: #000000; stroke-linejoin: miter"/>
   </g>
  </g>
  <g id="axes_25">
   <g id="patch_23">
    <path d="M 392.457476 43.917766 
Q 392.757393 44.180193 393.769614 45.154924 
Q 394.781834 46.129655 395.344179 46.560786 
Q 395.906524 46.991917 396.93749 47.385559 
Q 397.968455 47.7792 398.980676 47.629241 
Q 399.65549 47.629241 400.12411 47.404303 
Q 400.592731 47.179366 400.817669 46.879448 
Q 401.042607 46.579531 401.173821 45.979697 
Q 401.305034 45.379862 401.323779 44.967476 
Q 401.342524 44.55509 401.342524 43.805297 
Q 401.342524 42.718097 400.442772 42.043283 
Q 399.543021 41.368469 398.249628 41.031062 
Q 396.956234 40.693655 395.662841 40.300014 
Q 394.369448 39.906372 393.469697 38.987876 
Q 392.569945 38.069379 392.569945 36.607283 
Q 392.569945 36.082428 392.738648 35.726276 
Q 392.907352 35.370124 393.300993 35.145186 
Q 393.694634 34.920248 393.975807 34.807779 
Q 394.256979 34.69531 394.913048 34.639076 
Q 395.569117 34.582841 395.756566 34.582841 
Q 395.944014 34.582841 396.618828 34.582841 
Q 397.818497 34.582841 398.399586 34.995228 
Q 398.980676 35.407614 399.299338 36.026193 
Q 399.618 36.644772 399.880428 36.832221 
" clip-path="url(#pf263f4e903)" style="fill: none; stroke: #000000; stroke-linejoin: miter"/>
   </g>
  </g>
  <g id="axes_26">
   <g id="patch_24">
    <path d="M 418.356735 34.365306 
Q 418.356735 34.365306 417.860816 34.365306 
Q 417.067347 34.365306 415.579592 34.067755 
Q 414.091837 33.770204 413.298367 33.770204 
Q 410.521224 33.770204 408.587143 35.224898 
Q 406.653061 36.679592 406.653061 39.423673 
Q 406.653061 40.94449 408.140816 42.399184 
Q 409.628571 43.853878 411.562653 44.663878 
Q 413.496735 45.473878 414.98449 45.473878 
Q 415.910204 45.473878 416.60449 45.110204 
Q 417.298776 44.746531 418.042653 44.118367 
Q 418.786531 43.490204 419.348571 43.192653 
L 419.546939 42.696735 
" clip-path="url(#p324975800a)" style="fill: none; stroke: #000000; stroke-linejoin: miter"/>
   </g>
  </g>
  <g id="axes_27">
   <g id="patch_25">
    <path d="M 429.918579 29.071862 
Q 429.543683 29.146841 429.412469 29.577972 
Q 429.281255 30.009103 429.356234 30.42149 
Q 429.356234 30.571448 429.393724 30.702662 
Q 429.431214 30.833876 429.487448 30.89011 
Q 429.543683 30.946345 429.599917 31.040069 
Q 429.656152 31.133793 429.693641 31.208772 
L 429.80611 29.859145 
M 429.80611 34.020497 
Q 428.906359 39.006621 428.681421 42.793076 
L 429.131297 45.379862 
L 429.468703 46.054676 
" clip-path="url(#p46d0bcbe48)" style="fill: none; stroke: #000000; stroke-linejoin: miter"/>
   </g>
  </g>
  <g id="axes_28">
   <g id="patch_26">
    <path d="M 448.7616 35.032717 
Q 447.71189 34.582841 446.737159 34.69531 
Q 443.700497 35.032717 441.788524 36.701007 
Q 439.876552 38.369297 439.876552 41.330979 
Q 439.876552 43.917766 441.882248 45.6048 
Q 443.887945 47.291834 446.512221 47.291834 
Q 448.874069 47.291834 449.998759 45.361117 
Q 451.123448 43.4304 451.123448 40.881103 
Q 451.123448 39.643945 450.711062 38.706703 
Q 450.298676 37.769462 449.773821 37.300841 
Q 449.248966 36.832221 448.499172 36.119917 
Q 447.749379 35.407614 447.299503 34.69531 
L 446.062345 34.245434 
" clip-path="url(#p0acbf86949)" style="fill: none; stroke: #000000; stroke-linejoin: miter"/>
   </g>
  </g>
  <g id="axes_29">
   <g id="patch_27">
    <path d="M 457.088772 35.145186 
Q 457.088772 35.145186 457.088772 35.595062 
Q 457.088772 36.269876 456.976303 37.619503 
Q 456.863834 38.969131 456.863834 39.643945 
Q 456.863834 41.930814 458.100993 43.599103 
Q 459.338152 45.267393 461.475062 45.267393 
Q 462.862179 45.154924 463.630717 43.917766 
Q 464.399255 42.680607 464.549214 41.237255 
Q 464.699172 39.793903 464.9616 37.9944 
Q 465.224028 36.194897 465.636414 35.370124 
Q 465.786372 35.070207 465.786372 35.670041 
Q 465.786372 36.269876 465.523945 38.706703 
Q 465.299007 41.031062 465.299007 41.555917 
Q 465.149048 42.643117 465.486455 43.767807 
Q 465.823862 44.892497 466.536166 45.6048 
" clip-path="url(#pf4718f85a7)" style="fill: none; stroke: #000000; stroke-linejoin: miter"/>
   </g>
  </g>
  <g id="axes_30">
   <g id="patch_28">
    <path d="M 473.457476 43.917766 
Q 473.757393 44.180193 474.769614 45.154924 
Q 475.781834 46.129655 476.344179 46.560786 
Q 476.906524 46.991917 477.93749 47.385559 
Q 478.968455 47.7792 479.980676 47.629241 
Q 480.65549 47.629241 481.12411 47.404303 
Q 481.592731 47.179366 481.817669 46.879448 
Q 482.042607 46.579531 482.173821 45.979697 
Q 482.305034 45.379862 482.323779 44.967476 
Q 482.342524 44.55509 482.342524 43.805297 
Q 482.342524 42.718097 481.442772 42.043283 
Q 480.543021 41.368469 479.249628 41.031062 
Q 477.956234 40.693655 476.662841 40.300014 
Q 475.369448 39.906372 474.469697 38.987876 
Q 473.569945 38.069379 473.569945 36.607283 
Q 473.569945 36.082428 473.738648 35.726276 
Q 473.907352 35.370124 474.300993 35.145186 
Q 474.694634 34.920248 474.975807 34.807779 
Q 475.256979 34.69531 475.913048 34.639076 
Q 476.569117 34.582841 476.756566 34.582841 
Q 476.944014 34.582841 477.618828 34.582841 
Q 478.818497 34.582841 479.399586 34.995228 
Q 479.980676 35.407614 480.299338 36.026193 
Q 480.618 36.644772 480.880428 36.832221 
" clip-path="url(#p975f681cfd)" style="fill: none; stroke: #000000; stroke-linejoin: miter"/>
   </g>
  </g>
  <g id="axes_31">
   <g id="patch_29">
    <path d="M 493.706359 28.621986 
Q 493.931297 30.34651 494.006276 32.146014 
Q 494.081255 33.945517 494.06251 36.551048 
Q 494.043766 39.156579 494.043766 40.093821 
Q 494.043766 40.13131 494.268703 45.829738 
L 494.493641 46.841959 
" clip-path="url(#p6097a36b8d)" style="fill: none; stroke: #000000; stroke-linejoin: miter"/>
   </g>
  </g>
  <g id="axes_32">
   <g id="patch_30">
    <path d="M 505.163917 36.382345 
Q 505.126428 36.494814 505.257641 36.701007 
Q 505.388855 36.9072 505.276386 37.057159 
L 505.276386 39.306538 
Q 505.276386 40.506207 505.613793 41.724621 
Q 505.9512 42.943034 506.813462 43.93651 
Q 507.675724 44.929986 508.875393 44.929986 
Q 510.112552 44.929986 510.787366 43.861531 
Q 511.462179 42.793076 511.912055 41.143531 
Q 512.361931 39.493986 512.699338 38.969131 
L 513.486621 36.382345 
L 513.261683 42.680607 
L 513.261683 45.154924 
Q 513.261683 47.066897 513.992731 51.00331 
Q 514.723779 54.939724 514.723779 56.964166 
Q 515.473572 59.213545 514.386372 60.188276 
Q 513.299172 61.163007 511.237241 60.78811 
Q 509.437738 60.488193 508.519241 60.169531 
Q 507.600745 59.850869 505.613793 58.988607 
L 505.501324 58.426262 
" clip-path="url(#p045ad4ba49)" style="fill: none; stroke: #000000; stroke-linejoin: miter"/>
   </g>
  </g>
  <g id="axes_33"/>
  <g id="axes_34">
   <g id="patch_31">
    <path d="M 537.863834 37.95691 
L 538.538648 37.95691 
Q 539.250952 37.95691 540.038234 37.881931 
Q 540.825517 37.806952 541.781503 37.675738 
Q 542.73749 37.544524 543.262345 37.507034 
L 547.536166 35.82 
M 543.487283 30.42149 
L 543.487283 31.43371 
Q 543.487283 33.383172 542.812469 37.207117 
Q 542.137655 41.031062 542.137655 43.018014 
Q 542.137655 43.805297 542.137655 44.105214 
Q 542.137655 44.405131 542.231379 45.042455 
Q 542.325103 45.679779 542.512552 45.960952 
Q 542.7 46.242124 543.093641 46.485807 
Q 543.487283 46.72949 544.049628 46.72949 
Q 544.162097 46.692 544.480759 46.72949 
Q 544.799421 46.766979 544.986869 46.710745 
Q 545.174317 46.65451 545.174317 46.392083 
" clip-path="url(#p0464b86d7e)" style="fill: none; stroke: #000000; stroke-linejoin: miter"/>
   </g>
  </g>
  <g id="axes_35">
   <g id="patch_32">
    <path d="M 564.443923 36.441748 
Q 563.234968 35.094627 559.262687 35.094627 
Q 557.742857 35.094627 556.965672 35.146439 
Q 556.188486 35.198252 555.18678 35.440043 
Q 554.185075 35.681834 553.701493 36.182687 
Q 553.21791 36.683539 552.872495 37.616162 
Q 552.527079 38.548785 552.527079 39.964989 
Q 552.527079 42.037484 553.943284 43.280981 
Q 555.359488 44.524478 557.293817 44.524478 
Q 559.953518 44.524478 562.716844 38.721493 
Q 564.063966 35.854542 564.063966 35.82 
Q 564.409382 35.578209 564.443923 36.441748 
Q 564.443923 37.512537 564.858422 40.362217 
Q 565.272921 43.211898 565.272921 44.524478 
" clip-path="url(#p2e33c09526)" style="fill: none; stroke: #000000; stroke-linejoin: miter"/>
   </g>
  </g>
  <g id="axes_36">
   <g id="patch_33">
    <path d="M 570.320069 39.868883 
L 570.320069 39.419007 
Q 570.320069 37.769462 572.063338 36.682262 
Q 573.806607 35.595062 575.493641 35.595062 
Q 577.705531 35.595062 579.073903 36.794731 
Q 580.442276 37.9944 580.442276 40.20629 
Q 580.442276 42.30571 578.624028 43.336676 
Q 576.805779 44.367641 574.59389 44.367641 
Q 573.919076 44.367641 573.412966 44.255172 
Q 572.906855 44.142703 572.288276 43.917766 
Q 571.669697 43.692828 571.219821 43.580359 
L 570.095131 42.568138 
M 569.757724 36.832221 
Q 570.2076 38.444276 570.470028 40.262524 
Q 570.732455 42.080772 570.78869 43.749062 
Q 570.844924 45.417352 570.882414 47.27309 
Q 570.919903 49.128828 570.882414 50.778372 
L 570.769945 57.863917 
" clip-path="url(#pb1e9aaa37b)" style="fill: none; stroke: #000000; stroke-linejoin: miter"/>
   </g>
  </g>
  <g id="axes_37">
   <g id="patch_34">
    <path d="M 586.520069 39.868883 
L 586.520069 39.419007 
Q 586.520069 37.769462 588.263338 36.682262 
Q 590.006607 35.595062 591.693641 35.595062 
Q 593.905531 35.595062 595.273903 36.794731 
Q 596.642276 37.9944 596.642276 40.20629 
Q 596.642276 42.30571 594.824028 43.336676 
Q 593.005779 44.367641 590.79389 44.367641 
Q 590.119076 44.367641 589.612966 44.255172 
Q 589.106855 44.142703 588.488276 43.917766 
Q 587.869697 43.692828 587.419821 43.580359 
L 586.295131 42.568138 
M 585.957724 36.832221 
Q 586.4076 38.444276 586.670028 40.262524 
Q 586.932455 42.080772 586.98869 43.749062 
Q 587.044924 45.417352 587.082414 47.27309 
Q 587.119903 49.128828 587.082414 50.778372 
L 586.969945 57.863917 
" clip-path="url(#pf64e2e32e5)" style="fill: none; stroke: #000000; stroke-linejoin: miter"/>
   </g>
  </g>
  <g id="axes_38">
   <g id="patch_35">
    <path d="M 608.118579 29.071862 
Q 607.743683 29.146841 607.612469 29.577972 
Q 607.481255 30.009103 607.556234 30.42149 
Q 607.556234 30.571448 607.593724 30.702662 
Q 607.631214 30.833876 607.687448 30.89011 
Q 607.743683 30.946345 607.799917 31.040069 
Q 607.856152 31.133793 607.893641 31.208772 
L 608.00611 29.859145 
M 608.00611 34.020497 
Q 607.106359 39.006621 606.881421 42.793076 
L 607.331297 45.379862 
L 607.668703 46.054676 
" clip-path="url(#p3689a82d9f)" style="fill: none; stroke: #000000; stroke-linejoin: miter"/>
   </g>
  </g>
  <g id="axes_39">
   <g id="patch_36">
    <path d="M 619.238731 37.282097 
L 619.238731 37.844441 
Q 619.501159 39.868883 619.538648 41.312234 
Q 619.576138 42.755586 619.482414 44.667559 
Q 619.38869 46.579531 619.38869 48.191586 
L 619.463669 39.643945 
Q 619.463669 38.144359 621.056979 37.507034 
Q 622.65029 36.86971 624.074897 37.282097 
Q 625.986869 37.844441 626.905366 39.04411 
Q 627.823862 40.243779 627.880097 41.668386 
Q 627.936331 43.092993 627.973821 44.817517 
Q 628.01131 46.542041 628.161269 48.191586 
" clip-path="url(#p1f9b65a133)" style="fill: none; stroke: #000000; stroke-linejoin: miter"/>
   </g>
  </g>
  <g id="axes_40">
   <g id="patch_37">
    <path d="M 644.687191 39.096404 
Q 644.43236 39.023596 643.46764 38.623146 
Q 642.502921 38.222697 641.84764 38.077079 
Q 641.19236 37.931461 640.537079 38.00427 
Q 637.915955 38.00427 636.277753 40.388764 
Q 634.639551 42.773258 634.639551 45.430787 
Q 634.639551 47.068989 639.881798 47.068989 
Q 641.447191 47.068989 642.775955 45.558202 
Q 644.104719 44.047416 644.778202 42.172584 
Q 645.451685 40.297753 645.451685 38.768764 
Q 645.451685 37.27618 645.415281 36.984944 
L 645.342472 38.077079 
Q 645.342472 38.550337 645.342472 38.987191 
Q 645.378876 40.188539 645.579101 42.281798 
Q 645.779326 44.375056 645.943146 46.049663 
Q 646.106966 47.72427 646.143371 49.872135 
Q 646.179775 52.02 646.015955 53.658202 
Q 645.852135 55.296404 645.287865 56.971011 
Q 644.723596 58.645618 643.795281 59.737753 
Q 642.866966 60.829888 641.265169 61.521573 
Q 639.663371 62.213258 637.515506 62.213258 
Q 635.877303 62.213258 634.785169 61.466966 
Q 633.693034 60.720674 633.693034 59.155281 
Q 633.620225 58.936854 633.656629 58.936854 
Q 633.693034 58.936854 633.802247 58.936854 
Q 633.911461 58.936854 633.911461 58.82764 
" clip-path="url(#p080d0af358)" style="fill: none; stroke: #000000; stroke-linejoin: miter"/>
   </g>
  </g>
 </g>
 <defs>
  <clipPath id="pa552c0460c">
   <rect x="0.883241" y="8.64" width="14.433517" height="54.36"/>
  </clipPath>
  <clipPath id="p6f3569aa90">
   <rect x="18.938979" y="8.64" width="10.722041" height="54.36"/>
  </clipPath>
  <clipPath id="pecac8aca65">
   <rect x="32.4" y="8.881927" width="16.2" height="53.876147"/>
  </clipPath>
  <clipPath id="p2124e56008">
   <rect x="49.989352" y="8.64" width="13.421297" height="54.36"/>
  </clipPath>
  <clipPath id="p151a250df8">
   <rect x="66.189352" y="8.64" width="13.421297" height="54.36"/>
  </clipPath>
  <clipPath id="p80b7ef9e24">
   <rect x="82.051945" y="8.64" width="14.09611" height="54.36"/>
  </clipPath>
  <clipPath id="p8bd92a606c">
   <rect x="119.231876" y="8.64" width="4.536248" height="54.36"/>
  </clipPath>
  <clipPath id="p3c99179c4d">
   <rect x="129.6" y="10.777356" width="16.2" height="50.085288"/>
  </clipPath>
  <clipPath id="p7ec419f5b8">
   <rect x="146.851945" y="8.64" width="14.09611" height="54.36"/>
  </clipPath>
  <clipPath id="p6949538e53">
   <rect x="163.051945" y="8.64" width="14.09611" height="54.36"/>
  </clipPath>
  <clipPath id="pc2ecd3f2cd">
   <rect x="194.4" y="10.777356" width="16.2" height="50.085288"/>
  </clipPath>
  <clipPath id="pf62efa6710">
   <rect x="212.382993" y="8.64" width="12.634014" height="54.36"/>
  </clipPath>
  <clipPath id="pd766988f36">
   <rect x="228.582993" y="8.64" width="12.634014" height="54.36"/>
  </clipPath>
  <clipPath id="p167b54985f">
   <rect x="243" y="8.881927" width="16.2" height="53.876147"/>
  </clipPath>
  <clipPath id="p727da74e72">
   <rect x="260.251945" y="8.64" width="14.09611" height="54.36"/>
  </clipPath>
  <clipPath id="p83b650a5e1">
   <rect x="280.800745" y="8.64" width="5.39851" height="54.36"/>
  </clipPath>
  <clipPath id="pf48ae5fc61">
   <rect x="309.189352" y="8.64" width="13.421297" height="54.36"/>
  </clipPath>
  <clipPath id="pc44d66278f">
   <rect x="325.764248" y="8.64" width="12.671503" height="54.36"/>
  </clipPath>
  <clipPath id="p36e3ef7806">
   <rect x="340.2" y="11.850612" width="16.2" height="47.938776"/>
  </clipPath>
  <clipPath id="p18ea781c1c">
   <rect x="357.002069" y="8.64" width="14.995862" height="54.36"/>
  </clipPath>
  <clipPath id="p4e9cda5d19">
   <rect x="374.364248" y="8.64" width="12.671503" height="54.36"/>
  </clipPath>
  <clipPath id="pf263f4e903">
   <rect x="390.582993" y="8.64" width="12.634014" height="54.36"/>
  </clipPath>
  <clipPath id="p324975800a">
   <rect x="405" y="11.850612" width="16.2" height="47.938776"/>
  </clipPath>
  <clipPath id="p46d0bcbe48">
   <rect x="426.806938" y="8.64" width="4.986124" height="54.36"/>
  </clipPath>
  <clipPath id="p0acbf86949">
   <rect x="438.002069" y="8.64" width="14.995862" height="54.36"/>
  </clipPath>
  <clipPath id="pf4718f85a7">
   <rect x="454.989352" y="8.64" width="13.421297" height="54.36"/>
  </clipPath>
  <clipPath id="p975f681cfd">
   <rect x="471.582993" y="8.64" width="12.634014" height="54.36"/>
  </clipPath>
  <clipPath id="p6097a36b8d">
   <rect x="491.831876" y="8.64" width="4.536248" height="54.36"/>
  </clipPath>
  <clipPath id="p045ad4ba49">
   <rect x="503.251945" y="8.64" width="14.09611" height="54.36"/>
  </clipPath>
  <clipPath id="p0464b86d7e">
   <rect x="535.989352" y="8.64" width="13.421297" height="54.36"/>
  </clipPath>
  <clipPath id="p2e33c09526">
   <rect x="550.8" y="10.777356" width="16.2" height="50.085288"/>
  </clipPath>
  <clipPath id="pb1e9aaa37b">
   <rect x="567.883241" y="8.64" width="14.433517" height="54.36"/>
  </clipPath>
  <clipPath id="pf64e2e32e5">
   <rect x="584.083241" y="8.64" width="14.433517" height="54.36"/>
  </clipPath>
  <clipPath id="p3689a82d9f">
   <rect x="605.006938" y="8.64" width="4.986124" height="54.36"/>
  </clipPath>
  <clipPath id="p1f9b65a133">
   <rect x="617.364248" y="8.64" width="12.671503" height="54.36"/>
  </clipPath>
  <clipPath id="p080d0af358">
   <rect x="631.8" y="9.426742" width="16.2" height="52.786517"/>
  </clipPath>
 </defs>
</svg>
