<?xml version="1.0" encoding="utf-8" standalone="no"?>
<!DOCTYPE svg PUBLIC "-//W3C//DTD SVG 1.1//EN"
  "http://www.w3.org/Graphics/SVG/1.1/DTD/svg11.dtd">
<svg xmlns:xlink="http://www.w3.org/1999/xlink" width="756pt" height="72pt" viewBox="0 0 756 72" xmlns="http://www.w3.org/2000/svg" version="1.1">
 <metadata>
  <rdf:RDF xmlns:dc="http://purl.org/dc/elements/1.1/" xmlns:cc="http://creativecommons.org/ns#" xmlns:rdf="http://www.w3.org/1999/02/22-rdf-syntax-ns#">
   <cc:Work>
    <dc:type rdf:resource="http://purl.org/dc/dcmitype/StillImage"/>
    <dc:date>2024-01-04T18:41:39.813754</dc:date>
    <dc:format>image/svg+xml</dc:format>
    <dc:creator>
     <cc:Agent>
      <dc:title>Matplotlib v3.7.1, https://matplotlib.org/</dc:title>
     </cc:Agent>
    </dc:creator>
   </cc:Work>
  </rdf:RDF>
 </metadata>
 <defs>
  <style type="text/css">*{stroke-linejoin: round; stroke-linecap: butt}</style>
 </defs>
 <g id="figure_1">
  <g id="patch_1">
   <path d="M 0 72 
L 756 72 
L 756 0 
L 0 0 
z
" style="fill: #8fff9f"/>
  </g>
  <g id="axes_1">
   <g id="patch_2">
    <path d="M 11.699007 39.568966 
Q 10.349379 38.181848 8.1 38.444276 
Q 5.250786 38.444276 4.088607 39.793903 
Q 2.926428 41.143531 2.926428 44.067724 
Q 2.926428 45.56731 4.219821 46.279614 
Q 5.513214 46.991917 7.087779 46.991917 
Q 8.399917 46.991917 9.412138 45.736014 
Q 10.424359 44.48011 11.005448 42.30571 
Q 11.586538 40.13131 11.961434 37.938166 
Q 12.336331 35.745021 12.48629 33.045766 
Q 12.636248 30.34651 12.673738 28.978138 
Q 12.711228 27.609766 12.711228 26.185159 
Q 12.48629 26.260138 12.48629 29.896634 
L 12.48629 44.292662 
L 13.273572 48.229076 
" clip-path="url(#p906537fa5c)" style="fill: none; stroke: #000000; stroke-linejoin: miter"/>
   </g>
  </g>
  <g id="axes_2">
   <g id="patch_3">
    <path d="M 18.057798 38.160826 
Q 21.030275 39.535596 25.749083 39.721376 
Q 27.272477 39.721376 27.959862 38.550963 
Q 28.647248 37.38055 28.647248 35.82 
Q 28.647248 35.299817 28.554358 34.909679 
Q 28.461468 34.519541 28.219954 34.296606 
Q 27.97844 34.07367 27.811239 33.943624 
Q 27.644037 33.813578 27.198165 33.757844 
Q 26.752294 33.70211 26.547936 33.683532 
Q 26.343578 33.664954 25.767661 33.683532 
Q 25.191743 33.70211 24.968807 33.70211 
Q 22.925229 33.70211 21.438991 35.578486 
Q 19.952752 37.454862 19.952752 39.609908 
Q 19.952752 42.619541 21.884862 44.570229 
Q 23.816972 46.520917 26.863761 46.520917 
Q 29.018807 46.818165 30.542202 44.29156 
" clip-path="url(#ped5649e744)" style="fill: none; stroke: #000000; stroke-linejoin: miter"/>
   </g>
  </g>
  <g id="axes_3">
   <g id="patch_4">
    <path d="M 36.038731 37.282097 
L 36.038731 37.844441 
Q 36.301159 39.868883 36.338648 41.312234 
Q 36.376138 42.755586 36.282414 44.667559 
Q 36.18869 46.579531 36.18869 48.191586 
L 36.263669 39.643945 
Q 36.263669 38.144359 37.856979 37.507034 
Q 39.45029 36.86971 40.874897 37.282097 
Q 42.786869 37.844441 43.705366 39.04411 
Q 44.623862 40.243779 44.680097 41.668386 
Q 44.736331 43.092993 44.773821 44.817517 
Q 44.81131 46.542041 44.961269 48.191586 
" clip-path="url(#pd82947edee)" style="fill: none; stroke: #000000; stroke-linejoin: miter"/>
   </g>
  </g>
  <g id="axes_4">
   <g id="patch_5">
    <path d="M 61.956735 34.365306 
Q 61.956735 34.365306 61.460816 34.365306 
Q 60.667347 34.365306 59.179592 34.067755 
Q 57.691837 33.770204 56.898367 33.770204 
Q 54.121224 33.770204 52.187143 35.224898 
Q 50.253061 36.679592 50.253061 39.423673 
Q 50.253061 40.94449 51.740816 42.399184 
Q 53.228571 43.853878 55.162653 44.663878 
Q 57.096735 45.473878 58.58449 45.473878 
Q 59.510204 45.473878 60.20449 45.110204 
Q 60.898776 44.746531 61.642653 44.118367 
Q 62.386531 43.490204 62.948571 43.192653 
L 63.146939 42.696735 
" clip-path="url(#pd2f3ab7da3)" style="fill: none; stroke: #000000; stroke-linejoin: miter"/>
   </g>
  </g>
  <g id="axes_5">
   <g id="patch_6">
    <path d="M 66.657798 38.160826 
Q 69.630275 39.535596 74.349083 39.721376 
Q 75.872477 39.721376 76.559862 38.550963 
Q 77.247248 37.38055 77.247248 35.82 
Q 77.247248 35.299817 77.154358 34.909679 
Q 77.061468 34.519541 76.819954 34.296606 
Q 76.57844 34.07367 76.411239 33.943624 
Q 76.244037 33.813578 75.798165 33.757844 
Q 75.352294 33.70211 75.147936 33.683532 
Q 74.943578 33.664954 74.367661 33.683532 
Q 73.791743 33.70211 73.568807 33.70211 
Q 71.525229 33.70211 70.038991 35.578486 
Q 68.552752 37.454862 68.552752 39.609908 
Q 68.552752 42.619541 70.484862 44.570229 
Q 72.416972 46.520917 75.463761 46.520917 
Q 77.618807 46.818165 79.142202 44.29156 
" clip-path="url(#pf7853c0bad)" style="fill: none; stroke: #000000; stroke-linejoin: miter"/>
   </g>
  </g>
  <g id="axes_6"/>
  <g id="axes_7">
   <g id="patch_7">
    <path d="M 105.918579 29.071862 
Q 105.543683 29.146841 105.412469 29.577972 
Q 105.281255 30.009103 105.356234 30.42149 
Q 105.356234 30.571448 105.393724 30.702662 
Q 105.431214 30.833876 105.487448 30.89011 
Q 105.543683 30.946345 105.599917 31.040069 
Q 105.656152 31.133793 105.693641 31.208772 
L 105.80611 29.859145 
M 105.80611 34.020497 
Q 104.906359 39.006621 104.681421 42.793076 
L 105.131297 45.379862 
L 105.468703 46.054676 
" clip-path="url(#pb37882c463)" style="fill: none; stroke: #000000; stroke-linejoin: miter"/>
   </g>
  </g>
  <g id="axes_8">
   <g id="patch_8">
    <path d="M 117.038731 37.282097 
L 117.038731 37.844441 
Q 117.301159 39.868883 117.338648 41.312234 
Q 117.376138 42.755586 117.282414 44.667559 
Q 117.18869 46.579531 117.18869 48.191586 
L 117.263669 39.643945 
Q 117.263669 38.144359 118.856979 37.507034 
Q 120.45029 36.86971 121.874897 37.282097 
Q 123.786869 37.844441 124.705366 39.04411 
Q 125.623862 40.243779 125.680097 41.668386 
Q 125.736331 43.092993 125.773821 44.817517 
Q 125.81131 46.542041 125.961269 48.191586 
" clip-path="url(#p9482371b94)" style="fill: none; stroke: #000000; stroke-linejoin: miter"/>
   </g>
  </g>
  <g id="axes_9"/>
  <g id="axes_10">
   <g id="patch_9">
    <path d="M 149.063834 37.95691 
L 149.738648 37.95691 
Q 150.450952 37.95691 151.238234 37.881931 
Q 152.025517 37.806952 152.981503 37.675738 
Q 153.93749 37.544524 154.462345 37.507034 
L 158.736166 35.82 
M 154.687283 30.42149 
L 154.687283 31.43371 
Q 154.687283 33.383172 154.012469 37.207117 
Q 153.337655 41.031062 153.337655 43.018014 
Q 153.337655 43.805297 153.337655 44.105214 
Q 153.337655 44.405131 153.431379 45.042455 
Q 153.525103 45.679779 153.712552 45.960952 
Q 153.9 46.242124 154.293641 46.485807 
Q 154.687283 46.72949 155.249628 46.72949 
Q 155.362097 46.692 155.680759 46.72949 
Q 155.999421 46.766979 156.186869 46.710745 
Q 156.374317 46.65451 156.374317 46.392083 
" clip-path="url(#p11e92a83e9)" style="fill: none; stroke: #000000; stroke-linejoin: miter"/>
   </g>
  </g>
  <g id="axes_11">
   <g id="patch_10">
    <path d="M 166.613462 35.932469 
Q 167.213297 35.257655 168.206772 34.826524 
Q 169.200248 34.395393 170.1 34.470372 
Q 170.737324 34.470372 171.22469 34.639076 
Q 171.712055 34.807779 172.030717 34.995228 
Q 172.349379 35.182676 172.574317 35.670041 
Q 172.799255 36.157407 172.911724 36.419834 
Q 173.024193 36.682262 173.080428 37.375821 
Q 173.136662 38.069379 173.155407 38.331807 
Q 173.174152 38.594234 173.155407 39.419007 
Q 173.136662 40.243779 173.136662 40.431228 
Q 173.136662 41.368469 172.967959 43.242952 
Q 172.799255 45.117434 172.799255 46.054676 
Q 172.799255 46.467062 172.85549 46.823214 
Q 172.911724 47.179366 173.005448 47.610497 
Q 173.099172 48.041628 173.136662 48.304055 
L 173.586538 48.528993 
M 167.063338 23.111007 
Q 167.288276 24.798041 167.288276 29.971614 
L 167.288276 42.3432 
L 166.950869 46.841959 
L 166.725931 47.74171 
" clip-path="url(#p75b3d8ebea)" style="fill: none; stroke: #000000; stroke-linejoin: miter"/>
   </g>
  </g>
  <g id="axes_12">
   <g id="patch_11">
    <path d="M 180.057798 38.160826 
Q 183.030275 39.535596 187.749083 39.721376 
Q 189.272477 39.721376 189.959862 38.550963 
Q 190.647248 37.38055 190.647248 35.82 
Q 190.647248 35.299817 190.554358 34.909679 
Q 190.461468 34.519541 190.219954 34.296606 
Q 189.97844 34.07367 189.811239 33.943624 
Q 189.644037 33.813578 189.198165 33.757844 
Q 188.752294 33.70211 188.547936 33.683532 
Q 188.343578 33.664954 187.767661 33.683532 
Q 187.191743 33.70211 186.968807 33.70211 
Q 184.925229 33.70211 183.438991 35.578486 
Q 181.952752 37.454862 181.952752 39.609908 
Q 181.952752 42.619541 183.884862 44.570229 
Q 185.816972 46.520917 188.863761 46.520917 
Q 191.018807 46.818165 192.542202 44.29156 
" clip-path="url(#p4d7fd64504)" style="fill: none; stroke: #000000; stroke-linejoin: miter"/>
   </g>
  </g>
  <g id="axes_13"/>
  <g id="axes_14">
   <g id="patch_12">
    <path d="M 215.157228 37.244607 
Q 216.206938 37.207117 216.394386 37.132138 
Q 219.805945 37.132138 221.586703 39.212814 
Q 223.367462 41.29349 223.367462 44.780028 
Q 223.367462 47.704221 218.756234 47.704221 
Q 218.11891 47.704221 217.57531 47.591752 
Q 217.03171 47.479283 216.394386 47.254345 
Q 215.757062 47.029407 215.269697 46.916938 
L 214.032538 45.679779 
M 215.044759 25.435366 
L 215.044759 26.560055 
Q 215.044759 29.409269 215.157228 33.008276 
Q 215.269697 36.607283 215.457145 40.899848 
Q 215.644593 45.192414 215.719572 47.141876 
" clip-path="url(#p0ce157e548)" style="fill: none; stroke: #000000; stroke-linejoin: miter"/>
   </g>
  </g>
  <g id="axes_15">
   <g id="patch_13">
    <path d="M 228.657798 38.160826 
Q 231.630275 39.535596 236.349083 39.721376 
Q 237.872477 39.721376 238.559862 38.550963 
Q 239.247248 37.38055 239.247248 35.82 
Q 239.247248 35.299817 239.154358 34.909679 
Q 239.061468 34.519541 238.819954 34.296606 
Q 238.57844 34.07367 238.411239 33.943624 
Q 238.244037 33.813578 237.798165 33.757844 
Q 237.352294 33.70211 237.147936 33.683532 
Q 236.943578 33.664954 236.367661 33.683532 
Q 235.791743 33.70211 235.568807 33.70211 
Q 233.525229 33.70211 232.038991 35.578486 
Q 230.552752 37.454862 230.552752 39.609908 
Q 230.552752 42.619541 232.484862 44.570229 
Q 234.416972 46.520917 237.463761 46.520917 
Q 239.618807 46.818165 241.142202 44.29156 
" clip-path="url(#p5e088874c0)" style="fill: none; stroke: #000000; stroke-linejoin: miter"/>
   </g>
  </g>
  <g id="axes_16">
   <g id="patch_14">
    <path d="M 247.613462 32.783338 
Q 248.138317 34.507862 248.269531 36.457324 
Q 248.400745 38.406786 248.325766 40.956083 
Q 248.250786 43.505379 248.288276 44.705048 
L 248.400745 46.054676 
L 248.400745 45.829738 
Q 248.400745 44.667559 248.119572 42.30571 
Q 247.8384 39.943862 247.8384 38.744193 
Q 247.8384 36.419834 248.850621 34.882759 
Q 249.862841 33.345683 251.887283 33.345683 
Q 252.599586 33.345683 252.936993 33.626855 
Q 253.2744 33.908028 253.536828 34.432883 
Q 253.799255 34.957738 254.136662 35.257655 
L 254.586538 36.832221 
" clip-path="url(#p3e25fe5348)" style="fill: none; stroke: #000000; stroke-linejoin: miter"/>
   </g>
  </g>
  <g id="axes_17">
   <g id="patch_15">
    <path d="M 272.087191 39.096404 
Q 271.83236 39.023596 270.86764 38.623146 
Q 269.902921 38.222697 269.24764 38.077079 
Q 268.59236 37.931461 267.937079 38.00427 
Q 265.315955 38.00427 263.677753 40.388764 
Q 262.039551 42.773258 262.039551 45.430787 
Q 262.039551 47.068989 267.281798 47.068989 
Q 268.847191 47.068989 270.175955 45.558202 
Q 271.504719 44.047416 272.178202 42.172584 
Q 272.851685 40.297753 272.851685 38.768764 
Q 272.851685 37.27618 272.815281 36.984944 
L 272.742472 38.077079 
Q 272.742472 38.550337 272.742472 38.987191 
Q 272.778876 40.188539 272.979101 42.281798 
Q 273.179326 44.375056 273.343146 46.049663 
Q 273.506966 47.72427 273.543371 49.872135 
Q 273.579775 52.02 273.415955 53.658202 
Q 273.252135 55.296404 272.687865 56.971011 
Q 272.123596 58.645618 271.195281 59.737753 
Q 270.266966 60.829888 268.665169 61.521573 
Q 267.063371 62.213258 264.915506 62.213258 
Q 263.277303 62.213258 262.185169 61.466966 
Q 261.093034 60.720674 261.093034 59.155281 
Q 261.020225 58.936854 261.056629 58.936854 
Q 261.093034 58.936854 261.202247 58.936854 
Q 261.311461 58.936854 261.311461 58.82764 
" clip-path="url(#p6e93b93751)" style="fill: none; stroke: #000000; stroke-linejoin: miter"/>
   </g>
  </g>
  <g id="axes_18">
   <g id="patch_16">
    <path d="M 281.513048 29.671697 
Q 282.37531 30.271531 283.200083 31.171283 
Q 284.024855 32.071034 284.980841 33.270703 
Q 285.936828 34.470372 286.461683 35.070207 
M 280.350869 41.705876 
L 280.575807 41.705876 
Q 280.838234 41.668386 281.36309 41.76211 
Q 281.887945 41.855834 282.150372 41.818345 
Q 282.750207 41.743366 283.331297 41.780855 
Q 283.912386 41.818345 284.474731 41.743366 
Q 285.037076 41.668386 285.468207 41.443448 
Q 285.899338 41.21851 286.161766 40.637421 
Q 286.424193 40.056331 286.424193 39.11909 
Q 286.311724 37.881931 285.393228 37.319586 
Q 284.474731 36.757241 283.275062 36.86971 
Q 281.925434 36.982179 281.025683 37.9944 
Q 280.125931 39.006621 280.125931 40.356248 
Q 280.125931 48.82891 286.874069 46.766979 
" clip-path="url(#p4642e1de73)" style="fill: none; stroke: #000000; stroke-linejoin: miter"/>
   </g>
  </g>
  <g id="axes_19">
   <g id="patch_17">
    <path d="M 296.213462 32.783338 
Q 296.738317 34.507862 296.869531 36.457324 
Q 297.000745 38.406786 296.925766 40.956083 
Q 296.850786 43.505379 296.888276 44.705048 
L 297.000745 46.054676 
L 297.000745 45.829738 
Q 297.000745 44.667559 296.719572 42.30571 
Q 296.4384 39.943862 296.4384 38.744193 
Q 296.4384 36.419834 297.450621 34.882759 
Q 298.462841 33.345683 300.487283 33.345683 
Q 301.199586 33.345683 301.536993 33.626855 
Q 301.8744 33.908028 302.136828 34.432883 
Q 302.399255 34.957738 302.736662 35.257655 
L 303.186538 36.832221 
" clip-path="url(#p38c7d83884)" style="fill: none; stroke: #000000; stroke-linejoin: miter"/>
   </g>
  </g>
  <g id="axes_20">
   <g id="patch_18">
    <path d="M 309.657798 38.160826 
Q 312.630275 39.535596 317.349083 39.721376 
Q 318.872477 39.721376 319.559862 38.550963 
Q 320.247248 37.38055 320.247248 35.82 
Q 320.247248 35.299817 320.154358 34.909679 
Q 320.061468 34.519541 319.819954 34.296606 
Q 319.57844 34.07367 319.411239 33.943624 
Q 319.244037 33.813578 318.798165 33.757844 
Q 318.352294 33.70211 318.147936 33.683532 
Q 317.943578 33.664954 317.367661 33.683532 
Q 316.791743 33.70211 316.568807 33.70211 
Q 314.525229 33.70211 313.038991 35.578486 
Q 311.552752 37.454862 311.552752 39.609908 
Q 311.552752 42.619541 313.484862 44.570229 
Q 315.416972 46.520917 318.463761 46.520917 
Q 320.618807 46.818165 322.142202 44.29156 
" clip-path="url(#pa6fe4b54bd)" style="fill: none; stroke: #000000; stroke-linejoin: miter"/>
   </g>
  </g>
  <g id="axes_21"/>
  <g id="axes_22">
   <g id="patch_19">
    <path d="M 353.843923 36.441748 
Q 352.634968 35.094627 348.662687 35.094627 
Q 347.142857 35.094627 346.365672 35.146439 
Q 345.588486 35.198252 344.58678 35.440043 
Q 343.585075 35.681834 343.101493 36.182687 
Q 342.61791 36.683539 342.272495 37.616162 
Q 341.927079 38.548785 341.927079 39.964989 
Q 341.927079 42.037484 343.343284 43.280981 
Q 344.759488 44.524478 346.693817 44.524478 
Q 349.353518 44.524478 352.116844 38.721493 
Q 353.463966 35.854542 353.463966 35.82 
Q 353.809382 35.578209 353.843923 36.441748 
Q 353.843923 37.512537 354.258422 40.362217 
Q 354.672921 43.211898 354.672921 44.524478 
" clip-path="url(#pc40ffab8a8)" style="fill: none; stroke: #000000; stroke-linejoin: miter"/>
   </g>
  </g>
  <g id="axes_23">
   <g id="patch_20">
    <path d="M 361.013462 32.783338 
Q 361.538317 34.507862 361.669531 36.457324 
Q 361.800745 38.406786 361.725766 40.956083 
Q 361.650786 43.505379 361.688276 44.705048 
L 361.800745 46.054676 
L 361.800745 45.829738 
Q 361.800745 44.667559 361.519572 42.30571 
Q 361.2384 39.943862 361.2384 38.744193 
Q 361.2384 36.419834 362.250621 34.882759 
Q 363.262841 33.345683 365.287283 33.345683 
Q 365.999586 33.345683 366.336993 33.626855 
Q 366.6744 33.908028 366.936828 34.432883 
Q 367.199255 34.957738 367.536662 35.257655 
L 367.986538 36.832221 
" clip-path="url(#p4dac64068b)" style="fill: none; stroke: #000000; stroke-linejoin: miter"/>
   </g>
  </g>
  <g id="axes_24">
   <g id="patch_21">
    <path d="M 374.408036 34.879821 
Q 374.914286 36.073125 375.203571 42.871339 
Q 375.348214 46.632054 375.6375 46.632054 
Q 375.673661 46.632054 375.709821 46.595893 
Q 376.216071 46.017321 376.270312 44.588973 
Q 376.324554 43.160625 376.107589 41.750357 
Q 375.890625 40.340089 375.6375 38.712857 
Q 375.384375 37.085625 375.384375 36.398571 
Q 375.384375 35.169107 375.764062 33.939643 
Q 376.14375 32.710179 377.120089 32.710179 
Q 378.349554 32.710179 379.072768 34.355491 
Q 379.795982 36.000804 379.958705 37.971563 
Q 380.121429 39.942321 380.229911 41.587634 
Q 380.338393 43.232946 380.483036 43.232946 
Q 380.627679 43.232946 380.71808 41.497232 
Q 380.808482 39.761518 380.935045 37.700357 
Q 381.061607 35.639196 381.784821 33.903482 
Q 382.508036 32.167768 383.7375 32.167768 
Q 385.292411 33.035625 385.961384 34.771339 
Q 386.630357 36.507054 386.594196 38.188527 
Q 386.558036 39.87 386.576116 42.057723 
Q 386.594196 44.245446 386.991964 45.511071 
" clip-path="url(#pe09ba953d3)" style="fill: none; stroke: #000000; stroke-linejoin: miter"/>
   </g>
  </g>
  <g id="axes_25">
   <g id="patch_22">
    <path d="M 402.156735 34.365306 
Q 402.156735 34.365306 401.660816 34.365306 
Q 400.867347 34.365306 399.379592 34.067755 
Q 397.891837 33.770204 397.098367 33.770204 
Q 394.321224 33.770204 392.387143 35.224898 
Q 390.453061 36.679592 390.453061 39.423673 
Q 390.453061 40.94449 391.940816 42.399184 
Q 393.428571 43.853878 395.362653 44.663878 
Q 397.296735 45.473878 398.78449 45.473878 
Q 399.710204 45.473878 400.40449 45.110204 
Q 401.098776 44.746531 401.842653 44.118367 
Q 402.586531 43.490204 403.148571 43.192653 
L 403.346939 42.696735 
" clip-path="url(#p6a6e4d8014)" style="fill: none; stroke: #000000; stroke-linejoin: miter"/>
   </g>
  </g>
  <g id="axes_26">
   <g id="patch_23">
    <path d="M 409.613462 35.932469 
Q 410.213297 35.257655 411.206772 34.826524 
Q 412.200248 34.395393 413.1 34.470372 
Q 413.737324 34.470372 414.22469 34.639076 
Q 414.712055 34.807779 415.030717 34.995228 
Q 415.349379 35.182676 415.574317 35.670041 
Q 415.799255 36.157407 415.911724 36.419834 
Q 416.024193 36.682262 416.080428 37.375821 
Q 416.136662 38.069379 416.155407 38.331807 
Q 416.174152 38.594234 416.155407 39.419007 
Q 416.136662 40.243779 416.136662 40.431228 
Q 416.136662 41.368469 415.967959 43.242952 
Q 415.799255 45.117434 415.799255 46.054676 
Q 415.799255 46.467062 415.85549 46.823214 
Q 415.911724 47.179366 416.005448 47.610497 
Q 416.099172 48.041628 416.136662 48.304055 
L 416.586538 48.528993 
M 410.063338 23.111007 
Q 410.288276 24.798041 410.288276 29.971614 
L 410.288276 42.3432 
L 409.950869 46.841959 
L 409.725931 47.74171 
" clip-path="url(#pe173b1988e)" style="fill: none; stroke: #000000; stroke-linejoin: miter"/>
   </g>
  </g>
  <g id="axes_27">
   <g id="patch_24">
    <path d="M 434.843923 36.441748 
Q 433.634968 35.094627 429.662687 35.094627 
Q 428.142857 35.094627 427.365672 35.146439 
Q 426.588486 35.198252 425.58678 35.440043 
Q 424.585075 35.681834 424.101493 36.182687 
Q 423.61791 36.683539 423.272495 37.616162 
Q 422.927079 38.548785 422.927079 39.964989 
Q 422.927079 42.037484 424.343284 43.280981 
Q 425.759488 44.524478 427.693817 44.524478 
Q 430.353518 44.524478 433.116844 38.721493 
Q 434.463966 35.854542 434.463966 35.82 
Q 434.809382 35.578209 434.843923 36.441748 
Q 434.843923 37.512537 435.258422 40.362217 
Q 435.672921 43.211898 435.672921 44.524478 
" clip-path="url(#p3e58ee0c62)" style="fill: none; stroke: #000000; stroke-linejoin: miter"/>
   </g>
  </g>
  <g id="axes_28">
   <g id="patch_25">
    <path d="M 446.118579 29.071862 
Q 445.743683 29.146841 445.612469 29.577972 
Q 445.481255 30.009103 445.556234 30.42149 
Q 445.556234 30.571448 445.593724 30.702662 
Q 445.631214 30.833876 445.687448 30.89011 
Q 445.743683 30.946345 445.799917 31.040069 
Q 445.856152 31.133793 445.893641 31.208772 
L 446.00611 29.859145 
M 446.00611 34.020497 
Q 445.106359 39.006621 444.881421 42.793076 
L 445.331297 45.379862 
L 445.668703 46.054676 
" clip-path="url(#p91857b212d)" style="fill: none; stroke: #000000; stroke-linejoin: miter"/>
   </g>
  </g>
  <g id="axes_29">
   <g id="patch_26">
    <path d="M 458.213462 32.783338 
Q 458.738317 34.507862 458.869531 36.457324 
Q 459.000745 38.406786 458.925766 40.956083 
Q 458.850786 43.505379 458.888276 44.705048 
L 459.000745 46.054676 
L 459.000745 45.829738 
Q 459.000745 44.667559 458.719572 42.30571 
Q 458.4384 39.943862 458.4384 38.744193 
Q 458.4384 36.419834 459.450621 34.882759 
Q 460.462841 33.345683 462.487283 33.345683 
Q 463.199586 33.345683 463.536993 33.626855 
Q 463.8744 33.908028 464.136828 34.432883 
Q 464.399255 34.957738 464.736662 35.257655 
L 465.186538 36.832221 
" clip-path="url(#pfc958897d4)" style="fill: none; stroke: #000000; stroke-linejoin: miter"/>
   </g>
  </g>
  <g id="axes_30"/>
  <g id="axes_31">
   <g id="patch_27">
    <path d="M 499.643923 36.441748 
Q 498.434968 35.094627 494.462687 35.094627 
Q 492.942857 35.094627 492.165672 35.146439 
Q 491.388486 35.198252 490.38678 35.440043 
Q 489.385075 35.681834 488.901493 36.182687 
Q 488.41791 36.683539 488.072495 37.616162 
Q 487.727079 38.548785 487.727079 39.964989 
Q 487.727079 42.037484 489.143284 43.280981 
Q 490.559488 44.524478 492.493817 44.524478 
Q 495.153518 44.524478 497.916844 38.721493 
Q 499.263966 35.854542 499.263966 35.82 
Q 499.609382 35.578209 499.643923 36.441748 
Q 499.643923 37.512537 500.058422 40.362217 
Q 500.472921 43.211898 500.472921 44.524478 
" clip-path="url(#p82861c7aea)" style="fill: none; stroke: #000000; stroke-linejoin: miter"/>
   </g>
  </g>
  <g id="axes_32">
   <g id="patch_28">
    <path d="M 505.838731 37.282097 
L 505.838731 37.844441 
Q 506.101159 39.868883 506.138648 41.312234 
Q 506.176138 42.755586 506.082414 44.667559 
Q 505.98869 46.579531 505.98869 48.191586 
L 506.063669 39.643945 
Q 506.063669 38.144359 507.656979 37.507034 
Q 509.25029 36.86971 510.674897 37.282097 
Q 512.586869 37.844441 513.505366 39.04411 
Q 514.423862 40.243779 514.480097 41.668386 
Q 514.536331 43.092993 514.573821 44.817517 
Q 514.61131 46.542041 514.761269 48.191586 
" clip-path="url(#p52177ac255)" style="fill: none; stroke: #000000; stroke-linejoin: miter"/>
   </g>
  </g>
  <g id="axes_33">
   <g id="patch_29">
    <path d="M 530.099007 39.568966 
Q 528.749379 38.181848 526.5 38.444276 
Q 523.650786 38.444276 522.488607 39.793903 
Q 521.326428 41.143531 521.326428 44.067724 
Q 521.326428 45.56731 522.619821 46.279614 
Q 523.913214 46.991917 525.487779 46.991917 
Q 526.799917 46.991917 527.812138 45.736014 
Q 528.824359 44.48011 529.405448 42.30571 
Q 529.986538 40.13131 530.361434 37.938166 
Q 530.736331 35.745021 530.88629 33.045766 
Q 531.036248 30.34651 531.073738 28.978138 
Q 531.111228 27.609766 531.111228 26.185159 
Q 530.88629 26.260138 530.88629 29.896634 
L 530.88629 44.292662 
L 531.673572 48.229076 
" clip-path="url(#pc751201157)" style="fill: none; stroke: #000000; stroke-linejoin: miter"/>
   </g>
  </g>
  <g id="axes_34"/>
  <g id="axes_35">
   <g id="patch_30">
    <path d="M 552.584141 38.85304 
L 553.012335 38.85304 
Q 553.83304 38.85304 554.796476 38.745991 
Q 555.759912 38.638943 556.919604 38.460529 
Q 558.079295 38.282115 558.685903 38.210749 
L 565.215859 35.427489 
M 564.894714 25.793128 
Q 564.609251 25.721762 563.574449 25.275727 
Q 562.539648 24.829692 561.897357 24.93674 
Q 561.255066 24.93674 560.737665 25.150837 
Q 560.220264 25.364934 559.881278 25.793128 
Q 559.542291 26.221322 559.27467 26.685198 
Q 559.007048 27.149075 558.864317 27.862731 
Q 558.721586 28.576388 558.614537 29.129471 
Q 558.507489 29.682555 558.489648 30.50326 
Q 558.471806 31.323965 558.453965 31.77 
Q 558.436123 32.216035 558.453965 32.965374 
Q 558.471806 33.714714 558.471806 33.928811 
Q 558.471806 36.605022 559.167621 41.850396 
Q 559.863436 47.095771 559.863436 49.771982 
Q 559.79207 50.057445 559.756388 50.681894 
Q 559.720705 51.306344 559.613656 51.805903 
Q 559.506608 52.305463 559.221145 52.555242 
" clip-path="url(#p40e0c626aa)" style="fill: none; stroke: #000000; stroke-linejoin: miter"/>
   </g>
  </g>
  <g id="axes_36">
   <g id="patch_31">
    <path d="M 574.706359 28.621986 
Q 574.931297 30.34651 575.006276 32.146014 
Q 575.081255 33.945517 575.06251 36.551048 
Q 575.043766 39.156579 575.043766 40.093821 
Q 575.043766 40.13131 575.268703 45.829738 
L 575.493641 46.841959 
" clip-path="url(#p68e0a5fec8)" style="fill: none; stroke: #000000; stroke-linejoin: miter"/>
   </g>
  </g>
  <g id="axes_37">
   <g id="patch_32">
    <path d="M 591.918579 29.071862 
Q 591.543683 29.146841 591.412469 29.577972 
Q 591.281255 30.009103 591.356234 30.42149 
Q 591.356234 30.571448 591.393724 30.702662 
Q 591.431214 30.833876 591.487448 30.89011 
Q 591.543683 30.946345 591.599917 31.040069 
Q 591.656152 31.133793 591.693641 31.208772 
L 591.80611 29.859145 
M 591.80611 34.020497 
Q 590.906359 39.006621 590.681421 42.793076 
L 591.131297 45.379862 
L 591.468703 46.054676 
" clip-path="url(#pf9cd986354)" style="fill: none; stroke: #000000; stroke-linejoin: miter"/>
   </g>
  </g>
  <g id="axes_38">
   <g id="patch_33">
    <path d="M 612.756735 34.365306 
Q 612.756735 34.365306 612.260816 34.365306 
Q 611.467347 34.365306 609.979592 34.067755 
Q 608.491837 33.770204 607.698367 33.770204 
Q 604.921224 33.770204 602.987143 35.224898 
Q 601.053061 36.679592 601.053061 39.423673 
Q 601.053061 40.94449 602.540816 42.399184 
Q 604.028571 43.853878 605.962653 44.663878 
Q 607.896735 45.473878 609.38449 45.473878 
Q 610.310204 45.473878 611.00449 45.110204 
Q 611.698776 44.746531 612.442653 44.118367 
Q 613.186531 43.490204 613.748571 43.192653 
L 613.946939 42.696735 
" clip-path="url(#p7ee828c0dc)" style="fill: none; stroke: #000000; stroke-linejoin: miter"/>
   </g>
  </g>
  <g id="axes_39">
   <g id="patch_34">
    <path d="M 621.731793 37.169628 
Q 623.756234 39.194069 625.518248 41.76211 
Q 627.280262 44.330152 628.142524 46.72949 
M 624.768455 31.321241 
L 624.768455 31.546179 
Q 624.768455 32.333462 624.131131 33.514386 
Q 623.493807 34.69531 622.519076 36.101172 
Q 621.544345 37.507034 621.281917 37.95691 
L 620.044759 39.643945 
M 619.257476 26.710014 
Q 621.094469 36.269876 621.281917 48.641462 
" clip-path="url(#p616dbfc62a)" style="fill: none; stroke: #000000; stroke-linejoin: miter"/>
   </g>
  </g>
  <g id="axes_40">
   <g id="patch_35">
    <path d="M 640.518579 29.071862 
Q 640.143683 29.146841 640.012469 29.577972 
Q 639.881255 30.009103 639.956234 30.42149 
Q 639.956234 30.571448 639.993724 30.702662 
Q 640.031214 30.833876 640.087448 30.89011 
Q 640.143683 30.946345 640.199917 31.040069 
Q 640.256152 31.133793 640.293641 31.208772 
L 640.40611 29.859145 
M 640.40611 34.020497 
Q 639.506359 39.006621 639.281421 42.793076 
L 639.731297 45.379862 
L 640.068703 46.054676 
" clip-path="url(#p2e5ae95289)" style="fill: none; stroke: #000000; stroke-linejoin: miter"/>
   </g>
  </g>
  <g id="axes_41">
   <g id="patch_36">
    <path d="M 651.638731 37.282097 
L 651.638731 37.844441 
Q 651.901159 39.868883 651.938648 41.312234 
Q 651.976138 42.755586 651.882414 44.667559 
Q 651.78869 46.579531 651.78869 48.191586 
L 651.863669 39.643945 
Q 651.863669 38.144359 653.456979 37.507034 
Q 655.05029 36.86971 656.474897 37.282097 
Q 658.386869 37.844441 659.305366 39.04411 
Q 660.223862 40.243779 660.280097 41.668386 
Q 660.336331 43.092993 660.373821 44.817517 
Q 660.41131 46.542041 660.561269 48.191586 
" clip-path="url(#p87fcd692c3)" style="fill: none; stroke: #000000; stroke-linejoin: miter"/>
   </g>
  </g>
  <g id="axes_42">
   <g id="patch_37">
    <path d="M 677.087191 39.096404 
Q 676.83236 39.023596 675.86764 38.623146 
Q 674.902921 38.222697 674.24764 38.077079 
Q 673.59236 37.931461 672.937079 38.00427 
Q 670.315955 38.00427 668.677753 40.388764 
Q 667.039551 42.773258 667.039551 45.430787 
Q 667.039551 47.068989 672.281798 47.068989 
Q 673.847191 47.068989 675.175955 45.558202 
Q 676.504719 44.047416 677.178202 42.172584 
Q 677.851685 40.297753 677.851685 38.768764 
Q 677.851685 37.27618 677.815281 36.984944 
L 677.742472 38.077079 
Q 677.742472 38.550337 677.742472 38.987191 
Q 677.778876 40.188539 677.979101 42.281798 
Q 678.179326 44.375056 678.343146 46.049663 
Q 678.506966 47.72427 678.543371 49.872135 
Q 678.579775 52.02 678.415955 53.658202 
Q 678.252135 55.296404 677.687865 56.971011 
Q 677.123596 58.645618 676.195281 59.737753 
Q 675.266966 60.829888 673.665169 61.521573 
Q 672.063371 62.213258 669.915506 62.213258 
Q 668.277303 62.213258 667.185169 61.466966 
Q 666.093034 60.720674 666.093034 59.155281 
Q 666.020225 58.936854 666.056629 58.936854 
Q 666.093034 58.936854 666.202247 58.936854 
Q 666.311461 58.936854 666.311461 58.82764 
" clip-path="url(#pf8c55e9830)" style="fill: none; stroke: #000000; stroke-linejoin: miter"/>
   </g>
  </g>
 </g>
 <defs>
  <clipPath id="p906537fa5c">
   <rect x="1.051945" y="8.64" width="14.09611" height="54.36"/>
  </clipPath>
  <clipPath id="ped5649e744">
   <rect x="16.2" y="8.881927" width="16.2" height="53.876147"/>
  </clipPath>
  <clipPath id="pd82947edee">
   <rect x="34.164248" y="8.64" width="12.671503" height="54.36"/>
  </clipPath>
  <clipPath id="pd2f3ab7da3">
   <rect x="48.6" y="11.850612" width="16.2" height="47.938776"/>
  </clipPath>
  <clipPath id="pf7853c0bad">
   <rect x="64.8" y="8.881927" width="16.2" height="53.876147"/>
  </clipPath>
  <clipPath id="pb37882c463">
   <rect x="102.806938" y="8.64" width="4.986124" height="54.36"/>
  </clipPath>
  <clipPath id="p9482371b94">
   <rect x="115.164248" y="8.64" width="12.671503" height="54.36"/>
  </clipPath>
  <clipPath id="p11e92a83e9">
   <rect x="147.189352" y="8.64" width="13.421297" height="54.36"/>
  </clipPath>
  <clipPath id="p75b3d8ebea">
   <rect x="164.738979" y="8.64" width="10.722041" height="54.36"/>
  </clipPath>
  <clipPath id="p4d7fd64504">
   <rect x="178.2" y="8.881927" width="16.2" height="53.876147"/>
  </clipPath>
  <clipPath id="p0ce157e548">
   <rect x="212.158055" y="8.64" width="13.08389" height="54.36"/>
  </clipPath>
  <clipPath id="p5e088874c0">
   <rect x="226.8" y="8.881927" width="16.2" height="53.876147"/>
  </clipPath>
  <clipPath id="p3e25fe5348">
   <rect x="245.738979" y="8.64" width="10.722041" height="54.36"/>
  </clipPath>
  <clipPath id="p6e93b93751">
   <rect x="259.2" y="9.426742" width="16.2" height="52.786517"/>
  </clipPath>
  <clipPath id="p4642e1de73">
   <rect x="278.251448" y="8.64" width="10.497103" height="54.36"/>
  </clipPath>
  <clipPath id="p38c7d83884">
   <rect x="294.338979" y="8.64" width="10.722041" height="54.36"/>
  </clipPath>
  <clipPath id="pa6fe4b54bd">
   <rect x="307.8" y="8.881927" width="16.2" height="53.876147"/>
  </clipPath>
  <clipPath id="pc40ffab8a8">
   <rect x="340.2" y="10.777356" width="16.2" height="50.085288"/>
  </clipPath>
  <clipPath id="p4dac64068b">
   <rect x="359.138979" y="8.64" width="10.722041" height="54.36"/>
  </clipPath>
  <clipPath id="pe09ba953d3">
   <rect x="372.6" y="9.603482" width="16.2" height="52.433036"/>
  </clipPath>
  <clipPath id="p6a6e4d8014">
   <rect x="388.8" y="11.850612" width="16.2" height="47.938776"/>
  </clipPath>
  <clipPath id="pe173b1988e">
   <rect x="407.738979" y="8.64" width="10.722041" height="54.36"/>
  </clipPath>
  <clipPath id="p3e58ee0c62">
   <rect x="421.2" y="10.777356" width="16.2" height="50.085288"/>
  </clipPath>
  <clipPath id="p91857b212d">
   <rect x="443.006938" y="8.64" width="4.986124" height="54.36"/>
  </clipPath>
  <clipPath id="pfc958897d4">
   <rect x="456.338979" y="8.64" width="10.722041" height="54.36"/>
  </clipPath>
  <clipPath id="p82861c7aea">
   <rect x="486" y="10.777356" width="16.2" height="50.085288"/>
  </clipPath>
  <clipPath id="p52177ac255">
   <rect x="503.964248" y="8.64" width="12.671503" height="54.36"/>
  </clipPath>
  <clipPath id="pc751201157">
   <rect x="519.451945" y="8.64" width="14.09611" height="54.36"/>
  </clipPath>
  <clipPath id="p40e0c626aa">
   <rect x="550.8" y="9.949956" width="16.2" height="51.740088"/>
  </clipPath>
  <clipPath id="p68e0a5fec8">
   <rect x="572.831876" y="8.64" width="4.536248" height="54.36"/>
  </clipPath>
  <clipPath id="pf9cd986354">
   <rect x="588.806938" y="8.64" width="4.986124" height="54.36"/>
  </clipPath>
  <clipPath id="p7ee828c0dc">
   <rect x="599.4" y="11.850612" width="16.2" height="47.938776"/>
  </clipPath>
  <clipPath id="p616dbfc62a">
   <rect x="617.382993" y="8.64" width="12.634014" height="54.36"/>
  </clipPath>
  <clipPath id="p2e5ae95289">
   <rect x="637.406938" y="8.64" width="4.986124" height="54.36"/>
  </clipPath>
  <clipPath id="p87fcd692c3">
   <rect x="649.764248" y="8.64" width="12.671503" height="54.36"/>
  </clipPath>
  <clipPath id="pf8c55e9830">
   <rect x="664.2" y="9.426742" width="16.2" height="52.786517"/>
  </clipPath>
 </defs>
</svg>
