<?xml version="1.0" encoding="utf-8" standalone="no"?>
<!DOCTYPE svg PUBLIC "-//W3C//DTD SVG 1.1//EN"
  "http://www.w3.org/Graphics/SVG/1.1/DTD/svg11.dtd">
<svg xmlns:xlink="http://www.w3.org/1999/xlink" width="756pt" height="72pt" viewBox="0 0 756 72" xmlns="http://www.w3.org/2000/svg" version="1.1">
 <metadata>
  <rdf:RDF xmlns:dc="http://purl.org/dc/elements/1.1/" xmlns:cc="http://creativecommons.org/ns#" xmlns:rdf="http://www.w3.org/1999/02/22-rdf-syntax-ns#">
   <cc:Work>
    <dc:type rdf:resource="http://purl.org/dc/dcmitype/StillImage"/>
    <dc:date>2024-01-04T18:45:29.073586</dc:date>
    <dc:format>image/svg+xml</dc:format>
    <dc:creator>
     <cc:Agent>
      <dc:title>Matplotlib v3.7.1, https://matplotlib.org/</dc:title>
     </cc:Agent>
    </dc:creator>
   </cc:Work>
  </rdf:RDF>
 </metadata>
 <defs>
  <style type="text/css">*{stroke-linejoin: round; stroke-linecap: butt}</style>
 </defs>
 <g id="figure_1">
  <g id="patch_1">
   <path d="M 0 72 
L 756 72 
L 756 0 
L 0 0 
z
" style="fill: #8fff9f"/>
  </g>
  <g id="axes_1">
   <g id="patch_2">
    <path d="M 1.808036 34.879821 
Q 2.314286 36.073125 2.603571 42.871339 
Q 2.748214 46.632054 3.0375 46.632054 
Q 3.073661 46.632054 3.109821 46.595893 
Q 3.616071 46.017321 3.670312 44.588973 
Q 3.724554 43.160625 3.507589 41.750357 
Q 3.290625 40.340089 3.0375 38.712857 
Q 2.784375 37.085625 2.784375 36.398571 
Q 2.784375 35.169107 3.164062 33.939643 
Q 3.54375 32.710179 4.520089 32.710179 
Q 5.749554 32.710179 6.472768 34.355491 
Q 7.195982 36.000804 7.358705 37.971562 
Q 7.521429 39.942321 7.629911 41.587634 
Q 7.738393 43.232946 7.883036 43.232946 
Q 8.027679 43.232946 8.11808 41.497232 
Q 8.208482 39.761518 8.335045 37.700357 
Q 8.461607 35.639196 9.184821 33.903482 
Q 9.908036 32.167768 11.1375 32.167768 
Q 12.692411 33.035625 13.361384 34.771339 
Q 14.030357 36.507054 13.994196 38.188527 
Q 13.958036 39.87 13.976116 42.057723 
Q 13.994196 44.245446 14.391964 45.511071 
" clip-path="url(#p649c61cb00)" style="fill: none; stroke: #000000; stroke-linejoin: miter"/>
   </g>
  </g>
  <g id="axes_2">
   <g id="patch_3">
    <path d="M 29.843923 36.441748 
Q 28.634968 35.094627 24.662687 35.094627 
Q 23.142857 35.094627 22.365672 35.146439 
Q 21.588486 35.198252 20.58678 35.440043 
Q 19.585075 35.681834 19.101493 36.182687 
Q 18.61791 36.683539 18.272495 37.616162 
Q 17.927079 38.548785 17.927079 39.964989 
Q 17.927079 42.037484 19.343284 43.280981 
Q 20.759488 44.524478 22.693817 44.524478 
Q 25.353518 44.524478 28.116844 38.721493 
Q 29.463966 35.854542 29.463966 35.82 
Q 29.809382 35.578209 29.843923 36.441748 
Q 29.843923 37.512537 30.258422 40.362217 
Q 30.672921 43.211898 30.672921 44.524478 
" clip-path="url(#p9345122403)" style="fill: none; stroke: #000000; stroke-linejoin: miter"/>
   </g>
  </g>
  <g id="axes_3">
   <g id="patch_4">
    <path d="M 36.057476 43.917766 
Q 36.357393 44.180193 37.369614 45.154924 
Q 38.381834 46.129655 38.944179 46.560786 
Q 39.506524 46.991917 40.53749 47.385559 
Q 41.568455 47.7792 42.580676 47.629241 
Q 43.25549 47.629241 43.72411 47.404303 
Q 44.192731 47.179366 44.417669 46.879448 
Q 44.642607 46.579531 44.773821 45.979697 
Q 44.905034 45.379862 44.923779 44.967476 
Q 44.942524 44.55509 44.942524 43.805297 
Q 44.942524 42.718097 44.042772 42.043283 
Q 43.143021 41.368469 41.849628 41.031062 
Q 40.556234 40.693655 39.262841 40.300014 
Q 37.969448 39.906372 37.069697 38.987876 
Q 36.169945 38.069379 36.169945 36.607283 
Q 36.169945 36.082428 36.338648 35.726276 
Q 36.507352 35.370124 36.900993 35.145186 
Q 37.294634 34.920248 37.575807 34.807779 
Q 37.856979 34.69531 38.513048 34.639076 
Q 39.169117 34.582841 39.356566 34.582841 
Q 39.544014 34.582841 40.218828 34.582841 
Q 41.418497 34.582841 41.999586 34.995228 
Q 42.580676 35.407614 42.899338 36.026193 
Q 43.218 36.644772 43.480428 36.832221 
" clip-path="url(#p4b2a28ca72)" style="fill: none; stroke: #000000; stroke-linejoin: miter"/>
   </g>
  </g>
  <g id="axes_4">
   <g id="patch_5">
    <path d="M 55.987697 39.981352 
Q 56.999917 40.956083 57.337324 42.905545 
Q 57.524772 43.955255 57.112386 46.167145 
L 55.875228 47.629241 
" clip-path="url(#pf8e2611b36)" style="fill: none; stroke: #000000; stroke-linejoin: miter"/>
   </g>
  </g>
  <g id="axes_5">
   <g id="patch_6">
    <path d="M 73.424855 27.009931 
Q 73.499834 27.347338 73.574814 28.265834 
Q 73.649793 29.184331 73.799752 29.634207 
L 73.724772 31.058814 
M 72.075228 27.309848 
Q 72.037738 27.309848 72.000248 27.534786 
Q 72.037738 27.684745 72.150207 28.828179 
Q 72.262676 29.971614 72.525103 30.533959 
" clip-path="url(#p8cb485929f)" style="fill: none; stroke: #000000; stroke-linejoin: miter"/>
   </g>
  </g>
  <g id="axes_6"/>
  <g id="axes_7">
   <g id="patch_7">
    <path d="M 100.463834 37.95691 
L 101.138648 37.95691 
Q 101.850952 37.95691 102.638234 37.881931 
Q 103.425517 37.806952 104.381503 37.675738 
Q 105.33749 37.544524 105.862345 37.507034 
L 110.136166 35.82 
M 106.087283 30.42149 
L 106.087283 31.43371 
Q 106.087283 33.383172 105.412469 37.207117 
Q 104.737655 41.031062 104.737655 43.018014 
Q 104.737655 43.805297 104.737655 44.105214 
Q 104.737655 44.405131 104.831379 45.042455 
Q 104.925103 45.679779 105.112552 45.960952 
Q 105.3 46.242124 105.693641 46.485807 
Q 106.087283 46.72949 106.649628 46.72949 
Q 106.762097 46.692 107.080759 46.72949 
Q 107.399421 46.766979 107.586869 46.710745 
Q 107.774317 46.65451 107.774317 46.392083 
" clip-path="url(#p601de6e543)" style="fill: none; stroke: #000000; stroke-linejoin: miter"/>
   </g>
  </g>
  <g id="axes_8">
   <g id="patch_8">
    <path d="M 118.013462 35.932469 
Q 118.613297 35.257655 119.606772 34.826524 
Q 120.600248 34.395393 121.5 34.470372 
Q 122.137324 34.470372 122.62469 34.639076 
Q 123.112055 34.807779 123.430717 34.995228 
Q 123.749379 35.182676 123.974317 35.670041 
Q 124.199255 36.157407 124.311724 36.419834 
Q 124.424193 36.682262 124.480428 37.375821 
Q 124.536662 38.069379 124.555407 38.331807 
Q 124.574152 38.594234 124.555407 39.419007 
Q 124.536662 40.243779 124.536662 40.431228 
Q 124.536662 41.368469 124.367959 43.242952 
Q 124.199255 45.117434 124.199255 46.054676 
Q 124.199255 46.467062 124.25549 46.823214 
Q 124.311724 47.179366 124.405448 47.610497 
Q 124.499172 48.041628 124.536662 48.304055 
L 124.986538 48.528993 
M 118.463338 23.111007 
Q 118.688276 24.798041 118.688276 29.971614 
L 118.688276 42.3432 
L 118.350869 46.841959 
L 118.125931 47.74171 
" clip-path="url(#p5dcec36a31)" style="fill: none; stroke: #000000; stroke-linejoin: miter"/>
   </g>
  </g>
  <g id="axes_9">
   <g id="patch_9">
    <path d="M 131.457798 38.160826 
Q 134.430275 39.535596 139.149083 39.721376 
Q 140.672477 39.721376 141.359862 38.550963 
Q 142.047248 37.38055 142.047248 35.82 
Q 142.047248 35.299817 141.954358 34.909679 
Q 141.861468 34.519541 141.619954 34.296606 
Q 141.37844 34.07367 141.211239 33.943624 
Q 141.044037 33.813578 140.598165 33.757844 
Q 140.152294 33.70211 139.947936 33.683532 
Q 139.743578 33.664954 139.167661 33.683532 
Q 138.591743 33.70211 138.368807 33.70211 
Q 136.325229 33.70211 134.838991 35.578486 
Q 133.352752 37.454862 133.352752 39.609908 
Q 133.352752 42.619541 135.284862 44.570229 
Q 137.216972 46.520917 140.263761 46.520917 
Q 142.418807 46.818165 143.942202 44.29156 
" clip-path="url(#p85b221a812)" style="fill: none; stroke: #000000; stroke-linejoin: miter"/>
   </g>
  </g>
  <g id="axes_10"/>
  <g id="axes_11">
   <g id="patch_10">
    <path d="M 165.320069 39.868883 
L 165.320069 39.419007 
Q 165.320069 37.769462 167.063338 36.682262 
Q 168.806607 35.595062 170.493641 35.595062 
Q 172.705531 35.595062 174.073903 36.794731 
Q 175.442276 37.9944 175.442276 40.20629 
Q 175.442276 42.30571 173.624028 43.336676 
Q 171.805779 44.367641 169.59389 44.367641 
Q 168.919076 44.367641 168.412966 44.255172 
Q 167.906855 44.142703 167.288276 43.917766 
Q 166.669697 43.692828 166.219821 43.580359 
L 165.095131 42.568138 
M 164.757724 36.832221 
Q 165.2076 38.444276 165.470028 40.262524 
Q 165.732455 42.080772 165.78869 43.749062 
Q 165.844924 45.417352 165.882414 47.27309 
Q 165.919903 49.128828 165.882414 50.778372 
L 165.769945 57.863917 
" clip-path="url(#p38b1405e72)" style="fill: none; stroke: #000000; stroke-linejoin: miter"/>
   </g>
  </g>
  <g id="axes_12">
   <g id="patch_11">
    <path d="M 182.813462 32.783338 
Q 183.338317 34.507862 183.469531 36.457324 
Q 183.600745 38.406786 183.525766 40.956083 
Q 183.450786 43.505379 183.488276 44.705048 
L 183.600745 46.054676 
L 183.600745 45.829738 
Q 183.600745 44.667559 183.319572 42.30571 
Q 183.0384 39.943862 183.0384 38.744193 
Q 183.0384 36.419834 184.050621 34.882759 
Q 185.062841 33.345683 187.087283 33.345683 
Q 187.799586 33.345683 188.136993 33.626855 
Q 188.4744 33.908028 188.736828 34.432883 
Q 188.999255 34.957738 189.336662 35.257655 
L 189.786538 36.832221 
" clip-path="url(#p17a9311eaf)" style="fill: none; stroke: #000000; stroke-linejoin: miter"/>
   </g>
  </g>
  <g id="axes_13">
   <g id="patch_12">
    <path d="M 196.257798 38.160826 
Q 199.230275 39.535596 203.949083 39.721376 
Q 205.472477 39.721376 206.159862 38.550963 
Q 206.847248 37.38055 206.847248 35.82 
Q 206.847248 35.299817 206.754358 34.909679 
Q 206.661468 34.519541 206.419954 34.296606 
Q 206.17844 34.07367 206.011239 33.943624 
Q 205.844037 33.813578 205.398165 33.757844 
Q 204.952294 33.70211 204.747936 33.683532 
Q 204.543578 33.664954 203.967661 33.683532 
Q 203.391743 33.70211 203.168807 33.70211 
Q 201.125229 33.70211 199.638991 35.578486 
Q 198.152752 37.454862 198.152752 39.609908 
Q 198.152752 42.619541 200.084862 44.570229 
Q 202.016972 46.520917 205.063761 46.520917 
Q 207.218807 46.818165 208.742202 44.29156 
" clip-path="url(#pa36004aaf8)" style="fill: none; stroke: #000000; stroke-linejoin: miter"/>
   </g>
  </g>
  <g id="axes_14">
   <g id="patch_13">
    <path d="M 213.863834 37.95691 
L 214.538648 37.95691 
Q 215.250952 37.95691 216.038234 37.881931 
Q 216.825517 37.806952 217.781503 37.675738 
Q 218.73749 37.544524 219.262345 37.507034 
L 223.536166 35.82 
M 219.487283 30.42149 
L 219.487283 31.43371 
Q 219.487283 33.383172 218.812469 37.207117 
Q 218.137655 41.031062 218.137655 43.018014 
Q 218.137655 43.805297 218.137655 44.105214 
Q 218.137655 44.405131 218.231379 45.042455 
Q 218.325103 45.679779 218.512552 45.960952 
Q 218.7 46.242124 219.093641 46.485807 
Q 219.487283 46.72949 220.049628 46.72949 
Q 220.162097 46.692 220.480759 46.72949 
Q 220.799421 46.766979 220.986869 46.710745 
Q 221.174317 46.65451 221.174317 46.392083 
" clip-path="url(#p786070aef9)" style="fill: none; stroke: #000000; stroke-linejoin: miter"/>
   </g>
  </g>
  <g id="axes_15">
   <g id="patch_14">
    <path d="M 230.063834 37.95691 
L 230.738648 37.95691 
Q 231.450952 37.95691 232.238234 37.881931 
Q 233.025517 37.806952 233.981503 37.675738 
Q 234.93749 37.544524 235.462345 37.507034 
L 239.736166 35.82 
M 235.687283 30.42149 
L 235.687283 31.43371 
Q 235.687283 33.383172 235.012469 37.207117 
Q 234.337655 41.031062 234.337655 43.018014 
Q 234.337655 43.805297 234.337655 44.105214 
Q 234.337655 44.405131 234.431379 45.042455 
Q 234.525103 45.679779 234.712552 45.960952 
Q 234.9 46.242124 235.293641 46.485807 
Q 235.687283 46.72949 236.249628 46.72949 
Q 236.362097 46.692 236.680759 46.72949 
Q 236.999421 46.766979 237.186869 46.710745 
Q 237.374317 46.65451 237.374317 46.392083 
" clip-path="url(#p2f8ecd34ca)" style="fill: none; stroke: #000000; stroke-linejoin: miter"/>
   </g>
  </g>
  <g id="axes_16">
   <g id="patch_15">
    <path d="M 245.963917 36.382345 
Q 245.926428 36.494814 246.057641 36.701007 
Q 246.188855 36.9072 246.076386 37.057159 
L 246.076386 39.306538 
Q 246.076386 40.506207 246.413793 41.724621 
Q 246.7512 42.943034 247.613462 43.93651 
Q 248.475724 44.929986 249.675393 44.929986 
Q 250.912552 44.929986 251.587366 43.861531 
Q 252.262179 42.793076 252.712055 41.143531 
Q 253.161931 39.493986 253.499338 38.969131 
L 254.286621 36.382345 
L 254.061683 42.680607 
L 254.061683 45.154924 
Q 254.061683 47.066897 254.792731 51.00331 
Q 255.523779 54.939724 255.523779 56.964166 
Q 256.273572 59.213545 255.186372 60.188276 
Q 254.099172 61.163007 252.037241 60.78811 
Q 250.237738 60.488193 249.319241 60.169531 
Q 248.400745 59.850869 246.413793 58.988607 
L 246.301324 58.426262 
" clip-path="url(#pe33eb092ed)" style="fill: none; stroke: #000000; stroke-linejoin: miter"/>
   </g>
  </g>
  <g id="axes_17"/>
  <g id="axes_18">
   <g id="patch_16">
    <path d="M 283.106359 28.621986 
Q 283.331297 30.34651 283.406276 32.146014 
Q 283.481255 33.945517 283.46251 36.551048 
Q 283.443766 39.156579 283.443766 40.093821 
Q 283.443766 40.13131 283.668703 45.829738 
L 283.893641 46.841959 
" clip-path="url(#pf27fb059c8)" style="fill: none; stroke: #000000; stroke-linejoin: miter"/>
   </g>
  </g>
  <g id="axes_19">
   <g id="patch_17">
    <path d="M 305.243923 36.441748 
Q 304.034968 35.094627 300.062687 35.094627 
Q 298.542857 35.094627 297.765672 35.146439 
Q 296.988486 35.198252 295.98678 35.440043 
Q 294.985075 35.681834 294.501493 36.182687 
Q 294.01791 36.683539 293.672495 37.616162 
Q 293.327079 38.548785 293.327079 39.964989 
Q 293.327079 42.037484 294.743284 43.280981 
Q 296.159488 44.524478 298.093817 44.524478 
Q 300.753518 44.524478 303.516844 38.721493 
Q 304.863966 35.854542 304.863966 35.82 
Q 305.209382 35.578209 305.243923 36.441748 
Q 305.243923 37.512537 305.658422 40.362217 
Q 306.072921 43.211898 306.072921 44.524478 
" clip-path="url(#pf1d2118301)" style="fill: none; stroke: #000000; stroke-linejoin: miter"/>
   </g>
  </g>
  <g id="axes_20">
   <g id="patch_18">
    <path d="M 319.499007 39.568966 
Q 318.149379 38.181848 315.9 38.444276 
Q 313.050786 38.444276 311.888607 39.793903 
Q 310.726428 41.143531 310.726428 44.067724 
Q 310.726428 45.56731 312.019821 46.279614 
Q 313.313214 46.991917 314.887779 46.991917 
Q 316.199917 46.991917 317.212138 45.736014 
Q 318.224359 44.48011 318.805448 42.30571 
Q 319.386538 40.13131 319.761434 37.938166 
Q 320.136331 35.745021 320.28629 33.045766 
Q 320.436248 30.34651 320.473738 28.978138 
Q 320.511228 27.609766 320.511228 26.185159 
Q 320.28629 26.260138 320.28629 29.896634 
L 320.28629 44.292662 
L 321.073572 48.229076 
" clip-path="url(#p21a3f6b32a)" style="fill: none; stroke: #000000; stroke-linejoin: miter"/>
   </g>
  </g>
  <g id="axes_21">
   <g id="patch_19">
    <path d="M 326.963917 36.382345 
Q 326.926428 36.494814 327.057641 36.701007 
Q 327.188855 36.9072 327.076386 37.057159 
L 327.076386 39.306538 
Q 327.076386 40.506207 327.413793 41.724621 
Q 327.7512 42.943034 328.613462 43.93651 
Q 329.475724 44.929986 330.675393 44.929986 
Q 331.912552 44.929986 332.587366 43.861531 
Q 333.262179 42.793076 333.712055 41.143531 
Q 334.161931 39.493986 334.499338 38.969131 
L 335.286621 36.382345 
L 335.061683 42.680607 
L 335.061683 45.154924 
Q 335.061683 47.066897 335.792731 51.00331 
Q 336.523779 54.939724 336.523779 56.964166 
Q 337.273572 59.213545 336.186372 60.188276 
Q 335.099172 61.163007 333.037241 60.78811 
Q 331.237738 60.488193 330.319241 60.169531 
Q 329.400745 59.850869 327.413793 58.988607 
L 327.301324 58.426262 
" clip-path="url(#pe639bde0db)" style="fill: none; stroke: #000000; stroke-linejoin: miter"/>
   </g>
  </g>
  <g id="axes_22"/>
  <g id="axes_23">
   <g id="patch_20">
    <path d="M 360.057476 43.917766 
Q 360.357393 44.180193 361.369614 45.154924 
Q 362.381834 46.129655 362.944179 46.560786 
Q 363.506524 46.991917 364.53749 47.385559 
Q 365.568455 47.7792 366.580676 47.629241 
Q 367.25549 47.629241 367.72411 47.404303 
Q 368.192731 47.179366 368.417669 46.879448 
Q 368.642607 46.579531 368.773821 45.979697 
Q 368.905034 45.379862 368.923779 44.967476 
Q 368.942524 44.55509 368.942524 43.805297 
Q 368.942524 42.718097 368.042772 42.043283 
Q 367.143021 41.368469 365.849628 41.031062 
Q 364.556234 40.693655 363.262841 40.300014 
Q 361.969448 39.906372 361.069697 38.987876 
Q 360.169945 38.069379 360.169945 36.607283 
Q 360.169945 36.082428 360.338648 35.726276 
Q 360.507352 35.370124 360.900993 35.145186 
Q 361.294634 34.920248 361.575807 34.807779 
Q 361.856979 34.69531 362.513048 34.639076 
Q 363.169117 34.582841 363.356566 34.582841 
Q 363.544014 34.582841 364.218828 34.582841 
Q 365.418497 34.582841 365.999586 34.995228 
Q 366.580676 35.407614 366.899338 36.026193 
Q 367.218 36.644772 367.480428 36.832221 
" clip-path="url(#p42015db487)" style="fill: none; stroke: #000000; stroke-linejoin: miter"/>
   </g>
  </g>
  <g id="axes_24">
   <g id="patch_21">
    <path d="M 386.243923 36.441748 
Q 385.034968 35.094627 381.062687 35.094627 
Q 379.542857 35.094627 378.765672 35.146439 
Q 377.988486 35.198252 376.98678 35.440043 
Q 375.985075 35.681834 375.501493 36.182687 
Q 375.01791 36.683539 374.672495 37.616162 
Q 374.327079 38.548785 374.327079 39.964989 
Q 374.327079 42.037484 375.743284 43.280981 
Q 377.159488 44.524478 379.093817 44.524478 
Q 381.753518 44.524478 384.516844 38.721493 
Q 385.863966 35.854542 385.863966 35.82 
Q 386.209382 35.578209 386.243923 36.441748 
Q 386.243923 37.512537 386.658422 40.362217 
Q 387.072921 43.211898 387.072921 44.524478 
" clip-path="url(#p94534c85a3)" style="fill: none; stroke: #000000; stroke-linejoin: miter"/>
   </g>
  </g>
  <g id="axes_25">
   <g id="patch_22">
    <path d="M 397.518579 29.071862 
Q 397.143683 29.146841 397.012469 29.577972 
Q 396.881255 30.009103 396.956234 30.42149 
Q 396.956234 30.571448 396.993724 30.702662 
Q 397.031214 30.833876 397.087448 30.89011 
Q 397.143683 30.946345 397.199917 31.040069 
Q 397.256152 31.133793 397.293641 31.208772 
L 397.40611 29.859145 
M 397.40611 34.020497 
Q 396.506359 39.006621 396.281421 42.793076 
L 396.731297 45.379862 
L 397.068703 46.054676 
" clip-path="url(#p738eab7d90)" style="fill: none; stroke: #000000; stroke-linejoin: miter"/>
   </g>
  </g>
  <g id="axes_26">
   <g id="patch_23">
    <path d="M 416.699007 39.568966 
Q 415.349379 38.181848 413.1 38.444276 
Q 410.250786 38.444276 409.088607 39.793903 
Q 407.926428 41.143531 407.926428 44.067724 
Q 407.926428 45.56731 409.219821 46.279614 
Q 410.513214 46.991917 412.087779 46.991917 
Q 413.399917 46.991917 414.412138 45.736014 
Q 415.424359 44.48011 416.005448 42.30571 
Q 416.586538 40.13131 416.961434 37.938166 
Q 417.336331 35.745021 417.48629 33.045766 
Q 417.636248 30.34651 417.673738 28.978138 
Q 417.711228 27.609766 417.711228 26.185159 
Q 417.48629 26.260138 417.48629 29.896634 
L 417.48629 44.292662 
L 418.273572 48.229076 
" clip-path="url(#pfad4ff9b30)" style="fill: none; stroke: #000000; stroke-linejoin: miter"/>
   </g>
  </g>
  <g id="axes_27"/>
  <g id="axes_28">
   <g id="patch_24">
    <path d="M 451.043923 36.441748 
Q 449.834968 35.094627 445.862687 35.094627 
Q 444.342857 35.094627 443.565672 35.146439 
Q 442.788486 35.198252 441.78678 35.440043 
Q 440.785075 35.681834 440.301493 36.182687 
Q 439.81791 36.683539 439.472495 37.616162 
Q 439.127079 38.548785 439.127079 39.964989 
Q 439.127079 42.037484 440.543284 43.280981 
Q 441.959488 44.524478 443.893817 44.524478 
Q 446.553518 44.524478 449.316844 38.721493 
Q 450.663966 35.854542 450.663966 35.82 
Q 451.009382 35.578209 451.043923 36.441748 
Q 451.043923 37.512537 451.458422 40.362217 
Q 451.872921 43.211898 451.872921 44.524478 
" clip-path="url(#pbfc0981082)" style="fill: none; stroke: #000000; stroke-linejoin: miter"/>
   </g>
  </g>
  <g id="axes_29">
   <g id="patch_25">
    <path d="M 457.257476 43.917766 
Q 457.557393 44.180193 458.569614 45.154924 
Q 459.581834 46.129655 460.144179 46.560786 
Q 460.706524 46.991917 461.73749 47.385559 
Q 462.768455 47.7792 463.780676 47.629241 
Q 464.45549 47.629241 464.92411 47.404303 
Q 465.392731 47.179366 465.617669 46.879448 
Q 465.842607 46.579531 465.973821 45.979697 
Q 466.105034 45.379862 466.123779 44.967476 
Q 466.142524 44.55509 466.142524 43.805297 
Q 466.142524 42.718097 465.242772 42.043283 
Q 464.343021 41.368469 463.049628 41.031062 
Q 461.756234 40.693655 460.462841 40.300014 
Q 459.169448 39.906372 458.269697 38.987876 
Q 457.369945 38.069379 457.369945 36.607283 
Q 457.369945 36.082428 457.538648 35.726276 
Q 457.707352 35.370124 458.100993 35.145186 
Q 458.494634 34.920248 458.775807 34.807779 
Q 459.056979 34.69531 459.713048 34.639076 
Q 460.369117 34.582841 460.556566 34.582841 
Q 460.744014 34.582841 461.418828 34.582841 
Q 462.618497 34.582841 463.199586 34.995228 
Q 463.780676 35.407614 464.099338 36.026193 
Q 464.418 36.644772 464.680428 36.832221 
" clip-path="url(#p7ecc504d9e)" style="fill: none; stroke: #000000; stroke-linejoin: miter"/>
   </g>
  </g>
  <g id="axes_30"/>
  <g id="axes_31">
   <g id="patch_26">
    <path d="M 489.657476 43.917766 
Q 489.957393 44.180193 490.969614 45.154924 
Q 491.981834 46.129655 492.544179 46.560786 
Q 493.106524 46.991917 494.13749 47.385559 
Q 495.168455 47.7792 496.180676 47.629241 
Q 496.85549 47.629241 497.32411 47.404303 
Q 497.792731 47.179366 498.017669 46.879448 
Q 498.242607 46.579531 498.373821 45.979697 
Q 498.505034 45.379862 498.523779 44.967476 
Q 498.542524 44.55509 498.542524 43.805297 
Q 498.542524 42.718097 497.642772 42.043283 
Q 496.743021 41.368469 495.449628 41.031062 
Q 494.156234 40.693655 492.862841 40.300014 
Q 491.569448 39.906372 490.669697 38.987876 
Q 489.769945 38.069379 489.769945 36.607283 
Q 489.769945 36.082428 489.938648 35.726276 
Q 490.107352 35.370124 490.500993 35.145186 
Q 490.894634 34.920248 491.175807 34.807779 
Q 491.456979 34.69531 492.113048 34.639076 
Q 492.769117 34.582841 492.956566 34.582841 
Q 493.144014 34.582841 493.818828 34.582841 
Q 495.018497 34.582841 495.599586 34.995228 
Q 496.180676 35.407614 496.499338 36.026193 
Q 496.818 36.644772 497.080428 36.832221 
" clip-path="url(#pbd602a3ee9)" style="fill: none; stroke: #000000; stroke-linejoin: miter"/>
   </g>
  </g>
  <g id="axes_32">
   <g id="patch_27">
    <path d="M 506.813462 35.932469 
Q 507.413297 35.257655 508.406772 34.826524 
Q 509.400248 34.395393 510.3 34.470372 
Q 510.937324 34.470372 511.42469 34.639076 
Q 511.912055 34.807779 512.230717 34.995228 
Q 512.549379 35.182676 512.774317 35.670041 
Q 512.999255 36.157407 513.111724 36.419834 
Q 513.224193 36.682262 513.280428 37.375821 
Q 513.336662 38.069379 513.355407 38.331807 
Q 513.374152 38.594234 513.355407 39.419007 
Q 513.336662 40.243779 513.336662 40.431228 
Q 513.336662 41.368469 513.167959 43.242952 
Q 512.999255 45.117434 512.999255 46.054676 
Q 512.999255 46.467062 513.05549 46.823214 
Q 513.111724 47.179366 513.205448 47.610497 
Q 513.299172 48.041628 513.336662 48.304055 
L 513.786538 48.528993 
M 507.263338 23.111007 
Q 507.488276 24.798041 507.488276 29.971614 
L 507.488276 42.3432 
L 507.150869 46.841959 
L 506.925931 47.74171 
" clip-path="url(#p5b25c4ece8)" style="fill: none; stroke: #000000; stroke-linejoin: miter"/>
   </g>
  </g>
  <g id="axes_33">
   <g id="patch_28">
    <path d="M 520.257798 38.160826 
Q 523.230275 39.535596 527.949083 39.721376 
Q 529.472477 39.721376 530.159862 38.550963 
Q 530.847248 37.38055 530.847248 35.82 
Q 530.847248 35.299817 530.754358 34.909679 
Q 530.661468 34.519541 530.419954 34.296606 
Q 530.17844 34.07367 530.011239 33.943624 
Q 529.844037 33.813578 529.398165 33.757844 
Q 528.952294 33.70211 528.747936 33.683532 
Q 528.543578 33.664954 527.967661 33.683532 
Q 527.391743 33.70211 527.168807 33.70211 
Q 525.125229 33.70211 523.638991 35.578486 
Q 522.152752 37.454862 522.152752 39.609908 
Q 522.152752 42.619541 524.084862 44.570229 
Q 526.016972 46.520917 529.063761 46.520917 
Q 531.218807 46.818165 532.742202 44.29156 
" clip-path="url(#p5aae03c580)" style="fill: none; stroke: #000000; stroke-linejoin: miter"/>
   </g>
  </g>
  <g id="axes_34"/>
  <g id="axes_35">
   <g id="patch_29">
    <path d="M 552.608036 34.879821 
Q 553.114286 36.073125 553.403571 42.871339 
Q 553.548214 46.632054 553.8375 46.632054 
Q 553.873661 46.632054 553.909821 46.595893 
Q 554.416071 46.017321 554.470313 44.588973 
Q 554.524554 43.160625 554.307589 41.750357 
Q 554.090625 40.340089 553.8375 38.712857 
Q 553.584375 37.085625 553.584375 36.398571 
Q 553.584375 35.169107 553.964063 33.939643 
Q 554.34375 32.710179 555.320089 32.710179 
Q 556.549554 32.710179 557.272768 34.355491 
Q 557.995982 36.000804 558.158705 37.971563 
Q 558.321429 39.942321 558.429911 41.587634 
Q 558.538393 43.232946 558.683036 43.232946 
Q 558.827679 43.232946 558.91808 41.497232 
Q 559.008482 39.761518 559.135045 37.700357 
Q 559.261607 35.639196 559.984821 33.903482 
Q 560.708036 32.167768 561.9375 32.167768 
Q 563.492411 33.035625 564.161384 34.771339 
Q 564.830357 36.507054 564.794196 38.188527 
Q 564.758036 39.87 564.776116 42.057723 
Q 564.794196 44.245446 565.191964 45.511071 
" clip-path="url(#p0ca9e08916)" style="fill: none; stroke: #000000; stroke-linejoin: miter"/>
   </g>
  </g>
  <g id="axes_36">
   <g id="patch_30">
    <path d="M 580.643923 36.441748 
Q 579.434968 35.094627 575.462687 35.094627 
Q 573.942857 35.094627 573.165672 35.146439 
Q 572.388486 35.198252 571.38678 35.440043 
Q 570.385075 35.681834 569.901493 36.182687 
Q 569.41791 36.683539 569.072495 37.616162 
Q 568.727079 38.548785 568.727079 39.964989 
Q 568.727079 42.037484 570.143284 43.280981 
Q 571.559488 44.524478 573.493817 44.524478 
Q 576.153518 44.524478 578.916844 38.721493 
Q 580.263966 35.854542 580.263966 35.82 
Q 580.609382 35.578209 580.643923 36.441748 
Q 580.643923 37.512537 581.058422 40.362217 
Q 581.472921 43.211898 581.472921 44.524478 
" clip-path="url(#p29a884d91f)" style="fill: none; stroke: #000000; stroke-linejoin: miter"/>
   </g>
  </g>
  <g id="axes_37">
   <g id="patch_31">
    <path d="M 587.813462 32.783338 
Q 588.338317 34.507862 588.469531 36.457324 
Q 588.600745 38.406786 588.525766 40.956083 
Q 588.450786 43.505379 588.488276 44.705048 
L 588.600745 46.054676 
L 588.600745 45.829738 
Q 588.600745 44.667559 588.319572 42.30571 
Q 588.0384 39.943862 588.0384 38.744193 
Q 588.0384 36.419834 589.050621 34.882759 
Q 590.062841 33.345683 592.087283 33.345683 
Q 592.799586 33.345683 593.136993 33.626855 
Q 593.4744 33.908028 593.736828 34.432883 
Q 593.999255 34.957738 594.336662 35.257655 
L 594.786538 36.832221 
" clip-path="url(#p47c7c6bfc1)" style="fill: none; stroke: #000000; stroke-linejoin: miter"/>
   </g>
  </g>
  <g id="axes_38">
   <g id="patch_32">
    <path d="M 603.226179 34.807779 
Q 604.838234 36.719752 606.131628 39.6252 
Q 607.425021 42.530648 607.724938 45.154924 
Q 608.774648 43.655338 609.693145 38.819172 
Q 610.611641 33.983007 611.773821 32.108524 
" clip-path="url(#p29fb811ead)" style="fill: none; stroke: #000000; stroke-linejoin: miter"/>
   </g>
  </g>
  <g id="axes_39">
   <g id="patch_33">
    <path d="M 617.457798 38.160826 
Q 620.430275 39.535596 625.149083 39.721376 
Q 626.672477 39.721376 627.359862 38.550963 
Q 628.047248 37.38055 628.047248 35.82 
Q 628.047248 35.299817 627.954358 34.909679 
Q 627.861468 34.519541 627.619954 34.296606 
Q 627.37844 34.07367 627.211239 33.943624 
Q 627.044037 33.813578 626.598165 33.757844 
Q 626.152294 33.70211 625.947936 33.683532 
Q 625.743578 33.664954 625.167661 33.683532 
Q 624.591743 33.70211 624.368807 33.70211 
Q 622.325229 33.70211 620.838991 35.578486 
Q 619.352752 37.454862 619.352752 39.609908 
Q 619.352752 42.619541 621.284862 44.570229 
Q 623.216972 46.520917 626.263761 46.520917 
Q 628.418807 46.818165 629.942202 44.29156 
" clip-path="url(#p07d799deb0)" style="fill: none; stroke: #000000; stroke-linejoin: miter"/>
   </g>
  </g>
  <g id="axes_40">
   <g id="patch_34">
    <path d="M 639.506359 28.621986 
Q 639.731297 30.34651 639.806276 32.146014 
Q 639.881255 33.945517 639.86251 36.551048 
Q 639.843766 39.156579 639.843766 40.093821 
Q 639.843766 40.13131 640.068703 45.829738 
L 640.293641 46.841959 
" clip-path="url(#p1882bd2e26)" style="fill: none; stroke: #000000; stroke-linejoin: miter"/>
   </g>
  </g>
  <g id="axes_41">
   <g id="patch_35">
    <path d="M 649.857798 38.160826 
Q 652.830275 39.535596 657.549083 39.721376 
Q 659.072477 39.721376 659.759862 38.550963 
Q 660.447248 37.38055 660.447248 35.82 
Q 660.447248 35.299817 660.354358 34.909679 
Q 660.261468 34.519541 660.019954 34.296606 
Q 659.77844 34.07367 659.611239 33.943624 
Q 659.444037 33.813578 658.998165 33.757844 
Q 658.552294 33.70211 658.347936 33.683532 
Q 658.143578 33.664954 657.567661 33.683532 
Q 656.991743 33.70211 656.768807 33.70211 
Q 654.725229 33.70211 653.238991 35.578486 
Q 651.752752 37.454862 651.752752 39.609908 
Q 651.752752 42.619541 653.684862 44.570229 
Q 655.616972 46.520917 658.663761 46.520917 
Q 660.818807 46.818165 662.342202 44.29156 
" clip-path="url(#p89aebf438e)" style="fill: none; stroke: #000000; stroke-linejoin: miter"/>
   </g>
  </g>
  <g id="axes_42">
   <g id="patch_36">
    <path d="M 675.899007 39.568966 
Q 674.549379 38.181848 672.3 38.444276 
Q 669.450786 38.444276 668.288607 39.793903 
Q 667.126428 41.143531 667.126428 44.067724 
Q 667.126428 45.56731 668.419821 46.279614 
Q 669.713214 46.991917 671.287779 46.991917 
Q 672.599917 46.991917 673.612138 45.736014 
Q 674.624359 44.48011 675.205448 42.30571 
Q 675.786538 40.13131 676.161434 37.938166 
Q 676.536331 35.745021 676.68629 33.045766 
Q 676.836248 30.34651 676.873738 28.978138 
Q 676.911228 27.609766 676.911228 26.185159 
Q 676.68629 26.260138 676.68629 29.896634 
L 676.68629 44.292662 
L 677.473572 48.229076 
" clip-path="url(#p4835ee4abb)" style="fill: none; stroke: #000000; stroke-linejoin: miter"/>
   </g>
  </g>
 </g>
 <defs>
  <clipPath id="p649c61cb00">
   <rect x="0" y="9.603482" width="16.2" height="52.433036"/>
  </clipPath>
  <clipPath id="p9345122403">
   <rect x="16.2" y="10.777356" width="16.2" height="50.085288"/>
  </clipPath>
  <clipPath id="p4b2a28ca72">
   <rect x="34.182993" y="8.64" width="12.634014" height="54.36"/>
  </clipPath>
  <clipPath id="pf8e2611b36">
   <rect x="54.000745" y="8.64" width="5.39851" height="54.36"/>
  </clipPath>
  <clipPath id="p8cb485929f">
   <rect x="70.125766" y="8.64" width="5.548469" height="54.36"/>
  </clipPath>
  <clipPath id="p601de6e543">
   <rect x="98.589352" y="8.64" width="13.421297" height="54.36"/>
  </clipPath>
  <clipPath id="p5dcec36a31">
   <rect x="116.138979" y="8.64" width="10.722041" height="54.36"/>
  </clipPath>
  <clipPath id="p85b221a812">
   <rect x="129.6" y="8.881927" width="16.2" height="53.876147"/>
  </clipPath>
  <clipPath id="p38b1405e72">
   <rect x="162.883241" y="8.64" width="14.433517" height="54.36"/>
  </clipPath>
  <clipPath id="p17a9311eaf">
   <rect x="180.938979" y="8.64" width="10.722041" height="54.36"/>
  </clipPath>
  <clipPath id="pa36004aaf8">
   <rect x="194.4" y="8.881927" width="16.2" height="53.876147"/>
  </clipPath>
  <clipPath id="p786070aef9">
   <rect x="211.989352" y="8.64" width="13.421297" height="54.36"/>
  </clipPath>
  <clipPath id="p2f8ecd34ca">
   <rect x="228.189352" y="8.64" width="13.421297" height="54.36"/>
  </clipPath>
  <clipPath id="pe33eb092ed">
   <rect x="244.051945" y="8.64" width="14.09611" height="54.36"/>
  </clipPath>
  <clipPath id="pf27fb059c8">
   <rect x="281.231876" y="8.64" width="4.536248" height="54.36"/>
  </clipPath>
  <clipPath id="pf1d2118301">
   <rect x="291.6" y="10.777356" width="16.2" height="50.085288"/>
  </clipPath>
  <clipPath id="p21a3f6b32a">
   <rect x="308.851945" y="8.64" width="14.09611" height="54.36"/>
  </clipPath>
  <clipPath id="pe639bde0db">
   <rect x="325.051945" y="8.64" width="14.09611" height="54.36"/>
  </clipPath>
  <clipPath id="p42015db487">
   <rect x="358.182993" y="8.64" width="12.634014" height="54.36"/>
  </clipPath>
  <clipPath id="p94534c85a3">
   <rect x="372.6" y="10.777356" width="16.2" height="50.085288"/>
  </clipPath>
  <clipPath id="p738eab7d90">
   <rect x="394.406938" y="8.64" width="4.986124" height="54.36"/>
  </clipPath>
  <clipPath id="pfad4ff9b30">
   <rect x="406.051945" y="8.64" width="14.09611" height="54.36"/>
  </clipPath>
  <clipPath id="pbfc0981082">
   <rect x="437.4" y="10.777356" width="16.2" height="50.085288"/>
  </clipPath>
  <clipPath id="p7ecc504d9e">
   <rect x="455.382993" y="8.64" width="12.634014" height="54.36"/>
  </clipPath>
  <clipPath id="pbd602a3ee9">
   <rect x="487.782993" y="8.64" width="12.634014" height="54.36"/>
  </clipPath>
  <clipPath id="p5b25c4ece8">
   <rect x="504.938979" y="8.64" width="10.722041" height="54.36"/>
  </clipPath>
  <clipPath id="p5aae03c580">
   <rect x="518.4" y="8.881927" width="16.2" height="53.876147"/>
  </clipPath>
  <clipPath id="p0ca9e08916">
   <rect x="550.8" y="9.603482" width="16.2" height="52.433036"/>
  </clipPath>
  <clipPath id="p29a884d91f">
   <rect x="567" y="10.777356" width="16.2" height="50.085288"/>
  </clipPath>
  <clipPath id="p47c7c6bfc1">
   <rect x="585.938979" y="8.64" width="10.722041" height="54.36"/>
  </clipPath>
  <clipPath id="p29fb811ead">
   <rect x="601.351697" y="8.64" width="12.296607" height="54.36"/>
  </clipPath>
  <clipPath id="p07d799deb0">
   <rect x="615.6" y="8.881927" width="16.2" height="53.876147"/>
  </clipPath>
  <clipPath id="p1882bd2e26">
   <rect x="637.631876" y="8.64" width="4.536248" height="54.36"/>
  </clipPath>
  <clipPath id="p89aebf438e">
   <rect x="648" y="8.881927" width="16.2" height="53.876147"/>
  </clipPath>
  <clipPath id="p4835ee4abb">
   <rect x="665.251945" y="8.64" width="14.09611" height="54.36"/>
  </clipPath>
 </defs>
</svg>
