<?xml version="1.0" encoding="utf-8" standalone="no"?>
<!DOCTYPE svg PUBLIC "-//W3C//DTD SVG 1.1//EN"
  "http://www.w3.org/Graphics/SVG/1.1/DTD/svg11.dtd">
<svg xmlns:xlink="http://www.w3.org/1999/xlink" width="720pt" height="72pt" viewBox="0 0 720 72" xmlns="http://www.w3.org/2000/svg" version="1.1">
 <metadata>
  <rdf:RDF xmlns:dc="http://purl.org/dc/elements/1.1/" xmlns:cc="http://creativecommons.org/ns#" xmlns:rdf="http://www.w3.org/1999/02/22-rdf-syntax-ns#">
   <cc:Work>
    <dc:type rdf:resource="http://purl.org/dc/dcmitype/StillImage"/>
    <dc:date>2024-01-04T18:45:17.683903</dc:date>
    <dc:format>image/svg+xml</dc:format>
    <dc:creator>
     <cc:Agent>
      <dc:title>Matplotlib v3.7.1, https://matplotlib.org/</dc:title>
     </cc:Agent>
    </dc:creator>
   </cc:Work>
  </rdf:RDF>
 </metadata>
 <defs>
  <style type="text/css">*{stroke-linejoin: round; stroke-linecap: butt}</style>
 </defs>
 <g id="figure_1">
  <g id="patch_1">
   <path d="M 0 72 
L 720 72 
L 720 0 
L 0 0 
z
" style="fill: #8fff9f"/>
  </g>
  <g id="axes_1">
   <g id="patch_2">
    <path d="M 8.718579 29.071862 
Q 8.343683 29.146841 8.212469 29.577972 
Q 8.081255 30.009103 8.156234 30.42149 
Q 8.156234 30.571448 8.193724 30.702662 
Q 8.231214 30.833876 8.287448 30.89011 
Q 8.343683 30.946345 8.399917 31.040069 
Q 8.456152 31.133793 8.493641 31.208772 
L 8.60611 29.859145 
M 8.60611 34.020497 
Q 7.706359 39.006621 7.481421 42.793076 
L 7.931297 45.379862 
L 8.268703 46.054676 
" clip-path="url(#pc6a864561e)" style="fill: none; stroke: #000000; stroke-linejoin: miter"/>
   </g>
  </g>
  <g id="axes_2">
   <g id="patch_3">
    <path d="M 19.838731 37.282097 
L 19.838731 37.844441 
Q 20.101159 39.868883 20.138648 41.312234 
Q 20.176138 42.755586 20.082414 44.667559 
Q 19.98869 46.579531 19.98869 48.191586 
L 20.063669 39.643945 
Q 20.063669 38.144359 21.656979 37.507034 
Q 23.25029 36.86971 24.674897 37.282097 
Q 26.586869 37.844441 27.505366 39.04411 
Q 28.423862 40.243779 28.480097 41.668386 
Q 28.536331 43.092993 28.573821 44.817517 
Q 28.61131 46.542041 28.761269 48.191586 
" clip-path="url(#p9112cc08b9)" style="fill: none; stroke: #000000; stroke-linejoin: miter"/>
   </g>
  </g>
  <g id="axes_3">
   <g id="patch_4">
    <path d="M 45.287191 39.096404 
Q 45.03236 39.023596 44.06764 38.623146 
Q 43.102921 38.222697 42.44764 38.077079 
Q 41.79236 37.931461 41.137079 38.00427 
Q 38.515955 38.00427 36.877753 40.388764 
Q 35.239551 42.773258 35.239551 45.430787 
Q 35.239551 47.068989 40.481798 47.068989 
Q 42.047191 47.068989 43.375955 45.558202 
Q 44.704719 44.047416 45.378202 42.172584 
Q 46.051685 40.297753 46.051685 38.768764 
Q 46.051685 37.27618 46.015281 36.984944 
L 45.942472 38.077079 
Q 45.942472 38.550337 45.942472 38.987191 
Q 45.978876 40.188539 46.179101 42.281798 
Q 46.379326 44.375056 46.543146 46.049663 
Q 46.706966 47.72427 46.743371 49.872135 
Q 46.779775 52.02 46.615955 53.658202 
Q 46.452135 55.296404 45.887865 56.971011 
Q 45.323596 58.645618 44.395281 59.737753 
Q 43.466966 60.829888 41.865169 61.521573 
Q 40.263371 62.213258 38.115506 62.213258 
Q 36.477303 62.213258 35.385169 61.466966 
Q 34.293034 60.720674 34.293034 59.155281 
Q 34.220225 58.936854 34.256629 58.936854 
Q 34.293034 58.936854 34.402247 58.936854 
Q 34.511461 58.936854 34.511461 58.82764 
" clip-path="url(#pf1773163e0)" style="fill: none; stroke: #000000; stroke-linejoin: miter"/>
   </g>
  </g>
  <g id="axes_4"/>
  <g id="axes_5">
   <g id="patch_5">
    <path d="M 68.457476 43.917766 
Q 68.757393 44.180193 69.769614 45.154924 
Q 70.781834 46.129655 71.344179 46.560786 
Q 71.906524 46.991917 72.93749 47.385559 
Q 73.968455 47.7792 74.980676 47.629241 
Q 75.65549 47.629241 76.12411 47.404303 
Q 76.592731 47.179366 76.817669 46.879448 
Q 77.042607 46.579531 77.173821 45.979697 
Q 77.305034 45.379862 77.323779 44.967476 
Q 77.342524 44.55509 77.342524 43.805297 
Q 77.342524 42.718097 76.442772 42.043283 
Q 75.543021 41.368469 74.249628 41.031062 
Q 72.956234 40.693655 71.662841 40.300014 
Q 70.369448 39.906372 69.469697 38.987876 
Q 68.569945 38.069379 68.569945 36.607283 
Q 68.569945 36.082428 68.738648 35.726276 
Q 68.907352 35.370124 69.300993 35.145186 
Q 69.694634 34.920248 69.975807 34.807779 
Q 70.256979 34.69531 70.913048 34.639076 
Q 71.569117 34.582841 71.756566 34.582841 
Q 71.944014 34.582841 72.618828 34.582841 
Q 73.818497 34.582841 74.399586 34.995228 
Q 74.980676 35.407614 75.299338 36.026193 
Q 75.618 36.644772 75.880428 36.832221 
" clip-path="url(#p115c17fc40)" style="fill: none; stroke: #000000; stroke-linejoin: miter"/>
   </g>
  </g>
  <g id="axes_6">
   <g id="patch_6">
    <path d="M 84.263834 37.95691 
L 84.938648 37.95691 
Q 85.650952 37.95691 86.438234 37.881931 
Q 87.225517 37.806952 88.181503 37.675738 
Q 89.13749 37.544524 89.662345 37.507034 
L 93.936166 35.82 
M 89.887283 30.42149 
L 89.887283 31.43371 
Q 89.887283 33.383172 89.212469 37.207117 
Q 88.537655 41.031062 88.537655 43.018014 
Q 88.537655 43.805297 88.537655 44.105214 
Q 88.537655 44.405131 88.631379 45.042455 
Q 88.725103 45.679779 88.912552 45.960952 
Q 89.1 46.242124 89.493641 46.485807 
Q 89.887283 46.72949 90.449628 46.72949 
Q 90.562097 46.692 90.880759 46.72949 
Q 91.199421 46.766979 91.386869 46.710745 
Q 91.574317 46.65451 91.574317 46.392083 
" clip-path="url(#pe887f9e588)" style="fill: none; stroke: #000000; stroke-linejoin: miter"/>
   </g>
  </g>
  <g id="axes_7">
   <g id="patch_7">
    <path d="M 110.843923 36.441748 
Q 109.634968 35.094627 105.662687 35.094627 
Q 104.142857 35.094627 103.365672 35.146439 
Q 102.588486 35.198252 101.58678 35.440043 
Q 100.585075 35.681834 100.101493 36.182687 
Q 99.61791 36.683539 99.272495 37.616162 
Q 98.927079 38.548785 98.927079 39.964989 
Q 98.927079 42.037484 100.343284 43.280981 
Q 101.759488 44.524478 103.693817 44.524478 
Q 106.353518 44.524478 109.116844 38.721493 
Q 110.463966 35.854542 110.463966 35.82 
Q 110.809382 35.578209 110.843923 36.441748 
Q 110.843923 37.512537 111.258422 40.362217 
Q 111.672921 43.211898 111.672921 44.524478 
" clip-path="url(#p8e455a8c22)" style="fill: none; stroke: #000000; stroke-linejoin: miter"/>
   </g>
  </g>
  <g id="axes_8">
   <g id="patch_8">
    <path d="M 118.013462 32.783338 
Q 118.538317 34.507862 118.669531 36.457324 
Q 118.800745 38.406786 118.725766 40.956083 
Q 118.650786 43.505379 118.688276 44.705048 
L 118.800745 46.054676 
L 118.800745 45.829738 
Q 118.800745 44.667559 118.519572 42.30571 
Q 118.2384 39.943862 118.2384 38.744193 
Q 118.2384 36.419834 119.250621 34.882759 
Q 120.262841 33.345683 122.287283 33.345683 
Q 122.999586 33.345683 123.336993 33.626855 
Q 123.6744 33.908028 123.936828 34.432883 
Q 124.199255 34.957738 124.536662 35.257655 
L 124.986538 36.832221 
" clip-path="url(#p8426e15090)" style="fill: none; stroke: #000000; stroke-linejoin: miter"/>
   </g>
  </g>
  <g id="axes_9"/>
  <g id="axes_10">
   <g id="patch_9">
    <path d="M 149.063834 37.95691 
L 149.738648 37.95691 
Q 150.450952 37.95691 151.238234 37.881931 
Q 152.025517 37.806952 152.981503 37.675738 
Q 153.93749 37.544524 154.462345 37.507034 
L 158.736166 35.82 
M 154.687283 30.42149 
L 154.687283 31.43371 
Q 154.687283 33.383172 154.012469 37.207117 
Q 153.337655 41.031062 153.337655 43.018014 
Q 153.337655 43.805297 153.337655 44.105214 
Q 153.337655 44.405131 153.431379 45.042455 
Q 153.525103 45.679779 153.712552 45.960952 
Q 153.9 46.242124 154.293641 46.485807 
Q 154.687283 46.72949 155.249628 46.72949 
Q 155.362097 46.692 155.680759 46.72949 
Q 155.999421 46.766979 156.186869 46.710745 
Q 156.374317 46.65451 156.374317 46.392083 
" clip-path="url(#pb02a55d5cf)" style="fill: none; stroke: #000000; stroke-linejoin: miter"/>
   </g>
  </g>
  <g id="axes_11">
   <g id="patch_10">
    <path d="M 166.613462 35.932469 
Q 167.213297 35.257655 168.206772 34.826524 
Q 169.200248 34.395393 170.1 34.470372 
Q 170.737324 34.470372 171.22469 34.639076 
Q 171.712055 34.807779 172.030717 34.995228 
Q 172.349379 35.182676 172.574317 35.670041 
Q 172.799255 36.157407 172.911724 36.419834 
Q 173.024193 36.682262 173.080428 37.375821 
Q 173.136662 38.069379 173.155407 38.331807 
Q 173.174152 38.594234 173.155407 39.419007 
Q 173.136662 40.243779 173.136662 40.431228 
Q 173.136662 41.368469 172.967959 43.242952 
Q 172.799255 45.117434 172.799255 46.054676 
Q 172.799255 46.467062 172.85549 46.823214 
Q 172.911724 47.179366 173.005448 47.610497 
Q 173.099172 48.041628 173.136662 48.304055 
L 173.586538 48.528993 
M 167.063338 23.111007 
Q 167.288276 24.798041 167.288276 29.971614 
L 167.288276 42.3432 
L 166.950869 46.841959 
L 166.725931 47.74171 
" clip-path="url(#pf460abd48a)" style="fill: none; stroke: #000000; stroke-linejoin: miter"/>
   </g>
  </g>
  <g id="axes_12">
   <g id="patch_11">
    <path d="M 191.843923 36.441748 
Q 190.634968 35.094627 186.662687 35.094627 
Q 185.142857 35.094627 184.365672 35.146439 
Q 183.588486 35.198252 182.58678 35.440043 
Q 181.585075 35.681834 181.101493 36.182687 
Q 180.61791 36.683539 180.272495 37.616162 
Q 179.927079 38.548785 179.927079 39.964989 
Q 179.927079 42.037484 181.343284 43.280981 
Q 182.759488 44.524478 184.693817 44.524478 
Q 187.353518 44.524478 190.116844 38.721493 
Q 191.463966 35.854542 191.463966 35.82 
Q 191.809382 35.578209 191.843923 36.441748 
Q 191.843923 37.512537 192.258422 40.362217 
Q 192.672921 43.211898 192.672921 44.524478 
" clip-path="url(#pbb1368cc41)" style="fill: none; stroke: #000000; stroke-linejoin: miter"/>
   </g>
  </g>
  <g id="axes_13">
   <g id="patch_12">
    <path d="M 197.663834 37.95691 
L 198.338648 37.95691 
Q 199.050952 37.95691 199.838234 37.881931 
Q 200.625517 37.806952 201.581503 37.675738 
Q 202.53749 37.544524 203.062345 37.507034 
L 207.336166 35.82 
M 203.287283 30.42149 
L 203.287283 31.43371 
Q 203.287283 33.383172 202.612469 37.207117 
Q 201.937655 41.031062 201.937655 43.018014 
Q 201.937655 43.805297 201.937655 44.105214 
Q 201.937655 44.405131 202.031379 45.042455 
Q 202.125103 45.679779 202.312552 45.960952 
Q 202.5 46.242124 202.893641 46.485807 
Q 203.287283 46.72949 203.849628 46.72949 
Q 203.962097 46.692 204.280759 46.72949 
Q 204.599421 46.766979 204.786869 46.710745 
Q 204.974317 46.65451 204.974317 46.392083 
" clip-path="url(#pec8fec7902)" style="fill: none; stroke: #000000; stroke-linejoin: miter"/>
   </g>
  </g>
  <g id="axes_14"/>
  <g id="axes_15">
   <g id="patch_13">
    <path d="M 231.413462 35.932469 
Q 232.013297 35.257655 233.006772 34.826524 
Q 234.000248 34.395393 234.9 34.470372 
Q 235.537324 34.470372 236.02469 34.639076 
Q 236.512055 34.807779 236.830717 34.995228 
Q 237.149379 35.182676 237.374317 35.670041 
Q 237.599255 36.157407 237.711724 36.419834 
Q 237.824193 36.682262 237.880428 37.375821 
Q 237.936662 38.069379 237.955407 38.331807 
Q 237.974152 38.594234 237.955407 39.419007 
Q 237.936662 40.243779 237.936662 40.431228 
Q 237.936662 41.368469 237.767959 43.242952 
Q 237.599255 45.117434 237.599255 46.054676 
Q 237.599255 46.467062 237.65549 46.823214 
Q 237.711724 47.179366 237.805448 47.610497 
Q 237.899172 48.041628 237.936662 48.304055 
L 238.386538 48.528993 
M 231.863338 23.111007 
Q 232.088276 24.798041 232.088276 29.971614 
L 232.088276 42.3432 
L 231.750869 46.841959 
L 231.525931 47.74171 
" clip-path="url(#pf0a4433c18)" style="fill: none; stroke: #000000; stroke-linejoin: miter"/>
   </g>
  </g>
  <g id="axes_16">
   <g id="patch_14">
    <path d="M 254.3616 35.032717 
Q 253.31189 34.582841 252.337159 34.69531 
Q 249.300497 35.032717 247.388524 36.701007 
Q 245.476552 38.369297 245.476552 41.330979 
Q 245.476552 43.917766 247.482248 45.6048 
Q 249.487945 47.291834 252.112221 47.291834 
Q 254.474069 47.291834 255.598759 45.361117 
Q 256.723448 43.4304 256.723448 40.881103 
Q 256.723448 39.643945 256.311062 38.706703 
Q 255.898676 37.769462 255.373821 37.300841 
Q 254.848966 36.832221 254.099172 36.119917 
Q 253.349379 35.407614 252.899503 34.69531 
L 251.662345 34.245434 
" clip-path="url(#pce6769096d)" style="fill: none; stroke: #000000; stroke-linejoin: miter"/>
   </g>
  </g>
  <g id="axes_17">
   <g id="patch_15">
    <path d="M 263.026179 34.807779 
Q 264.638234 36.719752 265.931628 39.6252 
Q 267.225021 42.530648 267.524938 45.154924 
Q 268.574648 43.655338 269.493145 38.819172 
Q 270.411641 33.983007 271.573821 32.108524 
" clip-path="url(#pf3df0082ed)" style="fill: none; stroke: #000000; stroke-linejoin: miter"/>
   </g>
  </g>
  <g id="axes_18">
   <g id="patch_16">
    <path d="M 277.257798 38.160826 
Q 280.230275 39.535596 284.949083 39.721376 
Q 286.472477 39.721376 287.159862 38.550963 
Q 287.847248 37.38055 287.847248 35.82 
Q 287.847248 35.299817 287.754358 34.909679 
Q 287.661468 34.519541 287.419954 34.296606 
Q 287.17844 34.07367 287.011239 33.943624 
Q 286.844037 33.813578 286.398165 33.757844 
Q 285.952294 33.70211 285.747936 33.683532 
Q 285.543578 33.664954 284.967661 33.683532 
Q 284.391743 33.70211 284.168807 33.70211 
Q 282.125229 33.70211 280.638991 35.578486 
Q 279.152752 37.454862 279.152752 39.609908 
Q 279.152752 42.619541 281.084862 44.570229 
Q 283.016972 46.520917 286.063761 46.520917 
Q 288.218807 46.818165 289.742202 44.29156 
" clip-path="url(#p385024d14b)" style="fill: none; stroke: #000000; stroke-linejoin: miter"/>
   </g>
  </g>
  <g id="axes_19">
   <g id="patch_17">
    <path d="M 296.213462 32.783338 
Q 296.738317 34.507862 296.869531 36.457324 
Q 297.000745 38.406786 296.925766 40.956083 
Q 296.850786 43.505379 296.888276 44.705048 
L 297.000745 46.054676 
L 297.000745 45.829738 
Q 297.000745 44.667559 296.719572 42.30571 
Q 296.4384 39.943862 296.4384 38.744193 
Q 296.4384 36.419834 297.450621 34.882759 
Q 298.462841 33.345683 300.487283 33.345683 
Q 301.199586 33.345683 301.536993 33.626855 
Q 301.8744 33.908028 302.136828 34.432883 
Q 302.399255 34.957738 302.736662 35.257655 
L 303.186538 36.832221 
" clip-path="url(#pd0dee5c2b3)" style="fill: none; stroke: #000000; stroke-linejoin: miter"/>
   </g>
  </g>
  <g id="axes_20">
   <g id="patch_18">
    <path d="M 309.657798 38.160826 
Q 312.630275 39.535596 317.349083 39.721376 
Q 318.872477 39.721376 319.559862 38.550963 
Q 320.247248 37.38055 320.247248 35.82 
Q 320.247248 35.299817 320.154358 34.909679 
Q 320.061468 34.519541 319.819954 34.296606 
Q 319.57844 34.07367 319.411239 33.943624 
Q 319.244037 33.813578 318.798165 33.757844 
Q 318.352294 33.70211 318.147936 33.683532 
Q 317.943578 33.664954 317.367661 33.683532 
Q 316.791743 33.70211 316.568807 33.70211 
Q 314.525229 33.70211 313.038991 35.578486 
Q 311.552752 37.454862 311.552752 39.609908 
Q 311.552752 42.619541 313.484862 44.570229 
Q 315.416972 46.520917 318.463761 46.520917 
Q 320.618807 46.818165 322.142202 44.29156 
" clip-path="url(#p33bee5c9e5)" style="fill: none; stroke: #000000; stroke-linejoin: miter"/>
   </g>
  </g>
  <g id="axes_21">
   <g id="patch_19">
    <path d="M 335.699007 39.568966 
Q 334.349379 38.181848 332.1 38.444276 
Q 329.250786 38.444276 328.088607 39.793903 
Q 326.926428 41.143531 326.926428 44.067724 
Q 326.926428 45.56731 328.219821 46.279614 
Q 329.513214 46.991917 331.087779 46.991917 
Q 332.399917 46.991917 333.412138 45.736014 
Q 334.424359 44.48011 335.005448 42.30571 
Q 335.586538 40.13131 335.961434 37.938166 
Q 336.336331 35.745021 336.48629 33.045766 
Q 336.636248 30.34651 336.673738 28.978138 
Q 336.711228 27.609766 336.711228 26.185159 
Q 336.48629 26.260138 336.48629 29.896634 
L 336.48629 44.292662 
L 337.273572 48.229076 
" clip-path="url(#p72d3825178)" style="fill: none; stroke: #000000; stroke-linejoin: miter"/>
   </g>
  </g>
  <g id="axes_22"/>
  <g id="axes_23">
   <g id="patch_20">
    <path d="M 370.043923 36.441748 
Q 368.834968 35.094627 364.862687 35.094627 
Q 363.342857 35.094627 362.565672 35.146439 
Q 361.788486 35.198252 360.78678 35.440043 
Q 359.785075 35.681834 359.301493 36.182687 
Q 358.81791 36.683539 358.472495 37.616162 
Q 358.127079 38.548785 358.127079 39.964989 
Q 358.127079 42.037484 359.543284 43.280981 
Q 360.959488 44.524478 362.893817 44.524478 
Q 365.553518 44.524478 368.316844 38.721493 
Q 369.663966 35.854542 369.663966 35.82 
Q 370.009382 35.578209 370.043923 36.441748 
Q 370.043923 37.512537 370.458422 40.362217 
Q 370.872921 43.211898 370.872921 44.524478 
" clip-path="url(#p640dc881a2)" style="fill: none; stroke: #000000; stroke-linejoin: miter"/>
   </g>
  </g>
  <g id="axes_24">
   <g id="patch_21">
    <path d="M 377.157228 37.244607 
Q 378.206938 37.207117 378.394386 37.132138 
Q 381.805945 37.132138 383.586703 39.212814 
Q 385.367462 41.29349 385.367462 44.780028 
Q 385.367462 47.704221 380.756234 47.704221 
Q 380.11891 47.704221 379.57531 47.591752 
Q 379.03171 47.479283 378.394386 47.254345 
Q 377.757062 47.029407 377.269697 46.916938 
L 376.032538 45.679779 
M 377.044759 25.435366 
L 377.044759 26.560055 
Q 377.044759 29.409269 377.157228 33.008276 
Q 377.269697 36.607283 377.457145 40.899848 
Q 377.644593 45.192414 377.719572 47.141876 
" clip-path="url(#p36dd944bfe)" style="fill: none; stroke: #000000; stroke-linejoin: miter"/>
   </g>
  </g>
  <g id="axes_25">
   <g id="patch_22">
    <path d="M 400.1616 35.032717 
Q 399.11189 34.582841 398.137159 34.69531 
Q 395.100497 35.032717 393.188524 36.701007 
Q 391.276552 38.369297 391.276552 41.330979 
Q 391.276552 43.917766 393.282248 45.6048 
Q 395.287945 47.291834 397.912221 47.291834 
Q 400.274069 47.291834 401.398759 45.361117 
Q 402.523448 43.4304 402.523448 40.881103 
Q 402.523448 39.643945 402.111062 38.706703 
Q 401.698676 37.769462 401.173821 37.300841 
Q 400.648966 36.832221 399.899172 36.119917 
Q 399.149379 35.407614 398.699503 34.69531 
L 397.462345 34.245434 
" clip-path="url(#p3dbf58eba4)" style="fill: none; stroke: #000000; stroke-linejoin: miter"/>
   </g>
  </g>
  <g id="axes_26">
   <g id="patch_23">
    <path d="M 408.826179 34.807779 
Q 410.438234 36.719752 411.731628 39.6252 
Q 413.025021 42.530648 413.324938 45.154924 
Q 414.374648 43.655338 415.293145 38.819172 
Q 416.211641 33.983007 417.373821 32.108524 
" clip-path="url(#p564432c19e)" style="fill: none; stroke: #000000; stroke-linejoin: miter"/>
   </g>
  </g>
  <g id="axes_27">
   <g id="patch_24">
    <path d="M 423.057798 38.160826 
Q 426.030275 39.535596 430.749083 39.721376 
Q 432.272477 39.721376 432.959862 38.550963 
Q 433.647248 37.38055 433.647248 35.82 
Q 433.647248 35.299817 433.554358 34.909679 
Q 433.461468 34.519541 433.219954 34.296606 
Q 432.97844 34.07367 432.811239 33.943624 
Q 432.644037 33.813578 432.198165 33.757844 
Q 431.752294 33.70211 431.547936 33.683532 
Q 431.343578 33.664954 430.767661 33.683532 
Q 430.191743 33.70211 429.968807 33.70211 
Q 427.925229 33.70211 426.438991 35.578486 
Q 424.952752 37.454862 424.952752 39.609908 
Q 424.952752 42.619541 426.884862 44.570229 
Q 428.816972 46.520917 431.863761 46.520917 
Q 434.018807 46.818165 435.542202 44.29156 
" clip-path="url(#p0a452d9633)" style="fill: none; stroke: #000000; stroke-linejoin: miter"/>
   </g>
  </g>
  <g id="axes_28"/>
  <g id="axes_29">
   <g id="patch_25">
    <path d="M 456.863834 37.95691 
L 457.538648 37.95691 
Q 458.250952 37.95691 459.038234 37.881931 
Q 459.825517 37.806952 460.781503 37.675738 
Q 461.73749 37.544524 462.262345 37.507034 
L 466.536166 35.82 
M 462.487283 30.42149 
L 462.487283 31.43371 
Q 462.487283 33.383172 461.812469 37.207117 
Q 461.137655 41.031062 461.137655 43.018014 
Q 461.137655 43.805297 461.137655 44.105214 
Q 461.137655 44.405131 461.231379 45.042455 
Q 461.325103 45.679779 461.512552 45.960952 
Q 461.7 46.242124 462.093641 46.485807 
Q 462.487283 46.72949 463.049628 46.72949 
Q 463.162097 46.692 463.480759 46.72949 
Q 463.799421 46.766979 463.986869 46.710745 
Q 464.174317 46.65451 464.174317 46.392083 
" clip-path="url(#p546548c44a)" style="fill: none; stroke: #000000; stroke-linejoin: miter"/>
   </g>
  </g>
  <g id="axes_30">
   <g id="patch_26">
    <path d="M 474.413462 35.932469 
Q 475.013297 35.257655 476.006772 34.826524 
Q 477.000248 34.395393 477.9 34.470372 
Q 478.537324 34.470372 479.02469 34.639076 
Q 479.512055 34.807779 479.830717 34.995228 
Q 480.149379 35.182676 480.374317 35.670041 
Q 480.599255 36.157407 480.711724 36.419834 
Q 480.824193 36.682262 480.880428 37.375821 
Q 480.936662 38.069379 480.955407 38.331807 
Q 480.974152 38.594234 480.955407 39.419007 
Q 480.936662 40.243779 480.936662 40.431228 
Q 480.936662 41.368469 480.767959 43.242952 
Q 480.599255 45.117434 480.599255 46.054676 
Q 480.599255 46.467062 480.65549 46.823214 
Q 480.711724 47.179366 480.805448 47.610497 
Q 480.899172 48.041628 480.936662 48.304055 
L 481.386538 48.528993 
M 474.863338 23.111007 
Q 475.088276 24.798041 475.088276 29.971614 
L 475.088276 42.3432 
L 474.750869 46.841959 
L 474.525931 47.74171 
" clip-path="url(#p9a27a8fbbb)" style="fill: none; stroke: #000000; stroke-linejoin: miter"/>
   </g>
  </g>
  <g id="axes_31">
   <g id="patch_27">
    <path d="M 487.857798 38.160826 
Q 490.830275 39.535596 495.549083 39.721376 
Q 497.072477 39.721376 497.759862 38.550963 
Q 498.447248 37.38055 498.447248 35.82 
Q 498.447248 35.299817 498.354358 34.909679 
Q 498.261468 34.519541 498.019954 34.296606 
Q 497.77844 34.07367 497.611239 33.943624 
Q 497.444037 33.813578 496.998165 33.757844 
Q 496.552294 33.70211 496.347936 33.683532 
Q 496.143578 33.664954 495.567661 33.683532 
Q 494.991743 33.70211 494.768807 33.70211 
Q 492.725229 33.70211 491.238991 35.578486 
Q 489.752752 37.454862 489.752752 39.609908 
Q 489.752752 42.619541 491.684862 44.570229 
Q 493.616972 46.520917 496.663761 46.520917 
Q 498.818807 46.818165 500.342202 44.29156 
" clip-path="url(#p97ec8733dd)" style="fill: none; stroke: #000000; stroke-linejoin: miter"/>
   </g>
  </g>
  <g id="axes_32">
   <g id="patch_28">
    <path d="M 504.008036 34.879821 
Q 504.514286 36.073125 504.803571 42.871339 
Q 504.948214 46.632054 505.2375 46.632054 
Q 505.273661 46.632054 505.309821 46.595893 
Q 505.816071 46.017321 505.870312 44.588973 
Q 505.924554 43.160625 505.707589 41.750357 
Q 505.490625 40.340089 505.2375 38.712857 
Q 504.984375 37.085625 504.984375 36.398571 
Q 504.984375 35.169107 505.364062 33.939643 
Q 505.74375 32.710179 506.720089 32.710179 
Q 507.949554 32.710179 508.672768 34.355491 
Q 509.395982 36.000804 509.558705 37.971562 
Q 509.721429 39.942321 509.829911 41.587634 
Q 509.938393 43.232946 510.083036 43.232946 
Q 510.227679 43.232946 510.31808 41.497232 
Q 510.408482 39.761518 510.535045 37.700357 
Q 510.661607 35.639196 511.384821 33.903482 
Q 512.108036 32.167768 513.3375 32.167768 
Q 514.892411 33.035625 515.561384 34.771339 
Q 516.230357 36.507054 516.194196 38.188527 
Q 516.158036 39.87 516.176116 42.057723 
Q 516.194196 44.245446 516.591964 45.511071 
" clip-path="url(#pb2606acc96)" style="fill: none; stroke: #000000; stroke-linejoin: miter"/>
   </g>
  </g>
  <g id="axes_33"/>
  <g id="axes_34">
   <g id="patch_29">
    <path d="M 548.243923 36.441748 
Q 547.034968 35.094627 543.062687 35.094627 
Q 541.542857 35.094627 540.765672 35.146439 
Q 539.988486 35.198252 538.98678 35.440043 
Q 537.985075 35.681834 537.501493 36.182687 
Q 537.01791 36.683539 536.672495 37.616162 
Q 536.327079 38.548785 536.327079 39.964989 
Q 536.327079 42.037484 537.743284 43.280981 
Q 539.159488 44.524478 541.093817 44.524478 
Q 543.753518 44.524478 546.516844 38.721493 
Q 547.863966 35.854542 547.863966 35.82 
Q 548.209382 35.578209 548.243923 36.441748 
Q 548.243923 37.512537 548.658422 40.362217 
Q 549.072921 43.211898 549.072921 44.524478 
" clip-path="url(#p96187282b4)" style="fill: none; stroke: #000000; stroke-linejoin: miter"/>
   </g>
  </g>
  <g id="axes_35">
   <g id="patch_30">
    <path d="M 554.438731 37.282097 
L 554.438731 37.844441 
Q 554.701159 39.868883 554.738648 41.312234 
Q 554.776138 42.755586 554.682414 44.667559 
Q 554.58869 46.579531 554.58869 48.191586 
L 554.663669 39.643945 
Q 554.663669 38.144359 556.256979 37.507034 
Q 557.85029 36.86971 559.274897 37.282097 
Q 561.186869 37.844441 562.105366 39.04411 
Q 563.023862 40.243779 563.080097 41.668386 
Q 563.136331 43.092993 563.173821 44.817517 
Q 563.21131 46.542041 563.361269 48.191586 
" clip-path="url(#p6b57a0b2b4)" style="fill: none; stroke: #000000; stroke-linejoin: miter"/>
   </g>
  </g>
  <g id="axes_36">
   <g id="patch_31">
    <path d="M 578.699007 39.568966 
Q 577.349379 38.181848 575.1 38.444276 
Q 572.250786 38.444276 571.088607 39.793903 
Q 569.926428 41.143531 569.926428 44.067724 
Q 569.926428 45.56731 571.219821 46.279614 
Q 572.513214 46.991917 574.087779 46.991917 
Q 575.399917 46.991917 576.412138 45.736014 
Q 577.424359 44.48011 578.005448 42.30571 
Q 578.586538 40.13131 578.961434 37.938166 
Q 579.336331 35.745021 579.48629 33.045766 
Q 579.636248 30.34651 579.673738 28.978138 
Q 579.711228 27.609766 579.711228 26.185159 
Q 579.48629 26.260138 579.48629 29.896634 
L 579.48629 44.292662 
L 580.273572 48.229076 
" clip-path="url(#p71d3f71797)" style="fill: none; stroke: #000000; stroke-linejoin: miter"/>
   </g>
  </g>
  <g id="axes_37"/>
  <g id="axes_38">
   <g id="patch_32">
    <path d="M 608.118579 29.071862 
Q 607.743683 29.146841 607.612469 29.577972 
Q 607.481255 30.009103 607.556234 30.42149 
Q 607.556234 30.571448 607.593724 30.702662 
Q 607.631214 30.833876 607.687448 30.89011 
Q 607.743683 30.946345 607.799917 31.040069 
Q 607.856152 31.133793 607.893641 31.208772 
L 608.00611 29.859145 
M 608.00611 34.020497 
Q 607.106359 39.006621 606.881421 42.793076 
L 607.331297 45.379862 
L 607.668703 46.054676 
" clip-path="url(#p8ba3895dfa)" style="fill: none; stroke: #000000; stroke-linejoin: miter"/>
   </g>
  </g>
  <g id="axes_39">
   <g id="patch_33">
    <path d="M 623.306359 28.621986 
Q 623.531297 30.34651 623.606276 32.146014 
Q 623.681255 33.945517 623.66251 36.551048 
Q 623.643766 39.156579 623.643766 40.093821 
Q 623.643766 40.13131 623.868703 45.829738 
L 624.093641 46.841959 
" clip-path="url(#pcb941e28bc)" style="fill: none; stroke: #000000; stroke-linejoin: miter"/>
   </g>
  </g>
  <g id="axes_40">
   <g id="patch_34">
    <path d="M 637.594386 35.595062 
L 642.205614 35.707531 
" clip-path="url(#p93715b1ab8)" style="fill: none; stroke: #000000; stroke-linejoin: miter"/>
   </g>
  </g>
 </g>
 <defs>
  <clipPath id="pc6a864561e">
   <rect x="5.606938" y="8.64" width="4.986124" height="54.36"/>
  </clipPath>
  <clipPath id="p9112cc08b9">
   <rect x="17.964248" y="8.64" width="12.671503" height="54.36"/>
  </clipPath>
  <clipPath id="pf1773163e0">
   <rect x="32.4" y="9.426742" width="16.2" height="52.786517"/>
  </clipPath>
  <clipPath id="p115c17fc40">
   <rect x="66.582993" y="8.64" width="12.634014" height="54.36"/>
  </clipPath>
  <clipPath id="pe887f9e588">
   <rect x="82.389352" y="8.64" width="13.421297" height="54.36"/>
  </clipPath>
  <clipPath id="p8e455a8c22">
   <rect x="97.2" y="10.777356" width="16.2" height="50.085288"/>
  </clipPath>
  <clipPath id="p8426e15090">
   <rect x="116.138979" y="8.64" width="10.722041" height="54.36"/>
  </clipPath>
  <clipPath id="pb02a55d5cf">
   <rect x="147.189352" y="8.64" width="13.421297" height="54.36"/>
  </clipPath>
  <clipPath id="pf460abd48a">
   <rect x="164.738979" y="8.64" width="10.722041" height="54.36"/>
  </clipPath>
  <clipPath id="pbb1368cc41">
   <rect x="178.2" y="10.777356" width="16.2" height="50.085288"/>
  </clipPath>
  <clipPath id="pec8fec7902">
   <rect x="195.789352" y="8.64" width="13.421297" height="54.36"/>
  </clipPath>
  <clipPath id="pf0a4433c18">
   <rect x="229.538979" y="8.64" width="10.722041" height="54.36"/>
  </clipPath>
  <clipPath id="pce6769096d">
   <rect x="243.602069" y="8.64" width="14.995862" height="54.36"/>
  </clipPath>
  <clipPath id="pf3df0082ed">
   <rect x="261.151697" y="8.64" width="12.296607" height="54.36"/>
  </clipPath>
  <clipPath id="p385024d14b">
   <rect x="275.4" y="8.881927" width="16.2" height="53.876147"/>
  </clipPath>
  <clipPath id="pd0dee5c2b3">
   <rect x="294.338979" y="8.64" width="10.722041" height="54.36"/>
  </clipPath>
  <clipPath id="p33bee5c9e5">
   <rect x="307.8" y="8.881927" width="16.2" height="53.876147"/>
  </clipPath>
  <clipPath id="p72d3825178">
   <rect x="325.051945" y="8.64" width="14.09611" height="54.36"/>
  </clipPath>
  <clipPath id="p640dc881a2">
   <rect x="356.4" y="10.777356" width="16.2" height="50.085288"/>
  </clipPath>
  <clipPath id="p36dd944bfe">
   <rect x="374.158055" y="8.64" width="13.08389" height="54.36"/>
  </clipPath>
  <clipPath id="p3dbf58eba4">
   <rect x="389.402069" y="8.64" width="14.995862" height="54.36"/>
  </clipPath>
  <clipPath id="p564432c19e">
   <rect x="406.951697" y="8.64" width="12.296607" height="54.36"/>
  </clipPath>
  <clipPath id="p0a452d9633">
   <rect x="421.2" y="8.881927" width="16.2" height="53.876147"/>
  </clipPath>
  <clipPath id="p546548c44a">
   <rect x="454.989352" y="8.64" width="13.421297" height="54.36"/>
  </clipPath>
  <clipPath id="p9a27a8fbbb">
   <rect x="472.538979" y="8.64" width="10.722041" height="54.36"/>
  </clipPath>
  <clipPath id="p97ec8733dd">
   <rect x="486" y="8.881927" width="16.2" height="53.876147"/>
  </clipPath>
  <clipPath id="pb2606acc96">
   <rect x="502.2" y="9.603482" width="16.2" height="52.433036"/>
  </clipPath>
  <clipPath id="p96187282b4">
   <rect x="534.6" y="10.777356" width="16.2" height="50.085288"/>
  </clipPath>
  <clipPath id="p6b57a0b2b4">
   <rect x="552.564248" y="8.64" width="12.671503" height="54.36"/>
  </clipPath>
  <clipPath id="p71d3f71797">
   <rect x="568.051945" y="8.64" width="14.09611" height="54.36"/>
  </clipPath>
  <clipPath id="p8ba3895dfa">
   <rect x="605.006938" y="8.64" width="4.986124" height="54.36"/>
  </clipPath>
  <clipPath id="pcb941e28bc">
   <rect x="621.431876" y="8.64" width="4.536248" height="54.36"/>
  </clipPath>
  <clipPath id="p93715b1ab8">
   <rect x="635.719903" y="8.64" width="8.360193" height="54.36"/>
  </clipPath>
 </defs>
</svg>
