<?xml version="1.0" encoding="utf-8" standalone="no"?>
<!DOCTYPE svg PUBLIC "-//W3C//DTD SVG 1.1//EN"
  "http://www.w3.org/Graphics/SVG/1.1/DTD/svg11.dtd">
<svg xmlns:xlink="http://www.w3.org/1999/xlink" width="810pt" height="72pt" viewBox="0 0 810 72" xmlns="http://www.w3.org/2000/svg" version="1.1">
 <metadata>
  <rdf:RDF xmlns:dc="http://purl.org/dc/elements/1.1/" xmlns:cc="http://creativecommons.org/ns#" xmlns:rdf="http://www.w3.org/1999/02/22-rdf-syntax-ns#">
   <cc:Work>
    <dc:type rdf:resource="http://purl.org/dc/dcmitype/StillImage"/>
    <dc:date>2024-01-04T18:45:30.469474</dc:date>
    <dc:format>image/svg+xml</dc:format>
    <dc:creator>
     <cc:Agent>
      <dc:title>Matplotlib v3.7.1, https://matplotlib.org/</dc:title>
     </cc:Agent>
    </dc:creator>
   </cc:Work>
  </rdf:RDF>
 </metadata>
 <defs>
  <style type="text/css">*{stroke-linejoin: round; stroke-linecap: butt}</style>
 </defs>
 <g id="figure_1">
  <g id="patch_1">
   <path d="M 0 72 
L 810 72 
L 810 0 
L 0 0 
z
" style="fill: #8fff9f"/>
  </g>
  <g id="axes_1">
   <g id="patch_2">
    <path d="M 13.643923 36.441748 
Q 12.434968 35.094627 8.462687 35.094627 
Q 6.942857 35.094627 6.165672 35.146439 
Q 5.388486 35.198252 4.38678 35.440043 
Q 3.385075 35.681834 2.901493 36.182687 
Q 2.41791 36.683539 2.072495 37.616162 
Q 1.727079 38.548785 1.727079 39.964989 
Q 1.727079 42.037484 3.143284 43.280981 
Q 4.559488 44.524478 6.493817 44.524478 
Q 9.153518 44.524478 11.916844 38.721493 
Q 13.263966 35.854542 13.263966 35.82 
Q 13.609382 35.578209 13.643923 36.441748 
Q 13.643923 37.512537 14.058422 40.362217 
Q 14.472921 43.211898 14.472921 44.524478 
" clip-path="url(#p421fd77cb0)" style="fill: none; stroke: #000000; stroke-linejoin: miter"/>
   </g>
  </g>
  <g id="axes_2">
   <g id="patch_3">
    <path d="M 19.463834 37.95691 
L 20.138648 37.95691 
Q 20.850952 37.95691 21.638234 37.881931 
Q 22.425517 37.806952 23.381503 37.675738 
Q 24.33749 37.544524 24.862345 37.507034 
L 29.136166 35.82 
M 25.087283 30.42149 
L 25.087283 31.43371 
Q 25.087283 33.383172 24.412469 37.207117 
Q 23.737655 41.031062 23.737655 43.018014 
Q 23.737655 43.805297 23.737655 44.105214 
Q 23.737655 44.405131 23.831379 45.042455 
Q 23.925103 45.679779 24.112552 45.960952 
Q 24.3 46.242124 24.693641 46.485807 
Q 25.087283 46.72949 25.649628 46.72949 
Q 25.762097 46.692 26.080759 46.72949 
Q 26.399421 46.766979 26.586869 46.710745 
Q 26.774317 46.65451 26.774317 46.392083 
" clip-path="url(#p1fe79ffc2e)" style="fill: none; stroke: #000000; stroke-linejoin: miter"/>
   </g>
  </g>
  <g id="axes_3"/>
  <g id="axes_4">
   <g id="patch_4">
    <path d="M 62.243923 36.441748 
Q 61.034968 35.094627 57.062687 35.094627 
Q 55.542857 35.094627 54.765672 35.146439 
Q 53.988486 35.198252 52.98678 35.440043 
Q 51.985075 35.681834 51.501493 36.182687 
Q 51.01791 36.683539 50.672495 37.616162 
Q 50.327079 38.548785 50.327079 39.964989 
Q 50.327079 42.037484 51.743284 43.280981 
Q 53.159488 44.524478 55.093817 44.524478 
Q 57.753518 44.524478 60.516844 38.721493 
Q 61.863966 35.854542 61.863966 35.82 
Q 62.209382 35.578209 62.243923 36.441748 
Q 62.243923 37.512537 62.658422 40.362217 
Q 63.072921 43.211898 63.072921 44.524478 
" clip-path="url(#p04d3736d6e)" style="fill: none; stroke: #000000; stroke-linejoin: miter"/>
   </g>
  </g>
  <g id="axes_5"/>
  <g id="axes_6">
   <g id="patch_5">
    <path d="M 84.638731 37.282097 
L 84.638731 37.844441 
Q 84.901159 39.868883 84.938648 41.312234 
Q 84.976138 42.755586 84.882414 44.667559 
Q 84.78869 46.579531 84.78869 48.191586 
L 84.863669 39.643945 
Q 84.863669 38.144359 86.456979 37.507034 
Q 88.05029 36.86971 89.474897 37.282097 
Q 91.386869 37.844441 92.305366 39.04411 
Q 93.223862 40.243779 93.280097 41.668386 
Q 93.336331 43.092993 93.373821 44.817517 
Q 93.41131 46.542041 93.561269 48.191586 
" clip-path="url(#p8af586176a)" style="fill: none; stroke: #000000; stroke-linejoin: miter"/>
   </g>
  </g>
  <g id="axes_7">
   <g id="patch_6">
    <path d="M 99.057798 38.160826 
Q 102.030275 39.535596 106.749083 39.721376 
Q 108.272477 39.721376 108.959862 38.550963 
Q 109.647248 37.38055 109.647248 35.82 
Q 109.647248 35.299817 109.554358 34.909679 
Q 109.461468 34.519541 109.219954 34.296606 
Q 108.97844 34.07367 108.811239 33.943624 
Q 108.644037 33.813578 108.198165 33.757844 
Q 107.752294 33.70211 107.547936 33.683532 
Q 107.343578 33.664954 106.767661 33.683532 
Q 106.191743 33.70211 105.968807 33.70211 
Q 103.925229 33.70211 102.438991 35.578486 
Q 100.952752 37.454862 100.952752 39.609908 
Q 100.952752 42.619541 102.884862 44.570229 
Q 104.816972 46.520917 107.863761 46.520917 
Q 110.018807 46.818165 111.542202 44.29156 
" clip-path="url(#p510b9a821d)" style="fill: none; stroke: #000000; stroke-linejoin: miter"/>
   </g>
  </g>
  <g id="axes_8">
   <g id="patch_7">
    <path d="M 127.043923 36.441748 
Q 125.834968 35.094627 121.862687 35.094627 
Q 120.342857 35.094627 119.565672 35.146439 
Q 118.788486 35.198252 117.78678 35.440043 
Q 116.785075 35.681834 116.301493 36.182687 
Q 115.81791 36.683539 115.472495 37.616162 
Q 115.127079 38.548785 115.127079 39.964989 
Q 115.127079 42.037484 116.543284 43.280981 
Q 117.959488 44.524478 119.893817 44.524478 
Q 122.553518 44.524478 125.316844 38.721493 
Q 126.663966 35.854542 126.663966 35.82 
Q 127.009382 35.578209 127.043923 36.441748 
Q 127.043923 37.512537 127.458422 40.362217 
Q 127.872921 43.211898 127.872921 44.524478 
" clip-path="url(#pec0480387e)" style="fill: none; stroke: #000000; stroke-linejoin: miter"/>
   </g>
  </g>
  <g id="axes_9">
   <g id="patch_8">
    <path d="M 134.213462 32.783338 
Q 134.738317 34.507862 134.869531 36.457324 
Q 135.000745 38.406786 134.925766 40.956083 
Q 134.850786 43.505379 134.888276 44.705048 
L 135.000745 46.054676 
L 135.000745 45.829738 
Q 135.000745 44.667559 134.719572 42.30571 
Q 134.4384 39.943862 134.4384 38.744193 
Q 134.4384 36.419834 135.450621 34.882759 
Q 136.462841 33.345683 138.487283 33.345683 
Q 139.199586 33.345683 139.536993 33.626855 
Q 139.8744 33.908028 140.136828 34.432883 
Q 140.399255 34.957738 140.736662 35.257655 
L 141.186538 36.832221 
" clip-path="url(#p5330697fba)" style="fill: none; stroke: #000000; stroke-linejoin: miter"/>
   </g>
  </g>
  <g id="axes_10"/>
  <g id="axes_11">
   <g id="patch_9">
    <path d="M 170.718579 29.071862 
Q 170.343683 29.146841 170.212469 29.577972 
Q 170.081255 30.009103 170.156234 30.42149 
Q 170.156234 30.571448 170.193724 30.702662 
Q 170.231214 30.833876 170.287448 30.89011 
Q 170.343683 30.946345 170.399917 31.040069 
Q 170.456152 31.133793 170.493641 31.208772 
L 170.60611 29.859145 
M 170.60611 34.020497 
Q 169.706359 39.006621 169.481421 42.793076 
L 169.931297 45.379862 
L 170.268703 46.054676 
" clip-path="url(#p6784682592)" style="fill: none; stroke: #000000; stroke-linejoin: miter"/>
   </g>
  </g>
  <g id="axes_12">
   <g id="patch_10">
    <path d="M 181.838731 37.282097 
L 181.838731 37.844441 
Q 182.101159 39.868883 182.138648 41.312234 
Q 182.176138 42.755586 182.082414 44.667559 
Q 181.98869 46.579531 181.98869 48.191586 
L 182.063669 39.643945 
Q 182.063669 38.144359 183.656979 37.507034 
Q 185.25029 36.86971 186.674897 37.282097 
Q 188.586869 37.844441 189.505366 39.04411 
Q 190.423862 40.243779 190.480097 41.668386 
Q 190.536331 43.092993 190.573821 44.817517 
Q 190.61131 46.542041 190.761269 48.191586 
" clip-path="url(#p6429e82abc)" style="fill: none; stroke: #000000; stroke-linejoin: miter"/>
   </g>
  </g>
  <g id="axes_13">
   <g id="patch_11">
    <path d="M 196.184141 38.85304 
L 196.612335 38.85304 
Q 197.43304 38.85304 198.396476 38.745991 
Q 199.359912 38.638943 200.519604 38.460529 
Q 201.679295 38.282115 202.285903 38.210749 
L 208.815859 35.427489 
M 208.494714 25.793128 
Q 208.209251 25.721762 207.174449 25.275727 
Q 206.139648 24.829692 205.497357 24.93674 
Q 204.855066 24.93674 204.337665 25.150837 
Q 203.820264 25.364934 203.481278 25.793128 
Q 203.142291 26.221322 202.87467 26.685198 
Q 202.607048 27.149075 202.464317 27.862731 
Q 202.321586 28.576388 202.214537 29.129471 
Q 202.107489 29.682555 202.089648 30.50326 
Q 202.071806 31.323965 202.053965 31.77 
Q 202.036123 32.216035 202.053965 32.965374 
Q 202.071806 33.714714 202.071806 33.928811 
Q 202.071806 36.605022 202.767621 41.850396 
Q 203.463436 47.095771 203.463436 49.771982 
Q 203.39207 50.057445 203.356388 50.681894 
Q 203.320705 51.306344 203.213656 51.805903 
Q 203.106608 52.305463 202.821145 52.555242 
" clip-path="url(#pdfa96051c0)" style="fill: none; stroke: #000000; stroke-linejoin: miter"/>
   </g>
  </g>
  <g id="axes_14">
   <g id="patch_12">
    <path d="M 219.318579 29.071862 
Q 218.943683 29.146841 218.812469 29.577972 
Q 218.681255 30.009103 218.756234 30.42149 
Q 218.756234 30.571448 218.793724 30.702662 
Q 218.831214 30.833876 218.887448 30.89011 
Q 218.943683 30.946345 218.999917 31.040069 
Q 219.056152 31.133793 219.093641 31.208772 
L 219.20611 29.859145 
M 219.20611 34.020497 
Q 218.306359 39.006621 218.081421 42.793076 
L 218.531297 45.379862 
L 218.868703 46.054676 
" clip-path="url(#p823df8a5a7)" style="fill: none; stroke: #000000; stroke-linejoin: miter"/>
   </g>
  </g>
  <g id="axes_15">
   <g id="patch_13">
    <path d="M 230.438731 37.282097 
L 230.438731 37.844441 
Q 230.701159 39.868883 230.738648 41.312234 
Q 230.776138 42.755586 230.682414 44.667559 
Q 230.58869 46.579531 230.58869 48.191586 
L 230.663669 39.643945 
Q 230.663669 38.144359 232.256979 37.507034 
Q 233.85029 36.86971 235.274897 37.282097 
Q 237.186869 37.844441 238.105366 39.04411 
Q 239.023862 40.243779 239.080097 41.668386 
Q 239.136331 43.092993 239.173821 44.817517 
Q 239.21131 46.542041 239.361269 48.191586 
" clip-path="url(#p230a6cc7de)" style="fill: none; stroke: #000000; stroke-linejoin: miter"/>
   </g>
  </g>
  <g id="axes_16">
   <g id="patch_14">
    <path d="M 251.718579 29.071862 
Q 251.343683 29.146841 251.212469 29.577972 
Q 251.081255 30.009103 251.156234 30.42149 
Q 251.156234 30.571448 251.193724 30.702662 
Q 251.231214 30.833876 251.287448 30.89011 
Q 251.343683 30.946345 251.399917 31.040069 
Q 251.456152 31.133793 251.493641 31.208772 
L 251.60611 29.859145 
M 251.60611 34.020497 
Q 250.706359 39.006621 250.481421 42.793076 
L 250.931297 45.379862 
L 251.268703 46.054676 
" clip-path="url(#p8dcbd033c9)" style="fill: none; stroke: #000000; stroke-linejoin: miter"/>
   </g>
  </g>
  <g id="axes_17">
   <g id="patch_15">
    <path d="M 262.463834 37.95691 
L 263.138648 37.95691 
Q 263.850952 37.95691 264.638234 37.881931 
Q 265.425517 37.806952 266.381503 37.675738 
Q 267.33749 37.544524 267.862345 37.507034 
L 272.136166 35.82 
M 268.087283 30.42149 
L 268.087283 31.43371 
Q 268.087283 33.383172 267.412469 37.207117 
Q 266.737655 41.031062 266.737655 43.018014 
Q 266.737655 43.805297 266.737655 44.105214 
Q 266.737655 44.405131 266.831379 45.042455 
Q 266.925103 45.679779 267.112552 45.960952 
Q 267.3 46.242124 267.693641 46.485807 
Q 268.087283 46.72949 268.649628 46.72949 
Q 268.762097 46.692 269.080759 46.72949 
Q 269.399421 46.766979 269.586869 46.710745 
Q 269.774317 46.65451 269.774317 46.392083 
" clip-path="url(#p1d6b2d526d)" style="fill: none; stroke: #000000; stroke-linejoin: miter"/>
   </g>
  </g>
  <g id="axes_18">
   <g id="patch_16">
    <path d="M 277.257798 38.160826 
Q 280.230275 39.535596 284.949083 39.721376 
Q 286.472477 39.721376 287.159862 38.550963 
Q 287.847248 37.38055 287.847248 35.82 
Q 287.847248 35.299817 287.754358 34.909679 
Q 287.661468 34.519541 287.419954 34.296606 
Q 287.17844 34.07367 287.011239 33.943624 
Q 286.844037 33.813578 286.398165 33.757844 
Q 285.952294 33.70211 285.747936 33.683532 
Q 285.543578 33.664954 284.967661 33.683532 
Q 284.391743 33.70211 284.168807 33.70211 
Q 282.125229 33.70211 280.638991 35.578486 
Q 279.152752 37.454862 279.152752 39.609908 
Q 279.152752 42.619541 281.084862 44.570229 
Q 283.016972 46.520917 286.063761 46.520917 
Q 288.218807 46.818165 289.742202 44.29156 
" clip-path="url(#p97fc7fdc4c)" style="fill: none; stroke: #000000; stroke-linejoin: miter"/>
   </g>
  </g>
  <g id="axes_19"/>
  <g id="axes_20">
   <g id="patch_17">
    <path d="M 321.443923 36.441748 
Q 320.234968 35.094627 316.262687 35.094627 
Q 314.742857 35.094627 313.965672 35.146439 
Q 313.188486 35.198252 312.18678 35.440043 
Q 311.185075 35.681834 310.701493 36.182687 
Q 310.21791 36.683539 309.872495 37.616162 
Q 309.527079 38.548785 309.527079 39.964989 
Q 309.527079 42.037484 310.943284 43.280981 
Q 312.359488 44.524478 314.293817 44.524478 
Q 316.953518 44.524478 319.716844 38.721493 
Q 321.063966 35.854542 321.063966 35.82 
Q 321.409382 35.578209 321.443923 36.441748 
Q 321.443923 37.512537 321.858422 40.362217 
Q 322.272921 43.211898 322.272921 44.524478 
" clip-path="url(#pdb08addfce)" style="fill: none; stroke: #000000; stroke-linejoin: miter"/>
   </g>
  </g>
  <g id="axes_21">
   <g id="patch_18">
    <path d="M 328.613462 32.783338 
Q 329.138317 34.507862 329.269531 36.457324 
Q 329.400745 38.406786 329.325766 40.956083 
Q 329.250786 43.505379 329.288276 44.705048 
L 329.400745 46.054676 
L 329.400745 45.829738 
Q 329.400745 44.667559 329.119572 42.30571 
Q 328.8384 39.943862 328.8384 38.744193 
Q 328.8384 36.419834 329.850621 34.882759 
Q 330.862841 33.345683 332.887283 33.345683 
Q 333.599586 33.345683 333.936993 33.626855 
Q 334.2744 33.908028 334.536828 34.432883 
Q 334.799255 34.957738 335.136662 35.257655 
L 335.586538 36.832221 
" clip-path="url(#pb1a5e30802)" style="fill: none; stroke: #000000; stroke-linejoin: miter"/>
   </g>
  </g>
  <g id="axes_22">
   <g id="patch_19">
    <path d="M 344.813462 32.783338 
Q 345.338317 34.507862 345.469531 36.457324 
Q 345.600745 38.406786 345.525766 40.956083 
Q 345.450786 43.505379 345.488276 44.705048 
L 345.600745 46.054676 
L 345.600745 45.829738 
Q 345.600745 44.667559 345.319572 42.30571 
Q 345.0384 39.943862 345.0384 38.744193 
Q 345.0384 36.419834 346.050621 34.882759 
Q 347.062841 33.345683 349.087283 33.345683 
Q 349.799586 33.345683 350.136993 33.626855 
Q 350.4744 33.908028 350.736828 34.432883 
Q 350.999255 34.957738 351.336662 35.257655 
L 351.786538 36.832221 
" clip-path="url(#p5d76f87806)" style="fill: none; stroke: #000000; stroke-linejoin: miter"/>
   </g>
  </g>
  <g id="axes_23">
   <g id="patch_20">
    <path d="M 370.043923 36.441748 
Q 368.834968 35.094627 364.862687 35.094627 
Q 363.342857 35.094627 362.565672 35.146439 
Q 361.788486 35.198252 360.78678 35.440043 
Q 359.785075 35.681834 359.301493 36.182687 
Q 358.81791 36.683539 358.472495 37.616162 
Q 358.127079 38.548785 358.127079 39.964989 
Q 358.127079 42.037484 359.543284 43.280981 
Q 360.959488 44.524478 362.893817 44.524478 
Q 365.553518 44.524478 368.316844 38.721493 
Q 369.663966 35.854542 369.663966 35.82 
Q 370.009382 35.578209 370.043923 36.441748 
Q 370.043923 37.512537 370.458422 40.362217 
Q 370.872921 43.211898 370.872921 44.524478 
" clip-path="url(#p92c4537b16)" style="fill: none; stroke: #000000; stroke-linejoin: miter"/>
   </g>
  </g>
  <g id="axes_24">
   <g id="patch_21">
    <path d="M 375.563917 36.382345 
Q 375.526428 36.494814 375.657641 36.701007 
Q 375.788855 36.9072 375.676386 37.057159 
L 375.676386 39.306538 
Q 375.676386 40.506207 376.013793 41.724621 
Q 376.3512 42.943034 377.213462 43.93651 
Q 378.075724 44.929986 379.275393 44.929986 
Q 380.512552 44.929986 381.187366 43.861531 
Q 381.862179 42.793076 382.312055 41.143531 
Q 382.761931 39.493986 383.099338 38.969131 
L 383.886621 36.382345 
L 383.661683 42.680607 
L 383.661683 45.154924 
Q 383.661683 47.066897 384.392731 51.00331 
Q 385.123779 54.939724 385.123779 56.964166 
Q 385.873572 59.213545 384.786372 60.188276 
Q 383.699172 61.163007 381.637241 60.78811 
Q 379.837738 60.488193 378.919241 60.169531 
Q 378.000745 59.850869 376.013793 58.988607 
L 375.901324 58.426262 
" clip-path="url(#p7f4d5ecad9)" style="fill: none; stroke: #000000; stroke-linejoin: miter"/>
   </g>
  </g>
  <g id="axes_25"/>
  <g id="axes_26">
   <g id="patch_22">
    <path d="M 416.3616 35.032717 
Q 415.31189 34.582841 414.337159 34.69531 
Q 411.300497 35.032717 409.388524 36.701007 
Q 407.476552 38.369297 407.476552 41.330979 
Q 407.476552 43.917766 409.482248 45.6048 
Q 411.487945 47.291834 414.112221 47.291834 
Q 416.474069 47.291834 417.598759 45.361117 
Q 418.723448 43.4304 418.723448 40.881103 
Q 418.723448 39.643945 418.311062 38.706703 
Q 417.898676 37.769462 417.373821 37.300841 
Q 416.848966 36.832221 416.099172 36.119917 
Q 415.349379 35.407614 414.899503 34.69531 
L 413.662345 34.245434 
" clip-path="url(#p26cb38bc8d)" style="fill: none; stroke: #000000; stroke-linejoin: miter"/>
   </g>
  </g>
  <g id="axes_27">
   <g id="patch_23">
    <path d="M 422.984141 38.85304 
L 423.412335 38.85304 
Q 424.23304 38.85304 425.196476 38.745991 
Q 426.159912 38.638943 427.319604 38.460529 
Q 428.479295 38.282115 429.085903 38.210749 
L 435.615859 35.427489 
M 435.294714 25.793128 
Q 435.009251 25.721762 433.974449 25.275727 
Q 432.939648 24.829692 432.297357 24.93674 
Q 431.655066 24.93674 431.137665 25.150837 
Q 430.620264 25.364934 430.281278 25.793128 
Q 429.942291 26.221322 429.67467 26.685198 
Q 429.407048 27.149075 429.264317 27.862731 
Q 429.121586 28.576388 429.014537 29.129471 
Q 428.907489 29.682555 428.889648 30.50326 
Q 428.871806 31.323965 428.853965 31.77 
Q 428.836123 32.216035 428.853965 32.965374 
Q 428.871806 33.714714 428.871806 33.928811 
Q 428.871806 36.605022 429.567621 41.850396 
Q 430.263436 47.095771 430.263436 49.771982 
Q 430.19207 50.057445 430.156388 50.681894 
Q 430.120705 51.306344 430.013656 51.805903 
Q 429.906608 52.305463 429.621145 52.555242 
" clip-path="url(#pfdeef65e61)" style="fill: none; stroke: #000000; stroke-linejoin: miter"/>
   </g>
  </g>
  <g id="axes_28"/>
  <g id="axes_29">
   <g id="patch_24">
    <path d="M 466.956735 34.365306 
Q 466.956735 34.365306 466.460816 34.365306 
Q 465.667347 34.365306 464.179592 34.067755 
Q 462.691837 33.770204 461.898367 33.770204 
Q 459.121224 33.770204 457.187143 35.224898 
Q 455.253061 36.679592 455.253061 39.423673 
Q 455.253061 40.94449 456.740816 42.399184 
Q 458.228571 43.853878 460.162653 44.663878 
Q 462.096735 45.473878 463.58449 45.473878 
Q 464.510204 45.473878 465.20449 45.110204 
Q 465.898776 44.746531 466.642653 44.118367 
Q 467.386531 43.490204 467.948571 43.192653 
L 468.146939 42.696735 
" clip-path="url(#p8ab1393ba3)" style="fill: none; stroke: #000000; stroke-linejoin: miter"/>
   </g>
  </g>
  <g id="axes_30">
   <g id="patch_25">
    <path d="M 481.1616 35.032717 
Q 480.11189 34.582841 479.137159 34.69531 
Q 476.100497 35.032717 474.188524 36.701007 
Q 472.276552 38.369297 472.276552 41.330979 
Q 472.276552 43.917766 474.282248 45.6048 
Q 476.287945 47.291834 478.912221 47.291834 
Q 481.274069 47.291834 482.398759 45.361117 
Q 483.523448 43.4304 483.523448 40.881103 
Q 483.523448 39.643945 483.111062 38.706703 
Q 482.698676 37.769462 482.173821 37.300841 
Q 481.648966 36.832221 480.899172 36.119917 
Q 480.149379 35.407614 479.699503 34.69531 
L 478.462345 34.245434 
" clip-path="url(#pc6da2af09a)" style="fill: none; stroke: #000000; stroke-linejoin: miter"/>
   </g>
  </g>
  <g id="axes_31">
   <g id="patch_26">
    <path d="M 493.706359 28.621986 
Q 493.931297 30.34651 494.006276 32.146014 
Q 494.081255 33.945517 494.06251 36.551048 
Q 494.043766 39.156579 494.043766 40.093821 
Q 494.043766 40.13131 494.268703 45.829738 
L 494.493641 46.841959 
" clip-path="url(#p05fbeccfb2)" style="fill: none; stroke: #000000; stroke-linejoin: miter"/>
   </g>
  </g>
  <g id="axes_32">
   <g id="patch_27">
    <path d="M 513.5616 35.032717 
Q 512.51189 34.582841 511.537159 34.69531 
Q 508.500497 35.032717 506.588524 36.701007 
Q 504.676552 38.369297 504.676552 41.330979 
Q 504.676552 43.917766 506.682248 45.6048 
Q 508.687945 47.291834 511.312221 47.291834 
Q 513.674069 47.291834 514.798759 45.361117 
Q 515.923448 43.4304 515.923448 40.881103 
Q 515.923448 39.643945 515.511062 38.706703 
Q 515.098676 37.769462 514.573821 37.300841 
Q 514.048966 36.832221 513.299172 36.119917 
Q 512.549379 35.407614 512.099503 34.69531 
L 510.862345 34.245434 
" clip-path="url(#p5668271d0d)" style="fill: none; stroke: #000000; stroke-linejoin: miter"/>
   </g>
  </g>
  <g id="axes_33">
   <g id="patch_28">
    <path d="M 521.888772 35.145186 
Q 521.888772 35.145186 521.888772 35.595062 
Q 521.888772 36.269876 521.776303 37.619503 
Q 521.663834 38.969131 521.663834 39.643945 
Q 521.663834 41.930814 522.900993 43.599103 
Q 524.138152 45.267393 526.275062 45.267393 
Q 527.662179 45.154924 528.430717 43.917766 
Q 529.199255 42.680607 529.349214 41.237255 
Q 529.499172 39.793903 529.7616 37.9944 
Q 530.024028 36.194897 530.436414 35.370124 
Q 530.586372 35.070207 530.586372 35.670041 
Q 530.586372 36.269876 530.323945 38.706703 
Q 530.099007 41.031062 530.099007 41.555917 
Q 529.949048 42.643117 530.286455 43.767807 
Q 530.623862 44.892497 531.336166 45.6048 
" clip-path="url(#p85019ae3c7)" style="fill: none; stroke: #000000; stroke-linejoin: miter"/>
   </g>
  </g>
  <g id="axes_34">
   <g id="patch_29">
    <path d="M 539.213462 32.783338 
Q 539.738317 34.507862 539.869531 36.457324 
Q 540.000745 38.406786 539.925766 40.956083 
Q 539.850786 43.505379 539.888276 44.705048 
L 540.000745 46.054676 
L 540.000745 45.829738 
Q 540.000745 44.667559 539.719572 42.30571 
Q 539.4384 39.943862 539.4384 38.744193 
Q 539.4384 36.419834 540.450621 34.882759 
Q 541.462841 33.345683 543.487283 33.345683 
Q 544.199586 33.345683 544.536993 33.626855 
Q 544.8744 33.908028 545.136828 34.432883 
Q 545.399255 34.957738 545.736662 35.257655 
L 546.186538 36.832221 
" clip-path="url(#pda5c5c775f)" style="fill: none; stroke: #000000; stroke-linejoin: miter"/>
   </g>
  </g>
  <g id="axes_35">
   <g id="patch_30">
    <path d="M 552.657798 38.160826 
Q 555.630275 39.535596 560.349083 39.721376 
Q 561.872477 39.721376 562.559862 38.550963 
Q 563.247248 37.38055 563.247248 35.82 
Q 563.247248 35.299817 563.154358 34.909679 
Q 563.061468 34.519541 562.819954 34.296606 
Q 562.57844 34.07367 562.411239 33.943624 
Q 562.244037 33.813578 561.798165 33.757844 
Q 561.352294 33.70211 561.147936 33.683532 
Q 560.943578 33.664954 560.367661 33.683532 
Q 559.791743 33.70211 559.568807 33.70211 
Q 557.525229 33.70211 556.038991 35.578486 
Q 554.552752 37.454862 554.552752 39.609908 
Q 554.552752 42.619541 556.484862 44.570229 
Q 558.416972 46.520917 561.463761 46.520917 
Q 563.618807 46.818165 565.142202 44.29156 
" clip-path="url(#p2dd6f0e1e2)" style="fill: none; stroke: #000000; stroke-linejoin: miter"/>
   </g>
  </g>
  <g id="axes_36">
   <g id="patch_31">
    <path d="M 578.699007 39.568966 
Q 577.349379 38.181848 575.1 38.444276 
Q 572.250786 38.444276 571.088607 39.793903 
Q 569.926428 41.143531 569.926428 44.067724 
Q 569.926428 45.56731 571.219821 46.279614 
Q 572.513214 46.991917 574.087779 46.991917 
Q 575.399917 46.991917 576.412138 45.736014 
Q 577.424359 44.48011 578.005448 42.30571 
Q 578.586538 40.13131 578.961434 37.938166 
Q 579.336331 35.745021 579.48629 33.045766 
Q 579.636248 30.34651 579.673738 28.978138 
Q 579.711228 27.609766 579.711228 26.185159 
Q 579.48629 26.260138 579.48629 29.896634 
L 579.48629 44.292662 
L 580.273572 48.229076 
" clip-path="url(#p12df67a290)" style="fill: none; stroke: #000000; stroke-linejoin: miter"/>
   </g>
  </g>
  <g id="axes_37"/>
  <g id="axes_38">
   <g id="patch_32">
    <path d="M 612.756735 34.365306 
Q 612.756735 34.365306 612.260816 34.365306 
Q 611.467347 34.365306 609.979592 34.067755 
Q 608.491837 33.770204 607.698367 33.770204 
Q 604.921224 33.770204 602.987143 35.224898 
Q 601.053061 36.679592 601.053061 39.423673 
Q 601.053061 40.94449 602.540816 42.399184 
Q 604.028571 43.853878 605.962653 44.663878 
Q 607.896735 45.473878 609.38449 45.473878 
Q 610.310204 45.473878 611.00449 45.110204 
Q 611.698776 44.746531 612.442653 44.118367 
Q 613.186531 43.490204 613.748571 43.192653 
L 613.946939 42.696735 
" clip-path="url(#p7430e0fa6c)" style="fill: none; stroke: #000000; stroke-linejoin: miter"/>
   </g>
  </g>
  <g id="axes_39">
   <g id="patch_33">
    <path d="M 626.9616 35.032717 
Q 625.91189 34.582841 624.937159 34.69531 
Q 621.900497 35.032717 619.988524 36.701007 
Q 618.076552 38.369297 618.076552 41.330979 
Q 618.076552 43.917766 620.082248 45.6048 
Q 622.087945 47.291834 624.712221 47.291834 
Q 627.074069 47.291834 628.198759 45.361117 
Q 629.323448 43.4304 629.323448 40.881103 
Q 629.323448 39.643945 628.911062 38.706703 
Q 628.498676 37.769462 627.973821 37.300841 
Q 627.448966 36.832221 626.699172 36.119917 
Q 625.949379 35.407614 625.499503 34.69531 
L 624.262345 34.245434 
" clip-path="url(#pc8a99fe302)" style="fill: none; stroke: #000000; stroke-linejoin: miter"/>
   </g>
  </g>
  <g id="axes_40">
   <g id="patch_34">
    <path d="M 635.438731 37.282097 
L 635.438731 37.844441 
Q 635.701159 39.868883 635.738648 41.312234 
Q 635.776138 42.755586 635.682414 44.667559 
Q 635.58869 46.579531 635.58869 48.191586 
L 635.663669 39.643945 
Q 635.663669 38.144359 637.256979 37.507034 
Q 638.85029 36.86971 640.274897 37.282097 
Q 642.186869 37.844441 643.105366 39.04411 
Q 644.023862 40.243779 644.080097 41.668386 
Q 644.136331 43.092993 644.173821 44.817517 
Q 644.21131 46.542041 644.361269 48.191586 
" clip-path="url(#p09e6d2a14a)" style="fill: none; stroke: #000000; stroke-linejoin: miter"/>
   </g>
  </g>
  <g id="axes_41">
   <g id="patch_35">
    <path d="M 651.263834 37.95691 
L 651.938648 37.95691 
Q 652.650952 37.95691 653.438234 37.881931 
Q 654.225517 37.806952 655.181503 37.675738 
Q 656.13749 37.544524 656.662345 37.507034 
L 660.936166 35.82 
M 656.887283 30.42149 
L 656.887283 31.43371 
Q 656.887283 33.383172 656.212469 37.207117 
Q 655.537655 41.031062 655.537655 43.018014 
Q 655.537655 43.805297 655.537655 44.105214 
Q 655.537655 44.405131 655.631379 45.042455 
Q 655.725103 45.679779 655.912552 45.960952 
Q 656.1 46.242124 656.493641 46.485807 
Q 656.887283 46.72949 657.449628 46.72949 
Q 657.562097 46.692 657.880759 46.72949 
Q 658.199421 46.766979 658.386869 46.710745 
Q 658.574317 46.65451 658.574317 46.392083 
" clip-path="url(#p0cca7f4ffa)" style="fill: none; stroke: #000000; stroke-linejoin: miter"/>
   </g>
  </g>
  <g id="axes_42">
   <g id="patch_36">
    <path d="M 677.843923 36.441748 
Q 676.634968 35.094627 672.662687 35.094627 
Q 671.142857 35.094627 670.365672 35.146439 
Q 669.588486 35.198252 668.58678 35.440043 
Q 667.585075 35.681834 667.101493 36.182687 
Q 666.61791 36.683539 666.272495 37.616162 
Q 665.927079 38.548785 665.927079 39.964989 
Q 665.927079 42.037484 667.343284 43.280981 
Q 668.759488 44.524478 670.693817 44.524478 
Q 673.353518 44.524478 676.116844 38.721493 
Q 677.463966 35.854542 677.463966 35.82 
Q 677.809382 35.578209 677.843923 36.441748 
Q 677.843923 37.512537 678.258422 40.362217 
Q 678.672921 43.211898 678.672921 44.524478 
" clip-path="url(#p23e22a762a)" style="fill: none; stroke: #000000; stroke-linejoin: miter"/>
   </g>
  </g>
  <g id="axes_43">
   <g id="patch_37">
    <path d="M 689.118579 29.071862 
Q 688.743683 29.146841 688.612469 29.577972 
Q 688.481255 30.009103 688.556234 30.42149 
Q 688.556234 30.571448 688.593724 30.702662 
Q 688.631214 30.833876 688.687448 30.89011 
Q 688.743683 30.946345 688.799917 31.040069 
Q 688.856152 31.133793 688.893641 31.208772 
L 689.00611 29.859145 
M 689.00611 34.020497 
Q 688.106359 39.006621 687.881421 42.793076 
L 688.331297 45.379862 
L 688.668703 46.054676 
" clip-path="url(#pea88bb3921)" style="fill: none; stroke: #000000; stroke-linejoin: miter"/>
   </g>
  </g>
  <g id="axes_44">
   <g id="patch_38">
    <path d="M 700.238731 37.282097 
L 700.238731 37.844441 
Q 700.501159 39.868883 700.538648 41.312234 
Q 700.576138 42.755586 700.482414 44.667559 
Q 700.38869 46.579531 700.38869 48.191586 
L 700.463669 39.643945 
Q 700.463669 38.144359 702.056979 37.507034 
Q 703.65029 36.86971 705.074897 37.282097 
Q 706.986869 37.844441 707.905366 39.04411 
Q 708.823862 40.243779 708.880097 41.668386 
Q 708.936331 43.092993 708.973821 44.817517 
Q 709.01131 46.542041 709.161269 48.191586 
" clip-path="url(#pbdf8ea6a15)" style="fill: none; stroke: #000000; stroke-linejoin: miter"/>
   </g>
  </g>
  <g id="axes_45">
   <g id="patch_39">
    <path d="M 718.594386 35.595062 
L 723.205614 35.707531 
" clip-path="url(#p278da31268)" style="fill: none; stroke: #000000; stroke-linejoin: miter"/>
   </g>
  </g>
 </g>
 <defs>
  <clipPath id="p421fd77cb0">
   <rect x="0" y="10.777356" width="16.2" height="50.085288"/>
  </clipPath>
  <clipPath id="p1fe79ffc2e">
   <rect x="17.589352" y="8.64" width="13.421297" height="54.36"/>
  </clipPath>
  <clipPath id="p04d3736d6e">
   <rect x="48.6" y="10.777356" width="16.2" height="50.085288"/>
  </clipPath>
  <clipPath id="p8af586176a">
   <rect x="82.764248" y="8.64" width="12.671503" height="54.36"/>
  </clipPath>
  <clipPath id="p510b9a821d">
   <rect x="97.2" y="8.881927" width="16.2" height="53.876147"/>
  </clipPath>
  <clipPath id="pec0480387e">
   <rect x="113.4" y="10.777356" width="16.2" height="50.085288"/>
  </clipPath>
  <clipPath id="p5330697fba">
   <rect x="132.338979" y="8.64" width="10.722041" height="54.36"/>
  </clipPath>
  <clipPath id="p6784682592">
   <rect x="167.606938" y="8.64" width="4.986124" height="54.36"/>
  </clipPath>
  <clipPath id="p6429e82abc">
   <rect x="179.964248" y="8.64" width="12.671503" height="54.36"/>
  </clipPath>
  <clipPath id="pdfa96051c0">
   <rect x="194.4" y="9.949956" width="16.2" height="51.740088"/>
  </clipPath>
  <clipPath id="p823df8a5a7">
   <rect x="216.206938" y="8.64" width="4.986124" height="54.36"/>
  </clipPath>
  <clipPath id="p230a6cc7de">
   <rect x="228.564248" y="8.64" width="12.671503" height="54.36"/>
  </clipPath>
  <clipPath id="p8dcbd033c9">
   <rect x="248.606938" y="8.64" width="4.986124" height="54.36"/>
  </clipPath>
  <clipPath id="p1d6b2d526d">
   <rect x="260.589352" y="8.64" width="13.421297" height="54.36"/>
  </clipPath>
  <clipPath id="p97fc7fdc4c">
   <rect x="275.4" y="8.881927" width="16.2" height="53.876147"/>
  </clipPath>
  <clipPath id="pdb08addfce">
   <rect x="307.8" y="10.777356" width="16.2" height="50.085288"/>
  </clipPath>
  <clipPath id="pb1a5e30802">
   <rect x="326.738979" y="8.64" width="10.722041" height="54.36"/>
  </clipPath>
  <clipPath id="p5d76f87806">
   <rect x="342.938979" y="8.64" width="10.722041" height="54.36"/>
  </clipPath>
  <clipPath id="p92c4537b16">
   <rect x="356.4" y="10.777356" width="16.2" height="50.085288"/>
  </clipPath>
  <clipPath id="p7f4d5ecad9">
   <rect x="373.651945" y="8.64" width="14.09611" height="54.36"/>
  </clipPath>
  <clipPath id="p26cb38bc8d">
   <rect x="405.602069" y="8.64" width="14.995862" height="54.36"/>
  </clipPath>
  <clipPath id="pfdeef65e61">
   <rect x="421.2" y="9.949956" width="16.2" height="51.740088"/>
  </clipPath>
  <clipPath id="p8ab1393ba3">
   <rect x="453.6" y="11.850612" width="16.2" height="47.938776"/>
  </clipPath>
  <clipPath id="pc6da2af09a">
   <rect x="470.402069" y="8.64" width="14.995862" height="54.36"/>
  </clipPath>
  <clipPath id="p05fbeccfb2">
   <rect x="491.831876" y="8.64" width="4.536248" height="54.36"/>
  </clipPath>
  <clipPath id="p5668271d0d">
   <rect x="502.802069" y="8.64" width="14.995862" height="54.36"/>
  </clipPath>
  <clipPath id="p85019ae3c7">
   <rect x="519.789352" y="8.64" width="13.421297" height="54.36"/>
  </clipPath>
  <clipPath id="pda5c5c775f">
   <rect x="537.338979" y="8.64" width="10.722041" height="54.36"/>
  </clipPath>
  <clipPath id="p2dd6f0e1e2">
   <rect x="550.8" y="8.881927" width="16.2" height="53.876147"/>
  </clipPath>
  <clipPath id="p12df67a290">
   <rect x="568.051945" y="8.64" width="14.09611" height="54.36"/>
  </clipPath>
  <clipPath id="p7430e0fa6c">
   <rect x="599.4" y="11.850612" width="16.2" height="47.938776"/>
  </clipPath>
  <clipPath id="pc8a99fe302">
   <rect x="616.202069" y="8.64" width="14.995862" height="54.36"/>
  </clipPath>
  <clipPath id="p09e6d2a14a">
   <rect x="633.564248" y="8.64" width="12.671503" height="54.36"/>
  </clipPath>
  <clipPath id="p0cca7f4ffa">
   <rect x="649.389352" y="8.64" width="13.421297" height="54.36"/>
  </clipPath>
  <clipPath id="p23e22a762a">
   <rect x="664.2" y="10.777356" width="16.2" height="50.085288"/>
  </clipPath>
  <clipPath id="pea88bb3921">
   <rect x="686.006938" y="8.64" width="4.986124" height="54.36"/>
  </clipPath>
  <clipPath id="pbdf8ea6a15">
   <rect x="698.364248" y="8.64" width="12.671503" height="54.36"/>
  </clipPath>
  <clipPath id="p278da31268">
   <rect x="716.719903" y="8.64" width="8.360193" height="54.36"/>
  </clipPath>
 </defs>
</svg>
