<?xml version="1.0" encoding="utf-8" standalone="no"?>
<!DOCTYPE svg PUBLIC "-//W3C//DTD SVG 1.1//EN"
  "http://www.w3.org/Graphics/SVG/1.1/DTD/svg11.dtd">
<svg xmlns:xlink="http://www.w3.org/1999/xlink" width="756pt" height="72pt" viewBox="0 0 756 72" xmlns="http://www.w3.org/2000/svg" version="1.1">
 <metadata>
  <rdf:RDF xmlns:dc="http://purl.org/dc/elements/1.1/" xmlns:cc="http://creativecommons.org/ns#" xmlns:rdf="http://www.w3.org/1999/02/22-rdf-syntax-ns#">
   <cc:Work>
    <dc:type rdf:resource="http://purl.org/dc/dcmitype/StillImage"/>
    <dc:date>2024-01-04T18:45:26.492463</dc:date>
    <dc:format>image/svg+xml</dc:format>
    <dc:creator>
     <cc:Agent>
      <dc:title>Matplotlib v3.7.1, https://matplotlib.org/</dc:title>
     </cc:Agent>
    </dc:creator>
   </cc:Work>
  </rdf:RDF>
 </metadata>
 <defs>
  <style type="text/css">*{stroke-linejoin: round; stroke-linecap: butt}</style>
 </defs>
 <g id="figure_1">
  <g id="patch_1">
   <path d="M 0 72 
L 756 72 
L 756 0 
L 0 0 
z
" style="fill: #8fff9f"/>
  </g>
  <g id="axes_1">
   <g id="patch_2">
    <path d="M 3.488772 35.145186 
Q 3.488772 35.145186 3.488772 35.595062 
Q 3.488772 36.269876 3.376303 37.619503 
Q 3.263834 38.969131 3.263834 39.643945 
Q 3.263834 41.930814 4.500993 43.599103 
Q 5.738152 45.267393 7.875062 45.267393 
Q 9.262179 45.154924 10.030717 43.917766 
Q 10.799255 42.680607 10.949214 41.237255 
Q 11.099172 39.793903 11.3616 37.9944 
Q 11.624028 36.194897 12.036414 35.370124 
Q 12.186372 35.070207 12.186372 35.670041 
Q 12.186372 36.269876 11.923945 38.706703 
Q 11.699007 41.031062 11.699007 41.555917 
Q 11.549048 42.643117 11.886455 43.767807 
Q 12.223862 44.892497 12.936166 45.6048 
" clip-path="url(#pf0b877bf7e)" style="fill: none; stroke: #000000; stroke-linejoin: miter"/>
   </g>
  </g>
  <g id="axes_2">
   <g id="patch_3">
    <path d="M 19.857476 43.917766 
Q 20.157393 44.180193 21.169614 45.154924 
Q 22.181834 46.129655 22.744179 46.560786 
Q 23.306524 46.991917 24.33749 47.385559 
Q 25.368455 47.7792 26.380676 47.629241 
Q 27.05549 47.629241 27.52411 47.404303 
Q 27.992731 47.179366 28.217669 46.879448 
Q 28.442607 46.579531 28.573821 45.979697 
Q 28.705034 45.379862 28.723779 44.967476 
Q 28.742524 44.55509 28.742524 43.805297 
Q 28.742524 42.718097 27.842772 42.043283 
Q 26.943021 41.368469 25.649628 41.031062 
Q 24.356234 40.693655 23.062841 40.300014 
Q 21.769448 39.906372 20.869697 38.987876 
Q 19.969945 38.069379 19.969945 36.607283 
Q 19.969945 36.082428 20.138648 35.726276 
Q 20.307352 35.370124 20.700993 35.145186 
Q 21.094634 34.920248 21.375807 34.807779 
Q 21.656979 34.69531 22.313048 34.639076 
Q 22.969117 34.582841 23.156566 34.582841 
Q 23.344014 34.582841 24.018828 34.582841 
Q 25.218497 34.582841 25.799586 34.995228 
Q 26.380676 35.407614 26.699338 36.026193 
Q 27.018 36.644772 27.280428 36.832221 
" clip-path="url(#p9f706188c6)" style="fill: none; stroke: #000000; stroke-linejoin: miter"/>
   </g>
  </g>
  <g id="axes_3"/>
  <g id="axes_4">
   <g id="patch_4">
    <path d="M 51.920069 39.868883 
L 51.920069 39.419007 
Q 51.920069 37.769462 53.663338 36.682262 
Q 55.406607 35.595062 57.093641 35.595062 
Q 59.305531 35.595062 60.673903 36.794731 
Q 62.042276 37.9944 62.042276 40.20629 
Q 62.042276 42.30571 60.224028 43.336676 
Q 58.405779 44.367641 56.19389 44.367641 
Q 55.519076 44.367641 55.012966 44.255172 
Q 54.506855 44.142703 53.888276 43.917766 
Q 53.269697 43.692828 52.819821 43.580359 
L 51.695131 42.568138 
M 51.357724 36.832221 
Q 51.8076 38.444276 52.070028 40.262524 
Q 52.332455 42.080772 52.38869 43.749062 
Q 52.444924 45.417352 52.482414 47.27309 
Q 52.519903 49.128828 52.482414 50.778372 
L 52.369945 57.863917 
" clip-path="url(#p8bf836f5cd)" style="fill: none; stroke: #000000; stroke-linejoin: miter"/>
   </g>
  </g>
  <g id="axes_5">
   <g id="patch_5">
    <path d="M 66.657798 38.160826 
Q 69.630275 39.535596 74.349083 39.721376 
Q 75.872477 39.721376 76.559862 38.550963 
Q 77.247248 37.38055 77.247248 35.82 
Q 77.247248 35.299817 77.154358 34.909679 
Q 77.061468 34.519541 76.819954 34.296606 
Q 76.57844 34.07367 76.411239 33.943624 
Q 76.244037 33.813578 75.798165 33.757844 
Q 75.352294 33.70211 75.147936 33.683532 
Q 74.943578 33.664954 74.367661 33.683532 
Q 73.791743 33.70211 73.568807 33.70211 
Q 71.525229 33.70211 70.038991 35.578486 
Q 68.552752 37.454862 68.552752 39.609908 
Q 68.552752 42.619541 70.484862 44.570229 
Q 72.416972 46.520917 75.463761 46.520917 
Q 77.618807 46.818165 79.142202 44.29156 
" clip-path="url(#pf9769a015c)" style="fill: none; stroke: #000000; stroke-linejoin: miter"/>
   </g>
  </g>
  <g id="axes_6">
   <g id="patch_6">
    <path d="M 85.613462 32.783338 
Q 86.138317 34.507862 86.269531 36.457324 
Q 86.400745 38.406786 86.325766 40.956083 
Q 86.250786 43.505379 86.288276 44.705048 
L 86.400745 46.054676 
L 86.400745 45.829738 
Q 86.400745 44.667559 86.119572 42.30571 
Q 85.8384 39.943862 85.8384 38.744193 
Q 85.8384 36.419834 86.850621 34.882759 
Q 87.862841 33.345683 89.887283 33.345683 
Q 90.599586 33.345683 90.936993 33.626855 
Q 91.2744 33.908028 91.536828 34.432883 
Q 91.799255 34.957738 92.136662 35.257655 
L 92.586538 36.832221 
" clip-path="url(#p969de2c944)" style="fill: none; stroke: #000000; stroke-linejoin: miter"/>
   </g>
  </g>
  <g id="axes_7">
   <g id="patch_7">
    <path d="M 100.688772 35.145186 
Q 100.688772 35.145186 100.688772 35.595062 
Q 100.688772 36.269876 100.576303 37.619503 
Q 100.463834 38.969131 100.463834 39.643945 
Q 100.463834 41.930814 101.700993 43.599103 
Q 102.938152 45.267393 105.075062 45.267393 
Q 106.462179 45.154924 107.230717 43.917766 
Q 107.999255 42.680607 108.149214 41.237255 
Q 108.299172 39.793903 108.5616 37.9944 
Q 108.824028 36.194897 109.236414 35.370124 
Q 109.386372 35.070207 109.386372 35.670041 
Q 109.386372 36.269876 109.123945 38.706703 
Q 108.899007 41.031062 108.899007 41.555917 
Q 108.749048 42.643117 109.086455 43.767807 
Q 109.423862 44.892497 110.136166 45.6048 
" clip-path="url(#pc0e4cc4c9d)" style="fill: none; stroke: #000000; stroke-linejoin: miter"/>
   </g>
  </g>
  <g id="axes_8">
   <g id="patch_8">
    <path d="M 117.057476 43.917766 
Q 117.357393 44.180193 118.369614 45.154924 
Q 119.381834 46.129655 119.944179 46.560786 
Q 120.506524 46.991917 121.53749 47.385559 
Q 122.568455 47.7792 123.580676 47.629241 
Q 124.25549 47.629241 124.72411 47.404303 
Q 125.192731 47.179366 125.417669 46.879448 
Q 125.642607 46.579531 125.773821 45.979697 
Q 125.905034 45.379862 125.923779 44.967476 
Q 125.942524 44.55509 125.942524 43.805297 
Q 125.942524 42.718097 125.042772 42.043283 
Q 124.143021 41.368469 122.849628 41.031062 
Q 121.556234 40.693655 120.262841 40.300014 
Q 118.969448 39.906372 118.069697 38.987876 
Q 117.169945 38.069379 117.169945 36.607283 
Q 117.169945 36.082428 117.338648 35.726276 
Q 117.507352 35.370124 117.900993 35.145186 
Q 118.294634 34.920248 118.575807 34.807779 
Q 118.856979 34.69531 119.513048 34.639076 
Q 120.169117 34.582841 120.356566 34.582841 
Q 120.544014 34.582841 121.218828 34.582841 
Q 122.418497 34.582841 122.999586 34.995228 
Q 123.580676 35.407614 123.899338 36.026193 
Q 124.218 36.644772 124.480428 36.832221 
" clip-path="url(#p550bc305a8)" style="fill: none; stroke: #000000; stroke-linejoin: miter"/>
   </g>
  </g>
  <g id="axes_9">
   <g id="patch_9">
    <path d="M 131.457798 38.160826 
Q 134.430275 39.535596 139.149083 39.721376 
Q 140.672477 39.721376 141.359862 38.550963 
Q 142.047248 37.38055 142.047248 35.82 
Q 142.047248 35.299817 141.954358 34.909679 
Q 141.861468 34.519541 141.619954 34.296606 
Q 141.37844 34.07367 141.211239 33.943624 
Q 141.044037 33.813578 140.598165 33.757844 
Q 140.152294 33.70211 139.947936 33.683532 
Q 139.743578 33.664954 139.167661 33.683532 
Q 138.591743 33.70211 138.368807 33.70211 
Q 136.325229 33.70211 134.838991 35.578486 
Q 133.352752 37.454862 133.352752 39.609908 
Q 133.352752 42.619541 135.284862 44.570229 
Q 137.216972 46.520917 140.263761 46.520917 
Q 142.418807 46.818165 143.942202 44.29156 
" clip-path="url(#p15ae9eaf4b)" style="fill: none; stroke: #000000; stroke-linejoin: miter"/>
   </g>
  </g>
  <g id="axes_10"/>
  <g id="axes_11">
   <g id="patch_10">
    <path d="M 163.716102 36.437797 
L 164.951695 44.778051 
Q 165.054661 45.567458 165.054661 45.60178 
Q 165.054661 45.704746 165.363559 45.704746 
Q 166.22161 45.704746 166.942373 44.778051 
Q 167.663136 43.851356 168.075 42.718729 
Q 168.486864 41.586102 169.001695 40.659407 
Q 169.516525 39.732712 169.997034 39.732712 
Q 170.614831 39.732712 171.249788 40.607924 
Q 171.884746 41.483136 172.348093 42.512797 
Q 172.811441 43.542458 173.48072 44.417669 
Q 174.15 45.292881 174.836441 45.292881 
Q 175.111017 43.782712 175.540042 39.69839 
Q 175.969068 35.614068 176.483898 33.554746 
" clip-path="url(#p4ee32fc68f)" style="fill: none; stroke: #000000; stroke-linejoin: miter"/>
   </g>
  </g>
  <g id="axes_12">
   <g id="patch_11">
    <path d="M 182.813462 35.932469 
Q 183.413297 35.257655 184.406772 34.826524 
Q 185.400248 34.395393 186.3 34.470372 
Q 186.937324 34.470372 187.42469 34.639076 
Q 187.912055 34.807779 188.230717 34.995228 
Q 188.549379 35.182676 188.774317 35.670041 
Q 188.999255 36.157407 189.111724 36.419834 
Q 189.224193 36.682262 189.280428 37.375821 
Q 189.336662 38.069379 189.355407 38.331807 
Q 189.374152 38.594234 189.355407 39.419007 
Q 189.336662 40.243779 189.336662 40.431228 
Q 189.336662 41.368469 189.167959 43.242952 
Q 188.999255 45.117434 188.999255 46.054676 
Q 188.999255 46.467062 189.05549 46.823214 
Q 189.111724 47.179366 189.205448 47.610497 
Q 189.299172 48.041628 189.336662 48.304055 
L 189.786538 48.528993 
M 183.263338 23.111007 
Q 183.488276 24.798041 183.488276 29.971614 
L 183.488276 42.3432 
L 183.150869 46.841959 
L 182.925931 47.74171 
" clip-path="url(#p0039f5a001)" style="fill: none; stroke: #000000; stroke-linejoin: miter"/>
   </g>
  </g>
  <g id="axes_13">
   <g id="patch_12">
    <path d="M 208.043923 36.441748 
Q 206.834968 35.094627 202.862687 35.094627 
Q 201.342857 35.094627 200.565672 35.146439 
Q 199.788486 35.198252 198.78678 35.440043 
Q 197.785075 35.681834 197.301493 36.182687 
Q 196.81791 36.683539 196.472495 37.616162 
Q 196.127079 38.548785 196.127079 39.964989 
Q 196.127079 42.037484 197.543284 43.280981 
Q 198.959488 44.524478 200.893817 44.524478 
Q 203.553518 44.524478 206.316844 38.721493 
Q 207.663966 35.854542 207.663966 35.82 
Q 208.009382 35.578209 208.043923 36.441748 
Q 208.043923 37.512537 208.458422 40.362217 
Q 208.872921 43.211898 208.872921 44.524478 
" clip-path="url(#pee1fa37608)" style="fill: none; stroke: #000000; stroke-linejoin: miter"/>
   </g>
  </g>
  <g id="axes_14">
   <g id="patch_13">
    <path d="M 213.863834 37.95691 
L 214.538648 37.95691 
Q 215.250952 37.95691 216.038234 37.881931 
Q 216.825517 37.806952 217.781503 37.675738 
Q 218.73749 37.544524 219.262345 37.507034 
L 223.536166 35.82 
M 219.487283 30.42149 
L 219.487283 31.43371 
Q 219.487283 33.383172 218.812469 37.207117 
Q 218.137655 41.031062 218.137655 43.018014 
Q 218.137655 43.805297 218.137655 44.105214 
Q 218.137655 44.405131 218.231379 45.042455 
Q 218.325103 45.679779 218.512552 45.960952 
Q 218.7 46.242124 219.093641 46.485807 
Q 219.487283 46.72949 220.049628 46.72949 
Q 220.162097 46.692 220.480759 46.72949 
Q 220.799421 46.766979 220.986869 46.710745 
Q 221.174317 46.65451 221.174317 46.392083 
" clip-path="url(#pd242809cf5)" style="fill: none; stroke: #000000; stroke-linejoin: miter"/>
   </g>
  </g>
  <g id="axes_15"/>
  <g id="axes_16">
   <g id="patch_14">
    <path d="M 246.657476 43.917766 
Q 246.957393 44.180193 247.969614 45.154924 
Q 248.981834 46.129655 249.544179 46.560786 
Q 250.106524 46.991917 251.13749 47.385559 
Q 252.168455 47.7792 253.180676 47.629241 
Q 253.85549 47.629241 254.32411 47.404303 
Q 254.792731 47.179366 255.017669 46.879448 
Q 255.242607 46.579531 255.373821 45.979697 
Q 255.505034 45.379862 255.523779 44.967476 
Q 255.542524 44.55509 255.542524 43.805297 
Q 255.542524 42.718097 254.642772 42.043283 
Q 253.743021 41.368469 252.449628 41.031062 
Q 251.156234 40.693655 249.862841 40.300014 
Q 248.569448 39.906372 247.669697 38.987876 
Q 246.769945 38.069379 246.769945 36.607283 
Q 246.769945 36.082428 246.938648 35.726276 
Q 247.107352 35.370124 247.500993 35.145186 
Q 247.894634 34.920248 248.175807 34.807779 
Q 248.456979 34.69531 249.113048 34.639076 
Q 249.769117 34.582841 249.956566 34.582841 
Q 250.144014 34.582841 250.818828 34.582841 
Q 252.018497 34.582841 252.599586 34.995228 
Q 253.180676 35.407614 253.499338 36.026193 
Q 253.818 36.644772 254.080428 36.832221 
" clip-path="url(#pc3c4714825)" style="fill: none; stroke: #000000; stroke-linejoin: miter"/>
   </g>
  </g>
  <g id="axes_17">
   <g id="patch_15">
    <path d="M 262.463834 37.95691 
L 263.138648 37.95691 
Q 263.850952 37.95691 264.638234 37.881931 
Q 265.425517 37.806952 266.381503 37.675738 
Q 267.33749 37.544524 267.862345 37.507034 
L 272.136166 35.82 
M 268.087283 30.42149 
L 268.087283 31.43371 
Q 268.087283 33.383172 267.412469 37.207117 
Q 266.737655 41.031062 266.737655 43.018014 
Q 266.737655 43.805297 266.737655 44.105214 
Q 266.737655 44.405131 266.831379 45.042455 
Q 266.925103 45.679779 267.112552 45.960952 
Q 267.3 46.242124 267.693641 46.485807 
Q 268.087283 46.72949 268.649628 46.72949 
Q 268.762097 46.692 269.080759 46.72949 
Q 269.399421 46.766979 269.586869 46.710745 
Q 269.774317 46.65451 269.774317 46.392083 
" clip-path="url(#p4313842525)" style="fill: none; stroke: #000000; stroke-linejoin: miter"/>
   </g>
  </g>
  <g id="axes_18">
   <g id="patch_16">
    <path d="M 286.7616 35.032717 
Q 285.71189 34.582841 284.737159 34.69531 
Q 281.700497 35.032717 279.788524 36.701007 
Q 277.876552 38.369297 277.876552 41.330979 
Q 277.876552 43.917766 279.882248 45.6048 
Q 281.887945 47.291834 284.512221 47.291834 
Q 286.874069 47.291834 287.998759 45.361117 
Q 289.123448 43.4304 289.123448 40.881103 
Q 289.123448 39.643945 288.711062 38.706703 
Q 288.298676 37.769462 287.773821 37.300841 
Q 287.248966 36.832221 286.499172 36.119917 
Q 285.749379 35.407614 285.299503 34.69531 
L 284.062345 34.245434 
" clip-path="url(#p6f98083373)" style="fill: none; stroke: #000000; stroke-linejoin: miter"/>
   </g>
  </g>
  <g id="axes_19">
   <g id="patch_17">
    <path d="M 304.956735 34.365306 
Q 304.956735 34.365306 304.460816 34.365306 
Q 303.667347 34.365306 302.179592 34.067755 
Q 300.691837 33.770204 299.898367 33.770204 
Q 297.121224 33.770204 295.187143 35.224898 
Q 293.253061 36.679592 293.253061 39.423673 
Q 293.253061 40.94449 294.740816 42.399184 
Q 296.228571 43.853878 298.162653 44.663878 
Q 300.096735 45.473878 301.58449 45.473878 
Q 302.510204 45.473878 303.20449 45.110204 
Q 303.898776 44.746531 304.642653 44.118367 
Q 305.386531 43.490204 305.948571 43.192653 
L 306.146939 42.696735 
" clip-path="url(#p0ddfc4e598)" style="fill: none; stroke: #000000; stroke-linejoin: miter"/>
   </g>
  </g>
  <g id="axes_20">
   <g id="patch_18">
    <path d="M 313.931793 37.169628 
Q 315.956234 39.194069 317.718248 41.76211 
Q 319.480262 44.330152 320.342524 46.72949 
M 316.968455 31.321241 
L 316.968455 31.546179 
Q 316.968455 32.333462 316.331131 33.514386 
Q 315.693807 34.69531 314.719076 36.101172 
Q 313.744345 37.507034 313.481917 37.95691 
L 312.244759 39.643945 
M 311.457476 26.710014 
Q 313.294469 36.269876 313.481917 48.641462 
" clip-path="url(#p450b5ab6c4)" style="fill: none; stroke: #000000; stroke-linejoin: miter"/>
   </g>
  </g>
  <g id="axes_21"/>
  <g id="axes_22">
   <g id="patch_19">
    <path d="M 342.008036 34.879821 
Q 342.514286 36.073125 342.803571 42.871339 
Q 342.948214 46.632054 343.2375 46.632054 
Q 343.273661 46.632054 343.309821 46.595893 
Q 343.816071 46.017321 343.870312 44.588973 
Q 343.924554 43.160625 343.707589 41.750357 
Q 343.490625 40.340089 343.2375 38.712857 
Q 342.984375 37.085625 342.984375 36.398571 
Q 342.984375 35.169107 343.364062 33.939643 
Q 343.74375 32.710179 344.720089 32.710179 
Q 345.949554 32.710179 346.672768 34.355491 
Q 347.395982 36.000804 347.558705 37.971562 
Q 347.721429 39.942321 347.829911 41.587634 
Q 347.938393 43.232946 348.083036 43.232946 
Q 348.227679 43.232946 348.31808 41.497232 
Q 348.408482 39.761518 348.535045 37.700357 
Q 348.661607 35.639196 349.384821 33.903482 
Q 350.108036 32.167768 351.3375 32.167768 
Q 352.892411 33.035625 353.561384 34.771339 
Q 354.230357 36.507054 354.194196 38.188527 
Q 354.158036 39.87 354.176116 42.057723 
Q 354.194196 44.245446 354.591964 45.511071 
" clip-path="url(#paa8650566a)" style="fill: none; stroke: #000000; stroke-linejoin: miter"/>
   </g>
  </g>
  <g id="axes_23">
   <g id="patch_20">
    <path d="M 370.043923 36.441748 
Q 368.834968 35.094627 364.862687 35.094627 
Q 363.342857 35.094627 362.565672 35.146439 
Q 361.788486 35.198252 360.78678 35.440043 
Q 359.785075 35.681834 359.301493 36.182687 
Q 358.81791 36.683539 358.472495 37.616162 
Q 358.127079 38.548785 358.127079 39.964989 
Q 358.127079 42.037484 359.543284 43.280981 
Q 360.959488 44.524478 362.893817 44.524478 
Q 365.553518 44.524478 368.316844 38.721493 
Q 369.663966 35.854542 369.663966 35.82 
Q 370.009382 35.578209 370.043923 36.441748 
Q 370.043923 37.512537 370.458422 40.362217 
Q 370.872921 43.211898 370.872921 44.524478 
" clip-path="url(#pb9d8239627)" style="fill: none; stroke: #000000; stroke-linejoin: miter"/>
   </g>
  </g>
  <g id="axes_24">
   <g id="patch_21">
    <path d="M 375.563917 36.382345 
Q 375.526428 36.494814 375.657641 36.701007 
Q 375.788855 36.9072 375.676386 37.057159 
L 375.676386 39.306538 
Q 375.676386 40.506207 376.013793 41.724621 
Q 376.3512 42.943034 377.213462 43.93651 
Q 378.075724 44.929986 379.275393 44.929986 
Q 380.512552 44.929986 381.187366 43.861531 
Q 381.862179 42.793076 382.312055 41.143531 
Q 382.761931 39.493986 383.099338 38.969131 
L 383.886621 36.382345 
L 383.661683 42.680607 
L 383.661683 45.154924 
Q 383.661683 47.066897 384.392731 51.00331 
Q 385.123779 54.939724 385.123779 56.964166 
Q 385.873572 59.213545 384.786372 60.188276 
Q 383.699172 61.163007 381.637241 60.78811 
Q 379.837738 60.488193 378.919241 60.169531 
Q 378.000745 59.850869 376.013793 58.988607 
L 375.901324 58.426262 
" clip-path="url(#pb9fc7443e3)" style="fill: none; stroke: #000000; stroke-linejoin: miter"/>
   </g>
  </g>
  <g id="axes_25"/>
  <g id="axes_26">
   <g id="patch_22">
    <path d="M 409.557228 37.244607 
Q 410.606938 37.207117 410.794386 37.132138 
Q 414.205945 37.132138 415.986703 39.212814 
Q 417.767462 41.29349 417.767462 44.780028 
Q 417.767462 47.704221 413.156234 47.704221 
Q 412.51891 47.704221 411.97531 47.591752 
Q 411.43171 47.479283 410.794386 47.254345 
Q 410.157062 47.029407 409.669697 46.916938 
L 408.432538 45.679779 
M 409.444759 25.435366 
L 409.444759 26.560055 
Q 409.444759 29.409269 409.557228 33.008276 
Q 409.669697 36.607283 409.857145 40.899848 
Q 410.044593 45.192414 410.119572 47.141876 
" clip-path="url(#p8b0d8c15ab)" style="fill: none; stroke: #000000; stroke-linejoin: miter"/>
   </g>
  </g>
  <g id="axes_27">
   <g id="patch_23">
    <path d="M 423.057798 38.160826 
Q 426.030275 39.535596 430.749083 39.721376 
Q 432.272477 39.721376 432.959862 38.550963 
Q 433.647248 37.38055 433.647248 35.82 
Q 433.647248 35.299817 433.554358 34.909679 
Q 433.461468 34.519541 433.219954 34.296606 
Q 432.97844 34.07367 432.811239 33.943624 
Q 432.644037 33.813578 432.198165 33.757844 
Q 431.752294 33.70211 431.547936 33.683532 
Q 431.343578 33.664954 430.767661 33.683532 
Q 430.191743 33.70211 429.968807 33.70211 
Q 427.925229 33.70211 426.438991 35.578486 
Q 424.952752 37.454862 424.952752 39.609908 
Q 424.952752 42.619541 426.884862 44.570229 
Q 428.816972 46.520917 431.863761 46.520917 
Q 434.018807 46.818165 435.542202 44.29156 
" clip-path="url(#p5e7c356435)" style="fill: none; stroke: #000000; stroke-linejoin: miter"/>
   </g>
  </g>
  <g id="axes_28"/>
  <g id="axes_29">
   <g id="patch_24">
    <path d="M 456.863834 37.95691 
L 457.538648 37.95691 
Q 458.250952 37.95691 459.038234 37.881931 
Q 459.825517 37.806952 460.781503 37.675738 
Q 461.73749 37.544524 462.262345 37.507034 
L 466.536166 35.82 
M 462.487283 30.42149 
L 462.487283 31.43371 
Q 462.487283 33.383172 461.812469 37.207117 
Q 461.137655 41.031062 461.137655 43.018014 
Q 461.137655 43.805297 461.137655 44.105214 
Q 461.137655 44.405131 461.231379 45.042455 
Q 461.325103 45.679779 461.512552 45.960952 
Q 461.7 46.242124 462.093641 46.485807 
Q 462.487283 46.72949 463.049628 46.72949 
Q 463.162097 46.692 463.480759 46.72949 
Q 463.799421 46.766979 463.986869 46.710745 
Q 464.174317 46.65451 464.174317 46.392083 
" clip-path="url(#peb08e5d90e)" style="fill: none; stroke: #000000; stroke-linejoin: miter"/>
   </g>
  </g>
  <g id="axes_30">
   <g id="patch_25">
    <path d="M 481.1616 35.032717 
Q 480.11189 34.582841 479.137159 34.69531 
Q 476.100497 35.032717 474.188524 36.701007 
Q 472.276552 38.369297 472.276552 41.330979 
Q 472.276552 43.917766 474.282248 45.6048 
Q 476.287945 47.291834 478.912221 47.291834 
Q 481.274069 47.291834 482.398759 45.361117 
Q 483.523448 43.4304 483.523448 40.881103 
Q 483.523448 39.643945 483.111062 38.706703 
Q 482.698676 37.769462 482.173821 37.300841 
Q 481.648966 36.832221 480.899172 36.119917 
Q 480.149379 35.407614 479.699503 34.69531 
L 478.462345 34.245434 
" clip-path="url(#pa566f905ba)" style="fill: none; stroke: #000000; stroke-linejoin: miter"/>
   </g>
  </g>
  <g id="axes_31"/>
  <g id="axes_32">
   <g id="patch_26">
    <path d="M 513.5616 35.032717 
Q 512.51189 34.582841 511.537159 34.69531 
Q 508.500497 35.032717 506.588524 36.701007 
Q 504.676552 38.369297 504.676552 41.330979 
Q 504.676552 43.917766 506.682248 45.6048 
Q 508.687945 47.291834 511.312221 47.291834 
Q 513.674069 47.291834 514.798759 45.361117 
Q 515.923448 43.4304 515.923448 40.881103 
Q 515.923448 39.643945 515.511062 38.706703 
Q 515.098676 37.769462 514.573821 37.300841 
Q 514.048966 36.832221 513.299172 36.119917 
Q 512.549379 35.407614 512.099503 34.69531 
L 510.862345 34.245434 
" clip-path="url(#p4aa6f9f277)" style="fill: none; stroke: #000000; stroke-linejoin: miter"/>
   </g>
  </g>
  <g id="axes_33">
   <g id="patch_27">
    <path d="M 521.888772 35.145186 
Q 521.888772 35.145186 521.888772 35.595062 
Q 521.888772 36.269876 521.776303 37.619503 
Q 521.663834 38.969131 521.663834 39.643945 
Q 521.663834 41.930814 522.900993 43.599103 
Q 524.138152 45.267393 526.275062 45.267393 
Q 527.662179 45.154924 528.430717 43.917766 
Q 529.199255 42.680607 529.349214 41.237255 
Q 529.499172 39.793903 529.7616 37.9944 
Q 530.024028 36.194897 530.436414 35.370124 
Q 530.586372 35.070207 530.586372 35.670041 
Q 530.586372 36.269876 530.323945 38.706703 
Q 530.099007 41.031062 530.099007 41.555917 
Q 529.949048 42.643117 530.286455 43.767807 
Q 530.623862 44.892497 531.336166 45.6048 
" clip-path="url(#p860fef0890)" style="fill: none; stroke: #000000; stroke-linejoin: miter"/>
   </g>
  </g>
  <g id="axes_34">
   <g id="patch_28">
    <path d="M 539.213462 32.783338 
Q 539.738317 34.507862 539.869531 36.457324 
Q 540.000745 38.406786 539.925766 40.956083 
Q 539.850786 43.505379 539.888276 44.705048 
L 540.000745 46.054676 
L 540.000745 45.829738 
Q 540.000745 44.667559 539.719572 42.30571 
Q 539.4384 39.943862 539.4384 38.744193 
Q 539.4384 36.419834 540.450621 34.882759 
Q 541.462841 33.345683 543.487283 33.345683 
Q 544.199586 33.345683 544.536993 33.626855 
Q 544.8744 33.908028 545.136828 34.432883 
Q 545.399255 34.957738 545.736662 35.257655 
L 546.186538 36.832221 
" clip-path="url(#p6b2370be36)" style="fill: none; stroke: #000000; stroke-linejoin: miter"/>
   </g>
  </g>
  <g id="axes_35"/>
  <g id="axes_36">
   <g id="patch_29">
    <path d="M 580.643923 36.441748 
Q 579.434968 35.094627 575.462687 35.094627 
Q 573.942857 35.094627 573.165672 35.146439 
Q 572.388486 35.198252 571.38678 35.440043 
Q 570.385075 35.681834 569.901493 36.182687 
Q 569.41791 36.683539 569.072495 37.616162 
Q 568.727079 38.548785 568.727079 39.964989 
Q 568.727079 42.037484 570.143284 43.280981 
Q 571.559488 44.524478 573.493817 44.524478 
Q 576.153518 44.524478 578.916844 38.721493 
Q 580.263966 35.854542 580.263966 35.82 
Q 580.609382 35.578209 580.643923 36.441748 
Q 580.643923 37.512537 581.058422 40.362217 
Q 581.472921 43.211898 581.472921 44.524478 
" clip-path="url(#p8f150aa0dc)" style="fill: none; stroke: #000000; stroke-linejoin: miter"/>
   </g>
  </g>
  <g id="axes_37">
   <g id="patch_30">
    <path d="M 587.026179 34.807779 
Q 588.638234 36.719752 589.931628 39.6252 
Q 591.225021 42.530648 591.524938 45.154924 
Q 592.574648 43.655338 593.493145 38.819172 
Q 594.411641 33.983007 595.573821 32.108524 
" clip-path="url(#pd75c332807)" style="fill: none; stroke: #000000; stroke-linejoin: miter"/>
   </g>
  </g>
  <g id="axes_38">
   <g id="patch_31">
    <path d="M 613.043923 36.441748 
Q 611.834968 35.094627 607.862687 35.094627 
Q 606.342857 35.094627 605.565672 35.146439 
Q 604.788486 35.198252 603.78678 35.440043 
Q 602.785075 35.681834 602.301493 36.182687 
Q 601.81791 36.683539 601.472495 37.616162 
Q 601.127079 38.548785 601.127079 39.964989 
Q 601.127079 42.037484 602.543284 43.280981 
Q 603.959488 44.524478 605.893817 44.524478 
Q 608.553518 44.524478 611.316844 38.721493 
Q 612.663966 35.854542 612.663966 35.82 
Q 613.009382 35.578209 613.043923 36.441748 
Q 613.043923 37.512537 613.458422 40.362217 
Q 613.872921 43.211898 613.872921 44.524478 
" clip-path="url(#pd2fa1e418c)" style="fill: none; stroke: #000000; stroke-linejoin: miter"/>
   </g>
  </g>
  <g id="axes_39">
   <g id="patch_32">
    <path d="M 624.318579 29.071862 
Q 623.943683 29.146841 623.812469 29.577972 
Q 623.681255 30.009103 623.756234 30.42149 
Q 623.756234 30.571448 623.793724 30.702662 
Q 623.831214 30.833876 623.887448 30.89011 
Q 623.943683 30.946345 623.999917 31.040069 
Q 624.056152 31.133793 624.093641 31.208772 
L 624.20611 29.859145 
M 624.20611 34.020497 
Q 623.306359 39.006621 623.081421 42.793076 
L 623.531297 45.379862 
L 623.868703 46.054676 
" clip-path="url(#pd75e4469f5)" style="fill: none; stroke: #000000; stroke-linejoin: miter"/>
   </g>
  </g>
  <g id="axes_40">
   <g id="patch_33">
    <path d="M 639.506359 28.621986 
Q 639.731297 30.34651 639.806276 32.146014 
Q 639.881255 33.945517 639.86251 36.551048 
Q 639.843766 39.156579 639.843766 40.093821 
Q 639.843766 40.13131 640.068703 45.829738 
L 640.293641 46.841959 
" clip-path="url(#pe5066a3c7e)" style="fill: none; stroke: #000000; stroke-linejoin: miter"/>
   </g>
  </g>
  <g id="axes_41">
   <g id="patch_34">
    <path d="M 655.987531 45.979697 
Q 655.950041 46.017186 655.818828 46.054676 
Q 655.687614 46.092166 655.725103 46.167145 
Q 655.725103 46.579531 656.1 46.579531 
Q 656.437407 46.579531 656.437407 46.092166 
Q 656.512386 45.867228 656.231214 45.754759 
Q 655.950041 45.64229 655.762593 45.754759 
" clip-path="url(#p3fa548552a)" style="fill: none; stroke: #000000; stroke-linejoin: miter"/>
   </g>
  </g>
  <g id="axes_42">
   <g id="patch_35">
    <path d="M 672.824855 27.009931 
Q 672.899834 27.347338 672.974814 28.265834 
Q 673.049793 29.184331 673.199752 29.634207 
L 673.124772 31.058814 
M 671.475228 27.309848 
Q 671.437738 27.309848 671.400248 27.534786 
Q 671.437738 27.684745 671.550207 28.828179 
Q 671.662676 29.971614 671.925103 30.533959 
" clip-path="url(#p6da7f3f699)" style="fill: none; stroke: #000000; stroke-linejoin: miter"/>
   </g>
  </g>
 </g>
 <defs>
  <clipPath id="pf0b877bf7e">
   <rect x="1.389352" y="8.64" width="13.421297" height="54.36"/>
  </clipPath>
  <clipPath id="p9f706188c6">
   <rect x="17.982993" y="8.64" width="12.634014" height="54.36"/>
  </clipPath>
  <clipPath id="p8bf836f5cd">
   <rect x="49.483241" y="8.64" width="14.433517" height="54.36"/>
  </clipPath>
  <clipPath id="pf9769a015c">
   <rect x="64.8" y="8.881927" width="16.2" height="53.876147"/>
  </clipPath>
  <clipPath id="p969de2c944">
   <rect x="83.738979" y="8.64" width="10.722041" height="54.36"/>
  </clipPath>
  <clipPath id="pc0e4cc4c9d">
   <rect x="98.589352" y="8.64" width="13.421297" height="54.36"/>
  </clipPath>
  <clipPath id="p550bc305a8">
   <rect x="115.182993" y="8.64" width="12.634014" height="54.36"/>
  </clipPath>
  <clipPath id="p15ae9eaf4b">
   <rect x="129.6" y="8.881927" width="16.2" height="53.876147"/>
  </clipPath>
  <clipPath id="p4ee32fc68f">
   <rect x="162" y="10.936525" width="16.2" height="49.766949"/>
  </clipPath>
  <clipPath id="p0039f5a001">
   <rect x="180.938979" y="8.64" width="10.722041" height="54.36"/>
  </clipPath>
  <clipPath id="pee1fa37608">
   <rect x="194.4" y="10.777356" width="16.2" height="50.085288"/>
  </clipPath>
  <clipPath id="pd242809cf5">
   <rect x="211.989352" y="8.64" width="13.421297" height="54.36"/>
  </clipPath>
  <clipPath id="pc3c4714825">
   <rect x="244.782993" y="8.64" width="12.634014" height="54.36"/>
  </clipPath>
  <clipPath id="p4313842525">
   <rect x="260.589352" y="8.64" width="13.421297" height="54.36"/>
  </clipPath>
  <clipPath id="p6f98083373">
   <rect x="276.002069" y="8.64" width="14.995862" height="54.36"/>
  </clipPath>
  <clipPath id="p0ddfc4e598">
   <rect x="291.6" y="11.850612" width="16.2" height="47.938776"/>
  </clipPath>
  <clipPath id="p450b5ab6c4">
   <rect x="309.582993" y="8.64" width="12.634014" height="54.36"/>
  </clipPath>
  <clipPath id="paa8650566a">
   <rect x="340.2" y="9.603482" width="16.2" height="52.433036"/>
  </clipPath>
  <clipPath id="pb9d8239627">
   <rect x="356.4" y="10.777356" width="16.2" height="50.085288"/>
  </clipPath>
  <clipPath id="pb9fc7443e3">
   <rect x="373.651945" y="8.64" width="14.09611" height="54.36"/>
  </clipPath>
  <clipPath id="p8b0d8c15ab">
   <rect x="406.558055" y="8.64" width="13.08389" height="54.36"/>
  </clipPath>
  <clipPath id="p5e7c356435">
   <rect x="421.2" y="8.881927" width="16.2" height="53.876147"/>
  </clipPath>
  <clipPath id="peb08e5d90e">
   <rect x="454.989352" y="8.64" width="13.421297" height="54.36"/>
  </clipPath>
  <clipPath id="pa566f905ba">
   <rect x="470.402069" y="8.64" width="14.995862" height="54.36"/>
  </clipPath>
  <clipPath id="p4aa6f9f277">
   <rect x="502.802069" y="8.64" width="14.995862" height="54.36"/>
  </clipPath>
  <clipPath id="p860fef0890">
   <rect x="519.789352" y="8.64" width="13.421297" height="54.36"/>
  </clipPath>
  <clipPath id="p6b2370be36">
   <rect x="537.338979" y="8.64" width="10.722041" height="54.36"/>
  </clipPath>
  <clipPath id="p8f150aa0dc">
   <rect x="567" y="10.777356" width="16.2" height="50.085288"/>
  </clipPath>
  <clipPath id="pd75c332807">
   <rect x="585.151697" y="8.64" width="12.296607" height="54.36"/>
  </clipPath>
  <clipPath id="pd2fa1e418c">
   <rect x="599.4" y="10.777356" width="16.2" height="50.085288"/>
  </clipPath>
  <clipPath id="pd75e4469f5">
   <rect x="621.206938" y="8.64" width="4.986124" height="54.36"/>
  </clipPath>
  <clipPath id="pe5066a3c7e">
   <rect x="637.631876" y="8.64" width="4.536248" height="54.36"/>
  </clipPath>
  <clipPath id="p3fa548552a">
   <rect x="653.813131" y="8.64" width="4.573738" height="54.36"/>
  </clipPath>
  <clipPath id="p6da7f3f699">
   <rect x="669.525766" y="8.64" width="5.548469" height="54.36"/>
  </clipPath>
 </defs>
</svg>
