<?xml version="1.0" encoding="utf-8" standalone="no"?>
<!DOCTYPE svg PUBLIC "-//W3C//DTD SVG 1.1//EN"
  "http://www.w3.org/Graphics/SVG/1.1/DTD/svg11.dtd">
<svg xmlns:xlink="http://www.w3.org/1999/xlink" width="540pt" height="72pt" viewBox="0 0 540 72" xmlns="http://www.w3.org/2000/svg" version="1.1">
 <metadata>
  <rdf:RDF xmlns:dc="http://purl.org/dc/elements/1.1/" xmlns:cc="http://creativecommons.org/ns#" xmlns:rdf="http://www.w3.org/1999/02/22-rdf-syntax-ns#">
   <cc:Work>
    <dc:type rdf:resource="http://purl.org/dc/dcmitype/StillImage"/>
    <dc:date>2024-01-04T18:45:22.681570</dc:date>
    <dc:format>image/svg+xml</dc:format>
    <dc:creator>
     <cc:Agent>
      <dc:title>Matplotlib v3.7.1, https://matplotlib.org/</dc:title>
     </cc:Agent>
    </dc:creator>
   </cc:Work>
  </rdf:RDF>
 </metadata>
 <defs>
  <style type="text/css">*{stroke-linejoin: round; stroke-linecap: butt}</style>
 </defs>
 <g id="figure_1">
  <g id="patch_1">
   <path d="M 0 72 
L 540 72 
L 540 0 
L 0 0 
z
" style="fill: #8fff9f"/>
  </g>
  <g id="axes_1">
   <g id="patch_2">
    <path d="M 11.3616 35.032717 
Q 10.31189 34.582841 9.337159 34.69531 
Q 6.300497 35.032717 4.388524 36.701007 
Q 2.476552 38.369297 2.476552 41.330979 
Q 2.476552 43.917766 4.482248 45.6048 
Q 6.487945 47.291834 9.112221 47.291834 
Q 11.474069 47.291834 12.598759 45.361117 
Q 13.723448 43.4304 13.723448 40.881103 
Q 13.723448 39.643945 13.311062 38.706703 
Q 12.898676 37.769462 12.373821 37.300841 
Q 11.848966 36.832221 11.099172 36.119917 
Q 10.349379 35.407614 9.899503 34.69531 
L 8.662345 34.245434 
" clip-path="url(#p16c4f308d4)" style="fill: none; stroke: #000000; stroke-linejoin: miter"/>
   </g>
  </g>
  <g id="axes_2">
   <g id="patch_3">
    <path d="M 19.688772 35.145186 
Q 19.688772 35.145186 19.688772 35.595062 
Q 19.688772 36.269876 19.576303 37.619503 
Q 19.463834 38.969131 19.463834 39.643945 
Q 19.463834 41.930814 20.700993 43.599103 
Q 21.938152 45.267393 24.075062 45.267393 
Q 25.462179 45.154924 26.230717 43.917766 
Q 26.999255 42.680607 27.149214 41.237255 
Q 27.299172 39.793903 27.5616 37.9944 
Q 27.824028 36.194897 28.236414 35.370124 
Q 28.386372 35.070207 28.386372 35.670041 
Q 28.386372 36.269876 28.123945 38.706703 
Q 27.899007 41.031062 27.899007 41.555917 
Q 27.749048 42.643117 28.086455 43.767807 
Q 28.423862 44.892497 29.136166 45.6048 
" clip-path="url(#p532be63370)" style="fill: none; stroke: #000000; stroke-linejoin: miter"/>
   </g>
  </g>
  <g id="axes_3">
   <g id="patch_4">
    <path d="M 36.057476 43.917766 
Q 36.357393 44.180193 37.369614 45.154924 
Q 38.381834 46.129655 38.944179 46.560786 
Q 39.506524 46.991917 40.53749 47.385559 
Q 41.568455 47.7792 42.580676 47.629241 
Q 43.25549 47.629241 43.72411 47.404303 
Q 44.192731 47.179366 44.417669 46.879448 
Q 44.642607 46.579531 44.773821 45.979697 
Q 44.905034 45.379862 44.923779 44.967476 
Q 44.942524 44.55509 44.942524 43.805297 
Q 44.942524 42.718097 44.042772 42.043283 
Q 43.143021 41.368469 41.849628 41.031062 
Q 40.556234 40.693655 39.262841 40.300014 
Q 37.969448 39.906372 37.069697 38.987876 
Q 36.169945 38.069379 36.169945 36.607283 
Q 36.169945 36.082428 36.338648 35.726276 
Q 36.507352 35.370124 36.900993 35.145186 
Q 37.294634 34.920248 37.575807 34.807779 
Q 37.856979 34.69531 38.513048 34.639076 
Q 39.169117 34.582841 39.356566 34.582841 
Q 39.544014 34.582841 40.218828 34.582841 
Q 41.418497 34.582841 41.999586 34.995228 
Q 42.580676 35.407614 42.899338 36.026193 
Q 43.218 36.644772 43.480428 36.832221 
" clip-path="url(#p13e8be9519)" style="fill: none; stroke: #000000; stroke-linejoin: miter"/>
   </g>
  </g>
  <g id="axes_4"/>
  <g id="axes_5">
   <g id="patch_5">
    <path d="M 66.657798 38.160826 
Q 69.630275 39.535596 74.349083 39.721376 
Q 75.872477 39.721376 76.559862 38.550963 
Q 77.247248 37.38055 77.247248 35.82 
Q 77.247248 35.299817 77.154358 34.909679 
Q 77.061468 34.519541 76.819954 34.296606 
Q 76.57844 34.07367 76.411239 33.943624 
Q 76.244037 33.813578 75.798165 33.757844 
Q 75.352294 33.70211 75.147936 33.683532 
Q 74.943578 33.664954 74.367661 33.683532 
Q 73.791743 33.70211 73.568807 33.70211 
Q 71.525229 33.70211 70.038991 35.578486 
Q 68.552752 37.454862 68.552752 39.609908 
Q 68.552752 42.619541 70.484862 44.570229 
Q 72.416972 46.520917 75.463761 46.520917 
Q 77.618807 46.818165 79.142202 44.29156 
" clip-path="url(#p543e87e142)" style="fill: none; stroke: #000000; stroke-linejoin: miter"/>
   </g>
  </g>
  <g id="axes_6">
   <g id="patch_6">
    <path d="M 84.638731 37.282097 
L 84.638731 37.844441 
Q 84.901159 39.868883 84.938648 41.312234 
Q 84.976138 42.755586 84.882414 44.667559 
Q 84.78869 46.579531 84.78869 48.191586 
L 84.863669 39.643945 
Q 84.863669 38.144359 86.456979 37.507034 
Q 88.05029 36.86971 89.474897 37.282097 
Q 91.386869 37.844441 92.305366 39.04411 
Q 93.223862 40.243779 93.280097 41.668386 
Q 93.336331 43.092993 93.373821 44.817517 
Q 93.41131 46.542041 93.561269 48.191586 
" clip-path="url(#pdf009b89ca)" style="fill: none; stroke: #000000; stroke-linejoin: miter"/>
   </g>
  </g>
  <g id="axes_7">
   <g id="patch_7">
    <path d="M 108.899007 39.568966 
Q 107.549379 38.181848 105.3 38.444276 
Q 102.450786 38.444276 101.288607 39.793903 
Q 100.126428 41.143531 100.126428 44.067724 
Q 100.126428 45.56731 101.419821 46.279614 
Q 102.713214 46.991917 104.287779 46.991917 
Q 105.599917 46.991917 106.612138 45.736014 
Q 107.624359 44.48011 108.205448 42.30571 
Q 108.786538 40.13131 109.161434 37.938166 
Q 109.536331 35.745021 109.68629 33.045766 
Q 109.836248 30.34651 109.873738 28.978138 
Q 109.911228 27.609766 109.911228 26.185159 
Q 109.68629 26.260138 109.68629 29.896634 
L 109.68629 44.292662 
L 110.473572 48.229076 
" clip-path="url(#pd719765be0)" style="fill: none; stroke: #000000; stroke-linejoin: miter"/>
   </g>
  </g>
  <g id="axes_8"/>
  <g id="axes_9">
   <g id="patch_8">
    <path d="M 134.213462 35.932469 
Q 134.813297 35.257655 135.806772 34.826524 
Q 136.800248 34.395393 137.7 34.470372 
Q 138.337324 34.470372 138.82469 34.639076 
Q 139.312055 34.807779 139.630717 34.995228 
Q 139.949379 35.182676 140.174317 35.670041 
Q 140.399255 36.157407 140.511724 36.419834 
Q 140.624193 36.682262 140.680428 37.375821 
Q 140.736662 38.069379 140.755407 38.331807 
Q 140.774152 38.594234 140.755407 39.419007 
Q 140.736662 40.243779 140.736662 40.431228 
Q 140.736662 41.368469 140.567959 43.242952 
Q 140.399255 45.117434 140.399255 46.054676 
Q 140.399255 46.467062 140.45549 46.823214 
Q 140.511724 47.179366 140.605448 47.610497 
Q 140.699172 48.041628 140.736662 48.304055 
L 141.186538 48.528993 
M 134.663338 23.111007 
Q 134.888276 24.798041 134.888276 29.971614 
L 134.888276 42.3432 
L 134.550869 46.841959 
L 134.325931 47.74171 
" clip-path="url(#p55978f563d)" style="fill: none; stroke: #000000; stroke-linejoin: miter"/>
   </g>
  </g>
  <g id="axes_10">
   <g id="patch_9">
    <path d="M 159.443923 36.441748 
Q 158.234968 35.094627 154.262687 35.094627 
Q 152.742857 35.094627 151.965672 35.146439 
Q 151.188486 35.198252 150.18678 35.440043 
Q 149.185075 35.681834 148.701493 36.182687 
Q 148.21791 36.683539 147.872495 37.616162 
Q 147.527079 38.548785 147.527079 39.964989 
Q 147.527079 42.037484 148.943284 43.280981 
Q 150.359488 44.524478 152.293817 44.524478 
Q 154.953518 44.524478 157.716844 38.721493 
Q 159.063966 35.854542 159.063966 35.82 
Q 159.409382 35.578209 159.443923 36.441748 
Q 159.443923 37.512537 159.858422 40.362217 
Q 160.272921 43.211898 160.272921 44.524478 
" clip-path="url(#pf615a1bc46)" style="fill: none; stroke: #000000; stroke-linejoin: miter"/>
   </g>
  </g>
  <g id="axes_11">
   <g id="patch_10">
    <path d="M 165.826179 34.807779 
Q 167.438234 36.719752 168.731628 39.6252 
Q 170.025021 42.530648 170.324938 45.154924 
Q 171.374648 43.655338 172.293145 38.819172 
Q 173.211641 33.983007 174.373821 32.108524 
" clip-path="url(#p7dfad06db0)" style="fill: none; stroke: #000000; stroke-linejoin: miter"/>
   </g>
  </g>
  <g id="axes_12">
   <g id="patch_11">
    <path d="M 180.057798 38.160826 
Q 183.030275 39.535596 187.749083 39.721376 
Q 189.272477 39.721376 189.959862 38.550963 
Q 190.647248 37.38055 190.647248 35.82 
Q 190.647248 35.299817 190.554358 34.909679 
Q 190.461468 34.519541 190.219954 34.296606 
Q 189.97844 34.07367 189.811239 33.943624 
Q 189.644037 33.813578 189.198165 33.757844 
Q 188.752294 33.70211 188.547936 33.683532 
Q 188.343578 33.664954 187.767661 33.683532 
Q 187.191743 33.70211 186.968807 33.70211 
Q 184.925229 33.70211 183.438991 35.578486 
Q 181.952752 37.454862 181.952752 39.609908 
Q 181.952752 42.619541 183.884862 44.570229 
Q 185.816972 46.520917 188.863761 46.520917 
Q 191.018807 46.818165 192.542202 44.29156 
" clip-path="url(#pc636b3eaca)" style="fill: none; stroke: #000000; stroke-linejoin: miter"/>
   </g>
  </g>
  <g id="axes_13"/>
  <g id="axes_14">
   <g id="patch_12">
    <path d="M 213.563917 36.382345 
Q 213.526428 36.494814 213.657641 36.701007 
Q 213.788855 36.9072 213.676386 37.057159 
L 213.676386 39.306538 
Q 213.676386 40.506207 214.013793 41.724621 
Q 214.3512 42.943034 215.213462 43.93651 
Q 216.075724 44.929986 217.275393 44.929986 
Q 218.512552 44.929986 219.187366 43.861531 
Q 219.862179 42.793076 220.312055 41.143531 
Q 220.761931 39.493986 221.099338 38.969131 
L 221.886621 36.382345 
L 221.661683 42.680607 
L 221.661683 45.154924 
Q 221.661683 47.066897 222.392731 51.00331 
Q 223.123779 54.939724 223.123779 56.964166 
Q 223.873572 59.213545 222.786372 60.188276 
Q 221.699172 61.163007 219.637241 60.78811 
Q 217.837738 60.488193 216.919241 60.169531 
Q 216.000745 59.850869 214.013793 58.988607 
L 213.901324 58.426262 
" clip-path="url(#p70cd446f1c)" style="fill: none; stroke: #000000; stroke-linejoin: miter"/>
   </g>
  </g>
  <g id="axes_15">
   <g id="patch_13">
    <path d="M 238.1616 35.032717 
Q 237.11189 34.582841 236.137159 34.69531 
Q 233.100497 35.032717 231.188524 36.701007 
Q 229.276552 38.369297 229.276552 41.330979 
Q 229.276552 43.917766 231.282248 45.6048 
Q 233.287945 47.291834 235.912221 47.291834 
Q 238.274069 47.291834 239.398759 45.361117 
Q 240.523448 43.4304 240.523448 40.881103 
Q 240.523448 39.643945 240.111062 38.706703 
Q 239.698676 37.769462 239.173821 37.300841 
Q 238.648966 36.832221 237.899172 36.119917 
Q 237.149379 35.407614 236.699503 34.69531 
L 235.462345 34.245434 
" clip-path="url(#p8a4d7af860)" style="fill: none; stroke: #000000; stroke-linejoin: miter"/>
   </g>
  </g>
  <g id="axes_16">
   <g id="patch_14">
    <path d="M 246.488772 35.145186 
Q 246.488772 35.145186 246.488772 35.595062 
Q 246.488772 36.269876 246.376303 37.619503 
Q 246.263834 38.969131 246.263834 39.643945 
Q 246.263834 41.930814 247.500993 43.599103 
Q 248.738152 45.267393 250.875062 45.267393 
Q 252.262179 45.154924 253.030717 43.917766 
Q 253.799255 42.680607 253.949214 41.237255 
Q 254.099172 39.793903 254.3616 37.9944 
Q 254.624028 36.194897 255.036414 35.370124 
Q 255.186372 35.070207 255.186372 35.670041 
Q 255.186372 36.269876 254.923945 38.706703 
Q 254.699007 41.031062 254.699007 41.555917 
Q 254.549048 42.643117 254.886455 43.767807 
Q 255.223862 44.892497 255.936166 45.6048 
" clip-path="url(#pc8169f80b8)" style="fill: none; stroke: #000000; stroke-linejoin: miter"/>
   </g>
  </g>
  <g id="axes_17"/>
  <g id="axes_18">
   <g id="patch_15">
    <path d="M 283.106359 28.621986 
Q 283.331297 30.34651 283.406276 32.146014 
Q 283.481255 33.945517 283.46251 36.551048 
Q 283.443766 39.156579 283.443766 40.093821 
Q 283.443766 40.13131 283.668703 45.829738 
L 283.893641 46.841959 
" clip-path="url(#pb7767a664a)" style="fill: none; stroke: #000000; stroke-linejoin: miter"/>
   </g>
  </g>
  <g id="axes_19">
   <g id="patch_16">
    <path d="M 293.457798 38.160826 
Q 296.430275 39.535596 301.149083 39.721376 
Q 302.672477 39.721376 303.359862 38.550963 
Q 304.047248 37.38055 304.047248 35.82 
Q 304.047248 35.299817 303.954358 34.909679 
Q 303.861468 34.519541 303.619954 34.296606 
Q 303.37844 34.07367 303.211239 33.943624 
Q 303.044037 33.813578 302.598165 33.757844 
Q 302.152294 33.70211 301.947936 33.683532 
Q 301.743578 33.664954 301.167661 33.683532 
Q 300.591743 33.70211 300.368807 33.70211 
Q 298.325229 33.70211 296.838991 35.578486 
Q 295.352752 37.454862 295.352752 39.609908 
Q 295.352752 42.619541 297.284862 44.570229 
Q 299.216972 46.520917 302.263761 46.520917 
Q 304.418807 46.818165 305.942202 44.29156 
" clip-path="url(#paf988bf678)" style="fill: none; stroke: #000000; stroke-linejoin: miter"/>
   </g>
  </g>
  <g id="axes_20">
   <g id="patch_17">
    <path d="M 319.499007 39.568966 
Q 318.149379 38.181848 315.9 38.444276 
Q 313.050786 38.444276 311.888607 39.793903 
Q 310.726428 41.143531 310.726428 44.067724 
Q 310.726428 45.56731 312.019821 46.279614 
Q 313.313214 46.991917 314.887779 46.991917 
Q 316.199917 46.991917 317.212138 45.736014 
Q 318.224359 44.48011 318.805448 42.30571 
Q 319.386538 40.13131 319.761434 37.938166 
Q 320.136331 35.745021 320.28629 33.045766 
Q 320.436248 30.34651 320.473738 28.978138 
Q 320.511228 27.609766 320.511228 26.185159 
Q 320.28629 26.260138 320.28629 29.896634 
L 320.28629 44.292662 
L 321.073572 48.229076 
" clip-path="url(#pa5138d8b43)" style="fill: none; stroke: #000000; stroke-linejoin: miter"/>
   </g>
  </g>
  <g id="axes_21"/>
  <g id="axes_22">
   <g id="patch_18">
    <path d="M 342.008036 34.879821 
Q 342.514286 36.073125 342.803571 42.871339 
Q 342.948214 46.632054 343.2375 46.632054 
Q 343.273661 46.632054 343.309821 46.595893 
Q 343.816071 46.017321 343.870313 44.588973 
Q 343.924554 43.160625 343.707589 41.750357 
Q 343.490625 40.340089 343.2375 38.712857 
Q 342.984375 37.085625 342.984375 36.398571 
Q 342.984375 35.169107 343.364063 33.939643 
Q 343.74375 32.710179 344.720089 32.710179 
Q 345.949554 32.710179 346.672768 34.355491 
Q 347.395982 36.000804 347.558705 37.971563 
Q 347.721429 39.942321 347.829911 41.587634 
Q 347.938393 43.232946 348.083036 43.232946 
Q 348.227679 43.232946 348.31808 41.497232 
Q 348.408482 39.761518 348.535045 37.700357 
Q 348.661607 35.639196 349.384821 33.903482 
Q 350.108036 32.167768 351.3375 32.167768 
Q 352.892411 33.035625 353.561384 34.771339 
Q 354.230357 36.507054 354.194196 38.188527 
Q 354.158036 39.87 354.176116 42.057723 
Q 354.194196 44.245446 354.591964 45.511071 
" clip-path="url(#p867e2c6182)" style="fill: none; stroke: #000000; stroke-linejoin: miter"/>
   </g>
  </g>
  <g id="axes_23">
   <g id="patch_19">
    <path d="M 358.257798 38.160826 
Q 361.230275 39.535596 365.949083 39.721376 
Q 367.472477 39.721376 368.159862 38.550963 
Q 368.847248 37.38055 368.847248 35.82 
Q 368.847248 35.299817 368.754358 34.909679 
Q 368.661468 34.519541 368.419954 34.296606 
Q 368.17844 34.07367 368.011239 33.943624 
Q 367.844037 33.813578 367.398165 33.757844 
Q 366.952294 33.70211 366.747936 33.683532 
Q 366.543578 33.664954 365.967661 33.683532 
Q 365.391743 33.70211 365.168807 33.70211 
Q 363.125229 33.70211 361.638991 35.578486 
Q 360.152752 37.454862 360.152752 39.609908 
Q 360.152752 42.619541 362.084862 44.570229 
Q 364.016972 46.520917 367.063761 46.520917 
Q 369.218807 46.818165 370.742202 44.29156 
" clip-path="url(#pff3920d10d)" style="fill: none; stroke: #000000; stroke-linejoin: miter"/>
   </g>
  </g>
  <g id="axes_24"/>
  <g id="axes_25">
   <g id="patch_20">
    <path d="M 393.413462 35.932469 
Q 394.013297 35.257655 395.006772 34.826524 
Q 396.000248 34.395393 396.9 34.470372 
Q 397.537324 34.470372 398.02469 34.639076 
Q 398.512055 34.807779 398.830717 34.995228 
Q 399.149379 35.182676 399.374317 35.670041 
Q 399.599255 36.157407 399.711724 36.419834 
Q 399.824193 36.682262 399.880428 37.375821 
Q 399.936662 38.069379 399.955407 38.331807 
Q 399.974152 38.594234 399.955407 39.419007 
Q 399.936662 40.243779 399.936662 40.431228 
Q 399.936662 41.368469 399.767959 43.242952 
Q 399.599255 45.117434 399.599255 46.054676 
Q 399.599255 46.467062 399.65549 46.823214 
Q 399.711724 47.179366 399.805448 47.610497 
Q 399.899172 48.041628 399.936662 48.304055 
L 400.386538 48.528993 
M 393.863338 23.111007 
Q 394.088276 24.798041 394.088276 29.971614 
L 394.088276 42.3432 
L 393.750869 46.841959 
L 393.525931 47.74171 
" clip-path="url(#p6dfd6c8e53)" style="fill: none; stroke: #000000; stroke-linejoin: miter"/>
   </g>
  </g>
  <g id="axes_26">
   <g id="patch_21">
    <path d="M 406.857798 38.160826 
Q 409.830275 39.535596 414.549083 39.721376 
Q 416.072477 39.721376 416.759862 38.550963 
Q 417.447248 37.38055 417.447248 35.82 
Q 417.447248 35.299817 417.354358 34.909679 
Q 417.261468 34.519541 417.019954 34.296606 
Q 416.77844 34.07367 416.611239 33.943624 
Q 416.444037 33.813578 415.998165 33.757844 
Q 415.552294 33.70211 415.347936 33.683532 
Q 415.143578 33.664954 414.567661 33.683532 
Q 413.991743 33.70211 413.768807 33.70211 
Q 411.725229 33.70211 410.238991 35.578486 
Q 408.752752 37.454862 408.752752 39.609908 
Q 408.752752 42.619541 410.684862 44.570229 
Q 412.616972 46.520917 415.663761 46.520917 
Q 417.818807 46.818165 419.342202 44.29156 
" clip-path="url(#pb59df0ef2f)" style="fill: none; stroke: #000000; stroke-linejoin: miter"/>
   </g>
  </g>
  <g id="axes_27">
   <g id="patch_22">
    <path d="M 425.813462 32.783338 
Q 426.338317 34.507862 426.469531 36.457324 
Q 426.600745 38.406786 426.525766 40.956083 
Q 426.450786 43.505379 426.488276 44.705048 
L 426.600745 46.054676 
L 426.600745 45.829738 
Q 426.600745 44.667559 426.319572 42.30571 
Q 426.0384 39.943862 426.0384 38.744193 
Q 426.0384 36.419834 427.050621 34.882759 
Q 428.062841 33.345683 430.087283 33.345683 
Q 430.799586 33.345683 431.136993 33.626855 
Q 431.4744 33.908028 431.736828 34.432883 
Q 431.999255 34.957738 432.336662 35.257655 
L 432.786538 36.832221 
" clip-path="url(#p08b647b2a1)" style="fill: none; stroke: #000000; stroke-linejoin: miter"/>
   </g>
  </g>
  <g id="axes_28">
   <g id="patch_23">
    <path d="M 439.257798 38.160826 
Q 442.230275 39.535596 446.949083 39.721376 
Q 448.472477 39.721376 449.159862 38.550963 
Q 449.847248 37.38055 449.847248 35.82 
Q 449.847248 35.299817 449.754358 34.909679 
Q 449.661468 34.519541 449.419954 34.296606 
Q 449.17844 34.07367 449.011239 33.943624 
Q 448.844037 33.813578 448.398165 33.757844 
Q 447.952294 33.70211 447.747936 33.683532 
Q 447.543578 33.664954 446.967661 33.683532 
Q 446.391743 33.70211 446.168807 33.70211 
Q 444.125229 33.70211 442.638991 35.578486 
Q 441.152752 37.454862 441.152752 39.609908 
Q 441.152752 42.619541 443.084862 44.570229 
Q 445.016972 46.520917 448.063761 46.520917 
Q 450.218807 46.818165 451.742202 44.29156 
" clip-path="url(#pc4e10add52)" style="fill: none; stroke: #000000; stroke-linejoin: miter"/>
   </g>
  </g>
  <g id="axes_29">
   <g id="patch_24">
    <path d="M 459.975476 45.379862 
Q 459.713048 45.304883 459.431876 45.64229 
Q 459.150703 45.979697 459.225683 46.279614 
Q 459.225683 46.429572 459.675559 46.429572 
Q 459.825517 46.467062 459.937986 46.392083 
Q 460.050455 46.317103 460.050455 46.129655 
M 456.751366 26.934952 
Q 459.675559 25.922731 461.999917 26.0352 
Q 464.024359 26.0352 465.336497 27.197379 
Q 466.648634 28.359559 466.648634 30.309021 
Q 466.648634 32.745848 465.055324 34.001752 
Q 463.462014 35.257655 460.950207 35.257655 
L 459.450621 35.257655 
Q 459.300662 35.257655 459.263172 36.194897 
Q 459.225683 37.132138 459.263172 38.069379 
L 459.300662 39.006621 
L 459.300662 41.405959 
L 459.600579 42.230731 
" clip-path="url(#pae6babe7c7)" style="fill: none; stroke: #000000; stroke-linejoin: miter"/>
   </g>
  </g>
  <g id="axes_30">
   <g id="patch_25">
    <path d="M 478.424855 27.009931 
Q 478.499834 27.347338 478.574814 28.265834 
Q 478.649793 29.184331 478.799752 29.634207 
L 478.724772 31.058814 
M 477.075228 27.309848 
Q 477.037738 27.309848 477.000248 27.534786 
Q 477.037738 27.684745 477.150207 28.828179 
Q 477.262676 29.971614 477.525103 30.533959 
" clip-path="url(#peb30c87766)" style="fill: none; stroke: #000000; stroke-linejoin: miter"/>
   </g>
  </g>
 </g>
 <defs>
  <clipPath id="p16c4f308d4">
   <rect x="0.602069" y="8.64" width="14.995862" height="54.36"/>
  </clipPath>
  <clipPath id="p532be63370">
   <rect x="17.589352" y="8.64" width="13.421297" height="54.36"/>
  </clipPath>
  <clipPath id="p13e8be9519">
   <rect x="34.182993" y="8.64" width="12.634014" height="54.36"/>
  </clipPath>
  <clipPath id="p543e87e142">
   <rect x="64.8" y="8.881927" width="16.2" height="53.876147"/>
  </clipPath>
  <clipPath id="pdf009b89ca">
   <rect x="82.764248" y="8.64" width="12.671503" height="54.36"/>
  </clipPath>
  <clipPath id="pd719765be0">
   <rect x="98.251945" y="8.64" width="14.09611" height="54.36"/>
  </clipPath>
  <clipPath id="p55978f563d">
   <rect x="132.338979" y="8.64" width="10.722041" height="54.36"/>
  </clipPath>
  <clipPath id="pf615a1bc46">
   <rect x="145.8" y="10.777356" width="16.2" height="50.085288"/>
  </clipPath>
  <clipPath id="p7dfad06db0">
   <rect x="163.951697" y="8.64" width="12.296607" height="54.36"/>
  </clipPath>
  <clipPath id="pc636b3eaca">
   <rect x="178.2" y="8.881927" width="16.2" height="53.876147"/>
  </clipPath>
  <clipPath id="p70cd446f1c">
   <rect x="211.651945" y="8.64" width="14.09611" height="54.36"/>
  </clipPath>
  <clipPath id="p8a4d7af860">
   <rect x="227.402069" y="8.64" width="14.995862" height="54.36"/>
  </clipPath>
  <clipPath id="pc8169f80b8">
   <rect x="244.389352" y="8.64" width="13.421297" height="54.36"/>
  </clipPath>
  <clipPath id="pb7767a664a">
   <rect x="281.231876" y="8.64" width="4.536248" height="54.36"/>
  </clipPath>
  <clipPath id="paf988bf678">
   <rect x="291.6" y="8.881927" width="16.2" height="53.876147"/>
  </clipPath>
  <clipPath id="pa5138d8b43">
   <rect x="308.851945" y="8.64" width="14.09611" height="54.36"/>
  </clipPath>
  <clipPath id="p867e2c6182">
   <rect x="340.2" y="9.603482" width="16.2" height="52.433036"/>
  </clipPath>
  <clipPath id="pff3920d10d">
   <rect x="356.4" y="8.881927" width="16.2" height="53.876147"/>
  </clipPath>
  <clipPath id="p6dfd6c8e53">
   <rect x="391.538979" y="8.64" width="10.722041" height="54.36"/>
  </clipPath>
  <clipPath id="pb59df0ef2f">
   <rect x="405" y="8.881927" width="16.2" height="53.876147"/>
  </clipPath>
  <clipPath id="p08b647b2a1">
   <rect x="423.938979" y="8.64" width="10.722041" height="54.36"/>
  </clipPath>
  <clipPath id="pc4e10add52">
   <rect x="437.4" y="8.881927" width="16.2" height="53.876147"/>
  </clipPath>
  <clipPath id="pae6babe7c7">
   <rect x="454.876883" y="8.64" width="13.646234" height="54.36"/>
  </clipPath>
  <clipPath id="peb30c87766">
   <rect x="475.125766" y="8.64" width="5.548469" height="54.36"/>
  </clipPath>
 </defs>
</svg>
