<?xml version="1.0" encoding="utf-8" standalone="no"?>
<!DOCTYPE svg PUBLIC "-//W3C//DTD SVG 1.1//EN"
  "http://www.w3.org/Graphics/SVG/1.1/DTD/svg11.dtd">
<svg xmlns:xlink="http://www.w3.org/1999/xlink" width="684pt" height="72pt" viewBox="0 0 684 72" xmlns="http://www.w3.org/2000/svg" version="1.1">
 <metadata>
  <rdf:RDF xmlns:dc="http://purl.org/dc/elements/1.1/" xmlns:cc="http://creativecommons.org/ns#" xmlns:rdf="http://www.w3.org/1999/02/22-rdf-syntax-ns#">
   <cc:Work>
    <dc:type rdf:resource="http://purl.org/dc/dcmitype/StillImage"/>
    <dc:date>2024-01-04T18:45:16.283560</dc:date>
    <dc:format>image/svg+xml</dc:format>
    <dc:creator>
     <cc:Agent>
      <dc:title>Matplotlib v3.7.1, https://matplotlib.org/</dc:title>
     </cc:Agent>
    </dc:creator>
   </cc:Work>
  </rdf:RDF>
 </metadata>
 <defs>
  <style type="text/css">*{stroke-linejoin: round; stroke-linecap: butt}</style>
 </defs>
 <g id="figure_1">
  <g id="patch_1">
   <path d="M 0 72 
L 684 72 
L 684 0 
L 0 0 
z
" style="fill: #8fff9f"/>
  </g>
  <g id="axes_1">
   <g id="patch_2">
    <path d="M 1.087248 30.470738 
L 2.261477 30.601208 
Q 4.088054 30.601208 5.925503 30.709933 
Q 7.762953 30.818658 10.002685 30.992617 
Q 12.242416 31.166577 13.677584 31.253557 
L 15.112752 31.123087 
M 7.871678 31.057852 
Q 7.936913 31.405772 7.675973 32.177718 
Q 7.415034 32.949664 7.610738 33.406309 
Q 7.610738 34.711007 7.752081 36.363624 
Q 7.893423 38.016242 8.110872 39.973289 
Q 8.328322 41.930336 8.393557 42.800134 
" clip-path="url(#pfae4d1b8f6)" style="fill: none; stroke: #000000; stroke-linejoin: miter"/>
   </g>
  </g>
  <g id="axes_2">
   <g id="patch_3">
    <path d="M 20.813462 35.932469 
Q 21.413297 35.257655 22.406772 34.826524 
Q 23.400248 34.395393 24.3 34.470372 
Q 24.937324 34.470372 25.42469 34.639076 
Q 25.912055 34.807779 26.230717 34.995228 
Q 26.549379 35.182676 26.774317 35.670041 
Q 26.999255 36.157407 27.111724 36.419834 
Q 27.224193 36.682262 27.280428 37.375821 
Q 27.336662 38.069379 27.355407 38.331807 
Q 27.374152 38.594234 27.355407 39.419007 
Q 27.336662 40.243779 27.336662 40.431228 
Q 27.336662 41.368469 27.167959 43.242952 
Q 26.999255 45.117434 26.999255 46.054676 
Q 26.999255 46.467062 27.05549 46.823214 
Q 27.111724 47.179366 27.205448 47.610497 
Q 27.299172 48.041628 27.336662 48.304055 
L 27.786538 48.528993 
M 21.263338 23.111007 
Q 21.488276 24.798041 21.488276 29.971614 
L 21.488276 42.3432 
L 21.150869 46.841959 
L 20.925931 47.74171 
" clip-path="url(#p6434e4c8da)" style="fill: none; stroke: #000000; stroke-linejoin: miter"/>
   </g>
  </g>
  <g id="axes_3">
   <g id="patch_4">
    <path d="M 34.257798 38.160826 
Q 37.230275 39.535596 41.949083 39.721376 
Q 43.472477 39.721376 44.159862 38.550963 
Q 44.847248 37.38055 44.847248 35.82 
Q 44.847248 35.299817 44.754358 34.909679 
Q 44.661468 34.519541 44.419954 34.296606 
Q 44.17844 34.07367 44.011239 33.943624 
Q 43.844037 33.813578 43.398165 33.757844 
Q 42.952294 33.70211 42.747936 33.683532 
Q 42.543578 33.664954 41.967661 33.683532 
Q 41.391743 33.70211 41.168807 33.70211 
Q 39.125229 33.70211 37.638991 35.578486 
Q 36.152752 37.454862 36.152752 39.609908 
Q 36.152752 42.619541 38.084862 44.570229 
Q 40.016972 46.520917 43.063761 46.520917 
Q 45.218807 46.818165 46.742202 44.29156 
" clip-path="url(#pf2c883b278)" style="fill: none; stroke: #000000; stroke-linejoin: miter"/>
   </g>
  </g>
  <g id="axes_4"/>
  <g id="axes_5">
   <g id="patch_5">
    <path d="M 77.687191 39.096404 
Q 77.43236 39.023596 76.46764 38.623146 
Q 75.502921 38.222697 74.84764 38.077079 
Q 74.19236 37.931461 73.537079 38.00427 
Q 70.915955 38.00427 69.277753 40.388764 
Q 67.639551 42.773258 67.639551 45.430787 
Q 67.639551 47.068989 72.881798 47.068989 
Q 74.447191 47.068989 75.775955 45.558202 
Q 77.104719 44.047416 77.778202 42.172584 
Q 78.451685 40.297753 78.451685 38.768764 
Q 78.451685 37.27618 78.415281 36.984944 
L 78.342472 38.077079 
Q 78.342472 38.550337 78.342472 38.987191 
Q 78.378876 40.188539 78.579101 42.281798 
Q 78.779326 44.375056 78.943146 46.049663 
Q 79.106966 47.72427 79.143371 49.872135 
Q 79.179775 52.02 79.015955 53.658202 
Q 78.852135 55.296404 78.287865 56.971011 
Q 77.723596 58.645618 76.795281 59.737753 
Q 75.866966 60.829888 74.265169 61.521573 
Q 72.663371 62.213258 70.515506 62.213258 
Q 68.877303 62.213258 67.785169 61.466966 
Q 66.693034 60.720674 66.693034 59.155281 
Q 66.620225 58.936854 66.656629 58.936854 
Q 66.693034 58.936854 66.802247 58.936854 
Q 66.911461 58.936854 66.911461 58.82764 
" clip-path="url(#pd6c425c9b0)" style="fill: none; stroke: #000000; stroke-linejoin: miter"/>
   </g>
  </g>
  <g id="axes_6">
   <g id="patch_6">
    <path d="M 85.613462 35.932469 
Q 86.213297 35.257655 87.206772 34.826524 
Q 88.200248 34.395393 89.1 34.470372 
Q 89.737324 34.470372 90.22469 34.639076 
Q 90.712055 34.807779 91.030717 34.995228 
Q 91.349379 35.182676 91.574317 35.670041 
Q 91.799255 36.157407 91.911724 36.419834 
Q 92.024193 36.682262 92.080428 37.375821 
Q 92.136662 38.069379 92.155407 38.331807 
Q 92.174152 38.594234 92.155407 39.419007 
Q 92.136662 40.243779 92.136662 40.431228 
Q 92.136662 41.368469 91.967959 43.242952 
Q 91.799255 45.117434 91.799255 46.054676 
Q 91.799255 46.467062 91.85549 46.823214 
Q 91.911724 47.179366 92.005448 47.610497 
Q 92.099172 48.041628 92.136662 48.304055 
L 92.586538 48.528993 
M 86.063338 23.111007 
Q 86.288276 24.798041 86.288276 29.971614 
L 86.288276 42.3432 
L 85.950869 46.841959 
L 85.725931 47.74171 
" clip-path="url(#p7dfbed328e)" style="fill: none; stroke: #000000; stroke-linejoin: miter"/>
   </g>
  </g>
  <g id="axes_7">
   <g id="patch_7">
    <path d="M 108.5616 35.032717 
Q 107.51189 34.582841 106.537159 34.69531 
Q 103.500497 35.032717 101.588524 36.701007 
Q 99.676552 38.369297 99.676552 41.330979 
Q 99.676552 43.917766 101.682248 45.6048 
Q 103.687945 47.291834 106.312221 47.291834 
Q 108.674069 47.291834 109.798759 45.361117 
Q 110.923448 43.4304 110.923448 40.881103 
Q 110.923448 39.643945 110.511062 38.706703 
Q 110.098676 37.769462 109.573821 37.300841 
Q 109.048966 36.832221 108.299172 36.119917 
Q 107.549379 35.407614 107.099503 34.69531 
L 105.862345 34.245434 
" clip-path="url(#p41ad57675a)" style="fill: none; stroke: #000000; stroke-linejoin: miter"/>
   </g>
  </g>
  <g id="axes_8">
   <g id="patch_8">
    <path d="M 117.057476 43.917766 
Q 117.357393 44.180193 118.369614 45.154924 
Q 119.381834 46.129655 119.944179 46.560786 
Q 120.506524 46.991917 121.53749 47.385559 
Q 122.568455 47.7792 123.580676 47.629241 
Q 124.25549 47.629241 124.72411 47.404303 
Q 125.192731 47.179366 125.417669 46.879448 
Q 125.642607 46.579531 125.773821 45.979697 
Q 125.905034 45.379862 125.923779 44.967476 
Q 125.942524 44.55509 125.942524 43.805297 
Q 125.942524 42.718097 125.042772 42.043283 
Q 124.143021 41.368469 122.849628 41.031062 
Q 121.556234 40.693655 120.262841 40.300014 
Q 118.969448 39.906372 118.069697 38.987876 
Q 117.169945 38.069379 117.169945 36.607283 
Q 117.169945 36.082428 117.338648 35.726276 
Q 117.507352 35.370124 117.900993 35.145186 
Q 118.294634 34.920248 118.575807 34.807779 
Q 118.856979 34.69531 119.513048 34.639076 
Q 120.169117 34.582841 120.356566 34.582841 
Q 120.544014 34.582841 121.218828 34.582841 
Q 122.418497 34.582841 122.999586 34.995228 
Q 123.580676 35.407614 123.899338 36.026193 
Q 124.218 36.644772 124.480428 36.832221 
" clip-path="url(#p3b630db92b)" style="fill: none; stroke: #000000; stroke-linejoin: miter"/>
   </g>
  </g>
  <g id="axes_9">
   <g id="patch_9">
    <path d="M 132.863834 37.95691 
L 133.538648 37.95691 
Q 134.250952 37.95691 135.038234 37.881931 
Q 135.825517 37.806952 136.781503 37.675738 
Q 137.73749 37.544524 138.262345 37.507034 
L 142.536166 35.82 
M 138.487283 30.42149 
L 138.487283 31.43371 
Q 138.487283 33.383172 137.812469 37.207117 
Q 137.137655 41.031062 137.137655 43.018014 
Q 137.137655 43.805297 137.137655 44.105214 
Q 137.137655 44.405131 137.231379 45.042455 
Q 137.325103 45.679779 137.512552 45.960952 
Q 137.7 46.242124 138.093641 46.485807 
Q 138.487283 46.72949 139.049628 46.72949 
Q 139.162097 46.692 139.480759 46.72949 
Q 139.799421 46.766979 139.986869 46.710745 
Q 140.174317 46.65451 140.174317 46.392083 
" clip-path="url(#p4aaeb2141b)" style="fill: none; stroke: #000000; stroke-linejoin: miter"/>
   </g>
  </g>
  <g id="axes_10"/>
  <g id="axes_11">
   <g id="patch_10">
    <path d="M 165.263834 37.95691 
L 165.938648 37.95691 
Q 166.650952 37.95691 167.438234 37.881931 
Q 168.225517 37.806952 169.181503 37.675738 
Q 170.13749 37.544524 170.662345 37.507034 
L 174.936166 35.82 
M 170.887283 30.42149 
L 170.887283 31.43371 
Q 170.887283 33.383172 170.212469 37.207117 
Q 169.537655 41.031062 169.537655 43.018014 
Q 169.537655 43.805297 169.537655 44.105214 
Q 169.537655 44.405131 169.631379 45.042455 
Q 169.725103 45.679779 169.912552 45.960952 
Q 170.1 46.242124 170.493641 46.485807 
Q 170.887283 46.72949 171.449628 46.72949 
Q 171.562097 46.692 171.880759 46.72949 
Q 172.199421 46.766979 172.386869 46.710745 
Q 172.574317 46.65451 172.574317 46.392083 
" clip-path="url(#pf010822212)" style="fill: none; stroke: #000000; stroke-linejoin: miter"/>
   </g>
  </g>
  <g id="axes_12">
   <g id="patch_11">
    <path d="M 182.813462 35.932469 
Q 183.413297 35.257655 184.406772 34.826524 
Q 185.400248 34.395393 186.3 34.470372 
Q 186.937324 34.470372 187.42469 34.639076 
Q 187.912055 34.807779 188.230717 34.995228 
Q 188.549379 35.182676 188.774317 35.670041 
Q 188.999255 36.157407 189.111724 36.419834 
Q 189.224193 36.682262 189.280428 37.375821 
Q 189.336662 38.069379 189.355407 38.331807 
Q 189.374152 38.594234 189.355407 39.419007 
Q 189.336662 40.243779 189.336662 40.431228 
Q 189.336662 41.368469 189.167959 43.242952 
Q 188.999255 45.117434 188.999255 46.054676 
Q 188.999255 46.467062 189.05549 46.823214 
Q 189.111724 47.179366 189.205448 47.610497 
Q 189.299172 48.041628 189.336662 48.304055 
L 189.786538 48.528993 
M 183.263338 23.111007 
Q 183.488276 24.798041 183.488276 29.971614 
L 183.488276 42.3432 
L 183.150869 46.841959 
L 182.925931 47.74171 
" clip-path="url(#p8e4dff7419)" style="fill: none; stroke: #000000; stroke-linejoin: miter"/>
   </g>
  </g>
  <g id="axes_13">
   <g id="patch_12">
    <path d="M 196.257798 38.160826 
Q 199.230275 39.535596 203.949083 39.721376 
Q 205.472477 39.721376 206.159862 38.550963 
Q 206.847248 37.38055 206.847248 35.82 
Q 206.847248 35.299817 206.754358 34.909679 
Q 206.661468 34.519541 206.419954 34.296606 
Q 206.17844 34.07367 206.011239 33.943624 
Q 205.844037 33.813578 205.398165 33.757844 
Q 204.952294 33.70211 204.747936 33.683532 
Q 204.543578 33.664954 203.967661 33.683532 
Q 203.391743 33.70211 203.168807 33.70211 
Q 201.125229 33.70211 199.638991 35.578486 
Q 198.152752 37.454862 198.152752 39.609908 
Q 198.152752 42.619541 200.084862 44.570229 
Q 202.016972 46.520917 205.063761 46.520917 
Q 207.218807 46.818165 208.742202 44.29156 
" clip-path="url(#pa71a3fd2ae)" style="fill: none; stroke: #000000; stroke-linejoin: miter"/>
   </g>
  </g>
  <g id="axes_14">
   <g id="patch_13">
    <path d="M 214.238731 37.282097 
L 214.238731 37.844441 
Q 214.501159 39.868883 214.538648 41.312234 
Q 214.576138 42.755586 214.482414 44.667559 
Q 214.38869 46.579531 214.38869 48.191586 
L 214.463669 39.643945 
Q 214.463669 38.144359 216.056979 37.507034 
Q 217.65029 36.86971 219.074897 37.282097 
Q 220.986869 37.844441 221.905366 39.04411 
Q 222.823862 40.243779 222.880097 41.668386 
Q 222.936331 43.092993 222.973821 44.817517 
Q 223.01131 46.542041 223.161269 48.191586 
" clip-path="url(#p6f5e09a470)" style="fill: none; stroke: #000000; stroke-linejoin: miter"/>
   </g>
  </g>
  <g id="axes_15"/>
  <g id="axes_16">
   <g id="patch_14">
    <path d="M 256.356735 34.365306 
Q 256.356735 34.365306 255.860816 34.365306 
Q 255.067347 34.365306 253.579592 34.067755 
Q 252.091837 33.770204 251.298367 33.770204 
Q 248.521224 33.770204 246.587143 35.224898 
Q 244.653061 36.679592 244.653061 39.423673 
Q 244.653061 40.94449 246.140816 42.399184 
Q 247.628571 43.853878 249.562653 44.663878 
Q 251.496735 45.473878 252.98449 45.473878 
Q 253.910204 45.473878 254.60449 45.110204 
Q 255.298776 44.746531 256.042653 44.118367 
Q 256.786531 43.490204 257.348571 43.192653 
L 257.546939 42.696735 
" clip-path="url(#p761b1c73cf)" style="fill: none; stroke: #000000; stroke-linejoin: miter"/>
   </g>
  </g>
  <g id="axes_17">
   <g id="patch_15">
    <path d="M 270.5616 35.032717 
Q 269.51189 34.582841 268.537159 34.69531 
Q 265.500497 35.032717 263.588524 36.701007 
Q 261.676552 38.369297 261.676552 41.330979 
Q 261.676552 43.917766 263.682248 45.6048 
Q 265.687945 47.291834 268.312221 47.291834 
Q 270.674069 47.291834 271.798759 45.361117 
Q 272.923448 43.4304 272.923448 40.881103 
Q 272.923448 39.643945 272.511062 38.706703 
Q 272.098676 37.769462 271.573821 37.300841 
Q 271.048966 36.832221 270.299172 36.119917 
Q 269.549379 35.407614 269.099503 34.69531 
L 267.862345 34.245434 
" clip-path="url(#pea63549c2b)" style="fill: none; stroke: #000000; stroke-linejoin: miter"/>
   </g>
  </g>
  <g id="axes_18">
   <g id="patch_16">
    <path d="M 279.038731 37.282097 
L 279.038731 37.844441 
Q 279.301159 39.868883 279.338648 41.312234 
Q 279.376138 42.755586 279.282414 44.667559 
Q 279.18869 46.579531 279.18869 48.191586 
L 279.263669 39.643945 
Q 279.263669 38.144359 280.856979 37.507034 
Q 282.45029 36.86971 283.874897 37.282097 
Q 285.786869 37.844441 286.705366 39.04411 
Q 287.623862 40.243779 287.680097 41.668386 
Q 287.736331 43.092993 287.773821 44.817517 
Q 287.81131 46.542041 287.961269 48.191586 
" clip-path="url(#p90e4613bf7)" style="fill: none; stroke: #000000; stroke-linejoin: miter"/>
   </g>
  </g>
  <g id="axes_19">
   <g id="patch_17">
    <path d="M 300.056152 30.309021 
Q 299.568786 30.42149 299.981172 30.833876 
Q 300.356069 31.208772 300.431048 30.946345 
Q 300.468538 30.871366 300.393559 30.646428 
Q 300.393559 30.458979 300.318579 30.42149 
Q 300.2436 30.384 300.112386 30.42149 
Q 299.981172 30.458979 299.831214 30.42149 
L 299.718745 30.646428 
M 300.618497 33.345683 
Q 301.668207 37.731972 302.193062 40.13131 
Q 302.717917 42.530648 303.167793 46.317103 
Q 303.617669 50.103559 303.430221 53.25269 
Q 303.430221 53.440138 303.430221 54.021228 
Q 303.430221 54.602317 303.430221 54.902234 
Q 303.430221 55.202152 303.411476 55.783241 
Q 303.392731 56.364331 303.317752 56.701738 
Q 303.242772 57.039145 303.130303 57.52651 
Q 303.017834 58.013876 302.811641 58.313793 
Q 302.605448 58.61371 302.343021 58.894883 
Q 302.080593 59.176055 301.705697 59.307269 
Q 301.3308 59.438483 300.843434 59.438483 
Q 299.868703 59.438483 299.11891 59.251034 
Q 298.369117 59.063586 297.506855 58.707434 
Q 296.644593 58.351283 296.007269 58.201324 
L 295.782331 57.751448 
" clip-path="url(#pc863560d51)" style="fill: none; stroke: #000000; stroke-linejoin: miter"/>
   </g>
  </g>
  <g id="axes_20">
   <g id="patch_18">
    <path d="M 311.288772 35.145186 
Q 311.288772 35.145186 311.288772 35.595062 
Q 311.288772 36.269876 311.176303 37.619503 
Q 311.063834 38.969131 311.063834 39.643945 
Q 311.063834 41.930814 312.300993 43.599103 
Q 313.538152 45.267393 315.675062 45.267393 
Q 317.062179 45.154924 317.830717 43.917766 
Q 318.599255 42.680607 318.749214 41.237255 
Q 318.899172 39.793903 319.1616 37.9944 
Q 319.424028 36.194897 319.836414 35.370124 
Q 319.986372 35.070207 319.986372 35.670041 
Q 319.986372 36.269876 319.723945 38.706703 
Q 319.499007 41.031062 319.499007 41.555917 
Q 319.349048 42.643117 319.686455 43.767807 
Q 320.023862 44.892497 320.736166 45.6048 
" clip-path="url(#pac13306faa)" style="fill: none; stroke: #000000; stroke-linejoin: miter"/>
   </g>
  </g>
  <g id="axes_21">
   <g id="patch_19">
    <path d="M 328.613462 32.783338 
Q 329.138317 34.507862 329.269531 36.457324 
Q 329.400745 38.406786 329.325766 40.956083 
Q 329.250786 43.505379 329.288276 44.705048 
L 329.400745 46.054676 
L 329.400745 45.829738 
Q 329.400745 44.667559 329.119572 42.30571 
Q 328.8384 39.943862 328.8384 38.744193 
Q 328.8384 36.419834 329.850621 34.882759 
Q 330.862841 33.345683 332.887283 33.345683 
Q 333.599586 33.345683 333.936993 33.626855 
Q 334.2744 33.908028 334.536828 34.432883 
Q 334.799255 34.957738 335.136662 35.257655 
L 335.586538 36.832221 
" clip-path="url(#pcb0add1079)" style="fill: none; stroke: #000000; stroke-linejoin: miter"/>
   </g>
  </g>
  <g id="axes_22">
   <g id="patch_20">
    <path d="M 342.057798 38.160826 
Q 345.030275 39.535596 349.749083 39.721376 
Q 351.272477 39.721376 351.959862 38.550963 
Q 352.647248 37.38055 352.647248 35.82 
Q 352.647248 35.299817 352.554358 34.909679 
Q 352.461468 34.519541 352.219954 34.296606 
Q 351.97844 34.07367 351.811239 33.943624 
Q 351.644037 33.813578 351.198165 33.757844 
Q 350.752294 33.70211 350.547936 33.683532 
Q 350.343578 33.664954 349.767661 33.683532 
Q 349.191743 33.70211 348.968807 33.70211 
Q 346.925229 33.70211 345.438991 35.578486 
Q 343.952752 37.454862 343.952752 39.609908 
Q 343.952752 42.619541 345.884862 44.570229 
Q 347.816972 46.520917 350.863761 46.520917 
Q 353.018807 46.818165 354.542202 44.29156 
" clip-path="url(#p07a2cb01aa)" style="fill: none; stroke: #000000; stroke-linejoin: miter"/>
   </g>
  </g>
  <g id="axes_23">
   <g id="patch_21">
    <path d="M 368.099007 39.568966 
Q 366.749379 38.181848 364.5 38.444276 
Q 361.650786 38.444276 360.488607 39.793903 
Q 359.326428 41.143531 359.326428 44.067724 
Q 359.326428 45.56731 360.619821 46.279614 
Q 361.913214 46.991917 363.487779 46.991917 
Q 364.799917 46.991917 365.812138 45.736014 
Q 366.824359 44.48011 367.405448 42.30571 
Q 367.986538 40.13131 368.361434 37.938166 
Q 368.736331 35.745021 368.88629 33.045766 
Q 369.036248 30.34651 369.073738 28.978138 
Q 369.111228 27.609766 369.111228 26.185159 
Q 368.88629 26.260138 368.88629 29.896634 
L 368.88629 44.292662 
L 369.673572 48.229076 
" clip-path="url(#pcad8045b75)" style="fill: none; stroke: #000000; stroke-linejoin: miter"/>
   </g>
  </g>
  <g id="axes_24"/>
  <g id="axes_25">
   <g id="patch_22">
    <path d="M 402.443923 36.441748 
Q 401.234968 35.094627 397.262687 35.094627 
Q 395.742857 35.094627 394.965672 35.146439 
Q 394.188486 35.198252 393.18678 35.440043 
Q 392.185075 35.681834 391.701493 36.182687 
Q 391.21791 36.683539 390.872495 37.616162 
Q 390.527079 38.548785 390.527079 39.964989 
Q 390.527079 42.037484 391.943284 43.280981 
Q 393.359488 44.524478 395.293817 44.524478 
Q 397.953518 44.524478 400.716844 38.721493 
Q 402.063966 35.854542 402.063966 35.82 
Q 402.409382 35.578209 402.443923 36.441748 
Q 402.443923 37.512537 402.858422 40.362217 
Q 403.272921 43.211898 403.272921 44.524478 
" clip-path="url(#p0c1942b532)" style="fill: none; stroke: #000000; stroke-linejoin: miter"/>
   </g>
  </g>
  <g id="axes_26"/>
  <g id="axes_27">
   <g id="patch_23">
    <path d="M 428.906359 28.621986 
Q 429.131297 30.34651 429.206276 32.146014 
Q 429.281255 33.945517 429.26251 36.551048 
Q 429.243766 39.156579 429.243766 40.093821 
Q 429.243766 40.13131 429.468703 45.829738 
L 429.693641 46.841959 
" clip-path="url(#pb847d9a403)" style="fill: none; stroke: #000000; stroke-linejoin: miter"/>
   </g>
  </g>
  <g id="axes_28">
   <g id="patch_24">
    <path d="M 446.118579 29.071862 
Q 445.743683 29.146841 445.612469 29.577972 
Q 445.481255 30.009103 445.556234 30.42149 
Q 445.556234 30.571448 445.593724 30.702662 
Q 445.631214 30.833876 445.687448 30.89011 
Q 445.743683 30.946345 445.799917 31.040069 
Q 445.856152 31.133793 445.893641 31.208772 
L 446.00611 29.859145 
M 446.00611 34.020497 
Q 445.106359 39.006621 444.881421 42.793076 
L 445.331297 45.379862 
L 445.668703 46.054676 
" clip-path="url(#p325a325178)" style="fill: none; stroke: #000000; stroke-linejoin: miter"/>
   </g>
  </g>
  <g id="axes_29">
   <g id="patch_25">
    <path d="M 456.863834 37.95691 
L 457.538648 37.95691 
Q 458.250952 37.95691 459.038234 37.881931 
Q 459.825517 37.806952 460.781503 37.675738 
Q 461.73749 37.544524 462.262345 37.507034 
L 466.536166 35.82 
M 462.487283 30.42149 
L 462.487283 31.43371 
Q 462.487283 33.383172 461.812469 37.207117 
Q 461.137655 41.031062 461.137655 43.018014 
Q 461.137655 43.805297 461.137655 44.105214 
Q 461.137655 44.405131 461.231379 45.042455 
Q 461.325103 45.679779 461.512552 45.960952 
Q 461.7 46.242124 462.093641 46.485807 
Q 462.487283 46.72949 463.049628 46.72949 
Q 463.162097 46.692 463.480759 46.72949 
Q 463.799421 46.766979 463.986869 46.710745 
Q 464.174317 46.65451 464.174317 46.392083 
" clip-path="url(#p2e4179b34c)" style="fill: none; stroke: #000000; stroke-linejoin: miter"/>
   </g>
  </g>
  <g id="axes_30">
   <g id="patch_26">
    <path d="M 473.063834 37.95691 
L 473.738648 37.95691 
Q 474.450952 37.95691 475.238234 37.881931 
Q 476.025517 37.806952 476.981503 37.675738 
Q 477.93749 37.544524 478.462345 37.507034 
L 482.736166 35.82 
M 478.687283 30.42149 
L 478.687283 31.43371 
Q 478.687283 33.383172 478.012469 37.207117 
Q 477.337655 41.031062 477.337655 43.018014 
Q 477.337655 43.805297 477.337655 44.105214 
Q 477.337655 44.405131 477.431379 45.042455 
Q 477.525103 45.679779 477.712552 45.960952 
Q 477.9 46.242124 478.293641 46.485807 
Q 478.687283 46.72949 479.249628 46.72949 
Q 479.362097 46.692 479.680759 46.72949 
Q 479.999421 46.766979 480.186869 46.710745 
Q 480.374317 46.65451 480.374317 46.392083 
" clip-path="url(#p162e49404f)" style="fill: none; stroke: #000000; stroke-linejoin: miter"/>
   </g>
  </g>
  <g id="axes_31">
   <g id="patch_27">
    <path d="M 493.706359 28.621986 
Q 493.931297 30.34651 494.006276 32.146014 
Q 494.081255 33.945517 494.06251 36.551048 
Q 494.043766 39.156579 494.043766 40.093821 
Q 494.043766 40.13131 494.268703 45.829738 
L 494.493641 46.841959 
" clip-path="url(#p53c1a57140)" style="fill: none; stroke: #000000; stroke-linejoin: miter"/>
   </g>
  </g>
  <g id="axes_32">
   <g id="patch_28">
    <path d="M 504.057798 38.160826 
Q 507.030275 39.535596 511.749083 39.721376 
Q 513.272477 39.721376 513.959862 38.550963 
Q 514.647248 37.38055 514.647248 35.82 
Q 514.647248 35.299817 514.554358 34.909679 
Q 514.461468 34.519541 514.219954 34.296606 
Q 513.97844 34.07367 513.811239 33.943624 
Q 513.644037 33.813578 513.198165 33.757844 
Q 512.752294 33.70211 512.547936 33.683532 
Q 512.343578 33.664954 511.767661 33.683532 
Q 511.191743 33.70211 510.968807 33.70211 
Q 508.925229 33.70211 507.438991 35.578486 
Q 505.952752 37.454862 505.952752 39.609908 
Q 505.952752 42.619541 507.884862 44.570229 
Q 509.816972 46.520917 512.863761 46.520917 
Q 515.018807 46.818165 516.542202 44.29156 
" clip-path="url(#p7d883ad4f3)" style="fill: none; stroke: #000000; stroke-linejoin: miter"/>
   </g>
  </g>
  <g id="axes_33"/>
  <g id="axes_34">
   <g id="patch_29">
    <path d="M 547.487191 39.096404 
Q 547.23236 39.023596 546.26764 38.623146 
Q 545.302921 38.222697 544.64764 38.077079 
Q 543.99236 37.931461 543.337079 38.00427 
Q 540.715955 38.00427 539.077753 40.388764 
Q 537.439551 42.773258 537.439551 45.430787 
Q 537.439551 47.068989 542.681798 47.068989 
Q 544.247191 47.068989 545.575955 45.558202 
Q 546.904719 44.047416 547.578202 42.172584 
Q 548.251685 40.297753 548.251685 38.768764 
Q 548.251685 37.27618 548.215281 36.984944 
L 548.142472 38.077079 
Q 548.142472 38.550337 548.142472 38.987191 
Q 548.178876 40.188539 548.379101 42.281798 
Q 548.579326 44.375056 548.743146 46.049663 
Q 548.906966 47.72427 548.943371 49.872135 
Q 548.979775 52.02 548.815955 53.658202 
Q 548.652135 55.296404 548.087865 56.971011 
Q 547.523596 58.645618 546.595281 59.737753 
Q 545.666966 60.829888 544.065169 61.521573 
Q 542.463371 62.213258 540.315506 62.213258 
Q 538.677303 62.213258 537.585169 61.466966 
Q 536.493034 60.720674 536.493034 59.155281 
Q 536.420225 58.936854 536.456629 58.936854 
Q 536.493034 58.936854 536.602247 58.936854 
Q 536.711461 58.936854 536.711461 58.82764 
" clip-path="url(#p81f6894b45)" style="fill: none; stroke: #000000; stroke-linejoin: miter"/>
   </g>
  </g>
  <g id="axes_35">
   <g id="patch_30">
    <path d="M 558.506359 28.621986 
Q 558.731297 30.34651 558.806276 32.146014 
Q 558.881255 33.945517 558.86251 36.551048 
Q 558.843766 39.156579 558.843766 40.093821 
Q 558.843766 40.13131 559.068703 45.829738 
L 559.293641 46.841959 
" clip-path="url(#pf2f4554b9b)" style="fill: none; stroke: #000000; stroke-linejoin: miter"/>
   </g>
  </g>
  <g id="axes_36">
   <g id="patch_31">
    <path d="M 578.3616 35.032717 
Q 577.31189 34.582841 576.337159 34.69531 
Q 573.300497 35.032717 571.388524 36.701007 
Q 569.476552 38.369297 569.476552 41.330979 
Q 569.476552 43.917766 571.482248 45.6048 
Q 573.487945 47.291834 576.112221 47.291834 
Q 578.474069 47.291834 579.598759 45.361117 
Q 580.723448 43.4304 580.723448 40.881103 
Q 580.723448 39.643945 580.311062 38.706703 
Q 579.898676 37.769462 579.373821 37.300841 
Q 578.848966 36.832221 578.099172 36.119917 
Q 577.349379 35.407614 576.899503 34.69531 
L 575.662345 34.245434 
" clip-path="url(#pf438d161a2)" style="fill: none; stroke: #000000; stroke-linejoin: miter"/>
   </g>
  </g>
  <g id="axes_37">
   <g id="patch_32">
    <path d="M 584.916102 36.437797 
L 586.151695 44.778051 
Q 586.254661 45.567458 586.254661 45.60178 
Q 586.254661 45.704746 586.563559 45.704746 
Q 587.42161 45.704746 588.142373 44.778051 
Q 588.863136 43.851356 589.275 42.718729 
Q 589.686864 41.586102 590.201695 40.659407 
Q 590.716525 39.732712 591.197034 39.732712 
Q 591.814831 39.732712 592.449788 40.607924 
Q 593.084746 41.483136 593.548093 42.512797 
Q 594.011441 43.542458 594.68072 44.417669 
Q 595.35 45.292881 596.036441 45.292881 
Q 596.311017 43.782712 596.740042 39.69839 
Q 597.169068 35.614068 597.683898 33.554746 
" clip-path="url(#pdc0138843c)" style="fill: none; stroke: #000000; stroke-linejoin: miter"/>
   </g>
  </g>
  <g id="axes_38">
   <g id="patch_33">
    <path d="M 605.194386 35.595062 
L 609.805614 35.707531 
" clip-path="url(#p3f8e172dfe)" style="fill: none; stroke: #000000; stroke-linejoin: miter"/>
   </g>
  </g>
 </g>
 <defs>
  <clipPath id="pfae4d1b8f6">
   <rect x="0" y="20.054899" width="16.2" height="31.530201"/>
  </clipPath>
  <clipPath id="p6434e4c8da">
   <rect x="18.938979" y="8.64" width="10.722041" height="54.36"/>
  </clipPath>
  <clipPath id="pf2c883b278">
   <rect x="32.4" y="8.881927" width="16.2" height="53.876147"/>
  </clipPath>
  <clipPath id="pd6c425c9b0">
   <rect x="64.8" y="9.426742" width="16.2" height="52.786517"/>
  </clipPath>
  <clipPath id="p7dfbed328e">
   <rect x="83.738979" y="8.64" width="10.722041" height="54.36"/>
  </clipPath>
  <clipPath id="p41ad57675a">
   <rect x="97.802069" y="8.64" width="14.995862" height="54.36"/>
  </clipPath>
  <clipPath id="p3b630db92b">
   <rect x="115.182993" y="8.64" width="12.634014" height="54.36"/>
  </clipPath>
  <clipPath id="p4aaeb2141b">
   <rect x="130.989352" y="8.64" width="13.421297" height="54.36"/>
  </clipPath>
  <clipPath id="pf010822212">
   <rect x="163.389352" y="8.64" width="13.421297" height="54.36"/>
  </clipPath>
  <clipPath id="p8e4dff7419">
   <rect x="180.938979" y="8.64" width="10.722041" height="54.36"/>
  </clipPath>
  <clipPath id="pa71a3fd2ae">
   <rect x="194.4" y="8.881927" width="16.2" height="53.876147"/>
  </clipPath>
  <clipPath id="p6f5e09a470">
   <rect x="212.364248" y="8.64" width="12.671503" height="54.36"/>
  </clipPath>
  <clipPath id="p761b1c73cf">
   <rect x="243" y="11.850612" width="16.2" height="47.938776"/>
  </clipPath>
  <clipPath id="pea63549c2b">
   <rect x="259.802069" y="8.64" width="14.995862" height="54.36"/>
  </clipPath>
  <clipPath id="p90e4613bf7">
   <rect x="277.164248" y="8.64" width="12.671503" height="54.36"/>
  </clipPath>
  <clipPath id="pc863560d51">
   <rect x="293.907848" y="8.64" width="11.584303" height="54.36"/>
  </clipPath>
  <clipPath id="pac13306faa">
   <rect x="309.189352" y="8.64" width="13.421297" height="54.36"/>
  </clipPath>
  <clipPath id="pcb0add1079">
   <rect x="326.738979" y="8.64" width="10.722041" height="54.36"/>
  </clipPath>
  <clipPath id="p07a2cb01aa">
   <rect x="340.2" y="8.881927" width="16.2" height="53.876147"/>
  </clipPath>
  <clipPath id="pcad8045b75">
   <rect x="357.451945" y="8.64" width="14.09611" height="54.36"/>
  </clipPath>
  <clipPath id="p0c1942b532">
   <rect x="388.8" y="10.777356" width="16.2" height="50.085288"/>
  </clipPath>
  <clipPath id="pb847d9a403">
   <rect x="427.031876" y="8.64" width="4.536248" height="54.36"/>
  </clipPath>
  <clipPath id="p325a325178">
   <rect x="443.006938" y="8.64" width="4.986124" height="54.36"/>
  </clipPath>
  <clipPath id="p2e4179b34c">
   <rect x="454.989352" y="8.64" width="13.421297" height="54.36"/>
  </clipPath>
  <clipPath id="p162e49404f">
   <rect x="471.189352" y="8.64" width="13.421297" height="54.36"/>
  </clipPath>
  <clipPath id="p53c1a57140">
   <rect x="491.831876" y="8.64" width="4.536248" height="54.36"/>
  </clipPath>
  <clipPath id="p7d883ad4f3">
   <rect x="502.2" y="8.881927" width="16.2" height="53.876147"/>
  </clipPath>
  <clipPath id="p81f6894b45">
   <rect x="534.6" y="9.426742" width="16.2" height="52.786517"/>
  </clipPath>
  <clipPath id="pf2f4554b9b">
   <rect x="556.631876" y="8.64" width="4.536248" height="54.36"/>
  </clipPath>
  <clipPath id="pf438d161a2">
   <rect x="567.602069" y="8.64" width="14.995862" height="54.36"/>
  </clipPath>
  <clipPath id="pdc0138843c">
   <rect x="583.2" y="10.936525" width="16.2" height="49.766949"/>
  </clipPath>
  <clipPath id="p3f8e172dfe">
   <rect x="603.319903" y="8.64" width="8.360193" height="54.36"/>
  </clipPath>
 </defs>
</svg>
