<?xml version="1.0" encoding="utf-8" standalone="no"?>
<!DOCTYPE svg PUBLIC "-//W3C//DTD SVG 1.1//EN"
  "http://www.w3.org/Graphics/SVG/1.1/DTD/svg11.dtd">
<svg xmlns:xlink="http://www.w3.org/1999/xlink" width="72pt" height="72pt" viewBox="0 0 72 72" xmlns="http://www.w3.org/2000/svg" version="1.1">
 <metadata>
  <rdf:RDF xmlns:dc="http://purl.org/dc/elements/1.1/" xmlns:cc="http://creativecommons.org/ns#" xmlns:rdf="http://www.w3.org/1999/02/22-rdf-syntax-ns#">
   <cc:Work>
    <dc:type rdf:resource="http://purl.org/dc/dcmitype/StillImage"/>
    <dc:date>2024-01-04T18:45:30.725387</dc:date>
    <dc:format>image/svg+xml</dc:format>
    <dc:creator>
     <cc:Agent>
      <dc:title>Matplotlib v3.7.1, https://matplotlib.org/</dc:title>
     </cc:Agent>
    </dc:creator>
   </cc:Work>
  </rdf:RDF>
 </metadata>
 <defs>
  <style type="text/css">*{stroke-linejoin: round; stroke-linecap: butt}</style>
 </defs>
 <g id="figure_1">
  <g id="patch_1">
   <path d="M 0 72 
L 72 72 
L 72 0 
L 0 0 
z
" style="fill: #8fff9f"/>
  </g>
  <g id="axes_1">
   <g id="patch_2">
    <path d="M 1.857798 38.160826 
Q 4.830275 39.535596 9.549083 39.721376 
Q 11.072477 39.721376 11.759862 38.550963 
Q 12.447248 37.38055 12.447248 35.82 
Q 12.447248 35.299817 12.354358 34.909679 
Q 12.261468 34.519541 12.019954 34.296606 
Q 11.77844 34.07367 11.611239 33.943624 
Q 11.444037 33.813578 10.998165 33.757844 
Q 10.552294 33.70211 10.347936 33.683532 
Q 10.143578 33.664954 9.567661 33.683532 
Q 8.991743 33.70211 8.768807 33.70211 
Q 6.725229 33.70211 5.238991 35.578486 
Q 3.752752 37.454862 3.752752 39.609908 
Q 3.752752 42.619541 5.684862 44.570229 
Q 7.616972 46.520917 10.663761 46.520917 
Q 12.818807 46.818165 14.342202 44.29156 
" clip-path="url(#p0a0de2cdf4)" style="fill: none; stroke: #000000; stroke-linejoin: miter"/>
   </g>
  </g>
  <g id="axes_2">
   <g id="patch_3">
    <path d="M 20.813462 32.783338 
Q 21.338317 34.507862 21.469531 36.457324 
Q 21.600745 38.406786 21.525766 40.956083 
Q 21.450786 43.505379 21.488276 44.705048 
L 21.600745 46.054676 
L 21.600745 45.829738 
Q 21.600745 44.667559 21.319572 42.30571 
Q 21.0384 39.943862 21.0384 38.744193 
Q 21.0384 36.419834 22.050621 34.882759 
Q 23.062841 33.345683 25.087283 33.345683 
Q 25.799586 33.345683 26.136993 33.626855 
Q 26.4744 33.908028 26.736828 34.432883 
Q 26.999255 34.957738 27.336662 35.257655 
L 27.786538 36.832221 
" clip-path="url(#p719d69bc3b)" style="fill: none; stroke: #000000; stroke-linejoin: miter"/>
   </g>
  </g>
  <g id="axes_3">
   <g id="patch_4">
    <path d="M 36.057476 43.917766 
Q 36.357393 44.180193 37.369614 45.154924 
Q 38.381834 46.129655 38.944179 46.560786 
Q 39.506524 46.991917 40.53749 47.385559 
Q 41.568455 47.7792 42.580676 47.629241 
Q 43.25549 47.629241 43.72411 47.404303 
Q 44.192731 47.179366 44.417669 46.879448 
Q 44.642607 46.579531 44.773821 45.979697 
Q 44.905034 45.379862 44.923779 44.967476 
Q 44.942524 44.55509 44.942524 43.805297 
Q 44.942524 42.718097 44.042772 42.043283 
Q 43.143021 41.368469 41.849628 41.031062 
Q 40.556234 40.693655 39.262841 40.300014 
Q 37.969448 39.906372 37.069697 38.987876 
Q 36.169945 38.069379 36.169945 36.607283 
Q 36.169945 36.082428 36.338648 35.726276 
Q 36.507352 35.370124 36.900993 35.145186 
Q 37.294634 34.920248 37.575807 34.807779 
Q 37.856979 34.69531 38.513048 34.639076 
Q 39.169117 34.582841 39.356566 34.582841 
Q 39.544014 34.582841 40.218828 34.582841 
Q 41.418497 34.582841 41.999586 34.995228 
Q 42.580676 35.407614 42.899338 36.026193 
Q 43.218 36.644772 43.480428 36.832221 
" clip-path="url(#p38d0532e2b)" style="fill: none; stroke: #000000; stroke-linejoin: miter"/>
   </g>
  </g>
  <g id="axes_4">
   <g id="patch_5">
    <path d="M 56.587531 45.979697 
Q 56.550041 46.017186 56.418828 46.054676 
Q 56.287614 46.092166 56.325103 46.167145 
Q 56.325103 46.579531 56.7 46.579531 
Q 57.037407 46.579531 57.037407 46.092166 
Q 57.112386 45.867228 56.831214 45.754759 
Q 56.550041 45.64229 56.362593 45.754759 
" clip-path="url(#pc5bd4a31b3)" style="fill: none; stroke: #000000; stroke-linejoin: miter"/>
   </g>
  </g>
 </g>
 <defs>
  <clipPath id="p0a0de2cdf4">
   <rect x="0" y="8.881927" width="16.2" height="53.876147"/>
  </clipPath>
  <clipPath id="p719d69bc3b">
   <rect x="18.938979" y="8.64" width="10.722041" height="54.36"/>
  </clipPath>
  <clipPath id="p38d0532e2b">
   <rect x="34.182993" y="8.64" width="12.634014" height="54.36"/>
  </clipPath>
  <clipPath id="pc5bd4a31b3">
   <rect x="54.413131" y="8.64" width="4.573738" height="54.36"/>
  </clipPath>
 </defs>
</svg>
