<?xml version="1.0" encoding="utf-8" standalone="no"?>
<!DOCTYPE svg PUBLIC "-//W3C//DTD SVG 1.1//EN"
  "http://www.w3.org/Graphics/SVG/1.1/DTD/svg11.dtd">
<svg xmlns:xlink="http://www.w3.org/1999/xlink" width="72pt" height="72pt" viewBox="0 0 72 72" xmlns="http://www.w3.org/2000/svg" version="1.1">
 <metadata>
  <rdf:RDF xmlns:dc="http://purl.org/dc/elements/1.1/" xmlns:cc="http://creativecommons.org/ns#" xmlns:rdf="http://www.w3.org/1999/02/22-rdf-syntax-ns#">
   <cc:Work>
    <dc:type rdf:resource="http://purl.org/dc/dcmitype/StillImage"/>
    <dc:date>2024-01-04T18:45:49.680743</dc:date>
    <dc:format>image/svg+xml</dc:format>
    <dc:creator>
     <cc:Agent>
      <dc:title>Matplotlib v3.7.1, https://matplotlib.org/</dc:title>
     </cc:Agent>
    </dc:creator>
   </cc:Work>
  </rdf:RDF>
 </metadata>
 <defs>
  <style type="text/css">*{stroke-linejoin: round; stroke-linecap: butt}</style>
 </defs>
 <g id="figure_1">
  <g id="patch_1">
   <path d="M 0 72 
L 72 72 
L 72 0 
L 0 0 
z
" style="fill: #8fff9f"/>
  </g>
  <g id="axes_1">
   <g id="patch_2">
    <path d="M 11.024193 26.934952 
Q 11.024193 26.934952 10.011972 26.934952 
Q 5.063338 26.934952 5.063338 31.771117 
Q 5.063338 32.858317 5.438234 33.102 
Q 5.813131 33.345683 6.937821 33.345683 
Q 7.125269 33.345683 7.200248 33.345683 
Q 8.774814 33.345683 9.505862 32.633379 
Q 10.23691 31.921076 10.293145 31.002579 
Q 10.349379 30.084083 10.480593 28.809434 
Q 10.611807 27.534786 11.024193 26.822483 
L 11.136662 46.054676 
" clip-path="url(#p113884e3fa)" style="fill: none; stroke: #000000; stroke-linejoin: miter"/>
   </g>
  </g>
  <g id="axes_2">
   <g id="patch_3">
    <path d="M 24.187531 45.979697 
Q 24.150041 46.017186 24.018828 46.054676 
Q 23.887614 46.092166 23.925103 46.167145 
Q 23.925103 46.579531 24.3 46.579531 
Q 24.637407 46.579531 24.637407 46.092166 
Q 24.712386 45.867228 24.431214 45.754759 
Q 24.150041 45.64229 23.962593 45.754759 
" clip-path="url(#p28615958a3)" style="fill: none; stroke: #000000; stroke-linejoin: miter"/>
   </g>
  </g>
  <g id="axes_3">
   <g id="patch_4">
    <path d="M 40.387531 45.979697 
Q 40.350041 46.017186 40.218828 46.054676 
Q 40.087614 46.092166 40.125103 46.167145 
Q 40.125103 46.579531 40.5 46.579531 
Q 40.837407 46.579531 40.837407 46.092166 
Q 40.912386 45.867228 40.631214 45.754759 
Q 40.350041 45.64229 40.162593 45.754759 
" clip-path="url(#pf4dbc71e64)" style="fill: none; stroke: #000000; stroke-linejoin: miter"/>
   </g>
  </g>
  <g id="axes_4">
   <g id="patch_5">
    <path d="M 56.587531 45.979697 
Q 56.550041 46.017186 56.418828 46.054676 
Q 56.287614 46.092166 56.325103 46.167145 
Q 56.325103 46.579531 56.7 46.579531 
Q 57.037407 46.579531 57.037407 46.092166 
Q 57.112386 45.867228 56.831214 45.754759 
Q 56.550041 45.64229 56.362593 45.754759 
" clip-path="url(#pa7e33da345)" style="fill: none; stroke: #000000; stroke-linejoin: miter"/>
   </g>
  </g>
 </g>
 <defs>
  <clipPath id="p113884e3fa">
   <rect x="3.188855" y="8.64" width="9.82229" height="54.36"/>
  </clipPath>
  <clipPath id="p28615958a3">
   <rect x="22.013131" y="8.64" width="4.573738" height="54.36"/>
  </clipPath>
  <clipPath id="pf4dbc71e64">
   <rect x="38.213131" y="8.64" width="4.573738" height="54.36"/>
  </clipPath>
  <clipPath id="pa7e33da345">
   <rect x="54.413131" y="8.64" width="4.573738" height="54.36"/>
  </clipPath>
 </defs>
</svg>
