<?xml version="1.0" encoding="utf-8" standalone="no"?>
<!DOCTYPE svg PUBLIC "-//W3C//DTD SVG 1.1//EN"
  "http://www.w3.org/Graphics/SVG/1.1/DTD/svg11.dtd">
<svg xmlns:xlink="http://www.w3.org/1999/xlink" width="630pt" height="72pt" viewBox="0 0 630 72" xmlns="http://www.w3.org/2000/svg" version="1.1">
 <metadata>
  <rdf:RDF xmlns:dc="http://purl.org/dc/elements/1.1/" xmlns:cc="http://creativecommons.org/ns#" xmlns:rdf="http://www.w3.org/1999/02/22-rdf-syntax-ns#">
   <cc:Work>
    <dc:type rdf:resource="http://purl.org/dc/dcmitype/StillImage"/>
    <dc:date>2024-01-04T18:45:40.133577</dc:date>
    <dc:format>image/svg+xml</dc:format>
    <dc:creator>
     <cc:Agent>
      <dc:title>Matplotlib v3.7.1, https://matplotlib.org/</dc:title>
     </cc:Agent>
    </dc:creator>
   </cc:Work>
  </rdf:RDF>
 </metadata>
 <defs>
  <style type="text/css">*{stroke-linejoin: round; stroke-linecap: butt}</style>
 </defs>
 <g id="figure_1">
  <g id="patch_1">
   <path d="M 0 72 
L 630 72 
L 630 0 
L 0 0 
z
" style="fill: #8fff9f"/>
  </g>
  <g id="axes_1">
   <g id="patch_2">
    <path d="M 13.356735 34.365306 
Q 13.356735 34.365306 12.860816 34.365306 
Q 12.067347 34.365306 10.579592 34.067755 
Q 9.091837 33.770204 8.298367 33.770204 
Q 5.521224 33.770204 3.587143 35.224898 
Q 1.653061 36.679592 1.653061 39.423673 
Q 1.653061 40.94449 3.140816 42.399184 
Q 4.628571 43.853878 6.562653 44.663878 
Q 8.496735 45.473878 9.98449 45.473878 
Q 10.910204 45.473878 11.60449 45.110204 
Q 12.298776 44.746531 13.042653 44.118367 
Q 13.786531 43.490204 14.348571 43.192653 
L 14.546939 42.696735 
" clip-path="url(#pd4c14206cb)" style="fill: none; stroke: #000000; stroke-linejoin: miter"/>
   </g>
  </g>
  <g id="axes_2">
   <g id="patch_3">
    <path d="M 29.843923 36.441748 
Q 28.634968 35.094627 24.662687 35.094627 
Q 23.142857 35.094627 22.365672 35.146439 
Q 21.588486 35.198252 20.58678 35.440043 
Q 19.585075 35.681834 19.101493 36.182687 
Q 18.61791 36.683539 18.272495 37.616162 
Q 17.927079 38.548785 17.927079 39.964989 
Q 17.927079 42.037484 19.343284 43.280981 
Q 20.759488 44.524478 22.693817 44.524478 
Q 25.353518 44.524478 28.116844 38.721493 
Q 29.463966 35.854542 29.463966 35.82 
Q 29.809382 35.578209 29.843923 36.441748 
Q 29.843923 37.512537 30.258422 40.362217 
Q 30.672921 43.211898 30.672921 44.524478 
" clip-path="url(#p13bbbf0656)" style="fill: none; stroke: #000000; stroke-linejoin: miter"/>
   </g>
  </g>
  <g id="axes_3">
   <g id="patch_4">
    <path d="M 36.038731 37.282097 
L 36.038731 37.844441 
Q 36.301159 39.868883 36.338648 41.312234 
Q 36.376138 42.755586 36.282414 44.667559 
Q 36.18869 46.579531 36.18869 48.191586 
L 36.263669 39.643945 
Q 36.263669 38.144359 37.856979 37.507034 
Q 39.45029 36.86971 40.874897 37.282097 
Q 42.786869 37.844441 43.705366 39.04411 
Q 44.623862 40.243779 44.680097 41.668386 
Q 44.736331 43.092993 44.773821 44.817517 
Q 44.81131 46.542041 44.961269 48.191586 
" clip-path="url(#pc842c38dac)" style="fill: none; stroke: #000000; stroke-linejoin: miter"/>
   </g>
  </g>
  <g id="axes_4">
   <g id="patch_5">
    <path d="M 56.625021 26.147669 
Q 56.587531 26.597545 56.625021 27.384828 
Q 56.66251 27.572276 56.606276 27.965917 
Q 56.550041 28.359559 56.587531 28.678221 
Q 56.625021 28.996883 56.849959 29.184331 
" clip-path="url(#p0d46762d27)" style="fill: none; stroke: #000000; stroke-linejoin: miter"/>
   </g>
  </g>
  <g id="axes_5">
   <g id="patch_6">
    <path d="M 68.063834 37.95691 
L 68.738648 37.95691 
Q 69.450952 37.95691 70.238234 37.881931 
Q 71.025517 37.806952 71.981503 37.675738 
Q 72.93749 37.544524 73.462345 37.507034 
L 77.736166 35.82 
M 73.687283 30.42149 
L 73.687283 31.43371 
Q 73.687283 33.383172 73.012469 37.207117 
Q 72.337655 41.031062 72.337655 43.018014 
Q 72.337655 43.805297 72.337655 44.105214 
Q 72.337655 44.405131 72.431379 45.042455 
Q 72.525103 45.679779 72.712552 45.960952 
Q 72.9 46.242124 73.293641 46.485807 
Q 73.687283 46.72949 74.249628 46.72949 
Q 74.362097 46.692 74.680759 46.72949 
Q 74.999421 46.766979 75.186869 46.710745 
Q 75.374317 46.65451 75.374317 46.392083 
" clip-path="url(#p14a8b90cab)" style="fill: none; stroke: #000000; stroke-linejoin: miter"/>
   </g>
  </g>
  <g id="axes_6"/>
  <g id="axes_7">
   <g id="patch_7">
    <path d="M 100.463834 37.95691 
L 101.138648 37.95691 
Q 101.850952 37.95691 102.638234 37.881931 
Q 103.425517 37.806952 104.381503 37.675738 
Q 105.33749 37.544524 105.862345 37.507034 
L 110.136166 35.82 
M 106.087283 30.42149 
L 106.087283 31.43371 
Q 106.087283 33.383172 105.412469 37.207117 
Q 104.737655 41.031062 104.737655 43.018014 
Q 104.737655 43.805297 104.737655 44.105214 
Q 104.737655 44.405131 104.831379 45.042455 
Q 104.925103 45.679779 105.112552 45.960952 
Q 105.3 46.242124 105.693641 46.485807 
Q 106.087283 46.72949 106.649628 46.72949 
Q 106.762097 46.692 107.080759 46.72949 
Q 107.399421 46.766979 107.586869 46.710745 
Q 107.774317 46.65451 107.774317 46.392083 
" clip-path="url(#p2a12d582e7)" style="fill: none; stroke: #000000; stroke-linejoin: miter"/>
   </g>
  </g>
  <g id="axes_8">
   <g id="patch_8">
    <path d="M 127.043923 36.441748 
Q 125.834968 35.094627 121.862687 35.094627 
Q 120.342857 35.094627 119.565672 35.146439 
Q 118.788486 35.198252 117.78678 35.440043 
Q 116.785075 35.681834 116.301493 36.182687 
Q 115.81791 36.683539 115.472495 37.616162 
Q 115.127079 38.548785 115.127079 39.964989 
Q 115.127079 42.037484 116.543284 43.280981 
Q 117.959488 44.524478 119.893817 44.524478 
Q 122.553518 44.524478 125.316844 38.721493 
Q 126.663966 35.854542 126.663966 35.82 
Q 127.009382 35.578209 127.043923 36.441748 
Q 127.043923 37.512537 127.458422 40.362217 
Q 127.872921 43.211898 127.872921 44.524478 
" clip-path="url(#p26dcfcd04b)" style="fill: none; stroke: #000000; stroke-linejoin: miter"/>
   </g>
  </g>
  <g id="axes_9">
   <g id="patch_9">
    <path d="M 135.731793 37.169628 
Q 137.756234 39.194069 139.518248 41.76211 
Q 141.280262 44.330152 142.142524 46.72949 
M 138.768455 31.321241 
L 138.768455 31.546179 
Q 138.768455 32.333462 138.131131 33.514386 
Q 137.493807 34.69531 136.519076 36.101172 
Q 135.544345 37.507034 135.281917 37.95691 
L 134.044759 39.643945 
M 133.257476 26.710014 
Q 135.094469 36.269876 135.281917 48.641462 
" clip-path="url(#pbb4c9cd315)" style="fill: none; stroke: #000000; stroke-linejoin: miter"/>
   </g>
  </g>
  <g id="axes_10">
   <g id="patch_10">
    <path d="M 147.657798 38.160826 
Q 150.630275 39.535596 155.349083 39.721376 
Q 156.872477 39.721376 157.559862 38.550963 
Q 158.247248 37.38055 158.247248 35.82 
Q 158.247248 35.299817 158.154358 34.909679 
Q 158.061468 34.519541 157.819954 34.296606 
Q 157.57844 34.07367 157.411239 33.943624 
Q 157.244037 33.813578 156.798165 33.757844 
Q 156.352294 33.70211 156.147936 33.683532 
Q 155.943578 33.664954 155.367661 33.683532 
Q 154.791743 33.70211 154.568807 33.70211 
Q 152.525229 33.70211 151.038991 35.578486 
Q 149.552752 37.454862 149.552752 39.609908 
Q 149.552752 42.619541 151.484862 44.570229 
Q 153.416972 46.520917 156.463761 46.520917 
Q 158.618807 46.818165 160.142202 44.29156 
" clip-path="url(#pbb6bc91700)" style="fill: none; stroke: #000000; stroke-linejoin: miter"/>
   </g>
  </g>
  <g id="axes_11"/>
  <g id="axes_12">
   <g id="patch_11">
    <path d="M 186.918579 29.071862 
Q 186.543683 29.146841 186.412469 29.577972 
Q 186.281255 30.009103 186.356234 30.42149 
Q 186.356234 30.571448 186.393724 30.702662 
Q 186.431214 30.833876 186.487448 30.89011 
Q 186.543683 30.946345 186.599917 31.040069 
Q 186.656152 31.133793 186.693641 31.208772 
L 186.80611 29.859145 
M 186.80611 34.020497 
Q 185.906359 39.006621 185.681421 42.793076 
L 186.131297 45.379862 
L 186.468703 46.054676 
" clip-path="url(#p679805186f)" style="fill: none; stroke: #000000; stroke-linejoin: miter"/>
   </g>
  </g>
  <g id="axes_13">
   <g id="patch_12">
    <path d="M 197.663834 37.95691 
L 198.338648 37.95691 
Q 199.050952 37.95691 199.838234 37.881931 
Q 200.625517 37.806952 201.581503 37.675738 
Q 202.53749 37.544524 203.062345 37.507034 
L 207.336166 35.82 
M 203.287283 30.42149 
L 203.287283 31.43371 
Q 203.287283 33.383172 202.612469 37.207117 
Q 201.937655 41.031062 201.937655 43.018014 
Q 201.937655 43.805297 201.937655 44.105214 
Q 201.937655 44.405131 202.031379 45.042455 
Q 202.125103 45.679779 202.312552 45.960952 
Q 202.5 46.242124 202.893641 46.485807 
Q 203.287283 46.72949 203.849628 46.72949 
Q 203.962097 46.692 204.280759 46.72949 
Q 204.599421 46.766979 204.786869 46.710745 
Q 204.974317 46.65451 204.974317 46.392083 
" clip-path="url(#p5238ccc3d0)" style="fill: none; stroke: #000000; stroke-linejoin: miter"/>
   </g>
  </g>
  <g id="axes_14"/>
  <g id="axes_15">
   <g id="patch_13">
    <path d="M 229.763917 36.382345 
Q 229.726428 36.494814 229.857641 36.701007 
Q 229.988855 36.9072 229.876386 37.057159 
L 229.876386 39.306538 
Q 229.876386 40.506207 230.213793 41.724621 
Q 230.5512 42.943034 231.413462 43.93651 
Q 232.275724 44.929986 233.475393 44.929986 
Q 234.712552 44.929986 235.387366 43.861531 
Q 236.062179 42.793076 236.512055 41.143531 
Q 236.961931 39.493986 237.299338 38.969131 
L 238.086621 36.382345 
L 237.861683 42.680607 
L 237.861683 45.154924 
Q 237.861683 47.066897 238.592731 51.00331 
Q 239.323779 54.939724 239.323779 56.964166 
Q 240.073572 59.213545 238.986372 60.188276 
Q 237.899172 61.163007 235.837241 60.78811 
Q 234.037738 60.488193 233.119241 60.169531 
Q 232.200745 59.850869 230.213793 58.988607 
L 230.101324 58.426262 
" clip-path="url(#p6106bbb658)" style="fill: none; stroke: #000000; stroke-linejoin: miter"/>
   </g>
  </g>
  <g id="axes_16">
   <g id="patch_14">
    <path d="M 254.3616 35.032717 
Q 253.31189 34.582841 252.337159 34.69531 
Q 249.300497 35.032717 247.388524 36.701007 
Q 245.476552 38.369297 245.476552 41.330979 
Q 245.476552 43.917766 247.482248 45.6048 
Q 249.487945 47.291834 252.112221 47.291834 
Q 254.474069 47.291834 255.598759 45.361117 
Q 256.723448 43.4304 256.723448 40.881103 
Q 256.723448 39.643945 256.311062 38.706703 
Q 255.898676 37.769462 255.373821 37.300841 
Q 254.848966 36.832221 254.099172 36.119917 
Q 253.349379 35.407614 252.899503 34.69531 
L 251.662345 34.245434 
" clip-path="url(#pbe6f77c081)" style="fill: none; stroke: #000000; stroke-linejoin: miter"/>
   </g>
  </g>
  <g id="axes_17">
   <g id="patch_15">
    <path d="M 262.688772 35.145186 
Q 262.688772 35.145186 262.688772 35.595062 
Q 262.688772 36.269876 262.576303 37.619503 
Q 262.463834 38.969131 262.463834 39.643945 
Q 262.463834 41.930814 263.700993 43.599103 
Q 264.938152 45.267393 267.075062 45.267393 
Q 268.462179 45.154924 269.230717 43.917766 
Q 269.999255 42.680607 270.149214 41.237255 
Q 270.299172 39.793903 270.5616 37.9944 
Q 270.824028 36.194897 271.236414 35.370124 
Q 271.386372 35.070207 271.386372 35.670041 
Q 271.386372 36.269876 271.123945 38.706703 
Q 270.899007 41.031062 270.899007 41.555917 
Q 270.749048 42.643117 271.086455 43.767807 
Q 271.423862 44.892497 272.136166 45.6048 
" clip-path="url(#p8bf0b48bb2)" style="fill: none; stroke: #000000; stroke-linejoin: miter"/>
   </g>
  </g>
  <g id="axes_18">
   <g id="patch_16">
    <path d="M 280.013462 32.783338 
Q 280.538317 34.507862 280.669531 36.457324 
Q 280.800745 38.406786 280.725766 40.956083 
Q 280.650786 43.505379 280.688276 44.705048 
L 280.800745 46.054676 
L 280.800745 45.829738 
Q 280.800745 44.667559 280.519572 42.30571 
Q 280.2384 39.943862 280.2384 38.744193 
Q 280.2384 36.419834 281.250621 34.882759 
Q 282.262841 33.345683 284.287283 33.345683 
Q 284.999586 33.345683 285.336993 33.626855 
Q 285.6744 33.908028 285.936828 34.432883 
Q 286.199255 34.957738 286.536662 35.257655 
L 286.986538 36.832221 
" clip-path="url(#p89db3a176a)" style="fill: none; stroke: #000000; stroke-linejoin: miter"/>
   </g>
  </g>
  <g id="axes_19">
   <g id="patch_17">
    <path d="M 295.257476 43.917766 
Q 295.557393 44.180193 296.569614 45.154924 
Q 297.581834 46.129655 298.144179 46.560786 
Q 298.706524 46.991917 299.73749 47.385559 
Q 300.768455 47.7792 301.780676 47.629241 
Q 302.45549 47.629241 302.92411 47.404303 
Q 303.392731 47.179366 303.617669 46.879448 
Q 303.842607 46.579531 303.973821 45.979697 
Q 304.105034 45.379862 304.123779 44.967476 
Q 304.142524 44.55509 304.142524 43.805297 
Q 304.142524 42.718097 303.242772 42.043283 
Q 302.343021 41.368469 301.049628 41.031062 
Q 299.756234 40.693655 298.462841 40.300014 
Q 297.169448 39.906372 296.269697 38.987876 
Q 295.369945 38.069379 295.369945 36.607283 
Q 295.369945 36.082428 295.538648 35.726276 
Q 295.707352 35.370124 296.100993 35.145186 
Q 296.494634 34.920248 296.775807 34.807779 
Q 297.056979 34.69531 297.713048 34.639076 
Q 298.369117 34.582841 298.556566 34.582841 
Q 298.744014 34.582841 299.418828 34.582841 
Q 300.618497 34.582841 301.199586 34.995228 
Q 301.780676 35.407614 302.099338 36.026193 
Q 302.418 36.644772 302.680428 36.832221 
" clip-path="url(#p845f462483)" style="fill: none; stroke: #000000; stroke-linejoin: miter"/>
   </g>
  </g>
  <g id="axes_20">
   <g id="patch_18">
    <path d="M 309.657798 38.160826 
Q 312.630275 39.535596 317.349083 39.721376 
Q 318.872477 39.721376 319.559862 38.550963 
Q 320.247248 37.38055 320.247248 35.82 
Q 320.247248 35.299817 320.154358 34.909679 
Q 320.061468 34.519541 319.819954 34.296606 
Q 319.57844 34.07367 319.411239 33.943624 
Q 319.244037 33.813578 318.798165 33.757844 
Q 318.352294 33.70211 318.147936 33.683532 
Q 317.943578 33.664954 317.367661 33.683532 
Q 316.791743 33.70211 316.568807 33.70211 
Q 314.525229 33.70211 313.038991 35.578486 
Q 311.552752 37.454862 311.552752 39.609908 
Q 311.552752 42.619541 313.484862 44.570229 
Q 315.416972 46.520917 318.463761 46.520917 
Q 320.618807 46.818165 322.142202 44.29156 
" clip-path="url(#p65280c5781)" style="fill: none; stroke: #000000; stroke-linejoin: miter"/>
   </g>
  </g>
  <g id="axes_21">
   <g id="patch_19">
    <path d="M 331.706359 28.621986 
Q 331.931297 30.34651 332.006276 32.146014 
Q 332.081255 33.945517 332.06251 36.551048 
Q 332.043766 39.156579 332.043766 40.093821 
Q 332.043766 40.13131 332.268703 45.829738 
L 332.493641 46.841959 
" clip-path="url(#p0d256c6a42)" style="fill: none; stroke: #000000; stroke-linejoin: miter"/>
   </g>
  </g>
  <g id="axes_22">
   <g id="patch_20">
    <path d="M 341.984141 38.85304 
L 342.412335 38.85304 
Q 343.23304 38.85304 344.196476 38.745991 
Q 345.159912 38.638943 346.319604 38.460529 
Q 347.479295 38.282115 348.085903 38.210749 
L 354.615859 35.427489 
M 354.294714 25.793128 
Q 354.009251 25.721762 352.974449 25.275727 
Q 351.939648 24.829692 351.297357 24.93674 
Q 350.655066 24.93674 350.137665 25.150837 
Q 349.620264 25.364934 349.281278 25.793128 
Q 348.942291 26.221322 348.67467 26.685198 
Q 348.407048 27.149075 348.264317 27.862731 
Q 348.121586 28.576388 348.014537 29.129471 
Q 347.907489 29.682555 347.889648 30.50326 
Q 347.871806 31.323965 347.853965 31.77 
Q 347.836123 32.216035 347.853965 32.965374 
Q 347.871806 33.714714 347.871806 33.928811 
Q 347.871806 36.605022 348.567621 41.850396 
Q 349.263436 47.095771 349.263436 49.771982 
Q 349.19207 50.057445 349.156388 50.681894 
Q 349.120705 51.306344 349.013656 51.805903 
Q 348.906608 52.305463 348.621145 52.555242 
" clip-path="url(#p98bdb0e42b)" style="fill: none; stroke: #000000; stroke-linejoin: miter"/>
   </g>
  </g>
  <g id="axes_23">
   <g id="patch_21">
    <path d="M 362.775476 45.379862 
Q 362.513048 45.304883 362.231876 45.64229 
Q 361.950703 45.979697 362.025683 46.279614 
Q 362.025683 46.429572 362.475559 46.429572 
Q 362.625517 46.467062 362.737986 46.392083 
Q 362.850455 46.317103 362.850455 46.129655 
M 359.551366 26.934952 
Q 362.475559 25.922731 364.799917 26.0352 
Q 366.824359 26.0352 368.136497 27.197379 
Q 369.448634 28.359559 369.448634 30.309021 
Q 369.448634 32.745848 367.855324 34.001752 
Q 366.262014 35.257655 363.750207 35.257655 
L 362.250621 35.257655 
Q 362.100662 35.257655 362.063172 36.194897 
Q 362.025683 37.132138 362.063172 38.069379 
L 362.100662 39.006621 
L 362.100662 41.405959 
L 362.400579 42.230731 
" clip-path="url(#pec6ebf2327)" style="fill: none; stroke: #000000; stroke-linejoin: miter"/>
   </g>
  </g>
  <g id="axes_24">
   <g id="patch_22">
    <path d="M 381.224855 27.009931 
Q 381.299834 27.347338 381.374814 28.265834 
Q 381.449793 29.184331 381.599752 29.634207 
L 381.524772 31.058814 
M 379.875228 27.309848 
Q 379.837738 27.309848 379.800248 27.534786 
Q 379.837738 27.684745 379.950207 28.828179 
Q 380.062676 29.971614 380.325103 30.533959 
" clip-path="url(#p64ff5b2430)" style="fill: none; stroke: #000000; stroke-linejoin: miter"/>
   </g>
  </g>
  <g id="axes_25"/>
  <g id="axes_26">
   <g id="patch_23">
    <path d="M 406.539924 40.439772 
Q 411.436882 46.999848 416.980608 46.168289 
Q 418.304943 46.168289 418.98251 45.382928 
Q 419.660076 44.597567 419.660076 43.30403 
Q 419.660076 41.979696 419.028707 40.947947 
Q 418.397338 39.916198 417.396388 39.238631 
Q 416.395437 38.561065 415.194297 37.975894 
Q 413.993156 37.390722 412.776616 36.820951 
Q 411.560076 36.251179 410.559125 35.589011 
Q 409.558175 34.926844 408.926806 33.895095 
Q 408.295437 32.863346 408.295437 31.56981 
Q 408.295437 29.906692 410.774715 28.382167 
Q 413.253992 26.857643 415.040304 26.857643 
Q 416.118251 26.796046 416.672624 27.627605 
Q 417.226996 28.459163 417.211597 29.490913 
Q 417.196198 30.522662 417.165399 31.385019 
" clip-path="url(#p791bcbff45)" style="fill: none; stroke: #000000; stroke-linejoin: miter"/>
   </g>
  </g>
  <g id="axes_27">
   <g id="patch_24">
    <path d="M 425.813462 35.932469 
Q 426.413297 35.257655 427.406772 34.826524 
Q 428.400248 34.395393 429.3 34.470372 
Q 429.937324 34.470372 430.42469 34.639076 
Q 430.912055 34.807779 431.230717 34.995228 
Q 431.549379 35.182676 431.774317 35.670041 
Q 431.999255 36.157407 432.111724 36.419834 
Q 432.224193 36.682262 432.280428 37.375821 
Q 432.336662 38.069379 432.355407 38.331807 
Q 432.374152 38.594234 432.355407 39.419007 
Q 432.336662 40.243779 432.336662 40.431228 
Q 432.336662 41.368469 432.167959 43.242952 
Q 431.999255 45.117434 431.999255 46.054676 
Q 431.999255 46.467062 432.05549 46.823214 
Q 432.111724 47.179366 432.205448 47.610497 
Q 432.299172 48.041628 432.336662 48.304055 
L 432.786538 48.528993 
M 426.263338 23.111007 
Q 426.488276 24.798041 426.488276 29.971614 
L 426.488276 42.3432 
L 426.150869 46.841959 
L 425.925931 47.74171 
" clip-path="url(#p8a3ede400a)" style="fill: none; stroke: #000000; stroke-linejoin: miter"/>
   </g>
  </g>
  <g id="axes_28">
   <g id="patch_25">
    <path d="M 439.257798 38.160826 
Q 442.230275 39.535596 446.949083 39.721376 
Q 448.472477 39.721376 449.159862 38.550963 
Q 449.847248 37.38055 449.847248 35.82 
Q 449.847248 35.299817 449.754358 34.909679 
Q 449.661468 34.519541 449.419954 34.296606 
Q 449.17844 34.07367 449.011239 33.943624 
Q 448.844037 33.813578 448.398165 33.757844 
Q 447.952294 33.70211 447.747936 33.683532 
Q 447.543578 33.664954 446.967661 33.683532 
Q 446.391743 33.70211 446.168807 33.70211 
Q 444.125229 33.70211 442.638991 35.578486 
Q 441.152752 37.454862 441.152752 39.609908 
Q 441.152752 42.619541 443.084862 44.570229 
Q 445.016972 46.520917 448.063761 46.520917 
Q 450.218807 46.818165 451.742202 44.29156 
" clip-path="url(#p795b89684b)" style="fill: none; stroke: #000000; stroke-linejoin: miter"/>
   </g>
  </g>
  <g id="axes_29"/>
  <g id="axes_30">
   <g id="patch_26">
    <path d="M 483.443923 36.441748 
Q 482.234968 35.094627 478.262687 35.094627 
Q 476.742857 35.094627 475.965672 35.146439 
Q 475.188486 35.198252 474.18678 35.440043 
Q 473.185075 35.681834 472.701493 36.182687 
Q 472.21791 36.683539 471.872495 37.616162 
Q 471.527079 38.548785 471.527079 39.964989 
Q 471.527079 42.037484 472.943284 43.280981 
Q 474.359488 44.524478 476.293817 44.524478 
Q 478.953518 44.524478 481.716844 38.721493 
Q 483.063966 35.854542 483.063966 35.82 
Q 483.409382 35.578209 483.443923 36.441748 
Q 483.443923 37.512537 483.858422 40.362217 
Q 484.272921 43.211898 484.272921 44.524478 
" clip-path="url(#pc2f26ff302)" style="fill: none; stroke: #000000; stroke-linejoin: miter"/>
   </g>
  </g>
  <g id="axes_31">
   <g id="patch_27">
    <path d="M 489.657476 43.917766 
Q 489.957393 44.180193 490.969614 45.154924 
Q 491.981834 46.129655 492.544179 46.560786 
Q 493.106524 46.991917 494.13749 47.385559 
Q 495.168455 47.7792 496.180676 47.629241 
Q 496.85549 47.629241 497.32411 47.404303 
Q 497.792731 47.179366 498.017669 46.879448 
Q 498.242607 46.579531 498.373821 45.979697 
Q 498.505034 45.379862 498.523779 44.967476 
Q 498.542524 44.55509 498.542524 43.805297 
Q 498.542524 42.718097 497.642772 42.043283 
Q 496.743021 41.368469 495.449628 41.031062 
Q 494.156234 40.693655 492.862841 40.300014 
Q 491.569448 39.906372 490.669697 38.987876 
Q 489.769945 38.069379 489.769945 36.607283 
Q 489.769945 36.082428 489.938648 35.726276 
Q 490.107352 35.370124 490.500993 35.145186 
Q 490.894634 34.920248 491.175807 34.807779 
Q 491.456979 34.69531 492.113048 34.639076 
Q 492.769117 34.582841 492.956566 34.582841 
Q 493.144014 34.582841 493.818828 34.582841 
Q 495.018497 34.582841 495.599586 34.995228 
Q 496.180676 35.407614 496.499338 36.026193 
Q 496.818 36.644772 497.080428 36.832221 
" clip-path="url(#p31ed0b2bf2)" style="fill: none; stroke: #000000; stroke-linejoin: miter"/>
   </g>
  </g>
  <g id="axes_32">
   <g id="patch_28">
    <path d="M 508.331793 37.169628 
Q 510.356234 39.194069 512.118248 41.76211 
Q 513.880262 44.330152 514.742524 46.72949 
M 511.368455 31.321241 
L 511.368455 31.546179 
Q 511.368455 32.333462 510.731131 33.514386 
Q 510.093807 34.69531 509.119076 36.101172 
Q 508.144345 37.507034 507.881917 37.95691 
L 506.644759 39.643945 
M 505.857476 26.710014 
Q 507.694469 36.269876 507.881917 48.641462 
" clip-path="url(#pd367c0d598)" style="fill: none; stroke: #000000; stroke-linejoin: miter"/>
   </g>
  </g>
  <g id="axes_33">
   <g id="patch_29">
    <path d="M 520.257798 38.160826 
Q 523.230275 39.535596 527.949083 39.721376 
Q 529.472477 39.721376 530.159862 38.550963 
Q 530.847248 37.38055 530.847248 35.82 
Q 530.847248 35.299817 530.754358 34.909679 
Q 530.661468 34.519541 530.419954 34.296606 
Q 530.17844 34.07367 530.011239 33.943624 
Q 529.844037 33.813578 529.398165 33.757844 
Q 528.952294 33.70211 528.747936 33.683532 
Q 528.543578 33.664954 527.967661 33.683532 
Q 527.391743 33.70211 527.168807 33.70211 
Q 525.125229 33.70211 523.638991 35.578486 
Q 522.152752 37.454862 522.152752 39.609908 
Q 522.152752 42.619541 524.084862 44.570229 
Q 526.016972 46.520917 529.063761 46.520917 
Q 531.218807 46.818165 532.742202 44.29156 
" clip-path="url(#pd7b5d74352)" style="fill: none; stroke: #000000; stroke-linejoin: miter"/>
   </g>
  </g>
  <g id="axes_34">
   <g id="patch_30">
    <path d="M 546.299007 39.568966 
Q 544.949379 38.181848 542.7 38.444276 
Q 539.850786 38.444276 538.688607 39.793903 
Q 537.526428 41.143531 537.526428 44.067724 
Q 537.526428 45.56731 538.819821 46.279614 
Q 540.113214 46.991917 541.687779 46.991917 
Q 542.999917 46.991917 544.012138 45.736014 
Q 545.024359 44.48011 545.605448 42.30571 
Q 546.186538 40.13131 546.561434 37.938166 
Q 546.936331 35.745021 547.08629 33.045766 
Q 547.236248 30.34651 547.273738 28.978138 
Q 547.311228 27.609766 547.311228 26.185159 
Q 547.08629 26.260138 547.08629 29.896634 
L 547.08629 44.292662 
L 547.873572 48.229076 
" clip-path="url(#pcf00a3bec8)" style="fill: none; stroke: #000000; stroke-linejoin: miter"/>
   </g>
  </g>
  <g id="axes_35">
   <g id="patch_31">
    <path d="M 558.787531 45.979697 
Q 558.750041 46.017186 558.618828 46.054676 
Q 558.487614 46.092166 558.525103 46.167145 
Q 558.525103 46.579531 558.9 46.579531 
Q 559.237407 46.579531 559.237407 46.092166 
Q 559.312386 45.867228 559.031214 45.754759 
Q 558.750041 45.64229 558.562593 45.754759 
" clip-path="url(#p9a3a01c767)" style="fill: none; stroke: #000000; stroke-linejoin: miter"/>
   </g>
  </g>
 </g>
 <defs>
  <clipPath id="pd4c14206cb">
   <rect x="0" y="11.850612" width="16.2" height="47.938776"/>
  </clipPath>
  <clipPath id="p13bbbf0656">
   <rect x="16.2" y="10.777356" width="16.2" height="50.085288"/>
  </clipPath>
  <clipPath id="pc842c38dac">
   <rect x="34.164248" y="8.64" width="12.671503" height="54.36"/>
  </clipPath>
  <clipPath id="p0d46762d27">
   <rect x="54.675559" y="8.64" width="4.048883" height="54.36"/>
  </clipPath>
  <clipPath id="p14a8b90cab">
   <rect x="66.189352" y="8.64" width="13.421297" height="54.36"/>
  </clipPath>
  <clipPath id="p2a12d582e7">
   <rect x="98.589352" y="8.64" width="13.421297" height="54.36"/>
  </clipPath>
  <clipPath id="p26dcfcd04b">
   <rect x="113.4" y="10.777356" width="16.2" height="50.085288"/>
  </clipPath>
  <clipPath id="pbb4c9cd315">
   <rect x="131.382993" y="8.64" width="12.634014" height="54.36"/>
  </clipPath>
  <clipPath id="pbb6bc91700">
   <rect x="145.8" y="8.881927" width="16.2" height="53.876147"/>
  </clipPath>
  <clipPath id="p679805186f">
   <rect x="183.806938" y="8.64" width="4.986124" height="54.36"/>
  </clipPath>
  <clipPath id="p5238ccc3d0">
   <rect x="195.789352" y="8.64" width="13.421297" height="54.36"/>
  </clipPath>
  <clipPath id="p6106bbb658">
   <rect x="227.851945" y="8.64" width="14.09611" height="54.36"/>
  </clipPath>
  <clipPath id="pbe6f77c081">
   <rect x="243.602069" y="8.64" width="14.995862" height="54.36"/>
  </clipPath>
  <clipPath id="p8bf0b48bb2">
   <rect x="260.589352" y="8.64" width="13.421297" height="54.36"/>
  </clipPath>
  <clipPath id="p89db3a176a">
   <rect x="278.138979" y="8.64" width="10.722041" height="54.36"/>
  </clipPath>
  <clipPath id="p845f462483">
   <rect x="293.382993" y="8.64" width="12.634014" height="54.36"/>
  </clipPath>
  <clipPath id="p65280c5781">
   <rect x="307.8" y="8.881927" width="16.2" height="53.876147"/>
  </clipPath>
  <clipPath id="p0d256c6a42">
   <rect x="329.831876" y="8.64" width="4.536248" height="54.36"/>
  </clipPath>
  <clipPath id="p98bdb0e42b">
   <rect x="340.2" y="9.949956" width="16.2" height="51.740088"/>
  </clipPath>
  <clipPath id="pec6ebf2327">
   <rect x="357.676883" y="8.64" width="13.646234" height="54.36"/>
  </clipPath>
  <clipPath id="p64ff5b2430">
   <rect x="377.925766" y="8.64" width="5.548469" height="54.36"/>
  </clipPath>
  <clipPath id="p791bcbff45">
   <rect x="405" y="13.491103" width="16.2" height="44.657795"/>
  </clipPath>
  <clipPath id="p8a3ede400a">
   <rect x="423.938979" y="8.64" width="10.722041" height="54.36"/>
  </clipPath>
  <clipPath id="p795b89684b">
   <rect x="437.4" y="8.881927" width="16.2" height="53.876147"/>
  </clipPath>
  <clipPath id="pc2f26ff302">
   <rect x="469.8" y="10.777356" width="16.2" height="50.085288"/>
  </clipPath>
  <clipPath id="p31ed0b2bf2">
   <rect x="487.782993" y="8.64" width="12.634014" height="54.36"/>
  </clipPath>
  <clipPath id="pd367c0d598">
   <rect x="503.982993" y="8.64" width="12.634014" height="54.36"/>
  </clipPath>
  <clipPath id="pd7b5d74352">
   <rect x="518.4" y="8.881927" width="16.2" height="53.876147"/>
  </clipPath>
  <clipPath id="pcf00a3bec8">
   <rect x="535.651945" y="8.64" width="14.09611" height="54.36"/>
  </clipPath>
  <clipPath id="p9a3a01c767">
   <rect x="556.613131" y="8.64" width="4.573738" height="54.36"/>
  </clipPath>
 </defs>
</svg>
