<?xml version="1.0" encoding="utf-8" standalone="no"?>
<!DOCTYPE svg PUBLIC "-//W3C//DTD SVG 1.1//EN"
  "http://www.w3.org/Graphics/SVG/1.1/DTD/svg11.dtd">
<svg xmlns:xlink="http://www.w3.org/1999/xlink" width="630pt" height="72pt" viewBox="0 0 630 72" xmlns="http://www.w3.org/2000/svg" version="1.1">
 <metadata>
  <rdf:RDF xmlns:dc="http://purl.org/dc/elements/1.1/" xmlns:cc="http://creativecommons.org/ns#" xmlns:rdf="http://www.w3.org/1999/02/22-rdf-syntax-ns#">
   <cc:Work>
    <dc:type rdf:resource="http://purl.org/dc/dcmitype/StillImage"/>
    <dc:date>2024-01-04T18:45:42.348043</dc:date>
    <dc:format>image/svg+xml</dc:format>
    <dc:creator>
     <cc:Agent>
      <dc:title>Matplotlib v3.7.1, https://matplotlib.org/</dc:title>
     </cc:Agent>
    </dc:creator>
   </cc:Work>
  </rdf:RDF>
 </metadata>
 <defs>
  <style type="text/css">*{stroke-linejoin: round; stroke-linecap: butt}</style>
 </defs>
 <g id="figure_1">
  <g id="patch_1">
   <path d="M 0 72 
L 630 72 
L 630 0 
L 0 0 
z
" style="fill: #8fff9f"/>
  </g>
  <g id="axes_1">
   <g id="patch_2">
    <path d="M 4.557228 37.244607 
Q 5.606938 37.207117 5.794386 37.132138 
Q 9.205945 37.132138 10.986703 39.212814 
Q 12.767462 41.29349 12.767462 44.780028 
Q 12.767462 47.704221 8.156234 47.704221 
Q 7.51891 47.704221 6.97531 47.591752 
Q 6.43171 47.479283 5.794386 47.254345 
Q 5.157062 47.029407 4.669697 46.916938 
L 3.432538 45.679779 
M 4.444759 25.435366 
L 4.444759 26.560055 
Q 4.444759 29.409269 4.557228 33.008276 
Q 4.669697 36.607283 4.857145 40.899848 
Q 5.044593 45.192414 5.119572 47.141876 
" clip-path="url(#p890f3e9b0c)" style="fill: none; stroke: #000000; stroke-linejoin: miter"/>
   </g>
  </g>
  <g id="axes_2">
   <g id="patch_3">
    <path d="M 19.688772 35.145186 
Q 19.688772 35.145186 19.688772 35.595062 
Q 19.688772 36.269876 19.576303 37.619503 
Q 19.463834 38.969131 19.463834 39.643945 
Q 19.463834 41.930814 20.700993 43.599103 
Q 21.938152 45.267393 24.075062 45.267393 
Q 25.462179 45.154924 26.230717 43.917766 
Q 26.999255 42.680607 27.149214 41.237255 
Q 27.299172 39.793903 27.5616 37.9944 
Q 27.824028 36.194897 28.236414 35.370124 
Q 28.386372 35.070207 28.386372 35.670041 
Q 28.386372 36.269876 28.123945 38.706703 
Q 27.899007 41.031062 27.899007 41.555917 
Q 27.749048 42.643117 28.086455 43.767807 
Q 28.423862 44.892497 29.136166 45.6048 
" clip-path="url(#p07959fed25)" style="fill: none; stroke: #000000; stroke-linejoin: miter"/>
   </g>
  </g>
  <g id="axes_3">
   <g id="patch_4">
    <path d="M 35.663834 37.95691 
L 36.338648 37.95691 
Q 37.050952 37.95691 37.838234 37.881931 
Q 38.625517 37.806952 39.581503 37.675738 
Q 40.53749 37.544524 41.062345 37.507034 
L 45.336166 35.82 
M 41.287283 30.42149 
L 41.287283 31.43371 
Q 41.287283 33.383172 40.612469 37.207117 
Q 39.937655 41.031062 39.937655 43.018014 
Q 39.937655 43.805297 39.937655 44.105214 
Q 39.937655 44.405131 40.031379 45.042455 
Q 40.125103 45.679779 40.312552 45.960952 
Q 40.5 46.242124 40.893641 46.485807 
Q 41.287283 46.72949 41.849628 46.72949 
Q 41.962097 46.692 42.280759 46.72949 
Q 42.599421 46.766979 42.786869 46.710745 
Q 42.974317 46.65451 42.974317 46.392083 
" clip-path="url(#pc9dbbd560e)" style="fill: none; stroke: #000000; stroke-linejoin: miter"/>
   </g>
  </g>
  <g id="axes_4"/>
  <g id="axes_5">
   <g id="patch_5">
    <path d="M 68.457476 43.917766 
Q 68.757393 44.180193 69.769614 45.154924 
Q 70.781834 46.129655 71.344179 46.560786 
Q 71.906524 46.991917 72.93749 47.385559 
Q 73.968455 47.7792 74.980676 47.629241 
Q 75.65549 47.629241 76.12411 47.404303 
Q 76.592731 47.179366 76.817669 46.879448 
Q 77.042607 46.579531 77.173821 45.979697 
Q 77.305034 45.379862 77.323779 44.967476 
Q 77.342524 44.55509 77.342524 43.805297 
Q 77.342524 42.718097 76.442772 42.043283 
Q 75.543021 41.368469 74.249628 41.031062 
Q 72.956234 40.693655 71.662841 40.300014 
Q 70.369448 39.906372 69.469697 38.987876 
Q 68.569945 38.069379 68.569945 36.607283 
Q 68.569945 36.082428 68.738648 35.726276 
Q 68.907352 35.370124 69.300993 35.145186 
Q 69.694634 34.920248 69.975807 34.807779 
Q 70.256979 34.69531 70.913048 34.639076 
Q 71.569117 34.582841 71.756566 34.582841 
Q 71.944014 34.582841 72.618828 34.582841 
Q 73.818497 34.582841 74.399586 34.995228 
Q 74.980676 35.407614 75.299338 36.026193 
Q 75.618 36.644772 75.880428 36.832221 
" clip-path="url(#pf08ca4c5c5)" style="fill: none; stroke: #000000; stroke-linejoin: miter"/>
   </g>
  </g>
  <g id="axes_6">
   <g id="patch_6">
    <path d="M 84.488772 35.145186 
Q 84.488772 35.145186 84.488772 35.595062 
Q 84.488772 36.269876 84.376303 37.619503 
Q 84.263834 38.969131 84.263834 39.643945 
Q 84.263834 41.930814 85.500993 43.599103 
Q 86.738152 45.267393 88.875062 45.267393 
Q 90.262179 45.154924 91.030717 43.917766 
Q 91.799255 42.680607 91.949214 41.237255 
Q 92.099172 39.793903 92.3616 37.9944 
Q 92.624028 36.194897 93.036414 35.370124 
Q 93.186372 35.070207 93.186372 35.670041 
Q 93.186372 36.269876 92.923945 38.706703 
Q 92.699007 41.031062 92.699007 41.555917 
Q 92.549048 42.643117 92.886455 43.767807 
Q 93.223862 44.892497 93.936166 45.6048 
" clip-path="url(#pca5be3f557)" style="fill: none; stroke: #000000; stroke-linejoin: miter"/>
   </g>
  </g>
  <g id="axes_7">
   <g id="patch_7">
    <path d="M 108.899007 39.568966 
Q 107.549379 38.181848 105.3 38.444276 
Q 102.450786 38.444276 101.288607 39.793903 
Q 100.126428 41.143531 100.126428 44.067724 
Q 100.126428 45.56731 101.419821 46.279614 
Q 102.713214 46.991917 104.287779 46.991917 
Q 105.599917 46.991917 106.612138 45.736014 
Q 107.624359 44.48011 108.205448 42.30571 
Q 108.786538 40.13131 109.161434 37.938166 
Q 109.536331 35.745021 109.68629 33.045766 
Q 109.836248 30.34651 109.873738 28.978138 
Q 109.911228 27.609766 109.911228 26.185159 
Q 109.68629 26.260138 109.68629 29.896634 
L 109.68629 44.292662 
L 110.473572 48.229076 
" clip-path="url(#p9f608029b8)" style="fill: none; stroke: #000000; stroke-linejoin: miter"/>
   </g>
  </g>
  <g id="axes_8">
   <g id="patch_8">
    <path d="M 125.099007 39.568966 
Q 123.749379 38.181848 121.5 38.444276 
Q 118.650786 38.444276 117.488607 39.793903 
Q 116.326428 41.143531 116.326428 44.067724 
Q 116.326428 45.56731 117.619821 46.279614 
Q 118.913214 46.991917 120.487779 46.991917 
Q 121.799917 46.991917 122.812138 45.736014 
Q 123.824359 44.48011 124.405448 42.30571 
Q 124.986538 40.13131 125.361434 37.938166 
Q 125.736331 35.745021 125.88629 33.045766 
Q 126.036248 30.34651 126.073738 28.978138 
Q 126.111228 27.609766 126.111228 26.185159 
Q 125.88629 26.260138 125.88629 29.896634 
L 125.88629 44.292662 
L 126.673572 48.229076 
" clip-path="url(#pb6f0c670cb)" style="fill: none; stroke: #000000; stroke-linejoin: miter"/>
   </g>
  </g>
  <g id="axes_9">
   <g id="patch_9">
    <path d="M 131.457798 38.160826 
Q 134.430275 39.535596 139.149083 39.721376 
Q 140.672477 39.721376 141.359862 38.550963 
Q 142.047248 37.38055 142.047248 35.82 
Q 142.047248 35.299817 141.954358 34.909679 
Q 141.861468 34.519541 141.619954 34.296606 
Q 141.37844 34.07367 141.211239 33.943624 
Q 141.044037 33.813578 140.598165 33.757844 
Q 140.152294 33.70211 139.947936 33.683532 
Q 139.743578 33.664954 139.167661 33.683532 
Q 138.591743 33.70211 138.368807 33.70211 
Q 136.325229 33.70211 134.838991 35.578486 
Q 133.352752 37.454862 133.352752 39.609908 
Q 133.352752 42.619541 135.284862 44.570229 
Q 137.216972 46.520917 140.263761 46.520917 
Q 142.418807 46.818165 143.942202 44.29156 
" clip-path="url(#pbdeffcbe4c)" style="fill: none; stroke: #000000; stroke-linejoin: miter"/>
   </g>
  </g>
  <g id="axes_10">
   <g id="patch_10">
    <path d="M 149.438731 37.282097 
L 149.438731 37.844441 
Q 149.701159 39.868883 149.738648 41.312234 
Q 149.776138 42.755586 149.682414 44.667559 
Q 149.58869 46.579531 149.58869 48.191586 
L 149.663669 39.643945 
Q 149.663669 38.144359 151.256979 37.507034 
Q 152.85029 36.86971 154.274897 37.282097 
Q 156.186869 37.844441 157.105366 39.04411 
Q 158.023862 40.243779 158.080097 41.668386 
Q 158.136331 43.092993 158.173821 44.817517 
Q 158.21131 46.542041 158.361269 48.191586 
" clip-path="url(#p1ef7297f56)" style="fill: none; stroke: #000000; stroke-linejoin: miter"/>
   </g>
  </g>
  <g id="axes_11">
   <g id="patch_11">
    <path d="M 169.706359 28.621986 
Q 169.931297 30.34651 170.006276 32.146014 
Q 170.081255 33.945517 170.06251 36.551048 
Q 170.043766 39.156579 170.043766 40.093821 
Q 170.043766 40.13131 170.268703 45.829738 
L 170.493641 46.841959 
" clip-path="url(#p4efeac0e7b)" style="fill: none; stroke: #000000; stroke-linejoin: miter"/>
   </g>
  </g>
  <g id="axes_12">
   <g id="patch_12">
    <path d="M 181.163917 36.382345 
Q 181.126428 36.494814 181.257641 36.701007 
Q 181.388855 36.9072 181.276386 37.057159 
L 181.276386 39.306538 
Q 181.276386 40.506207 181.613793 41.724621 
Q 181.9512 42.943034 182.813462 43.93651 
Q 183.675724 44.929986 184.875393 44.929986 
Q 186.112552 44.929986 186.787366 43.861531 
Q 187.462179 42.793076 187.912055 41.143531 
Q 188.361931 39.493986 188.699338 38.969131 
L 189.486621 36.382345 
L 189.261683 42.680607 
L 189.261683 45.154924 
Q 189.261683 47.066897 189.992731 51.00331 
Q 190.723779 54.939724 190.723779 56.964166 
Q 191.473572 59.213545 190.386372 60.188276 
Q 189.299172 61.163007 187.237241 60.78811 
Q 185.437738 60.488193 184.519241 60.169531 
Q 183.600745 59.850869 181.613793 58.988607 
L 181.501324 58.426262 
" clip-path="url(#p7a8a404249)" style="fill: none; stroke: #000000; stroke-linejoin: miter"/>
   </g>
  </g>
  <g id="axes_13"/>
  <g id="axes_14">
   <g id="patch_13">
    <path d="M 213.863834 37.95691 
L 214.538648 37.95691 
Q 215.250952 37.95691 216.038234 37.881931 
Q 216.825517 37.806952 217.781503 37.675738 
Q 218.73749 37.544524 219.262345 37.507034 
L 223.536166 35.82 
M 219.487283 30.42149 
L 219.487283 31.43371 
Q 219.487283 33.383172 218.812469 37.207117 
Q 218.137655 41.031062 218.137655 43.018014 
Q 218.137655 43.805297 218.137655 44.105214 
Q 218.137655 44.405131 218.231379 45.042455 
Q 218.325103 45.679779 218.512552 45.960952 
Q 218.7 46.242124 219.093641 46.485807 
Q 219.487283 46.72949 220.049628 46.72949 
Q 220.162097 46.692 220.480759 46.72949 
Q 220.799421 46.766979 220.986869 46.710745 
Q 221.174317 46.65451 221.174317 46.392083 
" clip-path="url(#p92f05a0d39)" style="fill: none; stroke: #000000; stroke-linejoin: miter"/>
   </g>
  </g>
  <g id="axes_15">
   <g id="patch_14">
    <path d="M 231.413462 35.932469 
Q 232.013297 35.257655 233.006772 34.826524 
Q 234.000248 34.395393 234.9 34.470372 
Q 235.537324 34.470372 236.02469 34.639076 
Q 236.512055 34.807779 236.830717 34.995228 
Q 237.149379 35.182676 237.374317 35.670041 
Q 237.599255 36.157407 237.711724 36.419834 
Q 237.824193 36.682262 237.880428 37.375821 
Q 237.936662 38.069379 237.955407 38.331807 
Q 237.974152 38.594234 237.955407 39.419007 
Q 237.936662 40.243779 237.936662 40.431228 
Q 237.936662 41.368469 237.767959 43.242952 
Q 237.599255 45.117434 237.599255 46.054676 
Q 237.599255 46.467062 237.65549 46.823214 
Q 237.711724 47.179366 237.805448 47.610497 
Q 237.899172 48.041628 237.936662 48.304055 
L 238.386538 48.528993 
M 231.863338 23.111007 
Q 232.088276 24.798041 232.088276 29.971614 
L 232.088276 42.3432 
L 231.750869 46.841959 
L 231.525931 47.74171 
" clip-path="url(#p7219f0efc9)" style="fill: none; stroke: #000000; stroke-linejoin: miter"/>
   </g>
  </g>
  <g id="axes_16">
   <g id="patch_15">
    <path d="M 244.857798 38.160826 
Q 247.830275 39.535596 252.549083 39.721376 
Q 254.072477 39.721376 254.759862 38.550963 
Q 255.447248 37.38055 255.447248 35.82 
Q 255.447248 35.299817 255.354358 34.909679 
Q 255.261468 34.519541 255.019954 34.296606 
Q 254.77844 34.07367 254.611239 33.943624 
Q 254.444037 33.813578 253.998165 33.757844 
Q 253.552294 33.70211 253.347936 33.683532 
Q 253.143578 33.664954 252.567661 33.683532 
Q 251.991743 33.70211 251.768807 33.70211 
Q 249.725229 33.70211 248.238991 35.578486 
Q 246.752752 37.454862 246.752752 39.609908 
Q 246.752752 42.619541 248.684862 44.570229 
Q 250.616972 46.520917 253.663761 46.520917 
Q 255.818807 46.818165 257.342202 44.29156 
" clip-path="url(#p68f184b31f)" style="fill: none; stroke: #000000; stroke-linejoin: miter"/>
   </g>
  </g>
  <g id="axes_17">
   <g id="patch_16">
    <path d="M 262.163917 36.382345 
Q 262.126428 36.494814 262.257641 36.701007 
Q 262.388855 36.9072 262.276386 37.057159 
L 262.276386 39.306538 
Q 262.276386 40.506207 262.613793 41.724621 
Q 262.9512 42.943034 263.813462 43.93651 
Q 264.675724 44.929986 265.875393 44.929986 
Q 267.112552 44.929986 267.787366 43.861531 
Q 268.462179 42.793076 268.912055 41.143531 
Q 269.361931 39.493986 269.699338 38.969131 
L 270.486621 36.382345 
L 270.261683 42.680607 
L 270.261683 45.154924 
Q 270.261683 47.066897 270.992731 51.00331 
Q 271.723779 54.939724 271.723779 56.964166 
Q 272.473572 59.213545 271.386372 60.188276 
Q 270.299172 61.163007 268.237241 60.78811 
Q 266.437738 60.488193 265.519241 60.169531 
Q 264.600745 59.850869 262.613793 58.988607 
L 262.501324 58.426262 
" clip-path="url(#p9340a8e398)" style="fill: none; stroke: #000000; stroke-linejoin: miter"/>
   </g>
  </g>
  <g id="axes_18"/>
  <g id="axes_19">
   <g id="patch_17">
    <path d="M 296.213462 35.932469 
Q 296.813297 35.257655 297.806772 34.826524 
Q 298.800248 34.395393 299.7 34.470372 
Q 300.337324 34.470372 300.82469 34.639076 
Q 301.312055 34.807779 301.630717 34.995228 
Q 301.949379 35.182676 302.174317 35.670041 
Q 302.399255 36.157407 302.511724 36.419834 
Q 302.624193 36.682262 302.680428 37.375821 
Q 302.736662 38.069379 302.755407 38.331807 
Q 302.774152 38.594234 302.755407 39.419007 
Q 302.736662 40.243779 302.736662 40.431228 
Q 302.736662 41.368469 302.567959 43.242952 
Q 302.399255 45.117434 302.399255 46.054676 
Q 302.399255 46.467062 302.45549 46.823214 
Q 302.511724 47.179366 302.605448 47.610497 
Q 302.699172 48.041628 302.736662 48.304055 
L 303.186538 48.528993 
M 296.663338 23.111007 
Q 296.888276 24.798041 296.888276 29.971614 
L 296.888276 42.3432 
L 296.550869 46.841959 
L 296.325931 47.74171 
" clip-path="url(#p0424cdab94)" style="fill: none; stroke: #000000; stroke-linejoin: miter"/>
   </g>
  </g>
  <g id="axes_20">
   <g id="patch_18">
    <path d="M 309.657798 38.160826 
Q 312.630275 39.535596 317.349083 39.721376 
Q 318.872477 39.721376 319.559862 38.550963 
Q 320.247248 37.38055 320.247248 35.82 
Q 320.247248 35.299817 320.154358 34.909679 
Q 320.061468 34.519541 319.819954 34.296606 
Q 319.57844 34.07367 319.411239 33.943624 
Q 319.244037 33.813578 318.798165 33.757844 
Q 318.352294 33.70211 318.147936 33.683532 
Q 317.943578 33.664954 317.367661 33.683532 
Q 316.791743 33.70211 316.568807 33.70211 
Q 314.525229 33.70211 313.038991 35.578486 
Q 311.552752 37.454862 311.552752 39.609908 
Q 311.552752 42.619541 313.484862 44.570229 
Q 315.416972 46.520917 318.463761 46.520917 
Q 320.618807 46.818165 322.142202 44.29156 
" clip-path="url(#p30eee4ff8b)" style="fill: none; stroke: #000000; stroke-linejoin: miter"/>
   </g>
  </g>
  <g id="axes_21">
   <g id="patch_19">
    <path d="M 337.643923 36.441748 
Q 336.434968 35.094627 332.462687 35.094627 
Q 330.942857 35.094627 330.165672 35.146439 
Q 329.388486 35.198252 328.38678 35.440043 
Q 327.385075 35.681834 326.901493 36.182687 
Q 326.41791 36.683539 326.072495 37.616162 
Q 325.727079 38.548785 325.727079 39.964989 
Q 325.727079 42.037484 327.143284 43.280981 
Q 328.559488 44.524478 330.493817 44.524478 
Q 333.153518 44.524478 335.916844 38.721493 
Q 337.263966 35.854542 337.263966 35.82 
Q 337.609382 35.578209 337.643923 36.441748 
Q 337.643923 37.512537 338.058422 40.362217 
Q 338.472921 43.211898 338.472921 44.524478 
" clip-path="url(#pd9bf815080)" style="fill: none; stroke: #000000; stroke-linejoin: miter"/>
   </g>
  </g>
  <g id="axes_22">
   <g id="patch_20">
    <path d="M 344.813462 32.783338 
Q 345.338317 34.507862 345.469531 36.457324 
Q 345.600745 38.406786 345.525766 40.956083 
Q 345.450786 43.505379 345.488276 44.705048 
L 345.600745 46.054676 
L 345.600745 45.829738 
Q 345.600745 44.667559 345.319572 42.30571 
Q 345.0384 39.943862 345.0384 38.744193 
Q 345.0384 36.419834 346.050621 34.882759 
Q 347.062841 33.345683 349.087283 33.345683 
Q 349.799586 33.345683 350.136993 33.626855 
Q 350.4744 33.908028 350.736828 34.432883 
Q 350.999255 34.957738 351.336662 35.257655 
L 351.786538 36.832221 
" clip-path="url(#pe4c2eb859f)" style="fill: none; stroke: #000000; stroke-linejoin: miter"/>
   </g>
  </g>
  <g id="axes_23">
   <g id="patch_21">
    <path d="M 368.099007 39.568966 
Q 366.749379 38.181848 364.5 38.444276 
Q 361.650786 38.444276 360.488607 39.793903 
Q 359.326428 41.143531 359.326428 44.067724 
Q 359.326428 45.56731 360.619821 46.279614 
Q 361.913214 46.991917 363.487779 46.991917 
Q 364.799917 46.991917 365.812138 45.736014 
Q 366.824359 44.48011 367.405448 42.30571 
Q 367.986538 40.13131 368.361434 37.938166 
Q 368.736331 35.745021 368.88629 33.045766 
Q 369.036248 30.34651 369.073738 28.978138 
Q 369.111228 27.609766 369.111228 26.185159 
Q 368.88629 26.260138 368.88629 29.896634 
L 368.88629 44.292662 
L 369.673572 48.229076 
" clip-path="url(#p5ee1ddb644)" style="fill: none; stroke: #000000; stroke-linejoin: miter"/>
   </g>
  </g>
  <g id="axes_24"/>
  <g id="axes_25">
   <g id="patch_22">
    <path d="M 402.443923 36.441748 
Q 401.234968 35.094627 397.262687 35.094627 
Q 395.742857 35.094627 394.965672 35.146439 
Q 394.188486 35.198252 393.18678 35.440043 
Q 392.185075 35.681834 391.701493 36.182687 
Q 391.21791 36.683539 390.872495 37.616162 
Q 390.527079 38.548785 390.527079 39.964989 
Q 390.527079 42.037484 391.943284 43.280981 
Q 393.359488 44.524478 395.293817 44.524478 
Q 397.953518 44.524478 400.716844 38.721493 
Q 402.063966 35.854542 402.063966 35.82 
Q 402.409382 35.578209 402.443923 36.441748 
Q 402.443923 37.512537 402.858422 40.362217 
Q 403.272921 43.211898 403.272921 44.524478 
" clip-path="url(#p519b3c109e)" style="fill: none; stroke: #000000; stroke-linejoin: miter"/>
   </g>
  </g>
  <g id="axes_26"/>
  <g id="axes_27">
   <g id="patch_23">
    <path d="M 425.813462 32.783338 
Q 426.338317 34.507862 426.469531 36.457324 
Q 426.600745 38.406786 426.525766 40.956083 
Q 426.450786 43.505379 426.488276 44.705048 
L 426.600745 46.054676 
L 426.600745 45.829738 
Q 426.600745 44.667559 426.319572 42.30571 
Q 426.0384 39.943862 426.0384 38.744193 
Q 426.0384 36.419834 427.050621 34.882759 
Q 428.062841 33.345683 430.087283 33.345683 
Q 430.799586 33.345683 431.136993 33.626855 
Q 431.4744 33.908028 431.736828 34.432883 
Q 431.999255 34.957738 432.336662 35.257655 
L 432.786538 36.832221 
" clip-path="url(#p524f0265c0)" style="fill: none; stroke: #000000; stroke-linejoin: miter"/>
   </g>
  </g>
  <g id="axes_28">
   <g id="patch_24">
    <path d="M 440.888772 35.145186 
Q 440.888772 35.145186 440.888772 35.595062 
Q 440.888772 36.269876 440.776303 37.619503 
Q 440.663834 38.969131 440.663834 39.643945 
Q 440.663834 41.930814 441.900993 43.599103 
Q 443.138152 45.267393 445.275062 45.267393 
Q 446.662179 45.154924 447.430717 43.917766 
Q 448.199255 42.680607 448.349214 41.237255 
Q 448.499172 39.793903 448.7616 37.9944 
Q 449.024028 36.194897 449.436414 35.370124 
Q 449.586372 35.070207 449.586372 35.670041 
Q 449.586372 36.269876 449.323945 38.706703 
Q 449.099007 41.031062 449.099007 41.555917 
Q 448.949048 42.643117 449.286455 43.767807 
Q 449.623862 44.892497 450.336166 45.6048 
" clip-path="url(#p343176ca58)" style="fill: none; stroke: #000000; stroke-linejoin: miter"/>
   </g>
  </g>
  <g id="axes_29">
   <g id="patch_25">
    <path d="M 455.408036 34.879821 
Q 455.914286 36.073125 456.203571 42.871339 
Q 456.348214 46.632054 456.6375 46.632054 
Q 456.673661 46.632054 456.709821 46.595893 
Q 457.216071 46.017321 457.270312 44.588973 
Q 457.324554 43.160625 457.107589 41.750357 
Q 456.890625 40.340089 456.6375 38.712857 
Q 456.384375 37.085625 456.384375 36.398571 
Q 456.384375 35.169107 456.764062 33.939643 
Q 457.14375 32.710179 458.120089 32.710179 
Q 459.349554 32.710179 460.072768 34.355491 
Q 460.795982 36.000804 460.958705 37.971562 
Q 461.121429 39.942321 461.229911 41.587634 
Q 461.338393 43.232946 461.483036 43.232946 
Q 461.627679 43.232946 461.71808 41.497232 
Q 461.808482 39.761518 461.935045 37.700357 
Q 462.061607 35.639196 462.784821 33.903482 
Q 463.508036 32.167768 464.7375 32.167768 
Q 466.292411 33.035625 466.961384 34.771339 
Q 467.630357 36.507054 467.594196 38.188527 
Q 467.558036 39.87 467.576116 42.057723 
Q 467.594196 44.245446 467.991964 45.511071 
" clip-path="url(#p26771d050b)" style="fill: none; stroke: #000000; stroke-linejoin: miter"/>
   </g>
  </g>
  <g id="axes_30">
   <g id="patch_26">
    <path d="M 471.608036 34.879821 
Q 472.114286 36.073125 472.403571 42.871339 
Q 472.548214 46.632054 472.8375 46.632054 
Q 472.873661 46.632054 472.909821 46.595893 
Q 473.416071 46.017321 473.470312 44.588973 
Q 473.524554 43.160625 473.307589 41.750357 
Q 473.090625 40.340089 472.8375 38.712857 
Q 472.584375 37.085625 472.584375 36.398571 
Q 472.584375 35.169107 472.964062 33.939643 
Q 473.34375 32.710179 474.320089 32.710179 
Q 475.549554 32.710179 476.272768 34.355491 
Q 476.995982 36.000804 477.158705 37.971562 
Q 477.321429 39.942321 477.429911 41.587634 
Q 477.538393 43.232946 477.683036 43.232946 
Q 477.827679 43.232946 477.91808 41.497232 
Q 478.008482 39.761518 478.135045 37.700357 
Q 478.261607 35.639196 478.984821 33.903482 
Q 479.708036 32.167768 480.9375 32.167768 
Q 482.492411 33.035625 483.161384 34.771339 
Q 483.830357 36.507054 483.794196 38.188527 
Q 483.758036 39.87 483.776116 42.057723 
Q 483.794196 44.245446 484.191964 45.511071 
" clip-path="url(#ped5a12edd0)" style="fill: none; stroke: #000000; stroke-linejoin: miter"/>
   </g>
  </g>
  <g id="axes_31">
   <g id="patch_27">
    <path d="M 499.643923 36.441748 
Q 498.434968 35.094627 494.462687 35.094627 
Q 492.942857 35.094627 492.165672 35.146439 
Q 491.388486 35.198252 490.38678 35.440043 
Q 489.385075 35.681834 488.901493 36.182687 
Q 488.41791 36.683539 488.072495 37.616162 
Q 487.727079 38.548785 487.727079 39.964989 
Q 487.727079 42.037484 489.143284 43.280981 
Q 490.559488 44.524478 492.493817 44.524478 
Q 495.153518 44.524478 497.916844 38.721493 
Q 499.263966 35.854542 499.263966 35.82 
Q 499.609382 35.578209 499.643923 36.441748 
Q 499.643923 37.512537 500.058422 40.362217 
Q 500.472921 43.211898 500.472921 44.524478 
" clip-path="url(#p93eef372a5)" style="fill: none; stroke: #000000; stroke-linejoin: miter"/>
   </g>
  </g>
  <g id="axes_32">
   <g id="patch_28">
    <path d="M 515.087191 39.096404 
Q 514.83236 39.023596 513.86764 38.623146 
Q 512.902921 38.222697 512.24764 38.077079 
Q 511.59236 37.931461 510.937079 38.00427 
Q 508.315955 38.00427 506.677753 40.388764 
Q 505.039551 42.773258 505.039551 45.430787 
Q 505.039551 47.068989 510.281798 47.068989 
Q 511.847191 47.068989 513.175955 45.558202 
Q 514.504719 44.047416 515.178202 42.172584 
Q 515.851685 40.297753 515.851685 38.768764 
Q 515.851685 37.27618 515.815281 36.984944 
L 515.742472 38.077079 
Q 515.742472 38.550337 515.742472 38.987191 
Q 515.778876 40.188539 515.979101 42.281798 
Q 516.179326 44.375056 516.343146 46.049663 
Q 516.506966 47.72427 516.543371 49.872135 
Q 516.579775 52.02 516.415955 53.658202 
Q 516.252135 55.296404 515.687865 56.971011 
Q 515.123596 58.645618 514.195281 59.737753 
Q 513.266966 60.829888 511.665169 61.521573 
Q 510.063371 62.213258 507.915506 62.213258 
Q 506.277303 62.213258 505.185169 61.466966 
Q 504.093034 60.720674 504.093034 59.155281 
Q 504.020225 58.936854 504.056629 58.936854 
Q 504.093034 58.936854 504.202247 58.936854 
Q 504.311461 58.936854 504.311461 58.82764 
" clip-path="url(#p99d66014d7)" style="fill: none; stroke: #000000; stroke-linejoin: miter"/>
   </g>
  </g>
  <g id="axes_33">
   <g id="patch_29">
    <path d="M 527.118579 29.071862 
Q 526.743683 29.146841 526.612469 29.577972 
Q 526.481255 30.009103 526.556234 30.42149 
Q 526.556234 30.571448 526.593724 30.702662 
Q 526.631214 30.833876 526.687448 30.89011 
Q 526.743683 30.946345 526.799917 31.040069 
Q 526.856152 31.133793 526.893641 31.208772 
L 527.00611 29.859145 
M 527.00611 34.020497 
Q 526.106359 39.006621 525.881421 42.793076 
L 526.331297 45.379862 
L 526.668703 46.054676 
" clip-path="url(#paf63488ec3)" style="fill: none; stroke: #000000; stroke-linejoin: miter"/>
   </g>
  </g>
  <g id="axes_34">
   <g id="patch_30">
    <path d="M 538.238731 37.282097 
L 538.238731 37.844441 
Q 538.501159 39.868883 538.538648 41.312234 
Q 538.576138 42.755586 538.482414 44.667559 
Q 538.38869 46.579531 538.38869 48.191586 
L 538.463669 39.643945 
Q 538.463669 38.144359 540.056979 37.507034 
Q 541.65029 36.86971 543.074897 37.282097 
Q 544.986869 37.844441 545.905366 39.04411 
Q 546.823862 40.243779 546.880097 41.668386 
Q 546.936331 43.092993 546.973821 44.817517 
Q 547.01131 46.542041 547.161269 48.191586 
" clip-path="url(#pf0d738f74f)" style="fill: none; stroke: #000000; stroke-linejoin: miter"/>
   </g>
  </g>
  <g id="axes_35">
   <g id="patch_31">
    <path d="M 563.687191 39.096404 
Q 563.43236 39.023596 562.46764 38.623146 
Q 561.502921 38.222697 560.84764 38.077079 
Q 560.19236 37.931461 559.537079 38.00427 
Q 556.915955 38.00427 555.277753 40.388764 
Q 553.639551 42.773258 553.639551 45.430787 
Q 553.639551 47.068989 558.881798 47.068989 
Q 560.447191 47.068989 561.775955 45.558202 
Q 563.104719 44.047416 563.778202 42.172584 
Q 564.451685 40.297753 564.451685 38.768764 
Q 564.451685 37.27618 564.415281 36.984944 
L 564.342472 38.077079 
Q 564.342472 38.550337 564.342472 38.987191 
Q 564.378876 40.188539 564.579101 42.281798 
Q 564.779326 44.375056 564.943146 46.049663 
Q 565.106966 47.72427 565.143371 49.872135 
Q 565.179775 52.02 565.015955 53.658202 
Q 564.852135 55.296404 564.287865 56.971011 
Q 563.723596 58.645618 562.795281 59.737753 
Q 561.866966 60.829888 560.265169 61.521573 
Q 558.663371 62.213258 556.515506 62.213258 
Q 554.877303 62.213258 553.785169 61.466966 
Q 552.693034 60.720674 552.693034 59.155281 
Q 552.620225 58.936854 552.656629 58.936854 
Q 552.693034 58.936854 552.802247 58.936854 
Q 552.911461 58.936854 552.911461 58.82764 
" clip-path="url(#p34be23e9a1)" style="fill: none; stroke: #000000; stroke-linejoin: miter"/>
   </g>
  </g>
 </g>
 <defs>
  <clipPath id="p890f3e9b0c">
   <rect x="1.558055" y="8.64" width="13.08389" height="54.36"/>
  </clipPath>
  <clipPath id="p07959fed25">
   <rect x="17.589352" y="8.64" width="13.421297" height="54.36"/>
  </clipPath>
  <clipPath id="pc9dbbd560e">
   <rect x="33.789352" y="8.64" width="13.421297" height="54.36"/>
  </clipPath>
  <clipPath id="pf08ca4c5c5">
   <rect x="66.582993" y="8.64" width="12.634014" height="54.36"/>
  </clipPath>
  <clipPath id="pca5be3f557">
   <rect x="82.389352" y="8.64" width="13.421297" height="54.36"/>
  </clipPath>
  <clipPath id="p9f608029b8">
   <rect x="98.251945" y="8.64" width="14.09611" height="54.36"/>
  </clipPath>
  <clipPath id="pb6f0c670cb">
   <rect x="114.451945" y="8.64" width="14.09611" height="54.36"/>
  </clipPath>
  <clipPath id="pbdeffcbe4c">
   <rect x="129.6" y="8.881927" width="16.2" height="53.876147"/>
  </clipPath>
  <clipPath id="p1ef7297f56">
   <rect x="147.564248" y="8.64" width="12.671503" height="54.36"/>
  </clipPath>
  <clipPath id="p4efeac0e7b">
   <rect x="167.831876" y="8.64" width="4.536248" height="54.36"/>
  </clipPath>
  <clipPath id="p7a8a404249">
   <rect x="179.251945" y="8.64" width="14.09611" height="54.36"/>
  </clipPath>
  <clipPath id="p92f05a0d39">
   <rect x="211.989352" y="8.64" width="13.421297" height="54.36"/>
  </clipPath>
  <clipPath id="p7219f0efc9">
   <rect x="229.538979" y="8.64" width="10.722041" height="54.36"/>
  </clipPath>
  <clipPath id="p68f184b31f">
   <rect x="243" y="8.881927" width="16.2" height="53.876147"/>
  </clipPath>
  <clipPath id="p9340a8e398">
   <rect x="260.251945" y="8.64" width="14.09611" height="54.36"/>
  </clipPath>
  <clipPath id="p0424cdab94">
   <rect x="294.338979" y="8.64" width="10.722041" height="54.36"/>
  </clipPath>
  <clipPath id="p30eee4ff8b">
   <rect x="307.8" y="8.881927" width="16.2" height="53.876147"/>
  </clipPath>
  <clipPath id="pd9bf815080">
   <rect x="324" y="10.777356" width="16.2" height="50.085288"/>
  </clipPath>
  <clipPath id="pe4c2eb859f">
   <rect x="342.938979" y="8.64" width="10.722041" height="54.36"/>
  </clipPath>
  <clipPath id="p5ee1ddb644">
   <rect x="357.451945" y="8.64" width="14.09611" height="54.36"/>
  </clipPath>
  <clipPath id="p519b3c109e">
   <rect x="388.8" y="10.777356" width="16.2" height="50.085288"/>
  </clipPath>
  <clipPath id="p524f0265c0">
   <rect x="423.938979" y="8.64" width="10.722041" height="54.36"/>
  </clipPath>
  <clipPath id="p343176ca58">
   <rect x="438.789352" y="8.64" width="13.421297" height="54.36"/>
  </clipPath>
  <clipPath id="p26771d050b">
   <rect x="453.6" y="9.603482" width="16.2" height="52.433036"/>
  </clipPath>
  <clipPath id="ped5a12edd0">
   <rect x="469.8" y="9.603482" width="16.2" height="52.433036"/>
  </clipPath>
  <clipPath id="p93eef372a5">
   <rect x="486" y="10.777356" width="16.2" height="50.085288"/>
  </clipPath>
  <clipPath id="p99d66014d7">
   <rect x="502.2" y="9.426742" width="16.2" height="52.786517"/>
  </clipPath>
  <clipPath id="paf63488ec3">
   <rect x="524.006938" y="8.64" width="4.986124" height="54.36"/>
  </clipPath>
  <clipPath id="pf0d738f74f">
   <rect x="536.364248" y="8.64" width="12.671503" height="54.36"/>
  </clipPath>
  <clipPath id="p34be23e9a1">
   <rect x="550.8" y="9.426742" width="16.2" height="52.786517"/>
  </clipPath>
 </defs>
</svg>
