<?xml version="1.0" encoding="utf-8" standalone="no"?>
<!DOCTYPE svg PUBLIC "-//W3C//DTD SVG 1.1//EN"
  "http://www.w3.org/Graphics/SVG/1.1/DTD/svg11.dtd">
<svg xmlns:xlink="http://www.w3.org/1999/xlink" width="648pt" height="72pt" viewBox="0 0 648 72" xmlns="http://www.w3.org/2000/svg" version="1.1">
 <metadata>
  <rdf:RDF xmlns:dc="http://purl.org/dc/elements/1.1/" xmlns:cc="http://creativecommons.org/ns#" xmlns:rdf="http://www.w3.org/1999/02/22-rdf-syntax-ns#">
   <cc:Work>
    <dc:type rdf:resource="http://purl.org/dc/dcmitype/StillImage"/>
    <dc:date>2024-01-04T18:45:36.127298</dc:date>
    <dc:format>image/svg+xml</dc:format>
    <dc:creator>
     <cc:Agent>
      <dc:title>Matplotlib v3.7.1, https://matplotlib.org/</dc:title>
     </cc:Agent>
    </dc:creator>
   </cc:Work>
  </rdf:RDF>
 </metadata>
 <defs>
  <style type="text/css">*{stroke-linejoin: round; stroke-linecap: butt}</style>
 </defs>
 <g id="figure_1">
  <g id="patch_1">
   <path d="M 0 72 
L 648 72 
L 648 0 
L 0 0 
z
" style="fill: #8fff9f"/>
  </g>
  <g id="axes_1">
   <g id="patch_2">
    <path d="M 1.808036 34.879821 
Q 2.314286 36.073125 2.603571 42.871339 
Q 2.748214 46.632054 3.0375 46.632054 
Q 3.073661 46.632054 3.109821 46.595893 
Q 3.616071 46.017321 3.670312 44.588973 
Q 3.724554 43.160625 3.507589 41.750357 
Q 3.290625 40.340089 3.0375 38.712857 
Q 2.784375 37.085625 2.784375 36.398571 
Q 2.784375 35.169107 3.164062 33.939643 
Q 3.54375 32.710179 4.520089 32.710179 
Q 5.749554 32.710179 6.472768 34.355491 
Q 7.195982 36.000804 7.358705 37.971563 
Q 7.521429 39.942321 7.629911 41.587634 
Q 7.738393 43.232946 7.883036 43.232946 
Q 8.027679 43.232946 8.11808 41.497232 
Q 8.208482 39.761518 8.335045 37.700357 
Q 8.461607 35.639196 9.184821 33.903482 
Q 9.908036 32.167768 11.1375 32.167768 
Q 12.692411 33.035625 13.361384 34.771339 
Q 14.030357 36.507054 13.994196 38.188527 
Q 13.958036 39.87 13.976116 42.057723 
Q 13.994196 44.245446 14.391964 45.511071 
" clip-path="url(#p3534602b66)" style="fill: none; stroke: #000000; stroke-linejoin: miter"/>
   </g>
  </g>
  <g id="axes_2">
   <g id="patch_3">
    <path d="M 19.688772 35.145186 
Q 19.688772 35.145186 19.688772 35.595062 
Q 19.688772 36.269876 19.576303 37.619503 
Q 19.463834 38.969131 19.463834 39.643945 
Q 19.463834 41.930814 20.700993 43.599103 
Q 21.938152 45.267393 24.075062 45.267393 
Q 25.462179 45.154924 26.230717 43.917766 
Q 26.999255 42.680607 27.149214 41.237255 
Q 27.299172 39.793903 27.5616 37.9944 
Q 27.824028 36.194897 28.236414 35.370124 
Q 28.386372 35.070207 28.386372 35.670041 
Q 28.386372 36.269876 28.123945 38.706703 
Q 27.899007 41.031062 27.899007 41.555917 
Q 27.749048 42.643117 28.086455 43.767807 
Q 28.423862 44.892497 29.136166 45.6048 
" clip-path="url(#pcd087a0c1e)" style="fill: none; stroke: #000000; stroke-linejoin: miter"/>
   </g>
  </g>
  <g id="axes_3">
   <g id="patch_4">
    <path d="M 45.756735 34.365306 
Q 45.756735 34.365306 45.260816 34.365306 
Q 44.467347 34.365306 42.979592 34.067755 
Q 41.491837 33.770204 40.698367 33.770204 
Q 37.921224 33.770204 35.987143 35.224898 
Q 34.053061 36.679592 34.053061 39.423673 
Q 34.053061 40.94449 35.540816 42.399184 
Q 37.028571 43.853878 38.962653 44.663878 
Q 40.896735 45.473878 42.38449 45.473878 
Q 43.310204 45.473878 44.00449 45.110204 
Q 44.698776 44.746531 45.442653 44.118367 
Q 46.186531 43.490204 46.748571 43.192653 
L 46.946939 42.696735 
" clip-path="url(#p368ae862bd)" style="fill: none; stroke: #000000; stroke-linejoin: miter"/>
   </g>
  </g>
  <g id="axes_4">
   <g id="patch_5">
    <path d="M 53.213462 35.932469 
Q 53.813297 35.257655 54.806772 34.826524 
Q 55.800248 34.395393 56.7 34.470372 
Q 57.337324 34.470372 57.82469 34.639076 
Q 58.312055 34.807779 58.630717 34.995228 
Q 58.949379 35.182676 59.174317 35.670041 
Q 59.399255 36.157407 59.511724 36.419834 
Q 59.624193 36.682262 59.680428 37.375821 
Q 59.736662 38.069379 59.755407 38.331807 
Q 59.774152 38.594234 59.755407 39.419007 
Q 59.736662 40.243779 59.736662 40.431228 
Q 59.736662 41.368469 59.567959 43.242952 
Q 59.399255 45.117434 59.399255 46.054676 
Q 59.399255 46.467062 59.45549 46.823214 
Q 59.511724 47.179366 59.605448 47.610497 
Q 59.699172 48.041628 59.736662 48.304055 
L 60.186538 48.528993 
M 53.663338 23.111007 
Q 53.888276 24.798041 53.888276 29.971614 
L 53.888276 42.3432 
L 53.550869 46.841959 
L 53.325931 47.74171 
" clip-path="url(#pa0a37809b1)" style="fill: none; stroke: #000000; stroke-linejoin: miter"/>
   </g>
  </g>
  <g id="axes_5"/>
  <g id="axes_6">
   <g id="patch_6">
    <path d="M 84.263834 37.95691 
L 84.938648 37.95691 
Q 85.650952 37.95691 86.438234 37.881931 
Q 87.225517 37.806952 88.181503 37.675738 
Q 89.13749 37.544524 89.662345 37.507034 
L 93.936166 35.82 
M 89.887283 30.42149 
L 89.887283 31.43371 
Q 89.887283 33.383172 89.212469 37.207117 
Q 88.537655 41.031062 88.537655 43.018014 
Q 88.537655 43.805297 88.537655 44.105214 
Q 88.537655 44.405131 88.631379 45.042455 
Q 88.725103 45.679779 88.912552 45.960952 
Q 89.1 46.242124 89.493641 46.485807 
Q 89.887283 46.72949 90.449628 46.72949 
Q 90.562097 46.692 90.880759 46.72949 
Q 91.199421 46.766979 91.386869 46.710745 
Q 91.574317 46.65451 91.574317 46.392083 
" clip-path="url(#p4fed98cd08)" style="fill: none; stroke: #000000; stroke-linejoin: miter"/>
   </g>
  </g>
  <g id="axes_7">
   <g id="patch_7">
    <path d="M 108.5616 35.032717 
Q 107.51189 34.582841 106.537159 34.69531 
Q 103.500497 35.032717 101.588524 36.701007 
Q 99.676552 38.369297 99.676552 41.330979 
Q 99.676552 43.917766 101.682248 45.6048 
Q 103.687945 47.291834 106.312221 47.291834 
Q 108.674069 47.291834 109.798759 45.361117 
Q 110.923448 43.4304 110.923448 40.881103 
Q 110.923448 39.643945 110.511062 38.706703 
Q 110.098676 37.769462 109.573821 37.300841 
Q 109.048966 36.832221 108.299172 36.119917 
Q 107.549379 35.407614 107.099503 34.69531 
L 105.862345 34.245434 
" clip-path="url(#p8a21042794)" style="fill: none; stroke: #000000; stroke-linejoin: miter"/>
   </g>
  </g>
  <g id="axes_8"/>
  <g id="axes_9">
   <g id="patch_8">
    <path d="M 132.863834 37.95691 
L 133.538648 37.95691 
Q 134.250952 37.95691 135.038234 37.881931 
Q 135.825517 37.806952 136.781503 37.675738 
Q 137.73749 37.544524 138.262345 37.507034 
L 142.536166 35.82 
M 138.487283 30.42149 
L 138.487283 31.43371 
Q 138.487283 33.383172 137.812469 37.207117 
Q 137.137655 41.031062 137.137655 43.018014 
Q 137.137655 43.805297 137.137655 44.105214 
Q 137.137655 44.405131 137.231379 45.042455 
Q 137.325103 45.679779 137.512552 45.960952 
Q 137.7 46.242124 138.093641 46.485807 
Q 138.487283 46.72949 139.049628 46.72949 
Q 139.162097 46.692 139.480759 46.72949 
Q 139.799421 46.766979 139.986869 46.710745 
Q 140.174317 46.65451 140.174317 46.392083 
" clip-path="url(#p82a5ca0c5a)" style="fill: none; stroke: #000000; stroke-linejoin: miter"/>
   </g>
  </g>
  <g id="axes_10">
   <g id="patch_9">
    <path d="M 159.443923 36.441748 
Q 158.234968 35.094627 154.262687 35.094627 
Q 152.742857 35.094627 151.965672 35.146439 
Q 151.188486 35.198252 150.18678 35.440043 
Q 149.185075 35.681834 148.701493 36.182687 
Q 148.21791 36.683539 147.872495 37.616162 
Q 147.527079 38.548785 147.527079 39.964989 
Q 147.527079 42.037484 148.943284 43.280981 
Q 150.359488 44.524478 152.293817 44.524478 
Q 154.953518 44.524478 157.716844 38.721493 
Q 159.063966 35.854542 159.063966 35.82 
Q 159.409382 35.578209 159.443923 36.441748 
Q 159.443923 37.512537 159.858422 40.362217 
Q 160.272921 43.211898 160.272921 44.524478 
" clip-path="url(#pf652c226be)" style="fill: none; stroke: #000000; stroke-linejoin: miter"/>
   </g>
  </g>
  <g id="axes_11">
   <g id="patch_10">
    <path d="M 168.131793 37.169628 
Q 170.156234 39.194069 171.918248 41.76211 
Q 173.680262 44.330152 174.542524 46.72949 
M 171.168455 31.321241 
L 171.168455 31.546179 
Q 171.168455 32.333462 170.531131 33.514386 
Q 169.893807 34.69531 168.919076 36.101172 
Q 167.944345 37.507034 167.681917 37.95691 
L 166.444759 39.643945 
M 165.657476 26.710014 
Q 167.494469 36.269876 167.681917 48.641462 
" clip-path="url(#p11359bb2b9)" style="fill: none; stroke: #000000; stroke-linejoin: miter"/>
   </g>
  </g>
  <g id="axes_12">
   <g id="patch_11">
    <path d="M 180.057798 38.160826 
Q 183.030275 39.535596 187.749083 39.721376 
Q 189.272477 39.721376 189.959862 38.550963 
Q 190.647248 37.38055 190.647248 35.82 
Q 190.647248 35.299817 190.554358 34.909679 
Q 190.461468 34.519541 190.219954 34.296606 
Q 189.97844 34.07367 189.811239 33.943624 
Q 189.644037 33.813578 189.198165 33.757844 
Q 188.752294 33.70211 188.547936 33.683532 
Q 188.343578 33.664954 187.767661 33.683532 
Q 187.191743 33.70211 186.968807 33.70211 
Q 184.925229 33.70211 183.438991 35.578486 
Q 181.952752 37.454862 181.952752 39.609908 
Q 181.952752 42.619541 183.884862 44.570229 
Q 185.816972 46.520917 188.863761 46.520917 
Q 191.018807 46.818165 192.542202 44.29156 
" clip-path="url(#p8ee1e5d11b)" style="fill: none; stroke: #000000; stroke-linejoin: miter"/>
   </g>
  </g>
  <g id="axes_13"/>
  <g id="axes_14">
   <g id="patch_12">
    <path d="M 213.863834 37.95691 
L 214.538648 37.95691 
Q 215.250952 37.95691 216.038234 37.881931 
Q 216.825517 37.806952 217.781503 37.675738 
Q 218.73749 37.544524 219.262345 37.507034 
L 223.536166 35.82 
M 219.487283 30.42149 
L 219.487283 31.43371 
Q 219.487283 33.383172 218.812469 37.207117 
Q 218.137655 41.031062 218.137655 43.018014 
Q 218.137655 43.805297 218.137655 44.105214 
Q 218.137655 44.405131 218.231379 45.042455 
Q 218.325103 45.679779 218.512552 45.960952 
Q 218.7 46.242124 219.093641 46.485807 
Q 219.487283 46.72949 220.049628 46.72949 
Q 220.162097 46.692 220.480759 46.72949 
Q 220.799421 46.766979 220.986869 46.710745 
Q 221.174317 46.65451 221.174317 46.392083 
" clip-path="url(#p330a8f1283)" style="fill: none; stroke: #000000; stroke-linejoin: miter"/>
   </g>
  </g>
  <g id="axes_15">
   <g id="patch_13">
    <path d="M 231.413462 35.932469 
Q 232.013297 35.257655 233.006772 34.826524 
Q 234.000248 34.395393 234.9 34.470372 
Q 235.537324 34.470372 236.02469 34.639076 
Q 236.512055 34.807779 236.830717 34.995228 
Q 237.149379 35.182676 237.374317 35.670041 
Q 237.599255 36.157407 237.711724 36.419834 
Q 237.824193 36.682262 237.880428 37.375821 
Q 237.936662 38.069379 237.955407 38.331807 
Q 237.974152 38.594234 237.955407 39.419007 
Q 237.936662 40.243779 237.936662 40.431228 
Q 237.936662 41.368469 237.767959 43.242952 
Q 237.599255 45.117434 237.599255 46.054676 
Q 237.599255 46.467062 237.65549 46.823214 
Q 237.711724 47.179366 237.805448 47.610497 
Q 237.899172 48.041628 237.936662 48.304055 
L 238.386538 48.528993 
M 231.863338 23.111007 
Q 232.088276 24.798041 232.088276 29.971614 
L 232.088276 42.3432 
L 231.750869 46.841959 
L 231.525931 47.74171 
" clip-path="url(#p9a6802787a)" style="fill: none; stroke: #000000; stroke-linejoin: miter"/>
   </g>
  </g>
  <g id="axes_16">
   <g id="patch_14">
    <path d="M 251.718579 29.071862 
Q 251.343683 29.146841 251.212469 29.577972 
Q 251.081255 30.009103 251.156234 30.42149 
Q 251.156234 30.571448 251.193724 30.702662 
Q 251.231214 30.833876 251.287448 30.89011 
Q 251.343683 30.946345 251.399917 31.040069 
Q 251.456152 31.133793 251.493641 31.208772 
L 251.60611 29.859145 
M 251.60611 34.020497 
Q 250.706359 39.006621 250.481421 42.793076 
L 250.931297 45.379862 
L 251.268703 46.054676 
" clip-path="url(#pf7056593c9)" style="fill: none; stroke: #000000; stroke-linejoin: miter"/>
   </g>
  </g>
  <g id="axes_17">
   <g id="patch_15">
    <path d="M 262.857476 43.917766 
Q 263.157393 44.180193 264.169614 45.154924 
Q 265.181834 46.129655 265.744179 46.560786 
Q 266.306524 46.991917 267.33749 47.385559 
Q 268.368455 47.7792 269.380676 47.629241 
Q 270.05549 47.629241 270.52411 47.404303 
Q 270.992731 47.179366 271.217669 46.879448 
Q 271.442607 46.579531 271.573821 45.979697 
Q 271.705034 45.379862 271.723779 44.967476 
Q 271.742524 44.55509 271.742524 43.805297 
Q 271.742524 42.718097 270.842772 42.043283 
Q 269.943021 41.368469 268.649628 41.031062 
Q 267.356234 40.693655 266.062841 40.300014 
Q 264.769448 39.906372 263.869697 38.987876 
Q 262.969945 38.069379 262.969945 36.607283 
Q 262.969945 36.082428 263.138648 35.726276 
Q 263.307352 35.370124 263.700993 35.145186 
Q 264.094634 34.920248 264.375807 34.807779 
Q 264.656979 34.69531 265.313048 34.639076 
Q 265.969117 34.582841 266.156566 34.582841 
Q 266.344014 34.582841 267.018828 34.582841 
Q 268.218497 34.582841 268.799586 34.995228 
Q 269.380676 35.407614 269.699338 36.026193 
Q 270.018 36.644772 270.280428 36.832221 
" clip-path="url(#pc6b353b1c0)" style="fill: none; stroke: #000000; stroke-linejoin: miter"/>
   </g>
  </g>
  <g id="axes_18"/>
  <g id="axes_19">
   <g id="patch_16">
    <path d="M 295.088772 35.145186 
Q 295.088772 35.145186 295.088772 35.595062 
Q 295.088772 36.269876 294.976303 37.619503 
Q 294.863834 38.969131 294.863834 39.643945 
Q 294.863834 41.930814 296.100993 43.599103 
Q 297.338152 45.267393 299.475062 45.267393 
Q 300.862179 45.154924 301.630717 43.917766 
Q 302.399255 42.680607 302.549214 41.237255 
Q 302.699172 39.793903 302.9616 37.9944 
Q 303.224028 36.194897 303.636414 35.370124 
Q 303.786372 35.070207 303.786372 35.670041 
Q 303.786372 36.269876 303.523945 38.706703 
Q 303.299007 41.031062 303.299007 41.555917 
Q 303.149048 42.643117 303.486455 43.767807 
Q 303.823862 44.892497 304.536166 45.6048 
" clip-path="url(#p27cbca8fc8)" style="fill: none; stroke: #000000; stroke-linejoin: miter"/>
   </g>
  </g>
  <g id="axes_20">
   <g id="patch_17">
    <path d="M 311.120069 39.868883 
L 311.120069 39.419007 
Q 311.120069 37.769462 312.863338 36.682262 
Q 314.606607 35.595062 316.293641 35.595062 
Q 318.505531 35.595062 319.873903 36.794731 
Q 321.242276 37.9944 321.242276 40.20629 
Q 321.242276 42.30571 319.424028 43.336676 
Q 317.605779 44.367641 315.39389 44.367641 
Q 314.719076 44.367641 314.212966 44.255172 
Q 313.706855 44.142703 313.088276 43.917766 
Q 312.469697 43.692828 312.019821 43.580359 
L 310.895131 42.568138 
M 310.557724 36.832221 
Q 311.0076 38.444276 311.270028 40.262524 
Q 311.532455 42.080772 311.58869 43.749062 
Q 311.644924 45.417352 311.682414 47.27309 
Q 311.719903 49.128828 311.682414 50.778372 
L 311.569945 57.863917 
" clip-path="url(#p0ebcd39711)" style="fill: none; stroke: #000000; stroke-linejoin: miter"/>
   </g>
  </g>
  <g id="axes_21">
   <g id="patch_18">
    <path d="M 335.3616 35.032717 
Q 334.31189 34.582841 333.337159 34.69531 
Q 330.300497 35.032717 328.388524 36.701007 
Q 326.476552 38.369297 326.476552 41.330979 
Q 326.476552 43.917766 328.482248 45.6048 
Q 330.487945 47.291834 333.112221 47.291834 
Q 335.474069 47.291834 336.598759 45.361117 
Q 337.723448 43.4304 337.723448 40.881103 
Q 337.723448 39.643945 337.311062 38.706703 
Q 336.898676 37.769462 336.373821 37.300841 
Q 335.848966 36.832221 335.099172 36.119917 
Q 334.349379 35.407614 333.899503 34.69531 
L 332.662345 34.245434 
" clip-path="url(#pb10c341410)" style="fill: none; stroke: #000000; stroke-linejoin: miter"/>
   </g>
  </g>
  <g id="axes_22">
   <g id="patch_19">
    <path d="M 343.838731 37.282097 
L 343.838731 37.844441 
Q 344.101159 39.868883 344.138648 41.312234 
Q 344.176138 42.755586 344.082414 44.667559 
Q 343.98869 46.579531 343.98869 48.191586 
L 344.063669 39.643945 
Q 344.063669 38.144359 345.656979 37.507034 
Q 347.25029 36.86971 348.674897 37.282097 
Q 350.586869 37.844441 351.505366 39.04411 
Q 352.423862 40.243779 352.480097 41.668386 
Q 352.536331 43.092993 352.573821 44.817517 
Q 352.61131 46.542041 352.761269 48.191586 
" clip-path="url(#pcc5ebb7378)" style="fill: none; stroke: #000000; stroke-linejoin: miter"/>
   </g>
  </g>
  <g id="axes_23"/>
  <g id="axes_24">
   <g id="patch_20">
    <path d="M 375.563917 36.382345 
Q 375.526428 36.494814 375.657641 36.701007 
Q 375.788855 36.9072 375.676386 37.057159 
L 375.676386 39.306538 
Q 375.676386 40.506207 376.013793 41.724621 
Q 376.3512 42.943034 377.213462 43.93651 
Q 378.075724 44.929986 379.275393 44.929986 
Q 380.512552 44.929986 381.187366 43.861531 
Q 381.862179 42.793076 382.312055 41.143531 
Q 382.761931 39.493986 383.099338 38.969131 
L 383.886621 36.382345 
L 383.661683 42.680607 
L 383.661683 45.154924 
Q 383.661683 47.066897 384.392731 51.00331 
Q 385.123779 54.939724 385.123779 56.964166 
Q 385.873572 59.213545 384.786372 60.188276 
Q 383.699172 61.163007 381.637241 60.78811 
Q 379.837738 60.488193 378.919241 60.169531 
Q 378.000745 59.850869 376.013793 58.988607 
L 375.901324 58.426262 
" clip-path="url(#p800dcde34d)" style="fill: none; stroke: #000000; stroke-linejoin: miter"/>
   </g>
  </g>
  <g id="axes_25">
   <g id="patch_21">
    <path d="M 400.1616 35.032717 
Q 399.11189 34.582841 398.137159 34.69531 
Q 395.100497 35.032717 393.188524 36.701007 
Q 391.276552 38.369297 391.276552 41.330979 
Q 391.276552 43.917766 393.282248 45.6048 
Q 395.287945 47.291834 397.912221 47.291834 
Q 400.274069 47.291834 401.398759 45.361117 
Q 402.523448 43.4304 402.523448 40.881103 
Q 402.523448 39.643945 402.111062 38.706703 
Q 401.698676 37.769462 401.173821 37.300841 
Q 400.648966 36.832221 399.899172 36.119917 
Q 399.149379 35.407614 398.699503 34.69531 
L 397.462345 34.245434 
" clip-path="url(#p7f9139ebf3)" style="fill: none; stroke: #000000; stroke-linejoin: miter"/>
   </g>
  </g>
  <g id="axes_26">
   <g id="patch_22">
    <path d="M 408.488772 35.145186 
Q 408.488772 35.145186 408.488772 35.595062 
Q 408.488772 36.269876 408.376303 37.619503 
Q 408.263834 38.969131 408.263834 39.643945 
Q 408.263834 41.930814 409.500993 43.599103 
Q 410.738152 45.267393 412.875062 45.267393 
Q 414.262179 45.154924 415.030717 43.917766 
Q 415.799255 42.680607 415.949214 41.237255 
Q 416.099172 39.793903 416.3616 37.9944 
Q 416.624028 36.194897 417.036414 35.370124 
Q 417.186372 35.070207 417.186372 35.670041 
Q 417.186372 36.269876 416.923945 38.706703 
Q 416.699007 41.031062 416.699007 41.555917 
Q 416.549048 42.643117 416.886455 43.767807 
Q 417.223862 44.892497 417.936166 45.6048 
" clip-path="url(#pe0a2509f44)" style="fill: none; stroke: #000000; stroke-linejoin: miter"/>
   </g>
  </g>
  <g id="axes_27">
   <g id="patch_23">
    <path d="M 425.813462 32.783338 
Q 426.338317 34.507862 426.469531 36.457324 
Q 426.600745 38.406786 426.525766 40.956083 
Q 426.450786 43.505379 426.488276 44.705048 
L 426.600745 46.054676 
L 426.600745 45.829738 
Q 426.600745 44.667559 426.319572 42.30571 
Q 426.0384 39.943862 426.0384 38.744193 
Q 426.0384 36.419834 427.050621 34.882759 
Q 428.062841 33.345683 430.087283 33.345683 
Q 430.799586 33.345683 431.136993 33.626855 
Q 431.4744 33.908028 431.736828 34.432883 
Q 431.999255 34.957738 432.336662 35.257655 
L 432.786538 36.832221 
" clip-path="url(#pe8d40c1006)" style="fill: none; stroke: #000000; stroke-linejoin: miter"/>
   </g>
  </g>
  <g id="axes_28"/>
  <g id="axes_29">
   <g id="patch_24">
    <path d="M 456.920069 39.868883 
L 456.920069 39.419007 
Q 456.920069 37.769462 458.663338 36.682262 
Q 460.406607 35.595062 462.093641 35.595062 
Q 464.305531 35.595062 465.673903 36.794731 
Q 467.042276 37.9944 467.042276 40.20629 
Q 467.042276 42.30571 465.224028 43.336676 
Q 463.405779 44.367641 461.19389 44.367641 
Q 460.519076 44.367641 460.012966 44.255172 
Q 459.506855 44.142703 458.888276 43.917766 
Q 458.269697 43.692828 457.819821 43.580359 
L 456.695131 42.568138 
M 456.357724 36.832221 
Q 456.8076 38.444276 457.070028 40.262524 
Q 457.332455 42.080772 457.38869 43.749062 
Q 457.444924 45.417352 457.482414 47.27309 
Q 457.519903 49.128828 457.482414 50.778372 
L 457.369945 57.863917 
" clip-path="url(#p4ae989a6eb)" style="fill: none; stroke: #000000; stroke-linejoin: miter"/>
   </g>
  </g>
  <g id="axes_30">
   <g id="patch_25">
    <path d="M 471.657798 38.160826 
Q 474.630275 39.535596 479.349083 39.721376 
Q 480.872477 39.721376 481.559862 38.550963 
Q 482.247248 37.38055 482.247248 35.82 
Q 482.247248 35.299817 482.154358 34.909679 
Q 482.061468 34.519541 481.819954 34.296606 
Q 481.57844 34.07367 481.411239 33.943624 
Q 481.244037 33.813578 480.798165 33.757844 
Q 480.352294 33.70211 480.147936 33.683532 
Q 479.943578 33.664954 479.367661 33.683532 
Q 478.791743 33.70211 478.568807 33.70211 
Q 476.525229 33.70211 475.038991 35.578486 
Q 473.552752 37.454862 473.552752 39.609908 
Q 473.552752 42.619541 475.484862 44.570229 
Q 477.416972 46.520917 480.463761 46.520917 
Q 482.618807 46.818165 484.142202 44.29156 
" clip-path="url(#p6eb25f6e47)" style="fill: none; stroke: #000000; stroke-linejoin: miter"/>
   </g>
  </g>
  <g id="axes_31">
   <g id="patch_26">
    <path d="M 490.613462 32.783338 
Q 491.138317 34.507862 491.269531 36.457324 
Q 491.400745 38.406786 491.325766 40.956083 
Q 491.250786 43.505379 491.288276 44.705048 
L 491.400745 46.054676 
L 491.400745 45.829738 
Q 491.400745 44.667559 491.119572 42.30571 
Q 490.8384 39.943862 490.8384 38.744193 
Q 490.8384 36.419834 491.850621 34.882759 
Q 492.862841 33.345683 494.887283 33.345683 
Q 495.599586 33.345683 495.936993 33.626855 
Q 496.2744 33.908028 496.536828 34.432883 
Q 496.799255 34.957738 497.136662 35.257655 
L 497.586538 36.832221 
" clip-path="url(#pcd2961807f)" style="fill: none; stroke: #000000; stroke-linejoin: miter"/>
   </g>
  </g>
  <g id="axes_32">
   <g id="patch_27">
    <path d="M 505.857476 43.917766 
Q 506.157393 44.180193 507.169614 45.154924 
Q 508.181834 46.129655 508.744179 46.560786 
Q 509.306524 46.991917 510.33749 47.385559 
Q 511.368455 47.7792 512.380676 47.629241 
Q 513.05549 47.629241 513.52411 47.404303 
Q 513.992731 47.179366 514.217669 46.879448 
Q 514.442607 46.579531 514.573821 45.979697 
Q 514.705034 45.379862 514.723779 44.967476 
Q 514.742524 44.55509 514.742524 43.805297 
Q 514.742524 42.718097 513.842772 42.043283 
Q 512.943021 41.368469 511.649628 41.031062 
Q 510.356234 40.693655 509.062841 40.300014 
Q 507.769448 39.906372 506.869697 38.987876 
Q 505.969945 38.069379 505.969945 36.607283 
Q 505.969945 36.082428 506.138648 35.726276 
Q 506.307352 35.370124 506.700993 35.145186 
Q 507.094634 34.920248 507.375807 34.807779 
Q 507.656979 34.69531 508.313048 34.639076 
Q 508.969117 34.582841 509.156566 34.582841 
Q 509.344014 34.582841 510.018828 34.582841 
Q 511.218497 34.582841 511.799586 34.995228 
Q 512.380676 35.407614 512.699338 36.026193 
Q 513.018 36.644772 513.280428 36.832221 
" clip-path="url(#p0999ae134f)" style="fill: none; stroke: #000000; stroke-linejoin: miter"/>
   </g>
  </g>
  <g id="axes_33">
   <g id="patch_28">
    <path d="M 529.7616 35.032717 
Q 528.71189 34.582841 527.737159 34.69531 
Q 524.700497 35.032717 522.788524 36.701007 
Q 520.876552 38.369297 520.876552 41.330979 
Q 520.876552 43.917766 522.882248 45.6048 
Q 524.887945 47.291834 527.512221 47.291834 
Q 529.874069 47.291834 530.998759 45.361117 
Q 532.123448 43.4304 532.123448 40.881103 
Q 532.123448 39.643945 531.711062 38.706703 
Q 531.298676 37.769462 530.773821 37.300841 
Q 530.248966 36.832221 529.499172 36.119917 
Q 528.749379 35.407614 528.299503 34.69531 
L 527.062345 34.245434 
" clip-path="url(#paa450e9acd)" style="fill: none; stroke: #000000; stroke-linejoin: miter"/>
   </g>
  </g>
  <g id="axes_34">
   <g id="patch_29">
    <path d="M 538.238731 37.282097 
L 538.238731 37.844441 
Q 538.501159 39.868883 538.538648 41.312234 
Q 538.576138 42.755586 538.482414 44.667559 
Q 538.38869 46.579531 538.38869 48.191586 
L 538.463669 39.643945 
Q 538.463669 38.144359 540.056979 37.507034 
Q 541.65029 36.86971 543.074897 37.282097 
Q 544.986869 37.844441 545.905366 39.04411 
Q 546.823862 40.243779 546.880097 41.668386 
Q 546.936331 43.092993 546.973821 44.817517 
Q 547.01131 46.542041 547.161269 48.191586 
" clip-path="url(#p3d354600bd)" style="fill: none; stroke: #000000; stroke-linejoin: miter"/>
   </g>
  </g>
  <g id="axes_35">
   <g id="patch_30">
    <path d="M 557.175476 45.379862 
Q 556.913048 45.304883 556.631876 45.64229 
Q 556.350703 45.979697 556.425683 46.279614 
Q 556.425683 46.429572 556.875559 46.429572 
Q 557.025517 46.467062 557.137986 46.392083 
Q 557.250455 46.317103 557.250455 46.129655 
M 553.951366 26.934952 
Q 556.875559 25.922731 559.199917 26.0352 
Q 561.224359 26.0352 562.536497 27.197379 
Q 563.848634 28.359559 563.848634 30.309021 
Q 563.848634 32.745848 562.255324 34.001752 
Q 560.662014 35.257655 558.150207 35.257655 
L 556.650621 35.257655 
Q 556.500662 35.257655 556.463172 36.194897 
Q 556.425683 37.132138 556.463172 38.069379 
L 556.500662 39.006621 
L 556.500662 41.405959 
L 556.800579 42.230731 
" clip-path="url(#pac89cc1bca)" style="fill: none; stroke: #000000; stroke-linejoin: miter"/>
   </g>
  </g>
  <g id="axes_36">
   <g id="patch_31">
    <path d="M 575.624855 27.009931 
Q 575.699834 27.347338 575.774814 28.265834 
Q 575.849793 29.184331 575.999752 29.634207 
L 575.924772 31.058814 
M 574.275228 27.309848 
Q 574.237738 27.309848 574.200248 27.534786 
Q 574.237738 27.684745 574.350207 28.828179 
Q 574.462676 29.971614 574.725103 30.533959 
" clip-path="url(#p4bfb1cc943)" style="fill: none; stroke: #000000; stroke-linejoin: miter"/>
   </g>
  </g>
 </g>
 <defs>
  <clipPath id="p3534602b66">
   <rect x="0" y="9.603482" width="16.2" height="52.433036"/>
  </clipPath>
  <clipPath id="pcd087a0c1e">
   <rect x="17.589352" y="8.64" width="13.421297" height="54.36"/>
  </clipPath>
  <clipPath id="p368ae862bd">
   <rect x="32.4" y="11.850612" width="16.2" height="47.938776"/>
  </clipPath>
  <clipPath id="pa0a37809b1">
   <rect x="51.338979" y="8.64" width="10.722041" height="54.36"/>
  </clipPath>
  <clipPath id="p4fed98cd08">
   <rect x="82.389352" y="8.64" width="13.421297" height="54.36"/>
  </clipPath>
  <clipPath id="p8a21042794">
   <rect x="97.802069" y="8.64" width="14.995862" height="54.36"/>
  </clipPath>
  <clipPath id="p82a5ca0c5a">
   <rect x="130.989352" y="8.64" width="13.421297" height="54.36"/>
  </clipPath>
  <clipPath id="pf652c226be">
   <rect x="145.8" y="10.777356" width="16.2" height="50.085288"/>
  </clipPath>
  <clipPath id="p11359bb2b9">
   <rect x="163.782993" y="8.64" width="12.634014" height="54.36"/>
  </clipPath>
  <clipPath id="p8ee1e5d11b">
   <rect x="178.2" y="8.881927" width="16.2" height="53.876147"/>
  </clipPath>
  <clipPath id="p330a8f1283">
   <rect x="211.989352" y="8.64" width="13.421297" height="54.36"/>
  </clipPath>
  <clipPath id="p9a6802787a">
   <rect x="229.538979" y="8.64" width="10.722041" height="54.36"/>
  </clipPath>
  <clipPath id="pf7056593c9">
   <rect x="248.606938" y="8.64" width="4.986124" height="54.36"/>
  </clipPath>
  <clipPath id="pc6b353b1c0">
   <rect x="260.982993" y="8.64" width="12.634014" height="54.36"/>
  </clipPath>
  <clipPath id="p27cbca8fc8">
   <rect x="292.989352" y="8.64" width="13.421297" height="54.36"/>
  </clipPath>
  <clipPath id="p0ebcd39711">
   <rect x="308.683241" y="8.64" width="14.433517" height="54.36"/>
  </clipPath>
  <clipPath id="pb10c341410">
   <rect x="324.602069" y="8.64" width="14.995862" height="54.36"/>
  </clipPath>
  <clipPath id="pcc5ebb7378">
   <rect x="341.964248" y="8.64" width="12.671503" height="54.36"/>
  </clipPath>
  <clipPath id="p800dcde34d">
   <rect x="373.651945" y="8.64" width="14.09611" height="54.36"/>
  </clipPath>
  <clipPath id="p7f9139ebf3">
   <rect x="389.402069" y="8.64" width="14.995862" height="54.36"/>
  </clipPath>
  <clipPath id="pe0a2509f44">
   <rect x="406.389352" y="8.64" width="13.421297" height="54.36"/>
  </clipPath>
  <clipPath id="pe8d40c1006">
   <rect x="423.938979" y="8.64" width="10.722041" height="54.36"/>
  </clipPath>
  <clipPath id="p4ae989a6eb">
   <rect x="454.483241" y="8.64" width="14.433517" height="54.36"/>
  </clipPath>
  <clipPath id="p6eb25f6e47">
   <rect x="469.8" y="8.881927" width="16.2" height="53.876147"/>
  </clipPath>
  <clipPath id="pcd2961807f">
   <rect x="488.738979" y="8.64" width="10.722041" height="54.36"/>
  </clipPath>
  <clipPath id="p0999ae134f">
   <rect x="503.982993" y="8.64" width="12.634014" height="54.36"/>
  </clipPath>
  <clipPath id="paa450e9acd">
   <rect x="519.002069" y="8.64" width="14.995862" height="54.36"/>
  </clipPath>
  <clipPath id="p3d354600bd">
   <rect x="536.364248" y="8.64" width="12.671503" height="54.36"/>
  </clipPath>
  <clipPath id="pac89cc1bca">
   <rect x="552.076883" y="8.64" width="13.646234" height="54.36"/>
  </clipPath>
  <clipPath id="p4bfb1cc943">
   <rect x="572.325766" y="8.64" width="5.548469" height="54.36"/>
  </clipPath>
 </defs>
</svg>
