<?xml version="1.0" encoding="utf-8" standalone="no"?>
<!DOCTYPE svg PUBLIC "-//W3C//DTD SVG 1.1//EN"
  "http://www.w3.org/Graphics/SVG/1.1/DTD/svg11.dtd">
<svg xmlns:xlink="http://www.w3.org/1999/xlink" width="684pt" height="72pt" viewBox="0 0 684 72" xmlns="http://www.w3.org/2000/svg" version="1.1">
 <metadata>
  <rdf:RDF xmlns:dc="http://purl.org/dc/elements/1.1/" xmlns:cc="http://creativecommons.org/ns#" xmlns:rdf="http://www.w3.org/1999/02/22-rdf-syntax-ns#">
   <cc:Work>
    <dc:type rdf:resource="http://purl.org/dc/dcmitype/StillImage"/>
    <dc:date>2024-01-04T18:46:13.370239</dc:date>
    <dc:format>image/svg+xml</dc:format>
    <dc:creator>
     <cc:Agent>
      <dc:title>Matplotlib v3.7.1, https://matplotlib.org/</dc:title>
     </cc:Agent>
    </dc:creator>
   </cc:Work>
  </rdf:RDF>
 </metadata>
 <defs>
  <style type="text/css">*{stroke-linejoin: round; stroke-linecap: butt}</style>
 </defs>
 <g id="figure_1">
  <g id="patch_1">
   <path d="M 0 72 
L 684 72 
L 684 0 
L 0 0 
z
" style="fill: #8fff9f"/>
  </g>
  <g id="axes_1">
   <g id="patch_2">
    <path d="M 4.781498 38.139383 
Q 4.781498 38.139383 6.815419 38.139383 
Q 7.636123 37.889604 9.955507 38.085859 
Q 12.27489 38.282115 13.238326 38.139383 
M 1.784141 46.489163 
L 1.891189 46.168018 
Q 1.891189 45.275947 3.818062 40.797753 
Q 5.744934 36.319559 7.707489 32.251718 
Q 9.670044 28.183877 9.812775 28.183877 
Q 10.669163 28.183877 11.364978 29.646872 
Q 12.060793 31.109868 12.52467 33.393568 
Q 12.988546 35.677269 13.327533 37.943128 
Q 13.66652 40.208987 13.951982 42.332115 
Q 14.237445 44.455242 14.415859 45.097533 
" clip-path="url(#p067cdb46d6)" style="fill: none; stroke: #000000; stroke-linejoin: miter"/>
   </g>
  </g>
  <g id="axes_2">
   <g id="patch_3">
    <path d="M 17.984141 38.85304 
L 18.412335 38.85304 
Q 19.23304 38.85304 20.196476 38.745991 
Q 21.159912 38.638943 22.319604 38.460529 
Q 23.479295 38.282115 24.085903 38.210749 
L 30.615859 35.427489 
M 30.294714 25.793128 
Q 30.009251 25.721762 28.974449 25.275727 
Q 27.939648 24.829692 27.297357 24.93674 
Q 26.655066 24.93674 26.137665 25.150837 
Q 25.620264 25.364934 25.281278 25.793128 
Q 24.942291 26.221322 24.67467 26.685198 
Q 24.407048 27.149075 24.264317 27.862731 
Q 24.121586 28.576388 24.014537 29.129471 
Q 23.907489 29.682555 23.889648 30.50326 
Q 23.871806 31.323965 23.853965 31.77 
Q 23.836123 32.216035 23.853965 32.965374 
Q 23.871806 33.714714 23.871806 33.928811 
Q 23.871806 36.605022 24.567621 41.850396 
Q 25.263436 47.095771 25.263436 49.771982 
Q 25.19207 50.057445 25.156388 50.681894 
Q 25.120705 51.306344 25.013656 51.805903 
Q 24.906608 52.305463 24.621145 52.555242 
" clip-path="url(#p681f9a2e4b)" style="fill: none; stroke: #000000; stroke-linejoin: miter"/>
   </g>
  </g>
  <g id="axes_3">
   <g id="patch_4">
    <path d="M 35.663834 37.95691 
L 36.338648 37.95691 
Q 37.050952 37.95691 37.838234 37.881931 
Q 38.625517 37.806952 39.581503 37.675738 
Q 40.53749 37.544524 41.062345 37.507034 
L 45.336166 35.82 
M 41.287283 30.42149 
L 41.287283 31.43371 
Q 41.287283 33.383172 40.612469 37.207117 
Q 39.937655 41.031062 39.937655 43.018014 
Q 39.937655 43.805297 39.937655 44.105214 
Q 39.937655 44.405131 40.031379 45.042455 
Q 40.125103 45.679779 40.312552 45.960952 
Q 40.5 46.242124 40.893641 46.485807 
Q 41.287283 46.72949 41.849628 46.72949 
Q 41.962097 46.692 42.280759 46.72949 
Q 42.599421 46.766979 42.786869 46.710745 
Q 42.974317 46.65451 42.974317 46.392083 
" clip-path="url(#p550b5fac8f)" style="fill: none; stroke: #000000; stroke-linejoin: miter"/>
   </g>
  </g>
  <g id="axes_4">
   <g id="patch_5">
    <path d="M 50.457798 38.160826 
Q 53.430275 39.535596 58.149083 39.721376 
Q 59.672477 39.721376 60.359862 38.550963 
Q 61.047248 37.38055 61.047248 35.82 
Q 61.047248 35.299817 60.954358 34.909679 
Q 60.861468 34.519541 60.619954 34.296606 
Q 60.37844 34.07367 60.211239 33.943624 
Q 60.044037 33.813578 59.598165 33.757844 
Q 59.152294 33.70211 58.947936 33.683532 
Q 58.743578 33.664954 58.167661 33.683532 
Q 57.591743 33.70211 57.368807 33.70211 
Q 55.325229 33.70211 53.838991 35.578486 
Q 52.352752 37.454862 52.352752 39.609908 
Q 52.352752 42.619541 54.284862 44.570229 
Q 56.216972 46.520917 59.263761 46.520917 
Q 61.418807 46.818165 62.942202 44.29156 
" clip-path="url(#pedb3f1c2eb)" style="fill: none; stroke: #000000; stroke-linejoin: miter"/>
   </g>
  </g>
  <g id="axes_5">
   <g id="patch_6">
    <path d="M 69.413462 32.783338 
Q 69.938317 34.507862 70.069531 36.457324 
Q 70.200745 38.406786 70.125766 40.956083 
Q 70.050786 43.505379 70.088276 44.705048 
L 70.200745 46.054676 
L 70.200745 45.829738 
Q 70.200745 44.667559 69.919572 42.30571 
Q 69.6384 39.943862 69.6384 38.744193 
Q 69.6384 36.419834 70.650621 34.882759 
Q 71.662841 33.345683 73.687283 33.345683 
Q 74.399586 33.345683 74.736993 33.626855 
Q 75.0744 33.908028 75.336828 34.432883 
Q 75.599255 34.957738 75.936662 35.257655 
L 76.386538 36.832221 
" clip-path="url(#p3ba8607093)" style="fill: none; stroke: #000000; stroke-linejoin: miter"/>
   </g>
  </g>
  <g id="axes_6"/>
  <g id="axes_7">
   <g id="patch_7">
    <path d="M 98.916102 36.437797 
L 100.151695 44.778051 
Q 100.254661 45.567458 100.254661 45.60178 
Q 100.254661 45.704746 100.563559 45.704746 
Q 101.42161 45.704746 102.142373 44.778051 
Q 102.863136 43.851356 103.275 42.718729 
Q 103.686864 41.586102 104.201695 40.659407 
Q 104.716525 39.732712 105.197034 39.732712 
Q 105.814831 39.732712 106.449788 40.607924 
Q 107.084746 41.483136 107.548093 42.512797 
Q 108.011441 43.542458 108.68072 44.417669 
Q 109.35 45.292881 110.036441 45.292881 
Q 110.311017 43.782712 110.740042 39.69839 
Q 111.169068 35.614068 111.683898 33.554746 
" clip-path="url(#pd564c58bc2)" style="fill: none; stroke: #000000; stroke-linejoin: miter"/>
   </g>
  </g>
  <g id="axes_8">
   <g id="patch_8">
    <path d="M 118.013462 35.932469 
Q 118.613297 35.257655 119.606772 34.826524 
Q 120.600248 34.395393 121.5 34.470372 
Q 122.137324 34.470372 122.62469 34.639076 
Q 123.112055 34.807779 123.430717 34.995228 
Q 123.749379 35.182676 123.974317 35.670041 
Q 124.199255 36.157407 124.311724 36.419834 
Q 124.424193 36.682262 124.480428 37.375821 
Q 124.536662 38.069379 124.555407 38.331807 
Q 124.574152 38.594234 124.555407 39.419007 
Q 124.536662 40.243779 124.536662 40.431228 
Q 124.536662 41.368469 124.367959 43.242952 
Q 124.199255 45.117434 124.199255 46.054676 
Q 124.199255 46.467062 124.25549 46.823214 
Q 124.311724 47.179366 124.405448 47.610497 
Q 124.499172 48.041628 124.536662 48.304055 
L 124.986538 48.528993 
M 118.463338 23.111007 
Q 118.688276 24.798041 118.688276 29.971614 
L 118.688276 42.3432 
L 118.350869 46.841959 
L 118.125931 47.74171 
" clip-path="url(#p9e860e6e00)" style="fill: none; stroke: #000000; stroke-linejoin: miter"/>
   </g>
  </g>
  <g id="axes_9">
   <g id="patch_9">
    <path d="M 143.243923 36.441748 
Q 142.034968 35.094627 138.062687 35.094627 
Q 136.542857 35.094627 135.765672 35.146439 
Q 134.988486 35.198252 133.98678 35.440043 
Q 132.985075 35.681834 132.501493 36.182687 
Q 132.01791 36.683539 131.672495 37.616162 
Q 131.327079 38.548785 131.327079 39.964989 
Q 131.327079 42.037484 132.743284 43.280981 
Q 134.159488 44.524478 136.093817 44.524478 
Q 138.753518 44.524478 141.516844 38.721493 
Q 142.863966 35.854542 142.863966 35.82 
Q 143.209382 35.578209 143.243923 36.441748 
Q 143.243923 37.512537 143.658422 40.362217 
Q 144.072921 43.211898 144.072921 44.524478 
" clip-path="url(#p7ae8712be3)" style="fill: none; stroke: #000000; stroke-linejoin: miter"/>
   </g>
  </g>
  <g id="axes_10">
   <g id="patch_10">
    <path d="M 149.063834 37.95691 
L 149.738648 37.95691 
Q 150.450952 37.95691 151.238234 37.881931 
Q 152.025517 37.806952 152.981503 37.675738 
Q 153.93749 37.544524 154.462345 37.507034 
L 158.736166 35.82 
M 154.687283 30.42149 
L 154.687283 31.43371 
Q 154.687283 33.383172 154.012469 37.207117 
Q 153.337655 41.031062 153.337655 43.018014 
Q 153.337655 43.805297 153.337655 44.105214 
Q 153.337655 44.405131 153.431379 45.042455 
Q 153.525103 45.679779 153.712552 45.960952 
Q 153.9 46.242124 154.293641 46.485807 
Q 154.687283 46.72949 155.249628 46.72949 
Q 155.362097 46.692 155.680759 46.72949 
Q 155.999421 46.766979 156.186869 46.710745 
Q 156.374317 46.65451 156.374317 46.392083 
" clip-path="url(#p40e8c6a9b3)" style="fill: none; stroke: #000000; stroke-linejoin: miter"/>
   </g>
  </g>
  <g id="axes_11"/>
  <g id="axes_12">
   <g id="patch_11">
    <path d="M 179.984141 38.85304 
L 180.412335 38.85304 
Q 181.23304 38.85304 182.196476 38.745991 
Q 183.159912 38.638943 184.319604 38.460529 
Q 185.479295 38.282115 186.085903 38.210749 
L 192.615859 35.427489 
M 192.294714 25.793128 
Q 192.009251 25.721762 190.974449 25.275727 
Q 189.939648 24.829692 189.297357 24.93674 
Q 188.655066 24.93674 188.137665 25.150837 
Q 187.620264 25.364934 187.281278 25.793128 
Q 186.942291 26.221322 186.67467 26.685198 
Q 186.407048 27.149075 186.264317 27.862731 
Q 186.121586 28.576388 186.014537 29.129471 
Q 185.907489 29.682555 185.889648 30.50326 
Q 185.871806 31.323965 185.853965 31.77 
Q 185.836123 32.216035 185.853965 32.965374 
Q 185.871806 33.714714 185.871806 33.928811 
Q 185.871806 36.605022 186.567621 41.850396 
Q 187.263436 47.095771 187.263436 49.771982 
Q 187.19207 50.057445 187.156388 50.681894 
Q 187.120705 51.306344 187.013656 51.805903 
Q 186.906608 52.305463 186.621145 52.555242 
" clip-path="url(#p0f6df56596)" style="fill: none; stroke: #000000; stroke-linejoin: miter"/>
   </g>
  </g>
  <g id="axes_13">
   <g id="patch_12">
    <path d="M 196.257798 38.160826 
Q 199.230275 39.535596 203.949083 39.721376 
Q 205.472477 39.721376 206.159862 38.550963 
Q 206.847248 37.38055 206.847248 35.82 
Q 206.847248 35.299817 206.754358 34.909679 
Q 206.661468 34.519541 206.419954 34.296606 
Q 206.17844 34.07367 206.011239 33.943624 
Q 205.844037 33.813578 205.398165 33.757844 
Q 204.952294 33.70211 204.747936 33.683532 
Q 204.543578 33.664954 203.967661 33.683532 
Q 203.391743 33.70211 203.168807 33.70211 
Q 201.125229 33.70211 199.638991 35.578486 
Q 198.152752 37.454862 198.152752 39.609908 
Q 198.152752 42.619541 200.084862 44.570229 
Q 202.016972 46.520917 205.063761 46.520917 
Q 207.218807 46.818165 208.742202 44.29156 
" clip-path="url(#pcfa6a3a7fd)" style="fill: none; stroke: #000000; stroke-linejoin: miter"/>
   </g>
  </g>
  <g id="axes_14">
   <g id="patch_13">
    <path d="M 218.306359 28.621986 
Q 218.531297 30.34651 218.606276 32.146014 
Q 218.681255 33.945517 218.66251 36.551048 
Q 218.643766 39.156579 218.643766 40.093821 
Q 218.643766 40.13131 218.868703 45.829738 
L 219.093641 46.841959 
" clip-path="url(#p701bb362b8)" style="fill: none; stroke: #000000; stroke-linejoin: miter"/>
   </g>
  </g>
  <g id="axes_15">
   <g id="patch_14">
    <path d="M 230.063834 37.95691 
L 230.738648 37.95691 
Q 231.450952 37.95691 232.238234 37.881931 
Q 233.025517 37.806952 233.981503 37.675738 
Q 234.93749 37.544524 235.462345 37.507034 
L 239.736166 35.82 
M 235.687283 30.42149 
L 235.687283 31.43371 
Q 235.687283 33.383172 235.012469 37.207117 
Q 234.337655 41.031062 234.337655 43.018014 
Q 234.337655 43.805297 234.337655 44.105214 
Q 234.337655 44.405131 234.431379 45.042455 
Q 234.525103 45.679779 234.712552 45.960952 
Q 234.9 46.242124 235.293641 46.485807 
Q 235.687283 46.72949 236.249628 46.72949 
Q 236.362097 46.692 236.680759 46.72949 
Q 236.999421 46.766979 237.186869 46.710745 
Q 237.374317 46.65451 237.374317 46.392083 
" clip-path="url(#peff33ea050)" style="fill: none; stroke: #000000; stroke-linejoin: miter"/>
   </g>
  </g>
  <g id="axes_16"/>
  <g id="axes_17">
   <g id="patch_15">
    <path d="M 266.906359 28.621986 
Q 267.131297 30.34651 267.206276 32.146014 
Q 267.281255 33.945517 267.26251 36.551048 
Q 267.243766 39.156579 267.243766 40.093821 
Q 267.243766 40.13131 267.468703 45.829738 
L 267.693641 46.841959 
" clip-path="url(#pf76e036ed0)" style="fill: none; stroke: #000000; stroke-linejoin: miter"/>
   </g>
  </g>
  <g id="axes_18">
   <g id="patch_16">
    <path d="M 284.118579 29.071862 
Q 283.743683 29.146841 283.612469 29.577972 
Q 283.481255 30.009103 283.556234 30.42149 
Q 283.556234 30.571448 283.593724 30.702662 
Q 283.631214 30.833876 283.687448 30.89011 
Q 283.743683 30.946345 283.799917 31.040069 
Q 283.856152 31.133793 283.893641 31.208772 
L 284.00611 29.859145 
M 284.00611 34.020497 
Q 283.106359 39.006621 282.881421 42.793076 
L 283.331297 45.379862 
L 283.668703 46.054676 
" clip-path="url(#p80c91a7b3b)" style="fill: none; stroke: #000000; stroke-linejoin: miter"/>
   </g>
  </g>
  <g id="axes_19">
   <g id="patch_17">
    <path d="M 297.731793 37.169628 
Q 299.756234 39.194069 301.518248 41.76211 
Q 303.280262 44.330152 304.142524 46.72949 
M 300.768455 31.321241 
L 300.768455 31.546179 
Q 300.768455 32.333462 300.131131 33.514386 
Q 299.493807 34.69531 298.519076 36.101172 
Q 297.544345 37.507034 297.281917 37.95691 
L 296.044759 39.643945 
M 295.257476 26.710014 
Q 297.094469 36.269876 297.281917 48.641462 
" clip-path="url(#p30d297f095)" style="fill: none; stroke: #000000; stroke-linejoin: miter"/>
   </g>
  </g>
  <g id="axes_20">
   <g id="patch_18">
    <path d="M 309.657798 38.160826 
Q 312.630275 39.535596 317.349083 39.721376 
Q 318.872477 39.721376 319.559862 38.550963 
Q 320.247248 37.38055 320.247248 35.82 
Q 320.247248 35.299817 320.154358 34.909679 
Q 320.061468 34.519541 319.819954 34.296606 
Q 319.57844 34.07367 319.411239 33.943624 
Q 319.244037 33.813578 318.798165 33.757844 
Q 318.352294 33.70211 318.147936 33.683532 
Q 317.943578 33.664954 317.367661 33.683532 
Q 316.791743 33.70211 316.568807 33.70211 
Q 314.525229 33.70211 313.038991 35.578486 
Q 311.552752 37.454862 311.552752 39.609908 
Q 311.552752 42.619541 313.484862 44.570229 
Q 315.416972 46.520917 318.463761 46.520917 
Q 320.618807 46.818165 322.142202 44.29156 
" clip-path="url(#p4099cb7621)" style="fill: none; stroke: #000000; stroke-linejoin: miter"/>
   </g>
  </g>
  <g id="axes_21"/>
  <g id="axes_22">
   <g id="patch_19">
    <path d="M 353.843923 36.441748 
Q 352.634968 35.094627 348.662687 35.094627 
Q 347.142857 35.094627 346.365672 35.146439 
Q 345.588486 35.198252 344.58678 35.440043 
Q 343.585075 35.681834 343.101493 36.182687 
Q 342.61791 36.683539 342.272495 37.616162 
Q 341.927079 38.548785 341.927079 39.964989 
Q 341.927079 42.037484 343.343284 43.280981 
Q 344.759488 44.524478 346.693817 44.524478 
Q 349.353518 44.524478 352.116844 38.721493 
Q 353.463966 35.854542 353.463966 35.82 
Q 353.809382 35.578209 353.843923 36.441748 
Q 353.843923 37.512537 354.258422 40.362217 
Q 354.672921 43.211898 354.672921 44.524478 
" clip-path="url(#pd9ca23fa2c)" style="fill: none; stroke: #000000; stroke-linejoin: miter"/>
   </g>
  </g>
  <g id="axes_23"/>
  <g id="axes_24">
   <g id="patch_20">
    <path d="M 374.316102 36.437797 
L 375.551695 44.778051 
Q 375.654661 45.567458 375.654661 45.60178 
Q 375.654661 45.704746 375.963559 45.704746 
Q 376.82161 45.704746 377.542373 44.778051 
Q 378.263136 43.851356 378.675 42.718729 
Q 379.086864 41.586102 379.601695 40.659407 
Q 380.116525 39.732712 380.597034 39.732712 
Q 381.214831 39.732712 381.849788 40.607924 
Q 382.484746 41.483136 382.948093 42.512797 
Q 383.411441 43.542458 384.08072 44.417669 
Q 384.75 45.292881 385.436441 45.292881 
Q 385.711017 43.782712 386.140042 39.69839 
Q 386.569068 35.614068 387.083898 33.554746 
" clip-path="url(#p3b95f93dfe)" style="fill: none; stroke: #000000; stroke-linejoin: miter"/>
   </g>
  </g>
  <g id="axes_25">
   <g id="patch_21">
    <path d="M 393.413462 35.932469 
Q 394.013297 35.257655 395.006772 34.826524 
Q 396.000248 34.395393 396.9 34.470372 
Q 397.537324 34.470372 398.02469 34.639076 
Q 398.512055 34.807779 398.830717 34.995228 
Q 399.149379 35.182676 399.374317 35.670041 
Q 399.599255 36.157407 399.711724 36.419834 
Q 399.824193 36.682262 399.880428 37.375821 
Q 399.936662 38.069379 399.955407 38.331807 
Q 399.974152 38.594234 399.955407 39.419007 
Q 399.936662 40.243779 399.936662 40.431228 
Q 399.936662 41.368469 399.767959 43.242952 
Q 399.599255 45.117434 399.599255 46.054676 
Q 399.599255 46.467062 399.65549 46.823214 
Q 399.711724 47.179366 399.805448 47.610497 
Q 399.899172 48.041628 399.936662 48.304055 
L 400.386538 48.528993 
M 393.863338 23.111007 
Q 394.088276 24.798041 394.088276 29.971614 
L 394.088276 42.3432 
L 393.750869 46.841959 
L 393.525931 47.74171 
" clip-path="url(#pc9cf685720)" style="fill: none; stroke: #000000; stroke-linejoin: miter"/>
   </g>
  </g>
  <g id="axes_26">
   <g id="patch_22">
    <path d="M 413.718579 29.071862 
Q 413.343683 29.146841 413.212469 29.577972 
Q 413.081255 30.009103 413.156234 30.42149 
Q 413.156234 30.571448 413.193724 30.702662 
Q 413.231214 30.833876 413.287448 30.89011 
Q 413.343683 30.946345 413.399917 31.040069 
Q 413.456152 31.133793 413.493641 31.208772 
L 413.60611 29.859145 
M 413.60611 34.020497 
Q 412.706359 39.006621 412.481421 42.793076 
L 412.931297 45.379862 
L 413.268703 46.054676 
" clip-path="url(#p924753fe91)" style="fill: none; stroke: #000000; stroke-linejoin: miter"/>
   </g>
  </g>
  <g id="axes_27">
   <g id="patch_23">
    <path d="M 428.906359 28.621986 
Q 429.131297 30.34651 429.206276 32.146014 
Q 429.281255 33.945517 429.26251 36.551048 
Q 429.243766 39.156579 429.243766 40.093821 
Q 429.243766 40.13131 429.468703 45.829738 
L 429.693641 46.841959 
" clip-path="url(#p8a0831f5ea)" style="fill: none; stroke: #000000; stroke-linejoin: miter"/>
   </g>
  </g>
  <g id="axes_28">
   <g id="patch_24">
    <path d="M 439.257798 38.160826 
Q 442.230275 39.535596 446.949083 39.721376 
Q 448.472477 39.721376 449.159862 38.550963 
Q 449.847248 37.38055 449.847248 35.82 
Q 449.847248 35.299817 449.754358 34.909679 
Q 449.661468 34.519541 449.419954 34.296606 
Q 449.17844 34.07367 449.011239 33.943624 
Q 448.844037 33.813578 448.398165 33.757844 
Q 447.952294 33.70211 447.747936 33.683532 
Q 447.543578 33.664954 446.967661 33.683532 
Q 446.391743 33.70211 446.168807 33.70211 
Q 444.125229 33.70211 442.638991 35.578486 
Q 441.152752 37.454862 441.152752 39.609908 
Q 441.152752 42.619541 443.084862 44.570229 
Q 445.016972 46.520917 448.063761 46.520917 
Q 450.218807 46.818165 451.742202 44.29156 
" clip-path="url(#pafa36b77b7)" style="fill: none; stroke: #000000; stroke-linejoin: miter"/>
   </g>
  </g>
  <g id="axes_29"/>
  <g id="axes_30">
   <g id="patch_25">
    <path d="M 473.063834 37.95691 
L 473.738648 37.95691 
Q 474.450952 37.95691 475.238234 37.881931 
Q 476.025517 37.806952 476.981503 37.675738 
Q 477.93749 37.544524 478.462345 37.507034 
L 482.736166 35.82 
M 478.687283 30.42149 
L 478.687283 31.43371 
Q 478.687283 33.383172 478.012469 37.207117 
Q 477.337655 41.031062 477.337655 43.018014 
Q 477.337655 43.805297 477.337655 44.105214 
Q 477.337655 44.405131 477.431379 45.042455 
Q 477.525103 45.679779 477.712552 45.960952 
Q 477.9 46.242124 478.293641 46.485807 
Q 478.687283 46.72949 479.249628 46.72949 
Q 479.362097 46.692 479.680759 46.72949 
Q 479.999421 46.766979 480.186869 46.710745 
Q 480.374317 46.65451 480.374317 46.392083 
" clip-path="url(#p065b9a049e)" style="fill: none; stroke: #000000; stroke-linejoin: miter"/>
   </g>
  </g>
  <g id="axes_31">
   <g id="patch_26">
    <path d="M 490.613462 35.932469 
Q 491.213297 35.257655 492.206772 34.826524 
Q 493.200248 34.395393 494.1 34.470372 
Q 494.737324 34.470372 495.22469 34.639076 
Q 495.712055 34.807779 496.030717 34.995228 
Q 496.349379 35.182676 496.574317 35.670041 
Q 496.799255 36.157407 496.911724 36.419834 
Q 497.024193 36.682262 497.080428 37.375821 
Q 497.136662 38.069379 497.155407 38.331807 
Q 497.174152 38.594234 497.155407 39.419007 
Q 497.136662 40.243779 497.136662 40.431228 
Q 497.136662 41.368469 496.967959 43.242952 
Q 496.799255 45.117434 496.799255 46.054676 
Q 496.799255 46.467062 496.85549 46.823214 
Q 496.911724 47.179366 497.005448 47.610497 
Q 497.099172 48.041628 497.136662 48.304055 
L 497.586538 48.528993 
M 491.063338 23.111007 
Q 491.288276 24.798041 491.288276 29.971614 
L 491.288276 42.3432 
L 490.950869 46.841959 
L 490.725931 47.74171 
" clip-path="url(#p7a301ecb40)" style="fill: none; stroke: #000000; stroke-linejoin: miter"/>
   </g>
  </g>
  <g id="axes_32">
   <g id="patch_27">
    <path d="M 504.057798 38.160826 
Q 507.030275 39.535596 511.749083 39.721376 
Q 513.272477 39.721376 513.959862 38.550963 
Q 514.647248 37.38055 514.647248 35.82 
Q 514.647248 35.299817 514.554358 34.909679 
Q 514.461468 34.519541 514.219954 34.296606 
Q 513.97844 34.07367 513.811239 33.943624 
Q 513.644037 33.813578 513.198165 33.757844 
Q 512.752294 33.70211 512.547936 33.683532 
Q 512.343578 33.664954 511.767661 33.683532 
Q 511.191743 33.70211 510.968807 33.70211 
Q 508.925229 33.70211 507.438991 35.578486 
Q 505.952752 37.454862 505.952752 39.609908 
Q 505.952752 42.619541 507.884862 44.570229 
Q 509.816972 46.520917 512.863761 46.520917 
Q 515.018807 46.818165 516.542202 44.29156 
" clip-path="url(#p6b99e54696)" style="fill: none; stroke: #000000; stroke-linejoin: miter"/>
   </g>
  </g>
  <g id="axes_33"/>
  <g id="axes_34">
   <g id="patch_28">
    <path d="M 547.487191 39.096404 
Q 547.23236 39.023596 546.26764 38.623146 
Q 545.302921 38.222697 544.64764 38.077079 
Q 543.99236 37.931461 543.337079 38.00427 
Q 540.715955 38.00427 539.077753 40.388764 
Q 537.439551 42.773258 537.439551 45.430787 
Q 537.439551 47.068989 542.681798 47.068989 
Q 544.247191 47.068989 545.575955 45.558202 
Q 546.904719 44.047416 547.578202 42.172584 
Q 548.251685 40.297753 548.251685 38.768764 
Q 548.251685 37.27618 548.215281 36.984944 
L 548.142472 38.077079 
Q 548.142472 38.550337 548.142472 38.987191 
Q 548.178876 40.188539 548.379101 42.281798 
Q 548.579326 44.375056 548.743146 46.049663 
Q 548.906966 47.72427 548.943371 49.872135 
Q 548.979775 52.02 548.815955 53.658202 
Q 548.652135 55.296404 548.087865 56.971011 
Q 547.523596 58.645618 546.595281 59.737753 
Q 545.666966 60.829888 544.065169 61.521573 
Q 542.463371 62.213258 540.315506 62.213258 
Q 538.677303 62.213258 537.585169 61.466966 
Q 536.493034 60.720674 536.493034 59.155281 
Q 536.420225 58.936854 536.456629 58.936854 
Q 536.493034 58.936854 536.602247 58.936854 
Q 536.711461 58.936854 536.711461 58.82764 
" clip-path="url(#pc5391cf391)" style="fill: none; stroke: #000000; stroke-linejoin: miter"/>
   </g>
  </g>
  <g id="axes_35">
   <g id="patch_29">
    <path d="M 555.413462 35.932469 
Q 556.013297 35.257655 557.006772 34.826524 
Q 558.000248 34.395393 558.9 34.470372 
Q 559.537324 34.470372 560.02469 34.639076 
Q 560.512055 34.807779 560.830717 34.995228 
Q 561.149379 35.182676 561.374317 35.670041 
Q 561.599255 36.157407 561.711724 36.419834 
Q 561.824193 36.682262 561.880428 37.375821 
Q 561.936662 38.069379 561.955407 38.331807 
Q 561.974152 38.594234 561.955407 39.419007 
Q 561.936662 40.243779 561.936662 40.431228 
Q 561.936662 41.368469 561.767959 43.242952 
Q 561.599255 45.117434 561.599255 46.054676 
Q 561.599255 46.467062 561.65549 46.823214 
Q 561.711724 47.179366 561.805448 47.610497 
Q 561.899172 48.041628 561.936662 48.304055 
L 562.386538 48.528993 
M 555.863338 23.111007 
Q 556.088276 24.798041 556.088276 29.971614 
L 556.088276 42.3432 
L 555.750869 46.841959 
L 555.525931 47.74171 
" clip-path="url(#pd2e4b8f70a)" style="fill: none; stroke: #000000; stroke-linejoin: miter"/>
   </g>
  </g>
  <g id="axes_36">
   <g id="patch_30">
    <path d="M 578.3616 35.032717 
Q 577.31189 34.582841 576.337159 34.69531 
Q 573.300497 35.032717 571.388524 36.701007 
Q 569.476552 38.369297 569.476552 41.330979 
Q 569.476552 43.917766 571.482248 45.6048 
Q 573.487945 47.291834 576.112221 47.291834 
Q 578.474069 47.291834 579.598759 45.361117 
Q 580.723448 43.4304 580.723448 40.881103 
Q 580.723448 39.643945 580.311062 38.706703 
Q 579.898676 37.769462 579.373821 37.300841 
Q 578.848966 36.832221 578.099172 36.119917 
Q 577.349379 35.407614 576.899503 34.69531 
L 575.662345 34.245434 
" clip-path="url(#p0048f0ab9c)" style="fill: none; stroke: #000000; stroke-linejoin: miter"/>
   </g>
  </g>
  <g id="axes_37">
   <g id="patch_31">
    <path d="M 586.857476 43.917766 
Q 587.157393 44.180193 588.169614 45.154924 
Q 589.181834 46.129655 589.744179 46.560786 
Q 590.306524 46.991917 591.33749 47.385559 
Q 592.368455 47.7792 593.380676 47.629241 
Q 594.05549 47.629241 594.52411 47.404303 
Q 594.992731 47.179366 595.217669 46.879448 
Q 595.442607 46.579531 595.573821 45.979697 
Q 595.705034 45.379862 595.723779 44.967476 
Q 595.742524 44.55509 595.742524 43.805297 
Q 595.742524 42.718097 594.842772 42.043283 
Q 593.943021 41.368469 592.649628 41.031062 
Q 591.356234 40.693655 590.062841 40.300014 
Q 588.769448 39.906372 587.869697 38.987876 
Q 586.969945 38.069379 586.969945 36.607283 
Q 586.969945 36.082428 587.138648 35.726276 
Q 587.307352 35.370124 587.700993 35.145186 
Q 588.094634 34.920248 588.375807 34.807779 
Q 588.656979 34.69531 589.313048 34.639076 
Q 589.969117 34.582841 590.156566 34.582841 
Q 590.344014 34.582841 591.018828 34.582841 
Q 592.218497 34.582841 592.799586 34.995228 
Q 593.380676 35.407614 593.699338 36.026193 
Q 594.018 36.644772 594.280428 36.832221 
" clip-path="url(#p670d4c859e)" style="fill: none; stroke: #000000; stroke-linejoin: miter"/>
   </g>
  </g>
  <g id="axes_38">
   <g id="patch_32">
    <path d="M 602.663834 37.95691 
L 603.338648 37.95691 
Q 604.050952 37.95691 604.838234 37.881931 
Q 605.625517 37.806952 606.581503 37.675738 
Q 607.53749 37.544524 608.062345 37.507034 
L 612.336166 35.82 
M 608.287283 30.42149 
L 608.287283 31.43371 
Q 608.287283 33.383172 607.612469 37.207117 
Q 606.937655 41.031062 606.937655 43.018014 
Q 606.937655 43.805297 606.937655 44.105214 
Q 606.937655 44.405131 607.031379 45.042455 
Q 607.125103 45.679779 607.312552 45.960952 
Q 607.5 46.242124 607.893641 46.485807 
Q 608.287283 46.72949 608.849628 46.72949 
Q 608.962097 46.692 609.280759 46.72949 
Q 609.599421 46.766979 609.786869 46.710745 
Q 609.974317 46.65451 609.974317 46.392083 
" clip-path="url(#pf0ed8a6eee)" style="fill: none; stroke: #000000; stroke-linejoin: miter"/>
   </g>
  </g>
 </g>
 <defs>
  <clipPath id="p067cdb46d6">
   <rect x="0" y="9.949956" width="16.2" height="51.740088"/>
  </clipPath>
  <clipPath id="p681f9a2e4b">
   <rect x="16.2" y="9.949956" width="16.2" height="51.740088"/>
  </clipPath>
  <clipPath id="p550b5fac8f">
   <rect x="33.789352" y="8.64" width="13.421297" height="54.36"/>
  </clipPath>
  <clipPath id="pedb3f1c2eb">
   <rect x="48.6" y="8.881927" width="16.2" height="53.876147"/>
  </clipPath>
  <clipPath id="p3ba8607093">
   <rect x="67.538979" y="8.64" width="10.722041" height="54.36"/>
  </clipPath>
  <clipPath id="pd564c58bc2">
   <rect x="97.2" y="10.936525" width="16.2" height="49.766949"/>
  </clipPath>
  <clipPath id="p9e860e6e00">
   <rect x="116.138979" y="8.64" width="10.722041" height="54.36"/>
  </clipPath>
  <clipPath id="p7ae8712be3">
   <rect x="129.6" y="10.777356" width="16.2" height="50.085288"/>
  </clipPath>
  <clipPath id="p40e8c6a9b3">
   <rect x="147.189352" y="8.64" width="13.421297" height="54.36"/>
  </clipPath>
  <clipPath id="p0f6df56596">
   <rect x="178.2" y="9.949956" width="16.2" height="51.740088"/>
  </clipPath>
  <clipPath id="pcfa6a3a7fd">
   <rect x="194.4" y="8.881927" width="16.2" height="53.876147"/>
  </clipPath>
  <clipPath id="p701bb362b8">
   <rect x="216.431876" y="8.64" width="4.536248" height="54.36"/>
  </clipPath>
  <clipPath id="peff33ea050">
   <rect x="228.189352" y="8.64" width="13.421297" height="54.36"/>
  </clipPath>
  <clipPath id="pf76e036ed0">
   <rect x="265.031876" y="8.64" width="4.536248" height="54.36"/>
  </clipPath>
  <clipPath id="p80c91a7b3b">
   <rect x="281.006938" y="8.64" width="4.986124" height="54.36"/>
  </clipPath>
  <clipPath id="p30d297f095">
   <rect x="293.382993" y="8.64" width="12.634014" height="54.36"/>
  </clipPath>
  <clipPath id="p4099cb7621">
   <rect x="307.8" y="8.881927" width="16.2" height="53.876147"/>
  </clipPath>
  <clipPath id="pd9ca23fa2c">
   <rect x="340.2" y="10.777356" width="16.2" height="50.085288"/>
  </clipPath>
  <clipPath id="p3b95f93dfe">
   <rect x="372.6" y="10.936525" width="16.2" height="49.766949"/>
  </clipPath>
  <clipPath id="pc9cf685720">
   <rect x="391.538979" y="8.64" width="10.722041" height="54.36"/>
  </clipPath>
  <clipPath id="p924753fe91">
   <rect x="410.606938" y="8.64" width="4.986124" height="54.36"/>
  </clipPath>
  <clipPath id="p8a0831f5ea">
   <rect x="427.031876" y="8.64" width="4.536248" height="54.36"/>
  </clipPath>
  <clipPath id="pafa36b77b7">
   <rect x="437.4" y="8.881927" width="16.2" height="53.876147"/>
  </clipPath>
  <clipPath id="p065b9a049e">
   <rect x="471.189352" y="8.64" width="13.421297" height="54.36"/>
  </clipPath>
  <clipPath id="p7a301ecb40">
   <rect x="488.738979" y="8.64" width="10.722041" height="54.36"/>
  </clipPath>
  <clipPath id="p6b99e54696">
   <rect x="502.2" y="8.881927" width="16.2" height="53.876147"/>
  </clipPath>
  <clipPath id="pc5391cf391">
   <rect x="534.6" y="9.426742" width="16.2" height="52.786517"/>
  </clipPath>
  <clipPath id="pd2e4b8f70a">
   <rect x="553.538979" y="8.64" width="10.722041" height="54.36"/>
  </clipPath>
  <clipPath id="p0048f0ab9c">
   <rect x="567.602069" y="8.64" width="14.995862" height="54.36"/>
  </clipPath>
  <clipPath id="p670d4c859e">
   <rect x="584.982993" y="8.64" width="12.634014" height="54.36"/>
  </clipPath>
  <clipPath id="pf0ed8a6eee">
   <rect x="600.789352" y="8.64" width="13.421297" height="54.36"/>
  </clipPath>
 </defs>
</svg>
