<?xml version="1.0" encoding="utf-8" standalone="no"?>
<!DOCTYPE svg PUBLIC "-//W3C//DTD SVG 1.1//EN"
  "http://www.w3.org/Graphics/SVG/1.1/DTD/svg11.dtd">
<svg xmlns:xlink="http://www.w3.org/1999/xlink" width="414pt" height="72pt" viewBox="0 0 414 72" xmlns="http://www.w3.org/2000/svg" version="1.1">
 <metadata>
  <rdf:RDF xmlns:dc="http://purl.org/dc/elements/1.1/" xmlns:cc="http://creativecommons.org/ns#" xmlns:rdf="http://www.w3.org/1999/02/22-rdf-syntax-ns#">
   <cc:Work>
    <dc:type rdf:resource="http://purl.org/dc/dcmitype/StillImage"/>
    <dc:date>2024-01-04T18:46:02.605625</dc:date>
    <dc:format>image/svg+xml</dc:format>
    <dc:creator>
     <cc:Agent>
      <dc:title>Matplotlib v3.7.1, https://matplotlib.org/</dc:title>
     </cc:Agent>
    </dc:creator>
   </cc:Work>
  </rdf:RDF>
 </metadata>
 <defs>
  <style type="text/css">*{stroke-linejoin: round; stroke-linecap: butt}</style>
 </defs>
 <g id="figure_1">
  <g id="patch_1">
   <path d="M 0 72 
L 414 72 
L 414 0 
L 0 0 
z
" style="fill: #8fff9f"/>
  </g>
  <g id="axes_1">
   <g id="patch_2">
    <path d="M 1.716102 36.437797 
L 2.951695 44.778051 
Q 3.054661 45.567458 3.054661 45.60178 
Q 3.054661 45.704746 3.363559 45.704746 
Q 4.22161 45.704746 4.942373 44.778051 
Q 5.663136 43.851356 6.075 42.718729 
Q 6.486864 41.586102 7.001695 40.659407 
Q 7.516525 39.732712 7.997034 39.732712 
Q 8.614831 39.732712 9.249788 40.607924 
Q 9.884746 41.483136 10.348093 42.512797 
Q 10.811441 43.542458 11.48072 44.417669 
Q 12.15 45.292881 12.836441 45.292881 
Q 13.111017 43.782712 13.540042 39.69839 
Q 13.969068 35.614068 14.483898 33.554746 
" clip-path="url(#p7b005e036a)" style="fill: none; stroke: #000000; stroke-linejoin: miter"/>
   </g>
  </g>
  <g id="axes_2">
   <g id="patch_3">
    <path d="M 27.5616 35.032717 
Q 26.51189 34.582841 25.537159 34.69531 
Q 22.500497 35.032717 20.588524 36.701007 
Q 18.676552 38.369297 18.676552 41.330979 
Q 18.676552 43.917766 20.682248 45.6048 
Q 22.687945 47.291834 25.312221 47.291834 
Q 27.674069 47.291834 28.798759 45.361117 
Q 29.923448 43.4304 29.923448 40.881103 
Q 29.923448 39.643945 29.511062 38.706703 
Q 29.098676 37.769462 28.573821 37.300841 
Q 28.048966 36.832221 27.299172 36.119917 
Q 26.549379 35.407614 26.099503 34.69531 
L 24.862345 34.245434 
" clip-path="url(#p8d4033b216)" style="fill: none; stroke: #000000; stroke-linejoin: miter"/>
   </g>
  </g>
  <g id="axes_3">
   <g id="patch_4">
    <path d="M 35.888772 35.145186 
Q 35.888772 35.145186 35.888772 35.595062 
Q 35.888772 36.269876 35.776303 37.619503 
Q 35.663834 38.969131 35.663834 39.643945 
Q 35.663834 41.930814 36.900993 43.599103 
Q 38.138152 45.267393 40.275062 45.267393 
Q 41.662179 45.154924 42.430717 43.917766 
Q 43.199255 42.680607 43.349214 41.237255 
Q 43.499172 39.793903 43.7616 37.9944 
Q 44.024028 36.194897 44.436414 35.370124 
Q 44.586372 35.070207 44.586372 35.670041 
Q 44.586372 36.269876 44.323945 38.706703 
Q 44.099007 41.031062 44.099007 41.555917 
Q 43.949048 42.643117 44.286455 43.767807 
Q 44.623862 44.892497 45.336166 45.6048 
" clip-path="url(#p60a4d2519f)" style="fill: none; stroke: #000000; stroke-linejoin: miter"/>
   </g>
  </g>
  <g id="axes_4">
   <g id="patch_5">
    <path d="M 56.306359 28.621986 
Q 56.531297 30.34651 56.606276 32.146014 
Q 56.681255 33.945517 56.66251 36.551048 
Q 56.643766 39.156579 56.643766 40.093821 
Q 56.643766 40.13131 56.868703 45.829738 
L 57.093641 46.841959 
" clip-path="url(#p6ce94173b0)" style="fill: none; stroke: #000000; stroke-linejoin: miter"/>
   </g>
  </g>
  <g id="axes_5">
   <g id="patch_6">
    <path d="M 76.499007 39.568966 
Q 75.149379 38.181848 72.9 38.444276 
Q 70.050786 38.444276 68.888607 39.793903 
Q 67.726428 41.143531 67.726428 44.067724 
Q 67.726428 45.56731 69.019821 46.279614 
Q 70.313214 46.991917 71.887779 46.991917 
Q 73.199917 46.991917 74.212138 45.736014 
Q 75.224359 44.48011 75.805448 42.30571 
Q 76.386538 40.13131 76.761434 37.938166 
Q 77.136331 35.745021 77.28629 33.045766 
Q 77.436248 30.34651 77.473738 28.978138 
Q 77.511228 27.609766 77.511228 26.185159 
Q 77.28629 26.260138 77.28629 29.896634 
L 77.28629 44.292662 
L 78.073572 48.229076 
" clip-path="url(#pf7c75efe96)" style="fill: none; stroke: #000000; stroke-linejoin: miter"/>
   </g>
  </g>
  <g id="axes_6"/>
  <g id="axes_7">
   <g id="patch_7">
    <path d="M 101.757228 37.244607 
Q 102.806938 37.207117 102.994386 37.132138 
Q 106.405945 37.132138 108.186703 39.212814 
Q 109.967462 41.29349 109.967462 44.780028 
Q 109.967462 47.704221 105.356234 47.704221 
Q 104.71891 47.704221 104.17531 47.591752 
Q 103.63171 47.479283 102.994386 47.254345 
Q 102.357062 47.029407 101.869697 46.916938 
L 100.632538 45.679779 
M 101.644759 25.435366 
L 101.644759 26.560055 
Q 101.644759 29.409269 101.757228 33.008276 
Q 101.869697 36.607283 102.057145 40.899848 
Q 102.244593 45.192414 102.319572 47.141876 
" clip-path="url(#p2887001d67)" style="fill: none; stroke: #000000; stroke-linejoin: miter"/>
   </g>
  </g>
  <g id="axes_8">
   <g id="patch_8">
    <path d="M 115.257798 38.160826 
Q 118.230275 39.535596 122.949083 39.721376 
Q 124.472477 39.721376 125.159862 38.550963 
Q 125.847248 37.38055 125.847248 35.82 
Q 125.847248 35.299817 125.754358 34.909679 
Q 125.661468 34.519541 125.419954 34.296606 
Q 125.17844 34.07367 125.011239 33.943624 
Q 124.844037 33.813578 124.398165 33.757844 
Q 123.952294 33.70211 123.747936 33.683532 
Q 123.543578 33.664954 122.967661 33.683532 
Q 122.391743 33.70211 122.168807 33.70211 
Q 120.125229 33.70211 118.638991 35.578486 
Q 117.152752 37.454862 117.152752 39.609908 
Q 117.152752 42.619541 119.084862 44.570229 
Q 121.016972 46.520917 124.063761 46.520917 
Q 126.218807 46.818165 127.742202 44.29156 
" clip-path="url(#p9da404e0b1)" style="fill: none; stroke: #000000; stroke-linejoin: miter"/>
   </g>
  </g>
  <g id="axes_9"/>
  <g id="axes_10">
   <g id="patch_9">
    <path d="M 147.608036 34.879821 
Q 148.114286 36.073125 148.403571 42.871339 
Q 148.548214 46.632054 148.8375 46.632054 
Q 148.873661 46.632054 148.909821 46.595893 
Q 149.416071 46.017321 149.470313 44.588973 
Q 149.524554 43.160625 149.307589 41.750357 
Q 149.090625 40.340089 148.8375 38.712857 
Q 148.584375 37.085625 148.584375 36.398571 
Q 148.584375 35.169107 148.964063 33.939643 
Q 149.34375 32.710179 150.320089 32.710179 
Q 151.549554 32.710179 152.272768 34.355491 
Q 152.995982 36.000804 153.158705 37.971562 
Q 153.321429 39.942321 153.429911 41.587634 
Q 153.538393 43.232946 153.683036 43.232946 
Q 153.827679 43.232946 153.91808 41.497232 
Q 154.008482 39.761518 154.135045 37.700357 
Q 154.261607 35.639196 154.984821 33.903482 
Q 155.708036 32.167768 156.9375 32.167768 
Q 158.492411 33.035625 159.161384 34.771339 
Q 159.830357 36.507054 159.794196 38.188527 
Q 159.758036 39.87 159.776116 42.057723 
Q 159.794196 44.245446 160.191964 45.511071 
" clip-path="url(#pd4cafb118e)" style="fill: none; stroke: #000000; stroke-linejoin: miter"/>
   </g>
  </g>
  <g id="axes_11">
   <g id="patch_10">
    <path d="M 165.488772 35.145186 
Q 165.488772 35.145186 165.488772 35.595062 
Q 165.488772 36.269876 165.376303 37.619503 
Q 165.263834 38.969131 165.263834 39.643945 
Q 165.263834 41.930814 166.500993 43.599103 
Q 167.738152 45.267393 169.875062 45.267393 
Q 171.262179 45.154924 172.030717 43.917766 
Q 172.799255 42.680607 172.949214 41.237255 
Q 173.099172 39.793903 173.3616 37.9944 
Q 173.624028 36.194897 174.036414 35.370124 
Q 174.186372 35.070207 174.186372 35.670041 
Q 174.186372 36.269876 173.923945 38.706703 
Q 173.699007 41.031062 173.699007 41.555917 
Q 173.549048 42.643117 173.886455 43.767807 
Q 174.223862 44.892497 174.936166 45.6048 
" clip-path="url(#p6ae6cf08ae)" style="fill: none; stroke: #000000; stroke-linejoin: miter"/>
   </g>
  </g>
  <g id="axes_12">
   <g id="patch_11">
    <path d="M 191.556735 34.365306 
Q 191.556735 34.365306 191.060816 34.365306 
Q 190.267347 34.365306 188.779592 34.067755 
Q 187.291837 33.770204 186.498367 33.770204 
Q 183.721224 33.770204 181.787143 35.224898 
Q 179.853061 36.679592 179.853061 39.423673 
Q 179.853061 40.94449 181.340816 42.399184 
Q 182.828571 43.853878 184.762653 44.663878 
Q 186.696735 45.473878 188.18449 45.473878 
Q 189.110204 45.473878 189.80449 45.110204 
Q 190.498776 44.746531 191.242653 44.118367 
Q 191.986531 43.490204 192.548571 43.192653 
L 192.746939 42.696735 
" clip-path="url(#pacb74dbde4)" style="fill: none; stroke: #000000; stroke-linejoin: miter"/>
   </g>
  </g>
  <g id="axes_13">
   <g id="patch_12">
    <path d="M 199.013462 35.932469 
Q 199.613297 35.257655 200.606772 34.826524 
Q 201.600248 34.395393 202.5 34.470372 
Q 203.137324 34.470372 203.62469 34.639076 
Q 204.112055 34.807779 204.430717 34.995228 
Q 204.749379 35.182676 204.974317 35.670041 
Q 205.199255 36.157407 205.311724 36.419834 
Q 205.424193 36.682262 205.480428 37.375821 
Q 205.536662 38.069379 205.555407 38.331807 
Q 205.574152 38.594234 205.555407 39.419007 
Q 205.536662 40.243779 205.536662 40.431228 
Q 205.536662 41.368469 205.367959 43.242952 
Q 205.199255 45.117434 205.199255 46.054676 
Q 205.199255 46.467062 205.25549 46.823214 
Q 205.311724 47.179366 205.405448 47.610497 
Q 205.499172 48.041628 205.536662 48.304055 
L 205.986538 48.528993 
M 199.463338 23.111007 
Q 199.688276 24.798041 199.688276 29.971614 
L 199.688276 42.3432 
L 199.350869 46.841959 
L 199.125931 47.74171 
" clip-path="url(#p28f8a6eba1)" style="fill: none; stroke: #000000; stroke-linejoin: miter"/>
   </g>
  </g>
  <g id="axes_14"/>
  <g id="axes_15">
   <g id="patch_13">
    <path d="M 238.1616 35.032717 
Q 237.11189 34.582841 236.137159 34.69531 
Q 233.100497 35.032717 231.188524 36.701007 
Q 229.276552 38.369297 229.276552 41.330979 
Q 229.276552 43.917766 231.282248 45.6048 
Q 233.287945 47.291834 235.912221 47.291834 
Q 238.274069 47.291834 239.398759 45.361117 
Q 240.523448 43.4304 240.523448 40.881103 
Q 240.523448 39.643945 240.111062 38.706703 
Q 239.698676 37.769462 239.173821 37.300841 
Q 238.648966 36.832221 237.899172 36.119917 
Q 237.149379 35.407614 236.699503 34.69531 
L 235.462345 34.245434 
" clip-path="url(#pe72c7b6cc8)" style="fill: none; stroke: #000000; stroke-linejoin: miter"/>
   </g>
  </g>
  <g id="axes_16">
   <g id="patch_14">
    <path d="M 247.557228 37.244607 
Q 248.606938 37.207117 248.794386 37.132138 
Q 252.205945 37.132138 253.986703 39.212814 
Q 255.767462 41.29349 255.767462 44.780028 
Q 255.767462 47.704221 251.156234 47.704221 
Q 250.51891 47.704221 249.97531 47.591752 
Q 249.43171 47.479283 248.794386 47.254345 
Q 248.157062 47.029407 247.669697 46.916938 
L 246.432538 45.679779 
M 247.444759 25.435366 
L 247.444759 26.560055 
Q 247.444759 29.409269 247.557228 33.008276 
Q 247.669697 36.607283 247.857145 40.899848 
Q 248.044593 45.192414 248.119572 47.141876 
" clip-path="url(#pcd25ae9bfe)" style="fill: none; stroke: #000000; stroke-linejoin: miter"/>
   </g>
  </g>
  <g id="axes_17">
   <g id="patch_15">
    <path d="M 266.906359 28.621986 
Q 267.131297 30.34651 267.206276 32.146014 
Q 267.281255 33.945517 267.26251 36.551048 
Q 267.243766 39.156579 267.243766 40.093821 
Q 267.243766 40.13131 267.468703 45.829738 
L 267.693641 46.841959 
" clip-path="url(#pc345becb0c)" style="fill: none; stroke: #000000; stroke-linejoin: miter"/>
   </g>
  </g>
  <g id="axes_18">
   <g id="patch_16">
    <path d="M 284.118579 29.071862 
Q 283.743683 29.146841 283.612469 29.577972 
Q 283.481255 30.009103 283.556234 30.42149 
Q 283.556234 30.571448 283.593724 30.702662 
Q 283.631214 30.833876 283.687448 30.89011 
Q 283.743683 30.946345 283.799917 31.040069 
Q 283.856152 31.133793 283.893641 31.208772 
L 284.00611 29.859145 
M 284.00611 34.020497 
Q 283.106359 39.006621 282.881421 42.793076 
L 283.331297 45.379862 
L 283.668703 46.054676 
" clip-path="url(#p4e88f23637)" style="fill: none; stroke: #000000; stroke-linejoin: miter"/>
   </g>
  </g>
  <g id="axes_19">
   <g id="patch_17">
    <path d="M 304.487191 39.096404 
Q 304.23236 39.023596 303.26764 38.623146 
Q 302.302921 38.222697 301.64764 38.077079 
Q 300.99236 37.931461 300.337079 38.00427 
Q 297.715955 38.00427 296.077753 40.388764 
Q 294.439551 42.773258 294.439551 45.430787 
Q 294.439551 47.068989 299.681798 47.068989 
Q 301.247191 47.068989 302.575955 45.558202 
Q 303.904719 44.047416 304.578202 42.172584 
Q 305.251685 40.297753 305.251685 38.768764 
Q 305.251685 37.27618 305.215281 36.984944 
L 305.142472 38.077079 
Q 305.142472 38.550337 305.142472 38.987191 
Q 305.178876 40.188539 305.379101 42.281798 
Q 305.579326 44.375056 305.743146 46.049663 
Q 305.906966 47.72427 305.943371 49.872135 
Q 305.979775 52.02 305.815955 53.658202 
Q 305.652135 55.296404 305.087865 56.971011 
Q 304.523596 58.645618 303.595281 59.737753 
Q 302.666966 60.829888 301.065169 61.521573 
Q 299.463371 62.213258 297.315506 62.213258 
Q 295.677303 62.213258 294.585169 61.466966 
Q 293.493034 60.720674 293.493034 59.155281 
Q 293.420225 58.936854 293.456629 58.936854 
Q 293.493034 58.936854 293.602247 58.936854 
Q 293.711461 58.936854 293.711461 58.82764 
" clip-path="url(#pc624c2bf93)" style="fill: none; stroke: #000000; stroke-linejoin: miter"/>
   </g>
  </g>
  <g id="axes_20">
   <g id="patch_18">
    <path d="M 309.657798 38.160826 
Q 312.630275 39.535596 317.349083 39.721376 
Q 318.872477 39.721376 319.559862 38.550963 
Q 320.247248 37.38055 320.247248 35.82 
Q 320.247248 35.299817 320.154358 34.909679 
Q 320.061468 34.519541 319.819954 34.296606 
Q 319.57844 34.07367 319.411239 33.943624 
Q 319.244037 33.813578 318.798165 33.757844 
Q 318.352294 33.70211 318.147936 33.683532 
Q 317.943578 33.664954 317.367661 33.683532 
Q 316.791743 33.70211 316.568807 33.70211 
Q 314.525229 33.70211 313.038991 35.578486 
Q 311.552752 37.454862 311.552752 39.609908 
Q 311.552752 42.619541 313.484862 44.570229 
Q 315.416972 46.520917 318.463761 46.520917 
Q 320.618807 46.818165 322.142202 44.29156 
" clip-path="url(#p8bc9fdda08)" style="fill: none; stroke: #000000; stroke-linejoin: miter"/>
   </g>
  </g>
  <g id="axes_21">
   <g id="patch_19">
    <path d="M 335.699007 39.568966 
Q 334.349379 38.181848 332.1 38.444276 
Q 329.250786 38.444276 328.088607 39.793903 
Q 326.926428 41.143531 326.926428 44.067724 
Q 326.926428 45.56731 328.219821 46.279614 
Q 329.513214 46.991917 331.087779 46.991917 
Q 332.399917 46.991917 333.412138 45.736014 
Q 334.424359 44.48011 335.005448 42.30571 
Q 335.586538 40.13131 335.961434 37.938166 
Q 336.336331 35.745021 336.48629 33.045766 
Q 336.636248 30.34651 336.673738 28.978138 
Q 336.711228 27.609766 336.711228 26.185159 
Q 336.48629 26.260138 336.48629 29.896634 
L 336.48629 44.292662 
L 337.273572 48.229076 
" clip-path="url(#pe30143f62e)" style="fill: none; stroke: #000000; stroke-linejoin: miter"/>
   </g>
  </g>
  <g id="axes_22">
   <g id="patch_20">
    <path d="M 348.824855 27.009931 
Q 348.899834 27.347338 348.974814 28.265834 
Q 349.049793 29.184331 349.199752 29.634207 
L 349.124772 31.058814 
M 347.475228 27.309848 
Q 347.437738 27.309848 347.400248 27.534786 
Q 347.437738 27.684745 347.550207 28.828179 
Q 347.662676 29.971614 347.925103 30.533959 
" clip-path="url(#p9d9b743d1d)" style="fill: none; stroke: #000000; stroke-linejoin: miter"/>
   </g>
  </g>
  <g id="axes_23">
   <g id="patch_21">
    <path d="M 364.387531 45.979697 
Q 364.350041 46.017186 364.218828 46.054676 
Q 364.087614 46.092166 364.125103 46.167145 
Q 364.125103 46.579531 364.5 46.579531 
Q 364.837407 46.579531 364.837407 46.092166 
Q 364.912386 45.867228 364.631214 45.754759 
Q 364.350041 45.64229 364.162593 45.754759 
" clip-path="url(#p5d1ca4eb52)" style="fill: none; stroke: #000000; stroke-linejoin: miter"/>
   </g>
  </g>
 </g>
 <defs>
  <clipPath id="p7b005e036a">
   <rect x="0" y="10.936525" width="16.2" height="49.766949"/>
  </clipPath>
  <clipPath id="p8d4033b216">
   <rect x="16.802069" y="8.64" width="14.995862" height="54.36"/>
  </clipPath>
  <clipPath id="p60a4d2519f">
   <rect x="33.789352" y="8.64" width="13.421297" height="54.36"/>
  </clipPath>
  <clipPath id="p6ce94173b0">
   <rect x="54.431876" y="8.64" width="4.536248" height="54.36"/>
  </clipPath>
  <clipPath id="pf7c75efe96">
   <rect x="65.851945" y="8.64" width="14.09611" height="54.36"/>
  </clipPath>
  <clipPath id="p2887001d67">
   <rect x="98.758055" y="8.64" width="13.08389" height="54.36"/>
  </clipPath>
  <clipPath id="p9da404e0b1">
   <rect x="113.4" y="8.881927" width="16.2" height="53.876147"/>
  </clipPath>
  <clipPath id="pd4cafb118e">
   <rect x="145.8" y="9.603482" width="16.2" height="52.433036"/>
  </clipPath>
  <clipPath id="p6ae6cf08ae">
   <rect x="163.389352" y="8.64" width="13.421297" height="54.36"/>
  </clipPath>
  <clipPath id="pacb74dbde4">
   <rect x="178.2" y="11.850612" width="16.2" height="47.938776"/>
  </clipPath>
  <clipPath id="p28f8a6eba1">
   <rect x="197.138979" y="8.64" width="10.722041" height="54.36"/>
  </clipPath>
  <clipPath id="pe72c7b6cc8">
   <rect x="227.402069" y="8.64" width="14.995862" height="54.36"/>
  </clipPath>
  <clipPath id="pcd25ae9bfe">
   <rect x="244.558055" y="8.64" width="13.08389" height="54.36"/>
  </clipPath>
  <clipPath id="pc345becb0c">
   <rect x="265.031876" y="8.64" width="4.536248" height="54.36"/>
  </clipPath>
  <clipPath id="p4e88f23637">
   <rect x="281.006938" y="8.64" width="4.986124" height="54.36"/>
  </clipPath>
  <clipPath id="pc624c2bf93">
   <rect x="291.6" y="9.426742" width="16.2" height="52.786517"/>
  </clipPath>
  <clipPath id="p8bc9fdda08">
   <rect x="307.8" y="8.881927" width="16.2" height="53.876147"/>
  </clipPath>
  <clipPath id="pe30143f62e">
   <rect x="325.051945" y="8.64" width="14.09611" height="54.36"/>
  </clipPath>
  <clipPath id="p9d9b743d1d">
   <rect x="345.525766" y="8.64" width="5.548469" height="54.36"/>
  </clipPath>
  <clipPath id="p5d1ca4eb52">
   <rect x="362.213131" y="8.64" width="4.573738" height="54.36"/>
  </clipPath>
 </defs>
</svg>
