<?xml version="1.0" encoding="utf-8" standalone="no"?>
<!DOCTYPE svg PUBLIC "-//W3C//DTD SVG 1.1//EN"
  "http://www.w3.org/Graphics/SVG/1.1/DTD/svg11.dtd">
<svg xmlns:xlink="http://www.w3.org/1999/xlink" width="756pt" height="72pt" viewBox="0 0 756 72" xmlns="http://www.w3.org/2000/svg" version="1.1">
 <metadata>
  <rdf:RDF xmlns:dc="http://purl.org/dc/elements/1.1/" xmlns:cc="http://creativecommons.org/ns#" xmlns:rdf="http://www.w3.org/1999/02/22-rdf-syntax-ns#">
   <cc:Work>
    <dc:type rdf:resource="http://purl.org/dc/dcmitype/StillImage"/>
    <dc:date>2024-01-04T18:46:06.754634</dc:date>
    <dc:format>image/svg+xml</dc:format>
    <dc:creator>
     <cc:Agent>
      <dc:title>Matplotlib v3.7.1, https://matplotlib.org/</dc:title>
     </cc:Agent>
    </dc:creator>
   </cc:Work>
  </rdf:RDF>
 </metadata>
 <defs>
  <style type="text/css">*{stroke-linejoin: round; stroke-linecap: butt}</style>
 </defs>
 <g id="figure_1">
  <g id="patch_1">
   <path d="M 0 72 
L 756 72 
L 756 0 
L 0 0 
z
" style="fill: #8fff9f"/>
  </g>
  <g id="axes_1">
   <g id="patch_2">
    <path d="M 4.613462 35.932469 
Q 5.213297 35.257655 6.206772 34.826524 
Q 7.200248 34.395393 8.1 34.470372 
Q 8.737324 34.470372 9.22469 34.639076 
Q 9.712055 34.807779 10.030717 34.995228 
Q 10.349379 35.182676 10.574317 35.670041 
Q 10.799255 36.157407 10.911724 36.419834 
Q 11.024193 36.682262 11.080428 37.375821 
Q 11.136662 38.069379 11.155407 38.331807 
Q 11.174152 38.594234 11.155407 39.419007 
Q 11.136662 40.243779 11.136662 40.431228 
Q 11.136662 41.368469 10.967959 43.242952 
Q 10.799255 45.117434 10.799255 46.054676 
Q 10.799255 46.467062 10.85549 46.823214 
Q 10.911724 47.179366 11.005448 47.610497 
Q 11.099172 48.041628 11.136662 48.304055 
L 11.586538 48.528993 
M 5.063338 23.111007 
Q 5.288276 24.798041 5.288276 29.971614 
L 5.288276 42.3432 
L 4.950869 46.841959 
L 4.725931 47.74171 
" clip-path="url(#p60faa870b0)" style="fill: none; stroke: #000000; stroke-linejoin: miter"/>
   </g>
  </g>
  <g id="axes_2">
   <g id="patch_3">
    <path d="M 18.057798 38.160826 
Q 21.030275 39.535596 25.749083 39.721376 
Q 27.272477 39.721376 27.959862 38.550963 
Q 28.647248 37.38055 28.647248 35.82 
Q 28.647248 35.299817 28.554358 34.909679 
Q 28.461468 34.519541 28.219954 34.296606 
Q 27.97844 34.07367 27.811239 33.943624 
Q 27.644037 33.813578 27.198165 33.757844 
Q 26.752294 33.70211 26.547936 33.683532 
Q 26.343578 33.664954 25.767661 33.683532 
Q 25.191743 33.70211 24.968807 33.70211 
Q 22.925229 33.70211 21.438991 35.578486 
Q 19.952752 37.454862 19.952752 39.609908 
Q 19.952752 42.619541 21.884862 44.570229 
Q 23.816972 46.520917 26.863761 46.520917 
Q 29.018807 46.818165 30.542202 44.29156 
" clip-path="url(#p1d18e7ff4a)" style="fill: none; stroke: #000000; stroke-linejoin: miter"/>
   </g>
  </g>
  <g id="axes_3">
   <g id="patch_4">
    <path d="M 37.013462 32.783338 
Q 37.538317 34.507862 37.669531 36.457324 
Q 37.800745 38.406786 37.725766 40.956083 
Q 37.650786 43.505379 37.688276 44.705048 
L 37.800745 46.054676 
L 37.800745 45.829738 
Q 37.800745 44.667559 37.519572 42.30571 
Q 37.2384 39.943862 37.2384 38.744193 
Q 37.2384 36.419834 38.250621 34.882759 
Q 39.262841 33.345683 41.287283 33.345683 
Q 41.999586 33.345683 42.336993 33.626855 
Q 42.6744 33.908028 42.936828 34.432883 
Q 43.199255 34.957738 43.536662 35.257655 
L 43.986538 36.832221 
" clip-path="url(#p15081ca27d)" style="fill: none; stroke: #000000; stroke-linejoin: miter"/>
   </g>
  </g>
  <g id="axes_4"/>
  <g id="axes_5">
   <g id="patch_5">
    <path d="M 68.120069 39.868883 
L 68.120069 39.419007 
Q 68.120069 37.769462 69.863338 36.682262 
Q 71.606607 35.595062 73.293641 35.595062 
Q 75.505531 35.595062 76.873903 36.794731 
Q 78.242276 37.9944 78.242276 40.20629 
Q 78.242276 42.30571 76.424028 43.336676 
Q 74.605779 44.367641 72.39389 44.367641 
Q 71.719076 44.367641 71.212966 44.255172 
Q 70.706855 44.142703 70.088276 43.917766 
Q 69.469697 43.692828 69.019821 43.580359 
L 67.895131 42.568138 
M 67.557724 36.832221 
Q 68.0076 38.444276 68.270028 40.262524 
Q 68.532455 42.080772 68.58869 43.749062 
Q 68.644924 45.417352 68.682414 47.27309 
Q 68.719903 49.128828 68.682414 50.778372 
L 68.569945 57.863917 
" clip-path="url(#p4603b147e7)" style="fill: none; stroke: #000000; stroke-linejoin: miter"/>
   </g>
  </g>
  <g id="axes_6">
   <g id="patch_6">
    <path d="M 85.613462 32.783338 
Q 86.138317 34.507862 86.269531 36.457324 
Q 86.400745 38.406786 86.325766 40.956083 
Q 86.250786 43.505379 86.288276 44.705048 
L 86.400745 46.054676 
L 86.400745 45.829738 
Q 86.400745 44.667559 86.119572 42.30571 
Q 85.8384 39.943862 85.8384 38.744193 
Q 85.8384 36.419834 86.850621 34.882759 
Q 87.862841 33.345683 89.887283 33.345683 
Q 90.599586 33.345683 90.936993 33.626855 
Q 91.2744 33.908028 91.536828 34.432883 
Q 91.799255 34.957738 92.136662 35.257655 
L 92.586538 36.832221 
" clip-path="url(#p932b086bce)" style="fill: none; stroke: #000000; stroke-linejoin: miter"/>
   </g>
  </g>
  <g id="axes_7">
   <g id="patch_7">
    <path d="M 99.057798 38.160826 
Q 102.030275 39.535596 106.749083 39.721376 
Q 108.272477 39.721376 108.959862 38.550963 
Q 109.647248 37.38055 109.647248 35.82 
Q 109.647248 35.299817 109.554358 34.909679 
Q 109.461468 34.519541 109.219954 34.296606 
Q 108.97844 34.07367 108.811239 33.943624 
Q 108.644037 33.813578 108.198165 33.757844 
Q 107.752294 33.70211 107.547936 33.683532 
Q 107.343578 33.664954 106.767661 33.683532 
Q 106.191743 33.70211 105.968807 33.70211 
Q 103.925229 33.70211 102.438991 35.578486 
Q 100.952752 37.454862 100.952752 39.609908 
Q 100.952752 42.619541 102.884862 44.570229 
Q 104.816972 46.520917 107.863761 46.520917 
Q 110.018807 46.818165 111.542202 44.29156 
" clip-path="url(#pa3facdcd88)" style="fill: none; stroke: #000000; stroke-linejoin: miter"/>
   </g>
  </g>
  <g id="axes_8">
   <g id="patch_8">
    <path d="M 116.663834 37.95691 
L 117.338648 37.95691 
Q 118.050952 37.95691 118.838234 37.881931 
Q 119.625517 37.806952 120.581503 37.675738 
Q 121.53749 37.544524 122.062345 37.507034 
L 126.336166 35.82 
M 122.287283 30.42149 
L 122.287283 31.43371 
Q 122.287283 33.383172 121.612469 37.207117 
Q 120.937655 41.031062 120.937655 43.018014 
Q 120.937655 43.805297 120.937655 44.105214 
Q 120.937655 44.405131 121.031379 45.042455 
Q 121.125103 45.679779 121.312552 45.960952 
Q 121.5 46.242124 121.893641 46.485807 
Q 122.287283 46.72949 122.849628 46.72949 
Q 122.962097 46.692 123.280759 46.72949 
Q 123.599421 46.766979 123.786869 46.710745 
Q 123.974317 46.65451 123.974317 46.392083 
" clip-path="url(#p153bfc8bdb)" style="fill: none; stroke: #000000; stroke-linejoin: miter"/>
   </g>
  </g>
  <g id="axes_9">
   <g id="patch_9">
    <path d="M 132.863834 37.95691 
L 133.538648 37.95691 
Q 134.250952 37.95691 135.038234 37.881931 
Q 135.825517 37.806952 136.781503 37.675738 
Q 137.73749 37.544524 138.262345 37.507034 
L 142.536166 35.82 
M 138.487283 30.42149 
L 138.487283 31.43371 
Q 138.487283 33.383172 137.812469 37.207117 
Q 137.137655 41.031062 137.137655 43.018014 
Q 137.137655 43.805297 137.137655 44.105214 
Q 137.137655 44.405131 137.231379 45.042455 
Q 137.325103 45.679779 137.512552 45.960952 
Q 137.7 46.242124 138.093641 46.485807 
Q 138.487283 46.72949 139.049628 46.72949 
Q 139.162097 46.692 139.480759 46.72949 
Q 139.799421 46.766979 139.986869 46.710745 
Q 140.174317 46.65451 140.174317 46.392083 
" clip-path="url(#p8274ee102d)" style="fill: none; stroke: #000000; stroke-linejoin: miter"/>
   </g>
  </g>
  <g id="axes_10">
   <g id="patch_10">
    <path d="M 148.763917 36.382345 
Q 148.726428 36.494814 148.857641 36.701007 
Q 148.988855 36.9072 148.876386 37.057159 
L 148.876386 39.306538 
Q 148.876386 40.506207 149.213793 41.724621 
Q 149.5512 42.943034 150.413462 43.93651 
Q 151.275724 44.929986 152.475393 44.929986 
Q 153.712552 44.929986 154.387366 43.861531 
Q 155.062179 42.793076 155.512055 41.143531 
Q 155.961931 39.493986 156.299338 38.969131 
L 157.086621 36.382345 
L 156.861683 42.680607 
L 156.861683 45.154924 
Q 156.861683 47.066897 157.592731 51.00331 
Q 158.323779 54.939724 158.323779 56.964166 
Q 159.073572 59.213545 157.986372 60.188276 
Q 156.899172 61.163007 154.837241 60.78811 
Q 153.037738 60.488193 152.119241 60.169531 
Q 151.200745 59.850869 149.213793 58.988607 
L 149.101324 58.426262 
" clip-path="url(#p761ccc8196)" style="fill: none; stroke: #000000; stroke-linejoin: miter"/>
   </g>
  </g>
  <g id="axes_11"/>
  <g id="axes_12">
   <g id="patch_11">
    <path d="M 179.984141 38.85304 
L 180.412335 38.85304 
Q 181.23304 38.85304 182.196476 38.745991 
Q 183.159912 38.638943 184.319604 38.460529 
Q 185.479295 38.282115 186.085903 38.210749 
L 192.615859 35.427489 
M 192.294714 25.793128 
Q 192.009251 25.721762 190.974449 25.275727 
Q 189.939648 24.829692 189.297357 24.93674 
Q 188.655066 24.93674 188.137665 25.150837 
Q 187.620264 25.364934 187.281278 25.793128 
Q 186.942291 26.221322 186.67467 26.685198 
Q 186.407048 27.149075 186.264317 27.862731 
Q 186.121586 28.576388 186.014537 29.129471 
Q 185.907489 29.682555 185.889648 30.50326 
Q 185.871806 31.323965 185.853965 31.77 
Q 185.836123 32.216035 185.853965 32.965374 
Q 185.871806 33.714714 185.871806 33.928811 
Q 185.871806 36.605022 186.567621 41.850396 
Q 187.263436 47.095771 187.263436 49.771982 
Q 187.19207 50.057445 187.156388 50.681894 
Q 187.120705 51.306344 187.013656 51.805903 
Q 186.906608 52.305463 186.621145 52.555242 
" clip-path="url(#pcdf16fcb6e)" style="fill: none; stroke: #000000; stroke-linejoin: miter"/>
   </g>
  </g>
  <g id="axes_13">
   <g id="patch_12">
    <path d="M 203.118579 29.071862 
Q 202.743683 29.146841 202.612469 29.577972 
Q 202.481255 30.009103 202.556234 30.42149 
Q 202.556234 30.571448 202.593724 30.702662 
Q 202.631214 30.833876 202.687448 30.89011 
Q 202.743683 30.946345 202.799917 31.040069 
Q 202.856152 31.133793 202.893641 31.208772 
L 203.00611 29.859145 
M 203.00611 34.020497 
Q 202.106359 39.006621 201.881421 42.793076 
L 202.331297 45.379862 
L 202.668703 46.054676 
" clip-path="url(#pc02bf136ef)" style="fill: none; stroke: #000000; stroke-linejoin: miter"/>
   </g>
  </g>
  <g id="axes_14">
   <g id="patch_13">
    <path d="M 214.238731 37.282097 
L 214.238731 37.844441 
Q 214.501159 39.868883 214.538648 41.312234 
Q 214.576138 42.755586 214.482414 44.667559 
Q 214.38869 46.579531 214.38869 48.191586 
L 214.463669 39.643945 
Q 214.463669 38.144359 216.056979 37.507034 
Q 217.65029 36.86971 219.074897 37.282097 
Q 220.986869 37.844441 221.905366 39.04411 
Q 222.823862 40.243779 222.880097 41.668386 
Q 222.936331 43.092993 222.973821 44.817517 
Q 223.01131 46.542041 223.161269 48.191586 
" clip-path="url(#p207d471107)" style="fill: none; stroke: #000000; stroke-linejoin: miter"/>
   </g>
  </g>
  <g id="axes_15">
   <g id="patch_14">
    <path d="M 239.687191 39.096404 
Q 239.43236 39.023596 238.46764 38.623146 
Q 237.502921 38.222697 236.84764 38.077079 
Q 236.19236 37.931461 235.537079 38.00427 
Q 232.915955 38.00427 231.277753 40.388764 
Q 229.639551 42.773258 229.639551 45.430787 
Q 229.639551 47.068989 234.881798 47.068989 
Q 236.447191 47.068989 237.775955 45.558202 
Q 239.104719 44.047416 239.778202 42.172584 
Q 240.451685 40.297753 240.451685 38.768764 
Q 240.451685 37.27618 240.415281 36.984944 
L 240.342472 38.077079 
Q 240.342472 38.550337 240.342472 38.987191 
Q 240.378876 40.188539 240.579101 42.281798 
Q 240.779326 44.375056 240.943146 46.049663 
Q 241.106966 47.72427 241.143371 49.872135 
Q 241.179775 52.02 241.015955 53.658202 
Q 240.852135 55.296404 240.287865 56.971011 
Q 239.723596 58.645618 238.795281 59.737753 
Q 237.866966 60.829888 236.265169 61.521573 
Q 234.663371 62.213258 232.515506 62.213258 
Q 230.877303 62.213258 229.785169 61.466966 
Q 228.693034 60.720674 228.693034 59.155281 
Q 228.620225 58.936854 228.656629 58.936854 
Q 228.693034 58.936854 228.802247 58.936854 
Q 228.911461 58.936854 228.911461 58.82764 
" clip-path="url(#p4bdb6014f6)" style="fill: none; stroke: #000000; stroke-linejoin: miter"/>
   </g>
  </g>
  <g id="axes_16">
   <g id="patch_15">
    <path d="M 244.857798 38.160826 
Q 247.830275 39.535596 252.549083 39.721376 
Q 254.072477 39.721376 254.759862 38.550963 
Q 255.447248 37.38055 255.447248 35.82 
Q 255.447248 35.299817 255.354358 34.909679 
Q 255.261468 34.519541 255.019954 34.296606 
Q 254.77844 34.07367 254.611239 33.943624 
Q 254.444037 33.813578 253.998165 33.757844 
Q 253.552294 33.70211 253.347936 33.683532 
Q 253.143578 33.664954 252.567661 33.683532 
Q 251.991743 33.70211 251.768807 33.70211 
Q 249.725229 33.70211 248.238991 35.578486 
Q 246.752752 37.454862 246.752752 39.609908 
Q 246.752752 42.619541 248.684862 44.570229 
Q 250.616972 46.520917 253.663761 46.520917 
Q 255.818807 46.818165 257.342202 44.29156 
" clip-path="url(#pa8219ad05a)" style="fill: none; stroke: #000000; stroke-linejoin: miter"/>
   </g>
  </g>
  <g id="axes_17">
   <g id="patch_16">
    <path d="M 263.813462 32.783338 
Q 264.338317 34.507862 264.469531 36.457324 
Q 264.600745 38.406786 264.525766 40.956083 
Q 264.450786 43.505379 264.488276 44.705048 
L 264.600745 46.054676 
L 264.600745 45.829738 
Q 264.600745 44.667559 264.319572 42.30571 
Q 264.0384 39.943862 264.0384 38.744193 
Q 264.0384 36.419834 265.050621 34.882759 
Q 266.062841 33.345683 268.087283 33.345683 
Q 268.799586 33.345683 269.136993 33.626855 
Q 269.4744 33.908028 269.736828 34.432883 
Q 269.999255 34.957738 270.336662 35.257655 
L 270.786538 36.832221 
" clip-path="url(#p5104a4c8d4)" style="fill: none; stroke: #000000; stroke-linejoin: miter"/>
   </g>
  </g>
  <g id="axes_18">
   <g id="patch_17">
    <path d="M 279.057476 43.917766 
Q 279.357393 44.180193 280.369614 45.154924 
Q 281.381834 46.129655 281.944179 46.560786 
Q 282.506524 46.991917 283.53749 47.385559 
Q 284.568455 47.7792 285.580676 47.629241 
Q 286.25549 47.629241 286.72411 47.404303 
Q 287.192731 47.179366 287.417669 46.879448 
Q 287.642607 46.579531 287.773821 45.979697 
Q 287.905034 45.379862 287.923779 44.967476 
Q 287.942524 44.55509 287.942524 43.805297 
Q 287.942524 42.718097 287.042772 42.043283 
Q 286.143021 41.368469 284.849628 41.031062 
Q 283.556234 40.693655 282.262841 40.300014 
Q 280.969448 39.906372 280.069697 38.987876 
Q 279.169945 38.069379 279.169945 36.607283 
Q 279.169945 36.082428 279.338648 35.726276 
Q 279.507352 35.370124 279.900993 35.145186 
Q 280.294634 34.920248 280.575807 34.807779 
Q 280.856979 34.69531 281.513048 34.639076 
Q 282.169117 34.582841 282.356566 34.582841 
Q 282.544014 34.582841 283.218828 34.582841 
Q 284.418497 34.582841 284.999586 34.995228 
Q 285.580676 35.407614 285.899338 36.026193 
Q 286.218 36.644772 286.480428 36.832221 
" clip-path="url(#pc278a23a79)" style="fill: none; stroke: #000000; stroke-linejoin: miter"/>
   </g>
  </g>
  <g id="axes_19"/>
  <g id="axes_20">
   <g id="patch_18">
    <path d="M 321.443923 36.441748 
Q 320.234968 35.094627 316.262687 35.094627 
Q 314.742857 35.094627 313.965672 35.146439 
Q 313.188486 35.198252 312.18678 35.440043 
Q 311.185075 35.681834 310.701493 36.182687 
Q 310.21791 36.683539 309.872495 37.616162 
Q 309.527079 38.548785 309.527079 39.964989 
Q 309.527079 42.037484 310.943284 43.280981 
Q 312.359488 44.524478 314.293817 44.524478 
Q 316.953518 44.524478 319.716844 38.721493 
Q 321.063966 35.854542 321.063966 35.82 
Q 321.409382 35.578209 321.443923 36.441748 
Q 321.443923 37.512537 321.858422 40.362217 
Q 322.272921 43.211898 322.272921 44.524478 
" clip-path="url(#p8d77bd5df9)" style="fill: none; stroke: #000000; stroke-linejoin: miter"/>
   </g>
  </g>
  <g id="axes_21">
   <g id="patch_19">
    <path d="M 327.638731 37.282097 
L 327.638731 37.844441 
Q 327.901159 39.868883 327.938648 41.312234 
Q 327.976138 42.755586 327.882414 44.667559 
Q 327.78869 46.579531 327.78869 48.191586 
L 327.863669 39.643945 
Q 327.863669 38.144359 329.456979 37.507034 
Q 331.05029 36.86971 332.474897 37.282097 
Q 334.386869 37.844441 335.305366 39.04411 
Q 336.223862 40.243779 336.280097 41.668386 
Q 336.336331 43.092993 336.373821 44.817517 
Q 336.41131 46.542041 336.561269 48.191586 
" clip-path="url(#p73739dfe1e)" style="fill: none; stroke: #000000; stroke-linejoin: miter"/>
   </g>
  </g>
  <g id="axes_22">
   <g id="patch_20">
    <path d="M 351.899007 39.568966 
Q 350.549379 38.181848 348.3 38.444276 
Q 345.450786 38.444276 344.288607 39.793903 
Q 343.126428 41.143531 343.126428 44.067724 
Q 343.126428 45.56731 344.419821 46.279614 
Q 345.713214 46.991917 347.287779 46.991917 
Q 348.599917 46.991917 349.612138 45.736014 
Q 350.624359 44.48011 351.205448 42.30571 
Q 351.786538 40.13131 352.161434 37.938166 
Q 352.536331 35.745021 352.68629 33.045766 
Q 352.836248 30.34651 352.873738 28.978138 
Q 352.911228 27.609766 352.911228 26.185159 
Q 352.68629 26.260138 352.68629 29.896634 
L 352.68629 44.292662 
L 353.473572 48.229076 
" clip-path="url(#p4a64f0d3f2)" style="fill: none; stroke: #000000; stroke-linejoin: miter"/>
   </g>
  </g>
  <g id="axes_23"/>
  <g id="axes_24">
   <g id="patch_21">
    <path d="M 380.306359 28.621986 
Q 380.531297 30.34651 380.606276 32.146014 
Q 380.681255 33.945517 380.66251 36.551048 
Q 380.643766 39.156579 380.643766 40.093821 
Q 380.643766 40.13131 380.868703 45.829738 
L 381.093641 46.841959 
" clip-path="url(#p017e89aefe)" style="fill: none; stroke: #000000; stroke-linejoin: miter"/>
   </g>
  </g>
  <g id="axes_25">
   <g id="patch_22">
    <path d="M 390.657798 38.160826 
Q 393.630275 39.535596 398.349083 39.721376 
Q 399.872477 39.721376 400.559862 38.550963 
Q 401.247248 37.38055 401.247248 35.82 
Q 401.247248 35.299817 401.154358 34.909679 
Q 401.061468 34.519541 400.819954 34.296606 
Q 400.57844 34.07367 400.411239 33.943624 
Q 400.244037 33.813578 399.798165 33.757844 
Q 399.352294 33.70211 399.147936 33.683532 
Q 398.943578 33.664954 398.367661 33.683532 
Q 397.791743 33.70211 397.568807 33.70211 
Q 395.525229 33.70211 394.038991 35.578486 
Q 392.552752 37.454862 392.552752 39.609908 
Q 392.552752 42.619541 394.484862 44.570229 
Q 396.416972 46.520917 399.463761 46.520917 
Q 401.618807 46.818165 403.142202 44.29156 
" clip-path="url(#p4a15f277b5)" style="fill: none; stroke: #000000; stroke-linejoin: miter"/>
   </g>
  </g>
  <g id="axes_26">
   <g id="patch_23">
    <path d="M 408.263834 37.95691 
L 408.938648 37.95691 
Q 409.650952 37.95691 410.438234 37.881931 
Q 411.225517 37.806952 412.181503 37.675738 
Q 413.13749 37.544524 413.662345 37.507034 
L 417.936166 35.82 
M 413.887283 30.42149 
L 413.887283 31.43371 
Q 413.887283 33.383172 413.212469 37.207117 
Q 412.537655 41.031062 412.537655 43.018014 
Q 412.537655 43.805297 412.537655 44.105214 
Q 412.537655 44.405131 412.631379 45.042455 
Q 412.725103 45.679779 412.912552 45.960952 
Q 413.1 46.242124 413.493641 46.485807 
Q 413.887283 46.72949 414.449628 46.72949 
Q 414.562097 46.692 414.880759 46.72949 
Q 415.199421 46.766979 415.386869 46.710745 
Q 415.574317 46.65451 415.574317 46.392083 
" clip-path="url(#pb8fca17751)" style="fill: none; stroke: #000000; stroke-linejoin: miter"/>
   </g>
  </g>
  <g id="axes_27"/>
  <g id="axes_28">
   <g id="patch_24">
    <path d="M 440.663834 37.95691 
L 441.338648 37.95691 
Q 442.050952 37.95691 442.838234 37.881931 
Q 443.625517 37.806952 444.581503 37.675738 
Q 445.53749 37.544524 446.062345 37.507034 
L 450.336166 35.82 
M 446.287283 30.42149 
L 446.287283 31.43371 
Q 446.287283 33.383172 445.612469 37.207117 
Q 444.937655 41.031062 444.937655 43.018014 
Q 444.937655 43.805297 444.937655 44.105214 
Q 444.937655 44.405131 445.031379 45.042455 
Q 445.125103 45.679779 445.312552 45.960952 
Q 445.5 46.242124 445.893641 46.485807 
Q 446.287283 46.72949 446.849628 46.72949 
Q 446.962097 46.692 447.280759 46.72949 
Q 447.599421 46.766979 447.786869 46.710745 
Q 447.974317 46.65451 447.974317 46.392083 
" clip-path="url(#pd17f875398)" style="fill: none; stroke: #000000; stroke-linejoin: miter"/>
   </g>
  </g>
  <g id="axes_29">
   <g id="patch_25">
    <path d="M 458.213462 35.932469 
Q 458.813297 35.257655 459.806772 34.826524 
Q 460.800248 34.395393 461.7 34.470372 
Q 462.337324 34.470372 462.82469 34.639076 
Q 463.312055 34.807779 463.630717 34.995228 
Q 463.949379 35.182676 464.174317 35.670041 
Q 464.399255 36.157407 464.511724 36.419834 
Q 464.624193 36.682262 464.680428 37.375821 
Q 464.736662 38.069379 464.755407 38.331807 
Q 464.774152 38.594234 464.755407 39.419007 
Q 464.736662 40.243779 464.736662 40.431228 
Q 464.736662 41.368469 464.567959 43.242952 
Q 464.399255 45.117434 464.399255 46.054676 
Q 464.399255 46.467062 464.45549 46.823214 
Q 464.511724 47.179366 464.605448 47.610497 
Q 464.699172 48.041628 464.736662 48.304055 
L 465.186538 48.528993 
M 458.663338 23.111007 
Q 458.888276 24.798041 458.888276 29.971614 
L 458.888276 42.3432 
L 458.550869 46.841959 
L 458.325931 47.74171 
" clip-path="url(#p93c5e93594)" style="fill: none; stroke: #000000; stroke-linejoin: miter"/>
   </g>
  </g>
  <g id="axes_30">
   <g id="patch_26">
    <path d="M 471.657798 38.160826 
Q 474.630275 39.535596 479.349083 39.721376 
Q 480.872477 39.721376 481.559862 38.550963 
Q 482.247248 37.38055 482.247248 35.82 
Q 482.247248 35.299817 482.154358 34.909679 
Q 482.061468 34.519541 481.819954 34.296606 
Q 481.57844 34.07367 481.411239 33.943624 
Q 481.244037 33.813578 480.798165 33.757844 
Q 480.352294 33.70211 480.147936 33.683532 
Q 479.943578 33.664954 479.367661 33.683532 
Q 478.791743 33.70211 478.568807 33.70211 
Q 476.525229 33.70211 475.038991 35.578486 
Q 473.552752 37.454862 473.552752 39.609908 
Q 473.552752 42.619541 475.484862 44.570229 
Q 477.416972 46.520917 480.463761 46.520917 
Q 482.618807 46.818165 484.142202 44.29156 
" clip-path="url(#p4b88fc1c44)" style="fill: none; stroke: #000000; stroke-linejoin: miter"/>
   </g>
  </g>
  <g id="axes_31"/>
  <g id="axes_32">
   <g id="patch_27">
    <path d="M 515.087191 39.096404 
Q 514.83236 39.023596 513.86764 38.623146 
Q 512.902921 38.222697 512.24764 38.077079 
Q 511.59236 37.931461 510.937079 38.00427 
Q 508.315955 38.00427 506.677753 40.388764 
Q 505.039551 42.773258 505.039551 45.430787 
Q 505.039551 47.068989 510.281798 47.068989 
Q 511.847191 47.068989 513.175955 45.558202 
Q 514.504719 44.047416 515.178202 42.172584 
Q 515.851685 40.297753 515.851685 38.768764 
Q 515.851685 37.27618 515.815281 36.984944 
L 515.742472 38.077079 
Q 515.742472 38.550337 515.742472 38.987191 
Q 515.778876 40.188539 515.979101 42.281798 
Q 516.179326 44.375056 516.343146 46.049663 
Q 516.506966 47.72427 516.543371 49.872135 
Q 516.579775 52.02 516.415955 53.658202 
Q 516.252135 55.296404 515.687865 56.971011 
Q 515.123596 58.645618 514.195281 59.737753 
Q 513.266966 60.829888 511.665169 61.521573 
Q 510.063371 62.213258 507.915506 62.213258 
Q 506.277303 62.213258 505.185169 61.466966 
Q 504.093034 60.720674 504.093034 59.155281 
Q 504.020225 58.936854 504.056629 58.936854 
Q 504.093034 58.936854 504.202247 58.936854 
Q 504.311461 58.936854 504.311461 58.82764 
" clip-path="url(#pf0e0124d57)" style="fill: none; stroke: #000000; stroke-linejoin: miter"/>
   </g>
  </g>
  <g id="axes_33">
   <g id="patch_28">
    <path d="M 523.013462 32.783338 
Q 523.538317 34.507862 523.669531 36.457324 
Q 523.800745 38.406786 523.725766 40.956083 
Q 523.650786 43.505379 523.688276 44.705048 
L 523.800745 46.054676 
L 523.800745 45.829738 
Q 523.800745 44.667559 523.519572 42.30571 
Q 523.2384 39.943862 523.2384 38.744193 
Q 523.2384 36.419834 524.250621 34.882759 
Q 525.262841 33.345683 527.287283 33.345683 
Q 527.999586 33.345683 528.336993 33.626855 
Q 528.6744 33.908028 528.936828 34.432883 
Q 529.199255 34.957738 529.536662 35.257655 
L 529.986538 36.832221 
" clip-path="url(#p69150f1240)" style="fill: none; stroke: #000000; stroke-linejoin: miter"/>
   </g>
  </g>
  <g id="axes_34">
   <g id="patch_29">
    <path d="M 548.243923 36.441748 
Q 547.034968 35.094627 543.062687 35.094627 
Q 541.542857 35.094627 540.765672 35.146439 
Q 539.988486 35.198252 538.98678 35.440043 
Q 537.985075 35.681834 537.501493 36.182687 
Q 537.01791 36.683539 536.672495 37.616162 
Q 536.327079 38.548785 536.327079 39.964989 
Q 536.327079 42.037484 537.743284 43.280981 
Q 539.159488 44.524478 541.093817 44.524478 
Q 543.753518 44.524478 546.516844 38.721493 
Q 547.863966 35.854542 547.863966 35.82 
Q 548.209382 35.578209 548.243923 36.441748 
Q 548.243923 37.512537 548.658422 40.362217 
Q 549.072921 43.211898 549.072921 44.524478 
" clip-path="url(#p007540cba6)" style="fill: none; stroke: #000000; stroke-linejoin: miter"/>
   </g>
  </g>
  <g id="axes_35">
   <g id="patch_30">
    <path d="M 559.518579 29.071862 
Q 559.143683 29.146841 559.012469 29.577972 
Q 558.881255 30.009103 558.956234 30.42149 
Q 558.956234 30.571448 558.993724 30.702662 
Q 559.031214 30.833876 559.087448 30.89011 
Q 559.143683 30.946345 559.199917 31.040069 
Q 559.256152 31.133793 559.293641 31.208772 
L 559.40611 29.859145 
M 559.40611 34.020497 
Q 558.506359 39.006621 558.281421 42.793076 
L 558.731297 45.379862 
L 559.068703 46.054676 
" clip-path="url(#p1f5a93fa4d)" style="fill: none; stroke: #000000; stroke-linejoin: miter"/>
   </g>
  </g>
  <g id="axes_36">
   <g id="patch_31">
    <path d="M 570.638731 37.282097 
L 570.638731 37.844441 
Q 570.901159 39.868883 570.938648 41.312234 
Q 570.976138 42.755586 570.882414 44.667559 
Q 570.78869 46.579531 570.78869 48.191586 
L 570.863669 39.643945 
Q 570.863669 38.144359 572.456979 37.507034 
Q 574.05029 36.86971 575.474897 37.282097 
Q 577.386869 37.844441 578.305366 39.04411 
Q 579.223862 40.243779 579.280097 41.668386 
Q 579.336331 43.092993 579.373821 44.817517 
Q 579.41131 46.542041 579.561269 48.191586 
" clip-path="url(#p9307b7fd26)" style="fill: none; stroke: #000000; stroke-linejoin: miter"/>
   </g>
  </g>
  <g id="axes_37">
   <g id="patch_32">
    <path d="M 586.857476 43.917766 
Q 587.157393 44.180193 588.169614 45.154924 
Q 589.181834 46.129655 589.744179 46.560786 
Q 590.306524 46.991917 591.33749 47.385559 
Q 592.368455 47.7792 593.380676 47.629241 
Q 594.05549 47.629241 594.52411 47.404303 
Q 594.992731 47.179366 595.217669 46.879448 
Q 595.442607 46.579531 595.573821 45.979697 
Q 595.705034 45.379862 595.723779 44.967476 
Q 595.742524 44.55509 595.742524 43.805297 
Q 595.742524 42.718097 594.842772 42.043283 
Q 593.943021 41.368469 592.649628 41.031062 
Q 591.356234 40.693655 590.062841 40.300014 
Q 588.769448 39.906372 587.869697 38.987876 
Q 586.969945 38.069379 586.969945 36.607283 
Q 586.969945 36.082428 587.138648 35.726276 
Q 587.307352 35.370124 587.700993 35.145186 
Q 588.094634 34.920248 588.375807 34.807779 
Q 588.656979 34.69531 589.313048 34.639076 
Q 589.969117 34.582841 590.156566 34.582841 
Q 590.344014 34.582841 591.018828 34.582841 
Q 592.218497 34.582841 592.799586 34.995228 
Q 593.380676 35.407614 593.699338 36.026193 
Q 594.018 36.644772 594.280428 36.832221 
" clip-path="url(#p6081d536e0)" style="fill: none; stroke: #000000; stroke-linejoin: miter"/>
   </g>
  </g>
  <g id="axes_38"/>
  <g id="axes_39">
   <g id="patch_33">
    <path d="M 617.384141 38.85304 
L 617.812335 38.85304 
Q 618.63304 38.85304 619.596476 38.745991 
Q 620.559912 38.638943 621.719604 38.460529 
Q 622.879295 38.282115 623.485903 38.210749 
L 630.015859 35.427489 
M 629.694714 25.793128 
Q 629.409251 25.721762 628.374449 25.275727 
Q 627.339648 24.829692 626.697357 24.93674 
Q 626.055066 24.93674 625.537665 25.150837 
Q 625.020264 25.364934 624.681278 25.793128 
Q 624.342291 26.221322 624.07467 26.685198 
Q 623.807048 27.149075 623.664317 27.862731 
Q 623.521586 28.576388 623.414537 29.129471 
Q 623.307489 29.682555 623.289648 30.50326 
Q 623.271806 31.323965 623.253965 31.77 
Q 623.236123 32.216035 623.253965 32.965374 
Q 623.271806 33.714714 623.271806 33.928811 
Q 623.271806 36.605022 623.967621 41.850396 
Q 624.663436 47.095771 624.663436 49.771982 
Q 624.59207 50.057445 624.556388 50.681894 
Q 624.520705 51.306344 624.413656 51.805903 
Q 624.306608 52.305463 624.021145 52.555242 
" clip-path="url(#p00eea33b7d)" style="fill: none; stroke: #000000; stroke-linejoin: miter"/>
   </g>
  </g>
  <g id="axes_40">
   <g id="patch_34">
    <path d="M 645.443923 36.441748 
Q 644.234968 35.094627 640.262687 35.094627 
Q 638.742857 35.094627 637.965672 35.146439 
Q 637.188486 35.198252 636.18678 35.440043 
Q 635.185075 35.681834 634.701493 36.182687 
Q 634.21791 36.683539 633.872495 37.616162 
Q 633.527079 38.548785 633.527079 39.964989 
Q 633.527079 42.037484 634.943284 43.280981 
Q 636.359488 44.524478 638.293817 44.524478 
Q 640.953518 44.524478 643.716844 38.721493 
Q 645.063966 35.854542 645.063966 35.82 
Q 645.409382 35.578209 645.443923 36.441748 
Q 645.443923 37.512537 645.858422 40.362217 
Q 646.272921 43.211898 646.272921 44.524478 
" clip-path="url(#p812afa8cb9)" style="fill: none; stroke: #000000; stroke-linejoin: miter"/>
   </g>
  </g>
  <g id="axes_41">
   <g id="patch_35">
    <path d="M 655.706359 28.621986 
Q 655.931297 30.34651 656.006276 32.146014 
Q 656.081255 33.945517 656.06251 36.551048 
Q 656.043766 39.156579 656.043766 40.093821 
Q 656.043766 40.13131 656.268703 45.829738 
L 656.493641 46.841959 
" clip-path="url(#p8e69bb9102)" style="fill: none; stroke: #000000; stroke-linejoin: miter"/>
   </g>
  </g>
  <g id="axes_42">
   <g id="patch_36">
    <path d="M 671.906359 28.621986 
Q 672.131297 30.34651 672.206276 32.146014 
Q 672.281255 33.945517 672.26251 36.551048 
Q 672.243766 39.156579 672.243766 40.093821 
Q 672.243766 40.13131 672.468703 45.829738 
L 672.693641 46.841959 
" clip-path="url(#pab558593bd)" style="fill: none; stroke: #000000; stroke-linejoin: miter"/>
   </g>
  </g>
 </g>
 <defs>
  <clipPath id="p60faa870b0">
   <rect x="2.738979" y="8.64" width="10.722041" height="54.36"/>
  </clipPath>
  <clipPath id="p1d18e7ff4a">
   <rect x="16.2" y="8.881927" width="16.2" height="53.876147"/>
  </clipPath>
  <clipPath id="p15081ca27d">
   <rect x="35.138979" y="8.64" width="10.722041" height="54.36"/>
  </clipPath>
  <clipPath id="p4603b147e7">
   <rect x="65.683241" y="8.64" width="14.433517" height="54.36"/>
  </clipPath>
  <clipPath id="p932b086bce">
   <rect x="83.738979" y="8.64" width="10.722041" height="54.36"/>
  </clipPath>
  <clipPath id="pa3facdcd88">
   <rect x="97.2" y="8.881927" width="16.2" height="53.876147"/>
  </clipPath>
  <clipPath id="p153bfc8bdb">
   <rect x="114.789352" y="8.64" width="13.421297" height="54.36"/>
  </clipPath>
  <clipPath id="p8274ee102d">
   <rect x="130.989352" y="8.64" width="13.421297" height="54.36"/>
  </clipPath>
  <clipPath id="p761ccc8196">
   <rect x="146.851945" y="8.64" width="14.09611" height="54.36"/>
  </clipPath>
  <clipPath id="pcdf16fcb6e">
   <rect x="178.2" y="9.949956" width="16.2" height="51.740088"/>
  </clipPath>
  <clipPath id="pc02bf136ef">
   <rect x="200.006938" y="8.64" width="4.986124" height="54.36"/>
  </clipPath>
  <clipPath id="p207d471107">
   <rect x="212.364248" y="8.64" width="12.671503" height="54.36"/>
  </clipPath>
  <clipPath id="p4bdb6014f6">
   <rect x="226.8" y="9.426742" width="16.2" height="52.786517"/>
  </clipPath>
  <clipPath id="pa8219ad05a">
   <rect x="243" y="8.881927" width="16.2" height="53.876147"/>
  </clipPath>
  <clipPath id="p5104a4c8d4">
   <rect x="261.938979" y="8.64" width="10.722041" height="54.36"/>
  </clipPath>
  <clipPath id="pc278a23a79">
   <rect x="277.182993" y="8.64" width="12.634014" height="54.36"/>
  </clipPath>
  <clipPath id="p8d77bd5df9">
   <rect x="307.8" y="10.777356" width="16.2" height="50.085288"/>
  </clipPath>
  <clipPath id="p73739dfe1e">
   <rect x="325.764248" y="8.64" width="12.671503" height="54.36"/>
  </clipPath>
  <clipPath id="p4a64f0d3f2">
   <rect x="341.251945" y="8.64" width="14.09611" height="54.36"/>
  </clipPath>
  <clipPath id="p017e89aefe">
   <rect x="378.431876" y="8.64" width="4.536248" height="54.36"/>
  </clipPath>
  <clipPath id="p4a15f277b5">
   <rect x="388.8" y="8.881927" width="16.2" height="53.876147"/>
  </clipPath>
  <clipPath id="pb8fca17751">
   <rect x="406.389352" y="8.64" width="13.421297" height="54.36"/>
  </clipPath>
  <clipPath id="pd17f875398">
   <rect x="438.789352" y="8.64" width="13.421297" height="54.36"/>
  </clipPath>
  <clipPath id="p93c5e93594">
   <rect x="456.338979" y="8.64" width="10.722041" height="54.36"/>
  </clipPath>
  <clipPath id="p4b88fc1c44">
   <rect x="469.8" y="8.881927" width="16.2" height="53.876147"/>
  </clipPath>
  <clipPath id="pf0e0124d57">
   <rect x="502.2" y="9.426742" width="16.2" height="52.786517"/>
  </clipPath>
  <clipPath id="p69150f1240">
   <rect x="521.138979" y="8.64" width="10.722041" height="54.36"/>
  </clipPath>
  <clipPath id="p007540cba6">
   <rect x="534.6" y="10.777356" width="16.2" height="50.085288"/>
  </clipPath>
  <clipPath id="p1f5a93fa4d">
   <rect x="556.406938" y="8.64" width="4.986124" height="54.36"/>
  </clipPath>
  <clipPath id="p9307b7fd26">
   <rect x="568.764248" y="8.64" width="12.671503" height="54.36"/>
  </clipPath>
  <clipPath id="p6081d536e0">
   <rect x="584.982993" y="8.64" width="12.634014" height="54.36"/>
  </clipPath>
  <clipPath id="p00eea33b7d">
   <rect x="615.6" y="9.949956" width="16.2" height="51.740088"/>
  </clipPath>
  <clipPath id="p812afa8cb9">
   <rect x="631.8" y="10.777356" width="16.2" height="50.085288"/>
  </clipPath>
  <clipPath id="p8e69bb9102">
   <rect x="653.831876" y="8.64" width="4.536248" height="54.36"/>
  </clipPath>
  <clipPath id="pab558593bd">
   <rect x="670.031876" y="8.64" width="4.536248" height="54.36"/>
  </clipPath>
 </defs>
</svg>
