<?xml version="1.0" encoding="utf-8" standalone="no"?>
<!DOCTYPE svg PUBLIC "-//W3C//DTD SVG 1.1//EN"
  "http://www.w3.org/Graphics/SVG/1.1/DTD/svg11.dtd">
<svg xmlns:xlink="http://www.w3.org/1999/xlink" width="738pt" height="72pt" viewBox="0 0 738 72" xmlns="http://www.w3.org/2000/svg" version="1.1">
 <metadata>
  <rdf:RDF xmlns:dc="http://purl.org/dc/elements/1.1/" xmlns:cc="http://creativecommons.org/ns#" xmlns:rdf="http://www.w3.org/1999/02/22-rdf-syntax-ns#">
   <cc:Work>
    <dc:type rdf:resource="http://purl.org/dc/dcmitype/StillImage"/>
    <dc:date>2024-01-04T18:46:09.328948</dc:date>
    <dc:format>image/svg+xml</dc:format>
    <dc:creator>
     <cc:Agent>
      <dc:title>Matplotlib v3.7.1, https://matplotlib.org/</dc:title>
     </cc:Agent>
    </dc:creator>
   </cc:Work>
  </rdf:RDF>
 </metadata>
 <defs>
  <style type="text/css">*{stroke-linejoin: round; stroke-linecap: butt}</style>
 </defs>
 <g id="figure_1">
  <g id="patch_1">
   <path d="M 0 72 
L 738 72 
L 738 0 
L 0 0 
z
" style="fill: #8fff9f"/>
  </g>
  <g id="axes_1">
   <g id="patch_2">
    <path d="M 4.613462 35.932469 
Q 5.213297 35.257655 6.206772 34.826524 
Q 7.200248 34.395393 8.1 34.470372 
Q 8.737324 34.470372 9.22469 34.639076 
Q 9.712055 34.807779 10.030717 34.995228 
Q 10.349379 35.182676 10.574317 35.670041 
Q 10.799255 36.157407 10.911724 36.419834 
Q 11.024193 36.682262 11.080428 37.375821 
Q 11.136662 38.069379 11.155407 38.331807 
Q 11.174152 38.594234 11.155407 39.419007 
Q 11.136662 40.243779 11.136662 40.431228 
Q 11.136662 41.368469 10.967959 43.242952 
Q 10.799255 45.117434 10.799255 46.054676 
Q 10.799255 46.467062 10.85549 46.823214 
Q 10.911724 47.179366 11.005448 47.610497 
Q 11.099172 48.041628 11.136662 48.304055 
L 11.586538 48.528993 
M 5.063338 23.111007 
Q 5.288276 24.798041 5.288276 29.971614 
L 5.288276 42.3432 
L 4.950869 46.841959 
L 4.725931 47.74171 
" clip-path="url(#pff374dd1f3)" style="fill: none; stroke: #000000; stroke-linejoin: miter"/>
   </g>
  </g>
  <g id="axes_2">
   <g id="patch_3">
    <path d="M 24.918579 29.071862 
Q 24.543683 29.146841 24.412469 29.577972 
Q 24.281255 30.009103 24.356234 30.42149 
Q 24.356234 30.571448 24.393724 30.702662 
Q 24.431214 30.833876 24.487448 30.89011 
Q 24.543683 30.946345 24.599917 31.040069 
Q 24.656152 31.133793 24.693641 31.208772 
L 24.80611 29.859145 
M 24.80611 34.020497 
Q 23.906359 39.006621 23.681421 42.793076 
L 24.131297 45.379862 
L 24.468703 46.054676 
" clip-path="url(#pbce48288cb)" style="fill: none; stroke: #000000; stroke-linejoin: miter"/>
   </g>
  </g>
  <g id="axes_3">
   <g id="patch_4">
    <path d="M 36.057476 43.917766 
Q 36.357393 44.180193 37.369614 45.154924 
Q 38.381834 46.129655 38.944179 46.560786 
Q 39.506524 46.991917 40.53749 47.385559 
Q 41.568455 47.7792 42.580676 47.629241 
Q 43.25549 47.629241 43.72411 47.404303 
Q 44.192731 47.179366 44.417669 46.879448 
Q 44.642607 46.579531 44.773821 45.979697 
Q 44.905034 45.379862 44.923779 44.967476 
Q 44.942524 44.55509 44.942524 43.805297 
Q 44.942524 42.718097 44.042772 42.043283 
Q 43.143021 41.368469 41.849628 41.031062 
Q 40.556234 40.693655 39.262841 40.300014 
Q 37.969448 39.906372 37.069697 38.987876 
Q 36.169945 38.069379 36.169945 36.607283 
Q 36.169945 36.082428 36.338648 35.726276 
Q 36.507352 35.370124 36.900993 35.145186 
Q 37.294634 34.920248 37.575807 34.807779 
Q 37.856979 34.69531 38.513048 34.639076 
Q 39.169117 34.582841 39.356566 34.582841 
Q 39.544014 34.582841 40.218828 34.582841 
Q 41.418497 34.582841 41.999586 34.995228 
Q 42.580676 35.407614 42.899338 36.026193 
Q 43.218 36.644772 43.480428 36.832221 
" clip-path="url(#p81d5d8010b)" style="fill: none; stroke: #000000; stroke-linejoin: miter"/>
   </g>
  </g>
  <g id="axes_4">
   <g id="patch_5">
    <path d="M 52.257476 43.917766 
Q 52.557393 44.180193 53.569614 45.154924 
Q 54.581834 46.129655 55.144179 46.560786 
Q 55.706524 46.991917 56.73749 47.385559 
Q 57.768455 47.7792 58.780676 47.629241 
Q 59.45549 47.629241 59.92411 47.404303 
Q 60.392731 47.179366 60.617669 46.879448 
Q 60.842607 46.579531 60.973821 45.979697 
Q 61.105034 45.379862 61.123779 44.967476 
Q 61.142524 44.55509 61.142524 43.805297 
Q 61.142524 42.718097 60.242772 42.043283 
Q 59.343021 41.368469 58.049628 41.031062 
Q 56.756234 40.693655 55.462841 40.300014 
Q 54.169448 39.906372 53.269697 38.987876 
Q 52.369945 38.069379 52.369945 36.607283 
Q 52.369945 36.082428 52.538648 35.726276 
Q 52.707352 35.370124 53.100993 35.145186 
Q 53.494634 34.920248 53.775807 34.807779 
Q 54.056979 34.69531 54.713048 34.639076 
Q 55.369117 34.582841 55.556566 34.582841 
Q 55.744014 34.582841 56.418828 34.582841 
Q 57.618497 34.582841 58.199586 34.995228 
Q 58.780676 35.407614 59.099338 36.026193 
Q 59.418 36.644772 59.680428 36.832221 
" clip-path="url(#p1b474488ca)" style="fill: none; stroke: #000000; stroke-linejoin: miter"/>
   </g>
  </g>
  <g id="axes_5">
   <g id="patch_6">
    <path d="M 66.657798 38.160826 
Q 69.630275 39.535596 74.349083 39.721376 
Q 75.872477 39.721376 76.559862 38.550963 
Q 77.247248 37.38055 77.247248 35.82 
Q 77.247248 35.299817 77.154358 34.909679 
Q 77.061468 34.519541 76.819954 34.296606 
Q 76.57844 34.07367 76.411239 33.943624 
Q 76.244037 33.813578 75.798165 33.757844 
Q 75.352294 33.70211 75.147936 33.683532 
Q 74.943578 33.664954 74.367661 33.683532 
Q 73.791743 33.70211 73.568807 33.70211 
Q 71.525229 33.70211 70.038991 35.578486 
Q 68.552752 37.454862 68.552752 39.609908 
Q 68.552752 42.619541 70.484862 44.570229 
Q 72.416972 46.520917 75.463761 46.520917 
Q 77.618807 46.818165 79.142202 44.29156 
" clip-path="url(#pfea7065ce3)" style="fill: none; stroke: #000000; stroke-linejoin: miter"/>
   </g>
  </g>
  <g id="axes_6">
   <g id="patch_7">
    <path d="M 92.699007 39.568966 
Q 91.349379 38.181848 89.1 38.444276 
Q 86.250786 38.444276 85.088607 39.793903 
Q 83.926428 41.143531 83.926428 44.067724 
Q 83.926428 45.56731 85.219821 46.279614 
Q 86.513214 46.991917 88.087779 46.991917 
Q 89.399917 46.991917 90.412138 45.736014 
Q 91.424359 44.48011 92.005448 42.30571 
Q 92.586538 40.13131 92.961434 37.938166 
Q 93.336331 35.745021 93.48629 33.045766 
Q 93.636248 30.34651 93.673738 28.978138 
Q 93.711228 27.609766 93.711228 26.185159 
Q 93.48629 26.260138 93.48629 29.896634 
L 93.48629 44.292662 
L 94.273572 48.229076 
" clip-path="url(#p3a8df3e8c3)" style="fill: none; stroke: #000000; stroke-linejoin: miter"/>
   </g>
  </g>
  <g id="axes_7"/>
  <g id="axes_8">
   <g id="patch_8">
    <path d="M 127.043923 36.441748 
Q 125.834968 35.094627 121.862687 35.094627 
Q 120.342857 35.094627 119.565672 35.146439 
Q 118.788486 35.198252 117.78678 35.440043 
Q 116.785075 35.681834 116.301493 36.182687 
Q 115.81791 36.683539 115.472495 37.616162 
Q 115.127079 38.548785 115.127079 39.964989 
Q 115.127079 42.037484 116.543284 43.280981 
Q 117.959488 44.524478 119.893817 44.524478 
Q 122.553518 44.524478 125.316844 38.721493 
Q 126.663966 35.854542 126.663966 35.82 
Q 127.009382 35.578209 127.043923 36.441748 
Q 127.043923 37.512537 127.458422 40.362217 
Q 127.872921 43.211898 127.872921 44.524478 
" clip-path="url(#p91813c5ba9)" style="fill: none; stroke: #000000; stroke-linejoin: miter"/>
   </g>
  </g>
  <g id="axes_9"/>
  <g id="axes_10">
   <g id="patch_9">
    <path d="M 153.506359 28.621986 
Q 153.731297 30.34651 153.806276 32.146014 
Q 153.881255 33.945517 153.86251 36.551048 
Q 153.843766 39.156579 153.843766 40.093821 
Q 153.843766 40.13131 154.068703 45.829738 
L 154.293641 46.841959 
" clip-path="url(#p01372fc914)" style="fill: none; stroke: #000000; stroke-linejoin: miter"/>
   </g>
  </g>
  <g id="axes_11">
   <g id="patch_10">
    <path d="M 170.718579 29.071862 
Q 170.343683 29.146841 170.212469 29.577972 
Q 170.081255 30.009103 170.156234 30.42149 
Q 170.156234 30.571448 170.193724 30.702662 
Q 170.231214 30.833876 170.287448 30.89011 
Q 170.343683 30.946345 170.399917 31.040069 
Q 170.456152 31.133793 170.493641 31.208772 
L 170.60611 29.859145 
M 170.60611 34.020497 
Q 169.706359 39.006621 169.481421 42.793076 
L 169.931297 45.379862 
L 170.268703 46.054676 
" clip-path="url(#pa3539608a6)" style="fill: none; stroke: #000000; stroke-linejoin: miter"/>
   </g>
  </g>
  <g id="axes_12">
   <g id="patch_11">
    <path d="M 181.463834 37.95691 
L 182.138648 37.95691 
Q 182.850952 37.95691 183.638234 37.881931 
Q 184.425517 37.806952 185.381503 37.675738 
Q 186.33749 37.544524 186.862345 37.507034 
L 191.136166 35.82 
M 187.087283 30.42149 
L 187.087283 31.43371 
Q 187.087283 33.383172 186.412469 37.207117 
Q 185.737655 41.031062 185.737655 43.018014 
Q 185.737655 43.805297 185.737655 44.105214 
Q 185.737655 44.405131 185.831379 45.042455 
Q 185.925103 45.679779 186.112552 45.960952 
Q 186.3 46.242124 186.693641 46.485807 
Q 187.087283 46.72949 187.649628 46.72949 
Q 187.762097 46.692 188.080759 46.72949 
Q 188.399421 46.766979 188.586869 46.710745 
Q 188.774317 46.65451 188.774317 46.392083 
" clip-path="url(#p2a7b61676e)" style="fill: none; stroke: #000000; stroke-linejoin: miter"/>
   </g>
  </g>
  <g id="axes_13">
   <g id="patch_12">
    <path d="M 197.663834 37.95691 
L 198.338648 37.95691 
Q 199.050952 37.95691 199.838234 37.881931 
Q 200.625517 37.806952 201.581503 37.675738 
Q 202.53749 37.544524 203.062345 37.507034 
L 207.336166 35.82 
M 203.287283 30.42149 
L 203.287283 31.43371 
Q 203.287283 33.383172 202.612469 37.207117 
Q 201.937655 41.031062 201.937655 43.018014 
Q 201.937655 43.805297 201.937655 44.105214 
Q 201.937655 44.405131 202.031379 45.042455 
Q 202.125103 45.679779 202.312552 45.960952 
Q 202.5 46.242124 202.893641 46.485807 
Q 203.287283 46.72949 203.849628 46.72949 
Q 203.962097 46.692 204.280759 46.72949 
Q 204.599421 46.766979 204.786869 46.710745 
Q 204.974317 46.65451 204.974317 46.392083 
" clip-path="url(#p69e8cd887a)" style="fill: none; stroke: #000000; stroke-linejoin: miter"/>
   </g>
  </g>
  <g id="axes_14">
   <g id="patch_13">
    <path d="M 218.306359 28.621986 
Q 218.531297 30.34651 218.606276 32.146014 
Q 218.681255 33.945517 218.66251 36.551048 
Q 218.643766 39.156579 218.643766 40.093821 
Q 218.643766 40.13131 218.868703 45.829738 
L 219.093641 46.841959 
" clip-path="url(#pfd063aaf2c)" style="fill: none; stroke: #000000; stroke-linejoin: miter"/>
   </g>
  </g>
  <g id="axes_15">
   <g id="patch_14">
    <path d="M 228.657798 38.160826 
Q 231.630275 39.535596 236.349083 39.721376 
Q 237.872477 39.721376 238.559862 38.550963 
Q 239.247248 37.38055 239.247248 35.82 
Q 239.247248 35.299817 239.154358 34.909679 
Q 239.061468 34.519541 238.819954 34.296606 
Q 238.57844 34.07367 238.411239 33.943624 
Q 238.244037 33.813578 237.798165 33.757844 
Q 237.352294 33.70211 237.147936 33.683532 
Q 236.943578 33.664954 236.367661 33.683532 
Q 235.791743 33.70211 235.568807 33.70211 
Q 233.525229 33.70211 232.038991 35.578486 
Q 230.552752 37.454862 230.552752 39.609908 
Q 230.552752 42.619541 232.484862 44.570229 
Q 234.416972 46.520917 237.463761 46.520917 
Q 239.618807 46.818165 241.142202 44.29156 
" clip-path="url(#pb1efeeb67c)" style="fill: none; stroke: #000000; stroke-linejoin: miter"/>
   </g>
  </g>
  <g id="axes_16"/>
  <g id="axes_17">
   <g id="patch_15">
    <path d="M 267.918579 29.071862 
Q 267.543683 29.146841 267.412469 29.577972 
Q 267.281255 30.009103 267.356234 30.42149 
Q 267.356234 30.571448 267.393724 30.702662 
Q 267.431214 30.833876 267.487448 30.89011 
Q 267.543683 30.946345 267.599917 31.040069 
Q 267.656152 31.133793 267.693641 31.208772 
L 267.80611 29.859145 
M 267.80611 34.020497 
Q 266.906359 39.006621 266.681421 42.793076 
L 267.131297 45.379862 
L 267.468703 46.054676 
" clip-path="url(#pdf6e68cede)" style="fill: none; stroke: #000000; stroke-linejoin: miter"/>
   </g>
  </g>
  <g id="axes_18">
   <g id="patch_16">
    <path d="M 279.038731 37.282097 
L 279.038731 37.844441 
Q 279.301159 39.868883 279.338648 41.312234 
Q 279.376138 42.755586 279.282414 44.667559 
Q 279.18869 46.579531 279.18869 48.191586 
L 279.263669 39.643945 
Q 279.263669 38.144359 280.856979 37.507034 
Q 282.45029 36.86971 283.874897 37.282097 
Q 285.786869 37.844441 286.705366 39.04411 
Q 287.623862 40.243779 287.680097 41.668386 
Q 287.736331 43.092993 287.773821 44.817517 
Q 287.81131 46.542041 287.961269 48.191586 
" clip-path="url(#pa4783a501d)" style="fill: none; stroke: #000000; stroke-linejoin: miter"/>
   </g>
  </g>
  <g id="axes_19"/>
  <g id="axes_20">
   <g id="patch_17">
    <path d="M 312.413462 32.783338 
Q 312.938317 34.507862 313.069531 36.457324 
Q 313.200745 38.406786 313.125766 40.956083 
Q 313.050786 43.505379 313.088276 44.705048 
L 313.200745 46.054676 
L 313.200745 45.829738 
Q 313.200745 44.667559 312.919572 42.30571 
Q 312.6384 39.943862 312.6384 38.744193 
Q 312.6384 36.419834 313.650621 34.882759 
Q 314.662841 33.345683 316.687283 33.345683 
Q 317.399586 33.345683 317.736993 33.626855 
Q 318.0744 33.908028 318.336828 34.432883 
Q 318.599255 34.957738 318.936662 35.257655 
L 319.386538 36.832221 
" clip-path="url(#p87bf28c4a5)" style="fill: none; stroke: #000000; stroke-linejoin: miter"/>
   </g>
  </g>
  <g id="axes_21">
   <g id="patch_18">
    <path d="M 325.857798 38.160826 
Q 328.830275 39.535596 333.549083 39.721376 
Q 335.072477 39.721376 335.759862 38.550963 
Q 336.447248 37.38055 336.447248 35.82 
Q 336.447248 35.299817 336.354358 34.909679 
Q 336.261468 34.519541 336.019954 34.296606 
Q 335.77844 34.07367 335.611239 33.943624 
Q 335.444037 33.813578 334.998165 33.757844 
Q 334.552294 33.70211 334.347936 33.683532 
Q 334.143578 33.664954 333.567661 33.683532 
Q 332.991743 33.70211 332.768807 33.70211 
Q 330.725229 33.70211 329.238991 35.578486 
Q 327.752752 37.454862 327.752752 39.609908 
Q 327.752752 42.619541 329.684862 44.570229 
Q 331.616972 46.520917 334.663761 46.520917 
Q 336.818807 46.818165 338.342202 44.29156 
" clip-path="url(#p6f1dfa5c82)" style="fill: none; stroke: #000000; stroke-linejoin: miter"/>
   </g>
  </g>
  <g id="axes_22">
   <g id="patch_19">
    <path d="M 343.857476 43.917766 
Q 344.157393 44.180193 345.169614 45.154924 
Q 346.181834 46.129655 346.744179 46.560786 
Q 347.306524 46.991917 348.33749 47.385559 
Q 349.368455 47.7792 350.380676 47.629241 
Q 351.05549 47.629241 351.52411 47.404303 
Q 351.992731 47.179366 352.217669 46.879448 
Q 352.442607 46.579531 352.573821 45.979697 
Q 352.705034 45.379862 352.723779 44.967476 
Q 352.742524 44.55509 352.742524 43.805297 
Q 352.742524 42.718097 351.842772 42.043283 
Q 350.943021 41.368469 349.649628 41.031062 
Q 348.356234 40.693655 347.062841 40.300014 
Q 345.769448 39.906372 344.869697 38.987876 
Q 343.969945 38.069379 343.969945 36.607283 
Q 343.969945 36.082428 344.138648 35.726276 
Q 344.307352 35.370124 344.700993 35.145186 
Q 345.094634 34.920248 345.375807 34.807779 
Q 345.656979 34.69531 346.313048 34.639076 
Q 346.969117 34.582841 347.156566 34.582841 
Q 347.344014 34.582841 348.018828 34.582841 
Q 349.218497 34.582841 349.799586 34.995228 
Q 350.380676 35.407614 350.699338 36.026193 
Q 351.018 36.644772 351.280428 36.832221 
" clip-path="url(#p114741fe23)" style="fill: none; stroke: #000000; stroke-linejoin: miter"/>
   </g>
  </g>
  <g id="axes_23">
   <g id="patch_20">
    <path d="M 359.720069 39.868883 
L 359.720069 39.419007 
Q 359.720069 37.769462 361.463338 36.682262 
Q 363.206607 35.595062 364.893641 35.595062 
Q 367.105531 35.595062 368.473903 36.794731 
Q 369.842276 37.9944 369.842276 40.20629 
Q 369.842276 42.30571 368.024028 43.336676 
Q 366.205779 44.367641 363.99389 44.367641 
Q 363.319076 44.367641 362.812966 44.255172 
Q 362.306855 44.142703 361.688276 43.917766 
Q 361.069697 43.692828 360.619821 43.580359 
L 359.495131 42.568138 
M 359.157724 36.832221 
Q 359.6076 38.444276 359.870028 40.262524 
Q 360.132455 42.080772 360.18869 43.749062 
Q 360.244924 45.417352 360.282414 47.27309 
Q 360.319903 49.128828 360.282414 50.778372 
L 360.169945 57.863917 
" clip-path="url(#p2b747216be)" style="fill: none; stroke: #000000; stroke-linejoin: miter"/>
   </g>
  </g>
  <g id="axes_24">
   <g id="patch_21">
    <path d="M 383.9616 35.032717 
Q 382.91189 34.582841 381.937159 34.69531 
Q 378.900497 35.032717 376.988524 36.701007 
Q 375.076552 38.369297 375.076552 41.330979 
Q 375.076552 43.917766 377.082248 45.6048 
Q 379.087945 47.291834 381.712221 47.291834 
Q 384.074069 47.291834 385.198759 45.361117 
Q 386.323448 43.4304 386.323448 40.881103 
Q 386.323448 39.643945 385.911062 38.706703 
Q 385.498676 37.769462 384.973821 37.300841 
Q 384.448966 36.832221 383.699172 36.119917 
Q 382.949379 35.407614 382.499503 34.69531 
L 381.262345 34.245434 
" clip-path="url(#pad50400302)" style="fill: none; stroke: #000000; stroke-linejoin: miter"/>
   </g>
  </g>
  <g id="axes_25">
   <g id="patch_22">
    <path d="M 392.438731 37.282097 
L 392.438731 37.844441 
Q 392.701159 39.868883 392.738648 41.312234 
Q 392.776138 42.755586 392.682414 44.667559 
Q 392.58869 46.579531 392.58869 48.191586 
L 392.663669 39.643945 
Q 392.663669 38.144359 394.256979 37.507034 
Q 395.85029 36.86971 397.274897 37.282097 
Q 399.186869 37.844441 400.105366 39.04411 
Q 401.023862 40.243779 401.080097 41.668386 
Q 401.136331 43.092993 401.173821 44.817517 
Q 401.21131 46.542041 401.361269 48.191586 
" clip-path="url(#p923e39f55b)" style="fill: none; stroke: #000000; stroke-linejoin: miter"/>
   </g>
  </g>
  <g id="axes_26">
   <g id="patch_23">
    <path d="M 408.657476 43.917766 
Q 408.957393 44.180193 409.969614 45.154924 
Q 410.981834 46.129655 411.544179 46.560786 
Q 412.106524 46.991917 413.13749 47.385559 
Q 414.168455 47.7792 415.180676 47.629241 
Q 415.85549 47.629241 416.32411 47.404303 
Q 416.792731 47.179366 417.017669 46.879448 
Q 417.242607 46.579531 417.373821 45.979697 
Q 417.505034 45.379862 417.523779 44.967476 
Q 417.542524 44.55509 417.542524 43.805297 
Q 417.542524 42.718097 416.642772 42.043283 
Q 415.743021 41.368469 414.449628 41.031062 
Q 413.156234 40.693655 411.862841 40.300014 
Q 410.569448 39.906372 409.669697 38.987876 
Q 408.769945 38.069379 408.769945 36.607283 
Q 408.769945 36.082428 408.938648 35.726276 
Q 409.107352 35.370124 409.500993 35.145186 
Q 409.894634 34.920248 410.175807 34.807779 
Q 410.456979 34.69531 411.113048 34.639076 
Q 411.769117 34.582841 411.956566 34.582841 
Q 412.144014 34.582841 412.818828 34.582841 
Q 414.018497 34.582841 414.599586 34.995228 
Q 415.180676 35.407614 415.499338 36.026193 
Q 415.818 36.644772 416.080428 36.832221 
" clip-path="url(#pbda33a4153)" style="fill: none; stroke: #000000; stroke-linejoin: miter"/>
   </g>
  </g>
  <g id="axes_27">
   <g id="patch_24">
    <path d="M 423.057798 38.160826 
Q 426.030275 39.535596 430.749083 39.721376 
Q 432.272477 39.721376 432.959862 38.550963 
Q 433.647248 37.38055 433.647248 35.82 
Q 433.647248 35.299817 433.554358 34.909679 
Q 433.461468 34.519541 433.219954 34.296606 
Q 432.97844 34.07367 432.811239 33.943624 
Q 432.644037 33.813578 432.198165 33.757844 
Q 431.752294 33.70211 431.547936 33.683532 
Q 431.343578 33.664954 430.767661 33.683532 
Q 430.191743 33.70211 429.968807 33.70211 
Q 427.925229 33.70211 426.438991 35.578486 
Q 424.952752 37.454862 424.952752 39.609908 
Q 424.952752 42.619541 426.884862 44.570229 
Q 428.816972 46.520917 431.863761 46.520917 
Q 434.018807 46.818165 435.542202 44.29156 
" clip-path="url(#p32f0d3637c)" style="fill: none; stroke: #000000; stroke-linejoin: miter"/>
   </g>
  </g>
  <g id="axes_28">
   <g id="patch_25">
    <path d="M 444.787697 39.981352 
Q 445.799917 40.956083 446.137324 42.905545 
Q 446.324772 43.955255 445.912386 46.167145 
L 444.675228 47.629241 
" clip-path="url(#p6d450145f6)" style="fill: none; stroke: #000000; stroke-linejoin: miter"/>
   </g>
  </g>
  <g id="axes_29"/>
  <g id="axes_30">
   <g id="patch_26">
    <path d="M 478.424855 27.009931 
Q 478.499834 27.347338 478.574814 28.265834 
Q 478.649793 29.184331 478.799752 29.634207 
L 478.724772 31.058814 
M 477.075228 27.309848 
Q 477.037738 27.309848 477.000248 27.534786 
Q 477.037738 27.684745 477.150207 28.828179 
Q 477.262676 29.971614 477.525103 30.533959 
" clip-path="url(#p6ea1f40f27)" style="fill: none; stroke: #000000; stroke-linejoin: miter"/>
   </g>
  </g>
  <g id="axes_31">
   <g id="patch_27">
    <path d="M 497.3616 35.032717 
Q 496.31189 34.582841 495.337159 34.69531 
Q 492.300497 35.032717 490.388524 36.701007 
Q 488.476552 38.369297 488.476552 41.330979 
Q 488.476552 43.917766 490.482248 45.6048 
Q 492.487945 47.291834 495.112221 47.291834 
Q 497.474069 47.291834 498.598759 45.361117 
Q 499.723448 43.4304 499.723448 40.881103 
Q 499.723448 39.643945 499.311062 38.706703 
Q 498.898676 37.769462 498.373821 37.300841 
Q 497.848966 36.832221 497.099172 36.119917 
Q 496.349379 35.407614 495.899503 34.69531 
L 494.662345 34.245434 
" clip-path="url(#p4be7534362)" style="fill: none; stroke: #000000; stroke-linejoin: miter"/>
   </g>
  </g>
  <g id="axes_32">
   <g id="patch_28">
    <path d="M 506.813462 35.932469 
Q 507.413297 35.257655 508.406772 34.826524 
Q 509.400248 34.395393 510.3 34.470372 
Q 510.937324 34.470372 511.42469 34.639076 
Q 511.912055 34.807779 512.230717 34.995228 
Q 512.549379 35.182676 512.774317 35.670041 
Q 512.999255 36.157407 513.111724 36.419834 
Q 513.224193 36.682262 513.280428 37.375821 
Q 513.336662 38.069379 513.355407 38.331807 
Q 513.374152 38.594234 513.355407 39.419007 
Q 513.336662 40.243779 513.336662 40.431228 
Q 513.336662 41.368469 513.167959 43.242952 
Q 512.999255 45.117434 512.999255 46.054676 
Q 512.999255 46.467062 513.05549 46.823214 
Q 513.111724 47.179366 513.205448 47.610497 
Q 513.299172 48.041628 513.336662 48.304055 
L 513.786538 48.528993 
M 507.263338 23.111007 
Q 507.488276 24.798041 507.488276 29.971614 
L 507.488276 42.3432 
L 507.150869 46.841959 
L 506.925931 47.74171 
" clip-path="url(#pd131c9264e)" style="fill: none; stroke: #000000; stroke-linejoin: miter"/>
   </g>
  </g>
  <g id="axes_33"/>
  <g id="axes_34">
   <g id="patch_29">
    <path d="M 536.408036 34.879821 
Q 536.914286 36.073125 537.203571 42.871339 
Q 537.348214 46.632054 537.6375 46.632054 
Q 537.673661 46.632054 537.709821 46.595893 
Q 538.216071 46.017321 538.270313 44.588973 
Q 538.324554 43.160625 538.107589 41.750357 
Q 537.890625 40.340089 537.6375 38.712857 
Q 537.384375 37.085625 537.384375 36.398571 
Q 537.384375 35.169107 537.764063 33.939643 
Q 538.14375 32.710179 539.120089 32.710179 
Q 540.349554 32.710179 541.072768 34.355491 
Q 541.795982 36.000804 541.958705 37.971563 
Q 542.121429 39.942321 542.229911 41.587634 
Q 542.338393 43.232946 542.483036 43.232946 
Q 542.627679 43.232946 542.71808 41.497232 
Q 542.808482 39.761518 542.935045 37.700357 
Q 543.061607 35.639196 543.784821 33.903482 
Q 544.508036 32.167768 545.7375 32.167768 
Q 547.292411 33.035625 547.961384 34.771339 
Q 548.630357 36.507054 548.594196 38.188527 
Q 548.558036 39.87 548.576116 42.057723 
Q 548.594196 44.245446 548.991964 45.511071 
" clip-path="url(#p0d25f2dd33)" style="fill: none; stroke: #000000; stroke-linejoin: miter"/>
   </g>
  </g>
  <g id="axes_35">
   <g id="patch_30">
    <path d="M 553.763917 36.382345 
Q 553.726428 36.494814 553.857641 36.701007 
Q 553.988855 36.9072 553.876386 37.057159 
L 553.876386 39.306538 
Q 553.876386 40.506207 554.213793 41.724621 
Q 554.5512 42.943034 555.413462 43.93651 
Q 556.275724 44.929986 557.475393 44.929986 
Q 558.712552 44.929986 559.387366 43.861531 
Q 560.062179 42.793076 560.512055 41.143531 
Q 560.961931 39.493986 561.299338 38.969131 
L 562.086621 36.382345 
L 561.861683 42.680607 
L 561.861683 45.154924 
Q 561.861683 47.066897 562.592731 51.00331 
Q 563.323779 54.939724 563.323779 56.964166 
Q 564.073572 59.213545 562.986372 60.188276 
Q 561.899172 61.163007 559.837241 60.78811 
Q 558.037738 60.488193 557.119241 60.169531 
Q 556.200745 59.850869 554.213793 58.988607 
L 554.101324 58.426262 
" clip-path="url(#p486d4a7926)" style="fill: none; stroke: #000000; stroke-linejoin: miter"/>
   </g>
  </g>
  <g id="axes_36">
   <g id="patch_31">
    <path d="M 575.943517 43.505379 
Q 575.868538 43.46789 575.793559 43.505379 
Q 575.718579 43.542869 575.68109 43.617848 
Q 575.6436 43.692828 575.60611 43.730317 
L 575.493641 44.180193 
M 574.256483 28.2096 
L 574.256483 28.771945 
Q 574.256483 29.971614 574.443931 31.321241 
Q 574.631379 32.670869 574.950041 34.339159 
Q 575.268703 36.007448 575.381172 36.86971 
L 575.493641 39.906372 
" clip-path="url(#p1e64637fbe)" style="fill: none; stroke: #000000; stroke-linejoin: miter"/>
   </g>
  </g>
  <g id="axes_37">
   <g id="patch_32">
    <path d="M 591.824855 27.009931 
Q 591.899834 27.347338 591.974814 28.265834 
Q 592.049793 29.184331 592.199752 29.634207 
L 592.124772 31.058814 
M 590.475228 27.309848 
Q 590.437738 27.309848 590.400248 27.534786 
Q 590.437738 27.684745 590.550207 28.828179 
Q 590.662676 29.971614 590.925103 30.533959 
" clip-path="url(#pca4f722e47)" style="fill: none; stroke: #000000; stroke-linejoin: miter"/>
   </g>
  </g>
  <g id="axes_38"/>
  <g id="axes_39">
   <g id="patch_33">
    <path d="M 617.139924 40.439772 
Q 622.036882 46.999848 627.580608 46.168289 
Q 628.904943 46.168289 629.58251 45.382928 
Q 630.260076 44.597567 630.260076 43.30403 
Q 630.260076 41.979696 629.628707 40.947947 
Q 628.997338 39.916198 627.996388 39.238631 
Q 626.995437 38.561065 625.794297 37.975894 
Q 624.593156 37.390722 623.376616 36.820951 
Q 622.160076 36.251179 621.159125 35.589011 
Q 620.158175 34.926844 619.526806 33.895095 
Q 618.895437 32.863346 618.895437 31.56981 
Q 618.895437 29.906692 621.374715 28.382167 
Q 623.853992 26.857643 625.640304 26.857643 
Q 626.718251 26.796046 627.272624 27.627605 
Q 627.826996 28.459163 627.811597 29.490913 
Q 627.796198 30.522662 627.765399 31.385019 
" clip-path="url(#p386fd6c72c)" style="fill: none; stroke: #000000; stroke-linejoin: miter"/>
   </g>
  </g>
  <g id="axes_40">
   <g id="patch_34">
    <path d="M 636.413462 35.932469 
Q 637.013297 35.257655 638.006772 34.826524 
Q 639.000248 34.395393 639.9 34.470372 
Q 640.537324 34.470372 641.02469 34.639076 
Q 641.512055 34.807779 641.830717 34.995228 
Q 642.149379 35.182676 642.374317 35.670041 
Q 642.599255 36.157407 642.711724 36.419834 
Q 642.824193 36.682262 642.880428 37.375821 
Q 642.936662 38.069379 642.955407 38.331807 
Q 642.974152 38.594234 642.955407 39.419007 
Q 642.936662 40.243779 642.936662 40.431228 
Q 642.936662 41.368469 642.767959 43.242952 
Q 642.599255 45.117434 642.599255 46.054676 
Q 642.599255 46.467062 642.65549 46.823214 
Q 642.711724 47.179366 642.805448 47.610497 
Q 642.899172 48.041628 642.936662 48.304055 
L 643.386538 48.528993 
M 636.863338 23.111007 
Q 637.088276 24.798041 637.088276 29.971614 
L 637.088276 42.3432 
L 636.750869 46.841959 
L 636.525931 47.74171 
" clip-path="url(#p75e8d27599)" style="fill: none; stroke: #000000; stroke-linejoin: miter"/>
   </g>
  </g>
  <g id="axes_41">
   <g id="patch_35">
    <path d="M 649.857798 38.160826 
Q 652.830275 39.535596 657.549083 39.721376 
Q 659.072477 39.721376 659.759862 38.550963 
Q 660.447248 37.38055 660.447248 35.82 
Q 660.447248 35.299817 660.354358 34.909679 
Q 660.261468 34.519541 660.019954 34.296606 
Q 659.77844 34.07367 659.611239 33.943624 
Q 659.444037 33.813578 658.998165 33.757844 
Q 658.552294 33.70211 658.347936 33.683532 
Q 658.143578 33.664954 657.567661 33.683532 
Q 656.991743 33.70211 656.768807 33.70211 
Q 654.725229 33.70211 653.238991 35.578486 
Q 651.752752 37.454862 651.752752 39.609908 
Q 651.752752 42.619541 653.684862 44.570229 
Q 655.616972 46.520917 658.663761 46.520917 
Q 660.818807 46.818165 662.342202 44.29156 
" clip-path="url(#pe01765219f)" style="fill: none; stroke: #000000; stroke-linejoin: miter"/>
   </g>
  </g>
 </g>
 <defs>
  <clipPath id="pff374dd1f3">
   <rect x="2.738979" y="8.64" width="10.722041" height="54.36"/>
  </clipPath>
  <clipPath id="pbce48288cb">
   <rect x="21.806938" y="8.64" width="4.986124" height="54.36"/>
  </clipPath>
  <clipPath id="p81d5d8010b">
   <rect x="34.182993" y="8.64" width="12.634014" height="54.36"/>
  </clipPath>
  <clipPath id="p1b474488ca">
   <rect x="50.382993" y="8.64" width="12.634014" height="54.36"/>
  </clipPath>
  <clipPath id="pfea7065ce3">
   <rect x="64.8" y="8.881927" width="16.2" height="53.876147"/>
  </clipPath>
  <clipPath id="p3a8df3e8c3">
   <rect x="82.051945" y="8.64" width="14.09611" height="54.36"/>
  </clipPath>
  <clipPath id="p91813c5ba9">
   <rect x="113.4" y="10.777356" width="16.2" height="50.085288"/>
  </clipPath>
  <clipPath id="p01372fc914">
   <rect x="151.631876" y="8.64" width="4.536248" height="54.36"/>
  </clipPath>
  <clipPath id="pa3539608a6">
   <rect x="167.606938" y="8.64" width="4.986124" height="54.36"/>
  </clipPath>
  <clipPath id="p2a7b61676e">
   <rect x="179.589352" y="8.64" width="13.421297" height="54.36"/>
  </clipPath>
  <clipPath id="p69e8cd887a">
   <rect x="195.789352" y="8.64" width="13.421297" height="54.36"/>
  </clipPath>
  <clipPath id="pfd063aaf2c">
   <rect x="216.431876" y="8.64" width="4.536248" height="54.36"/>
  </clipPath>
  <clipPath id="pb1efeeb67c">
   <rect x="226.8" y="8.881927" width="16.2" height="53.876147"/>
  </clipPath>
  <clipPath id="pdf6e68cede">
   <rect x="264.806938" y="8.64" width="4.986124" height="54.36"/>
  </clipPath>
  <clipPath id="pa4783a501d">
   <rect x="277.164248" y="8.64" width="12.671503" height="54.36"/>
  </clipPath>
  <clipPath id="p87bf28c4a5">
   <rect x="310.538979" y="8.64" width="10.722041" height="54.36"/>
  </clipPath>
  <clipPath id="p6f1dfa5c82">
   <rect x="324" y="8.881927" width="16.2" height="53.876147"/>
  </clipPath>
  <clipPath id="p114741fe23">
   <rect x="341.982993" y="8.64" width="12.634014" height="54.36"/>
  </clipPath>
  <clipPath id="p2b747216be">
   <rect x="357.283241" y="8.64" width="14.433517" height="54.36"/>
  </clipPath>
  <clipPath id="pad50400302">
   <rect x="373.202069" y="8.64" width="14.995862" height="54.36"/>
  </clipPath>
  <clipPath id="p923e39f55b">
   <rect x="390.564248" y="8.64" width="12.671503" height="54.36"/>
  </clipPath>
  <clipPath id="pbda33a4153">
   <rect x="406.782993" y="8.64" width="12.634014" height="54.36"/>
  </clipPath>
  <clipPath id="p32f0d3637c">
   <rect x="421.2" y="8.881927" width="16.2" height="53.876147"/>
  </clipPath>
  <clipPath id="p6d450145f6">
   <rect x="442.800745" y="8.64" width="5.39851" height="54.36"/>
  </clipPath>
  <clipPath id="p6ea1f40f27">
   <rect x="475.125766" y="8.64" width="5.548469" height="54.36"/>
  </clipPath>
  <clipPath id="p4be7534362">
   <rect x="486.602069" y="8.64" width="14.995862" height="54.36"/>
  </clipPath>
  <clipPath id="pd131c9264e">
   <rect x="504.938979" y="8.64" width="10.722041" height="54.36"/>
  </clipPath>
  <clipPath id="p0d25f2dd33">
   <rect x="534.6" y="9.603482" width="16.2" height="52.433036"/>
  </clipPath>
  <clipPath id="p486d4a7926">
   <rect x="551.851945" y="8.64" width="14.09611" height="54.36"/>
  </clipPath>
  <clipPath id="p1e64637fbe">
   <rect x="572.382" y="8.64" width="5.436" height="54.36"/>
  </clipPath>
  <clipPath id="pca4f722e47">
   <rect x="588.525766" y="8.64" width="5.548469" height="54.36"/>
  </clipPath>
  <clipPath id="p386fd6c72c">
   <rect x="615.6" y="13.491103" width="16.2" height="44.657795"/>
  </clipPath>
  <clipPath id="p75e8d27599">
   <rect x="634.538979" y="8.64" width="10.722041" height="54.36"/>
  </clipPath>
  <clipPath id="pe01765219f">
   <rect x="648" y="8.881927" width="16.2" height="53.876147"/>
  </clipPath>
 </defs>
</svg>
