<?xml version="1.0" encoding="utf-8" standalone="no"?>
<!DOCTYPE svg PUBLIC "-//W3C//DTD SVG 1.1//EN"
  "http://www.w3.org/Graphics/SVG/1.1/DTD/svg11.dtd">
<svg xmlns:xlink="http://www.w3.org/1999/xlink" width="774pt" height="72pt" viewBox="0 0 774 72" xmlns="http://www.w3.org/2000/svg" version="1.1">
 <metadata>
  <rdf:RDF xmlns:dc="http://purl.org/dc/elements/1.1/" xmlns:cc="http://creativecommons.org/ns#" xmlns:rdf="http://www.w3.org/1999/02/22-rdf-syntax-ns#">
   <cc:Work>
    <dc:type rdf:resource="http://purl.org/dc/dcmitype/StillImage"/>
    <dc:date>2024-01-04T18:45:55.770263</dc:date>
    <dc:format>image/svg+xml</dc:format>
    <dc:creator>
     <cc:Agent>
      <dc:title>Matplotlib v3.7.1, https://matplotlib.org/</dc:title>
     </cc:Agent>
    </dc:creator>
   </cc:Work>
  </rdf:RDF>
 </metadata>
 <defs>
  <style type="text/css">*{stroke-linejoin: round; stroke-linecap: butt}</style>
 </defs>
 <g id="figure_1">
  <g id="patch_1">
   <path d="M 0 72 
L 774 72 
L 774 0 
L 0 0 
z
" style="fill: #8fff9f"/>
  </g>
  <g id="axes_1">
   <g id="patch_2">
    <path d="M 7.706359 28.621986 
Q 7.931297 30.34651 8.006276 32.146014 
Q 8.081255 33.945517 8.06251 36.551048 
Q 8.043766 39.156579 8.043766 40.093821 
Q 8.043766 40.13131 8.268703 45.829738 
L 8.493641 46.841959 
" clip-path="url(#p4f91014847)" style="fill: none; stroke: #000000; stroke-linejoin: miter"/>
   </g>
  </g>
  <g id="axes_2">
   <g id="patch_3">
    <path d="M 24.918579 29.071862 
Q 24.543683 29.146841 24.412469 29.577972 
Q 24.281255 30.009103 24.356234 30.42149 
Q 24.356234 30.571448 24.393724 30.702662 
Q 24.431214 30.833876 24.487448 30.89011 
Q 24.543683 30.946345 24.599917 31.040069 
Q 24.656152 31.133793 24.693641 31.208772 
L 24.80611 29.859145 
M 24.80611 34.020497 
Q 23.906359 39.006621 23.681421 42.793076 
L 24.131297 45.379862 
L 24.468703 46.054676 
" clip-path="url(#pac374aea2c)" style="fill: none; stroke: #000000; stroke-linejoin: miter"/>
   </g>
  </g>
  <g id="axes_3">
   <g id="patch_4">
    <path d="M 45.287191 39.096404 
Q 45.03236 39.023596 44.06764 38.623146 
Q 43.102921 38.222697 42.44764 38.077079 
Q 41.79236 37.931461 41.137079 38.00427 
Q 38.515955 38.00427 36.877753 40.388764 
Q 35.239551 42.773258 35.239551 45.430787 
Q 35.239551 47.068989 40.481798 47.068989 
Q 42.047191 47.068989 43.375955 45.558202 
Q 44.704719 44.047416 45.378202 42.172584 
Q 46.051685 40.297753 46.051685 38.768764 
Q 46.051685 37.27618 46.015281 36.984944 
L 45.942472 38.077079 
Q 45.942472 38.550337 45.942472 38.987191 
Q 45.978876 40.188539 46.179101 42.281798 
Q 46.379326 44.375056 46.543146 46.049663 
Q 46.706966 47.72427 46.743371 49.872135 
Q 46.779775 52.02 46.615955 53.658202 
Q 46.452135 55.296404 45.887865 56.971011 
Q 45.323596 58.645618 44.395281 59.737753 
Q 43.466966 60.829888 41.865169 61.521573 
Q 40.263371 62.213258 38.115506 62.213258 
Q 36.477303 62.213258 35.385169 61.466966 
Q 34.293034 60.720674 34.293034 59.155281 
Q 34.220225 58.936854 34.256629 58.936854 
Q 34.293034 58.936854 34.402247 58.936854 
Q 34.511461 58.936854 34.511461 58.82764 
" clip-path="url(#pc39451c261)" style="fill: none; stroke: #000000; stroke-linejoin: miter"/>
   </g>
  </g>
  <g id="axes_4">
   <g id="patch_5">
    <path d="M 53.213462 35.932469 
Q 53.813297 35.257655 54.806772 34.826524 
Q 55.800248 34.395393 56.7 34.470372 
Q 57.337324 34.470372 57.82469 34.639076 
Q 58.312055 34.807779 58.630717 34.995228 
Q 58.949379 35.182676 59.174317 35.670041 
Q 59.399255 36.157407 59.511724 36.419834 
Q 59.624193 36.682262 59.680428 37.375821 
Q 59.736662 38.069379 59.755407 38.331807 
Q 59.774152 38.594234 59.755407 39.419007 
Q 59.736662 40.243779 59.736662 40.431228 
Q 59.736662 41.368469 59.567959 43.242952 
Q 59.399255 45.117434 59.399255 46.054676 
Q 59.399255 46.467062 59.45549 46.823214 
Q 59.511724 47.179366 59.605448 47.610497 
Q 59.699172 48.041628 59.736662 48.304055 
L 60.186538 48.528993 
M 53.663338 23.111007 
Q 53.888276 24.798041 53.888276 29.971614 
L 53.888276 42.3432 
L 53.550869 46.841959 
L 53.325931 47.74171 
" clip-path="url(#pe827ed245c)" style="fill: none; stroke: #000000; stroke-linejoin: miter"/>
   </g>
  </g>
  <g id="axes_5">
   <g id="patch_6">
    <path d="M 68.063834 37.95691 
L 68.738648 37.95691 
Q 69.450952 37.95691 70.238234 37.881931 
Q 71.025517 37.806952 71.981503 37.675738 
Q 72.93749 37.544524 73.462345 37.507034 
L 77.736166 35.82 
M 73.687283 30.42149 
L 73.687283 31.43371 
Q 73.687283 33.383172 73.012469 37.207117 
Q 72.337655 41.031062 72.337655 43.018014 
Q 72.337655 43.805297 72.337655 44.105214 
Q 72.337655 44.405131 72.431379 45.042455 
Q 72.525103 45.679779 72.712552 45.960952 
Q 72.9 46.242124 73.293641 46.485807 
Q 73.687283 46.72949 74.249628 46.72949 
Q 74.362097 46.692 74.680759 46.72949 
Q 74.999421 46.766979 75.186869 46.710745 
Q 75.374317 46.65451 75.374317 46.392083 
" clip-path="url(#p5c14c18a2e)" style="fill: none; stroke: #000000; stroke-linejoin: miter"/>
   </g>
  </g>
  <g id="axes_6"/>
  <g id="axes_7">
   <g id="patch_7">
    <path d="M 108.5616 35.032717 
Q 107.51189 34.582841 106.537159 34.69531 
Q 103.500497 35.032717 101.588524 36.701007 
Q 99.676552 38.369297 99.676552 41.330979 
Q 99.676552 43.917766 101.682248 45.6048 
Q 103.687945 47.291834 106.312221 47.291834 
Q 108.674069 47.291834 109.798759 45.361117 
Q 110.923448 43.4304 110.923448 40.881103 
Q 110.923448 39.643945 110.511062 38.706703 
Q 110.098676 37.769462 109.573821 37.300841 
Q 109.048966 36.832221 108.299172 36.119917 
Q 107.549379 35.407614 107.099503 34.69531 
L 105.862345 34.245434 
" clip-path="url(#p16d9dc48c1)" style="fill: none; stroke: #000000; stroke-linejoin: miter"/>
   </g>
  </g>
  <g id="axes_8">
   <g id="patch_8">
    <path d="M 115.184141 38.85304 
L 115.612335 38.85304 
Q 116.43304 38.85304 117.396476 38.745991 
Q 118.359912 38.638943 119.519604 38.460529 
Q 120.679295 38.282115 121.285903 38.210749 
L 127.815859 35.427489 
M 127.494714 25.793128 
Q 127.209251 25.721762 126.174449 25.275727 
Q 125.139648 24.829692 124.497357 24.93674 
Q 123.855066 24.93674 123.337665 25.150837 
Q 122.820264 25.364934 122.481278 25.793128 
Q 122.142291 26.221322 121.87467 26.685198 
Q 121.607048 27.149075 121.464317 27.862731 
Q 121.321586 28.576388 121.214537 29.129471 
Q 121.107489 29.682555 121.089648 30.50326 
Q 121.071806 31.323965 121.053965 31.77 
Q 121.036123 32.216035 121.053965 32.965374 
Q 121.071806 33.714714 121.071806 33.928811 
Q 121.071806 36.605022 121.767621 41.850396 
Q 122.463436 47.095771 122.463436 49.771982 
Q 122.39207 50.057445 122.356388 50.681894 
Q 122.320705 51.306344 122.213656 51.805903 
Q 122.106608 52.305463 121.821145 52.555242 
" clip-path="url(#p32d088865d)" style="fill: none; stroke: #000000; stroke-linejoin: miter"/>
   </g>
  </g>
  <g id="axes_9"/>
  <g id="axes_10">
   <g id="patch_9">
    <path d="M 149.063834 37.95691 
L 149.738648 37.95691 
Q 150.450952 37.95691 151.238234 37.881931 
Q 152.025517 37.806952 152.981503 37.675738 
Q 153.93749 37.544524 154.462345 37.507034 
L 158.736166 35.82 
M 154.687283 30.42149 
L 154.687283 31.43371 
Q 154.687283 33.383172 154.012469 37.207117 
Q 153.337655 41.031062 153.337655 43.018014 
Q 153.337655 43.805297 153.337655 44.105214 
Q 153.337655 44.405131 153.431379 45.042455 
Q 153.525103 45.679779 153.712552 45.960952 
Q 153.9 46.242124 154.293641 46.485807 
Q 154.687283 46.72949 155.249628 46.72949 
Q 155.362097 46.692 155.680759 46.72949 
Q 155.999421 46.766979 156.186869 46.710745 
Q 156.374317 46.65451 156.374317 46.392083 
" clip-path="url(#pb938aa4ef0)" style="fill: none; stroke: #000000; stroke-linejoin: miter"/>
   </g>
  </g>
  <g id="axes_11">
   <g id="patch_10">
    <path d="M 166.613462 35.932469 
Q 167.213297 35.257655 168.206772 34.826524 
Q 169.200248 34.395393 170.1 34.470372 
Q 170.737324 34.470372 171.22469 34.639076 
Q 171.712055 34.807779 172.030717 34.995228 
Q 172.349379 35.182676 172.574317 35.670041 
Q 172.799255 36.157407 172.911724 36.419834 
Q 173.024193 36.682262 173.080428 37.375821 
Q 173.136662 38.069379 173.155407 38.331807 
Q 173.174152 38.594234 173.155407 39.419007 
Q 173.136662 40.243779 173.136662 40.431228 
Q 173.136662 41.368469 172.967959 43.242952 
Q 172.799255 45.117434 172.799255 46.054676 
Q 172.799255 46.467062 172.85549 46.823214 
Q 172.911724 47.179366 173.005448 47.610497 
Q 173.099172 48.041628 173.136662 48.304055 
L 173.586538 48.528993 
M 167.063338 23.111007 
Q 167.288276 24.798041 167.288276 29.971614 
L 167.288276 42.3432 
L 166.950869 46.841959 
L 166.725931 47.74171 
" clip-path="url(#p9cb6a6fb3e)" style="fill: none; stroke: #000000; stroke-linejoin: miter"/>
   </g>
  </g>
  <g id="axes_12">
   <g id="patch_11">
    <path d="M 180.057798 38.160826 
Q 183.030275 39.535596 187.749083 39.721376 
Q 189.272477 39.721376 189.959862 38.550963 
Q 190.647248 37.38055 190.647248 35.82 
Q 190.647248 35.299817 190.554358 34.909679 
Q 190.461468 34.519541 190.219954 34.296606 
Q 189.97844 34.07367 189.811239 33.943624 
Q 189.644037 33.813578 189.198165 33.757844 
Q 188.752294 33.70211 188.547936 33.683532 
Q 188.343578 33.664954 187.767661 33.683532 
Q 187.191743 33.70211 186.968807 33.70211 
Q 184.925229 33.70211 183.438991 35.578486 
Q 181.952752 37.454862 181.952752 39.609908 
Q 181.952752 42.619541 183.884862 44.570229 
Q 185.816972 46.520917 188.863761 46.520917 
Q 191.018807 46.818165 192.542202 44.29156 
" clip-path="url(#pee3bd66ca9)" style="fill: none; stroke: #000000; stroke-linejoin: miter"/>
   </g>
  </g>
  <g id="axes_13"/>
  <g id="axes_14">
   <g id="patch_12">
    <path d="M 218.306359 28.621986 
Q 218.531297 30.34651 218.606276 32.146014 
Q 218.681255 33.945517 218.66251 36.551048 
Q 218.643766 39.156579 218.643766 40.093821 
Q 218.643766 40.13131 218.868703 45.829738 
L 219.093641 46.841959 
" clip-path="url(#pe9b93d87ba)" style="fill: none; stroke: #000000; stroke-linejoin: miter"/>
   </g>
  </g>
  <g id="axes_15">
   <g id="patch_13">
    <path d="M 235.518579 29.071862 
Q 235.143683 29.146841 235.012469 29.577972 
Q 234.881255 30.009103 234.956234 30.42149 
Q 234.956234 30.571448 234.993724 30.702662 
Q 235.031214 30.833876 235.087448 30.89011 
Q 235.143683 30.946345 235.199917 31.040069 
Q 235.256152 31.133793 235.293641 31.208772 
L 235.40611 29.859145 
M 235.40611 34.020497 
Q 234.506359 39.006621 234.281421 42.793076 
L 234.731297 45.379862 
L 235.068703 46.054676 
" clip-path="url(#p815b97d1dc)" style="fill: none; stroke: #000000; stroke-linejoin: miter"/>
   </g>
  </g>
  <g id="axes_16">
   <g id="patch_14">
    <path d="M 246.263834 37.95691 
L 246.938648 37.95691 
Q 247.650952 37.95691 248.438234 37.881931 
Q 249.225517 37.806952 250.181503 37.675738 
Q 251.13749 37.544524 251.662345 37.507034 
L 255.936166 35.82 
M 251.887283 30.42149 
L 251.887283 31.43371 
Q 251.887283 33.383172 251.212469 37.207117 
Q 250.537655 41.031062 250.537655 43.018014 
Q 250.537655 43.805297 250.537655 44.105214 
Q 250.537655 44.405131 250.631379 45.042455 
Q 250.725103 45.679779 250.912552 45.960952 
Q 251.1 46.242124 251.493641 46.485807 
Q 251.887283 46.72949 252.449628 46.72949 
Q 252.562097 46.692 252.880759 46.72949 
Q 253.199421 46.766979 253.386869 46.710745 
Q 253.574317 46.65451 253.574317 46.392083 
" clip-path="url(#pa00be061bd)" style="fill: none; stroke: #000000; stroke-linejoin: miter"/>
   </g>
  </g>
  <g id="axes_17">
   <g id="patch_15">
    <path d="M 262.463834 37.95691 
L 263.138648 37.95691 
Q 263.850952 37.95691 264.638234 37.881931 
Q 265.425517 37.806952 266.381503 37.675738 
Q 267.33749 37.544524 267.862345 37.507034 
L 272.136166 35.82 
M 268.087283 30.42149 
L 268.087283 31.43371 
Q 268.087283 33.383172 267.412469 37.207117 
Q 266.737655 41.031062 266.737655 43.018014 
Q 266.737655 43.805297 266.737655 44.105214 
Q 266.737655 44.405131 266.831379 45.042455 
Q 266.925103 45.679779 267.112552 45.960952 
Q 267.3 46.242124 267.693641 46.485807 
Q 268.087283 46.72949 268.649628 46.72949 
Q 268.762097 46.692 269.080759 46.72949 
Q 269.399421 46.766979 269.586869 46.710745 
Q 269.774317 46.65451 269.774317 46.392083 
" clip-path="url(#p2722cc7491)" style="fill: none; stroke: #000000; stroke-linejoin: miter"/>
   </g>
  </g>
  <g id="axes_18">
   <g id="patch_16">
    <path d="M 283.106359 28.621986 
Q 283.331297 30.34651 283.406276 32.146014 
Q 283.481255 33.945517 283.46251 36.551048 
Q 283.443766 39.156579 283.443766 40.093821 
Q 283.443766 40.13131 283.668703 45.829738 
L 283.893641 46.841959 
" clip-path="url(#p9b1780a11a)" style="fill: none; stroke: #000000; stroke-linejoin: miter"/>
   </g>
  </g>
  <g id="axes_19">
   <g id="patch_17">
    <path d="M 293.457798 38.160826 
Q 296.430275 39.535596 301.149083 39.721376 
Q 302.672477 39.721376 303.359862 38.550963 
Q 304.047248 37.38055 304.047248 35.82 
Q 304.047248 35.299817 303.954358 34.909679 
Q 303.861468 34.519541 303.619954 34.296606 
Q 303.37844 34.07367 303.211239 33.943624 
Q 303.044037 33.813578 302.598165 33.757844 
Q 302.152294 33.70211 301.947936 33.683532 
Q 301.743578 33.664954 301.167661 33.683532 
Q 300.591743 33.70211 300.368807 33.70211 
Q 298.325229 33.70211 296.838991 35.578486 
Q 295.352752 37.454862 295.352752 39.609908 
Q 295.352752 42.619541 297.284862 44.570229 
Q 299.216972 46.520917 302.263761 46.520917 
Q 304.418807 46.818165 305.942202 44.29156 
" clip-path="url(#p7a4fb56e79)" style="fill: none; stroke: #000000; stroke-linejoin: miter"/>
   </g>
  </g>
  <g id="axes_20"/>
  <g id="axes_21">
   <g id="patch_18">
    <path d="M 336.887191 39.096404 
Q 336.63236 39.023596 335.66764 38.623146 
Q 334.702921 38.222697 334.04764 38.077079 
Q 333.39236 37.931461 332.737079 38.00427 
Q 330.115955 38.00427 328.477753 40.388764 
Q 326.839551 42.773258 326.839551 45.430787 
Q 326.839551 47.068989 332.081798 47.068989 
Q 333.647191 47.068989 334.975955 45.558202 
Q 336.304719 44.047416 336.978202 42.172584 
Q 337.651685 40.297753 337.651685 38.768764 
Q 337.651685 37.27618 337.615281 36.984944 
L 337.542472 38.077079 
Q 337.542472 38.550337 337.542472 38.987191 
Q 337.578876 40.188539 337.779101 42.281798 
Q 337.979326 44.375056 338.143146 46.049663 
Q 338.306966 47.72427 338.343371 49.872135 
Q 338.379775 52.02 338.215955 53.658202 
Q 338.052135 55.296404 337.487865 56.971011 
Q 336.923596 58.645618 335.995281 59.737753 
Q 335.066966 60.829888 333.465169 61.521573 
Q 331.863371 62.213258 329.715506 62.213258 
Q 328.077303 62.213258 326.985169 61.466966 
Q 325.893034 60.720674 325.893034 59.155281 
Q 325.820225 58.936854 325.856629 58.936854 
Q 325.893034 58.936854 326.002247 58.936854 
Q 326.111461 58.936854 326.111461 58.82764 
" clip-path="url(#p99069f3dee)" style="fill: none; stroke: #000000; stroke-linejoin: miter"/>
   </g>
  </g>
  <g id="axes_22">
   <g id="patch_19">
    <path d="M 347.906359 28.621986 
Q 348.131297 30.34651 348.206276 32.146014 
Q 348.281255 33.945517 348.26251 36.551048 
Q 348.243766 39.156579 348.243766 40.093821 
Q 348.243766 40.13131 348.468703 45.829738 
L 348.693641 46.841959 
" clip-path="url(#p59c7b348dd)" style="fill: none; stroke: #000000; stroke-linejoin: miter"/>
   </g>
  </g>
  <g id="axes_23">
   <g id="patch_20">
    <path d="M 367.7616 35.032717 
Q 366.71189 34.582841 365.737159 34.69531 
Q 362.700497 35.032717 360.788524 36.701007 
Q 358.876552 38.369297 358.876552 41.330979 
Q 358.876552 43.917766 360.882248 45.6048 
Q 362.887945 47.291834 365.512221 47.291834 
Q 367.874069 47.291834 368.998759 45.361117 
Q 370.123448 43.4304 370.123448 40.881103 
Q 370.123448 39.643945 369.711062 38.706703 
Q 369.298676 37.769462 368.773821 37.300841 
Q 368.248966 36.832221 367.499172 36.119917 
Q 366.749379 35.407614 366.299503 34.69531 
L 365.062345 34.245434 
" clip-path="url(#p70cc820826)" style="fill: none; stroke: #000000; stroke-linejoin: miter"/>
   </g>
  </g>
  <g id="axes_24">
   <g id="patch_21">
    <path d="M 374.316102 36.437797 
L 375.551695 44.778051 
Q 375.654661 45.567458 375.654661 45.60178 
Q 375.654661 45.704746 375.963559 45.704746 
Q 376.82161 45.704746 377.542373 44.778051 
Q 378.263136 43.851356 378.675 42.718729 
Q 379.086864 41.586102 379.601695 40.659407 
Q 380.116525 39.732712 380.597034 39.732712 
Q 381.214831 39.732712 381.849788 40.607924 
Q 382.484746 41.483136 382.948093 42.512797 
Q 383.411441 43.542458 384.08072 44.417669 
Q 384.75 45.292881 385.436441 45.292881 
Q 385.711017 43.782712 386.140042 39.69839 
Q 386.569068 35.614068 387.083898 33.554746 
" clip-path="url(#pa95e011375)" style="fill: none; stroke: #000000; stroke-linejoin: miter"/>
   </g>
  </g>
  <g id="axes_25">
   <g id="patch_22">
    <path d="M 397.518579 29.071862 
Q 397.143683 29.146841 397.012469 29.577972 
Q 396.881255 30.009103 396.956234 30.42149 
Q 396.956234 30.571448 396.993724 30.702662 
Q 397.031214 30.833876 397.087448 30.89011 
Q 397.143683 30.946345 397.199917 31.040069 
Q 397.256152 31.133793 397.293641 31.208772 
L 397.40611 29.859145 
M 397.40611 34.020497 
Q 396.506359 39.006621 396.281421 42.793076 
L 396.731297 45.379862 
L 397.068703 46.054676 
" clip-path="url(#p0702577251)" style="fill: none; stroke: #000000; stroke-linejoin: miter"/>
   </g>
  </g>
  <g id="axes_26">
   <g id="patch_23">
    <path d="M 408.638731 37.282097 
L 408.638731 37.844441 
Q 408.901159 39.868883 408.938648 41.312234 
Q 408.976138 42.755586 408.882414 44.667559 
Q 408.78869 46.579531 408.78869 48.191586 
L 408.863669 39.643945 
Q 408.863669 38.144359 410.456979 37.507034 
Q 412.05029 36.86971 413.474897 37.282097 
Q 415.386869 37.844441 416.305366 39.04411 
Q 417.223862 40.243779 417.280097 41.668386 
Q 417.336331 43.092993 417.373821 44.817517 
Q 417.41131 46.542041 417.561269 48.191586 
" clip-path="url(#pe9a03385de)" style="fill: none; stroke: #000000; stroke-linejoin: miter"/>
   </g>
  </g>
  <g id="axes_27">
   <g id="patch_24">
    <path d="M 434.087191 39.096404 
Q 433.83236 39.023596 432.86764 38.623146 
Q 431.902921 38.222697 431.24764 38.077079 
Q 430.59236 37.931461 429.937079 38.00427 
Q 427.315955 38.00427 425.677753 40.388764 
Q 424.039551 42.773258 424.039551 45.430787 
Q 424.039551 47.068989 429.281798 47.068989 
Q 430.847191 47.068989 432.175955 45.558202 
Q 433.504719 44.047416 434.178202 42.172584 
Q 434.851685 40.297753 434.851685 38.768764 
Q 434.851685 37.27618 434.815281 36.984944 
L 434.742472 38.077079 
Q 434.742472 38.550337 434.742472 38.987191 
Q 434.778876 40.188539 434.979101 42.281798 
Q 435.179326 44.375056 435.343146 46.049663 
Q 435.506966 47.72427 435.543371 49.872135 
Q 435.579775 52.02 435.415955 53.658202 
Q 435.252135 55.296404 434.687865 56.971011 
Q 434.123596 58.645618 433.195281 59.737753 
Q 432.266966 60.829888 430.665169 61.521573 
Q 429.063371 62.213258 426.915506 62.213258 
Q 425.277303 62.213258 424.185169 61.466966 
Q 423.093034 60.720674 423.093034 59.155281 
Q 423.020225 58.936854 423.056629 58.936854 
Q 423.093034 58.936854 423.202247 58.936854 
Q 423.311461 58.936854 423.311461 58.82764 
" clip-path="url(#p3d3d4d79a4)" style="fill: none; stroke: #000000; stroke-linejoin: miter"/>
   </g>
  </g>
  <g id="axes_28"/>
  <g id="axes_29">
   <g id="patch_25">
    <path d="M 457.257476 43.917766 
Q 457.557393 44.180193 458.569614 45.154924 
Q 459.581834 46.129655 460.144179 46.560786 
Q 460.706524 46.991917 461.73749 47.385559 
Q 462.768455 47.7792 463.780676 47.629241 
Q 464.45549 47.629241 464.92411 47.404303 
Q 465.392731 47.179366 465.617669 46.879448 
Q 465.842607 46.579531 465.973821 45.979697 
Q 466.105034 45.379862 466.123779 44.967476 
Q 466.142524 44.55509 466.142524 43.805297 
Q 466.142524 42.718097 465.242772 42.043283 
Q 464.343021 41.368469 463.049628 41.031062 
Q 461.756234 40.693655 460.462841 40.300014 
Q 459.169448 39.906372 458.269697 38.987876 
Q 457.369945 38.069379 457.369945 36.607283 
Q 457.369945 36.082428 457.538648 35.726276 
Q 457.707352 35.370124 458.100993 35.145186 
Q 458.494634 34.920248 458.775807 34.807779 
Q 459.056979 34.69531 459.713048 34.639076 
Q 460.369117 34.582841 460.556566 34.582841 
Q 460.744014 34.582841 461.418828 34.582841 
Q 462.618497 34.582841 463.199586 34.995228 
Q 463.780676 35.407614 464.099338 36.026193 
Q 464.418 36.644772 464.680428 36.832221 
" clip-path="url(#p552deb836a)" style="fill: none; stroke: #000000; stroke-linejoin: miter"/>
   </g>
  </g>
  <g id="axes_30">
   <g id="patch_26">
    <path d="M 473.063834 37.95691 
L 473.738648 37.95691 
Q 474.450952 37.95691 475.238234 37.881931 
Q 476.025517 37.806952 476.981503 37.675738 
Q 477.93749 37.544524 478.462345 37.507034 
L 482.736166 35.82 
M 478.687283 30.42149 
L 478.687283 31.43371 
Q 478.687283 33.383172 478.012469 37.207117 
Q 477.337655 41.031062 477.337655 43.018014 
Q 477.337655 43.805297 477.337655 44.105214 
Q 477.337655 44.405131 477.431379 45.042455 
Q 477.525103 45.679779 477.712552 45.960952 
Q 477.9 46.242124 478.293641 46.485807 
Q 478.687283 46.72949 479.249628 46.72949 
Q 479.362097 46.692 479.680759 46.72949 
Q 479.999421 46.766979 480.186869 46.710745 
Q 480.374317 46.65451 480.374317 46.392083 
" clip-path="url(#p53a06d655e)" style="fill: none; stroke: #000000; stroke-linejoin: miter"/>
   </g>
  </g>
  <g id="axes_31">
   <g id="patch_27">
    <path d="M 499.643923 36.441748 
Q 498.434968 35.094627 494.462687 35.094627 
Q 492.942857 35.094627 492.165672 35.146439 
Q 491.388486 35.198252 490.38678 35.440043 
Q 489.385075 35.681834 488.901493 36.182687 
Q 488.41791 36.683539 488.072495 37.616162 
Q 487.727079 38.548785 487.727079 39.964989 
Q 487.727079 42.037484 489.143284 43.280981 
Q 490.559488 44.524478 492.493817 44.524478 
Q 495.153518 44.524478 497.916844 38.721493 
Q 499.263966 35.854542 499.263966 35.82 
Q 499.609382 35.578209 499.643923 36.441748 
Q 499.643923 37.512537 500.058422 40.362217 
Q 500.472921 43.211898 500.472921 44.524478 
" clip-path="url(#pe860b1a47a)" style="fill: none; stroke: #000000; stroke-linejoin: miter"/>
   </g>
  </g>
  <g id="axes_32">
   <g id="patch_28">
    <path d="M 506.813462 32.783338 
Q 507.338317 34.507862 507.469531 36.457324 
Q 507.600745 38.406786 507.525766 40.956083 
Q 507.450786 43.505379 507.488276 44.705048 
L 507.600745 46.054676 
L 507.600745 45.829738 
Q 507.600745 44.667559 507.319572 42.30571 
Q 507.0384 39.943862 507.0384 38.744193 
Q 507.0384 36.419834 508.050621 34.882759 
Q 509.062841 33.345683 511.087283 33.345683 
Q 511.799586 33.345683 512.136993 33.626855 
Q 512.4744 33.908028 512.736828 34.432883 
Q 512.999255 34.957738 513.336662 35.257655 
L 513.786538 36.832221 
" clip-path="url(#p0f99af0bf6)" style="fill: none; stroke: #000000; stroke-linejoin: miter"/>
   </g>
  </g>
  <g id="axes_33"/>
  <g id="axes_34">
   <g id="patch_29">
    <path d="M 537.863834 37.95691 
L 538.538648 37.95691 
Q 539.250952 37.95691 540.038234 37.881931 
Q 540.825517 37.806952 541.781503 37.675738 
Q 542.73749 37.544524 543.262345 37.507034 
L 547.536166 35.82 
M 543.487283 30.42149 
L 543.487283 31.43371 
Q 543.487283 33.383172 542.812469 37.207117 
Q 542.137655 41.031062 542.137655 43.018014 
Q 542.137655 43.805297 542.137655 44.105214 
Q 542.137655 44.405131 542.231379 45.042455 
Q 542.325103 45.679779 542.512552 45.960952 
Q 542.7 46.242124 543.093641 46.485807 
Q 543.487283 46.72949 544.049628 46.72949 
Q 544.162097 46.692 544.480759 46.72949 
Q 544.799421 46.766979 544.986869 46.710745 
Q 545.174317 46.65451 545.174317 46.392083 
" clip-path="url(#pdc777bab92)" style="fill: none; stroke: #000000; stroke-linejoin: miter"/>
   </g>
  </g>
  <g id="axes_35">
   <g id="patch_30">
    <path d="M 555.413462 35.932469 
Q 556.013297 35.257655 557.006772 34.826524 
Q 558.000248 34.395393 558.9 34.470372 
Q 559.537324 34.470372 560.02469 34.639076 
Q 560.512055 34.807779 560.830717 34.995228 
Q 561.149379 35.182676 561.374317 35.670041 
Q 561.599255 36.157407 561.711724 36.419834 
Q 561.824193 36.682262 561.880428 37.375821 
Q 561.936662 38.069379 561.955407 38.331807 
Q 561.974152 38.594234 561.955407 39.419007 
Q 561.936662 40.243779 561.936662 40.431228 
Q 561.936662 41.368469 561.767959 43.242952 
Q 561.599255 45.117434 561.599255 46.054676 
Q 561.599255 46.467062 561.65549 46.823214 
Q 561.711724 47.179366 561.805448 47.610497 
Q 561.899172 48.041628 561.936662 48.304055 
L 562.386538 48.528993 
M 555.863338 23.111007 
Q 556.088276 24.798041 556.088276 29.971614 
L 556.088276 42.3432 
L 555.750869 46.841959 
L 555.525931 47.74171 
" clip-path="url(#p1b23cc6cec)" style="fill: none; stroke: #000000; stroke-linejoin: miter"/>
   </g>
  </g>
  <g id="axes_36">
   <g id="patch_31">
    <path d="M 568.857798 38.160826 
Q 571.830275 39.535596 576.549083 39.721376 
Q 578.072477 39.721376 578.759862 38.550963 
Q 579.447248 37.38055 579.447248 35.82 
Q 579.447248 35.299817 579.354358 34.909679 
Q 579.261468 34.519541 579.019954 34.296606 
Q 578.77844 34.07367 578.611239 33.943624 
Q 578.444037 33.813578 577.998165 33.757844 
Q 577.552294 33.70211 577.347936 33.683532 
Q 577.143578 33.664954 576.567661 33.683532 
Q 575.991743 33.70211 575.768807 33.70211 
Q 573.725229 33.70211 572.238991 35.578486 
Q 570.752752 37.454862 570.752752 39.609908 
Q 570.752752 42.619541 572.684862 44.570229 
Q 574.616972 46.520917 577.663761 46.520917 
Q 579.818807 46.818165 581.342202 44.29156 
" clip-path="url(#p9af93e2a1a)" style="fill: none; stroke: #000000; stroke-linejoin: miter"/>
   </g>
  </g>
  <g id="axes_37"/>
  <g id="axes_38">
   <g id="patch_32">
    <path d="M 602.663834 37.95691 
L 603.338648 37.95691 
Q 604.050952 37.95691 604.838234 37.881931 
Q 605.625517 37.806952 606.581503 37.675738 
Q 607.53749 37.544524 608.062345 37.507034 
L 612.336166 35.82 
M 608.287283 30.42149 
L 608.287283 31.43371 
Q 608.287283 33.383172 607.612469 37.207117 
Q 606.937655 41.031062 606.937655 43.018014 
Q 606.937655 43.805297 606.937655 44.105214 
Q 606.937655 44.405131 607.031379 45.042455 
Q 607.125103 45.679779 607.312552 45.960952 
Q 607.5 46.242124 607.893641 46.485807 
Q 608.287283 46.72949 608.849628 46.72949 
Q 608.962097 46.692 609.280759 46.72949 
Q 609.599421 46.766979 609.786869 46.710745 
Q 609.974317 46.65451 609.974317 46.392083 
" clip-path="url(#peb4f0c7016)" style="fill: none; stroke: #000000; stroke-linejoin: miter"/>
   </g>
  </g>
  <g id="axes_39">
   <g id="patch_33">
    <path d="M 619.088772 35.145186 
Q 619.088772 35.145186 619.088772 35.595062 
Q 619.088772 36.269876 618.976303 37.619503 
Q 618.863834 38.969131 618.863834 39.643945 
Q 618.863834 41.930814 620.100993 43.599103 
Q 621.338152 45.267393 623.475062 45.267393 
Q 624.862179 45.154924 625.630717 43.917766 
Q 626.399255 42.680607 626.549214 41.237255 
Q 626.699172 39.793903 626.9616 37.9944 
Q 627.224028 36.194897 627.636414 35.370124 
Q 627.786372 35.070207 627.786372 35.670041 
Q 627.786372 36.269876 627.523945 38.706703 
Q 627.299007 41.031062 627.299007 41.555917 
Q 627.149048 42.643117 627.486455 43.767807 
Q 627.823862 44.892497 628.536166 45.6048 
" clip-path="url(#p16294fa781)" style="fill: none; stroke: #000000; stroke-linejoin: miter"/>
   </g>
  </g>
  <g id="axes_40">
   <g id="patch_34">
    <path d="M 635.438731 37.282097 
L 635.438731 37.844441 
Q 635.701159 39.868883 635.738648 41.312234 
Q 635.776138 42.755586 635.682414 44.667559 
Q 635.58869 46.579531 635.58869 48.191586 
L 635.663669 39.643945 
Q 635.663669 38.144359 637.256979 37.507034 
Q 638.85029 36.86971 640.274897 37.282097 
Q 642.186869 37.844441 643.105366 39.04411 
Q 644.023862 40.243779 644.080097 41.668386 
Q 644.136331 43.092993 644.173821 44.817517 
Q 644.21131 46.542041 644.361269 48.191586 
" clip-path="url(#p1e59449746)" style="fill: none; stroke: #000000; stroke-linejoin: miter"/>
   </g>
  </g>
  <g id="axes_41">
   <g id="patch_35">
    <path d="M 651.638731 37.282097 
L 651.638731 37.844441 
Q 651.901159 39.868883 651.938648 41.312234 
Q 651.976138 42.755586 651.882414 44.667559 
Q 651.78869 46.579531 651.78869 48.191586 
L 651.863669 39.643945 
Q 651.863669 38.144359 653.456979 37.507034 
Q 655.05029 36.86971 656.474897 37.282097 
Q 658.386869 37.844441 659.305366 39.04411 
Q 660.223862 40.243779 660.280097 41.668386 
Q 660.336331 43.092993 660.373821 44.817517 
Q 660.41131 46.542041 660.561269 48.191586 
" clip-path="url(#pde23455841)" style="fill: none; stroke: #000000; stroke-linejoin: miter"/>
   </g>
  </g>
  <g id="axes_42">
   <g id="patch_36">
    <path d="M 666.057798 38.160826 
Q 669.030275 39.535596 673.749083 39.721376 
Q 675.272477 39.721376 675.959862 38.550963 
Q 676.647248 37.38055 676.647248 35.82 
Q 676.647248 35.299817 676.554358 34.909679 
Q 676.461468 34.519541 676.219954 34.296606 
Q 675.97844 34.07367 675.811239 33.943624 
Q 675.644037 33.813578 675.198165 33.757844 
Q 674.752294 33.70211 674.547936 33.683532 
Q 674.343578 33.664954 673.767661 33.683532 
Q 673.191743 33.70211 672.968807 33.70211 
Q 670.925229 33.70211 669.438991 35.578486 
Q 667.952752 37.454862 667.952752 39.609908 
Q 667.952752 42.619541 669.884862 44.570229 
Q 671.816972 46.520917 674.863761 46.520917 
Q 677.018807 46.818165 678.542202 44.29156 
" clip-path="url(#p5a5b551e04)" style="fill: none; stroke: #000000; stroke-linejoin: miter"/>
   </g>
  </g>
  <g id="axes_43">
   <g id="patch_37">
    <path d="M 688.106359 28.621986 
Q 688.331297 30.34651 688.406276 32.146014 
Q 688.481255 33.945517 688.46251 36.551048 
Q 688.443766 39.156579 688.443766 40.093821 
Q 688.443766 40.13131 688.668703 45.829738 
L 688.893641 46.841959 
" clip-path="url(#p7647596d53)" style="fill: none; stroke: #000000; stroke-linejoin: miter"/>
   </g>
  </g>
 </g>
 <defs>
  <clipPath id="p4f91014847">
   <rect x="5.831876" y="8.64" width="4.536248" height="54.36"/>
  </clipPath>
  <clipPath id="pac374aea2c">
   <rect x="21.806938" y="8.64" width="4.986124" height="54.36"/>
  </clipPath>
  <clipPath id="pc39451c261">
   <rect x="32.4" y="9.426742" width="16.2" height="52.786517"/>
  </clipPath>
  <clipPath id="pe827ed245c">
   <rect x="51.338979" y="8.64" width="10.722041" height="54.36"/>
  </clipPath>
  <clipPath id="p5c14c18a2e">
   <rect x="66.189352" y="8.64" width="13.421297" height="54.36"/>
  </clipPath>
  <clipPath id="p16d9dc48c1">
   <rect x="97.802069" y="8.64" width="14.995862" height="54.36"/>
  </clipPath>
  <clipPath id="p32d088865d">
   <rect x="113.4" y="9.949956" width="16.2" height="51.740088"/>
  </clipPath>
  <clipPath id="pb938aa4ef0">
   <rect x="147.189352" y="8.64" width="13.421297" height="54.36"/>
  </clipPath>
  <clipPath id="p9cb6a6fb3e">
   <rect x="164.738979" y="8.64" width="10.722041" height="54.36"/>
  </clipPath>
  <clipPath id="pee3bd66ca9">
   <rect x="178.2" y="8.881927" width="16.2" height="53.876147"/>
  </clipPath>
  <clipPath id="pe9b93d87ba">
   <rect x="216.431876" y="8.64" width="4.536248" height="54.36"/>
  </clipPath>
  <clipPath id="p815b97d1dc">
   <rect x="232.406938" y="8.64" width="4.986124" height="54.36"/>
  </clipPath>
  <clipPath id="pa00be061bd">
   <rect x="244.389352" y="8.64" width="13.421297" height="54.36"/>
  </clipPath>
  <clipPath id="p2722cc7491">
   <rect x="260.589352" y="8.64" width="13.421297" height="54.36"/>
  </clipPath>
  <clipPath id="p9b1780a11a">
   <rect x="281.231876" y="8.64" width="4.536248" height="54.36"/>
  </clipPath>
  <clipPath id="p7a4fb56e79">
   <rect x="291.6" y="8.881927" width="16.2" height="53.876147"/>
  </clipPath>
  <clipPath id="p99069f3dee">
   <rect x="324" y="9.426742" width="16.2" height="52.786517"/>
  </clipPath>
  <clipPath id="p59c7b348dd">
   <rect x="346.031876" y="8.64" width="4.536248" height="54.36"/>
  </clipPath>
  <clipPath id="p70cc820826">
   <rect x="357.002069" y="8.64" width="14.995862" height="54.36"/>
  </clipPath>
  <clipPath id="pa95e011375">
   <rect x="372.6" y="10.936525" width="16.2" height="49.766949"/>
  </clipPath>
  <clipPath id="p0702577251">
   <rect x="394.406938" y="8.64" width="4.986124" height="54.36"/>
  </clipPath>
  <clipPath id="pe9a03385de">
   <rect x="406.764248" y="8.64" width="12.671503" height="54.36"/>
  </clipPath>
  <clipPath id="p3d3d4d79a4">
   <rect x="421.2" y="9.426742" width="16.2" height="52.786517"/>
  </clipPath>
  <clipPath id="p552deb836a">
   <rect x="455.382993" y="8.64" width="12.634014" height="54.36"/>
  </clipPath>
  <clipPath id="p53a06d655e">
   <rect x="471.189352" y="8.64" width="13.421297" height="54.36"/>
  </clipPath>
  <clipPath id="pe860b1a47a">
   <rect x="486" y="10.777356" width="16.2" height="50.085288"/>
  </clipPath>
  <clipPath id="p0f99af0bf6">
   <rect x="504.938979" y="8.64" width="10.722041" height="54.36"/>
  </clipPath>
  <clipPath id="pdc777bab92">
   <rect x="535.989352" y="8.64" width="13.421297" height="54.36"/>
  </clipPath>
  <clipPath id="p1b23cc6cec">
   <rect x="553.538979" y="8.64" width="10.722041" height="54.36"/>
  </clipPath>
  <clipPath id="p9af93e2a1a">
   <rect x="567" y="8.881927" width="16.2" height="53.876147"/>
  </clipPath>
  <clipPath id="peb4f0c7016">
   <rect x="600.789352" y="8.64" width="13.421297" height="54.36"/>
  </clipPath>
  <clipPath id="p16294fa781">
   <rect x="616.989352" y="8.64" width="13.421297" height="54.36"/>
  </clipPath>
  <clipPath id="p1e59449746">
   <rect x="633.564248" y="8.64" width="12.671503" height="54.36"/>
  </clipPath>
  <clipPath id="pde23455841">
   <rect x="649.764248" y="8.64" width="12.671503" height="54.36"/>
  </clipPath>
  <clipPath id="p5a5b551e04">
   <rect x="664.2" y="8.881927" width="16.2" height="53.876147"/>
  </clipPath>
  <clipPath id="p7647596d53">
   <rect x="686.231876" y="8.64" width="4.536248" height="54.36"/>
  </clipPath>
 </defs>
</svg>
