<?xml version="1.0" encoding="utf-8" standalone="no"?>
<!DOCTYPE svg PUBLIC "-//W3C//DTD SVG 1.1//EN"
  "http://www.w3.org/Graphics/SVG/1.1/DTD/svg11.dtd">
<svg xmlns:xlink="http://www.w3.org/1999/xlink" width="648pt" height="72pt" viewBox="0 0 648 72" xmlns="http://www.w3.org/2000/svg" version="1.1">
 <metadata>
  <rdf:RDF xmlns:dc="http://purl.org/dc/elements/1.1/" xmlns:cc="http://creativecommons.org/ns#" xmlns:rdf="http://www.w3.org/1999/02/22-rdf-syntax-ns#">
   <cc:Work>
    <dc:type rdf:resource="http://purl.org/dc/dcmitype/StillImage"/>
    <dc:date>2024-01-04T18:45:52.087391</dc:date>
    <dc:format>image/svg+xml</dc:format>
    <dc:creator>
     <cc:Agent>
      <dc:title>Matplotlib v3.7.1, https://matplotlib.org/</dc:title>
     </cc:Agent>
    </dc:creator>
   </cc:Work>
  </rdf:RDF>
 </metadata>
 <defs>
  <style type="text/css">*{stroke-linejoin: round; stroke-linecap: butt}</style>
 </defs>
 <g id="figure_1">
  <g id="patch_1">
   <path d="M 0 72 
L 648 72 
L 648 0 
L 0 0 
z
" style="fill: #8fff9f"/>
  </g>
  <g id="axes_1">
   <g id="patch_2">
    <path d="M 7.706359 28.621986 
Q 7.931297 30.34651 8.006276 32.146014 
Q 8.081255 33.945517 8.06251 36.551048 
Q 8.043766 39.156579 8.043766 40.093821 
Q 8.043766 40.13131 8.268703 45.829738 
L 8.493641 46.841959 
" clip-path="url(#p5de53f6bc6)" style="fill: none; stroke: #000000; stroke-linejoin: miter"/>
   </g>
  </g>
  <g id="axes_2">
   <g id="patch_3">
    <path d="M 29.843923 36.441748 
Q 28.634968 35.094627 24.662687 35.094627 
Q 23.142857 35.094627 22.365672 35.146439 
Q 21.588486 35.198252 20.58678 35.440043 
Q 19.585075 35.681834 19.101493 36.182687 
Q 18.61791 36.683539 18.272495 37.616162 
Q 17.927079 38.548785 17.927079 39.964989 
Q 17.927079 42.037484 19.343284 43.280981 
Q 20.759488 44.524478 22.693817 44.524478 
Q 25.353518 44.524478 28.116844 38.721493 
Q 29.463966 35.854542 29.463966 35.82 
Q 29.809382 35.578209 29.843923 36.441748 
Q 29.843923 37.512537 30.258422 40.362217 
Q 30.672921 43.211898 30.672921 44.524478 
" clip-path="url(#pef88595fd7)" style="fill: none; stroke: #000000; stroke-linejoin: miter"/>
   </g>
  </g>
  <g id="axes_3">
   <g id="patch_4">
    <path d="M 44.099007 39.568966 
Q 42.749379 38.181848 40.5 38.444276 
Q 37.650786 38.444276 36.488607 39.793903 
Q 35.326428 41.143531 35.326428 44.067724 
Q 35.326428 45.56731 36.619821 46.279614 
Q 37.913214 46.991917 39.487779 46.991917 
Q 40.799917 46.991917 41.812138 45.736014 
Q 42.824359 44.48011 43.405448 42.30571 
Q 43.986538 40.13131 44.361434 37.938166 
Q 44.736331 35.745021 44.88629 33.045766 
Q 45.036248 30.34651 45.073738 28.978138 
Q 45.111228 27.609766 45.111228 26.185159 
Q 44.88629 26.260138 44.88629 29.896634 
L 44.88629 44.292662 
L 45.673572 48.229076 
" clip-path="url(#peb6b5c5988)" style="fill: none; stroke: #000000; stroke-linejoin: miter"/>
   </g>
  </g>
  <g id="axes_4">
   <g id="patch_5">
    <path d="M 51.563917 36.382345 
Q 51.526428 36.494814 51.657641 36.701007 
Q 51.788855 36.9072 51.676386 37.057159 
L 51.676386 39.306538 
Q 51.676386 40.506207 52.013793 41.724621 
Q 52.3512 42.943034 53.213462 43.93651 
Q 54.075724 44.929986 55.275393 44.929986 
Q 56.512552 44.929986 57.187366 43.861531 
Q 57.862179 42.793076 58.312055 41.143531 
Q 58.761931 39.493986 59.099338 38.969131 
L 59.886621 36.382345 
L 59.661683 42.680607 
L 59.661683 45.154924 
Q 59.661683 47.066897 60.392731 51.00331 
Q 61.123779 54.939724 61.123779 56.964166 
Q 61.873572 59.213545 60.786372 60.188276 
Q 59.699172 61.163007 57.637241 60.78811 
Q 55.837738 60.488193 54.919241 60.169531 
Q 54.000745 59.850869 52.013793 58.988607 
L 51.901324 58.426262 
" clip-path="url(#p3ada27b2cc)" style="fill: none; stroke: #000000; stroke-linejoin: miter"/>
   </g>
  </g>
  <g id="axes_5"/>
  <g id="axes_6">
   <g id="patch_6">
    <path d="M 84.320069 39.868883 
L 84.320069 39.419007 
Q 84.320069 37.769462 86.063338 36.682262 
Q 87.806607 35.595062 89.493641 35.595062 
Q 91.705531 35.595062 93.073903 36.794731 
Q 94.442276 37.9944 94.442276 40.20629 
Q 94.442276 42.30571 92.624028 43.336676 
Q 90.805779 44.367641 88.59389 44.367641 
Q 87.919076 44.367641 87.412966 44.255172 
Q 86.906855 44.142703 86.288276 43.917766 
Q 85.669697 43.692828 85.219821 43.580359 
L 84.095131 42.568138 
M 83.757724 36.832221 
Q 84.2076 38.444276 84.470028 40.262524 
Q 84.732455 42.080772 84.78869 43.749062 
Q 84.844924 45.417352 84.882414 47.27309 
Q 84.919903 49.128828 84.882414 50.778372 
L 84.769945 57.863917 
" clip-path="url(#p7fad76a896)" style="fill: none; stroke: #000000; stroke-linejoin: miter"/>
   </g>
  </g>
  <g id="axes_7">
   <g id="patch_7">
    <path d="M 110.843923 36.441748 
Q 109.634968 35.094627 105.662687 35.094627 
Q 104.142857 35.094627 103.365672 35.146439 
Q 102.588486 35.198252 101.58678 35.440043 
Q 100.585075 35.681834 100.101493 36.182687 
Q 99.61791 36.683539 99.272495 37.616162 
Q 98.927079 38.548785 98.927079 39.964989 
Q 98.927079 42.037484 100.343284 43.280981 
Q 101.759488 44.524478 103.693817 44.524478 
Q 106.353518 44.524478 109.116844 38.721493 
Q 110.463966 35.854542 110.463966 35.82 
Q 110.809382 35.578209 110.843923 36.441748 
Q 110.843923 37.512537 111.258422 40.362217 
Q 111.672921 43.211898 111.672921 44.524478 
" clip-path="url(#pbe7775d98c)" style="fill: none; stroke: #000000; stroke-linejoin: miter"/>
   </g>
  </g>
  <g id="axes_8">
   <g id="patch_8">
    <path d="M 117.057476 43.917766 
Q 117.357393 44.180193 118.369614 45.154924 
Q 119.381834 46.129655 119.944179 46.560786 
Q 120.506524 46.991917 121.53749 47.385559 
Q 122.568455 47.7792 123.580676 47.629241 
Q 124.25549 47.629241 124.72411 47.404303 
Q 125.192731 47.179366 125.417669 46.879448 
Q 125.642607 46.579531 125.773821 45.979697 
Q 125.905034 45.379862 125.923779 44.967476 
Q 125.942524 44.55509 125.942524 43.805297 
Q 125.942524 42.718097 125.042772 42.043283 
Q 124.143021 41.368469 122.849628 41.031062 
Q 121.556234 40.693655 120.262841 40.300014 
Q 118.969448 39.906372 118.069697 38.987876 
Q 117.169945 38.069379 117.169945 36.607283 
Q 117.169945 36.082428 117.338648 35.726276 
Q 117.507352 35.370124 117.900993 35.145186 
Q 118.294634 34.920248 118.575807 34.807779 
Q 118.856979 34.69531 119.513048 34.639076 
Q 120.169117 34.582841 120.356566 34.582841 
Q 120.544014 34.582841 121.218828 34.582841 
Q 122.418497 34.582841 122.999586 34.995228 
Q 123.580676 35.407614 123.899338 36.026193 
Q 124.218 36.644772 124.480428 36.832221 
" clip-path="url(#p8eb2a467f1)" style="fill: none; stroke: #000000; stroke-linejoin: miter"/>
   </g>
  </g>
  <g id="axes_9">
   <g id="patch_9">
    <path d="M 132.863834 37.95691 
L 133.538648 37.95691 
Q 134.250952 37.95691 135.038234 37.881931 
Q 135.825517 37.806952 136.781503 37.675738 
Q 137.73749 37.544524 138.262345 37.507034 
L 142.536166 35.82 
M 138.487283 30.42149 
L 138.487283 31.43371 
Q 138.487283 33.383172 137.812469 37.207117 
Q 137.137655 41.031062 137.137655 43.018014 
Q 137.137655 43.805297 137.137655 44.105214 
Q 137.137655 44.405131 137.231379 45.042455 
Q 137.325103 45.679779 137.512552 45.960952 
Q 137.7 46.242124 138.093641 46.485807 
Q 138.487283 46.72949 139.049628 46.72949 
Q 139.162097 46.692 139.480759 46.72949 
Q 139.799421 46.766979 139.986869 46.710745 
Q 140.174317 46.65451 140.174317 46.392083 
" clip-path="url(#pbbb5b8819f)" style="fill: none; stroke: #000000; stroke-linejoin: miter"/>
   </g>
  </g>
  <g id="axes_10"/>
  <g id="axes_11">
   <g id="patch_10">
    <path d="M 165.263834 37.95691 
L 165.938648 37.95691 
Q 166.650952 37.95691 167.438234 37.881931 
Q 168.225517 37.806952 169.181503 37.675738 
Q 170.13749 37.544524 170.662345 37.507034 
L 174.936166 35.82 
M 170.887283 30.42149 
L 170.887283 31.43371 
Q 170.887283 33.383172 170.212469 37.207117 
Q 169.537655 41.031062 169.537655 43.018014 
Q 169.537655 43.805297 169.537655 44.105214 
Q 169.537655 44.405131 169.631379 45.042455 
Q 169.725103 45.679779 169.912552 45.960952 
Q 170.1 46.242124 170.493641 46.485807 
Q 170.887283 46.72949 171.449628 46.72949 
Q 171.562097 46.692 171.880759 46.72949 
Q 172.199421 46.766979 172.386869 46.710745 
Q 172.574317 46.65451 172.574317 46.392083 
" clip-path="url(#pa627826aac)" style="fill: none; stroke: #000000; stroke-linejoin: miter"/>
   </g>
  </g>
  <g id="axes_12">
   <g id="patch_11">
    <path d="M 182.813462 35.932469 
Q 183.413297 35.257655 184.406772 34.826524 
Q 185.400248 34.395393 186.3 34.470372 
Q 186.937324 34.470372 187.42469 34.639076 
Q 187.912055 34.807779 188.230717 34.995228 
Q 188.549379 35.182676 188.774317 35.670041 
Q 188.999255 36.157407 189.111724 36.419834 
Q 189.224193 36.682262 189.280428 37.375821 
Q 189.336662 38.069379 189.355407 38.331807 
Q 189.374152 38.594234 189.355407 39.419007 
Q 189.336662 40.243779 189.336662 40.431228 
Q 189.336662 41.368469 189.167959 43.242952 
Q 188.999255 45.117434 188.999255 46.054676 
Q 188.999255 46.467062 189.05549 46.823214 
Q 189.111724 47.179366 189.205448 47.610497 
Q 189.299172 48.041628 189.336662 48.304055 
L 189.786538 48.528993 
M 183.263338 23.111007 
Q 183.488276 24.798041 183.488276 29.971614 
L 183.488276 42.3432 
L 183.150869 46.841959 
L 182.925931 47.74171 
" clip-path="url(#p1e6eaec747)" style="fill: none; stroke: #000000; stroke-linejoin: miter"/>
   </g>
  </g>
  <g id="axes_13">
   <g id="patch_12">
    <path d="M 196.257798 38.160826 
Q 199.230275 39.535596 203.949083 39.721376 
Q 205.472477 39.721376 206.159862 38.550963 
Q 206.847248 37.38055 206.847248 35.82 
Q 206.847248 35.299817 206.754358 34.909679 
Q 206.661468 34.519541 206.419954 34.296606 
Q 206.17844 34.07367 206.011239 33.943624 
Q 205.844037 33.813578 205.398165 33.757844 
Q 204.952294 33.70211 204.747936 33.683532 
Q 204.543578 33.664954 203.967661 33.683532 
Q 203.391743 33.70211 203.168807 33.70211 
Q 201.125229 33.70211 199.638991 35.578486 
Q 198.152752 37.454862 198.152752 39.609908 
Q 198.152752 42.619541 200.084862 44.570229 
Q 202.016972 46.520917 205.063761 46.520917 
Q 207.218807 46.818165 208.742202 44.29156 
" clip-path="url(#p9f52022d5a)" style="fill: none; stroke: #000000; stroke-linejoin: miter"/>
   </g>
  </g>
  <g id="axes_14"/>
  <g id="axes_15">
   <g id="patch_13">
    <path d="M 228.264738 44.637722 
Q 228.264738 44.637722 231.955877 44.637722 
Q 231.985172 44.637722 241.535262 44.901374 
M 229.583002 37.431212 
L 230.37396 37.431212 
Q 230.403255 37.431212 232.571067 37.343327 
L 237.316817 36.552369 
M 230.198192 28.818553 
Q 231.399277 28.379132 233.816094 28.364485 
Q 236.232911 28.349837 237.316817 28.027595 
L 241.095841 27.939711 
M 229.583002 28.994322 
L 229.583002 29.17009 
Q 229.583002 29.78528 229.729476 30.752007 
Q 229.875949 31.718734 230.09566 32.846582 
Q 230.315371 33.97443 230.37396 34.355262 
L 230.461844 45.077143 
" clip-path="url(#pe4f19eb3ce)" style="fill: none; stroke: #000000; stroke-linejoin: miter"/>
   </g>
  </g>
  <g id="axes_16">
   <g id="patch_14">
    <path d="M 256.643923 36.441748 
Q 255.434968 35.094627 251.462687 35.094627 
Q 249.942857 35.094627 249.165672 35.146439 
Q 248.388486 35.198252 247.38678 35.440043 
Q 246.385075 35.681834 245.901493 36.182687 
Q 245.41791 36.683539 245.072495 37.616162 
Q 244.727079 38.548785 244.727079 39.964989 
Q 244.727079 42.037484 246.143284 43.280981 
Q 247.559488 44.524478 249.493817 44.524478 
Q 252.153518 44.524478 254.916844 38.721493 
Q 256.263966 35.854542 256.263966 35.82 
Q 256.609382 35.578209 256.643923 36.441748 
Q 256.643923 37.512537 257.058422 40.362217 
Q 257.472921 43.211898 257.472921 44.524478 
" clip-path="url(#pcd8553d8d9)" style="fill: none; stroke: #000000; stroke-linejoin: miter"/>
   </g>
  </g>
  <g id="axes_17">
   <g id="patch_15">
    <path d="M 262.857476 43.917766 
Q 263.157393 44.180193 264.169614 45.154924 
Q 265.181834 46.129655 265.744179 46.560786 
Q 266.306524 46.991917 267.33749 47.385559 
Q 268.368455 47.7792 269.380676 47.629241 
Q 270.05549 47.629241 270.52411 47.404303 
Q 270.992731 47.179366 271.217669 46.879448 
Q 271.442607 46.579531 271.573821 45.979697 
Q 271.705034 45.379862 271.723779 44.967476 
Q 271.742524 44.55509 271.742524 43.805297 
Q 271.742524 42.718097 270.842772 42.043283 
Q 269.943021 41.368469 268.649628 41.031062 
Q 267.356234 40.693655 266.062841 40.300014 
Q 264.769448 39.906372 263.869697 38.987876 
Q 262.969945 38.069379 262.969945 36.607283 
Q 262.969945 36.082428 263.138648 35.726276 
Q 263.307352 35.370124 263.700993 35.145186 
Q 264.094634 34.920248 264.375807 34.807779 
Q 264.656979 34.69531 265.313048 34.639076 
Q 265.969117 34.582841 266.156566 34.582841 
Q 266.344014 34.582841 267.018828 34.582841 
Q 268.218497 34.582841 268.799586 34.995228 
Q 269.380676 35.407614 269.699338 36.026193 
Q 270.018 36.644772 270.280428 36.832221 
" clip-path="url(#p5dd7cdc893)" style="fill: none; stroke: #000000; stroke-linejoin: miter"/>
   </g>
  </g>
  <g id="axes_18">
   <g id="patch_16">
    <path d="M 278.663834 37.95691 
L 279.338648 37.95691 
Q 280.050952 37.95691 280.838234 37.881931 
Q 281.625517 37.806952 282.581503 37.675738 
Q 283.53749 37.544524 284.062345 37.507034 
L 288.336166 35.82 
M 284.287283 30.42149 
L 284.287283 31.43371 
Q 284.287283 33.383172 283.612469 37.207117 
Q 282.937655 41.031062 282.937655 43.018014 
Q 282.937655 43.805297 282.937655 44.105214 
Q 282.937655 44.405131 283.031379 45.042455 
Q 283.125103 45.679779 283.312552 45.960952 
Q 283.5 46.242124 283.893641 46.485807 
Q 284.287283 46.72949 284.849628 46.72949 
Q 284.962097 46.692 285.280759 46.72949 
Q 285.599421 46.766979 285.786869 46.710745 
Q 285.974317 46.65451 285.974317 46.392083 
" clip-path="url(#p9445ac8584)" style="fill: none; stroke: #000000; stroke-linejoin: miter"/>
   </g>
  </g>
  <g id="axes_19"/>
  <g id="axes_20">
   <g id="patch_17">
    <path d="M 315.453309 35.164853 
Q 316.108456 36.207132 317.329412 38.723493 
Q 318.550368 41.239853 319.741544 42.981949 
Q 320.932721 44.724044 322.511029 45.796103 
M 309.735662 28.017794 
Q 309.735662 27.898676 309.929228 27.913566 
Q 310.122794 27.928456 310.286581 27.973125 
Q 310.450368 28.017794 310.539706 27.928456 
Q 311.194853 27.928456 312.534926 27.749779 
Q 313.875 27.571103 314.559926 27.571103 
Q 316.9125 27.571103 318.863051 29.030294 
Q 320.813603 30.489485 320.813603 32.663382 
Q 320.813603 33.407868 320.247794 33.988566 
Q 319.681985 34.569265 318.684375 34.896838 
Q 317.686765 35.224412 316.689154 35.447757 
Q 315.691544 35.671103 314.39614 35.760441 
Q 313.100735 35.849779 312.430699 35.864669 
Q 311.760662 35.879559 310.986397 35.879559 
Q 310.8375 35.849779 310.435478 35.849779 
Q 310.033456 35.849779 309.765441 35.80511 
Q 309.497426 35.760441 309.288971 35.611544 
M 311.969118 27.571103 
L 311.969118 28.017794 
Q 311.969118 28.702721 312.192463 30.057684 
Q 312.415809 31.412647 312.415809 32.127353 
Q 312.415809 33.735441 312.237132 36.951618 
Q 312.058456 40.167794 312.058456 41.775882 
L 312.058456 42.758603 
L 312.326471 45.617426 
" clip-path="url(#p3de0835be4)" style="fill: none; stroke: #000000; stroke-linejoin: miter"/>
   </g>
  </g>
  <g id="axes_21">
   <g id="patch_18">
    <path d="M 332.718579 29.071862 
Q 332.343683 29.146841 332.212469 29.577972 
Q 332.081255 30.009103 332.156234 30.42149 
Q 332.156234 30.571448 332.193724 30.702662 
Q 332.231214 30.833876 332.287448 30.89011 
Q 332.343683 30.946345 332.399917 31.040069 
Q 332.456152 31.133793 332.493641 31.208772 
L 332.60611 29.859145 
M 332.60611 34.020497 
Q 331.706359 39.006621 331.481421 42.793076 
L 331.931297 45.379862 
L 332.268703 46.054676 
" clip-path="url(#p2a5a9be3ef)" style="fill: none; stroke: #000000; stroke-linejoin: miter"/>
   </g>
  </g>
  <g id="axes_22">
   <g id="patch_19">
    <path d="M 344.026179 34.807779 
Q 345.638234 36.719752 346.931628 39.6252 
Q 348.225021 42.530648 348.524938 45.154924 
Q 349.574648 43.655338 350.493145 38.819172 
Q 351.411641 33.983007 352.573821 32.108524 
" clip-path="url(#p1dfe9fb60b)" style="fill: none; stroke: #000000; stroke-linejoin: miter"/>
   </g>
  </g>
  <g id="axes_23">
   <g id="patch_20">
    <path d="M 358.257798 38.160826 
Q 361.230275 39.535596 365.949083 39.721376 
Q 367.472477 39.721376 368.159862 38.550963 
Q 368.847248 37.38055 368.847248 35.82 
Q 368.847248 35.299817 368.754358 34.909679 
Q 368.661468 34.519541 368.419954 34.296606 
Q 368.17844 34.07367 368.011239 33.943624 
Q 367.844037 33.813578 367.398165 33.757844 
Q 366.952294 33.70211 366.747936 33.683532 
Q 366.543578 33.664954 365.967661 33.683532 
Q 365.391743 33.70211 365.168807 33.70211 
Q 363.125229 33.70211 361.638991 35.578486 
Q 360.152752 37.454862 360.152752 39.609908 
Q 360.152752 42.619541 362.084862 44.570229 
Q 364.016972 46.520917 367.063761 46.520917 
Q 369.218807 46.818165 370.742202 44.29156 
" clip-path="url(#p6039c4e8af)" style="fill: none; stroke: #000000; stroke-linejoin: miter"/>
   </g>
  </g>
  <g id="axes_24">
   <g id="patch_21">
    <path d="M 377.213462 32.783338 
Q 377.738317 34.507862 377.869531 36.457324 
Q 378.000745 38.406786 377.925766 40.956083 
Q 377.850786 43.505379 377.888276 44.705048 
L 378.000745 46.054676 
L 378.000745 45.829738 
Q 378.000745 44.667559 377.719572 42.30571 
Q 377.4384 39.943862 377.4384 38.744193 
Q 377.4384 36.419834 378.450621 34.882759 
Q 379.462841 33.345683 381.487283 33.345683 
Q 382.199586 33.345683 382.536993 33.626855 
Q 382.8744 33.908028 383.136828 34.432883 
Q 383.399255 34.957738 383.736662 35.257655 
L 384.186538 36.832221 
" clip-path="url(#p37f1bac8d6)" style="fill: none; stroke: #000000; stroke-linejoin: miter"/>
   </g>
  </g>
  <g id="axes_25"/>
  <g id="axes_26">
   <g id="patch_22">
    <path d="M 418.643923 36.441748 
Q 417.434968 35.094627 413.462687 35.094627 
Q 411.942857 35.094627 411.165672 35.146439 
Q 410.388486 35.198252 409.38678 35.440043 
Q 408.385075 35.681834 407.901493 36.182687 
Q 407.41791 36.683539 407.072495 37.616162 
Q 406.727079 38.548785 406.727079 39.964989 
Q 406.727079 42.037484 408.143284 43.280981 
Q 409.559488 44.524478 411.493817 44.524478 
Q 414.153518 44.524478 416.916844 38.721493 
Q 418.263966 35.854542 418.263966 35.82 
Q 418.609382 35.578209 418.643923 36.441748 
Q 418.643923 37.512537 419.058422 40.362217 
Q 419.472921 43.211898 419.472921 44.524478 
" clip-path="url(#pa3085e2187)" style="fill: none; stroke: #000000; stroke-linejoin: miter"/>
   </g>
  </g>
  <g id="axes_27">
   <g id="patch_23">
    <path d="M 424.838731 37.282097 
L 424.838731 37.844441 
Q 425.101159 39.868883 425.138648 41.312234 
Q 425.176138 42.755586 425.082414 44.667559 
Q 424.98869 46.579531 424.98869 48.191586 
L 425.063669 39.643945 
Q 425.063669 38.144359 426.656979 37.507034 
Q 428.25029 36.86971 429.674897 37.282097 
Q 431.586869 37.844441 432.505366 39.04411 
Q 433.423862 40.243779 433.480097 41.668386 
Q 433.536331 43.092993 433.573821 44.817517 
Q 433.61131 46.542041 433.761269 48.191586 
" clip-path="url(#pdb4726d1bc)" style="fill: none; stroke: #000000; stroke-linejoin: miter"/>
   </g>
  </g>
  <g id="axes_28">
   <g id="patch_24">
    <path d="M 449.099007 39.568966 
Q 447.749379 38.181848 445.5 38.444276 
Q 442.650786 38.444276 441.488607 39.793903 
Q 440.326428 41.143531 440.326428 44.067724 
Q 440.326428 45.56731 441.619821 46.279614 
Q 442.913214 46.991917 444.487779 46.991917 
Q 445.799917 46.991917 446.812138 45.736014 
Q 447.824359 44.48011 448.405448 42.30571 
Q 448.986538 40.13131 449.361434 37.938166 
Q 449.736331 35.745021 449.88629 33.045766 
Q 450.036248 30.34651 450.073738 28.978138 
Q 450.111228 27.609766 450.111228 26.185159 
Q 449.88629 26.260138 449.88629 29.896634 
L 449.88629 44.292662 
L 450.673572 48.229076 
" clip-path="url(#pf227e2adc9)" style="fill: none; stroke: #000000; stroke-linejoin: miter"/>
   </g>
  </g>
  <g id="axes_29"/>
  <g id="axes_30">
   <g id="patch_25">
    <path d="M 473.063834 37.95691 
L 473.738648 37.95691 
Q 474.450952 37.95691 475.238234 37.881931 
Q 476.025517 37.806952 476.981503 37.675738 
Q 477.93749 37.544524 478.462345 37.507034 
L 482.736166 35.82 
M 478.687283 30.42149 
L 478.687283 31.43371 
Q 478.687283 33.383172 478.012469 37.207117 
Q 477.337655 41.031062 477.337655 43.018014 
Q 477.337655 43.805297 477.337655 44.105214 
Q 477.337655 44.405131 477.431379 45.042455 
Q 477.525103 45.679779 477.712552 45.960952 
Q 477.9 46.242124 478.293641 46.485807 
Q 478.687283 46.72949 479.249628 46.72949 
Q 479.362097 46.692 479.680759 46.72949 
Q 479.999421 46.766979 480.186869 46.710745 
Q 480.374317 46.65451 480.374317 46.392083 
" clip-path="url(#p8f1dfc1402)" style="fill: none; stroke: #000000; stroke-linejoin: miter"/>
   </g>
  </g>
  <g id="axes_31">
   <g id="patch_26">
    <path d="M 490.613462 35.932469 
Q 491.213297 35.257655 492.206772 34.826524 
Q 493.200248 34.395393 494.1 34.470372 
Q 494.737324 34.470372 495.22469 34.639076 
Q 495.712055 34.807779 496.030717 34.995228 
Q 496.349379 35.182676 496.574317 35.670041 
Q 496.799255 36.157407 496.911724 36.419834 
Q 497.024193 36.682262 497.080428 37.375821 
Q 497.136662 38.069379 497.155407 38.331807 
Q 497.174152 38.594234 497.155407 39.419007 
Q 497.136662 40.243779 497.136662 40.431228 
Q 497.136662 41.368469 496.967959 43.242952 
Q 496.799255 45.117434 496.799255 46.054676 
Q 496.799255 46.467062 496.85549 46.823214 
Q 496.911724 47.179366 497.005448 47.610497 
Q 497.099172 48.041628 497.136662 48.304055 
L 497.586538 48.528993 
M 491.063338 23.111007 
Q 491.288276 24.798041 491.288276 29.971614 
L 491.288276 42.3432 
L 490.950869 46.841959 
L 490.725931 47.74171 
" clip-path="url(#p0b59450468)" style="fill: none; stroke: #000000; stroke-linejoin: miter"/>
   </g>
  </g>
  <g id="axes_32">
   <g id="patch_27">
    <path d="M 506.813462 32.783338 
Q 507.338317 34.507862 507.469531 36.457324 
Q 507.600745 38.406786 507.525766 40.956083 
Q 507.450786 43.505379 507.488276 44.705048 
L 507.600745 46.054676 
L 507.600745 45.829738 
Q 507.600745 44.667559 507.319572 42.30571 
Q 507.0384 39.943862 507.0384 38.744193 
Q 507.0384 36.419834 508.050621 34.882759 
Q 509.062841 33.345683 511.087283 33.345683 
Q 511.799586 33.345683 512.136993 33.626855 
Q 512.4744 33.908028 512.736828 34.432883 
Q 512.999255 34.957738 513.336662 35.257655 
L 513.786538 36.832221 
" clip-path="url(#p55c2a3327f)" style="fill: none; stroke: #000000; stroke-linejoin: miter"/>
   </g>
  </g>
  <g id="axes_33">
   <g id="patch_28">
    <path d="M 529.7616 35.032717 
Q 528.71189 34.582841 527.737159 34.69531 
Q 524.700497 35.032717 522.788524 36.701007 
Q 520.876552 38.369297 520.876552 41.330979 
Q 520.876552 43.917766 522.882248 45.6048 
Q 524.887945 47.291834 527.512221 47.291834 
Q 529.874069 47.291834 530.998759 45.361117 
Q 532.123448 43.4304 532.123448 40.881103 
Q 532.123448 39.643945 531.711062 38.706703 
Q 531.298676 37.769462 530.773821 37.300841 
Q 530.248966 36.832221 529.499172 36.119917 
Q 528.749379 35.407614 528.299503 34.69531 
L 527.062345 34.245434 
" clip-path="url(#p28dd330a40)" style="fill: none; stroke: #000000; stroke-linejoin: miter"/>
   </g>
  </g>
  <g id="axes_34">
   <g id="patch_29">
    <path d="M 538.088772 35.145186 
Q 538.088772 35.145186 538.088772 35.595062 
Q 538.088772 36.269876 537.976303 37.619503 
Q 537.863834 38.969131 537.863834 39.643945 
Q 537.863834 41.930814 539.100993 43.599103 
Q 540.338152 45.267393 542.475062 45.267393 
Q 543.862179 45.154924 544.630717 43.917766 
Q 545.399255 42.680607 545.549214 41.237255 
Q 545.699172 39.793903 545.9616 37.9944 
Q 546.224028 36.194897 546.636414 35.370124 
Q 546.786372 35.070207 546.786372 35.670041 
Q 546.786372 36.269876 546.523945 38.706703 
Q 546.299007 41.031062 546.299007 41.555917 
Q 546.149048 42.643117 546.486455 43.767807 
Q 546.823862 44.892497 547.536166 45.6048 
" clip-path="url(#p1af5f5bafc)" style="fill: none; stroke: #000000; stroke-linejoin: miter"/>
   </g>
  </g>
  <g id="axes_35">
   <g id="patch_30">
    <path d="M 563.687191 39.096404 
Q 563.43236 39.023596 562.46764 38.623146 
Q 561.502921 38.222697 560.84764 38.077079 
Q 560.19236 37.931461 559.537079 38.00427 
Q 556.915955 38.00427 555.277753 40.388764 
Q 553.639551 42.773258 553.639551 45.430787 
Q 553.639551 47.068989 558.881798 47.068989 
Q 560.447191 47.068989 561.775955 45.558202 
Q 563.104719 44.047416 563.778202 42.172584 
Q 564.451685 40.297753 564.451685 38.768764 
Q 564.451685 37.27618 564.415281 36.984944 
L 564.342472 38.077079 
Q 564.342472 38.550337 564.342472 38.987191 
Q 564.378876 40.188539 564.579101 42.281798 
Q 564.779326 44.375056 564.943146 46.049663 
Q 565.106966 47.72427 565.143371 49.872135 
Q 565.179775 52.02 565.015955 53.658202 
Q 564.852135 55.296404 564.287865 56.971011 
Q 563.723596 58.645618 562.795281 59.737753 
Q 561.866966 60.829888 560.265169 61.521573 
Q 558.663371 62.213258 556.515506 62.213258 
Q 554.877303 62.213258 553.785169 61.466966 
Q 552.693034 60.720674 552.693034 59.155281 
Q 552.620225 58.936854 552.656629 58.936854 
Q 552.693034 58.936854 552.802247 58.936854 
Q 552.911461 58.936854 552.911461 58.82764 
" clip-path="url(#p07aa7795f9)" style="fill: none; stroke: #000000; stroke-linejoin: miter"/>
   </g>
  </g>
  <g id="axes_36">
   <g id="patch_31">
    <path d="M 571.613462 35.932469 
Q 572.213297 35.257655 573.206772 34.826524 
Q 574.200248 34.395393 575.1 34.470372 
Q 575.737324 34.470372 576.22469 34.639076 
Q 576.712055 34.807779 577.030717 34.995228 
Q 577.349379 35.182676 577.574317 35.670041 
Q 577.799255 36.157407 577.911724 36.419834 
Q 578.024193 36.682262 578.080428 37.375821 
Q 578.136662 38.069379 578.155407 38.331807 
Q 578.174152 38.594234 578.155407 39.419007 
Q 578.136662 40.243779 578.136662 40.431228 
Q 578.136662 41.368469 577.967959 43.242952 
Q 577.799255 45.117434 577.799255 46.054676 
Q 577.799255 46.467062 577.85549 46.823214 
Q 577.911724 47.179366 578.005448 47.610497 
Q 578.099172 48.041628 578.136662 48.304055 
L 578.586538 48.528993 
M 572.063338 23.111007 
Q 572.288276 24.798041 572.288276 29.971614 
L 572.288276 42.3432 
L 571.950869 46.841959 
L 571.725931 47.74171 
" clip-path="url(#p94e8463ddd)" style="fill: none; stroke: #000000; stroke-linejoin: miter"/>
   </g>
  </g>
 </g>
 <defs>
  <clipPath id="p5de53f6bc6">
   <rect x="5.831876" y="8.64" width="4.536248" height="54.36"/>
  </clipPath>
  <clipPath id="pef88595fd7">
   <rect x="16.2" y="10.777356" width="16.2" height="50.085288"/>
  </clipPath>
  <clipPath id="peb6b5c5988">
   <rect x="33.451945" y="8.64" width="14.09611" height="54.36"/>
  </clipPath>
  <clipPath id="p3ada27b2cc">
   <rect x="49.651945" y="8.64" width="14.09611" height="54.36"/>
  </clipPath>
  <clipPath id="p7fad76a896">
   <rect x="81.883241" y="8.64" width="14.433517" height="54.36"/>
  </clipPath>
  <clipPath id="pbe7775d98c">
   <rect x="97.2" y="10.777356" width="16.2" height="50.085288"/>
  </clipPath>
  <clipPath id="p8eb2a467f1">
   <rect x="115.182993" y="8.64" width="12.634014" height="54.36"/>
  </clipPath>
  <clipPath id="pbbb5b8819f">
   <rect x="130.989352" y="8.64" width="13.421297" height="54.36"/>
  </clipPath>
  <clipPath id="pa627826aac">
   <rect x="163.389352" y="8.64" width="13.421297" height="54.36"/>
  </clipPath>
  <clipPath id="p1e6eaec747">
   <rect x="180.938979" y="8.64" width="10.722041" height="54.36"/>
  </clipPath>
  <clipPath id="p9f52022d5a">
   <rect x="194.4" y="8.881927" width="16.2" height="53.876147"/>
  </clipPath>
  <clipPath id="pe4f19eb3ce">
   <rect x="226.8" y="14.581302" width="16.2" height="42.477396"/>
  </clipPath>
  <clipPath id="pcd8553d8d9">
   <rect x="243" y="10.777356" width="16.2" height="50.085288"/>
  </clipPath>
  <clipPath id="p5dd7cdc893">
   <rect x="260.982993" y="8.64" width="12.634014" height="54.36"/>
  </clipPath>
  <clipPath id="p9445ac8584">
   <rect x="276.789352" y="8.64" width="13.421297" height="54.36"/>
  </clipPath>
  <clipPath id="p3de0835be4">
   <rect x="307.8" y="14.229926" width="16.2" height="43.180147"/>
  </clipPath>
  <clipPath id="p2a5a9be3ef">
   <rect x="329.606938" y="8.64" width="4.986124" height="54.36"/>
  </clipPath>
  <clipPath id="p1dfe9fb60b">
   <rect x="342.151697" y="8.64" width="12.296607" height="54.36"/>
  </clipPath>
  <clipPath id="p6039c4e8af">
   <rect x="356.4" y="8.881927" width="16.2" height="53.876147"/>
  </clipPath>
  <clipPath id="p37f1bac8d6">
   <rect x="375.338979" y="8.64" width="10.722041" height="54.36"/>
  </clipPath>
  <clipPath id="pa3085e2187">
   <rect x="405" y="10.777356" width="16.2" height="50.085288"/>
  </clipPath>
  <clipPath id="pdb4726d1bc">
   <rect x="422.964248" y="8.64" width="12.671503" height="54.36"/>
  </clipPath>
  <clipPath id="pf227e2adc9">
   <rect x="438.451945" y="8.64" width="14.09611" height="54.36"/>
  </clipPath>
  <clipPath id="p8f1dfc1402">
   <rect x="471.189352" y="8.64" width="13.421297" height="54.36"/>
  </clipPath>
  <clipPath id="p0b59450468">
   <rect x="488.738979" y="8.64" width="10.722041" height="54.36"/>
  </clipPath>
  <clipPath id="p55c2a3327f">
   <rect x="504.938979" y="8.64" width="10.722041" height="54.36"/>
  </clipPath>
  <clipPath id="p28dd330a40">
   <rect x="519.002069" y="8.64" width="14.995862" height="54.36"/>
  </clipPath>
  <clipPath id="p1af5f5bafc">
   <rect x="535.989352" y="8.64" width="13.421297" height="54.36"/>
  </clipPath>
  <clipPath id="p07aa7795f9">
   <rect x="550.8" y="9.426742" width="16.2" height="52.786517"/>
  </clipPath>
  <clipPath id="p94e8463ddd">
   <rect x="569.738979" y="8.64" width="10.722041" height="54.36"/>
  </clipPath>
 </defs>
</svg>
