<?xml version="1.0" encoding="utf-8" standalone="no"?>
<!DOCTYPE svg PUBLIC "-//W3C//DTD SVG 1.1//EN"
  "http://www.w3.org/Graphics/SVG/1.1/DTD/svg11.dtd">
<svg xmlns:xlink="http://www.w3.org/1999/xlink" width="720pt" height="72pt" viewBox="0 0 720 72" xmlns="http://www.w3.org/2000/svg" version="1.1">
 <metadata>
  <rdf:RDF xmlns:dc="http://purl.org/dc/elements/1.1/" xmlns:cc="http://creativecommons.org/ns#" xmlns:rdf="http://www.w3.org/1999/02/22-rdf-syntax-ns#">
   <cc:Work>
    <dc:type rdf:resource="http://purl.org/dc/dcmitype/StillImage"/>
    <dc:date>2024-01-04T18:46:23.980924</dc:date>
    <dc:format>image/svg+xml</dc:format>
    <dc:creator>
     <cc:Agent>
      <dc:title>Matplotlib v3.7.1, https://matplotlib.org/</dc:title>
     </cc:Agent>
    </dc:creator>
   </cc:Work>
  </rdf:RDF>
 </metadata>
 <defs>
  <style type="text/css">*{stroke-linejoin: round; stroke-linecap: butt}</style>
 </defs>
 <g id="figure_1">
  <g id="patch_1">
   <path d="M 0 72 
L 720 72 
L 720 0 
L 0 0 
z
" style="fill: #8fff9f"/>
  </g>
  <g id="axes_1">
   <g id="patch_2">
    <path d="M 3.263834 37.95691 
L 3.938648 37.95691 
Q 4.650952 37.95691 5.438234 37.881931 
Q 6.225517 37.806952 7.181503 37.675738 
Q 8.13749 37.544524 8.662345 37.507034 
L 12.936166 35.82 
M 8.887283 30.42149 
L 8.887283 31.43371 
Q 8.887283 33.383172 8.212469 37.207117 
Q 7.537655 41.031062 7.537655 43.018014 
Q 7.537655 43.805297 7.537655 44.105214 
Q 7.537655 44.405131 7.631379 45.042455 
Q 7.725103 45.679779 7.912552 45.960952 
Q 8.1 46.242124 8.493641 46.485807 
Q 8.887283 46.72949 9.449628 46.72949 
Q 9.562097 46.692 9.880759 46.72949 
Q 10.199421 46.766979 10.386869 46.710745 
Q 10.574317 46.65451 10.574317 46.392083 
" clip-path="url(#p2fb8eb5ee8)" style="fill: none; stroke: #000000; stroke-linejoin: miter"/>
   </g>
  </g>
  <g id="axes_2">
   <g id="patch_3">
    <path d="M 20.813462 35.932469 
Q 21.413297 35.257655 22.406772 34.826524 
Q 23.400248 34.395393 24.3 34.470372 
Q 24.937324 34.470372 25.42469 34.639076 
Q 25.912055 34.807779 26.230717 34.995228 
Q 26.549379 35.182676 26.774317 35.670041 
Q 26.999255 36.157407 27.111724 36.419834 
Q 27.224193 36.682262 27.280428 37.375821 
Q 27.336662 38.069379 27.355407 38.331807 
Q 27.374152 38.594234 27.355407 39.419007 
Q 27.336662 40.243779 27.336662 40.431228 
Q 27.336662 41.368469 27.167959 43.242952 
Q 26.999255 45.117434 26.999255 46.054676 
Q 26.999255 46.467062 27.05549 46.823214 
Q 27.111724 47.179366 27.205448 47.610497 
Q 27.299172 48.041628 27.336662 48.304055 
L 27.786538 48.528993 
M 21.263338 23.111007 
Q 21.488276 24.798041 21.488276 29.971614 
L 21.488276 42.3432 
L 21.150869 46.841959 
L 20.925931 47.74171 
" clip-path="url(#pf5c4f38687)" style="fill: none; stroke: #000000; stroke-linejoin: miter"/>
   </g>
  </g>
  <g id="axes_3">
   <g id="patch_4">
    <path d="M 34.257798 38.160826 
Q 37.230275 39.535596 41.949083 39.721376 
Q 43.472477 39.721376 44.159862 38.550963 
Q 44.847248 37.38055 44.847248 35.82 
Q 44.847248 35.299817 44.754358 34.909679 
Q 44.661468 34.519541 44.419954 34.296606 
Q 44.17844 34.07367 44.011239 33.943624 
Q 43.844037 33.813578 43.398165 33.757844 
Q 42.952294 33.70211 42.747936 33.683532 
Q 42.543578 33.664954 41.967661 33.683532 
Q 41.391743 33.70211 41.168807 33.70211 
Q 39.125229 33.70211 37.638991 35.578486 
Q 36.152752 37.454862 36.152752 39.609908 
Q 36.152752 42.619541 38.084862 44.570229 
Q 40.016972 46.520917 43.063761 46.520917 
Q 45.218807 46.818165 46.742202 44.29156 
" clip-path="url(#pbb82b37b91)" style="fill: none; stroke: #000000; stroke-linejoin: miter"/>
   </g>
  </g>
  <g id="axes_4"/>
  <g id="axes_5">
   <g id="patch_5">
    <path d="M 79.148571 31.763193 
Q 77.40605 29.585042 75.459328 28.972437 
Q 73.512605 28.359832 70.735462 29.285546 
Q 68.856807 29.966218 67.509076 31.817647 
Q 66.161345 33.669076 66.161345 35.411597 
Q 66.161345 38.760504 68.788739 41.415126 
Q 71.416134 44.069748 74.656134 44.069748 
Q 75.500168 44.069748 76.18084 43.729412 
Q 76.861513 43.389076 77.256303 42.953445 
Q 77.651092 42.517815 78.222857 41.918824 
Q 78.794622 41.319832 79.311933 40.965882 
L 79.638655 40.149076 
" clip-path="url(#p0fcbb92c8d)" style="fill: none; stroke: #000000; stroke-linejoin: miter"/>
   </g>
  </g>
  <g id="axes_6">
   <g id="patch_6">
    <path d="M 94.643923 36.441748 
Q 93.434968 35.094627 89.462687 35.094627 
Q 87.942857 35.094627 87.165672 35.146439 
Q 86.388486 35.198252 85.38678 35.440043 
Q 84.385075 35.681834 83.901493 36.182687 
Q 83.41791 36.683539 83.072495 37.616162 
Q 82.727079 38.548785 82.727079 39.964989 
Q 82.727079 42.037484 84.143284 43.280981 
Q 85.559488 44.524478 87.493817 44.524478 
Q 90.153518 44.524478 92.916844 38.721493 
Q 94.263966 35.854542 94.263966 35.82 
Q 94.609382 35.578209 94.643923 36.441748 
Q 94.643923 37.512537 95.058422 40.362217 
Q 95.472921 43.211898 95.472921 44.524478 
" clip-path="url(#p5b880df7ad)" style="fill: none; stroke: #000000; stroke-linejoin: miter"/>
   </g>
  </g>
  <g id="axes_7">
   <g id="patch_7">
    <path d="M 101.026179 34.807779 
Q 102.638234 36.719752 103.931628 39.6252 
Q 105.225021 42.530648 105.524938 45.154924 
Q 106.574648 43.655338 107.493145 38.819172 
Q 108.411641 33.983007 109.573821 32.108524 
" clip-path="url(#p575c15225f)" style="fill: none; stroke: #000000; stroke-linejoin: miter"/>
   </g>
  </g>
  <g id="axes_8">
   <g id="patch_8">
    <path d="M 115.257798 38.160826 
Q 118.230275 39.535596 122.949083 39.721376 
Q 124.472477 39.721376 125.159862 38.550963 
Q 125.847248 37.38055 125.847248 35.82 
Q 125.847248 35.299817 125.754358 34.909679 
Q 125.661468 34.519541 125.419954 34.296606 
Q 125.17844 34.07367 125.011239 33.943624 
Q 124.844037 33.813578 124.398165 33.757844 
Q 123.952294 33.70211 123.747936 33.683532 
Q 123.543578 33.664954 122.967661 33.683532 
Q 122.391743 33.70211 122.168807 33.70211 
Q 120.125229 33.70211 118.638991 35.578486 
Q 117.152752 37.454862 117.152752 39.609908 
Q 117.152752 42.619541 119.084862 44.570229 
Q 121.016972 46.520917 124.063761 46.520917 
Q 126.218807 46.818165 127.742202 44.29156 
" clip-path="url(#p9d7b7c2ad0)" style="fill: none; stroke: #000000; stroke-linejoin: miter"/>
   </g>
  </g>
  <g id="axes_9">
   <g id="patch_9">
    <path d="M 134.213462 32.783338 
Q 134.738317 34.507862 134.869531 36.457324 
Q 135.000745 38.406786 134.925766 40.956083 
Q 134.850786 43.505379 134.888276 44.705048 
L 135.000745 46.054676 
L 135.000745 45.829738 
Q 135.000745 44.667559 134.719572 42.30571 
Q 134.4384 39.943862 134.4384 38.744193 
Q 134.4384 36.419834 135.450621 34.882759 
Q 136.462841 33.345683 138.487283 33.345683 
Q 139.199586 33.345683 139.536993 33.626855 
Q 139.8744 33.908028 140.136828 34.432883 
Q 140.399255 34.957738 140.736662 35.257655 
L 141.186538 36.832221 
" clip-path="url(#p8d2978aba2)" style="fill: none; stroke: #000000; stroke-linejoin: miter"/>
   </g>
  </g>
  <g id="axes_10">
   <g id="patch_10">
    <path d="M 149.438731 37.282097 
L 149.438731 37.844441 
Q 149.701159 39.868883 149.738648 41.312234 
Q 149.776138 42.755586 149.682414 44.667559 
Q 149.58869 46.579531 149.58869 48.191586 
L 149.663669 39.643945 
Q 149.663669 38.144359 151.256979 37.507034 
Q 152.85029 36.86971 154.274897 37.282097 
Q 156.186869 37.844441 157.105366 39.04411 
Q 158.023862 40.243779 158.080097 41.668386 
Q 158.136331 43.092993 158.173821 44.817517 
Q 158.21131 46.542041 158.361269 48.191586 
" clip-path="url(#p99b44fa7ce)" style="fill: none; stroke: #000000; stroke-linejoin: miter"/>
   </g>
  </g>
  <g id="axes_11"/>
  <g id="axes_12">
   <g id="patch_11">
    <path d="M 189.5616 35.032717 
Q 188.51189 34.582841 187.537159 34.69531 
Q 184.500497 35.032717 182.588524 36.701007 
Q 180.676552 38.369297 180.676552 41.330979 
Q 180.676552 43.917766 182.682248 45.6048 
Q 184.687945 47.291834 187.312221 47.291834 
Q 189.674069 47.291834 190.798759 45.361117 
Q 191.923448 43.4304 191.923448 40.881103 
Q 191.923448 39.643945 191.511062 38.706703 
Q 191.098676 37.769462 190.573821 37.300841 
Q 190.048966 36.832221 189.299172 36.119917 
Q 188.549379 35.407614 188.099503 34.69531 
L 186.862345 34.245434 
" clip-path="url(#p5137f9fbf9)" style="fill: none; stroke: #000000; stroke-linejoin: miter"/>
   </g>
  </g>
  <g id="axes_13">
   <g id="patch_12">
    <path d="M 196.184141 38.85304 
L 196.612335 38.85304 
Q 197.43304 38.85304 198.396476 38.745991 
Q 199.359912 38.638943 200.519604 38.460529 
Q 201.679295 38.282115 202.285903 38.210749 
L 208.815859 35.427489 
M 208.494714 25.793128 
Q 208.209251 25.721762 207.174449 25.275727 
Q 206.139648 24.829692 205.497357 24.93674 
Q 204.855066 24.93674 204.337665 25.150837 
Q 203.820264 25.364934 203.481278 25.793128 
Q 203.142291 26.221322 202.87467 26.685198 
Q 202.607048 27.149075 202.464317 27.862731 
Q 202.321586 28.576388 202.214537 29.129471 
Q 202.107489 29.682555 202.089648 30.50326 
Q 202.071806 31.323965 202.053965 31.77 
Q 202.036123 32.216035 202.053965 32.965374 
Q 202.071806 33.714714 202.071806 33.928811 
Q 202.071806 36.605022 202.767621 41.850396 
Q 203.463436 47.095771 203.463436 49.771982 
Q 203.39207 50.057445 203.356388 50.681894 
Q 203.320705 51.306344 203.213656 51.805903 
Q 203.106608 52.305463 202.821145 52.555242 
" clip-path="url(#p2e23112c41)" style="fill: none; stroke: #000000; stroke-linejoin: miter"/>
   </g>
  </g>
  <g id="axes_14"/>
  <g id="axes_15">
   <g id="patch_13">
    <path d="M 228.189365 28.678662 
Q 228.411664 28.511938 229.203602 28.609194 
Q 229.99554 28.706449 230.273413 28.5953 
Q 233.191081 28.5953 235.789194 29.984666 
Q 238.387307 31.374031 239.998971 33.888782 
Q 241.610635 36.403533 241.610635 39.43235 
Q 241.610635 41.377461 240.401887 42.669571 
Q 239.193139 43.961681 237.581475 44.447959 
Q 235.969811 44.934237 234.108062 44.934237 
Q 233.802401 44.906449 232.357461 44.836981 
Q 230.912521 44.767513 230.037221 44.503533 
Q 229.161921 44.239554 228.689537 43.600446 
M 231.44048 28.845386 
L 231.44048 29.01211 
Q 231.44048 30.401475 231.315437 33.513654 
Q 231.190395 36.625832 231.190395 38.098559 
Q 231.190395 38.904391 231.259863 39.821372 
Q 231.329331 40.738353 231.454374 41.822058 
Q 231.579417 42.905763 231.607204 43.433722 
L 231.690566 44.434065 
" clip-path="url(#p01062c9977)" style="fill: none; stroke: #000000; stroke-linejoin: miter"/>
   </g>
  </g>
  <g id="axes_16">
   <g id="patch_14">
    <path d="M 247.613462 32.783338 
Q 248.138317 34.507862 248.269531 36.457324 
Q 248.400745 38.406786 248.325766 40.956083 
Q 248.250786 43.505379 248.288276 44.705048 
L 248.400745 46.054676 
L 248.400745 45.829738 
Q 248.400745 44.667559 248.119572 42.30571 
Q 247.8384 39.943862 247.8384 38.744193 
Q 247.8384 36.419834 248.850621 34.882759 
Q 249.862841 33.345683 251.887283 33.345683 
Q 252.599586 33.345683 252.936993 33.626855 
Q 253.2744 33.908028 253.536828 34.432883 
Q 253.799255 34.957738 254.136662 35.257655 
L 254.586538 36.832221 
" clip-path="url(#pdaea46317a)" style="fill: none; stroke: #000000; stroke-linejoin: miter"/>
   </g>
  </g>
  <g id="axes_17">
   <g id="patch_15">
    <path d="M 272.843923 36.441748 
Q 271.634968 35.094627 267.662687 35.094627 
Q 266.142857 35.094627 265.365672 35.146439 
Q 264.588486 35.198252 263.58678 35.440043 
Q 262.585075 35.681834 262.101493 36.182687 
Q 261.61791 36.683539 261.272495 37.616162 
Q 260.927079 38.548785 260.927079 39.964989 
Q 260.927079 42.037484 262.343284 43.280981 
Q 263.759488 44.524478 265.693817 44.524478 
Q 268.353518 44.524478 271.116844 38.721493 
Q 272.463966 35.854542 272.463966 35.82 
Q 272.809382 35.578209 272.843923 36.441748 
Q 272.843923 37.512537 273.258422 40.362217 
Q 273.672921 43.211898 273.672921 44.524478 
" clip-path="url(#p0a0a68a82f)" style="fill: none; stroke: #000000; stroke-linejoin: miter"/>
   </g>
  </g>
  <g id="axes_18">
   <g id="patch_16">
    <path d="M 279.038731 37.282097 
L 279.038731 37.844441 
Q 279.301159 39.868883 279.338648 41.312234 
Q 279.376138 42.755586 279.282414 44.667559 
Q 279.18869 46.579531 279.18869 48.191586 
L 279.263669 39.643945 
Q 279.263669 38.144359 280.856979 37.507034 
Q 282.45029 36.86971 283.874897 37.282097 
Q 285.786869 37.844441 286.705366 39.04411 
Q 287.623862 40.243779 287.680097 41.668386 
Q 287.736331 43.092993 287.773821 44.817517 
Q 287.81131 46.542041 287.961269 48.191586 
" clip-path="url(#p1303730704)" style="fill: none; stroke: #000000; stroke-linejoin: miter"/>
   </g>
  </g>
  <g id="axes_19">
   <g id="patch_17">
    <path d="M 304.487191 39.096404 
Q 304.23236 39.023596 303.26764 38.623146 
Q 302.302921 38.222697 301.64764 38.077079 
Q 300.99236 37.931461 300.337079 38.00427 
Q 297.715955 38.00427 296.077753 40.388764 
Q 294.439551 42.773258 294.439551 45.430787 
Q 294.439551 47.068989 299.681798 47.068989 
Q 301.247191 47.068989 302.575955 45.558202 
Q 303.904719 44.047416 304.578202 42.172584 
Q 305.251685 40.297753 305.251685 38.768764 
Q 305.251685 37.27618 305.215281 36.984944 
L 305.142472 38.077079 
Q 305.142472 38.550337 305.142472 38.987191 
Q 305.178876 40.188539 305.379101 42.281798 
Q 305.579326 44.375056 305.743146 46.049663 
Q 305.906966 47.72427 305.943371 49.872135 
Q 305.979775 52.02 305.815955 53.658202 
Q 305.652135 55.296404 305.087865 56.971011 
Q 304.523596 58.645618 303.595281 59.737753 
Q 302.666966 60.829888 301.065169 61.521573 
Q 299.463371 62.213258 297.315506 62.213258 
Q 295.677303 62.213258 294.585169 61.466966 
Q 293.493034 60.720674 293.493034 59.155281 
Q 293.420225 58.936854 293.456629 58.936854 
Q 293.493034 58.936854 293.602247 58.936854 
Q 293.711461 58.936854 293.711461 58.82764 
" clip-path="url(#p6047fe0b6c)" style="fill: none; stroke: #000000; stroke-linejoin: miter"/>
   </g>
  </g>
  <g id="axes_20">
   <g id="patch_18">
    <path d="M 321.443923 36.441748 
Q 320.234968 35.094627 316.262687 35.094627 
Q 314.742857 35.094627 313.965672 35.146439 
Q 313.188486 35.198252 312.18678 35.440043 
Q 311.185075 35.681834 310.701493 36.182687 
Q 310.21791 36.683539 309.872495 37.616162 
Q 309.527079 38.548785 309.527079 39.964989 
Q 309.527079 42.037484 310.943284 43.280981 
Q 312.359488 44.524478 314.293817 44.524478 
Q 316.953518 44.524478 319.716844 38.721493 
Q 321.063966 35.854542 321.063966 35.82 
Q 321.409382 35.578209 321.443923 36.441748 
Q 321.443923 37.512537 321.858422 40.362217 
Q 322.272921 43.211898 322.272921 44.524478 
" clip-path="url(#pa902be829b)" style="fill: none; stroke: #000000; stroke-linejoin: miter"/>
   </g>
  </g>
  <g id="axes_21">
   <g id="patch_19">
    <path d="M 328.613462 32.783338 
Q 329.138317 34.507862 329.269531 36.457324 
Q 329.400745 38.406786 329.325766 40.956083 
Q 329.250786 43.505379 329.288276 44.705048 
L 329.400745 46.054676 
L 329.400745 45.829738 
Q 329.400745 44.667559 329.119572 42.30571 
Q 328.8384 39.943862 328.8384 38.744193 
Q 328.8384 36.419834 329.850621 34.882759 
Q 330.862841 33.345683 332.887283 33.345683 
Q 333.599586 33.345683 333.936993 33.626855 
Q 334.2744 33.908028 334.536828 34.432883 
Q 334.799255 34.957738 335.136662 35.257655 
L 335.586538 36.832221 
" clip-path="url(#pd369dd5907)" style="fill: none; stroke: #000000; stroke-linejoin: miter"/>
   </g>
  </g>
  <g id="axes_22">
   <g id="patch_20">
    <path d="M 343.463834 37.95691 
L 344.138648 37.95691 
Q 344.850952 37.95691 345.638234 37.881931 
Q 346.425517 37.806952 347.381503 37.675738 
Q 348.33749 37.544524 348.862345 37.507034 
L 353.136166 35.82 
M 349.087283 30.42149 
L 349.087283 31.43371 
Q 349.087283 33.383172 348.412469 37.207117 
Q 347.737655 41.031062 347.737655 43.018014 
Q 347.737655 43.805297 347.737655 44.105214 
Q 347.737655 44.405131 347.831379 45.042455 
Q 347.925103 45.679779 348.112552 45.960952 
Q 348.3 46.242124 348.693641 46.485807 
Q 349.087283 46.72949 349.649628 46.72949 
Q 349.762097 46.692 350.080759 46.72949 
Q 350.399421 46.766979 350.586869 46.710745 
Q 350.774317 46.65451 350.774317 46.392083 
" clip-path="url(#pdf408d1569)" style="fill: none; stroke: #000000; stroke-linejoin: miter"/>
   </g>
  </g>
  <g id="axes_23">
   <g id="patch_21">
    <path d="M 361.013462 35.932469 
Q 361.613297 35.257655 362.606772 34.826524 
Q 363.600248 34.395393 364.5 34.470372 
Q 365.137324 34.470372 365.62469 34.639076 
Q 366.112055 34.807779 366.430717 34.995228 
Q 366.749379 35.182676 366.974317 35.670041 
Q 367.199255 36.157407 367.311724 36.419834 
Q 367.424193 36.682262 367.480428 37.375821 
Q 367.536662 38.069379 367.555407 38.331807 
Q 367.574152 38.594234 367.555407 39.419007 
Q 367.536662 40.243779 367.536662 40.431228 
Q 367.536662 41.368469 367.367959 43.242952 
Q 367.199255 45.117434 367.199255 46.054676 
Q 367.199255 46.467062 367.25549 46.823214 
Q 367.311724 47.179366 367.405448 47.610497 
Q 367.499172 48.041628 367.536662 48.304055 
L 367.986538 48.528993 
M 361.463338 23.111007 
Q 361.688276 24.798041 361.688276 29.971614 
L 361.688276 42.3432 
L 361.350869 46.841959 
L 361.125931 47.74171 
" clip-path="url(#p9fe59a6daa)" style="fill: none; stroke: #000000; stroke-linejoin: miter"/>
   </g>
  </g>
  <g id="axes_24"/>
  <g id="axes_25">
   <g id="patch_22">
    <path d="M 390.516102 36.437797 
L 391.751695 44.778051 
Q 391.854661 45.567458 391.854661 45.60178 
Q 391.854661 45.704746 392.163559 45.704746 
Q 393.02161 45.704746 393.742373 44.778051 
Q 394.463136 43.851356 394.875 42.718729 
Q 395.286864 41.586102 395.801695 40.659407 
Q 396.316525 39.732712 396.797034 39.732712 
Q 397.414831 39.732712 398.049788 40.607924 
Q 398.684746 41.483136 399.148093 42.512797 
Q 399.611441 43.542458 400.28072 44.417669 
Q 400.95 45.292881 401.636441 45.292881 
Q 401.911017 43.782712 402.340042 39.69839 
Q 402.769068 35.614068 403.283898 33.554746 
" clip-path="url(#p106b38b7f3)" style="fill: none; stroke: #000000; stroke-linejoin: miter"/>
   </g>
  </g>
  <g id="axes_26">
   <g id="patch_23">
    <path d="M 413.718579 29.071862 
Q 413.343683 29.146841 413.212469 29.577972 
Q 413.081255 30.009103 413.156234 30.42149 
Q 413.156234 30.571448 413.193724 30.702662 
Q 413.231214 30.833876 413.287448 30.89011 
Q 413.343683 30.946345 413.399917 31.040069 
Q 413.456152 31.133793 413.493641 31.208772 
L 413.60611 29.859145 
M 413.60611 34.020497 
Q 412.706359 39.006621 412.481421 42.793076 
L 412.931297 45.379862 
L 413.268703 46.054676 
" clip-path="url(#pd374c74f96)" style="fill: none; stroke: #000000; stroke-linejoin: miter"/>
   </g>
  </g>
  <g id="axes_27">
   <g id="patch_24">
    <path d="M 424.463834 37.95691 
L 425.138648 37.95691 
Q 425.850952 37.95691 426.638234 37.881931 
Q 427.425517 37.806952 428.381503 37.675738 
Q 429.33749 37.544524 429.862345 37.507034 
L 434.136166 35.82 
M 430.087283 30.42149 
L 430.087283 31.43371 
Q 430.087283 33.383172 429.412469 37.207117 
Q 428.737655 41.031062 428.737655 43.018014 
Q 428.737655 43.805297 428.737655 44.105214 
Q 428.737655 44.405131 428.831379 45.042455 
Q 428.925103 45.679779 429.112552 45.960952 
Q 429.3 46.242124 429.693641 46.485807 
Q 430.087283 46.72949 430.649628 46.72949 
Q 430.762097 46.692 431.080759 46.72949 
Q 431.399421 46.766979 431.586869 46.710745 
Q 431.774317 46.65451 431.774317 46.392083 
" clip-path="url(#p8ac262fff0)" style="fill: none; stroke: #000000; stroke-linejoin: miter"/>
   </g>
  </g>
  <g id="axes_28">
   <g id="patch_25">
    <path d="M 442.013462 35.932469 
Q 442.613297 35.257655 443.606772 34.826524 
Q 444.600248 34.395393 445.5 34.470372 
Q 446.137324 34.470372 446.62469 34.639076 
Q 447.112055 34.807779 447.430717 34.995228 
Q 447.749379 35.182676 447.974317 35.670041 
Q 448.199255 36.157407 448.311724 36.419834 
Q 448.424193 36.682262 448.480428 37.375821 
Q 448.536662 38.069379 448.555407 38.331807 
Q 448.574152 38.594234 448.555407 39.419007 
Q 448.536662 40.243779 448.536662 40.431228 
Q 448.536662 41.368469 448.367959 43.242952 
Q 448.199255 45.117434 448.199255 46.054676 
Q 448.199255 46.467062 448.25549 46.823214 
Q 448.311724 47.179366 448.405448 47.610497 
Q 448.499172 48.041628 448.536662 48.304055 
L 448.986538 48.528993 
M 442.463338 23.111007 
Q 442.688276 24.798041 442.688276 29.971614 
L 442.688276 42.3432 
L 442.350869 46.841959 
L 442.125931 47.74171 
" clip-path="url(#pf15bd83f3c)" style="fill: none; stroke: #000000; stroke-linejoin: miter"/>
   </g>
  </g>
  <g id="axes_29">
   <g id="patch_26">
    <path d="M 462.318579 29.071862 
Q 461.943683 29.146841 461.812469 29.577972 
Q 461.681255 30.009103 461.756234 30.42149 
Q 461.756234 30.571448 461.793724 30.702662 
Q 461.831214 30.833876 461.887448 30.89011 
Q 461.943683 30.946345 461.999917 31.040069 
Q 462.056152 31.133793 462.093641 31.208772 
L 462.20611 29.859145 
M 462.20611 34.020497 
Q 461.306359 39.006621 461.081421 42.793076 
L 461.531297 45.379862 
L 461.868703 46.054676 
" clip-path="url(#paea4283889)" style="fill: none; stroke: #000000; stroke-linejoin: miter"/>
   </g>
  </g>
  <g id="axes_30">
   <g id="patch_27">
    <path d="M 473.438731 37.282097 
L 473.438731 37.844441 
Q 473.701159 39.868883 473.738648 41.312234 
Q 473.776138 42.755586 473.682414 44.667559 
Q 473.58869 46.579531 473.58869 48.191586 
L 473.663669 39.643945 
Q 473.663669 38.144359 475.256979 37.507034 
Q 476.85029 36.86971 478.274897 37.282097 
Q 480.186869 37.844441 481.105366 39.04411 
Q 482.023862 40.243779 482.080097 41.668386 
Q 482.136331 43.092993 482.173821 44.817517 
Q 482.21131 46.542041 482.361269 48.191586 
" clip-path="url(#p935b777305)" style="fill: none; stroke: #000000; stroke-linejoin: miter"/>
   </g>
  </g>
  <g id="axes_31"/>
  <g id="axes_32">
   <g id="patch_28">
    <path d="M 503.916102 36.437797 
L 505.151695 44.778051 
Q 505.254661 45.567458 505.254661 45.60178 
Q 505.254661 45.704746 505.563559 45.704746 
Q 506.42161 45.704746 507.142373 44.778051 
Q 507.863136 43.851356 508.275 42.718729 
Q 508.686864 41.586102 509.201695 40.659407 
Q 509.716525 39.732712 510.197034 39.732712 
Q 510.814831 39.732712 511.449788 40.607924 
Q 512.084746 41.483136 512.548093 42.512797 
Q 513.011441 43.542458 513.68072 44.417669 
Q 514.35 45.292881 515.036441 45.292881 
Q 515.311017 43.782712 515.740042 39.69839 
Q 516.169068 35.614068 516.683898 33.554746 
" clip-path="url(#p169b38e8b9)" style="fill: none; stroke: #000000; stroke-linejoin: miter"/>
   </g>
  </g>
  <g id="axes_33">
   <g id="patch_29">
    <path d="M 523.013462 35.932469 
Q 523.613297 35.257655 524.606772 34.826524 
Q 525.600248 34.395393 526.5 34.470372 
Q 527.137324 34.470372 527.62469 34.639076 
Q 528.112055 34.807779 528.430717 34.995228 
Q 528.749379 35.182676 528.974317 35.670041 
Q 529.199255 36.157407 529.311724 36.419834 
Q 529.424193 36.682262 529.480428 37.375821 
Q 529.536662 38.069379 529.555407 38.331807 
Q 529.574152 38.594234 529.555407 39.419007 
Q 529.536662 40.243779 529.536662 40.431228 
Q 529.536662 41.368469 529.367959 43.242952 
Q 529.199255 45.117434 529.199255 46.054676 
Q 529.199255 46.467062 529.25549 46.823214 
Q 529.311724 47.179366 529.405448 47.610497 
Q 529.499172 48.041628 529.536662 48.304055 
L 529.986538 48.528993 
M 523.463338 23.111007 
Q 523.688276 24.798041 523.688276 29.971614 
L 523.688276 42.3432 
L 523.350869 46.841959 
L 523.125931 47.74171 
" clip-path="url(#p2c8d17780d)" style="fill: none; stroke: #000000; stroke-linejoin: miter"/>
   </g>
  </g>
  <g id="axes_34">
   <g id="patch_30">
    <path d="M 543.318579 29.071862 
Q 542.943683 29.146841 542.812469 29.577972 
Q 542.681255 30.009103 542.756234 30.42149 
Q 542.756234 30.571448 542.793724 30.702662 
Q 542.831214 30.833876 542.887448 30.89011 
Q 542.943683 30.946345 542.999917 31.040069 
Q 543.056152 31.133793 543.093641 31.208772 
L 543.20611 29.859145 
M 543.20611 34.020497 
Q 542.306359 39.006621 542.081421 42.793076 
L 542.531297 45.379862 
L 542.868703 46.054676 
" clip-path="url(#p03ff4a5228)" style="fill: none; stroke: #000000; stroke-linejoin: miter"/>
   </g>
  </g>
  <g id="axes_35">
   <g id="patch_31">
    <path d="M 564.156735 34.365306 
Q 564.156735 34.365306 563.660816 34.365306 
Q 562.867347 34.365306 561.379592 34.067755 
Q 559.891837 33.770204 559.098367 33.770204 
Q 556.321224 33.770204 554.387143 35.224898 
Q 552.453061 36.679592 552.453061 39.423673 
Q 552.453061 40.94449 553.940816 42.399184 
Q 555.428571 43.853878 557.362653 44.663878 
Q 559.296735 45.473878 560.78449 45.473878 
Q 561.710204 45.473878 562.40449 45.110204 
Q 563.098776 44.746531 563.842653 44.118367 
Q 564.586531 43.490204 565.148571 43.192653 
L 565.346939 42.696735 
" clip-path="url(#pfd4fbd9ea7)" style="fill: none; stroke: #000000; stroke-linejoin: miter"/>
   </g>
  </g>
  <g id="axes_36">
   <g id="patch_32">
    <path d="M 571.613462 35.932469 
Q 572.213297 35.257655 573.206772 34.826524 
Q 574.200248 34.395393 575.1 34.470372 
Q 575.737324 34.470372 576.22469 34.639076 
Q 576.712055 34.807779 577.030717 34.995228 
Q 577.349379 35.182676 577.574317 35.670041 
Q 577.799255 36.157407 577.911724 36.419834 
Q 578.024193 36.682262 578.080428 37.375821 
Q 578.136662 38.069379 578.155407 38.331807 
Q 578.174152 38.594234 578.155407 39.419007 
Q 578.136662 40.243779 578.136662 40.431228 
Q 578.136662 41.368469 577.967959 43.242952 
Q 577.799255 45.117434 577.799255 46.054676 
Q 577.799255 46.467062 577.85549 46.823214 
Q 577.911724 47.179366 578.005448 47.610497 
Q 578.099172 48.041628 578.136662 48.304055 
L 578.586538 48.528993 
M 572.063338 23.111007 
Q 572.288276 24.798041 572.288276 29.971614 
L 572.288276 42.3432 
L 571.950869 46.841959 
L 571.725931 47.74171 
" clip-path="url(#p3c483c70f8)" style="fill: none; stroke: #000000; stroke-linejoin: miter"/>
   </g>
  </g>
  <g id="axes_37"/>
  <g id="axes_38">
   <g id="patch_33">
    <path d="M 607.106359 28.621986 
Q 607.331297 30.34651 607.406276 32.146014 
Q 607.481255 33.945517 607.46251 36.551048 
Q 607.443766 39.156579 607.443766 40.093821 
Q 607.443766 40.13131 607.668703 45.829738 
L 607.893641 46.841959 
" clip-path="url(#p3ee42957da)" style="fill: none; stroke: #000000; stroke-linejoin: miter"/>
   </g>
  </g>
  <g id="axes_39">
   <g id="patch_34">
    <path d="M 629.243923 36.441748 
Q 628.034968 35.094627 624.062687 35.094627 
Q 622.542857 35.094627 621.765672 35.146439 
Q 620.988486 35.198252 619.98678 35.440043 
Q 618.985075 35.681834 618.501493 36.182687 
Q 618.01791 36.683539 617.672495 37.616162 
Q 617.327079 38.548785 617.327079 39.964989 
Q 617.327079 42.037484 618.743284 43.280981 
Q 620.159488 44.524478 622.093817 44.524478 
Q 624.753518 44.524478 627.516844 38.721493 
Q 628.863966 35.854542 628.863966 35.82 
Q 629.209382 35.578209 629.243923 36.441748 
Q 629.243923 37.512537 629.658422 40.362217 
Q 630.072921 43.211898 630.072921 44.524478 
" clip-path="url(#p2a6ed63f27)" style="fill: none; stroke: #000000; stroke-linejoin: miter"/>
   </g>
  </g>
  <g id="axes_40">
   <g id="patch_35">
    <path d="M 634.763917 36.382345 
Q 634.726428 36.494814 634.857641 36.701007 
Q 634.988855 36.9072 634.876386 37.057159 
L 634.876386 39.306538 
Q 634.876386 40.506207 635.213793 41.724621 
Q 635.5512 42.943034 636.413462 43.93651 
Q 637.275724 44.929986 638.475393 44.929986 
Q 639.712552 44.929986 640.387366 43.861531 
Q 641.062179 42.793076 641.512055 41.143531 
Q 641.961931 39.493986 642.299338 38.969131 
L 643.086621 36.382345 
L 642.861683 42.680607 
L 642.861683 45.154924 
Q 642.861683 47.066897 643.592731 51.00331 
Q 644.323779 54.939724 644.323779 56.964166 
Q 645.073572 59.213545 643.986372 60.188276 
Q 642.899172 61.163007 640.837241 60.78811 
Q 639.037738 60.488193 638.119241 60.169531 
Q 637.200745 59.850869 635.213793 58.988607 
L 635.101324 58.426262 
" clip-path="url(#pae30718362)" style="fill: none; stroke: #000000; stroke-linejoin: miter"/>
   </g>
  </g>
 </g>
 <defs>
  <clipPath id="p2fb8eb5ee8">
   <rect x="1.389352" y="8.64" width="13.421297" height="54.36"/>
  </clipPath>
  <clipPath id="pf5c4f38687">
   <rect x="18.938979" y="8.64" width="10.722041" height="54.36"/>
  </clipPath>
  <clipPath id="pbb82b37b91">
   <rect x="32.4" y="8.881927" width="16.2" height="53.876147"/>
  </clipPath>
  <clipPath id="p0fcbb92c8d">
   <rect x="64.8" y="16.080504" width="16.2" height="39.478992"/>
  </clipPath>
  <clipPath id="p5b880df7ad">
   <rect x="81" y="10.777356" width="16.2" height="50.085288"/>
  </clipPath>
  <clipPath id="p575c15225f">
   <rect x="99.151697" y="8.64" width="12.296607" height="54.36"/>
  </clipPath>
  <clipPath id="p9d7b7c2ad0">
   <rect x="113.4" y="8.881927" width="16.2" height="53.876147"/>
  </clipPath>
  <clipPath id="p8d2978aba2">
   <rect x="132.338979" y="8.64" width="10.722041" height="54.36"/>
  </clipPath>
  <clipPath id="p99b44fa7ce">
   <rect x="147.564248" y="8.64" width="12.671503" height="54.36"/>
  </clipPath>
  <clipPath id="p5137f9fbf9">
   <rect x="178.802069" y="8.64" width="14.995862" height="54.36"/>
  </clipPath>
  <clipPath id="p2e23112c41">
   <rect x="194.4" y="9.949956" width="16.2" height="51.740088"/>
  </clipPath>
  <clipPath id="p01062c9977">
   <rect x="226.8" y="15.674202" width="16.2" height="40.291595"/>
  </clipPath>
  <clipPath id="pdaea46317a">
   <rect x="245.738979" y="8.64" width="10.722041" height="54.36"/>
  </clipPath>
  <clipPath id="p0a0a68a82f">
   <rect x="259.2" y="10.777356" width="16.2" height="50.085288"/>
  </clipPath>
  <clipPath id="p1303730704">
   <rect x="277.164248" y="8.64" width="12.671503" height="54.36"/>
  </clipPath>
  <clipPath id="p6047fe0b6c">
   <rect x="291.6" y="9.426742" width="16.2" height="52.786517"/>
  </clipPath>
  <clipPath id="pa902be829b">
   <rect x="307.8" y="10.777356" width="16.2" height="50.085288"/>
  </clipPath>
  <clipPath id="pd369dd5907">
   <rect x="326.738979" y="8.64" width="10.722041" height="54.36"/>
  </clipPath>
  <clipPath id="pdf408d1569">
   <rect x="341.589352" y="8.64" width="13.421297" height="54.36"/>
  </clipPath>
  <clipPath id="p9fe59a6daa">
   <rect x="359.138979" y="8.64" width="10.722041" height="54.36"/>
  </clipPath>
  <clipPath id="p106b38b7f3">
   <rect x="388.8" y="10.936525" width="16.2" height="49.766949"/>
  </clipPath>
  <clipPath id="pd374c74f96">
   <rect x="410.606938" y="8.64" width="4.986124" height="54.36"/>
  </clipPath>
  <clipPath id="p8ac262fff0">
   <rect x="422.589352" y="8.64" width="13.421297" height="54.36"/>
  </clipPath>
  <clipPath id="pf15bd83f3c">
   <rect x="440.138979" y="8.64" width="10.722041" height="54.36"/>
  </clipPath>
  <clipPath id="paea4283889">
   <rect x="459.206938" y="8.64" width="4.986124" height="54.36"/>
  </clipPath>
  <clipPath id="p935b777305">
   <rect x="471.564248" y="8.64" width="12.671503" height="54.36"/>
  </clipPath>
  <clipPath id="p169b38e8b9">
   <rect x="502.2" y="10.936525" width="16.2" height="49.766949"/>
  </clipPath>
  <clipPath id="p2c8d17780d">
   <rect x="521.138979" y="8.64" width="10.722041" height="54.36"/>
  </clipPath>
  <clipPath id="p03ff4a5228">
   <rect x="540.206938" y="8.64" width="4.986124" height="54.36"/>
  </clipPath>
  <clipPath id="pfd4fbd9ea7">
   <rect x="550.8" y="11.850612" width="16.2" height="47.938776"/>
  </clipPath>
  <clipPath id="p3c483c70f8">
   <rect x="569.738979" y="8.64" width="10.722041" height="54.36"/>
  </clipPath>
  <clipPath id="p3ee42957da">
   <rect x="605.231876" y="8.64" width="4.536248" height="54.36"/>
  </clipPath>
  <clipPath id="p2a6ed63f27">
   <rect x="615.6" y="10.777356" width="16.2" height="50.085288"/>
  </clipPath>
  <clipPath id="pae30718362">
   <rect x="632.851945" y="8.64" width="14.09611" height="54.36"/>
  </clipPath>
 </defs>
</svg>
