<?xml version="1.0" encoding="utf-8" standalone="no"?>
<!DOCTYPE svg PUBLIC "-//W3C//DTD SVG 1.1//EN"
  "http://www.w3.org/Graphics/SVG/1.1/DTD/svg11.dtd">
<svg xmlns:xlink="http://www.w3.org/1999/xlink" width="216pt" height="72pt" viewBox="0 0 216 72" xmlns="http://www.w3.org/2000/svg" version="1.1">
 <metadata>
  <rdf:RDF xmlns:dc="http://purl.org/dc/elements/1.1/" xmlns:cc="http://creativecommons.org/ns#" xmlns:rdf="http://www.w3.org/1999/02/22-rdf-syntax-ns#">
   <cc:Work>
    <dc:type rdf:resource="http://purl.org/dc/dcmitype/StillImage"/>
    <dc:date>2024-01-04T18:46:15.266542</dc:date>
    <dc:format>image/svg+xml</dc:format>
    <dc:creator>
     <cc:Agent>
      <dc:title>Matplotlib v3.7.1, https://matplotlib.org/</dc:title>
     </cc:Agent>
    </dc:creator>
   </cc:Work>
  </rdf:RDF>
 </metadata>
 <defs>
  <style type="text/css">*{stroke-linejoin: round; stroke-linecap: butt}</style>
 </defs>
 <g id="figure_1">
  <g id="patch_1">
   <path d="M 0 72 
L 216 72 
L 216 0 
L 0 0 
z
" style="fill: #8fff9f"/>
  </g>
  <g id="axes_1">
   <g id="patch_2">
    <path d="M 3.657476 43.917766 
Q 3.957393 44.180193 4.969614 45.154924 
Q 5.981834 46.129655 6.544179 46.560786 
Q 7.106524 46.991917 8.13749 47.385559 
Q 9.168455 47.7792 10.180676 47.629241 
Q 10.85549 47.629241 11.32411 47.404303 
Q 11.792731 47.179366 12.017669 46.879448 
Q 12.242607 46.579531 12.373821 45.979697 
Q 12.505034 45.379862 12.523779 44.967476 
Q 12.542524 44.55509 12.542524 43.805297 
Q 12.542524 42.718097 11.642772 42.043283 
Q 10.743021 41.368469 9.449628 41.031062 
Q 8.156234 40.693655 6.862841 40.300014 
Q 5.569448 39.906372 4.669697 38.987876 
Q 3.769945 38.069379 3.769945 36.607283 
Q 3.769945 36.082428 3.938648 35.726276 
Q 4.107352 35.370124 4.500993 35.145186 
Q 4.894634 34.920248 5.175807 34.807779 
Q 5.456979 34.69531 6.113048 34.639076 
Q 6.769117 34.582841 6.956566 34.582841 
Q 7.144014 34.582841 7.818828 34.582841 
Q 9.018497 34.582841 9.599586 34.995228 
Q 10.180676 35.407614 10.499338 36.026193 
Q 10.818 36.644772 11.080428 36.832221 
" clip-path="url(#pe431960a4d)" style="fill: none; stroke: #000000; stroke-linejoin: miter"/>
   </g>
  </g>
  <g id="axes_2">
   <g id="patch_3">
    <path d="M 19.463834 37.95691 
L 20.138648 37.95691 
Q 20.850952 37.95691 21.638234 37.881931 
Q 22.425517 37.806952 23.381503 37.675738 
Q 24.33749 37.544524 24.862345 37.507034 
L 29.136166 35.82 
M 25.087283 30.42149 
L 25.087283 31.43371 
Q 25.087283 33.383172 24.412469 37.207117 
Q 23.737655 41.031062 23.737655 43.018014 
Q 23.737655 43.805297 23.737655 44.105214 
Q 23.737655 44.405131 23.831379 45.042455 
Q 23.925103 45.679779 24.112552 45.960952 
Q 24.3 46.242124 24.693641 46.485807 
Q 25.087283 46.72949 25.649628 46.72949 
Q 25.762097 46.692 26.080759 46.72949 
Q 26.399421 46.766979 26.586869 46.710745 
Q 26.774317 46.65451 26.774317 46.392083 
" clip-path="url(#p20f2c28908)" style="fill: none; stroke: #000000; stroke-linejoin: miter"/>
   </g>
  </g>
  <g id="axes_3">
   <g id="patch_4">
    <path d="M 46.043923 36.441748 
Q 44.834968 35.094627 40.862687 35.094627 
Q 39.342857 35.094627 38.565672 35.146439 
Q 37.788486 35.198252 36.78678 35.440043 
Q 35.785075 35.681834 35.301493 36.182687 
Q 34.81791 36.683539 34.472495 37.616162 
Q 34.127079 38.548785 34.127079 39.964989 
Q 34.127079 42.037484 35.543284 43.280981 
Q 36.959488 44.524478 38.893817 44.524478 
Q 41.553518 44.524478 44.316844 38.721493 
Q 45.663966 35.854542 45.663966 35.82 
Q 46.009382 35.578209 46.043923 36.441748 
Q 46.043923 37.512537 46.458422 40.362217 
Q 46.872921 43.211898 46.872921 44.524478 
" clip-path="url(#p6b23891ea0)" style="fill: none; stroke: #000000; stroke-linejoin: miter"/>
   </g>
  </g>
  <g id="axes_4">
   <g id="patch_5">
    <path d="M 53.213462 32.783338 
Q 53.738317 34.507862 53.869531 36.457324 
Q 54.000745 38.406786 53.925766 40.956083 
Q 53.850786 43.505379 53.888276 44.705048 
L 54.000745 46.054676 
L 54.000745 45.829738 
Q 54.000745 44.667559 53.719572 42.30571 
Q 53.4384 39.943862 53.4384 38.744193 
Q 53.4384 36.419834 54.450621 34.882759 
Q 55.462841 33.345683 57.487283 33.345683 
Q 58.199586 33.345683 58.536993 33.626855 
Q 58.8744 33.908028 59.136828 34.432883 
Q 59.399255 34.957738 59.736662 35.257655 
L 60.186538 36.832221 
" clip-path="url(#p4c6c2e6d30)" style="fill: none; stroke: #000000; stroke-linejoin: miter"/>
   </g>
  </g>
  <g id="axes_5"/>
  <g id="axes_6">
   <g id="patch_6">
    <path d="M 92.699007 39.568966 
Q 91.349379 38.181848 89.1 38.444276 
Q 86.250786 38.444276 85.088607 39.793903 
Q 83.926428 41.143531 83.926428 44.067724 
Q 83.926428 45.56731 85.219821 46.279614 
Q 86.513214 46.991917 88.087779 46.991917 
Q 89.399917 46.991917 90.412138 45.736014 
Q 91.424359 44.48011 92.005448 42.30571 
Q 92.586538 40.13131 92.961434 37.938166 
Q 93.336331 35.745021 93.48629 33.045766 
Q 93.636248 30.34651 93.673738 28.978138 
Q 93.711228 27.609766 93.711228 26.185159 
Q 93.48629 26.260138 93.48629 29.896634 
L 93.48629 44.292662 
L 94.273572 48.229076 
" clip-path="url(#pd9ff18f649)" style="fill: none; stroke: #000000; stroke-linejoin: miter"/>
   </g>
  </g>
  <g id="axes_7">
   <g id="patch_7">
    <path d="M 105.918579 29.071862 
Q 105.543683 29.146841 105.412469 29.577972 
Q 105.281255 30.009103 105.356234 30.42149 
Q 105.356234 30.571448 105.393724 30.702662 
Q 105.431214 30.833876 105.487448 30.89011 
Q 105.543683 30.946345 105.599917 31.040069 
Q 105.656152 31.133793 105.693641 31.208772 
L 105.80611 29.859145 
M 105.80611 34.020497 
Q 104.906359 39.006621 104.681421 42.793076 
L 105.131297 45.379862 
L 105.468703 46.054676 
" clip-path="url(#p1d9979cff8)" style="fill: none; stroke: #000000; stroke-linejoin: miter"/>
   </g>
  </g>
  <g id="axes_8">
   <g id="patch_8">
    <path d="M 115.208036 34.879821 
Q 115.714286 36.073125 116.003571 42.871339 
Q 116.148214 46.632054 116.4375 46.632054 
Q 116.473661 46.632054 116.509821 46.595893 
Q 117.016071 46.017321 117.070312 44.588973 
Q 117.124554 43.160625 116.907589 41.750357 
Q 116.690625 40.340089 116.4375 38.712857 
Q 116.184375 37.085625 116.184375 36.398571 
Q 116.184375 35.169107 116.564063 33.939643 
Q 116.94375 32.710179 117.920089 32.710179 
Q 119.149554 32.710179 119.872768 34.355491 
Q 120.595982 36.000804 120.758705 37.971563 
Q 120.921429 39.942321 121.029911 41.587634 
Q 121.138393 43.232946 121.283036 43.232946 
Q 121.427679 43.232946 121.51808 41.497232 
Q 121.608482 39.761518 121.735045 37.700357 
Q 121.861607 35.639196 122.584821 33.903482 
Q 123.308036 32.167768 124.5375 32.167768 
Q 126.092411 33.035625 126.761384 34.771339 
Q 127.430357 36.507054 127.394196 38.188527 
Q 127.358036 39.87 127.376116 42.057723 
Q 127.394196 44.245446 127.791964 45.511071 
" clip-path="url(#pd0855c4729)" style="fill: none; stroke: #000000; stroke-linejoin: miter"/>
   </g>
  </g>
  <g id="axes_9">
   <g id="patch_9">
    <path d="M 131.408036 34.879821 
Q 131.914286 36.073125 132.203571 42.871339 
Q 132.348214 46.632054 132.6375 46.632054 
Q 132.673661 46.632054 132.709821 46.595893 
Q 133.216071 46.017321 133.270312 44.588973 
Q 133.324554 43.160625 133.107589 41.750357 
Q 132.890625 40.340089 132.6375 38.712857 
Q 132.384375 37.085625 132.384375 36.398571 
Q 132.384375 35.169107 132.764062 33.939643 
Q 133.14375 32.710179 134.120089 32.710179 
Q 135.349554 32.710179 136.072768 34.355491 
Q 136.795982 36.000804 136.958705 37.971563 
Q 137.121429 39.942321 137.229911 41.587634 
Q 137.338393 43.232946 137.483036 43.232946 
Q 137.627679 43.232946 137.71808 41.497232 
Q 137.808482 39.761518 137.935045 37.700357 
Q 138.061607 35.639196 138.784821 33.903482 
Q 139.508036 32.167768 140.7375 32.167768 
Q 142.292411 33.035625 142.961384 34.771339 
Q 143.630357 36.507054 143.594196 38.188527 
Q 143.558036 39.87 143.576116 42.057723 
Q 143.594196 44.245446 143.991964 45.511071 
" clip-path="url(#p36737e7420)" style="fill: none; stroke: #000000; stroke-linejoin: miter"/>
   </g>
  </g>
  <g id="axes_10">
   <g id="patch_10">
    <path d="M 147.657798 38.160826 
Q 150.630275 39.535596 155.349083 39.721376 
Q 156.872477 39.721376 157.559862 38.550963 
Q 158.247248 37.38055 158.247248 35.82 
Q 158.247248 35.299817 158.154358 34.909679 
Q 158.061468 34.519541 157.819954 34.296606 
Q 157.57844 34.07367 157.411239 33.943624 
Q 157.244037 33.813578 156.798165 33.757844 
Q 156.352294 33.70211 156.147936 33.683532 
Q 155.943578 33.664954 155.367661 33.683532 
Q 154.791743 33.70211 154.568807 33.70211 
Q 152.525229 33.70211 151.038991 35.578486 
Q 149.552752 37.454862 149.552752 39.609908 
Q 149.552752 42.619541 151.484862 44.570229 
Q 153.416972 46.520917 156.463761 46.520917 
Q 158.618807 46.818165 160.142202 44.29156 
" clip-path="url(#p52d2ee05b7)" style="fill: none; stroke: #000000; stroke-linejoin: miter"/>
   </g>
  </g>
  <g id="axes_11">
   <g id="patch_11">
    <path d="M 173.699007 39.568966 
Q 172.349379 38.181848 170.1 38.444276 
Q 167.250786 38.444276 166.088607 39.793903 
Q 164.926428 41.143531 164.926428 44.067724 
Q 164.926428 45.56731 166.219821 46.279614 
Q 167.513214 46.991917 169.087779 46.991917 
Q 170.399917 46.991917 171.412138 45.736014 
Q 172.424359 44.48011 173.005448 42.30571 
Q 173.586538 40.13131 173.961434 37.938166 
Q 174.336331 35.745021 174.48629 33.045766 
Q 174.636248 30.34651 174.673738 28.978138 
Q 174.711228 27.609766 174.711228 26.185159 
Q 174.48629 26.260138 174.48629 29.896634 
L 174.48629 44.292662 
L 175.273572 48.229076 
" clip-path="url(#pbcad77b02e)" style="fill: none; stroke: #000000; stroke-linejoin: miter"/>
   </g>
  </g>
  <g id="axes_12">
   <g id="patch_12">
    <path d="M 186.187531 45.979697 
Q 186.150041 46.017186 186.018828 46.054676 
Q 185.887614 46.092166 185.925103 46.167145 
Q 185.925103 46.579531 186.3 46.579531 
Q 186.637407 46.579531 186.637407 46.092166 
Q 186.712386 45.867228 186.431214 45.754759 
Q 186.150041 45.64229 185.962593 45.754759 
" clip-path="url(#p7c450425db)" style="fill: none; stroke: #000000; stroke-linejoin: miter"/>
   </g>
  </g>
 </g>
 <defs>
  <clipPath id="pe431960a4d">
   <rect x="1.782993" y="8.64" width="12.634014" height="54.36"/>
  </clipPath>
  <clipPath id="p20f2c28908">
   <rect x="17.589352" y="8.64" width="13.421297" height="54.36"/>
  </clipPath>
  <clipPath id="p6b23891ea0">
   <rect x="32.4" y="10.777356" width="16.2" height="50.085288"/>
  </clipPath>
  <clipPath id="p4c6c2e6d30">
   <rect x="51.338979" y="8.64" width="10.722041" height="54.36"/>
  </clipPath>
  <clipPath id="pd9ff18f649">
   <rect x="82.051945" y="8.64" width="14.09611" height="54.36"/>
  </clipPath>
  <clipPath id="p1d9979cff8">
   <rect x="102.806938" y="8.64" width="4.986124" height="54.36"/>
  </clipPath>
  <clipPath id="pd0855c4729">
   <rect x="113.4" y="9.603482" width="16.2" height="52.433036"/>
  </clipPath>
  <clipPath id="p36737e7420">
   <rect x="129.6" y="9.603482" width="16.2" height="52.433036"/>
  </clipPath>
  <clipPath id="p52d2ee05b7">
   <rect x="145.8" y="8.881927" width="16.2" height="53.876147"/>
  </clipPath>
  <clipPath id="pbcad77b02e">
   <rect x="163.051945" y="8.64" width="14.09611" height="54.36"/>
  </clipPath>
  <clipPath id="p7c450425db">
   <rect x="184.013131" y="8.64" width="4.573738" height="54.36"/>
  </clipPath>
 </defs>
</svg>
