<?xml version="1.0" encoding="utf-8" standalone="no"?>
<!DOCTYPE svg PUBLIC "-//W3C//DTD SVG 1.1//EN"
  "http://www.w3.org/Graphics/SVG/1.1/DTD/svg11.dtd">
<svg xmlns:xlink="http://www.w3.org/1999/xlink" width="738pt" height="72pt" viewBox="0 0 738 72" xmlns="http://www.w3.org/2000/svg" version="1.1">
 <metadata>
  <rdf:RDF xmlns:dc="http://purl.org/dc/elements/1.1/" xmlns:cc="http://creativecommons.org/ns#" xmlns:rdf="http://www.w3.org/1999/02/22-rdf-syntax-ns#">
   <cc:Work>
    <dc:type rdf:resource="http://purl.org/dc/dcmitype/StillImage"/>
    <dc:date>2024-01-04T18:46:29.004462</dc:date>
    <dc:format>image/svg+xml</dc:format>
    <dc:creator>
     <cc:Agent>
      <dc:title>Matplotlib v3.7.1, https://matplotlib.org/</dc:title>
     </cc:Agent>
    </dc:creator>
   </cc:Work>
  </rdf:RDF>
 </metadata>
 <defs>
  <style type="text/css">*{stroke-linejoin: round; stroke-linecap: butt}</style>
 </defs>
 <g id="figure_1">
  <g id="patch_1">
   <path d="M 0 72 
L 738 72 
L 738 0 
L 0 0 
z
" style="fill: #8fff9f"/>
  </g>
  <g id="axes_1">
   <g id="patch_2">
    <path d="M 7.706359 28.621986 
Q 7.931297 30.34651 8.006276 32.146014 
Q 8.081255 33.945517 8.06251 36.551048 
Q 8.043766 39.156579 8.043766 40.093821 
Q 8.043766 40.13131 8.268703 45.829738 
L 8.493641 46.841959 
" clip-path="url(#p89920b4b98)" style="fill: none; stroke: #000000; stroke-linejoin: miter"/>
   </g>
  </g>
  <g id="axes_2">
   <g id="patch_3">
    <path d="M 29.843923 36.441748 
Q 28.634968 35.094627 24.662687 35.094627 
Q 23.142857 35.094627 22.365672 35.146439 
Q 21.588486 35.198252 20.58678 35.440043 
Q 19.585075 35.681834 19.101493 36.182687 
Q 18.61791 36.683539 18.272495 37.616162 
Q 17.927079 38.548785 17.927079 39.964989 
Q 17.927079 42.037484 19.343284 43.280981 
Q 20.759488 44.524478 22.693817 44.524478 
Q 25.353518 44.524478 28.116844 38.721493 
Q 29.463966 35.854542 29.463966 35.82 
Q 29.809382 35.578209 29.843923 36.441748 
Q 29.843923 37.512537 30.258422 40.362217 
Q 30.672921 43.211898 30.672921 44.524478 
" clip-path="url(#p88e1aa56c5)" style="fill: none; stroke: #000000; stroke-linejoin: miter"/>
   </g>
  </g>
  <g id="axes_3">
   <g id="patch_4">
    <path d="M 44.099007 39.568966 
Q 42.749379 38.181848 40.5 38.444276 
Q 37.650786 38.444276 36.488607 39.793903 
Q 35.326428 41.143531 35.326428 44.067724 
Q 35.326428 45.56731 36.619821 46.279614 
Q 37.913214 46.991917 39.487779 46.991917 
Q 40.799917 46.991917 41.812138 45.736014 
Q 42.824359 44.48011 43.405448 42.30571 
Q 43.986538 40.13131 44.361434 37.938166 
Q 44.736331 35.745021 44.88629 33.045766 
Q 45.036248 30.34651 45.073738 28.978138 
Q 45.111228 27.609766 45.111228 26.185159 
Q 44.88629 26.260138 44.88629 29.896634 
L 44.88629 44.292662 
L 45.673572 48.229076 
" clip-path="url(#pbe67b66168)" style="fill: none; stroke: #000000; stroke-linejoin: miter"/>
   </g>
  </g>
  <g id="axes_4">
   <g id="patch_5">
    <path d="M 51.563917 36.382345 
Q 51.526428 36.494814 51.657641 36.701007 
Q 51.788855 36.9072 51.676386 37.057159 
L 51.676386 39.306538 
Q 51.676386 40.506207 52.013793 41.724621 
Q 52.3512 42.943034 53.213462 43.93651 
Q 54.075724 44.929986 55.275393 44.929986 
Q 56.512552 44.929986 57.187366 43.861531 
Q 57.862179 42.793076 58.312055 41.143531 
Q 58.761931 39.493986 59.099338 38.969131 
L 59.886621 36.382345 
L 59.661683 42.680607 
L 59.661683 45.154924 
Q 59.661683 47.066897 60.392731 51.00331 
Q 61.123779 54.939724 61.123779 56.964166 
Q 61.873572 59.213545 60.786372 60.188276 
Q 59.699172 61.163007 57.637241 60.78811 
Q 55.837738 60.488193 54.919241 60.169531 
Q 54.000745 59.850869 52.013793 58.988607 
L 51.901324 58.426262 
" clip-path="url(#p3812e8147b)" style="fill: none; stroke: #000000; stroke-linejoin: miter"/>
   </g>
  </g>
  <g id="axes_5">
   <g id="patch_6">
    <path d="M 72.187697 39.981352 
Q 73.199917 40.956083 73.537324 42.905545 
Q 73.724772 43.955255 73.312386 46.167145 
L 72.075228 47.629241 
" clip-path="url(#p7f786ebe46)" style="fill: none; stroke: #000000; stroke-linejoin: miter"/>
   </g>
  </g>
  <g id="axes_6"/>
  <g id="axes_7">
   <g id="patch_7">
    <path d="M 100.463834 37.95691 
L 101.138648 37.95691 
Q 101.850952 37.95691 102.638234 37.881931 
Q 103.425517 37.806952 104.381503 37.675738 
Q 105.33749 37.544524 105.862345 37.507034 
L 110.136166 35.82 
M 106.087283 30.42149 
L 106.087283 31.43371 
Q 106.087283 33.383172 105.412469 37.207117 
Q 104.737655 41.031062 104.737655 43.018014 
Q 104.737655 43.805297 104.737655 44.105214 
Q 104.737655 44.405131 104.831379 45.042455 
Q 104.925103 45.679779 105.112552 45.960952 
Q 105.3 46.242124 105.693641 46.485807 
Q 106.087283 46.72949 106.649628 46.72949 
Q 106.762097 46.692 107.080759 46.72949 
Q 107.399421 46.766979 107.586869 46.710745 
Q 107.774317 46.65451 107.774317 46.392083 
" clip-path="url(#pd62373d044)" style="fill: none; stroke: #000000; stroke-linejoin: miter"/>
   </g>
  </g>
  <g id="axes_8">
   <g id="patch_8">
    <path d="M 124.7616 35.032717 
Q 123.71189 34.582841 122.737159 34.69531 
Q 119.700497 35.032717 117.788524 36.701007 
Q 115.876552 38.369297 115.876552 41.330979 
Q 115.876552 43.917766 117.882248 45.6048 
Q 119.887945 47.291834 122.512221 47.291834 
Q 124.874069 47.291834 125.998759 45.361117 
Q 127.123448 43.4304 127.123448 40.881103 
Q 127.123448 39.643945 126.711062 38.706703 
Q 126.298676 37.769462 125.773821 37.300841 
Q 125.248966 36.832221 124.499172 36.119917 
Q 123.749379 35.407614 123.299503 34.69531 
L 122.062345 34.245434 
" clip-path="url(#pdf75cd9579)" style="fill: none; stroke: #000000; stroke-linejoin: miter"/>
   </g>
  </g>
  <g id="axes_9"/>
  <g id="axes_10">
   <g id="patch_9">
    <path d="M 149.063834 37.95691 
L 149.738648 37.95691 
Q 150.450952 37.95691 151.238234 37.881931 
Q 152.025517 37.806952 152.981503 37.675738 
Q 153.93749 37.544524 154.462345 37.507034 
L 158.736166 35.82 
M 154.687283 30.42149 
L 154.687283 31.43371 
Q 154.687283 33.383172 154.012469 37.207117 
Q 153.337655 41.031062 153.337655 43.018014 
Q 153.337655 43.805297 153.337655 44.105214 
Q 153.337655 44.405131 153.431379 45.042455 
Q 153.525103 45.679779 153.712552 45.960952 
Q 153.9 46.242124 154.293641 46.485807 
Q 154.687283 46.72949 155.249628 46.72949 
Q 155.362097 46.692 155.680759 46.72949 
Q 155.999421 46.766979 156.186869 46.710745 
Q 156.374317 46.65451 156.374317 46.392083 
" clip-path="url(#pf495289271)" style="fill: none; stroke: #000000; stroke-linejoin: miter"/>
   </g>
  </g>
  <g id="axes_11">
   <g id="patch_10">
    <path d="M 166.613462 35.932469 
Q 167.213297 35.257655 168.206772 34.826524 
Q 169.200248 34.395393 170.1 34.470372 
Q 170.737324 34.470372 171.22469 34.639076 
Q 171.712055 34.807779 172.030717 34.995228 
Q 172.349379 35.182676 172.574317 35.670041 
Q 172.799255 36.157407 172.911724 36.419834 
Q 173.024193 36.682262 173.080428 37.375821 
Q 173.136662 38.069379 173.155407 38.331807 
Q 173.174152 38.594234 173.155407 39.419007 
Q 173.136662 40.243779 173.136662 40.431228 
Q 173.136662 41.368469 172.967959 43.242952 
Q 172.799255 45.117434 172.799255 46.054676 
Q 172.799255 46.467062 172.85549 46.823214 
Q 172.911724 47.179366 173.005448 47.610497 
Q 173.099172 48.041628 173.136662 48.304055 
L 173.586538 48.528993 
M 167.063338 23.111007 
Q 167.288276 24.798041 167.288276 29.971614 
L 167.288276 42.3432 
L 166.950869 46.841959 
L 166.725931 47.74171 
" clip-path="url(#p9e8d371efb)" style="fill: none; stroke: #000000; stroke-linejoin: miter"/>
   </g>
  </g>
  <g id="axes_12">
   <g id="patch_11">
    <path d="M 180.057798 38.160826 
Q 183.030275 39.535596 187.749083 39.721376 
Q 189.272477 39.721376 189.959862 38.550963 
Q 190.647248 37.38055 190.647248 35.82 
Q 190.647248 35.299817 190.554358 34.909679 
Q 190.461468 34.519541 190.219954 34.296606 
Q 189.97844 34.07367 189.811239 33.943624 
Q 189.644037 33.813578 189.198165 33.757844 
Q 188.752294 33.70211 188.547936 33.683532 
Q 188.343578 33.664954 187.767661 33.683532 
Q 187.191743 33.70211 186.968807 33.70211 
Q 184.925229 33.70211 183.438991 35.578486 
Q 181.952752 37.454862 181.952752 39.609908 
Q 181.952752 42.619541 183.884862 44.570229 
Q 185.816972 46.520917 188.863761 46.520917 
Q 191.018807 46.818165 192.542202 44.29156 
" clip-path="url(#pc0d261fab8)" style="fill: none; stroke: #000000; stroke-linejoin: miter"/>
   </g>
  </g>
  <g id="axes_13"/>
  <g id="axes_14">
   <g id="patch_12">
    <path d="M 221.9616 35.032717 
Q 220.91189 34.582841 219.937159 34.69531 
Q 216.900497 35.032717 214.988524 36.701007 
Q 213.076552 38.369297 213.076552 41.330979 
Q 213.076552 43.917766 215.082248 45.6048 
Q 217.087945 47.291834 219.712221 47.291834 
Q 222.074069 47.291834 223.198759 45.361117 
Q 224.323448 43.4304 224.323448 40.881103 
Q 224.323448 39.643945 223.911062 38.706703 
Q 223.498676 37.769462 222.973821 37.300841 
Q 222.448966 36.832221 221.699172 36.119917 
Q 220.949379 35.407614 220.499503 34.69531 
L 219.262345 34.245434 
" clip-path="url(#pa1bf375727)" style="fill: none; stroke: #000000; stroke-linejoin: miter"/>
   </g>
  </g>
  <g id="axes_15">
   <g id="patch_13">
    <path d="M 230.120069 39.868883 
L 230.120069 39.419007 
Q 230.120069 37.769462 231.863338 36.682262 
Q 233.606607 35.595062 235.293641 35.595062 
Q 237.505531 35.595062 238.873903 36.794731 
Q 240.242276 37.9944 240.242276 40.20629 
Q 240.242276 42.30571 238.424028 43.336676 
Q 236.605779 44.367641 234.39389 44.367641 
Q 233.719076 44.367641 233.212966 44.255172 
Q 232.706855 44.142703 232.088276 43.917766 
Q 231.469697 43.692828 231.019821 43.580359 
L 229.895131 42.568138 
M 229.557724 36.832221 
Q 230.0076 38.444276 230.270028 40.262524 
Q 230.532455 42.080772 230.58869 43.749062 
Q 230.644924 45.417352 230.682414 47.27309 
Q 230.719903 49.128828 230.682414 50.778372 
L 230.569945 57.863917 
" clip-path="url(#p20db368ccb)" style="fill: none; stroke: #000000; stroke-linejoin: miter"/>
   </g>
  </g>
  <g id="axes_16">
   <g id="patch_14">
    <path d="M 246.320069 39.868883 
L 246.320069 39.419007 
Q 246.320069 37.769462 248.063338 36.682262 
Q 249.806607 35.595062 251.493641 35.595062 
Q 253.705531 35.595062 255.073903 36.794731 
Q 256.442276 37.9944 256.442276 40.20629 
Q 256.442276 42.30571 254.624028 43.336676 
Q 252.805779 44.367641 250.59389 44.367641 
Q 249.919076 44.367641 249.412966 44.255172 
Q 248.906855 44.142703 248.288276 43.917766 
Q 247.669697 43.692828 247.219821 43.580359 
L 246.095131 42.568138 
M 245.757724 36.832221 
Q 246.2076 38.444276 246.470028 40.262524 
Q 246.732455 42.080772 246.78869 43.749062 
Q 246.844924 45.417352 246.882414 47.27309 
Q 246.919903 49.128828 246.882414 50.778372 
L 246.769945 57.863917 
" clip-path="url(#pee8581daf0)" style="fill: none; stroke: #000000; stroke-linejoin: miter"/>
   </g>
  </g>
  <g id="axes_17">
   <g id="patch_15">
    <path d="M 270.5616 35.032717 
Q 269.51189 34.582841 268.537159 34.69531 
Q 265.500497 35.032717 263.588524 36.701007 
Q 261.676552 38.369297 261.676552 41.330979 
Q 261.676552 43.917766 263.682248 45.6048 
Q 265.687945 47.291834 268.312221 47.291834 
Q 270.674069 47.291834 271.798759 45.361117 
Q 272.923448 43.4304 272.923448 40.881103 
Q 272.923448 39.643945 272.511062 38.706703 
Q 272.098676 37.769462 271.573821 37.300841 
Q 271.048966 36.832221 270.299172 36.119917 
Q 269.549379 35.407614 269.099503 34.69531 
L 267.862345 34.245434 
" clip-path="url(#p6961509693)" style="fill: none; stroke: #000000; stroke-linejoin: miter"/>
   </g>
  </g>
  <g id="axes_18">
   <g id="patch_16">
    <path d="M 279.057476 43.917766 
Q 279.357393 44.180193 280.369614 45.154924 
Q 281.381834 46.129655 281.944179 46.560786 
Q 282.506524 46.991917 283.53749 47.385559 
Q 284.568455 47.7792 285.580676 47.629241 
Q 286.25549 47.629241 286.72411 47.404303 
Q 287.192731 47.179366 287.417669 46.879448 
Q 287.642607 46.579531 287.773821 45.979697 
Q 287.905034 45.379862 287.923779 44.967476 
Q 287.942524 44.55509 287.942524 43.805297 
Q 287.942524 42.718097 287.042772 42.043283 
Q 286.143021 41.368469 284.849628 41.031062 
Q 283.556234 40.693655 282.262841 40.300014 
Q 280.969448 39.906372 280.069697 38.987876 
Q 279.169945 38.069379 279.169945 36.607283 
Q 279.169945 36.082428 279.338648 35.726276 
Q 279.507352 35.370124 279.900993 35.145186 
Q 280.294634 34.920248 280.575807 34.807779 
Q 280.856979 34.69531 281.513048 34.639076 
Q 282.169117 34.582841 282.356566 34.582841 
Q 282.544014 34.582841 283.218828 34.582841 
Q 284.418497 34.582841 284.999586 34.995228 
Q 285.580676 35.407614 285.899338 36.026193 
Q 286.218 36.644772 286.480428 36.832221 
" clip-path="url(#pfec0ad3f32)" style="fill: none; stroke: #000000; stroke-linejoin: miter"/>
   </g>
  </g>
  <g id="axes_19">
   <g id="patch_17">
    <path d="M 300.318579 29.071862 
Q 299.943683 29.146841 299.812469 29.577972 
Q 299.681255 30.009103 299.756234 30.42149 
Q 299.756234 30.571448 299.793724 30.702662 
Q 299.831214 30.833876 299.887448 30.89011 
Q 299.943683 30.946345 299.999917 31.040069 
Q 300.056152 31.133793 300.093641 31.208772 
L 300.20611 29.859145 
M 300.20611 34.020497 
Q 299.306359 39.006621 299.081421 42.793076 
L 299.531297 45.379862 
L 299.868703 46.054676 
" clip-path="url(#p30a671fced)" style="fill: none; stroke: #000000; stroke-linejoin: miter"/>
   </g>
  </g>
  <g id="axes_20">
   <g id="patch_18">
    <path d="M 311.063834 37.95691 
L 311.738648 37.95691 
Q 312.450952 37.95691 313.238234 37.881931 
Q 314.025517 37.806952 314.981503 37.675738 
Q 315.93749 37.544524 316.462345 37.507034 
L 320.736166 35.82 
M 316.687283 30.42149 
L 316.687283 31.43371 
Q 316.687283 33.383172 316.012469 37.207117 
Q 315.337655 41.031062 315.337655 43.018014 
Q 315.337655 43.805297 315.337655 44.105214 
Q 315.337655 44.405131 315.431379 45.042455 
Q 315.525103 45.679779 315.712552 45.960952 
Q 315.9 46.242124 316.293641 46.485807 
Q 316.687283 46.72949 317.249628 46.72949 
Q 317.362097 46.692 317.680759 46.72949 
Q 317.999421 46.766979 318.186869 46.710745 
Q 318.374317 46.65451 318.374317 46.392083 
" clip-path="url(#pb467fa15d3)" style="fill: none; stroke: #000000; stroke-linejoin: miter"/>
   </g>
  </g>
  <g id="axes_21">
   <g id="patch_19">
    <path d="M 325.857798 38.160826 
Q 328.830275 39.535596 333.549083 39.721376 
Q 335.072477 39.721376 335.759862 38.550963 
Q 336.447248 37.38055 336.447248 35.82 
Q 336.447248 35.299817 336.354358 34.909679 
Q 336.261468 34.519541 336.019954 34.296606 
Q 335.77844 34.07367 335.611239 33.943624 
Q 335.444037 33.813578 334.998165 33.757844 
Q 334.552294 33.70211 334.347936 33.683532 
Q 334.143578 33.664954 333.567661 33.683532 
Q 332.991743 33.70211 332.768807 33.70211 
Q 330.725229 33.70211 329.238991 35.578486 
Q 327.752752 37.454862 327.752752 39.609908 
Q 327.752752 42.619541 329.684862 44.570229 
Q 331.616972 46.520917 334.663761 46.520917 
Q 336.818807 46.818165 338.342202 44.29156 
" clip-path="url(#pdf8f1acc8b)" style="fill: none; stroke: #000000; stroke-linejoin: miter"/>
   </g>
  </g>
  <g id="axes_22"/>
  <g id="axes_23">
   <g id="patch_20">
    <path d="M 360.057476 43.917766 
Q 360.357393 44.180193 361.369614 45.154924 
Q 362.381834 46.129655 362.944179 46.560786 
Q 363.506524 46.991917 364.53749 47.385559 
Q 365.568455 47.7792 366.580676 47.629241 
Q 367.25549 47.629241 367.72411 47.404303 
Q 368.192731 47.179366 368.417669 46.879448 
Q 368.642607 46.579531 368.773821 45.979697 
Q 368.905034 45.379862 368.923779 44.967476 
Q 368.942524 44.55509 368.942524 43.805297 
Q 368.942524 42.718097 368.042772 42.043283 
Q 367.143021 41.368469 365.849628 41.031062 
Q 364.556234 40.693655 363.262841 40.300014 
Q 361.969448 39.906372 361.069697 38.987876 
Q 360.169945 38.069379 360.169945 36.607283 
Q 360.169945 36.082428 360.338648 35.726276 
Q 360.507352 35.370124 360.900993 35.145186 
Q 361.294634 34.920248 361.575807 34.807779 
Q 361.856979 34.69531 362.513048 34.639076 
Q 363.169117 34.582841 363.356566 34.582841 
Q 363.544014 34.582841 364.218828 34.582841 
Q 365.418497 34.582841 365.999586 34.995228 
Q 366.580676 35.407614 366.899338 36.026193 
Q 367.218 36.644772 367.480428 36.832221 
" clip-path="url(#p6ced512b5a)" style="fill: none; stroke: #000000; stroke-linejoin: miter"/>
   </g>
  </g>
  <g id="axes_24">
   <g id="patch_21">
    <path d="M 381.318579 29.071862 
Q 380.943683 29.146841 380.812469 29.577972 
Q 380.681255 30.009103 380.756234 30.42149 
Q 380.756234 30.571448 380.793724 30.702662 
Q 380.831214 30.833876 380.887448 30.89011 
Q 380.943683 30.946345 380.999917 31.040069 
Q 381.056152 31.133793 381.093641 31.208772 
L 381.20611 29.859145 
M 381.20611 34.020497 
Q 380.306359 39.006621 380.081421 42.793076 
L 380.531297 45.379862 
L 380.868703 46.054676 
" clip-path="url(#pd27ab61b6f)" style="fill: none; stroke: #000000; stroke-linejoin: miter"/>
   </g>
  </g>
  <g id="axes_25">
   <g id="patch_22">
    <path d="M 400.499007 39.568966 
Q 399.149379 38.181848 396.9 38.444276 
Q 394.050786 38.444276 392.888607 39.793903 
Q 391.726428 41.143531 391.726428 44.067724 
Q 391.726428 45.56731 393.019821 46.279614 
Q 394.313214 46.991917 395.887779 46.991917 
Q 397.199917 46.991917 398.212138 45.736014 
Q 399.224359 44.48011 399.805448 42.30571 
Q 400.386538 40.13131 400.761434 37.938166 
Q 401.136331 35.745021 401.28629 33.045766 
Q 401.436248 30.34651 401.473738 28.978138 
Q 401.511228 27.609766 401.511228 26.185159 
Q 401.28629 26.260138 401.28629 29.896634 
L 401.28629 44.292662 
L 402.073572 48.229076 
" clip-path="url(#p8fee8ac9e7)" style="fill: none; stroke: #000000; stroke-linejoin: miter"/>
   </g>
  </g>
  <g id="axes_26">
   <g id="patch_23">
    <path d="M 406.857798 38.160826 
Q 409.830275 39.535596 414.549083 39.721376 
Q 416.072477 39.721376 416.759862 38.550963 
Q 417.447248 37.38055 417.447248 35.82 
Q 417.447248 35.299817 417.354358 34.909679 
Q 417.261468 34.519541 417.019954 34.296606 
Q 416.77844 34.07367 416.611239 33.943624 
Q 416.444037 33.813578 415.998165 33.757844 
Q 415.552294 33.70211 415.347936 33.683532 
Q 415.143578 33.664954 414.567661 33.683532 
Q 413.991743 33.70211 413.768807 33.70211 
Q 411.725229 33.70211 410.238991 35.578486 
Q 408.752752 37.454862 408.752752 39.609908 
Q 408.752752 42.619541 410.684862 44.570229 
Q 412.616972 46.520917 415.663761 46.520917 
Q 417.818807 46.818165 419.342202 44.29156 
" clip-path="url(#pe39e88f084)" style="fill: none; stroke: #000000; stroke-linejoin: miter"/>
   </g>
  </g>
  <g id="axes_27"/>
  <g id="axes_28">
   <g id="patch_24">
    <path d="M 448.7616 35.032717 
Q 447.71189 34.582841 446.737159 34.69531 
Q 443.700497 35.032717 441.788524 36.701007 
Q 439.876552 38.369297 439.876552 41.330979 
Q 439.876552 43.917766 441.882248 45.6048 
Q 443.887945 47.291834 446.512221 47.291834 
Q 448.874069 47.291834 449.998759 45.361117 
Q 451.123448 43.4304 451.123448 40.881103 
Q 451.123448 39.643945 450.711062 38.706703 
Q 450.298676 37.769462 449.773821 37.300841 
Q 449.248966 36.832221 448.499172 36.119917 
Q 447.749379 35.407614 447.299503 34.69531 
L 446.062345 34.245434 
" clip-path="url(#pd4e6b95897)" style="fill: none; stroke: #000000; stroke-linejoin: miter"/>
   </g>
  </g>
  <g id="axes_29">
   <g id="patch_25">
    <path d="M 455.384141 38.85304 
L 455.812335 38.85304 
Q 456.63304 38.85304 457.596476 38.745991 
Q 458.559912 38.638943 459.719604 38.460529 
Q 460.879295 38.282115 461.485903 38.210749 
L 468.015859 35.427489 
M 467.694714 25.793128 
Q 467.409251 25.721762 466.374449 25.275727 
Q 465.339648 24.829692 464.697357 24.93674 
Q 464.055066 24.93674 463.537665 25.150837 
Q 463.020264 25.364934 462.681278 25.793128 
Q 462.342291 26.221322 462.07467 26.685198 
Q 461.807048 27.149075 461.664317 27.862731 
Q 461.521586 28.576388 461.414537 29.129471 
Q 461.307489 29.682555 461.289648 30.50326 
Q 461.271806 31.323965 461.253965 31.77 
Q 461.236123 32.216035 461.253965 32.965374 
Q 461.271806 33.714714 461.271806 33.928811 
Q 461.271806 36.605022 461.967621 41.850396 
Q 462.663436 47.095771 462.663436 49.771982 
Q 462.59207 50.057445 462.556388 50.681894 
Q 462.520705 51.306344 462.413656 51.805903 
Q 462.306608 52.305463 462.021145 52.555242 
" clip-path="url(#p14f2afb30d)" style="fill: none; stroke: #000000; stroke-linejoin: miter"/>
   </g>
  </g>
  <g id="axes_30"/>
  <g id="axes_31">
   <g id="patch_26">
    <path d="M 489.263834 37.95691 
L 489.938648 37.95691 
Q 490.650952 37.95691 491.438234 37.881931 
Q 492.225517 37.806952 493.181503 37.675738 
Q 494.13749 37.544524 494.662345 37.507034 
L 498.936166 35.82 
M 494.887283 30.42149 
L 494.887283 31.43371 
Q 494.887283 33.383172 494.212469 37.207117 
Q 493.537655 41.031062 493.537655 43.018014 
Q 493.537655 43.805297 493.537655 44.105214 
Q 493.537655 44.405131 493.631379 45.042455 
Q 493.725103 45.679779 493.912552 45.960952 
Q 494.1 46.242124 494.493641 46.485807 
Q 494.887283 46.72949 495.449628 46.72949 
Q 495.562097 46.692 495.880759 46.72949 
Q 496.199421 46.766979 496.386869 46.710745 
Q 496.574317 46.65451 496.574317 46.392083 
" clip-path="url(#p615493d3d4)" style="fill: none; stroke: #000000; stroke-linejoin: miter"/>
   </g>
  </g>
  <g id="axes_32">
   <g id="patch_27">
    <path d="M 506.813462 35.932469 
Q 507.413297 35.257655 508.406772 34.826524 
Q 509.400248 34.395393 510.3 34.470372 
Q 510.937324 34.470372 511.42469 34.639076 
Q 511.912055 34.807779 512.230717 34.995228 
Q 512.549379 35.182676 512.774317 35.670041 
Q 512.999255 36.157407 513.111724 36.419834 
Q 513.224193 36.682262 513.280428 37.375821 
Q 513.336662 38.069379 513.355407 38.331807 
Q 513.374152 38.594234 513.355407 39.419007 
Q 513.336662 40.243779 513.336662 40.431228 
Q 513.336662 41.368469 513.167959 43.242952 
Q 512.999255 45.117434 512.999255 46.054676 
Q 512.999255 46.467062 513.05549 46.823214 
Q 513.111724 47.179366 513.205448 47.610497 
Q 513.299172 48.041628 513.336662 48.304055 
L 513.786538 48.528993 
M 507.263338 23.111007 
Q 507.488276 24.798041 507.488276 29.971614 
L 507.488276 42.3432 
L 507.150869 46.841959 
L 506.925931 47.74171 
" clip-path="url(#pa744f5cc0f)" style="fill: none; stroke: #000000; stroke-linejoin: miter"/>
   </g>
  </g>
  <g id="axes_33">
   <g id="patch_28">
    <path d="M 520.257798 38.160826 
Q 523.230275 39.535596 527.949083 39.721376 
Q 529.472477 39.721376 530.159862 38.550963 
Q 530.847248 37.38055 530.847248 35.82 
Q 530.847248 35.299817 530.754358 34.909679 
Q 530.661468 34.519541 530.419954 34.296606 
Q 530.17844 34.07367 530.011239 33.943624 
Q 529.844037 33.813578 529.398165 33.757844 
Q 528.952294 33.70211 528.747936 33.683532 
Q 528.543578 33.664954 527.967661 33.683532 
Q 527.391743 33.70211 527.168807 33.70211 
Q 525.125229 33.70211 523.638991 35.578486 
Q 522.152752 37.454862 522.152752 39.609908 
Q 522.152752 42.619541 524.084862 44.570229 
Q 526.016972 46.520917 529.063761 46.520917 
Q 531.218807 46.818165 532.742202 44.29156 
" clip-path="url(#p98e9f7dc73)" style="fill: none; stroke: #000000; stroke-linejoin: miter"/>
   </g>
  </g>
  <g id="axes_34"/>
  <g id="axes_35">
   <g id="patch_29">
    <path d="M 554.457476 43.917766 
Q 554.757393 44.180193 555.769614 45.154924 
Q 556.781834 46.129655 557.344179 46.560786 
Q 557.906524 46.991917 558.93749 47.385559 
Q 559.968455 47.7792 560.980676 47.629241 
Q 561.65549 47.629241 562.12411 47.404303 
Q 562.592731 47.179366 562.817669 46.879448 
Q 563.042607 46.579531 563.173821 45.979697 
Q 563.305034 45.379862 563.323779 44.967476 
Q 563.342524 44.55509 563.342524 43.805297 
Q 563.342524 42.718097 562.442772 42.043283 
Q 561.543021 41.368469 560.249628 41.031062 
Q 558.956234 40.693655 557.662841 40.300014 
Q 556.369448 39.906372 555.469697 38.987876 
Q 554.569945 38.069379 554.569945 36.607283 
Q 554.569945 36.082428 554.738648 35.726276 
Q 554.907352 35.370124 555.300993 35.145186 
Q 555.694634 34.920248 555.975807 34.807779 
Q 556.256979 34.69531 556.913048 34.639076 
Q 557.569117 34.582841 557.756566 34.582841 
Q 557.944014 34.582841 558.618828 34.582841 
Q 559.818497 34.582841 560.399586 34.995228 
Q 560.980676 35.407614 561.299338 36.026193 
Q 561.618 36.644772 561.880428 36.832221 
" clip-path="url(#p85b61ba3c0)" style="fill: none; stroke: #000000; stroke-linejoin: miter"/>
   </g>
  </g>
  <g id="axes_36">
   <g id="patch_30">
    <path d="M 570.638731 37.282097 
L 570.638731 37.844441 
Q 570.901159 39.868883 570.938648 41.312234 
Q 570.976138 42.755586 570.882414 44.667559 
Q 570.78869 46.579531 570.78869 48.191586 
L 570.863669 39.643945 
Q 570.863669 38.144359 572.456979 37.507034 
Q 574.05029 36.86971 575.474897 37.282097 
Q 577.386869 37.844441 578.305366 39.04411 
Q 579.223862 40.243779 579.280097 41.668386 
Q 579.336331 43.092993 579.373821 44.817517 
Q 579.41131 46.542041 579.561269 48.191586 
" clip-path="url(#pb6ca613d61)" style="fill: none; stroke: #000000; stroke-linejoin: miter"/>
   </g>
  </g>
  <g id="axes_37">
   <g id="patch_31">
    <path d="M 594.5616 35.032717 
Q 593.51189 34.582841 592.537159 34.69531 
Q 589.500497 35.032717 587.588524 36.701007 
Q 585.676552 38.369297 585.676552 41.330979 
Q 585.676552 43.917766 587.682248 45.6048 
Q 589.687945 47.291834 592.312221 47.291834 
Q 594.674069 47.291834 595.798759 45.361117 
Q 596.923448 43.4304 596.923448 40.881103 
Q 596.923448 39.643945 596.511062 38.706703 
Q 596.098676 37.769462 595.573821 37.300841 
Q 595.048966 36.832221 594.299172 36.119917 
Q 593.549379 35.407614 593.099503 34.69531 
L 591.862345 34.245434 
" clip-path="url(#p8475b1b9fc)" style="fill: none; stroke: #000000; stroke-linejoin: miter"/>
   </g>
  </g>
  <g id="axes_38">
   <g id="patch_32">
    <path d="M 604.013462 32.783338 
Q 604.538317 34.507862 604.669531 36.457324 
Q 604.800745 38.406786 604.725766 40.956083 
Q 604.650786 43.505379 604.688276 44.705048 
L 604.800745 46.054676 
L 604.800745 45.829738 
Q 604.800745 44.667559 604.519572 42.30571 
Q 604.2384 39.943862 604.2384 38.744193 
Q 604.2384 36.419834 605.250621 34.882759 
Q 606.262841 33.345683 608.287283 33.345683 
Q 608.999586 33.345683 609.336993 33.626855 
Q 609.6744 33.908028 609.936828 34.432883 
Q 610.199255 34.957738 610.536662 35.257655 
L 610.986538 36.832221 
" clip-path="url(#pbbff4755b1)" style="fill: none; stroke: #000000; stroke-linejoin: miter"/>
   </g>
  </g>
  <g id="axes_39">
   <g id="patch_33">
    <path d="M 624.318579 29.071862 
Q 623.943683 29.146841 623.812469 29.577972 
Q 623.681255 30.009103 623.756234 30.42149 
Q 623.756234 30.571448 623.793724 30.702662 
Q 623.831214 30.833876 623.887448 30.89011 
Q 623.943683 30.946345 623.999917 31.040069 
Q 624.056152 31.133793 624.093641 31.208772 
L 624.20611 29.859145 
M 624.20611 34.020497 
Q 623.306359 39.006621 623.081421 42.793076 
L 623.531297 45.379862 
L 623.868703 46.054676 
" clip-path="url(#p088e40a20e)" style="fill: none; stroke: #000000; stroke-linejoin: miter"/>
   </g>
  </g>
  <g id="axes_40">
   <g id="patch_34">
    <path d="M 635.438731 37.282097 
L 635.438731 37.844441 
Q 635.701159 39.868883 635.738648 41.312234 
Q 635.776138 42.755586 635.682414 44.667559 
Q 635.58869 46.579531 635.58869 48.191586 
L 635.663669 39.643945 
Q 635.663669 38.144359 637.256979 37.507034 
Q 638.85029 36.86971 640.274897 37.282097 
Q 642.186869 37.844441 643.105366 39.04411 
Q 644.023862 40.243779 644.080097 41.668386 
Q 644.136331 43.092993 644.173821 44.817517 
Q 644.21131 46.542041 644.361269 48.191586 
" clip-path="url(#p2cd2ee7924)" style="fill: none; stroke: #000000; stroke-linejoin: miter"/>
   </g>
  </g>
  <g id="axes_41">
   <g id="patch_35">
    <path d="M 660.887191 39.096404 
Q 660.63236 39.023596 659.66764 38.623146 
Q 658.702921 38.222697 658.04764 38.077079 
Q 657.39236 37.931461 656.737079 38.00427 
Q 654.115955 38.00427 652.477753 40.388764 
Q 650.839551 42.773258 650.839551 45.430787 
Q 650.839551 47.068989 656.081798 47.068989 
Q 657.647191 47.068989 658.975955 45.558202 
Q 660.304719 44.047416 660.978202 42.172584 
Q 661.651685 40.297753 661.651685 38.768764 
Q 661.651685 37.27618 661.615281 36.984944 
L 661.542472 38.077079 
Q 661.542472 38.550337 661.542472 38.987191 
Q 661.578876 40.188539 661.779101 42.281798 
Q 661.979326 44.375056 662.143146 46.049663 
Q 662.306966 47.72427 662.343371 49.872135 
Q 662.379775 52.02 662.215955 53.658202 
Q 662.052135 55.296404 661.487865 56.971011 
Q 660.923596 58.645618 659.995281 59.737753 
Q 659.066966 60.829888 657.465169 61.521573 
Q 655.863371 62.213258 653.715506 62.213258 
Q 652.077303 62.213258 650.985169 61.466966 
Q 649.893034 60.720674 649.893034 59.155281 
Q 649.820225 58.936854 649.856629 58.936854 
Q 649.893034 58.936854 650.002247 58.936854 
Q 650.111461 58.936854 650.111461 58.82764 
" clip-path="url(#pc9a1d0fd5f)" style="fill: none; stroke: #000000; stroke-linejoin: miter"/>
   </g>
  </g>
 </g>
 <defs>
  <clipPath id="p89920b4b98">
   <rect x="5.831876" y="8.64" width="4.536248" height="54.36"/>
  </clipPath>
  <clipPath id="p88e1aa56c5">
   <rect x="16.2" y="10.777356" width="16.2" height="50.085288"/>
  </clipPath>
  <clipPath id="pbe67b66168">
   <rect x="33.451945" y="8.64" width="14.09611" height="54.36"/>
  </clipPath>
  <clipPath id="p3812e8147b">
   <rect x="49.651945" y="8.64" width="14.09611" height="54.36"/>
  </clipPath>
  <clipPath id="p7f786ebe46">
   <rect x="70.200745" y="8.64" width="5.39851" height="54.36"/>
  </clipPath>
  <clipPath id="pd62373d044">
   <rect x="98.589352" y="8.64" width="13.421297" height="54.36"/>
  </clipPath>
  <clipPath id="pdf75cd9579">
   <rect x="114.002069" y="8.64" width="14.995862" height="54.36"/>
  </clipPath>
  <clipPath id="pf495289271">
   <rect x="147.189352" y="8.64" width="13.421297" height="54.36"/>
  </clipPath>
  <clipPath id="p9e8d371efb">
   <rect x="164.738979" y="8.64" width="10.722041" height="54.36"/>
  </clipPath>
  <clipPath id="pc0d261fab8">
   <rect x="178.2" y="8.881927" width="16.2" height="53.876147"/>
  </clipPath>
  <clipPath id="pa1bf375727">
   <rect x="211.202069" y="8.64" width="14.995862" height="54.36"/>
  </clipPath>
  <clipPath id="p20db368ccb">
   <rect x="227.683241" y="8.64" width="14.433517" height="54.36"/>
  </clipPath>
  <clipPath id="pee8581daf0">
   <rect x="243.883241" y="8.64" width="14.433517" height="54.36"/>
  </clipPath>
  <clipPath id="p6961509693">
   <rect x="259.802069" y="8.64" width="14.995862" height="54.36"/>
  </clipPath>
  <clipPath id="pfec0ad3f32">
   <rect x="277.182993" y="8.64" width="12.634014" height="54.36"/>
  </clipPath>
  <clipPath id="p30a671fced">
   <rect x="297.206938" y="8.64" width="4.986124" height="54.36"/>
  </clipPath>
  <clipPath id="pb467fa15d3">
   <rect x="309.189352" y="8.64" width="13.421297" height="54.36"/>
  </clipPath>
  <clipPath id="pdf8f1acc8b">
   <rect x="324" y="8.881927" width="16.2" height="53.876147"/>
  </clipPath>
  <clipPath id="p6ced512b5a">
   <rect x="358.182993" y="8.64" width="12.634014" height="54.36"/>
  </clipPath>
  <clipPath id="pd27ab61b6f">
   <rect x="378.206938" y="8.64" width="4.986124" height="54.36"/>
  </clipPath>
  <clipPath id="p8fee8ac9e7">
   <rect x="389.851945" y="8.64" width="14.09611" height="54.36"/>
  </clipPath>
  <clipPath id="pe39e88f084">
   <rect x="405" y="8.881927" width="16.2" height="53.876147"/>
  </clipPath>
  <clipPath id="pd4e6b95897">
   <rect x="438.002069" y="8.64" width="14.995862" height="54.36"/>
  </clipPath>
  <clipPath id="p14f2afb30d">
   <rect x="453.6" y="9.949956" width="16.2" height="51.740088"/>
  </clipPath>
  <clipPath id="p615493d3d4">
   <rect x="487.389352" y="8.64" width="13.421297" height="54.36"/>
  </clipPath>
  <clipPath id="pa744f5cc0f">
   <rect x="504.938979" y="8.64" width="10.722041" height="54.36"/>
  </clipPath>
  <clipPath id="p98e9f7dc73">
   <rect x="518.4" y="8.881927" width="16.2" height="53.876147"/>
  </clipPath>
  <clipPath id="p85b61ba3c0">
   <rect x="552.582993" y="8.64" width="12.634014" height="54.36"/>
  </clipPath>
  <clipPath id="pb6ca613d61">
   <rect x="568.764248" y="8.64" width="12.671503" height="54.36"/>
  </clipPath>
  <clipPath id="p8475b1b9fc">
   <rect x="583.802069" y="8.64" width="14.995862" height="54.36"/>
  </clipPath>
  <clipPath id="pbbff4755b1">
   <rect x="602.138979" y="8.64" width="10.722041" height="54.36"/>
  </clipPath>
  <clipPath id="p088e40a20e">
   <rect x="621.206938" y="8.64" width="4.986124" height="54.36"/>
  </clipPath>
  <clipPath id="p2cd2ee7924">
   <rect x="633.564248" y="8.64" width="12.671503" height="54.36"/>
  </clipPath>
  <clipPath id="pc9a1d0fd5f">
   <rect x="648" y="9.426742" width="16.2" height="52.786517"/>
  </clipPath>
 </defs>
</svg>
