<?xml version="1.0" encoding="utf-8" standalone="no"?>
<!DOCTYPE svg PUBLIC "-//W3C//DTD SVG 1.1//EN"
  "http://www.w3.org/Graphics/SVG/1.1/DTD/svg11.dtd">
<svg xmlns:xlink="http://www.w3.org/1999/xlink" width="738pt" height="72pt" viewBox="0 0 738 72" xmlns="http://www.w3.org/2000/svg" version="1.1">
 <metadata>
  <rdf:RDF xmlns:dc="http://purl.org/dc/elements/1.1/" xmlns:cc="http://creativecommons.org/ns#" xmlns:rdf="http://www.w3.org/1999/02/22-rdf-syntax-ns#">
   <cc:Work>
    <dc:type rdf:resource="http://purl.org/dc/dcmitype/StillImage"/>
    <dc:date>2024-01-04T18:46:27.725412</dc:date>
    <dc:format>image/svg+xml</dc:format>
    <dc:creator>
     <cc:Agent>
      <dc:title>Matplotlib v3.7.1, https://matplotlib.org/</dc:title>
     </cc:Agent>
    </dc:creator>
   </cc:Work>
  </rdf:RDF>
 </metadata>
 <defs>
  <style type="text/css">*{stroke-linejoin: round; stroke-linecap: butt}</style>
 </defs>
 <g id="figure_1">
  <g id="patch_1">
   <path d="M 0 72 
L 738 72 
L 738 0 
L 0 0 
z
" style="fill: #8fff9f"/>
  </g>
  <g id="axes_1">
   <g id="patch_2">
    <path d="M 1.539924 40.439772 
Q 6.436882 46.999848 11.980608 46.168289 
Q 13.304943 46.168289 13.98251 45.382928 
Q 14.660076 44.597567 14.660076 43.30403 
Q 14.660076 41.979696 14.028707 40.947947 
Q 13.397338 39.916198 12.396388 39.238631 
Q 11.395437 38.561065 10.194297 37.975894 
Q 8.993156 37.390722 7.776616 36.820951 
Q 6.560076 36.251179 5.559125 35.589011 
Q 4.558175 34.926844 3.926806 33.895095 
Q 3.295437 32.863346 3.295437 31.56981 
Q 3.295437 29.906692 5.774715 28.382167 
Q 8.253992 26.857643 10.040304 26.857643 
Q 11.118251 26.796046 11.672624 27.627605 
Q 12.226996 28.459163 12.211597 29.490913 
Q 12.196198 30.522662 12.165399 31.385019 
" clip-path="url(#pad6528cd4f)" style="fill: none; stroke: #000000; stroke-linejoin: miter"/>
   </g>
  </g>
  <g id="axes_2">
   <g id="patch_3">
    <path d="M 24.918579 29.071862 
Q 24.543683 29.146841 24.412469 29.577972 
Q 24.281255 30.009103 24.356234 30.42149 
Q 24.356234 30.571448 24.393724 30.702662 
Q 24.431214 30.833876 24.487448 30.89011 
Q 24.543683 30.946345 24.599917 31.040069 
Q 24.656152 31.133793 24.693641 31.208772 
L 24.80611 29.859145 
M 24.80611 34.020497 
Q 23.906359 39.006621 23.681421 42.793076 
L 24.131297 45.379862 
L 24.468703 46.054676 
" clip-path="url(#p8b781f2cb7)" style="fill: none; stroke: #000000; stroke-linejoin: miter"/>
   </g>
  </g>
  <g id="axes_3">
   <g id="patch_4">
    <path d="M 40.106359 28.621986 
Q 40.331297 30.34651 40.406276 32.146014 
Q 40.481255 33.945517 40.46251 36.551048 
Q 40.443766 39.156579 40.443766 40.093821 
Q 40.443766 40.13131 40.668703 45.829738 
L 40.893641 46.841959 
" clip-path="url(#pa18be60aa5)" style="fill: none; stroke: #000000; stroke-linejoin: miter"/>
   </g>
  </g>
  <g id="axes_4">
   <g id="patch_5">
    <path d="M 50.457798 38.160826 
Q 53.430275 39.535596 58.149083 39.721376 
Q 59.672477 39.721376 60.359862 38.550963 
Q 61.047248 37.38055 61.047248 35.82 
Q 61.047248 35.299817 60.954358 34.909679 
Q 60.861468 34.519541 60.619954 34.296606 
Q 60.37844 34.07367 60.211239 33.943624 
Q 60.044037 33.813578 59.598165 33.757844 
Q 59.152294 33.70211 58.947936 33.683532 
Q 58.743578 33.664954 58.167661 33.683532 
Q 57.591743 33.70211 57.368807 33.70211 
Q 55.325229 33.70211 53.838991 35.578486 
Q 52.352752 37.454862 52.352752 39.609908 
Q 52.352752 42.619541 54.284862 44.570229 
Q 56.216972 46.520917 59.263761 46.520917 
Q 61.418807 46.818165 62.942202 44.29156 
" clip-path="url(#p063224fa3a)" style="fill: none; stroke: #000000; stroke-linejoin: miter"/>
   </g>
  </g>
  <g id="axes_5">
   <g id="patch_6">
    <path d="M 68.438731 37.282097 
L 68.438731 37.844441 
Q 68.701159 39.868883 68.738648 41.312234 
Q 68.776138 42.755586 68.682414 44.667559 
Q 68.58869 46.579531 68.58869 48.191586 
L 68.663669 39.643945 
Q 68.663669 38.144359 70.256979 37.507034 
Q 71.85029 36.86971 73.274897 37.282097 
Q 75.186869 37.844441 76.105366 39.04411 
Q 77.023862 40.243779 77.080097 41.668386 
Q 77.136331 43.092993 77.173821 44.817517 
Q 77.21131 46.542041 77.361269 48.191586 
" clip-path="url(#p75a0fa360f)" style="fill: none; stroke: #000000; stroke-linejoin: miter"/>
   </g>
  </g>
  <g id="axes_6">
   <g id="patch_7">
    <path d="M 84.263834 37.95691 
L 84.938648 37.95691 
Q 85.650952 37.95691 86.438234 37.881931 
Q 87.225517 37.806952 88.181503 37.675738 
Q 89.13749 37.544524 89.662345 37.507034 
L 93.936166 35.82 
M 89.887283 30.42149 
L 89.887283 31.43371 
Q 89.887283 33.383172 89.212469 37.207117 
Q 88.537655 41.031062 88.537655 43.018014 
Q 88.537655 43.805297 88.537655 44.105214 
Q 88.537655 44.405131 88.631379 45.042455 
Q 88.725103 45.679779 88.912552 45.960952 
Q 89.1 46.242124 89.493641 46.485807 
Q 89.887283 46.72949 90.449628 46.72949 
Q 90.562097 46.692 90.880759 46.72949 
Q 91.199421 46.766979 91.386869 46.710745 
Q 91.574317 46.65451 91.574317 46.392083 
" clip-path="url(#pb0f6d28e20)" style="fill: none; stroke: #000000; stroke-linejoin: miter"/>
   </g>
  </g>
  <g id="axes_7">
   <g id="patch_8">
    <path d="M 104.906359 28.621986 
Q 105.131297 30.34651 105.206276 32.146014 
Q 105.281255 33.945517 105.26251 36.551048 
Q 105.243766 39.156579 105.243766 40.093821 
Q 105.243766 40.13131 105.468703 45.829738 
L 105.693641 46.841959 
" clip-path="url(#paacecd26de)" style="fill: none; stroke: #000000; stroke-linejoin: miter"/>
   </g>
  </g>
  <g id="axes_8">
   <g id="patch_9">
    <path d="M 116.363917 36.382345 
Q 116.326428 36.494814 116.457641 36.701007 
Q 116.588855 36.9072 116.476386 37.057159 
L 116.476386 39.306538 
Q 116.476386 40.506207 116.813793 41.724621 
Q 117.1512 42.943034 118.013462 43.93651 
Q 118.875724 44.929986 120.075393 44.929986 
Q 121.312552 44.929986 121.987366 43.861531 
Q 122.662179 42.793076 123.112055 41.143531 
Q 123.561931 39.493986 123.899338 38.969131 
L 124.686621 36.382345 
L 124.461683 42.680607 
L 124.461683 45.154924 
Q 124.461683 47.066897 125.192731 51.00331 
Q 125.923779 54.939724 125.923779 56.964166 
Q 126.673572 59.213545 125.586372 60.188276 
Q 124.499172 61.163007 122.437241 60.78811 
Q 120.637738 60.488193 119.719241 60.169531 
Q 118.800745 59.850869 116.813793 58.988607 
L 116.701324 58.426262 
" clip-path="url(#pfa6ca77f05)" style="fill: none; stroke: #000000; stroke-linejoin: miter"/>
   </g>
  </g>
  <g id="axes_9"/>
  <g id="axes_10">
   <g id="patch_10">
    <path d="M 149.063834 37.95691 
L 149.738648 37.95691 
Q 150.450952 37.95691 151.238234 37.881931 
Q 152.025517 37.806952 152.981503 37.675738 
Q 153.93749 37.544524 154.462345 37.507034 
L 158.736166 35.82 
M 154.687283 30.42149 
L 154.687283 31.43371 
Q 154.687283 33.383172 154.012469 37.207117 
Q 153.337655 41.031062 153.337655 43.018014 
Q 153.337655 43.805297 153.337655 44.105214 
Q 153.337655 44.405131 153.431379 45.042455 
Q 153.525103 45.679779 153.712552 45.960952 
Q 153.9 46.242124 154.293641 46.485807 
Q 154.687283 46.72949 155.249628 46.72949 
Q 155.362097 46.692 155.680759 46.72949 
Q 155.999421 46.766979 156.186869 46.710745 
Q 156.374317 46.65451 156.374317 46.392083 
" clip-path="url(#pe155e03ca2)" style="fill: none; stroke: #000000; stroke-linejoin: miter"/>
   </g>
  </g>
  <g id="axes_11">
   <g id="patch_11">
    <path d="M 166.613462 35.932469 
Q 167.213297 35.257655 168.206772 34.826524 
Q 169.200248 34.395393 170.1 34.470372 
Q 170.737324 34.470372 171.22469 34.639076 
Q 171.712055 34.807779 172.030717 34.995228 
Q 172.349379 35.182676 172.574317 35.670041 
Q 172.799255 36.157407 172.911724 36.419834 
Q 173.024193 36.682262 173.080428 37.375821 
Q 173.136662 38.069379 173.155407 38.331807 
Q 173.174152 38.594234 173.155407 39.419007 
Q 173.136662 40.243779 173.136662 40.431228 
Q 173.136662 41.368469 172.967959 43.242952 
Q 172.799255 45.117434 172.799255 46.054676 
Q 172.799255 46.467062 172.85549 46.823214 
Q 172.911724 47.179366 173.005448 47.610497 
Q 173.099172 48.041628 173.136662 48.304055 
L 173.586538 48.528993 
M 167.063338 23.111007 
Q 167.288276 24.798041 167.288276 29.971614 
L 167.288276 42.3432 
L 166.950869 46.841959 
L 166.725931 47.74171 
" clip-path="url(#p5d5cbdf84e)" style="fill: none; stroke: #000000; stroke-linejoin: miter"/>
   </g>
  </g>
  <g id="axes_12">
   <g id="patch_12">
    <path d="M 180.057798 38.160826 
Q 183.030275 39.535596 187.749083 39.721376 
Q 189.272477 39.721376 189.959862 38.550963 
Q 190.647248 37.38055 190.647248 35.82 
Q 190.647248 35.299817 190.554358 34.909679 
Q 190.461468 34.519541 190.219954 34.296606 
Q 189.97844 34.07367 189.811239 33.943624 
Q 189.644037 33.813578 189.198165 33.757844 
Q 188.752294 33.70211 188.547936 33.683532 
Q 188.343578 33.664954 187.767661 33.683532 
Q 187.191743 33.70211 186.968807 33.70211 
Q 184.925229 33.70211 183.438991 35.578486 
Q 181.952752 37.454862 181.952752 39.609908 
Q 181.952752 42.619541 183.884862 44.570229 
Q 185.816972 46.520917 188.863761 46.520917 
Q 191.018807 46.818165 192.542202 44.29156 
" clip-path="url(#p3d2a8b4512)" style="fill: none; stroke: #000000; stroke-linejoin: miter"/>
   </g>
  </g>
  <g id="axes_13"/>
  <g id="axes_14">
   <g id="patch_13">
    <path d="M 223.487191 39.096404 
Q 223.23236 39.023596 222.26764 38.623146 
Q 221.302921 38.222697 220.64764 38.077079 
Q 219.99236 37.931461 219.337079 38.00427 
Q 216.715955 38.00427 215.077753 40.388764 
Q 213.439551 42.773258 213.439551 45.430787 
Q 213.439551 47.068989 218.681798 47.068989 
Q 220.247191 47.068989 221.575955 45.558202 
Q 222.904719 44.047416 223.578202 42.172584 
Q 224.251685 40.297753 224.251685 38.768764 
Q 224.251685 37.27618 224.215281 36.984944 
L 224.142472 38.077079 
Q 224.142472 38.550337 224.142472 38.987191 
Q 224.178876 40.188539 224.379101 42.281798 
Q 224.579326 44.375056 224.743146 46.049663 
Q 224.906966 47.72427 224.943371 49.872135 
Q 224.979775 52.02 224.815955 53.658202 
Q 224.652135 55.296404 224.087865 56.971011 
Q 223.523596 58.645618 222.595281 59.737753 
Q 221.666966 60.829888 220.065169 61.521573 
Q 218.463371 62.213258 216.315506 62.213258 
Q 214.677303 62.213258 213.585169 61.466966 
Q 212.493034 60.720674 212.493034 59.155281 
Q 212.420225 58.936854 212.456629 58.936854 
Q 212.493034 58.936854 212.602247 58.936854 
Q 212.711461 58.936854 212.711461 58.82764 
" clip-path="url(#pd38fda335f)" style="fill: none; stroke: #000000; stroke-linejoin: miter"/>
   </g>
  </g>
  <g id="axes_15">
   <g id="patch_14">
    <path d="M 231.413462 35.932469 
Q 232.013297 35.257655 233.006772 34.826524 
Q 234.000248 34.395393 234.9 34.470372 
Q 235.537324 34.470372 236.02469 34.639076 
Q 236.512055 34.807779 236.830717 34.995228 
Q 237.149379 35.182676 237.374317 35.670041 
Q 237.599255 36.157407 237.711724 36.419834 
Q 237.824193 36.682262 237.880428 37.375821 
Q 237.936662 38.069379 237.955407 38.331807 
Q 237.974152 38.594234 237.955407 39.419007 
Q 237.936662 40.243779 237.936662 40.431228 
Q 237.936662 41.368469 237.767959 43.242952 
Q 237.599255 45.117434 237.599255 46.054676 
Q 237.599255 46.467062 237.65549 46.823214 
Q 237.711724 47.179366 237.805448 47.610497 
Q 237.899172 48.041628 237.936662 48.304055 
L 238.386538 48.528993 
M 231.863338 23.111007 
Q 232.088276 24.798041 232.088276 29.971614 
L 232.088276 42.3432 
L 231.750869 46.841959 
L 231.525931 47.74171 
" clip-path="url(#p4c27fc6d6a)" style="fill: none; stroke: #000000; stroke-linejoin: miter"/>
   </g>
  </g>
  <g id="axes_16">
   <g id="patch_15">
    <path d="M 254.3616 35.032717 
Q 253.31189 34.582841 252.337159 34.69531 
Q 249.300497 35.032717 247.388524 36.701007 
Q 245.476552 38.369297 245.476552 41.330979 
Q 245.476552 43.917766 247.482248 45.6048 
Q 249.487945 47.291834 252.112221 47.291834 
Q 254.474069 47.291834 255.598759 45.361117 
Q 256.723448 43.4304 256.723448 40.881103 
Q 256.723448 39.643945 256.311062 38.706703 
Q 255.898676 37.769462 255.373821 37.300841 
Q 254.848966 36.832221 254.099172 36.119917 
Q 253.349379 35.407614 252.899503 34.69531 
L 251.662345 34.245434 
" clip-path="url(#pf41397934f)" style="fill: none; stroke: #000000; stroke-linejoin: miter"/>
   </g>
  </g>
  <g id="axes_17">
   <g id="patch_16">
    <path d="M 262.857476 43.917766 
Q 263.157393 44.180193 264.169614 45.154924 
Q 265.181834 46.129655 265.744179 46.560786 
Q 266.306524 46.991917 267.33749 47.385559 
Q 268.368455 47.7792 269.380676 47.629241 
Q 270.05549 47.629241 270.52411 47.404303 
Q 270.992731 47.179366 271.217669 46.879448 
Q 271.442607 46.579531 271.573821 45.979697 
Q 271.705034 45.379862 271.723779 44.967476 
Q 271.742524 44.55509 271.742524 43.805297 
Q 271.742524 42.718097 270.842772 42.043283 
Q 269.943021 41.368469 268.649628 41.031062 
Q 267.356234 40.693655 266.062841 40.300014 
Q 264.769448 39.906372 263.869697 38.987876 
Q 262.969945 38.069379 262.969945 36.607283 
Q 262.969945 36.082428 263.138648 35.726276 
Q 263.307352 35.370124 263.700993 35.145186 
Q 264.094634 34.920248 264.375807 34.807779 
Q 264.656979 34.69531 265.313048 34.639076 
Q 265.969117 34.582841 266.156566 34.582841 
Q 266.344014 34.582841 267.018828 34.582841 
Q 268.218497 34.582841 268.799586 34.995228 
Q 269.380676 35.407614 269.699338 36.026193 
Q 270.018 36.644772 270.280428 36.832221 
" clip-path="url(#p852bab5e17)" style="fill: none; stroke: #000000; stroke-linejoin: miter"/>
   </g>
  </g>
  <g id="axes_18">
   <g id="patch_17">
    <path d="M 278.663834 37.95691 
L 279.338648 37.95691 
Q 280.050952 37.95691 280.838234 37.881931 
Q 281.625517 37.806952 282.581503 37.675738 
Q 283.53749 37.544524 284.062345 37.507034 
L 288.336166 35.82 
M 284.287283 30.42149 
L 284.287283 31.43371 
Q 284.287283 33.383172 283.612469 37.207117 
Q 282.937655 41.031062 282.937655 43.018014 
Q 282.937655 43.805297 282.937655 44.105214 
Q 282.937655 44.405131 283.031379 45.042455 
Q 283.125103 45.679779 283.312552 45.960952 
Q 283.5 46.242124 283.893641 46.485807 
Q 284.287283 46.72949 284.849628 46.72949 
Q 284.962097 46.692 285.280759 46.72949 
Q 285.599421 46.766979 285.786869 46.710745 
Q 285.974317 46.65451 285.974317 46.392083 
" clip-path="url(#p9dcd36d95e)" style="fill: none; stroke: #000000; stroke-linejoin: miter"/>
   </g>
  </g>
  <g id="axes_19"/>
  <g id="axes_20">
   <g id="patch_18">
    <path d="M 311.457476 43.917766 
Q 311.757393 44.180193 312.769614 45.154924 
Q 313.781834 46.129655 314.344179 46.560786 
Q 314.906524 46.991917 315.93749 47.385559 
Q 316.968455 47.7792 317.980676 47.629241 
Q 318.65549 47.629241 319.12411 47.404303 
Q 319.592731 47.179366 319.817669 46.879448 
Q 320.042607 46.579531 320.173821 45.979697 
Q 320.305034 45.379862 320.323779 44.967476 
Q 320.342524 44.55509 320.342524 43.805297 
Q 320.342524 42.718097 319.442772 42.043283 
Q 318.543021 41.368469 317.249628 41.031062 
Q 315.956234 40.693655 314.662841 40.300014 
Q 313.369448 39.906372 312.469697 38.987876 
Q 311.569945 38.069379 311.569945 36.607283 
Q 311.569945 36.082428 311.738648 35.726276 
Q 311.907352 35.370124 312.300993 35.145186 
Q 312.694634 34.920248 312.975807 34.807779 
Q 313.256979 34.69531 313.913048 34.639076 
Q 314.569117 34.582841 314.756566 34.582841 
Q 314.944014 34.582841 315.618828 34.582841 
Q 316.818497 34.582841 317.399586 34.995228 
Q 317.980676 35.407614 318.299338 36.026193 
Q 318.618 36.644772 318.880428 36.832221 
" clip-path="url(#pf7250d742c)" style="fill: none; stroke: #000000; stroke-linejoin: miter"/>
   </g>
  </g>
  <g id="axes_21">
   <g id="patch_19">
    <path d="M 331.706359 28.621986 
Q 331.931297 30.34651 332.006276 32.146014 
Q 332.081255 33.945517 332.06251 36.551048 
Q 332.043766 39.156579 332.043766 40.093821 
Q 332.043766 40.13131 332.268703 45.829738 
L 332.493641 46.841959 
" clip-path="url(#p53e2c17a83)" style="fill: none; stroke: #000000; stroke-linejoin: miter"/>
   </g>
  </g>
  <g id="axes_22">
   <g id="patch_20">
    <path d="M 343.688772 35.145186 
Q 343.688772 35.145186 343.688772 35.595062 
Q 343.688772 36.269876 343.576303 37.619503 
Q 343.463834 38.969131 343.463834 39.643945 
Q 343.463834 41.930814 344.700993 43.599103 
Q 345.938152 45.267393 348.075062 45.267393 
Q 349.462179 45.154924 350.230717 43.917766 
Q 350.999255 42.680607 351.149214 41.237255 
Q 351.299172 39.793903 351.5616 37.9944 
Q 351.824028 36.194897 352.236414 35.370124 
Q 352.386372 35.070207 352.386372 35.670041 
Q 352.386372 36.269876 352.123945 38.706703 
Q 351.899007 41.031062 351.899007 41.555917 
Q 351.749048 42.643117 352.086455 43.767807 
Q 352.423862 44.892497 353.136166 45.6048 
" clip-path="url(#p04888175a7)" style="fill: none; stroke: #000000; stroke-linejoin: miter"/>
   </g>
  </g>
  <g id="axes_23">
   <g id="patch_21">
    <path d="M 360.038731 37.282097 
L 360.038731 37.844441 
Q 360.301159 39.868883 360.338648 41.312234 
Q 360.376138 42.755586 360.282414 44.667559 
Q 360.18869 46.579531 360.18869 48.191586 
L 360.263669 39.643945 
Q 360.263669 38.144359 361.856979 37.507034 
Q 363.45029 36.86971 364.874897 37.282097 
Q 366.786869 37.844441 367.705366 39.04411 
Q 368.623862 40.243779 368.680097 41.668386 
Q 368.736331 43.092993 368.773821 44.817517 
Q 368.81131 46.542041 368.961269 48.191586 
" clip-path="url(#p98e202d318)" style="fill: none; stroke: #000000; stroke-linejoin: miter"/>
   </g>
  </g>
  <g id="axes_24">
   <g id="patch_22">
    <path d="M 378.731793 37.169628 
Q 380.756234 39.194069 382.518248 41.76211 
Q 384.280262 44.330152 385.142524 46.72949 
M 381.768455 31.321241 
L 381.768455 31.546179 
Q 381.768455 32.333462 381.131131 33.514386 
Q 380.493807 34.69531 379.519076 36.101172 
Q 378.544345 37.507034 378.281917 37.95691 
L 377.044759 39.643945 
M 376.257476 26.710014 
Q 378.094469 36.269876 378.281917 48.641462 
" clip-path="url(#p1d748413e3)" style="fill: none; stroke: #000000; stroke-linejoin: miter"/>
   </g>
  </g>
  <g id="axes_25">
   <g id="patch_23">
    <path d="M 396.187697 39.981352 
Q 397.199917 40.956083 397.537324 42.905545 
Q 397.724772 43.955255 397.312386 46.167145 
L 396.075228 47.629241 
" clip-path="url(#p63fe141ca1)" style="fill: none; stroke: #000000; stroke-linejoin: miter"/>
   </g>
  </g>
  <g id="axes_26"/>
  <g id="axes_27">
   <g id="patch_24">
    <path d="M 422.916102 36.437797 
L 424.151695 44.778051 
Q 424.254661 45.567458 424.254661 45.60178 
Q 424.254661 45.704746 424.563559 45.704746 
Q 425.42161 45.704746 426.142373 44.778051 
Q 426.863136 43.851356 427.275 42.718729 
Q 427.686864 41.586102 428.201695 40.659407 
Q 428.716525 39.732712 429.197034 39.732712 
Q 429.814831 39.732712 430.449788 40.607924 
Q 431.084746 41.483136 431.548093 42.512797 
Q 432.011441 43.542458 432.68072 44.417669 
Q 433.35 45.292881 434.036441 45.292881 
Q 434.311017 43.782712 434.740042 39.69839 
Q 435.169068 35.614068 435.683898 33.554746 
" clip-path="url(#p58c54c2624)" style="fill: none; stroke: #000000; stroke-linejoin: miter"/>
   </g>
  </g>
  <g id="axes_28">
   <g id="patch_25">
    <path d="M 446.118579 29.071862 
Q 445.743683 29.146841 445.612469 29.577972 
Q 445.481255 30.009103 445.556234 30.42149 
Q 445.556234 30.571448 445.593724 30.702662 
Q 445.631214 30.833876 445.687448 30.89011 
Q 445.743683 30.946345 445.799917 31.040069 
Q 445.856152 31.133793 445.893641 31.208772 
L 446.00611 29.859145 
M 446.00611 34.020497 
Q 445.106359 39.006621 444.881421 42.793076 
L 445.331297 45.379862 
L 445.668703 46.054676 
" clip-path="url(#pd8e04a68ea)" style="fill: none; stroke: #000000; stroke-linejoin: miter"/>
   </g>
  </g>
  <g id="axes_29">
   <g id="patch_26">
    <path d="M 456.863834 37.95691 
L 457.538648 37.95691 
Q 458.250952 37.95691 459.038234 37.881931 
Q 459.825517 37.806952 460.781503 37.675738 
Q 461.73749 37.544524 462.262345 37.507034 
L 466.536166 35.82 
M 462.487283 30.42149 
L 462.487283 31.43371 
Q 462.487283 33.383172 461.812469 37.207117 
Q 461.137655 41.031062 461.137655 43.018014 
Q 461.137655 43.805297 461.137655 44.105214 
Q 461.137655 44.405131 461.231379 45.042455 
Q 461.325103 45.679779 461.512552 45.960952 
Q 461.7 46.242124 462.093641 46.485807 
Q 462.487283 46.72949 463.049628 46.72949 
Q 463.162097 46.692 463.480759 46.72949 
Q 463.799421 46.766979 463.986869 46.710745 
Q 464.174317 46.65451 464.174317 46.392083 
" clip-path="url(#p54f54db09b)" style="fill: none; stroke: #000000; stroke-linejoin: miter"/>
   </g>
  </g>
  <g id="axes_30">
   <g id="patch_27">
    <path d="M 474.413462 35.932469 
Q 475.013297 35.257655 476.006772 34.826524 
Q 477.000248 34.395393 477.9 34.470372 
Q 478.537324 34.470372 479.02469 34.639076 
Q 479.512055 34.807779 479.830717 34.995228 
Q 480.149379 35.182676 480.374317 35.670041 
Q 480.599255 36.157407 480.711724 36.419834 
Q 480.824193 36.682262 480.880428 37.375821 
Q 480.936662 38.069379 480.955407 38.331807 
Q 480.974152 38.594234 480.955407 39.419007 
Q 480.936662 40.243779 480.936662 40.431228 
Q 480.936662 41.368469 480.767959 43.242952 
Q 480.599255 45.117434 480.599255 46.054676 
Q 480.599255 46.467062 480.65549 46.823214 
Q 480.711724 47.179366 480.805448 47.610497 
Q 480.899172 48.041628 480.936662 48.304055 
L 481.386538 48.528993 
M 474.863338 23.111007 
Q 475.088276 24.798041 475.088276 29.971614 
L 475.088276 42.3432 
L 474.750869 46.841959 
L 474.525931 47.74171 
" clip-path="url(#p6a570c64d8)" style="fill: none; stroke: #000000; stroke-linejoin: miter"/>
   </g>
  </g>
  <g id="axes_31"/>
  <g id="axes_32">
   <g id="patch_28">
    <path d="M 505.463834 37.95691 
L 506.138648 37.95691 
Q 506.850952 37.95691 507.638234 37.881931 
Q 508.425517 37.806952 509.381503 37.675738 
Q 510.33749 37.544524 510.862345 37.507034 
L 515.136166 35.82 
M 511.087283 30.42149 
L 511.087283 31.43371 
Q 511.087283 33.383172 510.412469 37.207117 
Q 509.737655 41.031062 509.737655 43.018014 
Q 509.737655 43.805297 509.737655 44.105214 
Q 509.737655 44.405131 509.831379 45.042455 
Q 509.925103 45.679779 510.112552 45.960952 
Q 510.3 46.242124 510.693641 46.485807 
Q 511.087283 46.72949 511.649628 46.72949 
Q 511.762097 46.692 512.080759 46.72949 
Q 512.399421 46.766979 512.586869 46.710745 
Q 512.774317 46.65451 512.774317 46.392083 
" clip-path="url(#p9477ec279f)" style="fill: none; stroke: #000000; stroke-linejoin: miter"/>
   </g>
  </g>
  <g id="axes_33">
   <g id="patch_29">
    <path d="M 523.013462 35.932469 
Q 523.613297 35.257655 524.606772 34.826524 
Q 525.600248 34.395393 526.5 34.470372 
Q 527.137324 34.470372 527.62469 34.639076 
Q 528.112055 34.807779 528.430717 34.995228 
Q 528.749379 35.182676 528.974317 35.670041 
Q 529.199255 36.157407 529.311724 36.419834 
Q 529.424193 36.682262 529.480428 37.375821 
Q 529.536662 38.069379 529.555407 38.331807 
Q 529.574152 38.594234 529.555407 39.419007 
Q 529.536662 40.243779 529.536662 40.431228 
Q 529.536662 41.368469 529.367959 43.242952 
Q 529.199255 45.117434 529.199255 46.054676 
Q 529.199255 46.467062 529.25549 46.823214 
Q 529.311724 47.179366 529.405448 47.610497 
Q 529.499172 48.041628 529.536662 48.304055 
L 529.986538 48.528993 
M 523.463338 23.111007 
Q 523.688276 24.798041 523.688276 29.971614 
L 523.688276 42.3432 
L 523.350869 46.841959 
L 523.125931 47.74171 
" clip-path="url(#pba6ba130ea)" style="fill: none; stroke: #000000; stroke-linejoin: miter"/>
   </g>
  </g>
  <g id="axes_34">
   <g id="patch_30">
    <path d="M 536.457798 38.160826 
Q 539.430275 39.535596 544.149083 39.721376 
Q 545.672477 39.721376 546.359862 38.550963 
Q 547.047248 37.38055 547.047248 35.82 
Q 547.047248 35.299817 546.954358 34.909679 
Q 546.861468 34.519541 546.619954 34.296606 
Q 546.37844 34.07367 546.211239 33.943624 
Q 546.044037 33.813578 545.598165 33.757844 
Q 545.152294 33.70211 544.947936 33.683532 
Q 544.743578 33.664954 544.167661 33.683532 
Q 543.591743 33.70211 543.368807 33.70211 
Q 541.325229 33.70211 539.838991 35.578486 
Q 538.352752 37.454862 538.352752 39.609908 
Q 538.352752 42.619541 540.284862 44.570229 
Q 542.216972 46.520917 545.263761 46.520917 
Q 547.418807 46.818165 548.942202 44.29156 
" clip-path="url(#p56a32b4f6a)" style="fill: none; stroke: #000000; stroke-linejoin: miter"/>
   </g>
  </g>
  <g id="axes_35"/>
  <g id="axes_36">
   <g id="patch_31">
    <path d="M 570.320069 39.868883 
L 570.320069 39.419007 
Q 570.320069 37.769462 572.063338 36.682262 
Q 573.806607 35.595062 575.493641 35.595062 
Q 577.705531 35.595062 579.073903 36.794731 
Q 580.442276 37.9944 580.442276 40.20629 
Q 580.442276 42.30571 578.624028 43.336676 
Q 576.805779 44.367641 574.59389 44.367641 
Q 573.919076 44.367641 573.412966 44.255172 
Q 572.906855 44.142703 572.288276 43.917766 
Q 571.669697 43.692828 571.219821 43.580359 
L 570.095131 42.568138 
M 569.757724 36.832221 
Q 570.2076 38.444276 570.470028 40.262524 
Q 570.732455 42.080772 570.78869 43.749062 
Q 570.844924 45.417352 570.882414 47.27309 
Q 570.919903 49.128828 570.882414 50.778372 
L 570.769945 57.863917 
" clip-path="url(#p2a970b1510)" style="fill: none; stroke: #000000; stroke-linejoin: miter"/>
   </g>
  </g>
  <g id="axes_37">
   <g id="patch_32">
    <path d="M 587.813462 32.783338 
Q 588.338317 34.507862 588.469531 36.457324 
Q 588.600745 38.406786 588.525766 40.956083 
Q 588.450786 43.505379 588.488276 44.705048 
L 588.600745 46.054676 
L 588.600745 45.829738 
Q 588.600745 44.667559 588.319572 42.30571 
Q 588.0384 39.943862 588.0384 38.744193 
Q 588.0384 36.419834 589.050621 34.882759 
Q 590.062841 33.345683 592.087283 33.345683 
Q 592.799586 33.345683 593.136993 33.626855 
Q 593.4744 33.908028 593.736828 34.432883 
Q 593.999255 34.957738 594.336662 35.257655 
L 594.786538 36.832221 
" clip-path="url(#p3236edbe2a)" style="fill: none; stroke: #000000; stroke-linejoin: miter"/>
   </g>
  </g>
  <g id="axes_38">
   <g id="patch_33">
    <path d="M 601.257798 38.160826 
Q 604.230275 39.535596 608.949083 39.721376 
Q 610.472477 39.721376 611.159862 38.550963 
Q 611.847248 37.38055 611.847248 35.82 
Q 611.847248 35.299817 611.754358 34.909679 
Q 611.661468 34.519541 611.419954 34.296606 
Q 611.17844 34.07367 611.011239 33.943624 
Q 610.844037 33.813578 610.398165 33.757844 
Q 609.952294 33.70211 609.747936 33.683532 
Q 609.543578 33.664954 608.967661 33.683532 
Q 608.391743 33.70211 608.168807 33.70211 
Q 606.125229 33.70211 604.638991 35.578486 
Q 603.152752 37.454862 603.152752 39.609908 
Q 603.152752 42.619541 605.084862 44.570229 
Q 607.016972 46.520917 610.063761 46.520917 
Q 612.218807 46.818165 613.742202 44.29156 
" clip-path="url(#p6e42eb42ba)" style="fill: none; stroke: #000000; stroke-linejoin: miter"/>
   </g>
  </g>
  <g id="axes_39">
   <g id="patch_34">
    <path d="M 618.863834 37.95691 
L 619.538648 37.95691 
Q 620.250952 37.95691 621.038234 37.881931 
Q 621.825517 37.806952 622.781503 37.675738 
Q 623.73749 37.544524 624.262345 37.507034 
L 628.536166 35.82 
M 624.487283 30.42149 
L 624.487283 31.43371 
Q 624.487283 33.383172 623.812469 37.207117 
Q 623.137655 41.031062 623.137655 43.018014 
Q 623.137655 43.805297 623.137655 44.105214 
Q 623.137655 44.405131 623.231379 45.042455 
Q 623.325103 45.679779 623.512552 45.960952 
Q 623.7 46.242124 624.093641 46.485807 
Q 624.487283 46.72949 625.049628 46.72949 
Q 625.162097 46.692 625.480759 46.72949 
Q 625.799421 46.766979 625.986869 46.710745 
Q 626.174317 46.65451 626.174317 46.392083 
" clip-path="url(#pf8ac57b0ca)" style="fill: none; stroke: #000000; stroke-linejoin: miter"/>
   </g>
  </g>
  <g id="axes_40">
   <g id="patch_35">
    <path d="M 635.063834 37.95691 
L 635.738648 37.95691 
Q 636.450952 37.95691 637.238234 37.881931 
Q 638.025517 37.806952 638.981503 37.675738 
Q 639.93749 37.544524 640.462345 37.507034 
L 644.736166 35.82 
M 640.687283 30.42149 
L 640.687283 31.43371 
Q 640.687283 33.383172 640.012469 37.207117 
Q 639.337655 41.031062 639.337655 43.018014 
Q 639.337655 43.805297 639.337655 44.105214 
Q 639.337655 44.405131 639.431379 45.042455 
Q 639.525103 45.679779 639.712552 45.960952 
Q 639.9 46.242124 640.293641 46.485807 
Q 640.687283 46.72949 641.249628 46.72949 
Q 641.362097 46.692 641.680759 46.72949 
Q 641.999421 46.766979 642.186869 46.710745 
Q 642.374317 46.65451 642.374317 46.392083 
" clip-path="url(#pc9184033da)" style="fill: none; stroke: #000000; stroke-linejoin: miter"/>
   </g>
  </g>
  <g id="axes_41">
   <g id="patch_36">
    <path d="M 650.963917 36.382345 
Q 650.926428 36.494814 651.057641 36.701007 
Q 651.188855 36.9072 651.076386 37.057159 
L 651.076386 39.306538 
Q 651.076386 40.506207 651.413793 41.724621 
Q 651.7512 42.943034 652.613462 43.93651 
Q 653.475724 44.929986 654.675393 44.929986 
Q 655.912552 44.929986 656.587366 43.861531 
Q 657.262179 42.793076 657.712055 41.143531 
Q 658.161931 39.493986 658.499338 38.969131 
L 659.286621 36.382345 
L 659.061683 42.680607 
L 659.061683 45.154924 
Q 659.061683 47.066897 659.792731 51.00331 
Q 660.523779 54.939724 660.523779 56.964166 
Q 661.273572 59.213545 660.186372 60.188276 
Q 659.099172 61.163007 657.037241 60.78811 
Q 655.237738 60.488193 654.319241 60.169531 
Q 653.400745 59.850869 651.413793 58.988607 
L 651.301324 58.426262 
" clip-path="url(#pb6d564799a)" style="fill: none; stroke: #000000; stroke-linejoin: miter"/>
   </g>
  </g>
 </g>
 <defs>
  <clipPath id="pad6528cd4f">
   <rect x="0" y="13.491103" width="16.2" height="44.657795"/>
  </clipPath>
  <clipPath id="p8b781f2cb7">
   <rect x="21.806938" y="8.64" width="4.986124" height="54.36"/>
  </clipPath>
  <clipPath id="pa18be60aa5">
   <rect x="38.231876" y="8.64" width="4.536248" height="54.36"/>
  </clipPath>
  <clipPath id="p063224fa3a">
   <rect x="48.6" y="8.881927" width="16.2" height="53.876147"/>
  </clipPath>
  <clipPath id="p75a0fa360f">
   <rect x="66.564248" y="8.64" width="12.671503" height="54.36"/>
  </clipPath>
  <clipPath id="pb0f6d28e20">
   <rect x="82.389352" y="8.64" width="13.421297" height="54.36"/>
  </clipPath>
  <clipPath id="paacecd26de">
   <rect x="103.031876" y="8.64" width="4.536248" height="54.36"/>
  </clipPath>
  <clipPath id="pfa6ca77f05">
   <rect x="114.451945" y="8.64" width="14.09611" height="54.36"/>
  </clipPath>
  <clipPath id="pe155e03ca2">
   <rect x="147.189352" y="8.64" width="13.421297" height="54.36"/>
  </clipPath>
  <clipPath id="p5d5cbdf84e">
   <rect x="164.738979" y="8.64" width="10.722041" height="54.36"/>
  </clipPath>
  <clipPath id="p3d2a8b4512">
   <rect x="178.2" y="8.881927" width="16.2" height="53.876147"/>
  </clipPath>
  <clipPath id="pd38fda335f">
   <rect x="210.6" y="9.426742" width="16.2" height="52.786517"/>
  </clipPath>
  <clipPath id="p4c27fc6d6a">
   <rect x="229.538979" y="8.64" width="10.722041" height="54.36"/>
  </clipPath>
  <clipPath id="pf41397934f">
   <rect x="243.602069" y="8.64" width="14.995862" height="54.36"/>
  </clipPath>
  <clipPath id="p852bab5e17">
   <rect x="260.982993" y="8.64" width="12.634014" height="54.36"/>
  </clipPath>
  <clipPath id="p9dcd36d95e">
   <rect x="276.789352" y="8.64" width="13.421297" height="54.36"/>
  </clipPath>
  <clipPath id="pf7250d742c">
   <rect x="309.582993" y="8.64" width="12.634014" height="54.36"/>
  </clipPath>
  <clipPath id="p53e2c17a83">
   <rect x="329.831876" y="8.64" width="4.536248" height="54.36"/>
  </clipPath>
  <clipPath id="p04888175a7">
   <rect x="341.589352" y="8.64" width="13.421297" height="54.36"/>
  </clipPath>
  <clipPath id="p98e202d318">
   <rect x="358.164248" y="8.64" width="12.671503" height="54.36"/>
  </clipPath>
  <clipPath id="p1d748413e3">
   <rect x="374.382993" y="8.64" width="12.634014" height="54.36"/>
  </clipPath>
  <clipPath id="p63fe141ca1">
   <rect x="394.200745" y="8.64" width="5.39851" height="54.36"/>
  </clipPath>
  <clipPath id="p58c54c2624">
   <rect x="421.2" y="10.936525" width="16.2" height="49.766949"/>
  </clipPath>
  <clipPath id="pd8e04a68ea">
   <rect x="443.006938" y="8.64" width="4.986124" height="54.36"/>
  </clipPath>
  <clipPath id="p54f54db09b">
   <rect x="454.989352" y="8.64" width="13.421297" height="54.36"/>
  </clipPath>
  <clipPath id="p6a570c64d8">
   <rect x="472.538979" y="8.64" width="10.722041" height="54.36"/>
  </clipPath>
  <clipPath id="p9477ec279f">
   <rect x="503.589352" y="8.64" width="13.421297" height="54.36"/>
  </clipPath>
  <clipPath id="pba6ba130ea">
   <rect x="521.138979" y="8.64" width="10.722041" height="54.36"/>
  </clipPath>
  <clipPath id="p56a32b4f6a">
   <rect x="534.6" y="8.881927" width="16.2" height="53.876147"/>
  </clipPath>
  <clipPath id="p2a970b1510">
   <rect x="567.883241" y="8.64" width="14.433517" height="54.36"/>
  </clipPath>
  <clipPath id="p3236edbe2a">
   <rect x="585.938979" y="8.64" width="10.722041" height="54.36"/>
  </clipPath>
  <clipPath id="p6e42eb42ba">
   <rect x="599.4" y="8.881927" width="16.2" height="53.876147"/>
  </clipPath>
  <clipPath id="pf8ac57b0ca">
   <rect x="616.989352" y="8.64" width="13.421297" height="54.36"/>
  </clipPath>
  <clipPath id="pc9184033da">
   <rect x="633.189352" y="8.64" width="13.421297" height="54.36"/>
  </clipPath>
  <clipPath id="pb6d564799a">
   <rect x="649.051945" y="8.64" width="14.09611" height="54.36"/>
  </clipPath>
 </defs>
</svg>
