<?xml version="1.0" encoding="utf-8" standalone="no"?>
<!DOCTYPE svg PUBLIC "-//W3C//DTD SVG 1.1//EN"
  "http://www.w3.org/Graphics/SVG/1.1/DTD/svg11.dtd">
<svg xmlns:xlink="http://www.w3.org/1999/xlink" width="666pt" height="72pt" viewBox="0 0 666 72" xmlns="http://www.w3.org/2000/svg" version="1.1">
 <metadata>
  <rdf:RDF xmlns:dc="http://purl.org/dc/elements/1.1/" xmlns:cc="http://creativecommons.org/ns#" xmlns:rdf="http://www.w3.org/1999/02/22-rdf-syntax-ns#">
   <cc:Work>
    <dc:type rdf:resource="http://purl.org/dc/dcmitype/StillImage"/>
    <dc:date>2024-01-04T18:46:52.322230</dc:date>
    <dc:format>image/svg+xml</dc:format>
    <dc:creator>
     <cc:Agent>
      <dc:title>Matplotlib v3.7.1, https://matplotlib.org/</dc:title>
     </cc:Agent>
    </dc:creator>
   </cc:Work>
  </rdf:RDF>
 </metadata>
 <defs>
  <style type="text/css">*{stroke-linejoin: round; stroke-linecap: butt}</style>
 </defs>
 <g id="figure_1">
  <g id="patch_1">
   <path d="M 0 72 
L 666 72 
L 666 0 
L 0 0 
z
" style="fill: #8fff9f"/>
  </g>
  <g id="axes_1">
   <g id="patch_2">
    <path d="M 8.624855 27.009931 
Q 8.699834 27.347338 8.774814 28.265834 
Q 8.849793 29.184331 8.999752 29.634207 
L 8.924772 31.058814 
M 7.275228 27.309848 
Q 7.237738 27.309848 7.200248 27.534786 
Q 7.237738 27.684745 7.350207 28.828179 
Q 7.462676 29.971614 7.725103 30.533959 
" clip-path="url(#p38a5646ae7)" style="fill: none; stroke: #000000; stroke-linejoin: miter"/>
   </g>
  </g>
  <g id="axes_2">
   <g id="patch_3">
    <path d="M 17.287248 30.470738 
L 18.461477 30.601208 
Q 20.288054 30.601208 22.125503 30.709933 
Q 23.962953 30.818658 26.202685 30.992617 
Q 28.442416 31.166577 29.877584 31.253557 
L 31.312752 31.123087 
M 24.071678 31.057852 
Q 24.136913 31.405772 23.875973 32.177718 
Q 23.615034 32.949664 23.810738 33.406309 
Q 23.810738 34.711007 23.952081 36.363624 
Q 24.093423 38.016242 24.310872 39.973289 
Q 24.528322 41.930336 24.593557 42.800134 
" clip-path="url(#pc6378aea43)" style="fill: none; stroke: #000000; stroke-linejoin: miter"/>
   </g>
  </g>
  <g id="axes_3">
   <g id="patch_4">
    <path d="M 37.013462 35.932469 
Q 37.613297 35.257655 38.606772 34.826524 
Q 39.600248 34.395393 40.5 34.470372 
Q 41.137324 34.470372 41.62469 34.639076 
Q 42.112055 34.807779 42.430717 34.995228 
Q 42.749379 35.182676 42.974317 35.670041 
Q 43.199255 36.157407 43.311724 36.419834 
Q 43.424193 36.682262 43.480428 37.375821 
Q 43.536662 38.069379 43.555407 38.331807 
Q 43.574152 38.594234 43.555407 39.419007 
Q 43.536662 40.243779 43.536662 40.431228 
Q 43.536662 41.368469 43.367959 43.242952 
Q 43.199255 45.117434 43.199255 46.054676 
Q 43.199255 46.467062 43.25549 46.823214 
Q 43.311724 47.179366 43.405448 47.610497 
Q 43.499172 48.041628 43.536662 48.304055 
L 43.986538 48.528993 
M 37.463338 23.111007 
Q 37.688276 24.798041 37.688276 29.971614 
L 37.688276 42.3432 
L 37.350869 46.841959 
L 37.125931 47.74171 
" clip-path="url(#p2e22ed2894)" style="fill: none; stroke: #000000; stroke-linejoin: miter"/>
   </g>
  </g>
  <g id="axes_4">
   <g id="patch_5">
    <path d="M 62.243923 36.441748 
Q 61.034968 35.094627 57.062687 35.094627 
Q 55.542857 35.094627 54.765672 35.146439 
Q 53.988486 35.198252 52.98678 35.440043 
Q 51.985075 35.681834 51.501493 36.182687 
Q 51.01791 36.683539 50.672495 37.616162 
Q 50.327079 38.548785 50.327079 39.964989 
Q 50.327079 42.037484 51.743284 43.280981 
Q 53.159488 44.524478 55.093817 44.524478 
Q 57.753518 44.524478 60.516844 38.721493 
Q 61.863966 35.854542 61.863966 35.82 
Q 62.209382 35.578209 62.243923 36.441748 
Q 62.243923 37.512537 62.658422 40.362217 
Q 63.072921 43.211898 63.072921 44.524478 
" clip-path="url(#p04ac77fa06)" style="fill: none; stroke: #000000; stroke-linejoin: miter"/>
   </g>
  </g>
  <g id="axes_5">
   <g id="patch_6">
    <path d="M 68.438731 37.282097 
L 68.438731 37.844441 
Q 68.701159 39.868883 68.738648 41.312234 
Q 68.776138 42.755586 68.682414 44.667559 
Q 68.58869 46.579531 68.58869 48.191586 
L 68.663669 39.643945 
Q 68.663669 38.144359 70.256979 37.507034 
Q 71.85029 36.86971 73.274897 37.282097 
Q 75.186869 37.844441 76.105366 39.04411 
Q 77.023862 40.243779 77.080097 41.668386 
Q 77.136331 43.092993 77.173821 44.817517 
Q 77.21131 46.542041 77.361269 48.191586 
" clip-path="url(#p7d30f6ab04)" style="fill: none; stroke: #000000; stroke-linejoin: miter"/>
   </g>
  </g>
  <g id="axes_6">
   <g id="patch_7">
    <path d="M 87.131793 37.169628 
Q 89.156234 39.194069 90.918248 41.76211 
Q 92.680262 44.330152 93.542524 46.72949 
M 90.168455 31.321241 
L 90.168455 31.546179 
Q 90.168455 32.333462 89.531131 33.514386 
Q 88.893807 34.69531 87.919076 36.101172 
Q 86.944345 37.507034 86.681917 37.95691 
L 85.444759 39.643945 
M 84.657476 26.710014 
Q 86.494469 36.269876 86.681917 48.641462 
" clip-path="url(#p1af1a1c53a)" style="fill: none; stroke: #000000; stroke-linejoin: miter"/>
   </g>
  </g>
  <g id="axes_7"/>
  <g id="axes_8">
   <g id="patch_8">
    <path d="M 116.363917 36.382345 
Q 116.326428 36.494814 116.457641 36.701007 
Q 116.588855 36.9072 116.476386 37.057159 
L 116.476386 39.306538 
Q 116.476386 40.506207 116.813793 41.724621 
Q 117.1512 42.943034 118.013462 43.93651 
Q 118.875724 44.929986 120.075393 44.929986 
Q 121.312552 44.929986 121.987366 43.861531 
Q 122.662179 42.793076 123.112055 41.143531 
Q 123.561931 39.493986 123.899338 38.969131 
L 124.686621 36.382345 
L 124.461683 42.680607 
L 124.461683 45.154924 
Q 124.461683 47.066897 125.192731 51.00331 
Q 125.923779 54.939724 125.923779 56.964166 
Q 126.673572 59.213545 125.586372 60.188276 
Q 124.499172 61.163007 122.437241 60.78811 
Q 120.637738 60.488193 119.719241 60.169531 
Q 118.800745 59.850869 116.813793 58.988607 
L 116.701324 58.426262 
" clip-path="url(#pd8c998da45)" style="fill: none; stroke: #000000; stroke-linejoin: miter"/>
   </g>
  </g>
  <g id="axes_9">
   <g id="patch_9">
    <path d="M 140.9616 35.032717 
Q 139.91189 34.582841 138.937159 34.69531 
Q 135.900497 35.032717 133.988524 36.701007 
Q 132.076552 38.369297 132.076552 41.330979 
Q 132.076552 43.917766 134.082248 45.6048 
Q 136.087945 47.291834 138.712221 47.291834 
Q 141.074069 47.291834 142.198759 45.361117 
Q 143.323448 43.4304 143.323448 40.881103 
Q 143.323448 39.643945 142.911062 38.706703 
Q 142.498676 37.769462 141.973821 37.300841 
Q 141.448966 36.832221 140.699172 36.119917 
Q 139.949379 35.407614 139.499503 34.69531 
L 138.262345 34.245434 
" clip-path="url(#pd53356209b)" style="fill: none; stroke: #000000; stroke-linejoin: miter"/>
   </g>
  </g>
  <g id="axes_10">
   <g id="patch_10">
    <path d="M 149.288772 35.145186 
Q 149.288772 35.145186 149.288772 35.595062 
Q 149.288772 36.269876 149.176303 37.619503 
Q 149.063834 38.969131 149.063834 39.643945 
Q 149.063834 41.930814 150.300993 43.599103 
Q 151.538152 45.267393 153.675062 45.267393 
Q 155.062179 45.154924 155.830717 43.917766 
Q 156.599255 42.680607 156.749214 41.237255 
Q 156.899172 39.793903 157.1616 37.9944 
Q 157.424028 36.194897 157.836414 35.370124 
Q 157.986372 35.070207 157.986372 35.670041 
Q 157.986372 36.269876 157.723945 38.706703 
Q 157.499007 41.031062 157.499007 41.555917 
Q 157.349048 42.643117 157.686455 43.767807 
Q 158.023862 44.892497 158.736166 45.6048 
" clip-path="url(#p90ff4efc0e)" style="fill: none; stroke: #000000; stroke-linejoin: miter"/>
   </g>
  </g>
  <g id="axes_11">
   <g id="patch_11">
    <path d="M 169.387697 39.981352 
Q 170.399917 40.956083 170.737324 42.905545 
Q 170.924772 43.955255 170.512386 46.167145 
L 169.275228 47.629241 
" clip-path="url(#pd6bed77888)" style="fill: none; stroke: #000000; stroke-linejoin: miter"/>
   </g>
  </g>
  <g id="axes_12"/>
  <g id="axes_13">
   <g id="patch_12">
    <path d="M 197.363917 36.382345 
Q 197.326428 36.494814 197.457641 36.701007 
Q 197.588855 36.9072 197.476386 37.057159 
L 197.476386 39.306538 
Q 197.476386 40.506207 197.813793 41.724621 
Q 198.1512 42.943034 199.013462 43.93651 
Q 199.875724 44.929986 201.075393 44.929986 
Q 202.312552 44.929986 202.987366 43.861531 
Q 203.662179 42.793076 204.112055 41.143531 
Q 204.561931 39.493986 204.899338 38.969131 
L 205.686621 36.382345 
L 205.461683 42.680607 
L 205.461683 45.154924 
Q 205.461683 47.066897 206.192731 51.00331 
Q 206.923779 54.939724 206.923779 56.964166 
Q 207.673572 59.213545 206.586372 60.188276 
Q 205.499172 61.163007 203.437241 60.78811 
Q 201.637738 60.488193 200.719241 60.169531 
Q 199.800745 59.850869 197.813793 58.988607 
L 197.701324 58.426262 
" clip-path="url(#peab590a219)" style="fill: none; stroke: #000000; stroke-linejoin: miter"/>
   </g>
  </g>
  <g id="axes_14">
   <g id="patch_13">
    <path d="M 221.9616 35.032717 
Q 220.91189 34.582841 219.937159 34.69531 
Q 216.900497 35.032717 214.988524 36.701007 
Q 213.076552 38.369297 213.076552 41.330979 
Q 213.076552 43.917766 215.082248 45.6048 
Q 217.087945 47.291834 219.712221 47.291834 
Q 222.074069 47.291834 223.198759 45.361117 
Q 224.323448 43.4304 224.323448 40.881103 
Q 224.323448 39.643945 223.911062 38.706703 
Q 223.498676 37.769462 222.973821 37.300841 
Q 222.448966 36.832221 221.699172 36.119917 
Q 220.949379 35.407614 220.499503 34.69531 
L 219.262345 34.245434 
" clip-path="url(#p29534bafec)" style="fill: none; stroke: #000000; stroke-linejoin: miter"/>
   </g>
  </g>
  <g id="axes_15">
   <g id="patch_14">
    <path d="M 230.288772 35.145186 
Q 230.288772 35.145186 230.288772 35.595062 
Q 230.288772 36.269876 230.176303 37.619503 
Q 230.063834 38.969131 230.063834 39.643945 
Q 230.063834 41.930814 231.300993 43.599103 
Q 232.538152 45.267393 234.675062 45.267393 
Q 236.062179 45.154924 236.830717 43.917766 
Q 237.599255 42.680607 237.749214 41.237255 
Q 237.899172 39.793903 238.1616 37.9944 
Q 238.424028 36.194897 238.836414 35.370124 
Q 238.986372 35.070207 238.986372 35.670041 
Q 238.986372 36.269876 238.723945 38.706703 
Q 238.499007 41.031062 238.499007 41.555917 
Q 238.349048 42.643117 238.686455 43.767807 
Q 239.023862 44.892497 239.736166 45.6048 
" clip-path="url(#pa51f9929d6)" style="fill: none; stroke: #000000; stroke-linejoin: miter"/>
   </g>
  </g>
  <g id="axes_16"/>
  <g id="axes_17">
   <g id="patch_15">
    <path d="M 263.813462 35.932469 
Q 264.413297 35.257655 265.406772 34.826524 
Q 266.400248 34.395393 267.3 34.470372 
Q 267.937324 34.470372 268.42469 34.639076 
Q 268.912055 34.807779 269.230717 34.995228 
Q 269.549379 35.182676 269.774317 35.670041 
Q 269.999255 36.157407 270.111724 36.419834 
Q 270.224193 36.682262 270.280428 37.375821 
Q 270.336662 38.069379 270.355407 38.331807 
Q 270.374152 38.594234 270.355407 39.419007 
Q 270.336662 40.243779 270.336662 40.431228 
Q 270.336662 41.368469 270.167959 43.242952 
Q 269.999255 45.117434 269.999255 46.054676 
Q 269.999255 46.467062 270.05549 46.823214 
Q 270.111724 47.179366 270.205448 47.610497 
Q 270.299172 48.041628 270.336662 48.304055 
L 270.786538 48.528993 
M 264.263338 23.111007 
Q 264.488276 24.798041 264.488276 29.971614 
L 264.488276 42.3432 
L 264.150869 46.841959 
L 263.925931 47.74171 
" clip-path="url(#pe52bc28452)" style="fill: none; stroke: #000000; stroke-linejoin: miter"/>
   </g>
  </g>
  <g id="axes_18">
   <g id="patch_16">
    <path d="M 289.043923 36.441748 
Q 287.834968 35.094627 283.862687 35.094627 
Q 282.342857 35.094627 281.565672 35.146439 
Q 280.788486 35.198252 279.78678 35.440043 
Q 278.785075 35.681834 278.301493 36.182687 
Q 277.81791 36.683539 277.472495 37.616162 
Q 277.127079 38.548785 277.127079 39.964989 
Q 277.127079 42.037484 278.543284 43.280981 
Q 279.959488 44.524478 281.893817 44.524478 
Q 284.553518 44.524478 287.316844 38.721493 
Q 288.663966 35.854542 288.663966 35.82 
Q 289.009382 35.578209 289.043923 36.441748 
Q 289.043923 37.512537 289.458422 40.362217 
Q 289.872921 43.211898 289.872921 44.524478 
" clip-path="url(#p16dccb203c)" style="fill: none; stroke: #000000; stroke-linejoin: miter"/>
   </g>
  </g>
  <g id="axes_19">
   <g id="patch_17">
    <path d="M 295.426179 34.807779 
Q 297.038234 36.719752 298.331628 39.6252 
Q 299.625021 42.530648 299.924938 45.154924 
Q 300.974648 43.655338 301.893145 38.819172 
Q 302.811641 33.983007 303.973821 32.108524 
" clip-path="url(#pb1282d554b)" style="fill: none; stroke: #000000; stroke-linejoin: miter"/>
   </g>
  </g>
  <g id="axes_20">
   <g id="patch_18">
    <path d="M 309.657798 38.160826 
Q 312.630275 39.535596 317.349083 39.721376 
Q 318.872477 39.721376 319.559862 38.550963 
Q 320.247248 37.38055 320.247248 35.82 
Q 320.247248 35.299817 320.154358 34.909679 
Q 320.061468 34.519541 319.819954 34.296606 
Q 319.57844 34.07367 319.411239 33.943624 
Q 319.244037 33.813578 318.798165 33.757844 
Q 318.352294 33.70211 318.147936 33.683532 
Q 317.943578 33.664954 317.367661 33.683532 
Q 316.791743 33.70211 316.568807 33.70211 
Q 314.525229 33.70211 313.038991 35.578486 
Q 311.552752 37.454862 311.552752 39.609908 
Q 311.552752 42.619541 313.484862 44.570229 
Q 315.416972 46.520917 318.463761 46.520917 
Q 320.618807 46.818165 322.142202 44.29156 
" clip-path="url(#pdad7bb8b5b)" style="fill: none; stroke: #000000; stroke-linejoin: miter"/>
   </g>
  </g>
  <g id="axes_21"/>
  <g id="axes_22">
   <g id="patch_19">
    <path d="M 353.087191 39.096404 
Q 352.83236 39.023596 351.86764 38.623146 
Q 350.902921 38.222697 350.24764 38.077079 
Q 349.59236 37.931461 348.937079 38.00427 
Q 346.315955 38.00427 344.677753 40.388764 
Q 343.039551 42.773258 343.039551 45.430787 
Q 343.039551 47.068989 348.281798 47.068989 
Q 349.847191 47.068989 351.175955 45.558202 
Q 352.504719 44.047416 353.178202 42.172584 
Q 353.851685 40.297753 353.851685 38.768764 
Q 353.851685 37.27618 353.815281 36.984944 
L 353.742472 38.077079 
Q 353.742472 38.550337 353.742472 38.987191 
Q 353.778876 40.188539 353.979101 42.281798 
Q 354.179326 44.375056 354.343146 46.049663 
Q 354.506966 47.72427 354.543371 49.872135 
Q 354.579775 52.02 354.415955 53.658202 
Q 354.252135 55.296404 353.687865 56.971011 
Q 353.123596 58.645618 352.195281 59.737753 
Q 351.266966 60.829888 349.665169 61.521573 
Q 348.063371 62.213258 345.915506 62.213258 
Q 344.277303 62.213258 343.185169 61.466966 
Q 342.093034 60.720674 342.093034 59.155281 
Q 342.020225 58.936854 342.056629 58.936854 
Q 342.093034 58.936854 342.202247 58.936854 
Q 342.311461 58.936854 342.311461 58.82764 
" clip-path="url(#p19c3dbc278)" style="fill: none; stroke: #000000; stroke-linejoin: miter"/>
   </g>
  </g>
  <g id="axes_23">
   <g id="patch_20">
    <path d="M 365.118579 29.071862 
Q 364.743683 29.146841 364.612469 29.577972 
Q 364.481255 30.009103 364.556234 30.42149 
Q 364.556234 30.571448 364.593724 30.702662 
Q 364.631214 30.833876 364.687448 30.89011 
Q 364.743683 30.946345 364.799917 31.040069 
Q 364.856152 31.133793 364.893641 31.208772 
L 365.00611 29.859145 
M 365.00611 34.020497 
Q 364.106359 39.006621 363.881421 42.793076 
L 364.331297 45.379862 
L 364.668703 46.054676 
" clip-path="url(#p846430adcd)" style="fill: none; stroke: #000000; stroke-linejoin: miter"/>
   </g>
  </g>
  <g id="axes_24">
   <g id="patch_21">
    <path d="M 376.426179 34.807779 
Q 378.038234 36.719752 379.331628 39.6252 
Q 380.625021 42.530648 380.924938 45.154924 
Q 381.974648 43.655338 382.893145 38.819172 
Q 383.811641 33.983007 384.973821 32.108524 
" clip-path="url(#p5f491c586c)" style="fill: none; stroke: #000000; stroke-linejoin: miter"/>
   </g>
  </g>
  <g id="axes_25">
   <g id="patch_22">
    <path d="M 390.657798 38.160826 
Q 393.630275 39.535596 398.349083 39.721376 
Q 399.872477 39.721376 400.559862 38.550963 
Q 401.247248 37.38055 401.247248 35.82 
Q 401.247248 35.299817 401.154358 34.909679 
Q 401.061468 34.519541 400.819954 34.296606 
Q 400.57844 34.07367 400.411239 33.943624 
Q 400.244037 33.813578 399.798165 33.757844 
Q 399.352294 33.70211 399.147936 33.683532 
Q 398.943578 33.664954 398.367661 33.683532 
Q 397.791743 33.70211 397.568807 33.70211 
Q 395.525229 33.70211 394.038991 35.578486 
Q 392.552752 37.454862 392.552752 39.609908 
Q 392.552752 42.619541 394.484862 44.570229 
Q 396.416972 46.520917 399.463761 46.520917 
Q 401.618807 46.818165 403.142202 44.29156 
" clip-path="url(#pecec4f7d34)" style="fill: none; stroke: #000000; stroke-linejoin: miter"/>
   </g>
  </g>
  <g id="axes_26">
   <g id="patch_23">
    <path d="M 408.638731 37.282097 
L 408.638731 37.844441 
Q 408.901159 39.868883 408.938648 41.312234 
Q 408.976138 42.755586 408.882414 44.667559 
Q 408.78869 46.579531 408.78869 48.191586 
L 408.863669 39.643945 
Q 408.863669 38.144359 410.456979 37.507034 
Q 412.05029 36.86971 413.474897 37.282097 
Q 415.386869 37.844441 416.305366 39.04411 
Q 417.223862 40.243779 417.280097 41.668386 
Q 417.336331 43.092993 417.373821 44.817517 
Q 417.41131 46.542041 417.561269 48.191586 
" clip-path="url(#p58c0ee3a47)" style="fill: none; stroke: #000000; stroke-linejoin: miter"/>
   </g>
  </g>
  <g id="axes_27"/>
  <g id="axes_28">
   <g id="patch_24">
    <path d="M 439.208036 34.879821 
Q 439.714286 36.073125 440.003571 42.871339 
Q 440.148214 46.632054 440.4375 46.632054 
Q 440.473661 46.632054 440.509821 46.595893 
Q 441.016071 46.017321 441.070312 44.588973 
Q 441.124554 43.160625 440.907589 41.750357 
Q 440.690625 40.340089 440.4375 38.712857 
Q 440.184375 37.085625 440.184375 36.398571 
Q 440.184375 35.169107 440.564062 33.939643 
Q 440.94375 32.710179 441.920089 32.710179 
Q 443.149554 32.710179 443.872768 34.355491 
Q 444.595982 36.000804 444.758705 37.971562 
Q 444.921429 39.942321 445.029911 41.587634 
Q 445.138393 43.232946 445.283036 43.232946 
Q 445.427679 43.232946 445.51808 41.497232 
Q 445.608482 39.761518 445.735045 37.700357 
Q 445.861607 35.639196 446.584821 33.903482 
Q 447.308036 32.167768 448.5375 32.167768 
Q 450.092411 33.035625 450.761384 34.771339 
Q 451.430357 36.507054 451.394196 38.188527 
Q 451.358036 39.87 451.376116 42.057723 
Q 451.394196 44.245446 451.791964 45.511071 
" clip-path="url(#pd610584eba)" style="fill: none; stroke: #000000; stroke-linejoin: miter"/>
   </g>
  </g>
  <g id="axes_29">
   <g id="patch_25">
    <path d="M 455.457798 38.160826 
Q 458.430275 39.535596 463.149083 39.721376 
Q 464.672477 39.721376 465.359862 38.550963 
Q 466.047248 37.38055 466.047248 35.82 
Q 466.047248 35.299817 465.954358 34.909679 
Q 465.861468 34.519541 465.619954 34.296606 
Q 465.37844 34.07367 465.211239 33.943624 
Q 465.044037 33.813578 464.598165 33.757844 
Q 464.152294 33.70211 463.947936 33.683532 
Q 463.743578 33.664954 463.167661 33.683532 
Q 462.591743 33.70211 462.368807 33.70211 
Q 460.325229 33.70211 458.838991 35.578486 
Q 457.352752 37.454862 457.352752 39.609908 
Q 457.352752 42.619541 459.284862 44.570229 
Q 461.216972 46.520917 464.263761 46.520917 
Q 466.418807 46.818165 467.942202 44.29156 
" clip-path="url(#pb1795b149d)" style="fill: none; stroke: #000000; stroke-linejoin: miter"/>
   </g>
  </g>
  <g id="axes_30"/>
  <g id="axes_31">
   <g id="patch_26">
    <path d="M 489.320069 39.868883 
L 489.320069 39.419007 
Q 489.320069 37.769462 491.063338 36.682262 
Q 492.806607 35.595062 494.493641 35.595062 
Q 496.705531 35.595062 498.073903 36.794731 
Q 499.442276 37.9944 499.442276 40.20629 
Q 499.442276 42.30571 497.624028 43.336676 
Q 495.805779 44.367641 493.59389 44.367641 
Q 492.919076 44.367641 492.412966 44.255172 
Q 491.906855 44.142703 491.288276 43.917766 
Q 490.669697 43.692828 490.219821 43.580359 
L 489.095131 42.568138 
M 488.757724 36.832221 
Q 489.2076 38.444276 489.470028 40.262524 
Q 489.732455 42.080772 489.78869 43.749062 
Q 489.844924 45.417352 489.882414 47.27309 
Q 489.919903 49.128828 489.882414 50.778372 
L 489.769945 57.863917 
" clip-path="url(#p6043216c20)" style="fill: none; stroke: #000000; stroke-linejoin: miter"/>
   </g>
  </g>
  <g id="axes_32">
   <g id="patch_27">
    <path d="M 504.057798 38.160826 
Q 507.030275 39.535596 511.749083 39.721376 
Q 513.272477 39.721376 513.959862 38.550963 
Q 514.647248 37.38055 514.647248 35.82 
Q 514.647248 35.299817 514.554358 34.909679 
Q 514.461468 34.519541 514.219954 34.296606 
Q 513.97844 34.07367 513.811239 33.943624 
Q 513.644037 33.813578 513.198165 33.757844 
Q 512.752294 33.70211 512.547936 33.683532 
Q 512.343578 33.664954 511.767661 33.683532 
Q 511.191743 33.70211 510.968807 33.70211 
Q 508.925229 33.70211 507.438991 35.578486 
Q 505.952752 37.454862 505.952752 39.609908 
Q 505.952752 42.619541 507.884862 44.570229 
Q 509.816972 46.520917 512.863761 46.520917 
Q 515.018807 46.818165 516.542202 44.29156 
" clip-path="url(#p86a9d5155d)" style="fill: none; stroke: #000000; stroke-linejoin: miter"/>
   </g>
  </g>
  <g id="axes_33">
   <g id="patch_28">
    <path d="M 532.043923 36.441748 
Q 530.834968 35.094627 526.862687 35.094627 
Q 525.342857 35.094627 524.565672 35.146439 
Q 523.788486 35.198252 522.78678 35.440043 
Q 521.785075 35.681834 521.301493 36.182687 
Q 520.81791 36.683539 520.472495 37.616162 
Q 520.127079 38.548785 520.127079 39.964989 
Q 520.127079 42.037484 521.543284 43.280981 
Q 522.959488 44.524478 524.893817 44.524478 
Q 527.553518 44.524478 530.316844 38.721493 
Q 531.663966 35.854542 531.663966 35.82 
Q 532.009382 35.578209 532.043923 36.441748 
Q 532.043923 37.512537 532.458422 40.362217 
Q 532.872921 43.211898 532.872921 44.524478 
" clip-path="url(#p4619e24007)" style="fill: none; stroke: #000000; stroke-linejoin: miter"/>
   </g>
  </g>
  <g id="axes_34">
   <g id="patch_29">
    <path d="M 547.956735 34.365306 
Q 547.956735 34.365306 547.460816 34.365306 
Q 546.667347 34.365306 545.179592 34.067755 
Q 543.691837 33.770204 542.898367 33.770204 
Q 540.121224 33.770204 538.187143 35.224898 
Q 536.253061 36.679592 536.253061 39.423673 
Q 536.253061 40.94449 537.740816 42.399184 
Q 539.228571 43.853878 541.162653 44.663878 
Q 543.096735 45.473878 544.58449 45.473878 
Q 545.510204 45.473878 546.20449 45.110204 
Q 546.898776 44.746531 547.642653 44.118367 
Q 548.386531 43.490204 548.948571 43.192653 
L 549.146939 42.696735 
" clip-path="url(#p483bf4577f)" style="fill: none; stroke: #000000; stroke-linejoin: miter"/>
   </g>
  </g>
  <g id="axes_35">
   <g id="patch_30">
    <path d="M 552.657798 38.160826 
Q 555.630275 39.535596 560.349083 39.721376 
Q 561.872477 39.721376 562.559862 38.550963 
Q 563.247248 37.38055 563.247248 35.82 
Q 563.247248 35.299817 563.154358 34.909679 
Q 563.061468 34.519541 562.819954 34.296606 
Q 562.57844 34.07367 562.411239 33.943624 
Q 562.244037 33.813578 561.798165 33.757844 
Q 561.352294 33.70211 561.147936 33.683532 
Q 560.943578 33.664954 560.367661 33.683532 
Q 559.791743 33.70211 559.568807 33.70211 
Q 557.525229 33.70211 556.038991 35.578486 
Q 554.552752 37.454862 554.552752 39.609908 
Q 554.552752 42.619541 556.484862 44.570229 
Q 558.416972 46.520917 561.463761 46.520917 
Q 563.618807 46.818165 565.142202 44.29156 
" clip-path="url(#pd7a2b6d4f1)" style="fill: none; stroke: #000000; stroke-linejoin: miter"/>
   </g>
  </g>
  <g id="axes_36">
   <g id="patch_31">
    <path d="M 574.987531 45.979697 
Q 574.950041 46.017186 574.818828 46.054676 
Q 574.687614 46.092166 574.725103 46.167145 
Q 574.725103 46.579531 575.1 46.579531 
Q 575.437407 46.579531 575.437407 46.092166 
Q 575.512386 45.867228 575.231214 45.754759 
Q 574.950041 45.64229 574.762593 45.754759 
" clip-path="url(#ped2115049e)" style="fill: none; stroke: #000000; stroke-linejoin: miter"/>
   </g>
  </g>
  <g id="axes_37">
   <g id="patch_32">
    <path d="M 591.824855 27.009931 
Q 591.899834 27.347338 591.974814 28.265834 
Q 592.049793 29.184331 592.199752 29.634207 
L 592.124772 31.058814 
M 590.475228 27.309848 
Q 590.437738 27.309848 590.400248 27.534786 
Q 590.437738 27.684745 590.550207 28.828179 
Q 590.662676 29.971614 590.925103 30.533959 
" clip-path="url(#pcc54672998)" style="fill: none; stroke: #000000; stroke-linejoin: miter"/>
   </g>
  </g>
 </g>
 <defs>
  <clipPath id="p38a5646ae7">
   <rect x="5.325766" y="8.64" width="5.548469" height="54.36"/>
  </clipPath>
  <clipPath id="pc6378aea43">
   <rect x="16.2" y="20.054899" width="16.2" height="31.530201"/>
  </clipPath>
  <clipPath id="p2e22ed2894">
   <rect x="35.138979" y="8.64" width="10.722041" height="54.36"/>
  </clipPath>
  <clipPath id="p04ac77fa06">
   <rect x="48.6" y="10.777356" width="16.2" height="50.085288"/>
  </clipPath>
  <clipPath id="p7d30f6ab04">
   <rect x="66.564248" y="8.64" width="12.671503" height="54.36"/>
  </clipPath>
  <clipPath id="p1af1a1c53a">
   <rect x="82.782993" y="8.64" width="12.634014" height="54.36"/>
  </clipPath>
  <clipPath id="pd8c998da45">
   <rect x="114.451945" y="8.64" width="14.09611" height="54.36"/>
  </clipPath>
  <clipPath id="pd53356209b">
   <rect x="130.202069" y="8.64" width="14.995862" height="54.36"/>
  </clipPath>
  <clipPath id="p90ff4efc0e">
   <rect x="147.189352" y="8.64" width="13.421297" height="54.36"/>
  </clipPath>
  <clipPath id="pd6bed77888">
   <rect x="167.400745" y="8.64" width="5.39851" height="54.36"/>
  </clipPath>
  <clipPath id="peab590a219">
   <rect x="195.451945" y="8.64" width="14.09611" height="54.36"/>
  </clipPath>
  <clipPath id="p29534bafec">
   <rect x="211.202069" y="8.64" width="14.995862" height="54.36"/>
  </clipPath>
  <clipPath id="pa51f9929d6">
   <rect x="228.189352" y="8.64" width="13.421297" height="54.36"/>
  </clipPath>
  <clipPath id="pe52bc28452">
   <rect x="261.938979" y="8.64" width="10.722041" height="54.36"/>
  </clipPath>
  <clipPath id="p16dccb203c">
   <rect x="275.4" y="10.777356" width="16.2" height="50.085288"/>
  </clipPath>
  <clipPath id="pb1282d554b">
   <rect x="293.551697" y="8.64" width="12.296607" height="54.36"/>
  </clipPath>
  <clipPath id="pdad7bb8b5b">
   <rect x="307.8" y="8.881927" width="16.2" height="53.876147"/>
  </clipPath>
  <clipPath id="p19c3dbc278">
   <rect x="340.2" y="9.426742" width="16.2" height="52.786517"/>
  </clipPath>
  <clipPath id="p846430adcd">
   <rect x="362.006938" y="8.64" width="4.986124" height="54.36"/>
  </clipPath>
  <clipPath id="p5f491c586c">
   <rect x="374.551697" y="8.64" width="12.296607" height="54.36"/>
  </clipPath>
  <clipPath id="pecec4f7d34">
   <rect x="388.8" y="8.881927" width="16.2" height="53.876147"/>
  </clipPath>
  <clipPath id="p58c0ee3a47">
   <rect x="406.764248" y="8.64" width="12.671503" height="54.36"/>
  </clipPath>
  <clipPath id="pd610584eba">
   <rect x="437.4" y="9.603482" width="16.2" height="52.433036"/>
  </clipPath>
  <clipPath id="pb1795b149d">
   <rect x="453.6" y="8.881927" width="16.2" height="53.876147"/>
  </clipPath>
  <clipPath id="p6043216c20">
   <rect x="486.883241" y="8.64" width="14.433517" height="54.36"/>
  </clipPath>
  <clipPath id="p86a9d5155d">
   <rect x="502.2" y="8.881927" width="16.2" height="53.876147"/>
  </clipPath>
  <clipPath id="p4619e24007">
   <rect x="518.4" y="10.777356" width="16.2" height="50.085288"/>
  </clipPath>
  <clipPath id="p483bf4577f">
   <rect x="534.6" y="11.850612" width="16.2" height="47.938776"/>
  </clipPath>
  <clipPath id="pd7a2b6d4f1">
   <rect x="550.8" y="8.881927" width="16.2" height="53.876147"/>
  </clipPath>
  <clipPath id="ped2115049e">
   <rect x="572.813131" y="8.64" width="4.573738" height="54.36"/>
  </clipPath>
  <clipPath id="pcc54672998">
   <rect x="588.525766" y="8.64" width="5.548469" height="54.36"/>
  </clipPath>
 </defs>
</svg>
