<?xml version="1.0" encoding="utf-8" standalone="no"?>
<!DOCTYPE svg PUBLIC "-//W3C//DTD SVG 1.1//EN"
  "http://www.w3.org/Graphics/SVG/1.1/DTD/svg11.dtd">
<svg xmlns:xlink="http://www.w3.org/1999/xlink" width="756pt" height="72pt" viewBox="0 0 756 72" xmlns="http://www.w3.org/2000/svg" version="1.1">
 <metadata>
  <rdf:RDF xmlns:dc="http://purl.org/dc/elements/1.1/" xmlns:cc="http://creativecommons.org/ns#" xmlns:rdf="http://www.w3.org/1999/02/22-rdf-syntax-ns#">
   <cc:Work>
    <dc:type rdf:resource="http://purl.org/dc/dcmitype/StillImage"/>
    <dc:date>2024-01-04T18:46:48.564319</dc:date>
    <dc:format>image/svg+xml</dc:format>
    <dc:creator>
     <cc:Agent>
      <dc:title>Matplotlib v3.7.1, https://matplotlib.org/</dc:title>
     </cc:Agent>
    </dc:creator>
   </cc:Work>
  </rdf:RDF>
 </metadata>
 <defs>
  <style type="text/css">*{stroke-linejoin: round; stroke-linecap: butt}</style>
 </defs>
 <g id="figure_1">
  <g id="patch_1">
   <path d="M 0 72 
L 756 72 
L 756 0 
L 0 0 
z
" style="fill: #8fff9f"/>
  </g>
  <g id="axes_1">
   <g id="patch_2">
    <path d="M 11.699007 39.568966 
Q 10.349379 38.181848 8.1 38.444276 
Q 5.250786 38.444276 4.088607 39.793903 
Q 2.926428 41.143531 2.926428 44.067724 
Q 2.926428 45.56731 4.219821 46.279614 
Q 5.513214 46.991917 7.087779 46.991917 
Q 8.399917 46.991917 9.412138 45.736014 
Q 10.424359 44.48011 11.005448 42.30571 
Q 11.586538 40.13131 11.961434 37.938166 
Q 12.336331 35.745021 12.48629 33.045766 
Q 12.636248 30.34651 12.673738 28.978138 
Q 12.711228 27.609766 12.711228 26.185159 
Q 12.48629 26.260138 12.48629 29.896634 
L 12.48629 44.292662 
L 13.273572 48.229076 
" clip-path="url(#pf808442de3)" style="fill: none; stroke: #000000; stroke-linejoin: miter"/>
   </g>
  </g>
  <g id="axes_2">
   <g id="patch_3">
    <path d="M 27.5616 35.032717 
Q 26.51189 34.582841 25.537159 34.69531 
Q 22.500497 35.032717 20.588524 36.701007 
Q 18.676552 38.369297 18.676552 41.330979 
Q 18.676552 43.917766 20.682248 45.6048 
Q 22.687945 47.291834 25.312221 47.291834 
Q 27.674069 47.291834 28.798759 45.361117 
Q 29.923448 43.4304 29.923448 40.881103 
Q 29.923448 39.643945 29.511062 38.706703 
Q 29.098676 37.769462 28.573821 37.300841 
Q 28.048966 36.832221 27.299172 36.119917 
Q 26.549379 35.407614 26.099503 34.69531 
L 24.862345 34.245434 
" clip-path="url(#pde0a4120b2)" style="fill: none; stroke: #000000; stroke-linejoin: miter"/>
   </g>
  </g>
  <g id="axes_3">
   <g id="patch_4">
    <path d="M 39.787697 39.981352 
Q 40.799917 40.956083 41.137324 42.905545 
Q 41.324772 43.955255 40.912386 46.167145 
L 39.675228 47.629241 
" clip-path="url(#p90c2f867dc)" style="fill: none; stroke: #000000; stroke-linejoin: miter"/>
   </g>
  </g>
  <g id="axes_4">
   <g id="patch_5">
    <path d="M 57.224855 27.009931 
Q 57.299834 27.347338 57.374814 28.265834 
Q 57.449793 29.184331 57.599752 29.634207 
L 57.524772 31.058814 
M 55.875228 27.309848 
Q 55.837738 27.309848 55.800248 27.534786 
Q 55.837738 27.684745 55.950207 28.828179 
Q 56.062676 29.971614 56.325103 30.533959 
" clip-path="url(#pbdfbbd0c6f)" style="fill: none; stroke: #000000; stroke-linejoin: miter"/>
   </g>
  </g>
  <g id="axes_5"/>
  <g id="axes_6">
   <g id="patch_6">
    <path d="M 84.263834 37.95691 
L 84.938648 37.95691 
Q 85.650952 37.95691 86.438234 37.881931 
Q 87.225517 37.806952 88.181503 37.675738 
Q 89.13749 37.544524 89.662345 37.507034 
L 93.936166 35.82 
M 89.887283 30.42149 
L 89.887283 31.43371 
Q 89.887283 33.383172 89.212469 37.207117 
Q 88.537655 41.031062 88.537655 43.018014 
Q 88.537655 43.805297 88.537655 44.105214 
Q 88.537655 44.405131 88.631379 45.042455 
Q 88.725103 45.679779 88.912552 45.960952 
Q 89.1 46.242124 89.493641 46.485807 
Q 89.887283 46.72949 90.449628 46.72949 
Q 90.562097 46.692 90.880759 46.72949 
Q 91.199421 46.766979 91.386869 46.710745 
Q 91.574317 46.65451 91.574317 46.392083 
" clip-path="url(#p88544ef3c6)" style="fill: none; stroke: #000000; stroke-linejoin: miter"/>
   </g>
  </g>
  <g id="axes_7">
   <g id="patch_7">
    <path d="M 101.813462 35.932469 
Q 102.413297 35.257655 103.406772 34.826524 
Q 104.400248 34.395393 105.3 34.470372 
Q 105.937324 34.470372 106.42469 34.639076 
Q 106.912055 34.807779 107.230717 34.995228 
Q 107.549379 35.182676 107.774317 35.670041 
Q 107.999255 36.157407 108.111724 36.419834 
Q 108.224193 36.682262 108.280428 37.375821 
Q 108.336662 38.069379 108.355407 38.331807 
Q 108.374152 38.594234 108.355407 39.419007 
Q 108.336662 40.243779 108.336662 40.431228 
Q 108.336662 41.368469 108.167959 43.242952 
Q 107.999255 45.117434 107.999255 46.054676 
Q 107.999255 46.467062 108.05549 46.823214 
Q 108.111724 47.179366 108.205448 47.610497 
Q 108.299172 48.041628 108.336662 48.304055 
L 108.786538 48.528993 
M 102.263338 23.111007 
Q 102.488276 24.798041 102.488276 29.971614 
L 102.488276 42.3432 
L 102.150869 46.841959 
L 101.925931 47.74171 
" clip-path="url(#p622eb1eb36)" style="fill: none; stroke: #000000; stroke-linejoin: miter"/>
   </g>
  </g>
  <g id="axes_8">
   <g id="patch_8">
    <path d="M 115.257798 38.160826 
Q 118.230275 39.535596 122.949083 39.721376 
Q 124.472477 39.721376 125.159862 38.550963 
Q 125.847248 37.38055 125.847248 35.82 
Q 125.847248 35.299817 125.754358 34.909679 
Q 125.661468 34.519541 125.419954 34.296606 
Q 125.17844 34.07367 125.011239 33.943624 
Q 124.844037 33.813578 124.398165 33.757844 
Q 123.952294 33.70211 123.747936 33.683532 
Q 123.543578 33.664954 122.967661 33.683532 
Q 122.391743 33.70211 122.168807 33.70211 
Q 120.125229 33.70211 118.638991 35.578486 
Q 117.152752 37.454862 117.152752 39.609908 
Q 117.152752 42.619541 119.084862 44.570229 
Q 121.016972 46.520917 124.063761 46.520917 
Q 126.218807 46.818165 127.742202 44.29156 
" clip-path="url(#pada8c557d5)" style="fill: none; stroke: #000000; stroke-linejoin: miter"/>
   </g>
  </g>
  <g id="axes_9"/>
  <g id="axes_10">
   <g id="patch_9">
    <path d="M 158.687191 39.096404 
Q 158.43236 39.023596 157.46764 38.623146 
Q 156.502921 38.222697 155.84764 38.077079 
Q 155.19236 37.931461 154.537079 38.00427 
Q 151.915955 38.00427 150.277753 40.388764 
Q 148.639551 42.773258 148.639551 45.430787 
Q 148.639551 47.068989 153.881798 47.068989 
Q 155.447191 47.068989 156.775955 45.558202 
Q 158.104719 44.047416 158.778202 42.172584 
Q 159.451685 40.297753 159.451685 38.768764 
Q 159.451685 37.27618 159.415281 36.984944 
L 159.342472 38.077079 
Q 159.342472 38.550337 159.342472 38.987191 
Q 159.378876 40.188539 159.579101 42.281798 
Q 159.779326 44.375056 159.943146 46.049663 
Q 160.106966 47.72427 160.143371 49.872135 
Q 160.179775 52.02 160.015955 53.658202 
Q 159.852135 55.296404 159.287865 56.971011 
Q 158.723596 58.645618 157.795281 59.737753 
Q 156.866966 60.829888 155.265169 61.521573 
Q 153.663371 62.213258 151.515506 62.213258 
Q 149.877303 62.213258 148.785169 61.466966 
Q 147.693034 60.720674 147.693034 59.155281 
Q 147.620225 58.936854 147.656629 58.936854 
Q 147.693034 58.936854 147.802247 58.936854 
Q 147.911461 58.936854 147.911461 58.82764 
" clip-path="url(#p2bc8ecfb5e)" style="fill: none; stroke: #000000; stroke-linejoin: miter"/>
   </g>
  </g>
  <g id="axes_11">
   <g id="patch_10">
    <path d="M 166.613462 35.932469 
Q 167.213297 35.257655 168.206772 34.826524 
Q 169.200248 34.395393 170.1 34.470372 
Q 170.737324 34.470372 171.22469 34.639076 
Q 171.712055 34.807779 172.030717 34.995228 
Q 172.349379 35.182676 172.574317 35.670041 
Q 172.799255 36.157407 172.911724 36.419834 
Q 173.024193 36.682262 173.080428 37.375821 
Q 173.136662 38.069379 173.155407 38.331807 
Q 173.174152 38.594234 173.155407 39.419007 
Q 173.136662 40.243779 173.136662 40.431228 
Q 173.136662 41.368469 172.967959 43.242952 
Q 172.799255 45.117434 172.799255 46.054676 
Q 172.799255 46.467062 172.85549 46.823214 
Q 172.911724 47.179366 173.005448 47.610497 
Q 173.099172 48.041628 173.136662 48.304055 
L 173.586538 48.528993 
M 167.063338 23.111007 
Q 167.288276 24.798041 167.288276 29.971614 
L 167.288276 42.3432 
L 166.950869 46.841959 
L 166.725931 47.74171 
" clip-path="url(#pc853cd34ed)" style="fill: none; stroke: #000000; stroke-linejoin: miter"/>
   </g>
  </g>
  <g id="axes_12">
   <g id="patch_11">
    <path d="M 189.5616 35.032717 
Q 188.51189 34.582841 187.537159 34.69531 
Q 184.500497 35.032717 182.588524 36.701007 
Q 180.676552 38.369297 180.676552 41.330979 
Q 180.676552 43.917766 182.682248 45.6048 
Q 184.687945 47.291834 187.312221 47.291834 
Q 189.674069 47.291834 190.798759 45.361117 
Q 191.923448 43.4304 191.923448 40.881103 
Q 191.923448 39.643945 191.511062 38.706703 
Q 191.098676 37.769462 190.573821 37.300841 
Q 190.048966 36.832221 189.299172 36.119917 
Q 188.549379 35.407614 188.099503 34.69531 
L 186.862345 34.245434 
" clip-path="url(#pfe10fa74ed)" style="fill: none; stroke: #000000; stroke-linejoin: miter"/>
   </g>
  </g>
  <g id="axes_13">
   <g id="patch_12">
    <path d="M 198.057476 43.917766 
Q 198.357393 44.180193 199.369614 45.154924 
Q 200.381834 46.129655 200.944179 46.560786 
Q 201.506524 46.991917 202.53749 47.385559 
Q 203.568455 47.7792 204.580676 47.629241 
Q 205.25549 47.629241 205.72411 47.404303 
Q 206.192731 47.179366 206.417669 46.879448 
Q 206.642607 46.579531 206.773821 45.979697 
Q 206.905034 45.379862 206.923779 44.967476 
Q 206.942524 44.55509 206.942524 43.805297 
Q 206.942524 42.718097 206.042772 42.043283 
Q 205.143021 41.368469 203.849628 41.031062 
Q 202.556234 40.693655 201.262841 40.300014 
Q 199.969448 39.906372 199.069697 38.987876 
Q 198.169945 38.069379 198.169945 36.607283 
Q 198.169945 36.082428 198.338648 35.726276 
Q 198.507352 35.370124 198.900993 35.145186 
Q 199.294634 34.920248 199.575807 34.807779 
Q 199.856979 34.69531 200.513048 34.639076 
Q 201.169117 34.582841 201.356566 34.582841 
Q 201.544014 34.582841 202.218828 34.582841 
Q 203.418497 34.582841 203.999586 34.995228 
Q 204.580676 35.407614 204.899338 36.026193 
Q 205.218 36.644772 205.480428 36.832221 
" clip-path="url(#p323e2b0b5d)" style="fill: none; stroke: #000000; stroke-linejoin: miter"/>
   </g>
  </g>
  <g id="axes_14">
   <g id="patch_13">
    <path d="M 213.863834 37.95691 
L 214.538648 37.95691 
Q 215.250952 37.95691 216.038234 37.881931 
Q 216.825517 37.806952 217.781503 37.675738 
Q 218.73749 37.544524 219.262345 37.507034 
L 223.536166 35.82 
M 219.487283 30.42149 
L 219.487283 31.43371 
Q 219.487283 33.383172 218.812469 37.207117 
Q 218.137655 41.031062 218.137655 43.018014 
Q 218.137655 43.805297 218.137655 44.105214 
Q 218.137655 44.405131 218.231379 45.042455 
Q 218.325103 45.679779 218.512552 45.960952 
Q 218.7 46.242124 219.093641 46.485807 
Q 219.487283 46.72949 220.049628 46.72949 
Q 220.162097 46.692 220.480759 46.72949 
Q 220.799421 46.766979 220.986869 46.710745 
Q 221.174317 46.65451 221.174317 46.392083 
" clip-path="url(#p4bb7c91bb3)" style="fill: none; stroke: #000000; stroke-linejoin: miter"/>
   </g>
  </g>
  <g id="axes_15"/>
  <g id="axes_16">
   <g id="patch_14">
    <path d="M 246.657476 43.917766 
Q 246.957393 44.180193 247.969614 45.154924 
Q 248.981834 46.129655 249.544179 46.560786 
Q 250.106524 46.991917 251.13749 47.385559 
Q 252.168455 47.7792 253.180676 47.629241 
Q 253.85549 47.629241 254.32411 47.404303 
Q 254.792731 47.179366 255.017669 46.879448 
Q 255.242607 46.579531 255.373821 45.979697 
Q 255.505034 45.379862 255.523779 44.967476 
Q 255.542524 44.55509 255.542524 43.805297 
Q 255.542524 42.718097 254.642772 42.043283 
Q 253.743021 41.368469 252.449628 41.031062 
Q 251.156234 40.693655 249.862841 40.300014 
Q 248.569448 39.906372 247.669697 38.987876 
Q 246.769945 38.069379 246.769945 36.607283 
Q 246.769945 36.082428 246.938648 35.726276 
Q 247.107352 35.370124 247.500993 35.145186 
Q 247.894634 34.920248 248.175807 34.807779 
Q 248.456979 34.69531 249.113048 34.639076 
Q 249.769117 34.582841 249.956566 34.582841 
Q 250.144014 34.582841 250.818828 34.582841 
Q 252.018497 34.582841 252.599586 34.995228 
Q 253.180676 35.407614 253.499338 36.026193 
Q 253.818 36.644772 254.080428 36.832221 
" clip-path="url(#p7cf9f9c602)" style="fill: none; stroke: #000000; stroke-linejoin: miter"/>
   </g>
  </g>
  <g id="axes_17">
   <g id="patch_15">
    <path d="M 272.843923 36.441748 
Q 271.634968 35.094627 267.662687 35.094627 
Q 266.142857 35.094627 265.365672 35.146439 
Q 264.588486 35.198252 263.58678 35.440043 
Q 262.585075 35.681834 262.101493 36.182687 
Q 261.61791 36.683539 261.272495 37.616162 
Q 260.927079 38.548785 260.927079 39.964989 
Q 260.927079 42.037484 262.343284 43.280981 
Q 263.759488 44.524478 265.693817 44.524478 
Q 268.353518 44.524478 271.116844 38.721493 
Q 272.463966 35.854542 272.463966 35.82 
Q 272.809382 35.578209 272.843923 36.441748 
Q 272.843923 37.512537 273.258422 40.362217 
Q 273.672921 43.211898 273.672921 44.524478 
" clip-path="url(#pf417fe9b53)" style="fill: none; stroke: #000000; stroke-linejoin: miter"/>
   </g>
  </g>
  <g id="axes_18">
   <g id="patch_16">
    <path d="M 284.118579 29.071862 
Q 283.743683 29.146841 283.612469 29.577972 
Q 283.481255 30.009103 283.556234 30.42149 
Q 283.556234 30.571448 283.593724 30.702662 
Q 283.631214 30.833876 283.687448 30.89011 
Q 283.743683 30.946345 283.799917 31.040069 
Q 283.856152 31.133793 283.893641 31.208772 
L 284.00611 29.859145 
M 284.00611 34.020497 
Q 283.106359 39.006621 282.881421 42.793076 
L 283.331297 45.379862 
L 283.668703 46.054676 
" clip-path="url(#pf1377a78c5)" style="fill: none; stroke: #000000; stroke-linejoin: miter"/>
   </g>
  </g>
  <g id="axes_19">
   <g id="patch_17">
    <path d="M 303.299007 39.568966 
Q 301.949379 38.181848 299.7 38.444276 
Q 296.850786 38.444276 295.688607 39.793903 
Q 294.526428 41.143531 294.526428 44.067724 
Q 294.526428 45.56731 295.819821 46.279614 
Q 297.113214 46.991917 298.687779 46.991917 
Q 299.999917 46.991917 301.012138 45.736014 
Q 302.024359 44.48011 302.605448 42.30571 
Q 303.186538 40.13131 303.561434 37.938166 
Q 303.936331 35.745021 304.08629 33.045766 
Q 304.236248 30.34651 304.273738 28.978138 
Q 304.311228 27.609766 304.311228 26.185159 
Q 304.08629 26.260138 304.08629 29.896634 
L 304.08629 44.292662 
L 304.873572 48.229076 
" clip-path="url(#p171180e7c5)" style="fill: none; stroke: #000000; stroke-linejoin: miter"/>
   </g>
  </g>
  <g id="axes_20">
   <g id="patch_18">
    <path d="M 315.187697 39.981352 
Q 316.199917 40.956083 316.537324 42.905545 
Q 316.724772 43.955255 316.312386 46.167145 
L 315.075228 47.629241 
" clip-path="url(#pe968900891)" style="fill: none; stroke: #000000; stroke-linejoin: miter"/>
   </g>
  </g>
  <g id="axes_21"/>
  <g id="axes_22">
   <g id="patch_19">
    <path d="M 348.824855 27.009931 
Q 348.899834 27.347338 348.974814 28.265834 
Q 349.049793 29.184331 349.199752 29.634207 
L 349.124772 31.058814 
M 347.475228 27.309848 
Q 347.437738 27.309848 347.400248 27.534786 
Q 347.437738 27.684745 347.550207 28.828179 
Q 347.662676 29.971614 347.925103 30.533959 
" clip-path="url(#pf0c903055b)" style="fill: none; stroke: #000000; stroke-linejoin: miter"/>
   </g>
  </g>
  <g id="axes_23">
   <g id="patch_20">
    <path d="M 360.957228 37.244607 
Q 362.006938 37.207117 362.194386 37.132138 
Q 365.605945 37.132138 367.386703 39.212814 
Q 369.167462 41.29349 369.167462 44.780028 
Q 369.167462 47.704221 364.556234 47.704221 
Q 363.91891 47.704221 363.37531 47.591752 
Q 362.83171 47.479283 362.194386 47.254345 
Q 361.557062 47.029407 361.069697 46.916938 
L 359.832538 45.679779 
M 360.844759 25.435366 
L 360.844759 26.560055 
Q 360.844759 29.409269 360.957228 33.008276 
Q 361.069697 36.607283 361.257145 40.899848 
Q 361.444593 45.192414 361.519572 47.141876 
" clip-path="url(#pdf00532ca7)" style="fill: none; stroke: #000000; stroke-linejoin: miter"/>
   </g>
  </g>
  <g id="axes_24">
   <g id="patch_21">
    <path d="M 376.088772 35.145186 
Q 376.088772 35.145186 376.088772 35.595062 
Q 376.088772 36.269876 375.976303 37.619503 
Q 375.863834 38.969131 375.863834 39.643945 
Q 375.863834 41.930814 377.100993 43.599103 
Q 378.338152 45.267393 380.475062 45.267393 
Q 381.862179 45.154924 382.630717 43.917766 
Q 383.399255 42.680607 383.549214 41.237255 
Q 383.699172 39.793903 383.9616 37.9944 
Q 384.224028 36.194897 384.636414 35.370124 
Q 384.786372 35.070207 384.786372 35.670041 
Q 384.786372 36.269876 384.523945 38.706703 
Q 384.299007 41.031062 384.299007 41.555917 
Q 384.149048 42.643117 384.486455 43.767807 
Q 384.823862 44.892497 385.536166 45.6048 
" clip-path="url(#p4c6d079d48)" style="fill: none; stroke: #000000; stroke-linejoin: miter"/>
   </g>
  </g>
  <g id="axes_25">
   <g id="patch_22">
    <path d="M 392.063834 37.95691 
L 392.738648 37.95691 
Q 393.450952 37.95691 394.238234 37.881931 
Q 395.025517 37.806952 395.981503 37.675738 
Q 396.93749 37.544524 397.462345 37.507034 
L 401.736166 35.82 
M 397.687283 30.42149 
L 397.687283 31.43371 
Q 397.687283 33.383172 397.012469 37.207117 
Q 396.337655 41.031062 396.337655 43.018014 
Q 396.337655 43.805297 396.337655 44.105214 
Q 396.337655 44.405131 396.431379 45.042455 
Q 396.525103 45.679779 396.712552 45.960952 
Q 396.9 46.242124 397.293641 46.485807 
Q 397.687283 46.72949 398.249628 46.72949 
Q 398.362097 46.692 398.680759 46.72949 
Q 398.999421 46.766979 399.186869 46.710745 
Q 399.374317 46.65451 399.374317 46.392083 
" clip-path="url(#pb3ae97ad20)" style="fill: none; stroke: #000000; stroke-linejoin: miter"/>
   </g>
  </g>
  <g id="axes_26"/>
  <g id="axes_27">
   <g id="patch_23">
    <path d="M 422.514935 43.209935 
L 436.085065 43.209935 
M 423.856169 30.007987 
L 434.743831 29.929091 
M 428.747727 30.323571 
L 428.747727 30.718052 
Q 428.747727 32.243377 428.839773 33.99224 
Q 428.931818 35.741104 429.08961 37.910747 
Q 429.247403 40.08039 429.3 41.211234 
L 429.457792 43.025844 
" clip-path="url(#p7dad57781b)" style="fill: none; stroke: #000000; stroke-linejoin: miter"/>
   </g>
  </g>
  <g id="axes_28"/>
  <g id="axes_29">
   <g id="patch_24">
    <path d="M 458.213462 35.932469 
Q 458.813297 35.257655 459.806772 34.826524 
Q 460.800248 34.395393 461.7 34.470372 
Q 462.337324 34.470372 462.82469 34.639076 
Q 463.312055 34.807779 463.630717 34.995228 
Q 463.949379 35.182676 464.174317 35.670041 
Q 464.399255 36.157407 464.511724 36.419834 
Q 464.624193 36.682262 464.680428 37.375821 
Q 464.736662 38.069379 464.755407 38.331807 
Q 464.774152 38.594234 464.755407 39.419007 
Q 464.736662 40.243779 464.736662 40.431228 
Q 464.736662 41.368469 464.567959 43.242952 
Q 464.399255 45.117434 464.399255 46.054676 
Q 464.399255 46.467062 464.45549 46.823214 
Q 464.511724 47.179366 464.605448 47.610497 
Q 464.699172 48.041628 464.736662 48.304055 
L 465.186538 48.528993 
M 458.663338 23.111007 
Q 458.888276 24.798041 458.888276 29.971614 
L 458.888276 42.3432 
L 458.550869 46.841959 
L 458.325931 47.74171 
" clip-path="url(#p5430cc11e6)" style="fill: none; stroke: #000000; stroke-linejoin: miter"/>
   </g>
  </g>
  <g id="axes_30">
   <g id="patch_25">
    <path d="M 483.443923 36.441748 
Q 482.234968 35.094627 478.262687 35.094627 
Q 476.742857 35.094627 475.965672 35.146439 
Q 475.188486 35.198252 474.18678 35.440043 
Q 473.185075 35.681834 472.701493 36.182687 
Q 472.21791 36.683539 471.872495 37.616162 
Q 471.527079 38.548785 471.527079 39.964989 
Q 471.527079 42.037484 472.943284 43.280981 
Q 474.359488 44.524478 476.293817 44.524478 
Q 478.953518 44.524478 481.716844 38.721493 
Q 483.063966 35.854542 483.063966 35.82 
Q 483.409382 35.578209 483.443923 36.441748 
Q 483.443923 37.512537 483.858422 40.362217 
Q 484.272921 43.211898 484.272921 44.524478 
" clip-path="url(#p72db9e6dc5)" style="fill: none; stroke: #000000; stroke-linejoin: miter"/>
   </g>
  </g>
  <g id="axes_31">
   <g id="patch_26">
    <path d="M 497.699007 39.568966 
Q 496.349379 38.181848 494.1 38.444276 
Q 491.250786 38.444276 490.088607 39.793903 
Q 488.926428 41.143531 488.926428 44.067724 
Q 488.926428 45.56731 490.219821 46.279614 
Q 491.513214 46.991917 493.087779 46.991917 
Q 494.399917 46.991917 495.412138 45.736014 
Q 496.424359 44.48011 497.005448 42.30571 
Q 497.586538 40.13131 497.961434 37.938166 
Q 498.336331 35.745021 498.48629 33.045766 
Q 498.636248 30.34651 498.673738 28.978138 
Q 498.711228 27.609766 498.711228 26.185159 
Q 498.48629 26.260138 498.48629 29.896634 
L 498.48629 44.292662 
L 499.273572 48.229076 
" clip-path="url(#p436bdbe41b)" style="fill: none; stroke: #000000; stroke-linejoin: miter"/>
   </g>
  </g>
  <g id="axes_32"/>
  <g id="axes_33">
   <g id="patch_27">
    <path d="M 522.038731 37.282097 
L 522.038731 37.844441 
Q 522.301159 39.868883 522.338648 41.312234 
Q 522.376138 42.755586 522.282414 44.667559 
Q 522.18869 46.579531 522.18869 48.191586 
L 522.263669 39.643945 
Q 522.263669 38.144359 523.856979 37.507034 
Q 525.45029 36.86971 526.874897 37.282097 
Q 528.786869 37.844441 529.705366 39.04411 
Q 530.623862 40.243779 530.680097 41.668386 
Q 530.736331 43.092993 530.773821 44.817517 
Q 530.81131 46.542041 530.961269 48.191586 
" clip-path="url(#pcaede6a1ab)" style="fill: none; stroke: #000000; stroke-linejoin: miter"/>
   </g>
  </g>
  <g id="axes_34">
   <g id="patch_28">
    <path d="M 545.9616 35.032717 
Q 544.91189 34.582841 543.937159 34.69531 
Q 540.900497 35.032717 538.988524 36.701007 
Q 537.076552 38.369297 537.076552 41.330979 
Q 537.076552 43.917766 539.082248 45.6048 
Q 541.087945 47.291834 543.712221 47.291834 
Q 546.074069 47.291834 547.198759 45.361117 
Q 548.323448 43.4304 548.323448 40.881103 
Q 548.323448 39.643945 547.911062 38.706703 
Q 547.498676 37.769462 546.973821 37.300841 
Q 546.448966 36.832221 545.699172 36.119917 
Q 544.949379 35.407614 544.499503 34.69531 
L 543.262345 34.245434 
" clip-path="url(#pf4e037f41e)" style="fill: none; stroke: #000000; stroke-linejoin: miter"/>
   </g>
  </g>
  <g id="axes_35"/>
  <g id="axes_36">
   <g id="patch_29">
    <path d="M 571.557228 37.244607 
Q 572.606938 37.207117 572.794386 37.132138 
Q 576.205945 37.132138 577.986703 39.212814 
Q 579.767462 41.29349 579.767462 44.780028 
Q 579.767462 47.704221 575.156234 47.704221 
Q 574.51891 47.704221 573.97531 47.591752 
Q 573.43171 47.479283 572.794386 47.254345 
Q 572.157062 47.029407 571.669697 46.916938 
L 570.432538 45.679779 
M 571.444759 25.435366 
L 571.444759 26.560055 
Q 571.444759 29.409269 571.557228 33.008276 
Q 571.669697 36.607283 571.857145 40.899848 
Q 572.044593 45.192414 572.119572 47.141876 
" clip-path="url(#p51ea97ebf2)" style="fill: none; stroke: #000000; stroke-linejoin: miter"/>
   </g>
  </g>
  <g id="axes_37">
   <g id="patch_30">
    <path d="M 594.5616 35.032717 
Q 593.51189 34.582841 592.537159 34.69531 
Q 589.500497 35.032717 587.588524 36.701007 
Q 585.676552 38.369297 585.676552 41.330979 
Q 585.676552 43.917766 587.682248 45.6048 
Q 589.687945 47.291834 592.312221 47.291834 
Q 594.674069 47.291834 595.798759 45.361117 
Q 596.923448 43.4304 596.923448 40.881103 
Q 596.923448 39.643945 596.511062 38.706703 
Q 596.098676 37.769462 595.573821 37.300841 
Q 595.048966 36.832221 594.299172 36.119917 
Q 593.549379 35.407614 593.099503 34.69531 
L 591.862345 34.245434 
" clip-path="url(#pa9338d92a0)" style="fill: none; stroke: #000000; stroke-linejoin: miter"/>
   </g>
  </g>
  <g id="axes_38">
   <g id="patch_31">
    <path d="M 611.099007 39.568966 
Q 609.749379 38.181848 607.5 38.444276 
Q 604.650786 38.444276 603.488607 39.793903 
Q 602.326428 41.143531 602.326428 44.067724 
Q 602.326428 45.56731 603.619821 46.279614 
Q 604.913214 46.991917 606.487779 46.991917 
Q 607.799917 46.991917 608.812138 45.736014 
Q 609.824359 44.48011 610.405448 42.30571 
Q 610.986538 40.13131 611.361434 37.938166 
Q 611.736331 35.745021 611.88629 33.045766 
Q 612.036248 30.34651 612.073738 28.978138 
Q 612.111228 27.609766 612.111228 26.185159 
Q 611.88629 26.260138 611.88629 29.896634 
L 611.88629 44.292662 
L 612.673572 48.229076 
" clip-path="url(#p6176552397)" style="fill: none; stroke: #000000; stroke-linejoin: miter"/>
   </g>
  </g>
  <g id="axes_39">
   <g id="patch_32">
    <path d="M 618.563917 36.382345 
Q 618.526428 36.494814 618.657641 36.701007 
Q 618.788855 36.9072 618.676386 37.057159 
L 618.676386 39.306538 
Q 618.676386 40.506207 619.013793 41.724621 
Q 619.3512 42.943034 620.213462 43.93651 
Q 621.075724 44.929986 622.275393 44.929986 
Q 623.512552 44.929986 624.187366 43.861531 
Q 624.862179 42.793076 625.312055 41.143531 
Q 625.761931 39.493986 626.099338 38.969131 
L 626.886621 36.382345 
L 626.661683 42.680607 
L 626.661683 45.154924 
Q 626.661683 47.066897 627.392731 51.00331 
Q 628.123779 54.939724 628.123779 56.964166 
Q 628.873572 59.213545 627.786372 60.188276 
Q 626.699172 61.163007 624.637241 60.78811 
Q 622.837738 60.488193 621.919241 60.169531 
Q 621.000745 59.850869 619.013793 58.988607 
L 618.901324 58.426262 
" clip-path="url(#p3b6c8dd37b)" style="fill: none; stroke: #000000; stroke-linejoin: miter"/>
   </g>
  </g>
  <g id="axes_40"/>
  <g id="axes_41">
   <g id="patch_33">
    <path d="M 651.263834 37.95691 
L 651.938648 37.95691 
Q 652.650952 37.95691 653.438234 37.881931 
Q 654.225517 37.806952 655.181503 37.675738 
Q 656.13749 37.544524 656.662345 37.507034 
L 660.936166 35.82 
M 656.887283 30.42149 
L 656.887283 31.43371 
Q 656.887283 33.383172 656.212469 37.207117 
Q 655.537655 41.031062 655.537655 43.018014 
Q 655.537655 43.805297 655.537655 44.105214 
Q 655.537655 44.405131 655.631379 45.042455 
Q 655.725103 45.679779 655.912552 45.960952 
Q 656.1 46.242124 656.493641 46.485807 
Q 656.887283 46.72949 657.449628 46.72949 
Q 657.562097 46.692 657.880759 46.72949 
Q 658.199421 46.766979 658.386869 46.710745 
Q 658.574317 46.65451 658.574317 46.392083 
" clip-path="url(#pbde093f0dc)" style="fill: none; stroke: #000000; stroke-linejoin: miter"/>
   </g>
  </g>
  <g id="axes_42">
   <g id="patch_34">
    <path d="M 675.5616 35.032717 
Q 674.51189 34.582841 673.537159 34.69531 
Q 670.500497 35.032717 668.588524 36.701007 
Q 666.676552 38.369297 666.676552 41.330979 
Q 666.676552 43.917766 668.682248 45.6048 
Q 670.687945 47.291834 673.312221 47.291834 
Q 675.674069 47.291834 676.798759 45.361117 
Q 677.923448 43.4304 677.923448 40.881103 
Q 677.923448 39.643945 677.511062 38.706703 
Q 677.098676 37.769462 676.573821 37.300841 
Q 676.048966 36.832221 675.299172 36.119917 
Q 674.549379 35.407614 674.099503 34.69531 
L 672.862345 34.245434 
" clip-path="url(#pbe7d3d58aa)" style="fill: none; stroke: #000000; stroke-linejoin: miter"/>
   </g>
  </g>
 </g>
 <defs>
  <clipPath id="pf808442de3">
   <rect x="1.051945" y="8.64" width="14.09611" height="54.36"/>
  </clipPath>
  <clipPath id="pde0a4120b2">
   <rect x="16.802069" y="8.64" width="14.995862" height="54.36"/>
  </clipPath>
  <clipPath id="p90c2f867dc">
   <rect x="37.800745" y="8.64" width="5.39851" height="54.36"/>
  </clipPath>
  <clipPath id="pbdfbbd0c6f">
   <rect x="53.925766" y="8.64" width="5.548469" height="54.36"/>
  </clipPath>
  <clipPath id="p88544ef3c6">
   <rect x="82.389352" y="8.64" width="13.421297" height="54.36"/>
  </clipPath>
  <clipPath id="p622eb1eb36">
   <rect x="99.938979" y="8.64" width="10.722041" height="54.36"/>
  </clipPath>
  <clipPath id="pada8c557d5">
   <rect x="113.4" y="8.881927" width="16.2" height="53.876147"/>
  </clipPath>
  <clipPath id="p2bc8ecfb5e">
   <rect x="145.8" y="9.426742" width="16.2" height="52.786517"/>
  </clipPath>
  <clipPath id="pc853cd34ed">
   <rect x="164.738979" y="8.64" width="10.722041" height="54.36"/>
  </clipPath>
  <clipPath id="pfe10fa74ed">
   <rect x="178.802069" y="8.64" width="14.995862" height="54.36"/>
  </clipPath>
  <clipPath id="p323e2b0b5d">
   <rect x="196.182993" y="8.64" width="12.634014" height="54.36"/>
  </clipPath>
  <clipPath id="p4bb7c91bb3">
   <rect x="211.989352" y="8.64" width="13.421297" height="54.36"/>
  </clipPath>
  <clipPath id="p7cf9f9c602">
   <rect x="244.782993" y="8.64" width="12.634014" height="54.36"/>
  </clipPath>
  <clipPath id="pf417fe9b53">
   <rect x="259.2" y="10.777356" width="16.2" height="50.085288"/>
  </clipPath>
  <clipPath id="pf1377a78c5">
   <rect x="281.006938" y="8.64" width="4.986124" height="54.36"/>
  </clipPath>
  <clipPath id="p171180e7c5">
   <rect x="292.651945" y="8.64" width="14.09611" height="54.36"/>
  </clipPath>
  <clipPath id="pe968900891">
   <rect x="313.200745" y="8.64" width="5.39851" height="54.36"/>
  </clipPath>
  <clipPath id="pf0c903055b">
   <rect x="345.525766" y="8.64" width="5.548469" height="54.36"/>
  </clipPath>
  <clipPath id="pdf00532ca7">
   <rect x="357.958055" y="8.64" width="13.08389" height="54.36"/>
  </clipPath>
  <clipPath id="p4c6d079d48">
   <rect x="373.989352" y="8.64" width="13.421297" height="54.36"/>
  </clipPath>
  <clipPath id="pb3ae97ad20">
   <rect x="390.189352" y="8.64" width="13.421297" height="54.36"/>
  </clipPath>
  <clipPath id="p7dad57781b">
   <rect x="421.2" y="16.753442" width="16.2" height="38.133117"/>
  </clipPath>
  <clipPath id="p5430cc11e6">
   <rect x="456.338979" y="8.64" width="10.722041" height="54.36"/>
  </clipPath>
  <clipPath id="p72db9e6dc5">
   <rect x="469.8" y="10.777356" width="16.2" height="50.085288"/>
  </clipPath>
  <clipPath id="p436bdbe41b">
   <rect x="487.051945" y="8.64" width="14.09611" height="54.36"/>
  </clipPath>
  <clipPath id="pcaede6a1ab">
   <rect x="520.164248" y="8.64" width="12.671503" height="54.36"/>
  </clipPath>
  <clipPath id="pf4e037f41e">
   <rect x="535.202069" y="8.64" width="14.995862" height="54.36"/>
  </clipPath>
  <clipPath id="p51ea97ebf2">
   <rect x="568.558055" y="8.64" width="13.08389" height="54.36"/>
  </clipPath>
  <clipPath id="pa9338d92a0">
   <rect x="583.802069" y="8.64" width="14.995862" height="54.36"/>
  </clipPath>
  <clipPath id="p6176552397">
   <rect x="600.451945" y="8.64" width="14.09611" height="54.36"/>
  </clipPath>
  <clipPath id="p3b6c8dd37b">
   <rect x="616.651945" y="8.64" width="14.09611" height="54.36"/>
  </clipPath>
  <clipPath id="pbde093f0dc">
   <rect x="649.389352" y="8.64" width="13.421297" height="54.36"/>
  </clipPath>
  <clipPath id="pbe7d3d58aa">
   <rect x="664.802069" y="8.64" width="14.995862" height="54.36"/>
  </clipPath>
 </defs>
</svg>
