<?xml version="1.0" encoding="utf-8" standalone="no"?>
<!DOCTYPE svg PUBLIC "-//W3C//DTD SVG 1.1//EN"
  "http://www.w3.org/Graphics/SVG/1.1/DTD/svg11.dtd">
<svg xmlns:xlink="http://www.w3.org/1999/xlink" width="90pt" height="72pt" viewBox="0 0 90 72" xmlns="http://www.w3.org/2000/svg" version="1.1">
 <metadata>
  <rdf:RDF xmlns:dc="http://purl.org/dc/elements/1.1/" xmlns:cc="http://creativecommons.org/ns#" xmlns:rdf="http://www.w3.org/1999/02/22-rdf-syntax-ns#">
   <cc:Work>
    <dc:type rdf:resource="http://purl.org/dc/dcmitype/StillImage"/>
    <dc:date>2024-01-04T18:46:54.061848</dc:date>
    <dc:format>image/svg+xml</dc:format>
    <dc:creator>
     <cc:Agent>
      <dc:title>Matplotlib v3.7.1, https://matplotlib.org/</dc:title>
     </cc:Agent>
    </dc:creator>
   </cc:Work>
  </rdf:RDF>
 </metadata>
 <defs>
  <style type="text/css">*{stroke-linejoin: round; stroke-linecap: butt}</style>
 </defs>
 <g id="figure_1">
  <g id="patch_1">
   <path d="M 0 72 
L 90 72 
L 90 0 
L 0 0 
z
" style="fill: #8fff9f"/>
  </g>
  <g id="axes_1">
   <g id="patch_2">
    <path d="M 3.638731 37.282097 
L 3.638731 37.844441 
Q 3.901159 39.868883 3.938648 41.312234 
Q 3.976138 42.755586 3.882414 44.667559 
Q 3.78869 46.579531 3.78869 48.191586 
L 3.863669 39.643945 
Q 3.863669 38.144359 5.456979 37.507034 
Q 7.05029 36.86971 8.474897 37.282097 
Q 10.386869 37.844441 11.305366 39.04411 
Q 12.223862 40.243779 12.280097 41.668386 
Q 12.336331 43.092993 12.373821 44.817517 
Q 12.41131 46.542041 12.561269 48.191586 
" clip-path="url(#p2cf3e8c7ff)" style="fill: none; stroke: #000000; stroke-linejoin: miter"/>
   </g>
  </g>
  <g id="axes_2">
   <g id="patch_3">
    <path d="M 18.057798 38.160826 
Q 21.030275 39.535596 25.749083 39.721376 
Q 27.272477 39.721376 27.959862 38.550963 
Q 28.647248 37.38055 28.647248 35.82 
Q 28.647248 35.299817 28.554358 34.909679 
Q 28.461468 34.519541 28.219954 34.296606 
Q 27.97844 34.07367 27.811239 33.943624 
Q 27.644037 33.813578 27.198165 33.757844 
Q 26.752294 33.70211 26.547936 33.683532 
Q 26.343578 33.664954 25.767661 33.683532 
Q 25.191743 33.70211 24.968807 33.70211 
Q 22.925229 33.70211 21.438991 35.578486 
Q 19.952752 37.454862 19.952752 39.609908 
Q 19.952752 42.619541 21.884862 44.570229 
Q 23.816972 46.520917 26.863761 46.520917 
Q 29.018807 46.818165 30.542202 44.29156 
" clip-path="url(#pad087c1897)" style="fill: none; stroke: #000000; stroke-linejoin: miter"/>
   </g>
  </g>
  <g id="axes_3">
   <g id="patch_4">
    <path d="M 36.057476 43.917766 
Q 36.357393 44.180193 37.369614 45.154924 
Q 38.381834 46.129655 38.944179 46.560786 
Q 39.506524 46.991917 40.53749 47.385559 
Q 41.568455 47.7792 42.580676 47.629241 
Q 43.25549 47.629241 43.72411 47.404303 
Q 44.192731 47.179366 44.417669 46.879448 
Q 44.642607 46.579531 44.773821 45.979697 
Q 44.905034 45.379862 44.923779 44.967476 
Q 44.942524 44.55509 44.942524 43.805297 
Q 44.942524 42.718097 44.042772 42.043283 
Q 43.143021 41.368469 41.849628 41.031062 
Q 40.556234 40.693655 39.262841 40.300014 
Q 37.969448 39.906372 37.069697 38.987876 
Q 36.169945 38.069379 36.169945 36.607283 
Q 36.169945 36.082428 36.338648 35.726276 
Q 36.507352 35.370124 36.900993 35.145186 
Q 37.294634 34.920248 37.575807 34.807779 
Q 37.856979 34.69531 38.513048 34.639076 
Q 39.169117 34.582841 39.356566 34.582841 
Q 39.544014 34.582841 40.218828 34.582841 
Q 41.418497 34.582841 41.999586 34.995228 
Q 42.580676 35.407614 42.899338 36.026193 
Q 43.218 36.644772 43.480428 36.832221 
" clip-path="url(#pb4599630a4)" style="fill: none; stroke: #000000; stroke-linejoin: miter"/>
   </g>
  </g>
  <g id="axes_4">
   <g id="patch_5">
    <path d="M 52.257476 43.917766 
Q 52.557393 44.180193 53.569614 45.154924 
Q 54.581834 46.129655 55.144179 46.560786 
Q 55.706524 46.991917 56.73749 47.385559 
Q 57.768455 47.7792 58.780676 47.629241 
Q 59.45549 47.629241 59.92411 47.404303 
Q 60.392731 47.179366 60.617669 46.879448 
Q 60.842607 46.579531 60.973821 45.979697 
Q 61.105034 45.379862 61.123779 44.967476 
Q 61.142524 44.55509 61.142524 43.805297 
Q 61.142524 42.718097 60.242772 42.043283 
Q 59.343021 41.368469 58.049628 41.031062 
Q 56.756234 40.693655 55.462841 40.300014 
Q 54.169448 39.906372 53.269697 38.987876 
Q 52.369945 38.069379 52.369945 36.607283 
Q 52.369945 36.082428 52.538648 35.726276 
Q 52.707352 35.370124 53.100993 35.145186 
Q 53.494634 34.920248 53.775807 34.807779 
Q 54.056979 34.69531 54.713048 34.639076 
Q 55.369117 34.582841 55.556566 34.582841 
Q 55.744014 34.582841 56.418828 34.582841 
Q 57.618497 34.582841 58.199586 34.995228 
Q 58.780676 35.407614 59.099338 36.026193 
Q 59.418 36.644772 59.680428 36.832221 
" clip-path="url(#p7bb0351bb3)" style="fill: none; stroke: #000000; stroke-linejoin: miter"/>
   </g>
  </g>
  <g id="axes_5">
   <g id="patch_6">
    <path d="M 72.787531 45.979697 
Q 72.750041 46.017186 72.618828 46.054676 
Q 72.487614 46.092166 72.525103 46.167145 
Q 72.525103 46.579531 72.9 46.579531 
Q 73.237407 46.579531 73.237407 46.092166 
Q 73.312386 45.867228 73.031214 45.754759 
Q 72.750041 45.64229 72.562593 45.754759 
" clip-path="url(#p1a70811bf8)" style="fill: none; stroke: #000000; stroke-linejoin: miter"/>
   </g>
  </g>
 </g>
 <defs>
  <clipPath id="p2cf3e8c7ff">
   <rect x="1.764248" y="8.64" width="12.671503" height="54.36"/>
  </clipPath>
  <clipPath id="pad087c1897">
   <rect x="16.2" y="8.881927" width="16.2" height="53.876147"/>
  </clipPath>
  <clipPath id="pb4599630a4">
   <rect x="34.182993" y="8.64" width="12.634014" height="54.36"/>
  </clipPath>
  <clipPath id="p7bb0351bb3">
   <rect x="50.382993" y="8.64" width="12.634014" height="54.36"/>
  </clipPath>
  <clipPath id="p1a70811bf8">
   <rect x="70.613131" y="8.64" width="4.573738" height="54.36"/>
  </clipPath>
 </defs>
</svg>
