<?xml version="1.0" encoding="utf-8" standalone="no"?>
<!DOCTYPE svg PUBLIC "-//W3C//DTD SVG 1.1//EN"
  "http://www.w3.org/Graphics/SVG/1.1/DTD/svg11.dtd">
<svg xmlns:xlink="http://www.w3.org/1999/xlink" width="738pt" height="72pt" viewBox="0 0 738 72" xmlns="http://www.w3.org/2000/svg" version="1.1">
 <metadata>
  <rdf:RDF xmlns:dc="http://purl.org/dc/elements/1.1/" xmlns:cc="http://creativecommons.org/ns#" xmlns:rdf="http://www.w3.org/1999/02/22-rdf-syntax-ns#">
   <cc:Work>
    <dc:type rdf:resource="http://purl.org/dc/dcmitype/StillImage"/>
    <dc:date>2024-01-04T18:46:53.782093</dc:date>
    <dc:format>image/svg+xml</dc:format>
    <dc:creator>
     <cc:Agent>
      <dc:title>Matplotlib v3.7.1, https://matplotlib.org/</dc:title>
     </cc:Agent>
    </dc:creator>
   </cc:Work>
  </rdf:RDF>
 </metadata>
 <defs>
  <style type="text/css">*{stroke-linejoin: round; stroke-linecap: butt}</style>
 </defs>
 <g id="figure_1">
  <g id="patch_1">
   <path d="M 0 72 
L 738 72 
L 738 0 
L 0 0 
z
" style="fill: #8fff9f"/>
  </g>
  <g id="axes_1">
   <g id="patch_2">
    <path d="M 1.087248 30.470738 
L 2.261477 30.601208 
Q 4.088054 30.601208 5.925503 30.709933 
Q 7.762953 30.818658 10.002685 30.992617 
Q 12.242416 31.166577 13.677584 31.253557 
L 15.112752 31.123087 
M 7.871678 31.057852 
Q 7.936913 31.405772 7.675973 32.177718 
Q 7.415034 32.949664 7.610738 33.406309 
Q 7.610738 34.711007 7.752081 36.363624 
Q 7.893423 38.016242 8.110872 39.973289 
Q 8.328322 41.930336 8.393557 42.800134 
" clip-path="url(#p5e6dba95fb)" style="fill: none; stroke: #000000; stroke-linejoin: miter"/>
   </g>
  </g>
  <g id="axes_2">
   <g id="patch_3">
    <path d="M 20.813462 35.932469 
Q 21.413297 35.257655 22.406772 34.826524 
Q 23.400248 34.395393 24.3 34.470372 
Q 24.937324 34.470372 25.42469 34.639076 
Q 25.912055 34.807779 26.230717 34.995228 
Q 26.549379 35.182676 26.774317 35.670041 
Q 26.999255 36.157407 27.111724 36.419834 
Q 27.224193 36.682262 27.280428 37.375821 
Q 27.336662 38.069379 27.355407 38.331807 
Q 27.374152 38.594234 27.355407 39.419007 
Q 27.336662 40.243779 27.336662 40.431228 
Q 27.336662 41.368469 27.167959 43.242952 
Q 26.999255 45.117434 26.999255 46.054676 
Q 26.999255 46.467062 27.05549 46.823214 
Q 27.111724 47.179366 27.205448 47.610497 
Q 27.299172 48.041628 27.336662 48.304055 
L 27.786538 48.528993 
M 21.263338 23.111007 
Q 21.488276 24.798041 21.488276 29.971614 
L 21.488276 42.3432 
L 21.150869 46.841959 
L 20.925931 47.74171 
" clip-path="url(#p8bb04df98d)" style="fill: none; stroke: #000000; stroke-linejoin: miter"/>
   </g>
  </g>
  <g id="axes_3">
   <g id="patch_4">
    <path d="M 34.257798 38.160826 
Q 37.230275 39.535596 41.949083 39.721376 
Q 43.472477 39.721376 44.159862 38.550963 
Q 44.847248 37.38055 44.847248 35.82 
Q 44.847248 35.299817 44.754358 34.909679 
Q 44.661468 34.519541 44.419954 34.296606 
Q 44.17844 34.07367 44.011239 33.943624 
Q 43.844037 33.813578 43.398165 33.757844 
Q 42.952294 33.70211 42.747936 33.683532 
Q 42.543578 33.664954 41.967661 33.683532 
Q 41.391743 33.70211 41.168807 33.70211 
Q 39.125229 33.70211 37.638991 35.578486 
Q 36.152752 37.454862 36.152752 39.609908 
Q 36.152752 42.619541 38.084862 44.570229 
Q 40.016972 46.520917 43.063761 46.520917 
Q 45.218807 46.818165 46.742202 44.29156 
" clip-path="url(#pdfc41627df)" style="fill: none; stroke: #000000; stroke-linejoin: miter"/>
   </g>
  </g>
  <g id="axes_4"/>
  <g id="axes_5">
   <g id="patch_5">
    <path d="M 77.687191 39.096404 
Q 77.43236 39.023596 76.46764 38.623146 
Q 75.502921 38.222697 74.84764 38.077079 
Q 74.19236 37.931461 73.537079 38.00427 
Q 70.915955 38.00427 69.277753 40.388764 
Q 67.639551 42.773258 67.639551 45.430787 
Q 67.639551 47.068989 72.881798 47.068989 
Q 74.447191 47.068989 75.775955 45.558202 
Q 77.104719 44.047416 77.778202 42.172584 
Q 78.451685 40.297753 78.451685 38.768764 
Q 78.451685 37.27618 78.415281 36.984944 
L 78.342472 38.077079 
Q 78.342472 38.550337 78.342472 38.987191 
Q 78.378876 40.188539 78.579101 42.281798 
Q 78.779326 44.375056 78.943146 46.049663 
Q 79.106966 47.72427 79.143371 49.872135 
Q 79.179775 52.02 79.015955 53.658202 
Q 78.852135 55.296404 78.287865 56.971011 
Q 77.723596 58.645618 76.795281 59.737753 
Q 75.866966 60.829888 74.265169 61.521573 
Q 72.663371 62.213258 70.515506 62.213258 
Q 68.877303 62.213258 67.785169 61.466966 
Q 66.693034 60.720674 66.693034 59.155281 
Q 66.620225 58.936854 66.656629 58.936854 
Q 66.693034 58.936854 66.802247 58.936854 
Q 66.911461 58.936854 66.911461 58.82764 
" clip-path="url(#p6cc37eec48)" style="fill: none; stroke: #000000; stroke-linejoin: miter"/>
   </g>
  </g>
  <g id="axes_6">
   <g id="patch_6">
    <path d="M 85.613462 35.932469 
Q 86.213297 35.257655 87.206772 34.826524 
Q 88.200248 34.395393 89.1 34.470372 
Q 89.737324 34.470372 90.22469 34.639076 
Q 90.712055 34.807779 91.030717 34.995228 
Q 91.349379 35.182676 91.574317 35.670041 
Q 91.799255 36.157407 91.911724 36.419834 
Q 92.024193 36.682262 92.080428 37.375821 
Q 92.136662 38.069379 92.155407 38.331807 
Q 92.174152 38.594234 92.155407 39.419007 
Q 92.136662 40.243779 92.136662 40.431228 
Q 92.136662 41.368469 91.967959 43.242952 
Q 91.799255 45.117434 91.799255 46.054676 
Q 91.799255 46.467062 91.85549 46.823214 
Q 91.911724 47.179366 92.005448 47.610497 
Q 92.099172 48.041628 92.136662 48.304055 
L 92.586538 48.528993 
M 86.063338 23.111007 
Q 86.288276 24.798041 86.288276 29.971614 
L 86.288276 42.3432 
L 85.950869 46.841959 
L 85.725931 47.74171 
" clip-path="url(#p408257d9a4)" style="fill: none; stroke: #000000; stroke-linejoin: miter"/>
   </g>
  </g>
  <g id="axes_7">
   <g id="patch_7">
    <path d="M 108.5616 35.032717 
Q 107.51189 34.582841 106.537159 34.69531 
Q 103.500497 35.032717 101.588524 36.701007 
Q 99.676552 38.369297 99.676552 41.330979 
Q 99.676552 43.917766 101.682248 45.6048 
Q 103.687945 47.291834 106.312221 47.291834 
Q 108.674069 47.291834 109.798759 45.361117 
Q 110.923448 43.4304 110.923448 40.881103 
Q 110.923448 39.643945 110.511062 38.706703 
Q 110.098676 37.769462 109.573821 37.300841 
Q 109.048966 36.832221 108.299172 36.119917 
Q 107.549379 35.407614 107.099503 34.69531 
L 105.862345 34.245434 
" clip-path="url(#p80a26d3fc3)" style="fill: none; stroke: #000000; stroke-linejoin: miter"/>
   </g>
  </g>
  <g id="axes_8">
   <g id="patch_8">
    <path d="M 117.057476 43.917766 
Q 117.357393 44.180193 118.369614 45.154924 
Q 119.381834 46.129655 119.944179 46.560786 
Q 120.506524 46.991917 121.53749 47.385559 
Q 122.568455 47.7792 123.580676 47.629241 
Q 124.25549 47.629241 124.72411 47.404303 
Q 125.192731 47.179366 125.417669 46.879448 
Q 125.642607 46.579531 125.773821 45.979697 
Q 125.905034 45.379862 125.923779 44.967476 
Q 125.942524 44.55509 125.942524 43.805297 
Q 125.942524 42.718097 125.042772 42.043283 
Q 124.143021 41.368469 122.849628 41.031062 
Q 121.556234 40.693655 120.262841 40.300014 
Q 118.969448 39.906372 118.069697 38.987876 
Q 117.169945 38.069379 117.169945 36.607283 
Q 117.169945 36.082428 117.338648 35.726276 
Q 117.507352 35.370124 117.900993 35.145186 
Q 118.294634 34.920248 118.575807 34.807779 
Q 118.856979 34.69531 119.513048 34.639076 
Q 120.169117 34.582841 120.356566 34.582841 
Q 120.544014 34.582841 121.218828 34.582841 
Q 122.418497 34.582841 122.999586 34.995228 
Q 123.580676 35.407614 123.899338 36.026193 
Q 124.218 36.644772 124.480428 36.832221 
" clip-path="url(#p9a1f6d64e3)" style="fill: none; stroke: #000000; stroke-linejoin: miter"/>
   </g>
  </g>
  <g id="axes_9">
   <g id="patch_9">
    <path d="M 132.863834 37.95691 
L 133.538648 37.95691 
Q 134.250952 37.95691 135.038234 37.881931 
Q 135.825517 37.806952 136.781503 37.675738 
Q 137.73749 37.544524 138.262345 37.507034 
L 142.536166 35.82 
M 138.487283 30.42149 
L 138.487283 31.43371 
Q 138.487283 33.383172 137.812469 37.207117 
Q 137.137655 41.031062 137.137655 43.018014 
Q 137.137655 43.805297 137.137655 44.105214 
Q 137.137655 44.405131 137.231379 45.042455 
Q 137.325103 45.679779 137.512552 45.960952 
Q 137.7 46.242124 138.093641 46.485807 
Q 138.487283 46.72949 139.049628 46.72949 
Q 139.162097 46.692 139.480759 46.72949 
Q 139.799421 46.766979 139.986869 46.710745 
Q 140.174317 46.65451 140.174317 46.392083 
" clip-path="url(#pcf93fc3afa)" style="fill: none; stroke: #000000; stroke-linejoin: miter"/>
   </g>
  </g>
  <g id="axes_10"/>
  <g id="axes_11">
   <g id="patch_10">
    <path d="M 165.657476 43.917766 
Q 165.957393 44.180193 166.969614 45.154924 
Q 167.981834 46.129655 168.544179 46.560786 
Q 169.106524 46.991917 170.13749 47.385559 
Q 171.168455 47.7792 172.180676 47.629241 
Q 172.85549 47.629241 173.32411 47.404303 
Q 173.792731 47.179366 174.017669 46.879448 
Q 174.242607 46.579531 174.373821 45.979697 
Q 174.505034 45.379862 174.523779 44.967476 
Q 174.542524 44.55509 174.542524 43.805297 
Q 174.542524 42.718097 173.642772 42.043283 
Q 172.743021 41.368469 171.449628 41.031062 
Q 170.156234 40.693655 168.862841 40.300014 
Q 167.569448 39.906372 166.669697 38.987876 
Q 165.769945 38.069379 165.769945 36.607283 
Q 165.769945 36.082428 165.938648 35.726276 
Q 166.107352 35.370124 166.500993 35.145186 
Q 166.894634 34.920248 167.175807 34.807779 
Q 167.456979 34.69531 168.113048 34.639076 
Q 168.769117 34.582841 168.956566 34.582841 
Q 169.144014 34.582841 169.818828 34.582841 
Q 171.018497 34.582841 171.599586 34.995228 
Q 172.180676 35.407614 172.499338 36.026193 
Q 172.818 36.644772 173.080428 36.832221 
" clip-path="url(#p7963c077b9)" style="fill: none; stroke: #000000; stroke-linejoin: miter"/>
   </g>
  </g>
  <g id="axes_12">
   <g id="patch_11">
    <path d="M 191.843923 36.441748 
Q 190.634968 35.094627 186.662687 35.094627 
Q 185.142857 35.094627 184.365672 35.146439 
Q 183.588486 35.198252 182.58678 35.440043 
Q 181.585075 35.681834 181.101493 36.182687 
Q 180.61791 36.683539 180.272495 37.616162 
Q 179.927079 38.548785 179.927079 39.964989 
Q 179.927079 42.037484 181.343284 43.280981 
Q 182.759488 44.524478 184.693817 44.524478 
Q 187.353518 44.524478 190.116844 38.721493 
Q 191.463966 35.854542 191.463966 35.82 
Q 191.809382 35.578209 191.843923 36.441748 
Q 191.843923 37.512537 192.258422 40.362217 
Q 192.672921 43.211898 192.672921 44.524478 
" clip-path="url(#p61c393fe00)" style="fill: none; stroke: #000000; stroke-linejoin: miter"/>
   </g>
  </g>
  <g id="axes_13">
   <g id="patch_12">
    <path d="M 203.118579 29.071862 
Q 202.743683 29.146841 202.612469 29.577972 
Q 202.481255 30.009103 202.556234 30.42149 
Q 202.556234 30.571448 202.593724 30.702662 
Q 202.631214 30.833876 202.687448 30.89011 
Q 202.743683 30.946345 202.799917 31.040069 
Q 202.856152 31.133793 202.893641 31.208772 
L 203.00611 29.859145 
M 203.00611 34.020497 
Q 202.106359 39.006621 201.881421 42.793076 
L 202.331297 45.379862 
L 202.668703 46.054676 
" clip-path="url(#p87f609f465)" style="fill: none; stroke: #000000; stroke-linejoin: miter"/>
   </g>
  </g>
  <g id="axes_14">
   <g id="patch_13">
    <path d="M 222.299007 39.568966 
Q 220.949379 38.181848 218.7 38.444276 
Q 215.850786 38.444276 214.688607 39.793903 
Q 213.526428 41.143531 213.526428 44.067724 
Q 213.526428 45.56731 214.819821 46.279614 
Q 216.113214 46.991917 217.687779 46.991917 
Q 218.999917 46.991917 220.012138 45.736014 
Q 221.024359 44.48011 221.605448 42.30571 
Q 222.186538 40.13131 222.561434 37.938166 
Q 222.936331 35.745021 223.08629 33.045766 
Q 223.236248 30.34651 223.273738 28.978138 
Q 223.311228 27.609766 223.311228 26.185159 
Q 223.08629 26.260138 223.08629 29.896634 
L 223.08629 44.292662 
L 223.873572 48.229076 
" clip-path="url(#pe8baa643aa)" style="fill: none; stroke: #000000; stroke-linejoin: miter"/>
   </g>
  </g>
  <g id="axes_15">
   <g id="patch_14">
    <path d="M 234.187697 39.981352 
Q 235.199917 40.956083 235.537324 42.905545 
Q 235.724772 43.955255 235.312386 46.167145 
L 234.075228 47.629241 
" clip-path="url(#p6a038fc690)" style="fill: none; stroke: #000000; stroke-linejoin: miter"/>
   </g>
  </g>
  <g id="axes_16"/>
  <g id="axes_17">
   <g id="patch_15">
    <path d="M 260.984141 38.85304 
L 261.412335 38.85304 
Q 262.23304 38.85304 263.196476 38.745991 
Q 264.159912 38.638943 265.319604 38.460529 
Q 266.479295 38.282115 267.085903 38.210749 
L 273.615859 35.427489 
M 273.294714 25.793128 
Q 273.009251 25.721762 271.974449 25.275727 
Q 270.939648 24.829692 270.297357 24.93674 
Q 269.655066 24.93674 269.137665 25.150837 
Q 268.620264 25.364934 268.281278 25.793128 
Q 267.942291 26.221322 267.67467 26.685198 
Q 267.407048 27.149075 267.264317 27.862731 
Q 267.121586 28.576388 267.014537 29.129471 
Q 266.907489 29.682555 266.889648 30.50326 
Q 266.871806 31.323965 266.853965 31.77 
Q 266.836123 32.216035 266.853965 32.965374 
Q 266.871806 33.714714 266.871806 33.928811 
Q 266.871806 36.605022 267.567621 41.850396 
Q 268.263436 47.095771 268.263436 49.771982 
Q 268.19207 50.057445 268.156388 50.681894 
Q 268.120705 51.306344 268.013656 51.805903 
Q 267.906608 52.305463 267.621145 52.555242 
" clip-path="url(#p10bec4cabb)" style="fill: none; stroke: #000000; stroke-linejoin: miter"/>
   </g>
  </g>
  <g id="axes_18">
   <g id="patch_16">
    <path d="M 289.043923 36.441748 
Q 287.834968 35.094627 283.862687 35.094627 
Q 282.342857 35.094627 281.565672 35.146439 
Q 280.788486 35.198252 279.78678 35.440043 
Q 278.785075 35.681834 278.301493 36.182687 
Q 277.81791 36.683539 277.472495 37.616162 
Q 277.127079 38.548785 277.127079 39.964989 
Q 277.127079 42.037484 278.543284 43.280981 
Q 279.959488 44.524478 281.893817 44.524478 
Q 284.553518 44.524478 287.316844 38.721493 
Q 288.663966 35.854542 288.663966 35.82 
Q 289.009382 35.578209 289.043923 36.441748 
Q 289.043923 37.512537 289.458422 40.362217 
Q 289.872921 43.211898 289.872921 44.524478 
" clip-path="url(#p5c86c6bfab)" style="fill: none; stroke: #000000; stroke-linejoin: miter"/>
   </g>
  </g>
  <g id="axes_19">
   <g id="patch_17">
    <path d="M 303.299007 39.568966 
Q 301.949379 38.181848 299.7 38.444276 
Q 296.850786 38.444276 295.688607 39.793903 
Q 294.526428 41.143531 294.526428 44.067724 
Q 294.526428 45.56731 295.819821 46.279614 
Q 297.113214 46.991917 298.687779 46.991917 
Q 299.999917 46.991917 301.012138 45.736014 
Q 302.024359 44.48011 302.605448 42.30571 
Q 303.186538 40.13131 303.561434 37.938166 
Q 303.936331 35.745021 304.08629 33.045766 
Q 304.236248 30.34651 304.273738 28.978138 
Q 304.311228 27.609766 304.311228 26.185159 
Q 304.08629 26.260138 304.08629 29.896634 
L 304.08629 44.292662 
L 304.873572 48.229076 
" clip-path="url(#p7e66224aca)" style="fill: none; stroke: #000000; stroke-linejoin: miter"/>
   </g>
  </g>
  <g id="axes_20">
   <g id="patch_18">
    <path d="M 316.518579 29.071862 
Q 316.143683 29.146841 316.012469 29.577972 
Q 315.881255 30.009103 315.956234 30.42149 
Q 315.956234 30.571448 315.993724 30.702662 
Q 316.031214 30.833876 316.087448 30.89011 
Q 316.143683 30.946345 316.199917 31.040069 
Q 316.256152 31.133793 316.293641 31.208772 
L 316.40611 29.859145 
M 316.40611 34.020497 
Q 315.506359 39.006621 315.281421 42.793076 
L 315.731297 45.379862 
L 316.068703 46.054676 
" clip-path="url(#pddf01e79cf)" style="fill: none; stroke: #000000; stroke-linejoin: miter"/>
   </g>
  </g>
  <g id="axes_21">
   <g id="patch_19">
    <path d="M 327.638731 37.282097 
L 327.638731 37.844441 
Q 327.901159 39.868883 327.938648 41.312234 
Q 327.976138 42.755586 327.882414 44.667559 
Q 327.78869 46.579531 327.78869 48.191586 
L 327.863669 39.643945 
Q 327.863669 38.144359 329.456979 37.507034 
Q 331.05029 36.86971 332.474897 37.282097 
Q 334.386869 37.844441 335.305366 39.04411 
Q 336.223862 40.243779 336.280097 41.668386 
Q 336.336331 43.092993 336.373821 44.817517 
Q 336.41131 46.542041 336.561269 48.191586 
" clip-path="url(#paa6e846b47)" style="fill: none; stroke: #000000; stroke-linejoin: miter"/>
   </g>
  </g>
  <g id="axes_22">
   <g id="patch_20">
    <path d="M 353.087191 39.096404 
Q 352.83236 39.023596 351.86764 38.623146 
Q 350.902921 38.222697 350.24764 38.077079 
Q 349.59236 37.931461 348.937079 38.00427 
Q 346.315955 38.00427 344.677753 40.388764 
Q 343.039551 42.773258 343.039551 45.430787 
Q 343.039551 47.068989 348.281798 47.068989 
Q 349.847191 47.068989 351.175955 45.558202 
Q 352.504719 44.047416 353.178202 42.172584 
Q 353.851685 40.297753 353.851685 38.768764 
Q 353.851685 37.27618 353.815281 36.984944 
L 353.742472 38.077079 
Q 353.742472 38.550337 353.742472 38.987191 
Q 353.778876 40.188539 353.979101 42.281798 
Q 354.179326 44.375056 354.343146 46.049663 
Q 354.506966 47.72427 354.543371 49.872135 
Q 354.579775 52.02 354.415955 53.658202 
Q 354.252135 55.296404 353.687865 56.971011 
Q 353.123596 58.645618 352.195281 59.737753 
Q 351.266966 60.829888 349.665169 61.521573 
Q 348.063371 62.213258 345.915506 62.213258 
Q 344.277303 62.213258 343.185169 61.466966 
Q 342.093034 60.720674 342.093034 59.155281 
Q 342.020225 58.936854 342.056629 58.936854 
Q 342.093034 58.936854 342.202247 58.936854 
Q 342.311461 58.936854 342.311461 58.82764 
" clip-path="url(#p1d881eedd3)" style="fill: none; stroke: #000000; stroke-linejoin: miter"/>
   </g>
  </g>
  <g id="axes_23"/>
  <g id="axes_24">
   <g id="patch_21">
    <path d="M 386.243923 36.441748 
Q 385.034968 35.094627 381.062687 35.094627 
Q 379.542857 35.094627 378.765672 35.146439 
Q 377.988486 35.198252 376.98678 35.440043 
Q 375.985075 35.681834 375.501493 36.182687 
Q 375.01791 36.683539 374.672495 37.616162 
Q 374.327079 38.548785 374.327079 39.964989 
Q 374.327079 42.037484 375.743284 43.280981 
Q 377.159488 44.524478 379.093817 44.524478 
Q 381.753518 44.524478 384.516844 38.721493 
Q 385.863966 35.854542 385.863966 35.82 
Q 386.209382 35.578209 386.243923 36.441748 
Q 386.243923 37.512537 386.658422 40.362217 
Q 387.072921 43.211898 387.072921 44.524478 
" clip-path="url(#pcdd71a5a57)" style="fill: none; stroke: #000000; stroke-linejoin: miter"/>
   </g>
  </g>
  <g id="axes_25">
   <g id="patch_22">
    <path d="M 390.516102 36.437797 
L 391.751695 44.778051 
Q 391.854661 45.567458 391.854661 45.60178 
Q 391.854661 45.704746 392.163559 45.704746 
Q 393.02161 45.704746 393.742373 44.778051 
Q 394.463136 43.851356 394.875 42.718729 
Q 395.286864 41.586102 395.801695 40.659407 
Q 396.316525 39.732712 396.797034 39.732712 
Q 397.414831 39.732712 398.049788 40.607924 
Q 398.684746 41.483136 399.148093 42.512797 
Q 399.611441 43.542458 400.28072 44.417669 
Q 400.95 45.292881 401.636441 45.292881 
Q 401.911017 43.782712 402.340042 39.69839 
Q 402.769068 35.614068 403.283898 33.554746 
" clip-path="url(#p2f9f9227cb)" style="fill: none; stroke: #000000; stroke-linejoin: miter"/>
   </g>
  </g>
  <g id="axes_26">
   <g id="patch_23">
    <path d="M 418.643923 36.441748 
Q 417.434968 35.094627 413.462687 35.094627 
Q 411.942857 35.094627 411.165672 35.146439 
Q 410.388486 35.198252 409.38678 35.440043 
Q 408.385075 35.681834 407.901493 36.182687 
Q 407.41791 36.683539 407.072495 37.616162 
Q 406.727079 38.548785 406.727079 39.964989 
Q 406.727079 42.037484 408.143284 43.280981 
Q 409.559488 44.524478 411.493817 44.524478 
Q 414.153518 44.524478 416.916844 38.721493 
Q 418.263966 35.854542 418.263966 35.82 
Q 418.609382 35.578209 418.643923 36.441748 
Q 418.643923 37.512537 419.058422 40.362217 
Q 419.472921 43.211898 419.472921 44.524478 
" clip-path="url(#peffe27749d)" style="fill: none; stroke: #000000; stroke-linejoin: miter"/>
   </g>
  </g>
  <g id="axes_27">
   <g id="patch_24">
    <path d="M 424.163917 36.382345 
Q 424.126428 36.494814 424.257641 36.701007 
Q 424.388855 36.9072 424.276386 37.057159 
L 424.276386 39.306538 
Q 424.276386 40.506207 424.613793 41.724621 
Q 424.9512 42.943034 425.813462 43.93651 
Q 426.675724 44.929986 427.875393 44.929986 
Q 429.112552 44.929986 429.787366 43.861531 
Q 430.462179 42.793076 430.912055 41.143531 
Q 431.361931 39.493986 431.699338 38.969131 
L 432.486621 36.382345 
L 432.261683 42.680607 
L 432.261683 45.154924 
Q 432.261683 47.066897 432.992731 51.00331 
Q 433.723779 54.939724 433.723779 56.964166 
Q 434.473572 59.213545 433.386372 60.188276 
Q 432.299172 61.163007 430.237241 60.78811 
Q 428.437738 60.488193 427.519241 60.169531 
Q 426.600745 59.850869 424.613793 58.988607 
L 424.501324 58.426262 
" clip-path="url(#pf3aea077d8)" style="fill: none; stroke: #000000; stroke-linejoin: miter"/>
   </g>
  </g>
  <g id="axes_28"/>
  <g id="axes_29">
   <g id="patch_25">
    <path d="M 462.318579 29.071862 
Q 461.943683 29.146841 461.812469 29.577972 
Q 461.681255 30.009103 461.756234 30.42149 
Q 461.756234 30.571448 461.793724 30.702662 
Q 461.831214 30.833876 461.887448 30.89011 
Q 461.943683 30.946345 461.999917 31.040069 
Q 462.056152 31.133793 462.093641 31.208772 
L 462.20611 29.859145 
M 462.20611 34.020497 
Q 461.306359 39.006621 461.081421 42.793076 
L 461.531297 45.379862 
L 461.868703 46.054676 
" clip-path="url(#p9863566635)" style="fill: none; stroke: #000000; stroke-linejoin: miter"/>
   </g>
  </g>
  <g id="axes_30">
   <g id="patch_26">
    <path d="M 473.438731 37.282097 
L 473.438731 37.844441 
Q 473.701159 39.868883 473.738648 41.312234 
Q 473.776138 42.755586 473.682414 44.667559 
Q 473.58869 46.579531 473.58869 48.191586 
L 473.663669 39.643945 
Q 473.663669 38.144359 475.256979 37.507034 
Q 476.85029 36.86971 478.274897 37.282097 
Q 480.186869 37.844441 481.105366 39.04411 
Q 482.023862 40.243779 482.080097 41.668386 
Q 482.136331 43.092993 482.173821 44.817517 
Q 482.21131 46.542041 482.361269 48.191586 
" clip-path="url(#pc8fbe9d834)" style="fill: none; stroke: #000000; stroke-linejoin: miter"/>
   </g>
  </g>
  <g id="axes_31">
   <g id="patch_27">
    <path d="M 489.263834 37.95691 
L 489.938648 37.95691 
Q 490.650952 37.95691 491.438234 37.881931 
Q 492.225517 37.806952 493.181503 37.675738 
Q 494.13749 37.544524 494.662345 37.507034 
L 498.936166 35.82 
M 494.887283 30.42149 
L 494.887283 31.43371 
Q 494.887283 33.383172 494.212469 37.207117 
Q 493.537655 41.031062 493.537655 43.018014 
Q 493.537655 43.805297 493.537655 44.105214 
Q 493.537655 44.405131 493.631379 45.042455 
Q 493.725103 45.679779 493.912552 45.960952 
Q 494.1 46.242124 494.493641 46.485807 
Q 494.887283 46.72949 495.449628 46.72949 
Q 495.562097 46.692 495.880759 46.72949 
Q 496.199421 46.766979 496.386869 46.710745 
Q 496.574317 46.65451 496.574317 46.392083 
" clip-path="url(#pf5e60096f3)" style="fill: none; stroke: #000000; stroke-linejoin: miter"/>
   </g>
  </g>
  <g id="axes_32">
   <g id="patch_28">
    <path d="M 513.5616 35.032717 
Q 512.51189 34.582841 511.537159 34.69531 
Q 508.500497 35.032717 506.588524 36.701007 
Q 504.676552 38.369297 504.676552 41.330979 
Q 504.676552 43.917766 506.682248 45.6048 
Q 508.687945 47.291834 511.312221 47.291834 
Q 513.674069 47.291834 514.798759 45.361117 
Q 515.923448 43.4304 515.923448 40.881103 
Q 515.923448 39.643945 515.511062 38.706703 
Q 515.098676 37.769462 514.573821 37.300841 
Q 514.048966 36.832221 513.299172 36.119917 
Q 512.549379 35.407614 512.099503 34.69531 
L 510.862345 34.245434 
" clip-path="url(#p2d9bda422a)" style="fill: none; stroke: #000000; stroke-linejoin: miter"/>
   </g>
  </g>
  <g id="axes_33"/>
  <g id="axes_34">
   <g id="patch_29">
    <path d="M 538.238731 37.282097 
L 538.238731 37.844441 
Q 538.501159 39.868883 538.538648 41.312234 
Q 538.576138 42.755586 538.482414 44.667559 
Q 538.38869 46.579531 538.38869 48.191586 
L 538.463669 39.643945 
Q 538.463669 38.144359 540.056979 37.507034 
Q 541.65029 36.86971 543.074897 37.282097 
Q 544.986869 37.844441 545.905366 39.04411 
Q 546.823862 40.243779 546.880097 41.668386 
Q 546.936331 43.092993 546.973821 44.817517 
Q 547.01131 46.542041 547.161269 48.191586 
" clip-path="url(#p67257a028f)" style="fill: none; stroke: #000000; stroke-linejoin: miter"/>
   </g>
  </g>
  <g id="axes_35">
   <g id="patch_30">
    <path d="M 562.1616 35.032717 
Q 561.11189 34.582841 560.137159 34.69531 
Q 557.100497 35.032717 555.188524 36.701007 
Q 553.276552 38.369297 553.276552 41.330979 
Q 553.276552 43.917766 555.282248 45.6048 
Q 557.287945 47.291834 559.912221 47.291834 
Q 562.274069 47.291834 563.398759 45.361117 
Q 564.523448 43.4304 564.523448 40.881103 
Q 564.523448 39.643945 564.111062 38.706703 
Q 563.698676 37.769462 563.173821 37.300841 
Q 562.648966 36.832221 561.899172 36.119917 
Q 561.149379 35.407614 560.699503 34.69531 
L 559.462345 34.245434 
" clip-path="url(#p16a6d0fe18)" style="fill: none; stroke: #000000; stroke-linejoin: miter"/>
   </g>
  </g>
  <g id="axes_36">
   <g id="patch_31">
    <path d="M 570.263834 37.95691 
L 570.938648 37.95691 
Q 571.650952 37.95691 572.438234 37.881931 
Q 573.225517 37.806952 574.181503 37.675738 
Q 575.13749 37.544524 575.662345 37.507034 
L 579.936166 35.82 
M 575.887283 30.42149 
L 575.887283 31.43371 
Q 575.887283 33.383172 575.212469 37.207117 
Q 574.537655 41.031062 574.537655 43.018014 
Q 574.537655 43.805297 574.537655 44.105214 
Q 574.537655 44.405131 574.631379 45.042455 
Q 574.725103 45.679779 574.912552 45.960952 
Q 575.1 46.242124 575.493641 46.485807 
Q 575.887283 46.72949 576.449628 46.72949 
Q 576.562097 46.692 576.880759 46.72949 
Q 577.199421 46.766979 577.386869 46.710745 
Q 577.574317 46.65451 577.574317 46.392083 
" clip-path="url(#p10eab3095b)" style="fill: none; stroke: #000000; stroke-linejoin: miter"/>
   </g>
  </g>
  <g id="axes_37">
   <g id="patch_32">
    <path d="M 587.813462 35.932469 
Q 588.413297 35.257655 589.406772 34.826524 
Q 590.400248 34.395393 591.3 34.470372 
Q 591.937324 34.470372 592.42469 34.639076 
Q 592.912055 34.807779 593.230717 34.995228 
Q 593.549379 35.182676 593.774317 35.670041 
Q 593.999255 36.157407 594.111724 36.419834 
Q 594.224193 36.682262 594.280428 37.375821 
Q 594.336662 38.069379 594.355407 38.331807 
Q 594.374152 38.594234 594.355407 39.419007 
Q 594.336662 40.243779 594.336662 40.431228 
Q 594.336662 41.368469 594.167959 43.242952 
Q 593.999255 45.117434 593.999255 46.054676 
Q 593.999255 46.467062 594.05549 46.823214 
Q 594.111724 47.179366 594.205448 47.610497 
Q 594.299172 48.041628 594.336662 48.304055 
L 594.786538 48.528993 
M 588.263338 23.111007 
Q 588.488276 24.798041 588.488276 29.971614 
L 588.488276 42.3432 
L 588.150869 46.841959 
L 587.925931 47.74171 
" clip-path="url(#p425d029c45)" style="fill: none; stroke: #000000; stroke-linejoin: miter"/>
   </g>
  </g>
  <g id="axes_38">
   <g id="patch_33">
    <path d="M 608.118579 29.071862 
Q 607.743683 29.146841 607.612469 29.577972 
Q 607.481255 30.009103 607.556234 30.42149 
Q 607.556234 30.571448 607.593724 30.702662 
Q 607.631214 30.833876 607.687448 30.89011 
Q 607.743683 30.946345 607.799917 31.040069 
Q 607.856152 31.133793 607.893641 31.208772 
L 608.00611 29.859145 
M 608.00611 34.020497 
Q 607.106359 39.006621 606.881421 42.793076 
L 607.331297 45.379862 
L 607.668703 46.054676 
" clip-path="url(#pd7fd3fad5d)" style="fill: none; stroke: #000000; stroke-linejoin: miter"/>
   </g>
  </g>
  <g id="axes_39">
   <g id="patch_34">
    <path d="M 619.238731 37.282097 
L 619.238731 37.844441 
Q 619.501159 39.868883 619.538648 41.312234 
Q 619.576138 42.755586 619.482414 44.667559 
Q 619.38869 46.579531 619.38869 48.191586 
L 619.463669 39.643945 
Q 619.463669 38.144359 621.056979 37.507034 
Q 622.65029 36.86971 624.074897 37.282097 
Q 625.986869 37.844441 626.905366 39.04411 
Q 627.823862 40.243779 627.880097 41.668386 
Q 627.936331 43.092993 627.973821 44.817517 
Q 628.01131 46.542041 628.161269 48.191586 
" clip-path="url(#p1d0af05873)" style="fill: none; stroke: #000000; stroke-linejoin: miter"/>
   </g>
  </g>
  <g id="axes_40">
   <g id="patch_35">
    <path d="M 644.687191 39.096404 
Q 644.43236 39.023596 643.46764 38.623146 
Q 642.502921 38.222697 641.84764 38.077079 
Q 641.19236 37.931461 640.537079 38.00427 
Q 637.915955 38.00427 636.277753 40.388764 
Q 634.639551 42.773258 634.639551 45.430787 
Q 634.639551 47.068989 639.881798 47.068989 
Q 641.447191 47.068989 642.775955 45.558202 
Q 644.104719 44.047416 644.778202 42.172584 
Q 645.451685 40.297753 645.451685 38.768764 
Q 645.451685 37.27618 645.415281 36.984944 
L 645.342472 38.077079 
Q 645.342472 38.550337 645.342472 38.987191 
Q 645.378876 40.188539 645.579101 42.281798 
Q 645.779326 44.375056 645.943146 46.049663 
Q 646.106966 47.72427 646.143371 49.872135 
Q 646.179775 52.02 646.015955 53.658202 
Q 645.852135 55.296404 645.287865 56.971011 
Q 644.723596 58.645618 643.795281 59.737753 
Q 642.866966 60.829888 641.265169 61.521573 
Q 639.663371 62.213258 637.515506 62.213258 
Q 635.877303 62.213258 634.785169 61.466966 
Q 633.693034 60.720674 633.693034 59.155281 
Q 633.620225 58.936854 633.656629 58.936854 
Q 633.693034 58.936854 633.802247 58.936854 
Q 633.911461 58.936854 633.911461 58.82764 
" clip-path="url(#p532aba4572)" style="fill: none; stroke: #000000; stroke-linejoin: miter"/>
   </g>
  </g>
  <g id="axes_41">
   <g id="patch_36">
    <path d="M 653.794386 35.595062 
L 658.405614 35.707531 
" clip-path="url(#p2745350fc2)" style="fill: none; stroke: #000000; stroke-linejoin: miter"/>
   </g>
  </g>
 </g>
 <defs>
  <clipPath id="p5e6dba95fb">
   <rect x="0" y="20.054899" width="16.2" height="31.530201"/>
  </clipPath>
  <clipPath id="p8bb04df98d">
   <rect x="18.938979" y="8.64" width="10.722041" height="54.36"/>
  </clipPath>
  <clipPath id="pdfc41627df">
   <rect x="32.4" y="8.881927" width="16.2" height="53.876147"/>
  </clipPath>
  <clipPath id="p6cc37eec48">
   <rect x="64.8" y="9.426742" width="16.2" height="52.786517"/>
  </clipPath>
  <clipPath id="p408257d9a4">
   <rect x="83.738979" y="8.64" width="10.722041" height="54.36"/>
  </clipPath>
  <clipPath id="p80a26d3fc3">
   <rect x="97.802069" y="8.64" width="14.995862" height="54.36"/>
  </clipPath>
  <clipPath id="p9a1f6d64e3">
   <rect x="115.182993" y="8.64" width="12.634014" height="54.36"/>
  </clipPath>
  <clipPath id="pcf93fc3afa">
   <rect x="130.989352" y="8.64" width="13.421297" height="54.36"/>
  </clipPath>
  <clipPath id="p7963c077b9">
   <rect x="163.782993" y="8.64" width="12.634014" height="54.36"/>
  </clipPath>
  <clipPath id="p61c393fe00">
   <rect x="178.2" y="10.777356" width="16.2" height="50.085288"/>
  </clipPath>
  <clipPath id="p87f609f465">
   <rect x="200.006938" y="8.64" width="4.986124" height="54.36"/>
  </clipPath>
  <clipPath id="pe8baa643aa">
   <rect x="211.651945" y="8.64" width="14.09611" height="54.36"/>
  </clipPath>
  <clipPath id="p6a038fc690">
   <rect x="232.200745" y="8.64" width="5.39851" height="54.36"/>
  </clipPath>
  <clipPath id="p10bec4cabb">
   <rect x="259.2" y="9.949956" width="16.2" height="51.740088"/>
  </clipPath>
  <clipPath id="p5c86c6bfab">
   <rect x="275.4" y="10.777356" width="16.2" height="50.085288"/>
  </clipPath>
  <clipPath id="p7e66224aca">
   <rect x="292.651945" y="8.64" width="14.09611" height="54.36"/>
  </clipPath>
  <clipPath id="pddf01e79cf">
   <rect x="313.406938" y="8.64" width="4.986124" height="54.36"/>
  </clipPath>
  <clipPath id="paa6e846b47">
   <rect x="325.764248" y="8.64" width="12.671503" height="54.36"/>
  </clipPath>
  <clipPath id="p1d881eedd3">
   <rect x="340.2" y="9.426742" width="16.2" height="52.786517"/>
  </clipPath>
  <clipPath id="pcdd71a5a57">
   <rect x="372.6" y="10.777356" width="16.2" height="50.085288"/>
  </clipPath>
  <clipPath id="p2f9f9227cb">
   <rect x="388.8" y="10.936525" width="16.2" height="49.766949"/>
  </clipPath>
  <clipPath id="peffe27749d">
   <rect x="405" y="10.777356" width="16.2" height="50.085288"/>
  </clipPath>
  <clipPath id="pf3aea077d8">
   <rect x="422.251945" y="8.64" width="14.09611" height="54.36"/>
  </clipPath>
  <clipPath id="p9863566635">
   <rect x="459.206938" y="8.64" width="4.986124" height="54.36"/>
  </clipPath>
  <clipPath id="pc8fbe9d834">
   <rect x="471.564248" y="8.64" width="12.671503" height="54.36"/>
  </clipPath>
  <clipPath id="pf5e60096f3">
   <rect x="487.389352" y="8.64" width="13.421297" height="54.36"/>
  </clipPath>
  <clipPath id="p2d9bda422a">
   <rect x="502.802069" y="8.64" width="14.995862" height="54.36"/>
  </clipPath>
  <clipPath id="p67257a028f">
   <rect x="536.364248" y="8.64" width="12.671503" height="54.36"/>
  </clipPath>
  <clipPath id="p16a6d0fe18">
   <rect x="551.402069" y="8.64" width="14.995862" height="54.36"/>
  </clipPath>
  <clipPath id="p10eab3095b">
   <rect x="568.389352" y="8.64" width="13.421297" height="54.36"/>
  </clipPath>
  <clipPath id="p425d029c45">
   <rect x="585.938979" y="8.64" width="10.722041" height="54.36"/>
  </clipPath>
  <clipPath id="pd7fd3fad5d">
   <rect x="605.006938" y="8.64" width="4.986124" height="54.36"/>
  </clipPath>
  <clipPath id="p1d0af05873">
   <rect x="617.364248" y="8.64" width="12.671503" height="54.36"/>
  </clipPath>
  <clipPath id="p532aba4572">
   <rect x="631.8" y="9.426742" width="16.2" height="52.786517"/>
  </clipPath>
  <clipPath id="p2745350fc2">
   <rect x="651.919903" y="8.64" width="8.360193" height="54.36"/>
  </clipPath>
 </defs>
</svg>
