<?xml version="1.0" encoding="utf-8" standalone="no"?>
<!DOCTYPE svg PUBLIC "-//W3C//DTD SVG 1.1//EN"
  "http://www.w3.org/Graphics/SVG/1.1/DTD/svg11.dtd">
<svg xmlns:xlink="http://www.w3.org/1999/xlink" width="504pt" height="72pt" viewBox="0 0 504 72" xmlns="http://www.w3.org/2000/svg" version="1.1">
 <metadata>
  <rdf:RDF xmlns:dc="http://purl.org/dc/elements/1.1/" xmlns:cc="http://creativecommons.org/ns#" xmlns:rdf="http://www.w3.org/1999/02/22-rdf-syntax-ns#">
   <cc:Work>
    <dc:type rdf:resource="http://purl.org/dc/dcmitype/StillImage"/>
    <dc:date>2023-01-08T20:20:52.223752</dc:date>
    <dc:format>image/svg+xml</dc:format>
    <dc:creator>
     <cc:Agent>
      <dc:title>Matplotlib v3.6.1, https://matplotlib.org/</dc:title>
     </cc:Agent>
    </dc:creator>
   </cc:Work>
  </rdf:RDF>
 </metadata>
 <defs>
  <style type="text/css">*{stroke-linejoin: round; stroke-linecap: butt}</style>
 </defs>
 <g id="figure_1">
  <g id="patch_1">
   <path d="M 0 72 
L 504 72 
L 504 0 
L 0 0 
z
" style="fill: #8fff9f"/>
  </g>
  <g id="axes_1">
   <g id="patch_2">
    <path d="M 1.716102 36.437797 
L 2.951695 44.778051 
Q 3.054661 45.567458 3.054661 45.60178 
Q 3.054661 45.704746 3.363559 45.704746 
Q 4.22161 45.704746 4.942373 44.778051 
Q 5.663136 43.851356 6.075 42.718729 
Q 6.486864 41.586102 7.001695 40.659407 
Q 7.516525 39.732712 7.997034 39.732712 
Q 8.614831 39.732712 9.249788 40.607924 
Q 9.884746 41.483136 10.348093 42.512797 
Q 10.811441 43.542458 11.48072 44.417669 
Q 12.15 45.292881 12.836441 45.292881 
Q 13.111017 43.782712 13.540042 39.69839 
Q 13.969068 35.614068 14.483898 33.554746 
" clip-path="url(#p6f73cc0400)" style="fill: none; stroke: #000000; stroke-linejoin: miter"/>
   </g>
  </g>
  <g id="axes_2">
   <g id="patch_3">
    <path d="M 20.382331 26.597545 
Q 22.256814 30.496469 24.993559 30.42149 
Q 25.405945 30.458979 25.762097 30.234041 
Q 26.118248 30.009103 26.324441 29.746676 
Q 26.530634 29.484248 26.699338 28.978138 
Q 26.868041 28.472028 26.943021 28.190855 
Q 27.018 27.909683 27.130469 27.347338 
Q 27.242938 26.784993 27.242938 26.710014 
M 27.018 35.145186 
Q 25.855821 34.77029 23.418993 34.807779 
Q 21.319572 34.807779 20.007434 35.969959 
Q 18.695297 37.132138 18.695297 39.194069 
Q 18.695297 41.743366 20.757228 43.39291 
Q 22.819159 45.042455 25.443434 45.042455 
Q 27.355407 45.042455 28.423862 43.917766 
Q 29.492317 42.793076 29.492317 40.881103 
Q 29.904703 38.781683 28.742524 36.94469 
Q 27.580345 35.107697 25.555903 34.470372 
" clip-path="url(#pb8fdd63a82)" style="fill: none; stroke: #000000; stroke-linejoin: miter"/>
   </g>
  </g>
  <g id="axes_3"/>
  <g id="axes_4">
   <g id="patch_4">
    <path d="M 51.563917 36.382345 
Q 51.526428 36.494814 51.657641 36.701007 
Q 51.788855 36.9072 51.676386 37.057159 
L 51.676386 39.306538 
Q 51.676386 40.506207 52.013793 41.724621 
Q 52.3512 42.943034 53.213462 43.93651 
Q 54.075724 44.929986 55.275393 44.929986 
Q 56.512552 44.929986 57.187366 43.861531 
Q 57.862179 42.793076 58.312055 41.143531 
Q 58.761931 39.493986 59.099338 38.969131 
L 59.886621 36.382345 
L 59.661683 42.680607 
L 59.661683 45.154924 
Q 59.661683 47.066897 60.392731 51.00331 
Q 61.123779 54.939724 61.123779 56.964166 
Q 61.873572 59.213545 60.786372 60.188276 
Q 59.699172 61.163007 57.637241 60.78811 
Q 55.837738 60.488193 54.919241 60.169531 
Q 54.000745 59.850869 52.013793 58.988607 
L 51.901324 58.426262 
" clip-path="url(#p304b75b776)" style="fill: none; stroke: #000000; stroke-linejoin: miter"/>
   </g>
  </g>
  <g id="axes_5">
   <g id="patch_5">
    <path d="M 68.982331 26.597545 
Q 70.856814 30.496469 73.593559 30.42149 
Q 74.005945 30.458979 74.362097 30.234041 
Q 74.718248 30.009103 74.924441 29.746676 
Q 75.130634 29.484248 75.299338 28.978138 
Q 75.468041 28.472028 75.543021 28.190855 
Q 75.618 27.909683 75.730469 27.347338 
Q 75.842938 26.784993 75.842938 26.710014 
M 75.618 35.145186 
Q 74.455821 34.77029 72.018993 34.807779 
Q 69.919572 34.807779 68.607434 35.969959 
Q 67.295297 37.132138 67.295297 39.194069 
Q 67.295297 41.743366 69.357228 43.39291 
Q 71.419159 45.042455 74.043434 45.042455 
Q 75.955407 45.042455 77.023862 43.917766 
Q 78.092317 42.793076 78.092317 40.881103 
Q 78.504703 38.781683 77.342524 36.94469 
Q 76.180345 35.107697 74.155903 34.470372 
" clip-path="url(#p890844b884)" style="fill: none; stroke: #000000; stroke-linejoin: miter"/>
   </g>
  </g>
  <g id="axes_6">
   <g id="patch_6">
    <path d="M 84.488772 35.145186 
Q 84.488772 35.145186 84.488772 35.595062 
Q 84.488772 36.269876 84.376303 37.619503 
Q 84.263834 38.969131 84.263834 39.643945 
Q 84.263834 41.930814 85.500993 43.599103 
Q 86.738152 45.267393 88.875062 45.267393 
Q 90.262179 45.154924 91.030717 43.917766 
Q 91.799255 42.680607 91.949214 41.237255 
Q 92.099172 39.793903 92.3616 37.9944 
Q 92.624028 36.194897 93.036414 35.370124 
Q 93.186372 35.070207 93.186372 35.670041 
Q 93.186372 36.269876 92.923945 38.706703 
Q 92.699007 41.031062 92.699007 41.555917 
Q 92.549048 42.643117 92.886455 43.767807 
Q 93.223862 44.892497 93.936166 45.6048 
" clip-path="url(#p6249da3681)" style="fill: none; stroke: #000000; stroke-linejoin: miter"/>
   </g>
  </g>
  <g id="axes_7"/>
  <g id="axes_8">
   <g id="patch_7">
    <path d="M 116.720069 39.868883 
L 116.720069 39.419007 
Q 116.720069 37.769462 118.463338 36.682262 
Q 120.206607 35.595062 121.893641 35.595062 
Q 124.105531 35.595062 125.473903 36.794731 
Q 126.842276 37.9944 126.842276 40.20629 
Q 126.842276 42.30571 125.024028 43.336676 
Q 123.205779 44.367641 120.99389 44.367641 
Q 120.319076 44.367641 119.812966 44.255172 
Q 119.306855 44.142703 118.688276 43.917766 
Q 118.069697 43.692828 117.619821 43.580359 
L 116.495131 42.568138 
M 116.157724 36.832221 
Q 116.6076 38.444276 116.870028 40.262524 
Q 117.132455 42.080772 117.18869 43.749062 
Q 117.244924 45.417352 117.282414 47.27309 
Q 117.319903 49.128828 117.282414 50.778372 
L 117.169945 57.863917 
" clip-path="url(#p5df4ee9a44)" style="fill: none; stroke: #000000; stroke-linejoin: miter"/>
   </g>
  </g>
  <g id="axes_9">
   <g id="patch_8">
    <path d="M 134.4384 29.859145 
Q 134.700828 29.896634 135.038234 29.2968 
Q 135.375641 28.696966 135.900497 28.846924 
L 140.399255 24.798041 
M 133.538648 36.157407 
L 133.763586 36.157407 
Q 134.47589 36.157407 136.03171 36.832221 
Q 137.587531 37.507034 138.487283 37.507034 
Q 141.186538 37.507034 141.186538 34.245434 
Q 141.186538 32.108524 137.812469 32.108524 
Q 135.937986 32.108524 134.850786 33.251959 
Q 133.763586 34.395393 133.763586 36.269876 
Q 133.763586 39.11909 135.094469 40.956083 
Q 136.425352 42.793076 139.162097 42.793076 
Q 140.624193 43.092993 141.861352 41.106041 
" clip-path="url(#p8c1b70bd84)" style="fill: none; stroke: #000000; stroke-linejoin: miter"/>
   </g>
  </g>
  <g id="axes_10">
   <g id="patch_9">
    <path d="M 149.063834 32.783338 
L 149.063834 33.345683 
Q 149.926097 39.718924 149.963586 47.066897 
Q 149.963586 47.81669 149.888607 47.029407 
Q 149.438731 42.080772 149.288772 35.82 
L 149.288772 35.145186 
Q 149.288772 33.6456 150.882083 33.008276 
Q 152.475393 32.370952 153.9 32.783338 
Q 155.437076 33.233214 156.411807 34.414138 
Q 157.386538 35.595062 157.761434 37.282097 
Q 158.136331 38.969131 158.267545 40.543697 
Q 158.398759 42.118262 158.473738 44.067724 
Q 158.548717 46.017186 158.736166 47.066897 
" clip-path="url(#p110670d781)" style="fill: none; stroke: #000000; stroke-linejoin: miter"/>
   </g>
  </g>
  <g id="axes_11">
   <g id="patch_10">
    <path d="M 175.71018 35.173293 
Q 175.483832 35.108623 174.626946 34.752934 
Q 173.77006 34.397246 173.188024 34.267904 
Q 172.605988 34.138563 172.023952 34.203234 
Q 169.695808 34.203234 168.240719 36.321198 
Q 166.785629 38.439162 166.785629 40.799641 
Q 166.785629 42.254731 171.441916 42.254731 
Q 172.832335 42.254731 174.012575 40.912814 
Q 175.192814 39.570898 175.791018 37.905629 
Q 176.389222 36.240359 176.389222 34.882275 
Q 176.389222 33.556527 176.356886 33.297844 
L 176.292216 34.267904 
Q 176.292216 34.688263 176.292216 35.076287 
Q 176.583234 42.287066 176.25988 45.64994 
Q 175.160479 57.969701 167.076647 57.969701 
Q 165.621557 57.969701 164.651497 57.306826 
Q 163.681437 56.643952 163.681437 55.253533 
Q 163.616766 55.059521 163.649102 55.059521 
Q 163.681437 55.059521 163.778443 55.059521 
Q 163.875449 55.059521 163.875449 54.962515 
" clip-path="url(#padce21391d)" style="fill: none; stroke: #000000; stroke-linejoin: miter"/>
   </g>
  </g>
  <g id="axes_12">
   <g id="patch_11">
    <path d="M 181.163917 36.382345 
Q 181.126428 36.494814 181.257641 36.701007 
Q 181.388855 36.9072 181.276386 37.057159 
L 181.276386 39.306538 
Q 181.276386 40.506207 181.613793 41.724621 
Q 181.9512 42.943034 182.813462 43.93651 
Q 183.675724 44.929986 184.875393 44.929986 
Q 186.112552 44.929986 186.787366 43.861531 
Q 187.462179 42.793076 187.912055 41.143531 
Q 188.361931 39.493986 188.699338 38.969131 
L 189.486621 36.382345 
L 189.261683 42.680607 
L 189.261683 45.154924 
Q 189.261683 47.066897 189.992731 51.00331 
Q 190.723779 54.939724 190.723779 56.964166 
Q 191.473572 59.213545 190.386372 60.188276 
Q 189.299172 61.163007 187.237241 60.78811 
Q 185.437738 60.488193 184.519241 60.169531 
Q 183.600745 59.850869 181.613793 58.988607 
L 181.501324 58.426262 
" clip-path="url(#pc1c5459a04)" style="fill: none; stroke: #000000; stroke-linejoin: miter"/>
   </g>
  </g>
  <g id="axes_13">
   <g id="patch_12">
    <path d="M 205.7616 35.032717 
Q 204.71189 34.582841 203.737159 34.69531 
Q 200.700497 35.032717 198.788524 36.701007 
Q 196.876552 38.369297 196.876552 41.330979 
Q 196.876552 43.917766 198.882248 45.6048 
Q 200.887945 47.291834 203.512221 47.291834 
Q 205.874069 47.291834 206.998759 45.361117 
Q 208.123448 43.4304 208.123448 40.881103 
Q 208.123448 39.643945 207.711062 38.706703 
Q 207.298676 37.769462 206.773821 37.300841 
Q 206.248966 36.832221 205.499172 36.119917 
Q 204.749379 35.407614 204.299503 34.69531 
L 203.062345 34.245434 
" clip-path="url(#p58a099cf99)" style="fill: none; stroke: #000000; stroke-linejoin: miter"/>
   </g>
  </g>
  <g id="axes_14">
   <g id="patch_13">
    <path d="M 214.088772 35.145186 
Q 214.088772 35.145186 214.088772 35.595062 
Q 214.088772 36.269876 213.976303 37.619503 
Q 213.863834 38.969131 213.863834 39.643945 
Q 213.863834 41.930814 215.100993 43.599103 
Q 216.338152 45.267393 218.475062 45.267393 
Q 219.862179 45.154924 220.630717 43.917766 
Q 221.399255 42.680607 221.549214 41.237255 
Q 221.699172 39.793903 221.9616 37.9944 
Q 222.224028 36.194897 222.636414 35.370124 
Q 222.786372 35.070207 222.786372 35.670041 
Q 222.786372 36.269876 222.523945 38.706703 
Q 222.299007 41.031062 222.299007 41.555917 
Q 222.149048 42.643117 222.486455 43.767807 
Q 222.823862 44.892497 223.536166 45.6048 
" clip-path="url(#p680f9dbc97)" style="fill: none; stroke: #000000; stroke-linejoin: miter"/>
   </g>
  </g>
  <g id="axes_15"/>
  <g id="axes_16">
   <g id="patch_14">
    <path d="M 246.2076 35.032717 
Q 246.2076 35.032717 249.581669 35.032717 
Q 249.694138 35.032717 251.437407 34.826524 
Q 253.180676 34.620331 254.192897 34.789034 
Q 255.205117 34.957738 255.205117 35.707531 
Q 255.205117 36.86971 254.192897 38.144359 
Q 253.180676 39.419007 251.718579 40.506207 
Q 250.256483 41.593407 248.794386 42.605628 
Q 247.33229 43.617848 246.320069 44.573834 
Q 245.307848 45.529821 245.307848 46.279614 
L 246.432538 46.279614 
Q 246.470028 46.279614 248.681917 46.054676 
L 256.892152 45.942207 
" clip-path="url(#pe85325ac4d)" style="fill: none; stroke: #000000; stroke-linejoin: miter"/>
   </g>
  </g>
  <g id="axes_17">
   <g id="patch_15">
    <path d="M 263.813462 28.284579 
Q 264.788193 28.771945 266.081586 30.327766 
Q 267.374979 31.883586 267.862345 32.333462 
L 268.537159 33.008276 
M 271.573821 35.932469 
Q 270.261683 35.445103 269.211972 35.482593 
Q 268.949545 35.482593 268.049793 35.501338 
Q 267.150041 35.520083 266.71891 35.538828 
Q 266.287779 35.557572 265.425517 35.670041 
Q 264.563255 35.78251 264.094634 35.913724 
Q 263.626014 36.044938 262.98869 36.344855 
Q 262.351366 36.644772 262.032703 37.038414 
Q 261.714041 37.432055 261.470359 38.050634 
Q 261.226676 38.669214 261.226676 39.419007 
Q 261.226676 41.330979 262.838731 42.84931 
Q 264.450786 44.367641 266.400248 44.367641 
Q 267.749876 44.367641 268.612138 43.824041 
Q 269.4744 43.280441 269.886786 42.3432 
Q 270.299172 41.405959 270.52411 40.412483 
Q 270.749048 39.419007 271.086455 38.256828 
Q 271.423862 37.094648 271.911228 36.382345 
L 272.361103 42.3432 
L 273.373324 45.492331 
" clip-path="url(#pfc3229a01a)" style="fill: none; stroke: #000000; stroke-linejoin: miter"/>
   </g>
  </g>
  <g id="axes_18">
   <g id="patch_16">
    <path d="M 284.118579 29.071862 
Q 283.743683 29.146841 283.612469 29.577972 
Q 283.481255 30.009103 283.556234 30.42149 
Q 283.556234 30.571448 283.593724 30.702662 
Q 283.631214 30.833876 283.687448 30.89011 
Q 283.743683 30.946345 283.799917 31.040069 
Q 283.856152 31.133793 283.893641 31.208772 
L 284.00611 29.859145 
M 284.00611 34.020497 
Q 283.106359 39.006621 282.881421 42.793076 
L 283.331297 45.379862 
L 283.668703 46.054676 
" clip-path="url(#p8514e478fe)" style="fill: none; stroke: #000000; stroke-linejoin: miter"/>
   </g>
  </g>
  <g id="axes_19"/>
  <g id="axes_20">
   <g id="patch_17">
    <path d="M 309.154515 34.384214 
Q 309.154515 34.384214 310.698662 34.384214 
Q 310.725753 34.384214 322.076589 34.628027 
M 320.857525 27.801271 
Q 320.857525 27.801271 320.857525 34.302943 
Q 320.857525 35.738729 321.087793 37.147425 
Q 321.31806 38.55612 321.670234 40.127358 
Q 322.022408 41.698595 322.15786 42.511304 
L 322.645485 42.917659 
M 311.023746 27.638729 
Q 311.457191 28.64107 311.579097 30.767659 
Q 311.701003 32.894247 311.917726 33.734047 
L 312.32408 44.136722 
" clip-path="url(#pdcfc44d4a0)" style="fill: none; stroke: #000000; stroke-linejoin: miter"/>
   </g>
  </g>
  <g id="axes_21">
   <g id="patch_18">
    <path d="M 329.119572 31.546179 
L 329.119572 31.321241 
Q 329.119572 31.133793 329.175807 31.040069 
Q 329.232041 30.946345 329.307021 30.89011 
Q 329.382 30.833876 329.531959 30.740152 
Q 329.681917 30.646428 329.794386 30.533959 
L 333.955738 25.810262 
M 335.86771 35.370124 
L 332.718579 35.370124 
Q 332.60611 35.407614 332.343683 35.482593 
Q 329.119572 36.419834 328.219821 37.132138 
Q 326.682745 38.481766 326.645255 41.893324 
Q 326.645255 43.018014 327.507517 43.917766 
Q 328.369779 44.817517 329.456979 44.817517 
Q 330.319241 44.705048 331.106524 44.236428 
Q 331.893807 43.767807 332.399917 43.224207 
Q 332.906028 42.680607 333.449628 41.687131 
Q 333.993228 40.693655 334.2744 40.075076 
Q 334.555572 39.456497 335.005448 38.294317 
Q 335.455324 37.132138 335.642772 36.719752 
Q 335.980179 35.894979 336.092648 35.951214 
Q 336.205117 36.007448 336.092648 37.207117 
L 335.980179 38.744193 
Q 335.980179 38.781683 336.317586 42.455669 
L 337.554745 44.817517 
" clip-path="url(#pfe69f49fd2)" style="fill: none; stroke: #000000; stroke-linejoin: miter"/>
   </g>
  </g>
  <g id="axes_22">
   <g id="patch_19">
    <path d="M 343.463834 32.783338 
L 343.463834 33.345683 
Q 344.326097 39.718924 344.363586 47.066897 
Q 344.363586 47.81669 344.288607 47.029407 
Q 343.838731 42.080772 343.688772 35.82 
L 343.688772 35.145186 
Q 343.688772 33.6456 345.282083 33.008276 
Q 346.875393 32.370952 348.3 32.783338 
Q 349.837076 33.233214 350.811807 34.414138 
Q 351.786538 35.595062 352.161434 37.282097 
Q 352.536331 38.969131 352.667545 40.543697 
Q 352.798759 42.118262 352.873738 44.067724 
Q 352.948717 46.017186 353.136166 47.066897 
" clip-path="url(#pe1ad73999f)" style="fill: none; stroke: #000000; stroke-linejoin: miter"/>
   </g>
  </g>
  <g id="axes_23">
   <g id="patch_20">
    <path d="M 370.11018 35.173293 
Q 369.883832 35.108623 369.026946 34.752934 
Q 368.17006 34.397246 367.588024 34.267904 
Q 367.005988 34.138563 366.423952 34.203234 
Q 364.095808 34.203234 362.640719 36.321198 
Q 361.185629 38.439162 361.185629 40.799641 
Q 361.185629 42.254731 365.841916 42.254731 
Q 367.232335 42.254731 368.412575 40.912814 
Q 369.592814 39.570898 370.191018 37.905629 
Q 370.789222 36.240359 370.789222 34.882275 
Q 370.789222 33.556527 370.756886 33.297844 
L 370.692216 34.267904 
Q 370.692216 34.688263 370.692216 35.076287 
Q 370.983234 42.287066 370.65988 45.64994 
Q 369.560479 57.969701 361.476647 57.969701 
Q 360.021557 57.969701 359.051497 57.306826 
Q 358.081437 56.643952 358.081437 55.253533 
Q 358.016766 55.059521 358.049102 55.059521 
Q 358.081437 55.059521 358.178443 55.059521 
Q 358.275449 55.059521 358.275449 54.962515 
" clip-path="url(#pa613a75425)" style="fill: none; stroke: #000000; stroke-linejoin: miter"/>
   </g>
  </g>
  <g id="axes_24">
   <g id="patch_21">
    <path d="M 375.8076 35.032717 
Q 375.8076 35.032717 379.181669 35.032717 
Q 379.294138 35.032717 381.037407 34.826524 
Q 382.780676 34.620331 383.792897 34.789034 
Q 384.805117 34.957738 384.805117 35.707531 
Q 384.805117 36.86971 383.792897 38.144359 
Q 382.780676 39.419007 381.318579 40.506207 
Q 379.856483 41.593407 378.394386 42.605628 
Q 376.93229 43.617848 375.920069 44.573834 
Q 374.907848 45.529821 374.907848 46.279614 
L 376.032538 46.279614 
Q 376.070028 46.279614 378.281917 46.054676 
L 386.492152 45.942207 
" clip-path="url(#pce019e1513)" style="fill: none; stroke: #000000; stroke-linejoin: miter"/>
   </g>
  </g>
  <g id="axes_25">
   <g id="patch_22">
    <path d="M 393.413462 35.932469 
Q 394.013297 35.257655 395.006772 34.826524 
Q 396.000248 34.395393 396.9 34.470372 
Q 397.537324 34.470372 398.02469 34.639076 
Q 398.512055 34.807779 398.830717 34.995228 
Q 399.149379 35.182676 399.374317 35.670041 
Q 399.599255 36.157407 399.711724 36.419834 
Q 399.824193 36.682262 399.880428 37.375821 
Q 399.936662 38.069379 399.955407 38.331807 
Q 399.974152 38.594234 399.955407 39.419007 
Q 399.936662 40.243779 399.936662 40.431228 
Q 399.936662 41.368469 399.767959 43.242952 
Q 399.599255 45.117434 399.599255 46.054676 
Q 399.599255 46.467062 399.65549 46.823214 
Q 399.711724 47.179366 399.805448 47.610497 
Q 399.899172 48.041628 399.936662 48.304055 
L 400.386538 48.528993 
M 393.863338 23.111007 
Q 394.088276 24.798041 394.088276 29.971614 
L 394.088276 42.3432 
L 393.750869 46.841959 
L 393.525931 47.74171 
" clip-path="url(#p5cb2c15c9a)" style="fill: none; stroke: #000000; stroke-linejoin: miter"/>
   </g>
  </g>
  <g id="axes_26">
   <g id="patch_23">
    <path d="M 408.882414 31.021324 
L 416.417834 31.358731 
M 415.255655 35.107697 
Q 415.218166 34.957738 414.637076 34.976483 
Q 414.055986 34.995228 414.018497 34.995228 
Q 411.131793 34.995228 410.044593 36.288621 
Q 408.957393 37.582014 408.957393 40.618676 
Q 408.957393 42.268221 410.119572 43.524124 
Q 411.281752 44.780028 413.006276 44.780028 
Q 414.580841 44.780028 415.818 43.599103 
Q 417.055159 42.418179 417.055159 40.843614 
Q 417.317586 39.04411 416.32411 37.319586 
Q 415.330634 35.595062 413.68109 34.882759 
" clip-path="url(#p0fee2323c9)" style="fill: none; stroke: #000000; stroke-linejoin: miter"/>
   </g>
  </g>
  <g id="axes_27">
   <g id="patch_24">
    <path d="M 424.688772 35.145186 
Q 424.688772 35.145186 424.688772 35.595062 
Q 424.688772 36.269876 424.576303 37.619503 
Q 424.463834 38.969131 424.463834 39.643945 
Q 424.463834 41.930814 425.700993 43.599103 
Q 426.938152 45.267393 429.075062 45.267393 
Q 430.462179 45.154924 431.230717 43.917766 
Q 431.999255 42.680607 432.149214 41.237255 
Q 432.299172 39.793903 432.5616 37.9944 
Q 432.824028 36.194897 433.236414 35.370124 
Q 433.386372 35.070207 433.386372 35.670041 
Q 433.386372 36.269876 433.123945 38.706703 
Q 432.899007 41.031062 432.899007 41.555917 
Q 432.749048 42.643117 433.086455 43.767807 
Q 433.423862 44.892497 434.136166 45.6048 
" clip-path="url(#p73498534b7)" style="fill: none; stroke: #000000; stroke-linejoin: miter"/>
   </g>
  </g>
  <g id="axes_28">
   <g id="patch_25">
    <path d="M 445.425021 46.054676 
Q 445.425021 46.092166 445.350041 46.092166 
Q 445.275062 46.129655 445.275062 46.167145 
Q 445.275062 46.392083 445.5 46.392083 
Q 445.687448 46.392083 445.687448 46.129655 
Q 445.724938 46.017186 445.574979 45.942207 
Q 445.425021 45.867228 445.312552 45.942207 
" clip-path="url(#pa28b59df8c)" style="fill: none; stroke: #000000; stroke-linejoin: miter"/>
   </g>
  </g>
 </g>
 <defs>
  <clipPath id="p6f73cc0400">
   <rect x="0" y="10.936525" width="16.2" height="49.766949"/>
  </clipPath>
  <clipPath id="pb8fdd63a82">
   <rect x="16.820814" y="8.64" width="14.958372" height="54.36"/>
  </clipPath>
  <clipPath id="p304b75b776">
   <rect x="49.651945" y="8.64" width="14.09611" height="54.36"/>
  </clipPath>
  <clipPath id="p890844b884">
   <rect x="65.420814" y="8.64" width="14.958372" height="54.36"/>
  </clipPath>
  <clipPath id="p6249da3681">
   <rect x="82.389352" y="8.64" width="13.421297" height="54.36"/>
  </clipPath>
  <clipPath id="p5df4ee9a44">
   <rect x="114.283241" y="8.64" width="14.433517" height="54.36"/>
  </clipPath>
  <clipPath id="p8c1b70bd84">
   <rect x="131.664166" y="8.64" width="12.071669" height="54.36"/>
  </clipPath>
  <clipPath id="p110670d781">
   <rect x="147.189352" y="8.64" width="13.421297" height="54.36"/>
  </clipPath>
  <clipPath id="padce21391d">
   <rect x="162" y="12.376886" width="16.2" height="46.886228"/>
  </clipPath>
  <clipPath id="pc1c5459a04">
   <rect x="179.251945" y="8.64" width="14.09611" height="54.36"/>
  </clipPath>
  <clipPath id="p58a099cf99">
   <rect x="195.002069" y="8.64" width="14.995862" height="54.36"/>
  </clipPath>
  <clipPath id="p680f9dbc97">
   <rect x="211.989352" y="8.64" width="13.421297" height="54.36"/>
  </clipPath>
  <clipPath id="pe85325ac4d">
   <rect x="243.433366" y="8.64" width="15.333269" height="54.36"/>
  </clipPath>
  <clipPath id="pfc3229a01a">
   <rect x="259.352193" y="8.64" width="15.895614" height="54.36"/>
  </clipPath>
  <clipPath id="p8514e478fe">
   <rect x="281.006938" y="8.64" width="4.986124" height="54.36"/>
  </clipPath>
  <clipPath id="pdcfc44d4a0">
   <rect x="307.8" y="16.179532" width="16.2" height="39.280936"/>
  </clipPath>
  <clipPath id="pfe69f49fd2">
   <rect x="324.770772" y="8.64" width="14.658455" height="54.36"/>
  </clipPath>
  <clipPath id="pe1ad73999f">
   <rect x="341.589352" y="8.64" width="13.421297" height="54.36"/>
  </clipPath>
  <clipPath id="pa613a75425">
   <rect x="356.4" y="12.376886" width="16.2" height="46.886228"/>
  </clipPath>
  <clipPath id="pce019e1513">
   <rect x="373.033366" y="8.64" width="15.333269" height="54.36"/>
  </clipPath>
  <clipPath id="p5cb2c15c9a">
   <rect x="391.538979" y="8.64" width="10.722041" height="54.36"/>
  </clipPath>
  <clipPath id="p0fee2323c9">
   <rect x="407.007931" y="8.64" width="12.184138" height="54.36"/>
  </clipPath>
  <clipPath id="p73498534b7">
   <rect x="422.589352" y="8.64" width="13.421297" height="54.36"/>
  </clipPath>
  <clipPath id="pa28b59df8c">
   <rect x="443.400579" y="8.64" width="4.198841" height="54.36"/>
  </clipPath>
 </defs>
</svg>
