<?xml version="1.0" encoding="utf-8" standalone="no"?>
<!DOCTYPE svg PUBLIC "-//W3C//DTD SVG 1.1//EN"
  "http://www.w3.org/Graphics/SVG/1.1/DTD/svg11.dtd">
<svg xmlns:xlink="http://www.w3.org/1999/xlink" width="270pt" height="72pt" viewBox="0 0 270 72" xmlns="http://www.w3.org/2000/svg" version="1.1">
 <metadata>
  <rdf:RDF xmlns:dc="http://purl.org/dc/elements/1.1/" xmlns:cc="http://creativecommons.org/ns#" xmlns:rdf="http://www.w3.org/1999/02/22-rdf-syntax-ns#">
   <cc:Work>
    <dc:type rdf:resource="http://purl.org/dc/dcmitype/StillImage"/>
    <dc:date>2023-01-08T20:19:45.036848</dc:date>
    <dc:format>image/svg+xml</dc:format>
    <dc:creator>
     <cc:Agent>
      <dc:title>Matplotlib v3.6.1, https://matplotlib.org/</dc:title>
     </cc:Agent>
    </dc:creator>
   </cc:Work>
  </rdf:RDF>
 </metadata>
 <defs>
  <style type="text/css">*{stroke-linejoin: round; stroke-linecap: butt}</style>
 </defs>
 <g id="figure_1">
  <g id="patch_1">
   <path d="M 0 72 
L 270 72 
L 270 0 
L 0 0 
z
" style="fill: #8fff9f"/>
  </g>
  <g id="axes_1">
   <g id="patch_2">
    <path d="M 9.14976 37.53072 
Q 10.18656 38.46384 11.48256 40.95216 
Q 12.77856 43.44048 13.7376 44.3736 
L 14.904 44.7624 
M 10.6272 29.13264 
Q 9.5904 28.5624 7.82784 28.58832 
Q 4.9248 28.58832 3.1104 30.53232 
Q 1.296 32.47632 1.296 35.35344 
Q 1.296 38.77488 3.51216 40.95216 
Q 5.72832 43.12944 9.14976 43.12944 
Q 10.39392 43.12944 11.34 42.45552 
Q 12.28608 41.7816 12.80448 40.68 
Q 13.32288 39.5784 13.56912 38.412 
Q 13.81536 37.2456 13.81536 36.05328 
Q 13.81536 34.47216 13.3488 33.31872 
Q 12.88224 32.16528 12.07872 30.98592 
Q 11.2752 29.80656 10.93824 28.97712 
L 9.77184 28.74384 
" clip-path="url(#p0724038c7f)" style="fill: none; stroke: #000000; stroke-linejoin: miter"/>
   </g>
  </g>
  <g id="axes_2">
   <g id="patch_3">
    <path d="M 19.688772 35.145186 
Q 19.688772 35.145186 19.688772 35.595062 
Q 19.688772 36.269876 19.576303 37.619503 
Q 19.463834 38.969131 19.463834 39.643945 
Q 19.463834 41.930814 20.700993 43.599103 
Q 21.938152 45.267393 24.075062 45.267393 
Q 25.462179 45.154924 26.230717 43.917766 
Q 26.999255 42.680607 27.149214 41.237255 
Q 27.299172 39.793903 27.5616 37.9944 
Q 27.824028 36.194897 28.236414 35.370124 
Q 28.386372 35.070207 28.386372 35.670041 
Q 28.386372 36.269876 28.123945 38.706703 
Q 27.899007 41.031062 27.899007 41.555917 
Q 27.749048 42.643117 28.086455 43.767807 
Q 28.423862 44.892497 29.136166 45.6048 
" clip-path="url(#pca213fe81d)" style="fill: none; stroke: #000000; stroke-linejoin: miter"/>
   </g>
  </g>
  <g id="axes_3">
   <g id="patch_4">
    <path d="M 34.577221 29.066925 
L 44.762187 29.066925 
M 43.987244 33.384465 
Q 43.987244 33.384465 41.108884 33.384465 
Q 38.119818 33.384465 36.18246 35.026606 
Q 34.245103 36.668747 34.245103 39.584009 
Q 34.245103 41.318405 35.979499 42.222506 
Q 37.713895 43.126606 39.669704 43.126606 
Q 41.182688 42.83139 42.049886 41.650524 
Q 42.917084 40.469658 43.138497 39.251891 
Q 43.359909 38.034123 43.56287 36.115216 
Q 43.765831 34.19631 43.987244 33.384465 
Q 46.533485 42.978998 46.644191 43.901549 
L 46.754897 45.00861 
" clip-path="url(#pe0ecf4ad46)" style="fill: none; stroke: #000000; stroke-linejoin: miter"/>
   </g>
  </g>
  <g id="axes_4">
   <g id="patch_5">
    <path d="M 51.863834 32.783338 
L 51.863834 33.345683 
Q 52.726097 39.718924 52.763586 47.066897 
Q 52.763586 47.81669 52.688607 47.029407 
Q 52.238731 42.080772 52.088772 35.82 
L 52.088772 35.145186 
Q 52.088772 33.6456 53.682083 33.008276 
Q 55.275393 32.370952 56.7 32.783338 
Q 58.237076 33.233214 59.211807 34.414138 
Q 60.186538 35.595062 60.561434 37.282097 
Q 60.936331 38.969131 61.067545 40.543697 
Q 61.198759 42.118262 61.273738 44.067724 
Q 61.348717 46.017186 61.536166 47.066897 
" clip-path="url(#p10b0499d20)" style="fill: none; stroke: #000000; stroke-linejoin: miter"/>
   </g>
  </g>
  <g id="axes_5"/>
  <g id="axes_6">
   <g id="patch_6">
    <path d="M 94.356735 34.365306 
Q 94.356735 34.365306 93.860816 34.365306 
Q 93.067347 34.365306 91.579592 34.067755 
Q 90.091837 33.770204 89.298367 33.770204 
Q 86.521224 33.770204 84.587143 35.224898 
Q 82.653061 36.679592 82.653061 39.423673 
Q 82.653061 40.94449 84.140816 42.399184 
Q 85.628571 43.853878 87.562653 44.663878 
Q 89.496735 45.473878 90.98449 45.473878 
Q 91.910204 45.473878 92.60449 45.110204 
Q 93.298776 44.746531 94.042653 44.118367 
Q 94.786531 43.490204 95.348571 43.192653 
L 95.546939 42.696735 
" clip-path="url(#p7c82a24810)" style="fill: none; stroke: #000000; stroke-linejoin: miter"/>
   </g>
  </g>
  <g id="axes_7">
   <g id="patch_7">
    <path d="M 101.813462 35.932469 
Q 102.413297 35.257655 103.406772 34.826524 
Q 104.400248 34.395393 105.3 34.470372 
Q 105.937324 34.470372 106.42469 34.639076 
Q 106.912055 34.807779 107.230717 34.995228 
Q 107.549379 35.182676 107.774317 35.670041 
Q 107.999255 36.157407 108.111724 36.419834 
Q 108.224193 36.682262 108.280428 37.375821 
Q 108.336662 38.069379 108.355407 38.331807 
Q 108.374152 38.594234 108.355407 39.419007 
Q 108.336662 40.243779 108.336662 40.431228 
Q 108.336662 41.368469 108.167959 43.242952 
Q 107.999255 45.117434 107.999255 46.054676 
Q 107.999255 46.467062 108.05549 46.823214 
Q 108.111724 47.179366 108.205448 47.610497 
Q 108.299172 48.041628 108.336662 48.304055 
L 108.786538 48.528993 
M 102.263338 23.111007 
Q 102.488276 24.798041 102.488276 29.971614 
L 102.488276 42.3432 
L 102.150869 46.841959 
L 101.925931 47.74171 
" clip-path="url(#pc5133e527b)" style="fill: none; stroke: #000000; stroke-linejoin: miter"/>
   </g>
  </g>
  <g id="axes_8">
   <g id="patch_8">
    <path d="M 116.57011 31.43371 
L 123.880593 31.43371 
M 115.782828 35.707531 
Q 115.745338 36.194897 115.782828 37.394566 
Q 115.782828 38.556745 115.782828 39.025366 
Q 115.782828 39.493986 115.876552 40.524952 
Q 115.970276 41.555917 116.120234 42.005793 
Q 116.270193 42.455669 116.6076 43.167972 
Q 116.945007 43.880276 117.432372 44.198938 
Q 117.919738 44.5176 118.669531 44.780028 
Q 119.419324 45.042455 120.394055 45.042455 
Q 121.781172 45.042455 122.755903 44.067724 
Q 123.730634 43.092993 124.18051 41.555917 
Q 124.630386 40.018841 124.817834 38.631724 
Q 125.005283 37.244607 125.005283 35.932469 
Q 125.005283 36.794731 125.26771 38.238083 
Q 125.530138 39.681434 125.980014 41.555917 
Q 126.42989 43.4304 126.579848 44.255172 
L 127.254662 44.48011 
" clip-path="url(#p8a9f2d394a)" style="fill: none; stroke: #000000; stroke-linejoin: miter"/>
   </g>
  </g>
  <g id="axes_9">
   <g id="patch_9">
    <path d="M 134.157228 36.494814 
Q 135.206938 36.457324 135.394386 36.382345 
Q 138.805945 36.382345 140.586703 38.463021 
Q 142.367462 40.543697 142.367462 44.030234 
Q 142.367462 46.954428 137.756234 46.954428 
Q 137.11891 46.954428 136.57531 46.841959 
Q 136.03171 46.72949 135.394386 46.504552 
Q 134.757062 46.279614 134.269697 46.167145 
L 133.032538 44.929986 
M 134.044759 24.685572 
L 134.044759 25.810262 
Q 134.044759 28.659476 134.157228 32.258483 
Q 134.269697 35.85749 134.457145 40.150055 
Q 134.644593 44.442621 134.719572 46.392083 
" clip-path="url(#p5cb26abe99)" style="fill: none; stroke: #000000; stroke-linejoin: miter"/>
   </g>
  </g>
  <g id="axes_10">
   <g id="patch_10">
    <path d="M 148.838897 27.609766 
Q 149.363752 27.872193 149.757393 28.734455 
Q 150.151034 29.596717 150.60091 30.234041 
Q 151.050786 30.871366 151.875559 30.758897 
Q 152.962759 30.983834 153.750041 30.458979 
Q 154.537324 29.934124 154.893476 29.165586 
Q 155.249628 28.397048 155.718248 27.309848 
Q 156.186869 26.222648 156.599255 25.697793 
M 157.1616 35.032717 
L 156.824193 35.032717 
Q 156.299338 35.032717 155.174648 34.751545 
Q 154.049959 34.470372 153.450124 34.470372 
Q 151.538152 34.470372 150.076055 35.613807 
Q 148.613959 36.757241 148.613959 38.519255 
Q 148.613959 40.093821 150.226014 41.555917 
Q 151.838069 43.018014 153.450124 43.018014 
Q 155.324607 43.018014 156.524276 40.449972 
Q 157.723945 37.881931 157.723945 35.595062 
L 157.611476 35.257655 
L 157.611476 35.595062 
L 157.611476 36.719752 
Q 157.611476 37.544524 158.005117 39.306538 
Q 158.398759 41.068552 158.811145 42.455669 
L 159.186041 43.805297 
" clip-path="url(#p51e1402671)" style="fill: none; stroke: #000000; stroke-linejoin: miter"/>
   </g>
  </g>
  <g id="axes_11">
   <g id="patch_11">
    <path d="M 165.263834 32.783338 
L 165.263834 33.345683 
Q 166.126097 39.718924 166.163586 47.066897 
Q 166.163586 47.81669 166.088607 47.029407 
Q 165.638731 42.080772 165.488772 35.82 
L 165.488772 35.145186 
Q 165.488772 33.6456 167.082083 33.008276 
Q 168.675393 32.370952 170.1 32.783338 
Q 171.637076 33.233214 172.611807 34.414138 
Q 173.586538 35.595062 173.961434 37.282097 
Q 174.336331 38.969131 174.467545 40.543697 
Q 174.598759 42.118262 174.673738 44.067724 
Q 174.748717 46.017186 174.936166 47.066897 
" clip-path="url(#p6c7d8b77c4)" style="fill: none; stroke: #000000; stroke-linejoin: miter"/>
   </g>
  </g>
  <g id="axes_12"/>
  <g id="axes_13">
   <g id="patch_12">
    <path d="M 198.057476 43.917766 
Q 198.357393 44.180193 199.369614 45.154924 
Q 200.381834 46.129655 200.944179 46.560786 
Q 201.506524 46.991917 202.53749 47.385559 
Q 203.568455 47.7792 204.580676 47.629241 
Q 205.25549 47.629241 205.72411 47.404303 
Q 206.192731 47.179366 206.417669 46.879448 
Q 206.642607 46.579531 206.773821 45.979697 
Q 206.905034 45.379862 206.923779 44.967476 
Q 206.942524 44.55509 206.942524 43.805297 
Q 206.942524 42.718097 206.042772 42.043283 
Q 205.143021 41.368469 203.849628 41.031062 
Q 202.556234 40.693655 201.262841 40.300014 
Q 199.969448 39.906372 199.069697 38.987876 
Q 198.169945 38.069379 198.169945 36.607283 
Q 198.169945 36.082428 198.338648 35.726276 
Q 198.507352 35.370124 198.900993 35.145186 
Q 199.294634 34.920248 199.575807 34.807779 
Q 199.856979 34.69531 200.513048 34.639076 
Q 201.169117 34.582841 201.356566 34.582841 
Q 201.544014 34.582841 202.218828 34.582841 
Q 203.418497 34.582841 203.999586 34.995228 
Q 204.580676 35.407614 204.899338 36.026193 
Q 205.218 36.644772 205.480428 36.832221 
" clip-path="url(#p26dd0bf779)" style="fill: none; stroke: #000000; stroke-linejoin: miter"/>
   </g>
  </g>
  <g id="axes_14">
   <g id="patch_13">
    <path d="M 215.213462 35.932469 
Q 215.813297 35.257655 216.806772 34.826524 
Q 217.800248 34.395393 218.7 34.470372 
Q 219.337324 34.470372 219.82469 34.639076 
Q 220.312055 34.807779 220.630717 34.995228 
Q 220.949379 35.182676 221.174317 35.670041 
Q 221.399255 36.157407 221.511724 36.419834 
Q 221.624193 36.682262 221.680428 37.375821 
Q 221.736662 38.069379 221.755407 38.331807 
Q 221.774152 38.594234 221.755407 39.419007 
Q 221.736662 40.243779 221.736662 40.431228 
Q 221.736662 41.368469 221.567959 43.242952 
Q 221.399255 45.117434 221.399255 46.054676 
Q 221.399255 46.467062 221.45549 46.823214 
Q 221.511724 47.179366 221.605448 47.610497 
Q 221.699172 48.041628 221.736662 48.304055 
L 222.186538 48.528993 
M 215.663338 23.111007 
Q 215.888276 24.798041 215.888276 29.971614 
L 215.888276 42.3432 
L 215.550869 46.841959 
L 215.325931 47.74171 
" clip-path="url(#pdc233e4d81)" style="fill: none; stroke: #000000; stroke-linejoin: miter"/>
   </g>
  </g>
  <g id="axes_15">
   <g id="patch_14">
    <path d="M 231.469697 27.047421 
Q 232.331959 27.647255 233.156731 28.547007 
Q 233.981503 29.446759 234.93749 30.646428 
Q 235.893476 31.846097 236.418331 32.445931 
M 231.807103 39.0816 
L 232.032041 39.0816 
Q 232.294469 39.04411 232.819324 39.137834 
Q 233.344179 39.231559 233.606607 39.194069 
Q 234.206441 39.11909 234.787531 39.156579 
Q 235.368621 39.194069 235.930966 39.11909 
Q 236.49331 39.04411 236.924441 38.819172 
Q 237.355572 38.594234 237.618 38.013145 
Q 237.880428 37.432055 237.880428 36.494814 
Q 237.767959 35.257655 236.849462 34.69531 
Q 235.930966 34.132966 234.731297 34.245434 
Q 233.381669 34.357903 232.481917 35.370124 
Q 231.582166 36.382345 231.582166 37.731972 
Q 231.582166 46.204634 238.330303 44.142703 
" clip-path="url(#p5724428274)" style="fill: none; stroke: #000000; stroke-linejoin: miter"/>
   </g>
  </g>
 </g>
 <defs>
  <clipPath id="p0724038c7f">
   <rect x="0" y="17.028" width="16.2" height="37.584"/>
  </clipPath>
  <clipPath id="pca213fe81d">
   <rect x="17.589352" y="8.64" width="13.421297" height="54.36"/>
  </clipPath>
  <clipPath id="pe0ecf4ad46">
   <rect x="32.4" y="9.066014" width="16.2" height="53.507973"/>
  </clipPath>
  <clipPath id="p10b0499d20">
   <rect x="49.989352" y="8.64" width="13.421297" height="54.36"/>
  </clipPath>
  <clipPath id="p7c82a24810">
   <rect x="81" y="11.850612" width="16.2" height="47.938776"/>
  </clipPath>
  <clipPath id="pc5133e527b">
   <rect x="99.938979" y="8.64" width="10.722041" height="54.36"/>
  </clipPath>
  <clipPath id="p8a9f2d394a">
   <rect x="113.870855" y="8.64" width="15.25829" height="54.36"/>
  </clipPath>
  <clipPath id="p5cb26abe99">
   <rect x="131.158055" y="8.64" width="13.08389" height="54.36"/>
  </clipPath>
  <clipPath id="p51e1402671">
   <rect x="146.739476" y="8.64" width="14.321048" height="54.36"/>
  </clipPath>
  <clipPath id="p6c7d8b77c4">
   <rect x="163.389352" y="8.64" width="13.421297" height="54.36"/>
  </clipPath>
  <clipPath id="p26dd0bf779">
   <rect x="196.182993" y="8.64" width="12.634014" height="54.36"/>
  </clipPath>
  <clipPath id="pdc233e4d81">
   <rect x="213.338979" y="8.64" width="10.722041" height="54.36"/>
  </clipPath>
  <clipPath id="p5724428274">
   <rect x="229.595214" y="8.64" width="10.609572" height="54.36"/>
  </clipPath>
 </defs>
</svg>
