<?xml version="1.0" encoding="utf-8" standalone="no"?>
<!DOCTYPE svg PUBLIC "-//W3C//DTD SVG 1.1//EN"
  "http://www.w3.org/Graphics/SVG/1.1/DTD/svg11.dtd">
<svg xmlns:xlink="http://www.w3.org/1999/xlink" width="288pt" height="72pt" viewBox="0 0 288 72" xmlns="http://www.w3.org/2000/svg" version="1.1">
 <metadata>
  <rdf:RDF xmlns:dc="http://purl.org/dc/elements/1.1/" xmlns:cc="http://creativecommons.org/ns#" xmlns:rdf="http://www.w3.org/1999/02/22-rdf-syntax-ns#">
   <cc:Work>
    <dc:type rdf:resource="http://purl.org/dc/dcmitype/StillImage"/>
    <dc:date>2023-01-08T20:20:56.630112</dc:date>
    <dc:format>image/svg+xml</dc:format>
    <dc:creator>
     <cc:Agent>
      <dc:title>Matplotlib v3.6.1, https://matplotlib.org/</dc:title>
     </cc:Agent>
    </dc:creator>
   </cc:Work>
  </rdf:RDF>
 </metadata>
 <defs>
  <style type="text/css">*{stroke-linejoin: round; stroke-linecap: butt}</style>
 </defs>
 <g id="figure_1">
  <g id="patch_1">
   <path d="M 0 72 
L 288 72 
L 288 0 
L 0 0 
z
" style="fill: #8fff9f"/>
  </g>
  <g id="axes_1">
   <g id="patch_2">
    <path d="M 1.314935 42.420974 
L 14.885065 42.420974 
M 2.656169 29.219026 
L 13.543831 29.14013 
M 7.547727 29.53461 
L 7.547727 29.929091 
Q 7.547727 31.454416 7.639773 33.203279 
Q 7.731818 34.952143 7.88961 37.121786 
Q 8.047403 39.291429 8.1 40.422273 
L 8.257792 42.236883 
" clip-path="url(#p0cc6a2a804)" style="fill: none; stroke: #000000; stroke-linejoin: miter"/>
   </g>
  </g>
  <g id="axes_2">
   <g id="patch_3">
    <path d="M 24.225021 26.147669 
Q 24.187531 26.597545 24.225021 27.384828 
Q 24.26251 27.572276 24.206276 27.965917 
Q 24.150041 28.359559 24.187531 28.678221 
Q 24.225021 28.996883 24.449959 29.184331 
" clip-path="url(#p5a1035e72c)" style="fill: none; stroke: #000000; stroke-linejoin: miter"/>
   </g>
  </g>
  <g id="axes_3">
   <g id="patch_4">
    <path d="M 34.208036 34.879821 
Q 34.714286 36.109286 34.967411 42.256607 
Q 35.148214 46.632054 35.4375 46.632054 
L 35.509821 46.595893 
Q 36.016071 46.017321 36.070312 44.588973 
Q 36.124554 43.160625 35.907589 41.750357 
Q 35.690625 40.340089 35.4375 38.712857 
Q 35.184375 37.085625 35.184375 36.398571 
Q 35.184375 35.169107 35.564062 33.939643 
Q 35.94375 32.710179 36.920089 32.710179 
Q 38.149554 32.710179 38.872768 34.355491 
Q 39.595982 36.000804 39.758705 37.971563 
Q 39.921429 39.942321 40.029911 41.587634 
Q 40.138393 43.232946 40.283036 43.232946 
Q 40.427679 43.232946 40.51808 41.497232 
Q 40.608482 39.761518 40.735045 37.700357 
Q 40.861607 35.639196 41.584821 33.903482 
Q 42.308036 32.167768 43.5375 32.167768 
Q 45.092411 33.035625 45.761384 34.771339 
Q 46.430357 36.507054 46.394196 38.188527 
Q 46.358036 39.87 46.376116 42.057723 
Q 46.394196 44.245446 46.791964 45.511071 
" clip-path="url(#p16083cbe28)" style="fill: none; stroke: #000000; stroke-linejoin: miter"/>
   </g>
  </g>
  <g id="axes_4"/>
  <g id="axes_5">
   <g id="patch_5">
    <path d="M 69.413462 35.932469 
Q 70.013297 35.257655 71.006772 34.826524 
Q 72.000248 34.395393 72.9 34.470372 
Q 73.537324 34.470372 74.02469 34.639076 
Q 74.512055 34.807779 74.830717 34.995228 
Q 75.149379 35.182676 75.374317 35.670041 
Q 75.599255 36.157407 75.711724 36.419834 
Q 75.824193 36.682262 75.880428 37.375821 
Q 75.936662 38.069379 75.955407 38.331807 
Q 75.974152 38.594234 75.955407 39.419007 
Q 75.936662 40.243779 75.936662 40.431228 
Q 75.936662 41.368469 75.767959 43.242952 
Q 75.599255 45.117434 75.599255 46.054676 
Q 75.599255 46.467062 75.65549 46.823214 
Q 75.711724 47.179366 75.805448 47.610497 
Q 75.899172 48.041628 75.936662 48.304055 
L 76.386538 48.528993 
M 69.863338 23.111007 
Q 70.088276 24.798041 70.088276 29.971614 
L 70.088276 42.3432 
L 69.750869 46.841959 
L 69.525931 47.74171 
" clip-path="url(#p3e8627ae1e)" style="fill: none; stroke: #000000; stroke-linejoin: miter"/>
   </g>
  </g>
  <g id="axes_6">
   <g id="patch_6">
    <path d="M 82.857798 38.160826 
Q 85.830275 39.535596 90.549083 39.721376 
Q 92.072477 39.721376 92.759862 38.550963 
Q 93.447248 37.38055 93.447248 35.82 
Q 93.447248 35.299817 93.354358 34.909679 
Q 93.261468 34.519541 93.019954 34.296606 
Q 92.77844 34.07367 92.611239 33.943624 
Q 92.444037 33.813578 91.998165 33.757844 
Q 91.552294 33.70211 91.347936 33.683532 
Q 91.143578 33.664954 90.567661 33.683532 
Q 89.991743 33.70211 89.768807 33.70211 
Q 87.725229 33.70211 86.238991 35.578486 
Q 84.752752 37.454862 84.752752 39.609908 
Q 84.752752 42.619541 86.684862 44.570229 
Q 88.616972 46.520917 91.663761 46.520917 
Q 93.818807 46.818165 95.342202 44.29156 
" clip-path="url(#padbe8a546d)" style="fill: none; stroke: #000000; stroke-linejoin: miter"/>
   </g>
  </g>
  <g id="axes_7">
   <g id="patch_7">
    <path d="M 101.813462 32.783338 
Q 102.338317 34.507862 102.469531 36.457324 
Q 102.600745 38.406786 102.525766 40.956083 
Q 102.450786 43.505379 102.488276 44.705048 
L 102.600745 46.054676 
L 102.600745 45.829738 
Q 102.600745 44.667559 102.319572 42.30571 
Q 102.0384 39.943862 102.0384 38.744193 
Q 102.0384 36.419834 103.050621 34.882759 
Q 104.062841 33.345683 106.087283 33.345683 
Q 106.799586 33.345683 107.136993 33.626855 
Q 107.4744 33.908028 107.736828 34.432883 
Q 107.999255 34.957738 108.336662 35.257655 
L 108.786538 36.832221 
" clip-path="url(#pcc89714226)" style="fill: none; stroke: #000000; stroke-linejoin: miter"/>
   </g>
  </g>
  <g id="axes_8">
   <g id="patch_8">
    <path d="M 115.257798 38.160826 
Q 118.230275 39.535596 122.949083 39.721376 
Q 124.472477 39.721376 125.159862 38.550963 
Q 125.847248 37.38055 125.847248 35.82 
Q 125.847248 35.299817 125.754358 34.909679 
Q 125.661468 34.519541 125.419954 34.296606 
Q 125.17844 34.07367 125.011239 33.943624 
Q 124.844037 33.813578 124.398165 33.757844 
Q 123.952294 33.70211 123.747936 33.683532 
Q 123.543578 33.664954 122.967661 33.683532 
Q 122.391743 33.70211 122.168807 33.70211 
Q 120.125229 33.70211 118.638991 35.578486 
Q 117.152752 37.454862 117.152752 39.609908 
Q 117.152752 42.619541 119.084862 44.570229 
Q 121.016972 46.520917 124.063761 46.520917 
Q 126.218807 46.818165 127.742202 44.29156 
" clip-path="url(#pc502c9a57c)" style="fill: none; stroke: #000000; stroke-linejoin: miter"/>
   </g>
  </g>
  <g id="axes_9"/>
  <g id="axes_10">
   <g id="patch_9">
    <path d="M 150.357228 36.494814 
Q 151.406938 36.457324 151.594386 36.382345 
Q 155.005945 36.382345 156.786703 38.463021 
Q 158.567462 40.543697 158.567462 44.030234 
Q 158.567462 46.954428 153.956234 46.954428 
Q 153.31891 46.954428 152.77531 46.841959 
Q 152.23171 46.72949 151.594386 46.504552 
Q 150.957062 46.279614 150.469697 46.167145 
L 149.232538 44.929986 
M 150.244759 24.685572 
L 150.244759 25.810262 
Q 150.244759 28.659476 150.357228 32.258483 
Q 150.469697 35.85749 150.657145 40.150055 
Q 150.844593 44.442621 150.919572 46.392083 
" clip-path="url(#p1f8b09899d)" style="fill: none; stroke: #000000; stroke-linejoin: miter"/>
   </g>
  </g>
  <g id="axes_11">
   <g id="patch_10">
    <path d="M 163.857798 38.160826 
Q 166.830275 39.535596 171.549083 39.721376 
Q 173.072477 39.721376 173.759862 38.550963 
Q 174.447248 37.38055 174.447248 35.82 
Q 174.447248 35.299817 174.354358 34.909679 
Q 174.261468 34.519541 174.019954 34.296606 
Q 173.77844 34.07367 173.611239 33.943624 
Q 173.444037 33.813578 172.998165 33.757844 
Q 172.552294 33.70211 172.347936 33.683532 
Q 172.143578 33.664954 171.567661 33.683532 
Q 170.991743 33.70211 170.768807 33.70211 
Q 168.725229 33.70211 167.238991 35.578486 
Q 165.752752 37.454862 165.752752 39.609908 
Q 165.752752 42.619541 167.684862 44.570229 
Q 169.616972 46.520917 172.663761 46.520917 
Q 174.818807 46.818165 176.342202 44.29156 
" clip-path="url(#pe04f97d699)" style="fill: none; stroke: #000000; stroke-linejoin: miter"/>
   </g>
  </g>
  <g id="axes_12">
   <g id="patch_11">
    <path d="M 191.556735 34.365306 
Q 191.556735 34.365306 191.060816 34.365306 
Q 190.267347 34.365306 188.779592 34.067755 
Q 187.291837 33.770204 186.498367 33.770204 
Q 183.721224 33.770204 181.787143 35.224898 
Q 179.853061 36.679592 179.853061 39.423673 
Q 179.853061 40.94449 181.340816 42.399184 
Q 182.828571 43.853878 184.762653 44.663878 
Q 186.696735 45.473878 188.18449 45.473878 
Q 189.110204 45.473878 189.80449 45.110204 
Q 190.498776 44.746531 191.242653 44.118367 
Q 191.986531 43.490204 192.548571 43.192653 
L 192.746939 42.696735 
" clip-path="url(#p6b8a0ca228)" style="fill: none; stroke: #000000; stroke-linejoin: miter"/>
   </g>
  </g>
  <g id="axes_13">
   <g id="patch_12">
    <path d="M 206.496408 36.371229 
Q 205.424575 35.1769 201.902836 35.1769 
Q 200.555388 35.1769 199.866352 35.222836 
Q 199.177316 35.268771 198.289225 35.483138 
Q 197.401134 35.697505 196.972401 36.14155 
Q 196.543667 36.585595 196.237429 37.412439 
Q 195.931191 38.239282 195.931191 39.494858 
Q 195.931191 41.332287 197.186767 42.434745 
Q 198.442344 43.537202 200.157278 43.537202 
Q 202.515312 43.537202 204.965217 38.392401 
Q 206.159546 35.850624 206.159546 35.82 
Q 206.465784 35.605633 206.496408 36.371229 
Q 206.496408 37.320567 206.863894 39.847032 
Q 207.23138 42.373497 207.23138 43.537202 
M 209.068809 44.731531 
" clip-path="url(#pd0f35f3fca)" style="fill: none; stroke: #000000; stroke-linejoin: miter"/>
   </g>
  </g>
  <g id="axes_14">
   <g id="patch_13">
    <path d="M 214.088772 35.145186 
Q 214.088772 35.145186 214.088772 35.595062 
Q 214.088772 36.269876 213.976303 37.619503 
Q 213.863834 38.969131 213.863834 39.643945 
Q 213.863834 41.930814 215.100993 43.599103 
Q 216.338152 45.267393 218.475062 45.267393 
Q 219.862179 45.154924 220.630717 43.917766 
Q 221.399255 42.680607 221.549214 41.237255 
Q 221.699172 39.793903 221.9616 37.9944 
Q 222.224028 36.194897 222.636414 35.370124 
Q 222.786372 35.070207 222.786372 35.670041 
Q 222.786372 36.269876 222.523945 38.706703 
Q 222.299007 41.031062 222.299007 41.555917 
Q 222.149048 42.643117 222.486455 43.767807 
Q 222.823862 44.892497 223.536166 45.6048 
" clip-path="url(#pcdd24ab5cf)" style="fill: none; stroke: #000000; stroke-linejoin: miter"/>
   </g>
  </g>
  <g id="axes_15">
   <g id="patch_14">
    <path d="M 230.457476 43.917766 
Q 230.757393 44.180193 231.769614 45.154924 
Q 232.781834 46.129655 233.344179 46.560786 
Q 233.906524 46.991917 234.93749 47.385559 
Q 235.968455 47.7792 236.980676 47.629241 
Q 237.65549 47.629241 238.12411 47.404303 
Q 238.592731 47.179366 238.817669 46.879448 
Q 239.042607 46.579531 239.173821 45.979697 
Q 239.305034 45.379862 239.323779 44.967476 
Q 239.342524 44.55509 239.342524 43.805297 
Q 239.342524 42.718097 238.442772 42.043283 
Q 237.543021 41.368469 236.249628 41.031062 
Q 234.956234 40.693655 233.662841 40.300014 
Q 232.369448 39.906372 231.469697 38.987876 
Q 230.569945 38.069379 230.569945 36.607283 
Q 230.569945 36.082428 230.738648 35.726276 
Q 230.907352 35.370124 231.300993 35.145186 
Q 231.694634 34.920248 231.975807 34.807779 
Q 232.256979 34.69531 232.913048 34.639076 
Q 233.569117 34.582841 233.756566 34.582841 
Q 233.944014 34.582841 234.618828 34.582841 
Q 235.818497 34.582841 236.399586 34.995228 
Q 236.980676 35.407614 237.299338 36.026193 
Q 237.618 36.644772 237.880428 36.832221 
" clip-path="url(#paa74fd785e)" style="fill: none; stroke: #000000; stroke-linejoin: miter"/>
   </g>
  </g>
  <g id="axes_16">
   <g id="patch_15">
    <path d="M 244.857798 38.160826 
Q 247.830275 39.535596 252.549083 39.721376 
Q 254.072477 39.721376 254.759862 38.550963 
Q 255.447248 37.38055 255.447248 35.82 
Q 255.447248 35.299817 255.354358 34.909679 
Q 255.261468 34.519541 255.019954 34.296606 
Q 254.77844 34.07367 254.611239 33.943624 
Q 254.444037 33.813578 253.998165 33.757844 
Q 253.552294 33.70211 253.347936 33.683532 
Q 253.143578 33.664954 252.567661 33.683532 
Q 251.991743 33.70211 251.768807 33.70211 
Q 249.725229 33.70211 248.238991 35.578486 
Q 246.752752 37.454862 246.752752 39.609908 
Q 246.752752 42.619541 248.684862 44.570229 
Q 250.616972 46.520917 253.663761 46.520917 
Q 255.818807 46.818165 257.342202 44.29156 
" clip-path="url(#p622532fefb)" style="fill: none; stroke: #000000; stroke-linejoin: miter"/>
   </g>
  </g>
 </g>
 <defs>
  <clipPath id="p0cc6a2a804">
   <rect x="0" y="16.753442" width="16.2" height="38.133117"/>
  </clipPath>
  <clipPath id="p5a1035e72c">
   <rect x="22.275559" y="8.64" width="4.048883" height="54.36"/>
  </clipPath>
  <clipPath id="p16083cbe28">
   <rect x="32.4" y="9.603482" width="16.2" height="52.433036"/>
  </clipPath>
  <clipPath id="p3e8627ae1e">
   <rect x="67.538979" y="8.64" width="10.722041" height="54.36"/>
  </clipPath>
  <clipPath id="padbe8a546d">
   <rect x="81" y="8.881927" width="16.2" height="53.876147"/>
  </clipPath>
  <clipPath id="pcc89714226">
   <rect x="99.938979" y="8.64" width="10.722041" height="54.36"/>
  </clipPath>
  <clipPath id="pc502c9a57c">
   <rect x="113.4" y="8.881927" width="16.2" height="53.876147"/>
  </clipPath>
  <clipPath id="p1f8b09899d">
   <rect x="147.358055" y="8.64" width="13.08389" height="54.36"/>
  </clipPath>
  <clipPath id="pe04f97d699">
   <rect x="162" y="8.881927" width="16.2" height="53.876147"/>
  </clipPath>
  <clipPath id="p6b8a0ca228">
   <rect x="178.2" y="11.850612" width="16.2" height="47.938776"/>
  </clipPath>
  <clipPath id="pd0f35f3fca">
   <rect x="194.4" y="13.617732" width="16.2" height="44.404537"/>
  </clipPath>
  <clipPath id="pcdd24ab5cf">
   <rect x="211.989352" y="8.64" width="13.421297" height="54.36"/>
  </clipPath>
  <clipPath id="paa74fd785e">
   <rect x="228.582993" y="8.64" width="12.634014" height="54.36"/>
  </clipPath>
  <clipPath id="p622532fefb">
   <rect x="243" y="8.881927" width="16.2" height="53.876147"/>
  </clipPath>
 </defs>
</svg>
