<?xml version="1.0" encoding="utf-8" standalone="no"?>
<!DOCTYPE svg PUBLIC "-//W3C//DTD SVG 1.1//EN"
  "http://www.w3.org/Graphics/SVG/1.1/DTD/svg11.dtd">
<svg xmlns:xlink="http://www.w3.org/1999/xlink" width="324pt" height="72pt" viewBox="0 0 324 72" xmlns="http://www.w3.org/2000/svg" version="1.1">
 <metadata>
  <rdf:RDF xmlns:dc="http://purl.org/dc/elements/1.1/" xmlns:cc="http://creativecommons.org/ns#" xmlns:rdf="http://www.w3.org/1999/02/22-rdf-syntax-ns#">
   <cc:Work>
    <dc:type rdf:resource="http://purl.org/dc/dcmitype/StillImage"/>
    <dc:date>2023-01-08T20:20:39.732880</dc:date>
    <dc:format>image/svg+xml</dc:format>
    <dc:creator>
     <cc:Agent>
      <dc:title>Matplotlib v3.6.1, https://matplotlib.org/</dc:title>
     </cc:Agent>
    </dc:creator>
   </cc:Work>
  </rdf:RDF>
 </metadata>
 <defs>
  <style type="text/css">*{stroke-linejoin: round; stroke-linecap: butt}</style>
 </defs>
 <g id="figure_1">
  <g id="patch_1">
   <path d="M 0 72 
L 324 72 
L 324 0 
L 0 0 
z
" style="fill: #8fff9f"/>
  </g>
  <g id="axes_1">
   <g id="patch_2">
    <path d="M 1.314935 42.420974 
L 14.885065 42.420974 
M 2.656169 29.219026 
L 13.543831 29.14013 
M 7.547727 29.53461 
L 7.547727 29.929091 
Q 7.547727 31.454416 7.639773 33.203279 
Q 7.731818 34.952143 7.88961 37.121786 
Q 8.047403 39.291429 8.1 40.422273 
L 8.257792 42.236883 
" clip-path="url(#p30c09374d8)" style="fill: none; stroke: #000000; stroke-linejoin: miter"/>
   </g>
  </g>
  <g id="axes_2">
   <g id="patch_3">
    <path d="M 24.225021 26.147669 
Q 24.187531 26.597545 24.225021 27.384828 
Q 24.26251 27.572276 24.206276 27.965917 
Q 24.150041 28.359559 24.187531 28.678221 
Q 24.225021 28.996883 24.449959 29.184331 
" clip-path="url(#p5866d379cf)" style="fill: none; stroke: #000000; stroke-linejoin: miter"/>
   </g>
  </g>
  <g id="axes_3">
   <g id="patch_4">
    <path d="M 34.208036 34.879821 
Q 34.714286 36.109286 34.967411 42.256607 
Q 35.148214 46.632054 35.4375 46.632054 
L 35.509821 46.595893 
Q 36.016071 46.017321 36.070312 44.588973 
Q 36.124554 43.160625 35.907589 41.750357 
Q 35.690625 40.340089 35.4375 38.712857 
Q 35.184375 37.085625 35.184375 36.398571 
Q 35.184375 35.169107 35.564062 33.939643 
Q 35.94375 32.710179 36.920089 32.710179 
Q 38.149554 32.710179 38.872768 34.355491 
Q 39.595982 36.000804 39.758705 37.971563 
Q 39.921429 39.942321 40.029911 41.587634 
Q 40.138393 43.232946 40.283036 43.232946 
Q 40.427679 43.232946 40.51808 41.497232 
Q 40.608482 39.761518 40.735045 37.700357 
Q 40.861607 35.639196 41.584821 33.903482 
Q 42.308036 32.167768 43.5375 32.167768 
Q 45.092411 33.035625 45.761384 34.771339 
Q 46.430357 36.507054 46.394196 38.188527 
Q 46.358036 39.87 46.376116 42.057723 
Q 46.394196 44.245446 46.791964 45.511071 
" clip-path="url(#p18feaceba8)" style="fill: none; stroke: #000000; stroke-linejoin: miter"/>
   </g>
  </g>
  <g id="axes_4"/>
  <g id="axes_5">
   <g id="patch_5">
    <path d="M 66.584141 38.85304 
L 67.012335 38.85304 
Q 67.83304 38.85304 68.796476 38.745991 
Q 69.759912 38.638943 70.919604 38.460529 
Q 72.079295 38.282115 72.685903 38.210749 
L 79.215859 35.427489 
M 78.894714 25.793128 
Q 78.609251 25.721762 77.574449 25.275727 
Q 76.539648 24.829692 75.897357 24.93674 
Q 75.255066 24.93674 74.737665 25.150837 
Q 74.220264 25.364934 73.881278 25.793128 
Q 73.542291 26.221322 73.27467 26.685198 
Q 73.007048 27.149075 72.864317 27.862731 
Q 72.721586 28.576388 72.614537 29.129471 
Q 72.507489 29.682555 72.489648 30.50326 
Q 72.471806 31.323965 72.453965 31.77 
Q 72.436123 32.216035 72.453965 32.965374 
Q 72.471806 33.714714 72.471806 33.928811 
Q 72.471806 36.605022 73.167621 41.850396 
Q 73.863436 47.095771 73.863436 49.771982 
Q 73.79207 50.057445 73.756388 50.681894 
Q 73.720705 51.306344 73.613656 51.805903 
Q 73.506608 52.305463 73.221145 52.555242 
" clip-path="url(#p5e8f9dae0d)" style="fill: none; stroke: #000000; stroke-linejoin: miter"/>
   </g>
  </g>
  <g id="axes_6">
   <g id="patch_6">
    <path d="M 85.613462 32.783338 
Q 86.138317 34.507862 86.269531 36.457324 
Q 86.400745 38.406786 86.325766 40.956083 
Q 86.250786 43.505379 86.288276 44.705048 
L 86.400745 46.054676 
L 86.400745 45.829738 
Q 86.400745 44.667559 86.119572 42.30571 
Q 85.8384 39.943862 85.8384 38.744193 
Q 85.8384 36.419834 86.850621 34.882759 
Q 87.862841 33.345683 89.887283 33.345683 
Q 90.599586 33.345683 90.936993 33.626855 
Q 91.2744 33.908028 91.536828 34.432883 
Q 91.799255 34.957738 92.136662 35.257655 
L 92.586538 36.832221 
" clip-path="url(#pfc5c3a4b9d)" style="fill: none; stroke: #000000; stroke-linejoin: miter"/>
   </g>
  </g>
  <g id="axes_7">
   <g id="patch_7">
    <path d="M 108.5616 35.032717 
Q 107.51189 34.582841 106.537159 34.69531 
Q 103.500497 35.032717 101.588524 36.701007 
Q 99.676552 38.369297 99.676552 41.330979 
Q 99.676552 43.917766 101.682248 45.6048 
Q 103.687945 47.291834 106.312221 47.291834 
Q 108.674069 47.291834 109.798759 45.361117 
Q 110.923448 43.4304 110.923448 40.881103 
Q 110.923448 39.643945 110.511062 38.706703 
Q 110.098676 37.769462 109.573821 37.300841 
Q 109.048966 36.832221 108.299172 36.119917 
Q 107.549379 35.407614 107.099503 34.69531 
L 105.862345 34.245434 
" clip-path="url(#p73b5bddf18)" style="fill: none; stroke: #000000; stroke-linejoin: miter"/>
   </g>
  </g>
  <g id="axes_8">
   <g id="patch_8">
    <path d="M 115.208036 34.879821 
Q 115.714286 36.109286 115.967411 42.256607 
Q 116.148214 46.632054 116.4375 46.632054 
L 116.509821 46.595893 
Q 117.016071 46.017321 117.070312 44.588973 
Q 117.124554 43.160625 116.907589 41.750357 
Q 116.690625 40.340089 116.4375 38.712857 
Q 116.184375 37.085625 116.184375 36.398571 
Q 116.184375 35.169107 116.564062 33.939643 
Q 116.94375 32.710179 117.920089 32.710179 
Q 119.149554 32.710179 119.872768 34.355491 
Q 120.595982 36.000804 120.758705 37.971562 
Q 120.921429 39.942321 121.029911 41.587634 
Q 121.138393 43.232946 121.283036 43.232946 
Q 121.427679 43.232946 121.51808 41.497232 
Q 121.608482 39.761518 121.735045 37.700357 
Q 121.861607 35.639196 122.584821 33.903482 
Q 123.308036 32.167768 124.5375 32.167768 
Q 126.092411 33.035625 126.761384 34.771339 
Q 127.430357 36.507054 127.394196 38.188527 
Q 127.358036 39.87 127.376116 42.057723 
Q 127.394196 44.245446 127.791964 45.511071 
" clip-path="url(#p66fb782d55)" style="fill: none; stroke: #000000; stroke-linejoin: miter"/>
   </g>
  </g>
  <g id="axes_9"/>
  <g id="axes_10">
   <g id="patch_9">
    <path d="M 147.339924 40.439772 
Q 152.236882 46.999848 157.780608 46.168289 
Q 159.104943 46.168289 159.78251 45.382928 
Q 160.460076 44.597567 160.460076 43.30403 
Q 160.460076 41.979696 159.828707 40.947947 
Q 159.197338 39.916198 158.196388 39.238631 
Q 157.195437 38.561065 155.994297 37.975894 
Q 154.793156 37.390722 153.576616 36.820951 
Q 152.360076 36.251179 151.359125 35.589011 
Q 150.358175 34.926844 149.726806 33.895095 
Q 149.095437 32.863346 149.095437 31.56981 
Q 149.095437 29.906692 151.574715 28.382167 
Q 154.053992 26.857643 155.840304 26.857643 
Q 156.918251 26.796046 157.472624 27.627605 
Q 158.026996 28.459163 158.011597 29.490913 
Q 157.996198 30.522662 157.965399 31.385019 
" clip-path="url(#p9261f9c38f)" style="fill: none; stroke: #000000; stroke-linejoin: miter"/>
   </g>
  </g>
  <g id="axes_11">
   <g id="patch_10">
    <path d="M 166.613462 35.932469 
Q 167.213297 35.257655 168.206772 34.826524 
Q 169.200248 34.395393 170.1 34.470372 
Q 170.737324 34.470372 171.22469 34.639076 
Q 171.712055 34.807779 172.030717 34.995228 
Q 172.349379 35.182676 172.574317 35.670041 
Q 172.799255 36.157407 172.911724 36.419834 
Q 173.024193 36.682262 173.080428 37.375821 
Q 173.136662 38.069379 173.155407 38.331807 
Q 173.174152 38.594234 173.155407 39.419007 
Q 173.136662 40.243779 173.136662 40.431228 
Q 173.136662 41.368469 172.967959 43.242952 
Q 172.799255 45.117434 172.799255 46.054676 
Q 172.799255 46.467062 172.85549 46.823214 
Q 172.911724 47.179366 173.005448 47.610497 
Q 173.099172 48.041628 173.136662 48.304055 
L 173.586538 48.528993 
M 167.063338 23.111007 
Q 167.288276 24.798041 167.288276 29.971614 
L 167.288276 42.3432 
L 166.950869 46.841959 
L 166.725931 47.74171 
" clip-path="url(#p43a564023e)" style="fill: none; stroke: #000000; stroke-linejoin: miter"/>
   </g>
  </g>
  <g id="axes_12">
   <g id="patch_11">
    <path d="M 190.296408 36.371229 
Q 189.224575 35.1769 185.702836 35.1769 
Q 184.355388 35.1769 183.666352 35.222836 
Q 182.977316 35.268771 182.089225 35.483138 
Q 181.201134 35.697505 180.772401 36.14155 
Q 180.343667 36.585595 180.037429 37.412439 
Q 179.731191 38.239282 179.731191 39.494858 
Q 179.731191 41.332287 180.986767 42.434745 
Q 182.242344 43.537202 183.957278 43.537202 
Q 186.315312 43.537202 188.765217 38.392401 
Q 189.959546 35.850624 189.959546 35.82 
Q 190.265784 35.605633 190.296408 36.371229 
Q 190.296408 37.320567 190.663894 39.847032 
Q 191.03138 42.373497 191.03138 43.537202 
M 192.868809 44.731531 
" clip-path="url(#pfca0b5b068)" style="fill: none; stroke: #000000; stroke-linejoin: miter"/>
   </g>
  </g>
  <g id="axes_13">
   <g id="patch_12">
    <path d="M 197.663834 32.783338 
L 197.663834 33.345683 
Q 198.526097 39.718924 198.563586 47.066897 
Q 198.563586 47.81669 198.488607 47.029407 
Q 198.038731 42.080772 197.888772 35.82 
L 197.888772 35.145186 
Q 197.888772 33.6456 199.482083 33.008276 
Q 201.075393 32.370952 202.5 32.783338 
Q 204.037076 33.233214 205.011807 34.414138 
Q 205.986538 35.595062 206.361434 37.282097 
Q 206.736331 38.969131 206.867545 40.543697 
Q 206.998759 42.118262 207.073738 44.067724 
Q 207.148717 46.017186 207.336166 47.066897 
" clip-path="url(#p99d2d37980)" style="fill: none; stroke: #000000; stroke-linejoin: miter"/>
   </g>
  </g>
  <g id="axes_14">
   <g id="patch_13">
    <path d="M 224.31018 35.173293 
Q 224.083832 35.108623 223.226946 34.752934 
Q 222.37006 34.397246 221.788024 34.267904 
Q 221.205988 34.138563 220.623952 34.203234 
Q 218.295808 34.203234 216.840719 36.321198 
Q 215.385629 38.439162 215.385629 40.799641 
Q 215.385629 42.254731 220.041916 42.254731 
Q 221.432335 42.254731 222.612575 40.912814 
Q 223.792814 39.570898 224.391018 37.905629 
Q 224.989222 36.240359 224.989222 34.882275 
Q 224.989222 33.556527 224.956886 33.297844 
L 224.892216 34.267904 
Q 224.892216 34.688263 224.892216 35.076287 
Q 225.183234 42.287066 224.85988 45.64994 
Q 223.760479 57.969701 215.676647 57.969701 
Q 214.221557 57.969701 213.251497 57.306826 
Q 212.281437 56.643952 212.281437 55.253533 
Q 212.216766 55.059521 212.249102 55.059521 
Q 212.281437 55.059521 212.378443 55.059521 
Q 212.475449 55.059521 212.475449 54.962515 
" clip-path="url(#pc24aba931b)" style="fill: none; stroke: #000000; stroke-linejoin: miter"/>
   </g>
  </g>
  <g id="axes_15">
   <g id="patch_14">
    <path d="M 231.413462 35.932469 
Q 232.013297 35.257655 233.006772 34.826524 
Q 234.000248 34.395393 234.9 34.470372 
Q 235.537324 34.470372 236.02469 34.639076 
Q 236.512055 34.807779 236.830717 34.995228 
Q 237.149379 35.182676 237.374317 35.670041 
Q 237.599255 36.157407 237.711724 36.419834 
Q 237.824193 36.682262 237.880428 37.375821 
Q 237.936662 38.069379 237.955407 38.331807 
Q 237.974152 38.594234 237.955407 39.419007 
Q 237.936662 40.243779 237.936662 40.431228 
Q 237.936662 41.368469 237.767959 43.242952 
Q 237.599255 45.117434 237.599255 46.054676 
Q 237.599255 46.467062 237.65549 46.823214 
Q 237.711724 47.179366 237.805448 47.610497 
Q 237.899172 48.041628 237.936662 48.304055 
L 238.386538 48.528993 
M 231.863338 23.111007 
Q 232.088276 24.798041 232.088276 29.971614 
L 232.088276 42.3432 
L 231.750869 46.841959 
L 231.525931 47.74171 
" clip-path="url(#p3e84db0bc7)" style="fill: none; stroke: #000000; stroke-linejoin: miter"/>
   </g>
  </g>
  <g id="axes_16">
   <g id="patch_15">
    <path d="M 255.096408 36.371229 
Q 254.024575 35.1769 250.502836 35.1769 
Q 249.155388 35.1769 248.466352 35.222836 
Q 247.777316 35.268771 246.889225 35.483138 
Q 246.001134 35.697505 245.572401 36.14155 
Q 245.143667 36.585595 244.837429 37.412439 
Q 244.531191 38.239282 244.531191 39.494858 
Q 244.531191 41.332287 245.786767 42.434745 
Q 247.042344 43.537202 248.757278 43.537202 
Q 251.115312 43.537202 253.565217 38.392401 
Q 254.759546 35.850624 254.759546 35.82 
Q 255.065784 35.605633 255.096408 36.371229 
Q 255.096408 37.320567 255.463894 39.847032 
Q 255.83138 42.373497 255.83138 43.537202 
M 257.668809 44.731531 
" clip-path="url(#pba39676581)" style="fill: none; stroke: #000000; stroke-linejoin: miter"/>
   </g>
  </g>
  <g id="axes_17">
   <g id="patch_16">
    <path d="M 267.918579 29.071862 
Q 267.543683 29.146841 267.412469 29.577972 
Q 267.281255 30.009103 267.356234 30.42149 
Q 267.356234 30.571448 267.393724 30.702662 
Q 267.431214 30.833876 267.487448 30.89011 
Q 267.543683 30.946345 267.599917 31.040069 
Q 267.656152 31.133793 267.693641 31.208772 
L 267.80611 29.859145 
M 267.80611 34.020497 
Q 266.906359 39.006621 266.681421 42.793076 
L 267.131297 45.379862 
L 267.468703 46.054676 
" clip-path="url(#pb9c0f52c02)" style="fill: none; stroke: #000000; stroke-linejoin: miter"/>
   </g>
  </g>
  <g id="axes_18">
   <g id="patch_17">
    <path d="M 283.425021 46.054676 
Q 283.425021 46.092166 283.350041 46.092166 
Q 283.275062 46.129655 283.275062 46.167145 
Q 283.275062 46.392083 283.5 46.392083 
Q 283.687448 46.392083 283.687448 46.129655 
Q 283.724938 46.017186 283.574979 45.942207 
Q 283.425021 45.867228 283.312552 45.942207 
" clip-path="url(#p7be4824127)" style="fill: none; stroke: #000000; stroke-linejoin: miter"/>
   </g>
  </g>
 </g>
 <defs>
  <clipPath id="p30c09374d8">
   <rect x="0" y="16.753442" width="16.2" height="38.133117"/>
  </clipPath>
  <clipPath id="p5866d379cf">
   <rect x="22.275559" y="8.64" width="4.048883" height="54.36"/>
  </clipPath>
  <clipPath id="p18feaceba8">
   <rect x="32.4" y="9.603482" width="16.2" height="52.433036"/>
  </clipPath>
  <clipPath id="p5e8f9dae0d">
   <rect x="64.8" y="9.949956" width="16.2" height="51.740088"/>
  </clipPath>
  <clipPath id="pfc5c3a4b9d">
   <rect x="83.738979" y="8.64" width="10.722041" height="54.36"/>
  </clipPath>
  <clipPath id="p73b5bddf18">
   <rect x="97.802069" y="8.64" width="14.995862" height="54.36"/>
  </clipPath>
  <clipPath id="p66fb782d55">
   <rect x="113.4" y="9.603482" width="16.2" height="52.433036"/>
  </clipPath>
  <clipPath id="p9261f9c38f">
   <rect x="145.8" y="13.491103" width="16.2" height="44.657795"/>
  </clipPath>
  <clipPath id="p43a564023e">
   <rect x="164.738979" y="8.64" width="10.722041" height="54.36"/>
  </clipPath>
  <clipPath id="pfca0b5b068">
   <rect x="178.2" y="13.617732" width="16.2" height="44.404537"/>
  </clipPath>
  <clipPath id="p99d2d37980">
   <rect x="195.789352" y="8.64" width="13.421297" height="54.36"/>
  </clipPath>
  <clipPath id="pc24aba931b">
   <rect x="210.6" y="12.376886" width="16.2" height="46.886228"/>
  </clipPath>
  <clipPath id="p3e84db0bc7">
   <rect x="229.538979" y="8.64" width="10.722041" height="54.36"/>
  </clipPath>
  <clipPath id="pba39676581">
   <rect x="243" y="13.617732" width="16.2" height="44.404537"/>
  </clipPath>
  <clipPath id="pb9c0f52c02">
   <rect x="264.806938" y="8.64" width="4.986124" height="54.36"/>
  </clipPath>
  <clipPath id="p7be4824127">
   <rect x="281.400579" y="8.64" width="4.198841" height="54.36"/>
  </clipPath>
 </defs>
</svg>
