<?xml version="1.0" encoding="utf-8" standalone="no"?>
<!DOCTYPE svg PUBLIC "-//W3C//DTD SVG 1.1//EN"
  "http://www.w3.org/Graphics/SVG/1.1/DTD/svg11.dtd">
<svg xmlns:xlink="http://www.w3.org/1999/xlink" width="432pt" height="72pt" viewBox="0 0 432 72" xmlns="http://www.w3.org/2000/svg" version="1.1">
 <metadata>
  <rdf:RDF xmlns:dc="http://purl.org/dc/elements/1.1/" xmlns:cc="http://creativecommons.org/ns#" xmlns:rdf="http://www.w3.org/1999/02/22-rdf-syntax-ns#">
   <cc:Work>
    <dc:type rdf:resource="http://purl.org/dc/dcmitype/StillImage"/>
    <dc:date>2023-01-08T20:20:18.401489</dc:date>
    <dc:format>image/svg+xml</dc:format>
    <dc:creator>
     <cc:Agent>
      <dc:title>Matplotlib v3.6.1, https://matplotlib.org/</dc:title>
     </cc:Agent>
    </dc:creator>
   </cc:Work>
  </rdf:RDF>
 </metadata>
 <defs>
  <style type="text/css">*{stroke-linejoin: round; stroke-linecap: butt}</style>
 </defs>
 <g id="figure_1">
  <g id="patch_1">
   <path d="M 0 72 
L 432 72 
L 432 0 
L 0 0 
z
" style="fill: #8fff9f"/>
  </g>
  <g id="axes_1">
   <g id="patch_2">
    <path d="M 3.263834 37.95691 
L 3.938648 37.95691 
Q 4.650952 37.95691 5.438234 37.881931 
Q 6.225517 37.806952 7.181503 37.675738 
Q 8.13749 37.544524 8.662345 37.507034 
L 12.936166 35.82 
M 8.887283 30.42149 
L 8.887283 31.43371 
Q 8.887283 33.383172 8.212469 37.207117 
Q 7.537655 41.031062 7.537655 43.018014 
Q 7.537655 43.805297 7.537655 44.105214 
Q 7.537655 44.405131 7.631379 45.042455 
Q 7.725103 45.679779 7.912552 45.960952 
Q 8.1 46.242124 8.493641 46.485807 
Q 8.887283 46.72949 9.449628 46.72949 
Q 9.562097 46.692 9.880759 46.72949 
Q 10.199421 46.766979 10.386869 46.710745 
Q 10.574317 46.65451 10.574317 46.392083 
" clip-path="url(#p3410f7a9cf)" style="fill: none; stroke: #000000; stroke-linejoin: miter"/>
   </g>
  </g>
  <g id="axes_2">
   <g id="patch_3">
    <path d="M 20.813462 35.932469 
Q 21.413297 35.257655 22.406772 34.826524 
Q 23.400248 34.395393 24.3 34.470372 
Q 24.937324 34.470372 25.42469 34.639076 
Q 25.912055 34.807779 26.230717 34.995228 
Q 26.549379 35.182676 26.774317 35.670041 
Q 26.999255 36.157407 27.111724 36.419834 
Q 27.224193 36.682262 27.280428 37.375821 
Q 27.336662 38.069379 27.355407 38.331807 
Q 27.374152 38.594234 27.355407 39.419007 
Q 27.336662 40.243779 27.336662 40.431228 
Q 27.336662 41.368469 27.167959 43.242952 
Q 26.999255 45.117434 26.999255 46.054676 
Q 26.999255 46.467062 27.05549 46.823214 
Q 27.111724 47.179366 27.205448 47.610497 
Q 27.299172 48.041628 27.336662 48.304055 
L 27.786538 48.528993 
M 21.263338 23.111007 
Q 21.488276 24.798041 21.488276 29.971614 
L 21.488276 42.3432 
L 21.150869 46.841959 
L 20.925931 47.74171 
" clip-path="url(#p4ff9f2026d)" style="fill: none; stroke: #000000; stroke-linejoin: miter"/>
   </g>
  </g>
  <g id="axes_3">
   <g id="patch_4">
    <path d="M 41.118579 29.071862 
Q 40.743683 29.146841 40.612469 29.577972 
Q 40.481255 30.009103 40.556234 30.42149 
Q 40.556234 30.571448 40.593724 30.702662 
Q 40.631214 30.833876 40.687448 30.89011 
Q 40.743683 30.946345 40.799917 31.040069 
Q 40.856152 31.133793 40.893641 31.208772 
L 41.00611 29.859145 
M 41.00611 34.020497 
Q 40.106359 39.006621 39.881421 42.793076 
L 40.331297 45.379862 
L 40.668703 46.054676 
" clip-path="url(#p67f910f344)" style="fill: none; stroke: #000000; stroke-linejoin: miter"/>
   </g>
  </g>
  <g id="axes_4">
   <g id="patch_5">
    <path d="M 52.257476 43.917766 
Q 52.557393 44.180193 53.569614 45.154924 
Q 54.581834 46.129655 55.144179 46.560786 
Q 55.706524 46.991917 56.73749 47.385559 
Q 57.768455 47.7792 58.780676 47.629241 
Q 59.45549 47.629241 59.92411 47.404303 
Q 60.392731 47.179366 60.617669 46.879448 
Q 60.842607 46.579531 60.973821 45.979697 
Q 61.105034 45.379862 61.123779 44.967476 
Q 61.142524 44.55509 61.142524 43.805297 
Q 61.142524 42.718097 60.242772 42.043283 
Q 59.343021 41.368469 58.049628 41.031062 
Q 56.756234 40.693655 55.462841 40.300014 
Q 54.169448 39.906372 53.269697 38.987876 
Q 52.369945 38.069379 52.369945 36.607283 
Q 52.369945 36.082428 52.538648 35.726276 
Q 52.707352 35.370124 53.100993 35.145186 
Q 53.494634 34.920248 53.775807 34.807779 
Q 54.056979 34.69531 54.713048 34.639076 
Q 55.369117 34.582841 55.556566 34.582841 
Q 55.744014 34.582841 56.418828 34.582841 
Q 57.618497 34.582841 58.199586 34.995228 
Q 58.780676 35.407614 59.099338 36.026193 
Q 59.418 36.644772 59.680428 36.832221 
" clip-path="url(#p86186f1ff6)" style="fill: none; stroke: #000000; stroke-linejoin: miter"/>
   </g>
  </g>
  <g id="axes_5"/>
  <g id="axes_6">
   <g id="patch_6">
    <path d="M 89.718579 29.071862 
Q 89.343683 29.146841 89.212469 29.577972 
Q 89.081255 30.009103 89.156234 30.42149 
Q 89.156234 30.571448 89.193724 30.702662 
Q 89.231214 30.833876 89.287448 30.89011 
Q 89.343683 30.946345 89.399917 31.040069 
Q 89.456152 31.133793 89.493641 31.208772 
L 89.60611 29.859145 
M 89.60611 34.020497 
Q 88.706359 39.006621 88.481421 42.793076 
L 88.931297 45.379862 
L 89.268703 46.054676 
" clip-path="url(#pb7b069b63d)" style="fill: none; stroke: #000000; stroke-linejoin: miter"/>
   </g>
  </g>
  <g id="axes_7">
   <g id="patch_7">
    <path d="M 100.857476 43.917766 
Q 101.157393 44.180193 102.169614 45.154924 
Q 103.181834 46.129655 103.744179 46.560786 
Q 104.306524 46.991917 105.33749 47.385559 
Q 106.368455 47.7792 107.380676 47.629241 
Q 108.05549 47.629241 108.52411 47.404303 
Q 108.992731 47.179366 109.217669 46.879448 
Q 109.442607 46.579531 109.573821 45.979697 
Q 109.705034 45.379862 109.723779 44.967476 
Q 109.742524 44.55509 109.742524 43.805297 
Q 109.742524 42.718097 108.842772 42.043283 
Q 107.943021 41.368469 106.649628 41.031062 
Q 105.356234 40.693655 104.062841 40.300014 
Q 102.769448 39.906372 101.869697 38.987876 
Q 100.969945 38.069379 100.969945 36.607283 
Q 100.969945 36.082428 101.138648 35.726276 
Q 101.307352 35.370124 101.700993 35.145186 
Q 102.094634 34.920248 102.375807 34.807779 
Q 102.656979 34.69531 103.313048 34.639076 
Q 103.969117 34.582841 104.156566 34.582841 
Q 104.344014 34.582841 105.018828 34.582841 
Q 106.218497 34.582841 106.799586 34.995228 
Q 107.380676 35.407614 107.699338 36.026193 
Q 108.018 36.644772 108.280428 36.832221 
" clip-path="url(#pb975b669d7)" style="fill: none; stroke: #000000; stroke-linejoin: miter"/>
   </g>
  </g>
  <g id="axes_8"/>
  <g id="axes_9">
   <g id="patch_8">
    <path d="M 132.863834 37.95691 
L 133.538648 37.95691 
Q 134.250952 37.95691 135.038234 37.881931 
Q 135.825517 37.806952 136.781503 37.675738 
Q 137.73749 37.544524 138.262345 37.507034 
L 142.536166 35.82 
M 138.487283 30.42149 
L 138.487283 31.43371 
Q 138.487283 33.383172 137.812469 37.207117 
Q 137.137655 41.031062 137.137655 43.018014 
Q 137.137655 43.805297 137.137655 44.105214 
Q 137.137655 44.405131 137.231379 45.042455 
Q 137.325103 45.679779 137.512552 45.960952 
Q 137.7 46.242124 138.093641 46.485807 
Q 138.487283 46.72949 139.049628 46.72949 
Q 139.162097 46.692 139.480759 46.72949 
Q 139.799421 46.766979 139.986869 46.710745 
Q 140.174317 46.65451 140.174317 46.392083 
" clip-path="url(#p228edbdbbb)" style="fill: none; stroke: #000000; stroke-linejoin: miter"/>
   </g>
  </g>
  <g id="axes_10">
   <g id="patch_9">
    <path d="M 150.413462 35.932469 
Q 151.013297 35.257655 152.006772 34.826524 
Q 153.000248 34.395393 153.9 34.470372 
Q 154.537324 34.470372 155.02469 34.639076 
Q 155.512055 34.807779 155.830717 34.995228 
Q 156.149379 35.182676 156.374317 35.670041 
Q 156.599255 36.157407 156.711724 36.419834 
Q 156.824193 36.682262 156.880428 37.375821 
Q 156.936662 38.069379 156.955407 38.331807 
Q 156.974152 38.594234 156.955407 39.419007 
Q 156.936662 40.243779 156.936662 40.431228 
Q 156.936662 41.368469 156.767959 43.242952 
Q 156.599255 45.117434 156.599255 46.054676 
Q 156.599255 46.467062 156.65549 46.823214 
Q 156.711724 47.179366 156.805448 47.610497 
Q 156.899172 48.041628 156.936662 48.304055 
L 157.386538 48.528993 
M 150.863338 23.111007 
Q 151.088276 24.798041 151.088276 29.971614 
L 151.088276 42.3432 
L 150.750869 46.841959 
L 150.525931 47.74171 
" clip-path="url(#pbd5c540471)" style="fill: none; stroke: #000000; stroke-linejoin: miter"/>
   </g>
  </g>
  <g id="axes_11">
   <g id="patch_10">
    <path d="M 163.857798 38.160826 
Q 166.830275 39.535596 171.549083 39.721376 
Q 173.072477 39.721376 173.759862 38.550963 
Q 174.447248 37.38055 174.447248 35.82 
Q 174.447248 35.299817 174.354358 34.909679 
Q 174.261468 34.519541 174.019954 34.296606 
Q 173.77844 34.07367 173.611239 33.943624 
Q 173.444037 33.813578 172.998165 33.757844 
Q 172.552294 33.70211 172.347936 33.683532 
Q 172.143578 33.664954 171.567661 33.683532 
Q 170.991743 33.70211 170.768807 33.70211 
Q 168.725229 33.70211 167.238991 35.578486 
Q 165.752752 37.454862 165.752752 39.609908 
Q 165.752752 42.619541 167.684862 44.570229 
Q 169.616972 46.520917 172.663761 46.520917 
Q 174.818807 46.818165 176.342202 44.29156 
" clip-path="url(#p87237e884f)" style="fill: none; stroke: #000000; stroke-linejoin: miter"/>
   </g>
  </g>
  <g id="axes_12"/>
  <g id="axes_13">
   <g id="patch_11">
    <path d="M 195.789365 27.56717 
Q 196.011664 27.400446 196.803602 27.497702 
Q 197.59554 27.594957 197.873413 27.483808 
Q 200.791081 27.483808 203.389194 28.873173 
Q 205.987307 30.262539 207.598971 32.77729 
Q 209.210635 35.292041 209.210635 38.320858 
Q 209.210635 40.265969 208.001887 41.558079 
Q 206.793139 42.850189 205.181475 43.336467 
Q 203.569811 43.822744 201.708062 43.822744 
Q 201.402401 43.794957 199.957461 43.725489 
Q 198.512521 43.656021 197.637221 43.392041 
Q 196.761921 43.128062 196.289537 42.488954 
M 199.04048 27.733894 
L 199.04048 27.900617 
Q 199.04048 29.289983 198.915437 32.402161 
Q 198.790395 35.51434 198.790395 36.987067 
Q 198.790395 37.792899 198.859863 38.70988 
Q 198.929331 39.626861 199.054374 40.710566 
Q 199.179417 41.794271 199.207204 42.32223 
L 199.290566 43.322573 
" clip-path="url(#p3ba65a1686)" style="fill: none; stroke: #000000; stroke-linejoin: miter"/>
   </g>
  </g>
  <g id="axes_14">
   <g id="patch_12">
    <path d="M 214.876055 30.309021 
Q 216.48811 28.509517 219.712221 28.621986 
Q 220.574483 28.621986 221.099338 29.465503 
Q 221.624193 30.309021 221.736662 31.115048 
Q 221.849131 31.921076 221.849131 32.783338 
Q 221.849131 34.507862 221.099338 36.157407 
Q 220.349545 37.806952 219.412303 38.912897 
Q 218.475062 40.018841 217.219159 41.518428 
Q 215.963255 43.018014 215.325931 44.142703 
L 222.523945 43.917766 
" clip-path="url(#p7af9cd388f)" style="fill: none; stroke: #000000; stroke-linejoin: miter"/>
   </g>
  </g>
  <g id="axes_15">
   <g id="patch_13">
    <path d="M 231.076055 30.309021 
Q 232.68811 28.509517 235.912221 28.621986 
Q 236.774483 28.621986 237.299338 29.465503 
Q 237.824193 30.309021 237.936662 31.115048 
Q 238.049131 31.921076 238.049131 32.783338 
Q 238.049131 34.507862 237.299338 36.157407 
Q 236.549545 37.806952 235.612303 38.912897 
Q 234.675062 40.018841 233.419159 41.518428 
Q 232.163255 43.018014 231.525931 44.142703 
L 238.723945 43.917766 
" clip-path="url(#p0666dbdc11)" style="fill: none; stroke: #000000; stroke-linejoin: miter"/>
   </g>
  </g>
  <g id="axes_16">
   <g id="patch_14">
    <path d="M 247.557228 43.805297 
Q 249.4692 45.342372 251.381172 45.492331 
Q 252.318414 45.492331 252.974483 45.09869 
Q 253.630552 44.705048 253.949214 44.198938 
Q 254.267876 43.692828 254.436579 42.755586 
Q 254.605283 41.818345 254.624028 41.256 
Q 254.642772 40.693655 254.642772 39.643945 
Q 254.642772 39.419007 254.642772 39.306538 
Q 254.642772 38.181848 253.705531 37.113393 
Q 252.76829 36.044938 251.718579 36.044938 
Q 251.081255 36.044938 250.05029 36.775986 
Q 249.019324 37.507034 249.019324 38.069379 
Q 249.019324 37.582014 248.400745 34.69531 
Q 247.782166 31.808607 247.782166 30.758897 
Q 248.157062 30.683917 249.131793 30.552703 
Q 250.106524 30.42149 250.856317 30.215297 
Q 251.60611 30.009103 252.168455 29.634207 
" clip-path="url(#p58ece7c086)" style="fill: none; stroke: #000000; stroke-linejoin: miter"/>
   </g>
  </g>
  <g id="axes_17">
   <g id="patch_15">
    <path d="M 263.476055 30.309021 
Q 265.08811 28.509517 268.312221 28.621986 
Q 269.174483 28.621986 269.699338 29.465503 
Q 270.224193 30.309021 270.336662 31.115048 
Q 270.449131 31.921076 270.449131 32.783338 
Q 270.449131 34.507862 269.699338 36.157407 
Q 268.949545 37.806952 268.012303 38.912897 
Q 267.075062 40.018841 265.819159 41.518428 
Q 264.563255 43.018014 263.925931 44.142703 
L 271.123945 43.917766 
" clip-path="url(#p5fe804061c)" style="fill: none; stroke: #000000; stroke-linejoin: miter"/>
   </g>
  </g>
  <g id="axes_18"/>
  <g id="axes_19">
   <g id="patch_16">
    <path d="M 294.863834 37.95691 
L 295.538648 37.95691 
Q 296.250952 37.95691 297.038234 37.881931 
Q 297.825517 37.806952 298.781503 37.675738 
Q 299.73749 37.544524 300.262345 37.507034 
L 304.536166 35.82 
M 300.487283 30.42149 
L 300.487283 31.43371 
Q 300.487283 33.383172 299.812469 37.207117 
Q 299.137655 41.031062 299.137655 43.018014 
Q 299.137655 43.805297 299.137655 44.105214 
Q 299.137655 44.405131 299.231379 45.042455 
Q 299.325103 45.679779 299.512552 45.960952 
Q 299.7 46.242124 300.093641 46.485807 
Q 300.487283 46.72949 301.049628 46.72949 
Q 301.162097 46.692 301.480759 46.72949 
Q 301.799421 46.766979 301.986869 46.710745 
Q 302.174317 46.65451 302.174317 46.392083 
" clip-path="url(#p8854dcdeca)" style="fill: none; stroke: #000000; stroke-linejoin: miter"/>
   </g>
  </g>
  <g id="axes_20">
   <g id="patch_17">
    <path d="M 312.413462 32.783338 
Q 312.938317 34.507862 313.069531 36.457324 
Q 313.200745 38.406786 313.125766 40.956083 
Q 313.050786 43.505379 313.088276 44.705048 
L 313.200745 46.054676 
L 313.200745 45.829738 
Q 313.200745 44.667559 312.919572 42.30571 
Q 312.6384 39.943862 312.6384 38.744193 
Q 312.6384 36.419834 313.650621 34.882759 
Q 314.662841 33.345683 316.687283 33.345683 
Q 317.399586 33.345683 317.736993 33.626855 
Q 318.0744 33.908028 318.336828 34.432883 
Q 318.599255 34.957738 318.936662 35.257655 
L 319.386538 36.832221 
" clip-path="url(#p0117bda112)" style="fill: none; stroke: #000000; stroke-linejoin: miter"/>
   </g>
  </g>
  <g id="axes_21">
   <g id="patch_18">
    <path d="M 336.096408 36.371229 
Q 335.024575 35.1769 331.502836 35.1769 
Q 330.155388 35.1769 329.466352 35.222836 
Q 328.777316 35.268771 327.889225 35.483138 
Q 327.001134 35.697505 326.572401 36.14155 
Q 326.143667 36.585595 325.837429 37.412439 
Q 325.531191 38.239282 325.531191 39.494858 
Q 325.531191 41.332287 326.786767 42.434745 
Q 328.042344 43.537202 329.757278 43.537202 
Q 332.115312 43.537202 334.565217 38.392401 
Q 335.759546 35.850624 335.759546 35.82 
Q 336.065784 35.605633 336.096408 36.371229 
Q 336.096408 37.320567 336.463894 39.847032 
Q 336.83138 42.373497 336.83138 43.537202 
M 338.668809 44.731531 
" clip-path="url(#p868ac62a05)" style="fill: none; stroke: #000000; stroke-linejoin: miter"/>
   </g>
  </g>
  <g id="axes_22">
   <g id="patch_19">
    <path d="M 348.918579 29.071862 
Q 348.543683 29.146841 348.412469 29.577972 
Q 348.281255 30.009103 348.356234 30.42149 
Q 348.356234 30.571448 348.393724 30.702662 
Q 348.431214 30.833876 348.487448 30.89011 
Q 348.543683 30.946345 348.599917 31.040069 
Q 348.656152 31.133793 348.693641 31.208772 
L 348.80611 29.859145 
M 348.80611 34.020497 
Q 347.906359 39.006621 347.681421 42.793076 
L 348.131297 45.379862 
L 348.468703 46.054676 
" clip-path="url(#pbafff2f678)" style="fill: none; stroke: #000000; stroke-linejoin: miter"/>
   </g>
  </g>
  <g id="axes_23">
   <g id="patch_20">
    <path d="M 359.663834 32.783338 
L 359.663834 33.345683 
Q 360.526097 39.718924 360.563586 47.066897 
Q 360.563586 47.81669 360.488607 47.029407 
Q 360.038731 42.080772 359.888772 35.82 
L 359.888772 35.145186 
Q 359.888772 33.6456 361.482083 33.008276 
Q 363.075393 32.370952 364.5 32.783338 
Q 366.037076 33.233214 367.011807 34.414138 
Q 367.986538 35.595062 368.361434 37.282097 
Q 368.736331 38.969131 368.867545 40.543697 
Q 368.998759 42.118262 369.073738 44.067724 
Q 369.148717 46.017186 369.336166 47.066897 
" clip-path="url(#pb55781f6d4)" style="fill: none; stroke: #000000; stroke-linejoin: miter"/>
   </g>
  </g>
  <g id="axes_24">
   <g id="patch_21">
    <path d="M 380.625021 46.054676 
Q 380.625021 46.092166 380.550041 46.092166 
Q 380.475062 46.129655 380.475062 46.167145 
Q 380.475062 46.392083 380.7 46.392083 
Q 380.887448 46.392083 380.887448 46.129655 
Q 380.924938 46.017186 380.774979 45.942207 
Q 380.625021 45.867228 380.512552 45.942207 
" clip-path="url(#pa2f33f5eb5)" style="fill: none; stroke: #000000; stroke-linejoin: miter"/>
   </g>
  </g>
 </g>
 <defs>
  <clipPath id="p3410f7a9cf">
   <rect x="1.389352" y="8.64" width="13.421297" height="54.36"/>
  </clipPath>
  <clipPath id="p4ff9f2026d">
   <rect x="18.938979" y="8.64" width="10.722041" height="54.36"/>
  </clipPath>
  <clipPath id="p67f910f344">
   <rect x="38.006938" y="8.64" width="4.986124" height="54.36"/>
  </clipPath>
  <clipPath id="p86186f1ff6">
   <rect x="50.382993" y="8.64" width="12.634014" height="54.36"/>
  </clipPath>
  <clipPath id="pb7b069b63d">
   <rect x="86.606938" y="8.64" width="4.986124" height="54.36"/>
  </clipPath>
  <clipPath id="pb975b669d7">
   <rect x="98.982993" y="8.64" width="12.634014" height="54.36"/>
  </clipPath>
  <clipPath id="p228edbdbbb">
   <rect x="130.989352" y="8.64" width="13.421297" height="54.36"/>
  </clipPath>
  <clipPath id="pbd5c540471">
   <rect x="148.538979" y="8.64" width="10.722041" height="54.36"/>
  </clipPath>
  <clipPath id="p87237e884f">
   <rect x="162" y="8.881927" width="16.2" height="53.876147"/>
  </clipPath>
  <clipPath id="p3ba65a1686">
   <rect x="194.4" y="15.674202" width="16.2" height="40.291595"/>
  </clipPath>
  <clipPath id="p7af9cd388f">
   <rect x="213.001572" y="8.64" width="11.396855" height="54.36"/>
  </clipPath>
  <clipPath id="p0666dbdc11">
   <rect x="229.201572" y="8.64" width="11.396855" height="54.36"/>
  </clipPath>
  <clipPath id="p58ece7c086">
   <rect x="245.682745" y="8.64" width="10.83451" height="54.36"/>
  </clipPath>
  <clipPath id="p5fe804061c">
   <rect x="261.601572" y="8.64" width="11.396855" height="54.36"/>
  </clipPath>
  <clipPath id="p8854dcdeca">
   <rect x="292.989352" y="8.64" width="13.421297" height="54.36"/>
  </clipPath>
  <clipPath id="p0117bda112">
   <rect x="310.538979" y="8.64" width="10.722041" height="54.36"/>
  </clipPath>
  <clipPath id="p868ac62a05">
   <rect x="324" y="13.617732" width="16.2" height="44.404537"/>
  </clipPath>
  <clipPath id="pbafff2f678">
   <rect x="345.806938" y="8.64" width="4.986124" height="54.36"/>
  </clipPath>
  <clipPath id="pb55781f6d4">
   <rect x="357.789352" y="8.64" width="13.421297" height="54.36"/>
  </clipPath>
  <clipPath id="pa2f33f5eb5">
   <rect x="378.600579" y="8.64" width="4.198841" height="54.36"/>
  </clipPath>
 </defs>
</svg>
