<?xml version="1.0" encoding="utf-8" standalone="no"?>
<!DOCTYPE svg PUBLIC "-//W3C//DTD SVG 1.1//EN"
  "http://www.w3.org/Graphics/SVG/1.1/DTD/svg11.dtd">
<svg xmlns:xlink="http://www.w3.org/1999/xlink" width="414pt" height="72pt" viewBox="0 0 414 72" xmlns="http://www.w3.org/2000/svg" version="1.1">
 <metadata>
  <rdf:RDF xmlns:dc="http://purl.org/dc/elements/1.1/" xmlns:cc="http://creativecommons.org/ns#" xmlns:rdf="http://www.w3.org/1999/02/22-rdf-syntax-ns#">
   <cc:Work>
    <dc:type rdf:resource="http://purl.org/dc/dcmitype/StillImage"/>
    <dc:date>2023-01-08T20:21:43.896899</dc:date>
    <dc:format>image/svg+xml</dc:format>
    <dc:creator>
     <cc:Agent>
      <dc:title>Matplotlib v3.6.1, https://matplotlib.org/</dc:title>
     </cc:Agent>
    </dc:creator>
   </cc:Work>
  </rdf:RDF>
 </metadata>
 <defs>
  <style type="text/css">*{stroke-linejoin: round; stroke-linecap: butt}</style>
 </defs>
 <g id="figure_1">
  <g id="patch_1">
   <path d="M 0 72 
L 414 72 
L 414 0 
L 0 0 
z
" style="fill: #8fff9f"/>
  </g>
  <g id="axes_1">
   <g id="patch_2">
    <path d="M 1.087248 30.470738 
L 2.261477 30.601208 
Q 4.088054 30.601208 5.925503 30.709933 
Q 7.762953 30.818658 10.002685 30.992617 
Q 12.242416 31.166577 13.677584 31.253557 
L 15.112752 31.123087 
M 7.871678 31.057852 
Q 7.936913 31.405772 7.675973 32.177718 
Q 7.415034 32.949664 7.610738 33.406309 
Q 7.610738 34.711007 7.752081 36.363624 
Q 7.893423 38.016242 8.110872 39.973289 
Q 8.328322 41.930336 8.393557 42.800134 
" clip-path="url(#pc329bc0f19)" style="fill: none; stroke: #000000; stroke-linejoin: miter"/>
   </g>
  </g>
  <g id="axes_2">
   <g id="patch_3">
    <path d="M 24.918579 29.071862 
Q 24.543683 29.146841 24.412469 29.577972 
Q 24.281255 30.009103 24.356234 30.42149 
Q 24.356234 30.571448 24.393724 30.702662 
Q 24.431214 30.833876 24.487448 30.89011 
Q 24.543683 30.946345 24.599917 31.040069 
Q 24.656152 31.133793 24.693641 31.208772 
L 24.80611 29.859145 
M 24.80611 34.020497 
Q 23.906359 39.006621 23.681421 42.793076 
L 24.131297 45.379862 
L 24.468703 46.054676 
" clip-path="url(#pd5048acab0)" style="fill: none; stroke: #000000; stroke-linejoin: miter"/>
   </g>
  </g>
  <g id="axes_3">
   <g id="patch_4">
    <path d="M 34.208036 34.879821 
Q 34.714286 36.109286 34.967411 42.256607 
Q 35.148214 46.632054 35.4375 46.632054 
L 35.509821 46.595893 
Q 36.016071 46.017321 36.070313 44.588973 
Q 36.124554 43.160625 35.907589 41.750357 
Q 35.690625 40.340089 35.4375 38.712857 
Q 35.184375 37.085625 35.184375 36.398571 
Q 35.184375 35.169107 35.564063 33.939643 
Q 35.94375 32.710179 36.920089 32.710179 
Q 38.149554 32.710179 38.872768 34.355491 
Q 39.595982 36.000804 39.758705 37.971563 
Q 39.921429 39.942321 40.029911 41.587634 
Q 40.138393 43.232946 40.283036 43.232946 
Q 40.427679 43.232946 40.51808 41.497232 
Q 40.608482 39.761518 40.735045 37.700357 
Q 40.861607 35.639196 41.584821 33.903482 
Q 42.308036 32.167768 43.5375 32.167768 
Q 45.092411 33.035625 45.761384 34.771339 
Q 46.430357 36.507054 46.394196 38.188527 
Q 46.358036 39.87 46.376116 42.057723 
Q 46.394196 44.245446 46.791964 45.511071 
" clip-path="url(#pfba4bac571)" style="fill: none; stroke: #000000; stroke-linejoin: miter"/>
   </g>
  </g>
  <g id="axes_4">
   <g id="patch_5">
    <path d="M 50.457798 38.160826 
Q 53.430275 39.535596 58.149083 39.721376 
Q 59.672477 39.721376 60.359862 38.550963 
Q 61.047248 37.38055 61.047248 35.82 
Q 61.047248 35.299817 60.954358 34.909679 
Q 60.861468 34.519541 60.619954 34.296606 
Q 60.37844 34.07367 60.211239 33.943624 
Q 60.044037 33.813578 59.598165 33.757844 
Q 59.152294 33.70211 58.947936 33.683532 
Q 58.743578 33.664954 58.167661 33.683532 
Q 57.591743 33.70211 57.368807 33.70211 
Q 55.325229 33.70211 53.838991 35.578486 
Q 52.352752 37.454862 52.352752 39.609908 
Q 52.352752 42.619541 54.284862 44.570229 
Q 56.216972 46.520917 59.263761 46.520917 
Q 61.418807 46.818165 62.942202 44.29156 
" clip-path="url(#p511c36f7c2)" style="fill: none; stroke: #000000; stroke-linejoin: miter"/>
   </g>
  </g>
  <g id="axes_5"/>
  <g id="axes_6">
   <g id="patch_6">
    <path d="M 84.320069 39.868883 
L 84.320069 39.419007 
Q 84.320069 37.769462 86.063338 36.682262 
Q 87.806607 35.595062 89.493641 35.595062 
Q 91.705531 35.595062 93.073903 36.794731 
Q 94.442276 37.9944 94.442276 40.20629 
Q 94.442276 42.30571 92.624028 43.336676 
Q 90.805779 44.367641 88.59389 44.367641 
Q 87.919076 44.367641 87.412966 44.255172 
Q 86.906855 44.142703 86.288276 43.917766 
Q 85.669697 43.692828 85.219821 43.580359 
L 84.095131 42.568138 
M 83.757724 36.832221 
Q 84.2076 38.444276 84.470028 40.262524 
Q 84.732455 42.080772 84.78869 43.749062 
Q 84.844924 45.417352 84.882414 47.27309 
Q 84.919903 49.128828 84.882414 50.778372 
L 84.769945 57.863917 
" clip-path="url(#p7b1e0bbb89)" style="fill: none; stroke: #000000; stroke-linejoin: miter"/>
   </g>
  </g>
  <g id="axes_7">
   <g id="patch_7">
    <path d="M 109.296408 36.371229 
Q 108.224575 35.1769 104.702836 35.1769 
Q 103.355388 35.1769 102.666352 35.222836 
Q 101.977316 35.268771 101.089225 35.483138 
Q 100.201134 35.697505 99.772401 36.14155 
Q 99.343667 36.585595 99.037429 37.412439 
Q 98.731191 38.239282 98.731191 39.494858 
Q 98.731191 41.332287 99.986767 42.434745 
Q 101.242344 43.537202 102.957278 43.537202 
Q 105.315312 43.537202 107.765217 38.392401 
Q 108.959546 35.850624 108.959546 35.82 
Q 109.265784 35.605633 109.296408 36.371229 
Q 109.296408 37.320567 109.663894 39.847032 
Q 110.03138 42.373497 110.03138 43.537202 
M 111.868809 44.731531 
" clip-path="url(#p349fe846c6)" style="fill: none; stroke: #000000; stroke-linejoin: miter"/>
   </g>
  </g>
  <g id="axes_8">
   <g id="patch_8">
    <path d="M 117.057476 43.917766 
Q 117.357393 44.180193 118.369614 45.154924 
Q 119.381834 46.129655 119.944179 46.560786 
Q 120.506524 46.991917 121.53749 47.385559 
Q 122.568455 47.7792 123.580676 47.629241 
Q 124.25549 47.629241 124.72411 47.404303 
Q 125.192731 47.179366 125.417669 46.879448 
Q 125.642607 46.579531 125.773821 45.979697 
Q 125.905034 45.379862 125.923779 44.967476 
Q 125.942524 44.55509 125.942524 43.805297 
Q 125.942524 42.718097 125.042772 42.043283 
Q 124.143021 41.368469 122.849628 41.031062 
Q 121.556234 40.693655 120.262841 40.300014 
Q 118.969448 39.906372 118.069697 38.987876 
Q 117.169945 38.069379 117.169945 36.607283 
Q 117.169945 36.082428 117.338648 35.726276 
Q 117.507352 35.370124 117.900993 35.145186 
Q 118.294634 34.920248 118.575807 34.807779 
Q 118.856979 34.69531 119.513048 34.639076 
Q 120.169117 34.582841 120.356566 34.582841 
Q 120.544014 34.582841 121.218828 34.582841 
Q 122.418497 34.582841 122.999586 34.995228 
Q 123.580676 35.407614 123.899338 36.026193 
Q 124.218 36.644772 124.480428 36.832221 
" clip-path="url(#pb80ca2f189)" style="fill: none; stroke: #000000; stroke-linejoin: miter"/>
   </g>
  </g>
  <g id="axes_9">
   <g id="patch_9">
    <path d="M 133.257476 43.917766 
Q 133.557393 44.180193 134.569614 45.154924 
Q 135.581834 46.129655 136.144179 46.560786 
Q 136.706524 46.991917 137.73749 47.385559 
Q 138.768455 47.7792 139.780676 47.629241 
Q 140.45549 47.629241 140.92411 47.404303 
Q 141.392731 47.179366 141.617669 46.879448 
Q 141.842607 46.579531 141.973821 45.979697 
Q 142.105034 45.379862 142.123779 44.967476 
Q 142.142524 44.55509 142.142524 43.805297 
Q 142.142524 42.718097 141.242772 42.043283 
Q 140.343021 41.368469 139.049628 41.031062 
Q 137.756234 40.693655 136.462841 40.300014 
Q 135.169448 39.906372 134.269697 38.987876 
Q 133.369945 38.069379 133.369945 36.607283 
Q 133.369945 36.082428 133.538648 35.726276 
Q 133.707352 35.370124 134.100993 35.145186 
Q 134.494634 34.920248 134.775807 34.807779 
Q 135.056979 34.69531 135.713048 34.639076 
Q 136.369117 34.582841 136.556566 34.582841 
Q 136.744014 34.582841 137.418828 34.582841 
Q 138.618497 34.582841 139.199586 34.995228 
Q 139.780676 35.407614 140.099338 36.026193 
Q 140.418 36.644772 140.680428 36.832221 
" clip-path="url(#pc928217820)" style="fill: none; stroke: #000000; stroke-linejoin: miter"/>
   </g>
  </g>
  <g id="axes_10">
   <g id="patch_10">
    <path d="M 147.657798 38.160826 
Q 150.630275 39.535596 155.349083 39.721376 
Q 156.872477 39.721376 157.559862 38.550963 
Q 158.247248 37.38055 158.247248 35.82 
Q 158.247248 35.299817 158.154358 34.909679 
Q 158.061468 34.519541 157.819954 34.296606 
Q 157.57844 34.07367 157.411239 33.943624 
Q 157.244037 33.813578 156.798165 33.757844 
Q 156.352294 33.70211 156.147936 33.683532 
Q 155.943578 33.664954 155.367661 33.683532 
Q 154.791743 33.70211 154.568807 33.70211 
Q 152.525229 33.70211 151.038991 35.578486 
Q 149.552752 37.454862 149.552752 39.609908 
Q 149.552752 42.619541 151.484862 44.570229 
Q 153.416972 46.520917 156.463761 46.520917 
Q 158.618807 46.818165 160.142202 44.29156 
" clip-path="url(#pe5c3a209f9)" style="fill: none; stroke: #000000; stroke-linejoin: miter"/>
   </g>
  </g>
  <g id="axes_11">
   <g id="patch_11">
    <path d="M 165.657476 43.917766 
Q 165.957393 44.180193 166.969614 45.154924 
Q 167.981834 46.129655 168.544179 46.560786 
Q 169.106524 46.991917 170.13749 47.385559 
Q 171.168455 47.7792 172.180676 47.629241 
Q 172.85549 47.629241 173.32411 47.404303 
Q 173.792731 47.179366 174.017669 46.879448 
Q 174.242607 46.579531 174.373821 45.979697 
Q 174.505034 45.379862 174.523779 44.967476 
Q 174.542524 44.55509 174.542524 43.805297 
Q 174.542524 42.718097 173.642772 42.043283 
Q 172.743021 41.368469 171.449628 41.031062 
Q 170.156234 40.693655 168.862841 40.300014 
Q 167.569448 39.906372 166.669697 38.987876 
Q 165.769945 38.069379 165.769945 36.607283 
Q 165.769945 36.082428 165.938648 35.726276 
Q 166.107352 35.370124 166.500993 35.145186 
Q 166.894634 34.920248 167.175807 34.807779 
Q 167.456979 34.69531 168.113048 34.639076 
Q 168.769117 34.582841 168.956566 34.582841 
Q 169.144014 34.582841 169.818828 34.582841 
Q 171.018497 34.582841 171.599586 34.995228 
Q 172.180676 35.407614 172.499338 36.026193 
Q 172.818 36.644772 173.080428 36.832221 
" clip-path="url(#p006de73215)" style="fill: none; stroke: #000000; stroke-linejoin: miter"/>
   </g>
  </g>
  <g id="axes_12"/>
  <g id="axes_13">
   <g id="patch_12">
    <path d="M 198.057476 43.917766 
Q 198.357393 44.180193 199.369614 45.154924 
Q 200.381834 46.129655 200.944179 46.560786 
Q 201.506524 46.991917 202.53749 47.385559 
Q 203.568455 47.7792 204.580676 47.629241 
Q 205.25549 47.629241 205.72411 47.404303 
Q 206.192731 47.179366 206.417669 46.879448 
Q 206.642607 46.579531 206.773821 45.979697 
Q 206.905034 45.379862 206.923779 44.967476 
Q 206.942524 44.55509 206.942524 43.805297 
Q 206.942524 42.718097 206.042772 42.043283 
Q 205.143021 41.368469 203.849628 41.031062 
Q 202.556234 40.693655 201.262841 40.300014 
Q 199.969448 39.906372 199.069697 38.987876 
Q 198.169945 38.069379 198.169945 36.607283 
Q 198.169945 36.082428 198.338648 35.726276 
Q 198.507352 35.370124 198.900993 35.145186 
Q 199.294634 34.920248 199.575807 34.807779 
Q 199.856979 34.69531 200.513048 34.639076 
Q 201.169117 34.582841 201.356566 34.582841 
Q 201.544014 34.582841 202.218828 34.582841 
Q 203.418497 34.582841 203.999586 34.995228 
Q 204.580676 35.407614 204.899338 36.026193 
Q 205.218 36.644772 205.480428 36.832221 
" clip-path="url(#p4a0c2b4e85)" style="fill: none; stroke: #000000; stroke-linejoin: miter"/>
   </g>
  </g>
  <g id="axes_14">
   <g id="patch_13">
    <path d="M 221.9616 35.032717 
Q 220.91189 34.582841 219.937159 34.69531 
Q 216.900497 35.032717 214.988524 36.701007 
Q 213.076552 38.369297 213.076552 41.330979 
Q 213.076552 43.917766 215.082248 45.6048 
Q 217.087945 47.291834 219.712221 47.291834 
Q 222.074069 47.291834 223.198759 45.361117 
Q 224.323448 43.4304 224.323448 40.881103 
Q 224.323448 39.643945 223.911062 38.706703 
Q 223.498676 37.769462 222.973821 37.300841 
Q 222.448966 36.832221 221.699172 36.119917 
Q 220.949379 35.407614 220.499503 34.69531 
L 219.262345 34.245434 
" clip-path="url(#p32b44c0de2)" style="fill: none; stroke: #000000; stroke-linejoin: miter"/>
   </g>
  </g>
  <g id="axes_15"/>
  <g id="axes_16">
   <g id="patch_14">
    <path d="M 251.144917 36.269168 
Q 249.527911 35.520555 248.090573 35.550499 
Q 246.323845 35.550499 245.410536 37.062699 
Q 244.497227 38.574898 244.497227 40.491349 
Q 244.497227 41.838854 245.215896 42.692274 
Q 245.934566 43.545693 247.28207 43.545693 
Q 248.240296 43.545693 249.25841 41.449575 
Q 250.276525 39.353457 250.845471 37.107616 
Q 251.414418 34.861774 251.414418 33.933494 
L 251.414418 36.718336 
Q 252.342699 41.898743 252.222921 51.810388 
Q 252.133087 59.715749 252.402588 59.715749 
Q 252.881701 59.715749 254.004621 57.589686 
Q 255.127542 55.463623 256.325323 52.67878 
Q 257.523105 49.893937 257.612939 49.744214 
L 257.702773 49.38488 
" clip-path="url(#pbeb167958e)" style="fill: none; stroke: #000000; stroke-linejoin: miter"/>
   </g>
  </g>
  <g id="axes_17">
   <g id="patch_15">
    <path d="M 262.688772 35.145186 
Q 262.688772 35.145186 262.688772 35.595062 
Q 262.688772 36.269876 262.576303 37.619503 
Q 262.463834 38.969131 262.463834 39.643945 
Q 262.463834 41.930814 263.700993 43.599103 
Q 264.938152 45.267393 267.075062 45.267393 
Q 268.462179 45.154924 269.230717 43.917766 
Q 269.999255 42.680607 270.149214 41.237255 
Q 270.299172 39.793903 270.5616 37.9944 
Q 270.824028 36.194897 271.236414 35.370124 
Q 271.386372 35.070207 271.386372 35.670041 
Q 271.386372 36.269876 271.123945 38.706703 
Q 270.899007 41.031062 270.899007 41.555917 
Q 270.749048 42.643117 271.086455 43.767807 
Q 271.423862 44.892497 272.136166 45.6048 
" clip-path="url(#pe0be9501f0)" style="fill: none; stroke: #000000; stroke-linejoin: miter"/>
   </g>
  </g>
  <g id="axes_18">
   <g id="patch_16">
    <path d="M 284.118579 29.071862 
Q 283.743683 29.146841 283.612469 29.577972 
Q 283.481255 30.009103 283.556234 30.42149 
Q 283.556234 30.571448 283.593724 30.702662 
Q 283.631214 30.833876 283.687448 30.89011 
Q 283.743683 30.946345 283.799917 31.040069 
Q 283.856152 31.133793 283.893641 31.208772 
L 284.00611 29.859145 
M 284.00611 34.020497 
Q 283.106359 39.006621 282.881421 42.793076 
L 283.331297 45.379862 
L 283.668703 46.054676 
" clip-path="url(#p50886ce2a4)" style="fill: none; stroke: #000000; stroke-linejoin: miter"/>
   </g>
  </g>
  <g id="axes_19">
   <g id="patch_17">
    <path d="M 304.956735 34.365306 
Q 304.956735 34.365306 304.460816 34.365306 
Q 303.667347 34.365306 302.179592 34.067755 
Q 300.691837 33.770204 299.898367 33.770204 
Q 297.121224 33.770204 295.187143 35.224898 
Q 293.253061 36.679592 293.253061 39.423673 
Q 293.253061 40.94449 294.740816 42.399184 
Q 296.228571 43.853878 298.162653 44.663878 
Q 300.096735 45.473878 301.58449 45.473878 
Q 302.510204 45.473878 303.20449 45.110204 
Q 303.898776 44.746531 304.642653 44.118367 
Q 305.386531 43.490204 305.948571 43.192653 
L 306.146939 42.696735 
" clip-path="url(#p7610c862c2)" style="fill: none; stroke: #000000; stroke-linejoin: miter"/>
   </g>
  </g>
  <g id="axes_20">
   <g id="patch_18">
    <path d="M 313.931793 37.169628 
Q 315.956234 39.194069 317.718248 41.76211 
Q 319.480262 44.330152 320.342524 46.72949 
M 316.968455 31.321241 
L 316.968455 31.546179 
Q 316.968455 32.333462 316.331131 33.514386 
Q 315.693807 34.69531 314.719076 36.101172 
Q 313.744345 37.507034 313.481917 37.95691 
L 312.244759 39.643945 
M 311.457476 26.710014 
Q 313.294469 36.269876 313.481917 48.641462 
" clip-path="url(#p2765598861)" style="fill: none; stroke: #000000; stroke-linejoin: miter"/>
   </g>
  </g>
  <g id="axes_21">
   <g id="patch_19">
    <path d="M 331.706359 28.621986 
Q 331.931297 30.34651 332.006276 32.146014 
Q 332.081255 33.945517 332.06251 36.551048 
Q 332.043766 39.156579 332.043766 40.093821 
Q 332.043766 40.13131 332.268703 45.829738 
L 332.493641 46.841959 
" clip-path="url(#p3f0e726692)" style="fill: none; stroke: #000000; stroke-linejoin: miter"/>
   </g>
  </g>
  <g id="axes_22">
   <g id="patch_20">
    <path d="M 343.163917 36.382345 
Q 343.126428 36.494814 343.257641 36.701007 
Q 343.388855 36.9072 343.276386 37.057159 
L 343.276386 39.306538 
Q 343.276386 40.506207 343.613793 41.724621 
Q 343.9512 42.943034 344.813462 43.93651 
Q 345.675724 44.929986 346.875393 44.929986 
Q 348.112552 44.929986 348.787366 43.861531 
Q 349.462179 42.793076 349.912055 41.143531 
Q 350.361931 39.493986 350.699338 38.969131 
L 351.486621 36.382345 
L 351.261683 42.680607 
L 351.261683 45.154924 
Q 351.261683 47.066897 351.992731 51.00331 
Q 352.723779 54.939724 352.723779 56.964166 
Q 353.473572 59.213545 352.386372 60.188276 
Q 351.299172 61.163007 349.237241 60.78811 
Q 347.437738 60.488193 346.519241 60.169531 
Q 345.600745 59.850869 343.613793 58.988607 
L 343.501324 58.426262 
" clip-path="url(#p3cb9ed8cbb)" style="fill: none; stroke: #000000; stroke-linejoin: miter"/>
   </g>
  </g>
  <g id="axes_23">
   <g id="patch_21">
    <path d="M 365.343517 43.505379 
Q 365.268538 43.46789 365.193559 43.505379 
Q 365.118579 43.542869 365.08109 43.617848 
Q 365.0436 43.692828 365.00611 43.730317 
L 364.893641 44.180193 
M 363.656483 28.2096 
L 363.656483 28.771945 
Q 363.656483 29.971614 363.843931 31.321241 
Q 364.031379 32.670869 364.350041 34.339159 
Q 364.668703 36.007448 364.781172 36.86971 
L 364.893641 39.906372 
" clip-path="url(#pda0dc57431)" style="fill: none; stroke: #000000; stroke-linejoin: miter"/>
   </g>
  </g>
 </g>
 <defs>
  <clipPath id="pc329bc0f19">
   <rect x="0" y="20.054899" width="16.2" height="31.530201"/>
  </clipPath>
  <clipPath id="pd5048acab0">
   <rect x="21.806938" y="8.64" width="4.986124" height="54.36"/>
  </clipPath>
  <clipPath id="pfba4bac571">
   <rect x="32.4" y="9.603482" width="16.2" height="52.433036"/>
  </clipPath>
  <clipPath id="p511c36f7c2">
   <rect x="48.6" y="8.881927" width="16.2" height="53.876147"/>
  </clipPath>
  <clipPath id="p7b1e0bbb89">
   <rect x="81.883241" y="8.64" width="14.433517" height="54.36"/>
  </clipPath>
  <clipPath id="p349fe846c6">
   <rect x="97.2" y="13.617732" width="16.2" height="44.404537"/>
  </clipPath>
  <clipPath id="pb80ca2f189">
   <rect x="115.182993" y="8.64" width="12.634014" height="54.36"/>
  </clipPath>
  <clipPath id="pc928217820">
   <rect x="131.382993" y="8.64" width="12.634014" height="54.36"/>
  </clipPath>
  <clipPath id="pe5c3a209f9">
   <rect x="145.8" y="8.881927" width="16.2" height="53.876147"/>
  </clipPath>
  <clipPath id="p006de73215">
   <rect x="163.782993" y="8.64" width="12.634014" height="54.36"/>
  </clipPath>
  <clipPath id="p4a0c2b4e85">
   <rect x="196.182993" y="8.64" width="12.634014" height="54.36"/>
  </clipPath>
  <clipPath id="p32b44c0de2">
   <rect x="211.202069" y="8.64" width="14.995862" height="54.36"/>
  </clipPath>
  <clipPath id="pbeb167958e">
   <rect x="243" y="14.110203" width="16.2" height="43.419593"/>
  </clipPath>
  <clipPath id="pe0be9501f0">
   <rect x="260.589352" y="8.64" width="13.421297" height="54.36"/>
  </clipPath>
  <clipPath id="p50886ce2a4">
   <rect x="281.006938" y="8.64" width="4.986124" height="54.36"/>
  </clipPath>
  <clipPath id="p7610c862c2">
   <rect x="291.6" y="11.850612" width="16.2" height="47.938776"/>
  </clipPath>
  <clipPath id="p2765598861">
   <rect x="309.582993" y="8.64" width="12.634014" height="54.36"/>
  </clipPath>
  <clipPath id="p3f0e726692">
   <rect x="329.831876" y="8.64" width="4.536248" height="54.36"/>
  </clipPath>
  <clipPath id="p3cb9ed8cbb">
   <rect x="341.251945" y="8.64" width="14.09611" height="54.36"/>
  </clipPath>
  <clipPath id="pda0dc57431">
   <rect x="361.782" y="8.64" width="5.436" height="54.36"/>
  </clipPath>
 </defs>
</svg>
