<?xml version="1.0" encoding="UTF-8" standalone="no"?>
<!-- Created with Inkscape (http://www.inkscape.org/) -->

<svg
   id="svg5"
   version="1.1"
   viewBox="0 0 105 148"
   height="148mm"
   width="105mm"
   inkscape:version="1.2.2 (1:1.2.2+202212051550+b0a8486541)"
   sodipodi:docname="phdia3_pg00.svg"
   xml:space="preserve"
   xmlns:inkscape="http://www.inkscape.org/namespaces/inkscape"
   xmlns:sodipodi="http://sodipodi.sourceforge.net/DTD/sodipodi-0.dtd"
   xmlns="http://www.w3.org/2000/svg"
   xmlns:svg="http://www.w3.org/2000/svg"><sodipodi:namedview
     id="namedview7"
     pagecolor="#ffffff"
     bordercolor="#000000"
     borderopacity="0.25"
     inkscape:showpageshadow="2"
     inkscape:pageopacity="0.0"
     inkscape:pagecheckerboard="0"
     inkscape:deskcolor="#d1d1d1"
     inkscape:document-units="mm"
     showgrid="false"
     inkscape:zoom="0.64"
     inkscape:cx="43.75"
     inkscape:cy="367.1875"
     inkscape:window-width="1366"
     inkscape:window-height="685"
     inkscape:window-x="0"
     inkscape:window-y="28"
     inkscape:window-maximized="1"
     inkscape:current-layer="layer1" /><defs
     id="defs2"><rect
       x="73.333961"
       y="212.71312"
       width="243.96539"
       height="41.353429"
       id="rect1643" /><rect
       x="42.665278"
       y="48.26988"
       width="297.65859"
       height="113.19775"
       id="rect236" /><rect
       x="42.665278"
       y="48.26988"
       width="297.65859"
       height="113.19775"
       id="rect902" /><style
       type="text/css"
       id="style630">*{stroke-linejoin: round; stroke-linecap: butt}</style><clipPath
       id="p735632aa8a"><rect
         x="33.75"
         y="6.48"
         width="36.077586"
         height="40.77"
         id="rect793" /></clipPath><clipPath
       id="p01cf01ebb3"><rect
         x="77.043103"
         y="6.48"
         width="36.077586"
         height="40.77"
         id="rect796" /></clipPath><clipPath
       id="p295dde1374"><rect
         x="120.336207"
         y="6.48"
         width="36.077586"
         height="40.77"
         id="rect799" /></clipPath><clipPath
       id="p973506a00d"><rect
         x="163.62931"
         y="6.48"
         width="36.077586"
         height="40.77"
         id="rect802" /></clipPath><clipPath
       id="p6bf636f8af"><rect
         x="206.922414"
         y="6.48"
         width="36.077586"
         height="40.77"
         id="rect805" /></clipPath><rect
       x="73.333961"
       y="212.71312"
       width="243.96539"
       height="41.353429"
       id="rect1701" /><style
       type="text/css"
       id="style423">*{stroke-linejoin: round; stroke-linecap: butt}</style><clipPath
       id="p647ea222d9"><rect
         x="0"
         y="9.195972"
         width="28.35"
         height="53.248057"
         id="rect447" /></clipPath><clipPath
       id="p82f9ddb4a3"><rect
         x="28.89751"
         y="8.64"
         width="27.254979"
         height="54.36"
         id="rect450" /></clipPath><clipPath
       id="p5ee5408a69"><rect
         x="57.528683"
         y="8.64"
         width="26.692634"
         height="54.36"
         id="rect453" /></clipPath><clipPath
       id="p03e902287a"><rect
         x="85.822448"
         y="8.64"
         width="26.805103"
         height="54.36"
         id="rect456" /></clipPath><style
       type="text/css"
       id="style851">*{stroke-linejoin: round; stroke-linecap: butt}</style><clipPath
       id="pb184530adc"><rect
         x="0"
         y="16.179532"
         width="16.2"
         height="39.280936"
         id="rect924" /></clipPath><clipPath
       id="p777498df51"><rect
         x="16.2"
         y="8.881927"
         width="16.2"
         height="53.876147"
         id="rect927" /></clipPath><clipPath
       id="p3f83c5b450"><rect
         x="32.4"
         y="13.617732"
         width="16.2"
         height="44.404537"
         id="rect930" /></clipPath><clipPath
       id="pc2a21ccb1c"><rect
         x="51.338979"
         y="8.64"
         width="10.722041"
         height="54.36"
         id="rect933" /></clipPath><clipPath
       id="p344676f0a8"><rect
         x="66.189352"
         y="8.64"
         width="13.421297"
         height="54.36"
         id="rect936" /></clipPath><clipPath
       id="p770425e9ee"><rect
         x="87.075559"
         y="8.64"
         width="4.048883"
         height="54.36"
         id="rect939" /></clipPath><clipPath
       id="p9ca6e67d02"><rect
         x="98.982993"
         y="8.64"
         width="12.634014"
         height="54.36"
         id="rect942" /></clipPath><clipPath
       id="p106f4e7d8c"><rect
         x="130.651945"
         y="8.64"
         width="14.09611"
         height="54.36"
         id="rect945" /></clipPath><clipPath
       id="pdf22427a1f"><rect
         x="151.406938"
         y="8.64"
         width="4.986124"
         height="54.36"
         id="rect948" /></clipPath><clipPath
       id="p95130718e8"><rect
         x="164.738979"
         y="8.64"
         width="10.722041"
         height="54.36"
         id="rect951" /></clipPath><clipPath
       id="p0c9fc02bbb"><rect
         x="178.2"
         y="8.881927"
         width="16.2"
         height="53.876147"
         id="rect954" /></clipPath><clipPath
       id="p39b073c018"><rect
         x="194.4"
         y="11.850612"
         width="16.2"
         height="47.938776"
         id="rect957" /></clipPath><clipPath
       id="p69e5caf374"><rect
         x="211.989352"
         y="8.64"
         width="13.421297"
         height="54.36"
         id="rect960" /></clipPath><clipPath
       id="p6eefee06f9"><rect
         x="232.406938"
         y="8.64"
         width="4.986124"
         height="54.36"
         id="rect963" /></clipPath><clipPath
       id="p9c735bbb44"><rect
         x="243.602069"
         y="8.64"
         width="14.995862"
         height="54.36"
         id="rect966" /></clipPath><clipPath
       id="p02a95a16bc"><rect
         x="260.589352"
         y="8.64"
         width="13.421297"
         height="54.36"
         id="rect969" /></clipPath><style
       type="text/css"
       id="style740">*{stroke-linejoin: round; stroke-linecap: butt}</style><clipPath
       id="pe68910a580"><rect
         x="3.003083"
         y="8.64"
         width="22.343834"
         height="54.36"
         id="rect756" /></clipPath><clipPath
       id="pb58a212936"><rect
         x="31.784214"
         y="8.64"
         width="21.481572"
         height="54.36"
         id="rect759" /></clipPath><style
       type="text/css"
       id="style770">*{stroke-linejoin: round; stroke-linecap: butt}</style><clipPath
       id="pa6555ec509"><rect
         x="3.003083"
         y="8.64"
         width="22.343834"
         height="54.36"
         id="rect792" /></clipPath><clipPath
       id="pb12b20f535"><rect
         x="31.784214"
         y="8.64"
         width="21.481572"
         height="54.36"
         id="rect795" /></clipPath><style
       type="text/css"
       id="style806">*{stroke-linejoin: round; stroke-linecap: butt}</style><clipPath
       id="pdb2760077b"><rect
         x="3.003083"
         y="8.64"
         width="22.343834"
         height="54.36"
         id="rect828" /></clipPath><clipPath
       id="pba26cce490"><rect
         x="31.784214"
         y="8.64"
         width="21.481572"
         height="54.36"
         id="rect831" /></clipPath><style
       type="text/css"
       id="style842">*{stroke-linejoin: round; stroke-linecap: butt}</style><clipPath
       id="pbed266badb"><rect
         x="2.853124"
         y="8.64"
         width="22.643752"
         height="54.36"
         id="rect864" /></clipPath><clipPath
       id="pc4a2241087"><rect
         x="31.784214"
         y="8.64"
         width="21.481572"
         height="54.36"
         id="rect867" /></clipPath><defs
       id="defs742"><style
         type="text/css"
         id="style923">*{stroke-linejoin: round; stroke-linecap: butt}</style></defs><defs
       id="defs762"><clipPath
         id="clipPath937"><rect
           x="3.003083"
           y="8.6400003"
           width="22.343834"
           height="54.360001"
           id="rect935" /></clipPath><clipPath
         id="clipPath942"><rect
           x="31.784214"
           y="8.6400003"
           width="21.481571"
           height="54.360001"
           id="rect940" /></clipPath></defs><style
       type="text/css"
       id="style815">*{stroke-linejoin: round; stroke-linecap: butt}</style><clipPath
       id="pa7f3b56d06"><rect
         x="0"
         y="36.255654"
         width="36.45"
         height="88.678691"
         id="rect831-3" /></clipPath><clipPath
       id="p4ecbe1b964"><rect
         x="36.45"
         y="34.47589"
         width="36.45"
         height="92.23822"
         id="rect834" /></clipPath><defs
       id="defs817"><style
         type="text/css"
         id="style894">*{stroke-linejoin: round; stroke-linecap: butt}</style></defs><defs
       id="defs837"><clipPath
         id="clipPath908"><rect
           x="0"
           y="36.255653"
           width="36.450001"
           height="88.678688"
           id="rect906" /></clipPath><clipPath
         id="clipPath912"><rect
           x="36.450001"
           y="34.475891"
           width="36.450001"
           height="92.23822"
           id="rect910" /></clipPath></defs></defs><g
     inkscape:label="Layer 1"
     inkscape:groupmode="layer"
     id="layer1"><path
       style="fill:none;stroke:#000000;stroke-width:0.3;stroke-dasharray:none;stroke-opacity:1"
       d="M 1,1.15 H 2"
       id="path1244" /><path
       style="fill:none;stroke:#000000;stroke-width:0.3;stroke-dasharray:none;stroke-opacity:1"
       d="M 1,147.15 H 2"
       id="path1246" /><path
       style="fill:none;stroke:#000000;stroke-width:0.3;stroke-dasharray:none;stroke-opacity:1"
       d="m 103,147.15 h 1"
       id="path1976" /><path
       style="fill:none;stroke:#000000;stroke-width:0.3;stroke-dasharray:none;stroke-opacity:1"
       d="m 103,0.84999999 h 1"
       id="path2706" /><g
       id="axes_8"
       transform="matrix(0.35277778,0,0,0.35277778,17.958594,72.876172)" /><g
       id="g1000"
       transform="translate(-33.553311)"><g
         id="axes_1-3"
         transform="matrix(0.15,0,0,0.15,80.574497,41.582423)"><g
           id="patch_2-6"><path
             d="M 3.057886,92.214966 33.392114,89.585185 M 16.87953,84.87604 q 2.018205,5.565353 1.651259,15.41175 -0.183474,1.95704 -0.795051,1.95704 -0.489261,0 -2.14052,-2.14052 -1.773574,-2.507464 -2.752097,-2.752095 M 12.659648,80.839631 h 0.733892 q 0.672735,0 2.996728,-0.397525 2.323994,-0.397525 4.342198,-0.825629 l 2.018205,-0.428105 q 0,0.795051 -0.672735,1.987626 -0.672735,1.192576 -1.712416,2.599203 -1.039681,1.406628 -1.284312,1.834732 l -0.917366,1.284312 M 16.390268,66.773356 q 1.651259,0.978523 4.923197,4.403355 3.271938,3.424833 5.718246,4.403356 l 4.403356,1.834732 M 16.573742,66.956829 h -0.366947 q -0.672735,0.672735 -2.568624,2.996728 -1.895889,2.323993 -3.394253,3.547148 -1.498364,1.223154 -3.394254,1.712416 l -2.385151,1.467785 -1.284312,0.366946 m 4.953776,-8.990184 q 4.770302,-1.100839 13.760486,-1.834732 0.917366,-0.183473 2.752097,-0.489262 1.834732,-0.305788 2.568625,-0.428104 M 16.940688,62.920419 v 14.127433"
             clip-path="url(#pa7f3b56d06)"
             style="fill:none;stroke:#000000;stroke-linejoin:miter"
             id="path822" /></g></g><g
         id="axes_2-7"
         transform="matrix(0.15,0,0,0.15,80.574497,41.582423)"><g
           id="patch_3-5"><path
             d="m 43.065707,100.06045 q 0.763351,-0.190843 2.449084,-0.190843 1.685733,0 2.512696,-0.190837 l 17.36623,-0.381676 M 44.210733,93.190288 h 0.381675 q 2.035602,0 4.548299,-0.318063 2.512696,-0.318063 5.661518,-0.85877 3.148822,-0.540706 4.675524,-0.731544 l 3.053403,-0.190838 M 44.783246,88.801021 q 2.353665,-0.890576 7.506283,-1.431283 5.152618,-0.540707 7.569895,-1.431283 0.25445,0 0.954189,-0.09542 0.699738,-0.09542 0.954188,-0.09542 h 1.526702 q 0.127225,0 0.286256,-0.286257 0.159032,-0.286256 0.413482,-0.286256 0.190838,0 0.190838,1.717539 0,0.06361 -0.381676,6.679319 l -0.954188,4.96178 m -4.70733,-18.447644 q 0.5089,0.190838 1.494895,0.826964 0.985995,0.636125 1.558508,0.890576 L 62.72199,83.1395 m -4.961781,-7.379058 h 0.763351 q 0.381676,0 1.176833,0.349869 0.795157,0.349869 1.717539,0.890576 0.922382,0.540707 1.11322,0.667932 l 1.335864,1.526702 m -18.702095,2.035602 q 0.254451,0.127225 1.272252,0.477094 1.017801,0.349869 1.590314,0.795157 l 2.671728,1.335864 m -5.152618,-7.060995 h 0.763351 l 4.198429,1.908377 m 3.816754,-12.595288 0.190838,18.511257 m -4.389267,-17.938744 8.969371,-1.526701 m -18.892932,9.160209 q 4.134817,-1.017801 12.531676,-1.781152 8.396858,-0.763351 12.277225,-1.653927 1.272251,-0.318062 2.321859,-0.286256 1.049607,0.03181 1.717539,0.349869 0.667932,0.318063 0.413481,1.304058 -0.25445,0.985994 -1.590314,2.449083 l -0.76335,2.290053 M 40.393979,71.18034 39.630628,79.068298"
             clip-path="url(#p4ecbe1b964)"
             style="fill:none;stroke:#000000;stroke-linejoin:miter"
             id="path826" /></g></g></g></g></svg>
