<?xml version="1.0" encoding="utf-8" standalone="no"?>
<!DOCTYPE svg PUBLIC "-//W3C//DTD SVG 1.1//EN"
  "http://www.w3.org/Graphics/SVG/1.1/DTD/svg11.dtd">
<svg xmlns:xlink="http://www.w3.org/1999/xlink" width="288pt" height="72pt" viewBox="0 0 288 72" xmlns="http://www.w3.org/2000/svg" version="1.1">
 <metadata>
  <rdf:RDF xmlns:dc="http://purl.org/dc/elements/1.1/" xmlns:cc="http://creativecommons.org/ns#" xmlns:rdf="http://www.w3.org/1999/02/22-rdf-syntax-ns#">
   <cc:Work>
    <dc:type rdf:resource="http://purl.org/dc/dcmitype/StillImage"/>
    <dc:date>2023-01-02T11:35:13.498525</dc:date>
    <dc:format>image/svg+xml</dc:format>
    <dc:creator>
     <cc:Agent>
      <dc:title>Matplotlib v3.6.1, https://matplotlib.org/</dc:title>
     </cc:Agent>
    </dc:creator>
   </cc:Work>
  </rdf:RDF>
 </metadata>
 <defs>
  <style type="text/css">*{stroke-linejoin: round; stroke-linecap: butt}</style>
 </defs>
 <g id="figure_1">
  <g id="patch_1">
   <path d="M 0 72 
L 288 72 
L 288 0 
L 0 0 
L 0 72 
z
" style="fill: none"/>
  </g>
  <g id="axes_1">
   <g id="patch_2">
    <path d="M 86.60346 49.1309 
Q 85.100616 47.456303 80.162701 47.456303 
Q 78.273412 47.456303 77.307299 47.520711 
Q 76.341185 47.585118 75.095972 47.885687 
Q 73.850758 48.186256 73.249621 48.808863 
Q 72.648483 49.431469 72.2191 50.590806 
Q 71.789716 51.750142 71.789716 53.510616 
Q 71.789716 56.086919 73.55019 57.632701 
Q 75.310664 59.178483 77.715213 59.178483 
Q 81.021469 59.178483 84.45654 51.964834 
Q 86.131137 48.400948 86.131137 48.358009 
Q 86.560521 48.057441 86.60346 49.1309 
Q 86.60346 50.461991 87.11872 54.004408 
Q 87.633981 57.546825 87.633981 59.178483 
M 90.210284 60.853081 
" clip-path="url(#pa03a1c74a1)" style="fill: none; stroke: #000000; stroke-linejoin: miter"/>
   </g>
  </g>
  <g id="axes_2">
   <g id="patch_3">
    <path d="M 109.361462 48.939906 
Q 110.558066 48.89717 110.771745 48.811698 
Q 114.660708 48.811698 116.69066 51.183538 
Q 118.720613 53.555377 118.720613 57.529811 
Q 118.720613 60.863208 113.464104 60.863208 
Q 112.737594 60.863208 112.117925 60.735 
Q 111.498255 60.606792 110.771745 60.350377 
Q 110.045236 60.093962 109.48967 59.965755 
L 108.079387 58.555472 
M 109.233255 35.478113 
L 109.233255 36.760189 
Q 109.233255 40.008113 109.361462 44.110755 
Q 109.48967 48.213396 109.703349 53.106651 
Q 109.917028 57.999906 110.0025 60.22217 
" clip-path="url(#pcc8e3fb544)" style="fill: none; stroke: #000000; stroke-linejoin: miter"/>
   </g>
  </g>
  <g id="axes_3">
   <g id="patch_4">
    <path d="M 152.621815 46.438863 
L 151.978248 46.438863 
Q 150.94854 46.438863 149.017837 46.052723 
Q 147.087135 45.666582 146.057427 45.666582 
Q 142.453449 45.666582 139.943536 47.55438 
Q 137.433623 49.442178 137.433623 53.003252 
Q 137.433623 54.976859 139.364325 56.864657 
Q 141.295028 58.752455 143.804941 59.803615 
Q 146.314854 60.854775 148.245556 60.854775 
Q 149.446882 60.854775 150.347877 60.382826 
Q 151.248871 59.910876 152.214223 59.095691 
Q 153.179574 58.280505 153.90895 57.894365 
L 154.166377 57.250797 
" clip-path="url(#p8f4c76ea4f)" style="fill: none; stroke: #000000; stroke-linejoin: miter"/>
   </g>
  </g>
  <g id="axes_4">
   <g id="patch_5">
    <path d="M 182.289781 51.028871 
Q 180.756113 49.452602 178.2 49.750815 
Q 174.962257 49.750815 173.641599 51.284483 
Q 172.32094 52.81815 172.32094 56.141097 
Q 172.32094 57.845172 173.790705 58.654608 
Q 175.26047 59.464044 177.049749 59.464044 
Q 178.540815 59.464044 179.691066 58.036881 
Q 180.841317 56.609718 181.501646 54.138809 
Q 182.161975 51.6679 182.587994 49.17569 
Q 183.014013 46.68348 183.18442 43.616144 
Q 183.354828 40.548809 183.397429 38.99384 
Q 183.440031 37.438871 183.440031 35.82 
Q 183.18442 35.905204 183.18442 40.037586 
L 183.18442 56.396708 
L 184.07906 60.869906 
" clip-path="url(#p985eb10d7b)" style="fill: none; stroke: #000000; stroke-linejoin: miter"/>
   </g>
  </g>
 </g>
 <defs>
  <clipPath id="pa03a1c74a1">
   <rect x="69.642796" y="8.64" width="22.714408" height="54.36"/>
  </clipPath>
  <clipPath id="pcc8e3fb544">
   <rect x="105.942594" y="8.64" width="14.914811" height="54.36"/>
  </clipPath>
  <clipPath id="p8f4c76ea4f">
   <rect x="135.288398" y="8.64" width="21.023204" height="54.36"/>
  </clipPath>
  <clipPath id="p985eb10d7b">
   <rect x="170.190846" y="8.64" width="16.018307" height="54.36"/>
  </clipPath>
 </defs>
</svg>
