<?xml version="1.0" encoding="UTF-8" standalone="no"?>
<!-- Created with Inkscape (http://www.inkscape.org/) -->

<svg
   id="svg5"
   version="1.1"
   viewBox="0 0 105 148"
   height="148mm"
   width="105mm"
   inkscape:version="1.2.2 (1:1.2.2+202212051550+b0a8486541)"
   sodipodi:docname="phdia_pg02.svg"
   xml:space="preserve"
   xmlns:inkscape="http://www.inkscape.org/namespaces/inkscape"
   xmlns:sodipodi="http://sodipodi.sourceforge.net/DTD/sodipodi-0.dtd"
   xmlns="http://www.w3.org/2000/svg"
   xmlns:svg="http://www.w3.org/2000/svg"><sodipodi:namedview
     id="namedview7"
     pagecolor="#ffffff"
     bordercolor="#000000"
     borderopacity="0.25"
     inkscape:showpageshadow="2"
     inkscape:pageopacity="0.0"
     inkscape:pagecheckerboard="0"
     inkscape:deskcolor="#d1d1d1"
     inkscape:document-units="mm"
     showgrid="false"
     inkscape:zoom="0.64"
     inkscape:cx="273.4375"
     inkscape:cy="296.875"
     inkscape:window-width="1366"
     inkscape:window-height="685"
     inkscape:window-x="0"
     inkscape:window-y="28"
     inkscape:window-maximized="1"
     inkscape:current-layer="layer1" /><defs
     id="defs2"><rect
       x="73.333961"
       y="212.71312"
       width="243.96539"
       height="41.353429"
       id="rect1643" /><rect
       x="42.665278"
       y="48.26988"
       width="297.65859"
       height="113.19775"
       id="rect236" /><rect
       x="42.665278"
       y="48.26988"
       width="297.65859"
       height="113.19775"
       id="rect902" /><style
       type="text/css"
       id="style630">*{stroke-linejoin: round; stroke-linecap: butt}</style><clipPath
       id="p735632aa8a"><rect
         x="33.75"
         y="6.48"
         width="36.077586"
         height="40.77"
         id="rect793" /></clipPath><clipPath
       id="p01cf01ebb3"><rect
         x="77.043103"
         y="6.48"
         width="36.077586"
         height="40.77"
         id="rect796" /></clipPath><clipPath
       id="p295dde1374"><rect
         x="120.336207"
         y="6.48"
         width="36.077586"
         height="40.77"
         id="rect799" /></clipPath><clipPath
       id="p973506a00d"><rect
         x="163.62931"
         y="6.48"
         width="36.077586"
         height="40.77"
         id="rect802" /></clipPath><clipPath
       id="p6bf636f8af"><rect
         x="206.922414"
         y="6.48"
         width="36.077586"
         height="40.77"
         id="rect805" /></clipPath><rect
       x="73.333961"
       y="212.71312"
       width="243.96539"
       height="41.353429"
       id="rect1701" /><style
       type="text/css"
       id="style423">*{stroke-linejoin: round; stroke-linecap: butt}</style><clipPath
       id="p647ea222d9"><rect
         x="0"
         y="9.195972"
         width="28.35"
         height="53.248057"
         id="rect447" /></clipPath><clipPath
       id="p82f9ddb4a3"><rect
         x="28.89751"
         y="8.64"
         width="27.254979"
         height="54.36"
         id="rect450" /></clipPath><clipPath
       id="p5ee5408a69"><rect
         x="57.528683"
         y="8.64"
         width="26.692634"
         height="54.36"
         id="rect453" /></clipPath><clipPath
       id="p03e902287a"><rect
         x="85.822448"
         y="8.64"
         width="26.805103"
         height="54.36"
         id="rect456" /></clipPath><style
       type="text/css"
       id="style851">*{stroke-linejoin: round; stroke-linecap: butt}</style><clipPath
       id="pb184530adc"><rect
         x="0"
         y="16.179532"
         width="16.2"
         height="39.280936"
         id="rect924" /></clipPath><clipPath
       id="p777498df51"><rect
         x="16.2"
         y="8.881927"
         width="16.2"
         height="53.876147"
         id="rect927" /></clipPath><clipPath
       id="p3f83c5b450"><rect
         x="32.4"
         y="13.617732"
         width="16.2"
         height="44.404537"
         id="rect930" /></clipPath><clipPath
       id="pc2a21ccb1c"><rect
         x="51.338979"
         y="8.64"
         width="10.722041"
         height="54.36"
         id="rect933" /></clipPath><clipPath
       id="p344676f0a8"><rect
         x="66.189352"
         y="8.64"
         width="13.421297"
         height="54.36"
         id="rect936" /></clipPath><clipPath
       id="p770425e9ee"><rect
         x="87.075559"
         y="8.64"
         width="4.048883"
         height="54.36"
         id="rect939" /></clipPath><clipPath
       id="p9ca6e67d02"><rect
         x="98.982993"
         y="8.64"
         width="12.634014"
         height="54.36"
         id="rect942" /></clipPath><clipPath
       id="p106f4e7d8c"><rect
         x="130.651945"
         y="8.64"
         width="14.09611"
         height="54.36"
         id="rect945" /></clipPath><clipPath
       id="pdf22427a1f"><rect
         x="151.406938"
         y="8.64"
         width="4.986124"
         height="54.36"
         id="rect948" /></clipPath><clipPath
       id="p95130718e8"><rect
         x="164.738979"
         y="8.64"
         width="10.722041"
         height="54.36"
         id="rect951" /></clipPath><clipPath
       id="p0c9fc02bbb"><rect
         x="178.2"
         y="8.881927"
         width="16.2"
         height="53.876147"
         id="rect954" /></clipPath><clipPath
       id="p39b073c018"><rect
         x="194.4"
         y="11.850612"
         width="16.2"
         height="47.938776"
         id="rect957" /></clipPath><clipPath
       id="p69e5caf374"><rect
         x="211.989352"
         y="8.64"
         width="13.421297"
         height="54.36"
         id="rect960" /></clipPath><clipPath
       id="p6eefee06f9"><rect
         x="232.406938"
         y="8.64"
         width="4.986124"
         height="54.36"
         id="rect963" /></clipPath><clipPath
       id="p9c735bbb44"><rect
         x="243.602069"
         y="8.64"
         width="14.995862"
         height="54.36"
         id="rect966" /></clipPath><clipPath
       id="p02a95a16bc"><rect
         x="260.589352"
         y="8.64"
         width="13.421297"
         height="54.36"
         id="rect969" /></clipPath><style
       type="text/css"
       id="style4337">*{stroke-linejoin: round; stroke-linecap: butt}</style><clipPath
       id="p11bbe137df"><rect
         x="0"
         y="13.866729"
         width="16.2"
         height="43.906542"
         id="rect4466" /></clipPath><clipPath
       id="p7f8a727285"><rect
         x="19.726262"
         y="8.64"
         width="9.147476"
         height="54.36"
         id="rect4469" /></clipPath><clipPath
       id="p41906020a9"><rect
         x="32.4"
         y="9.603482"
         width="16.2"
         height="52.433036"
         id="rect4472" /></clipPath><clipPath
       id="p7919cee770"><rect
         x="48.6"
         y="8.881927"
         width="16.2"
         height="53.876147"
         id="rect4475" /></clipPath><clipPath
       id="p131930d6fe"><rect
         x="66.189352"
         y="8.64"
         width="13.421297"
         height="54.36"
         id="rect4478" /></clipPath><clipPath
       id="pe846f6d1d1"><rect
         x="98.982993"
         y="8.64"
         width="12.634014"
         height="54.36"
         id="rect4481" /></clipPath><clipPath
       id="pd7b668f953"><rect
         x="116.138979"
         y="8.64"
         width="10.722041"
         height="54.36"
         id="rect4484" /></clipPath><clipPath
       id="pc2a371dd05"><rect
         x="133.3512"
         y="8.64"
         width="8.6976"
         height="54.36"
         id="rect4487" /></clipPath><clipPath
       id="pb428048419"><rect
         x="163.051945"
         y="8.64"
         width="14.09611"
         height="54.36"
         id="rect4490" /></clipPath><clipPath
       id="p61f2c2e565"><rect
         x="179.589352"
         y="8.64"
         width="13.421297"
         height="54.36"
         id="rect4493" /></clipPath><clipPath
       id="pbd80f4fa35"><rect
         x="196.407931"
         y="8.64"
         width="12.184138"
         height="54.36"
         id="rect4496" /></clipPath><clipPath
       id="pe9e82eb10d"><rect
         x="212.907848"
         y="8.64"
         width="11.584303"
         height="54.36"
         id="rect4499" /></clipPath><clipPath
       id="pe4ab1407df"><rect
         x="232.406938"
         y="8.64"
         width="4.986124"
         height="54.36"
         id="rect4502" /></clipPath><clipPath
       id="p63ff253d17"><rect
         x="244.276883"
         y="8.64"
         width="13.646234"
         height="54.36"
         id="rect4505" /></clipPath><clipPath
       id="p3c1c212e6c"><rect
         x="276.451945"
         y="8.64"
         width="14.09611"
         height="54.36"
         id="rect4508" /></clipPath><clipPath
       id="p3c51af8d17"><rect
         x="295.126262"
         y="8.64"
         width="9.147476"
         height="54.36"
         id="rect4511" /></clipPath><clipPath
       id="p3ed207debf"><rect
         x="307.8"
         y="14.110203"
         width="16.2"
         height="43.419593"
         id="rect4514" /></clipPath><clipPath
       id="pc13aad214d"><rect
         x="329.606938"
         y="8.64"
         width="4.986124"
         height="54.36"
         id="rect4517" /></clipPath><clipPath
       id="p6b0dd65e7e"><rect
         x="340.970772"
         y="8.64"
         width="14.658455"
         height="54.36"
         id="rect4520" /></clipPath><clipPath
       id="p0f123e2433"><rect
         x="357.789352"
         y="8.64"
         width="13.421297"
         height="54.36"
         id="rect4523" /></clipPath><clipPath
       id="p9dcbfd0344"><rect
         x="391.538979"
         y="8.64"
         width="10.722041"
         height="54.36"
         id="rect4526" /></clipPath><clipPath
       id="pdc2b4f3c8b"><rect
         x="407.795214"
         y="8.64"
         width="10.609572"
         height="54.36"
         id="rect4529" /></clipPath><clipPath
       id="p9b3cfd926b"><rect
         x="422.589352"
         y="8.64"
         width="13.421297"
         height="54.36"
         id="rect4532" /></clipPath><clipPath
       id="p9b830cefb9"><rect
         x="439.182993"
         y="8.64"
         width="12.634014"
         height="54.36"
         id="rect4535" /></clipPath><clipPath
       id="padc904fe6b"><rect
         x="456.338979"
         y="8.64"
         width="10.722041"
         height="54.36"
         id="rect4538" /></clipPath><clipPath
       id="p9fd4a7613e"><rect
         x="474.001076"
         y="8.64"
         width="7.797848"
         height="54.36"
         id="rect4541" /></clipPath><clipPath
       id="pacfa0d946a"><rect
         x="503.251945"
         y="8.64"
         width="14.09611"
         height="54.36"
         id="rect4544" /></clipPath><clipPath
       id="p9b2ec38966"><rect
         x="518.4"
         y="8.881927"
         width="16.2"
         height="53.876147"
         id="rect4547" /></clipPath><clipPath
       id="p241ba860cd"><rect
         x="535.876883"
         y="8.64"
         width="13.646234"
         height="54.36"
         id="rect4550" /></clipPath><style
       type="text/css"
       id="style4715">*{stroke-linejoin: round; stroke-linecap: butt}</style><clipPath
       id="p429a3cfabc"><rect
         x="0"
         y="16.179532"
         width="16.2"
         height="39.280936"
         id="rect4845" /></clipPath><clipPath
       id="pbaafc789b3"><rect
         x="16.802069"
         y="8.64"
         width="14.995862"
         height="54.36"
         id="rect4848" /></clipPath><clipPath
       id="p6355e6a877"><rect
         x="32.4"
         y="10.936525"
         width="16.2"
         height="49.766949"
         id="rect4851" /></clipPath><clipPath
       id="p0c2d60b8c2"><rect
         x="70.631876"
         y="8.64"
         width="4.536248"
         height="54.36"
         id="rect4854" /></clipPath><clipPath
       id="p05e32d7dd7"><rect
         x="81.602069"
         y="8.64"
         width="14.995862"
         height="54.36"
         id="rect4857" /></clipPath><clipPath
       id="p1e73111c45"><rect
         x="98.589352"
         y="8.64"
         width="13.421297"
         height="54.36"
         id="rect4860" /></clipPath><clipPath
       id="p6d7f1e8fe2"><rect
         x="113.4"
         y="12.376886"
         width="16.2"
         height="46.886228"
         id="rect4863" /></clipPath><clipPath
       id="pae806071b8"><rect
         x="148.538979"
         y="8.64"
         width="10.722041"
         height="54.36"
         id="rect4866" /></clipPath><clipPath
       id="p521afc8977"><rect
         x="162"
         y="13.617732"
         width="16.2"
         height="44.404537"
         id="rect4869" /></clipPath><clipPath
       id="p5da563c755"><rect
         x="180.151697"
         y="8.64"
         width="12.296607"
         height="54.36"
         id="rect4872" /></clipPath><clipPath
       id="pfa0bfada95"><rect
         x="194.4"
         y="8.881927"
         width="16.2"
         height="53.876147"
         id="rect4875" /></clipPath><clipPath
       id="p479dab16a7"><rect
         x="227.851945"
         y="8.64"
         width="14.09611"
         height="54.36"
         id="rect4878" /></clipPath><clipPath
       id="pe28a9b47de"><rect
         x="243.602069"
         y="8.64"
         width="14.995862"
         height="54.36"
         id="rect4881" /></clipPath><clipPath
       id="p432ed133a0"><rect
         x="260.589352"
         y="8.64"
         width="13.421297"
         height="54.36"
         id="rect4884" /></clipPath><clipPath
       id="pc29c9730c7"><rect
         x="293.382993"
         y="8.64"
         width="12.634014"
         height="54.36"
         id="rect4887" /></clipPath><clipPath
       id="p7ca9f7d23d"><rect
         x="309.189352"
         y="8.64"
         width="13.421297"
         height="54.36"
         id="rect4890" /></clipPath><clipPath
       id="p02f9a3eeec"><rect
         x="324.602069"
         y="8.64"
         width="14.995862"
         height="54.36"
         id="rect4893" /></clipPath><clipPath
       id="pde550a7ca4"><rect
         x="340.2"
         y="10.936525"
         width="16.2"
         height="49.766949"
         id="rect4896" /></clipPath><clipPath
       id="pcb78f1397e"><rect
         x="357.789352"
         y="8.64"
         width="13.421297"
         height="54.36"
         id="rect4899" /></clipPath><clipPath
       id="p50da62919c"><rect
         x="388.8"
         y="8.881927"
         width="16.2"
         height="53.876147"
         id="rect4902" /></clipPath><clipPath
       id="p763871fb9e"><rect
         x="405"
         y="13.617732"
         width="16.2"
         height="44.404537"
         id="rect4905" /></clipPath><clipPath
       id="p111fb82334"><rect
         x="421.2"
         y="11.850612"
         width="16.2"
         height="47.938776"
         id="rect4908" /></clipPath><clipPath
       id="p8a69d801f5"><rect
         x="440.138979"
         y="8.64"
         width="10.722041"
         height="54.36"
         id="rect4911" /></clipPath><clipPath
       id="pf6b9dee03a"><rect
         x="470.402069"
         y="8.64"
         width="14.995862"
         height="54.36"
         id="rect4914" /></clipPath><clipPath
       id="p27fa2b5668"><rect
         x="487.389352"
         y="8.64"
         width="13.421297"
         height="54.36"
         id="rect4917" /></clipPath><clipPath
       id="p6d4b30923d"><rect
         x="504.938979"
         y="8.64"
         width="10.722041"
         height="54.36"
         id="rect4920" /></clipPath><clipPath
       id="p3b76bce272"><rect
         x="518.4"
         y="8.881927"
         width="16.2"
         height="53.876147"
         id="rect4923" /></clipPath><clipPath
       id="pc6f90094d4"><rect
         x="537.338979"
         y="8.64"
         width="10.722041"
         height="54.36"
         id="rect4926" /></clipPath><clipPath
       id="pfd64a8be4e"><rect
         x="552.076883"
         y="8.64"
         width="13.646234"
         height="54.36"
         id="rect4929" /></clipPath><style
       type="text/css"
       id="style6569">*{stroke-linejoin: round; stroke-linecap: butt}</style><clipPath
       id="pf33a81d6ff"><rect
         x="2.290779"
         y="8.64"
         width="23.768441"
         height="54.36"
         id="rect6597" /></clipPath><clipPath
       id="p0f7fc70762"><rect
         x="31.484297"
         y="8.64"
         width="22.081407"
         height="54.36"
         id="rect6600" /></clipPath><clipPath
       id="p5762bcd8fc"><rect
         x="58.990779"
         y="8.64"
         width="23.768441"
         height="54.36"
         id="rect6603" /></clipPath><clipPath
       id="pbc904e24f2"><rect
         x="87.903124"
         y="8.64"
         width="22.643752"
         height="54.36"
         id="rect6606" /></clipPath><clipPath
       id="p21287620a2"><rect
         x="113.722572"
         y="8.64"
         width="27.704855"
         height="54.36"
         id="rect6609" /></clipPath><style
       type="text/css"
       id="style6649">*{stroke-linejoin: round; stroke-linecap: butt}</style><clipPath
       id="p1cb6e50568"><rect
         x="0.714538"
         y="8.64"
         width="14.770924"
         height="54.36"
         id="rect6720" /></clipPath><clipPath
       id="p80d11e2a57"><rect
         x="18.938979"
         y="8.64"
         width="10.722041"
         height="54.36"
         id="rect6723" /></clipPath><clipPath
       id="pc6fd0fb743"><rect
         x="54.431876"
         y="8.64"
         width="4.536248"
         height="54.36"
         id="rect6726" /></clipPath><clipPath
       id="p5c5ed4a67b"><rect
         x="69.001076"
         y="8.64"
         width="7.797848"
         height="54.36"
         id="rect6729" /></clipPath><clipPath
       id="pdee519e0b5"><rect
         x="82.389352"
         y="8.64"
         width="13.421297"
         height="54.36"
         id="rect6732" /></clipPath><clipPath
       id="pd6f9607f7c"><rect
         x="97.2"
         y="12.376886"
         width="16.2"
         height="46.886228"
         id="rect6735" /></clipPath><clipPath
       id="p9f60ea453b"><rect
         x="132.395214"
         y="8.64"
         width="10.609572"
         height="54.36"
         id="rect6738" /></clipPath><clipPath
       id="pcf69716fdc"><rect
         x="148.538979"
         y="8.64"
         width="10.722041"
         height="54.36"
         id="rect6741" /></clipPath><clipPath
       id="pc411be76c0"><rect
         x="163.782993"
         y="8.64"
         width="12.634014"
         height="54.36"
         id="rect6744" /></clipPath><clipPath
       id="p249a5744d9"><rect
         x="178.2"
         y="9.066014"
         width="16.2"
         height="53.507973"
         id="rect6747" /></clipPath><clipPath
       id="p3780845547"><rect
         x="195.789352"
         y="8.64"
         width="13.421297"
         height="54.36"
         id="rect6750" /></clipPath><clipPath
       id="p2ed469f33f"><rect
         x="228.189352"
         y="8.64"
         width="13.421297"
         height="54.36"
         id="rect6753" /></clipPath><clipPath
       id="pbbfec661b1"><rect
         x="248.606938"
         y="8.64"
         width="4.986124"
         height="54.36"
         id="rect6756" /></clipPath><clipPath
       id="p109e1a787c"><rect
         x="259.970772"
         y="8.64"
         width="14.658455"
         height="54.36"
         id="rect6759" /></clipPath><clipPath
       id="p62a3fc2915"><rect
         x="276.789352"
         y="8.64"
         width="13.421297"
         height="54.36"
         id="rect6762" /></clipPath><style
       type="text/css"
       id="style6855">*{stroke-linejoin: round; stroke-linecap: butt}</style><clipPath
       id="pf08d2ad28d"><rect
         x="2.401572"
         y="8.64"
         width="11.396855"
         height="54.36"
         id="rect6879" /></clipPath><clipPath
       id="p0e8843acfa"><rect
         x="18.545338"
         y="8.64"
         width="11.509324"
         height="54.36"
         id="rect6882" /></clipPath><clipPath
       id="p4ff99ae05d"><rect
         x="34.801572"
         y="8.64"
         width="11.396855"
         height="54.36"
         id="rect6885" /></clipPath><clipPath
       id="pb3dd846f10"><rect
         x="50.832869"
         y="8.64"
         width="11.734262"
         height="54.36"
         id="rect6888" /></clipPath><style
       type="text/css"
       id="style6923">*{stroke-linejoin: round; stroke-linecap: butt}</style><clipPath
       id="p9a8b5da5ae"><rect
         x="4.015303"
         y="8.64"
         width="20.319393"
         height="54.36"
         id="rect6947" /></clipPath><clipPath
       id="p9ecffbe647"><rect
         x="34.858366"
         y="8.64"
         width="15.333269"
         height="54.36"
         id="rect6950" /></clipPath><clipPath
       id="p1d7be08115"><rect
         x="59.703083"
         y="8.64"
         width="22.343834"
         height="54.36"
         id="rect6953" /></clipPath><clipPath
       id="p0f705d0c6c"><rect
         x="87.790655"
         y="8.64"
         width="22.86869"
         height="54.36"
         id="rect6956" /></clipPath><style
       type="text/css"
       id="style6991">*{stroke-linejoin: round; stroke-linecap: butt}</style><clipPath
       id="p0724038c7f"><rect
         x="0"
         y="17.028"
         width="16.2"
         height="37.584"
         id="rect7053" /></clipPath><clipPath
       id="pca213fe81d"><rect
         x="17.589352"
         y="8.64"
         width="13.421297"
         height="54.36"
         id="rect7056" /></clipPath><clipPath
       id="pe0ecf4ad46"><rect
         x="32.4"
         y="9.066014"
         width="16.2"
         height="53.507973"
         id="rect7059" /></clipPath><clipPath
       id="p10b0499d20"><rect
         x="49.989352"
         y="8.64"
         width="13.421297"
         height="54.36"
         id="rect7062" /></clipPath><clipPath
       id="p7c82a24810"><rect
         x="81"
         y="11.850612"
         width="16.2"
         height="47.938776"
         id="rect7065" /></clipPath><clipPath
       id="pc5133e527b"><rect
         x="99.938979"
         y="8.64"
         width="10.722041"
         height="54.36"
         id="rect7068" /></clipPath><clipPath
       id="p8a9f2d394a"><rect
         x="113.870855"
         y="8.64"
         width="15.25829"
         height="54.36"
         id="rect7071" /></clipPath><clipPath
       id="p5cb26abe99"><rect
         x="131.158055"
         y="8.64"
         width="13.08389"
         height="54.36"
         id="rect7074" /></clipPath><clipPath
       id="p51e1402671"><rect
         x="146.739476"
         y="8.64"
         width="14.321048"
         height="54.36"
         id="rect7077" /></clipPath><clipPath
       id="p6c7d8b77c4"><rect
         x="163.389352"
         y="8.64"
         width="13.421297"
         height="54.36"
         id="rect7080" /></clipPath><clipPath
       id="p26dd0bf779"><rect
         x="196.182993"
         y="8.64"
         width="12.634014"
         height="54.36"
         id="rect7083" /></clipPath><clipPath
       id="pdc233e4d81"><rect
         x="213.338979"
         y="8.64"
         width="10.722041"
         height="54.36"
         id="rect7086" /></clipPath><clipPath
       id="p5724428274"><rect
         x="229.595214"
         y="8.64"
         width="10.609572"
         height="54.36"
         id="rect7089" /></clipPath><style
       type="text/css"
       id="style7171">*{stroke-linejoin: round; stroke-linecap: butt}</style><clipPath
       id="p55eb5312c1"><rect
         x="0"
         y="16.080504"
         width="16.2"
         height="39.478992"
         id="rect7224" /></clipPath><clipPath
       id="pe247f77ef8"><rect
         x="21.806938"
         y="8.64"
         width="4.986124"
         height="54.36"
         id="rect7227" /></clipPath><clipPath
       id="p8717fe3454"><rect
         x="35.138979"
         y="8.64"
         width="10.722041"
         height="54.36"
         id="rect7230" /></clipPath><clipPath
       id="pf4bc836a92"><rect
         x="48.6"
         y="11.850612"
         width="16.2"
         height="47.938776"
         id="rect7233" /></clipPath><clipPath
       id="p0ecf30271e"><rect
         x="70.631876"
         y="8.64"
         width="4.536248"
         height="54.36"
         id="rect7236" /></clipPath><clipPath
       id="pd428d30bad"><rect
         x="81"
         y="8.881927"
         width="16.2"
         height="53.876147"
         id="rect7239" /></clipPath><clipPath
       id="pb608b021ba"><rect
         x="113.4"
         y="12.423586"
         width="16.2"
         height="46.792829"
         id="rect7242" /></clipPath><clipPath
       id="p51e7a1c100"><rect
         x="132.338979"
         y="8.64"
         width="10.722041"
         height="54.36"
         id="rect7245" /></clipPath><clipPath
       id="pe376b027d3"><rect
         x="145.8"
         y="8.881927"
         width="16.2"
         height="53.876147"
         id="rect7248" /></clipPath><clipPath
       id="pa0ca16c50e"><rect
         x="163.782993"
         y="8.64"
         width="12.634014"
         height="54.36"
         id="rect7251" /></clipPath><clipPath
       id="pce89486fa1"><rect
         x="179.982993"
         y="8.64"
         width="12.634014"
         height="54.36"
         id="rect7254" /></clipPath></defs><g
     inkscape:label="Layer 1"
     inkscape:groupmode="layer"
     id="layer1"><path
       style="fill:none;stroke:#000000;stroke-width:0.3;stroke-dasharray:none;stroke-opacity:1"
       d="M 1,1.15 H 2"
       id="path1244" /><path
       style="fill:none;stroke:#000000;stroke-width:0.3;stroke-dasharray:none;stroke-opacity:1"
       d="M 1,147.15 H 2"
       id="path1246" /><path
       style="fill:none;stroke:#000000;stroke-width:0.3;stroke-dasharray:none;stroke-opacity:1"
       d="m 103,147.15 h 1"
       id="path1976" /><path
       style="fill:none;stroke:#000000;stroke-width:0.3;stroke-dasharray:none;stroke-opacity:1"
       d="m 103,0.84999999 h 1"
       id="path2706" /><g
       id="axes_8"
       transform="matrix(0.35277778,0,0,0.35277778,17.958594,72.876172)" /><g
       id="axes_4-36"
       transform="matrix(0.35277778,0,0,0.35277778,-42.537373,101.67503)" /><g
       id="axes_9-5"
       transform="matrix(0.35277778,0,0,0.35277778,-42.537373,101.67503)" /><g
       id="axes_14-4"
       transform="matrix(0.35277778,0,0,0.35277778,-42.537373,101.67503)" /><g
       id="axes_18-4"
       transform="matrix(0.35277778,0,0,0.35277778,-42.537373,101.67503)" /><g
       id="axes_24-4"
       transform="matrix(0.35277778,0,0,0.35277778,-42.537373,101.67503)" /><g
       id="axes_29-6"
       transform="matrix(0.35277778,0,0,0.35277778,-42.537373,101.67503)" /><g
       id="g7355"
       transform="matrix(0.7,0,0,0.7,-64.689229,72.245306)"><g
         id="axes_1-2"
         transform="matrix(0.35277778,0,0,0.35277778,142.05656,-20.286303)"><g
           id="patch_2-2"><path
             d="m 10.238586,29.2968 7.422952,-0.674814 M 4.165262,40.431228 24.184738,39.756414"
             clip-path="url(#pf33a81d6ff)"
             style="fill:none;stroke:#000000;stroke-linejoin:miter"
             id="path6576" /></g></g><g
         id="axes_2-6"
         transform="matrix(0.35277778,0,0,0.35277778,142.05656,-20.286303)"><g
           id="patch_3-1"><path
             d="m 42.01889,32.783338 h 0.224938 q 0.262427,0 2.399338,1.780759 2.13691,1.780758 4.573737,3.917669 2.436828,2.13691 2.474318,2.1744 m -12.03418,-0.112469 6.298262,5.286041 m -6.073324,-7.085545 q 0.524855,0 2.942938,-0.149959 2.418083,-0.149958 3.130386,-0.07498 l -3.2616,3.374069 M 41.231607,35.70753 h 0.449876 l 1.799503,1.462097 M 42.356297,32.220993 V 32.5584 q -0.937242,1.986952 -3.561518,4.180097 -2.624276,2.193144 -5.436,3.917669 m 11.246897,-9.7848 h 0.337407 0.562345 l 1.574565,0.337406 m -2.474317,-1.799503 h 2.699255 m -9.559862,1.687034 q 0.599834,0.187449 1.911972,0.337407 m -1.687034,-2.024441 q 0.449876,0.224938 1.330883,0.431131 0.881007,0.206193 1.030965,0.243683 m -5.286041,-2.136911 q 0.07498,0.149959 0.281172,0.562345 0.206193,0.412386 0.393642,0.674814 0.187448,0.262428 0.449875,0.449876 m -1.01222,-1.687035 h 7.085545 q 0.187448,0 1.124689,-0.07498 0.937242,-0.07498 1.968207,-0.112469 1.030966,-0.03749 2.099421,-0.03749 1.068455,0 1.762014,0.131214 0.693558,0.131214 0.693558,0.431131 0,0.03749 -0.112469,0.787283 l -0.562345,1.12469 m -5.848386,-4.836166 -0.562345,6.5232 M 40.444324,24.91051 h 0.674814 1.687034 l 3.149131,-0.224938"
             clip-path="url(#p0f7fc70762)"
             style="fill:none;stroke:#000000;stroke-linejoin:miter"
             id="path6580" /></g></g><g
         id="axes_3-0"
         transform="matrix(0.35277778,0,0,0.35277778,142.05656,-20.286303)"><g
           id="patch_4-6"><path
             d="m 66.938586,29.2968 7.422952,-0.674814 M 60.865262,40.431228 80.884738,39.756414"
             clip-path="url(#p5762bcd8fc)"
             style="fill:none;stroke:#000000;stroke-linejoin:miter"
             id="path6584" /></g></g><g
         id="axes_4-1"
         transform="matrix(0.35277778,0,0,0.35277778,142.05656,-20.286303)"><g
           id="patch_5-5"><path
             d="M 89.777607,41.893324 108.67239,41.106041 M 95.326076,34.432883 q 0.599834,-0.299917 2.099421,-0.449876 1.499586,-0.149959 2.061931,-0.337407 h 1.574562 l 1.34963,-0.224938 m -7.49793,-4.573738 q 0,-0.187448 0.599834,-0.131214 0.599835,0.05623 0.749793,0.01874 l 7.310483,-1.124689"
             clip-path="url(#pbc904e24f2)"
             style="fill:none;stroke:#000000;stroke-linejoin:miter"
             id="path6588" /></g></g><g
         id="axes_5-9"
         transform="matrix(0.35277778,0,0,0.35277778,142.05656,-20.286303)"><g
           id="patch_6-4"><path
             d="m 126.50655,26.822483 v 6.935586 8.810069 L 126.16914,45.6048 M 115.59705,35.445103 h 0.44988 q 3.37407,0 7.34797,-0.393641 3.97391,-0.393641 8.82882,-1.04971 4.85491,-0.656069 7.32922,-0.918497 m -17.54515,-1.237158 v 2.699255 m 0.22493,-2.811724 6.63567,-1.012221 m -6.97307,-3.673986 h 0.22494 1.23715 l 6.29827,-1.012221 m -7.19802,-1.574566 v 0.674814 l -1.46209,4.498759"
             clip-path="url(#p21287620a2)"
             style="fill:none;stroke:#000000;stroke-linejoin:miter"
             id="path6592" /></g></g></g><g
       id="axes_3-5"
       transform="matrix(0.35277778,0,0,0.35277778,121.04258,3.6226985)" /><g
       id="axes_8-6"
       transform="matrix(0.35277778,0,0,0.35277778,121.04258,3.6226985)" /><g
       id="axes_14-8"
       transform="matrix(0.35277778,0,0,0.35277778,121.04258,3.6226985)" /><g
       id="g7452"
       transform="matrix(0.4,0,0,0.4,-16.459014,67.842242)"><g
         id="axes_1-9"
         transform="matrix(0.35277778,0,0,0.35277778,121.04258,3.6226985)"><g
           id="patch_2-1"><path
             d="m 4.163586,25.585324 q 1.16218,0.449876 3.280345,2.380593 2.118166,1.930717 3.580262,2.343104 M 4.388524,47.74171 q 1.387117,-0.03749 4.048883,-0.749793 2.661765,-0.712303 3.149131,-0.824772 l 2.024441,-0.899752 m -9.672331,-5.286041 6.5232,-1.12469 m -7.872827,-6.5232 q 0.299917,-0.03749 1.274648,0.187448 0.974731,0.224938 1.312138,-0.07498 0.03749,0 4.161352,-0.112469 l 2.249379,-0.449876 m -8.772579,1.012221 q 0.299917,2.399338 0.524855,7.535421 0.224938,5.136082 0.599834,7.760358"
             clip-path="url(#p1cb6e50568)"
             style="fill:none;stroke:#000000;stroke-linejoin:miter"
             id="path6656" /></g></g><g
         id="axes_2-77"
         transform="matrix(0.35277778,0,0,0.35277778,121.04258,3.6226985)"><g
           id="patch_3-11"><path
             d="m 20.813462,32.783338 q 0.524855,1.724524 0.656069,3.673986 0.131214,1.949462 0.05624,4.498759 -0.07498,2.549296 -0.03749,3.748965 l 0.112469,1.349628 v -0.224938 q 0,-1.162179 -0.281173,-3.524028 -0.281172,-2.361848 -0.281172,-3.561517 0,-2.324359 1.012221,-3.861434 1.01222,-1.537076 3.036662,-1.537076 0.712303,0 1.04971,0.281172 0.337407,0.281173 0.599835,0.806028 0.262427,0.524855 0.599834,0.824772 l 0.449876,1.574566"
             clip-path="url(#p80d11e2a57)"
             style="fill:none;stroke:#000000;stroke-linejoin:miter"
             id="path6660" /></g></g><g
         id="axes_4-9"
         transform="matrix(0.35277778,0,0,0.35277778,121.04258,3.6226985)"><g
           id="patch_4-7"><path
             d="m 56.306359,28.621986 q 0.224938,1.724524 0.299917,3.524028 0.07498,1.799503 0.05623,4.405034 -0.01874,2.605531 -0.01874,3.542773 0,0.03749 0.224937,5.735917 l 0.224938,1.012221"
             clip-path="url(#pc6fd0fb743)"
             style="fill:none;stroke:#000000;stroke-linejoin:miter"
             id="path6665" /></g></g><g
         id="axes_5-7"
         transform="matrix(0.35277778,0,0,0.35277778,121.04258,3.6226985)"><g
           id="patch_5-6"><path
             d="m 70.875559,33.68309 q 0.449875,-0.412387 1.930717,-1.499587 1.480841,-1.0872 2.118165,-1.874482 m -3.711475,5.848386 q -0.03749,0.112469 -0.01874,1.180924 0.01874,1.068455 0.01874,1.180924 0,1.12469 0.262427,2.1744 0.262428,1.049711 0.693559,2.324359 0.431131,1.274648 0.618579,2.024441 l 0.449876,0.449876"
             clip-path="url(#p5c5ed4a67b)"
             style="fill:none;stroke:#000000;stroke-linejoin:miter"
             id="path6669" /></g></g><g
         id="axes_6-7"
         transform="matrix(0.35277778,0,0,0.35277778,121.04258,3.6226985)"><g
           id="patch_6-3"><path
             d="m 84.263834,32.783338 v 0.562345 q 0.862263,6.373241 0.899752,13.721214 0,0.749793 -0.07498,-0.03749 Q 84.638731,42.080772 84.488772,35.82 v -0.674814 q 0,-1.499586 1.593311,-2.13691 1.59331,-0.637324 3.017917,-0.224938 1.537076,0.449876 2.511807,1.6308 0.974731,1.180924 1.349627,2.867959 0.374897,1.687034 0.506111,3.2616 0.131214,1.574565 0.206193,3.524027 0.07498,1.949462 0.262428,2.999173"
             clip-path="url(#pdee519e0b5)"
             style="fill:none;stroke:#000000;stroke-linejoin:miter"
             id="path6673" /></g></g><g
         id="axes_7-6"
         transform="matrix(0.35277778,0,0,0.35277778,121.04258,3.6226985)"><g
           id="patch_7-5"><path
             d="m 110.91018,35.173293 q -0.22635,-0.06467 -1.08323,-0.420359 -0.85689,-0.355688 -1.43893,-0.48503 -0.58203,-0.129341 -1.16407,-0.06467 -2.32814,0 -3.78323,2.117964 -1.45509,2.117964 -1.45509,4.478443 0,1.45509 4.65629,1.45509 1.39042,0 2.57066,-1.341917 1.18023,-1.341916 1.77844,-3.007185 0.5982,-1.66527 0.5982,-3.023354 0,-1.325748 -0.0323,-1.584431 l -0.0647,0.97006 q 0,0.420359 0,0.808383 0.29101,7.210779 -0.0323,10.573653 -1.0994,12.319761 -9.18323,12.319761 -1.45509,0 -2.425153,-0.662875 -0.97006,-0.662874 -0.97006,-2.053293 -0.06467,-0.194012 -0.03234,-0.194012 0.03234,0 0.129341,0 0.09701,0 0.09701,-0.09701"
             clip-path="url(#pd6f9607f7c)"
             style="fill:none;stroke:#000000;stroke-linejoin:miter"
             id="path6677" /></g></g><g
         id="axes_9-3"
         transform="matrix(0.35277778,0,0,0.35277778,121.04258,3.6226985)"><g
           id="patch_8-9"><path
             d="m 134.2697,27.047421 q 0.86226,0.599834 1.68703,1.499586 0.82477,0.899752 1.78076,2.099421 0.95599,1.199669 1.48084,1.799503 M 134.6071,39.0816 h 0.22494 q 0.26243,-0.03749 0.78728,0.05623 0.52486,0.09372 0.78729,0.05624 0.59983,-0.07498 1.18092,-0.03749 0.58109,0.03749 1.14344,-0.03749 0.56234,-0.07498 0.99347,-0.299918 0.43113,-0.224938 0.69356,-0.806027 0.26243,-0.58109 0.26243,-1.518331 -0.11247,-1.237159 -1.03097,-1.799504 -0.91849,-0.562344 -2.11816,-0.449876 -1.34963,0.112469 -2.24938,1.12469 -0.89975,1.012221 -0.89975,2.361848 0,8.472662 6.74813,6.410731"
             clip-path="url(#p9f60ea453b)"
             style="fill:none;stroke:#000000;stroke-linejoin:miter"
             id="path6682" /></g></g><g
         id="axes_10-4"
         transform="matrix(0.35277778,0,0,0.35277778,121.04258,3.6226985)"><g
           id="patch_9-8"><path
             d="m 150.41346,32.783338 q 0.52486,1.724524 0.65607,3.673986 0.13121,1.949462 0.0562,4.498759 -0.075,2.549296 -0.0375,3.748965 l 0.11246,1.349628 v -0.224938 q 0,-1.162179 -0.28117,-3.524028 -0.28117,-2.361848 -0.28117,-3.561517 0,-2.324359 1.01222,-3.861434 1.01222,-1.537076 3.03666,-1.537076 0.71231,0 1.04971,0.281172 0.33741,0.281173 0.59984,0.806028 0.26242,0.524855 0.59983,0.824772 l 0.44988,1.574566"
             clip-path="url(#pcf69716fdc)"
             style="fill:none;stroke:#000000;stroke-linejoin:miter"
             id="path6686" /></g></g><g
         id="axes_11-1"
         transform="matrix(0.35277778,0,0,0.35277778,121.04258,3.6226985)"><g
           id="patch_10-2"><path
             d="m 165.65748,43.917766 q 0.29991,0.262427 1.31213,1.237158 1.01222,0.974731 1.57457,1.405862 0.56234,0.431131 1.59331,0.824773 1.03096,0.393641 2.04319,0.243682 0.67481,0 1.14343,-0.224938 0.46862,-0.224937 0.69356,-0.524855 0.22494,-0.299917 0.35615,-0.899751 0.13121,-0.599835 0.14996,-1.012221 0.0187,-0.412386 0.0187,-1.162179 0,-1.0872 -0.89975,-1.762014 -0.89975,-0.674814 -2.19314,-1.012221 -1.2934,-0.337407 -2.58679,-0.731048 -1.29339,-0.393642 -2.19314,-1.312138 -0.89976,-0.918497 -0.89976,-2.380593 0,-0.524855 0.16871,-0.881007 0.1687,-0.356152 0.56234,-0.58109 0.39364,-0.224938 0.67482,-0.337407 0.28117,-0.112469 0.93724,-0.168703 0.65607,-0.05624 0.84352,-0.05624 0.18744,0 0.86226,0 1.19967,0 1.78076,0.412387 0.58109,0.412386 0.89975,1.030965 0.31866,0.618579 0.58109,0.806028"
             clip-path="url(#pc411be76c0)"
             style="fill:none;stroke:#000000;stroke-linejoin:miter"
             id="path6690" /></g></g><g
         id="axes_12-9"
         transform="matrix(0.35277778,0,0,0.35277778,121.04258,3.6226985)"><g
           id="patch_11-3"><path
             d="m 180.37722,29.066925 h 10.18497 m -0.77495,4.31754 q 0,0 -2.87836,0 -2.98906,0 -4.92642,1.642141 -1.93736,1.642141 -1.93736,4.557403 0,1.734396 1.7344,2.638497 1.73439,0.9041 3.6902,0.9041 1.51299,-0.295216 2.38019,-1.476082 0.86719,-1.180866 1.08861,-2.398633 0.22141,-1.217768 0.42437,-3.136675 0.20296,-1.918906 0.42437,-2.730751 2.54624,9.594533 2.65695,10.517084 l 0.11071,1.107061"
             clip-path="url(#p249a5744d9)"
             style="fill:none;stroke:#000000;stroke-linejoin:miter"
             id="path6694" /></g></g><g
         id="axes_13-9"
         transform="matrix(0.35277778,0,0,0.35277778,121.04258,3.6226985)"><g
           id="patch_12-0"><path
             d="m 197.66383,32.783338 v 0.562345 q 0.86227,6.373241 0.89976,13.721214 0,0.749793 -0.075,-0.03749 Q 198.03873,42.080772 197.88877,35.82 v -0.674814 q 0,-1.499586 1.59331,-2.13691 1.59331,-0.637324 3.01792,-0.224938 1.53708,0.449876 2.51181,1.6308 0.97473,1.180924 1.34962,2.867959 0.3749,1.687034 0.50611,3.2616 0.13122,1.574565 0.2062,3.524027 0.075,1.949462 0.26243,2.999173"
             clip-path="url(#p3780845547)"
             style="fill:none;stroke:#000000;stroke-linejoin:miter"
             id="path6698" /></g></g><g
         id="axes_15-8"
         transform="matrix(0.35277778,0,0,0.35277778,121.04258,3.6226985)"><g
           id="patch_13-5"><path
             d="m 230.06383,32.783338 v 0.562345 q 0.86227,6.373241 0.89976,13.721214 0,0.749793 -0.075,-0.03749 Q 230.43873,42.080772 230.28877,35.82 v -0.674814 q 0,-1.499586 1.59331,-2.13691 1.59331,-0.637324 3.01792,-0.224938 1.53708,0.449876 2.51181,1.6308 0.97473,1.180924 1.34962,2.867959 0.3749,1.687034 0.50611,3.2616 0.13122,1.574565 0.2062,3.524027 0.075,1.949462 0.26243,2.999173"
             clip-path="url(#p2ed469f33f)"
             style="fill:none;stroke:#000000;stroke-linejoin:miter"
             id="path6703" /></g></g><g
         id="axes_16-0"
         transform="matrix(0.35277778,0,0,0.35277778,121.04258,3.6226985)"><g
           id="patch_14-9"><path
             d="m 251.71858,29.071862 q -0.3749,0.07498 -0.50611,0.50611 -0.13122,0.431131 -0.0562,0.843518 0,0.149958 0.0375,0.281172 0.0375,0.131214 0.0937,0.187448 0.0562,0.05624 0.11247,0.149959 0.0562,0.09372 0.0937,0.168703 l 0.11247,-1.349627 m 0,4.161352 q -0.89975,4.986124 -1.12469,8.772579 l 0.44988,2.586786 0.3374,0.674814"
             clip-path="url(#pbbfec661b1)"
             style="fill:none;stroke:#000000;stroke-linejoin:miter"
             id="path6707" /></g></g><g
         id="axes_17-6"
         transform="matrix(0.35277778,0,0,0.35277778,121.04258,3.6226985)"><g
           id="patch_15-3"><path
             d="m 264.31957,31.546179 v -0.224938 q 0,-0.187448 0.0562,-0.281172 0.0562,-0.09372 0.13121,-0.149959 0.075,-0.05623 0.22494,-0.149958 0.14996,-0.09372 0.26243,-0.206193 l 4.16135,-4.723697 m 1.91197,9.559862 h -3.14913 q -0.11247,0.03749 -0.3749,0.112469 -3.22411,0.937241 -4.12386,1.649545 -1.53708,1.349628 -1.57457,4.761186 0,1.12469 0.86227,2.024442 0.86226,0.899751 1.94946,0.899751 0.86226,-0.112469 1.64954,-0.581089 0.78729,-0.468621 1.2934,-1.012221 0.50611,-0.5436 1.04971,-1.537076 0.5436,-0.993476 0.82477,-1.612055 0.28117,-0.618579 0.73105,-1.780759 0.44987,-1.162179 0.63732,-1.574565 0.33741,-0.824773 0.44988,-0.768538 0.11247,0.05623 0,1.255903 l -0.11247,1.537076 q 0,0.03749 0.33741,3.711476 l 1.23716,2.361848"
             clip-path="url(#p109e1a787c)"
             style="fill:none;stroke:#000000;stroke-linejoin:miter"
             id="path6711" /></g></g><g
         id="axes_18"
         transform="matrix(0.35277778,0,0,0.35277778,121.04258,3.6226985)"><g
           id="patch_16-8"><path
             d="m 278.66383,32.783338 v 0.562345 q 0.86227,6.373241 0.89976,13.721214 0,0.749793 -0.075,-0.03749 Q 279.03873,42.080772 278.88877,35.82 v -0.674814 q 0,-1.499586 1.59331,-2.13691 1.59331,-0.637324 3.01792,-0.224938 1.53708,0.449876 2.51181,1.6308 0.97473,1.180924 1.34962,2.867959 0.3749,1.687034 0.50611,3.2616 0.13122,1.574565 0.2062,3.524027 0.075,1.949462 0.26243,2.999173"
             clip-path="url(#p62a3fc2915)"
             style="fill:none;stroke:#000000;stroke-linejoin:miter"
             id="path6715" /></g></g></g><g
       id="g7480"
       transform="matrix(0.4,0,0,0.4,-16.10219,60.857242)"><g
         id="axes_1-1"
         transform="matrix(0.35277778,0,0,0.35277778,160.03227,37.583281)"><g
           id="patch_2-15"><path
             d="m 4.276055,30.309021 q 1.612055,-1.799504 4.836166,-1.687035 0.862262,0 1.387117,0.843517 0.524855,0.843518 0.637324,1.649545 0.112469,0.806028 0.112469,1.66829 0,1.724524 -0.749793,3.374069 -0.749793,1.649545 -1.687035,2.75549 -0.937241,1.105944 -2.193144,2.605531 -1.255904,1.499586 -1.893228,2.624275 l 7.198014,-0.224937"
             clip-path="url(#pf08d2ad28d)"
             style="fill:none;stroke:#000000;stroke-linejoin:miter"
             id="path6862" /></g></g><g
         id="axes_2-9"
         transform="matrix(0.35277778,0,0,0.35277778,160.03227,37.583281)"><g
           id="patch_3-8"><path
             d="m 26.268207,28.284579 q 0,0 -1.12469,0 -1.312138,0 -2.305614,1.049711 -0.993475,1.04971 -1.480841,2.624276 -0.487365,1.574565 -0.712303,3.017917 -0.224938,1.443351 -0.224938,2.64302 0,2.849214 1.443351,4.573738 1.443352,1.724525 4.180097,1.724525 0.899752,0 1.518331,-1.874483 0.618579,-1.874483 0.618579,-2.961683 0,-1.762014 -0.337407,-3.524028 -0.337406,-1.762013 -0.899751,-3.842689 -0.562345,-2.080676 -0.787283,-3.317835 l -1.574566,-2.024441"
             clip-path="url(#p0e8843acfa)"
             style="fill:none;stroke:#000000;stroke-linejoin:miter"
             id="path6866" /></g></g><g
         id="axes_3-4"
         transform="matrix(0.35277778,0,0,0.35277778,160.03227,37.583281)"><g
           id="patch_4-8"><path
             d="m 36.676055,30.309021 q 1.612055,-1.799504 4.836166,-1.687035 0.862262,0 1.387117,0.843517 0.524855,0.843518 0.637324,1.649545 0.112469,0.806028 0.112469,1.66829 0,1.724524 -0.749793,3.374069 -0.749793,1.649545 -1.687035,2.75549 -0.937241,1.105944 -2.193144,2.605531 -1.255904,1.499586 -1.893228,2.624275 l 7.198014,-0.224937"
             clip-path="url(#p4ff99ae05d)"
             style="fill:none;stroke:#000000;stroke-linejoin:miter"
             id="path6870" /></g></g><g
         id="axes_4-10"
         transform="matrix(0.35277778,0,0,0.35277778,160.03227,37.583281)"><g
           id="patch_5-3"><path
             d="m 53.494634,29.521738 q 1.012221,-0.337407 3.149132,-0.356152 2.13691,-0.01875 3.149131,-0.318662 0,1.012221 -1.237159,2.118166 -1.237159,1.105944 -2.474317,2.061931 -1.237159,0.955986 -1.237159,1.55582 h 2.249379 q 1.12469,0 1.874483,0.431131 0.749793,0.431131 1.105945,1.237159 0.356152,0.806028 0.487365,1.612055 0.131214,0.806028 0.131214,1.893228 0,1.874483 -1.687034,3.074152 -1.687035,1.199668 -3.599007,1.199668 -2.1744,-0.299917 -2.699255,-1.124689"
             clip-path="url(#pb3dd846f10)"
             style="fill:none;stroke:#000000;stroke-linejoin:miter"
             id="path6874" /></g></g></g><g
       id="g7512"
       transform="matrix(0.7,0,0,0.7,-76.159964,41.024471)"><g
         id="patch_2-4"
         transform="matrix(0.35277778,0,0,0.35277778,163.6607,79.56893)"><path
           d="m 6.902007,45.717269 q 1.162179,0 2.511807,-0.112469 1.349627,-0.112469 2.418083,-0.281172 1.068455,-0.168704 2.530551,-0.356152 1.462097,-0.187448 2.511807,-0.299917 1.687035,-0.187449 2.530552,-0.224938 0.843517,-0.03749 0.918496,0 0.07498,0.03749 0.262428,0.07498 0.187448,0.03749 0.674814,0 m -1.499586,-17.095283 -2.1744,1.499586 m -8.097766,-0.824772 0.374897,0.149959 2.286869,1.124689 m 1.199669,5.848387 v 0.374896 q 0,0.449876 -0.243683,1.405862 -0.243683,0.955986 -0.243683,1.068455 -0.03749,0.262428 -0.318662,1.237159 -0.281172,0.974731 -0.281172,1.462096 0,1.949463 2.699255,1.949463 1.499586,0.262427 2.774234,-0.787283 1.274649,-1.049711 1.649545,-2.961683 m -3.29909,-1.499586 q 0.112469,0.07498 0.243683,0.168703 0.131214,0.09372 0.262428,0.168704 0.131214,0.07498 0.168703,0.112469 0.03749,0 0.112469,0.03749 0.112469,-0.07498 0.112469,-0.112469 0,-0.224938 -0.05623,-0.5436 -0.05623,-0.318662 -0.112469,-0.656069 -0.05624,-0.337406 -0.05624,-0.599834 0,-0.187448 0.01874,-0.318662 0.01874,-0.131214 0.01874,-0.50611 0,-0.07498 -0.112469,-0.131214 -0.112469,-0.05624 -0.299917,-0.03749 -0.187449,0.01875 -0.356152,0.03749 -0.168704,0.01875 -0.318662,0.03749 -0.149959,0.01875 -0.149959,0.01875 h -1.687034 l -0.524855,0.07498 m 3.336579,-1.874483 q 0.487365,0.187448 1.12469,1.293393 0.637324,1.105945 0.974731,1.405862 l 0.899751,0.824772 M 9.86369,34.020497 h 0.337407 q 0.637324,0 1.330882,-0.09372 0.693559,-0.09372 1.537076,-0.262427 0.843517,-0.168704 1.293393,-0.243683 l 5.023614,-0.749793 m -8.510152,-1.274648 5.51098,-0.149959 0.862262,-0.149959 m -3.224111,-3.22411 V 28.2096 q -0.262427,2.511807 -0.487365,3.955159 -0.224938,1.443351 -0.899752,3.430303 -0.674814,1.986952 -1.762014,3.29909 M 7.164434,26.185159 H 7.61431 q 1.349628,0.03749 2.942938,-0.131214 1.593311,-0.168704 2.718,-0.374897 1.12469,-0.206193 2.980428,-0.562345 1.855738,-0.356151 2.792979,-0.50611 1.312138,-0.224938 2.136911,-0.224938 0.562344,0 0.824772,4.742442 0.262428,4.742441 0.337407,11.134427 0.07498,6.391986 0.112469,7.0668 L 19.386062,46.317103 M 7.61431,24.948 q -0.599834,2.774234 -0.712303,9.334924 -0.112469,6.56069 -0.899752,9.7848 l -0.112469,2.249379"
           clip-path="url(#p9a8b5da5ae)"
           style="fill:none;stroke:#000000;stroke-linejoin:miter"
           id="path6930" /></g><g
         id="patch_3-7"
         transform="matrix(0.35277778,0,0,0.35277778,163.6607,79.56893)"><path
           d="M 48.054724,40.843614 47.4174,45.679779 M 36.732848,41.29349 q 0.224938,0.412386 0.5436,2.13691 0.318662,1.724524 0.881007,2.024441 0.899752,0 1.986952,-0.131213 1.0872,-0.131214 1.949462,-0.281173 0.862262,-0.149958 2.024441,-0.374896 1.16218,-0.224938 1.949462,-0.337407 l 1.537076,-0.337407 M 41.831441,26.110179 v 0.674814 q 0,2.024441 0.09372,4.442524 0.09372,2.418083 0.187448,4.330055 0.09372,1.911973 0.243683,4.517504 0.149958,2.605531 0.224937,4.367545 M 48.317152,30.384 48.129703,35.78251 M 36.995276,31.396221 v 3.599007 h 1.537076 3.299089 l 4.798676,-0.787283 1.237159,-0.224938"
           clip-path="url(#p9ecffbe647)"
           style="fill:none;stroke:#000000;stroke-linejoin:miter"
           id="path6934" /></g><g
         id="patch_4-3"
         transform="matrix(0.35277778,0,0,0.35277778,163.6607,79.56893)"><path
           d="m 72.412076,35.295145 v 0.224938 q 0,1.499586 1.274648,3.280345 1.274648,1.780758 3.167876,3.73022 1.893228,1.949462 2.418083,2.661766 l 0.899751,0.224938 m -7.760358,-9.897269 h 0.449876 q 0.562345,0 3.149131,-0.431131 2.586786,-0.431131 2.586786,-0.58109 0,2.286869 -0.637324,4.161352 -0.637324,1.874483 -1.724524,3.992648 -1.0872,2.118166 -1.574566,3.542772 l -0.787283,0.112469 M 72.187138,29.896634 77.810586,27.08491 M 71.9622,28.322069 q 0.262428,1.387117 0.318662,2.961683 0.05624,1.574565 0.01874,3.505282 -0.03749,1.930718 0,2.980428 0,0.487366 0.01875,1.687035 0.01874,1.199669 0,1.893227 -0.01875,0.693559 -0.243683,1.6308 -0.224938,0.937242 -0.674814,1.649545 M 62.814724,37.806952 Q 64.3518,37.544524 66.5262,36.569793 l -0.224938,10.684552 m 1.462097,-22.268855 0.112469,5.960855 m -4.948635,0.337407 h 0.224938 0.899752 l 5.39851,-1.012221 m -6.860607,-2.699255 v 0.562345 q 0,1.124689 0.224938,3.411558 0.224938,2.286869 0.224938,3.449049 0,1.537075 -0.224938,3.2616 -0.224938,1.724524 -0.599834,3.73022 -0.374897,2.005697 -0.524856,3.017918 l -0.112468,0.449875"
           clip-path="url(#p1d7be08115)"
           style="fill:none;stroke:#000000;stroke-linejoin:miter"
           id="path6938" /></g><g
         id="patch_5-59"
         transform="matrix(0.35277778,0,0,0.35277778,163.6607,79.56893)"><path
           d="M 97.650434,46.054676 H 108.78486 M 102.93648,28.24709 q 0.3374,3.18662 0.26242,8.997517 -0.075,5.810896 0.075,9.072496 M 99.787345,35.82 h 6.860605 m -12.933929,0.262428 3.711476,2.961682 m -3.936414,-2.286869 v 0.524856 q 0,1.499586 -0.05623,3.18662 -0.05623,1.687035 -0.149958,3.767711 -0.09372,2.080675 -0.131214,3.167875 M 91.014766,31.4712 q 0,0.187448 0.168703,0.168703 0.168703,-0.01874 0.356152,-0.07498 0.187448,-0.05623 0.262427,0.05623 0.299918,0 1.537076,-0.206193 1.237159,-0.206194 2.324359,-0.393642 l 1.0872,-0.224938 q -2.099421,5.323531 -7.085545,9.447393 m 3.2616,-13.608745 q 0.449876,0.262428 1.012221,1.16218 0.562344,0.899752 0.787282,1.124689 l 0.337407,0.149959"
           clip-path="url(#p0f705d0c6c)"
           style="fill:none;stroke:#000000;stroke-linejoin:miter"
           id="path6942" /></g></g><g
       id="axes_5-8"
       transform="matrix(0.35277778,0,0,0.35277778,130.05662,107.4112)" /><g
       id="axes_12-8"
       transform="matrix(0.35277778,0,0,0.35277778,130.05662,107.4112)" /><g
       id="g7596"
       transform="matrix(0.4,0,0,0.4,-16.404646,65.408089)"><g
         id="axes_1-17"
         transform="matrix(0.35277778,0,0,0.35277778,130.05662,107.4112)"><g
           id="patch_2-8"><path
             d="m 9.14976,37.53072 q 1.0368,0.93312 2.3328,3.42144 1.296,2.48832 2.25504,3.42144 l 1.1664,0.3888 M 10.6272,29.13264 Q 9.5904,28.5624 7.82784,28.58832 q -2.90304,0 -4.71744,1.944 -1.8144,1.944 -1.8144,4.82112 0,3.42144 2.21616,5.59872 2.21616,2.17728 5.6376,2.17728 1.24416,0 2.19024,-0.67392 0.94608,-0.67392 1.46448,-1.77552 0.5184,-1.1016 0.76464,-2.268 0.24624,-1.1664 0.24624,-2.35872 0,-1.58112 -0.46656,-2.73456 -0.46656,-1.15344 -1.27008,-2.3328 -0.80352,-1.17936 -1.14048,-2.0088 l -1.1664,-0.23328"
             clip-path="url(#p0724038c7f)"
             style="fill:none;stroke:#000000;stroke-linejoin:miter"
             id="path6998" /></g></g><g
         id="axes_2-5"
         transform="matrix(0.35277778,0,0,0.35277778,130.05662,107.4112)"><g
           id="patch_3-74"><path
             d="m 19.688772,35.145186 q 0,0 0,0.449876 0,0.674814 -0.112469,2.024441 -0.112469,1.349628 -0.112469,2.024442 0,2.286869 1.237159,3.955158 1.237159,1.66829 3.374069,1.66829 1.387117,-0.112469 2.155655,-1.349627 0.768538,-1.237159 0.918497,-2.680511 0.149958,-1.443352 0.412386,-3.242855 0.262428,-1.799503 0.674814,-2.624276 0.149958,-0.299917 0.149958,0.299917 0,0.599835 -0.262427,3.036662 -0.224938,2.324359 -0.224938,2.849214 -0.149959,1.0872 0.187448,2.21189 0.337407,1.12469 1.049711,1.836993"
             clip-path="url(#pca213fe81d)"
             style="fill:none;stroke:#000000;stroke-linejoin:miter"
             id="path7002" /></g></g><g
         id="axes_3-1"
         transform="matrix(0.35277778,0,0,0.35277778,130.05662,107.4112)"><g
           id="patch_4-85"><path
             d="m 34.577221,29.066925 h 10.184966 m -0.774943,4.31754 q 0,0 -2.87836,0 -2.989066,0 -4.926424,1.642141 -1.937357,1.642141 -1.937357,4.557403 0,1.734396 1.734396,2.638497 1.734396,0.9041 3.690205,0.9041 1.512984,-0.295216 2.380182,-1.476082 0.867198,-1.180866 1.088611,-2.398633 0.221412,-1.217768 0.424373,-3.136675 0.202961,-1.918906 0.424374,-2.730751 2.546241,9.594533 2.656947,10.517084 l 0.110706,1.107061"
             clip-path="url(#pe0ecf4ad46)"
             style="fill:none;stroke:#000000;stroke-linejoin:miter"
             id="path7006" /></g></g><g
         id="axes_4-97"
         transform="matrix(0.35277778,0,0,0.35277778,130.05662,107.4112)"><g
           id="patch_5-53"><path
             d="m 51.863834,32.783338 v 0.562345 q 0.862263,6.373241 0.899752,13.721214 0,0.749793 -0.07498,-0.03749 Q 52.238731,42.080772 52.088772,35.82 v -0.674814 q 0,-1.499586 1.593311,-2.13691 1.59331,-0.637324 3.017917,-0.224938 1.537076,0.449876 2.511807,1.6308 0.974731,1.180924 1.349627,2.867959 0.374897,1.687034 0.506111,3.2616 0.131214,1.574565 0.206193,3.524027 0.07498,1.949462 0.262428,2.999173"
             clip-path="url(#p10b0499d20)"
             style="fill:none;stroke:#000000;stroke-linejoin:miter"
             id="path7010" /></g></g><g
         id="axes_6-8"
         transform="matrix(0.35277778,0,0,0.35277778,130.05662,107.4112)"><g
           id="patch_6-31"><path
             d="m 94.356735,34.365306 q 0,0 -0.495919,0 -0.793469,0 -2.281224,-0.297551 -1.487755,-0.297551 -2.281225,-0.297551 -2.777143,0 -4.711224,1.454694 -1.934082,1.454694 -1.934082,4.198775 0,1.520817 1.487755,2.975511 1.487755,1.454694 3.421837,2.264694 1.934082,0.81 3.421837,0.81 0.925714,0 1.62,-0.363674 0.694286,-0.363673 1.438163,-0.991837 0.743878,-0.628163 1.305918,-0.925714 l 0.198368,-0.495918"
             clip-path="url(#p7c82a24810)"
             style="fill:none;stroke:#000000;stroke-linejoin:miter"
             id="path7015" /></g></g><g
         id="axes_7-8"
         transform="matrix(0.35277778,0,0,0.35277778,130.05662,107.4112)"><g
           id="patch_7-9"><path
             d="m 101.81346,35.932469 q 0.59984,-0.674814 1.59331,-1.105945 0.99348,-0.431131 1.89323,-0.356152 0.63732,0 1.12469,0.168704 0.48736,0.168703 0.80603,0.356152 0.31866,0.187448 0.5436,0.674813 0.22494,0.487366 0.3374,0.749793 0.11247,0.262428 0.16871,0.955987 0.0562,0.693558 0.075,0.955986 0.0187,0.262427 0,1.0872 -0.0188,0.824772 -0.0188,1.012221 0,0.937241 -0.1687,2.811724 -0.1687,1.874482 -0.1687,2.811724 0,0.412386 0.0562,0.768538 0.0562,0.356152 0.14996,0.787283 0.0937,0.431131 0.13121,0.693558 l 0.44988,0.224938 m -6.5232,-25.417986 q 0.22494,1.687034 0.22494,6.860607 V 42.3432 l -0.33741,4.498759 -0.22494,0.899751"
             clip-path="url(#pc5133e527b)"
             style="fill:none;stroke:#000000;stroke-linejoin:miter"
             id="path7019" /></g></g><g
         id="axes_8-64"
         transform="matrix(0.35277778,0,0,0.35277778,130.05662,107.4112)"><g
           id="patch_8-3"><path
             d="m 116.57011,31.43371 h 7.31048 m -8.09776,4.273821 q -0.0375,0.487366 0,1.687035 0,1.162179 0,1.6308 0,0.46862 0.0937,1.499586 0.0937,1.030965 0.24368,1.480841 0.14996,0.449876 0.48737,1.162179 0.33741,0.712304 0.82477,1.030966 0.48737,0.318662 1.23716,0.58109 0.74979,0.262427 1.72452,0.262427 1.38712,0 2.36185,-0.974731 0.97473,-0.974731 1.42461,-2.511807 0.44988,-1.537076 0.63732,-2.924193 0.18745,-1.387117 0.18745,-2.699255 0,0.862262 0.26243,2.305614 0.26243,1.443351 0.7123,3.317834 0.44988,1.874483 0.59984,2.699255 l 0.67481,0.224938"
             clip-path="url(#p8a9f2d394a)"
             style="fill:none;stroke:#000000;stroke-linejoin:miter"
             id="path7023" /></g></g><g
         id="axes_9-33"
         transform="matrix(0.35277778,0,0,0.35277778,130.05662,107.4112)"><g
           id="patch_9-86"><path
             d="m 134.15723,36.494814 q 1.04971,-0.03749 1.23716,-0.112469 3.41155,0 5.19231,2.080676 1.78076,2.080676 1.78076,5.567213 0,2.924194 -4.61123,2.924194 -0.63732,0 -1.18092,-0.112469 -0.5436,-0.112469 -1.18092,-0.337407 -0.63733,-0.224938 -1.12469,-0.337407 l -1.23716,-1.237159 m 1.01222,-20.244414 v 1.12469 q 0,2.849214 0.11247,6.448221 0.11247,3.599007 0.29991,7.891572 0.18745,4.292566 0.26243,6.242028"
             clip-path="url(#p5cb26abe99)"
             style="fill:none;stroke:#000000;stroke-linejoin:miter"
             id="path7027" /></g></g><g
         id="axes_10-0"
         transform="matrix(0.35277778,0,0,0.35277778,130.05662,107.4112)"><g
           id="patch_10-4"><path
             d="m 148.8389,27.609766 q 0.52485,0.262427 0.91849,1.124689 0.39364,0.862262 0.84352,1.499586 0.44988,0.637325 1.27465,0.524856 1.0872,0.224937 1.87448,-0.299918 0.78728,-0.524855 1.14344,-1.293393 0.35615,-0.768538 0.82477,-1.855738 0.46862,-1.0872 0.881,-1.612055 m 0.56235,9.334924 h -0.33741 q -0.52485,0 -1.64954,-0.281172 -1.12469,-0.281173 -1.72453,-0.281173 -1.91197,0 -3.37407,1.143435 -1.46209,1.143434 -1.46209,2.905448 0,1.574566 1.61205,3.036662 1.61206,1.462097 3.22411,1.462097 1.87449,0 3.07416,-2.568042 1.19966,-2.568041 1.19966,-4.85491 l -0.11246,-0.337407 v 0.337407 1.12469 q 0,0.824772 0.39364,2.586786 0.39364,1.762014 0.80602,3.149131 l 0.3749,1.349628"
             clip-path="url(#p51e1402671)"
             style="fill:none;stroke:#000000;stroke-linejoin:miter"
             id="path7031" /></g></g><g
         id="axes_11-8"
         transform="matrix(0.35277778,0,0,0.35277778,130.05662,107.4112)"><g
           id="patch_11-8"><path
             d="m 165.26383,32.783338 v 0.562345 q 0.86227,6.373241 0.89976,13.721214 0,0.749793 -0.075,-0.03749 Q 165.63873,42.080772 165.48877,35.82 v -0.674814 q 0,-1.499586 1.59331,-2.13691 1.59331,-0.637324 3.01792,-0.224938 1.53708,0.449876 2.51181,1.6308 0.97473,1.180924 1.34962,2.867959 0.3749,1.687034 0.50611,3.2616 0.13122,1.574565 0.2062,3.524027 0.075,1.949462 0.26243,2.999173"
             clip-path="url(#p6c7d8b77c4)"
             style="fill:none;stroke:#000000;stroke-linejoin:miter"
             id="path7035" /></g></g><g
         id="axes_13-97"
         transform="matrix(0.35277778,0,0,0.35277778,130.05662,107.4112)"><g
           id="patch_12-7"><path
             d="m 198.05748,43.917766 q 0.29991,0.262427 1.31213,1.237158 1.01222,0.974731 1.57457,1.405862 0.56234,0.431131 1.59331,0.824773 1.03096,0.393641 2.04319,0.243682 0.67481,0 1.14343,-0.224938 0.46862,-0.224937 0.69356,-0.524855 0.22494,-0.299917 0.35615,-0.899751 0.13121,-0.599835 0.14996,-1.012221 0.0187,-0.412386 0.0187,-1.162179 0,-1.0872 -0.89975,-1.762014 -0.89975,-0.674814 -2.19314,-1.012221 -1.2934,-0.337407 -2.58679,-0.731048 -1.29339,-0.393642 -2.19314,-1.312138 -0.89975,-0.918497 -0.89975,-2.380593 0,-0.524855 0.1687,-0.881007 0.1687,-0.356152 0.56234,-0.58109 0.39364,-0.224938 0.67482,-0.337407 0.28117,-0.112469 0.93724,-0.168703 0.65607,-0.05624 0.84352,-0.05624 0.18744,0 0.86226,0 1.19967,0 1.78076,0.412387 0.58109,0.412386 0.89975,1.030965 0.31866,0.618579 0.58109,0.806028"
             clip-path="url(#p26dd0bf779)"
             style="fill:none;stroke:#000000;stroke-linejoin:miter"
             id="path7040" /></g></g><g
         id="axes_14-6"
         transform="matrix(0.35277778,0,0,0.35277778,130.05662,107.4112)"><g
           id="patch_13-4"><path
             d="m 215.21346,35.932469 q 0.59984,-0.674814 1.59331,-1.105945 0.99348,-0.431131 1.89323,-0.356152 0.63732,0 1.12469,0.168704 0.48736,0.168703 0.80603,0.356152 0.31866,0.187448 0.5436,0.674813 0.22493,0.487366 0.3374,0.749793 0.11247,0.262428 0.16871,0.955987 0.0562,0.693558 0.075,0.955986 0.0187,0.262427 0,1.0872 -0.0188,0.824772 -0.0188,1.012221 0,0.937241 -0.1687,2.811724 -0.16871,1.874482 -0.16871,2.811724 0,0.412386 0.0562,0.768538 0.0562,0.356152 0.14996,0.787283 0.0937,0.431131 0.13121,0.693558 l 0.44988,0.224938 m -6.5232,-25.417986 q 0.22494,1.687034 0.22494,6.860607 V 42.3432 l -0.33741,4.498759 -0.22494,0.899751"
             clip-path="url(#pdc233e4d81)"
             style="fill:none;stroke:#000000;stroke-linejoin:miter"
             id="path7044" /></g></g><g
         id="axes_15-3"
         transform="matrix(0.35277778,0,0,0.35277778,130.05662,107.4112)"><g
           id="patch_14-0"><path
             d="m 231.4697,27.047421 q 0.86226,0.599834 1.68703,1.499586 0.82477,0.899752 1.78076,2.099421 0.95599,1.199669 1.48084,1.799503 M 231.8071,39.0816 h 0.22494 q 0.26243,-0.03749 0.78728,0.05623 0.52486,0.09372 0.78729,0.05624 0.59983,-0.07498 1.18092,-0.03749 0.58109,0.03749 1.14344,-0.03749 0.56234,-0.07498 0.99347,-0.299918 0.43113,-0.224938 0.69356,-0.806027 0.26243,-0.58109 0.26243,-1.518331 -0.11247,-1.237159 -1.03097,-1.799504 -0.91849,-0.562344 -2.11816,-0.449876 -1.34963,0.112469 -2.24938,1.12469 -0.89975,1.012221 -0.89975,2.361848 0,8.472662 6.74813,6.410731"
             clip-path="url(#p5724428274)"
             style="fill:none;stroke:#000000;stroke-linejoin:miter"
             id="path7048" /></g></g></g><g
       id="axes_7-1"
       transform="matrix(0.35277778,0,0,0.35277778,145.62151,133.51613)" /><g
       id="g7667"
       transform="matrix(0.4,0,0,0.4,-19.302596,61.174756)"><g
         id="axes_1-25"
         transform="matrix(0.35277778,0,0,0.35277778,145.62151,133.51613)"><g
           id="patch_2-40"><path
             d="m 14.348571,30.401849 q -3.212773,-2.096471 -8.413109,-2.205378 -1.279664,0 -2.382353,1.075462 -1.102689,1.075462 -1.647227,2.464033 -0.544537,1.388572 -0.544537,2.586555 0,3.348908 2.627394,6.003529 2.627395,2.654622 5.867395,2.654622 0.844034,0 1.524706,-0.340336 0.680673,-0.340336 1.075463,-0.775966 0.394789,-0.435631 0.966554,-1.034622 0.571765,-0.598992 1.089076,-0.952941 L 14.838655,39.06"
             clip-path="url(#p55eb5312c1)"
             style="fill:none;stroke:#000000;stroke-linejoin:miter"
             id="path7178" /></g></g><g
         id="axes_2-59"
         transform="matrix(0.35277778,0,0,0.35277778,145.62151,133.51613)"><g
           id="patch_3-4"><path
             d="m 24.918579,29.071862 q -0.374896,0.07498 -0.50611,0.50611 -0.131214,0.431131 -0.05624,0.843518 0,0.149958 0.03749,0.281172 0.03749,0.131214 0.09372,0.187448 0.05624,0.05624 0.112469,0.149959 0.05623,0.09372 0.09372,0.168703 l 0.112469,-1.349627 m 0,4.161352 q -0.899751,4.986124 -1.124689,8.772579 l 0.449876,2.586786 0.337406,0.674814"
             clip-path="url(#pe247f77ef8)"
             style="fill:none;stroke:#000000;stroke-linejoin:miter"
             id="path7182" /></g></g><g
         id="axes_3-69"
         transform="matrix(0.35277778,0,0,0.35277778,145.62151,133.51613)"><g
           id="patch_4-2"><path
             d="m 37.013462,32.783338 q 0.524855,1.724524 0.656069,3.673986 0.131214,1.949462 0.05624,4.498759 -0.07498,2.549296 -0.03749,3.748965 l 0.112469,1.349628 v -0.224938 q 0,-1.162179 -0.281173,-3.524028 -0.281172,-2.361848 -0.281172,-3.561517 0,-2.324359 1.012221,-3.861434 1.01222,-1.537076 3.036662,-1.537076 0.712303,0 1.04971,0.281172 0.337407,0.281173 0.599835,0.806028 0.262427,0.524855 0.599834,0.824772 l 0.449876,1.574566"
             clip-path="url(#p8717fe3454)"
             style="fill:none;stroke:#000000;stroke-linejoin:miter"
             id="path7186" /></g></g><g
         id="axes_4-2"
         transform="matrix(0.35277778,0,0,0.35277778,145.62151,133.51613)"><g
           id="patch_5-4"><path
             d="m 61.956735,34.365306 q 0,0 -0.495919,0 -0.793469,0 -2.281224,-0.297551 -1.487755,-0.297551 -2.281225,-0.297551 -2.777143,0 -4.711224,1.454694 -1.934082,1.454694 -1.934082,4.198775 0,1.520817 1.487755,2.975511 1.487755,1.454694 3.421837,2.264694 1.934082,0.81 3.421837,0.81 0.925714,0 1.62,-0.363674 0.694286,-0.363673 1.438163,-0.991837 0.743878,-0.628163 1.305918,-0.925714 l 0.198368,-0.495918"
             clip-path="url(#pf4bc836a92)"
             style="fill:none;stroke:#000000;stroke-linejoin:miter"
             id="path7190" /></g></g><g
         id="axes_5-77"
         transform="matrix(0.35277778,0,0,0.35277778,145.62151,133.51613)"><g
           id="patch_6-5"><path
             d="m 72.506359,28.621986 q 0.224938,1.724524 0.299917,3.524028 0.07498,1.799503 0.05623,4.405034 -0.01874,2.605531 -0.01874,3.542773 0,0.03749 0.224937,5.735917 l 0.224938,1.012221"
             clip-path="url(#p0ecf30271e)"
             style="fill:none;stroke:#000000;stroke-linejoin:miter"
             id="path7194" /></g></g><g
         id="axes_6-4"
         transform="matrix(0.35277778,0,0,0.35277778,145.62151,133.51613)"><g
           id="patch_7-8"><path
             d="m 82.857798,38.160826 q 2.972477,1.37477 7.691285,1.56055 1.523394,0 2.210779,-1.170413 0.687386,-1.170413 0.687386,-2.730963 0,-0.520183 -0.09289,-0.910321 -0.09289,-0.390138 -0.334404,-0.613073 -0.241514,-0.222936 -0.408715,-0.352982 -0.167202,-0.130046 -0.613074,-0.18578 -0.445871,-0.05573 -0.650229,-0.07431 -0.204358,-0.01858 -0.780275,0 -0.575918,0.01858 -0.798854,0.01858 -2.043578,0 -3.529816,1.876376 -1.486239,1.876376 -1.486239,4.031422 0,3.009633 1.93211,4.960321 1.93211,1.950688 4.978899,1.950688 2.155046,0.297248 3.678441,-2.229357"
             clip-path="url(#pd428d30bad)"
             style="fill:none;stroke:#000000;stroke-linejoin:miter"
             id="path7198" /></g></g><g
         id="axes_8-2"
         transform="matrix(0.35277778,0,0,0.35277778,145.62151,133.51613)"><g
           id="patch_8-8"><path
             d="m 115.88486,27.235936 q 0,0 2.32351,0 1.29083,0 1.90398,0.01614 0.61315,0.01614 1.85558,0.112948 1.24243,0.09681 1.88785,0.274303 0.64541,0.17749 1.56514,0.564741 0.91972,0.387251 1.38765,0.935856 0.46792,0.548606 0.8229,1.419921 0.35498,0.871314 0.35498,2.000796 0,0.903586 -0.3227,1.597411 -0.32271,0.693825 -0.79064,1.129482 -0.46793,0.435657 -1.24243,0.726095 -0.77451,0.290439 -1.46833,0.435658 -0.69382,0.145219 -1.67809,0.193625 -0.98426,0.04841 -1.64581,0.04841 -0.66156,0 -1.64582,-0.03227 -0.98426,-0.03227 -1.37151,-0.03227 -0.0323,0 -1.64582,-0.09681 l -1.16175,-0.677689 m 1.45219,-8.325896 v 0.484063 q 0,1.774901 0.22589,3.807968 0.2259,2.033068 0.59702,4.517929 0.37111,2.48486 0.53247,3.775697 l 0.0968,5.518327"
             clip-path="url(#pb608b021ba)"
             style="fill:none;stroke:#000000;stroke-linejoin:miter"
             id="path7203" /></g></g><g
         id="axes_9-9"
         transform="matrix(0.35277778,0,0,0.35277778,145.62151,133.51613)"><g
           id="patch_9-3"><path
             d="m 134.21346,32.783338 q 0.52486,1.724524 0.65607,3.673986 0.13121,1.949462 0.0562,4.498759 -0.075,2.549296 -0.0375,3.748965 l 0.11246,1.349628 v -0.224938 q 0,-1.162179 -0.28117,-3.524028 -0.28117,-2.361848 -0.28117,-3.561517 0,-2.324359 1.01222,-3.861434 1.01222,-1.537076 3.03666,-1.537076 0.71231,0 1.04971,0.281172 0.33741,0.281173 0.59984,0.806028 0.26242,0.524855 0.59983,0.824772 l 0.44988,1.574566"
             clip-path="url(#p51e7a1c100)"
             style="fill:none;stroke:#000000;stroke-linejoin:miter"
             id="path7207" /></g></g><g
         id="axes_10-6"
         transform="matrix(0.35277778,0,0,0.35277778,145.62151,133.51613)"><g
           id="patch_10-8"><path
             d="m 147.6578,38.160826 q 2.97247,1.37477 7.69128,1.56055 1.5234,0 2.21078,-1.170413 0.68739,-1.170413 0.68739,-2.730963 0,-0.520183 -0.0929,-0.910321 -0.0929,-0.390138 -0.33441,-0.613073 -0.24151,-0.222936 -0.40871,-0.352982 -0.1672,-0.130046 -0.61308,-0.18578 -0.44587,-0.05573 -0.65022,-0.07431 -0.20436,-0.01858 -0.78028,0 -0.57592,0.01858 -0.79885,0.01858 -2.04358,0 -3.52982,1.876376 -1.48624,1.876376 -1.48624,4.031422 0,3.009633 1.93211,4.960321 1.93211,1.950688 4.9789,1.950688 2.15505,0.297248 3.67844,-2.229357"
             clip-path="url(#pe376b027d3)"
             style="fill:none;stroke:#000000;stroke-linejoin:miter"
             id="path7211" /></g></g><g
         id="axes_11-0"
         transform="matrix(0.35277778,0,0,0.35277778,145.62151,133.51613)"><g
           id="patch_11-2"><path
             d="m 165.65748,43.917766 q 0.29991,0.262427 1.31213,1.237158 1.01222,0.974731 1.57457,1.405862 0.56234,0.431131 1.59331,0.824773 1.03096,0.393641 2.04319,0.243682 0.67481,0 1.14343,-0.224938 0.46862,-0.224937 0.69356,-0.524855 0.22494,-0.299917 0.35615,-0.899751 0.13121,-0.599835 0.14996,-1.012221 0.0187,-0.412386 0.0187,-1.162179 0,-1.0872 -0.89975,-1.762014 -0.89975,-0.674814 -2.19314,-1.012221 -1.2934,-0.337407 -2.58679,-0.731048 -1.29339,-0.393642 -2.19314,-1.312138 -0.89976,-0.918497 -0.89976,-2.380593 0,-0.524855 0.16871,-0.881007 0.1687,-0.356152 0.56234,-0.58109 0.39364,-0.224938 0.67482,-0.337407 0.28117,-0.112469 0.93724,-0.168703 0.65607,-0.05624 0.84352,-0.05624 0.18744,0 0.86226,0 1.19967,0 1.78076,0.412387 0.58109,0.412386 0.89975,1.030965 0.31866,0.618579 0.58109,0.806028"
             clip-path="url(#pa0ca16c50e)"
             style="fill:none;stroke:#000000;stroke-linejoin:miter"
             id="path7215" /></g></g><g
         id="axes_12-1"
         transform="matrix(0.35277778,0,0,0.35277778,145.62151,133.51613)"><g
           id="patch_12-05"><path
             d="m 181.85748,43.917766 q 0.29991,0.262427 1.31213,1.237158 1.01222,0.974731 1.57457,1.405862 0.56234,0.431131 1.59331,0.824773 1.03096,0.393641 2.04319,0.243682 0.67481,0 1.14343,-0.224938 0.46862,-0.224937 0.69356,-0.524855 0.22494,-0.299917 0.35615,-0.899751 0.13121,-0.599835 0.14996,-1.012221 0.0187,-0.412386 0.0187,-1.162179 0,-1.0872 -0.89975,-1.762014 -0.89975,-0.674814 -2.19314,-1.012221 -1.2934,-0.337407 -2.58679,-0.731048 -1.29339,-0.393642 -2.19314,-1.312138 -0.89976,-0.918497 -0.89976,-2.380593 0,-0.524855 0.16871,-0.881007 0.1687,-0.356152 0.56234,-0.58109 0.39364,-0.224938 0.67482,-0.337407 0.28117,-0.112469 0.93724,-0.168703 0.65607,-0.05624 0.84352,-0.05624 0.18744,0 0.86226,0 1.19967,0 1.78076,0.412387 0.58109,0.412386 0.89975,1.030965 0.31866,0.618579 0.58109,0.806028"
             clip-path="url(#pce89486fa1)"
             style="fill:none;stroke:#000000;stroke-linejoin:miter"
             id="path7219" /></g></g></g></g></svg>
